<svg width="176" height="131" viewBox="0 0 176 131" fill="none" xmlns="http://www.w3.org/2000/svg">
<g clip-path="url(#clip0_219_4259)">
<path d="M121.511 45.0774C125.423 45.0774 128.594 41.906 128.594 37.9938C128.594 34.0816 125.423 30.9102 121.511 30.9102C117.599 30.9102 114.427 34.0816 114.427 37.9938C114.427 41.906 117.599 45.0774 121.511 45.0774Z" fill="#F2F2F2"/>
<path d="M84.8049 99.6901C84.7625 99.6901 84.721 99.6775 84.6857 99.6539C84.6504 99.6303 84.6229 99.5968 84.6067 99.5576C84.5904 99.5184 84.5862 99.4752 84.5945 99.4336C84.6027 99.3919 84.6232 99.3537 84.6532 99.3237L87.4603 96.5164C87.5006 96.4761 87.5552 96.4535 87.6121 96.4535C87.669 96.4535 87.7236 96.4761 87.7639 96.5164C87.8041 96.5566 87.8268 96.6112 87.8268 96.6682C87.8268 96.7251 87.8041 96.7797 87.7639 96.8199L84.9567 99.6272C84.9368 99.6472 84.9131 99.663 84.8871 99.6738C84.8611 99.6846 84.8331 99.6901 84.8049 99.6901Z" fill="#CCCCCC"/>
<path d="M102.622 79.3147H99.1871C98.931 79.3145 98.6855 79.2126 98.5044 79.0315C98.3233 78.8504 98.2215 78.6049 98.2212 78.3488V73.8411C98.2215 73.585 98.3233 73.3394 98.5044 73.1584C98.6855 72.9773 98.931 72.8754 99.1871 72.8751H102.622C102.878 72.8754 103.123 72.9773 103.304 73.1584C103.485 73.3394 103.587 73.585 103.588 73.8411V78.3488C103.587 78.6049 103.485 78.8504 103.304 79.0315C103.123 79.2126 102.878 79.3145 102.622 79.3147Z" fill="#E6E6E6"/>
<path d="M131.6 116.021H113.998C113.514 116.02 113.05 115.828 112.708 115.486C112.366 115.144 112.174 114.68 112.173 114.196V80.066C112.174 79.5823 112.366 79.1185 112.708 78.7765C113.05 78.4344 113.514 78.242 113.998 78.2415H131.6C132.083 78.242 132.547 78.4344 132.889 78.7765C133.231 79.1185 133.424 79.5823 133.424 80.066V114.196C133.424 114.68 133.231 115.144 132.889 115.486C132.547 115.828 132.083 116.02 131.6 116.021Z" fill="#E6E6E6"/>
<path d="M121.082 116.021H90.6009C90.1172 116.02 89.6534 115.828 89.3114 115.486C88.9693 115.144 88.7769 114.68 88.7764 114.196V80.066C88.7769 79.5823 88.9693 79.1185 89.3114 78.7765C89.6534 78.4344 90.1172 78.242 90.6009 78.2415H121.082C121.566 78.242 122.029 78.4344 122.371 78.7765C122.713 79.1185 122.906 79.5823 122.906 80.066V114.196C122.906 114.68 122.713 115.144 122.371 115.486C122.029 115.828 121.566 116.02 121.082 116.021Z" fill="#F2F2F2"/>
<path d="M99.4014 79.3147H95.9669C95.7108 79.3145 95.4653 79.2126 95.2842 79.0315C95.1031 78.8504 95.0013 78.6049 95.001 78.3488V73.8411C95.0013 73.585 95.1031 73.3394 95.2842 73.1584C95.4653 72.9773 95.7108 72.8754 95.9669 72.8751H99.4014C99.6575 72.8754 99.903 72.9773 100.084 73.1584C100.265 73.3394 100.367 73.585 100.367 73.8411V78.3488C100.367 78.6049 100.265 78.8504 100.084 79.0315C99.903 79.2126 99.6575 79.3145 99.4014 79.3147Z" fill="#F2F2F2"/>
<path d="M103.91 95.0918H99.8311C99.6888 95.0917 99.5524 95.0351 99.4518 94.9345C99.3512 94.8339 99.2946 94.6975 99.2944 94.5552V88.3302C99.2946 88.1879 99.3512 88.0515 99.4518 87.9509C99.5524 87.8503 99.6888 87.7937 99.8311 87.7936H103.91C104.052 87.7937 104.188 87.8503 104.289 87.9509C104.389 88.0515 104.446 88.1879 104.446 88.3302V94.5552C104.446 94.6975 104.389 94.8339 104.289 94.9345C104.188 95.0351 104.052 95.0917 103.91 95.0918Z" fill="white"/>
<path d="M111.851 95.0918H107.773C107.631 95.0917 107.494 95.0351 107.394 94.9345C107.293 94.8339 107.236 94.6975 107.236 94.5552V88.3302C107.236 88.1879 107.293 88.0515 107.394 87.9509C107.494 87.8503 107.631 87.7937 107.773 87.7936H111.851C111.994 87.7937 112.13 87.8503 112.231 87.9509C112.331 88.0515 112.388 88.1879 112.388 88.3302V94.5552C112.388 94.6975 112.331 94.8339 112.231 94.9345C112.13 95.0351 111.994 95.0917 111.851 95.0918Z" fill="white"/>
<path d="M103.91 106.469H99.8311C99.6888 106.468 99.5524 106.412 99.4518 106.311C99.3512 106.211 99.2946 106.074 99.2944 105.932V99.7069C99.2946 99.5646 99.3512 99.4282 99.4518 99.3276C99.5524 99.227 99.6888 99.1704 99.8311 99.1703H103.91C104.052 99.1704 104.188 99.227 104.289 99.3276C104.389 99.4282 104.446 99.5646 104.446 99.7069V105.932C104.446 106.074 104.389 106.211 104.289 106.311C104.188 106.412 104.052 106.468 103.91 106.469Z" fill="white"/>
<path d="M111.851 106.469H107.773C107.631 106.468 107.494 106.412 107.394 106.311C107.293 106.211 107.236 106.074 107.236 105.932V99.7069C107.236 99.5646 107.293 99.4282 107.394 99.3276C107.494 99.227 107.631 99.1704 107.773 99.1703H111.851C111.994 99.1704 112.13 99.227 112.231 99.3276C112.331 99.4282 112.388 99.5646 112.388 99.7069V105.932C112.388 106.074 112.331 106.211 112.231 106.311C112.13 106.412 111.994 106.468 111.851 106.469Z" fill="white"/>
<path d="M151.992 100.544C151.992 96.7527 148.916 87.7567 145.123 87.7567C141.329 87.7567 138.254 96.7527 138.254 100.544C138.254 102.365 138.978 104.113 140.266 105.401C141.554 106.689 143.301 107.413 145.123 107.413C146.945 107.413 148.692 106.689 149.98 105.401C151.268 104.113 151.992 102.365 151.992 100.544Z" fill="#E6E6E6"/>
<path d="M150.274 100.544C150.274 96.7527 147.199 87.7567 143.406 87.7567C139.612 87.7567 136.537 96.7527 136.537 100.544C136.537 102.365 137.26 104.113 138.548 105.401C139.837 106.689 141.584 107.413 143.406 107.413C145.227 107.413 146.974 106.689 148.263 105.401C149.551 104.113 150.274 102.365 150.274 100.544Z" fill="#F2F2F2"/>
<path d="M143.62 115.902C143.563 115.902 143.509 115.88 143.469 115.839C143.428 115.799 143.406 115.745 143.406 115.688V96.5533C143.406 96.4963 143.428 96.4418 143.469 96.4015C143.509 96.3612 143.563 96.3386 143.62 96.3386C143.677 96.3386 143.732 96.3612 143.772 96.4015C143.812 96.4418 143.835 96.4963 143.835 96.5533V115.688C143.835 115.745 143.812 115.799 143.772 115.839C143.732 115.88 143.677 115.902 143.62 115.902Z" fill="#CCCCCC"/>
<path d="M143.62 99.6901C143.578 99.6901 143.536 99.6775 143.501 99.6539C143.466 99.6303 143.438 99.5968 143.422 99.5576C143.406 99.5184 143.402 99.4752 143.41 99.4336C143.418 99.3919 143.439 99.3537 143.469 99.3237L146.276 96.5164C146.316 96.4761 146.371 96.4535 146.428 96.4535C146.484 96.4535 146.539 96.4761 146.579 96.5164C146.62 96.5566 146.642 96.6112 146.642 96.6682C146.642 96.7251 146.62 96.7797 146.579 96.8199L143.772 99.6272C143.752 99.6472 143.729 99.663 143.703 99.6738C143.676 99.6846 143.649 99.6901 143.62 99.6901Z" fill="#CCCCCC"/>
<path d="M118.413 105.226C118.464 105.24 118.512 105.265 118.553 105.299C118.594 105.333 118.627 105.376 118.65 105.424C118.673 105.472 118.685 105.525 118.685 105.578C118.685 105.631 118.673 105.684 118.651 105.732L119.584 106.633L118.927 106.78L118.141 105.903C118.063 105.86 118.002 105.789 117.972 105.705C117.941 105.62 117.943 105.527 117.977 105.444C118.01 105.361 118.073 105.293 118.153 105.252C118.234 105.212 118.326 105.203 118.413 105.226Z" fill="#FFB8B8"/>
<path d="M119.725 107.594L118.574 106.514C118.558 106.499 118.545 106.481 118.536 106.461C118.527 106.441 118.522 106.42 118.522 106.398C118.522 106.376 118.526 106.355 118.534 106.334C118.542 106.314 118.554 106.296 118.569 106.28L118.804 106.042C118.832 106.014 118.869 105.997 118.909 105.994C118.949 105.991 118.988 106.003 119.02 106.027L119.984 106.765L120.586 105.305C120.61 105.247 120.645 105.195 120.69 105.151C120.735 105.108 120.788 105.074 120.846 105.052C120.904 105.03 120.967 105.02 121.029 105.023C121.091 105.026 121.152 105.042 121.208 105.069C121.296 105.112 121.368 105.182 121.413 105.269C121.458 105.356 121.474 105.455 121.457 105.552C121.348 106.216 120.686 107.094 120.302 107.558C120.249 107.621 120.178 107.667 120.099 107.688C120.019 107.709 119.935 107.706 119.858 107.677C119.809 107.659 119.763 107.63 119.725 107.594Z" fill="#6C63FF"/>
<path d="M119.079 106.546L118.232 105.317C118.221 105.301 118.216 105.281 118.22 105.263C118.223 105.244 118.234 105.227 118.25 105.216L118.284 105.192C118.292 105.187 118.301 105.183 118.31 105.181C118.319 105.179 118.329 105.179 118.338 105.181C118.348 105.183 118.357 105.186 118.365 105.191C118.373 105.196 118.38 105.203 118.385 105.211L119.233 106.44C119.238 106.448 119.242 106.457 119.244 106.466C119.246 106.476 119.246 106.485 119.244 106.495C119.243 106.504 119.239 106.513 119.234 106.521C119.229 106.529 119.222 106.536 119.214 106.541L119.18 106.565C119.164 106.576 119.145 106.58 119.126 106.577C119.107 106.573 119.09 106.562 119.079 106.546Z" fill="white"/>
<path d="M118.842 106.555L118.138 105.535C118.108 105.491 118.097 105.438 118.106 105.386C118.116 105.334 118.146 105.288 118.189 105.257L118.261 105.208L119.191 106.557L119.119 106.606C119.076 106.636 119.022 106.648 118.97 106.638C118.918 106.629 118.872 106.599 118.842 106.555Z" fill="#3F3D56"/>
<path d="M118.927 115.363L118.485 115.312L118.544 113.591L119.124 113.658L118.927 115.363Z" fill="#FFB8B8"/>
<path d="M118.99 115.804L117.565 115.64L117.568 115.622C117.576 115.549 117.599 115.478 117.634 115.414C117.67 115.35 117.718 115.294 117.775 115.248C117.833 115.203 117.899 115.169 117.969 115.149C118.04 115.129 118.113 115.123 118.186 115.131L119.056 115.232L118.99 115.804Z" fill="#2F2E41"/>
<path d="M124.066 115.036L123.641 115.167L122.932 113.591L123.559 113.397L124.066 115.036Z" fill="#FFB8B8"/>
<path d="M124.302 115.415L122.931 115.838L122.926 115.821C122.904 115.751 122.896 115.677 122.903 115.604C122.91 115.531 122.931 115.46 122.965 115.395C123 115.33 123.046 115.273 123.103 115.226C123.159 115.179 123.224 115.144 123.294 115.122L124.131 114.864L124.302 115.415Z" fill="#2F2E41"/>
<path d="M118.434 114.966C118.389 114.952 118.351 114.922 118.328 114.88C118.306 114.839 118.3 114.791 118.313 114.746L118.579 111.679C118.591 111.539 118.635 111.404 118.708 111.284L120.32 108.608L121.763 108.867L121.772 108.871C122.474 109.3 123.096 111.383 123.698 113.397C123.792 113.71 123.889 114.034 123.983 114.344C124.001 114.388 124 114.437 123.982 114.481C123.964 114.525 123.929 114.56 123.885 114.579L123.448 114.762C123.407 114.78 123.361 114.782 123.318 114.767C123.276 114.752 123.24 114.722 123.219 114.682L120.973 110.57C120.97 110.565 120.966 110.561 120.961 110.557C120.956 110.554 120.951 110.552 120.945 110.551C120.939 110.551 120.933 110.551 120.928 110.554C120.922 110.556 120.918 110.559 120.914 110.564L119.61 112.039L119.131 114.85L119.129 114.856C119.112 114.896 119.081 114.928 119.041 114.947C119.002 114.966 118.957 114.97 118.915 114.959L118.445 114.968L118.442 114.968L118.434 114.966Z" fill="#2F2E41"/>
<path d="M120.242 108.901L120.233 108.898L120.23 108.889C120.223 108.866 119.564 106.635 120.158 105.212L120.159 105.211C120.176 105.177 120.591 104.38 121.073 104.3L121.085 104.298L121.242 104.591C121.291 104.64 122.139 105.52 121.754 107.033C121.788 107.157 122.256 108.86 122.002 109.114C121.909 109.178 121.796 109.207 121.684 109.194C121.194 109.152 120.71 109.054 120.242 108.901Z" fill="#6C63FF"/>
<path d="M120.973 104.021C121.595 104.021 122.098 103.518 122.098 102.897C122.098 102.275 121.595 101.772 120.973 101.772C120.352 101.772 119.849 102.275 119.849 102.897C119.849 103.518 120.352 104.021 120.973 104.021Z" fill="#2F2E41"/>
<path d="M120.526 104.016C121.019 104.016 121.418 103.617 121.418 103.125C121.418 102.633 121.019 102.234 120.526 102.234C120.034 102.234 119.635 102.633 119.635 103.125C119.635 103.617 120.034 104.016 120.526 104.016Z" fill="#FFB8B8"/>
<path d="M121.1 103.991C121.019 104.019 120.919 104.045 120.855 103.985C120.828 103.951 120.813 103.909 120.81 103.865C120.808 103.822 120.818 103.779 120.841 103.741C120.887 103.668 120.924 103.589 120.952 103.507C120.96 103.445 120.953 103.382 120.929 103.325C120.906 103.267 120.868 103.216 120.82 103.177C120.723 103.103 120.614 103.048 120.497 103.014L119.873 102.793C119.711 102.755 119.567 102.661 119.466 102.529C119.414 102.419 119.405 102.293 119.441 102.176C119.477 102.06 119.555 101.961 119.66 101.899C119.766 101.846 119.883 101.817 120.001 101.814C120.12 101.812 120.238 101.836 120.346 101.886C120.465 101.941 120.587 101.99 120.711 102.032C120.961 102.098 121.245 102.039 121.464 102.179C121.557 102.25 121.63 102.342 121.678 102.448C121.726 102.554 121.746 102.67 121.738 102.786C121.719 103.019 121.656 103.247 121.554 103.457C121.506 103.587 121.438 103.708 121.351 103.815C121.308 103.867 121.253 103.908 121.191 103.935C121.129 103.962 121.062 103.973 120.994 103.968L121.1 103.991Z" fill="#2F2E41"/>
<path d="M121.917 103.078C122.317 103.078 122.642 102.753 122.642 102.352C122.642 101.952 122.317 101.627 121.917 101.627C121.516 101.627 121.191 101.952 121.191 102.352C121.191 102.753 121.516 103.078 121.917 103.078Z" fill="#2F2E41"/>
<path d="M120.719 103.405C120.719 103.391 120.723 103.379 120.73 103.367C120.736 103.356 120.746 103.347 120.758 103.341C120.769 103.334 120.782 103.331 120.796 103.332C120.809 103.333 120.821 103.337 120.832 103.344C120.843 103.352 120.852 103.362 120.858 103.374C120.863 103.386 120.865 103.399 120.864 103.412C120.863 103.425 120.858 103.438 120.85 103.448C120.842 103.459 120.831 103.467 120.819 103.472V103.631C120.819 103.635 120.818 103.639 120.817 103.642C120.816 103.645 120.814 103.648 120.811 103.651C120.809 103.653 120.806 103.655 120.802 103.657C120.799 103.658 120.795 103.659 120.792 103.659C120.788 103.659 120.785 103.658 120.781 103.657C120.778 103.655 120.775 103.653 120.772 103.651C120.77 103.648 120.768 103.645 120.767 103.642C120.765 103.639 120.765 103.635 120.765 103.631V103.472C120.751 103.466 120.74 103.457 120.732 103.445C120.724 103.433 120.719 103.419 120.719 103.405Z" fill="white"/>
<path d="M118.456 105.988C118.509 105.983 118.563 105.989 118.613 106.007C118.664 106.025 118.71 106.053 118.748 106.09C118.786 106.128 118.815 106.173 118.834 106.223C118.853 106.273 118.86 106.326 118.856 106.379L120.045 106.898L119.48 107.265L118.438 106.716C118.349 106.704 118.268 106.659 118.21 106.59C118.152 106.521 118.121 106.434 118.124 106.344C118.126 106.254 118.161 106.168 118.222 106.103C118.284 106.037 118.367 105.996 118.456 105.988Z" fill="#FFB8B8"/>
<path d="M120.512 107.75L119.057 107.139C119.037 107.13 119.018 107.118 119.003 107.102C118.988 107.087 118.976 107.068 118.968 107.048C118.96 107.028 118.956 107.006 118.957 106.984C118.957 106.963 118.962 106.941 118.971 106.921L119.108 106.616C119.125 106.58 119.154 106.551 119.19 106.535C119.226 106.518 119.267 106.515 119.305 106.527L120.466 106.882L120.522 105.304C120.524 105.241 120.539 105.18 120.566 105.124C120.592 105.068 120.63 105.017 120.677 104.976C120.724 104.936 120.779 104.905 120.838 104.886C120.898 104.867 120.96 104.86 121.022 104.866C121.12 104.876 121.212 104.916 121.284 104.982C121.357 105.048 121.406 105.136 121.424 105.232C121.553 105.892 121.239 106.946 121.04 107.515C121.013 107.593 120.962 107.66 120.895 107.708C120.828 107.755 120.748 107.781 120.666 107.781C120.613 107.781 120.561 107.771 120.512 107.75Z" fill="#6C63FF"/>
<path d="M78.9609 105.793L78.0566 106.433C78.045 106.441 78.0311 106.446 78.0167 106.446C78.0024 106.446 77.9885 106.441 77.9769 106.433L77.7325 106.249C77.7244 106.243 77.7177 106.236 77.713 106.227C77.7082 106.218 77.7056 106.208 77.7051 106.198C77.7047 106.188 77.7066 106.178 77.7105 106.169C77.7145 106.16 77.7205 106.151 77.7281 106.145L78.424 105.524C78.4331 105.516 78.4443 105.511 78.4562 105.508C78.4681 105.506 78.4804 105.507 78.4919 105.511L78.9447 105.673C78.9563 105.677 78.9666 105.685 78.9743 105.694C78.9821 105.704 78.9871 105.716 78.9887 105.728C78.9904 105.74 78.9887 105.753 78.9838 105.764C78.9789 105.776 78.971 105.785 78.9609 105.793Z" fill="#3F3D56"/>
<path d="M78.8872 105.732C78.8894 105.726 78.8892 105.719 78.8866 105.713C78.884 105.708 78.8791 105.703 78.8732 105.701L78.4653 105.555C78.4613 105.553 78.4569 105.553 78.4526 105.554C78.4484 105.555 78.4444 105.556 78.4412 105.559L77.8135 106.119L77.8101 106.123C77.8083 106.125 77.807 106.128 77.8063 106.131C77.8056 106.134 77.8055 106.137 77.806 106.14C77.8065 106.143 77.8076 106.146 77.8092 106.149C77.8108 106.151 77.813 106.154 77.8155 106.155L78.0352 106.32C78.0394 106.323 78.0444 106.325 78.0495 106.325C78.0546 106.325 78.0596 106.323 78.0637 106.32L78.8787 105.743C78.8826 105.74 78.8856 105.736 78.8872 105.732Z" fill="white"/>
<path d="M149.099 115.52C149.1 114.543 149.488 113.606 150.179 112.916C150.87 112.226 151.807 111.838 152.784 111.838C153.76 111.838 154.697 112.226 155.388 112.916C156.079 113.606 156.468 114.543 156.468 115.52" fill="#F2F2F2"/>
<path d="M152.784 115.519C152.758 115.519 152.732 115.509 152.714 115.49C152.695 115.472 152.685 115.446 152.685 115.42V113.478C152.685 113.452 152.695 113.426 152.714 113.408C152.732 113.389 152.758 113.378 152.784 113.378C152.811 113.378 152.836 113.389 152.855 113.408C152.873 113.426 152.884 113.452 152.884 113.478V115.42C152.884 115.446 152.873 115.472 152.855 115.49C152.836 115.509 152.811 115.519 152.784 115.519Z" fill="#CCCCCC"/>
<path d="M152.784 114.852C152.76 114.852 152.737 114.844 152.719 114.828L151.524 113.803C151.514 113.794 151.506 113.784 151.5 113.772C151.494 113.76 151.49 113.748 151.489 113.734C151.488 113.721 151.49 113.708 151.494 113.696C151.498 113.683 151.504 113.672 151.513 113.662C151.521 113.652 151.532 113.643 151.544 113.637C151.555 113.632 151.568 113.628 151.581 113.627C151.594 113.626 151.608 113.628 151.62 113.632C151.632 113.636 151.644 113.643 151.654 113.651L152.849 114.677C152.864 114.69 152.875 114.708 152.88 114.728C152.886 114.747 152.884 114.768 152.877 114.787C152.87 114.806 152.858 114.823 152.841 114.834C152.824 114.846 152.804 114.852 152.784 114.852Z" fill="#CCCCCC"/>
<path d="M160.452 115.52C160.453 114.543 160.841 113.606 161.532 112.916C162.223 112.226 163.16 111.838 164.137 111.838C165.114 111.838 166.05 112.226 166.741 112.916C167.432 113.606 167.821 114.543 167.821 115.52" fill="#F2F2F2"/>
<path d="M164.137 115.519C164.11 115.519 164.085 115.509 164.066 115.49C164.048 115.472 164.037 115.446 164.037 115.42V113.478C164.037 113.452 164.048 113.426 164.066 113.408C164.085 113.389 164.11 113.378 164.137 113.378C164.163 113.378 164.188 113.389 164.207 113.408C164.226 113.426 164.236 113.452 164.236 113.478V115.42C164.236 115.446 164.226 115.472 164.207 115.49C164.188 115.509 164.163 115.519 164.137 115.519Z" fill="#CCCCCC"/>
<path d="M164.137 114.852C164.113 114.852 164.09 114.844 164.072 114.828L162.877 113.803C162.867 113.794 162.858 113.784 162.852 113.772C162.846 113.76 162.843 113.748 162.842 113.734C162.841 113.721 162.842 113.708 162.846 113.696C162.85 113.683 162.857 113.671 162.865 113.661C162.874 113.652 162.884 113.643 162.896 113.637C162.908 113.631 162.921 113.628 162.934 113.627C162.947 113.626 162.96 113.628 162.973 113.632C162.985 113.636 162.997 113.643 163.007 113.651L164.202 114.677C164.217 114.69 164.228 114.708 164.233 114.728C164.238 114.747 164.237 114.768 164.23 114.787C164.223 114.806 164.21 114.823 164.194 114.834C164.177 114.846 164.157 114.852 164.137 114.852Z" fill="#CCCCCC"/>
<path d="M59.8631 92.0238C67.4599 92.0238 73.6183 85.8654 73.6183 78.2686C73.6183 70.6719 67.4599 64.5135 59.8631 64.5135C52.2663 64.5135 46.1079 70.6719 46.1079 78.2686C46.1079 85.8654 52.2663 92.0238 59.8631 92.0238Z" fill="#80AD00"/>
<path opacity="0.2" d="M49.7066 69.0812C48.4236 72.0825 48.2495 75.4422 49.2156 78.56C50.1816 81.6778 52.2248 84.3505 54.98 86.1006C57.7353 87.8506 61.023 88.5639 64.2557 88.113C67.4885 87.6621 70.4556 86.0765 72.6268 83.6393C71.843 85.473 70.67 87.1143 69.1889 88.4496C67.7078 89.7849 65.9541 90.7822 64.0493 91.3724C62.1445 91.9627 60.1342 92.1318 58.1576 91.8679C56.1809 91.6041 54.2853 90.9137 52.602 89.8445C50.9187 88.7753 49.488 87.353 48.409 85.676C47.33 83.999 46.6284 82.1074 46.353 80.1324C46.0776 78.1574 46.2349 76.1461 46.814 74.2379C47.393 72.3296 48.38 70.5701 49.7066 69.0812Z" fill="black"/>
<path d="M59.9011 78.2685H59.9389L60.6191 117.267H59.1831L59.9011 78.2685Z" fill="#CBCBCB"/>
<path d="M83.8287 72.6087C92.9789 72.6087 100.397 65.191 100.397 56.0408C100.397 46.8906 92.9789 39.4729 83.8287 39.4729C74.6785 39.4729 67.2607 46.8906 67.2607 56.0408C67.2607 65.191 74.6785 72.6087 83.8287 72.6087Z" fill="#0B57D0"/>
<path opacity="0.2" d="M96.0616 44.9748C97.6071 48.5898 97.8167 52.6365 96.6531 56.3919C95.4895 60.1472 93.0285 63.3665 89.7099 65.4744C86.3913 67.5822 82.4312 68.4414 78.5374 67.8983C74.6436 67.3552 71.0698 65.4453 68.4546 62.5098C69.3986 64.7184 70.8116 66.6954 72.5955 68.3037C74.3795 69.912 76.4918 71.1133 78.7861 71.8242C81.0804 72.5352 83.5018 72.7388 85.8826 72.4211C88.2634 72.1033 90.5467 71.2717 92.5742 69.9839C94.6017 68.6961 96.325 66.9829 97.6246 64.9629C98.9243 62.943 99.7693 60.6647 100.101 58.2858C100.433 55.9069 100.243 53.4843 99.5458 51.1859C98.8484 48.8874 97.6595 46.7681 96.0616 44.9748Z" fill="black"/>
<path d="M83.7828 56.0409H83.7373L82.918 103.014H84.6477L83.7828 56.0409Z" fill="#CBCBCB"/>
<path d="M53.0719 40.5216L55.3214 38.7224C53.5739 38.5296 52.8558 39.4827 52.562 40.237C51.1967 39.6701 49.7104 40.4131 49.7104 40.4131L54.2113 42.0471C53.9843 41.4406 53.589 40.9114 53.0719 40.5216Z" fill="#A0616A"/>
<path d="M47.4015 24.9962L49.651 23.197C47.9035 23.0042 47.1854 23.9573 46.8916 24.7117C45.5263 24.1448 44.04 24.8877 44.04 24.8877L48.5409 26.5217C48.3139 25.9152 47.9186 25.386 47.4015 24.9962Z" fill="#A0616A"/>
<path d="M79.2687 35.034L81.5182 33.2348C79.7706 33.042 79.0526 33.9951 78.7587 34.7494C77.3935 34.1825 75.9072 34.9255 75.9072 34.9255L80.4081 36.5595C80.1811 35.953 79.7858 35.4238 79.2687 35.034Z" fill="#A0616A"/>
<path d="M77.0459 102.942C77.0459 102.942 77.132 101.138 78.8965 101.348L77.0459 102.942Z" fill="#CBCBCB"/>
<path d="M89.0322 102.942C89.0322 102.942 89.1183 101.138 90.8828 101.348L89.0322 102.942Z" fill="#CBCBCB"/>
<path d="M85.542 102.942C85.542 102.942 85.6281 101.138 87.3926 101.348L85.542 102.942Z" fill="#CBCBCB"/>
<path d="M73.835 102.942C73.835 102.942 73.7489 101.138 71.9844 101.348L73.835 102.942Z" fill="#CBCBCB"/>
<path d="M81.3135 103.066C81.3135 103.066 81.2274 101.263 79.4629 101.472L81.3135 103.066Z" fill="#CBCBCB"/>
<path d="M53.8633 117.109C53.8633 117.109 53.9494 115.305 55.7139 115.515L53.8633 117.109Z" fill="#CBCBCB"/>
<path d="M65.8496 117.109C65.8496 117.109 65.9357 115.305 67.7002 115.515L65.8496 117.109Z" fill="#CBCBCB"/>
<path d="M62.3594 117.109C62.3594 117.109 62.4455 115.305 64.21 115.515L62.3594 117.109Z" fill="#CBCBCB"/>
<path d="M50.6524 117.109C50.6524 117.109 50.5663 115.305 48.8018 115.515L50.6524 117.109Z" fill="#CBCBCB"/>
<path d="M58.1309 117.234C58.1309 117.234 58.0448 115.43 56.2803 115.64L58.1309 117.234Z" fill="#CBCBCB"/>
<path d="M144.814 32.5641H121.748V34.6195H144.814V32.5641Z" fill="#3F3D56"/>
<path d="M144.814 40.1358H121.748V42.1912H144.814V40.1358Z" fill="#3F3D56"/>
<path d="M144.814 46.9188H121.748V48.9742H144.814V46.9188Z" fill="#3F3D56"/>
<path d="M113.072 33.5918C113.072 33.0615 113.23 32.543 113.524 32.102C113.819 31.661 114.238 31.3173 114.728 31.1143C115.218 30.9114 115.757 30.8583 116.277 30.9617C116.797 31.0652 117.275 31.3206 117.65 31.6957C118.025 32.0707 118.281 32.5485 118.384 33.0687C118.487 33.5889 118.434 34.1281 118.231 34.6181C118.028 35.1081 117.685 35.5269 117.244 35.8216C116.803 36.1162 116.284 36.2735 115.754 36.2735C115.043 36.2727 114.361 35.9899 113.859 35.4872C113.356 34.9844 113.073 34.3028 113.072 33.5918Z" fill="#0B57D0"/>
<path d="M113.072 41.1635C113.072 40.6331 113.23 40.1147 113.524 39.6737C113.819 39.2327 114.238 38.889 114.728 38.686C115.218 38.483 115.757 38.4299 116.277 38.5334C116.797 38.6369 117.275 38.8923 117.65 39.2673C118.025 39.6423 118.281 40.1202 118.384 40.6403C118.487 41.1605 118.434 41.6997 118.231 42.1897C118.028 42.6797 117.685 43.0985 117.244 43.3932C116.803 43.6879 116.284 43.8451 115.754 43.8451C115.043 43.8444 114.361 43.5616 113.859 43.0588C113.356 42.5561 113.073 41.8745 113.072 41.1635Z" fill="#0B57D0"/>
<path d="M113.072 47.9465C113.072 47.4161 113.23 46.8976 113.524 46.4566C113.819 46.0156 114.238 45.6719 114.728 45.469C115.218 45.266 115.757 45.2129 116.277 45.3164C116.797 45.4198 117.275 45.6752 117.65 46.0503C118.025 46.4253 118.281 46.9031 118.384 47.4233C118.487 47.9435 118.434 48.4827 118.231 48.9727C118.028 49.4627 117.685 49.8815 117.244 50.1762C116.803 50.4708 116.284 50.6281 115.754 50.6281C115.043 50.6273 114.361 50.3445 113.859 49.8418C113.356 49.3391 113.073 48.6574 113.072 47.9465Z" fill="#0B57D0"/>
<path d="M90.4678 51.6441L90.1289 51.3809L98.8115 40.2013H110.167V40.6306H99.0216L90.4678 51.6441Z" fill="#3F3D56"/>
<path d="M23.0658 57.0348H0V59.0901H23.0658V57.0348Z" fill="#3F3D56"/>
<path d="M23.0658 64.6064H0V66.6618H23.0658V64.6064Z" fill="#3F3D56"/>
<path d="M23.0658 71.3894H0V73.4447H23.0658V71.3894Z" fill="#3F3D56"/>
<path d="M29.0601 60.7441C28.5297 60.7441 28.0112 60.5868 27.5702 60.2921C27.1292 59.9975 26.7855 59.5787 26.5826 59.0887C26.3796 58.5986 26.3265 58.0595 26.4299 57.5393C26.5334 57.0191 26.7888 56.5413 27.1639 56.1662C27.5389 55.7912 28.0167 55.5358 28.5369 55.4323C29.0571 55.3289 29.5963 55.382 30.0863 55.5849C30.5763 55.7879 30.9951 56.1316 31.2898 56.5726C31.5844 57.0136 31.7417 57.5321 31.7417 58.0624C31.7417 58.4146 31.6723 58.7633 31.5376 59.0887C31.4028 59.414 31.2053 59.7096 30.9563 59.9586C30.7072 60.2077 30.4116 60.4052 30.0863 60.5399C29.7609 60.6747 29.4122 60.7441 29.0601 60.7441Z" fill="#80AD00"/>
<path d="M29.0601 68.3157C28.5297 68.3157 28.0112 68.1585 27.5702 67.8638C27.1292 67.5691 26.7855 67.1503 26.5825 66.6603C26.3796 66.1703 26.3265 65.6311 26.4299 65.1109C26.5334 64.5907 26.7888 64.1129 27.1639 63.7379C27.5389 63.3629 28.0167 63.1075 28.5369 63.004C29.0571 62.9005 29.5963 62.9536 30.0863 63.1566C30.5763 63.3596 30.9951 63.7033 31.2898 64.1443C31.5844 64.5853 31.7417 65.1037 31.7417 65.6341C31.7417 65.9863 31.6723 66.335 31.5376 66.6603C31.4028 66.9857 31.2053 67.2813 30.9563 67.5303C30.7072 67.7793 30.4116 67.9768 30.0863 68.1116C29.7609 68.2464 29.4122 68.3157 29.0601 68.3157Z" fill="#80AD00"/>
<path d="M29.0601 75.0987C28.5297 75.0987 28.0112 74.9414 27.5702 74.6467C27.1292 74.3521 26.7855 73.9333 26.5825 73.4433C26.3796 72.9533 26.3265 72.4141 26.4299 71.8939C26.5334 71.3737 26.7888 70.8959 27.1639 70.5208C27.5389 70.1458 28.0167 69.8904 28.5369 69.7869C29.0571 69.6835 29.5963 69.7366 30.0863 69.9395C30.5763 70.1425 30.9951 70.4862 31.2898 70.9272C31.5844 71.3682 31.7417 71.8867 31.7417 72.4171C31.7417 72.7692 31.6723 73.1179 31.5376 73.4433C31.4028 73.7686 31.2053 74.0642 30.9563 74.3133C30.7072 74.5623 30.4116 74.7598 30.0863 74.8946C29.7609 75.0293 29.4122 75.0987 29.0601 75.0987Z" fill="#80AD00"/>
<path d="M54.346 76.1147L45.792 65.1012H34.647V64.6719H46.0022L46.0666 64.7549L54.6849 75.8515L54.346 76.1147Z" fill="#3F3D56"/>
<path d="M103.171 1.65393H80.105V3.7093H103.171V1.65393Z" fill="#3F3D56"/>
<path d="M103.171 9.22565H80.105V11.281H103.171V9.22565Z" fill="#3F3D56"/>
<path d="M103.171 16.0086H80.105V18.064H103.171V16.0086Z" fill="#3F3D56"/>
<path d="M71.4292 2.68164C71.4292 2.15126 71.5865 1.63279 71.8811 1.1918C72.1758 0.750807 72.5946 0.407097 73.0846 0.20413C73.5746 0.00116369 74.1138 -0.0519442 74.634 0.0515277C75.1542 0.154999 75.632 0.410401 76.007 0.785435C76.3821 1.16047 76.6375 1.63829 76.7409 2.15848C76.8444 2.67866 76.7913 3.21785 76.5883 3.70786C76.3854 4.19786 76.0417 4.61667 75.6007 4.91134C75.1597 5.206 74.6412 5.36327 74.1108 5.36327C73.3999 5.36248 72.7182 5.07969 72.2155 4.57696C71.7128 4.07423 71.43 3.39261 71.4292 2.68164Z" fill="#0B57D0"/>
<path d="M71.4292 10.2533C71.4292 9.72292 71.5865 9.20445 71.8811 8.76346C72.1758 8.32246 72.5946 7.97875 73.0846 7.77579C73.5746 7.57282 74.1138 7.51971 74.634 7.62318C75.1542 7.72665 75.632 7.98205 76.007 8.35709C76.3821 8.73212 76.6375 9.20994 76.7409 9.73013C76.8444 10.2503 76.7913 10.7895 76.5883 11.2795C76.3854 11.7695 76.0417 12.1883 75.6007 12.483C75.1597 12.7776 74.6412 12.9349 74.1108 12.9349C73.3999 12.9341 72.7182 12.6514 72.2155 12.1486C71.7128 11.6459 71.43 10.9643 71.4292 10.2533Z" fill="#0B57D0"/>
<path d="M71.4292 17.0363C71.4292 16.5059 71.5865 15.9874 71.8811 15.5464C72.1758 15.1054 72.5946 14.7617 73.0846 14.5587C73.5746 14.3558 74.1138 14.3027 74.634 14.4061C75.1542 14.5096 75.632 14.765 76.007 15.14C76.3821 15.5151 76.6375 15.9929 76.7409 16.5131C76.8444 17.0333 76.7913 17.5725 76.5883 18.0625C76.3854 18.5525 76.0417 18.9713 75.6007 19.2659C75.1597 19.5606 74.6412 19.7179 74.1108 19.7179C73.3999 19.7171 72.7182 19.4343 72.2155 18.9316C71.7128 18.4288 71.43 17.7472 71.4292 17.0363Z" fill="#0B57D0"/>
<path d="M48.8253 20.7339L48.4863 20.4707L57.1689 9.29108H68.5243V9.72039H57.379L48.8253 20.7339Z" fill="#3F3D56"/>
</g>
<defs>
<clipPath id="clip0_219_4259">
<rect width="175.872" height="131" fill="white"/>
</clipPath>
</defs>
</svg>
