<svg width="263" height="131" viewBox="0 0 263 131" fill="none" xmlns="http://www.w3.org/2000/svg">
<path d="M94.8532 1.2202C99.3678 -0.691786 105.027 -0.48154 108.721 2.74247C103.47 3.66548 98.7141 6.41614 95.2958 10.5078C93.9833 12.0905 92.6881 13.9876 90.6698 14.3801C89.4139 14.6244 88.1018 14.204 87.0297 13.5059C85.9575 12.8077 85.0848 11.8495 84.2247 10.9022L83.9253 10.7911C86.812 6.82822 90.3386 3.13219 94.8532 1.2202Z" fill="#F0F0F0"/>
<path d="M108.664 2.8284C104.69 2.00504 100.558 2.45468 96.8546 4.11346C96.0509 4.4564 95.3064 4.92388 94.6483 5.49867C94.0254 6.07931 93.5693 6.81618 93.3274 7.6327C93.0866 8.3895 92.9279 9.19151 92.5073 9.87661C92.2869 10.2241 91.9954 10.521 91.6521 10.748C91.3088 10.9749 90.9214 11.1267 90.5153 11.1935C89.5078 11.386 88.4911 11.2051 87.5031 10.9936C86.4061 10.7588 85.2703 10.4975 84.1552 10.7729C84.0201 10.8063 83.9762 10.5947 84.1112 10.5614C86.0512 10.0823 87.9277 11.1493 89.8689 11.053C90.7747 11.0081 91.6725 10.6899 92.215 9.92714C92.6894 9.26015 92.8537 8.43326 93.0909 7.66487C93.3152 6.86486 93.7319 6.13194 94.3048 5.53012C94.9314 4.92368 95.6568 4.4283 96.4496 4.06519C98.2216 3.21926 100.116 2.65721 102.062 2.39962C104.282 2.09331 106.538 2.16903 108.733 2.62349C108.869 2.65167 108.799 2.85639 108.664 2.8284Z" fill="white"/>
<path d="M98.0157 3.50916C97.8218 2.85 97.8685 2.14335 98.1474 1.51543C98.4264 0.887496 98.9195 0.379173 99.5386 0.0812356C99.6641 0.0213811 99.763 0.213571 99.6374 0.273504C99.0603 0.549878 98.601 1.02343 98.3425 1.60868C98.0839 2.19394 98.043 2.85235 98.2273 3.46508C98.2672 3.59828 98.0554 3.6416 98.0157 3.50916Z" fill="white"/>
<path d="M93.3993 7.23287C94.6263 7.91633 96.066 8.11218 97.431 7.78136C97.5662 7.74847 97.6102 7.96004 97.4751 7.99289C96.0539 8.3345 94.5562 8.12765 93.2808 7.41362C93.1593 7.34548 93.2784 7.16509 93.3993 7.23287Z" fill="white"/>
<path d="M104.205 2.36929C104.227 2.63997 104.316 2.90098 104.464 3.12887C104.611 3.35676 104.813 3.5444 105.052 3.67493C105.174 3.74149 105.055 3.92181 104.933 3.85568C104.671 3.71023 104.448 3.50274 104.284 3.25131C104.12 2.99989 104.021 2.7122 103.994 2.41337C103.989 2.38541 103.995 2.35664 104.01 2.3329C104.026 2.30916 104.05 2.29223 104.078 2.28556C104.106 2.27987 104.135 2.28546 104.159 2.30114C104.183 2.31682 104.199 2.34131 104.205 2.36929Z" fill="white"/>
<path d="M108.279 19.3365C108.201 19.2971 108.124 19.2577 108.045 19.2191C106.999 18.6949 105.913 18.2565 104.796 17.9082C104.71 17.8799 104.623 17.8525 104.536 17.8267C101.838 17.0163 99.0117 16.714 96.2026 16.9351C95.0848 17.0241 93.9755 17.1981 92.8841 17.4554C91.3769 17.8109 89.771 18.3162 88.2784 18.1577C88.1224 18.1429 87.9676 18.1184 87.8147 18.0845L83.8129 11.165C83.8117 11.1447 83.8089 11.1253 83.8077 11.1049L83.6353 10.836C83.6906 10.8188 83.7484 10.8021 83.8038 10.7849C83.8358 10.7748 83.8688 10.7662 83.9009 10.7561C83.9225 10.7499 83.9442 10.7437 83.9634 10.7368C83.9706 10.7347 83.9779 10.7326 83.9835 10.7314C84.0027 10.7246 84.0213 10.7202 84.0389 10.7142C84.3616 10.6203 84.6856 10.5284 85.0108 10.4386C85.0124 10.4377 85.0124 10.4377 85.0149 10.4383C87.4862 9.73067 90.0329 9.31866 92.6013 9.21095C92.678 9.20877 92.7562 9.20561 92.8347 9.20658C93.9839 9.17997 95.1333 9.24732 96.2714 9.40796C96.8944 9.49793 97.5123 9.61937 98.123 9.77183C99.7001 10.1688 101.205 10.8113 102.582 11.6759C105.328 13.3999 107.492 15.9827 108.225 19.0979C108.244 19.1776 108.262 19.2558 108.279 19.3365Z" fill="#F0F0F0"/>
<path d="M108.182 19.3717C105.505 16.3218 101.935 14.193 97.9791 13.2876C97.131 13.0776 96.255 13.0026 95.3835 13.0653C94.5366 13.1539 93.7288 13.4676 93.044 13.974C92.3961 14.4332 91.7866 14.9781 91.0383 15.2718C90.653 15.4165 90.2415 15.4782 89.8308 15.4527C89.42 15.4272 89.0193 15.3152 88.6549 15.1239C87.7345 14.6711 87.0317 13.9145 86.3701 13.1508C85.6356 12.3028 84.8861 11.4104 83.8299 10.9589C83.702 10.9042 83.7943 10.7089 83.9221 10.7635C85.7596 11.549 86.6154 13.5307 88.2234 14.6226C88.9737 15.1321 89.8821 15.4186 90.7744 15.1362C91.5548 14.8892 92.1839 14.3279 92.8359 13.8572C93.4966 13.3535 94.2706 13.0192 95.0903 12.8836C95.9558 12.7767 96.8332 12.8178 97.6848 13.0053C99.609 13.3967 101.46 14.0883 103.169 15.0546C105.126 16.1466 106.882 17.5654 108.36 19.2494C108.452 19.3537 108.273 19.4753 108.182 19.3717Z" fill="white"/>
<path d="M99.2703 13.5042C99.5123 12.8611 99.975 12.325 100.576 11.9916C101.177 11.6582 101.876 11.5492 102.55 11.6841C102.686 11.7118 102.65 11.9248 102.513 11.897C101.886 11.7703 101.234 11.8719 100.675 12.1835C100.117 12.4951 99.6875 12.9962 99.4657 13.5964C99.4173 13.7267 99.2222 13.6338 99.2703 13.5042Z" fill="white"/>
<path d="M93.3419 13.6978C93.9102 14.9823 94.9417 16.0054 96.2308 16.5631C96.3586 16.6183 96.2663 16.8136 96.1387 16.7585C94.7983 16.1757 93.727 15.1088 93.1386 13.7708C93.0826 13.6432 93.2862 13.5709 93.3419 13.6978Z" fill="white"/>
<path d="M104.899 16.3207C104.753 16.55 104.667 16.8118 104.648 17.0827C104.628 17.3536 104.677 17.625 104.788 17.8726C104.846 17.9994 104.642 18.0716 104.585 17.9456C104.463 17.6715 104.41 17.3717 104.431 17.0724C104.451 16.773 104.545 16.4833 104.703 16.2285C104.716 16.2032 104.738 16.1838 104.765 16.1742C104.792 16.1646 104.821 16.1656 104.847 16.1769C104.873 16.1892 104.893 16.2112 104.902 16.2381C104.912 16.2651 104.911 16.2947 104.899 16.3207Z" fill="white"/>
<path d="M192.033 131H86.1719V25.1388H192.033V131Z" fill="white"/>
<path d="M192.033 131H86.1719V25.1388H192.033V131ZM87.736 129.436H190.469V26.7029H87.736V129.436Z" fill="#F0F0F0"/>
<path d="M175.891 70.6472H107.999V73.0438H175.891V70.6472Z" fill="#0B57D0"/>
<path d="M175.891 76.8784H107.999V79.275H175.891V76.8784Z" fill="#0B57D0"/>
<path d="M175.891 83.1096H107.999V85.5062H175.891V83.1096Z" fill="#0B57D0"/>
<path d="M103.878 73.7606C104.742 73.7606 105.442 73.0604 105.442 72.1965C105.442 71.3327 104.742 70.6324 103.878 70.6324C103.014 70.6324 102.314 71.3327 102.314 72.1965C102.314 73.0604 103.014 73.7606 103.878 73.7606Z" fill="#0B57D0"/>
<path d="M175.891 43.7969H107.999V46.1936H175.891V43.7969Z" fill="#F0F0F0"/>
<path d="M175.891 50.0281H107.999V52.4248H175.891V50.0281Z" fill="#F0F0F0"/>
<path d="M175.891 56.2594H107.999V58.656H175.891V56.2594Z" fill="#F0F0F0"/>
<path d="M103.878 46.6498C104.742 46.6498 105.442 45.9495 105.442 45.0857C105.442 44.2219 104.742 43.5216 103.878 43.5216C103.014 43.5216 102.314 44.2219 102.314 45.0857C102.314 45.9495 103.014 46.6498 103.878 46.6498Z" fill="#F0F0F0"/>
<path d="M175.891 97.7581H107.999V100.155H175.891V97.7581Z" fill="#F0F0F0"/>
<path d="M175.891 103.989H107.999V106.386H175.891V103.989Z" fill="#F0F0F0"/>
<path d="M175.891 110.22H107.999V112.617H175.891V110.22Z" fill="#F0F0F0"/>
<path d="M103.878 100.611C104.742 100.611 105.442 99.9106 105.442 99.0468C105.442 98.183 104.742 97.4827 103.878 97.4827C103.014 97.4827 102.314 98.183 102.314 99.0468C102.314 99.9106 103.014 100.611 103.878 100.611Z" fill="#E5E5E5"/>
<path d="M248.859 89.1816H187.264C186.341 89.1792 185.593 87.6495 185.592 85.7608V39.937C185.592 38.0487 186.341 36.5194 187.264 36.5162H248.859C249.782 36.5186 250.53 38.0483 250.531 39.937V85.7604C250.53 87.6487 249.781 89.1792 248.859 89.1816Z" fill="white"/>
<path d="M248.859 89.1816H187.264C186.341 89.1792 185.593 87.6495 185.592 85.7608V39.937C185.592 38.0487 186.341 36.5194 187.264 36.5162H248.859C249.782 36.5186 250.53 38.0483 250.531 39.937V85.7604C250.53 87.6487 249.781 89.1792 248.859 89.1816ZM187.264 37.8845C186.71 37.8845 186.261 38.8041 186.26 39.937V85.7604C186.26 86.8933 186.71 87.8118 187.264 87.8129H248.859C249.413 87.8129 249.862 86.8937 249.862 85.7604V39.937C249.862 38.8041 249.413 37.8857 248.859 37.8845L187.264 37.8845Z" fill="#E6E6E6"/>
<path d="M226.401 73.8796H209.821V75.1258H226.401V73.8796Z" fill="#6C63FF"/>
<path d="M228.469 77.1178H207.603V78.364H228.469V77.1178Z" fill="#6C63FF"/>
<path d="M223.142 63.7149C219.852 64.8697 216.265 64.8558 212.984 63.6755L212.981 63.6741L215.174 59.3462H221.06L223.142 63.7149Z" fill="white"/>
<path d="M174.666 105.567H220.883V85.3021H220.172V104.856H174.666V105.567Z" fill="#3F3D56"/>
<path d="M220.528 92.4963C222.688 92.4963 224.439 90.7454 224.439 88.5856C224.439 86.4258 222.688 84.6749 220.528 84.6749C218.368 84.6749 216.617 86.4258 216.617 88.5856C216.617 90.7454 218.368 92.4963 220.528 92.4963Z" fill="#3F3D56"/>
<path d="M89.2059 61.1175H27.6104C26.6876 61.1152 25.9397 59.5855 25.9385 57.6967V11.873C25.9385 9.9846 26.6876 8.45529 27.6104 8.45215H89.2059C90.1286 8.4545 90.8766 9.98421 90.8778 11.873V57.6963C90.8766 59.5847 90.1274 61.1152 89.2059 61.1175Z" fill="white"/>
<path d="M89.2059 61.1175H27.6104C26.6876 61.1152 25.9397 59.5855 25.9385 57.6967V11.873C25.9385 9.9846 26.6876 8.45529 27.6104 8.45215H89.2059C90.1286 8.4545 90.8766 9.98421 90.8778 11.873V57.6963C90.8766 59.5847 90.1274 61.1152 89.2059 61.1175ZM27.6104 9.82037C27.0565 9.82037 26.6079 10.74 26.6071 11.8729V57.6963C26.6071 58.8292 27.0565 59.7477 27.6104 59.7488H89.2059C89.7597 59.7488 90.2084 58.8296 90.2092 57.6963V11.873C90.2092 10.74 89.7598 9.82158 89.2059 9.8204L27.6104 9.82037Z" fill="#E6E6E6"/>
<path d="M72.0824 22.7678C69.3415 19.8577 65.5683 18.1391 61.5737 17.9813V33.2764L72.0824 22.7678Z" fill="#FCC934"/>
<path d="M72.0824 24.6721L61.5737 35.1808H76.2599C76.2651 31.2721 74.7698 27.5105 72.0824 24.6721Z" fill="#E4E4E4"/>
<path d="M76.2754 36.2799C76.276 37.2332 76.1878 38.1845 76.012 39.1215C75.9983 39.1957 75.9839 39.2691 75.9688 39.3425C75.6372 40.9769 75.0386 42.5455 74.1971 43.9853C74.1524 44.0626 74.1062 44.1398 74.06 44.2155V44.2163C73.2307 45.5809 72.1935 46.8078 70.986 47.8528C70.9262 47.9051 70.8664 47.9565 70.8058 48.0073C68.2109 50.1905 64.962 51.4459 61.5732 51.5749V36.2799H76.2754Z" fill="#F0F0F0"/>
<path d="M60.0877 51.5883C60.291 51.5883 60.4931 51.5831 60.6945 51.5753V36.2795L49.5708 47.4032C52.41 50.0953 56.1751 51.5935 60.0877 51.5883Z" fill="#CACACA"/>
<path d="M60.1086 19.872C58.0982 19.872 56.1075 20.268 54.2502 21.0373C52.3928 21.8067 50.7052 22.9343 49.2836 24.3558C47.8621 25.7774 46.7344 27.465 45.9651 29.3224C45.1958 31.1797 44.7998 33.1704 44.7998 35.1808H60.7312V19.8857C60.5245 19.8774 60.3172 19.872 60.1086 19.872Z" fill="#0B57D0"/>
<path d="M58.0155 36.5917L54.7969 39.8103L54.6917 39.9156L54.6894 39.9179L51.8827 42.7238L51.7759 42.8306L48.7435 45.8629L48.6368 45.9697V45.9705L46.8916 47.7149C45.3762 46.2859 44.1693 44.5619 43.3452 42.6489C42.5211 40.736 42.0972 38.6746 42.0996 36.5917H58.0155Z" fill="#2F2E41" fill-opacity="0.48"/>
<path d="M108.176 78.1264H61.959V57.8616H62.6699V77.4151H108.176V78.1264Z" fill="#3F3D56"/>
<path d="M62.314 65.0558C64.4738 65.0558 66.2247 63.3049 66.2247 61.1451C66.2247 58.9853 64.4738 57.2344 62.314 57.2344C60.1542 57.2344 58.4033 58.9853 58.4033 61.1451C58.4033 63.3049 60.1542 65.0558 62.314 65.0558Z" fill="#3F3D56"/>
<path d="M29.1842 81.5828C29.4379 81.4303 29.6551 81.2241 29.8204 80.9786C29.9858 80.7332 30.0953 80.4544 30.1413 80.162C30.1872 79.8696 30.1685 79.5707 30.0865 79.2864C30.0044 79.002 29.861 78.7391 29.6664 78.5161L32.2973 52.1154L27.9042 52.4069L26.6872 78.4036C26.3343 78.7554 26.1228 79.2245 26.0926 79.7219C26.0624 80.2193 26.2158 80.7104 26.5236 81.1023C26.8314 81.4942 27.2722 81.7596 27.7626 81.8481C28.253 81.9367 28.7588 81.8423 29.1842 81.5828Z" fill="#FFB8B8"/>
<path d="M26.1245 51.1375L27.2763 59.8912L27.1164 65.2561L31.948 65.6985L32.9164 61.2364L33.4499 49.4234C33.4901 48.5324 33.1912 47.6593 32.6132 46.98C32.0353 46.3007 31.2213 45.8657 30.3354 45.7627C29.4162 45.6558 28.4919 45.9146 27.7619 46.4833C27.0319 47.0519 26.5548 47.8847 26.4334 48.8021L26.1245 51.1375Z" fill="#2F2E41"/>
<path d="M44.6281 128.159H47.5589L48.9531 116.854H44.6274L44.6281 128.159Z" fill="#FFB7B7"/>
<path d="M43.8804 127.202L49.6524 127.202C50.6279 127.202 51.5637 127.589 52.2535 128.279C52.9433 128.969 53.3309 129.905 53.331 130.88V131L43.8806 131L43.8804 127.202Z" fill="#2F2E41"/>
<path d="M20.4269 128.159H23.3577L24.7519 116.854H20.4263L20.4269 128.159Z" fill="#FFB7B7"/>
<path d="M19.6792 127.202L25.4512 127.202C26.4267 127.202 27.3625 127.589 28.0524 128.279C28.7422 128.969 29.1297 129.905 29.1298 130.88V131L19.6794 131L19.6792 127.202Z" fill="#2F2E41"/>
<path d="M31.8237 41.6016C35.3332 41.6016 38.1782 38.7566 38.1782 35.2472C38.1782 31.7377 35.3332 28.8927 31.8237 28.8927C28.3142 28.8927 25.4692 31.7377 25.4692 35.2472C25.4692 38.7566 28.3142 41.6016 31.8237 41.6016Z" fill="#FFB8B8"/>
<path d="M32.6452 44.1815L28.2354 44.6854C27.163 46.2062 26.4677 47.9602 26.2068 49.8027C25.9459 51.6451 26.1269 53.5232 26.7349 55.2819L30.0623 64.9078C30.0623 64.9078 25.4433 74.1678 25.4433 82.7652C25.4433 91.3627 16.6465 122.051 16.6465 122.051L29.0288 123.343L34.4316 90.6508L41.8769 123.211L50.3765 121.827L45.6952 79.1374L42.6017 65.0863L42.4699 58.2339C42.4699 58.2339 43.7853 53.0922 40.4933 49.8003L36.4741 44.1998L32.6452 44.1815Z" fill="#2F2E41"/>
<path d="M63.7329 66.8177C63.7201 66.4937 63.6363 66.1764 63.4875 65.8883C63.3387 65.6001 63.1286 65.3481 62.8719 65.1499C62.6152 64.9518 62.3182 64.8123 62.0017 64.7414C61.6853 64.6705 61.3571 64.6698 61.0404 64.7394L37.0605 48.3072L35.0269 52.6815L59.3633 67.5425C59.5155 68.0668 59.8547 68.5171 60.3167 68.808C60.7787 69.0989 61.3314 69.2103 61.87 69.121C62.4086 69.0316 62.8958 68.7478 63.2391 68.3233C63.5825 67.8988 63.7582 67.3631 63.7329 66.8177Z" fill="#FFB8B8"/>
<path d="M32.8699 53.7229L41.8869 57.2265L46.9573 60.2057L49.927 55.7965L46.1499 52.516L35.081 45.7819C34.2462 45.274 33.2498 45.1014 32.2928 45.2989C31.3357 45.4964 30.4891 46.0494 29.9235 46.8463C29.3368 47.6732 29.0986 48.6975 29.2605 49.6984C29.4224 50.6992 29.9713 51.5963 30.7887 52.196L32.8699 53.7229Z" fill="#2F2E41"/>
<path d="M39.2312 32.9778H29.8936V28.9075C31.9431 28.0933 33.9486 27.4008 35.161 28.9075C36.2405 28.9075 37.2757 29.3363 38.0391 30.0996C38.8024 30.863 39.2312 31.8983 39.2312 32.9778Z" fill="#2F2E41"/>
<path d="M31.5593 28.501C25.9771 28.5257 24.4146 35.4981 24.4146 39.4456C24.4146 41.647 25.4101 42.4344 26.9746 42.7008L27.5271 39.7541L28.8212 42.8276C29.2606 42.8298 29.7223 42.8213 30.2009 42.8124L30.6397 41.909L31.6181 42.7962C35.5367 42.802 41.2312 42.4521 38.7039 39.4456C35.3182 35.4179 36.4249 28.4795 31.5593 28.501Z" fill="#2F2E41"/>
<path d="M262.292 130.966H0.263345C0.193502 130.966 0.126519 130.949 0.0771318 130.92C0.027745 130.891 0 130.851 0 130.81C0 130.769 0.027745 130.729 0.0771318 130.7C0.126519 130.67 0.193502 130.654 0.263345 130.654H262.292C262.362 130.654 262.429 130.67 262.478 130.7C262.528 130.729 262.555 130.769 262.555 130.81C262.555 130.851 262.528 130.891 262.478 130.92C262.429 130.949 262.362 130.966 262.292 130.966Z" fill="#CACACA"/>
<path d="M239.781 115.999C239.176 111.134 236.16 106.34 231.52 104.757C233.35 109.765 233.35 115.258 231.519 120.266C230.806 122.194 229.812 124.265 230.483 126.209C230.9 127.418 231.921 128.344 233.062 128.922C234.203 129.501 235.47 129.777 236.72 130.047L236.966 130.251C238.952 125.768 240.386 120.865 239.781 115.999Z" fill="#F0F0F0"/>
<path d="M231.474 104.849C234.177 107.877 235.856 111.679 236.274 115.715C236.38 116.583 236.348 117.461 236.18 118.319C235.989 119.149 235.579 119.912 234.994 120.53C234.459 121.118 233.844 121.657 233.462 122.364C233.271 122.729 233.16 123.129 233.136 123.54C233.111 123.951 233.174 124.362 233.319 124.747C233.657 125.716 234.322 126.505 235 127.255C235.753 128.087 236.547 128.939 236.867 130.042C236.906 130.176 237.111 130.108 237.072 129.975C236.516 128.055 234.653 126.965 233.764 125.237C233.35 124.43 233.176 123.494 233.564 122.642C233.904 121.897 234.538 121.341 235.084 120.751C235.664 120.157 236.09 119.429 236.324 118.632C236.536 117.786 236.601 116.91 236.519 116.042C236.364 114.084 235.902 112.163 235.151 110.349C234.304 108.274 233.109 106.359 231.617 104.687C231.525 104.583 231.383 104.746 231.474 104.849Z" fill="white"/>
<path d="M236.216 114.408C236.884 114.245 237.472 113.851 237.876 113.295C238.28 112.74 238.473 112.058 238.421 111.373C238.41 111.234 238.194 111.245 238.205 111.384C238.255 112.022 238.075 112.656 237.698 113.173C237.32 113.69 236.771 114.055 236.148 114.202C236.013 114.234 236.081 114.439 236.216 114.408Z" fill="white"/>
<path d="M235.304 120.268C234.098 119.548 233.208 118.4 232.811 117.053C232.771 116.919 232.566 116.987 232.606 117.121C233.021 118.522 233.95 119.715 235.207 120.461C235.327 120.532 235.423 120.339 235.304 120.268Z" fill="white"/>
<path d="M234.104 108.479C233.859 108.595 233.589 108.649 233.317 108.635C233.046 108.622 232.783 108.541 232.55 108.4C232.431 108.327 232.335 108.521 232.453 108.593C232.71 108.747 233.002 108.836 233.301 108.852C233.601 108.868 233.9 108.81 234.172 108.684C234.199 108.674 234.221 108.655 234.233 108.629C234.246 108.604 234.249 108.575 234.241 108.547C234.232 108.52 234.212 108.498 234.187 108.485C234.161 108.472 234.131 108.47 234.104 108.479Z" fill="white"/>
<path d="M217.377 113.447C217.45 113.494 217.523 113.542 217.596 113.591C218.573 114.234 219.496 114.955 220.357 115.747C220.424 115.807 220.492 115.869 220.557 115.931C222.61 117.861 224.287 120.156 225.502 122.699C225.984 123.711 226.389 124.758 226.712 125.832C227.159 127.314 227.526 128.958 228.41 130.17C228.501 130.298 228.6 130.42 228.706 130.535H236.699C236.717 130.526 236.736 130.519 236.754 130.51L237.073 130.524C237.06 130.468 237.046 130.409 237.033 130.353C237.026 130.32 237.016 130.287 237.009 130.254C237.004 130.232 236.998 130.21 236.995 130.19C236.993 130.183 236.991 130.176 236.989 130.17C236.985 130.15 236.98 130.132 236.976 130.114C236.896 129.787 236.813 129.461 236.728 129.134C236.728 129.133 236.728 129.133 236.726 129.131C236.102 126.637 235.184 124.226 233.991 121.949C233.954 121.882 233.918 121.812 233.878 121.745C233.326 120.737 232.692 119.775 231.983 118.871C231.593 118.376 231.179 117.902 230.741 117.45C229.608 116.283 228.298 115.302 226.86 114.543C223.993 113.029 220.674 112.449 217.61 113.374C217.532 113.398 217.455 113.421 217.377 113.447Z" fill="#F0F0F0"/>
<path d="M217.395 113.548C221.375 114.339 225.005 116.364 227.77 119.335C228.376 119.964 228.88 120.684 229.262 121.47C229.609 122.248 229.742 123.104 229.646 123.95C229.573 124.741 229.407 125.542 229.527 126.336C229.594 126.742 229.747 127.129 229.975 127.472C230.203 127.815 230.5 128.106 230.848 128.326C231.701 128.896 232.708 129.125 233.7 129.316C234.802 129.527 235.95 129.729 236.869 130.417C236.981 130.501 237.103 130.323 236.992 130.24C235.392 129.042 233.248 129.293 231.498 128.448C230.681 128.054 229.979 127.411 229.776 126.497C229.599 125.698 229.77 124.872 229.851 124.072C229.957 123.248 229.859 122.411 229.566 121.633C229.225 120.83 228.75 120.091 228.161 119.448C226.859 117.978 225.334 116.723 223.642 115.727C221.717 114.579 219.61 113.77 217.412 113.333C217.276 113.306 217.26 113.522 217.395 113.548Z" fill="white"/>
<path d="M226.936 118.326C227.372 117.794 227.604 117.125 227.592 116.438C227.58 115.751 227.324 115.091 226.87 114.575C226.777 114.471 226.611 114.61 226.704 114.714C227.128 115.193 227.366 115.808 227.376 116.448C227.386 117.088 227.167 117.71 226.758 118.202C226.67 118.31 226.848 118.432 226.936 118.326Z" fill="white"/>
<path d="M229.736 123.554C228.34 123.705 226.938 123.325 225.81 122.488C225.698 122.405 225.575 122.583 225.687 122.666C226.862 123.534 228.322 123.927 229.775 123.767C229.913 123.752 229.874 123.539 229.736 123.554Z" fill="white"/>
<path d="M221.68 114.863C221.555 115.104 221.371 115.31 221.146 115.462C220.921 115.614 220.662 115.709 220.392 115.736C220.253 115.75 220.293 115.962 220.431 115.949C220.729 115.917 221.015 115.813 221.264 115.645C221.513 115.477 221.717 115.251 221.858 114.986C221.873 114.963 221.879 114.934 221.874 114.906C221.869 114.878 221.853 114.853 221.831 114.836C221.807 114.82 221.778 114.814 221.75 114.819C221.722 114.824 221.697 114.84 221.68 114.863Z" fill="white"/>
<path d="M59.8992 115.999C60.5043 111.134 63.5195 106.34 68.1596 104.757C66.3297 109.765 66.3301 115.258 68.1607 120.266C68.8737 122.194 69.8675 124.265 69.1968 126.209C68.7796 127.418 67.7587 128.344 66.6177 128.922C65.4765 129.501 64.2101 129.777 62.9595 130.047L62.7134 130.251C60.7282 125.768 59.2942 120.865 59.8992 115.999Z" fill="#F0F0F0"/>
<path d="M68.2058 104.849C65.5037 107.877 63.8242 111.679 63.406 115.715C63.3005 116.583 63.3325 117.461 63.5006 118.319C63.6914 119.149 64.1009 119.912 64.6866 120.53C65.2212 121.118 65.836 121.657 66.2185 122.364C66.4089 122.729 66.5201 123.129 66.5447 123.54C66.5693 123.951 66.5067 124.362 66.3612 124.747C66.0235 125.716 65.3579 126.505 64.6802 127.255C63.9277 128.087 63.1329 128.939 62.813 130.042C62.7743 130.176 62.5692 130.108 62.6079 129.975C63.1644 128.055 65.0275 126.965 65.916 125.237C66.3306 124.43 66.5046 123.494 66.1159 122.642C65.776 121.897 65.1425 121.341 64.5961 120.751C64.0159 120.157 63.59 119.429 63.3558 118.632C63.1446 117.786 63.0789 116.91 63.1615 116.042C63.3164 114.084 63.778 112.163 64.5296 110.349C65.3758 108.274 66.5708 106.359 68.0629 104.687C68.1553 104.583 68.2976 104.746 68.2058 104.849Z" fill="white"/>
<path d="M63.4643 114.408C62.7966 114.245 62.2082 113.851 61.8043 113.295C61.4004 112.74 61.2072 112.058 61.2593 111.373C61.2703 111.234 61.4862 111.245 61.4752 111.384C61.4255 112.022 61.6055 112.656 61.9827 113.173C62.3599 113.69 62.9094 114.055 63.5321 114.202C63.6673 114.234 63.5988 114.439 63.4643 114.408Z" fill="white"/>
<path d="M64.3762 120.268C65.5822 119.548 66.4725 118.4 66.8695 117.053C66.9087 116.919 67.1139 116.987 67.0747 117.121C66.6589 118.522 65.73 119.715 64.4734 120.461C64.3536 120.532 64.2571 120.339 64.3762 120.268Z" fill="white"/>
<path d="M65.5761 108.479C65.8214 108.595 66.0918 108.649 66.363 108.635C66.6342 108.622 66.8978 108.541 67.13 108.4C67.2488 108.327 67.3452 108.521 67.2272 108.593C66.9699 108.747 66.6787 108.836 66.3791 108.852C66.0795 108.868 65.7805 108.81 65.5083 108.684C65.4817 108.674 65.4598 108.655 65.447 108.629C65.4342 108.604 65.4316 108.575 65.4396 108.547C65.4487 108.52 65.4682 108.498 65.4937 108.485C65.5193 108.472 65.5489 108.47 65.5761 108.479Z" fill="white"/>
<path d="M82.303 113.447C82.23 113.494 82.1571 113.542 82.0841 113.591C81.1069 114.234 80.1835 114.955 79.323 115.747C79.2555 115.807 79.1881 115.869 79.1224 115.931C77.0698 117.861 75.3933 120.156 74.1784 122.699C73.6959 123.711 73.291 124.758 72.9674 125.832C72.5206 127.314 72.154 128.958 71.2695 130.17C71.1787 130.298 71.08 130.42 70.9741 130.535H62.9808C62.9626 130.526 62.9443 130.519 62.9261 130.51L62.6069 130.524C62.6198 130.468 62.6343 130.409 62.6471 130.353C62.6544 130.32 62.6635 130.287 62.6708 130.254C62.6762 130.232 62.6818 130.21 62.6854 130.19C62.6872 130.183 62.689 130.176 62.6908 130.17C62.6945 130.15 62.7 130.132 62.7037 130.114C62.7839 129.787 62.8666 129.461 62.9517 129.134C62.9517 129.133 62.9516 129.133 62.9534 129.131C63.5781 126.637 64.4964 124.226 65.689 121.949C65.7255 121.882 65.7619 121.812 65.8021 121.745C66.3543 120.737 66.9881 119.775 67.6969 118.871C68.0867 118.376 68.5012 117.902 68.9389 117.45C70.0721 116.283 71.3817 115.302 72.8197 114.543C75.6866 113.029 79.0057 112.449 82.0696 113.374C82.1479 113.398 82.2246 113.421 82.303 113.447Z" fill="#F0F0F0"/>
<path d="M82.2849 113.548C78.3046 114.339 74.6745 116.364 71.9103 119.335C71.3039 119.964 70.8004 120.684 70.4184 121.47C70.071 122.248 69.9382 123.104 70.0337 123.95C70.1069 124.741 70.2734 125.542 70.1531 126.336C70.0855 126.742 69.9328 127.129 69.7051 127.472C69.4774 127.815 69.1798 128.106 68.8319 128.326C67.9791 128.896 66.9723 129.125 65.98 129.316C64.8782 129.527 63.7304 129.729 62.8109 130.417C62.6994 130.501 62.5766 130.323 62.6878 130.24C64.2877 129.042 66.4316 129.293 68.1818 128.448C68.9985 128.054 69.7013 127.411 69.9036 126.497C70.0805 125.698 69.9095 124.872 69.8285 124.072C69.7232 123.248 69.8213 122.411 70.1143 121.633C70.455 120.83 70.9299 120.091 71.5186 119.448C72.8207 117.978 74.3459 116.723 76.0381 115.727C77.9632 114.579 80.0703 113.77 82.2683 113.333C82.4044 113.306 82.4201 113.522 82.2849 113.548Z" fill="white"/>
<path d="M72.7442 118.326C72.3086 117.794 72.0762 117.125 72.0883 116.438C72.1005 115.751 72.3565 115.091 72.8105 114.575C72.9028 114.471 73.0688 114.61 72.9764 114.714C72.5527 115.193 72.3143 115.808 72.3043 116.448C72.2943 117.088 72.5133 117.71 72.9218 118.202C73.0104 118.31 72.8323 118.432 72.7442 118.326Z" fill="white"/>
<path d="M69.9437 123.554C71.3402 123.705 72.7423 123.325 73.8704 122.488C73.9821 122.405 74.105 122.583 73.9935 122.666C72.8178 123.534 71.358 123.927 69.9051 123.767C69.7667 123.752 69.806 123.539 69.9437 123.554Z" fill="white"/>
<path d="M78.0002 114.863C78.1259 115.104 78.3094 115.31 78.5342 115.462C78.7591 115.614 79.0182 115.709 79.2884 115.736C79.427 115.75 79.3875 115.962 79.2498 115.949C78.9514 115.917 78.6653 115.813 78.4166 115.645C78.1678 115.477 77.9638 115.251 77.8226 114.986C77.8072 114.963 77.8014 114.934 77.8065 114.906C77.8116 114.878 77.8271 114.853 77.8499 114.836C77.8735 114.82 77.9025 114.814 77.9306 114.819C77.9588 114.824 77.9838 114.84 78.0002 114.863Z" fill="white"/>
<path d="M217.964 43.3434C214.237 43.3449 210.656 44.7967 207.98 47.3917C205.304 49.9866 203.743 53.521 203.627 57.2468C203.623 57.3922 203.621 57.5398 203.621 57.6873C203.621 60.5243 204.462 63.2975 206.038 65.6563C207.614 68.0152 209.854 69.8537 212.475 70.9393C215.096 72.025 217.98 72.309 220.763 71.7556C223.545 71.2021 226.101 69.836 228.107 67.83C230.113 65.8239 231.479 63.2681 232.033 60.4857C232.586 57.7032 232.302 54.8192 231.216 52.1982C230.131 49.5772 228.292 47.337 225.934 45.7608C223.575 44.1847 220.801 43.3434 217.964 43.3434ZM217.964 71.6214C214.27 71.6175 210.728 70.1482 208.116 67.5359C205.504 64.9236 204.034 61.3817 204.03 57.6873C204.03 57.4968 204.035 57.3082 204.043 57.1218C204.154 54.3923 205.065 51.7556 206.662 49.5397C208.259 47.3237 210.473 45.6262 213.027 44.6582C215.582 43.6902 218.365 43.4945 221.029 44.0953C223.694 44.6961 226.124 46.067 228.016 48.0375C229.908 50.008 231.179 52.4911 231.671 55.1782C232.163 57.8652 231.854 60.6376 230.783 63.1507C229.712 65.6637 227.926 67.8064 225.647 69.3125C223.368 70.8185 220.696 71.6214 217.964 71.6214Z" fill="#3F3D56"/>
<path d="M230.054 57.6873C230.054 60.8937 228.78 63.9688 226.513 66.2361C224.246 68.5034 221.171 69.7771 217.964 69.7771C214.758 69.7771 211.683 68.5034 209.416 66.2361C207.148 63.9688 205.875 60.8937 205.875 57.6873C205.875 57.3041 205.893 56.927 205.928 56.5541C206.219 53.4596 207.691 50.5961 210.038 48.5583C212.385 46.5205 215.427 45.465 218.532 45.6108C221.636 45.7566 224.566 47.0926 226.711 49.3414C228.857 51.5902 230.054 54.579 230.054 57.6873Z" fill="#E6E6E6"/>
<path d="M221.565 58.4906C221.272 58.1053 220.886 57.8001 220.444 57.6033C219.898 57.3734 219.335 57.1884 218.759 57.05V53.7591C219.644 53.8925 220.474 54.2709 221.155 54.8513L221.823 53.4272C221.439 53.0849 220.998 52.8124 220.52 52.6219C219.99 52.4073 219.434 52.2647 218.866 52.1977V50.5297H217.319V52.2141C216.722 52.2812 216.145 52.4747 215.628 52.7817C215.162 53.0581 214.769 53.4433 214.483 53.9046C214.21 54.3548 214.069 54.8722 214.075 55.3984C214.049 55.9687 214.214 56.5314 214.544 56.9968C214.849 57.3997 215.251 57.7184 215.712 57.923C216.267 58.1596 216.84 58.3495 217.426 58.4906V61.6442C216.381 61.5654 215.387 61.1685 214.575 60.5069L213.907 61.9331C214.361 62.3082 214.877 62.6009 215.432 62.7978C216.04 63.0154 216.675 63.1478 217.319 63.1913V64.8449H218.866V63.1605C219.725 63.0666 220.531 62.6971 221.163 62.1073C221.441 61.8404 221.661 61.5187 221.809 61.1624C221.956 60.8061 222.028 60.4231 222.02 60.0377C222.045 59.4856 221.885 58.9409 221.565 58.4906ZM217.426 56.7017C217.049 56.5874 216.698 56.3993 216.395 56.1484C216.275 56.0414 216.179 55.9091 216.116 55.761C216.053 55.613 216.024 55.4527 216.03 55.2919C216.019 54.9269 216.153 54.5724 216.403 54.3063C216.68 54.027 217.038 53.8414 217.426 53.7755V56.7017ZM219.731 61.0622C219.469 61.3303 219.129 61.5077 218.759 61.5684V58.8553C219.113 58.9501 219.443 59.1153 219.731 59.341C219.84 59.4341 219.927 59.5507 219.984 59.6819C220.042 59.8132 220.07 59.9558 220.065 60.0991C220.079 60.4508 219.96 60.7949 219.731 61.0622Z" fill="#0B57D0"/>
</svg>
