<svg width="260" height="131" viewBox="0 0 260 131" fill="none" xmlns="http://www.w3.org/2000/svg">
<path d="M174.009 26.0422C181.2 26.0422 187.03 20.2124 187.03 13.0211C187.03 5.82974 181.2 0 174.009 0C166.818 0 160.988 5.82974 160.988 13.0211C160.988 20.2124 166.818 26.0422 174.009 26.0422Z" fill="#FBBC04"/>
<path d="M70.2299 105.104C70.3346 105.104 70.435 105.062 70.509 104.988C70.583 104.914 70.6245 104.814 70.6245 104.709C70.6245 104.605 70.583 104.504 70.509 104.43C70.435 104.356 70.3346 104.315 70.2299 104.315H66.4814V102.736H70.2299C70.3346 102.736 70.435 102.695 70.509 102.621C70.583 102.547 70.6245 102.446 70.6245 102.342C70.6245 102.237 70.583 102.137 70.509 102.063C70.435 101.989 70.3346 101.947 70.2299 101.947H38.2691C38.1644 101.947 38.0641 101.989 37.9901 102.063C37.9161 102.137 37.8745 102.237 37.8745 102.342C37.8745 102.446 37.9161 102.547 37.9901 102.621C38.0641 102.695 38.1644 102.736 38.2691 102.736H42.0176V104.315H38.2691C38.1644 104.315 38.0641 104.356 37.9901 104.43C37.9161 104.504 37.8745 104.605 37.8745 104.709C37.8745 104.814 37.9161 104.914 37.9901 104.988C38.0641 105.062 38.1644 105.104 38.2691 105.104H42.0176V106.682H38.2691C38.1644 106.682 38.0641 106.724 37.9901 106.798C37.9161 106.872 37.8745 106.972 37.8745 107.077C37.8745 107.181 37.9161 107.282 37.9901 107.356C38.0641 107.43 38.1644 107.471 38.2691 107.471H42.0176V109.05H38.6637C38.4544 109.05 38.2537 109.133 38.1057 109.281C37.9577 109.429 37.8745 109.629 37.8745 109.839C37.8745 110.048 37.9577 110.249 38.1057 110.397C38.2537 110.545 38.4544 110.628 38.6637 110.628H41.8565C41.8332 110.691 41.821 110.758 41.8203 110.825V116.349C41.8203 116.506 41.8827 116.657 41.9937 116.768C42.1047 116.879 42.2552 116.941 42.4122 116.941C42.5691 116.941 42.7197 116.879 42.8307 116.768C42.9417 116.657 43.004 116.506 43.004 116.349V110.825C43.0033 110.758 42.9911 110.691 42.9678 110.628H65.5312C65.5079 110.691 65.4957 110.758 65.495 110.825V116.349C65.495 116.506 65.5574 116.657 65.6684 116.768C65.7794 116.879 65.9299 116.941 66.0869 116.941C66.2438 116.941 66.3944 116.879 66.5054 116.768C66.6164 116.657 66.6787 116.506 66.6787 116.349V110.825C66.678 110.758 66.6658 110.691 66.6425 110.628H69.8354C70.0447 110.628 70.2454 110.545 70.3934 110.397C70.5414 110.249 70.6245 110.048 70.6245 109.839C70.6245 109.629 70.5414 109.429 70.3934 109.281C70.2454 109.133 70.0447 109.05 69.8354 109.05H66.4814V107.471H70.2299C70.3346 107.471 70.435 107.43 70.509 107.356C70.583 107.282 70.6245 107.181 70.6245 107.077C70.6245 106.972 70.583 106.872 70.509 106.798C70.435 106.724 70.3346 106.682 70.2299 106.682H66.4814V105.104H70.2299ZM42.8067 102.736H65.6923V104.315H42.8067V102.736ZM65.6923 109.05H42.8067V107.471H65.6923V109.05ZM65.6923 106.682H42.8067V105.104H65.6923V106.682Z" fill="#3F3D56"/>
<path d="M79.7046 116.775C79.6 116.775 79.4996 116.733 79.4256 116.659C79.3516 116.585 79.3101 116.485 79.3101 116.38V81.2075C79.3101 81.1029 79.3516 81.0025 79.4256 80.9285C79.4996 80.8545 79.6 80.8129 79.7046 80.8129C79.8093 80.8129 79.9096 80.8545 79.9836 80.9285C80.0576 81.0025 80.0992 81.1029 80.0992 81.2075V116.38C80.0992 116.485 80.0576 116.585 79.9836 116.659C79.9096 116.733 79.8093 116.775 79.7046 116.775Z" fill="#3F3D56"/>
<path d="M121.925 88.5428C121.925 81.574 116.272 65.0376 109.298 65.0376C102.325 65.0376 96.6719 81.574 96.6719 88.5428C96.6719 91.8915 98.0022 95.1031 100.37 97.4711C102.738 99.839 105.95 101.169 109.298 101.169C112.647 101.169 115.859 99.839 118.227 97.4711C120.595 95.1031 121.925 91.8915 121.925 88.5428Z" fill="#E6E6E6"/>
<path d="M118.768 88.5428C118.768 81.574 113.115 65.0376 106.142 65.0376C99.1682 65.0376 93.5151 81.574 93.5151 88.5428C93.5151 91.8915 94.8454 95.1031 97.2134 97.4711C99.5813 99.839 102.793 101.169 106.142 101.169C109.49 101.169 112.702 99.839 115.07 97.4711C117.438 95.1031 118.768 91.8915 118.768 88.5428Z" fill="#F2F2F2"/>
<path d="M106.536 116.775C106.432 116.775 106.331 116.733 106.257 116.659C106.183 116.585 106.142 116.485 106.142 116.38V81.2075C106.142 81.1029 106.183 81.0025 106.257 80.9285C106.331 80.8545 106.432 80.8129 106.536 80.8129C106.641 80.8129 106.741 80.8545 106.815 80.9285C106.889 81.0025 106.931 81.1029 106.931 81.2075V116.38C106.931 116.485 106.889 116.585 106.815 116.659C106.741 116.733 106.641 116.775 106.536 116.775Z" fill="#CCCCCC"/>
<path d="M106.536 86.9736C106.458 86.9735 106.382 86.9504 106.317 86.907C106.252 86.8637 106.201 86.8021 106.172 86.73C106.142 86.6579 106.134 86.5786 106.149 86.502C106.164 86.4255 106.202 86.3552 106.257 86.3L111.417 81.1397C111.491 81.0657 111.592 81.0241 111.696 81.0241C111.801 81.0241 111.901 81.0657 111.975 81.1397C112.049 81.2137 112.091 81.314 112.091 81.4187C112.091 81.5233 112.049 81.6237 111.975 81.6976L106.815 86.858C106.779 86.8947 106.735 86.9238 106.687 86.9436C106.639 86.9635 106.588 86.9736 106.536 86.9736Z" fill="#CCCCCC"/>
<path d="M139.286 49.5196H132.973C132.502 49.5191 132.051 49.3318 131.718 48.9989C131.385 48.6661 131.198 48.2148 131.197 47.744V39.4579C131.198 38.9871 131.385 38.5358 131.718 38.2029C132.051 37.87 132.502 37.6828 132.973 37.6823H139.286C139.757 37.6828 140.208 37.87 140.541 38.2029C140.874 38.5358 141.061 38.9871 141.062 39.4579V47.744C141.061 48.2148 140.874 48.6661 140.541 48.999C140.208 49.3318 139.757 49.5191 139.286 49.5196Z" fill="#8C8B9C"/>
<path d="M192.554 116.992H160.199C159.309 116.991 158.457 116.638 157.828 116.009C157.199 115.38 156.846 114.528 156.845 113.639V50.9006C156.846 50.0114 157.199 49.1589 157.828 48.5301C158.457 47.9014 159.309 47.5477 160.199 47.5467H192.554C193.443 47.5477 194.296 47.9014 194.925 48.5301C195.553 49.1589 195.907 50.0114 195.908 50.9006V113.639C195.907 114.528 195.553 115.38 194.925 116.009C194.296 116.638 193.443 116.991 192.554 116.992Z" fill="#8C8B9C"/>
<path d="M173.22 116.992H117.19C116.301 116.991 115.448 116.638 114.819 116.009C114.191 115.38 113.837 114.528 113.836 113.639V50.9006C113.837 50.0114 114.191 49.1589 114.819 48.5301C115.448 47.9014 116.301 47.5477 117.19 47.5467H173.22C174.109 47.5477 174.962 47.9014 175.59 48.5301C176.219 49.1589 176.573 50.0114 176.574 50.9006V113.639C176.573 114.528 176.219 115.38 175.59 116.009C174.962 116.638 174.109 116.991 173.22 116.992Z" fill="#D0CECE"/>
<path d="M133.368 49.5196H127.054C126.584 49.5191 126.132 49.3318 125.799 48.9989C125.467 48.6661 125.279 48.2148 125.279 47.744V39.4579C125.279 38.9871 125.467 38.5358 125.799 38.2029C126.132 37.87 126.584 37.6828 127.054 37.6823H133.368C133.838 37.6828 134.29 37.87 134.623 38.2029C134.955 38.5358 135.143 38.9871 135.143 39.4579V47.744C135.143 48.2148 134.955 48.6661 134.623 48.999C134.29 49.3318 133.838 49.5191 133.368 49.5196Z" fill="#D0CECE"/>
<path d="M141.654 78.5211H134.157C133.895 78.5208 133.645 78.4167 133.46 78.2318C133.275 78.0469 133.171 77.7962 133.17 77.5346V66.0919C133.171 65.8303 133.275 65.5796 133.46 65.3947C133.645 65.2097 133.895 65.1057 134.157 65.1054H141.654C141.915 65.1057 142.166 65.2097 142.351 65.3947C142.536 65.5796 142.64 65.8303 142.64 66.0919V77.5346C142.64 77.7962 142.536 78.0469 142.351 78.2318C142.166 78.4167 141.915 78.5208 141.654 78.5211Z" fill="white"/>
<path d="M156.253 78.5211H148.756C148.494 78.5208 148.244 78.4167 148.059 78.2318C147.874 78.0469 147.77 77.7962 147.77 77.5346V66.0919C147.77 65.8303 147.874 65.5796 148.059 65.3947C148.244 65.2097 148.494 65.1057 148.756 65.1054H156.253C156.514 65.1057 156.765 65.2097 156.95 65.3947C157.135 65.5796 157.239 65.8303 157.239 66.0919V77.5346C157.239 77.7962 157.135 78.0469 156.95 78.2318C156.765 78.4167 156.514 78.5208 156.253 78.5211Z" fill="white"/>
<path d="M141.654 99.4337H134.157C133.895 99.4334 133.645 99.3294 133.46 99.1445C133.275 98.9595 133.171 98.7088 133.17 98.4473V87.0045C133.171 86.743 133.275 86.4923 133.46 86.3073C133.645 86.1224 133.895 86.0184 134.157 86.0181H141.654C141.915 86.0184 142.166 86.1224 142.351 86.3073C142.536 86.4923 142.64 86.743 142.64 87.0045V98.4473C142.64 98.7088 142.536 98.9595 142.351 99.1445C142.166 99.3294 141.915 99.4334 141.654 99.4337Z" fill="white"/>
<path d="M156.253 99.4337H148.756C148.494 99.4334 148.244 99.3294 148.059 99.1445C147.874 98.9595 147.77 98.7088 147.77 98.4473V87.0045C147.77 86.743 147.874 86.4923 148.059 86.3073C148.244 86.1224 148.494 86.0184 148.756 86.0181H156.253C156.514 86.0184 156.765 86.1224 156.95 86.3073C157.135 86.4923 157.239 86.743 157.239 87.0045V98.4473C157.239 98.7088 157.135 98.9595 156.95 99.1445C156.765 99.3294 156.514 99.4334 156.253 99.4337Z" fill="white"/>
<path d="M98.6446 131H61.9488C61.8441 131 61.7438 130.958 61.6698 130.884C61.5958 130.81 61.5542 130.71 61.5542 130.605C61.5542 130.501 61.5958 130.4 61.6698 130.326C61.7438 130.252 61.8441 130.211 61.9488 130.211H98.6446C98.7492 130.211 98.8496 130.252 98.9236 130.326C98.9976 130.4 99.0391 130.501 99.0391 130.605C99.0391 130.71 98.9976 130.81 98.9236 130.884C98.8496 130.958 98.7492 131 98.6446 131Z" fill="#DADADA"/>
<path d="M189.792 131H153.096C152.992 131 152.891 130.958 152.817 130.884C152.743 130.81 152.702 130.71 152.702 130.605C152.702 130.501 152.743 130.4 152.817 130.326C152.891 130.252 152.992 130.211 153.096 130.211H189.792C189.897 130.211 189.997 130.252 190.071 130.326C190.145 130.4 190.187 130.501 190.187 130.605C190.187 130.71 190.145 130.81 190.071 130.884C189.997 130.958 189.897 131 189.792 131Z" fill="#DADADA"/>
<path d="M28.4097 88.5428C28.4097 81.574 22.7567 65.0376 15.7832 65.0376C8.80982 65.0376 3.15674 81.574 3.15674 88.5428C3.15674 91.8915 4.48703 95.1031 6.85496 97.4711C9.22289 99.839 12.4345 101.169 15.7833 101.169C19.132 101.169 22.3436 99.839 24.7116 97.4711C27.0795 95.1031 28.4097 91.8915 28.4097 88.5428Z" fill="#E6E6E6"/>
<path d="M25.253 88.5428C25.253 81.574 19.5999 65.0376 12.6265 65.0376C5.65308 65.0376 0 81.574 0 88.5428C0 91.8915 1.33029 95.1031 3.69822 97.4711C6.06615 99.839 9.27776 101.169 12.6265 101.169C15.9753 101.169 19.1869 99.839 21.5548 97.4711C23.9227 95.1031 25.253 91.8915 25.253 88.5428Z" fill="#F2F2F2"/>
<path d="M13.021 116.775C12.9164 116.775 12.816 116.733 12.742 116.659C12.668 116.585 12.6265 116.485 12.6265 116.38V81.2075C12.6265 81.1029 12.668 81.0025 12.742 80.9285C12.816 80.8545 12.9164 80.8129 13.021 80.8129C13.1257 80.8129 13.226 80.8545 13.3 80.9285C13.374 81.0025 13.4156 81.1029 13.4156 81.2075V116.38C13.4156 116.485 13.374 116.585 13.3 116.659C13.226 116.733 13.1257 116.775 13.021 116.775Z" fill="#CCCCCC"/>
<path d="M13.021 86.9736C12.9429 86.9735 12.8667 86.9504 12.8018 86.907C12.7369 86.8637 12.6864 86.8021 12.6565 86.73C12.6266 86.6579 12.6188 86.5786 12.634 86.502C12.6493 86.4255 12.6868 86.3552 12.742 86.3L17.9021 81.1397C17.9761 81.0657 18.0765 81.0241 18.1811 81.0241C18.2858 81.0241 18.3861 81.0657 18.4601 81.1397C18.5341 81.2137 18.5757 81.314 18.5757 81.4187C18.5757 81.5233 18.5341 81.6237 18.4601 81.6976L13.3 86.858C13.2634 86.8947 13.2199 86.9238 13.172 86.9436C13.1241 86.9635 13.0728 86.9736 13.021 86.9736Z" fill="#CCCCCC"/>
<path d="M230.039 88.5428C230.039 81.574 224.386 65.0376 217.413 65.0376C210.439 65.0376 204.786 81.574 204.786 88.5428C204.786 91.8915 206.116 95.1031 208.484 97.4711C210.852 99.839 214.064 101.169 217.413 101.169C220.761 101.169 223.973 99.839 226.341 97.4711C228.709 95.1031 230.039 91.8915 230.039 88.5428Z" fill="#E6E6E6"/>
<path d="M226.883 88.5428C226.883 81.574 221.23 65.0376 214.256 65.0376C207.283 65.0376 201.63 81.574 201.63 88.5428C201.63 91.8915 202.96 95.1031 205.328 97.4711C207.696 99.839 210.908 101.169 214.256 101.169C217.605 101.169 220.817 99.839 223.185 97.4711C225.553 95.1031 226.883 91.8915 226.883 88.5428Z" fill="#F2F2F2"/>
<path d="M214.65 116.775C214.546 116.775 214.445 116.733 214.371 116.659C214.297 116.585 214.256 116.485 214.256 116.38V81.2075C214.256 81.1029 214.297 81.0025 214.371 80.9285C214.445 80.8545 214.546 80.8129 214.65 80.8129C214.755 80.8129 214.855 80.8545 214.929 80.9285C215.003 81.0025 215.045 81.1029 215.045 81.2075V116.38C215.045 116.485 215.003 116.585 214.929 116.659C214.855 116.733 214.755 116.775 214.65 116.775Z" fill="#CCCCCC"/>
<path d="M214.65 86.9736C214.572 86.9735 214.496 86.9504 214.431 86.907C214.366 86.8637 214.316 86.8021 214.286 86.73C214.256 86.6579 214.248 86.5786 214.263 86.502C214.279 86.4255 214.316 86.3552 214.371 86.3L219.532 81.1397C219.606 81.0657 219.706 81.0241 219.811 81.0241C219.915 81.0241 220.015 81.0657 220.089 81.1397C220.163 81.2137 220.205 81.314 220.205 81.4187C220.205 81.5233 220.163 81.6237 220.089 81.6976L214.929 86.858C214.893 86.8947 214.849 86.9238 214.801 86.9436C214.754 86.9635 214.702 86.9736 214.65 86.9736Z" fill="#CCCCCC"/>
<path d="M84.0451 92.9232H75.3644C75.1028 92.923 74.8521 92.819 74.6671 92.634C74.4822 92.4491 74.3782 92.1983 74.3779 91.9368V83.256C74.3782 82.9945 74.4822 82.7437 74.6671 82.5588C74.8521 82.3738 75.1028 82.2698 75.3644 82.2696H84.0451C84.3066 82.2698 84.5574 82.3738 84.7424 82.5588C84.9273 82.7437 85.0313 82.9945 85.0315 83.256V91.9368C85.0313 92.1983 84.9273 92.4491 84.7424 92.634C84.5574 92.819 84.3066 92.923 84.0451 92.9232Z" fill="#3F3D56"/>
<path d="M168.313 97.1504C168.408 97.1753 168.496 97.2207 168.572 97.2834C168.647 97.3461 168.708 97.4246 168.75 97.5132C168.791 97.6019 168.813 97.6987 168.814 97.7968C168.814 97.8948 168.793 97.9918 168.752 98.0808L170.467 99.7353L169.259 100.006L167.815 98.3935C167.67 98.3145 167.559 98.185 167.503 98.0296C167.447 97.8743 167.45 97.7038 167.512 97.5506C167.573 97.3973 167.689 97.272 167.836 97.1982C167.984 97.1245 168.154 97.1075 168.313 97.1504Z" fill="#FFB8B8"/>
<path d="M170.726 101.503L168.609 99.5174C168.58 99.49 168.557 99.457 168.541 99.4204C168.524 99.3837 168.515 99.3443 168.515 99.3042C168.514 99.2642 168.521 99.2243 168.536 99.1871C168.551 99.1499 168.573 99.1161 168.601 99.0876L169.033 98.6499C169.085 98.598 169.153 98.5666 169.226 98.5615C169.299 98.5565 169.371 98.5781 169.429 98.6223L171.203 99.9778L172.309 97.2941C172.353 97.1882 172.418 97.0924 172.5 97.0126C172.582 96.9328 172.68 96.8707 172.787 96.8301C172.894 96.7896 173.009 96.7714 173.123 96.7768C173.237 96.7822 173.349 96.8109 173.452 96.8613C173.614 96.9398 173.747 97.0687 173.829 97.2287C173.912 97.3888 173.94 97.5713 173.911 97.7489C173.71 98.9696 172.493 100.583 171.786 101.437C171.689 101.553 171.559 101.636 171.413 101.676C171.267 101.715 171.113 101.708 170.971 101.655C170.88 101.621 170.797 101.57 170.726 101.503Z" fill="#0B57D0"/>
<path d="M169.538 99.5768L167.98 97.3167C167.96 97.2875 167.952 97.2516 167.959 97.2168C167.965 97.182 167.985 97.1512 168.014 97.1311L168.077 97.088C168.091 97.078 168.107 97.071 168.125 97.0673C168.142 97.0637 168.159 97.0634 168.177 97.0666C168.194 97.0698 168.21 97.0763 168.225 97.0858C168.24 97.0953 168.252 97.1077 168.262 97.1221L169.82 99.3822C169.83 99.3966 169.837 99.4128 169.841 99.43C169.845 99.4471 169.845 99.4648 169.842 99.482C169.839 99.4992 169.832 99.5157 169.823 99.5304C169.813 99.5451 169.801 99.5578 169.786 99.5677L169.724 99.6109C169.695 99.6309 169.659 99.6386 169.624 99.6322C169.589 99.6258 169.558 99.6059 169.538 99.5768Z" fill="white"/>
<path d="M169.103 99.5936L167.81 97.7179C167.755 97.6377 167.734 97.539 167.751 97.4433C167.769 97.3477 167.824 97.2629 167.904 97.2076L168.035 97.1168L169.745 99.5965L169.613 99.6874C169.533 99.7425 169.434 99.7636 169.339 99.746C169.243 99.7285 169.158 99.6736 169.103 99.5936Z" fill="#3F3D56"/>
<path d="M169.259 115.783L168.447 115.69L168.555 112.527L169.621 112.65L169.259 115.783Z" fill="#FFB8B8"/>
<path d="M169.376 116.595L166.756 116.292L166.76 116.259C166.776 116.125 166.817 115.996 166.883 115.878C166.948 115.76 167.036 115.656 167.142 115.573C167.248 115.489 167.369 115.427 167.498 115.39C167.628 115.353 167.763 115.342 167.897 115.357L169.497 115.542L169.376 116.595Z" fill="#2F2E41"/>
<path d="M178.705 115.183L177.924 115.424L176.622 112.525L177.775 112.169L178.705 115.183Z" fill="#FFB8B8"/>
<path d="M179.139 115.878L176.62 116.657L176.61 116.625C176.57 116.496 176.556 116.361 176.568 116.226C176.581 116.092 176.62 115.962 176.683 115.843C176.746 115.724 176.831 115.618 176.935 115.532C177.039 115.446 177.159 115.381 177.287 115.341L178.826 114.866L179.139 115.878Z" fill="#2F2E41"/>
<path d="M168.352 115.054C168.27 115.029 168.201 114.972 168.159 114.896C168.118 114.821 168.107 114.732 168.13 114.648L168.62 109.012C168.642 108.755 168.723 108.506 168.856 108.285L171.82 103.366L174.472 103.842L174.49 103.85C175.779 104.639 176.923 108.467 178.03 112.17C178.202 112.745 178.38 113.341 178.554 113.91C178.586 113.991 178.585 114.081 178.552 114.162C178.518 114.243 178.454 114.307 178.374 114.342L177.571 114.68C177.495 114.712 177.409 114.715 177.331 114.687C177.253 114.66 177.188 114.605 177.149 114.532L173.02 106.973C173.015 106.964 173.008 106.956 172.999 106.95C172.99 106.944 172.979 106.94 172.969 106.939C172.958 106.938 172.947 106.939 172.937 106.943C172.927 106.947 172.918 106.953 172.912 106.961L170.515 109.673L169.635 114.84L169.631 114.851C169.6 114.925 169.542 114.985 169.47 115.02C169.397 115.054 169.315 115.062 169.237 115.041L168.373 115.057L168.368 115.057L168.352 115.054Z" fill="#2F2E41"/>
<path d="M171.676 103.905L171.66 103.9L171.655 103.883C171.642 103.842 170.43 99.7391 171.522 97.1238L171.523 97.1214C171.555 97.0591 172.318 95.5949 173.203 95.4484L173.227 95.4445L173.514 95.9826C173.605 96.0733 175.163 97.6908 174.456 100.471C174.519 100.699 175.379 103.829 174.912 104.297C174.741 104.415 174.534 104.467 174.328 104.443C173.426 104.366 172.537 104.186 171.676 103.905Z" fill="#0B57D0"/>
<path d="M173.02 94.9355C174.162 94.9355 175.088 94.0098 175.088 92.8679C175.088 91.726 174.162 90.8002 173.02 90.8002C171.878 90.8002 170.953 91.726 170.953 92.8679C170.953 94.0098 171.878 94.9355 173.02 94.9355Z" fill="#2F2E41"/>
<path d="M172.199 94.9257C173.104 94.9257 173.837 94.1923 173.837 93.2875C173.837 92.3828 173.104 91.6494 172.199 91.6494C171.294 91.6494 170.561 92.3828 170.561 93.2875C170.561 94.1923 171.294 94.9257 172.199 94.9257Z" fill="#FFB8B8"/>
<path d="M173.253 94.8788C173.104 94.9318 172.921 94.9785 172.803 94.8686C172.754 94.8052 172.725 94.7286 172.721 94.6486C172.716 94.5687 172.736 94.4892 172.777 94.4205C172.862 94.2855 172.93 94.141 172.982 93.99C172.997 93.8764 172.983 93.7608 172.94 93.6545C172.897 93.5481 172.828 93.4546 172.738 93.3831C172.561 93.2476 172.36 93.1464 172.145 93.0845L170.998 92.6769C170.7 92.6066 170.436 92.4352 170.25 92.1919C170.154 91.9892 170.137 91.7579 170.203 91.5437C170.27 91.3295 170.414 91.1477 170.607 91.0343C170.802 90.936 171.016 90.8828 171.234 90.8785C171.452 90.8742 171.668 90.919 171.867 91.0095C172.086 91.1114 172.31 91.2011 172.539 91.2782C172.998 91.3993 173.52 91.2906 173.923 91.5495C174.094 91.6787 174.229 91.8485 174.316 92.0433C174.404 92.2382 174.442 92.4519 174.426 92.665C174.391 93.0936 174.277 93.512 174.088 93.8985C174.001 94.1368 173.874 94.3588 173.714 94.5557C173.636 94.6518 173.535 94.7276 173.421 94.7767C173.307 94.8258 173.183 94.8468 173.059 94.8379L173.253 94.8788Z" fill="#2F2E41"/>
<path d="M174.755 93.2014C175.492 93.2014 176.089 92.6042 176.089 91.8674C176.089 91.1307 175.492 90.5335 174.755 90.5335C174.018 90.5335 173.421 91.1307 173.421 91.8674C173.421 92.6042 174.018 93.2014 174.755 93.2014Z" fill="#2F2E41"/>
<path d="M172.554 93.8017C172.554 93.7775 172.56 93.7537 172.573 93.7329C172.585 93.7122 172.603 93.6952 172.624 93.6838C172.646 93.6724 172.67 93.6671 172.694 93.6683C172.718 93.6695 172.742 93.6773 172.762 93.6909C172.782 93.7044 172.798 93.7231 172.808 93.7451C172.818 93.767 172.822 93.7913 172.82 93.8154C172.817 93.8395 172.808 93.8624 172.794 93.8817C172.779 93.9011 172.76 93.9161 172.737 93.9252V94.2185C172.737 94.2252 172.736 94.2317 172.733 94.2378C172.731 94.244 172.727 94.2495 172.723 94.2542C172.718 94.2589 172.712 94.2626 172.706 94.2652C172.7 94.2677 172.694 94.269 172.687 94.269C172.681 94.269 172.674 94.2677 172.668 94.2652C172.662 94.2626 172.656 94.2589 172.652 94.2542C172.647 94.2495 172.643 94.244 172.641 94.2378C172.638 94.2317 172.637 94.2252 172.637 94.2185V93.9252C172.612 93.9153 172.591 93.8982 172.577 93.8762C172.562 93.8542 172.554 93.8282 172.554 93.8017Z" fill="white"/>
<path d="M168.395 98.5507C168.492 98.5409 168.591 98.5527 168.683 98.5852C168.776 98.6177 168.86 98.67 168.93 98.7386C169 98.8072 169.054 98.8903 169.089 98.982C169.123 99.0738 169.137 99.1721 169.13 99.2698L171.315 100.223L170.276 100.898L168.361 99.8895C168.197 99.8659 168.048 99.7832 167.942 99.6571C167.835 99.5309 167.779 99.3701 167.783 99.205C167.787 99.04 167.852 98.8822 167.964 98.7616C168.077 98.641 168.23 98.566 168.395 98.5507Z" fill="#FFB8B8"/>
<path d="M172.173 101.789L169.497 100.666C169.461 100.65 169.427 100.628 169.399 100.599C169.371 100.57 169.349 100.536 169.334 100.499C169.32 100.462 169.313 100.422 169.314 100.382C169.315 100.342 169.323 100.302 169.34 100.266L169.592 99.705C169.623 99.6385 169.676 99.5851 169.742 99.555C169.809 99.5249 169.884 99.52 169.954 99.5412L172.089 100.193L172.19 97.2924C172.195 97.178 172.222 97.0655 172.271 96.9621C172.32 96.8586 172.39 96.7664 172.476 96.6911C172.563 96.6157 172.664 96.5588 172.773 96.524C172.882 96.4891 172.997 96.477 173.111 96.4884C173.29 96.5055 173.459 96.5802 173.592 96.7014C173.726 96.8226 173.816 96.9837 173.85 97.1606C174.087 98.3748 173.509 100.311 173.144 101.358C173.094 101.5 173.001 101.624 172.878 101.711C172.754 101.799 172.607 101.846 172.456 101.847C172.359 101.847 172.263 101.827 172.173 101.789Z" fill="#0B57D0"/>
<path d="M27.2987 103.674C27.3596 103.614 27.4066 103.541 27.4363 103.46C27.466 103.38 27.4778 103.294 27.4707 103.209C27.4636 103.123 27.4379 103.04 27.3953 102.966C27.3528 102.892 27.2944 102.828 27.2244 102.778L26.9284 100.827L25.7124 101.209L26.3786 102.95C26.3034 103.074 26.2759 103.22 26.3015 103.362C26.3271 103.504 26.4038 103.632 26.5173 103.721C26.6307 103.81 26.7729 103.854 26.9169 103.846C27.0609 103.837 27.1968 103.776 27.2987 103.674Z" fill="#FFB8B8"/>
<path d="M26.046 102.756L25.2959 99.2526C25.2229 98.9171 25.2372 98.5684 25.3375 98.2399C25.4378 97.9115 25.6207 97.6142 25.8688 97.3768C26.8289 96.4515 28.0629 95.2853 28.4892 94.9836C28.8893 94.6985 29.3733 94.5556 29.8641 94.5778L29.8744 94.5789L30.5197 95.1887L29.1141 97.5026L26.9803 98.8395L27.2177 102.273L26.046 102.756Z" fill="#0B57D0"/>
<path d="M28.673 97.9953H25.5252C25.3889 97.9953 25.2783 98.1058 25.2783 98.2422C25.2783 98.3785 25.3889 98.489 25.5252 98.489H28.673C28.8094 98.489 28.9199 98.3785 28.9199 98.2422C28.9199 98.1058 28.8094 97.9953 28.673 97.9953Z" fill="#CCCCCC"/>
<path d="M28.673 103.365H25.5252C25.3889 103.365 25.2783 103.476 25.2783 103.612C25.2783 103.748 25.3889 103.859 25.5252 103.859H28.673C28.8094 103.859 28.9199 103.748 28.9199 103.612C28.9199 103.476 28.8094 103.365 28.673 103.365Z" fill="#CCCCCC"/>
<path d="M27.1297 116.82C27.0989 116.82 27.0692 116.809 27.0464 116.788C27.0236 116.767 27.0095 116.739 27.0068 116.708L25.4331 98.2531C25.4317 98.2369 25.4334 98.2206 25.4382 98.2051C25.443 98.1896 25.4509 98.1752 25.4613 98.1627C25.4717 98.1503 25.4845 98.14 25.4989 98.1325C25.5132 98.1249 25.529 98.1203 25.5452 98.1189C25.5613 98.1174 25.5776 98.1192 25.5931 98.1241C25.6086 98.129 25.623 98.1369 25.6354 98.1473C25.6479 98.1577 25.6581 98.1705 25.6656 98.1849C25.6731 98.1993 25.6777 98.2151 25.679 98.2313L27.128 115.282L28.5357 98.2316C28.537 98.2154 28.5415 98.1996 28.549 98.1851C28.5564 98.1707 28.5666 98.1579 28.5791 98.1474C28.5915 98.1369 28.6059 98.1289 28.6213 98.124C28.6368 98.1191 28.6531 98.1173 28.6693 98.1187C28.6855 98.1201 28.7013 98.1246 28.7157 98.1321C28.7301 98.1396 28.7429 98.1499 28.7534 98.1624C28.7638 98.1749 28.7717 98.1892 28.7765 98.2048C28.7814 98.2203 28.7831 98.2366 28.7817 98.2528L27.2527 116.707C27.2501 116.738 27.236 116.767 27.2132 116.788C27.1905 116.809 27.1606 116.82 27.1297 116.82Z" fill="#CCCCCC"/>
<path d="M30.6625 93.8391C31.5569 93.8391 32.282 93.114 32.282 92.2196C32.282 91.3252 31.5569 90.6001 30.6625 90.6001C29.768 90.6001 29.043 91.3252 29.043 92.2196C29.043 93.114 29.768 93.8391 30.6625 93.8391Z" fill="#FFB8B8"/>
<path d="M25.8361 116.08L25.0659 115.835L25.6463 112.747L26.7831 113.109L25.8361 116.08Z" fill="#FFB8B8"/>
<path d="M25.7929 116.763L23.3135 115.973L23.3339 115.909C23.4128 115.662 23.5862 115.457 23.816 115.338C24.0459 115.22 24.3134 115.197 24.56 115.275L26.1097 115.769L25.7929 116.763Z" fill="#2F2E41"/>
<path d="M31.4398 116.064H30.6313L30.2466 112.946H31.4398V116.064Z" fill="#FFB8B8"/>
<path d="M29.1035 116.784H31.5824V115.864H30.0176C29.7752 115.864 29.5429 115.961 29.3715 116.132C29.2002 116.303 29.1038 116.536 29.1035 116.778V116.784Z" fill="#2F2E41"/>
<path d="M31.4163 115.052L31.1434 115.012C30.8008 114.991 30.462 114.928 30.135 114.823C30.0679 114.794 30.0632 114.348 30.1035 111.845C30.133 110.007 30.1698 107.72 30.0984 106.492C30.0955 106.444 30.0763 106.398 30.044 106.361C30.0117 106.325 29.9681 106.301 29.9203 106.293C29.8725 106.284 29.8232 106.292 29.7805 106.315C29.7378 106.338 29.704 106.375 29.6847 106.419C29.069 107.841 28.036 111.023 27.3524 113.129C27.1146 113.861 26.9268 114.44 26.808 114.786C26.7851 114.852 26.7385 114.907 26.6774 114.94C26.6163 114.973 26.545 114.982 26.4776 114.965C25.9151 114.825 25.9527 114.765 25.1515 114.558C25.0821 114.54 25.0224 114.496 24.9846 114.435C24.9468 114.375 24.9341 114.302 24.9489 114.232C25.0938 113.548 27.7458 102.468 27.9488 101.414C27.9556 101.378 27.9696 101.344 27.9898 101.313C28.01 101.283 28.0361 101.256 28.0665 101.236C28.097 101.215 28.1312 101.201 28.1672 101.194C28.2032 101.187 28.2402 101.187 28.2762 101.194C28.8733 101.314 29.2365 101.442 29.8266 101.565C30.4633 101.698 31.1216 101.836 31.7638 101.965C31.8277 101.977 31.885 102.012 31.9255 102.064C32.1044 102.255 32.3246 102.403 32.5694 102.496C32.7376 102.577 32.3565 102.569 32.503 102.685C33.0961 103.155 32.2432 112.69 31.7278 114.843C31.7113 114.91 31.6702 114.969 31.6125 115.008C31.5549 115.047 31.4849 115.063 31.4163 115.052Z" fill="#2F2E41"/>
<path d="M31.353 93.6367C31.2585 93.2355 31.7365 92.3723 31.6419 91.9711C31.5779 91.6994 30.939 91.8841 30.7899 91.6481C30.7206 91.5264 30.6226 91.4236 30.5045 91.3486C30.3863 91.2736 30.2515 91.2287 30.1119 91.2178C29.7911 91.2142 29.4754 91.4522 29.1715 91.3493C29.0996 91.3136 29.0355 91.264 28.983 91.2034C28.9304 91.1427 28.8904 91.0722 28.8653 90.996C28.8402 90.9198 28.8305 90.8393 28.8368 90.7593C28.8431 90.6793 28.8652 90.6013 28.9019 90.5299C29.0645 90.2462 29.317 90.0248 29.6195 89.9005C30.0961 89.6093 30.6667 89.5134 31.2122 89.6328C31.5244 89.7538 31.8105 89.9336 32.0549 90.1624C32.3 90.3439 32.5153 90.5624 32.6931 90.8101C32.844 91.0684 32.9259 91.3613 32.9306 91.6604C32.9354 91.9596 32.863 92.2549 32.7204 92.5179C32.4255 93.0429 31.9553 93.4474 31.3923 93.6608" fill="#2F2E41"/>
<path d="M27.376 102.973C27.5508 102.681 27.8162 101.313 28.1435 99.0166C28.3663 97.4489 28.5604 95.8561 28.6567 95.0424C28.6642 94.9766 28.6883 94.9137 28.7267 94.8597C28.7651 94.8057 28.8166 94.7624 28.8764 94.7337C28.9389 94.7036 29.0011 94.675 29.0628 94.6481C29.8044 94.3086 30.6276 94.1886 31.4353 94.3021C32.2429 94.4155 33.0012 94.7578 33.6205 95.2884L33.6278 95.2953L33.6296 95.305C33.6331 95.3231 33.9676 97.1257 33.2824 98.3435C32.6067 99.5452 32.5988 102.727 32.5988 102.759V102.8L32.5595 102.789C31.5082 102.489 27.4474 103.014 27.4065 103.02L27.3433 103.028L27.376 102.973Z" fill="#0B57D0"/>
<path d="M33.4875 98.7976H30.3397C30.2033 98.7976 30.0928 98.9082 30.0928 99.0445C30.0928 99.1809 30.2033 99.2914 30.3397 99.2914H33.4875C33.6238 99.2914 33.7343 99.1809 33.7343 99.0445C33.7343 98.9082 33.6238 98.7976 33.4875 98.7976Z" fill="#CCCCCC"/>
<path d="M33.4875 104.167H30.3397C30.2033 104.167 30.0928 104.278 30.0928 104.414C30.0928 104.551 30.2033 104.661 30.3397 104.661H33.4875C33.6238 104.661 33.7343 104.551 33.7343 104.414C33.7343 104.278 33.6238 104.167 33.4875 104.167Z" fill="#CCCCCC"/>
<path d="M31.9442 116.882C31.9133 116.882 31.8836 116.87 31.8608 116.85C31.8381 116.829 31.8239 116.8 31.8212 116.769L30.2476 99.0555C30.2447 99.0228 30.2548 98.9904 30.2759 98.9653C30.2969 98.9402 30.327 98.9245 30.3596 98.9216C30.3922 98.9187 30.4246 98.9289 30.4498 98.9499C30.4749 98.9709 30.4906 99.001 30.4935 99.0336L31.9424 115.344L33.3501 99.0339C33.3515 99.0177 33.356 99.0019 33.3634 98.9875C33.3709 98.973 33.3811 98.9602 33.3935 98.9497C33.4059 98.9392 33.4203 98.9313 33.4358 98.9264C33.4513 98.9215 33.4676 98.9197 33.4838 98.9211C33.5 98.9224 33.5157 98.927 33.5301 98.9345C33.5446 98.942 33.5574 98.9523 33.5678 98.9648C33.5782 98.9772 33.5861 98.9916 33.591 99.0071C33.5958 99.0226 33.5976 99.039 33.5961 99.0551L32.0672 116.769C32.0645 116.8 32.0504 116.829 32.0277 116.85C32.0049 116.87 31.9751 116.882 31.9442 116.882Z" fill="#CCCCCC"/>
<path d="M30.9282 104.246C30.9098 104.162 30.91 104.075 30.9287 103.992C30.9475 103.908 30.9843 103.829 31.0366 103.762C31.089 103.694 31.1556 103.638 31.2317 103.599C31.3079 103.56 31.3917 103.537 31.4773 103.534L32.7863 102.056L33.5991 103.039L32.0938 104.138C32.09 104.282 32.0335 104.42 31.9348 104.526C31.8362 104.631 31.7024 104.696 31.5587 104.71C31.415 104.723 31.2715 104.683 31.1553 104.597C31.0391 104.512 30.9583 104.387 30.9282 104.246Z" fill="#FFB8B8"/>
<path d="M31.6899 103.217L33.755 100.464L32.6901 98.1821L32.7674 95.4759L33.6404 95.3146L33.6497 95.3192C34.0738 95.5673 34.4025 95.9503 34.5834 96.407C34.7773 96.8919 35.1796 98.5414 35.4828 99.8399C35.5621 100.174 35.5542 100.523 35.4599 100.853C35.3656 101.183 35.1881 101.484 34.9445 101.726L32.4113 104.259L31.6899 103.217Z" fill="#0B57D0"/>
<path d="M23.0339 116.116L25.859 116.797C25.9138 116.811 25.972 116.806 26.0234 116.782C26.0748 116.758 26.1161 116.717 26.1402 116.665L28.567 110.213C28.5777 110.188 28.5833 110.161 28.5833 110.134C28.5834 110.107 28.5779 110.081 28.5672 110.056C28.555 110.028 28.5372 110.003 28.515 109.982C28.4928 109.961 28.4666 109.945 28.438 109.935L26.3138 109.124C26.2803 109.111 26.2444 109.105 26.2085 109.107C26.1726 109.109 26.1375 109.119 26.1056 109.135C26.0778 109.149 26.0533 109.168 26.0337 109.192C26.0141 109.216 25.9999 109.244 25.992 109.274L24.4927 114.961L24.4704 114.963C24.0051 114.99 23.5628 115.174 23.2159 115.486C23.1437 115.573 23.0903 115.673 23.059 115.782C23.0277 115.891 23.0191 116.004 23.0339 116.116Z" fill="#CCCCCC"/>
<path d="M25.0799 112.499L25.0669 112.622L27.6426 112.895L27.6556 112.772L25.0799 112.499Z" fill="#B3B3B3"/>
<path d="M24.8549 113.516L24.8042 113.629L26.877 114.561L26.9276 114.449L24.8549 113.516Z" fill="#B3B3B3"/>
<path d="M27.9266 111.908L25.4834 111.098L25.5343 110.986L27.9771 111.795L27.9266 111.908Z" fill="#B3B3B3"/>
<path d="M28.1737 111.352L25.7305 110.173L25.781 110.06L28.2242 111.239L28.1737 111.352Z" fill="#B3B3B3"/>
<path d="M24.6397 114.483L24.5596 114.577L26.321 116.081L26.4012 115.987L24.6397 114.483Z" fill="#B3B3B3"/>
<path d="M24.1398 114.982L24.0273 115.033L24.7346 116.592L24.847 116.541L24.1398 114.982Z" fill="#B3B3B3"/>
<path d="M92.9924 104.191C92.8877 104.166 92.7897 104.119 92.7051 104.053C92.6205 103.987 92.5515 103.903 92.503 103.807C92.4544 103.711 92.4274 103.606 92.424 103.498C92.4205 103.391 92.4407 103.284 92.483 103.185L89.7729 97.0625L91.3232 96.672L93.4996 102.813C93.6609 102.895 93.7864 103.034 93.8524 103.202C93.9185 103.371 93.9204 103.557 93.8579 103.727C93.7954 103.897 93.6727 104.038 93.5132 104.123C93.3537 104.209 93.1684 104.233 92.9924 104.191Z" fill="#A0616A"/>
<path d="M90.276 98.9809C90.2328 98.9616 90.1942 98.9331 90.163 98.8975C90.1318 98.8619 90.1086 98.82 90.095 98.7746L89.6212 97.1896C89.5176 96.97 89.5055 96.7182 89.5875 96.4897C89.6696 96.2612 89.839 96.0746 90.0586 95.9711C90.2782 95.8675 90.5299 95.8554 90.7584 95.9375C90.9869 96.0195 91.1735 96.1889 91.2771 96.4085L92.1934 97.7924C92.2195 97.8319 92.2369 97.8766 92.2442 97.9233C92.2515 97.9701 92.2487 98.018 92.2359 98.0636C92.2231 98.1092 92.2006 98.1515 92.1699 98.1876C92.1393 98.2237 92.1012 98.2528 92.0583 98.2729L90.5505 98.9786C90.5076 98.9988 90.4609 99.0094 90.4135 99.0098C90.3662 99.0102 90.3192 99.0003 90.276 98.9809Z" fill="#6C63FF"/>
<path d="M95.7928 98.1912L94.1305 99.3681C94.1092 99.3836 94.0836 99.3919 94.0573 99.3919C94.031 99.3919 94.0053 99.3836 93.984 99.3681L93.5348 99.0308C93.5199 99.0199 93.5076 99.0058 93.4989 98.9894C93.4902 98.9731 93.4853 98.9551 93.4845 98.9366C93.4837 98.9181 93.4871 98.8997 93.4944 98.8827C93.5018 98.8657 93.5128 98.8506 93.5268 98.8384L94.8059 97.6978C94.8227 97.6831 94.8431 97.6731 94.865 97.6689C94.887 97.6646 94.9096 97.6663 94.9307 97.6736L95.763 97.9714C95.7844 97.9793 95.8033 97.9929 95.8175 98.0107C95.8318 98.0285 95.8409 98.0498 95.844 98.0724C95.847 98.095 95.8439 98.118 95.8349 98.1389C95.8259 98.1599 95.8113 98.1779 95.7928 98.1912Z" fill="#3F3D56"/>
<path d="M95.6576 98.0797C95.6616 98.0687 95.6612 98.0565 95.6564 98.0458C95.6516 98.0351 95.6427 98.0267 95.6317 98.0225L94.882 97.7542C94.8745 97.7515 94.8665 97.7509 94.8587 97.7523C94.8509 97.7538 94.8436 97.7573 94.8376 97.7624L93.6839 98.7913L93.6776 98.7981C93.6742 98.8027 93.6719 98.8079 93.6706 98.8134C93.6693 98.8189 93.6691 98.8246 93.67 98.8302C93.6709 98.8358 93.673 98.8412 93.6759 98.846C93.6789 98.8508 93.6829 98.8549 93.6875 98.8582L94.0915 99.1615C94.0991 99.167 94.1083 99.17 94.1177 99.1699C94.1271 99.1698 94.1362 99.1667 94.1438 99.1611L95.6418 98.1004C95.649 98.0952 95.6545 98.088 95.6576 98.0797Z" fill="white"/>
<path d="M89.7344 115.737H90.5733L90.9726 112.501H89.7344V115.737Z" fill="#A0616A"/>
<path d="M89.5205 115.463L91.1727 115.463C91.311 115.463 91.448 115.491 91.5757 115.543C91.7035 115.596 91.8195 115.674 91.9173 115.772C92.0151 115.87 92.0926 115.986 92.1455 116.113C92.1985 116.241 92.2257 116.378 92.2257 116.516V116.55L89.5206 116.551L89.5205 115.463Z" fill="#2F2E41"/>
<path d="M86.9287 115.737H87.768L88.1669 112.501H86.9287V115.737Z" fill="#A0616A"/>
<path d="M86.7148 115.463L88.367 115.463C88.5053 115.463 88.6423 115.491 88.77 115.543C88.8978 115.596 89.0138 115.674 89.1116 115.772C89.2094 115.87 89.287 115.986 89.3399 116.113C89.3928 116.241 89.42 116.378 89.42 116.516V116.55L86.7149 116.551L86.7148 115.463Z" fill="#2F2E41"/>
<path d="M86.7505 114.748C86.693 114.683 86.6607 114.598 86.6595 114.511C86.4596 112.454 87.0037 101.638 88.2611 100.714L88.2689 100.707L91.949 100.071L92.0174 100.14C92.0227 100.235 92.6918 109.716 90.8442 114.554C90.8216 114.612 90.7821 114.661 90.731 114.696C90.6798 114.731 90.6193 114.75 90.5573 114.75H89.8226C89.7801 114.75 89.7381 114.741 89.6992 114.724C89.6603 114.707 89.6253 114.682 89.5965 114.651C89.5677 114.62 89.5456 114.583 89.5317 114.543C89.5177 114.503 89.5123 114.46 89.5156 114.418L90.1104 105.358C90.1125 105.332 90.1046 105.306 90.0884 105.286C90.0722 105.266 90.0489 105.252 90.0231 105.248C89.9974 105.244 89.9711 105.251 89.9497 105.265C89.9283 105.28 89.9134 105.303 89.9078 105.328L88.2326 114.523C88.2182 114.588 88.1834 114.646 88.1334 114.69C88.0833 114.733 88.0206 114.76 87.9545 114.765L86.9897 114.836C86.982 114.837 86.9744 114.837 86.9669 114.837C86.8859 114.837 86.8082 114.805 86.7505 114.748Z" fill="#2F2E41"/>
<path d="M91.5928 94.5253C92.5211 94.5253 93.2736 93.7728 93.2736 92.8446C93.2736 91.9163 92.5211 91.1638 91.5928 91.1638C90.6646 91.1638 89.9121 91.9163 89.9121 92.8446C89.9121 93.7728 90.6646 94.5253 91.5928 94.5253Z" fill="#A0616A"/>
<path d="M87.5453 102.186C87.4743 102.114 87.4335 102.017 87.4312 101.916L88.1175 98.7027C87.57 96.376 88.2989 95.9398 89.1215 95.4989L89.1162 95.4962L89.4597 94.5665C89.4706 94.5251 89.4905 94.4867 89.518 94.4539C89.5454 94.4211 89.5798 94.3948 89.6186 94.3768C89.6574 94.3589 89.6997 94.3497 89.7425 94.35C89.7853 94.3502 89.8275 94.3599 89.866 94.3784L91.6178 95.3092C91.6966 95.3535 91.755 95.427 91.7804 95.5137C91.81 95.6059 91.808 95.7054 91.7747 95.7963L91.6453 96.1464C91.9798 96.5932 92.4971 98.3605 91.9497 99.0448L92.3628 101.325C92.3718 101.409 92.351 101.494 92.3041 101.564C92.2573 101.634 92.1872 101.685 92.1063 101.709L87.7898 102.263C87.773 102.266 87.7559 102.268 87.7388 102.268C87.6661 102.267 87.5966 102.238 87.5453 102.186Z" fill="#0B57D0"/>
<path d="M93.8292 98.501C93.8016 98.527 93.7761 98.555 93.753 98.585L90.3673 98.351L90.0041 97.6109L88.8154 98.0131L89.3311 99.3858C89.3728 99.4967 89.4493 99.5911 89.5491 99.6548C89.649 99.7186 89.7668 99.7482 89.885 99.7392L93.7349 99.4472C93.8201 99.5656 93.9394 99.6553 94.0768 99.7042C94.2142 99.7532 94.3633 99.7591 94.5042 99.7213C94.6451 99.6835 94.7711 99.6036 94.8655 99.4924C94.9599 99.3812 95.0182 99.2439 95.0327 99.0987C95.0471 98.9536 95.0171 98.8075 94.9464 98.6798C94.8758 98.5522 94.768 98.449 94.6374 98.3842C94.5067 98.3193 94.3594 98.2957 94.2151 98.3166C94.0707 98.3375 93.9361 98.4018 93.8292 98.501Z" fill="#A0616A"/>
<path d="M90.2407 98.3628L88.765 98.8541C88.723 98.8681 88.6785 98.8728 88.6345 98.8681C88.5905 98.8633 88.5481 98.8491 88.5101 98.8264C88.4721 98.8038 88.4394 98.7732 88.4143 98.7368C88.3891 98.7003 88.3722 98.6589 88.3645 98.6154L88.0956 97.0883C88.0252 96.873 88.0431 96.6387 88.1453 96.4366C88.2474 96.2345 88.4256 96.0812 88.6407 96.0103C88.8557 95.9393 89.0902 95.9566 89.2925 96.0583C89.4948 96.16 89.6486 96.3378 89.72 96.5528L90.4182 97.9316C90.4382 97.9711 90.4494 98.0145 90.4511 98.0587C90.4528 98.1029 90.445 98.147 90.4281 98.1879C90.4113 98.2288 90.3858 98.2656 90.3535 98.2958C90.3211 98.326 90.2826 98.3488 90.2407 98.3628Z" fill="#0B57D0"/>
<path d="M90.6489 91.5174C91.4048 91.5174 92.0175 90.9046 92.0175 90.1488C92.0175 89.3929 91.4048 88.7801 90.6489 88.7801C89.893 88.7801 89.2803 89.3929 89.2803 90.1488C89.2803 90.9046 89.893 91.5174 90.6489 91.5174Z" fill="#2F2E41"/>
<path d="M93.1845 93.0523C93.3171 93.0789 93.4544 93.0674 93.5807 93.0191C93.6451 92.9826 93.6999 92.9315 93.7408 92.8698C93.7816 92.8081 93.8074 92.7377 93.8159 92.6642C94.0709 90.9699 92.6302 91.1093 92.4598 91.0359C92.3523 90.9729 92.2513 90.8992 92.1585 90.816C91.9186 90.6829 91.645 90.6227 91.3713 90.6429C91.0478 90.613 90.7216 90.6528 90.4149 90.7598C90.1476 90.885 89.9256 91.0897 89.7791 91.3459C89.6341 91.6009 89.5278 91.8761 89.4638 92.1625C89.3629 92.4865 89.3444 92.8306 89.4102 93.1635C89.4802 93.412 89.6262 93.6324 89.8276 93.7939C90.0291 93.9553 90.276 94.0498 90.5338 94.0639C90.4925 93.8646 90.5179 93.6572 90.6063 93.4739C90.6946 93.2905 90.841 93.1413 91.0226 93.0494C91.3115 92.9074 91.6402 92.8682 91.9544 92.9385C92.1582 92.9798 92.3648 93.0055 92.5725 93.0155C92.7763 93.0231 93.021 93.035 93.1845 93.0523Z" fill="#2F2E41"/>
<path d="M224.722 116.071C224.724 114.276 225.438 112.554 226.708 111.285C227.978 110.016 229.7 109.303 231.495 109.303C233.291 109.303 235.013 110.016 236.283 111.285C237.553 112.554 238.267 114.276 238.268 116.071" fill="#F2F2F2"/>
<path d="M231.495 116.071C231.447 116.071 231.4 116.052 231.366 116.018C231.331 115.983 231.312 115.937 231.312 115.888V112.319C231.312 112.27 231.331 112.224 231.366 112.189C231.4 112.155 231.447 112.136 231.495 112.136C231.544 112.136 231.59 112.155 231.625 112.189C231.659 112.224 231.678 112.27 231.678 112.319V115.888C231.678 115.937 231.659 115.983 231.624 116.018C231.59 116.052 231.544 116.071 231.495 116.071Z" fill="#CCCCCC"/>
<path d="M231.495 114.845C231.451 114.845 231.409 114.829 231.376 114.8L229.179 112.915C229.161 112.9 229.146 112.88 229.135 112.859C229.123 112.837 229.117 112.814 229.115 112.79C229.113 112.766 229.116 112.742 229.123 112.719C229.131 112.696 229.143 112.674 229.158 112.656C229.174 112.638 229.193 112.623 229.215 112.612C229.237 112.601 229.26 112.594 229.284 112.593C229.308 112.591 229.333 112.594 229.355 112.602C229.378 112.609 229.4 112.621 229.418 112.637L231.614 114.523C231.643 114.547 231.663 114.58 231.672 114.616C231.682 114.652 231.68 114.69 231.667 114.725C231.654 114.76 231.63 114.791 231.6 114.812C231.569 114.833 231.533 114.845 231.495 114.845Z" fill="#CCCCCC"/>
<path d="M245.59 116.071C245.592 114.276 246.306 112.554 247.576 111.285C248.846 110.016 250.568 109.303 252.363 109.303C254.159 109.303 255.881 110.016 257.151 111.285C258.421 112.554 259.135 114.276 259.136 116.071" fill="#F2F2F2"/>
<path d="M252.364 116.071C252.315 116.071 252.269 116.052 252.234 116.018C252.2 115.983 252.181 115.937 252.181 115.888V112.319C252.181 112.27 252.2 112.224 252.234 112.189C252.269 112.155 252.315 112.136 252.364 112.136C252.412 112.136 252.459 112.155 252.493 112.189C252.527 112.224 252.547 112.27 252.547 112.319V115.888C252.547 115.937 252.527 115.983 252.493 116.018C252.459 116.052 252.412 116.071 252.364 116.071Z" fill="#CCCCCC"/>
<path d="M252.363 114.845C252.319 114.845 252.277 114.829 252.244 114.801L250.047 112.915C250.029 112.9 250.013 112.88 250.002 112.859C249.991 112.837 249.984 112.814 249.983 112.79C249.981 112.766 249.983 112.742 249.991 112.719C249.998 112.696 250.01 112.674 250.026 112.656C250.042 112.638 250.061 112.622 250.083 112.612C250.104 112.601 250.128 112.594 250.152 112.593C250.176 112.591 250.2 112.594 250.223 112.602C250.246 112.609 250.267 112.621 250.286 112.637L252.482 114.523C252.511 114.547 252.531 114.58 252.54 114.616C252.55 114.652 252.548 114.69 252.535 114.725C252.522 114.76 252.498 114.791 252.468 114.812C252.437 114.833 252.4 114.845 252.363 114.845Z" fill="#CCCCCC"/>
</svg>
