<svg width="100" height="68" viewBox="0 0 100 68" fill="none" xmlns="http://www.w3.org/2000/svg">
<g opacity="0.8">
<path d="M8.77344 67.1584H87.8224V61.9146C87.8224 60.8194 86.623 59.7414 84.5319 58.957L84.5104 58.9489C83.0986 58.4006 74.073 54.4999 69.1911 54.6179C66.6122 54.68 64.4043 55.161 62.6289 56.0476C57.1025 58.8082 49.843 59.828 46.0076 59.0268C42.6275 58.3206 33.3482 57.1527 29.9196 57.2055C25.1178 57.2782 25.1037 58.1609 20.1747 61.01C18.2922 62.0973 17.5881 62.2337 8.77344 63.101V67.1584Z" fill="#F2F2F2"/>
<path d="M99.8485 59.4515C100.021 56.6382 98.9353 53.7962 96.6864 52.752C97.141 55.6505 96.5809 58.8714 95.1366 61.6637C94.5741 62.7513 93.8516 63.9125 94.0054 65.0489C94.101 65.756 94.5381 66.3173 95.0723 66.6828C95.6065 67.0484 96.2359 67.2435 96.8577 67.435L96.965 67.5591C98.4427 65.0407 99.6764 62.2647 99.8485 59.4515Z" fill="#F2F2F2"/>
<path d="M96.6521 52.8034C97.7674 54.6929 98.2629 56.9449 98.0566 59.1865C98.0225 59.6985 97.9183 60.202 97.7475 60.6797C97.5607 61.1584 97.2743 61.582 96.9113 61.9163C96.5753 62.2383 96.2025 62.5302 95.9334 62.9254C95.8007 63.1182 95.7046 63.3386 95.6509 63.5732C95.5973 63.8078 95.5872 64.052 95.6213 64.291C95.6998 64.8574 95.9662 65.3303 96.2429 65.7806C96.5501 66.2805 96.8773 66.7934 96.933 67.4365C96.9398 67.5144 97.053 67.4813 97.0462 67.4035C96.9493 66.2845 96.0917 65.6041 95.8034 64.585C95.725 64.3388 95.6983 64.0763 95.7252 63.8171C95.7521 63.5579 95.832 63.3087 95.9589 63.0883C96.2096 62.6703 96.5938 62.369 96.9362 62.0458C97.2947 61.7236 97.5863 61.3206 97.7913 60.8639C97.9829 60.3941 98.1043 59.8935 98.1509 59.3811C98.2671 58.2765 98.2195 57.1583 98.0098 56.0705C97.7855 54.8732 97.3553 53.734 96.7425 52.7144C96.7049 52.6523 96.6148 52.7416 96.6521 52.8034Z" fill="white"/>
<path d="M98.1569 58.4332C98.5268 58.3535 98.865 58.1488 99.1243 57.8478C99.3837 57.5467 99.5513 57.1642 99.6038 56.7534C99.612 56.6734 99.4989 56.6733 99.4908 56.7533C99.4424 57.1359 99.2863 57.4921 99.0444 57.7719C98.8025 58.0517 98.487 58.2411 98.1422 58.3133C98.135 58.3143 98.128 58.3168 98.1216 58.3207C98.1153 58.3247 98.1097 58.33 98.1053 58.3363C98.1008 58.3427 98.0975 58.3499 98.0956 58.3577C98.0937 58.3654 98.0933 58.3735 98.0942 58.3814C98.0952 58.3894 98.0976 58.397 98.1013 58.404C98.105 58.4109 98.1099 58.4169 98.1157 58.4217C98.1215 58.4265 98.1282 58.43 98.1352 58.432C98.1423 58.434 98.1497 58.4344 98.1569 58.4332Z" fill="white"/>
<path d="M97.0974 61.7749C96.8214 61.5486 96.592 61.2605 96.4245 60.9295C96.2569 60.5986 96.1549 60.2324 96.1252 59.855C96.1182 59.7771 96.005 59.8102 96.012 59.8879C96.0436 60.2806 96.1505 60.6614 96.3256 61.0053C96.5006 61.3492 96.74 61.6483 97.0277 61.883C97.0828 61.9273 97.1522 61.819 97.0974 61.7749Z" fill="white"/>
<path d="M88.4805 57.3352C88.5136 57.3646 88.5467 57.394 88.5796 57.4244C89.0217 57.8213 89.4292 58.2627 89.7966 58.7431C89.8256 58.7796 89.8544 58.8172 89.8823 58.8547C90.7613 60.0385 91.4048 61.4122 91.771 62.8869C91.9212 63.4883 92.0266 64.1022 92.0862 64.7224C92.1699 65.5873 92.1959 66.5421 92.5336 67.2647C92.5679 67.3403 92.6069 67.4132 92.6505 67.4828L96.7971 67.7144C96.8074 67.7097 96.8176 67.7061 96.828 67.7013L96.9921 67.719C96.9911 67.6861 96.9894 67.6522 96.9884 67.6193C96.9879 67.6002 96.9865 67.5811 96.986 67.562C96.9853 67.5493 96.9846 67.5366 96.9848 67.5249C96.9846 67.5207 96.9843 67.5164 96.9839 67.5132C96.984 67.5016 96.983 67.491 96.9829 67.4804C96.9739 67.2905 96.964 67.1005 96.9521 66.9104C96.9523 66.9094 96.9523 66.9094 96.9516 66.9083C96.8803 65.4792 96.6445 64.0659 96.2499 62.7022C96.2377 62.6624 96.2257 62.6215 96.2116 62.5816C96.0275 61.9905 95.7946 61.4193 95.5157 60.8751C95.3633 60.5805 95.1956 60.296 95.0134 60.0227C94.5415 59.319 93.9578 58.715 93.2905 58.2398C92.6095 57.7406 91.8429 57.3998 91.0378 57.2382C90.2328 57.0766 89.4062 57.0977 88.6088 57.3001C88.5658 57.3114 88.5237 57.3228 88.4805 57.3352Z" fill="#F2F2F2"/>
<path d="M88.4795 57.3949C90.4232 57.9326 92.1275 59.2189 93.2834 61.0205C93.5372 61.4041 93.727 61.8343 93.8441 62.2909C93.946 62.7657 93.9294 63.262 93.7959 63.7272C93.6789 64.1795 93.5126 64.6346 93.4956 65.0948C93.4863 65.32 93.5255 65.5445 93.6101 65.7498C93.6947 65.9551 93.8222 66.1355 93.9823 66.2761C94.3678 66.6284 94.8671 66.7895 95.3629 66.9277C95.9133 67.081 96.4885 67.2304 96.8968 67.6525C96.9463 67.7036 97.0278 67.6051 96.9784 67.554C96.2681 66.8196 95.1308 66.9018 94.3073 66.3654C93.923 66.1151 93.6227 65.7253 93.609 65.1943C93.597 64.7299 93.7682 64.2605 93.8902 63.8031C94.026 63.3488 94.0588 62.8648 93.9856 62.3933C93.8919 61.9295 93.7187 61.4895 93.4753 61.097C92.9475 60.2158 92.2791 59.4469 91.5025 58.8276C90.6036 58.1048 89.5879 57.5767 88.5096 57.2716C88.4417 57.2522 88.4121 57.3756 88.4795 57.3949Z" fill="white"/>
<path d="M92.9508 60.4169C93.527 59.8172 93.6712 58.8938 93.291 58.2599C93.2536 58.1974 93.1536 58.2721 93.1911 58.3347C93.5473 58.9286 93.4096 59.7805 92.8709 60.341C92.8143 60.4 92.8944 60.4755 92.9508 60.4169Z" fill="white"/>
<path d="M93.883 63.5005C93.5333 63.5296 93.1818 63.4802 92.8499 63.3553C92.5181 63.2305 92.2127 63.0327 91.9525 62.774C91.9028 62.723 91.8213 62.8216 91.8709 62.8725C92.1423 63.1411 92.4606 63.3462 92.8062 63.4753C93.1519 63.6045 93.5178 63.655 93.8818 63.6238C93.9551 63.6189 93.9559 63.4957 93.883 63.5005Z" fill="white"/>
<path d="M90.5725 58.2738C90.4853 58.4076 90.3725 58.5185 90.2419 58.5987C90.1113 58.6789 89.9663 58.7264 89.8171 58.7379C89.7438 58.7417 89.7431 58.865 89.8159 58.8612C89.9807 58.8478 90.1408 58.7951 90.2853 58.7067C90.4297 58.6184 90.555 58.4966 90.6524 58.3497C90.6627 58.3381 90.6686 58.3226 90.6688 58.3063C90.6689 58.29 90.6634 58.2743 90.6532 58.2625C90.641 58.2527 90.6258 58.2484 90.6108 58.2505C90.5958 58.2526 90.5821 58.261 90.5725 58.2738Z" fill="white"/>
</g>
<g clip-path="url(#clip0_929_2040)">
<path d="M30.3113 31.7324H17.6211V45.9015H30.3113V31.7324Z" fill="#CCCCCC"/>
<path d="M11.1605 67.213H4.70001L4.00781 61.6836H11.8527L11.1605 67.213Z" fill="#E6E6E6"/>
<path d="M18.898 63.6193L18.7131 66.5546C18.7047 66.6875 18.7209 66.8209 18.7606 66.9459C18.8003 67.0709 18.8625 67.1846 18.9432 67.2794C19.0238 67.3742 19.121 67.4479 19.2281 67.4955C19.3353 67.5431 19.45 67.5636 19.5646 67.5555L20.8633 67.4642C20.9235 67.46 20.9821 67.4404 21.035 67.4069C21.088 67.3733 21.1339 67.3267 21.1695 67.2703C21.2052 67.2138 21.2297 67.149 21.2413 67.0803C21.2529 67.0116 21.2513 66.9408 21.2367 66.8729L20.5158 63.5254L18.898 63.6193Z" fill="#E6E6E6"/>
<path d="M25.4723 64.1955L25.2873 67.1308C25.2789 67.2637 25.2951 67.3971 25.3348 67.5221C25.3745 67.6471 25.4367 67.7608 25.5174 67.8556C25.598 67.9504 25.6952 68.024 25.8023 68.0717C25.9095 68.1193 26.0242 68.1398 26.1388 68.1317L27.4375 68.0404C27.4977 68.0361 27.5563 68.0166 27.6093 67.983C27.6622 67.9495 27.7081 67.9029 27.7438 67.8464C27.7794 67.79 27.8039 67.7251 27.8155 67.6564C27.8271 67.5878 27.8256 67.517 27.8109 67.4491L27.09 64.1016L25.4723 64.1955Z" fill="#E6E6E6"/>
<path d="M31.3938 16.3756L19.1797 16.2627C19.2104 14.4863 19.6243 12.7419 20.5291 11.181C21.1233 10.1558 21.1105 9.04008 20.9673 8.10013C20.7463 6.64958 21.2602 5.16546 22.4021 4.24209C23.2747 3.53521 24.3761 3.17133 25.4988 3.219L25.736 3.22886C26.5085 3.26092 27.2606 3.48626 27.9232 3.88418C28.5858 4.28211 29.1376 4.83987 29.5281 5.50626C29.9249 6.21766 30.085 7.03663 29.9851 7.84482C29.9077 8.60526 30.0929 9.37344 30.5262 10.1489C31.2738 11.8518 31.4357 14.0309 31.3938 16.3756Z" fill="#2F2E41"/>
<path d="M24.7491 37.6895L20.596 64.1126L18.901 63.8129C19.2864 51.1043 18.5515 36.2286 20.8221 31.9746L29.7292 32.7505L24.7491 37.6895Z" fill="#0B57D0"/>
<path d="M25.2745 37.751L25.3659 64.2836L26.9955 64.1974C28.4605 51.6347 31.2855 37.0761 29.7713 32.607L21.3226 32.2736L25.2745 37.751Z" fill="#0B57D0"/>
<path d="M25.3911 12.1125C27.1755 12.1125 28.6221 10.6681 28.6221 8.88634C28.6221 7.10457 27.1755 5.66016 25.3911 5.66016C23.6067 5.66016 22.1602 7.10457 22.1602 8.88634C22.1602 10.6681 23.6067 12.1125 25.3911 12.1125Z" fill="#FFB9B9"/>
<path d="M28.2061 14.8188L22.8906 14.5066C23.4115 13.3127 23.6196 12.1631 23.4117 11.0723H27.3723C27.3633 11.9098 27.7807 13.3586 28.2061 14.8188Z" fill="#FFB9B9"/>
<path d="M31.5402 34.1766L19.8672 35.0092L21.0657 14.3512L23.0981 13.7788L25.391 14.2991L27.6839 13.1543L29.143 13.6748L31.5402 34.1766Z" fill="#0B57D0"/>
<path d="M21.8481 49.0587L13.875 47.2374C16.2458 39.387 20.517 21.4277 19.1383 15.0276L23.3073 13.1543L21.8481 49.0587Z" fill="#E6E6E6"/>
<path d="M17.9912 26.3713L14.9688 24.498L17.5464 16.9597C17.8339 16.1818 18.3846 15.5287 19.1032 15.1133L19.9715 14.6113L19.4504 22.2085L17.9912 26.3713Z" fill="#E6E6E6"/>
<path d="M38.4709 47.3406C35.9544 48.7944 29.664 49.6048 26.902 48.5895C26.6988 41.4966 26.3002 21.4334 27.5795 12.9453L32.1654 14.8186L31.7485 20.4384C29.556 25.2458 35.9223 41.9902 38.4709 47.3406Z" fill="#E6E6E6"/>
<path d="M38.1052 25.4336L35.2911 24.497L31.5391 20.23L32.1645 14.8184L38.4178 23.5603L38.1052 25.4336Z" fill="#E6E6E6"/>
<path d="M29.2888 29.4855C29.3349 29.6872 29.4592 29.8625 29.6344 29.9729C29.8097 30.0833 30.0217 30.1198 30.2239 30.0744L32.6126 29.5342L32.2674 28.0117L29.8786 28.5518C29.6764 28.5975 29.5007 28.7216 29.3901 28.8967C29.2795 29.0718 29.2431 29.2836 29.2888 29.4855Z" fill="#FFB9B9"/>
<path d="M28.2052 8.05349C26.4106 7.31664 24.6381 7.26332 22.8897 7.94942L22.1602 5.34766H28.8305L28.2052 8.05349Z" fill="#2F2E41"/>
<path d="M31.4375 27.7234L32.7924 30.2211C35.0714 29.5864 37.0464 27.5855 38.9416 25.2257L38.4205 23.5605L35.1896 24.3931L31.4375 27.7234Z" fill="#E6E6E6"/>
<path d="M30.4456 22.5711H30.0287C30.0287 16.6834 28.8147 12.5803 27.6316 12.5803L27.5273 12.1641C28.5884 12.1641 29.2648 13.8717 29.6454 15.3043C30.1614 17.2464 30.4456 19.8272 30.4456 22.5711Z" fill="#3F3D56"/>
<path d="M20.8583 21.115H20.4414C20.4414 15.7228 21.6639 12.373 23.4639 12.373L23.3597 12.7893C22.1146 12.7893 20.8583 15.3637 20.8583 21.115Z" fill="#3F3D56"/>
<path d="M30.2376 23.7162C30.8132 23.7162 31.2798 23.2502 31.2798 22.6755C31.2798 22.1007 30.8132 21.6348 30.2376 21.6348C29.6619 21.6348 29.1953 22.1007 29.1953 22.6755C29.1953 23.2502 29.6619 23.7162 30.2376 23.7162Z" fill="#3F3D56"/>
<path d="M19.1903 23.6121H18.7734C18.7734 22.1201 19.615 20.9062 20.6495 20.9062V21.3225C19.8449 21.3225 19.1903 22.3496 19.1903 23.6121Z" fill="#3F3D56"/>
<path d="M22.5245 23.6121H22.1076C22.1076 22.3496 21.453 21.3225 20.6484 21.3225V20.9062C21.6829 20.9062 22.5245 22.1201 22.5245 23.6121Z" fill="#3F3D56"/>
<path d="M22.3153 24.1333C22.5456 24.1333 22.7322 23.947 22.7322 23.7171C22.7322 23.4872 22.5456 23.3008 22.3153 23.3008C22.0851 23.3008 21.8984 23.4872 21.8984 23.7171C21.8984 23.947 22.0851 24.1333 22.3153 24.1333Z" fill="#3F3D56"/>
<path d="M18.9833 24.1333C19.2135 24.1333 19.4002 23.947 19.4002 23.7171C19.4002 23.4872 19.2135 23.3008 18.9833 23.3008C18.7531 23.3008 18.5664 23.4872 18.5664 23.7171C18.5664 23.947 18.7531 24.1333 18.9833 24.1333Z" fill="#3F3D56"/>
<path d="M13.7695 19.8887L16.3707 20.3524L22.3159 28.7935L19.1574 28.0514L13.7695 19.8887Z" fill="#6C63FF"/>
<path d="M13.3077 19.7852C13.2681 19.7858 13.2294 19.797 13.1956 19.8176C13.1617 19.8383 13.1341 19.8677 13.1156 19.9026C13.097 19.9376 13.0882 19.9769 13.0901 20.0165C13.092 20.056 13.1044 20.0943 13.1262 20.1274L18.6835 28.5468C18.7145 28.5939 18.7624 28.6273 18.8174 28.6402L21.403 29.2476C21.4466 29.2579 21.4923 29.2546 21.534 29.2383C21.5757 29.2221 21.6115 29.1935 21.6366 29.1565C21.6617 29.1194 21.6749 29.0756 21.6745 29.0309C21.6741 28.9862 21.66 28.9427 21.6343 28.9061L15.5327 20.2432C15.5161 20.2196 15.4951 20.1994 15.4708 20.184C15.4464 20.1685 15.4193 20.158 15.3909 20.153L13.3494 19.7889C13.3357 19.7865 13.3217 19.7852 13.3077 19.7852Z" fill="#3F3D56"/>
<path d="M16.7773 25.8059L16.9318 27.3594L19.3691 27.1178C19.5754 27.0974 19.7651 26.9959 19.8965 26.8358C20.0279 26.6757 20.0902 26.47 20.0697 26.264C20.0492 26.058 19.9477 25.8686 19.7873 25.7374C19.6269 25.6061 19.421 25.5439 19.2147 25.5644L16.7773 25.8059Z" fill="#FFB9B9"/>
<path d="M14.6562 25.6263C14.6598 26.156 14.8728 26.6628 15.249 27.0364C15.6251 27.4099 16.1339 27.6198 16.6643 27.6204H17.0651L17.3569 25.1926L14.9411 24.3242L14.6562 25.6263Z" fill="#E6E6E6"/>
<path d="M98.722 0.859375H51.1914V25.8568H98.722V0.859375Z" fill="#E6E6E6"/>
<path d="M52.5781 24.4749H97.34V2.24219H52.5781V24.4749Z" fill="white"/>
<path d="M71.9595 5.4668H56.0391V21.3638H71.9595V5.4668Z" fill="#3F3D56"/>
<path d="M68.1529 12.7243C68.4077 12.7243 68.6143 12.518 68.6143 12.2635C68.6143 12.009 68.4077 11.8027 68.1529 11.8027C67.898 11.8027 67.6914 12.009 67.6914 12.2635C67.6914 12.518 67.898 12.7243 68.1529 12.7243Z" fill="#FFEAAE"/>
<path d="M66.4224 11.111C66.6773 11.111 66.8839 10.9047 66.8839 10.6502C66.8839 10.3958 66.6773 10.1895 66.4224 10.1895C66.1675 10.1895 65.9609 10.3958 65.9609 10.6502C65.9609 10.9047 66.1675 11.111 66.4224 11.111Z" fill="#FFEAAE"/>
<path d="M66.1882 12.2641C66.0184 12.2642 65.8519 12.3113 65.7074 12.4002C65.58 12.209 65.4304 12.0336 65.2615 11.8777C65.2635 11.8531 65.2653 11.8284 65.2653 11.8033C65.2654 11.6225 65.2122 11.4457 65.1124 11.2948C65.0125 11.144 64.8704 11.0259 64.7037 10.9551C64.5371 10.8844 64.3532 10.8643 64.1752 10.8972C63.9971 10.9301 63.8327 11.0146 63.7024 11.1402C63.4553 11.1052 63.2046 11.103 62.9569 11.1337C62.957 11.1265 62.958 11.1194 62.958 11.1122C62.9582 10.9579 62.9196 10.8061 62.8457 10.6706C62.7719 10.5351 62.6652 10.4203 62.5354 10.3366C62.4056 10.253 62.2568 10.2033 62.1028 10.1919C61.9487 10.1806 61.7943 10.2081 61.6536 10.2718C61.5129 10.3356 61.3905 10.4336 61.2976 10.5568C61.2047 10.6801 61.1443 10.8246 61.1219 10.9773C61.0995 11.1299 61.1158 11.2857 61.1693 11.4304C61.2228 11.5751 61.3119 11.704 61.4283 11.8054C61.2738 11.9376 61.1336 12.0856 61.0102 12.2471C60.8962 12.1524 60.7612 12.0865 60.6164 12.055C60.4716 12.0235 60.3213 12.0273 60.1783 12.066C60.0352 12.1048 59.9036 12.1773 59.7946 12.2776C59.6856 12.3778 59.6024 12.5028 59.552 12.642C59.5016 12.7812 59.4855 12.9304 59.5051 13.0771C59.5247 13.2238 59.5793 13.3636 59.6645 13.4847C59.7496 13.6059 59.8627 13.7047 59.9942 13.773C60.1257 13.8413 60.2717 13.8769 60.4199 13.8769L60.4228 13.8767C60.4213 13.915 60.4199 13.9534 60.4199 13.9921C60.42 14.2239 60.448 14.455 60.5034 14.6801C60.2291 14.7832 59.9855 14.9541 59.7955 15.177C59.6056 15.3998 59.4754 15.6671 59.4172 15.9539C59.3591 16.2408 59.3748 16.5376 59.4631 16.8167C59.5513 17.0957 59.7091 17.3478 59.9216 17.5493C60.1342 17.7508 60.3945 17.8951 60.6782 17.9686C60.9618 18.0421 61.2595 18.0424 61.5434 17.9695C61.8272 17.8966 62.0878 17.7529 62.3008 17.5519C62.5138 17.3509 62.6721 17.0991 62.761 16.8203C63.4029 16.9435 64.0678 16.845 64.6463 16.541C64.7054 16.6799 64.7977 16.8021 64.9151 16.897C65.0326 16.992 65.1716 17.0567 65.3199 17.0854C65.4682 17.1142 65.6213 17.1062 65.7658 17.0621C65.9103 17.0179 66.0417 16.9391 66.1486 16.8324C66.2554 16.7257 66.3344 16.5945 66.3786 16.4502C66.4228 16.3059 66.4308 16.153 66.402 16.0049C66.3732 15.8568 66.3084 15.718 66.2133 15.6008C66.1182 15.4835 65.9958 15.3913 65.8567 15.3324C66.0566 14.9536 66.1689 14.5349 66.1853 14.1071L66.1882 14.1073C66.433 14.1073 66.6677 14.0102 66.8408 13.8373C67.0139 13.6645 67.1111 13.4301 67.1111 13.1857C67.1111 12.9413 67.0139 12.7069 66.8408 12.5341C66.6677 12.3612 66.433 12.2641 66.1882 12.2641Z" fill="#FDE293"/>
<path d="M65.9584 5.12109H61.3438V5.81227H65.9584V5.12109Z" fill="#E6E6E6"/>
<path d="M92.2642 5.4668H76.3438V21.3638H92.2642V5.4668Z" fill="#3F3D56"/>
<path d="M87.3248 16.2487C87.4395 16.2487 87.5325 16.1559 87.5325 16.0413C87.5325 15.9268 87.4395 15.834 87.3248 15.834C87.2102 15.834 87.1172 15.9268 87.1172 16.0413C87.1172 16.1559 87.2102 16.2487 87.3248 16.2487Z" fill="#FFEAAE"/>
<path d="M86.5475 15.5241C86.6622 15.5241 86.7552 15.4312 86.7552 15.3167C86.7552 15.2022 86.6622 15.1094 86.5475 15.1094C86.4328 15.1094 86.3398 15.2022 86.3398 15.3167C86.3398 15.4312 86.4328 15.5241 86.5475 15.5241Z" fill="#FFEAAE"/>
<path d="M86.4413 16.043C86.3649 16.043 86.29 16.0642 86.225 16.1042C86.1677 16.0182 86.1003 15.9392 86.0243 15.8691C86.0252 15.858 86.026 15.8469 86.026 15.8356C86.0261 15.7543 86.0021 15.6747 85.9572 15.6068C85.9123 15.5389 85.8483 15.4858 85.7733 15.4539C85.6983 15.4221 85.6156 15.413 85.5355 15.4278C85.4553 15.4426 85.3814 15.4807 85.3227 15.5372C85.2115 15.5214 85.0987 15.5205 84.9872 15.5343C84.9873 15.531 84.9877 15.5279 84.9877 15.5246C84.9878 15.4552 84.9704 15.3869 84.9372 15.3259C84.904 15.2649 84.856 15.2132 84.7976 15.1756C84.7392 15.138 84.6722 15.1156 84.6029 15.1105C84.5336 15.1054 84.4641 15.1178 84.4008 15.1465C84.3375 15.1751 84.2824 15.2192 84.2406 15.2747C84.1988 15.3302 84.1716 15.3952 84.1615 15.4639C84.1514 15.5326 84.1587 15.6027 84.1828 15.6678C84.2069 15.7329 84.247 15.7909 84.2994 15.8366C84.2298 15.896 84.1668 15.9626 84.1112 16.0353C84.0599 15.9927 83.9992 15.9631 83.934 15.9489C83.8688 15.9347 83.8012 15.9364 83.7368 15.9538C83.6725 15.9713 83.6133 16.0039 83.5642 16.049C83.5152 16.0942 83.4777 16.1504 83.455 16.213C83.4324 16.2756 83.4251 16.3428 83.4339 16.4088C83.4427 16.4748 83.4673 16.5377 83.5056 16.5922C83.544 16.6468 83.5949 16.6913 83.654 16.722C83.7132 16.7527 83.7789 16.7687 83.8456 16.7687L83.8469 16.7686C83.8462 16.7859 83.8456 16.8031 83.8456 16.8205C83.8456 16.9249 83.8582 17.0288 83.8832 17.1302C83.7597 17.1766 83.6501 17.2535 83.5646 17.3537C83.4791 17.454 83.4206 17.5743 83.3944 17.7034C83.3682 17.8325 83.3753 17.966 83.415 18.0916C83.4547 18.2172 83.5257 18.3306 83.6214 18.4213C83.717 18.512 83.8342 18.5769 83.9618 18.61C84.0895 18.643 84.2234 18.6432 84.3512 18.6104C84.4789 18.5776 84.5962 18.5129 84.692 18.4225C84.7878 18.332 84.8591 18.2187 84.8991 18.0932C85.188 18.1487 85.4872 18.1044 85.7475 17.9676C85.7741 18.0301 85.8156 18.0851 85.8684 18.1278C85.9213 18.1705 85.9838 18.1996 86.0506 18.2126C86.1173 18.2255 86.1862 18.2219 86.2513 18.202C86.3163 18.1822 86.3754 18.1467 86.4235 18.0987C86.4716 18.0507 86.5071 17.9916 86.527 17.9267C86.5469 17.8618 86.5505 17.793 86.5375 17.7263C86.5246 17.6597 86.4954 17.5972 86.4526 17.5445C86.4099 17.4917 86.3547 17.4502 86.2922 17.4237C86.3821 17.2532 86.4326 17.0648 86.44 16.8723L86.4413 16.8724C86.5515 16.8724 86.6571 16.8287 86.735 16.7509C86.8129 16.6732 86.8566 16.5677 86.8566 16.4577C86.8566 16.3477 86.8129 16.2422 86.735 16.1644C86.6571 16.0867 86.5515 16.043 86.4413 16.043Z" fill="#FDE293"/>
<path d="M88.9538 12.3151C89.0684 12.3151 89.1614 12.2223 89.1614 12.1077C89.1614 11.9932 89.0684 11.9004 88.9538 11.9004C88.8391 11.9004 88.7461 11.9932 88.7461 12.1077C88.7461 12.2223 88.8391 12.3151 88.9538 12.3151Z" fill="#FFEAAE"/>
<path d="M89.442 11.3698C89.5567 11.3698 89.6497 11.2769 89.6497 11.1624C89.6497 11.0479 89.5567 10.9551 89.442 10.9551C89.3273 10.9551 89.2344 11.0479 89.2344 11.1624C89.2344 11.2769 89.3273 11.3698 89.442 11.3698Z" fill="#FFEAAE"/>
<path d="M88.7132 11.2588C88.6925 11.1854 88.6518 11.1191 88.5956 11.0675C88.663 10.9891 88.7208 10.9029 88.7678 10.8109C88.7787 10.8087 88.7896 10.8065 88.8005 10.8034C88.879 10.7814 88.9492 10.7369 89.0025 10.6753C89.0557 10.6137 89.0896 10.5378 89.1 10.4571C89.1103 10.3764 89.0967 10.2944 89.0607 10.2214C89.0247 10.1484 88.9679 10.0876 88.8976 10.0466C88.8826 9.93544 88.853 9.82674 88.8094 9.72335C88.8126 9.72254 88.8158 9.72208 88.8189 9.7212C88.8858 9.70246 88.947 9.66725 88.9968 9.61879C89.0465 9.57033 89.0833 9.51017 89.1038 9.44383C89.1242 9.37748 89.1277 9.30708 89.1138 9.23906C89.0999 9.17105 89.0691 9.1076 89.0243 9.05453C88.9795 9.00147 88.9221 8.96049 88.8573 8.93534C88.7925 8.9102 88.7224 8.90169 88.6535 8.91061C88.5845 8.91953 88.5189 8.94559 88.4627 8.98639C88.4065 9.02719 88.3614 9.08144 88.3316 9.14416C88.2554 9.09345 88.1741 9.05089 88.089 9.01718C88.1162 8.95636 88.1283 8.8899 88.1243 8.82343C88.1203 8.75696 88.1003 8.69242 88.0661 8.63529C88.0318 8.57815 87.9843 8.53009 87.9275 8.49517C87.8707 8.46025 87.8063 8.4395 87.7398 8.43468C87.6733 8.42986 87.6066 8.44111 87.5453 8.46747C87.4841 8.49383 87.4301 8.53453 87.388 8.58613C87.3458 8.63772 87.3167 8.6987 87.3031 8.7639C87.2896 8.8291 87.2919 8.89661 87.31 8.96071L87.3104 8.96195C87.2936 8.96597 87.2768 8.97004 87.26 8.97476C87.1595 9.00306 87.0627 9.04336 86.9717 9.09479C86.8936 8.98873 86.7897 8.90424 86.6699 8.84924C86.5501 8.79425 86.4182 8.77055 86.2867 8.78039C86.1552 8.79022 86.0283 8.83326 85.918 8.90546C85.8077 8.97766 85.7176 9.07665 85.6562 9.19316C85.5947 9.30966 85.5639 9.43985 85.5666 9.57151C85.5693 9.70317 85.6055 9.83198 85.6717 9.94585C85.738 10.0597 85.8321 10.1549 85.9453 10.2225C86.0584 10.2901 86.187 10.3279 86.3188 10.3323C86.3436 10.625 86.4675 10.9005 86.6699 11.1137C86.6169 11.1561 86.5751 11.211 86.5482 11.2734C86.5214 11.3357 86.5103 11.4037 86.5159 11.4714C86.5215 11.539 86.5437 11.6043 86.5804 11.6614C86.6172 11.7185 86.6674 11.7658 86.7267 11.7989C86.786 11.8321 86.8526 11.8503 86.9206 11.8518C86.9886 11.8533 87.0559 11.8381 87.1166 11.8076C87.1773 11.7771 87.2296 11.7321 87.2689 11.6767C87.3082 11.6213 87.3332 11.5571 87.3418 11.4897C87.5305 11.53 87.7258 11.5275 87.9134 11.4824L87.9137 11.4837C87.9285 11.5361 87.9534 11.5852 87.9872 11.628C88.0209 11.6708 88.0628 11.7066 88.1103 11.7332C88.1579 11.7599 88.2103 11.7769 88.2645 11.7833C88.3187 11.7898 88.3736 11.7855 88.4261 11.7707C88.4787 11.7559 88.5277 11.731 88.5706 11.6973C88.6135 11.6635 88.6492 11.6217 88.6759 11.5742C88.7026 11.5266 88.7196 11.4743 88.726 11.4202C88.7324 11.3661 88.7281 11.3113 88.7132 11.2588Z" fill="#FCC934"/>
<path d="M80.9108 9.49673C81.0255 9.49673 81.1184 9.4039 81.1184 9.28938C81.1184 9.17487 81.0255 9.08203 80.9108 9.08203C80.7961 9.08203 80.7031 9.17487 80.7031 9.28938C80.7031 9.4039 80.7961 9.49673 80.9108 9.49673Z" fill="#FFEAAE"/>
<path d="M79.8483 9.58267C79.963 9.58267 80.0559 9.48984 80.0559 9.37532C80.0559 9.2608 79.963 9.16797 79.8483 9.16797C79.7336 9.16797 79.6406 9.2608 79.6406 9.37532C79.6406 9.48984 79.7336 9.58267 79.8483 9.58267Z" fill="#FFEAAE"/>
<path d="M80.317 9.94022C80.2655 9.99657 80.2307 10.0661 80.2164 10.1411C80.1141 10.1253 80.0103 10.1217 79.9072 10.1305C79.8996 10.1224 79.892 10.1143 79.8836 10.1067C79.8235 10.0518 79.7485 10.0158 79.668 10.0031C79.5875 9.99051 79.505 10.0018 79.4309 10.0357C79.3568 10.0695 79.2944 10.1244 79.2513 10.1935C79.2082 10.2626 79.1865 10.3428 79.1887 10.4241C79.1021 10.4955 79.0253 10.578 78.9604 10.6695C78.958 10.6673 78.956 10.6649 78.9535 10.6626C78.9023 10.6158 78.84 10.5825 78.7725 10.5659C78.705 10.5493 78.6344 10.5499 78.5672 10.5676C78.5 10.5853 78.4383 10.6195 78.3878 10.6672C78.3373 10.7149 78.2996 10.7745 78.2781 10.8405C78.2566 10.9066 78.2521 10.9769 78.265 11.0451C78.2778 11.1133 78.3076 11.1773 78.3516 11.231C78.3955 11.2848 78.4524 11.3266 78.5168 11.3527C78.5812 11.3789 78.6511 11.3885 78.7202 11.3806C78.7173 11.472 78.724 11.5634 78.7403 11.6533C78.6742 11.6624 78.6113 11.6873 78.5569 11.7258C78.5025 11.7643 78.4581 11.8153 78.4276 11.8745C78.3971 11.9337 78.3814 11.9994 78.3816 12.066C78.3819 12.1326 78.3983 12.1981 78.4293 12.2571C78.4603 12.316 78.5051 12.3666 78.5599 12.4046C78.6147 12.4426 78.6778 12.4669 78.7439 12.4754C78.8101 12.4839 78.8773 12.4764 78.9399 12.4535C79.0025 12.4305 79.0587 12.3929 79.1036 12.3437L79.1045 12.3427C79.1168 12.3548 79.1291 12.3669 79.142 12.3787C79.2192 12.449 79.3046 12.5098 79.3963 12.5597C79.3474 12.682 79.3304 12.8147 79.3469 12.9453C79.3634 13.076 79.4129 13.2003 79.4907 13.3066C79.5685 13.413 79.6721 13.4978 79.7918 13.5532C79.9114 13.6086 80.0432 13.6327 80.1747 13.6233C80.3063 13.6139 80.4333 13.5713 80.5438 13.4994C80.6543 13.4276 80.7448 13.3289 80.8066 13.2126C80.8685 13.0963 80.8997 12.9662 80.8974 12.8345C80.8952 12.7029 80.8594 12.574 80.7936 12.4599C81.0293 12.2842 81.1983 12.0337 81.2726 11.7495C81.3368 11.772 81.4055 11.7785 81.4727 11.7683C81.5399 11.7581 81.6036 11.7317 81.6582 11.6912C81.7128 11.6507 81.7566 11.5974 81.7857 11.5361C81.8149 11.4748 81.8285 11.4072 81.8254 11.3394C81.8223 11.2716 81.8026 11.2055 81.768 11.1471C81.7334 11.0887 81.6849 11.0396 81.6269 11.0042C81.5688 10.9689 81.503 10.9483 81.4351 10.9442C81.3673 10.9402 81.2994 10.9529 81.2376 10.9811C81.1722 10.7999 81.0669 10.6356 80.9295 10.5004L80.9304 10.4994C80.9673 10.4592 80.9959 10.4122 81.0145 10.3609C81.0331 10.3097 81.0415 10.2553 81.039 10.2008C81.0366 10.1464 81.0234 10.0929 81.0003 10.0436C80.9771 9.9942 80.9444 9.94988 80.9041 9.91312C80.8638 9.87637 80.8166 9.84792 80.7653 9.82939C80.714 9.81086 80.6595 9.80261 80.6049 9.80513C80.5504 9.80765 80.4969 9.82087 80.4475 9.84405C80.3981 9.86723 80.3537 9.89991 80.317 9.94022Z" fill="#FCC934"/>
<path d="M86.2631 5.12109H81.6484V5.81227H86.2631V5.12109Z" fill="#E6E6E6"/>
<path d="M3.03983 59.6362C4.70336 61.8607 8.15653 62.0948 8.15653 62.0948C8.15653 62.0948 8.91258 58.7223 7.24905 56.4977C5.58551 54.2732 2.13235 54.0391 2.13235 54.0391C2.13235 54.0391 1.3763 57.4116 3.03983 59.6362Z" fill="#E6E6E6"/>
<path d="M11.5168 60.4727C10.4191 61.9406 8.14046 62.0951 8.14046 62.0951C8.14046 62.0951 7.64156 59.8696 8.73928 58.4017C9.83699 56.9338 12.1156 56.7793 12.1156 56.7793C12.1156 56.7793 12.6145 59.0048 11.5168 60.4727Z" fill="#E6E6E6"/>
<path d="M107.081 67.2129H0.136719V67.4433H107.081V67.2129Z" fill="#979797"/>
</g>
<g clip-path="url(#clip1_929_2040)">
<path d="M30.3113 31.7324H17.6211V45.9015H30.3113V31.7324Z" fill="#CCCCCC"/>
<path d="M11.1605 67.213H4.70001L4.00781 61.6836H11.8527L11.1605 67.213Z" fill="#E6E6E6"/>
<path d="M18.898 63.6193L18.7131 66.5546C18.7047 66.6875 18.7209 66.8209 18.7606 66.9459C18.8003 67.0709 18.8625 67.1846 18.9432 67.2794C19.0238 67.3742 19.121 67.4479 19.2281 67.4955C19.3353 67.5431 19.45 67.5636 19.5646 67.5555L20.8633 67.4642C20.9235 67.46 20.9821 67.4404 21.035 67.4069C21.088 67.3733 21.1339 67.3267 21.1695 67.2703C21.2052 67.2138 21.2297 67.149 21.2413 67.0803C21.2529 67.0116 21.2513 66.9408 21.2367 66.8729L20.5158 63.5254L18.898 63.6193Z" fill="#E6E6E6"/>
<path d="M25.4723 64.1955L25.2873 67.1308C25.2789 67.2637 25.2951 67.3971 25.3348 67.5221C25.3745 67.6471 25.4367 67.7608 25.5174 67.8556C25.598 67.9504 25.6952 68.024 25.8023 68.0717C25.9095 68.1193 26.0242 68.1398 26.1388 68.1317L27.4375 68.0404C27.4977 68.0361 27.5563 68.0166 27.6093 67.983C27.6622 67.9495 27.7081 67.9029 27.7438 67.8464C27.7794 67.79 27.8039 67.7251 27.8155 67.6564C27.8271 67.5878 27.8256 67.517 27.8109 67.4491L27.09 64.1016L25.4723 64.1955Z" fill="#E6E6E6"/>
<path d="M31.3938 16.3756L19.1797 16.2627C19.2104 14.4863 19.6243 12.7419 20.5291 11.181C21.1233 10.1558 21.1105 9.04008 20.9673 8.10013C20.7463 6.64958 21.2602 5.16546 22.4021 4.24209C23.2747 3.53521 24.3761 3.17133 25.4988 3.219L25.736 3.22886C26.5085 3.26092 27.2606 3.48626 27.9232 3.88418C28.5858 4.28211 29.1376 4.83987 29.5281 5.50626C29.9249 6.21766 30.085 7.03663 29.9851 7.84482C29.9077 8.60526 30.0929 9.37344 30.5262 10.1489C31.2738 11.8518 31.4357 14.0309 31.3938 16.3756Z" fill="#2F2E41"/>
<path d="M24.7491 37.6895L20.596 64.1126L18.901 63.8129C19.2864 51.1043 18.5515 36.2286 20.8221 31.9746L29.7292 32.7505L24.7491 37.6895Z" fill="#0B57D0"/>
<path d="M25.2745 37.751L25.3659 64.2836L26.9955 64.1974C28.4605 51.6347 31.2855 37.0761 29.7713 32.607L21.3226 32.2736L25.2745 37.751Z" fill="#0B57D0"/>
<path d="M25.3911 12.1125C27.1755 12.1125 28.6221 10.6681 28.6221 8.88634C28.6221 7.10457 27.1755 5.66016 25.3911 5.66016C23.6067 5.66016 22.1602 7.10457 22.1602 8.88634C22.1602 10.6681 23.6067 12.1125 25.3911 12.1125Z" fill="#B5878D"/>
<path d="M28.2061 14.8188L22.8906 14.5066C23.4115 13.3127 23.6196 12.1631 23.4117 11.0723H27.3723C27.3633 11.9098 27.7807 13.3586 28.2061 14.8188Z" fill="#B5878D"/>
<path d="M31.5402 34.1766L19.8672 35.0092L21.0657 14.3512L23.0981 13.7788L25.391 14.2991L27.6839 13.1543L29.143 13.6748L31.5402 34.1766Z" fill="#0B57D0"/>
<path d="M21.8481 49.0587L13.875 47.2374C16.2458 39.387 20.517 21.4277 19.1383 15.0276L23.3073 13.1543L21.8481 49.0587Z" fill="#E6E6E6"/>
<path d="M17.9912 26.3713L14.9688 24.498L17.5464 16.9597C17.8339 16.1818 18.3846 15.5287 19.1032 15.1133L19.9715 14.6113L19.4504 22.2085L17.9912 26.3713Z" fill="#E6E6E6"/>
<path d="M38.4709 47.3406C35.9544 48.7944 29.664 49.6048 26.902 48.5895C26.6988 41.4966 26.3002 21.4334 27.5795 12.9453L32.1654 14.8186L31.7485 20.4384C29.556 25.2458 35.9223 41.9902 38.4709 47.3406Z" fill="#E6E6E6"/>
<path d="M38.1052 25.4336L35.2911 24.497L31.5391 20.23L32.1645 14.8184L38.4178 23.5603L38.1052 25.4336Z" fill="#E6E6E6"/>
<path d="M29.2888 29.4855C29.3349 29.6872 29.4592 29.8625 29.6344 29.9729C29.8097 30.0833 30.0217 30.1198 30.2239 30.0744L32.6126 29.5342L32.2674 28.0117L29.8786 28.5518C29.6764 28.5975 29.5007 28.7216 29.3901 28.8967C29.2795 29.0718 29.2431 29.2836 29.2888 29.4855Z" fill="#B5878D"/>
<path d="M28.2052 8.05349C26.4106 7.31664 24.6381 7.26332 22.8897 7.94942L22.1602 5.34766H28.8305L28.2052 8.05349Z" fill="#2F2E41"/>
<path d="M31.4375 27.7234L32.7924 30.2211C35.0714 29.5864 37.0464 27.5855 38.9416 25.2257L38.4205 23.5605L35.1896 24.3931L31.4375 27.7234Z" fill="#E6E6E6"/>
<path d="M30.4456 22.5711H30.0287C30.0287 16.6834 28.8147 12.5803 27.6316 12.5803L27.5273 12.1641C28.5884 12.1641 29.2648 13.8717 29.6454 15.3043C30.1614 17.2464 30.4456 19.8272 30.4456 22.5711Z" fill="#3F3D56"/>
<path d="M20.8583 21.115H20.4414C20.4414 15.7228 21.6639 12.373 23.4639 12.373L23.3597 12.7893C22.1146 12.7893 20.8583 15.3637 20.8583 21.115Z" fill="#3F3D56"/>
<path d="M30.2376 23.7162C30.8132 23.7162 31.2798 23.2502 31.2798 22.6755C31.2798 22.1007 30.8132 21.6348 30.2376 21.6348C29.6619 21.6348 29.1953 22.1007 29.1953 22.6755C29.1953 23.2502 29.6619 23.7162 30.2376 23.7162Z" fill="#3F3D56"/>
<path d="M19.1903 23.6121H18.7734C18.7734 22.1201 19.615 20.9062 20.6495 20.9062V21.3225C19.8449 21.3225 19.1903 22.3496 19.1903 23.6121Z" fill="#3F3D56"/>
<path d="M22.5245 23.6121H22.1076C22.1076 22.3496 21.453 21.3225 20.6484 21.3225V20.9062C21.6829 20.9062 22.5245 22.1201 22.5245 23.6121Z" fill="#3F3D56"/>
<path d="M22.3153 24.1333C22.5456 24.1333 22.7322 23.947 22.7322 23.7171C22.7322 23.4872 22.5456 23.3008 22.3153 23.3008C22.0851 23.3008 21.8984 23.4872 21.8984 23.7171C21.8984 23.947 22.0851 24.1333 22.3153 24.1333Z" fill="#3F3D56"/>
<path d="M18.9833 24.1333C19.2135 24.1333 19.4002 23.947 19.4002 23.7171C19.4002 23.4872 19.2135 23.3008 18.9833 23.3008C18.7531 23.3008 18.5664 23.4872 18.5664 23.7171C18.5664 23.947 18.7531 24.1333 18.9833 24.1333Z" fill="#3F3D56"/>
<path d="M13.7695 19.8887L16.3707 20.3524L22.3159 28.7935L19.1574 28.0514L13.7695 19.8887Z" fill="#6C63FF"/>
<path d="M13.3077 19.7852C13.2681 19.7858 13.2294 19.797 13.1956 19.8176C13.1617 19.8383 13.1341 19.8677 13.1156 19.9026C13.097 19.9376 13.0882 19.9769 13.0901 20.0165C13.092 20.056 13.1044 20.0943 13.1262 20.1274L18.6835 28.5468C18.7145 28.5939 18.7624 28.6273 18.8174 28.6402L21.403 29.2476C21.4466 29.2579 21.4923 29.2546 21.534 29.2383C21.5757 29.2221 21.6115 29.1935 21.6366 29.1565C21.6617 29.1194 21.6749 29.0756 21.6745 29.0309C21.6741 28.9862 21.66 28.9427 21.6343 28.9061L15.5327 20.2432C15.5161 20.2196 15.4951 20.1994 15.4708 20.184C15.4464 20.1685 15.4193 20.158 15.3909 20.153L13.3494 19.7889C13.3357 19.7865 13.3217 19.7852 13.3077 19.7852Z" fill="#3F3D56"/>
<path d="M16.7773 25.8059L16.9318 27.3594L19.3691 27.1178C19.5754 27.0974 19.7651 26.9959 19.8965 26.8358C20.0279 26.6757 20.0902 26.47 20.0697 26.264C20.0492 26.058 19.9477 25.8686 19.7873 25.7374C19.6269 25.6061 19.421 25.5439 19.2147 25.5644L16.7773 25.8059Z" fill="#B5878D"/>
<path d="M14.6562 25.6263C14.6598 26.156 14.8728 26.6628 15.249 27.0364C15.6251 27.4099 16.1339 27.6198 16.6643 27.6204H17.0651L17.3569 25.1926L14.9411 24.3242L14.6562 25.6263Z" fill="#E6E6E6"/>
<path d="M98.722 0.859375H51.1914V25.8568H98.722V0.859375Z" fill="#E6E6E6"/>
<path d="M52.5781 24.4749H97.34V2.24219H52.5781V24.4749Z" fill="white"/>
<path d="M71.9595 5.4668H56.0391V21.3638H71.9595V5.4668Z" fill="#3F3D56"/>
<path d="M68.1529 12.7243C68.4077 12.7243 68.6143 12.518 68.6143 12.2635C68.6143 12.009 68.4077 11.8027 68.1529 11.8027C67.898 11.8027 67.6914 12.009 67.6914 12.2635C67.6914 12.518 67.898 12.7243 68.1529 12.7243Z" fill="#FFEAAE"/>
<path d="M66.4224 11.111C66.6773 11.111 66.8839 10.9047 66.8839 10.6502C66.8839 10.3958 66.6773 10.1895 66.4224 10.1895C66.1675 10.1895 65.9609 10.3958 65.9609 10.6502C65.9609 10.9047 66.1675 11.111 66.4224 11.111Z" fill="#FFEAAE"/>
<path d="M66.1882 12.2641C66.0184 12.2642 65.8519 12.3113 65.7074 12.4002C65.58 12.209 65.4304 12.0336 65.2615 11.8777C65.2635 11.8531 65.2653 11.8284 65.2653 11.8033C65.2654 11.6225 65.2122 11.4457 65.1124 11.2948C65.0125 11.144 64.8704 11.0259 64.7037 10.9551C64.5371 10.8844 64.3532 10.8643 64.1752 10.8972C63.9971 10.9301 63.8327 11.0146 63.7024 11.1402C63.4553 11.1052 63.2046 11.103 62.9569 11.1337C62.957 11.1265 62.958 11.1194 62.958 11.1122C62.9582 10.9579 62.9196 10.8061 62.8457 10.6706C62.7719 10.5351 62.6652 10.4203 62.5354 10.3366C62.4056 10.253 62.2568 10.2033 62.1028 10.1919C61.9487 10.1806 61.7943 10.2081 61.6536 10.2718C61.5129 10.3356 61.3905 10.4336 61.2976 10.5568C61.2047 10.6801 61.1443 10.8246 61.1219 10.9773C61.0995 11.1299 61.1158 11.2857 61.1693 11.4304C61.2228 11.5751 61.3119 11.704 61.4283 11.8054C61.2738 11.9376 61.1336 12.0856 61.0102 12.2471C60.8962 12.1524 60.7612 12.0865 60.6164 12.055C60.4716 12.0235 60.3213 12.0273 60.1783 12.066C60.0352 12.1048 59.9036 12.1773 59.7946 12.2776C59.6856 12.3778 59.6024 12.5028 59.552 12.642C59.5016 12.7812 59.4855 12.9304 59.5051 13.0771C59.5247 13.2238 59.5793 13.3636 59.6645 13.4847C59.7496 13.6059 59.8627 13.7047 59.9942 13.773C60.1257 13.8413 60.2717 13.8769 60.4199 13.8769L60.4228 13.8767C60.4213 13.915 60.4199 13.9534 60.4199 13.9921C60.42 14.2239 60.448 14.455 60.5034 14.6801C60.2291 14.7832 59.9855 14.9541 59.7955 15.177C59.6056 15.3998 59.4754 15.6671 59.4172 15.9539C59.3591 16.2408 59.3748 16.5376 59.4631 16.8167C59.5513 17.0957 59.7091 17.3478 59.9216 17.5493C60.1342 17.7508 60.3945 17.8951 60.6782 17.9686C60.9618 18.0421 61.2595 18.0424 61.5434 17.9695C61.8272 17.8966 62.0878 17.7529 62.3008 17.5519C62.5138 17.3509 62.6721 17.0991 62.761 16.8203C63.4029 16.9435 64.0678 16.845 64.6463 16.541C64.7054 16.6799 64.7977 16.8021 64.9151 16.897C65.0326 16.992 65.1716 17.0567 65.3199 17.0854C65.4682 17.1142 65.6213 17.1062 65.7658 17.0621C65.9103 17.0179 66.0417 16.9391 66.1486 16.8324C66.2554 16.7257 66.3344 16.5945 66.3786 16.4502C66.4228 16.3059 66.4308 16.153 66.402 16.0049C66.3732 15.8568 66.3084 15.718 66.2133 15.6008C66.1182 15.4835 65.9958 15.3913 65.8567 15.3324C66.0566 14.9536 66.1689 14.5349 66.1853 14.1071L66.1882 14.1073C66.433 14.1073 66.6677 14.0102 66.8408 13.8373C67.0139 13.6645 67.1111 13.4301 67.1111 13.1857C67.1111 12.9413 67.0139 12.7069 66.8408 12.5341C66.6677 12.3612 66.433 12.2641 66.1882 12.2641Z" fill="#FDE293"/>
<path d="M65.9584 5.12109H61.3438V5.81227H65.9584V5.12109Z" fill="#E6E6E6"/>
<path d="M92.2642 5.4668H76.3438V21.3638H92.2642V5.4668Z" fill="#3F3D56"/>
<path d="M87.3248 16.2487C87.4395 16.2487 87.5325 16.1559 87.5325 16.0413C87.5325 15.9268 87.4395 15.834 87.3248 15.834C87.2102 15.834 87.1172 15.9268 87.1172 16.0413C87.1172 16.1559 87.2102 16.2487 87.3248 16.2487Z" fill="#FFEAAE"/>
<path d="M86.5475 15.5241C86.6622 15.5241 86.7552 15.4312 86.7552 15.3167C86.7552 15.2022 86.6622 15.1094 86.5475 15.1094C86.4328 15.1094 86.3398 15.2022 86.3398 15.3167C86.3398 15.4312 86.4328 15.5241 86.5475 15.5241Z" fill="#FFEAAE"/>
<path d="M86.4413 16.043C86.3649 16.043 86.29 16.0642 86.225 16.1042C86.1677 16.0182 86.1003 15.9392 86.0243 15.8691C86.0252 15.858 86.026 15.8469 86.026 15.8356C86.0261 15.7543 86.0021 15.6747 85.9572 15.6068C85.9123 15.5389 85.8483 15.4858 85.7733 15.4539C85.6983 15.4221 85.6156 15.413 85.5355 15.4278C85.4553 15.4426 85.3814 15.4807 85.3227 15.5372C85.2115 15.5214 85.0987 15.5205 84.9872 15.5343C84.9873 15.531 84.9877 15.5279 84.9877 15.5246C84.9878 15.4552 84.9704 15.3869 84.9372 15.3259C84.904 15.2649 84.856 15.2132 84.7976 15.1756C84.7392 15.138 84.6722 15.1156 84.6029 15.1105C84.5336 15.1054 84.4641 15.1178 84.4008 15.1465C84.3375 15.1751 84.2824 15.2192 84.2406 15.2747C84.1988 15.3302 84.1716 15.3952 84.1615 15.4639C84.1514 15.5326 84.1587 15.6027 84.1828 15.6678C84.2069 15.7329 84.247 15.7909 84.2994 15.8366C84.2298 15.896 84.1668 15.9626 84.1112 16.0353C84.0599 15.9927 83.9992 15.9631 83.934 15.9489C83.8688 15.9347 83.8012 15.9364 83.7368 15.9538C83.6725 15.9713 83.6133 16.0039 83.5642 16.049C83.5152 16.0942 83.4777 16.1504 83.455 16.213C83.4324 16.2756 83.4251 16.3428 83.4339 16.4088C83.4427 16.4748 83.4673 16.5377 83.5056 16.5922C83.544 16.6468 83.5949 16.6913 83.654 16.722C83.7132 16.7527 83.7789 16.7687 83.8456 16.7687L83.8469 16.7686C83.8462 16.7859 83.8456 16.8031 83.8456 16.8205C83.8456 16.9249 83.8582 17.0288 83.8832 17.1302C83.7597 17.1766 83.6501 17.2535 83.5646 17.3537C83.4791 17.454 83.4206 17.5743 83.3944 17.7034C83.3682 17.8325 83.3753 17.966 83.415 18.0916C83.4547 18.2172 83.5257 18.3306 83.6214 18.4213C83.717 18.512 83.8342 18.5769 83.9618 18.61C84.0895 18.643 84.2234 18.6432 84.3512 18.6104C84.4789 18.5776 84.5962 18.5129 84.692 18.4225C84.7878 18.332 84.8591 18.2187 84.8991 18.0932C85.188 18.1487 85.4872 18.1044 85.7475 17.9676C85.7741 18.0301 85.8156 18.0851 85.8684 18.1278C85.9213 18.1705 85.9838 18.1996 86.0506 18.2126C86.1173 18.2255 86.1862 18.2219 86.2513 18.202C86.3163 18.1822 86.3754 18.1467 86.4235 18.0987C86.4716 18.0507 86.5071 17.9916 86.527 17.9267C86.5469 17.8618 86.5505 17.793 86.5375 17.7263C86.5246 17.6597 86.4954 17.5972 86.4526 17.5445C86.4099 17.4917 86.3547 17.4502 86.2922 17.4237C86.3821 17.2532 86.4326 17.0648 86.44 16.8723L86.4413 16.8724C86.5515 16.8724 86.6571 16.8287 86.735 16.7509C86.8129 16.6732 86.8566 16.5677 86.8566 16.4577C86.8566 16.3477 86.8129 16.2422 86.735 16.1644C86.6571 16.0867 86.5515 16.043 86.4413 16.043Z" fill="#FDE293"/>
<path d="M88.9538 12.3151C89.0684 12.3151 89.1614 12.2223 89.1614 12.1077C89.1614 11.9932 89.0684 11.9004 88.9538 11.9004C88.8391 11.9004 88.7461 11.9932 88.7461 12.1077C88.7461 12.2223 88.8391 12.3151 88.9538 12.3151Z" fill="#FFEAAE"/>
<path d="M89.442 11.3698C89.5567 11.3698 89.6497 11.2769 89.6497 11.1624C89.6497 11.0479 89.5567 10.9551 89.442 10.9551C89.3273 10.9551 89.2344 11.0479 89.2344 11.1624C89.2344 11.2769 89.3273 11.3698 89.442 11.3698Z" fill="#FFEAAE"/>
<path d="M88.7132 11.2588C88.6925 11.1854 88.6518 11.1191 88.5956 11.0675C88.663 10.9891 88.7208 10.9029 88.7678 10.8109C88.7787 10.8087 88.7896 10.8065 88.8005 10.8034C88.879 10.7814 88.9492 10.7369 89.0025 10.6753C89.0557 10.6137 89.0896 10.5378 89.1 10.4571C89.1103 10.3764 89.0967 10.2944 89.0607 10.2214C89.0247 10.1484 88.9679 10.0876 88.8976 10.0466C88.8826 9.93544 88.853 9.82674 88.8094 9.72335C88.8126 9.72254 88.8158 9.72208 88.8189 9.7212C88.8858 9.70246 88.947 9.66725 88.9968 9.61879C89.0465 9.57033 89.0833 9.51017 89.1038 9.44383C89.1242 9.37748 89.1277 9.30708 89.1138 9.23906C89.0999 9.17105 89.0691 9.1076 89.0243 9.05453C88.9795 9.00147 88.9221 8.96049 88.8573 8.93534C88.7925 8.9102 88.7224 8.90169 88.6535 8.91061C88.5845 8.91953 88.5189 8.94559 88.4627 8.98639C88.4065 9.02719 88.3614 9.08144 88.3316 9.14416C88.2554 9.09345 88.1741 9.05089 88.089 9.01718C88.1162 8.95636 88.1283 8.8899 88.1243 8.82343C88.1203 8.75696 88.1003 8.69242 88.0661 8.63529C88.0318 8.57815 87.9843 8.53009 87.9275 8.49517C87.8707 8.46025 87.8063 8.4395 87.7398 8.43468C87.6733 8.42986 87.6066 8.44111 87.5453 8.46747C87.4841 8.49383 87.4301 8.53453 87.388 8.58613C87.3458 8.63772 87.3167 8.6987 87.3031 8.7639C87.2896 8.8291 87.2919 8.89661 87.31 8.96071L87.3104 8.96195C87.2936 8.96597 87.2768 8.97004 87.26 8.97476C87.1595 9.00306 87.0627 9.04336 86.9717 9.09479C86.8936 8.98873 86.7897 8.90424 86.6699 8.84924C86.5501 8.79425 86.4182 8.77055 86.2867 8.78039C86.1552 8.79022 86.0283 8.83326 85.918 8.90546C85.8077 8.97766 85.7176 9.07665 85.6562 9.19316C85.5947 9.30966 85.5639 9.43985 85.5666 9.57151C85.5693 9.70317 85.6055 9.83198 85.6717 9.94585C85.738 10.0597 85.8321 10.1549 85.9453 10.2225C86.0584 10.2901 86.187 10.3279 86.3188 10.3323C86.3436 10.625 86.4675 10.9005 86.6699 11.1137C86.6169 11.1561 86.5751 11.211 86.5482 11.2734C86.5214 11.3357 86.5103 11.4037 86.5159 11.4714C86.5215 11.539 86.5437 11.6043 86.5804 11.6614C86.6172 11.7185 86.6674 11.7658 86.7267 11.7989C86.786 11.8321 86.8526 11.8503 86.9206 11.8518C86.9886 11.8533 87.0559 11.8381 87.1166 11.8076C87.1773 11.7771 87.2296 11.7321 87.2689 11.6767C87.3082 11.6213 87.3332 11.5571 87.3418 11.4897C87.5305 11.53 87.7258 11.5275 87.9134 11.4824L87.9137 11.4837C87.9285 11.5361 87.9534 11.5852 87.9872 11.628C88.0209 11.6708 88.0628 11.7066 88.1103 11.7332C88.1579 11.7599 88.2103 11.7769 88.2645 11.7833C88.3187 11.7898 88.3736 11.7855 88.4261 11.7707C88.4787 11.7559 88.5277 11.731 88.5706 11.6973C88.6135 11.6635 88.6492 11.6217 88.6759 11.5742C88.7026 11.5266 88.7196 11.4743 88.726 11.4202C88.7324 11.3661 88.7281 11.3113 88.7132 11.2588Z" fill="#FCC934"/>
<path d="M80.9108 9.49673C81.0255 9.49673 81.1184 9.4039 81.1184 9.28938C81.1184 9.17487 81.0255 9.08203 80.9108 9.08203C80.7961 9.08203 80.7031 9.17487 80.7031 9.28938C80.7031 9.4039 80.7961 9.49673 80.9108 9.49673Z" fill="#FFEAAE"/>
<path d="M79.8483 9.58267C79.963 9.58267 80.0559 9.48984 80.0559 9.37532C80.0559 9.2608 79.963 9.16797 79.8483 9.16797C79.7336 9.16797 79.6406 9.2608 79.6406 9.37532C79.6406 9.48984 79.7336 9.58267 79.8483 9.58267Z" fill="#FFEAAE"/>
<path d="M80.317 9.94022C80.2655 9.99657 80.2307 10.0661 80.2164 10.1411C80.1141 10.1253 80.0103 10.1217 79.9072 10.1305C79.8996 10.1224 79.892 10.1143 79.8836 10.1067C79.8235 10.0518 79.7485 10.0158 79.668 10.0031C79.5875 9.99051 79.505 10.0018 79.4309 10.0357C79.3568 10.0695 79.2944 10.1244 79.2513 10.1935C79.2082 10.2626 79.1865 10.3428 79.1887 10.4241C79.1021 10.4955 79.0253 10.578 78.9604 10.6695C78.958 10.6673 78.956 10.6649 78.9535 10.6626C78.9023 10.6158 78.84 10.5825 78.7725 10.5659C78.705 10.5493 78.6344 10.5499 78.5672 10.5676C78.5 10.5853 78.4383 10.6195 78.3878 10.6672C78.3373 10.7149 78.2996 10.7745 78.2781 10.8405C78.2566 10.9066 78.2521 10.9769 78.265 11.0451C78.2778 11.1133 78.3076 11.1773 78.3516 11.231C78.3955 11.2848 78.4524 11.3266 78.5168 11.3527C78.5812 11.3789 78.6511 11.3885 78.7202 11.3806C78.7173 11.472 78.724 11.5634 78.7403 11.6533C78.6742 11.6624 78.6113 11.6873 78.5569 11.7258C78.5025 11.7643 78.4581 11.8153 78.4276 11.8745C78.3971 11.9337 78.3814 11.9994 78.3816 12.066C78.3819 12.1326 78.3983 12.1981 78.4293 12.2571C78.4603 12.316 78.5051 12.3666 78.5599 12.4046C78.6147 12.4426 78.6778 12.4669 78.7439 12.4754C78.8101 12.4839 78.8773 12.4764 78.9399 12.4535C79.0025 12.4305 79.0587 12.3929 79.1036 12.3437L79.1045 12.3427C79.1168 12.3548 79.1291 12.3669 79.142 12.3787C79.2192 12.449 79.3046 12.5098 79.3963 12.5597C79.3474 12.682 79.3304 12.8147 79.3469 12.9453C79.3634 13.076 79.4129 13.2003 79.4907 13.3066C79.5685 13.413 79.6721 13.4978 79.7918 13.5532C79.9114 13.6086 80.0432 13.6327 80.1747 13.6233C80.3063 13.6139 80.4333 13.5713 80.5438 13.4994C80.6543 13.4276 80.7448 13.3289 80.8066 13.2126C80.8685 13.0963 80.8997 12.9662 80.8974 12.8345C80.8952 12.7029 80.8594 12.574 80.7936 12.4599C81.0293 12.2842 81.1983 12.0337 81.2726 11.7495C81.3368 11.772 81.4055 11.7785 81.4727 11.7683C81.5399 11.7581 81.6036 11.7317 81.6582 11.6912C81.7128 11.6507 81.7566 11.5974 81.7857 11.5361C81.8149 11.4748 81.8285 11.4072 81.8254 11.3394C81.8223 11.2716 81.8026 11.2055 81.768 11.1471C81.7334 11.0887 81.6849 11.0396 81.6269 11.0042C81.5688 10.9689 81.503 10.9483 81.4351 10.9442C81.3673 10.9402 81.2994 10.9529 81.2376 10.9811C81.1722 10.7999 81.0669 10.6356 80.9295 10.5004L80.9304 10.4994C80.9673 10.4592 80.9959 10.4122 81.0145 10.3609C81.0331 10.3097 81.0415 10.2553 81.039 10.2008C81.0366 10.1464 81.0234 10.0929 81.0003 10.0436C80.9771 9.9942 80.9444 9.94988 80.9041 9.91312C80.8638 9.87637 80.8166 9.84792 80.7653 9.82939C80.714 9.81086 80.6595 9.80261 80.6049 9.80513C80.5504 9.80765 80.4969 9.82087 80.4475 9.84405C80.3981 9.86723 80.3537 9.89991 80.317 9.94022Z" fill="#FCC934"/>
<path d="M86.2631 5.12109H81.6484V5.81227H86.2631V5.12109Z" fill="#E6E6E6"/>
<path d="M3.03983 59.6362C4.70336 61.8607 8.15653 62.0948 8.15653 62.0948C8.15653 62.0948 8.91258 58.7223 7.24905 56.4977C5.58551 54.2732 2.13235 54.0391 2.13235 54.0391C2.13235 54.0391 1.3763 57.4116 3.03983 59.6362Z" fill="#E6E6E6"/>
<path d="M11.5168 60.4727C10.4191 61.9406 8.14046 62.0951 8.14046 62.0951C8.14046 62.0951 7.64156 59.8696 8.73928 58.4017C9.83699 56.9338 12.1156 56.7793 12.1156 56.7793C12.1156 56.7793 12.6145 59.0048 11.5168 60.4727Z" fill="#E6E6E6"/>
<path d="M107.081 67.2129H0.136719V67.4433H107.081V67.2129Z" fill="#979797"/>
</g>
<defs>
<clipPath id="clip0_929_2040">
<rect width="98.5864" height="66.5712" fill="white" transform="translate(0.136719 0.859375)"/>
</clipPath>
<clipPath id="clip1_929_2040">
<rect width="98.5864" height="66.5712" fill="white" transform="translate(0.136719 0.859375)"/>
</clipPath>
</defs>
</svg>
