<svg xmlns="http://www.w3.org/2000/svg" width="632" height="321" fill="none">
  <path fill="#212529" d="M0 0h632v321H0z" />
  <path fill="#01FFD8" d="m157.555 128.355 40.72 40.72-40.72 40.722-40.72-40.721z" />
  <path fill="#C2C2C2" d="m363.853 18 151.5 151.5-151.5 151.5-151.5-151.5z" />
  <path fill="#01FFD8"
    d="M23.394 172.886c0 4.326-2.982 7.602-7.224 8.694v5.04H9.24v-4.998c-4.662-1.008-7.224-4.158-7.224-8.694v-.63H8.82v.672c0 2.352 1.47 3.528 3.906 3.528 2.184 0 3.696-1.092 3.696-3.108 0-1.344-.714-2.226-2.184-2.73l-5.082-1.722c-4.41-1.512-6.93-3.276-6.93-7.854 0-4.536 2.898-7.182 6.846-8.106v-4.998h6.93v5.04c3.99 1.008 6.636 3.822 6.636 8.106v.714h-6.72v-.588c0-1.932-1.218-3.024-3.444-3.024-2.016 0-3.318.798-3.318 2.478 0 1.344.924 1.806 2.184 2.268l4.788 1.68c3.906 1.386 7.266 3.234 7.266 8.232ZM39.214 182h-7.77l7.686-10.542c-.966.63-1.89.882-3.402.882-4.872 0-9.198-3.57-9.198-9.912 0-6.174 4.537-10.416 11.298-10.416 7.014 0 11.55 4.074 11.55 10.458 0 3.696-1.175 6.678-2.603 8.694L39.215 182Zm-1.301-15.078c2.772 0 4.41-1.848 4.41-4.578 0-2.646-1.428-4.662-4.41-4.662-2.646 0-4.41 1.848-4.41 4.62 0 2.688 1.553 4.62 4.41 4.62Zm26.758 15.666c-6.889 0-11.509-4.242-11.509-10.5v-9.576c0-6.258 4.62-10.5 11.509-10.5 6.887 0 11.507 4.242 11.507 10.5v9.576c0 6.258-4.62 10.5-11.507 10.5Zm4.367-20.076c0-3.234-1.721-4.662-4.367-4.662-2.647 0-4.369 1.428-4.369 4.662v9.576c0 3.234 1.723 4.662 4.369 4.662 2.645 0 4.367-1.428 4.367-4.662v-9.576Zm36.438 11.256c0 5.04-4.326 8.232-10.122 8.232H81.116v-29.4h14.07c5.544 0 8.484 3.36 8.484 7.518 0 3.108-1.26 5.292-3.864 6.678 3.192.882 5.67 2.856 5.67 6.972Zm-7.14-.672c0-1.974-1.26-3.15-3.36-3.15h-6.804v6.384h6.93c2.058 0 3.234-1.344 3.234-3.234Zm-10.164-8.778h5.376c1.89 0 2.94-1.218 2.94-3.15 0-1.806-1.134-2.898-3.024-2.898h-5.292v6.048ZM8.664 222.336c-4.632 0-6.984-3.144-6.984-7.32v-2.832c0-4.176 2.352-7.32 6.984-7.32 3.888 0 6.36 2.712 6.624 5.88h-1.8c-.288-2.304-1.824-4.32-4.848-4.32-3.432 0-5.088 2.4-5.088 5.688v2.976c0 3.288 1.656 5.688 5.088 5.688 3.024 0 4.56-2.016 4.848-4.32h1.8c-.264 3.168-2.736 5.88-6.624 5.88ZM18.892 222v-17.52h1.824V222h-1.824Zm5.953 0v-12.288h1.824V222h-1.824Zm-.24-15.528c0-.648.456-1.104 1.152-1.104s1.152.456 1.152 1.104c0 .648-.456 1.104-1.152 1.104s-1.152-.456-1.152-1.104ZM30.678 222v-12.288h1.728v2.088c.576-1.392 1.92-2.376 4.056-2.376 1.824 0 3.216.912 3.912 2.4.84-1.44 2.328-2.4 4.464-2.4 2.688 0 4.416 1.92 4.416 4.824V222H47.43v-7.488c0-2.088-1.032-3.504-3.048-3.504s-3.504 1.224-3.504 3.768V222h-1.824v-7.488c0-2.088-1.032-3.504-3.048-3.504s-3.504 1.224-3.504 3.768V222h-1.824Zm32.416 0h-1.752v-1.536c-.528.864-2.184 1.824-4.224 1.824-2.904 0-4.656-1.632-4.656-3.864 0-2.376 1.944-3.84 4.872-3.84 1.944 0 3.24.816 3.936 1.536v-2.28c0-1.68-1.104-2.976-3.072-2.976-1.56 0-2.568.72-3.072 1.848h-1.68c.624-2.04 2.352-3.288 4.776-3.288 3.048 0 4.872 1.992 4.872 4.416V222Zm-5.592-.888c1.92 0 3.768-1.128 3.768-2.712 0-1.536-1.824-2.616-3.672-2.616-2.04 0-3.408.96-3.408 2.664 0 1.704 1.416 2.664 3.312 2.664Zm15.056.888h-1.536c-2.352 0-3.336-1.176-3.336-3.264V211.2h-2.088v-1.488h2.088v-3.528h1.824v3.528h3.144v1.488H69.51v7.536c0 1.248.456 1.776 1.824 1.776h1.224V222Zm7.78.288c-3.192 0-5.424-2.04-5.424-5.352v-1.968c0-3.336 1.896-5.544 5.352-5.544 3.504 0 5.208 2.328 5.208 5.352v1.824h-8.808v.432c0 2.136 1.104 3.864 3.672 3.864 1.848 0 2.976-.984 3.384-2.376h1.632c-.408 2.208-2.448 3.768-5.016 3.768Zm-3.672-7.464v.384h7.104v-.576c0-2.184-1.104-3.816-3.504-3.816-2.64 0-3.6 1.752-3.6 4.008ZM2.808 248v-10.8h-1.8v-1.488h1.8v-1.632c0-2.376 1.056-3.6 3.552-3.6h1.728v1.488H6.504c-1.296 0-1.872.6-1.872 1.968v1.776h3.024v1.488H4.632V248H2.808Zm7.704 0v-12.288h1.824V248h-1.824Zm-.24-15.528c0-.648.456-1.104 1.152-1.104s1.152.456 1.152 1.104c0 .648-.456 1.104-1.152 1.104s-1.152-.456-1.152-1.104ZM16.335 248v-12.288h1.728v2.088c.576-1.392 1.968-2.376 4.104-2.376 2.76 0 4.512 1.872 4.512 4.824V248h-1.824v-7.488c0-2.088-.936-3.504-3.144-3.504-2.016 0-3.552 1.224-3.552 3.768V248h-1.824Zm24.189 0h-1.752v-1.536c-.528.864-2.184 1.824-4.224 1.824-2.904 0-4.656-1.632-4.656-3.864 0-2.376 1.944-3.84 4.872-3.84 1.944 0 3.24.816 3.936 1.536v-2.28c0-1.68-1.104-2.976-3.072-2.976-1.56 0-2.568.72-3.072 1.848h-1.68c.624-2.04 2.352-3.288 4.776-3.288 3.048 0 4.872 1.992 4.872 4.416V248Zm-5.592-.888c1.92 0 3.768-1.128 3.768-2.712 0-1.536-1.824-2.616-3.672-2.616-2.04 0-3.408.96-3.408 2.664 0 1.704 1.416 2.664 3.312 2.664Zm9.34.888v-12.288H46v2.088c.576-1.392 1.968-2.376 4.104-2.376 2.76 0 4.512 1.872 4.512 4.824V248h-1.824v-7.488c0-2.088-.936-3.504-3.144-3.504-2.016 0-3.552 1.224-3.552 3.768V248h-1.824Zm18.958.288c-3.408 0-5.448-2.304-5.448-5.4v-2.064c0-3.096 2.04-5.4 5.448-5.4 3.096 0 5.111 2.016 5.256 4.608h-1.633c-.24-1.656-1.271-3.168-3.6-3.168-2.52 0-3.696 1.632-3.696 3.936v2.112c0 2.304 1.176 3.936 3.697 3.936 2.328 0 3.36-1.512 3.6-3.168h1.632c-.145 2.592-2.16 4.608-5.257 4.608ZM71.93 248v-12.288h1.824V248h-1.824Zm-.24-15.528c0-.648.456-1.104 1.152-1.104s1.152.456 1.152 1.104c0 .648-.456 1.104-1.152 1.104s-1.152-.456-1.152-1.104ZM77.764 248v-12.288h1.728v2.088c.576-1.392 1.968-2.376 4.104-2.376 2.76 0 4.512 1.872 4.512 4.824V248h-1.824v-7.488c0-2.088-.936-3.504-3.144-3.504-2.016 0-3.552 1.224-3.552 3.768V248h-1.824Zm19.054 4.464c-2.448 0-4.656-1.128-5.328-3.144h1.8c.672 1.176 1.848 1.704 3.528 1.704 2.136 0 3.6-1.2 3.6-3.072v-2.784c-.384 1.128-2.064 2.328-4.128 2.328-3.192 0-5.016-2.28-5.016-5.016v-2.04c0-2.784 1.8-5.016 5.04-5.016 2.304 0 3.672 1.248 4.176 2.328v-2.04h1.752V248c0 2.544-2.304 4.464-5.424 4.464Zm-.168-6.456c2.088 0 3.768-1.392 3.768-3.72v-1.584c0-2.088-1.584-3.792-3.696-3.792-2.4 0-3.648 1.32-3.648 3.672v1.752c0 2.304 1.224 3.672 3.576 3.672Z" />
  <path fill="#999"
    d="M1.4 18v-1.2l5.92-6.22c.98-1.02 1.56-1.94 1.56-3.02 0-1.56-1.22-2.58-2.86-2.58C4.24 4.98 3.08 6 3.08 7.8v.32H1.62v-.38c0-2.56 1.8-4.02 4.4-4.02 2.54 0 4.4 1.5 4.4 3.84 0 1.7-1.18 3-2.3 4.14l-4.94 5.04h7.26V18H1.4Zm16.716.28c-3.08 0-4.9-2-4.9-4.66V8.38c0-2.66 1.82-4.66 4.9-4.66s4.9 2 4.9 4.66v5.24c0 2.66-1.82 4.66-4.9 4.66Zm0-1.26c2.18 0 3.36-1.36 3.36-3.34V8.32c0-1.98-1.18-3.34-3.36-3.34-2.18 0-3.36 1.36-3.36 3.34v5.36c0 1.98 1.18 3.34 3.36 3.34Zm7.698.98v-1.2l5.92-6.22c.98-1.02 1.56-1.94 1.56-3.02 0-1.56-1.22-2.58-2.86-2.58-1.78 0-2.94 1.02-2.94 2.82v.32h-1.46v-.38c0-2.56 1.8-4.02 4.4-4.02 2.54 0 4.4 1.5 4.4 3.84 0 1.7-1.18 3-2.3 4.14l-4.94 5.04h7.26V18h-9.04Zm14.074 0V5.58l-2.92 1.38v-1.4L40.148 4h1.28v14h-1.54Zm13.226.24c-2.48 0-4.24-1.24-4.24-3.22v-.1h1.38v.06c0 1.28 1.2 2.12 2.88 2.12 1.58 0 2.72-.62 2.72-1.94 0-.72-.46-1.24-1.28-1.42l-3.04-.7c-1.52-.34-2.4-1.26-2.4-2.6 0-1.92 1.62-2.92 3.88-2.92 2.14 0 3.8 1.3 3.8 3.2v.1h-1.38v-.06c0-1.26-.92-2.1-2.44-2.1-1.42 0-2.46.6-2.46 1.74 0 .7.34 1.14 1.08 1.32l3.14.74c1.58.38 2.52 1.16 2.52 2.64 0 1.82-1.76 3.14-4.16 3.14Zm8.288 3.24h-1.52V7.76h1.44v1.6c.44-.94 1.76-1.84 3.46-1.84 2.74 0 4.28 1.98 4.28 4.58v1.56c0 2.66-1.66 4.58-4.24 4.58-1.6 0-2.8-.72-3.42-1.76v5Zm6.14-7.88v-1.44c0-1.88-.9-3.4-3.02-3.4-2.02 0-3.12 1.54-3.12 3.52v1.32c0 2.1 1.44 3.4 3.14 3.4 1.94 0 3-1.52 3-3.4Zm8.274 4.64c-2.66 0-4.52-1.7-4.52-4.46v-1.64c0-2.78 1.58-4.62 4.46-4.62 2.92 0 4.34 1.94 4.34 4.46v1.52h-7.34v.36c0 1.78.92 3.22 3.06 3.22 1.54 0 2.48-.82 2.82-1.98h1.36c-.34 1.84-2.04 3.14-4.18 3.14Zm-3.06-6.22v.32h5.92v-.48c0-1.82-.92-3.18-2.92-3.18-2.2 0-3 1.46-3 3.34ZM82.87 18V7.76h1.44V9.5c.48-1.16 1.64-1.98 3.42-1.98 2.3 0 3.76 1.56 3.76 4.02V18h-1.52v-6.24c0-1.74-.78-2.92-2.62-2.92-1.68 0-2.96 1.02-2.96 3.14V18h-1.52Zm18.918-14.6h1.52V18h-1.44v-1.6c-.44.94-1.76 1.84-3.46 1.84-2.7 0-4.28-2.02-4.28-4.58V12.1c0-2.66 1.66-4.58 4.24-4.58 1.6 0 2.8.72 3.42 1.76V3.4Zm-6.14 8.76v1.44c0 1.88.9 3.4 3.02 3.4 2.02 0 3.12-1.54 3.12-3.52v-1.32c0-2.1-1.44-3.4-3.14-3.4-1.94 0-3 1.52-3 3.4ZM106.642 18V7.76h1.52V18h-1.52Zm-.2-12.94c0-.54.38-.92.96-.92s.96.38.96.92-.38.92-.96.92-.96-.38-.96-.92ZM111.503 18V7.76h1.44V9.5c.48-1.16 1.64-1.98 3.42-1.98 2.3 0 3.76 1.56 3.76 4.02V18h-1.52v-6.24c0-1.74-.78-2.92-2.62-2.92-1.68 0-2.96 1.02-2.96 3.14V18h-1.52Zm15.878 3.72c-2.04 0-3.88-.94-4.44-2.62h1.5c.56.98 1.54 1.42 2.94 1.42 1.78 0 3-1 3-2.56v-2.32c-.32.94-1.72 1.94-3.44 1.94-2.66 0-4.18-1.9-4.18-4.18v-1.7c0-2.32 1.5-4.18 4.2-4.18 1.92 0 3.06 1.04 3.48 1.94v-1.7h1.46V18c0 2.12-1.92 3.72-4.52 3.72Zm-.14-5.38c1.74 0 3.14-1.16 3.14-3.1v-1.32c0-1.74-1.32-3.16-3.08-3.16-2 0-3.04 1.1-3.04 3.06v1.46c0 1.92 1.02 3.06 2.98 3.06Z" />
  <path fill="#C2C2C2"
    d="M546.932 172.886c0 4.326-2.982 7.602-7.224 8.694v5.04h-6.93v-4.998c-4.662-1.008-7.224-4.158-7.224-8.694v-.63h6.804v.672c0 2.352 1.47 3.528 3.906 3.528 2.184 0 3.696-1.092 3.696-3.108 0-1.344-.714-2.226-2.184-2.73l-5.082-1.722c-4.41-1.512-6.93-3.276-6.93-7.854 0-4.536 2.898-7.182 6.846-8.106v-4.998h6.93v5.04c3.99 1.008 6.636 3.822 6.636 8.106v.714h-6.72v-.588c0-1.932-1.218-3.024-3.444-3.024-2.016 0-3.318.798-3.318 2.478 0 1.344.924 1.806 2.184 2.268l4.788 1.68c3.906 1.386 7.266 3.234 7.266 8.232ZM563.13 182h-7.14v-22.218l-6.342 2.058v-6.3l7.56-2.94h5.922V182Zm5.036-3.57c0-2.226 1.638-3.906 3.948-3.906s3.948 1.68 3.948 3.906-1.638 3.906-3.948 3.906-3.948-1.68-3.948-3.906Zm13.243-20.118V152.6h19.194v5.754l-6.51 6.09c4.032.63 7.812 3.066 7.812 8.61s-5.04 9.534-11.256 9.534c-6.006 0-10.836-3.192-10.92-9.534h6.678c.126 2.31 1.722 3.822 4.284 3.822 2.604 0 4.158-1.596 4.158-3.612 0-2.184-1.344-3.528-4.2-3.528h-4.452v-5.586l5.712-5.838h-10.5Zm23.569-5.712h23.1v6.09h-7.938V182h-7.224v-23.31h-7.938v-6.09ZM543.776 205.2V222H542v-13.2l-4.632 9.144h-1.776l-4.632-9.144V222h-1.776v-16.8h1.752l5.544 11.088 5.544-11.088h1.752Zm4.249 16.8v-12.288h1.824V222h-1.824Zm-.24-15.528c0-.648.456-1.104 1.152-1.104s1.152.456 1.152 1.104c0 .648-.456 1.104-1.152 1.104s-1.152-.456-1.152-1.104ZM553.978 222v-17.52h1.824V222h-1.824Zm5.953 0v-12.288h1.824V222h-1.824Zm-.24-15.528c0-.648.456-1.104 1.152-1.104s1.152.456 1.152 1.104c0 .648-.456 1.104-1.152 1.104s-1.152-.456-1.152-1.104ZM571.644 222h-1.536c-2.352 0-3.336-1.176-3.336-3.264V211.2h-2.088v-1.488h2.088v-3.528h1.824v3.528h3.144v1.488h-3.144v7.536c0 1.248.456 1.776 1.824 1.776h1.224V222Zm13.036 0h-1.752v-1.536c-.528.864-2.184 1.824-4.224 1.824-2.904 0-4.656-1.632-4.656-3.864 0-2.376 1.944-3.84 4.872-3.84 1.944 0 3.24.816 3.936 1.536v-2.28c0-1.68-1.104-2.976-3.072-2.976-1.56 0-2.568.72-3.072 1.848h-1.68c.624-2.04 2.352-3.288 4.776-3.288 3.048 0 4.872 1.992 4.872 4.416V222Zm-5.592-.888c1.92 0 3.768-1.128 3.768-2.712 0-1.536-1.824-2.616-3.672-2.616-2.04 0-3.408.96-3.408 2.664 0 1.704 1.416 2.664 3.312 2.664Zm9.34.888v-12.288h1.704v2.832c.456-1.896 1.776-2.904 4.008-2.904h.288v1.704h-.36c-2.328 0-3.816 1.536-3.816 4.632V222h-1.824Zm12.48 4.176h-1.776l1.56-4.176-4.584-12.288h1.8l3.744 10.44 3.6-10.44h1.8L602.516 222l-1.608 4.176Zm-67.452 22.112c-2.976 0-5.088-1.488-5.088-3.864v-.12h1.656v.072c0 1.536 1.44 2.544 3.456 2.544 1.896 0 3.264-.744 3.264-2.328 0-.864-.552-1.488-1.536-1.704l-3.648-.84c-1.824-.408-2.88-1.512-2.88-3.12 0-2.304 1.944-3.504 4.656-3.504 2.568 0 4.56 1.56 4.56 3.84v.12h-1.656v-.072c0-1.512-1.104-2.52-2.928-2.52-1.704 0-2.952.72-2.952 2.088 0 .84.408 1.368 1.296 1.584l3.768.888c1.896.456 3.024 1.392 3.024 3.168 0 2.184-2.112 3.768-4.992 3.768Zm9.945 3.888h-1.824v-16.464h1.728v1.92c.528-1.128 2.112-2.208 4.152-2.208 3.288 0 5.136 2.376 5.136 5.496v1.872c0 3.192-1.992 5.496-5.088 5.496-1.92 0-3.36-.864-4.104-2.112v6Zm7.368-9.456v-1.728c0-2.256-1.08-4.08-3.624-4.08-2.424 0-3.744 1.848-3.744 4.224v1.584c0 2.52 1.728 4.08 3.768 4.08 2.328 0 3.6-1.824 3.6-4.08Zm9.929 5.568c-3.192 0-5.424-2.04-5.424-5.352v-1.968c0-3.336 1.896-5.544 5.352-5.544 3.504 0 5.208 2.328 5.208 5.352v1.824h-8.808v.432c0 2.136 1.104 3.864 3.672 3.864 1.848 0 2.976-.984 3.384-2.376h1.632c-.408 2.208-2.448 3.768-5.016 3.768Zm-3.672-7.464v.384h7.104v-.576c0-2.184-1.104-3.816-3.504-3.816-2.64 0-3.6 1.752-3.6 4.008ZM569.163 248v-12.288h1.728v2.088c.576-1.392 1.968-2.376 4.104-2.376 2.76 0 4.512 1.872 4.512 4.824V248h-1.824v-7.488c0-2.088-.936-3.504-3.144-3.504-2.016 0-3.552 1.224-3.552 3.768V248h-1.824Zm22.701-17.52h1.824V248h-1.728v-1.92c-.528 1.128-2.112 2.208-4.152 2.208-3.24 0-5.136-2.424-5.136-5.496v-1.872c0-3.192 1.992-5.496 5.088-5.496 1.92 0 3.36.864 4.104 2.112v-7.056Zm-7.368 10.512v1.728c0 2.256 1.08 4.08 3.624 4.08 2.424 0 3.744-1.848 3.744-4.224v-1.584c0-2.52-1.728-4.08-3.768-4.08-2.328 0-3.6 1.824-3.6 4.08ZM597.689 248v-12.288h1.824V248h-1.824Zm-.24-15.528c0-.648.456-1.104 1.152-1.104s1.152.456 1.152 1.104c0 .648-.456 1.104-1.152 1.104s-1.152-.456-1.152-1.104ZM603.522 248v-12.288h1.728v2.088c.576-1.392 1.968-2.376 4.104-2.376 2.76 0 4.512 1.872 4.512 4.824V248h-1.824v-7.488c0-2.088-.936-3.504-3.144-3.504-2.016 0-3.552 1.224-3.552 3.768V248h-1.824Zm19.054 4.464c-2.448 0-4.656-1.128-5.328-3.144h1.8c.672 1.176 1.848 1.704 3.528 1.704 2.136 0 3.6-1.2 3.6-3.072v-2.784c-.384 1.128-2.064 2.328-4.128 2.328-3.193 0-5.016-2.28-5.016-5.016v-2.04c0-2.784 1.8-5.016 5.04-5.016 2.304 0 3.672 1.248 4.176 2.328v-2.04H628V248c0 2.544-2.304 4.464-5.424 4.464Zm-.168-6.456c2.088 0 3.768-1.392 3.768-3.72v-1.584c0-2.088-1.584-3.792-3.696-3.792-2.4 0-3.648 1.32-3.648 3.672v1.752c0 2.304 1.224 3.672 3.576 3.672Z" />
</svg>