<svg xmlns="http://www.w3.org/2000/svg" width="399" height="527" fill="none">
  <path fill="#212529" d="M0 0h399v527H0z" />
  <path fill="#595C5F" d="M0 46h177v177H0z" />
  <path fill="#EDB83A"
    d="M0 105h118v118H0zM27.824 79.056c0 3.296-2.272 5.792-5.504 6.624v3.84h-5.28v-3.808c-3.552-.768-5.504-3.168-5.504-6.624v-.48h5.184v.512c0 1.792 1.12 2.688 2.976 2.688 1.664 0 2.816-.832 2.816-2.368 0-1.024-.544-1.696-1.664-2.08l-3.872-1.312c-3.36-1.152-5.28-2.496-5.28-5.984 0-3.456 2.208-5.472 5.216-6.176V60.08h5.28v3.84c3.04.768 5.056 2.912 5.056 6.176v.544h-5.12v-.448c0-1.472-.928-2.304-2.624-2.304-1.536 0-2.528.608-2.528 1.888 0 1.024.704 1.376 1.664 1.728l3.648 1.28c2.976 1.056 5.536 2.464 5.536 6.272ZM39.878 86h-5.92l5.856-8.032c-.736.48-1.44.672-2.592.672-3.712 0-7.008-2.72-7.008-7.552 0-4.704 3.456-7.936 8.608-7.936 5.344 0 8.8 3.104 8.8 7.968 0 2.816-.896 5.088-1.984 6.624L39.878 86Zm-.992-11.488c2.112 0 3.36-1.408 3.36-3.488 0-2.016-1.088-3.552-3.36-3.552-2.016 0-3.36 1.408-3.36 3.52 0 2.048 1.184 3.52 3.36 3.52ZM56.184 63.6h4.928l-6.208 13.888h4.608v-4.512h4.992v4.512h2.72v4.096h-2.72V86h-4.992v-4.416h-9.888v-3.936l6.56-14.048Zm25.188 12.192 5.92-12.192h5.055V86h-5.28V74.16l-3.52 6.848h-4.352l-3.487-6.848V86h-5.28V63.6h5.056l5.888 12.192ZM14.192 239.8 11.536 251h-1.2l-2.96-9.84-2.96 9.84h-1.2L.56 239.8h1.2l2.112 9.536 2.88-9.536H8l2.88 9.536 2.112-9.536h1.2Zm1.854 11.2v-11.68h1.216v4.752c.464-.848 1.312-1.456 2.672-1.456 1.84 0 3.008 1.248 3.008 3.216V251h-1.216v-4.992c0-1.392-.624-2.336-2.096-2.336-1.344 0-2.368.816-2.368 2.512V251h-1.216Zm16.126 0h-1.168v-1.024c-.352.576-1.456 1.216-2.816 1.216-1.936 0-3.104-1.088-3.104-2.576 0-1.584 1.296-2.56 3.248-2.56 1.296 0 2.16.544 2.624 1.024v-1.52c0-1.12-.736-1.984-2.048-1.984-1.04 0-1.712.48-2.048 1.232h-1.12c.416-1.36 1.568-2.192 3.184-2.192 2.032 0 3.248 1.328 3.248 2.944V251Zm-3.728-.592c1.28 0 2.512-.752 2.512-1.808 0-1.024-1.216-1.744-2.448-1.744-1.36 0-2.272.64-2.272 1.776 0 1.136.944 1.776 2.208 1.776Zm10.038.592h-1.024c-1.568 0-2.224-.784-2.224-2.176V243.8h-1.392v-.992h1.392v-2.352h1.216v2.352h2.096v.992H36.45v5.024c0 .832.304 1.184 1.216 1.184h.816V251Zm9.484 0h-1.024c-1.568 0-2.224-.784-2.224-2.176V243.8h-1.392v-.992h1.392v-2.352h1.216v2.352h2.096v.992h-2.096v5.024c0 .832.304 1.184 1.216 1.184h.816V251Zm2.049 0v-11.68h1.216v4.752c.464-.848 1.312-1.456 2.672-1.456 1.84 0 3.008 1.248 3.008 3.216V251h-1.216v-4.992c0-1.392-.624-2.336-2.096-2.336-1.344 0-2.368.816-2.368 2.512V251h-1.216Zm12.622.192c-2.128 0-3.616-1.36-3.616-3.568v-1.312c0-2.224 1.264-3.696 3.568-3.696 2.336 0 3.472 1.552 3.472 3.568v1.216h-5.872v.288c0 1.424.736 2.576 2.448 2.576 1.232 0 1.984-.656 2.256-1.584h1.088c-.272 1.472-1.632 2.512-3.344 2.512Zm-2.448-4.976v.256h4.736v-.384c0-1.456-.736-2.544-2.336-2.544-1.76 0-2.4 1.168-2.4 2.672Zm18.135.672V239.8h2.752v7.024c0 2.624-1.84 4.4-4.768 4.4s-4.768-1.776-4.768-4.4V239.8h2.752v7.088c0 1.344.8 2.048 2.016 2.048s2.016-.704 2.016-2.048ZM85.981 251H83.23v-11.2h2.752v5.344l3.344-5.344h3.168l-3.696 5.552L92.605 251h-3.232l-3.392-5.44V251Zm11.721 0v-8.192h1.136v1.888c.304-1.264 1.184-1.936 2.672-1.936h.192v1.136h-.24c-1.552 0-2.544 1.024-2.544 3.088V251h-1.216Zm8.732.192c-2.128 0-3.616-1.36-3.616-3.568v-1.312c0-2.224 1.264-3.696 3.568-3.696 2.336 0 3.472 1.552 3.472 3.568v1.216h-5.872v.288c0 1.424.736 2.576 2.448 2.576 1.232 0 1.984-.656 2.256-1.584h1.088c-.272 1.472-1.632 2.512-3.344 2.512Zm-2.448-4.976v.256h4.736v-.384c0-1.456-.736-2.544-2.336-2.544-1.76 0-2.4 1.168-2.4 2.672Zm9.307 7.568h-1.216v-10.976h1.152v1.28c.352-.752 1.408-1.472 2.768-1.472 2.192 0 3.424 1.584 3.424 3.664v1.248c0 2.128-1.328 3.664-3.392 3.664-1.28 0-2.24-.576-2.736-1.408v4Zm4.912-6.304v-1.152c0-1.504-.72-2.72-2.416-2.72-1.616 0-2.496 1.232-2.496 2.816v1.056c0 1.68 1.152 2.72 2.512 2.72 1.552 0 2.4-1.216 2.4-2.72Zm6.668 3.712c-2.336 0-3.664-1.6-3.664-3.616v-1.344c0-2.016 1.344-3.616 3.664-3.616 2.32 0 3.648 1.6 3.648 3.616v1.344c0 2.016-1.328 3.616-3.648 3.616Zm2.48-4.944c0-1.552-.864-2.656-2.48-2.656s-2.48 1.104-2.48 2.656v1.312c0 1.552.864 2.656 2.48 2.656s2.48-1.104 2.48-2.656v-1.312Zm3.365 4.752v-8.192h1.136v1.888c.304-1.264 1.184-1.936 2.672-1.936h.192v1.136h-.24c-1.552 0-2.544 1.024-2.544 3.088V251h-1.216Zm9.561 0h-1.024c-1.568 0-2.224-.784-2.224-2.176V243.8h-1.392v-.992h1.392v-2.352h1.216v2.352h2.096v.992h-2.096v5.024c0 .832.304 1.184 1.216 1.184h.816V251Zm5.186.192c-2.128 0-3.616-1.36-3.616-3.568v-1.312c0-2.224 1.264-3.696 3.568-3.696 2.336 0 3.472 1.552 3.472 3.568v1.216h-5.872v.288c0 1.424.736 2.576 2.448 2.576 1.232 0 1.984-.656 2.256-1.584h1.088c-.272 1.472-1.632 2.512-3.344 2.512Zm-2.448-4.976v.256h4.736v-.384c0-1.456-.736-2.544-2.336-2.544-1.76 0-2.4 1.168-2.4 2.672Zm13.82-6.896h1.216V251h-1.152v-1.28c-.352.752-1.408 1.472-2.768 1.472-2.16 0-3.424-1.616-3.424-3.664v-1.248c0-2.128 1.328-3.664 3.392-3.664 1.28 0 2.24.576 2.736 1.408v-4.704Zm-4.913 7.008v1.152c0 1.504.721 2.72 2.417 2.72 1.616 0 2.496-1.232 2.496-2.816v-1.056c0-1.68-1.152-2.72-2.512-2.72-1.552 0-2.401 1.216-2.401 2.72ZM168.075 251h-1.024c-1.568 0-2.224-.784-2.224-2.176V243.8h-1.392v-.992h1.392v-2.352h1.216v2.352h2.096v.992h-2.096v5.024c0 .832.304 1.184 1.216 1.184h.816V251Zm5.235.192c-2.336 0-3.664-1.6-3.664-3.616v-1.344c0-2.016 1.344-3.616 3.664-3.616 2.32 0 3.648 1.6 3.648 3.616v1.344c0 2.016-1.328 3.616-3.648 3.616Zm2.48-4.944c0-1.552-.864-2.656-2.48-2.656s-2.48 1.104-2.48 2.656v1.312c0 1.552.864 2.656 2.48 2.656s2.48-1.104 2.48-2.656v-1.312ZM5.216 270H4.192c-1.568 0-2.224-.784-2.224-2.176V262.8H.576v-.992h1.392v-2.352h1.216v2.352H5.28v.992H3.184v5.024c0 .832.304 1.184 1.216 1.184h.816V270Zm2.049 0v-11.68H8.48v4.752c.464-.848 1.312-1.456 2.672-1.456 1.84 0 3.008 1.248 3.008 3.216V270h-1.216v-4.992c0-1.392-.624-2.336-2.096-2.336-1.344 0-2.368.816-2.368 2.512V270H7.265Zm12.622.192c-2.128 0-3.616-1.36-3.616-3.568v-1.312c0-2.224 1.264-3.696 3.568-3.696 2.336 0 3.472 1.552 3.472 3.568v1.216h-5.872v.288c0 1.424.736 2.576 2.448 2.576 1.232 0 1.984-.656 2.256-1.584h1.088c-.272 1.472-1.632 2.512-3.344 2.512Zm-2.448-4.976v.256h4.736v-.384c0-1.456-.736-2.544-2.336-2.544-1.76 0-2.4 1.168-2.4 2.672Zm15.975 5.008c-2.656 0-4.304-1.68-4.304-4V258.8h1.248v7.536c0 1.744 1.168 2.848 3.056 2.848 1.888 0 3.056-1.104 3.056-2.848V258.8h1.248v7.424c0 2.32-1.648 4-4.304 4Zm7.12-.224v-11.2h1.168l6.16 9.2v-9.2h1.216V270H47.91l-6.16-9.2v9.2h-1.216Zm11.453 0v-11.2h7.248v1.04h-6v4.128h5.536v1.04h-5.536V270h-1.248Zm13.523.224c-3.088 0-4.656-2.096-4.656-4.88v-1.888c0-2.784 1.568-4.88 4.656-4.88 2.592 0 4.24 1.808 4.416 3.92h-1.2c-.192-1.536-1.216-2.88-3.232-2.88-2.288 0-3.392 1.6-3.392 3.792v1.984c0 2.192 1.104 3.792 3.392 3.792 2.016 0 3.04-1.344 3.232-2.88h1.2c-.176 2.112-1.824 3.92-4.416 3.92Zm11.22 0c-3.089 0-4.657-2.096-4.657-4.88v-1.888c0-2.784 1.568-4.88 4.656-4.88 2.592 0 4.24 1.808 4.416 3.92h-1.2c-.192-1.536-1.216-2.88-3.232-2.88-2.288 0-3.392 1.6-3.392 3.792v1.984c0 2.192 1.104 3.792 3.392 3.792 2.016 0 3.04-1.344 3.232-2.88h1.2c-.176 2.112-1.824 3.92-4.416 3.92Zm11.218 0c-3.088 0-4.656-2.096-4.656-4.88v-1.888c0-2.784 1.568-4.88 4.656-4.88 2.592 0 4.24 1.808 4.416 3.92h-1.2c-.192-1.536-1.216-2.88-3.232-2.88-2.288 0-3.392 1.6-3.392 3.792v1.984c0 2.192 1.104 3.792 3.392 3.792 2.016 0 3.04-1.344 3.232-2.88h1.2c-.176 2.112-1.824 3.92-4.416 3.92Z" />
  <path fill="#595C5F" d="M0 298h177v177H0z" />
  <path fill="#01FFD8"
    d="M0 382h92.75v92.75H0zM28.824 331.056c0 3.296-2.272 5.792-5.504 6.624v3.84h-5.28v-3.808c-3.552-.768-5.504-3.168-5.504-6.624v-.48h5.184v.512c0 1.792 1.12 2.688 2.976 2.688 1.664 0 2.816-.832 2.816-2.368 0-1.024-.544-1.696-1.664-2.08l-3.872-1.312c-3.36-1.152-5.28-2.496-5.28-5.984 0-3.456 2.208-5.472 5.216-6.176v-3.808h5.28v3.84c3.04.768 5.056 2.912 5.056 6.176v.544h-5.12v-.448c0-1.472-.928-2.304-2.624-2.304-1.536 0-2.528.608-2.528 1.888 0 1.024.704 1.376 1.664 1.728l3.648 1.28c2.976 1.056 5.536 2.464 5.536 6.272ZM46.958 315.6v3.872L37.966 338h-5.568l8.928-17.952h-9.792V315.6h15.424Zm7.195 0h4.928l-6.209 13.888h4.608v-4.512h4.992v4.512h2.72v4.096h-2.72V338H57.48v-4.416h-9.887v-3.936l6.56-14.048Zm25.187 12.192 5.92-12.192h5.056V338h-5.28v-11.84l-3.52 6.848h-4.352l-3.488-6.848V338h-5.28v-22.4h5.056l5.888 12.192Z" />
  <path fill="#fff"
    d="M2.12 503v-.96l4.736-4.976c.784-.816 1.248-1.552 1.248-2.416 0-1.248-.976-2.064-2.288-2.064-1.424 0-2.352.816-2.352 2.256v.256H2.296v-.304c0-2.048 1.44-3.216 3.52-3.216 2.032 0 3.52 1.2 3.52 3.072 0 1.36-.944 2.4-1.84 3.312l-3.952 4.032h5.808V503H2.12Zm11.259 0v-9.936l-2.336 1.104v-1.12l2.544-1.248h1.024V503h-1.232Zm6.154-5.136c-1.488 0-2.416-.992-2.416-2.4v-1.392c0-1.408.928-2.4 2.416-2.4s2.416.992 2.416 2.4v1.392c0 1.408-.928 2.4-2.416 2.4Zm0-.768c.976 0 1.504-.64 1.504-1.568v-1.52c0-.928-.528-1.568-1.504-1.568s-1.504.64-1.504 1.568v1.52c0 .928.528 1.568 1.504 1.568Zm6.88 6.032c-1.488 0-2.416-.992-2.416-2.4v-1.392c0-1.408.928-2.4 2.416-2.4s2.416.992 2.416 2.4v1.392c0 1.408-.928 2.4-2.416 2.4Zm0-.768c.976 0 1.504-.64 1.504-1.568v-1.52c0-.928-.528-1.568-1.504-1.568s-1.504.64-1.504 1.568v1.52c0 .928.528 1.568 1.504 1.568Zm-6.8.64 5.808-11.2h.928L20.54 503h-.928Zm14.997 0v-11.68h1.216V503H34.61Zm7.105.192c-2.128 0-3.616-1.36-3.616-3.568v-1.312c0-2.224 1.264-3.696 3.568-3.696 2.336 0 3.472 1.552 3.472 3.568v1.216h-5.872v.288c0 1.424.736 2.576 2.448 2.576 1.232 0 1.984-.656 2.256-1.584h1.088c-.272 1.472-1.632 2.512-3.344 2.512Zm-2.448-4.976v.256h4.736v-.384c0-1.456-.736-2.544-2.336-2.544-1.76 0-2.4 1.168-2.4 2.672Zm11.1 4.976c-1.984 0-3.392-.992-3.392-2.576v-.08h1.103v.048c0 1.024.96 1.696 2.304 1.696 1.265 0 2.177-.496 2.177-1.552 0-.576-.368-.992-1.024-1.136l-2.432-.56c-1.217-.272-1.92-1.008-1.92-2.08 0-1.536 1.295-2.336 3.103-2.336 1.712 0 3.04 1.04 3.04 2.56v.08h-1.104v-.048c0-1.008-.736-1.68-1.952-1.68-1.136 0-1.968.48-1.968 1.392 0 .56.273.912.864 1.056l2.513.592c1.264.304 2.015.928 2.015 2.112 0 1.456-1.408 2.512-3.328 2.512Zm8.421 0c-1.984 0-3.392-.992-3.392-2.576v-.08H56.5v.048c0 1.024.96 1.696 2.304 1.696 1.264 0 2.176-.496 2.176-1.552 0-.576-.368-.992-1.024-1.136l-2.432-.56c-1.216-.272-1.92-1.008-1.92-2.08 0-1.536 1.296-2.336 3.104-2.336 1.712 0 3.04 1.04 3.04 2.56v.08h-1.104v-.048c0-1.008-.736-1.68-1.952-1.68-1.136 0-1.968.48-1.968 1.392 0 .56.272.912.864 1.056l2.512.592c1.264.304 2.016.928 2.016 2.112 0 1.456-1.408 2.512-3.328 2.512Zm15.666-8.384V503h-1.152v-1.392c-.384.928-1.312 1.584-2.736 1.584-1.792 0-2.928-1.248-2.928-3.216v-5.168h1.216v4.992c0 1.392.608 2.368 2.016 2.368 1.344 0 2.368-.848 2.368-2.544v-4.816h1.216Zm5.6 8.384c-1.984 0-3.392-.992-3.392-2.576v-.08h1.104v.048c0 1.024.96 1.696 2.304 1.696 1.264 0 2.176-.496 2.176-1.552 0-.576-.368-.992-1.024-1.136l-2.432-.56c-1.216-.272-1.92-1.008-1.92-2.08 0-1.536 1.296-2.336 3.104-2.336 1.712 0 3.04 1.04 3.04 2.56v.08H81.91v-.048c0-1.008-.736-1.68-1.952-1.68-1.136 0-1.968.48-1.968 1.392 0 .56.272.912.864 1.056l2.512.592c1.264.304 2.016.928 2.016 2.112 0 1.456-1.408 2.512-3.328 2.512Zm5.494-.192v-8.192h1.216V503h-1.216Zm-.16-10.352c0-.432.304-.736.768-.736s.768.304.768.736-.304.736-.768.736-.768-.304-.768-.736ZM89.437 503v-8.192h1.152v1.392c.384-.928 1.312-1.584 2.736-1.584 1.84 0 3.008 1.248 3.008 3.216V503h-1.216v-4.992c0-1.392-.624-2.336-2.096-2.336-1.344 0-2.368.816-2.368 2.512V503h-1.216Zm12.702 2.976c-1.632 0-3.104-.752-3.552-2.096h1.2c.448.784 1.232 1.136 2.352 1.136 1.424 0 2.4-.8 2.4-2.048v-1.856c-.256.752-1.376 1.552-2.752 1.552-2.128 0-3.344-1.52-3.344-3.344v-1.36c0-1.856 1.2-3.344 3.36-3.344 1.536 0 2.448.832 2.784 1.552v-1.36h1.168V503c0 1.696-1.536 2.976-3.616 2.976Zm-.112-4.304c1.392 0 2.512-.928 2.512-2.48v-1.056c0-1.392-1.056-2.528-2.464-2.528-1.6 0-2.432.88-2.432 2.448v1.168c0 1.536.816 2.448 2.384 2.448ZM10.84 518.56c0 2.24-1.984 3.664-4.576 3.664-2.688 0-4.496-1.28-4.496-3.536v-.304h2.64v.224c0 .944.608 1.52 1.872 1.52 1.136 0 1.888-.464 1.888-1.328 0-.496-.208-.848-.768-.992l-2.8-.704c-1.744-.432-2.64-1.2-2.64-3.024 0-2.224 1.584-3.504 4.24-3.504 2.512 0 4.112 1.36 4.112 3.408v.272H7.768v-.192c0-.752-.416-1.376-1.568-1.376-.96 0-1.568.336-1.568 1.136 0 .528.272.8.72.912l2.976.8c1.792.48 2.512 1.472 2.512 3.024Zm8.117-4.944 1.537 5.088.944-5.088h2.608L21.886 522h-2.433l-1.648-5.072L16.157 522h-2.431l-2.16-8.384h2.607l.944 5.088 1.537-5.088h2.303ZM27.9 522h-2.688v-8.384H27.9V522Zm-2.832-10.528c0-.848.592-1.392 1.488-1.392s1.488.544 1.488 1.392c0 .848-.592 1.392-1.488 1.392s-1.488-.544-1.488-1.392Zm5.357-.112h2.689v2.256h1.616v2.08h-1.616v3.568c0 .384.192.56.608.56h.88V522h-1.776c-1.6 0-2.4-.944-2.4-2.48v-3.824h-1.088v-2.08h1.087v-2.256ZM42.947 522H35.97v-1.872l3.68-4.512h-3.536v-2h6.72v1.872L39.138 520h3.808v2Zm8.986-3.344h-5.216v.192c0 .832.496 1.456 1.44 1.456.752 0 1.184-.384 1.36-.8h2.368c-.288 1.552-1.824 2.688-3.728 2.688-2.416 0-4.032-1.392-4.032-3.792v-1.04c0-2.336 1.424-3.936 3.968-3.936s3.84 1.696 3.84 3.696v1.536Zm-5.216-1.744v.176h2.752v-.304c0-.832-.416-1.456-1.36-1.456-.976 0-1.392.624-1.392 1.584Zm11.813-3.36v2.64h-.352c-1.248 0-1.92.512-1.92 1.968V522H53.57v-8.384h2.544v1.472c.256-1.248 1.088-1.536 2.288-1.536h.128ZM62.603 522h-2.688v-11.68h2.688V522Zm9.838 0h-2.576v-.704c-.48.56-1.392.896-2.48.896-1.92 0-3.072-1.104-3.072-2.64 0-1.728 1.296-2.608 3.248-2.608 1.008 0 1.776.288 2.192.624v-.976c0-.624-.416-1.088-1.168-1.088-.56 0-.992.192-1.216.608H64.92c.352-1.68 1.776-2.688 3.744-2.688 2.384 0 3.776 1.296 3.776 3.36V522Zm-4.16-1.52c.816 0 1.472-.416 1.472-.976s-.608-.976-1.44-.976c-.912 0-1.488.32-1.488.976 0 .64.608.976 1.456.976Zm8.695 1.52h-2.688v-8.384h2.576v.976c.432-.768 1.264-1.168 2.336-1.168 1.92 0 2.944 1.232 2.944 3.168V522h-2.688v-4.992c0-.768-.4-1.248-1.216-1.248-.688 0-1.264.32-1.264 1.28V522Zm15.08-11.68V522h-2.56v-.88c-.257.464-1.153 1.072-2.305 1.072-2.368 0-3.552-1.792-3.552-3.696v-1.376c0-1.904 1.184-3.696 3.552-3.696 1.008 0 1.808.464 2.176.896v-4h2.688Zm-2.689 8.08v-1.184c0-1.056-.704-1.584-1.504-1.584-1.056 0-1.536.64-1.536 1.632v1.088c0 .96.48 1.632 1.536 1.632.8 0 1.504-.528 1.504-1.584Zm4.449-4.016.768-3.584h1.36l-1.104 3.584h-1.024Zm6.457 7.808c-1.984 0-3.392-.992-3.392-2.576v-.08h1.104v.048c0 1.024.96 1.696 2.304 1.696 1.264 0 2.176-.496 2.176-1.552 0-.576-.368-.992-1.024-1.136l-2.432-.56c-1.216-.272-1.92-1.008-1.92-2.08 0-1.536 1.296-2.336 3.104-2.336 1.712 0 3.04 1.04 3.04 2.56v.08h-1.104v-.048c0-1.008-.736-1.68-1.952-1.68-1.136 0-1.968.48-1.968 1.392 0 .56.272.912.864 1.056l2.512.592c1.264.304 2.016.928 2.016 2.112 0 1.456-1.408 2.512-3.328 2.512Z" />
  <path fill="#595C5F" d="M213 46h177v177H213z" />
  <path fill="#01FFD8"
    d="M213 145h78.125v78.125H213zM241.824 79.056c0 3.296-2.272 5.792-5.504 6.624v3.84h-5.28v-3.808c-3.552-.768-5.504-3.168-5.504-6.624v-.48h5.184v.512c0 1.792 1.12 2.688 2.976 2.688 1.664 0 2.816-.832 2.816-2.368 0-1.024-.544-1.696-1.664-2.08l-3.872-1.312c-3.36-1.152-5.28-2.496-5.28-5.984 0-3.456 2.208-5.472 5.216-6.176V60.08h5.28v3.84c3.04.768 5.056 2.912 5.056 6.176v.544h-5.12v-.448c0-1.472-.928-2.304-2.624-2.304-1.536 0-2.528.608-2.528 1.888 0 1.024.704 1.376 1.664 1.728l3.648 1.28c2.976 1.056 5.536 2.464 5.536 6.272Zm10.39-15.456h5.824l-5.856 8.032c.736-.48 1.504-.672 2.656-.672 3.712 0 7.008 2.72 7.008 7.552 0 4.512-3.744 7.936-8.608 7.936-5.408 0-8.8-3.296-8.8-7.968 0-2.592.896-4.928 2.208-6.816l5.568-8.064Zm.96 11.488c-2.112 0-3.36 1.408-3.36 3.488 0 2.016 1.088 3.552 3.36 3.552 2.016 0 3.36-1.6 3.36-3.52 0-2.048-1.184-3.52-3.36-3.52Zm16.743-4.192h-5.216v-.672c0-4.64 3.04-7.072 7.84-7.072 4.832 0 8.064 2.688 8.064 6.848 0 3.456-2.336 5.568-4.768 7.616l-4.64 3.936h9.184V86h-15.904v-4.128l8.832-8.448c1.152-1.12 1.856-2.112 1.856-3.392 0-1.568-1.088-2.432-2.592-2.432-1.824 0-2.656 1.088-2.656 2.88v.416Zm25.642 4.896 5.92-12.192h5.056V86h-5.28V74.16l-3.52 6.848h-4.352l-3.488-6.848V86h-5.28V63.6h5.056l5.888 12.192Z" />
  <path fill="#fff"
    d="M215.832 251v-9.936l-2.336 1.104v-1.12l2.544-1.248h1.024V251h-1.232Zm3.322 1.68 4.512-13.68h1.136l-4.512 13.68h-1.136Zm7.512-11.888v-.992h6.528v1.008l-3.584 3.92h.432c2.064 0 3.52 1.248 3.52 3.152 0 1.952-1.76 3.344-3.888 3.344-1.92 0-3.696-1.152-3.776-3.28h1.136c.112 1.424 1.168 2.288 2.656 2.288 1.616 0 2.672-.992 2.672-2.32 0-1.36-1.008-2.272-2.592-2.272h-1.52v-.96l3.456-3.888h-5.04ZM239.532 251v-11.68h1.216V251h-1.216Zm7.105.192c-2.128 0-3.616-1.36-3.616-3.568v-1.312c0-2.224 1.264-3.696 3.568-3.696 2.336 0 3.472 1.552 3.472 3.568v1.216h-5.872v.288c0 1.424.736 2.576 2.448 2.576 1.232 0 1.984-.656 2.256-1.584h1.088c-.272 1.472-1.632 2.512-3.344 2.512Zm-2.448-4.976v.256h4.736v-.384c0-1.456-.736-2.544-2.336-2.544-1.76 0-2.4 1.168-2.4 2.672Zm11.099 4.976c-1.984 0-3.392-.992-3.392-2.576v-.08H253v.048c0 1.024.96 1.696 2.304 1.696 1.264 0 2.176-.496 2.176-1.552 0-.576-.368-.992-1.024-1.136l-2.432-.56c-1.216-.272-1.92-1.008-1.92-2.08 0-1.536 1.296-2.336 3.104-2.336 1.712 0 3.04 1.04 3.04 2.56v.08h-1.104v-.048c0-1.008-.736-1.68-1.952-1.68-1.136 0-1.968.48-1.968 1.392 0 .56.272.912.864 1.056l2.512.592c1.264.304 2.016.928 2.016 2.112 0 1.456-1.408 2.512-3.328 2.512Zm8.422 0c-1.984 0-3.392-.992-3.392-2.576v-.08h1.104v.048c0 1.024.96 1.696 2.304 1.696 1.264 0 2.176-.496 2.176-1.552 0-.576-.368-.992-1.024-1.136l-2.432-.56c-1.216-.272-1.92-1.008-1.92-2.08 0-1.536 1.296-2.336 3.104-2.336 1.712 0 3.04 1.04 3.04 2.56v.08h-1.104v-.048c0-1.008-.736-1.68-1.952-1.68-1.136 0-1.968.48-1.968 1.392 0 .56.272.912.864 1.056l2.512.592c1.264.304 2.016.928 2.016 2.112 0 1.456-1.408 2.512-3.328 2.512Zm15.666-8.384V251h-1.152v-1.392c-.384.928-1.312 1.584-2.736 1.584-1.792 0-2.928-1.248-2.928-3.216v-5.168h1.216v4.992c0 1.392.608 2.368 2.016 2.368 1.344 0 2.368-.848 2.368-2.544v-4.816h1.216Zm5.6 8.384c-1.984 0-3.392-.992-3.392-2.576v-.08h1.104v.048c0 1.024.96 1.696 2.304 1.696 1.264 0 2.176-.496 2.176-1.552 0-.576-.368-.992-1.024-1.136l-2.432-.56c-1.216-.272-1.92-1.008-1.92-2.08 0-1.536 1.296-2.336 3.104-2.336 1.712 0 3.04 1.04 3.04 2.56v.08h-1.104v-.048c0-1.008-.736-1.68-1.952-1.68-1.136 0-1.968.48-1.968 1.392 0 .56.272.912.864 1.056l2.512.592c1.264.304 2.016.928 2.016 2.112 0 1.456-1.408 2.512-3.328 2.512Zm5.494-.192v-8.192h1.216V251h-1.216Zm-.16-10.352c0-.432.304-.736.768-.736s.768.304.768.736-.304.736-.768.736-.768-.304-.768-.736ZM294.359 251v-8.192h1.152v1.392c.384-.928 1.312-1.584 2.736-1.584 1.84 0 3.008 1.248 3.008 3.216V251h-1.216v-4.992c0-1.392-.624-2.336-2.096-2.336-1.344 0-2.368.816-2.368 2.512V251h-1.216Zm12.702 2.976c-1.632 0-3.104-.752-3.552-2.096h1.2c.448.784 1.232 1.136 2.352 1.136 1.424 0 2.4-.8 2.4-2.048v-1.856c-.256.752-1.376 1.552-2.752 1.552-2.128 0-3.344-1.52-3.344-3.344v-1.36c0-1.856 1.2-3.344 3.36-3.344 1.536 0 2.448.832 2.784 1.552v-1.36h1.168V251c0 1.696-1.536 2.976-3.616 2.976Zm-.112-4.304c1.392 0 2.512-.928 2.512-2.48v-1.056c0-1.392-1.056-2.528-2.464-2.528-1.6 0-2.432.88-2.432 2.448v1.168c0 1.536.816 2.448 2.384 2.448Zm19.127-6h-2.624c-.048-.944-.784-1.824-2.128-1.824-1.536 0-2.32.848-2.32 2.624v1.76c0 1.616.64 2.784 2.32 2.784 1.296 0 2.112-.736 2.16-1.776h-2.176v-2.224h4.88v1.584c0 2.8-2.048 4.624-4.928 4.624-3.328 0-5.008-2.24-5.008-5.056V244.6c0-3.12 1.952-5.024 4.992-5.024 2.992 0 4.768 1.712 4.832 4.096Zm9.293 3.984h-5.216v.192c0 .832.496 1.456 1.44 1.456.752 0 1.184-.384 1.36-.8h2.368c-.288 1.552-1.824 2.688-3.728 2.688-2.416 0-4.032-1.392-4.032-3.792v-1.04c0-2.336 1.424-3.936 3.968-3.936s3.84 1.696 3.84 3.696v1.536Zm-5.216-1.744v.176h2.752v-.304c0-.832-.416-1.456-1.36-1.456-.976 0-1.392.624-1.392 1.584Zm11.814-3.36v2.64h-.352c-1.248 0-1.92.512-1.92 1.968V251h-2.688v-8.384h2.544v1.472c.256-1.248 1.088-1.536 2.288-1.536h.128Zm10.314 2.208c-.656 0-1.232.352-1.232 1.28V251h-2.688v-4.992c0-.768-.352-1.248-1.168-1.248-.688 0-1.232.352-1.232 1.28V251h-2.688v-8.384h2.576v.976c.32-.72 1.184-1.168 2.256-1.168 1.136 0 1.952.432 2.431 1.184.625-.736 1.425-1.184 2.657-1.184 1.92 0 2.944 1.232 2.944 3.168V251h-2.688v-4.992c0-.768-.352-1.248-1.168-1.248Zm13.535 6.24h-2.576v-.704c-.48.56-1.392.896-2.48.896-1.92 0-3.072-1.104-3.072-2.64 0-1.728 1.296-2.608 3.248-2.608 1.008 0 1.776.288 2.192.624v-.976c0-.624-.416-1.088-1.168-1.088-.56 0-.992.192-1.216.608h-2.448c.352-1.68 1.776-2.688 3.744-2.688 2.384 0 3.776 1.296 3.776 3.36V251Zm-4.16-1.52c.816 0 1.472-.416 1.472-.976s-.608-.976-1.44-.976c-.912 0-1.488.32-1.488.976 0 .64.608.976 1.456.976Zm8.695 1.52h-2.688v-8.384h2.576v.976c.432-.768 1.264-1.168 2.336-1.168 1.92 0 2.944 1.232 2.944 3.168V251h-2.688v-4.992c0-.768-.4-1.248-1.216-1.248-.688 0-1.264.32-1.264 1.28V251Zm10.795 2.784h-2.624l.816-2.784-3.008-8.384h2.672l1.6 5.664 1.344-5.664h2.688l-3.488 11.168Zm4.949-9.76V239.8h1.04v4.224h-1.04Zm6.725 7.168c-1.984 0-3.392-.992-3.392-2.576v-.08h1.104v.048c0 1.024.96 1.696 2.304 1.696 1.264 0 2.176-.496 2.176-1.552 0-.576-.368-.992-1.024-1.136l-2.432-.56c-1.216-.272-1.92-1.008-1.92-2.08 0-1.536 1.296-2.336 3.104-2.336 1.712 0 3.04 1.04 3.04 2.56v.08h-1.104v-.048c0-1.008-.736-1.68-1.952-1.68-1.136 0-1.968.48-1.968 1.392 0 .56.272.912.864 1.056l2.512.592c1.264.304 2.016.928 2.016 2.112 0 1.456-1.408 2.512-3.328 2.512ZM214.296 270v-8.192h1.152v1.392c.384-.928 1.28-1.584 2.704-1.584 1.216 0 2.144.608 2.608 1.6.56-.96 1.552-1.6 2.976-1.6 1.792 0 2.944 1.28 2.944 3.216V270h-1.216v-4.992c0-1.392-.688-2.336-2.032-2.336s-2.336.816-2.336 2.512V270h-1.216v-4.992c0-1.392-.688-2.336-2.032-2.336s-2.336.816-2.336 2.512V270h-1.216Zm18.107.192c-2.128 0-3.616-1.36-3.616-3.568v-1.312c0-2.224 1.264-3.696 3.568-3.696 2.336 0 3.472 1.552 3.472 3.568v1.216h-5.872v.288c0 1.424.736 2.576 2.448 2.576 1.232 0 1.984-.656 2.256-1.584h1.088c-.272 1.472-1.632 2.512-3.344 2.512Zm-2.448-4.976v.256h4.736v-.384c0-1.456-.736-2.544-2.336-2.544-1.76 0-2.4 1.168-2.4 2.672ZM241.919 270h-1.024c-1.568 0-2.224-.784-2.224-2.176V262.8h-1.392v-.992h1.392v-2.352h1.216v2.352h2.096v.992h-2.096v5.024c0 .832.304 1.184 1.216 1.184h.816V270Zm2.049 0v-11.68h1.216v4.752c.464-.848 1.312-1.456 2.672-1.456 1.84 0 3.008 1.248 3.008 3.216V270h-1.216v-4.992c0-1.392-.624-2.336-2.096-2.336-1.344 0-2.368.816-2.368 2.512V270h-1.216Zm12.67.192c-2.336 0-3.664-1.6-3.664-3.616v-1.344c0-2.016 1.344-3.616 3.664-3.616 2.32 0 3.648 1.6 3.648 3.616v1.344c0 2.016-1.328 3.616-3.648 3.616Zm2.48-4.944c0-1.552-.864-2.656-2.48-2.656s-2.48 1.104-2.48 2.656v1.312c0 1.552.864 2.656 2.48 2.656s2.48-1.104 2.48-2.656v-1.312Zm9.094-6.928h1.216V270h-1.152v-1.28c-.352.752-1.408 1.472-2.768 1.472-2.16 0-3.424-1.616-3.424-3.664v-1.248c0-2.128 1.328-3.664 3.392-3.664 1.28 0 2.24.576 2.736 1.408v-4.704Zm-4.913 7.008v1.152c0 1.504.721 2.72 2.417 2.72 1.616 0 2.496-1.232 2.496-2.816v-1.056c0-1.68-1.152-2.72-2.512-2.72-1.552 0-2.401 1.216-2.401 2.72Zm11.98 4.864c-2.336 0-3.664-1.6-3.664-3.616v-1.344c0-2.016 1.344-3.616 3.664-3.616 2.32 0 3.648 1.6 3.648 3.616v1.344c0 2.016-1.328 3.616-3.648 3.616Zm2.48-4.944c0-1.552-.864-2.656-2.48-2.656s-2.48 1.104-2.48 2.656v1.312c0 1.552.864 2.656 2.48 2.656s2.48-1.104 2.48-2.656v-1.312Zm3.445 4.752v-11.68h1.216V270h-1.216Zm7.153.192c-2.336 0-3.664-1.6-3.664-3.616v-1.344c0-2.016 1.344-3.616 3.664-3.616 2.32 0 3.648 1.6 3.648 3.616v1.344c0 2.016-1.328 3.616-3.648 3.616Zm2.48-4.944c0-1.552-.864-2.656-2.48-2.656s-2.48 1.104-2.48 2.656v1.312c0 1.552.864 2.656 2.48 2.656s2.48-1.104 2.48-2.656v-1.312Zm6.661 7.728c-1.632 0-3.104-.752-3.552-2.096h1.2c.448.784 1.232 1.136 2.352 1.136 1.424 0 2.4-.8 2.4-2.048v-1.856c-.256.752-1.376 1.552-2.752 1.552-2.128 0-3.344-1.52-3.344-3.344v-1.36c0-1.856 1.2-3.344 3.36-3.344 1.536 0 2.448.832 2.784 1.552v-1.36h1.168V270c0 1.696-1.536 2.976-3.616 2.976Zm-.112-4.304c1.392 0 2.512-.928 2.512-2.48v-1.056c0-1.392-1.056-2.528-2.464-2.528-1.6 0-2.432.88-2.432 2.448v1.168c0 1.536.816 2.448 2.384 2.448Zm8.636 4.112h-1.184l1.04-2.784-3.056-8.192h1.2l2.496 6.96 2.4-6.96h1.2L307.094 270l-1.072 2.784Z" />
  <path fill="#999"
    d="M221.848 6.42h-1.036c-.042-1.372-1.05-2.506-2.814-2.506-2.016 0-2.926 1.386-2.926 3.346v1.624c0 1.932.868 3.43 2.996 3.43 1.75 0 2.828-.994 2.828-2.884v-.252h-2.744v-.91h3.794v1.036c0 2.254-1.386 3.892-3.892 3.892-2.73 0-4.074-1.946-4.074-4.34V7.302c0-2.506 1.414-4.298 4.004-4.298 2.394 0 3.822 1.484 3.864 3.416Zm8.064 6.58h-1.022v-.896c-.308.504-1.274 1.064-2.464 1.064-1.694 0-2.716-.952-2.716-2.254 0-1.386 1.134-2.24 2.842-2.24 1.134 0 1.89.476 2.296.896V8.24c0-.98-.644-1.736-1.792-1.736-.91 0-1.498.42-1.792 1.078h-.98c.364-1.19 1.372-1.918 2.786-1.918 1.778 0 2.842 1.162 2.842 2.576V13Zm-3.262-.518c1.12 0 2.198-.658 2.198-1.582 0-.896-1.064-1.526-2.142-1.526-1.19 0-1.988.56-1.988 1.554s.826 1.554 1.932 1.554Zm6.513 2.954h-1.064V5.832h1.008v1.12c.308-.658 1.232-1.288 2.422-1.288 1.918 0 2.996 1.386 2.996 3.206v1.092c0 1.862-1.162 3.206-2.968 3.206-1.12 0-1.96-.504-2.394-1.232v3.5Zm4.298-5.516V8.912c0-1.316-.63-2.38-2.114-2.38-1.414 0-2.184 1.078-2.184 2.464v.924c0 1.47 1.008 2.38 2.198 2.38 1.358 0 2.1-1.064 2.1-2.38Zm15.112-4.088L250.613 13h-1.008l-1.904-6.048L245.797 13h-1.008l-1.96-7.168h1.008l1.512 5.894 1.848-5.894h1.008l1.848 5.894 1.512-5.894h1.008ZM254.222 13V5.832h1.064V13h-1.064Zm-.14-9.058c0-.378.266-.644.672-.644s.672.266.672.644-.266.644-.672.644-.672-.266-.672-.644ZM261.054 13h-.896c-1.372 0-1.946-.686-1.946-1.904V6.7h-1.218v-.868h1.218V3.774h1.064v2.058h1.834V6.7h-1.834v4.396c0 .728.266 1.036 1.064 1.036h.714V13Zm1.793 0V2.78h1.064v4.158c.406-.742 1.148-1.274 2.338-1.274 1.61 0 2.632 1.092 2.632 2.814V13h-1.064V8.632c0-1.218-.546-2.044-1.834-2.044-1.176 0-2.072.714-2.072 2.198V13h-1.064Zm14.737 0h-.896c-1.372 0-1.946-.686-1.946-1.904V6.7h-1.218v-.868h1.218V3.774h1.064v2.058h1.834V6.7h-1.834v4.396c0 .728.266 1.036 1.064 1.036h.714V13Zm1.792 0V2.78h1.064v4.158c.406-.742 1.148-1.274 2.338-1.274 1.61 0 2.632 1.092 2.632 2.814V13h-1.064V8.632c0-1.218-.546-2.044-1.834-2.044-1.176 0-2.072.714-2.072 2.198V13h-1.064Zm11.045.168c-1.862 0-3.164-1.19-3.164-3.122V8.898c0-1.946 1.106-3.234 3.122-3.234 2.044 0 3.038 1.358 3.038 3.122V9.85h-5.138v.252c0 1.246.644 2.254 2.142 2.254 1.078 0 1.736-.574 1.974-1.386h.952c-.238 1.288-1.428 2.198-2.926 2.198Zm-2.142-4.354v.224h4.144v-.336c0-1.274-.644-2.226-2.044-2.226-1.54 0-2.1 1.022-2.1 2.338Zm18.234.07c0 2.366-1.372 4.312-4.116 4.312-2.744 0-4.116-1.946-4.116-4.312V7.316c0-2.366 1.372-4.312 4.116-4.312 2.744 0 4.116 1.946 4.116 4.312v1.568Zm-4.116 3.402c2.086 0 3.024-1.498 3.024-3.346V7.26c0-1.848-.938-3.346-3.024-3.346-2.086 0-3.024 1.498-3.024 3.346v1.68c0 1.848.938 3.346 3.024 3.346Zm6.363.714V3.2h6.468v.91h-5.376v3.472h4.97v.91h-4.97v3.598h5.39V13h-6.482Zm12.202.196c-2.702 0-4.074-1.834-4.074-4.27V7.274c0-2.436 1.372-4.27 4.074-4.27 2.268 0 3.71 1.582 3.864 3.43h-1.05c-.168-1.344-1.064-2.52-2.828-2.52-2.002 0-2.968 1.4-2.968 3.318v1.736c0 1.918.966 3.318 2.968 3.318 1.764 0 2.66-1.176 2.828-2.52h1.05c-.154 1.848-1.596 3.43-3.864 3.43Zm6.037-9.996h3.682c2.492 0 3.864 1.582 3.864 3.766v2.268c0 2.184-1.372 3.766-3.864 3.766h-3.682V3.2Zm3.528 8.904c1.932 0 2.94-1.162 2.94-2.87V6.966c0-1.708-1.008-2.87-2.94-2.87h-2.45v8.008h2.45Zm5.094 2.366 3.948-11.97h.994l-3.948 11.97h-.994ZM214.274 30v-9.8h4.046c2.156 0 3.29 1.386 3.29 3.122 0 1.358-.784 2.506-2.114 2.926L221.624 30h-1.246l-1.988-3.584h-3.024V30h-1.092Zm1.092-4.452h2.814c1.568 0 2.338-.952 2.338-2.226s-.812-2.24-2.338-2.24h-2.814v4.466ZM223.665 30v-7.168h1.064V30h-1.064Zm-.14-9.058c0-.378.266-.644.672-.644s.672.266.672.644-.266.644-.672.644-.672-.266-.672-.644Zm6.399 9.226c-2.044 0-3.206-1.4-3.206-3.164v-1.176c0-1.764 1.176-3.164 3.206-3.164 2.03 0 3.192 1.4 3.192 3.164v1.176c0 1.764-1.162 3.164-3.192 3.164Zm2.17-4.326c0-1.358-.756-2.324-2.17-2.324s-2.17.966-2.17 2.324v1.148c0 1.358.756 2.324 2.17 2.324s2.17-.966 2.17-2.324v-1.148Zm14.672-5.642V30h-1.036v-7.7l-2.702 5.334h-1.036L239.29 22.3V30h-1.036v-9.8h1.022l3.234 6.468 3.234-6.468h1.022Zm8.289 9.8h-1.022v-.896c-.308.504-1.274 1.064-2.464 1.064-1.694 0-2.716-.952-2.716-2.254 0-1.386 1.134-2.24 2.842-2.24 1.134 0 1.89.476 2.296.896v-1.33c0-.98-.644-1.736-1.792-1.736-.91 0-1.498.42-1.792 1.078h-.98c.364-1.19 1.372-1.918 2.786-1.918 1.778 0 2.842 1.162 2.842 2.576V30Zm-3.262-.518c1.12 0 2.198-.658 2.198-1.582 0-.896-1.064-1.526-2.142-1.526-1.19 0-1.988.56-1.988 1.554s.826 1.554 1.932 1.554Zm5.448.518v-7.168h.994v1.652c.266-1.106 1.036-1.694 2.338-1.694h.168v.994h-.21c-1.358 0-2.226.896-2.226 2.702V30h-1.064Zm4.936 0V19.78h1.064v6.426l3.094-3.374h1.33l-3.276 3.458 3.416 3.71h-1.33l-3.234-3.612V30h-1.064Zm9.691.168c-1.862 0-3.164-1.19-3.164-3.122v-1.148c0-1.946 1.106-3.234 3.122-3.234 2.044 0 3.038 1.358 3.038 3.122v1.064h-5.138v.252c0 1.246.644 2.254 2.142 2.254 1.078 0 1.736-.574 1.974-1.386h.952c-.238 1.288-1.428 2.198-2.926 2.198Zm-2.142-4.354v.224h4.144v-.336c0-1.274-.644-2.226-2.044-2.226-1.54 0-2.1 1.022-2.1 2.338Zm7.08 4.186v-7.168h.994v1.652c.266-1.106 1.036-1.694 2.338-1.694h.168v.994h-.21c-1.358 0-2.226.896-2.226 2.702V30h-1.064Zm7.499.168c-1.736 0-2.968-.868-2.968-2.254v-.07h.966v.042c0 .896.84 1.484 2.016 1.484 1.106 0 1.904-.434 1.904-1.358 0-.504-.322-.868-.896-.994l-2.128-.49c-1.064-.238-1.68-.882-1.68-1.82 0-1.344 1.134-2.044 2.716-2.044 1.498 0 2.66.91 2.66 2.24v.07h-.966v-.042c0-.882-.644-1.47-1.708-1.47-.994 0-1.722.42-1.722 1.218 0 .49.238.798.756.924l2.198.518c1.106.266 1.764.812 1.764 1.848 0 1.274-1.232 2.198-2.912 2.198Zm8.317-.168v-6.3h-1.05v-.868h1.05v-.952c0-1.386.616-2.1 2.072-2.1h1.008v.868h-.924c-.756 0-1.092.35-1.092 1.148v1.036h1.764v.868h-1.764V30h-1.064Zm4.494 0v-7.168h1.064V30h-1.064Zm-.14-9.058c0-.378.266-.644.672-.644s.672.266.672.644-.266.644-.672.644-.672-.266-.672-.644Zm6.421 11.662c-1.428 0-2.716-.658-3.108-1.834h1.05c.392.686 1.078.994 2.058.994 1.246 0 2.1-.7 2.1-1.792v-1.624c-.224.658-1.204 1.358-2.408 1.358-1.862 0-2.926-1.33-2.926-2.926v-1.19c0-1.624 1.05-2.926 2.94-2.926 1.344 0 2.142.728 2.436 1.358v-1.19h1.022V30c0 1.484-1.344 2.604-3.164 2.604Zm-.098-3.766c1.218 0 2.198-.812 2.198-2.17v-.924c0-1.218-.924-2.212-2.156-2.212-1.4 0-2.128.77-2.128 2.142v1.022c0 1.344.714 2.142 2.086 2.142Zm11.42-6.006V30h-1.008v-1.218c-.336.812-1.148 1.386-2.394 1.386-1.568 0-2.562-1.092-2.562-2.814v-4.522h1.064V27.2c0 1.218.532 2.072 1.764 2.072 1.176 0 2.072-.742 2.072-2.226v-4.214h1.064ZM316.988 30v-7.168h.994v1.652c.266-1.106 1.036-1.694 2.338-1.694h.168v.994h-.21c-1.358 0-2.226.896-2.226 2.702V30h-1.064Zm7.64.168c-1.862 0-3.164-1.19-3.164-3.122v-1.148c0-1.946 1.106-3.234 3.122-3.234 2.044 0 3.038 1.358 3.038 3.122v1.064h-5.138v.252c0 1.246.644 2.254 2.142 2.254 1.078 0 1.736-.574 1.974-1.386h.952c-.238 1.288-1.428 2.198-2.926 2.198Zm-2.142-4.354v.224h4.144v-.336c0-1.274-.644-2.226-2.044-2.226-1.54 0-2.1 1.022-2.1 2.338Zm9.712 4.354c-1.736 0-2.968-.868-2.968-2.254v-.07h.966v.042c0 .896.84 1.484 2.016 1.484 1.106 0 1.904-.434 1.904-1.358 0-.504-.322-.868-.896-.994l-2.128-.49c-1.064-.238-1.68-.882-1.68-1.82 0-1.344 1.134-2.044 2.716-2.044 1.498 0 2.66.91 2.66 2.24v.07h-.966v-.042c0-.882-.644-1.47-1.708-1.47-.994 0-1.722.42-1.722 1.218 0 .49.238.798.756.924l2.198.518c1.106.266 1.764.812 1.764 1.848 0 1.274-1.232 2.198-2.912 2.198ZM348.133 71.103a.5.5 0 0 0 .414.573l4.443.715a.5.5 0 1 0 .159-.987l-3.949-.636.635-3.95a.5.5 0 1 0-.987-.158l-.715 4.443Zm-.344-46.463c9.211 4.299 13.885 12.529 14.003 21.327.117 8.808-4.335 18.216-13.458 24.81l.586.81c9.367-6.77 13.994-16.475 13.872-25.633-.123-9.166-5.007-17.752-14.58-22.22l-.423.905Z" />
  <path fill="#01FFD8" d="M213 298h177v177H213z" />
  <path fill="#fff"
    d="M217.96 503.224c-1.856 0-3.44-1.088-3.792-2.976h1.168c.32 1.152 1.216 1.968 2.624 1.968 1.728 0 2.832-1.168 2.832-2.752 0-1.504-1.088-2.72-2.672-2.72-1.168 0-2.016.592-2.544 1.312h-1.168l1.056-6.256h5.584v1.008h-4.608l-.704 4.016c.512-.624 1.52-1.088 2.624-1.088 2.112 0 3.632 1.616 3.632 3.696 0 2.144-1.696 3.792-4.032 3.792Zm10.064 0c-2.464 0-3.92-1.6-3.92-3.728v-4.192c0-2.128 1.456-3.728 3.92-3.728s3.92 1.6 3.92 3.728v4.192c0 2.128-1.456 3.728-3.92 3.728Zm0-1.008c1.744 0 2.688-1.088 2.688-2.672v-4.288c0-1.584-.944-2.672-2.688-2.672-1.744 0-2.688 1.088-2.688 2.672v4.288c0 1.584.944 2.672 2.688 2.672Zm8.431-4.352c-1.488 0-2.416-.992-2.416-2.4v-1.392c0-1.408.928-2.4 2.416-2.4s2.416.992 2.416 2.4v1.392c0 1.408-.928 2.4-2.416 2.4Zm0-.768c.976 0 1.504-.64 1.504-1.568v-1.52c0-.928-.528-1.568-1.504-1.568s-1.504.64-1.504 1.568v1.52c0 .928.528 1.568 1.504 1.568Zm6.88 6.032c-1.488 0-2.416-.992-2.416-2.4v-1.392c0-1.408.928-2.4 2.416-2.4s2.416.992 2.416 2.4v1.392c0 1.408-.928 2.4-2.416 2.4Zm0-.768c.976 0 1.504-.64 1.504-1.568v-1.52c0-.928-.528-1.568-1.504-1.568s-1.504.64-1.504 1.568v1.52c0 .928.528 1.568 1.504 1.568Zm-6.8.64 5.808-11.2h.928l-5.808 11.2h-.928Zm14.917 0v-8.192h1.152v1.392c.384-.928 1.28-1.584 2.704-1.584 1.216 0 2.144.608 2.608 1.6.56-.96 1.552-1.6 2.976-1.6 1.792 0 2.944 1.28 2.944 3.216V503h-1.216v-4.992c0-1.392-.688-2.336-2.032-2.336s-2.336.816-2.336 2.512V503h-1.216v-4.992c0-1.392-.688-2.336-2.032-2.336s-2.336.816-2.336 2.512V503h-1.216Zm18.155.192c-2.336 0-3.664-1.6-3.664-3.616v-1.344c0-2.016 1.344-3.616 3.664-3.616 2.32 0 3.648 1.6 3.648 3.616v1.344c0 2.016-1.328 3.616-3.648 3.616Zm2.48-4.944c0-1.552-.864-2.656-2.48-2.656s-2.48 1.104-2.48 2.656v1.312c0 1.552.864 2.656 2.48 2.656s2.48-1.104 2.48-2.656v-1.312Zm3.365 4.752v-8.192h1.136v1.888c.304-1.264 1.184-1.936 2.672-1.936h.192v1.136h-.24c-1.552 0-2.544 1.024-2.544 3.088V503h-1.216Zm8.732.192c-2.128 0-3.616-1.36-3.616-3.568v-1.312c0-2.224 1.264-3.696 3.568-3.696 2.336 0 3.472 1.552 3.472 3.568v1.216h-5.872v.288c0 1.424.736 2.576 2.448 2.576 1.232 0 1.984-.656 2.256-1.584h1.088c-.272 1.472-1.632 2.512-3.344 2.512Zm-2.448-4.976v.256h4.736v-.384c0-1.456-.736-2.544-2.336-2.544-1.76 0-2.4 1.168-2.4 2.672Zm18.343-3.408V503h-1.152v-1.392c-.384.928-1.312 1.584-2.736 1.584-1.792 0-2.928-1.248-2.928-3.216v-5.168h1.216v4.992c0 1.392.608 2.368 2.016 2.368 1.344 0 2.368-.848 2.368-2.544v-4.816h1.216Zm5.6 8.384c-1.984 0-3.392-.992-3.392-2.576v-.08h1.104v.048c0 1.024.96 1.696 2.304 1.696 1.264 0 2.176-.496 2.176-1.552 0-.576-.368-.992-1.024-1.136l-2.432-.56c-1.216-.272-1.92-1.008-1.92-2.08 0-1.536 1.296-2.336 3.104-2.336 1.712 0 3.04 1.04 3.04 2.56v.08h-1.104v-.048c0-1.008-.736-1.68-1.952-1.68-1.136 0-1.968.48-1.968 1.392 0 .56.272.912.864 1.056l2.512.592c1.264.304 2.016.928 2.016 2.112 0 1.456-1.408 2.512-3.328 2.512Zm5.494-.192v-8.192h1.216V503h-1.216Zm-.16-10.352c0-.432.304-.736.768-.736s.768.304.768.736-.304.736-.768.736-.768-.304-.768-.736ZM315.062 503v-8.192h1.152v1.392c.384-.928 1.312-1.584 2.736-1.584 1.84 0 3.008 1.248 3.008 3.216V503h-1.216v-4.992c0-1.392-.624-2.336-2.096-2.336-1.344 0-2.368.816-2.368 2.512V503h-1.216Zm12.702 2.976c-1.632 0-3.104-.752-3.552-2.096h1.2c.448.784 1.232 1.136 2.352 1.136 1.424 0 2.4-.8 2.4-2.048v-1.856c-.256.752-1.376 1.552-2.752 1.552-2.128 0-3.344-1.52-3.344-3.344v-1.36c0-1.856 1.2-3.344 3.36-3.344 1.536 0 2.448.832 2.784 1.552v-1.36h1.168V503c0 1.696-1.536 2.976-3.616 2.976Zm-.112-4.304c1.392 0 2.512-.928 2.512-2.48v-1.056c0-1.392-1.056-2.528-2.464-2.528-1.6 0-2.432.88-2.432 2.448v1.168c0 1.536.816 2.448 2.384 2.448ZM341.404 503h-1.024c-1.568 0-2.224-.784-2.224-2.176V495.8h-1.392v-.992h1.392v-2.352h1.216v2.352h2.096v.992h-2.096v5.024c0 .832.304 1.184 1.216 1.184h.816V503Zm2.048 0v-11.68h1.216v4.752c.464-.848 1.312-1.456 2.672-1.456 1.84 0 3.008 1.248 3.008 3.216V503h-1.216v-4.992c0-1.392-.624-2.336-2.096-2.336-1.344 0-2.368.816-2.368 2.512V503h-1.216Zm12.623.192c-2.128 0-3.616-1.36-3.616-3.568v-1.312c0-2.224 1.264-3.696 3.568-3.696 2.336 0 3.472 1.552 3.472 3.568v1.216h-5.872v.288c0 1.424.736 2.576 2.448 2.576 1.232 0 1.984-.656 2.256-1.584h1.088c-.272 1.472-1.632 2.512-3.344 2.512Zm-2.448-4.976v.256h4.736v-.384c0-1.456-.736-2.544-2.336-2.544-1.76 0-2.4 1.168-2.4 2.672ZM220.584 522l-1.904-3.328h-1.808V522h-2.752v-11.2h5.264c2.72 0 4.192 1.664 4.192 3.952 0 1.6-.784 2.848-2.08 3.472l2.288 3.776h-3.2Zm.24-7.216c0-1.072-.608-1.776-1.76-1.776h-2.192v3.488h2.192c1.152 0 1.76-.688 1.76-1.712Zm7.248 7.216h-2.688v-8.384h2.688V522Zm-2.832-10.528c0-.848.592-1.392 1.488-1.392s1.488.544 1.488 1.392c0 .848-.592 1.392-1.488 1.392s-1.488-.544-1.488-1.392Zm12.637 5.776v1.12c0 2.208-1.472 3.824-4.08 3.824s-4.08-1.616-4.08-3.824v-1.12c0-2.208 1.472-3.824 4.08-3.824s4.08 1.616 4.08 3.824Zm-2.608-.144c0-.848-.448-1.552-1.472-1.552s-1.472.704-1.472 1.552v1.408c0 .848.448 1.552 1.472 1.552s1.472-.704 1.472-1.552v-1.408Zm13.323-.208 2.96-6.096h2.528V522h-2.64v-5.92l-1.76 3.424h-2.176l-1.744-3.424V522h-2.64v-11.2h2.528l2.944 6.096ZM264.003 522h-2.576v-.704c-.48.56-1.392.896-2.48.896-1.92 0-3.072-1.104-3.072-2.64 0-1.728 1.296-2.608 3.248-2.608 1.008 0 1.776.288 2.192.624v-.976c0-.624-.416-1.088-1.168-1.088-.56 0-.992.192-1.216.608h-2.448c.352-1.68 1.776-2.688 3.744-2.688 2.384 0 3.776 1.296 3.776 3.36V522Zm-4.16-1.52c.816 0 1.472-.416 1.472-.976s-.608-.976-1.44-.976c-.912 0-1.488.32-1.488.976 0 .64.608.976 1.456.976Zm10.968-6.928v2.64h-.352c-1.248 0-1.92.512-1.92 1.968V522h-2.688v-8.384h2.544v1.472c.256-1.248 1.088-1.536 2.288-1.536h.128Zm3.993 8.448h-2.688v-11.68h2.688v7.184l2.144-3.888h2.992l-2.4 4.112 2.48 4.272h-2.992l-2.224-4.032V522Zm13.612-3.344H283.2v.192c0 .832.496 1.456 1.44 1.456.752 0 1.184-.384 1.36-.8h2.368c-.288 1.552-1.824 2.688-3.728 2.688-2.416 0-4.032-1.392-4.032-3.792v-1.04c0-2.336 1.424-3.936 3.968-3.936s3.84 1.696 3.84 3.696v1.536Zm-5.216-1.744v.176h2.752v-.304c0-.832-.416-1.456-1.36-1.456-.976 0-1.392.624-1.392 1.584Zm11.814-3.36v2.64h-.352c-1.248 0-1.92.512-1.92 1.968V522h-2.688v-8.384h2.544v1.472c.256-1.248 1.088-1.536 2.288-1.536h.128Zm8.393 5.712c0 1.68-1.504 2.928-3.744 2.928-2.224 0-3.696-.992-3.696-2.688v-.176h2.368v.112c0 .592.544.896 1.344.896.72 0 1.264-.256 1.264-.736 0-.304-.144-.48-.56-.576l-2.32-.528c-1.296-.288-1.968-1.072-1.968-2.256 0-1.808 1.44-2.816 3.472-2.816 1.984 0 3.408 1.024 3.408 2.704v.144h-2.32v-.144c0-.512-.304-.848-1.056-.848-.688 0-1.008.224-1.008.688 0 .32.16.48.528.56l2.448.592c1.136.272 1.84.992 1.84 2.144Z" />
  <path fill="#212529"
    d="M244.824 329.056c0 3.296-2.272 5.792-5.504 6.624v3.84h-5.28v-3.808c-3.552-.768-5.504-3.168-5.504-6.624v-.48h5.184v.512c0 1.792 1.12 2.688 2.976 2.688 1.664 0 2.816-.832 2.816-2.368 0-1.024-.544-1.696-1.664-2.08l-3.872-1.312c-3.36-1.152-5.28-2.496-5.28-5.984 0-3.456 2.208-5.472 5.216-6.176v-3.808h5.28v3.84c3.04.768 5.056 2.912 5.056 6.176v.544h-5.12v-.448c0-1.472-.928-2.304-2.624-2.304-1.536 0-2.528.608-2.528 1.888 0 1.024.704 1.376 1.664 1.728l3.648 1.28c2.976 1.056 5.536 2.464 5.536 6.272ZM257.166 336h-5.44v-16.928l-4.832 1.568v-4.8l5.76-2.24h4.512V336Zm10.237-22.4h4.928l-6.208 13.888h4.608v-4.512h4.991v4.512h2.721v4.096h-2.721V336h-4.991v-4.416h-9.888v-3.936l6.56-14.048Zm19.107 7.296h-5.216v-.672c0-4.64 3.04-7.072 7.84-7.072 4.832 0 8.064 2.688 8.064 6.848 0 3.456-2.336 5.568-4.768 7.616l-4.64 3.936h9.184V336H281.07v-4.128l8.832-8.448c1.152-1.12 1.856-2.112 1.856-3.392 0-1.568-1.088-2.432-2.592-2.432-1.824 0-2.656 1.088-2.656 2.88v.416Zm25.643 4.896 5.92-12.192h5.056V336h-5.28v-11.84l-3.52 6.848h-4.352l-3.488-6.848V336h-5.28v-22.4h5.056l5.888 12.192Z" />
</svg>