<svg xmlns="http://www.w3.org/2000/svg" width="879" height="277" fill="none">
  <path fill="#212529" d="M0 0h878.746v277H0z" />
  <path fill="#fff"
    d="M705.27 251.238c-1.972 0-3.655-1.156-4.029-3.162h1.241c.34 1.224 1.292 2.091 2.788 2.091 1.836 0 3.009-1.241 3.009-2.924 0-1.598-1.156-2.89-2.839-2.89-1.241 0-2.142.629-2.703 1.394h-1.241l1.122-6.647h5.933v1.071h-4.896l-.748 4.267c.544-.663 1.615-1.156 2.788-1.156 2.244 0 3.859 1.717 3.859 3.927 0 2.278-1.802 4.029-4.284 4.029Zm10.693 0c-2.618 0-4.165-1.7-4.165-3.961v-4.454c0-2.261 1.547-3.961 4.165-3.961 2.618 0 4.165 1.7 4.165 3.961v4.454c0 2.261-1.547 3.961-4.165 3.961Zm0-1.071c1.853 0 2.856-1.156 2.856-2.839v-4.556c0-1.683-1.003-2.839-2.856-2.839s-2.856 1.156-2.856 2.839v4.556c0 1.683 1.003 2.839 2.856 2.839Zm8.957-4.624c-1.581 0-2.567-1.054-2.567-2.55v-1.479c0-1.496.986-2.55 2.567-2.55 1.581 0 2.567 1.054 2.567 2.55v1.479c0 1.496-.986 2.55-2.567 2.55Zm0-.816c1.037 0 1.598-.68 1.598-1.666v-1.615c0-.986-.561-1.666-1.598-1.666s-1.598.68-1.598 1.666v1.615c0 .986.561 1.666 1.598 1.666Zm7.31 6.409c-1.581 0-2.567-1.054-2.567-2.55v-1.479c0-1.496.986-2.55 2.567-2.55 1.581 0 2.567 1.054 2.567 2.55v1.479c0 1.496-.986 2.55-2.567 2.55Zm0-.816c1.037 0 1.598-.68 1.598-1.666v-1.615c0-.986-.561-1.666-1.598-1.666s-1.598.68-1.598 1.666v1.615c0 .986.561 1.666 1.598 1.666Zm-7.225.68 6.171-11.9h.986l-6.171 11.9h-.986Zm15.851 0v-8.704h1.224v1.479c.408-.986 1.36-1.683 2.873-1.683 1.292 0 2.278.646 2.771 1.7.595-1.02 1.649-1.7 3.162-1.7 1.904 0 3.128 1.36 3.128 3.417V251h-1.292v-5.304c0-1.479-.731-2.482-2.159-2.482s-2.482.867-2.482 2.669V251h-1.292v-5.304c0-1.479-.731-2.482-2.159-2.482s-2.482.867-2.482 2.669V251h-1.292Zm19.289.204c-2.482 0-3.893-1.7-3.893-3.842v-1.428c0-2.142 1.428-3.842 3.893-3.842s3.876 1.7 3.876 3.842v1.428c0 2.142-1.411 3.842-3.876 3.842Zm2.635-5.253c0-1.649-.918-2.822-2.635-2.822-1.717 0-2.635 1.173-2.635 2.822v1.394c0 1.649.918 2.822 2.635 2.822 1.717 0 2.635-1.173 2.635-2.822v-1.394Zm3.576 5.049v-8.704h1.207v2.006c.323-1.343 1.258-2.057 2.839-2.057h.204v1.207h-.255c-1.649 0-2.703 1.088-2.703 3.281V251h-1.292Zm9.277.204c-2.261 0-3.842-1.445-3.842-3.791v-1.394c0-2.363 1.343-3.927 3.791-3.927 2.482 0 3.689 1.649 3.689 3.791v1.292h-6.239v.306c0 1.513.782 2.737 2.601 2.737 1.309 0 2.108-.697 2.397-1.683h1.156c-.289 1.564-1.734 2.669-3.553 2.669Zm-2.601-5.287v.272h5.032v-.408c0-1.547-.782-2.703-2.482-2.703-1.87 0-2.55 1.241-2.55 2.839Zm19.489-3.621V251h-1.224v-1.479c-.408.986-1.394 1.683-2.907 1.683-1.904 0-3.111-1.326-3.111-3.417v-5.491h1.292v5.304c0 1.479.646 2.516 2.142 2.516 1.428 0 2.516-.901 2.516-2.703v-5.117h1.292Zm5.95 8.908c-2.108 0-3.604-1.054-3.604-2.737v-.085h1.173v.051c0 1.088 1.02 1.802 2.448 1.802 1.343 0 2.312-.527 2.312-1.649 0-.612-.391-1.054-1.088-1.207l-2.584-.595c-1.292-.289-2.04-1.071-2.04-2.21 0-1.632 1.377-2.482 3.298-2.482 1.819 0 3.23 1.105 3.23 2.72v.085h-1.173v-.051c0-1.071-.782-1.785-2.074-1.785-1.207 0-2.091.51-2.091 1.479 0 .595.289.969.918 1.122l2.669.629c1.343.323 2.142.986 2.142 2.244 0 1.547-1.496 2.669-3.536 2.669Zm5.838-.204v-8.704h1.292V251h-1.292Zm-.17-10.999c0-.459.323-.782.816-.782.493 0 .816.323.816.782s-.323.782-.816.782c-.493 0-.816-.323-.816-.782ZM808.44 251v-8.704h1.224v1.479c.408-.986 1.394-1.683 2.907-1.683 1.955 0 3.196 1.326 3.196 3.417V251h-1.292v-5.304c0-1.479-.663-2.482-2.227-2.482-1.428 0-2.516.867-2.516 2.669V251h-1.292Zm13.497 3.162c-1.734 0-3.298-.799-3.774-2.227h1.275c.476.833 1.309 1.207 2.499 1.207 1.513 0 2.55-.85 2.55-2.176v-1.972c-.272.799-1.462 1.649-2.924 1.649-2.261 0-3.553-1.615-3.553-3.553v-1.445c0-1.972 1.275-3.553 3.57-3.553 1.632 0 2.601.884 2.958 1.649v-1.445h1.241V251c0 1.802-1.632 3.162-3.842 3.162Zm-.119-4.573c1.479 0 2.669-.986 2.669-2.635v-1.122c0-1.479-1.122-2.686-2.618-2.686-1.7 0-2.584.935-2.584 2.601v1.241c0 1.632.867 2.601 2.533 2.601ZM836.429 251h-1.088c-1.666 0-2.363-.833-2.363-2.312v-5.338h-1.479v-1.054h1.479v-2.499h1.292v2.499h2.227v1.054h-2.227v5.338c0 .884.323 1.258 1.292 1.258h.867V251Zm2.177 0v-12.41h1.292v5.049c.493-.901 1.394-1.547 2.839-1.547 1.955 0 3.196 1.326 3.196 3.417V251h-1.292v-5.304c0-1.479-.663-2.482-2.227-2.482-1.428 0-2.516.867-2.516 2.669V251h-1.292Zm13.411.204c-2.261 0-3.842-1.445-3.842-3.791v-1.394c0-2.363 1.343-3.927 3.791-3.927 2.482 0 3.689 1.649 3.689 3.791v1.292h-6.239v.306c0 1.513.782 2.737 2.601 2.737 1.309 0 2.108-.697 2.397-1.683h1.156c-.289 1.564-1.734 2.669-3.553 2.669Zm-2.601-5.287v.272h5.032v-.408c0-1.547-.782-2.703-2.482-2.703-1.87 0-2.55 1.241-2.55 2.839ZM701.547 271v-11.9h4.913c2.618 0 3.995 1.683 3.995 3.791 0 1.649-.952 3.043-2.567 3.553l2.584 4.556h-1.513l-2.414-4.352h-3.672V271h-1.326Zm1.326-5.406h3.417c1.904 0 2.839-1.156 2.839-2.703s-.986-2.72-2.839-2.72h-3.417v5.423ZM712.95 271v-8.704h1.292V271h-1.292Zm-.17-10.999c0-.459.323-.782.816-.782.493 0 .816.323.816.782s-.323.782-.816.782c-.493 0-.816-.323-.816-.782Zm7.77 11.203c-2.482 0-3.893-1.7-3.893-3.842v-1.428c0-2.142 1.428-3.842 3.893-3.842s3.876 1.7 3.876 3.842v1.428c0 2.142-1.411 3.842-3.876 3.842Zm2.635-5.253c0-1.649-.918-2.822-2.635-2.822-1.717 0-2.635 1.173-2.635 2.822v1.394c0 1.649.918 2.822 2.635 2.822 1.717 0 2.635-1.173 2.635-2.822v-1.394Zm17.817-6.851V271h-1.258v-9.35l-3.281 6.477h-1.258l-3.281-6.477V271h-1.258v-11.9h1.241l3.927 7.854 3.927-7.854h1.241Zm10.065 11.9h-1.241v-1.088c-.374.612-1.547 1.292-2.992 1.292-2.057 0-3.298-1.156-3.298-2.737 0-1.683 1.377-2.72 3.451-2.72 1.377 0 2.295.578 2.788 1.088v-1.615c0-1.19-.782-2.108-2.176-2.108-1.105 0-1.819.51-2.176 1.309h-1.19c.442-1.445 1.666-2.329 3.383-2.329 2.159 0 3.451 1.411 3.451 3.128V271Zm-3.961-.629c1.36 0 2.669-.799 2.669-1.921 0-1.088-1.292-1.853-2.601-1.853-1.445 0-2.414.68-2.414 1.887 0 1.207 1.003 1.887 2.346 1.887Zm6.616.629v-8.704h1.207v2.006c.323-1.343 1.258-2.057 2.839-2.057h.204v1.207h-.255c-1.649 0-2.703 1.088-2.703 3.281V271h-1.292Zm5.993 0v-12.41h1.292v7.803l3.757-4.097h1.615l-3.978 4.199 4.148 4.505h-1.615l-3.927-4.386V271h-1.292Zm11.767.204c-2.261 0-3.842-1.445-3.842-3.791v-1.394c0-2.363 1.343-3.927 3.791-3.927 2.482 0 3.689 1.649 3.689 3.791v1.292h-6.239v.306c0 1.513.782 2.737 2.601 2.737 1.309 0 2.108-.697 2.397-1.683h1.156c-.289 1.564-1.734 2.669-3.553 2.669Zm-2.601-5.287v.272h5.032v-.408c0-1.547-.782-2.703-2.482-2.703-1.87 0-2.55 1.241-2.55 2.839Zm8.598 5.083v-8.704h1.207v2.006c.323-1.343 1.258-2.057 2.839-2.057h.204v1.207h-.255c-1.649 0-2.703 1.088-2.703 3.281V271h-1.292Zm9.106.204c-2.108 0-3.604-1.054-3.604-2.737v-.085h1.173v.051c0 1.088 1.02 1.802 2.448 1.802 1.343 0 2.312-.527 2.312-1.649 0-.612-.391-1.054-1.088-1.207l-2.584-.595c-1.292-.289-2.04-1.071-2.04-2.21 0-1.632 1.377-2.482 3.298-2.482 1.819 0 3.23 1.105 3.23 2.72v.085h-1.173v-.051c0-1.071-.782-1.785-2.074-1.785-1.207 0-2.091.51-2.091 1.479 0 .595.289.969.918 1.122l2.669.629c1.343.323 2.142.986 2.142 2.244 0 1.547-1.496 2.669-3.536 2.669Z" />
  <path fill="#01FFD8" d="M700 45h178.746v178.746H700z" />
  <path fill="#212529"
    d="M733.824 197.056c0 3.296-2.272 5.792-5.504 6.624v3.84h-5.28v-3.808c-3.552-.768-5.504-3.168-5.504-6.624v-.48h5.184v.512c0 1.792 1.12 2.688 2.976 2.688 1.664 0 2.816-.832 2.816-2.368 0-1.024-.544-1.696-1.664-2.08l-3.872-1.312c-3.36-1.152-5.28-2.496-5.28-5.984 0-3.456 2.208-5.472 5.216-6.176v-3.808h5.28v3.84c3.04.768 5.056 2.912 5.056 6.176v.544h-5.12v-.448c0-1.472-.928-2.304-2.624-2.304-1.536 0-2.528.608-2.528 1.888 0 1.024.704 1.376 1.664 1.728l3.648 1.28c2.976 1.056 5.536 2.464 5.536 6.272ZM746.166 204h-5.44v-16.928l-4.832 1.568v-4.8l5.76-2.24h4.512V204Zm10.237-22.4h4.928l-6.208 13.888h4.608v-4.512h4.991v4.512h2.721v4.096h-2.721V204h-4.991v-4.416h-9.888v-3.936l6.56-14.048Zm19.107 7.296h-5.216v-.672c0-4.64 3.04-7.072 7.84-7.072 4.832 0 8.064 2.688 8.064 6.848 0 3.456-2.336 5.568-4.768 7.616l-4.64 3.936h9.184V204H770.07v-4.128l8.832-8.448c1.152-1.12 1.856-2.112 1.856-3.392 0-1.568-1.088-2.432-2.592-2.432-1.824 0-2.656 1.088-2.656 2.88v.416Zm25.643 4.896 5.92-12.192h5.056V204h-5.28v-11.84l-3.52 6.848h-4.352l-3.488-6.848V204h-5.28v-22.4h5.056l5.888 12.192Z" />
  <path fill="#595C5F" d="M0 45h178.746v178.746H0z" />
  <path fill="#EDB83A" d="M0 78.2h145.43v145.43H0z" />
  <path fill="#212529"
    d="M30.824 199.056c0 3.296-2.272 5.792-5.504 6.624v3.84h-5.28v-3.808c-3.552-.768-5.504-3.168-5.504-6.624v-.48h5.184v.512c0 1.792 1.12 2.688 2.976 2.688 1.664 0 2.816-.832 2.816-2.368 0-1.024-.544-1.696-1.664-2.08l-3.872-1.312c-3.36-1.152-5.28-2.496-5.28-5.984 0-3.456 2.208-5.472 5.216-6.176v-3.808h5.28v3.84c3.04.768 5.056 2.912 5.056 6.176v.544h-5.12v-.448c0-1.472-.928-2.304-2.624-2.304-1.536 0-2.528.608-2.528 1.888 0 1.024.704 1.376 1.664 1.728l3.648 1.28c2.976 1.056 5.536 2.464 5.536 6.272ZM42.878 206h-5.92l5.856-8.032c-.736.48-1.44.672-2.592.672-3.712 0-7.008-2.72-7.008-7.552 0-4.704 3.456-7.936 8.608-7.936 5.344 0 8.8 3.104 8.8 7.968 0 2.816-.896 5.088-1.984 6.624L42.878 206Zm-.992-11.488c2.112 0 3.36-1.408 3.36-3.488 0-2.016-1.088-3.552-3.36-3.552-2.016 0-3.36 1.408-3.36 3.52 0 2.048 1.184 3.52 3.36 3.52ZM59.184 183.6h4.928l-6.208 13.888h4.608v-4.512h4.992v4.512h2.72v4.096h-2.72V206h-4.992v-4.416h-9.888v-3.936l6.56-14.048Zm25.188 12.192 5.92-12.192h5.055V206h-5.28v-11.84l-3.52 6.848h-4.352l-3.487-6.848V206h-5.28v-22.4h5.056l5.888 12.192Z" />
  <path fill="#EDB83A"
    d="M15.079 239.1 12.257 251h-1.275l-3.145-10.455L4.692 251H3.417L.595 239.1H1.87l2.244 10.132 3.06-10.132H8.5l3.06 10.132 2.244-10.132h1.275Zm1.97 11.9v-12.41h1.292v5.049c.493-.901 1.394-1.547 2.839-1.547 1.955 0 3.196 1.326 3.196 3.417V251h-1.292v-5.304c0-1.479-.663-2.482-2.227-2.482-1.428 0-2.516.867-2.516 2.669V251h-1.292Zm17.134 0h-1.241v-1.088c-.374.612-1.547 1.292-2.992 1.292-2.057 0-3.298-1.156-3.298-2.737 0-1.683 1.377-2.72 3.451-2.72 1.377 0 2.295.578 2.788 1.088v-1.615c0-1.19-.782-2.108-2.176-2.108-1.105 0-1.819.51-2.176 1.309h-1.19c.442-1.445 1.666-2.329 3.383-2.329 2.159 0 3.451 1.411 3.451 3.128V251Zm-3.961-.629c1.36 0 2.669-.799 2.669-1.921 0-1.088-1.292-1.853-2.601-1.853-1.445 0-2.414.68-2.414 1.887 0 1.207 1.003 1.887 2.346 1.887Zm10.665.629h-1.088c-1.666 0-2.363-.833-2.363-2.312v-5.338h-1.48v-1.054h1.48v-2.499h1.292v2.499h2.227v1.054h-2.227v5.338c0 .884.323 1.258 1.292 1.258h.867V251Zm9.346.204c-2.414 0-3.86-1.632-3.86-3.825v-1.462c0-2.193 1.446-3.825 3.86-3.825 2.193 0 3.62 1.428 3.723 3.264H52.8c-.17-1.173-.901-2.244-2.55-2.244-1.785 0-2.618 1.156-2.618 2.788v1.496c0 1.632.833 2.788 2.618 2.788 1.649 0 2.38-1.071 2.55-2.244h1.156c-.102 1.836-1.53 3.264-3.723 3.264Zm9.547 0c-2.482 0-3.893-1.7-3.893-3.842v-1.428c0-2.142 1.428-3.842 3.893-3.842s3.876 1.7 3.876 3.842v1.428c0 2.142-1.411 3.842-3.876 3.842Zm2.635-5.253c0-1.649-.918-2.822-2.635-2.822-1.717 0-2.635 1.173-2.635 2.822v1.394c0 1.649.918 2.822 2.635 2.822 1.717 0 2.635-1.173 2.635-2.822v-1.394Zm10.732-3.655V251h-1.224v-1.479c-.408.986-1.394 1.683-2.907 1.683-1.904 0-3.11-1.326-3.11-3.417v-5.491h1.291v5.304c0 1.479.646 2.516 2.142 2.516 1.428 0 2.516-.901 2.516-2.703v-5.117h1.292ZM75.901 251v-8.704h1.224v1.479c.408-.986 1.394-1.683 2.907-1.683 1.955 0 3.196 1.326 3.196 3.417V251h-1.292v-5.304c0-1.479-.663-2.482-2.227-2.482-1.428 0-2.516.867-2.516 2.669V251h-1.292Zm14.077 0H88.89c-1.666 0-2.364-.833-2.364-2.312v-5.338h-1.478v-1.054h1.478v-2.499h1.293v2.499h2.227v1.054h-2.228v5.338c0 .884.323 1.258 1.293 1.258h.867V251Zm2.176 0v-8.704h1.207v2.006c.323-1.343 1.258-2.057 2.84-2.057h.203v1.207h-.255c-1.649 0-2.703 1.088-2.703 3.281V251h-1.292Zm8.84 2.958h-1.258l1.105-2.958-3.247-8.704h1.275l2.652 7.395 2.55-7.395h1.275L102.133 251l-1.139 2.958Zm14.97-14.858 4.471 11.9h-1.309l-1.088-3.026h-5.491L111.476 251h-1.309l4.471-11.9h1.326Zm-.663 1.207-2.38 6.613h4.743l-2.363-6.613ZM126.188 251v-8.704h1.207v2.006c.323-1.343 1.258-2.057 2.839-2.057h.204v1.207h-.255c-1.649 0-2.703 1.088-2.703 3.281V251h-1.292Zm9.277.204c-2.261 0-3.842-1.445-3.842-3.791v-1.394c0-2.363 1.343-3.927 3.791-3.927 2.482 0 3.689 1.649 3.689 3.791v1.292h-6.239v.306c0 1.513.782 2.737 2.601 2.737 1.309 0 2.108-.697 2.397-1.683h1.156c-.289 1.564-1.734 2.669-3.553 2.669Zm-2.601-5.287v.272h5.032v-.408c0-1.547-.782-2.703-2.482-2.703-1.87 0-2.55 1.241-2.55 2.839Zm9.889 8.041h-1.292v-11.662h1.224v1.36c.374-.799 1.496-1.564 2.941-1.564 2.329 0 3.638 1.683 3.638 3.893v1.326c0 2.261-1.411 3.893-3.604 3.893-1.36 0-2.38-.612-2.907-1.496v4.25Zm5.219-6.698v-1.224c0-1.598-.765-2.89-2.567-2.89-1.717 0-2.652 1.309-2.652 2.992v1.122c0 1.785 1.224 2.89 2.669 2.89 1.649 0 2.55-1.292 2.55-2.89Zm7.084 3.944c-2.482 0-3.893-1.7-3.893-3.842v-1.428c0-2.142 1.428-3.842 3.893-3.842s3.876 1.7 3.876 3.842v1.428c0 2.142-1.411 3.842-3.876 3.842Zm2.635-5.253c0-1.649-.918-2.822-2.635-2.822-1.717 0-2.635 1.173-2.635 2.822v1.394c0 1.649.918 2.822 2.635 2.822 1.717 0 2.635-1.173 2.635-2.822v-1.394Zm3.576 5.049v-8.704h1.207v2.006c.323-1.343 1.258-2.057 2.839-2.057h.204v1.207h-.255c-1.649 0-2.703 1.088-2.703 3.281V251h-1.292Zm10.158 0h-1.088c-1.666 0-2.363-.833-2.363-2.312v-5.338h-1.479v-1.054h1.479v-2.499h1.292v2.499h2.227v1.054h-2.227v5.338c0 .884.323 1.258 1.292 1.258h.867V251Zm5.511.204c-2.261 0-3.842-1.445-3.842-3.791v-1.394c0-2.363 1.343-3.927 3.791-3.927 2.482 0 3.689 1.649 3.689 3.791v1.292h-6.239v.306c0 1.513.782 2.737 2.601 2.737 1.309 0 2.108-.697 2.397-1.683h1.156c-.289 1.564-1.734 2.669-3.553 2.669Zm-2.601-5.287v.272h5.032v-.408c0-1.547-.782-2.703-2.482-2.703-1.87 0-2.55 1.241-2.55 2.839Zm14.683-7.327h1.292V251h-1.224v-1.36c-.374.799-1.496 1.564-2.941 1.564-2.295 0-3.638-1.717-3.638-3.893v-1.326c0-2.261 1.411-3.893 3.604-3.893 1.36 0 2.38.612 2.907 1.496v-4.998Zm-5.219 7.446v1.224c0 1.598.765 2.89 2.567 2.89 1.717 0 2.652-1.309 2.652-2.992v-1.122c0-1.785-1.224-2.89-2.669-2.89-1.649 0-2.55 1.292-2.55 2.89ZM5.542 271H4.454c-1.666 0-2.363-.833-2.363-2.312v-5.338H.612v-1.054h1.479v-2.499h1.292v2.499H5.61v1.054H3.383v5.338c0 .884.323 1.258 1.292 1.258h.867V271Zm5.562.204c-2.482 0-3.893-1.7-3.893-3.842v-1.428c0-2.142 1.428-3.842 3.893-3.842s3.876 1.7 3.876 3.842v1.428c0 2.142-1.411 3.842-3.876 3.842Zm2.635-5.253c0-1.649-.918-2.822-2.635-2.822-1.717 0-2.635 1.173-2.635 2.822v1.394c0 1.649.918 2.822 2.635 2.822 1.717 0 2.635-1.173 2.635-2.822v-1.394ZM25.215 271h-1.088c-1.666 0-2.363-.833-2.363-2.312v-5.338h-1.48v-1.054h1.48v-2.499h1.292v2.499h2.227v1.054h-2.227v5.338c0 .884.323 1.258 1.292 1.258h.867V271Zm2.177 0v-12.41h1.292v5.049c.493-.901 1.394-1.547 2.839-1.547 1.955 0 3.196 1.326 3.196 3.417V271h-1.292v-5.304c0-1.479-.663-2.482-2.227-2.482-1.428 0-2.516.867-2.516 2.669V271h-1.292Zm13.41.204c-2.26 0-3.841-1.445-3.841-3.791v-1.394c0-2.363 1.343-3.927 3.79-3.927 2.483 0 3.69 1.649 3.69 3.791v1.292H38.2v.306c0 1.513.783 2.737 2.602 2.737 1.309 0 2.108-.697 2.397-1.683h1.156c-.29 1.564-1.734 2.669-3.553 2.669Zm-2.6-5.287v.272h5.032v-.408c0-1.547-.782-2.703-2.482-2.703-1.87 0-2.55 1.241-2.55 2.839Zm16.973 5.321c-2.822 0-4.573-1.785-4.573-4.25V259.1h1.326v8.007c0 1.853 1.241 3.026 3.247 3.026s3.247-1.173 3.247-3.026V259.1h1.326v7.888c0 2.465-1.75 4.25-4.573 4.25ZM62.74 271v-11.9h1.241l6.545 9.775V259.1h1.292V271h-1.24l-6.546-9.775V271H62.74Zm12.17 0v-11.9h7.7v1.105h-6.375v4.386h5.882v1.105h-5.882V271H74.91Zm14.368.238c-3.281 0-4.947-2.227-4.947-5.185v-2.006c0-2.958 1.666-5.185 4.947-5.185 2.754 0 4.505 1.921 4.692 4.165h-1.275c-.204-1.632-1.292-3.06-3.434-3.06-2.431 0-3.604 1.7-3.604 4.029v2.108c0 2.329 1.173 4.029 3.604 4.029 2.142 0 3.23-1.428 3.434-3.06h1.275c-.187 2.244-1.938 4.165-4.692 4.165Zm11.92 0c-3.281 0-4.947-2.227-4.947-5.185v-2.006c0-2.958 1.665-5.185 4.947-5.185 2.754 0 4.505 1.921 4.692 4.165h-1.275c-.204-1.632-1.292-3.06-3.434-3.06-2.431 0-3.605 1.7-3.605 4.029v2.108c0 2.329 1.174 4.029 3.605 4.029 2.142 0 3.23-1.428 3.434-3.06h1.275c-.187 2.244-1.938 4.165-4.692 4.165Zm11.919 0c-3.281 0-4.947-2.227-4.947-5.185v-2.006c0-2.958 1.666-5.185 4.947-5.185 2.754 0 4.505 1.921 4.692 4.165h-1.275c-.204-1.632-1.292-3.06-3.434-3.06-2.431 0-3.604 1.7-3.604 4.029v2.108c0 2.329 1.173 4.029 3.604 4.029 2.142 0 3.23-1.428 3.434-3.06h1.275c-.187 2.244-1.938 4.165-4.692 4.165Z" />
  <path fill="#595C5F" d="M479 45h178.746v178.746H479z" />
  <path fill="#01FFD8" d="M479 94.8h129.035v129.035H479z" />
  <path fill="#212529"
    d="M512.824 199.056c0 3.296-2.272 5.792-5.504 6.624v3.84h-5.28v-3.808c-3.552-.768-5.504-3.168-5.504-6.624v-.48h5.184v.512c0 1.792 1.12 2.688 2.976 2.688 1.664 0 2.816-.832 2.816-2.368 0-1.024-.544-1.696-1.664-2.08l-3.872-1.312c-3.36-1.152-5.28-2.496-5.28-5.984 0-3.456 2.208-5.472 5.216-6.176v-3.808h5.28v3.84c3.04.768 5.056 2.912 5.056 6.176v.544h-5.12v-.448c0-1.472-.928-2.304-2.624-2.304-1.536 0-2.528.608-2.528 1.888 0 1.024.704 1.376 1.664 1.728l3.648 1.28c2.976 1.056 5.536 2.464 5.536 6.272Zm18.134-15.456v3.872L521.966 206h-5.568l8.928-17.952h-9.792V183.6h15.424Zm7.195 0h4.928l-6.208 13.888h4.608v-4.512h4.991v4.512h2.721v4.096h-2.721V206h-4.991v-4.416h-9.888v-3.936l6.56-14.048Zm25.187 12.192 5.92-12.192h5.056V206h-5.28v-11.84l-3.52 6.848h-4.352l-3.488-6.848V206h-5.28v-22.4h5.056l5.888 12.192Z" />
  <path fill="#fff"
    d="M481.19 251v-1.02l5.032-5.287c.833-.867 1.326-1.649 1.326-2.567 0-1.326-1.037-2.193-2.431-2.193-1.513 0-2.499.867-2.499 2.397v.272h-1.241v-.323c0-2.176 1.53-3.417 3.74-3.417 2.159 0 3.74 1.275 3.74 3.264 0 1.445-1.003 2.55-1.955 3.519l-4.199 4.284h6.171V251h-7.684Zm11.963 0v-10.557l-2.482 1.173v-1.19l2.703-1.326h1.088V251h-1.309Zm6.538-5.457c-1.581 0-2.567-1.054-2.567-2.55v-1.479c0-1.496.986-2.55 2.567-2.55 1.581 0 2.567 1.054 2.567 2.55v1.479c0 1.496-.986 2.55-2.567 2.55Zm0-.816c1.037 0 1.598-.68 1.598-1.666v-1.615c0-.986-.561-1.666-1.598-1.666s-1.598.68-1.598 1.666v1.615c0 .986.561 1.666 1.598 1.666Zm7.31 6.409c-1.581 0-2.567-1.054-2.567-2.55v-1.479c0-1.496.986-2.55 2.567-2.55 1.581 0 2.567 1.054 2.567 2.55v1.479c0 1.496-.986 2.55-2.567 2.55Zm0-.816c1.037 0 1.598-.68 1.598-1.666v-1.615c0-.986-.561-1.666-1.598-1.666s-1.598.68-1.598 1.666v1.615c0 .986.561 1.666 1.598 1.666Zm-7.225.68 6.171-11.9h.986l-6.171 11.9h-.986Zm15.935 0v-12.41h1.292V251h-1.292Zm7.549.204c-2.261 0-3.842-1.445-3.842-3.791v-1.394c0-2.363 1.343-3.927 3.791-3.927 2.482 0 3.689 1.649 3.689 3.791v1.292h-6.239v.306c0 1.513.782 2.737 2.601 2.737 1.309 0 2.108-.697 2.397-1.683h1.156c-.289 1.564-1.734 2.669-3.553 2.669Zm-2.601-5.287v.272h5.032v-.408c0-1.547-.782-2.703-2.482-2.703-1.87 0-2.55 1.241-2.55 2.839Zm11.793 5.287c-2.108 0-3.604-1.054-3.604-2.737v-.085h1.173v.051c0 1.088 1.02 1.802 2.448 1.802 1.343 0 2.312-.527 2.312-1.649 0-.612-.391-1.054-1.088-1.207l-2.584-.595c-1.292-.289-2.04-1.071-2.04-2.21 0-1.632 1.377-2.482 3.298-2.482 1.819 0 3.23 1.105 3.23 2.72v.085h-1.173v-.051c0-1.071-.782-1.785-2.074-1.785-1.207 0-2.091.51-2.091 1.479 0 .595.289.969.918 1.122l2.669.629c1.343.323 2.142.986 2.142 2.244 0 1.547-1.496 2.669-3.536 2.669Zm8.948 0c-2.108 0-3.604-1.054-3.604-2.737v-.085h1.173v.051c0 1.088 1.02 1.802 2.448 1.802 1.343 0 2.312-.527 2.312-1.649 0-.612-.391-1.054-1.088-1.207l-2.584-.595c-1.292-.289-2.04-1.071-2.04-2.21 0-1.632 1.377-2.482 3.298-2.482 1.819 0 3.23 1.105 3.23 2.72v.085h-1.173v-.051c0-1.071-.782-1.785-2.074-1.785-1.207 0-2.091.51-2.091 1.479 0 .595.289.969.918 1.122l2.669.629c1.343.323 2.142.986 2.142 2.244 0 1.547-1.496 2.669-3.536 2.669Zm16.645-8.908V251h-1.224v-1.479c-.408.986-1.394 1.683-2.907 1.683-1.904 0-3.111-1.326-3.111-3.417v-5.491h1.292v5.304c0 1.479.646 2.516 2.142 2.516 1.428 0 2.516-.901 2.516-2.703v-5.117h1.292Zm5.95 8.908c-2.108 0-3.604-1.054-3.604-2.737v-.085h1.173v.051c0 1.088 1.02 1.802 2.448 1.802 1.343 0 2.312-.527 2.312-1.649 0-.612-.391-1.054-1.088-1.207l-2.584-.595c-1.292-.289-2.04-1.071-2.04-2.21 0-1.632 1.377-2.482 3.298-2.482 1.819 0 3.23 1.105 3.23 2.72v.085h-1.173v-.051c0-1.071-.782-1.785-2.074-1.785-1.207 0-2.091.51-2.091 1.479 0 .595.289.969.918 1.122l2.669.629c1.343.323 2.142.986 2.142 2.244 0 1.547-1.496 2.669-3.536 2.669Zm5.837-.204v-8.704h1.292V251h-1.292Zm-.17-10.999c0-.459.323-.782.816-.782.493 0 .816.323.816.782s-.323.782-.816.782c-.493 0-.816-.323-.816-.782ZM573.964 251v-8.704h1.224v1.479c.408-.986 1.394-1.683 2.907-1.683 1.955 0 3.196 1.326 3.196 3.417V251h-1.292v-5.304c0-1.479-.663-2.482-2.227-2.482-1.428 0-2.516.867-2.516 2.669V251h-1.292Zm13.496 3.162c-1.734 0-3.298-.799-3.774-2.227h1.275c.476.833 1.309 1.207 2.499 1.207 1.513 0 2.55-.85 2.55-2.176v-1.972c-.272.799-1.462 1.649-2.924 1.649-2.261 0-3.553-1.615-3.553-3.553v-1.445c0-1.972 1.275-3.553 3.57-3.553 1.632 0 2.601.884 2.958 1.649v-1.445h1.241V251c0 1.802-1.632 3.162-3.842 3.162Zm-.119-4.573c1.479 0 2.669-.986 2.669-2.635v-1.122c0-1.479-1.122-2.686-2.618-2.686-1.7 0-2.584.935-2.584 2.601v1.241c0 1.632.867 2.601 2.533 2.601Zm13.88 1.615c-2.414 0-3.859-1.632-3.859-3.825v-1.462c0-2.193 1.445-3.825 3.859-3.825 2.193 0 3.621 1.428 3.723 3.264h-1.156c-.17-1.173-.901-2.244-2.55-2.244-1.785 0-2.618 1.156-2.618 2.788v1.496c0 1.632.833 2.788 2.618 2.788 1.649 0 2.38-1.071 2.55-2.244h1.156c-.102 1.836-1.53 3.264-3.723 3.264Zm9.547 0c-2.482 0-3.893-1.7-3.893-3.842v-1.428c0-2.142 1.428-3.842 3.893-3.842s3.876 1.7 3.876 3.842v1.428c0 2.142-1.411 3.842-3.876 3.842Zm2.635-5.253c0-1.649-.918-2.822-2.635-2.822-1.717 0-2.635 1.173-2.635 2.822v1.394c0 1.649.918 2.822 2.635 2.822 1.717 0 2.635-1.173 2.635-2.822v-1.394Zm10.733-3.655V251h-1.224v-1.479c-.408.986-1.394 1.683-2.907 1.683-1.904 0-3.111-1.326-3.111-3.417v-5.491h1.292v5.304c0 1.479.646 2.516 2.142 2.516 1.428 0 2.516-.901 2.516-2.703v-5.117h1.292ZM626.89 251v-8.704h1.224v1.479c.408-.986 1.394-1.683 2.907-1.683 1.955 0 3.196 1.326 3.196 3.417V251h-1.292v-5.304c0-1.479-.663-2.482-2.227-2.482-1.428 0-2.516.867-2.516 2.669V251h-1.292Zm14.076 0h-1.088c-1.666 0-2.363-.833-2.363-2.312v-5.338h-1.479v-1.054h1.479v-2.499h1.292v2.499h2.227v1.054h-2.227v5.338c0 .884.323 1.258 1.292 1.258h.867V251Zm2.177 0v-8.704h1.207v2.006c.323-1.343 1.258-2.057 2.839-2.057h.204v1.207h-.255c-1.649 0-2.703 1.088-2.703 3.281V251h-1.292Zm8.84 2.958h-1.258L651.83 251l-3.247-8.704h1.275l2.652 7.395 2.55-7.395h1.275L653.122 251l-1.139 2.958Zm-165.846 17.28c-3.281 0-4.947-2.227-4.947-5.185v-2.006c0-2.958 1.666-5.185 4.947-5.185 2.754 0 4.505 1.921 4.692 4.165h-1.275c-.204-1.632-1.292-3.06-3.434-3.06-2.431 0-3.604 1.7-3.604 4.029v2.108c0 2.329 1.173 4.029 3.604 4.029 2.142 0 3.23-1.428 3.434-3.06h1.275c-.187 2.244-1.938 4.165-4.692 4.165Zm6.716-8.33.816-3.808h1.445l-1.173 3.808h-1.088Zm6.861 8.296c-2.108 0-3.604-1.054-3.604-2.737v-.085h1.173v.051c0 1.088 1.02 1.802 2.448 1.802 1.343 0 2.312-.527 2.312-1.649 0-.612-.391-1.054-1.088-1.207l-2.584-.595c-1.292-.289-2.04-1.071-2.04-2.21 0-1.632 1.377-2.482 3.298-2.482 1.819 0 3.23 1.105 3.23 2.72v.085h-1.173v-.051c0-1.071-.782-1.785-2.074-1.785-1.207 0-2.091.51-2.091 1.479 0 .595.289.969.918 1.122l2.669.629c1.343.323 2.142.986 2.142 2.244 0 1.547-1.496 2.669-3.536 2.669Zm9.487-.204v-8.704h1.224v1.479c.408-.986 1.36-1.683 2.873-1.683 1.292 0 2.278.646 2.771 1.7.595-1.02 1.649-1.7 3.162-1.7 1.904 0 3.128 1.36 3.128 3.417V271h-1.292v-5.304c0-1.479-.731-2.482-2.159-2.482s-2.482.867-2.482 2.669V271h-1.292v-5.304c0-1.479-.731-2.482-2.159-2.482s-2.482.867-2.482 2.669V271h-1.292Zm19.239.204c-2.261 0-3.842-1.445-3.842-3.791v-1.394c0-2.363 1.343-3.927 3.791-3.927 2.482 0 3.689 1.649 3.689 3.791v1.292h-6.239v.306c0 1.513.782 2.737 2.601 2.737 1.309 0 2.108-.697 2.397-1.683h1.156c-.289 1.564-1.734 2.669-3.553 2.669Zm-2.601-5.287v.272h5.032v-.408c0-1.547-.782-2.703-2.482-2.703-1.87 0-2.55 1.241-2.55 2.839ZM538.551 271h-1.088c-1.666 0-2.363-.833-2.363-2.312v-5.338h-1.479v-1.054h1.479v-2.499h1.292v2.499h2.227v1.054h-2.227v5.338c0 .884.323 1.258 1.292 1.258h.867V271Zm2.177 0v-12.41h1.292v5.049c.493-.901 1.394-1.547 2.839-1.547 1.955 0 3.196 1.326 3.196 3.417V271h-1.292v-5.304c0-1.479-.663-2.482-2.227-2.482-1.428 0-2.516.867-2.516 2.669V271h-1.292Zm13.462.204c-2.482 0-3.893-1.7-3.893-3.842v-1.428c0-2.142 1.428-3.842 3.893-3.842s3.876 1.7 3.876 3.842v1.428c0 2.142-1.411 3.842-3.876 3.842Zm2.635-5.253c0-1.649-.918-2.822-2.635-2.822-1.717 0-2.635 1.173-2.635 2.822v1.394c0 1.649.918 2.822 2.635 2.822 1.717 0 2.635-1.173 2.635-2.822v-1.394Zm9.661-7.361h1.292V271h-1.224v-1.36c-.374.799-1.496 1.564-2.941 1.564-2.295 0-3.638-1.717-3.638-3.893v-1.326c0-2.261 1.411-3.893 3.604-3.893 1.36 0 2.38.612 2.907 1.496v-4.998Zm-5.219 7.446v1.224c0 1.598.765 2.89 2.567 2.89 1.717 0 2.652-1.309 2.652-2.992v-1.122c0-1.785-1.224-2.89-2.669-2.89-1.649 0-2.55 1.292-2.55 2.89Zm12.728 5.168c-2.482 0-3.893-1.7-3.893-3.842v-1.428c0-2.142 1.428-3.842 3.893-3.842s3.876 1.7 3.876 3.842v1.428c0 2.142-1.411 3.842-3.876 3.842Zm2.635-5.253c0-1.649-.918-2.822-2.635-2.822-1.717 0-2.635 1.173-2.635 2.822v1.394c0 1.649.918 2.822 2.635 2.822 1.717 0 2.635-1.173 2.635-2.822v-1.394Zm3.661 5.049v-12.41h1.292V271h-1.292Zm7.6.204c-2.482 0-3.893-1.7-3.893-3.842v-1.428c0-2.142 1.428-3.842 3.893-3.842s3.876 1.7 3.876 3.842v1.428c0 2.142-1.411 3.842-3.876 3.842Zm2.635-5.253c0-1.649-.918-2.822-2.635-2.822-1.717 0-2.635 1.173-2.635 2.822v1.394c0 1.649.918 2.822 2.635 2.822 1.717 0 2.635-1.173 2.635-2.822v-1.394Zm7.078 8.211c-1.734 0-3.298-.799-3.774-2.227h1.275c.476.833 1.309 1.207 2.499 1.207 1.513 0 2.55-.85 2.55-2.176v-1.972c-.272.799-1.462 1.649-2.924 1.649-2.261 0-3.553-1.615-3.553-3.553v-1.445c0-1.972 1.275-3.553 3.57-3.553 1.632 0 2.601.884 2.958 1.649v-1.445h1.241V271c0 1.802-1.632 3.162-3.842 3.162Zm-.119-4.573c1.479 0 2.669-.986 2.669-2.635v-1.122c0-1.479-1.122-2.686-2.618-2.686-1.7 0-2.584.935-2.584 2.601v1.241c0 1.632.867 2.601 2.533 2.601Zm9.175 4.369h-1.258l1.105-2.958-3.247-8.704h1.275l2.652 7.395 2.55-7.395h1.275L607.799 271l-1.139 2.958Z" />
  <path fill="#595C5F" d="M258 45h178.746v178.746H258z" />
  <path fill="#01FFD8" d="M258 105.8h118.11v118.11H258z" />
  <path fill="#212529"
    d="M290.824 199.056c0 3.296-2.272 5.792-5.504 6.624v3.84h-5.28v-3.808c-3.552-.768-5.504-3.168-5.504-6.624v-.48h5.184v.512c0 1.792 1.12 2.688 2.976 2.688 1.664 0 2.816-.832 2.816-2.368 0-1.024-.544-1.696-1.664-2.08l-3.872-1.312c-3.36-1.152-5.28-2.496-5.28-5.984 0-3.456 2.208-5.472 5.216-6.176v-3.808h5.28v3.84c3.04.768 5.056 2.912 5.056 6.176v.544h-5.12v-.448c0-1.472-.928-2.304-2.624-2.304-1.536 0-2.528.608-2.528 1.888 0 1.024.704 1.376 1.664 1.728l3.648 1.28c2.976 1.056 5.536 2.464 5.536 6.272Zm10.39-15.456h5.824l-5.856 8.032c.736-.48 1.504-.672 2.656-.672 3.712 0 7.008 2.72 7.008 7.552 0 4.512-3.744 7.936-8.608 7.936-5.408 0-8.8-3.296-8.8-7.968 0-2.592.896-4.928 2.208-6.816l5.568-8.064Zm.96 11.488c-2.112 0-3.36 1.408-3.36 3.488 0 2.016 1.088 3.552 3.36 3.552 2.016 0 3.36-1.6 3.36-3.52 0-2.048-1.184-3.52-3.36-3.52Zm16.743-4.192h-5.216v-.672c0-4.64 3.04-7.072 7.84-7.072 4.832 0 8.064 2.688 8.064 6.848 0 3.456-2.336 5.568-4.768 7.616l-4.64 3.936h9.184V206h-15.904v-4.128l8.832-8.448c1.152-1.12 1.856-2.112 1.856-3.392 0-1.568-1.088-2.432-2.592-2.432-1.824 0-2.656 1.088-2.656 2.88v.416Zm25.642 4.896 5.92-12.192h5.056V206h-5.28v-11.84l-3.52 6.848h-4.352l-3.488-6.848V206h-5.28v-22.4h5.056l5.888 12.192Z" />
  <path fill="#fff"
    d="M261.009 251v-10.557l-2.482 1.173v-1.19l2.703-1.326h1.088V251h-1.309Zm3.529 1.785 4.794-14.535h1.207l-4.794 14.535h-1.207Zm7.982-12.631V239.1h6.936v1.071l-3.808 4.165h.459c2.193 0 3.74 1.326 3.74 3.349 0 2.074-1.87 3.553-4.131 3.553-2.04 0-3.927-1.224-4.012-3.485h1.207c.119 1.513 1.241 2.431 2.822 2.431 1.717 0 2.839-1.054 2.839-2.465 0-1.445-1.071-2.414-2.754-2.414h-1.615v-1.02l3.672-4.131h-5.355ZM286.191 251v-12.41h1.292V251h-1.292Zm7.548.204c-2.261 0-3.842-1.445-3.842-3.791v-1.394c0-2.363 1.343-3.927 3.791-3.927 2.482 0 3.689 1.649 3.689 3.791v1.292h-6.239v.306c0 1.513.782 2.737 2.601 2.737 1.309 0 2.108-.697 2.397-1.683h1.156c-.289 1.564-1.734 2.669-3.553 2.669Zm-2.601-5.287v.272h5.032v-.408c0-1.547-.782-2.703-2.482-2.703-1.87 0-2.55 1.241-2.55 2.839Zm11.793 5.287c-2.108 0-3.604-1.054-3.604-2.737v-.085h1.173v.051c0 1.088 1.02 1.802 2.448 1.802 1.343 0 2.312-.527 2.312-1.649 0-.612-.391-1.054-1.088-1.207l-2.584-.595c-1.292-.289-2.04-1.071-2.04-2.21 0-1.632 1.377-2.482 3.298-2.482 1.819 0 3.23 1.105 3.23 2.72v.085h-1.173v-.051c0-1.071-.782-1.785-2.074-1.785-1.207 0-2.091.51-2.091 1.479 0 .595.289.969.918 1.122l2.669.629c1.343.323 2.142.986 2.142 2.244 0 1.547-1.496 2.669-3.536 2.669Zm8.949 0c-2.108 0-3.604-1.054-3.604-2.737v-.085h1.173v.051c0 1.088 1.02 1.802 2.448 1.802 1.343 0 2.312-.527 2.312-1.649 0-.612-.391-1.054-1.088-1.207l-2.584-.595c-1.292-.289-2.04-1.071-2.04-2.21 0-1.632 1.377-2.482 3.298-2.482 1.819 0 3.23 1.105 3.23 2.72v.085h-1.173v-.051c0-1.071-.782-1.785-2.074-1.785-1.207 0-2.091.51-2.091 1.479 0 .595.289.969.918 1.122l2.669.629c1.343.323 2.142.986 2.142 2.244 0 1.547-1.496 2.669-3.536 2.669Zm16.644-8.908V251H327.3v-1.479c-.408.986-1.394 1.683-2.907 1.683-1.904 0-3.111-1.326-3.111-3.417v-5.491h1.292v5.304c0 1.479.646 2.516 2.142 2.516 1.428 0 2.516-.901 2.516-2.703v-5.117h1.292Zm5.95 8.908c-2.108 0-3.604-1.054-3.604-2.737v-.085h1.173v.051c0 1.088 1.02 1.802 2.448 1.802 1.343 0 2.312-.527 2.312-1.649 0-.612-.391-1.054-1.088-1.207l-2.584-.595c-1.292-.289-2.04-1.071-2.04-2.21 0-1.632 1.377-2.482 3.298-2.482 1.819 0 3.23 1.105 3.23 2.72v.085h-1.173v-.051c0-1.071-.782-1.785-2.074-1.785-1.207 0-2.091.51-2.091 1.479 0 .595.289.969.918 1.122l2.669.629c1.343.323 2.142.986 2.142 2.244 0 1.547-1.496 2.669-3.536 2.669Zm5.838-.204v-8.704h1.292V251h-1.292Zm-.17-10.999c0-.459.323-.782.816-.782.493 0 .816.323.816.782s-.323.782-.816.782c-.493 0-.816-.323-.816-.782ZM344.443 251v-8.704h1.224v1.479c.408-.986 1.394-1.683 2.907-1.683 1.955 0 3.196 1.326 3.196 3.417V251h-1.292v-5.304c0-1.479-.663-2.482-2.227-2.482-1.428 0-2.516.867-2.516 2.669V251h-1.292Zm13.497 3.162c-1.734 0-3.298-.799-3.774-2.227h1.275c.476.833 1.309 1.207 2.499 1.207 1.513 0 2.55-.85 2.55-2.176v-1.972c-.272.799-1.462 1.649-2.924 1.649-2.261 0-3.553-1.615-3.553-3.553v-1.445c0-1.972 1.275-3.553 3.57-3.553 1.632 0 2.601.884 2.958 1.649v-1.445h1.241V251c0 1.802-1.632 3.162-3.842 3.162Zm-.119-4.573c1.479 0 2.669-.986 2.669-2.635v-1.122c0-1.479-1.122-2.686-2.618-2.686-1.7 0-2.584.935-2.584 2.601v1.241c0 1.632.867 2.601 2.533 2.601Zm13.88 1.615c-2.414 0-3.859-1.632-3.859-3.825v-1.462c0-2.193 1.445-3.825 3.859-3.825 2.193 0 3.621 1.428 3.723 3.264h-1.156c-.17-1.173-.901-2.244-2.55-2.244-1.785 0-2.618 1.156-2.618 2.788v1.496c0 1.632.833 2.788 2.618 2.788 1.649 0 2.38-1.071 2.55-2.244h1.156c-.102 1.836-1.53 3.264-3.723 3.264Zm9.546 0c-2.482 0-3.893-1.7-3.893-3.842v-1.428c0-2.142 1.428-3.842 3.893-3.842s3.876 1.7 3.876 3.842v1.428c0 2.142-1.411 3.842-3.876 3.842Zm2.635-5.253c0-1.649-.918-2.822-2.635-2.822-1.717 0-2.635 1.173-2.635 2.822v1.394c0 1.649.918 2.822 2.635 2.822 1.717 0 2.635-1.173 2.635-2.822v-1.394Zm10.733-3.655V251h-1.224v-1.479c-.408.986-1.394 1.683-2.907 1.683-1.904 0-3.111-1.326-3.111-3.417v-5.491h1.292v5.304c0 1.479.646 2.516 2.142 2.516 1.428 0 2.516-.901 2.516-2.703v-5.117h1.292Zm2.754 8.704v-8.704h1.224v1.479c.408-.986 1.394-1.683 2.907-1.683 1.955 0 3.196 1.326 3.196 3.417V251h-1.292v-5.304c0-1.479-.663-2.482-2.227-2.482-1.428 0-2.516.867-2.516 2.669V251h-1.292Zm14.076 0h-1.088c-1.666 0-2.363-.833-2.363-2.312v-5.338h-1.479v-1.054h1.479v-2.499h1.292v2.499h2.227v1.054h-2.227v5.338c0 .884.323 1.258 1.292 1.258h.867V251Zm2.177 0v-8.704h1.207v2.006c.323-1.343 1.258-2.057 2.839-2.057h.204v1.207h-.255c-1.649 0-2.703 1.088-2.703 3.281V251h-1.292Zm8.84 2.958h-1.258l1.105-2.958-3.247-8.704h1.275l2.652 7.395 2.55-7.395h1.275L423.601 251l-1.139 2.958ZM259.547 271v-11.9h4.913c2.108 0 3.247 1.241 3.247 2.958 0 1.377-.731 2.329-1.751 2.788 1.309.289 2.448 1.19 2.448 2.924 0 1.989-1.479 3.23-3.825 3.23h-5.032Zm1.275-1.037h3.655c1.7 0 2.635-.816 2.635-2.278 0-1.326-.969-2.244-2.618-2.244h-3.672v4.522Zm0-5.559h3.349c1.479 0 2.244-1.02 2.244-2.176 0-1.207-.799-2.091-2.244-2.091h-3.349v4.267Zm8.703-1.496.816-3.808h1.445l-1.173 3.808h-1.088Zm6.861 8.296c-2.108 0-3.604-1.054-3.604-2.737v-.085h1.173v.051c0 1.088 1.02 1.802 2.448 1.802 1.343 0 2.312-.527 2.312-1.649 0-.612-.391-1.054-1.088-1.207l-2.584-.595c-1.292-.289-2.04-1.071-2.04-2.21 0-1.632 1.377-2.482 3.297-2.482 1.82 0 3.231 1.105 3.231 2.72v.085h-1.173v-.051c0-1.071-.782-1.785-2.074-1.785-1.207 0-2.091.51-2.091 1.479 0 .595.289.969.918 1.122l2.669.629c1.343.323 2.142.986 2.142 2.244 0 1.547-1.496 2.669-3.536 2.669Zm9.487-.204v-8.704h1.224v1.479c.408-.986 1.36-1.683 2.873-1.683 1.292 0 2.278.646 2.771 1.7.595-1.02 1.649-1.7 3.162-1.7 1.904 0 3.128 1.36 3.128 3.417V271h-1.292v-5.304c0-1.479-.731-2.482-2.159-2.482s-2.482.867-2.482 2.669V271h-1.292v-5.304c0-1.479-.731-2.482-2.159-2.482s-2.482.867-2.482 2.669V271h-1.292Zm19.238.204c-2.261 0-3.842-1.445-3.842-3.791v-1.394c0-2.363 1.343-3.927 3.791-3.927 2.482 0 3.689 1.649 3.689 3.791v1.292h-6.239v.306c0 1.513.782 2.737 2.601 2.737 1.309 0 2.108-.697 2.397-1.683h1.156c-.289 1.564-1.734 2.669-3.553 2.669Zm-2.601-5.287v.272h5.032v-.408c0-1.547-.782-2.703-2.482-2.703-1.87 0-2.55 1.241-2.55 2.839ZM315.223 271h-1.088c-1.666 0-2.363-.833-2.363-2.312v-5.338h-1.479v-1.054h1.479v-2.499h1.292v2.499h2.227v1.054h-2.227v5.338c0 .884.323 1.258 1.292 1.258h.867V271Zm2.176 0v-12.41h1.292v5.049c.493-.901 1.394-1.547 2.839-1.547 1.955 0 3.196 1.326 3.196 3.417V271h-1.292v-5.304c0-1.479-.663-2.482-2.227-2.482-1.428 0-2.516.867-2.516 2.669V271h-1.292Zm13.463.204c-2.482 0-3.893-1.7-3.893-3.842v-1.428c0-2.142 1.428-3.842 3.893-3.842s3.876 1.7 3.876 3.842v1.428c0 2.142-1.411 3.842-3.876 3.842Zm2.635-5.253c0-1.649-.918-2.822-2.635-2.822-1.717 0-2.635 1.173-2.635 2.822v1.394c0 1.649.918 2.822 2.635 2.822 1.717 0 2.635-1.173 2.635-2.822v-1.394Zm9.661-7.361h1.292V271h-1.224v-1.36c-.374.799-1.496 1.564-2.941 1.564-2.295 0-3.638-1.717-3.638-3.893v-1.326c0-2.261 1.411-3.893 3.604-3.893 1.36 0 2.38.612 2.907 1.496v-4.998Zm-5.219 7.446v1.224c0 1.598.765 2.89 2.567 2.89 1.717 0 2.652-1.309 2.652-2.992v-1.122c0-1.785-1.224-2.89-2.669-2.89-1.649 0-2.55 1.292-2.55 2.89Zm12.728 5.168c-2.482 0-3.893-1.7-3.893-3.842v-1.428c0-2.142 1.428-3.842 3.893-3.842s3.876 1.7 3.876 3.842v1.428c0 2.142-1.411 3.842-3.876 3.842Zm2.635-5.253c0-1.649-.918-2.822-2.635-2.822-1.717 0-2.635 1.173-2.635 2.822v1.394c0 1.649.918 2.822 2.635 2.822 1.717 0 2.635-1.173 2.635-2.822v-1.394Zm3.661 5.049v-12.41h1.292V271h-1.292Zm7.6.204c-2.482 0-3.893-1.7-3.893-3.842v-1.428c0-2.142 1.428-3.842 3.893-3.842s3.876 1.7 3.876 3.842v1.428c0 2.142-1.411 3.842-3.876 3.842Zm2.635-5.253c0-1.649-.918-2.822-2.635-2.822-1.717 0-2.635 1.173-2.635 2.822v1.394c0 1.649.918 2.822 2.635 2.822 1.717 0 2.635-1.173 2.635-2.822v-1.394Zm7.077 8.211c-1.734 0-3.298-.799-3.774-2.227h1.275c.476.833 1.309 1.207 2.499 1.207 1.513 0 2.55-.85 2.55-2.176v-1.972c-.272.799-1.462 1.649-2.924 1.649-2.261 0-3.553-1.615-3.553-3.553v-1.445c0-1.972 1.275-3.553 3.57-3.553 1.632 0 2.601.884 2.958 1.649v-1.445h1.241V271c0 1.802-1.632 3.162-3.842 3.162Zm-.119-4.573c1.479 0 2.669-.986 2.669-2.635v-1.122c0-1.479-1.122-2.686-2.618-2.686-1.7 0-2.584.935-2.584 2.601v1.241c0 1.632.867 2.601 2.533 2.601Zm9.176 4.369h-1.258l1.105-2.958-3.247-8.704h1.275l2.652 7.395 2.55-7.395h1.275L384.471 271l-1.139 2.958Z" />
  <path fill="#999"
    d="M266.848 6.42h-1.036c-.042-1.372-1.05-2.506-2.814-2.506-2.016 0-2.926 1.386-2.926 3.346v1.624c0 1.932.868 3.43 2.996 3.43 1.75 0 2.828-.994 2.828-2.884v-.252h-2.744v-.91h3.794v1.036c0 2.254-1.386 3.892-3.892 3.892-2.73 0-4.074-1.946-4.074-4.34V7.302c0-2.506 1.414-4.298 4.004-4.298 2.394 0 3.822 1.484 3.864 3.416Zm8.064 6.58h-1.022v-.896c-.308.504-1.274 1.064-2.464 1.064-1.694 0-2.716-.952-2.716-2.254 0-1.386 1.134-2.24 2.842-2.24 1.134 0 1.89.476 2.296.896V8.24c0-.98-.644-1.736-1.792-1.736-.91 0-1.498.42-1.792 1.078h-.98c.364-1.19 1.372-1.918 2.786-1.918 1.778 0 2.842 1.162 2.842 2.576V13Zm-3.262-.518c1.12 0 2.198-.658 2.198-1.582 0-.896-1.064-1.526-2.142-1.526-1.19 0-1.988.56-1.988 1.554s.826 1.554 1.932 1.554Zm6.513 2.954h-1.064V5.832h1.008v1.12c.308-.658 1.232-1.288 2.422-1.288 1.918 0 2.996 1.386 2.996 3.206v1.092c0 1.862-1.162 3.206-2.968 3.206-1.12 0-1.96-.504-2.394-1.232v3.5Zm4.298-5.516V8.912c0-1.316-.63-2.38-2.114-2.38-1.414 0-2.184 1.078-2.184 2.464v.924c0 1.47 1.008 2.38 2.198 2.38 1.358 0 2.1-1.064 2.1-2.38Zm15.112-4.088L295.613 13h-1.008l-1.904-6.048L290.797 13h-1.008l-1.96-7.168h1.008l1.512 5.894 1.848-5.894h1.008l1.848 5.894 1.512-5.894h1.008ZM299.222 13V5.832h1.064V13h-1.064Zm-.14-9.058c0-.378.266-.644.672-.644s.672.266.672.644-.266.644-.672.644-.672-.266-.672-.644ZM306.054 13h-.896c-1.372 0-1.946-.686-1.946-1.904V6.7h-1.218v-.868h1.218V3.774h1.064v2.058h1.834V6.7h-1.834v4.396c0 .728.266 1.036 1.064 1.036h.714V13Zm1.793 0V2.78h1.064v4.158c.406-.742 1.148-1.274 2.338-1.274 1.61 0 2.632 1.092 2.632 2.814V13h-1.064V8.632c0-1.218-.546-2.044-1.834-2.044-1.176 0-2.072.714-2.072 2.198V13h-1.064Zm14.737 0h-.896c-1.372 0-1.946-.686-1.946-1.904V6.7h-1.218v-.868h1.218V3.774h1.064v2.058h1.834V6.7h-1.834v4.396c0 .728.266 1.036 1.064 1.036h.714V13Zm1.792 0V2.78h1.064v4.158c.406-.742 1.148-1.274 2.338-1.274 1.61 0 2.632 1.092 2.632 2.814V13h-1.064V8.632c0-1.218-.546-2.044-1.834-2.044-1.176 0-2.072.714-2.072 2.198V13h-1.064Zm11.045.168c-1.862 0-3.164-1.19-3.164-3.122V8.898c0-1.946 1.106-3.234 3.122-3.234 2.044 0 3.038 1.358 3.038 3.122V9.85h-5.138v.252c0 1.246.644 2.254 2.142 2.254 1.078 0 1.736-.574 1.974-1.386h.952c-.238 1.288-1.428 2.198-2.926 2.198Zm-2.142-4.354v.224h4.144v-.336c0-1.274-.644-2.226-2.044-2.226-1.54 0-2.1 1.022-2.1 2.338Zm18.234.07c0 2.366-1.372 4.312-4.116 4.312-2.744 0-4.116-1.946-4.116-4.312V7.316c0-2.366 1.372-4.312 4.116-4.312 2.744 0 4.116 1.946 4.116 4.312v1.568Zm-4.116 3.402c2.086 0 3.024-1.498 3.024-3.346V7.26c0-1.848-.938-3.346-3.024-3.346-2.086 0-3.024 1.498-3.024 3.346v1.68c0 1.848.938 3.346 3.024 3.346Zm6.363.714V3.2h6.468v.91h-5.376v3.472h4.97v.91h-4.97v3.598h5.39V13h-6.482Zm12.202.196c-2.702 0-4.074-1.834-4.074-4.27V7.274c0-2.436 1.372-4.27 4.074-4.27 2.268 0 3.71 1.582 3.864 3.43h-1.05c-.168-1.344-1.064-2.52-2.828-2.52-2.002 0-2.968 1.4-2.968 3.318v1.736c0 1.918.966 3.318 2.968 3.318 1.764 0 2.66-1.176 2.828-2.52h1.05c-.154 1.848-1.596 3.43-3.864 3.43Zm6.037-9.996h3.682c2.492 0 3.864 1.582 3.864 3.766v2.268c0 2.184-1.372 3.766-3.864 3.766h-3.682V3.2Zm3.528 8.904c1.932 0 2.94-1.162 2.94-2.87V6.966c0-1.708-1.008-2.87-2.94-2.87h-2.45v8.008h2.45Zm5.094 2.366 3.948-11.97h.994l-3.948 11.97h-.994ZM259.274 30v-9.8h4.046c2.156 0 3.29 1.386 3.29 3.122 0 1.358-.784 2.506-2.114 2.926L266.624 30h-1.246l-1.988-3.584h-3.024V30h-1.092Zm1.092-4.452h2.814c1.568 0 2.338-.952 2.338-2.226s-.812-2.24-2.338-2.24h-2.814v4.466ZM268.665 30v-7.168h1.064V30h-1.064Zm-.14-9.058c0-.378.266-.644.672-.644s.672.266.672.644-.266.644-.672.644-.672-.266-.672-.644Zm6.399 9.226c-2.044 0-3.206-1.4-3.206-3.164v-1.176c0-1.764 1.176-3.164 3.206-3.164 2.03 0 3.192 1.4 3.192 3.164v1.176c0 1.764-1.162 3.164-3.192 3.164Zm2.17-4.326c0-1.358-.756-2.324-2.17-2.324s-2.17.966-2.17 2.324v1.148c0 1.358.756 2.324 2.17 2.324s2.17-.966 2.17-2.324v-1.148Zm14.672-5.642V30h-1.036v-7.7l-2.702 5.334h-1.036L284.29 22.3V30h-1.036v-9.8h1.022l3.234 6.468 3.234-6.468h1.022Zm8.289 9.8h-1.022v-.896c-.308.504-1.274 1.064-2.464 1.064-1.694 0-2.716-.952-2.716-2.254 0-1.386 1.134-2.24 2.842-2.24 1.134 0 1.89.476 2.296.896v-1.33c0-.98-.644-1.736-1.792-1.736-.91 0-1.498.42-1.792 1.078h-.98c.364-1.19 1.372-1.918 2.786-1.918 1.778 0 2.842 1.162 2.842 2.576V30Zm-3.262-.518c1.12 0 2.198-.658 2.198-1.582 0-.896-1.064-1.526-2.142-1.526-1.19 0-1.988.56-1.988 1.554s.826 1.554 1.932 1.554Zm5.448.518v-7.168h.994v1.652c.266-1.106 1.036-1.694 2.338-1.694h.168v.994h-.21c-1.358 0-2.226.896-2.226 2.702V30h-1.064Zm4.936 0V19.78h1.064v6.426l3.094-3.374h1.33l-3.276 3.458 3.416 3.71h-1.33l-3.234-3.612V30h-1.064Zm9.691.168c-1.862 0-3.164-1.19-3.164-3.122v-1.148c0-1.946 1.106-3.234 3.122-3.234 2.044 0 3.038 1.358 3.038 3.122v1.064h-5.138v.252c0 1.246.644 2.254 2.142 2.254 1.078 0 1.736-.574 1.974-1.386h.952c-.238 1.288-1.428 2.198-2.926 2.198Zm-2.142-4.354v.224h4.144v-.336c0-1.274-.644-2.226-2.044-2.226-1.54 0-2.1 1.022-2.1 2.338Zm7.08 4.186v-7.168h.994v1.652c.266-1.106 1.036-1.694 2.338-1.694h.168v.994h-.21c-1.358 0-2.226.896-2.226 2.702V30h-1.064Zm7.499.168c-1.736 0-2.968-.868-2.968-2.254v-.07h.966v.042c0 .896.84 1.484 2.016 1.484 1.106 0 1.904-.434 1.904-1.358 0-.504-.322-.868-.896-.994l-2.128-.49c-1.064-.238-1.68-.882-1.68-1.82 0-1.344 1.134-2.044 2.716-2.044 1.498 0 2.66.91 2.66 2.24v.07h-.966v-.042c0-.882-.644-1.47-1.708-1.47-.994 0-1.722.42-1.722 1.218 0 .49.238.798.756.924l2.198.518c1.106.266 1.764.812 1.764 1.848 0 1.274-1.232 2.198-2.912 2.198Zm8.317-.168v-6.3h-1.05v-.868h1.05v-.952c0-1.386.616-2.1 2.072-2.1h1.008v.868h-.924c-.756 0-1.092.35-1.092 1.148v1.036h1.764v.868h-1.764V30h-1.064Zm4.494 0v-7.168h1.064V30h-1.064Zm-.14-9.058c0-.378.266-.644.672-.644s.672.266.672.644-.266.644-.672.644-.672-.266-.672-.644Zm6.421 11.662c-1.428 0-2.716-.658-3.108-1.834h1.05c.392.686 1.078.994 2.058.994 1.246 0 2.1-.7 2.1-1.792v-1.624c-.224.658-1.204 1.358-2.408 1.358-1.862 0-2.926-1.33-2.926-2.926v-1.19c0-1.624 1.05-2.926 2.94-2.926 1.344 0 2.142.728 2.436 1.358v-1.19h1.022V30c0 1.484-1.344 2.604-3.164 2.604Zm-.098-3.766c1.218 0 2.198-.812 2.198-2.17v-.924c0-1.218-.924-2.212-2.156-2.212-1.4 0-2.128.77-2.128 2.142v1.022c0 1.344.714 2.142 2.086 2.142Zm11.42-6.006V30h-1.008v-1.218c-.336.812-1.148 1.386-2.394 1.386-1.568 0-2.562-1.092-2.562-2.814v-4.522h1.064V27.2c0 1.218.532 2.072 1.764 2.072 1.176 0 2.072-.742 2.072-2.226v-4.214h1.064ZM361.988 30v-7.168h.994v1.652c.266-1.106 1.036-1.694 2.338-1.694h.168v.994h-.21c-1.358 0-2.226.896-2.226 2.702V30h-1.064Zm7.64.168c-1.862 0-3.164-1.19-3.164-3.122v-1.148c0-1.946 1.106-3.234 3.122-3.234 2.044 0 3.038 1.358 3.038 3.122v1.064h-5.138v.252c0 1.246.644 2.254 2.142 2.254 1.078 0 1.736-.574 1.974-1.386h.952c-.238 1.288-1.428 2.198-2.926 2.198Zm-2.142-4.354v.224h4.144v-.336c0-1.274-.644-2.226-2.044-2.226-1.54 0-2.1 1.022-2.1 2.338Zm9.712 4.354c-1.736 0-2.968-.868-2.968-2.254v-.07h.966v.042c0 .896.84 1.484 2.016 1.484 1.106 0 1.904-.434 1.904-1.358 0-.504-.322-.868-.896-.994l-2.128-.49c-1.064-.238-1.68-.882-1.68-1.82 0-1.344 1.134-2.044 2.716-2.044 1.498 0 2.66.91 2.66 2.24v.07h-.966v-.042c0-.882-.644-1.47-1.708-1.47-.994 0-1.722.42-1.722 1.218 0 .49.238.798.756.924l2.198.518c1.106.266 1.764.812 1.764 1.848 0 1.274-1.232 2.198-2.912 2.198ZM393.134 71.096a.5.5 0 0 0 .406.579l4.432.776a.5.5 0 1 0 .173-.984l-3.94-.69.69-3.94a.5.5 0 1 0-.985-.174l-.776 4.433Zm-.322-45.077c9.212 4.17 13.875 12.154 13.989 20.682.114 8.538-4.336 17.667-13.462 24.072l.574.819c9.37-6.576 14.007-16.003 13.888-24.904-.119-8.912-5.007-17.247-14.577-21.58l-.412.911Z" />
  <path fill="#595C5F" fill-rule="evenodd"
    d="M203 130.909h26.836l-11.36 8.258 1.523 1.121 12.368-9.015c.844-.622.844-1.606 0-2.228l-12.368-9.015-1.523 1.121 11.216 8.137H203v1.621Z"
    clip-rule="evenodd" />
</svg>