<svg xmlns="http://www.w3.org/2000/svg" width="1104" height="431" fill="none">
  <path fill="#212529" d="M0 0h1103v431H0z" />
  <path fill="#C2C2C2"
    d="M896.734 331.468c53.424 0 96.734-43.31 96.734-96.734 0-53.425-43.31-96.734-96.734-96.734C843.309 138 800 181.309 800 234.734c0 53.424 43.309 96.734 96.734 96.734Z"
    opacity=".5" />
  <path fill="#888"
    d="M1.456 72V60.8H6.08c1.984 0 3.056 1.168 3.056 2.784 0 1.296-.688 2.192-1.648 2.624 1.232.272 2.304 1.12 2.304 2.752 0 1.872-1.392 3.04-3.6 3.04H1.456Zm1.2-.976h3.44c1.6 0 2.48-.768 2.48-2.144 0-1.248-.912-2.112-2.464-2.112H2.656v4.256Zm0-5.232h3.152c1.392 0 2.112-.96 2.112-2.048 0-1.136-.752-1.968-2.112-1.968H2.656v4.016Zm15.938-1.984V72h-1.152v-1.392c-.384.928-1.311 1.584-2.736 1.584-1.791 0-2.928-1.248-2.928-3.216v-5.168h1.216V68.8c0 1.392.608 2.368 2.017 2.368 1.344 0 2.367-.848 2.367-2.544v-4.816h1.216Zm2.593-3.488h1.216v4.704c.496-.832 1.456-1.408 2.736-1.408 2.064 0 3.392 1.536 3.392 3.664v1.248c0 2.048-1.264 3.664-3.424 3.664-1.36 0-2.416-.72-2.768-1.472V72h-1.152V60.32Zm6.128 8.16v-1.152c0-1.504-.848-2.72-2.4-2.72-1.36 0-2.512 1.04-2.512 2.72v1.056c0 1.584.88 2.816 2.496 2.816 1.696 0 2.416-1.216 2.416-2.72Zm3.403-8.16h1.216v4.704c.496-.832 1.456-1.408 2.736-1.408 2.064 0 3.392 1.536 3.392 3.664v1.248c0 2.048-1.264 3.664-3.424 3.664-1.36 0-2.416-.72-2.768-1.472V72h-1.152V60.32Zm6.128 8.16v-1.152c0-1.504-.848-2.72-2.4-2.72-1.36 0-2.512 1.04-2.512 2.72v1.056c0 1.584.88 2.816 2.496 2.816 1.696 0 2.416-1.216 2.416-2.72ZM40.329 72V60.32h1.216V72H40.33Zm7.105.192c-2.128 0-3.616-1.36-3.616-3.568v-1.312c0-2.224 1.264-3.696 3.568-3.696 2.336 0 3.472 1.552 3.472 3.568V68.4h-5.872v.288c0 1.424.736 2.576 2.448 2.576 1.232 0 1.984-.656 2.256-1.584h1.088c-.272 1.472-1.632 2.512-3.344 2.512Zm-2.448-4.976v.256h4.736v-.384c0-1.456-.736-2.544-2.336-2.544-1.76 0-2.4 1.168-2.4 2.672ZM59.6 72.192c-1.984 0-3.392-.992-3.392-2.576v-.08h1.104v.048c0 1.024.96 1.696 2.304 1.696 1.264 0 2.176-.496 2.176-1.552 0-.576-.368-.992-1.024-1.136l-2.432-.56c-1.216-.272-1.92-1.008-1.92-2.08 0-1.536 1.296-2.336 3.104-2.336 1.712 0 3.04 1.04 3.04 2.56v.08h-1.104v-.048c0-1.008-.736-1.68-1.952-1.68-1.136 0-1.968.48-1.968 1.392 0 .56.272.912.864 1.056l2.512.592c1.264.304 2.016.928 2.016 2.112 0 1.456-1.408 2.512-3.328 2.512ZM65.095 72v-8.192h1.216V72h-1.216Zm-.16-10.352c0-.432.304-.736.768-.736s.768.304.768.736-.304.736-.768.736-.768-.304-.768-.736ZM68.6 72v-.912l4.832-6.32h-4.64v-.96h5.983v.912l-4.832 6.32h4.897V72H68.6Zm11.443.192c-2.128 0-3.616-1.36-3.616-3.568v-1.312c0-2.224 1.264-3.696 3.568-3.696 2.336 0 3.472 1.552 3.472 3.568V68.4h-5.872v.288c0 1.424.736 2.576 2.448 2.576 1.232 0 1.984-.656 2.256-1.584h1.088c-.272 1.472-1.632 2.512-3.344 2.512Zm-2.448-4.976v.256h4.736v-.384c0-1.456-.736-2.544-2.336-2.544-1.76 0-2.4 1.168-2.4 2.672Zm14.615 4.976c-1.984 0-3.392-.992-3.392-2.576v-.08h1.104v.048c0 1.024.96 1.696 2.304 1.696 1.264 0 2.176-.496 2.176-1.552 0-.576-.368-.992-1.024-1.136l-2.432-.56c-1.216-.272-1.92-1.008-1.92-2.08 0-1.536 1.296-2.336 3.104-2.336 1.712 0 3.04 1.04 3.04 2.56v.08h-1.104v-.048c0-1.008-.736-1.68-1.952-1.68-1.136 0-1.968.48-1.968 1.392 0 .56.272.912.864 1.056l2.512.592c1.264.304 2.016.928 2.016 2.112 0 1.456-1.408 2.512-3.328 2.512ZM97.624 72V60.32h1.216v4.752c.464-.848 1.312-1.456 2.672-1.456 1.84 0 3.008 1.248 3.008 3.216V72h-1.216v-4.992c0-1.392-.624-2.336-2.096-2.336-1.344 0-2.368.816-2.368 2.512V72h-1.216Zm12.67.192c-2.336 0-3.664-1.6-3.664-3.616v-1.344c0-2.016 1.344-3.616 3.664-3.616 2.32 0 3.648 1.6 3.648 3.616v1.344c0 2.016-1.328 3.616-3.648 3.616Zm2.48-4.944c0-1.552-.864-2.656-2.48-2.656s-2.48 1.104-2.48 2.656v1.312c0 1.552.864 2.656 2.48 2.656s2.48-1.104 2.48-2.656v-1.312Zm13.593-3.44L124.127 72h-1.152l-2.176-6.912L118.623 72h-1.152l-2.24-8.192h1.152l1.728 6.736 2.112-6.736h1.152l2.112 6.736 1.728-6.736h1.152Zm4.734 8.384c-1.984 0-3.392-.992-3.392-2.576v-.08h1.104v.048c0 1.024.96 1.696 2.304 1.696 1.264 0 2.176-.496 2.176-1.552 0-.576-.368-.992-1.024-1.136l-2.432-.56c-1.216-.272-1.92-1.008-1.92-2.08 0-1.536 1.296-2.336 3.104-2.336 1.712 0 3.04 1.04 3.04 2.56v.08h-1.104v-.048c0-1.008-.736-1.68-1.952-1.68-1.136 0-1.968.48-1.968 1.392 0 .56.272.912.864 1.056l2.512.592c1.264.304 2.016.928 2.016 2.112 0 1.456-1.408 2.512-3.328 2.512ZM143.95 72h-1.024c-1.568 0-2.224-.784-2.224-2.176V64.8h-1.392v-.992h1.392v-2.352h1.216v2.352h2.096v.992h-2.096v5.024c0 .832.304 1.184 1.216 1.184h.816V72Zm2.049 0V60.32h1.216v4.752c.464-.848 1.312-1.456 2.672-1.456 1.84 0 3.008 1.248 3.008 3.216V72h-1.216v-4.992c0-1.392-.624-2.336-2.096-2.336-1.344 0-2.368.816-2.368 2.512V72h-1.216Zm12.622.192c-2.128 0-3.616-1.36-3.616-3.568v-1.312c0-2.224 1.264-3.696 3.568-3.696 2.336 0 3.472 1.552 3.472 3.568V68.4h-5.872v.288c0 1.424.736 2.576 2.448 2.576 1.232 0 1.984-.656 2.256-1.584h1.088c-.272 1.472-1.632 2.512-3.344 2.512Zm-2.448-4.976v.256h4.736v-.384c0-1.456-.736-2.544-2.336-2.544-1.76 0-2.4 1.168-2.4 2.672ZM167.78 72v-8.192h1.152V65.2c.384-.928 1.312-1.584 2.736-1.584 1.84 0 3.008 1.248 3.008 3.216V72h-1.216v-4.992c0-1.392-.624-2.336-2.096-2.336-1.344 0-2.368.816-2.368 2.512V72h-1.216Zm16.143-8.192V72h-1.152v-1.392c-.384.928-1.312 1.584-2.736 1.584-1.792 0-2.928-1.248-2.928-3.216v-5.168h1.216V68.8c0 1.392.608 2.368 2.016 2.368 1.344 0 2.368-.848 2.368-2.544v-4.816h1.216ZM186.515 72v-8.192h1.152V65.2c.384-.928 1.28-1.584 2.704-1.584 1.216 0 2.144.608 2.608 1.6.56-.96 1.552-1.6 2.976-1.6 1.792 0 2.944 1.28 2.944 3.216V72h-1.216v-4.992c0-1.392-.688-2.336-2.032-2.336s-2.336.816-2.336 2.512V72h-1.216v-4.992c0-1.392-.688-2.336-2.032-2.336s-2.336.816-2.336 2.512V72h-1.216Zm14.89-11.68h1.216v4.704c.496-.832 1.456-1.408 2.736-1.408 2.064 0 3.392 1.536 3.392 3.664v1.248c0 2.048-1.264 3.664-3.424 3.664-1.36 0-2.416-.72-2.768-1.472V72h-1.152V60.32Zm6.128 8.16v-1.152c0-1.504-.848-2.72-2.4-2.72-1.36 0-2.512 1.04-2.512 2.72v1.056c0 1.584.88 2.816 2.496 2.816 1.696 0 2.416-1.216 2.416-2.72Zm6.62 3.712c-2.128 0-3.616-1.36-3.616-3.568v-1.312c0-2.224 1.264-3.696 3.568-3.696 2.336 0 3.472 1.552 3.472 3.568V68.4h-5.872v.288c0 1.424.736 2.576 2.448 2.576 1.232 0 1.984-.656 2.256-1.584h1.088c-.272 1.472-1.632 2.512-3.344 2.512Zm-2.448-4.976v.256h4.736v-.384c0-1.456-.736-2.544-2.336-2.544-1.76 0-2.4 1.168-2.4 2.672ZM219.796 72v-8.192h1.136v1.888c.304-1.264 1.184-1.936 2.672-1.936h.192v1.136h-.24c-1.552 0-2.544 1.024-2.544 3.088V72h-1.216ZM4.56 92.192c-2.336 0-3.664-1.6-3.664-3.616v-1.344c0-2.016 1.344-3.616 3.664-3.616 2.32 0 3.648 1.6 3.648 3.616v1.344c0 2.016-1.328 3.616-3.648 3.616Zm2.48-4.944c0-1.552-.864-2.656-2.48-2.656s-2.48 1.104-2.48 2.656v1.312c0 1.552.864 2.656 2.48 2.656s2.48-1.104 2.48-2.656v-1.312ZM10.903 92v-7.2h-1.2v-.992h1.2V82.72c0-1.584.704-2.4 2.368-2.4h1.152v.992h-1.056c-.864 0-1.248.4-1.248 1.312v1.184h2.016v.992H12.12V92h-1.216Zm11.797.192c-2.272 0-3.632-1.536-3.632-3.6v-1.376c0-2.064 1.36-3.6 3.632-3.6 2.064 0 3.408 1.344 3.504 3.072h-1.088c-.16-1.104-.848-2.112-2.4-2.112-1.68 0-2.464 1.088-2.464 2.624v1.408c0 1.536.784 2.624 2.464 2.624 1.552 0 2.24-1.008 2.4-2.112h1.088c-.096 1.728-1.44 3.072-3.504 3.072Zm8.985 0c-2.336 0-3.664-1.6-3.664-3.616v-1.344c0-2.016 1.344-3.616 3.664-3.616 2.32 0 3.648 1.6 3.648 3.616v1.344c0 2.016-1.328 3.616-3.648 3.616Zm2.48-4.944c0-1.552-.864-2.656-2.48-2.656s-2.48 1.104-2.48 2.656v1.312c0 1.552.864 2.656 2.48 2.656s2.48-1.104 2.48-2.656v-1.312Zm10.101-3.44V92h-1.152v-1.392c-.384.928-1.312 1.584-2.736 1.584-1.792 0-2.928-1.248-2.928-3.216v-5.168h1.216V88.8c0 1.392.608 2.368 2.016 2.368 1.344 0 2.368-.848 2.368-2.544v-4.816h1.216ZM46.86 92v-8.192h1.151V85.2c.385-.928 1.313-1.584 2.736-1.584 1.84 0 3.008 1.248 3.008 3.216V92H52.54v-4.992c0-1.392-.625-2.336-2.096-2.336-1.344 0-2.368.816-2.368 2.512V92h-1.217Zm13.248 0h-1.024c-1.568 0-2.224-.784-2.224-2.176V84.8h-1.392v-.992h1.392v-2.352h1.216v2.352h2.096v.992h-2.096v5.024c0 .832.304 1.184 1.216 1.184h.816V92Zm2.048 0v-8.192h1.136v1.888c.304-1.264 1.184-1.936 2.672-1.936h.192v1.136h-.24c-1.552 0-2.544 1.024-2.544 3.088V92h-1.216Zm5.721 0v-8.192h1.216V92h-1.216Zm-.16-10.352c0-.432.304-.736.768-.736s.768.304.768.736-.304.736-.768.736-.768-.304-.768-.736Zm7.265 10.544c-2.128 0-3.616-1.36-3.616-3.568v-1.312c0-2.224 1.264-3.696 3.568-3.696 2.336 0 3.472 1.552 3.472 3.568V88.4h-5.872v.288c0 1.424.736 2.576 2.448 2.576 1.232 0 1.984-.656 2.256-1.584h1.088c-.272 1.472-1.632 2.512-3.344 2.512Zm-2.448-4.976v.256h4.736v-.384c0-1.456-.736-2.544-2.336-2.544-1.76 0-2.4 1.168-2.4 2.672Zm11.1 4.976c-1.985 0-3.393-.992-3.393-2.576v-.08h1.104v.048c0 1.024.96 1.696 2.304 1.696 1.264 0 2.176-.496 2.176-1.552 0-.576-.368-.992-1.024-1.136l-2.432-.56c-1.216-.272-1.92-1.008-1.92-2.08 0-1.536 1.296-2.336 3.104-2.336 1.712 0 3.04 1.04 3.04 2.56v.08h-1.104v-.048c0-1.008-.736-1.68-1.952-1.68-1.136 0-1.968.48-1.968 1.392 0 .56.272.912.864 1.056l2.512.592c1.264.304 2.016.928 2.016 2.112 0 1.456-1.408 2.512-3.328 2.512ZM93.137 92v-7.2h-1.2v-.992h1.2V82.72c0-1.584.704-2.4 2.368-2.4h1.152v.992h-1.056c-.864 0-1.248.4-1.248 1.312v1.184h2.016v.992h-2.016V92h-1.216Zm7.86.192c-2.337 0-3.665-1.6-3.665-3.616v-1.344c0-2.016 1.344-3.616 3.665-3.616 2.32 0 3.648 1.6 3.648 3.616v1.344c0 2.016-1.328 3.616-3.648 3.616Zm2.48-4.944c0-1.552-.864-2.656-2.48-2.656-1.617 0-2.48 1.104-2.48 2.656v1.312c0 1.552.864 2.656 2.48 2.656s2.48-1.104 2.48-2.656v-1.312ZM106.843 92v-8.192h1.136v1.888c.304-1.264 1.184-1.936 2.672-1.936h.192v1.136h-.24c-1.552 0-2.544 1.024-2.544 3.088V92h-1.216Zm12.372.192c-2.128 0-3.616-1.36-3.616-3.568v-1.312c0-2.224 1.264-3.696 3.568-3.696 2.336 0 3.472 1.552 3.472 3.568V88.4h-5.872v.288c0 1.424.736 2.576 2.448 2.576 1.232 0 1.984-.656 2.256-1.584h1.088c-.272 1.472-1.632 2.512-3.344 2.512Zm-2.448-4.976v.256h4.736v-.384c0-1.456-.736-2.544-2.336-2.544-1.76 0-2.4 1.168-2.4 2.672ZM131.532 92h-1.168v-1.024c-.352.576-1.456 1.216-2.816 1.216-1.936 0-3.104-1.088-3.104-2.576 0-1.584 1.296-2.56 3.248-2.56 1.296 0 2.16.544 2.624 1.024v-1.52c0-1.12-.736-1.984-2.048-1.984-1.04 0-1.712.48-2.048 1.232h-1.12c.416-1.36 1.568-2.192 3.184-2.192 2.032 0 3.248 1.328 3.248 2.944V92Zm-3.728-.592c1.28 0 2.512-.752 2.512-1.808 0-1.024-1.216-1.744-2.448-1.744-1.36 0-2.272.64-2.272 1.776 0 1.136.944 1.776 2.208 1.776Zm9.458.784c-2.272 0-3.632-1.536-3.632-3.6v-1.376c0-2.064 1.36-3.6 3.632-3.6 2.064 0 3.408 1.344 3.504 3.072h-1.088c-.16-1.104-.848-2.112-2.4-2.112-1.68 0-2.464 1.088-2.464 2.624v1.408c0 1.536.784 2.624 2.464 2.624 1.552 0 2.24-1.008 2.4-2.112h1.088c-.096 1.728-1.44 3.072-3.504 3.072Zm5.722-.192V80.32h1.216v4.752c.464-.848 1.312-1.456 2.672-1.456 1.84 0 3.008 1.248 3.008 3.216V92h-1.216v-4.992c0-1.392-.624-2.336-2.096-2.336-1.344 0-2.368.816-2.368 2.512V92h-1.216Zm16.153.192c-2.272 0-3.632-1.536-3.632-3.6v-1.376c0-2.064 1.36-3.6 3.632-3.6 2.064 0 3.408 1.344 3.504 3.072h-1.088c-.16-1.104-.848-2.112-2.4-2.112-1.68 0-2.464 1.088-2.464 2.624v1.408c0 1.536.784 2.624 2.464 2.624 1.552 0 2.24-1.008 2.4-2.112h1.088c-.096 1.728-1.44 3.072-3.504 3.072ZM171.579 92h-1.168v-1.024c-.352.576-1.456 1.216-2.816 1.216-1.936 0-3.104-1.088-3.104-2.576 0-1.584 1.296-2.56 3.248-2.56 1.296 0 2.16.544 2.624 1.024v-1.52c0-1.12-.736-1.984-2.048-1.984-1.04 0-1.712.48-2.048 1.232h-1.12c.415-1.36 1.568-2.192 3.184-2.192 2.032 0 3.248 1.328 3.248 2.944V92Zm-3.728-.592c1.28 0 2.512-.752 2.512-1.808 0-1.024-1.216-1.744-2.448-1.744-1.36 0-2.272.64-2.272 1.776 0 1.136.944 1.776 2.208 1.776Zm10.037.592h-1.024c-1.568 0-2.224-.784-2.224-2.176V84.8h-1.392v-.992h1.392v-2.352h1.216v2.352h2.096v.992h-2.096v5.024c0 .832.304 1.184 1.216 1.184h.816V92Zm5.187.192c-2.128 0-3.616-1.36-3.616-3.568v-1.312c0-2.224 1.264-3.696 3.568-3.696 2.336 0 3.472 1.552 3.472 3.568V88.4h-5.872v.288c0 1.424.736 2.576 2.448 2.576 1.232 0 1.984-.656 2.256-1.584h1.088c-.272 1.472-1.632 2.512-3.344 2.512Zm-2.448-4.976v.256h4.736v-.384c0-1.456-.736-2.544-2.336-2.544-1.76 0-2.4 1.168-2.4 2.672Zm11.387 7.76c-1.632 0-3.104-.752-3.552-2.096h1.2c.448.784 1.232 1.136 2.352 1.136 1.424 0 2.4-.8 2.4-2.048v-1.856c-.256.752-1.376 1.552-2.752 1.552-2.128 0-3.344-1.52-3.344-3.344v-1.36c0-1.856 1.2-3.344 3.36-3.344 1.536 0 2.448.832 2.784 1.552v-1.36h1.168V92c0 1.696-1.536 2.976-3.616 2.976Zm-.112-4.304c1.392 0 2.512-.928 2.512-2.48v-1.056c0-1.392-1.056-2.528-2.464-2.528-1.6 0-2.432.88-2.432 2.448v1.168c0 1.536.816 2.448 2.384 2.448Zm9.58 1.52c-2.336 0-3.664-1.6-3.664-3.616v-1.344c0-2.016 1.344-3.616 3.664-3.616 2.32 0 3.648 1.6 3.648 3.616v1.344c0 2.016-1.328 3.616-3.648 3.616Zm2.48-4.944c0-1.552-.864-2.656-2.48-2.656s-2.48 1.104-2.48 2.656v1.312c0 1.552.864 2.656 2.48 2.656s2.48-1.104 2.48-2.656v-1.312ZM207.327 92v-8.192h1.136v1.888c.304-1.264 1.184-1.936 2.672-1.936h.192v1.136h-.24c-1.552 0-2.544 1.024-2.544 3.088V92h-1.216Zm8.32 2.784h-1.184l1.04-2.784-3.056-8.192h1.2l2.496 6.96 2.4-6.96h1.2L216.719 92l-1.072 2.784Z" />
  <path fill="#fff"
    d="M1.386 21V8.4h8.622v2.088H3.906v3.33h5.562v2.088H3.906V21h-2.52Zm14.345.216c-2.808 0-4.41-1.836-4.41-4.23v-1.332c0-2.394 1.602-4.23 4.41-4.23s4.41 1.836 4.41 4.23v1.332c0 2.394-1.602 4.23-4.41 4.23Zm2.034-4.068v-1.656c0-1.224-.648-2.142-2.034-2.142-1.386 0-2.034.918-2.034 2.142v1.656c0 1.224.648 2.142 2.034 2.142 1.386 0 2.034-.918 2.034-2.142ZM22.142 21v-9.36h2.322v1.818c.306-1.404 1.404-1.89 2.808-1.89h.288v2.43h-.505c-1.602 0-2.465.792-2.465 2.682V21h-2.448Zm16.15-9.576c2.575 0 3.943 1.908 3.943 4.122v1.548c0 2.25-1.404 4.122-3.924 4.122-1.242 0-2.196-.504-2.682-1.224v4.14H33.18V11.64h2.34v1.116c.468-.72 1.422-1.332 2.772-1.332Zm-.593 1.98c-1.242 0-2.07.936-2.07 2.25v1.368c0 1.422.936 2.214 2.052 2.214 1.386 0 2.106-.936 2.106-2.25v-1.332c0-1.242-.666-2.25-2.088-2.25ZM44.237 21v-9.36h2.322v1.818c.306-1.404 1.404-1.89 2.808-1.89h.288v2.43h-.504c-1.602 0-2.466.792-2.466 2.682V21h-2.448Zm10.904.216c-2.807 0-4.41-1.836-4.41-4.23v-1.332c0-2.394 1.602-4.23 4.41-4.23 2.809 0 4.41 1.836 4.41 4.23v1.332c0 2.394-1.602 4.23-4.41 4.23Zm2.035-4.068v-1.656c0-1.224-.648-2.142-2.035-2.142-1.386 0-2.033.918-2.033 2.142v1.656c0 1.224.648 2.142 2.034 2.142 1.386 0 2.033-.918 2.033-2.142Zm3.152 6.984v-1.89h.558c.504 0 .72-.162.72-.612v-9.99h2.448v10.206c0 1.458-.774 2.286-2.43 2.286h-1.296Zm1.08-14.94c0-.81.594-1.422 1.422-1.422s1.422.612 1.422 1.422c0 .81-.594 1.422-1.422 1.422s-1.422-.612-1.422-1.422Zm9.06 12.024c-2.646 0-4.356-1.548-4.356-4.176v-1.278c0-2.538 1.512-4.338 4.32-4.338 2.772 0 4.176 1.854 4.176 4.104v1.638h-6.12v.234c0 1.098.558 2.052 1.98 2.052 1.044 0 1.692-.54 1.926-1.188h2.142c-.324 1.71-1.998 2.952-4.068 2.952Zm-1.98-5.868v.09h3.87v-.234c0-1.17-.612-2.052-1.926-2.052-1.404 0-1.944.936-1.944 2.196Zm12.125 5.868c-2.826 0-4.428-1.782-4.428-4.23v-1.332c0-2.448 1.602-4.23 4.428-4.23 2.502 0 4.194 1.566 4.266 3.708h-2.232c-.108-.918-.684-1.728-1.98-1.728-1.386 0-2.034.9-2.034 2.16v1.512c0 1.26.648 2.16 2.034 2.16 1.296 0 1.872-.81 1.98-1.728h2.232c-.072 2.142-1.764 3.708-4.266 3.708ZM90.087 21c-1.8 0-2.646-1.008-2.646-2.664V13.62h-1.332v-1.98h1.332V9.084h2.466v2.556h1.998v1.98h-1.998v4.536c0 .612.234.864.882.864h.99V21h-1.692Zm7.286.216c-2.376 0-4.032-.99-4.032-2.988v-.162h2.16v.126c0 .81.738 1.296 1.89 1.296 1.026 0 1.782-.414 1.782-1.134 0-.45-.234-.72-.774-.846l-2.772-.63c-1.404-.324-2.142-1.044-2.142-2.466 0-1.926 1.566-2.988 3.78-2.988 2.25 0 3.708 1.134 3.708 2.988v.144h-2.142v-.162c0-.72-.45-1.224-1.53-1.224-.99 0-1.53.36-1.53 1.026 0 .468.234.684.72.792l2.844.702c1.386.342 2.088 1.08 2.088 2.394 0 1.818-1.728 3.132-4.05 3.132Zm22.536-9.576-2.43 9.36h-2.286l-2.052-6.444L111.089 21h-2.286l-2.43-9.36h2.376l1.368 6.282 1.908-6.282h2.232l1.908 6.282 1.368-6.282h2.376Zm1.585 9.36v-9.36h2.448V21h-2.448Zm-.198-11.808c0-.81.594-1.422 1.422-1.422s1.422.612 1.422 1.422c0 .81-.594 1.422-1.422 1.422s-1.422-.612-1.422-1.422ZM129.673 21c-1.8 0-2.646-1.008-2.646-2.664V13.62h-1.332v-1.98h1.332V9.084h2.466v2.556h1.998v1.98h-1.998v4.536c0 .612.234.864.882.864h.99V21h-1.692Zm3.65 0V7.86h2.448v4.896c.486-.81 1.44-1.332 2.646-1.332 2.034 0 3.312 1.368 3.312 3.582V21h-2.448v-5.598c0-1.08-.522-1.854-1.71-1.854-1.098 0-1.8.648-1.8 1.908V21h-2.448Zm17.828.216c-2.106 0-3.546-1.098-3.546-2.916 0-2.034 1.53-2.97 3.78-2.97 1.116 0 1.944.432 2.376.792v-1.278c0-.864-.612-1.512-1.62-1.512-.846 0-1.368.378-1.62.882h-2.268c.54-1.818 1.998-2.79 4.014-2.79 2.34 0 3.942 1.422 3.942 3.6V21h-2.358v-.864c-.432.63-1.62 1.08-2.7 1.08Zm.63-1.62c1.08 0 1.98-.594 1.98-1.386 0-.828-.81-1.314-1.908-1.314-1.152 0-1.872.468-1.872 1.332 0 .864.774 1.368 1.8 1.368ZM5.22 43.216c-2.826 0-4.428-1.782-4.428-4.23v-1.332c0-2.448 1.602-4.23 4.428-4.23 2.502 0 4.194 1.566 4.266 3.708H7.254c-.108-.918-.684-1.728-1.98-1.728-1.386 0-2.034.9-2.034 2.16v1.512c0 1.26.648 2.16 2.034 2.16 1.296 0 1.872-.81 1.98-1.728h2.232c-.072 2.142-1.764 3.708-4.266 3.708Zm10.211 0c-2.646 0-4.356-1.548-4.356-4.176v-1.278c0-2.538 1.512-4.338 4.32-4.338 2.772 0 4.176 1.854 4.176 4.104v1.638h-6.12v.234c0 1.098.558 2.052 1.98 2.052 1.044 0 1.692-.54 1.926-1.188H19.5c-.324 1.71-1.998 2.952-4.068 2.952Zm-1.98-5.868v.09h3.87v-.234c0-1.17-.612-2.052-1.926-2.052-1.404 0-1.944.936-1.944 2.196ZM21.561 43v-9.36h2.34v1.116c.468-.864 1.422-1.332 2.755-1.332 2.034 0 3.312 1.332 3.312 3.582V43H27.52v-5.598c0-1.08-.523-1.854-1.71-1.854-1.098 0-1.8.648-1.8 1.908V43H21.56Zm13.893 0c-1.8 0-2.646-1.008-2.646-2.664V35.62h-1.332v-1.98h1.332v-2.556h2.466v2.556h1.998v1.98h-1.998v4.536c0 .612.234.864.882.864h.99V43h-1.692Zm3.65 0v-9.36h2.322v1.818c.306-1.404 1.404-1.89 2.808-1.89h.288v2.43h-.504c-1.602 0-2.466.792-2.466 2.682V43h-2.448Zm9.83.216c-2.106 0-3.546-1.098-3.546-2.916 0-2.034 1.53-2.97 3.78-2.97 1.116 0 1.944.432 2.376.792v-1.278c0-.864-.612-1.512-1.62-1.512-.846 0-1.368.378-1.62.882h-2.268c.54-1.818 1.998-2.79 4.014-2.79 2.34 0 3.942 1.422 3.942 3.6V43h-2.358v-.864c-.432.63-1.62 1.08-2.7 1.08Zm.63-1.62c1.08 0 1.98-.594 1.98-1.386 0-.828-.81-1.314-1.908-1.314-1.152 0-1.872.468-1.872 1.332 0 .864.774 1.368 1.8 1.368ZM56.367 43V29.86h2.448V43h-2.448Zm12.89.216c-2.826 0-4.428-1.782-4.428-4.23v-1.332c0-2.448 1.602-4.23 4.428-4.23 2.502 0 4.194 1.566 4.266 3.708h-2.232c-.108-.918-.684-1.728-1.98-1.728-1.386 0-2.034.9-2.034 2.16v1.512c0 1.26.648 2.16 2.034 2.16 1.296 0 1.872-.81 1.98-1.728h2.232c-.072 2.142-1.764 3.708-4.266 3.708ZM75.58 43V29.86h2.448V43H75.58Zm4.975 0v-9.36h2.448V43h-2.448Zm-.198-11.808c0-.81.594-1.422 1.422-1.422s1.422.612 1.422 1.422c0 .81-.594 1.422-1.422 1.422s-1.422-.612-1.422-1.422ZM85.475 43v-9.36h2.34v1.116c.469-.864 1.368-1.332 2.7-1.332 1.207 0 2.142.486 2.7 1.332.684-.882 1.728-1.332 3.096-1.332 1.962 0 3.348 1.332 3.348 3.582V43h-2.448v-5.598c0-1.08-.486-1.854-1.674-1.854-1.08 0-1.746.648-1.746 1.908V43h-2.447v-5.598c0-1.08-.486-1.854-1.674-1.854-1.099 0-1.746.648-1.746 1.908V43h-2.449Zm19.656.216c-2.106 0-3.546-1.098-3.546-2.916 0-2.034 1.53-2.97 3.78-2.97 1.116 0 1.944.432 2.376.792v-1.278c0-.864-.612-1.512-1.62-1.512-.846 0-1.368.378-1.62.882h-2.268c.54-1.818 1.998-2.79 4.014-2.79 2.34 0 3.942 1.422 3.942 3.6V43h-2.358v-.864c-.432.63-1.62 1.08-2.7 1.08Zm.63-1.62c1.08 0 1.98-.594 1.98-1.386 0-.828-.81-1.314-1.908-1.314-1.152 0-1.872.468-1.872 1.332 0 .864.774 1.368 1.8 1.368ZM115.558 43c-1.8 0-2.646-1.008-2.646-2.664V35.62h-1.332v-1.98h1.332v-2.556h2.466v2.556h1.998v1.98h-1.998v4.536c0 .612.234.864.882.864h.99V43h-1.692Zm7.592.216c-2.646 0-4.356-1.548-4.356-4.176v-1.278c0-2.538 1.512-4.338 4.32-4.338 2.772 0 4.176 1.854 4.176 4.104v1.638h-6.12v.234c0 1.098.558 2.052 1.98 2.052 1.044 0 1.692-.54 1.926-1.188h2.142c-.324 1.71-1.998 2.952-4.068 2.952Zm-1.98-5.868v.09h3.87v-.234c0-1.17-.612-2.052-1.926-2.052-1.404 0-1.944.936-1.944 2.196ZM133.775 43v-7.38h-1.188v-1.98h1.188v-.864c0-2.052.972-2.916 2.898-2.916h1.62v1.944h-1.062c-.702 0-1.008.216-1.008.954v.882h1.89v1.98h-1.89V43h-2.448Zm9.732.216c-2.808 0-4.41-1.836-4.41-4.23v-1.332c0-2.394 1.602-4.23 4.41-4.23s4.41 1.836 4.41 4.23v1.332c0 2.394-1.602 4.23-4.41 4.23Zm2.034-4.068v-1.656c0-1.224-.648-2.142-2.034-2.142-1.386 0-2.034.918-2.034 2.142v1.656c0 1.224.648 2.142 2.034 2.142 1.386 0 2.034-.918 2.034-2.142Zm8.39 4.068c-2.826 0-4.428-1.782-4.428-4.23v-1.332c0-2.448 1.602-4.23 4.428-4.23 2.502 0 4.194 1.566 4.266 3.708h-2.232c-.108-.918-.684-1.728-1.98-1.728-1.386 0-2.034.9-2.034 2.16v1.512c0 1.26.648 2.16 2.034 2.16 1.296 0 1.872-.81 1.98-1.728h2.232c-.072 2.142-1.764 3.708-4.266 3.708Zm14.513-9.576V43h-2.34v-1.116c-.432.792-1.512 1.332-2.718 1.332-2.106 0-3.276-1.458-3.276-3.582V33.64h2.448v5.652c0 1.188.558 1.872 1.656 1.872 1.134 0 1.782-.72 1.782-1.89V33.64h2.448Zm6.044 9.576c-2.376 0-4.032-.99-4.032-2.988v-.162h2.16v.126c0 .81.738 1.296 1.89 1.296 1.026 0 1.782-.414 1.782-1.134 0-.45-.234-.72-.774-.846l-2.772-.63c-1.404-.324-2.142-1.044-2.142-2.466 0-1.926 1.566-2.988 3.78-2.988 2.25 0 3.708 1.134 3.708 2.988v.144h-2.142v-.162c0-.72-.45-1.224-1.53-1.224-.99 0-1.53.36-1.53 1.026 0 .468.234.684.72.792l2.844.702c1.386.342 2.088 1.08 2.088 2.394 0 1.818-1.728 3.132-4.05 3.132ZM409.386 21V8.4h8.622v2.088h-6.102v3.33h5.562v2.088h-5.562V21h-2.52Zm14.345.216c-2.808 0-4.41-1.836-4.41-4.23v-1.332c0-2.394 1.602-4.23 4.41-4.23s4.41 1.836 4.41 4.23v1.332c0 2.394-1.602 4.23-4.41 4.23Zm2.034-4.068v-1.656c0-1.224-.648-2.142-2.034-2.142-1.386 0-2.034.918-2.034 2.142v1.656c0 1.224.648 2.142 2.034 2.142 1.386 0 2.034-.918 2.034-2.142ZM430.142 21v-9.36h2.322v1.818c.306-1.404 1.404-1.89 2.808-1.89h.288v2.43h-.504c-1.602 0-2.466.792-2.466 2.682V21h-2.448Zm16.151-9.576c2.574 0 3.942 1.908 3.942 4.122v1.548c0 2.25-1.404 4.122-3.924 4.122-1.242 0-2.196-.504-2.682-1.224v4.14h-2.448V11.64h2.34v1.116c.468-.72 1.422-1.332 2.772-1.332Zm-.594 1.98c-1.242 0-2.07.936-2.07 2.25v1.368c0 1.422.936 2.214 2.052 2.214 1.386 0 2.106-.936 2.106-2.25v-1.332c0-1.242-.666-2.25-2.088-2.25ZM452.237 21v-9.36h2.322v1.818c.306-1.404 1.404-1.89 2.808-1.89h.288v2.43h-.504c-1.602 0-2.466.792-2.466 2.682V21h-2.448Zm10.904.216c-2.808 0-4.41-1.836-4.41-4.23v-1.332c0-2.394 1.602-4.23 4.41-4.23s4.41 1.836 4.41 4.23v1.332c0 2.394-1.602 4.23-4.41 4.23Zm2.034-4.068v-1.656c0-1.224-.648-2.142-2.034-2.142-1.386 0-2.034.918-2.034 2.142v1.656c0 1.224.648 2.142 2.034 2.142 1.386 0 2.034-.918 2.034-2.142Zm3.153 6.984v-1.89h.558c.504 0 .72-.162.72-.612v-9.99h2.448v10.206c0 1.458-.774 2.286-2.43 2.286h-1.296Zm1.08-14.94c0-.81.594-1.422 1.422-1.422s1.422.612 1.422 1.422c0 .81-.594 1.422-1.422 1.422s-1.422-.612-1.422-1.422Zm9.06 12.024c-2.646 0-4.356-1.548-4.356-4.176v-1.278c0-2.538 1.512-4.338 4.32-4.338 2.772 0 4.176 1.854 4.176 4.104v1.638h-6.12v.234c0 1.098.558 2.052 1.98 2.052 1.044 0 1.692-.54 1.926-1.188h2.142c-.324 1.71-1.998 2.952-4.068 2.952Zm-1.98-5.868v.09h3.87v-.234c0-1.17-.612-2.052-1.926-2.052-1.404 0-1.944.936-1.944 2.196Zm12.125 5.868c-2.826 0-4.428-1.782-4.428-4.23v-1.332c0-2.448 1.602-4.23 4.428-4.23 2.502 0 4.194 1.566 4.266 3.708h-2.232c-.108-.918-.684-1.728-1.98-1.728-1.386 0-2.034.9-2.034 2.16v1.512c0 1.26.648 2.16 2.034 2.16 1.296 0 1.872-.81 1.98-1.728h2.232c-.072 2.142-1.764 3.708-4.266 3.708Zm9.474-.216c-1.8 0-2.646-1.008-2.646-2.664V13.62h-1.332v-1.98h1.332V9.084h2.466v2.556h1.998v1.98h-1.998v4.536c0 .612.234.864.882.864h.99V21h-1.692Zm7.286.216c-2.376 0-4.032-.99-4.032-2.988v-.162h2.16v.126c0 .81.738 1.296 1.89 1.296 1.026 0 1.782-.414 1.782-1.134 0-.45-.234-.72-.774-.846l-2.772-.63c-1.404-.324-2.142-1.044-2.142-2.466 0-1.926 1.566-2.988 3.78-2.988 2.25 0 3.708 1.134 3.708 2.988v.144h-2.142v-.162c0-.72-.45-1.224-1.53-1.224-.99 0-1.53.36-1.53 1.026 0 .468.234.684.72.792l2.844.702c1.386.342 2.088 1.08 2.088 2.394 0 1.818-1.728 3.132-4.05 3.132Zm22.536-9.576-2.43 9.36h-2.286l-2.052-6.444L519.089 21h-2.286l-2.43-9.36h2.376l1.368 6.282 1.908-6.282h2.232l1.908 6.282 1.368-6.282h2.376Zm1.585 9.36v-9.36h2.448V21h-2.448Zm-.198-11.808c0-.81.594-1.422 1.422-1.422s1.422.612 1.422 1.422c0 .81-.594 1.422-1.422 1.422s-1.422-.612-1.422-1.422ZM537.673 21c-1.8 0-2.646-1.008-2.646-2.664V13.62h-1.332v-1.98h1.332V9.084h2.466v2.556h1.998v1.98h-1.998v4.536c0 .612.234.864.882.864h.99V21h-1.692Zm3.65 0V7.86h2.448v4.896c.486-.81 1.44-1.332 2.646-1.332 2.034 0 3.312 1.368 3.312 3.582V21h-2.448v-5.598c0-1.08-.522-1.854-1.71-1.854-1.098 0-1.8.648-1.8 1.908V21h-2.448Zm17.828.216c-2.106 0-3.546-1.098-3.546-2.916 0-2.034 1.53-2.97 3.78-2.97 1.116 0 1.944.432 2.376.792v-1.278c0-.864-.612-1.512-1.62-1.512-.846 0-1.368.378-1.62.882h-2.268c.54-1.818 1.998-2.79 4.014-2.79 2.34 0 3.942 1.422 3.942 3.6V21h-2.358v-.864c-.432.63-1.62 1.08-2.7 1.08Zm.63-1.62c1.08 0 1.98-.594 1.98-1.386 0-.828-.81-1.314-1.908-1.314-1.152 0-1.872.468-1.872 1.332 0 .864.774 1.368 1.8 1.368ZM414.318 33.424c2.574 0 3.942 1.908 3.942 4.122v1.548c0 2.25-1.404 4.122-3.924 4.122-1.242 0-2.196-.504-2.682-1.224v4.14h-2.448V33.64h2.34v1.116c.468-.72 1.422-1.332 2.772-1.332Zm-.594 1.98c-1.242 0-2.07.936-2.07 2.25v1.368c0 1.422.936 2.214 2.052 2.214 1.386 0 2.106-.936 2.106-2.25v-1.332c0-1.242-.666-2.25-2.088-2.25Zm9.689 7.812c-2.106 0-3.546-1.098-3.546-2.916 0-2.034 1.53-2.97 3.78-2.97 1.116 0 1.944.432 2.376.792v-1.278c0-.864-.612-1.512-1.62-1.512-.846 0-1.368.378-1.62.882h-2.268c.54-1.818 1.998-2.79 4.014-2.79 2.34 0 3.942 1.422 3.942 3.6V43h-2.358v-.864c-.432.63-1.62 1.08-2.7 1.08Zm.63-1.62c1.08 0 1.98-.594 1.98-1.386 0-.828-.81-1.314-1.908-1.314-1.152 0-1.872.468-1.872 1.332 0 .864.774 1.368 1.8 1.368ZM430.792 43v-9.36h2.322v1.818c.306-1.404 1.404-1.89 2.808-1.89h.288v2.43h-.504c-1.602 0-2.466.792-2.466 2.682V43h-2.448Zm10.342 0c-1.8 0-2.646-1.008-2.646-2.664V35.62h-1.332v-1.98h1.332v-2.556h2.466v2.556h1.998v1.98h-1.998v4.536c0 .612.234.864.882.864h.99V43h-1.692Zm3.704 0v-9.36h2.448V43h-2.448Zm-.198-11.808c0-.81.594-1.422 1.422-1.422s1.422.612 1.422 1.422c0 .81-.594 1.422-1.422 1.422s-1.422-.612-1.422-1.422Zm8.269 12.024c-2.106 0-3.546-1.098-3.546-2.916 0-2.034 1.53-2.97 3.78-2.97 1.116 0 1.944.432 2.376.792v-1.278c0-.864-.612-1.512-1.62-1.512-.846 0-1.368.378-1.62.882h-2.268c.54-1.818 1.998-2.79 4.014-2.79 2.34 0 3.942 1.422 3.942 3.6V43h-2.358v-.864c-.432.63-1.62 1.08-2.7 1.08Zm.63-1.62c1.08 0 1.98-.594 1.98-1.386 0-.828-.81-1.314-1.908-1.314-1.152 0-1.872.468-1.872 1.332 0 .864.774 1.368 1.8 1.368ZM460.342 43V29.86h2.448V43h-2.448Zm12.89.216c-2.826 0-4.428-1.782-4.428-4.23v-1.332c0-2.448 1.602-4.23 4.428-4.23 2.502 0 4.194 1.566 4.266 3.708h-2.232c-.108-.918-.684-1.728-1.98-1.728-1.386 0-2.034.9-2.034 2.16v1.512c0 1.26.648 2.16 2.034 2.16 1.296 0 1.872-.81 1.98-1.728h2.232c-.072 2.142-1.764 3.708-4.266 3.708Zm6.323-.216V29.86h2.448V43h-2.448Zm4.975 0v-9.36h2.448V43h-2.448Zm-.198-11.808c0-.81.594-1.422 1.422-1.422s1.422.612 1.422 1.422c0 .81-.594 1.422-1.422 1.422s-1.422-.612-1.422-1.422ZM489.45 43v-9.36h2.34v1.116c.468-.864 1.368-1.332 2.7-1.332 1.206 0 2.142.486 2.7 1.332.684-.882 1.728-1.332 3.096-1.332 1.962 0 3.348 1.332 3.348 3.582V43h-2.448v-5.598c0-1.08-.486-1.854-1.674-1.854-1.08 0-1.746.648-1.746 1.908V43h-2.448v-5.598c0-1.08-.486-1.854-1.674-1.854-1.098 0-1.746.648-1.746 1.908V43h-2.448Zm19.656.216c-2.106 0-3.546-1.098-3.546-2.916 0-2.034 1.53-2.97 3.78-2.97 1.116 0 1.944.432 2.376.792v-1.278c0-.864-.612-1.512-1.62-1.512-.846 0-1.368.378-1.62.882h-2.268c.54-1.818 1.998-2.79 4.014-2.79 2.34 0 3.942 1.422 3.942 3.6V43h-2.358v-.864c-.432.63-1.62 1.08-2.7 1.08Zm.63-1.62c1.08 0 1.98-.594 1.98-1.386 0-.828-.81-1.314-1.908-1.314-1.152 0-1.872.468-1.872 1.332 0 .864.774 1.368 1.8 1.368ZM519.532 43c-1.8 0-2.646-1.008-2.646-2.664V35.62h-1.332v-1.98h1.332v-2.556h2.466v2.556h1.998v1.98h-1.998v4.536c0 .612.234.864.882.864h.99V43h-1.692Zm7.593.216c-2.646 0-4.356-1.548-4.356-4.176v-1.278c0-2.538 1.512-4.338 4.32-4.338 2.772 0 4.176 1.854 4.176 4.104v1.638h-6.12v.234c0 1.098.558 2.052 1.98 2.052 1.044 0 1.692-.54 1.926-1.188h2.142c-.324 1.71-1.998 2.952-4.068 2.952Zm-1.98-5.868v.09h3.87v-.234c0-1.17-.612-2.052-1.926-2.052-1.404 0-1.944.936-1.944 2.196ZM537.75 43v-7.38h-1.188v-1.98h1.188v-.864c0-2.052.972-2.916 2.898-2.916h1.62v1.944h-1.062c-.702 0-1.008.216-1.008.954v.882h1.89v1.98h-1.89V43h-2.448Zm9.731.216c-2.808 0-4.41-1.836-4.41-4.23v-1.332c0-2.394 1.602-4.23 4.41-4.23s4.41 1.836 4.41 4.23v1.332c0 2.394-1.602 4.23-4.41 4.23Zm2.034-4.068v-1.656c0-1.224-.648-2.142-2.034-2.142-1.386 0-2.034.918-2.034 2.142v1.656c0 1.224.648 2.142 2.034 2.142 1.386 0 2.034-.918 2.034-2.142Zm8.391 4.068c-2.826 0-4.428-1.782-4.428-4.23v-1.332c0-2.448 1.602-4.23 4.428-4.23 2.502 0 4.194 1.566 4.266 3.708h-2.232c-.108-.918-.684-1.728-1.98-1.728-1.386 0-2.034.9-2.034 2.16v1.512c0 1.26.648 2.16 2.034 2.16 1.296 0 1.872-.81 1.98-1.728h2.232c-.072 2.142-1.764 3.708-4.266 3.708Zm14.513-9.576V43h-2.34v-1.116c-.432.792-1.512 1.332-2.718 1.332-2.106 0-3.276-1.458-3.276-3.582V33.64h2.448v5.652c0 1.188.558 1.872 1.656 1.872 1.134 0 1.782-.72 1.782-1.89V33.64h2.448Zm6.044 9.576c-2.376 0-4.032-.99-4.032-2.988v-.162h2.16v.126c0 .81.738 1.296 1.89 1.296 1.026 0 1.782-.414 1.782-1.134 0-.45-.234-.72-.774-.846l-2.772-.63c-1.404-.324-2.142-1.044-2.142-2.466 0-1.926 1.566-2.988 3.78-2.988 2.25 0 3.708 1.134 3.708 2.988v.144h-2.142v-.162c0-.72-.45-1.224-1.53-1.224-.99 0-1.53.36-1.53 1.026 0 .468.234.684.72.792l2.844.702c1.386.342 2.088 1.08 2.088 2.394 0 1.818-1.728 3.132-4.05 3.132ZM809.918 8.4l2.628 9.108 1.818-9.108h2.484l-2.97 12.6h-2.43l-2.754-9.702L805.94 21h-2.43l-2.97-12.6h2.484l1.818 9.108L807.47 8.4h2.448Zm8.673 12.6V7.86h2.448v4.896c.486-.81 1.44-1.332 2.646-1.332 2.034 0 3.312 1.368 3.312 3.582V21h-2.448v-5.598c0-1.08-.522-1.854-1.71-1.854-1.098 0-1.8.648-1.8 1.908V21h-2.448Zm13.872.216c-2.106 0-3.546-1.098-3.546-2.916 0-2.034 1.53-2.97 3.78-2.97 1.116 0 1.944.432 2.376.792v-1.278c0-.864-.612-1.512-1.62-1.512-.846 0-1.368.378-1.62.882h-2.268c.54-1.818 1.998-2.79 4.014-2.79 2.34 0 3.942 1.422 3.942 3.6V21h-2.358v-.864c-.432.63-1.62 1.08-2.7 1.08Zm.63-1.62c1.08 0 1.98-.594 1.98-1.386 0-.828-.81-1.314-1.908-1.314-1.152 0-1.872.468-1.872 1.332 0 .864.774 1.368 1.8 1.368ZM842.89 21c-1.8 0-2.646-1.008-2.646-2.664V13.62h-1.332v-1.98h1.332V9.084h2.466v2.556h1.998v1.98h-1.998v4.536c0 .612.234.864.882.864h.99V21h-1.692Zm10.863 0c-1.8 0-2.646-1.008-2.646-2.664V13.62h-1.332v-1.98h1.332V9.084h2.466v2.556h1.998v1.98h-1.998v4.536c0 .612.234.864.882.864h.99V21h-1.692Zm3.65 0V7.86h2.448v4.896c.486-.81 1.44-1.332 2.646-1.332 2.034 0 3.312 1.368 3.312 3.582V21h-2.448v-5.598c0-1.08-.522-1.854-1.71-1.854-1.098 0-1.8.648-1.8 1.908V21h-2.448Zm14.665.216c-2.646 0-4.356-1.548-4.356-4.176v-1.278c0-2.538 1.512-4.338 4.32-4.338 2.772 0 4.176 1.854 4.176 4.104v1.638h-6.12v.234c0 1.098.558 2.052 1.98 2.052 1.044 0 1.692-.54 1.926-1.188h2.142c-.324 1.71-1.998 2.952-4.068 2.952Zm-1.98-5.868v.09h3.87v-.234c0-1.17-.612-2.052-1.926-2.052-1.404 0-1.944.936-1.944 2.196Zm11.625 8.784h-2.412l.936-3.168-3.24-9.324h2.448l2.016 6.714 1.908-6.714h2.43l-4.086 12.492Zm9.44-3.132v-9.36h2.322v1.818c.306-1.404 1.404-1.89 2.808-1.89h.288v2.43h-.504c-1.602 0-2.466.792-2.466 2.682V21h-2.448Zm10.85.216c-2.646 0-4.356-1.548-4.356-4.176v-1.278c0-2.538 1.512-4.338 4.32-4.338 2.772 0 4.176 1.854 4.176 4.104v1.638h-6.12v.234c0 1.098.558 2.052 1.98 2.052 1.044 0 1.692-.54 1.926-1.188h2.142c-.324 1.71-1.998 2.952-4.068 2.952Zm-1.98-5.868v.09h3.87v-.234c0-1.17-.612-2.052-1.926-2.052-1.404 0-1.944.936-1.944 2.196Zm13.223-3.924c2.574 0 3.942 1.908 3.942 4.122v1.548c0 2.25-1.404 4.122-3.924 4.122-1.242 0-2.196-.504-2.682-1.224v4.14h-2.448V11.64h2.34v1.116c.468-.72 1.422-1.332 2.772-1.332Zm-.594 1.98c-1.242 0-2.07.936-2.07 2.25v1.368c0 1.422.936 2.214 2.052 2.214 1.386 0 2.106-.936 2.106-2.25v-1.332c0-1.242-.666-2.25-2.088-2.25Zm10.534 7.812c-2.808 0-4.41-1.836-4.41-4.23v-1.332c0-2.394 1.602-4.23 4.41-4.23s4.41 1.836 4.41 4.23v1.332c0 2.394-1.602 4.23-4.41 4.23Zm2.034-4.068v-1.656c0-1.224-.648-2.142-2.034-2.142-1.386 0-2.034.918-2.034 2.142v1.656c0 1.224.648 2.142 2.034 2.142 1.386 0 2.034-.918 2.034-2.142ZM929.597 21v-9.36h2.322v1.818c.306-1.404 1.404-1.89 2.808-1.89h.288v2.43h-.504c-1.602 0-2.466.792-2.466 2.682V21h-2.448Zm10.342 0c-1.8 0-2.646-1.008-2.646-2.664V13.62h-1.332v-1.98h1.332V9.084h2.466v2.556h1.998v1.98h-1.998v4.536c0 .612.234.864.882.864h.99V21h-1.692Z" />
  <path stroke="#01FFD8" stroke-dasharray="2 2" stroke-width=".5" d="M347 5v421M734 5v421" />
  <path fill="#C2C2C2"
    d="M478.234 299.468c38.789 0 70.234-31.445 70.234-70.234 0-38.789-31.445-70.234-70.234-70.234C439.445 159 408 190.445 408 229.234c0 38.789 31.445 70.234 70.234 70.234Z" />
  <path fill="#C2C2C2"
    d="M1006.73 332.468c53.43 0 96.74-43.31 96.74-96.734 0-53.425-43.31-96.734-96.74-96.734-53.421 0-96.73 43.309-96.73 96.734 0 53.424 43.309 96.734 96.73 96.734Z"
    opacity=".5" />
  <path fill="#212529"
    d="M467.585 234v-2.672h-5.312v-.912l3.728-7.616h1.12l-3.648 7.6h4.112v-2.656h1.136v2.656h1.552v.928h-1.552V234h-1.136Zm8.502.224c-2.464 0-3.92-1.6-3.92-3.728v-4.192c0-2.128 1.456-3.728 3.92-3.728s3.92 1.6 3.92 3.728v4.192c0 2.128-1.456 3.728-3.92 3.728Zm0-1.008c1.744 0 2.688-1.088 2.688-2.672v-4.288c0-1.584-.944-2.672-2.688-2.672-1.744 0-2.688 1.088-2.688 2.672v4.288c0 1.584.944 2.672 2.688 2.672Zm8.43-4.352c-1.488 0-2.416-.992-2.416-2.4v-1.392c0-1.408.928-2.4 2.416-2.4s2.416.992 2.416 2.4v1.392c0 1.408-.928 2.4-2.416 2.4Zm0-.768c.976 0 1.504-.64 1.504-1.568v-1.52c0-.928-.528-1.568-1.504-1.568s-1.504.64-1.504 1.568v1.52c0 .928.528 1.568 1.504 1.568Zm6.88 6.032c-1.488 0-2.416-.992-2.416-2.4v-1.392c0-1.408.928-2.4 2.416-2.4s2.416.992 2.416 2.4v1.392c0 1.408-.928 2.4-2.416 2.4Zm0-.768c.976 0 1.504-.64 1.504-1.568v-1.52c0-.928-.528-1.568-1.504-1.568s-1.504.64-1.504 1.568v1.52c0 .928.528 1.568 1.504 1.568Zm-6.8.64 5.808-11.2h.928l-5.808 11.2h-.928Z" />
  <path fill="#01FFD8"
    d="M607.346 286.691c31.671 0 57.345-25.674 57.345-57.345S639.017 172 607.346 172 550 197.675 550 229.346c0 31.671 25.675 57.345 57.346 57.345Z" />
  <path fill="#212529"
    d="M579.206 225.224c-3.088 0-4.656-2.096-4.656-4.88v-1.888c0-2.784 1.568-4.88 4.656-4.88 2.592 0 4.24 1.808 4.416 3.92h-1.2c-.192-1.536-1.216-2.88-3.232-2.88-2.288 0-3.392 1.6-3.392 3.792v1.984c0 2.192 1.104 3.792 3.392 3.792 2.016 0 3.04-1.344 3.232-2.88h1.2c-.176 2.112-1.824 3.92-4.416 3.92Zm13.412-.224h-1.168v-1.024c-.352.576-1.456 1.216-2.816 1.216-1.936 0-3.104-1.088-3.104-2.576 0-1.584 1.296-2.56 3.248-2.56 1.296 0 2.16.544 2.624 1.024v-1.52c0-1.12-.736-1.984-2.048-1.984-1.04 0-1.712.48-2.048 1.232h-1.12c.416-1.36 1.568-2.192 3.184-2.192 2.032 0 3.248 1.328 3.248 2.944V225Zm-3.728-.592c1.28 0 2.512-.752 2.512-1.808 0-1.024-1.216-1.744-2.448-1.744-1.36 0-2.272.64-2.272 1.776 0 1.136.944 1.776 2.208 1.776Zm9.234.784c-1.984 0-3.392-.992-3.392-2.576v-.08h1.104v.048c0 1.024.96 1.696 2.304 1.696 1.264 0 2.176-.496 2.176-1.552 0-.576-.368-.992-1.024-1.136l-2.432-.56c-1.216-.272-1.92-1.008-1.92-2.08 0-1.536 1.296-2.336 3.104-2.336 1.712 0 3.04 1.04 3.04 2.56v.08h-1.104v-.048c0-1.008-.736-1.68-1.952-1.68-1.136 0-1.968.48-1.968 1.392 0 .56.272.912.864 1.056l2.512.592c1.264.304 2.016.928 2.016 2.112 0 1.456-1.408 2.512-3.328 2.512Zm8.63 0c-2.128 0-3.616-1.36-3.616-3.568v-1.312c0-2.224 1.264-3.696 3.568-3.696 2.336 0 3.472 1.552 3.472 3.568v1.216h-5.872v.288c0 1.424.736 2.576 2.448 2.576 1.232 0 1.984-.656 2.256-1.584h1.088c-.272 1.472-1.632 2.512-3.344 2.512Zm-2.448-4.976v.256h4.736v-.384c0-1.456-.736-2.544-2.336-2.544-1.76 0-2.4 1.168-2.4 2.672Zm7.868.32v-1.072h4.464v1.072h-4.464Zm6.833-7.216h1.216v4.704c.496-.832 1.456-1.408 2.736-1.408 2.064 0 3.392 1.536 3.392 3.664v1.248c0 2.048-1.264 3.664-3.424 3.664-1.36 0-2.416-.72-2.768-1.472V225h-1.152v-11.68Zm6.128 8.16v-1.152c0-1.504-.848-2.72-2.4-2.72-1.36 0-2.512 1.04-2.512 2.72v1.056c0 1.584.88 2.816 2.496 2.816 1.696 0 2.416-1.216 2.416-2.72Zm5.614 6.304h-1.184l1.04-2.784-3.056-8.192h1.2l2.496 6.96 2.4-6.96h1.2L631.821 225l-1.072 2.784Zm5.284-7.248v-1.072h4.464v1.072h-4.464Zm-41.732 23.656c-2.272 0-3.632-1.536-3.632-3.6v-1.376c0-2.064 1.36-3.6 3.632-3.6 2.064 0 3.408 1.344 3.504 3.072h-1.088c-.16-1.104-.848-2.112-2.4-2.112-1.68 0-2.464 1.088-2.464 2.624v1.408c0 1.536.784 2.624 2.464 2.624 1.552 0 2.24-1.008 2.4-2.112h1.088c-.096 1.728-1.44 3.072-3.504 3.072Zm12.442-.192h-1.168v-1.024c-.352.576-1.456 1.216-2.816 1.216-1.936 0-3.104-1.088-3.104-2.576 0-1.584 1.296-2.56 3.248-2.56 1.296 0 2.16.544 2.624 1.024v-1.52c0-1.12-.736-1.984-2.048-1.984-1.04 0-1.712.48-2.048 1.232h-1.12c.416-1.36 1.568-2.192 3.184-2.192 2.032 0 3.248 1.328 3.248 2.944V244Zm-3.728-.592c1.28 0 2.512-.752 2.512-1.808 0-1.024-1.216-1.744-2.448-1.744-1.36 0-2.272.64-2.272 1.776 0 1.136.944 1.776 2.208 1.776Zm9.234.784c-1.984 0-3.392-.992-3.392-2.576v-.08h1.104v.048c0 1.024.96 1.696 2.304 1.696 1.264 0 2.176-.496 2.176-1.552 0-.576-.368-.992-1.024-1.136l-2.432-.56c-1.216-.272-1.92-1.008-1.92-2.08 0-1.536 1.296-2.336 3.104-2.336 1.712 0 3.04 1.04 3.04 2.56v.08h-1.104v-.048c0-1.008-.736-1.68-1.952-1.68-1.136 0-1.968.48-1.968 1.392 0 .56.272.912.864 1.056l2.512.592c1.264.304 2.016.928 2.016 2.112 0 1.456-1.408 2.512-3.328 2.512Zm8.63 0c-2.128 0-3.616-1.36-3.616-3.568v-1.312c0-2.224 1.264-3.696 3.568-3.696 2.336 0 3.472 1.552 3.472 3.568v1.216h-5.872v.288c0 1.424.736 2.576 2.448 2.576 1.232 0 1.984-.656 2.256-1.584h1.088c-.272 1.472-1.632 2.512-3.344 2.512Zm-2.448-4.976v.256h4.736v-.384c0-1.456-.736-2.544-2.336-2.544-1.76 0-2.4 1.168-2.4 2.672Z" />
  <path fill="#C2C2C2"
    d="M554.349 379.698c28.912 0 52.349-23.437 52.349-52.349 0-28.911-23.437-52.349-52.349-52.349C525.438 275 502 298.438 502 327.349c0 28.912 23.438 52.349 52.349 52.349Z" />
  <path fill="#212529"
    d="M543.14 332.224c-1.856 0-3.44-1.088-3.792-2.976h1.168c.32 1.152 1.216 1.968 2.624 1.968 1.728 0 2.832-1.168 2.832-2.752 0-1.504-1.088-2.72-2.672-2.72-1.168 0-2.016.592-2.544 1.312h-1.168l1.056-6.256h5.584v1.008h-4.608l-.704 4.016c.512-.624 1.52-1.088 2.624-1.088 2.112 0 3.632 1.616 3.632 3.696 0 2.144-1.696 3.792-4.032 3.792Zm10.064 0c-2.464 0-3.92-1.6-3.92-3.728v-4.192c0-2.128 1.456-3.728 3.92-3.728s3.92 1.6 3.92 3.728v4.192c0 2.128-1.456 3.728-3.92 3.728Zm0-1.008c1.744 0 2.688-1.088 2.688-2.672v-4.288c0-1.584-.944-2.672-2.688-2.672-1.744 0-2.688 1.088-2.688 2.672v4.288c0 1.584.944 2.672 2.688 2.672Zm8.43-4.352c-1.488 0-2.416-.992-2.416-2.4v-1.392c0-1.408.928-2.4 2.416-2.4s2.416.992 2.416 2.4v1.392c0 1.408-.928 2.4-2.416 2.4Zm0-.768c.976 0 1.504-.64 1.504-1.568v-1.52c0-.928-.528-1.568-1.504-1.568s-1.504.64-1.504 1.568v1.52c0 .928.528 1.568 1.504 1.568Zm6.88 6.032c-1.488 0-2.416-.992-2.416-2.4v-1.392c0-1.408.928-2.4 2.416-2.4s2.416.992 2.416 2.4v1.392c0 1.408-.928 2.4-2.416 2.4Zm0-.768c.976 0 1.504-.64 1.504-1.568v-1.52c0-.928-.528-1.568-1.504-1.568s-1.504.64-1.504 1.568v1.52c0 .928.528 1.568 1.504 1.568Zm-6.8.64 5.808-11.2h.928l-5.808 11.2h-.928Z" />
  <path fill="#C2C2C2"
    d="M553.55 186.099c22.394 0 40.549-18.155 40.549-40.549 0-22.395-18.155-40.55-40.549-40.55-22.395 0-40.55 18.155-40.55 40.55 0 22.394 18.155 40.549 40.55 40.549Z" />
  <path fill="#212529"
    d="M537.168 151v-9.936l-2.336 1.104v-1.12l2.544-1.248h1.024V151h-1.232Zm7.802.224c-2.464 0-3.92-1.6-3.92-3.728v-4.192c0-2.128 1.456-3.728 3.92-3.728s3.92 1.6 3.92 3.728v4.192c0 2.128-1.456 3.728-3.92 3.728Zm0-1.008c1.744 0 2.688-1.088 2.688-2.672v-4.288c0-1.584-.944-2.672-2.688-2.672-1.744 0-2.688 1.088-2.688 2.672v4.288c0 1.584.944 2.672 2.688 2.672Zm10.078 1.008c-2.464 0-3.92-1.6-3.92-3.728v-4.192c0-2.128 1.456-3.728 3.92-3.728s3.92 1.6 3.92 3.728v4.192c0 2.128-1.456 3.728-3.92 3.728Zm0-1.008c1.744 0 2.688-1.088 2.688-2.672v-4.288c0-1.584-.944-2.672-2.688-2.672-1.744 0-2.688 1.088-2.688 2.672v4.288c0 1.584.944 2.672 2.688 2.672Zm8.43-4.352c-1.488 0-2.416-.992-2.416-2.4v-1.392c0-1.408.928-2.4 2.416-2.4s2.416.992 2.416 2.4v1.392c0 1.408-.928 2.4-2.416 2.4Zm0-.768c.976 0 1.504-.64 1.504-1.568v-1.52c0-.928-.528-1.568-1.504-1.568s-1.504.64-1.504 1.568v1.52c0 .928.528 1.568 1.504 1.568Zm6.88 6.032c-1.488 0-2.416-.992-2.416-2.4v-1.392c0-1.408.928-2.4 2.416-2.4s2.416.992 2.416 2.4v1.392c0 1.408-.928 2.4-2.416 2.4Zm0-.768c.976 0 1.504-.64 1.504-1.568v-1.52c0-.928-.528-1.568-1.504-1.568s-1.504.64-1.504 1.568v1.52c0 .928.528 1.568 1.504 1.568Zm-6.8.64 5.808-11.2h.928l-5.808 11.2h-.928Z" />
  <path fill="#C2C2C2"
    d="M481.109 158.217c18.285 0 33.108-14.823 33.108-33.108 0-18.286-14.823-33.109-33.108-33.109C462.823 92 448 106.823 448 125.109c0 18.285 14.823 33.108 33.109 33.108Z" />
  <path fill="#212529"
    d="M466.065 118.792v-.992h6.528v1.008l-3.584 3.92h.432c2.064 0 3.52 1.248 3.52 3.152 0 1.952-1.76 3.344-3.888 3.344-1.92 0-3.696-1.152-3.776-3.28h1.136c.112 1.424 1.168 2.288 2.656 2.288 1.616 0 2.672-.992 2.672-2.32 0-1.36-1.008-2.272-2.592-2.272h-1.52v-.96l3.456-3.888h-5.04Zm13.014 10.432c-2.464 0-3.92-1.6-3.92-3.728v-4.192c0-2.128 1.456-3.728 3.92-3.728s3.92 1.6 3.92 3.728v4.192c0 2.128-1.456 3.728-3.92 3.728Zm0-1.008c1.744 0 2.688-1.088 2.688-2.672v-4.288c0-1.584-.944-2.672-2.688-2.672-1.744 0-2.688 1.088-2.688 2.672v4.288c0 1.584.944 2.672 2.688 2.672Zm8.43-4.352c-1.488 0-2.416-.992-2.416-2.4v-1.392c0-1.408.928-2.4 2.416-2.4s2.416.992 2.416 2.4v1.392c0 1.408-.928 2.4-2.416 2.4Zm0-.768c.976 0 1.504-.64 1.504-1.568v-1.52c0-.928-.528-1.568-1.504-1.568s-1.504.64-1.504 1.568v1.52c0 .928.528 1.568 1.504 1.568Zm6.88 6.032c-1.488 0-2.416-.992-2.416-2.4v-1.392c0-1.408.928-2.4 2.416-2.4s2.416.992 2.416 2.4v1.392c0 1.408-.928 2.4-2.416 2.4Zm0-.768c.976 0 1.504-.64 1.504-1.568v-1.52c0-.928-.528-1.568-1.504-1.568s-1.504.64-1.504 1.568v1.52c0 .928.528 1.568 1.504 1.568Zm-6.8.64 5.808-11.2h.928l-5.808 11.2h-.928Z" />
  <path fill="#C2C2C2"
    d="M477.411 347.823c12.93 0 23.412-10.482 23.412-23.412 0-12.929-10.482-23.411-23.412-23.411C464.482 301 454 311.482 454 324.411c0 12.93 10.482 23.412 23.411 23.412ZM109.477 338.955c57.149 0 103.478-46.329 103.478-103.478 0-57.149-46.329-103.477-103.478-103.477C52.328 132 6 178.328 6 235.477s46.328 103.478 103.477 103.478Z" />
  <path fill="#212529"
    d="M92.168 240v-9.936l-2.336 1.104v-1.12l2.544-1.248H93.4V240h-1.232Zm7.802.224c-2.464 0-3.92-1.6-3.92-3.728v-4.192c0-2.128 1.456-3.728 3.92-3.728s3.92 1.6 3.92 3.728v4.192c0 2.128-1.456 3.728-3.92 3.728Zm0-1.008c1.744 0 2.688-1.088 2.688-2.672v-4.288c0-1.584-.944-2.672-2.688-2.672-1.744 0-2.688 1.088-2.688 2.672v4.288c0 1.584.944 2.672 2.688 2.672Zm10.078 1.008c-2.464 0-3.92-1.6-3.92-3.728v-4.192c0-2.128 1.456-3.728 3.92-3.728s3.92 1.6 3.92 3.728v4.192c0 2.128-1.456 3.728-3.92 3.728Zm0-1.008c1.744 0 2.688-1.088 2.688-2.672v-4.288c0-1.584-.944-2.672-2.688-2.672-1.744 0-2.688 1.088-2.688 2.672v4.288c0 1.584.944 2.672 2.688 2.672Zm8.43-4.352c-1.488 0-2.416-.992-2.416-2.4v-1.392c0-1.408.928-2.4 2.416-2.4s2.416.992 2.416 2.4v1.392c0 1.408-.928 2.4-2.416 2.4Zm0-.768c.976 0 1.504-.64 1.504-1.568v-1.52c0-.928-.528-1.568-1.504-1.568s-1.504.64-1.504 1.568v1.52c0 .928.528 1.568 1.504 1.568Zm6.88 6.032c-1.488 0-2.416-.992-2.416-2.4v-1.392c0-1.408.928-2.4 2.416-2.4s2.416.992 2.416 2.4v1.392c0 1.408-.928 2.4-2.416 2.4Zm0-.768c.976 0 1.504-.64 1.504-1.568v-1.52c0-.928-.528-1.568-1.504-1.568s-1.504.64-1.504 1.568v1.52c0 .928.528 1.568 1.504 1.568Zm-6.8.64 5.808-11.2h.928l-5.808 11.2h-.928Z" />
  <path fill="#01FFD8"
    d="M260.276 281.553c25.558 0 46.277-20.719 46.277-46.277 0-25.557-20.719-46.276-46.277-46.276C234.719 189 214 209.719 214 235.276c0 25.558 20.719 46.277 46.276 46.277Z" />
  <path fill="#212529"
    d="M232.206 231.724c-3.088 0-4.656-2.096-4.656-4.88v-1.888c0-2.784 1.568-4.88 4.656-4.88 2.592 0 4.24 1.808 4.416 3.92h-1.2c-.192-1.536-1.216-2.88-3.232-2.88-2.288 0-3.392 1.6-3.392 3.792v1.984c0 2.192 1.104 3.792 3.392 3.792 2.016 0 3.04-1.344 3.232-2.88h1.2c-.176 2.112-1.824 3.92-4.416 3.92Zm13.412-.224h-1.168v-1.024c-.352.576-1.456 1.216-2.816 1.216-1.936 0-3.104-1.088-3.104-2.576 0-1.584 1.296-2.56 3.248-2.56 1.296 0 2.16.544 2.624 1.024v-1.52c0-1.12-.736-1.984-2.048-1.984-1.04 0-1.712.48-2.048 1.232h-1.12c.416-1.36 1.568-2.192 3.184-2.192 2.032 0 3.248 1.328 3.248 2.944v5.44Zm-3.728-.592c1.28 0 2.512-.752 2.512-1.808 0-1.024-1.216-1.744-2.448-1.744-1.36 0-2.272.64-2.272 1.776 0 1.136.944 1.776 2.208 1.776Zm9.234.784c-1.984 0-3.392-.992-3.392-2.576v-.08h1.104v.048c0 1.024.96 1.696 2.304 1.696 1.264 0 2.176-.496 2.176-1.552 0-.576-.368-.992-1.024-1.136l-2.432-.56c-1.216-.272-1.92-1.008-1.92-2.08 0-1.536 1.296-2.336 3.104-2.336 1.712 0 3.04 1.04 3.04 2.56v.08h-1.104v-.048c0-1.008-.736-1.68-1.952-1.68-1.136 0-1.968.48-1.968 1.392 0 .56.272.912.864 1.056l2.512.592c1.264.304 2.016.928 2.016 2.112 0 1.456-1.408 2.512-3.328 2.512Zm8.63 0c-2.128 0-3.616-1.36-3.616-3.568v-1.312c0-2.224 1.264-3.696 3.568-3.696 2.336 0 3.472 1.552 3.472 3.568v1.216h-5.872v.288c0 1.424.736 2.576 2.448 2.576 1.232 0 1.984-.656 2.256-1.584h1.088c-.272 1.472-1.632 2.512-3.344 2.512Zm-2.448-4.976v.256h4.736v-.384c0-1.456-.736-2.544-2.336-2.544-1.76 0-2.4 1.168-2.4 2.672Zm7.868.32v-1.072h4.464v1.072h-4.464Zm6.833-7.216h1.216v4.704c.496-.832 1.456-1.408 2.736-1.408 2.064 0 3.392 1.536 3.392 3.664v1.248c0 2.048-1.264 3.664-3.424 3.664-1.36 0-2.416-.72-2.768-1.472v1.28h-1.152v-11.68Zm6.128 8.16v-1.152c0-1.504-.848-2.72-2.4-2.72-1.36 0-2.512 1.04-2.512 2.72v1.056c0 1.584.88 2.816 2.496 2.816 1.696 0 2.416-1.216 2.416-2.72Zm5.614 6.304h-1.184l1.04-2.784-3.056-8.192h1.2l2.496 6.96 2.4-6.96h1.2l-3.024 8.192-1.072 2.784Zm5.284-7.248v-1.072h4.464v1.072h-4.464Zm-41.732 23.656c-2.272 0-3.632-1.536-3.632-3.6v-1.376c0-2.064 1.36-3.6 3.632-3.6 2.064 0 3.408 1.344 3.504 3.072h-1.088c-.16-1.104-.848-2.112-2.4-2.112-1.68 0-2.464 1.088-2.464 2.624v1.408c0 1.536.784 2.624 2.464 2.624 1.552 0 2.24-1.008 2.4-2.112h1.088c-.096 1.728-1.44 3.072-3.504 3.072Zm12.442-.192h-1.168v-1.024c-.352.576-1.456 1.216-2.816 1.216-1.936 0-3.104-1.088-3.104-2.576 0-1.584 1.296-2.56 3.248-2.56 1.296 0 2.16.544 2.624 1.024v-1.52c0-1.12-.736-1.984-2.048-1.984-1.04 0-1.712.48-2.048 1.232h-1.12c.416-1.36 1.568-2.192 3.184-2.192 2.032 0 3.248 1.328 3.248 2.944v5.44Zm-3.728-.592c1.28 0 2.512-.752 2.512-1.808 0-1.024-1.216-1.744-2.448-1.744-1.36 0-2.272.64-2.272 1.776 0 1.136.944 1.776 2.208 1.776Zm9.234.784c-1.984 0-3.392-.992-3.392-2.576v-.08h1.104v.048c0 1.024.96 1.696 2.304 1.696 1.264 0 2.176-.496 2.176-1.552 0-.576-.368-.992-1.024-1.136l-2.432-.56c-1.216-.272-1.92-1.008-1.92-2.08 0-1.536 1.296-2.336 3.104-2.336 1.712 0 3.04 1.04 3.04 2.56v.08h-1.104v-.048c0-1.008-.736-1.68-1.952-1.68-1.136 0-1.968.48-1.968 1.392 0 .56.272.912.864 1.056l2.512.592c1.264.304 2.016.928 2.016 2.112 0 1.456-1.408 2.512-3.328 2.512Zm8.63 0c-2.128 0-3.616-1.36-3.616-3.568v-1.312c0-2.224 1.264-3.696 3.568-3.696 2.336 0 3.472 1.552 3.472 3.568v1.216h-5.872v.288c0 1.424.736 2.576 2.448 2.576 1.232 0 1.984-.656 2.256-1.584h1.088c-.272 1.472-1.632 2.512-3.344 2.512Zm-2.448-4.976v.256h4.736v-.384c0-1.456-.736-2.544-2.336-2.544-1.76 0-2.4 1.168-2.4 2.672Z" />
  <path fill="#C2C2C2"
    d="M223.138 318.276c12.779 0 23.138-10.359 23.138-23.138 0-12.779-10.359-23.138-23.138-23.138C210.359 272 200 282.359 200 295.138c0 12.779 10.359 23.138 23.138 23.138Z" />
  <path fill="#fff" d="M839 233a6 6 0 1 0 0-12 6 6 0 0 0 0 12Z" />
  <path fill="#01FFD8"
    d="M1034 231c3.31 0 6-2.686 6-6s-2.69-6-6-6-6 2.686-6 6 2.69 6 6 6ZM1040 210c3.31 0 6-2.686 6-6s-2.69-6-6-6-6 2.686-6 6 2.69 6 6 6ZM1022 272c3.31 0 6-2.686 6-6s-2.69-6-6-6-6 2.686-6 6 2.69 6 6 6ZM1041 286c3.31 0 6-2.686 6-6s-2.69-6-6-6-6 2.686-6 6 2.69 6 6 6ZM1061 286c3.31 0 6-2.686 6-6s-2.69-6-6-6-6 2.686-6 6 2.69 6 6 6ZM1017 214c3.31 0 6-2.686 6-6s-2.69-6-6-6-6 2.686-6 6 2.69 6 6 6Z" />
  <path fill="#fff" d="M833 252a6 6 0 1 0 0-12 6 6 0 0 0 0 12Z" />
  <path fill="#01FFD8" d="M1028 250c3.31 0 6-2.686 6-6s-2.69-6-6-6-6 2.686-6 6 2.69 6 6 6Z" />
  <path fill="#fff" d="M852 247a6 6 0 1 0 0-12 6 6 0 0 0 0 12Z" />
  <path fill="#01FFD8" d="M1047 245c3.31 0 6-2.686 6-6s-2.69-6-6-6-6 2.686-6 6 2.69 6 6 6Z" />
  <path fill="#fff" d="M858 227a6 6 0 1 0 0-12 6 6 0 0 0 0 12Z" />
  <path fill="#01FFD8" d="M1053 225c3.31 0 6-2.686 6-6s-2.69-6-6-6-6 2.686-6 6 2.69 6 6 6Z" />
  <path fill="#fff" d="M845 265a6 6 0 1 0 0-12 6 6 0 0 0 0 12Z" />
  <path fill="#01FFD8" d="M1040 265c3.31 0 6-2.686 6-6s-2.69-6-6-6-6 2.686-6 6 2.69 6 6 6Z" />
  <path fill="#fff" d="M865 268a6 6 0 1 0 0-12 6 6 0 0 0 0 12Z" />
  <path fill="#01FFD8" d="M1060 266c3.31 0 6-2.686 6-6s-2.69-6-6-6-6 2.686-6 6 2.69 6 6 6Z" />
  <path fill="#fff" d="M870 251a6 6 0 1 0 0-12 6 6 0 0 0 0 12Z" />
  <path fill="#01FFD8" d="M1065 249c3.31 0 6-2.686 6-6s-2.69-6-6-6-6 2.686-6 6 2.69 6 6 6Z" />
  <path fill="#fff" d="M877 227a6 6 0 1 0 0-12 6 6 0 0 0 0 12Z" />
  <path fill="#01FFD8" d="M1072 225c3.31 0 6-2.686 6-6s-2.69-6-6-6-6 2.686-6 6 2.69 6 6 6Z" />
  <path fill="#fff" d="M870 210a6 6 0 1 0 0-12 6 6 0 0 0 0 12Z" />
  <path fill="#01FFD8" d="M1065 208c3.31 0 6-2.686 6-6s-2.69-6-6-6-6 2.686-6 6 2.69 6 6 6Z" />
  <path fill="#212529"
    d="M211.321 300.224c-2.272 0-3.888-1.296-3.888-3.2 0-1.712 1.184-2.608 2.256-2.848-1.072-.48-1.792-1.36-1.792-2.608 0-1.856 1.424-2.992 3.424-2.992s3.424 1.136 3.424 2.992c0 1.248-.72 2.128-1.792 2.608 1.072.24 2.256 1.136 2.256 2.848 0 1.904-1.616 3.2-3.888 3.2Zm0-.928c1.536 0 2.704-.912 2.704-2.272 0-1.456-1.104-2.32-2.704-2.32s-2.704.864-2.704 2.32c0 1.36 1.168 2.272 2.704 2.272Zm-2.272-7.648c0 1.168.96 2.128 2.272 2.128 1.312 0 2.272-.96 2.272-2.128 0-1.312-.896-2.144-2.272-2.144s-2.272.832-2.272 2.144Zm12.27 8.576c-1.856 0-3.44-1.088-3.792-2.976h1.168c.32 1.152 1.216 1.968 2.624 1.968 1.728 0 2.832-1.168 2.832-2.752 0-1.504-1.088-2.72-2.672-2.72-1.168 0-2.016.592-2.544 1.312h-1.168l1.056-6.256h5.584v1.008h-4.608l-.704 4.016c.512-.624 1.52-1.088 2.624-1.088 2.112 0 3.632 1.616 3.632 3.696 0 2.144-1.696 3.792-4.032 3.792Zm8.214-5.36c-1.488 0-2.416-.992-2.416-2.4v-1.392c0-1.408.928-2.4 2.416-2.4s2.416.992 2.416 2.4v1.392c0 1.408-.928 2.4-2.416 2.4Zm0-.768c.976 0 1.504-.64 1.504-1.568v-1.52c0-.928-.528-1.568-1.504-1.568s-1.504.64-1.504 1.568v1.52c0 .928.528 1.568 1.504 1.568Zm6.88 6.032c-1.488 0-2.416-.992-2.416-2.4v-1.392c0-1.408.928-2.4 2.416-2.4s2.416.992 2.416 2.4v1.392c0 1.408-.928 2.4-2.416 2.4Zm0-.768c.976 0 1.504-.64 1.504-1.568v-1.52c0-.928-.528-1.568-1.504-1.568s-1.504.64-1.504 1.568v1.52c0 .928.528 1.568 1.504 1.568Zm-6.8.64 5.808-11.2h.928l-5.808 11.2h-.928Z" />
  <path fill="#C2C2C2"
    d="M222.642 198.311c12.778 0 23.138-10.359 23.138-23.138 0-12.779-10.36-23.138-23.138-23.138-12.779 0-23.139 10.359-23.139 23.138 0 12.779 10.36 23.138 23.139 23.138Z" />
  <path fill="#212529"
    d="M211.436 170.168c-1.848 0-2.94-1.2-2.94-2.796v-3.144c0-1.596 1.092-2.796 2.94-2.796 1.848 0 2.94 1.2 2.94 2.796v3.144c0 1.596-1.092 2.796-2.94 2.796Zm0-.756c1.308 0 2.016-.816 2.016-2.004v-3.216c0-1.188-.708-2.004-2.016-2.004s-2.016.816-2.016 2.004v3.216c0 1.188.708 2.004 2.016 2.004Zm6.323-3.264c-1.116 0-1.812-.744-1.812-1.8v-1.044c0-1.056.696-1.8 1.812-1.8s1.812.744 1.812 1.8v1.044c0 1.056-.696 1.8-1.812 1.8Zm0-.576c.732 0 1.128-.48 1.128-1.176v-1.14c0-.696-.396-1.176-1.128-1.176-.732 0-1.128.48-1.128 1.176v1.14c0 .696.396 1.176 1.128 1.176Zm5.16 4.524c-1.116 0-1.812-.744-1.812-1.8v-1.044c0-1.056.696-1.8 1.812-1.8s1.812.744 1.812 1.8v1.044c0 1.056-.696 1.8-1.812 1.8Zm0-.576c.732 0 1.128-.48 1.128-1.176v-1.14c0-.696-.396-1.176-1.128-1.176-.732 0-1.128.48-1.128 1.176v1.14c0 .696.396 1.176 1.128 1.176Zm-5.1.48 4.356-8.4h.696l-4.356 8.4h-.696Zm13.882.144c-1.752 0-2.748-1.2-2.748-2.712v-1.008c0-1.512 1.008-2.712 2.748-2.712 1.74 0 2.736 1.2 2.736 2.712v1.008c0 1.512-.996 2.712-2.736 2.712Zm1.86-3.708c0-1.164-.648-1.992-1.86-1.992-1.212 0-1.86.828-1.86 1.992v.984c0 1.164.648 1.992 1.86 1.992 1.212 0 1.86-.828 1.86-1.992v-.984Zm2.524 3.564v-6.144h.852v1.416c.228-.948.888-1.452 2.004-1.452h.144v.852h-.18c-1.164 0-1.908.768-1.908 2.316V170h-.912Zm-25.209 14v-7.452l-1.752.828v-.84l1.908-.936h.768v8.4h-.924Zm5.851.168c-1.848 0-2.94-1.2-2.94-2.796v-3.144c0-1.596 1.092-2.796 2.94-2.796 1.848 0 2.94 1.2 2.94 2.796v3.144c0 1.596-1.092 2.796-2.94 2.796Zm0-.756c1.308 0 2.016-.816 2.016-2.004v-3.216c0-1.188-.708-2.004-2.016-2.004s-2.016.816-2.016 2.004v3.216c0 1.188.708 2.004 2.016 2.004Zm7.559.756c-1.848 0-2.94-1.2-2.94-2.796v-3.144c0-1.596 1.092-2.796 2.94-2.796 1.848 0 2.94 1.2 2.94 2.796v3.144c0 1.596-1.092 2.796-2.94 2.796Zm0-.756c1.308 0 2.016-.816 2.016-2.004v-3.216c0-1.188-.708-2.004-2.016-2.004s-2.016.816-2.016 2.004v3.216c0 1.188.708 2.004 2.016 2.004Zm6.322-3.264c-1.116 0-1.812-.744-1.812-1.8v-1.044c0-1.056.696-1.8 1.812-1.8s1.812.744 1.812 1.8v1.044c0 1.056-.696 1.8-1.812 1.8Zm0-.576c.732 0 1.128-.48 1.128-1.176v-1.14c0-.696-.396-1.176-1.128-1.176-.732 0-1.128.48-1.128 1.176v1.14c0 .696.396 1.176 1.128 1.176Zm5.16 4.524c-1.116 0-1.812-.744-1.812-1.8v-1.044c0-1.056.696-1.8 1.812-1.8s1.812.744 1.812 1.8v1.044c0 1.056-.696 1.8-1.812 1.8Zm0-.576c.732 0 1.128-.48 1.128-1.176v-1.14c0-.696-.396-1.176-1.128-1.176-.732 0-1.128.48-1.128 1.176v1.14c0 .696.396 1.176 1.128 1.176Zm-5.1.48 4.356-8.4h.696l-4.356 8.4h-.696ZM465.436 321.168c-1.848 0-2.94-1.2-2.94-2.796v-3.144c0-1.596 1.092-2.796 2.94-2.796 1.848 0 2.94 1.2 2.94 2.796v3.144c0 1.596-1.092 2.796-2.94 2.796Zm0-.756c1.308 0 2.016-.816 2.016-2.004v-3.216c0-1.188-.708-2.004-2.016-2.004s-2.016.816-2.016 2.004v3.216c0 1.188.708 2.004 2.016 2.004Zm6.323-3.264c-1.116 0-1.812-.744-1.812-1.8v-1.044c0-1.056.696-1.8 1.812-1.8s1.812.744 1.812 1.8v1.044c0 1.056-.696 1.8-1.812 1.8Zm0-.576c.732 0 1.128-.48 1.128-1.176v-1.14c0-.696-.396-1.176-1.128-1.176-.732 0-1.128.48-1.128 1.176v1.14c0 .696.396 1.176 1.128 1.176Zm5.16 4.524c-1.116 0-1.812-.744-1.812-1.8v-1.044c0-1.056.696-1.8 1.812-1.8s1.812.744 1.812 1.8v1.044c0 1.056-.696 1.8-1.812 1.8Zm0-.576c.732 0 1.128-.48 1.128-1.176v-1.14c0-.696-.396-1.176-1.128-1.176-.732 0-1.128.48-1.128 1.176v1.14c0 .696.396 1.176 1.128 1.176Zm-5.1.48 4.356-8.4h.696l-4.356 8.4h-.696Zm13.882.144c-1.752 0-2.748-1.2-2.748-2.712v-1.008c0-1.512 1.008-2.712 2.748-2.712 1.74 0 2.736 1.2 2.736 2.712v1.008c0 1.512-.996 2.712-2.736 2.712Zm1.86-3.708c0-1.164-.648-1.992-1.86-1.992-1.212 0-1.86.828-1.86 1.992v.984c0 1.164.648 1.992 1.86 1.992 1.212 0 1.86-.828 1.86-1.992v-.984Zm2.524 3.564v-6.144h.852v1.416c.228-.948.888-1.452 2.004-1.452h.144v.852h-.18c-1.164 0-1.908.768-1.908 2.316V321h-.912Zm-25.209 14v-7.452l-1.752.828v-.84l1.908-.936h.768v8.4h-.924Zm5.851.168c-1.848 0-2.94-1.2-2.94-2.796v-3.144c0-1.596 1.092-2.796 2.94-2.796 1.848 0 2.94 1.2 2.94 2.796v3.144c0 1.596-1.092 2.796-2.94 2.796Zm0-.756c1.308 0 2.016-.816 2.016-2.004v-3.216c0-1.188-.708-2.004-2.016-2.004s-2.016.816-2.016 2.004v3.216c0 1.188.708 2.004 2.016 2.004Zm7.559.756c-1.848 0-2.94-1.2-2.94-2.796v-3.144c0-1.596 1.092-2.796 2.94-2.796 1.848 0 2.94 1.2 2.94 2.796v3.144c0 1.596-1.092 2.796-2.94 2.796Zm0-.756c1.308 0 2.016-.816 2.016-2.004v-3.216c0-1.188-.708-2.004-2.016-2.004s-2.016.816-2.016 2.004v3.216c0 1.188.708 2.004 2.016 2.004Zm6.322-3.264c-1.116 0-1.812-.744-1.812-1.8v-1.044c0-1.056.696-1.8 1.812-1.8s1.812.744 1.812 1.8v1.044c0 1.056-.696 1.8-1.812 1.8Zm0-.576c.732 0 1.128-.48 1.128-1.176v-1.14c0-.696-.396-1.176-1.128-1.176-.732 0-1.128.48-1.128 1.176v1.14c0 .696.396 1.176 1.128 1.176Zm5.16 4.524c-1.116 0-1.812-.744-1.812-1.8v-1.044c0-1.056.696-1.8 1.812-1.8s1.812.744 1.812 1.8v1.044c0 1.056-.696 1.8-1.812 1.8Zm0-.576c.732 0 1.128-.48 1.128-1.176v-1.14c0-.696-.396-1.176-1.128-1.176-.732 0-1.128.48-1.128 1.176v1.14c0 .696.396 1.176 1.128 1.176Zm-5.1.48 4.356-8.4h.696l-4.356 8.4h-.696Z" />
  <path fill="#01FFD8"
    d="M979.456 107.8h4.208c2.848 0 4.416 1.808 4.416 4.304v2.592c0 2.496-1.568 4.304-4.416 4.304h-4.208v-11.2Zm4.032 10.176c2.208 0 3.36-1.328 3.36-3.28v-2.592c0-1.952-1.152-3.28-3.36-3.28h-2.8v9.152h2.8Zm7.076 1.024v-8.192h1.216V119h-1.216Zm-.16-10.352c0-.432.304-.736.768-.736s.768.304.768.736-.304.736-.768.736-.768-.304-.768-.736Zm7.056 10.544c-1.984 0-3.392-.992-3.392-2.576v-.08h1.104v.048c0 1.024.96 1.696 2.304 1.696 1.264 0 2.176-.496 2.176-1.552 0-.576-.368-.992-1.024-1.136l-2.432-.56c-1.216-.272-1.92-1.008-1.92-2.08 0-1.536 1.296-2.336 3.104-2.336 1.712 0 3.04 1.04 3.04 2.56v.08h-1.104v-.048c0-1.008-.736-1.68-1.952-1.68-1.136 0-1.968.48-1.968 1.392 0 .56.272.912.864 1.056l2.512.592c1.268.304 2.018.928 2.018 2.112 0 1.456-1.41 2.512-3.33 2.512Zm5.41-11.872h1.22v4.704c.5-.832 1.46-1.408 2.74-1.408 2.06 0 3.39 1.536 3.39 3.664v1.248c0 2.048-1.27 3.664-3.43 3.664-1.36 0-2.41-.72-2.76-1.472V119h-1.16v-11.68Zm6.13 8.16v-1.152c0-1.504-.85-2.72-2.4-2.72-1.36 0-2.51 1.04-2.51 2.72v1.056c0 1.584.88 2.816 2.5 2.816 1.69 0 2.41-1.216 2.41-2.72Zm10.14-4.672V119h-1.15v-1.392c-.38.928-1.31 1.584-2.74 1.584-1.79 0-2.92-1.248-2.92-3.216v-5.168h1.21v4.992c0 1.392.61 2.368 2.02 2.368 1.34 0 2.37-.848 2.37-2.544v-4.816h1.21Zm2.59 8.192v-8.192h1.14v1.888c.3-1.264 1.18-1.936 2.67-1.936h.19v1.136h-.24c-1.55 0-2.54 1.024-2.54 3.088V119h-1.22Zm8.57.192c-1.98 0-3.39-.992-3.39-2.576v-.08h1.11v.048c0 1.024.96 1.696 2.3 1.696 1.26 0 2.18-.496 2.18-1.552 0-.576-.37-.992-1.03-1.136l-2.43-.56c-1.22-.272-1.92-1.008-1.92-2.08 0-1.536 1.3-2.336 3.1-2.336 1.72 0 3.04 1.04 3.04 2.56v.08h-1.1v-.048c0-1.008-.74-1.68-1.95-1.68-1.14 0-1.97.48-1.97 1.392 0 .56.27.912.86 1.056l2.52.592c1.26.304 2.01.928 2.01 2.112 0 1.456-1.41 2.512-3.33 2.512Zm8.63 0c-2.12 0-3.61-1.36-3.61-3.568v-1.312c0-2.224 1.26-3.696 3.57-3.696 2.33 0 3.47 1.552 3.47 3.568v1.216h-5.87v.288c0 1.424.73 2.576 2.44 2.576 1.24 0 1.99-.656 2.26-1.584h1.09c-.27 1.472-1.63 2.512-3.35 2.512Zm-2.44-4.976v.256h4.73v-.384c0-1.456-.73-2.544-2.33-2.544-1.76 0-2.4 1.168-2.4 2.672Zm8.09 4.784v-8.192h1.15v1.392c.38-.928 1.28-1.584 2.7-1.584 1.22 0 2.15.608 2.61 1.6.56-.96 1.55-1.6 2.98-1.6 1.79 0 2.94 1.28 2.94 3.216V119h-1.21v-4.992c0-1.392-.69-2.336-2.04-2.336-1.34 0-2.33.816-2.33 2.512V119h-1.22v-4.992c0-1.392-.69-2.336-2.03-2.336-1.34 0-2.34.816-2.34 2.512V119h-1.21Zm18.1.192c-2.12 0-3.61-1.36-3.61-3.568v-1.312c0-2.224 1.26-3.696 3.57-3.696 2.33 0 3.47 1.552 3.47 3.568v1.216h-5.87v.288c0 1.424.73 2.576 2.44 2.576 1.24 0 1.99-.656 2.26-1.584h1.09c-.27 1.472-1.63 2.512-3.35 2.512Zm-2.44-4.976v.256h4.73v-.384c0-1.456-.73-2.544-2.33-2.544-1.76 0-2.4 1.168-2.4 2.672Zm8.09 4.784v-8.192h1.15v1.392c.38-.928 1.31-1.584 2.74-1.584 1.84 0 3 1.248 3 3.216V119h-1.21v-4.992c0-1.392-.63-2.336-2.1-2.336-1.34 0-2.37.816-2.37 2.512V119h-1.21Zm13.25 0h-1.03c-1.57 0-2.22-.784-2.22-2.176V111.8h-1.39v-.992h1.39v-2.352h1.21v2.352h2.1v.992h-2.1v5.024c0 .832.31 1.184 1.22 1.184h.82V119Zm5.01.192c-1.99 0-3.4-.992-3.4-2.576v-.08h1.11v.048c0 1.024.96 1.696 2.3 1.696 1.27 0 2.18-.496 2.18-1.552 0-.576-.37-.992-1.03-1.136l-2.43-.56c-1.21-.272-1.92-1.008-1.92-2.08 0-1.536 1.3-2.336 3.11-2.336 1.71 0 3.04 1.04 3.04 2.56v.08h-1.11v-.048c0-1.008-.73-1.68-1.95-1.68-1.14 0-1.97.48-1.97 1.392 0 .56.27.912.87 1.056l2.51.592c1.26.304 2.01.928 2.01 2.112 0 1.456-1.4 2.512-3.32 2.512Z" />
  <path fill="#fff"
    d="M805.776 120.224c-3.088 0-4.656-2.096-4.656-4.88v-1.888c0-2.784 1.568-4.88 4.656-4.88 2.592 0 4.24 1.808 4.416 3.92h-1.2c-.192-1.536-1.216-2.88-3.232-2.88-2.288 0-3.392 1.6-3.392 3.792v1.984c0 2.192 1.104 3.792 3.392 3.792 2.016 0 3.04-1.344 3.232-2.88h1.2c-.176 2.112-1.824 3.92-4.416 3.92Zm10.003-.032c-2.336 0-3.664-1.6-3.664-3.616v-1.344c0-2.016 1.344-3.616 3.664-3.616 2.32 0 3.648 1.6 3.648 3.616v1.344c0 2.016-1.328 3.616-3.648 3.616Zm2.48-4.944c0-1.552-.864-2.656-2.48-2.656s-2.48 1.104-2.48 2.656v1.312c0 1.552.864 2.656 2.48 2.656s2.48-1.104 2.48-2.656v-1.312Zm3.365 4.752v-8.192h1.152v1.392c.384-.928 1.28-1.584 2.704-1.584 1.216 0 2.144.608 2.608 1.6.56-.96 1.552-1.6 2.976-1.6 1.792 0 2.944 1.28 2.944 3.216V120h-1.216v-4.992c0-1.392-.688-2.336-2.032-2.336s-2.336.816-2.336 2.512V120h-1.216v-4.992c0-1.392-.688-2.336-2.032-2.336s-2.336.816-2.336 2.512V120h-1.216Zm14.891 0v-8.192h1.152v1.392c.384-.928 1.28-1.584 2.704-1.584 1.216 0 2.144.608 2.608 1.6.56-.96 1.552-1.6 2.976-1.6 1.792 0 2.944 1.28 2.944 3.216V120h-1.216v-4.992c0-1.392-.688-2.336-2.032-2.336s-2.336.816-2.336 2.512V120h-1.216v-4.992c0-1.392-.688-2.336-2.032-2.336s-2.336.816-2.336 2.512V120h-1.216Zm14.97 0v-8.192h1.216V120h-1.216Zm-.16-10.352c0-.432.304-.736.768-.736s.768.304.768.736-.304.736-.768.736-.768-.304-.768-.736ZM859.294 120h-1.024c-1.568 0-2.224-.784-2.224-2.176V112.8h-1.392v-.992h1.392v-2.352h1.216v2.352h2.096v.992h-2.096v5.024c0 .832.304 1.184 1.216 1.184h.816V120Zm2.049 0v-8.192h1.152v1.392c.384-.928 1.28-1.584 2.704-1.584 1.216 0 2.144.608 2.608 1.6.56-.96 1.552-1.6 2.976-1.6 1.792 0 2.944 1.28 2.944 3.216V120h-1.216v-4.992c0-1.392-.688-2.336-2.032-2.336s-2.336.816-2.336 2.512V120h-1.216v-4.992c0-1.392-.688-2.336-2.032-2.336s-2.336.816-2.336 2.512V120h-1.216Zm18.107.192c-2.128 0-3.616-1.36-3.616-3.568v-1.312c0-2.224 1.264-3.696 3.568-3.696 2.336 0 3.472 1.552 3.472 3.568v1.216h-5.872v.288c0 1.424.736 2.576 2.448 2.576 1.232 0 1.984-.656 2.256-1.584h1.088c-.272 1.472-1.632 2.512-3.344 2.512Zm-2.448-4.976v.256h4.736v-.384c0-1.456-.736-2.544-2.336-2.544-1.76 0-2.4 1.168-2.4 2.672Zm8.091 4.784v-8.192h1.152v1.392c.384-.928 1.312-1.584 2.736-1.584 1.84 0 3.008 1.248 3.008 3.216V120h-1.216v-4.992c0-1.392-.624-2.336-2.096-2.336-1.344 0-2.368.816-2.368 2.512V120h-1.216Zm13.248 0h-1.024c-1.568 0-2.224-.784-2.224-2.176V112.8h-1.392v-.992h1.392v-2.352h1.216v2.352h2.096v.992h-2.096v5.024c0 .832.304 1.184 1.216 1.184h.816V120Zm5.01.192c-1.984 0-3.392-.992-3.392-2.576v-.08h1.104v.048c0 1.024.96 1.696 2.304 1.696 1.264 0 2.176-.496 2.176-1.552 0-.576-.368-.992-1.024-1.136l-2.432-.56c-1.216-.272-1.92-1.008-1.92-2.08 0-1.536 1.296-2.336 3.104-2.336 1.712 0 3.04 1.04 3.04 2.56v.08h-1.104v-.048c0-1.008-.736-1.68-1.952-1.68-1.136 0-1.968.48-1.968 1.392 0 .56.272.912.864 1.056l2.512.592c1.264.304 2.016.928 2.016 2.112 0 1.456-1.408 2.512-3.328 2.512Z" />
  <path fill="#01FFD8"
    d="M10.528 416.296c0 2.704-1.568 4.928-4.704 4.928-3.136 0-4.704-2.224-4.704-4.928v-1.792c0-2.704 1.568-4.928 4.704-4.928 3.136 0 4.704 2.224 4.704 4.928v1.792Zm-4.704 3.888c2.384 0 3.456-1.712 3.456-3.824v-1.92c0-2.112-1.072-3.824-3.456-3.824s-3.456 1.712-3.456 3.824v1.92c0 2.112 1.072 3.824 3.456 3.824Zm7.113.816v-8.192h1.152v1.392c.384-.928 1.312-1.584 2.736-1.584 1.84 0 3.008 1.248 3.008 3.216V421h-1.216v-4.992c0-1.392-.624-2.336-2.096-2.336-1.344 0-2.368.816-2.368 2.512V421h-1.216Zm9.486 0v-11.68h1.216V421h-1.216Zm6.209 2.784h-1.184l1.04-2.784-3.056-8.192h1.2l2.496 6.96 2.4-6.96h1.2L29.704 421l-1.072 2.784ZM42.944 421v-2.672h-5.312v-.912l3.728-7.616h1.12l-3.648 7.6h4.112v-2.656h1.136v2.656h1.552v.928H44.08V421h-1.136Zm11.585.192c-2.336 0-3.664-1.6-3.664-3.616v-1.344c0-2.016 1.344-3.616 3.664-3.616 2.32 0 3.648 1.6 3.648 3.616v1.344c0 2.016-1.328 3.616-3.648 3.616Zm2.48-4.944c0-1.552-.864-2.656-2.48-2.656s-2.48 1.104-2.48 2.656v1.312c0 1.552.864 2.656 2.48 2.656s2.48-1.104 2.48-2.656v-1.312Zm10.101-3.44V421h-1.152v-1.392c-.384.928-1.312 1.584-2.736 1.584-1.792 0-2.928-1.248-2.928-3.216v-5.168h1.216v4.992c0 1.392.608 2.368 2.016 2.368 1.344 0 2.368-.848 2.368-2.544v-4.816h1.216ZM73.622 421h-1.024c-1.568 0-2.224-.784-2.224-2.176V413.8h-1.392v-.992h1.392v-2.352h1.216v2.352h2.096v.992H71.59v5.024c0 .832.304 1.184 1.216 1.184h.816V421Zm8.829.192c-2.336 0-3.664-1.6-3.664-3.616v-1.344c0-2.016 1.344-3.616 3.664-3.616 2.32 0 3.648 1.6 3.648 3.616v1.344c0 2.016-1.328 3.616-3.648 3.616Zm2.48-4.944c0-1.552-.864-2.656-2.48-2.656s-2.48 1.104-2.48 2.656v1.312c0 1.552.864 2.656 2.48 2.656s2.48-1.104 2.48-2.656v-1.312ZM88.794 421v-7.2h-1.2v-.992h1.2v-1.088c0-1.584.704-2.4 2.368-2.4h1.152v.992h-1.056c-.864 0-1.248.4-1.248 1.312v1.184h2.016v.992H90.01v7.2h-1.216Zm8.389 0v-.96l4.736-4.976c.784-.816 1.248-1.552 1.248-2.416 0-1.248-.976-2.064-2.288-2.064-1.425 0-2.353.816-2.353 2.256v.256H97.36v-.304c0-2.048 1.44-3.216 3.52-3.216 2.032 0 3.52 1.2 3.52 3.072 0 1.36-.944 2.4-1.84 3.312l-3.953 4.032h5.809V421h-7.233Zm13.151-11.2h1.312l-3.248 4.944v.016c.544-.656 1.296-.992 2.256-.992 2.016 0 3.52 1.536 3.52 3.68 0 2.016-1.632 3.776-3.904 3.776-2.288 0-3.904-1.584-3.904-3.728 0-1.264.576-2.336 1.184-3.296l2.784-4.4Zm-2.768 7.712c0 1.568 1.04 2.736 2.688 2.736 1.632 0 2.72-1.2 2.72-2.768 0-1.568-1.008-2.768-2.656-2.768-1.584 0-2.752 1.2-2.752 2.8Zm15.493 3.68c-2.272 0-3.632-1.536-3.632-3.6v-1.376c0-2.064 1.36-3.6 3.632-3.6 2.064 0 3.408 1.344 3.504 3.072h-1.088c-.16-1.104-.848-2.112-2.4-2.112-1.68 0-2.464 1.088-2.464 2.624v1.408c0 1.536.784 2.624 2.464 2.624 1.552 0 2.24-1.008 2.4-2.112h1.088c-.096 1.728-1.44 3.072-3.504 3.072Zm8.985 0c-2.336 0-3.664-1.6-3.664-3.616v-1.344c0-2.016 1.344-3.616 3.664-3.616 2.32 0 3.648 1.6 3.648 3.616v1.344c0 2.016-1.328 3.616-3.648 3.616Zm2.48-4.944c0-1.552-.864-2.656-2.48-2.656s-2.48 1.104-2.48 2.656v1.312c0 1.552.864 2.656 2.48 2.656s2.48-1.104 2.48-2.656v-1.312Zm10.102-3.44V421h-1.152v-1.392c-.384.928-1.312 1.584-2.736 1.584-1.792 0-2.928-1.248-2.928-3.216v-5.168h1.216v4.992c0 1.392.608 2.368 2.016 2.368 1.344 0 2.368-.848 2.368-2.544v-4.816h1.216Zm2.592 8.192v-8.192h1.152v1.392c.384-.928 1.312-1.584 2.736-1.584 1.84 0 3.008 1.248 3.008 3.216V421h-1.216v-4.992c0-1.392-.624-2.336-2.096-2.336-1.344 0-2.368.816-2.368 2.512V421h-1.216Zm13.248 0h-1.024c-1.568 0-2.224-.784-2.224-2.176V413.8h-1.392v-.992h1.392v-2.352h1.216v2.352h2.096v.992h-2.096v5.024c0 .832.304 1.184 1.216 1.184h.816V421Zm2.049 0v-8.192h1.136v1.888c.304-1.264 1.184-1.936 2.672-1.936h.192v1.136h-.24c-1.552 0-2.544 1.024-2.544 3.088V421h-1.216Zm5.72 0v-8.192h1.216V421h-1.216Zm-.16-10.352c0-.432.304-.736.768-.736s.768.304.768.736-.304.736-.768.736-.768-.304-.768-.736Zm7.265 10.544c-2.128 0-3.616-1.36-3.616-3.568v-1.312c0-2.224 1.264-3.696 3.568-3.696 2.336 0 3.472 1.552 3.472 3.568v1.216h-5.872v.288c0 1.424.736 2.576 2.448 2.576 1.232 0 1.984-.656 2.256-1.584h1.088c-.272 1.472-1.632 2.512-3.344 2.512Zm-2.448-4.976v.256h4.736v-.384c0-1.456-.736-2.544-2.336-2.544-1.76 0-2.4 1.168-2.4 2.672Zm11.1 4.976c-1.984 0-3.392-.992-3.392-2.576v-.08h1.104v.048c0 1.024.96 1.696 2.304 1.696 1.264 0 2.176-.496 2.176-1.552 0-.576-.368-.992-1.024-1.136l-2.432-.56c-1.216-.272-1.92-1.008-1.92-2.08 0-1.536 1.296-2.336 3.103-2.336 1.713 0 3.041 1.04 3.041 2.56v.08h-1.104v-.048c0-1.008-.736-1.68-1.952-1.68-1.136 0-1.968.48-1.968 1.392 0 .56.272.912.864 1.056l2.512.592c1.264.304 2.016.928 2.016 2.112 0 1.456-1.408 2.512-3.328 2.512Zm12.225 2.784c-1.632 0-3.104-.752-3.552-2.096h1.2c.448.784 1.232 1.136 2.352 1.136 1.424 0 2.4-.8 2.4-2.048v-1.856c-.256.752-1.376 1.552-2.752 1.552-2.128 0-3.344-1.52-3.344-3.344v-1.36c0-1.856 1.2-3.344 3.36-3.344 1.536 0 2.448.832 2.784 1.552v-1.36h1.168V421c0 1.696-1.536 2.976-3.616 2.976Zm-.112-4.304c1.392 0 2.512-.928 2.512-2.48v-1.056c0-1.392-1.056-2.528-2.464-2.528-1.6 0-2.432.88-2.432 2.448v1.168c0 1.536.816 2.448 2.384 2.448Zm9.532 1.52c-2.128 0-3.616-1.36-3.616-3.568v-1.312c0-2.224 1.264-3.696 3.568-3.696 2.336 0 3.472 1.552 3.472 3.568v1.216h-5.872v.288c0 1.424.736 2.576 2.448 2.576 1.232 0 1.984-.656 2.256-1.584h1.088c-.272 1.472-1.632 2.512-3.344 2.512Zm-2.448-4.976v.256h4.736v-.384c0-1.456-.736-2.544-2.336-2.544-1.76 0-2.4 1.168-2.4 2.672ZM215.154 421h-1.024c-1.568 0-2.224-.784-2.224-2.176V413.8h-1.392v-.992h1.392v-2.352h1.216v2.352h2.096v.992h-2.096v5.024c0 .832.304 1.184 1.216 1.184h.816V421Zm5.644 0v-8.192h1.216V421h-1.216Zm-.16-10.352c0-.432.304-.736.768-.736s.768.304.768.736-.304.736-.768.736-.768-.304-.768-.736ZM228.607 421h-1.024c-1.568 0-2.224-.784-2.224-2.176V413.8h-1.392v-.992h1.392v-2.352h1.216v2.352h2.096v.992h-2.096v5.024c0 .832.304 1.184 1.216 1.184h.816V421Zm5.564 0v-8.192h1.136v1.888c.304-1.264 1.184-1.936 2.672-1.936h.192v1.136h-.24c-1.552 0-2.544 1.024-2.544 3.088V421h-1.216Zm5.721 0v-8.192h1.216V421h-1.216Zm-.16-10.352c0-.432.304-.736.768-.736s.768.304.768.736-.304.736-.768.736-.768-.304-.768-.736Zm7.344 13.328c-1.632 0-3.104-.752-3.552-2.096h1.2c.448.784 1.232 1.136 2.352 1.136 1.424 0 2.4-.8 2.4-2.048v-1.856c-.256.752-1.376 1.552-2.752 1.552-2.128 0-3.344-1.52-3.344-3.344v-1.36c0-1.856 1.2-3.344 3.36-3.344 1.536 0 2.448.832 2.784 1.552v-1.36h1.168V421c0 1.696-1.536 2.976-3.616 2.976Zm-.112-4.304c1.392 0 2.512-.928 2.512-2.48v-1.056c0-1.392-1.056-2.528-2.464-2.528-1.6 0-2.432.88-2.432 2.448v1.168c0 1.536.816 2.448 2.384 2.448ZM253.28 421v-11.68h1.216v4.752c.464-.848 1.312-1.456 2.672-1.456 1.84 0 3.008 1.248 3.008 3.216V421h-1.216v-4.992c0-1.392-.624-2.336-2.096-2.336-1.344 0-2.368.816-2.368 2.512V421h-1.216Zm13.249 0h-1.024c-1.568 0-2.224-.784-2.224-2.176V413.8h-1.392v-.992h1.392v-2.352h1.216v2.352h2.096v.992h-2.096v5.024c0 .832.304 1.184 1.216 1.184h.816V421ZM418.528 416.296c0 2.704-1.568 4.928-4.704 4.928-3.136 0-4.704-2.224-4.704-4.928v-1.792c0-2.704 1.568-4.928 4.704-4.928 3.136 0 4.704 2.224 4.704 4.928v1.792Zm-4.704 3.888c2.384 0 3.456-1.712 3.456-3.824v-1.92c0-2.112-1.072-3.824-3.456-3.824s-3.456 1.712-3.456 3.824v1.92c0 2.112 1.072 3.824 3.456 3.824Zm7.113.816v-8.192h1.152v1.392c.384-.928 1.312-1.584 2.736-1.584 1.84 0 3.008 1.248 3.008 3.216V421h-1.216v-4.992c0-1.392-.624-2.336-2.096-2.336-1.344 0-2.368.816-2.368 2.512V421h-1.216Zm9.486 0v-11.68h1.216V421h-1.216Zm6.209 2.784h-1.184l1.04-2.784-3.056-8.192h1.2l2.496 6.96 2.4-6.96h1.2L437.704 421l-1.072 2.784Zm12.936-13.984h1.312l-3.248 4.944v.016c.544-.656 1.296-.992 2.256-.992 2.016 0 3.52 1.536 3.52 3.68 0 2.016-1.632 3.776-3.904 3.776-2.288 0-3.904-1.584-3.904-3.728 0-1.264.576-2.336 1.184-3.296l2.784-4.4Zm-2.768 7.712c0 1.568 1.04 2.736 2.688 2.736 1.632 0 2.72-1.2 2.72-2.768 0-1.568-1.008-2.768-2.656-2.768-1.584 0-2.752 1.2-2.752 2.8Zm15.494 3.68c-2.272 0-3.632-1.536-3.632-3.6v-1.376c0-2.064 1.36-3.6 3.632-3.6 2.064 0 3.408 1.344 3.504 3.072h-1.088c-.16-1.104-.848-2.112-2.4-2.112-1.68 0-2.464 1.088-2.464 2.624v1.408c0 1.536.784 2.624 2.464 2.624 1.552 0 2.24-1.008 2.4-2.112h1.088c-.096 1.728-1.44 3.072-3.504 3.072Zm8.985 0c-2.336 0-3.664-1.6-3.664-3.616v-1.344c0-2.016 1.344-3.616 3.664-3.616 2.32 0 3.648 1.6 3.648 3.616v1.344c0 2.016-1.328 3.616-3.648 3.616Zm2.48-4.944c0-1.552-.864-2.656-2.48-2.656s-2.48 1.104-2.48 2.656v1.312c0 1.552.864 2.656 2.48 2.656s2.48-1.104 2.48-2.656v-1.312Zm10.101-3.44V421h-1.152v-1.392c-.384.928-1.312 1.584-2.736 1.584-1.792 0-2.928-1.248-2.928-3.216v-5.168h1.216v4.992c0 1.392.608 2.368 2.016 2.368 1.344 0 2.368-.848 2.368-2.544v-4.816h1.216Zm2.592 8.192v-8.192h1.152v1.392c.384-.928 1.312-1.584 2.736-1.584 1.84 0 3.008 1.248 3.008 3.216V421h-1.216v-4.992c0-1.392-.624-2.336-2.096-2.336-1.344 0-2.368.816-2.368 2.512V421h-1.216Zm13.248 0h-1.024c-1.568 0-2.224-.784-2.224-2.176V413.8h-1.392v-.992h1.392v-2.352h1.216v2.352h2.096v.992h-2.096v5.024c0 .832.304 1.184 1.216 1.184h.816V421Zm2.049 0v-8.192h1.136v1.888c.304-1.264 1.184-1.936 2.672-1.936h.192v1.136h-.24c-1.552 0-2.544 1.024-2.544 3.088V421h-1.216Zm5.721 0v-8.192h1.216V421h-1.216Zm-.16-10.352c0-.432.304-.736.768-.736s.768.304.768.736-.304.736-.768.736-.768-.304-.768-.736Zm7.265 10.544c-2.128 0-3.616-1.36-3.616-3.568v-1.312c0-2.224 1.264-3.696 3.568-3.696 2.336 0 3.472 1.552 3.472 3.568v1.216h-5.872v.288c0 1.424.736 2.576 2.448 2.576 1.232 0 1.984-.656 2.256-1.584h1.088c-.272 1.472-1.632 2.512-3.344 2.512Zm-2.448-4.976v.256h4.736v-.384c0-1.456-.736-2.544-2.336-2.544-1.76 0-2.4 1.168-2.4 2.672Zm11.099 4.976c-1.984 0-3.392-.992-3.392-2.576v-.08h1.104v.048c0 1.024.96 1.696 2.304 1.696 1.264 0 2.176-.496 2.176-1.552 0-.576-.368-.992-1.024-1.136l-2.432-.56c-1.216-.272-1.92-1.008-1.92-2.08 0-1.536 1.296-2.336 3.104-2.336 1.712 0 3.04 1.04 3.04 2.56v.08h-1.104v-.048c0-1.008-.736-1.68-1.952-1.68-1.136 0-1.968.48-1.968 1.392 0 .56.272.912.864 1.056l2.512.592c1.264.304 2.016.928 2.016 2.112 0 1.456-1.408 2.512-3.328 2.512Zm12.225 2.784c-1.632 0-3.104-.752-3.552-2.096h1.2c.448.784 1.232 1.136 2.352 1.136 1.424 0 2.4-.8 2.4-2.048v-1.856c-.256.752-1.376 1.552-2.752 1.552-2.128 0-3.344-1.52-3.344-3.344v-1.36c0-1.856 1.2-3.344 3.36-3.344 1.536 0 2.448.832 2.784 1.552v-1.36h1.168V421c0 1.696-1.536 2.976-3.616 2.976Zm-.112-4.304c1.392 0 2.512-.928 2.512-2.48v-1.056c0-1.392-1.056-2.528-2.464-2.528-1.6 0-2.432.88-2.432 2.448v1.168c0 1.536.816 2.448 2.384 2.448Zm9.532 1.52c-2.128 0-3.616-1.36-3.616-3.568v-1.312c0-2.224 1.264-3.696 3.568-3.696 2.336 0 3.472 1.552 3.472 3.568v1.216h-5.872v.288c0 1.424.736 2.576 2.448 2.576 1.232 0 1.984-.656 2.256-1.584h1.088c-.272 1.472-1.632 2.512-3.344 2.512Zm-2.448-4.976v.256h4.736v-.384c0-1.456-.736-2.544-2.336-2.544-1.76 0-2.4 1.168-2.4 2.672ZM554.388 421h-1.024c-1.568 0-2.224-.784-2.224-2.176V413.8h-1.392v-.992h1.392v-2.352h1.216v2.352h2.096v.992h-2.096v5.024c0 .832.304 1.184 1.216 1.184h.816V421Zm5.644 0v-8.192h1.216V421h-1.216Zm-.16-10.352c0-.432.304-.736.768-.736s.768.304.768.736-.304.736-.768.736-.768-.304-.768-.736ZM567.841 421h-1.024c-1.568 0-2.224-.784-2.224-2.176V413.8h-1.392v-.992h1.392v-2.352h1.216v2.352h2.096v.992h-2.096v5.024c0 .832.304 1.184 1.216 1.184h.816V421Zm5.564 0v-8.192h1.136v1.888c.304-1.264 1.184-1.936 2.672-1.936h.192v1.136h-.24c-1.552 0-2.544 1.024-2.544 3.088V421h-1.216Zm5.721 0v-8.192h1.216V421h-1.216Zm-.16-10.352c0-.432.304-.736.768-.736s.768.304.768.736-.304.736-.768.736-.768-.304-.768-.736Zm7.345 13.328c-1.632 0-3.104-.752-3.552-2.096h1.2c.448.784 1.232 1.136 2.352 1.136 1.424 0 2.4-.8 2.4-2.048v-1.856c-.256.752-1.376 1.552-2.752 1.552-2.128 0-3.344-1.52-3.344-3.344v-1.36c0-1.856 1.2-3.344 3.36-3.344 1.536 0 2.448.832 2.784 1.552v-1.36h1.168V421c0 1.696-1.536 2.976-3.616 2.976Zm-.112-4.304c1.392 0 2.512-.928 2.512-2.48v-1.056c0-1.392-1.056-2.528-2.464-2.528-1.6 0-2.432.88-2.432 2.448v1.168c0 1.536.816 2.448 2.384 2.448Zm6.316 1.328v-11.68h1.216v4.752c.464-.848 1.312-1.456 2.672-1.456 1.84 0 3.008 1.248 3.008 3.216V421h-1.216v-4.992c0-1.392-.624-2.336-2.096-2.336-1.344 0-2.368.816-2.368 2.512V421h-1.216Zm13.248 0h-1.024c-1.568 0-2.224-.784-2.224-2.176V413.8h-1.392v-.992h1.392v-2.352h1.216v2.352h2.096v.992h-2.096v5.024c0 .832.304 1.184 1.216 1.184h.816V421ZM802.832 402v-9.936l-2.336 1.104v-1.12l2.544-1.248h1.024V402h-1.232Zm9.05 0v-2.672h-5.312v-.912l3.728-7.616h1.12l-3.648 7.6h4.112v-2.656h1.136v2.656h1.552v.928h-1.552V402h-1.136Zm11.552.192c-2.272 0-3.632-1.536-3.632-3.6v-1.376c0-2.064 1.36-3.6 3.632-3.6 2.064 0 3.408 1.344 3.504 3.072h-1.088c-.16-1.104-.848-2.112-2.4-2.112-1.68 0-2.464 1.088-2.464 2.624v1.408c0 1.536.784 2.624 2.464 2.624 1.552 0 2.24-1.008 2.4-2.112h1.088c-.096 1.728-1.44 3.072-3.504 3.072Zm8.985 0c-2.336 0-3.664-1.6-3.664-3.616v-1.344c0-2.016 1.344-3.616 3.664-3.616 2.32 0 3.648 1.6 3.648 3.616v1.344c0 2.016-1.328 3.616-3.648 3.616Zm2.48-4.944c0-1.552-.864-2.656-2.48-2.656s-2.48 1.104-2.48 2.656v1.312c0 1.552.864 2.656 2.48 2.656s2.48-1.104 2.48-2.656v-1.312Zm10.102-3.44V402h-1.152v-1.392c-.384.928-1.312 1.584-2.736 1.584-1.792 0-2.928-1.248-2.928-3.216v-5.168h1.216v4.992c0 1.392.608 2.368 2.016 2.368 1.344 0 2.368-.848 2.368-2.544v-4.816h1.216Zm2.592 8.192v-8.192h1.152v1.392c.384-.928 1.312-1.584 2.736-1.584 1.84 0 3.008 1.248 3.008 3.216V402h-1.216v-4.992c0-1.392-.624-2.336-2.096-2.336-1.344 0-2.368.816-2.368 2.512V402h-1.216Zm13.248 0h-1.024c-1.568 0-2.224-.784-2.224-2.176V394.8h-1.392v-.992h1.392v-2.352h1.216v2.352h2.096v.992h-2.096v5.024c0 .832.304 1.184 1.216 1.184h.816V402Zm2.049 0v-8.192h1.136v1.888c.304-1.264 1.184-1.936 2.672-1.936h.192v1.136h-.24c-1.552 0-2.544 1.024-2.544 3.088V402h-1.216Zm5.72 0v-8.192h1.216V402h-1.216Zm-.16-10.352c0-.432.304-.736.768-.736s.768.304.768.736-.304.736-.768.736-.768-.304-.768-.736Zm7.265 10.544c-2.128 0-3.616-1.36-3.616-3.568v-1.312c0-2.224 1.264-3.696 3.568-3.696 2.336 0 3.472 1.552 3.472 3.568v1.216h-5.872v.288c0 1.424.736 2.576 2.448 2.576 1.232 0 1.984-.656 2.256-1.584h1.088c-.272 1.472-1.632 2.512-3.344 2.512Zm-2.448-4.976v.256h4.736v-.384c0-1.456-.736-2.544-2.336-2.544-1.76 0-2.4 1.168-2.4 2.672Zm11.1 4.976c-1.984 0-3.392-.992-3.392-2.576v-.08h1.104v.048c0 1.024.96 1.696 2.304 1.696 1.264 0 2.176-.496 2.176-1.552 0-.576-.368-.992-1.024-1.136l-2.432-.56c-1.216-.272-1.92-1.008-1.92-2.08 0-1.536 1.296-2.336 3.103-2.336 1.713 0 3.041 1.04 3.041 2.56v.08h-1.104v-.048c0-1.008-.736-1.68-1.952-1.68-1.136 0-1.968.48-1.968 1.392 0 .56.272.912.864 1.056l2.512.592c1.264.304 2.016.928 2.016 2.112 0 1.456-1.408 2.512-3.328 2.512Zm8.929-.192v-8.192h1.136v1.888c.304-1.264 1.184-1.936 2.672-1.936h.192v1.136h-.24c-1.552 0-2.544 1.024-2.544 3.088V402h-1.216Zm8.732.192c-2.128 0-3.616-1.36-3.616-3.568v-1.312c0-2.224 1.264-3.696 3.568-3.696 2.336 0 3.472 1.552 3.472 3.568v1.216h-5.872v.288c0 1.424.736 2.576 2.448 2.576 1.232 0 1.984-.656 2.256-1.584h1.088c-.272 1.472-1.632 2.512-3.344 2.512Zm-2.448-4.976v.256h4.736v-.384c0-1.456-.736-2.544-2.336-2.544-1.76 0-2.4 1.168-2.4 2.672Zm9.307 7.568h-1.216v-10.976h1.152v1.28c.352-.752 1.408-1.472 2.768-1.472 2.192 0 3.424 1.584 3.424 3.664v1.248c0 2.128-1.328 3.664-3.392 3.664-1.28 0-2.24-.576-2.736-1.408v4Zm4.912-6.304v-1.152c0-1.504-.72-2.72-2.416-2.72-1.616 0-2.496 1.232-2.496 2.816v1.056c0 1.68 1.152 2.72 2.512 2.72 1.552 0 2.4-1.216 2.4-2.72Zm6.667 3.712c-2.336 0-3.664-1.6-3.664-3.616v-1.344c0-2.016 1.344-3.616 3.664-3.616 2.32 0 3.648 1.6 3.648 3.616v1.344c0 2.016-1.328 3.616-3.648 3.616Zm2.48-4.944c0-1.552-.864-2.656-2.48-2.656s-2.48 1.104-2.48 2.656v1.312c0 1.552.864 2.656 2.48 2.656s2.48-1.104 2.48-2.656v-1.312Zm3.366 4.752v-8.192h1.136v1.888c.304-1.264 1.184-1.936 2.672-1.936h.192v1.136h-.24c-1.552 0-2.544 1.024-2.544 3.088V402h-1.216Zm9.56 0h-1.024c-1.568 0-2.224-.784-2.224-2.176V394.8h-1.392v-.992h1.392v-2.352h1.216v2.352h2.096v.992h-2.096v5.024c0 .832.304 1.184 1.216 1.184h.816V402Zm15.917-8.192-2.24 8.192h-1.152l-2.176-6.912-2.176 6.912h-1.152l-2.24-8.192h1.152l1.728 6.736 2.112-6.736h1.152l2.112 6.736 1.728-6.736h1.152Zm1.804 8.192v-11.68h1.216v4.752c.464-.848 1.312-1.456 2.672-1.456 1.84 0 3.008 1.248 3.008 3.216V402h-1.216v-4.992c0-1.392-.624-2.336-2.096-2.336-1.344 0-2.368.816-2.368 2.512V402h-1.216Zm16.126 0h-1.168v-1.024c-.352.576-1.456 1.216-2.816 1.216-1.936 0-3.104-1.088-3.104-2.576 0-1.584 1.296-2.56 3.248-2.56 1.296 0 2.16.544 2.624 1.024v-1.52c0-1.12-.736-1.984-2.048-1.984-1.04 0-1.712.48-2.048 1.232h-1.12c.416-1.36 1.568-2.192 3.184-2.192 2.032 0 3.248 1.328 3.248 2.944V402Zm-3.728-.592c1.28 0 2.512-.752 2.512-1.808 0-1.024-1.216-1.744-2.448-1.744-1.36 0-2.272.64-2.272 1.776 0 1.136.944 1.776 2.208 1.776Zm10.038.592h-1.024c-1.568 0-2.224-.784-2.224-2.176V394.8h-1.392v-.992h1.392v-2.352h1.216v2.352h2.096v.992h-2.096v5.024c0 .832.304 1.184 1.216 1.184h.816V402Zm-170.813 19h-1.024c-1.568 0-2.224-.784-2.224-2.176V413.8h-1.392v-.992h1.392v-2.352h1.216v2.352h2.096v.992h-2.096v5.024c0 .832.304 1.184 1.216 1.184h.816V421Zm2.049 0v-11.68h1.216v4.752c.464-.848 1.312-1.456 2.672-1.456 1.84 0 3.008 1.248 3.008 3.216V421h-1.216v-4.992c0-1.392-.624-2.336-2.096-2.336-1.344 0-2.368.816-2.368 2.512V421h-1.216Zm12.622.192c-2.128 0-3.616-1.36-3.616-3.568v-1.312c0-2.224 1.264-3.696 3.568-3.696 2.336 0 3.472 1.552 3.472 3.568v1.216h-5.872v.288c0 1.424.736 2.576 2.448 2.576 1.232 0 1.984-.656 2.256-1.584h1.088c-.272 1.472-1.632 2.512-3.344 2.512Zm-2.448-4.976v.256h4.736v-.384c0-1.456-.736-2.544-2.336-2.544-1.76 0-2.4 1.168-2.4 2.672Zm10.255 7.568h-1.184l1.04-2.784-3.056-8.192h1.2l2.496 6.96 2.4-6.96h1.2L828.766 421l-1.072 2.784ZM843.735 421h-1.168v-1.024c-.352.576-1.456 1.216-2.816 1.216-1.936 0-3.104-1.088-3.104-2.576 0-1.584 1.296-2.56 3.248-2.56 1.296 0 2.16.544 2.624 1.024v-1.52c0-1.12-.736-1.984-2.048-1.984-1.04 0-1.712.48-2.048 1.232h-1.12c.416-1.36 1.568-2.192 3.184-2.192 2.032 0 3.248 1.328 3.248 2.944V421Zm-3.728-.592c1.28 0 2.512-.752 2.512-1.808 0-1.024-1.216-1.744-2.448-1.744-1.36 0-2.272.64-2.272 1.776 0 1.136.944 1.776 2.208 1.776Zm9.459.784c-2.272 0-3.632-1.536-3.632-3.6v-1.376c0-2.064 1.36-3.6 3.632-3.6 2.064 0 3.408 1.344 3.504 3.072h-1.088c-.16-1.104-.848-2.112-2.4-2.112-1.68 0-2.464 1.088-2.464 2.624v1.408c0 1.536.784 2.624 2.464 2.624 1.552 0 2.24-1.008 2.4-2.112h1.088c-.096 1.728-1.44 3.072-3.504 3.072Zm9.578-.192h-1.024c-1.568 0-2.224-.784-2.224-2.176V413.8h-1.392v-.992h1.392v-2.352h1.216v2.352h2.096v.992h-2.096v5.024c0 .832.304 1.184 1.216 1.184h.816V421Zm8.707-8.192V421h-1.152v-1.392c-.384.928-1.312 1.584-2.736 1.584-1.792 0-2.928-1.248-2.928-3.216v-5.168h1.216v4.992c0 1.392.608 2.368 2.016 2.368 1.344 0 2.368-.848 2.368-2.544v-4.816h1.216Zm9.312 8.192h-1.168v-1.024c-.352.576-1.456 1.216-2.816 1.216-1.936 0-3.104-1.088-3.104-2.576 0-1.584 1.296-2.56 3.248-2.56 1.296 0 2.16.544 2.624 1.024v-1.52c0-1.12-.736-1.984-2.048-1.984-1.04 0-1.712.48-2.048 1.232h-1.12c.416-1.36 1.568-2.192 3.184-2.192 2.032 0 3.248 1.328 3.248 2.944V421Zm-3.728-.592c1.28 0 2.512-.752 2.512-1.808 0-1.024-1.216-1.744-2.448-1.744-1.36 0-2.272.64-2.272 1.776 0 1.136.944 1.776 2.208 1.776Zm6.307.592v-11.68h1.216V421h-1.216Zm3.968 0v-11.68h1.216V421h-1.216Zm6.209 2.784h-1.184l1.04-2.784-3.056-8.192h1.2l2.496 6.96 2.4-6.96h1.2L890.891 421l-1.072 2.784Zm12.329-2.592c-1.984 0-3.392-.992-3.392-2.576v-.08h1.104v.048c0 1.024.96 1.696 2.304 1.696 1.264 0 2.176-.496 2.176-1.552 0-.576-.368-.992-1.024-1.136l-2.432-.56c-1.216-.272-1.92-1.008-1.92-2.08 0-1.536 1.296-2.336 3.104-2.336 1.712 0 3.04 1.04 3.04 2.56v.08h-1.104v-.048c0-1.008-.736-1.68-1.952-1.68-1.136 0-1.968.48-1.968 1.392 0 .56.272.912.864 1.056l2.512.592c1.264.304 2.016.928 2.016 2.112 0 1.456-1.408 2.512-3.328 2.512Zm6.63 2.592h-1.216v-10.976h1.152v1.28c.352-.752 1.408-1.472 2.768-1.472 2.192 0 3.424 1.584 3.424 3.664v1.248c0 2.128-1.328 3.664-3.392 3.664-1.28 0-2.24-.576-2.736-1.408v4Zm4.912-6.304v-1.152c0-1.504-.72-2.72-2.416-2.72-1.616 0-2.496 1.232-2.496 2.816v1.056c0 1.68 1.152 2.72 2.512 2.72 1.552 0 2.4-1.216 2.4-2.72Zm6.619 3.712c-2.128 0-3.616-1.36-3.616-3.568v-1.312c0-2.224 1.264-3.696 3.568-3.696 2.336 0 3.472 1.552 3.472 3.568v1.216h-5.872v.288c0 1.424.736 2.576 2.448 2.576 1.232 0 1.984-.656 2.256-1.584h1.088c-.272 1.472-1.632 2.512-3.344 2.512Zm-2.448-4.976v.256h4.736v-.384c0-1.456-.736-2.544-2.336-2.544-1.76 0-2.4 1.168-2.4 2.672Zm8.091 4.784v-8.192h1.152v1.392c.384-.928 1.312-1.584 2.736-1.584 1.84 0 3.008 1.248 3.008 3.216V421h-1.216v-4.992c0-1.392-.624-2.336-2.096-2.336-1.344 0-2.368.816-2.368 2.512V421h-1.216Zm15.135-11.68h1.216V421h-1.152v-1.28c-.352.752-1.408 1.472-2.768 1.472-2.16 0-3.424-1.616-3.424-3.664v-1.248c0-2.128 1.328-3.664 3.392-3.664 1.28 0 2.24.576 2.736 1.408v-4.704Zm-4.913 7.008v1.152c0 1.504.721 2.72 2.417 2.72 1.616 0 2.496-1.232 2.496-2.816v-1.056c0-1.68-1.152-2.72-2.512-2.72-1.552 0-2.401 1.216-2.401 2.72Z" />
  <path fill="#fff"
    d="M958 247a6 6 0 1 0 0-12 6 6 0 0 0 0 12ZM942 256a6 6 0 1 0 0-12 6 6 0 0 0 0 12ZM958 264a6 6 0 1 0 0-12 6 6 0 0 0 0 12ZM942.184 205.8V217H941v-8.8l-3.088 6.096h-1.184l-3.088-6.096v8.8h-1.184v-11.2h1.168l3.696 7.392 3.696-7.392h1.168Zm2.833 11.2v-8.192h1.216V217h-1.216Zm-.16-10.352c0-.432.304-.736.768-.736s.768.304.768.736-.304.736-.768.736-.768-.304-.768-.736Zm7.44 6.192 2.88 4.16h-1.28l-2.224-3.264-2.224 3.264h-1.28l2.88-4.16-2.768-4.032h1.264l2.128 3.12 2.128-3.12h1.264l-2.768 4.032Zm7.746 4.352c-2.128 0-3.616-1.36-3.616-3.568v-1.312c0-2.224 1.264-3.696 3.568-3.696 2.336 0 3.472 1.552 3.472 3.568v1.216h-5.872v.288c0 1.424.736 2.576 2.448 2.576 1.232 0 1.984-.656 2.256-1.584h1.088c-.272 1.472-1.632 2.512-3.344 2.512Zm-2.448-4.976v.256h4.736v-.384c0-1.456-.736-2.544-2.336-2.544-1.76 0-2.4 1.168-2.4 2.672Zm13.82-6.896h1.216V217h-1.152v-1.28c-.352.752-1.408 1.472-2.768 1.472-2.16 0-3.424-1.616-3.424-3.664v-1.248c0-2.128 1.328-3.664 3.392-3.664 1.28 0 2.24.576 2.736 1.408v-4.704Zm-4.912 7.008v1.152c0 1.504.72 2.72 2.416 2.72 1.616 0 2.496-1.232 2.496-2.816v-1.056c0-1.68-1.152-2.72-2.512-2.72-1.552 0-2.4 1.216-2.4 2.72Z" />
  <path fill="#01FFD8"
    d="M1022.04 304.502a.499.499 0 0 0-.54.454l-.4 4.482c-.02.275.18.518.46.543.27.024.51-.179.54-.454l.35-3.985 3.99.354c.27.024.51-.179.54-.454a.504.504 0 0 0-.46-.542l-4.48-.398Zm-.43.819c11.75 14.028 13.33 32.993 7.07 50.298-6.26 17.304-20.35 32.897-39.854 40.127l.348.938c19.796-7.339 34.086-23.161 40.446-40.725 6.35-17.563 4.78-36.921-7.24-51.28l-.77.642ZM637.349 290.719a.5.5 0 0 0-.456.54l.372 4.485a.5.5 0 1 0 .996-.083l-.331-3.986 3.987-.331a.5.5 0 0 0-.083-.997l-4.485.372Zm-.281.88c17.069 14.455 22.845 36.768 18.809 58.61-4.036 21.843-17.88 43.167-39.982 55.577l.49.872c22.373-12.563 36.388-34.147 40.475-56.267 4.087-22.12-1.749-44.823-19.146-59.555l-.646.763ZM279.663 289.501a.5.5 0 0 0-.528.47l-.264 4.492a.5.5 0 0 0 .998.059l.235-3.993 3.993.234a.5.5 0 1 0 .059-.998l-4.493-.264Zm-.403.831c13.012 14.637 15.544 35.813 9.722 55.884-5.82 20.067-19.973 38.949-40.204 48.948l.444.896c20.509-10.136 34.831-29.26 40.721-49.565 5.888-20.301 3.367-41.864-9.935-56.827l-.748.664Z" />
  <path fill="#C2C2C2"
    d="M822.44 41.566v-.96h6.944v.96h-6.944Zm0 3.808v-.96h6.944v.96h-6.944ZM840.56 47.442c-2.336 0-3.664-1.6-3.664-3.616v-1.344c0-2.016 1.344-3.616 3.664-3.616 2.32 0 3.648 1.6 3.648 3.616v1.344c0 2.016-1.328 3.616-3.648 3.616Zm2.48-4.944c0-1.552-.864-2.656-2.48-2.656s-2.48 1.104-2.48 2.656v1.312c0 1.552.864 2.656 2.48 2.656s2.48-1.104 2.48-2.656v-1.312Zm3.365 4.752v-8.192h1.152v1.392c.384-.928 1.312-1.584 2.736-1.584 1.84 0 3.008 1.248 3.008 3.216v5.168h-1.216v-4.992c0-1.392-.624-2.336-2.096-2.336-1.344 0-2.368.816-2.368 2.512v4.816h-1.216Zm12.623.192c-2.128 0-3.616-1.36-3.616-3.568v-1.312c0-2.224 1.264-3.696 3.568-3.696 2.336 0 3.472 1.552 3.472 3.568v1.216h-5.872v.288c0 1.424.736 2.576 2.448 2.576 1.232 0 1.984-.656 2.256-1.584h1.088c-.272 1.472-1.632 2.512-3.344 2.512Zm-2.448-4.976v.256h4.736v-.384c0-1.456-.736-2.544-2.336-2.544-1.76 0-2.4 1.168-2.4 2.672Zm15.167 4.976c-2.272 0-3.632-1.536-3.632-3.6v-1.376c0-2.064 1.36-3.6 3.632-3.6 2.064 0 3.408 1.344 3.504 3.072h-1.088c-.16-1.104-.848-2.112-2.4-2.112-1.68 0-2.464 1.088-2.464 2.624v1.408c0 1.536.784 2.624 2.464 2.624 1.552 0 2.24-1.008 2.4-2.112h1.088c-.096 1.728-1.44 3.072-3.504 3.072Zm8.985 0c-2.336 0-3.664-1.6-3.664-3.616v-1.344c0-2.016 1.344-3.616 3.664-3.616 2.32 0 3.648 1.6 3.648 3.616v1.344c0 2.016-1.328 3.616-3.648 3.616Zm2.48-4.944c0-1.552-.864-2.656-2.48-2.656s-2.48 1.104-2.48 2.656v1.312c0 1.552.864 2.656 2.48 2.656s2.48-1.104 2.48-2.656v-1.312Zm10.101-3.44v8.192h-1.152v-1.392c-.384.928-1.312 1.584-2.736 1.584-1.792 0-2.928-1.248-2.928-3.216v-5.168h1.216v4.992c0 1.392.608 2.368 2.016 2.368 1.344 0 2.368-.848 2.368-2.544v-4.816h1.216Zm2.592 8.192v-8.192h1.152v1.392c.384-.928 1.312-1.584 2.736-1.584 1.84 0 3.008 1.248 3.008 3.216v5.168h-1.216v-4.992c0-1.392-.624-2.336-2.096-2.336-1.344 0-2.368.816-2.368 2.512v4.816h-1.216Zm13.249 0h-1.024c-1.568 0-2.224-.784-2.224-2.176V40.05h-1.392v-.992h1.392v-2.352h1.216v2.352h2.096v.992h-2.096v5.024c0 .832.304 1.184 1.216 1.184h.816v.992Zm2.048 0v-8.192h1.136v1.888c.304-1.264 1.184-1.936 2.672-1.936h.192v1.136h-.24c-1.552 0-2.544 1.024-2.544 3.088v4.016h-1.216Zm8.32 2.784h-1.184l1.04-2.784-3.056-8.192h1.2l2.496 6.96 2.4-6.96h1.2l-3.024 8.192-1.072 2.784ZM809.25 48.75a6 6 0 1 0 0-12 6 6 0 0 0 0 12Z" />
</svg>