<svg xmlns="http://www.w3.org/2000/svg" width="410" height="208" fill="none">
  <path fill="#212529" d="M0 0h410v208H0z" />
  <path fill="#999"
    d="M1.4 18v-1.2l5.92-6.22c.98-1.02 1.56-1.94 1.56-3.02 0-1.56-1.22-2.58-2.86-2.58C4.24 4.98 3.08 6 3.08 7.8v.32H1.62v-.38c0-2.56 1.8-4.02 4.4-4.02 2.54 0 4.4 1.5 4.4 3.84 0 1.7-1.18 3-2.3 4.14l-4.94 5.04h7.26V18H1.4Zm16.716.28c-3.08 0-4.9-2-4.9-4.66V8.38c0-2.66 1.82-4.66 4.9-4.66s4.9 2 4.9 4.66v5.24c0 2.66-1.82 4.66-4.9 4.66Zm0-1.26c2.18 0 3.36-1.36 3.36-3.34V8.32c0-1.98-1.18-3.34-3.36-3.34-2.18 0-3.36 1.36-3.36 3.34v5.36c0 1.98 1.18 3.34 3.36 3.34Zm7.698.98v-1.2l5.92-6.22c.98-1.02 1.56-1.94 1.56-3.02 0-1.56-1.22-2.58-2.86-2.58-1.78 0-2.94 1.02-2.94 2.82v.32h-1.46v-.38c0-2.56 1.8-4.02 4.4-4.02 2.54 0 4.4 1.5 4.4 3.84 0 1.7-1.18 3-2.3 4.14l-4.94 5.04h7.26V18h-9.04Zm14.074 0V5.58l-2.92 1.38v-1.4L40.148 4h1.28v14h-1.54Zm13.226.24c-2.48 0-4.24-1.24-4.24-3.22v-.1h1.38v.06c0 1.28 1.2 2.12 2.88 2.12 1.58 0 2.72-.62 2.72-1.94 0-.72-.46-1.24-1.28-1.42l-3.04-.7c-1.52-.34-2.4-1.26-2.4-2.6 0-1.92 1.62-2.92 3.88-2.92 2.14 0 3.8 1.3 3.8 3.2v.1h-1.38v-.06c0-1.26-.92-2.1-2.44-2.1-1.42 0-2.46.6-2.46 1.74 0 .7.34 1.14 1.08 1.32l3.14.74c1.58.38 2.52 1.16 2.52 2.64 0 1.82-1.76 3.14-4.16 3.14Zm8.288 3.24h-1.52V7.76h1.44v1.6c.44-.94 1.76-1.84 3.46-1.84 2.74 0 4.28 1.98 4.28 4.58v1.56c0 2.66-1.66 4.58-4.24 4.58-1.6 0-2.8-.72-3.42-1.76v5Zm6.14-7.88v-1.44c0-1.88-.9-3.4-3.02-3.4-2.02 0-3.12 1.54-3.12 3.52v1.32c0 2.1 1.44 3.4 3.14 3.4 1.94 0 3-1.52 3-3.4Zm8.274 4.64c-2.66 0-4.52-1.7-4.52-4.46v-1.64c0-2.78 1.58-4.62 4.46-4.62 2.92 0 4.34 1.94 4.34 4.46v1.52h-7.34v.36c0 1.78.92 3.22 3.06 3.22 1.54 0 2.48-.82 2.82-1.98h1.36c-.34 1.84-2.04 3.14-4.18 3.14Zm-3.06-6.22v.32h5.92v-.48c0-1.82-.92-3.18-2.92-3.18-2.2 0-3 1.46-3 3.34ZM82.87 18V7.76h1.44V9.5c.48-1.16 1.64-1.98 3.42-1.98 2.3 0 3.76 1.56 3.76 4.02V18h-1.52v-6.24c0-1.74-.78-2.92-2.62-2.92-1.68 0-2.96 1.02-2.96 3.14V18h-1.52Zm18.918-14.6h1.52V18h-1.44v-1.6c-.44.94-1.76 1.84-3.46 1.84-2.7 0-4.28-2.02-4.28-4.58V12.1c0-2.66 1.66-4.58 4.24-4.58 1.6 0 2.8.72 3.42 1.76V3.4Zm-6.14 8.76v1.44c0 1.88.9 3.4 3.02 3.4 2.02 0 3.12-1.54 3.12-3.52v-1.32c0-2.1-1.44-3.4-3.14-3.4-1.94 0-3 1.52-3 3.4ZM106.642 18V7.76h1.52V18h-1.52Zm-.2-12.94c0-.54.38-.92.96-.92s.96.38.96.92-.38.92-.96.92-.96-.38-.96-.92ZM111.503 18V7.76h1.44V9.5c.48-1.16 1.64-1.98 3.42-1.98 2.3 0 3.76 1.56 3.76 4.02V18h-1.52v-6.24c0-1.74-.78-2.92-2.62-2.92-1.68 0-2.96 1.02-2.96 3.14V18h-1.52Zm15.878 3.72c-2.04 0-3.88-.94-4.44-2.62h1.5c.56.98 1.54 1.42 2.94 1.42 1.78 0 3-1 3-2.56v-2.32c-.32.94-1.72 1.94-3.44 1.94-2.66 0-4.18-1.9-4.18-4.18v-1.7c0-2.32 1.5-4.18 4.2-4.18 1.92 0 3.06 1.04 3.48 1.94v-1.7h1.46V18c0 2.12-1.92 3.72-4.52 3.72Zm-.14-5.38c1.74 0 3.14-1.16 3.14-3.1v-1.32c0-1.74-1.32-3.16-3.08-3.16-2 0-3.04 1.1-3.04 3.06v1.46c0 1.92 1.02 3.06 2.98 3.06Z" />
  <path fill="#01FFD8" d="m104.797 87 25.534 25.534-25.534 25.535-25.534-25.535z" />
  <path fill="#C2C2C2" d="m228.159 18 95 95-95 95-95-95z" />
  <path fill="#01FFD8"
    d="M15.596 114.924c0 2.884-1.988 5.068-4.816 5.796v3.36H6.16v-3.332c-3.108-.672-4.816-2.772-4.816-5.796v-.42H5.88v.448c0 1.568.98 2.352 2.604 2.352 1.456 0 2.464-.728 2.464-2.072 0-.896-.476-1.484-1.456-1.82l-3.388-1.148c-2.94-1.008-4.62-2.184-4.62-5.236 0-3.024 1.932-4.788 4.564-5.404V98.32h4.62v3.36c2.66.672 4.424 2.548 4.424 5.404v.476h-4.48v-.392c0-1.288-.812-2.016-2.296-2.016-1.344 0-2.212.532-2.212 1.652 0 .896.616 1.204 1.456 1.512l3.192 1.12c2.604.924 4.844 2.156 4.844 5.488ZM26.143 121h-5.18l5.124-7.028c-.644.42-1.26.588-2.268.588-3.248 0-6.132-2.38-6.132-6.608 0-4.116 3.024-6.944 7.532-6.944 4.676 0 7.7 2.716 7.7 6.972 0 2.464-.784 4.452-1.736 5.796L26.143 121Zm-.868-10.052c1.848 0 2.94-1.232 2.94-3.052 0-1.764-.952-3.108-2.94-3.108-1.764 0-2.94 1.232-2.94 3.08 0 1.792 1.036 3.08 2.94 3.08Zm17.839 10.444c-4.592 0-7.672-2.828-7.672-7v-6.384c0-4.172 3.08-7 7.672-7s7.672 2.828 7.672 7v6.384c0 4.172-3.08 7-7.672 7Zm2.912-13.384c0-2.156-1.148-3.108-2.912-3.108s-2.912.952-2.912 3.108v6.384c0 2.156 1.148 3.108 2.912 3.108s2.912-.952 2.912-3.108v-6.384Zm24.291 7.504c0 3.36-2.884 5.488-6.748 5.488h-9.492v-19.6h9.38c3.696 0 5.656 2.24 5.656 5.012 0 2.072-.84 3.528-2.576 4.452 2.128.588 3.78 1.904 3.78 4.648Zm-4.76-.448c0-1.316-.84-2.1-2.24-2.1h-4.536v4.256h4.62c1.372 0 2.156-.896 2.156-2.156Zm-6.776-5.852h3.584c1.26 0 1.96-.812 1.96-2.1 0-1.204-.756-1.932-2.016-1.932h-3.528v4.032ZM6.498 148.252c-3.474 0-5.238-2.358-5.238-5.49v-2.124c0-3.132 1.764-5.49 5.238-5.49 2.916 0 4.77 2.034 4.968 4.41h-1.35c-.216-1.728-1.368-3.24-3.636-3.24-2.574 0-3.816 1.8-3.816 4.266v2.232c0 2.466 1.242 4.266 3.816 4.266 2.268 0 3.42-1.512 3.636-3.24h1.35c-.198 2.376-2.052 4.41-4.968 4.41Zm7.671-.252v-13.14h1.368V148H14.17Zm4.465 0v-9.216h1.368V148h-1.368Zm-.18-11.646c0-.486.342-.828.864-.828s.864.342.864.828c0 .486-.342.828-.864.828s-.864-.342-.864-.828ZM23.009 148v-9.216h1.296v1.566c.432-1.044 1.44-1.782 3.042-1.782 1.368 0 2.412.684 2.934 1.8.63-1.08 1.746-1.8 3.348-1.8 2.016 0 3.312 1.44 3.312 3.618V148h-1.368v-5.616c0-1.566-.774-2.628-2.286-2.628s-2.628.918-2.628 2.826V148H29.29v-5.616c0-1.566-.774-2.628-2.286-2.628s-2.628.918-2.628 2.826V148h-1.368Zm24.312 0h-1.314v-1.152c-.396.648-1.638 1.368-3.168 1.368-2.178 0-3.492-1.224-3.492-2.898 0-1.782 1.458-2.88 3.654-2.88 1.458 0 2.43.612 2.952 1.152v-1.71c0-1.26-.828-2.232-2.304-2.232-1.17 0-1.926.54-2.304 1.386h-1.26c.468-1.53 1.764-2.466 3.582-2.466 2.286 0 3.654 1.494 3.654 3.312V148Zm-4.194-.666c1.44 0 2.826-.846 2.826-2.034 0-1.152-1.368-1.962-2.754-1.962-1.53 0-2.556.72-2.556 1.998s1.062 1.998 2.484 1.998Zm11.292.666h-1.152c-1.764 0-2.502-.882-2.502-2.448V139.9h-1.566v-1.116h1.566v-2.646h1.368v2.646h2.358v1.116h-2.358v5.652c0 .936.342 1.332 1.368 1.332h.918V148Zm5.835.216c-2.394 0-4.068-1.53-4.068-4.014v-1.476c0-2.502 1.422-4.158 4.014-4.158 2.628 0 3.906 1.746 3.906 4.014v1.368H57.5v.324c0 1.602.828 2.898 2.754 2.898 1.386 0 2.232-.738 2.538-1.782h1.224c-.306 1.656-1.836 2.826-3.762 2.826Zm-2.754-5.598v.288h5.328v-.432c0-1.638-.828-2.862-2.628-2.862-1.98 0-2.7 1.314-2.7 3.006ZM2.106 168v-8.1H.756v-1.116h1.35v-1.224c0-1.782.792-2.7 2.664-2.7h1.296v1.116H4.878c-.972 0-1.404.45-1.404 1.476v1.332h2.268v1.116H3.474v8.1H2.106Zm5.778 0v-9.216h1.368V168H7.884Zm-.18-11.646c0-.486.342-.828.864-.828s.864.342.864.828c0 .486-.342.828-.864.828s-.864-.342-.864-.828ZM12.251 168v-9.216h1.296v1.566c.432-1.044 1.476-1.782 3.078-1.782 2.07 0 3.384 1.404 3.384 3.618V168h-1.368v-5.616c0-1.566-.702-2.628-2.358-2.628-1.512 0-2.664.918-2.664 2.826V168h-1.368Zm18.142 0h-1.314v-1.152c-.396.648-1.638 1.368-3.168 1.368-2.178 0-3.492-1.224-3.492-2.898 0-1.782 1.458-2.88 3.654-2.88 1.458 0 2.43.612 2.952 1.152v-1.71c0-1.26-.828-2.232-2.304-2.232-1.17 0-1.926.54-2.304 1.386h-1.26c.468-1.53 1.764-2.466 3.582-2.466 2.286 0 3.654 1.494 3.654 3.312V168Zm-4.194-.666c1.44 0 2.826-.846 2.826-2.034 0-1.152-1.368-1.962-2.754-1.962-1.53 0-2.556.72-2.556 1.998s1.062 1.998 2.484 1.998Zm7.005.666v-9.216H34.5v1.566c.432-1.044 1.476-1.782 3.078-1.782 2.07 0 3.384 1.404 3.384 3.618V168h-1.368v-5.616c0-1.566-.702-2.628-2.358-2.628-1.512 0-2.664.918-2.664 2.826V168h-1.368Zm14.218.216c-2.556 0-4.086-1.728-4.086-4.05v-1.548c0-2.322 1.53-4.05 4.086-4.05 2.322 0 3.834 1.512 3.942 3.456H50.14c-.18-1.242-.954-2.376-2.7-2.376-1.89 0-2.772 1.224-2.772 2.952v1.584c0 1.728.882 2.952 2.772 2.952 1.746 0 2.52-1.134 2.7-2.376h1.224c-.108 1.944-1.62 3.456-3.942 3.456Zm6.526-.216v-9.216h1.368V168h-1.368Zm-.18-11.646c0-.486.342-.828.864-.828s.864.342.864.828c0 .486-.342.828-.864.828s-.864-.342-.864-.828ZM58.323 168v-9.216h1.296v1.566c.432-1.044 1.476-1.782 3.078-1.782 2.07 0 3.384 1.404 3.384 3.618V168h-1.368v-5.616c0-1.566-.702-2.628-2.358-2.628-1.512 0-2.664.918-2.664 2.826V168h-1.368Zm14.29 3.348c-1.836 0-3.492-.846-3.996-2.358h1.35c.504.882 1.386 1.278 2.646 1.278 1.602 0 2.7-.9 2.7-2.304v-2.088c-.288.846-1.548 1.746-3.096 1.746-2.394 0-3.762-1.71-3.762-3.762v-1.53c0-2.088 1.35-3.762 3.78-3.762 1.728 0 2.754.936 3.132 1.746v-1.53h1.314V168c0 1.908-1.728 3.348-4.068 3.348Zm-.126-4.842c1.566 0 2.826-1.044 2.826-2.79v-1.188c0-1.566-1.188-2.844-2.772-2.844-1.8 0-2.736.99-2.736 2.754v1.314c0 1.728.918 2.754 2.682 2.754Z" />
  <path fill="#C2C2C2"
    d="M344.141 114.924c0 2.884-1.988 5.068-4.816 5.796v3.36h-4.62v-3.332c-3.108-.672-4.816-2.772-4.816-5.796v-.42h4.536v.448c0 1.568.98 2.352 2.604 2.352 1.456 0 2.464-.728 2.464-2.072 0-.896-.476-1.484-1.456-1.82l-3.388-1.148c-2.94-1.008-4.62-2.184-4.62-5.236 0-3.024 1.932-4.788 4.564-5.404V98.32h4.62v3.36c2.66.672 4.424 2.548 4.424 5.404v.476h-4.48v-.392c0-1.288-.812-2.016-2.296-2.016-1.344 0-2.212.532-2.212 1.652 0 .896.616 1.204 1.456 1.512l3.192 1.12c2.604.924 4.844 2.156 4.844 5.488ZM354.94 121h-4.76v-14.812l-4.228 1.372v-4.2l5.04-1.96h3.948V121Zm3.357-2.38c0-1.484 1.092-2.604 2.632-2.604s2.632 1.12 2.632 2.604-1.092 2.604-2.632 2.604-2.632-1.12-2.632-2.604Zm8.829-13.412V101.4h12.796v3.836l-4.34 4.06c2.688.42 5.208 2.044 5.208 5.74s-3.36 6.356-7.504 6.356c-4.004 0-7.224-2.128-7.28-6.356h4.452c.084 1.54 1.148 2.548 2.856 2.548 1.736 0 2.772-1.064 2.772-2.408 0-1.456-.896-2.352-2.8-2.352h-2.968V109.1l3.808-3.892h-7Zm15.713-3.808h15.4v4.06h-5.292V121h-4.816v-15.54h-5.292v-4.06ZM343.582 135.4V148h-1.332v-9.9l-3.474 6.858h-1.332l-3.474-6.858v9.9h-1.332v-12.6h1.314l4.158 8.316 4.158-8.316h1.314Zm3.187 12.6v-9.216h1.368V148h-1.368Zm-.18-11.646c0-.486.342-.828.864-.828s.864.342.864.828c0 .486-.342.828-.864.828s-.864-.342-.864-.828ZM351.234 148v-13.14h1.368V148h-1.368Zm4.464 0v-9.216h1.368V148h-1.368Zm-.18-11.646c0-.486.342-.828.864-.828s.864.342.864.828c0 .486-.342.828-.864.828s-.864-.342-.864-.828ZM364.483 148h-1.152c-1.764 0-2.502-.882-2.502-2.448V139.9h-1.566v-1.116h1.566v-2.646h1.368v2.646h2.358v1.116h-2.358v5.652c0 .936.342 1.332 1.368 1.332h.918V148Zm9.777 0h-1.314v-1.152c-.396.648-1.638 1.368-3.168 1.368-2.178 0-3.492-1.224-3.492-2.898 0-1.782 1.458-2.88 3.654-2.88 1.458 0 2.43.612 2.952 1.152v-1.71c0-1.26-.828-2.232-2.304-2.232-1.17 0-1.926.54-2.304 1.386h-1.26c.468-1.53 1.764-2.466 3.582-2.466 2.286 0 3.654 1.494 3.654 3.312V148Zm-4.194-.666c1.44 0 2.826-.846 2.826-2.034 0-1.152-1.368-1.962-2.754-1.962-1.53 0-2.556.72-2.556 1.998s1.062 1.998 2.484 1.998Zm7.005.666v-9.216h1.278v2.124c.342-1.422 1.332-2.178 3.006-2.178h.216v1.278h-.27c-1.746 0-2.862 1.152-2.862 3.474V148h-1.368Zm9.36 3.132h-1.332l1.17-3.132-3.438-9.216h1.35l2.808 7.83 2.7-7.83h1.35L387.637 148l-1.206 3.132Zm-50.589 17.084c-2.232 0-3.816-1.116-3.816-2.898v-.09h1.242v.054c0 1.152 1.08 1.908 2.592 1.908 1.422 0 2.448-.558 2.448-1.746 0-.648-.414-1.116-1.152-1.278l-2.736-.63c-1.368-.306-2.16-1.134-2.16-2.34 0-1.728 1.458-2.628 3.492-2.628 1.926 0 3.42 1.17 3.42 2.88v.09h-1.242v-.054c0-1.134-.828-1.89-2.196-1.89-1.278 0-2.214.54-2.214 1.566 0 .63.306 1.026.972 1.188l2.826.666c1.422.342 2.268 1.044 2.268 2.376 0 1.638-1.584 2.826-3.744 2.826Zm7.459 2.916h-1.368v-12.348h1.296v1.44c.396-.846 1.584-1.656 3.114-1.656 2.466 0 3.852 1.782 3.852 4.122v1.404c0 2.394-1.494 4.122-3.816 4.122-1.44 0-2.52-.648-3.078-1.584v4.5Zm5.526-7.092v-1.296c0-1.692-.81-3.06-2.718-3.06-1.818 0-2.808 1.386-2.808 3.168v1.188c0 1.89 1.296 3.06 2.826 3.06 1.746 0 2.7-1.368 2.7-3.06Zm7.446 4.176c-2.394 0-4.068-1.53-4.068-4.014v-1.476c0-2.502 1.422-4.158 4.014-4.158 2.628 0 3.906 1.746 3.906 4.014v1.368h-6.606v.324c0 1.602.828 2.898 2.754 2.898 1.386 0 2.232-.738 2.538-1.782h1.224c-.306 1.656-1.836 2.826-3.762 2.826Zm-2.754-5.598v.288h5.328v-.432c0-1.638-.828-2.862-2.628-2.862-1.98 0-2.7 1.314-2.7 3.006Zm9.103 5.382v-9.216h1.296v1.566c.432-1.044 1.476-1.782 3.078-1.782 2.07 0 3.384 1.404 3.384 3.618V168h-1.368v-5.616c0-1.566-.702-2.628-2.358-2.628-1.512 0-2.664.918-2.664 2.826V168h-1.368Zm17.026-13.14h1.368V168h-1.296v-1.44c-.396.846-1.584 1.656-3.114 1.656-2.43 0-3.852-1.818-3.852-4.122v-1.404c0-2.394 1.494-4.122 3.816-4.122 1.44 0 2.52.648 3.078 1.584v-5.292Zm-5.526 7.884v1.296c0 1.692.81 3.06 2.718 3.06 1.818 0 2.808-1.386 2.808-3.168v-1.188c0-1.89-1.296-3.06-2.826-3.06-1.746 0-2.7 1.368-2.7 3.06Zm9.895 5.256v-9.216h1.368V168h-1.368Zm-.18-11.646c0-.486.342-.828.864-.828s.864.342.864.828c0 .486-.342.828-.864.828s-.864-.342-.864-.828ZM388.392 168v-9.216h1.296v1.566c.432-1.044 1.476-1.782 3.078-1.782 2.07 0 3.384 1.404 3.384 3.618V168h-1.368v-5.616c0-1.566-.702-2.628-2.358-2.628-1.512 0-2.664.918-2.664 2.826V168h-1.368Zm14.29 3.348c-1.836 0-3.492-.846-3.996-2.358h1.35c.504.882 1.386 1.278 2.646 1.278 1.602 0 2.7-.9 2.7-2.304v-2.088c-.288.846-1.548 1.746-3.096 1.746-2.394 0-3.762-1.71-3.762-3.762v-1.53c0-2.088 1.35-3.762 3.78-3.762 1.728 0 2.754.936 3.132 1.746v-1.53h1.314V168c0 1.908-1.728 3.348-4.068 3.348Zm-.126-4.842c1.566 0 2.826-1.044 2.826-2.79v-1.188c0-1.566-1.188-2.844-2.772-2.844-1.8 0-2.736.99-2.736 2.754v1.314c0 1.728.918 2.754 2.682 2.754Z" />
</svg>