<svg xmlns="http://www.w3.org/2000/svg" width="682" height="522" fill="none">
  <path fill="#212529" d="M0 0h681.847v521.847H0z" />
  <path fill="#01FFD8" d="m132.751 241 19.239 19.239-19.239 19.239-19.239-19.239z" />
  <path fill="#595C5F" d="m420.923 0 260.923 260.923-260.923 260.923L160 260.923z" />
  <path fill="#fff"
    d="M391.817 256.886c0 4.326-2.982 7.602-7.224 8.694v5.04h-6.93v-4.998c-4.662-1.008-7.224-4.158-7.224-8.694v-.63h6.804v.672c0 2.352 1.47 3.528 3.906 3.528 2.184 0 3.696-1.092 3.696-3.108 0-1.344-.714-2.226-2.184-2.73l-5.082-1.722c-4.41-1.512-6.93-3.276-6.93-7.854 0-4.536 2.898-7.182 6.846-8.106v-4.998h6.93v5.04c3.99 1.008 6.636 3.822 6.636 8.106v.714h-6.72v-.588c0-1.932-1.218-3.024-3.444-3.024-2.016 0-3.318.798-3.318 2.478 0 1.344.924 1.806 2.184 2.268l4.788 1.68c3.906 1.386 7.266 3.234 7.266 8.232ZM408.016 266h-7.14v-22.218l-6.342 2.058v-6.3l7.56-2.94h5.922V266Zm5.036-3.57c0-2.226 1.638-3.906 3.948-3.906s3.948 1.68 3.948 3.906-1.638 3.906-3.948 3.906-3.948-1.68-3.948-3.906Zm13.243-20.118V236.6h19.194v5.754l-6.51 6.09c4.032.63 7.812 3.066 7.812 8.61s-5.04 9.534-11.256 9.534c-6.006 0-10.836-3.192-10.92-9.534h6.678c.126 2.31 1.722 3.822 4.284 3.822 2.604 0 4.158-1.596 4.158-3.612 0-2.184-1.344-3.528-4.2-3.528h-4.452v-5.586l5.712-5.838h-10.5Zm23.569-5.712h23.1v6.09h-7.938V266h-7.224v-23.31h-7.938v-6.09Z" />
  <path fill="#01FFD8"
    d="M23.394 266.886c0 4.326-2.982 7.602-7.224 8.694v5.04H9.24v-4.998c-4.662-1.008-7.224-4.158-7.224-8.694v-.63H8.82v.672c0 2.352 1.47 3.528 3.906 3.528 2.184 0 3.696-1.092 3.696-3.108 0-1.344-.714-2.226-2.184-2.73l-5.082-1.722c-4.41-1.512-6.93-3.276-6.93-7.854 0-4.536 2.898-7.182 6.846-8.106v-4.998h6.93v5.04c3.99 1.008 6.636 3.822 6.636 8.106v.714h-6.72v-.588c0-1.932-1.218-3.024-3.444-3.024-2.016 0-3.318.798-3.318 2.478 0 1.344.924 1.806 2.184 2.268l4.788 1.68c3.906 1.386 7.266 3.234 7.266 8.232ZM39.214 276h-7.77l7.686-10.542c-.966.63-1.89.882-3.402.882-4.872 0-9.198-3.57-9.198-9.912 0-6.174 4.537-10.416 11.298-10.416 7.014 0 11.55 4.074 11.55 10.458 0 3.696-1.175 6.678-2.603 8.694L39.215 276Zm-1.301-15.078c2.772 0 4.41-1.848 4.41-4.578 0-2.646-1.428-4.662-4.41-4.662-2.646 0-4.41 1.848-4.41 4.62 0 2.688 1.553 4.62 4.41 4.62Zm26.758 15.666c-6.889 0-11.509-4.242-11.509-10.5v-9.576c0-6.258 4.62-10.5 11.509-10.5 6.887 0 11.507 4.242 11.507 10.5v9.576c0 6.258-4.62 10.5-11.507 10.5Zm4.367-20.076c0-3.234-1.721-4.662-4.367-4.662-2.647 0-4.369 1.428-4.369 4.662v9.576c0 3.234 1.723 4.662 4.369 4.662 2.645 0 4.367-1.428 4.367-4.662v-9.576Zm36.438 11.256c0 5.04-4.326 8.232-10.122 8.232H81.116v-29.4h14.07c5.544 0 8.484 3.36 8.484 7.518 0 3.108-1.26 5.292-3.864 6.678 3.192.882 5.67 2.856 5.67 6.972Zm-7.14-.672c0-1.974-1.26-3.15-3.36-3.15h-6.804v6.384h6.93c2.058 0 3.234-1.344 3.234-3.234Zm-10.164-8.778h5.376c1.89 0 2.94-1.218 2.94-3.15 0-1.806-1.134-2.898-3.024-2.898h-5.292v6.048Z" />
  <path fill="#fff"
    d="M388.199 284.7v16.8h-1.776v-13.2l-4.632 9.144h-1.776l-4.632-9.144v13.2h-1.776v-16.8h1.752l5.544 11.088 5.544-11.088h1.752Zm4.249 16.8v-12.288h1.824V301.5h-1.824Zm-.24-15.528c0-.648.456-1.104 1.152-1.104s1.152.456 1.152 1.104c0 .648-.456 1.104-1.152 1.104s-1.152-.456-1.152-1.104Zm6.194 15.528v-17.52h1.824v17.52h-1.824Zm5.953 0v-12.288h1.824V301.5h-1.824Zm-.24-15.528c0-.648.456-1.104 1.152-1.104s1.152.456 1.152 1.104c0 .648-.456 1.104-1.152 1.104s-1.152-.456-1.152-1.104Zm11.953 15.528h-1.536c-2.352 0-3.336-1.176-3.336-3.264V290.7h-2.088v-1.488h2.088v-3.528h1.824v3.528h3.144v1.488h-3.144v7.536c0 1.248.456 1.776 1.824 1.776h1.224v1.488Zm13.036 0h-1.752v-1.536c-.528.864-2.184 1.824-4.224 1.824-2.904 0-4.656-1.632-4.656-3.864 0-2.376 1.944-3.84 4.872-3.84 1.944 0 3.24.816 3.936 1.536v-2.28c0-1.68-1.104-2.976-3.072-2.976-1.56 0-2.568.72-3.072 1.848h-1.68c.624-2.04 2.352-3.288 4.776-3.288 3.048 0 4.872 1.992 4.872 4.416v8.16Zm-5.592-.888c1.92 0 3.768-1.128 3.768-2.712 0-1.536-1.824-2.616-3.672-2.616-2.04 0-3.408.96-3.408 2.664 0 1.704 1.416 2.664 3.312 2.664Zm9.34.888v-12.288h1.704v2.832c.456-1.896 1.776-2.904 4.008-2.904h.288v1.704h-.36c-2.328 0-3.816 1.536-3.816 4.632v6.024h-1.824Zm12.48 4.176h-1.776l1.56-4.176-4.584-12.288h1.8l3.744 10.44 3.6-10.44h1.8L446.94 301.5l-1.608 4.176Zm-67.453 25.112c-2.976 0-5.088-1.488-5.088-3.864v-.12h1.656v.072c0 1.536 1.44 2.544 3.456 2.544 1.896 0 3.264-.744 3.264-2.328 0-.864-.552-1.488-1.536-1.704l-3.648-.84c-1.824-.408-2.88-1.512-2.88-3.12 0-2.304 1.944-3.504 4.656-3.504 2.568 0 4.56 1.56 4.56 3.84v.12h-1.656v-.072c0-1.512-1.104-2.52-2.928-2.52-1.704 0-2.952.72-2.952 2.088 0 .84.408 1.368 1.296 1.584l3.768.888c1.896.456 3.024 1.392 3.024 3.168 0 2.184-2.112 3.768-4.992 3.768Zm9.945 3.888H386v-16.464h1.728v1.92c.528-1.128 2.112-2.208 4.152-2.208 3.288 0 5.136 2.376 5.136 5.496v1.872c0 3.192-1.992 5.496-5.088 5.496-1.92 0-3.36-.864-4.104-2.112v6Zm7.368-9.456v-1.728c0-2.256-1.08-4.08-3.624-4.08-2.424 0-3.744 1.848-3.744 4.224v1.584c0 2.52 1.728 4.08 3.768 4.08 2.328 0 3.6-1.824 3.6-4.08Zm9.929 5.568c-3.192 0-5.424-2.04-5.424-5.352v-1.968c0-3.336 1.896-5.544 5.352-5.544 3.504 0 5.208 2.328 5.208 5.352v1.824h-8.808v.432c0 2.136 1.104 3.864 3.672 3.864 1.848 0 2.976-.984 3.384-2.376h1.632c-.408 2.208-2.448 3.768-5.016 3.768Zm-3.672-7.464v.384h7.104v-.576c0-2.184-1.104-3.816-3.504-3.816-2.64 0-3.6 1.752-3.6 4.008Zm12.137 7.176v-12.288h1.728v2.088c.576-1.392 1.968-2.376 4.104-2.376 2.76 0 4.512 1.872 4.512 4.824v7.752h-1.824v-7.488c0-2.088-.936-3.504-3.144-3.504-2.016 0-3.552 1.224-3.552 3.768v7.224h-1.824Zm22.702-17.52h1.824v17.52h-1.728v-1.92c-.528 1.128-2.112 2.208-4.152 2.208-3.24 0-5.136-2.424-5.136-5.496v-1.872c0-3.192 1.992-5.496 5.088-5.496 1.92 0 3.36.864 4.104 2.112v-7.056Zm-7.368 10.512v1.728c0 2.256 1.08 4.08 3.624 4.08 2.424 0 3.744-1.848 3.744-4.224v-1.584c0-2.52-1.728-4.08-3.768-4.08-2.328 0-3.6 1.824-3.6 4.08Zm13.192 7.008v-12.288h1.824V330.5h-1.824Zm-.24-15.528c0-.648.456-1.104 1.152-1.104s1.152.456 1.152 1.104c0 .648-.456 1.104-1.152 1.104s-1.152-.456-1.152-1.104Zm6.074 15.528v-12.288h1.728v2.088c.576-1.392 1.968-2.376 4.104-2.376 2.76 0 4.512 1.872 4.512 4.824v7.752h-1.824v-7.488c0-2.088-.936-3.504-3.144-3.504-2.016 0-3.552 1.224-3.552 3.768v7.224h-1.824Zm19.053 4.464c-2.448 0-4.656-1.128-5.328-3.144h1.8c.672 1.176 1.848 1.704 3.528 1.704 2.136 0 3.6-1.2 3.6-3.072v-2.784c-.384 1.128-2.064 2.328-4.128 2.328-3.192 0-5.016-2.28-5.016-5.016v-2.04c0-2.784 1.8-5.016 5.04-5.016 2.304 0 3.672 1.248 4.176 2.328v-2.04h1.752V330.5c0 2.544-2.304 4.464-5.424 4.464Zm-.168-6.456c2.088 0 3.768-1.392 3.768-3.72v-1.584c0-2.088-1.584-3.792-3.696-3.792-2.4 0-3.648 1.32-3.648 3.672v1.752c0 2.304 1.224 3.672 3.576 3.672Z" />
  <path fill="#01FFD8"
    d="M8.664 311.836c-4.632 0-6.984-3.144-6.984-7.32v-2.832c0-4.176 2.352-7.32 6.984-7.32 3.888 0 6.36 2.712 6.624 5.88h-1.8c-.288-2.304-1.824-4.32-4.848-4.32-3.432 0-5.088 2.4-5.088 5.688v2.976c0 3.288 1.656 5.688 5.088 5.688 3.024 0 4.56-2.016 4.848-4.32h1.8c-.264 3.168-2.736 5.88-6.624 5.88Zm10.228-.336v-17.52h1.824v17.52h-1.824Zm5.953 0v-12.288h1.824V311.5h-1.824Zm-.24-15.528c0-.648.456-1.104 1.152-1.104s1.152.456 1.152 1.104c0 .648-.456 1.104-1.152 1.104s-1.152-.456-1.152-1.104Zm6.073 15.528v-12.288h1.728v2.088c.576-1.392 1.92-2.376 4.056-2.376 1.824 0 3.216.912 3.912 2.4.84-1.44 2.328-2.4 4.464-2.4 2.688 0 4.416 1.92 4.416 4.824v7.752H47.43v-7.488c0-2.088-1.032-3.504-3.048-3.504s-3.504 1.224-3.504 3.768v7.224h-1.824v-7.488c0-2.088-1.032-3.504-3.048-3.504s-3.504 1.224-3.504 3.768v7.224h-1.824Zm32.416 0h-1.752v-1.536c-.528.864-2.184 1.824-4.224 1.824-2.904 0-4.656-1.632-4.656-3.864 0-2.376 1.944-3.84 4.872-3.84 1.944 0 3.24.816 3.936 1.536v-2.28c0-1.68-1.104-2.976-3.072-2.976-1.56 0-2.568.72-3.072 1.848h-1.68c.624-2.04 2.352-3.288 4.776-3.288 3.048 0 4.872 1.992 4.872 4.416v8.16Zm-5.592-.888c1.92 0 3.768-1.128 3.768-2.712 0-1.536-1.824-2.616-3.672-2.616-2.04 0-3.408.96-3.408 2.664 0 1.704 1.416 2.664 3.312 2.664Zm15.056.888h-1.536c-2.352 0-3.336-1.176-3.336-3.264V300.7h-2.088v-1.488h2.088v-3.528h1.824v3.528h3.144v1.488H69.51v7.536c0 1.248.456 1.776 1.824 1.776h1.224v1.488Zm7.78.288c-3.192 0-5.424-2.04-5.424-5.352v-1.968c0-3.336 1.896-5.544 5.352-5.544 3.504 0 5.208 2.328 5.208 5.352v1.824h-8.808v.432c0 2.136 1.104 3.864 3.672 3.864 1.848 0 2.976-.984 3.384-2.376h1.632c-.408 2.208-2.448 3.768-5.016 3.768Zm-3.672-7.464v.384h7.104v-.576c0-2.184-1.104-3.816-3.504-3.816-2.64 0-3.6 1.752-3.6 4.008ZM2.808 340.5v-10.8h-1.8v-1.488h1.8v-1.632c0-2.376 1.056-3.6 3.552-3.6h1.728v1.488H6.504c-1.296 0-1.872.6-1.872 1.968v1.776h3.024v1.488H4.632v10.8H2.808Zm7.704 0v-12.288h1.824V340.5h-1.824Zm-.24-15.528c0-.648.456-1.104 1.152-1.104s1.152.456 1.152 1.104c0 .648-.456 1.104-1.152 1.104s-1.152-.456-1.152-1.104Zm6.063 15.528v-12.288h1.728v2.088c.576-1.392 1.968-2.376 4.104-2.376 2.76 0 4.512 1.872 4.512 4.824v7.752h-1.824v-7.488c0-2.088-.936-3.504-3.144-3.504-2.016 0-3.552 1.224-3.552 3.768v7.224h-1.824Zm24.189 0h-1.752v-1.536c-.528.864-2.184 1.824-4.224 1.824-2.904 0-4.656-1.632-4.656-3.864 0-2.376 1.944-3.84 4.872-3.84 1.944 0 3.24.816 3.936 1.536v-2.28c0-1.68-1.104-2.976-3.072-2.976-1.56 0-2.568.72-3.072 1.848h-1.68c.624-2.04 2.352-3.288 4.776-3.288 3.048 0 4.872 1.992 4.872 4.416v8.16Zm-5.592-.888c1.92 0 3.768-1.128 3.768-2.712 0-1.536-1.824-2.616-3.672-2.616-2.04 0-3.408.96-3.408 2.664 0 1.704 1.416 2.664 3.312 2.664Zm9.34.888v-12.288H46v2.088c.576-1.392 1.968-2.376 4.104-2.376 2.76 0 4.512 1.872 4.512 4.824v7.752h-1.824v-7.488c0-2.088-.936-3.504-3.144-3.504-2.016 0-3.552 1.224-3.552 3.768v7.224h-1.824Zm18.958.288c-3.408 0-5.448-2.304-5.448-5.4v-2.064c0-3.096 2.04-5.4 5.448-5.4 3.096 0 5.111 2.016 5.256 4.608h-1.633c-.24-1.656-1.271-3.168-3.6-3.168-2.52 0-3.696 1.632-3.696 3.936v2.112c0 2.304 1.176 3.936 3.697 3.936 2.328 0 3.36-1.512 3.6-3.168h1.632c-.145 2.592-2.16 4.608-5.257 4.608Zm8.701-.288v-12.288h1.824V340.5h-1.824Zm-.24-15.528c0-.648.456-1.104 1.152-1.104s1.152.456 1.152 1.104c0 .648-.456 1.104-1.152 1.104s-1.152-.456-1.152-1.104Zm6.073 15.528v-12.288h1.728v2.088c.576-1.392 1.968-2.376 4.104-2.376 2.76 0 4.512 1.872 4.512 4.824v7.752h-1.824v-7.488c0-2.088-.936-3.504-3.144-3.504-2.016 0-3.552 1.224-3.552 3.768v7.224h-1.824Zm19.054 4.464c-2.448 0-4.656-1.128-5.328-3.144h1.8c.672 1.176 1.848 1.704 3.528 1.704 2.136 0 3.6-1.2 3.6-3.072v-2.784c-.384 1.128-2.064 2.328-4.128 2.328-3.192 0-5.016-2.28-5.016-5.016v-2.04c0-2.784 1.8-5.016 5.04-5.016 2.304 0 3.672 1.248 4.176 2.328v-2.04h1.752V340.5c0 2.544-2.304 4.464-5.424 4.464Zm-.168-6.456c2.088 0 3.768-1.392 3.768-3.72v-1.584c0-2.088-1.584-3.792-3.696-3.792-2.4 0-3.648 1.32-3.648 3.672v1.752c0 2.304 1.224 3.672 3.576 3.672Z" />
  <path fill="#999"
    d="M1.26 16v-1.08l5.328-5.598c.882-.918 1.404-1.746 1.404-2.718 0-1.404-1.098-2.322-2.574-2.322-1.602 0-2.646.918-2.646 2.538v.288H1.458v-.342c0-2.304 1.62-3.618 3.96-3.618 2.286 0 3.96 1.35 3.96 3.456 0 1.53-1.062 2.7-2.07 3.726l-4.446 4.536h6.534V16H1.26Zm15.045.252c-2.772 0-4.41-1.8-4.41-4.194V7.342c0-2.394 1.638-4.194 4.41-4.194 2.772 0 4.41 1.8 4.41 4.194v4.716c0 2.394-1.638 4.194-4.41 4.194Zm0-1.134c1.962 0 3.024-1.224 3.024-3.006V7.288c0-1.782-1.062-3.006-3.024-3.006S13.28 5.506 13.28 7.288v4.824c0 1.782 1.062 3.006 3.024 3.006Zm6.928.882v-1.08l5.328-5.598c.882-.918 1.404-1.746 1.404-2.718 0-1.404-1.098-2.322-2.574-2.322-1.602 0-2.646.918-2.646 2.538v.288H23.43v-.342c0-2.304 1.62-3.618 3.96-3.618 2.286 0 3.96 1.35 3.96 3.456 0 1.53-1.062 2.7-2.07 3.726l-4.446 4.536h6.534V16h-8.136Zm12.666 0V4.822L33.27 6.064v-1.26L36.133 3.4h1.152V16h-1.386Zm11.904.216c-2.232 0-3.816-1.116-3.816-2.898v-.09h1.242v.054c0 1.152 1.08 1.908 2.592 1.908 1.422 0 2.448-.558 2.448-1.746 0-.648-.414-1.116-1.152-1.278l-2.736-.63c-1.368-.306-2.16-1.134-2.16-2.34 0-1.728 1.458-2.628 3.492-2.628 1.926 0 3.42 1.17 3.42 2.88v.09H49.89v-.054c0-1.134-.828-1.89-2.196-1.89-1.278 0-2.214.54-2.214 1.566 0 .63.306 1.026.972 1.188l2.826.666c1.422.342 2.268 1.044 2.268 2.376 0 1.638-1.584 2.826-3.744 2.826Zm7.459 2.916h-1.368V6.784h1.296v1.44c.396-.846 1.584-1.656 3.114-1.656 2.465 0 3.852 1.782 3.852 4.122v1.404c0 2.394-1.495 4.122-3.816 4.122-1.44 0-2.52-.648-3.079-1.584v4.5Zm5.526-7.092v-1.296c0-1.692-.81-3.06-2.718-3.06-1.819 0-2.809 1.386-2.809 3.168v1.188c0 1.89 1.296 3.06 2.826 3.06 1.746 0 2.7-1.368 2.7-3.06Zm7.446 4.176c-2.394 0-4.068-1.53-4.068-4.014v-1.476c0-2.502 1.422-4.158 4.014-4.158 2.628 0 3.906 1.746 3.906 4.014v1.368H65.48v.324c0 1.602.828 2.898 2.754 2.898 1.386 0 2.232-.738 2.538-1.782h1.224c-.306 1.656-1.836 2.826-3.762 2.826Zm-2.754-5.598v.288h5.328v-.432c0-1.638-.828-2.862-2.628-2.862-1.98 0-2.7 1.314-2.7 3.006ZM74.583 16V6.784h1.296V8.35c.432-1.044 1.476-1.782 3.078-1.782 2.07 0 3.384 1.404 3.384 3.618V16h-1.368v-5.616c0-1.566-.702-2.628-2.358-2.628-1.512 0-2.664.918-2.664 2.826V16h-1.368ZM91.609 2.86h1.368V16h-1.296v-1.44c-.396.846-1.584 1.656-3.114 1.656-2.43 0-3.852-1.818-3.852-4.122V10.69c0-2.394 1.494-4.122 3.816-4.122 1.44 0 2.52.648 3.078 1.584V2.86Zm-5.526 7.884v1.296c0 1.692.81 3.06 2.718 3.06 1.818 0 2.808-1.386 2.808-3.168v-1.188c0-1.89-1.296-3.06-2.826-3.06-1.746 0-2.7 1.368-2.7 3.06ZM95.978 16V6.784h1.368V16h-1.368Zm-.18-11.646c0-.486.342-.828.864-.828s.864.342.864.828c0 .486-.342.828-.864.828s-.864-.342-.864-.828ZM100.353 16V6.784h1.296V8.35c.432-1.044 1.476-1.782 3.078-1.782 2.07 0 3.384 1.404 3.384 3.618V16h-1.368v-5.616c0-1.566-.702-2.628-2.358-2.628-1.512 0-2.664.918-2.664 2.826V16h-1.368Zm14.29 3.348c-1.836 0-3.492-.846-3.996-2.358h1.35c.504.882 1.386 1.278 2.646 1.278 1.602 0 2.7-.9 2.7-2.304v-2.088c-.288.846-1.548 1.746-3.096 1.746-2.394 0-3.762-1.71-3.762-3.762v-1.53c0-2.088 1.35-3.762 3.78-3.762 1.728 0 2.754.936 3.132 1.746v-1.53h1.314V16c0 1.908-1.728 3.348-4.068 3.348Zm-.126-4.842c1.566 0 2.826-1.044 2.826-2.79v-1.188c0-1.566-1.188-2.844-2.772-2.844-1.8 0-2.736.99-2.736 2.754v1.314c0 1.728.918 2.754 2.682 2.754Z" />
</svg>