<svg width="50" height="31" viewBox="0 0 50 31" fill="none" xmlns="http://www.w3.org/2000/svg">
<g id="Layer_4" clip-path="url(#clip0_204_349)">
<path id="Vector" d="M41.732 28.4309V20.6106H48.3989L42.237 13.7438L46.9746 14.2712L40.8229 7.39425L45.5604 7.93183L38.449 0L32.6307 6.49153L33.6913 7.66812L36.0853 7.39425L32.6307 11.2486L36.7116 15.8028L31.9741 15.2754L37.8329 21.8075H35.8025V28.4309H28.4992V20.6106H35.1661L29.0144 13.7438L33.7418 14.2712L27.5901 7.39425L32.3276 7.93183L25.2163 0L18.115 7.93183L22.8526 7.39425L16.6907 14.2712L21.4283 13.7438L15.2765 20.6106H22.5697V28.4309H15.1048V21.8075H12.6098L14.3876 19.8194L17.7211 16.097L18.4585 15.2754L13.7209 15.8028L17.7211 11.3399L14.1957 7.39425L16.7412 7.67826L17.2362 7.13054L17.7211 6.58281L11.8219 0L4.72062 7.93183L9.45816 7.39425L3.29633 14.2712L8.03387 13.7438L1.87204 20.6106H9.17532V28.4309H0.973022V30.4595H49.4595V28.4309H41.732Z" fill="#56C02B"/>
</g>
<defs>
<clipPath id="clip0_204_349">
<rect width="48.4865" height="30.4595" fill="white" transform="translate(0.973022)"/>
</clipPath>
</defs>
</svg>
