<svg width="54" height="35" viewBox="0 0 54 35" fill="none" xmlns="http://www.w3.org/2000/svg">
<g id="Layer_1" clip-path="url(#clip0_204_217)">
<path id="Vector" d="M39.6514 17.6805C39.0314 15.3445 36.319 10.5397 29.2889 1.08497C28.9235 0.586768 28.2814 0 27.4289 0C26.5764 0 25.9454 0.586768 25.569 1.08497C21.9819 5.90089 16.8228 12.2114 15.3061 17.3263C14.8189 18.6991 14.5754 20.1383 14.5754 21.5997C14.5754 28.6852 20.3323 34.4422 27.4178 34.4422C34.5033 34.4422 40.2603 28.6852 40.2603 21.5997C40.2603 20.2712 40.061 18.9537 39.6514 17.6916V17.6805ZM17.5203 21.5443C17.4871 20.4483 17.6421 19.3633 17.9853 18.3227V18.2673C18.2067 17.4813 18.6385 16.2856 19.4799 14.6249C19.2695 17.4702 20.2216 21.4779 21.7162 24.445C23.8087 28.5634 27.2739 31.3865 27.0857 31.3976C22.2144 31.8294 17.6864 26.6149 17.5203 21.5333V21.5443Z" fill="#26BDE2"/>
<path id="Vector_2" d="M13.2026 16.6287C13.9 14.3038 15.2286 11.835 16.8117 9.37717C15.6161 7.49508 13.9554 5.08158 11.6637 2.01489C11.3869 1.64955 10.9219 1.21777 10.2909 1.21777C9.65981 1.21777 9.19482 1.64955 8.91804 2.01489C6.26098 5.57978 2.44146 10.2518 1.32328 14.027C0.969001 15.0456 0.780792 16.1084 0.780792 17.1823C0.780792 22.4189 5.04316 26.6813 10.2798 26.6813C11.2651 26.6813 12.2172 26.5263 13.114 26.2495C12.6379 24.7771 12.3612 23.216 12.3612 21.5886C12.3612 19.9611 12.6379 18.223 13.1915 16.6287H13.2026ZM2.9618 17.138C2.93966 16.3298 3.05037 15.5216 3.305 14.7577V14.7245C3.47107 14.1377 3.78106 13.252 4.41211 12.0342C4.25711 14.1377 4.95459 17.1048 6.07277 19.2969C7.62273 22.3414 10.1801 24.4339 10.0473 24.4449C6.43812 24.766 3.09465 20.9022 2.97287 17.1491L2.9618 17.138Z" fill="#26BDE2"/>
<path id="Vector_3" d="M53.4681 14.2927C53.0031 12.5656 50.9992 9.01182 45.7958 2.01489C45.519 1.64955 45.0541 1.21777 44.423 1.21777C43.792 1.21777 43.327 1.64955 43.0502 2.01489C41.4338 4.18483 39.3857 6.77546 37.7693 9.32181C39.9724 12.7539 41.301 15.3113 41.777 17.0494C42.242 18.5108 42.4745 20.0386 42.4745 21.5886C42.4745 23.2271 42.1977 24.8103 41.7106 26.2827C42.5631 26.5374 43.4709 26.6813 44.4119 26.6813C49.6486 26.6813 53.9109 22.4189 53.9109 17.1823C53.9109 16.197 53.7559 15.2227 53.457 14.2927H53.4681Z" fill="#26BDE2"/>
</g>
<defs>
<clipPath id="clip0_204_217">
<rect width="53.1412" height="34.4311" fill="white" transform="translate(0.780792)"/>
</clipPath>
</defs>
</svg>
