<svg width="31" height="45" viewBox="0 0 31 45" fill="none" xmlns="http://www.w3.org/2000/svg">
<g id="Clean Energy Icon">
<path id="Vector" d="M10.6179 41.0657V41.3324C10.6179 42.8775 12.0176 44.1467 13.7204 44.1467H16.5822C18.2939 44.1467 19.6846 42.8775 19.6846 41.3324V41.0657H10.609H10.6179Z" fill="#FCC30B"/>
<path id="Vector_2" d="M20.9951 32.8523H9.32521C8.63097 32.8523 8.06818 33.4329 8.06818 34.1491V34.6366C8.06818 35.3528 8.63097 35.9334 9.32521 35.9334H20.9951C21.6894 35.9334 22.2522 35.3528 22.2522 34.6366V34.1491C22.2522 33.4329 21.6894 32.8523 20.9951 32.8523Z" fill="#FCC30B"/>
<path id="Vector_3" d="M20.9951 36.9636H9.32521C8.63097 36.9636 8.06818 37.5442 8.06818 38.2604V38.7479C8.06818 39.4641 8.63097 40.0447 9.32521 40.0447H20.9951C21.6894 40.0447 22.2522 39.4641 22.2522 38.7479V38.2604C22.2522 37.5442 21.6894 36.9636 20.9951 36.9636Z" fill="#FCC30B"/>
<path id="Vector_4" d="M15.1557 0C6.80225 0 0 6.88872 0 15.3594C0 20.6662 6.08904 30.0657 6.78442 31.1142C7.07862 31.5557 7.56004 31.8224 8.08603 31.8224H14.7278V19.3234C14.2999 19.2498 13.9165 19.075 13.5956 18.8451C13.1766 18.4772 12.82 17.9162 12.7754 17.0792C12.713 15.856 13.2836 14.0442 15.236 11.3402C17.1527 14.0534 17.7055 15.8744 17.6252 17.0976C17.5717 17.9438 17.2062 18.5048 16.7783 18.8635C16.4752 19.0934 16.1007 19.2498 15.6996 19.3234V31.8316H22.2254C22.7514 31.8316 23.2418 31.5649 23.5271 31.1234C24.2224 30.0657 30.3115 20.6754 30.3115 15.3686C30.3115 6.88872 23.5092 0 15.1557 0ZM10.8408 28.3458C9.76208 27.233 9.80665 25.3843 9.80665 25.3843C9.80665 25.3843 11.5986 25.3383 12.6773 26.4512C13.7561 27.5641 13.7115 29.4127 13.7115 29.4127C13.7115 29.4127 11.9195 29.4587 10.8408 28.3458ZM13.7115 24.4554C13.7115 24.4554 11.9195 24.5014 10.8408 23.3885C9.76208 22.2757 9.80665 20.427 9.80665 20.427C9.80665 20.427 11.5986 20.381 12.6773 21.4939C13.7561 22.6068 13.7115 24.4554 13.7115 24.4554ZM19.4617 28.3458C18.383 29.4587 16.5911 29.4127 16.5911 29.4127C16.5911 29.4127 16.5465 27.5641 17.6252 26.4512C18.704 25.3383 20.4959 25.3843 20.4959 25.3843C20.4959 25.3843 20.5405 27.233 19.4617 28.3458ZM19.4617 23.3885C18.383 24.5014 16.5911 24.4554 16.5911 24.4554C16.5911 24.4554 16.5465 22.6068 17.6252 21.4939C18.704 20.381 20.4959 20.427 20.4959 20.427C20.4959 20.427 20.5405 22.2757 19.4617 23.3885Z" fill="#FCC30B"/>
</g>
</svg>
