<svg width="68" height="32" viewBox="0 0 68 32" fill="none" xmlns="http://www.w3.org/2000/svg">
<g id="Layer_1" clip-path="url(#clip0_204_173)">
<path id="Vector" d="M10.1072 6.56872C10.1072 2.94224 13.0495 0 16.676 0C20.3024 0 23.2447 2.94224 23.2447 6.56872V6.76777C23.2447 10.1454 24.7998 11.769 24.7998 11.769H20.6508C19.5062 12.6585 18.1066 13.1437 16.6573 13.1499C15.2142 13.1312 13.8208 12.6398 12.6887 11.7441H8.5397C8.5397 11.7441 10.0948 10.1206 10.0948 6.74289C10.1135 6.76155 10.1072 6.63092 10.1072 6.5625V6.56872Z" fill="#4C9F38"/>
<path id="Vector_2" d="M26.753 16.3037C25.6457 15.2587 24.2275 14.6118 22.7159 14.4625C23.226 15.1592 23.4997 15.9927 23.5059 16.8511V18.7297C24.4265 18.9972 24.9615 19.9675 24.6878 20.8882C24.4203 21.8088 23.4499 22.3437 22.5293 22.07C21.6087 21.8025 21.0738 20.8322 21.3475 19.9115C21.5154 19.3393 21.9633 18.8914 22.5293 18.7297V16.8511C22.5293 16.6272 22.4671 14.9477 21.1111 14.4314H12.4212C11.6374 14.7984 11.1087 15.5573 11.0403 16.4219C11.7432 16.6023 12.3279 17.0875 12.6327 17.7469C12.9873 18.7359 13.1863 19.7747 13.2174 20.8197C13.3107 21.5164 12.8629 22.1695 12.1786 22.3375C11.8303 22.381 11.4757 22.381 11.1274 22.3375L11.2082 21.1307C11.4384 21.1494 11.6686 21.1494 11.8987 21.1307C11.9733 21.1307 11.9858 20.9193 11.9858 20.8011C11.9485 19.9178 11.7867 19.0469 11.5006 18.2134C11.2331 17.7095 10.6795 17.4358 10.1197 17.5229C9.57228 17.4483 9.03111 17.7282 8.76985 18.2134C8.48994 19.0469 8.32821 19.9178 8.29088 20.8011C8.29088 20.9193 8.29088 21.1183 8.39041 21.137C8.62056 21.1494 8.85072 21.1494 9.08087 21.137L9.21772 22.3562H8.64544C8.48372 22.3562 8.32821 22.3437 8.16648 22.3126C7.48223 22.1447 7.04059 21.4915 7.12767 20.7948C7.15877 19.7436 7.35783 18.7048 7.71239 17.722C8.14159 16.8325 9.05599 16.2726 10.0388 16.3037C10.1321 15.6568 10.3809 15.0348 10.7666 14.506C9.34213 14.6989 8.01097 15.3334 6.96594 16.3162C5.6099 17.3985 4.61464 18.8665 4.12323 20.5336C3.75623 21.5351 2.30066 26.4554 0.913513 31.0958H6.36257C6.97838 29.0244 7.74349 26.4989 8.64544 23.395H10.1943L7.93632 31.0958H15.9233V29.8953L13.9514 16.2042L16.7133 18.9661L19.4751 16.2042L17.5344 29.9015V31.0958H25.6893L23.4251 23.395H24.9739C25.8697 26.4989 26.6161 29.0182 27.263 31.0958H32.7121C31.3312 26.3807 29.9502 21.5164 29.6641 20.5149C29.0607 18.8852 28.053 17.4358 26.7343 16.2975L26.753 16.3037Z" fill="#4C9F38"/>
<path id="Vector_3" d="M12.6887 11.7503C13.8332 12.6398 15.2328 13.125 16.6822 13.1313C18.1315 13.1313 19.5373 12.6398 20.6757 11.7503H24.8247C24.8247 11.7503 23.2696 10.1268 23.2696 6.74915V6.5501C23.2571 2.9174 20.3087 -0.0124013 16.6822 3.94739e-05C16.6822 3.94739e-05 16.6822 3.94739e-05 16.676 3.94739e-05C13.0495 3.94739e-05 10.1072 2.94228 10.1072 6.56876V6.76781C10.1135 10.1455 8.5397 11.7503 8.5397 11.7503H12.6887Z" fill="#4C9F38"/>
<path id="Vector_4" d="M52.7417 12.9135C49.1775 12.9135 46.2912 10.0273 46.2912 6.46298C46.2912 2.89871 49.1775 0.0124512 52.7417 0.0124512C56.306 0.0124512 59.1923 2.89871 59.1923 6.46298C59.1923 6.46298 59.1923 6.46298 59.1923 6.4692C59.1923 10.0273 56.2998 12.9135 52.7417 12.9135Z" fill="#4C9F38"/>
<path id="Vector_5" d="M52.7417 12.9135C56.3043 12.9135 59.1923 10.0255 59.1923 6.46298C59.1923 2.90045 56.3043 0.0124512 52.7417 0.0124512C49.1792 0.0124512 46.2912 2.90045 46.2912 6.46298C46.2912 10.0255 49.1792 12.9135 52.7417 12.9135Z" fill="#4C9F38"/>
<path id="Vector_6" d="M59.8391 14.5245H58.7506C59.2358 15.215 59.5032 16.0423 59.5095 16.8883V18.773C60.4239 19.0405 60.9464 20.0047 60.6789 20.9191C60.4114 21.8335 59.4473 22.356 58.5329 22.0885C57.6185 21.821 57.096 20.8569 57.3634 19.9425C57.5314 19.3764 57.9668 18.941 58.5329 18.773V16.9069C58.5329 16.6954 58.4769 15.1155 57.2639 14.5432H48.1075C47.3922 14.9413 46.9256 15.6629 46.851 16.4777C47.5477 16.6581 48.1324 17.1495 48.431 17.8027C48.7855 18.7917 48.9846 19.8305 49.0157 20.8755C49.109 21.5722 48.6611 22.2254 47.9769 22.3933C47.6285 22.4369 47.274 22.4369 46.9256 22.3933L47.0065 21.1866C47.2367 21.2052 47.4668 21.2052 47.697 21.1866C47.7716 21.1866 47.7841 20.9751 47.7841 20.8569C47.7467 19.9798 47.585 19.1089 47.2989 18.2754C47.0376 17.7902 46.5027 17.5103 45.949 17.585C45.3892 17.4979 44.8356 17.7778 44.5681 18.2754C44.2882 19.1089 44.1265 19.9798 44.0891 20.8569C44.0891 20.9751 44.0891 21.1741 44.1887 21.1928C44.4188 21.2114 44.649 21.2114 44.8791 21.1928L44.9662 22.3995H44.3939C44.2322 22.3995 44.0767 22.3871 43.915 22.356C43.2307 22.188 42.7891 21.5349 42.8762 20.8382C42.9073 19.787 43.1063 18.7544 43.4547 17.7653C43.8839 16.851 44.8169 16.2849 45.8246 16.3222C45.9242 15.6691 46.1854 15.047 46.5835 14.5183H45.5074C40.9665 14.5183 38.1549 18.1946 38.1549 22.8101V31.1018H43.1748V23.345H44.7858V31.1018H52.0201V29.9075L50.0358 16.2165L52.7977 18.9783L55.5595 16.2165L53.625 29.9013V31.1018H60.6913V23.3388H62.2589V31.1018H67.2538V22.9283C67.2601 18.6673 64.7657 14.5183 59.808 14.5183L59.8391 14.5245Z" fill="#4C9F38"/>
</g>
<defs>
<clipPath id="clip0_204_173">
<rect width="66.3528" height="31.1019" fill="white" transform="translate(0.938385)"/>
</clipPath>
</defs>
</svg>
