<svg width="41" height="40" viewBox="0 0 41 40" fill="none" xmlns="http://www.w3.org/2000/svg">
<g id="Layer_2" clip-path="url(#clip0_204_273)">
<path id="Vector" d="M27.2268 22.0994H13.2057C13.1211 22.0994 13.0514 22.174 13.0514 22.2686V26.4794C13.0514 26.574 13.1211 26.6486 13.2057 26.6486H27.2268C27.3114 26.6486 27.3811 26.574 27.3811 26.4794V22.2686C27.3811 22.174 27.3114 22.0994 27.2268 22.0994Z" fill="#DD1367"/>
<path id="Vector_2" d="M27.2268 13.1302H13.2057C13.1211 13.1302 13.0514 13.2049 13.0514 13.2995V17.5103C13.0514 17.6049 13.1211 17.6795 13.2057 17.6795H27.2268C27.3114 17.6795 27.3811 17.6049 27.3811 17.5103V13.2995C27.3811 13.2049 27.3114 13.1302 27.2268 13.1302Z" fill="#DD1367"/>
<path id="Vector_3" d="M27.0277 6.76417L20.2984 0.0348177C20.2536 -0.00997829 20.1789 -0.00997829 20.1341 0.0348177L13.4048 6.76417C13.3301 6.83883 13.3849 6.96326 13.4894 6.96326H26.9481C27.0526 6.96326 27.1024 6.83883 27.0327 6.76417H27.0277Z" fill="#DD1367"/>
<path id="Vector_4" d="M33.344 26.7034L40.0733 19.974C40.1181 19.9292 40.1181 19.8546 40.0733 19.8098L33.344 13.0804C33.2693 13.0058 33.1449 13.0605 33.1449 13.165V26.6237C33.1449 26.7283 33.2693 26.778 33.344 26.7084V26.7034Z" fill="#DD1367"/>
<path id="Vector_5" d="M13.4047 33.0196L20.1341 39.749C20.1789 39.7938 20.2535 39.7938 20.2983 39.749L27.0277 33.0196C27.1023 32.945 27.0476 32.8206 26.9431 32.8206H13.4844C13.3798 32.8206 13.3301 32.945 13.3998 33.0196H13.4047Z" fill="#DD1367"/>
<path id="Vector_6" d="M7.08851 13.0804L0.359158 19.8097C0.314363 19.8545 0.314363 19.9292 0.359158 19.974L7.08851 26.7033C7.16317 26.778 7.2876 26.7232 7.2876 26.6187V13.16C7.2876 13.0555 7.16317 13.0057 7.08851 13.0754V13.0804Z" fill="#DD1367"/>
</g>
<defs>
<clipPath id="clip0_204_273">
<rect width="39.7838" height="39.7838" fill="white" transform="translate(0.324341)"/>
</clipPath>
</defs>
</svg>
