<svg width="88" height="33" viewBox="0 0 88 33" fill="none" xmlns="http://www.w3.org/2000/svg">
<g id="Layer_1" clip-path="url(#clip0_204_287)">
<path id="Vector" d="M14.242 13.7963C14.2114 13.6816 14.1656 13.5745 14.1045 13.4751C14.0892 13.4521 14.0816 13.4292 14.0663 13.4139C14.0052 13.3145 13.9289 13.2227 13.8449 13.1462C13.654 12.978 13.4096 12.8633 13.1423 12.8327C13.0889 12.8327 13.0354 12.8174 12.982 12.8174C12.2565 12.8174 11.6761 13.4062 11.6761 14.1251C11.6761 14.844 12.2641 15.4329 12.982 15.4329C13.6998 15.4329 14.2878 14.844 14.2878 14.1251C14.2878 14.0104 14.2725 13.9033 14.242 13.8039V13.7963Z" fill="#FD9D24"/>
<path id="Vector_2" d="M12.1879 15.7465C11.8366 15.5783 11.554 15.2953 11.3784 14.9512C8.25513 16.7407 1.16095 20.8169 0.824947 21.1075C0.488947 21.4058 0.947129 21.4593 1.09986 21.4364C4.42167 21.0234 9.45403 18.6679 10.6606 17.9032C11.2639 17.5208 11.7984 16.5954 12.1879 15.7465Z" fill="#FD9D24"/>
<path id="Vector_3" d="M12.982 12.305C13.0431 12.305 13.0965 12.3203 13.15 12.3203C13.234 8.66476 13.4096 0.642403 13.3332 0.206488C13.2569 -0.237074 12.9743 0.130012 12.9056 0.275317C11.5387 3.34201 10.966 8.87124 10.9965 10.3013C11.0118 10.9743 11.4776 11.8615 11.974 12.6109C12.2642 12.4197 12.6078 12.305 12.982 12.305Z" fill="#FD9D24"/>
<path id="Vector_4" d="M25.7806 19.5703C26.2235 19.662 25.9868 19.2644 25.8799 19.1496C23.5508 16.7406 18.6482 14.1328 17.3119 13.6281C16.6628 13.3833 15.6319 13.4981 14.7461 13.6816C14.7843 13.8193 14.8072 13.9646 14.8072 14.1175C14.8072 14.3852 14.7461 14.6375 14.6392 14.867C17.9992 16.3124 25.3606 19.4708 25.7882 19.5626L25.7806 19.5703Z" fill="#FD9D24"/>
<path id="Vector_5" d="M32.8213 7.57111C34.1271 7.57111 35.1885 6.5081 35.1885 5.20035C35.1885 3.89261 34.1271 2.82959 32.8213 2.82959C31.5154 2.82959 30.454 3.89261 30.454 5.20035C30.454 6.5081 31.5154 7.57111 32.8213 7.57111Z" fill="#FD9D24"/>
<path id="Vector_6" d="M32.8213 2.17201C33.0427 2.17201 33.2184 1.99612 33.2184 1.77434V0.718965C33.2184 0.497184 33.0427 0.321289 32.8213 0.321289C32.5998 0.321289 32.4242 0.497184 32.4242 0.718965V1.77434C32.4242 1.99612 32.5998 2.17201 32.8213 2.17201Z" fill="#FD9D24"/>
<path id="Vector_7" d="M32.4242 8.62644V9.68181C32.4242 9.90359 32.5998 10.0795 32.8213 10.0795C33.0427 10.0795 33.2184 9.90359 33.2184 9.68181V8.62644C33.2184 8.40465 33.0427 8.22876 32.8213 8.22876C32.5998 8.22876 32.4242 8.40465 32.4242 8.62644Z" fill="#FD9D24"/>
<path id="Vector_8" d="M35.8453 5.20041C35.8453 5.42219 36.021 5.59809 36.2424 5.59809H37.2962C37.5177 5.59809 37.6933 5.42219 37.6933 5.20041C37.6933 4.97863 37.5177 4.80273 37.2962 4.80273H36.2424C36.021 4.80273 35.8453 4.97863 35.8453 5.20041Z" fill="#FD9D24"/>
<path id="Vector_9" d="M28.3464 5.59809H29.4003C29.6217 5.59809 29.7973 5.42219 29.7973 5.20041C29.7973 4.97863 29.6217 4.80273 29.4003 4.80273H28.3464C28.125 4.80273 27.9493 4.97863 27.9493 5.20041C27.9493 5.42219 28.125 5.59809 28.3464 5.59809Z" fill="#FD9D24"/>
<path id="Vector_10" d="M34.9595 7.34177C34.8068 7.49472 34.8068 7.74709 34.9595 7.90004L35.7002 8.64186C35.7766 8.71834 35.8759 8.75657 35.9828 8.75657C36.0897 8.75657 36.1813 8.71834 36.2653 8.64186C36.4181 8.48891 36.4181 8.23654 36.2653 8.08358L35.5246 7.34177C35.3719 7.18881 35.1199 7.18881 34.9672 7.34177H34.9595Z" fill="#FD9D24"/>
<path id="Vector_11" d="M30.1257 3.0591C30.2021 3.13557 30.3013 3.17381 30.4083 3.17381C30.5152 3.17381 30.6068 3.13557 30.6908 3.0591C30.8435 2.90614 30.8435 2.65377 30.6908 2.50082L29.9501 1.759C29.7973 1.60605 29.5453 1.60605 29.3926 1.759C29.2399 1.91195 29.2399 2.16433 29.3926 2.31728L30.1333 3.0591H30.1257Z" fill="#FD9D24"/>
<path id="Vector_12" d="M30.1257 7.34177L29.3849 8.08358C29.2322 8.23654 29.2322 8.48891 29.3849 8.64186C29.4613 8.71834 29.5606 8.75657 29.6675 8.75657C29.7744 8.75657 29.866 8.71834 29.95 8.64186L30.6907 7.90004C30.8435 7.74709 30.8435 7.49472 30.6907 7.34177C30.538 7.18881 30.286 7.18881 30.1333 7.34177H30.1257Z" fill="#FD9D24"/>
<path id="Vector_13" d="M35.242 3.17381C35.3413 3.17381 35.4405 3.13557 35.5245 3.0591L36.2653 2.31728C36.418 2.16433 36.418 1.91195 36.2653 1.759C36.1125 1.60605 35.8605 1.60605 35.7078 1.759L34.9671 2.50082C34.8144 2.65377 34.8144 2.90614 34.9671 3.0591C35.0434 3.13557 35.1427 3.17381 35.2496 3.17381H35.242Z" fill="#FD9D24"/>
<path id="Vector_14" d="M82.8013 14.2935H75.2489C74.9664 14.2935 74.7373 14.5229 74.7373 14.8058V15.6012C74.7373 15.8842 74.9664 16.1136 75.2489 16.1136H82.8013C83.0839 16.1136 83.3129 15.8842 83.3129 15.6012V14.8058C83.3129 14.5229 83.0839 14.2935 82.8013 14.2935Z" fill="#FD9D24"/>
<path id="Vector_15" d="M86.7645 31.5846H83.3205V17.1077C83.3205 16.8247 83.0915 16.5953 82.8089 16.5953H75.2565C74.974 16.5953 74.7449 16.8247 74.7449 17.1077V31.5846H70.2624V8.7641C70.2624 8.48114 70.0333 8.25171 69.7507 8.25171H64.1609V6.40863C64.1609 6.29392 64.0693 6.20215 63.9547 6.20215H63.5271C63.4125 6.20215 63.3209 6.29392 63.3209 6.40863V8.25171H62.1984C61.9158 8.25171 61.6867 8.48114 61.6867 8.7641V31.5846H56.9293V17.1077C56.9293 16.8247 56.7002 16.5953 56.4176 16.5953H55.0278V15.364C55.0278 15.081 54.7987 14.8516 54.5162 14.8516H50.7667C50.4842 14.8516 50.2551 15.081 50.2551 15.364V16.5953H48.8653C48.5827 16.5953 48.3536 16.8247 48.3536 17.1077V31.5846H42.0537V26.7437L43.054 27.5008L43.2755 27.669C43.4053 27.7684 43.5886 27.7455 43.6878 27.6155L44.0467 27.149C44.146 27.019 44.1231 26.8354 43.9933 26.736L41.2671 24.6559V22.8357C41.2671 22.6751 41.1373 22.5451 40.9769 22.5451H40.3889C40.2286 22.5451 40.0987 22.6751 40.0987 22.8357V23.7687C40.0987 23.7687 37.846 22.0557 37.7697 22.0557C37.7009 22.0557 31.5613 26.736 31.5613 26.736C31.4315 26.8354 31.4086 27.019 31.5078 27.149L31.8667 27.6155C31.966 27.7455 32.1493 27.7684 32.2791 27.669L32.5006 27.5008L33.5009 26.7437V31.5846H24.5282V29.2827C24.7115 29.3668 24.91 29.428 25.1238 29.428C25.8569 29.428 26.4678 28.8926 26.5442 28.2044C27.1551 28.1202 27.6286 27.6002 27.6286 26.9731C27.6286 26.6136 27.4758 26.2924 27.2238 26.063C27.2544 25.956 27.2697 25.8489 27.2697 25.7342C27.2697 25.0459 26.7046 24.4876 26.0097 24.4876C25.8264 24.4876 25.6507 24.5258 25.498 24.5947C25.4064 23.8605 24.7649 23.2869 23.9784 23.2869C23.146 23.2869 22.4664 23.937 22.4511 24.7323C22.2908 24.6788 22.1227 24.6482 21.9395 24.6482C21.0918 24.6482 20.4122 25.3059 20.4122 26.1242C20.4122 26.7666 20.8398 27.3096 21.4278 27.5161C21.3591 27.6767 21.3286 27.8526 21.3286 28.0438C21.3286 28.8009 21.9166 29.4127 22.642 29.4127C23.0697 29.4127 23.4438 29.1909 23.6806 28.862V31.5999H14.3031L13.738 15.7846C13.5089 15.8917 13.2569 15.9529 12.9897 15.9529C12.7224 15.9529 12.4704 15.884 12.2413 15.777L11.6762 31.5999H1.0464C0.855486 31.5846 0.702759 31.7376 0.702759 31.9287V32.6017C0.702759 32.7929 0.855486 32.9459 1.0464 32.9459H86.7569C86.9478 32.9459 87.1005 32.7929 87.1005 32.6017V31.9287C87.1005 31.7376 86.9478 31.5846 86.7569 31.5846H86.7645ZM39.1137 31.5846H36.4257V29.298C36.4257 29.1221 36.5707 28.9844 36.7387 28.9844H38.7929C38.9686 28.9844 39.106 29.1297 39.106 29.298V31.5846H39.1137ZM52.042 26.2695C52.042 26.4377 51.9046 26.5678 51.7442 26.5678H50.2933C50.1253 26.5678 49.9955 26.4301 49.9955 26.2695V24.8165C49.9955 24.6482 50.1329 24.5182 50.2933 24.5182H51.7442C51.9122 24.5182 52.042 24.6559 52.042 24.8165V26.2695ZM52.042 23.111C52.042 23.2793 51.9046 23.4093 51.7442 23.4093H50.2933C50.1253 23.4093 49.9955 23.2716 49.9955 23.111V21.658C49.9955 21.4897 50.1329 21.3597 50.2933 21.3597H51.7442C51.9122 21.3597 52.042 21.4974 52.042 21.658V23.111ZM52.042 19.9526C52.042 20.1208 51.9046 20.2508 51.7442 20.2508H50.2933C50.1253 20.2508 49.9955 20.1132 49.9955 19.9526V18.4995C49.9955 18.3313 50.1329 18.2013 50.2933 18.2013H51.7442C51.9122 18.2013 52.042 18.3389 52.042 18.4995V19.9526ZM55.2875 26.2695C55.2875 26.4377 55.15 26.5678 54.9896 26.5678H53.5387C53.3707 26.5678 53.2409 26.4301 53.2409 26.2695V24.8165C53.2409 24.6482 53.3784 24.5182 53.5387 24.5182H54.9896C55.1576 24.5182 55.2875 24.6559 55.2875 24.8165V26.2695ZM55.2875 23.111C55.2875 23.2793 55.15 23.4093 54.9896 23.4093H53.5387C53.3707 23.4093 53.2409 23.2716 53.2409 23.111V21.658C53.2409 21.4897 53.3784 21.3597 53.5387 21.3597H54.9896C55.1576 21.3597 55.2875 21.4974 55.2875 21.658V23.111ZM55.2875 19.9526C55.2875 20.1208 55.15 20.2508 54.9896 20.2508H53.5387C53.3707 20.2508 53.2409 20.1132 53.2409 19.9526V18.4995C53.2409 18.3313 53.3784 18.2013 53.5387 18.2013H54.9896C55.1576 18.2013 55.2875 18.3389 55.2875 18.4995V19.9526ZM65.3751 24.4494C65.3751 24.6176 65.2376 24.7476 65.0773 24.7476H63.6264C63.4584 24.7476 63.3286 24.61 63.3286 24.4494V22.9963C63.3286 22.8281 63.466 22.6981 63.6264 22.6981H65.0773C65.2453 22.6981 65.3751 22.8357 65.3751 22.9963V24.4494ZM65.3751 21.3368C65.3751 21.505 65.2376 21.635 65.0773 21.635H63.6264C63.4584 21.635 63.3286 21.4974 63.3286 21.3368V19.8837C63.3286 19.7155 63.466 19.5855 63.6264 19.5855H65.0773C65.2453 19.5855 65.3751 19.7231 65.3751 19.8837V21.3368ZM65.3751 18.1477C65.3751 18.316 65.2376 18.446 65.0773 18.446H63.6264C63.4584 18.446 63.3286 18.3083 63.3286 18.1477V16.6947C63.3286 16.5264 63.466 16.3964 63.6264 16.3964H65.0773C65.2453 16.3964 65.3751 16.5341 65.3751 16.6947V18.1477ZM65.3751 14.9893C65.3751 15.1575 65.2376 15.2875 65.0773 15.2875H63.6264C63.4584 15.2875 63.3286 15.1499 63.3286 14.9893V13.5362C63.3286 13.368 63.466 13.238 63.6264 13.238H65.0773C65.2453 13.238 65.3751 13.3756 65.3751 13.5362V14.9893ZM65.3751 11.8308C65.3751 11.999 65.2376 12.1291 65.0773 12.1291H63.6264C63.4584 12.1291 63.3286 11.9914 63.3286 11.8308V10.3777C63.3286 10.2095 63.466 10.0795 63.6264 10.0795H65.0773C65.2453 10.0795 65.3751 10.2171 65.3751 10.3777V11.8308ZM68.6206 24.4494C68.6206 24.6176 68.4831 24.7476 68.3227 24.7476H66.8718C66.7038 24.7476 66.574 24.61 66.574 24.4494V22.9963C66.574 22.8281 66.7115 22.6981 66.8718 22.6981H68.3227C68.4907 22.6981 68.6206 22.8357 68.6206 22.9963V24.4494ZM68.6206 21.3368C68.6206 21.505 68.4831 21.635 68.3227 21.635H66.8718C66.7038 21.635 66.574 21.4974 66.574 21.3368V19.8837C66.574 19.7155 66.7115 19.5855 66.8718 19.5855H68.3227C68.4907 19.5855 68.6206 19.7231 68.6206 19.8837V21.3368ZM68.6206 18.1477C68.6206 18.316 68.4831 18.446 68.3227 18.446H66.8718C66.7038 18.446 66.574 18.3083 66.574 18.1477V16.6947C66.574 16.5264 66.7115 16.3964 66.8718 16.3964H68.3227C68.4907 16.3964 68.6206 16.5341 68.6206 16.6947V18.1477ZM68.6206 14.9893C68.6206 15.1575 68.4831 15.2875 68.3227 15.2875H66.8718C66.7038 15.2875 66.574 15.1499 66.574 14.9893V13.5362C66.574 13.368 66.7115 13.238 66.8718 13.238H68.3227C68.4907 13.238 68.6206 13.3756 68.6206 13.5362V14.9893ZM68.6206 11.8308C68.6206 11.999 68.4831 12.1291 68.3227 12.1291H66.8718C66.7038 12.1291 66.574 11.9914 66.574 11.8308V10.3777C66.574 10.2095 66.7115 10.0795 66.8718 10.0795H68.3227C68.4907 10.0795 68.6206 10.2171 68.6206 10.3777V11.8308ZM78.4256 29.3515C78.4256 29.5197 78.2882 29.6498 78.1278 29.6498H76.6769C76.5089 29.6498 76.3791 29.5121 76.3791 29.3515V27.8984C76.3791 27.7302 76.5165 27.6002 76.6769 27.6002H78.1278C78.2958 27.6002 78.4256 27.7378 78.4256 27.8984V29.3515ZM78.4256 26.2236C78.4256 26.3919 78.2882 26.5219 78.1278 26.5219H76.6769C76.5089 26.5219 76.3791 26.3842 76.3791 26.2236V24.7706C76.3791 24.6023 76.5165 24.4723 76.6769 24.4723H78.1278C78.2958 24.4723 78.4256 24.61 78.4256 24.7706V26.2236ZM78.4256 23.0957C78.4256 23.264 78.2882 23.394 78.1278 23.394H76.6769C76.5089 23.394 76.3791 23.2563 76.3791 23.0957V21.6427C76.3791 21.4744 76.5165 21.3444 76.6769 21.3444H78.1278C78.2958 21.3444 78.4256 21.4821 78.4256 21.6427V23.0957ZM78.4256 19.9602C78.4256 20.1285 78.2882 20.2585 78.1278 20.2585H76.6769C76.5089 20.2585 76.3791 20.1208 76.3791 19.9602V18.5072C76.3791 18.3389 76.5165 18.2089 76.6769 18.2089H78.1278C78.2958 18.2089 78.4256 18.3466 78.4256 18.5072V19.9602ZM81.6711 29.3515C81.6711 29.5197 81.5336 29.6498 81.3733 29.6498H79.9224C79.7544 29.6498 79.6245 29.5121 79.6245 29.3515V27.8984C79.6245 27.7302 79.762 27.6002 79.9224 27.6002H81.3733C81.5413 27.6002 81.6711 27.7378 81.6711 27.8984V29.3515ZM81.6711 26.2236C81.6711 26.3919 81.5336 26.5219 81.3733 26.5219H79.9224C79.7544 26.5219 79.6245 26.3842 79.6245 26.2236V24.7706C79.6245 24.6023 79.762 24.4723 79.9224 24.4723H81.3733C81.5413 24.4723 81.6711 24.61 81.6711 24.7706V26.2236ZM81.6711 23.0957C81.6711 23.264 81.5336 23.394 81.3733 23.394H79.9224C79.7544 23.394 79.6245 23.2563 79.6245 23.0957V21.6427C79.6245 21.4744 79.762 21.3444 79.9224 21.3444H81.3733C81.5413 21.3444 81.6711 21.4821 81.6711 21.6427V23.0957ZM81.6711 19.9602C81.6711 20.1285 81.5336 20.2585 81.3733 20.2585H79.9224C79.7544 20.2585 79.6245 20.1208 79.6245 19.9602V18.5072C79.6245 18.3389 79.762 18.2089 79.9224 18.2089H81.3733C81.5413 18.2089 81.6711 18.3466 81.6711 18.5072V19.9602Z" fill="#FD9D24"/>
</g>
<defs>
<clipPath id="clip0_204_287">
<rect width="86.4054" height="32.9459" fill="white" transform="translate(0.702759)"/>
</clipPath>
</defs>
</svg>
