<svg width="54" height="28" viewBox="0 0 54 28" fill="none" xmlns="http://www.w3.org/2000/svg">
<g id="Layer_2" clip-path="url(#clip0_204_326)">
<path id="Vector" d="M53.1195 13.4104C51.2441 10.7263 42.7486 0.0208378 26.926 3.03487e-05C11.1033 -0.0207771 2.57713 10.6638 0.691529 13.3376C0.609546 13.452 0.537811 13.5561 0.486572 13.6393C0.537811 13.7225 0.609546 13.8266 0.691529 13.941C2.57713 16.6252 11.0623 27.3306 26.885 27.3514C42.7077 27.3722 51.2339 16.6876 53.1195 14.0138C53.2014 13.8994 53.2732 13.7954 53.3244 13.7121C53.2732 13.6289 53.2014 13.5249 53.1195 13.4104ZM18.0924 6.75204C18.2358 6.54396 18.7072 5.93015 18.7687 5.85732C18.8917 5.70126 19.1376 5.67005 19.3016 5.63884C19.4656 5.60763 19.691 5.70126 19.7218 5.82611C19.7525 5.95095 19.6603 6.45033 19.568 6.53356C19.3323 6.77285 18.7277 7.12657 18.3998 7.06415C18.1436 7.02254 18.0411 6.82487 18.0924 6.74164M17.5287 7.88604C17.5287 7.88604 17.58 7.83403 17.5902 7.82362C17.7849 7.59474 18.1846 7.54272 18.4613 7.50111C18.738 7.44909 19.0966 7.59474 19.1479 7.78201C19.1991 7.96927 18.4613 8.30219 18.3281 8.42704C17.9489 8.78076 17.3545 9.50902 17.0061 9.58185C16.8934 9.60266 16.8011 9.58185 16.7191 9.55064C16.9446 8.96803 17.2213 8.41663 17.539 7.88604M23.4417 20.2248C23.2265 21.0779 22.9806 21.3901 22.7654 21.6606C22.5502 21.9311 21.7611 22.2848 21.2589 22.2432C20.7568 22.2015 20.6851 20.8491 20.6953 20.152C20.6953 19.9127 20.3571 20.6306 20.1829 19.1741C20.0702 18.2481 19.4861 19.2677 19.4451 18.6539C19.4041 18.0297 19.1069 18.1545 18.7995 17.7696C18.492 17.3846 18.1129 17.8112 17.6824 17.9985C17.252 18.1857 17.4262 18.2898 16.8216 18.1025C16.8011 18.1025 16.8011 18.1025 16.7806 18.0921C16.2272 16.75 15.9198 15.2831 15.9198 13.7329C15.9198 13.3584 15.9403 12.9839 15.9711 12.6197C15.9915 12.5781 16.012 12.5469 16.0428 12.5157C16.6269 11.8186 16.6167 11.6522 16.6167 11.6522L17.2623 11.4233C17.2623 11.4233 18.2871 11.5898 19.0659 11.8811C19.7013 12.1204 20.7056 12.6718 21.2999 12.4325C21.7201 12.2556 22.0583 12.0267 22.0173 11.6626C21.966 11.2152 21.6176 11.1112 21.1974 11.4129C21.0437 11.5273 20.7158 10.7367 20.4494 10.7783C20.1932 10.8199 20.767 11.7042 20.5518 11.7458C20.3264 11.7874 19.8857 10.8199 19.814 10.6638C19.7423 10.5078 19.3938 10.1228 19.0864 10.4141C18.4305 11.0384 17.375 10.9968 17.17 11.1632C16.5244 11.6522 16.3502 10.9968 16.3707 10.6014C16.4015 10.5078 16.422 10.4141 16.4527 10.3309C16.6679 10.0916 17.416 10.0188 17.6824 10.1957C17.9694 10.3933 18.1743 10.1437 18.2871 10.0292C18.3998 9.91477 18.3588 9.7275 18.2871 9.57145C18.2153 9.41539 18.4305 9.30095 18.574 9.25933C18.7277 9.21772 19.2094 8.8744 19.4143 8.75996C19.609 8.64552 20.6338 8.52067 21.0847 8.75996C21.5356 8.98884 21.9558 8.80157 22.1812 8.53107C22.4682 8.18775 22.8269 7.93806 22.9806 7.85483C23.1445 7.78201 22.5912 7.25142 22.13 7.82362C21.6688 8.39583 21.4434 8.44784 21.2282 8.44784C21.013 8.44784 19.7423 8.12533 19.5885 7.71958C19.4348 7.31384 19.9882 7.01213 20.4596 6.77285C20.931 6.54397 22.212 6.55437 22.5399 6.47114C23.206 6.32549 24.0668 5.98216 24.487 6.28387C24.9174 6.57518 22.6936 7.08496 23.4212 7.4907C23.6774 7.63635 24.8559 6.80406 25.2658 6.59598C26.2189 6.09661 24.3435 5.93015 24.5895 4.92099C24.8662 3.77658 22.3042 4.21353 21.0232 4.31757C22.7346 3.20437 24.7739 2.55934 26.9567 2.55934C32.1524 2.55934 36.5077 6.23185 37.6657 11.1528C37.6657 11.3921 37.635 11.569 37.6145 11.673C37.512 12.0787 36.7639 12.4221 36.3233 11.777C36.2105 11.6106 35.7391 11.1632 35.7596 11.9331C35.7699 12.7134 36.4975 12.7862 35.8006 13.2544C35.0935 13.7225 34.9705 13.6081 34.6426 13.7225C34.3147 13.837 33.997 14.6381 34.079 15.0646C34.161 15.4912 35.1652 16.6564 34.4172 16.6148C34.2429 16.6044 32.9312 15.6888 32.7058 15.0958C32.4803 14.482 32.2241 13.8682 32.0499 13.4104C31.8757 12.9422 31.4043 12.8278 31.0149 13.0983C30.6255 13.3688 31.1276 13.6393 30.8407 14.2219C30.564 14.8045 30.359 15.3247 29.9389 14.8461C28.8628 13.5977 27.3052 14.2115 27.0592 12.8174C26.926 12.0579 26.2906 12.1308 25.7577 11.7042C25.2248 11.2777 24.9174 11.0488 24.8252 11.3505C24.7432 11.621 26.5058 13.0463 26.6288 13.4104C26.8133 13.9514 26.0959 14.43 25.5733 14.5548C25.0506 14.6797 24.8252 14.2531 24.3128 13.7121C23.8004 13.1711 23.5749 12.7862 23.5442 13.2023C23.493 13.8162 24.0259 14.7213 24.5485 15.0646C24.9891 15.3559 25.4913 15.4808 25.3478 15.9489C25.2044 16.4171 25.3478 16.1466 24.8457 16.6564C24.3435 17.1558 24.2513 17.3222 24.282 18.0193C24.3128 18.7163 24.1386 18.7579 24.0259 19.3405C23.9131 19.9231 23.6672 19.4134 23.452 20.2665M35.278 15.8241C35.6469 15.7929 36.2003 16.3131 35.9851 16.5211C35.7699 16.7188 35.2165 16.646 34.9296 16.4275C34.6529 16.209 35.1038 15.8449 35.2677 15.8345M34.7963 15.4912C34.6734 15.4495 34.5709 15.3351 34.4786 15.0542C34.3864 14.7837 34.6221 14.6276 34.8373 14.7317C35.0628 14.8461 35.36 15.1894 35.36 15.3767C35.36 15.564 34.9193 15.5328 34.7963 15.4912ZM29.9286 15.4599C29.7134 15.6576 29.1498 15.5848 28.8731 15.3663C28.5964 15.1478 29.0473 14.7837 29.2113 14.7733C29.5802 14.7421 30.1336 15.2623 29.9184 15.4704M25.4093 17.6863C25.2556 17.936 24.8354 19.8191 24.5587 19.6006C24.282 19.3821 24.6715 17.4158 24.7534 17.2702C25.1941 16.4587 26.1267 16.5003 25.3991 17.6863M26.885 24.9793C25.809 24.9793 24.7739 24.8129 23.7902 24.5216C23.6467 24.4071 23.5647 24.2095 23.6569 23.9702C23.9951 23.0651 25.0199 22.7113 25.8192 22.6385C27.6023 22.4616 29.9491 23.8245 30.3283 23.6061C30.7074 23.3876 31.4555 22.3888 32.5725 22.4304C33.3309 22.4616 33.3206 22.5865 33.5768 22.6905C31.722 24.1262 29.406 24.9793 26.8952 24.9689M34.6734 21.723C34.5606 21.6918 34.4479 21.6502 34.3249 21.5877C33.7203 21.2756 33.792 21.775 33.4949 21.6606C33.1977 21.5461 33.833 20.8491 32.9415 21.4421C32.0602 22.0247 32.2959 21.3484 31.9064 20.3497C31.517 19.3509 32.3573 18.2169 33.0542 17.9568C34.0072 17.6031 34.6119 17.5407 35.0525 17.4262C36.3745 17.0933 36.6614 16.2922 36.8971 16.7812C36.9381 16.8748 36.9894 16.9581 37.0304 17.0413C37.1123 17.187 37.1943 17.4783 37.2046 17.7696C36.6409 19.2677 35.7699 20.6098 34.6734 21.7126M37.6965 16.0634C37.3993 15.9801 36.1695 14.2427 37.1431 13.0983C37.307 12.911 36.8152 12.3596 36.9484 12.3492C37.4813 12.3076 37.7682 12.6405 37.9117 13.1295C37.9219 13.348 37.9322 13.5561 37.9322 13.7745C37.9322 14.5548 37.8502 15.3247 37.6965 16.0634Z" fill="#3F7E44"/>
</g>
<defs>
<clipPath id="clip0_204_326">
<rect width="52.8378" height="27.3514" fill="white" transform="translate(0.486572)"/>
</clipPath>
</defs>
</svg>
