<svg width="42" height="38" viewBox="0 0 42 38" fill="none" xmlns="http://www.w3.org/2000/svg">
<g id="Layer_4" clip-path="url(#clip0_204_335)">
<path id="Vector" d="M29.8338 17.8982C29.9726 17.9588 30.1115 18.0281 30.2503 18.0888C30.2677 18.0888 30.285 18.0974 30.3024 18.0974C30.3371 18.0974 30.3631 18.0888 30.3805 18.0628L30.4238 18.0108C30.4238 18.0108 30.4585 17.9242 30.4412 17.8808C30.3805 17.7596 30.3197 17.6383 30.259 17.5083C30.1202 17.2224 29.9726 16.9192 29.8165 16.6333C29.7384 16.4861 29.7384 16.3821 29.8165 16.2348C29.9726 15.9403 30.1115 15.6457 30.2677 15.3252L30.4672 14.918C30.4672 14.918 30.4846 14.8227 30.4499 14.7881C30.4152 14.7534 30.3631 14.7448 30.3197 14.7621L30.1809 14.8227C30.1028 14.8574 30.0507 14.8747 29.9987 14.9007L29.5128 15.1259C29.157 15.2905 28.8013 15.4638 28.4455 15.6284C28.3848 15.6544 28.3067 15.6631 28.298 15.6631C27.7687 15.2386 27.1267 15.0047 26.2243 14.9267C25.105 14.8227 24.1852 15.0306 23.3956 15.5418C22.9618 15.8277 22.7449 16.1309 22.7535 16.4427C22.7535 16.7546 22.9791 17.0405 23.413 17.3004C24.8447 18.1667 26.4065 18.21 27.9249 17.413C28.3241 17.2051 28.5497 17.2484 28.8707 17.413C29.1831 17.5776 29.5128 17.7249 29.8251 17.8722L29.8338 17.8982Z" fill="#0A97D9"/>
<path id="Vector_2" d="M37.7818 20.8696L37.9814 20.4625C37.9814 20.4625 37.9987 20.3672 37.964 20.3325C37.9293 20.2979 37.8772 20.2892 37.8339 20.3065L37.6864 20.3672C37.6169 20.3931 37.5649 20.4191 37.5215 20.4365L37.0616 20.653C36.6972 20.8263 36.3414 20.9996 35.977 21.1642C35.9076 21.1988 35.8208 21.1988 35.8295 21.1988C35.3002 20.7743 34.6581 20.5404 33.7558 20.4625C32.6365 20.3585 31.7167 20.5664 30.9271 21.0775C30.4933 21.3634 30.2764 21.6666 30.285 21.9785C30.285 22.2904 30.5106 22.5763 30.9445 22.8362C32.3761 23.7025 33.938 23.7458 35.4564 22.9488C35.8555 22.7409 36.0811 22.7842 36.4022 22.9488C36.7146 23.1134 37.0356 23.2607 37.3566 23.4079C37.4955 23.4686 37.6343 23.5379 37.7731 23.5985C37.7905 23.5985 37.8078 23.6072 37.8252 23.6072C37.8599 23.6072 37.8859 23.5899 37.9119 23.5725L37.9553 23.5292C37.9553 23.5292 37.9987 23.4426 37.9727 23.3993L37.7905 23.0354C37.6516 22.7495 37.5041 22.4463 37.348 22.1604C37.2699 22.0132 37.2699 21.9092 37.348 21.7619C37.5041 21.4674 37.643 21.1728 37.7992 20.8523L37.7818 20.8696Z" fill="#0A97D9"/>
<path id="Vector_3" d="M37.9552 8.95781C37.9552 8.95781 37.8685 8.9145 37.8251 8.93183L37.6863 8.99247C37.6082 9.02712 37.5561 9.04445 37.5041 9.07044L37.0529 9.27835C36.6884 9.45162 36.324 9.62488 35.9509 9.79815C35.8815 9.8328 35.7947 9.8328 35.8034 9.8328C35.2741 9.4083 34.632 9.18306 33.7296 9.09643C32.6103 8.99247 31.6906 9.19172 30.901 9.71151C30.4672 9.9974 30.2502 10.3006 30.2589 10.6125C30.2589 10.9244 30.4845 11.2103 30.9184 11.4701C32.35 12.3365 33.9119 12.3798 35.4303 11.5828C35.8294 11.3749 36.055 11.4182 36.3761 11.5828C36.6884 11.7474 37.0181 11.8946 37.3392 12.0419C37.478 12.1026 37.6082 12.1632 37.747 12.2325C37.7644 12.2325 37.7817 12.2412 37.7991 12.2412C37.8338 12.2412 37.8598 12.2238 37.8858 12.2065L37.9292 12.1632C37.9292 12.1632 37.9726 12.0766 37.9466 12.0333L37.7644 11.6694C37.6255 11.3749 37.478 11.0803 37.3218 10.7858C37.2437 10.6385 37.2437 10.5345 37.3218 10.3872C37.478 10.1014 37.6168 9.80681 37.773 9.48627L37.9726 9.0791C37.9726 9.0791 37.99 8.9838 37.9552 8.94915V8.95781Z" fill="#0A97D9"/>
<path id="Vector_4" d="M28.3762 25.9463L28.5757 25.5391C28.5757 25.5391 28.5931 25.4438 28.5584 25.4092C28.5237 25.3745 28.4716 25.3658 28.4282 25.3832L28.2807 25.4438C28.2113 25.4698 28.1592 25.4958 28.1159 25.5131L27.6647 25.7297C27.3002 25.903 26.9358 26.0762 26.5714 26.2408C26.5106 26.2668 26.4326 26.2755 26.4239 26.2755C25.8946 25.851 25.2525 25.6171 24.3501 25.5391C23.2308 25.4352 22.3111 25.6344 21.5215 26.1542C21.0876 26.4401 20.8707 26.7433 20.8794 27.0552C20.8794 27.3671 21.105 27.6529 21.5388 27.9128C22.9705 28.7792 24.5323 28.8225 26.0508 28.0255C26.4499 27.8175 26.6755 27.8609 26.9965 28.0255C27.3089 28.1901 27.63 28.3373 27.951 28.4846C28.0898 28.5453 28.2287 28.6146 28.3675 28.6752C28.3848 28.6752 28.4022 28.6839 28.4195 28.6839C28.4543 28.6839 28.4803 28.6665 28.5063 28.6492L28.5497 28.5972C28.5497 28.5972 28.5844 28.5106 28.5671 28.4759L28.4022 28.1294C28.2547 27.8349 28.1072 27.523 27.951 27.2284C27.8729 27.0812 27.8729 26.9772 27.951 26.8299C28.1072 26.5354 28.246 26.2408 28.4022 25.9203L28.3762 25.9463Z" fill="#0A97D9"/>
<path id="Vector_5" d="M38.9445 36.1863C38.2503 35.0168 36.7145 34.2024 34.9271 34.2024C34.58 34.2024 34.2503 34.2371 33.9206 34.2977C33.3219 32.8943 31.4217 31.8633 29.1657 31.8633C27.439 31.8633 25.9292 32.4611 25.0355 33.3707C24.4542 33.2061 23.8121 33.1108 23.144 33.1108C20.5496 33.1108 18.4325 34.4623 18.2156 36.1863H10.1028V35.3806C10.875 34.5489 12.6277 32.7123 13.4346 32.1406C15.6819 30.5465 16.0897 28.9871 16.3587 27.9562C16.4195 27.7137 16.4802 27.5057 16.5409 27.3758C16.7405 26.9426 16.5583 26.4315 16.1245 26.2236C15.6906 26.0243 15.17 26.2063 14.9704 26.6394C14.8403 26.9166 14.7622 27.2025 14.6841 27.5144C14.5626 27.9822 14.4151 28.5193 14.0507 29.0998C13.2524 27.2112 13.3826 26.1803 13.3913 26.1283C13.478 25.6691 13.183 25.2186 12.7145 25.1234C12.2459 25.0281 11.7861 25.3226 11.6906 25.7991C11.6559 25.981 11.3956 27.6097 12.7752 30.4686C12.6624 30.5552 12.567 30.6418 12.4368 30.7285C11.8294 31.1616 10.8923 32.0626 10.1114 32.8683V25.8251C10.7535 25.0627 12.272 23.3301 13.183 22.6543C15.3783 21.017 15.8294 18.2188 15.8468 18.0975C15.9162 17.6297 15.5952 17.1878 15.1266 17.1099C14.6494 17.0406 14.2156 17.3611 14.1375 17.8289C14.1375 17.8376 14.016 18.548 13.6255 19.3796C13.4954 19.189 13.3739 18.9811 13.2958 18.7732C13.1049 18.2794 13.0268 17.2658 13.0268 16.7374C13.0268 16.2609 12.6364 15.871 12.1592 15.871C11.6819 15.871 11.2915 16.2609 11.2915 16.7374C11.2915 16.9106 11.3002 18.444 11.6819 19.4056C11.9075 19.9774 12.272 20.5059 12.5843 20.887C12.4542 21.017 12.3067 21.1469 12.1505 21.2596C11.5431 21.71 10.7795 22.4811 10.1201 23.2001V18.5913C10.1201 16.7027 10.606 15.8624 11.1179 14.9874C11.2394 14.7795 11.3609 14.5802 11.465 14.3636C12.6277 12.1372 12.5236 10.7511 12.4628 10.3699C12.3848 9.89341 11.9422 9.57287 11.4737 9.65084C11.0051 9.72881 10.6754 10.1706 10.7535 10.6384C10.7535 10.6818 10.901 11.6694 9.94657 13.5146C9.81642 13.2201 9.72097 12.9775 9.70362 12.8562C9.63421 12.475 9.61685 11.6261 9.62553 11.1842C9.62553 10.7078 9.25243 10.3092 8.7752 10.3006C8.7752 10.3006 8.76653 10.3006 8.75785 10.3006C8.2893 10.3006 7.89885 10.6818 7.89017 11.1496C7.89017 11.2882 7.87281 12.501 7.99429 13.1681C8.09841 13.7226 8.61902 14.7968 8.94006 15.4292C8.6277 16.1916 8.38475 17.1705 8.38475 18.5826V19.3103C7.78605 18.7299 7.10058 18.1668 6.42379 17.6903C6.72748 16.824 7.16132 15.1953 6.87498 13.454C6.79689 12.9862 6.35437 12.6656 5.87715 12.7436C5.4086 12.8216 5.08756 13.2721 5.16565 13.7399C5.30448 14.5802 5.21771 15.3946 5.07888 16.0703C4.48886 14.9614 4.29797 13.8352 4.29797 13.8178C4.22856 13.35 3.79472 13.0295 3.30882 13.0988C2.84027 13.1681 2.51055 13.6186 2.58864 14.0864C2.60599 14.2077 3.03116 16.8067 4.74049 18.5133C4.74049 18.522 4.75784 18.5306 4.76652 18.5393C4.96609 18.7386 5.17433 18.9205 5.4086 19.0851C7.41294 20.5145 8.2893 21.7534 8.38475 22.0566V29.273C7.82943 28.7359 7.16999 28.2075 6.44982 27.731C6.8316 26.7867 7.37824 24.9328 6.98778 22.6717C6.90969 22.2038 6.4585 21.8833 5.98127 21.9699C5.51272 22.0566 5.19168 22.4984 5.27845 22.9749C5.53875 24.4563 5.28713 25.7211 5.02682 26.5441C3.71663 25.1407 3.465 23.7112 3.44764 23.6333C3.36955 23.1655 2.93571 22.8449 2.45849 22.9142C1.98127 22.9835 1.66022 23.4254 1.72964 23.9018C1.74699 24.0318 2.24157 27.0553 5.42596 29.1344C7.30882 30.3646 8.26327 31.6987 8.37607 32.0799V36.1603H0.0897217V37.8929H41.7297V36.1603H38.9445V36.1863Z" fill="#0A97D9"/>
<path id="Vector_6" d="M3.36089 2.8935C3.71664 2.97147 4.07238 3.02345 4.43681 3.00612C5.41729 3.00612 6.38909 2.70291 7.17868 2.1398C7.43031 1.94921 7.71664 1.8106 8.00298 1.70664C8.35873 1.57669 8.72315 1.50739 9.09625 1.50739C9.77304 1.50739 10.4845 1.73263 11.0138 2.14846C11.4477 2.47767 11.9422 2.71157 12.4629 2.85018C12.888 2.96281 13.3219 3.02345 13.7557 3.01479C14.7275 3.01479 15.708 2.71157 16.4976 2.14846C16.7579 1.95787 17.0442 1.81926 17.3392 1.7153C18.3284 1.37744 19.465 1.51605 20.324 2.14846C21.9813 3.30934 24.1592 3.30934 25.8078 2.14846C26.6755 1.51605 27.8034 1.36877 28.8013 1.7153C29.0963 1.81926 29.3826 1.95787 29.6429 2.14846C30.849 2.99746 32.3241 3.21404 33.6776 2.83286C34.1809 2.68558 34.6755 2.469 35.1267 2.14846C35.9943 1.50739 37.1397 1.36877 38.1288 1.72397C38.4152 1.82792 38.7015 1.96654 38.9531 2.14846C39.7774 2.7289 40.7406 3.00612 41.695 3.00612V1.4814C41.0182 1.4814 40.3414 1.28214 39.7774 0.87497C39.2655 0.519778 38.7015 0.285871 38.1288 0.14726C36.8273 -0.164616 35.439 0.0779538 34.2937 0.87497C34.1028 1.01358 33.8859 1.1262 33.669 1.2215C32.6277 1.67199 31.387 1.55936 30.4585 0.87497C29.9466 0.511115 29.3739 0.277208 28.7926 0.138596C27.4998 -0.164616 26.1115 0.0692906 24.9748 0.87497C23.8468 1.69798 22.2676 1.69798 21.1397 0.87497C20.003 0.0779538 18.6147 -0.164616 17.3219 0.138596C16.7405 0.277208 16.1678 0.511115 15.6559 0.87497C14.7275 1.55936 13.4867 1.66332 12.4455 1.2215C12.2286 1.1262 12.0203 1.02225 11.8208 0.87497C11.0485 0.268545 10.0767 -0.0346681 9.09625 -1.52481e-05C8.73183 -1.52481e-05 8.3674 0.0519641 8.00298 0.138596C7.41295 0.277208 6.84028 0.511115 6.35438 0.857644C5.79039 1.27348 5.1136 1.49872 4.43681 1.49872C3.99429 1.49872 3.53442 1.39476 3.12661 1.21284C2.90969 1.11754 2.70145 1.00492 2.51924 0.866307C1.81642 0.329187 0.957412 0.0433009 0.0810547 0.0173112V1.52471C0.662401 1.57669 1.25242 1.78461 1.69494 2.1398C2.18952 2.51232 2.76219 2.75489 3.36089 2.8935Z" fill="#0A97D9"/>
</g>
<defs>
<clipPath id="clip0_204_335">
<rect width="41.6487" height="37.9189" fill="white" transform="translate(0.0810547)"/>
</clipPath>
</defs>
</svg>
