<?xml version="1.0" encoding="utf-8"?>
<!-- Generator: Adobe Illustrator 19.0.0, SVG Export Plug-In . SVG Version: 6.00 Build 0)  -->
<svg version="1.1" id="GoogleLogo_x5F_Reverse_x5F_rgb_21_"
	 xmlns="http://www.w3.org/2000/svg" xmlns:xlink="http://www.w3.org/1999/xlink" x="0px" y="0px" width="89.47px" height="29.6px"
	 viewBox="0 0 89.47 29.6" enable-background="new 0 0 89.47 29.6" xml:space="preserve">
<g id="_x39_0x30px">
	<path fill="#FFFFFF" d="M11.65,22.96C5.32,22.96,0,17.81,0,11.48C0,5.15,5.32,0,11.65,0c3.5,0,5.99,1.37,7.87,3.16L17.3,5.38
		c-1.34-1.26-3.16-2.24-5.66-2.24c-4.62,0-8.23,3.72-8.23,8.34c0,4.62,3.61,8.34,8.23,8.34c3,0,4.7-1.2,5.8-2.3
		c0.9-0.9,1.48-2.18,1.71-3.95l-7.5,0v-3.07H22.2c0.11,0.56,0.17,1.16,0.17,1.89c0,2.35-0.64,5.26-2.72,7.34
		C17.64,21.84,15.06,22.96,11.65,22.96z"/>
	<path fill="#FFFFFF" d="M38.55,15.57c0,4.26-3.32,7.39-7.4,7.39s-7.4-3.14-7.4-7.39c0-4.28,3.32-7.39,7.4-7.39
		S38.55,11.28,38.55,15.57z M35.31,15.57c0-2.66-1.93-4.48-4.16-4.48c-2.23,0-4.16,1.82-4.16,4.48c0,2.63,1.93,4.48,4.16,4.48
		C33.38,20.05,35.31,18.2,35.31,15.57z"/>
	<path fill="#FFFFFF" d="M54.55,15.57c0,4.26-3.32,7.39-7.4,7.39s-7.4-3.14-7.4-7.39c0-4.28,3.32-7.39,7.4-7.39
		S54.55,11.28,54.55,15.57z M51.31,15.57c0-2.66-1.93-4.48-4.16-4.48c-2.23,0-4.16,1.82-4.16,4.48c0,2.63,1.93,4.48,4.16,4.48
		C49.38,20.05,51.31,18.2,51.31,15.57z"/>
	<path fill="#FFFFFF" d="M69.65,8.62V21.9c0,5.46-3.22,7.7-7.03,7.7c-3.58,0-5.74-2.41-6.55-4.37l2.83-1.18
		c0.5,1.2,1.74,2.63,3.72,2.63c2.44,0,3.95-1.51,3.95-4.34v-1.06h-0.11c-0.73,0.9-2.13,1.68-3.89,1.68c-3.7,0-6.92-3.22-6.92-7.36
		c0-4.17,3.22-7.42,6.92-7.42c1.76,0,3.16,0.78,3.89,1.65h0.11v-1.2H69.65z M66.79,15.6c0-2.6-1.74-4.51-3.95-4.51
		c-2.24,0-3.95,1.9-3.95,4.51c0,2.58,1.71,4.45,3.95,4.45C65.06,20.05,66.79,18.17,66.79,15.6z"/>
	<path fill="#FFFFFF" d="M74.65,0.78v21.73H71.4V0.78H74.65z"/>
	<path fill="#FFFFFF" d="M86.81,18l2.52,1.68c-0.81,1.2-2.77,3.28-6.16,3.28c-4.2,0-7.34-3.25-7.34-7.39c0-4.4,3.16-7.39,6.97-7.39
		c3.84,0,5.71,3.05,6.33,4.7l0.34,0.84l-9.88,4.09c0.76,1.48,1.93,2.24,3.58,2.24C84.82,20.05,85.97,19.24,86.81,18z M79.05,15.34
		l6.61-2.74c-0.36-0.92-1.46-1.57-2.74-1.57C81.26,11.03,78.97,12.49,79.05,15.34z"/>
</g>
</svg>
