<svg width="552" height="117" viewBox="0 0 552 117" fill="none" xmlns="http://www.w3.org/2000/svg">
<g clip-path="url(#clip0_571_44)">
<path d="M25.7408 35.7979C26.9911 33.6778 28.4861 31.7479 30.2257 30.0083L15.4934 13.8625C11.7967 17.3961 8.61651 21.5005 6.14301 26.0398L25.7408 35.7979Z" fill="#00BD00"/>
<path d="M61.8377 24.4089C64.0666 25.4418 66.1324 26.7465 68.0079 28.2687L82.7674 12.1501C78.8804 8.80677 74.477 6.03427 69.6659 3.99567L61.8105 24.4089H61.8377Z" fill="#F3AE00"/>
<path d="M95.6786 29.2472L76.1079 39.0053C77.0321 41.1798 77.7116 43.4902 78.065 45.9094L99.8373 43.8436C99.185 38.6791 97.7715 33.7865 95.6786 29.22" fill="#E60015"/>
<path d="M74.6945 36.1784L94.2651 26.4203C91.846 21.9082 88.7473 17.831 85.1322 14.2702L70.3727 30.3888C72.0579 32.1284 73.5257 34.0583 74.7217 36.1784" fill="#00A01F"/>
<path d="M21.8538 50.0953C21.8538 49.6604 21.8539 49.2255 21.881 48.7906L0.108726 46.8336C0.0543628 47.9208 0 49.0081 0 50.0953C0 54.2813 0.516447 58.3313 1.49498 62.2182L22.5334 56.184C22.0985 54.2269 21.881 52.1883 21.881 50.0953" fill="#008232"/>
<path d="M71.9492 67.9807C70.3998 69.8562 68.6059 71.5415 66.6488 72.9821L78.1465 91.6014C82.414 88.7201 86.2194 85.1865 89.3996 81.1365L71.9492 67.9807Z" fill="#FFBA00"/>
<path d="M78.364 50.0953C78.364 52.1611 78.1465 54.1725 77.7116 56.1024L98.7501 62.1367C99.7014 58.2769 100.218 54.2269 100.218 50.0953C100.218 49.0624 100.191 48.0295 100.109 47.0238L78.3368 49.0896C78.3368 49.443 78.3368 49.7692 78.3368 50.0953" fill="#FF0000"/>
<path d="M28.622 68.4156L11.2259 81.6529C14.4605 85.6486 18.2931 89.1006 22.5878 91.9547L34.0855 73.3626C32.0469 71.9492 30.2257 70.2911 28.622 68.4428" fill="#FF8E00"/>
<path d="M22.2072 45.6376C22.5877 43.1912 23.3216 40.8265 24.3002 38.6248L4.72956 28.8666C2.55505 33.4603 1.08725 38.4617 0.407715 43.6805L22.2072 45.6376Z" fill="#0094DA"/>
<path d="M75.4556 93.2866L63.985 74.6945C61.8921 75.8633 59.6632 76.7875 57.2712 77.4127L61.3212 98.9132C66.3498 97.7444 71.1065 95.8417 75.4556 93.2866Z" fill="#BD0040"/>
<path d="M76.869 59.1467C76.1079 61.3756 75.0751 63.4958 73.8247 65.4528L91.3024 78.6358C94.1292 74.5586 96.3853 70.0465 97.9074 65.2082L76.8962 59.1739L76.869 59.1467Z" fill="#00BDE5"/>
<path d="M54.1725 78.0378C52.8407 78.2281 51.4816 78.3368 50.0953 78.3368C48.9809 78.3368 47.8936 78.2553 46.8064 78.1465L42.7563 99.647C45.1483 100 47.5946 100.191 50.0953 100.191C52.8678 100.191 55.586 99.9732 58.2226 99.5383L54.1725 78.0378Z" fill="#FF5000"/>
<path d="M51.9165 21.881C54.3356 22.0441 56.7004 22.5062 58.9021 23.2401L66.7575 2.82687C62.0823 1.1688 57.1081 0.19027 51.9165 0V21.881Z" fill="#FF0024"/>
<path d="M43.7077 77.6029C41.2614 77.0321 38.9238 76.1351 36.7765 74.9935L25.2787 93.6128C29.7093 96.1406 34.5476 98.0161 39.6849 99.1034L43.7349 77.6029H43.7077Z" fill="#FF0066"/>
<path d="M41.6147 23.1314C43.8708 22.4247 46.2628 21.9898 48.7635 21.8538V0C43.5174 0.135907 38.4617 1.08726 33.705 2.74532L41.6147 23.1586V23.1314Z" fill="#004B71"/>
<path d="M26.6922 65.8877C25.3059 63.8491 24.1643 61.5931 23.3488 59.2011L2.33762 65.2354C3.94132 70.2368 6.27892 74.912 9.26888 79.1251L26.6922 65.8877Z" fill="#D58E00"/>
<path d="M32.6177 27.9153C34.466 26.4475 36.5046 25.2244 38.6792 24.2458L30.7694 3.85977C26.067 5.84401 21.718 8.50779 17.8854 11.7424L32.6177 27.9153Z" fill="#006AA0"/>
<path d="M394.212 116.255L396.577 102.691H394.158L394.511 100.626H396.903L397.175 98.7772C397.419 97.2007 398.017 95.9776 398.996 95.1078C400.002 94.1836 401.306 93.7215 402.856 93.7487C403.345 93.7487 403.97 93.8302 404.731 93.9933L404.405 96.195C403.943 96.0863 403.481 96.0319 402.992 96.0319C402.095 96.0319 401.361 96.3037 400.79 96.8745C400.219 97.4454 399.866 98.1793 399.757 99.1034L399.512 100.653H402.747L402.394 102.719H399.159L396.794 116.282H394.185L394.212 116.255Z" fill="#414042"/>
<path d="M411.554 100.354C412.858 100.354 413.973 100.734 414.924 101.414C415.848 102.093 416.555 103.072 416.99 104.268C417.425 105.464 417.588 106.823 417.452 108.264V108.59C417.235 110.112 416.8 111.471 416.066 112.721C415.332 113.944 414.408 114.896 413.266 115.575C412.124 116.255 410.874 116.581 409.488 116.554C408.183 116.554 407.069 116.173 406.145 115.494C405.22 114.814 404.514 113.863 404.079 112.667C403.644 111.471 403.481 110.166 403.617 108.726C403.753 107.122 404.188 105.654 404.921 104.377C405.655 103.099 406.607 102.093 407.748 101.387C408.89 100.68 410.167 100.354 411.554 100.381V100.354ZM406.253 108.726C406.199 109.324 406.199 109.949 406.253 110.628C406.362 111.77 406.688 112.667 407.259 113.346C407.83 114.026 408.618 114.379 409.597 114.407C410.466 114.434 411.255 114.216 411.989 113.754C412.723 113.292 413.348 112.613 413.837 111.688C414.326 110.764 414.652 109.731 414.815 108.617C414.897 107.72 414.897 106.986 414.87 106.388C414.761 105.219 414.408 104.295 413.81 103.643C413.239 102.963 412.451 102.61 411.472 102.583C410.113 102.555 408.971 103.072 408.047 104.159C407.096 105.246 406.525 106.66 406.308 108.427V108.753L406.253 108.726Z" fill="#414042"/>
<path d="M428.95 103.018L427.727 102.882C426.041 102.882 424.737 103.643 423.758 105.138L421.828 116.228H419.219L421.937 100.598H424.465L424.084 102.392C425.199 100.952 426.503 100.245 427.998 100.272C428.325 100.272 428.732 100.354 429.249 100.49L428.95 102.963V103.018Z" fill="#414042"/>
<path d="M442.921 96.8745L442.269 100.653H445.123L444.769 102.719H441.942L440.312 112.422C440.284 112.667 440.284 112.912 440.312 113.102C440.366 113.863 440.774 114.216 441.535 114.216C441.861 114.216 442.269 114.162 442.812 114.08L442.622 116.255C441.997 116.418 441.372 116.527 440.719 116.527C439.686 116.527 438.898 116.119 438.382 115.385C437.865 114.651 437.648 113.645 437.784 112.368L439.36 102.691H436.615L436.968 100.626H439.714L440.393 96.8474H443.003L442.921 96.8745Z" fill="#414042"/>
<path d="M450.26 102.555C451.619 101.06 453.196 100.327 454.99 100.381C456.457 100.381 457.545 100.897 458.251 101.903C458.958 102.909 459.23 104.268 459.04 106.062L457.327 116.282H454.718L456.43 106.007C456.485 105.545 456.485 105.11 456.43 104.703C456.267 103.344 455.479 102.664 454.038 102.637C452.435 102.61 451.075 103.425 449.907 105.138L447.977 116.282H445.367L449.227 94.102H451.837L450.26 102.555Z" fill="#414042"/>
<path d="M467.928 116.554C465.998 116.527 464.449 115.793 463.361 114.407C462.274 113.02 461.812 111.226 461.975 109.052L462.057 108.427C462.22 106.877 462.682 105.464 463.443 104.186C464.204 102.909 465.128 101.93 466.216 101.305C467.303 100.68 468.472 100.354 469.749 100.381C471.353 100.408 472.603 100.952 473.527 101.985C474.451 103.018 474.941 104.404 475.022 106.171C475.022 106.796 475.022 107.421 474.968 108.046L474.805 109.242H464.612C464.449 110.656 464.666 111.851 465.319 112.857C465.971 113.863 466.922 114.352 468.173 114.407C469.722 114.434 471.135 113.754 472.44 112.341L473.935 113.618C473.283 114.57 472.44 115.304 471.407 115.82C470.374 116.364 469.233 116.608 467.955 116.581L467.928 116.554ZM469.586 102.528C468.499 102.501 467.575 102.854 466.759 103.616C465.944 104.377 465.319 105.518 464.856 107.013H472.44L472.494 106.796C472.657 105.573 472.467 104.567 471.924 103.779C471.38 102.963 470.592 102.555 469.586 102.528Z" fill="#414042"/>
<path d="M495.653 110.846C495.87 109.296 495.055 108.182 493.261 107.475L490.76 106.578L489.918 106.225C487.118 104.947 485.786 103.153 485.976 100.816C486.085 99.647 486.466 98.6141 487.172 97.7172C487.879 96.8202 488.803 96.1406 489.972 95.6514C491.141 95.1621 492.364 94.9447 493.669 94.9718C494.946 94.999 496.061 95.2708 497.066 95.8145C498.072 96.3581 498.833 97.1192 499.35 98.0705C499.866 99.0491 500.111 100.136 500.029 101.332H497.311C497.42 100.028 497.121 99.0219 496.441 98.3151C495.762 97.6084 494.81 97.2279 493.56 97.2279C492.228 97.2279 491.141 97.5269 490.244 98.1521C489.347 98.7772 488.858 99.647 488.722 100.761C488.531 102.202 489.401 103.289 491.358 104.023L493.506 104.784L494.593 105.246C497.311 106.497 498.561 108.345 498.371 110.819C498.262 112.015 497.855 113.02 497.175 113.89C496.496 114.76 495.544 115.412 494.348 115.902C493.152 116.364 491.875 116.581 490.516 116.554C489.184 116.554 487.988 116.255 486.901 115.711C485.813 115.168 484.971 114.407 484.4 113.428C483.829 112.449 483.584 111.362 483.639 110.139H486.357C486.275 111.417 486.602 112.395 487.363 113.129C488.124 113.863 489.211 114.243 490.597 114.271C491.983 114.271 493.152 113.999 494.049 113.374C494.946 112.748 495.49 111.906 495.626 110.846H495.653Z" fill="#414042"/>
<path d="M500.872 116.255L504.514 95.2437H509.978C511.69 95.2437 513.158 95.6786 514.408 96.5484C515.658 97.4182 516.528 98.587 517.072 100.082C517.616 101.577 517.779 103.262 517.534 105.138L517.398 106.198C516.963 109.269 515.794 111.688 513.837 113.51C511.88 115.331 509.434 116.255 506.471 116.255H500.872ZM506.825 97.4997L503.971 113.972H506.634C508.673 113.972 510.412 113.346 511.826 112.069C513.239 110.791 514.164 109.052 514.598 106.85C514.925 105.083 515.061 103.561 514.952 102.338C514.816 100.843 514.299 99.6742 513.457 98.8316C512.614 97.989 511.473 97.5541 510.059 97.4997H506.852H506.825Z" fill="#414042"/>
<path d="M535.365 113.482C534.658 114.461 533.653 115.249 532.293 115.766C530.962 116.309 529.412 116.554 527.7 116.527C526.314 116.5 525.118 116.173 524.085 115.548C523.052 114.923 522.236 114.053 521.666 112.912C521.068 111.77 520.741 110.465 520.66 108.997C520.578 107.856 520.741 106.306 521.095 104.349C521.448 102.392 522.046 100.707 522.943 99.2937C523.84 97.8802 524.9 96.793 526.232 96.0319C527.537 95.2708 529.059 94.9175 530.744 94.9447C532.701 94.9718 534.25 95.5698 535.419 96.6843C536.588 97.7987 537.24 99.3752 537.404 101.414H534.713C534.604 100.082 534.196 99.0491 533.517 98.3423C532.837 97.6356 531.859 97.2551 530.635 97.2007C528.814 97.1464 527.319 97.7715 526.096 99.1578C524.873 100.517 524.085 102.528 523.704 105.165L523.432 107.176L523.378 108.264C523.378 110.166 523.758 111.634 524.547 112.667C525.335 113.7 526.422 114.243 527.836 114.243C529.874 114.298 531.478 113.781 532.674 112.748L533.544 108.019H528.814L529.222 105.763H536.615L535.419 113.455L535.365 113.482Z" fill="#414042"/>
<path d="M548.466 112.042C548.602 110.955 548.032 110.193 546.7 109.759L543.982 108.97C541.698 108.182 540.584 106.877 540.665 105.056C540.747 103.67 541.372 102.555 542.541 101.658C543.71 100.761 545.123 100.354 546.727 100.354C548.303 100.354 549.581 100.843 550.559 101.74C551.538 102.637 552.027 103.806 551.973 105.246H549.363C549.363 104.458 549.146 103.806 548.63 103.317C548.113 102.827 547.434 102.583 546.591 102.555C545.694 102.555 544.906 102.746 544.253 103.208C543.655 103.643 543.302 104.214 543.193 104.92C543.057 105.817 543.628 106.497 544.851 106.904L546.156 107.258C547.95 107.72 549.2 108.318 549.961 109.052C550.722 109.786 551.049 110.71 550.994 111.797C550.94 112.776 550.614 113.618 550.043 114.325C549.472 115.059 548.684 115.603 547.733 115.983C546.781 116.364 545.748 116.527 544.661 116.5C543.003 116.5 541.644 116.01 540.557 115.059C539.469 114.108 538.953 112.884 539.007 111.389H541.617C541.617 112.286 541.889 112.993 542.459 113.51C543.03 114.026 543.791 114.298 544.743 114.298C545.694 114.298 546.509 114.108 547.216 113.7C547.896 113.292 548.303 112.694 548.412 111.987L548.466 112.042Z" fill="#414042"/>
<path d="M122.479 64.8277V22.778H131.15V65.4528C131.15 69.3941 132.808 70.8076 135.554 70.8076C138.299 70.8076 139.957 69.3941 139.957 65.4528V22.778H148.302V64.8277C148.302 73.6344 143.898 78.6902 135.391 78.6902C126.883 78.6902 122.479 73.6616 122.479 64.8277Z" fill="#414042"/>
<path d="M154.445 22.7508H165.154L173.879 55.7491V22.7508H181.599V77.8747H172.874L162.164 37.6462V77.8747H154.445V22.7508Z" fill="#414042"/>
<path d="M201.441 22.7508H213.727C222.154 22.7508 226.013 27.0727 226.013 35.9882V64.583C226.013 73.5529 222.154 77.9019 213.727 77.9019H201.441V22.7508ZM213.646 73.3898C218.756 73.3898 221.121 71.025 221.121 64.8005V35.8251C221.121 29.6005 218.756 27.1542 213.646 27.1542H206.307V73.3898H213.646Z" fill="#414042"/>
<path d="M250.585 77.8747C250.259 76.8418 250.123 74.8848 250.042 72.2754C248.384 76.3798 245.095 78.663 240.528 78.663C234.929 78.663 231.64 74.9663 231.64 69.068C231.64 63.1696 234.331 59.6088 241.561 56.3199C248.574 53.1668 249.525 52.3786 249.525 49.4702V48.4373C249.525 44.197 247.405 41.9137 243.545 41.9137C239.686 41.9137 237.076 44.197 237.076 48.6819V49.7148H232.673V48.9265C232.673 41.7506 236.859 37.755 243.627 37.755C250.803 37.755 254.255 41.7778 254.255 49.1712V67.5186C254.255 72.1666 254.5 75.7002 255.043 77.9019H250.64L250.585 77.8747ZM249.498 64.4199V55.8306C248.71 56.9994 246.889 57.9508 242.947 59.8535C238.299 62.0552 236.342 64.6646 236.342 68.4428C236.342 72.221 238.299 74.5042 241.942 74.5042C246.508 74.5042 249.498 70.726 249.498 64.4199Z" fill="#414042"/>
<path d="M268.607 42.6205V69.5572C268.607 73.0908 269.775 74.4499 272.765 74.4499C273.934 74.4499 275.049 74.2868 276.326 73.7432V77.9291C274.913 78.5543 273.717 78.7174 272.004 78.7174C266.568 78.7174 263.877 75.8089 263.877 70.0465V42.6476H258.849V38.5432H264.04L264.584 26.8824H268.607V38.5432H276.326V42.6476H268.607V42.6205Z" fill="#414042"/>
<path d="M298.86 77.8747C298.533 76.8418 298.397 74.8848 298.316 72.2754C296.658 76.3798 293.369 78.663 288.802 78.663C283.203 78.663 279.914 74.9663 279.914 69.068C279.914 63.1696 282.605 59.6088 289.835 56.3199C296.848 53.1668 297.799 52.3786 297.799 49.4702V48.4373C297.799 44.197 295.679 41.9137 291.82 41.9137C287.96 41.9137 285.35 44.197 285.35 48.6819V49.7148H280.947V48.9265C280.947 41.7506 285.133 37.755 291.901 37.755C299.077 37.755 302.529 41.7778 302.529 49.1712V67.5186C302.529 72.1666 302.774 75.7002 303.317 77.9019H298.914L298.86 77.8747ZM297.772 64.4199V55.8306C296.984 56.9994 295.163 57.9508 291.222 59.8535C286.574 62.0552 284.616 64.6646 284.616 68.4428C284.616 72.221 286.574 74.5042 290.216 74.5042C294.782 74.5042 297.772 70.726 297.772 64.4199Z" fill="#414042"/>
<path d="M321.991 65.6703V34.8738C321.991 26.8281 326.313 21.9626 333.951 21.9626C341.589 21.9626 346.074 26.8552 346.074 34.8738V40.5547H341.426V34.6563C341.426 29.3016 338.517 26.3932 334.032 26.3932C329.547 26.3932 326.856 29.3016 326.856 34.6563V65.9965C326.856 71.3512 329.602 74.1781 334.032 74.1781C338.463 74.1781 341.426 71.3512 341.426 65.9965V58.5216H346.074V65.6975C346.074 73.7975 341.752 78.6902 333.951 78.6902C326.15 78.6902 321.991 73.7975 321.991 65.6975V65.6703Z" fill="#414042"/>
<path d="M351.537 65.9964V50.3943C351.537 42.2943 355.56 37.7278 362.872 37.7278C370.184 37.7278 374.206 42.2943 374.206 50.3943V65.9964C374.206 74.0965 370.184 78.663 362.872 78.663C355.56 78.663 351.537 74.0965 351.537 65.9964ZM369.504 66.4585V50.0138C369.504 44.9852 367.465 41.9681 362.899 41.9681C358.332 41.9681 356.294 44.958 356.294 50.0138V66.4585C356.294 71.4327 358.332 74.4227 362.899 74.4227C367.465 74.4227 369.504 71.4327 369.504 66.4585Z" fill="#414042"/>
<path d="M419.871 48.5188V77.9019H415.06V48.9265C415.06 44.6047 413.402 41.9953 409.705 41.9953C405.682 41.9953 402.774 45.6104 402.774 51.998V77.9019H398.045V48.9265C398.045 44.6047 396.386 41.9953 392.69 41.9953C388.667 41.9953 385.759 45.6104 385.759 51.998V77.9019H381.029V38.516H385.052L385.215 43.9523C386.791 40.011 389.944 37.7278 393.94 37.7278C398.18 37.7278 401.034 39.7664 402.203 43.9523C403.78 40.011 406.933 37.7278 410.928 37.7278C416.528 37.7278 419.817 41.2614 419.817 48.5188H419.871Z" fill="#414042"/>
<path d="M466.025 48.5188V77.9019H461.214V48.9265C461.214 44.6047 459.556 41.9953 455.859 41.9953C451.837 41.9953 448.928 45.6104 448.928 51.998V77.9019H444.199V48.9265C444.199 44.6047 442.54 41.9953 438.844 41.9953C434.821 41.9953 431.913 45.6104 431.913 51.998V77.9019H427.183V38.516H431.206L431.369 43.9523C432.945 40.011 436.098 37.7278 440.094 37.7278C444.334 37.7278 447.188 39.7664 448.357 43.9523C449.934 40.011 453.087 37.7278 457.083 37.7278C462.682 37.7278 465.971 41.2614 465.971 48.5188H466.025Z" fill="#414042"/>
<path d="M472.549 65.9964V50.3943C472.549 42.2943 476.572 37.7278 483.883 37.7278C491.195 37.7278 495.218 42.2943 495.218 50.3943V65.9964C495.218 74.0965 491.195 78.663 483.883 78.663C476.572 78.663 472.549 74.0965 472.549 65.9964ZM490.516 66.4585V50.0138C490.516 44.9852 488.477 41.9681 483.911 41.9681C479.344 41.9681 477.306 44.958 477.306 50.0138V66.4585C477.306 71.4327 479.344 74.4227 483.911 74.4227C488.477 74.4227 490.516 71.4327 490.516 66.4585Z" fill="#414042"/>
<path d="M524.438 49.0624V77.8747H519.708V49.6876C519.708 44.5775 517.887 41.9681 514.028 41.9681C509.787 41.9681 506.77 45.5017 506.77 51.9709V77.8747H502.041V38.4889H506.145L506.226 43.9252C507.885 39.9839 511.092 37.7006 515.278 37.7006C521.258 37.7006 524.411 41.3158 524.411 49.0353L524.438 49.0624Z" fill="#414042"/>
<path d="M530.119 67.6545V66.3226H534.685V67.8176C534.685 72.3841 537.213 74.5042 541.073 74.5042C544.933 74.5042 547.379 72.4656 547.379 68.0351C547.379 63.6045 543.818 61.8105 540.04 59.935C535.474 57.7333 530.527 55.2054 530.527 48.0567C530.527 41.7506 534.468 37.7278 540.91 37.7278C547.352 37.7278 551.293 41.7506 551.293 48.5188V49.2255H546.89V48.3557C546.89 43.9523 544.444 41.8865 540.992 41.8865C537.539 41.8865 535.093 43.9251 535.093 47.948C535.093 52.4329 538.627 54.1725 542.568 56.1296C547.135 58.3313 552.027 60.8592 552.027 68.0079C552.027 74.613 548.167 78.6358 541.236 78.6358C534.305 78.6358 530.119 74.613 530.119 67.6002V67.6545Z" fill="#414042"/>
</g>
<defs>
<clipPath id="clip0_571_44">
<rect width="552" height="116.554" fill="white"/>
</clipPath>
</defs>
</svg>
