<svg width="79" height="32" viewBox="0 0 79 32" fill="none" xmlns="http://www.w3.org/2000/svg">
<path id="Goal 1 icon" fill-rule="evenodd" clip-rule="evenodd" d="M34.0589 2.72455C34.0573 2.72455 34.0559 2.72321 34.0559 2.72155V2.64369C34.0559 1.18812 32.8803 0.00624495 31.4185 2.45706e-05C29.9567 -0.00619581 28.7686 1.16946 28.7624 2.62502V2.70589C28.7771 2.94968 28.7613 3.19276 28.7166 3.42986C28.6095 3.99838 28.9801 4.71507 29.5586 4.71507C29.7119 4.71507 29.8591 4.76846 29.9884 4.85068C30.4096 5.11852 30.9008 5.26247 31.406 5.26247C31.905 5.26247 32.3947 5.11902 32.8152 4.85209C32.946 4.76907 33.0949 4.71507 33.2498 4.71507H33.2774C33.8466 4.71507 34.2095 4.0184 34.1047 3.45893C34.06 3.21995 34.045 2.97461 34.0619 2.72777C34.062 2.72603 34.0607 2.72455 34.0589 2.72455ZM6.17618 5.19404C7.60188 5.19404 8.75763 4.03271 8.75763 2.60014C8.75763 1.16757 7.60188 0.00624495 6.17618 0.00624495C4.75048 0.00624495 3.59472 1.16757 3.59472 2.60014C3.59472 4.03271 4.75048 5.19404 6.17618 5.19404ZM3.01933 29.6401C3.01762 29.6401 3.01622 29.6415 3.01623 29.6433C3.01792 30.438 3.66419 31.0833 4.45935 31.0833C5.25556 31.0833 5.90248 30.4363 5.90248 29.6401V18.4528C5.90248 18.2759 6.0459 18.1324 6.22283 18.1324C6.39975 18.1324 6.54318 18.2759 6.54318 18.4528V29.6401C6.54318 30.4363 7.1901 31.0833 7.98631 31.0833C8.78251 31.0833 9.42943 30.4363 9.42943 29.6401V9.68827C9.42943 9.51478 9.57007 9.37414 9.74356 9.37414C9.91705 9.37414 10.0577 9.51478 10.0577 9.68827V16.6329C10.0577 16.9231 10.0058 17.2218 10.0873 17.5003C10.1946 17.8666 10.5058 18.1543 10.9099 18.2133C11.4635 18.2942 11.9736 17.9147 12.0544 17.3611C12.0669 17.2616 12.0669 17.1621 12.0544 17.0687V9.20619C12.0544 7.5018 11.0592 5.8223 9.07487 5.8223H3.2837C1.47979 5.8223 0.347681 7.30897 0.347681 9.16264V17.0687C0.279257 17.6224 0.677361 18.1262 1.23097 18.1946C1.78459 18.2631 2.28844 17.865 2.35686 17.3113C2.38152 17.1511 2.35686 16.9873 2.35686 16.8252V9.70693C2.35686 9.52313 2.50586 9.37414 2.68965 9.37414C2.87345 9.37414 3.02244 9.52313 3.02244 9.70693V29.637C3.02244 29.6387 3.02105 29.6401 3.01933 29.6401ZM36.5752 8.27313C36.7823 9.00652 38.4909 14.9599 38.8306 16.1431C38.8696 16.2792 38.8814 16.4233 38.8392 16.5584C38.8204 16.6186 38.8041 16.6774 38.7872 16.7381C38.6662 17.1745 38.266 17.4789 37.8006 17.4731C37.3278 17.4606 36.9173 17.1309 36.8053 16.6706C36.7991 16.652 36.6001 15.9677 36.3886 15.1715C36.1771 14.3753 35.9345 13.5667 35.667 12.702C35.4137 11.8833 35.1047 10.8583 34.7399 9.59516C34.7032 9.46808 34.5868 9.38036 34.4546 9.38036C34.2559 9.38036 34.1133 9.57188 34.1704 9.76223L37.1702 19.7721C37.4131 20.5826 36.8061 21.3981 35.96 21.3981C35.2622 21.3981 34.6966 21.9638 34.6966 22.6615V29.6401C34.6966 30.4363 34.0497 31.0833 33.2535 31.0833C32.4573 31.0833 31.8104 30.4363 31.8104 29.6401V21.7185C31.8104 21.5416 31.6669 21.3981 31.49 21.3981C31.3131 21.3981 31.1697 21.5416 31.1697 21.7185V29.6401C31.1697 30.4363 30.5227 31.0833 29.7265 31.0833C28.9303 31.0833 28.2834 30.4363 28.2834 29.6401V22.674C28.2834 21.9694 27.7122 21.3981 27.0075 21.3981C26.1562 21.3981 25.5437 20.5802 25.7832 19.7633L28.7065 9.79298C28.7624 9.60233 28.6194 9.41146 28.4208 9.41146C28.2879 9.41146 28.1711 9.49956 28.1342 9.6272C27.9544 10.2491 27.7848 10.8113 27.6314 11.3193L27.6314 11.3194L27.6314 11.3194L27.6313 11.3196C27.4721 11.847 27.3305 12.3161 27.2135 12.7331C27.1644 12.908 27.1164 13.0814 27.0688 13.2531C26.881 13.9304 26.7003 14.5824 26.4919 15.2026C26.4339 15.3754 26.3795 15.5343 26.3301 15.6789C26.312 15.7319 26.2945 15.7829 26.2778 15.832C26.0961 16.3648 26.0213 17.0028 25.5554 17.3188C25.4625 17.3818 25.3611 17.4321 25.2541 17.4677C24.8685 17.5962 24.4115 17.4675 24.1814 17.1325C24.0337 16.9175 23.9651 16.6489 24.0038 16.3783C24.01 16.3225 24.0193 16.2668 24.0316 16.2118C24.0565 16.1013 24.0938 15.9958 24.1254 15.887C24.4304 14.8381 26.126 9.01419 26.3862 8.27313C26.5852 7.61377 26.9771 7.02283 27.5183 6.59363C28.0097 6.13332 28.6566 5.87206 29.3346 5.87206H33.5521C34.2363 5.87206 34.9019 6.1271 35.4057 6.59363C35.9282 7.04771 36.3326 7.62621 36.5752 8.27313ZM71.0796 31.0833C70.2844 31.0833 69.6382 30.438 69.6365 29.6433C69.6365 29.6415 69.6379 29.6401 69.6396 29.6401C69.6413 29.6401 69.6427 29.6387 69.6427 29.637V9.69449C69.6427 9.51756 69.4993 9.37414 69.3223 9.37414C69.1454 9.37414 69.002 9.51756 69.002 9.69449V17.0687C69.0144 17.1683 69.0144 17.2678 69.002 17.3673C68.9211 17.9209 68.3986 18.3066 67.845 18.2257C67.4401 18.1666 67.1251 17.8713 67.0167 17.5003C66.9352 17.2217 66.9866 16.9231 66.9866 16.6329V9.16264C66.9866 7.30897 68.1187 5.8223 69.9288 5.8223H75.6516C77.6359 5.8223 78.6311 7.5018 78.6311 9.20619V17.0687C78.6436 17.1621 78.6436 17.2616 78.6311 17.3611C78.5503 17.9147 78.0402 18.2942 77.4866 18.2133C77.0826 18.1543 76.7713 17.8666 76.664 17.5003C76.5825 17.2218 76.6344 16.9231 76.6344 16.6329V9.6665C76.6344 9.50503 76.5035 9.37414 76.342 9.37414C76.1806 9.37414 76.0497 9.50503 76.0497 9.6665V29.6401C76.0497 30.4363 75.4028 31.0833 74.6066 31.0833C73.8104 31.0833 73.1634 30.4363 73.1634 29.6401V18.4528C73.1634 18.2759 73.02 18.1324 72.8431 18.1324C72.6662 18.1324 72.5227 18.2759 72.5227 18.4528V29.6401C72.5227 30.4363 71.8758 31.0833 71.0796 31.0833ZM72.8151 5.19404C74.2408 5.19404 75.3966 4.03271 75.3966 2.60014C75.3966 1.16757 74.2408 0.00624495 72.8151 0.00624495C71.3894 0.00624495 70.2336 1.16757 70.2336 2.60014C70.2336 4.03271 71.3894 5.19404 72.8151 5.19404ZM52.9037 8.27313C53.1322 9.08234 55.1827 16.2467 55.2111 16.3461C55.212 16.3492 55.2121 16.3486 55.2136 16.3515C55.2163 16.3569 55.218 16.3627 55.2187 16.3687C55.2297 16.4717 55.2232 16.5805 55.199 16.6893C55.1057 17.1745 54.6765 17.5228 54.1788 17.5166C53.7061 17.5042 53.3018 17.1745 53.1898 16.7142C53.1836 16.6955 52.9845 16.0113 52.773 15.2151C52.5615 14.4189 52.3189 13.6102 52.0515 12.7456C51.7983 11.927 51.4893 10.9022 51.1246 9.63947C51.0877 9.51194 50.971 9.4239 50.8382 9.4239C50.6395 9.4239 50.4965 9.61492 50.5526 9.80562L53.4837 19.7796C53.7222 20.5913 53.1137 21.4044 52.2676 21.4044C51.5677 21.4044 51.0002 21.9718 51.0002 22.6718V29.6464C51.0002 30.4426 50.3533 31.0895 49.5571 31.0895C48.7609 31.0895 48.114 30.4426 48.114 29.6464V21.7247C48.114 21.5478 47.9705 21.4044 47.7936 21.4044C47.6167 21.4044 47.4733 21.5478 47.4733 21.7247V29.6464C47.4733 30.4426 46.8263 31.0895 46.0301 31.0895C45.2339 31.0895 44.587 30.4426 44.587 29.6464V22.6702C44.587 21.9711 44.0203 21.4044 43.3212 21.4044C42.4769 21.4044 41.8693 20.5937 42.1061 19.7834L45.0365 9.75804C45.0916 9.56924 44.9501 9.38036 44.7534 9.38036C44.6217 9.38036 44.5061 9.46762 44.4695 9.59406C44.2895 10.2168 44.1196 10.7796 43.9661 11.2882L43.966 11.2884L43.966 11.2885C43.8068 11.8159 43.6652 12.285 43.5482 12.702C43.4991 12.8769 43.4511 13.0503 43.4035 13.222C43.2158 13.8993 43.0351 14.5513 42.8266 15.1715C42.7689 15.3435 42.7148 15.5017 42.6655 15.6457L42.6649 15.6474L42.6648 15.6478L42.6648 15.6478C42.6467 15.7008 42.6292 15.7518 42.6125 15.8009C42.4308 16.3337 42.356 16.9717 41.8901 17.2877C41.7972 17.3507 41.6958 17.401 41.5888 17.4366C41.2032 17.5651 40.7462 17.4364 40.5161 17.1014C40.3684 16.8864 40.2998 16.6178 40.3385 16.3472C40.3447 16.2915 40.354 16.2357 40.3663 16.1808C40.3912 16.0703 40.4285 15.9646 40.4601 15.8559C40.7652 14.8068 42.4607 8.98308 42.7209 8.24203C42.9199 7.58889 43.3118 7.01661 43.8468 6.59363C44.3382 6.13332 44.9851 5.87206 45.6631 5.87206H49.8806C50.5648 5.87206 51.2304 6.1271 51.7342 6.59363C52.2567 7.04771 52.6611 7.62621 52.9037 8.27313ZM50.3625 2.72755C50.3606 2.72563 50.3595 2.72303 50.3595 2.72031V2.64369C50.3595 1.18812 49.1777 0.00624495 47.7159 0.00624495C46.2665 0.0124653 45.0971 1.18812 45.0909 2.63124V2.71211C45.1057 2.9577 45.0895 3.20257 45.0441 3.44132C44.9363 4.00752 45.3054 4.72129 45.8818 4.72129C46.0344 4.72129 46.1812 4.77444 46.3098 4.85657C46.7299 5.12462 47.2167 5.26869 47.7221 5.26869C48.2287 5.26869 48.7166 5.12393 49.1414 4.85466C49.2694 4.77349 49.4152 4.72129 49.5668 4.72129C50.1445 4.72129 50.517 4.00514 50.4119 3.43709C50.3694 3.20717 50.3535 2.9716 50.3655 2.73532C50.3657 2.73243 50.3646 2.7296 50.3625 2.72755ZM20.1596 14.2447C20.1596 15.3165 19.2907 16.1855 18.2188 16.1855C17.147 16.1855 16.2781 15.3165 16.2781 14.2447C16.2781 13.1728 17.147 12.3039 18.2188 12.3039C19.2907 12.3039 20.1596 13.1728 20.1596 14.2447ZM20.5938 18.8801C20.589 18.8612 20.572 18.8478 20.5525 18.8478H20.418C20.2993 18.8478 20.2031 18.944 20.2031 19.0626V30.2808C20.1658 30.71 19.8237 31.0584 19.3883 31.0957C18.8968 31.1455 18.4552 30.7785 18.4117 30.2808V23.9889C18.4117 23.8773 18.3211 23.7868 18.2095 23.7868C18.0978 23.7868 18.0073 23.8773 18.0073 23.9889V30.2808C17.97 30.71 17.6279 31.0584 17.1925 31.0957C16.7011 31.1455 16.2594 30.7785 16.2159 30.2808V19.0546C16.2159 18.9232 16.1093 18.8167 15.9779 18.8167C15.878 18.8167 15.7887 18.8791 15.7544 18.9729L14.5533 22.2584C14.5462 22.2777 14.5426 22.2982 14.5426 22.3188C14.5426 22.3393 14.5392 22.3598 14.5313 22.3788C14.3995 22.6953 14.0494 22.8563 13.7226 22.7544C13.7095 22.7504 13.6958 22.748 13.6821 22.748C13.667 22.748 13.652 22.7453 13.6381 22.7395C13.31 22.6018 13.1456 22.237 13.2674 21.902L14.6297 18.1573C14.8349 17.3611 15.5689 16.8199 16.39 16.851H19.9979C20.8314 16.8075 21.5778 17.3611 21.7831 18.1698L23.1369 21.9082C23.1384 21.9123 23.1391 21.9167 23.1391 21.9211C23.1391 21.9249 23.1398 21.9288 23.1409 21.9324C23.2408 22.2597 23.0761 22.6091 22.7558 22.7398C22.7421 22.7454 22.7272 22.748 22.7123 22.748C22.6984 22.748 22.6845 22.7504 22.6712 22.7545C22.3347 22.8593 21.9735 22.6853 21.8515 22.3498L20.5975 18.9044C20.5959 18.8999 20.595 18.8951 20.595 18.8902C20.595 18.8868 20.5946 18.8834 20.5938 18.8801ZM64.3648 13.0815C64.3666 13.0815 64.3683 13.0804 64.3692 13.0788C64.4244 12.9675 64.4611 12.8441 64.4611 12.7207C64.4611 12.1298 63.8018 11.6508 63.018 11.6508C62.6596 11.6189 62.3088 11.7222 62.0293 11.9297C61.7512 12.136 61.3986 12.2728 61.0524 12.2728C59.9825 12.2417 59.0867 13.0815 59.0494 14.1514C59.0183 15.2213 59.858 16.117 60.928 16.1544C61.2881 16.1654 61.6301 16.0768 61.9263 15.9128C62.3436 15.6816 64.3136 15.9898 64.3663 15.5156C64.3721 15.4626 64.3385 15.486 64.299 15.4501C63.6029 14.8182 64.3346 13.1427 64.3609 13.0831C64.3617 13.0813 64.3629 13.0815 64.3648 13.0815ZM63.4022 18.8812C63.4032 18.8838 63.4037 18.8865 63.4037 18.8892V18.9009C63.4037 18.911 63.4054 18.9211 63.4089 18.9306L64.6602 22.3685C64.7822 22.7041 65.1437 22.8781 65.4804 22.773C65.4933 22.769 65.5069 22.7666 65.5205 22.7666C65.5357 22.7666 65.5508 22.7639 65.5648 22.7579C65.8855 22.6204 66.0437 22.2576 65.924 21.9236C65.9233 21.9216 65.9229 21.9196 65.9229 21.9175C65.9229 21.9155 65.9226 21.9134 65.9219 21.9115L64.5607 18.1698C64.3492 17.3611 63.6027 16.8137 62.7692 16.851H59.1614C58.3403 16.8199 57.6063 17.3611 57.401 18.1573L56.0387 21.902C55.9089 22.2421 56.0802 22.6252 56.4183 22.758C56.4223 22.7596 56.4266 22.7604 56.4309 22.7604C56.4348 22.7604 56.4388 22.7611 56.4425 22.7623C56.7735 22.8734 57.1379 22.7121 57.2718 22.3906C57.2795 22.3721 57.2828 22.352 57.2828 22.3319C57.2828 22.3109 57.2866 22.29 57.2941 22.2704L58.5521 18.9711C58.5819 18.8931 58.6567 18.8416 58.7402 18.8416C58.8735 18.8416 58.97 18.9689 58.9339 19.0973L57.3273 24.8086C57.1738 25.3542 57.5838 25.8955 58.1506 25.8955C58.6229 25.8955 59.0059 26.2784 59.0059 26.7507V30.2684C59.0681 30.766 59.5221 31.1206 60.0198 31.0584C60.4303 31.0086 60.7538 30.6852 60.8098 30.2684V26.107C60.8098 25.997 60.8989 25.9079 61.0088 25.9079C61.1187 25.9079 61.2079 25.997 61.2079 26.107V30.2746C61.2701 30.7722 61.7242 31.1268 62.2218 31.0646C62.6323 31.0148 62.9558 30.6914 63.0118 30.2746V26.7352C63.0118 26.2989 63.3655 25.9452 63.8018 25.9452C64.3164 25.9452 64.6936 25.4611 64.5677 24.9621L63.0846 19.0814C63.0571 18.9723 63.1396 18.8664 63.2521 18.8664H63.3694C63.3708 18.8664 63.3721 18.8673 63.3726 18.8686L63.3733 18.8705C63.3745 18.8737 63.3792 18.8728 63.3792 18.8695C63.3792 18.8678 63.3805 18.8664 63.3822 18.8664H63.3895C63.3938 18.8664 63.3977 18.8691 63.3992 18.8731L63.4022 18.8812Z" fill="#FF001C"/>
</svg>
