<svg width="36" height="35" viewBox="0 0 36 35" fill="none" xmlns="http://www.w3.org/2000/svg">
<g id="Layer_1" clip-path="url(#clip0_204_312)">
<path id="Vector" d="M24.4457 14.7858C26.8669 13.4054 29.2586 12.0398 31.665 10.6667C31.6798 10.6889 34.0051 14.6972 35.1271 16.705C35.8284 17.9599 35.7767 19.2222 35.0533 20.4623C34.2929 21.7689 33.1192 22.389 31.6429 22.4554C30.7497 22.4923 29.8565 22.4849 28.9633 22.4997C28.86 22.4997 28.8378 22.4407 28.8009 22.3742C27.5608 20.2114 24.6597 15.1622 24.4531 14.7858H24.4457Z" fill="#C9992D"/>
<path id="Vector_2" d="M24.4604 0C24.5638 0.0221453 24.6745 0.0442906 24.7778 0.0664358C25.3389 0.206689 25.7522 0.531487 26.0475 1.03345C26.7709 2.27358 28.2768 4.83505 28.3137 4.90149C29.1257 4.42167 29.9377 3.94186 30.7497 3.46204C30.7497 3.46204 28.0701 8.32662 26.8743 10.4747C26.83 10.5559 26.7857 10.6002 26.675 10.6002C24.0544 10.5559 18.7248 10.4821 18.6805 10.4526C19.4999 9.98752 20.3193 9.52247 21.146 9.05004C21.0943 8.96145 18.4591 4.37738 17.1894 2.16286C16.6579 1.22537 15.9493 0.442906 14.9453 0C14.9306 0 21.2789 0 24.453 0L24.4604 0Z" fill="#C9992D"/>
<path id="Vector_3" d="M34.2486 22.4995C34.2117 22.5733 31.1557 27.8956 29.6572 30.5087C29.2216 31.2617 28.5794 31.6308 27.7158 31.6308C26.3132 31.6308 23.4048 31.6308 23.3384 31.6308V34.517C23.2941 34.4506 20.5333 29.8591 19.1751 27.5929C19.1382 27.5265 19.1234 27.4748 19.1677 27.401C20.5407 25.1127 23.3015 20.5064 23.331 20.4622V23.3632C23.3827 23.3632 28.8083 23.3706 31.4805 23.3706C32.4622 23.3706 33.3702 23.1196 34.1748 22.5438C34.1896 22.5364 34.2043 22.5291 34.2486 22.4995Z" fill="#C9992D"/>
<path id="Vector_4" d="M12.3543 19.5764C11.5201 19.0966 10.6934 18.6242 9.84449 18.137C9.81496 18.1813 7.13538 22.7875 5.83619 25.0611C5.38591 25.8583 5.11278 26.7146 5.12754 27.6447C5.12754 27.7554 5.14231 27.8662 5.14969 28.0138C5.1054 27.9547 2.00506 22.6251 0.477037 19.9898C0.0710407 19.2959 0.093186 18.5873 0.477037 17.8934C1.17092 16.6606 1.87957 15.4353 2.58084 14.2025C2.61775 14.1361 2.65466 14.0696 2.69895 13.9884C1.87219 13.516 1.05281 13.0288 0.203912 12.549C0.27773 12.549 5.58521 12.453 8.2205 12.4014C8.34599 12.4014 8.41243 12.4309 8.47886 12.5416C9.74852 14.8373 12.3469 19.5617 12.3395 19.5691L12.3543 19.5764Z" fill="#C9992D"/>
<path id="Vector_5" d="M16.8056 23.3115V31.6308C16.7539 31.6308 12.251 31.6308 10.0439 31.6455C8.08772 31.6603 6.55969 30.3094 6.14631 28.6707C5.91748 27.7849 6.06511 26.936 6.37515 26.1018C6.45635 25.8804 7.43074 24.1088 7.80721 23.4222C7.8515 23.3411 7.90317 23.3115 7.99914 23.3115C10.8854 23.3115 16.7465 23.3115 16.7982 23.3115H16.8056Z" fill="#C9992D"/>
<path id="Vector_6" d="M13.1958 12.3718C10.7894 10.9693 8.40505 9.5815 6.00598 8.19373C6.01336 8.17159 8.32385 4.14853 9.49017 2.17022C10.221 0.937465 11.343 0.346924 12.7751 0.346924C14.2883 0.346924 15.4103 1.04819 16.2076 2.30309C16.6874 3.05603 17.1303 3.83111 17.588 4.59882C17.6396 4.6874 17.6027 4.73907 17.5658 4.80551C16.3183 6.96836 13.4025 12.0027 13.1884 12.3718H13.1958Z" fill="#C9992D"/>
</g>
<defs>
<clipPath id="clip0_204_312">
<rect width="35.4324" height="34.5171" fill="white" transform="translate(0.189209)"/>
</clipPath>
</defs>
</svg>
