<svg width="77" height="35" viewBox="0 0 77 35" fill="none" xmlns="http://www.w3.org/2000/svg">
<path id="Union" fill-rule="evenodd" clip-rule="evenodd" d="M70.1724 33.0472H75.7391L75.8839 32.8772C76.3625 32.8772 76.7529 33.2676 76.7529 33.7462C76.7529 34.2248 76.3625 34.6152 75.8839 34.6152H41.128C41.0477 34.6398 40.9626 34.653 40.8745 34.653H0.869001C0.390421 34.653 0 34.2626 0 33.784C0 33.3054 0.390421 32.915 0.869001 32.915H6.51751V17.5627H6.44824C6.20265 17.6004 5.95077 17.5564 5.73666 17.4304C5.15103 17.0211 4.71653 16.4292 4.50243 15.7491C5.18882 15.7428 5.8752 15.8624 6.51751 16.108V15.239H6.44824C6.20265 15.2768 5.95077 15.2327 5.73666 15.1068C5.15103 14.6975 4.71653 14.1055 4.50243 13.4255C5.18882 13.4192 5.8752 13.5451 6.51751 13.7907V12.9217H6.44824C6.20265 12.9532 5.95077 12.9091 5.73666 12.7832C5.15103 12.3801 4.71653 11.7945 4.50243 11.1144C5.18882 11.1081 5.8752 11.2278 6.51751 11.4734V10.6044H6.44824C6.20265 10.6421 5.95077 10.5981 5.73666 10.4721C5.15103 10.0628 4.71653 9.47088 4.50243 8.79079C5.18882 8.78449 5.8752 8.90414 6.51751 9.14972V8.28072H6.44824C6.20265 8.31851 5.95077 8.27443 5.73666 8.14848C5.15103 7.73917 4.71653 7.14724 4.50243 6.46716C5.18882 6.46086 5.8752 6.58051 6.51751 6.83239V5.96339H6.44824C6.20265 6.00117 5.95077 5.95709 5.73666 5.83115C5.15103 5.42184 4.71653 4.82991 4.50243 4.14982C5.18882 4.14353 5.8752 4.26317 6.51751 4.50876V3.63976H6.44824C6.20265 3.67754 5.95077 3.63346 5.73666 3.50752C5.11325 3.12339 4.64097 2.54406 4.39538 1.86397C4.98101 1.87027 5.56664 1.95213 6.13338 2.10956V1.93324C6.17116 1.24056 6.42935 0.579363 6.87014 0.0378119C7.30464 0.579363 7.55653 1.24056 7.59431 1.93324V2.09697C8.14216 1.94584 8.7089 1.86397 9.27564 1.86397C9.06154 2.54406 8.62704 3.13599 8.0414 3.5453C7.8273 3.67754 7.57542 3.71532 7.32983 3.67754C7.27945 3.66495 7.23537 3.65235 7.1913 3.62716V4.58432C7.84619 4.30725 8.55777 4.17501 9.27564 4.1939C9.05524 4.87399 8.62074 5.46592 8.0414 5.87523C7.8273 6.00747 7.57542 6.04525 7.32983 6.00747L7.1913 5.95709V6.91425C7.85249 6.64977 8.55777 6.51753 9.27564 6.52383C9.06154 7.20392 8.62704 7.79585 8.0414 8.20516C7.8273 8.3374 7.57542 8.37518 7.32983 8.3374C7.27945 8.3248 7.23537 8.31221 7.1913 8.28702V9.24418C7.84619 8.96711 8.55777 8.83487 9.27564 8.85376C9.05524 9.53385 8.62074 10.1258 8.0414 10.5351C7.8273 10.6673 7.57542 10.7051 7.32983 10.6673C7.27945 10.6547 7.23537 10.6421 7.1913 10.617V11.5741C7.84619 11.297 8.55777 11.1648 9.27564 11.1837C9.06154 11.8575 8.62704 12.4494 8.0414 12.8524C7.8273 12.9721 7.57542 13.0224 7.32983 12.991L7.1913 12.928V13.8411C7.84619 13.564 8.55777 13.4318 9.27564 13.4506C9.06154 14.1307 8.62704 14.7227 8.0414 15.132C7.8273 15.2642 7.57542 15.302 7.32983 15.2642C7.27945 15.2516 7.23537 15.239 7.1913 15.2138V16.171C7.84619 15.8939 8.55777 15.7617 9.27564 15.7806C9.05524 16.4607 8.62074 17.0526 8.0414 17.4619C7.8273 17.5941 7.57542 17.6319 7.32983 17.5941C7.27945 17.5815 7.23537 17.569 7.1913 17.5438V32.9465H13.4884V17.6382H13.4254C13.1798 17.676 12.928 17.6319 12.7139 17.506C12.1219 17.0967 11.6874 16.5047 11.467 15.8247C12.1534 15.8121 12.8398 15.938 13.4821 16.1836V15.3146H13.4191C13.1735 15.3524 12.9217 15.3083 12.7076 15.1824C12.1156 14.773 11.6748 14.1811 11.4607 13.501C12.1471 13.4884 12.8335 13.6144 13.4758 13.86V12.991H13.4128C13.1672 13.0224 12.9154 12.9784 12.7013 12.8524C12.1093 12.4494 11.6685 11.8638 11.4544 11.1837C12.1408 11.1711 12.8272 11.297 13.4695 11.5426V10.6736H13.4065C13.161 10.7114 12.9091 10.6673 12.695 10.5414C12.103 10.1321 11.6685 9.54014 11.4481 8.86006C12.1345 8.84746 12.8209 8.97341 13.4632 9.21899V8.34999H13.4002C13.1547 8.38777 12.9028 8.34369 12.6887 8.21775C12.0967 7.80844 11.6559 7.21651 11.4418 6.53643C12.1282 6.52383 12.8146 6.64977 13.4569 6.90166V6.03266H13.3939C13.1484 6.07044 12.8965 6.02636 12.6824 5.90042C12.0904 5.49111 11.6559 4.89918 11.4355 4.21909C12.1219 4.2065 12.8083 4.33244 13.4506 4.57803V3.70902H13.3876C13.1421 3.74681 12.8902 3.70273 12.6761 3.57679C12.0841 3.16747 11.6433 2.57555 11.4292 1.89546C12.0149 1.90176 12.6005 1.98362 13.1672 2.14105V1.96473C13.205 1.27204 13.4632 0.610849 13.904 0.0692974C14.3322 0.617146 14.5841 1.27204 14.6282 1.96473V2.12845C15.176 1.97732 15.7428 1.89546 16.3095 1.89546C16.0954 2.57555 15.6609 3.16747 15.0753 3.57679C14.8612 3.70902 14.6093 3.74681 14.3637 3.70902C14.3133 3.69643 14.2692 3.68384 14.2252 3.65865V4.61581C14.8801 4.33874 15.5916 4.2065 16.3095 4.22539C16.0891 4.90548 15.6546 5.4974 15.0753 5.90671C14.8612 6.03895 14.6093 6.07674 14.3637 6.03895L14.2252 5.98858V6.94574C14.8864 6.68126 15.5916 6.54902 16.3095 6.55532C16.0954 7.2354 15.6609 7.82733 15.0753 8.23664C14.8612 8.36888 14.6093 8.40667 14.3637 8.36888C14.3133 8.35629 14.2692 8.34369 14.2252 8.31851V9.27567C14.8801 8.99859 15.5916 8.86635 16.3095 8.88525C16.0891 9.56533 15.6546 10.1573 15.0753 10.5666C14.8612 10.6988 14.6093 10.7366 14.3637 10.6988C14.3133 10.6862 14.2692 10.6736 14.2252 10.6484V11.6056C14.8801 11.3285 15.5916 11.1963 16.3095 11.2152C16.0954 11.889 15.6609 12.4809 15.0753 12.8839C14.8612 13.0036 14.6093 13.0539 14.3637 13.0224L14.2252 12.9595V13.8726C14.8801 13.5955 15.5916 13.4632 16.3095 13.4821C16.0954 14.1622 15.6609 14.7541 15.0753 15.1635C14.8612 15.2957 14.6093 15.3335 14.3637 15.2957C14.3133 15.2831 14.2692 15.2705 14.2252 15.2453V16.2025C14.8801 15.9254 15.5916 15.7932 16.3095 15.8121C16.0891 16.4921 15.6546 17.0841 15.0753 17.4934C14.8612 17.6256 14.6093 17.6634 14.3637 17.6256C14.3133 17.613 14.2692 17.6004 14.2252 17.5753V32.978H20.5663V17.6382H20.5034C20.2515 17.676 19.9996 17.6319 19.7792 17.506C19.1999 17.0904 18.7654 16.5047 18.545 15.8247C19.2314 15.8121 19.9177 15.938 20.5601 16.1836V15.3146H20.4971C20.2452 15.3524 19.9933 15.3083 19.7729 15.1824C19.1873 14.7667 18.7591 14.1811 18.5387 13.501C19.2251 13.4884 19.9114 13.6144 20.5538 13.86V12.991H20.4908C20.2389 13.0224 19.987 12.9784 19.7666 12.8524C19.181 12.4494 18.7465 11.8638 18.5324 11.1837C19.2188 11.1711 19.9052 11.297 20.5475 11.5426V10.6736H20.4845C20.2326 10.7114 19.9807 10.6673 19.7603 10.5414C19.181 10.1258 18.7465 9.54014 18.5261 8.86006C19.2125 8.84746 19.8989 8.97341 20.5412 9.21899V8.34999H20.4782C20.2263 8.38777 19.9744 8.34369 19.754 8.21775C19.1684 7.80214 18.7402 7.21651 18.5198 6.53643C19.2062 6.52383 19.8926 6.64977 20.5349 6.90166V6.03266H20.4719C20.22 6.07044 19.9681 6.02636 19.7477 5.90042C19.1684 5.48481 18.7339 4.89918 18.5135 4.21909C19.1999 4.2065 19.8863 4.33244 20.5286 4.57803V3.70902H20.4656C20.2137 3.74681 19.9618 3.70273 19.7414 3.57679C19.1558 3.16118 18.7276 2.57555 18.5072 1.89546C19.0928 1.90176 19.6785 1.98362 20.2452 2.14105C20.2263 2.08437 20.2074 2.0214 20.2011 1.96473C20.2515 1.27204 20.516 0.610849 20.9505 0.0692974C21.3787 0.623443 21.6306 1.30353 21.662 2.00251V2.16623C22.2099 2.0151 22.7766 1.93324 23.3434 1.93324C23.1293 2.61333 22.6948 3.20526 22.1091 3.61457C21.8887 3.74681 21.6306 3.79089 21.385 3.74681C21.3409 3.73421 21.2968 3.71532 21.2527 3.69643V4.65359C21.9076 4.37652 22.6192 4.24428 23.3371 4.26317C23.1167 4.94326 22.6822 5.53519 22.1028 5.9445C21.8824 6.07674 21.6243 6.12082 21.3787 6.07674L21.2464 6.02636V6.98352C21.9076 6.71274 22.6129 6.5805 23.3308 6.5931C23.1167 7.27319 22.6822 7.86511 22.0965 8.27443C21.8761 8.40667 21.618 8.45075 21.3724 8.40667C21.3283 8.39407 21.2842 8.37518 21.2401 8.35629V9.31345C21.895 9.03638 22.6066 8.90414 23.3245 8.92303C23.1041 9.60312 22.6696 10.195 22.0903 10.6044C21.8699 10.7366 21.6117 10.7807 21.3661 10.7366L21.2338 10.6862V11.6434C21.8887 11.3663 22.6003 11.2341 23.3182 11.253C23.1041 11.9267 22.6696 12.5187 22.084 12.9217C21.8636 13.0476 21.6117 13.0917 21.3598 13.0602L21.2275 12.9973V13.9103C21.8824 13.6333 22.594 13.501 23.3119 13.5199C23.0978 14.2 22.6633 14.7919 22.0777 15.2012C21.8573 15.3335 21.5991 15.3776 21.3535 15.3335C21.3094 15.3209 21.2653 15.302 21.2212 15.2831V16.2403C21.8761 15.9632 22.5877 15.831 23.3056 15.8498C23.0852 16.5299 22.6507 17.1219 22.0714 17.5312C21.851 17.6634 21.5928 17.7075 21.3472 17.6634L21.215 17.613V33.0158H27.6065V17.6634H27.5372C27.2917 17.7012 27.0398 17.6571 26.8257 17.5312C26.2463 17.1219 25.8118 16.5362 25.5914 15.8624C26.2778 15.8561 26.9642 15.9758 27.6065 16.2214V15.3524H27.5372C27.2917 15.3902 27.0398 15.3461 26.8257 15.2201C26.24 14.8045 25.8118 14.2189 25.5914 13.5388C26.2778 13.5325 26.9642 13.6522 27.6065 13.8977V13.0287H27.5372C27.2917 13.0602 27.0398 13.0161 26.8257 12.8902C26.24 12.4872 25.8055 11.9016 25.5914 11.2215C26.2778 11.2152 26.9642 11.3348 27.6065 11.5804V10.7114H27.5372C27.2917 10.7492 27.0398 10.7051 26.8257 10.5792C26.2463 10.1636 25.8118 9.57793 25.5914 8.89784C26.2778 8.89154 26.9642 9.01119 27.6065 9.25678V8.38777H27.5372C27.2917 8.42556 27.0398 8.38148 26.8257 8.25554C26.24 7.83993 25.8118 7.2543 25.5914 6.57421C26.2778 6.56791 26.9642 6.68756 27.6065 6.93944V6.07044H27.5372C27.2917 6.10822 27.0398 6.06414 26.8257 5.9382C26.2463 5.52259 25.8118 4.93696 25.5914 4.25687C26.2778 4.25058 26.9642 4.37022 27.6065 4.61581V3.74681H27.5372C27.2917 3.78459 27.0398 3.74051 26.8257 3.61457C26.2337 3.22415 25.7804 2.64481 25.5411 1.97102C26.1267 1.97732 26.7123 2.05918 27.2791 2.21661C27.2539 2.15994 27.235 2.10326 27.235 2.04029C27.2854 1.34761 27.5435 0.686414 27.9717 0.144863C28.4062 0.686414 28.6581 1.34761 28.6959 2.04029V2.20402C29.2438 2.05289 29.8105 1.97102 30.3772 1.97102C30.1568 2.65741 29.7223 3.24934 29.1304 3.65235C28.9163 3.78459 28.6644 3.82867 28.4188 3.78459C28.3748 3.772 28.3307 3.7531 28.2866 3.73421V4.69137C28.9415 4.4143 29.6531 4.28206 30.3709 4.30095C30.1505 4.98734 29.7097 5.57297 29.1241 5.98228C28.91 6.11452 28.6581 6.1586 28.4125 6.11452L28.2803 6.06414V7.0213C28.9415 6.75053 29.6468 6.61829 30.3646 6.63088C30.1442 7.31727 29.7097 7.90919 29.1178 8.31221C28.9037 8.44445 28.6518 8.48853 28.4062 8.44445C28.3622 8.43185 28.3181 8.41296 28.274 8.39407V9.35123C28.9289 9.07416 29.6405 8.94192 30.3583 8.96081C30.1379 9.6472 29.6972 10.2328 29.1115 10.6421C28.8974 10.7744 28.6455 10.8185 28.3999 10.7744C28.3559 10.7618 28.3118 10.7429 28.2677 10.724V11.6812C28.9226 11.4041 29.6342 11.2718 30.3521 11.2907C30.1317 11.9708 29.6972 12.5565 29.1052 12.9595C28.8911 13.0854 28.6392 13.1295 28.3937 13.098L28.2614 13.035V13.9481C28.9163 13.671 29.6279 13.5388 30.3458 13.5577C30.1254 14.2441 29.6909 14.836 29.0989 15.239C28.8848 15.3713 28.6329 15.4153 28.3874 15.3713C28.3433 15.3587 28.2992 15.3398 28.2551 15.3209V16.278C28.91 16.001 29.6216 15.8687 30.3395 15.8876C30.1191 16.574 29.6783 17.1596 29.0926 17.569C28.8785 17.7012 28.6266 17.7453 28.3811 17.7012C28.337 17.6886 28.2929 17.6697 28.2489 17.6508L28.2488 17.6508V33.0535H34.59V17.7138H34.5207C34.2752 17.7516 34.0233 17.7075 33.8092 17.5816C33.2298 17.1659 32.7953 16.5803 32.5749 15.9002C33.2613 15.8939 33.9477 16.0136 34.59 16.2592V15.3902H34.5207C34.2752 15.4279 34.0233 15.3839 33.8092 15.2579C33.2235 14.8423 32.7953 14.2567 32.5749 13.5766C33.2613 13.5703 33.9477 13.6899 34.59 13.9355V13.0665H34.5207C34.2752 13.098 34.0233 13.0539 33.8092 12.928C33.2235 12.525 32.789 11.9393 32.5749 11.2593C33.2613 11.253 33.9477 11.3726 34.59 11.6182V10.7492H34.5207C34.2752 10.787 34.0233 10.7429 33.8092 10.617C33.2298 10.2013 32.7953 9.61571 32.5749 8.93562C33.2613 8.92933 33.9477 9.04897 34.59 9.29456V8.42556H34.5207C34.2752 8.46334 34.0233 8.41926 33.8092 8.29332C33.2235 7.87771 32.7953 7.29208 32.5749 6.61199C33.2613 6.60569 33.9477 6.72534 34.59 6.97722V6.10822H34.5207C34.2752 6.14601 34.0233 6.10193 33.8092 5.97598C33.2298 5.56037 32.7953 4.97474 32.5749 4.29466C33.2613 4.28836 33.9477 4.408 34.59 4.65359V3.78459H34.5207C34.2752 3.82237 34.0233 3.77829 33.8092 3.65235C33.2235 3.23674 32.7953 2.65111 32.5749 1.97102C33.1606 1.97732 33.7462 2.05918 34.3129 2.21661C34.2877 2.15994 34.2689 2.10326 34.2689 2.04029C34.3192 1.34761 34.5774 0.686414 35.0056 0.144863C35.4401 0.686414 35.692 1.34761 35.7298 2.00251V2.16623C36.2713 2.0151 36.8318 1.93324 37.3985 1.93324C37.1844 2.61963 36.7499 3.20526 36.1643 3.61457C35.9502 3.74681 35.6983 3.78459 35.4527 3.74681L35.3142 3.69643V4.65359C35.9691 4.37652 36.6806 4.24428 37.3985 4.26317C37.1907 4.95585 36.7562 5.56037 36.1643 5.97598C35.9502 6.10822 35.6983 6.14601 35.4527 6.10822L35.3142 6.05785V6.97093C35.9754 6.70645 36.6806 6.57421 37.3985 6.58051C37.1844 7.26689 36.7499 7.85252 36.1643 8.26183C35.9502 8.39407 35.6983 8.43185 35.4527 8.39407L35.3142 8.3437V9.30085C35.9691 9.02378 36.6806 8.89154 37.3985 8.91043C37.1844 9.59052 36.7499 10.1825 36.1643 10.5918C35.9502 10.724 35.6983 10.7618 35.4527 10.724L35.3142 10.6736V11.6308C35.9691 11.3537 36.6806 11.2215 37.3985 11.2404C37.197 11.933 36.7562 12.5376 36.1643 12.9532C35.9502 13.0728 35.6983 13.1232 35.4527 13.0917L35.3142 13.0287V13.9418C35.9691 13.6647 36.6806 13.5325 37.3985 13.5514C37.1844 14.2378 36.7499 14.8234 36.1643 15.2327C35.9502 15.365 35.6983 15.4028 35.4527 15.365L35.3142 15.3146V16.2718C35.9691 15.9947 36.6806 15.8624 37.3985 15.8813C37.1844 16.5614 36.7499 17.1533 36.1643 17.5627C35.9502 17.6949 35.6983 17.7327 35.4527 17.6949L35.3142 17.6445V33.0472H35.363C35.5074 32.9404 35.6857 32.8772 35.8784 32.8772H41.3758V17.5248H41.3065C41.0609 17.5626 40.809 17.5186 40.5949 17.3926C40.0093 16.9833 39.5748 16.3914 39.3607 15.7113C40.0471 15.705 40.7334 15.8246 41.3758 16.0702V15.2012H41.3065C41.0609 15.239 40.809 15.1949 40.5949 15.069C40.0093 14.6597 39.5748 14.0677 39.3607 13.3877C40.0471 13.3814 40.7334 13.5073 41.3758 13.7529V12.8839H41.3065C41.0609 12.9154 40.809 12.8713 40.5949 12.7453C40.0093 12.3423 39.5748 11.7567 39.3607 11.0766C40.0471 11.0703 40.7334 11.19 41.3758 11.4355V10.5665H41.3065C41.0609 10.6043 40.809 10.5602 40.5949 10.4343C40.0093 10.025 39.5748 9.43307 39.3607 8.75298C40.0471 8.74668 40.7334 8.86633 41.3758 9.11191V8.24291H41.3065C41.0609 8.2807 40.809 8.23662 40.5949 8.11067C40.0093 7.70136 39.5748 7.10943 39.3607 6.42935C40.0471 6.42305 40.7334 6.54269 41.3758 6.79458V5.92558H41.3065C41.0609 5.96336 40.809 5.91928 40.5949 5.79334C40.0093 5.38403 39.5748 4.7921 39.3607 4.11201C40.0471 4.10571 40.7334 4.22536 41.3758 4.47095V3.60195H41.3065C41.0609 3.63973 40.809 3.59565 40.5949 3.46971C39.9715 3.08558 39.4992 2.50625 39.2536 1.82616C39.8393 1.83246 40.4249 1.91432 40.9916 2.07175V1.89543C41.0294 1.20275 41.2876 0.541551 41.7284 0C42.1629 0.541551 42.4148 1.20275 42.4526 1.89543V2.05915C43.0004 1.90802 43.5671 1.82616 44.1339 1.82616C43.9198 2.50625 43.4853 3.09818 42.8997 3.50749C42.6855 3.63973 42.4337 3.67751 42.1881 3.63973C42.1377 3.62713 42.0936 3.61454 42.0495 3.58935V4.54651C42.7044 4.26944 43.416 4.1372 44.1339 4.15609C43.9135 4.83618 43.479 5.42811 42.8997 5.83742C42.6855 5.96966 42.4337 6.00744 42.1881 5.96966L42.0495 5.91928V6.87644C42.7107 6.61196 43.416 6.47972 44.1339 6.48602C43.9198 7.16611 43.4853 7.75804 42.8997 8.16735C42.6855 8.29959 42.4337 8.33737 42.1881 8.29959C42.1377 8.28699 42.0936 8.2744 42.0495 8.24921V9.20637C42.7044 8.9293 43.416 8.79706 44.1339 8.81595C43.9135 9.49604 43.479 10.088 42.8997 10.4973C42.6855 10.6295 42.4337 10.6673 42.1881 10.6295C42.1377 10.6169 42.0936 10.6043 42.0495 10.5791V11.5363C42.7044 11.2592 43.416 11.127 44.1339 11.1459C43.9198 11.8197 43.4853 12.4116 42.8997 12.8146C42.6855 12.9343 42.4337 12.9846 42.1881 12.9531L42.0495 12.8902V13.8033C42.7044 13.5262 43.416 13.3939 44.1339 13.4128C43.9198 14.0929 43.4853 14.6849 42.8997 15.0942C42.6855 15.2264 42.4337 15.2642 42.1881 15.2264C42.1377 15.2138 42.0936 15.2012 42.0495 15.176V16.1332C42.7044 15.8561 43.416 15.7239 44.1339 15.7428C43.9135 16.4229 43.479 17.0148 42.8997 17.4241C42.6855 17.5563 42.4337 17.5941 42.1881 17.5563C42.1377 17.5437 42.0936 17.5311 42.0495 17.506V32.9087H48.3466V17.6004H48.2837C48.0381 17.6382 47.7862 17.5941 47.5721 17.4682C46.9802 17.0589 46.5457 16.4669 46.3253 15.7868C47.0117 15.7743 47.698 15.9002 48.3403 16.1458V15.2768H48.2774C48.0318 15.3146 47.7799 15.2705 47.5658 15.1445C46.9739 14.7352 46.5331 14.1433 46.319 13.4632C47.0054 13.4506 47.6917 13.5766 48.334 13.8222V12.9531H48.2711C48.0255 12.9846 47.7736 12.9406 47.5595 12.8146C46.9676 12.4116 46.5268 11.826 46.3127 11.1459C46.9991 11.1333 47.6854 11.2592 48.3278 11.5048V10.6358H48.2648C48.0192 10.6736 47.7673 10.6295 47.5532 10.5036C46.9613 10.0943 46.5268 9.50233 46.3064 8.82225C46.9928 8.80965 47.6792 8.9356 48.3215 9.18118V8.31218H48.2585C48.0129 8.34996 47.761 8.30588 47.5469 8.17994C46.955 7.77063 46.5142 7.1787 46.3001 6.49861C46.9865 6.48602 47.6729 6.61196 48.3152 6.86385V5.99485H48.2522C48.0066 6.03263 47.7547 5.98855 47.5406 5.86261C46.9487 5.45329 46.5142 4.86137 46.2938 4.18128C46.9802 4.16868 47.6666 4.29463 48.3089 4.54021V3.67121H48.2459C48.0003 3.709 47.7484 3.66492 47.5343 3.53897C46.9424 3.12966 46.5016 2.53773 46.2875 1.85765C46.8731 1.86394 47.4588 1.94581 48.0255 2.10323V1.92691C48.0633 1.23423 48.3215 0.573037 48.7623 0.0314855C49.1905 0.579334 49.4423 1.23423 49.4864 1.92691V2.09064C50.0343 1.93951 50.601 1.85765 51.1677 1.85765C50.9536 2.53773 50.5191 3.12966 49.9335 3.53897C49.7194 3.67121 49.4675 3.709 49.2219 3.67121C49.1716 3.65862 49.1275 3.64603 49.0834 3.62084V4.578C49.7383 4.30092 50.4499 4.16868 51.1677 4.18758C50.9473 4.86766 50.5129 5.45959 49.9335 5.8689C49.7194 6.00114 49.4675 6.03893 49.2219 6.00114L49.0834 5.95077V6.90793C49.7446 6.64345 50.4499 6.51121 51.1677 6.51751C50.9536 7.19759 50.5191 7.78952 49.9335 8.19883C49.7194 8.33107 49.4675 8.36886 49.2219 8.33107C49.1716 8.31848 49.1275 8.30588 49.0834 8.2807V9.23786C49.7383 8.96078 50.4499 8.82854 51.1677 8.84743C50.9473 9.52752 50.5129 10.1195 49.9335 10.5288C49.7194 10.661 49.4675 10.6988 49.2219 10.661C49.1716 10.6484 49.1275 10.6358 49.0834 10.6106V11.5678C49.7383 11.2907 50.4499 11.1585 51.1677 11.1774C50.9536 11.8512 50.5191 12.4431 49.9335 12.8461C49.7194 12.9657 49.4675 13.0161 49.2219 12.9846L49.0834 12.9217V13.8347C49.7383 13.5577 50.4499 13.4254 51.1677 13.4443C50.9536 14.1244 50.5191 14.7163 49.9335 15.1257C49.7194 15.2579 49.4675 15.2957 49.2219 15.2579C49.1716 15.2453 49.1275 15.2327 49.0834 15.2075V16.1647C49.7383 15.8876 50.4499 15.7554 51.1677 15.7743C50.9473 16.4543 50.5129 17.0463 49.9335 17.4556C49.7194 17.5878 49.4675 17.6256 49.2219 17.5878C49.1716 17.5752 49.1275 17.5626 49.0834 17.5374V32.9402H55.4246V17.6004H55.3616C55.1097 17.6382 54.8579 17.5941 54.6375 17.4682C54.0581 17.0526 53.6236 16.4669 53.4032 15.7868C54.0896 15.7743 54.776 15.9002 55.4183 16.1458V15.2768H55.3553C55.1034 15.3146 54.8516 15.2705 54.6312 15.1445C54.0455 14.7289 53.6173 14.1433 53.3969 13.4632C54.0833 13.4506 54.7697 13.5766 55.412 13.8222V12.9531H55.349C55.0971 12.9846 54.8453 12.9406 54.6249 12.8146C54.0392 12.4116 53.6047 11.826 53.3906 11.1459C54.077 11.1333 54.7634 11.2592 55.4057 11.5048V10.6358H55.3427C55.0908 10.6736 54.839 10.6295 54.6186 10.5036C54.0392 10.088 53.6047 9.50233 53.3843 8.82225C54.0707 8.80965 54.7571 8.9356 55.3994 9.18118V8.31218H55.3364C55.0845 8.34996 54.8327 8.30588 54.6123 8.17994C54.0266 7.76433 53.5984 7.1787 53.378 6.49861C54.0644 6.48602 54.7508 6.61196 55.3931 6.86385V5.99485H55.3301C55.0783 6.03263 54.8264 5.98855 54.606 5.86261C54.0266 5.447 53.5921 4.86137 53.3717 4.18128C54.0581 4.16868 54.7445 4.29463 55.3868 4.54021V3.67121H55.3238C55.072 3.709 54.8201 3.66492 54.5997 3.53897C54.014 3.12337 53.5858 2.53773 53.3654 1.85765C53.9511 1.86394 54.5367 1.94581 55.1034 2.10323C55.0845 2.04656 55.0657 1.98359 55.0594 1.92691C55.1097 1.23423 55.3742 0.573037 55.8087 0.0314855C56.2369 0.585631 56.4888 1.26572 56.5203 1.9647V2.12842C57.0681 1.97729 57.6349 1.89543 58.2016 1.89543C57.9875 2.57552 57.553 3.16744 56.9674 3.57676C56.747 3.709 56.4888 3.75308 56.2432 3.709C56.1991 3.6964 56.1551 3.67751 56.111 3.65862V4.61578C56.7659 4.33871 57.4775 4.20647 58.1953 4.22536C57.9749 4.90545 57.5404 5.49737 56.9611 5.90669C56.7407 6.03893 56.4825 6.083 56.2369 6.03893L56.1047 5.98855V6.94571C56.7659 6.67493 57.4712 6.54269 58.189 6.55529C57.9749 7.23538 57.5404 7.8273 56.9548 8.23662C56.7344 8.36886 56.4762 8.41294 56.2306 8.36886C56.1865 8.35626 56.1425 8.33737 56.0984 8.31848V9.27564C56.7533 8.99857 57.4649 8.86633 58.1827 8.88522C57.9623 9.56531 57.5278 10.1572 56.9485 10.5665C56.7281 10.6988 56.4699 10.7429 56.2243 10.6988L56.0921 10.6484V11.6056C56.747 11.3285 57.4586 11.1963 58.1764 11.2151C57.9623 11.8889 57.5278 12.4809 56.9422 12.8839C56.7218 13.0098 56.4699 13.0539 56.218 13.0224L56.0858 12.9594V13.8725C56.7407 13.5955 57.4523 13.4632 58.1701 13.4821C57.956 14.1622 57.5215 14.7541 56.9359 15.1634C56.7155 15.2957 56.4573 15.3398 56.2117 15.2957C56.1677 15.2831 56.1236 15.2642 56.0795 15.2453V16.2025C56.7344 15.9254 57.446 15.7931 58.1638 15.812C57.9434 16.4921 57.5089 17.0841 56.9296 17.4934C56.7092 17.6256 56.451 17.6697 56.2054 17.6256L56.0732 17.5752V32.978H62.4648V17.6256H62.3955C62.1499 17.6634 61.898 17.6193 61.6839 17.4934C61.1046 17.0841 60.6701 16.4984 60.4497 15.8246C61.1361 15.8183 61.8225 15.938 62.4648 16.1836V15.3146H62.3955C62.1499 15.3523 61.898 15.3083 61.6839 15.1823C61.0983 14.7667 60.6701 14.1811 60.4497 13.501C61.1361 13.4947 61.8225 13.6143 62.4648 13.8599V12.9909H62.3955C62.1499 13.0224 61.898 12.9783 61.6839 12.8524C61.0983 12.4494 60.6638 11.8638 60.4497 11.1837C61.1361 11.1774 61.8225 11.297 62.4648 11.5426V10.6736H62.3955C62.1499 10.7114 61.898 10.6673 61.6839 10.5414C61.1046 10.1257 60.6701 9.54012 60.4497 8.86003C61.1361 8.85373 61.8225 8.97338 62.4648 9.21896V8.34996H62.3955C62.1499 8.38775 61.898 8.34367 61.6839 8.21772C61.0983 7.80212 60.6701 7.21648 60.4497 6.5364C61.1361 6.5301 61.8225 6.64974 62.4648 6.90163V6.03263H62.3955C62.1499 6.07041 61.898 6.02633 61.6839 5.90039C61.1046 5.48478 60.6701 4.89915 60.4497 4.21906C61.1361 4.21276 61.8225 4.33241 62.4648 4.578V3.709H62.3955C62.1499 3.74678 61.898 3.7027 61.6839 3.57676C61.092 3.18634 60.6386 2.607 60.3993 1.93321C60.9849 1.93951 61.5706 2.02137 62.1373 2.1788C62.1121 2.12213 62.0932 2.06545 62.0932 2.00248C62.1436 1.3098 62.4018 0.648602 62.83 0.107051C63.2645 0.648602 63.5164 1.3098 63.5542 2.00248V2.1662C64.102 2.01507 64.6687 1.93321 65.2355 1.93321C65.0151 2.6196 64.5806 3.21152 63.9887 3.61454C63.7746 3.74678 63.5227 3.79086 63.2771 3.74678C63.233 3.73418 63.1889 3.71529 63.1448 3.6964V4.65356C63.7997 4.37649 64.5113 4.24425 65.2292 4.26314C65.0088 4.94953 64.568 5.53516 63.9824 5.94447C63.7683 6.07671 63.5164 6.12079 63.2708 6.07671L63.1385 6.02633V6.98349C63.7997 6.71272 64.505 6.58048 65.2229 6.59307C65.0025 7.27946 64.568 7.87138 63.9761 8.2744C63.762 8.40664 63.5101 8.45072 63.2645 8.40664C63.2204 8.39404 63.1763 8.37515 63.1323 8.35626V9.31342C63.7872 9.03635 64.4987 8.90411 65.2166 8.923C64.9962 9.60939 64.5554 10.195 63.9698 10.6043C63.7557 10.7366 63.5038 10.7806 63.2582 10.7366C63.2141 10.724 63.17 10.7051 63.126 10.6862V11.6434C63.7809 11.3663 64.4924 11.234 65.2103 11.2529C64.9899 11.933 64.5554 12.5187 63.9635 12.9217C63.7494 13.0476 63.4975 13.0917 63.2519 13.0602L63.1197 12.9972V13.9103C63.7746 13.6332 64.4861 13.501 65.204 13.5199C64.9836 14.2063 64.5491 14.7982 63.9572 15.2012C63.7431 15.3335 63.4912 15.3775 63.2456 15.3335C63.2015 15.3209 63.1574 15.302 63.1134 15.2831V16.2402C63.7683 15.9632 64.4798 15.8309 65.1977 15.8498C64.9773 16.5362 64.5365 17.1218 63.9509 17.5311C63.7368 17.6634 63.4849 17.7075 63.2393 17.6634C63.1952 17.6508 63.1511 17.6319 63.1071 17.613V33.0157H69.4482V17.676H69.379C69.1334 17.7138 68.8815 17.6697 68.6674 17.5437C68.0881 17.1281 67.6536 16.5425 67.4332 15.8624C68.1196 15.8561 68.8059 15.9758 69.4482 16.2213V15.3523H69.379C69.1334 15.3901 68.8815 15.3461 68.6674 15.2201C68.0818 14.8045 67.6536 14.2189 67.4332 13.5388C68.1196 13.5325 68.8059 13.6521 69.4482 13.8977V13.0287H69.379C69.1334 13.0602 68.8815 13.0161 68.6674 12.8902C68.0818 12.4872 67.6473 11.9015 67.4332 11.2214C68.1196 11.2151 68.8059 11.3348 69.4482 11.5804V10.7114H69.379C69.1334 10.7492 68.8815 10.7051 68.6674 10.5791C68.0881 10.1635 67.6536 9.5779 67.4332 8.89781C68.1196 8.89151 68.8059 9.01116 69.4482 9.25675V8.38775H69.379C69.1334 8.42553 68.8815 8.38145 68.6674 8.25551C68.0818 7.8399 67.6536 7.25427 67.4332 6.57418C68.1196 6.56788 68.8059 6.68753 69.4482 6.93941V6.07041H69.379C69.1334 6.10819 68.8815 6.06411 68.6674 5.93817C68.0881 5.52256 67.6536 4.93693 67.4332 4.25684C68.1196 4.25055 68.8059 4.37019 69.4482 4.61578V3.74678H69.379C69.1334 3.78456 68.8815 3.74048 68.6674 3.61454C68.0818 3.19893 67.6536 2.6133 67.4332 1.93321C68.0188 1.93951 68.6044 2.02137 69.1712 2.1788C69.146 2.12213 69.1271 2.06545 69.1271 2.00248C69.1775 1.3098 69.4357 0.648602 69.8639 0.107051C70.2984 0.648602 70.5502 1.3098 70.588 2.00248V2.1662C71.1296 2.01507 71.69 1.93321 72.2568 1.93321C72.0427 2.6196 71.6082 3.20523 71.0225 3.61454C70.8084 3.74678 70.5565 3.78456 70.311 3.74678L70.1724 3.6964V4.65356C70.8273 4.37649 71.5389 4.24425 72.2568 4.26314C72.049 4.95582 71.6145 5.56035 71.0225 5.97595C70.8084 6.10819 70.5565 6.14598 70.311 6.10819L70.1724 6.05782V6.9709C70.8336 6.70642 71.5389 6.57418 72.2568 6.58048C72.0427 7.26686 71.6082 7.85249 71.0225 8.2618C70.8084 8.39404 70.5565 8.43183 70.311 8.39404L70.1724 8.34367V9.30083C70.8273 9.02375 71.5389 8.89152 72.2568 8.91041C72.0427 9.59049 71.6082 10.1824 71.0225 10.5917C70.8084 10.724 70.5565 10.7618 70.311 10.724L70.1724 10.6736V11.6308C70.8273 11.3537 71.5389 11.2214 72.2568 11.2403C72.0553 11.933 71.6145 12.5375 71.0225 12.9531C70.8084 13.0728 70.5565 13.1232 70.311 13.0917L70.1724 13.0287V13.9418C70.8273 13.6647 71.5389 13.5325 72.2568 13.5514C72.0427 14.2378 71.6082 14.8234 71.0225 15.2327C70.8084 15.3649 70.5565 15.4027 70.311 15.3649L70.1724 15.3146V16.2717C70.8273 15.9947 71.5389 15.8624 72.2568 15.8813C72.0427 16.5614 71.6082 17.1533 71.0225 17.5626C70.8084 17.6949 70.5565 17.7327 70.311 17.6949L70.1724 17.6445V33.0472Z" fill="#E5B735"/>
</svg>
