<svg width="39" height="39" viewBox="0 0 39 39" fill="none" xmlns="http://www.w3.org/2000/svg">
<g id="Layer_1" clip-path="url(#clip0_204_252)">
<path id="Vector" d="M24.8313 37.4771C24.8313 37.8892 25.1734 38.2314 25.5855 38.2314H32.3658C32.7779 38.2314 33.12 37.8892 33.12 37.4771V9.14331L24.8235 14.5784V37.4771H24.8313Z" fill="#792C3A"/>
<path id="Vector_2" d="M14.731 37.4772C14.731 37.8893 15.0731 38.2314 15.4852 38.2314H22.2654C22.6775 38.2314 23.0196 37.8893 23.0196 37.4772V15.7681L14.7232 21.2031V37.4772H14.731Z" fill="#792C3A"/>
<path id="Vector_3" d="M4.74728 37.4773C4.74728 37.8894 5.0894 38.2315 5.5015 38.2315H12.2817C12.6938 38.2315 13.0359 37.8894 13.0359 37.4773V22.3074L4.7395 27.7424V37.4773H4.74728Z" fill="#792C3A"/>
<path id="Vector_4" d="M35.1107 7.8449L38.112 1.67118C38.2986 1.29018 38.1043 0.971383 37.6766 0.971383L30.8186 0.90918C30.391 0.90918 30.2277 1.19687 30.4532 1.55454L31.4951 3.23405L1.23296 23.4581C0.875292 23.6835 0.75866 24.1579 0.984148 24.5233L2.01051 26.1795C2.236 26.5371 2.7103 26.6538 3.07575 26.4283L33.3301 6.20428L34.372 7.88378C34.5975 8.24145 34.9319 8.2259 35.1185 7.8449H35.1107Z" fill="#792C3A"/>
</g>
<defs>
<clipPath id="clip0_204_252">
<rect width="37.3223" height="37.3223" fill="white" transform="translate(0.86731 0.90918)"/>
</clipPath>
</defs>
</svg>
