<svg width="39" height="39" viewBox="0 0 39 39" fill="none" xmlns="http://www.w3.org/2000/svg">
<g id="Layer_2" clip-path="url(#clip0_204_264)">
<path id="Vector" d="M37.8943 22.0337L29.1622 16.9603V6.80286C29.1622 6.59058 29.0462 6.38892 28.8669 6.28278L19.829 1.03956C19.6392 0.933426 19.4177 0.933426 19.2279 1.03956L10.19 6.29339C10.0001 6.39953 9.89468 6.60119 9.89468 6.81347V16.9603L1.1626 22.0337C0.97277 22.1398 0.86731 22.3415 0.86731 22.5537V33.0508C0.86731 33.263 0.983316 33.4647 1.1626 33.5708L10.2005 38.8141C10.2954 38.8671 10.3903 38.899 10.4958 38.899C10.6013 38.899 10.6962 38.8671 10.7911 38.8141L19.5232 33.7407L28.2553 38.8141C28.3502 38.8671 28.4451 38.899 28.5505 38.899C28.656 38.899 28.7509 38.8671 28.8458 38.8141L37.8838 33.5708C38.0736 33.4647 38.179 33.263 38.179 33.0508V22.5537C38.179 22.3415 38.063 22.1398 37.8838 22.0337H37.8943ZM18.9326 32.0106L11.6875 27.7969L18.9326 23.5833V32V32.0106ZM27.3694 17.2999L20.1243 21.5136V13.0968L27.3694 17.3105V17.2999ZM18.9326 21.5136L11.6875 17.2999L18.9326 13.0862V21.503V21.5136ZM20.7254 22.5537L28.5611 18.0004L36.4073 22.5537L28.5611 27.107L20.7254 22.5537ZM27.9705 16.2704L20.7254 12.0567L27.9705 7.84301V16.2597V16.2704ZM18.342 12.0567L11.0969 16.2704V7.85362L18.342 12.0673V12.0567ZM9.90523 37.2644L2.05901 32.7111V23.5939L9.90523 28.1472V37.2644ZM11.0969 37.2644V28.8477L18.342 33.0614L11.0969 37.2751V37.2644ZM37.0084 32.7111L29.1622 37.2644V28.1472L37.0084 23.5939V32.7111Z" fill="#FD6925"/>
</g>
<defs>
<clipPath id="clip0_204_264">
<rect width="37.3223" height="37.9443" fill="white" transform="translate(0.86731 0.95459)"/>
</clipPath>
</defs>
</svg>
