<svg width="42" height="42" viewBox="0 0 42 42" fill="none" xmlns="http://www.w3.org/2000/svg">
<g id="UNSDG_G4_School 1" clip-path="url(#clip0_204_189)">
<path id="Vector" d="M38.3102 21.5879L30.544 12.0941C30.4973 12.0505 30.4419 12.0174 30.3815 11.9967C30.3211 11.9761 30.257 11.9685 30.1934 11.9743H24.7109L34.0593 22.0156C34.1382 22.1078 34.207 22.2081 34.2646 22.3149H37.9595C38.0452 22.3153 38.1292 22.2914 38.2019 22.246C38.2746 22.2006 38.3329 22.1355 38.3701 22.0583C38.4055 21.9823 38.4186 21.8977 38.408 21.8145C38.3974 21.7312 38.3635 21.6527 38.3102 21.5879Z" fill="#C5192D"/>
<path id="Vector_2" d="M10.8636 11.9741C10.7967 11.9737 10.7307 11.988 10.67 12.0161C10.6094 12.0442 10.5558 12.0854 10.5129 12.1366L2.74674 21.5877C2.6934 21.6525 2.65948 21.731 2.64888 21.8143C2.63829 21.8975 2.65146 21.9821 2.68687 22.0581C2.72406 22.1353 2.78236 22.2004 2.85502 22.2458C2.92769 22.2912 3.01173 22.3151 3.09742 22.3147H6.79232C6.84994 22.208 6.91875 22.1076 6.9976 22.0154L16.346 11.9741H10.8636Z" fill="#C5192D"/>
<path id="Vector_3" d="M40.5511 38.557H35.9838V23.1616H34.3758C34.3604 23.2619 34.3316 23.3597 34.2903 23.4524C34.1802 23.6833 34.0068 23.8782 33.7903 24.0145C33.5738 24.1507 33.323 24.2228 33.0672 24.2221H30.9204C30.7346 24.2224 30.5507 24.1846 30.38 24.1111C30.2094 24.0375 30.0556 23.9298 29.9282 23.7945L20.5285 13.6848L11.1201 23.803C10.9934 23.9391 10.8398 24.0474 10.669 24.121C10.4982 24.1947 10.314 24.232 10.128 24.2307H7.98974C7.73392 24.2313 7.48317 24.1593 7.26666 24.023C7.05015 23.8868 6.87676 23.6918 6.76666 23.4609C6.72531 23.3682 6.69654 23.2704 6.68113 23.1701H5.07316V38.5656H0.505849C0.3727 38.5678 0.245621 38.6216 0.151458 38.7158C0.0572947 38.81 0.00342196 38.937 0.00122071 39.0702V40.5413C0.00120201 40.6759 0.0540935 40.8052 0.148492 40.9012C0.24289 40.9972 0.371233 41.0522 0.505849 41.0545H40.5511C40.6857 41.0522 40.8141 40.9972 40.9085 40.9012C41.0028 40.8052 41.0557 40.6759 41.0557 40.5413V39.0616C41.0535 38.9285 40.9996 38.8014 40.9055 38.7072C40.8113 38.6131 40.6842 38.5592 40.5511 38.557ZM10.1708 36.4957C10.1708 36.7452 10.0716 36.9846 9.8952 37.161C9.71876 37.3374 9.47945 37.4366 9.22993 37.4366H8.37463C8.12579 37.4343 7.88779 37.3345 7.71183 37.1585C7.53587 36.9826 7.43603 36.7446 7.4338 36.4957V35.6404C7.4338 35.3909 7.53292 35.1516 7.70936 34.9751C7.8858 34.7987 8.1251 34.6996 8.37463 34.6996H9.22993C9.47945 34.6996 9.71876 34.7987 9.8952 34.9751C10.0716 35.1516 10.1708 35.3909 10.1708 35.6404V36.4957ZM10.1708 32.6212C10.1708 32.8707 10.0716 33.11 9.8952 33.2865C9.71876 33.4629 9.47945 33.562 9.22993 33.562H8.37463C8.12579 33.5598 7.88779 33.46 7.71183 33.284C7.53587 33.108 7.43603 32.87 7.4338 32.6212V31.7659C7.42923 31.6409 7.44962 31.5163 7.49379 31.3993C7.53795 31.2823 7.60499 31.1753 7.691 31.0845C7.77701 30.9937 7.88025 30.921 7.9947 30.8706C8.10914 30.8201 8.23248 30.793 8.35752 30.7909H9.21282C9.46235 30.7909 9.70165 30.89 9.87809 31.0664C10.0545 31.2429 10.1537 31.4822 10.1537 31.7317L10.1708 32.6212ZM10.1708 28.6954C10.1708 28.9449 10.0716 29.1842 9.8952 29.3606C9.71876 29.5371 9.47945 29.6362 9.22993 29.6362H8.37463C8.1251 29.6362 7.8858 29.5371 7.70936 29.3606C7.53292 29.1842 7.4338 28.9449 7.4338 28.6954V27.8401C7.43603 27.5912 7.53587 27.3532 7.71183 27.1773C7.88779 27.0013 8.12579 26.9015 8.37463 26.8992H9.22993C9.47945 26.8992 9.71876 26.9984 9.8952 27.1748C10.0716 27.3512 10.1708 27.5905 10.1708 27.8401V28.6954ZM20.5285 21.6391C21.0715 21.6391 21.6023 21.8001 22.0538 22.1018C22.5053 22.4035 22.8572 22.8323 23.065 23.334C23.2728 23.8357 23.3272 24.3877 23.2212 24.9203C23.1153 25.4528 22.8538 25.9421 22.4698 26.326C22.0859 26.71 21.5967 26.9715 21.0641 27.0774C20.5315 27.1833 19.9795 27.129 19.4778 26.9212C18.9761 26.7134 18.5473 26.3615 18.2457 25.91C17.944 25.4585 17.783 24.9277 17.783 24.3846C17.783 23.6565 18.0722 22.9582 18.5871 22.4433C19.102 21.9284 19.8003 21.6391 20.5285 21.6391ZM14.4558 36.4957C14.4558 36.7452 14.3567 36.9846 14.1803 37.161C14.0038 37.3374 13.7645 37.4366 13.515 37.4366H12.6597C12.4102 37.4366 12.1709 37.3374 11.9944 37.161C11.818 36.9846 11.7189 36.7452 11.7189 36.4957V35.6404C11.7189 35.3909 11.818 35.1516 11.9944 34.9751C12.1709 34.7987 12.4102 34.6996 12.6597 34.6996H13.515C13.7645 34.6996 14.0038 34.7987 14.1803 34.9751C14.3567 35.1516 14.4558 35.3909 14.4558 35.6404V36.4957ZM14.4558 32.6212C14.4558 32.8707 14.3567 33.11 14.1803 33.2865C14.0038 33.4629 13.7645 33.562 13.515 33.562H12.6597C12.4102 33.562 12.1709 33.4629 11.9944 33.2865C11.818 33.11 11.7189 32.8707 11.7189 32.6212V31.7659C11.7189 31.5164 11.818 31.2771 11.9944 31.1006C12.1709 30.9242 12.4102 30.8251 12.6597 30.8251H13.515C13.7645 30.8251 14.0038 30.9242 14.1803 31.1006C14.3567 31.2771 14.4558 31.5164 14.4558 31.7659V32.6212ZM14.4558 28.6954C14.4558 28.9449 14.3567 29.1842 14.1803 29.3606C14.0038 29.5371 13.7645 29.6362 13.515 29.6362H12.6597C12.4102 29.6362 12.1709 29.5371 11.9944 29.3606C11.818 29.1842 11.7189 28.9449 11.7189 28.6954V27.8401C11.7189 27.5905 11.818 27.3512 11.9944 27.1748C12.1709 26.9984 12.4102 26.8992 12.6597 26.8992H13.515C13.7645 26.8992 14.0038 26.9984 14.1803 27.1748C14.3567 27.3512 14.4558 27.5905 14.4558 27.8401V28.6954ZM23.6076 38.557H17.4494V32.989C17.4494 32.3652 17.6972 31.7669 18.1383 31.3258C18.5794 30.8847 19.1777 30.6369 19.8015 30.6369H21.2555C21.8793 30.6369 22.4776 30.8847 22.9186 31.3258C23.3598 31.7669 23.6076 32.3652 23.6076 32.989V38.557ZM29.3466 36.4957C29.3466 36.7452 29.2475 36.9846 29.0711 37.161C28.8946 37.3374 28.6553 37.4366 28.4058 37.4366H27.5505C27.301 37.4366 27.0617 37.3374 26.8852 37.161C26.7088 36.9846 26.6097 36.7452 26.6097 36.4957V35.6404C26.6097 35.3909 26.7088 35.1516 26.8852 34.9751C27.0617 34.7987 27.301 34.6996 27.5505 34.6996H28.4058C28.6553 34.6996 28.8946 34.7987 29.0711 34.9751C29.2475 35.1516 29.3466 35.3909 29.3466 35.6404V36.4957ZM29.3466 32.6212C29.3466 32.8707 29.2475 33.11 29.0711 33.2865C28.8946 33.4629 28.6553 33.562 28.4058 33.562H27.5505C27.301 33.562 27.0617 33.4629 26.8852 33.2865C26.7088 33.11 26.6097 32.8707 26.6097 32.6212V31.7659C26.6051 31.6402 26.6258 31.5149 26.6705 31.3973C26.7151 31.2798 26.7829 31.1724 26.8699 31.0815C26.9568 30.9906 27.061 30.918 27.1765 30.8681C27.2919 30.8182 27.4162 30.7919 27.5419 30.7909H28.3973C28.6468 30.7909 28.8861 30.89 29.0625 31.0664C29.239 31.2429 29.3381 31.4822 29.3381 31.7317L29.3466 32.6212ZM29.3466 28.6954C29.3466 28.9449 29.2475 29.1842 29.0711 29.3606C28.8946 29.5371 28.6553 29.6362 28.4058 29.6362H27.5505C27.301 29.6362 27.0617 29.5371 26.8852 29.3606C26.7088 29.1842 26.6097 28.9449 26.6097 28.6954V27.8401C26.6097 27.5905 26.7088 27.3512 26.8852 27.1748C27.0617 26.9984 27.301 26.8992 27.5505 26.8992H28.4058C28.6553 26.8992 28.8946 26.9984 29.0711 27.1748C29.2475 27.3512 29.3466 27.5905 29.3466 27.8401V28.6954ZM33.6231 36.4957C33.6209 36.7446 33.5211 36.9826 33.3451 37.1585C33.1692 37.3345 32.9311 37.4343 32.6823 37.4366H31.827C31.5775 37.4366 31.3382 37.3374 31.1617 37.161C30.9853 36.9846 30.8862 36.7452 30.8862 36.4957V35.6404C30.8862 35.3909 30.9853 35.1516 31.1617 34.9751C31.3382 34.7987 31.5775 34.6996 31.827 34.6996H32.6823C32.9318 34.6996 33.1711 34.7987 33.3476 34.9751C33.524 35.1516 33.6231 35.3909 33.6231 35.6404V36.4957ZM33.6231 32.6212C33.6209 32.87 33.5211 33.108 33.3451 33.284C33.1692 33.46 32.9311 33.5598 32.6823 33.562H31.827C31.5775 33.562 31.3382 33.4629 31.1617 33.2865C30.9853 33.11 30.8862 32.8707 30.8862 32.6212V31.7659C30.8862 31.5164 30.9853 31.2771 31.1617 31.1006C31.3382 30.9242 31.5775 30.8251 31.827 30.8251H32.6823C32.9318 30.8251 33.1711 30.9242 33.3476 31.1006C33.524 31.2771 33.6231 31.5164 33.6231 31.7659V32.6212ZM33.6231 28.6954C33.6231 28.9449 33.524 29.1842 33.3476 29.3606C33.1711 29.5371 32.9318 29.6362 32.6823 29.6362H31.827C31.5775 29.6362 31.3382 29.5371 31.1617 29.3606C30.9853 29.1842 30.8862 28.9449 30.8862 28.6954V27.8401C30.8862 27.5905 30.9853 27.3512 31.1617 27.1748C31.3382 26.9984 31.5775 26.8992 31.827 26.8992H32.6823C32.9311 26.9015 33.1692 27.0013 33.3451 27.1773C33.5211 27.3532 33.6209 27.5912 33.6231 27.8401V28.6954Z" fill="#C5192D"/>
<path id="Vector_4" d="M33.435 22.5971L21.2811 9.4853V7.6464H25.1214C25.2348 7.6464 25.3436 7.60135 25.4238 7.52114C25.504 7.44094 25.5491 7.33217 25.5491 7.21875V4.65284C25.5491 4.53942 25.504 4.43065 25.4238 4.35045C25.3436 4.27025 25.2348 4.22519 25.1214 4.22519H21.2384C21.2046 4.05856 21.1167 3.90778 20.9883 3.79638C20.8599 3.68498 20.6982 3.61922 20.5285 3.60938C20.3198 3.63459 20.1278 3.73571 19.989 3.89346C19.8502 4.05121 19.7743 4.25455 19.7758 4.46468V9.4853L7.62194 22.5971C7.55992 22.6637 7.5194 22.7475 7.50567 22.8375C7.49194 22.9275 7.50563 23.0196 7.54497 23.1017C7.58466 23.1855 7.64782 23.2559 7.72676 23.3045C7.80571 23.3531 7.89706 23.3777 7.98972 23.3754H10.1365C10.2052 23.3771 10.2735 23.3643 10.3369 23.3377C10.4003 23.3112 10.4573 23.2716 10.5043 23.2215L20.5285 12.4019L30.5526 23.2215C30.5996 23.2716 30.6566 23.3112 30.72 23.3377C30.7834 23.3643 30.8517 23.3771 30.9204 23.3754H33.0672C33.1598 23.3777 33.2512 23.3531 33.3301 23.3045C33.4091 23.2559 33.4722 23.1855 33.5119 23.1017C33.5513 23.0196 33.565 22.9275 33.5512 22.8375C33.5375 22.7475 33.497 22.6637 33.435 22.5971Z" fill="#C5192D"/>
</g>
<defs>
<clipPath id="clip0_204_189">
<rect width="41.0545" height="41.0545" fill="white" transform="translate(0.0012207)"/>
</clipPath>
</defs>
</svg>
