<svg width="33" height="44" viewBox="0 0 33 44" fill="none" xmlns="http://www.w3.org/2000/svg">
<g id="Layer_3" clip-path="url(#clip0_204_203)">
<path id="Vector" d="M32.572 0H22.3823C22.3117 0 22.2528 0.0586986 22.2528 0.129137V3.51018C22.2528 3.58062 22.3117 3.63932 22.3823 3.63932H26.4417L21.9351 8.13563C19.6642 6.35119 16.805 5.29462 13.7104 5.29462C6.34459 5.29462 0.355469 11.2701 0.355469 18.6075C0.355469 25.3696 5.43858 30.9694 11.9807 31.8147V35.7123H7.9566C7.886 35.7123 7.82716 35.771 7.82716 35.8414V39.4572C7.82716 39.5277 7.886 39.5864 7.9566 39.5864H11.9807V43.4135C11.9807 43.484 12.0396 43.5427 12.1102 43.5427H15.7342C15.8048 43.5427 15.8637 43.484 15.8637 43.4135V39.5864H19.8878C19.9584 39.5864 20.0172 39.5277 20.0172 39.4572V35.8414C20.0172 35.771 19.9584 35.7123 19.8878 35.7123H15.8637V31.756C22.194 30.7229 27.0418 25.2287 27.0418 18.6192C27.0418 15.7665 26.1358 13.125 24.6061 10.9532L29.0421 6.51555V10.2957C29.0421 10.3662 29.1009 10.4249 29.1715 10.4249H32.5602C32.6308 10.4249 32.6897 10.3662 32.6897 10.2957V0.129137C32.6897 0.0586986 32.6308 0 32.5602 0M13.6986 28.4101C8.28606 28.4101 3.87364 24.0077 3.87364 18.6075C3.87364 13.2072 8.28606 8.8048 13.6986 8.8048C19.1112 8.8048 23.5236 13.2072 23.5236 18.6075C23.5236 24.0077 19.1112 28.4101 13.6986 28.4101Z" fill="#FF3A21"/>
<path id="Vector_2" d="M19.6995 14.5808H7.79185C7.72125 14.5808 7.66241 14.6395 7.66241 14.6982V17.5744C7.66241 17.6449 7.72125 17.6918 7.79185 17.6918H19.7113C19.7819 17.6918 19.8407 17.6449 19.8407 17.5744V14.6982C19.8407 14.6395 19.7819 14.5808 19.7113 14.5808" fill="#FF3A21"/>
<path id="Vector_3" d="M19.6995 19.7227H7.79185C7.72125 19.7227 7.66241 19.7814 7.66241 19.8401V22.7163C7.66241 22.7867 7.72125 22.8337 7.79185 22.8337H19.7113C19.7819 22.8337 19.8407 22.7867 19.8407 22.7163V19.8401C19.8407 19.7696 19.7819 19.7227 19.7113 19.7227" fill="#FF3A21"/>
</g>
<defs>
<clipPath id="clip0_204_203">
<rect width="32.346" height="43.5427" fill="white" transform="translate(0.355469)"/>
</clipPath>
</defs>
</svg>
