<svg width="36" height="41" viewBox="0 0 36 41" fill="none" xmlns="http://www.w3.org/2000/svg">
<g id="Layer_4" clip-path="url(#clip0_204_357)">
<path id="Vector" d="M9.995 16.0257H17.3457V9.29712H10.6594C10.2894 11.3435 10.0539 13.592 9.995 16.0257Z" fill="#19486A"/>
<path id="Vector_2" d="M19.0867 0V7.55391H25.4113C24.7385 4.67382 23.7797 2.29902 22.6779 0.555806C21.5173 0.252639 20.323 0.0589491 19.0867 0Z" fill="#19486A"/>
<path id="Vector_3" d="M17.3457 7.55391V0C16.1093 0.0589491 14.915 0.252639 13.7628 0.555806C12.661 2.29902 11.7023 4.67382 11.0294 7.55391H17.3541H17.3457Z" fill="#19486A"/>
<path id="Vector_4" d="M27.1943 7.5538H32.5854C30.7351 4.85898 28.1531 2.71997 25.1254 1.40625C25.9748 3.15788 26.6729 5.22952 27.1943 7.5538Z" fill="#19486A"/>
<path id="Vector_5" d="M27.5308 9.29712C27.8924 11.394 28.1195 13.6509 28.1784 16.0257H35.5711C35.3777 13.6088 34.7049 11.3351 33.6283 9.29712H27.5308Z" fill="#19486A"/>
<path id="Vector_6" d="M25.773 9.29712H19.0867V16.0257H26.4374C26.3785 13.592 26.143 11.3435 25.773 9.29712Z" fill="#19486A"/>
<path id="Vector_7" d="M2.80402 9.29712C1.73589 11.3351 1.05465 13.6088 0.861206 16.0257H8.25398C8.31286 13.6509 8.53153 11.394 8.90159 9.29712H2.80402Z" fill="#19486A"/>
<path id="Vector_8" d="M9.24644 7.5538C9.75948 5.22952 10.466 3.15788 11.3154 1.40625C8.28765 2.71997 5.70564 4.86741 3.85535 7.5538H9.24644Z" fill="#19486A"/>
<path id="Vector_9" d="M30.0371 20.8848L32.7705 24.4891H34.1414C35.0581 22.4259 35.588 20.1521 35.63 17.7605H28.1952C28.1952 18.4763 28.1616 19.1753 28.1195 19.8742C28.8596 19.9332 29.5829 20.27 30.0455 20.8848H30.0371Z" fill="#19486A"/>
<path id="Vector_10" d="M12.064 21.7018C12.619 22.1229 12.9891 22.7376 13.0816 23.4366C13.9984 23.4029 15.2599 23.3608 16.2019 23.3187C16.5551 23.2766 16.9504 23.3187 17.3457 23.4366V17.7522H9.98657C9.99498 18.5943 10.037 19.4196 10.0875 20.2196C10.1632 20.2617 10.2389 20.3039 10.3062 20.3544L12.064 21.6849V21.7018Z" fill="#19486A"/>
<path id="Vector_11" d="M8.32131 19.8659C8.28767 19.1754 8.25403 18.4764 8.24562 17.769H0.810791C0.861254 20.1607 1.3827 22.4344 2.29944 24.4977H3.87219L6.60558 20.8849C7.02611 20.3291 7.63166 19.967 8.32131 19.8659Z" fill="#19486A"/>
<path id="Vector_12" d="M19.5829 23.3607C20.1464 23.3607 22.1481 23.3944 23.561 23.4112C23.6704 22.7291 24.0236 22.1227 24.5787 21.7101L26.3365 20.3795C26.3953 19.5374 26.4374 18.67 26.4458 17.7773H19.0867V23.3775C19.1624 23.3775 19.2381 23.3607 19.3222 23.3607H19.5829Z" fill="#19486A"/>
<path id="Vector_13" d="M19.5325 29.3734C19.4399 29.3313 19.2801 29.4661 19.2801 29.4661L18.6241 29.9545C17.2869 30.8556 16.0842 30.8472 16.0842 30.8472C16.0842 30.8472 15.1674 30.9061 14.7049 30.3756C14.2423 29.845 14.688 29.2555 14.8647 29.0197C15.0413 28.7839 17.4551 26.1649 17.4551 26.1649C17.4551 26.1649 17.1102 25.7607 16.9084 25.567C16.715 25.3733 16.3954 25.4491 16.3954 25.4491C16.3954 25.4491 11.9378 25.6175 11.778 25.6091C11.6182 25.6091 11.4416 25.5417 11.4416 25.5417L10.2221 25.0196L10.8865 24.1354C11.0631 23.908 11.0127 23.5712 10.7856 23.4027L9.02782 22.0722C8.80073 21.8953 8.46432 21.9458 8.29611 22.1732L2.64429 29.6429C2.46767 29.8703 2.51814 30.2071 2.74522 30.3756L4.503 31.7061C4.73008 31.883 5.0665 31.8325 5.23471 31.6051L5.98324 30.6198L18.4475 40.2622C18.7671 40.5064 19.2297 40.439 19.4652 40.119L19.524 40.0432C19.7679 39.7232 19.7007 39.26 19.3811 39.0242L15.1506 35.8073L15.7478 35.1168L20.6847 38.8727C21.0043 39.1169 21.4669 39.0495 21.7108 38.7295L21.7696 38.6537C22.0135 38.3337 21.9463 37.8705 21.6267 37.6347L17.5812 34.561L18.0943 33.9546L23.0228 37.7021C23.3424 37.9463 23.805 37.8789 24.0405 37.5589L24.0993 37.4831C24.3432 37.1631 24.2759 36.7 23.9563 36.4642L19.995 33.4578L20.466 32.902L25.1674 36.4473C25.63 36.7926 26.286 36.7 26.6393 36.2368L26.7234 36.1189C27.0682 35.6557 26.9757 34.9989 26.5131 34.6452C26.5131 34.6452 19.6081 29.4408 19.5156 29.3987L19.5325 29.3734Z" fill="#19486A"/>
<path id="Vector_14" d="M28.3381 22.1649C28.2372 22.0301 28.0774 21.9543 27.9176 21.9543C27.8083 21.9543 27.6989 21.988 27.598 22.0638L25.8402 23.3944C25.6131 23.5712 25.5627 23.8997 25.7393 24.127L26.3196 24.8934L25.5795 25.3481C25.5795 25.3481 25.3608 25.5166 24.9823 25.5334C24.9487 25.5334 24.8646 25.5334 24.7553 25.5334C23.6619 25.5334 19.3978 25.4745 19.3978 25.4745C19.3978 25.4745 19.3642 25.4745 19.3221 25.4745C19.2128 25.4745 19.0109 25.5081 18.8595 25.7187L15.5879 29.2556C15.5879 29.2556 14.9992 29.8788 15.4617 30.0725C15.5795 30.123 15.7309 30.1399 15.8907 30.1399C16.3616 30.1399 16.9251 29.9798 17.0177 29.963C17.1354 29.9377 18.1278 29.483 18.5568 29.1125C18.9857 28.7419 19.4651 28.4051 19.4651 28.4051L26.4205 33.6094L30.2221 30.0556L31.3995 31.6136C31.5004 31.7483 31.6602 31.8241 31.82 31.8241C31.9294 31.8241 32.0387 31.7904 32.1396 31.7146L33.8974 30.3841C34.1245 30.2072 34.175 29.8788 33.9983 29.6514L28.3465 22.1817L28.3381 22.1649Z" fill="#19486A"/>
</g>
<defs>
<clipPath id="clip0_204_357">
<rect width="34.8108" height="40.4054" fill="white" transform="translate(0.810791)"/>
</clipPath>
</defs>
</svg>
