<svg width="40" height="40" viewBox="0 0 40 40" fill="none" xmlns="http://www.w3.org/2000/svg">
<g id="Layer_4" clip-path="url(#clip0_204_381)">
<path id="Vector" d="M27.4998 6.56122C25.884 4.16194 23.5908 2.26047 20.8977 1.13428C21.6485 2.66851 22.2769 4.49653 22.7257 6.56122H27.4998Z" fill="#00689D"/>
<path id="Vector_2" d="M14.5486 6.56129V0C13.3898 0.0489649 12.2636 0.228503 11.1782 0.530453C10.2397 2.08101 9.44812 4.15385 8.89319 6.56129H14.5405H14.5486Z" fill="#00689D"/>
<path id="Vector_3" d="M19.1513 0.530453C18.0741 0.228503 16.9479 0.0489649 15.7809 0V6.56129H21.4282C20.8732 4.15385 20.0898 2.08101 19.1431 0.530453H19.1513Z" fill="#00689D"/>
<path id="Vector_4" d="M6.79586 15.0078H0.324341C0.348823 17.1378 0.82215 19.1617 1.65455 20.9815H7.28551C6.98356 19.1209 6.81218 17.1133 6.79586 15.0078Z" fill="#00689D"/>
<path id="Vector_5" d="M7.36709 7.80176H2.08704C1.11591 9.59714 0.512007 11.621 0.365112 13.7755H6.80399C6.8448 11.6618 7.04882 9.65426 7.37525 7.80176H7.36709Z" fill="#00689D"/>
<path id="Vector_6" d="M7.51406 22.2219H2.29114C3.95594 25.119 6.5674 27.3959 9.70115 28.6363C8.77082 26.8981 8.02003 24.7191 7.51406 22.2219Z" fill="#00689D"/>
<path id="Vector_7" d="M9.43999 1.12622C6.73876 2.25241 4.44557 4.15388 2.83789 6.55316H7.61196C8.06081 4.48847 8.68919 2.65229 9.43999 1.12622Z" fill="#00689D"/>
<path id="Vector_8" d="M23.7786 14.1181C23.7786 14.1181 23.7214 14.0854 23.6888 14.0854C23.6725 14.0854 23.6643 14.0854 23.648 14.0854C23.599 14.1018 22.4728 14.4935 21.2895 15.7339C20.4326 16.6316 19.4289 18.1332 18.9392 20.4509C19.3064 20.6631 19.6574 20.8508 19.9838 21.0058C21.8118 21.8709 23.6643 23.7152 24.7415 24.9148C25.0109 24.3681 25.3862 23.7805 25.8514 23.2256C25.778 22.9807 25.6882 22.7277 25.5739 22.4829C25.4026 22.132 25.1741 21.7893 24.9374 21.422C23.9908 19.9694 22.8156 18.1577 23.8031 14.2405C23.8112 14.1915 23.8031 14.1507 23.7622 14.1181H23.7786Z" fill="#00689D"/>
<path id="Vector_9" d="M30.0134 15.0078H24.6191C23.9662 18.1416 24.8966 19.6187 25.7371 20.9081C25.7535 20.9326 25.7698 20.957 25.7861 20.9815H28.6832C29.5156 19.1535 29.9889 17.1378 30.0134 15.0078Z" fill="#00689D"/>
<path id="Vector_10" d="M23.5174 13.1634C23.8356 13.1144 24.1784 13.2042 24.415 13.4246C24.5211 13.5225 24.5946 13.6449 24.6599 13.7755H29.9807C29.8257 11.6292 29.2218 9.59714 28.2506 7.80176H22.9706C23.2725 9.47472 23.4521 11.2783 23.5174 13.1634Z" fill="#00689D"/>
<path id="Vector_11" d="M22.3014 13.7755C22.3014 13.7755 22.3014 13.7347 22.3014 13.7102C22.2524 11.6292 22.0402 9.63794 21.6975 7.80176H15.7891V13.7755H22.3014Z" fill="#00689D"/>
<path id="Vector_12" d="M14.5486 15.0078H13.1287C13.5204 15.5791 14.0019 16.1503 14.5486 16.7053V15.0078Z" fill="#00689D"/>
<path id="Vector_13" d="M8.0282 15.0078C8.04452 17.1051 8.23222 19.1209 8.55865 20.9815H9.67668C9.6522 20.6959 9.62772 20.4103 9.6114 20.1491C9.50531 18.0273 9.76645 16.1666 10.0031 15.0078H8.0282Z" fill="#00689D"/>
<path id="Vector_14" d="M12.1086 29.3463C12.4677 29.2892 12.8104 29.2321 13.145 29.1994C11.1374 26.9878 10.2234 24.4335 9.83987 22.2219H8.79529C9.40735 25.1027 10.354 27.5346 11.4965 29.2239C11.7005 29.2729 11.9127 29.3055 12.1167 29.3463H12.1086Z" fill="#00689D"/>
<path id="Vector_15" d="M37.8233 21.6832C37.6274 21.7077 37.3989 21.8137 37.2194 21.9035C37.3418 21.724 37.4642 21.5363 37.603 21.3567C37.7988 21.3159 38.4843 21.1609 38.8597 20.8834C39.3249 20.5407 39.4963 19.1941 39.4391 19.0717C39.4147 19.0228 39.3657 18.9983 39.3086 19.0064C39.2759 19.0064 38.4109 19.1696 37.9131 19.6103C37.4397 20.0347 37.3826 20.9079 37.3908 21.2098C37.301 21.3078 37.1133 21.4955 36.8848 21.7648C36.9093 21.5526 36.9175 21.2425 36.8603 21.014C36.7542 20.6304 35.9055 20.1897 35.8157 20.1897C35.7749 20.1897 35.7505 20.2224 35.7423 20.255C35.7423 20.2795 35.628 20.8834 35.7994 21.3159C35.9545 21.6995 36.4441 21.9443 36.6726 22.0259C36.4115 22.3442 36.1177 22.7441 35.8321 23.2174C35.8484 23.0134 35.8565 22.7849 35.8157 22.6053C35.7178 22.1728 34.8283 21.6342 34.6977 21.6179C34.6569 21.6179 34.6161 21.6505 34.6079 21.6913C34.6079 21.7158 34.4447 22.385 34.6079 22.8828C34.7548 23.3235 35.2771 23.6173 35.5301 23.7315C35.424 23.9192 35.3098 24.1559 35.2037 24.4089C35.3343 24.5803 35.4975 24.7516 35.6607 24.8985C35.7668 24.6211 35.881 24.3436 36.0034 24.0661C36.183 24.2293 36.5665 24.4987 36.9583 24.5395C37.0235 24.5395 37.0888 24.5476 37.1623 24.5395C37.6764 24.4823 38.215 24.0498 38.2395 24.0335C38.2721 24.009 38.2803 23.96 38.264 23.9274C38.2232 23.8295 37.3337 23.2337 36.893 23.3235C36.6645 23.3725 36.4033 23.5194 36.2075 23.6499C36.4196 23.2256 36.6808 22.7686 36.9827 22.2871C37.146 22.4503 37.4969 22.7522 37.8641 22.793C37.9049 22.793 37.9376 22.793 37.9784 22.793C38.4435 22.7767 38.9495 22.434 38.9658 22.4176C38.9985 22.3932 39.0066 22.3605 38.9985 22.3197C38.9658 22.2299 38.2232 21.6342 37.8233 21.6913V21.6832Z" fill="#00689D"/>
<path id="Vector_16" d="M34.0938 28.1956C34.0938 28.1956 34.0937 28.2364 34.1019 28.2527C34.1019 28.269 34.1835 28.4323 34.3549 28.4812C34.3794 28.4812 34.3957 28.4894 34.4202 28.4975C34.5344 28.5139 34.665 28.4731 34.8037 28.3751C34.8364 28.3506 34.8527 28.3098 34.8527 28.269C34.8527 28.269 34.8772 28.0079 34.9425 27.5999C34.6568 27.6896 34.3875 27.7876 34.1427 27.8936C34.1264 27.9916 34.1101 28.0977 34.1019 28.1956H34.0938Z" fill="#00689D"/>
<path id="Vector_17" d="M20.6039 15.0813C20.6039 15.0813 20.6529 15.0323 20.6774 15.0078H15.7891V17.8478C16.5643 18.5088 17.3804 19.1045 18.172 19.6187C18.7678 17.3744 19.796 15.9137 20.6039 15.0731V15.0813Z" fill="#00689D"/>
<path id="Vector_18" d="M14.5487 7.80176H8.64026C8.28934 9.65426 8.07716 11.67 8.0282 13.7755H10.2969C10.4438 13.3185 10.86 13.0084 11.3333 12.992H11.366C11.823 12.992 12.2473 13.2777 12.4106 13.7102C12.4187 13.7347 12.435 13.751 12.4432 13.7755H14.5405V7.80176H14.5487Z" fill="#00689D"/>
<path id="Vector_19" d="M33.9877 24.205C33.498 22.5483 32.2902 21.7078 30.3887 21.7078C30.201 21.7078 30.0052 21.7159 29.8012 21.7323C27.1081 21.9526 25.3127 24.8089 24.9863 26.2452C24.3253 25.4373 21.9668 22.7034 19.6981 21.6262C17.0866 20.3939 12.6798 17.1377 11.4965 14.0611C11.4801 14.0121 11.4312 13.9795 11.3741 13.9795C11.3169 13.9795 11.268 14.0203 11.2598 14.0693C11.2516 14.0937 10.4356 16.7705 10.6069 20.1001C10.762 23.087 11.7658 27.2 15.6095 30.0971C15.4708 30.0971 15.2994 30.0889 15.1035 30.0889C13.3816 30.0889 9.65213 30.3746 6.81217 32.6188C6.78768 32.6351 6.77136 32.6677 6.7632 32.6922C6.7632 32.733 6.00425 36.5523 8.83605 39.1393C8.86053 39.1556 8.88501 39.1719 8.90949 39.1719C8.90949 39.1719 8.90949 39.1719 8.91765 39.1719C8.9503 39.1719 8.98294 39.1638 9.00742 39.1393C9.04007 39.1148 11.9208 36.3809 13.9529 36.1606C14.3201 36.3646 17.307 37.9641 21.0365 37.9641C22.0321 37.9641 23.0848 37.8499 24.1539 37.5642C28.3485 36.438 28.9932 33.949 29.4258 32.3005C29.5482 31.819 29.6624 31.4028 29.8257 31.0927C29.8746 31.0029 29.9317 30.8724 29.997 30.7336C30.4459 29.7135 31.4905 27.3306 35.6198 26.3839C35.6688 26.3758 35.7096 26.335 35.7178 26.2778C35.7259 26.2289 35.7014 26.1717 35.6606 26.1473C35.6443 26.1391 34.3059 25.2741 33.9877 24.2131V24.205Z" fill="#00689D"/>
</g>
<defs>
<clipPath id="clip0_204_381">
<rect width="39.1311" height="39.1637" fill="white" transform="translate(0.324341)"/>
</clipPath>
</defs>
</svg>
