<svg width="45" height="45" viewBox="0 0 45 45" fill="none" xmlns="http://www.w3.org/2000/svg">
<g id="Layer_1" clip-path="url(#clip0_204_428)">
<path id="Vector" d="M11.5601 16.0803C12.1179 15.1306 12.8003 14.258 13.5777 13.4863L6.96688 6.23267C5.30527 7.82349 3.88697 9.66955 2.76538 11.6996L11.5601 16.0803Z" fill="#00BD00"/>
<path id="Vector_2" d="M27.7726 10.9576C28.7755 11.4146 29.7072 12.0023 30.544 12.6968L37.1786 5.455C35.4339 3.94729 33.4518 2.70668 31.3036 1.78662L27.7786 10.9576H27.7726Z" fill="#F3AE00"/>
<path id="Vector_3" d="M42.9586 13.1361L34.1699 17.5168C34.5912 18.4962 34.8879 19.535 35.0481 20.6212L44.8279 19.6952C44.5371 17.3802 43.8962 15.1721 42.9586 13.1301" fill="#E60015"/>
<path id="Vector_4" d="M33.5408 16.2464L42.3296 11.8657C41.2436 9.84159 39.855 8.00146 38.223 6.41064L31.5884 13.6524C32.3421 14.43 33.0008 15.2967 33.5408 16.2464Z" fill="#00A01F"/>
<path id="Vector_5" d="M9.81538 22.4969C9.81538 22.301 9.82131 22.0992 9.83318 21.9033L0.0474746 21.0308C0.017803 21.5175 0 22.0042 0 22.4969C0 24.3727 0.231439 26.195 0.664645 27.9401L10.1121 25.2274C9.91626 24.3489 9.81538 23.4348 9.81538 22.4969Z" fill="#008232"/>
<path id="Vector_6" d="M32.3065 30.5342C31.6122 31.383 30.811 32.1369 29.9209 32.7779L35.0838 41.1416C37.0005 39.8417 38.7037 38.2568 40.1398 36.4463L32.3065 30.5401V30.5342Z" fill="#FFBA00"/>
<path id="Vector_7" d="M35.1846 22.4971C35.1846 23.4231 35.0838 24.3253 34.8939 25.1979L44.3354 27.9106C44.7686 26.1773 44.9941 24.3609 44.9941 22.4971C44.9941 22.0341 44.9763 21.5711 44.9525 21.114L35.1728 22.04C35.1728 22.1943 35.1787 22.3427 35.1787 22.4971" fill="#FF0000"/>
<path id="Vector_8" d="M12.8478 30.7241L5.03229 36.666C6.4862 38.4586 8.20715 40.0138 10.1358 41.29L15.2987 32.9382C14.3907 32.309 13.5658 31.5611 12.8478 30.7241Z" fill="#FF8E00"/>
<path id="Vector_9" d="M9.96968 20.4907C10.1477 19.3866 10.4622 18.33 10.9073 17.3387L2.11856 12.958C1.14533 15.0237 0.48069 17.2615 0.17804 19.6121L9.96375 20.4907H9.96968Z" fill="#0094DA"/>
<path id="Vector_10" d="M33.885 41.9014L28.7281 33.5496C27.7904 34.0779 26.7816 34.4934 25.7194 34.7724L27.5412 44.43C29.8022 43.9077 31.9385 43.047 33.885 41.8954" fill="#BD0040"/>
<path id="Vector_11" d="M34.52 26.5632C34.1758 27.5664 33.7129 28.5161 33.1492 29.3887L40.9884 35.3068C42.2643 33.4785 43.2672 31.4485 43.9556 29.2759L34.52 26.5632Z" fill="#00BDE5"/>
<path id="Vector_12" d="M24.3307 35.0513C23.7314 35.1404 23.1201 35.1819 22.503 35.1819C22.0045 35.1819 21.5119 35.1523 21.0253 35.0929L19.2035 44.7506C20.2776 44.9109 21.3814 44.994 22.497 44.994C23.7373 44.994 24.9598 44.8931 26.1467 44.6972L24.3307 35.0454V35.0513Z" fill="#FF5000"/>
<path id="Vector_13" d="M23.3101 9.82976C24.402 9.90099 25.4524 10.1087 26.4493 10.4352L29.9743 1.26427C27.8795 0.528218 25.6422 0.0889619 23.3101 0.00585938V9.82976Z" fill="#FF0024"/>
<path id="Vector_14" d="M19.6248 34.8555C18.527 34.6002 17.4825 34.1966 16.5093 33.6802L11.3405 42.0379C13.3285 43.1776 15.5005 44.0146 17.803 44.5072L19.6189 34.8555H19.6248Z" fill="#FF0066"/>
<path id="Vector_15" d="M18.6872 10.3937C19.7079 10.0732 20.782 9.87733 21.8917 9.8239V0C19.5298 0.0593589 17.2629 0.492679 15.1325 1.22873L18.6812 10.3937H18.6872Z" fill="#004B71"/>
<path id="Vector_16" d="M11.9874 29.5963C11.3643 28.6763 10.8539 27.6672 10.4919 26.5928L1.05634 29.3055C1.76845 31.5552 2.8307 33.6565 4.17186 35.5382L11.9874 29.5963Z" fill="#D58E00"/>
<path id="Vector_17" d="M14.64 12.5426C15.4708 11.8837 16.3847 11.3317 17.3579 10.8983L13.8092 1.73926C11.6965 2.62964 9.75008 3.82869 8.02319 5.28299L14.64 12.5426Z" fill="#006AA0"/>
</g>
<defs>
<clipPath id="clip0_204_428">
<rect width="45" height="45" fill="white"/>
</clipPath>
</defs>
</svg>
