<?xml version="1.0" encoding="UTF-8"?><svg id="Layer_1" xmlns="http://www.w3.org/2000/svg" viewBox="0 0 219.36 56.57"><defs><style>.cls-1{fill:#f3ae00;}.cls-1,.cls-2,.cls-3,.cls-4,.cls-5,.cls-6,.cls-7,.cls-8,.cls-9,.cls-10,.cls-11,.cls-12,.cls-13,.cls-14,.cls-15,.cls-16,.cls-17,.cls-18{stroke-width:0px;}.cls-2{fill:#414042;}.cls-3{fill:#d58e00;}.cls-4{fill:#bd0040;}.cls-5{fill:#00a01f;}.cls-6{fill:#ff8e00;}.cls-7{fill:#e60015;}.cls-8{fill:#ff5000;}.cls-9{fill:#f06;}.cls-10{fill:#ff0024;}.cls-11{fill:red;}.cls-12{fill:#ffba00;}.cls-13{fill:#00bd00;}.cls-14{fill:#00bde5;}.cls-15{fill:#004b71;}.cls-16{fill:#006aa0;}.cls-17{fill:#008232;}.cls-18{fill:#0094da;}</style></defs><path class="cls-13" d="m17.61,18.73c.46-.78,1.01-1.49,1.65-2.13l-5.42-5.94c-1.36,1.3-2.53,2.81-3.44,4.48l7.21,3.59Z"/><path class="cls-1" d="m30.9,14.54c.82.38,1.58.86,2.27,1.42l5.43-5.93c-1.43-1.23-3.05-2.25-4.82-3l-2.89,7.51Z"/><path class="cls-7" d="m43.34,16.32l-7.2,3.59c.34.8.59,1.65.72,2.54l8.01-.76c-.24-1.9-.76-3.7-1.53-5.38"/><path class="cls-5" d="m35.62,18.87l7.2-3.59c-.89-1.66-2.03-3.16-3.36-4.47l-5.43,5.93c.62.64,1.16,1.35,1.6,2.13"/><path class="cls-17" d="m16.18,23.99c0-.16,0-.32.01-.48l-8.01-.72c-.02.4-.04.8-.04,1.2,0,1.54.19,3.03.55,4.46l7.74-2.22c-.16-.72-.24-1.47-.24-2.24"/><path class="cls-12" d="m34.61,30.58c-.57.69-1.23,1.31-1.95,1.84l4.23,6.85c1.57-1.06,2.97-2.36,4.14-3.85l-6.42-4.84Z"/><path class="cls-11" d="m36.97,23.99c0,.76-.08,1.5-.24,2.21l7.74,2.22c.35-1.42.54-2.91.54-4.43,0-.38-.01-.76-.04-1.13l-8.01.76c0,.13,0,.25,0,.37"/><path class="cls-6" d="m18.67,30.73l-6.4,4.87c1.19,1.47,2.6,2.74,4.18,3.79l4.23-6.84c-.75-.52-1.42-1.13-2.01-1.81"/><path class="cls-18" d="m16.31,22.35c.14-.9.41-1.77.77-2.58l-7.2-3.59c-.8,1.69-1.34,3.53-1.59,5.45l8.02.72Z"/><path class="cls-4" d="m35.91,39.88l-4.22-6.84c-.77.43-1.59.77-2.47,1l1.49,7.91c1.85-.43,3.6-1.13,5.2-2.07"/><path class="cls-14" d="m36.43,27.32c-.28.82-.66,1.6-1.12,2.32l6.43,4.85c1.04-1.5,1.87-3.16,2.43-4.94l-7.73-2.22Z"/><path class="cls-8" d="m28.08,34.28c-.49.07-.99.11-1.5.11-.41,0-.81-.03-1.21-.07l-1.49,7.91c.88.13,1.78.2,2.7.2,1.02,0,2.02-.08,2.99-.24l-1.49-7.91Z"/><path class="cls-10" d="m27.24,13.62c.89.06,1.76.23,2.57.5l2.89-7.51c-1.72-.61-3.55-.97-5.46-1.03v8.05Z"/><path class="cls-9" d="m24.22,34.12c-.9-.21-1.76-.54-2.55-.96l-4.23,6.85c1.63.93,3.41,1.62,5.3,2.02l1.49-7.91Z"/><path class="cls-15" d="m23.45,14.08c.83-.26,1.71-.42,2.63-.47V5.56c-1.93.05-3.79.4-5.54,1.01l2.91,7.51Z"/><path class="cls-3" d="m17.97,29.8c-.51-.75-.93-1.58-1.23-2.46l-7.73,2.22c.59,1.84,1.45,3.56,2.55,5.11l6.41-4.87Z"/><path class="cls-16" d="m20.14,15.84c.68-.54,1.43-.99,2.23-1.35l-2.91-7.5c-1.73.73-3.33,1.71-4.74,2.9l5.42,5.95Z"/><path class="cls-2" d="m153.17,48.33l.87-4.99h-.89l.13-.76h.88l.1-.68c.09-.58.31-1.03.67-1.35.37-.34.85-.51,1.42-.5.18,0,.41.03.69.09l-.12.81c-.17-.04-.34-.06-.52-.06-.33,0-.6.1-.81.31-.21.21-.34.48-.38.82l-.09.57h1.19l-.13.76h-1.19l-.87,4.99h-.96Z"/><path class="cls-2" d="m159.56,42.48c.48,0,.89.14,1.24.39.34.25.6.61.76,1.05s.22.94.17,1.47v.12c-.08.56-.24,1.06-.51,1.52-.27.45-.61.8-1.03,1.05-.42.25-.88.37-1.39.36-.48,0-.89-.14-1.23-.39s-.6-.6-.76-1.04c-.16-.44-.22-.92-.17-1.45.05-.59.21-1.13.48-1.6.27-.47.62-.84,1.04-1.1.42-.26.89-.38,1.4-.37Zm-1.95,3.08c-.02.22-.02.45,0,.7.04.42.16.75.37,1,.21.25.5.38.86.39.32.01.61-.07.88-.24.27-.17.5-.42.68-.76s.3-.72.36-1.13c.03-.33.03-.6.02-.82-.04-.43-.17-.77-.39-1.01-.21-.25-.5-.38-.86-.39-.5-.01-.92.18-1.26.58-.35.4-.56.92-.64,1.57v.12Z"/><path class="cls-2" d="m165.95,43.46l-.45-.05c-.62,0-1.1.28-1.46.83l-.71,4.08h-.96l1-5.75h.93s-.14.66-.14.66c.41-.53.89-.79,1.44-.78.12,0,.27.03.46.08l-.11.91Z"/><path class="cls-2" d="m171.09,41.2l-.24,1.39h1.05l-.13.76h-1.04l-.6,3.57c-.01.09-.01.18,0,.25.02.28.17.41.45.41.12,0,.27-.02.47-.05l-.07.8c-.23.06-.46.1-.7.1-.38,0-.67-.15-.86-.42s-.27-.64-.22-1.11l.58-3.56h-1.01l.13-.76h1.01l.25-1.39h.96Z"/><path class="cls-2" d="m173.8,43.29c.5-.55,1.08-.82,1.74-.8.54,0,.94.19,1.2.56s.36.87.29,1.53l-.63,3.76h-.96l.63-3.78c.02-.17.02-.33,0-.48-.06-.5-.35-.75-.88-.76-.59-.01-1.09.29-1.52.92l-.71,4.1h-.96l1.42-8.16h.96l-.58,3.11Z"/><path class="cls-2" d="m180.29,48.44c-.71-.01-1.28-.28-1.68-.79-.4-.51-.57-1.17-.51-1.97l.03-.23c.06-.57.23-1.09.51-1.56.28-.47.62-.83,1.02-1.06s.83-.35,1.3-.34c.59.01,1.05.21,1.39.59.34.38.52.89.55,1.54,0,.23,0,.46-.02.69l-.06.44h-3.75c-.06.52.02.96.26,1.33s.59.55,1.05.57c.57.01,1.09-.24,1.57-.76l.55.47c-.24.35-.55.62-.93.81-.38.2-.8.29-1.27.28Zm.61-5.16c-.4-.01-.74.12-1.04.4-.3.28-.53.7-.7,1.25h2.79s.02-.08.02-.08c.06-.45-.01-.82-.21-1.11-.2-.3-.49-.45-.86-.46Z"/><path class="cls-2" d="m190.5,46.34c.08-.57-.22-.98-.88-1.24l-.92-.33-.31-.13c-1.03-.47-1.52-1.13-1.45-1.99.04-.43.18-.81.44-1.14.26-.33.6-.58,1.03-.76.43-.18.88-.26,1.36-.25.47.01.88.11,1.25.31s.65.48.84.83c.19.36.28.76.25,1.2h-1c.04-.48-.07-.85-.32-1.11s-.6-.4-1.06-.4c-.49,0-.89.11-1.22.34-.33.23-.51.55-.56.96-.07.53.25.93.97,1.2l.79.28.4.17c1,.46,1.46,1.14,1.39,2.05-.04.44-.19.81-.44,1.13-.25.32-.6.56-1.04.74-.44.17-.91.25-1.41.24-.49,0-.93-.11-1.33-.31-.4-.2-.71-.48-.92-.84s-.3-.76-.28-1.21h1c-.03.47.09.83.37,1.1.28.27.68.41,1.19.42.51,0,.94-.1,1.27-.33.33-.23.53-.54.58-.93Z"/><path class="cls-2" d="m192.41,48.33l1.34-7.73h2.01c.63,0,1.17.16,1.63.48s.78.75.98,1.3c.2.55.26,1.17.17,1.86l-.05.39c-.16,1.13-.59,2.02-1.31,2.69-.72.67-1.62,1.01-2.71,1.01h-2.06Zm2.19-6.9l-1.05,6.06h.98c.75,0,1.39-.23,1.91-.7.52-.47.86-1.11,1.02-1.92.12-.65.17-1.21.13-1.66-.05-.55-.24-.98-.55-1.29-.31-.31-.73-.47-1.25-.49h-1.18Z"/><path class="cls-2" d="m205.11,47.31c-.26.36-.63.65-1.13.84-.49.2-1.06.29-1.69.28-.51-.01-.95-.13-1.33-.36s-.68-.55-.89-.97c-.22-.42-.34-.9-.37-1.44-.03-.42.03-.99.16-1.71.13-.72.35-1.34.68-1.86s.72-.92,1.21-1.2c.48-.28,1.04-.41,1.66-.4.72.01,1.29.23,1.72.64.43.41.67.99.73,1.74h-.99c-.04-.49-.19-.87-.44-1.13s-.61-.4-1.06-.42c-.67-.02-1.22.21-1.67.72-.45.5-.74,1.24-.88,2.21l-.1.74-.02.4c0,.7.14,1.24.43,1.62.29.38.69.58,1.21.58.75.02,1.34-.17,1.78-.55l.32-1.74h-1.74l.15-.83h2.72l-.44,2.83Z"/><path class="cls-2" d="m209.92,46.78c.05-.4-.16-.68-.65-.84l-1-.29c-.84-.29-1.25-.77-1.22-1.44.03-.51.26-.92.69-1.25s.95-.48,1.54-.48c.58,0,1.05.18,1.41.51.36.33.54.76.52,1.29h-.96c0-.29-.08-.53-.27-.71-.19-.18-.44-.27-.75-.28-.33,0-.62.07-.86.24-.22.16-.35.37-.39.63-.05.33.16.58.61.73l.48.13c.66.17,1.12.39,1.4.66.28.27.4.61.38,1.01-.02.36-.14.67-.35.93-.21.27-.5.47-.85.61-.35.14-.73.2-1.13.19-.61,0-1.11-.18-1.51-.53s-.59-.8-.57-1.35h.96c0,.33.1.59.31.78.21.19.49.29.84.29.35,0,.65-.07.91-.22.25-.15.4-.37.44-.63Z"/><path class="cls-2" d="m53.2,29.41v-15.47h3.19v15.7c0,1.45.61,1.97,1.62,1.97s1.62-.52,1.62-1.97v-15.7h3.07v15.47c0,3.24-1.62,5.1-4.75,5.1s-4.75-1.85-4.75-5.1Z"/><path class="cls-2" d="m64.96,13.94h3.94l3.21,12.14v-12.14h2.84v20.28h-3.21l-3.94-14.8v14.8h-2.84V13.94Z"/><path class="cls-2" d="m82.26,13.94h4.52c3.1,0,4.52,1.59,4.52,4.87v10.52c0,3.3-1.42,4.9-4.52,4.9h-4.52V13.94Zm4.49,18.63c1.88,0,2.75-.87,2.75-3.16v-10.66c0-2.29-.87-3.19-2.75-3.19h-2.7v17.01h2.7Z"/><path class="cls-2" d="m100.33,34.22c-.12-.38-.17-1.1-.2-2.06-.61,1.51-1.82,2.35-3.5,2.35-2.06,0-3.27-1.36-3.27-3.53s.99-3.48,3.65-4.69c2.58-1.16,2.93-1.45,2.93-2.52v-.38c0-1.56-.78-2.4-2.2-2.4s-2.38.84-2.38,2.49v.38h-1.62v-.29c0-2.64,1.54-4.11,4.03-4.11,2.64,0,3.91,1.48,3.91,4.2v6.75c0,1.71.09,3.01.29,3.82h-1.62Zm-.4-4.95v-3.16c-.29.43-.96.78-2.41,1.48-1.71.81-2.43,1.77-2.43,3.16s.72,2.23,2.06,2.23c1.68,0,2.78-1.39,2.78-3.71Z"/><path class="cls-2" d="m106.97,21.24v9.91c0,1.3.43,1.8,1.53,1.8.43,0,.84-.06,1.31-.26v1.54c-.52.23-.96.29-1.59.29-2,0-2.99-1.07-2.99-3.19v-10.08h-1.85v-1.51h1.91l.2-4.29h1.48v4.29h2.84v1.51h-2.84Z"/><path class="cls-2" d="m118.09,34.22c-.12-.38-.17-1.1-.2-2.06-.61,1.51-1.82,2.35-3.5,2.35-2.06,0-3.27-1.36-3.27-3.53s.99-3.48,3.65-4.69c2.58-1.16,2.93-1.45,2.93-2.52v-.38c0-1.56-.78-2.4-2.2-2.4s-2.38.84-2.38,2.49v.38h-1.62v-.29c0-2.64,1.54-4.11,4.03-4.11,2.64,0,3.91,1.48,3.91,4.2v6.75c0,1.71.09,3.01.29,3.82h-1.62Zm-.4-4.95v-3.16c-.29.43-.96.78-2.41,1.48-1.71.81-2.43,1.77-2.43,3.16s.72,2.23,2.06,2.23c1.68,0,2.78-1.39,2.78-3.71Z"/><path class="cls-2" d="m126.6,29.73v-11.33c0-2.96,1.59-4.75,4.4-4.75s4.46,1.8,4.46,4.75v2.09h-1.71v-2.17c0-1.97-1.07-3.04-2.72-3.04s-2.64,1.07-2.64,3.04v11.53c0,1.97,1.01,3.01,2.64,3.01s2.72-1.04,2.72-3.01v-2.75h1.71v2.64c0,2.98-1.59,4.78-4.46,4.78s-4.4-1.8-4.4-4.78Z"/><path class="cls-2" d="m137.47,29.84v-5.74c0-2.98,1.48-4.66,4.17-4.66s4.17,1.68,4.17,4.66v5.74c0,2.98-1.48,4.66-4.17,4.66s-4.17-1.68-4.17-4.66Zm6.61.17v-6.05c0-1.85-.75-2.96-2.43-2.96s-2.43,1.1-2.43,2.96v6.05c0,1.83.75,2.93,2.43,2.93s2.43-1.1,2.43-2.93Z"/><path class="cls-2" d="m162.61,23.41v10.81h-1.77v-10.66c0-1.59-.61-2.55-1.97-2.55-1.48,0-2.55,1.33-2.55,3.68v9.53h-1.74v-10.66c0-1.59-.61-2.55-1.97-2.55-1.48,0-2.55,1.33-2.55,3.68v9.53h-1.74v-14.49h1.48l.06,2c.58-1.45,1.74-2.29,3.21-2.29,1.56,0,2.61.75,3.04,2.29.58-1.45,1.74-2.29,3.21-2.29,2.06,0,3.27,1.3,3.27,3.97Z"/><path class="cls-2" d="m179.59,23.41v10.81h-1.77v-10.66c0-1.59-.61-2.55-1.97-2.55-1.48,0-2.55,1.33-2.55,3.68v9.53h-1.74v-10.66c0-1.59-.61-2.55-1.97-2.55-1.48,0-2.55,1.33-2.55,3.68v9.53h-1.74v-14.49h1.48l.06,2c.58-1.45,1.74-2.29,3.21-2.29,1.56,0,2.61.75,3.04,2.29.58-1.45,1.74-2.29,3.21-2.29,2.06,0,3.27,1.3,3.27,3.97Z"/><path class="cls-2" d="m181.99,29.84v-5.74c0-2.98,1.48-4.66,4.17-4.66s4.17,1.68,4.17,4.66v5.74c0,2.98-1.48,4.66-4.17,4.66s-4.17-1.68-4.17-4.66Zm6.61.17v-6.05c0-1.85-.75-2.96-2.43-2.96s-2.43,1.1-2.43,2.96v6.05c0,1.83.75,2.93,2.43,2.93s2.43-1.1,2.43-2.93Z"/><path class="cls-2" d="m201.08,23.61v10.6h-1.74v-10.37c0-1.88-.67-2.84-2.09-2.84-1.56,0-2.67,1.3-2.67,3.68v9.53h-1.74v-14.49h1.51l.03,2c.61-1.45,1.79-2.29,3.33-2.29,2.2,0,3.36,1.33,3.36,4.17Z"/><path class="cls-2" d="m203.17,30.45v-.49h1.68v.55c0,1.68.93,2.46,2.35,2.46s2.32-.75,2.32-2.38-1.31-2.29-2.7-2.98c-1.68-.81-3.5-1.74-3.5-4.37,0-2.32,1.45-3.8,3.82-3.8s3.82,1.48,3.82,3.97v.26h-1.62v-.32c0-1.62-.9-2.38-2.17-2.38s-2.17.75-2.17,2.23c0,1.65,1.3,2.29,2.75,3.01,1.68.81,3.48,1.74,3.48,4.37,0,2.43-1.42,3.91-3.97,3.91s-4.09-1.48-4.09-4.06Z"/></svg>