<svg width="277" height="305" viewBox="0 0 277 305" fill="none" xmlns="http://www.w3.org/2000/svg">
  <g clip-path="url(#clip0_2337_3798)">
  <path d="M157.992 66.1082C159.444 66.4799 160.694 67.4029 161.475 68.6807C162.256 69.9585 162.507 71.4904 162.175 72.9503C162.102 73.2459 162.006 73.5352 161.886 73.8149L176.606 87.4495L166.61 89.796L154.164 76.4887C153.041 75.9018 152.144 74.9601 151.613 73.8106C151.082 72.6612 150.947 71.3685 151.229 70.1344C151.397 69.4338 151.701 68.7729 152.124 68.1895C152.547 67.6061 153.081 67.1116 153.695 66.7343C154.309 66.357 154.992 66.1043 155.704 65.9905C156.416 65.8767 157.144 65.9042 157.846 66.0713C157.895 66.0829 157.943 66.0952 157.992 66.1082Z" fill="#A0616A"/>
  <path d="M171.747 81.5958L166.007 89.3464L180.391 102.928C181.413 103.901 182.667 104.597 184.035 104.949C185.402 105.301 186.837 105.298 188.203 104.941C189.865 104.498 191.338 103.527 192.399 102.175C193.461 100.823 194.054 99.1628 194.089 97.4449L194.469 66.1817C194.511 63.9968 193.713 61.8789 192.239 60.2638C190.765 58.6486 188.727 57.6589 186.545 57.4982C185.483 57.4167 184.415 57.545 183.402 57.8757C182.39 58.2064 181.452 58.7331 180.643 59.4257C179.835 60.1183 179.17 60.9632 178.688 61.9122C178.206 62.8612 177.916 63.8957 177.835 64.9567C177.828 65.0405 177.823 65.1244 177.819 65.2084C177.805 65.5067 177.806 65.8057 177.824 66.1039L179.573 88.7163L171.747 81.5958Z" fill="#E6E6E6"/>
  <path d="M130.619 205.909L101.438 205.262L112.665 158.222L96.2438 113.158L96.2857 112.998L108.424 66.6076L94.5581 24.3786L121.362 13.4261L137.169 68.1648L137.13 68.3083L125.076 112.369L141.506 158.131L141.472 158.281L130.619 205.909ZM102.773 204.232L129.777 204.832L140.403 158.197L123.965 112.412L136.068 68.1725L120.67 14.8526L95.8731 24.9851L109.529 66.574L109.489 66.7247L97.3533 113.106L113.77 158.159L113.733 158.313L102.773 204.232Z" fill="#3F3D56"/>
  <path d="M166.769 301.274C162.94 301.611 159.085 301.09 155.484 299.748C151.883 298.407 148.628 296.279 145.955 293.52C142.462 289.841 140.064 285.105 137.745 280.526C137.07 279.193 136.372 277.815 135.663 276.494C134.871 275.054 134.53 273.41 134.682 271.775C134.834 270.139 135.473 268.587 136.517 267.317C137.517 266.048 138.875 265.107 140.415 264.616C141.956 264.124 143.608 264.104 145.16 264.559L145.498 264.657L148.544 276.525C148.998 274.755 149.973 270.766 150.589 266.859L150.641 266.531L150.944 266.666C154.124 268.071 157.113 269.871 159.843 272.022C164.678 275.896 168.611 280.774 171.368 286.319C174.125 291.864 175.64 297.942 175.807 304.131L175.815 304.5L166.769 301.274Z" fill="#F2F2F2"/>
  <path d="M111.703 20.7912C111.703 23.1586 111.095 25.4863 109.936 27.5517C108.778 29.6171 107.108 31.3512 105.087 32.588C104.784 32.7809 104.471 32.9576 104.149 33.1174C102.996 33.7123 101.764 34.1402 100.491 34.3882C100.136 34.457 99.7751 34.51 99.4093 34.547C98.8869 34.611 98.361 34.6429 97.8347 34.6423C96.3276 34.6448 94.8303 34.3997 93.4027 33.9169V33.9116C92.9429 33.7642 92.4931 33.5873 92.0561 33.3822C89.7521 32.3301 87.7811 30.667 86.3575 28.574C84.9339 26.481 84.1122 24.0382 83.982 21.5113C83.9713 21.2731 83.9661 21.0295 83.9661 20.7912C83.9661 20.68 83.966 20.5635 83.9713 20.4524C84.0604 16.8093 85.5835 13.3481 88.2105 10.8189C90.8374 8.28979 94.3565 6.89652 98.005 6.9411C101.653 6.98568 105.137 8.46454 107.702 11.0571C110.266 13.6497 111.704 17.1471 111.703 20.7912Z" fill="#E6E6E6"/>
  <path d="M147.409 66.5909C147.409 66.7656 147.404 66.9351 147.393 67.1098C147.385 67.4639 147.359 67.8174 147.314 68.1688C146.992 70.9526 145.834 73.5739 143.991 75.6872C142.149 77.8006 139.709 79.307 136.992 80.0078C136.568 80.1137 136.144 80.2037 135.709 80.2726C134.992 80.3855 134.267 80.4421 133.541 80.442C132.877 80.4428 132.214 80.395 131.558 80.2991C131.197 80.2514 130.837 80.1826 130.487 80.1031C128.748 79.716 127.102 78.993 125.641 77.9747C125.339 77.7682 125.042 77.5458 124.761 77.3128C123.114 75.9684 121.799 74.2634 120.918 72.33C120.036 70.3965 119.612 68.2864 119.679 66.163C119.745 64.0396 120.299 61.9599 121.299 60.0849C122.299 58.2098 123.718 56.5898 125.445 55.3501V55.3448C125.742 55.1261 126.05 54.9228 126.368 54.7359C127.938 53.7811 129.685 53.1526 131.505 52.8881C131.865 52.8351 132.231 52.7981 132.597 52.7769C132.91 52.7504 133.222 52.7398 133.541 52.7398C134.675 52.7388 135.806 52.8775 136.907 53.1528C137.334 53.2574 137.755 53.3847 138.169 53.534C140.872 54.488 143.213 56.2562 144.868 58.5948C146.523 60.9334 147.411 63.7271 147.409 66.5909Z" fill="#E6E6E6"/>
  <path d="M111.685 112.391C111.685 114.568 111.17 116.715 110.183 118.656C109.195 120.597 107.763 122.278 106.002 123.563C105.716 123.778 105.419 123.977 105.111 124.161C104.053 124.823 102.908 125.335 101.708 125.68C101.363 125.786 101.013 125.876 100.658 125.95C98.7729 126.341 96.8275 126.339 94.943 125.945C94.4861 125.85 94.0348 125.73 93.5912 125.585C90.9118 124.728 88.5563 123.079 86.837 120.855C85.1176 118.631 84.1156 115.938 83.9636 113.132C83.953 112.883 83.9478 112.639 83.9478 112.391C83.9478 112.285 83.9477 112.179 83.953 112.073C84.0053 109.718 84.659 107.415 85.8521 105.383C87.0453 103.351 88.7383 101.657 90.7708 100.461C91.1825 100.213 91.6092 99.9903 92.0484 99.7944C93.8579 98.9653 95.8256 98.5372 97.8164 98.5395C97.9437 98.5395 98.0709 98.5395 98.1982 98.5501C98.5631 98.5544 98.9276 98.5774 99.2903 98.6189C100.632 98.7564 101.945 99.0937 103.187 99.6196C103.521 99.7573 103.844 99.9055 104.162 100.075C106.429 101.238 108.331 103.003 109.658 105.176C110.985 107.349 111.687 109.845 111.685 112.391Z" fill="#E6E6E6"/>
  <path d="M151.651 158.164V158.19C151.651 158.54 151.635 158.884 151.603 159.223C151.393 162.049 150.319 164.743 148.526 166.94C146.733 169.137 144.307 170.731 141.578 171.507V171.512C141.18 171.628 140.777 171.724 140.369 171.798C139.516 171.96 138.65 172.041 137.782 172.041C137.231 172.043 136.68 172.009 136.133 171.941C135.778 171.904 135.423 171.845 135.073 171.777C133.233 171.414 131.486 170.679 129.941 169.616C129.626 169.404 129.322 169.176 129.029 168.933C127.525 167.712 126.295 166.189 125.417 164.463C124.539 162.736 124.033 160.846 123.932 158.912C123.831 156.979 124.137 155.046 124.831 153.238C125.524 151.43 126.59 149.787 127.958 148.416V148.411C128.229 148.141 128.51 147.881 128.801 147.638C130.157 146.481 131.725 145.6 133.419 145.043C133.758 144.927 134.097 144.826 134.447 144.742C135.538 144.472 136.658 144.337 137.782 144.339C137.983 144.339 138.185 144.344 138.386 144.355C138.8 144.371 139.213 144.408 139.616 144.461V144.466H139.622C142.948 144.907 146 146.539 148.213 149.058C150.425 151.577 151.647 154.813 151.651 158.164Z" fill="#E6E6E6"/>
  <path d="M129.822 203.99C129.822 207.598 128.412 211.063 125.893 213.649C123.374 216.235 119.943 217.737 116.332 217.836C112.721 217.934 109.214 216.622 106.557 214.177C103.9 211.733 102.303 208.35 102.105 204.747C102.09 204.493 102.084 204.244 102.084 203.99C102.084 203.889 102.084 203.789 102.09 203.688C102.14 201.249 102.836 198.867 104.106 196.783C105.376 194.699 107.175 192.988 109.321 191.823C109.78 191.57 110.254 191.348 110.742 191.155C112.396 190.481 114.166 190.136 115.953 190.139C116.266 190.139 116.579 190.149 116.891 190.171C117.262 190.197 117.628 190.234 117.989 190.287C119.27 190.473 120.518 190.842 121.694 191.383C122.018 191.526 122.336 191.685 122.649 191.86C124.823 193.055 126.635 194.811 127.897 196.945C129.159 199.079 129.823 201.512 129.822 203.99Z" fill="#E6E6E6"/>
  <path d="M231.997 10.89C250.31 47.2571 213.879 42.1813 208.364 41.7223C197.74 40.8381 188.566 43.6996 189.556 19.4779C189.99 8.8396 201.662 0.623871 212.323 0.623871C222.984 0.623871 227.207 1.37803 231.997 10.89Z" fill="#2F2E41"/>
  <path d="M227.302 289.609L234.997 289.608L238.658 259.962L227.3 259.962L227.302 289.609Z" fill="#A0616A"/>
  <path d="M237.558 290.301V285.09L235.535 285.213L227.299 285.701L225.393 285.818L223.936 303.269L223.858 304.204H229.322L229.498 303.275L230.291 299.052L232.341 303.275L232.79 304.204H247.277C248.139 304.199 248.964 303.854 249.573 303.245C250.182 302.635 250.526 301.81 250.53 300.949C251.141 298.097 239.093 291.931 237.558 290.301Z" fill="#2F2E41"/>
  <path d="M192.69 289.609L184.995 289.608L181.333 259.962L192.692 259.962L192.69 289.609Z" fill="#A0616A"/>
  <path d="M182.434 290.301V285.09L184.457 285.213L192.693 285.701L194.599 285.818L196.056 303.269L196.134 304.204H190.67L190.494 303.275L189.7 299.052L187.651 303.275L187.202 304.204H172.715C171.853 304.199 171.028 303.854 170.419 303.245C169.81 302.635 169.466 301.81 169.462 300.949C168.851 298.097 180.899 291.931 182.434 290.301Z" fill="#2F2E41"/>
  <path d="M181.208 141.193C181.208 141.193 175.914 170.789 178.765 187.463C178.982 191.441 175.883 203.395 176.332 217.386C177.069 240.383 181.42 268.712 180.043 275.099L194.887 274.04C194.887 274.04 195.381 267.794 196.211 258.214C196.31 257.069 194.778 255.685 194.887 254.449C195.014 253.007 196.783 251.697 196.921 250.146C197.036 248.862 197.155 247.545 197.277 246.195C197.375 245.121 195.845 244.439 195.947 243.33C196.073 241.956 197.833 240.146 197.966 238.726C198.774 230.087 199.7 220.66 200.69 211.413C201.341 205.338 202.019 199.34 202.711 193.695C202.861 192.47 201.628 191.041 201.779 189.853C201.933 188.638 203.472 187.664 203.627 186.493C203.845 184.846 205.801 184.516 206.02 182.97C206.195 181.729 204.634 179.253 204.81 178.086C206.528 166.672 208.235 159.009 209.712 159.117C210.931 159.206 212.332 164.484 213.782 172.729C213.965 173.769 215.909 174.956 216.093 176.087C216.284 177.259 214.715 178.378 214.907 179.638C215.111 180.978 214.298 182.602 214.502 184.029C214.7 185.407 215.915 186.587 216.112 188.036C218.325 204.318 220.488 224.684 222.137 241.452C222.266 242.763 223.922 244.184 224.045 245.448C224.175 246.786 222.77 247.964 222.892 249.24C223.059 250.983 225.485 252.842 225.635 254.449C225.785 256.04 223.659 257.381 223.792 258.818C224.616 267.751 225.105 273.51 225.105 273.51L239.949 274.04C239.949 274.04 239.438 191.214 241.882 182.878C244.325 174.541 242.696 144.528 236.588 141.193C230.48 137.858 181.208 141.193 181.208 141.193Z" fill="#2F2E41"/>
  <path d="M202.168 43.9896L200.364 52.9949L182.163 59.0724L188.684 108.227L181.664 140.009C179.853 142.104 179.161 144.214 180.263 146.349L239.949 146.965C241.073 144.821 241.458 142.709 239.949 140.612L237.299 136.376L234.648 130.022L235.178 127.375L233.837 121.618L232.817 118.015L231.096 111.934L241.802 62.4786L222.725 55.0961L219.3 43.9896L202.168 43.9896Z" fill="#E6E6E6"/>
  <path d="M208.816 39.5543C217.04 39.5543 223.707 32.8957 223.707 24.6819C223.707 16.4681 217.04 9.80951 208.816 9.80951C200.591 9.80951 193.924 16.4681 193.924 24.6819C193.924 32.8957 200.591 39.5543 208.816 39.5543Z" fill="#A0616A"/>
  <path d="M228.161 18.9836C226.375 20.7484 224.934 21.9495 222.222 21.9495C215.362 23.5165 208.834 24.4211 203.068 23.8378C203.309 22.3829 203.093 20.889 202.449 19.562C202.372 20.3248 202.134 21.0626 201.75 21.7264C201.366 22.3903 200.845 22.9651 200.222 23.4127C198.598 23.0961 197.013 22.6055 195.495 21.9495C193.376 21.9521 191.312 21.2726 189.61 20.0118C186.705 7.49563 197.697 3.20985 209.106 4.64834C210.439 4.39397 211.793 4.26488 213.15 4.26276C221.653 4.26276 227.152 9.57178 228.161 18.9836Z" fill="#2F2E41"/>
  <path d="M120.385 81.3104C120.348 81.3951 120.305 81.4745 120.263 81.5539L114.235 93.4407C113.79 94.3249 113.382 95.2197 113.01 96.1357H111.871C112.287 95.0528 112.759 93.9924 113.286 92.9588L119.203 81.3104H120.385Z" fill="#3F3D56"/>
  <path d="M121.016 50.6007H119.85C118.652 48.0128 117.14 45.5819 115.349 43.3628C113.47 41.0387 111.889 38.4899 110.641 35.7754H111.818C112.991 38.2478 114.454 40.5725 116.176 42.701C118.126 45.1127 119.753 47.7684 121.016 50.6007Z" fill="#3F3D56"/>
  <path d="M122.781 142.729H121.604L114.437 127.904H115.619L122.781 142.729Z" fill="#3F3D56"/>
  <path d="M123.757 173.439H124.896C124.817 173.646 124.737 173.847 124.653 174.053L118.821 188.265H117.676L123.672 173.651C123.698 173.582 123.73 173.508 123.757 173.439Z" fill="#3F3D56"/>
  <path d="M129.058 173.439H130.198C130.118 173.646 130.039 173.847 129.954 174.053L124.122 188.265H122.977L128.973 173.651C129 173.582 129.032 173.508 129.058 173.439Z" fill="#3F3D56"/>
  <path d="M125.686 81.3104C125.644 81.3898 125.607 81.4745 125.565 81.5539L119.537 93.4407C119.086 94.3249 118.678 95.2232 118.312 96.1357H117.167C117.587 95.0536 118.061 93.9933 118.588 92.9588L124.504 81.3104H125.686Z" fill="#3F3D56"/>
  <path d="M126.312 50.6007H125.151C123.952 48.0135 122.441 45.5827 120.65 43.3628C118.772 41.0387 117.19 38.4899 115.942 35.7754H117.114C118.293 38.2458 119.758 40.5701 121.477 42.701C123.426 45.1129 125.051 47.7686 126.312 50.6007Z" fill="#3F3D56"/>
  <path d="M128.083 142.729H126.906L119.743 127.904H120.92L128.083 142.729Z" fill="#3F3D56"/>
  <path d="M116.865 173.439H118.005C117.925 173.646 117.846 173.847 117.761 174.053L111.929 188.265H110.784L116.78 173.651C116.806 173.582 116.838 173.508 116.865 173.439Z" fill="#3F3D56"/>
  <path d="M113.493 81.3104C113.451 81.3951 113.413 81.4745 113.371 81.5539L107.343 93.4407C106.893 94.3249 106.486 95.2232 106.124 96.1357H104.979C105.397 95.0537 105.869 93.9934 106.394 92.9588L112.311 81.3104H113.493Z" fill="#3F3D56"/>
  <path d="M114.124 50.6007H112.963C111.764 48.0127 110.25 45.5818 108.456 43.3628C106.579 41.0379 104.998 38.4893 103.749 35.7754H104.92C106.099 38.2462 107.563 40.5705 109.284 42.701C111.232 45.1143 112.859 47.7697 114.124 50.6007Z" fill="#3F3D56"/>
  <path d="M108.727 127.904L115.889 142.729H114.712L107.545 127.904H108.727Z" fill="#3F3D56"/>
  <path d="M35.2484 16.2801H7.15048C5.32262 16.2801 3.56964 17.0053 2.27715 18.2961C0.98466 19.587 0.258545 21.3377 0.258545 23.1633C0.258545 24.9888 0.98466 26.7396 2.27715 28.0304C3.56964 29.3213 5.32262 30.0465 7.15048 30.0465H35.2484C37.0762 30.0465 38.8292 29.3213 40.1217 28.0304C41.4142 26.7396 42.1403 24.9888 42.1403 23.1633C42.1403 21.3377 41.4142 19.587 40.1217 18.2961C38.8292 17.0053 37.0762 16.2801 35.2484 16.2801Z" fill="#C4EED0"/>
  <path d="M103.158 20.3309L48.8606 21.114L48.8759 22.173L103.173 21.3898L103.158 20.3309Z" fill="#3F3D56"/>
  <path d="M45.3211 199.479H17.2232C15.3954 199.479 13.6424 200.204 12.3499 201.495C11.0574 202.786 10.3313 204.536 10.3313 206.362C10.3313 208.188 11.0574 209.938 12.3499 211.229C13.6424 212.52 15.3954 213.245 17.2232 213.245H45.3211C47.149 213.245 48.902 212.52 50.1944 211.229C51.4869 209.938 52.213 208.188 52.213 206.362C52.213 204.536 51.4869 202.786 50.1944 201.495C48.902 200.204 47.149 199.479 45.3211 199.479Z" fill="#C4EED0"/>
  <path d="M113.23 203.53L58.9326 204.314L58.9479 205.373L113.245 204.589L113.23 203.53Z" fill="#3F3D56"/>
  <path d="M38.9593 106.537H10.8614C9.03356 106.537 7.28057 107.262 5.98809 108.553C4.6956 109.844 3.96948 111.595 3.96948 113.42C3.96948 115.246 4.6956 116.997 5.98809 118.287C7.28057 119.578 9.03356 120.304 10.8614 120.304H38.9593C40.7872 120.304 42.5401 119.578 43.8326 118.287C45.1251 116.997 45.8512 115.246 45.8512 113.42C45.8512 111.595 45.1251 109.844 43.8326 108.553C42.5401 107.262 40.7872 106.537 38.9593 106.537Z" fill="#C4EED0"/>
  <path d="M106.869 111.931L52.5713 112.714L52.5866 113.773L106.884 112.99L106.869 111.931Z" fill="#3F3D56"/>
  <path d="M219.867 62.874H191.769C189.942 62.874 188.189 63.5992 186.896 64.89C185.604 66.1809 184.877 67.9316 184.877 69.7572C184.877 71.5827 185.604 73.3335 186.896 74.6243C188.189 75.9152 189.942 76.6404 191.769 76.6404H219.867C221.695 76.6404 223.448 75.9152 224.741 74.6243C226.033 73.3335 226.759 71.5827 226.759 69.7572C226.759 67.9316 226.033 66.1809 224.741 64.89C223.448 63.5992 221.695 62.874 219.867 62.874Z" fill="#6DD58C"/>
  <path d="M185.284 69.0774L135.026 68.168L135.039 66.9382L185.297 67.8476L185.284 69.0774Z" fill="#3F3D56"/>
  <path d="M208.886 69.2851C210.338 69.6568 211.588 70.5797 212.369 71.8576C213.15 73.1354 213.401 74.6672 213.069 76.1271C212.997 76.4228 212.9 76.712 212.78 76.9918L227.501 90.6264L217.504 92.9729L205.058 79.6655C203.935 79.0786 203.038 78.137 202.507 76.9875C201.976 75.838 201.842 74.5454 202.124 73.3113C202.291 72.6106 202.595 71.9497 203.018 71.3663C203.441 70.783 203.975 70.2885 204.589 69.9112C205.204 69.5339 205.886 69.2811 206.599 69.1674C207.311 69.0536 208.038 69.081 208.74 69.2481C208.789 69.2598 208.838 69.2721 208.886 69.2851Z" fill="#A0616A"/>
  <path d="M222.642 84.7727L216.901 92.5233L231.285 106.105C232.307 107.078 233.562 107.773 234.929 108.126C236.296 108.478 237.731 108.475 239.097 108.118C240.759 107.674 242.232 106.704 243.294 105.352C244.355 104 244.948 102.34 244.983 100.622L245.364 69.3586C245.405 67.1737 244.607 65.0558 243.133 63.4406C241.659 61.8254 239.622 60.8357 237.44 60.6751C236.377 60.5936 235.309 60.7219 234.297 61.0526C233.284 61.3833 232.347 61.91 231.538 62.6026C230.729 63.2952 230.065 64.1401 229.583 65.0891C229.101 66.0381 228.811 67.0726 228.729 68.1335C228.723 68.2173 228.718 68.3013 228.714 68.3852C228.699 68.6836 228.701 68.9825 228.718 69.2807L230.468 91.8932L222.642 84.7727Z" fill="#E6E6E6"/>
  </g>
  <defs>
  <clipPath id="clip0_2337_3798">
  <rect width="275.953" height="304.832" fill="white" transform="translate(0.258545 0.623871)"/>
  </clipPath>
  </defs>
  </svg> 