<svg width="277" height="305" viewBox="0 0 277 305" fill="none" xmlns="http://www.w3.org/2000/svg">
<g clip-path="url(#clip0_2583_5230)">
<path d="M157.992 66.1082C159.445 66.4799 160.694 67.4029 161.475 68.6807C162.256 69.9585 162.508 71.4904 162.175 72.9503C162.103 73.2459 162.006 73.5352 161.886 73.8149L176.607 87.4495L166.611 89.796L154.164 76.4887C153.041 75.9018 152.144 74.9601 151.613 73.8106C151.083 72.6612 150.948 71.3685 151.23 70.1344C151.397 69.4338 151.701 68.7729 152.124 68.1895C152.547 67.6061 153.081 67.1116 153.695 66.7343C154.31 66.357 154.993 66.1043 155.705 65.9905C156.417 65.8767 157.145 65.9042 157.846 66.0713C157.895 66.0829 157.944 66.0952 157.992 66.1082Z" fill="#A0616A"/>
<path d="M171.748 81.5958L166.008 89.3464L180.392 102.928C181.414 103.901 182.668 104.597 184.035 104.949C185.403 105.301 186.837 105.298 188.203 104.941C189.865 104.498 191.338 103.527 192.4 102.175C193.462 100.823 194.055 99.1628 194.089 97.4449L194.47 66.1817C194.512 63.9968 193.714 61.8789 192.24 60.2638C190.766 58.6486 188.728 57.6589 186.546 57.4982C185.484 57.4167 184.416 57.545 183.403 57.8757C182.39 58.2064 181.453 58.7331 180.644 59.4257C179.835 60.1183 179.171 60.9632 178.689 61.9122C178.207 62.8612 177.917 63.8957 177.836 64.9567C177.829 65.0405 177.824 65.1244 177.82 65.2084C177.806 65.5067 177.807 65.8057 177.825 66.1039L179.574 88.7163L171.748 81.5958Z" fill="#E6E6E6"/>
<path d="M130.619 205.909L101.438 205.262L112.665 158.222L96.2443 113.158L96.2862 112.998L108.424 66.6076L94.5586 24.3786L121.362 13.4261L137.169 68.1648L137.13 68.3083L125.076 112.369L141.507 158.131L141.472 158.281L130.619 205.909ZM102.774 204.232L129.778 204.832L140.404 158.197L123.965 112.412L136.068 68.1725L120.67 14.8526L95.8736 24.9851L109.529 66.574L109.489 66.7247L97.3538 113.106L113.771 158.159L113.734 158.313L102.774 204.232Z" fill="#3F3D56"/>
<path opacity="0.5" d="M166.769 301.274C162.94 301.611 159.085 301.09 155.484 299.748C151.883 298.407 148.628 296.279 145.955 293.52C142.462 289.841 140.064 285.105 137.745 280.526C137.07 279.193 136.372 277.815 135.663 276.494C134.871 275.054 134.53 273.41 134.682 271.775C134.834 270.139 135.473 268.587 136.517 267.317C137.517 266.048 138.875 265.107 140.415 264.616C141.956 264.124 143.608 264.104 145.16 264.559L145.498 264.657L148.544 276.525C148.998 274.755 149.973 270.766 150.589 266.859L150.641 266.531L150.944 266.666C154.124 268.071 157.113 269.871 159.843 272.022C164.678 275.896 168.611 280.774 171.368 286.319C174.125 291.864 175.64 297.942 175.807 304.131L175.815 304.5L166.769 301.274Z" fill="#B3E3E0"/>
<path d="M111.704 20.7912C111.704 23.1586 111.096 25.4863 109.937 27.5517C108.779 29.6171 107.109 31.3512 105.088 32.588C104.785 32.7809 104.471 32.9576 104.15 33.1174C102.997 33.7123 101.765 34.1402 100.492 34.3882C100.136 34.457 99.7758 34.51 99.41 34.547C98.8876 34.611 98.3618 34.6429 97.8355 34.6423C96.3283 34.6448 94.831 34.3997 93.4034 33.9169V33.9116C92.9437 33.7642 92.4939 33.5873 92.0568 33.3822C89.7528 32.3301 87.7818 30.667 86.3582 28.574C84.9346 26.481 84.113 24.0382 83.9827 21.5113C83.9721 21.2731 83.9668 21.0295 83.9668 20.7912C83.9668 20.68 83.9668 20.5635 83.9721 20.4524C84.0612 16.8093 85.5843 13.3481 88.2112 10.8189C90.8381 8.28979 94.3572 6.89652 98.0057 6.9411C101.654 6.98568 105.138 8.46454 107.702 11.0571C110.266 13.6497 111.704 17.1471 111.704 20.7912Z" fill="#E6E6E6"/>
<path d="M147.409 66.5909C147.409 66.7656 147.404 66.9351 147.393 67.1098C147.385 67.4639 147.359 67.8174 147.314 68.1688C146.992 70.9526 145.834 73.5739 143.991 75.6872C142.149 77.8006 139.709 79.307 136.992 80.0078C136.568 80.1137 136.144 80.2037 135.709 80.2726C134.992 80.3855 134.267 80.4421 133.541 80.442C132.877 80.4428 132.214 80.395 131.558 80.2991C131.197 80.2514 130.837 80.1826 130.487 80.1031C128.748 79.716 127.102 78.993 125.641 77.9747C125.339 77.7682 125.042 77.5458 124.761 77.3128C123.114 75.9684 121.799 74.2634 120.918 72.33C120.036 70.3965 119.612 68.2864 119.679 66.163C119.745 64.0396 120.299 61.9599 121.299 60.0849C122.299 58.2098 123.718 56.5898 125.445 55.3501V55.3448C125.742 55.1261 126.05 54.9228 126.368 54.7359C127.938 53.7811 129.685 53.1526 131.505 52.8881C131.865 52.8351 132.231 52.7981 132.597 52.7769C132.91 52.7504 133.222 52.7398 133.541 52.7398C134.675 52.7388 135.806 52.8775 136.907 53.1528C137.334 53.2574 137.755 53.3847 138.169 53.534C140.872 54.488 143.213 56.2562 144.868 58.5948C146.523 60.9334 147.411 63.7271 147.409 66.5909Z" fill="#E6E6E6"/>
<path d="M111.686 112.391C111.685 114.568 111.171 116.715 110.183 118.656C109.196 120.597 107.763 122.278 106.002 123.563C105.716 123.778 105.419 123.977 105.112 124.161C104.054 124.823 102.908 125.335 101.708 125.68C101.364 125.786 101.014 125.876 100.659 125.95C98.7733 126.341 96.828 126.339 94.9435 125.945C94.4866 125.85 94.0353 125.73 93.5916 125.585C90.9123 124.728 88.5568 123.079 86.8375 120.855C85.1181 118.631 84.1161 115.938 83.9641 113.132C83.9535 112.883 83.9482 112.639 83.9482 112.391C83.9482 112.285 83.9482 112.179 83.9535 112.073C84.0058 109.718 84.6595 107.415 85.8526 105.383C87.0458 103.351 88.7388 101.657 90.7713 100.461C91.183 100.213 91.6097 99.9903 92.0489 99.7944C93.8584 98.9653 95.8261 98.5372 97.8169 98.5395C97.9442 98.5395 98.0714 98.5395 98.1986 98.5501C98.5636 98.5544 98.9281 98.5774 99.2907 98.6189C100.632 98.7564 101.946 99.0937 103.187 99.6196C103.521 99.7573 103.845 99.9055 104.163 100.075C106.43 101.238 108.331 103.003 109.659 105.176C110.986 107.349 111.687 109.845 111.686 112.391Z" fill="#E6E6E6"/>
<path d="M151.65 158.164V158.19C151.65 158.54 151.635 158.884 151.603 159.223C151.393 162.049 150.318 164.743 148.525 166.94C146.732 169.137 144.307 170.731 141.578 171.507V171.512C141.18 171.628 140.777 171.724 140.369 171.798C139.516 171.96 138.65 172.041 137.782 172.041C137.231 172.043 136.68 172.009 136.133 171.941C135.778 171.904 135.423 171.845 135.073 171.777C133.232 171.414 131.486 170.679 129.941 169.616C129.626 169.404 129.321 169.176 129.029 168.933C127.525 167.712 126.294 166.189 125.417 164.463C124.539 162.736 124.033 160.846 123.932 158.912C123.831 156.979 124.137 155.046 124.831 153.238C125.524 151.43 126.59 149.787 127.958 148.416V148.411C128.228 148.141 128.509 147.881 128.801 147.638C130.156 146.481 131.725 145.6 133.419 145.043C133.758 144.927 134.097 144.826 134.447 144.742C135.538 144.472 136.658 144.337 137.782 144.339C137.983 144.339 138.185 144.344 138.386 144.355C138.8 144.371 139.213 144.408 139.616 144.461V144.466H139.621C142.947 144.907 146 146.539 148.212 149.058C150.425 151.577 151.646 154.813 151.65 158.164Z" fill="#E6E6E6"/>
<path d="M129.821 203.99C129.821 207.598 128.412 211.063 125.893 213.649C123.373 216.235 119.943 217.737 116.332 217.836C112.721 217.934 109.214 216.622 106.557 214.177C103.9 211.733 102.303 208.35 102.105 204.747C102.089 204.493 102.084 204.244 102.084 203.99C102.084 203.889 102.084 203.789 102.089 203.688C102.14 201.249 102.835 198.867 104.105 196.783C105.375 194.699 107.175 192.988 109.32 191.823C109.78 191.57 110.254 191.348 110.741 191.155C112.396 190.481 114.166 190.136 115.953 190.139C116.265 190.139 116.578 190.149 116.891 190.171C117.262 190.197 117.628 190.234 117.988 190.287C119.27 190.473 120.518 190.842 121.694 191.383C122.018 191.526 122.336 191.685 122.648 191.86C124.822 193.055 126.635 194.811 127.897 196.945C129.158 199.079 129.823 201.512 129.821 203.99Z" fill="#E6E6E6"/>
<path d="M231.997 10.89C250.31 47.2571 213.879 42.1813 208.364 41.7223C197.74 40.8381 188.566 43.6996 189.556 19.4779C189.991 8.8396 201.663 0.623871 212.323 0.623871C222.984 0.623871 227.207 1.37803 231.997 10.89Z" fill="#2F2E41"/>
<path d="M227.301 289.609L234.997 289.608L238.658 259.962L227.3 259.962L227.301 289.609Z" fill="#A0616A"/>
<path d="M237.559 290.301V285.09L235.536 285.213L227.3 285.701L225.394 285.818L223.936 303.269L223.858 304.204H229.323L229.499 303.275L230.292 299.052L232.341 303.275L232.79 304.204H247.278C248.14 304.199 248.965 303.854 249.574 303.245C250.183 302.635 250.527 301.81 250.53 300.949C251.142 298.097 239.094 291.931 237.559 290.301Z" fill="#2F2E41"/>
<path d="M192.691 289.609L184.995 289.608L181.334 259.962L192.692 259.962L192.691 289.609Z" fill="#A0616A"/>
<path d="M182.434 290.301V285.09L184.457 285.213L192.693 285.701L194.599 285.818L196.056 303.269L196.134 304.204H190.67L190.494 303.275L189.7 299.052L187.651 303.275L187.202 304.204H172.715C171.853 304.199 171.027 303.854 170.418 303.245C169.809 302.635 169.466 301.81 169.462 300.949C168.85 298.097 180.898 291.931 182.434 290.301Z" fill="#2F2E41"/>
<path d="M181.208 141.193C181.208 141.193 175.914 170.789 178.765 187.463C178.982 191.441 175.883 203.395 176.332 217.386C177.069 240.383 181.42 268.712 180.043 275.099L194.887 274.04C194.887 274.04 195.381 267.794 196.211 258.214C196.31 257.069 194.778 255.685 194.887 254.449C195.014 253.007 196.783 251.697 196.921 250.146C197.036 248.862 197.155 247.545 197.277 246.195C197.375 245.121 195.845 244.439 195.947 243.33C196.073 241.956 197.833 240.146 197.966 238.726C198.774 230.087 199.7 220.66 200.69 211.413C201.341 205.338 202.019 199.34 202.711 193.695C202.861 192.47 201.628 191.041 201.779 189.853C201.933 188.638 203.472 187.664 203.627 186.493C203.845 184.846 205.801 184.516 206.02 182.97C206.195 181.729 204.634 179.253 204.81 178.086C206.528 166.672 208.235 159.009 209.712 159.117C210.931 159.206 212.332 164.484 213.782 172.729C213.965 173.769 215.909 174.956 216.093 176.087C216.284 177.259 214.715 178.378 214.907 179.638C215.111 180.978 214.298 182.602 214.502 184.029C214.7 185.407 215.915 186.587 216.112 188.036C218.325 204.318 220.488 224.684 222.137 241.452C222.266 242.763 223.922 244.184 224.045 245.448C224.175 246.786 222.77 247.964 222.892 249.24C223.059 250.983 225.485 252.842 225.635 254.449C225.785 256.04 223.659 257.381 223.792 258.818C224.616 267.751 225.105 273.51 225.105 273.51L239.949 274.04C239.949 274.04 239.438 191.214 241.882 182.878C244.325 174.541 242.696 144.528 236.588 141.193C230.48 137.858 181.208 141.193 181.208 141.193Z" fill="#2F2E41"/>
<path d="M202.168 43.9896L200.365 52.9949L182.164 59.0724L188.685 108.227L181.664 140.009C179.854 142.104 179.161 144.214 180.264 146.349L239.95 146.965C241.074 144.821 241.458 142.709 239.95 140.612L237.299 136.376L234.648 130.022L235.178 127.375L233.837 121.618L232.818 118.015L231.097 111.934L241.802 62.4786L222.725 55.0961L219.3 43.9896L202.168 43.9896Z" fill="#E6E6E6"/>
<path d="M208.816 39.5543C217.04 39.5543 223.707 32.8957 223.707 24.6819C223.707 16.4681 217.04 9.80951 208.816 9.80951C200.592 9.80951 193.925 16.4681 193.925 24.6819C193.925 32.8957 200.592 39.5543 208.816 39.5543Z" fill="#A0616A"/>
<path d="M228.161 18.9836C226.375 20.7484 224.934 21.9495 222.222 21.9495C215.362 23.5165 208.834 24.4211 203.068 23.8378C203.309 22.3829 203.093 20.889 202.449 19.562C202.372 20.3248 202.134 21.0626 201.75 21.7264C201.366 22.3903 200.845 22.9651 200.222 23.4127C198.598 23.0961 197.013 22.6055 195.495 21.9495C193.376 21.9521 191.312 21.2726 189.61 20.0118C186.705 7.49563 197.697 3.20985 209.106 4.64834C210.439 4.39397 211.793 4.26488 213.15 4.26276C221.653 4.26276 227.152 9.57178 228.161 18.9836Z" fill="#2F2E41"/>
<path d="M120.385 81.3104C120.348 81.3951 120.306 81.4745 120.263 81.5539L114.236 93.4407C113.79 94.3249 113.382 95.2197 113.011 96.1357H111.871C112.287 95.0528 112.76 93.9924 113.287 92.9588L119.203 81.3104H120.385Z" fill="#3F3D56"/>
<path d="M121.016 50.6007H119.849C118.652 48.0128 117.14 45.5819 115.348 43.3628C113.47 41.0387 111.888 38.4899 110.641 35.7754H111.818C112.991 38.2478 114.454 40.5725 116.175 42.701C118.126 45.1127 119.753 47.7684 121.016 50.6007Z" fill="#3F3D56"/>
<path d="M122.781 142.729H121.604L114.437 127.904H115.619L122.781 142.729Z" fill="#3F3D56"/>
<path d="M123.757 173.439H124.896C124.817 173.646 124.737 173.847 124.653 174.053L118.821 188.265H117.676L123.672 173.651C123.698 173.582 123.73 173.508 123.757 173.439Z" fill="#3F3D56"/>
<path d="M129.058 173.439H130.198C130.119 173.646 130.039 173.847 129.954 174.053L124.123 188.265H122.978L128.974 173.651C129 173.582 129.032 173.508 129.058 173.439Z" fill="#3F3D56"/>
<path d="M125.686 81.3104C125.644 81.3898 125.607 81.4745 125.565 81.5539L119.537 93.4407C119.086 94.3249 118.678 95.2232 118.312 96.1357H117.167C117.587 95.0536 118.061 93.9933 118.588 92.9588L124.504 81.3104H125.686Z" fill="#3F3D56"/>
<path d="M126.312 50.6007H125.151C123.952 48.0135 122.441 45.5827 120.65 43.3628C118.772 41.0387 117.19 38.4899 115.942 35.7754H117.114C118.293 38.2458 119.758 40.5701 121.477 42.701C123.426 45.1129 125.051 47.7686 126.312 50.6007Z" fill="#3F3D56"/>
<path d="M128.083 142.729H126.906L119.744 127.904H120.921L128.083 142.729Z" fill="#3F3D56"/>
<path d="M116.865 173.439H118.005C117.925 173.646 117.846 173.847 117.761 174.053L111.929 188.265H110.784L116.78 173.651C116.807 173.582 116.839 173.508 116.865 173.439Z" fill="#3F3D56"/>
<path d="M113.494 81.3104C113.451 81.3951 113.414 81.4745 113.372 81.5539L107.344 93.4407C106.893 94.3249 106.487 95.2232 106.125 96.1357H104.979C105.398 95.0537 105.87 93.9934 106.395 92.9588L112.311 81.3104H113.494Z" fill="#3F3D56"/>
<path d="M114.124 50.6007H112.963C111.764 48.0127 110.25 45.5818 108.457 43.3628C106.579 41.0379 104.998 38.4893 103.749 35.7754H104.921C106.099 38.2462 107.564 40.5705 109.284 42.701C111.232 45.1143 112.859 47.7697 114.124 50.6007Z" fill="#3F3D56"/>
<path d="M108.727 127.904L115.889 142.729H114.713L107.545 127.904H108.727Z" fill="#3F3D56"/>
<path d="M35.2486 16.2801H7.15072C5.32287 16.2801 3.56988 17.0053 2.27739 18.2961C0.984904 19.587 0.258789 21.3377 0.258789 23.1633C0.258789 24.9888 0.984904 26.7396 2.27739 28.0304C3.56988 29.3213 5.32287 30.0465 7.15072 30.0465H35.2486C37.0765 30.0465 38.8294 29.3213 40.1219 28.0304C41.4144 26.7396 42.1405 24.9888 42.1405 23.1633C42.1405 21.3377 41.4144 19.587 40.1219 18.2961C38.8294 17.0053 37.0765 16.2801 35.2486 16.2801Z" fill="#A0CFCD"/>
<path d="M103.159 20.3309L48.8613 21.114L48.8766 22.173L103.174 21.3898L103.159 20.3309Z" fill="#3F3D56"/>
<path d="M45.2486 199.28H17.1507C15.3229 199.28 13.5699 200.005 12.2774 201.296C10.9849 202.587 10.2588 204.338 10.2588 206.163C10.2588 207.989 10.9849 209.74 12.2774 211.03C13.5699 212.321 15.3229 213.046 17.1507 213.046H45.2486C47.0765 213.046 48.8294 212.321 50.1219 211.03C51.4144 209.74 52.1405 207.989 52.1405 206.163C52.1405 204.338 51.4144 202.587 50.1219 201.296C48.8294 200.005 47.0765 199.28 45.2486 199.28Z" fill="#A0CFCD"/>
<path d="M113.23 203.53L58.9326 204.314L58.9479 205.373L113.245 204.589L113.23 203.53Z" fill="#3F3D56"/>
<path d="M39.2486 106.28H11.1507C9.32287 106.28 7.56988 107.005 6.27739 108.296C4.9849 109.587 4.25879 111.338 4.25879 113.163C4.25879 114.989 4.9849 116.74 6.27739 118.03C7.56988 119.321 9.32287 120.046 11.1507 120.046H39.2486C41.0765 120.046 42.8294 119.321 44.1219 118.03C45.4144 116.74 46.1405 114.989 46.1405 113.163C46.1405 111.338 45.4144 109.587 44.1219 108.296C42.8294 107.005 41.0765 106.28 39.2486 106.28Z" fill="#A0CFCD"/>
<path d="M106.869 111.931L52.5713 112.714L52.5866 113.773L106.884 112.99L106.869 111.931Z" fill="#3F3D56"/>
<path d="M219.868 62.874H191.77C189.942 62.874 188.189 63.5992 186.897 64.89C185.604 66.1809 184.878 67.9316 184.878 69.7572C184.878 71.5827 185.604 73.3335 186.897 74.6243C188.189 75.9152 189.942 76.6404 191.77 76.6404H219.868C221.696 76.6404 223.449 75.9152 224.741 74.6243C226.034 73.3335 226.76 71.5827 226.76 69.7572C226.76 67.9316 226.034 66.1809 224.741 64.89C223.449 63.5992 221.696 62.874 219.868 62.874Z" fill="#2B5A58"/>
<path d="M185.284 69.0774L135.026 68.168L135.039 66.9382L185.297 67.8476L185.284 69.0774Z" fill="#3F3D56"/>
<path d="M208.886 69.2851C210.338 69.6568 211.588 70.5797 212.369 71.8576C213.15 73.1354 213.401 74.6672 213.069 76.1271C212.996 76.4228 212.9 76.712 212.78 76.9918L227.5 90.6264L217.504 92.9729L205.058 79.6655C203.935 79.0786 203.038 78.137 202.507 76.9875C201.976 75.838 201.841 74.5454 202.123 73.3113C202.291 72.6106 202.595 71.9497 203.018 71.3663C203.441 70.783 203.975 70.2885 204.589 69.9112C205.203 69.5339 205.886 69.2811 206.598 69.1674C207.311 69.0536 208.038 69.081 208.74 69.2481C208.789 69.2598 208.837 69.2721 208.886 69.2851Z" fill="#A0616A"/>
<path d="M222.642 84.7727L216.901 92.5233L231.285 106.105C232.307 107.078 233.562 107.773 234.929 108.126C236.296 108.478 237.731 108.475 239.097 108.118C240.759 107.674 242.232 106.704 243.294 105.352C244.355 104 244.948 102.34 244.983 100.622L245.364 69.3586C245.405 67.1737 244.607 65.0558 243.133 63.4406C241.659 61.8254 239.622 60.8357 237.44 60.6751C236.377 60.5936 235.309 60.7219 234.297 61.0526C233.284 61.3833 232.347 61.91 231.538 62.6026C230.729 63.2952 230.065 64.1401 229.583 65.0891C229.101 66.0381 228.811 67.0726 228.729 68.1335C228.723 68.2173 228.718 68.3013 228.714 68.3852C228.699 68.6836 228.701 68.9825 228.718 69.2807L230.468 91.8932L222.642 84.7727Z" fill="#E6E6E6"/>
</g>
<defs>
<clipPath id="clip0_2583_5230">
<rect width="275.953" height="304.832" fill="white" transform="translate(0.258789 0.623871)"/>
</clipPath>
</defs>
</svg>
