<svg width="28" height="28" viewBox="0 0 28 28" fill="none" xmlns="http://www.w3.org/2000/svg">
<g id="DC-Logo">
<rect id="Background" width="28" height="28" rx="4" fill="#660000"/>
<g id="DC">
<path d="M5 19.248V9.224H8.332C9.368 9.224 10.2407 9.42467 10.95 9.826C11.6593 10.218 12.2007 10.7873 12.574 11.534C12.9473 12.2713 13.134 13.172 13.134 14.236C13.134 15.2907 12.9473 16.1913 12.574 16.938C12.2007 17.6847 11.6593 18.2587 10.95 18.66C10.2407 19.052 9.368 19.248 8.332 19.248H5ZM6.526 17.792H8.29C8.99 17.792 9.58267 17.666 10.068 17.414C10.5627 17.162 10.9407 16.7747 11.202 16.252C11.4633 15.7293 11.594 15.0573 11.594 14.236C11.594 13.4147 11.4633 12.7427 11.202 12.22C10.9407 11.688 10.5627 11.3007 10.068 11.058C9.58267 10.806 8.99 10.68 8.29 10.68H6.526V17.792Z" fill="white"/>
<path d="M19.1368 19.472C18.4555 19.472 17.8348 19.3507 17.2748 19.108C16.7242 18.8653 16.2435 18.5153 15.8328 18.058C15.4222 17.6007 15.1048 17.05 14.8808 16.406C14.6662 15.762 14.5588 15.0387 14.5588 14.236C14.5588 13.4333 14.6708 12.71 14.8948 12.066C15.1282 11.4127 15.4502 10.862 15.8608 10.414C16.2715 9.95667 16.7568 9.60667 17.3168 9.364C17.8768 9.12133 18.4882 9 19.1508 9C19.8695 9 20.5275 9.126 21.1248 9.378C21.7315 9.63 22.2262 10.0033 22.6088 10.498C23.0008 10.9833 23.2295 11.5853 23.2948 12.304L21.7828 12.556C21.7175 12.1547 21.5728 11.7953 21.3488 11.478C21.1248 11.1607 20.8308 10.9133 20.4668 10.736C20.1028 10.5493 19.6642 10.456 19.1508 10.456C18.5815 10.456 18.0635 10.6007 17.5968 10.89C17.1395 11.17 16.7755 11.59 16.5048 12.15C16.2435 12.71 16.1128 13.4053 16.1128 14.236C16.1128 15.0573 16.2435 15.748 16.5048 16.308C16.7755 16.868 17.1395 17.2927 17.5968 17.582C18.0542 17.8713 18.5722 18.016 19.1508 18.016C19.6455 18.016 20.0748 17.9273 20.4388 17.75C20.8028 17.5727 21.1015 17.3253 21.3348 17.008C21.5682 16.6907 21.7268 16.322 21.8108 15.902L23.3228 16.07C23.2015 16.77 22.9588 17.3767 22.5948 17.89C22.2402 18.394 21.7688 18.786 21.1808 19.066C20.6022 19.3367 19.9208 19.472 19.1368 19.472Z" fill="white"/>
</g>
</g>
</svg>
