<svg width="74" height="78" viewBox="0 0 74 78" fill="none" xmlns="http://www.w3.org/2000/svg">
<path d="M28.626 77.4345C44.4357 77.4345 57.2521 75.1704 57.2521 72.3774C57.2521 69.5845 44.4357 67.3203 28.626 67.3203C12.8163 67.3203 0 69.5845 0 72.3774C0 75.1704 12.8163 77.4345 28.626 77.4345Z" fill="#E3E3E3"/>
<g style="mix-blend-mode:soft-light">
<path d="M46.0234 55.953C61.4744 55.953 73.9999 43.4275 73.9999 27.9765C73.9999 12.5255 61.4744 0 46.0234 0C30.5724 0 18.0469 12.5255 18.0469 27.9765C18.0469 43.4275 30.5724 55.953 46.0234 55.953Z" fill="#C7C7C7"/>
</g>
<path opacity="0.05" d="M46.0252 51.0718C58.7805 51.0718 69.1207 40.7316 69.1207 27.9763C69.1207 15.2211 58.7805 4.88086 46.0252 4.88086C33.2699 4.88086 22.9297 15.2211 22.9297 27.9763C22.9297 40.7316 33.2699 51.0718 46.0252 51.0718Z" fill="#0751B3"/>
<path opacity="0.05" d="M46.0235 46.9064C56.4776 46.9064 64.9523 38.4317 64.9523 27.9776C64.9523 17.5235 56.4776 9.04883 46.0235 9.04883C35.5694 9.04883 27.0947 17.5235 27.0947 27.9776C27.0947 38.4317 35.5694 46.9064 46.0235 46.9064Z" fill="#0B57D0" fill-opacity="0.8"/>
<path opacity="0.05" d="M46.0237 41.5474C53.5191 41.5474 59.5953 35.4712 59.5953 27.9759C59.5953 20.4805 53.5191 14.4043 46.0237 14.4043C38.5284 14.4043 32.4521 20.4805 32.4521 27.9759C32.4521 35.4712 38.5284 41.5474 46.0237 41.5474Z" fill="#7697CC"/>
<path d="M18.2956 30.4805C18.2956 30.4805 16.0961 36.6717 17.0737 38.8712C18.0513 41.0707 19.5991 43.1888 19.5991 43.1888C19.5991 43.1888 19.0288 30.8878 18.2956 30.4805Z" fill="#A8C7FA"/>
<path d="M19.8437 44.8172C19.8437 44.8172 19.6808 46.365 19.5993 46.4465C19.5179 46.528 19.6808 46.6909 19.5993 46.9353C19.5179 47.1797 19.4364 47.5055 19.5993 47.587C19.7623 47.6684 18.7032 54.8372 18.7032 54.8372C18.7032 54.8372 16.0964 58.2587 17.1554 63.6353L17.4813 69.0933C17.4813 69.0933 20.0067 69.2562 20.0067 68.3602C20.0067 68.3602 19.8437 67.3011 19.8437 66.8123C19.8437 66.3236 20.2511 66.3236 20.0067 66.0792C19.7623 65.8348 19.7623 65.6719 19.7623 65.6719C19.7623 65.6719 20.1696 65.346 20.0881 65.2645C20.0067 65.1831 20.8213 59.3992 20.8213 59.3992C20.8213 59.3992 21.7174 58.5031 21.7174 58.0143V57.5255C21.7174 57.5255 22.1247 56.4665 22.1247 56.385C22.1247 56.3036 24.3242 51.3343 24.3242 51.3343L25.2203 54.9187L26.1979 60.0509C26.1979 60.0509 26.6867 64.6943 27.6642 66.4865C27.6642 66.4865 29.375 72.3519 29.375 72.1889C29.375 72.026 32.2262 71.6187 32.1447 70.8855C32.0633 70.1524 30.434 59.888 30.434 59.888L30.8413 44.6543L19.8437 44.8172Z" fill="#2F2E41"/>
<path d="M17.6445 68.6865C17.6445 68.6865 15.4449 73.0041 16.9113 73.167C18.3776 73.33 18.9479 73.33 19.5996 72.6783C19.9559 72.322 20.6774 71.8439 21.2583 71.4838C21.6025 71.2738 21.8805 70.9711 22.0606 70.6103C22.2406 70.2495 22.3153 69.8453 22.2761 69.4441C22.2331 69.0455 22.0842 68.7171 21.7176 68.6865C20.7401 68.6051 19.5996 67.709 19.5996 67.709L17.6445 68.6865Z" fill="#2F2E41"/>
<path d="M29.7821 71.8643C29.7821 71.8643 27.5826 76.1818 29.049 76.3448C30.5153 76.5077 31.0856 76.5077 31.7373 75.856C32.0936 75.4997 32.8151 75.0217 33.396 74.6615C33.7402 74.4515 34.0182 74.1488 34.1983 73.788C34.3783 73.4273 34.453 73.0231 34.4138 72.6218C34.3708 72.2232 34.2219 71.8948 33.8553 71.8643C32.8778 71.7828 31.7373 70.8867 31.7373 70.8867L29.7821 71.8643Z" fill="#2F2E41"/>
<path d="M27.4576 23.4152C29.3489 23.4152 30.882 21.8821 30.882 19.9908C30.882 18.0996 29.3489 16.5664 27.4576 16.5664C25.5664 16.5664 24.0332 18.0996 24.0332 19.9908C24.0332 21.8821 25.5664 23.4152 27.4576 23.4152Z" fill="#FFB8B8"/>
<path d="M25.2562 21.1152C25.2562 21.1152 22.8101 25.6159 22.6145 25.6159C22.4188 25.6159 27.0173 27.0835 27.0173 27.0835C27.0173 27.0835 28.2892 22.7785 28.4849 22.3872L25.2562 21.1152Z" fill="#FFB8B8"/>
<path d="M29.0073 26.0403C29.0073 26.0403 24.1195 23.352 23.6307 23.4335C23.1419 23.5149 17.9283 28.0769 18.0097 29.9505C18.0912 31.8242 18.7429 34.9198 18.7429 34.9198C18.7429 34.9198 18.9873 43.5549 19.4761 43.6364C19.9649 43.7179 19.3946 45.1842 19.5575 45.1842C19.7205 45.1842 30.9624 45.1842 31.0439 44.9398C31.1253 44.6954 29.0073 26.0403 29.0073 26.0403Z" fill="#A8C7FA"/>
<path d="M31.7377 45.3887C31.7377 45.3887 33.2855 50.1136 31.9821 49.9506C30.6786 49.7877 30.1084 45.8775 30.1084 45.8775L31.7377 45.3887Z" fill="#FFB8B8"/>
<path d="M27.5819 25.7544C27.5819 25.7544 24.5678 26.4061 25.0565 30.4793C25.5453 34.5525 26.4414 38.6256 26.4414 38.6256L29.4556 45.2242L29.7814 46.4461L31.9809 45.8759L30.3517 36.4261C30.3517 36.4261 29.7814 26.3247 29.0483 25.9988C28.5859 25.8017 28.0832 25.7179 27.5819 25.7544Z" fill="#A8C7FA"/>
<path opacity="0.4" d="M25.75 38.5054L29.4974 45.1853L26.3401 38.1465L25.75 38.5054Z" fill="#0B57D0"/>
<path d="M30.8666 18.9831L30.8779 18.7215L31.3985 18.851C31.3929 18.767 31.3691 18.6852 31.3289 18.6113C31.2886 18.5374 31.2327 18.473 31.1652 18.4228L31.7197 18.3918C31.2544 17.7306 30.6599 17.1705 29.9722 16.7455C29.2844 16.3205 28.5176 16.0392 27.7181 15.9188C26.5187 15.7449 25.1832 15.9965 24.3608 16.8866C23.9618 17.3184 23.7112 17.8674 23.5329 18.4276C23.2044 19.4593 23.1375 20.6891 23.8223 21.5277C24.5183 22.38 25.734 22.5469 26.8293 22.6524C27.2147 22.6895 27.6186 22.7241 27.9757 22.5745C28.0154 22.1649 27.963 21.7516 27.8222 21.3648C27.7636 21.2451 27.7356 21.1127 27.7407 20.9795C27.7894 20.6537 28.224 20.5716 28.5505 20.6156C28.877 20.6596 29.2696 20.727 29.4842 20.4769C29.632 20.3047 29.6233 20.0539 29.6428 19.8278C29.6961 19.2123 30.861 19.1122 30.8666 18.9831Z" fill="#2F2E41"/>
<path d="M51.8709 73.0738C54.0745 73.0738 55.8609 71.2874 55.8609 69.0838C55.8609 66.8801 54.0745 65.0938 51.8709 65.0938C49.6672 65.0938 47.8809 66.8801 47.8809 69.0838C47.8809 71.2874 49.6672 73.0738 51.8709 73.0738Z" fill="#FBBC04"/>
<path d="M5.01052 71.6812C7.21415 71.6812 9.00054 69.8948 9.00054 67.6912C9.00054 65.4876 7.21415 63.7012 5.01052 63.7012C2.8069 63.7012 1.02051 65.4876 1.02051 67.6912C1.02051 69.8948 2.8069 71.6812 5.01052 71.6812Z" fill="#0150CE"/>
<path d="M5.01031 65.2784C6.59897 65.2784 7.88683 63.9906 7.88683 62.4019C7.88683 60.8133 6.59897 59.5254 5.01031 59.5254C3.42165 59.5254 2.13379 60.8133 2.13379 62.4019C2.13379 63.9906 3.42165 65.2784 5.01031 65.2784Z" fill="#0150CE"/>
<path d="M5.01015 59.9891C6.13759 59.9891 7.05156 59.0751 7.05156 57.9477C7.05156 56.8202 6.13759 55.9062 5.01015 55.9062C3.88272 55.9062 2.96875 56.8202 2.96875 57.9477C2.96875 59.0751 3.88272 59.9891 5.01015 59.9891Z" fill="#0150CE"/>
</svg>
