<?xml version="1.0" encoding="UTF-8"?>
<svg width="288px" height="48px" viewBox="0 0 288 48" version="1.1" xmlns="http://www.w3.org/2000/svg" xmlns:xlink="http://www.w3.org/1999/xlink">
    <!-- Generator: Sketch 53.2 (72643) - https://sketchapp.com -->
    <title>Logo</title>
    <desc>Created with Sketch.</desc>
    <defs>
        <polygon id="path-1" points="8.22182902 13.3333333 8.22182902 34.6666667 40 34.6666667 40 13.3333333"></polygon>
    </defs>
    <g id="Logo" stroke="none" stroke-width="1" fill="none" fill-rule="evenodd">
        <g id="Group" transform="translate(47.000000, 11.000000)" fill="#3C4043" fill-rule="nonzero">
            <path d="M1.817,5.532 L6.808,5.532 C8.4946751,5.532 9.96666038,5.88082985 11.224,6.5785 C12.4813396,7.27617015 13.44733,8.24599379 14.122,9.488 C14.79667,10.7300062 15.134,12.155992 15.134,13.766 C15.134,15.376008 14.79667,16.8019938 14.122,18.044 C13.44733,19.2860062 12.4813396,20.2558298 11.224,20.9535 C9.96666038,21.6511702 8.4946751,22 6.808,22 L1.817,22 L1.817,5.532 Z M6.808,20.137 C8.75534307,20.137 10.2963277,19.5773389 11.431,18.458 C12.5656723,17.3386611 13.133,15.7746767 13.133,13.766 C13.133,11.7573233 12.5656723,10.1933389 11.431,9.074 C10.2963277,7.95466107 8.75534307,7.395 6.808,7.395 L3.772,7.395 L3.772,20.137 L6.808,20.137 Z M21.252,22.368 C20.4239959,22.368 19.6765033,22.2031683 19.0095,21.8735 C18.3424967,21.5438317 17.8211685,21.0838363 17.4455,20.4935 C17.0698315,19.9031637 16.882,19.2400037 16.882,18.504 C16.882,17.2926606 17.3381621,16.34967 18.2505,15.675 C19.1628379,15.00033 20.3319929,14.663 21.758,14.663 C22.4633369,14.663 23.0996638,14.7396659 23.667,14.893 C24.2343362,15.0463341 24.686665,15.2149991 25.024,15.399 L25.024,14.801 C25.024,14.2489972 24.8821681,13.7545022 24.5985,13.3175 C24.3148319,12.8804978 23.9353357,12.5431679 23.46,12.3055 C22.9846643,12.0678321 22.4710028,11.949 21.919,11.949 C20.6156602,11.949 19.6190035,12.4779947 18.929,13.536 L17.296,12.455 C17.7713357,11.7496631 18.3999961,11.201502 19.182,10.8105 C19.9640039,10.419498 20.8456618,10.224 21.827,10.224 C23.3910078,10.224 24.6253288,10.6456624 25.53,11.489 C26.4346712,12.3323375 26.887,13.4669929 26.887,14.893 L26.887,22 L25.024,22 L25.024,20.321 L24.932,20.321 C24.5639982,20.9036696 24.0656698,21.390498 23.437,21.7815 C22.8083302,22.172502 22.0800041,22.368 21.252,22.368 Z M21.413,20.643 C22.0263364,20.643 22.6089972,20.4820016 23.161,20.16 C23.7130028,19.8379984 24.1614983,19.4010028 24.5065,18.849 C24.8515017,18.2969972 25.024,17.6990032 25.024,17.055 C24.165329,16.5029972 23.1763389,16.227 22.057,16.227 C21.0909952,16.227 20.3205029,16.4454978 19.7455,16.8825 C19.1704971,17.3195022 18.883,17.87533 18.883,18.55 C18.883,19.1633364 19.1359975,19.665498 19.642,20.0565 C20.1480025,20.447502 20.73833,20.643 21.413,20.643 Z M33.948,22.184 C33.4879977,22.184 33.062502,22.1073341 32.6715,21.954 C32.280498,21.8006659 31.9470014,21.593668 31.671,21.333 C31.3643318,21.0416652 31.1381674,20.700502 30.9925,20.3095 C30.8468326,19.918498 30.774,19.4546693 30.774,18.918 L30.774,12.363 L28.75,12.363 L28.75,10.592 L30.774,10.592 L30.774,7.188 L32.706,7.188 L32.706,10.592 L35.512,10.592 L35.512,12.363 L32.706,12.363 L32.706,18.435 C32.706,19.0790032 32.836332,19.5543318 33.097,19.861 C33.357668,20.198335 33.7563306,20.367 34.293,20.367 C34.7683357,20.367 35.1823316,20.2596677 35.535,20.045 L35.535,21.931 C35.2896654,22.0230005 35.0558344,22.0881665 34.8335,22.1265 C34.6111656,22.1648335 34.3160018,22.184 33.948,22.184 Z M41.492,22.368 C40.6639959,22.368 39.9165033,22.2031683 39.2495,21.8735 C38.5824967,21.5438317 38.0611685,21.0838363 37.6855,20.4935 C37.3098315,19.9031637 37.122,19.2400037 37.122,18.504 C37.122,17.2926606 37.5781621,16.34967 38.4905,15.675 C39.4028379,15.00033 40.5719929,14.663 41.998,14.663 C42.7033369,14.663 43.3396638,14.7396659 43.907,14.893 C44.4743362,15.0463341 44.926665,15.2149991 45.264,15.399 L45.264,14.801 C45.264,14.2489972 45.1221681,13.7545022 44.8385,13.3175 C44.5548319,12.8804978 44.1753357,12.5431679 43.7,12.3055 C43.2246643,12.0678321 42.7110028,11.949 42.159,11.949 C40.8556601,11.949 39.8590035,12.4779947 39.169,13.536 L37.536,12.455 C38.0113357,11.7496631 38.6399961,11.201502 39.422,10.8105 C40.2040039,10.419498 41.0856618,10.224 42.067,10.224 C43.6310078,10.224 44.8653288,10.6456624 45.77,11.489 C46.6746712,12.3323375 47.127,13.4669929 47.127,14.893 L47.127,22 L45.264,22 L45.264,20.321 L45.172,20.321 C44.8039982,20.9036696 44.3056698,21.390498 43.677,21.7815 C43.0483302,22.172502 42.3200041,22.368 41.492,22.368 Z M41.653,20.643 C42.2663364,20.643 42.8489972,20.4820016 43.401,20.16 C43.9530028,19.8379984 44.4014983,19.4010028 44.7465,18.849 C45.0915017,18.2969972 45.264,17.6990032 45.264,17.055 C44.405329,16.5029972 43.4163389,16.227 42.297,16.227 C41.3309952,16.227 40.5605029,16.4454978 39.9855,16.8825 C39.4104971,17.3195022 39.123,17.87533 39.123,18.55 C39.123,19.1633364 39.3759975,19.665498 39.882,20.0565 C40.3880025,20.447502 40.97833,20.643 41.653,20.643 Z M63.227,22.368 C61.6476588,22.368 60.2063398,21.9923371 58.903,21.241 C57.5996601,20.4896629 56.5761704,19.4546733 55.8325,18.136 C55.0888296,16.8173267 54.717,15.3606746 54.717,13.766 C54.717,12.1713254 55.0888296,10.7146733 55.8325,9.396 C56.5761704,8.07732674 57.5996601,7.04233709 58.903,6.291 C60.2063398,5.53966291 61.6476588,5.164 63.227,5.164 C64.4690062,5.164 65.5998282,5.39783099 66.6195,5.8655 C67.6391718,6.33316901 68.5169963,6.99632904 69.253,7.855 L67.873,9.212 C67.2596636,8.46066291 66.5735038,7.90866843 65.8145,7.556 C65.0554962,7.20333157 64.1930048,7.027 63.227,7.027 C62.0463274,7.027 60.9576716,7.30683053 59.961,7.8665 C58.9643283,8.42616947 58.1708363,9.21582824 57.5805,10.2355 C56.9901637,11.2551718 56.695,12.4319933 56.695,13.766 C56.695,15.1000067 56.9901637,16.2768282 57.5805,17.2965 C58.1708363,18.3161718 58.9643283,19.1058305 59.961,19.6655 C60.9576716,20.2251695 62.0463274,20.505 63.227,20.505 C65.2356767,20.505 66.9376597,19.6846749 68.333,18.044 L69.736,19.424 C68.9846629,20.3286712 68.0493389,21.0454974 66.93,21.5745 C65.8106611,22.1035026 64.5763401,22.368 63.227,22.368 Z M77.303,22.368 C76.1836611,22.368 75.1793378,22.1035026 74.29,21.5745 C73.4006622,21.0454974 72.7068358,20.3171713 72.2085,19.3895 C71.7101642,18.4618287 71.461,17.4306723 71.461,16.296 C71.461,15.1613277 71.7101642,14.1301713 72.2085,13.2025 C72.7068358,12.2748287 73.4006622,11.5465026 74.29,11.0175 C75.1793378,10.4884974 76.1836611,10.224 77.303,10.224 C78.4223389,10.224 79.4304955,10.4884974 80.3275,11.0175 C81.2245045,11.5465026 81.9221642,12.2748287 82.4205,13.2025 C82.9188358,14.1301713 83.168,15.1613277 83.168,16.296 C83.168,17.4306723 82.9188358,18.4618287 82.4205,19.3895 C81.9221642,20.3171713 81.2245045,21.0454974 80.3275,21.5745 C79.4304955,22.1035026 78.4223389,22.368 77.303,22.368 Z M77.303,20.597 C77.9930034,20.597 78.636997,20.4206684 79.235,20.068 C79.833003,19.7153316 80.3121649,19.2131699 80.6725,18.5615 C81.0328351,17.9098301 81.213,17.154671 81.213,16.296 C81.213,15.437329 81.0328351,14.6821699 80.6725,14.0305 C80.3121649,13.3788301 79.833003,12.8766684 79.235,12.524 C78.636997,12.1713316 77.9930034,11.995 77.303,11.995 C76.62833,11.995 75.992003,12.1713316 75.394,12.524 C74.795997,12.8766684 74.3168351,13.3788301 73.9565,14.0305 C73.5961649,14.6821699 73.416,15.437329 73.416,16.296 C73.416,17.154671 73.5961649,17.9098301 73.9565,18.5615 C74.3168351,19.2131699 74.795997,19.7153316 75.394,20.068 C75.992003,20.4206684 76.62833,20.597 77.303,20.597 Z M85.376,10.592 L87.239,10.592 L87.239,12.294 L87.331,12.294 C87.6530016,11.7113304 88.1551633,11.2206687 88.8375,10.822 C89.5198367,10.4233313 90.2136631,10.224 90.919,10.224 C91.777671,10.224 92.5174969,10.4271646 93.1385,10.8335 C93.7595031,11.2398354 94.2079986,11.7956631 94.484,12.501 C94.9133355,11.8109965 95.46533,11.2590021 96.14,10.845 C96.81467,10.4309979 97.5889956,10.224 98.463,10.224 C99.7970067,10.224 100.80133,10.6303293 101.476,11.443 C102.15067,12.2556707 102.488,13.3749929 102.488,14.801 L102.488,22 L100.533,22 L100.533,15.1 C100.533,13.9806611 100.322169,13.1833357 99.9005,12.708 C99.4788312,12.2326643 98.8310044,11.995 97.957,11.995 C97.3743304,11.995 96.849169,12.1674983 96.3815,12.5125 C95.913831,12.8575017 95.549668,13.3136638 95.289,13.881 C95.028332,14.4483362 94.898,15.0463302 94.898,15.675 L94.898,22 L92.966,22 L92.966,15.1 C92.966,13.9806611 92.7513355,13.1833357 92.322,12.708 C91.8926645,12.2326643 91.248671,11.995 90.39,11.995 C89.791997,11.995 89.2630023,12.1713316 88.803,12.524 C88.3429977,12.8766684 87.982668,13.3366638 87.722,13.904 C87.461332,14.4713362 87.331,15.0769968 87.331,15.721 L87.331,22 L85.376,22 L85.376,10.592 Z M105.248,10.592 L107.111,10.592 L107.111,12.294 L107.203,12.294 C107.525002,11.7113304 108.027163,11.2206687 108.7095,10.822 C109.391837,10.4233313 110.085663,10.224 110.791,10.224 C111.649671,10.224 112.389497,10.4271646 113.0105,10.8335 C113.631503,11.2398354 114.079999,11.7956631 114.356,12.501 C114.785335,11.8109965 115.33733,11.2590021 116.012,10.845 C116.68667,10.4309979 117.460996,10.224 118.335,10.224 C119.669007,10.224 120.67333,10.6303293 121.348,11.443 C122.02267,12.2556707 122.36,13.3749929 122.36,14.801 L122.36,22 L120.405,22 L120.405,15.1 C120.405,13.9806611 120.194169,13.1833357 119.7725,12.708 C119.350831,12.2326643 118.703004,11.995 117.829,11.995 C117.24633,11.995 116.721169,12.1674983 116.2535,12.5125 C115.785831,12.8575017 115.421668,13.3136638 115.161,13.881 C114.900332,14.4483362 114.77,15.0463302 114.77,15.675 L114.77,22 L112.838,22 L112.838,15.1 C112.838,13.9806611 112.623335,13.1833357 112.194,12.708 C111.764665,12.2326643 111.120671,11.995 110.262,11.995 C109.663997,11.995 109.135002,12.1713316 108.675,12.524 C108.214998,12.8766684 107.854668,13.3366638 107.594,13.904 C107.333332,14.4713362 107.203,15.0769968 107.203,15.721 L107.203,22 L105.248,22 L105.248,10.592 Z M130.318,22.368 C129.198661,22.368 128.194338,22.1035026 127.305,21.5745 C126.415662,21.0454974 125.721836,20.3171713 125.2235,19.3895 C124.725164,18.4618287 124.476,17.4306723 124.476,16.296 C124.476,15.1613277 124.725164,14.1301713 125.2235,13.2025 C125.721836,12.2748287 126.415662,11.5465026 127.305,11.0175 C128.194338,10.4884974 129.198661,10.224 130.318,10.224 C131.437339,10.224 132.445496,10.4884974 133.3425,11.0175 C134.239504,11.5465026 134.937164,12.2748287 135.4355,13.2025 C135.933836,14.1301713 136.183,15.1613277 136.183,16.296 C136.183,17.4306723 135.933836,18.4618287 135.4355,19.3895 C134.937164,20.3171713 134.239504,21.0454974 133.3425,21.5745 C132.445496,22.1035026 131.437339,22.368 130.318,22.368 Z M130.318,20.597 C131.008003,20.597 131.651997,20.4206684 132.25,20.068 C132.848003,19.7153316 133.327165,19.2131699 133.6875,18.5615 C134.047835,17.9098301 134.228,17.154671 134.228,16.296 C134.228,15.437329 134.047835,14.6821699 133.6875,14.0305 C133.327165,13.3788301 132.848003,12.8766684 132.25,12.524 C131.651997,12.1713316 131.008003,11.995 130.318,11.995 C129.64333,11.995 129.007003,12.1713316 128.409,12.524 C127.810997,12.8766684 127.331835,13.3788301 126.9715,14.0305 C126.611165,14.6821699 126.431,15.437329 126.431,16.296 C126.431,17.154671 126.611165,17.9098301 126.9715,18.5615 C127.331835,19.2131699 127.810997,19.7153316 128.409,20.068 C129.007003,20.4206684 129.64333,20.597 130.318,20.597 Z M138.391,10.592 L140.254,10.592 L140.254,12.294 L140.346,12.294 C140.668002,11.7113304 141.173997,11.2206687 141.864,10.822 C142.554003,10.4233313 143.289996,10.224 144.072,10.224 C145.46734,10.224 146.529163,10.6303293 147.2575,11.443 C147.985837,12.2556707 148.35,13.3673263 148.35,14.778 L148.35,22 L146.418,22 L146.418,15.077 C146.418,13.0223231 145.459676,11.995 143.543,11.995 C142.929664,11.995 142.377669,12.1713316 141.887,12.524 C141.396331,12.8766684 141.016835,13.3366638 140.7485,13.904 C140.480165,14.4713362 140.346,15.0693302 140.346,15.698 L140.346,22 L138.391,22 L138.391,10.592 Z M155.158,22.368 C153.946661,22.368 152.919338,22.0613364 152.076,21.448 C151.232662,20.8346636 150.642335,20.0756712 150.305,19.171 L152.03,18.412 C152.336668,19.1326703 152.769831,19.6846647 153.3295,20.068 C153.889169,20.4513352 154.498663,20.643 155.158,20.643 C155.894004,20.643 156.503498,20.4820016 156.9865,20.16 C157.469502,19.8379984 157.711,19.4470023 157.711,18.987 C157.711,18.5423311 157.530835,18.1743348 157.1705,17.883 C156.810165,17.5916652 156.193004,17.3386677 155.319,17.124 L153.755,16.733 C152.896329,16.5336657 152.16417,16.1733359 151.5585,15.652 C150.95283,15.1306641 150.65,14.440671 150.65,13.582 C150.65,12.8766631 150.853165,12.2710025 151.2595,11.765 C151.665835,11.2589975 152.20633,10.875668 152.881,10.615 C153.55567,10.354332 154.291663,10.224 155.089,10.224 C156.070338,10.224 156.963496,10.4501644 157.7685,10.9025 C158.573504,11.3548356 159.144665,11.9949959 159.482,12.823 L157.757,13.559 C157.511665,13.0069972 157.139836,12.600668 156.6415,12.34 C156.143164,12.079332 155.587336,11.949 154.974,11.949 C154.375997,11.949 153.835502,12.0946652 153.3525,12.386 C152.869498,12.6773348 152.628,13.0529977 152.628,13.513 C152.628,13.9116687 152.785165,14.2259988 153.0995,14.456 C153.413835,14.6860011 153.915997,14.8929991 154.606,15.077 L156.308,15.491 C157.442672,15.7823348 158.289831,16.2154971 158.8495,16.7905 C159.409169,17.3655029 159.689,18.0516627 159.689,18.849 C159.689,19.5083366 159.497335,20.1063307 159.114,20.643 C158.730665,21.1796694 158.194003,21.6013318 157.504,21.908 C156.813997,22.2146682 156.032004,22.368 155.158,22.368 Z M175.237,22.368 C173.688326,22.368 172.258507,21.9923371 170.9475,21.241 C169.636493,20.4896629 168.601504,19.4546733 167.8425,18.136 C167.083496,16.8173267 166.704,15.3606746 166.704,13.766 C166.704,12.1713254 167.083496,10.7146733 167.8425,9.396 C168.601504,8.07732674 169.636493,7.04233709 170.9475,6.291 C172.258507,5.53966291 173.688326,5.164 175.237,5.164 C176.448339,5.164 177.586828,5.37866452 178.6525,5.808 C179.718172,6.23733548 180.595997,6.84299609 181.286,7.625 L179.883,9.028 C179.361664,8.38399678 178.690837,7.88950172 177.8705,7.5445 C177.050163,7.19949827 176.172338,7.027 175.237,7.027 C174.086994,7.027 173.009838,7.30683053 172.0055,7.8665 C171.001162,8.42616947 170.19617,9.21582824 169.5905,10.2355 C168.98483,11.2551718 168.682,12.4319933 168.682,13.766 C168.682,15.1000067 168.98483,16.2768282 169.5905,17.2965 C170.19617,18.3161718 171.001162,19.1058305 172.0055,19.6655 C173.009838,20.2251695 174.086994,20.505 175.237,20.505 C176.341006,20.505 177.26483,20.3325017 178.0085,19.9875 C178.75217,19.6424983 179.399997,19.1863362 179.952,18.619 C180.350669,18.1896645 180.672665,17.6683364 180.918,17.055 C181.163335,16.4416636 181.309,15.7746703 181.355,15.054 L175.283,15.054 L175.283,13.237 L183.195,13.237 C183.271667,13.6663355 183.31,14.0649982 183.31,14.433 C183.31,15.4450051 183.149002,16.4301619 182.827,17.3885 C182.504998,18.3468381 181.991337,19.1863297 181.286,19.907 C179.737326,21.5476749 177.721012,22.368 175.237,22.368 Z M185.771,10.592 L187.634,10.592 L187.634,12.455 L187.726,12.455 C187.940668,11.8263302 188.381497,11.3011688 189.0485,10.8795 C189.715503,10.4578312 190.378663,10.247 191.038,10.247 C191.513336,10.247 191.957998,10.3159993 192.372,10.454 L192.372,12.57 C191.957998,12.3399989 191.421337,12.225 190.762,12.225 C190.225331,12.225 189.723169,12.3821651 189.2555,12.6965 C188.787831,13.0108349 188.416001,13.4286641 188.14,13.95 C187.863999,14.4713359 187.726,15.0386636 187.726,15.652 L187.726,22 L185.771,22 L185.771,10.592 Z M197.892,22.368 C197.063996,22.368 196.316503,22.2031683 195.6495,21.8735 C194.982497,21.5438317 194.461169,21.0838363 194.0855,20.4935 C193.709831,19.9031637 193.522,19.2400037 193.522,18.504 C193.522,17.2926606 193.978162,16.34967 194.8905,15.675 C195.802838,15.00033 196.971993,14.663 198.398,14.663 C199.103337,14.663 199.739664,14.7396659 200.307,14.893 C200.874336,15.0463341 201.326665,15.2149991 201.664,15.399 L201.664,14.801 C201.664,14.2489972 201.522168,13.7545022 201.2385,13.3175 C200.954832,12.8804978 200.575336,12.5431679 200.1,12.3055 C199.624664,12.0678321 199.111003,11.949 198.559,11.949 C197.25566,11.949 196.259003,12.4779947 195.569,13.536 L193.936,12.455 C194.411336,11.7496631 195.039996,11.201502 195.822,10.8105 C196.604004,10.419498 197.485662,10.224 198.467,10.224 C200.031008,10.224 201.265329,10.6456624 202.17,11.489 C203.074671,12.3323375 203.527,13.4669929 203.527,14.893 L203.527,22 L201.664,22 L201.664,20.321 L201.572,20.321 C201.203998,20.9036696 200.70567,21.390498 200.077,21.7815 C199.44833,22.172502 198.720004,22.368 197.892,22.368 Z M198.053,20.643 C198.666336,20.643 199.248997,20.4820016 199.801,20.16 C200.353003,19.8379984 200.801498,19.4010028 201.1465,18.849 C201.491502,18.2969972 201.664,17.6990032 201.664,17.055 C200.805329,16.5029972 199.816339,16.227 198.697,16.227 C197.730995,16.227 196.960503,16.4454978 196.3855,16.8825 C195.810497,17.3195022 195.523,17.87533 195.523,18.55 C195.523,19.1633364 195.775997,19.665498 196.282,20.0565 C196.788003,20.447502 197.37833,20.643 198.053,20.643 Z M206.103,10.592 L207.966,10.592 L207.966,12.271 L208.058,12.271 C208.426002,11.6883304 208.954997,11.201502 209.645,10.8105 C210.335003,10.419498 211.132329,10.224 212.037,10.224 C213.018338,10.224 213.922996,10.4884974 214.751,11.0175 C215.579004,11.5465026 216.238331,12.2709954 216.729,13.191 C217.219669,14.1110046 217.465,15.1459942 217.465,16.296 C217.465,17.4460058 217.219669,18.4809954 216.729,19.401 C216.238331,20.3210046 215.579004,21.0454974 214.751,21.5745 C213.922996,22.1035026 213.018338,22.368 212.037,22.368 C211.132329,22.368 210.33117,22.172502 209.6335,21.7815 C208.93583,21.390498 208.410668,20.896003 208.058,20.298 L207.966,20.298 L208.058,21.885 L208.058,26.968 L206.103,26.968 L206.103,10.592 Z M211.738,20.597 C212.41267,20.597 213.037497,20.4206684 213.6125,20.068 C214.187503,19.7153316 214.647498,19.2131699 214.9925,18.5615 C215.337502,17.9098301 215.51,17.154671 215.51,16.296 C215.51,15.437329 215.337502,14.6821699 214.9925,14.0305 C214.647498,13.3788301 214.187503,12.8766684 213.6125,12.524 C213.037497,12.1713316 212.41267,11.995 211.738,11.995 C211.06333,11.995 210.438503,12.1674983 209.8635,12.5125 C209.288497,12.8575017 208.828502,13.3558301 208.4835,14.0075 C208.138498,14.6591699 207.966,15.4219956 207.966,16.296 C207.966,17.154671 208.138498,17.9136634 208.4835,18.573 C208.828502,19.2323366 209.288497,19.7344983 209.8635,20.0795 C210.438503,20.4245017 211.06333,20.597 211.738,20.597 Z M219.673,5.532 L221.628,5.532 L221.628,10.684 L221.536,12.317 L221.628,12.317 C221.950002,11.718997 222.452163,11.2206687 223.1345,10.822 C223.816837,10.4233313 224.556663,10.224 225.354,10.224 C226.780007,10.224 227.85333,10.6379959 228.574,11.466 C229.29467,12.2940041 229.655,13.3979931 229.655,14.778 L229.655,22 L227.723,22 L227.723,15.077 C227.723,14.0189947 227.466169,13.2408358 226.9525,12.7425 C226.438831,12.2441642 225.752671,11.995 224.894,11.995 C224.280664,11.995 223.724836,12.1751649 223.2265,12.5355 C222.728164,12.8958351 222.337168,13.3711637 222.0535,13.9615 C221.769832,14.5518363 221.628,15.1613302 221.628,15.79 L221.628,22 L219.673,22 L219.673,5.532 Z" id="DataCommonsGraph"></path>
        </g>
        <g id="ic_show_chart_black_18dp">
            <rect id="Rectangle" fill-rule="nonzero" x="0" y="0" width="48" height="48"></rect>
            <mask id="mask-2" fill="white">
                <use xlink:href="#path-1"></use>
            </mask>
            <g id="Line-3" opacity="0.300000012" fill-rule="nonzero"></g>
            <polygon id="Path" fill="#FBBC05" fill-rule="nonzero" mask="url(#mask-2)" points="9.33333333 35.4586667 18.9333333 25.8346667 25.3333333 32.2346667 38.9333333 16.9386667 36.6773333 14.6746667 25.3333333 27.4346667 18.9333333 21.0346667 6.93333333 33.0586667"></polygon>
            <polyline id="Line-3" stroke="#BBBCBD" stroke-width="1.06666671" stroke-linecap="square" fill-rule="nonzero" points="8.22182902 13.3333333 8.22182902 34.6666667 40 34.6666667"></polyline>
        </g>
    </g>
</svg>