<?xml version="1.0" encoding="UTF-8"?>
<svg width="300px" height="300px" viewBox="0 0 300 300" version="1.1" xmlns="http://www.w3.org/2000/svg" xmlns:xlink="http://www.w3.org/1999/xlink">
    <title>Slice</title>
    <defs>
        <polygon id="path-1" points="-1.42108547e-14 -1.0658141e-14 241.4 -1.0658141e-14 241.4 237.9 -1.42108547e-14 237.9"></polygon>
        <polygon id="path-3" points="-1.42108547e-14 -1.0658141e-14 241.4 -1.0658141e-14 241.4 237.9 -1.42108547e-14 237.9"></polygon>
        <polygon id="path-5" points="-1.42108547e-14 -1.0658141e-14 241.4 -1.0658141e-14 241.4 237.9 -1.42108547e-14 237.9"></polygon>
        <polygon id="path-7" points="-1.42108547e-14 -1.0658141e-14 241.4 -1.0658141e-14 241.4 237.9 -1.42108547e-14 237.9"></polygon>
        <polygon id="path-9" points="-1.42108547e-14 -1.0658141e-14 241.4 -1.0658141e-14 241.4 237.9 -1.42108547e-14 237.9"></polygon>
        <polygon id="path-11" points="-1.42108547e-14 -1.0658141e-14 241.4 -1.0658141e-14 241.4 237.9 -1.42108547e-14 237.9"></polygon>
        <polygon id="path-13" points="-1.42108547e-14 -1.0658141e-14 241.4 -1.0658141e-14 241.4 237.9 -1.42108547e-14 237.9"></polygon>
        <polygon id="path-15" points="-1.42108547e-14 -1.0658141e-14 241.4 -1.0658141e-14 241.4 237.9 -1.42108547e-14 237.9"></polygon>
        <polygon id="path-17" points="-1.42108547e-14 -1.0658141e-14 241.4 -1.0658141e-14 241.4 237.9 -1.42108547e-14 237.9"></polygon>
        <polygon id="path-19" points="-1.42108547e-14 -1.0658141e-14 241.4 -1.0658141e-14 241.4 237.9 -1.42108547e-14 237.9"></polygon>
        <polygon id="path-21" points="-1.42108547e-14 -1.0658141e-14 241.4 -1.0658141e-14 241.4 237.9 -1.42108547e-14 237.9"></polygon>
        <polygon id="path-23" points="-1.42108547e-14 -1.0658141e-14 241.4 -1.0658141e-14 241.4 237.9 -1.42108547e-14 237.9"></polygon>
        <polygon id="path-25" points="-1.42108547e-14 -1.0658141e-14 241.4 -1.0658141e-14 241.4 237.9 -1.42108547e-14 237.9"></polygon>
        <polygon id="path-27" points="-1.42108547e-14 -1.0658141e-14 241.4 -1.0658141e-14 241.4 237.9 -1.42108547e-14 237.9"></polygon>
        <polygon id="path-29" points="-1.42108547e-14 -1.0658141e-14 241.4 -1.0658141e-14 241.4 237.9 -1.42108547e-14 237.9"></polygon>
        <polygon id="path-31" points="-1.42108547e-14 -1.0658141e-14 241.4 -1.0658141e-14 241.4 237.9 -1.42108547e-14 237.9"></polygon>
        <polygon id="path-33" points="-1.42108547e-14 -1.0658141e-14 241.4 -1.0658141e-14 241.4 237.9 -1.42108547e-14 237.9"></polygon>
        <polygon id="path-35" points="-1.42108547e-14 -1.0658141e-14 241.4 -1.0658141e-14 241.4 237.9 -1.42108547e-14 237.9"></polygon>
        <polygon id="path-37" points="-1.42108547e-14 -1.0658141e-14 241.4 -1.0658141e-14 241.4 237.9 -1.42108547e-14 237.9"></polygon>
        <polygon id="path-39" points="-1.42108547e-14 -1.0658141e-14 241.4 -1.0658141e-14 241.4 237.9 -1.42108547e-14 237.9"></polygon>
        <polygon id="path-41" points="-1.42108547e-14 -1.0658141e-14 241.4 -1.0658141e-14 241.4 237.9 -1.42108547e-14 237.9"></polygon>
        <polygon id="path-43" points="-1.42108547e-14 -1.0658141e-14 241.4 -1.0658141e-14 241.4 237.9 -1.42108547e-14 237.9"></polygon>
        <polygon id="path-45" points="-1.42108547e-14 -1.0658141e-14 241.4 -1.0658141e-14 241.4 237.9 -1.42108547e-14 237.9"></polygon>
        <polygon id="path-47" points="-1.42108547e-14 -1.0658141e-14 241.4 -1.0658141e-14 241.4 237.9 -1.42108547e-14 237.9"></polygon>
        <polygon id="path-49" points="-1.42108547e-14 -1.0658141e-14 241.4 -1.0658141e-14 241.4 237.9 -1.42108547e-14 237.9"></polygon>
        <polygon id="path-51" points="-1.42108547e-14 -1.0658141e-14 241.4 -1.0658141e-14 241.4 237.9 -1.42108547e-14 237.9"></polygon>
        <polygon id="path-53" points="-1.42108547e-14 -1.0658141e-14 241.4 -1.0658141e-14 241.4 237.9 -1.42108547e-14 237.9"></polygon>
        <polygon id="path-55" points="-1.42108547e-14 -1.0658141e-14 241.4 -1.0658141e-14 241.4 237.9 -1.42108547e-14 237.9"></polygon>
        <polygon id="path-57" points="-1.42108547e-14 -1.0658141e-14 241.4 -1.0658141e-14 241.4 237.9 -1.42108547e-14 237.9"></polygon>
        <polygon id="path-59" points="-1.42108547e-14 -1.0658141e-14 241.4 -1.0658141e-14 241.4 237.9 -1.42108547e-14 237.9"></polygon>
        <polygon id="path-61" points="-1.42108547e-14 -1.0658141e-14 241.4 -1.0658141e-14 241.4 237.9 -1.42108547e-14 237.9"></polygon>
        <polygon id="path-63" points="-1.42108547e-14 -1.0658141e-14 241.4 -1.0658141e-14 241.4 237.9 -1.42108547e-14 237.9"></polygon>
        <polygon id="path-65" points="-1.42108547e-14 -1.0658141e-14 241.4 -1.0658141e-14 241.4 237.9 -1.42108547e-14 237.9"></polygon>
        <polygon id="path-67" points="-1.42108547e-14 -1.0658141e-14 241.4 -1.0658141e-14 241.4 237.9 -1.42108547e-14 237.9"></polygon>
        <polygon id="path-69" points="-1.42108547e-14 -1.0658141e-14 241.4 -1.0658141e-14 241.4 237.9 -1.42108547e-14 237.9"></polygon>
        <polygon id="path-71" points="-1.42108547e-14 -1.0658141e-14 241.4 -1.0658141e-14 241.4 237.9 -1.42108547e-14 237.9"></polygon>
        <polygon id="path-73" points="-1.42108547e-14 -1.0658141e-14 241.4 -1.0658141e-14 241.4 237.9 -1.42108547e-14 237.9"></polygon>
        <polygon id="path-75" points="-1.42108547e-14 -1.0658141e-14 241.4 -1.0658141e-14 241.4 237.9 -1.42108547e-14 237.9"></polygon>
        <polygon id="path-77" points="-1.42108547e-14 -1.0658141e-14 241.4 -1.0658141e-14 241.4 237.9 -1.42108547e-14 237.9"></polygon>
        <polygon id="path-79" points="-1.42108547e-14 -1.0658141e-14 241.4 -1.0658141e-14 241.4 237.9 -1.42108547e-14 237.9"></polygon>
        <polygon id="path-81" points="-1.42108547e-14 -1.0658141e-14 241.4 -1.0658141e-14 241.4 237.9 -1.42108547e-14 237.9"></polygon>
        <polygon id="path-83" points="-1.42108547e-14 -1.0658141e-14 241.4 -1.0658141e-14 241.4 237.9 -1.42108547e-14 237.9"></polygon>
        <polygon id="path-85" points="-1.42108547e-14 -1.0658141e-14 241.4 -1.0658141e-14 241.4 237.9 -1.42108547e-14 237.9"></polygon>
        <polygon id="path-87" points="-1.42108547e-14 -1.0658141e-14 241.4 -1.0658141e-14 241.4 237.9 -1.42108547e-14 237.9"></polygon>
        <polygon id="path-89" points="-1.42108547e-14 -1.0658141e-14 241.4 -1.0658141e-14 241.4 237.9 -1.42108547e-14 237.9"></polygon>
        <polygon id="path-91" points="-1.42108547e-14 -1.0658141e-14 241.4 -1.0658141e-14 241.4 237.9 -1.42108547e-14 237.9"></polygon>
        <polygon id="path-93" points="-1.42108547e-14 -1.0658141e-14 241.4 -1.0658141e-14 241.4 237.9 -1.42108547e-14 237.9"></polygon>
        <polygon id="path-95" points="-1.42108547e-14 -1.0658141e-14 241.4 -1.0658141e-14 241.4 237.9 -1.42108547e-14 237.9"></polygon>
        <polygon id="path-97" points="-1.42108547e-14 -1.0658141e-14 241.4 -1.0658141e-14 241.4 237.9 -1.42108547e-14 237.9"></polygon>
        <polygon id="path-99" points="-1.42108547e-14 -1.0658141e-14 241.4 -1.0658141e-14 241.4 237.9 -1.42108547e-14 237.9"></polygon>
        <polygon id="path-101" points="-1.42108547e-14 -1.0658141e-14 241.4 -1.0658141e-14 241.4 237.9 -1.42108547e-14 237.9"></polygon>
        <polygon id="path-103" points="-1.42108547e-14 -1.0658141e-14 241.4 -1.0658141e-14 241.4 237.9 -1.42108547e-14 237.9"></polygon>
        <polygon id="path-105" points="-1.42108547e-14 -1.0658141e-14 241.4 -1.0658141e-14 241.4 237.9 -1.42108547e-14 237.9"></polygon>
        <polygon id="path-107" points="-1.42108547e-14 -1.0658141e-14 241.4 -1.0658141e-14 241.4 237.9 -1.42108547e-14 237.9"></polygon>
        <polygon id="path-109" points="-1.42108547e-14 -1.0658141e-14 241.4 -1.0658141e-14 241.4 237.9 -1.42108547e-14 237.9"></polygon>
        <polygon id="path-111" points="-1.42108547e-14 -1.0658141e-14 241.4 -1.0658141e-14 241.4 237.9 -1.42108547e-14 237.9"></polygon>
        <polygon id="path-113" points="-1.42108547e-14 -1.0658141e-14 241.4 -1.0658141e-14 241.4 237.9 -1.42108547e-14 237.9"></polygon>
        <polygon id="path-115" points="0 0 241.4 0 241.4 237.9 0 237.9"></polygon>
    </defs>
    <g id="Page-4" stroke="none" stroke-width="1" fill="none" fill-rule="evenodd">
        <g id="chart-(85)" transform="translate(0.000000, 2.000000)">
            <polygon id="Path" fill="#FFFFFF" fill-rule="nonzero" points="0 0 299 0 299 296 0 296"></polygon>
            <line x1="48.5" y1="22.5" x2="48.5" y2="260.5" id="Path" stroke="#d9d9d9"></line>
            <line x1="87.5" y1="22.5" x2="87.5" y2="260.5" id="Path" stroke="#d9d9d9"></line>
            <line x1="126.5" y1="22.5" x2="126.5" y2="260.5" id="Path" stroke="#d9d9d9"></line>
            <line x1="166.5" y1="22.5" x2="166.5" y2="260.5" id="Path" stroke="#d9d9d9"></line>
            <line x1="205.5" y1="22.5" x2="205.5" y2="260.5" id="Path" stroke="#d9d9d9"></line>
            <line x1="244.5" y1="22.5" x2="244.5" y2="260.5" id="Path" stroke="#d9d9d9"></line>
            <line x1="42.5" y1="260.5" x2="284.5" y2="260.5" id="Path" stroke="#d9d9d9"></line>
            <line x1="42.5" y1="212.5" x2="284.5" y2="212.5" id="Path" stroke="#d9d9d9"></line>
            <line x1="42.5" y1="165.5" x2="284.5" y2="165.5" id="Path" stroke="#d9d9d9"></line>
            <line x1="42.5" y1="117.5" x2="284.5" y2="117.5" id="Path" stroke="#d9d9d9"></line>
            <line x1="42.5" y1="69.5" x2="284.5" y2="69.5" id="Path" stroke="#d9d9d9"></line>
            <line x1="42.5" y1="22.5" x2="284.5" y2="22.5" id="Path" stroke="#d9d9d9"></line>
            <g id="kern" transform="translate(42.800000, 22.300000)">
                <mask id="mask-2" fill="white">
                    <use xlink:href="#path-1"></use>
                </mask>
                <g id="Path"></g>
                <path d="M169.272,107.5937 C169.272,110.07898 167.25728,112.0937 164.772,112.0937 C162.28672,112.0937 160.272,110.07898 160.272,107.5937 C160.272,105.10842 162.28672,103.0937 164.772,103.0937 C167.25728,103.0937 169.272,105.10842 169.272,107.5937 Z" id="Path" stroke="#FFE500" fill="#166328" fill-rule="nonzero" mask="url(#mask-2)"></path>
            </g>
            <g id="Clipped" transform="translate(42.800000, 22.300000)">
                <mask id="mask-4" fill="white">
                    <use xlink:href="#path-3"></use>
                </mask>
                <g id="Path"></g>
                <path d="M55.985385,155.58464 C55.985385,158.06993 53.97066,160.08464 51.485385,160.08464 C49.0001,160.08464 46.985385,158.06993 46.985385,155.58464 C46.985385,153.09937 49.0001,151.08464 51.485385,151.08464 C53.97066,151.08464 55.985385,153.09937 55.985385,155.58464 Z" id="Path" fill-opacity="0.7019608" fill="#166328" fill-rule="nonzero" mask="url(#mask-4)"></path>
            </g>
            <g id="Clipped" transform="translate(42.800000, 22.300000)">
                <mask id="mask-6" fill="white">
                    <use xlink:href="#path-5"></use>
                </mask>
                <g id="Path"></g>
                <path d="M106.44919,176.90763 C106.44919,179.3929 104.43447,181.40763 101.94919,181.40763 C99.46392,181.40763 97.44919,179.3929 97.44919,176.90763 C97.44919,174.42235 99.46392,172.40763 101.94919,172.40763 C104.43447,172.40763 106.44919,174.42235 106.44919,176.90763 Z" id="Path" fill-opacity="0.7019608" fill="#166328" fill-rule="nonzero" mask="url(#mask-6)"></path>
            </g>
            <g id="Clipped" transform="translate(42.800000, 22.300000)">
                <mask id="mask-8" fill="white">
                    <use xlink:href="#path-7"></use>
                </mask>
                <g id="Path"></g>
                <path d="M76.26979,187.02828 C76.26979,189.51355 74.25508,191.52828 71.76979,191.52828 C69.28452,191.52828 67.26979,189.51355 67.26979,187.02828 C67.26979,184.54299 69.28452,182.52828 71.76979,182.52828 C74.25508,182.52828 76.26979,184.54299 76.26979,187.02828 Z" id="Path" fill-opacity="0.7019608" fill="#166328" fill-rule="nonzero" mask="url(#mask-8)"></path>
            </g>
            <g id="Clipped" transform="translate(42.800000, 22.300000)">
                <mask id="mask-10" fill="white">
                    <use xlink:href="#path-9"></use>
                </mask>
                <g id="Path"></g>
                <path d="M153.1461,181.59478 C153.1461,184.08007 151.13138,186.09478 148.6461,186.09478 C146.16082,186.09478 144.1461,184.08007 144.1461,181.59478 C144.1461,179.1095 146.16082,177.09478 148.6461,177.09478 C151.13138,177.09478 153.1461,179.1095 153.1461,181.59478 Z" id="Path" fill-opacity="0.7019608" fill="#166328" fill-rule="nonzero" mask="url(#mask-10)"></path>
            </g>
            <g id="Clipped" transform="translate(42.800000, 22.300000)">
                <mask id="mask-12" fill="white">
                    <use xlink:href="#path-11"></use>
                </mask>
                <g id="Path"></g>
                <path d="M84.5552,181.42635 C84.5552,183.91162 82.540485,185.92635 80.0552,185.92635 C77.56993,185.92635 75.5552,183.91162 75.5552,181.42635 C75.5552,178.94106 77.56993,176.92635 80.0552,176.92635 C82.540485,176.92635 84.5552,178.94106 84.5552,181.42635 Z" id="Path" fill-opacity="0.7019608" fill="#166328" fill-rule="nonzero" mask="url(#mask-12)"></path>
            </g>
            <g id="Clipped" transform="translate(42.800000, 22.300000)">
                <mask id="mask-14" fill="white">
                    <use xlink:href="#path-13"></use>
                </mask>
                <g id="Path"></g>
                <path d="M178.36887,183.3561 C178.36887,185.84137 176.35416,187.8561 173.86887,187.8561 C171.3836,187.8561 169.36887,185.84137 169.36887,183.3561 C169.36887,180.87082 171.3836,178.8561 173.86887,178.8561 C176.35416,178.8561 178.36887,180.87082 178.36887,183.3561 Z" id="Path" fill-opacity="0.7019608" fill="#166328" fill-rule="nonzero" mask="url(#mask-14)"></path>
            </g>
            <g id="Clipped" transform="translate(42.800000, 22.300000)">
                <mask id="mask-16" fill="white">
                    <use xlink:href="#path-15"></use>
                </mask>
                <g id="Path"></g>
                <path d="M54.43149,163.2557 C54.43149,165.74097 52.416774,167.7557 49.93149,167.7557 C47.44621,167.7557 45.43149,165.74097 45.43149,163.2557 C45.43149,160.7704 47.44621,158.7557 49.93149,158.7557 C52.416774,158.7557 54.43149,160.7704 54.43149,163.2557 Z" id="Path" fill-opacity="0.7019608" fill="#166328" fill-rule="nonzero" mask="url(#mask-16)"></path>
            </g>
            <g id="Clipped" transform="translate(42.800000, 22.300000)">
                <mask id="mask-18" fill="white">
                    <use xlink:href="#path-17"></use>
                </mask>
                <g id="Path"></g>
                <path d="M231.30312,158.4001 C231.30312,160.88538 229.2884,162.9001 226.80312,162.9001 C224.31783,162.9001 222.30312,160.88538 222.30312,158.4001 C222.30312,155.91481 224.31783,153.9001 226.80312,153.9001 C229.2884,153.9001 231.30312,155.91481 231.30312,158.4001 Z" id="Path" fill-opacity="0.7019608" fill="#166328" fill-rule="nonzero" mask="url(#mask-18)"></path>
            </g>
            <g id="Clipped" transform="translate(42.800000, 22.300000)">
                <mask id="mask-20" fill="white">
                    <use xlink:href="#path-19"></use>
                </mask>
                <g id="Path"></g>
                <path d="M53.23465,186.03362 C53.23465,188.5189 51.219936,190.53362 48.73465,190.53362 C46.24937,190.53362 44.23465,188.5189 44.23465,186.03362 C44.23465,183.54833 46.24937,181.53362 48.73465,181.53362 C51.219936,181.53362 53.23465,183.54833 53.23465,186.03362 Z" id="Path" fill-opacity="0.7019608" fill="#166328" fill-rule="nonzero" mask="url(#mask-20)"></path>
            </g>
            <g id="Clipped" transform="translate(42.800000, 22.300000)">
                <mask id="mask-22" fill="white">
                    <use xlink:href="#path-21"></use>
                </mask>
                <g id="Path"></g>
                <path d="M203.90387,149.23781 C203.90387,151.72309 201.88915,153.73781 199.40387,153.73781 C196.9186,153.73781 194.90387,151.72309 194.90387,149.23781 C194.90387,146.75254 196.9186,144.73781 199.40387,144.73781 C201.88915,144.73781 203.90387,146.75254 203.90387,149.23781 Z" id="Path" fill-opacity="0.7019608" fill="#166328" fill-rule="nonzero" mask="url(#mask-22)"></path>
            </g>
            <g id="Clipped" transform="translate(42.800000, 22.300000)">
                <mask id="mask-24" fill="white">
                    <use xlink:href="#path-23"></use>
                </mask>
                <g id="Path"></g>
                <path d="M153.27292,184.30422 C153.27292,186.78951 151.25821,188.80422 148.77292,188.80422 C146.28765,188.80422 144.27292,186.78951 144.27292,184.30422 C144.27292,181.81894 146.28765,179.80422 148.77292,179.80422 C151.25821,179.80422 153.27292,181.81894 153.27292,184.30422 Z" id="Path" fill-opacity="0.7019608" fill="#166328" fill-rule="nonzero" mask="url(#mask-24)"></path>
            </g>
            <g id="Clipped" transform="translate(42.800000, 22.300000)">
                <mask id="mask-26" fill="white">
                    <use xlink:href="#path-25"></use>
                </mask>
                <g id="Path"></g>
                <path d="M174.39336,153.66503 C174.39336,156.15032 172.37863,158.16503 169.89336,158.16503 C167.40807,158.16503 165.39336,156.15032 165.39336,153.66503 C165.39336,151.17975 167.40807,149.16503 169.89336,149.16503 C172.37863,149.16503 174.39336,151.17975 174.39336,153.66503 Z" id="Path" fill-opacity="0.7019608" fill="#166328" fill-rule="nonzero" mask="url(#mask-26)"></path>
            </g>
            <g id="Clipped" transform="translate(42.800000, 22.300000)">
                <mask id="mask-28" fill="white">
                    <use xlink:href="#path-27"></use>
                </mask>
                <g id="Path"></g>
                <path d="M178.10973,46.187522 C178.10973,48.67281 176.095,50.687522 173.60973,50.687522 C171.12445,50.687522 169.10973,48.67281 169.10973,46.187522 C169.10973,43.70224 171.12445,41.687522 173.60973,41.687522 C176.095,41.687522 178.10973,43.70224 178.10973,46.187522 Z" id="Path" fill-opacity="0.7019608" fill="#166328" fill-rule="nonzero" mask="url(#mask-28)"></path>
            </g>
            <g id="Clipped" transform="translate(42.800000, 22.300000)">
                <mask id="mask-30" fill="white">
                    <use xlink:href="#path-29"></use>
                </mask>
                <g id="Path"></g>
                <path d="M107.36632,80.50617 C107.36632,82.99145 105.3516,85.00617 102.86632,85.00617 C100.38103,85.00617 98.36632,82.99145 98.36632,80.50617 C98.36632,78.020885 100.38103,76.00617 102.86632,76.00617 C105.3516,76.00617 107.36632,78.020885 107.36632,80.50617 Z" id="Path" fill-opacity="0.7019608" fill="#166328" fill-rule="nonzero" mask="url(#mask-30)"></path>
            </g>
            <g id="Clipped" transform="translate(42.800000, 22.300000)">
                <mask id="mask-32" fill="white">
                    <use xlink:href="#path-31"></use>
                </mask>
                <g id="Path"></g>
                <path d="M151.01577,129.43216 C151.01577,131.91744 149.00104,133.93216 146.51577,133.93216 C144.03047,133.93216 142.01577,131.91744 142.01577,129.43216 C142.01577,126.94687 144.03047,124.93216 146.51577,124.93216 C149.00104,124.93216 151.01577,126.94687 151.01577,129.43216 Z" id="Path" fill-opacity="0.7019608" fill="#166328" fill-rule="nonzero" mask="url(#mask-32)"></path>
            </g>
            <g id="Clipped" transform="translate(42.800000, 22.300000)">
                <mask id="mask-34" fill="white">
                    <use xlink:href="#path-33"></use>
                </mask>
                <g id="Path"></g>
                <path d="M159.50634,179.57354 C159.50634,182.05881 157.49163,184.07354 155.00634,184.07354 C152.52106,184.07354 150.50634,182.05881 150.50634,179.57354 C150.50634,177.08824 152.52106,175.07354 155.00634,175.07354 C157.49163,175.07354 159.50634,177.08824 159.50634,179.57354 Z" id="Path" fill-opacity="0.7019608" fill="#166328" fill-rule="nonzero" mask="url(#mask-34)"></path>
            </g>
            <g id="Clipped" transform="translate(42.800000, 22.300000)">
                <mask id="mask-36" fill="white">
                    <use xlink:href="#path-35"></use>
                </mask>
                <g id="Path"></g>
                <path d="M63.46644,206.81789 C63.46644,209.30316 61.451724,211.31789 58.96644,211.31789 C56.48116,211.31789 54.46644,209.30316 54.46644,206.81789 C54.46644,204.33261 56.48116,202.31789 58.96644,202.31789 C61.451724,202.31789 63.46644,204.33261 63.46644,206.81789 Z" id="Path" fill-opacity="0.7019608" fill="#166328" fill-rule="nonzero" mask="url(#mask-36)"></path>
            </g>
            <g id="Clipped" transform="translate(42.800000, 22.300000)">
                <mask id="mask-38" fill="white">
                    <use xlink:href="#path-37"></use>
                </mask>
                <g id="Path"></g>
                <path d="M84.247745,90.14179 C84.247745,92.62706 82.23302,94.64179 79.747745,94.64179 C77.26246,94.64179 75.247745,92.62706 75.247745,90.14179 C75.247745,87.656505 77.26246,85.64179 79.747745,85.64179 C82.23302,85.64179 84.247745,87.656505 84.247745,90.14179 Z" id="Path" fill-opacity="0.7019608" fill="#166328" fill-rule="nonzero" mask="url(#mask-38)"></path>
            </g>
            <g id="Clipped" transform="translate(42.800000, 22.300000)">
                <mask id="mask-40" fill="white">
                    <use xlink:href="#path-39"></use>
                </mask>
                <g id="Path"></g>
                <path d="M163.48404,139.51503 C163.48404,142.00031 161.46933,144.01503 158.98404,144.01503 C156.49877,144.01503 154.48404,142.00031 154.48404,139.51503 C154.48404,137.02974 156.49877,135.01503 158.98404,135.01503 C161.46933,135.01503 163.48404,137.02974 163.48404,139.51503 Z" id="Path" fill-opacity="0.7019608" fill="#166328" fill-rule="nonzero" mask="url(#mask-40)"></path>
            </g>
            <g id="Clipped" transform="translate(42.800000, 22.300000)">
                <mask id="mask-42" fill="white">
                    <use xlink:href="#path-41"></use>
                </mask>
                <g id="Path"></g>
                <path d="M11.116286,165.68056 C11.116286,168.16584 9.10157,170.18056 6.616286,170.18056 C4.131007,170.18056 2.116286,168.16584 2.116286,165.68056 C2.116286,163.19527 4.131007,161.18056 6.616286,161.18056 C9.10157,161.18056 11.116286,163.19527 11.116286,165.68056 Z" id="Path" fill-opacity="0.7019608" fill="#166328" fill-rule="nonzero" mask="url(#mask-42)"></path>
            </g>
            <g id="Clipped" transform="translate(42.800000, 22.300000)">
                <mask id="mask-44" fill="white">
                    <use xlink:href="#path-43"></use>
                </mask>
                <g id="Path"></g>
                <path d="M181.39713,162.08974 C181.39713,164.57502 179.3824,166.58974 176.89713,166.58974 C174.41184,166.58974 172.39713,164.57502 172.39713,162.08974 C172.39713,159.60446 174.41184,157.58974 176.89713,157.58974 C179.3824,157.58974 181.39713,159.60446 181.39713,162.08974 Z" id="Path" fill-opacity="0.7019608" fill="#166328" fill-rule="nonzero" mask="url(#mask-44)"></path>
            </g>
            <g id="Clipped" transform="translate(42.800000, 22.300000)">
                <mask id="mask-46" fill="white">
                    <use xlink:href="#path-45"></use>
                </mask>
                <g id="Path"></g>
                <path d="M127.65972,159.04914 C127.65972,161.53443 125.64499,163.54914 123.15972,163.54914 C120.67443,163.54914 118.65972,161.53443 118.65972,159.04914 C118.65972,156.56386 120.67443,154.54914 123.15972,154.54914 C125.64499,154.54914 127.65972,156.56386 127.65972,159.04914 Z" id="Path" fill-opacity="0.7019608" fill="#166328" fill-rule="nonzero" mask="url(#mask-46)"></path>
            </g>
            <g id="Clipped" transform="translate(42.800000, 22.300000)">
                <mask id="mask-48" fill="white">
                    <use xlink:href="#path-47"></use>
                </mask>
                <g id="Path"></g>
                <path d="M185.69394,159.6358 C185.69394,162.12108 183.67922,164.1358 181.19394,164.1358 C178.70867,164.1358 176.69394,162.12108 176.69394,159.6358 C176.69394,157.15052 178.70867,155.1358 181.19394,155.1358 C183.67922,155.1358 185.69394,157.15052 185.69394,159.6358 Z" id="Path" fill-opacity="0.7019608" fill="#166328" fill-rule="nonzero" mask="url(#mask-48)"></path>
            </g>
            <g id="Clipped" transform="translate(42.800000, 22.300000)">
                <mask id="mask-50" fill="white">
                    <use xlink:href="#path-49"></use>
                </mask>
                <g id="Path"></g>
                <path d="M129.77669,206.33295 C129.77669,208.81824 127.76198,210.83295 125.27669,210.83295 C122.79142,210.83295 120.77669,208.81824 120.77669,206.33295 C120.77669,203.84767 122.79142,201.83295 125.27669,201.83295 C127.76198,201.83295 129.77669,203.84767 129.77669,206.33295 Z" id="Path" fill-opacity="0.7019608" fill="#166328" fill-rule="nonzero" mask="url(#mask-50)"></path>
            </g>
            <g id="Clipped" transform="translate(42.800000, 22.300000)">
                <mask id="mask-52" fill="white">
                    <use xlink:href="#path-51"></use>
                </mask>
                <g id="Path"></g>
                <path d="M33.37359,107.27134 C33.37359,109.75663 31.358875,111.77134 28.87359,111.77134 C26.38832,111.77134 24.37359,109.75663 24.37359,107.27134 C24.37359,104.78607 26.38832,102.77134 28.87359,102.77134 C31.358875,102.77134 33.37359,104.78607 33.37359,107.27134 Z" id="Path" fill-opacity="0.7019608" fill="#166328" fill-rule="nonzero" mask="url(#mask-52)"></path>
            </g>
            <g id="Clipped" transform="translate(42.800000, 22.300000)">
                <mask id="mask-54" fill="white">
                    <use xlink:href="#path-53"></use>
                </mask>
                <g id="Path"></g>
                <path d="M53.98703,153.0102 C53.98703,155.49547 51.97231,157.5102 49.48703,157.5102 C47.00175,157.5102 44.98703,155.49547 44.98703,153.0102 C44.98703,150.5249 47.00175,148.5102 49.48703,148.5102 C51.97231,148.5102 53.98703,150.5249 53.98703,153.0102 Z" id="Path" fill-opacity="0.7019608" fill="#166328" fill-rule="nonzero" mask="url(#mask-54)"></path>
            </g>
            <g id="Clipped" transform="translate(42.800000, 22.300000)">
                <mask id="mask-56" fill="white">
                    <use xlink:href="#path-55"></use>
                </mask>
                <g id="Path"></g>
                <path d="M28.256965,178.90561 C28.256965,181.39089 26.242244,183.40561 23.756965,183.40561 C21.271686,183.40561 19.256965,181.39089 19.256965,178.90561 C19.256965,176.42032 21.271686,174.40561 23.756965,174.40561 C26.242244,174.40561 28.256965,176.42032 28.256965,178.90561 Z" id="Path" fill-opacity="0.7019608" fill="#166328" fill-rule="nonzero" mask="url(#mask-56)"></path>
            </g>
            <g id="Clipped" transform="translate(42.800000, 22.300000)">
                <mask id="mask-58" fill="white">
                    <use xlink:href="#path-57"></use>
                </mask>
                <g id="Path"></g>
                <path d="M66.67851,186.77268 C66.67851,189.25795 64.66379,191.27268 62.17851,191.27268 C59.69323,191.27268 57.67851,189.25795 57.67851,186.77268 C57.67851,184.28739 59.69323,182.27268 62.17851,182.27268 C64.66379,182.27268 66.67851,184.28739 66.67851,186.77268 Z" id="Path" fill-opacity="0.7019608" fill="#166328" fill-rule="nonzero" mask="url(#mask-58)"></path>
            </g>
            <g id="Clipped" transform="translate(42.800000, 22.300000)">
                <mask id="mask-60" fill="white">
                    <use xlink:href="#path-59"></use>
                </mask>
                <g id="Path"></g>
                <path d="M48.38644,84.027324 C48.38644,86.51261 46.371715,88.527324 43.88644,88.527324 C41.40116,88.527324 39.38644,86.51261 39.38644,84.027324 C39.38644,81.54205 41.40116,79.527324 43.88644,79.527324 C46.371715,79.527324 48.38644,81.54205 48.38644,84.027324 Z" id="Path" fill-opacity="0.7019608" fill="#166328" fill-rule="nonzero" mask="url(#mask-60)"></path>
            </g>
            <g id="Clipped" transform="translate(42.800000, 22.300000)">
                <mask id="mask-62" fill="white">
                    <use xlink:href="#path-61"></use>
                </mask>
                <g id="Path"></g>
                <path d="M30.606494,197.9809 C30.606494,200.46619 28.59177,202.4809 26.106494,202.4809 C23.62121,202.4809 21.606494,200.46619 21.606494,197.9809 C21.606494,195.49562 23.62121,193.4809 26.106494,193.4809 C28.59177,193.4809 30.606494,195.49562 30.606494,197.9809 Z" id="Path" fill-opacity="0.7019608" fill="#166328" fill-rule="nonzero" mask="url(#mask-62)"></path>
            </g>
            <g id="Clipped" transform="translate(42.800000, 22.300000)">
                <mask id="mask-64" fill="white">
                    <use xlink:href="#path-63"></use>
                </mask>
                <g id="Path"></g>
                <path d="M105.40306,193.35475 C105.40306,195.84003 103.38835,197.85475 100.90306,197.85475 C98.41779,197.85475 96.40306,195.84003 96.40306,193.35475 C96.40306,190.86946 98.41779,188.85475 100.90306,188.85475 C103.38835,188.85475 105.40306,190.86946 105.40306,193.35475 Z" id="Path" fill-opacity="0.7019608" fill="#166328" fill-rule="nonzero" mask="url(#mask-64)"></path>
            </g>
            <g id="Clipped" transform="translate(42.800000, 22.300000)">
                <mask id="mask-66" fill="white">
                    <use xlink:href="#path-65"></use>
                </mask>
                <g id="Path"></g>
                <path d="M78.066776,52.58946 C78.066776,55.07474 76.05206,57.08946 73.566776,57.08946 C71.08149,57.08946 69.066776,55.07474 69.066776,52.58946 C69.066776,50.10418 71.08149,48.08946 73.566776,48.08946 C76.05206,48.08946 78.066776,50.10418 78.066776,52.58946 Z" id="Path" fill-opacity="0.7019608" fill="#166328" fill-rule="nonzero" mask="url(#mask-66)"></path>
            </g>
            <g id="Clipped" transform="translate(42.800000, 22.300000)">
                <mask id="mask-68" fill="white">
                    <use xlink:href="#path-67"></use>
                </mask>
                <g id="Path"></g>
                <path d="M126.21587,171.55258 C126.21587,174.03788 124.20114,176.05258 121.71587,176.05258 C119.23058,176.05258 117.21587,174.03788 117.21587,171.55258 C117.21587,169.06731 119.23058,167.05258 121.71587,167.05258 C124.20114,167.05258 126.21587,169.06731 126.21587,171.55258 Z" id="Path" fill-opacity="0.7019608" fill="#166328" fill-rule="nonzero" mask="url(#mask-68)"></path>
            </g>
            <g id="Clipped" transform="translate(42.800000, 22.300000)">
                <mask id="mask-70" fill="white">
                    <use xlink:href="#path-69"></use>
                </mask>
                <g id="Path"></g>
                <path d="M69.15134,159.81874 C69.15134,162.30403 67.13662,164.31874 64.65134,164.31874 C62.166064,164.31874 60.15134,162.30403 60.15134,159.81874 C60.15134,157.33347 62.166064,155.31874 64.65134,155.31874 C67.13662,155.31874 69.15134,157.33347 69.15134,159.81874 Z" id="Path" fill-opacity="0.7019608" fill="#166328" fill-rule="nonzero" mask="url(#mask-70)"></path>
            </g>
            <g id="Clipped" transform="translate(42.800000, 22.300000)">
                <mask id="mask-72" fill="white">
                    <use xlink:href="#path-71"></use>
                </mask>
                <g id="Path"></g>
                <path d="M139.7616,61.38153 C139.7616,63.86681 137.74689,65.88153 135.2616,65.88153 C132.77632,65.88153 130.7616,63.86681 130.7616,61.38153 C130.7616,58.89625 132.77632,56.88153 135.2616,56.88153 C137.74689,56.88153 139.7616,58.89625 139.7616,61.38153 Z" id="Path" fill-opacity="0.7019608" fill="#166328" fill-rule="nonzero" mask="url(#mask-72)"></path>
            </g>
            <g id="Clipped" transform="translate(42.800000, 22.300000)">
                <mask id="mask-74" fill="white">
                    <use xlink:href="#path-73"></use>
                </mask>
                <g id="Path"></g>
                <path d="M64.514156,41.64701 C64.514156,44.1323 62.49944,46.14701 60.014156,46.14701 C57.52887,46.14701 55.514156,44.1323 55.514156,41.64701 C55.514156,39.16173 57.52887,37.14701 60.014156,37.14701 C62.49944,37.14701 64.514156,39.16173 64.514156,41.64701 Z" id="Path" fill-opacity="0.7019608" fill="#166328" fill-rule="nonzero" mask="url(#mask-74)"></path>
            </g>
            <g id="Clipped" transform="translate(42.800000, 22.300000)">
                <mask id="mask-76" fill="white">
                    <use xlink:href="#path-75"></use>
                </mask>
                <g id="Path"></g>
                <path d="M51.04434,158.40448 C51.04434,160.88976 49.02962,162.90448 46.54434,162.90448 C44.059055,162.90448 42.04434,160.88976 42.04434,158.40448 C42.04434,155.9192 44.059055,153.90448 46.54434,153.90448 C49.02962,153.90448 51.04434,155.9192 51.04434,158.40448 Z" id="Path" fill-opacity="0.7019608" fill="#166328" fill-rule="nonzero" mask="url(#mask-76)"></path>
            </g>
            <g id="Clipped" transform="translate(42.800000, 22.300000)">
                <mask id="mask-78" fill="white">
                    <use xlink:href="#path-77"></use>
                </mask>
                <g id="Path"></g>
                <path d="M140.41864,160.31676 C140.41864,162.80205 138.40393,164.81676 135.91864,164.81676 C133.43337,164.81676 131.41864,162.80205 131.41864,160.31676 C131.41864,157.83148 133.43337,155.81676 135.91864,155.81676 C138.40393,155.81676 140.41864,157.83148 140.41864,160.31676 Z" id="Path" fill-opacity="0.7019608" fill="#166328" fill-rule="nonzero" mask="url(#mask-78)"></path>
            </g>
            <g id="Clipped" transform="translate(42.800000, 22.300000)">
                <mask id="mask-80" fill="white">
                    <use xlink:href="#path-79"></use>
                </mask>
                <g id="Path"></g>
                <path d="M38.83324,120.71564 C38.83324,123.20093 36.818515,125.21564 34.33324,125.21564 C31.84796,125.21564 29.83324,123.20093 29.83324,120.71564 C29.83324,118.23036 31.84796,116.21564 34.33324,116.21564 C36.818515,116.21564 38.83324,118.23036 38.83324,120.71564 Z" id="Path" fill-opacity="0.7019608" fill="#166328" fill-rule="nonzero" mask="url(#mask-80)"></path>
            </g>
            <g id="Clipped" transform="translate(42.800000, 22.300000)">
                <mask id="mask-82" fill="white">
                    <use xlink:href="#path-81"></use>
                </mask>
                <g id="Path"></g>
                <path d="M15.317756,149.94062 C15.317756,152.42589 13.303035,154.44062 10.817756,154.44062 C8.332473,154.44062 6.317756,152.42589 6.317756,149.94062 C6.317756,147.45534 8.332473,145.44062 10.817756,145.44062 C13.303035,145.44062 15.317756,147.45534 15.317756,149.94062 Z" id="Path" fill-opacity="0.7019608" fill="#166328" fill-rule="nonzero" mask="url(#mask-82)"></path>
            </g>
            <g id="Clipped" transform="translate(42.800000, 22.300000)">
                <mask id="mask-84" fill="white">
                    <use xlink:href="#path-83"></use>
                </mask>
                <g id="Path"></g>
                <path d="M73.35849,115.30832 C73.35849,117.7936 71.343776,119.80832 68.85849,119.80832 C66.37322,119.80832 64.35849,117.7936 64.35849,115.30832 C64.35849,112.82305 66.37322,110.80832 68.85849,110.80832 C71.343776,110.80832 73.35849,112.82305 73.35849,115.30832 Z" id="Path" fill-opacity="0.7019608" fill="#166328" fill-rule="nonzero" mask="url(#mask-84)"></path>
            </g>
            <g id="Clipped" transform="translate(42.800000, 22.300000)">
                <mask id="mask-86" fill="white">
                    <use xlink:href="#path-85"></use>
                </mask>
                <g id="Path"></g>
                <path d="M28.816337,162.68358 C28.816337,165.16887 26.801616,167.18358 24.316337,167.18358 C21.83106,167.18358 19.816337,165.16887 19.816337,162.68358 C19.816337,160.1983 21.83106,158.18358 24.316337,158.18358 C26.801616,158.18358 28.816337,160.1983 28.816337,162.68358 Z" id="Path" fill-opacity="0.7019608" fill="#166328" fill-rule="nonzero" mask="url(#mask-86)"></path>
            </g>
            <g id="Clipped" transform="translate(42.800000, 22.300000)">
                <mask id="mask-88" fill="white">
                    <use xlink:href="#path-87"></use>
                </mask>
                <g id="Path"></g>
                <path d="M92.95374,156.68674 C92.95374,159.17203 90.93903,161.18674 88.45374,161.18674 C85.96846,161.18674 83.95374,159.17203 83.95374,156.68674 C83.95374,154.20146 85.96846,152.18674 88.45374,152.18674 C90.93903,152.18674 92.95374,154.20146 92.95374,156.68674 Z" id="Path" fill-opacity="0.7019608" fill="#166328" fill-rule="nonzero" mask="url(#mask-88)"></path>
            </g>
            <g id="Clipped" transform="translate(42.800000, 22.300000)">
                <mask id="mask-90" fill="white">
                    <use xlink:href="#path-89"></use>
                </mask>
                <g id="Path"></g>
                <path d="M144.48008,211.4107 C144.48008,213.89597 142.46535,215.9107 139.98008,215.9107 C137.49478,215.9107 135.48008,213.89597 135.48008,211.4107 C135.48008,208.9254 137.49478,206.9107 139.98008,206.9107 C142.46535,206.9107 144.48008,208.9254 144.48008,211.4107 Z" id="Path" fill-opacity="0.7019608" fill="#166328" fill-rule="nonzero" mask="url(#mask-90)"></path>
            </g>
            <g id="Clipped" transform="translate(42.800000, 22.300000)">
                <mask id="mask-92" fill="white">
                    <use xlink:href="#path-91"></use>
                </mask>
                <g id="Path"></g>
                <path d="M239.2837,197.09949 C239.2837,199.58477 237.269,201.59949 234.7837,201.59949 C232.29842,201.59949 230.2837,199.58477 230.2837,197.09949 C230.2837,194.6142 232.29842,192.59949 234.7837,192.59949 C237.269,192.59949 239.2837,194.6142 239.2837,197.09949 Z" id="Path" fill-opacity="0.7019608" fill="#166328" fill-rule="nonzero" mask="url(#mask-92)"></path>
            </g>
            <g id="Clipped" transform="translate(42.800000, 22.300000)">
                <mask id="mask-94" fill="white">
                    <use xlink:href="#path-93"></use>
                </mask>
                <g id="Path"></g>
                <path d="M176.76648,192.9322 C176.76648,195.41747 174.75177,197.4322 172.26648,197.4322 C169.7812,197.4322 167.76648,195.41747 167.76648,192.9322 C167.76648,190.4469 169.7812,188.4322 172.26648,188.4322 C174.75177,188.4322 176.76648,190.4469 176.76648,192.9322 Z" id="Path" fill-opacity="0.7019608" fill="#166328" fill-rule="nonzero" mask="url(#mask-94)"></path>
            </g>
            <g id="Clipped" transform="translate(42.800000, 22.300000)">
                <mask id="mask-96" fill="white">
                    <use xlink:href="#path-95"></use>
                </mask>
                <g id="Path"></g>
                <path d="M82.46004,170.99205 C82.46004,173.47733 80.44532,175.49205 77.96004,175.49205 C75.474765,175.49205 73.46004,173.47733 73.46004,170.99205 C73.46004,168.50678 75.474765,166.49205 77.96004,166.49205 C80.44532,166.49205 82.46004,168.50678 82.46004,170.99205 Z" id="Path" fill-opacity="0.7019608" fill="#166328" fill-rule="nonzero" mask="url(#mask-96)"></path>
            </g>
            <g id="Clipped" transform="translate(42.800000, 22.300000)">
                <mask id="mask-98" fill="white">
                    <use xlink:href="#path-97"></use>
                </mask>
                <g id="Path"></g>
                <path d="M64.44581,162.2291 C64.44581,164.71439 62.43109,166.7291 59.94581,166.7291 C57.46053,166.7291 55.44581,164.71439 55.44581,162.2291 C55.44581,159.74382 57.46053,157.7291 59.94581,157.7291 C62.43109,157.7291 64.44581,159.74382 64.44581,162.2291 Z" id="Path" fill-opacity="0.7019608" fill="#166328" fill-rule="nonzero" mask="url(#mask-98)"></path>
            </g>
            <g id="Clipped" transform="translate(42.800000, 22.300000)">
                <mask id="mask-100" fill="white">
                    <use xlink:href="#path-99"></use>
                </mask>
                <g id="Path"></g>
                <path d="M139.15009,162.40914 C139.15009,164.89443 137.13536,166.90914 134.65009,166.90914 C132.16481,166.90914 130.15009,164.89443 130.15009,162.40914 C130.15009,159.92386 132.16481,157.90914 134.65009,157.90914 C137.13536,157.90914 139.15009,159.92386 139.15009,162.40914 Z" id="Path" fill-opacity="0.7019608" fill="#166328" fill-rule="nonzero" mask="url(#mask-100)"></path>
            </g>
            <g id="Clipped" transform="translate(42.800000, 22.300000)">
                <mask id="mask-102" fill="white">
                    <use xlink:href="#path-101"></use>
                </mask>
                <g id="Path"></g>
                <path d="M151.82956,178.53386 C151.82956,181.01914 149.81484,183.03386 147.32956,183.03386 C144.84427,183.03386 142.82956,181.01914 142.82956,178.53386 C142.82956,176.04859 144.84427,174.03386 147.32956,174.03386 C149.81484,174.03386 151.82956,176.04859 151.82956,178.53386 Z" id="Path" fill-opacity="0.7019608" fill="#166328" fill-rule="nonzero" mask="url(#mask-102)"></path>
            </g>
            <g id="Clipped" transform="translate(42.800000, 22.300000)">
                <mask id="mask-104" fill="white">
                    <use xlink:href="#path-103"></use>
                </mask>
                <g id="Path"></g>
                <path d="M169.86716,199.21512 C169.86716,201.70041 167.85244,203.71512 165.36716,203.71512 C162.88188,203.71512 160.86716,201.70041 160.86716,199.21512 C160.86716,196.72985 162.88188,194.71512 165.36716,194.71512 C167.85244,194.71512 169.86716,196.72985 169.86716,199.21512 Z" id="Path" fill-opacity="0.7019608" fill="#166328" fill-rule="nonzero" mask="url(#mask-104)"></path>
            </g>
            <g id="Clipped" transform="translate(42.800000, 22.300000)">
                <mask id="mask-106" fill="white">
                    <use xlink:href="#path-105"></use>
                </mask>
                <g id="Path"></g>
                <path d="M194.71135,184.53946 C194.71135,187.02474 192.69664,189.03946 190.21135,189.03946 C187.72608,189.03946 185.71135,187.02474 185.71135,184.53946 C185.71135,182.05417 187.72608,180.03946 190.21135,180.03946 C192.69664,180.03946 194.71135,182.05417 194.71135,184.53946 Z" id="Path" fill-opacity="0.7019608" fill="#166328" fill-rule="nonzero" mask="url(#mask-106)"></path>
            </g>
            <g id="Clipped" transform="translate(42.800000, 22.300000)">
                <mask id="mask-108" fill="white">
                    <use xlink:href="#path-107"></use>
                </mask>
                <g id="Path"></g>
                <path d="M230.0038,112.89792 C230.0038,115.3832 227.9891,117.39792 225.5038,117.39792 C223.01854,117.39792 221.0038,115.3832 221.0038,112.89792 C221.0038,110.41263 223.01854,108.39792 225.5038,108.39792 C227.9891,108.39792 230.0038,110.41263 230.0038,112.89792 Z" id="Path" fill-opacity="0.7019608" fill="#166328" fill-rule="nonzero" mask="url(#mask-108)"></path>
            </g>
            <g id="Clipped" transform="translate(42.800000, 22.300000)">
                <mask id="mask-110" fill="white">
                    <use xlink:href="#path-109"></use>
                </mask>
                <g id="Path"></g>
                <path d="M121.73235,171.95041 C121.73235,174.43569 119.71764,176.45041 117.23235,176.45041 C114.74707,176.45041 112.73235,174.43569 112.73235,171.95041 C112.73235,169.46512 114.74707,167.45041 117.23235,167.45041 C119.71764,167.45041 121.73235,169.46512 121.73235,171.95041 Z" id="Path" fill-opacity="0.7019608" fill="#166328" fill-rule="nonzero" mask="url(#mask-110)"></path>
            </g>
            <g id="Clipped" transform="translate(42.800000, 22.300000)">
                <mask id="mask-112" fill="white">
                    <use xlink:href="#path-111"></use>
                </mask>
                <g id="Path"></g>
                <path d="M60.49982,101.84509 C60.49982,104.33036 58.4851,106.34509 55.99982,106.34509 C53.514545,106.34509 51.49982,104.33036 51.49982,101.84509 C51.49982,99.359805 53.514545,97.34509 55.99982,97.34509 C58.4851,97.34509 60.49982,99.359805 60.49982,101.84509 Z" id="Path" fill-opacity="0.7019608" fill="#166328" fill-rule="nonzero" mask="url(#mask-112)"></path>
            </g>
            <g id="Clipped" transform="translate(42.800000, 22.300000)">
                <mask id="mask-114" fill="white">
                    <use xlink:href="#path-113"></use>
                </mask>
                <g id="Path"></g>
                <path d="M101.07521,177.79047 C101.07521,180.27576 99.06049,182.29047 96.57521,182.29047 C94.08994,182.29047 92.07521,180.27576 92.07521,177.79047 C92.07521,175.3052 94.08994,173.29047 96.57521,173.29047 C99.06049,173.29047 101.07521,175.3052 101.07521,177.79047 Z" id="Path" fill-opacity="0.7019608" fill="#166328" fill-rule="nonzero" mask="url(#mask-114)"></path>
            </g>
            <g id="Clipped" transform="translate(42.800000, 22.300000)">
                <mask id="mask-116" fill="white">
                    <use xlink:href="#path-115"></use>
                </mask>
                <g id="Path"></g>
                <path d="M157.07509,182.45726 C157.07509,184.94254 155.06038,186.95726 152.57509,186.95726 C150.08982,186.95726 148.07509,184.94254 148.07509,182.45726 C148.07509,179.97199 150.08982,177.95726 152.57509,177.95726 C155.06038,177.95726 157.07509,179.97199 157.07509,182.45726 Z" id="Path" fill-opacity="0.7019608" fill="#166328" fill-rule="nonzero" mask="url(#mask-116)"></path>
            </g>
            <rect id="Rectangle" fill="#FFFFFF" x="212" y="112" width="81" height="14"></rect>
            <text id="Kern-County" fill-rule="nonzero" font-family="Roboto-Regular, Roboto" font-size="14" font-weight="normal" fill="#1A2226">
                <tspan x="213" y="125">Kern County</tspan>
            </text>
            <path d="M20.8625,261.0594 C20.8625,262.330227 20.64375,263.27814 20.20625,263.90314 C19.779166,264.517713 19.1020827,264.825 18.175,264.825 C17.2687493,264.825 16.596874,264.52292 16.159374,263.91876 C15.7218747,263.314587 15.4927083,262.408333 15.471875,261.2 L15.471875,259.7625 C15.471875,258.5021 15.6854167,257.569813 16.1125,256.96564 C16.55,256.351053 17.2322913,256.04376 18.159374,256.04376 C19.0760407,256.04376 19.753124,256.34064 20.190624,256.9344 C20.628124,257.517733 20.8520827,258.42398 20.8625,259.65314 L20.8625,261.0594 Z M19.76875,259.575 C19.76875,258.658333 19.6385413,257.991667 19.378124,257.575 C19.128124,257.147933 18.721874,256.9344 18.159374,256.9344 C17.6072913,256.9344 17.2010413,257.147933 16.940624,257.575 C16.690624,257.991667 16.565624,258.6323 16.565624,259.4969 L16.565624,261.23126 C16.565624,262.147927 16.6958327,262.83022 16.95625,263.27814 C17.2270833,263.715647 17.6333333,263.9344 18.175,263.9344 C18.7062493,263.9344 19.1020827,263.726067 19.3625,263.3094 C19.622916,262.892733 19.7583327,262.241687 19.76875,261.35626 L19.76875,259.575 Z M25.565624,257.575 C25.565624,257.16876 25.7114573,256.814593 26.003124,256.5125 C26.2947907,256.200007 26.6437493,256.04376 27.05,256.04376 C27.4562493,256.04376 27.8052073,256.200007 28.096874,256.5125 C28.3885407,256.814593 28.534374,257.16876 28.534374,257.575 C28.534374,257.991667 28.3885407,258.345833 28.096874,258.6375 C27.8052073,258.929167 27.4562493,259.075 27.05,259.075 C26.6437493,259.075 26.2947907,258.929167 26.003124,258.6375 C25.7114573,258.345833 25.565624,257.991667 25.565624,257.575 Z M27.05,258.325 C27.2687493,258.325 27.4458327,258.2573 27.58125,258.1219 C27.7270833,257.97606 27.8,257.79376 27.8,257.575 C27.8,257.34584 27.7270833,257.15834 27.58125,257.0125 C27.4458327,256.866673 27.2687493,256.79376 27.05,256.79376 C26.8416667,256.79376 26.6645833,256.871887 26.51875,257.02814 C26.3729167,257.18438 26.3,257.366667 26.3,257.575 C26.3,257.783333 26.3729167,257.96042 26.51875,258.10626 C26.6645833,258.252087 26.8416667,258.325 27.05,258.325 Z M36.065624,261.9969 C35.9614573,262.892727 35.628124,263.59064 35.065624,264.09064 C34.503124,264.580213 33.7583327,264.825 32.83125,264.825 C31.8208327,264.825 31.0135407,264.465633 30.409374,263.7469 C29.8052073,263.017727 29.503124,262.04376 29.503124,260.825 L29.503124,260.0125 C29.503124,259.220833 29.6437493,258.52292 29.925,257.91876 C30.2062493,257.314587 30.6072907,256.851047 31.128124,256.52814 C31.6489573,256.20522 32.247916,256.04376 32.925,256.04376 C33.8312493,256.04376 34.5552073,256.298973 35.096874,256.8094 C35.648958,257.3198 35.9718747,258.017713 36.065624,258.90314 L34.940624,258.90314 C34.8364573,258.226047 34.622916,257.736467 34.3,257.4344 C33.9770827,257.132307 33.5187493,256.98126 32.925,256.98126 C32.2062493,256.98126 31.6437493,257.246887 31.2375,257.77814 C30.8312493,258.30938 30.628124,259.064587 30.628124,260.04376 L30.628124,260.8719 C30.628124,261.798967 30.8208327,262.538547 31.20625,263.09064 C31.591666,263.632307 32.1333327,263.90314 32.83125,263.90314 C33.45625,263.90314 33.9354167,263.762513 34.26875,263.48126 C34.6020833,263.189593 34.8260413,262.694807 34.940624,261.9969 L36.065624,261.9969 Z" id="Shape" fill="#444444" fill-rule="nonzero"></path>
            <path d="M19.065624,217.12 L17.9875,217.12 L17.9875,209.90125 L15.8,210.69812 L15.8,209.71375 L18.909374,208.54187 L19.065624,208.54187 L19.065624,217.12 Z M25.565624,209.995 C25.565624,209.588747 25.7114573,209.23458 26.003124,208.9325 C26.2947907,208.62 26.6437493,208.46375 27.05,208.46375 C27.4562493,208.46375 27.8052073,208.62 28.096874,208.9325 C28.3885407,209.23458 28.534374,209.588747 28.534374,209.995 C28.534374,210.411667 28.3885407,210.765833 28.096874,211.0575 C27.8052073,211.349167 27.4562493,211.495 27.05,211.495 C26.6437493,211.495 26.2947907,211.349167 26.003124,211.0575 C25.7114573,210.765833 25.565624,210.411667 25.565624,209.995 Z M27.05,210.745 C27.2687493,210.745 27.4458327,210.67729 27.58125,210.54187 C27.7270833,210.396037 27.8,210.21375 27.8,209.995 C27.8,209.765833 27.7270833,209.578333 27.58125,209.4325 C27.4458327,209.286667 27.2687493,209.21375 27.05,209.21375 C26.8416667,209.21375 26.6645833,209.291873 26.51875,209.44812 C26.3729167,209.604373 26.3,209.786667 26.3,209.995 C26.3,210.203333 26.3729167,210.380417 26.51875,210.52625 C26.6645833,210.672083 26.8416667,210.745 27.05,210.745 Z M36.065624,214.41687 C35.9614573,215.312703 35.628124,216.01062 35.065624,216.51062 C34.503124,217.000207 33.7583327,217.245 32.83125,217.245 C31.8208327,217.245 31.0135407,216.885623 30.409374,216.16687 C29.8052073,215.437703 29.503124,214.46375 29.503124,213.245 L29.503124,212.4325 C29.503124,211.640833 29.6437493,210.942917 29.925,210.33875 C30.2062493,209.734583 30.6072907,209.27104 31.128124,208.94812 C31.6489573,208.625207 32.247916,208.46375 32.925,208.46375 C33.8312493,208.46375 34.5552073,208.718957 35.096874,209.22937 C35.648958,209.73979 35.9718747,210.437707 36.065624,211.32312 L34.940624,211.32312 C34.8364573,210.64604 34.622916,210.156457 34.3,209.85437 C33.9770827,209.55229 33.5187493,209.40125 32.925,209.40125 C32.2062493,209.40125 31.6437493,209.666873 31.2375,210.19812 C30.8312493,210.729373 30.628124,211.484583 30.628124,212.46375 L30.628124,213.29187 C30.628124,214.218957 30.8208327,214.95854 31.20625,215.51062 C31.591666,216.052287 32.1333327,216.32312 32.83125,216.32312 C33.45625,216.32312 33.9354167,216.182497 34.26875,215.90125 C34.6020833,215.609583 34.8260413,215.11479 34.940624,214.41687 L36.065624,214.41687 Z" id="Shape" fill="#444444" fill-rule="nonzero"></path>
            <path d="M21.096874,169.54 L15.503125,169.54 L15.503125,168.75874 L18.45625,165.4775 C18.89375,164.9775 19.1958333,164.576457 19.3625,164.27437 C19.5291667,163.96187 19.6125,163.638953 19.6125,163.30562 C19.6125,162.8577 19.4770833,162.493117 19.20625,162.21187 C18.9458327,161.920203 18.5864573,161.77437 18.128124,161.77437 C17.5968747,161.77437 17.180208,161.93062 16.878124,162.24312 C16.5760413,162.5452 16.425,162.972283 16.425,163.52437 L15.346875,163.52437 C15.346875,162.732703 15.5968747,162.097287 16.096874,161.61812 C16.6072913,161.128533 17.2843747,160.88374 18.128124,160.88374 C18.930208,160.88374 19.5604167,161.092073 20.01875,161.50874 C20.4770833,161.925407 20.70625,162.4827 20.70625,163.18062 C20.70625,164.013953 20.1697913,165.013953 19.096874,166.18062 L16.815624,168.64937 L21.096874,168.64937 L21.096874,169.54 Z M25.565624,162.415 C25.565624,162.008747 25.7114573,161.65458 26.003124,161.3525 C26.2947907,161.039993 26.6437493,160.88374 27.05,160.88374 C27.4562493,160.88374 27.8052073,161.039993 28.096874,161.3525 C28.3885407,161.65458 28.534374,162.008747 28.534374,162.415 C28.534374,162.831667 28.3885407,163.185833 28.096874,163.4775 C27.8052073,163.769167 27.4562493,163.915 27.05,163.915 C26.6437493,163.915 26.2947907,163.769167 26.003124,163.4775 C25.7114573,163.185833 25.565624,162.831667 25.565624,162.415 Z M27.05,163.165 C27.2687493,163.165 27.4458327,163.09729 27.58125,162.96187 C27.7270833,162.816037 27.8,162.63374 27.8,162.415 C27.8,162.185827 27.7270833,161.998327 27.58125,161.8525 C27.4458327,161.70666 27.2687493,161.63374 27.05,161.63374 C26.8416667,161.63374 26.6645833,161.711867 26.51875,161.86812 C26.3729167,162.024373 26.3,162.206667 26.3,162.415 C26.3,162.623333 26.3729167,162.800413 26.51875,162.94624 C26.6645833,163.09208 26.8416667,163.165 27.05,163.165 Z M36.065624,166.83687 C35.9614573,167.732703 35.628124,168.43062 35.065624,168.93062 C34.503124,169.420207 33.7583327,169.665 32.83125,169.665 C31.8208327,169.665 31.0135407,169.305623 30.409374,168.58687 C29.8052073,167.857703 29.503124,166.88374 29.503124,165.665 L29.503124,164.8525 C29.503124,164.060833 29.6437493,163.362913 29.925,162.75874 C30.2062493,162.15458 30.6072907,161.69104 31.128124,161.36812 C31.6489573,161.0452 32.247916,160.88374 32.925,160.88374 C33.8312493,160.88374 34.5552073,161.13895 35.096874,161.64937 C35.648958,162.15979 35.9718747,162.857707 36.065624,163.74312 L34.940624,163.74312 C34.8364573,163.06604 34.622916,162.576457 34.3,162.27437 C33.9770827,161.972283 33.5187493,161.82124 32.925,161.82124 C32.2062493,161.82124 31.6437493,162.086867 31.2375,162.61812 C30.8312493,163.149373 30.628124,163.90458 30.628124,164.88374 L30.628124,165.71187 C30.628124,166.638957 30.8208327,167.37854 31.20625,167.93062 C31.591666,168.472287 32.1333327,168.74312 32.83125,168.74312 C33.45625,168.74312 33.9354167,168.602493 34.26875,168.32124 C34.6020833,168.029573 34.8260413,167.534783 34.940624,166.83687 L36.065624,166.83687 Z" id="Shape" fill="#444444" fill-rule="nonzero"></path>
            <path d="M17.08125,117.163124 L17.89375,117.163124 C18.4145833,117.152708 18.8208333,117.017291 19.1125,116.756874 C19.4041667,116.496458 19.55,116.142291 19.55,115.694374 C19.55,114.694374 19.05,114.194374 18.05,114.194374 C17.5812493,114.194374 17.2062493,114.329791 16.925,114.600624 C16.6541667,114.871457 16.51875,115.225624 16.51875,115.663124 L15.425,115.663124 C15.425,114.986041 15.6697913,114.423541 16.159374,113.975624 C16.659374,113.527708 17.2895827,113.30375 18.05,113.30375 C18.8520827,113.30375 19.4822907,113.517291 19.940624,113.944374 C20.3989573,114.371458 20.628124,114.965208 20.628124,115.725624 C20.628124,116.100624 20.5083327,116.459999 20.26875,116.80375 C20.029166,117.147499 19.7010407,117.407916 19.284374,117.585 C19.7531247,117.730833 20.1125,117.975625 20.3625,118.319374 C20.622916,118.663125 20.753124,119.085 20.753124,119.585 C20.753124,120.345416 20.503124,120.954791 20.003124,121.413124 C19.503124,121.861041 18.8520827,122.085 18.05,122.085 C17.2583333,122.085 16.6072913,121.86625 16.096874,121.42875 C15.5968747,120.99125 15.346875,120.418333 15.346875,119.71 L16.440624,119.71 C16.440624,120.157916 16.5864573,120.517291 16.878124,120.788124 C17.1697907,121.058957 17.565624,121.194374 18.065624,121.194374 C18.5864573,121.194374 18.9822907,121.058957 19.253124,120.788124 C19.5343747,120.506875 19.675,120.111041 19.675,119.600624 C19.675,119.111041 19.523958,118.736041 19.221874,118.475624 C18.9197913,118.204791 18.4770833,118.064166 17.89375,118.05375 L17.08125,118.05375 L17.08125,117.163124 Z M25.565624,114.835 C25.565624,114.428749 25.7114573,114.074583 26.003124,113.7725 C26.2947907,113.46 26.6437493,113.30375 27.05,113.30375 C27.4562493,113.30375 27.8052073,113.46 28.096874,113.7725 C28.3885407,114.074583 28.534374,114.428749 28.534374,114.835 C28.534374,115.251667 28.3885407,115.605833 28.096874,115.8975 C27.8052073,116.189167 27.4562493,116.335 27.05,116.335 C26.6437493,116.335 26.2947907,116.189167 26.003124,115.8975 C25.7114573,115.605833 25.565624,115.251667 25.565624,114.835 Z M27.05,115.585 C27.2687493,115.585 27.4458327,115.517291 27.58125,115.381874 C27.7270833,115.236041 27.8,115.05375 27.8,114.835 C27.8,114.605833 27.7270833,114.418333 27.58125,114.2725 C27.4458327,114.126667 27.2687493,114.05375 27.05,114.05375 C26.8416667,114.05375 26.6645833,114.131875 26.51875,114.288124 C26.3729167,114.444375 26.3,114.626667 26.3,114.835 C26.3,115.043333 26.3729167,115.220417 26.51875,115.36625 C26.6645833,115.512083 26.8416667,115.585 27.05,115.585 Z M36.065624,119.256874 C35.9614573,120.152707 35.628124,120.850624 35.065624,121.350624 C34.503124,121.840208 33.7583327,122.085 32.83125,122.085 C31.8208327,122.085 31.0135407,121.725625 30.409374,121.006874 C29.8052073,120.277707 29.503124,119.30375 29.503124,118.085 L29.503124,117.2725 C29.503124,116.480833 29.6437493,115.782917 29.925,115.17875 C30.2062493,114.574583 30.6072907,114.111041 31.128124,113.788124 C31.6489573,113.465208 32.247916,113.30375 32.925,113.30375 C33.8312493,113.30375 34.5552073,113.558958 35.096874,114.069374 C35.648958,114.579791 35.9718747,115.277708 36.065624,116.163124 L34.940624,116.163124 C34.8364573,115.486041 34.622916,114.996458 34.3,114.694374 C33.9770827,114.392291 33.5187493,114.24125 32.925,114.24125 C32.2062493,114.24125 31.6437493,114.506875 31.2375,115.038124 C30.8312493,115.569375 30.628124,116.324583 30.628124,117.30375 L30.628124,118.131874 C30.628124,119.058958 30.8208327,119.798541 31.20625,120.350624 C31.591666,120.892291 32.1333327,121.163124 32.83125,121.163124 C33.45625,121.163124 33.9354167,121.022499 34.26875,120.74125 C34.6020833,120.449583 34.8260413,119.954791 34.940624,119.256874 L36.065624,119.256874 Z" id="Shape" fill="#444444" fill-rule="nonzero"></path>
            <path d="M20.08125,71.52062 L21.26875,71.52062 L21.26875,72.39562 L20.08125,72.39562 L20.08125,74.38 L19.003124,74.38 L19.003124,72.39562 L15.1125,72.39562 L15.1125,71.755 L18.925,65.84875 L20.08125,65.84875 L20.08125,71.52062 Z M16.346874,71.52062 L19.003124,71.52062 L19.003124,67.33312 L18.8625,67.5675 L16.346874,71.52062 Z M25.565624,67.255 C25.565624,66.8487467 25.7114573,66.49458 26.003124,66.1925 C26.2947907,65.88 26.6437493,65.72375 27.05,65.72375 C27.4562493,65.72375 27.8052073,65.88 28.096874,66.1925 C28.3885407,66.49458 28.534374,66.8487467 28.534374,67.255 C28.534374,67.6716667 28.3885407,68.0258333 28.096874,68.3175 C27.8052073,68.6091667 27.4562493,68.755 27.05,68.755 C26.6437493,68.755 26.2947907,68.6091667 26.003124,68.3175 C25.7114573,68.0258333 25.565624,67.6716667 25.565624,67.255 Z M27.05,68.005 C27.2687493,68.005 27.4458327,67.93729 27.58125,67.80187 C27.7270833,67.6560367 27.8,67.47375 27.8,67.255 C27.8,67.0258333 27.7270833,66.8383333 27.58125,66.6925 C27.4458327,66.5466667 27.2687493,66.47375 27.05,66.47375 C26.8416667,66.47375 26.6645833,66.5518733 26.51875,66.70812 C26.3729167,66.8643733 26.3,67.0466667 26.3,67.255 C26.3,67.4633333 26.3729167,67.6404167 26.51875,67.78625 C26.6645833,67.9320833 26.8416667,68.005 27.05,68.005 Z M36.065624,71.67687 C35.9614573,72.5727033 35.628124,73.27062 35.065624,73.77062 C34.503124,74.2602067 33.7583327,74.505 32.83125,74.505 C31.8208327,74.505 31.0135407,74.1456233 30.409374,73.42687 C29.8052073,72.6977033 29.503124,71.72375 29.503124,70.505 L29.503124,69.6925 C29.503124,68.9008333 29.6437493,68.2029167 29.925,67.59875 C30.2062493,66.9945833 30.6072907,66.53104 31.128124,66.20812 C31.6489573,65.8852067 32.247916,65.72375 32.925,65.72375 C33.8312493,65.72375 34.5552073,65.9789567 35.096874,66.48937 C35.648958,66.99979 35.9718747,67.6977067 36.065624,68.58312 L34.940624,68.58312 C34.8364573,67.90604 34.622916,67.4164567 34.3,67.11437 C33.9770827,66.81229 33.5187493,66.66125 32.925,66.66125 C32.2062493,66.66125 31.6437493,66.9268733 31.2375,67.45812 C30.8312493,67.9893733 30.628124,68.7445833 30.628124,69.72375 L30.628124,70.55187 C30.628124,71.4789567 30.8208327,72.21854 31.20625,72.77062 C31.591666,73.3122867 32.1333327,73.58312 32.83125,73.58312 C33.45625,73.58312 33.9354167,73.4424967 34.26875,73.16125 C34.6020833,72.8695833 34.8260413,72.37479 34.940624,71.67687 L36.065624,71.67687 Z" id="Shape" fill="#444444" fill-rule="nonzero"></path>
            <path d="M16.003124,22.51875 L16.440624,18.26875 L20.815624,18.26875 L20.815624,19.26875 L17.3625,19.26875 L17.096874,21.596874 C17.523958,21.346874 18.0031247,21.221874 18.534374,21.221874 C19.3052073,21.221874 19.9197907,21.4822907 20.378124,22.003124 C20.8364573,22.5135413 21.065624,23.20625 21.065624,24.08125 C21.065624,24.95625 20.8260407,25.648958 20.346874,26.159374 C19.8781247,26.6697913 19.2166667,26.925 18.3625,26.925 C17.6125,26.925 16.9979167,26.7166667 16.51875,26.3 C16.0395833,25.872916 15.76875,25.2895827 15.70625,24.55 L16.721874,24.55 C16.7947913,25.0395827 16.9718747,25.409374 17.253124,25.659374 C17.5343747,25.909374 17.9041667,26.034374 18.3625,26.034374 C18.8625,26.034374 19.2583333,25.8624993 19.55,25.51875 C19.8416667,25.1749993 19.9875,24.7010407 19.9875,24.096874 C19.9875,23.523958 19.83125,23.0656247 19.51875,22.721874 C19.20625,22.3781247 18.7895833,22.20625 18.26875,22.20625 C17.7999993,22.20625 17.4302073,22.305208 17.159374,22.503124 L16.878124,22.7375 L16.003124,22.51875 Z M25.565624,19.675 C25.565624,19.2687493 25.7114573,18.9145827 26.003124,18.6125 C26.2947907,18.3 26.6437493,18.14375 27.05,18.14375 C27.4562493,18.14375 27.8052073,18.3 28.096874,18.6125 C28.3885407,18.9145827 28.534374,19.2687493 28.534374,19.675 C28.534374,20.0916667 28.3885407,20.4458333 28.096874,20.7375 C27.8052073,21.0291667 27.4562493,21.175 27.05,21.175 C26.6437493,21.175 26.2947907,21.0291667 26.003124,20.7375 C25.7114573,20.4458333 25.565624,20.0916667 25.565624,19.675 Z M27.05,20.425 C27.2687493,20.425 27.4458327,20.3572913 27.58125,20.221874 C27.7270833,20.0760407 27.8,19.89375 27.8,19.675 C27.8,19.4458333 27.7270833,19.2583333 27.58125,19.1125 C27.4458327,18.9666667 27.2687493,18.89375 27.05,18.89375 C26.8416667,18.89375 26.6645833,18.9718747 26.51875,19.128124 C26.3729167,19.2843747 26.3,19.4666667 26.3,19.675 C26.3,19.8833333 26.3729167,20.0604167 26.51875,20.20625 C26.6645833,20.3520833 26.8416667,20.425 27.05,20.425 Z M36.065624,24.096874 C35.9614573,24.9927073 35.628124,25.690624 35.065624,26.190624 C34.503124,26.680208 33.7583327,26.925 32.83125,26.925 C31.8208327,26.925 31.0135407,26.5656247 30.409374,25.846874 C29.8052073,25.1177073 29.503124,24.14375 29.503124,22.925 L29.503124,22.1125 C29.503124,21.3208333 29.6437493,20.6229167 29.925,20.01875 C30.2062493,19.4145833 30.6072907,18.9510413 31.128124,18.628124 C31.6489573,18.305208 32.247916,18.14375 32.925,18.14375 C33.8312493,18.14375 34.5552073,18.398958 35.096874,18.909374 C35.648958,19.4197913 35.9718747,20.117708 36.065624,21.003124 L34.940624,21.003124 C34.8364573,20.3260413 34.622916,19.836458 34.3,19.534374 C33.9770827,19.2322913 33.5187493,19.08125 32.925,19.08125 C32.2062493,19.08125 31.6437493,19.3468747 31.2375,19.878124 C30.8312493,20.4093747 30.628124,21.1645833 30.628124,22.14375 L30.628124,22.971874 C30.628124,23.898958 30.8208327,24.6385413 31.20625,25.190624 C31.591666,25.7322907 32.1333327,26.003124 32.83125,26.003124 C33.45625,26.003124 33.9354167,25.8624993 34.26875,25.58125 C34.6020833,25.2895833 34.8260413,24.7947913 34.940624,24.096874 L36.065624,24.096874 Z" id="Shape" fill="#444444" fill-rule="nonzero"></path>
            <path d="M44.622414,278.2 L43.54429,278.2 L43.54429,270.98126 L41.35679,271.77814 L41.35679,270.79376 L44.466164,269.6219 L44.622414,269.6219 L44.622414,278.2 Z M47.966164,271.3094 C47.966164,270.798973 48.1276227,270.377093 48.45054,270.04376 C48.7838733,269.710427 49.205748,269.54376 49.716164,269.54376 C50.2369973,269.54376 50.6588727,269.710427 50.98179,270.04376 C51.304706,270.377093 51.466164,270.809387 51.466164,271.34064 L51.466164,271.7625 C51.466164,272.272927 51.2994973,272.694807 50.966164,273.02814 C50.643248,273.351047 50.23179,273.5125 49.73179,273.5125 C49.2213727,273.5125 48.7994973,273.351047 48.466164,273.02814 C48.1328307,272.694807 47.966164,272.257307 47.966164,271.71564 L47.966164,271.3094 Z M48.778664,271.7625 C48.778664,272.064593 48.8619973,272.314593 49.028664,272.5125 C49.205748,272.710433 49.4401233,272.8094 49.73179,272.8094 C50.0130393,272.8094 50.2369973,272.715647 50.403664,272.52814 C50.5703307,272.33022 50.653664,272.064593 50.653664,271.73126 L50.653664,271.3094 C50.653664,271.007307 50.5703307,270.757307 50.403664,270.5594 C50.2369973,270.351067 50.0078307,270.2469 49.716164,270.2469 C49.4244973,270.2469 49.1953307,270.351067 49.028664,270.5594 C48.8619973,270.757307 48.778664,271.012507 48.778664,271.325 L48.778664,271.7625 Z M52.122414,276.10626 C52.122414,275.595847 52.2838727,275.17918 52.60679,274.85626 C52.9401233,274.522927 53.361998,274.35626 53.872414,274.35626 C54.3828313,274.35626 54.799498,274.522927 55.122414,274.85626 C55.4557473,275.17918 55.622414,275.611473 55.622414,276.15314 L55.622414,276.5594 C55.622414,277.0698 55.460956,277.491667 55.13804,277.825 C54.8151227,278.158333 54.398456,278.325 53.88804,278.325 C53.3776227,278.325 52.9557473,278.163547 52.622414,277.84064 C52.2890807,277.507307 52.122414,277.069807 52.122414,276.52814 L52.122414,276.10626 Z M52.934914,276.5594 C52.934914,276.871893 53.0182473,277.127093 53.184914,277.325 C53.361998,277.522933 53.5963733,277.6219 53.88804,277.6219 C54.1692893,277.6219 54.3932473,277.528147 54.559914,277.34064 C54.7265807,277.14272 54.809914,276.877093 54.809914,276.54376 L54.809914,276.10626 C54.809914,275.793753 54.7213727,275.543753 54.54429,275.35626 C54.3776233,275.158353 54.1536647,275.0594 53.872414,275.0594 C53.5911647,275.0594 53.361998,275.158353 53.184914,275.35626 C53.0182473,275.543753 52.934914,275.804167 52.934914,276.1375 L52.934914,276.5594 Z M49.98179,277.5594 L49.35679,277.16876 L53.528664,270.4969 L54.13804,270.8875 L49.98179,277.5594 Z" id="Shape" fill="#444444" fill-rule="nonzero"></path>
            <path d="M85.97491,278.2 L80.38116,278.2 L80.38116,277.41876 L83.33428,274.1375 C83.77178,273.6375 84.0738633,273.236467 84.24053,272.9344 C84.4071967,272.621893 84.49053,272.298973 84.49053,271.96564 C84.49053,271.51772 84.3551133,271.15314 84.08428,270.8719 C83.8238667,270.580233 83.4644933,270.4344 83.00616,270.4344 C82.4749067,270.4344 82.05824,270.590647 81.75616,270.90314 C81.4540733,271.20522 81.30303,271.632307 81.30303,272.1844 L80.22491,272.1844 C80.22491,271.392733 80.47491,270.757313 80.97491,270.27814 C81.4853233,269.788553 82.1624067,269.54376 83.00616,269.54376 C83.80824,269.54376 84.4384467,269.752093 84.89678,270.16876 C85.3551133,270.585427 85.58428,271.14272 85.58428,271.84064 C85.58428,272.673973 85.0478233,273.673973 83.97491,274.84064 L81.69366,277.3094 L85.97491,277.3094 L85.97491,278.2 Z M87.28741,271.3094 C87.28741,270.798973 87.4488667,270.377093 87.77178,270.04376 C88.1051133,269.710427 88.52699,269.54376 89.03741,269.54376 C89.5582433,269.54376 89.9801167,269.710427 90.30303,270.04376 C90.62595,270.377093 90.78741,270.809387 90.78741,271.34064 L90.78741,271.7625 C90.78741,272.272927 90.6207433,272.694807 90.28741,273.02814 C89.96449,273.351047 89.55303,273.5125 89.05303,273.5125 C88.5426167,273.5125 88.1207433,273.351047 87.78741,273.02814 C87.4540767,272.694807 87.28741,272.257307 87.28741,271.71564 L87.28741,271.3094 Z M88.09991,271.7625 C88.09991,272.064593 88.1832433,272.314593 88.34991,272.5125 C88.52699,272.710433 88.7613633,272.8094 89.05303,272.8094 C89.3342833,272.8094 89.5582433,272.715647 89.72491,272.52814 C89.8915767,272.33022 89.97491,272.064593 89.97491,271.73126 L89.97491,271.3094 C89.97491,271.007307 89.8915767,270.757307 89.72491,270.5594 C89.5582433,270.351067 89.3290767,270.2469 89.03741,270.2469 C88.7457433,270.2469 88.5165767,270.351067 88.34991,270.5594 C88.1832433,270.757307 88.09991,271.012507 88.09991,271.325 L88.09991,271.7625 Z M91.44366,276.10626 C91.44366,275.595847 91.6051167,275.17918 91.92803,274.85626 C92.2613633,274.522927 92.68324,274.35626 93.19366,274.35626 C93.7040733,274.35626 94.12074,274.522927 94.44366,274.85626 C94.7769933,275.17918 94.94366,275.611473 94.94366,276.15314 L94.94366,276.5594 C94.94366,277.0698 94.7822,277.491667 94.45928,277.825 C94.1363667,278.158333 93.7197,278.325 93.20928,278.325 C92.6988667,278.325 92.2769933,278.163547 91.94366,277.84064 C91.6103267,277.507307 91.44366,277.069807 91.44366,276.52814 L91.44366,276.10626 Z M92.25616,276.5594 C92.25616,276.871893 92.3394933,277.127093 92.50616,277.325 C92.68324,277.522933 92.9176133,277.6219 93.20928,277.6219 C93.4905333,277.6219 93.7144933,277.528147 93.88116,277.34064 C94.0478267,277.14272 94.13116,276.877093 94.13116,276.54376 L94.13116,276.10626 C94.13116,275.793753 94.0426167,275.543753 93.86553,275.35626 C93.6988633,275.158353 93.4749067,275.0594 93.19366,275.0594 C92.9124067,275.0594 92.68324,275.158353 92.50616,275.35626 C92.3394933,275.543753 92.25616,275.804167 92.25616,276.1375 L92.25616,276.5594 Z M89.30303,277.5594 L88.67803,277.16876 L92.84991,270.4969 L93.45928,270.8875 L89.30303,277.5594 Z" id="Shape" fill="#444444" fill-rule="nonzero"></path>
            <path d="M121.280525,273.40314 L122.093025,273.40314 C122.613858,273.392713 123.020108,273.2573 123.311775,272.9969 C123.603442,272.736473 123.749275,272.382307 123.749275,271.9344 C123.749275,270.9344 123.249275,270.4344 122.249275,270.4344 C121.780525,270.4344 121.405525,270.569813 121.124275,270.84064 C120.853442,271.11148 120.718025,271.465647 120.718025,271.90314 L119.624275,271.90314 C119.624275,271.226047 119.869067,270.663547 120.35865,270.21564 C120.85865,269.76772 121.488858,269.54376 122.249275,269.54376 C123.051358,269.54376 123.681567,269.757307 124.1399,270.1844 C124.598233,270.611467 124.8274,271.205213 124.8274,271.96564 C124.8274,272.34064 124.707608,272.700013 124.468025,273.04376 C124.228442,273.38752 123.900317,273.647933 123.48365,273.825 C123.9524,273.97084 124.311775,274.21564 124.561775,274.5594 C124.822192,274.903133 124.9524,275.325 124.9524,275.825 C124.9524,276.585427 124.7024,277.194807 124.2024,277.65314 C123.7024,278.101047 123.051358,278.325 122.249275,278.325 C121.457608,278.325 120.806567,278.106253 120.29615,277.66876 C119.79615,277.231253 119.54615,276.658333 119.54615,275.95 L120.6399,275.95 C120.6399,276.397933 120.785733,276.757313 121.0774,277.02814 C121.369067,277.29898 121.7649,277.4344 122.2649,277.4344 C122.785733,277.4344 123.181567,277.29898 123.4524,277.02814 C123.73365,276.746887 123.874275,276.351053 123.874275,275.84064 C123.874275,275.351053 123.723233,274.976053 123.42115,274.71564 C123.119067,274.444813 122.676358,274.304187 122.093025,274.29376 L121.280525,274.29376 L121.280525,273.40314 Z M126.60865,271.3094 C126.60865,270.798973 126.770108,270.377093 127.093025,270.04376 C127.426358,269.710427 127.84823,269.54376 128.35864,269.54376 C128.87948,269.54376 129.301357,269.710427 129.62427,270.04376 C129.947183,270.377093 130.10865,270.809387 130.10865,271.34064 L130.10865,271.7625 C130.10865,272.272927 129.941973,272.694807 129.60865,273.02814 C129.285727,273.351047 128.87427,273.5125 128.37427,273.5125 C127.863857,273.5125 127.441983,273.351047 127.10865,273.02814 C126.775317,272.694807 126.60865,272.257307 126.60865,271.71564 L126.60865,271.3094 Z M127.42115,271.7625 C127.42115,272.064593 127.504483,272.314593 127.67115,272.5125 C127.848233,272.710433 128.082607,272.8094 128.37427,272.8094 C128.655517,272.8094 128.879473,272.715647 129.04614,272.52814 C129.212807,272.33022 129.29614,272.064593 129.29614,271.73126 L129.29614,271.3094 C129.29614,271.007307 129.212807,270.757307 129.04614,270.5594 C128.879473,270.351067 128.650307,270.2469 128.35864,270.2469 C128.06698,270.2469 127.837817,270.351067 127.67115,270.5594 C127.504483,270.757307 127.42115,271.012507 127.42115,271.325 L127.42115,271.7625 Z M130.7649,276.10626 C130.7649,275.595847 130.926357,275.17918 131.24927,274.85626 C131.582603,274.522927 132.00448,274.35626 132.5149,274.35626 C133.025313,274.35626 133.44198,274.522927 133.7649,274.85626 C134.098233,275.17918 134.2649,275.611473 134.2649,276.15314 L134.2649,276.5594 C134.2649,277.0698 134.10344,277.491667 133.78052,277.825 C133.4576,278.158333 133.040933,278.325 132.53052,278.325 C132.020107,278.325 131.598233,278.163547 131.2649,277.84064 C130.931567,277.507307 130.7649,277.069807 130.7649,276.52814 L130.7649,276.10626 Z M131.5774,276.5594 C131.5774,276.871893 131.660733,277.127093 131.8274,277.325 C132.00448,277.522933 132.238853,277.6219 132.53052,277.6219 C132.811773,277.6219 133.035733,277.528147 133.2024,277.34064 C133.369067,277.14272 133.4524,276.877093 133.4524,276.54376 L133.4524,276.10626 C133.4524,275.793753 133.363857,275.543753 133.18677,275.35626 C133.020103,275.158353 132.796147,275.0594 132.5149,275.0594 C132.233647,275.0594 132.00448,275.158353 131.8274,275.35626 C131.660733,275.543753 131.5774,275.804167 131.5774,276.1375 L131.5774,276.5594 Z M128.62427,277.5594 L127.999275,277.16876 L132.17114,270.4969 L132.78052,270.8875 L128.62427,277.5594 Z" id="Shape" fill="#444444" fill-rule="nonzero"></path>
            <path d="M163.60178,275.34064 L164.78928,275.34064 L164.78928,276.21564 L163.60178,276.21564 L163.60178,278.2 L162.52365,278.2 L162.52365,276.21564 L158.63303,276.21564 L158.63303,275.575 L162.44553,269.66876 L163.60178,269.66876 L163.60178,275.34064 Z M159.8674,275.34064 L162.52365,275.34064 L162.52365,271.15314 L162.38303,271.3875 L159.8674,275.34064 Z M165.9299,271.3094 C165.9299,270.798973 166.09136,270.377093 166.41428,270.04376 C166.747613,269.710427 167.169487,269.54376 167.6799,269.54376 C168.200733,269.54376 168.62261,269.710427 168.94553,270.04376 C169.268443,270.377093 169.4299,270.809387 169.4299,271.34064 L169.4299,271.7625 C169.4299,272.272927 169.263233,272.694807 168.9299,273.02814 C168.606987,273.351047 168.19553,273.5125 167.69553,273.5125 C167.18511,273.5125 166.763233,273.351047 166.4299,273.02814 C166.096567,272.694807 165.9299,272.257307 165.9299,271.71564 L165.9299,271.3094 Z M166.7424,271.7625 C166.7424,272.064593 166.825733,272.314593 166.9924,272.5125 C167.169487,272.710433 167.403863,272.8094 167.69553,272.8094 C167.976777,272.8094 168.200733,272.715647 168.3674,272.52814 C168.534067,272.33022 168.6174,272.064593 168.6174,271.73126 L168.6174,271.3094 C168.6174,271.007307 168.534067,270.757307 168.3674,270.5594 C168.200733,270.351067 167.971567,270.2469 167.6799,270.2469 C167.388233,270.2469 167.159067,270.351067 166.9924,270.5594 C166.825733,270.757307 166.7424,271.012507 166.7424,271.325 L166.7424,271.7625 Z M170.08615,276.10626 C170.08615,275.595847 170.24761,275.17918 170.57053,274.85626 C170.903863,274.522927 171.325737,274.35626 171.83615,274.35626 C172.34657,274.35626 172.763237,274.522927 173.08615,274.85626 C173.419483,275.17918 173.58615,275.611473 173.58615,276.15314 L173.58615,276.5594 C173.58615,277.0698 173.424693,277.491667 173.10178,277.825 C172.77886,278.158333 172.362193,278.325 171.85178,278.325 C171.34136,278.325 170.919483,278.163547 170.58615,277.84064 C170.252817,277.507307 170.08615,277.069807 170.08615,276.52814 L170.08615,276.10626 Z M170.89865,276.5594 C170.89865,276.871893 170.981983,277.127093 171.14865,277.325 C171.325737,277.522933 171.560113,277.6219 171.85178,277.6219 C172.133027,277.6219 172.356983,277.528147 172.52365,277.34064 C172.690317,277.14272 172.77365,276.877093 172.77365,276.54376 L172.77365,276.10626 C172.77365,275.793753 172.68511,275.543753 172.50803,275.35626 C172.341363,275.158353 172.117403,275.0594 171.83615,275.0594 C171.554903,275.0594 171.325737,275.158353 171.14865,275.35626 C170.981983,275.543753 170.89865,275.804167 170.89865,276.1375 L170.89865,276.5594 Z M167.94553,277.5594 L167.32053,277.16876 L171.4924,270.4969 L172.10178,270.8875 L167.94553,277.5594 Z" id="Shape" fill="#444444" fill-rule="nonzero"></path>
            <path d="M198.8449,273.91876 L199.2824,269.66876 L203.6574,269.66876 L203.6574,270.66876 L200.20427,270.66876 L199.93864,272.9969 C200.365727,272.7469 200.844893,272.6219 201.37614,272.6219 C202.14698,272.6219 202.761567,272.882313 203.2199,273.40314 C203.678233,273.913553 203.9074,274.60626 203.9074,275.48126 C203.9074,276.35626 203.667813,277.048973 203.18864,277.5594 C202.719893,278.0698 202.058437,278.325 201.20427,278.325 C200.45427,278.325 199.839687,278.116667 199.36052,277.7 C198.881353,277.272933 198.61052,276.6896 198.54802,275.95 L199.56364,275.95 C199.63656,276.4396 199.813647,276.8094 200.0949,277.0594 C200.376147,277.3094 200.745937,277.4344 201.20427,277.4344 C201.70427,277.4344 202.100103,277.26252 202.39177,276.91876 C202.683437,276.575013 202.82927,276.10106 202.82927,275.4969 C202.82927,274.923967 202.67302,274.465633 202.36052,274.1219 C202.04802,273.77814 201.631353,273.60626 201.11052,273.60626 C200.641773,273.60626 200.27198,273.70522 200.00114,273.90314 L199.7199,274.1375 L198.8449,273.91876 Z M205.25114,271.3094 C205.25114,270.798973 205.4126,270.377093 205.73552,270.04376 C206.068853,269.710427 206.490727,269.54376 207.00114,269.54376 C207.52198,269.54376 207.943857,269.710427 208.26677,270.04376 C208.589683,270.377093 208.75114,270.809387 208.75114,271.34064 L208.75114,271.7625 C208.75114,272.272927 208.584473,272.694807 208.25114,273.02814 C207.928227,273.351047 207.51677,273.5125 207.01677,273.5125 C206.50635,273.5125 206.084473,273.351047 205.75114,273.02814 C205.417807,272.694807 205.25114,272.257307 205.25114,271.71564 L205.25114,271.3094 Z M206.06364,271.7625 C206.06364,272.064593 206.146973,272.314593 206.31364,272.5125 C206.490727,272.710433 206.725103,272.8094 207.01677,272.8094 C207.298017,272.8094 207.521973,272.715647 207.68864,272.52814 C207.855307,272.33022 207.93864,272.064593 207.93864,271.73126 L207.93864,271.3094 C207.93864,271.007307 207.855307,270.757307 207.68864,270.5594 C207.521973,270.351067 207.292807,270.2469 207.00114,270.2469 C206.709473,270.2469 206.480307,270.351067 206.31364,270.5594 C206.146973,270.757307 206.06364,271.012507 206.06364,271.325 L206.06364,271.7625 Z M209.4074,276.10626 C209.4074,275.595847 209.568857,275.17918 209.89177,274.85626 C210.225103,274.522927 210.64698,274.35626 211.1574,274.35626 C211.667813,274.35626 212.08448,274.522927 212.4074,274.85626 C212.740733,275.17918 212.9074,275.611473 212.9074,276.15314 L212.9074,276.5594 C212.9074,277.0698 212.74594,277.491667 212.42302,277.825 C212.1001,278.158333 211.683433,278.325 211.17302,278.325 C210.662607,278.325 210.240733,278.163547 209.9074,277.84064 C209.574067,277.507307 209.4074,277.069807 209.4074,276.52814 L209.4074,276.10626 Z M210.2199,276.5594 C210.2199,276.871893 210.303233,277.127093 210.4699,277.325 C210.64698,277.522933 210.881353,277.6219 211.17302,277.6219 C211.454273,277.6219 211.678233,277.528147 211.8449,277.34064 C212.011567,277.14272 212.0949,276.877093 212.0949,276.54376 L212.0949,276.10626 C212.0949,275.793753 212.006357,275.543753 211.82927,275.35626 C211.662603,275.158353 211.438647,275.0594 211.1574,275.0594 C210.876147,275.0594 210.64698,275.158353 210.4699,275.35626 C210.303233,275.543753 210.2199,275.804167 210.2199,276.1375 L210.2199,276.5594 Z M207.26677,277.5594 L206.64177,277.16876 L210.81364,270.4969 L211.42302,270.8875 L207.26677,277.5594 Z" id="Shape" fill="#444444" fill-rule="nonzero"></path>
            <path d="M241.93176,269.66876 L241.93176,270.575 L241.72864,270.575 C240.884887,270.59584 240.21301,270.851053 239.71301,271.34064 C239.21301,271.819813 238.921343,272.4969 238.83801,273.3719 C239.296343,272.861473 239.910927,272.60626 240.68176,272.60626 C241.421347,272.60626 242.015097,272.866673 242.46301,273.3875 C242.91093,273.90834 243.13489,274.585427 243.13489,275.41876 C243.13489,276.29376 242.895307,276.996887 242.41614,277.52814 C241.936973,278.05938 241.29114,278.325 240.47864,278.325 C239.66614,278.325 239.00468,278.0125 238.49426,277.3875 C237.99426,276.7521 237.74426,275.9396 237.74426,274.95 L237.74426,274.54376 C237.74426,272.970853 238.077593,271.767733 238.74426,270.9344 C239.410927,270.101067 240.40572,269.679187 241.72864,269.66876 L241.93176,269.66876 Z M240.50989,273.5125 C240.13489,273.5125 239.79114,273.62188 239.47864,273.84064 C239.16614,274.059387 238.94739,274.34064 238.82239,274.6844 L238.82239,275.075 C238.82239,275.783333 238.97864,276.351047 239.29114,276.77814 C239.614053,277.20522 240.009887,277.41876 240.47864,277.41876 C240.96822,277.41876 241.353637,277.241673 241.63489,276.8875 C241.916137,276.522927 242.05676,276.048973 242.05676,275.46564 C242.05676,274.882307 241.916137,274.41356 241.63489,274.0594 C241.353637,273.6948 240.978637,273.5125 240.50989,273.5125 Z M244.57239,271.3094 C244.57239,270.798973 244.733847,270.377093 245.05676,270.04376 C245.390093,269.710427 245.81197,269.54376 246.32239,269.54376 C246.843223,269.54376 247.265097,269.710427 247.58801,270.04376 C247.91093,270.377093 248.07239,270.809387 248.07239,271.34064 L248.07239,271.7625 C248.07239,272.272927 247.905723,272.694807 247.57239,273.02814 C247.24947,273.351047 246.83801,273.5125 246.33801,273.5125 C245.827597,273.5125 245.405723,273.351047 245.07239,273.02814 C244.739057,272.694807 244.57239,272.257307 244.57239,271.71564 L244.57239,271.3094 Z M245.38489,271.7625 C245.38489,272.064593 245.468223,272.314593 245.63489,272.5125 C245.81197,272.710433 246.046343,272.8094 246.33801,272.8094 C246.619263,272.8094 246.843223,272.715647 247.00989,272.52814 C247.176557,272.33022 247.25989,272.064593 247.25989,271.73126 L247.25989,271.3094 C247.25989,271.007307 247.176557,270.757307 247.00989,270.5594 C246.843223,270.351067 246.614057,270.2469 246.32239,270.2469 C246.030723,270.2469 245.801557,270.351067 245.63489,270.5594 C245.468223,270.757307 245.38489,271.012507 245.38489,271.325 L245.38489,271.7625 Z M248.72864,276.10626 C248.72864,275.595847 248.890097,275.17918 249.21301,274.85626 C249.546343,274.522927 249.96822,274.35626 250.47864,274.35626 C250.989053,274.35626 251.40572,274.522927 251.72864,274.85626 C252.061973,275.17918 252.22864,275.611473 252.22864,276.15314 L252.22864,276.5594 C252.22864,277.0698 252.06718,277.491667 251.74426,277.825 C251.421347,278.158333 251.00468,278.325 250.49426,278.325 C249.983847,278.325 249.561973,278.163547 249.22864,277.84064 C248.895307,277.507307 248.72864,277.069807 248.72864,276.52814 L248.72864,276.10626 Z M249.54114,276.5594 C249.54114,276.871893 249.624473,277.127093 249.79114,277.325 C249.96822,277.522933 250.202593,277.6219 250.49426,277.6219 C250.775513,277.6219 250.999473,277.528147 251.16614,277.34064 C251.332807,277.14272 251.41614,276.877093 251.41614,276.54376 L251.41614,276.10626 C251.41614,275.793753 251.327597,275.543753 251.15051,275.35626 C250.983843,275.158353 250.759887,275.0594 250.47864,275.0594 C250.197387,275.0594 249.96822,275.158353 249.79114,275.35626 C249.624473,275.543753 249.54114,275.804167 249.54114,276.1375 L249.54114,276.5594 Z M246.58801,277.5594 L245.96301,277.16876 L250.13489,270.4969 L250.74426,270.8875 L246.58801,277.5594 Z" id="Shape" fill="#444444" fill-rule="nonzero"></path>
        </g>
    </g>
</svg>