<?xml version="1.0" encoding="UTF-8"?>
<svg width="525px" height="400px" viewBox="0 0 525 400" version="1.1" xmlns="http://www.w3.org/2000/svg" xmlns:xlink="http://www.w3.org/1999/xlink">
    <title>Desktop</title>
    <defs>
        <filter x="-7.1%" y="-7.6%" width="114.2%" height="115.2%" filterUnits="objectBoundingBox" id="filter-1">
            <feOffset dx="0" dy="2" in="SourceAlpha" result="shadowOffsetOuter1"></feOffset>
            <feGaussianBlur stdDeviation="2" in="shadowOffsetOuter1" result="shadowBlurOuter1"></feGaussianBlur>
            <feColorMatrix values="0 0 0 0 0   0 0 0 0 0   0 0 0 0 0  0 0 0 0.5 0" type="matrix" in="shadowBlurOuter1" result="shadowMatrixOuter1"></feColorMatrix>
            <feMerge>
                <feMergeNode in="shadowMatrixOuter1"></feMergeNode>
                <feMergeNode in="SourceGraphic"></feMergeNode>
            </feMerge>
        </filter>
        <rect id="path-2" x="0" y="0" width="120" height="72" rx="3"></rect>
        <filter x="-5.8%" y="-6.9%" width="111.7%" height="119.4%" filterUnits="objectBoundingBox" id="filter-3">
            <feOffset dx="0" dy="2" in="SourceAlpha" result="shadowOffsetOuter1"></feOffset>
            <feGaussianBlur stdDeviation="2" in="shadowOffsetOuter1" result="shadowBlurOuter1"></feGaussianBlur>
            <feColorMatrix values="0 0 0 0 0   0 0 0 0 0   0 0 0 0 0  0 0 0 0.5 0" type="matrix" in="shadowBlurOuter1"></feColorMatrix>
        </filter>
        <rect id="path-4" x="0" y="0" width="101" height="53" rx="3"></rect>
        <filter x="-6.9%" y="-9.4%" width="113.9%" height="126.4%" filterUnits="objectBoundingBox" id="filter-5">
            <feOffset dx="0" dy="2" in="SourceAlpha" result="shadowOffsetOuter1"></feOffset>
            <feGaussianBlur stdDeviation="2" in="shadowOffsetOuter1" result="shadowBlurOuter1"></feGaussianBlur>
            <feColorMatrix values="0 0 0 0 0   0 0 0 0 0   0 0 0 0 0  0 0 0 0.5 0" type="matrix" in="shadowBlurOuter1"></feColorMatrix>
        </filter>
        <rect id="path-6" x="0" y="0" width="112" height="53" rx="3"></rect>
        <filter x="-6.2%" y="-9.4%" width="112.5%" height="126.4%" filterUnits="objectBoundingBox" id="filter-7">
            <feOffset dx="0" dy="2" in="SourceAlpha" result="shadowOffsetOuter1"></feOffset>
            <feGaussianBlur stdDeviation="2" in="shadowOffsetOuter1" result="shadowBlurOuter1"></feGaussianBlur>
            <feColorMatrix values="0 0 0 0 0   0 0 0 0 0   0 0 0 0 0  0 0 0 0.5 0" type="matrix" in="shadowBlurOuter1"></feColorMatrix>
        </filter>
        <rect id="path-8" x="0" y="0" width="115" height="72" rx="3"></rect>
        <filter x="-6.1%" y="-6.9%" width="112.2%" height="119.4%" filterUnits="objectBoundingBox" id="filter-9">
            <feOffset dx="0" dy="2" in="SourceAlpha" result="shadowOffsetOuter1"></feOffset>
            <feGaussianBlur stdDeviation="2" in="shadowOffsetOuter1" result="shadowBlurOuter1"></feGaussianBlur>
            <feColorMatrix values="0 0 0 0 0   0 0 0 0 0   0 0 0 0 0  0 0 0 0.5 0" type="matrix" in="shadowBlurOuter1"></feColorMatrix>
        </filter>
        <rect id="path-10" x="0" y="0" width="140" height="53" rx="3"></rect>
        <filter x="-5.0%" y="-9.4%" width="110.0%" height="126.4%" filterUnits="objectBoundingBox" id="filter-11">
            <feOffset dx="0" dy="2" in="SourceAlpha" result="shadowOffsetOuter1"></feOffset>
            <feGaussianBlur stdDeviation="2" in="shadowOffsetOuter1" result="shadowBlurOuter1"></feGaussianBlur>
            <feColorMatrix values="0 0 0 0 0   0 0 0 0 0   0 0 0 0 0  0 0 0 0.5 0" type="matrix" in="shadowBlurOuter1"></feColorMatrix>
        </filter>
        <rect id="path-12" x="0" y="0" width="119" height="53" rx="3"></rect>
        <filter x="-5.9%" y="-9.4%" width="111.8%" height="126.4%" filterUnits="objectBoundingBox" id="filter-13">
            <feOffset dx="0" dy="2" in="SourceAlpha" result="shadowOffsetOuter1"></feOffset>
            <feGaussianBlur stdDeviation="2" in="shadowOffsetOuter1" result="shadowBlurOuter1"></feGaussianBlur>
            <feColorMatrix values="0 0 0 0 0   0 0 0 0 0   0 0 0 0 0  0 0 0 0.5 0" type="matrix" in="shadowBlurOuter1"></feColorMatrix>
        </filter>
        <rect id="path-14" x="0" y="0" width="112" height="53" rx="3"></rect>
        <filter x="-6.2%" y="-9.4%" width="112.5%" height="126.4%" filterUnits="objectBoundingBox" id="filter-15">
            <feOffset dx="0" dy="2" in="SourceAlpha" result="shadowOffsetOuter1"></feOffset>
            <feGaussianBlur stdDeviation="2" in="shadowOffsetOuter1" result="shadowBlurOuter1"></feGaussianBlur>
            <feColorMatrix values="0 0 0 0 0   0 0 0 0 0   0 0 0 0 0  0 0 0 0.5 0" type="matrix" in="shadowBlurOuter1"></feColorMatrix>
        </filter>
        <rect id="path-16" x="0" y="0" width="140" height="53" rx="3"></rect>
        <filter x="-5.0%" y="-9.4%" width="110.0%" height="126.4%" filterUnits="objectBoundingBox" id="filter-17">
            <feOffset dx="0" dy="2" in="SourceAlpha" result="shadowOffsetOuter1"></feOffset>
            <feGaussianBlur stdDeviation="2" in="shadowOffsetOuter1" result="shadowBlurOuter1"></feGaussianBlur>
            <feColorMatrix values="0 0 0 0 0   0 0 0 0 0   0 0 0 0 0  0 0 0 0.5 0" type="matrix" in="shadowBlurOuter1"></feColorMatrix>
        </filter>
        <rect id="path-18" x="0" y="0" width="153" height="53" rx="3"></rect>
        <filter x="-4.6%" y="-9.4%" width="109.2%" height="126.4%" filterUnits="objectBoundingBox" id="filter-19">
            <feOffset dx="0" dy="2" in="SourceAlpha" result="shadowOffsetOuter1"></feOffset>
            <feGaussianBlur stdDeviation="2" in="shadowOffsetOuter1" result="shadowBlurOuter1"></feGaussianBlur>
            <feColorMatrix values="0 0 0 0 0   0 0 0 0 0   0 0 0 0 0  0 0 0 0.5 0" type="matrix" in="shadowBlurOuter1"></feColorMatrix>
        </filter>
    </defs>
    <g id="sustainability" stroke="none" stroke-width="1" fill="none" fill-rule="evenodd">
        <g id="Desktop" transform="translate(-4.000000, -2.000000)">
            <g id="Group" filter="url(#filter-1)" transform="translate(181.000000, 132.000000)">
                <circle id="Oval" fill="#FFFFFF" cx="47.7150997" cy="47.7150997" r="47.7150997"></circle>
                <circle id="Oval-Copy" fill="#FFFFFF" cx="120.837546" cy="47.7150997" r="47.7150997"></circle>
                <circle id="Oval-Copy-2" fill="#FFFFFF" cx="86.8155194" cy="110.2849" r="47.7150997"></circle>
                <circle id="Oval" fill-opacity="0.5" fill="#F4AC32" cx="47.7150997" cy="47.7150997" r="47.7150997"></circle>
                <circle id="Oval-Copy" fill-opacity="0.5" fill="#8C4843" cx="120.837546" cy="47.7150997" r="47.7150997"></circle>
                <circle id="Oval-Copy-2" fill-opacity="0.5" fill="#49416D" cx="86.8155194" cy="110.2849" r="47.7150997"></circle>
                <text id="Food" font-family="Roboto-Regular, Roboto" font-size="18" font-weight="normal" fill="#000000">
                    <tspan x="23.7763672" y="56">Food</tspan>
                </text>
                <text id="Health" font-family="Roboto-Regular, Roboto" font-size="18" font-weight="normal" fill="#000000">
                    <tspan x="101.321777" y="54">Health</tspan>
                </text>
                <text id="Housing" font-family="Roboto-Regular, Roboto" font-size="18" font-weight="normal" fill="#000000">
                    <tspan x="54.5082716" y="120.487179">Housing</tspan>
                </text>
            </g>
            <g id="arrows" transform="translate(132.000000, 66.000000)" fill="#979797" fill-rule="nonzero">
                <path id="Line-3" d="M66.1550818,198.454643 C66.7607555,198.296641 67.3798368,198.65955 67.5378386,199.265224 C67.5997395,199.502511 67.5830086,199.753473 67.4901574,199.980443 L67.4901574,199.980443 L60.4066661,217.295644 C60.1696633,217.874984 59.5078868,218.152503 58.9285467,217.915501 C58.7656965,217.84888 58.6205937,217.745259 58.5047297,217.612843 L58.5047297,217.612843 L53.983,212.445 L35.4877569,228.628865 C34.864302,229.174388 33.916658,229.111212 33.371135,228.487757 C32.8597071,227.903268 32.8832688,227.033847 33.4019229,226.477956 L33.5122431,226.371135 L52.007,210.187 L47.4859655,205.019969 C47.1032207,204.582547 47.1170409,203.933916 47.4981333,203.513467 L47.592584,203.420691 C47.7250001,203.304827 47.8825738,203.221384 48.0528263,203.17697 L48.0528263,203.17697 Z"></path>
                <path id="Line-3" d="M23.0430097,152.825346 C23.2148681,152.787621 23.3931497,152.790427 23.5637357,152.833542 L23.5637357,152.833542 L41.7014483,157.417799 C42.3083083,157.571181 42.6759247,158.187479 42.5225425,158.794339 C42.4624515,159.032091 42.3268688,159.243938 42.1361452,159.398085 L42.1361452,159.398085 L27.586112,171.157701 C27.0992903,171.55116 26.3856819,171.475474 25.9922233,170.988652 C25.8816235,170.851808 25.8044035,170.691093 25.7666785,170.519235 L25.7666785,170.519235 L24.294,163.812 L0.821610942,168.965117 C0.0124494344,169.142737 -0.787495696,168.630772 -0.965116515,167.821611 C-1.13228905,167.060047 -0.688617503,166.306647 0.038760804,166.072564 L0.178389058,166.034883 L23.65,160.882 L22.1789991,154.175362 C22.0537394,153.604734 22.3823612,153.040173 22.9238142,152.858319 Z"></path>
                <path id="Line-3" d="M9.00694962,77.0881508 L9.14050946,77.143627 L28.914,86.481 L31.8463638,80.272096 C32.0958268,79.7438214 32.7009065,79.4976497 33.240661,79.6844847 L33.3551693,79.7312034 C33.5142721,79.8063353 33.6536973,79.9174786 33.7624031,80.0558315 L33.7624031,80.0558315 L45.3206544,94.7663332 C45.7073758,95.258524 45.6218759,95.9710231 45.1296851,96.3577444 C44.936858,96.5092513 44.7000925,96.5941296 44.4549267,96.5996389 L44.4549267,96.5996389 L25.7515746,97.0199389 C25.1257892,97.0340015 24.6070899,96.5381022 24.5930273,95.9123167 C24.5890743,95.7364109 24.6261311,95.5620005 24.701263,95.4028977 L24.701263,95.4028977 L27.633,89.194 L7.85949054,79.856373 C7.11038644,79.5026294 6.78988342,78.6085946 7.14362703,77.8594905 C7.47656219,77.1544514 8.28809432,76.8290727 9.00694962,77.0881508 Z"></path>
                <path id="Line-3" d="M54.6225836,21.5049512 L54.7131041,21.6177425 L68.158,40.105 L73.7119806,36.0666658 C74.1844554,35.7230477 74.8334228,35.797635 75.2171814,36.2206852 L75.2951951,36.316647 C75.3986841,36.4589444 75.4676213,36.6233824 75.4965473,36.7969387 L75.4965473,36.7969387 L78.5721357,55.2504692 C78.6750402,55.8678959 78.2579374,56.4518398 77.6405106,56.5547443 C77.3986195,56.5950595 77.1501776,56.5558318 76.9324756,56.4429493 L76.9324756,56.4429493 L60.3242981,47.8313017 C59.768614,47.5431692 59.5517206,46.8591207 59.8398531,46.3034366 C59.920846,46.1472359 60.0370942,46.0120377 60.1793915,45.9085487 L60.1793915,45.9085487 L65.732,41.869 L52.2868959,23.3822575 C51.7996385,22.7122786 51.9477635,21.7741533 52.6177425,21.2868959 C53.2483108,20.8283007 54.1164069,20.9325356 54.6225836,21.5049512 Z"></path>
                <path id="Line-3" d="M165.837289,-0.961586794 C166.597018,-0.786264709 167.087596,-0.0625316937 166.987379,0.694984682 L166.961587,0.83728926 L161.996,22.352 L168.687349,23.8964074 C169.256602,24.0277735 169.625864,24.5666308 169.558135,25.1337771 L169.536846,25.2556032 C169.497282,25.4270476 169.418345,25.5869259 169.306285,25.7225769 L169.306285,25.7225769 L157.39146,40.1457863 C156.992808,40.6283648 156.27843,40.6964008 155.795851,40.297749 C155.60679,40.1415681 155.473485,39.9282797 155.415945,39.6898982 L155.415945,39.6898982 L151.026272,21.5041123 C150.879401,20.8956439 151.253599,20.2833197 151.862067,20.136448 C152.033105,20.0951629 152.211407,20.094267 152.382851,20.133831 L152.382851,20.133831 L159.073,21.677 L164.038413,0.16271074 C164.224693,-0.644501357 165.030077,-1.14786651 165.837289,-0.961586794 Z"></path>
                <path id="Line-3" d="M251.713104,57.6177425 C252.171699,58.2483108 252.067464,59.1164069 251.495049,59.6225836 L251.382258,59.7131041 L232.894,73.158 L236.933334,78.7119806 C237.276952,79.1844554 237.202365,79.8334228 236.779315,80.2171814 L236.683353,80.2951951 C236.541056,80.3986841 236.376618,80.4676213 236.203061,80.4965473 L236.203061,80.4965473 L217.749531,83.5721357 C217.132104,83.6750402 216.54816,83.2579374 216.445256,82.6405106 C216.404941,82.3986195 216.444168,82.1501776 216.557051,81.9324756 L216.557051,81.9324756 L225.168698,65.3242981 C225.456831,64.768614 226.140879,64.5517206 226.696563,64.8398531 C226.852764,64.920846 226.987962,65.0370942 227.091451,65.1793915 L227.091451,65.1793915 L231.13,70.732 L249.617742,57.2868959 C250.287721,56.7996385 251.225847,56.9477635 251.713104,57.6177425 Z"></path>
                <path id="Line-3" d="M244.271389,144.336283 C244.87374,144.166054 245.500041,144.516357 245.670271,145.118709 C245.718121,145.288027 245.725893,145.466161 245.692971,145.639004 L245.692971,145.639004 L244.408,152.384 L268.780668,157.026492 C269.594464,157.181501 270.128517,157.966872 269.973508,158.780668 C269.827617,159.546594 269.123343,160.064719 268.362525,159.993793 L268.219332,159.973508 L243.846,155.331 L242.562022,162.076485 C242.452709,162.650381 241.928494,163.040151 241.359157,162.994346 L241.236601,162.977772 C241.063758,162.944849 240.900954,162.872137 240.761082,162.765392 L240.761082,162.765392 L225.889076,151.415703 C225.391481,151.03596 225.295944,150.324737 225.675687,149.827143 C225.82446,149.632199 226.032449,149.490767 226.268433,149.424075 L226.268433,149.424075 Z"></path>
                <path id="Line-3" d="M199.179467,204.485363 C199.410763,204.403884 199.662247,204.399622 199.896171,204.473216 L199.896171,204.473216 L217.741917,210.087608 C218.339008,210.275457 218.670764,210.911776 218.482915,211.508868 C218.430112,211.676708 218.338956,211.829949 218.216667,211.956455 L218.216667,211.956455 L213.444,216.892 L230.542533,233.421517 C231.138163,233.997293 231.154258,234.946904 230.578483,235.542533 C230.038693,236.100936 229.170337,236.149982 228.573118,235.679507 L228.457467,235.578483 L211.359,219.049 L206.586855,223.987295 C206.182885,224.405194 205.535363,224.44553 205.084588,224.100839 L204.984257,224.014457 C204.85775,223.892168 204.761454,223.742104 204.702993,223.57615 L204.702993,223.57615 L198.487059,205.930918 C198.279083,205.340536 198.589085,204.693339 199.179467,204.485363 Z"></path>
                <path id="Line-3" d="M134.486158,230.071205 C134.766089,229.511344 135.446874,229.284415 136.006735,229.564346 C136.226073,229.674015 136.403924,229.851866 136.513594,230.071205 L136.513594,230.071205 L144.880099,246.804215 C145.160029,247.364076 144.933101,248.044861 144.37324,248.324791 C144.215865,248.403479 144.042331,248.444444 143.866381,248.444444 L143.866381,248.444444 L137,248.444 L137,271.5 C137,272.328427 136.328427,273 135.5,273 C134.720304,273 134.079551,272.405112 134.006867,271.64446 L134,271.5 L134,248.444 L127.133371,248.444444 C126.549157,248.444444 126.068184,248.002419 126.00665,247.434567 L126,247.311074 C126,247.135123 126.040966,246.961589 126.119653,246.804215 L126.119653,246.804215 Z"></path>
            </g>
            <g id="textbox-2" transform="translate(400.000000, 76.000000)">
                <g id="Rectangle">
                    <use fill="black" fill-opacity="1" filter="url(#filter-3)" xlink:href="#path-2"></use>
                    <use fill="#E2EFDE" fill-rule="evenodd" xlink:href="#path-2"></use>
                </g>
                <text id="Very-very-long-Thing" font-family="Roboto-Bold, Roboto" font-size="16" font-weight="bold" fill="#1A2226">
                    <tspan x="6.85714286" y="22">Pre-existing </tspan>
                    <tspan x="6.85714286" y="41">conditions:</tspan>
                </text>
                <text id="Source" font-family="Roboto-Regular, Roboto" font-size="16" font-weight="normal" fill="#1A2226">
                    <tspan x="6.68571429" y="62">CDC, DEA</tspan>
                </text>
            </g>
            <g id="textbox-2" transform="translate(96.000000, 13.000000)">
                <g id="Rectangle">
                    <use fill="black" fill-opacity="1" filter="url(#filter-5)" xlink:href="#path-4"></use>
                    <use fill="#E2EFDE" fill-rule="evenodd" xlink:href="#path-4"></use>
                </g>
                <text id="Very-very-long-Thing" font-family="Roboto-Bold, Roboto" font-size="16" font-weight="bold" fill="#1A2226">
                    <tspan x="5.77142857" y="22">Water:</tspan>
                </text>
                <text id="Source" font-family="Roboto-Regular, Roboto" font-size="16" font-weight="normal" fill="#1A2226">
                    <tspan x="5.62714286" y="43">USGS</tspan>
                </text>
            </g>
            <g id="textbox-2" transform="translate(417.000000, 199.000000)">
                <g id="Rectangle">
                    <use fill="black" fill-opacity="1" filter="url(#filter-7)" xlink:href="#path-6"></use>
                    <use fill="#E2EFDE" fill-rule="evenodd" xlink:href="#path-6"></use>
                </g>
                <text id="Very-very-long-Thing" font-family="Roboto-Bold, Roboto" font-size="16" font-weight="bold" fill="#1A2226">
                    <tspan x="6.4" y="22">Housing:</tspan>
                </text>
                <text id="Source" font-family="Roboto-Regular, Roboto" font-size="16" font-weight="normal" fill="#1A2226">
                    <tspan x="6.24" y="43">Census, HUD</tspan>
                </text>
            </g>
            <g id="textbox-2" transform="translate(4.000000, 98.000000)">
                <g id="Rectangle">
                    <use fill="black" fill-opacity="1" filter="url(#filter-9)" xlink:href="#path-8"></use>
                    <use fill="#E2EFDE" fill-rule="evenodd" xlink:href="#path-8"></use>
                </g>
                <text id="Very-very-long-Thing" font-family="Roboto-Bold, Roboto" font-size="16" font-weight="bold" fill="#1A2226">
                    <tspan x="6.57142857" y="22">Disasters:</tspan>
                </text>
                <text id="Source" font-family="Roboto-Regular, Roboto" font-size="16" font-weight="normal" fill="#1A2226">
                    <tspan x="6.40714286" y="43">NOAA, IPCC, </tspan>
                    <tspan x="6.40714286" y="62">NASA</tspan>
                </text>
            </g>
            <g id="textbox-2" transform="translate(368.000000, 305.000000)">
                <g id="Rectangle">
                    <use fill="black" fill-opacity="1" filter="url(#filter-11)" xlink:href="#path-10"></use>
                    <use fill="#E2EFDE" fill-rule="evenodd" xlink:href="#path-10"></use>
                </g>
                <text id="Very-very-long-Thing" font-family="Roboto-Bold, Roboto" font-size="16" font-weight="bold" fill="#1A2226">
                    <tspan x="8" y="22">Employment:</tspan>
                </text>
                <text id="Source" font-family="Roboto-Regular, Roboto" font-size="16" font-weight="normal" fill="#1A2226">
                    <tspan x="7.8" y="43">BLS, BEA, Census</tspan>
                </text>
            </g>
            <g id="textbox-2" transform="translate(36.000000, 305.000000)">
                <g id="Rectangle">
                    <use fill="black" fill-opacity="1" filter="url(#filter-13)" xlink:href="#path-12"></use>
                    <use fill="#E2EFDE" fill-rule="evenodd" xlink:href="#path-12"></use>
                </g>
                <text id="Very-very-long-Thing" font-family="Roboto-Bold, Roboto" font-size="16" font-weight="bold" fill="#1A2226">
                    <tspan x="6.8" y="22">Energy Infra:</tspan>
                </text>
                <text id="Source" font-family="Roboto-Regular, Roboto" font-size="16" font-weight="normal" fill="#1A2226">
                    <tspan x="6.63" y="43">EIA, NREL</tspan>
                </text>
            </g>
            <g id="textbox-2" transform="translate(4.000000, 211.000000)">
                <g id="Rectangle">
                    <use fill="black" fill-opacity="1" filter="url(#filter-15)" xlink:href="#path-14"></use>
                    <use fill="#E2EFDE" fill-rule="evenodd" xlink:href="#path-14"></use>
                </g>
                <text id="Very-very-long-Thing" font-family="Roboto-Bold, Roboto" font-size="16" font-weight="bold" fill="#1A2226">
                    <tspan x="6.4" y="22">Air Quality:</tspan>
                </text>
                <text id="Source" font-family="Roboto-Regular, Roboto" font-size="16" font-weight="normal" fill="#1A2226">
                    <tspan x="6.24" y="43">EPA, NASA</tspan>
                </text>
            </g>
            <g id="textbox-2" transform="translate(197.000000, 349.000000)">
                <g id="Rectangle">
                    <use fill="black" fill-opacity="1" filter="url(#filter-17)" xlink:href="#path-16"></use>
                    <use fill="#E2EFDE" fill-rule="evenodd" xlink:href="#path-16"></use>
                </g>
                <text id="Very-very-long-Thing" font-family="Roboto-Bold, Roboto" font-size="16" font-weight="bold" fill="#1A2226">
                    <tspan x="8" y="22">Farming, fishing:</tspan>
                </text>
                <text id="Source" font-family="Roboto-Regular, Roboto" font-size="16" font-weight="normal" fill="#1A2226">
                    <tspan x="7.8" y="43">USDA, Census</tspan>
                </text>
            </g>
            <g id="textbox-2" transform="translate(239.000000, 2.000000)">
                <g id="Rectangle">
                    <use fill="black" fill-opacity="1" filter="url(#filter-19)" xlink:href="#path-18"></use>
                    <use fill="#E2EFDE" fill-rule="evenodd" xlink:href="#path-18"></use>
                </g>
                <text id="Very-very-long-Thing" font-family="Roboto-Bold, Roboto" font-size="16" font-weight="bold" fill="#1A2226">
                    <tspan x="8.74285714" y="22">Oceans:</tspan>
                </text>
                <text id="Source" font-family="Roboto-Regular, Roboto" font-size="16" font-weight="normal" fill="#1A2226">
                    <tspan x="8.52428571" y="43">Ocean Data Watch</tspan>
                </text>
            </g>
        </g>
    </g>
</svg>