<svg width="15" height="15" viewBox="0 0 15 15" fill="none" xmlns="http://www.w3.org/2000/svg">
<path d="M6.33337 11.3337V7.33366H7.66671V11.3337H6.33337ZM7.00004 6.66699C6.81115 6.66699 6.65282 6.6031 6.52504 6.47533C6.39726 6.34755 6.33337 6.18921 6.33337 6.00033C6.33337 5.81144 6.39726 5.6531 6.52504 5.52533C6.65282 5.39755 6.81115 5.33366 7.00004 5.33366C7.18893 5.33366 7.34726 5.39755 7.47504 5.52533C7.60282 5.6531 7.66671 5.81144 7.66671 6.00033C7.66671 6.18921 7.60282 6.34755 7.47504 6.47533C7.34726 6.6031 7.18893 6.66699 7.00004 6.66699ZM12.2334 7.00033L13.3334 5.90033C13.4445 6.23366 13.5278 6.57533 13.5834 6.92533C13.6389 7.27533 13.6667 7.63366 13.6667 8.00033C13.6667 8.92255 13.4917 9.78922 13.1417 10.6003C12.7917 11.4114 12.3167 12.117 11.7167 12.717C11.1167 13.317 10.4112 13.792 9.60004 14.142C8.78893 14.492 7.92226 14.667 7.00004 14.667C6.07782 14.667 5.21115 14.492 4.40004 14.142C3.58893 13.792 2.88337 13.317 2.28337 12.717C1.68337 12.117 1.20837 11.4114 0.858374 10.6003C0.508374 9.78922 0.333374 8.92255 0.333374 8.00033C0.333374 7.0781 0.508374 6.21144 0.858374 5.40033C1.20837 4.58921 1.68337 3.88366 2.28337 3.28366C2.88337 2.68366 3.58893 2.20866 4.40004 1.85866C5.21115 1.50866 6.07782 1.33366 7.00004 1.33366C7.36671 1.33366 7.72504 1.36144 8.07504 1.41699C8.42504 1.47255 8.76671 1.55588 9.10004 1.66699L8.00004 2.76699C7.83337 2.73366 7.66949 2.70866 7.50837 2.69199C7.34726 2.67533 7.17782 2.66699 7.00004 2.66699C5.51115 2.66699 4.25004 3.18366 3.21671 4.21699C2.18337 5.25033 1.66671 6.51144 1.66671 8.00033C1.66671 9.48921 2.18337 10.7503 3.21671 11.7837C4.25004 12.817 5.51115 13.3337 7.00004 13.3337C8.48893 13.3337 9.75004 12.817 10.7834 11.7837C11.8167 10.7503 12.3334 9.48921 12.3334 8.00033C12.3334 7.82255 12.325 7.6531 12.3084 7.49199C12.2917 7.33088 12.2667 7.16699 12.2334 7.00033ZM10.6667 8.00033C10.6667 6.9781 10.3112 6.11144 9.60004 5.40033C8.88893 4.68921 8.02226 4.33366 7.00004 4.33366C8.02226 4.33366 8.88893 3.9781 9.60004 3.26699C10.3112 2.55588 10.6667 1.68921 10.6667 0.666992C10.6667 1.68921 11.0223 2.55588 11.7334 3.26699C12.4445 3.9781 13.3112 4.33366 14.3334 4.33366C13.3112 4.33366 12.4445 4.68921 11.7334 5.40033C11.0223 6.11144 10.6667 6.9781 10.6667 8.00033Z" fill="#303030"/>
</svg>
