<svg width="306" height="221" viewBox="0 0 306 221" fill="none" xmlns="http://www.w3.org/2000/svg">
<g clip-path="url(#clip0_30_1508)">
<path d="M41.9937 219.736C29.8253 216.409 19.0727 208.887 11.4593 198.376C3.84603 187.866 -0.187033 174.974 0.00666523 161.769C0.0549263 158.478 0.384271 155.119 1.70105 152.133C3.01783 149.147 5.46372 146.565 8.52326 145.857C11.8623 145.085 15.3857 146.664 17.8741 149.126C20.3624 151.589 21.994 154.839 23.4952 158.065C32.5368 177.5 39.4064 198.353 41.9784 219.814L41.9937 219.736Z" fill="#F2F2F2"/>
<path d="M7.00798 146.506L13.3449 161.629L19.6818 176.752C21.6887 181.542 23.6917 186.334 25.7661 191.092C27.8222 195.808 29.9488 200.491 32.2175 205.099C34.4829 209.7 36.8907 214.227 39.5042 218.621C39.8296 219.168 40.1583 219.713 40.4902 220.256C40.7198 220.632 41.2939 220.283 41.0626 219.904C38.399 215.543 35.9446 211.044 33.6427 206.462C31.3383 201.875 29.1844 197.207 27.1102 192.5C25.0248 187.769 23.0196 183 21.0198 178.228C18.9148 173.205 16.8102 168.183 14.7059 163.16L8.369 148.036L7.58041 146.154C7.40891 145.745 6.83755 146.099 7.00798 146.506Z" fill="white"/>
<path d="M39.3486 219.84C32.176 221.563 24.6602 220.707 18.0061 217.409C11.3519 214.111 5.94467 208.561 2.6512 201.65C1.83062 199.928 1.13823 198.091 1.05448 196.167C0.970722 194.244 1.57686 192.209 2.98348 190.974C4.51861 189.627 6.75356 189.447 8.67845 190.02C10.6033 190.593 12.2856 191.818 13.8942 193.067C23.5834 200.593 32.5096 209.472 39.3608 219.885L39.3486 219.84Z" fill="#F2F2F2"/>
<path d="M2.36644 191.741L9.54338 197.796L16.7203 203.851C18.9933 205.769 21.2647 207.688 23.5646 209.57C25.8442 211.436 28.152 213.264 30.5142 215.013C32.873 216.76 35.2863 218.427 37.7725 219.967C38.0821 220.159 38.3928 220.349 38.7047 220.537C38.9206 220.667 39.129 220.323 38.9116 220.192C36.4077 218.683 33.9773 217.043 31.6045 215.317C29.2291 213.589 26.911 211.776 24.6245 209.921C22.3258 208.056 20.0589 206.148 17.7943 204.238C15.4105 202.227 13.0269 200.216 10.6434 198.205L3.46645 192.15L2.57332 191.397C2.3791 191.233 2.17342 191.578 2.36644 191.741Z" fill="white"/>
<path d="M303.23 0H110.424C109.689 0.000856341 108.985 0.307824 108.465 0.853548C107.945 1.39927 107.653 2.13918 107.652 2.91095V140.142C107.653 140.913 107.945 141.653 108.465 142.199C108.985 142.745 109.689 143.052 110.424 143.053H303.23C303.965 143.052 304.669 142.745 305.189 142.199C305.709 141.653 306.001 140.913 306.002 140.142V2.91095C306.001 2.13918 305.709 1.39927 305.189 0.853548C304.669 0.307824 303.965 0.000856341 303.23 0ZM305.21 140.142C305.21 140.693 305.001 141.222 304.63 141.612C304.259 142.002 303.755 142.221 303.23 142.221H110.424C109.899 142.221 109.395 142.002 109.024 141.612C108.653 141.222 108.444 140.693 108.444 140.142V2.91095C108.444 2.35957 108.653 1.83083 109.024 1.44095C109.395 1.05106 109.899 0.831922 110.424 0.831701H303.23C303.755 0.831922 304.259 1.05106 304.63 1.44095C305.001 1.83083 305.21 2.35957 305.21 2.91095V140.142Z" fill="#3F3D56"/>
<path d="M305.604 11.6602H108.047V12.4919H305.604V11.6602Z" fill="#3F3D56"/>
<path d="M114.778 8.73239C116.09 8.73239 117.153 7.6153 117.153 6.23729C117.153 4.85928 116.09 3.74219 114.778 3.74219C113.466 3.74219 112.402 4.85928 112.402 6.23729C112.402 7.6153 113.466 8.73239 114.778 8.73239Z" fill="#3F3D56"/>
<path d="M121.606 8.73239C122.918 8.73239 123.981 7.6153 123.981 6.23729C123.981 4.85928 122.918 3.74219 121.606 3.74219C120.294 3.74219 119.23 4.85928 119.23 6.23729C119.23 7.6153 120.294 8.73239 121.606 8.73239Z" fill="#3F3D56"/>
<path d="M128.434 8.73239C129.746 8.73239 130.809 7.6153 130.809 6.23729C130.809 4.85928 129.746 3.74219 128.434 3.74219C127.122 3.74219 126.059 4.85928 126.059 6.23729C126.059 7.6153 127.122 8.73239 128.434 8.73239Z" fill="#3F3D56"/>
<path d="M156.293 30.9801H123.037C122.302 30.9801 121.597 30.6734 121.077 30.1275C120.558 29.5816 120.266 28.8412 120.266 28.0692C120.266 27.2971 120.558 26.5567 121.077 26.0108C121.597 25.4649 122.302 25.1582 123.037 25.1582H156.293C157.028 25.1582 157.733 25.4649 158.253 26.0108C158.773 26.5567 159.064 27.2971 159.064 28.0692C159.064 28.8412 158.773 29.5816 158.253 30.1275C157.733 30.6734 157.028 30.9801 156.293 30.9801Z" fill="#CCCCCC"/>
<path d="M201.822 45.1207H123.037C122.302 45.1207 121.597 44.814 121.077 44.2681C120.558 43.7222 120.266 42.9818 120.266 42.2098C120.266 41.4377 120.558 40.6973 121.077 40.1514C121.597 39.6055 122.302 39.2988 123.037 39.2988H201.822C202.557 39.2988 203.262 39.6055 203.782 40.1514C204.302 40.6973 204.594 41.4377 204.594 42.2098C204.594 42.9818 204.302 43.7222 203.782 44.2681C203.262 44.814 202.557 45.1207 201.822 45.1207Z" fill="#CCCCCC"/>
<path d="M227.251 50.7441C223.539 56.4277 221.376 63.0679 220.995 69.9481C220.613 76.8284 222.027 83.6876 225.085 89.7854C228.143 95.8832 232.728 100.988 238.345 104.549C243.963 108.111 250.4 109.993 256.961 109.993V76.9581L227.251 50.7441Z" fill="#0B57D0"/>
<path d="M256.96 34.3086C251.109 34.3047 245.345 35.7995 240.168 38.6634C234.991 41.5273 230.557 45.6741 227.25 50.7443L256.96 76.9582V34.3086Z" fill="#8AB4F8"/>
<path d="M256.958 110.409H256.562V33.8926H256.958C266.618 33.8926 275.883 37.9233 282.714 45.0982C289.544 52.273 293.382 62.0041 293.382 72.1508C293.382 82.2975 289.544 92.0287 282.714 99.2035C275.883 106.378 266.618 110.409 256.958 110.409ZM257.354 34.7265V109.575C266.735 109.466 275.697 105.474 282.293 98.468C288.89 91.4614 292.59 82.0049 292.59 72.1508C292.59 62.2967 288.89 52.8402 282.293 45.8337C275.697 38.8272 266.735 34.836 257.354 34.7265Z" fill="#3F3D56"/>
<path d="M146 126.002H139.27C138.798 126.002 138.345 125.804 138.011 125.453C137.677 125.103 137.489 124.627 137.488 124.131V103.754C137.489 103.258 137.677 102.782 138.011 102.432C138.345 102.081 138.798 101.883 139.27 101.883H146C146.473 101.883 146.925 102.081 147.259 102.432C147.593 102.782 147.781 103.258 147.782 103.754V124.131C147.781 124.627 147.593 125.103 147.259 125.453C146.925 125.804 146.473 126.002 146 126.002Z" fill="#CCCCCC"/>
<path d="M165.797 126.002H159.067C158.594 126.002 158.142 125.804 157.808 125.454C157.474 125.103 157.286 124.627 157.285 124.131V94.1897C157.286 93.6936 157.474 93.2179 157.808 92.8671C158.142 92.5162 158.594 92.3189 159.067 92.3184H165.797C166.269 92.3189 166.722 92.5162 167.056 92.8671C167.39 93.2179 167.578 93.6936 167.579 94.1897V124.131C167.578 124.627 167.39 125.103 167.056 125.454C166.722 125.804 166.269 126.002 165.797 126.002Z" fill="#FCC934"/>
<path d="M185.594 126.003H178.864C178.391 126.002 177.938 125.805 177.604 125.454C177.27 125.103 177.083 124.628 177.082 124.132V85.8733C177.083 85.3771 177.27 84.9015 177.604 84.5507C177.938 84.1998 178.391 84.0025 178.864 84.002H185.594C186.066 84.0025 186.519 84.1998 186.853 84.5507C187.187 84.9015 187.375 85.3771 187.376 85.8733V124.132C187.375 124.628 187.187 125.103 186.853 125.454C186.519 125.805 186.066 126.002 185.594 126.003Z" fill="#0B57D0"/>
<path d="M146.003 126.211H139.273C138.748 126.21 138.245 125.991 137.873 125.601C137.502 125.211 137.294 124.683 137.293 124.131V78.3878C137.294 77.8366 137.502 77.3081 137.873 76.9183C138.245 76.5285 138.748 76.3092 139.273 76.3086H146.003C146.528 76.3092 147.031 76.5285 147.402 76.9183C147.773 77.3081 147.982 77.8366 147.982 78.3878V124.131C147.982 124.683 147.773 125.211 147.402 125.601C147.031 125.991 146.528 126.21 146.003 126.211ZM139.273 77.1403C138.958 77.1407 138.656 77.2722 138.433 77.5061C138.21 77.74 138.085 78.0571 138.085 78.3878V124.131C138.085 124.462 138.21 124.779 138.433 125.013C138.656 125.247 138.958 125.379 139.273 125.379H146.003C146.318 125.379 146.62 125.247 146.842 125.013C147.065 124.779 147.19 124.462 147.191 124.131V78.3878C147.19 78.0571 147.065 77.74 146.842 77.5061C146.62 77.2722 146.318 77.1407 146.003 77.1403H139.273Z" fill="#3F3D56"/>
<path d="M165.796 126.211H159.065C158.541 126.21 158.038 125.991 157.666 125.601C157.295 125.211 157.087 124.683 157.086 124.131V78.3878C157.087 77.8366 157.295 77.3081 157.666 76.9183C158.038 76.5285 158.541 76.3092 159.065 76.3086H165.796C166.321 76.3092 166.824 76.5285 167.195 76.9183C167.566 77.3081 167.775 77.8366 167.775 78.3878V124.131C167.775 124.683 167.566 125.211 167.195 125.601C166.824 125.991 166.321 126.21 165.796 126.211ZM159.065 77.1403C158.751 77.1407 158.449 77.2722 158.226 77.5061C158.003 77.74 157.878 78.0571 157.878 78.3878V124.131C157.878 124.462 158.003 124.779 158.226 125.013C158.449 125.247 158.751 125.379 159.065 125.379H165.796C166.111 125.379 166.413 125.247 166.635 125.013C166.858 124.779 166.983 124.462 166.984 124.131V78.3878C166.983 78.0571 166.858 77.74 166.635 77.5061C166.413 77.2722 166.111 77.1407 165.796 77.1403H159.065Z" fill="#3F3D56"/>
<path d="M185.593 126.211H178.862C178.338 126.21 177.834 125.991 177.463 125.601C177.092 125.211 176.883 124.683 176.883 124.131V78.3878C176.883 77.8366 177.092 77.3081 177.463 76.9183C177.834 76.5285 178.338 76.3092 178.862 76.3086H185.593C186.118 76.3092 186.621 76.5285 186.992 76.9183C187.363 77.3081 187.572 77.8366 187.572 78.3878V124.131C187.572 124.683 187.363 125.211 186.992 125.601C186.621 125.991 186.118 126.21 185.593 126.211ZM178.862 77.1403C178.547 77.1407 178.246 77.2722 178.023 77.5061C177.8 77.74 177.675 78.0571 177.675 78.3878V124.131C177.675 124.462 177.8 124.779 178.023 125.013C178.246 125.247 178.547 125.379 178.862 125.379H185.593C185.908 125.379 186.21 125.247 186.432 125.013C186.655 124.779 186.78 124.462 186.78 124.131V78.3878C186.78 78.0571 186.655 77.74 186.432 77.5061C186.21 77.2722 185.908 77.1407 185.593 77.1403H178.862Z" fill="#3F3D56"/>
<path d="M44.5142 149.291C44.6681 148.701 44.697 148.084 44.5989 147.481C44.5008 146.878 44.2781 146.306 43.9465 145.803C43.6149 145.301 43.1825 144.881 42.6797 144.573C42.1768 144.265 41.6159 144.077 41.0363 144.021L37.6315 129.598L32.6484 135.275L36.6456 148.102C36.6213 149.131 36.9572 150.133 37.5897 150.92C38.2221 151.706 39.1071 152.221 40.0771 152.368C41.047 152.514 42.0344 152.282 42.8522 151.715C43.67 151.148 44.2614 150.285 44.5142 149.291Z" fill="#FFB8B8"/>
<path d="M35.3845 144.856C35.1535 144.755 34.9454 144.604 34.7737 144.412C34.602 144.221 34.4705 143.994 34.3878 143.746L28.7041 125.374C27.2356 120.962 27.343 116.139 29.0065 111.803L34.4852 97.5165C34.6084 96.7349 34.877 95.9865 35.2757 95.314C35.6745 94.6416 36.1955 94.0583 36.809 93.5974C37.4225 93.1366 38.1164 92.8073 38.8512 92.6284C39.5859 92.4495 40.347 92.4244 41.091 92.5547C41.835 92.6849 42.5472 92.9679 43.1869 93.3875C43.8267 93.807 44.3815 94.3549 44.8195 94.9999C45.2575 95.6448 45.5703 96.3741 45.7398 97.146C45.9093 97.9179 45.9324 98.7174 45.8075 99.4987L38.2487 122.602L40.8945 141.415C40.9297 141.798 40.8522 142.183 40.6723 142.518C40.4925 142.853 40.219 143.121 39.889 143.288L36.837 144.818C36.5096 144.981 36.1425 145.037 35.7845 144.976C35.6471 144.952 35.5129 144.912 35.3845 144.856Z" fill="#2F2E41"/>
<path d="M63.4813 215.595L68.3351 215.594L70.644 195.93L63.4805 195.93L63.4813 215.595Z" fill="#FFB8B8"/>
<path d="M77.6953 220.328L62.4407 220.329L62.4405 214.138L71.8012 214.138C73.3644 214.138 74.8635 214.79 75.9689 215.951C77.0742 217.112 77.6952 218.686 77.6953 220.328Z" fill="#2F2E41"/>
<path d="M39.3289 215.595L44.1827 215.594L46.4917 195.93L39.3281 195.93L39.3289 215.595Z" fill="#FFB8B8"/>
<path d="M53.5469 220.328L38.2923 220.329L38.292 214.138L47.6528 214.138C49.2159 214.138 50.7151 214.79 51.8204 215.951C52.9258 217.112 53.5468 218.686 53.5469 220.328Z" fill="#2F2E41"/>
<path d="M64.8075 135.447L69.0742 170.955C69.6607 175.837 70.0711 180.736 70.3053 185.654L71.4548 209.801C71.4655 210.027 71.4326 210.252 71.3579 210.463C71.2833 210.674 71.1685 210.868 71.0206 211.031C70.8727 211.194 70.6947 211.324 70.4974 211.413C70.3002 211.502 70.0878 211.548 69.8732 211.548H63.3976C63.0188 211.548 62.6525 211.405 62.3652 211.146C62.078 210.887 61.8887 210.528 61.8319 210.134L56.0081 169.833C55.98 169.638 55.8873 169.461 55.7465 169.331C55.6056 169.202 55.4257 169.129 55.2387 169.126C55.0516 169.122 54.8694 169.189 54.7245 169.313C54.5796 169.437 54.4812 169.612 54.4469 169.805L47.4308 209.276C47.3614 209.631 47.1836 209.952 46.9245 210.191C46.6654 210.43 46.3391 210.574 45.9951 210.6L40.0351 210.997C39.8139 211.014 39.5916 210.982 39.3829 210.903C39.1742 210.824 38.9835 210.7 38.8234 210.539C38.6633 210.378 38.5372 210.183 38.4534 209.967C38.3695 209.751 38.3298 209.519 38.3367 209.286L40.2613 144.596L64.8075 135.447Z" fill="#2F2E41"/>
<path d="M45.9036 84.8708C51.2739 84.8708 55.6274 80.298 55.6274 74.6571C55.6274 69.0162 51.2739 64.4434 45.9036 64.4434C40.5332 64.4434 36.1797 69.0162 36.1797 74.6571C36.1797 80.298 40.5332 84.8708 45.9036 84.8708Z" fill="#FFB8B8"/>
<path d="M38.2823 145.428C40.6578 151.25 50.9513 155.408 53.3268 147.091C55.1638 140.662 62.4406 137.959 65.6513 137.065C66.055 136.952 66.4001 136.677 66.612 136.299C66.824 135.92 66.8856 135.47 66.7837 135.044L57.8084 98.0126C57.2856 95.8555 56.2445 93.8754 54.7846 92.2619C53.3247 90.6484 51.495 89.4555 49.4706 88.7974C42.3365 86.4769 34.8143 91.255 33.6066 98.994C33.2768 101.164 33.0667 103.352 32.9772 105.548C32.2328 121.887 36.7184 141.594 38.2823 145.428Z" fill="#0B57D0"/>
<path d="M70.5058 145.417C70.4476 144.809 70.2631 144.221 69.9654 143.696C69.6676 143.171 69.2638 142.72 68.7825 142.377C68.3011 142.033 67.7539 141.805 67.1793 141.707C66.6047 141.61 66.0168 141.646 65.4569 141.813L57.3437 129.639L54.6367 136.818L62.7562 147.278C63.0857 148.248 63.7422 149.056 64.6014 149.551C65.4607 150.046 66.4629 150.193 67.4181 149.963C68.3733 149.734 69.2153 149.144 69.7844 148.306C70.3535 147.468 70.6102 146.44 70.5058 145.417Z" fill="#FFB8B8"/>
<path d="M60.4684 144.725C60.2182 144.718 59.9723 144.655 59.7466 144.541C59.5209 144.428 59.3206 144.266 59.1585 144.065L47.5676 129.068C44.6871 125.504 43.1369 120.963 43.2053 116.289L43.4287 100.889C43.2766 100.113 43.2715 99.3138 43.4137 98.536C43.5559 97.7583 43.8426 97.0176 44.2574 96.3563C44.6722 95.6949 45.207 95.1259 45.8313 94.6818C46.4555 94.2377 47.157 93.9271 47.8955 93.7678C48.6341 93.6084 49.3953 93.6036 50.1357 93.7534C50.876 93.9032 51.581 94.2048 52.2104 94.6409C52.8398 95.077 53.3811 95.639 53.8036 96.295C54.2261 96.9509 54.5214 97.6879 54.6726 98.4638L55.5256 122.877L64.4326 139.433C64.5965 139.777 64.6558 140.166 64.6026 140.546C64.5494 140.927 64.3863 141.281 64.1352 141.561L61.8107 144.14C61.5613 144.417 61.2376 144.607 60.8827 144.685C60.7466 144.716 60.6075 144.729 60.4684 144.725Z" fill="#2F2E41"/>
<path d="M38.5249 83.0119C38.7343 83.1423 38.9695 83.2204 39.2122 83.24C39.455 83.2596 39.6987 83.2203 39.9247 83.1251C40.1506 83.0298 40.3527 82.8813 40.5152 82.6909C40.6777 82.5005 40.7963 82.2733 40.8618 82.0271L40.8673 82.0038C41.0438 81.2286 40.8972 80.4191 40.8466 79.6239C40.7959 78.8286 40.87 77.9549 41.3857 77.3702C42.3469 76.2802 44.0571 76.858 45.4471 76.5824C46.2612 76.3915 46.9813 75.8956 47.4724 75.1873C47.9636 74.4791 48.1922 73.6071 48.1155 72.7346C48.0957 72.5693 48.0647 72.4038 48.0298 72.2384C47.9429 71.8194 47.9496 71.3849 48.0495 70.9691C48.1493 70.5532 48.3395 70.1673 48.6053 69.8417C48.871 69.5161 49.2049 69.2596 49.5809 69.0923C49.9569 68.9251 50.3647 68.8517 50.7722 68.8778C52.1769 68.9622 53.6932 69.4092 54.8554 68.3164C55.2815 67.8853 55.5773 67.332 55.7059 66.7255C55.8345 66.119 55.7902 65.4861 55.5785 64.9058C54.9149 62.8938 53.0393 61.8405 51.1832 61.2615C48.8877 60.5648 46.4732 60.4142 44.1153 60.8206C41.7573 61.227 39.5153 62.1802 37.552 63.6108C36.3797 64.4788 35.2848 65.5694 34.7852 66.9816C34.2855 68.3938 34.5265 70.1755 35.6533 71.1077C34.7799 72.079 34.1649 73.2743 33.8698 74.5739C33.5748 75.8735 33.6101 77.2318 33.9722 78.5125C34.5287 80.3961 37.1848 82.202 38.5249 83.0119Z" fill="#2F2E41"/>
<path d="M109.311 221H4.39591C4.29091 221 4.1902 220.956 4.11596 220.878C4.04171 220.8 4 220.694 4 220.584C4 220.474 4.04171 220.368 4.11596 220.29C4.1902 220.212 4.29091 220.168 4.39591 220.168H109.311C109.416 220.168 109.517 220.212 109.591 220.29C109.665 220.368 109.707 220.474 109.707 220.584C109.707 220.694 109.665 220.8 109.591 220.878C109.517 220.956 109.416 221 109.311 221Z" fill="#3F3D56"/>
</g>
<defs>
<clipPath id="clip0_30_1508">
<rect width="306" height="221" fill="white"/>
</clipPath>
</defs>
</svg>
