<svg width="64" height="64" viewBox="0 0 64 64" fill="none" xmlns="http://www.w3.org/2000/svg">
<path d="M21.8613 22.6667H12L4 49.3333H57.3333L49.3333 22.6667H39.472M33.3339 14.6667C33.3339 16.1387 32.1392 17.3333 30.6672 17.3333C29.1952 17.3333 28.0005 16.1387 28.0005 14.6667C28.0005 13.1947 29.1952 12 30.6672 12C32.1392 12 33.3339 13.1947 33.3339 14.6667ZM41.3339 14.6667C41.3339 23.5547 30.6672 38.6667 30.6672 38.6667C30.6672 38.6667 20.0005 23.5547 20.0005 14.6667C20.0005 8.776 24.7765 4 30.6672 4C36.5579 4 41.3339 8.776 41.3339 14.6667Z" stroke="#303030" stroke-linecap="round" stroke-linejoin="round"/>
</svg>
