<svg width="64" height="64" viewBox="0 0 64 64" fill="none" xmlns="http://www.w3.org/2000/svg">
<path d="M42.2418 9.63549C42.0418 9.73841 41.7829 9.82212 41.4372 9.87948C38.3777 10.3869 37.7207 11.3788 37.2299 12.0176C34.9587 14.974 33.2879 10.9501 34.041 8.20246C34.2708 7.36428 32.4852 6.79805 31.6215 7.14615C30.7635 7.492 31.3172 8.14489 31.9519 8.84498L32.2981 9.22997C32.9746 10.0031 33.4593 10.7761 32.0246 11.2118C29.2908 12.0421 34.8213 18.5213 30.9533 17.7963C28.3412 17.6983 24.5201 20.543 22.7459 22.7237C22.5102 23.0022 22.3961 23.4554 22.3082 23.9425L22.2093 24.5344C22.0615 25.4194 21.8756 26.2317 21.0962 26.1493C18.6977 25.8957 18.4997 21.4964 16.3089 26.3477C16.1543 26.6898 16.5341 27.0281 16.8531 26.8315C20.6548 24.4873 18.4683 28.0589 19.7311 30.1221C20.0122 30.5813 20.1758 31.1206 20.8033 30.7935C24.1564 29.0462 29.0803 30.8134 30.7715 34.2602C31.8336 36.4247 36.0655 34.9701 35.4156 39.4979C35.1671 41.2289 33.456 43.7598 31.7438 46.3195L31.1418 47.2229C29.2306 50.1096 27.5371 52.9174 28.1669 54.5354M24.5188 53.8712C23.5708 51.3026 23.5922 48.0421 23.6561 46.7953C23.7548 44.869 22.8067 43.2026 21.7842 41.5791L21.1697 40.6085C19.9538 38.6706 18.9112 36.7321 19.7226 34.4182C20.0078 33.6049 19.7294 32.6987 19.0241 32.2058C15.1794 29.5195 11.6953 27.9942 9.52382 23.2351C8.96222 22.0044 9.03498 20.8187 9.32191 19.6866M49.4338 45.6298C49.1244 44.8971 48.8194 44.0444 48.5183 43.0739C47.8462 40.9078 49.1646 35.2453 47.3772 34.0856C42.6769 31.0358 39.0024 34.5831 38.9475 27.1581C38.9368 25.673 41.0541 24.0598 41.9656 22.5902C42.8999 21.0839 40.3083 17.7127 43.7407 17.9915C44.853 18.0819 44.6477 16.9535 44.1767 16.5956C42.8347 15.5761 42.0998 15.3441 43.3217 13.4346C44.5306 11.5457 44.6596 12.6919 45.2911 14.0749C45.8684 15.3394 47.1739 14.1726 47.3623 13.4219M54.668 30.666C54.668 43.922 43.924 54.666 30.668 54.666C17.412 54.666 6.66797 43.922 6.66797 30.666C6.66797 17.41 17.412 6.66602 30.668 6.66602C43.924 6.66602 54.668 17.41 54.668 30.666Z" stroke="#303030" stroke-linecap="round" stroke-linejoin="round"/>
</svg>
