<svg width="64" height="64" viewBox="0 0 64 64" fill="none" xmlns="http://www.w3.org/2000/svg">
<path d="M9.33203 9.33398V52.0007H51.9987H41.332H30.6654H19.9987M27.9987 17.3333C27.9987 18.808 26.8067 20 25.332 20C23.8574 20 22.6654 18.808 22.6654 17.3333C22.6654 15.8587 23.8574 14.6667 25.332 14.6667C26.8067 14.6667 27.9987 15.8587 27.9987 17.3333ZM24 25C24 26.4747 25.192 27.6667 26.6667 27.6667C28.1413 27.6667 29.3333 26.4747 29.3333 25C29.3333 23.5253 28.1413 22.3333 26.6667 22.3333C25.192 22.3333 24 23.5253 24 25ZM21.6667 21.6667C21.6667 23.1413 20.4747 24.3333 19 24.3333C17.5253 24.3333 16.3333 23.1413 16.3333 21.6667C16.3333 20.192 17.5253 19 19 19C20.4747 19 21.6667 20.192 21.6667 21.6667ZM35.9987 44.5C35.9987 45.9747 37.1907 47.1667 38.6654 47.1667C40.14 47.1667 41.332 45.9747 41.332 44.5C41.332 43.0253 40.14 41.8333 38.6654 41.8333C37.1907 41.8333 35.9987 43.0253 35.9987 44.5ZM41.332 39.5C41.332 40.9747 42.524 42.1667 43.9987 42.1667C45.4734 42.1667 46.6654 40.9747 46.6654 39.5C46.6654 38.0253 45.4734 36.8333 43.9987 36.8333C42.524 36.8333 41.332 38.0253 41.332 39.5Z" stroke="#303030" stroke-linecap="round" stroke-linejoin="round"/>
</svg>
