<svg width="194" height="131" viewBox="0 0 194 131" fill="none" xmlns="http://www.w3.org/2000/svg">
<g clip-path="url(#clip0_202_3713)">
<path d="M59.3783 60.7513H34.4062V88.6334H59.3783V60.7513Z" fill="#CCCCCC"/>
<path d="M21.6933 130.57H8.98027L7.61816 119.689H23.0554L21.6933 130.57Z" fill="#E6E6E6"/>
<path d="M36.918 123.501L36.554 129.277C36.5375 129.538 36.5694 129.801 36.6475 130.047C36.7256 130.293 36.8481 130.517 37.0068 130.703C37.1654 130.89 37.3566 131.035 37.5675 131.128C37.7784 131.222 38.0042 131.262 38.2296 131.247L40.7853 131.067C40.9037 131.059 41.0191 131.02 41.1232 130.954C41.2274 130.888 41.3177 130.796 41.3879 130.685C41.458 130.574 41.5062 130.447 41.5291 130.311C41.5519 130.176 41.5489 130.037 41.5201 129.903L40.1015 123.316L36.918 123.501Z" fill="#E6E6E6"/>
<path d="M49.8584 124.634L49.4945 130.41C49.478 130.672 49.5099 130.934 49.5879 131.18C49.666 131.426 49.7885 131.65 49.9472 131.837C50.1059 132.023 50.2971 132.168 50.508 132.262C50.7189 132.356 50.9446 132.396 51.17 132.38L53.7257 132.2C53.8441 132.192 53.9595 132.153 54.0637 132.088C54.1678 132.022 54.2582 131.93 54.3283 131.819C54.3984 131.708 54.4467 131.58 54.4695 131.445C54.4924 131.31 54.4893 131.17 54.4605 131.037L53.0419 124.449L49.8584 124.634Z" fill="#E6E6E6"/>
<path d="M61.5083 30.5331L37.4731 30.3109C37.5336 26.8153 38.3481 23.3827 40.1285 20.311C41.2978 18.2936 41.2726 16.0981 40.9908 14.2485C40.5559 11.3941 41.5671 8.47359 43.8142 6.65656C45.5314 5.26555 47.6988 4.54951 49.908 4.64331L50.3747 4.66272C51.8949 4.72581 53.3749 5.16923 54.6787 5.95227C55.9826 6.73532 57.0686 7.83289 57.8369 9.14422C58.6178 10.5441 58.9328 12.1557 58.7362 13.7461C58.5839 15.2425 58.9484 16.7541 59.8011 18.2802C61.2721 21.6311 61.5907 25.9191 61.5083 30.5331Z" fill="#2F2E41"/>
<path d="M48.4308 72.4752L40.2583 124.471L36.9228 123.881C37.6812 98.8731 36.2351 69.6005 40.7031 61.2293L58.2306 62.7562L48.4308 72.4752Z" fill="#0B57D0"/>
<path d="M49.4697 72.5982L49.6496 124.81L52.8563 124.64C55.7392 99.9188 61.2983 71.27 58.3187 62.4757L41.6931 61.8196L49.4697 72.5982Z" fill="#0B57D0"/>
<path d="M49.6963 22.145C53.2077 22.145 56.0542 19.3027 56.0542 15.7965C56.0542 12.2903 53.2077 9.44794 49.6963 9.44794C46.1849 9.44794 43.3384 12.2903 43.3384 15.7965C43.3384 19.3027 46.1849 22.145 49.6963 22.145Z" fill="#FFB9B9"/>
<path d="M55.2337 27.4696L44.7739 26.8552C45.799 24.5059 46.2085 22.2437 45.7994 20.0971H53.593C53.5753 21.7452 54.3967 24.5962 55.2337 27.4696Z" fill="#FFB9B9"/>
<path d="M61.7971 65.5609L38.8267 67.1993L41.1852 26.5481L45.1845 25.4217L49.6965 26.4457L54.2085 24.1929L57.0798 25.217L61.7971 65.5609Z" fill="#0B57D0"/>
<path d="M42.7234 94.8461L27.0337 91.2623C31.6991 75.8142 40.1039 40.4735 37.391 27.8792L45.5947 24.1929L42.7234 94.8461Z" fill="#E6E6E6"/>
<path d="M35.1347 50.2015L29.187 46.5153L34.2594 31.6812C34.8251 30.1505 35.9087 28.8653 37.3228 28.0479L39.0315 27.0601L38.0061 42.0099L35.1347 50.2015Z" fill="#E6E6E6"/>
<path d="M75.4359 91.4671C70.4839 94.3279 58.1055 95.9226 52.6704 93.9246C52.2705 79.9671 51.4862 40.4864 54.0036 23.7834L63.0277 27.4696L62.2073 38.5284C57.8931 47.9886 70.4208 80.9384 75.4359 91.4671Z" fill="#E6E6E6"/>
<path d="M74.7179 48.3585L69.1802 46.5153L61.7969 38.1187L63.0275 27.4695L75.3331 44.6721L74.7179 48.3585Z" fill="#E6E6E6"/>
<path d="M57.3631 56.3296C57.4538 56.7266 57.6983 57.0716 58.0433 57.2888C58.3882 57.506 58.8053 57.5778 59.2032 57.4884L63.9038 56.4255L63.2244 53.4295L58.5237 54.4923C58.1258 54.5823 57.7801 54.8264 57.5624 55.171C57.3448 55.5155 57.2731 55.9323 57.3631 56.3296Z" fill="#FFB9B9"/>
<path d="M55.2338 14.1581C51.7024 12.7082 48.2146 12.6032 44.774 13.9534L43.3384 8.83356H56.4644L55.2338 14.1581Z" fill="#2F2E41"/>
<path d="M61.5918 52.8638L64.258 57.7788C68.7426 56.5299 72.6291 52.5925 76.3586 47.9488L75.3331 44.6721L68.9752 46.3105L61.5918 52.8638Z" fill="#E6E6E6"/>
<path d="M59.6435 42.7266H58.8231C58.8231 31.1407 56.4341 23.0666 54.106 23.0666L53.9009 22.2474C55.9888 22.2474 57.3199 25.6078 58.0689 28.4269C59.0843 32.2486 59.6435 37.327 59.6435 42.7266Z" fill="#3F3D56"/>
<path d="M40.775 39.8595H39.9546C39.9546 29.2486 42.3601 22.657 45.9023 22.657L45.6972 23.4761C43.2471 23.4761 40.775 28.542 40.775 39.8595Z" fill="#3F3D56"/>
<path d="M59.2331 44.9793C60.3658 44.9793 61.284 44.0624 61.284 42.9314C61.284 41.8004 60.3658 40.8835 59.2331 40.8835C58.1004 40.8835 57.1821 41.8004 57.1821 42.9314C57.1821 44.0624 58.1004 44.9793 59.2331 44.9793Z" fill="#3F3D56"/>
<path d="M37.4932 44.7745H36.6729C36.6729 41.8386 38.3289 39.45 40.3645 39.45V40.2691C38.7813 40.2691 37.4932 42.2902 37.4932 44.7745Z" fill="#3F3D56"/>
<path d="M44.0564 44.7745H43.2361C43.2361 42.2902 41.948 40.2691 40.3647 40.2691V39.45C42.4004 39.45 44.0564 41.8386 44.0564 44.7745Z" fill="#3F3D56"/>
<path d="M43.6461 45.7985C44.0991 45.7985 44.4664 45.4317 44.4664 44.9793C44.4664 44.5269 44.0991 44.1602 43.6461 44.1602C43.193 44.1602 42.8257 44.5269 42.8257 44.9793C42.8257 45.4317 43.193 45.7985 43.6461 45.7985Z" fill="#3F3D56"/>
<path d="M37.0831 45.7985C37.5362 45.7985 37.9034 45.4317 37.9034 44.9793C37.9034 44.5269 37.5362 44.1602 37.0831 44.1602C36.63 44.1602 36.2627 44.5269 36.2627 44.9793C36.2627 45.4317 36.63 45.7985 37.0831 45.7985Z" fill="#3F3D56"/>
<path d="M26.8281 37.4466L31.9467 38.3592L43.6459 54.9697L37.4306 53.5094L26.8281 37.4466Z" fill="#6C63FF"/>
<path d="M25.9205 37.2432C25.8425 37.2444 25.7662 37.2665 25.6997 37.3071C25.6332 37.3478 25.5788 37.4056 25.5423 37.4744C25.5058 37.5433 25.4885 37.6206 25.4922 37.6984C25.4959 37.7762 25.5204 37.8516 25.5633 37.9167L36.4991 54.4846C36.5601 54.5772 36.6543 54.6429 36.7624 54.6682L41.8505 55.8636C41.9363 55.8838 42.0262 55.8774 42.1083 55.8454C42.1904 55.8133 42.2608 55.7571 42.3101 55.6842C42.3595 55.6113 42.3855 55.5252 42.3847 55.4372C42.3839 55.3492 42.3563 55.2635 42.3056 55.1915L30.2988 38.1445C30.2662 38.0981 30.2248 38.0585 30.1769 38.028C30.129 37.9976 30.0756 37.9768 30.0197 37.967L26.0025 37.2506C25.9754 37.2458 25.948 37.2433 25.9205 37.2432Z" fill="#3F3D56"/>
<path d="M32.7422 49.089L33.0461 52.1459L37.8422 51.6705C38.2482 51.6303 38.6215 51.4307 38.8801 51.1156C39.1386 50.8005 39.2613 50.3958 39.221 49.9904C39.1807 49.585 38.9808 49.2123 38.6652 48.9541C38.3497 48.6959 37.9443 48.5734 37.5384 48.6137L32.7422 49.089Z" fill="#FFB9B9"/>
<path d="M28.5718 48.735C28.5787 49.7773 28.998 50.7746 29.7382 51.5097C30.4783 52.2447 31.4795 52.6578 32.5233 52.659H33.312L33.8861 47.8815L29.1324 46.1727L28.5718 48.735Z" fill="#E6E6E6"/>
<path d="M194 0H100.468V49.1904H194V0Z" fill="#E6E6E6"/>
<path d="M103.193 46.4702H191.276V2.72021H103.193V46.4702Z" fill="white"/>
<path d="M141.332 9.06738H110.003V40.3498H141.332V9.06738Z" fill="#3F3D56"/>
<path d="M133.84 23.3484C134.342 23.3484 134.748 22.9425 134.748 22.4417C134.748 21.9409 134.342 21.535 133.84 21.535C133.339 21.535 132.932 21.9409 132.932 22.4417C132.932 22.9425 133.339 23.3484 133.84 23.3484Z" fill="#FFEAAE"/>
<path d="M130.435 20.1749C130.936 20.1749 131.343 19.7689 131.343 19.2681C131.343 18.7673 130.936 18.3614 130.435 18.3614C129.933 18.3614 129.527 18.7673 129.527 19.2681C129.527 19.7689 129.933 20.1749 130.435 20.1749Z" fill="#FFEAAE"/>
<path d="M129.981 22.4417C129.646 22.4418 129.319 22.5344 129.034 22.7094C128.784 22.3331 128.489 21.988 128.157 21.6812C128.161 21.6328 128.164 21.5844 128.164 21.535C128.165 21.1792 128.06 20.8311 127.864 20.5343C127.667 20.2375 127.387 20.005 127.059 19.8659C126.731 19.7267 126.37 19.687 126.019 19.7518C125.669 19.8165 125.345 19.9828 125.089 20.23C124.603 20.1611 124.109 20.1568 123.622 20.2172C123.622 20.203 123.624 20.1892 123.624 20.1749C123.624 19.8713 123.549 19.5726 123.403 19.3059C123.258 19.0393 123.048 18.8133 122.793 18.6488C122.537 18.4842 122.244 18.3863 121.941 18.364C121.638 18.3417 121.334 18.3958 121.057 18.5213C120.781 18.6467 120.54 18.8395 120.357 19.0821C120.174 19.3246 120.055 19.6091 120.011 19.9094C119.967 20.2097 119.999 20.5163 120.104 20.801C120.21 21.0858 120.385 21.3395 120.614 21.5391C120.31 21.7991 120.034 22.0904 119.791 22.4081C119.567 22.2218 119.301 22.0922 119.016 22.0302C118.731 21.9682 118.436 21.9756 118.154 22.0519C117.873 22.1281 117.614 22.2709 117.399 22.4682C117.185 22.6655 117.021 22.9115 116.922 23.1853C116.823 23.4592 116.791 23.7528 116.829 24.0415C116.868 24.3301 116.976 24.6053 117.143 24.8436C117.311 25.082 117.533 25.2766 117.792 25.4109C118.051 25.5452 118.338 25.6153 118.63 25.6153L118.635 25.615C118.632 25.6904 118.63 25.7658 118.63 25.842C118.63 26.2983 118.685 26.7529 118.794 27.196C118.254 27.3988 117.775 27.7352 117.401 28.1736C117.027 28.6121 116.771 29.1382 116.657 29.7026C116.542 30.267 116.573 30.8512 116.747 31.4003C116.92 31.9494 117.231 32.4455 117.649 32.842C118.067 33.2385 118.58 33.5224 119.138 33.667C119.696 33.8116 120.282 33.8122 120.84 33.6688C121.399 33.5254 121.912 33.2426 122.331 32.8471C122.75 32.4515 123.062 31.9561 123.236 31.4073C124.5 31.6498 125.808 31.456 126.946 30.8578C127.063 31.1311 127.244 31.3716 127.475 31.5584C127.707 31.7452 127.98 31.8725 128.272 31.9292C128.564 31.9858 128.865 31.97 129.149 31.8832C129.434 31.7963 129.692 31.6412 129.903 31.4312C130.113 31.2213 130.268 30.963 130.355 30.6791C130.442 30.3952 130.458 30.0943 130.401 29.8029C130.345 29.5115 130.217 29.2384 130.03 29.0076C129.843 28.7769 129.602 28.5955 129.328 28.4794C129.722 27.7341 129.943 26.9102 129.975 26.0684L129.981 26.0687C130.462 26.0687 130.924 25.8776 131.265 25.5375C131.605 25.1974 131.797 24.7362 131.797 24.2552C131.797 23.7742 131.605 23.313 131.265 22.9729C130.924 22.6328 130.462 22.4417 129.981 22.4417Z" fill="#FDE293"/>
<path d="M129.527 8.38733H120.446V9.74743H129.527V8.38733Z" fill="#E6E6E6"/>
<path d="M181.287 9.06738H149.958V40.3498H181.287V9.06738Z" fill="#3F3D56"/>
<path d="M171.571 30.285C171.796 30.285 171.979 30.1023 171.979 29.877C171.979 29.6516 171.796 29.4689 171.571 29.4689C171.345 29.4689 171.162 29.6516 171.162 29.877C171.162 30.1023 171.345 30.285 171.571 30.285Z" fill="#FFEAAE"/>
<path d="M170.038 28.8568C170.264 28.8568 170.447 28.6742 170.447 28.4488C170.447 28.2235 170.264 28.0408 170.038 28.0408C169.812 28.0408 169.629 28.2235 169.629 28.4488C169.629 28.6742 169.812 28.8568 170.038 28.8568Z" fill="#FFEAAE"/>
<path d="M169.834 29.8769C169.684 29.877 169.536 29.9187 169.408 29.9974C169.295 29.8281 169.163 29.6728 169.013 29.5347C169.015 29.513 169.017 29.4911 169.017 29.4689C169.017 29.3088 168.97 29.1522 168.881 29.0186C168.793 28.8851 168.667 28.7804 168.519 28.7178C168.372 28.6552 168.209 28.6373 168.051 28.6665C167.894 28.6956 167.748 28.7705 167.633 28.8817C167.414 28.8507 167.192 28.8487 166.973 28.8759C166.973 28.8695 166.973 28.8633 166.973 28.8569C166.974 28.7203 166.939 28.5858 166.874 28.4658C166.809 28.3459 166.714 28.2442 166.599 28.1701C166.484 28.0961 166.353 28.052 166.216 28.042C166.08 28.032 165.943 28.0563 165.818 28.1128C165.694 28.1692 165.585 28.256 165.503 28.3651C165.421 28.4743 165.367 28.6023 165.348 28.7374C165.328 28.8726 165.342 29.0105 165.39 29.1386C165.437 29.2668 165.516 29.381 165.619 29.4708C165.482 29.5878 165.358 29.7189 165.249 29.8618C165.148 29.778 165.028 29.7197 164.9 29.6918C164.772 29.6639 164.639 29.6672 164.512 29.7015C164.385 29.7358 164.269 29.8001 164.172 29.8889C164.076 29.9777 164.002 30.0883 163.957 30.2116C163.913 30.3348 163.899 30.467 163.916 30.5969C163.933 30.7267 163.982 30.8506 164.057 30.9578C164.132 31.0651 164.233 31.1526 164.349 31.2131C164.465 31.2735 164.595 31.3051 164.726 31.3051L164.729 31.3049C164.727 31.3389 164.726 31.3728 164.726 31.4071C164.726 31.6124 164.751 31.817 164.8 32.0164C164.557 32.1076 164.341 32.259 164.173 32.4563C164.005 32.6536 163.89 32.8904 163.838 33.1443C163.787 33.3983 163.801 33.6612 163.879 33.9083C163.957 34.1554 164.097 34.3787 164.285 34.5571C164.473 34.7355 164.703 34.8632 164.955 34.9283C165.206 34.9934 165.47 34.9937 165.721 34.9291C165.972 34.8646 166.203 34.7374 166.392 34.5594C166.58 34.3814 166.72 34.1584 166.799 33.9115C167.368 34.0206 167.956 33.9334 168.469 33.6642C168.521 33.7872 168.603 33.8954 168.707 33.9795C168.811 34.0635 168.934 34.1208 169.065 34.1463C169.196 34.1718 169.332 34.1647 169.46 34.1256C169.588 34.0865 169.704 34.0167 169.799 33.9222C169.893 33.8278 169.963 33.7116 170.002 33.5838C170.042 33.456 170.049 33.3206 170.023 33.1895C169.998 33.0583 169.94 32.9354 169.856 32.8316C169.772 32.7278 169.664 32.6461 169.54 32.5939C169.717 32.2585 169.817 31.8878 169.831 31.509L169.834 31.5091C170.051 31.5091 170.259 31.4231 170.412 31.2701C170.565 31.117 170.651 30.9095 170.651 30.693C170.651 30.4766 170.565 30.269 170.412 30.116C170.259 29.9629 170.051 29.8769 169.834 29.8769Z" fill="#FDE293"/>
<path d="M174.776 22.5418C175.002 22.5418 175.185 22.3591 175.185 22.1338C175.185 21.9084 175.002 21.7258 174.776 21.7258C174.551 21.7258 174.368 21.9084 174.368 22.1338C174.368 22.3591 174.551 22.5418 174.776 22.5418Z" fill="#FFEAAE"/>
<path d="M175.738 20.6819C175.963 20.6819 176.146 20.4992 176.146 20.2739C176.146 20.0485 175.963 19.8658 175.738 19.8658C175.512 19.8658 175.329 20.0485 175.329 20.2739C175.329 20.4992 175.512 20.6819 175.738 20.6819Z" fill="#FFEAAE"/>
<path d="M174.306 20.4646C174.265 20.3201 174.185 20.1897 174.074 20.088C174.207 19.9337 174.321 19.7642 174.413 19.5831C174.435 19.5789 174.456 19.5745 174.477 19.5685C174.632 19.5252 174.77 19.4375 174.875 19.3163C174.98 19.1951 175.046 19.0458 175.067 18.8869C175.087 18.7281 175.06 18.5668 174.989 18.4232C174.919 18.2795 174.807 18.1599 174.668 18.0791C174.639 17.8604 174.581 17.6465 174.495 17.443C174.501 17.4414 174.507 17.4405 174.514 17.4388C174.645 17.4019 174.766 17.3326 174.864 17.2373C174.962 17.1419 175.034 17.0235 175.074 16.893C175.114 16.7624 175.121 16.6239 175.094 16.49C175.067 16.3562 175.006 16.2313 174.918 16.1269C174.83 16.0225 174.717 15.9419 174.589 15.8924C174.462 15.8429 174.324 15.8262 174.188 15.8437C174.052 15.8613 173.923 15.9125 173.813 15.9928C173.702 16.0731 173.613 16.1799 173.555 16.3033C173.405 16.2035 173.245 16.1198 173.077 16.0534C173.131 15.9337 173.155 15.803 173.147 15.6722C173.139 15.5413 173.1 15.4144 173.032 15.3019C172.965 15.1895 172.871 15.0949 172.759 15.0262C172.648 14.9575 172.521 14.9167 172.39 14.9072C172.259 14.8977 172.128 14.9198 172.007 14.9717C171.887 15.0236 171.781 15.1036 171.698 15.2052C171.615 15.3067 171.558 15.4267 171.531 15.555C171.504 15.6833 171.509 15.8162 171.544 15.9423L171.545 15.9447C171.512 15.9526 171.479 15.9607 171.446 15.9699C171.248 16.0256 171.058 16.1049 170.879 16.2061C170.725 15.9974 170.521 15.8312 170.285 15.7229C170.049 15.6147 169.789 15.5681 169.531 15.5875C169.272 15.6068 169.022 15.6915 168.805 15.8336C168.588 15.9756 168.411 16.1705 168.29 16.3997C168.169 16.629 168.108 16.8852 168.114 17.1442C168.119 17.4033 168.19 17.6568 168.321 17.8809C168.451 18.1049 168.636 18.2923 168.859 18.4253C169.082 18.5583 169.334 18.6326 169.594 18.6413C169.643 19.2173 169.886 19.7595 170.285 20.1789C170.18 20.2625 170.098 20.3704 170.045 20.4932C169.992 20.6159 169.971 20.7497 169.982 20.8829C169.993 21.016 170.036 21.1444 170.109 21.2568C170.181 21.3692 170.28 21.4621 170.397 21.5274C170.513 21.5928 170.644 21.6285 170.778 21.6314C170.912 21.6344 171.044 21.6046 171.164 21.5445C171.283 21.4844 171.386 21.3959 171.463 21.2869C171.541 21.1778 171.59 21.0515 171.607 20.919C171.978 20.9982 172.363 20.9932 172.732 20.9045L172.732 20.907C172.761 21.0102 172.81 21.1067 172.877 21.191C172.943 21.2753 173.026 21.3456 173.119 21.3981C173.213 21.4505 173.316 21.4841 173.423 21.4967C173.529 21.5094 173.637 21.5009 173.741 21.4719C173.844 21.4428 173.941 21.3937 174.025 21.3273C174.109 21.261 174.18 21.1787 174.232 21.0851C174.285 20.9916 174.318 20.8886 174.331 20.7821C174.343 20.6757 174.335 20.5678 174.306 20.4646Z" fill="#FCC934"/>
<path d="M158.95 16.9971C159.175 16.9971 159.358 16.8144 159.358 16.5891C159.358 16.3637 159.175 16.181 158.95 16.181C158.724 16.181 158.541 16.3637 158.541 16.5891C158.541 16.8144 158.724 16.9971 158.95 16.9971Z" fill="#FFEAAE"/>
<path d="M156.86 17.1643C157.086 17.1643 157.269 16.9816 157.269 16.7562C157.269 16.5309 157.086 16.3482 156.86 16.3482C156.635 16.3482 156.452 16.5309 156.452 16.7562C156.452 16.9816 156.635 17.1643 156.86 17.1643Z" fill="#FFEAAE"/>
<path d="M157.779 17.8698C157.677 17.9807 157.609 18.1175 157.581 18.265C157.379 18.234 157.175 18.227 156.972 18.2442C156.957 18.2282 156.942 18.2123 156.926 18.1974C156.808 18.0893 156.66 18.0185 156.502 17.9936C156.343 17.9688 156.181 17.991 156.035 18.0576C155.889 18.1242 155.766 18.2322 155.682 18.3682C155.597 18.5041 155.554 18.6619 155.558 18.822C155.388 18.9624 155.237 19.1249 155.109 19.305C155.104 19.3005 155.1 19.2957 155.096 19.2914C154.995 19.1992 154.872 19.1337 154.739 19.101C154.607 19.0684 154.468 19.0695 154.335 19.1043C154.203 19.1392 154.082 19.2066 153.982 19.3004C153.883 19.3943 153.809 19.5115 153.766 19.6415C153.724 19.7714 153.715 19.9098 153.741 20.044C153.766 20.1783 153.824 20.3041 153.911 20.4098C153.998 20.5156 154.109 20.598 154.236 20.6494C154.363 20.7008 154.5 20.7197 154.636 20.7042C154.631 20.884 154.644 21.0639 154.676 21.2409C154.546 21.2588 154.422 21.3077 154.315 21.3834C154.208 21.4592 154.121 21.5595 154.061 21.6761C154.001 21.7926 153.97 21.9219 153.97 22.0529C153.971 22.1839 154.003 22.3129 154.064 22.4289C154.125 22.5449 154.213 22.6445 154.321 22.7193C154.429 22.7941 154.553 22.8419 154.683 22.8586C154.813 22.8753 154.946 22.8605 155.069 22.8154C155.192 22.7703 155.303 22.6962 155.391 22.5994L155.393 22.5974C155.417 22.6213 155.441 22.6451 155.466 22.6682C155.618 22.8066 155.786 22.9262 155.967 23.0245C155.871 23.2651 155.837 23.5262 155.87 23.7833C155.902 24.0404 156 24.2851 156.153 24.4943C156.306 24.7035 156.51 24.8704 156.745 24.9794C156.981 25.0884 157.24 25.1359 157.499 25.1174C157.758 25.0989 158.007 25.0151 158.225 24.8737C158.442 24.7323 158.62 24.5381 158.742 24.3092C158.864 24.0804 158.925 23.8244 158.921 23.5653C158.916 23.3062 158.846 23.0525 158.716 22.828C159.18 22.4823 159.513 21.9894 159.659 21.4301C159.785 21.4744 159.921 21.4872 160.053 21.4672C160.185 21.4471 160.311 21.395 160.418 21.3153C160.525 21.2357 160.611 21.1309 160.669 21.0102C160.726 20.8895 160.753 20.7566 160.747 20.6231C160.741 20.4896 160.702 20.3597 160.634 20.2447C160.566 20.1297 160.47 20.0332 160.356 19.9636C160.242 19.894 160.113 19.8534 159.979 19.8455C159.845 19.8376 159.712 19.8625 159.59 19.9181C159.462 19.5614 159.254 19.2382 158.984 18.972L158.986 18.9702C159.058 18.8911 159.115 18.7985 159.151 18.6977C159.188 18.5968 159.204 18.4898 159.199 18.3826C159.195 18.2755 159.169 18.1703 159.123 18.0732C159.078 17.976 159.013 17.8888 158.934 17.8165C158.855 17.7442 158.762 17.6882 158.661 17.6517C158.56 17.6152 158.453 17.599 158.345 17.604C158.238 17.6089 158.133 17.6349 158.035 17.6806C157.938 17.7262 157.851 17.7905 157.779 17.8698Z" fill="#FCC934"/>
<path d="M169.482 8.38733H160.401V9.74743H169.482V8.38733Z" fill="#E6E6E6"/>
<path d="M5.71536 115.664C8.98888 120.041 15.7841 120.502 15.7841 120.502C15.7841 120.502 17.2718 113.866 13.9983 109.488C10.7248 105.111 3.9296 104.65 3.9296 104.65C3.9296 104.65 2.44183 111.286 5.71536 115.664Z" fill="#E6E6E6"/>
<path d="M22.3915 117.309C20.2314 120.198 15.7475 120.502 15.7475 120.502C15.7475 120.502 14.7658 116.123 16.9259 113.234C19.086 110.346 23.5699 110.042 23.5699 110.042C23.5699 110.042 24.5516 114.421 22.3915 117.309Z" fill="#E6E6E6"/>
<path d="M210.446 130.57H0V131.023H210.446V130.57Z" fill="#979797"/>
</g>
<defs>
<clipPath id="clip0_202_3713">
<rect width="194" height="131" fill="white"/>
</clipPath>
</defs>
</svg>
