<svg width="216" height="131" viewBox="0 0 216 131" fill="none" xmlns="http://www.w3.org/2000/svg">
<g clip-path="url(#clip0_219_3910)">
<path d="M9.08838 119.608C9.99386 119.926 10.966 120.006 11.9113 119.839C12.8565 119.673 13.7429 119.266 14.4852 118.657C16.3754 117.07 16.9681 114.457 17.4502 112.037L18.8765 104.879L15.8904 106.935C13.7429 108.413 11.5472 109.939 10.0604 112.081C8.57357 114.223 7.92493 117.146 9.11917 119.464" fill="#E6E6E6"/>
<path d="M9.54922 128.773C9.17338 126.035 8.78669 123.261 9.05095 120.494C9.28514 118.036 10.035 115.636 11.5617 113.667C12.372 112.624 13.3581 111.73 14.4755 111.026C14.7668 110.842 15.035 111.304 14.7449 111.487C12.8114 112.709 11.3159 114.513 10.474 116.64C9.54424 119.005 9.39494 121.583 9.55509 124.095C9.6519 125.614 9.85762 127.123 10.0642 128.631C10.0805 128.699 10.0703 128.771 10.0357 128.832C10.0011 128.893 9.94464 128.938 9.87773 128.959C9.80947 128.978 9.73672 128.968 9.67526 128.933C9.61379 128.898 9.56857 128.841 9.54941 128.773L9.54922 128.773Z" fill="#F2F2F2"/>
<path d="M12.2544 124.379C12.6427 124.97 13.1765 125.45 13.8043 125.774C14.4322 126.098 15.1329 126.255 15.8391 126.23C17.6542 126.144 19.1668 124.878 20.5283 123.675L24.5563 120.119L21.8905 119.991C19.9734 119.899 18.0069 119.813 16.1809 120.405C14.355 120.997 12.671 122.419 12.3371 124.309" fill="#E6E6E6"/>
<path d="M8.48677 130.347C10.2962 127.145 12.3948 123.587 16.145 122.45C17.1876 122.135 18.2809 122.022 19.3659 122.117C19.7079 122.147 19.6225 122.674 19.2812 122.645C17.4624 122.494 15.6471 122.974 14.1409 124.005C12.6914 124.991 11.5629 126.363 10.6078 127.817C10.0227 128.708 9.49862 129.637 8.97454 130.564C8.80708 130.861 8.31736 130.647 8.48677 130.347Z" fill="#F2F2F2"/>
<path d="M181 4H40V75H181V4Z" fill="#E6E6E6"/>
<path d="M177 10H44V69H177V10Z" fill="white"/>
<path d="M181 0H40V6H181V0Z" fill="#66748A"/>
<path d="M45.109 4.11888C45.7597 4.11888 46.2873 3.59134 46.2873 2.94057C46.2873 2.28981 45.7597 1.76227 45.109 1.76227C44.4582 1.76227 43.9307 2.28981 43.9307 2.94057C43.9307 3.59134 44.4582 4.11888 45.109 4.11888Z" fill="white"/>
<path d="M49.5816 4.11888C50.2324 4.11888 50.7599 3.59134 50.7599 2.94057C50.7599 2.28981 50.2324 1.76227 49.5816 1.76227C48.9309 1.76227 48.4033 2.28981 48.4033 2.94057C48.4033 3.59134 48.9309 4.11888 49.5816 4.11888Z" fill="white"/>
<path d="M54.0543 4.11888C54.705 4.11888 55.2326 3.59134 55.2326 2.94057C55.2326 2.28981 54.705 1.76227 54.0543 1.76227C53.4035 1.76227 52.876 2.28981 52.876 2.94057C52.876 3.59134 53.4035 4.11888 54.0543 4.11888Z" fill="white"/>
<path d="M78 56H145V43.4629C144.99 42.1409 144.738 40.8345 144.259 39.6202C143.78 38.406 143.084 37.3084 142.211 36.3919L142.193 36.3725C140.996 35.0617 136.997 31.7348 132.859 32.0169C130.673 32.1654 128.802 33.3155 127.297 35.4351C122.613 42.0353 116.46 39.8074 113.209 37.8919C110.345 36.2035 107.419 35.411 104.513 35.5372C100.443 35.7109 94.7144 37.3478 90.5368 44.1593C88.9411 46.7588 85.4711 50.2874 78 52.3611V56Z" fill="#FEF7E0"/>
<path d="M92.4919 41.9978H92.0303V55.5278H92.4919V41.9978Z" fill="#3F3D56"/>
<path d="M106.312 35.6788H105.85V55.5277H106.312V35.6788Z" fill="#3F3D56"/>
<path d="M120.16 39.8332H119.698V55.5277H120.16V39.8332Z" fill="#3F3D56"/>
<path d="M134.008 32.2167H133.546V55.5277H134.008V32.2167Z" fill="#3F3D56"/>
<path d="M142.856 37.5252H142.395V55.5278H142.856V37.5252Z" fill="#3F3D56"/>
<path d="M106.109 37.4091C106.889 37.4091 107.522 36.7769 107.522 35.997C107.522 35.2171 106.889 34.5848 106.109 34.5848C105.329 34.5848 104.697 35.2171 104.697 35.997C104.697 36.7769 105.329 37.4091 106.109 37.4091Z" fill="#FCC934"/>
<path d="M133.806 33.7162C134.586 33.7162 135.218 33.084 135.218 32.3041C135.218 31.5242 134.586 30.892 133.806 30.892C133.026 30.892 132.394 31.5242 132.394 32.3041C132.394 33.084 133.026 33.7162 133.806 33.7162Z" fill="#FCC934"/>
<path d="M119.958 41.3327C120.737 41.3327 121.37 40.7005 121.37 39.9206C121.37 39.1407 120.737 38.5085 119.958 38.5085C119.178 38.5085 118.545 39.1407 118.545 39.9206C118.545 40.7005 119.178 41.3327 119.958 41.3327Z" fill="#FCC934"/>
<path d="M92.2612 43.4099C93.0411 43.4099 93.6734 42.7777 93.6734 41.9978C93.6734 41.2179 93.0411 40.5857 92.2612 40.5857C91.4814 40.5857 90.8491 41.2179 90.8491 41.9978C90.8491 42.7777 91.4814 43.4099 92.2612 43.4099Z" fill="#FCC934"/>
<path d="M142.653 38.7938C143.433 38.7938 144.065 38.1616 144.065 37.3817C144.065 36.6018 143.433 35.9696 142.653 35.9696C141.873 35.9696 141.241 36.6018 141.241 37.3817C141.241 38.1616 141.873 38.7938 142.653 38.7938Z" fill="#FCC934"/>
<path d="M31.5996 128.203H34.4292L35.7753 117.289L31.5991 117.289L31.5996 128.203Z" fill="#FFB6B6"/>
<path d="M30.8779 127.28L36.4504 127.279C37.3922 127.279 38.2957 127.654 38.9617 128.32C39.6277 128.986 40.0018 129.889 40.0019 130.831V130.946L30.8781 130.946L30.8779 127.28Z" fill="#2F2E41"/>
<path d="M44.9863 128.203H47.8159L49.162 117.289L44.9858 117.289L44.9863 128.203Z" fill="#FFB6B6"/>
<path d="M44.2646 127.28L49.8371 127.279C50.779 127.279 51.6824 127.654 52.3484 128.32C53.0144 128.986 53.3885 129.889 53.3886 130.831V130.946L44.2648 130.946L44.2646 127.28Z" fill="#2F2E41"/>
<path d="M50.2668 78.3075C50.506 78.0351 50.6825 77.7136 50.784 77.3656C50.8854 77.0176 50.9094 76.6516 50.8541 76.2934C50.7988 75.9352 50.6656 75.5934 50.464 75.2922C50.2623 74.991 49.9971 74.7377 49.6869 74.5501L45.0821 52.4418L40.0654 54.4183L46.1693 75.5285C45.8887 76.0704 45.8166 76.6965 45.9667 77.288C46.1168 77.8795 46.4786 78.3955 46.9837 78.738C47.4888 79.0805 48.102 79.2259 48.7071 79.1466C49.3122 79.0672 49.8671 78.7687 50.2668 78.3075Z" fill="#FFB6B6"/>
<path d="M28.5651 74.05L26.4795 76.1672C26.4795 76.1672 24.2434 84.3614 28.5223 94.4673L31.3842 123.768L36.5334 124.155L38.0706 90.0669L45.1631 101.382L43.9243 124.034L49.6161 123.903L52.1886 98.8031L45.1631 72.6107L28.5651 74.05Z" fill="#2F2E41"/>
<path d="M35.8576 76.9022C32.717 76.8802 29.5805 76.673 26.4643 76.2817L26.3389 76.265L29.447 62.6048L28.3767 45.0291L38.483 44.6829C39.3979 44.6497 40.2928 44.9556 40.9959 45.5419C41.699 46.1282 42.1607 46.9536 42.2924 47.8595L44.3609 61.882L46.2742 74.3228L46.2486 74.3602C44.8736 76.3763 40.2764 76.9022 35.8576 76.9022Z" fill="#0B57D0"/>
<path d="M37.5635 47.5898L39.6169 45.0156C39.6169 45.0156 43.2167 42.5539 44.356 47.8291C45.4952 53.1043 47.612 61.668 47.612 61.668L40.573 62.2381L37.5635 47.5898Z" fill="#0B57D0"/>
<path d="M18.1051 78.5383C17.8659 78.266 17.6894 77.9444 17.5879 77.5965C17.4864 77.2485 17.4625 76.8825 17.5178 76.5242C17.5731 76.166 17.7062 75.8242 17.9079 75.523C18.1095 75.2218 18.3748 74.9685 18.6849 74.7809L23.2897 52.6726L28.3064 54.6491L22.2026 75.7594C22.4832 76.3013 22.5553 76.9273 22.4052 77.5188C22.2551 78.1104 21.8932 78.6263 21.3882 78.9688C20.8831 79.3114 20.2699 79.4568 19.6648 79.3774C19.0597 79.2981 18.5047 78.9995 18.1051 78.5383Z" fill="#FFB6B6"/>
<path d="M30.8083 47.8206L28.7549 45.2464C28.7549 45.2464 25.1551 42.7847 24.0158 48.0599C22.8765 53.3351 20.7598 61.8989 20.7598 61.8989L27.7988 62.4689L30.8083 47.8206Z" fill="#0B57D0"/>
<path d="M39.4622 42.1124H26.0757C25.8004 42.1121 25.5364 42.0026 25.3417 41.8079C25.1469 41.6132 25.0374 41.3492 25.0371 41.0738V35.3038C25.0371 33.2531 25.8517 31.2865 27.3017 29.8365C28.7517 28.3865 30.7184 27.5719 32.769 27.5719C34.8196 27.5719 36.7862 28.3865 38.2362 29.8365C39.6862 31.2865 40.5008 33.2531 40.5008 35.3038V41.0738C40.5005 41.3492 40.391 41.6132 40.1963 41.8079C40.0016 42.0026 39.7376 42.1121 39.4622 42.1124Z" fill="#2F2E41"/>
<path d="M34.2469 41.7649C37.3776 41.7649 39.9156 39.2269 39.9156 36.0962C39.9156 32.9654 37.3776 30.4274 34.2469 30.4274C31.1161 30.4274 28.5781 32.9654 28.5781 36.0962C28.5781 39.2269 31.1161 41.7649 34.2469 41.7649Z" fill="#FFB6B6"/>
<path d="M42.3299 35.8808H34.1443L34.0604 34.7056L33.6407 35.8808H32.3803L32.214 33.5516L31.3822 35.8808H28.9434V35.7654C28.9452 34.1439 29.5901 32.5892 30.7368 31.4426C31.8834 30.296 33.438 29.651 35.0596 29.6492H36.2136C37.8352 29.651 39.3898 30.296 40.5364 31.4426C41.6831 32.5892 42.328 34.1439 42.3299 35.7654V35.8808Z" fill="#2F2E41"/>
<path d="M34.0775 43.1896C34.0159 43.1895 33.9544 43.1841 33.8937 43.1733L27.8999 42.1158V32.2098H34.4979L34.3346 32.4002C32.0618 35.0509 33.7741 39.3489 34.997 41.6749C35.0871 41.8453 35.1273 42.0376 35.1129 42.2298C35.0986 42.422 35.0302 42.6063 34.9157 42.7613C34.8198 42.8939 34.6938 43.0018 34.5481 43.0763C34.4024 43.1507 34.2411 43.1895 34.0775 43.1896Z" fill="#2F2E41"/>
<path d="M199.488 128.203H196.658L195.312 117.289L199.488 117.289L199.488 128.203Z" fill="#9E616A"/>
<path d="M200.209 130.946L191.085 130.946V130.831C191.086 129.889 191.46 128.986 192.126 128.32C192.792 127.654 193.695 127.279 194.637 127.279L200.209 127.28L200.209 130.946Z" fill="#2F2E41"/>
<path d="M189.332 128.203H186.503L185.156 117.289L189.333 117.289L189.332 128.203Z" fill="#9E616A"/>
<path d="M190.054 130.946L180.93 130.946V130.831C180.93 129.889 181.304 128.986 181.97 128.32C182.636 127.654 183.54 127.279 184.481 127.279L190.054 127.28L190.054 130.946Z" fill="#2F2E41"/>
<path d="M156.377 51.7258C156.603 52.0368 156.895 52.2945 157.231 52.4806C157.568 52.6667 157.941 52.7768 158.325 52.8031C158.708 52.8294 159.093 52.7712 159.452 52.6327C159.81 52.4943 160.134 52.2788 160.401 52.0016L166 54.188L168.158 51.1096L160.208 48.133C159.713 47.7162 159.082 47.4957 158.435 47.5132C157.787 47.5306 157.169 47.7849 156.697 48.2277C156.225 48.6706 155.931 49.2713 155.872 49.916C155.813 50.5608 155.993 51.2047 156.377 51.7258Z" fill="#9E616A"/>
<path d="M189.297 70.3773L181.925 72.782L184.387 124.989L190.077 125.129L192.988 88.3125L193.65 124.984L200.684 125.372L203.277 70.3773H189.297Z" fill="#2F2E41"/>
<path d="M184.323 39.6024L203.243 35.4916L205.347 51.7827L203.595 59.5668L204.296 71.3963C204.296 71.3963 189.336 78.8423 181.925 72.782C181.925 72.782 187.882 57.136 184.429 49.8117L184.323 39.6024Z" fill="#3F3D56"/>
<path d="M187.599 41.9067L184.323 39.6024C184.323 39.6024 184.129 39.3343 181.399 42.5265C178.668 45.7187 173.129 50.7963 173.129 50.7963L163.897 47.3343L162.215 53.5486L172.944 58.5487L188.135 48.4038L187.599 41.9067Z" fill="#3F3D56"/>
<path d="M204.3 77.503C204.648 77.3388 204.955 77.1003 205.201 76.8044C205.446 76.5085 205.624 76.1623 205.721 75.7903C205.818 75.4183 205.833 75.0294 205.764 74.6512C205.694 74.2729 205.543 73.9145 205.32 73.601L208.512 68.5075L205.889 65.8132L201.484 73.0696C200.982 73.4788 200.648 74.0577 200.544 74.6968C200.441 75.3359 200.575 75.9907 200.923 76.5372C201.27 77.0837 201.805 77.4838 202.428 77.6619C203.05 77.8399 203.716 77.7833 204.3 77.503Z" fill="#9E616A"/>
<path d="M200.292 38.7009L203.242 35.4916C203.242 35.4916 206.531 34.3465 209.217 40.2634C211.903 46.1803 214.904 58.182 214.904 58.182L207.889 71.6948L202.441 69.2605L207.889 58.0865L202.123 49.8117L200.292 38.7009Z" fill="#3F3D56"/>
<path d="M195.288 34.1554C198.264 32.5284 199.358 28.7969 197.731 25.8207C196.104 22.8445 192.372 21.7508 189.396 23.3777C186.42 25.0046 185.326 28.7362 186.953 31.7123C188.58 34.6885 192.312 35.7823 195.288 34.1554Z" fill="#9E616A"/>
<path d="M198.118 23.8567L198.416 23.2575L196.918 22.5132C196.918 22.5132 195.265 19.8241 192.275 20.5798C189.284 21.3355 187.938 21.7877 187.938 21.7877L186.444 22.5396L187.194 23.2859L185.849 23.7381L186.748 24.1847L185.702 24.7859L186.265 27.8675C186.265 27.8675 187.2 25.5302 188.998 26.4234C190.795 27.3166 194.084 25.9617 194.084 25.9617L196.94 31.4906C196.94 31.4906 197.53 29.5524 198.581 30.0692C198.581 30.0692 201.265 25.7939 198.118 23.8567Z" fill="#2F2E41"/>
<path d="M69.2406 131H0.230802C0.169589 131 0.110884 130.976 0.0676002 130.932C0.0243164 130.889 0 130.83 0 130.769C0 130.708 0.0243164 130.649 0.0676002 130.606C0.110884 130.563 0.169589 130.538 0.230802 130.538H69.2406C69.3018 130.538 69.3605 130.563 69.4038 130.606C69.4471 130.649 69.4714 130.708 69.4714 130.769C69.4714 130.83 69.4471 130.889 69.4038 130.932C69.3605 130.976 69.3018 131 69.2406 131Z" fill="#CACACA"/>
<path d="M214.876 131H162.023C161.962 131 161.903 130.976 161.86 130.932C161.816 130.889 161.792 130.83 161.792 130.769C161.792 130.708 161.816 130.649 161.86 130.606C161.903 130.563 161.962 130.538 162.023 130.538H214.876C214.938 130.538 214.996 130.563 215.04 130.606C215.083 130.649 215.107 130.708 215.107 130.769C215.107 130.83 215.083 130.889 215.04 130.932C214.996 130.976 214.938 131 214.876 131Z" fill="#CACACA"/>
<mask id="path-50-inside-1_219_3910" fill="white">
<path d="M71.0154 18C67.3732 18.0014 63.8744 19.42 61.2597 21.9555C58.6449 24.491 57.1194 27.9445 57.006 31.5849C57.002 31.7271 57 31.8712 57 32.0154C57 34.7874 57.822 37.4971 59.362 39.8019C60.902 42.1067 63.0909 43.9031 65.6519 44.9639C68.2129 46.0247 71.0309 46.3023 73.7497 45.7615C76.4684 45.2207 78.9657 43.8858 80.9258 41.9258C82.8858 39.9657 84.2207 37.4684 84.7615 34.7496C85.3022 32.0309 85.0247 29.2129 83.9639 26.6519C82.9031 24.091 81.1067 21.902 78.8019 20.362C76.4971 18.822 73.7874 18 71.0154 18ZM71.0154 45.6303C67.4056 45.6266 63.9448 44.1909 61.3923 41.6384C58.8398 39.086 57.4042 35.6251 57.4004 32.0154C57.4004 31.8292 57.4044 31.645 57.4125 31.4628C57.5209 28.7958 58.4109 26.2195 59.9717 24.0543C61.5326 21.8891 63.6955 20.2305 66.1915 19.2847C68.6874 18.3388 71.4064 18.1476 74.0102 18.7346C76.614 19.3217 78.9878 20.6612 80.8364 22.5865C82.685 24.5119 83.9269 26.9382 84.4077 29.5637C84.8884 32.1892 84.5868 34.8981 83.5403 37.3536C82.4938 39.8091 80.7486 41.9028 78.5217 43.3743C76.2949 44.8459 73.6845 45.6304 71.0154 45.6303Z"/>
</mask>
<path d="M71.0154 18C67.3732 18.0014 63.8744 19.42 61.2597 21.9555C58.6449 24.491 57.1194 27.9445 57.006 31.5849C57.002 31.7271 57 31.8712 57 32.0154C57 34.7874 57.822 37.4971 59.362 39.8019C60.902 42.1067 63.0909 43.9031 65.6519 44.9639C68.2129 46.0247 71.0309 46.3023 73.7497 45.7615C76.4684 45.2207 78.9657 43.8858 80.9258 41.9258C82.8858 39.9657 84.2207 37.4684 84.7615 34.7496C85.3022 32.0309 85.0247 29.2129 83.9639 26.6519C82.9031 24.091 81.1067 21.902 78.8019 20.362C76.4971 18.822 73.7874 18 71.0154 18ZM71.0154 45.6303C67.4056 45.6266 63.9448 44.1909 61.3923 41.6384C58.8398 39.086 57.4042 35.6251 57.4004 32.0154C57.4004 31.8292 57.4044 31.645 57.4125 31.4628C57.5209 28.7958 58.4109 26.2195 59.9717 24.0543C61.5326 21.8891 63.6955 20.2305 66.1915 19.2847C68.6874 18.3388 71.4064 18.1476 74.0102 18.7346C76.614 19.3217 78.9878 20.6612 80.8364 22.5865C82.685 24.5119 83.9269 26.9382 84.4077 29.5637C84.8884 32.1892 84.5868 34.8981 83.5403 37.3536C82.4938 39.8091 80.7486 41.9028 78.5217 43.3743C76.2949 44.8459 73.6845 45.6304 71.0154 45.6303Z" fill="#0B57D0"/>
<path d="M71.0154 18L71.0154 17L71.015 17L71.0154 18ZM57.006 31.5849L56.0064 31.5538L56.0064 31.5568L57.006 31.5849ZM57 32.0154L56 32.0154L57 32.0154ZM71.0154 45.6303L71.0143 46.6303L71.0153 46.6303L71.0154 45.6303ZM57.4004 32.0154L56.4004 32.0154L56.4004 32.0164L57.4004 32.0154ZM57.4125 31.4628L58.4115 31.5067L58.4116 31.5034L57.4125 31.4628ZM71.015 17C67.113 17.0015 63.3648 18.5213 60.5635 21.2376L61.9558 22.6734C64.3841 20.3187 67.6333 19.0013 71.0158 19L71.015 17ZM60.5635 21.2376C57.7623 23.9539 56.128 27.6537 56.0064 31.5538L58.0055 31.6161C58.1108 28.2352 59.5276 25.0281 61.9558 22.6734L60.5635 21.2376ZM56.0064 31.5568C56.0021 31.7087 56 31.8622 56 32.0154H58C58 31.8802 58.0018 31.7455 58.0056 31.6131L56.0064 31.5568ZM56 32.0154C56 34.9851 56.8806 37.8882 58.5305 40.3575L60.1935 39.2463C58.7633 37.106 58 34.5896 58 32.0154L56 32.0154ZM58.5305 40.3575C60.1805 42.8267 62.5255 44.7513 65.2692 45.8878L66.0346 44.04C63.6564 43.0549 61.6236 41.3867 60.1935 39.2463L58.5305 40.3575ZM65.2692 45.8878C68.0129 47.0243 71.032 47.3216 73.9447 46.7423L73.5546 44.7807C71.0298 45.2829 68.4129 45.0251 66.0346 44.04L65.2692 45.8878ZM73.9447 46.7423C76.8574 46.1629 79.5329 44.7328 81.6329 42.6329L80.2186 41.2186C78.3984 43.0389 76.0793 44.2785 73.5546 44.7807L73.9447 46.7423ZM81.6329 42.6329C83.7328 40.5329 85.1629 37.8574 85.7422 34.9447L83.7807 34.5546C83.2785 37.0793 82.0389 39.3984 80.2186 41.2186L81.6329 42.6329ZM85.7422 34.9447C86.3216 32.032 86.0243 29.0129 84.8878 26.2692L83.04 27.0346C84.0251 29.4129 84.2829 32.0298 83.7807 34.5546L85.7422 34.9447ZM84.8878 26.2692C83.7513 23.5255 81.8268 21.1805 79.3575 19.5305L78.2463 21.1935C80.3867 22.6236 82.0549 24.6564 83.04 27.0346L84.8878 26.2692ZM79.3575 19.5305C76.8882 17.8806 73.9851 17 71.0154 17V19C73.5896 19 76.106 19.7633 78.2463 21.1935L79.3575 19.5305ZM71.0164 44.6303C67.6715 44.6268 64.4646 43.2965 62.0994 40.9313L60.6852 42.3456C63.425 45.0853 67.1397 46.6263 71.0143 46.6303L71.0164 44.6303ZM62.0994 40.9313C59.7342 38.5661 58.4039 35.3592 58.4004 32.0143L56.4004 32.0164C56.4045 35.891 57.9454 39.6058 60.6852 42.3456L62.0994 40.9313ZM58.4004 32.0154C58.4004 31.8435 58.4041 31.674 58.4115 31.5067L56.4134 31.4188C56.4048 31.616 56.4004 31.8148 56.4004 32.0154L58.4004 32.0154ZM58.4116 31.5034C58.5121 29.0323 59.3367 26.6453 60.7829 24.6391L59.1605 23.4696C57.485 25.7938 56.5297 28.5593 56.4133 31.4222L58.4116 31.5034ZM60.7829 24.6391C62.2291 22.6329 64.2332 21.0961 66.5458 20.2198L65.8371 18.3495C63.1578 19.3648 60.836 21.1453 59.1605 23.4696L60.7829 24.6391ZM66.5458 20.2198C68.8584 19.3434 71.3777 19.1662 73.7902 19.7101L74.2301 17.7591C71.435 17.1289 68.5164 17.3342 65.8371 18.3495L66.5458 20.2198ZM73.7902 19.7101C76.2028 20.2541 78.4022 21.4952 80.1151 23.2791L81.5577 21.8939C79.5733 19.8272 77.0252 18.3893 74.2301 17.7591L73.7902 19.7101ZM80.1151 23.2791C81.8279 25.0631 82.9786 27.3111 83.424 29.7438L85.3913 29.3836C84.8753 26.5652 83.5422 23.9607 81.5577 21.8939L80.1151 23.2791ZM83.424 29.7438C83.8695 32.1765 83.59 34.6864 82.6203 36.9615L84.4602 37.7457C85.5836 35.1099 85.9074 32.202 85.3913 29.3836L83.424 29.7438ZM82.6203 36.9615C81.6507 39.2366 80.0337 41.1765 77.9704 42.54L79.0731 44.2086C81.4635 42.629 83.3369 40.3815 84.4602 37.7457L82.6203 36.9615ZM77.9704 42.54C75.9071 43.9035 73.4885 44.6304 71.0154 44.6303L71.0153 46.6303C73.8806 46.6304 76.6826 45.7883 79.0731 44.2086L77.9704 42.54Z" fill="#0B57D0" mask="url(#path-50-inside-1_219_3910)"/>
<path d="M70.8844 26.6676V25.5218H71.396V26.6516V27.0961L71.8375 27.1481C72.3478 27.2084 72.8478 27.3366 73.3241 27.5295L73.3241 27.5295L73.3267 27.5305C73.6254 27.6496 73.9075 27.8057 74.1663 27.9949L73.9404 28.4765C73.3167 28.0666 72.6095 27.7949 71.8665 27.6828L71.2919 27.5962V28.1773V31.3928V31.7869L71.6751 31.8789C72.2094 32.0073 72.7324 32.179 73.2389 32.3921C73.5899 32.5492 73.8962 32.7914 74.1301 33.0967C74.3753 33.4442 74.4978 33.8637 74.478 34.2888L74.4772 34.3057L74.4776 34.3227C74.4842 34.6302 74.4269 34.9356 74.3093 35.2197C74.1921 35.5029 74.0176 35.7586 73.7968 35.971C73.2587 36.4724 72.5729 36.7864 71.8417 36.8663L71.3961 36.915V37.3633V38.5091H70.8844V37.3934V36.926L70.4181 36.8945C69.8347 36.8551 69.2595 36.7352 68.7089 36.5382L68.7077 36.5377C68.3413 36.4077 67.9942 36.2301 67.6751 36.0099L67.9003 35.5291C68.6643 36.0176 69.5402 36.3116 70.4509 36.3803L70.9885 36.4208V35.8817V32.8003V32.4064L70.6056 32.3142C70.0614 32.1832 69.5291 32.0069 69.0142 31.7873C68.6443 31.6227 68.3218 31.3675 68.0768 31.0452C67.8213 30.6828 67.6937 30.2455 67.7144 29.8023L67.7151 29.7878L67.7149 29.7733C67.7101 29.3532 67.8226 28.9401 68.0398 28.5805C68.2762 28.1993 68.6013 27.881 68.9873 27.6525L68.988 27.6521C69.432 27.3883 69.927 27.2221 70.4402 27.1645L70.8844 27.1146V26.6676ZM70.3434 31.5309L70.9885 31.7265V31.0524V28.1933V27.6012L70.4048 27.7003C69.9229 27.7822 69.4788 28.0127 69.1345 28.3596L69.1344 28.3595L69.1249 28.3696C68.7939 28.7221 68.6145 29.1902 68.6248 29.6732C68.6187 29.8982 68.6611 30.122 68.7494 30.3292C68.8399 30.5418 68.9764 30.7317 69.149 30.8854L69.1558 30.8914L69.1628 30.8972C69.5105 31.1846 69.9118 31.4 70.3434 31.5309ZM73.099 35.6622L73.1103 35.6506L73.1208 35.6383C73.4227 35.2857 73.5818 34.8334 73.5676 34.3699C73.5719 34.1612 73.5305 33.954 73.4463 33.7628C73.3595 33.5658 73.2294 33.3909 73.0658 33.2511L73.0578 33.2443L73.0496 33.2378C72.7154 32.9757 72.3317 32.7839 71.9215 32.6738L71.2919 32.5049V33.1567V35.8076V36.3964L71.8729 36.301C72.3393 36.2244 72.769 36.0006 73.099 35.6622Z" fill="#0B57D0" stroke="#0B57D0"/>
</g>
<defs>
<clipPath id="clip0_219_3910">
<rect width="215.107" height="131" fill="white"/>
</clipPath>
</defs>
</svg>
