<svg width="157" height="131" viewBox="0 0 157 131" fill="none" xmlns="http://www.w3.org/2000/svg">
<g clip-path="url(#clip0_233_316)">
<path d="M143.988 128.477L141.653 128.477L140.542 119.471H143.988L143.988 128.477Z" fill="#9E616A"/>
<path d="M144.583 130.741L137.054 130.74V130.645C137.054 129.868 137.363 129.123 137.913 128.573C138.462 128.023 139.208 127.715 139.985 127.715L144.583 127.715L144.583 130.741Z" fill="#2F2E41"/>
<path d="M135.036 128.477L132.701 128.477L131.59 119.471H135.037L135.036 128.477Z" fill="#9E616A"/>
<path d="M135.632 130.741L128.103 130.74V130.645C128.103 129.868 128.411 129.123 128.961 128.573C129.511 128.023 130.256 127.715 131.033 127.715L135.632 127.715L135.632 130.741Z" fill="#2F2E41"/>
<path d="M34.1558 130.392V58.053C34.1558 57.6074 34.3328 57.1801 34.6478 56.8651C34.9628 56.5501 35.3901 56.3731 35.8356 56.3731H43.3322C43.7777 56.3731 44.205 56.5501 44.5201 56.8651C44.8351 57.1801 45.0121 57.6074 45.0121 58.053V130.581L34.1558 130.392Z" fill="#3F3D56"/>
<path d="M58.916 130.619V73.0994C58.916 72.6539 59.093 72.2266 59.408 71.9116C59.7231 71.5965 60.1504 71.4196 60.5959 71.4196H68.0925C68.538 71.4196 68.9653 71.5965 69.2803 71.9116C69.5954 72.2266 69.7723 72.6539 69.7723 73.0994V130.495L58.916 130.619Z" fill="#3F3D56"/>
<path d="M14.9189 62.281C14.8085 62.281 14.7006 62.249 14.608 62.1889C14.5154 62.1288 14.4422 62.0433 14.3973 61.9425C14.3523 61.8417 14.3375 61.7301 14.3546 61.6211C14.3717 61.5121 14.42 61.4104 14.4936 61.3282L39.5594 33.3701L64.2277 47.2223L89.0428 4.46411L114.322 25.2711C114.38 25.3188 114.428 25.3774 114.464 25.4437C114.499 25.5099 114.521 25.5825 114.528 25.6572C114.536 25.7319 114.528 25.8073 114.506 25.8791C114.484 25.951 114.448 26.0178 114.401 26.0757C114.353 26.1337 114.294 26.1817 114.228 26.217C114.162 26.2523 114.089 26.2741 114.015 26.2814C113.94 26.2886 113.864 26.281 113.793 26.2591C113.721 26.2371 113.654 26.2013 113.596 26.1535L89.3556 6.2017L64.6506 48.7704L39.7987 34.8151L15.3445 62.091C15.2909 62.1509 15.2253 62.1987 15.152 62.2315C15.0787 62.2642 14.9992 62.2811 14.9189 62.281Z" fill="#3F3D56"/>
<path d="M14.8241 67.0425C17.7694 67.0425 20.1571 64.6549 20.1571 61.7096C20.1571 58.7643 17.7694 56.3767 14.8241 56.3767C11.8788 56.3767 9.49121 58.7643 9.49121 61.7096C9.49121 64.6549 11.8788 67.0425 14.8241 67.0425Z" fill="#0B57D0"/>
<path d="M39.5839 39.4256C42.5292 39.4256 44.9168 37.0379 44.9168 34.0926C44.9168 31.1473 42.5292 28.7597 39.5839 28.7597C36.6386 28.7597 34.251 31.1473 34.251 34.0926C34.251 37.0379 36.6386 39.4256 39.5839 39.4256Z" fill="#CCCCCC"/>
<path d="M64.3442 53.3293C67.2895 53.3293 69.6771 50.9417 69.6771 47.9964C69.6771 45.0511 67.2895 42.6635 64.3442 42.6635C61.3989 42.6635 59.0112 45.0511 59.0112 47.9964C59.0112 50.9417 61.3989 53.3293 64.3442 53.3293Z" fill="#E6E6E6"/>
<path d="M89.1039 10.6659C92.0492 10.6659 94.4369 8.27823 94.4369 5.33293C94.4369 2.38763 92.0492 0 89.1039 0C86.1586 0 83.771 2.38763 83.771 5.33293C83.771 8.27823 86.1586 10.6659 89.1039 10.6659Z" fill="#0B57D0"/>
<path d="M136.72 50.3838C139.665 50.3838 142.053 47.9962 142.053 45.0509C142.053 42.1056 139.665 39.718 136.72 39.718C133.774 39.718 131.387 42.1056 131.387 45.0509C131.387 47.9962 133.774 50.3838 136.72 50.3838Z" fill="#FBBC04"/>
<path d="M134.834 86.5946C136.83 86.835 141.934 85.0141 142.211 87.7843C144.838 95.518 144.76 125.164 144.76 125.164L140.76 125.354C140.76 125.354 137.564 101.799 136.053 96.7595C135.294 102.885 135.427 126.306 135.427 126.306L131.809 126.497C131.809 126.497 128.562 106.552 128.544 100.698C128.149 96.4103 129.117 90.056 128.703 85.9108C130.682 86.5381 132.765 86.7704 134.834 86.5946Z" fill="#3F3D56"/>
<path d="M108.436 130.363V46.9871C108.436 45.9179 109.188 45.0509 110.116 45.0509H117.612C118.54 45.0509 119.292 45.9177 119.292 46.9871V130.581L108.436 130.363Z" fill="#3F3D56"/>
<path d="M128.044 64.1582C127.243 62.5216 126.266 60.9778 125.128 59.5547C124.89 59.2768 124.674 58.9814 124.48 58.671C124.071 57.9606 123.949 57.1263 123.69 56.3493C122.966 54.1704 121.161 52.42 120.721 50.1669C120.561 49.3479 119.209 51.7283 119.565 52.7438C120.199 54.5818 120.281 56.5283 121.088 58.3034C121.896 60.0785 122.844 61.7812 123.541 63.5963C123.938 64.6267 124.254 65.6914 124.835 66.6437C125.416 67.596 126.322 68.3941 127.417 68.5369C127.41 67.8465 127.515 67.1595 127.728 66.5028C127.966 65.7524 128.389 64.8686 128.044 64.1582Z" fill="#9E616A"/>
<path d="M140.026 65.3924C139.977 64.0457 140.187 62.7021 140.645 61.4346C140.82 60.9489 141.026 60.4556 141.009 59.9395C140.984 59.4595 140.755 59.0195 140.548 58.5853C139.832 57.0902 139.329 55.5055 138.834 53.9247L137.881 50.944C137.571 50.7163 139.384 50.6373 139.771 51.1725C141.035 52.9286 141.993 54.9456 142.995 56.8635C143.251 57.3205 143.469 57.7976 143.647 58.2901C143.891 59.0881 144.007 59.9201 143.989 60.7546C143.989 62.3145 143.784 63.8687 143.57 65.4152C143.435 66.3847 143.258 67.4399 142.525 68.0817C141.763 67.1065 140.997 66.1542 140.026 65.3924Z" fill="#9E616A"/>
<path d="M134.99 63.8493C137.173 63.8493 138.942 62.0799 138.942 59.8972C138.942 57.7145 137.173 55.9451 134.99 55.9451C132.807 55.9451 131.038 57.7145 131.038 59.8972C131.038 62.0799 132.807 63.8493 134.99 63.8493Z" fill="#9E616A"/>
<path d="M131.778 55.9542C131.733 55.8343 131.723 55.7043 131.749 55.579C131.774 55.4537 131.834 55.338 131.922 55.2451C132.021 55.1673 132.152 55.1383 132.258 55.0641C132.408 54.9376 132.531 54.7819 132.619 54.6064C132.889 54.2286 133.285 53.9586 133.735 53.8444C134.185 53.7301 134.661 53.779 135.078 53.9823C135.731 54.3241 136.126 55.0086 136.706 55.4695C137.001 55.7083 137.343 55.8856 137.64 56.1244C138.234 56.6377 138.657 57.3209 138.85 58.0819C139.043 58.8378 139.155 59.6118 139.186 60.3912C139.217 60.625 139.208 60.8624 139.159 61.0932C139.099 61.2868 139.009 61.4699 138.893 61.636C138.296 62.5406 137.509 63.362 136.523 63.8288C135.537 64.2956 134.337 64.3716 133.365 63.8831C133.267 63.8435 133.183 63.7762 133.123 63.6895C133.067 63.5574 133.054 63.4115 133.085 63.2716C133.137 62.7187 133.028 62.1624 132.77 61.6706C132.589 61.3088 132.318 60.9975 132.173 60.6231C132.038 60.2039 131.981 59.7639 132.003 59.3242C131.986 58.1849 132.063 57.0506 131.778 55.9542Z" fill="#2D293D"/>
<path d="M9.39551 130.476V90.2235C9.39551 89.7073 10.1476 89.2887 11.0754 89.2887H18.572C19.4997 89.2887 20.2518 89.7077 20.2518 90.2235V130.581L9.39551 130.476Z" fill="#3F3D56"/>
<path d="M156.211 131H0.190462C0.139948 131 0.0915033 130.98 0.0557848 130.944C0.0200663 130.908 0 130.86 0 130.81C0 130.759 0.0200663 130.711 0.0557848 130.675C0.0915033 130.639 0.139948 130.619 0.190462 130.619H156.211C156.261 130.619 156.31 130.639 156.345 130.675C156.381 130.711 156.401 130.759 156.401 130.81C156.401 130.86 156.381 130.908 156.345 130.944C156.31 130.98 156.261 131 156.211 131H156.211Z" fill="#E6E6E6"/>
<path d="M83.6758 130.334V35.7185C83.6758 34.505 84.4279 33.5213 85.3557 33.5213H92.8522C93.78 33.5213 94.5321 34.505 94.5321 35.7185V130.581L83.6758 130.334Z" fill="#0B57D0"/>
<path d="M119.454 52.2562C120.401 52.2562 121.169 51.4887 121.169 50.542C121.169 49.5953 120.401 48.8279 119.454 48.8279C118.508 48.8279 117.74 49.5953 117.74 50.542C117.74 51.4887 118.508 52.2562 119.454 52.2562Z" fill="#A0616A"/>
<path d="M138.5 51.4943C139.447 51.4943 140.214 50.7269 140.214 49.7802C140.214 48.8335 139.447 48.066 138.5 48.066C137.554 48.066 136.786 48.8335 136.786 49.7802C136.786 50.7269 137.554 51.4943 138.5 51.4943Z" fill="#A0616A"/>
<path d="M142.666 70.9996C142.833 70.8465 144.197 62.8719 144.189 62.6921C144.168 61.7097 141.17 60.5875 140.57 60.978C140.004 61.3464 139.018 65.5727 138.384 66.3424L137.713 65.1681H132.38L132.057 65.7684C131.357 65.3469 130.728 64.9582 130.503 64.8296C130.426 64.7773 130.342 64.736 130.254 64.7067C129.699 64.5828 129.179 64.3383 128.73 63.9906C128.292 63.6535 126.259 60.1228 125.714 60.2161C125.099 60.319 123.024 62.1131 123.048 63.8349C123.309 63.8293 126.707 70.6244 126.755 70.8777C127.016 71.9481 127.877 87.5583 128.155 88.2859C129.436 88.1621 128.425 87.9412 129.665 88.2859C131 88.6573 132.41 88.2554 133.787 88.1069C134.36 88.0501 134.936 88.0247 135.512 88.0307C137.607 88.0402 140.597 88.1564 142.626 88.6763C142.637 87.3469 141.47 84.471 141.037 83.2158C140.981 82.8407 140.983 82.459 141.043 82.0845C141.098 81.6255 142.214 71.5071 142.666 70.9996Z" fill="#E6E6E6"/>
</g>
<defs>
<clipPath id="clip0_233_316">
<rect width="156.401" height="131" fill="white"/>
</clipPath>
</defs>
</svg>
