<svg width="243" height="131" viewBox="0 0 243 131" fill="none" xmlns="http://www.w3.org/2000/svg">
<g clip-path="url(#clip0_273_2994)">
<path d="M34.9883 113.618H206.163V103.299C206.163 101.144 203.565 99.023 199.037 97.4794L198.991 97.4634C195.934 96.3845 176.389 88.7085 165.818 88.9407C160.234 89.063 155.453 90.0095 151.608 91.7541C139.641 97.1866 123.921 99.1933 115.616 97.6167C108.297 96.227 88.203 93.9289 80.7786 94.0327C70.3807 94.1757 70.3502 95.9129 59.6769 101.519C55.6004 103.659 54.0757 103.927 34.9883 105.634V113.618Z" fill="#F2F2F2"/>
<path d="M7.3899 98.451C7.01716 92.915 9.36736 87.3225 14.2372 85.2676C13.2528 90.9714 14.4657 97.3096 17.5932 102.804C18.8113 104.945 20.3757 107.23 20.0427 109.466C19.8356 110.857 18.889 111.962 17.7324 112.681C16.5757 113.4 15.2127 113.784 13.8663 114.161L13.6339 114.405C10.4341 109.45 7.76264 103.987 7.3899 98.451Z" fill="#F2F2F2"/>
<path d="M14.3092 85.3688C11.8942 89.087 10.8212 93.5185 11.2679 97.9297C11.3418 98.9372 11.5674 99.9279 11.9373 100.868C12.3417 101.81 12.962 102.644 13.748 103.301C14.4756 103.935 15.2828 104.509 15.8654 105.287C16.153 105.667 16.361 106.1 16.4772 106.562C16.5933 107.024 16.6151 107.504 16.5413 107.974C16.3715 109.089 15.7945 110.02 15.1953 110.906C14.53 111.889 13.8216 112.899 13.7009 114.164C13.6863 114.318 13.4412 114.252 13.4558 114.099C13.6658 111.897 15.5228 110.558 16.147 108.553C16.3167 108.068 16.3746 107.552 16.3163 107.042C16.258 106.532 16.0851 106.041 15.8104 105.608C15.2675 104.785 14.4355 104.192 13.6941 103.556C12.9178 102.922 12.2864 102.129 11.8424 101.23C11.4275 100.306 11.1646 99.3208 11.0638 98.3127C10.812 96.1389 10.9152 93.9386 11.3693 91.7979C11.855 89.4418 12.7864 87.2002 14.1136 85.1937C14.195 85.0715 14.3901 85.2473 14.3092 85.3688Z" fill="white"/>
<path d="M11.0522 96.4471C10.2511 96.2902 9.51884 95.8875 8.95726 95.2951C8.39567 94.7027 8.03271 93.9499 7.91887 93.1416C7.90126 92.9842 8.14607 92.9839 8.1637 93.1415C8.26843 93.8942 8.60648 94.5952 9.1303 95.1458C9.65411 95.6965 10.3374 96.0691 11.0839 96.2112C11.0996 96.2131 11.1147 96.218 11.1285 96.2258C11.1422 96.2336 11.1543 96.244 11.1639 96.2565C11.1736 96.269 11.1807 96.2832 11.1848 96.2985C11.1889 96.3137 11.1899 96.3296 11.1878 96.3452C11.1857 96.3609 11.1805 96.376 11.1725 96.3896C11.1645 96.4032 11.1539 96.4151 11.1413 96.4246C11.1287 96.434 11.1143 96.4409 11.099 96.4448C11.0837 96.4486 11.0678 96.4494 11.0522 96.4471Z" fill="white"/>
<path d="M13.344 103.022C13.9418 102.576 14.4384 102.009 14.8013 101.358C15.1641 100.707 15.385 99.9864 15.4492 99.2437C15.4644 99.0905 15.7096 99.1555 15.6944 99.3086C15.6259 100.081 15.3946 100.831 15.0154 101.507C14.6363 102.184 14.1181 102.773 13.4949 103.235C13.3757 103.322 13.2254 103.109 13.344 103.022Z" fill="white"/>
<path d="M12.1425 89.6228C12.4219 89.7429 12.7274 89.7896 13.0299 89.7584C13.3324 89.7273 13.6219 89.6195 13.871 89.445C13.9888 89.3562 14.139 89.5695 14.0219 89.6577C13.7459 89.8491 13.4262 89.9679 13.0921 90.003C12.7581 90.0381 12.4206 89.9885 12.1108 89.8587C12.0787 89.8494 12.0506 89.8294 12.0313 89.8021C12.0119 89.7748 12.0023 89.7417 12.0041 89.7083C12.0064 89.693 12.012 89.6783 12.0205 89.6654C12.029 89.6524 12.0403 89.6415 12.0534 89.6334C12.0666 89.6252 12.0814 89.6201 12.0968 89.6182C12.1122 89.6164 12.1278 89.618 12.1425 89.6228Z" fill="white"/>
<path d="M32.0055 94.287C31.9338 94.3447 31.8622 94.4025 31.7908 94.4624C30.8334 95.2433 29.9512 96.1121 29.1555 97.0573C29.0927 97.1292 29.0303 97.2031 28.97 97.277C27.0665 99.6065 25.6731 102.31 24.8801 105.212C24.5548 106.395 24.3266 107.603 24.1975 108.824C24.0163 110.526 23.96 112.404 23.2287 113.826C23.1546 113.975 23.07 114.119 22.9757 114.256L13.9965 114.711C13.9741 114.702 13.952 114.695 13.9296 114.686L13.5742 114.72C13.5764 114.656 13.5801 114.589 13.5823 114.524C13.5833 114.487 13.5865 114.449 13.5876 114.411C13.5889 114.386 13.5904 114.361 13.5902 114.338C13.5906 114.33 13.5911 114.322 13.5919 114.315C13.5917 114.292 13.5939 114.272 13.5941 114.251C13.6136 113.877 13.6351 113.503 13.6608 113.129C13.6604 113.127 13.6604 113.127 13.6621 113.125C13.8164 110.313 14.3269 107.532 15.1815 104.848C15.2079 104.77 15.2339 104.689 15.2644 104.611C15.6629 103.448 16.1673 102.324 16.7712 101.253C17.1012 100.673 17.4644 100.113 17.859 99.5754C18.8809 98.1906 20.1448 97.002 21.5897 96.067C23.0645 95.0847 24.7245 94.414 26.4677 94.096C28.211 93.778 30.0009 93.8194 31.7275 94.2178C31.8207 94.2401 31.912 94.2626 32.0055 94.287Z" fill="#F2F2F2"/>
<path d="M32.0072 94.403C27.7983 95.4611 24.1077 97.9922 21.6046 101.537C21.0551 102.292 20.6441 103.139 20.3907 104.037C20.1699 104.972 20.2059 105.948 20.495 106.864C20.7483 107.754 21.1085 108.649 21.1453 109.555C21.1655 109.998 21.0805 110.44 20.8973 110.844C20.7142 111.248 20.438 111.603 20.0913 111.88C19.2567 112.573 18.1754 112.89 17.1019 113.162C15.9099 113.463 14.6643 113.757 13.7802 114.588C13.673 114.689 13.4965 114.495 13.6035 114.394C15.1417 112.949 17.6044 113.111 19.3877 112.055C20.2197 111.563 20.8701 110.796 20.8997 109.751C20.9256 108.837 20.5549 107.913 20.2908 107.013C19.9966 106.119 19.9257 105.167 20.0843 104.239C20.2872 103.326 20.6621 102.46 21.1891 101.688C22.332 99.9539 23.7794 98.441 25.4611 97.2223C27.4077 95.7999 29.6071 94.7608 31.942 94.1603C32.089 94.1221 32.1533 94.365 32.0072 94.403Z" fill="white"/>
<path d="M22.3233 100.349C21.0755 99.1696 20.7633 97.3523 21.5866 96.1049C21.6677 95.982 21.8841 96.1291 21.8029 96.2521C21.0316 97.4208 21.3298 99.0972 22.4962 100.2C22.619 100.316 22.4453 100.465 22.3233 100.349Z" fill="white"/>
<path d="M20.3089 106.42C21.0662 106.478 21.8273 106.381 22.5459 106.135C23.2645 105.889 23.9257 105.5 24.4893 104.991C24.5968 104.891 24.7733 105.085 24.6659 105.185C24.0781 105.713 23.389 106.117 22.6405 106.371C21.892 106.625 21.0997 106.724 20.3116 106.663C20.1527 106.654 20.1509 106.411 20.3089 106.42Z" fill="white"/>
<path d="M27.478 96.1348C27.6668 96.3979 27.9112 96.6162 28.194 96.774C28.4767 96.9319 28.7908 97.0254 29.1138 97.048C29.2724 97.0555 29.274 97.2981 29.1164 97.2906C28.7596 97.2642 28.4128 97.1605 28.1 96.9867C27.7872 96.8129 27.516 96.5731 27.3051 96.2841C27.2826 96.2613 27.2699 96.2307 27.2695 96.1987C27.2692 96.1667 27.2813 96.1358 27.3032 96.1125C27.3297 96.0932 27.3626 96.0848 27.3951 96.0889C27.4275 96.0931 27.4572 96.1095 27.478 96.1348Z" fill="white"/>
<path d="M232.198 98.451C232.571 92.915 230.221 87.3225 225.351 85.2676C226.335 90.9714 225.123 97.3096 221.995 102.804C220.777 104.945 219.213 107.23 219.545 109.466C219.753 110.857 220.699 111.962 221.856 112.681C223.013 113.4 224.376 113.784 225.722 114.161L225.954 114.405C229.154 109.45 231.826 103.987 232.198 98.451Z" fill="#F2F2F2"/>
<path d="M225.279 85.3688C227.694 89.087 228.767 93.5185 228.32 97.9297C228.246 98.9372 228.021 99.9279 227.651 100.868C227.246 101.81 226.626 102.644 225.84 103.301C225.112 103.935 224.305 104.509 223.723 105.287C223.435 105.667 223.227 106.1 223.111 106.562C222.995 107.024 222.973 107.504 223.047 107.974C223.217 109.089 223.793 110.02 224.393 110.906C225.058 111.889 225.766 112.899 225.887 114.164C225.902 114.318 226.147 114.252 226.132 114.099C225.922 111.897 224.065 110.558 223.441 108.553C223.271 108.068 223.213 107.552 223.272 107.042C223.33 106.532 223.503 106.041 223.778 105.608C224.321 104.785 225.152 104.192 225.894 103.556C226.67 102.922 227.302 102.129 227.746 101.23C228.161 100.306 228.423 99.3208 228.524 98.3127C228.776 96.1389 228.673 93.9386 228.219 91.7979C227.733 89.4418 226.802 87.2002 225.474 85.1937C225.393 85.0715 225.198 85.2473 225.279 85.3688Z" fill="white"/>
<path d="M228.539 96.4471C229.34 96.2902 230.072 95.8875 230.634 95.2951C231.196 94.7027 231.558 93.9499 231.672 93.1416C231.69 92.9842 231.445 92.9839 231.428 93.1415C231.323 93.8942 230.985 94.5952 230.461 95.1458C229.937 95.6965 229.254 96.0691 228.507 96.2112C228.492 96.2131 228.476 96.218 228.463 96.2258C228.449 96.2336 228.437 96.244 228.427 96.2565C228.418 96.269 228.411 96.2832 228.406 96.2985C228.402 96.3137 228.401 96.3296 228.403 96.3452C228.406 96.3609 228.411 96.376 228.419 96.3896C228.427 96.4032 228.437 96.4151 228.45 96.4246C228.463 96.434 228.477 96.4409 228.492 96.4448C228.507 96.4486 228.523 96.4494 228.539 96.4471Z" fill="white"/>
<path d="M226.246 103.022C225.648 102.576 225.151 102.009 224.788 101.358C224.425 100.707 224.205 99.9864 224.14 99.2437C224.125 99.0905 223.88 99.1555 223.895 99.3086C223.964 100.081 224.195 100.831 224.574 101.507C224.953 102.184 225.471 102.773 226.095 103.235C226.214 103.322 226.364 103.109 226.246 103.022Z" fill="white"/>
<path d="M227.449 89.6228C227.17 89.7429 226.864 89.7896 226.562 89.7584C226.259 89.7273 225.97 89.6195 225.721 89.445C225.603 89.3562 225.453 89.5695 225.57 89.6577C225.846 89.8491 226.166 89.9679 226.5 90.003C226.834 90.0381 227.171 89.9885 227.481 89.8587C227.513 89.8494 227.541 89.8294 227.56 89.8021C227.58 89.7748 227.589 89.7417 227.588 89.7083C227.585 89.693 227.58 89.6783 227.571 89.6654C227.563 89.6524 227.551 89.6415 227.538 89.6334C227.525 89.6252 227.51 89.6201 227.495 89.6182C227.479 89.6164 227.464 89.618 227.449 89.6228Z" fill="white"/>
<path d="M207.586 94.287C207.658 94.3447 207.729 94.4025 207.801 94.4624C208.758 95.2433 209.64 96.1121 210.436 97.0573C210.499 97.1292 210.561 97.2031 210.621 97.277C212.525 99.6065 213.918 102.31 214.711 105.212C215.037 106.395 215.265 107.603 215.394 108.824C215.575 110.526 215.631 112.404 216.363 113.826C216.437 113.975 216.521 114.119 216.616 114.256L225.595 114.711C225.617 114.702 225.639 114.695 225.662 114.686L226.017 114.72C226.015 114.656 226.011 114.589 226.009 114.524C226.008 114.487 226.005 114.449 226.004 114.411C226.003 114.386 226.001 114.361 226.001 114.338C226.001 114.33 226 114.322 226 114.315C226 114.293 225.998 114.272 225.997 114.251C225.978 113.877 225.956 113.503 225.931 113.129C225.931 113.127 225.931 113.127 225.929 113.125C225.775 110.313 225.265 107.532 224.41 104.848C224.384 104.77 224.358 104.689 224.327 104.611C223.928 103.448 223.424 102.324 222.82 101.253C222.49 100.673 222.127 100.113 221.732 99.5755C220.711 98.1906 219.447 97.002 218.002 96.0671C216.527 95.0847 214.867 94.414 213.124 94.096C211.38 93.778 209.591 93.8194 207.864 94.2178C207.771 94.2401 207.679 94.2626 207.586 94.287Z" fill="#F2F2F2"/>
<path d="M207.582 94.403C211.791 95.4611 215.482 97.9922 217.985 101.537C218.535 102.292 218.946 103.139 219.199 104.037C219.42 104.972 219.384 105.948 219.095 106.864C218.841 107.754 218.481 108.649 218.444 109.555C218.424 109.998 218.509 110.44 218.692 110.844C218.876 111.248 219.152 111.603 219.498 111.88C220.333 112.573 221.414 112.89 222.488 113.162C223.68 113.463 224.925 113.757 225.81 114.588C225.917 114.689 226.093 114.495 225.986 114.394C224.448 112.949 221.985 113.111 220.202 112.055C219.37 111.563 218.72 110.796 218.69 109.751C218.664 108.837 219.035 107.913 219.299 107.013C219.593 106.119 219.664 105.167 219.505 104.239C219.303 103.326 218.928 102.46 218.401 101.688C217.258 99.9539 215.81 98.441 214.129 97.2223C212.182 95.7999 209.983 94.7608 207.648 94.1603C207.501 94.1221 207.436 94.365 207.582 94.403Z" fill="white"/>
<path d="M217.266 100.349C218.513 99.1696 218.826 97.3523 218.002 96.1049C217.921 95.982 217.705 96.1291 217.786 96.2521C218.557 97.4208 218.259 99.0972 217.093 100.2C216.97 100.316 217.144 100.465 217.266 100.349Z" fill="white"/>
<path d="M219.281 106.42C218.524 106.478 217.763 106.381 217.044 106.135C216.325 105.889 215.664 105.5 215.101 104.991C214.993 104.891 214.817 105.085 214.924 105.185C215.512 105.713 216.201 106.117 216.949 106.371C217.698 106.625 218.49 106.724 219.278 106.663C219.437 106.654 219.439 106.411 219.281 106.42Z" fill="white"/>
<path d="M212.111 96.1348C211.922 96.3979 211.678 96.6162 211.395 96.774C211.112 96.9319 210.798 97.0254 210.475 97.048C210.317 97.0555 210.315 97.2981 210.473 97.2906C210.83 97.2642 211.176 97.1605 211.489 96.9867C211.802 96.8129 212.073 96.5731 212.284 96.2841C212.307 96.2613 212.319 96.2307 212.32 96.1987C212.32 96.1667 212.308 96.1358 212.286 96.1125C212.259 96.0932 212.227 96.0848 212.194 96.0889C212.162 96.0931 212.132 96.1095 212.111 96.1348Z" fill="white"/>
<path d="M15.3529 71.043H13.707V71.5916H15.3529V71.043Z" fill="#E6E6E6"/>
<path d="M222.497 71.5916H219.156V71.043H222.497V71.5916ZM215.815 71.5916H212.474V71.043H215.815V71.5916ZM209.133 71.5916H205.792V71.043H209.133V71.5916ZM202.451 71.5916H199.11V71.043H202.451V71.5916ZM195.768 71.5916H192.428V71.043H195.768V71.5916ZM189.086 71.5916H185.745V71.043H189.086V71.5916ZM182.404 71.5916H179.063V71.043H182.404V71.5916ZM175.722 71.5916H172.381V71.043H175.722L175.722 71.5916ZM169.04 71.5916H165.699V71.043H169.04V71.5916ZM162.358 71.5916H159.017V71.043H162.358V71.5916ZM155.676 71.5916H152.335V71.043H155.676V71.5916ZM148.994 71.5916H145.652V71.043H148.994V71.5916ZM142.311 71.5916H138.97V71.043H142.311V71.5916ZM135.629 71.5916H132.288V71.043H135.629V71.5916ZM128.947 71.5916H125.606V71.043H128.947V71.5916ZM122.265 71.5916H118.924V71.043H122.265V71.5916ZM115.583 71.5916H112.242V71.043H115.583V71.5916ZM108.901 71.5916H105.559V71.043H108.901V71.5916ZM102.218 71.5916H98.8773V71.043H102.218V71.5916ZM95.5363 71.5916H92.1952V71.043H95.5363V71.5916ZM88.8541 71.5916H85.513V71.043H88.8541V71.5916ZM82.1719 71.5916H78.8309V71.043H82.1719V71.5916ZM75.4898 71.5916H72.1487V71.043H75.4898V71.5916ZM68.8076 71.5916H65.4665V71.043H68.8076L68.8076 71.5916ZM62.1254 71.5916H58.7844V71.043H62.1254V71.5916ZM55.4433 71.5916H52.1022V71.043H55.4433V71.5916ZM48.7611 71.5916H45.42V71.043H48.7611V71.5916ZM42.079 71.5916H38.7379V71.043H42.079V71.5916ZM35.3968 71.5916H32.0557V71.043H35.3968V71.5916ZM28.7146 71.5916H25.3736V71.043H28.7146V71.5916ZM22.0325 71.5916H18.6914V71.043H22.0325V71.5916Z" fill="#E6E6E6"/>
<path d="M227.486 71.043H225.84V71.5916H227.486V71.043Z" fill="#E6E6E6"/>
<path d="M15.3529 67.2031H13.707V67.7518H15.3529V67.2031Z" fill="#E6E6E6"/>
<path d="M222.497 67.7518H219.156V67.2031H222.497V67.7518ZM215.815 67.7518H212.474V67.2031H215.815V67.7518ZM209.133 67.7518H205.792V67.2031H209.133V67.7518ZM202.451 67.7518H199.11V67.2031H202.451V67.7518ZM195.768 67.7518H192.428V67.2031H195.768V67.7518ZM189.086 67.7518H185.745V67.2031H189.086V67.7518ZM182.404 67.7518H179.063V67.2031H182.404V67.7518ZM175.722 67.7518H172.381V67.2031H175.722L175.722 67.7518ZM169.04 67.7518H165.699V67.2031H169.04V67.7518ZM162.358 67.7518H159.017V67.2031H162.358V67.7518ZM155.676 67.7518H152.335V67.2031H155.676V67.7518ZM148.994 67.7518H145.652V67.2031H148.994V67.7518ZM142.311 67.7518H138.97V67.2031H142.311V67.7518ZM135.629 67.7518H132.288V67.2031H135.629V67.7518ZM128.947 67.7518H125.606V67.2031H128.947V67.7518ZM122.265 67.7518H118.924V67.2031H122.265V67.7518ZM115.583 67.7518H112.242V67.2031H115.583V67.7518ZM108.901 67.7518H105.559V67.2031H108.901V67.7518ZM102.218 67.7518H98.8773V67.2031H102.218V67.7518ZM95.5363 67.7518H92.1952V67.2031H95.5363V67.7518ZM88.8541 67.7518H85.513V67.2031H88.8541V67.7518ZM82.1719 67.7518H78.8309V67.2031H82.1719V67.7518ZM75.4898 67.7518H72.1487V67.2031H75.4898V67.7518ZM68.8076 67.7518H65.4665V67.2031H68.8076L68.8076 67.7518ZM62.1254 67.7518H58.7844V67.2031H62.1254V67.7518ZM55.4433 67.7518H52.1022V67.2031H55.4433V67.7518ZM48.7611 67.7518H45.42V67.2031H48.7611V67.7518ZM42.079 67.7518H38.7379V67.2031H42.079V67.7518ZM35.3968 67.7518H32.0557V67.2031H35.3968V67.7518ZM28.7146 67.7518H25.3736V67.2031H28.7146V67.7518ZM22.0325 67.7518H18.6914V67.2031H22.0325V67.7518Z" fill="#E6E6E6"/>
<path d="M227.486 67.2031H225.84V67.7518H227.486V67.2031Z" fill="#E6E6E6"/>
<path d="M15.3529 59.248H13.707V59.7967H15.3529V59.248Z" fill="#E6E6E6"/>
<path d="M222.497 59.7967H219.156V59.248H222.497V59.7967ZM215.815 59.7967H212.474V59.248H215.815V59.7967ZM209.133 59.7967H205.792V59.248H209.133V59.7967ZM202.451 59.7967H199.11V59.248H202.451V59.7967ZM195.768 59.7967H192.428V59.248H195.768V59.7967ZM189.086 59.7967H185.745V59.248H189.086V59.7967ZM182.404 59.7967H179.063V59.248H182.404V59.7967ZM175.722 59.7967H172.381V59.248H175.722L175.722 59.7967ZM169.04 59.7967H165.699V59.248H169.04V59.7967ZM162.358 59.7967H159.017V59.248H162.358V59.7967ZM155.676 59.7967H152.335V59.248H155.676V59.7967ZM148.994 59.7967H145.652V59.248H148.994V59.7967ZM142.311 59.7967H138.97V59.248H142.311V59.7967ZM135.629 59.7967H132.288V59.248H135.629V59.7967ZM128.947 59.7967H125.606V59.248H128.947V59.7967ZM122.265 59.7967H118.924V59.248H122.265V59.7967ZM115.583 59.7967H112.242V59.248H115.583V59.7967ZM108.901 59.7967H105.559V59.248H108.901V59.7967ZM102.218 59.7967H98.8773V59.248H102.218V59.7967ZM95.5363 59.7967H92.1952V59.248H95.5363V59.7967ZM88.8541 59.7967H85.513V59.248H88.8541V59.7967ZM82.1719 59.7967H78.8309V59.248H82.1719V59.7967ZM75.4898 59.7967H72.1487V59.248H75.4898V59.7967ZM68.8076 59.7967H65.4665V59.248H68.8076L68.8076 59.7967ZM62.1254 59.7967H58.7844V59.248H62.1254V59.7967ZM55.4433 59.7967H52.1022V59.248H55.4433V59.7967ZM48.7611 59.7967H45.42V59.248H48.7611V59.7967ZM42.079 59.7967H38.7379V59.248H42.079V59.7967ZM35.3968 59.7967H32.0557V59.248H35.3968V59.7967ZM28.7146 59.7967H25.3736V59.248H28.7146V59.7967ZM22.0325 59.7967H18.6914V59.248H22.0325V59.7967Z" fill="#E6E6E6"/>
<path d="M227.486 59.248H225.84V59.7967H227.486V59.248Z" fill="#E6E6E6"/>
<path d="M15.3529 53.7617H13.707V54.3104H15.3529V53.7617Z" fill="#E6E6E6"/>
<path d="M222.497 54.3104H219.156V53.7617H222.497V54.3104ZM215.815 54.3104H212.474V53.7617H215.815V54.3104ZM209.133 54.3104H205.792V53.7617H209.133V54.3104ZM202.451 54.3104H199.11V53.7617H202.451V54.3104ZM195.768 54.3104H192.428V53.7617H195.768V54.3104ZM189.086 54.3104H185.745V53.7617H189.086V54.3104ZM182.404 54.3104H179.063V53.7617H182.404V54.3104ZM175.722 54.3104H172.381V53.7617H175.722L175.722 54.3104ZM169.04 54.3104H165.699V53.7617H169.04V54.3104ZM162.358 54.3104H159.017V53.7617H162.358V54.3104ZM155.676 54.3104H152.335V53.7617H155.676V54.3104ZM148.994 54.3104H145.652V53.7617H148.994V54.3104ZM142.311 54.3104H138.97V53.7617H142.311V54.3104ZM135.629 54.3104H132.288V53.7617H135.629V54.3104ZM128.947 54.3104H125.606V53.7617H128.947V54.3104ZM122.265 54.3104H118.924V53.7617H122.265V54.3104ZM115.583 54.3104H112.242V53.7617H115.583V54.3104ZM108.901 54.3104H105.559V53.7617H108.901V54.3104ZM102.218 54.3104H98.8773V53.7617H102.218V54.3104ZM95.5363 54.3104H92.1952V53.7617H95.5363V54.3104ZM88.8541 54.3104H85.513V53.7617H88.8541V54.3104ZM82.1719 54.3104H78.8309V53.7617H82.1719V54.3104ZM75.4898 54.3104H72.1487V53.7617H75.4898V54.3104ZM68.8076 54.3104H65.4665V53.7617H68.8076L68.8076 54.3104ZM62.1254 54.3104H58.7844V53.7617H62.1254V54.3104ZM55.4433 54.3104H52.1022V53.7617H55.4433V54.3104ZM48.7611 54.3104H45.42V53.7617H48.7611V54.3104ZM42.079 54.3104H38.7379V53.7617H42.079V54.3104ZM35.3968 54.3104H32.0557V53.7617H35.3968V54.3104ZM28.7146 54.3104H25.3736V53.7617H28.7146V54.3104ZM22.0325 54.3104H18.6914V53.7617H22.0325V54.3104Z" fill="#E6E6E6"/>
<path d="M227.486 53.7617H225.84V54.3104H227.486V53.7617Z" fill="#E6E6E6"/>
<path d="M15.3529 41.9668H13.707V42.5154H15.3529V41.9668Z" fill="#E6E6E6"/>
<path d="M222.497 42.5154H219.156V41.9668H222.497V42.5154ZM215.815 42.5154H212.474V41.9668H215.815V42.5154ZM209.133 42.5154H205.792V41.9668H209.133V42.5154ZM202.451 42.5154H199.11V41.9668H202.451V42.5154ZM195.768 42.5154H192.428V41.9668H195.768V42.5154ZM189.086 42.5154H185.745V41.9668H189.086V42.5154ZM182.404 42.5154H179.063V41.9668H182.404V42.5154ZM175.722 42.5154H172.381V41.9668H175.722L175.722 42.5154ZM169.04 42.5154H165.699V41.9668H169.04V42.5154ZM162.358 42.5154H159.017V41.9668H162.358V42.5154ZM155.676 42.5154H152.335V41.9668H155.676V42.5154ZM148.994 42.5154H145.652V41.9668H148.994V42.5154ZM142.311 42.5154H138.97V41.9668H142.311V42.5154ZM135.629 42.5154H132.288V41.9668H135.629V42.5154ZM128.947 42.5154H125.606V41.9668H128.947V42.5154ZM122.265 42.5154H118.924V41.9668H122.265V42.5154ZM115.583 42.5154H112.242V41.9668H115.583V42.5154ZM108.901 42.5154H105.559V41.9668H108.901V42.5154ZM102.218 42.5154H98.8773V41.9668H102.218V42.5154ZM95.5363 42.5154H92.1952V41.9668H95.5363V42.5154ZM88.8541 42.5154H85.513V41.9668H88.8541V42.5154ZM82.1719 42.5154H78.8309V41.9668H82.1719V42.5154ZM75.4898 42.5154H72.1487V41.9668H75.4898V42.5154ZM68.8076 42.5154H65.4665V41.9668H68.8076L68.8076 42.5154ZM62.1254 42.5154H58.7844V41.9668H62.1254V42.5154ZM55.4433 42.5154H52.1022V41.9668H55.4433V42.5154ZM48.7611 42.5154H45.42V41.9668H48.7611V42.5154ZM42.079 42.5154H38.7379V41.9668H42.079V42.5154ZM35.3968 42.5154H32.0557V41.9668H35.3968V42.5154ZM28.7146 42.5154H25.3736V41.9668H28.7146V42.5154ZM22.0325 42.5154H18.6914V41.9668H22.0325V42.5154Z" fill="#E6E6E6"/>
<path d="M227.486 41.9668H225.84V42.5154H227.486V41.9668Z" fill="#E6E6E6"/>
<path d="M93.4037 26.1141C93.4037 29.0674 92.528 31.9545 90.8872 34.4101C89.2464 36.8657 86.9143 38.7796 84.1858 39.9098C81.4572 41.04 78.4548 41.3357 75.5582 40.7595C72.6617 40.1834 70.001 38.7612 67.9127 36.6729C65.8243 34.5845 64.4022 31.9239 63.826 29.0273C63.2498 26.1307 63.5455 23.1283 64.6757 20.3998C65.8059 17.6712 67.7198 15.3391 70.1754 13.6983C72.6311 12.0575 75.5181 11.1818 78.4714 11.1818C80.4348 11.1731 82.3805 11.5533 84.1961 12.3006C86.0117 13.048 87.6613 14.1475 89.0496 15.5359C90.438 16.9242 91.5375 18.5738 92.2849 20.3894C93.0322 22.2051 93.4125 24.1507 93.4037 26.1141Z" fill="#F2F2F2"/>
<path d="M84.5752 22.5408L84.5013 22.674C85.1589 21.0532 84.5609 19.0561 83.3878 17.834C82.2146 16.6119 80.5837 16.0532 78.9778 15.8315C77.7858 15.6213 76.56 15.7165 75.4147 16.1084C73.7732 16.7408 72.519 18.2047 71.4719 19.7275C70.993 20.424 70.522 21.2181 70.5697 22.0887C70.614 22.8966 71.0936 23.5822 71.4863 24.2676C71.8791 24.953 72.207 25.8034 71.9252 26.5516C71.7572 26.9974 71.4022 27.3184 71.1142 27.6831C70.8262 28.0478 70.5892 28.5408 70.7284 28.9983C70.7901 29.1734 70.8963 29.3294 71.0364 29.4512C71.1765 29.573 71.3458 29.6563 71.5278 29.6931C71.8802 29.7519 72.2406 29.7434 72.5899 29.6679L81.7435 28.285C82.3655 28.191 82.9556 27.948 83.4633 27.5767C83.9711 27.2053 84.3816 26.7167 84.6598 26.1525C84.9379 25.5883 85.0755 24.9652 85.0607 24.3363C85.046 23.7074 84.8794 23.0914 84.5752 22.5408Z" fill="#2F2E41"/>
<path d="M77.7684 28.2223C80.24 28.2223 82.2437 26.2186 82.2437 23.7469C82.2437 21.2752 80.24 19.2715 77.7684 19.2715C75.2967 19.2715 73.293 21.2752 73.293 23.7469C73.293 26.2186 75.2967 28.2223 77.7684 28.2223Z" fill="#FFB9B9"/>
<path d="M89.6804 35.9738C87.0934 38.9174 83.4526 40.7256 79.544 41.0081C75.6354 41.2906 71.7724 40.0247 68.7891 37.4836L70.0698 33.9098C70.3593 33.2751 70.816 32.7311 71.3911 32.3362C71.9662 31.9412 72.638 31.7103 73.3343 31.6681L74.1491 31.6181L76.092 29.9425C76.092 29.9425 81.327 29.7555 81.2493 29.666L84.4204 31.5734L84.4177 31.5602L85.6643 31.6365C86.3607 31.6785 87.0325 31.9094 87.6076 32.3043C88.1828 32.6993 88.6395 33.2434 88.9288 33.8782L89.6804 35.9738Z" fill="#0B57D0"/>
<path d="M82.0116 19.5923C81.896 18.9811 81.2727 18.7016 80.7386 18.5662C79.1896 18.1709 77.5782 18.0824 75.9951 18.3057C74.8411 18.4702 73.6597 18.8331 72.8224 19.7339C72.1472 20.4923 71.7647 21.4667 71.7434 22.482C71.7093 23.089 71.8449 23.6935 72.1351 24.2278C72.2649 24.4765 72.4572 24.6872 72.693 24.8392C72.9288 24.9912 73.2001 25.0793 73.4803 25.0947L73.534 25.2815C74.6924 25.0948 75.7969 24.6601 76.7719 24.0071C77.7468 23.354 78.5691 22.4981 79.1827 21.4979C78.9359 22.3788 78.445 23.172 77.7665 23.7856C79.2835 23.1787 80.6021 22.1624 81.5755 20.85C81.8414 20.4972 82.0994 20.0573 82.0116 19.5923Z" fill="#2F2E41"/>
<path d="M205.717 45.7787C213.964 45.7787 220.65 39.0933 220.65 30.8464C220.65 22.5995 213.964 15.9141 205.717 15.9141C197.471 15.9141 190.785 22.5995 190.785 30.8464C190.785 39.0933 197.471 45.7787 205.717 45.7787Z" fill="#F2F2F2"/>
<path d="M201.62 25.2437C202.784 25.2437 203.728 24.2999 203.728 23.1355C203.728 21.9712 202.784 21.0273 201.62 21.0273C200.456 21.0273 199.512 21.9712 199.512 23.1355C199.512 24.2999 200.456 25.2437 201.62 25.2437Z" fill="#2F2E41"/>
<path d="M204.993 33.2557C207.943 33.2557 210.334 30.8646 210.334 27.915C210.334 24.9654 207.943 22.5742 204.993 22.5742C202.043 22.5742 199.652 24.9654 199.652 27.915C199.652 30.8646 202.043 33.2557 204.993 33.2557Z" fill="#2F2E41"/>
<path d="M205.434 33.2542C207.831 33.2542 209.774 31.3111 209.774 28.9142C209.774 26.5173 207.831 24.5742 205.434 24.5742C203.037 24.5742 201.094 26.5173 201.094 28.9142C201.094 31.3111 203.037 33.2542 205.434 33.2542Z" fill="#9E616A"/>
<path d="M208.379 24.4903C207.619 24.0266 206.748 23.7758 205.857 23.7641C204.967 23.7524 204.089 23.9801 203.317 24.4235C202.544 24.8669 201.905 25.5097 201.466 26.2847C201.027 27.0597 200.804 27.9384 200.821 28.8289C203.033 29.3841 205.356 29.809 207.714 28.9617L208.271 27.5986L208.6 28.9627C209.318 29.2563 210.038 29.5046 210.758 28.9599C210.787 28.0719 210.583 27.1917 210.166 26.4074C209.748 25.623 209.132 24.9619 208.379 24.4903Z" fill="#2F2E41"/>
<path d="M199.655 17.4126C198.915 17.0966 198.101 16.9942 197.306 17.1167C196.511 17.2392 195.765 17.5819 195.154 18.1059C194.557 18.6449 194.102 19.3233 193.831 20.0806C193.559 20.8379 193.479 21.6507 193.598 22.4464C193.837 24.0649 194.821 25.4587 195.728 26.8203C196.635 28.182 197.521 29.674 197.52 31.3101C197.519 32.4885 197.051 33.6184 196.219 34.4523C195.386 35.2861 194.256 35.7556 193.078 35.758C194.461 36.3534 195.905 36.9604 197.409 36.8898C198.913 36.8193 200.489 35.8523 200.735 34.3667C200.911 33.2963 200.386 32.2525 199.948 31.2599C199.235 29.6425 198.719 27.9449 198.412 26.204C198.266 25.3731 198.171 24.4996 198.442 23.7006C198.657 23.1085 199.058 22.6014 199.583 22.254C200.109 21.9067 200.733 21.7375 201.362 21.7714L201.859 21.3243C201.944 20.5241 201.778 19.7172 201.383 19.0161C200.988 18.315 200.384 17.7544 199.655 17.4126Z" fill="#2F2E41"/>
<path d="M216.954 40.8371C214.367 43.7807 210.726 45.5889 206.817 45.8714C202.909 46.1538 199.046 44.8879 196.062 42.3469L197.343 38.7731C197.633 38.1384 198.089 37.5944 198.665 37.1994C199.24 36.8045 199.911 36.5736 200.608 36.5314L201.423 36.4814L203.365 34.8057C203.365 34.8057 208.6 34.6188 208.523 34.5293L211.694 36.4366L211.691 36.4235L212.938 36.4998C213.634 36.5418 214.306 36.7727 214.881 37.1676C215.456 37.5625 215.913 38.1066 216.202 38.7415L216.954 40.8371Z" fill="#0B57D0"/>
<path d="M178.165 14.9588C178.16 17.9121 177.279 20.7976 175.634 23.2503C173.989 25.703 171.654 27.6128 168.923 28.7381C166.192 29.8635 163.19 30.1538 160.294 29.5725C157.398 28.9912 154.74 27.5644 152.656 25.4723C150.571 23.3803 149.154 20.7171 148.583 17.8195C148.012 14.9219 148.313 11.92 149.448 9.19352C150.583 6.46701 152.501 4.13829 154.959 2.50186C157.418 0.865434 160.306 -0.0052129 163.26 2.34819e-05C165.222 -0.00159027 167.165 0.384617 168.978 1.13645C170.791 1.88828 172.437 2.99091 173.822 4.38098C175.207 5.77105 176.304 7.42114 177.049 9.23644C177.795 11.0517 178.174 12.9964 178.165 14.9588Z" fill="#F2F2F2"/>
<path d="M156.315 10.0741C156.932 8.10631 158.336 6.30153 160.278 5.63632C162.22 4.9711 165.063 5.98445 166.523 7.43941C169.194 10.1008 169.846 19.2438 168.011 22.1331C167.646 22.1137 166.387 22.0995 166.017 22.0856L165.495 20.3442V22.0685C164.906 22.0503 164.313 22.0377 163.716 22.0308C161.712 22.0059 159.796 21.2052 158.37 19.7969C156.945 18.3886 156.121 16.4824 156.071 14.4791C156.023 12.5626 156.071 10.8495 156.315 10.0741Z" fill="#2F2E41"/>
<path d="M163.013 16.5972C165.364 16.5972 167.269 14.6919 167.269 12.3415C167.269 9.99124 165.364 8.08594 163.013 8.08594C160.663 8.08594 158.758 9.99124 158.758 12.3415C158.758 14.6919 160.663 16.5972 163.013 16.5972Z" fill="#9E616A"/>
<path d="M159.34 8.60391L164.24 6.15039C165.242 6.6018 166.104 7.313 166.739 8.21022C167.373 9.10744 167.756 10.158 167.847 11.253L167.969 12.7159L165.917 12.1936L165.692 10.323L165.344 12.0477L164.397 11.8068L164.406 8.9026L163.459 11.8047L160.077 11.0277L159.34 8.60391Z" fill="#2F2E41"/>
<path d="M174.313 24.8137C171.726 27.7573 168.085 29.5655 164.177 29.8479C160.268 30.1304 156.405 28.8645 153.422 26.3235L154.703 22.7497C154.992 22.1149 155.449 21.5709 156.024 21.176C156.599 20.7811 157.271 20.5502 157.967 20.508L158.782 20.458L160.725 18.7823C160.725 18.7823 165.96 18.5954 165.882 18.5059L169.053 20.4132L169.051 20.4L170.297 20.4764C170.993 20.5184 171.665 20.7492 172.24 21.1442C172.816 21.5391 173.272 22.0832 173.562 22.7181L174.313 24.8137Z" fill="#0B57D0"/>
<path d="M122.182 54.0092C130.429 54.0092 137.115 47.3238 137.115 39.0769C137.115 30.83 130.429 24.1445 122.182 24.1445C113.935 24.1445 107.25 30.83 107.25 39.0769C107.25 47.3238 113.935 54.0092 122.182 54.0092Z" fill="#F2F2F2"/>
<path d="M121.77 40.9257C124.403 40.9257 126.537 38.7916 126.537 36.1591C126.537 33.5266 124.403 31.3926 121.77 31.3926C119.138 31.3926 117.004 33.5266 117.004 36.1591C117.004 38.7916 119.138 40.9257 121.77 40.9257Z" fill="#A0616A" fill-opacity="0.74"/>
<path d="M133.387 49.0676C130.8 52.0112 127.16 53.8194 123.251 54.1018C119.342 54.3843 115.479 53.1184 112.496 50.5774L113.777 47.0036C114.066 46.3688 114.523 45.8248 115.098 45.4299C115.673 45.035 116.345 44.8041 117.041 44.7619L117.856 44.7119L119.799 43.0362C119.799 43.0362 125.034 42.8493 124.956 42.7598L128.127 44.6671L128.125 44.6539L129.371 44.7303C130.068 44.7723 130.74 45.0031 131.315 45.3981C131.89 45.793 132.346 46.3371 132.636 46.972L133.387 49.0676Z" fill="#0B57D0"/>
<path d="M126.797 33.2031C126.394 31.7614 125.479 30.5163 124.223 29.7015C123.223 29.0614 121.974 28.7347 120.84 29.0731C119.707 29.4116 118.768 30.5242 118.842 31.7264C118.632 31.6712 118.411 31.6759 118.203 31.7399C117.996 31.804 117.81 31.9249 117.668 32.0889C117.384 32.4247 117.186 32.8251 117.092 33.2551C116.728 34.6029 116.752 36.026 117.162 37.3607L117.139 37.5522C117.692 37.4607 118.112 36.9862 118.373 36.4806C118.634 35.9749 118.784 35.414 119.066 34.9207C119.349 34.4275 119.819 33.9875 120.379 33.9721L120.33 34.8283C120.811 34.58 121.293 34.3317 121.775 34.0834C121.661 34.3576 121.546 34.6318 121.431 34.906C121.852 34.7301 122.273 34.5542 122.694 34.3783C122.647 34.642 122.6 34.9057 122.553 35.1693C122.663 34.9404 122.819 34.7363 123.01 34.5693C123.202 34.4023 123.425 34.2759 123.667 34.1978C123.909 34.1196 124.164 34.0913 124.417 34.1146C124.67 34.1378 124.916 34.2122 125.139 34.3331C125.642 34.6718 126.005 35.1821 126.16 35.7687C126.312 36.354 126.394 36.9556 126.404 37.5604C127.054 36.2024 127.194 34.6556 126.797 33.2031Z" fill="#2F2E41"/>
<path d="M35.737 60.7983C43.9839 60.7983 50.6693 54.1128 50.6693 45.8659C50.6693 37.619 43.9839 30.9336 35.737 30.9336C27.4901 30.9336 20.8047 37.619 20.8047 45.8659C20.8047 54.1128 27.4901 60.7983 35.737 60.7983Z" fill="#F2F2F2"/>
<path d="M35.4051 47.4137C37.907 47.4137 39.9352 45.3855 39.9352 42.8836C39.9352 40.3817 37.907 38.3535 35.4051 38.3535C32.9032 38.3535 30.875 40.3817 30.875 42.8836C30.875 45.3855 32.9032 47.4137 35.4051 47.4137Z" fill="#FFB6B6"/>
<path d="M46.7468 55.7238C44.1598 58.6674 40.519 60.4756 36.6104 60.7581C32.7018 61.0406 28.8388 59.7747 25.8555 57.2336L27.1363 53.6598C27.4257 53.0251 27.8825 52.4811 28.4575 52.0862C29.0326 51.6912 29.7044 51.4603 30.4007 51.4181L31.2155 51.3681L33.1584 49.6925C33.1584 49.6925 38.3934 49.5055 38.3158 49.416L41.4868 51.3234L41.4841 51.3102L42.7307 51.3865C43.4271 51.4285 44.0989 51.6594 44.674 52.0543C45.2492 52.4493 45.7059 52.9934 45.9952 53.6282L46.7468 55.7238Z" fill="#0B57D0"/>
<path d="M31.2898 44.979C31.2809 44.9542 31.2728 44.9291 31.264 44.9043C31.2466 44.9197 31.2298 44.9355 31.2109 44.9499L31.2898 44.979Z" fill="#2F2E41"/>
<path d="M40.8329 41.2715C40.8097 40.8118 40.6893 40.3623 40.4797 39.9526C40.27 39.5428 39.9759 39.1822 39.6168 38.8944C39.331 38.7158 39.079 38.488 38.8726 38.2216C38.7729 38.018 38.6884 37.8072 38.6198 37.5912C38.272 36.7634 37.2809 36.3235 36.3919 36.4488C35.9498 36.5328 35.5291 36.7051 35.1552 36.9554C34.7812 37.2056 34.4615 37.5287 34.2152 37.9054C33.9599 37.783 33.6748 37.7364 33.3938 37.771C33.1128 37.8057 32.8476 37.9201 32.6296 38.1008C32.4116 38.2815 32.2499 38.5208 32.1638 38.7905C32.0776 39.0603 32.0705 39.349 32.1434 39.6226C31.683 39.2517 30.9383 39.5484 30.6509 40.065C30.3635 40.5817 30.4091 41.2139 30.4945 41.7989C30.6493 42.8561 30.9072 43.8957 31.2644 44.9028C31.7127 44.508 31.6851 43.7892 31.6304 43.1815C31.5734 42.5501 31.6075 41.7793 32.1596 41.4678C32.693 41.1668 33.3404 41.4972 33.9285 41.6681C34.3935 41.7998 34.8815 41.8291 35.3589 41.754C35.8363 41.679 36.2917 41.5012 36.6938 41.2332C36.9832 41.0029 37.2869 40.7913 37.6032 40.5997C37.7629 40.5054 37.9443 40.4541 38.1297 40.4508C38.3151 40.4475 38.4982 40.4923 38.6611 40.5808C38.9191 40.8031 39.0923 41.1076 39.1517 41.4429C39.3781 42.2108 39.6045 42.9786 39.831 43.7465C40.1634 43.4282 40.4246 43.043 40.5973 42.6164C40.77 42.1898 40.8503 41.7314 40.8329 41.2715Z" fill="#9E616A"/>
<path d="M35.7848 72.2891H34.3594V114.068H35.7848V72.2891Z" fill="#3F3D56"/>
<path d="M78.4605 52.7773H77.0352V114.069H78.4605V52.7773Z" fill="#3F3D56"/>
<path d="M121.222 65.6055H119.797V114.069H121.222V65.6055Z" fill="#3F3D56"/>
<path d="M163.984 42.0859H162.559V114.068H163.984V42.0859Z" fill="#3F3D56"/>
<path d="M206.746 58.4785H205.32V114.069H206.746V58.4785Z" fill="#3F3D56"/>
<path d="M77.8332 58.1194C80.2414 58.1194 82.1936 56.1672 82.1936 53.7589C82.1936 51.3507 80.2414 49.3984 77.8332 49.3984C75.4249 49.3984 73.4727 51.3507 73.4727 53.7589C73.4727 56.1672 75.4249 58.1194 77.8332 58.1194Z" fill="#0B57D0"/>
<path d="M163.357 46.7171C165.765 46.7171 167.717 44.7648 167.717 42.3566C167.717 39.9484 165.765 37.9961 163.357 37.9961C160.948 37.9961 158.996 39.9484 158.996 42.3566C158.996 44.7648 160.948 46.7171 163.357 46.7171Z" fill="#0B57D0"/>
<path d="M120.595 70.2366C123.003 70.2366 124.955 68.2844 124.955 65.8761C124.955 63.4679 123.003 61.5156 120.595 61.5156C118.187 61.5156 116.234 63.4679 116.234 65.8761C116.234 68.2844 118.187 70.2366 120.595 70.2366Z" fill="#0B57D0"/>
<path d="M35.0714 76.6507C37.4797 76.6507 39.4319 74.6984 39.4319 72.2902C39.4319 69.8819 37.4797 67.9297 35.0714 67.9297C32.6632 67.9297 30.7109 69.8819 30.7109 72.2902C30.7109 74.6984 32.6632 76.6507 35.0714 76.6507Z" fill="#0B57D0"/>
<path d="M206.118 62.3968C208.527 62.3968 210.479 60.4445 210.479 58.0363C210.479 55.628 208.527 53.6758 206.118 53.6758C203.71 53.6758 201.758 55.628 201.758 58.0363C201.758 60.4445 203.71 62.3968 206.118 62.3968Z" fill="#0B57D0"/>
<path d="M236.706 113.639H5.2113L3.75781 114.365C3.75782 114.558 3.83439 114.743 3.97068 114.879C4.10697 115.016 4.29182 115.092 4.48456 115.092H236.706C236.899 115.092 237.084 115.016 237.22 114.879C237.357 114.743 237.433 114.558 237.433 114.365C237.433 114.173 237.357 113.988 237.22 113.852C237.084 113.715 236.899 113.639 236.706 113.639Z" fill="#3F3D56"/>
<path d="M4.36049 118.381C6.76873 118.381 8.72098 116.429 8.72098 114.021C8.72098 111.612 6.76873 109.66 4.36049 109.66C1.95226 109.66 0 111.612 0 114.021C0 116.429 1.95226 118.381 4.36049 118.381Z" fill="#3F3D56"/>
<path d="M35.0831 131C37.4914 131 39.4436 129.048 39.4436 126.64C39.4436 124.232 37.4914 122.279 35.0831 122.279C32.6749 122.279 30.7227 124.232 30.7227 126.64C30.7227 129.048 32.6749 131 35.0831 131Z" fill="#B8B6AE"/>
<path d="M77.8761 131C80.2844 131 82.2366 129.048 82.2366 126.64C82.2366 124.232 80.2844 122.279 77.8761 122.279C75.4679 122.279 73.5156 124.232 73.5156 126.64C73.5156 129.048 75.4679 131 77.8761 131Z" fill="#B8B6AE"/>
<path d="M120.673 131C123.081 131 125.033 129.048 125.033 126.64C125.033 124.232 123.081 122.279 120.673 122.279C118.265 122.279 116.312 124.232 116.312 126.64C116.312 129.048 118.265 131 120.673 131Z" fill="#B8B6AE"/>
<path d="M163.189 131C165.597 131 167.549 129.048 167.549 126.64C167.549 124.232 165.597 122.279 163.189 122.279C160.78 122.279 158.828 124.232 158.828 126.64C158.828 129.048 160.78 131 163.189 131Z" fill="#B8B6AE"/>
<path d="M205.985 131C208.394 131 210.346 129.048 210.346 126.64C210.346 124.232 208.394 122.279 205.985 122.279C203.577 122.279 201.625 124.232 201.625 126.64C201.625 129.048 203.577 131 205.985 131Z" fill="#B8B6AE"/>
<path d="M238.079 118.381C240.487 118.381 242.44 116.429 242.44 114.021C242.44 111.612 240.487 109.66 238.079 109.66C235.671 109.66 233.719 111.612 233.719 114.021C233.719 116.429 235.671 118.381 238.079 118.381Z" fill="#3F3D56"/>
</g>
<defs>
<clipPath id="clip0_273_2994">
<rect width="242.44" height="131" fill="white"/>
</clipPath>
</defs>
</svg>
