<svg width="173" height="131" viewBox="0 0 173 131" fill="none" xmlns="http://www.w3.org/2000/svg">
<g clip-path="url(#clip0_202_3681)">
<path d="M104.334 39.4757C104.548 39.4855 104.76 39.4293 104.941 39.3147C105.123 39.2001 105.264 39.0325 105.347 38.8348C105.429 38.6371 105.449 38.4188 105.404 38.2094C105.358 38 105.249 37.8096 105.092 37.6642C105.066 37.5594 105.047 37.4842 105.02 37.3794C105.03 37.3566 105.039 37.3339 105.049 37.3111C106.011 35.0167 109.272 35.0325 110.226 37.3303C111.073 39.3698 112.151 41.4127 112.416 43.5691C112.533 44.5223 112.484 45.4885 112.271 46.4248C114.26 42.0863 115.292 37.3709 115.299 32.5983C115.299 31.4007 115.233 30.204 115.1 29.0138C114.99 28.0381 114.837 27.0693 114.642 26.1075C113.576 20.8887 111.287 15.9973 107.963 11.8348C106.355 10.9571 105.054 9.60745 104.236 7.96766C103.94 7.37821 103.73 6.74898 103.614 6.09953C103.796 6.12334 104.298 3.3598 104.162 3.19024C104.414 2.80651 104.867 2.61577 105.143 2.24132C106.517 0.37908 108.409 0.70424 109.397 3.23488C111.508 4.30001 111.528 6.06645 110.233 7.76536C109.409 8.84622 109.296 10.3087 108.573 11.4659C108.647 11.5611 108.725 11.6533 108.799 11.7485C110.159 13.4966 111.344 15.3737 112.337 17.3529C112.056 15.1578 112.471 12.5132 113.178 10.8085C113.983 8.86617 115.492 7.23033 116.821 5.55117C118.418 3.53425 121.691 4.41448 121.972 6.97124C121.975 6.996 121.978 7.02074 121.98 7.04548C121.783 7.15684 121.59 7.27504 121.4 7.40008C121.163 7.55877 120.979 7.7855 120.872 8.05056C120.766 8.31563 120.742 8.60667 120.804 8.88555C120.866 9.16443 121.01 9.41814 121.219 9.61344C121.427 9.80874 121.69 9.93652 121.972 9.98004L122.001 9.9845C121.931 10.6959 121.806 11.401 121.629 12.0936C123.334 18.6869 119.653 21.0883 114.398 21.1962C114.282 21.2557 114.169 21.3152 114.053 21.3717C115.05 24.1998 115.676 27.1457 115.915 30.1352C116.05 31.899 116.042 33.6707 115.891 35.4332L115.9 35.3708C116.281 33.4109 117.326 31.6426 118.86 30.3643C121.137 28.4932 124.356 27.8042 126.813 26.3002C127.996 25.5762 129.511 26.5118 129.305 27.8832C129.302 27.905 129.298 27.9269 129.295 27.9488C128.929 28.098 128.572 28.2699 128.227 28.4634C128.03 28.5748 127.836 28.693 127.647 28.818C127.41 28.9767 127.226 29.2035 127.119 29.4685C127.013 29.7336 126.989 30.0246 127.051 30.3035C127.113 30.5824 127.257 30.8361 127.466 31.0314C127.674 31.2267 127.937 31.3545 128.219 31.398L128.248 31.4025C128.269 31.4054 128.287 31.4084 128.307 31.4114C127.681 32.9059 126.803 34.2814 125.71 35.4778C124.644 41.2336 120.066 41.7797 115.168 40.1035H115.165C114.628 42.4387 113.849 44.7117 112.842 46.8859H104.542C104.513 46.7937 104.486 46.6985 104.459 46.6062C105.227 46.6545 105.999 46.6086 106.756 46.4694C106.14 45.7138 105.524 44.9523 104.908 44.1967C104.895 44.1826 104.882 44.1677 104.87 44.1521C104.557 43.7654 104.242 43.3817 103.93 42.995L103.929 42.9945C103.913 41.8091 104.049 40.6265 104.334 39.4759L104.334 39.4757Z" fill="#F2F2F2"/>
<path d="M130.981 18.2356C129.438 12.6093 141.885 7.78459 145.153 12.3155C145.608 11.6713 147.287 11.2801 148.058 11.4777C148.828 11.6753 149.477 12.1693 150.109 12.6475C150.978 13.3153 151.879 14.0069 152.413 14.9673C152.95 15.9237 153.033 17.2278 152.31 18.0577C151.737 18.7177 150.046 19.1445 149.184 19.3184C148.583 19.4409 148.078 19.5397 147.643 19.6109C147.248 19.042 147.066 18.3522 147.129 17.6625C146.836 17.8599 146.591 18.1196 146.411 18.423C146.23 18.7264 146.119 19.0659 146.086 19.4172C146.074 19.5635 150.943 37.4779 150.943 37.4779C150.358 37.8108 149.742 38.0874 149.105 38.3039C147.844 36.3769 146.879 34.2722 146.24 32.0597C146.093 33.5391 146.112 35.0304 146.295 36.5057C146.393 37.333 146.533 38.1548 146.714 38.9678C140.928 40.2166 132.226 39.8056 128.44 34.4941C128.439 34.4722 128.439 34.4502 128.438 34.4282C128.435 34.2185 128.359 34.0164 128.224 33.8565C128.088 33.6965 127.901 33.5887 127.695 33.5514C127.489 33.5142 127.276 33.5498 127.093 33.6523C126.91 33.7547 126.768 33.9176 126.692 34.113C126.6 34.3473 126.516 34.5502 126.44 34.7115C125.338 30.7674 126.764 26.2028 130.981 18.2356Z" fill="#2F2E41"/>
<path d="M121.136 112.563V112.747C121.129 112.686 121.129 112.624 121.136 112.563Z" fill="#2F2E41"/>
<path d="M126.802 80.7215C126.949 80.6817 127.099 80.6526 127.25 80.6345C127.076 80.6628 126.927 80.6918 126.802 80.7215Z" fill="#2F2E41"/>
<path d="M126.671 80.7549C126.711 80.7438 126.755 80.7326 126.802 80.7215C126.758 80.7329 126.716 80.7413 126.671 80.7549Z" fill="#2F2E41"/>
<path d="M168.531 130.999H147.324C147.021 130.758 146.811 130.42 146.728 130.041C146.645 129.663 146.695 129.268 146.869 128.922C147.449 127.594 146.314 126.38 146.314 126.38C145.928 125.928 145.66 125.388 145.533 124.808C145.407 124.228 145.425 123.626 145.587 123.055C146.149 121.093 143.947 115.553 143.947 115.553C143.947 115.553 142.76 122.706 141.305 130.999H121.136C120.798 130.424 120.62 129.768 120.62 129.101C120.62 128.434 120.798 127.778 121.136 127.203C122.311 125.21 121.136 124.828 121.136 124.828C121.136 124.828 119.96 122.598 121.136 120.978C122.311 119.359 121.136 112.747 121.136 112.747C121.18 113.039 121.515 112.508 122.03 111.393C122.815 109.698 124.015 106.649 125.227 103.109C126.093 100.582 126.966 97.8025 127.696 95.0847H127.698C127.889 94.3707 128.071 93.6632 128.242 92.9621C128.577 91.5873 128.864 90.2514 129.082 88.997C129.555 86.2952 129.711 83.9742 129.348 82.4647C129.046 81.2085 128.387 80.5158 127.25 80.6345C127.859 80.5335 128.752 80.4378 129.853 80.3475C130.051 80.3315 130.256 80.3156 130.469 80.2979C138.676 79.6778 156.283 79.3217 156.283 79.3217L161.676 88.9793L168.506 101.213C168.506 101.213 168.32 117.625 168.531 130.999Z" fill="#2F2E41"/>
<path d="M145.895 37.5795L133.47 34.9438L131.003 39.9097L122.695 44.7196C122.695 44.7196 128.05 66.616 128.019 69.6956C127.942 77.5143 115.432 95.0414 124.881 93.6931C134.33 92.3447 136.25 86.6968 139.283 87.5899C142.019 88.3953 145.36 91.9782 147.596 89.4157C149.833 86.8532 150.62 89.8122 152.034 89.9145C152.707 89.9631 152.302 86.6788 153.993 90.0166C155.684 93.3543 164.65 88.8613 161.611 85.8223C156.55 80.761 155.521 43.4506 155.521 43.4506L149.887 41.7169L145.895 37.5795Z" fill="#E6E6E6"/>
<path d="M122.46 117.098C122.959 116.503 123.206 115.736 123.149 114.961C123.092 114.186 122.734 113.465 122.153 112.949C122.033 112.846 121.905 112.754 121.77 112.672L123.847 102.476L119.045 99.6016L117.709 113.876C117.413 114.463 117.32 115.131 117.444 115.776C117.568 116.421 117.902 117.007 118.394 117.442C118.677 117.687 119.004 117.874 119.359 117.992C119.714 118.111 120.088 118.158 120.461 118.132C120.834 118.105 121.198 118.006 121.532 117.839C121.866 117.671 122.165 117.44 122.41 117.158C122.427 117.138 122.443 117.118 122.46 117.098Z" fill="#A0616A"/>
<path d="M137.372 63.3548C137.342 63.027 136.924 62.8782 136.345 62.6727C135.763 62.4935 135.21 62.2315 134.702 61.8949C133.419 60.9683 133.924 59.9992 134.622 58.6598C134.759 58.3993 134.901 58.1282 135.033 57.8465C135.429 57.012 134.8 53.5696 133.161 47.6131C132.656 45.7793 132.658 44.4842 132.309 43.6249C131.961 42.7656 131.265 42.3422 129.367 42.2536C127.074 42.1378 124.828 42.9361 123.122 44.4736C123.076 44.5143 123.028 44.5586 122.982 44.6011C122.895 44.6826 122.81 44.7659 122.727 44.851C121.149 46.438 120.247 48.5736 120.208 50.811L120.199 51.1919L119.807 69.3911L118.707 85.3614L117.19 107.361L118.314 107.416L122.796 107.639L123.34 107.666L124.63 102.255L126.182 95.7437L126.752 93.3519L128.522 85.9319L129.348 82.4646L129.853 80.3474L130.058 79.4828L131.061 75.2803C131.084 75.1917 133.391 66.0904 136.05 64.5685C137.043 64.0015 137.4 63.672 137.372 63.3548Z" fill="#E6E6E6"/>
<path d="M167.21 116.99C166.65 116.451 166.321 115.716 166.295 114.939C166.269 114.163 166.547 113.407 167.07 112.832C167.178 112.717 167.295 112.611 167.421 112.515L164.26 102.601L168.726 99.2275L171.588 113.276C171.944 113.828 172.109 114.482 172.055 115.137C172.001 115.791 171.731 116.41 171.289 116.895C171.035 117.169 170.729 117.39 170.389 117.546C170.049 117.701 169.682 117.789 169.308 117.802C168.935 117.816 168.562 117.756 168.212 117.626C167.862 117.496 167.54 117.298 167.266 117.044C167.247 117.026 167.228 117.008 167.21 116.99Z" fill="#A0616A"/>
<path d="M169.395 95.4778C169.395 95.4778 165.911 83.2222 166.974 81.8955C168.036 80.5687 164.899 80.3097 166.251 77.8387C167.603 75.3678 165.736 74.9546 165.736 74.9546L164.724 69.2734L162.913 55.3191L162.859 54.9041L162.332 50.8443C162.185 49.6847 161.806 48.5667 161.216 47.5571C160.627 46.5475 159.841 45.6671 158.904 44.9684C158.856 44.9318 158.807 44.8966 158.758 44.8614C158.535 44.701 158.308 44.5523 158.075 44.4154C156.337 43.3903 154.297 43.0026 152.304 43.3193C148.549 43.904 149.718 45.3041 149.109 49.0551C148.12 55.154 147.863 58.6433 148.345 59.4316C148.508 59.6971 148.679 59.9511 148.841 60.1949C149.68 61.4533 150.286 62.3612 149.109 63.4223C148.64 63.81 148.119 64.1292 147.56 64.3701C147.007 64.6378 146.607 64.8299 146.612 65.1591C146.619 65.4779 147.009 65.7659 148.056 66.2225C149.324 66.7775 150.687 68.876 151.802 71.0196C152.688 72.7476 153.477 74.5228 154.167 76.3375L163.757 103.308L165.321 107.707L165.861 107.622L170.292 106.919L171.403 106.743L169.395 95.4778Z" fill="#E6E6E6"/>
<path d="M140.653 34.7575C146.251 34.7575 150.79 30.219 150.79 24.6204C150.79 19.0219 146.251 14.4833 140.653 14.4833C135.054 14.4833 130.516 19.0219 130.516 24.6204C130.516 30.219 135.054 34.7575 140.653 34.7575Z" fill="#A0616A"/>
<path d="M125.448 19.026C123.905 13.3997 136.352 8.575 139.62 13.1059C140.075 12.4617 141.754 12.0705 142.525 12.2681C143.296 12.4657 143.944 12.9597 144.576 13.4379C145.446 14.1058 146.347 14.7974 146.88 15.7577C147.418 16.7141 147.501 18.0182 146.777 18.8482C146.204 19.5081 144.513 19.935 143.651 20.1088C143.051 20.2314 142.545 20.3302 142.11 20.4013C141.715 19.8324 141.533 19.1426 141.596 18.453C141.304 18.6503 141.058 18.91 140.878 19.2134C140.698 19.5168 140.587 19.8563 140.553 20.2076C140.541 20.3539 145.41 38.2683 145.41 38.2683C144.825 38.6012 144.21 38.8778 143.572 39.0943C142.312 37.1673 141.346 35.0626 140.707 32.8501C140.56 34.3295 140.579 35.8208 140.762 37.2961C140.86 38.1234 141 38.9452 141.181 39.7582C135.396 41.007 126.693 40.596 122.907 35.2845C122.907 35.2626 122.906 35.2406 122.905 35.2186C122.902 35.0089 122.827 34.8068 122.691 34.6469C122.556 34.4869 122.369 34.3791 122.162 34.3419C121.956 34.3046 121.743 34.3403 121.56 34.4427C121.377 34.5451 121.236 34.708 121.159 34.9034C121.068 35.1377 120.983 35.3406 120.908 35.5019C119.805 31.5578 121.232 26.9932 125.448 19.026Z" fill="#2F2E41"/>
<path d="M75.1747 54.054C74.9606 54.0638 74.7487 54.0076 74.5676 53.893C74.3866 53.7784 74.2451 53.6108 74.1624 53.4131C74.0798 53.2154 74.0599 52.9971 74.1054 52.7877C74.151 52.5783 74.2599 52.3879 74.4172 52.2425C74.4436 52.1377 74.4625 52.0625 74.4888 51.9577C74.4794 51.9349 74.4699 51.9121 74.4604 51.8894C73.4982 49.595 70.2371 49.6108 69.283 51.9086C68.4362 53.9481 67.3581 55.991 67.0927 58.1474C66.9758 59.1006 67.0251 60.0668 67.2384 61.0031C65.2496 56.6646 64.2168 51.9492 64.2102 47.1766C64.2097 45.979 64.2763 44.7823 64.4095 43.5921C64.5195 42.6164 64.6722 41.6476 64.8676 40.6858C65.9336 35.467 68.2223 30.5756 71.5458 26.4131C73.1544 25.5354 74.4552 24.1858 75.2731 22.546C75.5694 21.9565 75.7788 21.3273 75.8949 20.6778C75.7134 20.7016 75.2107 17.9381 75.3475 17.7686C75.0946 17.3848 74.642 17.1941 74.3659 16.8196C72.9923 14.9574 71.0999 15.2825 70.112 17.8132C68.0016 18.8783 67.9812 20.6448 69.2761 22.3437C70.0999 23.4245 70.2131 24.8871 70.936 26.0442C70.8616 26.1394 70.7843 26.2316 70.7099 26.3268C69.3505 28.0749 68.1656 29.952 67.1723 31.9312C67.4533 29.7361 67.0384 27.0915 66.3311 25.3868C65.526 23.4445 64.0169 21.8086 62.6879 20.1295C61.0916 18.1126 57.8182 18.9928 57.5369 21.5496C57.5342 21.5743 57.5316 21.5991 57.529 21.6238C57.7264 21.7351 57.9196 21.8533 58.1086 21.9784C58.3461 22.1371 58.5302 22.3638 58.6366 22.6289C58.7431 22.8939 58.767 23.185 58.7052 23.4639C58.6434 23.7427 58.4988 23.9964 58.2904 24.1917C58.0819 24.387 57.8194 24.5148 57.5371 24.5584L57.5081 24.5628C57.5785 25.2742 57.7028 25.9793 57.88 26.6719C56.1751 33.2652 59.8558 35.6667 65.1115 35.7745C65.2275 35.834 65.3406 35.8935 65.4566 35.95C64.4586 38.7782 63.8327 41.724 63.5944 44.7136C63.4595 46.4773 63.4675 48.2491 63.6182 50.0115L63.6093 49.9491C63.2285 47.9892 62.183 46.2209 60.6494 44.9426C58.3717 43.0715 55.1536 42.3825 52.6963 40.8785C51.5134 40.1545 49.9976 41.0901 50.2041 42.4615C50.2074 42.4834 50.2107 42.5053 50.2141 42.5272C50.5804 42.6763 50.9371 42.8482 51.2821 43.0418C51.4794 43.1531 51.6727 43.2713 51.8617 43.3964C52.0992 43.555 52.2833 43.7818 52.3897 44.0468C52.4962 44.3119 52.5201 44.6029 52.4583 44.8818C52.3965 45.1607 52.2519 45.4144 52.0435 45.6097C51.835 45.805 51.5724 45.9328 51.2901 45.9763L51.2612 45.9808C51.2404 45.9838 51.2225 45.9867 51.2017 45.9897C51.8276 47.4842 52.7061 48.8597 53.7987 50.0561C54.8647 55.8119 59.4433 56.358 64.3411 54.6818H64.344C64.8814 57.017 65.66 59.29 66.6673 61.4642H74.9667C74.9965 61.372 75.0233 61.2768 75.05 61.1845C74.2818 61.2328 73.5106 61.1869 72.7535 61.0477C73.3693 60.2922 73.9851 59.5306 74.6008 58.775C74.6146 58.7609 74.6275 58.746 74.6395 58.7304C74.9519 58.3437 75.2672 57.96 75.5795 57.5733L75.5797 57.5728C75.5963 56.3874 75.4603 55.2048 75.175 54.0542L75.1747 54.054Z" fill="#F2F2F2"/>
<path d="M36.449 12.3157C36.2606 12.7546 30.4526 12.7076 30.1866 13.0985C28.1356 16.1162 35.5289 28.9559 33.4779 31.9775L33.1922 32.318C33.8613 32.0097 34.5041 31.6471 35.114 31.2338C35.1688 29.997 35.2236 28.7562 35.2823 27.5194C35.8966 28.3053 36.3924 29.1769 36.754 30.1066C37.2315 29.77 37.6232 29.146 39.6699 27.9187C40.4985 27.0084 41.4538 26.2221 42.5063 25.5839L36.449 12.3157Z" fill="#A0616A"/>
<path d="M40.6665 37.0476C40.0255 36.6301 39.2943 36.3714 38.5333 36.2931C37.7724 36.2148 37.0038 36.3191 36.2913 36.5973C35.5787 36.8755 34.9428 37.3196 34.4363 37.8928C33.9297 38.466 33.5672 39.1517 33.3787 39.893L24.5525 62.8905L9.38131 54.2774C9.31469 53.2874 8.93625 52.3439 8.30027 51.5822C7.66429 50.8206 6.80344 50.2799 5.84119 50.0378C4.87893 49.7957 3.8647 49.8645 2.94398 50.2344C2.02325 50.6043 1.24332 51.2563 0.716058 52.0969C0.188791 52.9374 -0.0587263 53.9234 0.00900549 54.9133C0.0767373 55.9033 0.456239 56.8463 1.09308 57.6073C1.72992 58.3682 2.59138 58.9079 3.55391 59.1489C4.51644 59.39 5.53058 59.32 6.45089 58.9491C9.64582 62.359 23.497 76.3396 29.2313 70.877C34.0512 66.2855 41.007 48.4903 42.6814 42.3453C42.9496 41.3627 42.899 40.3203 42.5369 39.3682C42.1748 38.4162 41.5199 37.6036 40.6665 37.0476Z" fill="#FFB6B6"/>
<path d="M24.0933 71.8408L26.8785 84.4298L47.2454 86.272L49.1172 75.3104L24.0933 71.8408Z" fill="#FFB6B6"/>
<path d="M55.2041 104.124C55.1948 104.304 55.1837 104.483 55.1707 104.663C54.9753 107.272 54.752 110.28 54.5102 113.577C54.1288 118.809 53.7027 124.766 53.2729 130.999H10.5532L18.8383 106.097C18.8383 106.097 22.1836 104.255 20.4804 101.161C18.7773 98.0668 22.1284 100.532 22.1596 96.1136C22.1908 91.6949 25.1938 86.9939 25.1938 86.9939L25.6868 80.3034L25.9677 80.309L48.1992 80.6792L48.6048 80.6867L49.2877 86.4301C53.4335 91.3636 55.5486 97.6888 55.2041 104.124Z" fill="#2F2E41"/>
<path d="M36.8049 30.9465L46.9425 30.4243L51.6511 37.8645C51.6511 37.8645 60.5105 39.3457 59.8964 49.7854C59.2823 60.2251 49.1172 69.386 49.1172 69.386L49.5517 67.8963L48.797 70.0527L48.8938 71.2635L49.9233 72.5457L50.0293 73.8718L49.1172 75.97C49.2358 76.1601 49.2987 76.3797 49.2989 76.6038C49.299 76.8279 49.2363 77.0475 49.118 77.2378C48.9996 77.4281 48.8303 77.5814 48.6292 77.6803C48.4282 77.7792 48.2034 77.8198 47.9804 77.7974L33.3324 76.3295C32.9989 75.4121 32.7313 74.3144 31.3945 76.1417L30.0147 76.008L24.2786 75.4523L23.9409 74.2224C23.7491 73.5236 23.7192 72.7902 23.8535 72.078C23.9878 71.3659 24.2828 70.6938 24.7161 70.1128C24.2178 68.5527 24.3483 66.8596 25.0798 65.3942L25.1072 65.3393L25.7164 64.8315C25.7164 64.8315 19.0521 54.8194 26.7025 47.2784L29.773 42.0585L33.2086 37.8669L36.8049 30.9465Z" fill="#0B57D0"/>
<path d="M39.3281 26.5546C44.6373 26.5546 48.9413 22.2506 48.9413 16.9414C48.9413 11.6322 44.6373 7.32819 39.3281 7.32819C34.0188 7.32819 29.7148 11.6322 29.7148 16.9414C29.7148 22.2506 34.0188 26.5546 39.3281 26.5546Z" fill="#FFB6B6"/>
<path d="M46.6293 30.7899C45.8464 30.1358 45.3016 29.2414 45.0793 28.2458C44.9015 29.4547 44.948 30.6859 45.2163 31.878C44.6957 32.2694 44.1908 32.6412 43.7133 32.9778C43.3518 32.0482 42.8559 31.1765 42.2416 30.3907C42.1829 31.6275 42.1281 32.8682 42.0733 34.1051C41.4634 34.5183 40.8207 34.8809 40.1516 35.1893L40.4373 34.8487C42.4882 31.8271 37.1808 26.2653 39.2317 23.2476C39.8071 22.4021 37.2082 15.7209 35.2277 15.4195C33.4664 15.1533 33.5408 15.6622 31.8342 16.034C31.657 15.2949 31.3819 14.5828 31.0162 13.9165C31.1136 14.6589 31.0911 15.4122 30.9497 16.1475C30.343 16.171 29.8657 15.7844 29.2197 15.6856C25.0982 15.0555 25.517 10.5974 26.6638 9.18445C27.8145 7.77541 31.6346 7.35269 33.3959 6.89473C33.5564 6.73818 33.9204 6.83603 34.0809 6.68729C37.4564 3.59814 41.9708 3.08655 46.0334 4.45573C50.3658 5.91586 53.067 8.74187 54.4534 13.0985L54.851 16.5849C55.2078 17.7059 54.759 22.9218 54.4534 24.0578C53.2655 28.4736 50.7356 26.2692 46.6293 30.7899Z" fill="#A0616A"/>
<path d="M60.6461 76.3349L60.2677 46.8595C60.2479 45.6107 59.738 44.4198 58.848 43.5437C57.9579 42.6677 56.7591 42.1766 55.5102 42.1766C54.8642 42.1766 54.2249 42.3082 53.6313 42.5634C53.0377 42.8185 52.5023 43.1918 52.0578 43.6606C51.6132 44.1294 51.2688 44.6839 51.0455 45.2901C50.8222 45.8964 50.7247 46.5418 50.7589 47.1869L52.0907 77.7926L52.116 96.4239C51.331 96.7568 50.6676 97.3232 50.2158 98.0462C49.7641 98.7693 49.5458 99.6139 49.5907 100.465C49.6357 101.317 49.9416 102.134 50.467 102.805C50.9924 103.476 51.7117 103.97 52.5273 104.218C53.3429 104.467 54.2152 104.458 55.0257 104.193C55.8362 103.929 56.5455 103.421 57.0574 102.739C57.5693 102.057 57.8589 101.235 57.8868 100.382C57.9147 99.5303 57.6797 98.6903 57.2136 97.9764L60.6461 76.3349Z" fill="#FFB6B6"/>
<path d="M110.261 114.469C110.261 114.469 109.676 124.996 109.407 131H89.2561C88.8413 125.536 88.7017 121.522 88.7017 121.522L87.5991 131H67.2305L65.9678 113.447L72.0701 98.32C72.0701 98.32 105.14 96.0265 108.208 98.936C111.273 101.843 110.261 114.469 110.261 114.469Z" fill="#2F2E41"/>
<path d="M92.4421 25.9135C98.5211 25.9135 103.449 20.9855 103.449 14.9065C103.449 8.82754 98.5211 3.89954 92.4421 3.89954C86.3631 3.89954 81.4351 8.82754 81.4351 14.9065C81.4351 20.9855 86.3631 25.9135 92.4421 25.9135Z" fill="#A0616A" fill-opacity="0.73"/>
<path d="M105.271 11.33C104.141 11.8455 103.408 15.5791 102.52 14.7111C101.631 13.8431 101.69 12.7136 100.492 12.3932C99.5249 12.1335 98.4838 12.4304 97.6013 12.8986C97.4437 12.9813 97.291 13.0711 97.1421 13.1604C97.0438 13.0948 96.946 13.033 96.841 12.976C96.0516 12.5536 95.1303 12.4499 94.2669 12.6864C94.9492 12.915 95.5424 13.3522 95.9626 13.9363C95.6673 14.1342 95.3681 14.3327 95.0621 14.5085C92.5057 15.9837 88.8681 12.7759 86.1773 11.5708C87.8628 14.7337 87.0328 16.0435 85.5694 19.3146L85.5188 19.5009C85.602 18.6811 83.0651 18.0701 83.2122 19.2242C83.3167 20.0436 84.0258 21.8649 84.4229 22.5883C81.5938 19.3171 79.6605 15.314 80.0685 11.1845C80.1573 10.317 80.1305 9.4017 80.5779 8.64878C81.0259 7.89974 81.9597 7.3741 82.7858 7.65974C82.7158 6.34279 83.004 5.03149 83.6197 3.86524C84.2354 2.69899 85.1557 1.72139 86.2826 1.03637C87.4096 0.351353 88.7011 -0.0154816 90.0198 -0.0251341C91.3386 -0.0347865 92.6354 0.313107 93.7722 0.981557C94.8286 1.60141 95.7105 2.47809 96.6787 3.23429C97.6469 3.99049 98.763 4.64964 99.9907 4.71206C100.77 4.74963 101.617 4.55948 102.286 4.96287C103.061 5.43093 103.194 6.41091 103.31 7.35389C102.619 7.42205 101.964 7.69477 101.428 8.13722C102.143 8.06425 102.864 8.21871 103.486 8.57861C103.498 8.58395 103.509 8.59037 103.52 8.59777C103.929 10.1562 103.887 10.5017 105.271 11.33Z" fill="#2F2E41"/>
<path d="M67.2793 103.645C76.6527 92.6735 73.4866 78.7183 69.7664 64.6314L70.4743 43.8206C70.509 42.7998 70.7889 41.8023 71.2902 40.9123C71.7916 40.0224 72.4997 39.2662 73.3548 38.7076L82.9239 32.4561L86.6483 27.0712L96.9147 28.0979L102.608 34.1185L108.909 38.9293C110.492 40.1372 111.696 41.7723 112.379 43.6419C113.063 45.5114 113.198 47.5374 112.768 49.4811L106.737 76.7529C106.737 76.7529 109.26 90.8908 107.721 92.4522C106.182 94.0136 102.216 92.453 105.361 94.2058C109.135 96.3092 112.566 95.9211 110.656 97.8309C108.747 99.7407 111.164 102.396 111.164 102.396L67.2793 103.645Z" fill="#FCC934"/>
<path d="M71.2871 119.591L72.8497 108.458L66.6145 106.678L65.3811 118.507C64.8651 118.98 64.4913 119.588 64.3017 120.262C64.1122 120.936 64.1143 121.649 64.308 122.322C64.5017 122.995 64.8792 123.6 65.3981 124.07C65.917 124.54 66.5567 124.856 67.2453 124.983C67.9339 125.109 68.6441 125.041 69.2961 124.786C69.948 124.53 70.5159 124.099 70.9358 123.538C71.3557 122.978 71.6111 122.312 71.6731 121.615C71.7352 120.917 71.6015 120.216 71.2871 119.591Z" fill="#FFB6B6"/>
<path d="M83.158 34.463C83.158 34.463 65.4098 40.2395 64.9866 44.466C64.5634 48.6926 64.7038 51.28 62.8306 68.1929L62.9293 113.752C62.9293 113.752 74.8284 116.299 73.6081 113.575C72.3877 110.852 72.8135 109.57 72.8135 109.57C72.8135 109.57 75.3647 108.563 74.7261 105.365C74.0875 102.167 77.2901 86.3172 77.2901 86.3172L79.3114 57.8918L83.158 34.463Z" fill="#0B57D0"/>
<path d="M105.042 119.001L104.21 107.79L110.548 106.421L111.006 118.306C111.49 118.812 111.823 119.443 111.968 120.127C112.113 120.812 112.064 121.524 111.827 122.183C111.59 122.842 111.174 123.421 110.625 123.856C110.077 124.291 109.418 124.565 108.722 124.646C108.027 124.727 107.323 124.612 106.689 124.315C106.055 124.018 105.516 123.55 105.134 122.963C104.752 122.377 104.54 121.695 104.524 120.995C104.508 120.295 104.687 119.605 105.042 119.001Z" fill="#FFB6B6"/>
<path d="M98.7607 33.2795C98.7607 33.2795 116.093 40.2038 116.239 44.449C116.385 48.6941 116.076 51.2668 116.84 68.266L113.764 113.721C113.764 113.721 101.723 115.485 103.119 112.847C104.515 110.209 104.174 108.902 104.174 108.902C104.174 108.902 101.694 107.731 102.54 104.581C103.386 101.431 101.227 85.4064 101.227 85.4064L101.068 56.9097L98.7607 33.2795Z" fill="#0B57D0"/>
</g>
<defs>
<clipPath id="clip0_202_3681">
<rect width="172.065" height="131" fill="white"/>
</clipPath>
</defs>
</svg>
