<svg xmlns="http://www.w3.org/2000/svg" width="28" height="28" viewBox="0 0 28 28" fill="none">
<g id="updated-dc-logo.svg" clip-path="url(#clip0_5129_22508)">
<g id="dc-logo.svg fill" clip-path="url(#clip1_5129_22508)">
<g id="dc-logo.svg" clip-path="url(#clip2_5129_22508)">
<g id="Group">
<path id="Vector" d="M24 0H4C1.79086 0 0 1.79086 0 4V24C0 26.2091 1.79086 28 4 28H24C26.2091 28 28 26.2091 28 24V4C28 1.79086 26.2091 0 24 0Z" fill="#666666"/>
</g>
</g>
</g>
<path id="DC" d="M19.6132 9.01839C20.1254 9.01842 20.6029 9.08187 21.0449 9.21077C21.4858 9.33938 21.8911 9.52393 22.2597 9.76351C22.6272 10.0024 22.9621 10.2916 23.2646 10.6307L23.329 10.702L23.2597 10.7694L22.2206 11.7821L22.1425 11.8573L22.0742 11.7733C21.8636 11.5188 21.6358 11.3095 21.3925 11.1444L21.3906 11.1434C21.148 10.9702 20.8794 10.8397 20.5839 10.7528H20.5829C20.2967 10.666 19.9776 10.6219 19.6259 10.6219C18.9946 10.622 18.4177 10.7712 17.8935 11.0682H17.8925C17.3688 11.3562 16.9487 11.7614 16.6337 12.286L16.6347 12.2869C16.3303 12.8089 16.1757 13.4342 16.1757 14.1668C16.1757 14.8893 16.3296 15.5147 16.6337 16.0457C16.9489 16.5711 17.3689 16.9818 17.8935 17.2791H17.8925C18.4168 17.5675 18.9941 17.7117 19.6259 17.7118C20.1967 17.7118 20.6984 17.5933 21.1318 17.3592L21.2968 17.2664C21.6765 17.0402 22.017 16.7466 22.3173 16.3846L22.3857 16.3016L22.4628 16.3768L23.5302 17.4022L23.5976 17.4676L23.537 17.5389C23.2337 17.8974 22.8792 18.2103 22.4755 18.4764C22.0715 18.7426 21.6308 18.9489 21.1542 19.0955C20.6759 19.2427 20.162 19.3162 19.6132 19.3162C18.8903 19.3162 18.2156 19.1877 17.5908 18.9305L17.5888 18.9295C16.966 18.6638 16.4202 18.3015 15.9521 17.8426L15.9501 17.8416C15.4912 17.3735 15.1289 16.8269 14.8632 16.2039L14.8622 16.203V16.202C14.6053 15.5685 14.4775 14.8897 14.4775 14.1668C14.4775 13.435 14.6058 12.7557 14.8632 12.1307V12.1297C15.129 11.5066 15.4918 10.9651 15.9511 10.5057C16.3611 10.0957 16.8311 9.76637 17.3603 9.51839L17.5908 9.41683C18.2155 9.15064 18.8903 9.01839 19.6132 9.01839ZM8.19525 9.23421C9.22484 9.23425 10.1148 9.44363 10.8613 9.86702C11.6154 10.2809 12.1962 10.8618 12.6015 11.6073C13.0158 12.353 13.2226 13.2072 13.2226 14.1668C13.2226 15.1265 13.0167 15.9807 12.6025 16.7264L12.6015 16.7254C12.1964 17.471 11.617 18.0564 10.8632 18.4793L10.8622 18.4803C10.1156 18.895 9.22524 19.1004 8.19525 19.1004H5.00385V9.23421H8.19525ZM6.68842 17.4959H8.15424C8.87036 17.4959 9.47882 17.363 9.98334 17.1024C10.488 16.8326 10.8703 16.4517 11.1308 15.9569C11.3917 15.4611 11.5244 14.8652 11.5244 14.1668C11.5243 13.4686 11.3916 12.8734 11.1308 12.3778C10.8705 11.8832 10.4894 11.5057 9.98529 11.245H9.98334C9.47888 10.9754 8.87042 10.8377 8.15424 10.8377H6.68842V17.4959Z" fill="white" stroke="white" stroke-width="0.2"/>
</g>
<defs>
<clipPath id="clip0_5129_22508">
<rect width="28" height="28" fill="white"/>
</clipPath>
<clipPath id="clip1_5129_22508">
<rect width="28" height="28" fill="white"/>
</clipPath>
<clipPath id="clip2_5129_22508">
<rect width="28" height="28" fill="white"/>
</clipPath>
</defs>
</svg>