<?xml version="1.0" encoding="utf-8"?>
<!-- Generator: Adobe Illustrator 21.1.0, SVG Export Plug-In . SVG Version: 6.00 Build 0)  -->
<svg version="1.1" id="Layer_1" xmlns="http://www.w3.org/2000/svg" xmlns:xlink="http://www.w3.org/1999/xlink" x="0px" y="0px"
	 viewBox="0 0 216 41.3" style="enable-background:new 0 0 216 41.3;" xml:space="preserve">
<style type="text/css">
	.st0{fill:#FF8300;}
	.st1{fill:#25272B;}
</style>
<g>
	<path class="st0" d="M156.2,20.9c0,2.3-0.4,4.2-1.2,5.9c-0.8,1.7-1.8,3.1-3.1,4.2c-1.3,1.1-2.7,2-4.3,2.5c-1.6,0.6-3.3,0.8-5,0.8
		c-1.7,0-3.4-0.3-5-0.8c-1.6-0.6-3.1-1.4-4.3-2.5c-1.3-1.1-2.3-2.5-3.1-4.2c-0.8-1.7-1.2-3.7-1.2-5.9c0-2.3,0.4-4.2,1.2-5.9
		c0.8-1.7,1.8-3.1,3.1-4.2c1.3-1.1,2.7-2,4.3-2.5c1.6-0.6,3.3-0.9,5-0.9c1.7,0,3.4,0.3,5,0.9c1.6,0.6,3.1,1.4,4.3,2.5
		c1.3,1.1,2.3,2.5,3.1,4.2C155.8,16.6,156.2,18.6,156.2,20.9 M136.7,20.9c0,1.4,0.3,2.5,0.9,3.5c0.6,0.9,1.3,1.6,2.2,2.1
		c0.9,0.5,1.8,0.7,2.9,0.7c1,0,2-0.2,2.9-0.7c0.9-0.5,1.6-1.2,2.2-2.1c0.6-0.9,0.9-2.1,0.9-3.5c0-1.4-0.3-2.6-0.9-3.5
		c-0.6-0.9-1.3-1.6-2.2-2.1c-0.9-0.5-1.8-0.7-2.9-0.7c-1,0-2,0.2-2.9,0.7c-0.9,0.5-1.6,1.2-2.2,2.1C137,18.3,136.7,19.5,136.7,20.9"
		/>
	<path class="st0" d="M171.9,34.4c-1.6,0-3.1-0.2-4.5-0.7c-1.5-0.4-2.8-1.1-4-2c-1.2-0.9-2.1-2-2.8-3.4c-0.7-1.4-1.1-2.9-1.1-4.8
		V7.8h7.8v15.8c0,0.8,0.2,1.5,0.7,2c0.4,0.5,1,0.9,1.7,1.2c0.7,0.3,1.4,0.4,2.2,0.4s1.5-0.1,2.2-0.4c0.7-0.3,1.2-0.7,1.7-1.2
		c0.4-0.5,0.7-1.2,0.7-2V7.8h7.8v15.9c0,1.8-0.4,3.4-1.1,4.8c-0.7,1.4-1.7,2.5-2.8,3.4c-1.2,0.9-2.5,1.6-4,2
		C175,34.2,173.5,34.4,171.9,34.4"/>
	<path class="st0" d="M203.3,34.4c-1.3,0-2.5-0.2-3.7-0.7c-1.2-0.5-2.2-1.2-3.1-2.2v9.8h-7.6V7.7h7.6v2.6c0.9-1.1,2-1.9,3.2-2.3
		c1.2-0.4,2.4-0.6,3.7-0.6c2.1,0,3.9,0.4,5.5,1.2c1.6,0.8,2.9,1.8,4,3.1c1.1,1.3,1.9,2.8,2.4,4.4c0.5,1.7,0.8,3.4,0.8,5.2
		c0,1.8-0.3,3.5-0.8,5.1c-0.5,1.6-1.3,3-2.4,4.1c-1,1.2-2.4,2.1-3.9,2.8C207.3,34,205.4,34.4,203.3,34.4 M202.5,14.7
		c-0.8,0-1.6,0.2-2.3,0.5c-0.7,0.3-1.3,0.8-1.9,1.4c-0.5,0.6-1,1.3-1.3,2c-0.3,0.8-0.5,1.6-0.5,2.4c0,0.9,0.1,1.7,0.5,2.5
		c0.3,0.8,0.7,1.4,1.3,2c0.6,0.6,1.2,1,1.9,1.4c0.7,0.3,1.5,0.5,2.3,0.5c1,0,1.8-0.2,2.5-0.5c0.7-0.4,1.3-0.8,1.8-1.4
		c0.5-0.6,0.9-1.3,1.1-2c0.3-0.8,0.4-1.5,0.4-2.3c0-0.8-0.1-1.6-0.4-2.3c-0.2-0.8-0.6-1.5-1.1-2.1c-0.5-0.6-1.1-1.1-1.8-1.5
		C204.3,14.9,203.4,14.7,202.5,14.7"/>
	<path class="st0" d="M118.5,18.1L118.5,18.1l-4.8,5.2c0.6,0.2,1.1,0.4,1.6,0.6c2.3,0.8,3.3,1.2,3.3,2.6c0,1.3-1.2,2-3.3,2
		c-2.1,0-3.6-1-4-2.5l-4.7,5.2c1.9,1.9,5,3,8.8,3c6.5,0,10.8-3.2,10.8-8.3C126.1,22.2,123.9,19.9,118.5,18.1"/>
</g>
<g>
	<path class="st1" d="M12.1,34.3c-1.7-0.1-3.1-0.6-4.3-1.3c-1.2-0.7-2.1-1.7-2.7-3.1c-0.6-1.3-0.9-3.1-0.9-5.1V14.5H0V8h4.1V2.3
		l7.6,0V8h5.5v6.5h-5.5v10.3c0,0.8,0.2,1.5,0.6,1.9c0.4,0.4,0.8,0.7,1.4,0.9c0.6,0.2,1.2,0.3,1.9,0.2c0.7,0,1.3-0.1,1.9-0.2l0.2,6.3
		C15.6,34.4,13.7,34.5,12.1,34.3"/>
	<path class="st1" d="M74.5,22.8c-0.2,2-0.8,3.7-1.7,5.2c-0.9,1.5-2,2.7-3.3,3.6c-1.3,1-2.7,1.6-4.2,2.1c-1.6,0.4-3.1,0.6-4.7,0.5
		c-1.6-0.1-3.2-0.4-4.7-1c-1.5-0.6-2.8-1.5-4-2.6c-1.2-1.1-2.1-2.5-2.8-4.1C48.4,24.9,48,23,48,20.8c0-2.2,0.4-4.1,1.1-5.7
		c0.7-1.6,1.6-3,2.8-4.1c1.2-1.1,2.5-2,4-2.6c1.5-0.6,3.1-0.9,4.7-1c1.6-0.1,3.2,0.1,4.7,0.5c1.6,0.4,3,1.1,4.2,2.1
		c1.3,1,2.4,2.2,3.3,3.6c0.9,1.5,1.4,3.2,1.7,5.2h-7.6c-0.3-1-0.8-1.9-1.4-2.6c-0.7-0.7-1.4-1.2-2.3-1.4c-0.8-0.3-1.7-0.4-2.6-0.2
		c-0.9,0.1-1.7,0.4-2.5,0.9c-0.8,0.5-1.4,1.2-1.9,2.1c-0.5,0.9-0.7,2-0.7,3.2c0,1.3,0.2,2.3,0.7,3.2c0.5,0.9,1.1,1.6,1.9,2.1
		c0.8,0.5,1.6,0.8,2.5,0.9c0.9,0.1,1.8,0,2.6-0.2c0.8-0.3,1.6-0.8,2.3-1.4c0.7-0.7,1.1-1.5,1.4-2.6H74.5z"/>
	<path class="st1" d="M77.3,0H85v10.3c0.9-1.2,2.1-2,3.3-2.4c1.3-0.4,2.7-0.6,4.1-0.6c1.9,0,3.4,0.4,4.7,1C98.3,9,99.3,9.9,100,11
		c0.7,1.1,1.2,2.4,1.5,3.9c0.3,1.5,0.4,3,0.4,4.7V34h-7.7V19.5c0-1.2-0.2-2.2-0.6-3c-0.4-0.8-1-1.3-1.6-1.6
		c-0.6-0.3-1.4-0.4-2.1-0.4c-0.8,0.1-1.5,0.3-2.1,0.8c-0.6,0.4-1.2,1-1.6,1.7c-0.4,0.7-0.7,1.6-0.7,2.6V34h-8.1V0z"/>
	<path class="st1" d="M45.1,25.5c-1.2,2.8-3,5-5.1,6.5c-2.1,1.5-4.6,2.3-7.2,2.3c-7.2,0-13.4-5.9-13.4-13.4
		c0-7.1,5.6-13.6,13.3-13.6c7.7,0,13.3,6.1,13.3,13.8c0,1-0.1,1.4-0.2,2h-19c0.5,3,3,4.8,5.9,4.8c2.3,0,3.6-1,4.6-2.4H45.1z
		 M38.4,18c-0.3-1.5-1.8-4.3-5.7-4.3c-3.9,0-5.4,2.8-5.7,4.3H38.4z"/>
	<path class="st1" d="M116.3,7.3c-6.3,0-10.6,3.4-10.6,8.4c0,3.8,2.7,5.6,7.3,7.5c0.2,0.1,0.4,0.2,0.6,0.2c0,0,0.1,0,0.1,0l4.8-5.3
		l-0.7-0.2l-0.1,0c-3.2-1-4.6-1.5-4.6-3c0-1.2,1.3-2,3.1-2c1.9,0,3.2,0.9,3.7,2.5l0,0l4.5-5C122.6,8.4,119.7,7.3,116.3,7.3"/>
</g>
</svg>
