<svg class="svg-type-logo" xmlns="http://www.w3.org/2000/svg" viewBox="0 0 433.49 135.68">
    <path d="M101,48.67H86.63q-8.13,0-11.76-3.15T71.25,35.25V.41h9.42V35.25q0,2.85,1.29,3.93c.85.73,2.41,1.09,4.67,1.09H101v8.4" fill-rule="evenodd"></path>
    <polygon points="135.64 48.67 145.06 48.67 145.06 0.41 135.64 0.41 135.64 48.67" fill-rule="evenodd"></polygon>
    <path d="M219.09,19.86l-8.68,18.3q-1.91,3.66-4.71,3.66c-1.88,0-3.45-1.28-4.71-3.86l-8.81-18.1V48.67h-9.43V.41H192l13.62,27.86L219.22.41h9.29V48.67h-9.42V19.86" fill-rule="evenodd"></path>
    <path d="M302.12,48.67h-9.83l-2.71-8.34-7.86-27.17-11,35.51h-9.83l15.45-44.2a7.62,7.62,0,0,1,2.27-3.18,5.24,5.24,0,0,1,3.09-.88,4.93,4.93,0,0,1,2.95.81,6.94,6.94,0,0,1,2,3.25l15.45,44.2" fill-rule="evenodd"></path>
    <polyline points="367.27 8.81 354.32 8.81 354.32 48.67 344.89 48.67 344.89 8.81 332.02 8.81 332.02 0.41 367.27 0.41 367.27 8.81" fill-rule="evenodd"></polyline>
    <path d="M433.49,48.67H416.41q-8.13,0-11.42-2.81t-3.29-9.93V.41h19.9v8.4H411.12V20.13h15.66l-.68,8.41h-15v6.71q0,2.85,1.29,3.93c.86.73,2.42,1.09,4.68,1.09h16.4v8.4" fill-rule="evenodd"></path>
    <polyline points="49.46 79.83 31.5 79.83 31.5 135.12 18.44 135.12 18.44 79.83 0.57 79.83 0.57 68.17 49.46 68.17 49.46 79.83" fill-rule="evenodd"></polyline>
    <path d="M247.1,135.12H233.47l-3.76-11.57L218.85,86.21l-15.28,48.91H189.93l21.44-61.31a10.46,10.46,0,0,1,3.15-4.42,7.3,7.3,0,0,1,4.28-1.22,6.81,6.81,0,0,1,4.09,1.13c1,.75,2,2.26,2.77,4.51l21.44,61.31" fill-rule="evenodd"></path>
    <path d="M327.77,109.17H339.9q0,12.78-6.39,19.65t-18.06,6.86q-25.67,0-25.66-30.18V99.86q0-23.79,13.16-29.81a29.06,29.06,0,0,1,12.5-2.45q10.73,0,17.45,5.88t6.72,17H327.4q-1-5.53-3.67-8.36c-1.76-1.89-4.51-2.83-8.28-2.83q-6.58,0-9.77,4.14-2.26,2.92-2.64,10c-.12,1.5-.19,3.54-.19,6.11v5.83q0,10.81,3,14.76t9.64,4q6.54,0,9-3.62t3.24-11.23" fill-rule="evenodd"></path>
    <path d="M432.7,135.12H409q-11.28,0-15.84-3.9t-4.57-13.78V68.17H416V79.83H401.68v15.7h21.71l-.93,11.66H401.68v9.31q0,3.94,1.78,5.45t6.49,1.51H432.7v11.66" fill-rule="evenodd"></path>
    <path d="M97.23,135.12H110.3V110.29h9.4l13.07,24.83h15.14l-14.95-27s12.22-4,12.22-18.52S134.25,68.17,124.7,68.17H111.28s-7.74-.16-11,3.83a14.24,14.24,0,0,0-2.94,7.83h25.66s9.06,0,9.06,9.54-8.43,10-8.43,10H106.35s-4.22.33-6.58,3.15a11,11,0,0,0-2.54,5.74v26.89" fill-rule="evenodd"></path>
    <path d="M27.39,30h8.74q0,9.23-4.61,14.17t-13,4.95Q0,49.08,0,27.32V23.25Q0,6.11,9.49,1.76a21.06,21.06,0,0,1,9-1.76q7.72,0,12.57,4.24t4.85,12.23H27.12a11.89,11.89,0,0,0-2.65-6c-1.26-1.36-3.25-2-6-2q-4.76,0-7,3-1.64,2.1-1.9,7.18c-.09,1.09-.14,2.56-.14,4.41v4.2q0,7.8,2.17,10.65t7,2.84q4.71,0,6.51-2.61c1.2-1.74,2-4.44,2.34-8.1" fill-rule="evenodd"></path>
</svg>