<svg xmlns="http://www.w3.org/2000/svg" width="110" height="74.675" viewBox="0 0 110 74.675"><g id="Group_1245" data-name="Group 1245" transform="translate(-80.693 -30.075)"><g id="Group_1229" data-name="Group 1229" transform="translate(99.289 98.587)"><g id="Group_1227" data-name="Group 1227" transform="translate(0 0)"><g id="Group_1225" data-name="Group 1225" transform="translate(0 0.11)"><path id="Path_907" data-name="Path 907" d="M104.275,105.859l1.777,4.823h-1.284l-.239-.772h-1.777l-.239.772h-1.285l1.79-4.823Zm-.648,1.147c-.062.246-.13.5-.2.745-.1.361-.287.929-.4,1.29h1.223Z" transform="translate(-101.228 -105.852)" fill="#fff"></path><path id="Path_908" data-name="Path 908" d="M107.876,107.611a1.658,1.658,0,0,1,1.031-.409v.929l-.348.054c-.506.089-.657.164-.657.615v2.009h-1.052v-3.573h1.025Z" transform="translate(-101.759 -105.979)" fill="#fff"></path><path id="Path_909" data-name="Path 909" d="M109.522,105.851h1.039v.813h-1.039Zm0,1.257h1.039v3.573h-1.039Z" transform="translate(-102.011 -105.851)" fill="#fff"></path><path id="Path_910" data-name="Path 910" d="M111.358,107.247h3.054v.806l-1.9,1.941h1.9v.82h-3.259v-.792l1.927-1.968h-1.722Z" transform="translate(-102.165 -105.983)" fill="#fff"></path><path id="Path_911" data-name="Path 911" d="M118.8,109.012a1.917,1.917,0,1,1-1.777-1.886A1.783,1.783,0,0,1,118.8,109.012Zm-2.6-.7a1.3,1.3,0,0,0-.177.7c0,.567.273,1.066.861,1.066.567,0,.847-.457.847-1.018a1.209,1.209,0,0,0-.293-.9.763.763,0,0,0-.615-.2A.708.708,0,0,0,116.2,108.307Z" transform="translate(-102.525 -105.971)" fill="#fff"></path><path id="Path_912" data-name="Path 912" d="M120.647,107.559a1.026,1.026,0,0,1,.355-.281,1.748,1.748,0,0,1,.649-.129,1.358,1.358,0,0,1,.636.143c.376.2.472.52.472,1.073V110.8h-1.046V108.8a1.409,1.409,0,0,0-.048-.532.476.476,0,0,0-.471-.273c-.553,0-.553.444-.553.888V110.8h-1.052v-3.56h1.059Z" transform="translate(-102.962 -105.974)" fill="#fff"></path><path id="Path_913" data-name="Path 913" d="M123.646,108.248a.993.993,0,0,1,.376-.792,1.837,1.837,0,0,1,1.168-.314c.437,0,1.5.1,1.5,1.025v2.077c0,.382.02.436.1.56h-1.032v-.328a1.677,1.677,0,0,1-1.093.424,1.083,1.083,0,0,1-1.168-1.087,1.151,1.151,0,0,1,.752-1.024,9.207,9.207,0,0,1,1.407-.329v-.191c-.014-.164-.027-.437-.4-.437-.465,0-.526.287-.553.417Zm1.332,1.073c-.177.068-.451.171-.451.444a.382.382,0,0,0,.4.362.687.687,0,0,0,.362-.116c.349-.218.362-.547.369-.916Z" transform="translate(-103.331 -105.973)" fill="#fff"></path></g><g id="Group_1226" data-name="Group 1226" transform="translate(24.771)"><path id="Path_914" data-name="Path 914" d="M129.5,109.222a1.526,1.526,0,0,0,.465.376,1.989,1.989,0,0,0,.929.232c.478,0,.888-.225.888-.56,0-.383-.485-.445-.84-.493-.267-.034-.533-.068-.793-.122-.293-.062-1.3-.273-1.3-1.312,0-1.243,1.107-1.613,1.941-1.613a2.944,2.944,0,0,1,2.132.916l-.888.636a2.222,2.222,0,0,0-.478-.389,1.73,1.73,0,0,0-.786-.212c-.478,0-.717.273-.717.505,0,.369.41.424.615.451a9.45,9.45,0,0,1,1.475.287,1.2,1.2,0,0,1,.834,1.182,1.605,1.605,0,0,1-.382,1.025,2.321,2.321,0,0,1-1.811.649,2.569,2.569,0,0,1-2.2-.977Z" transform="translate(-128.582 -105.73)" fill="#fff"></path><path id="Path_915" data-name="Path 915" d="M133.953,106.108H135v1.113h.69v.643h-.7v1.606c-.006.218-.006.4.273.4l.376-.014v.82a3.332,3.332,0,0,1-.553.054,1.089,1.089,0,0,1-.983-.348,1.377,1.377,0,0,1-.15-.807v-1.722h-.52v-.642h.52Z" transform="translate(-129.04 -105.766)" fill="#fff"></path><path id="Path_916" data-name="Path 916" d="M136.262,108.248a.991.991,0,0,1,.376-.792,1.837,1.837,0,0,1,1.168-.314c.437,0,1.5.1,1.5,1.025v2.077c0,.382.021.436.1.56h-1.031v-.328a1.677,1.677,0,0,1-1.093.424,1.083,1.083,0,0,1-1.168-1.087,1.15,1.15,0,0,1,.752-1.024,9.156,9.156,0,0,1,1.407-.329v-.191c-.014-.164-.027-.437-.4-.437-.465,0-.526.287-.553.417Zm1.332,1.073c-.178.068-.451.171-.451.444a.382.382,0,0,0,.4.362.687.687,0,0,0,.362-.116c.348-.218.361-.547.369-.916Z" transform="translate(-129.293 -105.863)" fill="#fff"></path><path id="Path_917" data-name="Path 917" d="M140.389,106.108h1.045v1.113h.69v.643h-.7v1.606c-.007.218-.007.4.273.4l.376-.014v.82a3.332,3.332,0,0,1-.553.054,1.089,1.089,0,0,1-.983-.348,1.377,1.377,0,0,1-.15-.807v-1.722h-.52v-.642h.52Z" transform="translate(-129.648 -105.766)" fill="#fff"></path><path id="Path_918" data-name="Path 918" d="M146.091,109.893a2.754,2.754,0,0,1-.431.532,1.957,1.957,0,0,1-1.346.506,1.7,1.7,0,0,1-1.8-1.845,1.784,1.784,0,0,1,1.831-1.968,1.731,1.731,0,0,1,1.285.513,2.387,2.387,0,0,1,.505,1.6h-2.548a.8.8,0,0,0,.812.888.943.943,0,0,0,.9-.628Zm-1.046-1.319a.847.847,0,0,0-.2-.506.741.741,0,0,0-.513-.2.721.721,0,0,0-.532.232.933.933,0,0,0-.212.472Z" transform="translate(-129.897 -105.861)" fill="#fff"></path></g></g><g id="Group_1228" data-name="Group 1228" transform="translate(42.538 0.11)"><path id="Path_919" data-name="Path 919" d="M152.321,105.859v2.691a2.551,2.551,0,0,1-.28,1.367,2.175,2.175,0,0,1-1.8.875,2.562,2.562,0,0,1-1.12-.26,1.887,1.887,0,0,1-.922-1.981v-2.691h1.216v3.006a1.294,1.294,0,0,0,.089.6.869.869,0,0,0,.779.328c.82,0,.82-.56.827-.935v-3Z" transform="translate(-148.201 -105.852)" fill="#fff"></path><path id="Path_920" data-name="Path 920" d="M154.414,107.559a1.031,1.031,0,0,1,.356-.281,1.739,1.739,0,0,1,.648-.129,1.358,1.358,0,0,1,.636.143c.376.2.472.52.472,1.073V110.8H155.48V108.8a1.438,1.438,0,0,0-.047-.532.48.48,0,0,0-.472-.273c-.553,0-.553.444-.553.888V110.8h-1.052v-3.559h1.059Z" transform="translate(-148.687 -105.974)" fill="#fff"></path><path id="Path_921" data-name="Path 921" d="M157.459,105.851H158.5v.813h-1.039Zm0,1.257H158.5v3.573h-1.039Z" transform="translate(-149.075 -105.851)" fill="#fff"></path><path id="Path_922" data-name="Path 922" d="M158.946,107.247h1.107a22.01,22.01,0,0,1,.628,2.6c.144-.792.164-.881.376-1.722l.219-.875h1.079l-1.155,3.566h-1.1Z" transform="translate(-149.215 -105.983)" fill="#fff"></path><path id="Path_923" data-name="Path 923" d="M166.276,109.893a2.714,2.714,0,0,1-.43.532,1.959,1.959,0,0,1-1.346.506,1.7,1.7,0,0,1-1.8-1.845,1.784,1.784,0,0,1,1.831-1.968,1.728,1.728,0,0,1,1.284.513,2.393,2.393,0,0,1,.506,1.6h-2.549a.8.8,0,0,0,.813.888.943.943,0,0,0,.9-.628Zm-1.045-1.319a.849.849,0,0,0-.2-.505.738.738,0,0,0-.513-.2.721.721,0,0,0-.533.232.933.933,0,0,0-.212.472Z" transform="translate(-149.569 -105.971)" fill="#fff"></path><path id="Path_924" data-name="Path 924" d="M168.187,107.611a1.658,1.658,0,0,1,1.032-.409v.929l-.349.054c-.506.089-.657.164-.657.615v2.009h-1.051v-3.573h1.024Z" transform="translate(-149.991 -105.979)" fill="#fff"></path><path id="Path_925" data-name="Path 925" d="M170.066,109.6a1.523,1.523,0,0,0,1.039.493c.253,0,.636-.082.636-.349a.216.216,0,0,0-.137-.2A2.227,2.227,0,0,0,171,109.4a3.967,3.967,0,0,1-.479-.11,1.34,1.34,0,0,1-.594-.308.958.958,0,0,1-.266-.669c0-.588.505-1.2,1.5-1.2a2.618,2.618,0,0,1,1.592.532l-.649.6a1.493,1.493,0,0,0-.9-.355c-.409,0-.505.164-.505.266,0,.2.225.246.567.308.718.129,1.551.321,1.551,1.168s-.848,1.25-1.688,1.25a2.347,2.347,0,0,1-1.728-.69Z" transform="translate(-150.203 -105.971)" fill="#fff"></path><path id="Path_926" data-name="Path 926" d="M173.538,105.851h1.039v.813h-1.039Zm0,1.257h1.039v3.573h-1.039Z" transform="translate(-150.593 -105.851)" fill="#fff"></path><path id="Path_927" data-name="Path 927" d="M175.612,106.108h1.045v1.113h.69v.643h-.7v1.606c-.007.218-.007.4.273.4l.376-.014v.82a3.34,3.34,0,0,1-.553.055,1.091,1.091,0,0,1-.984-.349,1.384,1.384,0,0,1-.15-.807v-1.722h-.519v-.642h.519Z" transform="translate(-150.74 -105.875)" fill="#fff"></path><path id="Path_928" data-name="Path 928" d="M181.271,107.247l-1.257,3.853a1.793,1.793,0,0,1-.335.649.916.916,0,0,1-.759.287h-.758V111.2h.369c.171-.006.437-.006.437-.259a.955.955,0,0,0-.048-.253l-1.066-3.444h1.121l.587,2.556.588-2.556Z" transform="translate(-151.001 -105.983)" fill="#fff"></path></g></g><path id="Path_929" data-name="Path 929" d="M85.521,30.749c.08-.442.235-.674.444-.674s.362.129.7.8l7.089,14.649L100.82,30.7c.206-.417.333-.623.569-.623s.39.258.467.8l2.364,16.053c.235,1.635.493,2.388,1.272,2.621a5.169,5.169,0,0,0,1.609.262c.235,0,.417.024.417.179,0,.212-.313.287-.674.287-.65,0-4.238-.075-5.275-.157-.6-.053-.751-.13-.751-.286,0-.13.1-.2.286-.285.157-.053.23-.389.128-1.116L99.676,37.006h-.1L93.91,48.8c-.6,1.219-.725,1.453-.961,1.453s-.491-.52-.909-1.3c-.624-1.2-2.674-5.171-2.985-5.9-.235-.545-1.792-3.819-2.7-5.765h-.105L84.9,47.631a10.531,10.531,0,0,0-.079,1.22c0,.5.34.729.782.832a4.994,4.994,0,0,0,1.091.13c.206,0,.39.049.39.179,0,.234-.235.287-.625.287-1.092,0-2.261-.075-2.729-.075-.492,0-1.736.075-2.569.075-.26,0-.465-.053-.465-.287,0-.13.155-.179.416-.179a3.286,3.286,0,0,0,.778-.079c.726-.155.933-1.169,1.065-2.053Z" transform="translate(0 0)" fill="#fff"></path><path id="Path_930" data-name="Path 930" d="M112.108,48.509a8.528,8.528,0,0,1-.182-12.572c1.661-1.453,3.843-2.337,7.248-2.337a23.432,23.432,0,0,1,3.326.235c.855.128,1.607.286,2.282.363.261.024.337.132.337.26,0,.181-.051.443-.1,1.223-.051.726-.051,1.947-.081,2.389-.025.31-.1.544-.31.544-.183,0-.234-.182-.234-.468a3.115,3.115,0,0,0-.885-2.051,6.466,6.466,0,0,0-4.414-1.3,6.145,6.145,0,0,0-4.31,1.248c-1.691,1.453-2.107,3.582-2.107,5.74a7.36,7.36,0,0,0,7.114,7.736c2.029,0,3.147-.154,4.056-1.168a3.549,3.549,0,0,0,.779-1.479c.053-.336.1-.445.284-.445.157,0,.261.21.261.395a19.994,19.994,0,0,1-.492,2.934.776.776,0,0,1-.6.647,13.4,13.4,0,0,1-4.128.5c-3.115,0-5.768-.651-7.844-2.39" transform="translate(-2.696 -0.333)" fill="#fff"></path><path id="Path_931" data-name="Path 931" d="M132.318,47.834a9.8,9.8,0,0,1-3.223-7.662,9.776,9.776,0,0,1,3.04-7.115c1.869-1.715,4.338-2.751,8.207-2.751a25.792,25.792,0,0,1,3.763.256c.988.131,1.822.363,2.6.445.283.024.386.152.386.308,0,.208-.077.52-.125,1.429-.053.858-.025,2.287-.079,2.8-.03.391-.078.6-.312.6-.21,0-.259-.209-.259-.573a3.732,3.732,0,0,0-1.013-2.39c-.859-.9-2.883-1.61-5.276-1.61a6.772,6.772,0,0,0-4.878,1.61c-1.9,1.74-2.391,4.21-2.391,6.728,0,6.181,4.7,9.242,8.179,9.242,2.315,0,3.716-.261,4.753-1.451a4.319,4.319,0,0,0,.885-1.715c.079-.416.13-.52.337-.52.178,0,.234.182.234.392a24.566,24.566,0,0,1-.571,3.453.914.914,0,0,1-.675.753,15.085,15.085,0,0,1-4.677.6c-3.557,0-6.544-.779-8.906-2.832" transform="translate(-4.57 -0.022)" fill="#fff"></path><path id="Path_932" data-name="Path 932" d="M155.468,45.033c-.128,0-.155.027-.208.158l-1.222,2.959A4.042,4.042,0,0,0,153.7,49.5c0,.388.207.624.907.624h.338c.286,0,.34.1.34.234,0,.181-.129.231-.363.231-.755,0-1.82-.075-2.547-.075-.231,0-1.453.075-2.647.075-.289,0-.416-.05-.416-.231a.223.223,0,0,1,.256-.234c.207,0,.471-.028.676-.028,1.04-.153,1.43-.83,1.9-1.947l5.971-13.9c.261-.62.441-.878.677-.878.334,0,.438.209.669.7.55,1.219,4.366,10.257,5.821,13.607.882,2,1.536,2.287,1.947,2.364a5.708,5.708,0,0,0,.857.079c.211,0,.312.078.312.234,0,.181-.127.231-.986.231-.8,0-2.467,0-4.389-.05-.417-.025-.676-.025-.676-.181,0-.132.053-.21.286-.234a.348.348,0,0,0,.208-.494l-1.765-4.439a.218.218,0,0,0-.235-.158Zm4.88-1.219c.106,0,.134-.053.106-.13l-2.154-5.61c-.028-.081-.053-.208-.1-.208-.079,0-.1.128-.127.208l-2.211,5.584c-.052.1,0,.157.078.157Z" transform="translate(-6.479 -0.311)" fill="#fff"></path><path id="Path_933" data-name="Path 933" d="M172.647,40.334c0-3.349,0-3.973-.024-4.674-.053-.753-.286-1.013-.781-1.168a2.921,2.921,0,0,0-.827-.105c-.235,0-.365-.054-.365-.26,0-.13.18-.184.542-.184.862,0,2.416.054,3.065.054.571,0,2.051-.054,2.933-.054.289,0,.467.054.467.184,0,.206-.128.26-.36.26a3.241,3.241,0,0,0-.677.078c-.623.1-.8.415-.854,1.2-.056.7-.056,1.325-.056,4.674v3.894c0,2.132,0,3.9.107,4.832.076.6.231.937.907,1.039a8.734,8.734,0,0,0,1.168.075c.259,0,.366.133.366.237,0,.154-.183.235-.444.235-1.506,0-3.063-.081-3.687-.081-.52,0-2.074.081-2.987.081-.286,0-.443-.081-.443-.235,0-.1.081-.237.365-.237a3.465,3.465,0,0,0,.806-.075c.466-.1.6-.415.675-1.064.1-.908.1-2.675.1-4.807Z" transform="translate(-8.494 -0.365)" fill="#fff"></path><path id="Path_934" data-name="Path 934" d="M184.815,47.592c.051,1.714.338,2.234.779,2.389a3.968,3.968,0,0,0,1.2.152c.261,0,.39.11.39.238,0,.181-.206.233-.52.233-1.481,0-2.546-.08-2.959-.08-.21,0-1.3.08-2.47.08-.314,0-.52-.025-.52-.233,0-.129.159-.238.363-.238a4.778,4.778,0,0,0,1.04-.1c.6-.156.676-.752.7-2.674l.206-13.093c0-.438.152-.751.39-.751.286,0,.6.34.986.729.284.283,3.714,3.79,7.038,7.036,1.557,1.533,4.594,4.649,4.934,4.963h.106l-.235-9.816c-.027-1.353-.234-1.744-.778-1.952a3.857,3.857,0,0,0-1.2-.13c-.286,0-.365-.1-.365-.232,0-.186.238-.212.575-.212,1.194,0,2.414.055,2.906.055.261,0,1.118-.055,2.236-.055.312,0,.515.026.515.212,0,.129-.127.232-.388.232a2.269,2.269,0,0,0-.7.079c-.624.183-.807.573-.834,1.818l-.258,13.92c0,.5-.183.705-.365.705a1.363,1.363,0,0,1-.935-.472c-1.425-1.323-4.287-4.052-6.669-6.364-2.5-2.387-4.911-5.061-5.352-5.453h-.081Z" transform="translate(-9.444 -0.325)" fill="#fff"></path><path id="Path_935" data-name="Path 935" d="M99.562,60.454c0-2.363,0-2.8-.033-3.295-.028-.529-.185-.792-.525-.872a2.279,2.279,0,0,0-.561-.062c-.155,0-.248-.03-.248-.156,0-.091.125-.122.373-.122.588,0,1.568.045,2.019.045.389,0,1.308-.045,1.9-.045.2,0,.328.031.328.122,0,.126-.094.156-.25.156a2.748,2.748,0,0,0-.466.046c-.419.081-.542.342-.573.887-.033.5-.033.932-.033,3.295v2.735c0,1.506,0,2.734.063,3.4.046.42.154.7.62.762a6.8,6.8,0,0,0,.791.062c.171,0,.25.047.25.125,0,.109-.124.156-.3.156-1.024,0-2-.047-2.424-.047-.359,0-1.338.047-1.956.047-.206,0-.312-.047-.312-.156,0-.078.062-.125.248-.125a2.625,2.625,0,0,0,.56-.062c.311-.062.4-.328.449-.778.079-.652.079-1.88.079-3.386Z" transform="translate(-1.653 -2.443)" fill="#fff"></path><path id="Path_936" data-name="Path 936" d="M106.6,66.052c.031,1.025.2,1.335.465,1.428a2.323,2.323,0,0,0,.714.093c.157,0,.235.062.235.139,0,.11-.126.141-.311.141-.887,0-1.523-.048-1.772-.048-.124,0-.776.048-1.477.048-.185,0-.311-.016-.311-.141,0-.077.093-.139.217-.139a2.837,2.837,0,0,0,.622-.062c.357-.1.4-.45.419-1.6l.124-7.831c0-.264.093-.449.233-.449.172,0,.359.2.591.436.171.168,2.221,2.266,4.211,4.208.933.918,2.749,2.782,2.954,2.969h.061l-.139-5.873c-.017-.81-.142-1.043-.467-1.167a2.289,2.289,0,0,0-.715-.078c-.17,0-.218-.06-.218-.139,0-.11.141-.125.342-.125.714,0,1.446.033,1.741.033.157,0,.669-.033,1.338-.033.186,0,.309.015.309.125,0,.08-.077.139-.232.139a1.391,1.391,0,0,0-.421.047c-.372.109-.479.343-.5,1.088l-.155,8.329c0,.3-.109.421-.218.421a.806.806,0,0,1-.559-.281c-.855-.792-2.566-2.424-3.994-3.808-1.491-1.43-2.937-3.028-3.2-3.263h-.048Z" transform="translate(-2.214 -2.602)" fill="#fff"></path><path id="Path_937" data-name="Path 937" d="M118.292,67.686c-.219-.092-.265-.155-.265-.449,0-.716.063-1.539.077-1.757s.063-.343.173-.343.14.126.14.219a2.512,2.512,0,0,0,.122.684,2.114,2.114,0,0,0,2.176,1.3,1.713,1.713,0,0,0,1.9-1.677c0-.574-.141-1.151-1.35-1.864l-.794-.467c-1.614-.947-2.144-1.834-2.144-3,0-1.615,1.554-2.659,3.448-2.659a7.971,7.971,0,0,1,1.943.221c.125.029.186.076.186.168,0,.171-.046.545-.046,1.585,0,.283-.062.421-.171.421-.093,0-.139-.078-.139-.234a1.491,1.491,0,0,0-.357-.869,1.841,1.841,0,0,0-1.523-.621c-.978,0-1.865.511-1.865,1.414,0,.59.216,1.056,1.445,1.74l.56.312c1.8.994,2.362,2,2.362,3.2a2.824,2.824,0,0,1-1.367,2.47,3.982,3.982,0,0,1-2.282.545,5.807,5.807,0,0,1-2.223-.343" transform="translate(-3.525 -2.606)" fill="#fff"></path><path id="Path_938" data-name="Path 938" d="M129.841,58.674l-2.037.048c-.792.014-1.119.107-1.321.4a1.6,1.6,0,0,0-.234.451c-.03.108-.062.172-.153.172s-.127-.078-.127-.217c0-.217.265-1.493.3-1.6.032-.169.079-.249.156-.249.11,0,.248.11.59.155a12.227,12.227,0,0,0,1.367.066h5.549a5.659,5.659,0,0,0,.932-.066c.217-.029.326-.061.372-.061.093,0,.11.078.11.28,0,.281-.034,1.26-.034,1.6-.014.139-.043.217-.122.217-.109,0-.14-.062-.156-.264l-.015-.14c-.033-.342-.388-.744-1.616-.76l-1.726-.033v5.347c0,1.212.016,2.253.078,2.827.046.374.124.623.528.684a5.19,5.19,0,0,0,.7.047c.153,0,.216.078.216.139,0,.094-.11.14-.265.14-.9,0-1.818-.046-2.207-.046-.31,0-1.242.046-1.788.046-.168,0-.263-.046-.263-.14,0-.061.047-.139.216-.139a1.963,1.963,0,0,0,.484-.047c.279-.061.358-.31.4-.7.062-.558.062-1.6.062-2.811Z" transform="translate(-4.275 -2.606)" fill="#fff"></path><path id="Path_939" data-name="Path 939" d="M138.629,61.708c0-2,0-2.377-.014-2.8-.032-.449-.172-.606-.469-.7a1.765,1.765,0,0,0-.5-.062c-.14,0-.217-.032-.217-.155,0-.078.11-.11.326-.11.513,0,1.447.032,1.833.032.341,0,1.23-.032,1.756-.032.172,0,.281.032.281.11,0,.123-.078.155-.218.155a1.979,1.979,0,0,0-.4.047c-.373.062-.482.248-.513.715-.032.42-.032.793-.032,2.8v2.33c0,1.275,0,2.333.062,2.892.048.358.14.561.544.621a5.158,5.158,0,0,0,.7.046c.156,0,.217.078.217.139,0,.093-.107.141-.263.141-.9,0-1.835-.048-2.207-.048-.309,0-1.243.048-1.788.048-.171,0-.264-.048-.264-.141,0-.062.046-.139.216-.139a2.007,2.007,0,0,0,.481-.046c.282-.061.358-.248.407-.638.062-.542.062-1.6.062-2.875Z" transform="translate(-5.357 -2.626)" fill="#fff"></path><path id="Path_940" data-name="Path 940" d="M147,58.674l-2.036.048c-.792.014-1.117.107-1.319.4a1.645,1.645,0,0,0-.235.451c-.031.108-.062.172-.154.172s-.125-.078-.125-.217c0-.217.266-1.493.3-1.6.032-.169.078-.249.157-.249.107,0,.248.11.589.155a12.265,12.265,0,0,0,1.367.066h5.549a5.645,5.645,0,0,0,.931-.066c.217-.029.328-.061.373-.061.094,0,.11.078.11.28,0,.281-.033,1.26-.033,1.6-.016.139-.046.217-.123.217-.11,0-.14-.062-.157-.264l-.015-.14c-.034-.342-.389-.744-1.615-.76l-1.727-.033v5.347c0,1.212.015,2.253.079,2.827.046.374.125.623.53.684a5.117,5.117,0,0,0,.7.047c.156,0,.216.078.216.139,0,.094-.106.14-.262.14-.9,0-1.819-.046-2.211-.046-.308,0-1.239.046-1.784.046-.171,0-.264-.046-.264-.14,0-.061.046-.139.217-.139a1.933,1.933,0,0,0,.481-.047c.282-.061.359-.31.4-.7.063-.558.063-1.6.063-2.811Z" transform="translate(-5.895 -2.606)" fill="#fff"></path><path id="Path_941" data-name="Path 941" d="M155.371,61.708c0-2,.017-2.377-.014-2.8-.031-.466-.156-.588-.59-.715a2.515,2.515,0,0,0-.527-.047c-.157,0-.235-.044-.235-.139s.094-.125.3-.125c.732,0,1.648.032,2.052.032.341,0,1.256-.032,1.756-.032.2,0,.294.032.294.125s-.077.139-.217.139a1.994,1.994,0,0,0-.4.047c-.355.062-.465.248-.5.715-.031.42-.031.793-.031,2.8v1.848c0,1.928.373,2.675,1.04,3.2a2.629,2.629,0,0,0,1.724.53,2.6,2.6,0,0,0,1.834-.7c.763-.714.8-1.864.8-3.216V61.708c0-2-.018-2.377-.032-2.8-.033-.449-.142-.588-.577-.715a2.4,2.4,0,0,0-.5-.047c-.156,0-.234-.044-.234-.139s.093-.125.279-.125c.7,0,1.617.032,1.633.032.156,0,1.075-.032,1.6-.032.187,0,.282.032.282.125s-.079.139-.235.139a2,2,0,0,0-.4.047c-.374.062-.466.248-.5.715-.014.42-.029.793-.029,2.8v1.414c0,1.478-.156,3.031-1.308,3.979a4.255,4.255,0,0,1-2.889.945,4.719,4.719,0,0,1-3.125-.9,4.242,4.242,0,0,1-1.243-3.5Z" transform="translate(-6.922 -2.626)" fill="#fff"></path><path id="Path_942" data-name="Path 942" d="M170.639,58.674l-2.035.048c-.792.014-1.117.107-1.319.4a1.62,1.62,0,0,0-.235.451c-.027.108-.062.172-.155.172s-.124-.078-.124-.217c0-.217.265-1.493.3-1.6.029-.169.076-.249.157-.249.106,0,.248.11.588.155a12.254,12.254,0,0,0,1.367.066h5.549a5.628,5.628,0,0,0,.931-.066c.217-.029.327-.061.373-.061.1,0,.11.078.11.28,0,.281-.032,1.26-.032,1.6-.015.139-.048.217-.125.217-.11,0-.139-.062-.156-.264l-.015-.14c-.032-.342-.39-.744-1.617-.76l-1.724-.033v5.347c0,1.212.017,2.253.078,2.827.046.374.127.623.53.684a5.1,5.1,0,0,0,.7.047c.156,0,.217.078.217.139,0,.094-.106.14-.264.14-.9,0-1.818-.046-2.206-.046-.312,0-1.242.046-1.788.046-.17,0-.263-.046-.263-.14,0-.061.045-.139.216-.139a1.924,1.924,0,0,0,.481-.047c.283-.061.36-.31.4-.7.061-.558.061-1.6.061-2.811Z" transform="translate(-8.127 -2.606)" fill="#fff"></path><path id="Path_943" data-name="Path 943" d="M179.41,61.7c0-2,0-2.377-.016-2.8-.031-.449-.156-.588-.59-.715a2.57,2.57,0,0,0-.545-.047c-.14,0-.23-.044-.23-.139s.107-.125.31-.125c.713,0,1.586.032,1.971.032.437,0,3.467.016,3.73,0a5.58,5.58,0,0,0,.575-.078,1.593,1.593,0,0,1,.218-.061c.08,0,.092.061.092.122a5.947,5.947,0,0,0-.108.857c-.015.139-.047.713-.077.869-.017.062-.048.218-.156.218s-.11-.063-.11-.173a1.261,1.261,0,0,0-.092-.48c-.11-.234-.217-.419-.9-.483-.235-.03-1.866-.062-2.146-.062-.063,0-.094.047-.094.125v3.262c0,.078.015.14.094.14.31,0,2.083,0,2.392-.033.328-.03.529-.061.655-.2.108-.093.156-.17.217-.17s.107.062.107.139-.03.3-.107.963c-.033.264-.062.794-.062.887,0,.109-.018.294-.141.294-.1,0-.124-.045-.124-.11-.016-.139-.016-.309-.046-.481-.077-.264-.248-.466-.762-.512-.248-.033-1.8-.063-2.142-.063-.065,0-.081.063-.081.14v1.057c0,.449-.014,1.57,0,1.958.031.9.454,1.1,1.85,1.1a3.692,3.692,0,0,0,1.29-.171c.341-.154.5-.435.59-.978.029-.139.063-.2.158-.2s.122.169.122.31a8.8,8.8,0,0,1-.187,1.461c-.093.342-.217.342-.729.342-1.028,0-1.852-.015-2.519-.047-.667-.014-1.182-.032-1.585-.032-.156,0-.45.017-.775.017s-.67.031-.948.031c-.171,0-.264-.048-.264-.141,0-.062.046-.139.219-.139a2.031,2.031,0,0,0,.479-.046c.282-.061.359-.311.4-.7.063-.56.063-1.6.063-2.815Z" transform="translate(-9.19 -2.615)" fill="#fff"></path><path id="Path_944" data-name="Path 944" d="M182.48,81.01c-.3.077-18.023,10.576-45.538,10.464s-44.785-10-44.785-10,12.317,12.876,44.565,12.932S182.48,81.01,182.48,81.01Z" transform="translate(-1.082 -4.809)" fill="#a45d43"></path><path id="Path_945" data-name="Path 945" d="M175.028,78.342c-.25.049-14.861,6.783-37.548,6.71s-36.927-6.411-36.927-6.411S110.709,86.9,137.3,86.935,175.028,78.342,175.028,78.342Z" transform="translate(-1.875 -4.557)" fill="#a45d43"></path></g></svg>