<svg width="32" height="32" viewBox="0 0 32 32" fill="none" xmlns="http://www.w3.org/2000/svg">
<path d="M16.0003 29.3327C14.1559 29.3327 12.4225 28.9827 10.8003 28.2827C9.1781 27.5827 7.76699 26.6327 6.56699 25.4327C5.36699 24.2327 4.41699 22.8216 3.71699 21.1993C3.01699 19.5771 2.66699 17.8438 2.66699 15.9993C2.66699 14.1549 3.01699 12.4216 3.71699 10.7993C4.41699 9.17713 5.36699 7.76602 6.56699 6.56602C7.76699 5.36602 9.1781 4.41602 10.8003 3.71602C12.4225 3.01602 14.1559 2.66602 16.0003 2.66602C17.8448 2.66602 19.5781 3.01602 21.2003 3.71602C22.8225 4.41602 24.2337 5.36602 25.4337 6.56602C26.6337 7.76602 27.5837 9.17713 28.2837 10.7993C28.9837 12.4216 29.3337 14.1549 29.3337 15.9993C29.3337 17.8438 28.9837 19.5771 28.2837 21.1993C27.5837 22.8216 26.6337 24.2327 25.4337 25.4327C24.2337 26.6327 22.8225 27.5827 21.2003 28.2827C19.5781 28.9827 17.8448 29.3327 16.0003 29.3327ZM14.667 26.5993V23.9993C13.9337 23.9993 13.3059 23.7382 12.7837 23.216C12.2614 22.6938 12.0003 22.066 12.0003 21.3327V19.9993L5.60033 13.5993C5.53366 13.9993 5.47255 14.3993 5.41699 14.7993C5.36144 15.1993 5.33366 15.5993 5.33366 15.9993C5.33366 18.6882 6.21699 21.0438 7.98366 23.066C9.75033 25.0882 11.9781 26.266 14.667 26.5993ZM23.867 23.1993C24.3114 22.7105 24.7114 22.1827 25.067 21.616C25.4225 21.0493 25.717 20.4605 25.9503 19.8493C26.1837 19.2382 26.3614 18.6105 26.4837 17.966C26.6059 17.3216 26.667 16.666 26.667 15.9993C26.667 13.8216 26.0614 11.8327 24.8503 10.0327C23.6392 8.23268 22.0225 6.93268 20.0003 6.13268V6.66602C20.0003 7.39935 19.7392 8.02713 19.217 8.54935C18.6948 9.07157 18.067 9.33268 17.3337 9.33268H14.667V11.9993C14.667 12.3771 14.5392 12.6938 14.2837 12.9493C14.0281 13.2049 13.7114 13.3327 13.3337 13.3327H10.667V15.9993H18.667C19.0448 15.9993 19.3614 16.1271 19.617 16.3827C19.8725 16.6382 20.0003 16.9549 20.0003 17.3327V21.3327H21.3337C21.9114 21.3327 22.4337 21.5049 22.9003 21.8493C23.367 22.1938 23.6892 22.6438 23.867 23.1993Z" fill="#041E49"/>
</svg>
