<svg width="32" height="32" viewBox="0 0 32 32" fill="none" xmlns="http://www.w3.org/2000/svg">
<path d="M3.99967 24C3.26634 24 2.63856 23.7389 2.11634 23.2167C1.59412 22.6944 1.33301 22.0667 1.33301 21.3333C1.33301 20.6 1.59412 19.9722 2.11634 19.45C2.63856 18.9278 3.26634 18.6667 3.99967 18.6667H4.34967C4.44967 18.6667 4.55523 18.6889 4.66634 18.7333L10.733 12.6667C10.6886 12.5556 10.6663 12.45 10.6663 12.35V12C10.6663 11.2667 10.9275 10.6389 11.4497 10.1167C11.9719 9.59444 12.5997 9.33333 13.333 9.33333C14.0663 9.33333 14.6941 9.59444 15.2163 10.1167C15.7386 10.6389 15.9997 11.2667 15.9997 12C15.9997 12.0444 15.9775 12.2667 15.933 12.6667L19.333 16.0667C19.4441 16.0222 19.5497 16 19.6497 16H20.3497C20.4497 16 20.5552 16.0222 20.6663 16.0667L25.3997 11.3333C25.3552 11.2222 25.333 11.1167 25.333 11.0167V10.6667C25.333 9.93333 25.5941 9.30556 26.1163 8.78333C26.6386 8.26111 27.2663 8 27.9997 8C28.733 8 29.3608 8.26111 29.883 8.78333C30.4052 9.30556 30.6663 9.93333 30.6663 10.6667C30.6663 11.4 30.4052 12.0278 29.883 12.55C29.3608 13.0722 28.733 13.3333 27.9997 13.3333H27.6497C27.5497 13.3333 27.4441 13.3111 27.333 13.2667L22.5997 18C22.6441 18.1111 22.6663 18.2167 22.6663 18.3167V18.6667C22.6663 19.4 22.4052 20.0278 21.883 20.55C21.3608 21.0722 20.733 21.3333 19.9997 21.3333C19.2663 21.3333 18.6386 21.0722 18.1163 20.55C17.5941 20.0278 17.333 19.4 17.333 18.6667V18.3167C17.333 18.2167 17.3552 18.1111 17.3997 18L13.9997 14.6C13.8886 14.6444 13.783 14.6667 13.683 14.6667H13.333C13.2886 14.6667 13.0663 14.6444 12.6663 14.6L6.59967 20.6667C6.64412 20.7778 6.66634 20.8833 6.66634 20.9833V21.3333C6.66634 22.0667 6.40523 22.6944 5.88301 23.2167C5.36079 23.7389 4.73301 24 3.99967 24Z" fill="#041E49"/>
</svg>
