<svg width="32" height="32" viewBox="0 0 32 32" fill="none" xmlns="http://www.w3.org/2000/svg">
<path d="M22.6667 27.9993C21.2 27.9993 19.9444 27.4771 18.9 26.4327C17.8556 25.3882 17.3333 24.1327 17.3333 22.666C17.3333 21.1994 17.8556 19.9438 18.9 18.8993C19.9444 17.8549 21.2 17.3327 22.6667 17.3327C24.1333 17.3327 25.3889 17.8549 26.4333 18.8993C27.4778 19.9438 28 21.1994 28 22.666C28 24.1327 27.4778 25.3882 26.4333 26.4327C25.3889 27.4771 24.1333 27.9993 22.6667 27.9993ZM22.6667 25.3327C23.4 25.3327 24.0278 25.0716 24.55 24.5494C25.0722 24.0271 25.3333 23.3993 25.3333 22.666C25.3333 21.9327 25.0722 21.3049 24.55 20.7827C24.0278 20.2605 23.4 19.9993 22.6667 19.9993C21.9333 19.9993 21.3056 20.2605 20.7833 20.7827C20.2611 21.3049 20 21.9327 20 22.666C20 23.3993 20.2611 24.0271 20.7833 24.5494C21.3056 25.0716 21.9333 25.3327 22.6667 25.3327ZM9.33333 23.9993C7.86667 23.9993 6.61111 23.4771 5.56667 22.4327C4.52222 21.3882 4 20.1327 4 18.666C4 17.1993 4.52222 15.9438 5.56667 14.8993C6.61111 13.8549 7.86667 13.3327 9.33333 13.3327C10.8 13.3327 12.0556 13.8549 13.1 14.8993C14.1444 15.9438 14.6667 17.1993 14.6667 18.666C14.6667 20.1327 14.1444 21.3882 13.1 22.4327C12.0556 23.4771 10.8 23.9993 9.33333 23.9993ZM9.33333 21.3327C10.0667 21.3327 10.6944 21.0716 11.2167 20.5494C11.7389 20.0271 12 19.3993 12 18.666C12 17.9327 11.7389 17.3049 11.2167 16.7827C10.6944 16.2605 10.0667 15.9993 9.33333 15.9993C8.6 15.9993 7.97222 16.2605 7.45 16.7827C6.92778 17.3049 6.66667 17.9327 6.66667 18.666C6.66667 19.3993 6.92778 20.0271 7.45 20.5494C7.97222 21.0716 8.6 21.3327 9.33333 21.3327ZM14.6667 13.3327C13.2 13.3327 11.9444 12.8105 10.9 11.766C9.85556 10.7216 9.33333 9.46602 9.33333 7.99935C9.33333 6.53268 9.85556 5.27713 10.9 4.23268C11.9444 3.18824 13.2 2.66602 14.6667 2.66602C16.1333 2.66602 17.3889 3.18824 18.4333 4.23268C19.4778 5.27713 20 6.53268 20 7.99935C20 9.46602 19.4778 10.7216 18.4333 11.766C17.3889 12.8105 16.1333 13.3327 14.6667 13.3327ZM14.6667 10.666C15.4 10.666 16.0278 10.4049 16.55 9.88268C17.0722 9.36046 17.3333 8.73268 17.3333 7.99935C17.3333 7.26602 17.0722 6.63824 16.55 6.11602C16.0278 5.59379 15.4 5.33268 14.6667 5.33268C13.9333 5.33268 13.3056 5.59379 12.7833 6.11602C12.2611 6.63824 12 7.26602 12 7.99935C12 8.73268 12.2611 9.36046 12.7833 9.88268C13.3056 10.4049 13.9333 10.666 14.6667 10.666Z" fill="#041E49"/>
</svg>
