<svg width="32" height="32" viewBox="0 0 32 32" fill="none" xmlns="http://www.w3.org/2000/svg">
<path d="M12.8 20.8006L14.6667 18.8673L11.8 16.0007L14.6667 13.134L12.8 11.2007L8 16.0007L12.8 20.8006ZM19.2 20.8006L24 16.0007L19.2 11.2007L17.3333 13.134L20.2 16.0007L17.3333 18.8673L19.2 20.8006ZM6.66667 28.0006C5.93333 28.0006 5.30556 27.7395 4.78333 27.2173C4.26111 26.6951 4 26.0673 4 25.334V6.66732C4 5.93398 4.26111 5.30621 4.78333 4.78398C5.30556 4.26176 5.93333 4.00065 6.66667 4.00065H12.2667C12.5556 3.20065 13.0389 2.55621 13.7167 2.06732C14.3944 1.57843 15.1556 1.33398 16 1.33398C16.8444 1.33398 17.6056 1.57843 18.2833 2.06732C18.9611 2.55621 19.4444 3.20065 19.7333 4.00065H25.3333C26.0667 4.00065 26.6944 4.26176 27.2167 4.78398C27.7389 5.30621 28 5.93398 28 6.66732V25.334C28 26.0673 27.7389 26.6951 27.2167 27.2173C26.6944 27.7395 26.0667 28.0006 25.3333 28.0006H6.66667ZM6.66667 25.334H25.3333V6.66732H6.66667V25.334ZM16 5.66732C16.2889 5.66732 16.5278 5.57287 16.7167 5.38398C16.9056 5.1951 17 4.95621 17 4.66732C17 4.37843 16.9056 4.13954 16.7167 3.95065C16.5278 3.76176 16.2889 3.66732 16 3.66732C15.7111 3.66732 15.4722 3.76176 15.2833 3.95065C15.0944 4.13954 15 4.37843 15 4.66732C15 4.95621 15.0944 5.1951 15.2833 5.38398C15.4722 5.57287 15.7111 5.66732 16 5.66732Z" fill="#041E49"/>
</svg>
