<svg xmlns="http://www.w3.org/2000/svg" width="32" height="32" fill="none">
  <path fill="#fff" d="M3.629 9.234h24.737v12.863H3.629z" />
  <path fill="#000"
    d="M16.007 0a16 16 0 1 0-.014 32 16 16 0 0 0 .014-32Zm-4.48 18.24c0 1.92-1.665 3.262-3.773 3.262-2.177.003-3.79-1.343-3.79-3.262v-5.31c0-1.92 1.666-3.263 3.774-3.263 2.107 0 3.773 1.28 3.773 3.262v5.31h.017Zm8.833 2.945h-2.493l-1.791-3.704-.769-1.603v5.31H12.62V9.918h2.639l1.725 3.773.706 1.603V9.86h2.688v11.326h-.017Zm6.462-6.847v2.114h-2.243v2.114h3.463v2.639h-6.53V9.918h6.46v2.43H24.52v1.98h2.31l-.007.01Zm-19.13-2.243a.615.615 0 0 0-.706.574v5.7a.613.613 0 0 0 .706.573.615.615 0 0 0 .705-.574v-5.696a.66.66 0 0 0-.709-.577h.004Z" />
</svg>