<svg width="0" height="0" class="hidden">
	<symbol xmlns="http://www.w3.org/2000/svg" viewBox="0 0 100 100" id="aid">
		<path
			d="M50 99.72C22.58 99.72.28 77.42.28 50S22.58.27 50 .27 99.72 22.58 99.72 50 77.41 99.72 50 99.72Zm0-93.84C25.67 5.89 5.88 25.67 5.88 50S25.67 94.12 50 94.12 94.12 74.33 94.12 50 74.33 5.89 50 5.89Z"></path>
		<path
			d="M56.12 79.32H43.87c-3.23 0-5.86-2.63-5.86-5.86V62.23c0-.14-.11-.25-.25-.25H26.53c-3.23 0-5.86-2.63-5.86-5.86V43.87c0-3.23 2.63-5.86 5.86-5.86h11.23c.14 0 .25-.11.25-.25V26.53c0-3.23 2.63-5.86 5.86-5.86h12.25c3.23 0 5.86 2.63 5.86 5.86v11.23c0 .14.11.25.25.25h11.23c3.23 0 5.86 2.63 5.86 5.86v12.25c0 3.23-2.63 5.86-5.86 5.86H62.23c-.14 0-.25.11-.25.25v11.23c0 3.23-2.63 5.86-5.86 5.86Zm-29.58-35.7c-.14 0-.25.11-.25.25v12.25c0 .14.11.25.25.25h11.23c3.23 0 5.86 2.63 5.86 5.86v11.23c0 .14.11.25.25.25h12.25c.14 0 .25-.11.25-.25V62.23c0-3.23 2.63-5.86 5.86-5.86h11.23c.14 0 .25-.11.25-.25V43.87c0-.14-.11-.25-.25-.25H62.24c-3.23 0-5.86-2.63-5.86-5.86V26.53c0-.14-.11-.25-.25-.25H43.88c-.14 0-.25.11-.25.25v11.23c0 3.23-2.63 5.86-5.86 5.86H26.54Z"></path>
	</symbol>
	<symbol xmlns="http://www.w3.org/2000/svg" viewBox="0 0 100 100" id="climate">
		<path
			d="M34.74 75.69c0-4.91-2.07-9.57-5.71-12.85V18.5c.01-6.35-5.15-11.52-11.5-11.52h-.18C11 6.98 5.84 12.14 5.84 18.49v44.35C1.52 66.73-.54 72.45.3 78.24c1.11 7.65 7.5 13.81 15.2 14.65.63.07 1.28.1 1.93.1 9.54 0 17.31-7.76 17.31-17.31Zm-10.18-9.34c2.94 2.25 4.62 5.66 4.62 9.34 0 3.13-1.23 6.08-3.45 8.31a11.67 11.67 0 0 1-8.31 3.44c-.44 0-.88-.02-1.32-.07-5.22-.57-9.55-4.74-10.3-9.92-.62-4.32 1.06-8.47 4.5-11.1.68-.52 1.09-1.35 1.09-2.21V18.5a5.96 5.96 0 0 1 1.76-4.21 5.908 5.908 0 0 1 4.21-1.75h.18c3.29 0 5.96 2.67 5.96 5.96v45.64c-.01.86.39 1.68 1.08 2.21Z"></path>
		<path
			d="M17.44 16.07c-.74 0-1.44.29-1.96.81s-.81 1.22-.81 1.96l-.02 56.84c0 .74.29 1.44.81 1.96s1.22.81 1.96.81c1.53 0 2.78-1.25 2.78-2.78l.02-56.84c0-1.53-1.25-2.78-2.78-2.78ZM50 .27c-6.83 0-13.34 1.39-19.27 3.89 3.47 3.19 5.78 7.61 6.23 12.57.58-3.29 1.23-6.46 1.95-9.44 2.61-.68 5.32-1.12 8.1-1.31v18.89c-3.13.1-6.48.31-9.96.65v5.52c3.25-.29 6.58-.48 9.96-.57V47.2h-9.96v5.61h9.96v18.5c-1.57-.04-3.14-.1-4.69-.19.28 1.5.43 3.03.43 4.58 0 .34-.01.67-.03 1 1.46.09 2.9.16 4.29.21v17.1c-2.43-.17-4.81-.53-7.12-1.07-.33-1.26-.65-2.56-.96-3.89a25.445 25.445 0 0 1-6.9 7.31 49.5 49.5 0 0 0 17.98 3.38c27.42 0 49.72-22.31 49.72-49.72S77.42.27 50 .27Zm44.02 46.92H73.21c0-4.46-.26-9.71-.77-15.3 7.04.97 13.6 2.37 19.37 4.04 1.21 3.57 1.97 7.35 2.22 11.26Zm-4.93-17.61c-5.61-1.38-11.49-2.46-17.23-3.24-.62-5.3-1.47-10.75-2.54-16A44.445 44.445 0 0 1 89.1 29.58Zm-22.92-3.93c-4.66-.49-9.12-.77-13.17-.84V5.99c3.45.23 6.8.86 9.99 1.85 1.29 5.47 2.38 11.52 3.17 17.82Zm-4.14 66.78c-2.9.82-5.92 1.36-9.03 1.57V76.93c3.8-.07 7.96-.31 12.31-.75-.9 5.82-2.02 11.33-3.29 16.24Zm4.07-21.82c-4.25.41-8.64.65-13.09.72V52.8h14.51c-.19 5.96-.68 11.98-1.41 17.81ZM53.01 47.19V30.43c4.7.06 9.32.33 13.78.78.51 5.31.8 10.71.81 15.98H53.01ZM68.4 90.08c1.07-4.69 1.95-9.62 2.66-14.55 5.61-.74 11.37-1.76 16.9-3.07A44.434 44.434 0 0 1 68.4 90.09Zm22.7-24.04c-5.78 1.63-12.31 2.98-19.31 3.92.71-6.06 1.15-11.95 1.33-17.16h20.91c-.29 4.64-1.31 9.09-2.93 13.24Z"></path>
	</symbol>
	<symbol xmlns="http://www.w3.org/2000/svg" viewBox="0 0 80 85" id="countries">
		<path fill-rule="evenodd"
			  d="m31.5.1-.4.2h-1.7c-.2-.2-.5-.2-1 0a2 2 0 0 1-1 0l-1.5.1-2.1.3c-.6 0-1.2.2-1.5.5-.1.2-.2.2-.3.1-.5 0-.8 0-1.1.5l-.3.2h-.7c0-.2-.5-.2-1.3-.2h-.7l-.3-.5c-.1-.3-.2-.3-.3-.3-.8 0-1.2.2-2 1.5-.4.6-.4.6-.7.7-.8.3-1.7.8-2.3 1.4l-.4.5-.1.3a3 3 0 0 0-.7 1.1l-.2.9-.1.7-.8.7c-.2 0-.3.2-.4.3l-1.4.6-.8.2c-.2 0-1.2 1-1.1 1h.3s-.4.5-.7.6c-.5.3-.9.7-1.1 1.4-.2.5-.2.5-1.1 1.6a7.997 7.997 0 0 0-1 1.2c0 .2-.1.4-.4.6-.3.2-.6.8-.8 1.4l-.2 1.7v.2l.3-.3.3-.2v.2l.2.1-.2.4-.3.5.2.3.2.3v.7c0 .7 0 .8-.3 1.3l-.4 1-.2.6c0 .2 0 .2-.4.6l-.5.6-.2.2.4.6c.4.6.4.7.3 1-.156.324-.29.658-.4 1 .1 0 .2.1.2.4v.5h.3c.2.1.2.2.2.3l.3.2.2.2.3.1.1.1.2.4.3.3c0 .1.2.4.5.5 0 .2.3.6.5.7.2 0 .4.3.6.6l.2 1.2c0 .1 0 .2.2.3l.2.3c0 .2 0 .2.3.4l.4.3c0 .1.2.3.6.5l1 .6 2.7 2.3 1.1.5 1 .3v-.1l.4-.2 1.7-.5 1.4-.4.6.1c.4 0 .7.1 1.3.4l.7.2h.2l1-.6c.9-.4 1.5-.6 2-.6.3 0 .5-.1.7-.3 0-.1.4-.3.8-.3h.4c.7-.051 1.4-.051 2.1 0 .3.1.6.4.8.9.3.9.8 1.3 1.4 1.4.4 0 .9-.1 1-.3h.4l.7.1h.7l.1.2.4.3.3.3.2.2v.5c-.1.5-.1.6-.5 1.2l-.3.7v.1c.4.2.4.2.3.3l-.2.6v.6l-.3.2-.3.3.3.9.3.8 1 1c.9.9 1.8 2 2.2 2.6h.4-.1c-.2.2-.2.3 0 1l.2.6v.2l.2.1c.227.569.46 1.136.7 1.7l.1.4-.2.2-.1.1.1.6.6 1.4c.2.2.2.2 0 1.3-.1.4-.1.4-.3.5l-.5.6-.2.2-.2.3-.6 2.2-.2.7-.2.3v.7l-.1.5c0 .2 0 .2.3.3l.2.1h-.5v.4c.1.7.4 1.2.7 1.6.2.1.7 1.1 2.2 3.8l.3.5v2l.3.4.2.8v.6l.3 1c.1 1 .2 1 .3 1.2l.7.7.5.5 1 1.9c.8 1.7 1 2 .7 2l-.4.6c0 .2 0 .6.2.6l.2.5.5.7c.1.3.9.9 1.1 1h.6l.5.1.2-.2.8-.1c.6 0 .8 0 1-.3.1-.1.3-.2.6 0h.3l1.8.2.2-.2h1l.1-.2v-.1h.8l.5-.4a63.295 63.295 0 0 0 4.2-4c.467-.44.969-.84 1.5-1.2.5-.4 1-1 1.2-2l.6-2 1-.4c1.1-.5 1.2-.5 1.8-1.4l.3-.6a1 1 0 0 1-.3-.2l.3-1 .2-.8-.2-.1c-.2 0-.2 0-.3-1 0-.4-.1-.6-.2-.6-.2-.2-.3-.2-.2-.3l1-1 .2.2v.1l.3-.2c.377-.425.744-.858 1.1-1.3 0-.1.1-.2.8-.5l1-.4c.3 0 .3 0 .7-.3l.7-.4c.3-.2.3-.2.3-.4v-.2l.4-.3.4-.2h.2v-.5c0-.3 0-.5.2-.6a1.2 1.2 0 0 0 0-1.2v-2.7l.2-.4c.2-.3.2-.4.2-.7v-.3c.1 0 .1 0 0-.1l-.1-.4c-.2-.5-.2-.5-.3-.4h-.2l-.2-.3a12.302 12.302 0 0 0-.3-1V54l-.1-.7c0-.4 0-.4.2-.6l.2-.2-.1-.2-.5-.7-.4-.4.3-.7c.1-.5.3-.9.5-1.1l.6-1.2c.3-.7.4-.8.6-.9l.4-.3c0-.2.2-.3.3-.4l.5-.5c.347-.417.714-.818 1.1-1.2a22.695 22.695 0 0 1 3-2.8c.2 0 .4-.2.9-.7 1.8-1.8 2-2 2.3-2.7l.9-1.2c.2-.3.3-.4.7-1.8a9.1 9.1 0 0 1 1.3-2.7c.2-.1.2-.2.2-.6 0-.7 0-.9.2-1l.1-1.7v-1h-.8a1 1 0 0 0-.8.1c-.3.3-.5.4-1 .4-.205.05-.406.118-.6.2h-.3l-.4.2c-.3.2-.4.2-.8.1h-.4l-.3.2-.4.3h-1.1l-.5.2-.6.4c-.3 0-.5-.2-.8-.5 0-.2-.3-.4-.3-.4l-.2-.4c.2-.4 0-1-.4-1.3l-.2-.3-.4-.3-.5-.5a1.999 1.999 0 0 0-.5-.3l-.2-.2-.5-.5c-.2-.3-.4-.4-.5-.4h-.2c0-.2-.2-.2-.4-.3-.2 0-.2 0-.2-.2s0-.2-.6-.3c-.2 0-.5-.5-.6-1-.2-.9-.4-1.2-1.2-2.3-.2-.3-.2-.4-.3-.3h-.3c-.1-.2-.3-.2-.3-.2l-.1-.2a230.49 230.49 0 0 1-.6-2.7 1 1 0 0 1-.2-.4c0-.3-.3-.6-.5-.8l-.7-.5c-.6-.4-.6-.4 0-.4h.5a20.012 20.012 0 0 1-1.8-1.8 137.22 137.22 0 0 1-1.5-2.9c.2 0 .3-.2.4-.4l.2-1 .2-1-.7-1.5a52.115 52.115 0 0 0-.8-1.5l-.5.3c-.7.5-1 .5-1.5.1l-.3-.2h-1.4l-1 .4c-.285.192-.586.36-.9.5l-1.5-.3c-1.6-.4-1.7-.4-2-.3l-.3-.1c-.1-.2-.5-.4-.7-.4a10.4 10.4 0 0 0-1.3-.1v-.4l-.4-.1-1.7-.3-.8.1-1.1.8c-.4.3-.4.8-.3 1.3.2.4.2.4 0 .6-.2.2-.4.2-.6 0-.2-.2-.2-.3-1-.5l-1.4-.3c-.6-.1-1-.4-.8-.6l-.1-.6-1.3-.5-1.6-.3c-.6 0-1 0-1.2-.2l-.2-.2-.1-.2-.2-.4-.2-.2.2-.2c.2 0 .3-.3.4-.4l.1-.6c0-.4-.2-.7-.3-.8l-.1-.1.2-.2c.3-.3.3-.7 0-1.1-.2-.4-.5-.4-1-.1 0 0-.1.1-.2 0V.2l-.8-.2-.4.1Zm45 58.6c-.6.3-.6.3-.6 1l-.1.2-.2.1-.3.1c-.3 0-.6.3-.6.7v.3a7.302 7.302 0 0 1-1.6 1.4l-.7.2v-.5l-.5.4-.5.5h-.7l-.2.5c0 .3-.1.4-.5 1l-.5.7.2.2c.3.3.3.4.4 1.6v1l-1 1.2c-.4.3-.5.6-.7 1-.2.9-.1 1.3.1 1.7.1.2.2.2.1.6l.1 1.6c.1.3.5.7.9 1l.5.5h.6l.5-.3c.3-.2.4-.2.7-.2.3 0 .8 0 1-.2a133.07 133.07 0 0 0 5.4-12l-.2-2-.1-1.6-.3-.3-.8-1-.5.5.1.1Z"
			  clip-rule="evenodd"></path>
	</symbol>
	<symbol xmlns="http://www.w3.org/2000/svg" viewBox="0 0 100 100" id="covid">
		<path
			d="M50 69.05c-5.05 0-9.9-2.01-13.47-5.58-3.57-3.57-5.58-8.42-5.58-13.47s2.01-9.9 5.58-13.47c3.57-3.57 8.42-5.58 13.47-5.58s9.9 2.01 13.47 5.58A19.06 19.06 0 0 1 69.05 50c0 5.05-2.01 9.89-5.59 13.46A19.089 19.089 0 0 1 50 69.05Zm0-33.33c-3.79 0-7.42 1.51-10.1 4.18-2.68 2.68-4.18 6.31-4.18 10.1s1.51 7.42 4.18 10.1c2.68 2.68 6.31 4.18 10.1 4.18s7.42-1.51 10.1-4.18a14.283 14.283 0 0 0-.01-20.2 14.326 14.326 0 0 0-10.1-4.19Zm0-9.53c-1.89 0-3.71-.75-5.05-2.09a7.146 7.146 0 0 1 0-10.1 7.146 7.146 0 0 1 10.1 0 7.146 7.146 0 0 1 2.09 5.05c0 1.89-.76 3.71-2.09 5.05A7.128 7.128 0 0 1 50 26.19Zm0-9.52c-.96 0-1.83.58-2.2 1.47-.37.89-.17 1.91.52 2.59s1.7.88 2.59.52c.89-.37 1.47-1.24 1.47-2.2 0-1.31-1.07-2.38-2.38-2.38Z"></path>
		<path
			d="M50 35.71c-.63 0-1.24-.25-1.68-.7s-.7-1.05-.7-1.68v-9.52c0-1.31 1.07-2.38 2.38-2.38s2.38 1.07 2.38 2.38v9.52c0 .63-.25 1.24-.7 1.68s-1.05.7-1.68.7Zm0 52.38c-1.89 0-3.71-.75-5.05-2.09a7.146 7.146 0 0 1 0-10.1 7.146 7.146 0 0 1 10.1 0 7.146 7.146 0 0 1 2.09 5.05c0 1.89-.76 3.71-2.09 5.05A7.128 7.128 0 0 1 50 88.09Zm0-9.52c-.96 0-1.83.58-2.2 1.47-.37.89-.17 1.91.52 2.59s1.7.88 2.59.52c.89-.37 1.47-1.24 1.47-2.2 0-1.31-1.07-2.38-2.38-2.38Z"></path>
		<path
			d="M50 78.57c-.63 0-1.24-.25-1.68-.7s-.7-1.05-.7-1.68v-9.52c0-1.31 1.07-2.38 2.38-2.38s2.38 1.07 2.38 2.38v9.52c0 .63-.25 1.24-.7 1.68s-1.05.7-1.68.7ZM28.11 35.25c-2.22 0-4.31-1.04-5.66-2.8a7.15 7.15 0 0 1-1.23-6.19c.58-2.14 2.12-3.9 4.17-4.75 2.05-.85 4.38-.69 6.3.42 1.92 1.11 3.22 3.05 3.5 5.25s-.46 4.41-2.03 5.98a7.146 7.146 0 0 1-5.05 2.09Zm0-9.52a2.38 2.38 0 0 0-.9 4.58 2.38 2.38 0 1 0 .91-4.58Z"></path>
		<path
			d="M38.21 40.6c-.63 0-1.24-.25-1.68-.7l-6.73-6.74a2.384 2.384 0 0 1 3.37-3.37l6.73 6.74c.68.68.88 1.7.52 2.59-.37.89-1.24 1.47-2.2 1.47Zm33.68 38.43c-2.22 0-4.31-1.04-5.66-2.8A7.15 7.15 0 0 1 65 70.04c.58-2.14 2.12-3.9 4.17-4.75 2.05-.85 4.38-.69 6.3.42a7.138 7.138 0 0 1-3.57 13.32Zm0-9.52a2.38 2.38 0 0 0-.9 4.58 2.38 2.38 0 1 0 .91-4.58Z"></path>
		<path
			d="M68.52 70.9c-.63 0-1.24-.25-1.68-.7l-6.74-6.74a2.384 2.384 0 0 1 3.37-3.37l6.74 6.74c.68.68.88 1.71.52 2.59-.37.89-1.24 1.47-2.2 1.47ZM19.05 57.14c-1.89 0-3.71-.75-5.05-2.09a7.146 7.146 0 0 1 0-10.1 7.146 7.146 0 0 1 10.1 0A7.146 7.146 0 0 1 26.19 50c0 1.89-.76 3.71-2.09 5.05a7.128 7.128 0 0 1-5.05 2.09Zm0-9.52c-.96 0-1.83.58-2.2 1.47-.37.89-.17 1.91.52 2.59s1.7.88 2.59.52c.89-.37 1.47-1.24 1.47-2.2 0-1.31-1.07-2.38-2.38-2.38Z"></path>
		<path
			d="M33.33 52.38h-9.52c-1.31 0-2.38-1.07-2.38-2.38s1.07-2.38 2.38-2.38h9.52c1.31 0 2.38 1.07 2.38 2.38s-1.07 2.38-2.38 2.38Zm47.62 4.76c-1.89 0-3.71-.75-5.05-2.09a7.146 7.146 0 0 1 0-10.1 7.146 7.146 0 0 1 10.1 0A7.146 7.146 0 0 1 88.09 50c0 1.89-.76 3.71-2.09 5.05a7.128 7.128 0 0 1-5.05 2.09Zm0-9.52c-.96 0-1.83.58-2.2 1.47-.37.89-.17 1.91.52 2.59s1.7.88 2.59.52c.89-.37 1.47-1.24 1.47-2.2 0-1.31-1.07-2.38-2.38-2.38Z"></path>
		<path
			d="M76.19 52.38h-9.52c-1.31 0-2.38-1.07-2.38-2.38s1.07-2.38 2.38-2.38h9.52c1.31 0 2.38 1.07 2.38 2.38s-1.07 2.38-2.38 2.38ZM28.11 79.03c-2.22 0-4.31-1.04-5.66-2.8a7.15 7.15 0 0 1-1.23-6.19c.58-2.14 2.12-3.9 4.17-4.75 2.05-.85 4.38-.69 6.3.42a7.138 7.138 0 0 1-3.57 13.32Zm0-9.52a2.38 2.38 0 0 0-.9 4.58 2.38 2.38 0 1 0 .91-4.58Z"></path>
		<path
			d="M31.48 70.9c-.96 0-1.83-.58-2.2-1.47-.37-.89-.17-1.91.52-2.59l6.73-6.74a2.384 2.384 0 0 1 3.37 3.37l-6.73 6.74c-.45.45-1.05.7-1.68.7Zm40.41-35.65c-2.22 0-4.31-1.04-5.66-2.8A7.15 7.15 0 0 1 65 26.26c.58-2.14 2.12-3.9 4.17-4.75 2.05-.85 4.38-.69 6.3.42a7.108 7.108 0 0 1 3.5 5.25 7.138 7.138 0 0 1-7.08 8.07Zm0-9.52a2.38 2.38 0 0 0-.9 4.58 2.38 2.38 0 1 0 .91-4.58Z"></path>
		<path
			d="M61.78 40.6c-.96 0-1.83-.58-2.2-1.47-.37-.89-.16-1.91.52-2.59l6.74-6.74a2.384 2.384 0 0 1 3.37 3.37l-6.74 6.74c-.45.45-1.05.7-1.68.7Z"></path>
		<path
			d="M50 .27C22.58.27.28 22.58.28 50S22.59 99.72 50 99.72 99.72 77.41 99.72 50 77.42.27 50 .27Zm0 93.84c-24.33 0-44.12-19.79-44.12-44.12S25.67 5.89 50 5.89 94.12 25.68 94.12 50 74.33 94.12 50 94.12Z"></path>
	</symbol>
	<symbol xmlns="http://www.w3.org/2000/svg" viewBox="0 0 100 100" id="debt">
		<path
			d="M99.47 26.54c0-6.95-2.76-13.61-7.67-18.52C86.88 3.11 80.22.35 73.27.35S59.66 3.11 54.75 8.02a26.217 26.217 0 0 0-7.28 14.05h-6.6c-.67 0-1.31.02-1.94.06a17.234 17.234 0 0 0-6.36-6.84 17.294 17.294 0 0 0-8.99-2.53h-1.33a3.104 3.104 0 0 0-3.1 3.1v15.12a30.764 30.764 0 0 0-7.9 12.81H6.74c-1.65 0-3.22.66-4.39 1.82A6.215 6.215 0 0 0 .53 50v12.41c0 1.65.66 3.22 1.82 4.39a6.215 6.215 0 0 0 4.39 1.82h4.52c1.53 4.86 4.24 9.26 7.9 12.81v12.01c0 1.65.66 3.22 1.82 4.39a6.215 6.215 0 0 0 4.39 1.82h6.21c1.65 0 3.22-.66 4.39-1.82a6.215 6.215 0 0 0 1.82-4.39v-3.26c1.03.11 2.07.16 3.1.16h18.62c1.04 0 2.07-.05 3.1-.16v3.26c0 1.65.66 3.22 1.82 4.39a6.215 6.215 0 0 0 4.39 1.82h6.21c1.65 0 3.22-.66 4.39-1.82a6.215 6.215 0 0 0 1.82-4.39v-12c2.95-2.89 5.29-6.33 6.89-10.13 1.6-3.8 2.42-7.88 2.42-12.01v-6.21c0-2.12-.22-4.23-.65-6.3a26.234 26.234 0 0 0 9.6-20.25ZM59.14 12.41a19.98 19.98 0 0 1 14.14-5.85c5.3 0 10.38 2.11 14.13 5.86 3.75 3.75 5.86 8.83 5.86 14.13 0 5.3-2.11 10.39-5.86 14.14-.81.81-1.69 1.52-2.6 2.17-.06.03-.1.08-.16.12-3.32 2.3-7.28 3.57-11.38 3.57-5.3 0-10.39-2.11-14.14-5.86-3.75-3.75-5.85-8.83-5.85-14.14s2.11-10.39 5.86-14.14Zm25.18 40.7v6.21c0 7.05-3.01 13.77-8.27 18.47-.66.59-1.04 1.43-1.04 2.32v13.34H68.8v-6.89c0-.94-.43-1.83-1.16-2.42-.73-.59-1.69-.82-2.61-.61-1.82.4-3.68.61-5.54.61H40.87c-1.85 0-3.7-.21-5.5-.63a3.11 3.11 0 0 0-3.82 3.02v6.92h-6.21V80.07a3.1 3.1 0 0 0-1.06-2.34 24.468 24.468 0 0 1-7.65-12.91 3.12 3.12 0 0 0-1.09-1.74c-.55-.44-1.23-.68-1.94-.68H6.74V49.99h6.89c.7 0 1.39-.24 1.94-.68.55-.44.93-1.05 1.09-1.74 1.13-5 3.81-9.51 7.65-12.91.67-.59 1.06-1.44 1.06-2.34V19.09a11.05 11.05 0 0 1 8.69 7.37c.24.7.72 1.29 1.35 1.67.63.38 1.38.52 2.11.39 1.11-.18 2.23-.27 3.35-.27h6.27c.42 6.31 3.11 12.29 7.61 16.79a26.211 26.211 0 0 0 18.53 7.67c3.79 0 7.49-.83 10.87-2.38.1.91.17 1.82.17 2.74Z"></path>
		<path
			d="M28.46 40.69c-1.71 0-3.1 1.39-3.1 3.1s1.39 3.1 3.1 3.1 3.1-1.39 3.1-3.1-1.39-3.1-3.1-3.1Zm45.99-9.83-5.09-.04c-1.6 0-2.91 1.3-2.92 2.9 0 .78.29 1.52.84 2.07.55.56 1.28.87 2.06.87l10.81.08c2.78 0 4.32-2.94 4.32-4.97V21.55c0-1.61-1.31-2.92-2.92-2.92s-2.92 1.31-2.92 2.92v5.21L67.31 15.44a2.921 2.921 0 0 0-4.13 4.13l11.28 11.28Z"></path>
	</symbol>
	<symbol xmlns="http://www.w3.org/2000/svg" viewBox="0 0 140 98" id="demographics">
		<path
			d="M40.25 12.25C40.25 19.0094 34.7594 24.5 28 24.5C21.2341 24.5 15.75 19.0094 15.75 12.25C15.75 5.48406 21.2341 0 28 0C34.7594 0 40.25 5.48406 40.25 12.25ZM45.5875 35.9406C39.0906 41.7156 35 50.1375 35 59.5C35 67.0031 37.4281 73.8937 42 79.2969V84C42 87.8719 38.8719 91 35 91H21C17.1347 91 14 87.8719 14 84V78.1375C5.7225 74.2 0 65.7781 0 56C0 42.4594 10.9681 31.5 24.5 31.5H31.5C36.5531 31.5 41.6062 33.1406 45.5875 35.9406ZM14 46.7469C11.8212 49.1969 10.5 52.4562 10.5 56C10.5 59.5438 11.8212 62.8031 14 65.2531V46.7469ZM98 84V79.2969C102.375 73.8937 105 67.0031 105 59.5C105 50.1375 100.909 41.7156 94.4125 35.9406C98.3938 33.1406 103.25 31.5 108.5 31.5H115.5C129.041 31.5 140 42.4594 140 56C140 65.7781 134.269 74.2 126 78.1375V84C126 87.8719 122.872 91 119 91H105C101.128 91 98 87.8719 98 84ZM126 65.2531C127.991 62.8031 129.5 59.5438 129.5 56C129.5 52.4562 127.991 49.1969 126 46.7469V65.2531ZM124.25 12.25C124.25 19.0094 118.759 24.5 112 24.5C105.241 24.5 99.75 19.0094 99.75 12.25C99.75 5.48406 105.241 0 112 0C118.759 0 124.25 5.48406 124.25 12.25ZM56 14C56 6.26719 62.2781 0 70 0C77.7219 0 84 6.26719 84 14C84 21.7219 77.7219 28 70 28C62.2781 28 56 21.7219 56 14ZM98 59.5C98 69.2781 92.2687 77.7 84 81.6375V91C84 94.8719 80.8719 98 77 98H63C59.1281 98 56 94.8719 56 91V81.6375C47.7313 77.7 42 69.2781 42 59.5C42 45.9594 52.9594 35 66.5 35H73.5C87.0406 35 98 45.9594 98 59.5ZM56 68.7531V50.2469C53.8125 52.6969 52.5 55.9562 52.5 59.5C52.5 63.0438 53.8125 66.3031 56 68.7531ZM84 50.2469V68.7531C85.9906 66.2812 87.5 63.0438 87.5 59.5C87.5 55.9562 85.9906 52.6969 84 50.2469Z"></path>
	</symbol>
	<symbol xmlns="http://www.w3.org/2000/svg" viewBox="0 0 93 56" id="dive">
		<path
			d="m83.4 43 4 2.3 3-8.4-5.7-.6a7 7 0 0 0-3-4 8 8 0 0 0-5-1.2 7 7 0 0 0-4.7 3 7 7 0 0 0-1.4 5.2 7 7 0 0 0 2.8 4.8 7 7 0 0 0 10-1Z"></path>
		<path fill-rule="evenodd" clip-rule="evenodd"
			  d="M19 13.5a3.4 3.4 0 0 0-2.8 2.7c-.2 1 0 1.5.7 2.7a1626.5 1626.5 0 0 0 8.2 12.5c1.4 2.2 1.9 2.8 2.9 3.5l1.8 1a1555 1555 0 0 0 27.5 9.7l1.5.8c.7.6 1 1 2.6 3.2a887.4 887.4 0 0 0 2.5 3.4c1 1.3 1.2 1.7 2 2.1.5.4.8.6 1.5.7.6.2.7.2 7.6.2 7.7 0 7.3 0 8-.4.5-.2 1.2-1 1.4-1.4a3 3 0 0 0-.6-3.5 4 4 0 0 0-1.6-1l-5.6-.3A34.4 34.4 0 0 1 72 49l-1.6-.8a9.8 9.8 0 0 1-2.3-3.3 34.3 34.3 0 0 0-2-3.6l-.4-.6-.3-.4a26 26 0 0 1-.5-.9c-.6-1.2-1.3-2-2.3-2.6a6 6 0 0 0-2.1-.9 316.7 316.7 0 0 1-9-2.4 457.4 457.4 0 0 0-15-4l-.7-.2a8 8 0 0 1-3.8-2l-1-1.5a386.6 386.6 0 0 0-8.6-11 3.3 3.3 0 0 0-2.2-1.3H19Z"></path>
		<path
			d="m0 0 13 13.5L18 9l-4.5-9H0Zm60.7 32.2c1.2.4 2.4.2 3.6-.5a4.6 4.6 0 0 0 1.7-6.4 4.7 4.7 0 0 0-2.8-2.2l-1.9-.5-2.5 9 1.9.6ZM59.2 22l-15.7-4.4c-1.2-.4-2 0-2.3 1.3l-1.4 5.3c-.3 1.2.1 2 1.2 2.4L56.7 31l2.5-9.2Z"></path>
		<circle cx="89.2" cy="28.9" r="1.4"></circle>
		<circle cx="90.9" cy="23.2" r="1.7"></circle>
		<circle cx="86.4" cy="16.6" r="2.8"></circle>
	</symbol>
	<symbol xmlns="http://www.w3.org/2000/svg" viewBox="0 0 24 24" id="download">
		<path fill-rule="evenodd" d="M12 2.25a.75.75 0 01.75.75v11.69l3.22-3.22a.75.75 0 111.06 1.06l-4.5 4.5a.75.75 0 01-1.06 0l-4.5-4.5a.75.75 0 111.06-1.06l3.22 3.22V3a.75.75 0 01.75-.75zm-9 13.5a.75.75 0 01.75.75v2.25a1.5 1.5 0 001.5 1.5h13.5a1.5 1.5 0 001.5-1.5V16.5a.75.75 0 011.5 0v2.25a3 3 0 01-3 3H5.25a3 3 0 01-3-3V16.5a.75.75 0 01.75-.75z" clip-rule="evenodd" />
	</symbol>
	<symbol xmlns="http://www.w3.org/2000/svg" viewBox="0 0 24 24" id="share">
		<path fill-rule="evenodd" d="M15.75 4.5a3 3 0 11.825 2.066l-8.421 4.679a3.002 3.002 0 010 1.51l8.421 4.679a3 3 0 11-.729 1.31l-8.421-4.678a3 3 0 110-4.132l8.421-4.679a3 3 0 01-.096-.755z" clip-rule="evenodd" />
	</symbol>
	<symbol xmlns="http://www.w3.org/2000/svg" viewBox="0 0 100 100" id="economics">
		<path
			d="M37.99 1.76C15.12 7.42-2.06 31.98.54 55.39c1.38 12.45 7.17 23.16 15.52 30.94l-5.46-.39c-1.32-.09-2.47.9-2.56 2.22-.12 1.31.9 2.47 2.22 2.57l12.48.89c.93.17 1.9-.12 2.58-.8.51-.51.8-1.19.83-1.89.02-.34-.02-.69-.13-1.03l-.22-.79.1-.16c-.06-.04-.12-.09-.19-.13l-3.05-10.75a2.4 2.4 0 0 0-2.96-1.65 2.393 2.393 0 0 0-1.65 2.96l1.2 4.24C12.19 74.78 7.32 65.54 6.12 54.84 3.69 33.13 17.91 12.64 39.09 7.27c9.57-2.42 19.12-1.53 27.53 1.91 1.35.55 2.9-.02 3.56-1.33.73-1.45.08-3.23-1.42-3.85a49.458 49.458 0 0 0-30.77-2.24Z"></path>
		<path
			d="M69.18 19.24a36.154 36.154 0 0 0-19.16-5.49c-4.91 0-9.67.96-14.16 2.86a36.215 36.215 0 0 0-22.1 33.38c0 .5.02 1 .03 1.49s0 0 0 .01c.48 11.94 6.83 22.87 16.99 29.24a35.95 35.95 0 0 0 5.02 2.63c4.49 1.91 9.27 2.89 14.19 2.89 16.37 0 30.76-11.02 35.01-26.8a36.22 36.22 0 0 0 1.25-9.42c0-12.59-6.38-24.1-17.07-30.78ZM34.73 22v.06c.02.34.04.66.06.96v.08c.01.27.03.52.04.75v.16c0 .19.02.35.02.51v.19c0 .19.01.35.02.48-.15.25-.54.71-.8 1.03-1 1.19-3.65 4.35-.69 6.99 1.36 1.21 2.37 3.01 2.79 3.97-.71.81-2.18 2.26-3.44 3.41-.11.1-.21.22-.3.34-4.48 6.25-4.48 7.02-4.48 7.69v6.67c0 .25.04.48.1.7v.06l-3.21-5.54a2.171 2.171 0 0 0-1.83-1.09l-4.92-.12A31.86 31.86 0 0 1 34.7 22.02ZM18.32 53.65l3.38.08 2.97 5.15 1.89 5.92 1.52 5.05 1.75 4.86a31.882 31.882 0 0 1-11.51-21.06Zm18.16 17.43c.01.12 0 .28 0 .47 0 .07-.02.15-.03.22-.02.14-.03.27-.06.44-.02.11-.04.22-.06.34-.03.16-.06.32-.09.49-.03.13-.06.28-.09.42-.04.17-.08.35-.12.53l-.12.49-.15.57c-.05.18-.1.36-.15.55-.05.19-.11.39-.17.58-.06.19-.11.39-.17.59-.06.19-.12.39-.18.59-.06.2-.13.4-.19.61-.01.03-.02.07-.04.1-.19-.1-.39-.21-.58-.32l.26-2.2c.04-.34 0-.68-.11-1l-2.19-6.07-1.49-4.97-1.97-6.18c-.05-.15-.11-.29-.19-.43.02.03.05.04.08.07.12.13.25.25.39.36.06.04.12.09.18.13.13.09.26.18.39.26l.21.12.45.24c.06.03.13.06.19.09.21.1.42.2.64.3.39.18.99.45 1.32.64.29.63.81 1.35 1.65 2.49.87 1.18 2.07 2.8 2.39 3.75.19.56.09 1.09-.08 1.97-.21 1.06-.47 2.35.1 3.77Zm13.5 10.82c-3.85 0-7.59-.68-11.15-2.01.11-.31.2-.6.29-.89.1-.31.21-.63.3-.92.1-.31.18-.6.27-.9.08-.28.17-.58.25-.85.08-.28.14-.54.2-.8.07-.26.14-.53.2-.78s.09-.47.14-.7c.05-.23.1-.48.14-.7.04-.22.05-.41.08-.61.03-.21.06-.42.08-.62.02-.2.02-.37.02-.55 0-.17.02-.35.02-.5 0-.19-.03-.35-.05-.53-.01-.11-.01-.24-.03-.35-.05-.26-.11-.5-.2-.7-.09-.22.01-.75.12-1.3.21-1.06.51-2.51-.05-4.2-.54-1.61-1.85-3.39-3.01-4.97-.43-.58-1.01-1.37-1.17-1.67-.44-1.45-1.93-2.12-3.5-2.84-.18-.08-.39-.18-.6-.27V49c.45-.87 2.09-3.31 3.54-5.34 4.87-4.46 4.87-5.32 4.88-6.15 0-1.57-1.84-5.11-4.2-7.34.21-.35.62-.83.88-1.15.86-1.02 1.83-2.17 1.83-3.62v-.69c0-.15-.01-.32-.02-.49 0-.09 0-.17-.01-.26 0-.2-.02-.41-.03-.63 0-.13-.01-.27-.02-.4l-.03-.62c-.01-.2-.02-.4-.04-.61v-.17c-.03-.5-.06-.99-.09-1.45 8.49-3.13 18.32-2.42 26.31 1.95a4.188 4.188 0 0 1-.18.37c-.02.03-.03.06-.05.09-.04.08-.08.15-.12.22-.01.02-.03.04-.04.06-.04.07-.08.12-.11.17 0 0-.01.02-.02.03-.04.06-.07.1-.1.14-2.6.78-7.05 3.97-8.4 4.97-.43.32-.73.78-.84 1.3-.85 3.96-2.27 10.79-2.27 12.07 0 .54 0 2.19 3.91 5.8.4.37.93.58 1.48.58h5.13c.16.05.32.12.47.2.1.05.18.1.26.16.04.02.09.05.12.07-.21.35-1 .82-1.81 1.09-.81-.18-2.31-.47-3.77-.47-1.54 0-2.73.3-3.63.94-.53.37-1.27.81-1.99 1.23-1.27.74-2.31 1.35-2.99 2.03-.23.22-.41.46-.56.71-.19.33-.3.7-.33 1.1-.06.3-.31 1.13-.51 1.82-1.3 4.43-1.61 6-1 7.23.37.75 1 1.99 8.53 3.16.47.07.95-.01 1.37-.24v.01c.51 2.45.37 3.4.16 4.72-.07.47-.15.97-.2 1.54l-.21 2.22c-.06.61.14 1.22.56 1.67.41.45 1 .71 1.61.71h5.72c.1 0 .19 0 .29-.02a31.871 31.871 0 0 1-15.8 4.19Zm17.3-5.11c.08-.12.15-.24.21-.37 0 0 1.17-2.65 1.64-3.6.14-.28.43-.8.78-1.4 1.46-2.6 2.15-3.9 2.33-4.65.12-.3.73-1.27 1.1-1.85 1.15-1.81 1.71-2.73 1.71-3.71v-2.82l1.8-2.8c.1-.14.21-.28.33-.43.13.44.26.85.38 1.24.04.13.08.25.12.38.08.26.17.51.25.75.04.13.09.25.14.38.08.21.16.41.24.6.04.1.09.21.13.31.09.21.19.4.29.58.03.05.05.11.08.16.13.21.26.4.4.57.04.04.08.07.12.11.11.11.22.21.34.3.06.04.11.07.17.1.06.03.11.08.18.11A31.81 31.81 0 0 1 67.28 76.8Zm14.27-22.24c-.05-.15-.09-.3-.14-.45 0-.02-.01-.04-.02-.05-.08-.27-.16-.51-.22-.72-.44-1.46-.68-2.24-.93-2.72a2.463 2.463 0 0 0-2.2-1.37c-.63 0-1.93 0-4.79 3.87l-2.22 3.46c-.23.35-.35.76-.35 1.18v3.13c-.21.4-.71 1.19-1.03 1.69-.88 1.39-1.43 2.27-1.62 3.02-.11.34-.59 1.25-1.08 2.15-.32.57-.63 1.14-.86 1.53-.29.51-.54.97-.72 1.3-.06.11-.11.21-.15.29-.27.55-.76 1.63-1.15 2.49h-1.9c.04-.41.1-.77.15-1.12.23-1.5.47-3.06-.21-6.28-.73-3.5-2.91-3.88-3.82-3.88-.78 0-1.47.26-1.99.55-1.63-.28-3.24-.65-4.19-.94.23-1.09.73-2.81 1.01-3.76.28-.94.45-1.54.55-1.98.44-.31 1.26-.79 1.84-1.13.8-.47 1.63-.95 2.29-1.42 0 0 .28-.15 1.13-.15 1.5 0 3.21.46 3.23.46.34.09.7.1 1.04.03.49-.11 4.84-1.15 5.62-4.64.66-2.98-1.8-4.97-4.36-5.56-.16-.04-.32-.06-.49-.06h-4.55c-.84-.85-1.62-1.76-1.89-2.23.16-1.28 1.07-5.85 1.98-10.13 2.45-1.76 5.43-3.61 6.45-3.83.19-.04.36-.1.53-.18s.09-.04.14-.07c.14-.07.27-.14.4-.23.03-.02.07-.04.1-.07.16-.11.32-.25.47-.4l.09-.09c.13-.13.25-.28.38-.44l.11-.14c.27-.36.53-.78.78-1.28 8.12 6.01 12.9 15.42 12.89 25.63 0 1.52-.11 3.03-.33 4.53Z"></path>
		<path
			d="M94.08 73.01c5.05-9.67 6.96-21.06 4.69-32.61-2.07-10.48-7.32-19.54-14.54-26.39l4.57.38a2.398 2.398 0 1 0 .4-4.78L76.95 8.59a2.882 2.882 0 0 0-3.01 3.93l3.27 12.08a2.394 2.394 0 0 0 2.94 1.69c1.28-.35 2.04-1.67 1.69-2.94l-1.25-4.6h.46c7 6.94 11.78 16.27 12.84 27.05.86 8.7-.96 17.19-4.81 24.56-1.38-.42-2.84-.65-4.36-.65-8.29 0-15.01 6.71-15.01 15 0 1.54.23 3.02.66 4.41a43.61 43.61 0 0 1-7.59 3.1c-10.08 3.03-20.23 2.3-29.11-1.25a2.799 2.799 0 0 0-3.36 1.05c-.98 1.47-.39 3.5 1.25 4.16 8.62 3.45 18.3 4.54 28.07 2.6 4.78-.95 9.26-2.56 13.37-4.7 2.75 3.44 6.97 5.64 11.71 5.65 8.29 0 15.01-6.71 15.01-15 0-4.75-2.21-8.98-5.66-11.73ZM79.8 93.47h-2.83V86h2.83v7.47Zm6.15 0h-2.83V81h2.83v12.47Zm6.15 0h-2.83V76h2.83v17.47Z"></path>
	</symbol>
	<symbol xmlns="http://www.w3.org/2000/svg" viewBox="0 0 140 98" id="education">
		<path
			d="M136.303 22.9439L74.4625 0.805578C71.4591 -0.268526 68.1844 -0.268526 65.1809 0.805578L3.51094 22.9439C1.40831 23.7096 0 25.7222 0 27.9973C0 30.2724 1.40831 32.2959 3.51094 33.0484L16.6403 37.7539C14.0394 41.2103 12.2084 45.2267 11.27 49.5559C8.76094 50.6169 7 53.1107 7 55.9984C7 58.1757 8.05306 60.0432 9.61187 61.3273L4.18031 93.9223C3.82375 96.053 5.46875 98 7.63219 98H20.3678C22.5306 98 24.1762 96.0576 23.8197 93.9245L18.3881 61.3295C19.9478 60.0454 21 57.9891 21 55.9984C21 53.7473 19.8682 51.8354 18.2175 50.5535C19.1476 46.6683 21.035 43.155 23.6731 40.2652L65.3669 55.1911C68.3703 56.2652 71.645 56.2652 74.6484 55.1911L136.489 33.0528C138.6 32.2849 140 30.2724 140 27.9973C140 25.7222 138.6 23.7096 136.303 22.9439ZM76.8031 61.7736C74.7469 62.583 72.3844 62.9986 70 62.9986C67.6112 62.9986 65.2553 62.5902 63 61.7834L31.2375 50.42L28 81.6587C28 90.6935 46.6156 98 70 98C92.9906 98 112 90.6935 112 81.6653L108.767 50.4047L76.8031 61.7736Z"></path>
	</symbol>
	<symbol xmlns="http://www.w3.org/2000/svg" viewBox="0 0 127 112" id="economy">
		<path
			d="M125.305 73.5656C122.411 69.6697 116.894 68.8275 112.971 71.713L86.5732 91.0002H59.9774C58.0482 91.0002 56.6474 89.4143 56.6474 87.5024C56.6474 85.5883 58.2462 84.0024 59.9774 84.0024H77.2338C80.5638 84.0024 84.015 81.6224 84.5928 78.1793C85.3095 73.8043 81.92 70.0024 77.6197 70.0024H42.1431C36.3873 70.0024 30.4286 72.0258 25.7975 75.7446L15.5429 84.0002L3.32999 83.8031C1.59906 83.8031 0 85.5969 0 87.5V108.496C0 110.425 1.59906 112 3.32999 112H79.6552C84.5134 112 89.3408 110.428 93.2618 107.566L123.055 85.7959C127.356 82.9281 128.194 77.4594 125.305 73.5656ZM61.5938 38.2812C59.9178 38.0406 57.7125 37.2531 55.7719 36.5531L54.6913 36.1812C51.9346 35.0219 48.9134 36.6406 47.9431 39.1781C46.9727 41.7156 48.4108 44.9094 51.1606 45.8806L52.1872 46.2429C54.0586 46.9125 56.1302 47.5762 58.2275 48.0611V50.75C58.2275 53.6484 60.5937 56 63.5157 56C66.4378 56 68.8084 53.6484 68.8084 50.75V48.475C74.3812 47.2231 78.2647 43.6953 78.9748 38.4738C80.8908 27.5253 70.3985 24.5481 64.7684 22.9534L63.6006 22.5531C57.8007 20.9212 58.1315 20.2169 58.2859 19.3178C58.5408 17.8377 61.66 17.1172 65.3891 17.701C66.4781 17.8719 67.8966 18.2582 69.7225 18.8871C72.4858 19.8236 75.5026 18.3813 76.4531 15.6408C77.4036 12.9003 75.9439 9.91178 73.1804 8.96241C71.504 8.38775 70.1107 8.00909 68.8095 7.71094V5.25C68.8095 2.35156 66.4389 0 63.5168 0C60.5948 0 58.2286 2.35156 58.2286 5.25V7.55125C52.6624 8.80031 48.759 12.3047 47.6564 17.5284C45.9583 28.35 56.6099 31.4562 60.6235 32.6375L62.0565 33.0477C69.0385 35.03 68.926 35.6486 68.7474 36.6877C68.4964 38.1719 65.3869 38.8937 61.5938 38.2812Z"></path>
	</symbol>
	<symbol xmlns="http://www.w3.org/2000/svg" viewBox="0 0 48 62" id="explore">
		<g clip-path="url(#clip0_270_15896)">
			<path
				d="M30.6435 11.625C33.8377 11.625 36.4292 9.02148 36.4292 5.8125C36.4292 2.60352 33.8377 0 30.6435 0C27.4494 0 24.8579 2.60352 24.8579 5.8125C24.8579 9.02148 27.4494 11.625 30.6435 11.625ZM11.3591 34.766C12.2403 34.766 13.043 34.1894 13.272 33.3298L18.2284 14.168C18.2702 14.0116 18.2902 13.8546 18.2902 13.6998C18.2902 12.8508 17.6892 12.0723 16.7968 11.8677C15.9865 11.671 15.1789 11.5766 14.3834 11.5766C9.96576 11.5766 5.94592 14.4634 4.82254 18.7853L1.77685 30.673C1.73486 30.8305 1.71484 30.9879 1.71484 31.1453C1.71484 31.9933 2.31282 32.7704 3.20466 32.975L10.877 34.8145C11.0385 34.8508 11.2 34.766 11.3591 34.766ZM46.072 19.375H44.2519C43.1822 19.375 42.4319 20.2378 42.4319 21.3125V23.25H38.2433L32.6083 17.5889C31.0534 16.2387 29.2694 15.5 27.377 15.5C24.1226 15.5 21.3021 17.716 20.5065 20.8887L17.2642 33.9426C17.1918 34.2453 17.1436 34.5723 17.1436 34.8871C17.1436 35.8952 17.5372 36.8779 18.2711 37.6154L28.7118 48.1057V58.125C28.7118 60.2587 30.4439 62 32.4605 62C34.477 62 36.3176 60.2587 36.3176 58.125V48.1045C36.3176 46.0314 35.5191 44.0927 34.0576 42.625L28.4081 36.9481C28.4382 36.8876 28.4684 36.8422 28.4834 36.7816L30.7856 27.1547L33.482 29.8647C34.4283 30.5883 35.4047 31 36.4292 31H42.1064V60.0625C42.1064 61.1372 42.9652 62 43.9265 62H45.7466C47.1448 62 48.0006 61.1402 48.0006 60.0625V21.3125C48.0006 20.2348 47.1448 19.375 46.072 19.375ZM11.4797 57.1926C11.3987 57.5111 11.36 57.8304 11.36 58.1444C11.36 59.8748 12.5351 61.449 14.2818 61.885C14.6003 61.9758 14.9137 62 15.2151 62C16.9471 62 18.5141 60.8193 18.8432 59.0635L21.8867 46.833L15.5285 40.4453L11.4797 57.1926Z"></path>
		</g>
		<defs>
			<clipPath id="clip0_270_15896">
				<rect width="48" height="62" fill="white"></rect>
			</clipPath>
		</defs>
	</symbol>
	<symbol xmlns="http://www.w3.org/2000/svg" viewBox="0 0 112 112" id="food">
		<path
			d="M91.0663 28.0232C89.2061 30.2546 85.8794 30.2546 83.8222 28.0232C81.7868 26.1638 81.7868 22.8386 83.8222 20.7888L103.082 1.53767C105.139 -0.512556 108.465 -0.512556 110.326 1.53767C112.558 3.58768 112.558 6.91284 110.326 8.96263L91.0663 28.0232ZM71.61 50.3368L64.6284 57.1184C70.8659 57.906 76.9282 60.5967 81.7212 65.3657L86.4704 70.3316L81.7212 75.2756C73.514 83.4791 60.2075 83.4791 52.0004 75.2756L49.3303 72.6067L42.3488 79.5851C48.3893 80.1758 54.6486 82.8665 59.4196 87.6574L64.3877 92.6014L59.4196 97.5454C51.2125 105.749 37.9279 105.749 29.7208 97.5454L27.0288 94.8765L11.9562 109.949C9.22044 112.684 4.7864 112.684 2.05113 109.949C-0.683709 107.215 -0.683709 102.796 2.05113 100.061L17.1343 84.9885L14.856 82.6915C6.65106 74.5099 6.65106 61.2092 14.856 53.0057L19.8087 48.0398L24.7527 53.0057C29.3487 57.5997 32.0188 63.375 32.7629 69.369L39.4161 62.6968L37.14 60.4217C28.9329 52.2182 28.9329 38.9175 37.14 30.7359L42.0862 25.77L46.8573 30.7359C51.4533 35.308 54.2984 41.1051 55.0425 47.0992L61.6958 40.427L59.4196 38.1519C51.2125 29.9483 51.2125 16.6521 59.4196 8.45073L64.3877 3.50017L69.3339 8.45073C70.3187 9.43952 71.216 10.4874 72.0258 11.579L82.0713 1.53789C84.1286 -0.512556 87.4552 -0.512556 89.3155 1.53789C91.5478 3.58768 91.5478 6.91284 89.3155 8.96263L76.7531 21.7011C77.8912 26.4044 77.7817 31.3265 76.4467 35.9861C80.8895 34.7173 85.5949 34.3673 90.1034 35.5267L103.082 22.5324C105.139 20.4891 108.465 20.4891 110.326 22.5324C112.558 24.5887 112.558 27.9139 110.326 29.7733L100.412 40.077C101.659 40.952 102.863 41.9802 104.001 43.0959L108.947 48.0398L104.001 53.0057C95.7937 61.2092 82.4872 61.2092 74.28 53.0057L71.61 50.3368Z"></path>
	</symbol>
	<symbol xmlns="http://www.w3.org/2000/svg" viewBox="0 0 54 54" id="facebook">
		<path
			d="M54 27.1643C54 12.1582 41.9153 0 27 0C12.0847 0 0 12.1582 0 27.1643C0 40.7224 9.87351 51.9605 22.7813 54V35.0168H15.9224V27.1643H22.7813V21.1794C22.7813 14.3719 26.8095 10.6116 32.9792 10.6116C35.934 10.6116 39.0237 11.1417 39.0237 11.1417V17.8233H35.6182C32.265 17.8233 31.2188 19.9176 31.2188 22.0655V27.1643H38.7069L37.5093 35.0168H31.2188V54C44.1265 51.9605 54 40.7224 54 27.1643Z"></path>
	</symbol>
	<symbol xmlns="http://www.w3.org/2000/svg" viewBox="0 0 100 100" id="finance">
		<path
			d="M85.66 38.92c-.59-.91-1.53-1.5-2.59-1.62a3.23 3.23 0 0 0-1.24.09c-.7.2-1.33.47-1.89.71-.36.16-.71.31-1.04.42a6.4 6.4 0 0 0-.22-.27c-.36-.46-.81-1.03-1.48-1.51-2.65-1.88-4.01-4.73-5.45-7.75-.6-1.25-1.21-2.55-1.94-3.8-1.38-2.41-3.29-3.73-5.98-4.18-.78-.13-1.6-.36-2.46-.61-.45-.13-.9-.26-1.35-.37l-.17-.04c-1.06-.27-3.94-1.02-5.69 1.24-.85-.39-1.74-.81-2.73-1.28.07-.92-.18-1.84-.72-2.61a3.998 3.998 0 0 0-3.1-1.68c-.74-.03-1.48-.01-2.2.05-2.62.24-5.24.52-7.86.8l-.89.1h-.19c-.59.02-1.82.05-2.72 1.05-.6.66-1.14 1.35-1.66 2.01-.46.58-.89 1.13-1.34 1.64-.22.25-.54.52-.88.81-.46.39-.99.84-1.47 1.4-.38.44-.78.88-1.17 1.32-1.4 1.56-2.85 3.18-3.92 5.13-.9 1.63-1.07 3.46-1.22 5.06-.04.46-.09.92-.15 1.36l-.03.21c-.15 1.07-.37 2.54.27 3.92.82 1.77 1.98 3.39 2.91 4.68 3.4 4.74 8.95 5.94 15.22 3.27.35-.15.52-.18.54-.2.03.02.11.08.22.2.41.43 1.66 1.61 3.17 1.61h.01c.02.24 0 .55-.01.87-.06 1.33-.16 3.35 1.63 5.33 2.78 3.08 2.22 5.26 1.56 6.64-.54 1.13-.95 2.89-.44 4.43 1.74 5.3 3.41 10 5.08 14.37.7 1.82 2.98 2.7 4.53 2.7h.26c2.49-.18 9.86-.7 12.41-8.37.25-.15.54-.36.79-.64.08-.09.18-.19.28-.29.88-.91 2.22-2.29 1.54-4.12-.13-.35-.14-.52-.15-.53.04-.05.25-.26.93-.58 3.64-1.69 5.2-4.97 4.28-9.01-.11-.5-.25-1-.39-1.5-.24-.87-.47-1.69-.51-2.4-.07-1.38.86-2.3 2.5-3.8.4-.37.8-.73 1.17-1.1 2.2-2.19 4.91-5.32 6.39-10.03.33-1.06.18-2.21-.43-3.15Zm-9.56 9.56c-.32.32-.66.63-1 .94-1.84 1.67-4.35 3.97-4.16 7.82.06 1.28.4 2.47.69 3.52.12.42.24.84.33 1.26.44 1.94-.2 2.66-1.45 3.24-3.71 1.71-4.12 4.3-3.77 6.24l-.07.07c-.06.06-.11.11-.16.17-.47.23-1.56.76-1.9 2.08-.92 3.54-3.24 5.14-8 5.5-1.57-4.13-3.13-8.57-4.75-13.47-.01-.12.05-.46.17-.72 1.38-2.87 2.09-7.33-2.37-12.27-.36-.39-.38-.61-.33-1.67.03-.69.07-1.56-.15-2.5l-.05-.22c-.23-1.02-.59-2.55-2.1-3.35a3.52 3.52 0 0 0-1.67-.4c-.25 0-.5.02-.76.07-1.74-1.72-3.85-2.06-6.3-1.02-2.79 1.19-6.62 1.88-9.08-1.55-.83-1.15-1.76-2.46-2.38-3.77-.02-.24.06-.8.11-1.14l.03-.23c.07-.52.12-1.06.17-1.59.11-1.22.22-2.38.61-3.09.79-1.44 1.98-2.77 3.25-4.18.42-.47.84-.93 1.24-1.4.22-.26.55-.54.91-.84.44-.37.93-.79 1.39-1.31.55-.62 1.05-1.26 1.54-1.88.31-.39.6-.77.9-1.12.07 0 .13 0 .2-.02l.89-.1c2.59-.28 5.18-.56 7.78-.79.07 0 .13-.01.2-.02-.06 1.14.43 2.43 1.6 3.01 2.44 1.2 4.35 2.09 6.18 2.88.7.3 1.49.29 2.23-.03.65-.28 1.51-.93 1.94-1.86.18.04.39.09.55.14l.18.05c.41.11.82.22 1.23.34.96.27 1.96.56 3.03.73 1.19.2 1.77.61 2.4 1.69.62 1.09 1.17 2.24 1.75 3.45 1.58 3.32 3.37 7.07 7.1 9.72.09.07.3.33.43.51.69.87 2.3 2.92 5.28 2.12-.91 1.67-2.15 3.25-3.86 4.96Z"></path>
		<path
			d="M66.84 41.42c0-4.06-3.3-7.35-7.35-7.35-2.23 0-4.23 1-5.58 2.58l-7.27-4.12c0-.11.03-.22.03-.33 0-2.82-2.3-5.12-5.12-5.12s-5.12 2.3-5.12 5.12 2.3 5.12 5.12 5.12c1.48 0 2.8-.64 3.73-1.64l7.07 4c-.14.56-.22 1.14-.22 1.74 0 3.56 2.54 6.53 5.9 7.21l1.51 8.49c-1.75.82-2.97 2.58-2.97 4.63 0 2.82 2.3 5.12 5.12 5.12s5.12-2.3 5.12-5.12c0-2.39-1.65-4.38-3.86-4.95l-1.48-8.31c3.09-.87 5.37-3.71 5.37-7.07Zm-25.29-7.51c-.94 0-1.71-.77-1.71-1.71s.77-1.71 1.71-1.71 1.71.77 1.71 1.71-.77 1.71-1.71 1.71Zm14 7.51c0-2.18 1.77-3.94 3.95-3.94s3.95 1.77 3.95 3.94a3.95 3.95 0 0 1-7.9 0Zm6.15 22.04c-.94 0-1.71-.77-1.71-1.71s.77-1.71 1.71-1.71 1.71.77 1.71 1.71-.77 1.71-1.71 1.71Z"></path>
		<path
			d="M50 .27C22.58.27.28 22.58.28 50S22.59 99.72 50 99.72 99.72 77.41 99.72 50 77.42.27 50 .27Zm0 93.84c-24.33 0-44.12-19.79-44.12-44.12S25.67 5.89 50 5.89 94.12 25.68 94.12 50 74.33 94.12 50 94.12Z"></path>
		<path
			d="M34.41 55.11c-1.97-1.97-5.13-.98-6.57.46l-7.23 7.23a2.921 2.921 0 0 0 4.13 4.13l3.69-3.69v18.01c0 1.61 1.31 2.92 2.92 2.92 1.61 0 2.92-1.31 2.92-2.92V63.3l3.58 3.63a2.937 2.937 0 0 0 4.12.02c.56-.55.87-1.28.87-2.06s-.29-1.52-.84-2.07l-7.59-7.7Z"></path>
	</symbol>
	<symbol xmlns="http://www.w3.org/2000/svg" viewBox="0 0 100 100" id="gender">
		<path
			d="M50 99.6C22.65 99.6.4 77.35.4 50S22.65.4 50 .4 99.6 22.65 99.6 50 77.35 99.6 50 99.6Zm0-93.61C25.74 6 6 25.74 6 50s19.74 44 44 44 44-19.74 44-44S74.26 6 50 6Z"></path>
		<path
			d="M57.48 18.26c-1.55 0-2.8 1.26-2.8 2.8s1.26 2.8 2.8 2.8h6.01c-3.4 3.43-7.74 7.82-10.5 10.61-6.75-4.2-13.52-4.42-20 .19-5.92 4.21-8.39 10.21-6.95 17.37 1.52 7.59 6.52 12 14 13.75v9.33h-4.47c-.66 0-.96.29-.97.94-.01 1.3-.01 2.59 0 3.89 0 .62.32.9.93.91h4.54v4.69c0 .62.29.92.91.92 1.3.01 2.59.01 3.89 0 .65 0 .93-.3.94-.96v-4.65h4.4c.8 0 1.07-.27 1.08-1.07v-3.53c0-.89-.25-1.14-1.13-1.14h-4.3v-9.37c6.15-1.3 10.63-4.67 13.04-10.45 2.43-5.81 1.62-11.37-1.85-16.6 2.9-2.84 7.32-7.21 10.68-10.51v5.95a2.802 2.802 0 0 0 4.78 1.98c.51-.51.82-1.21.82-1.98V18.24H57.44ZM42.96 60.09c-6.32 0-11.5-5.17-11.49-11.48 0-6.31 5.19-11.46 11.52-11.44 6.29.01 11.45 5.16 11.46 11.44 0 6.3-5.17 11.48-11.49 11.48Z"></path>
	</symbol>
	<symbol xmlns="http://www.w3.org/2000/svg" viewBox="0 0 100 100" id="health">
		<path
			d="M91.03 9.87C85.54 3.81 78.19.34 70.34.11c-7.49-.22-14.68 2.51-20.35 7.73C44.49 2.79 37.77.13 30.51.13c-8.05 0-15.69 3.46-21.54 9.74C3.26 16.12.11 24.44.11 33.3s3.14 17.06 8.86 23.43l38.47 42.08c.67.73 1.53 1.1 2.56 1.1s1.89-.37 2.56-1.1l38.47-42.08c5.71-6.25 8.86-14.57 8.86-23.43s-3.15-17.18-8.86-23.43ZM16.8 51.48l6.39 2.86c1.69.77 3.69.03 4.55-1.69l8.98-18.56 7.34 14.71a3.494 3.494 0 0 0 3.13 2.02h5.31l6.43 15.32c.56 1.39 1.84 2.28 3.25 2.28h.31c1.41-.16 2.65-1.2 3.07-2.6l8.71-30.32 5.87 8.14c.74.97 1.74 1.5 2.82 1.5h7.33c-1.28 2.44-2.72 4.54-4.29 6.26L49.98 90.79 14.06 51.48h2.74Zm55.24-27.71c-1.38.34-2.4 1.35-2.64 2.57l-7.98 27.67-3.47-8.42c-.56-1.39-1.84-2.28-3.25-2.28h-5.46l-9.5-19.07c-.55-1.21-1.81-2.02-3.13-2.02s-2.58.81-3.12 2L22.93 46.06l-4.16-1.82c-.34-.12-.76-.28-1.24-.28H9.3c-4.15-9.81-2.31-21.34 4.68-28.88 4.44-4.86 10.31-7.54 16.53-7.54s12.09 2.68 16.53 7.54l.5.55c.69.76 1.67 1.17 2.63 1.15a3.14 3.14 0 0 0 2.38-1.15l.5-.55c4.39-4.81 10.25-7.45 16.48-7.45s12.08 2.65 16.48 7.45c4.4 4.81 6.83 11.28 6.83 18.22 0 1.71-.1 3.1-.32 4.33h-8.03l-9.01-12.5c-.89-1.13-2.21-1.65-3.45-1.35Z"></path>
	</symbol>
	<symbol xmlns="http://www.w3.org/2000/svg" viewBox="0 0 77 77" id="image">
		<path fill-rule="evenodd" clip-rule="evenodd"
			  d="M1.59935 0.301527C1.23353 0.46048 0.723857 0.856895 0.46697 1.18254L0 1.77469V38.4974V75.22L0.467617 75.8128C1.45785 77.0683 -0.76872 76.9988 38.5008 76.9988C78.2821 76.9988 75.6953 77.0894 76.5645 75.6674C76.9968 74.9606 77 74.6862 77 38.4974C77 2.30855 76.9968 2.03409 76.5645 1.3273C75.6951 -0.0951024 78.2898 -0.00497898 38.4537 0.00426998C8.65242 0.0111529 2.14741 0.0636354 1.59935 0.301527ZM72.6877 38.4974V72.4819H38.5008H4.31381V38.4974V4.51281H38.5008H72.6877V38.4974ZM11.7144 11.1688C11.253 11.4504 10.9517 11.8576 10.799 12.4063C10.6463 12.9545 10.5708 20.1894 10.5701 34.3637C10.5688 57.1241 10.5386 56.4978 11.6725 57.2897C12.13 57.6094 14.516 57.6406 38.5652 57.6406H64.9561L65.5865 57.0118L66.217 56.3831V34.3231V12.263L65.5876 11.5605L64.9582 10.858L38.6802 10.8036C12.9507 10.7503 12.3878 10.758 11.7144 11.1688ZM61.9032 22.4857C61.9032 27.0502 61.827 29.6571 61.6959 29.5762C61.5818 29.5059 60.2232 27.9559 58.6767 26.1319C56.3023 23.3314 55.7502 22.7939 55.1277 22.6773C54.676 22.5928 54.1541 22.6524 53.7792 22.8309C53.3687 23.0266 51.1422 25.8955 47.0031 31.5621C43.6126 36.2038 40.7918 40.0484 40.7347 40.1056C40.6775 40.1626 39.3264 39.0435 37.7322 37.6189C34.5532 34.7776 33.7223 34.2676 32.7966 34.5894C32.3398 34.7483 19.3953 42.1795 15.7993 44.3474L15.0983 44.7701V30.0189V15.2674H38.5008H61.9032V22.4857ZM24.4379 21.6438C23.3213 22.0383 21.8947 23.4246 21.5578 24.443C21.4191 24.8616 21.3452 25.8218 21.3935 26.5765C21.5089 28.3829 22.2849 29.5469 23.9278 30.3776C25.4916 31.1683 26.7504 31.1657 28.2811 30.3684C29.8792 29.5358 30.6792 28.3594 30.8025 26.6611C30.921 25.0257 30.4797 23.8038 29.3861 22.7393C28.0048 21.395 26.2454 21.0054 24.4379 21.6438ZM58.525 32.7284L61.9032 36.7461V45.0424V53.3387H38.5008H15.0983L15.107 51.5642L15.1154 49.7897L24.0965 44.5892L33.0774 39.3887L33.9732 40.1798C40.255 45.7277 40.085 45.5954 40.934 45.5954C41.3817 45.5954 41.9604 45.447 42.2201 45.2654C42.48 45.0841 45.1395 41.5753 48.1305 37.4684C54.6745 28.4822 54.8037 28.314 54.9953 28.5354C55.0787 28.6317 56.6671 30.5185 58.525 32.7284Z"></path>
	</symbol>
	<symbol xmlns="http://www.w3.org/2000/svg" viewBox="0 0 49 50" id="linkedin">
		<path
			d="M45.5 0H3.48906C1.56406 0 0 1.6183 0 3.60491V46.3951C0 48.3817 1.56406 50 3.48906 50H45.5C47.425 50 49 48.3817 49 46.3951V3.60491C49 1.6183 47.425 0 45.5 0ZM14.8094 42.8571H7.54688V18.9955H14.8203V42.8571H14.8094ZM11.1781 15.7366C8.84844 15.7366 6.96719 13.8058 6.96719 11.4397C6.96719 9.07366 8.84844 7.14286 11.1781 7.14286C13.4969 7.14286 15.3891 9.07366 15.3891 11.4397C15.3891 13.817 13.5078 15.7366 11.1781 15.7366V15.7366ZM42.0328 42.8571H34.7703V31.25C34.7703 28.4821 34.7156 24.9219 30.9969 24.9219C27.2125 24.9219 26.6328 27.9353 26.6328 31.0491V42.8571H19.3703V18.9955H26.3375V22.2545H26.4359C27.4094 20.3795 29.7828 18.404 33.3156 18.404C40.6656 18.404 42.0328 23.3482 42.0328 29.7768V42.8571V42.8571Z"></path>
	</symbol>
	<symbol xmlns="http://www.w3.org/2000/svg" viewBox="0 0 100 100" id="jobs">
		<path
			d="M50 .27C22.58.27.28 22.58.28 50S22.59 99.72 50 99.72 99.72 77.41 99.72 50 77.42.27 50 .27Zm0 93.84c-24.33 0-44.12-19.79-44.12-44.12S25.67 5.89 50 5.89 94.12 25.68 94.12 50 74.33 94.12 50 94.12Z"></path>
		<path
			d="M81.07 28.88c-.46-.46-1.08-.72-1.73-.72H61.8v-6.37c0-.65-.26-1.27-.72-1.73-.46-.46-1.08-.72-1.73-.72H40.67a2.463 2.463 0 0 0-2.45 2.45v6.37h-17.8c-.61.06-1.17.34-1.58.8-.41.45-.63 1.04-.63 1.65v41.6c0 .66.26 1.27.73 1.73.46.45 1.08.71 1.72.71h58.68c.65 0 1.27-.26 1.73-.72.46-.46.72-1.07.72-1.73V30.61c0-.65-.26-1.27-.72-1.73Zm-37.68 27.4c.46.46 1.09.72 1.74.72h9.77c.65 0 1.28-.26 1.74-.72.46-.46.72-1.1.72-1.74v-3.08l19.52-5.2v23.49H23.12v-23.5l19.54 5.22v3.08c0 .65.26 1.29.72 1.75Zm9.05-6.53v2.34h-4.86v-2.68l4.86-.02c-.01.13-.01.27 0 .36Zm2.45-5.27h-9.77c-.65 0-1.28.26-1.74.72-.32.32-.54.73-.65 1.19l-19.61-5.24v-8.1h17.27c.09 0 .17.01.27.02h18.69c.09 0 .18 0 .21-.02h17.31v8.11l-19.59 5.23a2.463 2.463 0 0 0-2.39-1.91h-.01ZM43.14 28.15v-3.91h13.75v3.91H43.14Z"></path>
	</symbol>
	<symbol xmlns="http://www.w3.org/2000/svg" viewBox="0 0 50 50" id="instagram">
		<path
			d="M25 19.0469C23.8227 19.0473 22.6719 19.3968 21.6932 20.0512C20.7145 20.7056 19.9519 21.6356 19.5016 22.7234C19.0514 23.8112 18.9338 25.0081 19.1638 26.1628C19.3937 27.3174 19.9609 28.3779 20.7935 29.2103C21.6262 30.0426 22.6869 30.6094 23.8417 30.8389C24.9964 31.0684 26.1932 30.9504 27.2809 30.4998C28.3686 30.0491 29.2982 29.2861 29.9522 28.3071C30.6063 27.3282 30.9554 26.1773 30.9554 25C30.9542 23.4211 30.3263 21.9073 29.2096 20.791C28.093 19.6748 26.5789 19.0475 25 19.0469V19.0469ZM38.9185 14.471C38.6155 13.7029 38.1578 13.0054 37.574 12.4215C36.9902 11.8377 36.2926 11.3801 35.5246 11.077C33.1808 10.1518 27.6004 10.3594 25 10.3594C22.3996 10.3594 16.8248 10.144 14.4743 11.077C13.7063 11.3801 13.0087 11.8377 12.4249 12.4215C11.8411 13.0054 11.3834 13.7029 11.0804 14.471C10.1562 16.8147 10.3627 22.4007 10.3627 24.9989C10.3627 27.5971 10.1562 33.1763 11.0848 35.5279C11.3879 36.2959 11.8455 36.9935 12.4294 37.5773C13.0132 38.1612 13.7108 38.6188 14.4788 38.9219C16.8225 39.8471 22.4029 39.6395 25.0045 39.6395C27.606 39.6395 33.1786 39.8549 35.529 38.9219C36.2971 38.6188 36.9946 38.1612 37.5785 37.5773C38.1623 36.9935 38.6199 36.2959 38.923 35.5279C39.8549 33.1841 39.6406 27.5982 39.6406 25C39.6406 22.4018 39.8549 16.8237 38.923 14.4721L38.9185 14.471ZM25 34.1518C23.1899 34.1518 21.4205 33.615 19.9155 32.6094C18.4105 31.6038 17.2375 30.1745 16.5449 28.5022C15.8522 26.83 15.6709 24.9898 16.0241 23.2146C16.3772 21.4393 17.2488 19.8086 18.5287 18.5287C19.8086 17.2488 21.4393 16.3772 23.2146 16.0241C24.9898 15.6709 26.83 15.8522 28.5022 16.5449C30.1745 17.2375 31.6038 18.4105 32.6094 19.9155C33.615 21.4205 34.1518 23.1899 34.1518 25C34.1533 26.2022 33.9175 27.393 33.4581 28.504C32.9987 29.615 32.3247 30.6245 31.4746 31.4746C30.6245 32.3247 29.615 32.9987 28.504 33.4581C27.393 33.9175 26.2022 34.1533 25 34.1518V34.1518ZM34.529 17.6004C34.1065 17.6007 33.6934 17.4756 33.3419 17.241C32.9905 17.0064 32.7165 16.6728 32.5547 16.2825C32.3928 15.8922 32.3504 15.4627 32.4327 15.0482C32.5149 14.6338 32.7183 14.253 33.017 13.9542C33.3157 13.6553 33.6963 13.4518 34.1107 13.3693C34.5252 13.2867 34.9547 13.329 35.3451 13.4906C35.7355 13.6523 36.0692 13.9261 36.304 14.2774C36.5387 14.6287 36.6641 15.0417 36.6641 15.4643C36.6652 15.7449 36.611 16.0229 36.5045 16.2825C36.3979 16.5421 36.2412 16.7781 36.0433 16.977C35.8453 17.1759 35.6101 17.3337 35.351 17.4415C35.0919 17.5492 34.8141 17.6048 34.5335 17.6049L34.529 17.6004ZM44.6429 0H5.35714C3.93634 0 2.57373 0.564412 1.56907 1.56907C0.564412 2.57373 0 3.93634 0 5.35714L0 44.6429C0 46.0637 0.564412 47.4263 1.56907 48.4309C2.57373 49.4356 3.93634 50 5.35714 50H44.6429C46.0637 50 47.4263 49.4356 48.4309 48.4309C49.4356 47.4263 50 46.0637 50 44.6429V5.35714C50 3.93634 49.4356 2.57373 48.4309 1.56907C47.4263 0.564412 46.0637 0 44.6429 0V0ZM42.7321 32.3661C42.5882 35.2266 41.9353 37.7612 39.8471 39.8437C37.7589 41.9263 35.2266 42.5926 32.3694 42.7288C29.4219 42.8951 20.5848 42.8951 17.6373 42.7288C14.7768 42.5848 12.2511 41.9308 10.1596 39.8437C8.06808 37.7567 7.41071 35.221 7.27455 32.3661C7.10826 29.4174 7.10826 20.5792 7.27455 17.6339C7.41853 14.7734 8.06362 12.2388 10.1596 10.1562C12.2556 8.07366 14.7879 7.41518 17.6373 7.27902C20.5848 7.11272 29.4219 7.11272 32.3694 7.27902C35.2299 7.42299 37.7634 8.07701 39.8471 10.1641C41.9308 12.2511 42.596 14.7868 42.7321 17.6473C42.8984 20.5848 42.8984 29.4152 42.7321 32.3661Z"></path>
	</symbol>
	<symbol xmlns="http://www.w3.org/2000/svg" viewBox="0 0 44 50" id="tiktok">
		<path
			d="M43.7484 20.5042C39.448 20.5145 35.253 19.1734 31.7561 16.6702V34.1278C31.7549 37.3611 30.7666 40.517 28.9234 43.1735C27.0802 45.83 24.4699 47.8605 21.4416 48.9934C18.4132 50.1263 15.1112 50.3077 11.9769 49.5133C8.84272 48.7189 6.02573 46.9866 3.90263 44.5479C1.77953 42.1093 0.451524 39.0807 0.0961886 35.8669C-0.259147 32.6532 0.375123 29.4075 1.91419 26.564C3.45325 23.7205 5.82375 21.4146 8.70872 19.9546C11.5937 18.4947 14.8556 17.9503 18.0583 18.3943V27.1749C16.5927 26.7139 15.019 26.7277 13.5618 27.2145C12.1046 27.7013 10.8385 28.6361 9.94422 29.8854C9.04997 31.1346 8.57334 32.6346 8.58239 34.1709C8.59144 35.7072 9.08571 37.2014 9.9946 38.4401C10.9035 39.6787 12.1806 40.5985 13.6434 41.0681C15.1062 41.5377 16.68 41.533 18.1401 41.0548C19.6001 40.5766 20.8717 39.6492 21.7732 38.4052C22.6748 37.1612 23.1602 35.6641 23.1602 34.1278V0H31.7561C31.7501 0.725907 31.8109 1.45082 31.9378 2.16559V2.16559C32.2365 3.76119 32.8576 5.27908 33.763 6.62642C34.6685 7.97376 35.8392 9.12222 37.2038 10.0016C39.1451 11.2852 41.4211 11.9693 43.7484 11.9689V20.5042Z"></path>
	</symbol>
	<symbol fill="none" xmlns="http://www.w3.org/2000/svg" viewBox="0 0 7 8" id="list-icon">
		<path d="M1 0v7.5h6" stroke="#000"></path>
	</symbol>
	<symbol xmlns="http://www.w3.org/2000/svg" viewBox="0 0 56 90" id="upload">
		<path fill-rule="evenodd" clip-rule="evenodd"
			  d="M17.0471 10.2874L6.76935 20.575V21.5855C6.76935 23.011 7.72744 23.97 9.15131 23.97H10.1597L17.5119 16.6312L24.8643 9.29237V21.5598V33.8273L13.2363 33.8924L1.60804 33.9575L0.840061 34.7257L0.0718463 35.4939L0.014977 61.1632C-0.030143 81.4019 0.020382 86.9554 0.253267 87.413C0.415652 87.7321 0.906567 88.2345 1.34367 88.5292L2.13891 89.065L27.5429 89.0641C52.6087 89.0634 52.9572 89.057 53.7247 88.5889C55.2527 87.6573 55.1793 89.0265 55.1793 61.4525C55.1793 33.8785 55.2527 35.2477 53.7247 34.3161C52.9725 33.8574 52.5671 33.8416 41.3731 33.8409L29.7993 33.84V21.4487V9.05737L37.2691 16.5137L44.7388 23.97H45.8122C47.5329 23.97 48.6536 22.5967 48.2577 20.9737C48.1526 20.5437 44.7073 16.9287 37.9546 10.1637C32.3745 4.57357 27.7001 0 27.5668 0C27.4336 0 22.6998 4.62927 17.0471 10.2874ZM24.9182 53.9518L24.9818 69.3638L25.7494 70.0493C26.749 70.9425 28.0665 70.9902 29.0224 70.1679L29.6818 69.6009L29.7455 54.0704L29.8092 38.54H40.0268H50.2443V61.4525V84.365H27.4493H4.65435V61.4525V38.54H14.7544H24.8545L24.9182 53.9518Z"></path>
	</symbol>
	<symbol xmlns="http://www.w3.org/2000/svg" viewBox="0 0 56 46" id="twitter">
		<path
			d="M50.2438 11.464C50.2793 11.9671 50.2793 12.4703 50.2793 12.9734C50.2793 28.3187 38.7312 46 17.6244 46C11.1218 46 5.08125 44.0952 0 40.7891C0.923894 40.8969 1.81213 40.9328 2.77157 40.9328C8.13699 40.9328 13.0762 39.1001 17.0203 35.9735C11.9746 35.8656 7.74619 32.5235 6.28931 27.9234C7.00003 28.0312 7.71064 28.1031 8.45691 28.1031C9.48733 28.1031 10.5179 27.9593 11.4772 27.7078C6.21832 26.6296 2.27402 21.9578 2.27402 16.3156V16.1719C3.80189 17.0344 5.57869 17.5735 7.46181 17.6453C4.37042 15.5608 2.34512 12.0031 2.34512 7.97804C2.34512 5.82183 2.91354 3.84527 3.90853 2.12026C9.55832 9.164 18.0508 13.7639 27.5735 14.2671C27.3959 13.4046 27.2893 12.5063 27.2893 11.6078C27.2893 5.21088 32.4061 0 38.7665 0C42.071 0 45.0558 1.40156 47.1523 3.66562C49.7461 3.16252 52.2334 2.19216 54.4366 0.862506C53.5837 3.55788 51.7715 5.82194 49.3909 7.25934C51.7006 7.0079 53.9391 6.36089 56 5.46254C54.4368 7.76245 52.4824 9.8108 50.2438 11.464V11.464Z"></path>
	</symbol>
	<symbol xmlns="http://www.w3.org/2000/svg" viewBox="0 0 72 62" id="topic">
		<path
			d="M69.4466 0.428906C68.9218 0.032599 68.2221 -0.0972256 67.5854 0.0735965L36.0006 8.23206L4.41572 0.0735965C3.77898 -0.0972256 3.08627 0.0394319 2.55449 0.428906C2.02272 0.81838 1.71484 1.42651 1.71484 2.0688V51.6345C1.71484 52.5706 2.36557 53.3837 3.30318 53.6297L35.4478 61.9317C35.6297 61.9795 35.8186 62 36.0006 62C36.1895 62 36.3714 61.9795 36.5533 61.9317L68.6979 53.6297C69.6355 53.3906 70.2863 52.5706 70.2863 51.6345V2.0688C70.2863 1.42651 69.9784 0.81838 69.4466 0.428906ZM27.9819 20.6201L12.9801 16.7458C11.8396 16.4452 10.6641 17.1011 10.3562 18.2081C10.0554 19.3082 10.7271 20.4424 11.8746 20.7362L26.8764 24.6105C27.0653 24.6583 27.2472 24.6788 27.4361 24.6788C28.3807 24.6788 29.2484 24.0707 29.5073 23.1482C29.8011 22.0481 29.1294 20.9139 27.9819 20.6201ZM27.9819 30.9446L12.9801 27.0703C11.8396 26.7765 10.6641 27.4256 10.3562 28.5325C10.0554 29.6326 10.7271 30.7669 11.8746 31.0607L26.8764 34.935C27.0653 34.9828 27.2472 35.0033 27.4361 35.0033C28.3807 35.0033 29.2484 34.3952 29.5073 33.4727C29.8011 32.3726 29.1294 31.2384 27.9819 30.9446ZM27.9819 41.269L12.9801 37.3948C11.8396 37.101 10.6641 37.7501 10.3562 38.857C10.0554 39.9571 10.7271 41.0914 11.8746 41.3852L26.8764 45.2594C27.0653 45.3073 27.2472 45.3278 27.4361 45.3278C28.3807 45.3278 29.2484 44.7196 29.5073 43.7972C29.8011 42.6971 29.1294 41.5628 27.9819 41.269ZM6.00406 4.75412L33.8595 11.9491V57.2375L6.00406 50.0493V4.75412ZM66.0041 50.0493L38.1417 57.2443V11.956L65.9971 4.76095V50.0493H66.0041ZM44.572 24.6788C44.7539 24.6788 44.9428 24.6583 45.1318 24.6105L60.1335 20.7362C61.274 20.4424 61.9527 19.3082 61.6519 18.2081C61.344 17.108 60.1685 16.452 59.028 16.7458L44.0262 20.6201C42.8857 20.9139 42.207 22.0481 42.5078 23.1482C42.7597 24.0707 43.6274 24.6788 44.572 24.6788ZM44.572 35.0033C44.7539 35.0033 44.9428 34.9828 45.1318 34.935L60.1335 31.0607C61.274 30.7669 61.9527 29.6326 61.6519 28.5325C61.344 27.4325 60.1685 26.7765 59.028 27.0703L44.0262 30.9446C42.8857 31.2384 42.207 32.3726 42.5078 33.4727C42.7597 34.3952 43.6274 35.0033 44.572 35.0033ZM44.572 45.3278C44.7539 45.3278 44.9428 45.3073 45.1318 45.2594L60.1265 41.3852C61.267 41.0914 61.9457 39.9571 61.6449 38.857C61.337 37.7569 60.1615 37.101 59.021 37.3948L44.0192 41.269C42.8787 41.5628 42.2 42.6971 42.5009 43.7972C42.7597 44.7265 43.6274 45.3278 44.572 45.3278Z"></path>
	</symbol>
	<symbol xmlns="http://www.w3.org/2000/svg" viewBox="0 0 576 512" id="youtube">
		<path
			d="M549.655 124.083c-6.281-23.65-24.787-42.276-48.284-48.597C458.781 64 288 64 288 64S117.22 64 74.629 75.486c-23.497 6.322-42.003 24.947-48.284 48.597-11.412 42.867-11.412 132.305-11.412 132.305s0 89.438 11.412 132.305c6.281 23.65 24.787 41.5 48.284 47.821C117.22 448 288 448 288 448s170.78 0 213.371-11.486c23.497-6.321 42.003-24.171 48.284-47.821 11.412-42.867 11.412-132.305 11.412-132.305s0-89.438-11.412-132.305zm-317.51 213.508V175.185l142.739 81.205-142.739 81.201z"></path>
	</symbol>
</svg>