<svg xmlns="http://www.w3.org/2000/svg" width="390" height="1093" fill="none">
  <path fill="#212529" d="M0 0h390v1093H0z" />
  <path fill="#888"
    d="M1.456 44V32.8H6.08c1.984 0 3.056 1.168 3.056 2.784 0 1.296-.688 2.192-1.648 2.624 1.232.272 2.304 1.12 2.304 2.752 0 1.872-1.392 3.04-3.6 3.04H1.456Zm1.2-.976h3.44c1.6 0 2.48-.768 2.48-2.144 0-1.248-.912-2.112-2.464-2.112H2.656v4.256Zm0-5.232h3.152c1.392 0 2.112-.96 2.112-2.048 0-1.136-.752-1.968-2.112-1.968H2.656v4.016Zm15.938-1.984V44h-1.152v-1.392c-.384.928-1.311 1.584-2.736 1.584-1.791 0-2.928-1.248-2.928-3.216v-5.168h1.216V40.8c0 1.392.608 2.368 2.017 2.368 1.344 0 2.367-.848 2.367-2.544v-4.816h1.216Zm2.593-3.488h1.216v4.704c.496-.832 1.456-1.408 2.736-1.408 2.064 0 3.392 1.536 3.392 3.664v1.248c0 2.048-1.264 3.664-3.424 3.664-1.36 0-2.416-.72-2.768-1.472V44h-1.152V32.32Zm6.128 8.16v-1.152c0-1.504-.848-2.72-2.4-2.72-1.36 0-2.512 1.04-2.512 2.72v1.056c0 1.584.88 2.816 2.496 2.816 1.696 0 2.416-1.216 2.416-2.72Zm3.403-8.16h1.216v4.704c.496-.832 1.456-1.408 2.736-1.408 2.064 0 3.392 1.536 3.392 3.664v1.248c0 2.048-1.264 3.664-3.424 3.664-1.36 0-2.416-.72-2.768-1.472V44h-1.152V32.32Zm6.128 8.16v-1.152c0-1.504-.848-2.72-2.4-2.72-1.36 0-2.512 1.04-2.512 2.72v1.056c0 1.584.88 2.816 2.496 2.816 1.696 0 2.416-1.216 2.416-2.72ZM40.329 44V32.32h1.216V44H40.33Zm7.105.192c-2.128 0-3.616-1.36-3.616-3.568v-1.312c0-2.224 1.264-3.696 3.568-3.696 2.336 0 3.472 1.552 3.472 3.568V40.4h-5.872v.288c0 1.424.736 2.576 2.448 2.576 1.232 0 1.984-.656 2.256-1.584h1.088c-.272 1.472-1.632 2.512-3.344 2.512Zm-2.448-4.976v.256h4.736v-.384c0-1.456-.736-2.544-2.336-2.544-1.76 0-2.4 1.168-2.4 2.672ZM59.6 44.192c-1.984 0-3.392-.992-3.392-2.576v-.08h1.104v.048c0 1.024.96 1.696 2.304 1.696 1.264 0 2.176-.496 2.176-1.552 0-.576-.368-.992-1.024-1.136l-2.432-.56c-1.216-.272-1.92-1.008-1.92-2.08 0-1.536 1.296-2.336 3.104-2.336 1.712 0 3.04 1.04 3.04 2.56v.08h-1.104v-.048c0-1.008-.736-1.68-1.952-1.68-1.136 0-1.968.48-1.968 1.392 0 .56.272.912.864 1.056l2.512.592c1.264.304 2.016.928 2.016 2.112 0 1.456-1.408 2.512-3.328 2.512ZM65.095 44v-8.192h1.216V44h-1.216Zm-.16-10.352c0-.432.304-.736.768-.736s.768.304.768.736-.304.736-.768.736-.768-.304-.768-.736ZM68.6 44v-.912l4.832-6.32h-4.64v-.96h5.983v.912l-4.832 6.32h4.897V44H68.6Zm11.443.192c-2.128 0-3.616-1.36-3.616-3.568v-1.312c0-2.224 1.264-3.696 3.568-3.696 2.336 0 3.472 1.552 3.472 3.568V40.4h-5.872v.288c0 1.424.736 2.576 2.448 2.576 1.232 0 1.984-.656 2.256-1.584h1.088c-.272 1.472-1.632 2.512-3.344 2.512Zm-2.448-4.976v.256h4.736v-.384c0-1.456-.736-2.544-2.336-2.544-1.76 0-2.4 1.168-2.4 2.672Zm14.615 4.976c-1.984 0-3.392-.992-3.392-2.576v-.08h1.104v.048c0 1.024.96 1.696 2.304 1.696 1.264 0 2.176-.496 2.176-1.552 0-.576-.368-.992-1.024-1.136l-2.432-.56c-1.216-.272-1.92-1.008-1.92-2.08 0-1.536 1.296-2.336 3.104-2.336 1.712 0 3.04 1.04 3.04 2.56v.08h-1.104v-.048c0-1.008-.736-1.68-1.952-1.68-1.136 0-1.968.48-1.968 1.392 0 .56.272.912.864 1.056l2.512.592c1.264.304 2.016.928 2.016 2.112 0 1.456-1.408 2.512-3.328 2.512ZM97.624 44V32.32h1.216v4.752c.464-.848 1.312-1.456 2.672-1.456 1.84 0 3.008 1.248 3.008 3.216V44h-1.216v-4.992c0-1.392-.624-2.336-2.096-2.336-1.344 0-2.368.816-2.368 2.512V44h-1.216Zm12.67.192c-2.336 0-3.664-1.6-3.664-3.616v-1.344c0-2.016 1.344-3.616 3.664-3.616 2.32 0 3.648 1.6 3.648 3.616v1.344c0 2.016-1.328 3.616-3.648 3.616Zm2.48-4.944c0-1.552-.864-2.656-2.48-2.656s-2.48 1.104-2.48 2.656v1.312c0 1.552.864 2.656 2.48 2.656s2.48-1.104 2.48-2.656v-1.312Zm13.593-3.44L124.127 44h-1.152l-2.176-6.912L118.623 44h-1.152l-2.24-8.192h1.152l1.728 6.736 2.112-6.736h1.152l2.112 6.736 1.728-6.736h1.152Zm4.734 8.384c-1.984 0-3.392-.992-3.392-2.576v-.08h1.104v.048c0 1.024.96 1.696 2.304 1.696 1.264 0 2.176-.496 2.176-1.552 0-.576-.368-.992-1.024-1.136l-2.432-.56c-1.216-.272-1.92-1.008-1.92-2.08 0-1.536 1.296-2.336 3.104-2.336 1.712 0 3.04 1.04 3.04 2.56v.08h-1.104v-.048c0-1.008-.736-1.68-1.952-1.68-1.136 0-1.968.48-1.968 1.392 0 .56.272.912.864 1.056l2.512.592c1.264.304 2.016.928 2.016 2.112 0 1.456-1.408 2.512-3.328 2.512ZM143.95 44h-1.024c-1.568 0-2.224-.784-2.224-2.176V36.8h-1.392v-.992h1.392v-2.352h1.216v2.352h2.096v.992h-2.096v5.024c0 .832.304 1.184 1.216 1.184h.816V44Zm2.049 0V32.32h1.216v4.752c.464-.848 1.312-1.456 2.672-1.456 1.84 0 3.008 1.248 3.008 3.216V44h-1.216v-4.992c0-1.392-.624-2.336-2.096-2.336-1.344 0-2.368.816-2.368 2.512V44h-1.216Zm12.622.192c-2.128 0-3.616-1.36-3.616-3.568v-1.312c0-2.224 1.264-3.696 3.568-3.696 2.336 0 3.472 1.552 3.472 3.568V40.4h-5.872v.288c0 1.424.736 2.576 2.448 2.576 1.232 0 1.984-.656 2.256-1.584h1.088c-.272 1.472-1.632 2.512-3.344 2.512Zm-2.448-4.976v.256h4.736v-.384c0-1.456-.736-2.544-2.336-2.544-1.76 0-2.4 1.168-2.4 2.672ZM167.78 44v-8.192h1.152V37.2c.384-.928 1.312-1.584 2.736-1.584 1.84 0 3.008 1.248 3.008 3.216V44h-1.216v-4.992c0-1.392-.624-2.336-2.096-2.336-1.344 0-2.368.816-2.368 2.512V44h-1.216Zm16.143-8.192V44h-1.152v-1.392c-.384.928-1.312 1.584-2.736 1.584-1.792 0-2.928-1.248-2.928-3.216v-5.168h1.216V40.8c0 1.392.608 2.368 2.016 2.368 1.344 0 2.368-.848 2.368-2.544v-4.816h1.216ZM186.515 44v-8.192h1.152V37.2c.384-.928 1.28-1.584 2.704-1.584 1.216 0 2.144.608 2.608 1.6.56-.96 1.552-1.6 2.976-1.6 1.792 0 2.944 1.28 2.944 3.216V44h-1.216v-4.992c0-1.392-.688-2.336-2.032-2.336s-2.336.816-2.336 2.512V44h-1.216v-4.992c0-1.392-.688-2.336-2.032-2.336s-2.336.816-2.336 2.512V44h-1.216Zm14.89-11.68h1.216v4.704c.496-.832 1.456-1.408 2.736-1.408 2.064 0 3.392 1.536 3.392 3.664v1.248c0 2.048-1.264 3.664-3.424 3.664-1.36 0-2.416-.72-2.768-1.472V44h-1.152V32.32Zm6.128 8.16v-1.152c0-1.504-.848-2.72-2.4-2.72-1.36 0-2.512 1.04-2.512 2.72v1.056c0 1.584.88 2.816 2.496 2.816 1.696 0 2.416-1.216 2.416-2.72Zm6.62 3.712c-2.128 0-3.616-1.36-3.616-3.568v-1.312c0-2.224 1.264-3.696 3.568-3.696 2.336 0 3.472 1.552 3.472 3.568V40.4h-5.872v.288c0 1.424.736 2.576 2.448 2.576 1.232 0 1.984-.656 2.256-1.584h1.088c-.272 1.472-1.632 2.512-3.344 2.512Zm-2.448-4.976v.256h4.736v-.384c0-1.456-.736-2.544-2.336-2.544-1.76 0-2.4 1.168-2.4 2.672ZM219.796 44v-8.192h1.136v1.888c.304-1.264 1.184-1.936 2.672-1.936h.192v1.136h-.24c-1.552 0-2.544 1.024-2.544 3.088V44h-1.216Zm12.42.192c-2.336 0-3.664-1.6-3.664-3.616v-1.344c0-2.016 1.344-3.616 3.664-3.616 2.32 0 3.648 1.6 3.648 3.616v1.344c0 2.016-1.328 3.616-3.648 3.616Zm2.48-4.944c0-1.552-.864-2.656-2.48-2.656s-2.48 1.104-2.48 2.656v1.312c0 1.552.864 2.656 2.48 2.656s2.48-1.104 2.48-2.656v-1.312ZM238.56 44v-7.2h-1.2v-.992h1.2V34.72c0-1.584.704-2.4 2.368-2.4h1.152v.992h-1.056c-.864 0-1.248.4-1.248 1.312v1.184h2.016v.992h-2.016V44h-1.216Zm11.796.192c-2.272 0-3.632-1.536-3.632-3.6v-1.376c0-2.064 1.36-3.6 3.632-3.6 2.064 0 3.408 1.344 3.504 3.072h-1.088c-.16-1.104-.848-2.112-2.4-2.112-1.68 0-2.464 1.088-2.464 2.624v1.408c0 1.536.784 2.624 2.464 2.624 1.552 0 2.24-1.008 2.4-2.112h1.088c-.096 1.728-1.44 3.072-3.504 3.072Zm8.985 0c-2.336 0-3.664-1.6-3.664-3.616v-1.344c0-2.016 1.344-3.616 3.664-3.616 2.32 0 3.648 1.6 3.648 3.616v1.344c0 2.016-1.328 3.616-3.648 3.616Zm2.48-4.944c0-1.552-.864-2.656-2.48-2.656s-2.48 1.104-2.48 2.656v1.312c0 1.552.864 2.656 2.48 2.656s2.48-1.104 2.48-2.656v-1.312Zm10.102-3.44V44h-1.152v-1.392c-.384.928-1.312 1.584-2.736 1.584-1.792 0-2.928-1.248-2.928-3.216v-5.168h1.216V40.8c0 1.392.608 2.368 2.016 2.368 1.344 0 2.368-.848 2.368-2.544v-4.816h1.216ZM274.515 44v-8.192h1.152V37.2c.384-.928 1.312-1.584 2.736-1.584 1.84 0 3.008 1.248 3.008 3.216V44h-1.216v-4.992c0-1.392-.624-2.336-2.096-2.336-1.344 0-2.368.816-2.368 2.512V44h-1.216Zm13.248 0h-1.024c-1.568 0-2.224-.784-2.224-2.176V36.8h-1.392v-.992h1.392v-2.352h1.216v2.352h2.096v.992h-2.096v5.024c0 .832.304 1.184 1.216 1.184h.816V44Zm2.049 0v-8.192h1.136v1.888c.304-1.264 1.184-1.936 2.672-1.936h.192v1.136h-.24c-1.552 0-2.544 1.024-2.544 3.088V44h-1.216Zm5.72 0v-8.192h1.216V44h-1.216Zm-.16-10.352c0-.432.304-.736.768-.736s.768.304.768.736-.304.736-.768.736-.768-.304-.768-.736Zm7.265 10.544c-2.128 0-3.616-1.36-3.616-3.568v-1.312c0-2.224 1.264-3.696 3.568-3.696 2.336 0 3.472 1.552 3.472 3.568V40.4h-5.872v.288c0 1.424.736 2.576 2.448 2.576 1.232 0 1.984-.656 2.256-1.584h1.088c-.272 1.472-1.632 2.512-3.344 2.512Zm-2.448-4.976v.256h4.736v-.384c0-1.456-.736-2.544-2.336-2.544-1.76 0-2.4 1.168-2.4 2.672Zm11.099 4.976c-1.984 0-3.392-.992-3.392-2.576v-.08H309v.048c0 1.024.96 1.696 2.304 1.696 1.264 0 2.176-.496 2.176-1.552 0-.576-.368-.992-1.024-1.136l-2.432-.56c-1.216-.272-1.92-1.008-1.92-2.08 0-1.536 1.296-2.336 3.104-2.336 1.712 0 3.04 1.04 3.04 2.56v.08h-1.104v-.048c0-1.008-.736-1.68-1.952-1.68-1.136 0-1.968.48-1.968 1.392 0 .56.272.912.864 1.056l2.512.592c1.264.304 2.016.928 2.016 2.112 0 1.456-1.408 2.512-3.328 2.512Zm9.506-.192v-7.2h-1.2v-.992h1.2V34.72c0-1.584.704-2.4 2.368-2.4h1.152v.992h-1.056c-.864 0-1.248.4-1.248 1.312v1.184h2.016v.992h-2.016V44h-1.216Zm7.86.192c-2.336 0-3.664-1.6-3.664-3.616v-1.344c0-2.016 1.344-3.616 3.664-3.616 2.32 0 3.648 1.6 3.648 3.616v1.344c0 2.016-1.328 3.616-3.648 3.616Zm2.48-4.944c0-1.552-.864-2.656-2.48-2.656s-2.48 1.104-2.48 2.656v1.312c0 1.552.864 2.656 2.48 2.656s2.48-1.104 2.48-2.656v-1.312ZM334.499 44v-8.192h1.136v1.888c.304-1.264 1.184-1.936 2.672-1.936h.192v1.136h-.24c-1.552 0-2.544 1.024-2.544 3.088V44h-1.216ZM4.512 64.192c-2.128 0-3.616-1.36-3.616-3.568v-1.312c0-2.224 1.264-3.696 3.568-3.696 2.336 0 3.472 1.552 3.472 3.568V60.4H2.064v.288c0 1.424.736 2.576 2.448 2.576 1.232 0 1.984-.656 2.256-1.584h1.088c-.272 1.472-1.632 2.512-3.344 2.512Zm-2.448-4.976v.256H6.8v-.384c0-1.456-.736-2.544-2.336-2.544-1.76 0-2.4 1.168-2.4 2.672ZM16.828 64h-1.167v-1.024c-.352.576-1.457 1.216-2.816 1.216-1.937 0-3.104-1.088-3.104-2.576 0-1.584 1.296-2.56 3.248-2.56 1.295 0 2.16.544 2.623 1.024v-1.52c0-1.12-.736-1.984-2.047-1.984-1.04 0-1.713.48-2.048 1.232h-1.12c.415-1.36 1.567-2.192 3.184-2.192 2.032 0 3.247 1.328 3.247 2.944V64Zm-3.727-.592c1.28 0 2.511-.752 2.511-1.808 0-1.024-1.216-1.744-2.447-1.744-1.36 0-2.272.64-2.272 1.776 0 1.136.943 1.776 2.207 1.776Zm9.458.784c-2.272 0-3.632-1.536-3.632-3.6v-1.376c0-2.064 1.36-3.6 3.632-3.6 2.064 0 3.408 1.344 3.504 3.072h-1.088c-.16-1.104-.848-2.112-2.4-2.112-1.68 0-2.464 1.088-2.464 2.624v1.408c0 1.536.784 2.624 2.464 2.624 1.552 0 2.24-1.008 2.4-2.112h1.088c-.096 1.728-1.44 3.072-3.504 3.072ZM28.28 64V52.32h1.216v4.752c.464-.848 1.312-1.456 2.672-1.456 1.84 0 3.008 1.248 3.008 3.216V64H33.96v-4.992c0-1.392-.624-2.336-2.096-2.336-1.344 0-2.368.816-2.368 2.512V64H28.28Zm16.154.192c-2.272 0-3.632-1.536-3.632-3.6v-1.376c0-2.064 1.36-3.6 3.632-3.6 2.064 0 3.408 1.344 3.504 3.072H46.85c-.16-1.104-.848-2.112-2.4-2.112-1.68 0-2.464 1.088-2.464 2.624v1.408c0 1.536.784 2.624 2.464 2.624 1.552 0 2.24-1.008 2.4-2.112h1.088c-.096 1.728-1.44 3.072-3.504 3.072ZM56.875 64h-1.168v-1.024c-.352.576-1.456 1.216-2.816 1.216-1.936 0-3.104-1.088-3.104-2.576 0-1.584 1.296-2.56 3.248-2.56 1.296 0 2.16.544 2.624 1.024v-1.52c0-1.12-.736-1.984-2.048-1.984-1.04 0-1.712.48-2.048 1.232h-1.12c.416-1.36 1.568-2.192 3.184-2.192 2.032 0 3.248 1.328 3.248 2.944V64Zm-3.728-.592c1.28 0 2.512-.752 2.512-1.808 0-1.024-1.216-1.744-2.448-1.744-1.36 0-2.272.64-2.272 1.776 0 1.136.944 1.776 2.208 1.776ZM63.185 64H62.16c-1.568 0-2.224-.784-2.224-2.176V56.8h-1.392v-.992h1.392v-2.352h1.216v2.352h2.096v.992h-2.096v5.024c0 .832.304 1.184 1.216 1.184h.816V64Zm5.186.192c-2.128 0-3.616-1.36-3.616-3.568v-1.312c0-2.224 1.264-3.696 3.568-3.696 2.336 0 3.472 1.552 3.472 3.568V60.4h-5.872v.288c0 1.424.736 2.576 2.448 2.576 1.232 0 1.984-.656 2.256-1.584h1.088c-.272 1.472-1.632 2.512-3.344 2.512Zm-2.448-4.976v.256h4.736v-.384c0-1.456-.736-2.544-2.336-2.544-1.76 0-2.4 1.168-2.4 2.672Zm11.388 7.76c-1.632 0-3.104-.752-3.552-2.096h1.2c.448.784 1.232 1.136 2.352 1.136 1.424 0 2.4-.8 2.4-2.048v-1.856c-.256.752-1.376 1.552-2.752 1.552-2.128 0-3.344-1.52-3.344-3.344v-1.36c0-1.856 1.2-3.344 3.36-3.344 1.536 0 2.448.832 2.784 1.552v-1.36h1.168V64c0 1.696-1.536 2.976-3.616 2.976Zm-.112-4.304c1.392 0 2.512-.928 2.512-2.48v-1.056c0-1.392-1.056-2.528-2.464-2.528-1.6 0-2.432.88-2.432 2.448v1.168c0 1.536.816 2.448 2.384 2.448Zm9.58 1.52c-2.336 0-3.664-1.6-3.664-3.616v-1.344c0-2.016 1.344-3.616 3.664-3.616 2.32 0 3.648 1.6 3.648 3.616v1.344c0 2.016-1.328 3.616-3.648 3.616Zm2.48-4.944c0-1.552-.864-2.656-2.48-2.656s-2.48 1.104-2.48 2.656v1.312c0 1.552.864 2.656 2.48 2.656s2.48-1.104 2.48-2.656v-1.312ZM92.624 64v-8.192h1.136v1.888c.304-1.264 1.184-1.936 2.672-1.936h.192v1.136h-.24c-1.552 0-2.544 1.024-2.544 3.088V64h-1.216Zm8.32 2.784H99.76L100.8 64l-3.056-8.192h1.2l2.496 6.96 2.4-6.96h1.2L102.016 64l-1.072 2.784Z" />
  <path fill="#fff"
    d="M1.386 16V3.4h8.622v2.088H3.906v3.33h5.562v2.088H3.906V16h-2.52Zm14.345.216c-2.808 0-4.41-1.836-4.41-4.23v-1.332c0-2.394 1.602-4.23 4.41-4.23s4.41 1.836 4.41 4.23v1.332c0 2.394-1.602 4.23-4.41 4.23Zm2.034-4.068v-1.656c0-1.224-.648-2.142-2.034-2.142-1.386 0-2.034.918-2.034 2.142v1.656c0 1.224.648 2.142 2.034 2.142 1.386 0 2.034-.918 2.034-2.142ZM22.142 16V6.64h2.322v1.818c.306-1.404 1.404-1.89 2.808-1.89h.288v2.43h-.505c-1.602 0-2.465.792-2.465 2.682V16h-2.448Zm16.15-9.576c2.575 0 3.943 1.908 3.943 4.122v1.548c0 2.25-1.404 4.122-3.924 4.122-1.242 0-2.196-.504-2.682-1.224v4.14H33.18V6.64h2.34v1.116c.468-.72 1.422-1.332 2.772-1.332Zm-.593 1.98c-1.242 0-2.07.936-2.07 2.25v1.368c0 1.422.936 2.214 2.052 2.214 1.386 0 2.106-.936 2.106-2.25v-1.332c0-1.242-.666-2.25-2.088-2.25ZM44.237 16V6.64h2.322v1.818c.306-1.404 1.404-1.89 2.808-1.89h.288v2.43h-.504c-1.602 0-2.466.792-2.466 2.682V16h-2.448Zm10.904.216c-2.807 0-4.41-1.836-4.41-4.23v-1.332c0-2.394 1.602-4.23 4.41-4.23 2.809 0 4.41 1.836 4.41 4.23v1.332c0 2.394-1.602 4.23-4.41 4.23Zm2.035-4.068v-1.656c0-1.224-.648-2.142-2.035-2.142-1.386 0-2.033.918-2.033 2.142v1.656c0 1.224.648 2.142 2.034 2.142 1.386 0 2.033-.918 2.033-2.142Zm3.152 6.984v-1.89h.558c.504 0 .72-.162.72-.612V6.64h2.448v10.206c0 1.458-.774 2.286-2.43 2.286h-1.296Zm1.08-14.94c0-.81.594-1.422 1.422-1.422s1.422.612 1.422 1.422c0 .81-.594 1.422-1.422 1.422s-1.422-.612-1.422-1.422Zm9.06 12.024c-2.646 0-4.356-1.548-4.356-4.176v-1.278c0-2.538 1.512-4.338 4.32-4.338 2.772 0 4.176 1.854 4.176 4.104v1.638h-6.12v.234c0 1.098.558 2.052 1.98 2.052 1.044 0 1.692-.54 1.926-1.188h2.142c-.324 1.71-1.998 2.952-4.068 2.952Zm-1.98-5.868v.09h3.87v-.234c0-1.17-.612-2.052-1.926-2.052-1.404 0-1.944.936-1.944 2.196Zm12.125 5.868c-2.826 0-4.428-1.782-4.428-4.23v-1.332c0-2.448 1.602-4.23 4.428-4.23 2.502 0 4.194 1.566 4.266 3.708h-2.232c-.108-.918-.684-1.728-1.98-1.728-1.386 0-2.034.9-2.034 2.16v1.512c0 1.26.648 2.16 2.034 2.16 1.296 0 1.872-.81 1.98-1.728h2.232c-.072 2.142-1.764 3.708-4.266 3.708ZM90.087 16c-1.8 0-2.646-1.008-2.646-2.664V8.62h-1.332V6.64h1.332V4.084h2.466V6.64h1.998v1.98h-1.998v4.536c0 .612.234.864.882.864h.99V16h-1.692Zm7.286.216c-2.376 0-4.032-.99-4.032-2.988v-.162h2.16v.126c0 .81.738 1.296 1.89 1.296 1.026 0 1.782-.414 1.782-1.134 0-.45-.234-.72-.774-.846l-2.772-.63c-1.404-.324-2.142-1.044-2.142-2.466 0-1.926 1.566-2.988 3.78-2.988 2.25 0 3.708 1.134 3.708 2.988v.144h-2.142v-.162c0-.72-.45-1.224-1.53-1.224-.99 0-1.53.36-1.53 1.026 0 .468.234.684.72.792l2.844.702c1.386.342 2.088 1.08 2.088 2.394 0 1.818-1.728 3.132-4.05 3.132ZM119.91 6.64l-2.43 9.36h-2.286l-2.052-6.444L111.089 16h-2.286l-2.43-9.36h2.376l1.368 6.282 1.908-6.282h2.232l1.908 6.282 1.368-6.282h2.376Zm1.585 9.36V6.64h2.448V16h-2.448Zm-.198-11.808c0-.81.594-1.422 1.422-1.422s1.422.612 1.422 1.422c0 .81-.594 1.422-1.422 1.422s-1.422-.612-1.422-1.422ZM129.673 16c-1.8 0-2.646-1.008-2.646-2.664V8.62h-1.332V6.64h1.332V4.084h2.466V6.64h1.998v1.98h-1.998v4.536c0 .612.234.864.882.864h.99V16h-1.692Zm3.65 0V2.86h2.448v4.896c.486-.81 1.44-1.332 2.646-1.332 2.034 0 3.312 1.368 3.312 3.582V16h-2.448v-5.598c0-1.08-.522-1.854-1.71-1.854-1.098 0-1.8.648-1.8 1.908V16h-2.448Zm17.828.216c-2.106 0-3.546-1.098-3.546-2.916 0-2.034 1.53-2.97 3.78-2.97 1.116 0 1.944.432 2.376.792V9.844c0-.864-.612-1.512-1.62-1.512-.846 0-1.368.378-1.62.882h-2.268c.54-1.818 1.998-2.79 4.014-2.79 2.34 0 3.942 1.422 3.942 3.6V16h-2.358v-.864c-.432.63-1.62 1.08-2.7 1.08Zm.63-1.62c1.08 0 1.98-.594 1.98-1.386 0-.828-.81-1.314-1.908-1.314-1.152 0-1.872.468-1.872 1.332 0 .864.774 1.368 1.8 1.368Zm14.718 1.62c-2.826 0-4.428-1.782-4.428-4.23v-1.332c0-2.448 1.602-4.23 4.428-4.23 2.502 0 4.194 1.566 4.266 3.708h-2.232c-.108-.918-.684-1.728-1.98-1.728-1.386 0-2.034.9-2.034 2.16v1.512c0 1.26.648 2.16 2.034 2.16 1.296 0 1.872-.81 1.98-1.728h2.232c-.072 2.142-1.764 3.708-4.266 3.708Zm10.212 0c-2.646 0-4.356-1.548-4.356-4.176v-1.278c0-2.538 1.512-4.338 4.32-4.338 2.772 0 4.176 1.854 4.176 4.104v1.638h-6.12v.234c0 1.098.558 2.052 1.98 2.052 1.044 0 1.692-.54 1.926-1.188h2.142c-.324 1.71-1.998 2.952-4.068 2.952Zm-1.98-5.868v.09h3.87v-.234c0-1.17-.612-2.052-1.926-2.052-1.404 0-1.944.936-1.944 2.196Zm8.11 5.652V6.64h2.34v1.116c.468-.864 1.422-1.332 2.754-1.332 2.034 0 3.312 1.332 3.312 3.582V16h-2.448v-5.598c0-1.08-.522-1.854-1.71-1.854-1.098 0-1.8.648-1.8 1.908V16h-2.448Zm13.893 0c-1.8 0-2.646-1.008-2.646-2.664V8.62h-1.332V6.64h1.332V4.084h2.466V6.64h1.998v1.98h-1.998v4.536c0 .612.234.864.882.864h.99V16h-1.692Zm3.65 0V6.64h2.322v1.818c.306-1.404 1.404-1.89 2.808-1.89h.288v2.43h-.504c-1.602 0-2.466.792-2.466 2.682V16h-2.448Zm9.829.216c-2.106 0-3.546-1.098-3.546-2.916 0-2.034 1.53-2.97 3.78-2.97 1.116 0 1.944.432 2.376.792V9.844c0-.864-.612-1.512-1.62-1.512-.846 0-1.368.378-1.62.882h-2.268c.54-1.818 1.998-2.79 4.014-2.79 2.34 0 3.942 1.422 3.942 3.6V16h-2.358v-.864c-.432.63-1.62 1.08-2.7 1.08Zm.63-1.62c1.08 0 1.98-.594 1.98-1.386 0-.828-.81-1.314-1.908-1.314-1.152 0-1.872.468-1.872 1.332 0 .864.774 1.368 1.8 1.368ZM217.647 16V2.86h2.448V16h-2.448Zm12.889.216c-2.826 0-4.428-1.782-4.428-4.23v-1.332c0-2.448 1.602-4.23 4.428-4.23 2.502 0 4.194 1.566 4.266 3.708h-2.232c-.108-.918-.684-1.728-1.98-1.728-1.386 0-2.034.9-2.034 2.16v1.512c0 1.26.648 2.16 2.034 2.16 1.296 0 1.872-.81 1.98-1.728h2.232c-.072 2.142-1.764 3.708-4.266 3.708ZM236.86 16V2.86h2.448V16h-2.448Zm4.974 0V6.64h2.448V16h-2.448Zm-.198-11.808c0-.81.594-1.422 1.422-1.422s1.422.612 1.422 1.422c0 .81-.594 1.422-1.422 1.422s-1.422-.612-1.422-1.422ZM246.755 16V6.64h2.34v1.116c.468-.864 1.368-1.332 2.7-1.332 1.206 0 2.142.486 2.7 1.332.684-.882 1.728-1.332 3.096-1.332 1.962 0 3.348 1.332 3.348 3.582V16h-2.448v-5.598c0-1.08-.486-1.854-1.674-1.854-1.08 0-1.746.648-1.746 1.908V16h-2.448v-5.598c0-1.08-.486-1.854-1.674-1.854-1.098 0-1.746.648-1.746 1.908V16h-2.448Zm19.656.216c-2.106 0-3.546-1.098-3.546-2.916 0-2.034 1.53-2.97 3.78-2.97 1.116 0 1.944.432 2.376.792V9.844c0-.864-.612-1.512-1.62-1.512-.846 0-1.368.378-1.62.882h-2.268c.54-1.818 1.998-2.79 4.014-2.79 2.34 0 3.942 1.422 3.942 3.6V16h-2.358v-.864c-.432.63-1.62 1.08-2.7 1.08Zm.63-1.62c1.08 0 1.98-.594 1.98-1.386 0-.828-.81-1.314-1.908-1.314-1.152 0-1.872.468-1.872 1.332 0 .864.774 1.368 1.8 1.368ZM276.837 16c-1.8 0-2.646-1.008-2.646-2.664V8.62h-1.332V6.64h1.332V4.084h2.466V6.64h1.998v1.98h-1.998v4.536c0 .612.234.864.882.864h.99V16h-1.692Zm7.592.216c-2.646 0-4.356-1.548-4.356-4.176v-1.278c0-2.538 1.512-4.338 4.32-4.338 2.772 0 4.176 1.854 4.176 4.104v1.638h-6.12v.234c0 1.098.558 2.052 1.98 2.052 1.044 0 1.692-.54 1.926-1.188h2.142c-.324 1.71-1.998 2.952-4.068 2.952Zm-1.98-5.868v.09h3.87v-.234c0-1.17-.612-2.052-1.926-2.052-1.404 0-1.944.936-1.944 2.196ZM295.055 16V8.62h-1.188V6.64h1.188v-.864c0-2.052.972-2.916 2.898-2.916h1.62v1.944h-1.062c-.702 0-1.008.216-1.008.954v.882h1.89v1.98h-1.89V16h-2.448Zm9.731.216c-2.808 0-4.41-1.836-4.41-4.23v-1.332c0-2.394 1.602-4.23 4.41-4.23s4.41 1.836 4.41 4.23v1.332c0 2.394-1.602 4.23-4.41 4.23Zm2.034-4.068v-1.656c0-1.224-.648-2.142-2.034-2.142-1.386 0-2.034.918-2.034 2.142v1.656c0 1.224.648 2.142 2.034 2.142 1.386 0 2.034-.918 2.034-2.142Zm8.39 4.068c-2.826 0-4.428-1.782-4.428-4.23v-1.332c0-2.448 1.602-4.23 4.428-4.23 2.502 0 4.194 1.566 4.266 3.708h-2.232c-.108-.918-.684-1.728-1.98-1.728-1.386 0-2.034.9-2.034 2.16v1.512c0 1.26.648 2.16 2.034 2.16 1.296 0 1.872-.81 1.98-1.728h2.232c-.072 2.142-1.764 3.708-4.266 3.708Zm14.513-9.576V16h-2.34v-1.116c-.432.792-1.512 1.332-2.718 1.332-2.106 0-3.276-1.458-3.276-3.582V6.64h2.448v5.652c0 1.188.558 1.872 1.656 1.872 1.134 0 1.782-.72 1.782-1.89V6.64h2.448Zm6.045 9.576c-2.376 0-4.032-.99-4.032-2.988v-.162h2.16v.126c0 .81.738 1.296 1.89 1.296 1.026 0 1.782-.414 1.782-1.134 0-.45-.234-.72-.774-.846l-2.772-.63c-1.404-.324-2.142-1.044-2.142-2.466 0-1.926 1.566-2.988 3.78-2.988 2.25 0 3.708 1.134 3.708 2.988v.144h-2.142v-.162c0-.72-.45-1.224-1.53-1.224-.99 0-1.53.36-1.53 1.026 0 .468.234.684.72.792l2.844.702c1.386.342 2.088 1.08 2.088 2.394 0 1.818-1.728 3.132-4.05 3.132Z" />
  <path fill="#C2C2C2"
    d="M126.477 297.611c57.149 0 103.478-46.328 103.478-103.477S183.626 90.657 126.477 90.657C69.328 90.657 23 136.985 23 194.134s46.328 103.477 103.477 103.477Z" />
  <path fill="#212529"
    d="M109.764 202.21v-9.936l-2.336 1.104v-1.12l2.544-1.248h1.024v11.2h-1.232Zm7.802.224c-2.464 0-3.92-1.6-3.92-3.728v-4.192c0-2.128 1.456-3.728 3.92-3.728s3.92 1.6 3.92 3.728v4.192c0 2.128-1.456 3.728-3.92 3.728Zm0-1.008c1.744 0 2.688-1.088 2.688-2.672v-4.288c0-1.584-.944-2.672-2.688-2.672-1.744 0-2.688 1.088-2.688 2.672v4.288c0 1.584.944 2.672 2.688 2.672Zm10.078 1.008c-2.464 0-3.92-1.6-3.92-3.728v-4.192c0-2.128 1.456-3.728 3.92-3.728s3.92 1.6 3.92 3.728v4.192c0 2.128-1.456 3.728-3.92 3.728Zm0-1.008c1.744 0 2.688-1.088 2.688-2.672v-4.288c0-1.584-.944-2.672-2.688-2.672-1.744 0-2.688 1.088-2.688 2.672v4.288c0 1.584.944 2.672 2.688 2.672Zm8.43-4.352c-1.488 0-2.416-.992-2.416-2.4v-1.392c0-1.408.928-2.4 2.416-2.4s2.416.992 2.416 2.4v1.392c0 1.408-.928 2.4-2.416 2.4Zm0-.768c.976 0 1.504-.64 1.504-1.568v-1.52c0-.928-.528-1.568-1.504-1.568s-1.504.64-1.504 1.568v1.52c0 .928.528 1.568 1.504 1.568Zm6.88 6.032c-1.488 0-2.416-.992-2.416-2.4v-1.392c0-1.408.928-2.4 2.416-2.4s2.416.992 2.416 2.4v1.392c0 1.408-.928 2.4-2.416 2.4Zm0-.768c.976 0 1.504-.64 1.504-1.568v-1.52c0-.928-.528-1.568-1.504-1.568s-1.504.64-1.504 1.568v1.52c0 .928.528 1.568 1.504 1.568Zm-6.8.64 5.808-11.2h.928l-5.808 11.2h-.928Z" />
  <path fill="#01FFD8"
    d="M277.818 240.411c25.557 0 46.276-20.719 46.276-46.277 0-25.557-20.719-46.276-46.276-46.276-25.558 0-46.277 20.719-46.277 46.276 0 25.558 20.719 46.277 46.277 46.277Z" />
  <path fill="#212529"
    d="M250.357 195.224c-3.088 0-4.656-2.096-4.656-4.88v-1.888c0-2.784 1.568-4.88 4.656-4.88 2.592 0 4.24 1.808 4.416 3.92h-1.2c-.192-1.536-1.216-2.88-3.232-2.88-2.288 0-3.392 1.6-3.392 3.792v1.984c0 2.192 1.104 3.792 3.392 3.792 2.016 0 3.04-1.344 3.232-2.88h1.2c-.176 2.112-1.824 3.92-4.416 3.92Zm13.412-.224h-1.168v-1.024c-.352.576-1.456 1.216-2.816 1.216-1.936 0-3.104-1.088-3.104-2.576 0-1.584 1.296-2.56 3.248-2.56 1.296 0 2.16.544 2.624 1.024v-1.52c0-1.12-.736-1.984-2.048-1.984-1.04 0-1.712.48-2.048 1.232h-1.12c.416-1.36 1.568-2.192 3.184-2.192 2.032 0 3.248 1.328 3.248 2.944V195Zm-3.728-.592c1.28 0 2.512-.752 2.512-1.808 0-1.024-1.216-1.744-2.448-1.744-1.36 0-2.272.64-2.272 1.776 0 1.136.944 1.776 2.208 1.776Zm9.235.784c-1.984 0-3.392-.992-3.392-2.576v-.08h1.104v.048c0 1.024.96 1.696 2.304 1.696 1.264 0 2.176-.496 2.176-1.552 0-.576-.368-.992-1.024-1.136l-2.432-.56c-1.216-.272-1.92-1.008-1.92-2.08 0-1.536 1.296-2.336 3.104-2.336 1.712 0 3.04 1.04 3.04 2.56v.08h-1.104v-.048c0-1.008-.736-1.68-1.952-1.68-1.136 0-1.968.48-1.968 1.392 0 .56.272.912.864 1.056l2.512.592c1.264.304 2.016.928 2.016 2.112 0 1.456-1.408 2.512-3.328 2.512Zm8.63 0c-2.128 0-3.616-1.36-3.616-3.568v-1.312c0-2.224 1.264-3.696 3.568-3.696 2.336 0 3.472 1.552 3.472 3.568v1.216h-5.872v.288c0 1.424.736 2.576 2.448 2.576 1.232 0 1.984-.656 2.256-1.584h1.088c-.272 1.472-1.632 2.512-3.344 2.512Zm-2.448-4.976v.256h4.736v-.384c0-1.456-.736-2.544-2.336-2.544-1.76 0-2.4 1.168-2.4 2.672Zm7.867.32v-1.072h4.464v1.072h-4.464Zm6.834-7.216h1.216v4.704c.496-.832 1.456-1.408 2.736-1.408 2.064 0 3.392 1.536 3.392 3.664v1.248c0 2.048-1.264 3.664-3.424 3.664-1.36 0-2.416-.72-2.768-1.472V195h-1.152v-11.68Zm6.128 8.16v-1.152c0-1.504-.848-2.72-2.4-2.72-1.36 0-2.512 1.04-2.512 2.72v1.056c0 1.584.88 2.816 2.496 2.816 1.696 0 2.416-1.216 2.416-2.72Zm5.613 6.304h-1.184l1.04-2.784-3.056-8.192h1.2l2.496 6.96 2.4-6.96h1.2L302.972 195l-1.072 2.784Zm5.285-7.248v-1.072h4.464v1.072h-4.464Zm-41.732 23.656c-2.272 0-3.632-1.536-3.632-3.6v-1.376c0-2.064 1.36-3.6 3.632-3.6 2.064 0 3.408 1.344 3.504 3.072h-1.088c-.16-1.104-.848-2.112-2.4-2.112-1.68 0-2.464 1.088-2.464 2.624v1.408c0 1.536.784 2.624 2.464 2.624 1.552 0 2.24-1.008 2.4-2.112h1.088c-.096 1.728-1.44 3.072-3.504 3.072Zm12.441-.192h-1.168v-1.024c-.352.576-1.456 1.216-2.816 1.216-1.936 0-3.104-1.088-3.104-2.576 0-1.584 1.296-2.56 3.248-2.56 1.296 0 2.16.544 2.624 1.024v-1.52c0-1.12-.736-1.984-2.048-1.984-1.04 0-1.712.48-2.048 1.232h-1.12c.416-1.36 1.568-2.192 3.184-2.192 2.032 0 3.248 1.328 3.248 2.944V214Zm-3.728-.592c1.28 0 2.512-.752 2.512-1.808 0-1.024-1.216-1.744-2.448-1.744-1.36 0-2.272.64-2.272 1.776 0 1.136.944 1.776 2.208 1.776Zm9.235.784c-1.984 0-3.392-.992-3.392-2.576v-.08h1.104v.048c0 1.024.96 1.696 2.304 1.696 1.264 0 2.176-.496 2.176-1.552 0-.576-.368-.992-1.024-1.136l-2.432-.56c-1.216-.272-1.92-1.008-1.92-2.08 0-1.536 1.296-2.336 3.104-2.336 1.712 0 3.04 1.04 3.04 2.56v.08h-1.104v-.048c0-1.008-.736-1.68-1.952-1.68-1.136 0-1.968.48-1.968 1.392 0 .56.272.912.864 1.056l2.512.592c1.264.304 2.016.928 2.016 2.112 0 1.456-1.408 2.512-3.328 2.512Zm8.63 0c-2.128 0-3.616-1.36-3.616-3.568v-1.312c0-2.224 1.264-3.696 3.568-3.696 2.336 0 3.472 1.552 3.472 3.568v1.216h-5.872v.288c0 1.424.736 2.576 2.448 2.576 1.232 0 1.984-.656 2.256-1.584h1.088c-.272 1.472-1.632 2.512-3.344 2.512Zm-2.448-4.976v.256h4.736v-.384c0-1.456-.736-2.544-2.336-2.544-1.76 0-2.4 1.168-2.4 2.672Z" />
  <path fill="#C2C2C2"
    d="M239.793 277.233c12.779 0 23.138-10.359 23.138-23.138 0-12.779-10.359-23.138-23.138-23.138-12.779 0-23.138 10.359-23.138 23.138 0 12.779 10.359 23.138 23.138 23.138Z" />
  <path fill="#212529"
    d="M228.45 262.395c-2.272 0-3.888-1.296-3.888-3.2 0-1.712 1.184-2.608 2.256-2.848-1.072-.48-1.792-1.36-1.792-2.608 0-1.856 1.424-2.992 3.424-2.992s3.424 1.136 3.424 2.992c0 1.248-.72 2.128-1.792 2.608 1.072.24 2.256 1.136 2.256 2.848 0 1.904-1.616 3.2-3.888 3.2Zm0-.928c1.536 0 2.704-.912 2.704-2.272 0-1.456-1.104-2.32-2.704-2.32s-2.704.864-2.704 2.32c0 1.36 1.168 2.272 2.704 2.272Zm-2.272-7.648c0 1.168.96 2.128 2.272 2.128 1.312 0 2.272-.96 2.272-2.128 0-1.312-.896-2.144-2.272-2.144s-2.272.832-2.272 2.144Zm12.27 8.576c-1.856 0-3.44-1.088-3.792-2.976h1.168c.32 1.152 1.216 1.968 2.624 1.968 1.728 0 2.832-1.168 2.832-2.752 0-1.504-1.088-2.72-2.672-2.72-1.168 0-2.016.592-2.544 1.312h-1.168l1.056-6.256h5.584v1.008h-4.608l-.704 4.016c.512-.624 1.52-1.088 2.624-1.088 2.112 0 3.632 1.616 3.632 3.696 0 2.144-1.696 3.792-4.032 3.792Zm8.213-5.36c-1.488 0-2.416-.992-2.416-2.4v-1.392c0-1.408.928-2.4 2.416-2.4s2.416.992 2.416 2.4v1.392c0 1.408-.928 2.4-2.416 2.4Zm0-.768c.976 0 1.504-.64 1.504-1.568v-1.52c0-.928-.528-1.568-1.504-1.568s-1.504.64-1.504 1.568v1.52c0 .928.528 1.568 1.504 1.568Zm6.88 6.032c-1.488 0-2.416-.992-2.416-2.4v-1.392c0-1.408.928-2.4 2.416-2.4s2.416.992 2.416 2.4v1.392c0 1.408-.928 2.4-2.416 2.4Zm0-.768c.976 0 1.504-.64 1.504-1.568v-1.52c0-.928-.528-1.568-1.504-1.568s-1.504.64-1.504 1.568v1.52c0 .928.528 1.568 1.504 1.568Zm-6.8.64 5.808-11.2h.928l-5.808 11.2h-.928Z" />
  <path fill="#C2C2C2"
    d="M239.793 157.311c12.779 0 23.138-10.359 23.138-23.138 0-12.779-10.359-23.138-23.138-23.138-12.779 0-23.138 10.359-23.138 23.138 0 12.779 10.359 23.138 23.138 23.138Z" />
  <path fill="#212529"
    d="M228.711 130.168c-1.848 0-2.94-1.2-2.94-2.796v-3.144c0-1.596 1.092-2.796 2.94-2.796 1.848 0 2.94 1.2 2.94 2.796v3.144c0 1.596-1.092 2.796-2.94 2.796Zm0-.756c1.308 0 2.016-.816 2.016-2.004v-3.216c0-1.188-.708-2.004-2.016-2.004s-2.016.816-2.016 2.004v3.216c0 1.188.708 2.004 2.016 2.004Zm6.323-3.264c-1.116 0-1.812-.744-1.812-1.8v-1.044c0-1.056.696-1.8 1.812-1.8s1.812.744 1.812 1.8v1.044c0 1.056-.696 1.8-1.812 1.8Zm0-.576c.732 0 1.128-.48 1.128-1.176v-1.14c0-.696-.396-1.176-1.128-1.176-.732 0-1.128.48-1.128 1.176v1.14c0 .696.396 1.176 1.128 1.176Zm5.16 4.524c-1.116 0-1.812-.744-1.812-1.8v-1.044c0-1.056.696-1.8 1.812-1.8s1.812.744 1.812 1.8v1.044c0 1.056-.696 1.8-1.812 1.8Zm0-.576c.732 0 1.128-.48 1.128-1.176v-1.14c0-.696-.396-1.176-1.128-1.176-.732 0-1.128.48-1.128 1.176v1.14c0 .696.396 1.176 1.128 1.176Zm-5.1.48 4.356-8.4h.696l-4.356 8.4h-.696Zm13.636.144c-1.752 0-2.748-1.2-2.748-2.712v-1.008c0-1.512 1.008-2.712 2.748-2.712 1.74 0 2.736 1.2 2.736 2.712v1.008c0 1.512-.996 2.712-2.736 2.712Zm1.86-3.708c0-1.164-.648-1.992-1.86-1.992-1.212 0-1.86.828-1.86 1.992v.984c0 1.164.648 1.992 1.86 1.992 1.212 0 1.86-.828 1.86-1.992v-.984Zm2.524 3.564v-6.144h.852v1.416c.228-.948.888-1.452 2.004-1.452h.144v.852h-.18c-1.164 0-1.908.768-1.908 2.316V130h-.912Zm-25.086 14v-7.452l-1.752.828v-.84l1.908-.936h.768v8.4h-.924Zm5.851.168c-1.848 0-2.94-1.2-2.94-2.796v-3.144c0-1.596 1.092-2.796 2.94-2.796 1.848 0 2.94 1.2 2.94 2.796v3.144c0 1.596-1.092 2.796-2.94 2.796Zm0-.756c1.308 0 2.016-.816 2.016-2.004v-3.216c0-1.188-.708-2.004-2.016-2.004s-2.016.816-2.016 2.004v3.216c0 1.188.708 2.004 2.016 2.004Zm7.558.756c-1.848 0-2.94-1.2-2.94-2.796v-3.144c0-1.596 1.092-2.796 2.94-2.796 1.848 0 2.94 1.2 2.94 2.796v3.144c0 1.596-1.092 2.796-2.94 2.796Zm0-.756c1.308 0 2.016-.816 2.016-2.004v-3.216c0-1.188-.708-2.004-2.016-2.004s-2.016.816-2.016 2.004v3.216c0 1.188.708 2.004 2.016 2.004Zm6.323-3.264c-1.116 0-1.812-.744-1.812-1.8v-1.044c0-1.056.696-1.8 1.812-1.8s1.812.744 1.812 1.8v1.044c0 1.056-.696 1.8-1.812 1.8Zm0-.576c.732 0 1.128-.48 1.128-1.176v-1.14c0-.696-.396-1.176-1.128-1.176-.732 0-1.128.48-1.128 1.176v1.14c0 .696.396 1.176 1.128 1.176Zm5.16 4.524c-1.116 0-1.812-.744-1.812-1.8v-1.044c0-1.056.696-1.8 1.812-1.8s1.812.744 1.812 1.8v1.044c0 1.056-.696 1.8-1.812 1.8Zm0-.576c.732 0 1.128-.48 1.128-1.176v-1.14c0-.696-.396-1.176-1.128-1.176-.732 0-1.128.48-1.128 1.176v1.14c0 .696.396 1.176 1.128 1.176Zm-5.1.48 4.356-8.4h.696l-4.356 8.4h-.696Z" />
  <path fill="#01FFD8"
    d="M210.68 313.296c0 2.704-1.568 4.928-4.704 4.928-3.136 0-4.704-2.224-4.704-4.928v-1.792c0-2.704 1.568-4.928 4.704-4.928 3.136 0 4.704 2.224 4.704 4.928v1.792Zm-4.704 3.888c2.384 0 3.456-1.712 3.456-3.824v-1.92c0-2.112-1.072-3.824-3.456-3.824s-3.456 1.712-3.456 3.824v1.92c0 2.112 1.072 3.824 3.456 3.824Zm7.112.816v-8.192h1.152v1.392c.384-.928 1.312-1.584 2.736-1.584 1.84 0 3.008 1.248 3.008 3.216V318h-1.216v-4.992c0-1.392-.624-2.336-2.096-2.336-1.344 0-2.368.816-2.368 2.512V318h-1.216Zm9.486 0v-11.68h1.216V318h-1.216Zm6.209 2.784h-1.184l1.04-2.784-3.056-8.192h1.2l2.496 6.96 2.4-6.96h1.2L229.855 318l-1.072 2.784ZM243.096 318v-2.672h-5.312v-.912l3.728-7.616h1.12l-3.648 7.6h4.112v-2.656h1.136v2.656h1.552v.928h-1.552V318h-1.136Zm11.584.192c-2.336 0-3.664-1.6-3.664-3.616v-1.344c0-2.016 1.344-3.616 3.664-3.616 2.32 0 3.648 1.6 3.648 3.616v1.344c0 2.016-1.328 3.616-3.648 3.616Zm2.48-4.944c0-1.552-.864-2.656-2.48-2.656s-2.48 1.104-2.48 2.656v1.312c0 1.552.864 2.656 2.48 2.656s2.48-1.104 2.48-2.656v-1.312Zm10.102-3.44V318h-1.152v-1.392c-.384.928-1.312 1.584-2.736 1.584-1.792 0-2.928-1.248-2.928-3.216v-5.168h1.216v4.992c0 1.392.608 2.368 2.016 2.368 1.344 0 2.368-.848 2.368-2.544v-4.816h1.216Zm6.512 8.192h-1.024c-1.568 0-2.224-.784-2.224-2.176V310.8h-1.392v-.992h1.392v-2.352h1.216v2.352h2.096v.992h-2.096v5.024c0 .832.304 1.184 1.216 1.184h.816V318Zm8.828.192c-2.336 0-3.664-1.6-3.664-3.616v-1.344c0-2.016 1.344-3.616 3.664-3.616 2.32 0 3.648 1.6 3.648 3.616v1.344c0 2.016-1.328 3.616-3.648 3.616Zm2.48-4.944c0-1.552-.864-2.656-2.48-2.656s-2.48 1.104-2.48 2.656v1.312c0 1.552.864 2.656 2.48 2.656s2.48-1.104 2.48-2.656v-1.312Zm3.863 4.752v-7.2h-1.2v-.992h1.2v-1.088c0-1.584.704-2.4 2.368-2.4h1.152v.992h-1.056c-.864 0-1.248.4-1.248 1.312v1.184h2.016v.992h-2.016v7.2h-1.216Zm8.389 0v-.96l4.736-4.976c.784-.816 1.248-1.552 1.248-2.416 0-1.248-.976-2.064-2.288-2.064-1.424 0-2.352.816-2.352 2.256v.256h-1.168v-.304c0-2.048 1.44-3.216 3.52-3.216 2.032 0 3.52 1.2 3.52 3.072 0 1.36-.944 2.4-1.84 3.312l-3.952 4.032h5.808V318h-7.232Zm13.151-11.2h1.312l-3.248 4.944v.016c.544-.656 1.296-.992 2.256-.992 2.016 0 3.52 1.536 3.52 3.68 0 2.016-1.632 3.776-3.904 3.776-2.288 0-3.904-1.584-3.904-3.728 0-1.264.576-2.336 1.184-3.296l2.784-4.4Zm-2.768 7.712c0 1.568 1.04 2.736 2.688 2.736 1.632 0 2.72-1.2 2.72-2.768 0-1.568-1.008-2.768-2.656-2.768-1.584 0-2.752 1.2-2.752 2.8Zm-103.037 22.68c-2.272 0-3.632-1.536-3.632-3.6v-1.376c0-2.064 1.36-3.6 3.632-3.6 2.064 0 3.408 1.344 3.504 3.072h-1.088c-.16-1.104-.848-2.112-2.4-2.112-1.68 0-2.464 1.088-2.464 2.624v1.408c0 1.536.784 2.624 2.464 2.624 1.552 0 2.24-1.008 2.4-2.112h1.088c-.096 1.728-1.44 3.072-3.504 3.072Zm8.985 0c-2.336 0-3.664-1.6-3.664-3.616v-1.344c0-2.016 1.344-3.616 3.664-3.616 2.32 0 3.648 1.6 3.648 3.616v1.344c0 2.016-1.328 3.616-3.648 3.616Zm2.48-4.944c0-1.552-.864-2.656-2.48-2.656s-2.48 1.104-2.48 2.656v1.312c0 1.552.864 2.656 2.48 2.656s2.48-1.104 2.48-2.656v-1.312Zm10.101-3.44V337h-1.152v-1.392c-.384.928-1.312 1.584-2.736 1.584-1.792 0-2.928-1.248-2.928-3.216v-5.168h1.216v4.992c0 1.392.608 2.368 2.016 2.368 1.344 0 2.368-.848 2.368-2.544v-4.816h1.216Zm2.592 8.192v-8.192h1.152v1.392c.384-.928 1.312-1.584 2.736-1.584 1.84 0 3.008 1.248 3.008 3.216V337h-1.216v-4.992c0-1.392-.624-2.336-2.096-2.336-1.344 0-2.368.816-2.368 2.512V337h-1.216Zm13.248 0h-1.024c-1.568 0-2.224-.784-2.224-2.176V329.8h-1.392v-.992h1.392v-2.352h1.216v2.352h2.096v.992h-2.096v5.024c0 .832.304 1.184 1.216 1.184h.816V337Zm2.049 0v-8.192h1.136v1.888c.304-1.264 1.184-1.936 2.672-1.936h.192v1.136h-.24c-1.552 0-2.544 1.024-2.544 3.088V337h-1.216Zm5.721 0v-8.192h1.216V337h-1.216Zm-.16-10.352c0-.432.304-.736.768-.736s.768.304.768.736-.304.736-.768.736-.768-.304-.768-.736Zm7.264 10.544c-2.128 0-3.616-1.36-3.616-3.568v-1.312c0-2.224 1.264-3.696 3.568-3.696 2.336 0 3.472 1.552 3.472 3.568v1.216h-5.872v.288c0 1.424.736 2.576 2.448 2.576 1.232 0 1.984-.656 2.256-1.584h1.088c-.272 1.472-1.632 2.512-3.344 2.512Zm-2.448-4.976v.256h4.736v-.384c0-1.456-.736-2.544-2.336-2.544-1.76 0-2.4 1.168-2.4 2.672Zm11.1 4.976c-1.984 0-3.392-.992-3.392-2.576v-.08h1.104v.048c0 1.024.96 1.696 2.304 1.696 1.264 0 2.176-.496 2.176-1.552 0-.576-.368-.992-1.024-1.136l-2.432-.56c-1.216-.272-1.92-1.008-1.92-2.08 0-1.536 1.296-2.336 3.104-2.336 1.712 0 3.04 1.04 3.04 2.56v.08h-1.104v-.048c0-1.008-.736-1.68-1.952-1.68-1.136 0-1.968.48-1.968 1.392 0 .56.272.912.864 1.056l2.512.592c1.264.304 2.016.928 2.016 2.112 0 1.456-1.408 2.512-3.328 2.512Zm12.225 2.784c-1.632 0-3.104-.752-3.552-2.096h1.2c.448.784 1.232 1.136 2.352 1.136 1.424 0 2.4-.8 2.4-2.048v-1.856c-.256.752-1.376 1.552-2.752 1.552-2.128 0-3.344-1.52-3.344-3.344v-1.36c0-1.856 1.2-3.344 3.36-3.344 1.536 0 2.448.832 2.784 1.552v-1.36h1.168V337c0 1.696-1.536 2.976-3.616 2.976Zm-.112-4.304c1.392 0 2.512-.928 2.512-2.48v-1.056c0-1.392-1.056-2.528-2.464-2.528-1.6 0-2.432.88-2.432 2.448v1.168c0 1.536.816 2.448 2.384 2.448Zm9.532 1.52c-2.128 0-3.616-1.36-3.616-3.568v-1.312c0-2.224 1.264-3.696 3.568-3.696 2.336 0 3.472 1.552 3.472 3.568v1.216h-5.872v.288c0 1.424.736 2.576 2.448 2.576 1.232 0 1.984-.656 2.256-1.584h1.088c-.272 1.472-1.632 2.512-3.344 2.512Zm-2.448-4.976v.256h4.736v-.384c0-1.456-.736-2.544-2.336-2.544-1.76 0-2.4 1.168-2.4 2.672ZM296.774 337h-1.024c-1.568 0-2.224-.784-2.224-2.176V329.8h-1.392v-.992h1.392v-2.352h1.216v2.352h2.096v.992h-2.096v5.024c0 .832.304 1.184 1.216 1.184h.816V337Zm5.644 0v-8.192h1.216V337h-1.216Zm-.16-10.352c0-.432.304-.736.768-.736s.768.304.768.736-.304.736-.768.736-.768-.304-.768-.736ZM310.227 337h-1.024c-1.568 0-2.224-.784-2.224-2.176V329.8h-1.392v-.992h1.392v-2.352h1.216v2.352h2.096v.992h-2.096v5.024c0 .832.304 1.184 1.216 1.184h.816V337Zm5.564 0v-8.192h1.136v1.888c.304-1.264 1.184-1.936 2.672-1.936h.192v1.136h-.24c-1.552 0-2.544 1.024-2.544 3.088V337h-1.216Zm5.721 0v-8.192h1.216V337h-1.216Zm-.16-10.352c0-.432.304-.736.768-.736s.768.304.768.736-.304.736-.768.736-.768-.304-.768-.736Zm7.345 13.328c-1.632 0-3.104-.752-3.552-2.096h1.2c.448.784 1.232 1.136 2.352 1.136 1.424 0 2.4-.8 2.4-2.048v-1.856c-.256.752-1.376 1.552-2.752 1.552-2.128 0-3.344-1.52-3.344-3.344v-1.36c0-1.856 1.2-3.344 3.36-3.344 1.536 0 2.448.832 2.784 1.552v-1.36h1.168V337c0 1.696-1.536 2.976-3.616 2.976Zm-.112-4.304c1.392 0 2.512-.928 2.512-2.48v-1.056c0-1.392-1.056-2.528-2.464-2.528-1.6 0-2.432.88-2.432 2.448v1.168c0 1.536.816 2.448 2.384 2.448Zm6.316 1.328v-11.68h1.216v4.752c.464-.848 1.312-1.456 2.672-1.456 1.84 0 3.008 1.248 3.008 3.216V337h-1.216v-4.992c0-1.392-.624-2.336-2.096-2.336-1.344 0-2.368.816-2.368 2.512V337h-1.216Zm13.248 0h-1.024c-1.568 0-2.224-.784-2.224-2.176V329.8h-1.392v-.992h1.392v-2.352h1.216v2.352h2.096v.992h-2.096v5.024c0 .832.304 1.184 1.216 1.184h.816V337ZM306.294 240.506a.5.5 0 0 0-.415.573l.711 4.443a.499.499 0 1 0 .987-.157l-.631-3.95 3.949-.632a.499.499 0 1 0-.157-.987l-4.444.71Zm-.214.899c8.049 5.83 11.288 15.337 10.117 24.902-1.171 9.568-6.755 19.16-16.309 25.09l.527.849c9.819-6.093 15.568-15.957 16.775-25.817 1.207-9.862-2.13-19.754-10.524-25.834l-.586.81Z" />
  <path fill="#fff"
    d="M1.386 399v-12.6h8.622v2.088H3.906v3.33h5.562v2.088H3.906V399h-2.52Zm14.345.216c-2.808 0-4.41-1.836-4.41-4.23v-1.332c0-2.394 1.602-4.23 4.41-4.23s4.41 1.836 4.41 4.23v1.332c0 2.394-1.602 4.23-4.41 4.23Zm2.034-4.068v-1.656c0-1.224-.648-2.142-2.034-2.142-1.386 0-2.034.918-2.034 2.142v1.656c0 1.224.648 2.142 2.034 2.142 1.386 0 2.034-.918 2.034-2.142ZM22.142 399v-9.36h2.322v1.818c.306-1.404 1.404-1.89 2.808-1.89h.288v2.43h-.505c-1.602 0-2.465.792-2.465 2.682V399h-2.448Zm16.15-9.576c2.575 0 3.943 1.908 3.943 4.122v1.548c0 2.25-1.404 4.122-3.924 4.122-1.242 0-2.196-.504-2.682-1.224v4.14H33.18V389.64h2.34v1.116c.468-.72 1.422-1.332 2.772-1.332Zm-.593 1.98c-1.242 0-2.07.936-2.07 2.25v1.368c0 1.422.936 2.214 2.052 2.214 1.386 0 2.106-.936 2.106-2.25v-1.332c0-1.242-.666-2.25-2.088-2.25ZM44.237 399v-9.36h2.322v1.818c.306-1.404 1.404-1.89 2.808-1.89h.288v2.43h-.504c-1.602 0-2.466.792-2.466 2.682V399h-2.448Zm10.904.216c-2.807 0-4.41-1.836-4.41-4.23v-1.332c0-2.394 1.602-4.23 4.41-4.23 2.809 0 4.41 1.836 4.41 4.23v1.332c0 2.394-1.602 4.23-4.41 4.23Zm2.035-4.068v-1.656c0-1.224-.648-2.142-2.035-2.142-1.386 0-2.033.918-2.033 2.142v1.656c0 1.224.648 2.142 2.034 2.142 1.386 0 2.033-.918 2.033-2.142Zm3.152 6.984v-1.89h.558c.504 0 .72-.162.72-.612v-9.99h2.448v10.206c0 1.458-.774 2.286-2.43 2.286h-1.296Zm1.08-14.94c0-.81.594-1.422 1.422-1.422s1.422.612 1.422 1.422c0 .81-.594 1.422-1.422 1.422s-1.422-.612-1.422-1.422Zm9.06 12.024c-2.646 0-4.356-1.548-4.356-4.176v-1.278c0-2.538 1.512-4.338 4.32-4.338 2.772 0 4.176 1.854 4.176 4.104v1.638h-6.12v.234c0 1.098.558 2.052 1.98 2.052 1.044 0 1.692-.54 1.926-1.188h2.142c-.324 1.71-1.998 2.952-4.068 2.952Zm-1.98-5.868v.09h3.87v-.234c0-1.17-.612-2.052-1.926-2.052-1.404 0-1.944.936-1.944 2.196Zm12.125 5.868c-2.826 0-4.428-1.782-4.428-4.23v-1.332c0-2.448 1.602-4.23 4.428-4.23 2.502 0 4.194 1.566 4.266 3.708h-2.232c-.108-.918-.684-1.728-1.98-1.728-1.386 0-2.034.9-2.034 2.16v1.512c0 1.26.648 2.16 2.034 2.16 1.296 0 1.872-.81 1.98-1.728h2.232c-.072 2.142-1.764 3.708-4.266 3.708Zm9.474-.216c-1.8 0-2.646-1.008-2.646-2.664v-4.716h-1.332v-1.98h1.332v-2.556h2.466v2.556h1.998v1.98h-1.998v4.536c0 .612.234.864.882.864h.99V399h-1.692Zm7.286.216c-2.376 0-4.032-.99-4.032-2.988v-.162h2.16v.126c0 .81.738 1.296 1.89 1.296 1.026 0 1.782-.414 1.782-1.134 0-.45-.234-.72-.774-.846l-2.772-.63c-1.404-.324-2.142-1.044-2.142-2.466 0-1.926 1.566-2.988 3.78-2.988 2.25 0 3.708 1.134 3.708 2.988v.144h-2.142v-.162c0-.72-.45-1.224-1.53-1.224-.99 0-1.53.36-1.53 1.026 0 .468.234.684.72.792l2.844.702c1.386.342 2.088 1.08 2.088 2.394 0 1.818-1.728 3.132-4.05 3.132Zm22.536-9.576-2.43 9.36h-2.286l-2.052-6.444-2.052 6.444h-2.286l-2.43-9.36h2.376l1.368 6.282 1.908-6.282h2.232l1.908 6.282 1.368-6.282h2.376Zm1.585 9.36v-9.36h2.448V399h-2.448Zm-.198-11.808c0-.81.594-1.422 1.422-1.422s1.422.612 1.422 1.422c0 .81-.594 1.422-1.422 1.422s-1.422-.612-1.422-1.422ZM129.673 399c-1.8 0-2.646-1.008-2.646-2.664v-4.716h-1.332v-1.98h1.332v-2.556h2.466v2.556h1.998v1.98h-1.998v4.536c0 .612.234.864.882.864h.99V399h-1.692Zm3.65 0v-13.14h2.448v4.896c.486-.81 1.44-1.332 2.646-1.332 2.034 0 3.312 1.368 3.312 3.582V399h-2.448v-5.598c0-1.08-.522-1.854-1.71-1.854-1.098 0-1.8.648-1.8 1.908V399h-2.448Zm17.828.216c-2.106 0-3.546-1.098-3.546-2.916 0-2.034 1.53-2.97 3.78-2.97 1.116 0 1.944.432 2.376.792v-1.278c0-.864-.612-1.512-1.62-1.512-.846 0-1.368.378-1.62.882h-2.268c.54-1.818 1.998-2.79 4.014-2.79 2.34 0 3.942 1.422 3.942 3.6V399h-2.358v-.864c-.432.63-1.62 1.08-2.7 1.08Zm.63-1.62c1.08 0 1.98-.594 1.98-1.386 0-.828-.81-1.314-1.908-1.314-1.152 0-1.872.468-1.872 1.332 0 .864.774 1.368 1.8 1.368Zm15.816-8.172c2.574 0 3.942 1.908 3.942 4.122v1.548c0 2.25-1.404 4.122-3.924 4.122-1.242 0-2.196-.504-2.682-1.224v4.14h-2.448V389.64h2.34v1.116c.468-.72 1.422-1.332 2.772-1.332Zm-.594 1.98c-1.242 0-2.07.936-2.07 2.25v1.368c0 1.422.936 2.214 2.052 2.214 1.386 0 2.106-.936 2.106-2.25v-1.332c0-1.242-.666-2.25-2.088-2.25Zm9.689 7.812c-2.106 0-3.546-1.098-3.546-2.916 0-2.034 1.53-2.97 3.78-2.97 1.116 0 1.944.432 2.376.792v-1.278c0-.864-.612-1.512-1.62-1.512-.846 0-1.368.378-1.62.882h-2.268c.54-1.818 1.998-2.79 4.014-2.79 2.34 0 3.942 1.422 3.942 3.6V399h-2.358v-.864c-.432.63-1.62 1.08-2.7 1.08Zm.63-1.62c1.08 0 1.98-.594 1.98-1.386 0-.828-.81-1.314-1.908-1.314-1.152 0-1.872.468-1.872 1.332 0 .864.774 1.368 1.8 1.368Zm6.749 1.404v-9.36h2.322v1.818c.306-1.404 1.404-1.89 2.808-1.89h.288v2.43h-.504c-1.602 0-2.466.792-2.466 2.682V399h-2.448Zm10.342 0c-1.8 0-2.646-1.008-2.646-2.664v-4.716h-1.332v-1.98h1.332v-2.556h2.466v2.556h1.998v1.98h-1.998v4.536c0 .612.234.864.882.864h.99V399h-1.692Zm3.704 0v-9.36h2.448V399h-2.448Zm-.198-11.808c0-.81.594-1.422 1.422-1.422s1.422.612 1.422 1.422c0 .81-.594 1.422-1.422 1.422s-1.422-.612-1.422-1.422Zm8.269 12.024c-2.106 0-3.546-1.098-3.546-2.916 0-2.034 1.53-2.97 3.78-2.97 1.116 0 1.944.432 2.376.792v-1.278c0-.864-.612-1.512-1.62-1.512-.846 0-1.368.378-1.62.882h-2.268c.54-1.818 1.998-2.79 4.014-2.79 2.34 0 3.942 1.422 3.942 3.6V399h-2.358v-.864c-.432.63-1.62 1.08-2.7 1.08Zm.63-1.62c1.08 0 1.98-.594 1.98-1.386 0-.828-.81-1.314-1.908-1.314-1.152 0-1.872.468-1.872 1.332 0 .864.774 1.368 1.8 1.368Zm6.803 1.404v-13.14h2.448V399h-2.448Zm12.89.216c-2.826 0-4.428-1.782-4.428-4.23v-1.332c0-2.448 1.602-4.23 4.428-4.23 2.502 0 4.194 1.566 4.266 3.708h-2.232c-.108-.918-.684-1.728-1.98-1.728-1.386 0-2.034.9-2.034 2.16v1.512c0 1.26.648 2.16 2.034 2.16 1.296 0 1.872-.81 1.98-1.728h2.232c-.072 2.142-1.764 3.708-4.266 3.708Zm6.323-.216v-13.14h2.448V399h-2.448Zm4.975 0v-9.36h2.448V399h-2.448Zm-.198-11.808c0-.81.594-1.422 1.422-1.422s1.422.612 1.422 1.422c0 .81-.594 1.422-1.422 1.422s-1.422-.612-1.422-1.422ZM242.729 399v-9.36h2.34v1.116c.468-.864 1.368-1.332 2.7-1.332 1.206 0 2.142.486 2.7 1.332.684-.882 1.728-1.332 3.096-1.332 1.962 0 3.348 1.332 3.348 3.582V399h-2.448v-5.598c0-1.08-.486-1.854-1.674-1.854-1.08 0-1.746.648-1.746 1.908V399h-2.448v-5.598c0-1.08-.486-1.854-1.674-1.854-1.098 0-1.746.648-1.746 1.908V399h-2.448Zm19.656.216c-2.106 0-3.546-1.098-3.546-2.916 0-2.034 1.53-2.97 3.78-2.97 1.116 0 1.944.432 2.376.792v-1.278c0-.864-.612-1.512-1.62-1.512-.846 0-1.368.378-1.62.882h-2.268c.54-1.818 1.998-2.79 4.014-2.79 2.34 0 3.942 1.422 3.942 3.6V399h-2.358v-.864c-.432.63-1.62 1.08-2.7 1.08Zm.63-1.62c1.08 0 1.98-.594 1.98-1.386 0-.828-.81-1.314-1.908-1.314-1.152 0-1.872.468-1.872 1.332 0 .864.774 1.368 1.8 1.368Zm9.797 1.404c-1.8 0-2.646-1.008-2.646-2.664v-4.716h-1.332v-1.98h1.332v-2.556h2.466v2.556h1.998v1.98h-1.998v4.536c0 .612.234.864.882.864h.99V399h-1.692Zm7.592.216c-2.646 0-4.356-1.548-4.356-4.176v-1.278c0-2.538 1.512-4.338 4.32-4.338 2.772 0 4.176 1.854 4.176 4.104v1.638h-6.12v.234c0 1.098.558 2.052 1.98 2.052 1.044 0 1.692-.54 1.926-1.188h2.142c-.324 1.71-1.998 2.952-4.068 2.952Zm-1.98-5.868v.09h3.87v-.234c0-1.17-.612-2.052-1.926-2.052-1.404 0-1.944.936-1.944 2.196ZM291.029 399v-7.38h-1.188v-1.98h1.188v-.864c0-2.052.972-2.916 2.898-2.916h1.62v1.944h-1.062c-.702 0-1.008.216-1.008.954v.882h1.89v1.98h-1.89V399h-2.448Zm9.732.216c-2.808 0-4.41-1.836-4.41-4.23v-1.332c0-2.394 1.602-4.23 4.41-4.23s4.41 1.836 4.41 4.23v1.332c0 2.394-1.602 4.23-4.41 4.23Zm2.034-4.068v-1.656c0-1.224-.648-2.142-2.034-2.142-1.386 0-2.034.918-2.034 2.142v1.656c0 1.224.648 2.142 2.034 2.142 1.386 0 2.034-.918 2.034-2.142Zm8.39 4.068c-2.826 0-4.428-1.782-4.428-4.23v-1.332c0-2.448 1.602-4.23 4.428-4.23 2.502 0 4.194 1.566 4.266 3.708h-2.232c-.108-.918-.684-1.728-1.98-1.728-1.386 0-2.034.9-2.034 2.16v1.512c0 1.26.648 2.16 2.034 2.16 1.296 0 1.872-.81 1.98-1.728h2.232c-.072 2.142-1.764 3.708-4.266 3.708Zm14.513-9.576V399h-2.34v-1.116c-.432.792-1.512 1.332-2.718 1.332-2.106 0-3.276-1.458-3.276-3.582v-5.994h2.448v5.652c0 1.188.558 1.872 1.656 1.872 1.134 0 1.782-.72 1.782-1.89v-5.634h2.448Zm6.044 9.576c-2.376 0-4.032-.99-4.032-2.988v-.162h2.16v.126c0 .81.738 1.296 1.89 1.296 1.026 0 1.782-.414 1.782-1.134 0-.45-.234-.72-.774-.846l-2.772-.63c-1.404-.324-2.142-1.044-2.142-2.466 0-1.926 1.566-2.988 3.78-2.988 2.25 0 3.708 1.134 3.708 2.988v.144H333.2v-.162c0-.72-.45-1.224-1.53-1.224-.99 0-1.53.36-1.53 1.026 0 .468.234.684.72.792l2.844.702c1.386.342 2.088 1.08 2.088 2.394 0 1.818-1.728 3.132-4.05 3.132Z" />
  <path fill="#01FFD8"
    d="M283.525 595.723a.5.5 0 0 0-.186.682l2.235 3.907a.5.5 0 0 0 .868-.497l-1.986-3.472 3.472-1.986a.5.5 0 1 0-.497-.868l-3.906 2.234Zm.117.917c9.59 2.611 15.978 10.361 18.261 19.723 2.283 9.365.448 20.311-6.397 29.233l.794.609c7.033-9.169 8.928-20.428 6.574-30.079-2.353-9.652-8.969-17.728-18.969-20.451l-.263.965Z" />
  <path fill="#C2C2C2"
    d="M95.234 630.219c38.789 0 70.234-31.445 70.234-70.234 0-38.789-31.445-70.234-70.234-70.234-38.79 0-70.234 31.445-70.234 70.234 0 38.789 31.445 70.234 70.234 70.234Z" />
  <path fill="#212529"
    d="M84.953 568.061v-2.672H79.64v-.912l3.728-7.616h1.12l-3.648 7.6h4.112v-2.656h1.136v2.656h1.552v.928h-1.552v2.672h-1.136Zm8.502.224c-2.464 0-3.92-1.6-3.92-3.728v-4.192c0-2.128 1.456-3.728 3.92-3.728s3.92 1.6 3.92 3.728v4.192c0 2.128-1.456 3.728-3.92 3.728Zm0-1.008c1.744 0 2.688-1.088 2.688-2.672v-4.288c0-1.584-.944-2.672-2.688-2.672-1.744 0-2.688 1.088-2.688 2.672v4.288c0 1.584.944 2.672 2.688 2.672Zm8.43-4.352c-1.488 0-2.416-.992-2.416-2.4v-1.392c0-1.408.928-2.4 2.416-2.4s2.416.992 2.416 2.4v1.392c0 1.408-.928 2.4-2.416 2.4Zm0-.768c.976 0 1.504-.64 1.504-1.568v-1.52c0-.928-.528-1.568-1.504-1.568s-1.504.64-1.504 1.568v1.52c0 .928.528 1.568 1.504 1.568Zm6.88 6.032c-1.488 0-2.416-.992-2.416-2.4v-1.392c0-1.408.928-2.4 2.416-2.4s2.416.992 2.416 2.4v1.392c0 1.408-.928 2.4-2.416 2.4Zm0-.768c.976 0 1.504-.64 1.504-1.568v-1.52c0-.928-.528-1.568-1.504-1.568s-1.504.64-1.504 1.568v1.52c0 .928.528 1.568 1.504 1.568Zm-6.8.64 5.808-11.2h.928l-5.808 11.2h-.928Z" />
  <path fill="#01FFD8"
    d="M224.391 617.331c31.671 0 57.346-25.675 57.346-57.346 0-31.671-25.675-57.345-57.346-57.345-31.671 0-57.346 25.674-57.346 57.345s25.675 57.346 57.346 57.346Z" />
  <path fill="#212529"
    d="M199.979 564.649c-3.088 0-4.656-2.096-4.656-4.88v-1.888c0-2.784 1.568-4.88 4.656-4.88 2.592 0 4.24 1.808 4.416 3.92h-1.2c-.192-1.536-1.216-2.88-3.232-2.88-2.288 0-3.392 1.6-3.392 3.792v1.984c0 2.192 1.104 3.792 3.392 3.792 2.016 0 3.04-1.344 3.232-2.88h1.2c-.176 2.112-1.824 3.92-4.416 3.92Zm13.412-.224h-1.168v-1.024c-.352.576-1.456 1.216-2.816 1.216-1.936 0-3.104-1.088-3.104-2.576 0-1.584 1.296-2.56 3.248-2.56 1.296 0 2.16.544 2.624 1.024v-1.52c0-1.12-.736-1.984-2.048-1.984-1.04 0-1.712.48-2.048 1.232h-1.12c.416-1.36 1.568-2.192 3.184-2.192 2.032 0 3.248 1.328 3.248 2.944v5.44Zm-3.728-.592c1.28 0 2.512-.752 2.512-1.808 0-1.024-1.216-1.744-2.448-1.744-1.36 0-2.272.64-2.272 1.776 0 1.136.944 1.776 2.208 1.776Zm9.235.784c-1.984 0-3.392-.992-3.392-2.576v-.08h1.104v.048c0 1.024.96 1.696 2.304 1.696 1.264 0 2.176-.496 2.176-1.552 0-.576-.368-.992-1.024-1.136l-2.432-.56c-1.216-.272-1.92-1.008-1.92-2.08 0-1.536 1.296-2.336 3.104-2.336 1.712 0 3.04 1.04 3.04 2.56v.08h-1.104v-.048c0-1.008-.736-1.68-1.952-1.68-1.136 0-1.968.48-1.968 1.392 0 .56.272.912.864 1.056l2.512.592c1.264.304 2.016.928 2.016 2.112 0 1.456-1.408 2.512-3.328 2.512Zm8.63 0c-2.128 0-3.616-1.36-3.616-3.568v-1.312c0-2.224 1.264-3.696 3.568-3.696 2.336 0 3.472 1.552 3.472 3.568v1.216h-5.872v.288c0 1.424.736 2.576 2.448 2.576 1.232 0 1.984-.656 2.256-1.584h1.088c-.272 1.472-1.632 2.512-3.344 2.512Zm-2.448-4.976v.256h4.736v-.384c0-1.456-.736-2.544-2.336-2.544-1.76 0-2.4 1.168-2.4 2.672Zm7.867.32v-1.072h4.464v1.072h-4.464Zm6.833-7.216h1.216v4.704c.496-.832 1.456-1.408 2.736-1.408 2.064 0 3.392 1.536 3.392 3.664v1.248c0 2.048-1.264 3.664-3.424 3.664-1.36 0-2.416-.72-2.768-1.472v1.28h-1.152v-11.68Zm6.128 8.16v-1.152c0-1.504-.848-2.72-2.4-2.72-1.36 0-2.512 1.04-2.512 2.72v1.056c0 1.584.88 2.816 2.496 2.816 1.696 0 2.416-1.216 2.416-2.72Zm5.614 6.304h-1.184l1.04-2.784-3.056-8.192h1.2l2.496 6.96 2.4-6.96h1.2l-3.024 8.192-1.072 2.784Zm5.284-7.248v-1.072h4.464v1.072h-4.464Zm-41.731 23.656c-2.272 0-3.632-1.536-3.632-3.6v-1.376c0-2.064 1.36-3.6 3.632-3.6 2.064 0 3.408 1.344 3.504 3.072h-1.088c-.16-1.104-.848-2.112-2.4-2.112-1.68 0-2.464 1.088-2.464 2.624v1.408c0 1.536.784 2.624 2.464 2.624 1.552 0 2.24-1.008 2.4-2.112h1.088c-.096 1.728-1.44 3.072-3.504 3.072Zm12.441-.192h-1.168v-1.024c-.352.576-1.456 1.216-2.816 1.216-1.936 0-3.104-1.088-3.104-2.576 0-1.584 1.296-2.56 3.248-2.56 1.296 0 2.16.544 2.624 1.024v-1.52c0-1.12-.736-1.984-2.048-1.984-1.04 0-1.712.48-2.048 1.232h-1.12c.416-1.36 1.568-2.192 3.184-2.192 2.032 0 3.248 1.328 3.248 2.944v5.44Zm-3.728-.592c1.28 0 2.512-.752 2.512-1.808 0-1.024-1.216-1.744-2.448-1.744-1.36 0-2.272.64-2.272 1.776 0 1.136.944 1.776 2.208 1.776Zm9.235.784c-1.984 0-3.392-.992-3.392-2.576v-.08h1.104v.048c0 1.024.96 1.696 2.304 1.696 1.264 0 2.176-.496 2.176-1.552 0-.576-.368-.992-1.024-1.136l-2.432-.56c-1.216-.272-1.92-1.008-1.92-2.08 0-1.536 1.296-2.336 3.104-2.336 1.712 0 3.04 1.04 3.04 2.56v.08h-1.104v-.048c0-1.008-.736-1.68-1.952-1.68-1.136 0-1.968.48-1.968 1.392 0 .56.272.912.864 1.056l2.512.592c1.264.304 2.016.928 2.016 2.112 0 1.456-1.408 2.512-3.328 2.512Zm8.63 0c-2.128 0-3.616-1.36-3.616-3.568v-1.312c0-2.224 1.264-3.696 3.568-3.696 2.336 0 3.472 1.552 3.472 3.568v1.216h-5.872v.288c0 1.424.736 2.576 2.448 2.576 1.232 0 1.984-.656 2.256-1.584h1.088c-.272 1.472-1.632 2.512-3.344 2.512Zm-2.448-4.976v.256h4.736v-.384c0-1.456-.736-2.544-2.336-2.544-1.76 0-2.4 1.168-2.4 2.672Z" />
  <path fill="#C2C2C2"
    d="M171.559 710.265c28.912 0 52.349-23.438 52.349-52.349 0-28.912-23.437-52.35-52.349-52.35-28.911 0-52.349 23.438-52.349 52.35 0 28.911 23.438 52.349 52.349 52.349Z" />
  <path fill="#212529"
    d="M160.034 666.216c-1.856 0-3.44-1.088-3.792-2.976h1.168c.32 1.152 1.216 1.968 2.624 1.968 1.728 0 2.832-1.168 2.832-2.752 0-1.504-1.088-2.72-2.672-2.72-1.168 0-2.016.592-2.544 1.312h-1.168l1.056-6.256h5.584v1.008h-4.608l-.704 4.016c.512-.624 1.52-1.088 2.624-1.088 2.112 0 3.632 1.616 3.632 3.696 0 2.144-1.696 3.792-4.032 3.792Zm10.065 0c-2.464 0-3.92-1.6-3.92-3.728v-4.192c0-2.128 1.456-3.728 3.92-3.728s3.92 1.6 3.92 3.728v4.192c0 2.128-1.456 3.728-3.92 3.728Zm0-1.008c1.744 0 2.688-1.088 2.688-2.672v-4.288c0-1.584-.944-2.672-2.688-2.672-1.744 0-2.688 1.088-2.688 2.672v4.288c0 1.584.944 2.672 2.688 2.672Zm8.43-4.352c-1.488 0-2.416-.992-2.416-2.4v-1.392c0-1.408.928-2.4 2.416-2.4s2.416.992 2.416 2.4v1.392c0 1.408-.928 2.4-2.416 2.4Zm0-.768c.976 0 1.504-.64 1.504-1.568V657c0-.928-.528-1.568-1.504-1.568s-1.504.64-1.504 1.568v1.52c0 .928.528 1.568 1.504 1.568Zm6.88 6.032c-1.488 0-2.416-.992-2.416-2.4v-1.392c0-1.408.928-2.4 2.416-2.4s2.416.992 2.416 2.4v1.392c0 1.408-.928 2.4-2.416 2.4Zm0-.768c.976 0 1.504-.64 1.504-1.568v-1.52c0-.928-.528-1.568-1.504-1.568s-1.504.64-1.504 1.568v1.52c0 .928.528 1.568 1.504 1.568Zm-6.8.64 5.808-11.2h.928l-5.808 11.2h-.928Z" />
  <path fill="#C2C2C2"
    d="M170.382 517.001c22.394 0 40.549-18.154 40.549-40.549s-18.155-40.55-40.549-40.55c-22.395 0-40.55 18.155-40.55 40.55 0 22.395 18.155 40.549 40.55 40.549Z" />
  <path fill="#212529"
    d="M153.668 484.528v-9.936l-2.336 1.104v-1.12l2.544-1.248h1.024v11.2h-1.232Zm7.802.224c-2.464 0-3.92-1.6-3.92-3.728v-4.192c0-2.128 1.456-3.728 3.92-3.728s3.92 1.6 3.92 3.728v4.192c0 2.128-1.456 3.728-3.92 3.728Zm0-1.008c1.744 0 2.688-1.088 2.688-2.672v-4.288c0-1.584-.944-2.672-2.688-2.672-1.744 0-2.688 1.088-2.688 2.672v4.288c0 1.584.944 2.672 2.688 2.672Zm10.078 1.008c-2.464 0-3.92-1.6-3.92-3.728v-4.192c0-2.128 1.456-3.728 3.92-3.728s3.92 1.6 3.92 3.728v4.192c0 2.128-1.456 3.728-3.92 3.728Zm0-1.008c1.744 0 2.688-1.088 2.688-2.672v-4.288c0-1.584-.944-2.672-2.688-2.672-1.744 0-2.688 1.088-2.688 2.672v4.288c0 1.584.944 2.672 2.688 2.672Zm8.43-4.352c-1.488 0-2.416-.992-2.416-2.4V475.6c0-1.408.928-2.4 2.416-2.4s2.416.992 2.416 2.4v1.392c0 1.408-.928 2.4-2.416 2.4Zm0-.768c.976 0 1.504-.64 1.504-1.568v-1.52c0-.928-.528-1.568-1.504-1.568s-1.504.64-1.504 1.568v1.52c0 .928.528 1.568 1.504 1.568Zm6.88 6.032c-1.488 0-2.416-.992-2.416-2.4v-1.392c0-1.408.928-2.4 2.416-2.4s2.416.992 2.416 2.4v1.392c0 1.408-.928 2.4-2.416 2.4Zm0-.768c.976 0 1.504-.64 1.504-1.568v-1.52c0-.928-.528-1.568-1.504-1.568s-1.504.64-1.504 1.568v1.52c0 .928.528 1.568 1.504 1.568Zm-6.8.64 5.808-11.2h.928l-5.808 11.2h-.928Z" />
  <path fill="#C2C2C2"
    d="M98.237 488.217c18.285 0 33.109-14.823 33.109-33.108 0-18.286-14.824-33.109-33.109-33.109-18.285 0-33.109 14.823-33.109 33.109 0 18.285 14.824 33.108 33.109 33.108Z" />
  <path fill="#212529"
    d="M83.436 452.977v-.992h6.527v1.008l-3.584 3.92h.432c2.064 0 3.52 1.248 3.52 3.152 0 1.952-1.76 3.344-3.888 3.344-1.92 0-3.695-1.152-3.775-3.28h1.135c.112 1.424 1.169 2.288 2.657 2.288 1.616 0 2.672-.992 2.672-2.32 0-1.36-1.008-2.272-2.593-2.272h-1.52v-.96l3.456-3.888h-5.04Zm13.014 10.432c-2.464 0-3.92-1.6-3.92-3.728v-4.192c0-2.128 1.456-3.728 3.92-3.728s3.92 1.6 3.92 3.728v4.192c0 2.128-1.456 3.728-3.92 3.728Zm0-1.008c1.744 0 2.688-1.088 2.688-2.672v-4.288c0-1.584-.944-2.672-2.688-2.672-1.744 0-2.688 1.088-2.688 2.672v4.288c0 1.584.944 2.672 2.688 2.672Zm8.43-4.352c-1.488 0-2.416-.992-2.416-2.4v-1.392c0-1.408.928-2.4 2.416-2.4s2.416.992 2.416 2.4v1.392c0 1.408-.928 2.4-2.416 2.4Zm0-.768c.976 0 1.504-.64 1.504-1.568v-1.52c0-.928-.528-1.568-1.504-1.568s-1.504.64-1.504 1.568v1.52c0 .928.528 1.568 1.504 1.568Zm6.88 6.032c-1.488 0-2.416-.992-2.416-2.4v-1.392c0-1.408.928-2.4 2.416-2.4s2.416.992 2.416 2.4v1.392c0 1.408-.928 2.4-2.416 2.4Zm0-.768c.976 0 1.504-.64 1.504-1.568v-1.52c0-.928-.528-1.568-1.504-1.568s-1.504.64-1.504 1.568v1.52c0 .928.528 1.568 1.504 1.568Zm-6.8.64 5.808-11.2h.928l-5.808 11.2h-.928Z" />
  <path fill="#C2C2C2"
    d="M94.269 678.615c12.929 0 23.411-10.482 23.411-23.412 0-12.929-10.482-23.411-23.411-23.411-12.93 0-23.412 10.482-23.412 23.411 0 12.93 10.482 23.412 23.412 23.412Z" />
  <path fill="#212529"
    d="M82.333 654.593c-1.848 0-2.94-1.2-2.94-2.796v-3.144c0-1.596 1.092-2.796 2.94-2.796 1.848 0 2.94 1.2 2.94 2.796v3.144c0 1.596-1.092 2.796-2.94 2.796Zm0-.756c1.308 0 2.016-.816 2.016-2.004v-3.216c0-1.188-.708-2.004-2.016-2.004s-2.016.816-2.016 2.004v3.216c0 1.188.708 2.004 2.016 2.004Zm6.322-3.264c-1.116 0-1.812-.744-1.812-1.8v-1.044c0-1.056.696-1.8 1.812-1.8s1.812.744 1.812 1.8v1.044c0 1.056-.696 1.8-1.812 1.8Zm0-.576c.732 0 1.128-.48 1.128-1.176v-1.14c0-.696-.396-1.176-1.128-1.176-.732 0-1.128.48-1.128 1.176v1.14c0 .696.396 1.176 1.128 1.176Zm5.16 4.524c-1.116 0-1.812-.744-1.812-1.8v-1.044c0-1.056.696-1.8 1.812-1.8s1.812.744 1.812 1.8v1.044c0 1.056-.696 1.8-1.812 1.8Zm0-.576c.732 0 1.128-.48 1.128-1.176v-1.14c0-.696-.396-1.176-1.128-1.176-.732 0-1.128.48-1.128 1.176v1.14c0 .696.396 1.176 1.128 1.176Zm-5.1.48 4.356-8.4h.696l-4.356 8.4h-.696Zm13.637.144c-1.752 0-2.748-1.2-2.748-2.712v-1.008c0-1.512 1.008-2.712 2.748-2.712 1.74 0 2.736 1.2 2.736 2.712v1.008c0 1.512-.996 2.712-2.736 2.712Zm1.86-3.708c0-1.164-.648-1.992-1.86-1.992-1.212 0-1.86.828-1.86 1.992v.984c0 1.164.648 1.992 1.86 1.992 1.212 0 1.86-.828 1.86-1.992v-.984Zm2.524 3.564v-6.144h.852v1.416c.228-.948.888-1.452 2.004-1.452h.144v.852h-.18c-1.164 0-1.908.768-1.908 2.316v3.012h-.912Zm-25.087 14v-7.452l-1.752.828v-.84l1.908-.936h.768v8.4h-.924Zm5.852.168c-1.848 0-2.94-1.2-2.94-2.796v-3.144c0-1.596 1.092-2.796 2.94-2.796 1.848 0 2.94 1.2 2.94 2.796v3.144c0 1.596-1.092 2.796-2.94 2.796Zm0-.756c1.308 0 2.016-.816 2.016-2.004v-3.216c0-1.188-.708-2.004-2.016-2.004s-2.016.816-2.016 2.004v3.216c0 1.188.708 2.004 2.016 2.004Zm7.558.756c-1.848 0-2.94-1.2-2.94-2.796v-3.144c0-1.596 1.092-2.796 2.94-2.796 1.848 0 2.94 1.2 2.94 2.796v3.144c0 1.596-1.092 2.796-2.94 2.796Zm0-.756c1.308 0 2.016-.816 2.016-2.004v-3.216c0-1.188-.708-2.004-2.016-2.004s-2.016.816-2.016 2.004v3.216c0 1.188.708 2.004 2.016 2.004Zm6.323-3.264c-1.116 0-1.812-.744-1.812-1.8v-1.044c0-1.056.696-1.8 1.812-1.8s1.812.744 1.812 1.8v1.044c0 1.056-.696 1.8-1.812 1.8Zm0-.576c.732 0 1.128-.48 1.128-1.176v-1.14c0-.696-.396-1.176-1.128-1.176-.732 0-1.128.48-1.128 1.176v1.14c0 .696.396 1.176 1.128 1.176Zm5.16 4.524c-1.116 0-1.812-.744-1.812-1.8v-1.044c0-1.056.696-1.8 1.812-1.8s1.812.744 1.812 1.8v1.044c0 1.056-.696 1.8-1.812 1.8Zm0-.576c.732 0 1.128-.48 1.128-1.176v-1.14c0-.696-.396-1.176-1.128-1.176-.732 0-1.128.48-1.128 1.176v1.14c0 .696.396 1.176 1.128 1.176Zm-5.1.48 4.356-8.4h.696l-4.356 8.4h-.696Z" />
  <path fill="#01FFD8"
    d="M255.301 667.296c0 2.704-1.568 4.928-4.704 4.928-3.136 0-4.704-2.224-4.704-4.928v-1.792c0-2.704 1.568-4.928 4.704-4.928 3.136 0 4.704 2.224 4.704 4.928v1.792Zm-4.704 3.888c2.384 0 3.456-1.712 3.456-3.824v-1.92c0-2.112-1.072-3.824-3.456-3.824s-3.456 1.712-3.456 3.824v1.92c0 2.112 1.072 3.824 3.456 3.824Zm7.113.816v-8.192h1.152v1.392c.384-.928 1.312-1.584 2.736-1.584 1.84 0 3.008 1.248 3.008 3.216V672h-1.216v-4.992c0-1.392-.624-2.336-2.096-2.336-1.344 0-2.368.816-2.368 2.512V672h-1.216Zm9.486 0v-11.68h1.216V672h-1.216Zm6.209 2.784h-1.184l1.04-2.784-3.056-8.192h1.2l2.496 6.96 2.4-6.96h1.2L274.477 672l-1.072 2.784Zm12.937-13.984h1.312l-3.248 4.944v.016c.544-.656 1.296-.992 2.256-.992 2.016 0 3.52 1.536 3.52 3.68 0 2.016-1.632 3.776-3.904 3.776-2.288 0-3.904-1.584-3.904-3.728 0-1.264.576-2.336 1.184-3.296l2.784-4.4Zm-2.768 7.712c0 1.568 1.04 2.736 2.688 2.736 1.632 0 2.72-1.2 2.72-2.768 0-1.568-1.008-2.768-2.656-2.768-1.584 0-2.752 1.2-2.752 2.8Zm15.493 3.68c-2.272 0-3.632-1.536-3.632-3.6v-1.376c0-2.064 1.36-3.6 3.632-3.6 2.064 0 3.408 1.344 3.504 3.072h-1.088c-.16-1.104-.848-2.112-2.4-2.112-1.68 0-2.464 1.088-2.464 2.624v1.408c0 1.536.784 2.624 2.464 2.624 1.552 0 2.24-1.008 2.4-2.112h1.088c-.096 1.728-1.44 3.072-3.504 3.072Zm8.985 0c-2.336 0-3.664-1.6-3.664-3.616v-1.344c0-2.016 1.344-3.616 3.664-3.616 2.32 0 3.648 1.6 3.648 3.616v1.344c0 2.016-1.328 3.616-3.648 3.616Zm2.48-4.944c0-1.552-.864-2.656-2.48-2.656s-2.48 1.104-2.48 2.656v1.312c0 1.552.864 2.656 2.48 2.656s2.48-1.104 2.48-2.656v-1.312Zm10.102-3.44V672h-1.152v-1.392c-.384.928-1.312 1.584-2.736 1.584-1.792 0-2.928-1.248-2.928-3.216v-5.168h1.216v4.992c0 1.392.608 2.368 2.016 2.368 1.344 0 2.368-.848 2.368-2.544v-4.816h1.216Zm2.592 8.192v-8.192h1.152v1.392c.384-.928 1.312-1.584 2.736-1.584 1.84 0 3.008 1.248 3.008 3.216V672h-1.216v-4.992c0-1.392-.624-2.336-2.096-2.336-1.344 0-2.368.816-2.368 2.512V672h-1.216Zm13.248 0h-1.024c-1.568 0-2.224-.784-2.224-2.176V664.8h-1.392v-.992h1.392v-2.352h1.216v2.352h2.096v.992h-2.096v5.024c0 .832.304 1.184 1.216 1.184h.816V672Zm2.049 0v-8.192h1.136v1.888c.304-1.264 1.184-1.936 2.672-1.936h.192v1.136h-.24c-1.552 0-2.544 1.024-2.544 3.088V672h-1.216Zm5.72 0v-8.192h1.216V672h-1.216Zm-.16-10.352c0-.432.304-.736.768-.736s.768.304.768.736-.304.736-.768.736-.768-.304-.768-.736Zm7.265 10.544c-2.128 0-3.616-1.36-3.616-3.568v-1.312c0-2.224 1.264-3.696 3.568-3.696 2.336 0 3.472 1.552 3.472 3.568v1.216H348.9v.288c0 1.424.736 2.576 2.448 2.576 1.232 0 1.984-.656 2.256-1.584h1.088c-.272 1.472-1.632 2.512-3.344 2.512Zm-2.448-4.976v.256h4.736v-.384c0-1.456-.736-2.544-2.336-2.544-1.76 0-2.4 1.168-2.4 2.672Zm11.099 4.976c-1.984 0-3.392-.992-3.392-2.576v-.08h1.104v.048c0 1.024.96 1.696 2.304 1.696 1.264 0 2.176-.496 2.176-1.552 0-.576-.368-.992-1.024-1.136l-2.432-.56c-1.216-.272-1.92-1.008-1.92-2.08 0-1.536 1.296-2.336 3.104-2.336 1.712 0 3.04 1.04 3.04 2.56v.08h-1.104v-.048c0-1.008-.736-1.68-1.952-1.68-1.136 0-1.968.48-1.968 1.392 0 .56.272.912.864 1.056l2.512.592c1.264.304 2.016.928 2.016 2.112 0 1.456-1.408 2.512-3.328 2.512Zm-110.634 21.784c-1.632 0-3.104-.752-3.552-2.096h1.2c.448.784 1.232 1.136 2.352 1.136 1.424 0 2.4-.8 2.4-2.048v-1.856c-.256.752-1.376 1.552-2.752 1.552-2.128 0-3.344-1.52-3.344-3.344v-1.36c0-1.856 1.2-3.344 3.36-3.344 1.536 0 2.448.832 2.784 1.552v-1.36h1.168V691c0 1.696-1.536 2.976-3.616 2.976Zm-.112-4.304c1.392 0 2.512-.928 2.512-2.48v-1.056c0-1.392-1.056-2.528-2.464-2.528-1.6 0-2.432.88-2.432 2.448v1.168c0 1.536.816 2.448 2.384 2.448Zm9.532 1.52c-2.128 0-3.616-1.36-3.616-3.568v-1.312c0-2.224 1.264-3.696 3.568-3.696 2.336 0 3.472 1.552 3.472 3.568v1.216h-5.872v.288c0 1.424.736 2.576 2.448 2.576 1.232 0 1.984-.656 2.256-1.584h1.088c-.272 1.472-1.632 2.512-3.344 2.512Zm-2.448-4.976v.256h4.736v-.384c0-1.456-.736-2.544-2.336-2.544-1.76 0-2.4 1.168-2.4 2.672ZM268.302 691h-1.024c-1.568 0-2.224-.784-2.224-2.176V683.8h-1.392v-.992h1.392v-2.352h1.216v2.352h2.096v.992h-2.096v5.024c0 .832.304 1.184 1.216 1.184h.816V691Zm5.644 0v-8.192h1.216V691h-1.216Zm-.16-10.352c0-.432.304-.736.768-.736s.768.304.768.736-.304.736-.768.736-.768-.304-.768-.736ZM281.755 691h-1.024c-1.568 0-2.224-.784-2.224-2.176V683.8h-1.392v-.992h1.392v-2.352h1.216v2.352h2.096v.992h-2.096v5.024c0 .832.304 1.184 1.216 1.184h.816V691Zm5.564 0v-8.192h1.136v1.888c.304-1.264 1.184-1.936 2.672-1.936h.192v1.136h-.24c-1.552 0-2.544 1.024-2.544 3.088V691h-1.216Zm5.721 0v-8.192h1.216V691h-1.216Zm-.16-10.352c0-.432.304-.736.768-.736s.768.304.768.736-.304.736-.768.736-.768-.304-.768-.736Zm7.345 13.328c-1.632 0-3.104-.752-3.552-2.096h1.2c.448.784 1.232 1.136 2.352 1.136 1.424 0 2.4-.8 2.4-2.048v-1.856c-.256.752-1.376 1.552-2.752 1.552-2.128 0-3.344-1.52-3.344-3.344v-1.36c0-1.856 1.2-3.344 3.36-3.344 1.536 0 2.448.832 2.784 1.552v-1.36h1.168V691c0 1.696-1.536 2.976-3.616 2.976Zm-.112-4.304c1.392 0 2.512-.928 2.512-2.48v-1.056c0-1.392-1.056-2.528-2.464-2.528-1.6 0-2.432.88-2.432 2.448v1.168c0 1.536.816 2.448 2.384 2.448Zm6.316 1.328v-11.68h1.216v4.752c.464-.848 1.312-1.456 2.672-1.456 1.84 0 3.008 1.248 3.008 3.216V691h-1.216v-4.992c0-1.392-.624-2.336-2.096-2.336-1.344 0-2.368.816-2.368 2.512V691h-1.216Zm13.248 0h-1.024c-1.568 0-2.224-.784-2.224-2.176V683.8h-1.392v-.992h1.392v-2.352h1.216v2.352h2.096v.992h-2.096v5.024c0 .832.304 1.184 1.216 1.184h.816V691Z" />
  <path fill="#fff"
    d="m9.918 754.4 2.628 9.108 1.818-9.108h2.484l-2.97 12.6h-2.43l-2.754-9.702L5.94 767H3.51L.54 754.4h2.484l1.818 9.108L7.47 754.4h2.448Zm8.673 12.6v-13.14h2.448v4.896c.486-.81 1.44-1.332 2.646-1.332 2.034 0 3.312 1.368 3.312 3.582V767h-2.448v-5.598c0-1.08-.522-1.854-1.71-1.854-1.098 0-1.8.648-1.8 1.908V767H18.59Zm13.872.216c-2.106 0-3.546-1.098-3.546-2.916 0-2.034 1.53-2.97 3.78-2.97 1.116 0 1.944.432 2.376.792v-1.278c0-.864-.612-1.512-1.62-1.512-.846 0-1.368.378-1.62.882h-2.268c.54-1.818 1.998-2.79 4.014-2.79 2.34 0 3.942 1.422 3.942 3.6V767h-2.358v-.864c-.432.63-1.62 1.08-2.7 1.08Zm.63-1.62c1.08 0 1.98-.594 1.98-1.386 0-.828-.81-1.314-1.908-1.314-1.152 0-1.872.468-1.872 1.332 0 .864.774 1.368 1.8 1.368ZM42.89 767c-1.8 0-2.646-1.008-2.646-2.664v-4.716h-1.332v-1.98h1.332v-2.556h2.466v2.556h1.998v1.98H42.71v4.536c0 .612.234.864.882.864h.99V767H42.89Zm10.863 0c-1.8 0-2.646-1.008-2.646-2.664v-4.716h-1.332v-1.98h1.332v-2.556h2.466v2.556h1.998v1.98h-1.998v4.536c0 .612.234.864.882.864h.99V767h-1.692Zm3.65 0v-13.14h2.448v4.896c.486-.81 1.44-1.332 2.646-1.332 2.034 0 3.312 1.368 3.312 3.582V767h-2.448v-5.598c0-1.08-.522-1.854-1.71-1.854-1.098 0-1.8.648-1.8 1.908V767h-2.448Zm14.665.216c-2.646 0-4.356-1.548-4.356-4.176v-1.278c0-2.538 1.512-4.338 4.32-4.338 2.772 0 4.176 1.854 4.176 4.104v1.638h-6.12v.234c0 1.098.558 2.052 1.98 2.052 1.044 0 1.692-.54 1.926-1.188h2.142c-.324 1.71-1.998 2.952-4.068 2.952Zm-1.98-5.868v.09h3.87v-.234c0-1.17-.612-2.052-1.926-2.052-1.404 0-1.944.936-1.944 2.196Zm11.625 8.784H79.3l.936-3.168-3.24-9.324h2.448l2.016 6.714 1.908-6.714h2.43l-4.086 12.492Zm9.44-3.132v-9.36h2.322v1.818c.306-1.404 1.404-1.89 2.808-1.89h.288v2.43h-.504c-1.602 0-2.466.792-2.466 2.682V767h-2.448Zm10.85.216c-2.645 0-4.356-1.548-4.356-4.176v-1.278c0-2.538 1.512-4.338 4.32-4.338 2.772 0 4.176 1.854 4.176 4.104v1.638h-6.12v.234c0 1.098.558 2.052 1.98 2.052 1.044 0 1.692-.54 1.926-1.188h2.142c-.324 1.71-1.998 2.952-4.068 2.952Zm-1.98-5.868v.09h3.87v-.234c0-1.17-.612-2.052-1.926-2.052-1.404 0-1.944.936-1.944 2.196Zm13.223-3.924c2.574 0 3.942 1.908 3.942 4.122v1.548c0 2.25-1.404 4.122-3.924 4.122-1.242 0-2.196-.504-2.682-1.224v4.14h-2.448V757.64h2.34v1.116c.468-.72 1.422-1.332 2.772-1.332Zm-.594 1.98c-1.242 0-2.07.936-2.07 2.25v1.368c0 1.422.936 2.214 2.052 2.214 1.386 0 2.106-.936 2.106-2.25v-1.332c0-1.242-.666-2.25-2.088-2.25Zm10.534 7.812c-2.808 0-4.41-1.836-4.41-4.23v-1.332c0-2.394 1.602-4.23 4.41-4.23s4.41 1.836 4.41 4.23v1.332c0 2.394-1.602 4.23-4.41 4.23Zm2.034-4.068v-1.656c0-1.224-.648-2.142-2.034-2.142-1.386 0-2.034.918-2.034 2.142v1.656c0 1.224.648 2.142 2.034 2.142 1.386 0 2.034-.918 2.034-2.142Zm4.377 3.852v-9.36h2.322v1.818c.306-1.404 1.404-1.89 2.808-1.89h.288v2.43h-.504c-1.602 0-2.466.792-2.466 2.682V767h-2.448Zm10.342 0c-1.8 0-2.646-1.008-2.646-2.664v-4.716h-1.332v-1.98h1.332v-2.556h2.466v2.556h1.998v1.98h-1.998v4.536c0 .612.234.864.882.864h.99V767h-1.692Z" />
  <path fill="#01FFD8"
    d="M294.734 987.967a.5.5 0 0 0-.157.689l2.395 3.81a.501.501 0 0 0 .847-.533l-2.13-3.386 3.386-2.129a.5.5 0 1 0-.532-.847l-3.809 2.396Zm.155.911c13.266 3.022 21.879 12.662 24.75 24.442 2.872 11.78-.005 25.7-9.784 37.23l.763.65c9.975-11.76 12.944-26.01 9.992-38.12-2.954-12.11-11.836-22.065-25.499-25.177l-.222.975Z" />
  <path fill="#C2C2C2"
    d="M114.734 1039.47c53.424 0 96.734-43.312 96.734-96.736 0-53.425-43.31-96.734-96.734-96.734C61.309 846 18 889.309 18 942.734c0 53.424 43.31 96.736 96.734 96.736Z"
    opacity=".5" />
  <path fill="#C2C2C2"
    d="M224.734 1040.47c53.424 0 96.734-43.312 96.734-96.736 0-53.425-43.31-96.734-96.734-96.734C171.309 847 128 890.309 128 943.734c0 53.424 43.309 96.736 96.734 96.736Z"
    opacity=".5" />
  <path fill="#fff" d="M57 941a6 6 0 1 0 0-12 6 6 0 0 0 0 12Z" />
  <path fill="#01FFD8"
    d="M252 939a6 6 0 1 0 0-12 6 6 0 0 0 0 12ZM258 918a6 6 0 1 0 0-12 6 6 0 0 0 0 12ZM240 980a6 6 0 1 0 0-12 6 6 0 0 0 0 12ZM259 994a6 6 0 1 0 0-12 6 6 0 0 0 0 12ZM279 994a6 6 0 1 0 0-12 6 6 0 0 0 0 12ZM235 922a6 6 0 1 0 0-12 6 6 0 0 0 0 12Z" />
  <path fill="#fff" d="M51 960a6 6 0 1 0 0-12 6 6 0 0 0 0 12Z" />
  <path fill="#01FFD8" d="M246 958a6 6 0 1 0 0-12 6 6 0 0 0 0 12Z" />
  <path fill="#fff" d="M70 955a6 6 0 1 0 0-12 6 6 0 0 0 0 12Z" />
  <path fill="#01FFD8" d="M265 953a6 6 0 1 0 0-12 6 6 0 0 0 0 12Z" />
  <path fill="#fff" d="M76 935a6 6 0 1 0 0-12 6 6 0 0 0 0 12Z" />
  <path fill="#01FFD8" d="M271 933a6 6 0 1 0 0-12 6 6 0 0 0 0 12Z" />
  <path fill="#fff" d="M63 973a6 6 0 1 0 0-12 6 6 0 0 0 0 12Z" />
  <path fill="#01FFD8" d="M258 973a6 6 0 1 0 0-12 6 6 0 0 0 0 12Z" />
  <path fill="#fff" d="M83 976a6 6 0 1 0 0-12 6 6 0 0 0 0 12Z" />
  <path fill="#01FFD8" d="M278 974a6 6 0 1 0 0-12 6 6 0 0 0 0 12Z" />
  <path fill="#fff" d="M88 959a6 6 0 1 0 0-12 6 6 0 0 0 0 12Z" />
  <path fill="#01FFD8" d="M283 957a6 6 0 1 0 0-12 6 6 0 0 0 0 12Z" />
  <path fill="#fff" d="M95 935a6 6 0 1 0 0-12 6 6 0 0 0 0 12Z" />
  <path fill="#01FFD8" d="M290 933a6 6 0 1 0 0-12 6 6 0 0 0 0 12Z" />
  <path fill="#fff" d="M88 918a6 6 0 1 0 0-12 6 6 0 0 0 0 12Z" />
  <path fill="#01FFD8"
    d="M283 916a6 6 0 1 0 0-12 6 6 0 0 0 0 12ZM197.456 815.8h4.208c2.848 0 4.416 1.808 4.416 4.304v2.592c0 2.496-1.568 4.304-4.416 4.304h-4.208v-11.2Zm4.032 10.176c2.208 0 3.36-1.328 3.36-3.28v-2.592c0-1.952-1.152-3.28-3.36-3.28h-2.8v9.152h2.8Zm7.076 1.024v-8.192h1.216V827h-1.216Zm-.16-10.352c0-.432.304-.736.768-.736s.768.304.768.736-.304.736-.768.736-.768-.304-.768-.736Zm7.056 10.544c-1.984 0-3.392-.992-3.392-2.576v-.08h1.104v.048c0 1.024.96 1.696 2.304 1.696 1.264 0 2.176-.496 2.176-1.552 0-.576-.368-.992-1.024-1.136l-2.432-.56c-1.216-.272-1.92-1.008-1.92-2.08 0-1.536 1.296-2.336 3.104-2.336 1.712 0 3.04 1.04 3.04 2.56v.08h-1.104v-.048c0-1.008-.736-1.68-1.952-1.68-1.136 0-1.968.48-1.968 1.392 0 .56.272.912.864 1.056l2.512.592c1.264.304 2.016.928 2.016 2.112 0 1.456-1.408 2.512-3.328 2.512Zm5.414-11.872h1.216v4.704c.496-.832 1.456-1.408 2.736-1.408 2.064 0 3.392 1.536 3.392 3.664v1.248c0 2.048-1.264 3.664-3.424 3.664-1.36 0-2.416-.72-2.768-1.472V827h-1.152v-11.68Zm6.128 8.16v-1.152c0-1.504-.848-2.72-2.4-2.72-1.36 0-2.512 1.04-2.512 2.72v1.056c0 1.584.88 2.816 2.496 2.816 1.696 0 2.416-1.216 2.416-2.72Zm10.139-4.672V827h-1.152v-1.392c-.384.928-1.312 1.584-2.736 1.584-1.792 0-2.928-1.248-2.928-3.216v-5.168h1.216v4.992c0 1.392.608 2.368 2.016 2.368 1.344 0 2.368-.848 2.368-2.544v-4.816h1.216Zm2.593 8.192v-8.192h1.136v1.888c.304-1.264 1.184-1.936 2.672-1.936h.192v1.136h-.24c-1.552 0-2.544 1.024-2.544 3.088V827h-1.216Zm8.57.192c-1.984 0-3.392-.992-3.392-2.576v-.08h1.104v.048c0 1.024.96 1.696 2.304 1.696 1.264 0 2.176-.496 2.176-1.552 0-.576-.368-.992-1.024-1.136l-2.432-.56c-1.216-.272-1.92-1.008-1.92-2.08 0-1.536 1.296-2.336 3.104-2.336 1.712 0 3.04 1.04 3.04 2.56v.08h-1.104v-.048c0-1.008-.736-1.68-1.952-1.68-1.136 0-1.968.48-1.968 1.392 0 .56.272.912.864 1.056l2.512.592c1.264.304 2.016.928 2.016 2.112 0 1.456-1.408 2.512-3.328 2.512Zm8.63 0c-2.128 0-3.616-1.36-3.616-3.568v-1.312c0-2.224 1.264-3.696 3.568-3.696 2.336 0 3.472 1.552 3.472 3.568v1.216h-5.872v.288c0 1.424.736 2.576 2.448 2.576 1.232 0 1.984-.656 2.256-1.584h1.088c-.272 1.472-1.632 2.512-3.344 2.512Zm-2.448-4.976v.256h4.736v-.384c0-1.456-.736-2.544-2.336-2.544-1.76 0-2.4 1.168-2.4 2.672Zm8.091 4.784v-8.192h1.152v1.392c.384-.928 1.28-1.584 2.704-1.584 1.216 0 2.144.608 2.608 1.6.56-.96 1.552-1.6 2.976-1.6 1.792 0 2.944 1.28 2.944 3.216V827h-1.216v-4.992c0-1.392-.688-2.336-2.032-2.336s-2.336.816-2.336 2.512V827h-1.216v-4.992c0-1.392-.688-2.336-2.032-2.336s-2.336.816-2.336 2.512V827h-1.216Zm18.107.192c-2.128 0-3.616-1.36-3.616-3.568v-1.312c0-2.224 1.264-3.696 3.568-3.696 2.336 0 3.472 1.552 3.472 3.568v1.216h-5.872v.288c0 1.424.736 2.576 2.448 2.576 1.232 0 1.984-.656 2.256-1.584h1.088c-.272 1.472-1.632 2.512-3.344 2.512Zm-2.448-4.976v.256h4.736v-.384c0-1.456-.736-2.544-2.336-2.544-1.76 0-2.4 1.168-2.4 2.672Zm8.091 4.784v-8.192h1.152v1.392c.384-.928 1.312-1.584 2.736-1.584 1.84 0 3.008 1.248 3.008 3.216V827h-1.216v-4.992c0-1.392-.624-2.336-2.096-2.336-1.344 0-2.368.816-2.368 2.512V827h-1.216Zm13.248 0h-1.024c-1.568 0-2.224-.784-2.224-2.176V819.8h-1.392v-.992h1.392v-2.352h1.216v2.352h2.096v.992h-2.096v5.024c0 .832.304 1.184 1.216 1.184h.816V827Zm5.01.192c-1.984 0-3.392-.992-3.392-2.576v-.08h1.104v.048c0 1.024.96 1.696 2.304 1.696 1.264 0 2.176-.496 2.176-1.552 0-.576-.368-.992-1.024-1.136l-2.432-.56c-1.216-.272-1.92-1.008-1.92-2.08 0-1.536 1.296-2.336 3.104-2.336 1.712 0 3.04 1.04 3.04 2.56v.08h-1.104v-.048c0-1.008-.736-1.68-1.952-1.68-1.136 0-1.968.48-1.968 1.392 0 .56.272.912.864 1.056l2.512.592c1.264.304 2.016.928 2.016 2.112 0 1.456-1.408 2.512-3.328 2.512Z" />
  <path fill="#fff"
    d="M23.776 828.224c-3.088 0-4.656-2.096-4.656-4.88v-1.888c0-2.784 1.568-4.88 4.656-4.88 2.592 0 4.24 1.808 4.416 3.92h-1.2c-.192-1.536-1.216-2.88-3.232-2.88-2.288 0-3.392 1.6-3.392 3.792v1.984c0 2.192 1.104 3.792 3.392 3.792 2.016 0 3.04-1.344 3.232-2.88h1.2c-.176 2.112-1.824 3.92-4.416 3.92Zm10.003-.032c-2.336 0-3.664-1.6-3.664-3.616v-1.344c0-2.016 1.344-3.616 3.664-3.616 2.32 0 3.648 1.6 3.648 3.616v1.344c0 2.016-1.328 3.616-3.648 3.616Zm2.48-4.944c0-1.552-.864-2.656-2.48-2.656s-2.48 1.104-2.48 2.656v1.312c0 1.552.864 2.656 2.48 2.656s2.48-1.104 2.48-2.656v-1.312ZM39.624 828v-8.192h1.152v1.392c.384-.928 1.28-1.584 2.704-1.584 1.216 0 2.144.608 2.608 1.6.56-.96 1.552-1.6 2.976-1.6 1.792 0 2.944 1.28 2.944 3.216V828h-1.216v-4.992c0-1.392-.688-2.336-2.032-2.336s-2.336.816-2.336 2.512V828h-1.216v-4.992c0-1.392-.688-2.336-2.032-2.336s-2.336.816-2.336 2.512V828h-1.216Zm14.89 0v-8.192h1.153v1.392c.384-.928 1.28-1.584 2.704-1.584 1.216 0 2.144.608 2.608 1.6.56-.96 1.552-1.6 2.976-1.6 1.792 0 2.944 1.28 2.944 3.216V828h-1.216v-4.992c0-1.392-.688-2.336-2.032-2.336s-2.336.816-2.336 2.512V828h-1.216v-4.992c0-1.392-.688-2.336-2.032-2.336s-2.336.816-2.336 2.512V828h-1.216Zm14.971 0v-8.192h1.216V828h-1.216Zm-.16-10.352c0-.432.304-.736.768-.736s.768.304.768.736-.304.736-.768.736-.768-.304-.768-.736ZM77.295 828H76.27c-1.568 0-2.224-.784-2.224-2.176V820.8h-1.392v-.992h1.392v-2.352h1.216v2.352h2.096v.992h-2.096v5.024c0 .832.304 1.184 1.216 1.184h.816V828Zm2.048 0v-8.192h1.152v1.392c.384-.928 1.28-1.584 2.704-1.584 1.216 0 2.144.608 2.608 1.6.56-.96 1.552-1.6 2.976-1.6 1.792 0 2.944 1.28 2.944 3.216V828H90.51v-4.992c0-1.392-.688-2.336-2.032-2.336s-2.336.816-2.336 2.512V828h-1.216v-4.992c0-1.392-.688-2.336-2.032-2.336s-2.336.816-2.336 2.512V828h-1.216Zm18.106.192c-2.127 0-3.615-1.36-3.615-3.568v-1.312c0-2.224 1.263-3.696 3.567-3.696 2.337 0 3.473 1.552 3.473 3.568v1.216h-5.873v.288c0 1.424.736 2.576 2.448 2.576 1.233 0 1.984-.656 2.257-1.584h1.088c-.272 1.472-1.632 2.512-3.344 2.512Zm-2.448-4.976v.256h4.736v-.384c0-1.456-.736-2.544-2.335-2.544-1.76 0-2.4 1.168-2.4 2.672Zm8.092 4.784v-8.192h1.152v1.392c.384-.928 1.312-1.584 2.736-1.584 1.84 0 3.008 1.248 3.008 3.216V828h-1.216v-4.992c0-1.392-.624-2.336-2.096-2.336-1.344 0-2.368.816-2.368 2.512V828h-1.216Zm13.248 0h-1.024c-1.568 0-2.224-.784-2.224-2.176V820.8h-1.392v-.992h1.392v-2.352h1.216v2.352h2.096v.992h-2.096v5.024c0 .832.304 1.184 1.216 1.184h.816V828Zm5.01.192c-1.984 0-3.392-.992-3.392-2.576v-.08h1.104v.048c0 1.024.96 1.696 2.304 1.696 1.264 0 2.176-.496 2.176-1.552 0-.576-.368-.992-1.024-1.136l-2.432-.56c-1.216-.272-1.92-1.008-1.92-2.08 0-1.536 1.296-2.336 3.104-2.336 1.712 0 3.04 1.04 3.04 2.56v.08h-1.104v-.048c0-1.008-.736-1.68-1.952-1.68-1.136 0-1.968.48-1.968 1.392 0 .56.272.912.864 1.056l2.512.592c1.264.304 2.016.928 2.016 2.112 0 1.456-1.408 2.512-3.328 2.512Z" />
  <path fill="#01FFD8"
    d="M195.832 1069v-9.94l-2.336 1.11v-1.12l2.544-1.25h1.024v11.2h-1.232Zm9.05 0v-2.67h-5.312v-.91l3.728-7.62h1.12l-3.648 7.6h4.112v-2.66h1.136v2.66h1.552v.93h-1.552v2.67h-1.136Zm11.552.19c-2.272 0-3.632-1.53-3.632-3.6v-1.37c0-2.07 1.36-3.6 3.632-3.6 2.064 0 3.408 1.34 3.504 3.07h-1.088c-.16-1.11-.848-2.11-2.4-2.11-1.68 0-2.464 1.08-2.464 2.62v1.41c0 1.53.784 2.62 2.464 2.62 1.552 0 2.24-1.01 2.4-2.11h1.088c-.096 1.73-1.44 3.07-3.504 3.07Zm8.985 0c-2.336 0-3.664-1.6-3.664-3.61v-1.35c0-2.01 1.344-3.61 3.664-3.61 2.32 0 3.648 1.6 3.648 3.61v1.35c0 2.01-1.328 3.61-3.648 3.61Zm2.48-4.94c0-1.55-.864-2.66-2.48-2.66s-2.48 1.11-2.48 2.66v1.31c0 1.55.864 2.66 2.48 2.66s2.48-1.11 2.48-2.66v-1.31Zm10.102-3.44v8.19h-1.152v-1.39c-.384.93-1.312 1.58-2.736 1.58-1.792 0-2.928-1.25-2.928-3.21v-5.17h1.216v4.99c0 1.39.608 2.37 2.016 2.37 1.344 0 2.368-.85 2.368-2.55v-4.81h1.216Zm2.592 8.19v-8.19h1.152v1.39c.384-.93 1.312-1.58 2.736-1.58 1.84 0 3.008 1.24 3.008 3.21v5.17h-1.216v-4.99c0-1.39-.624-2.34-2.096-2.34-1.344 0-2.368.82-2.368 2.51v4.82h-1.216Zm13.248 0h-1.024c-1.568 0-2.224-.78-2.224-2.18v-5.02h-1.392v-.99h1.392v-2.35h1.216v2.35h2.096v.99h-2.096v5.02c0 .84.304 1.19 1.216 1.19h.816v.99Zm2.049 0v-8.19h1.136v1.89c.304-1.27 1.184-1.94 2.672-1.94h.192v1.14h-.24c-1.552 0-2.544 1.02-2.544 3.08v4.02h-1.216Zm5.72 0v-8.19h1.216v8.19h-1.216Zm-.16-10.35c0-.43.304-.74.768-.74s.768.31.768.74-.304.73-.768.73-.768-.3-.768-.73Zm7.265 10.54c-2.128 0-3.616-1.36-3.616-3.57v-1.31c0-2.22 1.264-3.69 3.568-3.69 2.336 0 3.472 1.55 3.472 3.56v1.22h-5.872v.29c0 1.42.736 2.57 2.448 2.57 1.232 0 1.984-.65 2.256-1.58h1.088c-.272 1.47-1.632 2.51-3.344 2.51Zm-2.448-4.97v.25h4.736v-.38c0-1.46-.736-2.55-2.336-2.55-1.76 0-2.4 1.17-2.4 2.68Zm11.1 4.97c-1.984 0-3.392-.99-3.392-2.57v-.08h1.104v.04c0 1.03.96 1.7 2.304 1.7 1.264 0 2.176-.5 2.176-1.55 0-.58-.368-.99-1.024-1.14l-2.432-.56c-1.216-.27-1.92-1.01-1.92-2.08 0-1.53 1.296-2.33 3.103-2.33 1.713 0 3.041 1.04 3.041 2.56v.08h-1.104v-.05c0-1.01-.736-1.68-1.952-1.68-1.136 0-1.968.48-1.968 1.39 0 .56.272.91.864 1.06l2.512.59c1.264.3 2.016.93 2.016 2.11 0 1.46-1.408 2.51-3.328 2.51Zm8.929-.19v-8.19h1.136v1.89c.304-1.27 1.184-1.94 2.672-1.94h.192v1.14h-.24c-1.552 0-2.544 1.02-2.544 3.08v4.02h-1.216Zm8.732.19c-2.128 0-3.616-1.36-3.616-3.57v-1.31c0-2.22 1.264-3.69 3.568-3.69 2.336 0 3.472 1.55 3.472 3.56v1.22h-5.872v.29c0 1.42.736 2.57 2.448 2.57 1.232 0 1.984-.65 2.256-1.58h1.088c-.272 1.47-1.632 2.51-3.344 2.51Zm-2.448-4.97v.25h4.736v-.38c0-1.46-.736-2.55-2.336-2.55-1.76 0-2.4 1.17-2.4 2.68Zm9.307 7.56h-1.216v-10.97h1.152v1.28c.352-.75 1.408-1.47 2.768-1.47 2.192 0 3.424 1.58 3.424 3.66v1.25c0 2.13-1.328 3.66-3.392 3.66-1.28 0-2.24-.57-2.736-1.41v4Zm4.912-6.3v-1.15c0-1.51-.72-2.72-2.416-2.72-1.616 0-2.496 1.23-2.496 2.81v1.06c0 1.68 1.152 2.72 2.512 2.72 1.552 0 2.4-1.22 2.4-2.72Zm6.667 3.71c-2.336 0-3.664-1.6-3.664-3.61v-1.35c0-2.01 1.344-3.61 3.664-3.61 2.32 0 3.648 1.6 3.648 3.61v1.35c0 2.01-1.328 3.61-3.648 3.61Zm2.48-4.94c0-1.55-.864-2.66-2.48-2.66s-2.48 1.11-2.48 2.66v1.31c0 1.55.864 2.66 2.48 2.66s2.48-1.11 2.48-2.66v-1.31Zm3.366 4.75v-8.19h1.136v1.89c.304-1.27 1.184-1.94 2.672-1.94h.192v1.14h-.24c-1.552 0-2.544 1.02-2.544 3.08v4.02h-1.216Zm9.56 0h-1.024c-1.568 0-2.224-.78-2.224-2.18v-5.02h-1.392v-.99h1.392v-2.35h1.216v2.35h2.096v.99h-2.096v5.02c0 .84.304 1.19 1.216 1.19h.816v.99Zm15.917-8.19-2.24 8.19h-1.152l-2.176-6.91-2.176 6.91h-1.152l-2.24-8.19h1.152l1.728 6.73 2.112-6.73h1.152l2.112 6.73 1.728-6.73h1.152Zm1.804 8.19v-11.68h1.216v4.75c.464-.85 1.312-1.45 2.672-1.45 1.84 0 3.008 1.24 3.008 3.21v5.17h-1.216v-4.99c0-1.39-.624-2.34-2.096-2.34-1.344 0-2.368.82-2.368 2.51v4.82h-1.216Zm16.126 0h-1.168v-1.02c-.352.57-1.456 1.21-2.816 1.21-1.936 0-3.104-1.09-3.104-2.57 0-1.59 1.296-2.56 3.248-2.56 1.296 0 2.16.54 2.624 1.02v-1.52c0-1.12-.736-1.98-2.048-1.98-1.04 0-1.712.48-2.048 1.23h-1.12c.416-1.36 1.568-2.19 3.184-2.19 2.032 0 3.248 1.32 3.248 2.94v5.44Zm-3.728-.59c1.28 0 2.512-.75 2.512-1.81 0-1.02-1.216-1.74-2.448-1.74-1.36 0-2.272.64-2.272 1.77 0 1.14.944 1.78 2.208 1.78Zm10.038.59h-1.024c-1.568 0-2.224-.78-2.224-2.18v-5.02h-1.392v-.99h1.392v-2.35h1.216v2.35h2.096v.99h-2.096v5.02c0 .84.304 1.19 1.216 1.19h.816v.99Zm-170.813 19h-1.024c-1.568 0-2.224-.78-2.224-2.18v-5.02h-1.392v-.99h1.392v-2.35h1.216v2.35h2.096v.99h-2.096v5.02c0 .84.304 1.19 1.216 1.19h.816v.99Zm2.049 0v-11.68h1.216v4.75c.464-.85 1.312-1.45 2.672-1.45 1.84 0 3.008 1.24 3.008 3.21v5.17h-1.216v-4.99c0-1.39-.624-2.34-2.096-2.34-1.344 0-2.368.82-2.368 2.51v4.82h-1.216Zm12.622.19c-2.128 0-3.616-1.36-3.616-3.57v-1.31c0-2.22 1.264-3.69 3.568-3.69 2.336 0 3.472 1.55 3.472 3.56v1.22h-5.872v.29c0 1.42.736 2.57 2.448 2.57 1.232 0 1.984-.65 2.256-1.58h1.088c-.272 1.47-1.632 2.51-3.344 2.51Zm-2.448-4.97v.25h4.736v-.38c0-1.46-.736-2.55-2.336-2.55-1.76 0-2.4 1.17-2.4 2.68Zm10.255 7.56h-1.184l1.04-2.78-3.056-8.19h1.2l2.496 6.96 2.4-6.96h1.2l-3.024 8.19-1.072 2.78Zm16.041-2.78h-1.168v-1.02c-.352.57-1.456 1.21-2.816 1.21-1.936 0-3.104-1.09-3.104-2.57 0-1.59 1.296-2.56 3.248-2.56 1.296 0 2.16.54 2.624 1.02v-1.52c0-1.12-.736-1.98-2.048-1.98-1.04 0-1.712.48-2.048 1.23h-1.12c.416-1.36 1.568-2.19 3.184-2.19 2.032 0 3.248 1.32 3.248 2.94v5.44Zm-3.728-.59c1.28 0 2.512-.75 2.512-1.81 0-1.02-1.216-1.74-2.448-1.74-1.36 0-2.272.64-2.272 1.77 0 1.14.944 1.78 2.208 1.78Zm9.459.78c-2.272 0-3.632-1.53-3.632-3.6v-1.37c0-2.07 1.36-3.6 3.632-3.6 2.064 0 3.408 1.34 3.504 3.07h-1.088c-.16-1.11-.848-2.11-2.4-2.11-1.68 0-2.464 1.08-2.464 2.62v1.41c0 1.53.784 2.62 2.464 2.62 1.552 0 2.24-1.01 2.4-2.11h1.088c-.096 1.73-1.44 3.07-3.504 3.07Zm9.578-.19h-1.024c-1.568 0-2.224-.78-2.224-2.18v-5.02h-1.392v-.99h1.392v-2.35h1.216v2.35h2.096v.99h-2.096v5.02c0 .84.304 1.19 1.216 1.19h.816v.99Zm8.707-8.19v8.19h-1.152v-1.39c-.384.93-1.312 1.58-2.736 1.58-1.792 0-2.928-1.25-2.928-3.21v-5.17h1.216v4.99c0 1.39.608 2.37 2.016 2.37 1.344 0 2.368-.85 2.368-2.55v-4.81h1.216Zm9.312 8.19h-1.168v-1.02c-.352.57-1.456 1.21-2.816 1.21-1.936 0-3.104-1.09-3.104-2.57 0-1.59 1.296-2.56 3.248-2.56 1.296 0 2.16.54 2.624 1.02v-1.52c0-1.12-.736-1.98-2.048-1.98-1.04 0-1.712.48-2.048 1.23h-1.12c.416-1.36 1.568-2.19 3.184-2.19 2.032 0 3.248 1.32 3.248 2.94v5.44Zm-3.728-.59c1.28 0 2.512-.75 2.512-1.81 0-1.02-1.216-1.74-2.448-1.74-1.36 0-2.272.64-2.272 1.77 0 1.14.944 1.78 2.208 1.78Zm6.307.59v-11.68h1.216V1088h-1.216Zm3.968 0v-11.68h1.216V1088h-1.216Zm6.209 2.78h-1.184l1.04-2.78-3.056-8.19h1.2l2.496 6.96 2.4-6.96h1.2l-3.024 8.19-1.072 2.78Zm12.329-2.59c-1.984 0-3.392-.99-3.392-2.57v-.08h1.104v.04c0 1.03.96 1.7 2.304 1.7 1.264 0 2.176-.5 2.176-1.55 0-.58-.368-.99-1.024-1.14l-2.432-.56c-1.216-.27-1.92-1.01-1.92-2.08 0-1.53 1.296-2.33 3.104-2.33 1.712 0 3.04 1.04 3.04 2.56v.08h-1.104v-.05c0-1.01-.736-1.68-1.952-1.68-1.136 0-1.968.48-1.968 1.39 0 .56.272.91.864 1.06l2.512.59c1.264.3 2.016.93 2.016 2.11 0 1.46-1.408 2.51-3.328 2.51Zm6.63 2.59h-1.216v-10.97h1.152v1.28c.352-.75 1.408-1.47 2.768-1.47 2.192 0 3.424 1.58 3.424 3.66v1.25c0 2.13-1.328 3.66-3.392 3.66-1.28 0-2.24-.57-2.736-1.41v4Zm4.912-6.3v-1.15c0-1.51-.72-2.72-2.416-2.72-1.616 0-2.496 1.23-2.496 2.81v1.06c0 1.68 1.152 2.72 2.512 2.72 1.552 0 2.4-1.22 2.4-2.72Zm6.619 3.71c-2.128 0-3.616-1.36-3.616-3.57v-1.31c0-2.22 1.264-3.69 3.568-3.69 2.336 0 3.472 1.55 3.472 3.56v1.22h-5.872v.29c0 1.42.736 2.57 2.448 2.57 1.232 0 1.984-.65 2.256-1.58h1.088c-.272 1.47-1.632 2.51-3.344 2.51Zm-2.448-4.97v.25h4.736v-.38c0-1.46-.736-2.55-2.336-2.55-1.76 0-2.4 1.17-2.4 2.68Zm8.091 4.78v-8.19h1.152v1.39c.384-.93 1.312-1.58 2.736-1.58 1.84 0 3.008 1.24 3.008 3.21v5.17h-1.216v-4.99c0-1.39-.624-2.34-2.096-2.34-1.344 0-2.368.82-2.368 2.51v4.82h-1.216Zm15.135-11.68h1.216V1088h-1.152v-1.28c-.352.75-1.408 1.47-2.768 1.47-2.16 0-3.424-1.61-3.424-3.66v-1.25c0-2.13 1.328-3.66 3.392-3.66 1.28 0 2.24.57 2.736 1.4v-4.7Zm-4.913 7.01v1.15c0 1.5.721 2.72 2.417 2.72 1.616 0 2.496-1.23 2.496-2.82v-1.05c0-1.68-1.152-2.72-2.512-2.72-1.552 0-2.401 1.21-2.401 2.72Z" />
  <path fill="#fff"
    d="M176 955a6 6 0 1 0 0-12 6 6 0 0 0 0 12ZM160 964a6 6 0 1 0 0-12 6 6 0 0 0 0 12ZM176 972a6 6 0 1 0 0-12 6 6 0 0 0 0 12ZM160.184 913.8V925H159v-8.8l-3.088 6.096h-1.184l-3.088-6.096v8.8h-1.184v-11.2h1.168l3.696 7.392 3.696-7.392h1.168Zm2.833 11.2v-8.192h1.216V925h-1.216Zm-.16-10.352c0-.432.304-.736.768-.736s.768.304.768.736-.304.736-.768.736-.768-.304-.768-.736Zm7.44 6.192 2.88 4.16h-1.28l-2.224-3.264-2.224 3.264h-1.28l2.88-4.16-2.768-4.032h1.264l2.128 3.12 2.128-3.12h1.264l-2.768 4.032Zm7.746 4.352c-2.128 0-3.616-1.36-3.616-3.568v-1.312c0-2.224 1.264-3.696 3.568-3.696 2.336 0 3.472 1.552 3.472 3.568v1.216h-5.872v.288c0 1.424.736 2.576 2.448 2.576 1.232 0 1.984-.656 2.256-1.584h1.088c-.272 1.472-1.632 2.512-3.344 2.512Zm-2.448-4.976v.256h4.736v-.384c0-1.456-.736-2.544-2.336-2.544-1.76 0-2.4 1.168-2.4 2.672Zm13.82-6.896h1.216V925h-1.152v-1.28c-.352.752-1.408 1.472-2.768 1.472-2.16 0-3.424-1.616-3.424-3.664v-1.248c0-2.128 1.328-3.664 3.392-3.664 1.28 0 2.24.576 2.736 1.408v-4.704Zm-4.912 7.008v1.152c0 1.504.72 2.72 2.416 2.72 1.616 0 2.496-1.232 2.496-2.816v-1.056c0-1.68-1.152-2.72-2.512-2.72-1.552 0-2.4 1.216-2.4 2.72Z" />
  <path fill="#C2C2C2"
    d="M22.19 783.066v-.96h6.944v.96H22.19Zm0 3.808v-.96h6.944v.96H22.19ZM40.31 788.942c-2.336 0-3.664-1.6-3.664-3.616v-1.344c0-2.016 1.344-3.616 3.664-3.616 2.32 0 3.648 1.6 3.648 3.616v1.344c0 2.016-1.328 3.616-3.648 3.616Zm2.48-4.944c0-1.552-.864-2.656-2.48-2.656s-2.48 1.104-2.48 2.656v1.312c0 1.552.864 2.656 2.48 2.656s2.48-1.104 2.48-2.656v-1.312Zm3.365 4.752v-8.192h1.152v1.392c.384-.928 1.312-1.584 2.736-1.584 1.84 0 3.008 1.248 3.008 3.216v5.168h-1.216v-4.992c0-1.392-.624-2.336-2.096-2.336-1.344 0-2.368.816-2.368 2.512v4.816h-1.216Zm12.623.192c-2.128 0-3.616-1.36-3.616-3.568v-1.312c0-2.224 1.264-3.696 3.568-3.696 2.336 0 3.472 1.552 3.472 3.568v1.216H56.33v.288c0 1.424.736 2.576 2.448 2.576 1.232 0 1.984-.656 2.256-1.584h1.088c-.272 1.472-1.632 2.512-3.344 2.512Zm-2.448-4.976v.256h4.736v-.384c0-1.456-.736-2.544-2.336-2.544-1.76 0-2.4 1.168-2.4 2.672Zm15.167 4.976c-2.272 0-3.632-1.536-3.632-3.6v-1.376c0-2.064 1.36-3.6 3.632-3.6 2.064 0 3.408 1.344 3.504 3.072h-1.088c-.16-1.104-.848-2.112-2.4-2.112-1.68 0-2.464 1.088-2.464 2.624v1.408c0 1.536.784 2.624 2.464 2.624 1.552 0 2.24-1.008 2.4-2.112H75c-.096 1.728-1.44 3.072-3.504 3.072Zm8.985 0c-2.336 0-3.664-1.6-3.664-3.616v-1.344c0-2.016 1.344-3.616 3.664-3.616 2.32 0 3.648 1.6 3.648 3.616v1.344c0 2.016-1.328 3.616-3.648 3.616Zm2.48-4.944c0-1.552-.864-2.656-2.48-2.656s-2.48 1.104-2.48 2.656v1.312c0 1.552.864 2.656 2.48 2.656s2.48-1.104 2.48-2.656v-1.312Zm10.101-3.44v8.192h-1.152v-1.392c-.384.928-1.312 1.584-2.736 1.584-1.792 0-2.928-1.248-2.928-3.216v-5.168h1.216v4.992c0 1.392.608 2.368 2.016 2.368 1.344 0 2.368-.848 2.368-2.544v-4.816h1.216Zm2.592 8.192v-8.192h1.152v1.392c.384-.928 1.312-1.584 2.736-1.584 1.84 0 3.008 1.248 3.008 3.216v5.168h-1.216v-4.992c0-1.392-.624-2.336-2.096-2.336-1.344 0-2.368.816-2.368 2.512v4.816h-1.216Zm13.249 0h-1.024c-1.568 0-2.224-.784-2.224-2.176v-5.024h-1.392v-.992h1.392v-2.352h1.216v2.352h2.096v.992h-2.096v5.024c0 .832.304 1.184 1.216 1.184h.816v.992Zm2.048 0v-8.192h1.136v1.888c.304-1.264 1.184-1.936 2.672-1.936h.192v1.136h-.24c-1.552 0-2.544 1.024-2.544 3.088v4.016h-1.216Zm8.32 2.784h-1.184l1.04-2.784-3.056-8.192h1.2l2.496 6.96 2.4-6.96h1.2l-3.024 8.192-1.072 2.784ZM9 790.25a6 6 0 1 0 0-12 6 6 0 0 0 0 12Z" />
</svg>