<svg xmlns="http://www.w3.org/2000/svg" width="880" height="325" fill="none">
  <path fill="#212529" d="M0 0h880v325H0z" />
  <path fill="#01FFD8" d="M674 91h177v177H674z" />
  <path fill="#fff"
    d="M678.356 298v-11.43h-3.852v-1.17h9.108v1.17h-3.852V298h-1.404Zm7.209 0v-13.14h1.368v5.346c.522-.954 1.476-1.638 3.006-1.638 2.07 0 3.384 1.404 3.384 3.618V298h-1.368v-5.616c0-1.566-.702-2.628-2.358-2.628-1.512 0-2.664.918-2.664 2.826V298h-1.368Zm14.2.216c-2.394 0-4.068-1.53-4.068-4.014v-1.476c0-2.502 1.422-4.158 4.014-4.158 2.628 0 3.906 1.746 3.906 4.014v1.368h-6.606v.324c0 1.602.828 2.898 2.754 2.898 1.386 0 2.232-.738 2.538-1.782h1.224c-.306 1.656-1.836 2.826-3.762 2.826Zm-2.754-5.598v.288h5.328v-.432c0-1.638-.828-2.862-2.628-2.862-1.98 0-2.7 1.314-2.7 3.006Zm24.02-.108c0 3.294-1.962 5.742-5.778 5.742s-5.778-2.448-5.778-5.742v-1.62c0-3.294 1.962-5.742 5.778-5.742s5.778 2.448 5.778 5.742v1.62Zm-3.096-1.782c0-1.8-.882-3.006-2.682-3.006-1.8 0-2.682 1.206-2.682 3.006v1.944c0 1.8.882 3.006 2.682 3.006 1.8 0 2.682-1.206 2.682-3.006v-1.944ZM723.16 298v-12.6h9.126v2.574h-6.03v2.358h5.49v2.574h-5.49v2.52h6.048V298h-9.144Zm13.845-5.328c0 1.782.756 3.024 2.628 3.024 1.656 0 2.448-1.08 2.502-2.34h2.862c-.036 2.664-1.998 4.896-5.328 4.896-3.888 0-5.76-2.448-5.76-5.724v-1.656c0-3.276 1.872-5.724 5.76-5.724 3.33 0 5.292 2.232 5.328 4.896h-2.862c-.054-1.26-.846-2.34-2.502-2.34-1.872 0-2.628 1.242-2.628 3.024v1.944Zm10.044-7.272h5.508c3.474 0 5.256 2.106 5.256 5.004v2.592c0 2.898-1.782 5.004-5.256 5.004h-5.508v-12.6Zm7.668 7.614v-2.628c0-1.602-.846-2.448-2.718-2.448h-1.872v7.524h1.872c1.872 0 2.718-.846 2.718-2.448Zm21.016-4.23-2.52 9.216h-1.296l-2.448-7.776-2.448 7.776h-1.296l-2.52-9.216h1.296l1.944 7.578 2.376-7.578h1.296l2.376 7.578 1.944-7.578h1.296Zm5.561 9.432c-2.628 0-4.122-1.8-4.122-4.068v-1.512c0-2.268 1.512-4.068 4.122-4.068s4.104 1.8 4.104 4.068v1.512c0 2.268-1.494 4.068-4.104 4.068Zm2.79-5.562c0-1.746-.972-2.988-2.79-2.988s-2.79 1.242-2.79 2.988v1.476c0 1.746.972 2.988 2.79 2.988s2.79-1.242 2.79-2.988v-1.476Zm11.364-3.87V298h-1.296v-1.566c-.432 1.044-1.476 1.782-3.078 1.782-2.016 0-3.294-1.404-3.294-3.618v-5.814h1.368v5.616c0 1.566.684 2.664 2.268 2.664 1.512 0 2.664-.954 2.664-2.862v-5.418h1.368Zm3.006 9.216v-13.14h1.368V298h-1.368Zm10.819-13.14h1.368V298h-1.296v-1.44c-.396.846-1.584 1.656-3.114 1.656-2.43 0-3.852-1.818-3.852-4.122v-1.404c0-2.394 1.494-4.122 3.816-4.122 1.44 0 2.52.648 3.078 1.584v-5.292Zm-5.526 7.884v1.296c0 1.692.81 3.06 2.718 3.06 1.818 0 2.808-1.386 2.808-3.168v-1.188c0-1.89-1.296-3.06-2.826-3.06-1.746 0-2.7 1.368-2.7 3.06Zm13.85 5.256v-9.216h1.368V298h-1.368Zm-.18-11.646c0-.486.342-.828.864-.828s.864.342.864.828c0 .486-.342.828-.864.828s-.864-.342-.864-.828ZM821.972 298v-9.216h1.296v1.566c.432-1.044 1.476-1.782 3.078-1.782 2.07 0 3.384 1.404 3.384 3.618V298h-1.368v-5.616c0-1.566-.702-2.628-2.358-2.628-1.512 0-2.664.918-2.664 2.826V298h-1.368Zm11.23 0v-8.1h-1.35v-1.116h1.35v-1.224c0-1.782.792-2.7 2.664-2.7h1.296v1.116h-1.188c-.972 0-1.404.45-1.404 1.476v1.332h2.268v1.116h-2.268v8.1h-1.368Zm5.778 0v-13.14h1.368V298h-1.368Zm11.927 0h-1.314v-1.152c-.396.648-1.638 1.368-3.168 1.368-2.178 0-3.492-1.224-3.492-2.898 0-1.782 1.458-2.88 3.654-2.88 1.458 0 2.43.612 2.952 1.152v-1.71c0-1.26-.828-2.232-2.304-2.232-1.17 0-1.926.54-2.304 1.386h-1.26c.468-1.53 1.764-2.466 3.582-2.466 2.286 0 3.654 1.494 3.654 3.312V298Zm-4.194-.666c1.44 0 2.826-.846 2.826-2.034 0-1.152-1.368-1.962-2.754-1.962-1.53 0-2.556.72-2.556 1.998s1.062 1.998 2.484 1.998Zm11.292.666h-1.152c-1.764 0-2.502-.882-2.502-2.448V289.9h-1.566v-1.116h1.566v-2.646h1.368v2.646h2.358v1.116h-2.358v5.652c0 .936.342 1.332 1.368 1.332h.918V298Zm5.835.216c-2.394 0-4.068-1.53-4.068-4.014v-1.476c0-2.502 1.422-4.158 4.014-4.158 2.628 0 3.906 1.746 3.906 4.014v1.368h-6.606v.324c0 1.602.828 2.898 2.754 2.898 1.386 0 2.232-.738 2.538-1.782h1.224c-.306 1.656-1.836 2.826-3.762 2.826Zm-2.754-5.598v.288h5.328v-.432c0-1.638-.828-2.862-2.628-2.862-1.98 0-2.7 1.314-2.7 3.006ZM679.868 320h-1.152c-1.764 0-2.502-.882-2.502-2.448V311.9h-1.566v-1.116h1.566v-2.646h1.368v2.646h2.358v1.116h-2.358v5.652c0 .936.342 1.332 1.368 1.332h.918V320Zm2.305 0v-13.14h1.368v5.346c.522-.954 1.476-1.638 3.006-1.638 2.07 0 3.384 1.404 3.384 3.618V320h-1.368v-5.616c0-1.566-.702-2.628-2.358-2.628-1.512 0-2.664.918-2.664 2.826V320h-1.368Zm14.2.216c-2.394 0-4.068-1.53-4.068-4.014v-1.476c0-2.502 1.422-4.158 4.014-4.158 2.628 0 3.906 1.746 3.906 4.014v1.368h-6.606v.324c0 1.602.828 2.898 2.754 2.898 1.386 0 2.232-.738 2.538-1.782h1.224c-.306 1.656-1.836 2.826-3.762 2.826Zm-2.754-5.598v.288h5.328v-.432c0-1.638-.828-2.862-2.628-2.862-1.98 0-2.7 1.314-2.7 3.006ZM706.677 320v-9.216h1.296v1.566c.432-1.044 1.476-1.782 3.078-1.782 2.07 0 3.384 1.404 3.384 3.618V320h-1.368v-5.616c0-1.566-.702-2.628-2.358-2.628-1.512 0-2.664.918-2.664 2.826V320h-1.368Zm18.16-9.216V320h-1.296v-1.566c-.432 1.044-1.476 1.782-3.078 1.782-2.016 0-3.294-1.404-3.294-3.618v-5.814h1.368v5.616c0 1.566.684 2.664 2.268 2.664 1.512 0 2.664-.954 2.664-2.862v-5.418h1.368Zm2.916 9.216v-9.216h1.296v1.566c.432-1.044 1.44-1.782 3.042-1.782 1.368 0 2.412.684 2.934 1.8.63-1.08 1.746-1.8 3.348-1.8 2.016 0 3.312 1.44 3.312 3.618V320h-1.368v-5.616c0-1.566-.774-2.628-2.286-2.628s-2.628.918-2.628 2.826V320h-1.368v-5.616c0-1.566-.774-2.628-2.286-2.628s-2.628.918-2.628 2.826V320h-1.368Zm16.752-13.14h1.368v5.292c.558-.936 1.638-1.584 3.078-1.584 2.322 0 3.816 1.728 3.816 4.122v1.404c0 2.304-1.422 4.122-3.852 4.122-1.53 0-2.718-.81-3.114-1.656V320h-1.296v-13.14Zm6.894 9.18v-1.296c0-1.692-.954-3.06-2.7-3.06-1.53 0-2.826 1.17-2.826 3.06v1.188c0 1.782.99 3.168 2.808 3.168 1.908 0 2.718-1.368 2.718-3.06Zm7.447 4.176c-2.394 0-4.068-1.53-4.068-4.014v-1.476c0-2.502 1.422-4.158 4.014-4.158 2.628 0 3.906 1.746 3.906 4.014v1.368h-6.606v.324c0 1.602.828 2.898 2.754 2.898 1.386 0 2.232-.738 2.538-1.782h1.224c-.306 1.656-1.836 2.826-3.762 2.826Zm-2.754-5.598v.288h5.328v-.432c0-1.638-.828-2.862-2.628-2.862-1.98 0-2.7 1.314-2.7 3.006Zm9.102 5.382v-9.216h1.278v2.124c.342-1.422 1.332-2.178 3.006-2.178h.216v1.278h-.27c-1.746 0-2.862 1.152-2.862 3.474V320h-1.368Zm10.301-13.14h1.368v5.292c.558-.936 1.638-1.584 3.078-1.584 2.322 0 3.816 1.728 3.816 4.122v1.404c0 2.304-1.422 4.122-3.852 4.122-1.53 0-2.718-.81-3.114-1.656V320h-1.296v-13.14Zm6.894 9.18v-1.296c0-1.692-.954-3.06-2.7-3.06-1.53 0-2.826 1.17-2.826 3.06v1.188c0 1.782.99 3.168 2.808 3.168 1.908 0 2.718-1.368 2.718-3.06Zm6.316 7.092h-1.332l1.17-3.132-3.438-9.216h1.35l2.808 7.83 2.7-7.83h1.35L789.911 320l-1.206 3.132Zm14.607-2.88c-2.088 0-3.87-1.224-4.266-3.348h1.314c.36 1.296 1.368 2.214 2.952 2.214 1.944 0 3.186-1.314 3.186-3.096 0-1.692-1.224-3.06-3.006-3.06-1.314 0-2.268.666-2.862 1.476h-1.314l1.188-7.038h6.282v1.134h-5.184l-.792 4.518c.576-.702 1.71-1.224 2.952-1.224 2.376 0 4.086 1.818 4.086 4.158 0 2.412-1.908 4.266-4.536 4.266Zm11.323 0c-2.772 0-4.41-1.8-4.41-4.194v-4.716c0-2.394 1.638-4.194 4.41-4.194 2.772 0 4.41 1.8 4.41 4.194v4.716c0 2.394-1.638 4.194-4.41 4.194Zm0-1.134c1.962 0 3.024-1.224 3.024-3.006v-4.824c0-1.782-1.062-3.006-3.024-3.006s-3.024 1.224-3.024 3.006v4.824c0 1.782 1.062 3.006 3.024 3.006Zm9.484-4.896c-1.674 0-2.718-1.116-2.718-2.7v-1.566c0-1.584 1.044-2.7 2.718-2.7s2.718 1.116 2.718 2.7v1.566c0 1.584-1.044 2.7-2.718 2.7Zm0-.864c1.098 0 1.692-.72 1.692-1.764v-1.71c0-1.044-.594-1.764-1.692-1.764-1.098 0-1.692.72-1.692 1.764v1.71c0 1.044.594 1.764 1.692 1.764Zm7.74 6.786c-1.674 0-2.718-1.116-2.718-2.7v-1.566c0-1.584 1.044-2.7 2.718-2.7s2.718 1.116 2.718 2.7v1.566c0 1.584-1.044 2.7-2.718 2.7Zm0-.864c1.098 0 1.692-.72 1.692-1.764v-1.71c0-1.044-.594-1.764-1.692-1.764-1.098 0-1.692.72-1.692 1.764v1.71c0 1.044.594 1.764 1.692 1.764Zm-7.65.72 6.534-12.6h1.044l-6.534 12.6h-1.044Z" />
  <path fill="#212529"
    d="M705.824 122.056c0 3.296-2.272 5.792-5.504 6.624v3.84h-5.28v-3.808c-3.552-.768-5.504-3.168-5.504-6.624v-.48h5.184v.512c0 1.792 1.12 2.688 2.976 2.688 1.664 0 2.816-.832 2.816-2.368 0-1.024-.544-1.696-1.664-2.08l-3.872-1.312c-3.36-1.152-5.28-2.496-5.28-5.984 0-3.456 2.208-5.472 5.216-6.176v-3.808h5.28v3.84c3.04.768 5.056 2.912 5.056 6.176v.544h-5.12v-.448c0-1.472-.928-2.304-2.624-2.304-1.536 0-2.528.608-2.528 1.888 0 1.024.704 1.376 1.664 1.728l3.648 1.28c2.976 1.056 5.536 2.464 5.536 6.272ZM718.166 129h-5.44v-16.928l-4.832 1.568v-4.8l5.76-2.24h4.512V129Zm10.237-22.4h4.928l-6.208 13.888h4.608v-4.512h4.991v4.512h2.721v4.096h-2.721V129h-4.991v-4.416h-9.888v-3.936l6.56-14.048Zm19.107 7.296h-5.216v-.672c0-4.64 3.04-7.072 7.84-7.072 4.832 0 8.064 2.688 8.064 6.848 0 3.456-2.336 5.568-4.768 7.616l-4.64 3.936h9.184V129H742.07v-4.128l8.832-8.448c1.152-1.12 1.856-2.112 1.856-3.392 0-1.568-1.088-2.432-2.592-2.432-1.824 0-2.656 1.088-2.656 2.88v.416Zm25.643 4.896 5.92-12.192h5.056V129h-5.28v-11.84l-3.52 6.848h-4.352l-3.488-6.848V129h-5.28v-22.4h5.056l5.888 12.192Z" />
  <path fill="#595C5F" d="M0 88h177v177H0z" />
  <path fill="#EDB83A"
    d="M0 147h118v118H0zm27.824-25.944c0 3.296-2.272 5.792-5.504 6.624v3.84h-5.28v-3.808c-3.552-.768-5.504-3.168-5.504-6.624v-.48h5.184v.512c0 1.792 1.12 2.688 2.976 2.688 1.664 0 2.816-.832 2.816-2.368 0-1.024-.544-1.696-1.664-2.08l-3.872-1.312c-3.36-1.152-5.28-2.496-5.28-5.984 0-3.456 2.208-5.472 5.216-6.176v-3.808h5.28v3.84c3.04.768 5.056 2.912 5.056 6.176v.544h-5.12v-.448c0-1.472-.928-2.304-2.624-2.304-1.536 0-2.528.608-2.528 1.888 0 1.024.704 1.376 1.664 1.728l3.648 1.28c2.976 1.056 5.536 2.464 5.536 6.272ZM39.878 128h-5.92l5.856-8.032c-.736.48-1.44.672-2.592.672-3.712 0-7.008-2.72-7.008-7.552 0-4.704 3.456-7.936 8.608-7.936 5.344 0 8.8 3.104 8.8 7.968 0 2.816-.896 5.088-1.984 6.624L39.878 128Zm-.992-11.488c2.112 0 3.36-1.408 3.36-3.488 0-2.016-1.088-3.552-3.36-3.552-2.016 0-3.36 1.408-3.36 3.52 0 2.048 1.184 3.52 3.36 3.52ZM56.184 105.6h4.928l-6.208 13.888h4.608v-4.512h4.992v4.512h2.72v4.096h-2.72V128h-4.992v-4.416h-9.888v-3.936l6.56-14.048Zm25.188 12.192 5.92-12.192h5.055V128h-5.28v-11.84l-3.52 6.848h-4.352l-3.487-6.848V128h-5.28v-22.4h5.056l5.888 12.192ZM15.966 282.4 12.978 295h-1.35l-3.33-11.07L4.968 295h-1.35L.63 282.4h1.35l2.376 10.728 3.24-10.728H9l3.24 10.728 2.376-10.728h1.35Zm2.086 12.6v-13.14h1.368v5.346c.522-.954 1.476-1.638 3.006-1.638 2.07 0 3.384 1.404 3.384 3.618V295h-1.368v-5.616c0-1.566-.702-2.628-2.358-2.628-1.512 0-2.664.918-2.664 2.826V295h-1.368Zm18.142 0H34.88v-1.152c-.396.648-1.638 1.368-3.168 1.368-2.178 0-3.492-1.224-3.492-2.898 0-1.782 1.458-2.88 3.654-2.88 1.458 0 2.43.612 2.952 1.152v-1.71c0-1.26-.828-2.232-2.304-2.232-1.17 0-1.926.54-2.304 1.386h-1.26c.468-1.53 1.764-2.466 3.582-2.466 2.286 0 3.654 1.494 3.654 3.312V295ZM32 294.334c1.44 0 2.826-.846 2.826-2.034 0-1.152-1.368-1.962-2.754-1.962-1.53 0-2.556.72-2.556 1.998s1.062 1.998 2.484 1.998Zm11.292.666H42.14c-1.764 0-2.502-.882-2.502-2.448V286.9h-1.566v-1.116h1.566v-2.646h1.368v2.646h2.358v1.116h-2.358v5.652c0 .936.342 1.332 1.368 1.332h.918V295Zm10.67 0H52.81c-1.764 0-2.502-.882-2.502-2.448V286.9h-1.566v-1.116h1.566v-2.646h1.368v2.646h2.358v1.116h-2.358v5.652c0 .936.342 1.332 1.368 1.332h.918V295Zm2.305 0v-13.14h1.368v5.346c.522-.954 1.476-1.638 3.006-1.638 2.07 0 3.384 1.404 3.384 3.618V295h-1.368v-5.616c0-1.566-.702-2.628-2.358-2.628-1.512 0-2.664.918-2.664 2.826V295h-1.368Zm14.2.216c-2.394 0-4.068-1.53-4.068-4.014v-1.476c0-2.502 1.422-4.158 4.014-4.158 2.628 0 3.906 1.746 3.906 4.014v1.368h-6.606v.324c0 1.602.828 2.898 2.754 2.898 1.386 0 2.232-.738 2.538-1.782h1.224c-.306 1.656-1.836 2.826-3.762 2.826Zm-2.754-5.598v.288h5.328v-.432c0-1.638-.828-2.862-2.628-2.862-1.98 0-2.7 1.314-2.7 3.006Zm20.402.756V282.4h3.096v7.902c0 2.952-2.07 4.95-5.364 4.95s-5.364-1.998-5.364-4.95V282.4h3.096v7.974c0 1.512.9 2.304 2.268 2.304 1.368 0 2.268-.792 2.268-2.304ZM96.729 295h-3.096v-12.6h3.096v6.012l3.762-6.012h3.564l-4.158 6.246 4.284 6.354h-3.636l-3.816-6.12V295Zm13.186 0v-9.216h1.278v2.124c.342-1.422 1.332-2.178 3.006-2.178h.216v1.278h-.27c-1.746 0-2.862 1.152-2.862 3.474V295h-1.368Zm9.823.216c-2.394 0-4.068-1.53-4.068-4.014v-1.476c0-2.502 1.422-4.158 4.014-4.158 2.628 0 3.906 1.746 3.906 4.014v1.368h-6.606v.324c0 1.602.828 2.898 2.754 2.898 1.386 0 2.232-.738 2.538-1.782h1.224c-.306 1.656-1.836 2.826-3.762 2.826Zm-2.754-5.598v.288h5.328v-.432c0-1.638-.828-2.862-2.628-2.862-1.98 0-2.7 1.314-2.7 3.006Zm10.471 8.514h-1.368v-12.348h1.296v1.44c.396-.846 1.584-1.656 3.114-1.656 2.466 0 3.852 1.782 3.852 4.122v1.404c0 2.394-1.494 4.122-3.816 4.122-1.44 0-2.52-.648-3.078-1.584v4.5Zm5.526-7.092v-1.296c0-1.692-.81-3.06-2.718-3.06-1.818 0-2.808 1.386-2.808 3.168v1.188c0 1.89 1.296 3.06 2.826 3.06 1.746 0 2.7-1.368 2.7-3.06Zm7.501 4.176c-2.628 0-4.122-1.8-4.122-4.068v-1.512c0-2.268 1.512-4.068 4.122-4.068s4.104 1.8 4.104 4.068v1.512c0 2.268-1.494 4.068-4.104 4.068Zm2.79-5.562c0-1.746-.972-2.988-2.79-2.988s-2.79 1.242-2.79 2.988v1.476c0 1.746.972 2.988 2.79 2.988s2.79-1.242 2.79-2.988v-1.476Zm3.786 5.346v-9.216h1.278v2.124c.342-1.422 1.332-2.178 3.006-2.178h.216v1.278h-.27c-1.746 0-2.862 1.152-2.862 3.474V295h-1.368Zm10.755 0h-1.152c-1.764 0-2.502-.882-2.502-2.448V286.9h-1.566v-1.116h1.566v-2.646h1.368v2.646h2.358v1.116h-2.358v5.652c0 .936.342 1.332 1.368 1.332h.918V295Zm5.835.216c-2.394 0-4.068-1.53-4.068-4.014v-1.476c0-2.502 1.422-4.158 4.014-4.158 2.628 0 3.906 1.746 3.906 4.014v1.368h-6.606v.324c0 1.602.828 2.898 2.754 2.898 1.386 0 2.232-.738 2.538-1.782h1.224c-.306 1.656-1.836 2.826-3.762 2.826Zm-2.754-5.598v.288h5.328v-.432c0-1.638-.828-2.862-2.628-2.862-1.98 0-2.7 1.314-2.7 3.006Zm15.547-7.758h1.368V295h-1.296v-1.44c-.396.846-1.584 1.656-3.114 1.656-2.43 0-3.852-1.818-3.852-4.122v-1.404c0-2.394 1.494-4.122 3.816-4.122 1.44 0 2.52.648 3.078 1.584v-5.292Zm-5.526 7.884v1.296c0 1.692.81 3.06 2.718 3.06 1.818 0 2.808-1.386 2.808-3.168v-1.188c0-1.89-1.296-3.06-2.826-3.06-1.746 0-2.7 1.368-2.7 3.06ZM5.868 317H4.716c-1.764 0-2.502-.882-2.502-2.448V308.9H.648v-1.116h1.566v-2.646h1.368v2.646H5.94v1.116H3.582v5.652c0 .936.342 1.332 1.368 1.332h.918V317Zm5.889.216c-2.628 0-4.122-1.8-4.122-4.068v-1.512c0-2.268 1.512-4.068 4.122-4.068s4.104 1.8 4.104 4.068v1.512c0 2.268-1.494 4.068-4.104 4.068Zm2.79-5.562c0-1.746-.972-2.988-2.79-2.988s-2.79 1.242-2.79 2.988v1.476c0 1.746.972 2.988 2.79 2.988s2.79-1.242 2.79-2.988v-1.476ZM26.698 317h-1.152c-1.764 0-2.502-.882-2.502-2.448V308.9h-1.566v-1.116h1.566v-2.646h1.368v2.646h2.358v1.116h-2.358v5.652c0 .936.342 1.332 1.368 1.332h.918V317Zm2.305 0v-13.14h1.368v5.346c.522-.954 1.476-1.638 3.006-1.638 2.07 0 3.384 1.404 3.384 3.618V317h-1.368v-5.616c0-1.566-.702-2.628-2.358-2.628-1.512 0-2.664.918-2.664 2.826V317h-1.368Zm14.2.216c-2.394 0-4.068-1.53-4.068-4.014v-1.476c0-2.502 1.422-4.158 4.014-4.158 2.628 0 3.906 1.746 3.906 4.014v1.368h-6.606v.324c0 1.602.828 2.898 2.754 2.898 1.386 0 2.232-.738 2.538-1.782h1.224c-.306 1.656-1.836 2.826-3.762 2.826Zm-2.754-5.598v.288h5.328v-.432c0-1.638-.828-2.862-2.628-2.862-1.98 0-2.7 1.314-2.7 3.006Zm17.972 5.634c-2.988 0-4.842-1.89-4.842-4.5V304.4h1.404v8.478c0 1.962 1.314 3.204 3.438 3.204s3.438-1.242 3.438-3.204V304.4h1.404v8.352c0 2.61-1.854 4.5-4.842 4.5Zm8.01-.252v-12.6h1.314l6.93 10.35V304.4h1.368V317h-1.314l-6.93-10.35V317h-1.368Zm12.885 0v-12.6h8.154v1.17h-6.75v4.644h6.228v1.17H80.72V317h-1.404Zm15.213.252c-3.474 0-5.238-2.358-5.238-5.49v-2.124c0-3.132 1.764-5.49 5.238-5.49 2.916 0 4.77 2.034 4.968 4.41h-1.35c-.216-1.728-1.368-3.24-3.636-3.24-2.574 0-3.816 1.8-3.816 4.266v2.232c0 2.466 1.242 4.266 3.816 4.266 2.268 0 3.42-1.512 3.636-3.24h1.35c-.198 2.376-2.052 4.41-4.968 4.41Zm12.621 0c-3.474 0-5.238-2.358-5.238-5.49v-2.124c0-3.132 1.764-5.49 5.238-5.49 2.916 0 4.77 2.034 4.968 4.41h-1.35c-.216-1.728-1.368-3.24-3.636-3.24-2.574 0-3.816 1.8-3.816 4.266v2.232c0 2.466 1.242 4.266 3.816 4.266 2.268 0 3.42-1.512 3.636-3.24h1.35c-.198 2.376-2.052 4.41-4.968 4.41Zm12.621 0c-3.474 0-5.238-2.358-5.238-5.49v-2.124c0-3.132 1.764-5.49 5.238-5.49 2.916 0 4.77 2.034 4.968 4.41h-1.35c-.216-1.728-1.368-3.24-3.636-3.24-2.574 0-3.816 1.8-3.816 4.266v2.232c0 2.466 1.242 4.266 3.816 4.266 2.268 0 3.42-1.512 3.636-3.24h1.35c-.198 2.376-2.052 4.41-4.968 4.41Z" />
  <path fill="#595C5F" d="M466 89h177v177H466z" />
  <path fill="#01FFD8"
    d="M466 173h92.75v92.75H466zm28.824-50.944c0 3.296-2.272 5.792-5.504 6.624v3.84h-5.28v-3.808c-3.552-.768-5.504-3.168-5.504-6.624v-.48h5.184v.512c0 1.792 1.12 2.688 2.976 2.688 1.664 0 2.816-.832 2.816-2.368 0-1.024-.544-1.696-1.664-2.08l-3.872-1.312c-3.36-1.152-5.28-2.496-5.28-5.984 0-3.456 2.208-5.472 5.216-6.176v-3.808h5.28v3.84c3.04.768 5.056 2.912 5.056 6.176v.544h-5.12v-.448c0-1.472-.928-2.304-2.624-2.304-1.536 0-2.528.608-2.528 1.888 0 1.024.704 1.376 1.664 1.728l3.648 1.28c2.976 1.056 5.536 2.464 5.536 6.272Zm18.134-15.456v3.872L503.966 129h-5.568l8.928-17.952h-9.792V106.6h15.424Zm7.195 0h4.928l-6.208 13.888h4.608v-4.512h4.991v4.512h2.721v4.096h-2.721V129h-4.991v-4.416h-9.888v-3.936l6.56-14.048Zm25.187 12.192 5.92-12.192h5.056V129h-5.28v-11.84l-3.52 6.848h-4.352l-3.488-6.848V129h-5.28v-22.4h5.056l5.888 12.192Z" />
  <path fill="#fff"
    d="M478.07 292.13c0 2.52-2.232 4.122-5.148 4.122-3.024 0-5.058-1.44-5.058-3.978v-.342h2.97v.252c0 1.062.684 1.71 2.106 1.71 1.278 0 2.124-.522 2.124-1.494 0-.558-.234-.954-.864-1.116l-3.15-.792c-1.962-.486-2.97-1.35-2.97-3.402 0-2.502 1.782-3.942 4.77-3.942 2.826 0 4.626 1.53 4.626 3.834v.306h-2.862v-.216c0-.846-.468-1.548-1.764-1.548-1.08 0-1.764.378-1.764 1.278 0 .594.306.9.81 1.026l3.348.9c2.016.54 2.826 1.656 2.826 3.402Zm9.132-5.562 1.728 5.724 1.062-5.724h2.934l-2.43 9.432h-2.736l-1.854-5.706-1.854 5.706h-2.736l-2.43-9.432h2.934l1.062 5.724 1.728-5.724h2.592Zm10.06 9.432h-3.024v-9.432h3.024V296Zm-3.186-11.844c0-.954.666-1.566 1.674-1.566s1.674.612 1.674 1.566c0 .954-.666 1.566-1.674 1.566s-1.674-.612-1.674-1.566Zm6.028-.126h3.024v2.538h1.818v2.34h-1.818v4.014c0 .432.216.63.684.63h.99V296h-1.998c-1.8 0-2.7-1.062-2.7-2.79v-4.302h-1.224v-2.34h1.224v-2.538ZM514.189 296h-7.848v-2.106l4.14-5.076h-3.978v-2.25h7.56v2.106l-4.158 5.076h4.284V296Zm10.109-3.762h-5.868v.216c0 .936.558 1.638 1.62 1.638.846 0 1.332-.432 1.53-.9h2.664c-.324 1.746-2.052 3.024-4.194 3.024-2.718 0-4.536-1.566-4.536-4.266v-1.17c0-2.628 1.602-4.428 4.464-4.428s4.32 1.908 4.32 4.158v1.728Zm-5.868-1.962v.198h3.096v-.342c0-.936-.468-1.638-1.53-1.638-1.098 0-1.566.702-1.566 1.782Zm13.291-3.78v2.97h-.396c-1.404 0-2.16.576-2.16 2.214V296h-3.024v-9.432h2.862v1.656c.288-1.404 1.224-1.728 2.574-1.728h.144Zm4.582 9.504h-3.024v-13.14h3.024V296Zm11.068 0h-2.898v-.792c-.54.63-1.566 1.008-2.79 1.008-2.16 0-3.456-1.242-3.456-2.97 0-1.944 1.458-2.934 3.654-2.934 1.134 0 1.998.324 2.466.702v-1.098c0-.702-.468-1.224-1.314-1.224-.63 0-1.116.216-1.368.684h-2.754c.396-1.89 1.998-3.024 4.212-3.024 2.682 0 4.248 1.458 4.248 3.78V296Zm-4.68-1.71c.918 0 1.656-.468 1.656-1.098 0-.63-.684-1.098-1.62-1.098-1.026 0-1.674.36-1.674 1.098 0 .72.684 1.098 1.638 1.098Zm9.782 1.71h-3.024v-9.432h2.898v1.098c.486-.864 1.422-1.314 2.628-1.314 2.16 0 3.312 1.386 3.312 3.564V296h-3.024v-5.616c0-.864-.45-1.404-1.368-1.404-.774 0-1.422.36-1.422 1.44V296Zm16.964-13.14V296h-2.88v-.99c-.288.522-1.296 1.206-2.592 1.206-2.664 0-3.996-2.016-3.996-4.158v-1.548c0-2.142 1.332-4.158 3.996-4.158 1.134 0 2.034.522 2.448 1.008v-4.5h3.024Zm-3.024 9.09v-1.332c0-1.188-.792-1.782-1.692-1.782-1.188 0-1.728.72-1.728 1.836v1.224c0 1.08.54 1.836 1.728 1.836.9 0 1.692-.594 1.692-1.782Zm21.164-5.166-2.52 9.216h-1.296l-2.448-7.776-2.448 7.776h-1.296l-2.52-9.216h1.296l1.944 7.578 2.376-7.578h1.296l2.376 7.578 1.944-7.578h1.296Zm5.561 9.432c-2.628 0-4.122-1.8-4.122-4.068v-1.512c0-2.268 1.512-4.068 4.122-4.068s4.104 1.8 4.104 4.068v1.512c0 2.268-1.494 4.068-4.104 4.068Zm2.79-5.562c0-1.746-.972-2.988-2.79-2.988s-2.79 1.242-2.79 2.988v1.476c0 1.746.972 2.988 2.79 2.988s2.79-1.242 2.79-2.988v-1.476Zm11.364-3.87V296h-1.296v-1.566c-.432 1.044-1.476 1.782-3.078 1.782-2.016 0-3.294-1.404-3.294-3.618v-5.814h1.368v5.616c0 1.566.684 2.664 2.268 2.664 1.512 0 2.664-.954 2.664-2.862v-5.418h1.368Zm3.006 9.216v-13.14h1.368V296h-1.368Zm10.819-13.14h1.368V296h-1.296v-1.44c-.396.846-1.584 1.656-3.114 1.656-2.43 0-3.852-1.818-3.852-4.122v-1.404c0-2.394 1.494-4.122 3.816-4.122 1.44 0 2.52.648 3.078 1.584v-5.292Zm-5.526 7.884v1.296c0 1.692.81 3.06 2.718 3.06 1.818 0 2.808-1.386 2.808-3.168v-1.188c0-1.89-1.296-3.06-2.826-3.06-1.746 0-2.7 1.368-2.7 3.06ZM468.458 318v-9.216h1.278v2.124c.342-1.422 1.332-2.178 3.006-2.178h.216v1.278h-.27c-1.746 0-2.862 1.152-2.862 3.474V318h-1.368Zm9.823.216c-2.394 0-4.068-1.53-4.068-4.014v-1.476c0-2.502 1.422-4.158 4.014-4.158 2.628 0 3.906 1.746 3.906 4.014v1.368h-6.606v.324c0 1.602.828 2.898 2.754 2.898 1.386 0 2.232-.738 2.538-1.782h1.224c-.306 1.656-1.836 2.826-3.762 2.826Zm-2.754-5.598v.288h5.328v-.432c0-1.638-.828-2.862-2.628-2.862-1.98 0-2.7 1.314-2.7 3.006Zm10.471 8.514h-1.368v-12.348h1.296v1.44c.396-.846 1.584-1.656 3.114-1.656 2.466 0 3.852 1.782 3.852 4.122v1.404c0 2.394-1.494 4.122-3.816 4.122-1.44 0-2.52-.648-3.078-1.584v4.5Zm5.526-7.092v-1.296c0-1.692-.81-3.06-2.718-3.06-1.818 0-2.808 1.386-2.808 3.168v1.188c0 1.89 1.296 3.06 2.826 3.06 1.746 0 2.7-1.368 2.7-3.06Zm7.501 4.176c-2.628 0-4.122-1.8-4.122-4.068v-1.512c0-2.268 1.512-4.068 4.122-4.068s4.104 1.8 4.104 4.068v1.512c0 2.268-1.494 4.068-4.104 4.068Zm2.79-5.562c0-1.746-.972-2.988-2.79-2.988s-2.79 1.242-2.79 2.988v1.476c0 1.746.972 2.988 2.79 2.988s2.79-1.242 2.79-2.988v-1.476Zm3.786 5.346v-9.216h1.278v2.124c.342-1.422 1.332-2.178 3.006-2.178h.216v1.278h-.27c-1.746 0-2.862 1.152-2.862 3.474V318h-1.368Zm10.755 0h-1.152c-1.764 0-2.502-.882-2.502-2.448V309.9h-1.566v-1.116h1.566v-2.646h1.368v2.646h2.358v1.116h-2.358v5.652c0 .936.342 1.332 1.368 1.332h.918V318Zm6.062 0v-1.08l5.328-5.598c.882-.918 1.404-1.746 1.404-2.718 0-1.404-1.098-2.322-2.574-2.322-1.602 0-2.646.918-2.646 2.538v.288h-1.314v-.342c0-2.304 1.62-3.618 3.96-3.618 2.286 0 3.96 1.35 3.96 3.456 0 1.53-1.062 2.7-2.07 3.726l-4.446 4.536h6.534V318h-8.136Zm12.666 0v-11.178l-2.628 1.242v-1.26l2.862-1.404h1.152V318h-1.386Zm6.923-5.778c-1.674 0-2.718-1.116-2.718-2.7v-1.566c0-1.584 1.044-2.7 2.718-2.7s2.718 1.116 2.718 2.7v1.566c0 1.584-1.044 2.7-2.718 2.7Zm0-.864c1.098 0 1.692-.72 1.692-1.764v-1.71c0-1.044-.594-1.764-1.692-1.764-1.098 0-1.692.72-1.692 1.764v1.71c0 1.044.594 1.764 1.692 1.764Zm7.74 6.786c-1.674 0-2.718-1.116-2.718-2.7v-1.566c0-1.584 1.044-2.7 2.718-2.7s2.718 1.116 2.718 2.7v1.566c0 1.584-1.044 2.7-2.718 2.7Zm0-.864c1.098 0 1.692-.72 1.692-1.764v-1.71c0-1.044-.594-1.764-1.692-1.764-1.098 0-1.692.72-1.692 1.764v1.71c0 1.044.594 1.764 1.692 1.764Zm-7.65.72 6.534-12.6h1.044l-6.534 12.6h-1.044Zm16.873 0v-13.14h1.368V318h-1.368Zm7.993.216c-2.394 0-4.068-1.53-4.068-4.014v-1.476c0-2.502 1.422-4.158 4.014-4.158 2.628 0 3.906 1.746 3.906 4.014v1.368h-6.606v.324c0 1.602.828 2.898 2.754 2.898 1.386 0 2.232-.738 2.538-1.782h1.224c-.306 1.656-1.836 2.826-3.762 2.826Zm-2.754-5.598v.288h5.328v-.432c0-1.638-.828-2.862-2.628-2.862-1.98 0-2.7 1.314-2.7 3.006Zm12.487 5.598c-2.232 0-3.816-1.116-3.816-2.898v-.09h1.242v.054c0 1.152 1.08 1.908 2.592 1.908 1.422 0 2.448-.558 2.448-1.746 0-.648-.414-1.116-1.152-1.278l-2.736-.63c-1.368-.306-2.16-1.134-2.16-2.34 0-1.728 1.458-2.628 3.492-2.628 1.926 0 3.42 1.17 3.42 2.88v.09h-1.242v-.054c0-1.134-.828-1.89-2.196-1.89-1.278 0-2.214.54-2.214 1.566 0 .63.306 1.026.972 1.188l2.826.666c1.422.342 2.268 1.044 2.268 2.376 0 1.638-1.584 2.826-3.744 2.826Zm9.474 0c-2.232 0-3.816-1.116-3.816-2.898v-.09h1.242v.054c0 1.152 1.08 1.908 2.592 1.908 1.422 0 2.448-.558 2.448-1.746 0-.648-.414-1.116-1.152-1.278l-2.736-.63c-1.368-.306-2.16-1.134-2.16-2.34 0-1.728 1.458-2.628 3.492-2.628 1.926 0 3.42 1.17 3.42 2.88v.09h-1.242v-.054c0-1.134-.828-1.89-2.196-1.89-1.278 0-2.214.54-2.214 1.566 0 .63.306 1.026.972 1.188l2.826.666c1.422.342 2.268 1.044 2.268 2.376 0 1.638-1.584 2.826-3.744 2.826Z" />
  <path fill="#595C5F" d="M258 90h177v177H258z" />
  <path fill="#01FFD8"
    d="M258 189h78.125v78.125H258zm28.824-65.944c0 3.296-2.272 5.792-5.504 6.624v3.84h-5.28v-3.808c-3.552-.768-5.504-3.168-5.504-6.624v-.48h5.184v.512c0 1.792 1.12 2.688 2.976 2.688 1.664 0 2.816-.832 2.816-2.368 0-1.024-.544-1.696-1.664-2.08l-3.872-1.312c-3.36-1.152-5.28-2.496-5.28-5.984 0-3.456 2.208-5.472 5.216-6.176v-3.808h5.28v3.84c3.04.768 5.056 2.912 5.056 6.176v.544h-5.12v-.448c0-1.472-.928-2.304-2.624-2.304-1.536 0-2.528.608-2.528 1.888 0 1.024.704 1.376 1.664 1.728l3.648 1.28c2.976 1.056 5.536 2.464 5.536 6.272Zm10.39-15.456h5.824l-5.856 8.032c.736-.48 1.504-.672 2.656-.672 3.712 0 7.008 2.72 7.008 7.552 0 4.512-3.744 7.936-8.608 7.936-5.408 0-8.8-3.296-8.8-7.968 0-2.592.896-4.928 2.208-6.816l5.568-8.064Zm.96 11.488c-2.112 0-3.36 1.408-3.36 3.488 0 2.016 1.088 3.552 3.36 3.552 2.016 0 3.36-1.6 3.36-3.52 0-2.048-1.184-3.52-3.36-3.52Zm16.743-4.192h-5.216v-.672c0-4.64 3.04-7.072 7.84-7.072 4.832 0 8.064 2.688 8.064 6.848 0 3.456-2.336 5.568-4.768 7.616l-4.64 3.936h9.184V130h-15.904v-4.128l8.832-8.448c1.152-1.12 1.856-2.112 1.856-3.392 0-1.568-1.088-2.432-2.592-2.432-1.824 0-2.656 1.088-2.656 2.88v.416Zm25.642 4.896 5.92-12.192h5.056V130h-5.28v-11.84l-3.52 6.848h-4.352l-3.488-6.848V130h-5.28v-22.4h5.056l5.888 12.192Z" />
  <path fill="#fff"
    d="M269.916 288.756h-2.952c-.054-1.062-.882-2.052-2.394-2.052-1.728 0-2.61.954-2.61 2.952v1.98c0 1.818.72 3.132 2.61 3.132 1.458 0 2.376-.828 2.43-1.998h-2.448v-2.502h5.49v1.782c0 3.15-2.304 5.202-5.544 5.202-3.744 0-5.634-2.52-5.634-5.688V289.8c0-3.51 2.196-5.652 5.616-5.652 3.366 0 5.364 1.926 5.436 4.608Zm10.454 4.482h-5.868v.216c0 .936.558 1.638 1.62 1.638.846 0 1.332-.432 1.53-.9h2.664c-.324 1.746-2.052 3.024-4.194 3.024-2.718 0-4.536-1.566-4.536-4.266v-1.17c0-2.628 1.602-4.428 4.464-4.428s4.32 1.908 4.32 4.158v1.728Zm-5.868-1.962v.198h3.096v-.342c0-.936-.468-1.638-1.53-1.638-1.098 0-1.566.702-1.566 1.782Zm13.291-3.78v2.97h-.396c-1.404 0-2.16.576-2.16 2.214V297h-3.024v-9.432h2.862v1.656c.288-1.404 1.224-1.728 2.574-1.728h.144Zm11.603 2.484c-.738 0-1.386.396-1.386 1.44V297h-3.024v-5.616c0-.864-.396-1.404-1.314-1.404-.774 0-1.386.396-1.386 1.44V297h-3.024v-9.432h2.898v1.098c.36-.81 1.332-1.314 2.538-1.314 1.278 0 2.196.486 2.736 1.332.702-.828 1.602-1.332 2.988-1.332 2.16 0 3.312 1.386 3.312 3.564V297h-3.024v-5.616c0-.864-.396-1.404-1.314-1.404Zm15.227 7.02h-2.898v-.792c-.54.63-1.566 1.008-2.79 1.008-2.16 0-3.456-1.242-3.456-2.97 0-1.944 1.458-2.934 3.654-2.934 1.134 0 1.998.324 2.466.702v-1.098c0-.702-.468-1.224-1.314-1.224-.63 0-1.116.216-1.368.684h-2.754c.396-1.89 1.998-3.024 4.212-3.024 2.682 0 4.248 1.458 4.248 3.78V297Zm-4.68-1.71c.918 0 1.656-.468 1.656-1.098 0-.63-.684-1.098-1.62-1.098-1.026 0-1.674.36-1.674 1.098 0 .72.684 1.098 1.638 1.098Zm9.782 1.71h-3.024v-9.432h2.898v1.098c.486-.864 1.422-1.314 2.628-1.314 2.16 0 3.312 1.386 3.312 3.564V297h-3.024v-5.616c0-.864-.45-1.404-1.368-1.404-.774 0-1.422.36-1.422 1.44V297Zm12.144 3.132h-2.952l.918-3.132-3.384-9.432h3.006l1.8 6.372 1.512-6.372h3.024l-3.924 12.564Zm21.079-12.348-2.52 9.216h-1.296l-2.448-7.776-2.448 7.776h-1.296l-2.52-9.216h1.296l1.944 7.578 2.376-7.578h1.296l2.376 7.578 1.944-7.578h1.296Zm5.561 9.432c-2.628 0-4.122-1.8-4.122-4.068v-1.512c0-2.268 1.512-4.068 4.122-4.068s4.104 1.8 4.104 4.068v1.512c0 2.268-1.494 4.068-4.104 4.068Zm2.79-5.562c0-1.746-.972-2.988-2.79-2.988s-2.79 1.242-2.79 2.988v1.476c0 1.746.972 2.988 2.79 2.988s2.79-1.242 2.79-2.988v-1.476Zm11.364-3.87V297h-1.296v-1.566c-.432 1.044-1.476 1.782-3.078 1.782-2.016 0-3.294-1.404-3.294-3.618v-5.814h1.368v5.616c0 1.566.684 2.664 2.268 2.664 1.512 0 2.664-.954 2.664-2.862v-5.418h1.368Zm3.006 9.216v-13.14h1.368V297h-1.368Zm10.819-13.14h1.368V297h-1.296v-1.44c-.396.846-1.584 1.656-3.114 1.656-2.43 0-3.852-1.818-3.852-4.122v-1.404c0-2.394 1.494-4.122 3.816-4.122 1.44 0 2.52.648 3.078 1.584v-5.292Zm-5.526 7.884v1.296c0 1.692.81 3.06 2.718 3.06 1.818 0 2.808-1.386 2.808-3.168v-1.188c0-1.89-1.296-3.06-2.826-3.06-1.746 0-2.7 1.368-2.7 3.06ZM259.458 319v-9.216h1.278v2.124c.342-1.422 1.332-2.178 3.006-2.178h.216v1.278h-.27c-1.746 0-2.862 1.152-2.862 3.474V319h-1.368Zm9.823.216c-2.394 0-4.068-1.53-4.068-4.014v-1.476c0-2.502 1.422-4.158 4.014-4.158 2.628 0 3.906 1.746 3.906 4.014v1.368h-6.606v.324c0 1.602.828 2.898 2.754 2.898 1.386 0 2.232-.738 2.538-1.782h1.224c-.306 1.656-1.836 2.826-3.762 2.826Zm-2.754-5.598v.288h5.328v-.432c0-1.638-.828-2.862-2.628-2.862-1.98 0-2.7 1.314-2.7 3.006Zm10.471 8.514h-1.368v-12.348h1.296v1.44c.396-.846 1.584-1.656 3.114-1.656 2.466 0 3.852 1.782 3.852 4.122v1.404c0 2.394-1.494 4.122-3.816 4.122-1.44 0-2.52-.648-3.078-1.584v4.5Zm5.526-7.092v-1.296c0-1.692-.81-3.06-2.718-3.06-1.818 0-2.808 1.386-2.808 3.168v1.188c0 1.89 1.296 3.06 2.826 3.06 1.746 0 2.7-1.368 2.7-3.06Zm7.501 4.176c-2.628 0-4.122-1.8-4.122-4.068v-1.512c0-2.268 1.512-4.068 4.122-4.068s4.104 1.8 4.104 4.068v1.512c0 2.268-1.494 4.068-4.104 4.068Zm2.79-5.562c0-1.746-.972-2.988-2.79-2.988s-2.79 1.242-2.79 2.988v1.476c0 1.746.972 2.988 2.79 2.988s2.79-1.242 2.79-2.988v-1.476Zm3.786 5.346v-9.216h1.278v2.124c.342-1.422 1.332-2.178 3.006-2.178h.216v1.278h-.27c-1.746 0-2.862 1.152-2.862 3.474V319h-1.368Zm10.755 0h-1.152c-1.764 0-2.502-.882-2.502-2.448V310.9h-1.566v-1.116h1.566v-2.646h1.368v2.646h2.358v1.116h-2.358v5.652c0 .936.342 1.332 1.368 1.332h.918V319Zm7.988 0v-11.178l-2.628 1.242v-1.26l2.862-1.404h1.152V319h-1.386Zm3.737 1.89 5.076-15.39h1.278l-5.076 15.39h-1.278Zm8.452-13.374V306.4h7.344v1.134l-4.032 4.41h.486c2.322 0 3.96 1.404 3.96 3.546 0 2.196-1.98 3.762-4.374 3.762-2.16 0-4.158-1.296-4.248-3.69h1.278c.126 1.602 1.314 2.574 2.988 2.574 1.818 0 3.006-1.116 3.006-2.61 0-1.53-1.134-2.556-2.916-2.556h-1.71v-1.08l3.888-4.374h-5.67ZM342.007 319v-13.14h1.368V319h-1.368Zm7.993.216c-2.394 0-4.068-1.53-4.068-4.014v-1.476c0-2.502 1.422-4.158 4.014-4.158 2.628 0 3.906 1.746 3.906 4.014v1.368h-6.606v.324c0 1.602.828 2.898 2.754 2.898 1.386 0 2.232-.738 2.538-1.782h1.224c-.306 1.656-1.836 2.826-3.762 2.826Zm-2.754-5.598v.288h5.328v-.432c0-1.638-.828-2.862-2.628-2.862-1.98 0-2.7 1.314-2.7 3.006Zm12.487 5.598c-2.232 0-3.816-1.116-3.816-2.898v-.09h1.242v.054c0 1.152 1.08 1.908 2.592 1.908 1.422 0 2.448-.558 2.448-1.746 0-.648-.414-1.116-1.152-1.278l-2.736-.63c-1.368-.306-2.16-1.134-2.16-2.34 0-1.728 1.458-2.628 3.492-2.628 1.926 0 3.42 1.17 3.42 2.88v.09h-1.242v-.054c0-1.134-.828-1.89-2.196-1.89-1.278 0-2.214.54-2.214 1.566 0 .63.306 1.026.972 1.188l2.826.666c1.422.342 2.268 1.044 2.268 2.376 0 1.638-1.584 2.826-3.744 2.826Zm9.474 0c-2.232 0-3.816-1.116-3.816-2.898v-.09h1.242v.054c0 1.152 1.08 1.908 2.592 1.908 1.422 0 2.448-.558 2.448-1.746 0-.648-.414-1.116-1.152-1.278l-2.736-.63c-1.368-.306-2.16-1.134-2.16-2.34 0-1.728 1.458-2.628 3.492-2.628 1.926 0 3.42 1.17 3.42 2.88v.09h-1.242v-.054c0-1.134-.828-1.89-2.196-1.89-1.278 0-2.214.54-2.214 1.566 0 .63.306 1.026.972 1.188l2.826.666c1.422.342 2.268 1.044 2.268 2.376 0 1.638-1.584 2.826-3.744 2.826Z" />
  <path fill="#fff"
    d="M308.848 50.42h-1.036c-.042-1.372-1.05-2.506-2.814-2.506-2.016 0-2.926 1.386-2.926 3.346v1.624c0 1.932.868 3.43 2.996 3.43 1.75 0 2.828-.994 2.828-2.884v-.252h-2.744v-.91h3.794v1.036c0 2.254-1.386 3.892-3.892 3.892-2.73 0-4.074-1.946-4.074-4.34v-1.554c0-2.506 1.414-4.298 4.004-4.298 2.394 0 3.822 1.484 3.864 3.416Zm8.064 6.58h-1.022v-.896c-.308.504-1.274 1.064-2.464 1.064-1.694 0-2.716-.952-2.716-2.254 0-1.386 1.134-2.24 2.842-2.24 1.134 0 1.89.476 2.296.896v-1.33c0-.98-.644-1.736-1.792-1.736-.91 0-1.498.42-1.792 1.078h-.98c.364-1.19 1.372-1.918 2.786-1.918 1.778 0 2.842 1.162 2.842 2.576V57Zm-3.262-.518c1.12 0 2.198-.658 2.198-1.582 0-.896-1.064-1.526-2.142-1.526-1.19 0-1.988.56-1.988 1.554s.826 1.554 1.932 1.554Zm6.513 2.954h-1.064v-9.604h1.008v1.12c.308-.658 1.232-1.288 2.422-1.288 1.918 0 2.996 1.386 2.996 3.206v1.092c0 1.862-1.162 3.206-2.968 3.206-1.12 0-1.96-.504-2.394-1.232v3.5Zm4.298-5.516v-1.008c0-1.316-.63-2.38-2.114-2.38-1.414 0-2.184 1.078-2.184 2.464v.924c0 1.47 1.008 2.38 2.198 2.38 1.358 0 2.1-1.064 2.1-2.38Zm15.112-4.088L337.613 57h-1.008l-1.904-6.048L332.797 57h-1.008l-1.96-7.168h1.008l1.512 5.894 1.848-5.894h1.008l1.848 5.894 1.512-5.894h1.008ZM341.222 57v-7.168h1.064V57h-1.064Zm-.14-9.058c0-.378.266-.644.672-.644s.672.266.672.644-.266.644-.672.644-.672-.266-.672-.644ZM348.054 57h-.896c-1.372 0-1.946-.686-1.946-1.904V50.7h-1.218v-.868h1.218v-2.058h1.064v2.058h1.834v.868h-1.834v4.396c0 .728.266 1.036 1.064 1.036h.714V57Zm1.793 0V46.78h1.064v4.158c.406-.742 1.148-1.274 2.338-1.274 1.61 0 2.632 1.092 2.632 2.814V57h-1.064v-4.368c0-1.218-.546-2.044-1.834-2.044-1.176 0-2.072.714-2.072 2.198V57h-1.064Zm14.737 0h-.896c-1.372 0-1.946-.686-1.946-1.904V50.7h-1.218v-.868h1.218v-2.058h1.064v2.058h1.834v.868h-1.834v4.396c0 .728.266 1.036 1.064 1.036h.714V57Zm1.792 0V46.78h1.064v4.158c.406-.742 1.148-1.274 2.338-1.274 1.61 0 2.632 1.092 2.632 2.814V57h-1.064v-4.368c0-1.218-.546-2.044-1.834-2.044-1.176 0-2.072.714-2.072 2.198V57h-1.064Zm11.045.168c-1.862 0-3.164-1.19-3.164-3.122v-1.148c0-1.946 1.106-3.234 3.122-3.234 2.044 0 3.038 1.358 3.038 3.122v1.064h-5.138v.252c0 1.246.644 2.254 2.142 2.254 1.078 0 1.736-.574 1.974-1.386h.952c-.238 1.288-1.428 2.198-2.926 2.198Zm-2.142-4.354v.224h4.144v-.336c0-1.274-.644-2.226-2.044-2.226-1.54 0-2.1 1.022-2.1 2.338Zm-66.067 17.07c0 2.366-1.372 4.312-4.116 4.312-2.744 0-4.116-1.946-4.116-4.312v-1.568c0-2.366 1.372-4.312 4.116-4.312 2.744 0 4.116 1.946 4.116 4.312v1.568Zm-4.116 3.402c2.086 0 3.024-1.498 3.024-3.346v-1.68c0-1.848-.938-3.346-3.024-3.346-2.086 0-3.024 1.498-3.024 3.346v1.68c0 1.848.938 3.346 3.024 3.346Zm6.364.714v-9.8h6.468v.91h-5.376v3.472h4.97v.91h-4.97v3.598h5.39V74h-6.482Zm12.201.196c-2.702 0-4.074-1.834-4.074-4.27v-1.652c0-2.436 1.372-4.27 4.074-4.27 2.268 0 3.71 1.582 3.864 3.43h-1.05c-.168-1.344-1.064-2.52-2.828-2.52-2.002 0-2.968 1.4-2.968 3.318v1.736c0 1.918.966 3.318 2.968 3.318 1.764 0 2.66-1.176 2.828-2.52h1.05c-.154 1.848-1.596 3.43-3.864 3.43Zm6.037-9.996h3.682c2.492 0 3.864 1.582 3.864 3.766v2.268c0 2.184-1.372 3.766-3.864 3.766h-3.682v-9.8Zm3.528 8.904c1.932 0 2.94-1.162 2.94-2.87v-2.268c0-1.708-1.008-2.87-2.94-2.87h-2.45v8.008h2.45Zm9.701.896v-6.3h-1.05v-.868h1.05v-.952c0-1.386.616-2.1 2.072-2.1h1.008v.868h-.924c-.756 0-1.092.35-1.092 1.148v1.036h1.764v.868h-1.764V74h-1.064Zm4.494 0v-7.168h1.064V74h-1.064Zm-.14-9.058c0-.378.266-.644.672-.644s.672.266.672.644-.266.644-.672.644-.672-.266-.672-.644Zm6.421 11.662c-1.428 0-2.716-.658-3.108-1.834h1.05c.392.686 1.078.994 2.058.994 1.246 0 2.1-.7 2.1-1.792v-1.624c-.224.658-1.204 1.358-2.408 1.358-1.862 0-2.926-1.33-2.926-2.926v-1.19c0-1.624 1.05-2.926 2.94-2.926 1.344 0 2.142.728 2.436 1.358v-1.19h1.022V74c0 1.484-1.344 2.604-3.164 2.604Zm-.098-3.766c1.218 0 2.198-.812 2.198-2.17v-.924c0-1.218-.924-2.212-2.156-2.212-1.4 0-2.128.77-2.128 2.142v1.022c0 1.344.714 2.142 2.086 2.142Zm11.42-6.006V74h-1.008v-1.218c-.336.812-1.148 1.386-2.394 1.386-1.568 0-2.562-1.092-2.562-2.814v-4.522h1.064V71.2c0 1.218.532 2.072 1.764 2.072 1.176 0 2.072-.742 2.072-2.226v-4.214h1.064ZM367.292 74v-7.168h.994v1.652c.266-1.106 1.036-1.694 2.338-1.694h.168v.994h-.21c-1.358 0-2.226.896-2.226 2.702V74h-1.064Zm7.64.168c-1.862 0-3.164-1.19-3.164-3.122v-1.148c0-1.946 1.106-3.234 3.122-3.234 2.044 0 3.038 1.358 3.038 3.122v1.064h-5.138v.252c0 1.246.644 2.254 2.142 2.254 1.078 0 1.736-.574 1.974-1.386h.952c-.238 1.288-1.428 2.198-2.926 2.198Zm-2.142-4.354v.224h4.144v-.336c0-1.274-.644-2.226-2.044-2.226-1.54 0-2.1 1.022-2.1 2.338Zm9.712 4.354c-1.736 0-2.968-.868-2.968-2.254v-.07h.966v.042c0 .896.84 1.484 2.016 1.484 1.106 0 1.904-.434 1.904-1.358 0-.504-.322-.868-.896-.994l-2.128-.49c-1.064-.238-1.68-.882-1.68-1.82 0-1.344 1.134-2.044 2.716-2.044 1.498 0 2.66.91 2.66 2.24v.07h-.966v-.042c0-.882-.644-1.47-1.708-1.47-.994 0-1.722.42-1.722 1.218 0 .49.238.798.756.924l2.198.518c1.106.266 1.764.812 1.764 1.848 0 1.274-1.232 2.198-2.912 2.198Zm10.631 40.935a.5.5 0 0 0 .414.573l4.443.715a.5.5 0 0 0 .159-.987l-3.949-.636.635-3.949a.5.5 0 1 0-.987-.159l-.715 4.443Zm-.344-46.463c9.211 4.299 13.885 12.529 14.003 21.327.117 8.808-4.335 18.216-13.458 24.81l.586.811c9.367-6.771 13.994-16.476 13.872-25.634-.123-9.166-5.007-17.752-14.58-22.22l-.423.906Z"
    opacity=".25" />
  <path fill="#EDB83A"
    d="M286.56 20.192c-2.336 0-3.664-1.6-3.664-3.616v-1.344c0-2.016 1.344-3.616 3.664-3.616 2.32 0 3.648 1.6 3.648 3.616v1.344c0 2.016-1.328 3.616-3.648 3.616Zm2.48-4.944c0-1.552-.864-2.656-2.48-2.656s-2.48 1.104-2.48 2.656v1.312c0 1.552.864 2.656 2.48 2.656s2.48-1.104 2.48-2.656v-1.312ZM292.405 20v-8.192h1.136v1.888c.304-1.264 1.184-1.936 2.672-1.936h.192v1.136h-.24c-1.552 0-2.544 1.024-2.544 3.088V20h-1.216Zm5.721 0v-8.192h1.216V20h-1.216Zm-.16-10.352c0-.432.304-.736.768-.736s.768.304.768.736-.304.736-.768.736-.768-.304-.768-.736Zm7.345 13.328c-1.632 0-3.104-.752-3.552-2.096h1.2c.448.784 1.232 1.136 2.352 1.136 1.424 0 2.4-.8 2.4-2.048v-1.856c-.256.752-1.376 1.552-2.752 1.552-2.128 0-3.344-1.52-3.344-3.344v-1.36c0-1.856 1.2-3.344 3.36-3.344 1.536 0 2.448.832 2.784 1.552v-1.36h1.168V20c0 1.696-1.536 2.976-3.616 2.976Zm-.112-4.304c1.392 0 2.512-.928 2.512-2.48v-1.056c0-1.392-1.056-2.528-2.464-2.528-1.6 0-2.432.88-2.432 2.448v1.168c0 1.536.816 2.448 2.384 2.448ZM311.595 20v-8.192h1.216V20h-1.216Zm-.16-10.352c0-.432.304-.736.768-.736s.768.304.768.736-.304.736-.768.736-.768-.304-.768-.736ZM315.484 20v-8.192h1.152V13.2c.384-.928 1.312-1.584 2.736-1.584 1.84 0 3.008 1.248 3.008 3.216V20h-1.216v-4.992c0-1.392-.624-2.336-2.096-2.336-1.344 0-2.368.816-2.368 2.512V20h-1.216Zm16.126 0h-1.168v-1.024c-.352.576-1.456 1.216-2.816 1.216-1.936 0-3.104-1.088-3.104-2.576 0-1.584 1.296-2.56 3.248-2.56 1.296 0 2.16.544 2.624 1.024v-1.52c0-1.12-.736-1.984-2.048-1.984-1.04 0-1.712.48-2.048 1.232h-1.12c.416-1.36 1.568-2.192 3.184-2.192 2.032 0 3.248 1.328 3.248 2.944V20Zm-3.728-.592c1.28 0 2.512-.752 2.512-1.808 0-1.024-1.216-1.744-2.448-1.744-1.36 0-2.272.64-2.272 1.776 0 1.136.944 1.776 2.208 1.776Zm6.307.592V8.32h1.216V20h-1.216Zm7.404 0v-8.192h1.136v1.888c.304-1.264 1.184-1.936 2.672-1.936h.192v1.136h-.24c-1.552 0-2.544 1.024-2.544 3.088V20h-1.216Zm8.732.192c-2.128 0-3.616-1.36-3.616-3.568v-1.312c0-2.224 1.264-3.696 3.568-3.696 2.336 0 3.472 1.552 3.472 3.568V16.4h-5.872v.288c0 1.424.736 2.576 2.448 2.576 1.232 0 1.984-.656 2.256-1.584h1.088c-.272 1.472-1.632 2.512-3.344 2.512Zm-2.448-4.976v.256h4.736v-.384c0-1.456-.736-2.544-2.336-2.544-1.76 0-2.4 1.168-2.4 2.672Zm9.307 7.568h-1.216V11.808h1.152v1.28c.352-.752 1.408-1.472 2.768-1.472 2.192 0 3.424 1.584 3.424 3.664v1.248c0 2.128-1.328 3.664-3.392 3.664-1.28 0-2.24-.576-2.736-1.408v4Zm4.912-6.304v-1.152c0-1.504-.72-2.72-2.416-2.72-1.616 0-2.496 1.232-2.496 2.816v1.056c0 1.68 1.152 2.72 2.512 2.72 1.552 0 2.4-1.216 2.4-2.72Zm6.667 3.712c-2.336 0-3.664-1.6-3.664-3.616v-1.344c0-2.016 1.344-3.616 3.664-3.616 2.32 0 3.648 1.6 3.648 3.616v1.344c0 2.016-1.328 3.616-3.648 3.616Zm2.48-4.944c0-1.552-.864-2.656-2.48-2.656s-2.48 1.104-2.48 2.656v1.312c0 1.552.864 2.656 2.48 2.656s2.48-1.104 2.48-2.656v-1.312ZM374.609 20v-8.192h1.136v1.888c.304-1.264 1.184-1.936 2.672-1.936h.192v1.136h-.24c-1.552 0-2.544 1.024-2.544 3.088V20h-1.216Zm9.56 0h-1.024c-1.568 0-2.224-.784-2.224-2.176V12.8h-1.392v-.992h1.392V9.456h1.216v2.352h2.096v.992h-2.096v5.024c0 .832.304 1.184 1.216 1.184h.816V20Zm5.565-11.68h1.216v4.704c.496-.832 1.456-1.408 2.736-1.408 2.064 0 3.392 1.536 3.392 3.664v1.248c0 2.048-1.264 3.664-3.424 3.664-1.36 0-2.416-.72-2.768-1.472V20h-1.152V8.32Zm6.128 8.16v-1.152c0-1.504-.848-2.72-2.4-2.72-1.36 0-2.512 1.04-2.512 2.72v1.056c0 1.584.88 2.816 2.496 2.816 1.696 0 2.416-1.216 2.416-2.72Zm5.613 6.304h-1.184l1.04-2.784-3.056-8.192h1.2l2.496 6.96 2.4-6.96h1.2L402.547 20l-1.072 2.784ZM414.716 20h-1.024c-1.568 0-2.224-.784-2.224-2.176V12.8h-1.392v-.992h1.392V9.456h1.216v2.352h2.096v.992h-2.096v5.024c0 .832.304 1.184 1.216 1.184h.816V20Zm2.049 0V8.32h1.216v4.752c.464-.848 1.312-1.456 2.672-1.456 1.84 0 3.008 1.248 3.008 3.216V20h-1.216v-4.992c0-1.392-.624-2.336-2.096-2.336-1.344 0-2.368.816-2.368 2.512V20h-1.216Zm12.622.192c-2.128 0-3.616-1.36-3.616-3.568v-1.312c0-2.224 1.264-3.696 3.568-3.696 2.336 0 3.472 1.552 3.472 3.568V16.4h-5.872v.288c0 1.424.736 2.576 2.448 2.576 1.232 0 1.984-.656 2.256-1.584h1.088c-.272 1.472-1.632 2.512-3.344 2.512Zm-2.448-4.976v.256h4.736v-.384c0-1.456-.736-2.544-2.336-2.544-1.76 0-2.4 1.168-2.4 2.672Zm15.975 5.008c-2.656 0-4.304-1.68-4.304-4V8.8h1.248v7.536c0 1.744 1.168 2.848 3.056 2.848 1.888 0 3.056-1.104 3.056-2.848V8.8h1.248v7.424c0 2.32-1.648 4-4.304 4Zm7.12-.224V8.8h1.248v5.456l5.056-5.456h1.504l-5.2 5.536L458.018 20h-1.504l-5.232-5.568V20h-1.248Z" />
  <path fill="#01FFD8"
    d="M502.56 20.192c-2.336 0-3.664-1.6-3.664-3.616v-1.344c0-2.016 1.344-3.616 3.664-3.616 2.32 0 3.648 1.6 3.648 3.616v1.344c0 2.016-1.328 3.616-3.648 3.616Zm2.48-4.944c0-1.552-.864-2.656-2.48-2.656s-2.48 1.104-2.48 2.656v1.312c0 1.552.864 2.656 2.48 2.656s2.48-1.104 2.48-2.656v-1.312Zm10.101-3.44V20h-1.152v-1.392c-.384.928-1.312 1.584-2.736 1.584-1.792 0-2.928-1.248-2.928-3.216v-5.168h1.216V16.8c0 1.392.608 2.368 2.016 2.368 1.344 0 2.368-.848 2.368-2.544v-4.816h1.216ZM517.734 20v-8.192h1.136v1.888c.304-1.264 1.184-1.936 2.672-1.936h.192v1.136h-.24c-1.552 0-2.544 1.024-2.544 3.088V20h-1.216Zm12.388.192c-2.272 0-3.632-1.536-3.632-3.6v-1.376c0-2.064 1.36-3.6 3.632-3.6 2.064 0 3.408 1.344 3.504 3.072h-1.088c-.16-1.104-.848-2.112-2.4-2.112-1.68 0-2.464 1.088-2.464 2.624v1.408c0 1.536.784 2.624 2.464 2.624 1.552 0 2.24-1.008 2.4-2.112h1.088c-.096 1.728-1.44 3.072-3.504 3.072ZM542.563 20h-1.168v-1.024c-.352.576-1.456 1.216-2.816 1.216-1.936 0-3.104-1.088-3.104-2.576 0-1.584 1.296-2.56 3.248-2.56 1.296 0 2.16.544 2.624 1.024v-1.52c0-1.12-.736-1.984-2.048-1.984-1.04 0-1.712.48-2.048 1.232h-1.12c.416-1.36 1.568-2.192 3.184-2.192 2.032 0 3.248 1.328 3.248 2.944V20Zm-3.728-.592c1.28 0 2.512-.752 2.512-1.808 0-1.024-1.216-1.744-2.448-1.744-1.36 0-2.272.64-2.272 1.776 0 1.136.944 1.776 2.208 1.776Zm6.307.592V8.32h1.216V20h-1.216Zm7.12.192c-2.272 0-3.632-1.536-3.632-3.6v-1.376c0-2.064 1.36-3.6 3.632-3.6 2.064 0 3.408 1.344 3.504 3.072h-1.088c-.16-1.104-.848-2.112-2.4-2.112-1.68 0-2.464 1.088-2.464 2.624v1.408c0 1.536.784 2.624 2.464 2.624 1.552 0 2.24-1.008 2.4-2.112h1.088c-.096 1.728-1.44 3.072-3.504 3.072Zm12.458-8.384V20h-1.152v-1.392c-.384.928-1.312 1.584-2.736 1.584-1.793 0-2.928-1.248-2.928-3.216v-5.168h1.216V16.8c0 1.392.608 2.368 2.016 2.368 1.344 0 2.368-.848 2.368-2.544v-4.816h1.216ZM567.392 20V8.32h1.216V20h-1.216ZM578 20h-1.168v-1.024c-.352.576-1.456 1.216-2.816 1.216-1.936 0-3.104-1.088-3.104-2.576 0-1.584 1.296-2.56 3.248-2.56 1.296 0 2.16.544 2.624 1.024v-1.52c0-1.12-.736-1.984-2.048-1.984-1.04 0-1.712.48-2.048 1.232h-1.12c.416-1.36 1.568-2.192 3.184-2.192 2.032 0 3.248 1.328 3.248 2.944V20Zm-3.728-.592c1.28 0 2.512-.752 2.512-1.808 0-1.024-1.216-1.744-2.448-1.744-1.36 0-2.272.64-2.272 1.776 0 1.136.944 1.776 2.208 1.776ZM584.31 20h-1.024c-1.568 0-2.224-.784-2.224-2.176V12.8h-1.392v-.992h1.392V9.456h1.216v2.352h2.096v.992h-2.096v5.024c0 .832.304 1.184 1.216 1.184h.816V20Zm2.129 0v-8.192h1.216V20h-1.216Zm-.16-10.352c0-.432.304-.736.768-.736s.768.304.768.736-.304.736-.768.736-.768-.304-.768-.736Zm7.312 10.544c-2.336 0-3.664-1.6-3.664-3.616v-1.344c0-2.016 1.344-3.616 3.664-3.616 2.32 0 3.648 1.6 3.648 3.616v1.344c0 2.016-1.328 3.616-3.648 3.616Zm2.48-4.944c0-1.552-.864-2.656-2.48-2.656s-2.48 1.104-2.48 2.656v1.312c0 1.552.864 2.656 2.48 2.656s2.48-1.104 2.48-2.656v-1.312ZM599.437 20v-8.192h1.152V13.2c.384-.928 1.312-1.584 2.736-1.584 1.84 0 3.008 1.248 3.008 3.216V20h-1.216v-4.992c0-1.392-.624-2.336-2.096-2.336-1.344 0-2.368.816-2.368 2.512V20h-1.216Zm12.414.192c-1.984 0-3.392-.992-3.392-2.576v-.08h1.104v.048c0 1.024.96 1.696 2.304 1.696 1.264 0 2.176-.496 2.176-1.552 0-.576-.368-.992-1.024-1.136l-2.432-.56c-1.216-.272-1.92-1.008-1.92-2.08 0-1.536 1.296-2.336 3.104-2.336 1.712 0 3.04 1.04 3.04 2.56v.08h-1.104v-.048c0-1.008-.736-1.68-1.952-1.68-1.136 0-1.968.48-1.968 1.392 0 .56.272.912.864 1.056l2.512.592c1.264.304 2.016.928 2.016 2.112 0 1.456-1.408 2.512-3.328 2.512Z" />
  <path fill="#EDB83A" d="M270 22a6 6 0 1 0 0-12 6 6 0 0 0 0 12Z" />
  <path fill="#01FFD8" d="M484 21a6 6 0 1 0 0-12 6 6 0 0 0 0 12Z" />
  <path fill="#424649" fill-rule="evenodd"
    d="M202 141.181h26.836l-11.36 8.875 1.523 1.205 12.368-9.689c.844-.668.844-1.726 0-2.394l-12.368-9.689-1.523 1.205 11.216 8.744H202v1.743Z"
    clip-rule="evenodd" />
</svg>