<?xml version="1.0" encoding="UTF-8"?>
<svg id="Layer_2" data-name="Layer 2" xmlns="http://www.w3.org/2000/svg" xmlns:xlink="http://www.w3.org/1999/xlink" viewBox="0 0 333.03 178.3">
  <defs>
    <style>
      .cls-1 {
        fill: #fff;
      }

      .cls-2 {
        fill: #939598;
      }

      .cls-3 {
        stroke: #f9beab;
      }

      .cls-3, .cls-4 {
        stroke-width: .75px;
      }

      .cls-3, .cls-4, .cls-5, .cls-6, .cls-7 {
        stroke-miterlimit: 10;
      }

      .cls-3, .cls-4, .cls-5, .cls-6, .cls-7, .cls-8 {
        fill: none;
      }

      .cls-4 {
        stroke: #f5967f;
      }

      .cls-5 {
        stroke: #939598;
      }

      .cls-9 {
        fill: #fde7de;
      }

      .cls-6 {
        stroke: #fbd2c4;
        stroke-width: .67px;
      }

      .cls-7 {
        stroke: #fde7de;
        stroke-width: 4px;
      }

      .cls-10 {
        fill: #777677;
      }

      .cls-11 {
        clip-path: url(#clippath);
      }

      .cls-12 {
        fill: #ea1d2d;
      }

      .cls-13 {
        fill: #ef6652;
      }
    </style>
    <clipPath id="clippath">
      <rect class="cls-8" x=".03" y="84.82" width="333" height="61.95"/>
    </clipPath>
  </defs>
  <g id="Layer_2-2" data-name="Layer 2">
    <g>
      <path class="cls-12" d="M265.77,26.41h.18c7.29,0,13.2-5.9,13.2-13.2s-5.9-13.2-13.2-13.2h-.35c-7.29,0-13.2,5.9-13.2,13.2,0,7.3,6.26,13.2,13.38,13.2Z"/>
      <path class="cls-12" d="M179.97,40.48c7.29,0,13.2-5.9,13.2-13.2s-5.9-13.2-13.2-13.2-13.2,5.9-13.2,13.2,5.91,13.2,13.2,13.2Z"/>
      <path class="cls-13" d="M222.7,49.16c5.9,0,10.6-4.69,10.6-10.6s-4.69-10.6-10.6-10.6-10.6,4.69-10.6,10.6,4.86,10.6,10.6,10.6Z"/>
      <path class="cls-13" d="M217.14,50.21c-.57,0-1.14,.04-1.7,.1l-.35,1.1-3.59,.58-.48,3.55-3.02-2.51c-.38,.26-.75,.53-1.1,.82,.18,.35,9.55,30.73,9.55,30.73h18.58V51.94c-2.08-1.04-4.52-1.74-7.12-1.74h-10.77Z"/>
      <path class="cls-12" d="M291.61,57.71l1.73-5.91-5.07-3.32,6.24-2.88c-.82-7.38-7.06-13.11-14.67-13.11h0s-28.14,0-28.14,0c-.38,0-.75,.03-1.12,.06l-.11,3.17-3.8-1.04-1.84,4.46-3.15-2.66c-2.89,2.69-4.74,6.51-4.74,10.77v37.34h10.94v-27.79h2.78v27.61h30.4v-27.61h2.78v27.61h10.76s0-23.9,0-23.9l-3-2.8Z"/>
      <path class="cls-12" d="M204.06,52.48l-6.32-1.59,2.09-3.88c-3.54-3.19-8.27-5.14-13.42-5.14h-13.38c-7.55,0-14.22,4.24-17.63,10.56l1.68,2.96-2.32,2.6,1.18,4.62-4.34,1.17-6.35,20.81h11.47l4.69-15.46h3.13l-4.69,15.46h40.13l-4.69-15.46h2.78l4.69,15.46h11.29s-9.45-31.12-9.96-32.11Z"/>
      <polygon class="cls-12" points="148.15 64.71 148.14 64.71 148.15 64.72 148.15 64.71"/>
    </g>
    <g id="line_bar" data-name="line bar">
      <g class="cls-11">
        <g>
          <line class="cls-6" x1="339.47" y1="176.96" x2="-1.34" y2="400.13"/>
          <line class="cls-6" x1="339.14" y1="169.24" x2="-1.67" y2="392.41"/>
          <line class="cls-6" x1="338.81" y1="161.51" x2="-2.01" y2="384.69"/>
          <line class="cls-6" x1="338.49" y1="153.79" x2="-2.34" y2="376.96"/>
          <line class="cls-6" x1="338.16" y1="146.07" x2="-2.68" y2="369.24"/>
          <line class="cls-6" x1="337.83" y1="138.35" x2="-3.02" y2="361.52"/>
          <line class="cls-6" x1="337.5" y1="130.63" x2="-3.35" y2="353.8"/>
          <line class="cls-6" x1="337.17" y1="122.9" x2="-3.69" y2="346.08"/>
          <line class="cls-6" x1="336.84" y1="115.18" x2="-4.02" y2="338.36"/>
          <line class="cls-6" x1="336.51" y1="107.46" x2="-4.36" y2="330.64"/>
          <line class="cls-6" x1="336.18" y1="99.74" x2="-4.69" y2="322.92"/>
          <line class="cls-6" x1="335.86" y1="92.02" x2="-5.03" y2="315.19"/>
          <line class="cls-6" x1="335.53" y1="84.29" x2="-5.36" y2="307.47"/>
          <line class="cls-6" x1="335.2" y1="76.57" x2="-5.7" y2="299.75"/>
          <line class="cls-6" x1="334.87" y1="68.85" x2="-6.04" y2="292.03"/>
          <line class="cls-6" x1="334.54" y1="61.13" x2="-6.37" y2="284.31"/>
          <line class="cls-6" x1="334.21" y1="53.41" x2="-6.71" y2="276.59"/>
          <line class="cls-6" x1="333.88" y1="45.68" x2="-7.04" y2="268.87"/>
          <line class="cls-6" x1="333.55" y1="37.96" x2="-7.38" y2="261.15"/>
          <line class="cls-6" x1="333.23" y1="30.24" x2="-7.71" y2="253.42"/>
          <line class="cls-6" x1="332.9" y1="22.52" x2="-8.05" y2="245.7"/>
          <line class="cls-6" x1="332.57" y1="14.8" x2="-8.38" y2="237.98"/>
          <line class="cls-6" x1="332.24" y1="7.08" x2="-8.72" y2="230.26"/>
          <line class="cls-6" x1="331.91" y1="-.65" x2="-9.06" y2="222.54"/>
          <line class="cls-6" x1="331.58" y1="-8.37" x2="-9.39" y2="214.82"/>
          <line class="cls-6" x1="331.25" y1="-16.09" x2="-9.73" y2="207.1"/>
          <line class="cls-6" x1="330.92" y1="-23.81" x2="-10.06" y2="199.38"/>
          <line class="cls-6" x1="330.6" y1="-31.53" x2="-10.4" y2="191.65"/>
          <line class="cls-6" x1="330.27" y1="-39.26" x2="-10.73" y2="183.93"/>
          <line class="cls-6" x1="329.94" y1="-46.98" x2="-11.07" y2="176.21"/>
          <line class="cls-6" x1="329.61" y1="-54.7" x2="-11.4" y2="168.49"/>
          <line class="cls-6" x1="329.28" y1="-62.42" x2="-11.74" y2="160.77"/>
          <line class="cls-6" x1="328.95" y1="-70.14" x2="-12.08" y2="153.05"/>
          <line class="cls-6" x1="328.62" y1="-77.87" x2="-12.41" y2="145.33"/>
          <line class="cls-6" x1="328.29" y1="-85.59" x2="-12.75" y2="137.61"/>
          <line class="cls-6" x1="327.96" y1="-93.31" x2="-13.08" y2="129.88"/>
          <line class="cls-6" x1="327.64" y1="-101.03" x2="-13.42" y2="122.16"/>
          <line class="cls-6" x1="327.31" y1="-108.75" x2="-13.75" y2="114.44"/>
          <line class="cls-6" x1="326.98" y1="-116.48" x2="-14.09" y2="106.72"/>
          <line class="cls-6" x1="326.65" y1="-124.2" x2="-14.43" y2="99"/>
          <line class="cls-6" x1="326.32" y1="-131.92" x2="-14.76" y2="91.28"/>
          <line class="cls-6" x1="325.99" y1="-139.64" x2="-15.1" y2="83.56"/>
          <line class="cls-6" x1="325.66" y1="-147.36" x2="-15.43" y2="75.83"/>
          <line class="cls-6" x1="325.33" y1="-155.09" x2="-15.77" y2="68.11"/>
        </g>
      </g>
    </g>
    <rect class="cls-9" x="27.76" y="84.82" width="282.81" height="21.24"/>
    <rect class="cls-1" x="27.76" y="104.96" width="282.81" height="45.51"/>
    <line class="cls-7" x1="80.35" y1="171.1" x2="152.56" y2="171.1"/>
    <g>
      <path class="cls-10" d="M43.27,91.36h1.99c1.37,0,1.95,.64,1.95,1.93v.34c0,.86-.26,1.4-.85,1.64v.02c.71,.24,.98,.86,.98,1.75v.72c0,1.29-.68,1.99-2,1.99h-2.07v-8.4Zm1.83,3.42c.49,0,.79-.22,.79-.89v-.47c0-.6-.2-.86-.67-.86h-.64v2.22h.52Zm.24,3.78c.44,0,.68-.2,.68-.83v-.73c0-.78-.25-1.02-.85-1.02h-.59v2.58h.76Z"/>
      <path class="cls-10" d="M49.74,96.18l-1.6-4.82h1.4l.9,3.08h.02l.9-3.08h1.28l-1.6,4.82v3.57h-1.32v-3.57Z"/>
      <path class="cls-10" d="M56.34,98.84c0-1.2,.34-1.93,1.32-2.96,1.01-1.07,1.3-1.7,1.3-2.48s-.26-.96-.68-.96-.68,.23-.68,.83v.9h-1.25v-.82c0-1.34,.67-2.11,1.97-2.11s1.97,.77,1.97,2.11c0,1-.41,1.88-1.63,3.18-.79,.84-1,1.26-1,1.85v.18h2.51v1.2h-3.81v-.91Z"/>
      <path class="cls-10" d="M61.67,97.76v-4.41c0-1.34,.71-2.11,2-2.11s2,.77,2,2.11v4.41c0,1.34-.71,2.11-2,2.11s-2-.77-2-2.11Zm2.69,.08v-4.58c0-.6-.26-.83-.68-.83s-.68,.23-.68,.83v4.58c0,.6,.26,.83,.68,.83s.68-.23,.68-.83Z"/>
      <path class="cls-10" d="M67.06,97.79v-.68h1.25v.74c0,.6,.26,.83,.68,.83s.68-.2,.68-.95v-.68c0-.78-.26-1.07-.86-1.07h-.44v-1.2h.48c.49,0,.79-.22,.79-.89v-.61c0-.6-.28-.84-.66-.84s-.64,.23-.64,.78v.55h-1.25v-.44c0-1.34,.67-2.09,1.93-2.09s1.93,.73,1.93,2.07v.3c0,.9-.29,1.45-.94,1.69v.02c.71,.26,.97,.88,.97,1.73v.74c0,1.34-.67,2.08-1.97,2.08s-1.97-.74-1.97-2.09Z"/>
      <path class="cls-10" d="M72.46,97.76v-4.41c0-1.34,.71-2.11,2-2.11s2,.77,2,2.11v4.41c0,1.34-.71,2.11-2,2.11s-2-.77-2-2.11Zm2.69,.08v-4.58c0-.6-.26-.83-.68-.83s-.68,.23-.68,.83v4.58c0,.6,.26,.83,.68,.83s.68-.23,.68-.83Z"/>
    </g>
    <g>
      <path class="cls-2" d="M43.36,50.48h1.54v9.81h-1.54v-9.81Z"/>
      <path class="cls-2" d="M46.39,50.48h4.08v1.4h-2.54v2.73h1.99v1.4h-1.99v4.27h-1.54v-9.81Z"/>
      <path class="cls-2" d="M54.05,58.02v-5.27c0-1.51,.78-2.41,2.27-2.41s2.27,.9,2.27,2.41v1.04h-1.46v-1.13c0-.64-.31-.91-.77-.91s-.77,.27-.77,.91v5.48c0,.64,.31,.9,.77,.9s.77-.25,.77-.9v-1.5h1.46v1.39c0,1.51-.78,2.41-2.27,2.41s-2.27-.9-2.27-2.41Z"/>
      <path class="cls-2" d="M59.81,57.96v-7.48h1.54v7.59c0,.7,.29,.95,.78,.95s.78-.25,.78-.95v-7.59h1.48v7.48c0,1.57-.78,2.47-2.3,2.47s-2.3-.9-2.3-2.47Z"/>
      <path class="cls-2" d="M65.84,50.48h2.28c1.6,0,2.28,.74,2.28,2.25v.6c0,1.01-.32,1.65-1.01,1.93v.03c.77,.24,1.02,.97,1.02,2.07v1.72c0,.48,.01,.83,.17,1.19h-1.57c-.08-.25-.14-.41-.14-1.2v-1.79c0-.91-.27-1.2-.97-1.2h-.53v4.2h-1.54v-9.81Zm2.1,4.2c.57,0,.92-.25,.92-1.04v-.76c0-.7-.24-1.01-.78-1.01h-.7v2.8h.56Z"/>
      <path class="cls-2" d="M71.83,50.48h2.28c1.6,0,2.28,.74,2.28,2.25v.6c0,1.01-.32,1.65-1.01,1.93v.03c.77,.24,1.02,.97,1.02,2.07v1.72c0,.48,.01,.83,.17,1.19h-1.57c-.08-.25-.14-.41-.14-1.2v-1.79c0-.91-.27-1.2-.97-1.2h-.53v4.2h-1.54v-9.81Zm2.1,4.2c.57,0,.92-.25,.92-1.04v-.76c0-.7-.24-1.01-.78-1.01h-.7v2.8h.56Z"/>
      <path class="cls-2" d="M77.82,50.48h4.2v1.4h-2.66v2.59h2.12v1.4h-2.12v3.01h2.66v1.4h-4.2v-9.81Z"/>
      <path class="cls-2" d="M83.26,50.48h1.93l1.5,5.87h.03v-5.87h1.37v9.81h-1.58l-1.85-7.16h-.03v7.16h-1.37v-9.81Z"/>
      <path class="cls-2" d="M90.79,51.88h-1.61v-1.4h4.76v1.4h-1.61v8.4h-1.54v-8.4Z"/>
      <path class="cls-2" d="M44.56,67.88h-1.61v-1.4h4.76v1.4h-1.61v8.4h-1.54v-8.4Z"/>
      <path class="cls-2" d="M48.8,66.48h2.28c1.6,0,2.28,.74,2.28,2.25v.6c0,1.01-.32,1.65-1.01,1.93v.03c.77,.24,1.02,.97,1.02,2.07v1.72c0,.48,.01,.83,.17,1.19h-1.57c-.08-.25-.14-.41-.14-1.2v-1.79c0-.91-.27-1.2-.97-1.2h-.53v4.2h-1.54v-9.81Zm2.1,4.2c.57,0,.92-.25,.92-1.04v-.76c0-.7-.24-1.01-.78-1.01h-.7v2.8h.56Z"/>
      <path class="cls-2" d="M54.79,66.48h4.2v1.4h-2.66v2.59h2.12v1.4h-2.12v3.01h2.66v1.4h-4.2v-9.81Z"/>
      <path class="cls-2" d="M60.23,66.48h1.93l1.5,5.87h.03v-5.87h1.37v9.81h-1.58l-1.85-7.16h-.03v7.16h-1.37v-9.81Z"/>
      <path class="cls-2" d="M66.55,66.48h2.35c1.54,0,2.3,.85,2.3,2.42v4.96c0,1.57-.76,2.42-2.3,2.42h-2.35v-9.81Zm2.33,8.4c.49,0,.78-.25,.78-.95v-5.1c0-.7-.29-.95-.78-.95h-.78v7h.78Z"/>
      <path class="cls-2" d="M72.32,73.96v-.56h1.46v.67c0,.7,.31,.95,.8,.95s.8-.25,.8-.98c0-.81-.31-1.33-1.32-2.21-1.29-1.13-1.71-1.93-1.71-3.05,0-1.54,.8-2.44,2.3-2.44s2.24,.9,2.24,2.47v.41h-1.46v-.5c0-.7-.28-.97-.77-.97s-.77,.27-.77,.94c0,.71,.32,1.23,1.33,2.12,1.29,1.13,1.69,1.92,1.69,3.14,0,1.6-.81,2.49-2.33,2.49s-2.27-.9-2.27-2.47Z"/>
      <path class="cls-2" d="M80.64,74.02v-5.27c0-1.51,.78-2.41,2.27-2.41s2.27,.9,2.27,2.41v1.04h-1.46v-1.13c0-.64-.31-.91-.77-.91s-.77,.27-.77,.91v5.48c0,.64,.31,.9,.77,.9s.77-.25,.77-.9v-1.5h1.46v1.39c0,1.51-.78,2.41-2.27,2.41s-2.27-.9-2.27-2.41Z"/>
      <path class="cls-2" d="M86.36,73.96v-5.15c0-1.57,.83-2.47,2.34-2.47s2.34,.9,2.34,2.47v5.15c0,1.57-.83,2.47-2.34,2.47s-2.34-.9-2.34-2.47Zm3.14,.1v-5.35c0-.7-.31-.97-.8-.97s-.8,.27-.8,.97v5.35c0,.7,.31,.97,.8,.97s.8-.27,.8-.97Z"/>
      <path class="cls-2" d="M92.43,66.48h1.93l1.5,5.87h.03v-5.87h1.37v9.81h-1.58l-1.85-7.16h-.03v7.16h-1.37v-9.81Z"/>
      <path class="cls-2" d="M99.96,67.88h-1.61v-1.4h4.76v1.4h-1.61v8.4h-1.54v-8.4Z"/>
      <path class="cls-2" d="M104.2,66.48h1.54v9.81h-1.54v-9.81Z"/>
      <path class="cls-2" d="M107.24,66.48h1.93l1.5,5.87h.03v-5.87h1.37v9.81h-1.58l-1.85-7.16h-.03v7.16h-1.37v-9.81Z"/>
      <path class="cls-2" d="M113.51,73.96v-7.48h1.54v7.59c0,.7,.29,.95,.78,.95s.78-.25,.78-.95v-7.59h1.48v7.48c0,1.57-.78,2.47-2.3,2.47s-2.3-.9-2.3-2.47Z"/>
      <path class="cls-2" d="M119.54,66.48h4.2v1.4h-2.66v2.59h2.12v1.4h-2.12v3.01h2.66v1.4h-4.2v-9.81Z"/>
      <path class="cls-2" d="M125.55,76.29h-.5v-1.48h1.48v1.33l-.77,1.84h-.71l.5-1.68Z"/>
    </g>
    <g id="Element_1">
      <line class="cls-3" y1="84.78" x2="332.88" y2="84.78"/>
    </g>
    <g>
      <path class="cls-12" d="M42.58,130.74v-1.15h2.18v1.32c0,1.05,.46,1.43,1.2,1.43s1.2-.38,1.2-1.43v-3.3c0-1.05-.46-1.45-1.2-1.45s-1.2,.4-1.2,1.45v.13h-2.18l.42-8.21h6.09v2.1h-4.03l-.19,3.51h.04c.42-.69,1.07-1.07,1.99-1.07,1.7,0,2.56,1.2,2.56,3.36v3.32c0,2.35-1.18,3.7-3.44,3.7s-3.44-1.34-3.44-3.7Z"/>
      <path class="cls-12" d="M56.19,121.63h-4.66v-2.1h6.93v2.02l-3.61,12.68h-2.35l3.7-12.6Z"/>
      <path class="cls-12" d="M60.64,130.74v-1.15h2.18v1.32c0,1.05,.46,1.43,1.2,1.43s1.2-.38,1.2-1.43v-3.3c0-1.05-.46-1.45-1.2-1.45s-1.2,.4-1.2,1.45v.13h-2.18l.42-8.21h6.09v2.1h-4.03l-.19,3.51h.04c.42-.69,1.07-1.07,1.99-1.07,1.7,0,2.56,1.2,2.56,3.36v3.32c0,2.35-1.18,3.7-3.44,3.7s-3.44-1.34-3.44-3.7Z"/>
      <path class="cls-12" d="M73.72,119.53h3.3l1.47,10.52h.04l1.47-10.52h3.3v14.7h-2.18v-11.13h-.04l-1.68,11.13h-1.93l-1.68-11.13h-.04v11.13h-2.02v-14.7Z"/>
      <path class="cls-12" d="M85.65,119.53h2.31v14.7h-2.31v-14.7Z"/>
      <path class="cls-12" d="M90.31,119.53h2.31v12.6h3.8v2.1h-6.11v-14.7Z"/>
      <path class="cls-12" d="M98.17,119.53h2.31v12.6h3.8v2.1h-6.11v-14.7Z"/>
      <path class="cls-12" d="M106.02,119.53h2.31v14.7h-2.31v-14.7Z"/>
      <path class="cls-12" d="M110.51,130.74v-7.73c0-2.35,1.24-3.7,3.51-3.7s3.51,1.34,3.51,3.7v7.73c0,2.35-1.24,3.7-3.51,3.7s-3.51-1.34-3.51-3.7Zm4.7,.15v-8.02c0-1.05-.46-1.45-1.2-1.45s-1.2,.4-1.2,1.45v8.02c0,1.05,.46,1.45,1.2,1.45s1.2-.4,1.2-1.45Z"/>
      <path class="cls-12" d="M119.71,119.53h2.9l2.25,8.8h.04v-8.8h2.06v14.7h-2.37l-2.77-10.73h-.04v10.73h-2.06v-14.7Z"/>
    </g>
    <g>
      <path class="cls-2" d="M42.27,141.79h1.94c1.32,0,1.97,.73,1.97,2.08v.83c0,1.34-.65,2.08-1.97,2.08h-.62v3.42h-1.32v-8.4Zm1.94,3.78c.42,0,.65-.19,.65-.79v-1c0-.6-.23-.79-.65-.79h-.62v2.58h.62Z"/>
      <path class="cls-2" d="M47.26,141.79h3.6v1.2h-2.28v2.22h1.81v1.2h-1.81v2.58h2.28v1.2h-3.6v-8.4Z"/>
      <path class="cls-2" d="M51.88,148.19v-4.41c0-1.34,.71-2.11,2-2.11s2,.77,2,2.11v4.41c0,1.34-.71,2.11-2,2.11s-2-.77-2-2.11Zm2.69,.08v-4.58c0-.6-.26-.83-.68-.83s-.68,.23-.68,.83v4.58c0,.6,.26,.83,.68,.83s.68-.23,.68-.83Z"/>
      <path class="cls-2" d="M57.14,141.79h1.94c1.32,0,1.97,.73,1.97,2.08v.83c0,1.34-.65,2.08-1.97,2.08h-.62v3.42h-1.32v-8.4Zm1.94,3.78c.42,0,.65-.19,.65-.79v-1c0-.6-.23-.79-.65-.79h-.62v2.58h.62Z"/>
      <path class="cls-2" d="M62.13,141.79h1.32v7.2h2.17v1.2h-3.49v-8.4Z"/>
      <path class="cls-2" d="M66.62,141.79h3.6v1.2h-2.28v2.22h1.81v1.2h-1.81v2.58h2.28v1.2h-3.6v-8.4Z"/>
      <path class="cls-2" d="M73.3,141.79h1.27l.59,6.45h.02l.62-6.45h1.44l.62,6.45h.02l.59-6.45h1.14l-.85,8.4h-1.64l-.6-5.66h-.02l-.6,5.66h-1.75l-.85-8.4Z"/>
      <path class="cls-2" d="M80.66,141.79h1.32v8.4h-1.32v-8.4Z"/>
      <path class="cls-2" d="M83.32,141.79h1.32v7.2h2.17v1.2h-3.49v-8.4Z"/>
      <path class="cls-2" d="M87.81,141.79h1.32v7.2h2.17v1.2h-3.49v-8.4Z"/>
      <path class="cls-2" d="M94.35,148.19v-.48h1.25v.58c0,.6,.26,.82,.68,.82s.68-.22,.68-.84c0-.7-.26-1.14-1.13-1.9-1.1-.97-1.46-1.66-1.46-2.61,0-1.32,.68-2.09,1.97-2.09s1.92,.77,1.92,2.11v.35h-1.25v-.43c0-.6-.24-.83-.66-.83s-.66,.23-.66,.8c0,.61,.28,1.06,1.14,1.81,1.1,.97,1.45,1.64,1.45,2.69,0,1.37-.7,2.14-1.99,2.14s-1.94-.77-1.94-2.11Z"/>
      <path class="cls-2" d="M100.44,142.99h-1.38v-1.2h4.08v1.2h-1.38v7.2h-1.32v-7.2Z"/>
      <path class="cls-2" d="M104.13,141.79h1.32v8.4h-1.32v-8.4Z"/>
      <path class="cls-2" d="M106.8,141.79h1.32v7.2h2.17v1.2h-3.49v-8.4Z"/>
      <path class="cls-2" d="M111.28,141.79h1.32v7.2h2.17v1.2h-3.49v-8.4Z"/>
      <path class="cls-2" d="M118.05,141.79h1.99c1.37,0,1.95,.64,1.95,1.93v.34c0,.86-.26,1.4-.85,1.64v.02c.71,.24,.98,.86,.98,1.75v.72c0,1.29-.68,1.99-2,1.99h-2.07v-8.4Zm1.83,3.42c.49,0,.79-.22,.79-.89v-.47c0-.6-.2-.86-.67-.86h-.64v2.22h.52Zm.24,3.78c.44,0,.68-.2,.68-.83v-.73c0-.78-.25-1.02-.85-1.02h-.59v2.58h.76Z"/>
      <path class="cls-2" d="M123.26,141.79h3.6v1.2h-2.28v2.22h1.81v1.2h-1.81v2.58h2.28v1.2h-3.6v-8.4Z"/>
      <path class="cls-2" d="M42.27,155.79h1.32v7.2h2.17v1.2h-3.49v-8.4Z"/>
      <path class="cls-2" d="M46.76,155.79h1.32v8.4h-1.32v-8.4Z"/>
      <path class="cls-2" d="M49.08,155.79h1.33l.86,6.51h.02l.86-6.51h1.21l-1.27,8.4h-1.75l-1.27-8.4Z"/>
      <path class="cls-2" d="M54.37,155.79h1.32v8.4h-1.32v-8.4Z"/>
      <path class="cls-2" d="M57.03,155.79h1.66l1.28,5.03h.02v-5.03h1.18v8.4h-1.36l-1.58-6.13h-.02v6.13h-1.18v-8.4Z"/>
      <path class="cls-2" d="M62.42,162.19v-4.41c0-1.34,.67-2.11,1.97-2.11s1.97,.77,1.97,2.11v.72h-1.25v-.8c0-.6-.26-.83-.68-.83s-.68,.23-.68,.83v4.59c0,.6,.26,.82,.68,.82s.68-.22,.68-.82v-1.64h-.66v-1.2h1.91v2.75c0,1.34-.67,2.11-1.97,2.11s-1.97-.77-1.97-2.11Z"/>
      <path class="cls-2" d="M69.85,155.79h1.32v8.4h-1.32v-8.4Z"/>
      <path class="cls-2" d="M72.51,155.79h1.66l1.28,5.03h.02v-5.03h1.18v8.4h-1.36l-1.58-6.13h-.02v6.13h-1.18v-8.4Z"/>
      <path class="cls-2" d="M80.28,155.79h3.6v1.2h-2.28v2.22h1.81v1.2h-1.81v2.58h2.28v1.2h-3.6v-8.4Z"/>
      <path class="cls-2" d="M86.18,159.89l-1.45-4.1h1.39l.89,2.71h.02l.91-2.71h1.25l-1.45,4.1,1.52,4.29h-1.39l-.96-2.93h-.02l-.98,2.93h-1.25l1.52-4.29Z"/>
      <path class="cls-2" d="M91.28,156.99h-1.38v-1.2h4.08v1.2h-1.38v7.2h-1.32v-7.2Z"/>
      <path class="cls-2" d="M94.98,155.79h1.95c1.37,0,1.95,.64,1.95,1.93v.52c0,.86-.28,1.42-.86,1.66v.02c.66,.2,.88,.83,.88,1.77v1.48c0,.41,.01,.71,.14,1.02h-1.34c-.07-.22-.12-.35-.12-1.03v-1.54c0-.78-.23-1.03-.83-1.03h-.46v3.6h-1.32v-8.4Zm1.8,3.6c.49,0,.79-.22,.79-.89v-.65c0-.6-.2-.86-.67-.86h-.6v2.4h.48Z"/>
      <path class="cls-2" d="M100.17,155.79h3.6v1.2h-2.28v2.22h1.81v1.2h-1.81v2.58h2.28v1.2h-3.6v-8.4Z"/>
      <path class="cls-2" d="M104.89,155.79h1.88l.84,6.01h.02l.84-6.01h1.88v8.4h-1.25v-6.36h-.02l-.96,6.36h-1.1l-.96-6.36h-.02v6.36h-1.15v-8.4Z"/>
      <path class="cls-2" d="M111.7,155.79h3.6v1.2h-2.28v2.22h1.81v1.2h-1.81v2.58h2.28v1.2h-3.6v-8.4Z"/>
      <path class="cls-2" d="M118.7,155.79h1.94c1.32,0,1.97,.73,1.97,2.08v.83c0,1.34-.65,2.08-1.97,2.08h-.62v3.42h-1.32v-8.4Zm1.94,3.78c.42,0,.65-.19,.65-.79v-1c0-.6-.23-.79-.65-.79h-.62v2.58h.62Z"/>
      <path class="cls-2" d="M123.6,162.19v-4.41c0-1.34,.71-2.11,2-2.11s2,.77,2,2.11v4.41c0,1.34-.71,2.11-2,2.11s-2-.77-2-2.11Zm2.69,.08v-4.58c0-.6-.26-.83-.68-.83s-.68,.23-.68,.83v4.58c0,.6,.26,.83,.68,.83s.68-.23,.68-.83Z"/>
      <path class="cls-2" d="M128.48,155.79h1.33l.86,6.51h.02l.86-6.51h1.21l-1.27,8.4h-1.75l-1.27-8.4Z"/>
      <path class="cls-2" d="M133.77,155.79h3.6v1.2h-2.28v2.22h1.81v1.2h-1.81v2.58h2.28v1.2h-3.6v-8.4Z"/>
      <path class="cls-2" d="M138.49,155.79h1.95c1.37,0,1.95,.64,1.95,1.93v.52c0,.86-.28,1.42-.86,1.66v.02c.66,.2,.88,.83,.88,1.77v1.48c0,.41,.01,.71,.14,1.02h-1.34c-.07-.22-.12-.35-.12-1.03v-1.54c0-.78-.23-1.03-.83-1.03h-.46v3.6h-1.32v-8.4Zm1.8,3.6c.49,0,.79-.22,.79-.89v-.65c0-.6-.2-.86-.67-.86h-.6v2.4h.48Z"/>
      <path class="cls-2" d="M144.69,156.99h-1.38v-1.2h4.08v1.2h-1.38v7.2h-1.32v-7.2Z"/>
      <path class="cls-2" d="M149.65,160.61l-1.6-4.82h1.4l.9,3.08h.02l.9-3.08h1.28l-1.6,4.82v3.57h-1.32v-3.57Z"/>
    </g>
    <line class="cls-4" x1="172.28" y1="118.08" x2="172.28" y2="177.3"/>
    <g>
      <g>
        <path class="cls-2" d="M191.63,148.19v-4.41c0-1.34,.71-2.11,2-2.11s2,.77,2,2.11v4.41c0,1.34-.71,2.11-2,2.11s-2-.77-2-2.11Zm2.69,.08v-4.58c0-.6-.26-.83-.68-.83s-.68,.23-.68,.83v4.58c0,.6,.26,.83,.68,.83s.68-.23,.68-.83Z"/>
        <path class="cls-2" d="M196.89,141.79h3.49v1.2h-2.17v2.34h1.7v1.2h-1.7v3.66h-1.32v-8.4Z"/>
        <path class="cls-2" d="M203.57,148.24v-4.51c0-1.29,.67-2.06,1.94-2.06s1.94,.77,1.94,2.06v.89h-1.25v-.97c0-.55-.26-.78-.66-.78s-.66,.23-.66,.78v4.69c0,.55,.26,.77,.66,.77s.66-.22,.66-.77v-1.28h1.25v1.19c0,1.3-.67,2.06-1.94,2.06s-1.94-.77-1.94-2.06Z"/>
        <path class="cls-2" d="M208.54,148.19v-4.41c0-1.34,.71-2.11,2-2.11s2,.77,2,2.11v4.41c0,1.34-.71,2.11-2,2.11s-2-.77-2-2.11Zm2.69,.08v-4.58c0-.6-.26-.83-.68-.83s-.68,.23-.68,.83v4.58c0,.6,.26,.83,.68,.83s.68-.23,.68-.83Z"/>
        <path class="cls-2" d="M213.75,148.19v-6.4h1.32v6.5c0,.6,.25,.82,.67,.82s.67-.22,.67-.82v-6.5h1.27v6.4c0,1.34-.67,2.11-1.97,2.11s-1.97-.77-1.97-2.11Z"/>
        <path class="cls-2" d="M218.98,141.79h1.66l1.28,5.03h.02v-5.03h1.18v8.4h-1.36l-1.58-6.13h-.02v6.13h-1.18v-8.4Z"/>
        <path class="cls-2" d="M225.49,142.99h-1.38v-1.2h4.08v1.2h-1.38v7.2h-1.32v-7.2Z"/>
        <path class="cls-2" d="M229.19,141.79h1.95c1.37,0,1.95,.64,1.95,1.93v.52c0,.86-.28,1.42-.86,1.66v.02c.66,.2,.88,.83,.88,1.77v1.48c0,.41,.01,.71,.14,1.02h-1.34c-.07-.22-.12-.35-.12-1.03v-1.54c0-.78-.23-1.03-.83-1.03h-.46v3.6h-1.32v-8.4Zm1.8,3.6c.49,0,.79-.22,.79-.89v-.65c0-.6-.2-.86-.67-.86h-.6v2.4h.48Z"/>
        <path class="cls-2" d="M234.39,141.79h1.32v8.4h-1.32v-8.4Z"/>
        <path class="cls-2" d="M237.05,141.79h3.6v1.2h-2.28v2.22h1.81v1.2h-1.81v2.58h2.28v1.2h-3.6v-8.4Z"/>
        <path class="cls-2" d="M241.56,148.19v-.48h1.25v.58c0,.6,.26,.82,.68,.82s.68-.22,.68-.84c0-.7-.26-1.14-1.13-1.9-1.1-.97-1.46-1.65-1.46-2.61,0-1.32,.68-2.09,1.97-2.09s1.92,.77,1.92,2.11v.35h-1.25v-.43c0-.6-.24-.83-.66-.83s-.66,.23-.66,.8c0,.61,.28,1.06,1.14,1.81,1.1,.97,1.45,1.64,1.45,2.69,0,1.37-.7,2.13-1.99,2.13s-1.94-.77-1.94-2.11Z"/>
        <path class="cls-2" d="M248.58,141.79h1.27l.59,6.45h.02l.62-6.45h1.44l.62,6.45h.02l.59-6.45h1.14l-.85,8.4h-1.64l-.6-5.66h-.02l-.6,5.66h-1.75l-.85-8.4Z"/>
        <path class="cls-2" d="M255.94,141.79h1.32v8.4h-1.32v-8.4Z"/>
        <path class="cls-2" d="M258.6,141.79h1.32v7.2h2.17v1.2h-3.49v-8.4Z"/>
        <path class="cls-2" d="M263.09,141.79h1.32v7.2h2.17v1.2h-3.49v-8.4Z"/>
        <path class="cls-2" d="M269.86,141.79h1.32v3.42h1.42v-3.42h1.32v8.4h-1.32v-3.78h-1.42v3.78h-1.32v-8.4Z"/>
        <path class="cls-2" d="M276.28,141.79h1.79l1.37,8.4h-1.32l-.24-1.67v.02h-1.5l-.24,1.64h-1.22l1.37-8.4Zm1.44,5.61l-.59-4.15h-.02l-.58,4.15h1.19Z"/>
        <path class="cls-2" d="M279.75,141.79h1.33l.86,6.51h.02l.86-6.51h1.21l-1.27,8.4h-1.75l-1.27-8.4Z"/>
        <path class="cls-2" d="M285.04,141.79h3.6v1.2h-2.28v2.22h1.81v1.2h-1.81v2.58h2.28v1.2h-3.6v-8.4Z"/>
        <path class="cls-2" d="M191.73,155.79h1.32v3.42h1.42v-3.42h1.32v8.4h-1.32v-3.78h-1.42v3.78h-1.32v-8.4Z"/>
        <path class="cls-2" d="M198.15,155.79h1.79l1.37,8.4h-1.32l-.24-1.67v.02h-1.5l-.24,1.64h-1.22l1.37-8.4Zm1.44,5.61l-.59-4.15h-.02l-.58,4.15h1.19Z"/>
        <path class="cls-2" d="M202.3,155.79h1.32v7.2h2.17v1.2h-3.49v-8.4Z"/>
        <path class="cls-2" d="M205.89,155.79h1.33l.86,6.51h.02l.86-6.51h1.21l-1.27,8.4h-1.75l-1.27-8.4Z"/>
        <path class="cls-2" d="M211.18,155.79h3.6v1.2h-2.28v2.22h1.81v1.2h-1.81v2.58h2.28v1.2h-3.6v-8.4Z"/>
        <path class="cls-2" d="M215.9,155.79h2.01c1.32,0,1.97,.73,1.97,2.08v4.25c0,1.34-.65,2.07-1.97,2.07h-2.01v-8.4Zm1.99,7.2c.42,0,.67-.22,.67-.82v-4.37c0-.6-.25-.82-.67-.82h-.67v6h.67Z"/>
        <path class="cls-2" d="M224.44,156.99h-1.38v-1.2h4.08v1.2h-1.38v7.2h-1.32v-7.2Z"/>
        <path class="cls-2" d="M228.14,155.79h1.32v3.42h1.42v-3.42h1.32v8.4h-1.32v-3.78h-1.42v3.78h-1.32v-8.4Z"/>
        <path class="cls-2" d="M233.54,155.79h3.6v1.2h-2.28v2.22h1.81v1.2h-1.81v2.58h2.28v1.2h-3.6v-8.4Z"/>
        <path class="cls-2" d="M238.25,155.79h1.32v8.4h-1.32v-8.4Z"/>
        <path class="cls-2" d="M240.92,155.79h1.95c1.37,0,1.95,.64,1.95,1.93v.52c0,.86-.28,1.42-.86,1.66v.02c.66,.2,.88,.83,.88,1.77v1.48c0,.41,.01,.71,.14,1.02h-1.34c-.07-.22-.12-.35-.12-1.03v-1.54c0-.78-.23-1.03-.83-1.03h-.46v3.6h-1.32v-8.4Zm1.8,3.6c.49,0,.79-.22,.79-.89v-.65c0-.6-.2-.86-.67-.86h-.6v2.4h.48Z"/>
        <path class="cls-2" d="M248.39,155.79h1.66l1.28,5.03h.02v-5.03h1.18v8.4h-1.36l-1.58-6.13h-.02v6.13h-1.18v-8.4Z"/>
        <path class="cls-2" d="M254.89,155.79h1.79l1.37,8.4h-1.32l-.24-1.67v.02h-1.5l-.24,1.64h-1.22l1.37-8.4Zm1.44,5.61l-.59-4.15h-.02l-.58,4.15h1.19Z"/>
        <path class="cls-2" d="M259.53,156.99h-1.38v-1.2h4.08v1.2h-1.38v7.2h-1.32v-7.2Z"/>
        <path class="cls-2" d="M263.22,155.79h1.32v8.4h-1.32v-8.4Z"/>
        <path class="cls-2" d="M265.79,162.19v-4.41c0-1.34,.71-2.11,2-2.11s2,.77,2,2.11v4.41c0,1.34-.71,2.11-2,2.11s-2-.77-2-2.11Zm2.69,.08v-4.58c0-.6-.26-.83-.68-.83s-.68,.23-.68,.83v4.58c0,.6,.26,.83,.68,.83s.68-.23,.68-.83Z"/>
        <path class="cls-2" d="M271.05,155.79h1.66l1.28,5.03h.02v-5.03h1.18v8.4h-1.36l-1.58-6.13h-.02v6.13h-1.18v-8.4Z"/>
        <path class="cls-2" d="M277.55,155.79h1.79l1.37,8.4h-1.32l-.24-1.67v.02h-1.5l-.24,1.64h-1.22l1.37-8.4Zm1.44,5.61l-.59-4.15h-.02l-.58,4.15h1.19Z"/>
        <path class="cls-2" d="M281.7,155.79h1.32v7.2h2.17v1.2h-3.49v-8.4Z"/>
        <path class="cls-2" d="M191.73,169.79h1.94c1.32,0,1.97,.73,1.97,2.08v.83c0,1.34-.65,2.08-1.97,2.08h-.62v3.42h-1.32v-8.4Zm1.94,3.78c.42,0,.65-.19,.65-.79v-1c0-.6-.23-.79-.65-.79h-.62v2.58h.62Z"/>
        <path class="cls-2" d="M196.62,176.19v-4.41c0-1.34,.71-2.11,2-2.11s2,.77,2,2.11v4.41c0,1.34-.71,2.11-2,2.11s-2-.77-2-2.11Zm2.69,.08v-4.58c0-.6-.26-.83-.68-.83s-.68,.23-.68,.83v4.58c0,.6,.26,.83,.68,.83s.68-.23,.68-.83Z"/>
        <path class="cls-2" d="M201.51,169.79h1.33l.86,6.51h.02l.86-6.51h1.21l-1.27,8.4h-1.75l-1.27-8.4Z"/>
        <path class="cls-2" d="M206.8,169.79h3.6v1.2h-2.28v2.22h1.81v1.2h-1.81v2.58h2.28v1.2h-3.6v-8.4Z"/>
        <path class="cls-2" d="M211.52,169.79h1.95c1.37,0,1.95,.64,1.95,1.93v.52c0,.86-.28,1.42-.86,1.66v.02c.66,.2,.88,.83,.88,1.77v1.48c0,.41,.01,.71,.14,1.02h-1.34c-.07-.22-.12-.35-.12-1.03v-1.54c0-.78-.23-1.03-.83-1.03h-.46v3.6h-1.32v-8.4Zm1.8,3.6c.49,0,.79-.22,.79-.89v-.65c0-.6-.2-.86-.67-.86h-.6v2.4h.48Z"/>
        <path class="cls-2" d="M217.72,170.99h-1.38v-1.2h4.08v1.2h-1.38v7.2h-1.32v-7.2Z"/>
        <path class="cls-2" d="M222.67,174.61l-1.6-4.82h1.4l.9,3.08h.02l.9-3.08h1.28l-1.6,4.82v3.57h-1.32v-3.57Z"/>
        <path class="cls-2" d="M228.83,169.79h1.32v7.2h2.17v1.2h-3.49v-8.4Z"/>
        <path class="cls-2" d="M233.32,169.79h3.6v1.2h-2.28v2.22h1.81v1.2h-1.81v2.58h2.28v1.2h-3.6v-8.4Z"/>
        <path class="cls-2" d="M237.69,169.79h1.33l.86,6.51h.02l.86-6.51h1.21l-1.27,8.4h-1.75l-1.27-8.4Z"/>
        <path class="cls-2" d="M242.98,169.79h3.6v1.2h-2.28v2.22h1.81v1.2h-1.81v2.58h2.28v1.2h-3.6v-8.4Z"/>
        <path class="cls-2" d="M247.7,169.79h1.32v7.2h2.17v1.2h-3.49v-8.4Z"/>
        <path class="cls-2" d="M251.96,176.19v-.48h1.25v.58c0,.6,.26,.82,.68,.82s.68-.22,.68-.84c0-.7-.26-1.14-1.13-1.9-1.1-.97-1.46-1.65-1.46-2.61,0-1.32,.68-2.09,1.97-2.09s1.92,.77,1.92,2.11v.35h-1.25v-.43c0-.6-.24-.83-.66-.83s-.66,.23-.66,.8c0,.61,.28,1.06,1.14,1.81,1.1,.97,1.45,1.64,1.45,2.69,0,1.37-.7,2.13-1.99,2.13s-1.94-.77-1.94-2.11Z"/>
      </g>
      <g>
        <line id="line" class="cls-5" x1="191.66" y1="120.04" x2="209.91" y2="120.04"/>
        <line id="line-2" data-name="line" class="cls-5" x1="191.66" y1="133.65" x2="209.91" y2="133.65"/>
        <g>
          <path class="cls-12" d="M213.98,130.74v-7.73c0-2.35,1.24-3.7,3.51-3.7s3.51,1.34,3.51,3.7v7.73c0,2.35-1.24,3.7-3.51,3.7s-3.51-1.34-3.51-3.7Zm4.7,.15v-8.02c0-1.05-.46-1.45-1.2-1.45s-1.2,.4-1.2,1.45v8.02c0,1.05,.46,1.45,1.2,1.45s1.2-.4,1.2-1.45Z"/>
          <path class="cls-12" d="M223.18,119.53h2.9l2.25,8.8h.04v-8.8h2.06v14.7h-2.37l-2.77-10.73h-.04v10.73h-2.06v-14.7Z"/>
          <path class="cls-12" d="M232.77,119.53h6.3v2.1h-3.99v3.88h3.17v2.1h-3.17v4.51h3.99v2.1h-6.3v-14.7Z"/>
          <path class="cls-12" d="M246.82,121.63h-2.41v-2.1h7.14v2.1h-2.41v12.6h-2.31v-12.6Z"/>
          <path class="cls-12" d="M253.29,119.53h2.31v5.98h2.48v-5.98h2.31v14.7h-2.31v-6.61h-2.48v6.61h-2.31v-14.7Z"/>
          <path class="cls-12" d="M262.74,119.53h2.31v14.7h-2.31v-14.7Z"/>
          <path class="cls-12" d="M267.4,119.53h3.42c2.39,0,3.42,1.11,3.42,3.38v.9c0,1.51-.48,2.48-1.51,2.9v.04c1.15,.36,1.53,1.45,1.53,3.11v2.58c0,.71,.02,1.24,.25,1.78h-2.35c-.13-.38-.21-.61-.21-1.81v-2.69c0-1.36-.4-1.81-1.45-1.81h-.8v6.3h-2.31v-14.7Zm3.15,6.3c.86,0,1.39-.38,1.39-1.55v-1.13c0-1.05-.36-1.51-1.18-1.51h-1.05v4.2h.84Z"/>
          <path class="cls-12" d="M276.5,119.53h3.53c2.31,0,3.44,1.28,3.44,3.63v7.43c0,2.35-1.13,3.63-3.44,3.63h-3.53v-14.7Zm3.49,12.6c.73,0,1.18-.38,1.18-1.43v-7.64c0-1.05-.44-1.43-1.18-1.43h-1.18v10.5h1.18Z"/>
        </g>
        <g>
          <path class="cls-2" d="M191.63,129.18v-4.41c0-1.34,.71-2.11,2-2.11s2,.77,2,2.11v4.41c0,1.34-.71,2.11-2,2.11s-2-.77-2-2.11Zm2.69,.08v-4.58c0-.6-.26-.83-.68-.83s-.68,.23-.68,.83v4.58c0,.6,.26,.83,.68,.83s.68-.23,.68-.83Z"/>
          <path class="cls-2" d="M196.89,122.78h1.66l1.28,5.03h.02v-5.03h1.18v8.4h-1.36l-1.58-6.13h-.02v6.13h-1.18v-8.4Z"/>
          <path class="cls-2" d="M202.37,122.78h1.32v7.2h2.17v1.2h-3.49v-8.4Z"/>
          <path class="cls-2" d="M207.01,127.6l-1.6-4.82h1.4l.9,3.08h.02l.9-3.08h1.28l-1.6,4.82v3.57h-1.32v-3.57Z"/>
        </g>
      </g>
    </g>
  </g>
</svg>