<?xml version="1.0" encoding="UTF-8"?><svg id="Layer_2" xmlns="http://www.w3.org/2000/svg" xmlns:xlink="http://www.w3.org/1999/xlink" viewBox="0 0 268.32 165.27"><defs><style>.cls-1,.cls-2{fill:none;}.cls-3{fill:#f99d25;}.cls-4{fill:#fff;}.cls-5{fill:#939598;}.cls-6,.cls-7{fill:#c58e4a;}.cls-7{stroke:#c58e4a;stroke-miterlimit:10;stroke-width:.5px;}.cls-2{clip-path:url(#clippath);}</style><clipPath id="clippath"><rect class="cls-1" x="0" width="56.42" height="65.17"/></clipPath></defs><g id="Layer_2-2"><rect class="cls-3" x="60.21" y="89.82" width="120.95" height="18.95"/><path class="cls-3" d="m46.36,14.41c-1,0-1.84.84-1.84,1.84s.84,1.84,1.84,1.84,1.84-.81,1.84-1.84-.84-1.84-1.84-1.84Z"/><path class="cls-5" d="m62.52,135.53h-1.95v-1.7h5.78v1.7h-1.95v10.2h-1.87v-10.2Z"/><path class="cls-5" d="m67.75,133.83h1.87v4.84h2.01v-4.84h1.87v11.9h-1.87v-5.35h-2.01v5.35h-1.87v-11.9Z"/><path class="cls-5" d="m76.85,133.83h2.53l1.94,11.9h-1.87l-.34-2.36v.03h-2.12l-.34,2.33h-1.73l1.94-11.9Zm2.04,7.96l-.83-5.88h-.03l-.82,5.88h1.68Z"/><path class="cls-5" d="m82.73,133.83h2.35l1.82,7.12h.03v-7.12h1.67v11.9h-1.92l-2.24-8.69h-.03v8.69h-1.67v-11.9Z"/><path class="cls-5" d="m94.31,145.14c-.47-.51-.71-1.23-.71-2.16v-6.39c0-.93.24-1.65.71-2.16.47-.51,1.15-.76,2.05-.76s1.58.25,2.05.76c.47.51.71,1.23.71,2.16v1.26h-1.77v-1.38c0-.74-.31-1.1-.94-1.1s-.94.37-.94,1.1v6.65c0,.73.31,1.09.94,1.09s.94-.36.94-1.09v-1.82h1.77v1.68c0,.93-.24,1.65-.71,2.16-.47.51-1.15.77-2.05.77s-1.58-.25-2.05-.77Z"/><path class="cls-5" d="m100.75,133.83h1.87v11.9h-1.87v-11.9Z"/><path class="cls-5" d="m105.98,135.53h-1.95v-1.7h5.78v1.7h-1.95v10.2h-1.87v-10.2Z"/><path class="cls-5" d="m111.22,133.83h1.87v11.9h-1.87v-11.9Z"/><path class="cls-5" d="m114.99,133.83h5.1v1.7h-3.23v3.15h2.57v1.7h-2.57v3.65h3.23v1.7h-5.1v-11.9Z"/><path class="cls-5" d="m122.08,145.13c-.46-.52-.7-1.25-.7-2.22v-.68h1.77v.82c0,.77.32,1.16.97,1.16.32,0,.56-.09.72-.28.16-.19.25-.49.25-.91,0-.5-.11-.94-.34-1.32-.23-.38-.65-.84-1.26-1.37-.77-.68-1.31-1.29-1.61-1.84-.31-.55-.46-1.17-.46-1.86,0-.94.24-1.67.71-2.18.48-.52,1.17-.77,2.07-.77s1.57.26,2.03.77.69,1.26.69,2.22v.49h-1.77v-.61c0-.41-.08-.71-.24-.89s-.39-.28-.7-.28c-.62,0-.93.38-.93,1.14,0,.43.12.83.35,1.21.23.37.65.83,1.27,1.36.78.68,1.32,1.3,1.61,1.85.29.56.44,1.21.44,1.96,0,.97-.24,1.72-.72,2.24-.48.52-1.18.78-2.1.78s-1.59-.26-2.06-.77Z"/><path class="cls-5" d="m131.77,133.83h1.87v11.9h-1.87v-11.9Z"/><path class="cls-5" d="m135.55,133.83h2.35l1.82,7.12h.03v-7.12h1.67v11.9h-1.92l-2.24-8.69h-.03v8.69h-1.67v-11.9Z"/><path class="cls-5" d="m146.54,133.83h5.1v1.7h-3.23v3.15h2.57v1.7h-2.57v3.65h3.23v1.7h-5.1v-11.9Z"/><path class="cls-5" d="m154.67,133.83h2.53l1.94,11.9h-1.87l-.34-2.36v.03h-2.12l-.34,2.33h-1.73l1.94-11.9Zm2.04,7.96l-.83-5.88h-.03l-.82,5.88h1.68Z"/><path class="cls-5" d="m160.88,145.13c-.46-.52-.7-1.25-.7-2.22v-.68h1.77v.82c0,.77.32,1.16.97,1.16.32,0,.56-.09.72-.28.16-.19.25-.49.25-.91,0-.5-.11-.94-.34-1.32-.23-.38-.65-.84-1.26-1.37-.77-.68-1.31-1.29-1.61-1.84-.31-.55-.46-1.17-.46-1.86,0-.94.24-1.67.71-2.18.48-.52,1.17-.77,2.07-.77s1.57.26,2.03.77.69,1.26.69,2.22v.49h-1.77v-.61c0-.41-.08-.71-.24-.89s-.39-.28-.7-.28c-.62,0-.93.38-.93,1.14,0,.43.12.83.35,1.21.23.37.65.83,1.27,1.36.78.68,1.32,1.3,1.61,1.85.29.56.44,1.21.44,1.96,0,.97-.24,1.72-.72,2.24-.48.52-1.18.78-2.1.78s-1.59-.26-2.06-.77Z"/><path class="cls-5" d="m168.8,135.53h-1.95v-1.7h5.78v1.7h-1.95v10.2h-1.87v-10.2Z"/><path class="cls-5" d="m174.03,133.83h5.1v1.7h-3.23v3.15h2.57v1.7h-2.57v3.65h3.23v1.7h-5.1v-11.9Z"/><path class="cls-5" d="m180.71,133.83h2.77c.96,0,1.67.22,2.11.67.44.45.66,1.14.66,2.07v.73c0,1.24-.41,2.02-1.22,2.35v.03c.45.14.77.41.96.83.19.42.28.98.28,1.68v2.09c0,.34.01.61.03.82.02.21.08.42.17.62h-1.9c-.07-.19-.11-.37-.14-.54s-.03-.48-.03-.92v-2.18c0-.54-.09-.92-.26-1.14-.18-.22-.48-.32-.91-.32h-.65v5.1h-1.87v-11.9Zm2.55,5.1c.37,0,.65-.1.84-.29.19-.19.28-.52.28-.97v-.92c0-.43-.08-.74-.23-.94-.15-.19-.39-.29-.72-.29h-.85v3.4h.68Z"/><path class="cls-5" d="m188.08,133.83h2.35l1.82,7.12h.03v-7.12h1.67v11.9h-1.92l-2.24-8.69h-.03v8.69h-1.67v-11.9Z"/><path class="cls-5" d="m200.52,133.83h2.53l1.94,11.9h-1.87l-.34-2.36v.03h-2.12l-.34,2.33h-1.73l1.94-11.9Zm2.04,7.96l-.83-5.88h-.03l-.82,5.88h1.68Z"/><path class="cls-5" d="m206.4,133.83h2.35l1.82,7.12h.03v-7.12h1.67v11.9h-1.92l-2.24-8.69h-.03v8.69h-1.67v-11.9Z"/><path class="cls-5" d="m214.17,133.83h2.86c.93,0,1.63.25,2.09.75.46.5.7,1.23.7,2.19v6.02c0,.96-.23,1.69-.7,2.19-.46.5-1.16.75-2.09.75h-2.86v-11.9Zm2.82,10.2c.31,0,.54-.09.71-.27.16-.18.25-.48.25-.88v-6.19c0-.41-.08-.7-.25-.88-.16-.18-.4-.27-.71-.27h-.95v8.5h.95Z"/><path class="cls-5" d="m225.19,145.13c-.46-.52-.7-1.25-.7-2.22v-.68h1.77v.82c0,.77.32,1.16.97,1.16.32,0,.56-.09.72-.28.16-.19.25-.49.25-.91,0-.5-.11-.94-.34-1.32-.23-.38-.65-.84-1.26-1.37-.77-.68-1.31-1.29-1.61-1.84-.31-.55-.46-1.17-.46-1.86,0-.94.24-1.67.71-2.18.48-.52,1.17-.77,2.07-.77s1.57.26,2.03.77.69,1.26.69,2.22v.49h-1.77v-.61c0-.41-.08-.71-.24-.89s-.39-.28-.7-.28c-.62,0-.93.38-.93,1.14,0,.43.12.83.35,1.21.23.37.65.83,1.27,1.36.78.68,1.32,1.3,1.61,1.85.29.56.44,1.21.44,1.96,0,.97-.24,1.72-.72,2.24-.48.52-1.18.78-2.1.78s-1.59-.26-2.06-.77Z"/><path class="cls-5" d="m232.24,145.12c-.49-.52-.73-1.26-.73-2.21v-6.26c0-.95.24-1.69.73-2.21.49-.52,1.19-.78,2.11-.78s1.62.26,2.11.78c.49.52.73,1.26.73,2.21v6.26c0,.95-.24,1.69-.73,2.21-.49.52-1.19.78-2.11.78s-1.62-.26-2.11-.78Zm3.08-2.09v-6.49c0-.78-.32-1.17-.97-1.17s-.97.39-.97,1.17v6.49c0,.78.32,1.17.97,1.17s.97-.39.97-1.17Z"/><path class="cls-5" d="m239.6,145.13c-.48-.52-.71-1.25-.71-2.22v-9.08h1.87v9.21c0,.41.08.7.25.88.16.18.4.27.71.27s.54-.09.71-.27c.16-.18.25-.48.25-.88v-9.21h1.8v9.08c0,.96-.24,1.7-.71,2.22s-1.17.77-2.07.77-1.6-.26-2.07-.77Z"/><path class="cls-5" d="m247.76,135.53h-1.95v-1.7h5.78v1.7h-1.95v10.2h-1.87v-10.2Z"/><path class="cls-5" d="m253,133.83h1.87v4.84h2.01v-4.84h1.87v11.9h-1.87v-5.35h-2.01v5.35h-1.87v-11.9Z"/><path class="cls-5" d="m260.37,138.93h3.74v1.7h-3.74v-1.7Z"/><path class="cls-5" d="m61.05,152.83h5.1v1.7h-3.23v3.15h2.57v1.7h-2.57v3.65h3.23v1.7h-5.1v-11.9Z"/><path class="cls-5" d="m69.18,152.83h2.53l1.94,11.9h-1.87l-.34-2.36v.03h-2.12l-.34,2.33h-1.73l1.94-11.9Zm2.04,7.96l-.83-5.88h-.03l-.82,5.88h1.68Z"/><path class="cls-5" d="m75.39,164.13c-.46-.52-.7-1.25-.7-2.22v-.68h1.77v.82c0,.77.32,1.16.97,1.16.32,0,.56-.09.72-.28.16-.19.25-.49.25-.91,0-.5-.11-.94-.34-1.32-.23-.38-.65-.84-1.26-1.37-.77-.68-1.31-1.29-1.61-1.84-.31-.55-.46-1.17-.46-1.86,0-.94.24-1.67.71-2.18.48-.52,1.17-.77,2.07-.77s1.57.26,2.03.77.69,1.26.69,2.22v.49h-1.77v-.61c0-.41-.08-.71-.24-.89s-.39-.28-.7-.28c-.62,0-.93.38-.93,1.14,0,.43.12.83.35,1.21.23.37.65.83,1.27,1.36.78.68,1.32,1.3,1.61,1.85.29.56.44,1.21.44,1.96,0,.97-.24,1.72-.72,2.24-.48.52-1.18.78-2.1.78s-1.59-.26-2.06-.77Z"/><path class="cls-5" d="m83.31,154.53h-1.95v-1.7h5.78v1.7h-1.95v10.2h-1.87v-10.2Z"/><path class="cls-5" d="m88.54,152.83h5.1v1.7h-3.23v3.15h2.57v1.7h-2.57v3.65h3.23v1.7h-5.1v-11.9Z"/><path class="cls-5" d="m95.22,152.83h2.77c.96,0,1.67.22,2.11.67.44.45.66,1.14.66,2.07v.73c0,1.24-.41,2.02-1.22,2.35v.03c.45.14.77.41.96.83.19.42.28.98.28,1.68v2.09c0,.34.01.61.03.82.02.21.08.42.17.62h-1.9c-.07-.19-.11-.37-.14-.54s-.03-.48-.03-.92v-2.18c0-.54-.09-.92-.26-1.14-.18-.22-.48-.32-.91-.32h-.65v5.1h-1.87v-11.9Zm2.55,5.1c.37,0,.65-.1.84-.29.19-.19.28-.52.28-.97v-.92c0-.43-.08-.74-.23-.94-.15-.19-.39-.29-.72-.29h-.85v3.4h.68Z"/><path class="cls-5" d="m102.59,152.83h2.35l1.82,7.12h.03v-7.12h1.67v11.9h-1.92l-2.24-8.69h-.03v8.69h-1.67v-11.9Z"/><path class="cls-5" d="m115.03,152.83h2.53l1.94,11.9h-1.87l-.34-2.36v.03h-2.12l-.34,2.33h-1.73l1.94-11.9Zm2.04,7.96l-.83-5.88h-.03l-.82,5.88h1.68Z"/><path class="cls-5" d="m121.23,164.13c-.46-.52-.7-1.25-.7-2.22v-.68h1.77v.82c0,.77.32,1.16.97,1.16.32,0,.56-.09.72-.28.16-.19.25-.49.25-.91,0-.5-.11-.94-.34-1.32-.23-.38-.65-.84-1.26-1.37-.77-.68-1.31-1.29-1.61-1.84-.31-.55-.46-1.17-.46-1.86,0-.94.24-1.67.71-2.18.48-.52,1.17-.77,2.07-.77s1.57.26,2.03.77.69,1.26.69,2.22v.49h-1.77v-.61c0-.41-.08-.71-.24-.89s-.39-.28-.7-.28c-.62,0-.93.38-.93,1.14,0,.43.12.83.35,1.21.23.37.65.83,1.27,1.36.78.68,1.32,1.3,1.61,1.85.29.56.44,1.21.44,1.96,0,.97-.24,1.72-.72,2.24-.48.52-1.18.78-2.1.78s-1.59-.26-2.06-.77Z"/><path class="cls-5" d="m127.69,152.83h1.87v11.9h-1.87v-11.9Z"/><path class="cls-5" d="m132.91,152.83h2.53l1.94,11.9h-1.87l-.34-2.36v.03h-2.12l-.34,2.33h-1.73l1.94-11.9Zm2.04,7.96l-.83-5.88h-.03l-.82,5.88h1.68Z"/><path class="cls-6" d="m62.88,14.87h2.98l2.28,14h-2.2l-.4-2.78v.04h-2.5l-.4,2.74h-2.04l2.28-14Zm2.4,9.36l-.98-6.92h-.04l-.96,6.92h1.98Z"/><path class="cls-6" d="m69.8,14.87h2.2v14h-2.2v-14Z"/><path class="cls-6" d="m74.24,14.87h3.26c1.13,0,1.96.26,2.48.79.52.53.78,1.34.78,2.43v.86c0,1.45-.48,2.37-1.44,2.76v.04c.53.16.91.49,1.13.98.22.49.33,1.15.33,1.98v2.46c0,.4.01.72.04.97.03.25.09.49.2.73h-2.24c-.08-.23-.13-.44-.16-.64-.03-.2-.04-.56-.04-1.08v-2.56c0-.64-.1-1.09-.31-1.34-.21-.25-.56-.38-1.07-.38h-.76v6h-2.2v-14Zm3,6c.44,0,.77-.11.99-.34s.33-.61.33-1.14v-1.08c0-.51-.09-.87-.27-1.1-.18-.23-.46-.34-.85-.34h-1v4h.8Z"/><path class="cls-6" d="m86.7,14.87h3.24c1.09,0,1.91.29,2.46.88.55.59.82,1.45.82,2.58v1.38c0,1.13-.27,1.99-.82,2.58-.55.59-1.37.88-2.46.88h-1.04v5.7h-2.2v-14Zm3.24,6.3c.36,0,.63-.1.81-.3.18-.2.27-.54.27-1.02v-1.66c0-.48-.09-.82-.27-1.02-.18-.2-.45-.3-.81-.3h-1.04v4.3h1.04Z"/><path class="cls-6" d="m95.72,28.15c-.57-.61-.86-1.48-.86-2.6v-7.36c0-1.12.29-1.99.86-2.6.57-.61,1.4-.92,2.48-.92s1.91.31,2.48.92c.57.61.86,1.48.86,2.6v7.36c0,1.12-.29,1.99-.86,2.6-.57.61-1.4.92-2.48.92s-1.91-.31-2.48-.92Zm3.62-2.46v-7.64c0-.92-.38-1.38-1.14-1.38s-1.14.46-1.14,1.38v7.64c0,.92.38,1.38,1.14,1.38s1.14-.46,1.14-1.38Z"/><path class="cls-6" d="m103.62,14.87h2.2v12h3.62v2h-5.82v-14Z"/><path class="cls-6" d="m111.1,14.87h2.2v12h3.62v2h-5.82v-14Z"/><path class="cls-6" d="m119.34,28.16c-.56-.61-.84-1.48-.84-2.61v-10.68h2.2v10.84c0,.48.1.83.29,1.04.19.21.47.32.83.32s.64-.11.83-.32c.19-.21.29-.56.29-1.04v-10.84h2.12v10.68c0,1.13-.28,2-.84,2.61-.56.61-1.37.91-2.44.91s-1.88-.3-2.44-.91Z"/><path class="cls-6" d="m128.94,16.87h-2.3v-2h6.8v2h-2.3v12h-2.2v-12Z"/><path class="cls-6" d="m135.1,14.87h2.2v14h-2.2v-14Z"/><path class="cls-6" d="m140.24,28.15c-.57-.61-.86-1.48-.86-2.6v-7.36c0-1.12.29-1.99.86-2.6.57-.61,1.4-.92,2.48-.92s1.91.31,2.48.92c.57.61.86,1.48.86,2.6v7.36c0,1.12-.29,1.99-.86,2.6-.57.61-1.4.92-2.48.92s-1.91-.31-2.48-.92Zm3.62-2.46v-7.64c0-.92-.38-1.38-1.14-1.38s-1.14.46-1.14,1.38v7.64c0,.92.38,1.38,1.14,1.38s1.14-.46,1.14-1.38Z"/><path class="cls-6" d="m148.14,14.87h2.76l2.14,8.38h.04v-8.38h1.96v14h-2.26l-2.64-10.22h-.04v10.22h-1.96v-14Z"/><path class="cls-5" d="m161.08,14.87h2.2v14h-2.2v-14Z"/><path class="cls-5" d="m165.96,28.16c-.55-.61-.82-1.48-.82-2.61v-.8h2.08v.96c0,.91.38,1.36,1.14,1.36.37,0,.66-.11.85-.33.19-.22.29-.58.29-1.07,0-.59-.13-1.1-.4-1.55-.27-.45-.76-.98-1.48-1.61-.91-.8-1.54-1.52-1.9-2.17-.36-.65-.54-1.38-.54-2.19,0-1.11.28-1.96.84-2.57.56-.61,1.37-.91,2.44-.91s1.85.3,2.39.91c.54.61.81,1.48.81,2.61v.58h-2.08v-.72c0-.48-.09-.83-.28-1.05-.19-.22-.46-.33-.82-.33-.73,0-1.1.45-1.1,1.34,0,.51.14.98.41,1.42.27.44.77.97,1.49,1.6.92.8,1.55,1.53,1.9,2.18.35.65.52,1.42.52,2.3,0,1.15-.28,2.03-.85,2.64-.57.61-1.39.92-2.47.92s-1.87-.3-2.42-.91Z"/><path class="cls-5" d="m177.36,14.87h2.76l2.14,8.38h.04v-8.38h1.96v14h-2.26l-2.64-10.22h-.04v10.22h-1.96v-14Z"/><path class="cls-5" d="m187.19,28.15c-.57-.61-.86-1.48-.86-2.6v-7.36c0-1.12.29-1.99.86-2.6.57-.61,1.4-.92,2.48-.92s1.91.31,2.48.92c.57.61.86,1.48.86,2.6v7.36c0,1.12-.29,1.99-.86,2.6-.57.61-1.4.92-2.48.92s-1.91-.31-2.48-.92Zm3.62-2.46v-7.64c0-.92-.38-1.38-1.14-1.38s-1.14.46-1.14,1.38v7.64c0,.92.38,1.38,1.14,1.38s1.14-.46,1.14-1.38Z"/><path class="cls-5" d="m198.89,14.87h2.2v12h3.62v2h-5.82v-14Z"/><path class="cls-5" d="m206.99,28.15c-.57-.61-.86-1.48-.86-2.6v-7.36c0-1.12.29-1.99.86-2.6.57-.61,1.4-.92,2.48-.92s1.91.31,2.48.92c.57.61.86,1.48.86,2.6v7.36c0,1.12-.29,1.99-.86,2.6-.57.61-1.4.92-2.48.92s-1.91-.31-2.48-.92Zm3.62-2.46v-7.64c0-.92-.38-1.38-1.14-1.38s-1.14.46-1.14,1.38v7.64c0,.92.38,1.38,1.14,1.38s1.14-.46,1.14-1.38Z"/><path class="cls-5" d="m214.89,14.87h2.76l2.14,8.38h.04v-8.38h1.96v14h-2.26l-2.64-10.22h-.04v10.22h-1.96v-14Z"/><path class="cls-5" d="m224.71,28.16c-.56-.61-.84-1.48-.84-2.61v-7.36c0-1.13.28-2,.84-2.61.56-.61,1.37-.91,2.44-.91s1.88.3,2.44.91c.56.61.84,1.48.84,2.61v1.2h-2.08v-1.34c0-.92-.38-1.38-1.14-1.38s-1.14.46-1.14,1.38v7.66c0,.91.38,1.36,1.14,1.36s1.14-.45,1.14-1.36v-2.74h-1.1v-2h3.18v4.58c0,1.13-.28,2-.84,2.61-.56.61-1.37.91-2.44.91s-1.88-.3-2.44-.91Z"/><path class="cls-5" d="m232.45,14.87h6v2h-3.8v3.7h3.02v2h-3.02v4.3h3.8v2h-6v-14Z"/><path class="cls-5" d="m240.31,14.87h3.26c1.13,0,1.96.26,2.48.79.52.53.78,1.34.78,2.43v.86c0,1.45-.48,2.37-1.44,2.76v.04c.53.16.91.49,1.13.98.22.49.33,1.15.33,1.98v2.46c0,.4.01.72.04.97.03.25.09.49.2.73h-2.24c-.08-.23-.13-.44-.16-.64-.03-.2-.04-.56-.04-1.08v-2.56c0-.64-.1-1.09-.31-1.34-.21-.25-.56-.38-1.07-.38h-.76v6h-2.2v-14Zm3,6c.44,0,.77-.11.99-.34s.33-.61.33-1.14v-1.08c0-.51-.09-.87-.27-1.1-.18-.23-.46-.34-.85-.34h-1v4h.8Z"/><path class="cls-5" d="m254.47,14.87h2.98l2.28,14h-2.2l-.4-2.78v.04h-2.5l-.4,2.74h-2.04l2.28-14Zm2.4,9.36l-.98-6.92h-.04l-.96,6.92h1.98Z"/><path class="cls-5" d="m261.39,14.87h2.76l2.14,8.38h.04v-8.38h1.96v14h-2.26l-2.64-10.22h-.04v10.22h-1.96v-14Z"/><path class="cls-5" d="m61.18,37.87h6v2h-3.8v3.7h3.02v2h-3.02v4.3h3.8v2h-6v-14Z"/><path class="cls-5" d="m71.02,44.71l-2.42-6.84h2.32l1.48,4.52h.04l1.52-4.52h2.08l-2.42,6.84,2.54,7.16h-2.32l-1.6-4.88h-.04l-1.64,4.88h-2.08l2.54-7.16Z"/><path class="cls-5" d="m78.17,51.17c-.55-.6-.83-1.45-.83-2.54v-7.52c0-1.09.28-1.94.83-2.54.55-.6,1.36-.9,2.41-.9s1.86.3,2.41.9c.55.6.83,1.45.83,2.54v1.48h-2.08v-1.62c0-.87-.37-1.3-1.1-1.3s-1.1.43-1.1,1.3v7.82c0,.85.37,1.28,1.1,1.28s1.1-.43,1.1-1.28v-2.14h2.08v1.98c0,1.09-.28,1.94-.83,2.54-.55.6-1.36.9-2.41.9s-1.86-.3-2.41-.9Z"/><path class="cls-5" d="m85.74,37.87h2.2v12h3.62v2h-5.82v-14Z"/><path class="cls-5" d="m93.98,51.16c-.56-.61-.84-1.48-.84-2.61v-10.68h2.2v10.84c0,.48.1.83.29,1.04.19.21.47.32.83.32s.64-.11.83-.32c.19-.21.29-.56.29-1.04v-10.84h2.12v10.68c0,1.13-.28,2-.84,2.61-.56.61-1.37.91-2.44.91s-1.88-.3-2.44-.91Z"/><path class="cls-5" d="m102.3,51.16c-.55-.61-.82-1.48-.82-2.61v-.8h2.08v.96c0,.91.38,1.36,1.14,1.36.37,0,.66-.11.85-.33.19-.22.29-.58.29-1.07,0-.59-.13-1.1-.4-1.55-.27-.45-.76-.98-1.48-1.61-.91-.8-1.54-1.52-1.9-2.17-.36-.65-.54-1.38-.54-2.19,0-1.11.28-1.96.84-2.57.56-.61,1.37-.91,2.44-.91s1.85.3,2.39.91c.54.61.81,1.48.81,2.61v.58h-2.08v-.72c0-.48-.09-.83-.28-1.05-.19-.22-.46-.33-.82-.33-.73,0-1.1.45-1.1,1.34,0,.51.14.98.41,1.42.27.44.77.97,1.49,1.6.92.8,1.55,1.53,1.9,2.18.35.65.52,1.42.52,2.3,0,1.15-.28,2.03-.85,2.64-.57.61-1.39.92-2.47.92s-1.87-.3-2.42-.91Z"/><path class="cls-5" d="m109.9,37.87h2.2v14h-2.2v-14Z"/><path class="cls-5" d="m113.76,37.87h2.22l1.44,10.86h.04l1.44-10.86h2.02l-2.12,14h-2.92l-2.12-14Z"/><path class="cls-5" d="m122.58,37.87h6v2h-3.8v3.7h3.02v2h-3.02v4.3h3.8v2h-6v-14Z"/><path class="cls-5" d="m130.44,37.87h2.2v12h3.62v2h-5.82v-14Z"/><path class="cls-5" d="m138.18,45.91l-2.66-8.04h2.34l1.5,5.14h.04l1.5-5.14h2.14l-2.66,8.04v5.96h-2.2v-5.96Z"/><path class="cls-5" d="m149.2,51.16c-.56-.61-.84-1.48-.84-2.61v-10.68h2.2v10.84c0,.48.1.83.29,1.04.19.21.47.32.83.32s.64-.11.83-.32c.19-.21.29-.56.29-1.04v-10.84h2.12v10.68c0,1.13-.28,2-.84,2.61-.56.61-1.37.91-2.44.91s-1.88-.3-2.44-.91Z"/><path class="cls-5" d="m157.08,37.87h3.26c1.13,0,1.96.26,2.48.79.52.53.78,1.34.78,2.43v.86c0,1.45-.48,2.37-1.44,2.76v.04c.53.16.91.49,1.13.98.22.49.33,1.15.33,1.98v2.46c0,.4.01.72.04.97.03.25.09.49.2.73h-2.24c-.08-.23-.13-.44-.16-.64-.03-.2-.04-.56-.04-1.08v-2.56c0-.64-.1-1.09-.31-1.34-.21-.25-.56-.38-1.07-.38h-.76v6h-2.2v-14Zm3,6c.44,0,.77-.11.99-.34s.33-.61.33-1.14v-1.08c0-.51-.09-.87-.27-1.1-.18-.23-.46-.34-.85-.34h-1v4h.8Z"/><path class="cls-5" d="m165.74,37.87h3.32c1.13,0,1.96.26,2.48.79.52.53.78,1.34.78,2.43v.56c0,.72-.12,1.31-.35,1.76-.23.45-.59.78-1.07.98v.04c1.09.37,1.64,1.35,1.64,2.92v1.2c0,1.08-.28,1.9-.85,2.47-.57.57-1.4.85-2.49.85h-3.46v-14Zm3.06,5.7c.44,0,.77-.11.99-.34.22-.23.33-.61.33-1.14v-.78c0-.51-.09-.87-.27-1.1-.18-.23-.46-.34-.85-.34h-1.06v3.7h.86Zm.4,6.3c.39,0,.67-.1.86-.31.19-.21.28-.56.28-1.07v-1.22c0-.64-.11-1.08-.33-1.33-.22-.25-.58-.37-1.09-.37h-.98v4.3h1.26Z"/><path class="cls-5" d="m176.12,37.87h2.98l2.28,14h-2.2l-.4-2.78v.04h-2.5l-.4,2.74h-2.04l2.28-14Zm2.4,9.36l-.98-6.92h-.04l-.96,6.92h1.98Z"/><path class="cls-5" d="m183.04,37.87h2.76l2.14,8.38h.04v-8.38h1.96v14h-2.26l-2.64-10.22h-.04v10.22h-1.96v-14Z"/><path class="cls-5" d="m195.97,37.87h3.24c1.09,0,1.91.29,2.46.88.55.59.82,1.45.82,2.58v1.38c0,1.13-.27,1.99-.82,2.58-.55.59-1.37.88-2.46.88h-1.04v5.7h-2.2v-14Zm3.24,6.3c.36,0,.63-.1.81-.3.18-.2.27-.54.27-1.02v-1.66c0-.48-.09-.82-.27-1.02-.18-.2-.45-.3-.81-.3h-1.04v4.3h1.04Z"/><path class="cls-5" d="m204.29,37.87h3.26c1.13,0,1.96.26,2.48.79.52.53.78,1.34.78,2.43v.86c0,1.45-.48,2.37-1.44,2.76v.04c.53.16.91.49,1.13.98.22.49.33,1.15.33,1.98v2.46c0,.4.01.72.04.97.03.25.09.49.2.73h-2.24c-.08-.23-.13-.44-.16-.64-.03-.2-.04-.56-.04-1.08v-2.56c0-.64-.1-1.09-.31-1.34-.21-.25-.56-.38-1.07-.38h-.76v6h-2.2v-14Zm3,6c.44,0,.77-.11.99-.34s.33-.61.33-1.14v-1.08c0-.51-.09-.87-.27-1.1-.18-.23-.46-.34-.85-.34h-1v4h.8Z"/><path class="cls-5" d="m213.65,51.15c-.57-.61-.86-1.48-.86-2.6v-7.36c0-1.12.29-1.99.86-2.6.57-.61,1.4-.92,2.48-.92s1.91.31,2.48.92c.57.61.86,1.48.86,2.6v7.36c0,1.12-.29,1.99-.86,2.6-.57.61-1.4.92-2.48.92s-1.91-.31-2.48-.92Zm3.62-2.46v-7.64c0-.92-.38-1.38-1.14-1.38s-1.14.46-1.14,1.38v7.64c0,.92.38,1.38,1.14,1.38s1.14-.46,1.14-1.38Z"/><path class="cls-5" d="m221.55,37.87h3.32c1.13,0,1.96.26,2.48.79.52.53.78,1.34.78,2.43v.56c0,.72-.12,1.31-.35,1.76-.23.45-.59.78-1.07.98v.04c1.09.37,1.64,1.35,1.64,2.92v1.2c0,1.08-.28,1.9-.85,2.47-.57.57-1.4.85-2.49.85h-3.46v-14Zm3.06,5.7c.44,0,.77-.11.99-.34.22-.23.33-.61.33-1.14v-.78c0-.51-.09-.87-.27-1.1-.18-.23-.46-.34-.85-.34h-1.06v3.7h.86Zm.4,6.3c.39,0,.67-.1.86-.31.19-.21.28-.56.28-1.07v-1.22c0-.64-.11-1.08-.33-1.33-.22-.25-.58-.37-1.09-.37h-.98v4.3h1.26Z"/><path class="cls-5" d="m230.23,37.87h2.2v12h3.62v2h-5.82v-14Z"/><path class="cls-5" d="m237.71,37.87h6v2h-3.8v3.7h3.02v2h-3.02v4.3h3.8v2h-6v-14Z"/><path class="cls-5" d="m245.57,37.87h3.14l1.4,10.02h.04l1.4-10.02h3.14v14h-2.08v-10.6h-.04l-1.6,10.6h-1.84l-1.6-10.6h-.04v10.6h-1.92v-14Z"/><path class="cls-5" d="m143.73,164.92c-.24-.23-.35-.63-.35-1.18v-4.94c0-.55.12-.95.35-1.18.24-.23.63-.35,1.19-.35h.34v.9h-.27c-.18,0-.31.04-.39.14-.08.09-.12.25-.12.49v4.94c0,.24.04.4.12.49.08.09.21.14.39.14h.27v.9h-.34c-.55,0-.95-.12-1.19-.35Z"/><path class="cls-5" d="m146,164.01c0-.5.08-.93.24-1.29.16-.36.45-.75.86-1.19.41-.43.69-.8.84-1.11.16-.31.24-.63.24-.96,0-.3-.05-.51-.15-.62-.1-.12-.24-.18-.43-.18-.38,0-.57.23-.57.69v.75h-1.04v-.68c0-.57.14-1,.42-1.31s.69-.46,1.22-.46.94.15,1.22.46.42.74.42,1.31c0,.43-.1.84-.3,1.25s-.55.87-1.05,1.4c-.33.35-.55.63-.66.84-.11.22-.17.45-.17.7v.15h2.09v1h-3.18v-.76Z"/><path class="cls-5" d="m150.37,164.41c-.29-.31-.43-.74-.43-1.3v-3.68c0-.56.14-.99.43-1.3s.7-.46,1.24-.46.95.15,1.24.46.43.74.43,1.3v3.68c0,.56-.14.99-.43,1.3s-.7.46-1.24.46-.95-.15-1.24-.46Zm1.81-1.23v-3.82c0-.46-.19-.69-.57-.69s-.57.23-.57.69v3.82c0,.46.19.69.57.69s.57-.23.57-.69Z"/><path class="cls-5" d="m155.56,159.43h-1.15v-.78c.31,0,.56-.03.75-.08.19-.05.34-.14.46-.26.11-.12.21-.3.3-.54h.74v7h-1.1v-5.34Z"/><path class="cls-5" d="m158.35,164.42c-.28-.3-.42-.74-.42-1.31v-.13h1.04v.2c0,.46.19.69.57.69.21,0,.36-.06.46-.19.1-.13.15-.35.15-.67v-1.34h-.02c-.19.41-.53.61-1,.61-.4,0-.7-.14-.91-.41-.21-.27-.31-.67-.31-1.19v-1.25c0-.56.14-.99.43-1.3s.7-.46,1.24-.46.95.15,1.24.46.43.74.43,1.3v3.62c0,1.21-.56,1.82-1.68,1.82-.53,0-.94-.15-1.22-.46Zm1.8-3.83v-1.24c0-.45-.19-.68-.57-.68s-.57.23-.57.68v1.24c0,.46.19.69.57.69s.57-.23.57-.69Z"/><path class="cls-5" d="m161.96,164.37h.27c.18,0,.31-.04.39-.14.08-.09.12-.25.12-.49v-4.94c0-.24-.04-.4-.12-.49-.08-.09-.21-.14-.39-.14h-.27v-.9h.34c.55,0,.95.12,1.19.35.24.23.35.63.35,1.18v4.94c0,.55-.12.95-.35,1.18-.24.23-.63.35-1.19.35h-.34v-.9Z"/><path class="cls-5" d="m62.52,75.13h-1.95v-1.7h5.78v1.7h-1.95v10.2h-1.87v-10.2Z"/><path class="cls-5" d="m68.28,84.72c-.49-.52-.73-1.26-.73-2.21v-6.26c0-.95.24-1.69.73-2.21.49-.52,1.19-.78,2.11-.78s1.62.26,2.11.78c.49.52.73,1.26.73,2.21v6.26c0,.95-.24,1.69-.73,2.21-.49.52-1.19.78-2.11.78s-1.62-.26-2.11-.78Zm3.08-2.09v-6.49c0-.78-.32-1.17-.97-1.17s-.97.39-.97,1.17v6.49c0,.78.32,1.17.97,1.17s.97-.39.97-1.17Z"/><path class="cls-5" d="m74.55,73.43h1.8l.83,9.15h.03l.88-9.15h2.04l.88,9.15h.03l.83-9.15h1.61l-1.21,11.9h-2.33l-.85-8.02h-.03l-.85,8.02h-2.48l-1.21-11.9Z"/><path class="cls-5" d="m84.97,73.43h2.35l1.82,7.12h.03v-7.12h1.67v11.9h-1.92l-2.24-8.69h-.03v8.69h-1.67v-11.9Z"/><path class="cls-5" d="m93.12,84.73c-.46-.52-.7-1.25-.7-2.22v-.68h1.77v.82c0,.77.32,1.16.97,1.16.32,0,.56-.09.72-.28.16-.19.25-.49.25-.91,0-.5-.11-.94-.34-1.32-.23-.38-.65-.84-1.26-1.37-.77-.68-1.31-1.29-1.61-1.84-.31-.55-.46-1.17-.46-1.86,0-.94.24-1.67.71-2.18.48-.52,1.17-.77,2.07-.77s1.57.26,2.03.77.69,1.26.69,2.22v.49h-1.77v-.61c0-.41-.08-.71-.24-.89s-.39-.28-.7-.28c-.62,0-.93.38-.93,1.14,0,.43.12.83.35,1.21.23.37.65.83,1.27,1.36.78.68,1.32,1.3,1.61,1.85.29.56.44,1.21.44,1.96,0,.97-.24,1.72-.72,2.24-.48.52-1.18.78-2.1.78s-1.59-.26-2.06-.77Z"/><path class="cls-5" d="m102.81,73.43h5.1v1.7h-3.23v3.15h2.57v1.7h-2.57v3.65h3.23v1.7h-5.1v-11.9Z"/><path class="cls-5" d="m111.17,79.25l-2.06-5.81h1.97l1.26,3.84h.03l1.29-3.84h1.77l-2.06,5.81,2.16,6.09h-1.97l-1.36-4.15h-.03l-1.39,4.15h-1.77l2.16-6.09Z"/><path class="cls-5" d="m116.93,73.43h2.75c.93,0,1.63.25,2.09.75.46.5.7,1.23.7,2.19v1.17c0,.96-.23,1.69-.7,2.19-.46.5-1.16.75-2.09.75h-.88v4.85h-1.87v-11.9Zm2.75,5.35c.31,0,.54-.08.69-.25.15-.17.23-.46.23-.87v-1.41c0-.41-.08-.7-.23-.87-.15-.17-.38-.26-.69-.26h-.88v3.66h.88Z"/><path class="cls-5" d="m124,73.43h5.1v1.7h-3.23v3.15h2.57v1.7h-2.57v3.65h3.23v1.7h-5.1v-11.9Z"/><path class="cls-5" d="m130.69,73.43h2.77c.96,0,1.67.22,2.11.67.44.45.66,1.14.66,2.07v.73c0,1.24-.41,2.02-1.22,2.35v.03c.45.14.77.41.96.83.19.42.28.98.28,1.68v2.09c0,.34.01.61.03.82.02.21.08.42.17.62h-1.9c-.07-.19-.11-.37-.14-.54s-.03-.48-.03-.92v-2.18c0-.54-.09-.92-.26-1.14-.18-.22-.48-.32-.91-.32h-.65v5.1h-1.87v-11.9Zm2.55,5.1c.37,0,.65-.1.84-.29.19-.19.28-.52.28-.97v-.92c0-.43-.08-.74-.23-.94-.15-.19-.39-.29-.72-.29h-.85v3.4h.68Z"/><path class="cls-5" d="m138.05,73.43h1.87v11.9h-1.87v-11.9Z"/><path class="cls-5" d="m141.82,73.43h5.1v1.7h-3.23v3.15h2.57v1.7h-2.57v3.65h3.23v1.7h-5.1v-11.9Z"/><path class="cls-5" d="m148.5,73.43h2.35l1.82,7.12h.03v-7.12h1.67v11.9h-1.92l-2.24-8.69h-.03v8.69h-1.67v-11.9Z"/><path class="cls-5" d="m156.86,84.74c-.47-.51-.71-1.23-.71-2.16v-6.39c0-.93.24-1.65.71-2.16.47-.51,1.15-.76,2.05-.76s1.58.25,2.05.76c.47.51.71,1.23.71,2.16v1.26h-1.77v-1.38c0-.74-.31-1.1-.94-1.1s-.94.37-.94,1.1v6.65c0,.73.31,1.09.94,1.09s.94-.36.94-1.09v-1.82h1.77v1.68c0,.93-.24,1.65-.71,2.16-.47.51-1.15.77-2.05.77s-1.58-.25-2.05-.77Z"/><path class="cls-5" d="m163.29,73.43h5.1v1.7h-3.23v3.15h2.57v1.7h-2.57v3.65h3.23v1.7h-5.1v-11.9Z"/><path class="cls-4" d="m64.79,93.43h2.75c.93,0,1.63.25,2.09.75.46.5.7,1.23.7,2.19v1.17c0,.96-.23,1.69-.7,2.19-.46.5-1.16.75-2.09.75h-.88v4.85h-1.87v-11.9Zm2.75,5.35c.31,0,.54-.08.69-.25.15-.17.23-.46.23-.87v-1.41c0-.41-.08-.7-.23-.87-.15-.17-.38-.26-.69-.26h-.88v3.66h.88Z"/><path class="cls-4" d="m72.46,104.72c-.49-.52-.73-1.26-.73-2.21v-6.26c0-.95.24-1.69.73-2.21.49-.52,1.19-.78,2.11-.78s1.62.26,2.11.78c.49.52.73,1.26.73,2.21v6.26c0,.95-.24,1.69-.73,2.21-.49.52-1.19.78-2.11.78s-1.62-.26-2.11-.78Zm3.08-2.09v-6.49c0-.78-.32-1.17-.97-1.17s-.97.39-.97,1.17v6.49c0,.78.32,1.17.97,1.17s.97-.39.97-1.17Z"/><path class="cls-4" d="m79.77,104.72c-.49-.52-.73-1.26-.73-2.21v-6.26c0-.95.24-1.69.73-2.21.49-.52,1.19-.78,2.11-.78s1.62.26,2.11.78c.49.52.73,1.26.73,2.21v6.26c0,.95-.24,1.69-.73,2.21-.49.52-1.19.78-2.11.78s-1.62-.26-2.11-.78Zm3.08-2.09v-6.49c0-.78-.32-1.17-.97-1.17s-.97.39-.97,1.17v6.49c0,.78.32,1.17.97,1.17s.97-.39.97-1.17Z"/><path class="cls-4" d="m86.49,93.43h2.77c.96,0,1.67.22,2.11.67.44.45.66,1.14.66,2.07v.73c0,1.24-.41,2.02-1.22,2.35v.03c.45.14.77.41.96.83.19.42.28.98.28,1.68v2.09c0,.34.01.61.03.82.02.21.08.42.17.62h-1.9c-.07-.19-.11-.37-.14-.54s-.03-.48-.03-.92v-2.18c0-.54-.09-.92-.26-1.14-.18-.22-.48-.32-.91-.32h-.65v5.1h-1.87v-11.9Zm2.55,5.1c.37,0,.65-.1.84-.29.19-.19.28-.52.28-.97v-.92c0-.43-.08-.74-.23-.94-.15-.19-.39-.29-.72-.29h-.85v3.4h.68Z"/><path class="cls-4" d="m93.85,93.43h5.1v1.7h-3.23v3.15h2.57v1.7h-2.57v3.65h3.23v1.7h-5.1v-11.9Z"/><path class="cls-4" d="m100.53,93.43h2.77c.96,0,1.67.22,2.11.67.44.45.66,1.14.66,2.07v.73c0,1.24-.41,2.02-1.22,2.35v.03c.45.14.77.41.96.83.19.42.28.98.28,1.68v2.09c0,.34.01.61.03.82.02.21.08.42.17.62h-1.9c-.07-.19-.11-.37-.14-.54s-.03-.48-.03-.92v-2.18c0-.54-.09-.92-.26-1.14-.18-.22-.48-.32-.91-.32h-.65v5.1h-1.87v-11.9Zm2.55,5.1c.37,0,.65-.1.84-.29.19-.19.28-.52.28-.97v-.92c0-.43-.08-.74-.23-.94-.15-.19-.39-.29-.72-.29h-.85v3.4h.68Z"/><path class="cls-4" d="m112.56,93.43h2.53l1.94,11.9h-1.87l-.34-2.36v.03h-2.12l-.34,2.33h-1.73l1.94-11.9Zm2.04,7.96l-.83-5.88h-.03l-.82,5.88h1.68Z"/><path class="cls-4" d="m118.44,93.43h1.87v11.9h-1.87v-11.9Z"/><path class="cls-4" d="m122.22,93.43h2.77c.96,0,1.67.22,2.11.67.44.45.66,1.14.66,2.07v.73c0,1.24-.41,2.02-1.22,2.35v.03c.45.14.77.41.96.83.19.42.28.98.28,1.68v2.09c0,.34.01.61.03.82.02.21.08.42.17.62h-1.9c-.07-.19-.11-.37-.14-.54s-.03-.48-.03-.92v-2.18c0-.54-.09-.92-.26-1.14-.18-.22-.48-.32-.91-.32h-.65v5.1h-1.87v-11.9Zm2.55,5.1c.37,0,.65-.1.84-.29.19-.19.28-.52.28-.97v-.92c0-.43-.08-.74-.23-.94-.15-.19-.39-.29-.72-.29h-.85v3.4h.68Z"/><path class="cls-4" d="m136.75,105.3c-.35.14-.77.2-1.24.2-.92,0-1.62-.26-2.11-.78-.49-.52-.73-1.26-.73-2.21v-6.26c0-.95.24-1.69.73-2.21.49-.52,1.19-.78,2.11-.78s1.62.26,2.11.78c.49.52.73,1.26.73,2.21v6.26c0,.79-.18,1.44-.53,1.95.07.11.15.19.26.22s.25.05.44.05h.29v1.7h-.49c-.85,0-1.37-.38-1.56-1.14Zm-.27-2.67v-6.49c0-.78-.32-1.17-.97-1.17s-.97.39-.97,1.17v6.49c0,.78.32,1.17.97,1.17s.97-.39.97-1.17Z"/><path class="cls-4" d="m140.77,104.73c-.48-.52-.71-1.25-.71-2.22v-9.08h1.87v9.21c0,.41.08.7.25.88.16.18.4.27.71.27s.54-.09.71-.27c.16-.18.25-.48.25-.88v-9.21h1.8v9.08c0,.96-.24,1.7-.71,2.22s-1.17.77-2.07.77-1.6-.26-2.07-.77Z"/><path class="cls-4" d="m148.87,93.43h2.53l1.94,11.9h-1.87l-.34-2.36v.03h-2.12l-.34,2.33h-1.73l1.94-11.9Zm2.04,7.96l-.83-5.88h-.03l-.82,5.88h1.68Z"/><path class="cls-4" d="m154.76,93.43h1.87v10.2h3.08v1.7h-4.95v-11.9Z"/><path class="cls-4" d="m161.11,93.43h1.87v11.9h-1.87v-11.9Z"/><path class="cls-4" d="m166.35,95.13h-1.95v-1.7h5.78v1.7h-1.95v10.2h-1.87v-10.2Z"/><path class="cls-4" d="m173.37,100.27l-2.26-6.83h1.99l1.27,4.37h.03l1.28-4.37h1.82l-2.26,6.83v5.07h-1.87v-5.07Z"/><path class="cls-3" d="m252.99,74.73l-11.99-6.67c-.46-.25-.99-.25-1.39,0l-11.26,6.29-11.26-6.29c-.46-.25-.99-.25-1.39,0l-12.05,6.67c-.4.25-.66.7-.66,1.14v13.33c.4-.13.79-.13,1.26-.13,1.32,0,2.65.51,3.58,1.4l11.72,11.24c1.46,1.4,1.85,3.49,1.13,5.27-.53,1.21-1.52,2.16-2.78,2.67v8.25c0,.44-.07.89-.2,1.27h34.64c.79,0,1.39-.57,1.39-1.33v-41.97c-.07-.44-.33-.89-.73-1.14Zm-38.87,9.72c0,.32-.26.51-.53.51h-4.44c-.33,0-.53-.25-.53-.51v-4.25c0-.32.26-.51.53-.51h4.44c.33,0,.53.25.53.51v4.25Zm10,9.65c0,.32-.26.51-.53.51h-4.44c-.33,0-.53-.25-.53-.51v-4.25c0-.32.26-.51.53-.51h4.44c.33,0,.53.25.53.51v4.25Zm0-9.65c0,.32-.26.51-.53.51h-4.44c-.33,0-.53-.25-.53-.51v-4.25c0-.32.26-.51.53-.51h4.44c.33,0,.53.25.53.51v4.25Zm13.91,28.89c0,.32-.26.51-.53.51h-4.44c-.33,0-.53-.25-.53-.51v-4.25c0-.32.26-.51.53-.51h4.44c.33,0,.53.25.53.51v4.25Zm0-9.65c0,.32-.26.51-.53.51h-4.44c-.33,0-.53-.25-.53-.51v-4.25c0-.32.26-.51.53-.51h4.44c.33,0,.53.25.53.51v4.25Zm0-9.59c0,.32-.26.51-.53.51h-4.44c-.33,0-.53-.25-.53-.51v-4.25c0-.32.26-.51.53-.51h4.44c.33,0,.53.25.53.51v4.25Zm0-9.65c0,.32-.26.51-.53.51h-4.44c-.33,0-.53-.25-.53-.51v-4.25c0-.32.26-.51.53-.51h4.44c.33,0,.53.25.53.51v4.25Zm10.07,28.89c0,.32-.26.51-.53.51h-4.44c-.33,0-.53-.25-.53-.51v-4.25c0-.32.26-.51.53-.51h4.44c.33,0,.53.25.53.51v4.25Zm0-9.65c0,.32-.26.51-.53.51h-4.44c-.33,0-.53-.25-.53-.51v-4.25c0-.32.26-.51.53-.51h4.44c.33,0,.53.25.53.51v4.25Zm0-9.59c0,.32-.26.51-.53.51h-4.44c-.33,0-.53-.25-.53-.51v-4.25c0-.32.26-.51.53-.51h4.44c.33,0,.53.25.53.51v4.25Zm0-9.65c0,.32-.26.51-.53.51h-4.44c-.33,0-.53-.25-.53-.51v-4.25c0-.32.26-.51.53-.51h4.44c.33,0,.53.25.53.51v4.25Z"/><path class="cls-6" d="m217.16,104l-11.79-11.24c-.66-.63-1.72-.63-2.38,0l-11.72,11.24c-1.06,1.02-.33,2.79,1.19,2.79h1.46v11.11c0,.7.6,1.27,1.32,1.27h4.9c.6,0,1.13-.51,1.13-1.08v-6.6c0-.51.46-.95.99-.95h3.91c.53,0,.99.44.99.95v6.6c0,.57.53,1.08,1.13,1.08h4.9c.73,0,1.32-.57,1.32-1.27v-11.11h1.46c1.46,0,2.25-1.78,1.19-2.79Z"/><g class="cls-2"><path class="cls-7" d="m28,24.74c6.1,0,11.01-4.97,11-11.07,0-6.1-4.97-11-11-11-3.18,0-6.16,1.39-8.28,3.78-1.72,1.99-2.72,4.57-2.72,7.23,0,.53.46.99.99.99s.99-.46.99-.99c0-2.12.79-4.24,2.25-5.9,1.72-1.92,4.18-3.05,6.76-3.05,4.97,0,9.01,4.04,9.01,9.01s-4.04,9.01-9.01,9.01H-5.14c-.53,0-.99.46-.99.99,0,.53.46.99.99.99H28h0Zm-12.59,32.01c6.1,0,11-4.97,11-11.07,0-6.1-4.97-11-11-11H-5.14c-.53,0-.99.46-.99.99,0,.53.46.99.99.99H15.41c4.97,0,9.01,4.04,9.01,9.01,0,4.97-4.04,9.01-9.01,9.01-2.59,0-5.04-1.13-6.76-3.05-1.46-1.59-2.25-3.71-2.25-5.9,0-.53-.46-.99-.99-.99s-.99.46-.99.99c0,2.65.99,5.24,2.72,7.23,2.12,2.39,5.1,3.78,8.28,3.78h0Zm25.58-6.03c6.03,0,11-4.91,11-11.01,0-6.1-4.97-11-11-11H-5.14c-.53,0-.99.46-.99.99s.46.99.99.99h46.13c4.97,0,9.01,3.98,9.01,8.95s-4.04,9.01-9.01,9.01c-2.59,0-5.04-1.13-6.76-3.05-1.46-1.59-2.25-3.71-2.25-5.9,0-.53-.46-.99-.99-.99s-.99.46-.99.99c0,2.65.99,5.24,2.72,7.23,2.12,2.39,5.1,3.78,8.28,3.78h0Zm-14.45-16.57c0-.86-.73-1.59-1.59-1.59s-1.59.73-1.59,1.59c0,.86.73,1.59,1.59,1.59s1.59-.73,1.59-1.59Zm23.93,19.95c0-.86-.73-1.59-1.59-1.59s-1.59.73-1.59,1.59.73,1.59,1.59,1.59,1.59-.73,1.59-1.59Z"/></g><circle class="cls-3" cx="9.57" cy="17.25" r="2.86"/><circle class="cls-3" cx="30.25" cy="57.88" r="2.55"/><rect class="cls-3" x="60.05" y="117.62" width="208.27" height="2.86"/></g></svg>