<?xml version="1.0" encoding="UTF-8"?>
<svg id="Layer_2" data-name="Layer 2" xmlns="http://www.w3.org/2000/svg" viewBox="0 0 170.76 172.29">
  <defs>
    <style>
      .cls-1, .cls-2 {
        fill: #a4cf9a;
      }

      .cls-1, .cls-3 {
        fill-rule: evenodd;
      }

      .cls-4, .cls-5 {
        stroke: #40ae49;
      }

      .cls-4, .cls-5, .cls-6 {
        stroke-miterlimit: 10;
        stroke-width: 3px;
      }

      .cls-4, .cls-6 {
        fill: none;
      }

      .cls-7 {
        fill: #939598;
      }

      .cls-8 {
        fill: #4c764a;
      }

      .cls-5 {
        fill: #eaf3e7;
      }

      .cls-9, .cls-3 {
        fill: #40ae49;
      }

      .cls-6 {
        stroke: #c7e0bf;
      }
    </style>
  </defs>
  <g id="Layer_2-2" data-name="Layer 2">
    <polygon class="cls-5" points="143.79 170.79 1.5 170.79 1.5 1.5 169.26 1.5 169.26 147.37 143.79 170.79"/>
    <g>
      <path class="cls-8" d="M17.64,86.24h2.48c1.69,0,2.52,.94,2.52,2.65v1.06c0,1.72-.83,2.65-2.52,2.65h-.8v4.37h-1.69v-10.73Zm2.48,4.83c.54,0,.83-.25,.83-1.01v-1.27c0-.77-.29-1.01-.83-1.01h-.8v3.3h.8Z"/>
      <path class="cls-8" d="M23.87,86.24h2.5c1.75,0,2.5,.81,2.5,2.47v.66c0,1.1-.35,1.81-1.1,2.12v.03c.84,.26,1.12,1.06,1.12,2.27v1.89c0,.52,.02,.9,.18,1.3h-1.72c-.09-.28-.15-.44-.15-1.32v-1.96c0-1-.29-1.32-1.06-1.32h-.58v4.6h-1.69v-10.73Zm2.3,4.6c.63,0,1.01-.28,1.01-1.14v-.83c0-.77-.26-1.1-.86-1.1h-.77v3.07h.61Z"/>
      <path class="cls-8" d="M30.23,94.42v-5.64c0-1.72,.9-2.7,2.56-2.7s2.56,.98,2.56,2.7v5.64c0,1.72-.9,2.7-2.56,2.7s-2.56-.98-2.56-2.7Zm3.44,.11v-5.86c0-.77-.34-1.06-.87-1.06s-.87,.29-.87,1.06v5.86c0,.77,.34,1.06,.87,1.06s.87-.29,.87-1.06Z"/>
      <path class="cls-8" d="M38.05,87.77h-1.76v-1.53h5.21v1.53h-1.76v9.2h-1.69v-9.2Z"/>
      <path class="cls-8" d="M42.61,86.24h4.6v1.53h-2.91v2.84h2.32v1.53h-2.32v3.3h2.91v1.53h-4.6v-10.73Z"/>
      <path class="cls-8" d="M48.38,94.49v-5.77c0-1.66,.86-2.64,2.48-2.64s2.48,.98,2.48,2.64v1.14h-1.59v-1.24c0-.71-.34-1-.84-1s-.84,.29-.84,1v6c0,.71,.34,.98,.84,.98s.84-.28,.84-.98v-1.64h1.59v1.52c0,1.66-.86,2.64-2.48,2.64s-2.48-.98-2.48-2.64Z"/>
      <path class="cls-8" d="M55.98,87.77h-1.76v-1.53h5.21v1.53h-1.76v9.2h-1.69v-9.2Z"/>
      <path class="cls-8" d="M60.55,86.24h4.6v1.53h-2.91v2.84h2.32v1.53h-2.32v3.3h2.91v1.53h-4.6v-10.73Z"/>
      <path class="cls-8" d="M66.42,86.24h2.58c1.69,0,2.52,.94,2.52,2.65v5.43c0,1.72-.83,2.65-2.52,2.65h-2.58v-10.73Zm2.55,9.2c.54,0,.86-.28,.86-1.04v-5.58c0-.77-.32-1.04-.86-1.04h-.86v7.67h.86Z"/>
      <path class="cls-8" d="M77.02,86.24h2.29l1.75,10.73h-1.69l-.31-2.13v.03h-1.92l-.31,2.1h-1.56l1.75-10.73Zm1.84,7.18l-.75-5.31h-.03l-.74,5.31h1.52Z"/>
      <path class="cls-8" d="M82.17,86.24h2.5c1.75,0,2.5,.81,2.5,2.47v.66c0,1.1-.35,1.81-1.1,2.12v.03c.84,.26,1.12,1.06,1.12,2.27v1.89c0,.52,.02,.9,.18,1.3h-1.72c-.09-.28-.15-.44-.15-1.32v-1.96c0-1-.29-1.32-1.06-1.32h-.58v4.6h-1.69v-10.73Zm2.3,4.6c.63,0,1.01-.28,1.01-1.14v-.83c0-.77-.26-1.1-.86-1.1h-.77v3.07h.61Z"/>
      <path class="cls-8" d="M88.65,86.24h4.6v1.53h-2.91v2.84h2.32v1.53h-2.32v3.3h2.91v1.53h-4.6v-10.73Z"/>
      <path class="cls-8" d="M95.83,86.24h2.29l1.75,10.73h-1.69l-.31-2.13v.03h-1.92l-.31,2.1h-1.56l1.75-10.73Zm1.84,7.18l-.75-5.31h-.03l-.74,5.31h1.52Z"/>
      <path class="cls-8" d="M103.63,94.49v-5.77c0-1.66,.86-2.64,2.48-2.64s2.48,.98,2.48,2.64v1.14h-1.59v-1.24c0-.71-.34-1-.84-1s-.84,.29-.84,1v6c0,.71,.34,.98,.84,.98s.84-.28,.84-.98v-1.64h1.59v1.52c0,1.66-.86,2.64-2.48,2.64s-2.48-.98-2.48-2.64Z"/>
      <path class="cls-8" d="M109.82,94.42v-5.64c0-1.72,.9-2.7,2.56-2.7s2.56,.98,2.56,2.7v5.64c0,1.72-.9,2.7-2.56,2.7s-2.56-.98-2.56-2.7Zm3.44,.11v-5.86c0-.77-.34-1.06-.87-1.06s-.87,.29-.87,1.06v5.86c0,.77,.34,1.06,.87,1.06s.87-.29,.87-1.06Z"/>
      <path class="cls-8" d="M115.91,86.24h1.7l1.1,8.33h.03l1.1-8.33h1.55l-1.63,10.73h-2.24l-1.63-10.73Z"/>
      <path class="cls-8" d="M122.52,86.24h4.6v1.53h-2.91v2.84h2.32v1.53h-2.32v3.3h2.91v1.53h-4.6v-10.73Z"/>
      <path class="cls-8" d="M128.39,86.24h2.5c1.75,0,2.5,.81,2.5,2.47v.66c0,1.1-.35,1.81-1.1,2.12v.03c.84,.26,1.12,1.06,1.12,2.27v1.89c0,.52,.02,.9,.18,1.3h-1.72c-.09-.28-.15-.44-.15-1.32v-1.96c0-1-.29-1.32-1.06-1.32h-.58v4.6h-1.69v-10.73Zm2.3,4.6c.63,0,1.01-.28,1.01-1.14v-.83c0-.77-.26-1.1-.86-1.1h-.77v3.07h.61Z"/>
      <path class="cls-8" d="M136.18,86.24h2.29l1.75,10.73h-1.69l-.31-2.13v.03h-1.92l-.31,2.1h-1.56l1.75-10.73Zm1.84,7.18l-.75-5.31h-.03l-.74,5.31h1.52Z"/>
      <path class="cls-8" d="M141.17,94.42v-5.64c0-1.72,.86-2.7,2.52-2.7s2.52,.98,2.52,2.7v.92h-1.6v-1.03c0-.77-.34-1.06-.87-1.06s-.87,.29-.87,1.06v5.87c0,.77,.34,1.04,.87,1.04s.87-.28,.87-1.04v-2.1h-.84v-1.53h2.44v3.51c0,1.72-.86,2.7-2.52,2.7s-2.52-.98-2.52-2.7Z"/>
      <path class="cls-8" d="M147.6,86.24h4.6v1.53h-2.91v2.84h2.32v1.53h-2.32v3.3h2.91v1.53h-4.6v-10.73Z"/>
      <path class="cls-8" d="M17.21,111.95v-5.64c0-1.72,.9-2.7,2.56-2.7s2.56,.98,2.56,2.7v5.64c0,1.72-.9,2.7-2.56,2.7s-2.56-.98-2.56-2.7Zm3.44,.11v-5.86c0-.77-.34-1.06-.87-1.06s-.87,.29-.87,1.06v5.86c0,.77,.34,1.06,.87,1.06s.87-.29,.87-1.06Z"/>
      <path class="cls-8" d="M23.77,103.76h4.46v1.53h-2.78v2.99h2.18v1.53h-2.18v4.68h-1.69v-10.73Z"/>
      <path class="cls-8" d="M32.11,103.76h1.69v4.52l2.15-4.52h1.69l-2.01,3.94,2.04,6.79h-1.76l-1.43-4.78-.67,1.36v3.42h-1.69v-10.73Z"/>
      <path class="cls-8" d="M38.77,103.76h4.6v1.53h-2.91v2.84h2.32v1.53h-2.32v3.3h2.91v1.53h-4.6v-10.73Z"/>
      <path class="cls-8" d="M46.19,109.92l-2.04-6.16h1.79l1.15,3.94h.03l1.15-3.94h1.64l-2.04,6.16v4.57h-1.69v-4.57Z"/>
      <path class="cls-8" d="M53.74,103.76h2.55c1.75,0,2.5,.81,2.5,2.47v.43c0,1.1-.34,1.79-1.09,2.1v.03c.9,.31,1.26,1.1,1.26,2.24v.92c0,1.66-.87,2.55-2.56,2.55h-2.65v-10.73Zm2.35,4.37c.63,0,1.01-.28,1.01-1.13v-.6c0-.77-.26-1.1-.86-1.1h-.81v2.84h.66Zm.31,4.83c.57,0,.87-.26,.87-1.06v-.94c0-1-.32-1.3-1.09-1.3h-.75v3.3h.97Z"/>
      <path class="cls-8" d="M60.24,103.76h1.69v10.73h-1.69v-10.73Z"/>
      <path class="cls-8" d="M63.37,111.95v-5.64c0-1.72,.9-2.7,2.56-2.7s2.56,.98,2.56,2.7v5.64c0,1.72-.9,2.7-2.56,2.7s-2.56-.98-2.56-2.7Zm3.44,.11v-5.86c0-.77-.34-1.06-.87-1.06s-.87,.29-.87,1.06v5.86c0,.77,.34,1.06,.87,1.06s.87-.29,.87-1.06Z"/>
      <path class="cls-8" d="M69.93,103.76h2.58c1.69,0,2.52,.94,2.52,2.65v5.43c0,1.72-.83,2.65-2.52,2.65h-2.58v-10.73Zm2.55,9.2c.54,0,.86-.28,.86-1.04v-5.58c0-.77-.32-1.04-.86-1.04h-.86v7.67h.86Z"/>
      <path class="cls-8" d="M76.46,103.76h1.69v10.73h-1.69v-10.73Z"/>
      <path class="cls-8" d="M79.27,103.76h1.7l1.1,8.33h.03l1.1-8.33h1.55l-1.63,10.73h-2.24l-1.63-10.73Z"/>
      <path class="cls-8" d="M85.88,103.76h4.6v1.53h-2.91v2.84h2.32v1.53h-2.32v3.3h2.91v1.53h-4.6v-10.73Z"/>
      <path class="cls-8" d="M91.75,103.76h2.5c1.75,0,2.5,.81,2.5,2.47v.66c0,1.1-.35,1.81-1.1,2.12v.03c.84,.26,1.12,1.06,1.12,2.27v1.89c0,.52,.02,.9,.18,1.3h-1.72c-.09-.28-.15-.44-.15-1.32v-1.96c0-1-.29-1.32-1.06-1.32h-.58v4.6h-1.69v-10.73Zm2.3,4.6c.63,0,1.01-.28,1.01-1.14v-.83c0-.77-.26-1.1-.86-1.1h-.77v3.07h.61Z"/>
      <path class="cls-8" d="M97.94,111.95v-.61h1.59v.74c0,.77,.34,1.04,.87,1.04s.87-.28,.87-1.07c0-.89-.34-1.46-1.44-2.42-1.41-1.24-1.87-2.12-1.87-3.34,0-1.69,.87-2.67,2.51-2.67s2.45,.98,2.45,2.7v.44h-1.59v-.55c0-.77-.31-1.06-.84-1.06s-.84,.29-.84,1.03c0,.78,.35,1.35,1.46,2.32,1.41,1.24,1.86,2.1,1.86,3.44,0,1.75-.89,2.73-2.55,2.73s-2.48-.98-2.48-2.7Z"/>
      <path class="cls-8" d="M104.24,103.76h1.69v10.73h-1.69v-10.73Z"/>
      <path class="cls-8" d="M108.81,105.29h-1.76v-1.53h5.21v1.53h-1.76v9.2h-1.69v-9.2Z"/>
      <path class="cls-8" d="M114.99,109.92l-2.04-6.16h1.79l1.15,3.94h.03l1.15-3.94h1.64l-2.04,6.16v4.57h-1.69v-4.57Z"/>
      <path class="cls-8" d="M123.85,103.76h2.29l1.75,10.73h-1.69l-.31-2.13v.03h-1.92l-.31,2.1h-1.56l1.75-10.73Zm1.84,7.18l-.75-5.31h-.03l-.74,5.31h1.52Z"/>
      <path class="cls-8" d="M129,103.76h2.5c1.75,0,2.5,.81,2.5,2.47v.66c0,1.1-.35,1.81-1.1,2.12v.03c.84,.26,1.12,1.06,1.12,2.27v1.89c0,.52,.02,.9,.18,1.3h-1.72c-.09-.28-.15-.44-.15-1.32v-1.96c0-1-.29-1.32-1.06-1.32h-.58v4.6h-1.69v-10.73Zm2.3,4.6c.63,0,1.01-.28,1.01-1.14v-.83c0-.77-.26-1.1-.86-1.1h-.77v3.07h.61Z"/>
      <path class="cls-8" d="M135.48,103.76h4.6v1.53h-2.91v2.84h2.32v1.53h-2.32v3.3h2.91v1.53h-4.6v-10.73Z"/>
      <path class="cls-8" d="M142.66,103.76h2.29l1.75,10.73h-1.69l-.31-2.13v.03h-1.92l-.31,2.1h-1.56l1.75-10.73Zm1.84,7.18l-.75-5.31h-.03l-.74,5.31h1.52Z"/>
      <path class="cls-8" d="M147.47,111.95v-.61h1.59v.74c0,.77,.34,1.04,.87,1.04s.87-.28,.87-1.07c0-.89-.34-1.46-1.44-2.42-1.41-1.24-1.87-2.12-1.87-3.34,0-1.69,.87-2.67,2.51-2.67s2.45,.98,2.45,2.7v.44h-1.59v-.55c0-.77-.31-1.06-.84-1.06s-.84,.29-.84,1.03c0,.78,.35,1.35,1.46,2.32,1.41,1.24,1.86,2.1,1.86,3.44,0,1.75-.89,2.73-2.55,2.73s-2.48-.98-2.48-2.7Z"/>
      <path class="cls-9" d="M45.36,122.92h2.29v5.93h2.46v-5.93h2.29v14.57h-2.29v-6.56h-2.46v6.56h-2.29v-14.57Z"/>
      <path class="cls-9" d="M55.87,122.92h3.1l2.37,14.57h-2.29l-.42-2.89v.04h-2.6l-.42,2.85h-2.12l2.37-14.57Zm2.5,9.74l-1.02-7.2h-.04l-1,7.2h2.06Z"/>
      <path class="cls-9" d="M61.98,134.03v-.83h2.16v1c0,1.04,.46,1.42,1.19,1.42s1.19-.37,1.19-1.46c0-1.21-.46-1.98-1.96-3.29-1.91-1.69-2.54-2.87-2.54-4.54,0-2.29,1.19-3.62,3.41-3.62s3.33,1.33,3.33,3.66v.6h-2.16v-.75c0-1.04-.42-1.44-1.15-1.44s-1.14,.4-1.14,1.39c0,1.06,.48,1.83,1.98,3.14,1.92,1.69,2.52,2.85,2.52,4.66,0,2.37-1.21,3.7-3.46,3.7s-3.37-1.33-3.37-3.66Z"/>
      <path class="cls-9" d="M72.48,134.03v-.83h2.16v1c0,1.04,.46,1.42,1.19,1.42s1.19-.37,1.19-1.46c0-1.21-.46-1.98-1.96-3.29-1.91-1.69-2.54-2.87-2.54-4.54,0-2.29,1.19-3.62,3.41-3.62s3.33,1.33,3.33,3.66v.6h-2.17v-.75c0-1.04-.42-1.44-1.14-1.44s-1.14,.4-1.14,1.39c0,1.06,.48,1.83,1.98,3.14,1.92,1.69,2.52,2.85,2.52,4.66,0,2.37-1.21,3.7-3.46,3.7s-3.37-1.33-3.37-3.66Z"/>
      <path class="cls-9" d="M82.41,125h-2.39v-2.08h7.08v2.08h-2.39v12.49h-2.29v-12.49Z"/>
      <path class="cls-9" d="M89,122.92h3.1l2.37,14.57h-2.29l-.42-2.89v.04h-2.6l-.42,2.85h-2.12l2.37-14.57Zm2.5,9.74l-1.02-7.2h-.04l-1,7.2h2.06Z"/>
      <path class="cls-9" d="M95.58,122.92h2.29v12.49h3.77v2.08h-6.06v-14.57Z"/>
      <path class="cls-9" d="M102.73,122.92h2.29v12.49h3.77v2.08h-6.06v-14.57Z"/>
      <path class="cls-9" d="M109.89,122.92h6.24v2.08h-3.95v3.85h3.14v2.08h-3.14v4.47h3.95v2.08h-6.24v-14.57Z"/>
      <path class="cls-9" d="M117.44,122.92h3.5c2.29,0,3.41,1.27,3.41,3.6v7.37c0,2.33-1.12,3.6-3.41,3.6h-3.5v-14.57Zm3.45,12.49c.73,0,1.17-.37,1.17-1.42v-7.58c0-1.04-.44-1.42-1.17-1.42h-1.17v10.41h1.17Z"/>
      <path class="cls-7" d="M56.92,159.03v-.61h1.59v.74c0,.77,.34,1.04,.87,1.04s.87-.28,.87-1.07c0-.89-.34-1.46-1.44-2.42-1.41-1.24-1.87-2.12-1.87-3.34,0-1.69,.87-2.67,2.51-2.67s2.45,.98,2.45,2.7v.44h-1.59v-.55c0-.77-.31-1.06-.84-1.06s-.84,.29-.84,1.03c0,.78,.35,1.35,1.46,2.32,1.41,1.24,1.86,2.1,1.86,3.44,0,1.75-.89,2.73-2.55,2.73s-2.48-.98-2.48-2.7Z"/>
      <path class="cls-7" d="M63.22,150.84h1.69v10.73h-1.69v-10.73Z"/>
      <path class="cls-7" d="M66.47,150.84h2.12l1.64,6.43h.03v-6.43h1.5v10.73h-1.73l-2.02-7.84h-.03v7.84h-1.5v-10.73Z"/>
      <path class="cls-7" d="M73.22,159.09v-5.77c0-1.66,.86-2.64,2.48-2.64s2.48,.98,2.48,2.64v1.14h-1.59v-1.24c0-.71-.34-1-.84-1s-.84,.29-.84,1v6c0,.71,.34,.98,.84,.98s.84-.28,.84-.98v-1.64h1.59v1.52c0,1.66-.86,2.64-2.48,2.64s-2.48-.98-2.48-2.64Z"/>
      <path class="cls-7" d="M79.51,150.84h4.6v1.53h-2.91v2.84h2.32v1.53h-2.32v3.3h2.91v1.53h-4.6v-10.73Z"/>
      <path class="cls-7" d="M88.11,160.41c0-1.53,.43-2.47,1.69-3.79,1.29-1.36,1.66-2.18,1.66-3.17s-.34-1.23-.87-1.23-.87,.29-.87,1.06v1.15h-1.59v-1.04c0-1.72,.86-2.7,2.51-2.7s2.52,.98,2.52,2.7c0,1.27-.52,2.41-2.09,4.06-1.01,1.07-1.27,1.61-1.27,2.36v.23h3.21v1.53h-4.88v-1.17Z"/>
      <path class="cls-7" d="M94.45,159.03v-5.64c0-1.72,.9-2.7,2.56-2.7s2.56,.98,2.56,2.7v5.64c0,1.72-.9,2.7-2.56,2.7s-2.56-.98-2.56-2.7Zm3.44,.11v-5.86c0-.77-.34-1.06-.87-1.06s-.87,.29-.87,1.06v5.86c0,.77,.34,1.06,.87,1.06s.87-.29,.87-1.06Z"/>
      <path class="cls-7" d="M103.38,153.39h-1.76v-1.2c1.43,0,1.93-.31,2.32-1.35h1.13v10.73h-1.69v-8.19Z"/>
      <path class="cls-7" d="M107.41,159.03v-.84h1.6v.97c0,.77,.34,1.04,.87,1.04s.87-.28,.87-1.04v-2.41c0-.77-.34-1.06-.87-1.06s-.87,.29-.87,1.06v.09h-1.6l.31-6h4.45v1.53h-2.94l-.14,2.56h.03c.31-.51,.78-.78,1.46-.78,1.24,0,1.87,.87,1.87,2.45v2.42c0,1.72-.86,2.7-2.52,2.7s-2.52-.98-2.52-2.7Z"/>
    </g>
    <line class="cls-6" x1="45.35" y1="143.07" x2="124.53" y2="143.07"/>
    <path class="cls-3" d="M125.2,68.43c-.05-.23-.11-.46-.21-.69,0,0,0,0,0,0-.54-1.36-1.87-2.63-3.84-3.64-.67-.36-1.07-1.07-1.03-1.83,0-.06,0-.12,0-.18,0-1.28-.92-2.51-2.59-3.47-2.2-1.26-5.76-2.09-9.76-2.09-.46,0-.91,.01-1.35,.04-.13,0-.26,.02-.39,.02-.32,.02-.64,.04-.96,.08-.13,.01-.25,.02-.38,.04-.35,.04-.7,.09-1.04,.14-.06,0-.13,.02-.2,.03-.42,.07-.83,.15-1.23,.23-.03,0-.05,.01-.08,.02-.36,.08-.71,.17-1.04,.26-.08,.02-.16,.05-.23,.07-.29,.08-.57,.17-.83,.27-.07,.03-.15,.05-.22,.08-.06,.02-.13,.04-.18,.06h0c-.6,.24-1.15,.49-1.63,.76-1.68,.96-2.59,2.19-2.59,3.47,0,.06,0,.13,0,.18,.02,.36-.06,.71-.23,1.02-.02,.04-.05,.08-.07,.11-.07,.11-.14,.21-.23,.3-.03,.03-.06,.07-.09,.1-.12,.11-.26,.22-.41,.3-1.97,1.02-3.3,2.28-3.84,3.64,0,0,0,0,0,0-.09,.23-.16,.46-.21,.69s-.07,.47-.07,.7c0,1.75,1.29,3.43,3.59,4.74,1.18,.67,2.62,1.26,4.28,1.73,1.1,.31,2.29,.58,3.55,.78,1.89,.3,3.94,.47,6.08,.47,5.71,0,10.77-1.18,13.91-2.98,2.3-1.31,3.59-2.99,3.59-4.74,0-.24-.02-.47-.07-.7Zm-4.18,4.28c-2.99,1.71-7.81,2.8-13.25,2.8s-10.26-1.09-13.25-2.8c-1.79-1.02-2.91-2.22-2.91-3.58,0-1.48,1.33-2.78,3.4-3.85,0,0,0,0,0,0,0,0,0,0,.01,0,.18-.1,.35-.21,.5-.34,.04-.03,.08-.07,.13-.11,.15-.13,.28-.27,.4-.42,0,0,.01-.02,.02-.02,.12-.16,.23-.34,.32-.52,.02-.05,.05-.1,.07-.15,.08-.17,.14-.35,.19-.54,0-.01,0-.02,.01-.03h0c.07-.31,.1-.63,.08-.96v-.1c0-.89,.75-1.65,1.92-2.31,.47-.27,1.01-.51,1.6-.73,.13-.05,.27-.1,.41-.14,.17-.06,.34-.11,.51-.16,.15-.04,.3-.09,.45-.13,.2-.05,.41-.1,.61-.15,.15-.04,.3-.07,.46-.11,.31-.07,.63-.12,.96-.18,.14-.02,.29-.04,.44-.06,.24-.03,.48-.07,.73-.09,.15-.02,.31-.03,.46-.05,.27-.02,.54-.04,.81-.06,.14,0,.27-.02,.41-.02,.41-.02,.83-.03,1.25-.03,3.73,0,7.05,.75,9.1,1.92,1.16,.66,1.92,1.43,1.92,2.31v.1c-.08,1.28,.6,2.49,1.73,3.1h0s0,0,0,0c2.08,1.07,3.4,2.36,3.4,3.85,0,1.36-1.13,2.56-2.91,3.58Z"/>
    <path class="cls-1" d="M121.02,72.72c-2.99,1.71-7.81,2.8-13.25,2.8s-10.26-1.09-13.25-2.8c-1.79-1.02-2.91-2.22-2.91-3.58,0-1.48,1.33-2.78,3.4-3.85,0,0,0,0,0,0,0,0,0,0,.01,0,.18-.1,.35-.21,.5-.34,.04-.03,.08-.07,.13-.11,.15-.13,.28-.27,.4-.42,0,0,.01-.02,.02-.02,.12-.16,.23-.34,.32-.52,.02-.05,.05-.1,.07-.15,.08-.17,.14-.35,.19-.54,0-.01,0-.02,.01-.03h0c.07-.31,.1-.63,.08-.96v-.1c0-.89,.75-1.65,1.92-2.31,.47-.27,1.01-.51,1.6-.73,.13-.05,.27-.1,.41-.14,.17-.06,.34-.11,.51-.16,.15-.04,.3-.09,.45-.13,.2-.05,.41-.1,.61-.15,.15-.04,.3-.07,.46-.11,.31-.07,.63-.12,.96-.18,.14-.02,.29-.04,.44-.06,.24-.03,.48-.07,.73-.09,.15-.02,.31-.03,.46-.05,.27-.02,.54-.04,.81-.06,.14,0,.27-.02,.41-.02,.41-.02,.83-.03,1.25-.03,3.73,0,7.05,.75,9.1,1.92,1.16,.66,1.92,1.43,1.92,2.31v.1c-.08,1.28,.6,2.49,1.73,3.1h0s0,0,0,0c2.08,1.07,3.4,2.36,3.4,3.85,0,1.36-1.13,2.56-2.91,3.58Z"/>
    <path class="cls-9" d="M78.32,64.82c-.21,0-.41,.12-.49,.32s-.05,.42,.08,.58l2.04,2.43h-1.62c-.21,0-.41,.12-.49,.32s-.05,.42,.08,.58l2.04,2.43h-7.49l2.04-2.43c.14-.16,.16-.39,.08-.58-.09-.2-.28-.32-.49-.32h-1.62l2.04-2.43c.14-.16,.16-.39,.08-.58-.09-.2-.28-.32-.49-.32h-1.62l3.74-4.47,3.74,4.47h-1.62Z"/>
    <path class="cls-9" d="M64.98,60.43c-.21,0-.41,.12-.49,.32s-.05,.42,.08,.58l3.25,3.88h-2.84c-.21,0-.41,.12-.49,.32s-.05,.42,.08,.58l3.25,3.88h-11.79l3.25-3.89c.14-.16,.16-.39,.08-.58-.09-.2-.28-.32-.49-.32h-2.84l3.25-3.89c.14-.16,.16-.39,.08-.58-.09-.2-.28-.32-.49-.32h-2.84l5.89-7.03,5.89,7.03h-2.83v.02Z"/>
    <path class="cls-9" d="M49.79,64.82c-.21,0-.41,.12-.49,.32s-.05,.42,.08,.58l2.04,2.43h-1.62c-.21,0-.41,.12-.49,.32s-.05,.42,.08,.58l2.04,2.43h-7.5l2.04-2.43c.14-.16,.16-.39,.08-.58-.09-.2-.28-.32-.49-.32h-1.62l2.04-2.43c.14-.16,.16-.39,.08-.58-.09-.2-.28-.32-.49-.32h-1.62l3.74-4.47,3.74,4.47h-1.61Z"/>
    <path class="cls-8" d="M92.38,39.91c.38-.73,1.11-1.17,1.93-1.17h.01c.82,0,1.53,.44,1.92,1.17l6.85,13.28c-3.53,.77-6.47,2.03-9.11,3.57l-5.15-9.98,3.55-6.88Zm-37.15,8.57c-.93,0-1.8,.02-2.63,.07l6.26-12.15c.54,.69,1.22,1.28,2.33,1.28,1.46,0,2.19-1.06,2.79-1.92,.62-.9,1.05-1.45,1.88-1.45s1.26,.55,1.88,1.45c.59,.85,1.34,1.92,2.79,1.92s2.19-1.06,2.79-1.92c.62-.9,1.05-1.45,1.89-1.45s1.27,.55,1.89,1.45,1.34,1.92,2.79,1.92c1.11,0,1.81-.61,2.33-1.29l10.81,20.96c-2.09,1.31-4,2.79-5.86,4.34-.72-.55-1.45-1.11-2.17-1.66-7.33-5.67-14.89-11.53-29.81-11.53Z"/>
    <path class="cls-2" d="M104.65,19.08c0-3.89-3.16-7.06-7.06-7.06s-7.06,3.16-7.06,7.06,3.16,7.06,7.06,7.06,7.06-3.16,7.06-7.06Z"/>
    <path class="cls-2" d="M97.59,10.32c.31,0,.55-.24,.55-.55v-2.9c0-.31-.24-.55-.55-.55s-.55,.24-.55,.55v2.9c0,.31,.25,.55,.55,.55Z"/>
    <path class="cls-2" d="M100.22,26.28c-.28,.1-.43,.42-.33,.7l1,2.73c.08,.22,.3,.36,.51,.36,.07,0,.12-.01,.19-.03,.28-.1,.43-.42,.33-.7l-1-2.73c-.11-.28-.42-.43-.7-.33Z"/>
    <path class="cls-2" d="M91.89,12.05c.11,.13,.26,.2,.42,.2,.12,0,.25-.04,.35-.13,.23-.2,.26-.54,.07-.78l-1.87-2.22c-.2-.23-.54-.26-.78-.07-.23,.2-.26,.54-.07,.78l1.88,2.22Z"/>
    <path class="cls-2" d="M106.95,25.12c.09,.05,.18,.08,.27,.08,.19,0,.37-.1,.47-.27,.15-.26,.07-.6-.2-.74l-2.52-1.46c-.26-.15-.6-.07-.74,.2-.15,.26-.07,.6,.2,.74l2.52,1.46Z"/>
    <path class="cls-2" d="M86.54,17.69l2.86,.5s.07,.01,.1,.01c.26,0,.49-.19,.54-.45,.05-.3-.14-.58-.45-.64l-2.86-.5c-.31-.05-.58,.14-.64,.45-.04,.28,.15,.57,.45,.62Z"/>
    <path class="cls-2" d="M105.14,17.75c.04,.26,.27,.45,.54,.45,.03,0,.07,0,.1-.01l2.86-.5c.3-.05,.49-.34,.45-.64-.05-.3-.33-.49-.64-.45l-2.86,.5c-.31,.07-.5,.35-.45,.65Z"/>
    <path class="cls-2" d="M87.48,24.92c.1,.18,.28,.27,.47,.27,.09,0,.19-.02,.27-.08l2.52-1.46c.26-.15,.35-.48,.2-.74-.15-.26-.48-.35-.74-.2l-2.52,1.46c-.25,.15-.34,.48-.2,.74Z"/>
    <path class="cls-2" d="M102.87,12.25c.15,0,.31-.07,.42-.2l1.87-2.22c.2-.23,.16-.58-.07-.78-.23-.2-.58-.16-.78,.07l-1.87,2.22c-.2,.23-.16,.58,.07,.78,.12,.09,.24,.13,.36,.13Z"/>
    <path class="cls-2" d="M94.27,26.61l-1,2.73c-.1,.28,.04,.6,.33,.7,.07,.02,.12,.03,.19,.03,.22,0,.44-.14,.51-.36l1-2.73c.1-.28-.04-.6-.33-.7s-.6,.04-.7,.33Z"/>
    <path class="cls-2" d="M97.04,27.29v1.46c0,.31,.24,.55,.55,.55s.55-.24,.55-.55v-1.46c0-.31-.24-.55-.55-.55s-.55,.25-.55,.55Z"/>
    <path class="cls-2" d="M94.27,10.46c.08,.22,.3,.36,.51,.36,.07,0,.12-.01,.19-.03,.28-.1,.43-.42,.33-.7l-.5-1.37c-.1-.28-.42-.43-.7-.33s-.43,.42-.33,.7l.5,1.37Z"/>
    <path class="cls-2" d="M103.39,26.84c.11,.13,.26,.2,.42,.2,.12,0,.25-.04,.35-.13,.23-.2,.26-.54,.07-.78l-.94-1.12c-.2-.23-.54-.26-.78-.07-.23,.2-.26,.54-.07,.78l.95,1.12Z"/>
    <path class="cls-2" d="M88.94,14.72l1.26,.73c.09,.05,.18,.08,.27,.08,.19,0,.37-.1,.47-.27,.16-.27,.08-.6-.19-.76l-1.26-.73c-.26-.15-.6-.07-.74,.2-.16,.26-.08,.6,.19,.76Z"/>
    <path class="cls-2" d="M107.03,21.3s.07,.01,.1,.01c.26,0,.49-.19,.54-.45,.05-.3-.14-.58-.45-.64l-1.43-.25c-.3-.05-.58,.14-.64,.45-.05,.3,.14,.58,.45,.64l1.43,.24Z"/>
    <path class="cls-2" d="M104.23,15.25c.1,.18,.28,.27,.47,.27,.09,0,.19-.02,.27-.08l1.26-.73c.26-.15,.35-.48,.2-.74s-.48-.35-.74-.2l-1.26,.73c-.26,.15-.35,.48-.2,.74Z"/>
    <path class="cls-2" d="M91.37,27.04c.15,0,.31-.07,.42-.2l.94-1.12c.2-.23,.16-.58-.07-.78-.23-.2-.58-.16-.78,.07l-.94,1.12c-.2,.23-.16,.58,.07,.78,.12,.09,.24,.13,.36,.13Z"/>
    <path class="cls-2" d="M100.22,10.78c.07,.02,.12,.03,.19,.03,.22,0,.44-.14,.51-.36l.5-1.37c.1-.28-.04-.6-.33-.7s-.6,.04-.7,.33l-.5,1.37c-.11,.28,.04,.6,.33,.7Z"/>
    <path class="cls-9" d="M110.19,52.14c-2.49,0-4.73,.22-6.79,.58l-7.01-13.58c-.56-1.08-1.66-1.76-2.89-1.76h-.01c-1.23,0-2.34,.68-2.9,1.76l-3.19,6.18-5.41-10.5h0l-7.63-14.82c-.9-1.74-2.66-2.81-4.62-2.81s-3.72,1.08-4.62,2.81l-7.63,14.82h0l-6.99,13.55c-3.31,.25-6.33,.8-9.2,1.7-.28,.09-.45,.39-.36,.69,.09,.28,.39,.45,.69,.36,2.88-.9,5.91-1.46,9.26-1.68,1.11-.08,2.26-.12,3.53-.12,14.54,0,21.63,5.49,29.13,11.3,.66,.5,1.31,1.01,1.97,1.51-.26,.22-.51,.44-.78,.66l-.38,.33c-.23,.2-.26,.54-.07,.78,.11,.13,.26,.2,.42,.2,.12,0,.25-.04,.35-.13l.38-.33c.44-.36,.87-.72,1.3-1.1,5.88-4.89,12.11-9.3,23.44-9.3,.31,0,.55-.24,.55-.55s-.25-.55-.55-.55Zm-18.62-12.49c.38-.73,1.11-1.17,1.93-1.17h.01c.82,0,1.53,.44,1.92,1.17l6.85,13.28c-3.53,.77-6.47,2.03-9.11,3.57l-5.15-9.98,3.55-6.88Zm-25.48-19.13c.71-1.39,2.08-2.22,3.65-2.22s2.92,.83,3.65,2.22l7.48,14.52c-.56,.8-.99,1.28-1.77,1.28-.84,0-1.27-.55-1.89-1.45s-1.34-1.92-2.79-1.92-2.2,1.06-2.79,1.92c-.62,.9-1.05,1.45-1.88,1.45s-1.27-.55-1.88-1.45c-.59-.85-1.34-1.92-2.79-1.92s-2.19,1.06-2.79,1.92c-.62,.9-1.05,1.45-1.88,1.45-.79,0-1.2-.48-1.76-1.27l7.48-14.53Zm-11.67,27.7c-.93,0-1.8,.02-2.63,.07l6.26-12.15c.54,.69,1.22,1.28,2.33,1.28,1.46,0,2.19-1.06,2.79-1.92,.62-.9,1.05-1.45,1.88-1.45s1.26,.55,1.88,1.45c.59,.85,1.34,1.92,2.79,1.92s2.19-1.06,2.79-1.92c.62-.9,1.05-1.45,1.89-1.45s1.27,.55,1.89,1.45,1.34,1.92,2.79,1.92c1.11,0,1.81-.61,2.33-1.29l10.81,20.96c-2.09,1.31-4,2.79-5.86,4.34-.72-.55-1.45-1.11-2.17-1.66-7.33-5.67-14.89-11.53-29.81-11.53Z"/>
    <path class="cls-9" d="M81.06,64.82c.09-.2,.05-.42-.08-.58l-4.93-5.87c-.21-.25-.64-.25-.84,0l-4.93,5.87c-.14,.16-.16,.39-.08,.58,.09,.2,.28,.32,.49,.32h1.62l-2.04,2.43c-.14,.16-.16,.39-.08,.58,.09,.2,.28,.32,.49,.32h1.62l-2.04,2.43c-.14,.16-.16,.39-.08,.58,.09,.2,.28,.32,.49,.32h3.29v2.85c0,.31,.24,.55,.55,.55h2.17c.31,0,.55-.24,.55-.55v-2.85h3.29c.21,0,.41-.12,.49-.32s.05-.42-.08-.58l-2.04-2.43h1.62c.21,0,.41-.12,.49-.32s.05-.42-.08-.58l-2.04-2.43h1.62c.24,0,.44-.12,.53-.32Zm-4.87,9.27h-1.07v-2.3h1.07v2.3Zm1.59-10.05c-.21,0-.41,.12-.49,.32s-.05,.42,.08,.58l2.04,2.43h-1.62c-.21,0-.41,.12-.49,.32s-.05,.42,.08,.58l2.04,2.43h-7.49l2.04-2.43c.14-.16,.16-.39,.08-.58-.09-.2-.28-.32-.49-.32h-1.62l2.04-2.43c.14-.16,.16-.39,.08-.58-.09-.2-.28-.32-.49-.32h-1.62l3.74-4.47,3.74,4.47h-1.62Z"/>
    <path class="cls-9" d="M68.95,60.44c.09-.2,.05-.42-.08-.58l-7.07-8.43c-.21-.25-.64-.25-.84,0l-7.07,8.43c-.14,.16-.16,.39-.08,.58,.09,.2,.28,.32,.49,.32h2.84l-3.25,3.89c-.14,.16-.16,.39-.08,.58,.09,.2,.28,.32,.49,.32h2.84l-3.25,3.88c-.14,.16-.16,.39-.08,.58,.09,.2,.28,.32,.49,.32h4.96v4.33c0,.31,.24,.55,.55,.55h3.12c.31,0,.55-.24,.55-.55v-4.33h4.96c.21,0,.41-.12,.49-.32s.05-.42-.08-.58l-3.25-3.88h2.84c.21,0,.41-.12,.49-.32s.05-.42-.08-.58l-3.25-3.88h2.84c.23-.02,.43-.14,.51-.33Zm-6.56,13.65h-2.03v-3.78h2.03v3.78Zm2.05-14.44c-.21,0-.41,.12-.49,.32s-.05,.42,.08,.58l3.25,3.88h-2.84c-.21,0-.41,.12-.49,.32s-.05,.42,.08,.58l3.25,3.88h-11.79l3.25-3.89c.14-.16,.16-.39,.08-.58-.09-.2-.28-.32-.49-.32h-2.84l3.25-3.89c.14-.16,.16-.39,.08-.58-.09-.2-.28-.32-.49-.32h-2.84l5.89-7.03,5.89,7.03h-2.83v.02Z"/>
    <path class="cls-9" d="M52.55,64.82c.09-.2,.05-.42-.08-.58l-4.93-5.87c-.21-.25-.64-.25-.84,0l-4.93,5.87c-.14,.16-.16,.39-.08,.58,.09,.2,.28,.32,.49,.32h1.62l-2.04,2.43c-.14,.16-.16,.39-.08,.58,.09,.2,.28,.32,.49,.32h1.62l-2.04,2.43c-.14,.16-.16,.39-.08,.58,.09,.2,.28,.32,.49,.32h3.29v2.85c0,.31,.24,.55,.55,.55h2.17c.31,0,.55-.24,.55-.55v-2.85h3.29c.21,0,.41-.12,.49-.32s.05-.42-.08-.58l-2.01-2.43h1.62c.21,0,.41-.12,.49-.32s.05-.42-.08-.58l-2.04-2.43h1.62c.22,0,.41-.12,.5-.32Zm-4.88,9.27h-1.07v-2.3h1.07v2.3Zm1.59-10.05c-.21,0-.41,.12-.49,.32s-.05,.42,.08,.58l2.04,2.43h-1.62c-.21,0-.41,.12-.49,.32s-.05,.42,.08,.58l2.04,2.43h-7.5l2.04-2.43c.14-.16,.16-.39,.08-.58-.09-.2-.28-.32-.49-.32h-1.62l2.04-2.43c.14-.16,.16-.39,.08-.58-.09-.2-.28-.32-.49-.32h-1.62l3.74-4.47,3.74,4.47h-1.61Z"/>
    <path class="cls-8" d="M76.19,74.09h-1.07v-2.3h1.07v2.3Z"/>
    <path class="cls-8" d="M62.39,74.09h-2.03v-3.78h2.03v3.78Z"/>
    <path class="cls-8" d="M47.67,74.09h-1.07v-2.3h1.07v2.3Z"/>
    <g>
      <path class="cls-9" d="M128.28,56.73l1.3,1.55h-.88c-.21,0-.41,.12-.49,.32s-.05,.42,.08,.58l1.3,1.54h-4.91l1.3-1.54c.14-.16,.16-.39,.08-.58-.09-.2-.28-.32-.49-.32h-.88l1.3-1.55c.14-.16,.16-.39,.08-.58-.09-.2-.28-.32-.49-.32h-.88l2.45-2.92,2.45,2.92h-.88c-.21,0-.41,.12-.49,.32-.13,.2-.1,.43,.03,.58Z"/>
      <path class="cls-9" d="M130.72,55.83c.09-.2,.05-.42-.08-.58l-3.62-4.31c-.21-.25-.64-.25-.84,0l-3.62,4.31c-.14,.16-.16,.39-.08,.58,.09,.2,.28,.32,.49,.32h.88l-1.3,1.55c-.14,.16-.16,.39-.08,.58,.09,.2,.28,.32,.49,.32h.88l-1.3,1.54c-.14,.16-.16,.39-.08,.58,.09,.2,.28,.32,.49,.32h2.28v2.8c0,.31,.24,.55,.55,.55h1.6c.31,0,.55-.24,.55-.55v-2.8h2.28c.21,0,.41-.12,.49-.32s.05-.42-.08-.58l-1.3-1.54h.88c.21,0,.41-.12,.49-.32s.05-.42-.08-.58l-1.3-1.55h.88c.26,0,.46-.12,.55-.32Zm-3.87,7.48h-.5v-2.26h.5v2.26Zm.89-7.36l1.3,1.55h-.88c-.21,0-.41,.12-.49,.32s-.05,.42,.08,.58l1.3,1.54h-4.91l1.3-1.54c.14-.16,.16-.39,.08-.58-.09-.2-.28-.32-.49-.32h-.88l1.3-1.55c.14-.16,.16-.39,.08-.58-.09-.2-.28-.32-.49-.32h-.88l2.45-2.92,2.45,2.92h-.88c-.21,0-.41,.12-.49,.32-.13,.2-.1,.43,.03,.58Z"/>
      <path class="cls-8" d="M126.85,63.31h-.5v-2.26h.5v2.26Z"/>
    </g>
    <path class="cls-3" d="M102.18,66.48c.3-.21,.65-.33,1.03-.33s.72,.12,1.03,.33c.23,.16,.53,.16,.75,0,.3-.21,.65-.33,1.03-.33s.72,.12,1.03,.33c.23,.16,.53,.16,.75,0,.3-.21,.65-.33,1.03-.33s.72,.12,1.03,.33c.3,.21,.72,.13,.93-.17s.13-.72-.17-.93c-.52-.36-1.13-.56-1.78-.56-.5,0-.97,.12-1.4,.34-.43-.22-.91-.34-1.4-.34s-.97,.12-1.4,.34c-.43-.22-.91-.34-1.4-.34-.65,0-1.26,.2-1.78,.56-.3,.21-.38,.62-.17,.93,.21,.3,.62,.38,.93,.17Z"/>
    <path class="cls-3" d="M97.97,70.06c.3-.21,.65-.33,1.03-.33s.72,.12,1.03,.33c.23,.16,.53,.16,.75,0,.3-.21,.65-.33,1.03-.33s.72,.12,1.03,.33c.23,.16,.53,.16,.75,0,.3-.21,.65-.33,1.03-.33s.72,.12,1.03,.33c.3,.21,.72,.13,.93-.17,.21-.3,.13-.72-.17-.93-.52-.36-1.13-.56-1.78-.56-.5,0-.97,.12-1.4,.34-.43-.22-.91-.34-1.4-.34s-.97,.12-1.4,.34c-.43-.22-.91-.34-1.4-.34-.65,0-1.26,.2-1.78,.56-.3,.21-.38,.62-.17,.93,.21,.3,.62,.38,.93,.17Z"/>
    <polyline class="cls-4" points="143.64 170.79 143.64 146.14 169.11 146.14"/>
  </g>
</svg>