<?xml version="1.0" encoding="UTF-8"?><svg id="Layer_2" xmlns="http://www.w3.org/2000/svg" viewBox="0 0 260.67 186.34"><defs><style>.cls-1{fill:#f2f2ef;}.cls-2{fill:#eaeaef;}.cls-3{fill:#fff;}.cls-4{fill:#7c7e9f;}.cls-5{fill:#939598;}.cls-6{fill:#b3b3c7;}.cls-7{fill:#bdbcbb;}.cls-8{fill:#dbdae3;}.cls-9{fill:#d5d5df;}.cls-10{fill:#203764;}.cls-11{fill:#1a3668;}.cls-12{fill:#3b4160;}</style></defs><g id="Layer_2-2"><rect class="cls-2" width="260.67" height="186.34"/><path class="cls-11" d="m12.5,29.11c-.75-.8-1.12-1.92-1.12-3.38v-9.57c0-1.46.37-2.58,1.12-3.38.75-.8,1.82-1.2,3.22-1.2s2.48.4,3.22,1.2c.75.8,1.12,1.92,1.12,3.38v9.57c0,1.46-.37,2.58-1.12,3.38-.75.8-1.82,1.2-3.22,1.2s-2.48-.4-3.22-1.2Zm4.71-3.2v-9.93c0-1.2-.49-1.79-1.48-1.79s-1.48.6-1.48,1.79v9.93c0,1.2.49,1.79,1.48,1.79s1.48-.6,1.48-1.79Z"/><path class="cls-11" d="m21.99,11.84h4.37c1.42,0,2.49.38,3.2,1.14.71.76,1.07,1.88,1.07,3.35v9.2c0,1.47-.36,2.59-1.07,3.35-.71.76-1.78,1.14-3.2,1.14h-4.37V11.84Zm4.32,15.6c.47,0,.83-.14,1.08-.42.25-.28.38-.73.38-1.35v-9.46c0-.62-.13-1.07-.38-1.35-.25-.28-.61-.42-1.08-.42h-1.46v13h1.46Z"/><path class="cls-11" d="m34.71,11.84h3.87l2.96,18.2h-2.86l-.52-3.61v.05h-3.25l-.52,3.56h-2.65l2.96-18.2Zm3.12,12.17l-1.27-9h-.05l-1.25,9h2.57Z"/><path class="cls-11" d="m47.08,11.84h7.57v2.6h-4.71v5.07h3.69v2.6h-3.69v7.93h-2.86V11.84Z"/><path class="cls-11" d="m57.01,29.12c-.73-.79-1.09-1.92-1.09-3.39v-13.88h2.86v14.09c0,.62.12,1.07.38,1.35.25.28.61.42,1.08.42s.83-.14,1.08-.42c.25-.28.38-.73.38-1.35v-14.09h2.76v13.88c0,1.47-.36,2.6-1.09,3.39-.73.79-1.79,1.18-3.17,1.18s-2.44-.39-3.17-1.18Z"/><path class="cls-11" d="m66.48,11.84h3.59l2.78,10.89h.05v-10.89h2.55v18.2h-2.94l-3.43-13.29h-.05v13.29h-2.55V11.84Z"/><path class="cls-11" d="m77.58,11.84h4.37c1.42,0,2.49.38,3.2,1.14.71.76,1.07,1.88,1.07,3.35v9.2c0,1.47-.36,2.59-1.07,3.35-.71.76-1.78,1.14-3.2,1.14h-4.37V11.84Zm4.32,15.6c.47,0,.83-.14,1.08-.42.25-.28.38-.73.38-1.35v-9.46c0-.62-.13-1.07-.38-1.35-.25-.28-.61-.42-1.08-.42h-1.46v13h1.46Z"/><path class="cls-11" d="m88.14,11.84h2.86v18.2h-2.86V11.84Z"/><path class="cls-11" d="m93.13,11.84h3.59l2.78,10.89h.05v-10.89h2.55v18.2h-2.94l-3.43-13.29h-.05v13.29h-2.55V11.84Z"/><path class="cls-11" d="m105.12,29.12c-.73-.79-1.09-1.92-1.09-3.39v-9.57c0-1.47.36-2.6,1.09-3.39.73-.79,1.79-1.18,3.17-1.18s2.44.39,3.17,1.18c.73.79,1.09,1.92,1.09,3.39v1.56h-2.7v-1.74c0-1.2-.49-1.79-1.48-1.79s-1.48.6-1.48,1.79v9.96c0,1.18.49,1.77,1.48,1.77s1.48-.59,1.48-1.77v-3.56h-1.43v-2.6h4.13v5.95c0,1.47-.36,2.6-1.09,3.39-.73.79-1.79,1.18-3.17,1.18s-2.44-.39-3.17-1.18Z"/><path class="cls-11" d="m118.56,11.84h7.57v2.6h-4.71v5.07h3.69v2.6h-3.69v7.93h-2.86V11.84Z"/><path class="cls-11" d="m128.41,29.11c-.75-.8-1.12-1.92-1.12-3.38v-9.57c0-1.46.37-2.58,1.12-3.38.75-.8,1.82-1.2,3.22-1.2s2.48.4,3.22,1.2c.75.8,1.12,1.92,1.12,3.38v9.57c0,1.46-.37,2.58-1.12,3.38-.75.8-1.82,1.2-3.22,1.2s-2.48-.4-3.22-1.2Zm4.71-3.2v-9.93c0-1.2-.49-1.79-1.48-1.79s-1.48.6-1.48,1.79v9.93c0,1.2.49,1.79,1.48,1.79s1.48-.6,1.48-1.79Z"/><path class="cls-11" d="m137.9,11.84h4.24c1.47,0,2.55.34,3.22,1.03.68.68,1.01,1.74,1.01,3.16v1.12c0,1.89-.62,3.09-1.87,3.59v.05c.69.21,1.18.63,1.47,1.27.29.64.43,1.5.43,2.57v3.2c0,.52.02.94.05,1.26.03.32.12.64.26.95h-2.91c-.1-.29-.17-.57-.21-.83-.04-.26-.05-.73-.05-1.4v-3.33c0-.83-.13-1.41-.4-1.74-.27-.33-.73-.49-1.39-.49h-.99v7.8h-2.86V11.84Zm3.9,7.8c.57,0,1-.15,1.29-.44s.43-.79.43-1.48v-1.4c0-.66-.12-1.14-.35-1.43-.23-.29-.6-.44-1.11-.44h-1.3v5.2h1.04Z"/><path class="cls-11" d="m152.54,11.84h4.37c1.42,0,2.49.38,3.2,1.14.71.76,1.07,1.88,1.07,3.35v9.2c0,1.47-.36,2.59-1.07,3.35-.71.76-1.78,1.14-3.2,1.14h-4.37V11.84Zm4.32,15.6c.47,0,.83-.14,1.08-.42.25-.28.38-.73.38-1.35v-9.46c0-.62-.13-1.07-.38-1.35-.25-.28-.61-.42-1.08-.42h-1.46v13h1.46Z"/><path class="cls-11" d="m165.25,11.84h3.87l2.96,18.2h-2.86l-.52-3.61v.05h-3.25l-.52,3.56h-2.65l2.96-18.2Zm3.12,12.17l-1.27-9h-.05l-1.25,9h2.57Z"/><path class="cls-11" d="m174.51,14.44h-2.99v-2.6h8.84v2.6h-2.99v15.6h-2.86v-15.6Z"/><path class="cls-11" d="m182.75,11.84h3.87l2.96,18.2h-2.86l-.52-3.61v.05h-3.25l-.52,3.56h-2.65l2.96-18.2Zm3.12,12.17l-1.27-9h-.05l-1.25,9h2.57Z"/><path class="cls-11" d="m163.16,85.27c-1.03,0-1.86.83-1.86,1.86v6.87l-13.88-12.49c1.2-2.83-.12-6.1-2.95-7.3-2.33-.99-5.04-.28-6.59,1.73l-19.7-6.15c-.13-3.07-2.72-5.46-5.79-5.34-.68.03-1.36.18-1.99.45l-12.12-22.37c-.75-.7-1.92-.66-2.62.09-.63.68-.67,1.72-.09,2.44l12.12,22.39c-.42.78-.64,1.66-.65,2.54.02,3.08,2.54,5.55,5.61,5.53,1.73-.01,3.35-.83,4.4-2.2l19.7,6.16c.11,3,2.57,5.37,5.57,5.37.89-.01,1.76-.23,2.54-.65l13.59,12.21h-6.42c-1.03,0-1.86.83-1.86,1.86s.83,1.86,1.86,1.86h11.14c1.03,0,1.86-.83,1.86-1.86v-11.14c0-1.03-.83-1.86-1.86-1.86Zm-50.56-13.42c-1.03,0-1.86-.83-1.86-1.86s.83-1.86,1.86-1.86,1.86.83,1.86,1.86-.83,1.86-1.86,1.86Zm29.71,9.28c-1.03,0-1.86-.83-1.86-1.86s.83-1.86,1.86-1.86,1.86.83,1.86,1.86-.83,1.86-1.86,1.86Z"/><rect class="cls-11" x="185.68" y="134.47" width="48.73" height="29.16"/><path class="cls-11" d="m172.11,96.4h3.68c1.2,0,2.1.32,2.7.96.6.64.9,1.59.9,2.83v7.76c0,1.24-.3,2.19-.9,2.83-.6.64-1.5.96-2.7.96h-3.68v-15.35Zm3.64,13.16c.39,0,.7-.12.91-.35s.32-.61.32-1.14v-7.98c0-.53-.11-.91-.32-1.14-.21-.23-.52-.35-.91-.35h-1.23v10.96h1.23Z"/><path class="cls-11" d="m181.01,96.4h3.57c1.24,0,2.15.29,2.72.87.57.58.85,1.47.85,2.66v.94c0,1.59-.53,2.6-1.58,3.03v.04c.58.18,1,.53,1.24,1.07.24.54.36,1.26.36,2.17v2.7c0,.44.01.79.04,1.06s.1.54.22.8h-2.46c-.09-.25-.15-.48-.18-.7s-.04-.61-.04-1.18v-2.81c0-.7-.11-1.19-.34-1.47-.23-.28-.62-.42-1.17-.42h-.83v6.58h-2.41v-15.35Zm3.29,6.58c.48,0,.84-.12,1.08-.37s.36-.67.36-1.25v-1.18c0-.56-.1-.96-.3-1.21-.2-.25-.51-.37-.93-.37h-1.1v4.39h.88Z"/><path class="cls-11" d="m190.61,110.96c-.63-.67-.94-1.62-.94-2.85v-8.07c0-1.23.31-2.18.94-2.85.63-.67,1.54-1.01,2.72-1.01s2.09.34,2.72,1.01c.63.67.94,1.62.94,2.85v8.07c0,1.23-.31,2.18-.94,2.85-.63.67-1.54,1.01-2.72,1.01s-2.09-.34-2.72-1.01Zm3.97-2.7v-8.38c0-1.01-.42-1.51-1.25-1.51s-1.25.5-1.25,1.51v8.38c0,1.01.42,1.51,1.25,1.51s1.25-.5,1.25-1.51Z"/><path class="cls-11" d="m198.62,96.4h3.55c1.2,0,2.1.32,2.7.96.6.64.9,1.59.9,2.83v1.51c0,1.24-.3,2.19-.9,2.83-.6.64-1.5.96-2.7.96h-1.14v6.25h-2.41v-15.35Zm3.55,6.91c.39,0,.69-.11.89-.33.2-.22.3-.59.3-1.12v-1.82c0-.53-.1-.9-.3-1.12-.2-.22-.49-.33-.89-.33h-1.14v4.71h1.14Z"/><path class="cls-11" d="m207.08,96.4h3.55c1.2,0,2.1.32,2.7.96.6.64.9,1.59.9,2.83v1.51c0,1.24-.3,2.19-.9,2.83-.6.64-1.5.96-2.7.96h-1.14v6.25h-2.41v-15.35Zm3.55,6.91c.39,0,.69-.11.89-.33.2-.22.3-.59.3-1.12v-1.82c0-.53-.1-.9-.3-1.12-.2-.22-.49-.33-.89-.33h-1.14v4.71h1.14Z"/><path class="cls-11" d="m215.55,96.4h6.58v2.19h-4.17v4.06h3.31v2.19h-3.31v4.71h4.17v2.19h-6.58v-15.35Z"/><path class="cls-11" d="m223.51,96.4h3.68c1.2,0,2.1.32,2.7.96.6.64.9,1.59.9,2.83v7.76c0,1.24-.3,2.19-.9,2.83-.6.64-1.5.96-2.7.96h-3.68v-15.35Zm3.64,13.16c.39,0,.7-.12.91-.35s.32-.61.32-1.14v-7.98c0-.53-.11-.91-.32-1.14-.21-.23-.52-.35-.91-.35h-1.23v10.96h1.23Z"/><path class="cls-11" d="m157.24,118.9h2.68c.92,0,1.58.21,2,.64.42.43.63,1.08.63,1.96v.45c0,.58-.09,1.06-.28,1.42s-.48.63-.86.79v.03c.88.3,1.33,1.09,1.33,2.36v.97c0,.87-.23,1.54-.69,2s-1.13.69-2.01.69h-2.8v-11.31Zm2.47,4.6c.36,0,.62-.09.8-.27.18-.18.27-.49.27-.92v-.63c0-.41-.07-.71-.22-.89s-.37-.27-.69-.27h-.86v2.99h.7Zm.32,5.09c.31,0,.54-.08.69-.25.15-.17.23-.46.23-.86v-.99c0-.52-.09-.88-.27-1.07s-.47-.3-.88-.3h-.79v3.47h1.02Z"/><path class="cls-11" d="m165.46,125.4l-2.15-6.5h1.89l1.21,4.15h.03l1.21-4.15h1.73l-2.15,6.5v4.81h-1.78v-4.81Z"/><path class="cls-11" d="m173.42,118.9h2.54l1.13,8.09h.03l1.13-8.09h2.54v11.31h-1.68v-8.56h-.03l-1.29,8.56h-1.49l-1.29-8.56h-.03v8.56h-1.55v-11.31Z"/><path class="cls-11" d="m183.01,129.63c-.46-.5-.69-1.2-.69-2.1v-5.95c0-.9.23-1.6.69-2.1.46-.5,1.13-.74,2-.74s1.54.25,2,.74c.46.5.7,1.2.7,2.1v5.95c0,.9-.23,1.6-.7,2.1-.46.5-1.13.74-2,.74s-1.54-.25-2-.74Zm2.92-1.99v-6.17c0-.74-.31-1.12-.92-1.12s-.92.37-.92,1.12v6.17c0,.74.31,1.11.92,1.11s.92-.37.92-1.11Z"/><path class="cls-11" d="m189.23,118.9h2.63c.92,0,1.58.21,2,.64.42.43.63,1.08.63,1.96v.69c0,1.17-.39,1.92-1.16,2.23v.03c.43.13.73.39.91.79s.27.93.27,1.6v1.99c0,.32.01.58.03.78.02.2.08.4.16.59h-1.81c-.06-.18-.11-.36-.13-.52-.02-.16-.03-.45-.03-.87v-2.07c0-.52-.08-.88-.25-1.08s-.46-.31-.86-.31h-.61v4.85h-1.78v-11.31Zm2.42,4.85c.36,0,.62-.09.8-.27s.27-.49.27-.92v-.87c0-.41-.07-.71-.22-.89s-.38-.27-.69-.27h-.81v3.23h.65Z"/><path class="cls-11" d="m196.06,118.9h4.85v1.62h-3.07v2.99h2.44v1.62h-2.44v3.47h3.07v1.62h-4.85v-11.31Z"/><path class="cls-11" d="m206.55,120.52h-1.86v-1.62h5.49v1.62h-1.86v9.69h-1.78v-9.69Z"/><path class="cls-11" d="m211.36,118.9h1.78v4.6h1.91v-4.6h1.78v11.31h-1.78v-5.09h-1.91v5.09h-1.78v-11.31Z"/><path class="cls-11" d="m219.84,118.9h2.41l1.84,11.31h-1.78l-.32-2.25v.03h-2.02l-.32,2.21h-1.65l1.84-11.31Zm1.94,7.56l-.79-5.59h-.03l-.78,5.59h1.6Z"/><path class="cls-11" d="m225.27,118.9h2.23l1.73,6.77h.03v-6.77h1.58v11.31h-1.83l-2.13-8.26h-.03v8.26h-1.58v-11.31Z"/><rect class="cls-9" x="21.54" y="100.32" width="98.11" height="47.24" transform="translate(-33.26 26.17) rotate(-17.06)"/><path class="cls-7" d="m110.17,132.02l-67.95,20.86-.11-.18c-2.22-3.86-6.53-6.15-10.98-5.82l-.21.02-5.79-18.85.18-.11c3.86-2.22,6.15-6.53,5.82-10.98l-.02-.21,67.95-20.86.11.18c2.22,3.86,6.53,6.15,10.98,5.82l.21-.02,5.79,18.85-.18.11c-3.86,2.22-6.15,6.53-5.82,10.98l.02.21Zm-67.7,20.22l67.14-20.61c-.25-4.5,2.05-8.84,5.92-11.16l-5.54-18.04c-4.5.25-8.84-2.05-11.16-5.92l-67.14,20.61c.25,4.5-2.05,8.84-5.92,11.16l5.54,18.04c4.5-.25,8.84,2.05,11.16,5.92h0Z"/><path class="cls-1" d="m38.57,125.61c-4.16,1.28-6.51,5.7-5.23,9.86,1.28,4.16,5.7,6.51,9.86,5.23s6.51-5.7,5.23-9.86c-1.28-4.16-5.7-6.51-9.86-5.23h0Zm9.1,10.98l-2.41-1.28-.13.24,2.41,1.28c-.06.11-.13.22-.2.33l-2.29-1.48-.15.23,2.29,1.48c-.07.11-.15.21-.22.32l-2.15-1.68-.17.22,2.15,1.68c-.08.1-.16.2-.25.29l-2-1.86-.19.2,2,1.86c-.09.09-.18.18-.27.27l-1.83-2.03-.2.18,1.83,2.03c-.1.08-.2.17-.3.25l-1.65-2.18-.22.17,1.65,2.18c-.1.08-.21.15-.32.22l-1.45-2.31-.23.15,1.45,2.31c-.11.07-.22.13-.34.19l-1.24-2.43-.25.13,1.24,2.43c-.12.06-.23.11-.35.16l-1.03-2.53-.26.1,1.03,2.53c-.12.05-.24.09-.37.13l-.8-2.61-.26.08.8,2.61c-.12.04-.25.07-.37.1l-.57-2.67-.27.06.57,2.67c-.13.03-.25.05-.38.06l-.34-2.71-.27.03.33,2.71c-.13.01-.26.02-.39.03l-.1-2.73h-.28s.1,2.74.1,2.74c-.13,0-.26,0-.39,0l.14-2.73h-.28s-.14,2.71-.14,2.71c-.13,0-.26-.02-.39-.04l.38-2.7-.27-.04-.38,2.7c-.13-.02-.25-.04-.38-.07l.61-2.66-.27-.06-.61,2.66c-.13-.03-.25-.07-.37-.1l.84-2.6-.26-.09-.84,2.6c-.12-.04-.24-.09-.36-.14l1.06-2.51-.25-.11-1.06,2.51c-.12-.05-.23-.11-.35-.17l1.28-2.41-.24-.13-1.28,2.41c-.11-.06-.22-.13-.33-.2l1.48-2.29-.23-.15-1.48,2.29c-.11-.07-.21-.15-.32-.22l1.68-2.15-.22-.17-1.68,2.15c-.1-.08-.2-.17-.29-.25l1.86-2-.2-.19-1.86,2c-.09-.09-.18-.18-.27-.27l2.03-1.83-.18-.2-2.03,1.83c-.08-.1-.17-.2-.25-.3l2.18-1.65-.17-.22-2.18,1.65c-.08-.1-.15-.21-.22-.32l2.31-1.45-.15-.23-2.31,1.45c-.07-.11-.13-.22-.19-.34l2.43-1.24-.13-.25-2.43,1.24c-.06-.12-.11-.23-.16-.35l2.53-1.03-.1-.26-2.53,1.03c-.05-.12-.09-.24-.13-.37l2.61-.8-.08-.26-2.61.8c-.04-.12-.07-.25-.1-.37l2.67-.57-.06-.27-2.67.57c-.03-.13-.05-.25-.06-.38l2.71-.34-.03-.27-2.71.34c-.01-.13-.02-.26-.03-.39l2.73-.1v-.28s-2.74.1-2.74.1c0-.13,0-.26,0-.39l2.73.14v-.28s-2.71-.14-2.71-.14c0-.13.02-.26.04-.39l2.7.38.04-.27-2.7-.38c.02-.13.04-.25.07-.38l2.66.61.06-.27-2.66-.61c.03-.13.07-.25.1-.37l2.6.84.09-.26-2.59-.84c.04-.12.09-.24.14-.36l2.51,1.06.11-.25-2.51-1.06c.05-.12.11-.23.17-.35l2.41,1.28.13-.24-2.41-1.28c.06-.11.13-.22.2-.33l2.29,1.48.15-.23-2.29-1.48c.07-.11.15-.21.22-.32l2.15,1.68.17-.22-2.15-1.68c.08-.1.17-.2.25-.29l2,1.86.19-.2-2-1.86c.09-.09.18-.18.28-.27l1.83,2.03.2-.18-1.83-2.03c.1-.08.2-.17.3-.25l1.65,2.18.22-.17-1.65-2.18c.1-.08.21-.15.32-.22l1.45,2.31.23-.15-1.45-2.31c.11-.07.22-.13.34-.19l1.24,2.43.25-.13-1.24-2.43c.12-.06.23-.11.35-.16l1.03,2.53.26-.1-1.03-2.53c.12-.05.24-.09.37-.13l.8,2.61.26-.08-.8-2.61c.12-.04.25-.07.37-.1l.57,2.67.27-.06-.57-2.67c.13-.03.25-.05.38-.06l.34,2.71.27-.03-.34-2.71c.13-.01.26-.02.39-.03l.1,2.73h.28s-.1-2.74-.1-2.74c.13,0,.26,0,.39,0l-.14,2.73h.28s.14-2.71.14-2.71c.13,0,.26.02.39.04l-.38,2.7.27.04.38-2.7c.13.02.25.04.38.07l-.61,2.66.27.06.61-2.66c.13.03.25.07.37.1l-.84,2.6.26.09.84-2.59c.12.04.24.09.36.14l-1.06,2.51.25.11,1.06-2.51c.12.05.23.11.35.17l-1.28,2.41.24.13,1.28-2.41c.11.06.22.13.33.2l-1.48,2.29.23.15,1.48-2.29c.11.07.21.15.32.22l-1.67,2.15.22.17,1.68-2.15c.1.08.2.16.29.25l-1.86,2,.2.19,1.86-2c.09.09.18.18.27.27l-2.03,1.83.18.2,2.03-1.83c.08.1.17.2.25.3l-2.18,1.65.17.22,2.18-1.65c.08.1.15.21.22.32l-2.31,1.45.15.23,2.31-1.45c.07.11.13.22.19.34l-2.43,1.24.13.25,2.43-1.24c.06.12.11.23.16.35l-2.53,1.03.1.26,2.53-1.03c.05.12.09.24.13.36l-2.61.8.08.26,2.61-.8c.04.12.07.25.1.37l-2.67.57.06.27,2.67-.57c.02.13.05.25.06.38l-2.71.34.03.27,2.71-.34c.01.13.02.26.03.39l-2.73.1v.28s2.74-.1,2.74-.1c0,.13,0,.26,0,.39l-2.73-.14v.28s2.71.14,2.71.14c0,.13-.02.26-.04.39l-2.7-.38-.04.27,2.7.38c-.02.13-.04.25-.07.38l-2.66-.61-.06.27,2.66.61c-.03.13-.07.25-.1.37l-2.6-.84-.09.26,2.6.84c-.04.12-.09.24-.14.36l-2.51-1.06-.11.25,2.51,1.06c-.06.12-.11.24-.17.35h0Z"/><path class="cls-11" d="m39.55,128.81c-2.39.74-3.74,3.28-3.01,5.68.74,2.39,3.28,3.74,5.68,3.01s3.74-3.28,3.01-5.68c-.74-2.39-3.28-3.74-5.68-3.01Zm2.59,8.42c-2.25.69-4.64-.58-5.33-2.83-.69-2.25.58-4.64,2.83-5.33s4.64.58,5.33,2.83c.69,2.25-.58,4.64-2.83,5.33Z"/><path class="cls-1" d="m98.75,107.79c-4.02,1.23-6.28,5.51-5.05,9.52,1.23,4.02,5.51,6.28,9.52,5.05,4.02-1.23,6.28-5.51,5.05-9.52-1.23-4.02-5.51-6.28-9.52-5.05Zm8.78,10.61l-2.33-1.23-.12.23,2.32,1.23c-.06.11-.12.22-.19.32l-2.21-1.43-.15.22,2.21,1.43c-.07.1-.14.2-.22.3l-2.08-1.62-.16.21,2.08,1.62c-.08.1-.16.19-.24.28l-1.93-1.79-.18.2,1.93,1.8c-.09.09-.17.18-.26.26l-1.77-1.96-.2.18,1.76,1.96c-.09.08-.19.16-.29.24l-1.59-2.1-.21.16,1.59,2.1c-.1.07-.2.14-.31.21l-1.4-2.23-.23.14,1.4,2.23c-.11.06-.22.12-.33.18l-1.2-2.35-.24.12,1.2,2.35c-.11.05-.22.11-.34.15l-.99-2.44-.25.1.99,2.44c-.12.04-.23.09-.35.12l-.77-2.52-.26.08.77,2.52c-.12.03-.24.07-.36.09l-.55-2.58-.26.06.55,2.58c-.12.02-.25.04-.37.06l-.32-2.62-.27.03.32,2.62c-.12.01-.25.02-.37.03l-.1-2.63h-.27s.1,2.64.1,2.64c-.13,0-.25,0-.37,0l.13-2.63h-.27s-.13,2.62-.13,2.62c-.12,0-.25-.02-.37-.04l.36-2.61-.26-.04-.36,2.61c-.12-.02-.25-.04-.37-.07l.59-2.57-.26-.06-.59,2.57c-.12-.03-.24-.06-.36-.1l.81-2.51-.25-.08-.81,2.51c-.12-.04-.23-.08-.35-.13l1.03-2.43-.24-.1-1.03,2.42c-.11-.05-.23-.1-.34-.16l1.23-2.32-.24-.13-1.23,2.32c-.11-.06-.22-.12-.32-.19l1.43-2.21-.22-.14-1.43,2.21c-.1-.07-.2-.14-.31-.22l1.62-2.08-.21-.16-1.62,2.08c-.1-.08-.19-.16-.28-.24l1.79-1.93-.2-.18-1.8,1.93c-.09-.09-.18-.17-.26-.26l1.96-1.77-.18-.2-1.96,1.77c-.08-.09-.16-.19-.24-.29l2.1-1.59-.16-.21-2.1,1.59c-.07-.1-.14-.2-.21-.31l2.23-1.4-.14-.23-2.23,1.4c-.06-.11-.12-.22-.18-.33l2.35-1.2-.12-.24-2.35,1.2c-.05-.11-.11-.22-.16-.34l2.44-.99-.1-.25-2.44.99c-.04-.12-.09-.23-.12-.35l2.52-.77-.08-.26-2.52.77c-.03-.12-.07-.24-.09-.36l2.58-.55-.06-.26-2.58.55c-.02-.12-.04-.25-.06-.37l2.62-.32-.03-.27-2.62.32c-.01-.12-.02-.25-.03-.37l2.63-.1v-.27s-2.64.09-2.64.09c0-.13,0-.25,0-.37l2.63.13v-.27s-2.62-.14-2.62-.14c0-.12.02-.25.04-.37l2.61.36.04-.26-2.61-.36c.02-.12.04-.25.07-.37l2.57.59.06-.26-2.57-.59c.03-.12.06-.24.1-.36l2.51.81.08-.25-2.51-.81c.04-.12.08-.23.13-.35l2.42,1.03.1-.25-2.42-1.03c.05-.11.1-.23.16-.34l2.32,1.23.13-.24-2.32-1.23c.06-.11.12-.22.19-.32l2.21,1.43.15-.22-2.21-1.43c.07-.1.14-.2.22-.3l2.08,1.62.16-.21-2.08-1.62c.08-.1.16-.19.24-.28l1.93,1.8.18-.2-1.93-1.8c.09-.09.18-.18.27-.26l1.77,1.96.2-.18-1.76-1.96c.09-.08.19-.16.29-.24l1.59,2.1.21-.16-1.59-2.1c.1-.07.2-.14.31-.21l1.4,2.23.23-.14-1.4-2.23c.11-.06.22-.12.33-.18l1.2,2.35.24-.12-1.2-2.35c.11-.05.22-.11.34-.16l.99,2.44.25-.1-.99-2.44c.12-.04.23-.09.35-.12l.77,2.52.26-.08-.77-2.52c.12-.03.24-.07.36-.09l.55,2.58.26-.06-.55-2.58c.12-.02.25-.04.37-.06l.33,2.62.26-.03-.32-2.62c.12-.01.25-.02.37-.03l.1,2.64h.27s-.09-2.64-.09-2.64c.12,0,.25,0,.37,0l-.13,2.63h.27s.14-2.62.14-2.62c.12,0,.25.02.37.04l-.36,2.61.26.04.36-2.61c.12.02.25.04.37.07l-.59,2.57.26.06.59-2.57c.12.03.24.06.36.1l-.81,2.51.25.08.81-2.5c.12.04.23.08.35.13l-1.03,2.42.25.1,1.03-2.42c.11.05.23.1.34.16l-1.23,2.33.24.13,1.23-2.32c.11.06.22.12.32.19l-1.43,2.21.22.15,1.43-2.21c.1.07.2.14.3.22l-1.62,2.08.21.16,1.62-2.08c.1.08.19.16.28.24l-1.79,1.93.2.18,1.79-1.93c.09.09.18.17.26.26l-1.96,1.77.18.2,1.96-1.76c.08.09.16.19.24.29l-2.1,1.59.16.21,2.1-1.59c.07.1.14.2.21.31l-2.23,1.4.14.23,2.23-1.4c.06.11.12.22.18.32l-2.35,1.2.12.24,2.35-1.2c.05.11.11.22.15.34l-2.44.99.1.25,2.44-.99c.04.12.09.23.12.35l-2.52.77.08.26,2.52-.77c.03.12.07.24.09.36l-2.58.55.06.26,2.58-.55c.02.12.04.25.06.37l-2.62.33.03.27,2.62-.32c.01.12.02.25.03.37l-2.63.1v.27s2.64-.09,2.64-.09c0,.12,0,.25,0,.37l-2.63-.13v.27s2.62.14,2.62.14c0,.12-.02.25-.04.37l-2.61-.36-.04.26,2.61.36c-.02.12-.04.25-.07.37l-2.57-.59-.06.26,2.57.59c-.03.12-.06.24-.1.36l-2.51-.81-.08.25,2.51.81c-.04.12-.08.23-.13.35l-2.42-1.03-.1.25,2.42,1.03c-.05.12-.1.23-.16.34h0Z"/><path class="cls-11" d="m99.7,110.88c-2.31.71-3.62,3.17-2.91,5.48.71,2.31,3.17,3.62,5.48,2.91s3.62-3.17,2.91-5.48c-.71-2.31-3.17-3.62-5.48-2.91Zm2.5,8.13c-2.17.67-4.48-.56-5.15-2.73-.67-2.17.56-4.48,2.73-5.15s4.48.56,5.15,2.73-.56,4.48-2.73,5.15Z"/><path class="cls-6" d="m14.1,114.95l15.03,48.97,98.07-30.1-15.03-48.97L14.1,114.95Zm4.56,2.42l5.55-1.7c.94,3.07-.78,6.32-3.85,7.26l-1.7-5.55Zm12.89,42l-1.7-5.55c3.07-.94,6.32.78,7.26,3.85l-5.55,1.7Zm91.1-27.96l-5.55,1.7c-.94-3.07.78-6.32,3.85-7.26l1.7,5.55Zm-2.73-8.88l-.64.2c-4.54,1.39-7.11,6.23-5.71,10.77l.2.64-73.34,22.51-.2-.64c-1.39-4.54-6.23-7.11-10.77-5.71l-.64.2-7.44-24.24.64-.2c4.54-1.39,7.11-6.23,5.71-10.77l-.2-.64,73.34-22.51.2.64c1.39,4.54,6.23,7.11,10.77,5.71l.64-.2,7.44,24.24Zm-8.46-27.57c-3.07.94-6.32-.78-7.26-3.85l5.55-1.7,1.7,5.55Z"/><path class="cls-11" d="m41.01,135.26c-.27.03-.51-.04-.7-.19-.19-.15-.34-.37-.43-.67l-.09-.31.69-.21.11.35c.08.27.25.37.5.29.25-.08.34-.26.25-.54-.05-.17-.15-.32-.28-.43-.13-.11-.34-.22-.64-.34-.37-.14-.64-.3-.83-.47-.18-.17-.31-.38-.39-.63-.09-.29-.1-.54-.02-.77.07-.23.23-.41.46-.54l-.12-.41.6-.18.12.41c.27-.03.5.03.7.18s.33.37.42.67l.04.13-.69.21-.06-.18c-.08-.28-.25-.37-.49-.3-.24.08-.32.25-.24.51.05.16.14.29.27.4.13.11.34.22.64.34.37.15.65.31.83.48.18.17.31.39.4.65.09.3.1.57.03.8-.08.23-.23.42-.47.55l.14.46-.6.18-.14-.46Z"/><path class="cls-11" d="m101.22,117.08c-.26.02-.49-.04-.67-.18-.19-.14-.32-.36-.41-.65l-.09-.29.67-.2.1.34c.08.26.24.35.49.28.24-.07.32-.25.24-.52-.05-.17-.14-.3-.27-.41-.13-.11-.33-.22-.62-.33-.36-.14-.62-.29-.8-.45-.17-.16-.3-.36-.38-.61-.08-.28-.09-.53-.02-.75.07-.22.22-.39.45-.52l-.12-.39.58-.18.12.39c.26-.03.49.03.67.18.18.14.32.36.41.64l.04.13-.67.21-.05-.17c-.08-.26-.24-.36-.47-.29-.23.07-.31.24-.23.49.05.15.13.28.26.39.12.1.33.21.62.33.36.14.62.3.8.46.18.16.3.37.38.63.09.29.1.55.02.77-.07.23-.23.4-.46.53l.14.45-.58.18-.14-.45Z"/><path class="cls-8" d="m71.62,140.73c-7.12,0-13.32-4.58-15.41-11.4-1.26-4.12-.85-8.48,1.17-12.29s5.4-6.6,9.51-7.86c1.54-.47,3.14-.71,4.74-.71,7.12,0,13.32,4.58,15.41,11.4,2.61,8.5-2.18,17.54-10.68,20.15-1.54.47-3.14.71-4.74.71Z"/><path class="cls-3" d="m71.63,110.97c5.83,0,11.22,3.77,13.02,9.63,2.21,7.19-1.83,14.81-9.03,17.02-1.33.41-2.68.6-4,.6-5.83,0-11.22-3.77-13.02-9.63-2.21-7.19,1.83-14.81,9.03-17.02,1.33-.41,2.68-.6,4-.6m0-5h0c-1.85,0-3.69.28-5.47.82-4.76,1.46-8.66,4.68-10.99,9.08-2.33,4.39-2.81,9.43-1.35,14.19,2.42,7.87,9.57,13.16,17.8,13.16,1.85,0,3.69-.28,5.47-.82,4.76-1.46,8.66-4.68,10.99-9.08,2.33-4.39,2.81-9.43,1.35-14.19-2.42-7.87-9.57-13.16-17.8-13.16h0Z"/><path class="cls-11" d="m83.41,121.82c-.15-.1-.34-.05-.43.1l-.57.91c-1.58-9.54-13.8-12.31-19.41-4.74-.1.15-.08.34.07.44h0c.15.1.34.05.44-.07,5.31-7.18,16.97-4.44,18.32,4.63l-1.1-.69c-.15-.1-.34-.05-.43.1s-.05.34.1.43l1.64,1.06c.08.05.14.06.24.04h0c.09-.02.15-.07.19-.14l1.06-1.64c.1-.15.05-.34-.1-.43Z"/><path class="cls-11" d="m59.83,127.38c.15.1.34.05.43-.1l.57-.91c1.58,9.54,13.8,12.31,19.41,4.74.1-.15.08-.34-.07-.44h0c-.15-.1-.34-.05-.44.07-5.31,7.18-16.97,4.44-18.32-4.63l1.1.69c.15.1.34.05.43-.1s.05-.34-.1-.43l-1.64-1.06c-.08-.05-.14-.06-.24-.04h0c-.09.02-.15.07-.19.14l-1.06,1.64c-.1.15-.05.34.1.43Z"/><g id="Layer_4"><path class="cls-10" d="m69.92,117.7l.9,2.94,2.76-.85c-.53-.88-1.21-1.68-2.03-2.35-.55.03-1.1.12-1.63.25Z"/><path class="cls-10" d="m69.13,128.38l2.96-.91-.8-2.62-3.21.99c.28.87.63,1.72,1.05,2.54Z"/><path class="cls-10" d="m74.36,119.57l2.35-.72c-1.13-.8-2.52-1.28-3.99-1.39.64.64,1.18,1.34,1.63,2.11Z"/><path class="cls-10" d="m74.72,120.2c.43.81.79,1.66,1.08,2.53l3.22-.99c-.36-.89-.92-1.69-1.65-2.36l-2.66.82Z"/><path class="cls-10" d="m73.95,120.44l-2.92.9.8,2.62,3.21-.98c-.29-.87-.65-1.72-1.09-2.53Z"/><path class="cls-10" d="m64.07,127.07c.3.9.79,1.72,1.45,2.42l2.85-.87c-.42-.82-.77-1.67-1.04-2.54l-3.26,1Z"/><path class="cls-10" d="m68.71,129.26l-2.59.79c1.24,1.02,2.83,1.62,4.54,1.72-.78-.74-1.44-1.59-1.96-2.51Z"/><path class="cls-10" d="m73.32,131.5l-1.03-3.34-2.82.86c.58,1.05,1.39,1.98,2.39,2.73.49-.04.98-.13,1.46-.25Z"/><path class="cls-10" d="m67.46,123.25c.1.65.24,1.28.41,1.91l3.21-.98-.8-2.62-2.23.69c-.12.36-.32.7-.58,1Z"/><path class="cls-10" d="m68.18,121.46l1.88-.58-.91-2.95c-.52.19-1.02.42-1.49.71-.1.3-.17.61-.23.92.3.3.51.66.64,1.06.08.27.12.56.11.84Z"/><path class="cls-10" d="m63.79,124.29c-.08.71-.05,1.41.09,2.1l3.23-.99c-.16-.51-.26-1.03-.35-1.53-.88.58-2,.74-2.97.43Z"/><path class="cls-12" d="m64.35,119.41c-1.33.41-2.11,1.69-1.75,2.88.36,1.18,1.73,1.82,3.06,1.41,1.33-.41,2.11-1.69,1.75-2.88-.36-1.18-1.73-1.82-3.05-1.41,0,0,0,0,0,0Zm1.17,3.11l.08.26s0,.06-.04.07h0s-.28.09-.28.09c-.03,0-.05,0-.06-.03l-.08-.25c-.29.08-.59-.05-.7-.3-.01-.03,0-.06.04-.07,0,0,0,0,0,0l.28-.09s.05,0,.06.02c.04.08.14.11.24.08l.25-.08c.16-.04.27-.18.25-.32-.02-.14-.17-.24-.33-.21-.01,0-.03,0-.04,0l-.2.06c-.35.11-.73-.03-.87-.32-.13-.31.05-.68.39-.83l-.08-.25s0-.06.04-.07l.28-.09s.06,0,.07.03h0s.08.25.08.25c.29-.08.58.05.7.29.01.03,0,.06-.04.07,0,0,0,0,0,0l-.29.09s-.05,0-.07-.02c-.04-.08-.14-.11-.24-.08l-.25.08c-.16.04-.27.18-.25.32.03.14.18.24.34.2.01,0,.02,0,.03,0l.21-.07c.38-.11.77.07.87.4,0,.02,0,.04.01.05.04.28-.12.57-.41.7h0Z"/><path class="cls-10" d="m79.45,124.91c.1-.84.04-1.69-.19-2.5l-3.25,1c.19.64.34,1.28.45,1.94.28-.19.6-.34.93-.44.68-.21,1.41-.21,2.06,0Z"/><path class="cls-10" d="m75.11,127.29l-2.05.63,1.03,3.34c.47-.17.92-.37,1.35-.61.13-.35.24-.72.3-1.08-.26-.29-.46-.62-.57-.99-.13-.41-.15-.85-.06-1.29Z"/><path class="cls-10" d="m75.76,125.97c-.11-.79-.28-1.56-.5-2.32l-3.21.99.8,2.62,2.58-.79c.09-.17.2-.34.33-.49Z"/><path class="cls-12" d="m77.57,125.5c-1.33.41-2.1,1.7-1.74,2.89s1.74,1.81,3.06,1.4c1.32-.41,2.1-1.7,1.74-2.88-.36-1.18-1.73-1.81-3.06-1.41,0,0,0,0,0,0Zm1.16,3.11l.08.26s0,.06-.04.07h0l-.28.09s-.06,0-.07-.03h0l-.08-.26c-.29.07-.58-.05-.7-.29-.01-.03,0-.06.04-.07,0,0,0,0,0,0l.28-.09s.05,0,.07.02c.04.08.14.11.24.08l.25-.08c.16-.04.27-.18.25-.32-.02-.14-.17-.24-.33-.21-.01,0-.03,0-.04,0l-.18.06c-.35.11-.73-.03-.87-.33-.14-.31.03-.69.38-.84l-.08-.25s0-.06.04-.07h0l.28-.09s.06,0,.07.03h0l.08.25c.29-.07.59.06.7.3.01.03,0,.06-.04.07,0,0,0,0,0,0l-.28.09s-.05,0-.07-.02c-.05-.07-.15-.1-.24-.06l-.25.08c-.16.04-.27.18-.25.32.02.14.17.24.33.21.01,0,.03,0,.04,0l.21-.07c.38-.11.77.07.87.4,0,.02,0,.04.01.05.04.28-.13.56-.41.7Z"/></g><rect class="cls-9" x="28.8" y="100.94" width="98.11" height="47.24" transform="translate(-17.76 13.05) rotate(-8.61)"/><path class="cls-7" d="m115.82,138.38l-70.27,10.64-.08-.2c-1.63-4.15-5.56-7.04-10-7.37l-.21-.02-2.95-19.49.2-.08c4.15-1.63,7.04-5.56,7.37-10l.02-.21,70.27-10.64.08.2c1.63,4.15,5.56,7.04,10,7.37l.21.02,2.95,19.49-.2.08c-4.15,1.63-7.04,5.56-7.37,10l-.02.21Zm-69.94,10.05l69.44-10.51c.42-4.49,3.33-8.44,7.49-10.17l-2.82-18.66c-4.49-.42-8.44-3.33-10.17-7.49l-69.44,10.51c-.42,4.49-3.33,8.44-7.49,10.17l2.82,18.66c4.49.42,8.44,3.33,10.17,7.49h0Z"/><path class="cls-1" d="m45.94,121.5c-4.3.65-7.28,4.68-6.62,8.99.65,4.3,4.68,7.28,8.99,6.62s7.28-4.68,6.62-8.99-4.68-7.28-8.99-6.62h0Zm7.38,12.2l-2.19-1.62-.16.22,2.19,1.62c-.08.1-.16.2-.24.3l-2.05-1.8-.18.21,2.05,1.8c-.09.1-.18.19-.27.28l-1.88-1.97-.2.19,1.88,1.98c-.09.09-.19.17-.29.25l-1.7-2.13-.22.17,1.7,2.13c-.1.08-.21.16-.31.23l-1.51-2.27-.23.15,1.51,2.27c-.11.07-.22.14-.33.2l-1.31-2.4-.24.13,1.31,2.4c-.11.06-.23.12-.35.17l-1.09-2.5-.25.11,1.09,2.5c-.12.05-.24.1-.36.14l-.87-2.59-.26.09.87,2.59c-.12.04-.25.07-.37.11l-.64-2.65-.27.06.64,2.65c-.13.03-.25.05-.38.07l-.41-2.7-.27.04.41,2.7c-.13.02-.26.03-.39.04l-.17-2.72-.28.02.17,2.73c-.13,0-.26,0-.39,0l.07-2.73h-.28s-.07,2.72-.07,2.72c-.13,0-.26-.01-.39-.03l.3-2.71-.28-.03-.3,2.71c-.13-.02-.26-.04-.38-.06l.54-2.68-.27-.05-.54,2.68c-.13-.03-.25-.06-.38-.09l.77-2.62-.26-.08-.77,2.62c-.12-.04-.25-.08-.37-.13l1-2.54-.26-.1-1,2.54c-.12-.05-.24-.1-.35-.16l1.21-2.44-.25-.12-1.21,2.44c-.11-.06-.23-.12-.34-.19l1.42-2.33-.24-.14-1.42,2.33c-.11-.07-.22-.14-.32-.22l1.62-2.19-.22-.16-1.62,2.19c-.1-.08-.2-.16-.3-.24l1.8-2.05-.21-.18-1.8,2.05c-.1-.09-.19-.18-.28-.27l1.97-1.88-.19-.2-1.98,1.88c-.09-.1-.17-.19-.25-.29l2.13-1.7-.17-.22-2.13,1.7c-.08-.1-.16-.21-.23-.31l2.27-1.51-.15-.23-2.27,1.51c-.07-.11-.14-.22-.2-.33l2.4-1.31-.13-.24-2.4,1.31c-.06-.11-.12-.23-.17-.35l2.5-1.09-.11-.25-2.5,1.09c-.05-.12-.1-.24-.14-.36l2.59-.87-.09-.26-2.59.87c-.04-.12-.07-.25-.11-.37l2.65-.64-.07-.27-2.65.64c-.03-.13-.05-.25-.07-.38l2.7-.41-.04-.27-2.7.41c-.02-.13-.03-.26-.04-.39l2.72-.17-.02-.28-2.73.17c0-.13,0-.26,0-.39l2.73.07v-.28s-2.72-.07-2.72-.07c0-.13.01-.26.03-.39l2.71.3.03-.28-2.71-.3c.02-.13.04-.26.06-.38l2.68.54.05-.27-2.68-.54c.03-.13.06-.25.09-.38l2.62.77.08-.26-2.62-.77c.04-.12.08-.25.13-.37l2.54,1,.1-.26-2.54-1c.05-.12.1-.24.16-.35l2.44,1.21.12-.25-2.44-1.21c.06-.11.12-.23.19-.34l2.33,1.42.14-.24-2.33-1.42c.07-.11.14-.22.22-.32l2.19,1.62.16-.22-2.19-1.62c.08-.1.16-.2.24-.3l2.05,1.8.18-.21-2.05-1.8c.09-.1.18-.19.27-.28l1.88,1.97.2-.19-1.88-1.98c.09-.09.19-.17.29-.25l1.7,2.13.22-.17-1.7-2.13c.1-.08.21-.16.31-.23l1.51,2.27.23-.15-1.51-2.27c.11-.07.22-.14.33-.2l1.31,2.4.24-.13-1.31-2.4c.11-.06.23-.12.35-.17l1.09,2.5.25-.11-1.09-2.5c.12-.05.24-.1.36-.14l.87,2.59.26-.09-.87-2.59c.12-.04.25-.07.37-.11l.64,2.65.27-.07-.64-2.65c.13-.03.25-.05.38-.07l.41,2.7.27-.04-.41-2.7c.13-.02.26-.03.38-.04l.17,2.72.28-.02-.17-2.73c.13,0,.26,0,.39,0l-.07,2.73h.28s.07-2.72.07-2.72c.13,0,.26.01.39.03l-.3,2.71.28.03.3-2.71c.13.02.26.04.38.06l-.54,2.68.27.05.54-2.68c.13.03.25.06.38.09l-.77,2.62.26.08.77-2.62c.12.04.25.08.37.13l-.99,2.54.26.1,1-2.54c.12.05.24.1.35.16l-1.21,2.44.25.12,1.21-2.44c.11.06.23.12.34.19l-1.42,2.33.24.14,1.42-2.33c.11.07.21.14.32.22l-1.62,2.19.22.16,1.62-2.19c.1.08.2.16.3.24l-1.8,2.05.21.18,1.8-2.05c.1.09.19.18.28.27l-1.97,1.88.19.2,1.98-1.88c.09.09.17.19.25.29l-2.13,1.7.17.22,2.13-1.7c.08.1.15.21.23.31l-2.27,1.51.15.23,2.27-1.51c.07.11.14.22.2.33l-2.4,1.31.13.24,2.4-1.31c.06.11.12.23.17.35l-2.5,1.09.11.25,2.5-1.09c.05.12.1.24.14.36l-2.59.87.09.26,2.59-.87c.04.12.07.25.11.37l-2.65.64.07.27,2.65-.64c.03.13.05.25.07.38l-2.7.41.04.27,2.7-.41c.02.13.03.26.04.38l-2.72.17.02.28,2.73-.17c0,.13,0,.26,0,.39l-2.73-.07v.28s2.72.07,2.72.07c0,.13-.01.26-.03.39l-2.71-.3-.03.28,2.71.3c-.02.13-.04.26-.06.38l-2.68-.54-.05.27,2.68.54c-.03.13-.06.25-.09.38l-2.62-.77-.08.27,2.62.77c-.04.12-.08.25-.13.37l-2.54-.99-.1.26,2.54.99c-.05.12-.1.24-.16.35l-2.44-1.21-.12.25,2.44,1.21c-.06.11-.12.23-.19.34l-2.33-1.42-.14.24,2.33,1.42c-.08.11-.15.22-.22.32h0Z"/><path class="cls-11" d="m46.44,124.81c-2.48.37-4.19,2.69-3.81,5.17.37,2.48,2.69,4.19,5.17,3.81s4.19-2.69,3.81-5.17c-.37-2.48-2.69-4.19-5.17-3.81Zm1.32,8.71c-2.33.35-4.5-1.25-4.86-3.58-.35-2.33,1.25-4.51,3.58-4.86s4.5,1.25,4.86,3.58c.35,2.33-1.25,4.5-3.58,4.86Z"/><path class="cls-1" d="m108.08,112.72c-4.16.63-7.02,4.52-6.4,8.68s4.52,7.02,8.68,6.4c4.16-.63,7.02-4.52,6.4-8.68-.63-4.16-4.52-7.02-8.68-6.4Zm7.13,11.78l-2.12-1.56-.16.21,2.12,1.56c-.08.1-.15.2-.23.29l-1.97-1.74-.18.2,1.98,1.74c-.08.09-.17.18-.26.27l-1.82-1.91-.19.18,1.82,1.91c-.09.08-.18.17-.28.25l-1.64-2.06-.21.17,1.64,2.06c-.1.08-.2.15-.3.22l-1.46-2.2-.22.15,1.46,2.19c-.1.07-.21.13-.32.19l-1.26-2.31-.23.13,1.26,2.31c-.11.06-.22.11-.34.16l-1.06-2.42-.24.11,1.06,2.42c-.11.05-.23.09-.35.13l-.84-2.5-.25.09.84,2.5c-.12.04-.24.07-.36.1l-.62-2.56-.26.06.62,2.56c-.12.03-.24.05-.37.07l-.4-2.61-.26.04.39,2.61c-.12.02-.25.03-.37.04l-.17-2.63-.27.02.17,2.63c-.13,0-.25,0-.37,0l.06-2.64h-.27s-.06,2.63-.06,2.63c-.12,0-.25-.01-.37-.03l.29-2.62-.27-.03-.29,2.62c-.12-.02-.25-.03-.37-.06l.52-2.58-.26-.05-.52,2.58c-.12-.03-.24-.06-.36-.09l.74-2.53-.26-.08-.74,2.53c-.12-.04-.24-.08-.35-.12l.96-2.45-.25-.1-.96,2.45c-.12-.05-.23-.1-.34-.15l1.17-2.36-.24-.12-1.17,2.36c-.11-.06-.22-.12-.33-.18l1.37-2.25-.23-.14-1.37,2.25c-.11-.07-.21-.14-.31-.21l1.56-2.12-.21-.16-1.56,2.12c-.1-.08-.2-.15-.29-.23l1.74-1.98-.2-.18-1.74,1.97c-.09-.08-.18-.17-.27-.26l1.91-1.82-.18-.19-1.91,1.82c-.08-.09-.17-.19-.25-.28l2.06-1.64-.17-.21-2.06,1.64c-.08-.1-.15-.2-.22-.3l2.19-1.46-.15-.22-2.19,1.46c-.07-.1-.13-.21-.19-.32l2.31-1.26-.13-.23-2.31,1.26c-.06-.11-.11-.22-.16-.34l2.42-1.06-.11-.24-2.42,1.06c-.05-.11-.09-.23-.13-.35l2.5-.84-.09-.25-2.5.84c-.04-.12-.07-.24-.1-.36l2.56-.62-.06-.26-2.56.62c-.03-.12-.05-.24-.07-.37l2.61-.39-.04-.26-2.61.39c-.02-.12-.03-.25-.04-.37l2.63-.17-.02-.27-2.63.17c0-.13,0-.25,0-.37l2.64.06v-.27s-2.63-.06-2.63-.06c0-.12.01-.25.03-.37l2.62.29.03-.27-2.62-.29c.02-.12.04-.25.06-.37l2.58.52.05-.26-2.58-.52c.03-.12.06-.24.09-.36l2.53.74.08-.26-2.53-.74c.04-.12.08-.24.12-.35l2.45.96.1-.25-2.45-.96c.05-.12.1-.23.15-.34l2.36,1.17.12-.24-2.36-1.17c.06-.11.12-.22.18-.33l2.25,1.37.14-.23-2.25-1.37c.07-.11.14-.21.21-.31l2.12,1.56.16-.21-2.12-1.56c.08-.1.15-.2.23-.29l1.97,1.74.18-.2-1.98-1.74c.08-.09.17-.18.26-.27l1.82,1.91.19-.18-1.82-1.91c.09-.08.19-.17.28-.25l1.64,2.06.21-.17-1.64-2.06c.1-.08.2-.15.3-.22l1.46,2.2.22-.15-1.46-2.19c.1-.07.21-.13.32-.19l1.26,2.31.23-.13-1.26-2.31c.11-.06.22-.11.34-.16l1.06,2.42.24-.11-1.06-2.42c.11-.05.23-.09.35-.13l.84,2.5.25-.09-.84-2.5c.12-.04.24-.07.36-.1l.62,2.56.26-.06-.62-2.56c.12-.03.24-.05.37-.07l.39,2.61.26-.04-.39-2.61c.12-.02.25-.03.37-.04l.17,2.63.27-.02-.17-2.63c.13,0,.25,0,.37,0l-.06,2.64h.27s.06-2.63.06-2.63c.12,0,.25.01.37.02l-.29,2.62.27.03.29-2.62c.12.02.25.04.37.06l-.52,2.58.26.05.52-2.58c.12.03.24.06.36.09l-.74,2.53.26.08.74-2.53c.12.04.24.08.35.12l-.96,2.45.25.1.96-2.45c.12.05.23.1.34.15l-1.17,2.36.24.12,1.17-2.36c.11.06.22.12.33.18l-1.37,2.25.23.14,1.37-2.25c.11.07.21.14.31.21l-1.56,2.12.21.16,1.56-2.12c.1.08.2.15.29.23l-1.74,1.98.2.18,1.74-1.98c.09.08.18.17.27.26l-1.91,1.82.18.19,1.91-1.82c.08.09.17.18.25.28l-2.06,1.65.17.21,2.06-1.64c.08.1.15.2.22.3l-2.19,1.46.15.22,2.19-1.46c.07.1.13.21.19.32l-2.31,1.26.13.23,2.31-1.26c.06.11.11.22.16.34l-2.42,1.06.11.24,2.42-1.06c.05.11.09.23.13.35l-2.5.84.09.25,2.5-.84c.04.12.07.24.1.36l-2.56.62.06.26,2.56-.62c.03.12.05.24.07.37l-2.61.4.04.26,2.61-.39c.02.12.03.25.04.37l-2.63.17.02.27,2.63-.17c0,.12,0,.25,0,.37l-2.64-.06v.27s2.63.06,2.63.06c0,.12-.01.25-.03.37l-2.62-.29-.03.27,2.62.29c-.02.12-.04.25-.06.37l-2.58-.52-.05.26,2.58.52c-.03.12-.06.24-.09.36l-2.53-.74-.08.26,2.53.74c-.04.12-.08.24-.12.35l-2.45-.96-.1.25,2.45.96c-.05.12-.1.23-.15.34l-2.36-1.17-.12.24,2.36,1.17c-.06.11-.12.22-.18.33l-2.25-1.37-.14.23,2.25,1.37c-.07.11-.14.21-.21.31h0Z"/><path class="cls-11" d="m108.57,115.92c-2.39.36-4.04,2.6-3.68,4.99.36,2.39,2.6,4.04,4.99,3.68s4.04-2.6,3.68-4.99c-.36-2.39-2.6-4.04-4.99-3.68Zm1.27,8.41c-2.25.34-4.35-1.21-4.69-3.46-.34-2.25,1.21-4.35,3.46-4.69s4.35,1.21,4.69,3.46-1.21,4.35-3.46,4.69Z"/><path class="cls-6" d="m23.3,107.36l7.67,50.65,101.43-15.35-7.67-50.65-101.43,15.35Zm4.15,3.06l5.74-.87c.48,3.17-1.7,6.13-4.87,6.61l-.87-5.74Zm6.57,43.44l-.87-5.74c3.17-.48,6.13,1.7,6.61,4.87l-5.74.87Zm94.22-14.26l-5.74.87c-.48-3.17,1.7-6.13,4.87-6.61l.87,5.74Zm-1.39-9.18l-.66.1c-4.7.71-7.94,5.11-7.23,9.81l.1.66-75.86,11.48-.1-.66c-.71-4.7-5.11-7.95-9.81-7.23l-.66.1-3.79-25.07.66-.1c4.7-.71,7.95-5.11,7.23-9.81l-.1-.66,75.85-11.48.1.66c.71,4.7,5.11,7.94,9.81,7.23l.66-.1,3.8,25.07Zm-4.32-28.51c-3.17.48-6.13-1.7-6.61-4.87l5.74-.87.87,5.74Z"/><path class="cls-11" d="m46.97,131.33c-.27-.01-.49-.11-.66-.29s-.28-.42-.32-.72l-.05-.32.71-.11.05.36c.04.28.19.4.46.36s.37-.2.33-.49c-.03-.18-.1-.33-.21-.46-.11-.13-.31-.27-.58-.43-.34-.2-.59-.39-.75-.58-.16-.19-.25-.42-.29-.69-.04-.3-.01-.55.09-.76.11-.21.29-.37.54-.47l-.06-.42.62-.09.06.42c.27.01.49.11.66.28.17.17.27.41.32.72l.02.14-.71.11-.03-.19c-.04-.28-.19-.41-.44-.37-.25.04-.36.2-.32.47.03.17.09.31.21.44.11.13.31.27.58.43.34.2.59.4.75.59.16.2.25.43.3.7.05.31.01.58-.09.8-.11.22-.29.38-.55.47l.07.48-.62.09-.07-.48Z"/><path class="cls-11" d="m109.2,122.2c-.26-.01-.48-.11-.64-.28-.17-.17-.27-.4-.31-.7l-.05-.3.69-.1.05.35c.04.27.19.39.44.35.25-.04.36-.2.31-.48-.03-.17-.09-.32-.2-.45-.11-.13-.3-.26-.56-.41-.33-.19-.57-.38-.72-.56-.15-.18-.24-.41-.28-.66-.04-.29-.01-.53.09-.74.1-.21.28-.36.52-.45l-.06-.4.6-.09.06.4c.26.01.48.11.64.27.16.17.26.4.31.7l.02.13-.69.1-.03-.18c-.04-.27-.18-.39-.43-.36-.24.04-.34.19-.3.45.02.16.09.3.2.42.11.12.3.26.56.41.33.19.57.38.72.57.15.19.25.41.29.68.05.3.02.56-.09.77-.11.21-.28.37-.53.46l.07.46-.6.09-.07-.46Z"/><path class="cls-8" d="m78.76,141.49c-7.9,0-14.74-5.9-15.92-13.71-1.33-8.79,4.74-17.02,13.53-18.35.8-.12,1.62-.18,2.43-.18,7.9,0,14.74,5.9,15.92,13.71,1.33,8.79-4.74,17.02-13.53,18.35-.8.12-1.62.18-2.43.18Z"/><path class="cls-3" d="m78.79,111.74c6.62,0,12.43,4.84,13.45,11.59,1.13,7.44-3.99,14.38-11.43,15.51-.69.1-1.38.16-2.06.16-6.62,0-12.43-4.84-13.45-11.59-1.13-7.44,3.99-14.38,11.43-15.51.69-.1,1.38-.16,2.06-.16m0-5h0c-.93,0-1.88.07-2.8.21-4.92.74-9.25,3.36-12.2,7.36s-4.17,8.92-3.42,13.84c1.37,9.03,9.28,15.84,18.4,15.84.93,0,1.88-.07,2.8-.21,4.92-.74,9.25-3.36,12.2-7.36,2.95-4,4.17-8.92,3.42-13.84-1.37-9.03-9.28-15.84-18.4-15.84h0Z"/><path class="cls-11" d="m90.85,124.35c-.14-.12-.33-.1-.44.03l-.7.81c-.16-9.67-11.84-14.2-18.5-7.54-.12.14-.13.33,0,.44h0c.14.12.33.1.44,0,6.31-6.32,17.44-1.9,17.44,7.27l-.98-.85c-.14-.12-.33-.1-.44.03s-.1.33.03.44l1.46,1.28c.07.06.13.09.23.08h0c.09,0,.16-.04.21-.11l1.28-1.46c.12-.14.1-.33-.03-.44Z"/><path class="cls-11" d="m66.7,126.38c.14.12.33.1.44-.03l.7-.81c.16,9.67,11.84,14.2,18.5,7.54.12-.14.13-.33,0-.44h0c-.14-.12-.33-.1-.44,0-6.31,6.32-17.44,1.9-17.44-7.27l.98.85c.14.12.33.1.44-.03s.1-.33-.03-.44l-1.46-1.28c-.07-.06-.13-.09-.23-.08h0c-.09,0-.16.04-.21.11l-1.28,1.46c-.12.14-.1.33.03.44Z"/><g id="Layer_4-2"><path class="cls-10" d="m78.11,118.29l.46,3.04,2.85-.43c-.39-.95-.95-1.84-1.66-2.62-.55-.05-1.1-.05-1.65.01Z"/><path class="cls-10" d="m75.75,128.74l3.06-.46-.41-2.71-3.32.5c.15.91.37,1.8.67,2.67Z"/><path class="cls-10" d="m82.22,120.79l2.43-.37c-1-.96-2.3-1.64-3.74-1.96.54.72.97,1.5,1.31,2.33Z"/><path class="cls-10" d="m82.49,121.47c.31.87.54,1.76.7,2.66l3.34-.5c-.23-.93-.66-1.81-1.29-2.57l-2.75.42Z"/><path class="cls-10" d="m81.69,121.59l-3.02.46.41,2.71,3.32-.5c-.16-.9-.39-1.79-.71-2.66Z"/><path class="cls-10" d="m70.94,126.7c.16.93.53,1.82,1.08,2.6l2.95-.45c-.29-.87-.51-1.76-.66-2.67l-3.37.51Z"/><path class="cls-10" d="m75.21,129.54l-2.67.4c1.07,1.19,2.56,2.02,4.24,2.37-.67-.85-1.19-1.78-1.57-2.77Z"/><path class="cls-10" d="m79.44,132.44l-.52-3.46-2.91.44c.42,1.13,1.09,2.16,1.96,3.05.49.03.99.02,1.48-.03Z"/><path class="cls-10" d="m74.85,123.42c0,.65.05,1.3.13,1.95l3.32-.5-.41-2.71-2.31.35c-.18.34-.42.65-.72.91Z"/><path class="cls-10" d="m75.84,121.75l1.94-.29-.46-3.05c-.54.11-1.07.27-1.58.48-.14.29-.26.58-.36.88.25.34.41.73.47,1.14.04.28.04.57-.02.85Z"/><path class="cls-10" d="m71.07,123.91c-.19.69-.26,1.39-.22,2.09l3.34-.51c-.08-.53-.11-1.05-.12-1.57-.96.45-2.08.44-3-.02Z"/><path class="cls-12" d="m72.35,119.16c-1.37.21-2.34,1.37-2.15,2.59.18,1.23,1.44,2.05,2.82,1.85,1.37-.21,2.34-1.37,2.15-2.59-.18-1.22-1.44-2.05-2.81-1.85,0,0,0,0,0,0Zm.7,3.24l.04.27s-.02.06-.05.06h0s-.29.04-.29.04c-.03,0-.05-.01-.06-.04l-.04-.26c-.3.03-.58-.14-.65-.4,0-.03.01-.06.05-.06,0,0,0,0,0,0l.29-.04s.05,0,.06.03c.03.08.13.13.22.11l.26-.04c.16-.01.29-.14.29-.28,0-.15-.13-.26-.3-.25-.01,0-.03,0-.04,0l-.21.03c-.37.06-.71-.13-.81-.45-.08-.33.14-.67.51-.76l-.04-.26s.02-.06.05-.06l.29-.04s.06.01.07.04h0s.04.26.04.26c.3-.03.57.13.64.39,0,.03-.01.06-.05.06,0,0,0,0,0,0l-.3.05s-.05,0-.06-.03c-.03-.08-.13-.13-.22-.11l-.26.04c-.16.01-.29.14-.29.28,0,.15.14.26.3.25.01,0,.02,0,.03,0l.22-.03c.39-.06.75.18.8.53,0,.02,0,.04,0,.06,0,.28-.2.54-.51.64h0Z"/><path class="cls-10" d="m86.47,126.82c.22-.82.29-1.67.18-2.5l-3.36.51c.09.66.15,1.32.16,1.98.31-.15.64-.25.98-.3.71-.11,1.42,0,2.04.31Z"/><path class="cls-10" d="m81.83,128.54l-2.12.32.52,3.46c.49-.1.96-.23,1.42-.41.19-.33.34-.67.46-1.03-.22-.32-.36-.69-.42-1.06-.06-.43-.02-.87.13-1.28Z"/><path class="cls-10" d="m82.66,127.33c0-.79-.04-1.58-.15-2.37l-3.32.5.41,2.71,2.66-.4c.12-.16.25-.3.4-.44Z"/><path class="cls-12" d="m84.53,127.12c-1.37.21-2.33,1.37-2.14,2.6.19,1.22,1.45,2.05,2.83,1.84,1.37-.21,2.33-1.37,2.14-2.59-.19-1.22-1.45-2.05-2.82-1.84,0,0,0,0,0,0Zm.69,3.24l.04.27s-.02.06-.05.06h0l-.29.04s-.06-.01-.07-.04h0l-.04-.27c-.3.03-.57-.13-.65-.39,0-.03.01-.06.05-.06,0,0,0,0,0,0l.29-.04s.05,0,.06.03c.03.08.13.13.22.11l.26-.04c.16-.01.29-.14.29-.28,0-.15-.13-.26-.3-.25-.01,0-.03,0-.04,0l-.19.03c-.37.06-.72-.13-.81-.45-.09-.33.13-.67.5-.78l-.04-.26s.02-.06.05-.06h0l.29-.04s.06.01.07.04h0l.04.26c.3-.03.57.14.64.4,0,.03-.01.06-.05.06,0,0,0,0,0,0l-.29.04s-.05,0-.06-.03c-.04-.08-.13-.12-.23-.1l-.26.04c-.16.01-.29.14-.29.28,0,.15.13.26.3.25.01,0,.03,0,.04,0l.22-.03c.39-.06.75.18.8.53,0,.02,0,.04,0,.06,0,.28-.21.54-.51.63Z"/></g><rect class="cls-6" x="37.45" y="104.04" width="98.11" height="47.24" transform="translate(17.69 -10.34) rotate(7.62)"/><path class="cls-5" d="m119.09,151.53l-70.45-9.42-.02-.21c-.41-4.44-3.37-8.31-7.55-9.88l-.2-.07,2.61-19.54.21-.02c4.44-.41,8.31-3.37,9.88-7.55l.07-.2,70.45,9.42.02.21c.41,4.44,3.37,8.31,7.55,9.88l.2.07-2.61,19.54-.21.02c-4.44.41-8.31,3.37-9.88,7.55l-.07.2Zm-69.96-9.9l69.61,9.31c1.65-4.19,5.56-7.18,10.04-7.67l2.5-18.7c-4.19-1.65-7.18-5.56-7.67-10.04l-69.61-9.31c-1.65,4.19-5.56,7.18-10.04,7.67l-2.5,18.7c4.19,1.65,7.18,5.56,7.67,10.04h0Z"/><path class="cls-1" d="m56.71,115.8c-4.31-.58-8.29,2.46-8.87,6.78-.58,4.31,2.46,8.29,6.78,8.87,4.31.58,8.29-2.46,8.87-6.78s-2.46-8.29-6.78-8.87h0Zm3.68,13.78l-1.66-2.17-.22.17,1.65,2.17c-.1.08-.21.15-.32.22l-1.46-2.3-.23.15,1.46,2.3c-.11.07-.22.13-.33.19l-1.25-2.42-.25.13,1.26,2.42c-.12.06-.23.11-.35.16l-1.04-2.52-.26.11,1.04,2.52c-.12.05-.24.09-.36.13l-.82-2.61-.26.08.82,2.6c-.12.04-.25.07-.37.1l-.59-2.67-.27.06.59,2.67c-.13.03-.25.05-.38.07l-.35-2.71-.27.04.35,2.71c-.13.01-.26.02-.39.03l-.11-2.73h-.28s.11,2.74.11,2.74c-.13,0-.26,0-.39,0l.12-2.73h-.28s-.12,2.71-.12,2.71c-.13,0-.26-.02-.39-.04l.36-2.71-.27-.04-.36,2.71c-.13-.02-.26-.04-.38-.07l.6-2.66-.27-.06-.6,2.67c-.13-.03-.25-.06-.37-.1l.83-2.6-.26-.08-.83,2.6c-.12-.04-.24-.09-.36-.13l1.05-2.52-.26-.11-1.05,2.52c-.12-.05-.24-.11-.35-.16l1.26-2.42-.25-.13-1.27,2.42c-.11-.06-.22-.13-.33-.19l1.47-2.3-.23-.15-1.47,2.3c-.11-.07-.21-.15-.32-.22l1.67-2.16-.22-.17-1.67,2.16c-.1-.08-.2-.16-.3-.25l1.85-2.01-.2-.19-1.85,2.01c-.09-.09-.18-.18-.27-.27l2.01-1.84-.19-.2-2.01,1.84c-.09-.1-.17-.2-.25-.3l2.17-1.65-.17-.22-2.17,1.65c-.08-.1-.15-.21-.22-.32l2.3-1.46-.15-.23-2.3,1.46c-.07-.11-.13-.22-.19-.34l2.42-1.25-.13-.25-2.42,1.26c-.06-.12-.11-.23-.16-.35l2.52-1.04-.11-.25-2.52,1.04c-.05-.12-.09-.24-.13-.36l2.61-.82-.08-.26-2.6.82c-.04-.12-.07-.25-.1-.37l2.67-.59-.06-.27-2.67.59c-.03-.13-.05-.25-.07-.38l2.71-.35-.04-.27-2.71.35c-.01-.13-.02-.26-.03-.39l2.73-.11v-.28s-2.74.11-2.74.11c0-.13,0-.26,0-.39l2.73.12v-.28s-2.71-.12-2.71-.12c0-.13.02-.26.04-.39l2.71.36.04-.27-2.71-.36c.02-.13.04-.26.07-.38l2.66.6.06-.27-2.67-.6c.03-.13.06-.25.1-.37l2.6.83.08-.26-2.6-.83c.04-.12.09-.24.13-.36l2.52,1.05.11-.26-2.52-1.05c.05-.12.11-.24.16-.35l2.42,1.26.13-.25-2.42-1.27c.06-.11.13-.22.19-.33l2.3,1.47.15-.23-2.3-1.47c.07-.11.15-.21.22-.32l2.16,1.67.17-.22-2.16-1.67c.08-.1.16-.2.25-.3l2.01,1.85.19-.2-2.01-1.85c.09-.09.18-.18.27-.27l1.84,2.01.2-.19-1.84-2.01c.1-.09.2-.17.3-.25l1.65,2.17.22-.17-1.65-2.17c.1-.08.21-.15.32-.22l1.46,2.3.23-.15-1.46-2.3c.11-.07.22-.13.34-.19l1.25,2.42.25-.13-1.25-2.42c.12-.06.23-.11.35-.16l1.04,2.52.25-.11-1.04-2.52c.12-.05.24-.09.36-.13l.81,2.61.26-.08-.82-2.6c.12-.04.25-.07.37-.1l.59,2.67.27-.06-.59-2.67c.13-.03.25-.05.38-.07l.35,2.71.27-.04-.35-2.71c.13-.01.26-.02.39-.03l.11,2.73h.28s-.11-2.74-.11-2.74c.13,0,.26,0,.39,0l-.13,2.73h.28s.12-2.71.12-2.71c.13,0,.26.02.39.04l-.36,2.71.27.04.36-2.71c.13.02.25.04.38.07l-.59,2.66.27.06.6-2.67c.13.03.25.06.37.1l-.83,2.6.26.08.83-2.6c.12.04.24.09.36.13l-1.05,2.52.26.11,1.05-2.52c.12.05.23.11.35.16l-1.26,2.42.24.13,1.27-2.42c.11.06.22.13.33.19l-1.47,2.3.23.15,1.47-2.3c.11.07.21.15.32.22l-1.66,2.16.22.17,1.67-2.16c.1.08.2.16.3.25l-1.85,2.01.2.19,1.85-2.01c.09.09.18.18.27.27l-2.01,1.84.19.2,2.01-1.84c.09.1.17.19.25.3l-2.17,1.66.17.22,2.17-1.65c.08.1.15.21.22.32l-2.3,1.46.15.23,2.3-1.46c.07.11.13.22.19.33l-2.42,1.26.13.25,2.42-1.25c.06.12.11.23.16.35l-2.52,1.04.11.25,2.52-1.04c.05.12.09.24.13.36l-2.6.82.08.26,2.6-.82c.04.12.07.25.1.37l-2.67.59.06.27,2.67-.59c.03.13.05.25.07.38l-2.71.35.04.27,2.71-.35c.01.13.02.26.03.39l-2.73.11v.28s2.74-.11,2.74-.11c0,.13,0,.26,0,.39l-2.73-.12v.28s2.71.12,2.71.12c0,.13-.02.26-.03.38l-2.71-.36-.04.27,2.71.36c-.02.13-.04.25-.07.38l-2.66-.6-.06.27,2.67.6c-.03.13-.06.25-.1.37l-2.6-.83-.08.26,2.6.83c-.04.12-.09.24-.13.36l-2.52-1.05-.11.26,2.52,1.05c-.05.12-.11.23-.16.35l-2.42-1.26-.13.24,2.42,1.27c-.06.11-.13.22-.19.33l-2.3-1.47-.15.23,2.3,1.47c-.07.11-.15.21-.22.32l-2.16-1.66-.17.22,2.16,1.67c-.08.1-.16.2-.25.3l-2.01-1.85-.19.2,2.01,1.85c-.09.09-.18.18-.27.27l-1.84-2.01-.2.19,1.84,2.01c-.1.09-.2.17-.3.25h0Z"/><path class="cls-11" d="m56.27,119.12c-2.48-.33-4.77,1.42-5.11,3.9-.33,2.48,1.42,4.77,3.9,5.11s4.77-1.42,5.11-3.9c.33-2.48-1.42-4.77-3.9-5.11Zm-1.17,8.73c-2.33-.31-3.97-2.46-3.66-4.79s2.46-3.98,4.79-3.66,3.97,2.46,3.66,4.8c-.31,2.33-2.46,3.98-4.79,3.66Z"/><path class="cls-1" d="m118.83,124.74c-4.17-.56-8.01,2.38-8.57,6.54s2.38,8.01,6.54,8.57c4.17.56,8.01-2.38,8.57-6.54.56-4.17-2.38-8.01-6.54-8.57Zm3.55,13.3l-1.6-2.09-.21.16,1.6,2.09c-.1.07-.2.15-.31.21l-1.41-2.22-.23.14,1.41,2.22c-.11.06-.21.13-.32.19l-1.21-2.34-.24.12,1.21,2.34c-.11.05-.22.11-.34.16l-1-2.44-.25.1,1,2.44c-.12.05-.23.09-.35.13l-.79-2.52-.25.08.79,2.51c-.12.03-.24.07-.36.1l-.57-2.57-.26.06.57,2.57c-.12.02-.24.05-.37.06l-.34-2.61-.26.03.34,2.61c-.12.01-.25.02-.37.03l-.11-2.63h-.27s.11,2.65.11,2.65c-.12,0-.25,0-.37,0l.12-2.63h-.27s-.12,2.62-.12,2.62c-.12,0-.25-.02-.37-.03l.35-2.61-.26-.04-.35,2.61c-.12-.02-.25-.04-.37-.07l.58-2.57-.26-.06-.58,2.57c-.12-.03-.24-.06-.36-.1l.8-2.51-.25-.08-.8,2.51c-.12-.04-.24-.08-.35-.13l1.01-2.43-.25-.1-1.01,2.43c-.11-.05-.23-.1-.34-.16l1.22-2.34-.24-.12-1.22,2.34c-.11-.06-.22-.12-.32-.19l1.42-2.22-.23-.14-1.42,2.22c-.1-.07-.21-.14-.31-.22l1.61-2.09-.21-.16-1.61,2.09c-.1-.08-.19-.16-.29-.24l1.78-1.94-.2-.18-1.78,1.94c-.09-.09-.18-.17-.26-.26l1.94-1.78-.18-.2-1.94,1.77c-.08-.09-.16-.19-.24-.29l2.09-1.6-.16-.21-2.09,1.6c-.07-.1-.15-.2-.21-.31l2.22-1.41-.14-.22-2.22,1.41c-.06-.11-.13-.21-.19-.32l2.34-1.21-.12-.24-2.34,1.21c-.05-.11-.11-.22-.16-.34l2.44-1-.1-.25-2.44,1c-.05-.12-.09-.23-.13-.35l2.51-.79-.08-.25-2.51.79c-.03-.12-.07-.24-.1-.36l2.57-.57-.06-.26-2.57.57c-.02-.12-.05-.24-.06-.37l2.61-.34-.03-.26-2.61.34c-.01-.12-.02-.25-.03-.37l2.63-.11v-.27s-2.65.11-2.65.11c0-.12,0-.25,0-.37l2.63.12v-.27s-2.62-.12-2.62-.12c0-.12.02-.25.03-.37l2.61.35.04-.26-2.61-.35c.02-.12.04-.25.07-.37l2.57.58.06-.26-2.57-.58c.03-.12.06-.24.1-.36l2.51.8.08-.25-2.51-.8c.04-.12.08-.24.13-.35l2.43,1.01.1-.25-2.43-1.01c.05-.11.1-.23.16-.34l2.34,1.22.12-.24-2.34-1.22c.06-.11.12-.22.19-.32l2.22,1.42.14-.22-2.22-1.42c.07-.1.14-.21.22-.31l2.09,1.61.16-.21-2.09-1.61c.08-.1.16-.19.24-.29l1.94,1.78.18-.2-1.94-1.78c.09-.09.17-.18.27-.26l1.77,1.94.2-.18-1.77-1.94c.09-.08.19-.16.29-.24l1.6,2.09.21-.16-1.6-2.09c.1-.07.2-.15.31-.21l1.41,2.22.23-.14-1.41-2.22c.11-.06.21-.13.32-.19l1.21,2.34.24-.12-1.21-2.34c.11-.05.22-.11.34-.16l1,2.44.25-.1-1-2.44c.12-.05.23-.09.35-.13l.79,2.52.26-.08-.79-2.51c.12-.03.24-.07.36-.1l.56,2.57.26-.06-.57-2.57c.12-.02.24-.05.37-.06l.34,2.61.26-.03-.34-2.61c.12-.01.25-.02.37-.03l.11,2.63h.27s-.11-2.65-.11-2.65c.12,0,.25,0,.37,0l-.12,2.63h.27s.12-2.62.12-2.62c.12,0,.25.02.37.03l-.35,2.61.26.04.35-2.61c.12.02.25.04.37.07l-.57,2.57.26.06.58-2.57c.12.03.24.06.36.1l-.8,2.51.25.08.8-2.51c.12.04.23.08.35.13l-1.01,2.44.25.1,1.01-2.43c.11.05.23.1.34.16l-1.22,2.34.24.12,1.22-2.34c.11.06.22.12.32.19l-1.42,2.22.22.14,1.42-2.22c.1.07.21.14.3.22l-1.61,2.09.21.16,1.61-2.09c.1.08.19.16.29.24l-1.78,1.94.2.18,1.78-1.94c.09.09.18.17.26.26l-1.94,1.77.18.2,1.94-1.77c.08.09.16.19.24.29l-2.09,1.6.16.21,2.09-1.6c.07.1.14.2.21.31l-2.22,1.41.14.23,2.22-1.41c.06.11.13.21.19.32l-2.34,1.21.12.24,2.34-1.21c.06.11.11.22.16.34l-2.44,1,.1.25,2.44-1c.05.12.09.23.13.35l-2.51.79.08.25,2.51-.79c.03.12.07.24.1.36l-2.57.57.06.26,2.57-.57c.02.12.05.24.06.37l-2.61.34.03.26,2.61-.34c.01.12.02.25.03.37l-2.63.11v.27s2.65-.11,2.65-.11c0,.12,0,.25,0,.37l-2.63-.12v.27s2.62.12,2.62.12c0,.12-.02.25-.03.37l-2.61-.35-.04.26,2.61.35c-.02.12-.04.25-.07.37l-2.57-.58-.06.26,2.57.58c-.03.12-.06.24-.1.36l-2.51-.8-.08.25,2.51.8c-.04.12-.08.23-.13.35l-2.43-1.01-.1.25,2.43,1.01c-.05.11-.1.23-.16.34l-2.34-1.22-.12.24,2.34,1.22c-.06.11-.12.22-.19.32l-2.22-1.42-.14.23,2.22,1.42c-.07.1-.14.21-.22.3l-2.09-1.61-.16.21,2.09,1.61c-.08.1-.16.19-.24.29l-1.94-1.78-.18.2,1.94,1.78c-.09.09-.17.18-.26.26l-1.77-1.94-.2.18,1.77,1.94c-.09.09-.19.17-.29.24h0Z"/><path class="cls-11" d="m118.41,127.95c-2.4-.32-4.61,1.37-4.93,3.77-.32,2.4,1.37,4.61,3.77,4.93s4.61-1.37,4.93-3.77c.32-2.4-1.37-4.61-3.77-4.93Zm-1.13,8.43c-2.25-.3-3.84-2.38-3.54-4.63s2.38-3.84,4.63-3.54,3.84,2.38,3.54,4.63c-.3,2.25-2.38,3.84-4.63,3.54Z"/><path class="cls-11" d="m38.93,95.9l-6.79,50.78,101.68,13.6,6.79-50.78-101.68-13.6Zm3.13,4.1l5.76.77c-.43,3.18-3.35,5.41-6.53,4.99l.77-5.76Zm-5.82,43.55l.77-5.76c3.18.43,5.41,3.35,4.99,6.53l-5.76-.77Zm94.45,12.63l-5.76-.77c.43-3.18,3.35-5.41,6.53-4.99l-.77,5.76Zm1.23-9.21l-.66-.09c-4.71-.63-9.06,2.69-9.69,7.4l-.09.66-76.04-10.17.09-.66c.63-4.71-2.69-9.06-7.4-9.69l-.66-.09,3.36-25.13.66.09c4.71.63,9.06-2.69,9.69-7.4l.09-.66,76.04,10.17-.09.66c-.63,4.71,2.69,9.06,7.4,9.69l.66.09-3.36,25.13Zm3.82-28.58c-3.18-.43-5.41-3.35-4.99-6.53l5.76.77-.77,5.76Z"/><path class="cls-11" d="m54.89,125.52c-.26-.09-.45-.24-.56-.46-.11-.22-.15-.48-.11-.79l.04-.32.72.1-.05.36c-.04.28.07.44.33.47.26.03.41-.09.45-.38.02-.18,0-.35-.07-.5s-.22-.35-.44-.57c-.28-.28-.46-.54-.56-.77-.1-.23-.13-.47-.09-.74.04-.3.14-.53.3-.71.16-.17.38-.27.65-.3l.06-.42.62.08-.06.42c.26.09.44.24.56.46s.15.47.11.78l-.02.14-.72-.1.02-.19c.04-.28-.07-.44-.32-.48-.25-.03-.4.09-.43.36-.02.17,0,.32.08.48.07.15.22.34.44.57.28.29.46.55.56.78.09.23.12.48.09.76-.04.31-.15.56-.31.74-.17.18-.39.28-.66.3l-.06.48-.62-.08.06-.48Z"/><path class="cls-11" d="m117.19,134.14c-.25-.09-.43-.23-.54-.44-.11-.21-.15-.46-.11-.76l.04-.31.69.09-.05.35c-.04.27.07.42.33.46.25.03.4-.09.43-.37.02-.17,0-.34-.07-.49-.07-.15-.21-.34-.43-.55-.27-.27-.44-.52-.54-.74-.09-.22-.12-.46-.09-.71.04-.29.14-.52.29-.68.16-.17.36-.26.62-.29l.05-.41.6.08-.05.41c.25.09.43.23.54.44.11.21.14.46.1.75l-.02.13-.69-.09.02-.18c.04-.27-.07-.43-.31-.46-.24-.03-.38.08-.42.35-.02.16,0,.31.07.46.07.15.21.33.43.55.26.28.44.53.54.75.09.22.12.47.08.73-.04.3-.14.54-.3.71-.16.17-.37.27-.64.29l-.06.47-.6-.08.06-.47Z"/><path class="cls-8" d="m87.18,144.81c-.72,0-1.44-.05-2.15-.14-8.81-1.18-15.02-9.31-13.84-18.12,1.07-7.97,7.93-13.99,15.96-13.99.72,0,1.44.05,2.15.14,8.81,1.18,15.02,9.31,13.84,18.12-1.07,7.97-7.93,13.99-15.96,13.99Z"/><path class="cls-3" d="m87.15,115.06c.6,0,1.21.04,1.82.12,7.46,1,12.69,7.85,11.7,15.31-.92,6.84-6.77,11.82-13.49,11.82-.6,0-1.21-.04-1.82-.12-7.46-1-12.69-7.85-11.7-15.31.92-6.84,6.77-11.82,13.49-11.82m0-5h0c-9.28,0-17.21,6.95-18.44,16.16-1.36,10.18,5.81,19.57,15.99,20.93.82.11,1.66.17,2.49.17,9.28,0,17.21-6.95,18.44-16.16.66-4.93-.64-9.82-3.66-13.78-3.02-3.95-7.4-6.49-12.33-7.15-.82-.11-1.66-.17-2.49-.17h0Z"/><path class="cls-4" d="m99.04,131.09c-.1-.15-.28-.19-.43-.09l-.9.59c2.54-9.33-7.4-16.95-15.66-12.41-.15.1-.22.28-.12.43h0c.1.15.28.19.43.12,7.82-4.3,17.27,3.05,14.71,11.85l-.71-1.09c-.1-.15-.28-.19-.43-.09s-.19.28-.09.43l1.05,1.64c.05.07.1.12.2.14h0c.09.02.16,0,.24-.05l1.64-1.05c.15-.1.19-.28.09-.43Z"/><path class="cls-4" d="m75.29,126.29c.1.15.28.19.43.09l.9-.59c-2.54,9.33,7.4,16.95,15.66,12.41.15-.1.22-.28.12-.43h0c-.1-.15-.28-.19-.43-.12-7.82,4.3-17.27-3.05-14.71-11.85l.71,1.09c.1.15.28.19.43.09s.19-.28.09-.43l-1.05-1.64c-.05-.07-.1-.12-.2-.14h0c-.09-.02-.16,0-.24.05l-1.64,1.05c-.15.1-.19.28-.09.43Z"/><g id="Layer_4-3"><path class="cls-4" d="m88.5,121.71l-.41,3.05,2.86.38c-.11-1.02-.4-2.03-.86-2.98-.51-.2-1.05-.35-1.59-.45Z"/><path class="cls-4" d="m83.32,131.08l3.07.41.36-2.71-3.33-.45c-.11.91-.15,1.83-.1,2.75Z"/><path class="cls-4" d="m91.75,125.26l2.44.33c-.7-1.2-1.75-2.22-3.04-2.92.31.85.51,1.72.6,2.6Z"/><path class="cls-4" d="m91.82,125.98c.05.92.03,1.84-.07,2.75l3.34.45c.04-.96-.13-1.92-.52-2.83l-2.76-.37Z"/><path class="cls-4" d="m91.02,125.88l-3.03-.4-.36,2.71,3.32.44c.1-.91.12-1.83.06-2.75Z"/><path class="cls-4" d="m79.27,127.78c-.11.94,0,1.89.31,2.8l2.95.39c-.04-.92,0-1.84.11-2.75l-3.38-.45Z"/><path class="cls-4" d="m82.57,131.7l-2.68-.36c.7,1.44,1.9,2.66,3.41,3.46-.4-1-.65-2.05-.73-3.1Z"/><path class="cls-4" d="m85.83,135.67l.46-3.47-2.92-.39c.09,1.2.44,2.38,1.03,3.47.46.17.94.29,1.43.38Z"/><path class="cls-4" d="m83.94,125.73c-.18.63-.32,1.26-.42,1.91l3.32.44.36-2.71-2.32-.31c-.26.28-.59.5-.95.67Z"/><path class="cls-4" d="m85.35,124.4l1.95.26.41-3.06c-.55-.05-1.11-.04-1.65.02-.22.23-.41.48-.59.74.14.4.19.82.14,1.23-.04.28-.12.56-.25.81Z"/><path class="cls-4" d="m80.18,125.14c-.37.61-.64,1.26-.79,1.94l3.35.45c.07-.53.19-1.04.32-1.54-1.04.16-2.12-.16-2.88-.85Z"/><path class="cls-4" d="m94.15,132.23c.45-.73.74-1.52.87-2.35l-3.37-.45c-.09.66-.23,1.31-.4,1.95.34-.05.68-.06,1.03-.01.71.1,1.36.4,1.87.86Z"/><path class="cls-4" d="m89.21,132.59l-2.13-.28-.46,3.47c.49.04.99.05,1.48,0,.27-.27.51-.55.73-.86-.12-.37-.16-.76-.1-1.14.06-.43.22-.84.49-1.19Z"/><path class="cls-4" d="m90.35,131.66c.23-.76.4-1.53.51-2.32l-3.33-.45-.36,2.71,2.67.36c.16-.12.33-.22.51-.31Z"/></g><path class="cls-11" d="m78.17,123.02h-.86c-.09,0-.16.07-.16.16v1.3c0,.09.07.16.16.16h.86c.09,0,.16-.07.16-.16v-1.31c0-.08-.07-.15-.16-.15h0Z"/><path class="cls-11" d="m80.23,121.89h-.86c-.09,0-.16.07-.16.16v2.42c0,.09.07.16.16.16h.86c.09,0,.16-.07.16-.16v-2.42c0-.09-.08-.16-.17-.16h0Z"/><path class="cls-11" d="m82.29,123.02h-.86c-.09,0-.16.07-.16.16v1.3c0,.09.07.16.16.16h.86c.09,0,.16-.07.16-.16v-1.31c0-.08-.08-.15-.17-.15h0Z"/><path class="cls-11" d="m84.36,121.89h-.86c-.09,0-.16.07-.16.16v2.42c0,.09.07.16.16.16h.86c.09,0,.16-.07.16-.16v-2.42c0-.09-.07-.16-.16-.16Z"/><path class="cls-11" d="m83.52,120.89c.11.09.25.14.41.14.37,0,.67-.3.67-.67s-.3-.67-.67-.67-.67.3-.67.67c0,.06,0,.1.02.15l-1,.64c-.11-.09-.25-.14-.41-.14s-.29.06-.41.14l-1-.64s.02-.1.02-.15c0-.37-.3-.67-.67-.67s-.67.3-.67.67c0,.06,0,.1.02.15l-1,.64c-.11-.09-.25-.14-.41-.14-.37,0-.67.3-.67.67s.3.67.67.67.67-.3.67-.67c0-.06,0-.1-.02-.15l1.01-.64c.11.09.25.14.41.14s.29-.06.41-.14l1,.64s-.02.1-.02.15c0,.37.3.67.67.67s.67-.3.67-.67c0-.06,0-.1-.02-.15l.99-.64Z"/><path class="cls-11" d="m90.32,135.65h-.86c-.09,0-.16.07-.16.16v1.3c0,.09.07.16.16.16h.86c.09,0,.16-.07.16-.16v-1.31c0-.08-.07-.15-.16-.15h0Z"/><path class="cls-11" d="m92.38,134.53h-.86c-.09,0-.16.07-.16.16v2.42c0,.09.07.16.16.16h.86c.09,0,.16-.07.16-.16v-2.42c0-.09-.08-.16-.17-.16h0Z"/><path class="cls-11" d="m94.44,135.65h-.86c-.09,0-.16.07-.16.16v1.3c0,.09.07.16.16.16h.86c.09,0,.16-.07.16-.16v-1.31c0-.08-.08-.15-.17-.15h0Z"/><path class="cls-11" d="m96.51,134.53h-.86c-.09,0-.16.07-.16.16v2.42c0,.09.07.16.16.16h.86c.09,0,.16-.07.16-.16v-2.42c0-.09-.07-.16-.16-.16Z"/><path class="cls-11" d="m95.67,133.53c.11.09.25.14.41.14.37,0,.67-.3.67-.67s-.3-.67-.67-.67-.67.3-.67.67c0,.06,0,.1.02.15l-1,.64c-.11-.09-.25-.14-.41-.14s-.29.06-.41.14l-1-.64s.02-.1.02-.15c0-.37-.3-.67-.67-.67s-.67.3-.67.67c0,.06,0,.1.02.15l-1,.64c-.11-.09-.25-.14-.41-.14-.37,0-.67.3-.67.67s.3.67.67.67.67-.3.67-.67c0-.06,0-.1-.02-.15l1.01-.64c.11.09.25.14.41.14s.29-.06.41-.14l1,.64s-.02.1-.02.15c0,.37.3.67.67.67s.67-.3.67-.67c0-.06,0-.1-.02-.15l.99-.64Z"/><rect class="cls-6" x="11.73" y="33.76" width="177.81" height="3.76"/><path class="cls-3" d="m190.59,157.16c0-1.5.24-2.79.72-3.86.48-1.07,1.34-2.25,2.58-3.56,1.22-1.3,2.07-2.41,2.54-3.33.47-.92.71-1.88.71-2.88,0-.9-.15-1.52-.44-1.88s-.72-.53-1.28-.53c-1.14,0-1.71.69-1.71,2.07v2.25h-3.12v-2.04c0-1.7.42-3.01,1.26-3.92.84-.91,2.06-1.37,3.66-1.37s2.82.46,3.66,1.37c.84.91,1.26,2.22,1.26,3.92,0,1.28-.3,2.53-.92,3.75-.61,1.22-1.67,2.62-3.17,4.2-.98,1.04-1.64,1.89-1.98,2.54-.34.65-.51,1.35-.51,2.09v.45h6.27v3h-9.54v-2.28Z"/><path class="cls-3" d="m203.71,158.36c-.86-.92-1.29-2.22-1.29-3.9v-11.04c0-1.68.43-2.98,1.29-3.9.86-.92,2.1-1.38,3.72-1.38s2.86.46,3.72,1.38c.86.92,1.29,2.22,1.29,3.9v11.04c0,1.68-.43,2.98-1.29,3.9-.86.92-2.1,1.38-3.72,1.38s-2.86-.46-3.72-1.38Zm5.43-3.69v-11.46c0-1.38-.57-2.07-1.71-2.07s-1.71.69-1.71,2.07v11.46c0,1.38.57,2.07,1.71,2.07s1.71-.69,1.71-2.07Z"/><path class="cls-3" d="m215.29,149.24c-.54-.58-.81-1.41-.81-2.49v-5.25c0-1.08.27-1.91.81-2.49.54-.58,1.33-.87,2.37-.87s1.83.29,2.37.87c.54.58.81,1.41.81,2.49v5.25c0,1.08-.27,1.91-.81,2.49-.54.58-1.33.87-2.37.87s-1.83-.29-2.37-.87Zm3.45-2.34v-5.55c0-.88-.36-1.32-1.08-1.32s-1.08.44-1.08,1.32v5.55c0,.88.36,1.32,1.08,1.32s1.08-.44,1.08-1.32Zm6.54-8.46h2.1l-8.13,21h-2.1l8.13-21Zm-.78,20.43c-.54-.58-.81-1.41-.81-2.49v-5.25c0-1.08.27-1.91.81-2.49.54-.58,1.33-.87,2.37-.87s1.83.29,2.37.87c.54.58.81,1.41.81,2.49v5.25c0,1.08-.27,1.91-.81,2.49-.54.58-1.33.87-2.37.87s-1.83-.29-2.37-.87Zm3.45-2.34v-5.55c0-.88-.36-1.32-1.08-1.32s-1.08.44-1.08,1.32v5.55c0,.88.36,1.32,1.08,1.32s1.08-.44,1.08-1.32Z"/></g></svg>