<?xml version="1.0" encoding="UTF-8"?>
<svg id="Layer_2" data-name="Layer 2" xmlns="http://www.w3.org/2000/svg" xmlns:xlink="http://www.w3.org/1999/xlink" viewBox="0 0 164.66 237.76">
  <defs>
    <style>
      .cls-1 {
        fill: #bdbcbb;
      }

      .cls-2 {
        fill: #fff;
      }

      .cls-3, .cls-4 {
        fill: #d19f2a;
      }

      .cls-5 {
        fill: #939598;
      }

      .cls-6 {
        fill: #f3e2c1;
      }

      .cls-7 {
        fill: #b1b3b6;
      }

      .cls-8 {
        stroke: #fff;
        stroke-width: .7px;
      }

      .cls-8, .cls-9 {
        stroke-miterlimit: 10;
      }

      .cls-8, .cls-9, .cls-10 {
        fill: none;
      }

      .cls-9 {
        stroke: #b1b3b6;
        stroke-width: .95px;
      }

      .cls-4 {
        opacity: .25;
      }

      .cls-11 {
        clip-path: url(#clippath);
      }
    </style>
    <clipPath id="clippath">
      <path class="cls-10" d="M77.12,147.93c-23.12,.04-42.53-17.39-44.98-40.37-2.45-22.98,12.85-44.11,35.45-48.95,22.6-4.84,45.21,8.16,52.39,30.14l-21.47,7.01c-3.59-10.99-14.89-17.49-26.2-15.07-11.3,2.42-18.95,12.98-17.72,24.48,1.23,11.49,10.93,20.2,22.49,20.19l.04,22.58Z"/>
    </clipPath>
  </defs>
  <g id="Layer_2-2" data-name="Layer 2">
    <rect class="cls-3" x="30.61" y="174.36" width="92.14" height="14.69"/>
    <rect class="cls-3" x="41.34" y="223.07" width="72.69" height="14.69"/>
    <g>
      <path class="cls-5" d="M19.12,161.37h1.94c1.32,0,1.97,.73,1.97,2.08v.83c0,1.34-.65,2.08-1.97,2.08h-.62v3.42h-1.32v-8.4Zm1.94,3.78c.42,0,.65-.19,.65-.79v-1c0-.6-.23-.79-.65-.79h-.62v2.58h.62Z"/>
      <path class="cls-5" d="M24.47,161.37h1.96c1.37,0,1.95,.64,1.95,1.93v.52c0,.86-.28,1.42-.86,1.66v.02c.66,.2,.88,.83,.88,1.77v1.48c0,.41,.01,.71,.14,1.02h-1.34c-.07-.22-.12-.35-.12-1.03v-1.54c0-.78-.23-1.03-.83-1.03h-.46v3.6h-1.32v-8.4Zm1.8,3.6c.49,0,.79-.22,.79-.89v-.65c0-.6-.2-.86-.67-.86h-.6v2.4h.48Z"/>
      <path class="cls-5" d="M30.03,161.37h3.6v1.2h-2.28v2.22h1.81v1.2h-1.81v2.58h2.28v1.2h-3.6v-8.4Z"/>
      <path class="cls-5" d="M34.76,161.37h1.33l.86,6.51h.02l.86-6.51h1.21l-1.27,8.4h-1.75l-1.27-8.4Z"/>
      <path class="cls-5" d="M41.09,161.37h1.79l1.37,8.4h-1.32l-.24-1.67v.02h-1.5l-.24,1.64h-1.22l1.37-8.4Zm1.44,5.61l-.59-4.15h-.02l-.58,4.15h1.19Z"/>
      <path class="cls-5" d="M45.61,161.37h1.32v7.2h2.17v1.2h-3.49v-8.4Z"/>
      <path class="cls-5" d="M50.45,161.37h3.6v1.2h-2.28v2.22h1.81v1.2h-1.81v2.58h2.28v1.2h-3.6v-8.4Z"/>
      <path class="cls-5" d="M55.53,161.37h1.66l1.28,5.03h.02v-5.03h1.18v8.4h-1.36l-1.58-6.13h-.02v6.13h-1.18v-8.4Z"/>
      <path class="cls-5" d="M61.29,167.82v-4.51c0-1.29,.67-2.06,1.94-2.06s1.94,.77,1.94,2.06v.89h-1.25v-.97c0-.55-.26-.78-.66-.78s-.66,.23-.66,.78v4.69c0,.55,.26,.77,.66,.77s.66-.22,.66-.77v-1.28h1.25v1.19c0,1.3-.67,2.06-1.94,2.06s-1.94-.77-1.94-2.06Z"/>
      <path class="cls-5" d="M66.69,161.37h3.6v1.2h-2.28v2.22h1.81v1.2h-1.81v2.58h2.28v1.2h-3.6v-8.4Z"/>
      <path class="cls-5" d="M74.31,167.77v-4.41c0-1.34,.71-2.11,2-2.11s2,.77,2,2.11v4.41c0,1.34-.71,2.11-2,2.11s-2-.77-2-2.11Zm2.69,.08v-4.58c0-.6-.26-.83-.68-.83s-.68,.23-.68,.83v4.58c0,.6,.26,.83,.68,.83s.68-.23,.68-.83Z"/>
      <path class="cls-5" d="M79.93,161.37h3.49v1.2h-2.17v2.34h1.7v1.2h-1.7v3.66h-1.32v-8.4Z"/>
      <path class="cls-5" d="M88.43,161.37h1.79l1.37,8.4h-1.32l-.24-1.67v.02h-1.5l-.24,1.64h-1.22l1.37-8.4Zm1.44,5.61l-.59-4.15h-.02l-.58,4.15h1.19Z"/>
      <path class="cls-5" d="M92.95,161.37h1.66l1.28,5.03h.02v-5.03h1.18v8.4h-1.36l-1.58-6.13h-.02v6.13h-1.18v-8.4Z"/>
      <path class="cls-5" d="M99.81,161.37h1.79l1.37,8.4h-1.32l-.24-1.67v.02h-1.5l-.24,1.64h-1.22l1.37-8.4Zm1.44,5.61l-.59-4.15h-.02l-.58,4.15h1.19Z"/>
      <path class="cls-5" d="M104.32,161.37h3.6v1.2h-2.28v2.22h1.81v1.2h-1.81v2.58h2.28v1.2h-3.6v-8.4Z"/>
      <path class="cls-5" d="M109.4,161.37h1.88l.84,6.01h.02l.84-6.01h1.88v8.4h-1.25v-6.36h-.02l-.96,6.36h-1.1l-.96-6.36h-.02v6.36h-1.15v-8.4Z"/>
      <path class="cls-5" d="M116.57,161.37h1.32v8.4h-1.32v-8.4Z"/>
      <path class="cls-5" d="M120.62,161.37h1.79l1.37,8.4h-1.32l-.24-1.67v.02h-1.5l-.24,1.64h-1.22l1.37-8.4Zm1.44,5.61l-.59-4.15h-.02l-.58,4.15h1.19Z"/>
      <path class="cls-5" d="M127.77,161.37h1.32v8.4h-1.32v-8.4Z"/>
      <path class="cls-5" d="M130.79,161.37h1.66l1.28,5.03h.02v-5.03h1.18v8.4h-1.36l-1.58-6.13h-.02v6.13h-1.18v-8.4Z"/>
      <path class="cls-2" d="M35.42,177.37h1.27l.59,6.45h.02l.62-6.45h1.44l.62,6.45h.02l.59-6.45h1.14l-.85,8.4h-1.64l-.6-5.66h-.02l-.6,5.66h-1.75l-.85-8.4Z"/>
      <path class="cls-2" d="M43.04,183.77v-4.41c0-1.34,.71-2.11,2-2.11s2,.77,2,2.11v4.41c0,1.34-.71,2.11-2,2.11s-2-.77-2-2.11Zm2.69,.08v-4.58c0-.6-.26-.83-.68-.83s-.68,.23-.68,.83v4.58c0,.6,.26,.83,.68,.83s.68-.23,.68-.83Z"/>
      <path class="cls-2" d="M48.66,177.37h1.88l.84,6.01h.02l.84-6.01h1.88v8.4h-1.25v-6.36h-.02l-.96,6.36h-1.1l-.96-6.36h-.02v6.36h-1.15v-8.4Z"/>
      <path class="cls-2" d="M55.84,177.37h3.6v1.2h-2.28v2.22h1.81v1.2h-1.81v2.58h2.28v1.2h-3.6v-8.4Z"/>
      <path class="cls-2" d="M60.91,177.37h1.66l1.28,5.03h.02v-5.03h1.18v8.4h-1.36l-1.58-6.13h-.02v6.13h-1.18v-8.4Z"/>
      <path class="cls-2" d="M70.41,177.37h1.79l1.37,8.4h-1.32l-.24-1.67v.02h-1.5l-.24,1.64h-1.22l1.37-8.4Zm1.44,5.61l-.59-4.15h-.02l-.58,4.15h1.19Z"/>
      <path class="cls-2" d="M74.81,183.77v-4.41c0-1.34,.67-2.11,1.97-2.11s1.97,.77,1.97,2.11v.72h-1.25v-.8c0-.6-.26-.83-.68-.83s-.68,.23-.68,.83v4.59c0,.6,.26,.82,.68,.82s.68-.22,.68-.82v-1.64h-.66v-1.2h1.91v2.75c0,1.34-.67,2.11-1.97,2.11s-1.97-.77-1.97-2.11Z"/>
      <path class="cls-2" d="M80.32,177.37h3.6v1.2h-2.28v2.22h1.81v1.2h-1.81v2.58h2.28v1.2h-3.6v-8.4Z"/>
      <path class="cls-2" d="M85.39,177.37h2.01c1.32,0,1.97,.73,1.97,2.08v4.25c0,1.34-.65,2.07-1.97,2.07h-2.01v-8.4Zm1.99,7.2c.42,0,.67-.22,.67-.82v-4.37c0-.6-.25-.82-.67-.82h-.67v6h.67Z"/>
      <path class="cls-2" d="M95.47,179.36h-1.38v-.94c1.12,0,1.51-.24,1.81-1.06h.89v8.4h-1.32v-6.4Z"/>
      <path class="cls-2" d="M99.11,183.77v-.66h1.25v.76c0,.6,.26,.82,.68,.82s.68-.22,.68-.82v-1.88c0-.6-.26-.83-.68-.83s-.68,.23-.68,.83v.07h-1.25l.24-4.69h3.48v1.2h-2.3l-.11,2h.02c.24-.4,.61-.61,1.14-.61,.97,0,1.46,.68,1.46,1.92v1.9c0,1.34-.67,2.11-1.97,2.11s-1.97-.77-1.97-2.11Z"/>
      <path class="cls-2" d="M104.17,181.02h3.6v1.08h-3.6v-1.08Z"/>
      <path class="cls-2" d="M111.19,184.24h-2.52v-1.2l2.4-5.67h1.44v5.67h.62v1.2h-.62v1.52h-1.32v-1.52Zm0-1.2v-3.27h-.02l-1.3,3.27h1.32Z"/>
      <path class="cls-2" d="M114.4,183.77v-.16h1.25v.24c0,.6,.26,.83,.68,.83,.47,0,.73-.23,.73-1.03v-1.61h-.02c-.23,.48-.61,.73-1.2,.73-.97,0-1.46-.68-1.46-1.92v-1.5c0-1.34,.71-2.11,2-2.11s2,.77,2,2.11v4.34c0,1.42-.65,2.18-2.02,2.18-1.3,0-1.97-.77-1.97-2.11Zm2.66-3.02v-1.49c0-.55-.23-.82-.68-.82s-.68,.26-.68,.82v1.49c0,.56,.23,.83,.68,.83s.68-.26,.68-.83Z"/>
    </g>
    <g>
      <path class="cls-3" d="M9.27,.14h1.98V10.95h3.26v1.8h-5.24V.14Z"/>
      <path class="cls-3" d="M15.92,.14h1.98V12.75h-1.98V.14Z"/>
      <path class="cls-3" d="M19.3,.14h6.12V1.94h-2.07V12.75h-1.98V1.94h-2.07V.14Z"/>
      <path class="cls-3" d="M26.55,.14h6.12V1.94h-2.07V12.75h-1.98V1.94h-2.07V.14Z"/>
      <path class="cls-3" d="M34.08,.14h1.98V10.95h3.26v1.8h-5.24V.14Z"/>
      <path class="cls-3" d="M42.71,5.46h2.72v1.8h-2.72v3.69h3.42v1.8h-5.4V.14h5.4V1.94h-3.42v3.51Z"/>
      <path class="cls-3" d="M50.47,.14h6.12V1.94h-2.07V12.75h-1.98V1.94h-2.07V.14Z"/>
      <path class="cls-3" d="M57.88,3.17c0-2.02,1.06-3.17,3.01-3.17s3.01,1.15,3.01,3.17v6.55c0,2.02-1.06,3.17-3.01,3.17s-3.01-1.15-3.01-3.17V3.17Zm1.98,6.68c0,.9,.4,1.24,1.03,1.24s1.03-.34,1.03-1.24V3.04c0-.9-.4-1.24-1.03-1.24s-1.03,.34-1.03,1.24v6.81Z"/>
      <path class="cls-3" d="M70.62,3.62V12.75h-1.78V.14h2.48l2.03,7.54V.14h1.76V12.75h-2.03l-2.47-9.13Z"/>
      <path class="cls-3" d="M76.76,3.17c0-2.02,1.06-3.17,3.01-3.17s3.01,1.15,3.01,3.17v6.55c0,2.02-1.06,3.17-3.01,3.17s-3.01-1.15-3.01-3.17V3.17Zm1.98,6.68c0,.9,.4,1.24,1.03,1.24s1.03-.34,1.03-1.24V3.04c0-.9-.4-1.24-1.03-1.24s-1.03,.34-1.03,1.24v6.81Z"/>
      <path class="cls-3" d="M93.61,3.26v1.64c0,2.02-.97,3.12-2.95,3.12h-.94v4.74h-1.98V.14h2.92c1.98,0,2.95,1.1,2.95,3.11Zm-3.89-1.31V6.21h.94c.63,0,.97-.29,.97-1.19v-1.89c0-.9-.34-1.19-.97-1.19h-.94Z"/>
      <path class="cls-3" d="M99.19,12.75c-.11-.32-.18-.52-.18-1.55v-1.98c0-1.17-.4-1.6-1.3-1.6h-.68v5.13h-1.98V.14h2.99c2.05,0,2.94,.95,2.94,2.9v.99c0,1.3-.41,2.14-1.3,2.56,.99,.41,1.31,1.37,1.31,2.68v1.94c0,.61,.02,1.06,.22,1.53h-2.02Zm-2.16-10.8v3.87h.77c.74,0,1.19-.32,1.19-1.33v-1.24c0-.9-.31-1.3-1.01-1.3h-.95Z"/>
      <path class="cls-3" d="M102.53,3.17c0-2.02,1.06-3.17,3.01-3.17s3.01,1.15,3.01,3.17v6.55c0,2.02-1.06,3.17-3.01,3.17s-3.01-1.15-3.01-3.17V3.17Zm1.98,6.68c0,.9,.4,1.24,1.03,1.24s1.03-.34,1.03-1.24V3.04c0-.9-.4-1.24-1.03-1.24s-1.03,.34-1.03,1.24v6.81Z"/>
      <path class="cls-3" d="M113.22,5.73h2.77v4c0,2.02-1.01,3.17-2.95,3.17s-2.95-1.15-2.95-3.17V3.17c0-2.02,1.01-3.17,2.95-3.17s2.95,1.15,2.95,3.17v1.22h-1.87v-1.35c0-.9-.4-1.24-1.03-1.24s-1.03,.34-1.03,1.24v6.81c0,.9,.4,1.22,1.03,1.22s1.03-.32,1.03-1.22v-2.32h-.9v-1.8Z"/>
      <path class="cls-3" d="M121.77,12.75c-.11-.32-.18-.52-.18-1.55v-1.98c0-1.17-.4-1.6-1.3-1.6h-.68v5.13h-1.98V.14h2.99c2.05,0,2.93,.95,2.93,2.9v.99c0,1.3-.41,2.14-1.3,2.56,.99,.41,1.31,1.37,1.31,2.68v1.94c0,.61,.02,1.06,.22,1.53h-2.02Zm-2.16-10.8v3.87h.77c.74,0,1.19-.32,1.19-1.33v-1.24c0-.9-.31-1.3-1.01-1.3h-.95Z"/>
      <path class="cls-3" d="M127.28,5.46h2.72v1.8h-2.72v3.69h3.42v1.8h-5.4V.14h5.4V1.94h-3.42v3.51Z"/>
      <path class="cls-3" d="M135.08,0c1.93,0,2.92,1.15,2.92,3.17v.4h-1.87v-.52c0-.9-.36-1.24-.99-1.24s-.99,.34-.99,1.24c0,2.59,3.87,3.08,3.87,6.68,0,2.02-1.01,3.17-2.95,3.17s-2.95-1.15-2.95-3.17v-.77h1.87v.9c0,.9,.4,1.22,1.03,1.22s1.03-.32,1.03-1.22c0-2.59-3.87-3.08-3.87-6.68,0-2.02,.99-3.17,2.92-3.17Z"/>
      <path class="cls-3" d="M142.37,0c1.93,0,2.92,1.15,2.92,3.17v.4h-1.87v-.52c0-.9-.36-1.24-.99-1.24s-.99,.34-.99,1.24c0,2.59,3.87,3.08,3.87,6.68,0,2.02-1.01,3.17-2.95,3.17s-2.95-1.15-2.95-3.17v-.77h1.87v.9c0,.9,.4,1.22,1.03,1.22s1.03-.32,1.03-1.22c0-2.59-3.87-3.08-3.87-6.68,0-2.02,.99-3.17,2.92-3.17Z"/>
    </g>
    <g>
      <path class="cls-5" d="M9.46,18.68h1.32v3.42h1.42v-3.42h1.32v8.4h-1.32v-3.78h-1.42v3.78h-1.32v-8.4Z"/>
      <path class="cls-5" d="M16.85,18.68h1.79l1.37,8.4h-1.32l-.24-1.67v.02h-1.5l-.24,1.64h-1.22l1.37-8.4Zm1.44,5.61l-.59-4.15h-.02l-.58,4.15h1.19Z"/>
      <path class="cls-5" d="M21.71,25.09v-.48h1.25v.58c0,.6,.26,.82,.68,.82s.68-.22,.68-.84c0-.7-.26-1.14-1.13-1.9-1.1-.97-1.46-1.65-1.46-2.61,0-1.32,.68-2.09,1.97-2.09s1.92,.77,1.92,2.11v.35h-1.25v-.43c0-.6-.24-.83-.66-.83s-.66,.23-.66,.8c0,.61,.28,1.06,1.14,1.81,1.1,.97,1.45,1.64,1.45,2.69,0,1.37-.7,2.13-1.99,2.13s-1.94-.77-1.94-2.11Z"/>
      <path class="cls-5" d="M30.99,18.68h1.99c1.37,0,1.95,.64,1.95,1.93v.34c0,.86-.26,1.4-.85,1.64v.02c.71,.24,.98,.86,.98,1.75v.72c0,1.29-.68,1.99-2,1.99h-2.07v-8.4Zm1.83,3.42c.49,0,.79-.22,.79-.89v-.47c0-.6-.2-.86-.67-.86h-.64v2.22h.52Zm.24,3.78c.44,0,.68-.2,.68-.83v-.73c0-.78-.25-1.02-.85-1.02h-.59v2.58h.76Z"/>
      <path class="cls-5" d="M37.17,18.68h3.6v1.2h-2.28v2.22h1.81v1.2h-1.81v2.58h2.28v1.2h-3.6v-8.4Z"/>
      <path class="cls-5" d="M42.86,18.68h3.6v1.2h-2.28v2.22h1.81v1.2h-1.81v2.58h2.28v1.2h-3.6v-8.4Z"/>
      <path class="cls-5" d="M48.54,18.68h1.66l1.28,5.03h.02v-5.03h1.18v8.4h-1.36l-1.58-6.13h-.02v6.13h-1.18v-8.4Z"/>
      <path class="cls-5" d="M58.25,18.68h1.88l.84,6.01h.02l.84-6.01h1.88v8.4h-1.25v-6.36h-.02l-.96,6.36h-1.1l-.96-6.36h-.02v6.36h-1.15v-8.4Z"/>
      <path class="cls-5" d="M67.06,18.68h1.79l1.37,8.4h-1.32l-.24-1.67v.02h-1.5l-.24,1.64h-1.22l1.37-8.4Zm1.44,5.61l-.59-4.15h-.02l-.58,4.15h1.19Z"/>
      <path class="cls-5" d="M72.18,18.68h2.01c1.32,0,1.97,.73,1.97,2.08v4.25c0,1.34-.65,2.07-1.97,2.07h-2.01v-8.4Zm1.99,7.2c.42,0,.67-.22,.67-.82v-4.37c0-.6-.25-.82-.67-.82h-.67v6h.67Z"/>
      <path class="cls-5" d="M78.39,18.68h3.6v1.2h-2.28v2.22h1.81v1.2h-1.81v2.58h2.28v1.2h-3.6v-8.4Z"/>
      <path class="cls-5" d="M87.33,18.68h1.32v8.4h-1.32v-8.4Z"/>
      <path class="cls-5" d="M90.96,18.68h1.66l1.28,5.03h.02v-5.03h1.18v8.4h-1.36l-1.58-6.13h-.02v6.13h-1.18v-8.4Z"/>
      <path class="cls-5" d="M100.67,18.68h1.95c1.37,0,1.96,.64,1.96,1.93v.52c0,.86-.28,1.42-.86,1.66v.02c.66,.2,.88,.83,.88,1.77v1.48c0,.41,.01,.71,.14,1.02h-1.34c-.07-.22-.12-.35-.12-1.03v-1.54c0-.78-.23-1.03-.83-1.03h-.46v3.6h-1.32v-8.4Zm1.8,3.6c.49,0,.79-.22,.79-.89v-.65c0-.6-.2-.86-.67-.86h-.6v2.4h.48Z"/>
      <path class="cls-5" d="M106.84,18.68h3.6v1.2h-2.28v2.22h1.81v1.2h-1.81v2.58h2.28v1.2h-3.6v-8.4Z"/>
      <path class="cls-5" d="M112.53,18.68h2.01c1.32,0,1.97,.73,1.97,2.08v4.25c0,1.34-.65,2.07-1.97,2.07h-2.01v-8.4Zm1.99,7.2c.42,0,.67-.22,.67-.82v-4.37c0-.6-.25-.82-.67-.82h-.67v6h.67Z"/>
      <path class="cls-5" d="M118.68,25.09v-6.4h1.32v6.5c0,.6,.25,.82,.67,.82s.67-.22,.67-.82v-6.5h1.27v6.4c0,1.34-.67,2.11-1.97,2.11s-1.97-.77-1.97-2.11Z"/>
      <path class="cls-5" d="M124.8,25.14v-4.51c0-1.29,.67-2.06,1.94-2.06s1.94,.77,1.94,2.06v.89h-1.25v-.97c0-.55-.26-.78-.66-.78s-.66,.23-.66,.78v4.69c0,.55,.26,.77,.66,.77s.66-.22,.66-.77v-1.28h1.25v1.19c0,1.3-.67,2.06-1.94,2.06s-1.94-.77-1.94-2.06Z"/>
      <path class="cls-5" d="M130.82,18.68h1.32v8.4h-1.32v-8.4Z"/>
      <path class="cls-5" d="M134.45,18.68h1.66l1.28,5.03h.02v-5.03h1.18v8.4h-1.36l-1.58-6.13h-.02v6.13h-1.18v-8.4Z"/>
      <path class="cls-5" d="M140.81,25.09v-4.41c0-1.34,.67-2.11,1.97-2.11s1.97,.77,1.97,2.11v.72h-1.25v-.8c0-.6-.26-.83-.68-.83s-.68,.23-.68,.83v4.59c0,.6,.26,.82,.68,.82s.68-.22,.68-.82v-1.64h-.66v-1.2h1.91v2.75c0,1.34-.67,2.11-1.97,2.11s-1.97-.77-1.97-2.11Z"/>
      <path class="cls-5" d="M10.17,32.68h1.79l1.37,8.4h-1.32l-.24-1.67v.02h-1.5l-.24,1.64h-1.22l1.37-8.4Zm1.44,5.61l-.59-4.15h-.02l-.58,4.15h1.19Z"/>
      <path class="cls-5" d="M14.48,32.68h1.66l1.28,5.03h.02v-5.03h1.18v8.4h-1.36l-1.58-6.13h-.02v6.13h-1.18v-8.4Z"/>
      <path class="cls-5" d="M21.14,32.68h1.79l1.37,8.4h-1.32l-.24-1.67v.02h-1.5l-.24,1.64h-1.22l1.37-8.4Zm1.44,5.61l-.59-4.15h-.02l-.58,4.15h1.19Z"/>
      <path class="cls-5" d="M25.44,32.68h3.6v1.2h-2.28v2.22h1.81v1.2h-1.81v2.58h2.28v1.2h-3.6v-8.4Z"/>
      <path class="cls-5" d="M30.32,32.68h1.88l.84,6.01h.02l.84-6.01h1.88v8.4h-1.25v-6.36h-.02l-.96,6.36h-1.1l-.96-6.36h-.02v6.36h-1.15v-8.4Z"/>
      <path class="cls-5" d="M37.29,32.68h1.32v8.4h-1.32v-8.4Z"/>
      <path class="cls-5" d="M41.13,32.68h1.79l1.37,8.4h-1.32l-.24-1.67v.02h-1.5l-.24,1.64h-1.22l1.37-8.4Zm1.44,5.61l-.59-4.15h-.02l-.58,4.15h1.19Z"/>
      <path class="cls-5" d="M47.56,32.68h1.27l.59,6.45h.02l.62-6.45h1.44l.62,6.45h.02l.59-6.45h1.14l-.85,8.4h-1.64l-.6-5.66h-.02l-.6,5.66h-1.75l-.85-8.4Z"/>
      <path class="cls-5" d="M54.98,39.09v-4.41c0-1.34,.71-2.11,2-2.11s2,.77,2,2.11v4.41c0,1.34-.71,2.11-2,2.11s-2-.77-2-2.11Zm2.69,.08v-4.58c0-.6-.26-.83-.68-.83s-.68,.23-.68,.83v4.58c0,.6,.26,.83,.68,.83s.68-.23,.68-.83Z"/>
      <path class="cls-5" d="M60.39,32.68h1.95c1.37,0,1.96,.64,1.96,1.93v.52c0,.86-.28,1.42-.86,1.66v.02c.66,.2,.88,.83,.88,1.77v1.48c0,.41,.01,.71,.14,1.02h-1.34c-.07-.22-.12-.35-.12-1.03v-1.54c0-.78-.23-1.03-.83-1.03h-.46v3.6h-1.32v-8.4Zm1.8,3.6c.49,0,.79-.22,.79-.89v-.65c0-.6-.2-.86-.67-.86h-.6v2.4h.48Z"/>
      <path class="cls-5" d="M65.74,32.68h1.32v7.2h2.17v1.2h-3.49v-8.4Z"/>
      <path class="cls-5" d="M70.38,32.68h2.01c1.32,0,1.97,.73,1.97,2.08v4.25c0,1.34-.65,2.07-1.97,2.07h-2.01v-8.4Zm1.99,7.2c.42,0,.67-.22,.67-.82v-4.37c0-.6-.25-.82-.67-.82h-.67v6h.67Z"/>
      <path class="cls-5" d="M75.46,32.68h1.27l.59,6.45h.02l.62-6.45h1.44l.62,6.45h.02l.59-6.45h1.14l-.85,8.4h-1.64l-.6-5.66h-.02l-.6,5.66h-1.75l-.85-8.4Z"/>
      <path class="cls-5" d="M82.97,32.68h1.32v8.4h-1.32v-8.4Z"/>
      <path class="cls-5" d="M85.79,32.68h2.01c1.32,0,1.97,.73,1.97,2.08v4.25c0,1.34-.65,2.07-1.97,2.07h-2.01v-8.4Zm1.99,7.2c.42,0,.67-.22,.67-.82v-4.37c0-.6-.25-.82-.67-.82h-.67v6h.67Z"/>
      <path class="cls-5" d="M91.18,32.68h3.6v1.2h-2.28v2.22h1.81v1.2h-1.81v2.58h2.28v1.2h-3.6v-8.4Z"/>
      <path class="cls-5" d="M98.26,39.09v-.48h1.25v.58c0,.6,.26,.82,.68,.82s.68-.22,.68-.84c0-.7-.26-1.14-1.13-1.9-1.1-.97-1.46-1.65-1.46-2.61,0-1.32,.68-2.09,1.97-2.09s1.92,.77,1.92,2.11v.35h-1.25v-.43c0-.6-.24-.83-.66-.83s-.66,.23-.66,.8c0,.61,.28,1.06,1.14,1.81,1.1,.97,1.45,1.64,1.45,2.69,0,1.37-.7,2.13-1.99,2.13s-1.94-.77-1.94-2.11Z"/>
      <path class="cls-5" d="M103.47,32.68h1.32v8.4h-1.32v-8.4Z"/>
      <path class="cls-5" d="M106.29,32.68h1.66l1.28,5.03h.02v-5.03h1.18v8.4h-1.36l-1.58-6.13h-.02v6.13h-1.18v-8.4Z"/>
      <path class="cls-5" d="M111.84,39.14v-4.51c0-1.29,.67-2.06,1.94-2.06s1.94,.77,1.94,2.06v.89h-1.25v-.97c0-.55-.26-.78-.66-.78s-.66,.23-.66,.78v4.69c0,.55,.26,.77,.66,.77s.66-.22,.66-.77v-1.28h1.25v1.19c0,1.3-.67,2.06-1.94,2.06s-1.94-.77-1.94-2.06Z"/>
      <path class="cls-5" d="M117.04,32.68h3.6v1.2h-2.28v2.22h1.81v1.2h-1.81v2.58h2.28v1.2h-3.6v-8.4Z"/>
      <path class="cls-5" d="M124.32,40.17c0-1.2,.34-1.93,1.32-2.96,1.01-1.07,1.3-1.7,1.3-2.48s-.26-.96-.68-.96-.68,.23-.68,.83v.9h-1.25v-.82c0-1.34,.67-2.11,1.97-2.11s1.97,.77,1.97,2.11c0,1-.41,1.88-1.63,3.18-.79,.84-1,1.26-1,1.85v.18h2.51v1.2h-3.81v-.91Z"/>
      <path class="cls-5" d="M129.57,39.09v-4.41c0-1.34,.71-2.11,2-2.11s2,.77,2,2.11v4.41c0,1.34-.71,2.11-2,2.11s-2-.77-2-2.11Zm2.69,.08v-4.58c0-.6-.26-.83-.68-.83s-.68,.23-.68,.83v4.58c0,.6,.26,.83,.68,.83s.68-.23,.68-.83Z"/>
      <path class="cls-5" d="M134.88,39.09v-4.41c0-1.34,.71-2.11,2-2.11s2,.77,2,2.11v4.41c0,1.34-.71,2.11-2,2.11s-2-.77-2-2.11Zm2.69,.08v-4.58c0-.6-.26-.83-.68-.83s-.68,.23-.68,.83v4.58c0,.6,.26,.83,.68,.83s.68-.23,.68-.83Z"/>
      <path class="cls-5" d="M140.2,39.09v-4.41c0-1.34,.71-2.11,2-2.11s2,.77,2,2.11v4.41c0,1.34-.71,2.11-2,2.11s-2-.77-2-2.11Zm2.69,.08v-4.58c0-.6-.26-.83-.68-.83s-.68,.23-.68,.83v4.58c0,.6,.26,.83,.68,.83s.68-.23,.68-.83Z"/>
    </g>
    <g>
      <path class="cls-5" d="M23.82,210.13h1.32v3.42h1.42v-3.42h1.32v8.4h-1.32v-3.78h-1.42v3.78h-1.32v-8.4Z"/>
      <path class="cls-5" d="M30.6,210.13h1.79l1.37,8.4h-1.32l-.24-1.67v.02h-1.5l-.24,1.64h-1.22l1.37-8.4Zm1.44,5.61l-.59-4.15h-.02l-.58,4.15h1.19Z"/>
      <path class="cls-5" d="M34.85,216.53v-.48h1.25v.58c0,.6,.26,.82,.68,.82s.68-.22,.68-.84c0-.7-.26-1.14-1.13-1.9-1.1-.97-1.46-1.65-1.46-2.61,0-1.32,.68-2.09,1.97-2.09s1.92,.77,1.92,2.11v.35h-1.25v-.43c0-.6-.24-.83-.66-.83s-.66,.23-.66,.8c0,.61,.28,1.06,1.14,1.81,1.1,.97,1.45,1.64,1.45,2.69,0,1.37-.7,2.13-1.99,2.13s-1.94-.77-1.94-2.11Z"/>
      <path class="cls-5" d="M42.9,210.13h1.96c1.37,0,1.95,.64,1.95,1.93v.52c0,.86-.28,1.42-.86,1.66v.02c.66,.2,.88,.83,.88,1.77v1.48c0,.41,.01,.71,.14,1.02h-1.34c-.07-.22-.12-.35-.12-1.03v-1.54c0-.78-.23-1.03-.83-1.03h-.46v3.6h-1.32v-8.4Zm1.8,3.6c.49,0,.79-.22,.79-.89v-.65c0-.6-.2-.86-.67-.86h-.6v2.4h.48Z"/>
      <path class="cls-5" d="M48.46,210.13h3.6v1.2h-2.28v2.22h1.81v1.2h-1.81v2.58h2.28v1.2h-3.6v-8.4Z"/>
      <path class="cls-5" d="M53.54,210.13h1.88l.84,6.01h.02l.84-6.01h1.88v8.4h-1.25v-6.36h-.02l-.96,6.36h-1.1l-.96-6.36h-.02v6.36h-1.15v-8.4Z"/>
      <path class="cls-5" d="M61.73,210.13h1.79l1.37,8.4h-1.32l-.24-1.67v.02h-1.5l-.24,1.64h-1.22l1.37-8.4Zm1.44,5.61l-.59-4.15h-.02l-.58,4.15h1.19Z"/>
      <path class="cls-5" d="M66.24,210.13h1.32v8.4h-1.32v-8.4Z"/>
      <path class="cls-5" d="M69.27,210.13h1.66l1.28,5.03h.02v-5.03h1.18v8.4h-1.36l-1.58-6.13h-.02v6.13h-1.18v-8.4Z"/>
      <path class="cls-5" d="M75.11,210.13h3.6v1.2h-2.28v2.22h1.81v1.2h-1.81v2.58h2.28v1.2h-3.6v-8.4Z"/>
      <path class="cls-5" d="M80.19,210.13h2.01c1.32,0,1.97,.73,1.97,2.08v4.25c0,1.34-.65,2.07-1.97,2.07h-2.01v-8.4Zm1.99,7.2c.42,0,.67-.22,.67-.82v-4.37c0-.6-.25-.82-.67-.82h-.67v6h.67Z"/>
      <path class="cls-5" d="M88.19,216.53v-.48h1.25v.58c0,.6,.26,.82,.68,.82s.68-.22,.68-.84c0-.7-.26-1.14-1.13-1.9-1.1-.97-1.46-1.65-1.46-2.61,0-1.32,.68-2.09,1.97-2.09s1.92,.77,1.92,2.11v.35h-1.25v-.43c0-.6-.24-.83-.66-.83s-.66,.23-.66,.8c0,.61,.28,1.06,1.14,1.81,1.1,.97,1.45,1.64,1.45,2.69,0,1.37-.7,2.13-1.99,2.13s-1.94-.77-1.94-2.11Z"/>
      <path class="cls-5" d="M94.63,211.33h-1.38v-1.2h4.08v1.2h-1.38v7.2h-1.32v-7.2Z"/>
      <path class="cls-5" d="M99.16,210.13h1.79l1.37,8.4h-1.32l-.24-1.67v.02h-1.5l-.24,1.64h-1.22l1.37-8.4Zm1.44,5.61l-.59-4.15h-.02l-.58,4.15h1.19Z"/>
      <path class="cls-5" d="M103.55,216.53v-4.41c0-1.34,.67-2.11,1.97-2.11s1.97,.77,1.97,2.11v.72h-1.25v-.8c0-.6-.26-.83-.68-.83s-.68,.23-.68,.83v4.59c0,.6,.26,.82,.68,.82s.68-.22,.68-.82v-1.64h-.66v-1.2h1.91v2.75c0,1.34-.67,2.11-1.97,2.11s-1.97-.77-1.97-2.11Z"/>
      <path class="cls-5" d="M109.06,210.13h1.66l1.28,5.03h.02v-5.03h1.18v8.4h-1.36l-1.58-6.13h-.02v6.13h-1.18v-8.4Z"/>
      <path class="cls-5" d="M115.92,210.13h1.79l1.37,8.4h-1.32l-.24-1.67v.02h-1.5l-.24,1.64h-1.22l1.37-8.4Zm1.44,5.61l-.59-4.15h-.02l-.58,4.15h1.19Z"/>
      <path class="cls-5" d="M120.44,210.13h1.66l1.28,5.03h.02v-5.03h1.18v8.4h-1.36l-1.58-6.13h-.02v6.13h-1.18v-8.4Z"/>
      <path class="cls-5" d="M127.31,211.33h-1.38v-1.2h4.08v1.2h-1.38v7.2h-1.32v-7.2Z"/>
      <path class="cls-2" d="M46.05,226.13h1.79l1.37,8.4h-1.32l-.24-1.67v.02h-1.5l-.24,1.64h-1.22l1.37-8.4Zm1.44,5.61l-.59-4.15h-.02l-.58,4.15h1.19Z"/>
      <path class="cls-2" d="M51.04,227.33h-1.38v-1.2h4.08v1.2h-1.38v7.2h-1.32v-7.2Z"/>
      <path class="cls-2" d="M58.76,226.13h1.79l1.37,8.4h-1.32l-.24-1.67v.02h-1.5l-.24,1.64h-1.22l1.37-8.4Zm1.44,5.61l-.59-4.15h-.02l-.58,4.15h1.19Z"/>
      <path class="cls-2" d="M63.27,226.13h1.95c1.37,0,1.96,.64,1.96,1.93v.52c0,.86-.28,1.42-.86,1.66v.02c.66,.2,.88,.83,.88,1.77v1.48c0,.41,.01,.71,.14,1.02h-1.34c-.07-.22-.12-.35-.12-1.03v-1.54c0-.78-.23-1.03-.83-1.03h-.46v3.6h-1.32v-8.4Zm1.8,3.6c.49,0,.79-.22,.79-.89v-.65c0-.6-.2-.86-.67-.86h-.6v2.4h.48Z"/>
      <path class="cls-2" d="M68.73,232.53v-4.41c0-1.34,.71-2.11,2-2.11s2,.77,2,2.11v4.41c0,1.34-.71,2.11-2,2.11s-2-.77-2-2.11Zm2.69,.08v-4.58c0-.6-.26-.83-.68-.83s-.68,.23-.68,.83v4.58c0,.6,.26,.83,.68,.83s.68-.23,.68-.83Z"/>
      <path class="cls-2" d="M74.3,232.53v-6.4h1.32v6.5c0,.6,.25,.82,.67,.82s.67-.22,.67-.82v-6.5h1.27v6.4c0,1.34-.67,2.11-1.97,2.11s-1.97-.77-1.97-2.11Z"/>
      <path class="cls-2" d="M79.89,226.13h1.66l1.28,5.03h.02v-5.03h1.18v8.4h-1.36l-1.58-6.13h-.02v6.13h-1.18v-8.4Z"/>
      <path class="cls-2" d="M85.74,226.13h2.01c1.32,0,1.97,.73,1.97,2.08v4.25c0,1.34-.65,2.07-1.97,2.07h-2.01v-8.4Zm1.99,7.2c.42,0,.67-.22,.67-.82v-4.37c0-.6-.25-.82-.67-.82h-.67v6h.67Z"/>
      <path class="cls-2" d="M93.87,232.56v-.68h1.25v.74c0,.6,.26,.83,.68,.83s.68-.2,.68-.95v-.68c0-.78-.26-1.07-.86-1.07h-.44v-1.2h.48c.49,0,.79-.22,.79-.89v-.61c0-.6-.28-.84-.66-.84s-.64,.23-.64,.78v.55h-1.25v-.44c0-1.34,.67-2.09,1.93-2.09s1.93,.73,1.93,2.07v.3c0,.9-.29,1.45-.94,1.69v.02c.71,.26,.97,.88,.97,1.73v.74c0,1.34-.67,2.08-1.97,2.08s-1.97-.74-1.97-2.09Z"/>
      <path class="cls-2" d="M99.39,232.53v-4.41c0-1.34,.71-2.11,2-2.11s2,.77,2,2.11v4.41c0,1.34-.71,2.11-2,2.11s-2-.77-2-2.11Zm2.69,.08v-4.58c0-.6-.26-.83-.68-.83s-.68,.23-.68,.83v4.58c0,.6,.26,.83,.68,.83s.68-.23,.68-.83Z"/>
      <path class="cls-2" d="M104.94,229.45v-2.1c0-.86,.44-1.34,1.27-1.34s1.27,.48,1.27,1.34v2.1c0,.86-.44,1.34-1.27,1.34s-1.27-.48-1.27-1.34Zm1.7,.06v-2.22c0-.37-.17-.53-.43-.53s-.43,.16-.43,.53v2.22c0,.37,.16,.53,.43,.53s.43-.16,.43-.53Zm2.61-3.38h.84l-3.25,8.4h-.84l3.25-8.4Zm-.64,7.17v-2.1c0-.86,.44-1.34,1.27-1.34s1.27,.48,1.27,1.34v2.1c0,.86-.44,1.34-1.27,1.34s-1.27-.48-1.27-1.34Zm1.7,.06v-2.22c0-.37-.17-.53-.43-.53s-.43,.16-.43,.53v2.22c0,.37,.16,.53,.43,.53s.43-.16,.43-.53Z"/>
    </g>
    <g>
      <polyline class="cls-9" points="128.45 180.92 149.17 180.92 149.17 106.23 112.98 106.23"/>
      <path class="cls-7" d="M128.54,182.7c-.99,0-1.79-.8-1.79-1.79s.8-1.79,1.79-1.79,1.79,.8,1.79,1.79-.8,1.79-1.79,1.79Z"/>
    </g>
    <g>
      <polyline class="cls-9" points="25.72 181.15 3.05 181.15 3.05 230.08 34.39 230.08"/>
      <path class="cls-7" d="M34.31,231.87c.99,0,1.79-.8,1.79-1.79s-.8-1.79-1.79-1.79-1.79,.8-1.79,1.79,.8,1.79,1.79,1.79Z"/>
    </g>
    <rect class="cls-4" x="98.29" y="44.06" width="46.2" height="3.55"/>
    <g>
      <path class="cls-3" d="M119.9,88.68h0c4.49,13.74,2.13,28.8-6.35,40.51-8.48,11.71-22.05,18.65-36.51,18.68l-.04-22.58c7.23-.01,14.01-3.48,18.25-9.34,4.24-5.85,5.42-13.39,3.18-20.26l21.47-7.01Z"/>
      <g id="Element_1">
        <path class="cls-1" d="M77.04,147.87c-23.12,.04-42.53-17.39-44.98-40.37-2.45-22.98,12.85-44.11,35.45-48.95,22.6-4.84,45.21,8.16,52.39,30.14l-21.47,7.01c-3.59-10.99-14.89-17.49-26.2-15.07-11.3,2.42-18.95,12.98-17.72,24.48,1.23,11.49,10.93,20.2,22.49,20.19l.04,22.58Z"/>
      </g>
      <g class="cls-11">
        <g>
          <line class="cls-8" x1="164.41" y1="122.9" x2="64.39" y2="24.39"/>
          <line class="cls-8" x1="162.85" y1="124.58" x2="62.83" y2="26.08"/>
          <line class="cls-8" x1="161.28" y1="126.27" x2="61.26" y2="27.76"/>
          <line class="cls-8" x1="159.72" y1="127.95" x2="59.7" y2="29.45"/>
          <line class="cls-8" x1="158.15" y1="129.63" x2="58.13" y2="31.13"/>
          <line class="cls-8" x1="156.59" y1="131.32" x2="56.57" y2="32.81"/>
          <line class="cls-8" x1="155.02" y1="133" x2="55" y2="34.5"/>
          <line class="cls-8" x1="153.46" y1="134.69" x2="53.44" y2="36.18"/>
          <line class="cls-8" x1="151.89" y1="136.37" x2="51.87" y2="37.87"/>
          <line class="cls-8" x1="150.33" y1="138.06" x2="50.31" y2="39.55"/>
          <line class="cls-8" x1="148.77" y1="139.74" x2="48.75" y2="41.23"/>
          <line class="cls-8" x1="147.2" y1="141.42" x2="47.18" y2="42.92"/>
          <line class="cls-8" x1="145.64" y1="143.11" x2="45.62" y2="44.6"/>
          <line class="cls-8" x1="144.07" y1="144.79" x2="44.05" y2="46.29"/>
          <line class="cls-8" x1="142.51" y1="146.48" x2="42.49" y2="47.97"/>
          <line class="cls-8" x1="140.94" y1="148.16" x2="40.92" y2="49.66"/>
          <line class="cls-8" x1="139.38" y1="149.85" x2="39.36" y2="51.34"/>
          <line class="cls-8" x1="137.81" y1="151.53" x2="37.79" y2="53.02"/>
          <line class="cls-8" x1="136.25" y1="153.21" x2="36.23" y2="54.71"/>
          <line class="cls-8" x1="134.68" y1="154.9" x2="34.66" y2="56.39"/>
          <line class="cls-8" x1="133.12" y1="156.58" x2="33.1" y2="58.08"/>
          <line class="cls-8" x1="131.56" y1="158.27" x2="31.54" y2="59.76"/>
          <line class="cls-8" x1="129.99" y1="159.95" x2="29.97" y2="61.45"/>
          <line class="cls-8" x1="128.43" y1="161.63" x2="28.41" y2="63.13"/>
          <line class="cls-8" x1="126.86" y1="163.32" x2="26.84" y2="64.81"/>
          <line class="cls-8" x1="125.3" y1="165" x2="25.28" y2="66.5"/>
          <line class="cls-8" x1="123.73" y1="166.69" x2="23.71" y2="68.18"/>
          <line class="cls-8" x1="122.17" y1="168.37" x2="22.15" y2="69.87"/>
          <line class="cls-8" x1="120.6" y1="170.06" x2="20.58" y2="71.55"/>
          <line class="cls-8" x1="119.04" y1="171.74" x2="19.02" y2="73.24"/>
          <line class="cls-8" x1="117.47" y1="173.42" x2="17.45" y2="74.92"/>
          <line class="cls-8" x1="115.91" y1="175.11" x2="15.89" y2="76.6"/>
          <line class="cls-8" x1="114.34" y1="176.79" x2="14.33" y2="78.29"/>
          <line class="cls-8" x1="112.78" y1="178.48" x2="12.76" y2="79.97"/>
          <line class="cls-8" x1="111.22" y1="180.16" x2="11.2" y2="81.66"/>
          <line class="cls-8" x1="109.65" y1="181.85" x2="9.63" y2="83.34"/>
          <line class="cls-8" x1="108.09" y1="183.53" x2="8.07" y2="85.02"/>
          <line class="cls-8" x1="106.52" y1="185.21" x2="6.5" y2="86.71"/>
          <line class="cls-8" x1="104.96" y1="186.9" x2="4.94" y2="88.39"/>
          <line class="cls-8" x1="103.39" y1="188.58" x2="3.37" y2="90.08"/>
          <line class="cls-8" x1="101.83" y1="190.27" x2="1.81" y2="91.76"/>
          <line class="cls-8" x1="100.26" y1="191.95" x2=".24" y2="93.45"/>
        </g>
      </g>
      <circle class="cls-2" cx="77.12" cy="102.49" r="25.99"/>
      <g>
        <path class="cls-6" d="M78.54,93.67c-3.33-5.26-7.36-9.29-7.36-9.29,0,0-11.69,11.69-11.69,21.26,0,6.46,5.24,11.69,11.69,11.69,1.73,0,3.37-.39,4.84-1.06-2.31-2.15-3.78-5.19-3.78-8.51,0-5.02,3.41-10.42,6.29-14.09h0Z"/>
        <path class="cls-3" d="M83.94,90.75s-9.57,9.31-9.57,17.01c0,5.2,4.37,9.57,9.57,9.57s9.57-4.37,9.57-9.57c0-7.7-9.57-17.01-9.57-17.01h0Z"/>
      </g>
    </g>
  </g>
</svg>