<?xml version="1.0" encoding="UTF-8"?>
<svg id="Layer_2" data-name="Layer 2" xmlns="http://www.w3.org/2000/svg" xmlns:xlink="http://www.w3.org/1999/xlink" viewBox="0 0 516.91 106.85">
  <defs>
    <style>
      .cls-1 {
        fill: #fff;
      }

      .cls-2 {
        fill: #d19f2a;
      }

      .cls-3 {
        fill: #939598;
      }

      .cls-4, .cls-5, .cls-6, .cls-7, .cls-8, .cls-9, .cls-10 {
        fill: none;
      }

      .cls-4, .cls-6, .cls-7 {
        stroke: #fff;
      }

      .cls-4, .cls-6, .cls-7, .cls-8 {
        stroke-miterlimit: 10;
      }

      .cls-11 {
        clip-path: url(#clippath-2);
      }

      .cls-5 {
        stroke-dasharray: 0 0 0 2.84;
      }

      .cls-5, .cls-10 {
        stroke: #d19f2a;
        stroke-linecap: round;
        stroke-linejoin: round;
        stroke-width: 1.75px;
      }

      .cls-12 {
        clip-path: url(#clippath-1);
      }

      .cls-6 {
        stroke-width: .73px;
      }

      .cls-7 {
        stroke-width: .5px;
      }

      .cls-13 {
        fill: #777677;
      }

      .cls-14 {
        clip-path: url(#clippath);
      }

      .cls-8 {
        stroke: #777677;
        stroke-width: .75px;
      }

      .cls-15 {
        clip-path: url(#clippath-3);
      }

      .cls-16 {
        fill: #dddcd4;
      }
    </style>
    <clipPath id="clippath">
      <path class="cls-9" d="M324.68,77.25c0,16.35-13.25,29.6-29.6,29.6s-29.6-13.25-29.6-29.6,13.25-29.6,29.6-29.6,29.6,13.25,29.6,29.6Z"/>
    </clipPath>
    <clipPath id="clippath-1">
      <path class="cls-9" d="M465.77,77.25c0,16.35-13.25,29.6-29.6,29.6s-29.6-13.25-29.6-29.6,13.25-29.6,29.6-29.6,29.6,13.25,29.6,29.6Z"/>
    </clipPath>
    <clipPath id="clippath-2">
      <path class="cls-9" d="M176.22,77.25c0,16.35-13.25,29.6-29.6,29.6s-29.6-13.25-29.6-29.6,13.25-29.6,29.6-29.6,29.6,13.25,29.6,29.6Z"/>
    </clipPath>
    <clipPath id="clippath-3">
      <circle class="cls-9" cx="146.63" cy="77.26" r="23.32"/>
    </clipPath>
  </defs>
  <g id="Layer_2-2" data-name="Layer 2">
    <rect class="cls-2" x="139.33" y="17.99" width="72.91" height="18.34"/>
    <rect class="cls-2" x="242.85" y="17.99" width="130.95" height="18.34"/>
    <g>
      <path class="cls-2" d="M77.38,.17h2.64l1.18,8.42h.03L82.41,.17h2.64V11.94h-1.75V3.03h-.03l-1.35,8.91h-1.55l-1.35-8.91h-.03V11.94h-1.61V.17Z"/>
      <path class="cls-2" d="M88.53,.17h2.51l1.92,11.77h-1.85l-.34-2.34v.03h-2.1l-.34,2.3h-1.72L88.53,.17Zm2.02,7.87l-.82-5.82h-.03l-.81,5.82h1.66Z"/>
      <path class="cls-2" d="M94.51,.17h1.85V10.26h3.04v1.68h-4.89V.17Z"/>
      <path class="cls-2" d="M100.96,.17h2.32l1.8,7.05h.03V.17h1.65V11.94h-1.9l-2.22-8.59h-.03V11.94h-1.65V.17Z"/>
      <path class="cls-2" d="M108.74,9.15V.17h1.85V9.28c0,.84,.35,1.14,.94,1.14s.94-.3,.94-1.14V.17h1.78V9.15c0,1.88-.94,2.96-2.76,2.96s-2.76-1.08-2.76-2.96Z"/>
      <path class="cls-2" d="M117.69,1.85h-1.93V.17h5.72V1.85h-1.93V11.94h-1.85V1.85Z"/>
      <path class="cls-2" d="M123.03,.17h2.74c1.92,0,2.74,.89,2.74,2.71v.72c0,1.21-.39,1.98-1.21,2.32v.03c.92,.29,1.23,1.16,1.23,2.49v2.07c0,.57,.02,.99,.2,1.43h-1.88c-.1-.3-.17-.49-.17-1.45v-2.15c0-1.09-.32-1.45-1.16-1.45h-.64v5.04h-1.85V.17Zm2.52,5.04c.69,0,1.11-.3,1.11-1.24v-.91c0-.84-.29-1.21-.94-1.21h-.84v3.36h.67Z"/>
      <path class="cls-2" d="M130.48,.17h1.85V11.94h-1.85V.17Z"/>
      <path class="cls-2" d="M135.82,1.85h-1.93V.17h5.72V1.85h-1.93V11.94h-1.85V1.85Z"/>
      <path class="cls-2" d="M141.17,.17h1.85V11.94h-1.85V.17Z"/>
      <path class="cls-2" d="M144.93,9.15V2.96c0-1.88,.99-2.96,2.81-2.96s2.81,1.08,2.81,2.96v6.19c0,1.88-.99,2.96-2.81,2.96s-2.81-1.08-2.81-2.96Zm3.77,.12V2.84c0-.84-.37-1.16-.96-1.16s-.96,.32-.96,1.16v6.42c0,.84,.37,1.16,.96,1.16s.96-.32,.96-1.16Z"/>
      <path class="cls-2" d="M152.46,.17h2.32l1.8,7.05h.03V.17h1.65V11.94h-1.9l-2.22-8.59h-.03V11.94h-1.65V.17Z"/>
      <path class="cls-2" d="M163.67,.17h2.72c1.85,0,2.76,1.03,2.76,2.91v1.16c0,1.88-.91,2.91-2.76,2.91h-.87v4.79h-1.85V.17Zm2.72,5.3c.59,0,.91-.27,.91-1.11v-1.4c0-.84-.32-1.11-.91-1.11h-.87v3.62h.87Z"/>
      <path class="cls-2" d="M170.83,.17h5.04V1.85h-3.19v3.11h2.54v1.68h-2.54v3.62h3.19v1.68h-5.04V.17Z"/>
      <path class="cls-2" d="M177.61,.17h2.74c1.92,0,2.74,.89,2.74,2.71v.72c0,1.21-.39,1.98-1.21,2.32v.03c.92,.29,1.23,1.16,1.23,2.49v2.07c0,.57,.02,.99,.2,1.43h-1.88c-.1-.3-.17-.49-.17-1.45v-2.15c0-1.09-.32-1.45-1.16-1.45h-.64v5.04h-1.85V.17Zm2.52,5.04c.69,0,1.11-.3,1.11-1.24v-.91c0-.84-.29-1.21-.94-1.21h-.84v3.36h.67Z"/>
      <path class="cls-2" d="M184.73,9.15v-.67h1.75v.81c0,.84,.37,1.14,.96,1.14s.96-.3,.96-1.18c0-.98-.37-1.6-1.58-2.66-1.55-1.36-2.05-2.32-2.05-3.67,0-1.85,.96-2.93,2.76-2.93s2.69,1.08,2.69,2.96v.49h-1.75v-.61c0-.84-.34-1.16-.92-1.16s-.92,.32-.92,1.13c0,.86,.39,1.48,1.6,2.54,1.55,1.36,2.03,2.3,2.03,3.77,0,1.92-.98,2.99-2.79,2.99s-2.72-1.08-2.72-2.96Z"/>
      <path class="cls-2" d="M191.98,.17h1.85V11.94h-1.85V.17Z"/>
      <path class="cls-2" d="M195.56,9.15v-.67h1.75v.81c0,.84,.37,1.14,.96,1.14s.96-.3,.96-1.18c0-.98-.37-1.6-1.58-2.66-1.55-1.36-2.05-2.32-2.05-3.67,0-1.85,.96-2.93,2.76-2.93s2.69,1.08,2.69,2.96v.49h-1.75v-.61c0-.84-.34-1.16-.93-1.16s-.92,.32-.92,1.13c0,.86,.39,1.48,1.6,2.54,1.55,1.36,2.03,2.3,2.03,3.77,0,1.92-.98,2.99-2.79,2.99s-2.72-1.08-2.72-2.96Z"/>
      <path class="cls-2" d="M204.25,1.85h-1.93V.17h5.72V1.85h-1.93V11.94h-1.85V1.85Z"/>
      <path class="cls-2" d="M209.27,9.15v-.67h1.75v.81c0,.84,.37,1.14,.96,1.14s.96-.3,.96-1.18c0-.98-.37-1.6-1.58-2.66-1.55-1.36-2.05-2.32-2.05-3.67,0-1.85,.96-2.93,2.76-2.93s2.69,1.08,2.69,2.96v.49h-1.75v-.61c0-.84-.34-1.16-.93-1.16s-.92,.32-.92,1.13c0,.86,.39,1.48,1.6,2.54,1.55,1.36,2.03,2.3,2.03,3.77,0,1.92-.98,2.99-2.79,2.99s-2.72-1.08-2.72-2.96Z"/>
      <path class="cls-2" d="M219.44,.17h1.78l.82,9.05h.03l.87-9.05h2.02l.87,9.05h.03l.82-9.05h1.6l-1.19,11.77h-2.3l-.84-7.94h-.03l-.84,7.94h-2.46l-1.19-11.77Z"/>
      <path class="cls-2" d="M229.78,9.15V2.96c0-1.88,.99-2.96,2.81-2.96s2.81,1.08,2.81,2.96v6.19c0,1.88-.99,2.96-2.81,2.96s-2.81-1.08-2.81-2.96Zm3.77,.12V2.84c0-.84-.37-1.16-.96-1.16s-.96,.32-.96,1.16v6.42c0,.84,.37,1.16,.96,1.16s.96-.32,.96-1.16Z"/>
      <path class="cls-2" d="M237.31,.17h2.74c1.92,0,2.74,.89,2.74,2.71v.72c0,1.21-.39,1.98-1.21,2.32v.03c.92,.29,1.23,1.16,1.23,2.49v2.07c0,.57,.02,.99,.2,1.43h-1.88c-.1-.3-.17-.49-.17-1.45v-2.15c0-1.09-.32-1.45-1.16-1.45h-.64v5.04h-1.85V.17Zm2.52,5.04c.69,0,1.11-.3,1.11-1.24v-.91c0-.84-.29-1.21-.94-1.21h-.84v3.36h.67Z"/>
      <path class="cls-2" d="M244.76,.17h1.85V10.26h3.04v1.68h-4.89V.17Z"/>
      <path class="cls-2" d="M251.21,.17h2.82c1.85,0,2.76,1.03,2.76,2.91v5.95c0,1.88-.91,2.91-2.76,2.91h-2.82V.17Zm2.79,10.09c.59,0,.94-.3,.94-1.14V2.99c0-.84-.35-1.14-.94-1.14h-.94V10.26h.94Z"/>
      <path class="cls-2" d="M258.27,.17h1.78l.82,9.05h.03l.87-9.05h2.02l.87,9.05h.03l.82-9.05h1.6l-1.19,11.77h-2.3l-.84-7.94h-.03l-.84,7.94h-2.46l-1.19-11.77Z"/>
      <path class="cls-2" d="M268.74,.17h1.85V11.94h-1.85V.17Z"/>
      <path class="cls-2" d="M272.64,.17h2.82c1.85,0,2.76,1.03,2.76,2.91v5.95c0,1.88-.91,2.91-2.76,2.91h-2.82V.17Zm2.79,10.09c.59,0,.94-.3,.94-1.14V2.99c0-.84-.35-1.14-.94-1.14h-.94V10.26h.94Z"/>
      <path class="cls-2" d="M280.14,.17h5.04V1.85h-3.19v3.11h2.54v1.68h-2.54v3.62h3.19v1.68h-5.04V.17Z"/>
      <path class="cls-2" d="M287.6,11.94h-.61v-1.78h1.78v1.6l-.92,2.2h-.86l.61-2.02Z"/>
      <path class="cls-13" d="M293.77,11.94v-1.68c.2,.05,.4,.07,.61,.07,.74,0,1.09-.35,1.09-1.13V.17h1.85V9.15c0,1.93-.87,2.86-2.69,2.86-.34,0-.59-.02-.86-.07Z"/>
      <path class="cls-13" d="M299.31,.17h5.04V1.85h-3.19v3.11h2.54v1.68h-2.54v3.62h3.19v1.68h-5.04V.17Z"/>
      <path class="cls-13" d="M305.95,9.15V2.96c0-1.88,.99-2.96,2.81-2.96s2.81,1.08,2.81,2.96v6.19c0,1.88-.99,2.96-2.81,2.96s-2.81-1.08-2.81-2.96Zm3.77,.12V2.84c0-.84-.37-1.16-.96-1.16s-.96,.32-.96,1.16v6.42c0,.84,.37,1.16,.96,1.16s.96-.32,.96-1.16Z"/>
      <path class="cls-13" d="M313.48,.17h2.72c1.85,0,2.76,1.03,2.76,2.91v1.16c0,1.88-.91,2.91-2.76,2.91h-.87v4.79h-1.85V.17Zm2.72,5.3c.59,0,.91-.27,.91-1.11v-1.4c0-.84-.32-1.11-.91-1.11h-.87v3.62h.87Z"/>
      <path class="cls-13" d="M321.49,.17h2.51l1.92,11.77h-1.85l-.34-2.34v.03h-2.1l-.34,2.3h-1.72l1.92-11.77Zm2.02,7.87l-.82-5.82h-.03l-.81,5.82h1.66Z"/>
      <path class="cls-13" d="M327.47,.17h2.74c1.92,0,2.74,.89,2.74,2.71v.72c0,1.21-.39,1.98-1.21,2.32v.03c.92,.29,1.23,1.16,1.23,2.49v2.07c0,.57,.02,.99,.2,1.43h-1.88c-.1-.3-.17-.49-.17-1.45v-2.15c0-1.09-.32-1.45-1.16-1.45h-.64v5.04h-1.85V.17Zm2.52,5.04c.69,0,1.11-.3,1.11-1.24v-.91c0-.84-.29-1.21-.94-1.21h-.84v3.36h.67Z"/>
      <path class="cls-13" d="M334.91,.17h2.82c1.85,0,2.76,1.03,2.76,2.91v5.95c0,1.88-.91,2.91-2.76,2.91h-2.82V.17Zm2.79,10.09c.59,0,.94-.3,.94-1.14V2.99c0-.84-.35-1.14-.94-1.14h-.94V10.26h.94Z"/>
      <path class="cls-13" d="M342.41,.17h1.85V11.94h-1.85V.17Z"/>
      <path class="cls-13" d="M345.94,10.29l3.43-8.44h-3.26V.17h5.25V1.82l-3.43,8.44h3.43v1.68h-5.41v-1.65Z"/>
      <path class="cls-13" d="M353.07,.17h1.85V11.94h-1.85V.17Z"/>
      <path class="cls-13" d="M356.97,.17h2.32l1.8,7.05h.03V.17h1.65V11.94h-1.9l-2.22-8.59h-.03V11.94h-1.65V.17Z"/>
      <path class="cls-13" d="M364.68,9.15V2.96c0-1.88,.94-2.96,2.76-2.96s2.76,1.08,2.76,2.96v1.01h-1.75v-1.13c0-.84-.37-1.16-.96-1.16s-.96,.32-.96,1.16v6.44c0,.84,.37,1.14,.96,1.14s.96-.3,.96-1.14v-2.3h-.92v-1.68h2.67v3.85c0,1.88-.94,2.96-2.76,2.96s-2.76-1.08-2.76-2.96Z"/>
      <path class="cls-13" d="M375.3,9.21V2.89c0-1.82,.94-2.89,2.72-2.89s2.72,1.08,2.72,2.89v1.24h-1.75v-1.36c0-.77-.37-1.09-.92-1.09s-.92,.32-.92,1.09v6.57c0,.77,.37,1.08,.92,1.08s.92-.3,.92-1.08v-1.8h1.75v1.66c0,1.82-.94,2.89-2.72,2.89s-2.72-1.08-2.72-2.89Z"/>
      <path class="cls-13" d="M382.53,.17h1.85V4.96h1.98V.17h1.85V11.94h-1.85V6.64h-1.98v5.3h-1.85V.17Z"/>
      <path class="cls-13" d="M390.26,.17h1.85V11.94h-1.85V.17Z"/>
      <path class="cls-13" d="M394.16,.17h1.85V10.26h3.04v1.68h-4.89V.17Z"/>
      <path class="cls-13" d="M400.62,.17h2.82c1.85,0,2.76,1.03,2.76,2.91v5.95c0,1.88-.91,2.91-2.76,2.91h-2.82V.17Zm2.79,10.09c.59,0,.94-.3,.94-1.14V2.99c0-.84-.35-1.14-.94-1.14h-.94V10.26h.94Z"/>
      <path class="cls-13" d="M408.11,.17h2.74c1.92,0,2.74,.89,2.74,2.71v.72c0,1.21-.39,1.98-1.21,2.32v.03c.92,.29,1.23,1.16,1.23,2.49v2.07c0,.57,.02,.99,.2,1.43h-1.88c-.1-.3-.17-.49-.17-1.45v-2.15c0-1.09-.32-1.45-1.16-1.45h-.64v5.04h-1.85V.17Zm2.52,5.04c.69,0,1.11-.3,1.11-1.24v-.91c0-.84-.29-1.21-.94-1.21h-.84v3.36h.67Z"/>
      <path class="cls-13" d="M415.56,.17h5.04V1.85h-3.19v3.11h2.54v1.68h-2.54v3.62h3.19v1.68h-5.04V.17Z"/>
      <path class="cls-13" d="M422.33,.17h2.32l1.8,7.05h.03V.17h1.65V11.94h-1.9l-2.22-8.59h-.03V11.94h-1.65V.17Z"/>
      <path class="cls-13" d="M430.13,.17h1.88l-.45,3.8h-.99l-.44-3.8Z"/>
      <path class="cls-13" d="M433.7,9.15v-.67h1.75v.81c0,.84,.37,1.14,.96,1.14s.96-.3,.96-1.18c0-.98-.37-1.6-1.58-2.66-1.55-1.36-2.05-2.32-2.05-3.67,0-1.85,.96-2.93,2.76-2.93s2.69,1.08,2.69,2.96v.49h-1.75v-.61c0-.84-.34-1.16-.93-1.16s-.92,.32-.92,1.13c0,.86,.39,1.48,1.6,2.54,1.55,1.36,2.03,2.3,2.03,3.77,0,1.92-.98,2.99-2.79,2.99s-2.72-1.08-2.72-2.96Z"/>
      <path class="cls-1" d="M142.87,21.18h1.78l.82,9.05h.03l.87-9.05h2.02l.87,9.05h.03l.82-9.05h1.6l-1.19,11.77h-2.3l-.84-7.94h-.03l-.84,7.94h-2.46l-1.19-11.77Z"/>
      <path class="cls-1" d="M153.34,21.18h5.04v1.68h-3.19v3.11h2.54v1.68h-2.54v3.62h3.19v1.68h-5.04v-11.77Z"/>
      <path class="cls-1" d="M160.11,21.18h1.85v10.09h3.04v1.68h-4.89v-11.77Z"/>
      <path class="cls-1" d="M166.57,21.18h1.85v10.09h3.04v1.68h-4.89v-11.77Z"/>
      <path class="cls-1" d="M171.52,26.22h3.7v1.68h-3.7v-1.68Z"/>
      <path class="cls-1" d="M177,21.18h2.79c1.92,0,2.74,.89,2.74,2.71v.47c0,1.21-.37,1.97-1.19,2.3v.03c.99,.34,1.38,1.21,1.38,2.46v1.01c0,1.82-.96,2.79-2.81,2.79h-2.91v-11.77Zm2.57,4.79c.69,0,1.11-.3,1.11-1.24v-.66c0-.84-.29-1.21-.94-1.21h-.89v3.11h.72Zm.34,5.3c.62,0,.96-.29,.96-1.16v-1.03c0-1.09-.35-1.43-1.19-1.43h-.82v3.62h1.06Z"/>
      <path class="cls-1" d="M184.47,21.18h5.04v1.68h-3.19v3.11h2.54v1.68h-2.54v3.62h3.19v1.68h-5.04v-11.77Z"/>
      <path class="cls-1" d="M191.24,21.18h1.85v11.77h-1.85v-11.77Z"/>
      <path class="cls-1" d="M195.14,21.18h2.32l1.8,7.05h.03v-7.05h1.65v11.77h-1.9l-2.22-8.59h-.03v8.59h-1.65v-11.77Z"/>
      <path class="cls-1" d="M202.85,30.16v-6.19c0-1.88,.94-2.96,2.76-2.96s2.76,1.08,2.76,2.96v1.01h-1.75v-1.13c0-.84-.37-1.16-.96-1.16s-.96,.32-.96,1.16v6.44c0,.84,.37,1.14,.96,1.14s.96-.3,.96-1.14v-2.3h-.92v-1.68h2.67v3.85c0,1.88-.94,2.96-2.76,2.96s-2.76-1.08-2.76-2.96Z"/>
      <path class="cls-13" d="M218.38,21.18h2.51l1.92,11.77h-1.85l-.34-2.34v.03h-2.1l-.34,2.3h-1.72l1.92-11.77Zm2.02,7.87l-.82-5.82h-.03l-.81,5.82h1.66Z"/>
      <path class="cls-13" d="M224.37,21.18h2.32l1.8,7.05h.03v-7.05h1.65v11.77h-1.9l-2.22-8.59h-.03v8.59h-1.65v-11.77Z"/>
      <path class="cls-13" d="M232.22,21.18h2.82c1.85,0,2.76,1.03,2.76,2.91v5.95c0,1.88-.91,2.91-2.76,2.91h-2.82v-11.77Zm2.79,10.09c.59,0,.94-.3,.94-1.14v-6.12c0-.84-.35-1.14-.94-1.14h-.94v8.41h.94Z"/>
      <path class="cls-1" d="M246.44,21.18h4.89v1.68h-3.04v3.28h2.39v1.68h-2.39v5.13h-1.85v-11.77Z"/>
      <path class="cls-1" d="M252.82,30.16v-8.98h1.85v9.11c0,.84,.35,1.14,.94,1.14s.94-.3,.94-1.14v-9.11h1.78v8.98c0,1.88-.94,2.96-2.76,2.96s-2.76-1.08-2.76-2.96Z"/>
      <path class="cls-1" d="M261.77,22.86h-1.93v-1.68h5.72v1.68h-1.93v10.09h-1.85v-10.09Z"/>
      <path class="cls-1" d="M267.04,30.16v-8.98h1.85v9.11c0,.84,.35,1.14,.94,1.14s.94-.3,.94-1.14v-9.11h1.78v8.98c0,1.88-.94,2.96-2.76,2.96s-2.76-1.08-2.76-2.96Z"/>
      <path class="cls-1" d="M274.54,21.18h2.74c1.92,0,2.74,.89,2.74,2.71v.72c0,1.21-.39,1.98-1.21,2.32v.03c.92,.29,1.23,1.16,1.23,2.49v2.07c0,.57,.02,.99,.2,1.43h-1.88c-.1-.3-.17-.49-.17-1.45v-2.15c0-1.09-.32-1.45-1.16-1.45h-.64v5.04h-1.85v-11.77Zm2.52,5.04c.69,0,1.11-.3,1.11-1.24v-.91c0-.84-.29-1.21-.94-1.21h-.84v3.36h.67Z"/>
      <path class="cls-1" d="M281.99,21.18h5.04v1.68h-3.19v3.11h2.54v1.68h-2.54v3.62h3.19v1.68h-5.04v-11.77Z"/>
      <path class="cls-1" d="M292.12,21.18h2.82c1.85,0,2.76,1.03,2.76,2.91v5.95c0,1.88-.91,2.91-2.76,2.91h-2.82v-11.77Zm2.79,10.09c.59,0,.94-.3,.94-1.14v-6.12c0-.84-.35-1.14-.94-1.14h-.94v8.41h.94Z"/>
      <path class="cls-1" d="M299.62,21.18h5.04v1.68h-3.19v3.11h2.54v1.68h-2.54v3.62h3.19v1.68h-5.04v-11.77Z"/>
      <path class="cls-1" d="M305.9,21.18h1.87l1.21,9.13h.03l1.21-9.13h1.7l-1.78,11.77h-2.46l-1.78-11.77Z"/>
      <path class="cls-1" d="M313.48,21.18h5.04v1.68h-3.19v3.11h2.54v1.68h-2.54v3.62h3.19v1.68h-5.04v-11.77Z"/>
      <path class="cls-1" d="M320.26,21.18h1.85v10.09h3.04v1.68h-4.89v-11.77Z"/>
      <path class="cls-1" d="M326.51,30.16v-6.19c0-1.88,.99-2.96,2.81-2.96s2.81,1.08,2.81,2.96v6.19c0,1.88-.99,2.96-2.81,2.96s-2.81-1.08-2.81-2.96Zm3.77,.12v-6.42c0-.84-.37-1.16-.96-1.16s-.96,.32-.96,1.16v6.42c0,.84,.37,1.16,.96,1.16s.96-.32,.96-1.16Z"/>
      <path class="cls-1" d="M334.04,21.18h2.72c1.85,0,2.76,1.03,2.76,2.91v1.16c0,1.88-.91,2.91-2.76,2.91h-.87v4.79h-1.85v-11.77Zm2.72,5.3c.59,0,.91-.27,.91-1.11v-1.4c0-.84-.32-1.11-.91-1.11h-.87v3.62h.87Z"/>
      <path class="cls-1" d="M341.2,21.18h2.64l1.18,8.42h.03l1.18-8.42h2.64v11.77h-1.75v-8.91h-.03l-1.35,8.91h-1.55l-1.35-8.91h-.03v8.91h-1.61v-11.77Z"/>
      <path class="cls-1" d="M350.92,21.18h5.04v1.68h-3.19v3.11h2.54v1.68h-2.54v3.62h3.19v1.68h-5.04v-11.77Z"/>
      <path class="cls-1" d="M357.69,21.18h2.32l1.8,7.05h.03v-7.05h1.65v11.77h-1.9l-2.22-8.59h-.03v8.59h-1.65v-11.77Z"/>
      <path class="cls-1" d="M366.98,22.86h-1.93v-1.68h5.72v1.68h-1.93v10.09h-1.85v-10.09Z"/>
    </g>
    <rect class="cls-3" y="59.84" width="97.75" height="14.37"/>
    <rect class="cls-3" x="0" y="76.04" width="59.05" height="14.37"/>
    <g>
      <path class="cls-1" d="M3.71,69.34v-4.51c0-1.29,.67-2.06,1.94-2.06s1.94,.77,1.94,2.06v.89h-1.25v-.97c0-.55-.26-.78-.66-.78s-.66,.23-.66,.78v4.69c0,.55,.26,.77,.66,.77s.66-.22,.66-.77v-1.28h1.25v1.19c0,1.3-.67,2.06-1.94,2.06s-1.94-.77-1.94-2.06Z"/>
      <path class="cls-1" d="M8.69,62.89h1.32v3.42h1.42v-3.42h1.32v8.4h-1.32v-3.78h-1.42v3.78h-1.32v-8.4Z"/>
      <path class="cls-1" d="M14.03,62.89h1.32v8.4h-1.32v-8.4Z"/>
      <path class="cls-1" d="M16.63,62.89h1.32v7.2h2.17v1.2h-3.49v-8.4Z"/>
      <path class="cls-1" d="M21.06,62.89h2.01c1.32,0,1.97,.73,1.97,2.08v4.25c0,1.34-.65,2.07-1.97,2.07h-2.01v-8.4Zm1.99,7.2c.42,0,.67-.22,.67-.82v-4.37c0-.6-.25-.82-.67-.82h-.67v6h.67Z"/>
      <path class="cls-1" d="M26.23,62.89h1.96c1.37,0,1.95,.64,1.95,1.93v.52c0,.86-.28,1.42-.86,1.66v.02c.66,.2,.88,.83,.88,1.77v1.48c0,.41,.01,.71,.14,1.02h-1.34c-.07-.22-.12-.35-.12-1.03v-1.54c0-.78-.23-1.03-.83-1.03h-.46v3.6h-1.32v-8.4Zm1.8,3.6c.49,0,.79-.22,.79-.89v-.65c0-.6-.2-.86-.67-.86h-.6v2.4h.48Z"/>
      <path class="cls-1" d="M31.37,62.89h3.6v1.2h-2.28v2.22h1.81v1.2h-1.81v2.58h2.28v1.2h-3.6v-8.4Z"/>
      <path class="cls-1" d="M36.03,62.89h1.66l1.28,5.03h.02v-5.03h1.18v8.4h-1.36l-1.58-6.13h-.02v6.13h-1.18v-8.4Z"/>
      <path class="cls-1" d="M43.62,69.29v-6.4h1.32v6.5c0,.6,.25,.82,.67,.82s.67-.22,.67-.82v-6.5h1.27v6.4c0,1.34-.67,2.11-1.97,2.11s-1.97-.77-1.97-2.11Z"/>
      <path class="cls-1" d="M48.79,62.89h1.66l1.28,5.03h.02v-5.03h1.18v8.4h-1.36l-1.58-6.13h-.02v6.13h-1.18v-8.4Z"/>
      <path class="cls-1" d="M54.22,62.89h2.01c1.32,0,1.97,.73,1.97,2.08v4.25c0,1.34-.65,2.07-1.97,2.07h-2.01v-8.4Zm1.99,7.2c.42,0,.67-.22,.67-.82v-4.37c0-.6-.25-.82-.67-.82h-.67v6h.67Z"/>
      <path class="cls-1" d="M59.39,62.89h3.6v1.2h-2.28v2.22h1.81v1.2h-1.81v2.58h2.28v1.2h-3.6v-8.4Z"/>
      <path class="cls-1" d="M64.05,62.89h1.96c1.37,0,1.95,.64,1.95,1.93v.52c0,.86-.28,1.42-.86,1.66v.02c.66,.2,.88,.83,.88,1.77v1.48c0,.41,.01,.71,.14,1.02h-1.34c-.07-.22-.12-.35-.12-1.03v-1.54c0-.78-.23-1.03-.83-1.03h-.46v3.6h-1.32v-8.4Zm1.8,3.6c.49,0,.79-.22,.79-.89v-.65c0-.6-.2-.86-.67-.86h-.6v2.4h.48Z"/>
      <path class="cls-1" d="M72.42,62.89h1.79l1.37,8.4h-1.32l-.24-1.67v.02h-1.5l-.24,1.64h-1.22l1.37-8.4Zm1.44,5.61l-.59-4.15h-.02l-.58,4.15h1.19Z"/>
      <path class="cls-1" d="M76.39,69.29v-4.41c0-1.34,.67-2.11,1.97-2.11s1.97,.77,1.97,2.11v.72h-1.25v-.8c0-.6-.26-.83-.68-.83s-.68,.23-.68,.83v4.59c0,.6,.26,.82,.68,.82s.68-.22,.68-.82v-1.64h-.66v-1.2h1.91v2.75c0,1.34-.67,2.11-1.97,2.11s-1.97-.77-1.97-2.11Z"/>
      <path class="cls-1" d="M81.48,62.89h3.6v1.2h-2.28v2.22h1.81v1.2h-1.81v2.58h2.28v1.2h-3.6v-8.4Z"/>
      <path class="cls-1" d="M85.95,66.49h2.64v1.2h-2.64v-1.2Z"/>
      <path class="cls-1" d="M89.64,69.29v-.66h1.25v.76c0,.6,.26,.82,.68,.82s.68-.22,.68-.82v-1.88c0-.6-.26-.83-.68-.83s-.68,.23-.68,.83v.07h-1.25l.24-4.69h3.48v1.2h-2.3l-.11,2h.02c.24-.4,.61-.61,1.14-.61,.97,0,1.46,.68,1.46,1.92v1.9c0,1.34-.67,2.11-1.97,2.11s-1.97-.77-1.97-2.11Z"/>
      <path class="cls-1" d="M4.81,78.89h1.79l1.37,8.4h-1.32l-.24-1.67v.02h-1.5l-.24,1.64h-1.22l1.37-8.4Zm1.44,5.61l-.59-4.15h-.02l-.58,4.15h1.19Z"/>
      <path class="cls-1" d="M8.91,78.89h3.49v1.2h-2.17v2.34h1.7v1.2h-1.7v3.66h-1.32v-8.4Z"/>
      <path class="cls-1" d="M13.33,78.89h3.49v1.2h-2.17v2.34h1.7v1.2h-1.7v3.66h-1.32v-8.4Z"/>
      <path class="cls-1" d="M17.76,78.89h3.6v1.2h-2.28v2.22h1.81v1.2h-1.81v2.58h2.28v1.2h-3.6v-8.4Z"/>
      <path class="cls-1" d="M22.33,85.34v-4.51c0-1.29,.67-2.06,1.94-2.06s1.94,.77,1.94,2.06v.89h-1.25v-.97c0-.55-.26-.78-.66-.78s-.66,.23-.66,.78v4.69c0,.55,.26,.77,.66,.77s.66-.22,.66-.77v-1.28h1.25v1.19c0,1.3-.67,2.06-1.94,2.06s-1.94-.77-1.94-2.06Z"/>
      <path class="cls-1" d="M28.35,80.09h-1.38v-1.2h4.08v1.2h-1.38v7.2h-1.32v-7.2Z"/>
      <path class="cls-1" d="M31.98,78.89h3.6v1.2h-2.28v2.22h1.81v1.2h-1.81v2.58h2.28v1.2h-3.6v-8.4Z"/>
      <path class="cls-1" d="M36.64,78.89h2.01c1.32,0,1.97,.73,1.97,2.08v4.25c0,1.34-.65,2.07-1.97,2.07h-2.01v-8.4Zm1.99,7.2c.42,0,.67-.22,.67-.82v-4.37c0-.6-.25-.82-.67-.82h-.67v6h.67Z"/>
      <path class="cls-1" d="M44.03,78.89h1.99c1.37,0,1.95,.64,1.95,1.93v.34c0,.86-.26,1.4-.85,1.64v.02c.71,.24,.98,.86,.98,1.75v.72c0,1.29-.68,1.99-2,1.99h-2.07v-8.4Zm1.83,3.42c.49,0,.79-.22,.79-.89v-.47c0-.6-.2-.86-.67-.86h-.64v2.22h.52Zm.24,3.78c.44,0,.68-.2,.68-.83v-.73c0-.78-.25-1.02-.85-1.02h-.59v2.58h.76Z"/>
      <path class="cls-1" d="M50.2,83.71l-1.6-4.82h1.4l.9,3.08h.02l.9-3.08h1.28l-1.59,4.82v3.57h-1.32v-3.57Z"/>
      <path class="cls-1" d="M53.53,81.44h1.27v1.27h-1.27v-1.27Zm0,4.57h1.27v1.27h-1.27v-1.27Z"/>
    </g>
    <g>
      <path class="cls-3" d="M3.58,100.02v-4.45c0-1.01,.4-1.38,1.39-1.38h.31v.81h-.24c-.31,0-.46,.12-.46,.57v4.45c0,.45,.14,.57,.46,.57h.24v.81h-.31c-.99,0-1.39-.37-1.39-1.38Z"/>
      <path class="cls-3" d="M5.94,100.26c0-.9,.25-1.45,.99-2.22,.76-.8,.97-1.28,.97-1.86s-.2-.72-.51-.72-.51,.17-.51,.62v.68h-.94v-.61c0-1.01,.5-1.58,1.48-1.58s1.48,.58,1.48,1.58c0,.75-.31,1.41-1.22,2.39-.59,.63-.75,.95-.75,1.39v.13h1.88v.9h-2.86v-.68Z"/>
      <path class="cls-3" d="M9.48,99.45v-3.31c0-1.01,.53-1.58,1.5-1.58s1.5,.58,1.5,1.58v3.31c0,1.01-.53,1.58-1.5,1.58s-1.5-.58-1.5-1.58Zm2.02,.06v-3.44c0-.45-.2-.62-.51-.62s-.51,.17-.51,.62v3.44c0,.45,.2,.62,.51,.62s.51-.17,.51-.62Z"/>
      <path class="cls-3" d="M13.14,100.26c0-.9,.25-1.45,.99-2.22,.76-.8,.97-1.28,.97-1.86s-.2-.72-.51-.72-.51,.17-.51,.62v.68h-.94v-.61c0-1.01,.5-1.58,1.48-1.58s1.48,.58,1.48,1.58c0,.75-.31,1.41-1.22,2.39-.59,.63-.75,.95-.75,1.39v.13h1.88v.9h-2.86v-.68Z"/>
      <path class="cls-3" d="M16.74,100.26c0-.9,.25-1.45,.99-2.22,.76-.8,.97-1.28,.97-1.86s-.2-.72-.51-.72-.51,.17-.51,.62v.68h-.94v-.61c0-1.01,.5-1.58,1.48-1.58s1.48,.58,1.48,1.58c0,.75-.31,1.41-1.22,2.39-.59,.63-.75,.95-.75,1.39v.13h1.88v.9h-2.86v-.68Z"/>
      <path class="cls-3" d="M20.3,100.58h.24c.32,0,.46-.12,.46-.57v-4.45c0-.45-.14-.57-.46-.57h-.24v-.81h.31c.99,0,1.39,.37,1.39,1.38v4.45c0,1.01-.4,1.38-1.39,1.38h-.31v-.81Z"/>
    </g>
    <g>
      <g>
        <g>
          <path class="cls-2" d="M335.52,81.05h-2.52v-1.2l2.4-5.67h1.44v5.67h.62v1.2h-.62v1.52h-1.32v-1.52Zm0-1.2v-3.27h-.02l-1.3,3.27h1.32Z"/>
          <path class="cls-2" d="M338.38,80.58v-.66h1.25v.76c0,.6,.26,.82,.68,.82s.68-.22,.68-.82v-1.88c0-.6-.26-.83-.68-.83s-.68,.23-.68,.83v.07h-1.25l.24-4.69h3.48v1.2h-2.3l-.11,2h.02c.24-.4,.61-.61,1.14-.61,.97,0,1.46,.68,1.46,1.92v1.9c0,1.34-.67,2.11-1.97,2.11s-1.97-.77-1.97-2.11Z"/>
          <path class="cls-2" d="M345.74,74.18h1.88l.84,6.01h.02l.84-6.01h1.88v8.4h-1.25v-6.36h-.02l-.96,6.36h-1.1l-.96-6.36h-.02v6.36h-1.15v-8.4Z"/>
          <path class="cls-2" d="M352.49,74.18h1.32v8.4h-1.32v-8.4Z"/>
          <path class="cls-2" d="M355.1,74.18h1.32v7.2h2.17v1.2h-3.49v-8.4Z"/>
          <path class="cls-2" d="M359.52,74.18h1.32v7.2h2.17v1.2h-3.49v-8.4Z"/>
          <path class="cls-2" d="M363.95,74.18h1.32v8.4h-1.32v-8.4Z"/>
          <path class="cls-2" d="M366.46,80.58v-4.41c0-1.34,.71-2.11,2-2.11s2,.77,2,2.11v4.41c0,1.34-.71,2.11-2,2.11s-2-.77-2-2.11Zm2.69,.08v-4.58c0-.6-.26-.83-.68-.83s-.68,.23-.68,.83v4.58c0,.6,.26,.83,.68,.83s.68-.23,.68-.83Z"/>
          <path class="cls-2" d="M371.66,74.18h1.66l1.28,5.03h.02v-5.03h1.18v8.4h-1.36l-1.58-6.13h-.02v6.13h-1.18v-8.4Z"/>
        </g>
        <line class="cls-8" x1="323.29" y1="68.65" x2="376.01" y2="68.65"/>
        <g>
          <path class="cls-13" d="M333.53,56.87h1.06l.49,5.38h.02l.52-5.38h1.2l.52,5.38h.02l.49-5.38h.95l-.71,7h-1.37l-.5-4.72h-.02l-.5,4.72h-1.46l-.71-7Z"/>
          <path class="cls-13" d="M340.32,56.87h1.49l1.14,7h-1.1l-.2-1.39v.02h-1.25l-.2,1.37h-1.02l1.14-7Zm1.2,4.68l-.49-3.46h-.02l-.48,3.46h.99Z"/>
          <path class="cls-13" d="M343.51,62.2v-.4h1.04v.48c0,.5,.22,.68,.57,.68s.57-.18,.57-.7c0-.58-.22-.95-.94-1.58-.92-.81-1.22-1.38-1.22-2.18,0-1.1,.57-1.74,1.64-1.74s1.6,.64,1.6,1.76v.29h-1.04v-.36c0-.5-.2-.69-.55-.69s-.55,.19-.55,.67c0,.51,.23,.88,.95,1.51,.92,.81,1.21,1.37,1.21,2.24,0,1.14-.58,1.78-1.66,1.78s-1.62-.64-1.62-1.76Z"/>
          <path class="cls-13" d="M348.53,57.86h-1.15v-1h3.4v1h-1.15v6h-1.1v-6Z"/>
          <path class="cls-13" d="M351.56,56.87h1.1v7h-1.1v-7Z"/>
          <path class="cls-13" d="M353.73,56.87h1.38l1.07,4.19h.02v-4.19h.98v7h-1.13l-1.32-5.11h-.02v5.11h-.98v-7Z"/>
          <path class="cls-13" d="M358.17,62.2v-3.68c0-1.12,.56-1.76,1.64-1.76s1.64,.64,1.64,1.76v.6h-1.04v-.67c0-.5-.22-.69-.57-.69s-.57,.19-.57,.69v3.83c0,.5,.22,.68,.57,.68s.57-.18,.57-.68v-1.37h-.55v-1h1.59v2.29c0,1.12-.56,1.76-1.64,1.76s-1.64-.64-1.64-1.76Z"/>
        </g>
      </g>
      <g>
        <g>
          <circle class="cls-1" cx="295.08" cy="77.26" r="23.78"/>
          <g>
            <path class="cls-16" d="M295.08,53.86c12.9,0,23.4,10.5,23.4,23.4s-10.5,23.4-23.4,23.4-23.4-10.5-23.4-23.4,10.5-23.4,23.4-23.4m0-6.2c-16.35,0-29.6,13.25-29.6,29.6s13.25,29.6,29.6,29.6,29.6-13.25,29.6-29.6-13.25-29.6-29.6-29.6h0Z"/>
            <g class="cls-14">
              <g>
                <line class="cls-7" x1="376.01" y1="59.6" x2="292.84" y2="-22.33"/>
                <line class="cls-7" x1="374.6" y1="61.08" x2="291.43" y2="-20.86"/>
                <line class="cls-7" x1="373.19" y1="62.55" x2="290.02" y2="-19.38"/>
                <line class="cls-7" x1="371.78" y1="64.03" x2="288.61" y2="-17.91"/>
                <line class="cls-7" x1="370.37" y1="65.5" x2="287.21" y2="-16.43"/>
                <line class="cls-7" x1="368.97" y1="66.98" x2="285.8" y2="-14.96"/>
                <line class="cls-7" x1="367.56" y1="68.45" x2="284.39" y2="-13.48"/>
                <line class="cls-7" x1="366.15" y1="69.93" x2="282.98" y2="-12.01"/>
                <line class="cls-7" x1="364.74" y1="71.4" x2="281.58" y2="-10.53"/>
                <line class="cls-7" x1="363.33" y1="72.88" x2="280.17" y2="-9.06"/>
                <line class="cls-7" x1="361.93" y1="74.35" x2="278.76" y2="-7.58"/>
                <line class="cls-7" x1="360.52" y1="75.83" x2="277.35" y2="-6.11"/>
                <line class="cls-7" x1="359.11" y1="77.3" x2="275.94" y2="-4.63"/>
                <line class="cls-7" x1="357.7" y1="78.77" x2="274.54" y2="-3.16"/>
                <line class="cls-7" x1="356.29" y1="80.25" x2="273.13" y2="-1.68"/>
                <line class="cls-7" x1="354.89" y1="81.72" x2="271.72" y2="-.21"/>
                <line class="cls-7" x1="353.48" y1="83.2" x2="270.31" y2="1.27"/>
                <line class="cls-7" x1="352.07" y1="84.67" x2="268.9" y2="2.74"/>
                <line class="cls-7" x1="350.66" y1="86.15" x2="267.5" y2="4.22"/>
                <line class="cls-7" x1="349.26" y1="87.62" x2="266.09" y2="5.69"/>
                <line class="cls-7" x1="347.85" y1="89.1" x2="264.68" y2="7.17"/>
                <line class="cls-7" x1="346.44" y1="90.57" x2="263.27" y2="8.64"/>
                <line class="cls-7" x1="345.03" y1="92.05" x2="261.86" y2="10.12"/>
                <line class="cls-7" x1="343.62" y1="93.52" x2="260.46" y2="11.59"/>
                <line class="cls-7" x1="342.22" y1="95" x2="259.05" y2="13.07"/>
                <line class="cls-7" x1="340.81" y1="96.47" x2="257.64" y2="14.54"/>
                <line class="cls-7" x1="339.4" y1="97.95" x2="256.23" y2="16.02"/>
                <line class="cls-7" x1="337.99" y1="99.42" x2="254.82" y2="17.49"/>
                <line class="cls-7" x1="336.58" y1="100.9" x2="253.42" y2="18.97"/>
                <line class="cls-7" x1="335.18" y1="102.37" x2="252.01" y2="20.44"/>
                <line class="cls-7" x1="333.77" y1="103.85" x2="250.6" y2="21.92"/>
                <line class="cls-7" x1="332.36" y1="105.32" x2="249.19" y2="23.39"/>
                <line class="cls-7" x1="330.95" y1="106.8" x2="247.78" y2="24.87"/>
                <line class="cls-7" x1="329.54" y1="108.27" x2="246.38" y2="26.34"/>
                <line class="cls-7" x1="328.14" y1="109.75" x2="244.97" y2="27.82"/>
                <line class="cls-7" x1="326.73" y1="111.22" x2="243.56" y2="29.29"/>
                <line class="cls-7" x1="325.32" y1="112.7" x2="242.15" y2="30.76"/>
                <line class="cls-7" x1="323.91" y1="114.17" x2="240.74" y2="32.24"/>
                <line class="cls-7" x1="322.5" y1="115.65" x2="239.34" y2="33.71"/>
                <line class="cls-7" x1="321.1" y1="117.12" x2="237.93" y2="35.19"/>
                <line class="cls-7" x1="319.69" y1="118.6" x2="236.52" y2="36.66"/>
                <line class="cls-7" x1="318.28" y1="120.07" x2="235.11" y2="38.14"/>
                <line class="cls-7" x1="316.87" y1="121.55" x2="233.7" y2="39.61"/>
                <line class="cls-7" x1="315.46" y1="123.02" x2="232.3" y2="41.09"/>
                <line class="cls-7" x1="314.06" y1="124.5" x2="230.89" y2="42.56"/>
                <line class="cls-7" x1="312.65" y1="125.97" x2="229.48" y2="44.04"/>
                <line class="cls-7" x1="311.24" y1="127.45" x2="228.07" y2="45.51"/>
                <line class="cls-7" x1="309.83" y1="128.92" x2="226.66" y2="46.99"/>
                <line class="cls-7" x1="308.42" y1="130.39" x2="225.26" y2="48.46"/>
                <line class="cls-7" x1="307.02" y1="131.87" x2="223.85" y2="49.94"/>
                <line class="cls-7" x1="305.61" y1="133.34" x2="222.44" y2="51.41"/>
                <line class="cls-7" x1="304.2" y1="134.82" x2="221.03" y2="52.89"/>
                <line class="cls-7" x1="302.79" y1="136.29" x2="219.62" y2="54.36"/>
                <line class="cls-7" x1="301.38" y1="137.77" x2="218.22" y2="55.84"/>
                <line class="cls-7" x1="299.98" y1="139.24" x2="216.81" y2="57.31"/>
                <line class="cls-7" x1="298.57" y1="140.72" x2="215.4" y2="58.79"/>
                <line class="cls-7" x1="297.16" y1="142.19" x2="213.99" y2="60.26"/>
                <line class="cls-7" x1="295.75" y1="143.67" x2="212.59" y2="61.74"/>
                <line class="cls-7" x1="294.35" y1="145.14" x2="211.18" y2="63.21"/>
                <line class="cls-7" x1="292.94" y1="146.62" x2="209.77" y2="64.69"/>
                <line class="cls-7" x1="291.53" y1="148.09" x2="208.36" y2="66.16"/>
                <line class="cls-7" x1="290.12" y1="149.57" x2="206.95" y2="67.64"/>
              </g>
            </g>
          </g>
        </g>
        <g>
          <g>
            <path class="cls-2" d="M298.04,96.04c-.87,0-1.58-.71-1.58-1.58v-8.52h-2.76v8.52c0,.87-.71,1.58-1.58,1.58s-1.58-.71-1.58-1.58v-13.32h9.07v13.32c0,.87-.71,1.58-1.58,1.58Z"/>
            <path class="cls-2" d="M295.08,56.53c2.75,0,4.97,2.23,4.97,4.97s-2.23,4.98-4.97,4.98-4.97-2.23-4.97-4.98,2.23-4.97,4.97-4.97Z"/>
            <path class="cls-2" d="M287.78,81.99h.03c.75-.01,1.35-.64,1.34-1.39v-.02c0-3.81,.48-6.56,1.15-8.2,.11-.28,.67-.81,1.16-.74v9.98h7.25v-9.98c.61,.13,1.38,1.25,1.62,2.18,.43,1.64,.7,3.9,.69,6.76,0,.01,0,.03,0,.06,0,.75,.62,1.35,1.36,1.35h.02c.75-.01,1.35-.63,1.34-1.38v-.03c0-4.04-.48-7.06-1.35-9.22-.44-1.08-.98-1.95-1.68-2.61-.61-.58-1.4-.97-2.24-1.05-.04,0-.08,0-.12,0h-.01c-.06,0-.12,0-.18,0-.05,0-.1,0-.15,0h-5.86s-.1,0-.15,0c-.06,0-.12,0-.17,0h-.02s-.08,0-.12,0c-.83,.08-1.62,.47-2.23,1.05-1.04,.99-1.75,2.45-2.26,4.4-.5,1.95-.77,4.41-.78,7.44v.07c.02,.74,.62,1.34,1.36,1.34Z"/>
          </g>
          <polygon class="cls-2" points="290.55 81.14 292.06 77.99 292.06 83.07 290.55 81.14"/>
          <polygon class="cls-2" points="299.62 81.14 298.1 77.99 298.1 83.07 299.62 81.14"/>
        </g>
      </g>
    </g>
    <g>
      <g>
        <path class="cls-2" d="M474.33,80.61v-.68h1.25v.74c0,.6,.26,.83,.68,.83s.68-.2,.68-.95v-.68c0-.78-.26-1.07-.86-1.07h-.44v-1.2h.48c.49,0,.79-.22,.79-.89v-.61c0-.6-.28-.84-.66-.84s-.64,.23-.64,.78v.55h-1.25v-.44c0-1.34,.67-2.09,1.93-2.09s1.93,.73,1.93,2.07v.3c0,.9-.29,1.45-.94,1.69v.02c.71,.26,.97,.88,.97,1.73v.74c0,1.34-.67,2.08-1.97,2.08s-1.97-.74-1.97-2.09Z"/>
        <path class="cls-2" d="M482.1,75.38h-2.66v-1.2h3.96v1.15l-2.06,7.24h-1.34l2.11-7.2Z"/>
        <path class="cls-2" d="M486.85,74.18h1.88l.84,6.01h.02l.84-6.01h1.88v8.4h-1.25v-6.36h-.02l-.96,6.36h-1.1l-.96-6.36h-.02v6.36h-1.15v-8.4Z"/>
        <path class="cls-2" d="M493.6,74.18h1.32v8.4h-1.32v-8.4Z"/>
        <path class="cls-2" d="M496.21,74.18h1.32v7.2h2.17v1.2h-3.49v-8.4Z"/>
        <path class="cls-2" d="M500.63,74.18h1.32v7.2h2.17v1.2h-3.49v-8.4Z"/>
        <path class="cls-2" d="M505.06,74.18h1.32v8.4h-1.32v-8.4Z"/>
        <path class="cls-2" d="M507.57,80.58v-4.41c0-1.34,.71-2.11,2-2.11s2,.77,2,2.11v4.41c0,1.34-.71,2.11-2,2.11s-2-.77-2-2.11Zm2.69,.08v-4.58c0-.6-.26-.83-.68-.83s-.68,.23-.68,.83v4.58c0,.6,.26,.83,.68,.83s.68-.23,.68-.83Z"/>
        <path class="cls-2" d="M512.77,74.18h1.66l1.28,5.03h.02v-5.03h1.18v8.4h-1.36l-1.58-6.13h-.02v6.13h-1.18v-8.4Z"/>
      </g>
      <line class="cls-8" x1="464.4" y1="68.65" x2="516.91" y2="68.65"/>
      <g>
        <path class="cls-13" d="M474.82,62.2v-3.68c0-1.12,.59-1.76,1.67-1.76s1.67,.64,1.67,1.76v3.68c0,1.12-.59,1.76-1.67,1.76s-1.67-.64-1.67-1.76Zm2.24,.07v-3.82c0-.5-.22-.69-.57-.69s-.57,.19-.57,.69v3.82c0,.5,.22,.69,.57,.69s.57-.19,.57-.69Z"/>
        <path class="cls-13" d="M478.84,56.87h1.11l.72,5.43h.02l.72-5.43h1.01l-1.06,7h-1.46l-1.06-7Z"/>
        <path class="cls-13" d="M483.2,56.87h3v1h-1.9v1.85h1.51v1h-1.51v2.15h1.9v1h-3v-7Z"/>
        <path class="cls-13" d="M487.08,56.87h1.63c1.14,0,1.63,.53,1.63,1.61v.43c0,.72-.23,1.18-.72,1.38v.02c.55,.17,.73,.69,.73,1.48v1.23c0,.34,.01,.59,.12,.85h-1.12c-.06-.18-.1-.29-.1-.86v-1.28c0-.65-.19-.86-.69-.86h-.38v3h-1.1v-7Zm1.5,3c.41,0,.66-.18,.66-.74v-.54c0-.5-.17-.72-.56-.72h-.5v2h.4Z"/>
        <path class="cls-13" d="M491.08,56.87h1.06l.49,5.38h.02l.52-5.38h1.2l.52,5.38h.02l.49-5.38h.95l-.71,7h-1.37l-.5-4.72h-.02l-.5,4.72h-1.46l-.71-7Z"/>
        <path class="cls-13" d="M497.16,56.87h3v1h-1.9v1.85h1.51v1h-1.51v2.15h1.9v1h-3v-7Z"/>
        <path class="cls-13" d="M501.04,56.87h1.1v7h-1.1v-7Z"/>
        <path class="cls-13" d="M503.13,62.2v-3.68c0-1.12,.56-1.76,1.64-1.76s1.64,.64,1.64,1.76v.6h-1.04v-.67c0-.5-.22-.69-.57-.69s-.57,.19-.57,.69v3.83c0,.5,.22,.68,.57,.68s.57-.18,.57-.68v-1.37h-.55v-1h1.59v2.29c0,1.12-.56,1.76-1.64,1.76s-1.64-.64-1.64-1.76Z"/>
        <path class="cls-13" d="M507.37,56.87h1.1v2.85h1.18v-2.85h1.1v7h-1.1v-3.15h-1.18v3.15h-1.1v-7Z"/>
        <path class="cls-13" d="M512.68,57.86h-1.15v-1h3.4v1h-1.15v6h-1.1v-6Z"/>
      </g>
    </g>
    <g>
      <circle class="cls-1" cx="436.18" cy="77.26" r="23.78"/>
      <g>
        <path class="cls-16" d="M436.18,53.86c12.9,0,23.4,10.5,23.4,23.4s-10.5,23.4-23.4,23.4-23.4-10.5-23.4-23.4,10.5-23.4,23.4-23.4m0-6.2c-16.35,0-29.6,13.25-29.6,29.6s13.25,29.6,29.6,29.6,29.6-13.25,29.6-29.6-13.25-29.6-29.6-29.6h0Z"/>
        <g class="cls-12">
          <g>
            <line class="cls-7" x1="517.1" y1="59.6" x2="433.93" y2="-22.33"/>
            <line class="cls-7" x1="515.69" y1="61.08" x2="432.53" y2="-20.86"/>
            <line class="cls-7" x1="514.29" y1="62.55" x2="431.12" y2="-19.38"/>
            <line class="cls-7" x1="512.88" y1="64.03" x2="429.71" y2="-17.91"/>
            <line class="cls-7" x1="511.47" y1="65.5" x2="428.3" y2="-16.43"/>
            <line class="cls-7" x1="510.06" y1="66.98" x2="426.89" y2="-14.96"/>
            <line class="cls-7" x1="508.65" y1="68.45" x2="425.49" y2="-13.48"/>
            <line class="cls-7" x1="507.25" y1="69.93" x2="424.08" y2="-12.01"/>
            <line class="cls-7" x1="505.84" y1="71.4" x2="422.67" y2="-10.53"/>
            <line class="cls-7" x1="504.43" y1="72.88" x2="421.26" y2="-9.06"/>
            <line class="cls-7" x1="503.02" y1="74.35" x2="419.85" y2="-7.58"/>
            <line class="cls-7" x1="501.61" y1="75.83" x2="418.45" y2="-6.11"/>
            <line class="cls-7" x1="500.21" y1="77.3" x2="417.04" y2="-4.63"/>
            <line class="cls-7" x1="498.8" y1="78.77" x2="415.63" y2="-3.16"/>
            <line class="cls-7" x1="497.39" y1="80.25" x2="414.22" y2="-1.68"/>
            <line class="cls-7" x1="495.98" y1="81.72" x2="412.81" y2="-.21"/>
            <line class="cls-7" x1="494.57" y1="83.2" x2="411.41" y2="1.27"/>
            <line class="cls-7" x1="493.17" y1="84.67" x2="410" y2="2.74"/>
            <line class="cls-7" x1="491.76" y1="86.15" x2="408.59" y2="4.22"/>
            <line class="cls-7" x1="490.35" y1="87.62" x2="407.18" y2="5.69"/>
            <line class="cls-7" x1="488.94" y1="89.1" x2="405.77" y2="7.17"/>
            <line class="cls-7" x1="487.53" y1="90.57" x2="404.37" y2="8.64"/>
            <line class="cls-7" x1="486.13" y1="92.05" x2="402.96" y2="10.12"/>
            <line class="cls-7" x1="484.72" y1="93.52" x2="401.55" y2="11.59"/>
            <line class="cls-7" x1="483.31" y1="95" x2="400.14" y2="13.07"/>
            <line class="cls-7" x1="481.9" y1="96.47" x2="398.73" y2="14.54"/>
            <line class="cls-7" x1="480.49" y1="97.95" x2="397.33" y2="16.02"/>
            <line class="cls-7" x1="479.09" y1="99.42" x2="395.92" y2="17.49"/>
            <line class="cls-7" x1="477.68" y1="100.9" x2="394.51" y2="18.97"/>
            <line class="cls-7" x1="476.27" y1="102.37" x2="393.1" y2="20.44"/>
            <line class="cls-7" x1="474.86" y1="103.85" x2="391.69" y2="21.92"/>
            <line class="cls-7" x1="473.45" y1="105.32" x2="390.29" y2="23.39"/>
            <line class="cls-7" x1="472.05" y1="106.8" x2="388.88" y2="24.87"/>
            <line class="cls-7" x1="470.64" y1="108.27" x2="387.47" y2="26.34"/>
            <line class="cls-7" x1="469.23" y1="109.75" x2="386.06" y2="27.82"/>
            <line class="cls-7" x1="467.82" y1="111.22" x2="384.66" y2="29.29"/>
            <line class="cls-7" x1="466.41" y1="112.7" x2="383.25" y2="30.76"/>
            <line class="cls-7" x1="465.01" y1="114.17" x2="381.84" y2="32.24"/>
            <line class="cls-7" x1="463.6" y1="115.65" x2="380.43" y2="33.71"/>
            <line class="cls-7" x1="462.19" y1="117.12" x2="379.02" y2="35.19"/>
            <line class="cls-7" x1="460.78" y1="118.6" x2="377.62" y2="36.66"/>
            <line class="cls-7" x1="459.38" y1="120.07" x2="376.21" y2="38.14"/>
            <line class="cls-7" x1="457.97" y1="121.55" x2="374.8" y2="39.61"/>
            <line class="cls-7" x1="456.56" y1="123.02" x2="373.39" y2="41.09"/>
            <line class="cls-7" x1="455.15" y1="124.5" x2="371.98" y2="42.56"/>
            <line class="cls-7" x1="453.74" y1="125.97" x2="370.58" y2="44.04"/>
            <line class="cls-7" x1="452.34" y1="127.45" x2="369.17" y2="45.51"/>
            <line class="cls-7" x1="450.93" y1="128.92" x2="367.76" y2="46.99"/>
            <line class="cls-7" x1="449.52" y1="130.39" x2="366.35" y2="48.46"/>
            <line class="cls-7" x1="448.11" y1="131.87" x2="364.94" y2="49.94"/>
            <line class="cls-7" x1="446.7" y1="133.34" x2="363.54" y2="51.41"/>
            <line class="cls-7" x1="445.3" y1="134.82" x2="362.13" y2="52.89"/>
            <line class="cls-7" x1="443.89" y1="136.29" x2="360.72" y2="54.36"/>
            <line class="cls-7" x1="442.48" y1="137.77" x2="359.31" y2="55.84"/>
            <line class="cls-7" x1="441.07" y1="139.24" x2="357.9" y2="57.31"/>
            <line class="cls-7" x1="439.66" y1="140.72" x2="356.5" y2="58.79"/>
            <line class="cls-7" x1="438.26" y1="142.19" x2="355.09" y2="60.26"/>
            <line class="cls-7" x1="436.85" y1="143.67" x2="353.68" y2="61.74"/>
            <line class="cls-7" x1="435.44" y1="145.14" x2="352.27" y2="63.21"/>
            <line class="cls-7" x1="434.03" y1="146.62" x2="350.86" y2="64.69"/>
            <line class="cls-7" x1="432.62" y1="148.09" x2="349.46" y2="66.16"/>
            <line class="cls-7" x1="431.22" y1="149.57" x2="348.05" y2="67.64"/>
          </g>
        </g>
      </g>
    </g>
    <g>
      <path class="cls-2" d="M430.78,79.77v13.39c0,1.36,1.1,2.47,2.47,2.47s2.47-1.11,2.47-2.47v-8.46h.98v8.46c0,1.36,1.1,2.47,2.47,2.47s2.47-1.11,2.47-2.47v-13.39h-10.85Z"/>
      <path class="cls-2" d="M436.21,57.37c2.75,0,4.97,2.23,4.97,4.97s-2.23,4.97-4.97,4.97-4.97-2.23-4.97-4.97,2.23-4.97,4.97-4.97Z"/>
      <path class="cls-2" d="M427.28,83.06h.03c.92-.02,1.65-.78,1.64-1.7v-.03c0-4.12,.72-6.66,1.84-7.96,0,0-1.75,6.28-.99,8.18,1.02,2.51,9.31,4.47,12.58,0,1.21-1.65-.74-8.18-.74-8.18,.35,.65,1.92,3.8,1.84,7.96,0,.01,0,.04,0,.08,0,.91,.75,1.64,1.66,1.64h.02c.92,0,1.66-.76,1.65-1.68v-.04c0-4.94-.79-6.82-1.56-8.68-.54-1.32-1.3-2.03-2.15-2.83-.75-.71-1.71-1.19-2.73-1.28-.05,0-.1,0-.15,0h-.02c-.07,0-.14-.01-.21-.01-.06,0-.12,0-.18,.01h-7.17c-.06,0-.12-.01-.18-.01-.07,0-.14,0-.21,.01h-.02c-.05,0-.1,0-.15,0-1.02,.09-1.98,.57-2.73,1.28-1.28,1.21-2.45,2.79-3.08,5.18-.99,3.26-.63,6.37-.63,6.42,.02,.91,.76,1.63,1.66,1.63Z"/>
      <path class="cls-6" d="M429.32,81.86c3.67,3.67,9.61,3.67,13.29,0"/>
    </g>
    <g>
      <g>
        <g>
          <path class="cls-2" d="M186.69,76.17h-1.38v-.94c1.12,0,1.51-.24,1.81-1.06h.89v8.4h-1.32v-6.4Z"/>
          <path class="cls-2" d="M192.15,81.05h-2.52v-1.2l2.4-5.67h1.44v5.67h.62v1.2h-.62v1.52h-1.32v-1.52Zm0-1.2v-3.27h-.02l-1.3,3.27h1.32Z"/>
          <path class="cls-2" d="M194.89,80.62v-.74c0-.8,.24-1.39,.86-1.71v-.02c-.55-.3-.82-.83-.82-1.66v-.35c0-1.34,.73-2.07,2.01-2.07s2.01,.73,2.01,2.07v.35c0,.83-.28,1.36-.82,1.66v.02c.62,.32,.86,.91,.86,1.71v.74c0,1.34-.73,2.08-2.06,2.08s-2.06-.73-2.06-2.08Zm2.81-.07v-.8c0-.64-.25-.95-.74-.95s-.74,.31-.74,.95v.8c0,.64,.25,.95,.74,.95s.74-.31,.74-.95Zm-.05-3.79v-.66c0-.55-.24-.84-.7-.84s-.7,.29-.7,.84v.66c0,.55,.24,.84,.7,.84s.7-.29,.7-.84Z"/>
          <path class="cls-2" d="M202.36,74.18h1.88l.84,6.01h.02l.84-6.01h1.88v8.4h-1.25v-6.36h-.02l-.96,6.36h-1.1l-.96-6.36h-.02v6.36h-1.15v-8.4Z"/>
          <path class="cls-2" d="M209.12,74.18h1.32v8.4h-1.32v-8.4Z"/>
          <path class="cls-2" d="M211.72,74.18h1.32v7.2h2.17v1.2h-3.49v-8.4Z"/>
          <path class="cls-2" d="M216.15,74.18h1.32v7.2h2.17v1.2h-3.49v-8.4Z"/>
          <path class="cls-2" d="M220.58,74.18h1.32v8.4h-1.32v-8.4Z"/>
          <path class="cls-2" d="M223.09,80.58v-4.41c0-1.34,.71-2.11,2-2.11s2,.77,2,2.11v4.41c0,1.34-.71,2.11-2,2.11s-2-.77-2-2.11Zm2.69,.08v-4.58c0-.6-.26-.83-.68-.83s-.68,.23-.68,.83v4.58c0,.6,.26,.83,.68,.83s.68-.23,.68-.83Z"/>
          <path class="cls-2" d="M228.28,74.18h1.66l1.28,5.03h.02v-5.03h1.18v8.4h-1.36l-1.58-6.13h-.02v6.13h-1.18v-8.4Z"/>
        </g>
        <line class="cls-8" x1="174.82" y1="68.65" x2="233.19" y2="68.65"/>
        <g>
          <path class="cls-13" d="M185.13,62.2v-.4h1.04v.48c0,.5,.22,.68,.57,.68s.57-.18,.57-.7c0-.58-.22-.95-.94-1.58-.92-.81-1.22-1.38-1.22-2.18,0-1.1,.57-1.74,1.64-1.74s1.6,.64,1.6,1.76v.29h-1.04v-.36c0-.5-.2-.69-.55-.69s-.55,.19-.55,.67c0,.51,.23,.88,.95,1.51,.92,.81,1.21,1.37,1.21,2.24,0,1.14-.58,1.78-1.66,1.78s-1.62-.64-1.62-1.76Z"/>
          <path class="cls-13" d="M190.15,57.86h-1.15v-1h3.4v1h-1.15v6h-1.1v-6Z"/>
          <path class="cls-13" d="M193.14,62.2v-5.34h1.1v5.42c0,.5,.21,.68,.56,.68s.56-.18,.56-.68v-5.42h1.06v5.34c0,1.12-.56,1.76-1.64,1.76s-1.64-.64-1.64-1.76Z"/>
          <path class="cls-13" d="M197.45,56.87h1.38l1.07,4.19h.02v-4.19h.98v7h-1.13l-1.32-5.11h-.02v5.11h-.98v-7Z"/>
          <path class="cls-13" d="M202.83,57.86h-1.15v-1h3.4v1h-1.15v6h-1.1v-6Z"/>
          <path class="cls-13" d="M205.86,56.87h1.1v7h-1.1v-7Z"/>
          <path class="cls-13" d="M208.03,56.87h1.38l1.07,4.19h.02v-4.19h.98v7h-1.13l-1.32-5.11h-.02v5.11h-.98v-7Z"/>
          <path class="cls-13" d="M212.47,62.2v-3.68c0-1.12,.56-1.76,1.64-1.76s1.64,.64,1.64,1.76v.6h-1.04v-.67c0-.5-.22-.69-.57-.69s-.57,.19-.57,.69v3.83c0,.5,.22,.68,.57,.68s.57-.18,.57-.68v-1.37h-.55v-1h1.59v2.29c0,1.12-.56,1.76-1.64,1.76s-1.64-.64-1.64-1.76Z"/>
        </g>
      </g>
      <g>
        <circle class="cls-1" cx="146.63" cy="77.26" r="23.78"/>
        <g>
          <g>
            <path class="cls-16" d="M146.63,53.86c12.9,0,23.4,10.5,23.4,23.4s-10.5,23.4-23.4,23.4-23.4-10.5-23.4-23.4,10.5-23.4,23.4-23.4m0-6.2c-16.35,0-29.6,13.25-29.6,29.6s13.25,29.6,29.6,29.6,29.6-13.25,29.6-29.6-13.25-29.6-29.6-29.6h0Z"/>
            <g class="cls-11">
              <g>
                <line class="cls-7" x1="227.55" y1="59.6" x2="144.38" y2="-22.33"/>
                <line class="cls-7" x1="226.14" y1="61.08" x2="142.98" y2="-20.86"/>
                <line class="cls-7" x1="224.74" y1="62.55" x2="141.57" y2="-19.38"/>
                <line class="cls-7" x1="223.33" y1="64.03" x2="140.16" y2="-17.91"/>
                <line class="cls-7" x1="221.92" y1="65.5" x2="138.75" y2="-16.43"/>
                <line class="cls-7" x1="220.51" y1="66.98" x2="137.34" y2="-14.96"/>
                <line class="cls-7" x1="219.1" y1="68.45" x2="135.94" y2="-13.48"/>
                <line class="cls-7" x1="217.7" y1="69.93" x2="134.53" y2="-12.01"/>
                <line class="cls-7" x1="216.29" y1="71.4" x2="133.12" y2="-10.53"/>
                <line class="cls-7" x1="214.88" y1="72.88" x2="131.71" y2="-9.06"/>
                <line class="cls-7" x1="213.47" y1="74.35" x2="130.31" y2="-7.58"/>
                <line class="cls-7" x1="212.06" y1="75.83" x2="128.9" y2="-6.11"/>
                <line class="cls-7" x1="210.66" y1="77.3" x2="127.49" y2="-4.63"/>
                <line class="cls-7" x1="209.25" y1="78.77" x2="126.08" y2="-3.16"/>
                <line class="cls-7" x1="207.84" y1="80.25" x2="124.67" y2="-1.68"/>
                <line class="cls-7" x1="206.43" y1="81.72" x2="123.27" y2="-.21"/>
                <line class="cls-7" x1="205.02" y1="83.2" x2="121.86" y2="1.27"/>
                <line class="cls-7" x1="203.62" y1="84.67" x2="120.45" y2="2.74"/>
                <line class="cls-7" x1="202.21" y1="86.15" x2="119.04" y2="4.22"/>
                <line class="cls-7" x1="200.8" y1="87.62" x2="117.63" y2="5.69"/>
                <line class="cls-7" x1="199.39" y1="89.1" x2="116.23" y2="7.17"/>
                <line class="cls-7" x1="197.99" y1="90.57" x2="114.82" y2="8.64"/>
                <line class="cls-7" x1="196.58" y1="92.05" x2="113.41" y2="10.12"/>
                <line class="cls-7" x1="195.17" y1="93.52" x2="112" y2="11.59"/>
                <line class="cls-7" x1="193.76" y1="95" x2="110.59" y2="13.07"/>
                <line class="cls-7" x1="192.35" y1="96.47" x2="109.19" y2="14.54"/>
                <line class="cls-7" x1="190.95" y1="97.95" x2="107.78" y2="16.02"/>
                <line class="cls-7" x1="189.54" y1="99.42" x2="106.37" y2="17.49"/>
                <line class="cls-7" x1="188.13" y1="100.9" x2="104.96" y2="18.97"/>
                <line class="cls-7" x1="186.72" y1="102.37" x2="103.55" y2="20.44"/>
                <line class="cls-7" x1="185.31" y1="103.85" x2="102.15" y2="21.92"/>
                <line class="cls-7" x1="183.91" y1="105.32" x2="100.74" y2="23.39"/>
                <line class="cls-7" x1="182.5" y1="106.8" x2="99.33" y2="24.87"/>
                <line class="cls-7" x1="181.09" y1="108.27" x2="97.92" y2="26.34"/>
                <line class="cls-7" x1="179.68" y1="109.75" x2="96.51" y2="27.82"/>
                <line class="cls-7" x1="178.27" y1="111.22" x2="95.11" y2="29.29"/>
                <line class="cls-7" x1="176.87" y1="112.7" x2="93.7" y2="30.76"/>
                <line class="cls-7" x1="175.46" y1="114.17" x2="92.29" y2="32.24"/>
                <line class="cls-7" x1="174.05" y1="115.65" x2="90.88" y2="33.71"/>
                <line class="cls-7" x1="172.64" y1="117.12" x2="89.47" y2="35.19"/>
                <line class="cls-7" x1="171.23" y1="118.6" x2="88.07" y2="36.66"/>
                <line class="cls-7" x1="169.83" y1="120.07" x2="86.66" y2="38.14"/>
                <line class="cls-7" x1="168.42" y1="121.55" x2="85.25" y2="39.61"/>
                <line class="cls-7" x1="167.01" y1="123.02" x2="83.84" y2="41.09"/>
                <line class="cls-7" x1="165.6" y1="124.5" x2="82.43" y2="42.56"/>
                <line class="cls-7" x1="164.19" y1="125.97" x2="81.03" y2="44.04"/>
                <line class="cls-7" x1="162.79" y1="127.45" x2="79.62" y2="45.51"/>
                <line class="cls-7" x1="161.38" y1="128.92" x2="78.21" y2="46.99"/>
                <line class="cls-7" x1="159.97" y1="130.39" x2="76.8" y2="48.46"/>
                <line class="cls-7" x1="158.56" y1="131.87" x2="75.39" y2="49.94"/>
                <line class="cls-7" x1="157.15" y1="133.34" x2="73.99" y2="51.41"/>
                <line class="cls-7" x1="155.75" y1="134.82" x2="72.58" y2="52.89"/>
                <line class="cls-7" x1="154.34" y1="136.29" x2="71.17" y2="54.36"/>
                <line class="cls-7" x1="152.93" y1="137.77" x2="69.76" y2="55.84"/>
                <line class="cls-7" x1="151.52" y1="139.24" x2="68.35" y2="57.31"/>
                <line class="cls-7" x1="150.12" y1="140.72" x2="66.95" y2="58.79"/>
                <line class="cls-7" x1="148.71" y1="142.19" x2="65.54" y2="60.26"/>
                <line class="cls-7" x1="147.3" y1="143.67" x2="64.13" y2="61.74"/>
                <line class="cls-7" x1="145.89" y1="145.14" x2="62.72" y2="63.21"/>
                <line class="cls-7" x1="144.48" y1="146.62" x2="61.32" y2="64.69"/>
                <line class="cls-7" x1="143.08" y1="148.09" x2="59.91" y2="66.16"/>
                <line class="cls-7" x1="141.67" y1="149.57" x2="58.5" y2="67.64"/>
              </g>
            </g>
          </g>
          <g class="cls-15">
            <g>
              <g>
                <path class="cls-2" d="M146.49,81.63v9.55c0,.84,.68,1.52,1.52,1.52s1.52-.68,1.52-1.52v-5.86h.6v5.86c0,.84,.68,1.52,1.52,1.52s1.52-.68,1.52-1.52v-9.55h-6.68Z"/>
                <path class="cls-2" d="M149.83,63.11c2.03,0,3.67,1.64,3.67,3.67s-1.64,3.67-3.67,3.67-3.67-1.64-3.67-3.67,1.64-3.67,3.67-3.67Z"/>
                <path class="cls-2" d="M144.25,82.28h.02c.58-.01,1.03-.49,1.02-1.06v-.02c0-2.91,.37-5.01,.88-6.27,.09-.21,.18-.4,.27-.56v6.89h6.78v-6.89c.22,.41,.44,.96,.62,1.66,.32,1.26,.53,2.98,.53,5.17,0,0,0,.03,0,.05,0,.57,.47,1.03,1.04,1.03h.01c.58,0,1.03-.48,1.03-1.05v-.03c0-3.09-.37-5.4-1.04-7.05-.34-.82-.75-1.49-1.28-2-.47-.44-1.07-.74-1.71-.8-.03,0-.06,0-.09,0h-.01s-.09,0-.13,0c-.04,0-.08,0-.11,0h-4.48s-.08,0-.11,0c-.04,0-.09,0-.13,0h-.01s-.06,0-.09,0c-.64,.06-1.24,.36-1.71,.8-.8,.76-1.34,1.87-1.72,3.36-.38,1.49-.59,3.37-.59,5.69,0,0,0,.03,0,.05,.01,.57,.47,1.02,1.04,1.02Z"/>
              </g>
              <g>
                <rect class="cls-2" x="131.5" y="52.15" width="7.44" height="46.61" transform="translate(270.44 150.91) rotate(-180)"/>
                <g>
                  <line class="cls-4" x1="138.96" y1="96.37" x2="136.36" y2="96.37"/>
                  <line class="cls-4" x1="138.96" y1="94.18" x2="136.36" y2="94.18"/>
                  <line class="cls-4" x1="138.96" y1="91.99" x2="136.36" y2="91.99"/>
                  <line class="cls-4" x1="138.96" y1="89.8" x2="136.36" y2="89.8"/>
                  <line class="cls-4" x1="138.96" y1="87.61" x2="135.12" y2="87.61"/>
                </g>
                <g>
                  <line class="cls-4" x1="138.96" y1="85.39" x2="136.36" y2="85.39"/>
                  <line class="cls-4" x1="138.96" y1="83.2" x2="136.36" y2="83.2"/>
                  <line class="cls-4" x1="138.96" y1="81" x2="136.36" y2="81"/>
                  <line class="cls-4" x1="138.96" y1="78.81" x2="136.36" y2="78.81"/>
                  <line class="cls-4" x1="138.96" y1="76.62" x2="135.12" y2="76.62"/>
                </g>
                <g>
                  <line class="cls-4" x1="138.96" y1="74.4" x2="136.36" y2="74.4"/>
                  <line class="cls-4" x1="138.96" y1="72.21" x2="136.36" y2="72.21"/>
                  <line class="cls-4" x1="138.96" y1="70.02" x2="136.36" y2="70.02"/>
                  <line class="cls-4" x1="138.96" y1="67.83" x2="136.36" y2="67.83"/>
                  <line class="cls-4" x1="138.96" y1="65.63" x2="135.12" y2="65.63"/>
                </g>
                <g>
                  <line class="cls-4" x1="138.96" y1="63.58" x2="136.36" y2="63.58"/>
                  <line class="cls-4" x1="138.96" y1="61.39" x2="136.36" y2="61.39"/>
                  <line class="cls-4" x1="138.96" y1="59.2" x2="136.36" y2="59.2"/>
                  <line class="cls-4" x1="138.96" y1="57" x2="136.36" y2="57"/>
                  <line class="cls-4" x1="138.96" y1="54.81" x2="135.12" y2="54.81"/>
                </g>
              </g>
            </g>
          </g>
        </g>
      </g>
    </g>
    <g>
      <line class="cls-10" x1="250.12" y1="57.03" x2="250.12" y2="57.03"/>
      <line class="cls-5" x1="250.12" y1="59.87" x2="250.12" y2="81.2"/>
      <line class="cls-10" x1="250.12" y1="82.62" x2="250.12" y2="82.62"/>
    </g>
    <g>
      <line class="cls-10" x1="391.86" y1="57.03" x2="391.86" y2="57.03"/>
      <line class="cls-5" x1="391.86" y1="59.87" x2="391.86" y2="81.2"/>
      <line class="cls-10" x1="391.86" y1="82.62" x2="391.86" y2="82.62"/>
    </g>
  </g>
</svg>