<?xml version="1.0" encoding="UTF-8"?>
<svg id="Layer_2" data-name="Layer 2" xmlns="http://www.w3.org/2000/svg" xmlns:xlink="http://www.w3.org/1999/xlink" viewBox="0 0 193.62 210.94">
  <defs>
    <style>
      .cls-1 {
        fill: #6dac6a;
      }

      .cls-2 {
        fill: #fff;
      }

      .cls-3 {
        fill: #939598;
      }

      .cls-4 {
        fill: #c1d7bb;
      }

      .cls-5, .cls-6 {
        fill: #587358;
      }

      .cls-7 {
        clip-path: url(#clippath-1);
      }

      .cls-8 {
        stroke: #2d9a47;
        stroke-width: 3px;
      }

      .cls-8, .cls-9, .cls-6 {
        stroke-miterlimit: 10;
      }

      .cls-8, .cls-9, .cls-10 {
        fill: none;
      }

      .cls-9 {
        stroke: #bdbcbb;
      }

      .cls-6 {
        stroke: #587358;
        stroke-width: 2.5px;
      }

      .cls-11 {
        fill: #9bc194;
      }

      .cls-12 {
        fill: url(#linear-gradient);
      }

      .cls-13 {
        fill: #4f9750;
      }

      .cls-14 {
        fill: #2d9a47;
      }
    </style>
    <linearGradient id="linear-gradient" x1="736.49" y1="105.43" x2="736.49" y2="197.32" gradientTransform="translate(826.41) rotate(-180) scale(1 -1)" gradientUnits="userSpaceOnUse">
      <stop offset="0" stop-color="#fff"/>
      <stop offset=".3" stop-color="#fbfcfa"/>
      <stop offset=".6" stop-color="#f0f5ee"/>
      <stop offset=".91" stop-color="#dee9da"/>
      <stop offset="1" stop-color="#d8e5d3"/>
    </linearGradient>
    <clipPath id="clippath-1">
      <rect class="cls-10" x="111.29" y="156.36" width="67.42" height="41.24" transform="translate(290.01 353.96) rotate(-180)"/>
    </clipPath>
  </defs>
  <g id="Layer_2-2" data-name="Layer 2">
    <rect class="cls-12" x="0" y="105.43" width="179.83" height="91.89"/>
    <g class="cls-7">
      <g>
        <path class="cls-1" d="M192.97,185.34c-5.2,2.69-9.98,4.04-14.26,4.04-1.44,0-2.83-.15-4.15-.46-3.36-.78-5.59-2.41-6.88-3.65-2.28-.17-5.57-1.55-9.68-4.09-.02,0-.03-.01-.05-.02l-2.42-4.85,.52-.55c2.78,1.52,5.32,2.82,7.57,3.88l.94,3.37c.24,.73,.91,1.22,1.68,1.22,.18,0,.36-.03,.54-.08,.45-.14,.82-.45,1.03-.87,.21-.42,.25-.89,.11-1.31l-.14-.48c1.05,.42,1.99,.75,2.84,1,.53,.99,.23,1.56-.12,1.95-.3,.34-.7,.58-1.18,.72,1.22,.98,3.02,2.05,5.51,2.63,4.98,1.16,10.91-.02,17.61-3.48,.29-.15,.64-.04,.79,.25,.15,.29,.04,.64-.25,.79Z"/>
        <path class="cls-1" d="M153.87,172.99l-1.96-3.92c1.14,.41,2.59,.95,4.21,1.57l-2.26,2.35Z"/>
        <path class="cls-1" d="M133.5,184.72c.11,.04,.22,.06,.33,.08l-3.68,10.91c-.07,.2-.37,.33-.63,.26-.13-.04-.24-.11-.3-.22-.04-.07-.05-.15-.02-.22l3.75-11.11c.17,.12,.35,.23,.55,.3Z"/>
        <path class="cls-1" d="M131.15,177.73c-4.74,2.35-10.48,2.95-10.73,2.97-.02,0-.04,0-.06,0-.3,0-.55-.23-.58-.53-.03-.32,.2-.61,.53-.64,.05,0,4.82-.5,9.11-2.3,.22-.21,.44-.43,.64-.67,1.16-.14,2.07-1.12,2.07-2.32,0-.68-.3-1.29-.76-1.72,.26-.78,.87-1.51,2.84-1.1,.45,.09,.85,.34,1.18,.7l-1.68,5.35s-.07,.01-.1,.02c-.94,.14-1.75,.22-2.46,.25Z"/>
        <circle class="cls-1" cx="129.77" cy="174.24" r="1.18"/>
        <path class="cls-1" d="M161.06,170.5l.27,.95c-.28-.12-.56-.24-.84-.35l.58-.6Z"/>
        <path class="cls-1" d="M154.42,174.11l7.04-7.34c.14-.14,.36-.2,.56-.15,.2,.05,.36,.2,.42,.37l4.36,15.33c.05,.14,.03,.3-.04,.43-.07,.14-.19,.24-.34,.29-.32,.1-.65-.08-.74-.35l-3.76-13.49c-.06-.2-.22-.36-.42-.41-.21-.05-.42,.01-.57,.17l-5.96,6.26-.54-1.09Z"/>
        <path class="cls-1" d="M165.86,174.73c4.78,2.25,7.11,3.84,8.22,4.92,5.09,.11,12.72-1.39,16.37-6.36,.19-.26,.56-.32,.82-.13s.32,.56,.13,.82c-3.7,5.03-11.1,6.75-16.44,6.83,.12,.3,.09,.5,.05,.62-.04,.1-.11,.23-.34,.32-.59,.25-2.32,.35-7.3-1.73l-1.51-5.31Z"/>
        <path class="cls-1" d="M159.62,172.01c.7,.28,1.4,.58,2.11,.88l1.46,5.25c-1.92-.93-4.03-2.02-6.31-3.26l2.73-2.87Z"/>
        <path class="cls-1" d="M143.18,176.79c.5-.13,1.02-.28,1.54-.46l-.68,3.41c-.09,.22-.14,.46-.15,.69-.09-.03-.17-.06-.26-.09,.25-.46,.33-1.02,.16-1.57l-.61-1.98Z"/>
        <path class="cls-1" d="M157.5,184.79c-.34,.11-.71-.13-.82-.51,0-.04-.02-.08-.04-.11l-4.34-8.58-2.61-5.15c-.1-.2-.31-.32-.52-.32-.02,0-.05,0-.07,0-.25,.03-.45,.21-.5,.46l-2.3,10.35c-.09,.16-.22,.28-.38,.33-.11,.04-.28,.06-.47-.04-.35-.19-.49-.67-.31-1.06,.02-.04,.03-.09,.04-.13l2.79-14.02c.13-.24,.38-.37,.62-.35,.27,.03,.5,.24,.59,.54,0,.04,.02,.07,.04,.11l8.76,17.57c.08,.4-.13,.81-.48,.92Z"/>
        <path class="cls-1" d="M151.68,176.97l.55,1.09-2.05,2.16c-.23,.23-.6,.23-.84,0-.11-.11-.17-.25-.17-.41s.06-.3,.18-.42l2.32-2.43Z"/>
        <path class="cls-1" d="M162.1,196.71c.03,.07,.02,.15-.02,.22-.05,.1-.16,.18-.3,.22-.27,.07-.57-.06-.63-.26l-3.68-10.9c.13-.01,.26-.03,.39-.07,.19-.06,.35-.16,.51-.27l3.73,11.07Z"/>
        <path class="cls-1" d="M150.81,176.18c-.65-.5-1.3-1.01-1.91-1.5l.5-2.24,1.73,3.41-.31,.33Z"/>
        <path class="cls-1" d="M138.56,173.73l.54,2.31c-.39-.03-.75-.09-1.1-.18l.56-2.13Z"/>
        <path class="cls-1" d="M142.67,179.11c.14,.44-.1,.91-.53,1.05-.2,.07-.41,.05-.6-.05-.19-.1-.34-.28-.39-.45l-1.98-8.5c-.06-.26-.29-.45-.56-.45-.29-.01-.51,.18-.58,.44l-3.15,11.92c-.13,.43-.58,.68-1.01,.54-.43-.14-.66-.61-.52-1.05l4.46-14.21c.11-.34,.42-.58,.77-.58,.35,0,.66,.23,.76,.58l3.34,10.77Z"/>
        <path class="cls-1" d="M148.52,178.57c-.33,.33-.52,.77-.52,1.24,0,.12,.01,.24,.04,.36-.13,.06-.27,.12-.4,.17l.97-4.38c.45,.36,.91,.71,1.38,1.07l-1.47,1.53Z"/>
        <path class="cls-1" d="M146.83,165.71l-1.85,9.28c-.74,.28-1.46,.5-2.16,.67l-2.38-7.66c-.26-.84-1.02-1.41-1.89-1.41-.87,0-1.63,.56-1.89,1.4l-.91,2.89c-.34-.26-.71-.45-1.12-.56,.48-2.4,2.15-6.09,7.84-6.09,1.79,0,3.3,.38,4.51,1.13-.04,.07-.08,.13-.12,.21-.02,.04-.03,.09-.04,.13Z"/>
      </g>
    </g>
    <g>
      <path class="cls-13" d="M34.04,18.06h2.51l1.12,8.02h.03l1.12-8.02h2.51v11.2h-1.66v-8.48h-.03l-1.28,8.48h-1.47l-1.28-8.48h-.03v8.48h-1.54v-11.2Z"/>
      <path class="cls-13" d="M44.49,18.06h2.39l1.82,11.2h-1.76l-.32-2.23v.03h-2l-.32,2.19h-1.63l1.82-11.2Zm1.92,7.49l-.78-5.54h-.03l-.77,5.54h1.58Z"/>
      <path class="cls-13" d="M50.02,18.06h1.76v9.6h2.9v1.6h-4.66v-11.2Z"/>
      <path class="cls-13" d="M57.43,18.06h2.39l1.82,11.2h-1.76l-.32-2.23v.03h-2l-.32,2.19h-1.63l1.82-11.2Zm1.92,7.49l-.78-5.54h-.03l-.77,5.54h1.58Z"/>
      <path class="cls-13" d="M62.97,18.06h2.61c1.82,0,2.61,.85,2.61,2.58v.69c0,1.15-.37,1.89-1.15,2.21v.03c.88,.27,1.17,1.1,1.17,2.37v1.97c0,.54,.02,.94,.19,1.36h-1.79c-.1-.29-.16-.46-.16-1.38v-2.05c0-1.04-.3-1.38-1.1-1.38h-.61v4.8h-1.76v-11.2Zm2.4,4.8c.66,0,1.06-.29,1.06-1.18v-.86c0-.8-.27-1.15-.9-1.15h-.8v3.2h.64Z"/>
      <path class="cls-13" d="M69.9,18.06h1.76v11.2h-1.76v-11.2Z"/>
      <path class="cls-13" d="M74.81,18.06h2.39l1.82,11.2h-1.76l-.32-2.23v.03h-2l-.32,2.19h-1.63l1.82-11.2Zm1.92,7.49l-.78-5.54h-.03l-.77,5.54h1.58Z"/>
      <path class="cls-13" d="M83.27,26.68v-6.02c0-1.73,.9-2.75,2.59-2.75s2.59,1.02,2.59,2.75v1.18h-1.67v-1.3c0-.74-.35-1.04-.88-1.04s-.88,.3-.88,1.04v6.26c0,.74,.35,1.02,.88,1.02s.88-.29,.88-1.02v-1.71h1.67v1.58c0,1.73-.9,2.75-2.59,2.75s-2.59-1.02-2.59-2.75Z"/>
      <path class="cls-13" d="M91.35,18.06h2.39l1.82,11.2h-1.76l-.32-2.23v.03h-2l-.32,2.19h-1.63l1.82-11.2Zm1.92,7.49l-.78-5.54h-.03l-.77,5.54h1.58Z"/>
      <path class="cls-13" d="M96.54,26.61v-.64h1.66v.77c0,.8,.35,1.09,.91,1.09s.91-.29,.91-1.12c0-.93-.35-1.52-1.5-2.53-1.47-1.3-1.95-2.21-1.95-3.49,0-1.76,.91-2.79,2.62-2.79s2.56,1.02,2.56,2.82v.46h-1.66v-.58c0-.8-.32-1.1-.88-1.1s-.88,.3-.88,1.07c0,.82,.37,1.41,1.52,2.42,1.47,1.3,1.94,2.19,1.94,3.59,0,1.82-.93,2.85-2.66,2.85s-2.59-1.02-2.59-2.82Z"/>
      <path class="cls-13" d="M103.27,18.06h4.8v1.6h-3.04v2.96h2.42v1.6h-2.42v3.44h3.04v1.6h-4.8v-11.2Z"/>
      <path class="cls-13" d="M109.29,26.61v-.64h1.66v.77c0,.8,.35,1.09,.91,1.09s.91-.29,.91-1.12c0-.93-.35-1.52-1.5-2.53-1.47-1.3-1.95-2.21-1.95-3.49,0-1.76,.91-2.79,2.62-2.79s2.56,1.02,2.56,2.82v.46h-1.66v-.58c0-.8-.32-1.1-.88-1.1s-.88,.3-.88,1.07c0,.82,.37,1.41,1.52,2.42,1.47,1.3,1.94,2.19,1.94,3.59,0,1.82-.93,2.85-2.66,2.85s-2.59-1.02-2.59-2.82Z"/>
      <path class="cls-5" d="M119.06,18.06h1.76v4.56h1.89v-4.56h1.76v11.2h-1.76v-5.04h-1.89v5.04h-1.76v-11.2Z"/>
      <path class="cls-5" d="M127.62,18.06h2.39l1.82,11.2h-1.76l-.32-2.23v.03h-2l-.32,2.19h-1.63l1.82-11.2Zm1.92,7.49l-.78-5.54h-.03l-.77,5.54h1.58Z"/>
      <path class="cls-5" d="M132.25,18.06h1.78l1.15,8.69h.03l1.15-8.69h1.62l-1.7,11.2h-2.34l-1.7-11.2Z"/>
      <path class="cls-5" d="M139.3,18.06h4.8v1.6h-3.04v2.96h2.42v1.6h-2.42v3.44h3.04v1.6h-4.8v-11.2Z"/>
      <path class="cls-5" d="M36.67,43.61v-.64h1.66v.77c0,.8,.35,1.09,.91,1.09s.91-.29,.91-1.12c0-.93-.35-1.52-1.5-2.53-1.47-1.3-1.95-2.21-1.95-3.49,0-1.76,.91-2.79,2.62-2.79s2.56,1.02,2.56,2.82v.46h-1.66v-.58c0-.8-.32-1.1-.88-1.1s-.88,.3-.88,1.07c0,.82,.37,1.41,1.52,2.42,1.47,1.3,1.94,2.19,1.94,3.59,0,1.82-.93,2.85-2.66,2.85s-2.59-1.02-2.59-2.82Z"/>
      <path class="cls-5" d="M43.34,43.61v-8.55h1.76v8.68c0,.8,.34,1.09,.9,1.09s.9-.29,.9-1.09v-8.68h1.7v8.55c0,1.79-.9,2.82-2.62,2.82s-2.62-1.02-2.62-2.82Z"/>
      <path class="cls-5" d="M50.32,35.06h2.61c1.82,0,2.61,.85,2.61,2.58v.69c0,1.15-.37,1.89-1.15,2.21v.03c.88,.27,1.17,1.1,1.17,2.37v1.97c0,.54,.02,.94,.19,1.36h-1.79c-.1-.29-.16-.46-.16-1.38v-2.05c0-1.04-.3-1.38-1.1-1.38h-.61v4.8h-1.76v-11.2Zm2.4,4.8c.66,0,1.06-.29,1.06-1.18v-.86c0-.8-.27-1.15-.9-1.15h-.8v3.2h.64Z"/>
      <path class="cls-5" d="M57.12,43.61v-5.89c0-1.79,.9-2.82,2.62-2.82s2.62,1.02,2.62,2.82v.96h-1.66v-1.07c0-.8-.35-1.1-.91-1.1s-.91,.3-.91,1.1v6.13c0,.8,.35,1.09,.91,1.09s.91-.29,.91-1.09v-2.19h-.88v-1.6h2.54v3.67c0,1.79-.9,2.82-2.62,2.82s-2.62-1.02-2.62-2.82Z"/>
      <path class="cls-5" d="M63.98,35.06h4.8v1.6h-3.04v2.96h2.42v1.6h-2.42v3.44h3.04v1.6h-4.8v-11.2Z"/>
      <path class="cls-5" d="M70.27,35.06h2.69c1.76,0,2.62,.98,2.62,2.77v5.67c0,1.79-.86,2.77-2.62,2.77h-2.69v-11.2Zm2.66,9.6c.56,0,.9-.29,.9-1.09v-5.83c0-.8-.34-1.09-.9-1.09h-.9v8h.9Z"/>
      <path class="cls-14" d="M79.87,35.06h1.7l.78,8.61h.03l.83-8.61h1.92l.83,8.61h.03l.78-8.61h1.52l-1.14,11.2h-2.19l-.8-7.56h-.03l-.8,7.56h-2.34l-1.14-11.2Z"/>
      <path class="cls-14" d="M89.55,43.61v-5.89c0-1.79,.94-2.82,2.67-2.82s2.67,1.02,2.67,2.82v5.89c0,1.79-.94,2.82-2.67,2.82s-2.67-1.02-2.67-2.82Zm3.59,.11v-6.11c0-.8-.35-1.1-.91-1.1s-.91,.3-.91,1.1v6.11c0,.8,.35,1.1,.91,1.1s.91-.3,.91-1.1Z"/>
      <path class="cls-14" d="M96.56,35.06h2.61c1.82,0,2.61,.85,2.61,2.58v.69c0,1.15-.37,1.89-1.15,2.21v.03c.88,.27,1.17,1.1,1.17,2.37v1.97c0,.54,.02,.94,.19,1.36h-1.79c-.1-.29-.16-.46-.16-1.38v-2.05c0-1.04-.3-1.38-1.1-1.38h-.61v4.8h-1.76v-11.2Zm2.4,4.8c.66,0,1.06-.29,1.06-1.18v-.86c0-.8-.27-1.15-.9-1.15h-.8v3.2h.64Z"/>
      <path class="cls-14" d="M103.49,35.06h1.76v9.6h2.9v1.6h-4.66v-11.2Z"/>
      <path class="cls-14" d="M109.47,35.06h2.69c1.76,0,2.62,.98,2.62,2.77v5.67c0,1.79-.86,2.77-2.62,2.77h-2.69v-11.2Zm2.66,9.6c.56,0,.9-.29,.9-1.09v-5.83c0-.8-.34-1.09-.9-1.09h-.9v8h.9Z"/>
      <path class="cls-14" d="M116.03,35.06h1.7l.78,8.61h.03l.83-8.61h1.92l.83,8.61h.03l.78-8.61h1.52l-1.14,11.2h-2.19l-.8-7.56h-.03l-.8,7.56h-2.34l-1.14-11.2Z"/>
      <path class="cls-14" d="M125.84,35.06h1.76v11.2h-1.76v-11.2Z"/>
      <path class="cls-14" d="M129.39,35.06h2.69c1.76,0,2.62,.98,2.62,2.77v5.67c0,1.79-.86,2.77-2.62,2.77h-2.69v-11.2Zm2.66,9.6c.56,0,.9-.29,.9-1.09v-5.83c0-.8-.34-1.09-.9-1.09h-.9v8h.9Z"/>
      <path class="cls-14" d="M136.37,35.06h4.8v1.6h-3.04v2.96h2.42v1.6h-2.42v3.44h3.04v1.6h-4.8v-11.2Z"/>
    </g>
    <g>
      <path class="cls-11" d="M183.12,0c-.01,.09-.09,.12-.14,.17-3.36,3.36-6.72,6.72-10.08,10.09-.06,.06-.12,.1-.19,.17,.09,.05,.17,.03,.24,.03,1.84,0,3.69,0,5.53,0,.17,0,.21,.04,.21,.21,0,4.34,0,182.55,0,186.89,0,.19,.04,.23,.23,.23,2.84,0,5.68,0,8.52,0,.18,0,.23-.04,.23-.23,0-4.33,0-182.54,0-186.87,0-.18,.03-.23,.23-.23,1.84,0,3.67,0,5.51,0h.21s.02-.03,.03-.04c-.06-.05-.12-.09-.17-.15-3.37-3.37-6.73-6.73-10.1-10.1-.05-.05-.13-.09-.14-.17h-.09Z"/>
      <path class="cls-14" d="M172.95,10.46c1.84,0,3.67,0,5.51,0,.19,0,.23,.05,.23,.23,0,4.33,0,182.54,0,186.87,0,.19,.05,.23,.23,.23,1.38,0,2.76,0,4.15,0V.11s-.05,.04-.07,.06c-3.37,3.37-6.73,6.74-10.1,10.1-.05,.05-.11,.1-.17,.15,.01,.01,.02,.03,.03,.04h.21Z"/>
    </g>
    <line class="cls-9" x1="187.46" y1="197.55" x2="0" y2="197.55"/>
    <polyline class="cls-8" points="150.28 109.42 88.85 118.94 27.42 179.55"/>
    <g>
      <g>
        <path class="cls-14" d="M143.76,210.17c0-.9,.25-1.45,.99-2.22,.76-.8,.97-1.28,.97-1.86s-.2-.72-.51-.72-.51,.17-.51,.62v.67h-.94v-.61c0-1.01,.5-1.58,1.48-1.58s1.48,.58,1.48,1.58c0,.75-.31,1.41-1.22,2.39-.59,.63-.75,.95-.75,1.39v.13h1.88v.9h-2.86v-.68Z"/>
        <path class="cls-14" d="M147.08,209.36v-3.31c0-1.01,.53-1.58,1.5-1.58s1.5,.58,1.5,1.58v3.31c0,1.01-.53,1.58-1.5,1.58s-1.5-.58-1.5-1.58Zm2.02,.06v-3.44c0-.45-.2-.62-.51-.62s-.51,.17-.51,.62v3.44c0,.45,.2,.62,.51,.62s.51-.17,.51-.62Z"/>
        <path class="cls-14" d="M150.51,210.17c0-.9,.25-1.45,.99-2.22,.76-.8,.97-1.28,.97-1.86s-.2-.72-.51-.72-.51,.17-.51,.62v.67h-.94v-.61c0-1.01,.5-1.58,1.48-1.58s1.48,.58,1.48,1.58c0,.75-.31,1.41-1.22,2.39-.59,.63-.75,.95-.75,1.39v.13h1.88v.9h-2.86v-.68Z"/>
        <path class="cls-14" d="M155.29,206.04h-1.04v-.7c.84,0,1.13-.18,1.36-.79h.67v6.3h-.99v-4.81Z"/>
      </g>
      <circle class="cls-5" cx="150.38" cy="197.58" r="2.25"/>
    </g>
    <g>
      <g>
        <path class="cls-14" d="M81.97,210.17c0-.9,.25-1.45,.99-2.22,.76-.8,.97-1.28,.97-1.86s-.2-.72-.51-.72-.51,.17-.51,.62v.67h-.94v-.61c0-1.01,.5-1.58,1.48-1.58s1.48,.58,1.48,1.58c0,.75-.31,1.41-1.22,2.39-.59,.63-.75,.95-.75,1.39v.13h1.88v.9h-2.86v-.68Z"/>
        <path class="cls-14" d="M85.29,209.36v-3.31c0-1.01,.53-1.58,1.5-1.58s1.5,.58,1.5,1.58v3.31c0,1.01-.53,1.58-1.5,1.58s-1.5-.58-1.5-1.58Zm2.02,.06v-3.44c0-.45-.2-.62-.51-.62s-.51,.17-.51,.62v3.44c0,.45,.2,.62,.51,.62s.51-.17,.51-.62Z"/>
        <path class="cls-14" d="M88.72,210.17c0-.9,.25-1.45,.99-2.22,.76-.8,.97-1.28,.97-1.86s-.2-.72-.51-.72-.51,.17-.51,.62v.67h-.94v-.61c0-1.01,.5-1.58,1.48-1.58s1.48,.58,1.48,1.58c0,.75-.31,1.41-1.22,2.39-.59,.63-.75,.95-.75,1.39v.13h1.88v.9h-2.86v-.68Z"/>
        <path class="cls-14" d="M92.04,209.36v-3.31c0-1.01,.53-1.58,1.5-1.58s1.5,.58,1.5,1.58v3.31c0,1.01-.53,1.58-1.5,1.58s-1.5-.58-1.5-1.58Zm2.02,.06v-3.44c0-.45-.2-.62-.51-.62s-.51,.17-.51,.62v3.44c0,.45,.2,.62,.51,.62s.51-.17,.51-.62Z"/>
      </g>
      <circle class="cls-5" cx="88.6" cy="197.58" r="2.25"/>
    </g>
    <g>
      <g>
        <path class="cls-14" d="M21.18,210.17c0-.9,.25-1.45,.99-2.22,.76-.8,.97-1.28,.97-1.86s-.2-.72-.51-.72-.51,.17-.51,.62v.67h-.94v-.61c0-1.01,.5-1.58,1.48-1.58s1.48,.58,1.48,1.58c0,.75-.31,1.41-1.22,2.39-.59,.63-.75,.95-.75,1.39v.13h1.88v.9h-2.86v-.68Z"/>
        <path class="cls-14" d="M24.5,209.36v-3.31c0-1.01,.53-1.58,1.5-1.58s1.5,.58,1.5,1.58v3.31c0,1.01-.53,1.58-1.5,1.58s-1.5-.58-1.5-1.58Zm2.02,.06v-3.44c0-.45-.2-.62-.51-.62s-.51,.17-.51,.62v3.44c0,.45,.2,.62,.51,.62s.51-.17,.51-.62Z"/>
        <path class="cls-14" d="M29.33,206.04h-1.04v-.7c.84,0,1.13-.18,1.36-.79h.67v6.3h-.99v-4.81Z"/>
        <path class="cls-14" d="M31.24,209.36v-.12h.94v.18c0,.45,.2,.62,.51,.62,.35,0,.55-.17,.55-.77v-1.21h-.02c-.17,.36-.46,.55-.9,.55-.73,0-1.1-.51-1.1-1.44v-1.13c0-1.01,.53-1.58,1.5-1.58s1.5,.58,1.5,1.58v3.26c0,1.06-.49,1.64-1.51,1.64-.97,0-1.48-.58-1.48-1.58Zm2-2.27v-1.12c0-.41-.17-.61-.51-.61s-.51,.2-.51,.61v1.12c0,.42,.17,.62,.51,.62s.51-.2,.51-.62Z"/>
      </g>
      <circle class="cls-5" cx="27.8" cy="197.58" r="2.25"/>
    </g>
    <circle class="cls-6" cx="149.14" cy="110.17" r="8.21"/>
    <g>
      <path class="cls-2" d="M144.09,112.41c0-.9,.25-1.45,.99-2.22,.76-.8,.97-1.28,.97-1.86s-.2-.72-.51-.72-.51,.17-.51,.62v.68h-.94v-.61c0-1.01,.5-1.58,1.48-1.58s1.48,.58,1.48,1.58c0,.75-.31,1.41-1.22,2.39-.59,.63-.75,.95-.75,1.39v.13h1.88v.9h-2.86v-.68Z"/>
      <path class="cls-2" d="M149.36,111.95h-1.89v-.9l1.8-4.26h1.08v4.26h.47v.9h-.47v1.14h-.99v-1.14Zm0-.9v-2.46h-.02l-.97,2.46h.99Z"/>
      <path class="cls-2" d="M153.24,107.69h-2v-.9h2.97v.86l-1.55,5.44h-1.01l1.58-5.4Z"/>
    </g>
    <g>
      <circle class="cls-6" cx="88.84" cy="118.78" r="8.21"/>
      <g>
        <path class="cls-2" d="M83.79,121.02c0-.9,.25-1.45,.99-2.22,.76-.8,.97-1.28,.97-1.86s-.2-.72-.51-.72-.51,.17-.51,.62v.68h-.94v-.61c0-1.01,.5-1.58,1.48-1.58s1.48,.58,1.48,1.58c0,.75-.31,1.41-1.22,2.39-.59,.63-.75,.95-.75,1.39v.13h1.88v.9h-2.86v-.68Z"/>
        <path class="cls-2" d="M89.06,120.56h-1.89v-.9l1.8-4.26h1.08v4.26h.47v.9h-.47v1.14h-.99v-1.14Zm0-.9v-2.46h-.02l-.97,2.46h.99Z"/>
        <path class="cls-2" d="M90.98,120.21v-.5h.94v.57c0,.45,.2,.61,.51,.61s.51-.16,.51-.61v-1.41c0-.45-.2-.62-.51-.62s-.51,.17-.51,.62v.05h-.94l.18-3.52h2.61v.9h-1.73l-.08,1.5h.02c.18-.3,.46-.46,.85-.46,.73,0,1.1,.51,1.1,1.44v1.42c0,1.01-.5,1.58-1.48,1.58s-1.48-.58-1.48-1.58Z"/>
      </g>
    </g>
    <circle class="cls-6" cx="27.45" cy="179.59" r="8.21"/>
    <g>
      <path class="cls-2" d="M22.4,181.83c0-.9,.25-1.45,.99-2.22,.76-.8,.97-1.28,.97-1.86s-.2-.72-.51-.72-.51,.17-.51,.62v.68h-.94v-.61c0-1.01,.5-1.58,1.48-1.58s1.48,.58,1.48,1.58c0,.75-.31,1.41-1.22,2.39-.59,.63-.75,.95-.75,1.39v.13h1.88v.9h-2.86v-.68Z"/>
      <path class="cls-2" d="M25.95,181.04v-.51h.94v.56c0,.45,.2,.62,.51,.62s.51-.15,.51-.71v-.51c0-.58-.2-.8-.65-.8h-.33v-.9h.36c.37,0,.59-.16,.59-.67v-.46c0-.45-.21-.63-.5-.63s-.48,.17-.48,.59v.41h-.94v-.33c0-1.01,.5-1.57,1.45-1.57s1.45,.55,1.45,1.56v.23c0,.68-.22,1.09-.7,1.27v.02c.53,.2,.73,.66,.73,1.3v.56c0,1.01-.5,1.56-1.48,1.56s-1.48-.56-1.48-1.57Z"/>
      <path class="cls-2" d="M29.6,181.83c0-.9,.25-1.45,.99-2.22,.76-.8,.97-1.28,.97-1.86s-.2-.72-.51-.72-.51,.17-.51,.62v.68h-.94v-.61c0-1.01,.5-1.58,1.48-1.58s1.48,.58,1.48,1.58c0,.75-.31,1.41-1.22,2.39-.59,.63-.75,.95-.75,1.39v.13h1.88v.9h-2.86v-.68Z"/>
    </g>
    <g>
      <g>
        <path class="cls-3" d="M78.6,84.18v-4.45c0-1.01,.4-1.38,1.39-1.38h.31v.81h-.24c-.31,0-.46,.12-.46,.57v4.45c0,.45,.14,.57,.46,.57h.24v.81h-.31c-.99,0-1.39-.37-1.39-1.38Z"/>
        <path class="cls-3" d="M80.98,78.8h1.41l.63,4.51h.02l.63-4.51h1.41v6.3h-.94v-4.77h-.02l-.72,4.77h-.83l-.72-4.77h-.02v4.77h-.86v-6.3Z"/>
        <path class="cls-3" d="M85.82,78.8h.99v6.3h-.99v-6.3Z"/>
        <path class="cls-3" d="M87.55,78.8h.99v5.4h1.63v.9h-2.62v-6.3Z"/>
        <path class="cls-3" d="M90.64,78.8h.99v5.4h1.63v.9h-2.62v-6.3Z"/>
        <path class="cls-3" d="M93.74,78.8h.99v6.3h-.99v-6.3Z"/>
        <path class="cls-3" d="M95.39,83.61v-3.31c0-1.01,.53-1.58,1.5-1.58s1.5,.58,1.5,1.58v3.31c0,1.01-.53,1.58-1.5,1.58s-1.5-.58-1.5-1.58Zm2.02,.06v-3.44c0-.45-.2-.62-.51-.62s-.51,.17-.51,.62v3.44c0,.45,.2,.62,.51,.62s.51-.17,.51-.62Z"/>
        <path class="cls-3" d="M99.07,78.8h1.24l.96,3.77h.02v-3.77h.88v6.3h-1.02l-1.19-4.6h-.02v4.6h-.88v-6.3Z"/>
        <path class="cls-3" d="M102.86,84.74h.24c.32,0,.46-.12,.46-.57v-4.45c0-.45-.14-.57-.46-.57h-.24v-.81h.31c.99,0,1.39,.37,1.39,1.38v4.45c0,1.01-.4,1.38-1.39,1.38h-.31v-.81Z"/>
      </g>
      <g>
        <g>
          <path class="cls-14" d="M69.35,67.47h1.41l.63,4.51h.02l.63-4.51h1.41v6.3h-.94v-4.77h-.02l-.72,4.77h-.83l-.72-4.77h-.02v4.77h-.86v-6.3Z"/>
          <path class="cls-14" d="M75.23,67.47h1.34l1.03,6.3h-.99l-.18-1.25v.02h-1.13l-.18,1.23h-.92l1.03-6.3Zm1.08,4.21l-.44-3.11h-.02l-.43,3.11h.89Z"/>
          <path class="cls-14" d="M78.34,67.47h.99v5.4h1.63v.9h-2.62v-6.3Z"/>
          <path class="cls-14" d="M82.51,67.47h1.34l1.03,6.3h-.99l-.18-1.25v.02h-1.13l-.18,1.23h-.92l1.03-6.3Zm1.08,4.21l-.44-3.11h-.02l-.43,3.11h.89Z"/>
          <path class="cls-14" d="M85.62,67.47h1.47c1.03,0,1.47,.48,1.47,1.45v.39c0,.65-.21,1.06-.65,1.24v.02c.5,.15,.66,.62,.66,1.33v1.11c0,.31,0,.53,.11,.77h-1.01c-.05-.16-.09-.26-.09-.77v-1.15c0-.58-.17-.77-.62-.77h-.34v2.7h-.99v-6.3Zm1.35,2.7c.37,0,.59-.16,.59-.67v-.49c0-.45-.15-.65-.5-.65h-.45v1.8h.36Z"/>
          <path class="cls-14" d="M89.52,67.47h.99v6.3h-.99v-6.3Z"/>
          <path class="cls-14" d="M92.28,67.47h1.34l1.03,6.3h-.99l-.18-1.25v.02h-1.13l-.18,1.23h-.92l1.03-6.3Zm1.08,4.21l-.44-3.11h-.02l-.43,3.11h.89Z"/>
          <path class="cls-14" d="M97.04,72.32v-3.39c0-.97,.5-1.55,1.46-1.55s1.46,.58,1.46,1.55v.67h-.94v-.73c0-.41-.2-.58-.5-.58s-.5,.17-.5,.58v3.52c0,.41,.2,.58,.5,.58s.5-.16,.5-.58v-.96h.94v.89c0,.97-.5,1.55-1.46,1.55s-1.46-.58-1.46-1.55Z"/>
          <path class="cls-14" d="M101.59,67.47h1.34l1.03,6.3h-.99l-.18-1.25v.02h-1.13l-.18,1.23h-.92l1.03-6.3Zm1.08,4.21l-.44-3.11h-.02l-.43,3.11h.89Z"/>
          <path class="cls-14" d="M104.5,72.28v-.36h.94v.43c0,.45,.2,.61,.51,.61s.51-.16,.51-.63c0-.52-.2-.86-.85-1.42-.83-.73-1.1-1.24-1.1-1.96,0-.99,.51-1.57,1.48-1.57s1.44,.58,1.44,1.58v.26h-.94v-.32c0-.45-.18-.62-.5-.62s-.5,.17-.5,.6c0,.46,.21,.79,.86,1.36,.83,.73,1.09,1.23,1.09,2.02,0,1.03-.52,1.6-1.5,1.6s-1.46-.58-1.46-1.58Z"/>
          <path class="cls-14" d="M108.29,67.47h2.7v.9h-1.71v1.67h1.36v.9h-1.36v1.94h1.71v.9h-2.7v-6.3Z"/>
          <path class="cls-14" d="M111.68,72.28v-.36h.94v.43c0,.45,.2,.61,.51,.61s.51-.16,.51-.63c0-.52-.2-.86-.85-1.42-.83-.73-1.1-1.24-1.1-1.96,0-.99,.51-1.57,1.48-1.57s1.44,.58,1.44,1.58v.26h-.94v-.32c0-.45-.18-.62-.5-.62s-.5,.17-.5,.6c0,.46,.21,.79,.86,1.36,.83,.73,1.09,1.23,1.09,2.02,0,1.03-.52,1.6-1.5,1.6s-1.46-.58-1.46-1.58Z"/>
        </g>
        <rect class="cls-4" x="30.2" y="68.22" width="34.51" height="4.32"/>
        <rect class="cls-4" x="118.44" y="68.22" width="29.68" height="4.32"/>
      </g>
    </g>
  </g>
</svg>