<?xml version="1.0" encoding="UTF-8"?><svg id="Layer_2" xmlns="http://www.w3.org/2000/svg" viewBox="0 0 352.79 222.53"><defs><style>.cls-1{stroke:#edcbc2;stroke-miterlimit:10;stroke-width:3px;}.cls-1,.cls-2,.cls-3,.cls-4,.cls-5{fill:none;}.cls-6{fill:#fff;}.cls-7{fill:#a14841;}.cls-8{fill:#939598;}.cls-9{fill:#c22033;}.cls-10{fill:#d57a6d;}.cls-2{stroke:#a14841;}.cls-2,.cls-3,.cls-4{stroke-width:2px;}.cls-3{stroke:#c22033;}.cls-4{stroke:#d57a6d;}.cls-5{stroke:#bdbcbb;stroke-width:.5px;}</style></defs><g id="Layer_2-2"><rect class="cls-6" width="352.79" height="57.4"/><path class="cls-10" d="m239.87,123.05c-.09-.09-.17-.2-.23-.31h-.22c-.08,0-.15.05-.15.12v.54c.19-.17.38-.28.52-.32.02,0,.05-.02.08-.02,0,0,0,0,0,0Z"/><path class="cls-10" d="m242.19,123.07c.14.04.33.15.53.33v-.54c0-.06-.07-.12-.15-.12h-.22c-.06.11-.14.22-.23.31,0,0,0,0,0,0,.02,0,.04,0,.07.02Z"/><path class="cls-10" d="m242.07,123.48h0s-.03,0-.05-.01c-.03,0-.05-.01-.08-.02,0,.42.07,1.05.33,1.57v-.09c.16.44.31,1.14.31,2.23,0,.09,0,.19,0,.29,0,.22.17.4.39.41,0,0,0,0,0,0,.22,0,.39-.17.4-.39,0-.11,0-.21,0-.31,0-1.53-.26-2.42-.57-2.96-.3-.54-.66-.7-.74-.72Z"/><path class="cls-10" d="m239.18,124.21c-.3.54-.57,1.43-.57,2.96,0,.1,0,.2,0,.31,0,.22.18.39.4.39h0c.22,0,.4-.19.39-.41,0-.1,0-.2,0-.29,0-1.1.15-1.8.31-2.23v.06c.24-.52.31-1.12.32-1.54-.02,0-.05,0-.07.02-.02,0-.04,0-.05.01-.08.02-.44.18-.74.72Z"/><path class="cls-10" d="m239.72,130.78c0,.32.26.58.58.58s.58-.26.58-.58v-2.46h.22v2.46c0,.32.26.58.58.58s.58-.26.58-.58v-3.79s-2.54,0-2.54,0v3.79Z"/><path class="cls-10" d="m239.72,125.56v1.26s2.54,0,2.54,0v-1.24c-.49-.66-.61-1.58-.62-2.13h-1.31c-.02.55-.13,1.45-.61,2.11Z"/><circle class="cls-10" cx="240.99" cy="121.96" r="1.27"/><path class="cls-10" d="m236.27,131.38v-.41s-2.31,0-2.31,0v-5.92s-7.99-2.99-7.99-2.99v-.22s9.43,3.53,9.43,3.53l.26-.71-9.69-3.63v-.91s-12.05,4.51-12.05,4.51v6.33h-2.2s0,.41,0,.41h24.55Zm-18.22-2.62h-2.54v-1.82h2.54v1.82Zm3.16,0h-2.54v-1.82h2.54v1.82Zm.62-1.82h2.54v1.82h-2.54v-1.82Zm9.12-.26h-3.38v-.43h3.38v.43Zm-.48.29v3.85h-2.42v-3.85h2.42Z"/><rect class="cls-10" x="211.65" y="121.45" width="16.32" height=".75" transform="translate(-28.76 84.8) rotate(-20.52)"/><rect class="cls-10" x="230.01" y="128.45" width=".23" height=".91"/><path class="cls-10" d="m246.36,124.31h1.46c.49,0,.86.13,1.11.4.25.26.37.65.37,1.16v.62c0,.51-.12.9-.37,1.16s-.62.4-1.11.4h-.47v2.56h-.99v-6.3Zm1.46,2.83c.16,0,.28-.04.36-.14.08-.09.12-.24.12-.46v-.75c0-.22-.04-.37-.12-.46-.08-.09-.2-.13-.36-.13h-.47v1.94h.47Z"/><path class="cls-10" d="m250.01,124.31h1.47c.51,0,.88.12,1.12.36.23.24.35.6.35,1.09v.39c0,.65-.22,1.07-.65,1.24v.02c.24.07.41.22.51.44.1.22.15.52.15.89v1.11c0,.18,0,.33.02.44.01.11.04.22.09.33h-1.01c-.04-.1-.06-.2-.07-.29-.01-.09-.02-.25-.02-.49v-1.15c0-.29-.05-.49-.14-.6-.09-.11-.25-.17-.48-.17h-.34v2.7h-.99v-6.3Zm1.35,2.7c.2,0,.35-.05.45-.15s.15-.27.15-.51v-.49c0-.23-.04-.39-.12-.5s-.21-.15-.38-.15h-.45v1.8h.36Z"/><path class="cls-10" d="m253.82,124.31h.99v6.3h-.99v-6.3Z"/><path class="cls-10" d="m255.73,124.31h1.41l.63,4.51h.02l.63-4.51h1.41v6.3h-.94v-4.77h-.02l-.72,4.77h-.83l-.72-4.77h-.02v4.77h-.86v-6.3Z"/><path class="cls-10" d="m261.51,124.31h1.34l1.03,6.3h-.99l-.18-1.25v.02h-1.12l-.18,1.23h-.92l1.03-6.3Zm1.08,4.21l-.44-3.11h-.02l-.43,3.11h.89Z"/><path class="cls-10" d="m264.54,124.31h1.47c.51,0,.88.12,1.12.36.23.24.35.6.35,1.09v.39c0,.65-.22,1.07-.65,1.24v.02c.24.07.41.22.51.44.1.22.15.52.15.89v1.11c0,.18,0,.33.02.44.01.11.04.22.09.33h-1.01c-.04-.1-.06-.2-.07-.29-.01-.09-.02-.25-.02-.49v-1.15c0-.29-.05-.49-.14-.6-.09-.11-.25-.17-.48-.17h-.34v2.7h-.99v-6.3Zm1.35,2.7c.2,0,.35-.05.45-.15s.15-.27.15-.51v-.49c0-.23-.04-.39-.12-.5s-.21-.15-.38-.15h-.45v1.8h.36Z"/><path class="cls-10" d="m269.11,127.92l-1.2-3.62h1.05l.68,2.31h.02l.67-2.31h.96l-1.2,3.62v2.68h-.99v-2.68Z"/><path class="cls-10" d="m273.74,130.29c-.25-.27-.37-.66-.37-1.17v-.36h.94v.43c0,.41.17.61.51.61.17,0,.3-.05.38-.15s.13-.26.13-.48c0-.26-.06-.5-.18-.7-.12-.2-.34-.44-.67-.72-.41-.36-.69-.69-.85-.98s-.24-.62-.24-.99c0-.5.13-.88.38-1.16.25-.27.62-.41,1.1-.41s.83.14,1.08.41.36.66.36,1.17v.26h-.94v-.32c0-.22-.04-.37-.13-.47-.08-.1-.21-.15-.37-.15-.33,0-.5.2-.5.6,0,.23.06.44.18.64.12.2.35.44.67.72.41.36.7.69.85.98.16.29.23.64.23,1.03,0,.52-.13.91-.38,1.19-.26.28-.63.41-1.11.41s-.84-.14-1.09-.41Z"/><path class="cls-10" d="m277.39,130.29c-.25-.27-.37-.65-.37-1.14v-3.38c0-.49.12-.87.37-1.14.25-.27.61-.41,1.08-.41s.84.14,1.08.41c.25.27.37.65.37,1.14v.67h-.94v-.73c0-.39-.17-.59-.5-.59s-.5.2-.5.59v3.52c0,.38.17.58.5.58s.5-.19.5-.58v-.96h.94v.89c0,.49-.12.87-.37,1.14-.25.27-.61.4-1.08.4s-.84-.13-1.08-.4Z"/><path class="cls-10" d="m280.7,124.31h.99v2.56h1.06v-2.56h.99v6.3h-.99v-2.83h-1.06v2.83h-.99v-6.3Z"/><path class="cls-10" d="m284.98,130.28c-.26-.28-.39-.67-.39-1.17v-3.31c0-.5.13-.89.39-1.17.26-.28.63-.41,1.12-.41s.86.14,1.12.41c.26.28.39.67.39,1.17v3.31c0,.5-.13.89-.39,1.17-.26.28-.63.41-1.12.41s-.86-.14-1.12-.41Zm1.63-1.11v-3.44c0-.41-.17-.62-.51-.62s-.51.21-.51.62v3.44c0,.41.17.62.51.62s.51-.21.51-.62Z"/><path class="cls-10" d="m288.76,130.28c-.26-.28-.39-.67-.39-1.17v-3.31c0-.5.13-.89.39-1.17.26-.28.63-.41,1.12-.41s.86.14,1.12.41c.26.28.39.67.39,1.17v3.31c0,.5-.13.89-.39,1.17-.26.28-.63.41-1.12.41s-.86-.14-1.12-.41Zm1.63-1.11v-3.44c0-.41-.17-.62-.51-.62s-.51.21-.51.62v3.44c0,.41.17.62.51.62s.51-.21.51-.62Z"/><path class="cls-10" d="m292.22,124.31h.99v5.4h1.63v.9h-2.62v-6.3Z"/><path class="cls-9" d="m210.37,144.72v.86s.79,0,.79,0v8.24s.8,0,.8,0h.3s8,0,8,0h1.08s0,0,0,0v-9.1s0,0,0,0h-9.78s-1.19,0-1.19,0Zm9.9,5.58h-8v-1.44h8v1.44Zm0-3.76v1.44h-8v-1.44h8Zm-8,6.09v-1.44h8v1.44h-8Z"/><path class="cls-9" d="m238.89,144.72h-9.78v9.1h10.18v-8.24h.79v-.86h-1.19Zm-8.7,4.15h8v1.44h-8v-1.44Zm8-2.32v1.44h-8v-1.44h8Zm-8,6.09v-1.44h8v1.44h-8Z"/><path class="cls-9" d="m225.14,142.87h1.28s0-.36,0-.36h-1.1v-1.37s0-.18,0-.18h-.36s0,1.73,0,1.73c0,.05.02.09.05.13.03.03.08.05.13.05Z"/><path class="cls-9" d="m227.51,153.82h1.38s0-3.95,0-3.95h0v-10.19h.5s0-.79,0-.79h-8.34s0,.79,0,.79h.5v10.19s0,0,0,0v3.95s1.38,0,1.38,0c0-.07-.02-.15-.02-.22v-2.88c0-.3.08-.59.21-.84h0s.03-.05.04-.07c.01-.02.02-.04.03-.06.01-.02.03-.05.05-.07.01-.02.03-.04.04-.06.03-.03.05-.06.08-.1.02-.02.03-.04.05-.06.02-.02.04-.04.05-.05.02-.02.04-.04.06-.06.02-.02.04-.04.07-.06.03-.02.06-.04.09-.07.02-.01.03-.02.05-.03.03-.02.06-.04.08-.05.02,0,.03-.02.05-.03.04-.02.09-.04.13-.06.01,0,.03-.01.04-.02.04-.01.07-.03.11-.04.01,0,.03,0,.04-.01.05-.01.1-.03.15-.04,0,0,.02,0,.03,0,.04,0,.09-.02.13-.02.01,0,.03,0,.04,0,.05,0,.11,0,.16,0h.99c.06,0,.11,0,.16,0,.01,0,.03,0,.04,0,.04,0,.09.01.13.02,0,0,.02,0,.03,0,.05.01.1.02.15.04.01,0,.03,0,.04.01.04.01.07.03.11.04.01,0,.03.01.04.02.04.02.09.04.13.06.02,0,.03.02.05.03.03.02.06.03.09.05.02.01.04.02.05.03.03.02.06.04.09.07.02.02.04.04.07.06.02.02.04.04.06.06.02.02.04.04.05.05.02.02.03.04.05.06.03.03.05.06.08.1.02.02.03.04.05.06.02.02.03.05.05.07.01.02.02.04.03.06.01.02.03.05.04.07.13.25.21.54.21.84v2.88c0,.08,0,.15-.02.22Zm-.31-11.29c0,1.09-.89,1.98-1.98,1.98s-1.92-.83-1.97-1.88c0-.03,0-.07,0-.1,0-1.09.89-1.98,1.98-1.98s1.98.89,1.98,1.98Z"/><path class="cls-9" d="m246.56,149.35s-.01-.09-.01-.14c.01-.25.02-.49.02-.72,0-.93-.08-1.59-.19-2.08v.04s-.01,3.03-.01,3.03c.07-.04.14-.08.2-.13Z"/><path class="cls-9" d="m245.87,143.39c-.27.33-.68.54-1.14.54s-.87-.21-1.14-.54c-.64.04-1.14.56-1.14,1.21v.3s0,0,0,0c.43-.72.95-.83,1.01-.84,0,0,0,0,0,0h0s0,0,0,0c.03,0,.05,0,.08,0,.03,0,.07-.01.1-.01h2.16s.07,0,.1,0c.03,0,.07,0,.1,0h0c.06.01.58.12,1.01.84,0,0,0,0,0,0v-.3c0-.64-.5-1.17-1.14-1.21Z"/><path class="cls-9" d="m243.08,146.42h0c-.11.47-.19,1.14-.19,2.06,0,.23,0,.47.02.72,0,.05,0,.09-.01.14.06.05.12.09.19.13v-3.06Z"/><path class="cls-9" d="m243.21,148.16v5.31c0,.38.31.69.69.69s.69-.31.69-.69v-4.28h.26v4.28c0,.38.31.69.69.69s.69-.31.69-.69v-5.31s-3.03,0-3.03,0h0Z"/><path class="cls-9" d="m241.86,148.88c0,.12,0,.25.01.38.01.24.21.44.45.44,0,0,.01,0,.02,0,.25-.01.45-.22.43-.47,0-.07,0-.14,0-.21l-.91-.13Z"/><path class="cls-9" d="m247.1,149.69s.01,0,.02,0c.24,0,.44-.19.45-.43,0-.13,0-.25.01-.38l-.91.13c0,.07,0,.14,0,.21-.01.25.18.46.43.47Z"/><path class="cls-9" d="m245.67,144.15h-1.9c0,.16-.03,1.21-.57,2.6v1.15s3.03,0,3.03,0v-1.17c-.52-1.38-.56-2.41-.56-2.57Z"/><path class="cls-9" d="m246.03,144.19s0,.02,0,.03c0,.19.02.75.21,1.42.22.48.44,1.34.44,2.85,0,.11,0,.23,0,.35l.91-.13c0-.07,0-.15,0-.22,0-1.87-.31-2.92-.69-3.53-.32-.54-.7-.72-.87-.77Z"/><path class="cls-9" d="m243.41,144.19c-.16.05-.55.23-.87.77-.37.62-.69,1.66-.69,3.53,0,.07,0,.14,0,.22l.91.13c0-.12,0-.23,0-.35,0-1.5.22-2.37.44-2.85h0c.19-.67.21-1.23.21-1.42,0-.01,0-.02,0-.03Z"/><circle class="cls-9" cx="244.72" cy="142.45" r="1.36"/><path class="cls-9" d="m250.13,139.33h.99v5.4h1.63v.9h-2.62v-6.3Z"/><path class="cls-9" d="m253.69,145.31c-.26-.28-.39-.67-.39-1.17v-3.31c0-.5.13-.89.39-1.17.26-.28.63-.41,1.12-.41s.86.14,1.12.41c.26.28.39.67.39,1.17v3.31c0,.5-.13.89-.39,1.17-.26.28-.63.41-1.12.41s-.86-.14-1.12-.41Zm1.63-1.11v-3.44c0-.41-.17-.62-.51-.62s-.51.21-.51.62v3.44c0,.41.17.62.51.62s.51-.21.51-.62Z"/><path class="cls-9" d="m256.92,139.33h.95l.44,4.84h.02l.47-4.84h1.08l.47,4.84h.02l.44-4.84h.85l-.64,6.3h-1.23l-.45-4.25h-.02l-.45,4.25h-1.31l-.64-6.3Z"/><path class="cls-9" d="m262.34,139.33h2.7v.9h-1.71v1.67h1.36v.9h-1.36v1.94h1.71v.9h-2.7v-6.3Z"/><path class="cls-9" d="m265.79,139.33h1.47c.51,0,.88.12,1.12.36.23.24.35.6.35,1.09v.39c0,.65-.22,1.07-.65,1.24v.02c.24.07.41.22.51.44.1.22.15.52.15.89v1.11c0,.18,0,.33.02.44.01.11.04.22.09.33h-1.01c-.04-.1-.06-.2-.07-.29-.01-.09-.02-.25-.02-.49v-1.15c0-.29-.05-.49-.14-.6-.09-.11-.25-.17-.48-.17h-.34v2.7h-.99v-6.3Zm1.35,2.7c.2,0,.35-.05.45-.15s.15-.27.15-.51v-.49c0-.23-.04-.39-.12-.5s-.21-.15-.38-.15h-.45v1.8h.36Z"/><path class="cls-9" d="m250.33,154.31c-.25-.27-.37-.66-.37-1.17v-.36h.94v.43c0,.41.17.61.51.61.17,0,.3-.05.38-.15s.13-.26.13-.48c0-.26-.06-.5-.18-.7-.12-.2-.34-.44-.67-.72-.41-.36-.69-.69-.85-.98s-.24-.62-.24-.99c0-.5.13-.88.38-1.16.25-.27.62-.41,1.1-.41s.83.14,1.08.41.36.66.36,1.17v.26h-.94v-.32c0-.22-.04-.37-.13-.47-.08-.1-.21-.15-.37-.15-.33,0-.5.2-.5.6,0,.23.06.44.18.64.12.2.35.44.67.72.41.36.7.69.85.98.16.29.23.64.23,1.03,0,.52-.13.91-.38,1.19-.26.28-.63.41-1.11.41s-.84-.14-1.09-.41Z"/><path class="cls-9" d="m253.66,148.33h2.7v.9h-1.71v1.67h1.36v.9h-1.36v1.94h1.71v.9h-2.7v-6.3Z"/><path class="cls-9" d="m257.42,154.32c-.25-.27-.37-.65-.37-1.14v-3.38c0-.49.12-.87.37-1.14.25-.27.61-.41,1.08-.41s.84.14,1.08.41c.25.27.37.65.37,1.14v.67h-.94v-.73c0-.39-.17-.59-.5-.59s-.5.2-.5.59v3.52c0,.38.17.58.5.58s.5-.19.5-.58v-.96h.94v.89c0,.49-.12.87-.37,1.14-.25.27-.61.4-1.08.4s-.84-.13-1.08-.4Z"/><path class="cls-9" d="m261.07,154.31c-.26-.28-.39-.67-.39-1.17v-3.31c0-.5.13-.89.39-1.17.26-.28.63-.41,1.12-.41s.86.14,1.12.41c.26.28.39.67.39,1.17v3.31c0,.5-.13.89-.39,1.17-.26.28-.63.41-1.12.41s-.86-.14-1.12-.41Zm1.63-1.11v-3.44c0-.41-.17-.62-.51-.62s-.51.21-.51.62v3.44c0,.41.17.62.51.62s.51-.21.51-.62Z"/><path class="cls-9" d="m264.53,148.33h1.24l.96,3.77h.02v-3.77h.88v6.3h-1.02l-1.19-4.6h-.02v4.6h-.88v-6.3Z"/><path class="cls-9" d="m268.55,148.33h1.51c.49,0,.86.13,1.11.4.25.26.37.65.37,1.16v3.19c0,.51-.12.9-.37,1.16s-.61.4-1.11.4h-1.51v-6.3Zm1.49,5.4c.16,0,.29-.05.37-.14s.13-.25.13-.47v-3.28c0-.22-.04-.37-.13-.47-.09-.1-.21-.14-.37-.14h-.5v4.5h.5Z"/><path class="cls-9" d="m273.13,148.33h1.34l1.03,6.3h-.99l-.18-1.25v.02h-1.12l-.18,1.23h-.92l1.03-6.3Zm1.08,4.21l-.44-3.11h-.02l-.43,3.11h.89Z"/><path class="cls-9" d="m276.16,148.33h1.47c.51,0,.88.12,1.12.36.23.24.35.6.35,1.09v.39c0,.65-.22,1.07-.65,1.24v.02c.24.07.41.22.51.44.1.22.15.52.15.89v1.11c0,.18,0,.33.02.44.01.11.04.22.09.33h-1.01c-.04-.1-.06-.2-.07-.29-.01-.09-.02-.25-.02-.49v-1.15c0-.29-.05-.49-.14-.6-.09-.11-.25-.17-.48-.17h-.34v2.7h-.99v-6.3Zm1.35,2.7c.2,0,.35-.05.45-.15s.15-.27.15-.51v-.49c0-.23-.04-.39-.12-.5s-.21-.15-.38-.15h-.45v1.8h.36Z"/><path class="cls-9" d="m280.73,151.95l-1.2-3.62h1.05l.68,2.31h.02l.67-2.31h.96l-1.2,3.62v2.68h-.99v-2.68Z"/><path class="cls-9" d="m285.37,154.31c-.25-.27-.37-.66-.37-1.17v-.36h.94v.43c0,.41.17.61.51.61.17,0,.3-.05.38-.15s.13-.26.13-.48c0-.26-.06-.5-.18-.7-.12-.2-.34-.44-.67-.72-.41-.36-.69-.69-.85-.98s-.24-.62-.24-.99c0-.5.13-.88.38-1.16.25-.27.62-.41,1.1-.41s.83.14,1.08.41.36.66.36,1.17v.26h-.94v-.32c0-.22-.04-.37-.13-.47-.08-.1-.21-.15-.37-.15-.33,0-.5.2-.5.6,0,.23.06.44.18.64.12.2.35.44.67.72.41.36.7.69.85.98.16.29.23.64.23,1.03,0,.52-.13.91-.38,1.19-.26.28-.63.41-1.11.41s-.84-.14-1.09-.41Z"/><path class="cls-9" d="m289.01,154.32c-.25-.27-.37-.65-.37-1.14v-3.38c0-.49.12-.87.37-1.14.25-.27.61-.41,1.08-.41s.84.14,1.08.41c.25.27.37.65.37,1.14v.67h-.94v-.73c0-.39-.17-.59-.5-.59s-.5.2-.5.59v3.52c0,.38.17.58.5.58s.5-.19.5-.58v-.96h.94v.89c0,.49-.12.87-.37,1.14-.25.27-.61.4-1.08.4s-.84-.13-1.08-.4Z"/><path class="cls-9" d="m292.32,148.33h.99v2.56h1.06v-2.56h.99v6.3h-.99v-2.83h-1.06v2.83h-.99v-6.3Z"/><path class="cls-9" d="m296.6,154.31c-.26-.28-.39-.67-.39-1.17v-3.31c0-.5.13-.89.39-1.17.26-.28.63-.41,1.12-.41s.86.14,1.12.41c.26.28.39.67.39,1.17v3.31c0,.5-.13.89-.39,1.17-.26.28-.63.41-1.12.41s-.86-.14-1.12-.41Zm1.63-1.11v-3.44c0-.41-.17-.62-.51-.62s-.51.21-.51.62v3.44c0,.41.17.62.51.62s.51-.21.51-.62Z"/><path class="cls-9" d="m300.38,154.31c-.26-.28-.39-.67-.39-1.17v-3.31c0-.5.13-.89.39-1.17.26-.28.63-.41,1.12-.41s.86.14,1.12.41c.26.28.39.67.39,1.17v3.31c0,.5-.13.89-.39,1.17-.26.28-.63.41-1.12.41s-.86-.14-1.12-.41Zm1.63-1.11v-3.44c0-.41-.17-.62-.51-.62s-.51.21-.51.62v3.44c0,.41.17.62.51.62s.51-.21.51-.62Z"/><path class="cls-9" d="m303.84,148.33h.99v5.4h1.63v.9h-2.62v-6.3Z"/><path class="cls-7" d="m240.98,190.27c.15,0,.32-.04.47-.1-.2-.12-.33-.34-.32-.59.02-.41.04-.8.04-1.16,0-.95-.08-1.62-.19-2.1v3.95Z"/><path class="cls-7" d="m242.61,189.48s.03-.01.08-.04c.21-.14.75-.68.4-2.54-.42-2.28-1.55-3.05-1.96-3.18-.07-.02-.16-.03-.26-.03-.36,0-.89.1-1.23.17h.72s.02,0,.03,0c.11,0,.33.02.58.15.43.21.8.67,1.04,1.28.3.76.45,1.79.45,3.13,0,.38-.01.79-.04,1.21.12-.09.19-.15.19-.15Z"/><path class="cls-7" d="m242.29,189.65c.03-.44.04-.85.04-1.23,0-1.45-.18-2.42-.44-3.08-.26-.66-.63-1.04-.98-1.21-.22-.11-.41-.14-.53-.14,0,0-.02,0-.03,0h-.22s0,.03,0,.06c0,.3.05,1.44.72,2.52v-1.04c.22.46.45,1.33.45,2.88,0,.35-.01.74-.04,1.17-.02.28.2.53.48.54.01,0,.02,0,.03,0,.27,0,.5-.21.51-.48Z"/><path class="cls-7" d="m239.76,183.99h-1.87s-.02,0-.02,0c-.12,0-.31.03-.53.14-.23.11-.47.32-.69.64-.42.64-.73,1.72-.73,3.65,0,.38.01.78.04,1.23.02.27.24.48.51.48.01,0,.02,0,.03,0,.28-.02.5-.26.48-.54-.02-.43-.04-.82-.04-1.17,0-1.28.15-2.11.33-2.61.04-.1.08-.19.11-.27v9.62c0,.44.36.79.79.79s.79-.36.79-.79v-5.79h.3v5.79c0,.44.36.79.79.79s.79-.36.79-.79v-7.92c-1.04-1.3-1.1-2.81-1.1-3.19,0-.03,0-.05,0-.06Z"/><path class="cls-7" d="m239.12,183.62c.8,0,1.44-.65,1.44-1.44,0-.8-.65-1.44-1.44-1.44-.4,0-.75.16-1.01.42-.03,0-.05,0-.08,0-.76,0-1.38.21-1.38.46s.62.46,1.38.46c.69,0,1.27-.17,1.36-.39.02.25-.55.54-1.29.65-.14.02-.28.04-.41.04.1.71.7,1.25,1.43,1.25Z"/><rect class="cls-7" x="223.28" y="178.1" width="5.29" height=".54"/><path class="cls-7" d="m232.79,195.23v-9.2h-1.85v-6.91h-8.11v-1.44h-8.02v1.44h-1.89v12.68h-2.66v3.43h-1.04v.68h24.67v-.68h-1.09Zm-5.79-14.76h1.32v2.52h-1.32v-2.52Zm0,3.31h1.32v2.52h-1.32v-2.52Zm-1.59-3.31h1.32v2.52h-1.32v-2.52Zm0,3.31h1.32v2.52h-1.32v-2.52Zm-1.59-3.31h1.32v2.52h-1.32v-2.52Zm1.32,3.31v2.52h-1.32v-2.52h1.32Zm-2.92-3.31h1.32v2.52h-1.32v-2.52Zm0,3.31h1.32v2.52h-1.32v-2.52Zm-1.59-3.31h1.32v2.52h-1.32v-2.52Zm0,3.31h1.32v2.52h-1.32v-2.52Zm-1.59-3.31h1.32v2.52h-1.32v-2.52Zm0,3.31h1.32v2.52h-1.32v-2.52Zm-1.59-3.31h1.32v2.52h-1.32v-2.52Zm0,3.31h1.32v2.52h-1.32v-2.52Zm-1.59-3.31h1.32v2.52h-1.32v-2.52Zm0,3.31h1.32v2.52h-1.32v-2.52Zm-1.67-3.31h1.4v2.52h-1.4v-2.52Zm0,3.31h1.4v2.52h-1.4v-2.52Zm4.3,10.04h-4.34v-1.32h4.34v1.32Zm4.67,0h-4.34v-1.32h4.34v1.32Zm6.62,1.42h-5.47v-3.07h5.47v3.07Zm.18-4.37h-15.78v-3.79h15.78v3.79Zm0-4.57h-1.35v-2.52h1.35v2.52Zm0-3.31h-1.35v-2.52h1.35v2.52Z"/><path class="cls-7" d="m246.11,186.39c-.25-.27-.38-.66-.38-1.17v-4.81h.99v4.88c0,.22.04.37.13.47.09.1.21.14.37.14s.29-.05.37-.14c.09-.1.13-.25.13-.47v-4.88h.95v4.81c0,.51-.13.9-.38,1.17-.25.27-.62.41-1.1.41s-.85-.14-1.1-.41Z"/><path class="cls-7" d="m249.57,180.41h1.46c.49,0,.86.13,1.11.4.25.26.37.65.37,1.16v.62c0,.51-.12.9-.37,1.16s-.62.4-1.11.4h-.47v2.56h-.99v-6.3Zm1.46,2.83c.16,0,.28-.04.36-.14.08-.09.12-.24.12-.46v-.75c0-.22-.04-.37-.12-.46-.08-.09-.2-.13-.36-.13h-.47v1.94h.47Z"/><path class="cls-7" d="m253.22,180.41h1.46c.49,0,.86.13,1.11.4.25.26.37.65.37,1.16v.62c0,.51-.12.9-.37,1.16s-.62.4-1.11.4h-.47v2.56h-.99v-6.3Zm1.46,2.83c.16,0,.28-.04.36-.14.08-.09.12-.24.12-.46v-.75c0-.22-.04-.37-.12-.46-.08-.09-.2-.13-.36-.13h-.47v1.94h.47Z"/><path class="cls-7" d="m256.88,180.41h2.7v.9h-1.71v1.67h1.36v.9h-1.36v1.94h1.71v.9h-2.7v-6.3Z"/><path class="cls-7" d="m260.32,180.41h1.47c.51,0,.88.12,1.12.36.23.24.35.6.35,1.09v.39c0,.65-.22,1.07-.65,1.24v.02c.24.07.41.22.51.44.1.22.15.52.15.89v1.11c0,.18,0,.33.02.44.01.11.04.22.09.33h-1.01c-.04-.1-.06-.2-.07-.29-.01-.09-.02-.25-.02-.49v-1.15c0-.29-.05-.49-.14-.6-.09-.11-.25-.17-.48-.17h-.34v2.7h-.99v-6.3Zm1.35,2.7c.2,0,.35-.05.45-.15s.15-.27.15-.51v-.49c0-.23-.04-.39-.12-.5s-.21-.15-.38-.15h-.45v1.8h.36Z"/><path class="cls-7" d="m245.97,195.39c-.25-.27-.37-.66-.37-1.17v-.36h.94v.43c0,.41.17.61.51.61.17,0,.3-.05.38-.15s.13-.26.13-.48c0-.26-.06-.5-.18-.7-.12-.2-.34-.44-.67-.72-.41-.36-.69-.69-.85-.98s-.24-.62-.24-.99c0-.5.13-.88.38-1.16.25-.27.62-.41,1.1-.41s.83.14,1.08.41.36.66.36,1.17v.26h-.94v-.32c0-.22-.04-.37-.13-.47-.08-.1-.21-.15-.37-.15-.33,0-.5.2-.5.6,0,.23.06.44.18.64.12.2.35.44.67.72.41.36.7.69.85.98.16.29.23.64.23,1.03,0,.52-.13.91-.38,1.19-.26.28-.63.41-1.11.41s-.84-.14-1.09-.41Z"/><path class="cls-7" d="m249.3,189.41h2.7v.9h-1.71v1.67h1.36v.9h-1.36v1.94h1.71v.9h-2.7v-6.3Z"/><path class="cls-7" d="m253.06,195.39c-.25-.27-.37-.65-.37-1.14v-3.38c0-.49.12-.87.37-1.14.25-.27.61-.41,1.08-.41s.84.14,1.08.41c.25.27.37.65.37,1.14v.67h-.94v-.73c0-.39-.17-.59-.5-.59s-.5.2-.5.59v3.52c0,.38.17.58.5.58s.5-.19.5-.58v-.96h.94v.89c0,.49-.12.87-.37,1.14-.25.27-.61.4-1.08.4s-.84-.13-1.08-.4Z"/><path class="cls-7" d="m256.71,195.38c-.26-.28-.39-.67-.39-1.17v-3.31c0-.5.13-.89.39-1.17.26-.28.63-.41,1.12-.41s.86.14,1.12.41c.26.28.39.67.39,1.17v3.31c0,.5-.13.89-.39,1.17-.26.28-.63.41-1.12.41s-.86-.14-1.12-.41Zm1.63-1.11v-3.44c0-.41-.17-.62-.51-.62s-.51.21-.51.62v3.44c0,.41.17.62.51.62s.51-.21.51-.62Z"/><path class="cls-7" d="m260.17,189.41h1.24l.96,3.77h.02v-3.77h.88v6.3h-1.02l-1.19-4.6h-.02v4.6h-.88v-6.3Z"/><path class="cls-7" d="m264.19,189.41h1.51c.49,0,.86.13,1.11.4.25.26.37.65.37,1.16v3.19c0,.51-.12.9-.37,1.16s-.61.4-1.11.4h-1.51v-6.3Zm1.49,5.4c.16,0,.29-.05.37-.14s.13-.25.13-.47v-3.28c0-.22-.04-.37-.13-.47-.09-.1-.21-.14-.37-.14h-.5v4.5h.5Z"/><path class="cls-7" d="m268.77,189.41h1.34l1.03,6.3h-.99l-.18-1.25v.02h-1.12l-.18,1.23h-.92l1.03-6.3Zm1.08,4.21l-.44-3.11h-.02l-.43,3.11h.89Z"/><path class="cls-7" d="m271.8,189.41h1.47c.51,0,.88.12,1.12.36.23.24.35.6.35,1.09v.39c0,.65-.22,1.07-.65,1.24v.02c.24.07.41.22.51.44.1.22.15.52.15.89v1.11c0,.18,0,.33.02.44.01.11.04.22.09.33h-1.01c-.04-.1-.06-.2-.07-.29-.01-.09-.02-.25-.02-.49v-1.15c0-.29-.05-.49-.14-.6-.09-.11-.25-.17-.48-.17h-.34v2.7h-.99v-6.3Zm1.35,2.7c.2,0,.35-.05.45-.15s.15-.27.15-.51v-.49c0-.23-.04-.39-.12-.5s-.21-.15-.38-.15h-.45v1.8h.36Z"/><path class="cls-7" d="m276.37,193.03l-1.2-3.62h1.05l.68,2.31h.02l.67-2.31h.96l-1.2,3.62v2.68h-.99v-2.68Z"/><path class="cls-7" d="m281.01,195.39c-.25-.27-.37-.66-.37-1.17v-.36h.94v.43c0,.41.17.61.51.61.17,0,.3-.05.38-.15s.13-.26.13-.48c0-.26-.06-.5-.18-.7-.12-.2-.34-.44-.67-.72-.41-.36-.69-.69-.85-.98s-.24-.62-.24-.99c0-.5.13-.88.38-1.16.25-.27.62-.41,1.1-.41s.83.14,1.08.41.36.66.36,1.17v.26h-.94v-.32c0-.22-.04-.37-.13-.47-.08-.1-.21-.15-.37-.15-.33,0-.5.2-.5.6,0,.23.06.44.18.64.12.2.35.44.67.72.41.36.7.69.85.98.16.29.23.64.23,1.03,0,.52-.13.91-.38,1.19-.26.28-.63.41-1.11.41s-.84-.14-1.09-.41Z"/><path class="cls-7" d="m284.65,195.39c-.25-.27-.37-.65-.37-1.14v-3.38c0-.49.12-.87.37-1.14.25-.27.61-.41,1.08-.41s.84.14,1.08.41c.25.27.37.65.37,1.14v.67h-.94v-.73c0-.39-.17-.59-.5-.59s-.5.2-.5.59v3.52c0,.38.17.58.5.58s.5-.19.5-.58v-.96h.94v.89c0,.49-.12.87-.37,1.14-.25.27-.61.4-1.08.4s-.84-.13-1.08-.4Z"/><path class="cls-7" d="m287.96,189.41h.99v2.56h1.06v-2.56h.99v6.3h-.99v-2.83h-1.06v2.83h-.99v-6.3Z"/><path class="cls-7" d="m292.24,195.38c-.26-.28-.39-.67-.39-1.17v-3.31c0-.5.13-.89.39-1.17.26-.28.63-.41,1.12-.41s.86.14,1.12.41c.26.28.39.67.39,1.17v3.31c0,.5-.13.89-.39,1.17-.26.28-.63.41-1.12.41s-.86-.14-1.12-.41Zm1.63-1.11v-3.44c0-.41-.17-.62-.51-.62s-.51.21-.51.62v3.44c0,.41.17.62.51.62s.51-.21.51-.62Z"/><path class="cls-7" d="m296.02,195.38c-.26-.28-.39-.67-.39-1.17v-3.31c0-.5.13-.89.39-1.17.26-.28.63-.41,1.12-.41s.86.14,1.12.41c.26.28.39.67.39,1.17v3.31c0,.5-.13.89-.39,1.17-.26.28-.63.41-1.12.41s-.86-.14-1.12-.41Zm1.63-1.11v-3.44c0-.41-.17-.62-.51-.62s-.51.21-.51.62v3.44c0,.41.17.62.51.62s.51-.21.51-.62Z"/><path class="cls-7" d="m299.48,189.41h.99v5.4h1.63v.9h-2.62v-6.3Z"/><path class="cls-8" d="m191.29,221.67c0-.5.08-.93.24-1.29.16-.36.45-.75.86-1.19.41-.43.69-.8.84-1.11s.23-.63.23-.96c0-.3-.05-.51-.15-.62s-.24-.18-.42-.18c-.38,0-.57.23-.57.69v.75h-1.04v-.68c0-.57.14-1,.42-1.31.28-.3.69-.46,1.22-.46s.94.15,1.22.46.42.74.42,1.31c0,.43-.1.84-.3,1.25-.2.41-.56.87-1.06,1.4-.33.35-.55.63-.66.84-.11.22-.17.45-.17.7v.15h2.09v1h-3.18v-.76Z"/><path class="cls-8" d="m195.86,222.07c-.29-.31-.43-.74-.43-1.3v-3.68c0-.56.14-.99.43-1.3s.7-.46,1.24-.46.95.15,1.24.46c.29.31.43.74.43,1.3v3.68c0,.56-.14.99-.43,1.3-.29.31-.7.46-1.24.46s-.95-.15-1.24-.46Zm1.81-1.23v-3.82c0-.46-.19-.69-.57-.69s-.57.23-.57.69v3.82c0,.46.19.69.57.69s.57-.23.57-.69Z"/><path class="cls-8" d="m199.69,221.67c0-.5.08-.93.24-1.29.16-.36.45-.75.86-1.19.41-.43.69-.8.84-1.11s.23-.63.23-.96c0-.3-.05-.51-.15-.62s-.24-.18-.42-.18c-.38,0-.57.23-.57.69v.75h-1.04v-.68c0-.57.14-1,.42-1.31.28-.3.69-.46,1.22-.46s.94.15,1.22.46.42.74.42,1.31c0,.43-.1.84-.3,1.25-.2.41-.56.87-1.06,1.4-.33.35-.55.63-.66.84-.11.22-.17.45-.17.7v.15h2.09v1h-3.18v-.76Z"/><path class="cls-8" d="m205.45,217.09h-1.15v-.78c.31,0,.57-.03.76-.08.19-.05.34-.14.45-.26.11-.12.21-.3.3-.54h.74v7h-1.1v-5.34Z"/><path class="cls-8" d="m60.36,221.67c0-.5.08-.93.24-1.29.16-.36.45-.75.86-1.19.41-.43.69-.8.84-1.11s.23-.63.23-.96c0-.3-.05-.51-.15-.62s-.24-.18-.42-.18c-.38,0-.57.23-.57.69v.75h-1.04v-.68c0-.57.14-1,.42-1.31.28-.3.69-.46,1.22-.46s.94.15,1.22.46.42.74.42,1.31c0,.43-.1.84-.3,1.25-.2.41-.56.87-1.06,1.4-.33.35-.55.63-.66.84-.11.22-.17.45-.17.7v.15h2.09v1h-3.18v-.76Z"/><path class="cls-8" d="m64.93,222.07c-.29-.31-.43-.74-.43-1.3v-3.68c0-.56.14-.99.43-1.3s.7-.46,1.24-.46.95.15,1.24.46c.29.31.43.74.43,1.3v3.68c0,.56-.14.99-.43,1.3-.29.31-.7.46-1.24.46s-.95-.15-1.24-.46Zm1.81-1.23v-3.82c0-.46-.19-.69-.57-.69s-.57.23-.57.69v3.82c0,.46.19.69.57.69s.57-.23.57-.69Z"/><path class="cls-8" d="m70.32,217.09h-1.15v-.78c.31,0,.57-.03.76-.08.19-.05.34-.14.45-.26.11-.12.21-.3.3-.54h.74v7h-1.1v-5.34Z"/><path class="cls-8" d="m73.37,222.07c-.28-.3-.42-.74-.42-1.31v-.55h1.04v.63c0,.45.19.68.57.68s.57-.23.57-.68v-1.57c0-.46-.19-.69-.57-.69s-.57.23-.57.69v.06h-1.04l.2-3.91h2.9v1h-1.92l-.09,1.67h.02c.21-.34.52-.51.95-.51.4,0,.7.14.91.41.21.27.31.67.31,1.19v1.58c0,.57-.14,1-.42,1.31-.28.3-.69.46-1.22.46s-.94-.15-1.22-.46Z"/><line class="cls-5" x1="54.5" y1="206.52" x2="213.51" y2="206.52"/><line class="cls-5" x1="54.76" y1="99.86" x2="54.76" y2="206.54"/><line class="cls-4" x1="69.16" y1="131.47" x2="198.86" y2="127.26"/><circle class="cls-10" cx="69.16" cy="131.47" r="7.41"/><circle class="cls-10" cx="198.86" cy="127.26" r="7.41"/><line class="cls-3" x1="69.16" y1="154.65" x2="198.86" y2="148.33"/><circle class="cls-9" cx="69.16" cy="154.65" r="7.41"/><circle class="cls-9" cx="198.86" cy="148.33" r="7.41"/><line class="cls-2" x1="69.16" y1="198.91" x2="198.86" y2="188.37"/><circle class="cls-7" cx="69.16" cy="198.91" r="7.41"/><circle class="cls-7" cx="198.86" cy="188.37" r="7.41"/><rect class="cls-8" x="132.78" y="72.93" width="82.34" height="16.91"/><path class="cls-6" d="m138.78,85.27c-.33-.36-.5-.87-.5-1.52v-4.51c0-.66.17-1.16.5-1.52s.81-.54,1.45-.54,1.11.18,1.45.54.5.87.5,1.52v.89h-1.25v-.97c0-.52-.22-.78-.66-.78s-.66.26-.66.78v4.69c0,.51.22.77.66.77s.66-.26.66-.77v-1.28h1.25v1.19c0,.66-.17,1.16-.5,1.52s-.81.54-1.45.54-1.11-.18-1.45-.54Z"/><path class="cls-6" d="m143.64,85.26c-.34-.37-.52-.89-.52-1.56v-4.42c0-.67.17-1.19.52-1.56.34-.37.84-.55,1.49-.55s1.14.18,1.49.55c.34.37.52.89.52,1.56v4.42c0,.67-.17,1.19-.52,1.56-.34.37-.84.55-1.49.55s-1.14-.18-1.49-.55Zm2.17-1.48v-4.58c0-.55-.23-.83-.68-.83s-.68.28-.68.83v4.58c0,.55.23.83.68.83s.68-.28.68-.83Z"/><path class="cls-6" d="m148.26,77.29h1.88l.84,6.01h.02l.84-6.01h1.88v8.4h-1.25v-6.36h-.02l-.96,6.36h-1.1l-.96-6.36h-.02v6.36h-1.15v-8.4Z"/><path class="cls-6" d="m154.96,77.29h1.94c.66,0,1.15.18,1.48.53.33.35.49.87.49,1.55v.83c0,.68-.16,1.2-.49,1.55-.33.35-.82.53-1.48.53h-.62v3.42h-1.32v-8.4Zm1.94,3.78c.22,0,.38-.06.49-.18.11-.12.16-.32.16-.61v-1c0-.29-.05-.49-.16-.61s-.27-.18-.49-.18h-.62v2.58h.62Z"/><path class="cls-6" d="m159.83,77.29h1.32v7.2h2.17v1.2h-3.49v-8.4Z"/><path class="cls-6" d="m164.2,77.29h3.6v1.2h-2.28v2.22h1.81v1.2h-1.81v2.58h2.28v1.2h-3.6v-8.4Z"/><path class="cls-6" d="m169.83,78.49h-1.38v-1.2h4.08v1.2h-1.38v7.2h-1.32v-7.2Z"/><path class="cls-6" d="m173.4,77.29h1.32v8.4h-1.32v-8.4Z"/><path class="cls-6" d="m176.37,85.26c-.34-.37-.52-.89-.52-1.56v-4.42c0-.67.17-1.19.52-1.56.34-.37.84-.55,1.49-.55s1.14.18,1.49.55c.34.37.52.89.52,1.56v4.42c0,.67-.17,1.19-.52,1.56-.34.37-.84.55-1.49.55s-1.14-.18-1.49-.55Zm2.17-1.48v-4.58c0-.55-.23-.83-.68-.83s-.68.28-.68.83v4.58c0,.55.23.83.68.83s.68-.28.68-.83Z"/><path class="cls-6" d="m180.99,77.29h1.66l1.28,5.03h.02v-5.03h1.18v8.4h-1.36l-1.58-6.13h-.02v6.13h-1.18v-8.4Z"/><path class="cls-6" d="m188.51,77.29h1.96c.68,0,1.18.16,1.49.47s.47.8.47,1.46v.52c0,.87-.29,1.42-.86,1.66v.02c.32.1.55.29.68.59.13.3.2.69.2,1.19v1.48c0,.24,0,.43.02.58s.06.29.12.44h-1.34c-.05-.14-.08-.26-.1-.38-.02-.12-.02-.34-.02-.65v-1.54c0-.38-.06-.65-.19-.8-.12-.15-.34-.23-.64-.23h-.46v3.6h-1.32v-8.4Zm1.8,3.6c.26,0,.46-.07.59-.2.13-.14.2-.36.2-.68v-.65c0-.3-.05-.52-.16-.66-.11-.14-.28-.2-.51-.2h-.6v2.4h.48Z"/><path class="cls-6" d="m194.61,77.29h1.79l1.37,8.4h-1.32l-.24-1.67v.02h-1.5l-.24,1.64h-1.22l1.37-8.4Zm1.44,5.62l-.59-4.15h-.02l-.58,4.15h1.19Z"/><path class="cls-6" d="m199.12,78.49h-1.38v-1.2h4.08v1.2h-1.38v7.2h-1.32v-7.2Z"/><path class="cls-6" d="m202.7,77.29h3.6v1.2h-2.28v2.22h1.81v1.2h-1.81v2.58h2.28v1.2h-3.6v-8.4Z"/><path class="cls-6" d="m207.58,85.27c-.33-.36-.49-.89-.49-1.57v-.48h1.25v.58c0,.54.23.82.68.82.22,0,.39-.07.51-.2.12-.13.17-.35.17-.64,0-.35-.08-.66-.24-.93-.16-.27-.46-.59-.89-.97-.54-.48-.92-.91-1.14-1.3-.22-.39-.32-.83-.32-1.31,0-.66.17-1.18.5-1.54.34-.36.82-.55,1.46-.55s1.11.18,1.43.55c.32.36.49.89.49,1.57v.35h-1.25v-.43c0-.29-.06-.5-.17-.63-.11-.13-.28-.2-.49-.2-.44,0-.66.27-.66.8,0,.3.08.59.25.85s.46.58.89.96c.55.48.93.92,1.14,1.31.21.39.31.85.31,1.38,0,.69-.17,1.22-.51,1.58-.34.37-.83.55-1.48.55s-1.12-.18-1.45-.55Z"/><line class="cls-1" x1="124.72" y1="81.38" x2="75.19" y2="81.38"/><line class="cls-1" x1="272.11" y1="81.38" x2="222.58" y2="81.38"/><line class="cls-1" x1="226.36" y1="57.09" x2="328.4" y2="57.09"/><rect class="cls-9" x="82.97" y="35.65" width="45.74" height="18.68"/><path class="cls-9" d="m21.67,15.72h3.24c1.09,0,1.91.29,2.46.88.55.59.82,1.45.82,2.58v1.38c0,1.13-.27,1.99-.82,2.58-.55.59-1.37.88-2.46.88h-1.04v5.7h-2.2v-14Zm3.24,6.3c.36,0,.63-.1.81-.3.18-.2.27-.54.27-1.02v-1.66c0-.48-.09-.82-.27-1.02-.18-.2-.45-.3-.81-.3h-1.04v4.3h1.04Z"/><path class="cls-9" d="m29.99,15.72h3.26c1.13,0,1.96.26,2.48.79.52.53.78,1.34.78,2.43v.86c0,1.45-.48,2.37-1.44,2.76v.04c.53.16.91.49,1.13.98.22.49.33,1.15.33,1.98v2.46c0,.4.01.72.04.97.03.25.09.49.2.73h-2.24c-.08-.23-.13-.44-.16-.64-.03-.2-.04-.56-.04-1.08v-2.56c0-.64-.1-1.09-.31-1.34-.21-.25-.56-.38-1.07-.38h-.76v6h-2.2v-14Zm3,6c.44,0,.77-.11.99-.34.22-.23.33-.61.33-1.14v-1.08c0-.51-.09-.87-.27-1.1-.18-.23-.46-.34-.85-.34h-1v4h.8Z"/><path class="cls-9" d="m38.65,15.72h2.2v14h-2.2v-14Z"/><path class="cls-9" d="m43.09,15.72h3.14l1.4,10.02h.04l1.4-10.02h3.14v14h-2.08v-10.6h-.04l-1.6,10.6h-1.84l-1.6-10.6h-.04v10.6h-1.92v-14Z"/><path class="cls-9" d="m56.15,15.72h2.98l2.28,14h-2.2l-.4-2.78v.04h-2.5l-.4,2.74h-2.04l2.28-14Zm2.4,9.36l-.98-6.92h-.04l-.96,6.92h1.98Z"/><path class="cls-9" d="m63.07,15.72h3.26c1.13,0,1.96.26,2.48.79.52.53.78,1.34.78,2.43v.86c0,1.45-.48,2.37-1.44,2.76v.04c.53.16.91.49,1.13.98.22.49.33,1.15.33,1.98v2.46c0,.4.01.72.04.97.03.25.09.49.2.73h-2.24c-.08-.23-.13-.44-.16-.64-.03-.2-.04-.56-.04-1.08v-2.56c0-.64-.1-1.09-.31-1.34-.21-.25-.56-.38-1.07-.38h-.76v6h-2.2v-14Zm3,6c.44,0,.77-.11.99-.34.22-.23.33-.61.33-1.14v-1.08c0-.51-.09-.87-.27-1.1-.18-.23-.46-.34-.85-.34h-1v4h.8Z"/><path class="cls-9" d="m73.43,23.76l-2.66-8.04h2.34l1.5,5.14h.04l1.5-5.14h2.14l-2.66,8.04v5.96h-2.2v-5.96Z"/><path class="cls-9" d="m85.39,15.72h2.98l2.28,14h-2.2l-.4-2.78v.04h-2.5l-.4,2.74h-2.04l2.28-14Zm2.4,9.36l-.98-6.92h-.04l-.96,6.92h1.98Z"/><path class="cls-9" d="m92.31,15.72h2.76l2.14,8.38h.04v-8.38h1.96v14h-2.26l-2.64-10.22h-.04v10.22h-1.96v-14Z"/><path class="cls-9" d="m101.45,15.72h3.36c1.09,0,1.91.29,2.46.88.55.59.82,1.45.82,2.58v7.08c0,1.13-.27,1.99-.82,2.58-.55.59-1.37.88-2.46.88h-3.36v-14Zm3.32,12c.36,0,.64-.11.83-.32.19-.21.29-.56.29-1.04v-7.28c0-.48-.1-.83-.29-1.04-.19-.21-.47-.32-.83-.32h-1.12v10h1.12Z"/><path class="cls-9" d="m114.41,29.01c-.55-.61-.82-1.48-.82-2.61v-.8h2.08v.96c0,.91.38,1.36,1.14,1.36.37,0,.66-.11.85-.33.19-.22.29-.58.29-1.07,0-.59-.13-1.1-.4-1.55s-.76-.98-1.48-1.61c-.91-.8-1.54-1.52-1.9-2.17-.36-.65-.54-1.38-.54-2.19,0-1.11.28-1.96.84-2.57.56-.61,1.37-.91,2.44-.91s1.85.3,2.39.91c.54.61.81,1.48.81,2.61v.58h-2.08v-.72c0-.48-.09-.83-.28-1.05-.19-.22-.46-.33-.82-.33-.73,0-1.1.45-1.1,1.34,0,.51.14.98.41,1.42s.77.97,1.49,1.6c.92.8,1.55,1.53,1.9,2.18.35.65.52,1.42.52,2.3,0,1.15-.28,2.03-.85,2.64-.57.61-1.39.92-2.47.92s-1.87-.3-2.42-.91Z"/><path class="cls-9" d="m122.01,15.72h6v2h-3.8v3.7h3.02v2h-3.02v4.3h3.8v2h-6v-14Z"/><path class="cls-9" d="m130.56,29.02c-.55-.6-.83-1.45-.83-2.54v-7.52c0-1.09.28-1.94.83-2.54.55-.6,1.36-.9,2.41-.9s1.86.3,2.41.9c.55.6.83,1.45.83,2.54v1.48h-2.08v-1.62c0-.87-.37-1.3-1.1-1.3s-1.1.43-1.1,1.3v7.82c0,.85.37,1.28,1.1,1.28s1.1-.43,1.1-1.28v-2.14h2.08v1.98c0,1.09-.28,1.94-.83,2.54-.55.6-1.36.9-2.41.9s-1.86-.3-2.41-.9Z"/><path class="cls-9" d="m138.87,29c-.57-.61-.86-1.48-.86-2.6v-7.36c0-1.12.29-1.99.86-2.6s1.4-.92,2.48-.92,1.91.31,2.48.92.86,1.48.86,2.6v7.36c0,1.12-.29,1.99-.86,2.6-.57.61-1.4.92-2.48.92s-1.91-.31-2.48-.92Zm3.62-2.46v-7.64c0-.92-.38-1.38-1.14-1.38s-1.14.46-1.14,1.38v7.64c0,.92.38,1.38,1.14,1.38s1.14-.46,1.14-1.38Z"/><path class="cls-9" d="m146.77,15.72h2.76l2.14,8.38h.04v-8.38h1.96v14h-2.26l-2.64-10.22h-.04v10.22h-1.96v-14Z"/><path class="cls-9" d="m155.91,15.72h3.36c1.09,0,1.91.29,2.46.88.55.59.82,1.45.82,2.58v7.08c0,1.13-.27,1.99-.82,2.58-.55.59-1.37.88-2.46.88h-3.36v-14Zm3.32,12c.36,0,.64-.11.83-.32.19-.21.29-.56.29-1.04v-7.28c0-.48-.1-.83-.29-1.04-.19-.21-.47-.32-.83-.32h-1.12v10h1.12Z"/><path class="cls-9" d="m166.29,15.72h2.98l2.28,14h-2.2l-.4-2.78v.04h-2.5l-.4,2.74h-2.04l2.28-14Zm2.4,9.36l-.98-6.92h-.04l-.96,6.92h1.98Z"/><path class="cls-9" d="m173.21,15.72h3.26c1.13,0,1.96.26,2.48.79.52.53.78,1.34.78,2.43v.86c0,1.45-.48,2.37-1.44,2.76v.04c.53.16.91.49,1.13.98.22.49.33,1.15.33,1.98v2.46c0,.4.01.72.04.97.03.25.09.49.2.73h-2.24c-.08-.23-.13-.44-.16-.64-.03-.2-.04-.56-.04-1.08v-2.56c0-.64-.1-1.09-.31-1.34-.21-.25-.56-.38-1.07-.38h-.76v6h-2.2v-14Zm3,6c.44,0,.77-.11.99-.34.22-.23.33-.61.33-1.14v-1.08c0-.51-.09-.87-.27-1.1-.18-.23-.46-.34-.85-.34h-1v4h.8Z"/><path class="cls-9" d="m183.57,23.76l-2.66-8.04h2.34l1.5,5.14h.04l1.5-5.14h2.14l-2.66,8.04v5.96h-2.2v-5.96Z"/><path class="cls-9" d="m194.27,29.01c-.55-.61-.82-1.48-.82-2.61v-.8h2.08v.96c0,.91.38,1.36,1.14,1.36.37,0,.66-.11.85-.33.19-.22.29-.58.29-1.07,0-.59-.13-1.1-.4-1.55s-.76-.98-1.48-1.61c-.91-.8-1.54-1.52-1.9-2.17-.36-.65-.54-1.38-.54-2.19,0-1.11.28-1.96.84-2.57.56-.61,1.37-.91,2.44-.91s1.85.3,2.39.91c.54.61.81,1.48.81,2.61v.58h-2.08v-.72c0-.48-.09-.83-.28-1.05-.19-.22-.46-.33-.82-.33-.73,0-1.1.45-1.1,1.34,0,.51.14.98.41,1.42s.77.97,1.49,1.6c.92.8,1.55,1.53,1.9,2.18.35.65.52,1.42.52,2.3,0,1.15-.28,2.03-.85,2.64-.57.61-1.39.92-2.47.92s-1.87-.3-2.42-.91Z"/><path class="cls-9" d="m202.56,29.02c-.55-.6-.83-1.45-.83-2.54v-7.52c0-1.09.28-1.94.83-2.54.55-.6,1.36-.9,2.41-.9s1.86.3,2.41.9c.55.6.83,1.45.83,2.54v1.48h-2.08v-1.62c0-.87-.37-1.3-1.1-1.3s-1.1.43-1.1,1.3v7.82c0,.85.37,1.28,1.1,1.28s1.1-.43,1.1-1.28v-2.14h2.08v1.98c0,1.09-.28,1.94-.83,2.54-.55.6-1.36.9-2.41.9s-1.86-.3-2.41-.9Z"/><path class="cls-9" d="m210.13,15.72h2.2v5.7h2.36v-5.7h2.2v14h-2.2v-6.3h-2.36v6.3h-2.2v-14Z"/><path class="cls-9" d="m219.83,29c-.57-.61-.86-1.48-.86-2.6v-7.36c0-1.12.29-1.99.86-2.6s1.4-.92,2.48-.92,1.91.31,2.48.92.86,1.48.86,2.6v7.36c0,1.12-.29,1.99-.86,2.6-.57.61-1.4.92-2.48.92s-1.91-.31-2.48-.92Zm3.62-2.46v-7.64c0-.92-.38-1.38-1.14-1.38s-1.14.46-1.14,1.38v7.64c0,.92.38,1.38,1.14,1.38s1.14-.46,1.14-1.38Z"/><path class="cls-9" d="m228.43,29c-.57-.61-.86-1.48-.86-2.6v-7.36c0-1.12.29-1.99.86-2.6s1.4-.92,2.48-.92,1.91.31,2.48.92.86,1.48.86,2.6v7.36c0,1.12-.29,1.99-.86,2.6-.57.61-1.4.92-2.48.92s-1.91-.31-2.48-.92Zm3.62-2.46v-7.64c0-.92-.38-1.38-1.14-1.38s-1.14.46-1.14,1.38v7.64c0,.92.38,1.38,1.14,1.38s1.14-.46,1.14-1.38Z"/><path class="cls-9" d="m236.33,15.72h2.2v12h3.62v2h-5.82v-14Z"/><path class="cls-8" d="m247.69,29.13c-.47-.51-.71-1.23-.71-2.16v-6.39c0-.93.23-1.65.71-2.16.47-.51,1.15-.76,2.05-.76s1.58.25,2.05.76c.47.51.71,1.23.71,2.16v1.26h-1.77v-1.38c0-.74-.31-1.1-.94-1.1s-.93.37-.93,1.1v6.65c0,.73.31,1.09.93,1.09s.94-.36.94-1.09v-1.82h1.77v1.68c0,.93-.24,1.65-.71,2.16-.47.51-1.15.77-2.05.77s-1.58-.25-2.05-.77Z"/><path class="cls-8" d="m254.75,29.11c-.49-.52-.73-1.26-.73-2.21v-6.26c0-.95.24-1.69.73-2.21.49-.52,1.19-.78,2.11-.78s1.62.26,2.11.78c.49.52.73,1.26.73,2.21v6.26c0,.95-.24,1.69-.73,2.21-.49.52-1.19.78-2.11.78s-1.62-.26-2.11-.78Zm3.08-2.09v-6.49c0-.78-.32-1.17-.97-1.17s-.97.39-.97,1.17v6.49c0,.78.32,1.17.97,1.17s.97-.39.97-1.17Z"/><path class="cls-8" d="m261.47,17.82h2.67l1.19,8.52h.03l1.19-8.52h2.67v11.9h-1.77v-9.01h-.03l-1.36,9.01h-1.56l-1.36-9.01h-.03v9.01h-1.63v-11.9Z"/><path class="cls-8" d="m271.13,17.82h2.75c.93,0,1.63.25,2.09.75.46.5.7,1.23.7,2.19v1.17c0,.96-.23,1.69-.7,2.19-.46.5-1.16.75-2.09.75h-.88v4.85h-1.87v-11.9Zm2.75,5.35c.31,0,.54-.08.69-.25.15-.17.23-.46.23-.87v-1.41c0-.41-.08-.7-.23-.87-.15-.17-.38-.26-.69-.26h-.88v3.66h.88Z"/><path class="cls-8" d="m278.2,17.82h1.87v10.2h3.08v1.7h-4.95v-11.9Z"/><path class="cls-8" d="m284.55,17.82h5.1v1.7h-3.23v3.15h2.57v1.7h-2.57v3.65h3.23v1.7h-5.1v-11.9Z"/><path class="cls-8" d="m292.7,19.52h-1.96v-1.7h5.78v1.7h-1.96v10.2h-1.87v-10.2Z"/><path class="cls-8" d="m297.93,17.82h1.87v11.9h-1.87v-11.9Z"/><path class="cls-8" d="m302.3,29.11c-.49-.52-.73-1.26-.73-2.21v-6.26c0-.95.24-1.69.73-2.21.49-.52,1.19-.78,2.11-.78s1.62.26,2.11.78c.49.52.73,1.26.73,2.21v6.26c0,.95-.24,1.69-.73,2.21-.49.52-1.19.78-2.11.78s-1.62-.26-2.11-.78Zm3.08-2.09v-6.49c0-.78-.32-1.17-.97-1.17s-.97.39-.97,1.17v6.49c0,.78.32,1.17.97,1.17s.97-.39.97-1.17Z"/><path class="cls-8" d="m309.02,17.82h2.35l1.82,7.12h.03v-7.12h1.67v11.9h-1.92l-2.24-8.69h-.03v8.69h-1.67v-11.9Z"/><path class="cls-8" d="m21.55,38.82h2.77c.96,0,1.67.22,2.11.67.44.45.66,1.14.66,2.07v.73c0,1.24-.41,2.02-1.22,2.35v.03c.45.14.77.41.96.83.19.42.28.98.28,1.68v2.09c0,.34.01.61.03.82.02.21.08.42.17.62h-1.9c-.07-.19-.11-.37-.14-.54-.02-.17-.03-.48-.03-.92v-2.18c0-.54-.09-.92-.26-1.14-.18-.22-.48-.32-.91-.32h-.65v5.1h-1.87v-11.9Zm2.55,5.1c.37,0,.65-.1.84-.29s.28-.52.28-.97v-.92c0-.43-.08-.74-.23-.94-.15-.19-.39-.29-.72-.29h-.85v3.4h.68Z"/><path class="cls-8" d="m30.36,38.82h2.53l1.94,11.9h-1.87l-.34-2.36v.03h-2.12l-.34,2.33h-1.73l1.94-11.9Zm2.04,7.96l-.83-5.88h-.03l-.82,5.88h1.68Z"/><path class="cls-8" d="m36.92,40.52h-1.96v-1.7h5.78v1.7h-1.96v10.2h-1.87v-10.2Z"/><path class="cls-8" d="m42.15,38.82h5.1v1.7h-3.23v3.15h2.57v1.7h-2.57v3.65h3.23v1.7h-5.1v-11.9Z"/><path class="cls-8" d="m49.24,50.12c-.46-.52-.7-1.25-.7-2.22v-.68h1.77v.82c0,.77.32,1.16.97,1.16.32,0,.56-.09.72-.28.16-.19.25-.49.25-.91,0-.5-.11-.94-.34-1.32-.23-.38-.65-.84-1.26-1.37-.77-.68-1.31-1.29-1.61-1.84-.31-.55-.46-1.17-.46-1.86,0-.94.24-1.67.71-2.18s1.17-.77,2.07-.77,1.57.26,2.03.77.69,1.26.69,2.22v.49h-1.77v-.61c0-.41-.08-.71-.24-.89-.16-.19-.39-.28-.7-.28-.62,0-.94.38-.94,1.14,0,.43.12.83.35,1.21s.65.83,1.27,1.36c.78.68,1.32,1.3,1.61,1.85.29.56.44,1.21.44,1.96,0,.97-.24,1.72-.72,2.24-.48.52-1.18.78-2.1.78s-1.59-.26-2.06-.77Z"/><path class="cls-8" d="m60.38,38.82h2.53l1.94,11.9h-1.87l-.34-2.36v.03h-2.12l-.34,2.33h-1.73l1.94-11.9Zm2.04,7.96l-.83-5.88h-.03l-.82,5.88h1.68Z"/><path class="cls-8" d="m66.26,38.82h2.77c.96,0,1.67.22,2.11.67.44.45.66,1.14.66,2.07v.73c0,1.24-.41,2.02-1.22,2.35v.03c.45.14.77.41.96.83.19.42.28.98.28,1.68v2.09c0,.34.01.61.03.82.02.21.08.42.17.62h-1.9c-.07-.19-.11-.37-.14-.54-.02-.17-.03-.48-.03-.92v-2.18c0-.54-.09-.92-.26-1.14-.18-.22-.48-.32-.91-.32h-.65v5.1h-1.87v-11.9Zm2.55,5.1c.37,0,.65-.1.84-.29s.28-.52.28-.97v-.92c0-.43-.08-.74-.23-.94-.15-.19-.39-.29-.72-.29h-.85v3.4h.68Z"/><path class="cls-8" d="m73.62,38.82h5.1v1.7h-3.23v3.15h2.57v1.7h-2.57v3.65h3.23v1.7h-5.1v-11.9Z"/><path class="cls-6" d="m86.76,38.82h2.77c.96,0,1.67.22,2.11.67.44.45.66,1.14.66,2.07v.73c0,1.24-.41,2.02-1.22,2.35v.03c.45.14.77.41.96.83.19.42.28.98.28,1.68v2.09c0,.34.01.61.03.82.02.21.08.42.17.62h-1.9c-.07-.19-.11-.37-.14-.54-.02-.17-.03-.48-.03-.92v-2.18c0-.54-.09-.92-.26-1.14-.18-.22-.48-.32-.91-.32h-.65v5.1h-1.87v-11.9Zm2.55,5.1c.37,0,.65-.1.84-.29s.28-.52.28-.97v-.92c0-.43-.08-.74-.23-.94-.15-.19-.39-.29-.72-.29h-.85v3.4h.68Z"/><path class="cls-6" d="m94.12,38.82h1.87v11.9h-1.87v-11.9Z"/><path class="cls-6" d="m98.27,50.12c-.46-.52-.7-1.25-.7-2.22v-.68h1.77v.82c0,.77.32,1.16.97,1.16.32,0,.56-.09.72-.28.16-.19.25-.49.25-.91,0-.5-.11-.94-.34-1.32-.23-.38-.65-.84-1.26-1.37-.77-.68-1.31-1.29-1.61-1.84-.31-.55-.46-1.17-.46-1.86,0-.94.24-1.67.71-2.18s1.17-.77,2.07-.77,1.57.26,2.03.77.69,1.26.69,2.22v.49h-1.77v-.61c0-.41-.08-.71-.24-.89-.16-.19-.39-.28-.7-.28-.62,0-.94.38-.94,1.14,0,.43.12.83.35,1.21s.65.83,1.27,1.36c.78.68,1.32,1.3,1.61,1.85.29.56.44,1.21.44,1.96,0,.97-.24,1.72-.72,2.24-.48.52-1.18.78-2.1.78s-1.59-.26-2.06-.77Z"/><path class="cls-6" d="m104.73,38.82h1.87v11.9h-1.87v-11.9Z"/><path class="cls-6" d="m108.5,38.82h2.35l1.82,7.12h.03v-7.12h1.67v11.9h-1.92l-2.24-8.69h-.03v8.69h-1.67v-11.9Z"/><path class="cls-6" d="m116.85,50.12c-.48-.52-.71-1.25-.71-2.22v-6.26c0-.96.24-1.7.71-2.22s1.17-.77,2.07-.77,1.6.26,2.07.77.71,1.26.71,2.22v1.02h-1.77v-1.14c0-.78-.32-1.17-.97-1.17s-.97.39-.97,1.17v6.51c0,.77.32,1.16.97,1.16s.97-.39.97-1.16v-2.33h-.94v-1.7h2.7v3.89c0,.96-.24,1.7-.71,2.22s-1.17.77-2.07.77-1.6-.26-2.07-.77Z"/><path class="cls-6" d="m124.04,50.72h-.61v-1.8h1.8v1.61l-.94,2.23h-.87l.61-2.04Z"/><path class="cls-8" d="m133.59,38.82h2.82c.96,0,1.67.22,2.11.67s.66,1.14.66,2.07v.48c0,.61-.1,1.11-.3,1.5-.2.39-.5.66-.91.83v.03c.93.32,1.39,1.15,1.39,2.48v1.02c0,.92-.24,1.62-.72,2.1s-1.19.72-2.12.72h-2.94v-11.9Zm2.6,4.84c.37,0,.65-.1.84-.29.19-.19.28-.52.28-.97v-.66c0-.43-.08-.74-.23-.94-.15-.19-.39-.29-.72-.29h-.9v3.15h.73Zm.34,5.35c.33,0,.57-.09.73-.26.16-.18.24-.48.24-.91v-1.04c0-.54-.09-.92-.28-1.13-.19-.21-.5-.31-.93-.31h-.83v3.65h1.07Z"/><path class="cls-8" d="m141.62,50.12c-.48-.52-.71-1.25-.71-2.22v-9.08h1.87v9.21c0,.41.08.7.25.88.16.18.4.27.71.27s.54-.09.71-.27c.16-.18.25-.48.25-.88v-9.21h1.8v9.08c0,.96-.24,1.7-.71,2.22-.48.52-1.17.77-2.07.77s-1.6-.26-2.07-.77Z"/><path class="cls-8" d="m149.78,40.52h-1.96v-1.7h5.78v1.7h-1.96v10.2h-1.87v-10.2Z"/><path class="cls-8" d="m159.71,40.52h-1.96v-1.7h5.78v1.7h-1.96v10.2h-1.87v-10.2Z"/><path class="cls-8" d="m164.94,38.82h1.87v4.84h2.01v-4.84h1.87v11.9h-1.87v-5.35h-2.01v5.35h-1.87v-11.9Z"/><path class="cls-8" d="m172.59,38.82h5.1v1.7h-3.23v3.15h2.57v1.7h-2.57v3.65h3.23v1.7h-5.1v-11.9Z"/><path class="cls-8" d="m182.5,38.82h2.75c.93,0,1.63.25,2.09.75.46.5.7,1.23.7,2.19v1.17c0,.96-.23,1.69-.7,2.19-.46.5-1.16.75-2.09.75h-.88v4.85h-1.87v-11.9Zm2.75,5.35c.31,0,.54-.08.69-.25.15-.17.23-.46.23-.87v-1.41c0-.41-.08-.7-.23-.87-.15-.17-.38-.26-.69-.26h-.88v3.66h.88Z"/><path class="cls-8" d="m190.42,38.82h2.53l1.94,11.9h-1.87l-.34-2.36v.03h-2.12l-.34,2.33h-1.73l1.94-11.9Zm2.04,7.96l-.83-5.88h-.03l-.82,5.88h1.68Z"/><path class="cls-8" d="m196.86,50.13c-.47-.51-.71-1.23-.71-2.16v-6.39c0-.93.23-1.65.71-2.16.47-.51,1.15-.76,2.05-.76s1.58.25,2.05.76c.47.51.71,1.23.71,2.16v1.26h-1.77v-1.38c0-.74-.31-1.1-.94-1.1s-.93.37-.93,1.1v6.65c0,.73.31,1.09.93,1.09s.94-.36.94-1.09v-1.82h1.77v1.68c0,.93-.24,1.65-.71,2.16-.47.51-1.15.77-2.05.77s-1.58-.25-2.05-.77Z"/><path class="cls-8" d="m203.29,38.82h5.1v1.7h-3.23v3.15h2.57v1.7h-2.57v3.65h3.23v1.7h-5.1v-11.9Z"/><path class="cls-8" d="m213.2,38.82h1.87v11.9h-1.87v-11.9Z"/><path class="cls-8" d="m217.35,50.12c-.46-.52-.7-1.25-.7-2.22v-.68h1.77v.82c0,.77.32,1.16.97,1.16.32,0,.56-.09.72-.28.16-.19.25-.49.25-.91,0-.5-.11-.94-.34-1.32-.23-.38-.65-.84-1.26-1.37-.77-.68-1.31-1.29-1.61-1.84-.31-.55-.46-1.17-.46-1.86,0-.94.24-1.67.71-2.18s1.17-.77,2.07-.77,1.57.26,2.03.77.69,1.26.69,2.22v.49h-1.77v-.61c0-.41-.08-.71-.24-.89-.16-.19-.39-.28-.7-.28-.62,0-.94.38-.94,1.14,0,.43.12.83.35,1.21s.65.83,1.27,1.36c.78.68,1.32,1.3,1.61,1.85.29.56.44,1.21.44,1.96,0,.97-.24,1.72-.72,2.24-.48.52-1.18.78-2.1.78s-1.59-.26-2.06-.77Z"/><path class="cls-8" d="m227.41,50.12c-.46-.52-.7-1.25-.7-2.22v-.68h1.77v.82c0,.77.32,1.16.97,1.16.32,0,.56-.09.72-.28.16-.19.25-.49.25-.91,0-.5-.11-.94-.34-1.32-.23-.38-.65-.84-1.26-1.37-.77-.68-1.31-1.29-1.61-1.84-.31-.55-.46-1.17-.46-1.86,0-.94.24-1.67.71-2.18s1.17-.77,2.07-.77,1.57.26,2.03.77.69,1.26.69,2.22v.49h-1.77v-.61c0-.41-.08-.71-.24-.89-.16-.19-.39-.28-.7-.28-.62,0-.94.38-.94,1.14,0,.43.12.83.35,1.21s.65.83,1.27,1.36c.78.68,1.32,1.3,1.61,1.85.29.56.44,1.21.44,1.96,0,.97-.24,1.72-.72,2.24-.48.52-1.18.78-2.1.78s-1.59-.26-2.06-.77Z"/><path class="cls-8" d="m233.87,38.82h1.87v10.2h3.08v1.7h-4.95v-11.9Z"/><path class="cls-8" d="m240.76,50.11c-.49-.52-.73-1.26-.73-2.21v-6.26c0-.95.24-1.69.73-2.21.49-.52,1.19-.78,2.11-.78s1.62.26,2.11.78c.49.52.73,1.26.73,2.21v6.26c0,.95-.24,1.69-.73,2.21-.49.52-1.19.78-2.11.78s-1.62-.26-2.11-.78Zm3.08-2.09v-6.49c0-.78-.32-1.17-.97-1.17s-.97.39-.97,1.17v6.49c0,.78.32,1.17.97,1.17s.97-.39.97-1.17Z"/><path class="cls-8" d="m247.03,38.82h1.8l.83,9.15h.03l.88-9.15h2.04l.88,9.15h.03l.83-9.15h1.61l-1.21,11.9h-2.33l-.85-8.02h-.03l-.85,8.02h-2.48l-1.21-11.9Z"/><path class="cls-8" d="m262.13,38.82h2.53l1.94,11.9h-1.87l-.34-2.36v.03h-2.12l-.34,2.33h-1.73l1.94-11.9Zm2.04,7.96l-.83-5.88h-.03l-.82,5.88h1.68Z"/><path class="cls-8" d="m268.01,38.82h2.35l1.82,7.12h.03v-7.12h1.67v11.9h-1.92l-2.24-8.69h-.03v8.69h-1.67v-11.9Z"/><path class="cls-8" d="m275.78,38.82h2.86c.93,0,1.63.25,2.09.75.46.5.7,1.23.7,2.19v6.02c0,.96-.23,1.69-.7,2.19-.46.5-1.16.75-2.09.75h-2.86v-11.9Zm2.82,10.2c.31,0,.54-.09.71-.27.16-.18.25-.48.25-.88v-6.19c0-.41-.08-.7-.25-.88-.16-.18-.4-.27-.71-.27h-.95v8.5h.95Z"/><path class="cls-8" d="m287.07,50.12c-.48-.52-.71-1.25-.71-2.22v-9.08h1.87v9.21c0,.41.08.7.25.88.16.18.4.27.71.27s.54-.09.71-.27c.16-.18.25-.48.25-.88v-9.21h1.8v9.08c0,.96-.24,1.7-.71,2.22-.48.52-1.17.77-2.07.77s-1.6-.26-2.07-.77Z"/><path class="cls-8" d="m293.76,38.82h2.35l1.82,7.12h.03v-7.12h1.67v11.9h-1.92l-2.24-8.69h-.03v8.69h-1.67v-11.9Z"/><path class="cls-8" d="m301.53,38.82h5.1v1.7h-3.23v3.15h2.57v1.7h-2.57v3.65h3.23v1.7h-5.1v-11.9Z"/><path class="cls-8" d="m307.72,38.82h1.89l1.22,9.23h.03l1.22-9.23h1.72l-1.8,11.9h-2.48l-1.8-11.9Z"/><path class="cls-8" d="m315.22,38.82h5.1v1.7h-3.23v3.15h2.57v1.7h-2.57v3.65h3.23v1.7h-5.1v-11.9Z"/><path class="cls-8" d="m321.9,38.82h2.35l1.82,7.12h.03v-7.12h1.67v11.9h-1.92l-2.24-8.69h-.03v8.69h-1.67v-11.9Z"/><path class="cls-8" d="m40.36,209.4c-.28-.3-.42-.74-.42-1.31v-.55h1.04v.63c0,.45.19.68.57.68s.57-.23.57-.68v-1.57c0-.46-.19-.69-.57-.69s-.57.23-.57.69v.06h-1.04l.2-3.91h2.9v1h-1.92l-.09,1.67h.02c.21-.34.52-.51.95-.51.4,0,.7.14.91.41.21.27.31.67.31,1.19v1.58c0,.57-.14,1-.42,1.31-.28.3-.69.46-1.22.46s-.94-.15-1.22-.46Z"/><path class="cls-8" d="m44.52,209.39c-.29-.31-.43-.74-.43-1.3v-3.68c0-.56.14-.99.43-1.3s.7-.46,1.24-.46.95.15,1.24.46c.29.31.43.74.43,1.3v3.68c0,.56-.14.99-.43,1.3-.29.31-.7.46-1.24.46s-.95-.15-1.24-.46Zm1.81-1.23v-3.82c0-.46-.19-.69-.57-.69s-.57.23-.57.69v3.82c0,.46.19.69.57.69s.57-.23.57-.69Z"/><path class="cls-8" d="m40.35,187.8c-.29-.31-.43-.74-.43-1.3v-3.62c0-1.21.56-1.82,1.68-1.82.53,0,.94.15,1.22.46.28.3.42.74.42,1.31v.13h-1.04v-.2c0-.46-.19-.69-.57-.69-.21,0-.36.06-.46.19-.1.13-.15.35-.15.67v1.34h.02c.19-.41.53-.61,1-.61.4,0,.7.14.91.41.21.27.31.67.31,1.19v1.25c0,.56-.14.99-.43,1.3s-.7.46-1.24.46-.95-.15-1.24-.46Zm1.81-1.22v-1.24c0-.46-.19-.69-.57-.69s-.57.23-.57.69v1.24c0,.45.19.68.57.68s.57-.23.57-.68Z"/><path class="cls-8" d="m44.52,187.8c-.29-.31-.43-.74-.43-1.3v-3.68c0-.56.14-.99.43-1.3s.7-.46,1.24-.46.95.15,1.24.46c.29.31.43.74.43,1.3v3.68c0,.56-.14.99-.43,1.3-.29.31-.7.46-1.24.46s-.95-.15-1.24-.46Zm1.81-1.23v-3.82c0-.46-.19-.69-.57-.69s-.57.23-.57.69v3.82c0,.46.19.69.57.69s.57-.23.57-.69Z"/><path class="cls-8" d="m40.3,124.75c-.28-.3-.42-.74-.42-1.31v-.13h1.04v.2c0,.46.19.69.57.69.21,0,.36-.06.46-.19.1-.13.15-.35.15-.67v-1.34h-.02c-.19.41-.53.61-1,.61-.4,0-.7-.14-.91-.41s-.31-.67-.31-1.19v-1.25c0-.56.14-.99.43-1.3s.7-.46,1.24-.46.95.15,1.24.46.43.74.43,1.3v3.62c0,1.21-.56,1.82-1.68,1.82-.53,0-.94-.15-1.22-.46Zm1.8-3.83v-1.24c0-.45-.19-.68-.57-.68s-.57.23-.57.68v1.24c0,.46.19.69.57.69s.57-.23.57-.69Z"/><path class="cls-8" d="m44.52,124.75c-.29-.31-.43-.74-.43-1.3v-3.68c0-.56.14-.99.43-1.3s.7-.46,1.24-.46.95.15,1.24.46c.29.31.43.74.43,1.3v3.68c0,.56-.14.99-.43,1.3-.29.31-.7.46-1.24.46s-.95-.15-1.24-.46Zm1.81-1.23v-3.82c0-.46-.19-.69-.57-.69s-.57.23-.57.69v3.82c0,.46.19.69.57.69s.57-.23.57-.69Z"/><path class="cls-8" d="m37.31,98.69h-1.15v-.78c.31,0,.57-.03.76-.08.19-.05.34-.14.46-.26.11-.12.21-.3.3-.54h.74v7h-1.1v-5.34Z"/><path class="cls-8" d="m40.32,103.67c-.29-.31-.43-.74-.43-1.3v-3.68c0-.56.14-.99.43-1.3s.7-.46,1.24-.46.95.15,1.24.46c.29.31.43.74.43,1.3v3.68c0,.56-.14.99-.43,1.3-.29.31-.7.46-1.24.46s-.95-.15-1.24-.46Zm1.81-1.23v-3.82c0-.46-.19-.69-.57-.69s-.57.23-.57.69v3.82c0,.46.19.69.57.69s.57-.23.57-.69Z"/><path class="cls-8" d="m44.52,103.67c-.29-.31-.43-.74-.43-1.3v-3.68c0-.56.14-.99.43-1.3s.7-.46,1.24-.46.95.15,1.24.46c.29.31.43.74.43,1.3v3.68c0,.56-.14.99-.43,1.3-.29.31-.7.46-1.24.46s-.95-.15-1.24-.46Zm1.81-1.23v-3.82c0-.46-.19-.69-.57-.69s-.57.23-.57.69v3.82c0,.46.19.69.57.69s.57-.23.57-.69Z"/><path class="cls-8" d="m40.29,146.01c-.3-.3-.45-.72-.45-1.28v-.62c0-.35.06-.64.17-.88.11-.24.3-.42.55-.56v-.02c-.23-.13-.4-.3-.52-.52-.11-.22-.17-.51-.17-.85v-.29c0-.56.15-.99.44-1.28.29-.3.71-.45,1.25-.45s.96.15,1.25.45c.29.3.44.72.44,1.28v.29c0,.67-.23,1.13-.68,1.38v.02c.25.13.44.32.55.56.11.24.17.53.17.88v.62c0,.56-.15.99-.45,1.28-.3.3-.72.45-1.27.45s-.98-.15-1.27-.45Zm1.9-1.34v-.67c0-.53-.21-.79-.62-.79s-.62.26-.62.79v.67c0,.53.21.79.62.79s.62-.26.62-.79Zm-.04-3.16v-.55c0-.47-.19-.7-.58-.7s-.58.23-.58.7v.55c0,.47.19.7.58.7s.58-.23.58-.7Z"/><path class="cls-8" d="m44.52,145.99c-.29-.31-.43-.74-.43-1.3v-3.68c0-.56.14-.99.43-1.3s.7-.46,1.24-.46.95.15,1.24.46c.29.31.43.74.43,1.3v3.68c0,.56-.14.99-.43,1.3-.29.31-.7.46-1.24.46s-.95-.15-1.24-.46Zm1.81-1.23v-3.82c0-.46-.19-.69-.57-.69s-.57.23-.57.69v3.82c0,.46.19.69.57.69s.57-.23.57-.69Z"/><path class="cls-8" d="m42.12,161.26h-2.22v-1h3.3v.96l-1.72,6.04h-1.12l1.76-6Z"/><path class="cls-8" d="m44.52,166.9c-.29-.31-.43-.74-.43-1.3v-3.68c0-.56.14-.99.43-1.3s.7-.46,1.24-.46.95.15,1.24.46c.29.31.43.74.43,1.3v3.68c0,.56-.14.99-.43,1.3-.29.31-.7.46-1.24.46s-.95-.15-1.24-.46Zm1.81-1.23v-3.82c0-.46-.19-.69-.57-.69s-.57.23-.57.69v3.82c0,.46.19.69.57.69s.57-.23.57-.69Z"/><path class="cls-6" d="m64.46,134.32c-.24-.24-.36-.58-.36-1.03v-.5c0-.28.04-.51.14-.7s.24-.34.44-.44v-.02c-.19-.1-.32-.24-.41-.42-.09-.18-.13-.41-.13-.68v-.23c0-.45.12-.79.35-1.03.23-.24.56-.36,1-.36s.76.12,1,.36c.23.24.35.58.35,1.03v.23c0,.53-.18.9-.54,1.1v.02c.2.11.35.25.44.44.09.19.14.42.14.7v.5c0,.45-.12.79-.36,1.03s-.58.36-1.02.36-.78-.12-1.02-.36Zm1.52-1.08v-.54c0-.42-.17-.63-.5-.63s-.5.21-.5.63v.54c0,.42.17.63.5.63s.5-.21.5-.63Zm-.03-2.53v-.44c0-.37-.15-.56-.46-.56s-.46.19-.46.56v.44c0,.37.15.56.46.56s.46-.19.46-.56Z"/><path class="cls-6" d="m67.88,134.31c-.22-.24-.34-.59-.34-1.04v-.44h.83v.5c0,.36.15.54.46.54s.46-.18.46-.54v-1.26c0-.37-.15-.55-.46-.55s-.46.18-.46.55v.05h-.83l.16-3.13h2.32v.8h-1.54l-.07,1.34h.02c.17-.27.42-.41.76-.41.32,0,.56.11.73.33.17.22.25.54.25.95v1.26c0,.45-.11.8-.34,1.04-.22.24-.55.36-.98.36s-.75-.12-.98-.36Z"/><path class="cls-6" d="m71.09,131.88c-.14-.15-.22-.38-.22-.66v-1.4c0-.29.07-.51.22-.66.14-.15.35-.23.63-.23s.49.08.63.23c.14.15.22.38.22.66v1.4c0,.29-.07.51-.22.66-.14.15-.35.23-.63.23s-.49-.08-.63-.23Zm.92-.62v-1.48c0-.23-.1-.35-.29-.35s-.29.12-.29.35v1.48c0,.23.1.35.29.35s.29-.12.29-.35Zm1.74-2.26h.56l-2.17,5.6h-.56l2.17-5.6Zm-.21,5.45c-.14-.15-.22-.38-.22-.66v-1.4c0-.29.07-.51.22-.66s.35-.23.63-.23.49.08.63.23c.14.15.22.38.22.66v1.4c0,.29-.07.51-.22.66-.14.15-.35.23-.63.23s-.49-.08-.63-.23Zm.92-.62v-1.48c0-.23-.1-.35-.29-.35s-.29.12-.29.35v1.48c0,.23.1.35.29.35s.29-.12.29-.35Z"/><path class="cls-6" d="m194.57,130.19c-.24-.24-.36-.58-.36-1.03v-.5c0-.28.04-.51.14-.7s.24-.34.44-.44v-.02c-.19-.1-.32-.24-.41-.42-.09-.18-.13-.41-.13-.68v-.23c0-.45.12-.79.35-1.03.23-.24.56-.36,1-.36s.76.12,1,.36c.23.24.35.58.35,1.03v.23c0,.53-.18.9-.54,1.1v.02c.2.11.35.25.44.44.09.19.14.42.14.7v.5c0,.45-.12.79-.36,1.03s-.58.36-1.02.36-.78-.12-1.02-.36Zm1.52-1.08v-.54c0-.42-.17-.63-.5-.63s-.5.21-.5.63v.54c0,.42.17.63.5.63s.5-.21.5-.63Zm-.03-2.53v-.44c0-.37-.15-.56-.46-.56s-.46.19-.46.56v.44c0,.37.15.56.46.56s.46-.19.46-.56Z"/><path class="cls-6" d="m199.4,125.67h-1.78v-.8h2.64v.77l-1.38,4.83h-.9l1.41-4.8Z"/><path class="cls-6" d="m201.21,127.75c-.14-.15-.22-.38-.22-.66v-1.4c0-.29.07-.51.22-.66.14-.15.35-.23.63-.23s.49.08.63.23c.14.15.22.38.22.66v1.4c0,.29-.07.51-.22.66-.14.15-.35.23-.63.23s-.49-.08-.63-.23Zm.92-.62v-1.48c0-.23-.1-.35-.29-.35s-.29.12-.29.35v1.48c0,.23.1.35.29.35s.29-.12.29-.35Zm1.74-2.26h.56l-2.17,5.6h-.56l2.17-5.6Zm-.21,5.45c-.14-.15-.22-.38-.22-.66v-1.4c0-.29.07-.51.22-.66s.35-.23.63-.23.49.08.63.23c.14.15.22.38.22.66v1.4c0,.29-.07.51-.22.66-.14.15-.35.23-.63.23s-.49-.08-.63-.23Zm.92-.62v-1.48c0-.23-.1-.35-.29-.35s-.29.12-.29.35v1.48c0,.23.1.35.29.35s.29-.12.29-.35Z"/><path class="cls-6" d="m196.04,146.43h-1.78v-.8h2.64v.77l-1.38,4.83h-.9l1.41-4.8Z"/><path class="cls-6" d="m199.4,146.43h-1.78v-.8h2.64v.77l-1.38,4.83h-.9l1.41-4.8Z"/><path class="cls-6" d="m201.21,148.51c-.14-.15-.22-.38-.22-.66v-1.4c0-.29.07-.51.22-.66.14-.15.35-.23.63-.23s.49.08.63.23c.14.15.22.38.22.66v1.4c0,.29-.07.51-.22.66-.14.15-.35.23-.63.23s-.49-.08-.63-.23Zm.92-.62v-1.48c0-.23-.1-.35-.29-.35s-.29.12-.29.35v1.48c0,.23.1.35.29.35s.29-.12.29-.35Zm1.74-2.26h.56l-2.17,5.6h-.56l2.17-5.6Zm-.21,5.45c-.14-.15-.22-.38-.22-.66v-1.4c0-.29.07-.51.22-.66s.35-.23.63-.23.49.08.63.23c.14.15.22.38.22.66v1.4c0,.29-.07.51-.22.66-.14.15-.35.23-.63.23s-.49-.08-.63-.23Zm.92-.62v-1.48c0-.23-.1-.35-.29-.35s-.29.12-.29.35v1.48c0,.23.1.35.29.35s.29-.12.29-.35Z"/><path class="cls-6" d="m194.63,191.07c-.22-.24-.34-.59-.34-1.04v-.44h.83v.5c0,.36.15.54.46.54s.46-.18.46-.54v-1.26c0-.37-.15-.55-.46-.55s-.46.18-.46.55v.05h-.83l.16-3.13h2.32v.8h-1.54l-.07,1.34h.02c.17-.27.42-.41.76-.41.32,0,.56.11.73.33.17.22.25.54.25.95v1.26c0,.45-.11.8-.34,1.04-.22.24-.55.36-.98.36s-.75-.12-.98-.36Z"/><path class="cls-6" d="m197.93,191.08c-.24-.24-.36-.58-.36-1.03v-.5c0-.28.04-.51.14-.7s.24-.34.44-.44v-.02c-.19-.1-.32-.24-.41-.42-.09-.18-.13-.41-.13-.68v-.23c0-.45.12-.79.35-1.03.23-.24.56-.36,1-.36s.76.12,1,.36c.23.24.35.58.35,1.03v.23c0,.53-.18.9-.54,1.1v.02c.2.11.35.25.44.44.09.19.14.42.14.7v.5c0,.45-.12.79-.36,1.03s-.58.36-1.02.36-.78-.12-1.02-.36Zm1.52-1.08v-.54c0-.42-.17-.63-.5-.63s-.5.21-.5.63v.54c0,.42.17.63.5.63s.5-.21.5-.63Zm-.03-2.53v-.44c0-.37-.15-.56-.46-.56s-.46.19-.46.56v.44c0,.37.15.56.46.56s.46-.19.46-.56Z"/><path class="cls-6" d="m201.21,188.64c-.14-.15-.22-.38-.22-.66v-1.4c0-.29.07-.51.22-.66.14-.15.35-.23.63-.23s.49.08.63.23c.14.15.22.38.22.66v1.4c0,.29-.07.51-.22.66-.14.15-.35.23-.63.23s-.49-.08-.63-.23Zm.92-.62v-1.48c0-.23-.1-.35-.29-.35s-.29.12-.29.35v1.48c0,.23.1.35.29.35s.29-.12.29-.35Zm1.74-2.26h.56l-2.17,5.6h-.56l2.17-5.6Zm-.21,5.45c-.14-.15-.22-.38-.22-.66v-1.4c0-.29.07-.51.22-.66s.35-.23.63-.23.49.08.63.23c.14.15.22.38.22.66v1.4c0,.29-.07.51-.22.66-.14.15-.35.23-.63.23s-.49-.08-.63-.23Zm.92-.62v-1.48c0-.23-.1-.35-.29-.35s-.29.12-.29.35v1.48c0,.23.1.35.29.35s.29-.12.29-.35Z"/><path class="cls-6" d="m65.92,152.79h-1.78v-.8h2.64v.77l-1.38,4.83h-.9l1.41-4.8Z"/><path class="cls-6" d="m69.04,156.57h-1.68v-.8l1.6-3.78h.96v3.78h.42v.8h-.42v1.02h-.88v-1.02Zm0-.8v-2.18h-.02l-.86,2.18h.88Z"/><path class="cls-6" d="m71.09,154.87c-.14-.15-.22-.38-.22-.66v-1.4c0-.29.07-.51.22-.66.14-.15.35-.23.63-.23s.49.08.63.23c.14.15.22.38.22.66v1.4c0,.29-.07.51-.22.66-.14.15-.35.23-.63.23s-.49-.08-.63-.23Zm.92-.62v-1.48c0-.23-.1-.35-.29-.35s-.29.12-.29.35v1.48c0,.23.1.35.29.35s.29-.12.29-.35Zm1.74-2.26h.56l-2.17,5.6h-.56l2.17-5.6Zm-.21,5.45c-.14-.15-.22-.38-.22-.66v-1.4c0-.29.07-.51.22-.66s.35-.23.63-.23.49.08.63.23c.14.15.22.38.22.66v1.4c0,.29-.07.51-.22.66-.14.15-.35.23-.63.23s-.49-.08-.63-.23Zm.92-.62v-1.48c0-.23-.1-.35-.29-.35s-.29.12-.29.35v1.48c0,.23.1.35.29.35s.29-.12.29-.35Z"/><path class="cls-6" d="m64.52,201.69c-.22-.24-.34-.59-.34-1.04v-.44h.83v.5c0,.36.15.54.46.54s.46-.18.46-.54v-1.26c0-.37-.15-.55-.46-.55s-.46.18-.46.55v.05h-.83l.16-3.13h2.32v.8h-1.54l-.07,1.34h.02c.17-.27.42-.41.76-.41.32,0,.56.11.73.33.17.22.25.54.25.95v1.26c0,.45-.11.8-.34,1.04-.22.24-.55.36-.98.36s-.75-.12-.98-.36Z"/><path class="cls-6" d="m67.83,201.7c-.22-.24-.33-.58-.33-1.03v-.46h.83v.5c0,.37.15.55.46.55.15,0,.26-.05.34-.14.08-.09.12-.26.12-.49v-.46c0-.26-.05-.44-.14-.55-.09-.11-.24-.16-.44-.16h-.3v-.8h.32c.18,0,.31-.05.4-.14.09-.09.13-.24.13-.46v-.41c0-.19-.04-.33-.12-.42-.08-.09-.19-.14-.32-.14-.28,0-.42.17-.42.52v.37h-.83v-.3c0-.45.11-.79.33-1.03.22-.24.54-.36.96-.36s.74.12.96.36c.22.24.33.58.33,1.03v.2c0,.3-.05.55-.15.73-.1.18-.26.32-.47.4v.02c.23.09.39.22.5.42.1.19.15.44.15.74v.5c0,.45-.11.79-.33,1.03-.22.24-.55.36-.98.36s-.76-.12-.98-.36Z"/><path class="cls-6" d="m71.09,199.26c-.14-.15-.22-.38-.22-.66v-1.4c0-.29.07-.51.22-.66.14-.15.35-.23.63-.23s.49.08.63.23c.14.15.22.38.22.66v1.4c0,.29-.07.51-.22.66-.14.15-.35.23-.63.23s-.49-.08-.63-.23Zm.92-.62v-1.48c0-.23-.1-.35-.29-.35s-.29.12-.29.35v1.48c0,.23.1.35.29.35s.29-.12.29-.35Zm1.74-2.26h.56l-2.17,5.6h-.56l2.17-5.6Zm-.21,5.45c-.14-.15-.22-.38-.22-.66v-1.4c0-.29.07-.51.22-.66s.35-.23.63-.23.49.08.63.23c.14.15.22.38.22.66v1.4c0,.29-.07.51-.22.66-.14.15-.35.23-.63.23s-.49-.08-.63-.23Zm.92-.62v-1.48c0-.23-.1-.35-.29-.35s-.29.12-.29.35v1.48c0,.23.1.35.29.35s.29-.12.29-.35Z"/><path class="cls-6" d="m62.19,180.05c-.27-.27-.4-.65-.4-1.16v-.56c0-.31.05-.57.15-.79.1-.21.27-.38.5-.5v-.02c-.21-.11-.36-.27-.46-.47-.1-.2-.15-.46-.15-.77v-.26c0-.5.13-.89.39-1.16.26-.27.63-.4,1.12-.4s.86.13,1.12.4c.26.27.39.65.39,1.16v.26c0,.6-.2,1.01-.61,1.24v.02c.23.12.39.29.49.5.1.21.15.48.15.79v.56c0,.5-.13.89-.4,1.16s-.65.4-1.15.4-.88-.13-1.15-.4Zm1.71-1.21v-.6c0-.47-.19-.71-.56-.71s-.56.24-.56.71v.6c0,.47.19.71.56.71s.56-.24.56-.71Zm-.04-2.84v-.49c0-.42-.17-.63-.52-.63s-.52.21-.52.63v.49c0,.42.17.63.52.63s.52-.21.52-.63Z"/><path class="cls-6" d="m66.04,180.05c-.25-.27-.38-.66-.38-1.17v-.49h.94v.57c0,.41.17.61.51.61s.51-.2.51-.61v-1.41c0-.41-.17-.62-.51-.62s-.51.21-.51.62v.05h-.94l.18-3.52h2.61v.9h-1.73l-.08,1.5h.02c.19-.31.47-.46.85-.46.36,0,.63.12.82.37.19.25.28.6.28,1.07v1.42c0,.51-.13.9-.38,1.17s-.62.41-1.1.41-.85-.14-1.1-.41Z"/><path class="cls-6" d="m69.66,177.3c-.16-.17-.24-.42-.24-.75v-1.57c0-.32.08-.57.24-.75s.4-.26.71-.26.55.09.71.26.24.42.24.75v1.57c0,.32-.08.57-.24.75-.16.17-.4.26-.71.26s-.55-.09-.71-.26Zm1.03-.7v-1.66c0-.26-.11-.4-.32-.4s-.32.13-.32.4v1.66c0,.26.11.4.32.4s.32-.13.32-.4Zm1.96-2.54h.63l-2.44,6.3h-.63l2.44-6.3Zm-.23,6.13c-.16-.17-.24-.42-.24-.75v-1.58c0-.32.08-.57.24-.75.16-.17.4-.26.71-.26s.55.09.71.26c.16.17.24.42.24.75v1.58c0,.32-.08.57-.24.75s-.4.26-.71.26-.55-.09-.71-.26Zm1.04-.7v-1.67c0-.26-.11-.4-.32-.4s-.32.13-.32.4v1.67c0,.26.11.4.32.4s.32-.13.32-.4Z"/></g></svg>