<?xml version="1.0" encoding="UTF-8"?>
<svg id="Layer_2" data-name="Layer 2" xmlns="http://www.w3.org/2000/svg" xmlns:xlink="http://www.w3.org/1999/xlink" viewBox="0 0 421.06 234.33">
  <defs>
    <style>
      .cls-1 {
        stroke: #bdbcbb;
        stroke-miterlimit: 10;
        stroke-width: .7px;
      }

      .cls-1, .cls-2, .cls-3, .cls-4, .cls-5 {
        fill: none;
      }

      .cls-6 {
        fill: #fff;
      }

      .cls-2 {
        stroke-dasharray: 0 0 0 2.93;
      }

      .cls-2, .cls-3, .cls-5 {
        stroke: #8f1838;
        stroke-linecap: round;
        stroke-linejoin: round;
        stroke-width: 1.75px;
      }

      .cls-7 {
        clip-path: url(#clippath-2);
      }

      .cls-8 {
        clip-path: url(#clippath-6);
      }

      .cls-9 {
        fill: #a55056;
      }

      .cls-10 {
        clip-path: url(#clippath-7);
      }

      .cls-11 {
        clip-path: url(#clippath-1);
      }

      .cls-12 {
        clip-path: url(#clippath-4);
      }

      .cls-13 {
        fill: #bd7f7f;
      }

      .cls-14 {
        fill: #8f1838;
      }

      .cls-15 {
        clip-path: url(#clippath);
      }

      .cls-16 {
        clip-path: url(#clippath-3);
      }

      .cls-5 {
        stroke-dasharray: 0 0 0 2.94;
      }

      .cls-17 {
        clip-path: url(#clippath-5);
      }

      .cls-18 {
        fill: url(#linear-gradient);
      }

      .cls-19 {
        fill: #7c393f;
      }
    </style>
    <linearGradient id="linear-gradient" x1="186.1" y1="0" x2="186.1" y2="181.38" gradientUnits="userSpaceOnUse">
      <stop offset="0" stop-color="#fff"/>
      <stop offset=".38" stop-color="#fefefe" stop-opacity=".99"/>
      <stop offset=".52" stop-color="#fdfcfc" stop-opacity=".97"/>
      <stop offset=".62" stop-color="#fbf8f7" stop-opacity=".93"/>
      <stop offset=".7" stop-color="#f8f2f2" stop-opacity=".86"/>
      <stop offset=".77" stop-color="#f4ebea" stop-opacity=".78"/>
      <stop offset=".83" stop-color="#efe2e1" stop-opacity=".68"/>
      <stop offset=".88" stop-color="#e9d7d6" stop-opacity=".57"/>
      <stop offset=".94" stop-color="#e3cbc9" stop-opacity=".43"/>
      <stop offset=".98" stop-color="#dbbdbb" stop-opacity=".28"/>
      <stop offset="1" stop-color="#d8b7b4" stop-opacity=".2"/>
    </linearGradient>
    <clipPath id="clippath">
      <rect class="cls-4" x="53.44" y="131.77" width="63.73" height="10.07"/>
    </clipPath>
    <clipPath id="clippath-1">
      <rect class="cls-4" x="53.44" y="146.58" width="63.73" height="10.07"/>
    </clipPath>
    <clipPath id="clippath-2">
      <rect class="cls-4" x="131.76" y="131.77" width="63.73" height="10.07"/>
    </clipPath>
    <clipPath id="clippath-3">
      <rect class="cls-4" x="131.76" y="146.58" width="63.73" height="10.07"/>
    </clipPath>
    <clipPath id="clippath-4">
      <rect class="cls-4" x="210.07" y="131.77" width="63.73" height="10.07"/>
    </clipPath>
    <clipPath id="clippath-5">
      <rect class="cls-4" x="210.07" y="146.58" width="63.73" height="10.07"/>
    </clipPath>
    <clipPath id="clippath-6">
      <rect class="cls-4" x="288.38" y="131.77" width="63.73" height="10.07"/>
    </clipPath>
    <clipPath id="clippath-7">
      <rect class="cls-4" x="288.38" y="146.58" width="63.73" height="10.07"/>
    </clipPath>
  </defs>
  <g id="Layer_2-2" data-name="Layer 2">
    <rect class="cls-18" width="372.21" height="181.38"/>
    <rect class="cls-14" x="89.09" y="62.59" width="193.72" height="19.43"/>
    <g>
      <path class="cls-14" d="M56.94,34.08v-6.99c0-2.13,1.06-3.34,3.12-3.34s3.12,1.22,3.12,3.34v1.14h-1.98v-1.27c0-.95-.42-1.31-1.08-1.31s-1.08,.36-1.08,1.31v7.28c0,.95,.42,1.29,1.08,1.29s1.08-.34,1.08-1.29v-2.6h-1.04v-1.9h3.02v4.35c0,2.13-1.06,3.34-3.12,3.34s-3.12-1.22-3.12-3.34Z"/>
      <path class="cls-14" d="M64.52,23.93h2.09v11.4h3.44v1.9h-5.53v-13.3Z"/>
      <path class="cls-14" d="M70.83,34.08v-6.99c0-2.13,1.12-3.34,3.17-3.34s3.17,1.22,3.17,3.34v6.99c0,2.13-1.12,3.34-3.17,3.34s-3.17-1.22-3.17-3.34Zm4.25,.13v-7.26c0-.95-.42-1.31-1.08-1.31s-1.08,.36-1.08,1.31v7.26c0,.95,.42,1.31,1.08,1.31s1.08-.36,1.08-1.31Z"/>
      <path class="cls-14" d="M78.58,23.93h3.15c2.17,0,3.1,1.01,3.1,3.06v.53c0,1.37-.42,2.22-1.35,2.6v.04c1.12,.38,1.56,1.37,1.56,2.77v1.14c0,2.05-1.08,3.15-3.17,3.15h-3.29v-13.3Zm2.91,5.41c.78,0,1.25-.34,1.25-1.41v-.74c0-.95-.32-1.37-1.06-1.37h-1.01v3.51h.82Zm.38,5.98c.7,0,1.08-.32,1.08-1.31v-1.16c0-1.23-.4-1.61-1.35-1.61h-.93v4.08h1.2Z"/>
      <path class="cls-14" d="M87.87,23.93h2.83l2.17,13.3h-2.09l-.38-2.64v.04h-2.37l-.38,2.6h-1.94l2.17-13.3Zm2.28,8.89l-.93-6.57h-.04l-.91,6.57h1.88Z"/>
      <path class="cls-14" d="M93.87,23.93h2.09v11.4h3.44v1.9h-5.53v-13.3Z"/>
      <path class="cls-14" d="M103.37,34.08v-10.14h2.09v10.3c0,.95,.4,1.29,1.06,1.29s1.06-.34,1.06-1.29v-10.3h2.01v10.14c0,2.13-1.06,3.34-3.12,3.34s-3.12-1.22-3.12-3.34Z"/>
      <path class="cls-14" d="M111.09,23.93h2.62l2.03,7.96h.04v-7.96h1.86v13.3h-2.15l-2.51-9.71h-.04v9.71h-1.86v-13.3Z"/>
      <path class="cls-14" d="M119.2,23.93h5.7v1.9h-3.61v3.51h2.87v1.9h-2.87v4.08h3.61v1.9h-5.7v-13.3Z"/>
      <path class="cls-14" d="M126.1,23.93h2.98l1.33,9.52h.04l1.33-9.52h2.98v13.3h-1.98v-10.07h-.04l-1.52,10.07h-1.75l-1.52-10.07h-.04v10.07h-1.82v-13.3Z"/>
      <path class="cls-14" d="M136.32,23.93h3.08c2.09,0,3.12,1.16,3.12,3.29v1.31c0,2.13-1.03,3.29-3.12,3.29h-.99v5.41h-2.09v-13.3Zm3.08,5.98c.67,0,1.03-.3,1.03-1.25v-1.58c0-.95-.36-1.25-1.03-1.25h-.99v4.08h.99Z"/>
      <path class="cls-14" d="M143.65,23.93h2.09v11.4h3.44v1.9h-5.53v-13.3Z"/>
      <path class="cls-14" d="M149.96,34.08v-6.99c0-2.13,1.12-3.34,3.17-3.34s3.17,1.22,3.17,3.34v6.99c0,2.13-1.12,3.34-3.17,3.34s-3.17-1.22-3.17-3.34Zm4.25,.13v-7.26c0-.95-.42-1.31-1.08-1.31s-1.08,.36-1.08,1.31v7.26c0,.95,.42,1.31,1.08,1.31s1.08-.36,1.08-1.31Z"/>
      <path class="cls-14" d="M159.29,31.57l-2.53-7.64h2.22l1.42,4.88h.04l1.42-4.88h2.03l-2.53,7.64v5.66h-2.09v-5.66Z"/>
      <path class="cls-14" d="M164.86,23.93h2.98l1.33,9.52h.04l1.33-9.52h2.98v13.3h-1.98v-10.07h-.04l-1.52,10.07h-1.75l-1.52-10.07h-.04v10.07h-1.82v-13.3Z"/>
      <path class="cls-14" d="M175.08,23.93h5.7v1.9h-3.61v3.51h2.87v1.9h-2.87v4.08h3.61v1.9h-5.7v-13.3Z"/>
      <path class="cls-14" d="M181.98,23.93h2.62l2.03,7.96h.04v-7.96h1.86v13.3h-2.15l-2.51-9.71h-.04v9.71h-1.86v-13.3Z"/>
      <path class="cls-14" d="M191.72,25.83h-2.19v-1.9h6.46v1.9h-2.18v11.4h-2.09v-11.4Z"/>
      <path class="cls-14" d="M200.04,23.93h2.09v13.3h-2.09v-13.3Z"/>
      <path class="cls-14" d="M203.33,34.08v-.76h1.98v.91c0,.95,.42,1.29,1.08,1.29s1.08-.34,1.08-1.33c0-1.1-.42-1.8-1.79-3-1.75-1.54-2.32-2.62-2.32-4.14,0-2.09,1.08-3.31,3.12-3.31s3.04,1.22,3.04,3.34v.55h-1.98v-.68c0-.95-.38-1.31-1.04-1.31s-1.04,.36-1.04,1.27c0,.97,.44,1.67,1.8,2.87,1.75,1.54,2.3,2.6,2.3,4.26,0,2.17-1.1,3.38-3.15,3.38s-3.08-1.22-3.08-3.34Z"/>
      <path class="cls-14" d="M213.8,23.93h5.7v1.9h-3.61v3.51h2.87v1.9h-2.87v4.08h3.61v1.9h-5.7v-13.3Z"/>
      <path class="cls-14" d="M222.58,30.43l-2.3-6.5h2.2l1.41,4.29h.04l1.44-4.29h1.98l-2.3,6.5,2.41,6.8h-2.2l-1.52-4.64h-.04l-1.56,4.64h-1.98l2.41-6.8Z"/>
      <path class="cls-14" d="M228.45,23.93h3.08c2.09,0,3.12,1.16,3.12,3.29v1.31c0,2.13-1.03,3.29-3.12,3.29h-.99v5.41h-2.09v-13.3Zm3.08,5.98c.67,0,1.03-.3,1.03-1.25v-1.58c0-.95-.36-1.25-1.03-1.25h-.99v4.08h.99Z"/>
      <path class="cls-14" d="M235.78,23.93h5.7v1.9h-3.61v3.51h2.87v1.9h-2.87v4.08h3.61v1.9h-5.7v-13.3Z"/>
      <path class="cls-14" d="M242.55,34.15v-7.14c0-2.05,1.06-3.27,3.08-3.27s3.08,1.22,3.08,3.27v1.41h-1.98v-1.54c0-.87-.42-1.23-1.04-1.23s-1.04,.36-1.04,1.23v7.43c0,.87,.42,1.22,1.04,1.22s1.04-.34,1.04-1.22v-2.03h1.98v1.88c0,2.05-1.06,3.27-3.08,3.27s-3.08-1.22-3.08-3.27Z"/>
      <path class="cls-14" d="M251.59,25.83h-2.19v-1.9h6.46v1.9h-2.19v11.4h-2.09v-11.4Z"/>
      <path class="cls-14" d="M256.87,23.93h5.7v1.9h-3.61v3.51h2.87v1.9h-2.87v4.08h3.61v1.9h-5.7v-13.3Z"/>
      <path class="cls-14" d="M263.77,23.93h3.19c2.09,0,3.12,1.16,3.12,3.29v6.73c0,2.13-1.03,3.29-3.12,3.29h-3.19v-13.3Zm3.15,11.4c.67,0,1.06-.34,1.06-1.29v-6.92c0-.95-.4-1.29-1.06-1.29h-1.06v9.5h1.06Z"/>
      <path class="cls-14" d="M276.16,25.83h-2.19v-1.9h6.46v1.9h-2.18v11.4h-2.09v-11.4Z"/>
      <path class="cls-14" d="M281.21,34.08v-6.99c0-2.13,1.12-3.34,3.17-3.34s3.17,1.22,3.17,3.34v6.99c0,2.13-1.12,3.34-3.17,3.34s-3.17-1.22-3.17-3.34Zm4.25,.13v-7.26c0-.95-.42-1.31-1.08-1.31s-1.08,.36-1.08,1.31v7.26c0,.95,.42,1.31,1.08,1.31s1.08-.36,1.08-1.31Z"/>
      <path class="cls-14" d="M292,23.93h5.53v1.9h-3.44v3.7h2.7v1.9h-2.7v5.79h-2.09v-13.3Z"/>
      <path class="cls-14" d="M299.55,23.93h2.83l2.17,13.3h-2.09l-.38-2.64v.04h-2.37l-.38,2.6h-1.94l2.17-13.3Zm2.28,8.89l-.93-6.57h-.04l-.91,6.57h1.88Z"/>
      <path class="cls-14" d="M305.55,23.93h2.09v11.4h3.44v1.9h-5.53v-13.3Z"/>
      <path class="cls-14" d="M312.09,23.93h2.09v11.4h3.44v1.9h-5.53v-13.3Z"/>
      <path class="cls-9" d="M100.24,43.93h3.15c2.17,0,3.1,1.01,3.1,3.06v.53c0,1.37-.42,2.22-1.35,2.6v.04c1.12,.38,1.56,1.37,1.56,2.77v1.14c0,2.05-1.08,3.15-3.17,3.15h-3.29v-13.3Zm2.91,5.41c.78,0,1.25-.34,1.25-1.41v-.74c0-.95-.32-1.37-1.06-1.37h-1.01v3.51h.82Zm.38,5.98c.7,0,1.08-.32,1.08-1.31v-1.16c0-1.23-.4-1.61-1.35-1.61h-.93v4.08h1.2Z"/>
      <path class="cls-9" d="M107.91,43.93h5.7v1.9h-3.61v3.51h2.87v1.9h-2.87v4.08h3.61v1.9h-5.7v-13.3Z"/>
      <path class="cls-9" d="M114.81,43.93h2.09v11.4h3.44v1.9h-5.53v-13.3Z"/>
      <path class="cls-9" d="M121.12,54.08v-6.99c0-2.13,1.12-3.34,3.17-3.34s3.17,1.22,3.17,3.34v6.99c0,2.13-1.12,3.34-3.17,3.34s-3.17-1.22-3.17-3.34Zm4.25,.13v-7.26c0-.95-.42-1.31-1.08-1.31s-1.08,.36-1.08,1.31v7.26c0,.95,.42,1.31,1.08,1.31s1.08-.36,1.08-1.31Z"/>
      <path class="cls-9" d="M128.38,43.93h2.01l.93,10.22h.04l.99-10.22h2.28l.99,10.22h.04l.93-10.22h1.8l-1.35,13.3h-2.6l-.95-8.97h-.04l-.95,8.97h-2.77l-1.35-13.3Z"/>
      <path class="cls-9" d="M142.49,43.93h3.08c2.09,0,3.12,1.16,3.12,3.29v1.31c0,2.13-1.03,3.29-3.12,3.29h-.99v5.41h-2.09v-13.3Zm3.08,5.98c.67,0,1.03-.3,1.03-1.25v-1.58c0-.95-.36-1.25-1.03-1.25h-.99v4.08h.99Z"/>
      <path class="cls-9" d="M149.83,43.93h3.1c2.17,0,3.1,1.01,3.1,3.06v.82c0,1.37-.44,2.24-1.37,2.62v.04c1.04,.32,1.39,1.31,1.39,2.81v2.34c0,.65,.02,1.12,.23,1.61h-2.13c-.11-.34-.19-.55-.19-1.63v-2.43c0-1.23-.36-1.63-1.31-1.63h-.72v5.7h-2.09v-13.3Zm2.85,5.7c.78,0,1.25-.34,1.25-1.41v-1.03c0-.95-.32-1.37-1.06-1.37h-.95v3.8h.76Z"/>
      <path class="cls-9" d="M157.48,43.93h5.7v1.9h-3.61v3.51h2.87v1.9h-2.87v4.08h3.61v1.9h-5.7v-13.3Z"/>
      <path class="cls-9" d="M164.08,49.63h4.18v1.9h-4.18v-1.9Z"/>
      <path class="cls-9" d="M169.51,43.93h3.08c2.09,0,3.12,1.16,3.12,3.29v1.31c0,2.13-1.03,3.29-3.12,3.29h-.99v5.41h-2.09v-13.3Zm3.08,5.98c.67,0,1.03-.3,1.03-1.25v-1.58c0-.95-.36-1.25-1.03-1.25h-.99v4.08h.99Z"/>
      <path class="cls-9" d="M177.79,43.93h2.83l2.17,13.3h-2.09l-.38-2.64v.04h-2.37l-.38,2.6h-1.94l2.17-13.3Zm2.28,8.89l-.93-6.57h-.04l-.91,6.57h1.88Z"/>
      <path class="cls-9" d="M183.8,43.93h2.62l2.03,7.96h.04v-7.96h1.86v13.3h-2.15l-2.51-9.71h-.04v9.71h-1.86v-13.3Z"/>
      <path class="cls-9" d="M191.91,43.93h3.19c2.09,0,3.12,1.16,3.12,3.29v6.73c0,2.13-1.03,3.29-3.12,3.29h-3.19v-13.3Zm3.15,11.4c.67,0,1.06-.34,1.06-1.29v-6.92c0-.95-.4-1.29-1.06-1.29h-1.06v9.5h1.06Z"/>
      <path class="cls-9" d="M199.63,43.93h5.7v1.9h-3.61v3.51h2.87v1.9h-2.87v4.08h3.61v1.9h-5.7v-13.3Z"/>
      <path class="cls-9" d="M206.52,43.93h2.98l1.33,9.52h.04l1.33-9.52h2.98v13.3h-1.98v-10.07h-.04l-1.52,10.07h-1.75l-1.52-10.07h-.04v10.07h-1.82v-13.3Z"/>
      <path class="cls-9" d="M216.75,43.93h2.09v13.3h-2.09v-13.3Z"/>
      <path class="cls-9" d="M220.26,54.15v-7.14c0-2.05,1.06-3.27,3.08-3.27s3.08,1.22,3.08,3.27v1.41h-1.98v-1.54c0-.87-.42-1.23-1.04-1.23s-1.04,.36-1.04,1.23v7.43c0,.87,.42,1.22,1.04,1.22s1.04-.34,1.04-1.22v-2.03h1.98v1.88c0,2.05-1.06,3.27-3.08,3.27s-3.08-1.22-3.08-3.27Z"/>
      <path class="cls-9" d="M230.71,43.93h2.09v11.4h3.44v1.9h-5.53v-13.3Z"/>
      <path class="cls-9" d="M237.25,43.93h5.7v1.9h-3.61v3.51h2.87v1.9h-2.87v4.08h3.61v1.9h-5.7v-13.3Z"/>
      <path class="cls-9" d="M243.59,43.93h2.11l1.37,10.32h.04l1.37-10.32h1.92l-2.01,13.3h-2.77l-2.01-13.3Z"/>
      <path class="cls-9" d="M251.4,43.93h5.7v1.9h-3.61v3.51h2.87v1.9h-2.87v4.08h3.61v1.9h-5.7v-13.3Z"/>
      <path class="cls-9" d="M258.3,43.93h2.09v11.4h3.44v1.9h-5.53v-13.3Z"/>
      <path class="cls-9" d="M264.47,54.08v-.76h1.98v.91c0,.95,.42,1.29,1.08,1.29s1.08-.34,1.08-1.33c0-1.1-.42-1.8-1.79-3-1.75-1.54-2.32-2.62-2.32-4.14,0-2.09,1.08-3.31,3.12-3.31s3.04,1.22,3.04,3.34v.55h-1.98v-.68c0-.95-.38-1.31-1.04-1.31s-1.04,.36-1.04,1.27c0,.97,.44,1.67,1.8,2.87,1.75,1.54,2.3,2.6,2.3,4.26,0,2.17-1.1,3.38-3.15,3.38s-3.08-1.22-3.08-3.34Z"/>
      <path class="cls-9" d="M272.59,57.23h-.68v-2.01h2.01v1.8l-1.04,2.49h-.97l.68-2.28Z"/>
      <path class="cls-6" d="M95.41,66.03h2.66c1.82,0,2.61,.85,2.61,2.58v.45c0,1.15-.35,1.87-1.14,2.19v.03c.94,.32,1.31,1.15,1.31,2.34v.96c0,1.73-.91,2.66-2.67,2.66h-2.77v-11.2Zm2.45,4.56c.66,0,1.06-.29,1.06-1.18v-.62c0-.8-.27-1.15-.9-1.15h-.85v2.96h.69Zm.32,5.04c.59,0,.91-.27,.91-1.1v-.98c0-1.04-.34-1.36-1.14-1.36h-.78v3.44h1.01Z"/>
      <path class="cls-6" d="M102.21,74.57v-8.55h1.76v8.68c0,.8,.34,1.09,.9,1.09s.9-.29,.9-1.09v-8.68h1.7v8.55c0,1.79-.9,2.82-2.62,2.82s-2.63-1.02-2.63-2.82Z"/>
      <path class="cls-6" d="M110.49,67.63h-1.84v-1.6h5.44v1.6h-1.84v9.6h-1.76v-9.6Z"/>
      <path class="cls-6" d="M118.29,66.03h2.21l1.71,6.71h.03v-6.71h1.57v11.2h-1.81l-2.11-8.18h-.03v8.18h-1.57v-11.2Z"/>
      <path class="cls-6" d="M125.4,74.57v-5.89c0-1.79,.94-2.82,2.67-2.82s2.67,1.02,2.67,2.82v5.89c0,1.79-.94,2.82-2.67,2.82s-2.67-1.02-2.67-2.82Zm3.58,.11v-6.11c0-.8-.35-1.1-.91-1.1s-.91,.3-.91,1.1v6.11c0,.8,.35,1.1,.91,1.1s.91-.3,.91-1.1Z"/>
      <path class="cls-6" d="M133.64,67.63h-1.84v-1.6h5.44v1.6h-1.84v9.6h-1.76v-9.6Z"/>
      <path class="cls-6" d="M141.44,66.03h1.76v11.2h-1.76v-11.2Z"/>
      <path class="cls-6" d="M144.92,66.03h2.21l1.71,6.71h.03v-6.71h1.57v11.2h-1.81l-2.11-8.18h-.03v8.18h-1.57v-11.2Z"/>
      <path class="cls-6" d="M155.11,66.03h1.76v9.6h2.9v1.6h-4.66v-11.2Z"/>
      <path class="cls-6" d="M160.82,74.57v-5.89c0-1.79,.94-2.82,2.67-2.82s2.67,1.02,2.67,2.82v5.89c0,1.79-.94,2.82-2.67,2.82s-2.67-1.02-2.67-2.82Zm3.58,.11v-6.11c0-.8-.35-1.1-.91-1.1s-.91,.3-.91,1.1v6.11c0,.8,.35,1.1,.91,1.1s.91-.3,.91-1.1Z"/>
      <path class="cls-6" d="M167.33,66.03h1.7l.78,8.61h.03l.83-8.61h1.92l.83,8.61h.03l.79-8.61h1.52l-1.14,11.2h-2.19l-.8-7.56h-.03l-.8,7.56h-2.34l-1.14-11.2Z"/>
      <path class="cls-6" d="M176.68,70.83h3.52v1.6h-3.52v-1.6Z"/>
      <path class="cls-6" d="M181.65,66.03h1.76v11.2h-1.76v-11.2Z"/>
      <path class="cls-6" d="M185.13,66.03h2.21l1.71,6.71h.03v-6.71h1.57v11.2h-1.81l-2.11-8.18h-.03v8.18h-1.57v-11.2Z"/>
      <path class="cls-6" d="M192.24,74.64v-6.02c0-1.73,.9-2.75,2.59-2.75s2.59,1.02,2.59,2.75v1.18h-1.67v-1.3c0-.74-.35-1.04-.88-1.04s-.88,.3-.88,1.04v6.26c0,.74,.35,1.02,.88,1.02s.88-.29,.88-1.02v-1.71h1.67v1.58c0,1.73-.9,2.75-2.59,2.75s-2.59-1.02-2.59-2.75Z"/>
      <path class="cls-6" d="M198.79,74.57v-5.89c0-1.79,.94-2.82,2.67-2.82s2.67,1.02,2.67,2.82v5.89c0,1.79-.94,2.82-2.67,2.82s-2.67-1.02-2.67-2.82Zm3.58,.11v-6.11c0-.8-.35-1.1-.91-1.1s-.91,.3-.91,1.1v6.11c0,.8,.35,1.1,.91,1.1s.91-.3,.91-1.1Z"/>
      <path class="cls-6" d="M205.72,66.03h2.51l1.12,8.02h.03l1.12-8.02h2.51v11.2h-1.66v-8.48h-.03l-1.28,8.48h-1.47l-1.28-8.48h-.03v8.48h-1.54v-11.2Z"/>
      <path class="cls-6" d="M214.72,66.03h4.8v1.6h-3.04v2.96h2.42v1.6h-2.42v3.44h3.04v1.6h-4.8v-11.2Z"/>
      <path class="cls-6" d="M223.78,74.64v-6.02c0-1.73,.9-2.75,2.59-2.75s2.59,1.02,2.59,2.75v1.18h-1.67v-1.3c0-.74-.35-1.04-.88-1.04s-.88,.3-.88,1.04v6.26c0,.74,.35,1.02,.88,1.02s.88-.29,.88-1.02v-1.71h1.67v1.58c0,1.73-.9,2.75-2.59,2.75s-2.59-1.02-2.59-2.75Z"/>
      <path class="cls-6" d="M230.32,74.57v-5.89c0-1.79,.94-2.82,2.67-2.82s2.67,1.02,2.67,2.82v5.89c0,1.79-.94,2.82-2.67,2.82s-2.67-1.02-2.67-2.82Zm3.58,.11v-6.11c0-.8-.35-1.1-.91-1.1s-.91,.3-.91,1.1v6.11c0,.8,.35,1.1,.91,1.1s.91-.3,.91-1.1Z"/>
      <path class="cls-6" d="M237.19,74.57v-8.55h1.76v8.68c0,.8,.34,1.09,.9,1.09s.9-.29,.9-1.09v-8.68h1.7v8.55c0,1.79-.9,2.82-2.62,2.82s-2.63-1.02-2.63-2.82Z"/>
      <path class="cls-6" d="M244.08,66.03h2.21l1.71,6.71h.03v-6.71h1.57v11.2h-1.81l-2.11-8.18h-.03v8.18h-1.57v-11.2Z"/>
      <path class="cls-6" d="M252.69,67.63h-1.84v-1.6h5.44v1.6h-1.84v9.6h-1.76v-9.6Z"/>
      <path class="cls-6" d="M257.54,66.03h2.61c1.82,0,2.61,.85,2.61,2.58v.69c0,1.15-.37,1.89-1.15,2.21v.03c.88,.27,1.17,1.1,1.17,2.37v1.97c0,.54,.02,.94,.19,1.36h-1.79c-.1-.29-.16-.46-.16-1.38v-2.05c0-1.04-.3-1.38-1.1-1.38h-.61v4.8h-1.76v-11.2Zm2.4,4.8c.66,0,1.06-.29,1.06-1.18v-.86c0-.8-.27-1.15-.9-1.15h-.8v3.2h.64Z"/>
      <path class="cls-6" d="M264.39,66.03h1.76v11.2h-1.76v-11.2Z"/>
      <path class="cls-6" d="M267.86,66.03h4.8v1.6h-3.04v2.96h2.42v1.6h-2.42v3.44h3.04v1.6h-4.8v-11.2Z"/>
      <path class="cls-6" d="M273.8,74.57v-.64h1.66v.77c0,.8,.35,1.09,.91,1.09s.91-.29,.91-1.12c0-.93-.35-1.52-1.5-2.53-1.47-1.3-1.95-2.21-1.95-3.49,0-1.76,.91-2.79,2.62-2.79s2.56,1.02,2.56,2.82v.46h-1.67v-.58c0-.8-.32-1.1-.88-1.1s-.88,.3-.88,1.07c0,.82,.37,1.41,1.52,2.42,1.47,1.3,1.94,2.19,1.94,3.59,0,1.82-.93,2.85-2.66,2.85s-2.59-1.02-2.59-2.82Z"/>
    </g>
    <g>
      <path class="cls-19" d="M56.85,120.63c-.28,0-.46,.15-.46,.55v.6h-.83v-.54c0-.9,.45-1.41,1.31-1.41s1.31,.51,1.31,1.41c0,1.76-1.75,2.41-1.75,3.33,0,.04,0,.08,0,.12h1.66v.8h-2.54v-.69c0-1.65,1.74-1.92,1.74-3.53,0-.5-.18-.64-.46-.64Z"/>
      <path class="cls-19" d="M58.66,121.23c0-.9,.47-1.41,1.33-1.41s1.33,.51,1.33,1.41v2.91c0,.9-.47,1.41-1.33,1.41s-1.33-.51-1.33-1.41v-2.91Zm.88,2.97c0,.4,.18,.55,.46,.55s.46-.15,.46-.55v-3.02c0-.4-.18-.55-.46-.55s-.46,.15-.46,.55v3.02Z"/>
      <path class="cls-19" d="M62.45,120.59c.68,0,.83-.33,.97-.7h.59v5.6h-.88v-4.27h-.68v-.62Z"/>
      <path class="cls-19" d="M67.65,124.1c0,.94-.43,1.46-1.34,1.46-.86,0-1.31-.51-1.31-1.41v-.14h.83v.2c0,.4,.18,.55,.46,.55,.31,0,.49-.15,.49-.69v-1.02c-.15,.32-.42,.5-.82,.5-.65,0-.98-.46-.98-1.28v-1.02c0-.9,.47-1.41,1.34-1.41s1.33,.51,1.33,1.41v2.86Zm-.88-1.91v-1.01c0-.4-.18-.54-.46-.54s-.46,.14-.46,.54v1.01c0,.4,.18,.55,.46,.55s.46-.15,.46-.55Z"/>
    </g>
    <g>
      <path class="cls-19" d="M133.37,120.63c-.28,0-.46,.15-.46,.55v.6h-.83v-.54c0-.9,.45-1.41,1.31-1.41s1.31,.51,1.31,1.41c0,1.76-1.75,2.41-1.75,3.33,0,.04,0,.08,0,.12h1.66v.8h-2.54v-.69c0-1.65,1.74-1.92,1.74-3.53,0-.5-.18-.64-.46-.64Z"/>
      <path class="cls-19" d="M135.17,121.23c0-.9,.47-1.41,1.33-1.41s1.33,.51,1.33,1.41v2.91c0,.9-.47,1.41-1.33,1.41s-1.33-.51-1.33-1.41v-2.91Zm.88,2.97c0,.4,.18,.55,.46,.55s.46-.15,.46-.55v-3.02c0-.4-.18-.55-.46-.55s-.46,.15-.46,.55v3.02Z"/>
      <path class="cls-19" d="M139.7,120.63c-.28,0-.46,.15-.46,.55v.6h-.83v-.54c0-.9,.45-1.41,1.31-1.41s1.31,.51,1.31,1.41c0,1.76-1.75,2.41-1.75,3.33,0,.04,0,.08,0,.12h1.66v.8h-2.54v-.69c0-1.65,1.74-1.92,1.74-3.53,0-.5-.18-.64-.46-.64Z"/>
      <path class="cls-19" d="M141.51,121.23c0-.9,.47-1.41,1.33-1.41s1.33,.51,1.33,1.41v2.91c0,.9-.47,1.41-1.33,1.41s-1.33-.51-1.33-1.41v-2.91Zm.88,2.97c0,.4,.18,.55,.46,.55s.46-.15,.46-.55v-3.02c0-.4-.18-.55-.46-.55s-.46,.15-.46,.55v3.02Z"/>
    </g>
    <g>
      <path class="cls-19" d="M211.68,120.63c-.28,0-.46,.15-.46,.55v.6h-.83v-.54c0-.9,.45-1.41,1.31-1.41s1.31,.51,1.31,1.41c0,1.76-1.75,2.41-1.75,3.33,0,.04,0,.08,0,.12h1.66v.8h-2.54v-.69c0-1.65,1.74-1.92,1.74-3.53,0-.5-.18-.64-.46-.64Z"/>
      <path class="cls-19" d="M213.49,121.23c0-.9,.47-1.41,1.33-1.41s1.33,.51,1.33,1.41v2.91c0,.9-.47,1.41-1.33,1.41s-1.33-.51-1.33-1.41v-2.91Zm.88,2.97c0,.4,.18,.55,.46,.55s.46-.15,.46-.55v-3.02c0-.4-.18-.55-.46-.55s-.46,.15-.46,.55v3.02Z"/>
      <path class="cls-19" d="M218.01,120.63c-.28,0-.46,.15-.46,.55v.6h-.83v-.54c0-.9,.45-1.41,1.31-1.41s1.31,.51,1.31,1.41c0,1.76-1.75,2.41-1.75,3.33,0,.04,0,.08,0,.12h1.66v.8h-2.54v-.69c0-1.65,1.74-1.92,1.74-3.53,0-.5-.18-.64-.46-.64Z"/>
      <path class="cls-19" d="M221.18,120.63c-.28,0-.46,.15-.46,.55v.6h-.83v-.54c0-.9,.45-1.41,1.31-1.41s1.31,.51,1.31,1.41c0,1.76-1.75,2.41-1.75,3.33,0,.04,0,.08,0,.12h1.66v.8h-2.54v-.69c0-1.65,1.74-1.92,1.74-3.53,0-.5-.18-.64-.46-.64Z"/>
    </g>
    <g>
      <path class="cls-9" d="M289.99,120.63c-.28,0-.46,.15-.46,.55v.6h-.83v-.54c0-.9,.45-1.41,1.31-1.41s1.31,.51,1.31,1.41c0,1.76-1.75,2.41-1.75,3.33,0,.04,0,.08,0,.12h1.66v.8h-2.54v-.69c0-1.65,1.74-1.92,1.74-3.53,0-.5-.18-.64-.46-.64Z"/>
      <path class="cls-9" d="M291.8,121.23c0-.9,.47-1.41,1.33-1.41s1.33,.51,1.33,1.41v2.91c0,.9-.47,1.41-1.33,1.41s-1.33-.51-1.33-1.41v-2.91Zm.88,2.97c0,.4,.18,.55,.46,.55s.46-.15,.46-.55v-3.02c0-.4-.18-.55-.46-.55s-.46,.15-.46,.55v3.02Z"/>
      <path class="cls-9" d="M296.33,120.63c-.28,0-.46,.15-.46,.55v.6h-.83v-.54c0-.9,.45-1.41,1.31-1.41s1.31,.51,1.31,1.41c0,1.76-1.75,2.41-1.75,3.33,0,.04,0,.08,0,.12h1.66v.8h-2.54v-.69c0-1.65,1.74-1.92,1.74-3.53,0-.5-.18-.64-.46-.64Z"/>
      <path class="cls-9" d="M299.9,121.27c0-.5-.18-.64-.46-.64s-.46,.15-.46,.55v.36h-.83v-.3c0-.9,.45-1.41,1.31-1.41s1.31,.51,1.31,1.41v.14c0,.6-.19,.98-.62,1.15,.44,.19,.62,.61,.62,1.18v.44c0,.9-.45,1.41-1.31,1.41s-1.31-.51-1.31-1.41v-.46h.83v.52c0,.4,.18,.55,.46,.55s.46-.14,.46-.63v-.44c0-.52-.18-.71-.58-.71h-.3v-.8h.34c.33,0,.53-.14,.53-.59v-.31Z"/>
      <path class="cls-9" d="M305.22,121.27v.73c0,.9-.43,1.38-1.31,1.38h-.42v2.1h-.88v-5.6h1.3c.88,0,1.31,.49,1.31,1.38Zm-1.73-.58v1.9h.42c.28,0,.43-.13,.43-.53v-.84c0-.4-.15-.53-.43-.53h-.42Z"/>
      <path class="cls-9" d="M307.51,125.49c-.05-.14-.08-.23-.08-.69v-.88c0-.52-.18-.71-.58-.71h-.3v2.28h-.88v-5.6h1.33c.91,0,1.3,.42,1.3,1.29v.44c0,.58-.18,.95-.58,1.14,.44,.18,.58,.61,.58,1.19v.86c0,.27,0,.47,.1,.68h-.9Zm-.96-4.8v1.72h.34c.33,0,.53-.14,.53-.59v-.55c0-.4-.14-.58-.45-.58h-.42Z"/>
      <path class="cls-9" d="M308.82,121.23c0-.9,.47-1.41,1.33-1.41s1.33,.51,1.33,1.41v2.91c0,.9-.47,1.41-1.33,1.41s-1.33-.51-1.33-1.41v-2.91Zm.88,2.97c0,.4,.18,.55,.46,.55s.46-.15,.46-.55v-3.02c0-.4-.18-.55-.46-.55s-.46,.15-.46,.55v3.02Z"/>
      <path class="cls-9" d="M311.82,124.69c.1,0,.21,0,.3,0,.28,0,.5-.1,.5-.54v-4.27h.88v4.21c0,1.12-.6,1.41-1.26,1.41-.16,0-.28,0-.42-.02v-.8Z"/>
      <path class="cls-9" d="M314.98,122.25h1.21v.8h-1.21v1.64h1.52v.8h-2.4v-5.6h2.4v.8h-1.52v1.56Z"/>
      <path class="cls-9" d="M319.6,123.4v.74c0,.9-.45,1.41-1.31,1.41s-1.31-.51-1.31-1.41v-2.91c0-.9,.45-1.41,1.31-1.41s1.31,.51,1.31,1.41v.54h-.83v-.6c0-.4-.18-.55-.46-.55s-.46,.15-.46,.55v3.02c0,.4,.18,.54,.46,.54s.46-.14,.46-.54v-.8h.83Z"/>
      <path class="cls-9" d="M319.88,119.89h2.72v.8h-.92v4.8h-.88v-4.8h-.92v-.8Z"/>
      <path class="cls-9" d="M322.98,119.89h.88v5.6h-.88v-5.6Z"/>
      <path class="cls-9" d="M324.43,121.23c0-.9,.47-1.41,1.33-1.41s1.33,.51,1.33,1.41v2.91c0,.9-.47,1.41-1.33,1.41s-1.33-.51-1.33-1.41v-2.91Zm.88,2.97c0,.4,.18,.55,.46,.55s.46-.15,.46-.55v-3.02c0-.4-.18-.55-.46-.55s-.46,.15-.46,.55v3.02Z"/>
      <path class="cls-9" d="M328.46,121.43v4.05h-.79v-5.6h1.1l.9,3.35v-3.35h.78v5.6h-.9l-1.1-4.05Z"/>
      <path class="cls-9" d="M332.27,119.83c.86,0,1.3,.51,1.3,1.41v.18h-.83v-.23c0-.4-.16-.55-.44-.55s-.44,.15-.44,.55c0,1.15,1.72,1.37,1.72,2.97,0,.9-.45,1.41-1.31,1.41s-1.31-.51-1.31-1.41v-.34h.83v.4c0,.4,.18,.54,.46,.54s.46-.14,.46-.54c0-1.15-1.72-1.37-1.72-2.97,0-.9,.44-1.41,1.29-1.41Z"/>
    </g>
    <g>
      <path class="cls-19" d="M15.33,128.51h.88v4.8h1.45v.8h-2.33v-5.6Z"/>
      <path class="cls-19" d="M17.97,129.85c0-.9,.47-1.41,1.33-1.41s1.33,.51,1.33,1.41v2.91c0,.9-.47,1.41-1.33,1.41s-1.33-.51-1.33-1.41v-2.91Zm.88,2.97c0,.4,.18,.55,.46,.55s.46-.15,.46-.55v-3.02c0-.4-.18-.55-.46-.55s-.46,.15-.46,.55v3.02Z"/>
      <path class="cls-19" d="M23.16,131.12l-.32,2.98h-1.21l-.62-5.6h.86l.47,4.41,.42-4.41h.85l.44,4.45,.46-4.45h.77l-.62,5.6h-1.17l-.32-2.98Z"/>
      <path class="cls-19" d="M25.67,130.91h1.6v.8h-1.6v-.8Z"/>
      <path class="cls-19" d="M27.87,128.51h.88v5.6h-.88v-5.6Z"/>
      <path class="cls-19" d="M30.18,130.05v4.05h-.79v-5.6h1.1l.9,3.35v-3.35h.78v5.6h-.9l-1.09-4.05Z"/>
      <path class="cls-19" d="M35.36,132.02v.74c0,.9-.45,1.41-1.31,1.41s-1.31-.51-1.31-1.41v-2.91c0-.9,.45-1.41,1.31-1.41s1.31,.51,1.31,1.41v.54h-.83v-.6c0-.4-.18-.55-.46-.55s-.46,.15-.46,.55v3.02c0,.4,.18,.54,.46,.54s.46-.14,.46-.54v-.8h.83Z"/>
      <path class="cls-19" d="M35.83,129.85c0-.9,.47-1.41,1.33-1.41s1.33,.51,1.33,1.41v2.91c0,.9-.47,1.41-1.33,1.41s-1.33-.51-1.33-1.41v-2.91Zm.88,2.97c0,.4,.18,.55,.46,.55s.46-.15,.46-.55v-3.02c0-.4-.18-.55-.46-.55s-.46,.15-.46,.55v3.02Z"/>
      <path class="cls-19" d="M40.93,132.48l.6-3.97h1.22v5.6h-.83v-4.01l-.61,4.01h-.83l-.66-3.96v3.96h-.77v-5.6h1.22l.65,3.97Z"/>
      <path class="cls-19" d="M44.27,130.87h1.21v.8h-1.21v1.64h1.52v.8h-2.4v-5.6h2.4v.8h-1.52v1.56Z"/>
      <path class="cls-19" d="M22.51,140.02v.74c0,.9-.45,1.41-1.31,1.41s-1.31-.51-1.31-1.41v-2.91c0-.9,.45-1.41,1.31-1.41s1.31,.51,1.31,1.41v.54h-.83v-.6c0-.4-.18-.55-.46-.55s-.46,.15-.46,.55v3.02c0,.4,.18,.54,.46,.54s.46-.14,.46-.54v-.8h.83Z"/>
      <path class="cls-19" d="M22.98,137.85c0-.9,.47-1.41,1.33-1.41s1.33,.51,1.33,1.41v2.91c0,.9-.47,1.41-1.33,1.41s-1.33-.51-1.33-1.41v-2.91Zm.88,2.97c0,.4,.18,.55,.46,.55s.46-.15,.46-.55v-3.02c0-.4-.18-.55-.46-.55s-.46,.15-.46,.55v3.02Z"/>
      <path class="cls-19" d="M27.06,136.51v4.32c0,.4,.18,.54,.46,.54s.46-.14,.46-.54v-4.32h.83v4.26c0,.9-.45,1.41-1.31,1.41s-1.31-.51-1.31-1.41v-4.26h.88Z"/>
      <path class="cls-19" d="M30.18,138.05v4.05h-.79v-5.6h1.1l.9,3.35v-3.35h.78v5.6h-.9l-1.1-4.05Z"/>
      <path class="cls-19" d="M32.56,136.51h2.72v.8h-.92v4.8h-.88v-4.8h-.92v-.8Z"/>
      <path class="cls-19" d="M37.5,142.11c-.05-.14-.08-.23-.08-.69v-.88c0-.52-.18-.71-.58-.71h-.3v2.28h-.88v-5.6h1.33c.91,0,1.3,.42,1.3,1.29v.44c0,.58-.18,.95-.58,1.14,.44,.18,.58,.61,.58,1.19v.86c0,.27,0,.47,.1,.68h-.9Zm-.96-4.8v1.72h.34c.33,0,.53-.14,.53-.59v-.55c0-.4-.14-.58-.45-.58h-.42Z"/>
      <path class="cls-19" d="M38.88,136.51h.88v5.6h-.88v-5.6Z"/>
      <path class="cls-19" d="M41.28,138.87h1.21v.8h-1.21v1.64h1.52v.8h-2.4v-5.6h2.4v.8h-1.52v1.56Z"/>
      <path class="cls-19" d="M44.53,136.45c.86,0,1.3,.51,1.3,1.41v.18h-.83v-.23c0-.4-.16-.55-.44-.55s-.44,.15-.44,.55c0,1.15,1.72,1.37,1.72,2.97,0,.9-.45,1.41-1.31,1.41s-1.31-.51-1.31-1.41v-.34h.83v.4c0,.4,.18,.54,.46,.54s.46-.14,.46-.54c0-1.15-1.72-1.37-1.72-2.97,0-.9,.44-1.41,1.29-1.41Z"/>
    </g>
    <g>
      <path class="cls-14" d="M31.84,153.67l-.32,2.98h-1.21l-.62-5.6h.86l.47,4.41,.42-4.41h.85l.44,4.45,.46-4.45h.77l-.62,5.6h-1.17l-.32-2.98Z"/>
      <path class="cls-14" d="M34.32,152.4c0-.9,.47-1.41,1.33-1.41s1.33,.51,1.33,1.41v2.91c0,.9-.47,1.41-1.33,1.41s-1.33-.51-1.33-1.41v-2.91Zm.88,2.97c0,.4,.18,.55,.46,.55s.46-.15,.46-.55v-3.02c0-.4-.18-.55-.46-.55s-.46,.15-.46,.55v3.02Z"/>
      <path class="cls-14" d="M39.4,156.66c-.05-.14-.08-.23-.08-.69v-.88c0-.52-.18-.71-.58-.71h-.3v2.28h-.88v-5.6h1.33c.91,0,1.3,.42,1.3,1.29v.44c0,.58-.18,.95-.58,1.14,.44,.18,.58,.61,.58,1.19v.86c0,.27,0,.47,.1,.68h-.9Zm-.96-4.8v1.72h.34c.33,0,.53-.14,.53-.59v-.55c0-.4-.14-.58-.45-.58h-.42Z"/>
      <path class="cls-14" d="M40.77,151.06h.88v4.8h1.45v.8h-2.33v-5.6Z"/>
      <path class="cls-14" d="M43.48,151.06h1.39c.88,0,1.31,.49,1.31,1.38v2.83c0,.9-.43,1.38-1.31,1.38h-1.39v-5.6Zm.88,.8v4h.5c.28,0,.45-.14,.45-.54v-2.91c0-.4-.17-.54-.45-.54h-.5Z"/>
    </g>
    <g>
      <path class="cls-14" d="M150.99,104.69v4.32c0,.4,.18,.54,.46,.54s.46-.14,.46-.54v-4.32h.83v4.26c0,.9-.45,1.41-1.31,1.41s-1.31-.51-1.31-1.41v-4.26h.88Z"/>
      <path class="cls-14" d="M154.31,106.23v4.05h-.79v-5.6h1.1l.9,3.35v-3.35h.78v5.6h-.9l-1.1-4.05Z"/>
      <path class="cls-14" d="M158.03,107.05h1.21v.8h-1.21v1.64h1.52v.8h-2.4v-5.6h2.4v.8h-1.52v1.56Z"/>
      <path class="cls-14" d="M162.15,108.66l.6-3.97h1.22v5.6h-.83v-4.01l-.61,4.01h-.83l-.66-3.96v3.96h-.77v-5.6h1.22l.65,3.97Z"/>
      <path class="cls-14" d="M167.43,106.07v.73c0,.9-.43,1.38-1.31,1.38h-.42v2.1h-.88v-5.6h1.29c.88,0,1.31,.49,1.31,1.38Zm-1.73-.58v1.9h.42c.28,0,.43-.13,.43-.53v-.84c0-.4-.15-.53-.43-.53h-.42Z"/>
      <path class="cls-14" d="M168.03,104.69h.88v4.8h1.45v.8h-2.33v-5.6Z"/>
      <path class="cls-14" d="M170.88,106.03c0-.9,.47-1.41,1.33-1.41s1.33,.51,1.33,1.41v2.91c0,.9-.47,1.41-1.33,1.41s-1.33-.51-1.33-1.41v-2.91Zm.88,2.97c0,.4,.18,.55,.46,.55s.46-.15,.46-.55v-3.02c0-.4-.18-.55-.46-.55s-.46,.15-.46,.55v3.02Z"/>
      <path class="cls-14" d="M175.14,108.43l-1.11-3.74h.92l.67,2.55,.67-2.55h.84l-1.11,3.74v1.85h-.88v-1.85Z"/>
      <path class="cls-14" d="M179.55,108.66l.6-3.97h1.22v5.6h-.83v-4.01l-.61,4.01h-.83l-.66-3.96v3.96h-.77v-5.6h1.22l.65,3.97Z"/>
      <path class="cls-14" d="M183.09,107.05h1.21v.8h-1.21v1.64h1.52v.8h-2.4v-5.6h2.4v.8h-1.52v1.56Z"/>
      <path class="cls-14" d="M186.14,106.23v4.05h-.79v-5.6h1.1l.9,3.35v-3.35h.78v5.6h-.9l-1.1-4.05Z"/>
      <path class="cls-14" d="M188.72,104.69h2.72v.8h-.92v4.8h-.88v-4.8h-.92v-.8Z"/>
      <path class="cls-14" d="M195.3,110.28c-.05-.14-.08-.23-.08-.69v-.88c0-.52-.18-.71-.58-.71h-.3v2.28h-.88v-5.6h1.33c.91,0,1.3,.42,1.3,1.29v.44c0,.58-.18,.95-.58,1.14,.44,.18,.58,.61,.58,1.19v.86c0,.27,0,.47,.1,.68h-.9Zm-.96-4.8v1.72h.34c.33,0,.53-.14,.53-.59v-.55c0-.4-.14-.58-.45-.58h-.42Z"/>
      <path class="cls-14" d="M199.72,110.28h-.89l-.15-1.02h-1.08l-.15,1.02h-.81l.9-5.6h1.29l.9,5.6Zm-2.01-1.77h.85l-.42-2.83-.42,2.83Z"/>
      <path class="cls-14" d="M200.08,104.69h2.72v.8h-.92v4.8h-.88v-4.8h-.92v-.8Z"/>
      <path class="cls-14" d="M204.26,107.05h1.21v.8h-1.21v1.64h1.52v.8h-2.4v-5.6h2.4v.8h-1.52v1.56Z"/>
      <path class="cls-14" d="M209.52,104.69v.72h-.22c-.28,0-.41,.1-.41,.5v3.15c0,.4,.13,.5,.41,.5h.22v.72h-.27c-.88,0-1.23-.33-1.23-1.22v-3.15c0-.9,.35-1.22,1.23-1.22h.27Z"/>
      <path class="cls-14" d="M210.12,105.54c0-.58,.3-.9,.85-.9s.85,.32,.85,.9v1.84c0,.58-.3,.9-.85,.9s-.85-.32-.85-.9v-1.84Zm.56,1.88c0,.25,.1,.35,.29,.35s.29-.1,.29-.35v-1.92c0-.25-.11-.35-.29-.35s-.29,.1-.29,.35v1.92Zm2.49-2.73h.52l-2.21,5.6h-.52l2.21-5.6Zm-.28,2.9c0-.58,.3-.9,.85-.9s.85,.32,.85,.9v1.84c0,.58-.3,.9-.85,.9s-.85-.32-.85-.9v-1.84Zm.56,1.88c0,.25,.1,.35,.29,.35s.29-.1,.29-.35v-1.92c0-.25-.11-.35-.29-.35s-.29,.1-.29,.35v1.92Z"/>
      <path class="cls-14" d="M215.47,104.69c.88,0,1.23,.33,1.23,1.22v3.15c0,.9-.35,1.22-1.23,1.22h-.27v-.72h.22c.28,0,.41-.1,.41-.5v-3.15c0-.4-.13-.5-.41-.5h-.22v-.72h.27Z"/>
    </g>
    <g>
      <g>
        <g class="cls-15">
          <g>
            <line class="cls-1" x1="185.86" y1="156.34" x2="109.49" y2="70.13"/>
            <line class="cls-1" x1="184.49" y1="158.02" x2="108.12" y2="71.8"/>
            <line class="cls-1" x1="183.13" y1="159.69" x2="106.75" y2="73.48"/>
            <line class="cls-1" x1="181.76" y1="161.37" x2="105.38" y2="75.15"/>
            <line class="cls-1" x1="180.39" y1="163.04" x2="104.02" y2="76.83"/>
            <line class="cls-1" x1="179.03" y1="164.72" x2="102.65" y2="78.5"/>
            <line class="cls-1" x1="177.66" y1="166.39" x2="101.28" y2="80.18"/>
            <line class="cls-1" x1="176.29" y1="168.07" x2="99.92" y2="81.85"/>
            <line class="cls-1" x1="174.93" y1="169.74" x2="98.55" y2="83.53"/>
            <line class="cls-1" x1="173.56" y1="171.41" x2="97.18" y2="85.2"/>
            <line class="cls-1" x1="172.19" y1="173.09" x2="95.82" y2="86.88"/>
            <line class="cls-1" x1="170.83" y1="174.76" x2="94.45" y2="88.55"/>
            <line class="cls-1" x1="169.46" y1="176.44" x2="93.08" y2="90.23"/>
            <line class="cls-1" x1="168.09" y1="178.11" x2="91.72" y2="91.9"/>
            <line class="cls-1" x1="166.73" y1="179.79" x2="90.35" y2="93.58"/>
            <line class="cls-1" x1="165.36" y1="181.46" x2="88.98" y2="95.25"/>
            <line class="cls-1" x1="163.99" y1="183.14" x2="87.62" y2="96.93"/>
            <line class="cls-1" x1="162.62" y1="184.81" x2="86.25" y2="98.6"/>
            <line class="cls-1" x1="161.26" y1="186.49" x2="84.88" y2="100.28"/>
            <line class="cls-1" x1="159.89" y1="188.16" x2="83.51" y2="101.95"/>
            <line class="cls-1" x1="158.52" y1="189.84" x2="82.15" y2="103.62"/>
            <line class="cls-1" x1="157.16" y1="191.51" x2="80.78" y2="105.3"/>
            <line class="cls-1" x1="155.79" y1="193.19" x2="79.41" y2="106.97"/>
            <line class="cls-1" x1="154.42" y1="194.86" x2="78.05" y2="108.65"/>
            <line class="cls-1" x1="153.06" y1="196.54" x2="76.68" y2="110.32"/>
            <line class="cls-1" x1="151.69" y1="198.21" x2="75.31" y2="112"/>
            <line class="cls-1" x1="150.32" y1="199.89" x2="73.95" y2="113.67"/>
            <line class="cls-1" x1="148.96" y1="201.56" x2="72.58" y2="115.35"/>
            <line class="cls-1" x1="147.59" y1="203.24" x2="71.21" y2="117.02"/>
            <line class="cls-1" x1="146.22" y1="204.91" x2="69.85" y2="118.7"/>
            <line class="cls-1" x1="144.85" y1="206.59" x2="68.48" y2="120.37"/>
            <line class="cls-1" x1="143.49" y1="208.26" x2="67.11" y2="122.05"/>
            <line class="cls-1" x1="142.12" y1="209.94" x2="65.75" y2="123.72"/>
            <line class="cls-1" x1="140.75" y1="211.61" x2="64.38" y2="125.4"/>
            <line class="cls-1" x1="139.39" y1="213.29" x2="63.01" y2="127.07"/>
            <line class="cls-1" x1="138.02" y1="214.96" x2="61.64" y2="128.75"/>
            <line class="cls-1" x1="136.65" y1="216.64" x2="60.28" y2="130.42"/>
            <line class="cls-1" x1="135.29" y1="218.31" x2="58.91" y2="132.1"/>
            <line class="cls-1" x1="133.92" y1="219.99" x2="57.54" y2="133.77"/>
            <line class="cls-1" x1="132.55" y1="221.66" x2="56.18" y2="135.45"/>
            <line class="cls-1" x1="131.19" y1="223.34" x2="54.81" y2="137.12"/>
            <line class="cls-1" x1="129.82" y1="225.01" x2="53.44" y2="138.8"/>
          </g>
        </g>
        <rect class="cls-13" x="53.44" y="131.77" width="33.14" height="10.07"/>
      </g>
      <g>
        <g class="cls-11">
          <g>
            <line class="cls-1" x1="185.86" y1="165.43" x2="109.49" y2="79.21"/>
            <line class="cls-1" x1="184.49" y1="167.1" x2="108.12" y2="80.89"/>
            <line class="cls-1" x1="183.13" y1="168.78" x2="106.75" y2="82.56"/>
            <line class="cls-1" x1="181.76" y1="170.45" x2="105.38" y2="84.24"/>
            <line class="cls-1" x1="180.39" y1="172.13" x2="104.02" y2="85.91"/>
            <line class="cls-1" x1="179.03" y1="173.8" x2="102.65" y2="87.59"/>
            <line class="cls-1" x1="177.66" y1="175.48" x2="101.28" y2="89.26"/>
            <line class="cls-1" x1="176.29" y1="177.15" x2="99.92" y2="90.94"/>
            <line class="cls-1" x1="174.93" y1="178.83" x2="98.55" y2="92.61"/>
            <line class="cls-1" x1="173.56" y1="180.5" x2="97.18" y2="94.29"/>
            <line class="cls-1" x1="172.19" y1="182.18" x2="95.82" y2="95.96"/>
            <line class="cls-1" x1="170.83" y1="183.85" x2="94.45" y2="97.64"/>
            <line class="cls-1" x1="169.46" y1="185.53" x2="93.08" y2="99.31"/>
            <line class="cls-1" x1="168.09" y1="187.2" x2="91.72" y2="100.99"/>
            <line class="cls-1" x1="166.73" y1="188.87" x2="90.35" y2="102.66"/>
            <line class="cls-1" x1="165.36" y1="190.55" x2="88.98" y2="104.34"/>
            <line class="cls-1" x1="163.99" y1="192.22" x2="87.62" y2="106.01"/>
            <line class="cls-1" x1="162.62" y1="193.9" x2="86.25" y2="107.69"/>
            <line class="cls-1" x1="161.26" y1="195.57" x2="84.88" y2="109.36"/>
            <line class="cls-1" x1="159.89" y1="197.25" x2="83.51" y2="111.04"/>
            <line class="cls-1" x1="158.52" y1="198.92" x2="82.15" y2="112.71"/>
            <line class="cls-1" x1="157.16" y1="200.6" x2="80.78" y2="114.39"/>
            <line class="cls-1" x1="155.79" y1="202.27" x2="79.41" y2="116.06"/>
            <line class="cls-1" x1="154.42" y1="203.95" x2="78.05" y2="117.74"/>
            <line class="cls-1" x1="153.06" y1="205.62" x2="76.68" y2="119.41"/>
            <line class="cls-1" x1="151.69" y1="207.3" x2="75.31" y2="121.08"/>
            <line class="cls-1" x1="150.32" y1="208.97" x2="73.95" y2="122.76"/>
            <line class="cls-1" x1="148.96" y1="210.65" x2="72.58" y2="124.43"/>
            <line class="cls-1" x1="147.59" y1="212.32" x2="71.21" y2="126.11"/>
            <line class="cls-1" x1="146.22" y1="214" x2="69.85" y2="127.78"/>
            <line class="cls-1" x1="144.85" y1="215.67" x2="68.48" y2="129.46"/>
            <line class="cls-1" x1="143.49" y1="217.35" x2="67.11" y2="131.13"/>
            <line class="cls-1" x1="142.12" y1="219.02" x2="65.75" y2="132.81"/>
            <line class="cls-1" x1="140.75" y1="220.7" x2="64.38" y2="134.48"/>
            <line class="cls-1" x1="139.39" y1="222.37" x2="63.01" y2="136.16"/>
            <line class="cls-1" x1="138.02" y1="224.05" x2="61.64" y2="137.83"/>
            <line class="cls-1" x1="136.65" y1="225.72" x2="60.28" y2="139.51"/>
            <line class="cls-1" x1="135.29" y1="227.4" x2="58.91" y2="141.18"/>
            <line class="cls-1" x1="133.92" y1="229.07" x2="57.54" y2="142.86"/>
            <line class="cls-1" x1="132.55" y1="230.75" x2="56.18" y2="144.53"/>
            <line class="cls-1" x1="131.19" y1="232.42" x2="54.81" y2="146.21"/>
            <line class="cls-1" x1="129.82" y1="234.1" x2="53.44" y2="147.88"/>
          </g>
        </g>
        <rect class="cls-13" x="53.44" y="146.58" width="35.05" height="10.07"/>
      </g>
      <g>
        <path class="cls-6" d="M56.69,138.06v.59c0,.45,.2,.61,.51,.61s.51-.16,.51-.61v-1.39c0-.45-.2-.62-.51-.62s-.51,.17-.51,.62v.19h-.94l.18-3.65h2.61v.9h-1.72l-.08,1.5c.18-.3,.47-.46,.86-.46,.73,0,1.1,.51,1.1,1.44v1.4c0,1.01-.5,1.58-1.48,1.58s-1.48-.58-1.48-1.58v-.52h.94Z"/>
        <path class="cls-6" d="M60.32,139.14v.95h-.95v-.95h.95Z"/>
        <path class="cls-6" d="M62.49,134.62c-.32,0-.51,.17-.51,.62v.68h-.94v-.61c0-1.01,.5-1.58,1.48-1.58s1.48,.58,1.48,1.58c0,1.98-1.97,2.72-1.97,3.75,0,.04,0,.09,0,.13h1.87v.9h-2.86v-.77c0-1.85,1.96-2.16,1.96-3.98,0-.57-.2-.72-.51-.72Z"/>
      </g>
      <g>
        <path class="cls-6" d="M56.69,152.81v.59c0,.45,.2,.61,.51,.61s.51-.16,.51-.61v-1.39c0-.45-.2-.62-.51-.62s-.51,.17-.51,.62v.19h-.94l.18-3.65h2.61v.9h-1.72l-.08,1.5c.18-.3,.47-.46,.86-.46,.73,0,1.1,.51,1.1,1.44v1.4c0,1.01-.5,1.58-1.48,1.58s-1.48-.58-1.48-1.58v-.52h.94Z"/>
        <path class="cls-6" d="M60.32,153.9v.95h-.95v-.95h.95Z"/>
        <path class="cls-6" d="M61.93,152.81v.59c0,.45,.2,.61,.51,.61s.51-.16,.51-.61v-1.39c0-.45-.2-.62-.51-.62s-.51,.17-.51,.62v.19h-.94l.18-3.65h2.61v.9h-1.72l-.08,1.5c.18-.3,.47-.46,.86-.46,.73,0,1.1,.51,1.1,1.44v1.4c0,1.01-.5,1.58-1.48,1.58s-1.48-.58-1.48-1.58v-.52h.94Z"/>
      </g>
    </g>
    <g>
      <g>
        <g class="cls-7">
          <g>
            <line class="cls-1" x1="264.18" y1="145.58" x2="187.8" y2="59.36"/>
            <line class="cls-1" x1="262.81" y1="147.25" x2="186.43" y2="61.04"/>
            <line class="cls-1" x1="261.44" y1="148.93" x2="185.07" y2="62.71"/>
            <line class="cls-1" x1="260.07" y1="150.6" x2="183.7" y2="64.39"/>
            <line class="cls-1" x1="258.71" y1="152.28" x2="182.33" y2="66.06"/>
            <line class="cls-1" x1="257.34" y1="153.95" x2="180.96" y2="67.74"/>
            <line class="cls-1" x1="255.97" y1="155.62" x2="179.6" y2="69.41"/>
            <line class="cls-1" x1="254.61" y1="157.3" x2="178.23" y2="71.09"/>
            <line class="cls-1" x1="253.24" y1="158.97" x2="176.86" y2="72.76"/>
            <line class="cls-1" x1="251.87" y1="160.65" x2="175.5" y2="74.44"/>
            <line class="cls-1" x1="250.51" y1="162.32" x2="174.13" y2="76.11"/>
            <line class="cls-1" x1="249.14" y1="164" x2="172.76" y2="77.79"/>
            <line class="cls-1" x1="247.77" y1="165.67" x2="171.4" y2="79.46"/>
            <line class="cls-1" x1="246.41" y1="167.35" x2="170.03" y2="81.14"/>
            <line class="cls-1" x1="245.04" y1="169.02" x2="168.66" y2="82.81"/>
            <line class="cls-1" x1="243.67" y1="170.7" x2="167.3" y2="84.49"/>
            <line class="cls-1" x1="242.31" y1="172.37" x2="165.93" y2="86.16"/>
            <line class="cls-1" x1="240.94" y1="174.05" x2="164.56" y2="87.83"/>
            <line class="cls-1" x1="239.57" y1="175.72" x2="163.2" y2="89.51"/>
            <line class="cls-1" x1="238.2" y1="177.4" x2="161.83" y2="91.18"/>
            <line class="cls-1" x1="236.84" y1="179.07" x2="160.46" y2="92.86"/>
            <line class="cls-1" x1="235.47" y1="180.75" x2="159.09" y2="94.53"/>
            <line class="cls-1" x1="234.1" y1="182.42" x2="157.73" y2="96.21"/>
            <line class="cls-1" x1="232.74" y1="184.1" x2="156.36" y2="97.88"/>
            <line class="cls-1" x1="231.37" y1="185.77" x2="154.99" y2="99.56"/>
            <line class="cls-1" x1="230" y1="187.45" x2="153.63" y2="101.23"/>
            <line class="cls-1" x1="228.64" y1="189.12" x2="152.26" y2="102.91"/>
            <line class="cls-1" x1="227.27" y1="190.8" x2="150.89" y2="104.58"/>
            <line class="cls-1" x1="225.9" y1="192.47" x2="149.53" y2="106.26"/>
            <line class="cls-1" x1="224.54" y1="194.15" x2="148.16" y2="107.93"/>
            <line class="cls-1" x1="223.17" y1="195.82" x2="146.79" y2="109.61"/>
            <line class="cls-1" x1="221.8" y1="197.5" x2="145.43" y2="111.28"/>
            <line class="cls-1" x1="220.43" y1="199.17" x2="144.06" y2="112.96"/>
            <line class="cls-1" x1="219.07" y1="200.85" x2="142.69" y2="114.63"/>
            <line class="cls-1" x1="217.7" y1="202.52" x2="141.33" y2="116.31"/>
            <line class="cls-1" x1="216.33" y1="204.2" x2="139.96" y2="117.98"/>
            <line class="cls-1" x1="214.97" y1="205.87" x2="138.59" y2="119.66"/>
            <line class="cls-1" x1="213.6" y1="207.55" x2="137.22" y2="121.33"/>
            <line class="cls-1" x1="212.23" y1="209.22" x2="135.86" y2="123.01"/>
            <line class="cls-1" x1="210.87" y1="210.9" x2="134.49" y2="124.68"/>
            <line class="cls-1" x1="209.5" y1="212.57" x2="133.12" y2="126.36"/>
            <line class="cls-1" x1="208.13" y1="214.25" x2="131.76" y2="128.03"/>
          </g>
        </g>
        <rect class="cls-13" x="131.76" y="131.77" width="37.6" height="10.07"/>
      </g>
      <g>
        <g class="cls-16">
          <g>
            <line class="cls-1" x1="264.18" y1="165.43" x2="187.8" y2="79.21"/>
            <line class="cls-1" x1="262.81" y1="167.1" x2="186.43" y2="80.89"/>
            <line class="cls-1" x1="261.44" y1="168.78" x2="185.07" y2="82.56"/>
            <line class="cls-1" x1="260.07" y1="170.45" x2="183.7" y2="84.24"/>
            <line class="cls-1" x1="258.71" y1="172.13" x2="182.33" y2="85.91"/>
            <line class="cls-1" x1="257.34" y1="173.8" x2="180.96" y2="87.59"/>
            <line class="cls-1" x1="255.97" y1="175.48" x2="179.6" y2="89.26"/>
            <line class="cls-1" x1="254.61" y1="177.15" x2="178.23" y2="90.94"/>
            <line class="cls-1" x1="253.24" y1="178.83" x2="176.86" y2="92.61"/>
            <line class="cls-1" x1="251.87" y1="180.5" x2="175.5" y2="94.29"/>
            <line class="cls-1" x1="250.51" y1="182.18" x2="174.13" y2="95.96"/>
            <line class="cls-1" x1="249.14" y1="183.85" x2="172.76" y2="97.64"/>
            <line class="cls-1" x1="247.77" y1="185.53" x2="171.4" y2="99.31"/>
            <line class="cls-1" x1="246.41" y1="187.2" x2="170.03" y2="100.99"/>
            <line class="cls-1" x1="245.04" y1="188.87" x2="168.66" y2="102.66"/>
            <line class="cls-1" x1="243.67" y1="190.55" x2="167.3" y2="104.34"/>
            <line class="cls-1" x1="242.31" y1="192.22" x2="165.93" y2="106.01"/>
            <line class="cls-1" x1="240.94" y1="193.9" x2="164.56" y2="107.69"/>
            <line class="cls-1" x1="239.57" y1="195.57" x2="163.2" y2="109.36"/>
            <line class="cls-1" x1="238.2" y1="197.25" x2="161.83" y2="111.04"/>
            <line class="cls-1" x1="236.84" y1="198.92" x2="160.46" y2="112.71"/>
            <line class="cls-1" x1="235.47" y1="200.6" x2="159.09" y2="114.39"/>
            <line class="cls-1" x1="234.1" y1="202.27" x2="157.73" y2="116.06"/>
            <line class="cls-1" x1="232.74" y1="203.95" x2="156.36" y2="117.74"/>
            <line class="cls-1" x1="231.37" y1="205.62" x2="154.99" y2="119.41"/>
            <line class="cls-1" x1="230" y1="207.3" x2="153.63" y2="121.08"/>
            <line class="cls-1" x1="228.64" y1="208.97" x2="152.26" y2="122.76"/>
            <line class="cls-1" x1="227.27" y1="210.65" x2="150.89" y2="124.43"/>
            <line class="cls-1" x1="225.9" y1="212.32" x2="149.53" y2="126.11"/>
            <line class="cls-1" x1="224.54" y1="214" x2="148.16" y2="127.78"/>
            <line class="cls-1" x1="223.17" y1="215.67" x2="146.79" y2="129.46"/>
            <line class="cls-1" x1="221.8" y1="217.35" x2="145.43" y2="131.13"/>
            <line class="cls-1" x1="220.43" y1="219.02" x2="144.06" y2="132.81"/>
            <line class="cls-1" x1="219.07" y1="220.7" x2="142.69" y2="134.48"/>
            <line class="cls-1" x1="217.7" y1="222.37" x2="141.33" y2="136.16"/>
            <line class="cls-1" x1="216.33" y1="224.05" x2="139.96" y2="137.83"/>
            <line class="cls-1" x1="214.97" y1="225.72" x2="138.59" y2="139.51"/>
            <line class="cls-1" x1="213.6" y1="227.4" x2="137.22" y2="141.18"/>
            <line class="cls-1" x1="212.23" y1="229.07" x2="135.86" y2="142.86"/>
            <line class="cls-1" x1="210.87" y1="230.75" x2="134.49" y2="144.53"/>
            <line class="cls-1" x1="209.5" y1="232.42" x2="133.12" y2="146.21"/>
            <line class="cls-1" x1="208.13" y1="234.1" x2="131.76" y2="147.88"/>
          </g>
        </g>
        <rect class="cls-13" x="131.76" y="146.58" width="42.06" height="10.07"/>
      </g>
      <g>
        <path class="cls-6" d="M135.01,138.06v.59c0,.45,.2,.61,.51,.61s.51-.16,.51-.61v-1.39c0-.45-.2-.62-.51-.62s-.51,.17-.51,.62v.19h-.94l.18-3.65h2.61v.9h-1.72l-.08,1.5c.18-.3,.47-.46,.86-.46,.73,0,1.1,.51,1.1,1.44v1.4c0,1.01-.5,1.58-1.48,1.58s-1.48-.58-1.48-1.58v-.52h.94Z"/>
        <path class="cls-6" d="M138.64,139.14v.95h-.95v-.95h.95Z"/>
        <path class="cls-6" d="M142.26,138.52c0,1.06-.49,1.64-1.51,1.64-.97,0-1.48-.58-1.48-1.58v-.16h.94v.23c0,.45,.2,.62,.51,.62,.35,0,.55-.17,.55-.77v-1.15c-.17,.36-.48,.56-.92,.56-.73,0-1.1-.51-1.1-1.44v-1.15c0-1.01,.53-1.58,1.5-1.58s1.5,.58,1.5,1.58v3.22Zm-.99-2.15v-1.13c0-.45-.2-.61-.51-.61s-.51,.16-.51,.61v1.13c0,.45,.2,.62,.51,.62s.51-.17,.51-.62Z"/>
      </g>
      <g>
        <path class="cls-6" d="M134.05,150.11c0-1.06,.49-1.64,1.51-1.64,.97,0,1.48,.58,1.48,1.58v.16h-.94v-.23c0-.45-.2-.62-.51-.62-.35,0-.55,.17-.55,.77v1.15c.17-.36,.48-.56,.92-.56,.73,0,1.1,.51,1.1,1.44v1.15c0,1.01-.53,1.58-1.5,1.58s-1.5-.58-1.5-1.58v-3.22Zm.99,2.15v1.13c0,.45,.2,.61,.51,.61s.51-.16,.51-.61v-1.13c0-.45-.2-.62-.51-.62s-.51,.17-.51,.62Z"/>
        <path class="cls-6" d="M138.64,153.9v.95h-.95v-.95h.95Z"/>
        <path class="cls-6" d="M139.29,150.11c0-1.06,.49-1.64,1.51-1.64,.97,0,1.48,.58,1.48,1.58v.16h-.94v-.23c0-.45-.2-.62-.51-.62-.35,0-.55,.17-.55,.77v1.15c.17-.36,.48-.56,.92-.56,.73,0,1.1,.51,1.1,1.44v1.15c0,1.01-.53,1.58-1.5,1.58s-1.5-.58-1.5-1.58v-3.22Zm.99,2.15v1.13c0,.45,.2,.61,.51,.61s.51-.16,.51-.61v-1.13c0-.45-.2-.62-.51-.62s-.51,.17-.51,.62Z"/>
      </g>
    </g>
    <g>
      <g>
        <g class="cls-12">
          <g>
            <line class="cls-1" x1="342.49" y1="140.54" x2="266.11" y2="54.32"/>
            <line class="cls-1" x1="341.12" y1="142.21" x2="264.75" y2="56"/>
            <line class="cls-1" x1="339.76" y1="143.89" x2="263.38" y2="57.67"/>
            <line class="cls-1" x1="338.39" y1="145.56" x2="262.01" y2="59.35"/>
            <line class="cls-1" x1="337.02" y1="147.24" x2="260.64" y2="61.02"/>
            <line class="cls-1" x1="335.65" y1="148.91" x2="259.28" y2="62.7"/>
            <line class="cls-1" x1="334.29" y1="150.59" x2="257.91" y2="64.37"/>
            <line class="cls-1" x1="332.92" y1="152.26" x2="256.54" y2="66.05"/>
            <line class="cls-1" x1="331.55" y1="153.94" x2="255.18" y2="67.72"/>
            <line class="cls-1" x1="330.19" y1="155.61" x2="253.81" y2="69.4"/>
            <line class="cls-1" x1="328.82" y1="157.29" x2="252.44" y2="71.07"/>
            <line class="cls-1" x1="327.45" y1="158.96" x2="251.08" y2="72.75"/>
            <line class="cls-1" x1="326.09" y1="160.64" x2="249.71" y2="74.42"/>
            <line class="cls-1" x1="324.72" y1="162.31" x2="248.34" y2="76.1"/>
            <line class="cls-1" x1="323.35" y1="163.99" x2="246.98" y2="77.77"/>
            <line class="cls-1" x1="321.99" y1="165.66" x2="245.61" y2="79.45"/>
            <line class="cls-1" x1="320.62" y1="167.34" x2="244.24" y2="81.12"/>
            <line class="cls-1" x1="319.25" y1="169.01" x2="242.88" y2="82.8"/>
            <line class="cls-1" x1="317.88" y1="170.69" x2="241.51" y2="84.47"/>
            <line class="cls-1" x1="316.52" y1="172.36" x2="240.14" y2="86.15"/>
            <line class="cls-1" x1="315.15" y1="174.04" x2="238.78" y2="87.82"/>
            <line class="cls-1" x1="313.78" y1="175.71" x2="237.41" y2="89.5"/>
            <line class="cls-1" x1="312.42" y1="177.39" x2="236.04" y2="91.17"/>
            <line class="cls-1" x1="311.05" y1="179.06" x2="234.67" y2="92.85"/>
            <line class="cls-1" x1="309.68" y1="180.74" x2="233.31" y2="94.52"/>
            <line class="cls-1" x1="308.32" y1="182.41" x2="231.94" y2="96.2"/>
            <line class="cls-1" x1="306.95" y1="184.09" x2="230.57" y2="97.87"/>
            <line class="cls-1" x1="305.58" y1="185.76" x2="229.21" y2="99.55"/>
            <line class="cls-1" x1="304.22" y1="187.43" x2="227.84" y2="101.22"/>
            <line class="cls-1" x1="302.85" y1="189.11" x2="226.47" y2="102.9"/>
            <line class="cls-1" x1="301.48" y1="190.78" x2="225.11" y2="104.57"/>
            <line class="cls-1" x1="300.12" y1="192.46" x2="223.74" y2="106.25"/>
            <line class="cls-1" x1="298.75" y1="194.13" x2="222.37" y2="107.92"/>
            <line class="cls-1" x1="297.38" y1="195.81" x2="221.01" y2="109.6"/>
            <line class="cls-1" x1="296.01" y1="197.48" x2="219.64" y2="111.27"/>
            <line class="cls-1" x1="294.65" y1="199.16" x2="218.27" y2="112.95"/>
            <line class="cls-1" x1="293.28" y1="200.83" x2="216.91" y2="114.62"/>
            <line class="cls-1" x1="291.91" y1="202.51" x2="215.54" y2="116.3"/>
            <line class="cls-1" x1="290.55" y1="204.18" x2="214.17" y2="117.97"/>
            <line class="cls-1" x1="289.18" y1="205.86" x2="212.8" y2="119.64"/>
            <line class="cls-1" x1="287.81" y1="207.53" x2="211.44" y2="121.32"/>
            <line class="cls-1" x1="286.45" y1="209.21" x2="210.07" y2="122.99"/>
          </g>
        </g>
        <rect class="cls-13" x="210.07" y="131.77" width="36.32" height="10.07"/>
      </g>
      <g>
        <g class="cls-17">
          <g>
            <line class="cls-1" x1="342.49" y1="151.48" x2="266.11" y2="65.27"/>
            <line class="cls-1" x1="341.12" y1="153.16" x2="264.75" y2="66.94"/>
            <line class="cls-1" x1="339.76" y1="154.83" x2="263.38" y2="68.62"/>
            <line class="cls-1" x1="338.39" y1="156.51" x2="262.01" y2="70.29"/>
            <line class="cls-1" x1="337.02" y1="158.18" x2="260.64" y2="71.97"/>
            <line class="cls-1" x1="335.65" y1="159.86" x2="259.28" y2="73.64"/>
            <line class="cls-1" x1="334.29" y1="161.53" x2="257.91" y2="75.32"/>
            <line class="cls-1" x1="332.92" y1="163.21" x2="256.54" y2="76.99"/>
            <line class="cls-1" x1="331.55" y1="164.88" x2="255.18" y2="78.67"/>
            <line class="cls-1" x1="330.19" y1="166.56" x2="253.81" y2="80.34"/>
            <line class="cls-1" x1="328.82" y1="168.23" x2="252.44" y2="82.02"/>
            <line class="cls-1" x1="327.45" y1="169.91" x2="251.08" y2="83.69"/>
            <line class="cls-1" x1="326.09" y1="171.58" x2="249.71" y2="85.37"/>
            <line class="cls-1" x1="324.72" y1="173.25" x2="248.34" y2="87.04"/>
            <line class="cls-1" x1="323.35" y1="174.93" x2="246.98" y2="88.72"/>
            <line class="cls-1" x1="321.99" y1="176.6" x2="245.61" y2="90.39"/>
            <line class="cls-1" x1="320.62" y1="178.28" x2="244.24" y2="92.07"/>
            <line class="cls-1" x1="319.25" y1="179.95" x2="242.88" y2="93.74"/>
            <line class="cls-1" x1="317.88" y1="181.63" x2="241.51" y2="95.42"/>
            <line class="cls-1" x1="316.52" y1="183.3" x2="240.14" y2="97.09"/>
            <line class="cls-1" x1="315.15" y1="184.98" x2="238.78" y2="98.77"/>
            <line class="cls-1" x1="313.78" y1="186.65" x2="237.41" y2="100.44"/>
            <line class="cls-1" x1="312.42" y1="188.33" x2="236.04" y2="102.12"/>
            <line class="cls-1" x1="311.05" y1="190" x2="234.67" y2="103.79"/>
            <line class="cls-1" x1="309.68" y1="191.68" x2="233.31" y2="105.46"/>
            <line class="cls-1" x1="308.32" y1="193.35" x2="231.94" y2="107.14"/>
            <line class="cls-1" x1="306.95" y1="195.03" x2="230.57" y2="108.81"/>
            <line class="cls-1" x1="305.58" y1="196.7" x2="229.21" y2="110.49"/>
            <line class="cls-1" x1="304.22" y1="198.38" x2="227.84" y2="112.16"/>
            <line class="cls-1" x1="302.85" y1="200.05" x2="226.47" y2="113.84"/>
            <line class="cls-1" x1="301.48" y1="201.73" x2="225.11" y2="115.51"/>
            <line class="cls-1" x1="300.12" y1="203.4" x2="223.74" y2="117.19"/>
            <line class="cls-1" x1="298.75" y1="205.08" x2="222.37" y2="118.86"/>
            <line class="cls-1" x1="297.38" y1="206.75" x2="221.01" y2="120.54"/>
            <line class="cls-1" x1="296.01" y1="208.43" x2="219.64" y2="122.21"/>
            <line class="cls-1" x1="294.65" y1="210.1" x2="218.27" y2="123.89"/>
            <line class="cls-1" x1="293.28" y1="211.78" x2="216.91" y2="125.56"/>
            <line class="cls-1" x1="291.91" y1="213.45" x2="215.54" y2="127.24"/>
            <line class="cls-1" x1="290.55" y1="215.13" x2="214.17" y2="128.91"/>
            <line class="cls-1" x1="289.18" y1="216.8" x2="212.8" y2="130.59"/>
            <line class="cls-1" x1="287.81" y1="218.48" x2="211.44" y2="132.26"/>
            <line class="cls-1" x1="286.45" y1="220.15" x2="210.07" y2="133.94"/>
          </g>
        </g>
        <rect class="cls-13" x="210.07" y="146.58" width="34.41" height="10.07"/>
      </g>
      <g>
        <path class="cls-6" d="M213.32,138.06v.59c0,.45,.2,.61,.51,.61s.51-.16,.51-.61v-1.39c0-.45-.2-.62-.51-.62s-.51,.17-.51,.62v.19h-.94l.18-3.65h2.61v.9h-1.72l-.08,1.5c.18-.3,.47-.46,.86-.46,.73,0,1.1,.51,1.1,1.44v1.4c0,1.01-.5,1.58-1.48,1.58s-1.48-.58-1.48-1.58v-.52h.94Z"/>
        <path class="cls-6" d="M216.95,139.14v.95h-.95v-.95h.95Z"/>
        <path class="cls-6" d="M220.58,133.79v.86l-1.46,5.44h-.99l1.45-5.4h-1.97v-.9h2.97Z"/>
      </g>
      <g>
        <path class="cls-6" d="M213.32,152.81v.59c0,.45,.2,.61,.51,.61s.51-.16,.51-.61v-1.39c0-.45-.2-.62-.51-.62s-.51,.17-.51,.62v.19h-.94l.18-3.65h2.61v.9h-1.72l-.08,1.5c.18-.3,.47-.46,.86-.46,.73,0,1.1,.51,1.1,1.44v1.4c0,1.01-.5,1.58-1.48,1.58s-1.48-.58-1.48-1.58v-.52h.94Z"/>
        <path class="cls-6" d="M216.95,153.9v.95h-.95v-.95h.95Z"/>
        <path class="cls-6" d="M217.43,152.81l1.8-4.26h1.08v4.26h.47v.9h-.47v1.14h-.97v-1.14h-1.91v-.9Zm1.91,0v-2.37l-1,2.37h1Z"/>
      </g>
    </g>
    <g>
      <g>
        <g class="cls-8">
          <g>
            <line class="cls-1" x1="420.8" y1="140.54" x2="344.43" y2="54.32"/>
            <line class="cls-1" x1="419.44" y1="142.21" x2="343.06" y2="56"/>
            <line class="cls-1" x1="418.07" y1="143.89" x2="341.69" y2="57.67"/>
            <line class="cls-1" x1="416.7" y1="145.56" x2="340.33" y2="59.35"/>
            <line class="cls-1" x1="415.33" y1="147.24" x2="338.96" y2="61.02"/>
            <line class="cls-1" x1="413.97" y1="148.91" x2="337.59" y2="62.7"/>
            <line class="cls-1" x1="412.6" y1="150.59" x2="336.22" y2="64.37"/>
            <line class="cls-1" x1="411.23" y1="152.26" x2="334.86" y2="66.05"/>
            <line class="cls-1" x1="409.87" y1="153.94" x2="333.49" y2="67.72"/>
            <line class="cls-1" x1="408.5" y1="155.61" x2="332.12" y2="69.4"/>
            <line class="cls-1" x1="407.13" y1="157.29" x2="330.76" y2="71.07"/>
            <line class="cls-1" x1="405.77" y1="158.96" x2="329.39" y2="72.75"/>
            <line class="cls-1" x1="404.4" y1="160.64" x2="328.02" y2="74.42"/>
            <line class="cls-1" x1="403.03" y1="162.31" x2="326.66" y2="76.1"/>
            <line class="cls-1" x1="401.67" y1="163.99" x2="325.29" y2="77.77"/>
            <line class="cls-1" x1="400.3" y1="165.66" x2="323.92" y2="79.45"/>
            <line class="cls-1" x1="398.93" y1="167.34" x2="322.56" y2="81.12"/>
            <line class="cls-1" x1="397.57" y1="169.01" x2="321.19" y2="82.8"/>
            <line class="cls-1" x1="396.2" y1="170.69" x2="319.82" y2="84.47"/>
            <line class="cls-1" x1="394.83" y1="172.36" x2="318.46" y2="86.15"/>
            <line class="cls-1" x1="393.46" y1="174.04" x2="317.09" y2="87.82"/>
            <line class="cls-1" x1="392.1" y1="175.71" x2="315.72" y2="89.5"/>
            <line class="cls-1" x1="390.73" y1="177.39" x2="314.35" y2="91.17"/>
            <line class="cls-1" x1="389.36" y1="179.06" x2="312.99" y2="92.85"/>
            <line class="cls-1" x1="388" y1="180.74" x2="311.62" y2="94.52"/>
            <line class="cls-1" x1="386.63" y1="182.41" x2="310.25" y2="96.2"/>
            <line class="cls-1" x1="385.26" y1="184.09" x2="308.89" y2="97.87"/>
            <line class="cls-1" x1="383.9" y1="185.76" x2="307.52" y2="99.55"/>
            <line class="cls-1" x1="382.53" y1="187.43" x2="306.15" y2="101.22"/>
            <line class="cls-1" x1="381.16" y1="189.11" x2="304.79" y2="102.9"/>
            <line class="cls-1" x1="379.8" y1="190.78" x2="303.42" y2="104.57"/>
            <line class="cls-1" x1="378.43" y1="192.46" x2="302.05" y2="106.25"/>
            <line class="cls-1" x1="377.06" y1="194.13" x2="300.69" y2="107.92"/>
            <line class="cls-1" x1="375.7" y1="195.81" x2="299.32" y2="109.6"/>
            <line class="cls-1" x1="374.33" y1="197.48" x2="297.95" y2="111.27"/>
            <line class="cls-1" x1="372.96" y1="199.16" x2="296.59" y2="112.95"/>
            <line class="cls-1" x1="371.59" y1="200.83" x2="295.22" y2="114.62"/>
            <line class="cls-1" x1="370.23" y1="202.51" x2="293.85" y2="116.3"/>
            <line class="cls-1" x1="368.86" y1="204.18" x2="292.48" y2="117.97"/>
            <line class="cls-1" x1="367.49" y1="205.86" x2="291.12" y2="119.64"/>
            <line class="cls-1" x1="366.13" y1="207.53" x2="289.75" y2="121.32"/>
            <line class="cls-1" x1="364.76" y1="209.21" x2="288.38" y2="122.99"/>
          </g>
        </g>
        <rect class="cls-14" x="288.38" y="131.77" width="36.32" height="10.07"/>
      </g>
      <g>
        <g class="cls-10">
          <g>
            <line class="cls-1" x1="420.8" y1="156.52" x2="344.43" y2="70.3"/>
            <line class="cls-1" x1="419.44" y1="158.19" x2="343.06" y2="71.98"/>
            <line class="cls-1" x1="418.07" y1="159.87" x2="341.69" y2="73.65"/>
            <line class="cls-1" x1="416.7" y1="161.54" x2="340.33" y2="75.33"/>
            <line class="cls-1" x1="415.33" y1="163.22" x2="338.96" y2="77"/>
            <line class="cls-1" x1="413.97" y1="164.89" x2="337.59" y2="78.68"/>
            <line class="cls-1" x1="412.6" y1="166.57" x2="336.22" y2="80.35"/>
            <line class="cls-1" x1="411.23" y1="168.24" x2="334.86" y2="82.03"/>
            <line class="cls-1" x1="409.87" y1="169.92" x2="333.49" y2="83.7"/>
            <line class="cls-1" x1="408.5" y1="171.59" x2="332.12" y2="85.38"/>
            <line class="cls-1" x1="407.13" y1="173.27" x2="330.76" y2="87.05"/>
            <line class="cls-1" x1="405.77" y1="174.94" x2="329.39" y2="88.73"/>
            <line class="cls-1" x1="404.4" y1="176.62" x2="328.02" y2="90.4"/>
            <line class="cls-1" x1="403.03" y1="178.29" x2="326.66" y2="92.08"/>
            <line class="cls-1" x1="401.67" y1="179.97" x2="325.29" y2="93.75"/>
            <line class="cls-1" x1="400.3" y1="181.64" x2="323.92" y2="95.43"/>
            <line class="cls-1" x1="398.93" y1="183.32" x2="322.56" y2="97.1"/>
            <line class="cls-1" x1="397.57" y1="184.99" x2="321.19" y2="98.78"/>
            <line class="cls-1" x1="396.2" y1="186.67" x2="319.82" y2="100.45"/>
            <line class="cls-1" x1="394.83" y1="188.34" x2="318.46" y2="102.13"/>
            <line class="cls-1" x1="393.46" y1="190.02" x2="317.09" y2="103.8"/>
            <line class="cls-1" x1="392.1" y1="191.69" x2="315.72" y2="105.48"/>
            <line class="cls-1" x1="390.73" y1="193.37" x2="314.35" y2="107.15"/>
            <line class="cls-1" x1="389.36" y1="195.04" x2="312.99" y2="108.83"/>
            <line class="cls-1" x1="388" y1="196.72" x2="311.62" y2="110.5"/>
            <line class="cls-1" x1="386.63" y1="198.39" x2="310.25" y2="112.18"/>
            <line class="cls-1" x1="385.26" y1="200.07" x2="308.89" y2="113.85"/>
            <line class="cls-1" x1="383.9" y1="201.74" x2="307.52" y2="115.53"/>
            <line class="cls-1" x1="382.53" y1="203.41" x2="306.15" y2="117.2"/>
            <line class="cls-1" x1="381.16" y1="205.09" x2="304.79" y2="118.88"/>
            <line class="cls-1" x1="379.8" y1="206.76" x2="303.42" y2="120.55"/>
            <line class="cls-1" x1="378.43" y1="208.44" x2="302.05" y2="122.23"/>
            <line class="cls-1" x1="377.06" y1="210.11" x2="300.69" y2="123.9"/>
            <line class="cls-1" x1="375.7" y1="211.79" x2="299.32" y2="125.58"/>
            <line class="cls-1" x1="374.33" y1="213.46" x2="297.95" y2="127.25"/>
            <line class="cls-1" x1="372.96" y1="215.14" x2="296.59" y2="128.93"/>
            <line class="cls-1" x1="371.59" y1="216.81" x2="295.22" y2="130.6"/>
            <line class="cls-1" x1="370.23" y1="218.49" x2="293.85" y2="132.28"/>
            <line class="cls-1" x1="368.86" y1="220.16" x2="292.48" y2="133.95"/>
            <line class="cls-1" x1="367.49" y1="221.84" x2="291.12" y2="135.62"/>
            <line class="cls-1" x1="366.13" y1="223.51" x2="289.75" y2="137.3"/>
            <line class="cls-1" x1="364.76" y1="225.19" x2="288.38" y2="138.97"/>
          </g>
        </g>
        <rect class="cls-14" x="288.38" y="146.58" width="33.78" height="10.07"/>
      </g>
      <g>
        <path class="cls-6" d="M291.63,138.06v.59c0,.45,.2,.61,.51,.61s.51-.16,.51-.61v-1.39c0-.45-.2-.62-.51-.62s-.51,.17-.51,.62v.19h-.94l.18-3.65h2.61v.9h-1.72l-.08,1.5c.18-.3,.47-.46,.86-.46,.73,0,1.1,.51,1.1,1.44v1.4c0,1.01-.5,1.58-1.48,1.58s-1.48-.58-1.48-1.58v-.52h.94Z"/>
        <path class="cls-6" d="M295.26,139.14v.95h-.95v-.95h.95Z"/>
        <path class="cls-6" d="M298.89,133.79v.86l-1.46,5.44h-.99l1.45-5.4h-1.97v-.9h2.97Z"/>
      </g>
      <g>
        <path class="cls-6" d="M291.63,152.81v.59c0,.45,.2,.61,.51,.61s.51-.16,.51-.61v-1.39c0-.45-.2-.62-.51-.62s-.51,.17-.51,.62v.19h-.94l.18-3.65h2.61v.9h-1.72l-.08,1.5c.18-.3,.47-.46,.86-.46,.73,0,1.1,.51,1.1,1.44v1.4c0,1.01-.5,1.58-1.48,1.58s-1.48-.58-1.48-1.58v-.52h.94Z"/>
        <path class="cls-6" d="M295.26,153.9v.95h-.95v-.95h.95Z"/>
        <path class="cls-6" d="M297.89,150.1c0-.57-.2-.72-.51-.72s-.51,.17-.51,.62v.41h-.94v-.34c0-1.01,.5-1.58,1.48-1.58s1.48,.58,1.48,1.58v.16c0,.68-.22,1.1-.69,1.3,.5,.22,.69,.68,.69,1.32v.5c0,1.01-.5,1.58-1.48,1.58s-1.48-.58-1.48-1.58v-.52h.94v.59c0,.45,.2,.62,.51,.62s.51-.15,.51-.71v-.5c0-.58-.2-.8-.65-.8h-.33v-.9h.39c.37,0,.59-.16,.59-.67v-.35Z"/>
      </g>
    </g>
    <g>
      <line class="cls-3" x1="221.37" y1="108.21" x2="221.37" y2="108.21"/>
      <line class="cls-5" x1="224.31" y1="108.21" x2="349.23" y2="108.21"/>
      <line class="cls-3" x1="350.7" y1="108.21" x2="350.7" y2="108.21"/>
    </g>
    <g>
      <line class="cls-3" x1="54.24" y1="108.48" x2="54.24" y2="108.48"/>
      <line class="cls-2" x1="57.17" y1="108.47" x2="143.74" y2="108.22"/>
      <line class="cls-3" x1="145.21" y1="108.21" x2="145.21" y2="108.21"/>
    </g>
  </g>
</svg>