<?xml version="1.0" encoding="UTF-8"?>
<svg id="Layer_2" data-name="Layer 2" xmlns="http://www.w3.org/2000/svg" xmlns:xlink="http://www.w3.org/1999/xlink" viewBox="0 0 269.11 254.57">
  <defs>
    <style>
      .cls-1, .cls-2 {
        fill: #fff;
      }

      .cls-3 {
        fill: #939598;
      }

      .cls-4 {
        fill: #fedec7;
      }

      .cls-2, .cls-5, .cls-6, .cls-7, .cls-8, .cls-9 {
        stroke-miterlimit: 10;
      }

      .cls-2, .cls-6 {
        stroke: #fff;
      }

      .cls-2, .cls-8 {
        stroke-width: .5px;
      }

      .cls-10 {
        clip-path: url(#clippath-2);
      }

      .cls-11 {
        fill: #fab284;
      }

      .cls-5 {
        stroke-width: 2px;
      }

      .cls-5, .cls-7, .cls-12, .cls-13, .cls-14, .cls-8, .cls-9 {
        fill: none;
      }

      .cls-5, .cls-9 {
        stroke: #f36e24;
      }

      .cls-15, .cls-6 {
        fill: #f36e24;
      }

      .cls-6 {
        stroke-width: 1.2px;
      }

      .cls-16 {
        clip-path: url(#clippath-1);
      }

      .cls-7 {
        stroke: #a64324;
      }

      .cls-12 {
        stroke-dasharray: 0 0 0 2.9;
      }

      .cls-12, .cls-13 {
        stroke-linecap: round;
        stroke-linejoin: round;
        stroke-width: 1.75px;
      }

      .cls-12, .cls-13, .cls-8 {
        stroke: #939598;
      }

      .cls-17 {
        clip-path: url(#clippath);
      }

      .cls-18 {
        clip-path: url(#clippath-3);
      }

      .cls-19 {
        fill: #a64324;
      }

      .cls-20 {
        fill: url(#linear-gradient);
      }

      .cls-21 {
        fill: #fdfbfb;
      }
    </style>
    <clipPath id="clippath">
      <circle class="cls-14" cx="178.69" cy="121.19" r="18.02"/>
    </clipPath>
    <clipPath id="clippath-1">
      <circle class="cls-14" cx="238.16" cy="199.48" r="18.02"/>
    </clipPath>
    <clipPath id="clippath-2">
      <circle class="cls-14" cx="180.46" cy="199.48" r="18.02"/>
    </clipPath>
    <clipPath id="clippath-3">
      <path class="cls-14" d="M233.32,102.9c-5.72,0-10.35,4.76-10.35,10.63,0,1.37,.26,2.72,.76,3.99,.06,.16,.13,.31,.2,.47,.45,1,1.05,1.92,1.78,2.74l2.63,4.04h9.98l2.63-4.04c.73-.82,1.33-1.74,1.78-2.74,.07-.15,.13-.31,.2-.47,.5-1.27,.76-2.62,.76-3.99,0-5.87-4.64-10.63-10.36-10.63Z"/>
    </clipPath>
    <linearGradient id="linear-gradient" x1="78.66" y1="107.35" x2="78.66" y2="226.57" gradientUnits="userSpaceOnUse">
      <stop offset="0" stop-color="#fff"/>
      <stop offset=".21" stop-color="#fce3d5"/>
      <stop offset=".68" stop-color="#f79e6d"/>
      <stop offset="1" stop-color="#f36e24"/>
    </linearGradient>
  </defs>
  <g id="Layer_2-2" data-name="Layer 2">
    <g>
      <path class="cls-15" d="M.8,19.04V6.16C.8,2.24,2.76,0,6.54,0s5.74,2.24,5.74,6.16v2.1h-3.64v-2.35c0-1.75-.77-2.42-2-2.42s-2,.67-2,2.42v13.41c0,1.75,.77,2.38,2,2.38s2-.63,2-2.38v-4.8h-1.93v-3.5h5.57v8.02c0,3.92-1.96,6.16-5.74,6.16S.8,22.96,.8,19.04Z"/>
      <path class="cls-15" d="M15.22,.35h3.85V21.35h6.34v3.5H15.22V.35Z"/>
      <path class="cls-15" d="M27.29,19.04V6.16c0-3.92,2.07-6.16,5.85-6.16s5.85,2.24,5.85,6.16v12.88c0,3.92-2.07,6.16-5.85,6.16s-5.85-2.24-5.85-6.16Zm7.84,.25V5.92c0-1.75-.77-2.42-2-2.42s-2,.67-2,2.42v13.37c0,1.75,.77,2.42,2,2.42s2-.67,2-2.42Z"/>
      <path class="cls-15" d="M42.03,.35h5.81c3.99,0,5.71,1.85,5.71,5.64v.98c0,2.52-.77,4.1-2.49,4.8v.07c2.07,.7,2.87,2.52,2.87,5.11v2.1c0,3.78-2,5.81-5.84,5.81h-6.06V.35Zm5.36,9.98c1.43,0,2.31-.63,2.31-2.59v-1.37c0-1.75-.59-2.52-1.96-2.52h-1.86v6.48h1.51Zm.7,11.03c1.29,0,2-.59,2-2.42v-2.14c0-2.28-.74-2.98-2.49-2.98h-1.72v7.53h2.21Z"/>
      <path class="cls-15" d="M59.6,.35h5.22l3.99,24.5h-3.85l-.7-4.87v.07h-4.38l-.7,4.8h-3.57L59.6,.35Zm4.2,16.38l-1.72-12.11h-.07l-1.68,12.11h3.47Z"/>
      <path class="cls-15" d="M71.11,.35h3.85V21.35h6.34v3.5h-10.19V.35Z"/>
      <path class="cls-15" d="M89.66,.35h5.5l2.45,17.54h.07L100.13,.35h5.5V24.85h-3.64V6.3h-.07l-2.8,18.55h-3.22l-2.8-18.55h-.07V24.85h-3.36V.35Z"/>
      <path class="cls-15" d="M111.92,.35h5.22l3.99,24.5h-3.85l-.7-4.87v.07h-4.38l-.7,4.8h-3.57L111.92,.35Zm4.2,16.38l-1.72-12.11h-.07l-1.68,12.11h3.47Z"/>
      <path class="cls-15" d="M123.43,.35h4.83l3.75,14.67h.07V.35h3.43V24.85h-3.96l-4.62-17.89h-.07V24.85h-3.43V.35Z"/>
      <path class="cls-15" d="M138.69,19.04V.35h3.85V19.32c0,1.75,.74,2.38,1.96,2.38s1.96-.63,1.96-2.38V.35h3.71V19.04c0,3.92-1.96,6.16-5.74,6.16s-5.74-2.24-5.74-6.16Z"/>
      <path class="cls-15" d="M153.36,.35h10.19V3.85h-6.34v6.83h4.97v3.5h-4.97v10.68h-3.85V.35Z"/>
      <path class="cls-15" d="M167.71,.35h5.22l3.99,24.5h-3.85l-.7-4.87v.07h-4.38l-.7,4.8h-3.57L167.71,.35Zm4.2,16.38l-1.72-12.11h-.07l-1.68,12.11h3.47Z"/>
      <path class="cls-15" d="M178.91,19.18V6.02c0-3.78,1.96-6.02,5.67-6.02s5.67,2.24,5.67,6.02v2.59h-3.64v-2.84c0-1.61-.77-2.27-1.92-2.27s-1.92,.67-1.92,2.27v13.69c0,1.61,.77,2.24,1.92,2.24s1.92-.63,1.92-2.24v-3.75h3.64v3.47c0,3.78-1.96,6.02-5.67,6.02s-5.67-2.24-5.67-6.02Z"/>
      <path class="cls-15" d="M196.02,3.85h-4.03V.35h11.9V3.85h-4.03V24.85h-3.85V3.85Z"/>
      <path class="cls-15" d="M206.07,19.04V.35h3.85V19.32c0,1.75,.74,2.38,1.96,2.38s1.96-.63,1.96-2.38V.35h3.71V19.04c0,3.92-1.96,6.16-5.74,6.16s-5.74-2.24-5.74-6.16Z"/>
      <path class="cls-15" d="M220.73,.35h5.71c3.99,0,5.71,1.85,5.71,5.64v1.51c0,2.52-.81,4.13-2.52,4.83v.07c1.92,.6,2.56,2.42,2.56,5.18v4.31c0,1.19,.03,2.06,.42,2.98h-3.92c-.21-.63-.35-1.02-.35-3.01v-4.48c0-2.28-.67-3.01-2.42-3.01h-1.33v10.5h-3.85V.35Zm5.25,10.5c1.44,0,2.31-.63,2.31-2.59v-1.89c0-1.75-.59-2.52-1.96-2.52h-1.75v7h1.4Z"/>
      <path class="cls-15" d="M235.3,.35h3.85V24.85h-3.85V.35Z"/>
      <path class="cls-15" d="M242.47,.35h4.83l3.75,14.67h.07V.35h3.43V24.85h-3.96l-4.62-17.89h-.07V24.85h-3.43V.35Z"/>
      <path class="cls-15" d="M257.59,19.04V6.16c0-3.92,1.96-6.16,5.74-6.16s5.74,2.24,5.74,6.16v2.1h-3.64v-2.35c0-1.75-.77-2.42-2-2.42s-2,.67-2,2.42v13.41c0,1.75,.77,2.38,2,2.38s2-.63,2-2.38v-4.8h-1.93v-3.5h5.57v8.02c0,3.92-1.96,6.16-5.74,6.16s-5.74-2.24-5.74-6.16Z"/>
    </g>
    <g>
      <path class="cls-3" d="M58.52,47.46v-7.73c0-2.35,1.18-3.7,3.44-3.7s3.44,1.34,3.44,3.7v1.26h-2.18v-1.41c0-1.05-.46-1.45-1.2-1.45s-1.2,.4-1.2,1.45v8.04c0,1.05,.46,1.43,1.2,1.43s1.2-.38,1.2-1.43v-2.88h-1.15v-2.1h3.34v4.81c0,2.35-1.18,3.7-3.44,3.7s-3.44-1.34-3.44-3.7Z"/>
      <path class="cls-3" d="M67.42,36.25h3.42c2.39,0,3.42,1.11,3.42,3.38v.9c0,1.51-.48,2.48-1.51,2.9v.04c1.15,.36,1.53,1.45,1.53,3.11v2.58c0,.71,.02,1.24,.25,1.78h-2.35c-.13-.38-.21-.61-.21-1.81v-2.69c0-1.36-.4-1.81-1.45-1.81h-.8v6.3h-2.31v-14.7Zm3.15,6.3c.86,0,1.38-.38,1.38-1.55v-1.13c0-1.05-.36-1.51-1.18-1.51h-1.05v4.2h.84Z"/>
      <path class="cls-3" d="M76.24,47.46v-7.73c0-2.35,1.24-3.7,3.51-3.7s3.51,1.34,3.51,3.7v7.73c0,2.35-1.24,3.7-3.51,3.7s-3.51-1.34-3.51-3.7Zm4.7,.15v-8.02c0-1.05-.46-1.45-1.2-1.45s-1.2,.4-1.2,1.45v8.02c0,1.05,.46,1.45,1.2,1.45s1.2-.4,1.2-1.45Z"/>
      <path class="cls-3" d="M84.79,36.25h2.23l1.03,11.3h.04l1.09-11.3h2.52l1.09,11.3h.04l1.03-11.3h2l-1.49,14.7h-2.88l-1.05-9.91h-.04l-1.05,9.91h-3.07l-1.49-14.7Z"/>
      <path class="cls-3" d="M99.45,38.35h-2.42v-2.1h7.14v2.1h-2.42v12.6h-2.31v-12.6Z"/>
      <path class="cls-3" d="M105.81,36.25h2.31v5.98h2.48v-5.98h2.31v14.7h-2.31v-6.61h-2.48v6.61h-2.31v-14.7Z"/>
      <path class="cls-3" d="M118.64,47.46v-.84h2.18v1.01c0,1.05,.46,1.43,1.2,1.43s1.2-.38,1.2-1.47c0-1.22-.46-1.99-1.97-3.32-1.93-1.7-2.56-2.9-2.56-4.58,0-2.31,1.2-3.65,3.44-3.65s3.36,1.34,3.36,3.7v.61h-2.18v-.76c0-1.05-.42-1.45-1.16-1.45s-1.15,.4-1.15,1.41c0,1.07,.48,1.85,1.99,3.17,1.93,1.7,2.54,2.88,2.54,4.7,0,2.39-1.22,3.74-3.49,3.74s-3.4-1.34-3.4-3.7Z"/>
      <path class="cls-3" d="M127.38,36.25h2.31v12.6h3.8v2.1h-6.11v-14.7Z"/>
      <path class="cls-3" d="M134.88,47.46v-7.73c0-2.35,1.24-3.7,3.51-3.7s3.51,1.34,3.51,3.7v7.73c0,2.35-1.24,3.7-3.51,3.7s-3.51-1.34-3.51-3.7Zm4.7,.15v-8.02c0-1.05-.46-1.45-1.2-1.45s-1.2,.4-1.2,1.45v8.02c0,1.05,.46,1.45,1.2,1.45s1.2-.4,1.2-1.45Z"/>
      <path class="cls-3" d="M143.42,36.25h2.23l1.03,11.3h.04l1.09-11.3h2.52l1.09,11.3h.04l1.03-11.3h2l-1.49,14.7h-2.88l-1.05-9.91h-.04l-1.05,9.91h-3.07l-1.49-14.7Z"/>
      <path class="cls-3" d="M156.19,36.25h6.3v2.1h-3.99v3.88h3.17v2.1h-3.17v4.51h3.99v2.1h-6.3v-14.7Z"/>
      <path class="cls-3" d="M164.34,36.25h3.53c2.31,0,3.44,1.28,3.44,3.63v7.43c0,2.35-1.13,3.63-3.44,3.63h-3.53v-14.7Zm3.49,12.6c.73,0,1.18-.38,1.18-1.43v-7.64c0-1.05-.44-1.43-1.18-1.43h-1.18v10.5h1.18Z"/>
      <path class="cls-3" d="M177.28,36.25h6.11v2.1h-3.8v4.09h2.98v2.1h-2.98v6.4h-2.31v-14.7Z"/>
      <path class="cls-3" d="M185.02,36.25h3.42c2.39,0,3.42,1.11,3.42,3.38v.9c0,1.51-.48,2.48-1.51,2.9v.04c1.15,.36,1.53,1.45,1.53,3.11v2.58c0,.71,.02,1.24,.25,1.78h-2.35c-.13-.38-.21-.61-.21-1.81v-2.69c0-1.36-.4-1.81-1.45-1.81h-.8v6.3h-2.31v-14.7Zm3.15,6.3c.86,0,1.38-.38,1.38-1.55v-1.13c0-1.05-.36-1.51-1.18-1.51h-1.05v4.2h.84Z"/>
      <path class="cls-3" d="M193.84,47.46v-7.73c0-2.35,1.24-3.7,3.51-3.7s3.51,1.34,3.51,3.7v7.73c0,2.35-1.24,3.7-3.51,3.7s-3.51-1.34-3.51-3.7Zm4.7,.15v-8.02c0-1.05-.46-1.45-1.2-1.45s-1.2,.4-1.2,1.45v8.02c0,1.05,.46,1.45,1.2,1.45s1.2-.4,1.2-1.45Z"/>
      <path class="cls-3" d="M202.94,36.25h3.3l1.47,10.52h.04l1.47-10.52h3.3v14.7h-2.18v-11.13h-.04l-1.68,11.13h-1.93l-1.68-11.13h-.04v11.13h-2.02v-14.7Z"/>
    </g>
    <rect class="cls-4" y="40.21" width="46.58" height="6.24"/>
    <rect class="cls-4" x="222.53" y="40.21" width="46.58" height="6.24"/>
    <g>
      <rect class="cls-3" x="185.84" y="78.04" width="43.88" height="13.42"/>
      <g>
        <path class="cls-1" d="M195.55,80.57h2.01c1.32,0,1.97,.73,1.97,2.08v4.25c0,1.34-.65,2.07-1.97,2.07h-2.01v-8.4Zm1.99,7.2c.42,0,.67-.22,.67-.82v-4.37c0-.6-.25-.82-.67-.82h-.67v6h.67Z"/>
        <path class="cls-1" d="M200.61,86.98v-6.4h1.32v6.5c0,.6,.25,.82,.67,.82s.67-.22,.67-.82v-6.5h1.27v6.4c0,1.34-.67,2.11-1.97,2.11s-1.97-.77-1.97-2.11Z"/>
        <path class="cls-1" d="M205.72,80.57h3.6v1.2h-2.28v2.22h1.81v1.2h-1.81v2.58h2.28v1.2h-3.6v-8.4Z"/>
        <path class="cls-1" d="M213.51,81.77h-1.38v-1.2h4.08v1.2h-1.38v7.2h-1.32v-7.2Z"/>
        <path class="cls-1" d="M216.99,86.98v-4.41c0-1.34,.71-2.11,2-2.11s2,.77,2,2.11v4.41c0,1.34-.71,2.11-2,2.11s-2-.77-2-2.11Zm2.69,.08v-4.58c0-.6-.26-.83-.68-.83s-.68,.23-.68,.83v4.58c0,.6,.26,.83,.68,.83s.68-.23,.68-.83Z"/>
      </g>
    </g>
    <g>
      <g>
        <path class="cls-19" d="M166.07,150.29h.99v6.3h-.99v-6.3Z"/>
        <path class="cls-19" d="M167.8,150.29h1.24l.96,3.77h.02v-3.77h.88v6.3h-1.02l-1.19-4.6h-.02v4.6h-.88v-6.3Z"/>
        <path class="cls-19" d="M171.64,150.29h2.62v.9h-1.63v1.76h1.28v.9h-1.28v2.75h-.99v-6.3Z"/>
        <path class="cls-19" d="M174.74,150.29h.99v5.4h1.63v.9h-2.62v-6.3Z"/>
        <path class="cls-19" d="M178.64,150.29h1.34l1.03,6.3h-.99l-.18-1.25v.02h-1.13l-.18,1.23h-.92l1.03-6.3Zm1.08,4.21l-.44-3.11h-.02l-.43,3.11h.89Z"/>
        <path class="cls-19" d="M181.84,151.19h-1.04v-.9h3.06v.9h-1.04v5.4h-.99v-5.4Z"/>
        <path class="cls-19" d="M184.34,150.29h.99v6.3h-.99v-6.3Z"/>
        <path class="cls-19" d="M186,155.1v-3.31c0-1.01,.53-1.58,1.5-1.58s1.5,.58,1.5,1.58v3.31c0,1.01-.53,1.58-1.5,1.58s-1.5-.58-1.5-1.58Zm2.02,.06v-3.44c0-.45-.2-.62-.51-.62s-.51,.17-.51,.62v3.44c0,.45,.2,.62,.51,.62s.51-.17,.51-.62Z"/>
        <path class="cls-19" d="M189.67,150.29h1.24l.96,3.77h.02v-3.77h.88v6.3h-1.02l-1.19-4.6h-.02v4.6h-.88v-6.3Z"/>
      </g>
      <g>
        <g class="cls-17">
          <g>
            <path class="cls-15" d="M178.54,141.3c0,.36,.29,.66,.66,.66h5.73c.36,0,.66-.29,.66-.66v-23.9l-7,4.59-.04,19.3Z"/>
            <path class="cls-15" d="M170.02,141.3c0,.36,.29,.66,.66,.66h5.73c.36,0,.66-.29,.66-.66v-18.3l-7,4.59-.04,13.71Z"/>
            <path class="cls-15" d="M161.6,141.3c0,.36,.29,.66,.66,.66h5.72c.36,0,.66-.29,.66-.66v-12.78l-7.04,4.59v8.2Z"/>
            <path class="cls-19" d="M187.19,116.31l2.57-5.2c.12-.17,.07-.41-.1-.53-.08-.05-.17-.07-.27-.06l-5.8-.07c-.36,0-.5,.24-.31,.54l.88,1.42-25.54,17.06c-.3,.19-.4,.59-.21,.9l.87,1.4c.19,.3,.59,.39,.89,.21l25.54-17.06,.88,1.43c.19,.28,.47,.27,.6-.05Z"/>
          </g>
        </g>
        <circle class="cls-5" cx="178.69" cy="121.19" r="18.02"/>
        <g>
          <g>
            <path class="cls-21" d="M172.64,111.65c-3.84,0-6.95,3.11-6.95,6.95s3.11,6.95,6.95,6.95,6.95-3.11,6.95-6.95-3.11-6.95-6.95-6.95Z"/>
            <path class="cls-2" d="M172.64,126.83c-4.54,0-8.23-3.69-8.23-8.23s3.69-8.23,8.23-8.23,8.23,3.69,8.23,8.23-3.69,8.23-8.23,8.23Z"/>
          </g>
          <path class="cls-19" d="M172.64,111.65c-3.84,0-6.95,3.11-6.95,6.95s3.11,6.95,6.95,6.95,6.95-3.11,6.95-6.95-3.11-6.95-6.95-6.95Zm.56,10.21v.88c0,.09-.07,.16-.16,.16h-.8c-.09,0-.16-.07-.16-.16v-.8c-.81-.07-1.44-.71-1.52-1.52,0-.09,.06-.17,.15-.17,0,0,0,0,.01,0h.76c.07,0,.13,.05,.15,.12,.05,.26,.28,.44,.54,.44h.72c.42,.02,.79-.29,.85-.71,.05-.44-.26-.84-.7-.89-.03,0-.06,0-.09,0h-.53c-1.01,.02-1.87-.73-1.99-1.73-.1-1.03,.63-1.96,1.66-2.11v-.81c0-.09,.07-.16,.16-.16h.8c.09,0,.16,.07,.16,.16v.81c.82,.05,1.48,.68,1.56,1.49,0,.09-.06,.17-.15,.17,0,0,0,0-.01,0h-.81c-.07,0-.13-.05-.15-.12-.05-.26-.28-.44-.54-.44h-.72c-.42,0-.79,.3-.85,.72-.05,.43,.26,.82,.69,.88,.03,0,.07,0,.1,0h.61c1.07-.04,1.98,.8,2.02,1.87,0,.07,0,.14,0,.22-.12,.89-.82,1.58-1.72,1.69h-.05Z"/>
        </g>
      </g>
    </g>
    <g>
      <g>
        <g class="cls-16">
          <g>
            <g>
              <path class="cls-19" d="M248.56,200.33l2.57,5.2c.12,.17,.07,.41-.1,.53-.08,.05-.17,.07-.27,.06l-5.8,.07c-.36,0-.5-.24-.31-.54l.88-1.42-25.54-17.06c-.3-.19-.4-.59-.21-.9l.87-1.4c.19-.3,.59-.39,.89-.21l25.54,17.06,.88-1.43c.19-.28,.47-.27,.6,.05Z"/>
              <g>
                <path class="cls-15" d="M226.13,212.42c0,.36-.29,.66-.66,.66h-5.73c-.36,0-.66-.29-.66-.66v-23.9l7,4.59,.04,19.3Z"/>
                <path class="cls-15" d="M234.65,217.8c0,.36-.29,.66-.66,.66h-5.73c-.36,0-.66-.29-.66-.66v-23.69l7,4.59,.04,19.09Z"/>
                <path class="cls-15" d="M243.07,217.8c0,.36-.29,.66-.66,.66h-5.72c-.36,0-.66-.29-.66-.66v-18.17l7.04,4.59v13.58Z"/>
              </g>
            </g>
            <g>
              <g>
                <path class="cls-21" d="M237.99,186.84c-3.84,0-6.95,3.11-6.95,6.95s3.11,6.95,6.95,6.95,6.95-3.11,6.95-6.95-3.11-6.95-6.95-6.95Z"/>
                <path class="cls-2" d="M237.99,202.02c-4.54,0-8.23-3.69-8.23-8.23s3.69-8.23,8.23-8.23,8.23,3.69,8.23,8.23-3.69,8.23-8.23,8.23Z"/>
              </g>
              <path class="cls-19" d="M237.99,186.84c-3.84,0-6.95,3.11-6.95,6.95s3.11,6.95,6.95,6.95,6.95-3.11,6.95-6.95-3.11-6.95-6.95-6.95Zm.56,10.21v.88c0,.09-.07,.16-.16,.16h-.8c-.09,0-.16-.07-.16-.16v-.8c-.81-.07-1.44-.71-1.52-1.52,0-.09,.06-.17,.15-.17,0,0,0,0,.01,0h.76c.07,0,.13,.05,.15,.12,.05,.26,.28,.44,.54,.44h.72c.42,.02,.79-.29,.85-.71,.05-.44-.26-.84-.7-.89-.03,0-.06,0-.09,0h-.53c-1.01,.02-1.87-.73-1.99-1.73-.1-1.03,.63-1.96,1.66-2.11v-.81c0-.09,.07-.16,.16-.16h.8c.09,0,.16,.07,.16,.16v.81c.82,.05,1.48,.68,1.56,1.49,0,.09-.06,.17-.15,.17,0,0,0,0-.01,0h-.81c-.07,0-.13-.05-.15-.12-.05-.26-.28-.44-.54-.44h-.72c-.42,0-.79,.3-.85,.72-.05,.43,.26,.82,.69,.88,.03,0,.07,0,.1,0h.61c1.07-.04,1.98,.8,2.02,1.87,0,.07,0,.14,0,.22-.12,.89-.82,1.58-1.72,1.69h-.05Z"/>
            </g>
          </g>
        </g>
        <circle class="cls-5" cx="238.16" cy="199.48" r="18.02"/>
      </g>
      <g>
        <path class="cls-19" d="M227.8,233.39v-3.31c0-1.01,.5-1.58,1.48-1.58s1.48,.58,1.48,1.58v.54h-.94v-.6c0-.45-.2-.62-.51-.62s-.51,.17-.51,.62v3.45c0,.45,.2,.61,.51,.61s.51-.16,.51-.61v-1.23h-.5v-.9h1.43v2.06c0,1.01-.5,1.58-1.48,1.58s-1.48-.58-1.48-1.58Z"/>
        <path class="cls-19" d="M231.39,228.58h.99v5.4h1.63v.9h-2.62v-6.3Z"/>
        <path class="cls-19" d="M234.38,233.39v-3.31c0-1.01,.53-1.58,1.5-1.58s1.5,.58,1.5,1.58v3.31c0,1.01-.53,1.58-1.5,1.58s-1.5-.58-1.5-1.58Zm2.02,.06v-3.44c0-.45-.2-.62-.51-.62s-.51,.17-.51,.62v3.44c0,.45,.2,.62,.51,.62s.51-.17,.51-.62Z"/>
        <path class="cls-19" d="M238.05,228.58h1.49c1.03,0,1.47,.48,1.47,1.45v.25c0,.65-.2,1.05-.64,1.23v.02c.53,.18,.74,.65,.74,1.31v.54c0,.97-.51,1.49-1.5,1.49h-1.56v-6.3Zm1.38,2.57c.37,0,.59-.16,.59-.67v-.35c0-.45-.15-.65-.5-.65h-.48v1.67h.39Zm.18,2.84c.33,0,.51-.15,.51-.62v-.55c0-.58-.19-.77-.64-.77h-.44v1.94h.57Z"/>
        <path class="cls-19" d="M242.45,228.58h1.34l1.03,6.3h-.99l-.18-1.25v.02h-1.13l-.18,1.23h-.92l1.03-6.3Zm1.08,4.21l-.44-3.12h-.02l-.43,3.12h.89Z"/>
        <path class="cls-19" d="M245.3,228.58h.99v5.4h1.63v.9h-2.62v-6.3Z"/>
        <path class="cls-19" d="M224.24,238.38h2.7v.9h-1.71v1.67h1.36v.9h-1.36v1.94h1.71v.9h-2.7v-6.3Z"/>
        <path class="cls-19" d="M227.44,243.23v-3.38c0-.97,.5-1.55,1.46-1.55s1.46,.58,1.46,1.55v.67h-.94v-.73c0-.41-.2-.59-.5-.59s-.5,.17-.5,.59v3.52c0,.41,.2,.58,.5,.58s.5-.16,.5-.58v-.96h.94v.89c0,.97-.5,1.55-1.46,1.55s-1.46-.58-1.46-1.55Z"/>
        <path class="cls-19" d="M230.9,243.19v-3.31c0-1.01,.53-1.58,1.5-1.58s1.5,.58,1.5,1.58v3.31c0,1.01-.53,1.58-1.5,1.58s-1.5-.58-1.5-1.58Zm2.02,.06v-3.44c0-.45-.2-.62-.51-.62s-.51,.17-.51,.62v3.44c0,.45,.2,.62,.51,.62s.51-.17,.51-.62Z"/>
        <path class="cls-19" d="M234.57,238.38h1.24l.96,3.77h.02v-3.77h.88v6.3h-1.02l-1.19-4.6h-.02v4.6h-.88v-6.3Z"/>
        <path class="cls-19" d="M238.34,243.19v-3.31c0-1.01,.53-1.58,1.5-1.58s1.5,.58,1.5,1.58v3.31c0,1.01-.53,1.58-1.5,1.58s-1.5-.58-1.5-1.58Zm2.02,.06v-3.44c0-.45-.2-.62-.51-.62s-.51,.17-.51,.62v3.44c0,.45,.2,.62,.51,.62s.51-.17,.51-.62Z"/>
        <path class="cls-19" d="M242.01,238.38h1.41l.63,4.51h.02l.63-4.51h1.41v6.3h-.94v-4.77h-.02l-.72,4.77h-.83l-.72-4.77h-.02v4.77h-.86v-6.3Z"/>
        <path class="cls-19" d="M246.85,238.38h.99v6.3h-.99v-6.3Z"/>
        <path class="cls-19" d="M248.52,243.23v-3.38c0-.97,.5-1.55,1.46-1.55s1.46,.58,1.46,1.55v.67h-.94v-.73c0-.41-.2-.59-.5-.59s-.5,.17-.5,.59v3.52c0,.41,.2,.58,.5,.58s.5-.16,.5-.58v-.96h.94v.89c0,.97-.5,1.55-1.46,1.55s-1.46-.58-1.46-1.55Z"/>
        <path class="cls-19" d="M218.5,248.18h1.51c.99,0,1.48,.55,1.48,1.56v3.19c0,1.01-.49,1.56-1.48,1.56h-1.51v-6.3Zm1.49,5.4c.32,0,.5-.16,.5-.61v-3.28c0-.45-.19-.61-.5-.61h-.5v4.5h.5Z"/>
        <path class="cls-19" d="M222.16,248.18h2.7v.9h-1.71v1.67h1.36v.9h-1.36v1.94h1.71v.9h-2.7v-6.3Z"/>
        <path class="cls-19" d="M225.36,253.03v-3.38c0-.97,.5-1.55,1.46-1.55s1.46,.58,1.46,1.55v.67h-.94v-.73c0-.41-.2-.59-.5-.59s-.5,.17-.5,.59v3.52c0,.41,.2,.58,.5,.58s.5-.16,.5-.58v-.96h.94v.89c0,.97-.5,1.55-1.46,1.55s-1.46-.58-1.46-1.55Z"/>
        <path class="cls-19" d="M228.87,248.18h2.7v.9h-1.71v1.67h1.36v.9h-1.36v1.94h1.71v.9h-2.7v-6.3Z"/>
        <path class="cls-19" d="M232.14,248.18h.99v5.4h1.63v.9h-2.62v-6.3Z"/>
        <path class="cls-19" d="M235.23,248.18h2.7v.9h-1.71v1.67h1.36v.9h-1.36v1.94h1.71v.9h-2.7v-6.3Z"/>
        <path class="cls-19" d="M238.5,248.18h1.47c1.03,0,1.47,.48,1.47,1.45v.39c0,.65-.21,1.06-.65,1.24v.02c.5,.15,.66,.62,.66,1.33v1.11c0,.31,0,.53,.11,.77h-1.01c-.05-.16-.09-.26-.09-.77v-1.15c0-.58-.17-.77-.62-.77h-.34v2.7h-.99v-6.3Zm1.35,2.7c.37,0,.59-.16,.59-.67v-.49c0-.45-.15-.65-.5-.65h-.45v1.8h.36Z"/>
        <path class="cls-19" d="M242.89,248.18h1.34l1.03,6.3h-.99l-.18-1.25v.02h-1.13l-.18,1.23h-.92l1.03-6.3Zm1.08,4.21l-.44-3.11h-.02l-.43,3.11h.89Z"/>
        <path class="cls-19" d="M246.1,249.08h-1.04v-.9h3.06v.9h-1.04v5.4h-.99v-5.4Z"/>
        <path class="cls-19" d="M248.6,248.18h.99v6.3h-.99v-6.3Z"/>
        <path class="cls-19" d="M250.25,252.99v-3.31c0-1.01,.53-1.58,1.5-1.58s1.5,.58,1.5,1.58v3.31c0,1.01-.53,1.58-1.5,1.58s-1.5-.58-1.5-1.58Zm2.02,.06v-3.44c0-.45-.2-.62-.51-.62s-.51,.17-.51,.62v3.44c0,.45,.2,.62,.51,.62s.51-.17,.51-.62Z"/>
        <path class="cls-19" d="M253.93,248.18h1.24l.96,3.77h.02v-3.77h.88v6.3h-1.02l-1.19-4.6h-.02v4.6h-.88v-6.3Z"/>
      </g>
    </g>
    <g>
      <g class="cls-10">
        <g>
          <g>
            <path class="cls-19" d="M163.66,196.74l8.92-3.34c1.03-.39,2.15-.35,3.17,.12,1.01,.46,1.78,1.28,2.16,2.31,.15,.39,.24,.81,.26,1.23v.2s.21-.02,.21-.02c.16-.01,.32-.02,.49-.02h1.21v-.2c-.03-.64-.16-1.26-.38-1.86-.56-1.51-1.69-2.71-3.16-3.38-1.47-.67-3.12-.73-4.62-.17l-8.92,3.34c-3.12,1.17-4.71,4.66-3.55,7.78,.56,1.51,1.69,2.71,3.16,3.38,.8,.37,1.65,.55,2.51,.55,.72,0,1.43-.13,2.11-.38l6.09-2.28-.03-.16c-.06-.35-.09-.66-.09-.96,0-.2,.01-.39,.03-.58l.03-.31-6.7,2.51c-1.03,.39-2.16,.34-3.17-.12-1.01-.46-1.78-1.28-2.16-2.31-.39-1.04-.35-2.16,.11-3.17s1.28-1.78,2.32-2.16Z"/>
            <path class="cls-19" d="M179.4,203.52c-.24,0-.48,.02-.75,.07l-.12,.02-.04,.11c-.39,1.21-1.3,2.16-2.49,2.61l-.93,.35-.03,.09c-.12,.42-.19,.85-.19,1.28,0,.16,0,.32,.02,.47l.03,.25,1.76-.66c1.92-.72,3.33-2.35,3.78-4.36l.05-.24h-1.12Z"/>
          </g>
          <g>
            <path class="cls-15" d="M171.04,200.9c-.06-1.55,.78-3.02,2.14-3.76l.13-.07v-.15c-.01-.57-.12-1.11-.33-1.63l-.1-.24-.24,.1c-2.68,1.18-4.14,4.1-3.49,6.95l.09,.39,1.79-1.46v-.12Z"/>
            <path class="cls-15" d="M186.25,200.56h-9.52c-.18,0-.35,.01-.53,.03l-.24,.02v.24c.04,.49-.03,.99-.18,1.47l-.13,.39,.41-.07c.25-.04,.47-.06,.67-.06h9.52c2.25,0,4.09,1.83,4.09,4.08s-1.83,4.09-4.09,4.09h-9.52c-2.1,0-3.84-1.57-4.06-3.66-.01-.14-.02-.28-.02-.43,0-.39,.06-.78,.17-1.16l.14-.48-2.28,.85-.02,.15c-.02,.21-.03,.42-.03,.63,0,.33,.03,.67,.09,1.04,.51,2.94,3.03,5.07,6.01,5.07h9.52c3.37,0,6.11-2.74,6.11-6.11s-2.74-6.1-6.11-6.1Z"/>
            <path class="cls-19" d="M182.05,192.29c.09,.03,.18,.04,.28,.04,.45,0,.85-.3,.97-.73l1.47-5.12c.15-.54-.16-1.1-.69-1.25-.25-.07-.53-.04-.77,.09s-.41,.35-.48,.61l-1.47,5.12c-.08,.26-.04,.53,.09,.77s.34,.41,.6,.48Z"/>
            <path class="cls-19" d="M186.03,194.37c.24,0,.47-.09,.65-.24l4.06-3.45c.21-.17,.33-.42,.35-.69,.02-.27-.06-.53-.24-.74-.36-.42-1-.47-1.42-.11l-4.06,3.45c-.42,.36-.48,1-.12,1.42,.19,.23,.47,.36,.77,.36Z"/>
            <path class="cls-19" d="M193.44,195.79c-.21-.16-.48-.23-.74-.2l-5.29,.69c-.27,.04-.5,.17-.67,.39-.17,.21-.24,.48-.2,.75,.07,.5,.5,.88,1,.88,.04,0,.09,0,.13,0l5.29-.69c.27-.04,.51-.17,.67-.39,.17-.21,.24-.48,.2-.75s-.17-.51-.39-.67Z"/>
          </g>
        </g>
      </g>
      <g>
        <path class="cls-19" d="M170.78,233.39v-.36h.94v.43c0,.45,.2,.61,.51,.61s.51-.16,.51-.63c0-.52-.2-.86-.85-1.42-.83-.73-1.1-1.24-1.1-1.96,0-.99,.51-1.57,1.48-1.57s1.44,.58,1.44,1.58v.26h-.94v-.32c0-.45-.18-.62-.5-.62s-.5,.17-.5,.6c0,.46,.21,.79,.86,1.36,.83,.73,1.09,1.23,1.09,2.02,0,1.03-.52,1.6-1.5,1.6s-1.46-.58-1.46-1.58Z"/>
        <path class="cls-19" d="M174.26,233.39v-4.81h.99v4.88c0,.45,.19,.61,.5,.61s.5-.16,.5-.61v-4.88h.95v4.81c0,1.01-.5,1.58-1.48,1.58s-1.48-.58-1.48-1.58Z"/>
        <path class="cls-19" d="M177.91,228.58h1.46c.99,0,1.48,.55,1.48,1.56v.62c0,1.01-.49,1.56-1.48,1.56h-.47v2.57h-.99v-6.3Zm1.46,2.84c.32,0,.49-.14,.49-.59v-.75c0-.45-.17-.59-.49-.59h-.47v1.94h.47Z"/>
        <path class="cls-19" d="M181.39,228.58h1.46c.99,0,1.48,.55,1.48,1.56v.62c0,1.01-.49,1.56-1.48,1.56h-.47v2.57h-.99v-6.3Zm1.46,2.84c.32,0,.49-.14,.49-.59v-.75c0-.45-.17-.59-.49-.59h-.47v1.94h.47Z"/>
        <path class="cls-19" d="M184.86,228.58h.99v5.4h1.63v.9h-2.62v-6.3Z"/>
        <path class="cls-19" d="M188.07,232.2l-1.2-3.62h1.05l.67,2.31h.02l.68-2.31h.96l-1.2,3.62v2.68h-.99v-2.68Z"/>
        <path class="cls-19" d="M163.2,238.38h1.51c.99,0,1.48,.55,1.48,1.56v3.19c0,1.01-.49,1.56-1.48,1.56h-1.51v-6.3Zm1.49,5.4c.32,0,.5-.16,.5-.61v-3.28c0-.45-.19-.61-.5-.61h-.5v4.5h.5Z"/>
        <path class="cls-19" d="M166.85,238.38h.99v6.3h-.99v-6.3Z"/>
        <path class="cls-19" d="M168.41,243.19v-.36h.94v.43c0,.45,.2,.61,.51,.61s.51-.16,.51-.63c0-.52-.2-.86-.85-1.42-.83-.73-1.1-1.24-1.1-1.96,0-.99,.51-1.57,1.48-1.57s1.44,.58,1.44,1.58v.26h-.94v-.32c0-.45-.18-.62-.5-.62s-.5,.17-.5,.6c0,.46,.21,.79,.86,1.36,.83,.73,1.09,1.23,1.09,2.02,0,1.03-.52,1.6-1.5,1.6s-1.46-.58-1.46-1.58Z"/>
        <path class="cls-19" d="M171.93,238.38h1.47c1.03,0,1.47,.48,1.47,1.45v.39c0,.65-.21,1.06-.65,1.24v.02c.5,.15,.66,.62,.66,1.33v1.11c0,.31,0,.53,.11,.77h-1.01c-.05-.16-.09-.26-.09-.77v-1.15c0-.58-.17-.77-.62-.77h-.34v2.7h-.99v-6.3Zm1.35,2.7c.37,0,.59-.16,.59-.67v-.49c0-.45-.15-.65-.5-.65h-.45v1.8h.36Z"/>
        <path class="cls-19" d="M175.52,243.19v-4.81h.99v4.88c0,.45,.19,.61,.5,.61s.5-.16,.5-.61v-4.88h.95v4.81c0,1.01-.5,1.58-1.48,1.58s-1.48-.58-1.48-1.58Z"/>
        <path class="cls-19" d="M179.17,238.38h1.46c.99,0,1.48,.55,1.48,1.56v.62c0,1.01-.49,1.56-1.48,1.56h-.47v2.57h-.99v-6.3Zm1.46,2.84c.32,0,.49-.14,.49-.59v-.75c0-.45-.17-.59-.49-.59h-.47v1.94h.47Z"/>
        <path class="cls-19" d="M183.44,239.28h-1.04v-.9h3.06v.9h-1.04v5.4h-.99v-5.4Z"/>
        <path class="cls-19" d="M185.94,238.38h.99v6.3h-.99v-6.3Z"/>
        <path class="cls-19" d="M187.6,243.19v-3.31c0-1.01,.53-1.58,1.5-1.58s1.5,.58,1.5,1.58v3.31c0,1.01-.53,1.58-1.5,1.58s-1.5-.58-1.5-1.58Zm2.02,.06v-3.44c0-.45-.2-.62-.51-.62s-.51,.17-.51,.62v3.44c0,.45,.2,.62,.51,.62s.51-.17,.51-.62Z"/>
        <path class="cls-19" d="M191.27,238.38h1.24l.96,3.77h.02v-3.77h.88v6.3h-1.02l-1.19-4.6h-.02v4.6h-.88v-6.3Z"/>
        <path class="cls-19" d="M194.94,243.19v-.36h.94v.43c0,.45,.2,.61,.51,.61s.51-.16,.51-.63c0-.52-.2-.86-.85-1.42-.83-.73-1.1-1.24-1.1-1.96,0-.99,.51-1.57,1.48-1.57s1.44,.58,1.44,1.58v.26h-.94v-.32c0-.45-.18-.62-.5-.62s-.5,.17-.5,.6c0,.46,.21,.79,.86,1.36,.83,.73,1.09,1.23,1.09,2.02,0,1.03-.52,1.6-1.5,1.6s-1.46-.58-1.46-1.58Z"/>
      </g>
      <circle class="cls-5" cx="180.46" cy="199.48" r="18.02"/>
    </g>
    <g>
      <line class="cls-13" x1="135.01" y1="100.19" x2="135.01" y2="100.19"/>
      <line class="cls-12" x1="135.01" y1="103.09" x2="135.01" y2="249.51"/>
      <line class="cls-13" x1="135.01" y1="250.96" x2="135.01" y2="250.96"/>
    </g>
    <g>
      <g>
        <g>
          <path class="cls-15" d="M237.42,126.27h-8.2c-.57,0-1.03,.46-1.03,1.03,0,.57,.46,1.03,1.03,1.03h8.2c.57,0,1.03-.46,1.03-1.03,0-.57-.46-1.03-1.03-1.03h0Z"/>
          <path class="cls-15" d="M231.19,132.41v.56c0,.65,.52,1.17,1.17,1.17h1.67c.64,0,1.16-.52,1.17-1.17v-.55c1.34-.07,2.39-1.18,2.4-2.52h-8.57c0,1.25,.93,2.31,2.17,2.5Z"/>
          <path class="cls-15" d="M233.32,102.9c-5.72,0-10.35,4.76-10.35,10.63,0,1.37,.26,2.72,.76,3.99,.06,.16,.13,.31,.2,.47,.45,1,1.05,1.92,1.78,2.74l2.63,4.04h9.98l2.63-4.04c.73-.82,1.33-1.74,1.78-2.74,.07-.15,.13-.31,.2-.47,.5-1.27,.76-2.62,.76-3.99,0-5.87-4.64-10.63-10.36-10.63Z"/>
        </g>
        <g class="cls-18">
          <path class="cls-6" d="M238.95,109.99l-11.6,12.67c-.21,.25-.51,.39-.84,.39-.18,0-.36-.05-.53-.14-.46-.24-.69-.77-.57-1.27l1.86-7.99h-4.06c-.38,0-.74-.18-.96-.49-.16-.34-.16-.74,0-1.07l3.91-9.39h0c.18-.42,.58-.7,1.04-.71h7.81c.4,0,.77,.21,.97,.55,.17,.34,.17,.74,0,1.07l-1.95,4.45h4.3c.45,.01,.86,.27,1.05,.69,.11,.46-.06,.94-.43,1.23h0Z"/>
        </g>
      </g>
      <g>
        <path class="cls-19" d="M217.4,150.29h2.7v.9h-1.71v1.67h1.36v.9h-1.36v1.94h1.71v.9h-2.7v-6.3Z"/>
        <path class="cls-19" d="M220.67,150.29h1.24l.96,3.77h.02v-3.77h.88v6.3h-1.02l-1.19-4.6h-.02v4.6h-.88v-6.3Z"/>
        <path class="cls-19" d="M224.51,150.29h2.7v.9h-1.71v1.67h1.36v.9h-1.36v1.94h1.71v.9h-2.7v-6.3Z"/>
        <path class="cls-19" d="M227.78,150.29h1.47c1.03,0,1.47,.48,1.47,1.45v.39c0,.65-.21,1.06-.65,1.24v.02c.5,.15,.66,.62,.66,1.33v1.11c0,.31,0,.53,.11,.77h-1.01c-.05-.16-.09-.26-.09-.77v-1.15c0-.58-.17-.77-.62-.77h-.34v2.7h-.99v-6.3Zm1.35,2.7c.37,0,.59-.16,.59-.67v-.49c0-.45-.15-.65-.5-.65h-.45v1.8h.36Z"/>
        <path class="cls-19" d="M231.33,155.1v-3.31c0-1.01,.5-1.58,1.48-1.58s1.48,.58,1.48,1.58v.54h-.94v-.6c0-.45-.2-.62-.51-.62s-.51,.17-.51,.62v3.45c0,.45,.2,.61,.51,.61s.51-.16,.51-.61v-1.23h-.5v-.9h1.43v2.06c0,1.01-.5,1.58-1.48,1.58s-1.48-.58-1.48-1.58Z"/>
        <path class="cls-19" d="M235.7,153.91l-1.2-3.62h1.05l.67,2.31h.02l.68-2.31h.96l-1.2,3.62v2.68h-.99v-2.68Z"/>
        <path class="cls-19" d="M239.77,150.29h1.46c.99,0,1.48,.55,1.48,1.56v.62c0,1.01-.49,1.56-1.48,1.56h-.47v2.57h-.99v-6.3Zm1.46,2.84c.32,0,.49-.14,.49-.59v-.75c0-.45-.17-.59-.49-.59h-.47v1.94h.47Z"/>
        <path class="cls-19" d="M243.25,150.29h1.47c1.03,0,1.47,.48,1.47,1.45v.39c0,.65-.21,1.06-.65,1.24v.02c.5,.15,.66,.62,.66,1.33v1.11c0,.31,0,.53,.11,.77h-1.01c-.05-.16-.09-.26-.09-.77v-1.15c0-.58-.17-.77-.62-.77h-.34v2.7h-.99v-6.3Zm1.35,2.7c.37,0,.59-.16,.59-.67v-.49c0-.45-.15-.65-.5-.65h-.45v1.8h.36Z"/>
        <path class="cls-19" d="M246.88,150.29h.99v6.3h-.99v-6.3Z"/>
        <path class="cls-19" d="M248.54,155.14v-3.38c0-.97,.5-1.55,1.46-1.55s1.46,.58,1.46,1.55v.67h-.94v-.73c0-.41-.2-.59-.5-.59s-.5,.17-.5,.59v3.52c0,.41,.2,.58,.5,.58s.5-.16,.5-.58v-.96h.94v.89c0,.97-.5,1.55-1.46,1.55s-1.46-.58-1.46-1.55Z"/>
        <path class="cls-19" d="M252.05,150.29h2.7v.9h-1.71v1.67h1.36v.9h-1.36v1.94h1.71v.9h-2.7v-6.3Z"/>
        <path class="cls-19" d="M225.6,164.9v-.36h.94v.43c0,.45,.2,.61,.51,.61s.51-.16,.51-.63c0-.52-.2-.86-.85-1.42-.83-.73-1.1-1.24-1.1-1.96,0-.99,.51-1.57,1.48-1.57s1.44,.58,1.44,1.58v.26h-.94v-.32c0-.45-.18-.62-.5-.62s-.5,.17-.5,.6c0,.46,.21,.79,.86,1.36,.83,.73,1.09,1.23,1.09,2.02,0,1.03-.52,1.6-1.5,1.6s-1.46-.58-1.46-1.58Z"/>
        <path class="cls-19" d="M229.11,160.09h.99v2.57h1.06v-2.57h.99v6.3h-.99v-2.84h-1.06v2.84h-.99v-6.3Z"/>
        <path class="cls-19" d="M232.82,164.9v-3.31c0-1.01,.53-1.58,1.5-1.58s1.5,.58,1.5,1.58v3.31c0,1.01-.53,1.58-1.5,1.58s-1.5-.58-1.5-1.58Zm2.02,.06v-3.44c0-.45-.2-.62-.51-.62s-.51,.17-.51,.62v3.44c0,.45,.2,.62,.51,.62s.51-.17,.51-.62Z"/>
        <path class="cls-19" d="M236.43,164.94v-3.38c0-.97,.5-1.55,1.46-1.55s1.46,.58,1.46,1.55v.67h-.94v-.73c0-.41-.2-.59-.5-.59s-.5,.17-.5,.59v3.52c0,.41,.2,.58,.5,.58s.5-.16,.5-.58v-.96h.94v.89c0,.97-.5,1.55-1.46,1.55s-1.46-.58-1.46-1.55Z"/>
        <path class="cls-19" d="M239.94,160.09h.99v2.66l1.26-2.66h.99l-1.18,2.31,1.2,3.99h-1.04l-.84-2.81-.4,.8v2.01h-.99v-6.3Z"/>
        <path class="cls-19" d="M243.43,164.9v-.36h.94v.43c0,.45,.2,.61,.51,.61s.51-.16,.51-.63c0-.52-.2-.86-.85-1.42-.83-.73-1.1-1.24-1.1-1.96,0-.99,.51-1.57,1.48-1.57s1.44,.58,1.44,1.58v.26h-.94v-.32c0-.45-.18-.62-.5-.62s-.5,.17-.5,.6c0,.46,.21,.79,.86,1.36,.83,.73,1.09,1.23,1.09,2.02,0,1.03-.52,1.6-1.5,1.6s-1.46-.58-1.46-1.58Z"/>
      </g>
      <g>
        <circle class="cls-5" cx="237.9" cy="120.29" r="18.02"/>
        <circle class="cls-9" cx="237.9" cy="120.29" r="18.02"/>
      </g>
      <g>
        <g>
          <path class="cls-21" d="M243.37,118.4c-3.84,0-6.95,3.11-6.95,6.95s3.11,6.95,6.95,6.95,6.95-3.11,6.95-6.95-3.11-6.95-6.95-6.95Z"/>
          <path class="cls-2" d="M243.37,133.58c-4.54,0-8.23-3.69-8.23-8.23s3.69-8.23,8.23-8.23,8.23,3.69,8.23,8.23-3.69,8.23-8.23,8.23Z"/>
        </g>
        <path class="cls-19" d="M243.37,118.4c-3.84,0-6.95,3.11-6.95,6.95s3.11,6.95,6.95,6.95,6.95-3.11,6.95-6.95-3.11-6.95-6.95-6.95Zm.56,10.21v.88c0,.09-.07,.16-.16,.16h-.8c-.09,0-.16-.07-.16-.16v-.8c-.81-.07-1.44-.71-1.52-1.52,0-.09,.06-.17,.15-.17,0,0,0,0,.01,0h.76c.07,0,.13,.05,.15,.12,.05,.26,.28,.44,.54,.44h.72c.42,.02,.79-.29,.85-.71,.05-.44-.26-.84-.7-.89-.03,0-.06,0-.09,0h-.53c-1.01,.02-1.87-.73-1.99-1.73-.1-1.03,.63-1.96,1.66-2.11v-.81c0-.09,.07-.16,.16-.16h.8c.09,0,.16,.07,.16,.16v.81c.82,.05,1.48,.68,1.56,1.49,0,.09-.06,.17-.15,.17,0,0,0,0-.01,0h-.81c-.07,0-.13-.05-.15-.12-.05-.26-.28-.44-.54-.44h-.72c-.42,0-.79,.3-.85,.72-.05,.43,.26,.82,.69,.88,.03,0,.07,0,.1,0h.61c1.07-.04,1.98,.8,2.02,1.87,0,.07,0,.14,0,.22-.12,.89-.82,1.58-1.72,1.69h-.05Z"/>
      </g>
    </g>
    <g>
      <g>
        <path class="cls-3" d="M16.61,123.67c0-1.53,.43-2.46,1.68-3.77,1.28-1.36,1.65-2.17,1.65-3.16s-.34-1.22-.87-1.22-.87,.29-.87,1.05v1.14h-1.59v-1.04c0-1.71,.85-2.69,2.5-2.69s2.5,.98,2.5,2.69c0,1.27-.52,2.4-2.08,4.04-1.01,1.07-1.27,1.6-1.27,2.35v.23h3.19v1.53h-4.85v-1.16Z"/>
        <path class="cls-3" d="M22.63,122.29v-5.62c0-1.71,.9-2.69,2.55-2.69s2.55,.98,2.55,2.69v5.62c0,1.71-.9,2.69-2.55,2.69s-2.55-.98-2.55-2.69Zm3.42,.11v-5.83c0-.76-.34-1.05-.87-1.05s-.87,.29-.87,1.05v5.83c0,.76,.34,1.05,.87,1.05s.87-.29,.87-1.05Z"/>
        <path class="cls-3" d="M28.82,123.67c0-1.53,.43-2.46,1.68-3.77,1.28-1.36,1.65-2.17,1.65-3.16s-.34-1.22-.87-1.22-.87,.29-.87,1.05v1.14h-1.59v-1.04c0-1.71,.85-2.69,2.5-2.69s2.5,.98,2.5,2.69c0,1.27-.52,2.4-2.08,4.04-1.01,1.07-1.27,1.6-1.27,2.35v.23h3.19v1.53h-4.85v-1.16Z"/>
        <path class="cls-3" d="M37.31,116.68h-1.75v-1.19c1.42,0,1.92-.31,2.3-1.34h1.13v10.68h-1.68v-8.15Z"/>
      </g>
      <polygon class="cls-20" points="106.14 211.36 78.29 226.57 51.18 211.36 51.18 107.35 106.14 107.35 106.14 211.36"/>
      <polygon class="cls-15" points="51.18 213.49 51.18 220.43 78.29 235.6 106.14 220.43 106.14 213.49 78.29 228.67 51.18 213.49"/>
      <polygon class="cls-11" points="51.18 222.39 51.18 229.32 78.29 244.49 106.14 229.32 106.14 222.39 78.29 237.56 51.18 222.39"/>
      <polygon class="cls-4" points="51.18 231.86 51.18 238.8 78.29 253.97 106.14 238.8 106.14 231.86 78.29 247.03 51.18 231.86"/>
      <g>
        <path class="cls-15" d="M66.03,110.41h-5.52v-2.49h8.2v2.39l-4.28,15.01h-2.78l4.38-14.91Z"/>
        <path class="cls-15" d="M70.01,122.68h2.63v2.63h-2.63v-2.63Z"/>
        <path class="cls-15" d="M78.63,122.16h-5.22v-2.49l4.97-11.76h2.98v11.76h1.29v2.49h-1.29v3.16h-2.73v-3.16Zm0-2.49v-6.79h-.05l-2.68,6.79h2.73Z"/>
        <path class="cls-15" d="M86.59,114.81v-4.35c0-1.79,.92-2.78,2.63-2.78s2.63,.99,2.63,2.78v4.35c0,1.79-.92,2.78-2.63,2.78s-2.63-.99-2.63-2.78Zm3.53,.12v-4.6c0-.77-.35-1.09-.89-1.09s-.89,.32-.89,1.09v4.6c0,.77,.32,1.09,.89,1.09s.89-.32,.89-1.09Zm5.42-7.01h1.74l-6.74,17.4h-1.74l6.74-17.4Zm-1.32,14.86v-4.35c0-1.79,.92-2.78,2.63-2.78s2.63,.99,2.63,2.78v4.35c0,1.79-.92,2.78-2.63,2.78s-2.63-.99-2.63-2.78Zm3.53,.12v-4.6c0-.77-.35-1.09-.89-1.09s-.89,.32-.89,1.09v4.6c0,.77,.32,1.09,.89,1.09s.89-.32,.89-1.09Z"/>
      </g>
      <line class="cls-7" x1="16.26" y1="130.6" x2="105.87" y2="130.6"/>
      <g>
        <path class="cls-3" d="M16.61,198.6c0-1.53,.43-2.46,1.68-3.77,1.28-1.36,1.65-2.17,1.65-3.16s-.34-1.22-.87-1.22-.87,.29-.87,1.05v1.14h-1.59v-1.04c0-1.71,.85-2.69,2.5-2.69s2.5,.98,2.5,2.69c0,1.27-.52,2.4-2.08,4.04-1.01,1.07-1.27,1.6-1.27,2.35v.23h3.19v1.53h-4.85v-1.16Z"/>
        <path class="cls-3" d="M22.63,197.22v-5.62c0-1.71,.9-2.69,2.55-2.69s2.55,.98,2.55,2.69v5.62c0,1.71-.9,2.69-2.55,2.69s-2.55-.98-2.55-2.69Zm3.42,.11v-5.83c0-.76-.34-1.05-.87-1.05s-.87,.29-.87,1.05v5.83c0,.76,.34,1.05,.87,1.05s.87-.29,.87-1.05Z"/>
        <path class="cls-3" d="M28.82,198.6c0-1.53,.43-2.46,1.68-3.77,1.28-1.36,1.65-2.17,1.65-3.16s-.34-1.22-.87-1.22-.87,.29-.87,1.05v1.14h-1.59v-1.04c0-1.71,.85-2.69,2.5-2.69s2.5,.98,2.5,2.69c0,1.27-.52,2.4-2.08,4.04-1.01,1.07-1.27,1.6-1.27,2.35v.23h3.19v1.53h-4.85v-1.16Z"/>
        <path class="cls-3" d="M34.93,198.6c0-1.53,.43-2.46,1.68-3.77,1.28-1.36,1.65-2.17,1.65-3.16s-.34-1.22-.87-1.22-.87,.29-.87,1.05v1.14h-1.59v-1.04c0-1.71,.85-2.69,2.5-2.69s2.5,.98,2.5,2.69c0,1.27-.52,2.4-2.08,4.04-1.01,1.07-1.27,1.6-1.27,2.35v.23h3.19v1.53h-4.85v-1.16Z"/>
      </g>
      <g>
        <path class="cls-1" d="M62.17,196.17v-1.42h2.58v1.54c0,1.24,.55,1.71,1.42,1.71s1.42-.42,1.42-1.96v-1.42c0-1.62-.55-2.21-1.79-2.21h-.92v-2.49h.99c1.02,0,1.64-.45,1.64-1.84v-1.27c0-1.24-.57-1.74-1.37-1.74s-1.32,.47-1.32,1.62v1.14h-2.58v-.92c0-2.78,1.39-4.32,4-4.32s4,1.52,4,4.3v.62c0,1.86-.6,3.01-1.94,3.5v.05c1.47,.55,2.01,1.81,2.01,3.58v1.54c0,2.78-1.39,4.3-4.08,4.3s-4.08-1.54-4.08-4.33Z"/>
        <path class="cls-1" d="M71.69,197.61h2.63v2.63h-2.63v-2.63Z"/>
        <path class="cls-1" d="M75.54,196.17v-1.42h2.58v1.54c0,1.24,.55,1.71,1.42,1.71s1.42-.42,1.42-1.96v-1.42c0-1.62-.55-2.21-1.79-2.21h-.92v-2.49h.99c1.02,0,1.64-.45,1.64-1.84v-1.27c0-1.24-.57-1.74-1.37-1.74s-1.32,.47-1.32,1.62v1.14h-2.58v-.92c0-2.78,1.39-4.32,4-4.32s4,1.52,4,4.3v.62c0,1.86-.6,3.01-1.94,3.5v.05c1.47,.55,2.01,1.81,2.01,3.58v1.54c0,2.78-1.39,4.3-4.08,4.3s-4.08-1.54-4.08-4.33Z"/>
        <path class="cls-1" d="M84.91,189.73v-4.35c0-1.79,.92-2.78,2.63-2.78s2.63,.99,2.63,2.78v4.35c0,1.79-.92,2.78-2.63,2.78s-2.63-.99-2.63-2.78Zm3.53,.12v-4.6c0-.77-.35-1.09-.89-1.09s-.89,.32-.89,1.09v4.6c0,.77,.32,1.09,.89,1.09s.89-.32,.89-1.09Zm5.42-7.01h1.74l-6.74,17.4h-1.74l6.74-17.4Zm-1.32,14.86v-4.35c0-1.79,.92-2.78,2.63-2.78s2.63,.99,2.63,2.78v4.35c0,1.79-.92,2.78-2.63,2.78s-2.63-.99-2.63-2.78Zm3.53,.12v-4.6c0-.77-.35-1.09-.89-1.09s-.89,.32-.89,1.09v4.6c0,.77,.32,1.09,.89,1.09s.89-.32,.89-1.09Z"/>
      </g>
      <line class="cls-7" x1="16.26" y1="205.52" x2="105.87" y2="205.52"/>
    </g>
    <g>
      <polyline class="cls-8" points="192.53 54.83 192.53 64.73 79.11 64.73 79.11 93.52"/>
      <circle class="cls-3" cx="79.11" cy="93.42" r="1.88"/>
    </g>
  </g>
</svg>