<?xml version="1.0" encoding="UTF-8"?>
<svg id="Layer_2" data-name="Layer 2" xmlns="http://www.w3.org/2000/svg" xmlns:xlink="http://www.w3.org/1999/xlink" viewBox="0 0 358.3 285.27">
  <defs>
    <style>
      .cls-1 {
        fill: url(#linear-gradient-2);
      }

      .cls-2 {
        fill: #fff;
      }

      .cls-3 {
        stroke-dasharray: 0 0 0 2.89;
      }

      .cls-3, .cls-4, .cls-5, .cls-6, .cls-7, .cls-8 {
        fill: none;
      }

      .cls-3, .cls-4, .cls-5, .cls-6, .cls-8 {
        stroke: #79bd6f;
        stroke-linecap: round;
        stroke-linejoin: round;
        stroke-width: 1.75px;
      }

      .cls-9 {
        fill: #939598;
      }

      .cls-10 {
        fill: #4c764a;
      }

      .cls-4 {
        stroke-dasharray: 0 0 0 2.67;
      }

      .cls-11 {
        fill: #e5f0e1;
        stroke: #40ae49;
        stroke-miterlimit: 10;
        stroke-width: 2px;
      }

      .cls-12 {
        fill: #777677;
      }

      .cls-13, .cls-14 {
        fill: #40ae49;
      }

      .cls-5 {
        stroke-dasharray: 0 0 0 2.91;
      }

      .cls-15 {
        clip-path: url(#clippath);
      }

      .cls-6 {
        stroke-dasharray: 0 0 0 2.89;
      }

      .cls-16 {
        fill: url(#linear-gradient);
      }

      .cls-14 {
        fill-rule: evenodd;
      }
    </style>
    <linearGradient id="linear-gradient" x1="1.86" y1="1.02" x2="2.12" y2="1.02" gradientUnits="userSpaceOnUse">
      <stop offset="0" stop-color="#e3ece0"/>
      <stop offset=".2" stop-color="#dce8d9"/>
      <stop offset=".48" stop-color="#ccdec7"/>
      <stop offset=".8" stop-color="#b0cdaa"/>
      <stop offset="1" stop-color="#9bc194"/>
    </linearGradient>
    <linearGradient id="linear-gradient-2" x1="179.15" y1="323.26" x2="179.15" y2="38.52" gradientUnits="userSpaceOnUse">
      <stop offset="0" stop-color="#d0e5c9"/>
      <stop offset=".27" stop-color="#dfeddb"/>
      <stop offset=".73" stop-color="#f6faf5"/>
      <stop offset="1" stop-color="#fff"/>
    </linearGradient>
    <clipPath id="clippath">
      <circle class="cls-7" cx="182.85" cy="176.77" r="22.3"/>
    </clipPath>
  </defs>
  <g id="Layer_2-2" data-name="Layer 2">
    <path class="cls-16" d="M1.86,.97c.09,.03,.17,.07,.26,.11-.09-.04-.17-.08-.26-.11Z"/>
    <path class="cls-16" d="M1.86,.97c.09,.03,.17,.07,.26,.11-.09-.04-.17-.08-.26-.11Z"/>
    <rect class="cls-1" y=".53" width="358.3" height="284.74"/>
    <rect class="cls-13" x="30.38" y="28.28" width="298.76" height="36.3"/>
    <g>
      <path class="cls-2" d="M38.68,35.34h5.22c3.65,0,5.22,1.7,5.22,5.15v1.38c0,2.3-.74,3.78-2.3,4.42v.06c1.76,.54,2.34,2.21,2.34,4.74v3.94c0,1.09,.03,1.89,.38,2.72h-3.58c-.19-.58-.32-.93-.32-2.75v-4.1c0-2.08-.61-2.75-2.21-2.75h-1.22v9.6h-3.52v-22.4Zm4.8,9.6c1.31,0,2.11-.58,2.11-2.37v-1.73c0-1.6-.54-2.3-1.79-2.3h-1.6v6.4h1.28Z"/>
      <path class="cls-2" d="M52.21,35.34h9.6v3.2h-6.08v5.92h4.83v3.2h-4.83v6.88h6.08v3.2h-9.6v-22.4Z"/>
      <path class="cls-2" d="M64.47,35.34h3.52v19.2h5.79v3.2h-9.31v-22.4Z"/>
      <path class="cls-2" d="M78.96,35.34h4.77l3.65,22.4h-3.52l-.64-4.45v.06h-4l-.64,4.38h-3.26l3.65-22.4Zm3.84,14.98l-1.57-11.07h-.06l-1.54,11.07h3.17Z"/>
      <path class="cls-2" d="M91,38.54h-3.68v-3.2h10.88v3.2h-3.68v19.2h-3.52v-19.2Z"/>
      <path class="cls-2" d="M100.53,35.34h3.52v22.4h-3.52v-22.4Z"/>
      <path class="cls-2" d="M107.06,52.42v-11.78c0-3.58,1.89-5.63,5.34-5.63s5.34,2.05,5.34,5.63v11.78c0,3.58-1.89,5.63-5.34,5.63s-5.34-2.05-5.34-5.63Zm7.17,.22v-12.22c0-1.6-.7-2.21-1.82-2.21s-1.82,.61-1.82,2.21v12.22c0,1.6,.7,2.21,1.82,2.21s1.82-.61,1.82-2.21Z"/>
      <path class="cls-2" d="M120.76,35.34h4.42l3.42,13.41h.06v-13.41h3.14v22.4h-3.62l-4.22-16.35h-.06v16.35h-3.14v-22.4Z"/>
      <path class="cls-2" d="M134.45,52.42v-1.28h3.33v1.54c0,1.6,.7,2.18,1.82,2.18s1.82-.58,1.82-2.24c0-1.86-.7-3.04-3.01-5.06-2.94-2.59-3.9-4.42-3.9-6.98,0-3.52,1.82-5.57,5.25-5.57s5.12,2.05,5.12,5.63v.93h-3.33v-1.15c0-1.6-.64-2.21-1.76-2.21s-1.76,.61-1.76,2.14c0,1.63,.74,2.82,3.04,4.83,2.94,2.59,3.87,4.38,3.87,7.17,0,3.65-1.86,5.7-5.31,5.7s-5.18-2.05-5.18-5.63Z"/>
      <path class="cls-2" d="M147.6,35.34h3.52v9.12h3.78v-9.12h3.52v22.4h-3.52v-10.08h-3.78v10.08h-3.52v-22.4Z"/>
      <path class="cls-2" d="M161.68,35.34h3.52v22.4h-3.52v-22.4Z"/>
      <path class="cls-2" d="M168.47,35.34h5.18c3.52,0,5.25,1.95,5.25,5.54v2.21c0,3.58-1.73,5.54-5.25,5.54h-1.66v9.12h-3.52v-22.4Zm5.18,10.08c1.12,0,1.73-.51,1.73-2.11v-2.66c0-1.6-.61-2.11-1.73-2.11h-1.66v6.88h1.66Z"/>
      <path class="cls-2" d="M186.39,35.34h3.39l1.57,17.21h.06l1.66-17.21h3.84l1.66,17.21h.06l1.57-17.21h3.04l-2.27,22.4h-4.38l-1.6-15.1h-.06l-1.6,15.1h-4.67l-2.27-22.4Z"/>
      <path class="cls-2" d="M205.68,35.34h3.52v22.4h-3.52v-22.4Z"/>
      <path class="cls-2" d="M215.22,38.54h-3.68v-3.2h10.88v3.2h-3.68v19.2h-3.52v-19.2Z"/>
      <path class="cls-2" d="M224.76,35.34h3.52v9.12h3.78v-9.12h3.52v22.4h-3.52v-10.08h-3.78v10.08h-3.52v-22.4Z"/>
      <path class="cls-2" d="M244.6,35.34h4.42l3.42,13.41h.06v-13.41h3.14v22.4h-3.62l-4.22-16.35h-.06v16.35h-3.14v-22.4Z"/>
      <path class="cls-2" d="M261.62,35.34h4.77l3.65,22.4h-3.52l-.64-4.45v.06h-4l-.64,4.38h-3.26l3.65-22.4Zm3.84,14.98l-1.57-11.07h-.06l-1.54,11.07h3.17Z"/>
      <path class="cls-2" d="M273.65,38.54h-3.68v-3.2h10.88v3.2h-3.68v19.2h-3.52v-19.2Z"/>
      <path class="cls-2" d="M283.06,52.42v-17.09h3.52v17.34c0,1.6,.67,2.18,1.79,2.18s1.79-.58,1.79-2.18v-17.34h3.39v17.09c0,3.58-1.79,5.63-5.25,5.63s-5.25-2.05-5.25-5.63Z"/>
      <path class="cls-2" d="M296.69,35.34h5.22c3.65,0,5.22,1.7,5.22,5.15v1.38c0,2.3-.74,3.78-2.3,4.42v.06c1.76,.54,2.34,2.21,2.34,4.74v3.94c0,1.09,.03,1.89,.38,2.72h-3.58c-.19-.58-.32-.93-.32-2.75v-4.1c0-2.08-.61-2.75-2.21-2.75h-1.22v9.6h-3.52v-22.4Zm4.8,9.6c1.31,0,2.11-.58,2.11-2.37v-1.73c0-1.6-.54-2.3-1.79-2.3h-1.6v6.4h1.28Z"/>
      <path class="cls-2" d="M310.23,35.34h9.6v3.2h-6.08v5.92h4.83v3.2h-4.83v6.88h6.08v3.2h-9.6v-22.4Z"/>
      <path class="cls-10" d="M111.4,76.34h3.52v22.4h-3.52v-22.4Z"/>
      <path class="cls-10" d="M117.57,93.42v-1.28h3.33v1.54c0,1.6,.7,2.18,1.82,2.18s1.82-.58,1.82-2.24c0-1.86-.7-3.04-3.01-5.06-2.94-2.59-3.9-4.42-3.9-6.98,0-3.52,1.82-5.57,5.25-5.57s5.12,2.05,5.12,5.63v.93h-3.33v-1.15c0-1.6-.64-2.21-1.76-2.21s-1.76,.61-1.76,2.14c0,1.63,.74,2.82,3.04,4.83,2.94,2.59,3.87,4.38,3.87,7.17,0,3.65-1.86,5.7-5.31,5.7s-5.18-2.05-5.18-5.63Z"/>
      <path class="cls-10" d="M136.48,76.34h9.6v3.2h-6.08v5.92h4.83v3.2h-4.83v6.88h6.08v3.2h-9.6v-22.4Z"/>
      <path class="cls-10" d="M148.2,93.42v-1.28h3.33v1.54c0,1.6,.7,2.18,1.82,2.18s1.82-.58,1.82-2.24c0-1.86-.7-3.04-3.01-5.06-2.94-2.59-3.9-4.42-3.9-6.98,0-3.52,1.82-5.57,5.25-5.57s5.12,2.05,5.12,5.63v.93h-3.33v-1.15c0-1.6-.64-2.21-1.76-2.21s-1.76,.61-1.76,2.14c0,1.63,.74,2.82,3.04,4.83,2.94,2.59,3.87,4.38,3.87,7.17,0,3.65-1.86,5.7-5.31,5.7s-5.18-2.05-5.18-5.63Z"/>
      <path class="cls-10" d="M160.74,93.42v-1.28h3.33v1.54c0,1.6,.7,2.18,1.82,2.18s1.82-.58,1.82-2.24c0-1.86-.7-3.04-3.01-5.06-2.94-2.59-3.9-4.42-3.9-6.98,0-3.52,1.82-5.57,5.25-5.57s5.12,2.05,5.12,5.63v.93h-3.33v-1.15c0-1.6-.64-2.21-1.76-2.21s-1.76,.61-1.76,2.14c0,1.63,.74,2.82,3.04,4.83,2.94,2.59,3.87,4.38,3.87,7.17,0,3.65-1.86,5.7-5.31,5.7s-5.18-2.05-5.18-5.63Z"/>
      <path class="cls-10" d="M173.89,76.34h9.6v3.2h-6.08v5.92h4.83v3.2h-4.83v6.88h6.08v3.2h-9.6v-22.4Z"/>
      <path class="cls-10" d="M186.15,76.34h4.42l3.42,13.41h.06v-13.41h3.14v22.4h-3.62l-4.22-16.35h-.06v16.35h-3.14v-22.4Z"/>
      <path class="cls-10" d="M203.2,79.54h-3.68v-3.2h10.88v3.2h-3.68v19.2h-3.52v-19.2Z"/>
      <path class="cls-10" d="M212.74,76.34h3.52v22.4h-3.52v-22.4Z"/>
      <path class="cls-10" d="M222.24,76.34h4.77l3.65,22.4h-3.52l-.64-4.45v.06h-4l-.64,4.38h-3.26l3.65-22.4Zm3.84,14.98l-1.57-11.07h-.06l-1.54,11.07h3.17Z"/>
      <path class="cls-10" d="M233,76.34h3.52v19.2h5.79v3.2h-9.31v-22.4Z"/>
    </g>
    <circle class="cls-11" cx="101.63" cy="176.77" r="22.3"/>
    <path class="cls-13" d="M117.3,185.23l-3.97-6.24v-3.64l2.99,4.71c.17,.27,.53,.35,.8,.17,.27-.17,.35-.53,.17-.8l-3.97-6.24v-3.31c0-.32-.26-.58-.58-.58-.2,0-.38,.1-.49,.27l-4.06,6.38c-.19,.26-.13,.62,.13,.81,.26,.19,.62,.13,.81-.13,.01-.02,.02-.03,.03-.05l2.99-4.71v3.64l-3.97,6.24c-.17,.27-.09,.63,.18,.8,.09,.06,.2,.09,.31,.09,.2,0,.38-.1,.49-.27l2.99-4.71v7.29h-3.48c-.32,0-.58,.26-.58,.58s.26,.58,.58,.58h3.48v9.86c0,.32,.26,.58,.58,.58s.58-.26,.58-.58v-9.86h3.48c.32,0,.58-.26,.58-.58,0-.11-.03-.22-.09-.31Zm-3.97-.27v-3.81l2.43,3.81h-2.43Zm-17.41,1.16h-3.48v-7.29l2.99,4.71c.17,.27,.53,.35,.8,.17,.27-.17,.35-.53,.17-.8l-3.97-6.24v-4.22l2.99,4.71c.17,.27,.53,.35,.8,.17,.27-.17,.35-.53,.17-.8l-3.97-6.24v-4.22l2.99,4.71c.16,.28,.51,.38,.79,.22,.28-.16,.38-.51,.22-.79-.01-.02-.02-.04-.03-.05l-4.06-6.38c-.13-.22-.4-.33-.65-.27-.26,.07-.43,.31-.42,.58v3.89l-3.97,6.24c-.17,.27-.09,.63,.18,.8,.09,.06,.2,.09,.31,.09,.2,0,.38-.1,.49-.27l2.99-4.71v4.22l-3.97,6.24c-.17,.27-.09,.63,.18,.8,.09,.06,.2,.09,.31,.09,.2,0,.38-.1,.49-.27l2.99-4.71v3.64l-3.97,6.24c-.17,.27-.09,.63,.18,.8,.09,.06,.2,.09,.31,.09h3.48v8.7c0,.32,.26,.58,.58,.58s.58-.26,.58-.58v-8.7h3.48c.32,0,.58-.26,.58-.58s-.26-.58-.58-.58Zm-7.07,0l2.43-3.81v3.81h-2.43Zm18.48-23.01h0c-.58-.58-1.3-.99-2.09-1.2-.21-.06-.43,0-.58,.15-.15,.15-.21,.37-.15,.58,.49,1.86-.61,3.77-2.47,4.26-.59,.16-1.2,.16-1.79,0-.21-.06-.43,0-.58,.15-.15,.15-.21,.37-.15,.58,.66,2.48,3.21,3.95,5.68,3.29,.79-.21,1.51-.62,2.08-1.2,1.84-1.79,1.88-4.73,.1-6.56-.02-.02-.03-.03-.05-.05Zm-.82,5.74c-1.37,1.35-3.57,1.35-4.92-.02-.21-.21-.39-.44-.54-.7,2.56,.06,4.69-1.98,4.74-4.54,0-.07,0-.13,0-.2,1.66,.98,2.21,3.11,1.23,4.77-.15,.25-.33,.49-.54,.69h.02Zm-7.1,12.05v5.22c0,.32-.26,.58-.58,.58s-.58-.26-.58-.58v-5.22c0-.32,.26-.58,.58-.58s.58,.26,.58,.58Zm6.38,6.96v5.22c0,.32-.26,.58-.58,.58s-.58-.26-.58-.58v-5.22c0-.32,.26-.58,.58-.58s.58,.26,.58,.58Z"/>
    <circle class="cls-11" cx="267.61" cy="176.77" r="22.3"/>
    <path class="cls-13" d="M267.61,179.64c-1.2,0-2.38,.24-3.48,.71v-1.62c0-.32-.26-.58-.58-.58s-.58,.26-.58,.58v2.23c-2.65,1.61-4.26,4.49-4.27,7.58,0,1.36,.31,2.32,.96,2.87,1.04,.91,2.69,.7,4.6,.45,1.11-.17,2.23-.26,3.35-.28,1.12,.02,2.24,.12,3.35,.28l.71,.09v.71c0,.32,.26,.58,.58,.58s.58-.26,.58-.58v-.58h.5c.8,.06,1.59-.18,2.22-.67,.65-.58,.96-1.5,.96-2.87,0-4.92-3.99-8.9-8.91-8.91Zm7.18,10.9c-.4,.35-1.1,.41-1.96,.36v-3.46c0-.32-.26-.58-.58-.58s-.58,.26-.58,.58v3.34l-.58-.07c-1.15-.18-2.32-.27-3.48-.3-1.17,.02-2.33,.12-3.48,.3-1.63,.21-3.03,.39-3.68-.17-.38-.34-.58-.99-.58-2,0-2.43,1.15-4.73,3.1-6.19v1.6c0,.32,.26,.58,.58,.58s.58-.26,.58-.58v-2.32c3.81-1.93,8.46-.41,10.39,3.39,.55,1.09,.84,2.3,.84,3.52,0,1.01-.2,1.66-.57,2Zm-7.18-17.25c-1.64,0-2.62,3.05-2.62,3.85,0,1.01,1.16,1.8,2.62,1.8s2.62-.79,2.62-1.8c0-.79-.99-3.85-2.62-3.85Zm0,4.49c-.91,0-1.46-.42-1.46-.64,0-.63,.89-2.69,1.46-2.69s1.46,2.06,1.46,2.69c0,.23-.56,.64-1.46,.64Zm-7.29,4.52c.35-.5,.64-1.04,.84-1.62,.3-.77,.44-1.59,.41-2.41-.04-1.04-.4-1.74-1-1.99-1.36-.58-2.98,1.44-3.48,2.72-.66,1.61,.51,3.28,1.6,3.73,.18,.08,.38,.12,.58,.12,.42-.02,.8-.22,1.06-.56Zm-2.18-2.86c.48-1.16,1.55-2.1,1.93-2.1h.06c.08,.03,.26,.31,.28,.96,.02,.66-.1,1.32-.34,1.93h0c-.16,.46-.38,.91-.66,1.32-.15,.18-.21,.16-.33,.1-.8-.42-1.19-1.35-.94-2.22Zm16.52-3.16c-.58,.24-.96,.95-1,1.99-.03,.82,.11,1.64,.41,2.41,.2,.58,.49,1.12,.84,1.62,.26,.35,.66,.56,1.09,.58,.2,0,.4-.04,.58-.12,1.09-.45,2.26-2.12,1.6-3.73-.53-1.3-2.15-3.3-3.52-2.74Zm1.47,5.38c-.12,.05-.18,.08-.33-.1-.27-.41-.48-.85-.64-1.32h0c-.24-.61-.35-1.27-.32-1.92,0-.65,.2-.93,.28-.96h.06c.38,0,1.45,.93,1.93,2.1,.24,.87-.17,1.79-.97,2.21Zm-9.53-9.32c.63,.39,1.42,.39,2.04,0,.42-.25,.81-.55,1.16-.88,.7-.67,.92-1.7,.56-2.6-.64-2-1.17-4.04-1.58-6.1-.17-.86-.38-1.8-.58-2.73-.08-.31-.39-.5-.7-.42-.21,.05-.37,.21-.42,.42-.24,.93-.44,1.87-.62,2.73-.41,2.06-.94,4.1-1.58,6.1-.35,.89-.14,1.9,.55,2.56,.36,.35,.75,.65,1.17,.92Zm-.64-3.02c.66-2.07,1.2-4.18,1.61-6.31,0-.07,0-.15,.05-.22,0,.08,.03,.15,.05,.22,.41,2.12,.95,4.22,1.61,6.28,.18,.45,.08,.96-.26,1.31-.3,.28-.63,.53-.98,.74-.25,.16-.58,.16-.84,0-.35-.21-.68-.46-.98-.74-.34-.35-.44-.86-.26-1.31v.03Zm-8.64,7.38c.92,0,2.08-.44,2.61-2.43,.13-.5,.09-1.02-.11-1.49-.99-2.4-1.28-5.18-.91-8.5,.03-.32-.2-.6-.52-.64-.24-.03-.46,.1-.58,.31-2.11,4.09-2.95,7.67-2.55,10.92,.12,1.01,.95,1.78,1.97,1.83h.09Zm-.9-1.97c-.24-2.55,.16-5.12,1.16-7.48,0,2.05,.4,4.07,1.16,5.97,.1,.24,.12,.5,.06,.75-.38,1.43-1.07,1.57-1.54,1.56-.44-.02-.8-.37-.85-.81Zm21-10.78c-.15-.28-.5-.39-.78-.24-.21,.11-.33,.34-.31,.58,.38,3.31,.08,6.09-.91,8.5-.2,.47-.24,1-.11,1.49,.52,1.99,1.69,2.43,2.61,2.43h.09c1.01-.05,1.85-.82,1.97-1.83,.41-3.25-.44-6.82-2.55-10.92Zm1.4,10.78c-.05,.44-.4,.78-.85,.81-.48,0-1.16-.13-1.54-1.56-.06-.25-.03-.52,.06-.75,.76-1.9,1.16-3.92,1.16-5.97,1,2.36,1.4,4.93,1.16,7.48Z"/>
    <circle class="cls-11" cx="182.85" cy="176.77" r="22.3"/>
    <path class="cls-13" d="M200.41,178.28h-35.13c-.31,0-.56-.25-.56-.56s.25-.56,.56-.56h35.13c.31,0,.56,.25,.56,.56s-.25,.56-.56,.56Z"/>
    <g class="cls-15">
      <g>
        <g>
          <path class="cls-14" d="M171.08,193.9s-.1,0-.15-.03c-.21-.08-.32-.32-.24-.53l3.09-8.04-4.96-2.54c-.2-.1-.28-.35-.18-.55l2.32-4.64c.1-.2,.35-.28,.55-.18,.2,.1,.28,.35,.18,.55l-2.14,4.28,4.93,2.52c.19,.1,.27,.32,.2,.51l-3.22,8.38c-.06,.16-.22,.26-.38,.26Z"/>
          <path class="cls-13" d="M171.08,194.04c-.07,0-.13-.01-.2-.04-.28-.11-.42-.43-.32-.71l3.04-7.92-4.85-2.48c-.27-.14-.37-.47-.24-.73l2.32-4.64c.14-.27,.47-.38,.74-.24,.27,.14,.38,.47,.25,.74l-2.08,4.16,4.81,2.46c.25,.13,.36,.42,.26,.69l-3.22,8.38c-.08,.21-.29,.35-.51,.35Zm.26-16.56c-.1,0-.2,.05-.24,.15l-2.32,4.64c-.07,.13-.01,.29,.12,.36l5.07,2.6-3.13,8.16c-.05,.14,.02,.3,.16,.35,.13,.05,.3-.02,.35-.16l3.22-8.38c.05-.13,0-.27-.13-.34l-5.05-2.59,2.21-4.4c.07-.13,.01-.3-.12-.36-.04-.02-.08-.03-.12-.03Z"/>
        </g>
        <g>
          <path class="cls-14" d="M179.85,193.9c-.14,0-.28-.07-.35-.2-.12-.19-.05-.45,.14-.56l7.27-4.3-4.76-2.87c-.11-.07-.18-.18-.2-.31-.01-.13,.04-.26,.13-.34l3.8-3.51-5.44-3.51-5.83,7.07c-.14,.18-.4,.2-.58,.06-.17-.14-.2-.4-.06-.58l6.07-7.35c.13-.16,.36-.2,.54-.08l6.19,4c.11,.07,.17,.18,.19,.31,.01,.13-.04,.25-.13,.34l-3.79,3.5,4.89,2.94c.12,.08,.2,.21,.2,.35,0,.14-.08,.28-.2,.35l-7.87,4.64c-.07,.04-.14,.06-.21,.06h0Z"/>
          <path class="cls-13" d="M179.85,194.04c-.19,0-.37-.1-.47-.27-.15-.26-.07-.6,.19-.75l7.07-4.18-4.56-2.75c-.15-.09-.25-.24-.26-.41-.02-.17,.05-.34,.17-.46l3.67-3.39-5.18-3.35-5.76,6.98c-.09,.11-.22,.18-.37,.2-.15,.01-.29-.03-.4-.12-.11-.09-.18-.22-.2-.37-.01-.15,.03-.29,.12-.4l6.07-7.35c.18-.21,.49-.26,.72-.11l6.19,4c.14,.09,.23,.24,.25,.41,.01,.17-.05,.33-.17,.45l-3.66,3.37,4.73,2.85c.17,.1,.27,.28,.27,.47,0,.19-.1,.37-.27,.47l-7.87,4.64c-.08,.05-.18,.08-.28,.08Zm.57-15.93l5.69,3.68-3.94,3.63c-.06,.06-.09,.14-.09,.23,0,.08,.06,.16,.13,.2l4.96,2.99-7.47,4.41c-.13,.08-.17,.24-.1,.37,.07,.12,.25,.17,.37,.1l7.87-4.64c.08-.05,.13-.14,.13-.23,0-.1-.05-.19-.13-.23l-5.04-3.04,3.93-3.62c.06-.06,.09-.14,.09-.22,0-.08-.05-.16-.12-.2l-6.19-4c-.12-.07-.27-.05-.36,.06l-6.07,7.35c-.05,.06-.07,.13-.06,.2,0,.07,.04,.14,.1,.18,.06,.05,.13,.07,.2,.06,.07,0,.14-.04,.18-.1l5.91-7.17Z"/>
        </g>
        <g>
          <path class="cls-14" d="M194.17,193.9c-.18,0-.34-.12-.39-.3l-2.26-7.97-3.51,3.51c-.16,.16-.42,.16-.58,0-.16-.16-.16-.42,0-.58l4-4c.1-.1,.25-.14,.39-.11,.14,.04,.25,.15,.29,.28l2.45,8.64c.06,.22-.07,.44-.28,.51-.04,.01-.08,.02-.11,.02h0Z"/>
          <path class="cls-13" d="M194.17,194.04c-.24,0-.46-.16-.53-.4l-2.2-7.74-3.34,3.34c-.21,.21-.56,.21-.78,0-.1-.1-.16-.24-.16-.39,0-.15,.06-.28,.16-.39l4-4c.14-.14,.34-.19,.53-.14,.19,.05,.34,.2,.39,.38l2.45,8.64c.08,.29-.09,.6-.38,.68-.05,.01-.1,.02-.15,.02Zm-2.59-8.67l2.33,8.2c.04,.14,.19,.23,.34,.19,.14-.04,.23-.19,.19-.33l-2.45-8.64c-.03-.09-.1-.16-.19-.19-.09-.02-.19,0-.26,.07l-4,4c-.05,.05-.08,.12-.08,.19s.03,.14,.08,.19c.11,.11,.28,.11,.38,0l3.67-3.67Z"/>
        </g>
        <g>
          <path class="cls-14" d="M200.61,193.9c-.07,0-.14-.02-.2-.05l-7.67-4.32c-.12-.07-.2-.19-.21-.32-.01-.13,.05-.27,.15-.35l7.03-5.67-6.93-1.67c-.14-.03-.25-.14-.29-.27-.04-.13-.02-.28,.08-.39l2.84-3.35c.15-.17,.4-.19,.58-.05,.17,.15,.19,.4,.05,.58l-2.41,2.85,7.09,1.71c.15,.04,.27,.16,.3,.31,.03,.15-.02,.31-.14,.41l-7.2,5.82,7.15,4.03c.2,.11,.27,.36,.16,.56-.08,.13-.21,.21-.36,.21h0Z"/>
          <path class="cls-13" d="M200.61,194.04c-.09,0-.19-.02-.27-.07l-7.67-4.32c-.16-.09-.26-.25-.28-.43-.01-.18,.06-.36,.2-.47l6.81-5.5-6.66-1.6c-.19-.05-.33-.18-.39-.36-.06-.18-.02-.38,.1-.53l2.84-3.35c.1-.11,.23-.18,.37-.19,.15-.01,.29,.03,.4,.13,.11,.09,.18,.23,.19,.37,.01,.15-.03,.29-.13,.4l-2.26,2.67,6.87,1.66c.2,.05,.36,.21,.41,.41,.05,.21-.03,.42-.19,.55l-7.04,5.69,6.97,3.92c.26,.15,.36,.48,.21,.75-.1,.17-.28,.28-.48,.28Zm-4.9-16.56s-.01,0-.02,0c-.07,0-.14,.04-.18,.1l-2.84,3.35c-.06,.07-.08,.17-.05,.26,.03,.09,.1,.16,.19,.18l7.21,1.74-7.25,5.85c-.07,.06-.11,.14-.1,.23,0,.09,.06,.17,.14,.21l7.67,4.32c.13,.07,.3,.02,.37-.1,.04-.06,.04-.14,.03-.21-.02-.07-.06-.13-.13-.16l-7.33-4.13,7.36-5.95c.08-.07,.12-.17,.09-.27-.02-.1-.1-.18-.2-.2l-7.31-1.76,2.55-3.02c.05-.06,.07-.13,.06-.2,0-.07-.04-.14-.1-.18-.05-.04-.11-.06-.17-.06Z"/>
        </g>
        <g>
          <path class="cls-14" d="M172.69,189.71c-.19,0-.36-.13-.4-.33-.04-.22,.1-.44,.32-.48l11.91-2.33c.22-.04,.44,.1,.48,.32,.04,.22-.1,.44-.32,.48l-11.91,2.33s-.05,0-.08,0Z"/>
          <path class="cls-13" d="M172.69,189.85c-.26,0-.49-.19-.54-.44-.06-.3,.14-.59,.43-.64l11.91-2.33c.3-.06,.59,.14,.64,.43,.03,.14,0,.29-.08,.41-.08,.12-.21,.2-.35,.23l-11.91,2.33s-.07,0-.1,0Zm11.91-3.15s-.03,0-.05,0l-11.91,2.33c-.15,.03-.24,.17-.21,.32,.03,.14,.17,.24,.32,.21l11.91-2.33c.07-.01,.13-.05,.17-.11s.05-.13,.04-.2c-.03-.13-.14-.22-.27-.22Z"/>
        </g>
        <g>
          <path class="cls-14" d="M164.11,191.44c-.16,0-.31-.1-.38-.25-.09-.21,.01-.45,.22-.53l8.26-3.4-8.21-2.15c-.22-.06-.35-.28-.29-.5,.06-.22,.28-.35,.5-.29l9.4,2.46c.17,.04,.29,.19,.3,.37,.01,.18-.09,.34-.25,.41l-9.4,3.86c-.05,.02-.1,.03-.16,.03h0Z"/>
          <path class="cls-13" d="M164.11,191.58c-.22,0-.42-.13-.51-.34-.11-.28,.02-.6,.3-.72l7.88-3.24-7.81-2.04c-.29-.08-.47-.38-.39-.67,.08-.29,.38-.47,.67-.39l9.4,2.46c.23,.06,.39,.26,.41,.49,.02,.23-.12,.45-.34,.54l-9.4,3.86c-.07,.03-.14,.04-.21,.04Zm0-7.14c-.12,0-.23,.08-.26,.2-.04,.14,.05,.29,.19,.33l8.61,2.25-8.65,3.56c-.14,.06-.2,.21-.15,.35,.06,.13,.22,.2,.35,.15l9.4-3.86c.11-.04,.17-.15,.17-.27,0-.12-.09-.21-.2-.24l-9.4-2.46s-.05,0-.07,0Z"/>
        </g>
        <g>
          <path class="cls-14" d="M192.19,177.34h1.53v-5.01c0-.11,.04-.21,.12-.29l3.5-3.5-.9-.3-2.02,2.02c-.12,.12-.29,.15-.45,.09-.15-.06-.25-.21-.25-.38v-2.81s-1.53,.53-1.53,.53v2.28c0,.17-.1,.32-.25,.38-.15,.06-.33,.03-.45-.09l-2.22-2.22-.78,.42,3.58,3.58c.08,.08,.12,.18,.12,.29v5.01Zm1.94,.82h-2.35c-.23,0-.41-.18-.41-.41v-5.25s-3.85-3.85-3.85-3.85c-.09-.09-.13-.22-.12-.35,.02-.13,.1-.24,.21-.3l1.54-.82c.16-.08,.36-.06,.48,.07l1.73,1.73v-1.58c0-.17,.11-.33,.27-.39l2.35-.82c.13-.04,.26-.02,.37,.05,.11,.08,.17,.2,.17,.33v2.4s1.5-1.5,1.5-1.5c.11-.11,.27-.15,.42-.1l1.77,.59c.13,.05,.24,.16,.27,.3,.03,.14,0,.28-.11,.38l-3.85,3.85v5.25c0,.23-.18,.41-.41,.41h0Z"/>
          <path class="cls-13" d="M194.13,178.3h-2.35c-.3,0-.55-.25-.55-.55v-5.19s-3.81-3.81-3.81-3.81c-.12-.12-.18-.3-.16-.47,.03-.17,.13-.32,.28-.4l1.54-.82c.21-.11,.47-.08,.65,.1l1.49,1.5v-1.24c0-.23,.15-.44,.37-.52l2.35-.82c.17-.06,.36-.03,.5,.07,.14,.1,.23,.27,.23,.45v2.06s1.26-1.26,1.26-1.26c.15-.15,.36-.2,.56-.13l1.77,.59c.18,.06,.32,.21,.36,.4,.04,.18-.01,.38-.15,.51l-3.81,3.81v5.19c0,.3-.25,.55-.55,.55Zm-4.78-11.03s-.09,.01-.13,.03l-1.54,.82c-.07,.04-.13,.12-.14,.2-.01,.08,.02,.17,.08,.23l3.89,3.89v5.3c0,.15,.12,.27,.27,.27h2.35c.15,0,.27-.12,.27-.27v-5.3l3.89-3.89c.07-.07,.09-.16,.07-.25-.02-.09-.09-.17-.18-.2l-1.77-.59c-.1-.03-.2,0-.28,.07l-1.74,1.74v-2.74c0-.09-.04-.17-.11-.22-.07-.05-.16-.06-.25-.04l-2.35,.82c-.11,.04-.18,.14-.18,.26v1.92l-1.97-1.97c-.05-.05-.12-.08-.19-.08Zm4.51,10.21h-1.81v-5.15c0-.07-.03-.14-.08-.19l-3.71-3.71,1.04-.56,2.29,2.29c.08,.08,.19,.1,.29,.06,.1-.04,.17-.14,.17-.25v-2.38l1.81-.63v3.01c0,.11,.07,.21,.17,.25,.1,.04,.22,.02,.29-.06l2.08-2.08,1.2,.4-3.66,3.66c-.05,.05-.08,.12-.08,.19v5.15Zm-1.53-.28h1.25v-4.87c0-.15,.06-.28,.16-.39l3.35-3.34-.61-.2-1.96,1.96c-.16,.16-.39,.21-.6,.12-.21-.08-.34-.28-.34-.51v-2.62l-1.25,.44v2.18c0,.22-.13,.42-.34,.51-.21,.09-.44,.04-.6-.12l-2.14-2.14-.53,.28,3.45,3.45c.1,.1,.16,.24,.16,.39v4.87Z"/>
        </g>
        <g>
          <path class="cls-14" d="M186.38,171.12c-.15,0-.3-.09-.37-.23-.1-.2,0-.45,.19-.55l2.56-1.21c.21-.1,.45-.01,.55,.19,.1,.2,0,.45-.2,.55l-2.56,1.21c-.06,.03-.12,.04-.18,.04Z"/>
          <path class="cls-13" d="M186.38,171.25c-.21,0-.41-.12-.5-.31-.06-.13-.07-.28-.02-.42,.05-.14,.15-.25,.28-.31l2.56-1.21c.13-.06,.28-.07,.42-.02,.14,.05,.25,.15,.31,.28,.06,.13,.07,.28,.02,.42-.05,.14-.15,.25-.28,.31l-2.56,1.21c-.07,.03-.15,.05-.23,.05Zm2.56-2.03s-.08,0-.12,.03l-2.56,1.21c-.07,.03-.11,.09-.14,.15-.02,.07-.02,.14,.01,.21,.06,.13,.23,.19,.36,.13l2.56-1.21c.07-.03,.12-.09,.14-.15,.02-.07,.02-.14-.01-.21s-.09-.12-.15-.14c-.03-.01-.06-.02-.09-.02Z"/>
        </g>
        <g>
          <path class="cls-14" d="M186.38,171.12c-.09,0-.19-.03-.27-.1l-2.05-1.76c-.17-.15-.19-.41-.05-.58,.15-.17,.41-.19,.58-.04l2.06,1.76c.17,.15,.19,.41,.04,.58-.08,.09-.2,.14-.31,.14Z"/>
          <path class="cls-13" d="M186.38,171.25c-.13,0-.26-.05-.36-.13l-2.05-1.76c-.23-.2-.26-.54-.06-.77,.2-.23,.55-.26,.77-.06l2.06,1.76c.11,.1,.18,.23,.19,.38,.01,.15-.04,.29-.13,.4-.1,.12-.25,.19-.42,.19Zm-2.05-2.58c-.08,0-.15,.03-.21,.09-.05,.05-.07,.12-.06,.2s.04,.14,.09,.18l2.06,1.76c.11,.1,.29,.08,.38-.03,.05-.06,.07-.13,.07-.2,0-.07-.04-.14-.09-.19l-2.06-1.76c-.05-.04-.11-.06-.18-.06Z"/>
        </g>
        <g>
          <path class="cls-14" d="M184.32,172.88c-.12,0-.23-.05-.31-.14-.15-.17-.13-.43,.05-.58l2.06-1.76c.17-.15,.43-.13,.58,.04,.15,.17,.13,.43-.04,.58l-2.05,1.76c-.08,.07-.17,.1-.27,.1Z"/>
          <path class="cls-13" d="M184.32,173.01c-.16,0-.31-.07-.42-.19-.2-.23-.17-.58,.06-.77l2.06-1.76c.23-.2,.58-.17,.77,.06,.1,.11,.14,.25,.13,.4-.01,.15-.08,.28-.19,.37l-2.05,1.76c-.1,.09-.23,.13-.36,.13Zm2.06-2.58c-.06,0-.12,.02-.18,.06l-2.06,1.76c-.11,.1-.13,.27-.03,.38,.09,.11,.27,.12,.38,.03l2.06-1.76c.06-.05,.09-.11,.09-.18,0-.07-.02-.14-.06-.2-.05-.06-.13-.09-.2-.09Z"/>
        </g>
        <g>
          <path class="cls-14" d="M196.33,168.18c-.19,0-.37-.14-.4-.34l-.51-2.79c-.04-.22,.11-.44,.33-.48,.22-.04,.44,.11,.48,.33l.51,2.79c.04,.22-.11,.44-.33,.48-.02,0-.05,0-.07,0h0Z"/>
          <path class="cls-13" d="M196.33,168.32c-.26,0-.49-.19-.54-.45l-.51-2.79c-.03-.14,0-.29,.09-.41,.08-.12,.21-.2,.35-.23,.14-.03,.29,0,.41,.09,.12,.08,.2,.21,.23,.35l.51,2.79c.05,.3-.14,.58-.44,.64-.03,0-.07,0-.1,0Zm-.51-3.61s-.03,0-.05,0c-.07,.01-.13,.05-.17,.11-.04,.06-.06,.13-.04,.2l.51,2.79c.03,.15,.17,.24,.32,.22,.14-.03,.24-.17,.22-.32l-.51-2.79c-.01-.07-.05-.13-.11-.17-.05-.03-.1-.05-.15-.05Z"/>
        </g>
        <g>
          <path class="cls-14" d="M195.83,165.39c-.13,0-.26-.06-.34-.18-.13-.19-.08-.44,.11-.57l2.23-1.53c.19-.13,.44-.08,.57,.11,.13,.19,.08,.44-.11,.57l-2.23,1.53c-.07,.05-.15,.07-.23,.07h0Z"/>
          <path class="cls-13" d="M195.83,165.53c-.18,0-.35-.09-.45-.24-.17-.25-.11-.59,.14-.76l2.23-1.53c.25-.17,.59-.11,.76,.14,.08,.12,.11,.27,.09,.41-.03,.14-.11,.27-.23,.35l-2.23,1.53c-.09,.06-.2,.1-.31,.1Zm2.23-2.35c-.05,0-.11,.02-.15,.05l-2.23,1.53c-.12,.08-.15,.25-.07,.38,.08,.12,.26,.15,.38,.07l2.23-1.53c.12-.08,.16-.25,.07-.38-.05-.08-.14-.12-.22-.12Z"/>
        </g>
        <g>
          <path class="cls-14" d="M195.83,165.39c-.15,0-.3-.09-.37-.23l-1.17-2.44c-.1-.2-.01-.45,.19-.55,.2-.1,.45-.01,.55,.19l1.17,2.44c.1,.2,.01,.45-.19,.55-.06,.03-.12,.04-.18,.04Z"/>
          <path class="cls-13" d="M195.83,165.53c-.21,0-.4-.12-.5-.31l-1.17-2.44c-.13-.27-.01-.6,.26-.73,.27-.13,.6-.01,.73,.26l1.17,2.44c.06,.13,.07,.28,.02,.42-.05,.14-.15,.25-.28,.31-.07,.04-.16,.05-.24,.05Zm-1.17-3.26s-.08,0-.12,.03c-.13,.06-.19,.23-.13,.36l1.17,2.44c.06,.13,.23,.19,.36,.13,.13-.06,.19-.23,.13-.36l-1.17-2.44c-.05-.1-.14-.15-.24-.15Z"/>
        </g>
        <g>
          <path class="cls-14" d="M191.78,167.81c-.1,0-.2-.04-.28-.11l-2.23-2.13c-.1-.1-.15-.24-.12-.38l.61-3.07c.04-.22,.26-.37,.48-.32,.22,.04,.37,.26,.32,.48l-.57,2.85,2.07,1.97c.16,.16,.17,.42,.01,.58-.08,.08-.19,.13-.3,.13Z"/>
          <path class="cls-13" d="M191.78,167.95c-.14,0-.28-.05-.38-.15l-2.23-2.13c-.14-.13-.2-.32-.16-.5l.61-3.07c.03-.14,.11-.27,.23-.35,.12-.08,.27-.11,.41-.08,.14,.03,.27,.11,.35,.23,.08,.12,.11,.27,.08,.41l-.56,2.78,2.01,1.92c.11,.1,.17,.24,.17,.38,0,.15-.05,.29-.15,.39-.1,.11-.25,.17-.4,.17Zm-1.62-6.02c-.05,0-.1,.02-.15,.05-.06,.04-.1,.1-.12,.17l-.61,3.07c-.02,.09,.01,.18,.08,.25l2.23,2.13c.1,.1,.28,.09,.38,0,.05-.05,.08-.12,.07-.19,0-.07-.03-.14-.08-.19l-2.12-2.03,.59-2.93c.01-.07,0-.14-.04-.2-.04-.06-.1-.1-.17-.12-.02,0-.04,0-.05,0Z"/>
        </g>
        <g>
          <path class="cls-14" d="M189.55,165.69c-.06,0-.13-.02-.19-.05l-2.36-1.23c-.2-.1-.28-.35-.17-.55,.1-.2,.35-.28,.55-.17l2.36,1.23c.2,.11,.28,.35,.17,.55-.07,.14-.22,.22-.36,.22Z"/>
          <path class="cls-13" d="M189.55,165.82c-.09,0-.18-.02-.25-.06l-2.36-1.23c-.27-.14-.37-.47-.23-.74,.07-.13,.18-.23,.32-.27,.14-.04,.29-.03,.42,.04l2.36,1.23c.27,.14,.37,.47,.23,.74-.1,.18-.28,.3-.49,.3Zm-2.36-2.05s-.05,0-.08,.01c-.07,.02-.13,.07-.16,.13-.07,.13-.02,.3,.12,.37l2.36,1.23c.13,.07,.3,.01,.37-.11,.07-.13,.02-.3-.12-.37l-2.36-1.23s-.08-.03-.13-.03Z"/>
        </g>
      </g>
    </g>
    <g>
      <path class="cls-10" d="M85.87,207.2h4.08v1.4h-2.54v2.73h1.99v1.4h-1.99v4.27h-1.54v-9.81Z"/>
      <path class="cls-10" d="M90.85,214.68v-5.15c0-1.57,.83-2.47,2.34-2.47s2.34,.9,2.34,2.47v5.15c0,1.57-.83,2.47-2.34,2.47s-2.34-.9-2.34-2.47Zm3.14,.1v-5.35c0-.7-.31-.97-.8-.97s-.8,.27-.8,.97v5.35c0,.7,.31,.97,.8,.97s.8-.27,.8-.97Z"/>
      <path class="cls-10" d="M96.84,207.2h2.28c1.6,0,2.28,.74,2.28,2.25v.6c0,1.01-.32,1.65-1.01,1.93v.03c.77,.24,1.02,.97,1.02,2.07v1.72c0,.48,.01,.83,.17,1.19h-1.57c-.08-.25-.14-.41-.14-1.2v-1.79c0-.91-.27-1.2-.97-1.2h-.53v4.2h-1.54v-9.81Zm2.1,4.2c.57,0,.92-.25,.92-1.04v-.76c0-.7-.24-1.01-.78-1.01h-.7v2.8h.56Z"/>
      <path class="cls-10" d="M102.76,207.2h4.2v1.4h-2.66v2.59h2.12v1.4h-2.12v3.01h2.66v1.4h-4.2v-9.81Z"/>
      <path class="cls-10" d="M107.89,214.68v-.56h1.46v.67c0,.7,.31,.95,.8,.95s.8-.25,.8-.98c0-.81-.31-1.33-1.32-2.21-1.29-1.13-1.71-1.93-1.71-3.05,0-1.54,.8-2.44,2.3-2.44s2.24,.9,2.24,2.47v.41h-1.46v-.5c0-.7-.28-.97-.77-.97s-.77,.27-.77,.94c0,.71,.32,1.23,1.33,2.12,1.29,1.13,1.7,1.92,1.7,3.14,0,1.6-.81,2.49-2.33,2.49s-2.27-.9-2.27-2.47Z"/>
      <path class="cls-10" d="M114.85,208.6h-1.61v-1.4h4.76v1.4h-1.61v8.4h-1.54v-8.4Z"/>
      <path class="cls-10" d="M84.94,221.2h1.54v8.4h2.54v1.4h-4.08v-9.81Z"/>
      <path class="cls-10" d="M89.86,228.68v-5.15c0-1.57,.83-2.47,2.34-2.47s2.34,.9,2.34,2.47v5.15c0,1.57-.83,2.47-2.34,2.47s-2.34-.9-2.34-2.47Zm3.14,.1v-5.35c0-.7-.31-.97-.8-.97s-.8,.27-.8,.97v5.35c0,.7,.31,.97,.8,.97s.8-.27,.8-.97Z"/>
      <path class="cls-10" d="M95.59,228.68v-.56h1.46v.67c0,.7,.31,.95,.8,.95s.8-.25,.8-.98c0-.81-.31-1.33-1.32-2.21-1.29-1.13-1.71-1.93-1.71-3.05,0-1.54,.8-2.44,2.3-2.44s2.24,.9,2.24,2.47v.41h-1.46v-.5c0-.7-.28-.97-.77-.97s-.77,.27-.77,.94c0,.71,.32,1.23,1.33,2.12,1.29,1.13,1.7,1.92,1.7,3.14,0,1.6-.81,2.49-2.33,2.49s-2.27-.9-2.27-2.47Z"/>
      <path class="cls-10" d="M101.08,228.68v-.56h1.46v.67c0,.7,.31,.95,.8,.95s.8-.25,.8-.98c0-.81-.31-1.33-1.32-2.21-1.29-1.13-1.71-1.93-1.71-3.05,0-1.54,.8-2.44,2.3-2.44s2.24,.9,2.24,2.47v.41h-1.46v-.5c0-.7-.28-.97-.77-.97s-.77,.27-.77,.94c0,.71,.32,1.23,1.33,2.12,1.29,1.13,1.7,1.92,1.7,3.14,0,1.6-.81,2.49-2.33,2.49s-2.27-.9-2.27-2.47Z"/>
      <path class="cls-10" d="M106.83,221.2h4.2v1.4h-2.66v2.59h2.12v1.4h-2.12v3.01h2.66v1.4h-4.2v-9.81Z"/>
      <path class="cls-10" d="M111.96,228.68v-.56h1.46v.67c0,.7,.31,.95,.8,.95s.8-.25,.8-.98c0-.81-.31-1.33-1.32-2.21-1.29-1.13-1.71-1.93-1.71-3.05,0-1.54,.8-2.44,2.3-2.44s2.24,.9,2.24,2.47v.41h-1.46v-.5c0-.7-.28-.97-.77-.97s-.77,.27-.77,.94c0,.71,.32,1.23,1.33,2.12,1.29,1.13,1.7,1.92,1.7,3.14,0,1.6-.81,2.49-2.33,2.49s-2.27-.9-2.27-2.47Z"/>
    </g>
    <g>
      <path class="cls-10" d="M171.79,207.2h1.54v8.4h2.54v1.4h-4.08v-9.81Z"/>
      <path class="cls-10" d="M178.13,207.2h2.09l1.6,9.81h-1.54l-.28-1.95v.03h-1.75l-.28,1.92h-1.43l1.6-9.81Zm1.68,6.56l-.69-4.85h-.03l-.67,4.85h1.39Z"/>
      <path class="cls-10" d="M182.84,207.2h1.93l1.5,5.87h.03v-5.87h1.37v9.81h-1.58l-1.85-7.16h-.03v7.16h-1.37v-9.81Z"/>
      <path class="cls-10" d="M189.1,207.2h2.35c1.54,0,2.3,.85,2.3,2.42v4.96c0,1.57-.76,2.42-2.3,2.42h-2.35v-9.81Zm2.33,8.4c.49,0,.78-.25,.78-.95v-5.1c0-.7-.29-.95-.78-.95h-.78v7h.78Z"/>
      <path class="cls-10" d="M153.14,221.2h2.35c1.54,0,2.3,.85,2.3,2.42v4.96c0,1.57-.76,2.42-2.3,2.42h-2.35v-9.81Zm2.33,8.4c.49,0,.78-.25,.78-.95v-5.1c0-.7-.29-.95-.78-.95h-.78v7h.78Z"/>
      <path class="cls-10" d="M159.11,221.2h4.2v1.4h-2.66v2.59h2.12v1.4h-2.12v3.01h2.66v1.4h-4.2v-9.81Z"/>
      <path class="cls-10" d="M164.36,228.68v-5.15c0-1.57,.78-2.47,2.3-2.47s2.3,.9,2.3,2.47v.84h-1.46v-.94c0-.7-.31-.97-.8-.97s-.8,.27-.8,.97v5.36c0,.7,.31,.95,.8,.95s.8-.25,.8-.95v-1.92h-.77v-1.4h2.23v3.21c0,1.57-.78,2.47-2.3,2.47s-2.3-.9-2.3-2.47Z"/>
      <path class="cls-10" d="M170.22,221.2h2.28c1.6,0,2.28,.74,2.28,2.25v.6c0,1.01-.32,1.65-1.01,1.93v.03c.77,.24,1.02,.97,1.02,2.07v1.72c0,.48,.01,.83,.17,1.19h-1.57c-.08-.25-.14-.41-.14-1.2v-1.79c0-.91-.27-1.2-.97-1.2h-.53v4.2h-1.54v-9.81Zm2.1,4.2c.57,0,.92-.25,.92-1.04v-.76c0-.7-.24-1.01-.78-1.01h-.7v2.8h.56Z"/>
      <path class="cls-10" d="M177.34,221.2h2.09l1.6,9.81h-1.54l-.28-1.95v.03h-1.75l-.28,1.92h-1.43l1.6-9.81Zm1.68,6.56l-.69-4.85h-.03l-.67,4.85h1.39Z"/>
      <path class="cls-10" d="M182.04,221.2h2.35c1.54,0,2.3,.85,2.3,2.42v4.96c0,1.57-.76,2.42-2.3,2.42h-2.35v-9.81Zm2.33,8.4c.49,0,.78-.25,.78-.95v-5.1c0-.7-.29-.95-.78-.95h-.78v7h.78Z"/>
      <path class="cls-10" d="M189.17,221.2h2.09l1.6,9.81h-1.54l-.28-1.95v.03h-1.75l-.28,1.92h-1.43l1.6-9.81Zm1.68,6.56l-.69-4.85h-.03l-.67,4.85h1.39Z"/>
      <path class="cls-10" d="M194.43,222.6h-1.61v-1.4h4.76v1.4h-1.61v8.4h-1.54v-8.4Z"/>
      <path class="cls-10" d="M198.6,221.2h1.54v9.81h-1.54v-9.81Z"/>
      <path class="cls-10" d="M201.46,228.68v-5.15c0-1.57,.83-2.47,2.34-2.47s2.34,.9,2.34,2.47v5.15c0,1.57-.83,2.47-2.34,2.47s-2.34-.9-2.34-2.47Zm3.14,.1v-5.35c0-.7-.31-.97-.8-.97s-.8,.27-.8,.97v5.35c0,.7,.31,.97,.8,.97s.8-.27,.8-.97Z"/>
      <path class="cls-10" d="M207.45,221.2h1.93l1.5,5.87h.03v-5.87h1.37v9.81h-1.58l-1.85-7.16h-.03v7.16h-1.37v-9.81Z"/>
    </g>
    <g>
      <path class="cls-10" d="M250.08,214.68v-.56h1.46v.67c0,.7,.31,.95,.8,.95s.8-.25,.8-.98c0-.81-.31-1.33-1.32-2.21-1.29-1.13-1.71-1.93-1.71-3.05,0-1.54,.8-2.44,2.3-2.44s2.24,.9,2.24,2.47v.41h-1.46v-.5c0-.7-.28-.97-.77-.97s-.77,.27-.77,.94c0,.71,.32,1.23,1.33,2.12,1.29,1.13,1.7,1.92,1.7,3.14,0,1.6-.81,2.49-2.33,2.49s-2.27-.9-2.27-2.47Z"/>
      <path class="cls-10" d="M255.84,207.2h2.27c1.54,0,2.3,.85,2.3,2.42v.97c0,1.57-.76,2.42-2.3,2.42h-.73v3.99h-1.54v-9.81Zm2.27,4.41c.49,0,.76-.22,.76-.92v-1.16c0-.7-.27-.92-.76-.92h-.73v3.01h.73Z"/>
      <path class="cls-10" d="M261.52,207.2h4.2v1.4h-2.66v2.59h2.12v1.4h-2.12v3.01h2.66v1.4h-4.2v-9.81Z"/>
      <path class="cls-10" d="M266.79,214.74v-5.27c0-1.51,.78-2.41,2.27-2.41s2.27,.9,2.27,2.41v1.04h-1.46v-1.13c0-.64-.31-.91-.77-.91s-.77,.27-.77,.91v5.48c0,.64,.31,.9,.77,.9s.77-.25,.77-.9v-1.5h1.46v1.39c0,1.51-.78,2.41-2.27,2.41s-2.27-.9-2.27-2.41Z"/>
      <path class="cls-10" d="M272.53,207.2h1.54v9.81h-1.54v-9.81Z"/>
      <path class="cls-10" d="M275.49,207.2h4.2v1.4h-2.66v2.59h2.12v1.4h-2.12v3.01h2.66v1.4h-4.2v-9.81Z"/>
      <path class="cls-10" d="M280.62,214.68v-.56h1.46v.67c0,.7,.31,.95,.8,.95s.8-.25,.8-.98c0-.81-.31-1.33-1.32-2.21-1.29-1.13-1.71-1.93-1.71-3.05,0-1.54,.8-2.44,2.3-2.44s2.24,.9,2.24,2.47v.41h-1.46v-.5c0-.7-.28-.97-.77-.97s-.77,.27-.77,.94c0,.71,.32,1.23,1.33,2.12,1.29,1.13,1.7,1.92,1.7,3.14,0,1.6-.81,2.49-2.33,2.49s-2.27-.9-2.27-2.47Z"/>
      <path class="cls-10" d="M241.2,221.2h4.2v1.4h-2.66v2.59h2.12v1.4h-2.12v3.01h2.66v1.4h-4.2v-9.81Z"/>
      <path class="cls-10" d="M247.95,225.99l-1.69-4.79h1.62l1.04,3.17h.03l1.06-3.17h1.46l-1.69,4.79,1.78,5.01h-1.62l-1.12-3.42h-.03l-1.15,3.42h-1.46l1.78-5.01Z"/>
      <path class="cls-10" d="M253.76,222.6h-1.61v-1.4h4.76v1.4h-1.61v8.4h-1.54v-8.4Z"/>
      <path class="cls-10" d="M257.93,221.2h1.54v9.81h-1.54v-9.81Z"/>
      <path class="cls-10" d="M260.9,221.2h1.93l1.5,5.87h.03v-5.87h1.37v9.81h-1.58l-1.85-7.16h-.03v7.16h-1.37v-9.81Z"/>
      <path class="cls-10" d="M267.06,228.74v-5.27c0-1.51,.78-2.41,2.27-2.41s2.27,.9,2.27,2.41v1.04h-1.46v-1.13c0-.64-.31-.91-.77-.91s-.77,.27-.77,.91v5.48c0,.64,.31,.9,.77,.9s.77-.25,.77-.9v-1.5h1.46v1.39c0,1.51-.78,2.41-2.27,2.41s-2.27-.9-2.27-2.41Z"/>
      <path class="cls-10" d="M274,222.6h-1.61v-1.4h4.76v1.4h-1.61v8.4h-1.54v-8.4Z"/>
      <path class="cls-10" d="M278.18,221.2h1.54v9.81h-1.54v-9.81Z"/>
      <path class="cls-10" d="M281.03,228.68v-5.15c0-1.57,.83-2.47,2.34-2.47s2.34,.9,2.34,2.47v5.15c0,1.57-.83,2.47-2.34,2.47s-2.34-.9-2.34-2.47Zm3.14,.1v-5.35c0-.7-.31-.97-.8-.97s-.8,.27-.8,.97v5.35c0,.7,.31,.97,.8,.97s.8-.27,.8-.97Z"/>
      <path class="cls-10" d="M287.02,221.2h1.93l1.5,5.87h.03v-5.87h1.37v9.81h-1.58l-1.85-7.16h-.03v7.16h-1.37v-9.81Z"/>
    </g>
    <g>
      <path class="cls-12" d="M155.63,126.78h4.2v1.4h-2.66v2.59h2.12v1.4h-2.12v3.01h2.66v1.4h-4.2v-9.81Z"/>
      <path class="cls-12" d="M160.75,134.26v-.56h1.46v.67c0,.7,.31,.95,.8,.95s.8-.25,.8-.98c0-.81-.31-1.33-1.32-2.21-1.29-1.13-1.71-1.93-1.71-3.05,0-1.54,.8-2.44,2.3-2.44s2.24,.9,2.24,2.47v.41h-1.46v-.5c0-.7-.28-.97-.77-.97s-.77,.27-.77,.94c0,.71,.32,1.23,1.33,2.12,1.29,1.13,1.7,1.92,1.7,3.14,0,1.6-.81,2.49-2.33,2.49s-2.27-.9-2.27-2.47Z"/>
      <path class="cls-12" d="M166.41,134.31v-5.27c0-1.51,.78-2.41,2.27-2.41s2.27,.9,2.27,2.41v1.04h-1.46v-1.13c0-.64-.31-.91-.77-.91s-.77,.27-.77,.91v5.48c0,.64,.31,.9,.77,.9s.77-.25,.77-.9v-1.5h1.46v1.39c0,1.51-.78,2.41-2.27,2.41s-2.27-.9-2.27-2.41Z"/>
      <path class="cls-12" d="M173.34,126.78h2.09l1.6,9.81h-1.54l-.28-1.95v.03h-1.75l-.28,1.92h-1.43l1.6-9.81Zm1.68,6.56l-.69-4.85h-.03l-.67,4.85h1.39Z"/>
      <path class="cls-12" d="M178.04,126.78h1.54v8.4h2.54v1.4h-4.08v-9.81Z"/>
      <path class="cls-12" d="M184.38,126.78h2.09l1.6,9.81h-1.54l-.28-1.95v.03h-1.75l-.28,1.92h-1.43l1.6-9.81Zm1.68,6.56l-.69-4.85h-.03l-.67,4.85h1.39Z"/>
      <path class="cls-12" d="M189.65,128.18h-1.61v-1.4h4.76v1.4h-1.61v8.4h-1.54v-8.4Z"/>
      <path class="cls-12" d="M193.82,126.78h1.54v9.81h-1.54v-9.81Z"/>
      <path class="cls-12" d="M196.79,126.78h1.93l1.5,5.87h.03v-5.87h1.37v9.81h-1.58l-1.85-7.16h-.03v7.16h-1.37v-9.81Z"/>
      <path class="cls-12" d="M202.93,134.26v-5.15c0-1.57,.78-2.47,2.3-2.47s2.3,.9,2.3,2.47v.84h-1.46v-.94c0-.7-.31-.97-.8-.97s-.8,.27-.8,.97v5.36c0,.7,.31,.95,.8,.95s.8-.25,.8-.95v-1.92h-.77v-1.4h2.23v3.21c0,1.57-.78,2.47-2.3,2.47s-2.3-.9-2.3-2.47Z"/>
    </g>
    <g>
      <line class="cls-8" x1="46.13" y1="132.12" x2="46.13" y2="132.12"/>
      <line class="cls-5" x1="49.04" y1="132.12" x2="146.43" y2="132.12"/>
      <line class="cls-8" x1="147.88" y1="132.12" x2="147.88" y2="132.12"/>
    </g>
    <g>
      <line class="cls-8" x1="214.07" y1="132.12" x2="214.07" y2="132.12"/>
      <line class="cls-5" x1="216.97" y1="132.12" x2="314.36" y2="132.12"/>
      <line class="cls-8" x1="315.81" y1="132.12" x2="315.81" y2="132.12"/>
    </g>
    <rect class="cls-13" x="92.31" y="252.64" width="79.49" height="16.16"/>
    <g>
      <path class="cls-12" d="M67.48,255.78h2.27c1.54,0,2.3,.85,2.3,2.42v.97c0,1.57-.76,2.42-2.3,2.42h-.73v3.99h-1.54v-9.81Zm2.27,4.41c.49,0,.76-.22,.76-.92v-1.16c0-.7-.27-.92-.76-.92h-.73v3.01h.73Z"/>
      <path class="cls-12" d="M73.05,263.26v-5.15c0-1.57,.83-2.47,2.34-2.47s2.34,.9,2.34,2.47v5.15c0,1.57-.83,2.47-2.34,2.47s-2.34-.9-2.34-2.47Zm3.14,.1v-5.35c0-.7-.31-.97-.8-.97s-.8,.27-.8,.97v5.35c0,.7,.31,.97,.8,.97s.8-.27,.8-.97Z"/>
      <path class="cls-12" d="M78.78,263.26v-.56h1.46v.67c0,.7,.31,.95,.8,.95s.8-.25,.8-.98c0-.81-.31-1.33-1.32-2.21-1.29-1.13-1.71-1.93-1.71-3.05,0-1.54,.8-2.44,2.3-2.44s2.24,.9,2.24,2.47v.41h-1.46v-.5c0-.7-.28-.97-.77-.97s-.77,.27-.77,.94c0,.71,.32,1.23,1.33,2.11,1.29,1.13,1.7,1.92,1.7,3.14,0,1.6-.81,2.49-2.33,2.49s-2.27-.9-2.27-2.47Z"/>
      <path class="cls-12" d="M84.53,255.78h4.2v1.4h-2.66v2.59h2.12v1.4h-2.12v3.01h2.66v1.4h-4.2v-9.81Z"/>
      <path class="cls-2" d="M94.67,263.26v-.56h1.46v.67c0,.7,.31,.95,.8,.95s.8-.25,.8-.98c0-.81-.31-1.33-1.32-2.21-1.29-1.13-1.71-1.93-1.71-3.05,0-1.54,.8-2.44,2.3-2.44s2.24,.9,2.24,2.47v.41h-1.46v-.5c0-.7-.28-.97-.77-.97s-.77,.27-.77,.94c0,.71,.32,1.23,1.33,2.11,1.29,1.13,1.7,1.92,1.7,3.14,0,1.6-.81,2.49-2.33,2.49s-2.27-.9-2.27-2.47Z"/>
      <path class="cls-2" d="M100.42,255.78h4.2v1.4h-2.66v2.59h2.12v1.4h-2.12v3.01h2.66v1.4h-4.2v-9.81Z"/>
      <path class="cls-2" d="M105.38,255.78h1.56l1.01,7.61h.03l1.01-7.61h1.41l-1.48,9.81h-2.04l-1.48-9.81Z"/>
      <path class="cls-2" d="M111.41,255.78h4.2v1.4h-2.66v2.59h2.12v1.4h-2.12v3.01h2.66v1.4h-4.2v-9.81Z"/>
      <path class="cls-2" d="M116.77,255.78h2.28c1.6,0,2.28,.74,2.28,2.25v.6c0,1.01-.32,1.65-1.01,1.93v.03c.77,.24,1.02,.97,1.02,2.07v1.72c0,.48,.01,.83,.17,1.19h-1.57c-.08-.25-.14-.41-.14-1.2v-1.79c0-.91-.27-1.2-.97-1.2h-.53v4.2h-1.54v-9.81Zm2.1,4.2c.57,0,.92-.25,.92-1.04v-.76c0-.7-.24-1.01-.78-1.01h-.7v2.8h.56Z"/>
      <path class="cls-2" d="M122.7,255.78h4.2v1.4h-2.66v2.59h2.12v1.4h-2.12v3.01h2.66v1.4h-4.2v-9.81Z"/>
      <path class="cls-2" d="M131.78,257.18h-1.61v-1.4h4.76v1.4h-1.61v8.4h-1.54v-8.4Z"/>
      <path class="cls-2" d="M135.95,255.78h1.54v3.99h1.65v-3.99h1.54v9.81h-1.54v-4.41h-1.65v4.41h-1.54v-9.81Z"/>
      <path class="cls-2" d="M142.11,255.78h2.28c1.6,0,2.28,.74,2.28,2.25v.6c0,1.01-.32,1.65-1.01,1.93v.03c.77,.24,1.02,.97,1.02,2.07v1.72c0,.48,.01,.83,.17,1.19h-1.57c-.08-.25-.14-.41-.14-1.2v-1.79c0-.91-.27-1.2-.97-1.2h-.53v4.2h-1.54v-9.81Zm2.1,4.2c.57,0,.92-.25,.92-1.04v-.76c0-.7-.24-1.01-.78-1.01h-.7v2.8h.56Z"/>
      <path class="cls-2" d="M148.04,255.78h4.2v1.4h-2.66v2.59h2.12v1.4h-2.12v3.01h2.66v1.4h-4.2v-9.81Z"/>
      <path class="cls-2" d="M154.59,255.78h2.09l1.6,9.81h-1.54l-.28-1.95v.03h-1.75l-.28,1.92h-1.43l1.6-9.81Zm1.68,6.56l-.69-4.85h-.03l-.67,4.85h1.39Z"/>
      <path class="cls-2" d="M159.85,257.18h-1.61v-1.4h4.76v1.4h-1.61v8.4h-1.54v-8.4Z"/>
      <path class="cls-2" d="M163.76,263.26v-.56h1.46v.67c0,.7,.31,.95,.8,.95s.8-.25,.8-.98c0-.81-.31-1.33-1.32-2.21-1.29-1.13-1.71-1.93-1.71-3.05,0-1.54,.8-2.44,2.3-2.44s2.24,.9,2.24,2.47v.41h-1.46v-.5c0-.7-.28-.97-.77-.97s-.77,.27-.77,.94c0,.71,.32,1.23,1.33,2.11,1.29,1.13,1.7,1.92,1.7,3.14,0,1.6-.81,2.49-2.33,2.49s-2.27-.9-2.27-2.47Z"/>
      <path class="cls-12" d="M175.76,257.18h-1.61v-1.4h4.76v1.4h-1.61v8.4h-1.54v-8.4Z"/>
      <path class="cls-12" d="M179.76,263.26v-5.15c0-1.57,.83-2.47,2.34-2.47s2.34,.9,2.34,2.47v5.15c0,1.57-.83,2.47-2.34,2.47s-2.34-.9-2.34-2.47Zm3.14,.1v-5.35c0-.7-.31-.97-.8-.97s-.8,.27-.8,.97v5.35c0,.7,.31,.97,.8,.97s.8-.27,.8-.97Z"/>
      <path class="cls-12" d="M188.27,255.78h2.27c1.54,0,2.3,.85,2.3,2.42v.97c0,1.57-.76,2.42-2.3,2.42h-.73v3.99h-1.54v-9.81Zm2.27,4.41c.49,0,.76-.22,.76-.92v-1.16c0-.7-.27-.92-.76-.92h-.73v3.01h.73Z"/>
      <path class="cls-12" d="M193.95,255.78h4.2v1.4h-2.66v2.59h2.12v1.4h-2.12v3.01h2.66v1.4h-4.2v-9.81Z"/>
      <path class="cls-12" d="M199.2,263.26v-5.15c0-1.57,.83-2.47,2.34-2.47s2.34,.9,2.34,2.47v5.15c0,1.57-.83,2.47-2.34,2.47s-2.34-.9-2.34-2.47Zm3.14,.1v-5.35c0-.7-.31-.97-.8-.97s-.8,.27-.8,.97v5.35c0,.7,.31,.97,.8,.97s.8-.27,.8-.97Z"/>
      <path class="cls-12" d="M205.2,255.78h2.27c1.54,0,2.3,.85,2.3,2.42v.97c0,1.57-.76,2.42-2.3,2.42h-.73v3.99h-1.54v-9.81Zm2.27,4.41c.49,0,.76-.22,.76-.92v-1.16c0-.7-.27-.92-.76-.92h-.73v3.01h.73Z"/>
      <path class="cls-12" d="M210.88,255.78h1.54v8.4h2.54v1.4h-4.08v-9.81Z"/>
      <path class="cls-12" d="M215.98,255.78h4.2v1.4h-2.66v2.59h2.12v1.4h-2.12v3.01h2.66v1.4h-4.2v-9.81Z"/>
      <path class="cls-12" d="M225.05,255.78h2.09l1.6,9.81h-1.54l-.28-1.95v.03h-1.75l-.28,1.92h-1.43l1.6-9.81Zm1.68,6.56l-.69-4.85h-.03l-.67,4.85h1.39Z"/>
      <path class="cls-12" d="M229.75,255.78h1.93l1.5,5.87h.03v-5.87h1.37v9.81h-1.58l-1.85-7.16h-.03v7.16h-1.37v-9.81Z"/>
      <path class="cls-12" d="M236.01,255.78h2.35c1.54,0,2.3,.85,2.3,2.42v4.96c0,1.57-.76,2.42-2.3,2.42h-2.35v-9.81Zm2.33,8.4c.49,0,.78-.25,.78-.95v-5.1c0-.7-.29-.95-.78-.95h-.78v7h.78Z"/>
      <path class="cls-12" d="M245.7,257.18h-1.61v-1.4h4.76v1.4h-1.61v8.4h-1.54v-8.4Z"/>
      <path class="cls-12" d="M249.87,255.78h1.54v3.99h1.65v-3.99h1.54v9.81h-1.54v-4.41h-1.65v4.41h-1.54v-9.81Z"/>
      <path class="cls-12" d="M256.03,255.78h4.2v1.4h-2.66v2.59h2.12v1.4h-2.12v3.01h2.66v1.4h-4.2v-9.81Z"/>
      <path class="cls-12" d="M263.91,255.78h2.27c1.54,0,2.3,.85,2.3,2.42v.97c0,1.57-.76,2.42-2.3,2.42h-.73v3.99h-1.54v-9.81Zm2.27,4.41c.49,0,.76-.22,.76-.92v-1.16c0-.7-.27-.92-.76-.92h-.73v3.01h.73Z"/>
      <path class="cls-12" d="M269.6,255.78h1.54v8.4h2.54v1.4h-4.08v-9.81Z"/>
      <path class="cls-12" d="M275.94,255.78h2.09l1.6,9.81h-1.54l-.28-1.95v.03h-1.75l-.28,1.92h-1.43l1.6-9.81Zm1.68,6.56l-.69-4.85h-.03l-.67,4.85h1.39Z"/>
      <path class="cls-12" d="M280.64,255.78h1.93l1.5,5.87h.03v-5.87h1.37v9.81h-1.58l-1.85-7.16h-.03v7.16h-1.37v-9.81Z"/>
      <path class="cls-12" d="M286.9,255.78h4.2v1.4h-2.66v2.59h2.12v1.4h-2.12v3.01h2.66v1.4h-4.2v-9.81Z"/>
      <path class="cls-12" d="M293.47,257.18h-1.61v-1.4h4.76v1.4h-1.61v8.4h-1.54v-8.4Z"/>
    </g>
    <g>
      <line class="cls-8" x1="46.2" y1="132.28" x2="46.2" y2="132.28"/>
      <line class="cls-3" x1="46.21" y1="135.17" x2="46.41" y2="257.83"/>
      <line class="cls-8" x1="46.42" y1="259.28" x2="46.42" y2="259.28"/>
    </g>
    <g>
      <line class="cls-8" x1="315.85" y1="132" x2="315.85" y2="132"/>
      <line class="cls-6" x1="315.85" y1="134.9" x2="315.78" y2="257.83"/>
      <line class="cls-8" x1="315.78" y1="259.28" x2="315.78" y2="259.28"/>
    </g>
    <g>
      <line class="cls-8" x1="46.93" y1="260.41" x2="46.93" y2="260.41"/>
      <line class="cls-4" x1="49.59" y1="260.41" x2="58.92" y2="260.41"/>
      <line class="cls-8" x1="60.25" y1="260.41" x2="60.25" y2="260.41"/>
    </g>
    <g>
      <line class="cls-8" x1="302.34" y1="259.28" x2="302.34" y2="259.28"/>
      <line class="cls-4" x1="305.01" y1="259.28" x2="314.33" y2="259.28"/>
      <line class="cls-8" x1="315.67" y1="259.28" x2="315.67" y2="259.28"/>
    </g>
    <g>
      <path class="cls-9" d="M38.72,.25h3.72l2.85,17.5h-2.75l-.5-3.47v.05h-3.12l-.5,3.42h-2.55L38.72,.25Zm3,11.7l-1.22-8.65h-.05l-1.2,8.65h2.47Z"/>
      <path class="cls-9" d="M50.62,.25h7.27V2.75h-4.52V7.62h3.55v2.5h-3.55v7.62h-2.75V.25Z"/>
      <path class="cls-9" d="M59.12,13.6V.25h2.75V13.8c0,1.25,.52,1.7,1.4,1.7s1.4-.45,1.4-1.7V.25h2.65V13.6c0,2.8-1.4,4.4-4.1,4.4s-4.1-1.6-4.1-4.4Z"/>
      <path class="cls-9" d="M69.27,.25h3.45l2.67,10.47h.05V.25h2.45V17.75h-2.82l-3.3-12.77h-.05v12.77h-2.45V.25Z"/>
      <path class="cls-9" d="M79.95,.25h4.2c2.75,0,4.1,1.52,4.1,4.32V13.42c0,2.8-1.35,4.32-4.1,4.32h-4.2V.25Zm4.15,15c.87,0,1.4-.45,1.4-1.7V4.45c0-1.25-.52-1.7-1.4-1.7h-1.4V15.25h1.4Z"/>
      <path class="cls-9" d="M92.17,.25h3.72l2.85,17.5h-2.75l-.5-3.47v.05h-3.12l-.5,3.42h-2.55L92.17,.25Zm3,11.7l-1.22-8.65h-.05l-1.2,8.65h2.47Z"/>
      <path class="cls-9" d="M100.07,.25h3.92l1.75,12.52h.05l1.75-12.52h3.92V17.75h-2.6V4.5h-.05l-2,13.25h-2.3l-2-13.25h-.05v13.25h-2.4V.25Z"/>
      <path class="cls-9" d="M113.52,.25h7.5V2.75h-4.75V7.37h3.77v2.5h-3.77v5.37h4.75v2.5h-7.5V.25Z"/>
      <path class="cls-9" d="M122.6,.25h3.45l2.67,10.47h.05V.25h2.45V17.75h-2.82l-3.3-12.77h-.05v12.77h-2.45V.25Z"/>
      <path class="cls-9" d="M135.42,2.75h-2.87V.25h8.5V2.75h-2.87v15h-2.75V2.75Z"/>
      <path class="cls-9" d="M143.35,.25h3.72l2.85,17.5h-2.75l-.5-3.47v.05h-3.12l-.5,3.42h-2.55L143.35,.25Zm3,11.7l-1.22-8.65h-.05l-1.2,8.65h2.47Z"/>
      <path class="cls-9" d="M151.25,.25h2.75V15.25h4.52v2.5h-7.27V.25Z"/>
      <path class="cls-9" d="M163.37,13.6v-1h2.6v1.2c0,1.25,.55,1.7,1.42,1.7s1.42-.45,1.42-1.75c0-1.45-.55-2.37-2.35-3.95-2.3-2.02-3.05-3.45-3.05-5.45,0-2.75,1.42-4.35,4.1-4.35s4,1.6,4,4.4v.72h-2.6v-.9c0-1.25-.5-1.72-1.38-1.72s-1.37,.47-1.37,1.67c0,1.27,.57,2.2,2.37,3.77,2.3,2.02,3.02,3.42,3.02,5.6,0,2.85-1.45,4.45-4.15,4.45s-4.05-1.6-4.05-4.4Z"/>
      <path class="cls-9" d="M173.14,.25h2.75V7.37h2.95V.25h2.75V17.75h-2.75v-7.87h-2.95v7.87h-2.75V.25Z"/>
      <path class="cls-9" d="M183.64,.25h2.75V17.75h-2.75V.25Z"/>
      <path class="cls-9" d="M188.44,.25h7.27V2.75h-4.52V7.62h3.55v2.5h-3.55v7.62h-2.75V.25Z"/>
      <path class="cls-9" d="M199.44,2.75h-2.87V.25h8.5V2.75h-2.87v15h-2.75V2.75Z"/>
      <path class="cls-9" d="M214.39,.25h2.75V17.75h-2.75V.25Z"/>
      <path class="cls-9" d="M219.19,.25h3.45l2.67,10.47h.05V.25h2.45V17.75h-2.82l-3.3-12.77h-.05v12.77h-2.45V.25Z"/>
      <path class="cls-9" d="M233.87,.25h2.75V7.37h2.95V.25h2.75V17.75h-2.75v-7.87h-2.95v7.87h-2.75V.25Z"/>
      <path class="cls-9" d="M244.27,13.6V.25h2.75V13.8c0,1.25,.52,1.7,1.4,1.7s1.4-.45,1.4-1.7V.25h2.65V13.6c0,2.8-1.4,4.4-4.1,4.4s-4.1-1.6-4.1-4.4Z"/>
      <path class="cls-9" d="M254.42,.25h3.92l1.75,12.52h.05l1.75-12.52h3.92V17.75h-2.6V4.5h-.05l-2,13.25h-2.3l-2-13.25h-.05v13.25h-2.4V.25Z"/>
      <path class="cls-9" d="M269.99,.25h3.72l2.85,17.5h-2.75l-.5-3.47v.05h-3.12l-.5,3.42h-2.55l2.85-17.5Zm3,11.7l-1.22-8.65h-.05l-1.2,8.65h2.47Z"/>
      <path class="cls-9" d="M277.89,.25h3.45l2.67,10.47h.05V.25h2.45V17.75h-2.82l-3.3-12.77h-.05v12.77h-2.45V.25Z"/>
      <path class="cls-9" d="M288.57,.25h2.75V17.75h-2.75V.25Z"/>
      <path class="cls-9" d="M295.52,2.75h-2.87V.25h8.5V2.75h-2.87v15h-2.75V2.75Z"/>
      <path class="cls-9" d="M305.09,10.3l-3.32-10.05h2.92l1.87,6.42h.05l1.87-6.42h2.67l-3.32,10.05v7.45h-2.75v-7.45Z"/>
      <path class="cls-9" d="M313.57,2.9h-.9V.25h2.65V2.62l-1.52,3.27h-1.27l1.05-3Z"/>
      <path class="cls-9" d="M316.89,13.6v-1h2.6v1.2c0,1.25,.55,1.7,1.42,1.7s1.42-.45,1.42-1.75c0-1.45-.55-2.37-2.35-3.95-2.3-2.02-3.05-3.45-3.05-5.45,0-2.75,1.42-4.35,4.1-4.35s4,1.6,4,4.4v.72h-2.6v-.9c0-1.25-.5-1.72-1.38-1.72s-1.37,.47-1.37,1.67c0,1.27,.57,2.2,2.37,3.77,2.3,2.02,3.02,3.42,3.02,5.6,0,2.85-1.45,4.45-4.15,4.45s-4.05-1.6-4.05-4.4Z"/>
    </g>
  </g>
</svg>