<svg xmlns="http://www.w3.org/2000/svg" width="449" height="363" fill="none" viewBox="0 0 449 363">
  <path fill="#fff" stroke="#E3E3E3" d="M.5 32A31.5 31.5 0 0 1 32 .5h385A31.5 31.5 0 0 1 448.5 32v299a31.5 31.5 0 0 1-31.5 31.5H32A31.5 31.5 0 0 1 .5 331V32Z"/>
  <path fill="#5E5E5E" d="M76.1 340.2c-.5 0-1-.1-1.4-.3-.5-.2-.8-.5-1.1-.9a4 4 0 0 1-.8-1.3 5.3 5.3 0 0 1 0-3.3l.8-1.3c.3-.4.7-.7 1.2-.9.4-.2 1-.3 1.4-.3.9 0 1.6.2 2.2.6.6.4 1 1 1.1 1.7l-1.2.3a2 2 0 0 0-.4-.7c-.1-.3-.4-.4-.7-.5a2.6 2.6 0 0 0-2 0l-.7.6a2 2 0 0 0-.5.9 4 4 0 0 0-.2 1.3c0 .4 0 .9.2 1.2 0 .4.3.7.5 1l.7.5c.3.2.6.2 1 .2l.9-.1a2 2 0 0 0 1.1-1.1l.3-.8h-2.3v-1h3.4v4h-1v-1.1h-.1l-.4.5-.5.4-.7.3a3 3 0 0 1-.8 0Zm5.1-.2v-8.5h1.2v3.5l.7-.7c.4-.2.7-.3 1.1-.3.5 0 .9.1 1.2.3l.7.8.2 1.1v3.8h-1.2v-3.6l-.1-.7a1 1 0 0 0-.5-.4l-.6-.2c-.3 0-.5.1-.8.3a1 1 0 0 0-.5.6l-.2.8v3.2h-1.2Zm8.5.2-1.1-.2-.7-.7c-.2-.3-.3-.6-.3-1 0-.3.1-.7.3-1l.8-.5 1.2-.3a4.9 4.9 0 0 1 1 .2h.6v-.5a1 1 0 0 0-.4-.8c-.2-.3-.5-.4-1-.4-.3 0-.6.1-.8.3-.2.1-.4.4-.5.7l-1-.3c0-.3.2-.7.4-.9l.9-.6a3 3 0 0 1 1-.2 3 3 0 0 1 2 .6c.3.4.6 1 .6 1.7v3.7h-1.2v-.7l-.5.4a2.3 2.3 0 0 1-1.3.5Zm.2-1c.3 0 .6 0 .9-.2a1.5 1.5 0 0 0 .7-1.3l-.7-.2H90c-.3 0-.6 0-.9.2-.2.1-.3.3-.3.7l.3.6.8.2Zm4.4.8v-5.8h1.1v.8l.8-.7c.3-.2.6-.3 1-.3.7 0 1.2.2 1.5.6.3.4.5 1 .5 1.6v3.8H98v-3.6c0-.4 0-.8-.3-1-.2-.2-.5-.3-.8-.3l-.8.2-.5.6-.1.8v3.3h-1.2Zm8.3.2-1-.2c-.4-.2-.6-.4-.8-.7l-.2-1c0-.3 0-.7.3-1 .2-.2.4-.4.8-.5a2 2 0 0 1 1-.3 4.9 4.9 0 0 1 1.2.2h.5v-.5a1 1 0 0 0-.3-.8c-.3-.3-.6-.4-1-.4s-.6.1-.9.3c-.2.1-.4.4-.4.7l-1-.3c0-.3.1-.7.4-.9.2-.3.5-.4.8-.6a3 3 0 0 1 1-.2 3 3 0 0 1 2 .6c.4.4.6 1 .6 1.7v3.7h-1.2v-.7l-.4.4a2.3 2.3 0 0 1-1.4.5Zm.2-1c.4 0 .6 0 .9-.2a1.5 1.5 0 0 0 .7-1.3l-.7-.2h-.7c-.4 0-.7 0-1 .2-.1.1-.2.3-.2.7 0 .2 0 .4.3.6l.7.2Zm37.2.8v-7.9h1.1v3.9l3.2-3.9h1.4l-2.7 3.4 3 4.4v.1h-1.5l-2.3-3.5-1 1.2v2.3h-1.3Zm9.2.2c-.6 0-1-.2-1.5-.4-.4-.3-.7-.6-1-1.1-.2-.5-.3-1-.3-1.6 0-.6.1-1.1.4-1.6.2-.5.5-.8 1-1 .4-.3.8-.5 1.4-.5.6 0 1 .1 1.4.4.4.2.7.5 1 1a3.3 3.3 0 0 1 .2 1.7v.3h-4.2c0 .3 0 .6.2.8.1.3.3.5.6.7l.8.2c.4 0 .7 0 1-.2l.5-.7 1 .2c-.2.5-.4 1-.9 1.3-.4.3-1 .5-1.6.5Zm-1.6-3.7h3v-.6l-.3-.5-.5-.3a1.7 1.7 0 0 0-1.5.2c-.2.1-.4.4-.5.7l-.2.5Zm5.6 3.5v-5.8h1.1v.8l.8-.7c.3-.2.6-.3 1-.3.7 0 1.2.2 1.5.6.4.4.5 1 .5 1.6v3.8H157v-3.6c0-.4 0-.8-.3-1-.2-.2-.5-.3-.8-.3l-.8.2-.5.6-.1.8v3.3h-1.2Zm6.9 2.4a2.6 2.6 0 0 1-1-.1V341l.4.2h.9l.3-.3.4-.6.2-.5-2.3-5.7h1.3l1.6 4.1 1.6-4h1.3l-2.7 6.5-.6 1-.6.5a2 2 0 0 1-.8.1Zm7.2-2.2-1-.2c-.4-.2-.6-.4-.8-.7l-.2-1c0-.3.1-.7.3-1l.8-.5a2 2 0 0 1 1.1-.3 5 5 0 0 1 1.1.2h.6v-.5a1 1 0 0 0-.4-.8c-.3-.3-.6-.4-1-.4-.3 0-.6.1-.8.3-.3.1-.4.4-.5.7l-1-.3c0-.3.2-.7.4-.9.2-.3.5-.4.8-.6a3 3 0 0 1 1.1-.2c.8 0 1.4.2 1.9.6.4.4.6 1 .6 1.7v3.7h-1.1v-.7h-.1l-.4.4a2.3 2.3 0 0 1-1.4.5Zm.3-1c.3 0 .6 0 .8-.2a1.5 1.5 0 0 0 .8-1.3l-.8-.2h-.7c-.4 0-.7 0-.9.2-.2.1-.3.3-.3.7 0 .2 0 .4.3.6l.8.2Zm31.4.8v-7.9h1.4l3.4 5.8h.1v-5.8h1.1v7.9h-1.2l-3.7-6v6H199Zm7.9 0v-5.8h1.2v5.8h-1.2Zm.6-7c-.3 0-.4 0-.6-.2a.8.8 0 0 1-.2-.6c0-.2 0-.4.2-.6l.6-.2c.2 0 .4 0 .5.2l.3.6-.3.6-.5.2Zm4.6 9.6a3 3 0 0 1-1.3-.3l-.8-.6a2 2 0 0 1-.5-1l1.2-.2c0 .3.2.5.4.7.3.2.6.3 1 .3.5 0 .9-.2 1.1-.5.3-.3.4-.7.4-1.3v-.6a2 2 0 0 1-.7.6 2 2 0 0 1-1.1.3c-.5 0-.9-.2-1.2-.4-.4-.2-.7-.6-1-1-.2-.4-.3-1-.3-1.6 0-.6.1-1.2.4-1.6.2-.4.5-.8.9-1 .4-.2.8-.4 1.2-.4.4 0 .8.1 1 .3.4.1.6.3.8.6v-.7h1.2v5.5a3 3 0 0 1-.4 1.6c-.2.4-.5.7-.9 1a3 3 0 0 1-1.4.3Zm0-3.7c.3 0 .5 0 .8-.2l.5-.7c.2-.2.2-.6.2-1s0-.8-.2-1a1.5 1.5 0 0 0-1.3-.9c-.3 0-.6 0-.8.2l-.6.7-.2 1c0 .4 0 .8.2 1l.6.7.8.2Zm6.7 1.3c-.6 0-1-.2-1.5-.4-.4-.3-.7-.6-1-1.1-.2-.5-.3-1-.3-1.6 0-.6.1-1.1.4-1.6.2-.5.5-.8 1-1 .4-.3.8-.5 1.4-.5.6 0 1 .1 1.4.4.4.2.7.5 1 1a3.3 3.3 0 0 1 .2 1.7v.3h-4.2c0 .3 0 .6.2.8l.5.7 1 .2c.3 0 .6 0 .8-.2.3-.2.4-.5.5-.7l1 .2c0 .5-.4 1-.8 1.3-.4.3-1 .5-1.6.5Zm-1.6-3.7h3v-.6l-.3-.5-.5-.3a1.7 1.7 0 0 0-1.5.2c-.2.1-.4.4-.5.7l-.2.5Zm5.6 3.5v-5.8h1.1v.8a1.6 1.6 0 0 1 1.5-1 2.1 2.1 0 0 1 .6.1v1.2h-.3l-.4-.1c-.3 0-.5 0-.7.2l-.5.5-.1.8v3.3h-1.2Zm4.5 0v-5.8h1.2v5.8h-1.2Zm.6-7c-.2 0-.4 0-.6-.2a.8.8 0 0 1-.2-.6c0-.2 0-.4.2-.6l.6-.2c.2 0 .4 0 .6.2l.2.6c0 .2 0 .4-.2.6l-.6.2Zm4 7.2-1-.2c-.4-.2-.6-.4-.8-.7l-.2-1c0-.3 0-.7.3-1 .2-.2.4-.4.8-.5a2 2 0 0 1 1-.3 5 5 0 0 1 1.2.2h.5v-.5a1 1 0 0 0-.3-.8c-.3-.3-.6-.4-1-.4l-.9.3c-.2.1-.4.4-.4.7l-1-.3c0-.3.1-.7.4-.9.2-.3.5-.4.8-.6a3 3 0 0 1 1-.2c1 0 1.5.2 2 .6.4.4.6 1 .6 1.7v3.7h-1.2v-.7l-.4.4a2.3 2.3 0 0 1-1.4.5Zm.3-1c.3 0 .6 0 .8-.2a1.5 1.5 0 0 0 .7-1.3l-.7-.2h-.7c-.4 0-.7 0-1 .2-.1.1-.2.3-.2.7 0 .2 0 .4.3.6l.8.2Zm33.3 1c-.6 0-1-.1-1.5-.3l-1-.8c-.3-.4-.5-.8-.5-1.3l1.2-.3c0 .5.2.8.5 1.1.3.3.7.4 1.3.4l.8-.1.6-.4.1-.6-.1-.7-.6-.4-1-.3-.5-.2-.8-.3-.6-.4a1.9 1.9 0 0 1-.7-1.5c0-.4.1-.8.4-1 .2-.4.5-.7.9-.9.4-.2.8-.3 1.4-.3.5 0 1 .1 1.4.3l.9.8.4 1-1.2.2-.2-.6-.6-.4-.7-.1a2 2 0 0 0-.8.1c-.2 0-.4.2-.5.3l-.2.6c0 .3.2.5.4.7l1.2.5.5.2.9.3.7.5a2 2 0 0 1 .6 1.5c0 .4 0 .8-.2 1a2 2 0 0 1-.6.8c-.2.2-.5.3-.9.4l-1 .2Zm6.7 0c-.6 0-1.1-.2-1.5-.4-.5-.3-.8-.6-1-1.1-.2-.5-.4-1-.4-1.6 0-.6.2-1.1.4-1.6a2 2 0 0 1 1-1 2.8 2.8 0 0 1 3 0c.4.2.7.6 1 1 .2.5.3 1 .3 1.6 0 .6-.1 1.1-.3 1.6a2.6 2.6 0 0 1-2.5 1.5Zm0-1.1c.3 0 .6 0 .8-.2.3-.2.5-.4.6-.7.2-.3.2-.7.2-1 0-.5 0-.9-.2-1.2a1.5 1.5 0 0 0-1.4-.9l-.9.3-.6.6-.2 1.1c0 .4 0 .8.2 1l.6.8.9.2Zm4 .9v-5.8h1.2v.7l.4-.4.6-.3.7-.2c.3 0 .7.1 1 .3l.5.7.7-.7a2 2 0 0 1 1.1-.3c.6 0 1 .2 1.4.6.3.3.4.8.4 1.5v3.9h-1.1v-3.8c0-.3-.1-.6-.3-.8a1 1 0 0 0-.7-.3c-.3 0-.5 0-.7.2l-.4.5-.2.8v3.4h-1.1v-3.7c0-.4-.1-.7-.3-.9a1 1 0 0 0-.8-.3 1 1 0 0 0-.6.2l-.4.5-.2.8v3.4h-1.1Zm11.4.2-1-.2c-.4-.2-.6-.4-.8-.7l-.2-1c0-.3 0-.7.3-1l.8-.5a2 2 0 0 1 1.1-.3 4.9 4.9 0 0 1 1.1.2h.6v-.5a1 1 0 0 0-.4-.8c-.3-.3-.6-.4-1-.4l-.9.3c-.2.1-.3.4-.4.7l-1-.3c0-.3.1-.7.4-.9.2-.3.5-.4.8-.6a3 3 0 0 1 1.1-.2c.8 0 1.4.2 1.9.6.4.4.6 1 .6 1.7v3.7h-1.1v-.7h-.1l-.4.4a2.2 2.2 0 0 1-1.4.5Zm.3-1c.3 0 .6 0 .8-.2a1.5 1.5 0 0 0 .8-1.3l-.8-.2h-.7c-.4 0-.7 0-1 .2-.1.1-.2.3-.2.7 0 .2 0 .4.3.6l.8.2Zm4.3.8v-8.5h1.2v8.5h-1.2Zm3 0v-5.8h1.1v5.8h-1.2Zm.5-7c-.2 0-.4 0-.5-.2a.8.8 0 0 1-.3-.6l.3-.6.5-.2c.2 0 .4 0 .6.2l.2.6c0 .2 0 .4-.2.6l-.6.2Zm4 7.2-1-.2c-.3-.2-.6-.4-.7-.7-.2-.3-.3-.6-.3-1 0-.3.1-.7.3-1l.8-.5c.4-.2.7-.3 1.1-.3a5 5 0 0 1 1.2.2h.5v-.5a1 1 0 0 0-.4-.8c-.2-.3-.6-.4-1-.4-.3 0-.6.1-.8.3-.3.1-.4.4-.5.7l-1-.3c0-.3.2-.7.4-.9.2-.3.5-.4.8-.6a3 3 0 0 1 1.1-.2c.8 0 1.5.2 1.9.6.4.4.6 1 .6 1.7v3.7h-1.1v-.7l-.5.4a2.3 2.3 0 0 1-1.4.5Zm.3-1c.3 0 .6 0 .8-.2a1.5 1.5 0 0 0 .8-1.3l-.7-.2h-.8c-.4 0-.7 0-.9.2-.2.1-.3.3-.3.7l.3.6.8.2Zm31.4.8v-1.2l4.2-5.5h-4V332h5.4v1.3l-4.2 5.5h4.2v1.1h-5.6Zm7 0v-5.8h1.2v5.8h-1.2Zm.6-7c-.2 0-.4 0-.5-.2a.8.8 0 0 1-.3-.6l.3-.6.5-.2c.3 0 .4 0 .6.2.2.2.2.4.2.6 0 .2 0 .4-.2.6l-.6.2Zm2.3 7v-5.8h1.1v.7h.1l.4-.4c.2-.2.3-.3.6-.3l.6-.2c.4 0 .7.1 1 .3.3.2.5.4.6.7l.7-.7c.3-.2.6-.3 1-.3.7 0 1.1.2 1.4.6.3.3.5.8.5 1.5v3.9H348v-3.8c0-.3 0-.6-.3-.8-.1-.2-.4-.3-.7-.3-.2 0-.4 0-.6.2l-.4.5-.2.8v3.4h-1.2v-3.7c0-.4 0-.7-.2-.9-.2-.2-.5-.3-.8-.3a1 1 0 0 0-.6.2l-.4.5-.2.8v3.4h-1.2Zm12.6.2a2.2 2.2 0 0 1-1.4-.5l-.4-.4v.7h-1.2v-8.5h1.2v3.5l.4-.5a2 2 0 0 1 1.4-.5 2.4 2.4 0 0 1 2.3 1.5c.2.4.3 1 .3 1.6 0 .6-.1 1.2-.3 1.6-.3.5-.6.9-1 1.1-.3.3-.8.4-1.3.4Zm-.2-1.1a1.5 1.5 0 0 0 1.4-1l.2-1c0-.4 0-.8-.2-1-.1-.4-.3-.6-.6-.7-.2-.2-.5-.3-.8-.3l-.9.3a1 1 0 0 0-.5.6c-.2.3-.2.7-.2 1.1 0 .4 0 .8.2 1 .1.4.3.6.5.8l.9.2Zm6 1-1.1-.1c-.3-.2-.6-.4-.7-.7-.2-.3-.3-.6-.3-1 0-.3.1-.7.3-1l.8-.5c.4-.2.7-.3 1.1-.3a4.9 4.9 0 0 1 1.1.2h.6v-.5a1 1 0 0 0-.4-.8c-.2-.3-.6-.4-1-.4-.3 0-.6.1-.8.3-.3.1-.4.4-.5.7l-1-.3c0-.3.2-.7.4-.9.2-.3.5-.4.8-.6a3 3 0 0 1 1.1-.2c.8 0 1.5.2 1.9.6.4.4.6 1 .6 1.7v3.7h-1.1v-.7l-.5.4a2.2 2.2 0 0 1-1.4.5Zm.2-.9c.3 0 .6 0 .8-.2a1.5 1.5 0 0 0 .8-1.3l-.8-.2h-.7c-.4 0-.7 0-.9.2-.2.1-.3.3-.3.7l.3.6.8.2Zm7.3 1a2.2 2.2 0 0 1-1.4-.5l-.4-.4v.7h-1.1v-8.5h1.1v3.5l.4-.5a2.1 2.1 0 0 1 1.4-.5 2.4 2.4 0 0 1 2.3 1.5c.2.4.3 1 .3 1.6 0 .6-.1 1.2-.3 1.6-.2.5-.5.9-1 1.1-.3.3-.8.4-1.3.4Zm-.2-1.1a1.5 1.5 0 0 0 1.4-1c.2-.2.2-.6.2-1s0-.8-.2-1a1.5 1.5 0 0 0-1.4-1c-.3 0-.6.1-.8.3-.3.1-.5.3-.6.6-.2.3-.2.7-.2 1.1 0 .4 0 .8.2 1 .1.4.3.6.6.8l.8.2Zm5 .9-1.6-5.8h1.3l1 4.1 1.2-4h1.2l1.2 4 1-4h1.3L377 340h-1.2l-1.2-4.2-1.2 4.2h-1.2Zm10 .2c-.6 0-1-.2-1.5-.4-.4-.3-.7-.6-1-1.1-.2-.5-.3-1-.3-1.6 0-.6.1-1.1.4-1.6.2-.5.5-.8 1-1 .4-.3.8-.5 1.4-.5.6 0 1 .1 1.4.4.4.2.7.5 1 1a3.3 3.3 0 0 1 .2 1.7v.3h-4.2c0 .3 0 .6.2.8a1.5 1.5 0 0 0 1.4 1c.4 0 .7-.2 1-.3l.4-.7 1 .2c0 .5-.3 1-.8 1.3-.4.3-1 .5-1.6.5Zm-1.6-3.7h3v-.6l-.3-.5-.5-.3a1.8 1.8 0 0 0-1.5.2c-.2.1-.4.4-.5.7l-.2.5Z"/>
  <circle cx="64" cy="337" r="4" fill="#920101"/>
  <circle cx="131" cy="337" r="4" fill="#5E4FA2"/>
  <circle cx="190" cy="337" r="4" fill="#FEE08B"/>
  <circle cx="254" cy="337" r="4" fill="#66C2A5"/>
  <circle cx="323" cy="337" r="4" fill="#3288BD"/>
  <path fill="#303030" d="m26.3 47 6-15.8h2.1l6 15.8h-2l-1.6-4.3H30L28.4 47h-2Zm9.8-6-2-5.8-.7-1.7-.7 1.7-2 5.7H36ZM47 47.3c-1.1 0-2.1-.3-3-.8a5.6 5.6 0 0 1-2-2.2 6.6 6.6 0 0 1 0-6 5.4 5.4 0 0 1 5-3c1.2 0 2.3.3 3 1 1 .5 1.5 1.2 1.8 2.1l-1.7.7c-.2-.7-.7-1.2-1.2-1.5-.6-.4-1.2-.6-2-.6-.7 0-1.3.2-1.9.5a4 4 0 0 0-1.3 1.5c-.4.7-.5 1.4-.5 2.3 0 .8.1 1.6.5 2.2A4 4 0 0 0 45 45a3.7 3.7 0 0 0 3.9 0c.6-.4 1-.9 1.3-1.6l1.7.8c-.4.8-1 1.5-1.8 2.2-.8.6-1.9.9-3.1.9Zm11.9 0c-1.1 0-2.1-.3-3-.8a5.6 5.6 0 0 1-2-2.2 6.6 6.6 0 0 1 0-6 5.4 5.4 0 0 1 5-3c1.2 0 2.3.3 3 1 1 .5 1.5 1.2 1.8 2.1l-1.7.7c-.2-.7-.7-1.2-1.2-1.5-.6-.4-1.2-.6-2-.6-.7 0-1.3.2-1.8.5a4 4 0 0 0-1.4 1.5c-.4.7-.5 1.4-.5 2.3 0 .8.1 1.6.5 2.2A4 4 0 0 0 57 45c.5.4 1.1.6 1.8.6.8 0 1.5-.2 2-.6.6-.4 1-.9 1.3-1.6l1.7.8c-.4.8-1 1.5-1.8 2.2-.8.6-1.9.9-3.1.9Zm11.8 0a5.5 5.5 0 0 1-4.9-2.9 6.7 6.7 0 0 1 0-6c.4-1 1-1.7 1.9-2.2a5 5 0 0 1 2.8-.9c1.2 0 2.1.3 3 .8.7.5 1.3 1.1 1.8 2a6.5 6.5 0 0 1 .6 3.5h-9c.1.8.3 1.5.6 2a3.6 3.6 0 0 0 3.3 2c.8 0 1.5-.2 2-.6.5-.4 1-.9 1.3-1.5l1.6.8a5 5 0 0 1-2 2.1c-.7.6-1.8.9-3 .9ZM67 40.2h6.8c0-.3 0-.6-.2-1a2 2 0 0 0-.6-1c-.2-.3-.6-.6-1-.8-.4-.2-1-.3-1.6-.3-.7 0-1.3.2-1.9.6a4.4 4.4 0 0 0-1.5 2.5Zm15 7.2c-.8 0-1.6-.2-2.2-.4-.6-.3-1.2-.7-1.6-1.1a5 5 0 0 1-.9-1.6l1.7-.7a4 4 0 0 0 1.2 1.6c.6.3 1.2.5 2 .5.6 0 1.2-.1 1.7-.4.4-.3.7-.7.7-1.2 0-.4-.1-.7-.3-.9l-.8-.6-1.4-.4-1.3-.4c-.6-.1-1-.3-1.5-.6s-.9-.6-1.2-1c-.3-.4-.4-1-.4-1.5 0-.7.2-1.3.6-1.8a3 3 0 0 1 1.5-1c.7-.3 1.4-.5 2.1-.5.7 0 1.3.1 1.8.3.6.2 1 .5 1.5.8.4.4.8.8 1 1.3l-1.6.8c-.3-.6-.7-1-1.2-1.2a3.6 3.6 0 0 0-3.1.1c-.5.3-.7.6-.7 1.1 0 .5.2.8.5 1 .4.3.9.5 1.4.6l1.6.5c1.1.2 2 .7 2.5 1.2.6.6.9 1.2.9 2 0 .7-.2 1.3-.6 1.8-.4.6-1 1-1.6 1.2a6 6 0 0 1-2.3.5Zm10.4 0c-.8 0-1.6-.2-2.2-.4-.6-.3-1.2-.7-1.6-1.1a5 5 0 0 1-1-1.6l1.8-.7a4 4 0 0 0 1.2 1.6c.6.3 1.2.5 2 .5.6 0 1.2-.1 1.7-.4.4-.3.7-.7.7-1.2 0-.4-.1-.7-.3-.9l-.8-.6-1.4-.4-1.4-.4c-.5-.1-1-.3-1.4-.6a4 4 0 0 1-1.2-1c-.3-.4-.4-1-.4-1.5 0-.7.2-1.3.6-1.8a3 3 0 0 1 1.5-1c.7-.3 1.4-.5 2.1-.5.7 0 1.3.1 1.8.3.6.2 1 .5 1.5.8.4.4.8.8 1 1.3l-1.6.8c-.3-.6-.7-1-1.2-1.2a3.6 3.6 0 0 0-3.1.1c-.5.3-.7.6-.7 1.1 0 .5.2.8.5 1 .4.3.9.5 1.4.6l1.6.5c1.1.2 2 .7 2.5 1.2.6.6.9 1.2.9 2 0 .7-.2 1.3-.6 1.8-.4.6-1 1-1.6 1.2a6 6 0 0 1-2.3.5Zm10.9-11.6h2v-3.2h1.8v3.2h2.7v1.7h-2.7v6c0 .7.1 1.1.3 1.5.3.3.7.4 1.2.4h.7l.6-.3v1.8l-.7.2h-.9c-1 0-1.7-.2-2.2-.7a3 3 0 0 1-.9-2.3v-6.6h-2v-1.7Zm13.4 11.6a5.6 5.6 0 0 1-5-3 6 6 0 0 1-.7-3 6 6 0 0 1 2.7-5.2c1-.5 1.9-.8 3-.8a5.5 5.5 0 0 1 5 3 6.2 6.2 0 0 1 0 6 5.6 5.6 0 0 1-5 3Zm0-1.7a5 5 0 0 0 2-.5c.5-.4 1-.9 1.4-1.5.3-.6.5-1.4.5-2.3 0-.9-.2-1.7-.5-2.3a3.8 3.8 0 0 0-3.4-2 3.9 3.9 0 0 0-3.3 2c-.4.6-.6 1.4-.6 2.3 0 .9.2 1.7.6 2.3a3.8 3.8 0 0 0 3.3 2Zm18 1.7a5.5 5.5 0 0 1-4.9-2.9 8 8 0 0 1 0-6c.5-1 1.1-1.7 2-2.2a5 5 0 0 1 2.8-.9c1.1 0 2 .3 2.9.8.8.5 1.4 1.1 1.8 2a6.5 6.5 0 0 1 .6 3.5h-8.8c0 .8.2 1.5.5 2a3.6 3.6 0 0 0 3.2 2 3 3 0 0 0 2-.6 5 5 0 0 0 1.4-1.5l1.5.8c-.4.9-1 1.6-1.8 2.1-.9.6-1.9.9-3.1.9Zm-3.5-7.2h6.8c0-.3 0-.6-.2-1a2 2 0 0 0-.6-1l-1-.8c-.4-.2-1-.3-1.6-.3a3 3 0 0 0-1.9.6c-.5.4-1 .9-1.2 1.5-.2.3-.3.6-.3 1Zm11 6.8V31.2h1.8V47h-1.8Zm9.5.4a5.5 5.5 0 0 1-4.9-2.9 6.7 6.7 0 0 1 0-6c.4-1 1-1.7 1.9-2.2a5 5 0 0 1 2.9-.9 5.4 5.4 0 0 1 4.7 2.8 6.5 6.5 0 0 1 .6 3.5h-9c.1.8.3 1.5.6 2a3.6 3.6 0 0 0 3.3 2c.8 0 1.5-.2 2-.6.5-.4 1-.9 1.3-1.5l1.6.8c-.5.9-1 1.6-2 2.1-.7.6-1.8.9-3 .9Zm-3.6-7.2h6.8c0-.3 0-.6-.2-1a2 2 0 0 0-.6-1c-.2-.3-.6-.6-1-.8-.4-.2-1-.3-1.5-.3-.8 0-1.4.2-2 .6-.5.4-.9.9-1.2 1.5l-.3 1Zm16.2 7.2c-1.1 0-2-.3-3-.8a5.6 5.6 0 0 1-2-2.2 6.6 6.6 0 0 1 0-6 5.4 5.4 0 0 1 5-3c1.3 0 2.3.3 3.1 1a4 4 0 0 1 1.7 2.1l-1.7.7c-.2-.7-.7-1.2-1.2-1.5-.6-.4-1.2-.6-2-.6-.7 0-1.3.2-1.8.5a4 4 0 0 0-1.4 1.5c-.4.7-.5 1.4-.5 2.3 0 .8.1 1.6.5 2.2a4 4 0 0 0 1.4 1.5c.5.4 1.1.6 1.8.6.8 0 1.5-.2 2-.6.6-.4 1-.9 1.3-1.6l1.7.8c-.4.8-1 1.5-1.8 2.2a5 5 0 0 1-3.1.9Zm6-11.6h2v-3.2h1.9v3.2h2.7v1.7h-2.7v6c0 .7 0 1.1.3 1.5.3.3.7.4 1.2.4h.7l.6-.3v1.8l-.7.2h-.9c-1 0-1.7-.2-2.2-.7a3 3 0 0 1-.9-2.3v-6.6h-2v-1.7Zm8.9 11.2V35.8h1.7v1.8h.1l.7-1.1a3.9 3.9 0 0 1 3.9-.8v2l-.8-.3h-.8c-.5 0-1 .1-1.5.4a3.4 3.4 0 0 0-1.5 3V47h-1.8Zm8.4 0V35.8h1.8V47h-1.8Zm.9-13.3c-.4 0-.7-.1-1-.4-.2-.2-.3-.6-.3-1 0-.3 0-.6.4-.9.2-.2.5-.4.9-.4s.7.2 1 .4c.2.3.3.6.3 1 0 .3 0 .7-.4 1-.2.2-.5.3-.9.3Zm8.8 13.7c-1 0-2-.3-3-.8a5.6 5.6 0 0 1-2-2.2c-.4-.9-.6-1.9-.6-3 0-1.2.2-2.2.7-3a5.4 5.4 0 0 1 5-3c1.2 0 2.2.3 3 1 .9.5 1.4 1.2 1.8 2.1l-1.7.7c-.3-.7-.7-1.2-1.3-1.5-.5-.4-1.2-.6-2-.6a4 4 0 0 0-1.8.5 4 4 0 0 0-1.4 1.5c-.3.7-.5 1.4-.5 2.3 0 .8.2 1.6.5 2.2a4 4 0 0 0 1.4 1.5 3.7 3.7 0 0 0 3.9 0c.6-.4 1-.9 1.3-1.6l1.6.8c-.3.8-1 1.5-1.7 2.2-.9.6-1.9.9-3.2.9Zm7.1-.4V35.8h2V47h-2Zm1-13.3c-.4 0-.7-.1-1-.4-.2-.2-.4-.6-.4-1 0-.3.2-.6.4-.9.3-.2.6-.4 1-.4.3 0 .7.2 1 .4.2.3.3.6.3 1 0 .3-.1.7-.4 1-.2.2-.6.3-1 .3Zm3 2h2v-3h1.8v3h2.7v1.8h-2.7v6c0 .7.1 1.1.3 1.5.3.3.7.4 1.2.4h.7l.6-.3v1.8l-.7.2h-.9c-.9 0-1.7-.2-2.2-.7a3 3 0 0 1-.9-2.3v-6.6h-2v-1.7Zm12 15.5v.3l-.2.3h-2a37.7 37.7 0 0 0 1.6-3.3l1-2.2-4.7-10.5h2l3.6 8.3 3.4-8.3h2l-5.8 13.4a33.5 33.5 0 0 1-.8 2Zm13.7-4.2V35.8h1.8V47h-1.8Zm.9-13.3c-.4 0-.7-.1-1-.4-.2-.2-.3-.6-.3-1 0-.3 0-.6.3-.9.3-.2.6-.4 1-.4s.7.2 1 .4c.2.3.3.6.3 1 0 .3-.1.7-.4 1-.2.2-.5.3-1 .3Zm3.9 13.3V35.8h1.7v1.6h.1c.3-.5.8-1 1.5-1.4a4 4 0 0 1 2.2-.6c1.3 0 2.4.4 3 1.2.8.8 1.1 1.9 1.1 3.2V47h-1.9v-7c0-1-.2-1.8-.7-2.2a3 3 0 0 0-2-.7c-.7 0-1.2.2-1.7.5-.4.4-.8.8-1 1.4-.3.5-.5 1-.5 1.7V47H239Zm21.3.4c-.8 0-1.6-.2-2.2-.4-.6-.3-1.2-.7-1.6-1.1a5 5 0 0 1-1-1.6l1.8-.7a4 4 0 0 0 1.2 1.6c.6.3 1.2.5 2 .5.6 0 1.2-.1 1.7-.4.4-.3.7-.7.7-1.2 0-.4-.1-.7-.3-.9l-.9-.6-1.3-.4-1.4-.4-1.5-.6-1.1-1c-.3-.4-.4-1-.4-1.5 0-.7.2-1.3.6-1.8a3 3 0 0 1 1.5-1c.7-.3 1.4-.5 2.1-.5.7 0 1.3.1 1.8.3.6.2 1 .5 1.5.8.4.4.8.8 1 1.3l-1.7.8a2 2 0 0 0-1-1.2 3.6 3.6 0 0 0-3.2.1c-.5.3-.7.6-.7 1.1 0 .5.2.8.5 1 .4.3.9.5 1.4.6l1.6.5c1.1.2 2 .7 2.5 1.2.6.6.9 1.2.9 2 0 .7-.2 1.3-.6 1.8-.4.6-1 1-1.6 1.2a6 6 0 0 1-2.3.5Zm11.6 0a5.5 5.5 0 0 1-4.9-2.9 6.7 6.7 0 0 1 0-6c.4-1 1-1.7 1.9-2.2a5 5 0 0 1 2.8-.9c1.2 0 2.1.3 3 .8.7.5 1.3 1.1 1.8 2a6.5 6.5 0 0 1 .6 3.5h-9c.1.8.3 1.5.6 2a3.6 3.6 0 0 0 3.3 2c.8 0 1.5-.2 2-.6.5-.4 1-.9 1.3-1.5l1.6.8a5 5 0 0 1-2 2.1c-.7.6-1.8.9-3 .9Zm-3.6-7.2h6.8c0-.3 0-.6-.2-1a2 2 0 0 0-.6-1c-.2-.3-.6-.6-1-.8-.4-.2-1-.3-1.6-.3-.7 0-1.3.2-1.9.6a4.3 4.3 0 0 0-1.5 2.5Zm11 6.8V31.2h1.9V47h-1.9Zm9.5.4a5.5 5.5 0 0 1-4.9-2.9 6.7 6.7 0 0 1 0-6c.5-1 1-1.7 1.9-2.2a5 5 0 0 1 2.9-.9c1 0 2 .3 2.8.8.8.5 1.5 1.1 1.9 2a6.5 6.5 0 0 1 .6 3.5H285c0 .8.2 1.5.6 2a3.6 3.6 0 0 0 3.2 2c.8 0 1.5-.2 2-.6.6-.4 1-.9 1.3-1.5l1.6.8c-.4.9-1 1.6-1.9 2.1-.8.6-1.8.9-3 .9Zm-3.6-7.2h6.9l-.3-1c0-.4-.3-.7-.5-1l-1-.8c-.5-.2-1-.3-1.6-.3-.8 0-1.4.2-2 .6-.5.4-.9.9-1.1 1.5l-.4 1Zm16.2 7.2c-1 0-2-.3-3-.8a5.6 5.6 0 0 1-2-2.2c-.4-.9-.7-1.9-.7-3 0-1.2.3-2.2.8-3a5.4 5.4 0 0 1 5-3c1.2 0 2.2.3 3 1 .8.5 1.4 1.2 1.8 2.1l-1.7.7c-.3-.7-.7-1.2-1.3-1.5-.5-.4-1.2-.6-2-.6a4 4 0 0 0-1.8.5 4 4 0 0 0-1.4 1.5c-.3.7-.5 1.4-.5 2.3 0 .8.2 1.6.5 2.2a4 4 0 0 0 1.4 1.5c.6.4 1.2.6 1.8.6.8 0 1.5-.2 2-.6.7-.4 1-.9 1.4-1.6l1.6.8a6 6 0 0 1-1.8 2.2c-.8.6-1.8.9-3 .9Zm6-11.6h2v-3.2h1.9v3.2h2.8v1.7h-2.8v6c0 .7.1 1.1.4 1.5.2.3.6.4 1.2.4h.6l.6-.3v1.8l-.6.2h-1c-.9 0-1.6-.2-2.2-.7a3 3 0 0 1-.9-2.3v-6.6h-2v-1.7Zm13.4 11.6c-1.1 0-2-.3-3-.8a5.5 5.5 0 0 1-1.9-2.1 6.7 6.7 0 0 1 0-6c.4-1 1-1.7 1.8-2.2a5 5 0 0 1 3-.9c1 0 2 .3 2.8.8.8.5 1.4 1.1 1.8 2a6.5 6.5 0 0 1 .6 3.5H317c0 .8.2 1.5.5 2a3.6 3.6 0 0 0 3.2 2 3 3 0 0 0 2-.6 5 5 0 0 0 1.4-1.5l1.6.8a5 5 0 0 1-2 2.1c-.8.6-1.8.9-3 .9Zm-3.6-7.2h6.8c0-.3 0-.6-.2-1a2 2 0 0 0-.6-1l-1-.8c-.4-.2-1-.3-1.6-.3-.7 0-1.3.2-1.9.6-.5.4-1 .9-1.2 1.5-.1.3-.3.6-.3 1Zm15.9 7.2a5 5 0 0 1-4.7-3c-.5-.8-.7-1.9-.7-3 0-1.2.2-2.2.7-3 .5-1 1.1-1.7 2-2.2a5 5 0 0 1 4.3-.5 4.5 4.5 0 0 1 2.2 1.8v-6.3h1.9V47h-1.8v-1.6h-.1l-.9 1a4.5 4.5 0 0 1-3 1Zm.2-1.7a4 4 0 0 0 1.8-.5 4 4 0 0 0 1.4-1.5 5.6 5.6 0 0 0 0-4.6 3.7 3.7 0 0 0-3.2-2c-.7 0-1.3.2-1.9.5a4.7 4.7 0 0 0-1.9 3.8c0 .9.2 1.6.6 2.3a3.5 3.5 0 0 0 3.2 2Zm11.6 1.3 6-15.8h2.1l6 15.8h-2l-1.7-4.3h-6.7l-1.6 4.3h-2Zm9.8-6-2-5.8-.7-1.7-.7 1.7L349 41h5.5Zm4.5-3.5v-1.7h2v-1.2c0-.8.2-1.4.5-1.9s.8-1 1.3-1.2a4.6 4.6 0 0 1 3.5-.2v1.9l-.7-.3h-1c-.4 0-.8 0-1.1.4-.4.3-.6.8-.6 1.5v1h2.9v1.7H363V47h-1.9v-9.5h-2Zm9 9.5V35.8h1.9v1.8c.2-.4.4-.8.8-1.1a3.9 3.9 0 0 1 3.8-.8v2l-.8-.3h-.8c-.5 0-1 .1-1.5.4a3.4 3.4 0 0 0-1.5 3V47h-1.8Zm8.5 0V35.8h1.9V47h-1.9Zm1-13.3c-.4 0-.8-.1-1-.4-.3-.2-.4-.6-.4-1 0-.3.1-.6.4-.9.2-.2.6-.4 1-.4.3 0 .6.2.9.4.2.3.4.6.4 1 0 .3-.2.7-.4 1-.3.2-.6.3-1 .3Zm8.8 13.7c-1.1 0-2.1-.3-3-.8a5.6 5.6 0 0 1-2-2.2 6 6 0 0 1-.7-3c0-1.2.2-2.2.7-3a5.4 5.4 0 0 1 5-3c1.2 0 2.3.3 3 1 .9.5 1.5 1.2 1.8 2.1l-1.7.7a3 3 0 0 0-1.2-1.5c-.6-.4-1.3-.6-2-.6s-1.3.2-1.9.5a4 4 0 0 0-1.3 1.5c-.4.7-.6 1.4-.6 2.3 0 .8.2 1.6.6 2.2a4 4 0 0 0 1.3 1.5 3.7 3.7 0 0 0 3.9 0c.6-.4 1-.9 1.3-1.6l1.7.8c-.4.8-1 1.5-1.8 2.2-.8.6-1.9.9-3.1.9Zm10.4 0c-.9 0-1.6-.2-2.2-.5-.7-.4-1.2-.8-1.5-1.4a3 3 0 0 1-.6-1.9c0-.8.3-1.5.7-2 .4-.6 1-1 1.7-1.3a6 6 0 0 1 2.4-.5 6.8 6.8 0 0 1 2.5.4l.7.4v-.7c0-.9-.3-1.6-1-2-.5-.6-1.3-.8-2.1-.8a4 4 0 0 0-1.8.4c-.5.3-.9.7-1.2 1.1l-1.4-1 1-1.2 1.6-.7c.5-.2 1.1-.3 1.8-.3a5 5 0 0 1 3.6 1.2c.8.8 1.3 2 1.3 3.3V47h-1.8v-1.6h-.1a4 4 0 0 1-2 1.7c-.5.2-1 .3-1.6.3Zm.1-1.7a3.7 3.7 0 0 0 3-1.8c.4-.5.6-1.1.6-1.8l-1.3-.5c-.5-.2-1-.3-1.6-.3-1.1 0-1.9.3-2.4.7a2 2 0 0 0-.7 1.6c0 .6.2 1.1.7 1.5.4.4 1 .6 1.7.6Zm8 1.3V35.8h1.7v1.6h.1c.3-.5.8-1 1.5-1.4a4 4 0 0 1 2.2-.6c1.3 0 2.4.4 3 1.2.8.8 1.1 1.9 1.1 3.2V47h-1.8v-7c0-1-.3-1.8-.8-2.2a3 3 0 0 0-2-.7c-.7 0-1.2.2-1.7.5-.4.4-.8.8-1 1.4-.3.5-.5 1-.5 1.7V47H405ZM32.5 75.4c-1.1 0-2.1-.3-3-.8a5.6 5.6 0 0 1-2-2.2 6 6 0 0 1-.7-3c0-1.2.2-2.2.7-3a5.4 5.4 0 0 1 5-3c1.2 0 2.3.3 3 1 .9.5 1.5 1.2 1.8 2.1l-1.7.7a3.4 3.4 0 0 0-3.2-2.1c-.7 0-1.3.2-1.9.6a4 4 0 0 0-1.3 1.4c-.4.7-.6 1.4-.6 2.3 0 .8.2 1.6.6 2.2a4 4 0 0 0 1.3 1.5 3.7 3.7 0 0 0 3.9 0c.6-.4 1-.9 1.3-1.6l1.7.8c-.4.8-1 1.5-1.8 2.2-.8.6-1.9.9-3.1.9Zm12 0a5.6 5.6 0 0 1-5-3c-.6-.9-.8-1.9-.8-3a6 6 0 0 1 2.7-5.2c1-.5 2-.8 3-.8a5.5 5.5 0 0 1 5 3c.6.9.8 1.9.8 3s-.2 2.1-.7 3a5.5 5.5 0 0 1-5 3Zm0-1.7a3.8 3.8 0 0 0 3.3-2c.4-.6.6-1.4.6-2.3 0-.9-.2-1.7-.6-2.3a3.8 3.8 0 0 0-3.3-2 3.9 3.9 0 0 0-3.4 2c-.4.6-.6 1.4-.6 2.3 0 .9.2 1.7.6 2.3a3.8 3.8 0 0 0 3.4 2Zm11.9 1.7c-1.4 0-2.5-.5-3.2-1.3a5 5 0 0 1-1-3.3v-7h1.9v6.8c0 1 .2 1.9.7 2.4.6.4 1.2.7 2 .7a3 3 0 0 0 1.7-.5c.5-.4.8-.8 1-1.4.4-.5.5-1.1.5-1.7v-6.3h1.9V75H60v-1.6l-.9 1c-.3.3-.8.5-1.2.7a4 4 0 0 1-1.5.3Zm8.2-.4V63.8h1.8v1.6c.4-.5.9-1 1.5-1.4.7-.4 1.4-.6 2.2-.6 1.4 0 2.4.4 3.1 1.2.7.8 1 1.9 1 3.2V75h-1.8v-7c0-1-.3-1.8-.8-2.2a3 3 0 0 0-2-.7c-.6 0-1.1.2-1.6.6-.5.3-.9.7-1.1 1.3a3 3 0 0 0-.4 1.7V75h-1.9Zm11-11.2h2v-3.2h1.8v3.2h2.8v1.7h-2.8v6c0 .7.2 1.1.4 1.5.3.3.7.4 1.2.4h.7l.5-.3v1.8l-.6.2h-.9c-1 0-1.7-.2-2.3-.7a3 3 0 0 1-.8-2.3v-6.6h-2v-1.7ZM84.4 75V63.8h1.8v1.8h.1c.1-.4.4-.8.7-1.1a3.9 3.9 0 0 1 3.9-.8v2l-.8-.3h-.8c-.6 0-1 .1-1.5.4a3.4 3.4 0 0 0-1.5 3V75h-1.9Zm8.5 0V63.8h1.8V75H93Zm.9-13.3c-.4 0-.7-.1-1-.4-.2-.2-.4-.6-.4-1 0-.3.2-.6.4-.9.3-.2.6-.4 1-.4s.7.2 1 .4c.2.3.3.6.3 1 0 .3-.1.7-.4 1-.2.2-.5.3-1 .3Zm8.7 13.7a5.5 5.5 0 0 1-4.9-2.9 6.7 6.7 0 0 1 0-6c.5-1 1-1.7 1.9-2.2a5 5 0 0 1 2.9-.9c1 0 2 .3 2.8.8.8.5 1.5 1.1 1.9 2a6.5 6.5 0 0 1 .6 3.5h-8.9c0 .8.2 1.5.6 2a3.6 3.6 0 0 0 3.2 2c.8 0 1.5-.2 2-.6.6-.4 1-.9 1.3-1.5l1.6.8c-.4.9-1 1.6-1.9 2.1-.8.6-1.8.9-3 .9ZM99 68.2h6.9l-.3-1c0-.4-.3-.7-.6-1-.2-.3-.6-.6-1-.8-.4-.2-1-.3-1.5-.3-.8 0-1.4.2-2 .6a4.4 4.4 0 0 0-1.5 2.5Zm15 7.2c-.8 0-1.5-.2-2.2-.4l-1.6-1.1a5 5 0 0 1-.9-1.6l1.7-.7a3.4 3.4 0 0 0 3.2 2.1 3 3 0 0 0 1.7-.4c.5-.3.7-.7.7-1.2 0-.4 0-.7-.3-.9l-.8-.6-1.4-.4-1.3-.4c-.6-.1-1-.3-1.5-.6s-.9-.6-1.2-1c-.2-.4-.4-1-.4-1.5 0-.7.2-1.3.6-1.8.4-.5 1-.8 1.6-1a4.8 4.8 0 0 1 3.8-.2c.6.2 1.1.5 1.5.8.5.4.8.8 1 1.3l-1.6.8c-.3-.6-.7-1-1.1-1.2a3.6 3.6 0 0 0-3.2.1c-.5.3-.7.6-.7 1.1 0 .5.2.8.6 1 .3.3.8.5 1.3.6l1.7.5c1 .2 1.9.7 2.5 1.2a3 3 0 0 1 .2 3.8c-.4.6-1 1-1.6 1.2-.7.3-1.4.5-2.2.5Zm15.6 2.6a19 19 0 0 1-2.7-4.2l-.9-2.7a13.7 13.7 0 0 1 1-9 16.8 16.8 0 0 1 2.6-4.3l1.3 1a15.5 15.5 0 0 0-3 5.7 12.8 12.8 0 0 0 0 6.8 16.4 16.4 0 0 0 3 5.7l-1.3 1Zm6.4-3V62.6l-2.7 1.9-1-1.5 4.4-3h1.1v15H136Zm9.1.4-1.5-1 1-1.4 1-1.3a237 237 0 0 0 1.8-2.7 3.2 3.2 0 0 1-2 .5c-.5 0-1-.1-1.6-.4a5.2 5.2 0 0 1-2.7-2.5c-.2-.6-.4-1.3-.4-2 0-.9.2-1.7.7-2.4.5-.8 1.1-1.4 1.9-1.9.8-.5 1.6-.7 2.5-.7a5 5 0 0 1 3.7 1.5c.5.5.8 1 1.1 1.6a5.6 5.6 0 0 1-.2 4.4l-1.3 2.3-2 3-2 3Zm.7-7.6a3.2 3.2 0 0 0 2.9-1.6c.3-.4.4-1 .4-1.6a3.1 3.1 0 0 0-1.6-2.8 3 3 0 0 0-1.7-.4 3.2 3.2 0 0 0-2.8 4.9c.3.4.7.8 1.2 1.1.5.3 1 .4 1.6.4Zm11.6 7.6-1.5-1 1-1.4.9-1.3a237 237 0 0 0 1.9-2.7 3.2 3.2 0 0 1-2 .5c-.6 0-1.1-.1-1.7-.4a5.2 5.2 0 0 1-2.6-2.5c-.3-.6-.4-1.3-.4-2 0-.9.2-1.7.6-2.4.5-.8 1.1-1.4 2-1.9.7-.5 1.6-.7 2.5-.7a5 5 0 0 1 3.7 1.5c.4.5.8 1 1 1.6a5.6 5.6 0 0 1-.2 4.4c-.3.8-.8 1.6-1.3 2.3l-2 3-2 3Zm.7-7.6a3.2 3.2 0 0 0 2.8-1.6c.3-.4.5-1 .5-1.6a3.1 3.1 0 0 0-1.7-2.8 3 3 0 0 0-1.6-.4 3.2 3.2 0 0 0-2.8 4.9c.3.4.7.8 1.2 1.1.5.3 1 .4 1.6.4Zm13.2 7.6a5.1 5.1 0 0 1-4.4-2.3 8 8 0 0 1-1.2-2.5 11 11 0 0 1 1.2-8.7c.6-.7 1.2-1.3 2-1.7a5 5 0 0 1 2.4-.6c1 0 1.8.2 2.5.6.7.4 1.4 1 2 1.7a8 8 0 0 1 1.1 2.5 11 11 0 0 1-1.2 8.7c-.5.7-1.2 1.2-2 1.7-.6.4-1.5.6-2.4.6Zm0-1.8c.9 0 1.6-.3 2.2-.8a7 7 0 0 0 1.4-2.2c.4-1 .5-2 .5-3.1a9 9 0 0 0-.5-3.1 5 5 0 0 0-1.4-2.2c-.6-.5-1.3-.8-2.2-.8-.8 0-1.6.3-2.2.8a6 6 0 0 0-1.4 2.2 9.3 9.3 0 0 0 0 6.2c.3.9.8 1.6 1.4 2.2.6.5 1.4.8 2.2.8Zm8.5-4.6v-1.6h7V69h-7Zm9.3 6v-1.9l.5-.5 1.2-1.1a121 121 0 0 1 3.8-4l1.1-1.3.6-1c.2-.4.2-.8.2-1.3 0-.4 0-.8-.3-1.2-.2-.4-.5-.7-1-1a3 3 0 0 0-1.5-.3c-.6 0-1.1.1-1.5.4-.4.2-.7.5-1 .9l-.4.9-1.7-.7.5-1a5 5 0 0 1 2.3-2c.5-.2 1.1-.3 1.8-.3 1 0 1.8.2 2.5.6a4 4 0 0 1 1.6 1.6c.4.6.6 1.3.6 2.1 0 .7 0 1.3-.3 1.9l-1 1.6-1 1.3-.9.8a76.1 76.1 0 0 0-2.2 2.2l-1 1-.5.5h7.1V75H189Zm17.7.4a5.1 5.1 0 0 1-4.4-2.3 8 8 0 0 1-1.2-2.5 11 11 0 0 1 1.2-8.7c.5-.7 1.2-1.3 1.9-1.7a5 5 0 0 1 2.5-.6c.9 0 1.7.2 2.5.6.7.4 1.4 1 1.9 1.7a8 8 0 0 1 1.2 2.5 11 11 0 0 1-1.2 8.7c-.5.7-1.2 1.2-2 1.7-.7.4-1.5.6-2.4.6Zm0-1.8c.8 0 1.6-.3 2.2-.8a7 7 0 0 0 1.4-2.2c.3-1 .5-2 .5-3.1a9 9 0 0 0-.5-3.1 5 5 0 0 0-1.4-2.2c-.6-.5-1.4-.8-2.2-.8-.9 0-1.6.3-2.2.8a6 6 0 0 0-1.4 2.2c-.4.9-.5 2-.5 3 0 1.2.1 2.2.5 3.2.3.9.8 1.6 1.4 2.2.6.5 1.3.8 2.2.8Zm7.8 1.4v-1.9l.6-.5 1.1-1.1a121 121 0 0 1 3.9-4l1-1.3.7-1 .2-1.3-.3-1.2-1-1a3 3 0 0 0-1.6-.3c-.6 0-1 .1-1.5.4a2 2 0 0 0-.9.9c-.2.3-.4.6-.4.9l-1.7-.7c0-.3.2-.6.4-1a5 5 0 0 1 2.3-2c.5-.2 1.2-.3 1.9-.3 1 0 1.8.2 2.5.6.7.4 1.2 1 1.6 1.6.4.6.6 1.3.6 2.1a4 4 0 0 1-.4 1.9 11 11 0 0 1-2 2.9l-.8.8a76.1 76.1 0 0 0-2.2 2.2l-1 1-.6.5h7.2V75h-9.6Zm17.7.4a5.1 5.1 0 0 1-4.4-2.3 8 8 0 0 1-1.2-2.5 11 11 0 0 1 1.2-8.7c.6-.7 1.2-1.3 2-1.7a5 5 0 0 1 2.4-.6c1 0 1.8.2 2.5.6.8.4 1.4 1 2 1.7a8 8 0 0 1 1.1 2.5 11 11 0 0 1-1.2 8.7 5.1 5.1 0 0 1-4.4 2.3Zm0-1.8c.9 0 1.6-.3 2.2-.8.6-.6 1.1-1.3 1.4-2.2.4-1 .5-2 .5-3.1a9 9 0 0 0-.5-3.1 5 5 0 0 0-1.4-2.2c-.6-.5-1.3-.8-2.2-.8-.8 0-1.6.3-2.2.8a6 6 0 0 0-1.4 2.2 9.3 9.3 0 0 0 0 6.2 7 7 0 0 0 1.4 2.2c.6.5 1.4.8 2.2.8Zm9 4.4-1.4-1a14.5 14.5 0 0 0 3-5.7 12.3 12.3 0 0 0 0-6.8 14.6 14.6 0 0 0-3-5.7l1.3-1a17 17 0 0 1 4 10.1 16 16 0 0 1-4 10ZM30.5 96.2c-.6 0-1-.1-1.5-.3l-1-.8c-.3-.4-.5-.8-.5-1.3l1.2-.3c0 .5.2.8.5 1.1.3.3.7.4 1.3.4l.8-.1.6-.4.1-.6-.1-.7-.6-.4-1-.3-.5-.2-.8-.3-.6-.4a1.9 1.9 0 0 1-.7-1.5c0-.4.1-.8.4-1 .2-.4.5-.7.9-.9.4-.2.8-.3 1.4-.3.5 0 1 .1 1.4.3l.9.8.4 1-1.2.2-.2-.6-.6-.4-.7-.1a2 2 0 0 0-.8.1c-.2 0-.4.2-.5.3l-.2.6c0 .3.2.5.4.7l1.2.5.5.2.9.3.7.5a2 2 0 0 1 .6 1.5c0 .4 0 .8-.2 1a2 2 0 0 1-.6.8c-.2.2-.5.3-.9.4l-1 .2Zm6.7 0c-.6 0-1.1-.2-1.5-.4-.5-.3-.8-.6-1-1.1-.2-.5-.4-1-.4-1.6 0-.6.2-1.1.4-1.6s.5-.8 1-1a2.8 2.8 0 0 1 3 0c.4.2.7.5 1 1 .2.5.3 1 .3 1.6 0 .6-.1 1.1-.3 1.6a2.6 2.6 0 0 1-2.5 1.5Zm0-1.1c.3 0 .6 0 .8-.2.3-.2.5-.4.6-.7.2-.3.2-.7.2-1 0-.5 0-.9-.2-1.2a.9.9 0 0 0-.6-.6c-.2-.2-.5-.3-.8-.3l-.9.3-.6.6-.2 1.1c0 .4 0 .8.2 1l.6.8.9.2Zm6.1 1c-.6 0-1.2-.1-1.5-.5-.3-.4-.5-1-.5-1.6v-3.8h1.2v3.6c0 .5 0 .8.3 1 .2.2.5.3.8.3.3 0 .6 0 .8-.2l.4-.6c.2-.2.2-.5.2-.8v-3.3h1.2V96h-1.1v-.7l-.5.4-.6.4a2 2 0 0 1-.7 0Zm4.6-.1v-5.8H49v.8a1.6 1.6 0 0 1 1.6-1 2.1 2.1 0 0 1 .5.1v1.2h-.3l-.4-.1c-.3 0-.5 0-.7.2l-.5.5-.1.8V96h-1.2Zm6.6.2a2.7 2.7 0 0 1-2.4-1.5c-.3-.4-.4-1-.4-1.6 0-.6.1-1.2.4-1.6a2.6 2.6 0 0 1 2.4-1.5c.7 0 1.3.2 1.7.6.5.3.8.8.9 1.4l-1.2.2c0-.4-.2-.6-.5-.8-.2-.2-.5-.3-.9-.3-.3 0-.6.1-.8.3l-.6.6-.2 1.1c0 .4 0 .8.2 1.1l.6.7.8.2c.4 0 .7-.1 1-.3l.4-.8 1.1.3c-.1.5-.4 1-.8 1.3-.4.4-1 .6-1.7.6Zm6.2 0c-.5 0-1-.2-1.4-.4-.4-.3-.7-.6-1-1.1-.2-.5-.3-1-.3-1.6 0-.6.1-1.1.3-1.6.3-.5.6-.8 1-1 .4-.3 1-.5 1.4-.5.6 0 1.1.1 1.5.4.4.2.7.5.9 1a3.3 3.3 0 0 1 .3 1.7v.3h-4.2c0 .3 0 .6.2.8 0 .3.3.5.5.7l.9.2c.4 0 .7 0 1-.2l.4-.7 1 .2c0 .5-.4 1-.8 1.3-.4.3-1 .5-1.7.5Zm-1.5-3.7h3v-.6l-.4-.5-.4-.3a1.8 1.8 0 0 0-1.5.2c-.2.1-.4.4-.5.7l-.2.5Zm6.3-.7a.8.8 0 0 1-.8-.9c0-.2 0-.4.2-.6l.6-.2c.2 0 .4 0 .6.2l.2.6c0 .3 0 .5-.2.6l-.6.3Zm0 4.3a.8.8 0 0 1-.8-.9c0-.2 0-.4.2-.5l.6-.3.6.3.2.5c0 .3 0 .5-.2.6l-.6.3Z"/>
  <path fill="#0B57D0" d="M73 96.2a2.4 2.4 0 0 1-2.2-1.5c-.2-.4-.3-1-.3-1.6 0-.6.1-1.2.3-1.6.2-.5.5-.8 1-1 .3-.3.8-.5 1.3-.5a2.2 2.2 0 0 1 1.3.5c.2.1.4.3.4.5h.1v-3.5H76V96h-1v-.7h-.2l-.4.4a2 2 0 0 1-.6.3l-.7.2Zm.3-1.1c.3 0 .6 0 .8-.2.3-.2.5-.4.6-.7l.2-1c0-.5 0-.9-.2-1.2a.9.9 0 0 0-.6-.6c-.2-.2-.5-.3-.8-.3l-.9.3a1 1 0 0 0-.5.6c-.2.3-.2.7-.2 1.1 0 .4 0 .8.2 1.1l.5.7.9.2Zm6.1 1-1-.1c-.3-.2-.6-.4-.7-.7-.2-.3-.3-.6-.3-1 0-.3.1-.7.3-1l.8-.5c.4-.2.7-.3 1.1-.3a4.9 4.9 0 0 1 1.2.2h.5v-.5a1 1 0 0 0-.4-.8c-.2-.3-.6-.4-1-.4-.3 0-.6.1-.8.3-.2.1-.4.4-.5.7l-1-.3c0-.3.2-.7.4-.9l.9-.6a3 3 0 0 1 1-.2c.9 0 1.5.2 1.9.6.4.4.6 1 .6 1.7V96h-1.1v-.7l-.5.4a2.3 2.3 0 0 1-1.4.5Zm.3-.9c.3 0 .6 0 .8-.2a1.5 1.5 0 0 0 .8-1.3l-.7-.2h-.8c-.4 0-.7 0-.9.2-.2.1-.3.3-.3.6s.1.5.3.7l.8.2Zm3.8-5h1v-1.6h1.1v1.6H87v1h-1.4v3c0 .2 0 .4.2.6l.6.2h.3l.3-.2v1.1a2.7 2.7 0 0 1-.9.2c-.5 0-.9-.2-1.2-.5-.3-.3-.4-.7-.4-1.2v-3.2h-1v-1Zm6.5 6-1-.2c-.4-.2-.6-.4-.8-.7l-.2-1c0-.3 0-.7.3-1 .2-.2.4-.4.8-.5a2 2 0 0 1 1-.3 4.9 4.9 0 0 1 1.2.2h.5v-.5a1 1 0 0 0-.3-.8c-.3-.3-.6-.4-1-.4s-.6.1-.9.3c-.2.1-.4.4-.4.7l-1-.3c0-.3.1-.7.4-.9.2-.3.5-.4.8-.6a3 3 0 0 1 1-.2 3 3 0 0 1 2 .6c.4.4.6 1 .6 1.7V96h-1.2v-.7l-.4.4a2.3 2.3 0 0 1-1.4.5Zm.2-1c.4 0 .6 0 .9-.2a1.5 1.5 0 0 0 .7-1.3l-.7-.2h-.7c-.4 0-.7 0-1 .2l-.2.6c0 .3 0 .5.3.7l.7.2Zm5.1.9a.5.5 0 0 1-.5-.3.8.8 0 0 1-.3-.6c0-.2.1-.4.3-.5.1-.2.3-.3.5-.3.3 0 .5.1.6.3.2.1.3.3.3.5 0 .3-.1.5-.3.6-.1.2-.3.3-.6.3Zm3.1-.1-1.6-5.8H98l1 4.1 1.2-4h1.2l1.2 4 1-4h1.3l-1.7 5.7H102l-1.2-4.2-1.2 4.2h-1.3Zm10 .2c-.5 0-1-.2-1.5-.4-.4-.3-.7-.6-1-1.1-.2-.5-.3-1-.3-1.6 0-.6.1-1.1.3-1.6.3-.5.6-.8 1-1a2.8 2.8 0 0 1 3 0c.5.2.8.5 1 1 .3.5.4 1 .4 1.6a3 3 0 0 1-.4 1.6 2.6 2.6 0 0 1-2.5 1.5Zm0-1.1c.4 0 .7 0 .9-.2l.6-.7.2-1c0-.5 0-.9-.2-1.2a1.5 1.5 0 0 0-1.5-.9c-.3 0-.6.1-.8.3-.3.1-.5.3-.6.6-.2.3-.2.7-.2 1.1 0 .4 0 .8.2 1 .1.4.3.6.6.8l.8.2Zm4.1.9v-5.8h1.1v.8h.1a1.6 1.6 0 0 1 .8-.8l.7-.2a2.1 2.1 0 0 1 .5.1v1.2h-.3l-.4-.1c-.3 0-.5 0-.7.2l-.4.5-.2.8V96h-1.2Zm4.6 0v-8.5h1.2V96H117Zm5 .2a2.4 2.4 0 0 1-2.2-1.5c-.2-.4-.3-1-.3-1.6 0-.6 0-1.2.3-1.6.2-.5.5-.8 1-1 .3-.3.8-.5 1.3-.5a2.2 2.2 0 0 1 1.3.5l.4.5h.1v-3.5h1.1V96H124v-.7l-.5.4a2 2 0 0 1-.6.3l-.7.2Zm.3-1.1c.3 0 .6 0 .8-.2.3-.2.5-.4.6-.7l.2-1c0-.5 0-.9-.2-1.2a.9.9 0 0 0-.6-.6c-.2-.2-.5-.3-.8-.3l-.9.3a1 1 0 0 0-.5.6c-.2.3-.2.7-.2 1.1 0 .4 0 .8.2 1.1 0 .3.3.5.5.7l.9.2Zm7.4 1a2.2 2.2 0 0 1-1.4-.4l-.4-.4v.7h-1.2v-8.5h1.2V91c0-.2.2-.3.4-.5a2 2 0 0 1 1.4-.5 2.4 2.4 0 0 1 2.2 1.5c.3.4.4 1 .4 1.6 0 .6-.1 1.2-.4 1.6a2 2 0 0 1-.9 1.1 2 2 0 0 1-1.3.4Zm-.2-1a1.5 1.5 0 0 0 1.4-1l.2-1c0-.4 0-.8-.2-1-.2-.4-.4-.6-.6-.7-.2-.2-.5-.3-.8-.3l-.9.3-.6.6-.2 1.1.2 1 .6.8.9.2Zm5.9 1-1-.1c-.4-.2-.6-.4-.8-.7l-.2-1c0-.3 0-.7.3-1l.8-.5a2 2 0 0 1 1.1-.3 4.9 4.9 0 0 1 1.1.2h.5v-.5a1 1 0 0 0-.3-.8c-.3-.3-.6-.4-1-.4l-.9.3c-.2.1-.3.4-.4.7l-1-.3c0-.3.1-.7.4-.9.2-.3.5-.4.8-.6a3 3 0 0 1 1.1-.2c.8 0 1.4.2 1.9.6.4.4.6 1 .6 1.7V96h-1.2v-.7l-.4.4a2.2 2.2 0 0 1-1.4.5Zm.3-.9c.3 0 .6 0 .8-.2a1.5 1.5 0 0 0 .7-1.3l-.7-.2h-.7c-.4 0-.7 0-1 .2l-.2.6c0 .3 0 .5.3.7l.8.2Zm4.3.8v-5.8h1.1v.8h.1l.7-.7c.3-.2.6-.3 1-.3.7 0 1.2.2 1.5.6.4.4.6 1 .6 1.6V96h-1.2v-3.6c0-.4-.1-.8-.4-1-.2-.2-.4-.3-.8-.3l-.7.2-.5.6-.2.8V96h-1.2Zm6.6 0v-8.5h1.2v5.1l2.3-2.4h1.4l-2.1 2.3 2.1 3.4v.1h-1.3l-1.7-2.7-.7.8V96h-1.2Zm6.7 0c-.2 0-.4 0-.6-.2a.8.8 0 0 1-.2-.6c0-.2 0-.4.2-.5l.6-.3.6.3c.2.1.2.3.2.5 0 .3 0 .5-.2.6l-.6.3Zm5 .2c-.6 0-1.1-.2-1.6-.4-.4-.3-.7-.6-1-1.1-.2-.5-.3-1-.3-1.6 0-.6.1-1.1.3-1.6.3-.5.6-.8 1-1a3 3 0 0 1 1.5-.5c.6 0 1.1.2 1.5.4.5.3.8.6 1 1.1.3.5.4 1 .4 1.6a3 3 0 0 1-.4 1.6 2.6 2.6 0 0 1-2.5 1.5Zm0-1.1c.3 0 .6 0 .8-.2.3-.2.5-.4.6-.7l.2-1c0-.5 0-.9-.2-1.2a1.5 1.5 0 0 0-1.5-.9c-.3 0-.6.1-.8.3-.3.1-.5.3-.6.6-.2.3-.2.7-.2 1.1 0 .4 0 .8.2 1 .1.4.3.6.6.8l.8.2Zm4 .9v-5.8h1.1v.8h.1a1.6 1.6 0 0 1 .8-.8l.7-.2a2.1 2.1 0 0 1 .6.1v1.2h-.4l-.4-.1c-.2 0-.5 0-.7.2l-.4.5-.2.8V96h-1.2Zm6.6 2.6a3 3 0 0 1-1.2-.3 2.2 2.2 0 0 1-1.3-1.5l1.1-.3a1.4 1.4 0 0 0 1.4 1c.5 0 1-.2 1.2-.5.3-.3.4-.7.4-1.3v-.6a2 2 0 0 1-.8.6c-.3.2-.6.3-1 .3-.5 0-1-.2-1.3-.4-.4-.2-.7-.6-.9-1-.2-.4-.3-1-.3-1.6 0-.6 0-1.2.3-1.6a2 2 0 0 1 1-1c.3-.2.7-.4 1.2-.4.4 0 .7.1 1 .3.3.1.6.3.7.6v-.7h1.2v5.5c0 .6-.1 1.1-.3 1.6-.2.4-.5.7-1 1a3 3 0 0 1-1.4.3Zm0-3.7c.3 0 .6 0 .8-.2l.6-.7.2-1c0-.4 0-.8-.2-1l-.6-.7-.8-.2c-.3 0-.5 0-.8.2l-.5.7c-.2.2-.2.6-.2 1s0 .8.2 1l.5.7.8.2Z"/>
  <g clip-path="url(#a)">
    <g clip-path="url(#b)">
      <path stroke="#999" stroke-opacity=".5" stroke-width=".5" d="M33.7 295.5h374.5"/>
      <path stroke="#999" stroke-width=".5" d="M44.7 295.6v2.3m60.5-2.3v2.3m56.3-2.3v2.3m58.8-2.3v2.3m58.9-2.3v2.3m58.8-2.3v2.3m58.3-2.3v2.3"/>
      <g stroke-width="2.5">
        <path stroke="#930000" d="m408 152.7-11.8 1.4-11.7 3.2-11.8 5.1-11.7 2.3-11.8-.5-11.7 8.8-11.7-7.1-11.8 12.5-11.7 23.5-11.8-12.5-11.7-.2-11.7 5.2-11.8.9-11.7 6-11.8 3-11.7 22.8-11.8-15.8-11.7 4.2-11.7 2.4-11.8 3.3-11.7 1.9-11.8 4.9-11.7-3.1-11.7 9.9-11.8 3.4-11.7 3.5-11.8 3.4-11.7-.4"/>
        <path stroke="#5E4FA2" d="m408 168.8-11.8 8.3-11.7 3-11.8 14-11.7 9-11.8 4.4-11.7 19-11.7 9.3L314 229l-11.7 3.3-11.8 3.2-11.7 28-11.7-6.2-11.8-12-11.7 3.1-11.8 3.2-11.7 3.2-11.8 3-11.7 11-11.7-4.8-11.8 3.1-11.7 3-11.8 3.3-11.7-2-11.7 8.5-11.8 3.2-11.7 3.2-11.8 3.2-11.7-12.2"/>
        <path stroke="#FEE08B" d="m408 197-11.8 6.7h-11.7l-11.8-1.8-11.7 3.5-11.8-8.1-11.7 11.2-11.7-2.7-11.8-2.4-11.7 4.3-11.8-4.8-11.7 13-11.7-3.2-11.8-.5-11.7.2-11.8 4.2-11.7 1.3-11.8 1.2-11.7-10-11.7 12.4-11.8 1.2-11.7 1.2-11.8-2.8-11.7 6-11.7 1.4-11.8 1.4-11.7 1.4-11.8 1.5-11.7 1.4-11.8 1.4-11.7 1.5L44 250"/>
        <path stroke="#66C2A5" d="m408 213.8-11.8-1-11.7 1.2-11.8-2.6-11.7-2.2-11.8 1.6-11.7-.2-11.7-.2-11.8-.3-11.7-.4-11.8-.4-11.7-.4-11.7 44.2-11.8 4.4-11.7 4.4-11.8 8.2-11.7.4-11.8 4.3-11.7 4.2-11.7 4-11.8 4.5-11.7 4.3"/>
        <path stroke="#3288BD" d="m408 214.3-11.8-6.2-11.7 10-11.8 2.2-11.7 2.3-11.8 2.5-11.7 14.5-11.7 2.3-11.8-13.8-11.7-5.5-11.8 11.7-11.7-3.3-11.7-7.4-11.8 9.3-11.7 1-11.8-.1-11.7 1.8-11.8.8-11.7.8-11.7 1.6H173l-11.7.8-11.8-7.8-11.7 8.8-11.7.6-11.8.6-11.7.7-11.8 6.3-11.7-5-11.8 4.9"/>
      </g>
      <path fill="#8F8F8F" d="M34 310.4v-6l-1.5 1.1v-1l1.9-1.3h.5v7.2h-.8Zm4.2.1-.5-.7a6 6 0 0 0 2.1-2.1l.4-.9-.7.5a2 2 0 0 1-1 .3c-.3 0-.6 0-.9-.2l-.7-.4-.4-.7-.2-1c0-.3.1-.7.3-1 .3-.4.5-.7.9-.9.3-.2.7-.3 1.2-.3.4 0 .8 0 1 .3a2.4 2.4 0 0 1 1.2 1.4l.1 1.1a4.4 4.4 0 0 1-.5 2.2l-1 1.3-1.3 1.1Zm.5-3.7c.3 0 .5 0 .7-.2.3 0 .4-.3.6-.5l.2-.7-.2-.8c-.2-.2-.3-.4-.6-.5-.2-.2-.4-.2-.7-.2-.3 0-.6 0-.8.2-.2 0-.4.3-.5.5l-.2.8c0 .3 0 .5.2.7l.5.5c.2.2.5.2.8.2Zm5.3 3.7-.5-.7a6 6 0 0 0 2-2.1c.3-.3.4-.6.4-.9-.1.2-.4.4-.7.5-.3.2-.6.3-1 .3-.3 0-.5 0-.8-.2a2.2 2.2 0 0 1-1.1-1.1c-.2-.3-.2-.6-.2-1 0-.3 0-.7.3-1 .2-.4.5-.7.9-.9a2 2 0 0 1 1.1-.3c.4 0 .8 0 1.1.3a2.4 2.4 0 0 1 1.2 1.4l.1 1.1a4.4 4.4 0 0 1-.5 2.2l-1 1.3-1.3 1.1Zm.4-3.7c.3 0 .6 0 .8-.2.2 0 .4-.3.5-.5.2-.2.2-.4.2-.7 0-.3 0-.6-.2-.8l-.5-.5c-.2-.2-.5-.2-.8-.2-.3 0-.5 0-.7.2-.3 0-.4.3-.6.5l-.1.8.1.7c.2.2.3.4.6.5.2.2.4.2.7.2Zm6.3 3.8-1.2-.3-.9-.8-.5-1.2a5.8 5.8 0 0 1 0-3l.5-1.1c.3-.4.6-.6 1-.8a2.4 2.4 0 0 1 3.3.8l.4 1.1a5.8 5.8 0 0 1 0 3c0 .4-.3.8-.5 1.2a2.5 2.5 0 0 1-2 1Zm0-.8c.5 0 .8-.2 1.1-.4.3-.3.5-.6.6-1a4.8 4.8 0 0 0 0-3c-.1-.5-.3-.9-.6-1.1-.3-.3-.6-.4-1-.4-.5 0-.9.1-1.2.4-.2.2-.5.6-.6 1a5 5 0 0 0-.2 1.5c0 .6 0 1 .2 1.5.1.5.4.8.6 1 .3.3.7.5 1.1.5Zm48.9 1.1v-6l-1.5 1v-.9l1.8-1.3h.5v7.2h-.8Zm4.2 0-.5-.6a6 6 0 0 0 2-2.1l.4-1c-.2.3-.4.5-.7.6-.3.2-.6.2-1 .2l-.9-.1-.6-.5-.5-.7-.2-.9c0-.4.2-.8.4-1.1.2-.4.5-.6.8-.8a2 2 0 0 1 1.2-.4c.4 0 .8.1 1.1.3a2.3 2.3 0 0 1 1.1 1.5l.2 1.1a4.5 4.5 0 0 1-.6 2.1c-.2.5-.5 1-1 1.3-.3.5-.8.8-1.2 1.2Zm.4-3.6c.3 0 .5 0 .7-.2.3-.1.5-.3.6-.5l.2-.8c0-.3 0-.5-.2-.8a1 1 0 0 0-.6-.5l-.7-.2-.8.2-.5.5-.2.8c0 .3 0 .6.2.8l.5.5.8.2Zm5.3 3.7-.5-.7a6 6 0 0 0 2.1-2.1c.2-.3.3-.6.3-1-.1.3-.3.5-.6.6-.3.2-.7.2-1 .2l-.9-.1-.7-.5-.4-.7-.2-.9c0-.4.1-.8.3-1.1.2-.4.5-.6.9-.8.3-.3.7-.4 1.2-.4.4 0 .7.1 1 .3a2.3 2.3 0 0 1 1.2 1.5l.1 1.1a4.5 4.5 0 0 1-.5 2.1c-.3.5-.6 1-1 1.3l-1.3 1.2Zm.5-3.7c.2 0 .5 0 .7-.2l.5-.5c.2-.2.2-.5.2-.8 0-.3 0-.5-.2-.8 0-.2-.3-.4-.5-.5l-.7-.2-.8.2-.5.5c-.2.3-.2.5-.2.8 0 .3 0 .6.2.8 0 .2.3.4.5.5l.8.2Zm-5 19.7c-.4 0-.7 0-1-.2a2.1 2.1 0 0 1-1.2-1.8l.8-.1c0 .4.2.7.5 1 .2.2.5.3 1 .3.4 0 .8-.1 1-.4.3-.4.4-.7.4-1.2s-.1-.9-.4-1.2c-.2-.3-.6-.5-1-.5-.3 0-.5 0-.8.2l-.5.5-.8-.4.4-3.5h3.6v.8h-2.9l-.3 2.1.6-.3.8-.1a2.1 2.1 0 0 1 1.9 1.1c.2.4.3.8.3 1.3l-.3 1.2c-.2.4-.5.7-.8.9-.4.2-.8.3-1.3.3Zm41.4-16.6v-.9a101.2 101.2 0 0 0 2.5-2.2l.5-.7a2.7 2.7 0 0 0 .3-1.3l-.1-.8a1 1 0 0 0-.5-.5l-.7-.1-.6.1-.5.5-.1.7h-.9l.2-.9.4-.6.7-.5.9-.1c.4 0 .8 0 1.1.2.3.2.6.4.7.7.2.3.3.7.3 1.1a3.5 3.5 0 0 1-.5 1.9 5 5 0 0 1-1 1.2 19.7 19.7 0 0 1-1.6 1.4h3.2v.8h-4.3Zm8.2.2-1.2-.3-.9-.8-.5-1.2a5.8 5.8 0 0 1 0-3l.5-1.1c.3-.4.6-.6 1-.8a2.4 2.4 0 0 1 3.3.8l.4 1.1a5.8 5.8 0 0 1 0 3c0 .4-.3.8-.5 1.2a2.5 2.5 0 0 1-2 1Zm0-.8c.5 0 .8-.2 1.1-.4.3-.3.5-.6.6-1a4.8 4.8 0 0 0 0-3c-.1-.5-.3-.9-.6-1.1-.3-.3-.6-.4-1-.4-.5 0-.9.1-1.2.4-.2.2-.5.6-.6 1a5 5 0 0 0-.2 1.5c0 .6 0 1 .2 1.5.1.5.4.8.6 1 .3.3.7.5 1.1.5Zm6.8.8-1.2-.3-.9-.8-.5-1.2a5.8 5.8 0 0 1 0-3l.5-1.1c.3-.4.6-.6 1-.8a2.4 2.4 0 0 1 3.3.8l.4 1.1a5.8 5.8 0 0 1 0 3c0 .4-.3.8-.5 1.2a2.5 2.5 0 0 1-2 1Zm0-.8c.5 0 .8-.2 1.1-.4.3-.3.5-.6.6-1a4.8 4.8 0 0 0 0-3c-.1-.5-.3-.9-.6-1.1-.3-.3-.6-.4-1-.4-.5 0-.9.1-1.2.4-.2.2-.5.6-.6 1a5 5 0 0 0-.2 1.5c0 .6 0 1 .2 1.5.1.5.4.8.6 1 .3.3.7.5 1.1.5Zm6.8.8-1.2-.3-.9-.8-.5-1.2a5.8 5.8 0 0 1 0-3l.5-1.1c.3-.4.6-.6 1-.8a2.4 2.4 0 0 1 3.3.8l.4 1.1a5.8 5.8 0 0 1 0 3c0 .4-.3.8-.5 1.2a2.5 2.5 0 0 1-2 1Zm0-.8c.5 0 .8-.2 1.1-.4.3-.3.5-.6.6-1a4.8 4.8 0 0 0 0-3c-.1-.5-.3-.9-.6-1.1-.3-.3-.6-.4-1-.4-.5 0-.9.1-1.2.4-.2.2-.5.6-.6 1a5 5 0 0 0-.2 1.5c0 .6 0 1 .2 1.5.1.5.4.8.6 1 .3.3.7.5 1.1.5Zm36.1.6v-.9a147 147 0 0 0 2.5-2.2l.5-.7a2.7 2.7 0 0 0 .3-1.3l-.1-.8a1 1 0 0 0-.4-.5l-.8-.1-.6.1-.4.5c-.2.2-.2.4-.2.7h-.9l.2-.9.4-.6.7-.5.9-.1c.4 0 .8 0 1.1.2.3.2.6.4.7.7.2.3.3.7.3 1.1a3.5 3.5 0 0 1-.5 1.9 5 5 0 0 1-1 1.2 23.1 23.1 0 0 1-1.6 1.4h3.2v.8h-4.3Zm8.2.2-1.2-.3-.9-.8-.5-1.2a5.8 5.8 0 0 1 0-3l.5-1.1c.3-.4.6-.6 1-.8a2.4 2.4 0 0 1 3.3.8l.4 1.1a5.8 5.8 0 0 1 0 3c0 .4-.3.8-.5 1.2a2.5 2.5 0 0 1-2 1Zm0-.8c.5 0 .8-.2 1.1-.4.3-.3.5-.6.6-1a4.8 4.8 0 0 0 0-3c-.1-.5-.3-.9-.6-1.1-.3-.3-.6-.4-1-.4-.5 0-.9.1-1.2.4-.2.2-.5.6-.6 1a5 5 0 0 0-.2 1.5c0 .6 0 1 .2 1.5.1.5.4.8.6 1 .3.3.7.5 1.1.5Zm6.8.8-1.2-.3-.9-.8-.5-1.2a5.8 5.8 0 0 1 0-3l.5-1.1c.3-.4.6-.6 1-.8a2.4 2.4 0 0 1 3.3.8l.4 1.1a5.8 5.8 0 0 1 0 3c0 .4-.3.8-.5 1.2a2.5 2.5 0 0 1-2 1Zm0-.8c.5 0 .8-.2 1.1-.4.3-.3.5-.6.6-1a4.8 4.8 0 0 0 0-3c-.1-.5-.3-.9-.6-1.1-.3-.3-.6-.4-1-.4-.5 0-.9.1-1.2.4-.2.2-.5.6-.6 1a5 5 0 0 0-.2 1.5c0 .6 0 1 .2 1.5.1.5.4.8.6 1 .3.3.7.5 1.1.5Zm6.2.8c-.4 0-.7-.1-1-.3a2.1 2.1 0 0 1-1.2-1.8h.8c0 .3.2.6.4.9.3.2.6.4 1 .4.5 0 .8-.2 1.1-.5.3-.3.4-.7.4-1.2s-.1-.9-.4-1.2c-.3-.3-.6-.4-1-.4l-.8.1-.5.5-.8-.3.4-3.6h3.6v.8h-3l-.2 2.2a2 2 0 0 1 1.4-.5 2.1 2.1 0 0 1 1.9 1.1c.2.4.3.8.3 1.3s-.1.9-.3 1.2c-.2.4-.5.7-.9 1-.3.1-.7.3-1.2.3Zm40.1-.2v-.9a101.2 101.2 0 0 0 2.5-2.2l.4-.7a2.7 2.7 0 0 0 .4-1.3c0-.3 0-.6-.2-.8a1 1 0 0 0-.4-.5l-.7-.1-.6.1-.5.5-.2.7h-.8c0-.4 0-.6.2-.9 0-.2.2-.4.4-.6l.6-.5 1-.1c.4 0 .8 0 1 .2.4.2.6.4.8.7.2.3.3.7.3 1.1a3.5 3.5 0 0 1-.5 1.9 5 5 0 0 1-1 1.2 19.7 19.7 0 0 1-1.6 1.4h3.1v.8h-4.2Zm8.2.2c-.5 0-.9-.1-1.2-.3-.4-.2-.7-.5-.9-.8l-.5-1.2a5.8 5.8 0 0 1 0-3c0-.4.3-.8.5-1.1.2-.4.5-.6.9-.8.3-.2.7-.3 1.2-.3a2.4 2.4 0 0 1 2 1l.6 1.2a5.8 5.8 0 0 1 0 3l-.5 1.2-1 .8a2 2 0 0 1-1.1.3Zm0-.8c.4 0 .8-.2 1-.4.4-.3.6-.6.7-1 .2-.5.2-1 .2-1.6 0-.6 0-1-.2-1.5-.1-.4-.3-.8-.6-1-.3-.3-.7-.4-1.1-.4-.4 0-.8.1-1 .4-.4.2-.6.6-.7 1a5 5 0 0 0-.3 1.5c0 .6.1 1 .3 1.5.1.5.3.8.6 1 .3.3.7.5 1 .5Zm5.4.6v-6l-1.6 1.1v-1l1.9-1.3h.5v7.2h-.8Zm5.1.2c-.5 0-.9-.1-1.2-.3-.4-.2-.7-.5-.9-.8l-.5-1.2a5.8 5.8 0 0 1 0-3l.5-1.1c.2-.4.5-.6.9-.8.3-.2.7-.3 1.2-.3a2.4 2.4 0 0 1 2 1l.6 1.2a5.8 5.8 0 0 1 0 3l-.5 1.2c-.3.3-.5.6-.9.8-.3.2-.7.3-1.2.3Zm0-.8c.4 0 .8-.2 1-.4.4-.3.6-.6.7-1 .2-.5.2-1 .2-1.6 0-.6 0-1-.2-1.5-.1-.4-.3-.8-.6-1-.3-.3-.7-.4-1.1-.4-.4 0-.8.1-1 .4-.4.2-.6.6-.7 1a5 5 0 0 0-.2 1.5c0 .6 0 1 .2 1.5.1.5.3.8.6 1 .3.3.7.5 1.1.5Zm40.1.6v-.9a268.6 268.6 0 0 0 2.5-2.2l.5-.7a2.8 2.8 0 0 0 .3-1.3l-.1-.8a1 1 0 0 0-.5-.5l-.7-.1-.6.1-.5.5-.1.7h-.9l.2-.9.4-.6.7-.5.9-.1c.4 0 .8 0 1.1.2.3.2.6.4.7.7.2.3.3.7.3 1.1a3.5 3.5 0 0 1-.5 1.9 5 5 0 0 1-1 1.2 23.1 23.1 0 0 1-1.6 1.4h3.2v.8h-4.3Zm8.2.2-1.2-.3-.9-.8-.5-1.2a5.8 5.8 0 0 1 0-3l.5-1.1c.3-.4.6-.6 1-.8a2.4 2.4 0 0 1 3.3.8l.4 1.1a5.8 5.8 0 0 1 0 3c0 .4-.3.8-.5 1.2a2.5 2.5 0 0 1-2 1Zm0-.8c.5 0 .8-.2 1.1-.4.3-.3.5-.6.6-1a4.8 4.8 0 0 0 0-3c-.1-.5-.3-.9-.6-1.1-.3-.3-.6-.4-1-.4-.5 0-.9.1-1.2.4-.2.2-.5.6-.6 1a5 5 0 0 0-.2 1.5c0 .6 0 1 .2 1.5.1.5.4.8.6 1 .3.3.7.5 1.1.5Zm5.4.6v-6l-1.5 1.1v-1l1.8-1.3h.5v7.2h-.8Zm4.6.2c-.4 0-.7-.1-1-.3a2.1 2.1 0 0 1-1.2-1.8h.8c0 .3.2.6.5.9.2.2.5.4 1 .4.4 0 .8-.2 1-.5.3-.3.4-.7.4-1.2s-.1-.9-.4-1.2c-.2-.3-.6-.4-1-.4l-.8.1-.5.5-.8-.3.4-3.6h3.6v.8h-3l-.2 2.2.6-.3.8-.2a2.1 2.1 0 0 1 1.9 1.1c.2.4.3.8.3 1.3s-.1.9-.3 1.2l-.8 1c-.4.1-.8.3-1.3.3Zm39.3-.2v-.9a268.6 268.6 0 0 0 2.5-2.2l.5-.7a2.8 2.8 0 0 0 .3-1.3l-.1-.8a1 1 0 0 0-.4-.5l-.7-.1-.7.1-.4.5c-.2.2-.2.4-.2.7h-.9l.2-.9.4-.6.7-.5.9-.1c.4 0 .8 0 1.1.2.3.2.6.4.7.7.2.3.3.7.3 1.1a3.5 3.5 0 0 1-.5 1.9 5 5 0 0 1-1 1.2 23.1 23.1 0 0 1-1.6 1.4h3.2v.8h-4.3Zm8.2.2-1.2-.3-.9-.8-.5-1.2a5.8 5.8 0 0 1 0-3l.5-1.1c.3-.4.6-.6 1-.8a2.4 2.4 0 0 1 3.3.8l.4 1.1a5.8 5.8 0 0 1 0 3c0 .4-.3.8-.5 1.2a2.5 2.5 0 0 1-2 1Zm0-.8c.5 0 .8-.2 1.1-.4.3-.3.5-.6.6-1a4.8 4.8 0 0 0 0-3c-.1-.5-.3-.9-.6-1.1-.3-.3-.6-.4-1-.4-.5 0-.9.1-1.2.4-.2.2-.5.6-.6 1a5 5 0 0 0-.2 1.5c0 .6 0 1 .2 1.5.1.5.4.8.6 1 .3.3.7.5 1.1.5Zm3.9.6v-.9a147 147 0 0 0 2.5-2.2l.5-.7a2.7 2.7 0 0 0 .3-1.3l-.1-.8a1 1 0 0 0-.4-.5l-.7-.1-.7.1-.4.5c-.2.2-.2.4-.2.7h-.9l.2-.9.4-.6.7-.5.9-.1c.4 0 .8 0 1.1.2.3.2.6.4.7.7.2.3.3.7.3 1.1a3.5 3.5 0 0 1-.5 1.9 5 5 0 0 1-1 1.2 23.1 23.1 0 0 1-1.6 1.4h3.2v.8H394Zm8.2.2-1.2-.3-.9-.8-.5-1.2a5.8 5.8 0 0 1 0-3l.5-1.1c.3-.4.6-.6 1-.8a2.4 2.4 0 0 1 3.3.8l.4 1.1a5.8 5.8 0 0 1 0 3c0 .4-.3.8-.5 1.2a2.5 2.5 0 0 1-2 1Zm0-.8c.5 0 .8-.2 1.1-.4.3-.3.5-.6.6-1a4.8 4.8 0 0 0 0-3c0-.5-.3-.9-.6-1.1-.3-.3-.6-.4-1-.4-.5 0-.9.1-1.2.4-.2.2-.5.6-.6 1a5 5 0 0 0-.2 1.5c0 .6 0 1 .2 1.5.1.5.4.8.6 1 .3.3.7.5 1.1.5ZM34.5 266v-1a67 67 0 0 0 2.5-2.2l.4-.7a2.7 2.7 0 0 0 .4-1.3l-.1-.8a1 1 0 0 0-.5-.4c-.2-.2-.4-.2-.7-.2-.2 0-.4 0-.6.2-.2 0-.4.2-.5.4l-.2.7h-.8c0-.4 0-.6.2-.8 0-.3.2-.5.4-.7l.6-.4c.3-.2.6-.2 1-.2s.8 0 1 .2c.4.2.6.4.8.7.2.3.3.7.3 1.2a3.5 3.5 0 0 1-.5 1.8 5 5 0 0 1-1 1.2 18.6 18.6 0 0 1-1.6 1.4h3.1v.8h-4.2Zm8.2 0c-.4 0-.9 0-1.2-.2-.4-.2-.6-.5-.9-.8l-.5-1.2a5.8 5.8 0 0 1 0-3l.5-1.1a2.5 2.5 0 0 1 2-1 2.4 2.4 0 0 1 2.2 1l.5 1.2a5.8 5.8 0 0 1 0 3c0 .4-.3.8-.5 1.1a2.5 2.5 0 0 1-2 1Zm0-.7c.4 0 .8-.2 1-.4.4-.3.6-.6.7-1 .2-.5.2-1 .2-1.6 0-.5 0-1-.2-1.5-.1-.4-.3-.8-.6-1-.3-.3-.7-.4-1-.4-.5 0-.9.1-1.2.4-.3.2-.5.6-.6 1a5 5 0 0 0-.2 1.5c0 .6 0 1.1.2 1.5.1.5.3.8.6 1 .3.3.7.5 1.1.5ZM34 231.5v-.7l3-5h.9v4.9h.8v.8H38v1.5h-1v-1.5h-3Zm3-.8v-3.4l-2 3.4h2Zm5.7 2.5c-.4 0-.9 0-1.2-.3-.4-.2-.6-.4-.9-.8l-.5-1.2a5.8 5.8 0 0 1 0-3l.5-1c.3-.4.5-.7.9-.9.3-.2.8-.3 1.2-.3a2.4 2.4 0 0 1 2 1.1c.3.3.5.7.6 1.2a5.8 5.8 0 0 1 0 3c0 .4-.3.8-.5 1.1-.2.4-.5.6-.9.8-.3.2-.7.3-1.2.3Zm0-.8c.4 0 .8-.1 1-.4.4-.2.6-.6.7-1 .2-.5.2-1 .2-1.5 0-.6 0-1.1-.2-1.5-.1-.5-.3-.8-.6-1-.3-.3-.7-.5-1-.5-.5 0-.9.2-1.2.4a2 2 0 0 0-.6 1 5 5 0 0 0-.2 1.6c0 .5 0 1 .2 1.5.1.4.3.8.6 1 .3.3.7.4 1.1.4Zm-6.3-32.1c-.4 0-.8 0-1-.2a2.2 2.2 0 0 1-1.2-1.5 4.9 4.9 0 0 1 1-4.2 7.3 7.3 0 0 1 1.7-1.5l.5.7-.8.5a6.3 6.3 0 0 0-1.3 1.6c-.2.3-.3.6-.3 1 .1-.3.3-.5.6-.6a2 2 0 0 1 1-.3 2.1 2.1 0 0 1 2 1.4 2.2 2.2 0 0 1-.1 2c-.2.3-.5.6-.9.8-.3.2-.7.3-1.2.3Zm0-.8c.3 0 .6 0 .8-.2.2 0 .4-.2.5-.5.2-.2.2-.4.2-.7 0-.3 0-.6-.2-.8l-.5-.5-.8-.2c-.2 0-.5 0-.7.2-.2 0-.4.3-.5.5-.2.2-.2.5-.2.8 0 .3 0 .5.2.7 0 .3.3.4.5.5.2.2.5.2.7.2Zm6.3.8c-.4 0-.9 0-1.2-.2-.4-.2-.6-.5-.9-.8l-.5-1.2a5.8 5.8 0 0 1 0-3l.5-1.2c.3-.3.5-.6.9-.8l1.2-.2a2.4 2.4 0 0 1 2 1l.6 1.2a5.8 5.8 0 0 1 0 3c0 .4-.3.8-.5 1.2a2.5 2.5 0 0 1-2 1Zm0-.8c.4 0 .8 0 1-.3.4-.3.6-.7.7-1 .2-.5.2-1 .2-1.6 0-.6 0-1-.2-1.5-.1-.5-.3-.8-.6-1-.3-.3-.7-.4-1-.4-.5 0-.9 0-1.2.3a2 2 0 0 0-.6 1 5 5 0 0 0-.2 1.6c0 .6 0 1 .2 1.5.1.4.3.8.6 1 .3.3.7.4 1.1.4Zm-6.2-32.7c-.5 0-.9-.1-1.2-.3a2 2 0 0 1-.8-.8 2.3 2.3 0 0 1-.1-1.8l.4-.6.6-.4a2 2 0 0 1-.7-.7l-.2-1c0-.3 0-.6.2-1 .2-.2.4-.5.7-.6.4-.2.7-.3 1.1-.3.4 0 .8 0 1 .3.4.1.6.4.8.7a2 2 0 0 1 .1 1.6c0 .2-.2.4-.3.5l-.5.4c.4.2.6.5.9.8.2.3.3.7.3 1 0 .5-.1.8-.3 1.1-.1.4-.4.6-.7.8-.4.2-.8.3-1.3.3Zm0-.8c.3 0 .5 0 .7-.2.3 0 .4-.2.5-.4.2-.2.2-.5.2-.8 0-.3 0-.5-.2-.7 0-.2-.2-.4-.5-.5l-.7-.1-.7.1-.5.5-.2.7c0 .3 0 .6.2.8l.5.4.7.2Zm0-3.5c.3 0 .5 0 .6-.2.2 0 .4-.2.5-.4l.1-.6c0-.4 0-.7-.3-.9-.2-.2-.5-.3-.9-.3l-.9.3c-.2.2-.3.5-.3.9 0 .2 0 .4.2.6 0 .2.2.3.4.4l.6.2Zm6.2 4.3c-.4 0-.9-.1-1.2-.3-.4-.2-.6-.5-.9-.8l-.5-1.2a5.8 5.8 0 0 1 0-3l.5-1.1a2.5 2.5 0 0 1 2-1c.6 0 1 0 1.3.2.4.2.7.4.9.8l.5 1.2a5.8 5.8 0 0 1 0 3c0 .4-.3.8-.5 1.1a2.5 2.5 0 0 1-2 1Zm0-.8c.4 0 .8-.1 1-.4.4-.3.6-.6.7-1 .2-.5.2-1 .2-1.6 0-.5 0-1-.2-1.5-.1-.4-.3-.8-.6-1-.3-.3-.7-.4-1-.4-.5 0-.9.1-1.2.4-.3.2-.5.6-.6 1a5 5 0 0 0-.2 1.5c0 .6 0 1.1.2 1.6.1.4.3.7.6 1 .3.3.7.4 1.1.4Zm-11.9-32.2v-6l-1.6 1v-.9l1.9-1.3h.5v7.2h-.8Zm5.1.1c-.4 0-.9 0-1.2-.3-.4-.2-.6-.4-.9-.8l-.5-1.1a5.8 5.8 0 0 1 0-3l.5-1.2.9-.8c.3-.2.8-.3 1.2-.3.5 0 .9.1 1.2.3.4.2.7.5.9.8l.5 1.2a5.8 5.8 0 0 1 0 3c0 .4-.3.8-.5 1.1-.2.4-.5.6-.9.8-.3.2-.7.3-1.2.3Zm0-.8c.4 0 .8-.1 1-.4.4-.2.6-.6.7-1 .2-.5.2-1 .2-1.5 0-.6 0-1-.2-1.5-.1-.5-.3-.8-.6-1-.3-.3-.7-.5-1-.5-.5 0-.9.2-1.2.4a2 2 0 0 0-.6 1 5 5 0 0 0-.2 1.6c0 .5 0 1 .2 1.5.1.4.3.8.6 1 .3.3.7.4 1.1.4Zm6.8.8c-.4 0-.9 0-1.2-.3-.4-.2-.6-.4-.9-.8l-.5-1.1a5.8 5.8 0 0 1 0-3l.5-1.2c.3-.3.5-.6.9-.8.3-.2.8-.3 1.2-.3.5 0 .9.1 1.2.3.4.2.7.5.9.8l.5 1.2a5.8 5.8 0 0 1 0 3c0 .4-.3.8-.5 1.1-.2.4-.5.6-.9.8-.3.2-.7.3-1.2.3Zm0-.8c.4 0 .8-.1 1-.4.4-.2.6-.6.7-1 .2-.5.2-1 .2-1.5 0-.6 0-1-.2-1.5-.1-.5-.3-.8-.6-1-.3-.3-.7-.5-1-.5-.5 0-.9.2-1.2.4a2 2 0 0 0-.6 1 5 5 0 0 0-.2 1.6c0 .5 0 1 .2 1.5.1.4.3.8.6 1 .3.3.7.4 1.1.4Z"/>
      <path stroke="#999" stroke-dasharray="2 2" stroke-opacity=".3" stroke-width=".5" d="M408 262.4H49.4m358.6-33H49.4M408 196.3H49.4m358.6-33H49.4M408 130.2H49.4"/>
    </g>
  </g>
  <defs>
    <clipPath id="a">
      <path fill="#fff" d="M21 121h388.2v198H21z"/>
    </clipPath>
    <clipPath id="b">
      <path fill="#fff" d="M21 121.8h388.2V319H21z"/>
    </clipPath>
  </defs>
</svg>
