<svg xmlns="http://www.w3.org/2000/svg" width="829" height="363" fill="none" viewBox="0 0 829 363">
  <rect width="363" height="311" x=".5" y=".5" fill="#fff" rx="31.5"/>
  <path fill="#0B57D0" d="m32.7 86-4.3-2.3a2870.4 2870.4 0 0 1 18.2-33h-20V46h25v5L47 59.7l-4.7 8.8a2147.1 2147.1 0 0 1-9.5 17.4Zm22-.7c-1 0-2-.3-2.7-1a3.7 3.7 0 0 1 0-5.1 3.7 3.7 0 0 1 5.2-.1c.7.8 1.1 1.6 1.1 2.6a3.6 3.6 0 0 1-3.6 3.6Zm25.1.6a13.3 13.3 0 0 1-11.3-6c-1.4-1.8-2.4-4-3.2-6.4A28.3 28.3 0 0 1 68.5 51c1.3-1.8 3-3.3 4.9-4.3 1.9-1 4-1.6 6.4-1.6 2.4 0 4.6.5 6.5 1.6 1.9 1 3.5 2.5 5 4.3 1.3 1.9 2.3 4 3 6.5a28.3 28.3 0 0 1-3 22.5 18.9 18.9 0 0 1-5 4.4c-2 1-4 1.5-6.5 1.5Zm0-4.6c2.2 0 4.1-.7 5.7-2.1 1.6-1.4 2.8-3.3 3.7-5.7a24.8 24.8 0 0 0 0-16c-.9-2.4-2-4.3-3.7-5.7a8.3 8.3 0 0 0-5.7-2c-2.2 0-4 .6-5.7 2a13.5 13.5 0 0 0-3.6 5.7c-.9 2.4-1.3 5-1.3 8s.4 5.6 1.3 8a14 14 0 0 0 3.6 5.7 8.3 8.3 0 0 0 5.7 2Zm23 3.7V44.2h14.6a11.9 11.9 0 0 1 10 5.3 10 10 0 0 1 1.7 5.7 9 9 0 0 1-1.5 5.2 9.7 9.7 0 0 1-4 3.4v.2a10 10 0 0 1 6.9 9.4c0 2.3-.6 4.3-1.7 6a12.7 12.7 0 0 1-10.5 5.5h-15.5Zm4.8-18.6v14h10.9a6.8 6.8 0 0 0 6.2-3.7c.6-1.1.9-2.2.9-3.3 0-1.2-.3-2.3-1-3.3-.5-1.1-1.4-2-2.5-2.7a7 7 0 0 0-3.8-1h-10.7Zm0-4.6h9.8c1.5 0 2.7-.3 3.7-1a7 7 0 0 0 3.2-5.5 6.7 6.7 0 0 0-6.7-6.5h-10v13Zm-82.7 52.9h2.8V110h2.8v4.6h4v2.4h-4v9c0 .8.1 1.5.5 2 .3.4 1 .6 1.7.6l1-.1.8-.4v2.6a5.3 5.3 0 0 1-2.2.4c-1.4 0-2.5-.3-3.3-1.1-.8-.8-1.3-2-1.3-3.4V117H25v-2.4ZM49 131.5a12 12 0 0 1-8.5-3.4 11.8 11.8 0 0 1-3.4-8.6c0-1.7.3-3.2 1-4.7a11.4 11.4 0 0 1 6.2-6.3 11.9 11.9 0 0 1 10.8.8c.8.6 1.6 1.2 2.3 2l-2 2a8.8 8.8 0 0 0-1.8-1.8c-.7-.5-1.4-.8-2.1-1a9.2 9.2 0 0 0-7 .8 8.7 8.7 0 0 0-3.4 3.3c-.8 1.4-1.2 3-1.2 5a8.7 8.7 0 0 0 4.6 8.2 9.2 9.2 0 0 0 11.6-2.3l2 2a12 12 0 0 1-9 4.1Zm23 0a11.6 11.6 0 0 1-11.7-12 12.3 12.3 0 0 1 3.4-8.4 11.5 11.5 0 0 1 8.4-3.5 11.6 11.6 0 0 1 8.4 3.5c1 1 1.9 2.4 2.4 3.8a12.2 12.2 0 0 1-2.5 13.1 11.3 11.3 0 0 1-8.3 3.5Zm0-2.6a8.7 8.7 0 0 0 7.9-4.5c.8-1.4 1.2-3 1.2-4.9 0-1.8-.4-3.4-1.2-4.9a8.8 8.8 0 0 0-7.8-4.4 8.9 8.9 0 0 0-7.8 4.4 10 10 0 0 0-1.2 5c0 1.8.4 3.4 1.2 4.8a8.8 8.8 0 0 0 7.8 4.5Zm14.7 2.1v-2.7l.8-.8 1.7-1.7a180.7 180.7 0 0 1 5.6-5.7l1.6-1.9c.4-.5.7-1 .8-1.5a5 5 0 0 0 .3-1.8 4 4 0 0 0-.4-1.8c-.4-.5-.8-1-1.5-1.4-.5-.3-1.3-.5-2.2-.5-.9 0-1.6.2-2.2.5a4 4 0 0 0-1.3 1.3c-.4.5-.6 1-.7 1.4l-2.4-1c0-.4.3-1 .6-1.5a7.4 7.4 0 0 1 3.3-2.8c.8-.3 1.7-.5 2.7-.5a7 7 0 0 1 3.7.9c1 .6 1.8 1.3 2.3 2.3.6 1 .9 2 .9 3s-.2 2-.6 2.8a11 11 0 0 1-1.3 2.4c-.5.7-1 1.3-1.6 1.8l-1.2 1.2a120.6 120.6 0 0 0-3.2 3.2l-1.4 1.4-.8.8h10.3v2.6H86.7Zm24.7.5a8 8 0 0 1-4.2-1.1 8 8 0 0 1-2.9-3c-.7-1.4-1-2.9-1-4.5s.3-3 1-4.3a8.1 8.1 0 0 1 2.7-3.2 7.3 7.3 0 0 1 4.2-1.2c1.6 0 3 .3 4.1 1a7 7 0 0 1 2.7 3 9.4 9.4 0 0 1 1 5.2h-13c0 1.1.3 2.1.8 3a5.2 5.2 0 0 0 4.7 2.6c1.2 0 2.2-.2 3-.8.7-.6 1.4-1.3 1.8-2.1l2.3 1.1a7.8 7.8 0 0 1-7.2 4.3Zm-5.2-10.4h10l-.4-1.4a4 4 0 0 0-.9-1.5 4 4 0 0 0-1.5-1.1 5 5 0 0 0-2.2-.5 5 5 0 0 0-4.5 3c-.3.5-.4 1-.5 1.5Z"/>
  <path fill="#5E5E5E" d="M35.6 176.4a10.5 10.5 0 0 1-7.3-3 10.5 10.5 0 0 1-3-7.4 10.5 10.5 0 0 1 6.3-9.7 11 11 0 0 1 8.2 0c1.3.5 2.4 1.2 3.2 2.2l-1.7 1.7c-.4-.5-1-1-1.5-1.3a7.7 7.7 0 0 0-4.1-1.1A8 8 0 0 0 30 160a8.6 8.6 0 0 0-2.4 6 8.3 8.3 0 0 0 2.4 6c.9.7 1.7 1.2 2.7 1.6a8 8 0 0 0 5.6.2 6.4 6.4 0 0 0 4-3.2c.4-.9.7-1.9.8-3h-7.4v-2.3h9.6a10.2 10.2 0 0 1 .2 1.5 11 11 0 0 1-.8 4 9 9 0 0 1-5.1 5c-1.2.4-2.5.6-4 .6Zm11.7-.4v-14.3h2.3v2.3l1-1.4a5 5 0 0 1 5-1v2.6a4.7 4.7 0 0 0-2-.4c-.8 0-1.4.1-2 .5a4.4 4.4 0 0 0-2 3.7v8h-2.3Zm16 .4a7 7 0 0 1-3.7-1 7 7 0 0 1-2.5-2.6 8.3 8.3 0 0 1-.9-4c0-1.3.3-2.5.8-3.7.6-1.1 1.4-2 2.5-2.8 1-.7 2.2-1 3.6-1s2.7.3 3.7 1a6 6 0 0 1 2.3 2.5 8.2 8.2 0 0 1 .8 4.5H58.6c0 1 .3 1.9.7 2.6a4.6 4.6 0 0 0 4.1 2.4c1 0 2-.3 2.6-.7.7-.5 1.2-1.2 1.6-1.9l2 1a6.8 6.8 0 0 1-6.3 3.8Zm-4.6-9h8.7c0-.4 0-.9-.2-1.3-.2-.5-.4-1-.8-1.3-.3-.4-.8-.7-1.3-1-.5-.2-1.2-.4-2-.4-1 0-1.7.3-2.4.8-.7.4-1.2 1-1.6 1.9l-.4 1.2Zm20.5 9a7 7 0 0 1-3.7-1 7 7 0 0 1-2.5-2.6 8.3 8.3 0 0 1-.9-4 8 8 0 0 1 3.3-6.5 6 6 0 0 1 3.6-1c1.5 0 2.7.3 3.7 1a6 6 0 0 1 2.3 2.5 8.2 8.2 0 0 1 .8 4.5H74.5c0 1 .3 1.9.7 2.6a4.6 4.6 0 0 0 4.1 2.4c1 0 2-.3 2.6-.7.7-.5 1.2-1.2 1.6-1.9l2 1c-.5 1-1.3 2-2.3 2.7a7 7 0 0 1-4 1Zm-4.6-9h8.7c0-.4 0-.9-.2-1.3-.2-.5-.4-1-.8-1.3-.3-.4-.8-.7-1.3-1-.5-.2-1.2-.4-2-.4a4.4 4.4 0 0 0-4 2.7l-.4 1.2Zm14 8.6v-14.3H91v2.1h.1c.4-.7 1-1.3 1.9-1.8a5 5 0 0 1 2.8-.7c1.7 0 3 .5 3.9 1.5.9 1 1.3 2.4 1.3 4v9.2h-2.3v-8.8c0-1.4-.4-2.3-1-2.9-.7-.6-1.5-.9-2.6-.9-.8 0-1.5.3-2 .7-.7.4-1.1 1-1.5 1.7a5 5 0 0 0-.5 2.2v8h-2.3Zm15.8 0v-20h2.3v7.9c.4-.8 1-1.4 1.8-1.9 1-.5 1.9-.7 2.9-.7 1.2 0 2.2.2 3 .7.8.5 1.3 1.1 1.7 2 .4.8.6 1.8.6 2.8v9.2h-2.4v-8.8c0-1-.1-1.6-.5-2.2-.3-.5-.7-1-1.2-1.2a3.8 3.8 0 0 0-3.9.3c-.6.4-1 1-1.4 1.7-.4.7-.6 1.5-.6 2.2v8h-2.4Zm22.3.4a7.2 7.2 0 0 1-6.4-3.7 8 8 0 0 1-.9-3.8 8 8 0 0 1 1-3.9c.6-1.1 1.4-2 2.5-2.7a7 7 0 0 1 3.8-1 7 7 0 0 1 6.4 3.8c.7 1 1 2.4 1 3.8a8 8 0 0 1-1 3.8 7 7 0 0 1-6.4 3.7Zm0-2.1a4 4 0 0 0 2.4-.7c.8-.4 1.4-1 1.9-1.8s.7-1.8.7-3c0-1-.2-2-.7-2.9a4.8 4.8 0 0 0-4.3-2.5 5 5 0 0 0-4.2 2.5c-.5.9-.7 1.8-.7 3 0 1.1.2 2 .7 2.9a4.9 4.9 0 0 0 4.2 2.5Zm15.2 2.1c-1.8 0-3.1-.5-4-1.5-.9-1-1.3-2.4-1.3-4.2v-9h2.4v8.6c0 1.5.3 2.5 1 3.1.6.6 1.4.9 2.4.9.8 0 1.5-.2 2.2-.7a4.9 4.9 0 0 0 2-3.9v-8h2.3V176h-2.3v-2h-.1c-.2.4-.6.8-1 1.2a7 7 0 0 1-1.7.9 5 5 0 0 1-2 .3Zm15.3 0a6.1 6.1 0 0 1-4.8-1.9c-.5-.6-1-1.2-1.2-1.9l2.1-1c.4 1 1 1.6 1.7 2a4 4 0 0 0 2.4.7c.9 0 1.6-.1 2.2-.5.6-.3.9-.9.9-1.6 0-.4-.1-.7-.4-1-.2-.3-.6-.6-1-.8-.5-.2-1-.4-1.7-.5l-1.8-.5c-.7-.2-1.3-.4-1.9-.8-.6-.3-1-.7-1.4-1.3a3 3 0 0 1-.6-2c0-.8.3-1.5.8-2.1.5-.6 1.1-1.1 2-1.4.8-.4 1.7-.5 2.6-.5a7 7 0 0 1 2.3.3c.7.3 1.4.6 1.9 1 .5.5 1 1 1.2 1.8l-2 .9a3 3 0 0 0-1.5-1.5 4.6 4.6 0 0 0-4 .1c-.6.4-.9.8-.9 1.4 0 .6.3 1 .7 1.4l1.8.7 2 .5a8 8 0 0 1 3.2 1.6 3.6 3.6 0 0 1 .3 4.9c-.5.7-1.1 1.2-2 1.5-.9.4-1.8.5-2.9.5Zm14.8 0a7 7 0 0 1-3.7-1 7 7 0 0 1-2.5-2.6 8.3 8.3 0 0 1-1-4c0-1.3.4-2.5 1-3.7.5-1.1 1.3-2 2.3-2.8 1-.7 2.3-1 3.7-1a6 6 0 0 1 3.6 1 6 6 0 0 1 2.4 2.5 8.2 8.2 0 0 1 .8 4.5h-11.3c0 1 .2 1.9.7 2.6a4.6 4.6 0 0 0 4 2.4c1.1 0 2-.3 2.6-.7.7-.5 1.3-1.2 1.7-1.9l2 1c-.5 1-1.4 2-2.4 2.7-1 .7-2.3 1-4 1Zm-4.6-9h8.7a3 3 0 0 0-.3-1.3c-.1-.5-.4-1-.7-1.3a4.4 4.4 0 0 0-3.3-1.4c-1 0-1.8.3-2.4.8-.7.4-1.2 1-1.6 1.9l-.4 1.2Zm26.8 15.1a8 8 0 0 1-3.2-.6 8 8 0 0 1-2-1.5 6 6 0 0 1-1.2-2l2.2-.8a4.3 4.3 0 0 0 4.2 2.7c1.5 0 2.6-.4 3.4-1.3a5 5 0 0 0 1.2-3.6v-1.6a5.5 5.5 0 0 1-5 2.5c-1.2 0-2.3-.3-3.3-1-1-.6-1.8-1.5-2.4-2.6a8.3 8.3 0 0 1-1-4 8 8 0 0 1 1-3.8 6.3 6.3 0 0 1 5.8-3.6 5.8 5.8 0 0 1 4.8 2.5h.1v-2h2.3v13.6a7 7 0 0 1-1 4c-.5 1-1.3 1.8-2.4 2.3-1 .5-2.2.8-3.5.8Zm0-8.4c.8 0 1.6-.2 2.3-.6.7-.4 1.3-1 1.7-1.8a6 6 0 0 0 .6-3 6 6 0 0 0-.6-2.8c-.4-.8-1-1.4-1.7-1.9a4.6 4.6 0 0 0-6.3 1.9 6 6 0 0 0-.7 2.9c0 1.1.2 2 .7 2.9a4.4 4.4 0 0 0 4 2.4Zm14.8 2.3c-1 0-2-.2-2.8-.6a6 6 0 0 1-1.9-1.6c-.4-.8-.6-1.6-.6-2.5 0-1 .2-2 .8-2.6.5-.8 1.3-1.3 2.2-1.7.9-.3 1.9-.5 3-.5a8.7 8.7 0 0 1 3.2.5l.9.4v-.9c0-1-.4-2-1.2-2.5-.7-.7-1.7-1-2.8-1-.8 0-1.5.2-2.2.5a4 4 0 0 0-1.6 1.5l-1.8-1.4 1.4-1.4c.6-.5 1.2-.8 2-1 .7-.2 1.4-.3 2.2-.3 2 0 3.5.5 4.6 1.5 1.1 1 1.6 2.4 1.6 4.2v9h-2.2v-2h-.1a5 5 0 0 1-2.7 2c-.6.3-1.2.4-2 .4Zm.3-2c.8 0 1.5-.3 2.2-.7.7-.4 1.3-1 1.7-1.6.4-.7.6-1.5.6-2.3l-1.6-.7-2.1-.3c-1.4 0-2.4.3-3 .8-.7.6-1 1.3-1 2.1s.3 1.4.9 2c.6.4 1.4.6 2.3.6Zm15 2a7 7 0 0 1-3-.5 6 6 0 0 1-2-1.4c-.5-.6-.9-1.2-1.1-1.9l2.1-1a4.2 4.2 0 0 0 4.1 2.7 4 4 0 0 0 2.2-.5c.6-.3.9-.9.9-1.6 0-.4-.2-.7-.4-1l-1-.8-1.8-.5-1.7-.5c-.7-.2-1.3-.4-2-.8-.5-.3-1-.7-1.4-1.3-.3-.5-.5-1.1-.5-2 0-.8.2-1.5.7-2.1a6.2 6.2 0 0 1 4.7-1.9 7 7 0 0 1 2.3.3l1.9 1c.5.5 1 1 1.2 1.8l-2 .9a3 3 0 0 0-1.5-1.5 4.6 4.6 0 0 0-4 .1c-.6.4-.9.8-.9 1.4 0 .6.2 1 .7 1.4.5.3 1 .5 1.8.7l2 .5c1.4.4 2.5 1 3.2 1.6.7.7 1 1.6 1 2.6 0 .9-.2 1.7-.7 2.3-.5.7-1.2 1.2-2 1.5-.9.4-1.8.5-2.9.5ZM32 212.4a7 7 0 0 1-3.7-1 7 7 0 0 1-2.5-2.6 8.3 8.3 0 0 1-.9-4c0-1.3.3-2.5.8-3.7.6-1.1 1.4-2 2.5-2.8 1-.7 2.2-1 3.6-1s2.7.3 3.7 1a6 6 0 0 1 2.3 2.5 8.2 8.2 0 0 1 .8 4.5H27.4c0 1 .3 1.9.7 2.6a4.6 4.6 0 0 0 4.1 2.4c1 0 2-.3 2.6-.7.7-.5 1.2-1.2 1.6-1.9l2 1a6.8 6.8 0 0 1-6.3 3.8Zm-4.6-9h8.7c0-.4 0-.9-.2-1.3-.2-.5-.4-1-.8-1.3-.3-.4-.8-.7-1.3-1-.5-.2-1.2-.4-2-.4-1 0-1.7.3-2.4.8-.7.4-1.2 1-1.6 1.9l-.4 1.2Zm14 8.6v-14.3h2.3v2.1h.1c.3-.4.6-.9 1-1.2a5.5 5.5 0 0 1 3.5-1.3c1 0 2 .2 2.7.8.8.5 1.3 1.1 1.7 2a6 6 0 0 1 2-2c.8-.6 1.7-.8 2.9-.8 1.7 0 3 .5 3.7 1.5.8 1 1.2 2.4 1.2 4v9.2h-2.3v-8.8c0-1.4-.3-2.3-.9-2.9-.5-.6-1.3-.9-2.3-.9-.8 0-1.4.2-2 .7-.6.4-1 1-1.4 1.6-.3.7-.4 1.4-.4 2.2v8.1h-2.4v-8.8c0-1.3-.3-2.3-.8-2.9-.6-.6-1.4-.9-2.4-.9a3 3 0 0 0-2 .7 5 5 0 0 0-1.8 3.9v8h-2.4Zm24.8 0v-14.3h2.3V212h-2.3Zm1.1-17c-.4 0-.8 0-1.2-.4a2 2 0 0 1-.5-1.2c0-.5.2-1 .5-1.2.4-.4.8-.5 1.2-.5.5 0 1 .1 1.2.5.4.3.5.7.5 1.2 0 .4-.1.8-.5 1.2-.3.3-.7.5-1.2.5Zm10 17.4c-1.1 0-2-.1-2.9-.5a6 6 0 0 1-2-1.4c-.5-.6-1-1.2-1.2-1.9l2.1-1c.4 1 1 1.6 1.7 2a4 4 0 0 0 2.4.7c.9 0 1.6-.1 2.2-.5.6-.3.9-.9.9-1.6 0-.4-.1-.7-.4-1-.2-.3-.6-.6-1-.8-.5-.2-1-.4-1.7-.5l-1.8-.5c-.7-.2-1.3-.4-1.9-.8-.6-.3-1-.7-1.4-1.3a3 3 0 0 1-.6-2c0-.8.3-1.5.8-2.1.5-.6 1.1-1.1 2-1.4.8-.4 1.7-.5 2.6-.5a7 7 0 0 1 2.3.3c.7.3 1.4.6 1.9 1 .5.5 1 1 1.2 1.8l-2 .9a3 3 0 0 0-1.5-1.5 4.6 4.6 0 0 0-4 .1c-.6.4-.9.8-.9 1.4 0 .6.3 1 .7 1.4l1.8.7 2 .5a8 8 0 0 1 3.2 1.6 3.6 3.6 0 0 1 .3 4.9c-.5.7-1.1 1.2-2 1.5-.9.4-1.8.5-2.9.5Zm13.2 0c-1 0-2-.1-2.9-.5a6 6 0 0 1-2-1.4c-.5-.6-.9-1.2-1.1-1.9l2-1c.5 1 1 1.6 1.7 2a4 4 0 0 0 2.4.7c1 0 1.6-.1 2.2-.5.6-.3 1-.9 1-1.6 0-.4-.2-.7-.4-1-.3-.3-.6-.6-1.1-.8-.5-.2-1-.4-1.7-.5l-1.7-.5c-.7-.2-1.4-.4-2-.8-.5-.3-1-.7-1.4-1.3-.4-.5-.5-1.1-.5-2 0-.8.2-1.5.7-2.1.5-.6 1.2-1.1 2-1.4.8-.4 1.7-.5 2.6-.5a7 7 0 0 1 2.3.3l2 1c.5.5.9 1 1.2 1.8l-2.1.9a3 3 0 0 0-1.4-1.5 4.6 4.6 0 0 0-4 .1c-.6.4-1 .8-1 1.4 0 .6.3 1 .8 1.4l1.7.7 2.1.5c1.4.4 2.5 1 3.2 1.6.7.7 1 1.6 1 2.6 0 .9-.2 1.7-.7 2.3-.5.7-1.2 1.2-2 1.5-1 .4-1.9.5-3 .5Zm8.3-.4v-14.3h2.4V212h-2.4Zm1.2-17c-.5 0-.9 0-1.2-.4-.4-.4-.5-.8-.5-1.2 0-.5.1-1 .5-1.2.3-.4.7-.5 1.2-.5s.9.1 1.2.5c.3.3.5.7.5 1.2 0 .4-.2.8-.5 1.2-.3.3-.7.5-1.2.5Zm11.3 17.4a7.2 7.2 0 0 1-6.4-3.7 8 8 0 0 1-.9-3.8 8 8 0 0 1 1-3.9c.6-1.1 1.4-2 2.5-2.7a7 7 0 0 1 3.8-1 7 7 0 0 1 6.4 3.8c.7 1 1 2.4 1 3.8s-.3 2.7-1 3.8a7 7 0 0 1-6.4 3.7Zm0-2.1a5.2 5.2 0 0 0 4.3-2.5c.5-.8.7-1.8.7-3 0-1-.2-2-.7-2.9a4.8 4.8 0 0 0-4.3-2.5 5 5 0 0 0-4.2 2.5c-.5.9-.7 1.8-.7 3 0 1.1.2 2 .7 2.9a4.9 4.9 0 0 0 4.2 2.5Zm9.9 1.7v-14.3h2.2v2.1h.2c.3-.7 1-1.3 1.8-1.8s1.8-.7 2.8-.7c1.7 0 3 .5 4 1.5.8 1 1.3 2.4 1.3 4v9.2h-2.4v-8.8c0-1.4-.3-2.3-1-2.9a3.7 3.7 0 0 0-4.6-.2 4 4 0 0 0-1.4 1.7 5 5 0 0 0-.5 2.2v8h-2.4Zm20.5.4a6.1 6.1 0 0 1-4.8-1.9c-.5-.6-1-1.2-1.2-1.9l2.1-1c.4 1 1 1.6 1.7 2a4 4 0 0 0 2.4.7c.9 0 1.6-.1 2.2-.5.6-.3.9-.9.9-1.6 0-.4-.2-.7-.4-1-.2-.3-.6-.6-1-.8l-1.8-.5-1.7-.5c-.7-.2-1.3-.4-2-.8-.5-.3-1-.7-1.4-1.3-.3-.5-.5-1.1-.5-2 0-.8.3-1.5.8-2.1.5-.6 1.1-1.1 2-1.4.8-.4 1.6-.5 2.6-.5a7 7 0 0 1 2.3.3l1.9 1c.5.5 1 1 1.2 1.8l-2 .9a3 3 0 0 0-1.5-1.5 4.6 4.6 0 0 0-4 .1c-.6.4-.9.8-.9 1.4 0 .6.2 1 .7 1.4.5.3 1 .5 1.8.7l2 .5c1.4.4 2.5 1 3.2 1.6.7.7 1 1.6 1 2.6 0 .9-.2 1.7-.7 2.3-.5.7-1.2 1.2-2 1.5-.9.4-1.8.5-2.9.5Zm15-.4v-14.3h2.4V212h-2.4Zm1.2-17c-.5 0-.9 0-1.2-.4-.4-.4-.5-.8-.5-1.2 0-.5.1-1 .5-1.2.3-.4.7-.5 1.2-.5s.9.1 1.2.5c.3.3.5.7.5 1.2 0 .4-.2.8-.5 1.2-.3.3-.7.5-1.2.5Zm4.9 17v-14.3h2.3v2.1c.4-.7 1-1.3 1.9-1.8.9-.5 1.8-.7 2.8-.7 1.7 0 3 .5 4 1.5.8 1 1.3 2.4 1.3 4v9.2h-2.4v-8.8c0-1.4-.3-2.3-1-2.9a3.7 3.7 0 0 0-4.6-.2 5 5 0 0 0-1.9 3.9v8h-2.4Zm29 .4a7 7 0 0 1-3.8-1c-1.1-.6-2-1.5-2.6-2.7-.6-1.2-1-2.6-1-4.1V192h2.4v12.7c0 1 .2 2 .6 2.8.4.8 1 1.5 1.6 2 .8.4 1.7.7 2.8.7 1.1 0 2-.3 2.8-.7.7-.5 1.3-1.2 1.7-2 .3-.8.5-1.8.5-2.8V192h2.4v12.6a9 9 0 0 1-.9 4.1 6.6 6.6 0 0 1-2.5 2.8c-1.1.6-2.4 1-4 1Zm11-.4v-14.3h2.2v2.1h.1c.4-.7 1-1.3 1.8-1.8.9-.5 1.8-.7 2.8-.7 1.8 0 3.1.5 4 1.5.9 1 1.3 2.4 1.3 4v9.2h-2.3v-8.8c0-1.4-.4-2.3-1-2.9a4 4 0 0 0-2.6-.9c-.8 0-1.5.3-2 .7-.7.4-1.1 1-1.5 1.7a5 5 0 0 0-.5 2.2v8h-2.4Zm15.9 0v-14.3h2.3V212h-2.3Zm1.1-17c-.4 0-.8 0-1.2-.4a2 2 0 0 1-.5-1.2c0-.5.2-1 .5-1.2.4-.4.8-.5 1.2-.5.5 0 1 .1 1.2.5.4.3.5.7.5 1.2 0 .4-.1.8-.5 1.2-.3.3-.7.5-1.2.5Zm3.8 2.7h2.5v-4h2.4v4h3.5v2.2h-3.5v7.8c0 .7.2 1.3.5 1.7.3.4.8.6 1.5.6l.9-.1.7-.4v2.4l-.8.2-1.2.1a4 4 0 0 1-2.9-1 4 4 0 0 1-1-3V200h-2.6v-2.2Zm17 14.7a7 7 0 0 1-3.7-1 7 7 0 0 1-2.5-2.6 8.2 8.2 0 0 1-1-4 8 8 0 0 1 .9-3.7 7 7 0 0 1 2.4-2.8c1-.7 2.3-1 3.7-1a6 6 0 0 1 3.6 1 6 6 0 0 1 2.4 2.5 8.2 8.2 0 0 1 .8 4.5h-11.4c0 1 .3 1.9.7 2.6a4.6 4.6 0 0 0 4.2 2.4c1 0 1.9-.3 2.5-.7.7-.5 1.3-1.2 1.7-1.9l2 1c-.6 1-1.4 2-2.4 2.7a7 7 0 0 1-4 1Zm-4.6-9h8.7a3 3 0 0 0-.3-1.3c-.1-.5-.4-1-.7-1.3a4.4 4.4 0 0 0-3.3-1.4 4.4 4.4 0 0 0-4 2.7l-.4 1.2Zm20.2 9a6.5 6.5 0 0 1-6-3.6 8.3 8.3 0 0 1-.8-4c0-1.4.3-2.7.9-3.9a6.5 6.5 0 0 1 8-3.3 5.7 5.7 0 0 1 2.8 2.2V192h2.4v20h-2.3v-2.1h-.1l-1.1 1.2a5.7 5.7 0 0 1-3.8 1.3Zm.3-2.1c.8 0 1.5-.2 2.3-.7a5 5 0 0 0 1.7-1.8 6 6 0 0 0 .7-3c0-1-.2-2-.7-2.8a4.8 4.8 0 0 0-4-2.6c-.9 0-1.6.3-2.4.7a4 4 0 0 0-1.7 1.9c-.5.8-.7 1.7-.7 2.9 0 1 .2 2 .7 2.8a4.5 4.5 0 0 0 4 2.5ZM31.8 248.4a7.2 7.2 0 0 1-5.4-2.4 7.3 7.3 0 0 1-1.6-3l2.3-1c.3 1.2.9 2.2 1.7 3 .9.8 1.9 1.2 3.1 1.2.7 0 1.4-.2 2-.4a4 4 0 0 0 1.6-1.2 3 3 0 0 0 .5-2c0-.6-.1-1.2-.5-1.6a4 4 0 0 0-1.4-1.3l-2.4-1-1.3-.5-1.7-.7a9 9 0 0 1-1.6-1 5 5 0 0 1-1-1.6c-.4-.6-.5-1.3-.5-2 0-1 .3-2 .8-2.7.5-.8 1.2-1.5 2.1-2 1-.5 2-.7 3.2-.7a6.4 6.4 0 0 1 6.2 4l-2.3 1c0-.4-.3-.8-.6-1.2-.3-.4-.7-.8-1.3-1a4 4 0 0 0-2-.5 4 4 0 0 0-1.8.4c-.6.2-1 .6-1.4 1a3 3 0 0 0-.5 1.6c0 .9.3 1.5 1 2s1.6 1 2.7 1.3l1.3.5 1.9.7c.6.3 1.2.7 1.7 1.2a5.3 5.3 0 0 1 1.8 4.2 5.2 5.2 0 0 1-2.2 4.5l-2 1a8 8 0 0 1-2.4.2Zm8-14.7h2.5v-4h2.4v4h3.5v2.2h-3.5v7.8c0 .7.1 1.3.4 1.7.3.4.8.6 1.6.6l.8-.1.7-.4v2.4l-.8.2-1.1.1a4 4 0 0 1-3-1 4 4 0 0 1-1-3V236h-2.5v-2.2Zm15.5 14.7c-1 0-2-.2-2.8-.6-.8-.4-1.4-1-2-1.6-.4-.8-.6-1.6-.6-2.5 0-1 .3-2 .8-2.6.6-.8 1.3-1.3 2.2-1.7 1-.3 2-.5 3-.5a8.7 8.7 0 0 1 3.2.5l1 .4v-.9c0-1-.5-2-1.2-2.5a4 4 0 0 0-2.8-1c-.8 0-1.5.2-2.2.5a4 4 0 0 0-1.6 1.5l-1.8-1.4a6.5 6.5 0 0 1 3.3-2.4c.7-.2 1.5-.3 2.3-.3 2 0 3.4.5 4.5 1.5s1.7 2.4 1.7 4.2v9H60v-2a5 5 0 0 1-2.7 2c-.6.3-1.3.4-2 .4Zm.2-2c.8 0 1.6-.3 2.3-.7a6 6 0 0 0 1.6-1.6c.4-.7.6-1.5.6-2.3a7.4 7.4 0 0 0-3.7-1c-1.4 0-2.4.3-3 .8-.6.6-1 1.3-1 2.1s.4 1.4 1 2c.5.4 1.3.6 2.2.6Zm8.9-12.7h2.4v-4h2.4v4h3.5v2.2h-3.5v7.8c0 .7.2 1.3.5 1.7.3.4.8.6 1.5.6l.9-.1.7-.4v2.4l-.8.2-1.2.1a4 4 0 0 1-2.9-1 4 4 0 0 1-1-3V236h-2.5v-2.2Zm16.9 14.7a7 7 0 0 1-3.7-1 7 7 0 0 1-2.5-2.6 8.3 8.3 0 0 1-1-4c0-1.3.4-2.5 1-3.7.5-1.1 1.3-2 2.3-2.8 1-.7 2.3-1 3.7-1a6 6 0 0 1 3.6 1 6 6 0 0 1 2.4 2.5 8.2 8.2 0 0 1 .8 4.5H76.6c0 1 .2 1.9.7 2.6a4.6 4.6 0 0 0 4 2.4c1.1 0 2-.3 2.6-.7.7-.5 1.3-1.2 1.7-1.9l2 1c-.5 1-1.4 2-2.4 2.7-1 .7-2.3 1-4 1Zm-4.6-9h8.7a3 3 0 0 0-.3-1.3c-.1-.5-.4-1-.7-1.3a4.4 4.4 0 0 0-3.3-1.4c-1 0-1.8.3-2.4.8-.7.4-1.2 1-1.6 1.9l-.4 1.2Zm19.1 9a6 6 0 0 1-4.8-1.9c-.5-.6-1-1.2-1.2-1.9l2.1-1c.4 1 1 1.6 1.7 2a4 4 0 0 0 2.4.7c.9 0 1.6-.1 2.2-.5.6-.3.9-.9.9-1.6 0-.4-.1-.7-.4-1-.2-.3-.6-.6-1-.8-.5-.2-1-.4-1.8-.5l-1.7-.5c-.7-.2-1.3-.4-1.9-.8-.6-.3-1-.7-1.5-1.3-.3-.5-.5-1.1-.5-2 0-.8.3-1.5.8-2.1.5-.6 1.1-1.1 2-1.4.8-.4 1.7-.5 2.6-.5a7 7 0 0 1 2.3.3l1.9 1c.5.5 1 1 1.2 1.8l-2 .9a3 3 0 0 0-1.5-1.5 4.6 4.6 0 0 0-4 .1c-.6.4-.9.8-.9 1.4 0 .6.3 1 .7 1.4.5.3 1 .5 1.8.7l2 .5a8 8 0 0 1 3.2 1.6c.7.7 1 1.6 1 2.6 0 .9-.2 1.7-.7 2.3-.5.7-1.2 1.2-2 1.5-.9.4-1.8.5-2.9.5Zm19.8 3.4a24.3 24.3 0 0 1-3.4-5.3 17.5 17.5 0 0 1 0-15 21.6 21.6 0 0 1 3.4-5.3l1.7 1.2a19.7 19.7 0 0 0-3.8 7.2 16.3 16.3 0 0 0 0 8.8 20.8 20.8 0 0 0 3.8 7.2l-1.7 1.2Zm3.5-3.8v-2.4l.7-.7 1.5-1.4a169.4 169.4 0 0 1 4.9-5l1.4-1.7.7-1.3c.2-.5.3-1 .3-1.6 0-.5-.1-1-.4-1.5-.3-.5-.7-1-1.3-1.3-.5-.3-1.1-.4-2-.4-.7 0-1.3.1-1.8.4-.6.4-1 .7-1.2 1.2l-.6 1.2-2.1-.9c0-.4.3-.8.5-1.3.3-.5.7-1 1.2-1.4a5.8 5.8 0 0 1 4.1-1.5c1.2 0 2.3.3 3.2.8.9.5 1.6 1.2 2 2 .6.8.8 1.7.8 2.7 0 .8-.2 1.6-.5 2.4l-1.1 2-1.5 1.7-1 1-1.4 1.4-1.4 1.4-1.2 1.2-.7.7h9v2.3h-12Zm22.5.4a6.6 6.6 0 0 1-5.5-2.9c-.7-.9-1.2-2-1.6-3.2a14 14 0 0 1 1.6-11c.6-.9 1.4-1.6 2.4-2.1a6.5 6.5 0 0 1 6.3 0c1 .5 1.8 1.2 2.4 2.1.7 1 1.2 2 1.6 3.2a13.9 13.9 0 0 1-1.6 11 6.6 6.6 0 0 1-5.6 3Zm0-2.2c1.1 0 2-.4 2.8-1 .8-.7 1.4-1.7 1.8-2.9a11.4 11.4 0 0 0 0-7.9c-.4-1.1-1-2-1.8-2.7a4 4 0 0 0-2.8-1c-1 0-2 .3-2.8 1-.7.7-1.3 1.6-1.8 2.8a12 12 0 0 0-.6 4c0 1.4.2 2.7.6 3.8.5 1.2 1 2.2 1.8 2.8a4 4 0 0 0 2.8 1Zm10 1.8v-2.4l.7-.7 1.5-1.4a160.7 160.7 0 0 1 4.9-5l1.4-1.7.8-1.3.2-1.6c0-.5-.1-1-.4-1.5-.3-.5-.7-1-1.2-1.3-.6-.3-1.2-.4-2-.4s-1.4.1-2 .4c-.4.4-.8.7-1.1 1.2l-.6 1.2-2.1-.9c0-.4.3-.8.6-1.3a6.5 6.5 0 0 1 2.8-2.5 6 6 0 0 1 2.4-.4c1.2 0 2.3.3 3.2.8.9.5 1.6 1.2 2 2 .6.8.8 1.7.8 2.7 0 .8-.1 1.6-.5 2.4l-1.1 2-1.5 1.7-1 1a96.8 96.8 0 0 0-2.8 2.8l-1.2 1.2-.7.7h9v2.3h-12Zm22.5.4a6.6 6.6 0 0 1-5.5-2.9c-.7-.9-1.2-2-1.6-3.2a13.9 13.9 0 0 1 1.6-11c.6-.9 1.4-1.6 2.4-2.1s2-.8 3.1-.8c1.2 0 2.3.3 3.2.8 1 .5 1.8 1.2 2.4 2.1.7 1 1.2 2 1.6 3.2a13.9 13.9 0 0 1-1.6 11 6.6 6.6 0 0 1-5.6 3Zm0-2.2c1.1 0 2-.4 2.8-1 .8-.7 1.4-1.7 1.8-2.9.5-1.1.7-2.4.7-3.9 0-1.4-.2-2.7-.7-4-.4-1.1-1-2-1.8-2.7a4 4 0 0 0-2.8-1c-1 0-2 .3-2.8 1-.7.7-1.3 1.6-1.8 2.8a12 12 0 0 0-.6 4c0 1.4.2 2.7.6 3.8.5 1.2 1 2.2 1.8 2.8a4 4 0 0 0 2.8 1Zm11.4 5.6-1.8-1.2a18.5 18.5 0 0 0 3.8-7.2 15.6 15.6 0 0 0 0-8.8 18.6 18.6 0 0 0-3.8-7.2l1.8-1.2a21.6 21.6 0 0 1 5 12.8 20.6 20.6 0 0 1-5 12.8Z"/>
  <path fill="#303030" d="M27.5 277.2c-.6 0-1-.1-1.5-.3l-1-.8c-.3-.4-.5-.8-.5-1.3l1.2-.3c0 .5.2.8.5 1.1.3.3.7.4 1.3.4l.8-.1.6-.4.1-.6-.1-.7-.6-.4-1-.3-.5-.2-.8-.3-.6-.4a1.9 1.9 0 0 1-.7-1.5c0-.4.1-.8.4-1 .2-.4.5-.7.9-.9.4-.2.8-.3 1.4-.3.5 0 1 .1 1.4.3l.9.8.4 1-1.2.2-.2-.6-.6-.4-.7-.1a2 2 0 0 0-.8.1c-.2 0-.4.2-.5.3l-.2.6c0 .3.2.5.4.7l1.2.5.5.2.9.3.7.5a2 2 0 0 1 .6 1.5c0 .4 0 .8-.2 1a2 2 0 0 1-.6.8c-.2.2-.5.3-.9.4l-1 .2Zm6.7 0c-.6 0-1.1-.2-1.5-.4-.5-.3-.8-.6-1-1.1-.2-.5-.4-1-.4-1.6 0-.6.2-1.1.4-1.6a2 2 0 0 1 1-1 2.8 2.8 0 0 1 3 0c.4.2.7.6 1 1 .2.5.3 1 .3 1.6 0 .6-.1 1.1-.3 1.6a2.6 2.6 0 0 1-2.5 1.5Zm0-1.1c.3 0 .6 0 .8-.2.3-.2.5-.4.6-.7.2-.3.2-.7.2-1 0-.5 0-.9-.2-1.2a.9.9 0 0 0-.6-.6c-.2-.2-.5-.3-.8-.3l-.9.3-.6.6-.2 1.1c0 .4 0 .8.2 1l.6.8.9.2Zm6.1 1c-.6 0-1.2-.1-1.5-.5-.3-.4-.5-1-.5-1.6v-3.8h1.2v3.6c0 .5 0 .8.3 1 .2.2.5.3.8.3.3 0 .6 0 .8-.2l.4-.6c.2-.2.2-.5.2-.8v-3.3h1.2v5.8h-1.1v-.7l-.5.4-.6.4a2 2 0 0 1-.7 0Zm4.6-.1v-5.8H46v.8a1.6 1.6 0 0 1 1.6-1 2.1 2.1 0 0 1 .5.1v1.2h-.3l-.4-.1c-.3 0-.5 0-.7.2l-.5.5-.1.8v3.3h-1.2Zm6.6.2a2.7 2.7 0 0 1-2.4-1.5c-.3-.4-.4-1-.4-1.6 0-.6.1-1.2.4-1.6a2.6 2.6 0 0 1 2.4-1.5c.7 0 1.3.2 1.7.6.5.3.8.8.9 1.4l-1.2.2c0-.4-.2-.6-.5-.8-.2-.2-.5-.3-.9-.3-.3 0-.6.1-.8.3l-.6.6-.2 1.1c0 .4 0 .8.2 1.1l.6.7.8.2c.4 0 .7-.1 1-.3l.4-.8 1.1.3c-.1.5-.4 1-.8 1.3-.4.4-1 .6-1.7.6Zm6.2 0c-.5 0-1-.2-1.4-.4-.4-.3-.7-.6-1-1.1-.2-.5-.3-1-.3-1.6 0-.6.1-1.1.3-1.6.3-.5.6-.8 1-1 .4-.3 1-.5 1.4-.5.6 0 1.1.1 1.5.4.4.2.7.5.9 1a3.3 3.3 0 0 1 .3 1.7v.3h-4.2c0 .3 0 .6.2.8 0 .3.3.5.5.7l.9.2c.4 0 .7 0 1-.2l.4-.7 1 .2c0 .5-.4 1-.8 1.3-.4.3-1 .5-1.7.5Zm-1.5-3.7h3v-.6l-.4-.5-.4-.3a1.8 1.8 0 0 0-1.5.2c-.2.1-.4.4-.5.7l-.2.5Zm6.3-.7a.8.8 0 0 1-.8-.9c0-.2 0-.4.2-.6l.6-.2c.2 0 .4 0 .6.2l.2.6c0 .3 0 .5-.2.6l-.6.3Zm0 4.3a.8.8 0 0 1-.8-.9c0-.2 0-.4.2-.5l.6-.3.6.3.2.5c0 .3 0 .5-.2.6l-.6.3Z"/>
  <path fill="#0B57D0" d="M70.3 277.2a2.7 2.7 0 0 1-2.4-1.5c-.3-.4-.4-1-.4-1.6 0-.6.1-1.2.3-1.6a2.6 2.6 0 0 1 2.5-1.5c.7 0 1.3.2 1.7.6.4.3.7.8.8 1.4l-1.1.2c-.1-.4-.3-.6-.5-.8-.2-.2-.5-.3-1-.3a1 1 0 0 0-.7.3c-.3.1-.5.3-.6.6-.2.3-.2.7-.2 1.1 0 .4 0 .8.2 1.1l.5.7.9.2.9-.3c.2-.2.4-.4.5-.8l1 .3c0 .5-.3 1-.8 1.3-.4.4-1 .6-1.6.6Zm3.9-.2v-8.5h1.1v8.5h-1.1Zm2.8 0v-5.8h1.2v5.8H77Zm.6-7c-.2 0-.4 0-.5-.2a.8.8 0 0 1-.3-.6l.3-.6.5-.2c.3 0 .4 0 .6.2.2.2.2.4.2.6 0 .2 0 .4-.2.6l-.6.2Zm2.3 7v-5.8H81v.7h.1l.4-.4c.2-.2.3-.3.5-.3l.7-.2c.4 0 .7.1 1 .3.3.2.5.4.6.7l.7-.7c.3-.2.6-.3 1-.3.7 0 1.1.2 1.4.6.3.3.5.8.5 1.5v3.9h-1.2v-3.8c0-.3 0-.6-.3-.8-.1-.2-.4-.3-.7-.3-.2 0-.4 0-.6.2l-.4.5-.2.8v3.4h-1.2v-3.7c0-.4 0-.7-.3-.9-.1-.2-.4-.3-.7-.3a1 1 0 0 0-.6.2l-.4.5-.2.8v3.4h-1.2Zm11.3.2-1-.2-.7-.7c-.2-.3-.3-.6-.3-1 0-.3.1-.7.3-1l.8-.5 1.2-.3a4.9 4.9 0 0 1 1 .2h.6v-.5a1 1 0 0 0-.4-.8c-.2-.3-.5-.4-1-.4-.3 0-.6.1-.8.3-.2.1-.4.4-.5.7l-1-.3c0-.3.2-.7.4-.9l.9-.6a3 3 0 0 1 1-.2 3 3 0 0 1 2 .6c.3.4.6 1 .6 1.7v3.7H93v-.7l-.5.4a2.3 2.3 0 0 1-1.4.5Zm.3-1c.3 0 .6 0 .8-.2a1.5 1.5 0 0 0 .8-1.3l-.7-.2h-.8c-.3 0-.6 0-.9.2-.2.1-.3.3-.3.7l.3.6.8.2Zm3.8-5h1v-1.6h1.1v1.6h1.4v1h-1.4v3l.2.6.6.2h.3l.3-.2v1.1a2.6 2.6 0 0 1-.9.2c-.5 0-.9-.2-1.2-.5-.3-.3-.4-.7-.4-1.2v-3.2h-1v-1Zm7 6c-.5 0-1-.2-1.4-.4-.4-.3-.8-.6-1-1.1-.2-.5-.3-1-.3-1.6 0-.6.1-1.1.3-1.6.3-.5.6-.8 1-1 .4-.3.9-.5 1.4-.5.6 0 1.1.1 1.5.4.4.2.7.5.9 1a3.3 3.3 0 0 1 .3 1.7v.3h-4.3l.2.8a1.5 1.5 0 0 0 1.5 1c.4 0 .7-.2 1-.3l.4-.7 1 .2c-.1.5-.4 1-.8 1.3-.4.3-1 .5-1.7.5Zm-1.5-3.7h3v-.6l-.4-.5-.4-.3a1.8 1.8 0 0 0-1.5.2l-.6.7-.1.5Zm5-2.3h.9v-1.6h1.2v1.6h1.3v1h-1.3v3l.1.6.6.2h.3l.3-.2v1.1a2.6 2.6 0 0 1-.9.2c-.5 0-.9-.2-1.2-.5-.3-.3-.4-.7-.4-1.2v-3.2h-1v-1Zm4.8 5.8v-5.8h1v.8h.1a1.6 1.6 0 0 1 1.5-1 2.1 2.1 0 0 1 .6.1v1.2h-.4l-.4-.1c-.2 0-.4 0-.6.2l-.5.5-.2.8v3.3h-1.1Zm6 .2-1-.2c-.3-.2-.6-.4-.7-.7-.2-.3-.3-.6-.3-1 0-.3.1-.7.3-1l.8-.5c.4-.2.7-.3 1.1-.3a4.9 4.9 0 0 1 1.2.2h.5v-.5a1 1 0 0 0-.4-.8c-.2-.3-.6-.4-1-.4-.3 0-.6.1-.8.3-.3.1-.4.4-.5.7l-1-.3c0-.3.2-.7.4-.9.2-.3.5-.4.9-.6a3 3 0 0 1 1-.2c.8 0 1.5.2 1.9.6.4.4.6 1 .6 1.7v3.7h-1.1v-.7l-.5.4a2.2 2.2 0 0 1-1.4.5Zm.3-1c.3 0 .6 0 .8-.2a1.5 1.5 0 0 0 .8-1.3l-.7-.2h-.8c-.4 0-.7 0-.9.2-.2.1-.3.3-.3.7l.3.6.8.2Zm6.7 1c-.5 0-1-.1-1.4-.4l-1-1c-.2-.5-.3-1-.3-1.7 0-.6.1-1.2.3-1.6a2.6 2.6 0 0 1 2.5-1.5c.7 0 1.2.2 1.7.6.4.3.7.8.8 1.4l-1.1.2c-.1-.4-.3-.6-.5-.8-.2-.2-.6-.3-1-.3l-.8.3a1 1 0 0 0-.5.6c-.2.3-.2.7-.2 1.1 0 .4 0 .8.2 1.1l.5.7.9.2.9-.3c.2-.2.4-.4.5-.8l1 .3c0 .5-.3 1-.8 1.3-.4.4-1 .6-1.7.6Zm6.3 0c-.6 0-1-.2-1.5-.4-.4-.3-.7-.6-1-1.1-.1-.5-.3-1-.3-1.6 0-.6.2-1.1.4-1.6s.6-.8 1-1c.4-.3.9-.5 1.4-.5.6 0 1 .1 1.5.4.4.2.7.5.8 1a3.3 3.3 0 0 1 .3 1.7v.3h-4.2c0 .3 0 .6.2.8.1.3.3.5.6.7l.8.2c.4 0 .8 0 1-.2l.5-.7 1 .2c-.1.5-.4 1-.8 1.3-.4.3-1 .5-1.7.5Zm-1.6-3.7h3v-.6l-.3-.5-.5-.3a1.7 1.7 0 0 0-1.4.2c-.3.1-.5.4-.6.7l-.2.5Zm6.3 3.6a.5.5 0 0 1-.5-.3.8.8 0 0 1-.3-.6c0-.2 0-.4.3-.5.1-.2.3-.3.5-.3.3 0 .5.1.6.3.2.1.3.3.3.5 0 .3-.1.5-.3.6-.1.2-.3.3-.6.3Zm5 0c-.6 0-1.1 0-1.5-.3-.5-.3-.8-.6-1-1.1a3 3 0 0 1-.4-1.6c0-.6.1-1.1.4-1.6a2 2 0 0 1 1-1 2.8 2.8 0 0 1 3 0c.4.2.7.6 1 1 .2.5.3 1 .3 1.6a3 3 0 0 1-.4 1.6 2.6 2.6 0 0 1-2.4 1.5Zm0-1c.3 0 .6 0 .8-.2.3-.2.5-.4.6-.7.2-.3.2-.7.2-1 0-.5 0-.9-.2-1.2a.9.9 0 0 0-.6-.6c-.2-.2-.5-.3-.8-.3-.4 0-.6.1-.9.3l-.6.6-.2 1.1c0 .4 0 .8.2 1l.6.8.9.2Zm4 .9v-5.8h1.2v.8a1.6 1.6 0 0 1 1.5-1 2.1 2.1 0 0 1 .6.1v1.2h-.4l-.4-.1c-.2 0-.4 0-.6.2l-.5.5-.2.8v3.3h-1.1Zm6.6 2.6a3 3 0 0 1-1.2-.3c-.4-.1-.7-.4-.9-.6l-.4-1 1.1-.2.5.7c.3.2.6.3 1 .3.5 0 .9-.2 1.1-.5.3-.3.4-.7.4-1.3v-.6a2 2 0 0 1-.8.6c-.2.2-.6.3-1 .3-.5 0-.9-.2-1.3-.4l-.9-1c-.2-.4-.3-1-.3-1.6 0-.6.1-1.2.3-1.6.3-.4.6-.8 1-1 .3-.2.7-.4 1.2-.4.4 0 .7.1 1 .3.3.1.6.3.7.6h.1v-.7h1.1v5.5c0 .6 0 1.1-.3 1.6-.2.4-.5.7-1 1a3 3 0 0 1-1.4.3Zm0-3.7c.3 0 .6 0 .8-.2.3-.2.5-.4.6-.7l.2-1c0-.4 0-.8-.2-1a1.5 1.5 0 0 0-1.3-.9c-.3 0-.6 0-.8.2-.3.2-.5.4-.6.7-.2.2-.2.6-.2 1s0 .8.2 1c.1.3.3.5.6.7l.8.2Z"/>
  <rect width="363" height="311" x=".5" y=".5" stroke="#E3E3E3" rx="31.5"/>
  <path fill="#fff" stroke="#E3E3E3" d="M380.5 32A31.5 31.5 0 0 1 412 .5h385A31.5 31.5 0 0 1 828.5 32v299a31.5 31.5 0 0 1-31.5 31.5H412a31.5 31.5 0 0 1-31.5-31.5V32Z"/>
  <path fill="#303030" d="M415.2 49.4a8.2 8.2 0 0 1-5.8-2.4 8.2 8.2 0 0 1-2.4-5.9 8.2 8.2 0 0 1 5-7.6 8.6 8.6 0 0 1 6.4 0c1 .4 1.9 1 2.5 1.8l-1.3 1.3a3 3 0 0 0-1.2-1 6 6 0 0 0-3.2-1 6.3 6.3 0 0 0-4.4 1.8c-.6.6-1 1.3-1.4 2a7.6 7.6 0 0 0 0 5.4 6.4 6.4 0 0 0 3.4 3.3 6.4 6.4 0 0 0 4.4.2 4 4 0 0 0 1.8-1c.6-.4 1-1 1.4-1.6a6 6 0 0 0 .6-2.3h-5.8v-1.8h7.6a8.4 8.4 0 0 1 0 1.1c0 1.2-.1 2.2-.5 3.2a7.1 7.1 0 0 1-4 3.9c-1 .4-2 .6-3.1.6Zm9.1-.4V37.8h1.8v1.8l.8-1.1a3.9 3.9 0 0 1 3.9-.8v2l-.8-.3h-.8c-.6 0-1 .1-1.5.4a3.4 3.4 0 0 0-1.5 3V49h-1.9Zm12.6.4c-1 0-2-.3-3-.8a5.5 5.5 0 0 1-1.9-2.1 6.7 6.7 0 0 1 0-6c.4-1 1-1.7 1.9-2.2a5 5 0 0 1 2.8-.9c1.2 0 2.1.3 2.9.8.8.5 1.4 1.1 1.8 2a6.5 6.5 0 0 1 .7 3.5h-9c.1.8.3 1.5.6 2a3.6 3.6 0 0 0 3.3 2c.8 0 1.5-.2 2-.6.5-.4 1-.9 1.3-1.5l1.6.8a5 5 0 0 1-2 2.1c-.7.6-1.8.9-3 .9Zm-3.6-7.2h6.8c0-.3 0-.6-.2-1a2 2 0 0 0-.6-1l-1-.8c-.4-.2-1-.3-1.6-.3-.7 0-1.3.2-1.9.6-.5.4-1 .9-1.2 1.5l-.3 1Zm16.1 7.2c-1 0-2-.3-3-.8a5.5 5.5 0 0 1-1.9-2.1 6.7 6.7 0 0 1 0-6c.4-1 1-1.7 1.9-2.2a5 5 0 0 1 2.8-.9c1.2 0 2.1.3 2.9.8.8.5 1.4 1.1 1.9 2a6.5 6.5 0 0 1 .6 3.5h-9c.1.8.3 1.5.6 2a3.6 3.6 0 0 0 3.3 2c.8 0 1.5-.2 2-.6.5-.4 1-.9 1.3-1.5l1.6.8a5 5 0 0 1-2 2.1c-.7.6-1.8.9-3 .9Zm-3.6-7.2h6.8c0-.3 0-.6-.2-1a2 2 0 0 0-.6-1c-.2-.3-.6-.6-1-.8-.4-.2-1-.3-1.6-.3-.7 0-1.3.2-1.9.6a4.3 4.3 0 0 0-1.5 2.5Zm11 6.8V37.8h1.8v1.6c.4-.5.8-1 1.5-1.4.7-.4 1.4-.6 2.2-.6 1.4 0 2.4.4 3.1 1.2.7.8 1 1.9 1 3.2V49h-1.8v-7c0-1-.3-1.8-.8-2.2a3 3 0 0 0-2-.7c-.6 0-1.2.2-1.6.5a3 3 0 0 0-1.1 1.4 3 3 0 0 0-.4 1.7V49h-1.9Zm12.3 0V33.2h1.9v6.2c.3-.5.8-1 1.4-1.4.7-.4 1.4-.6 2.3-.6 1 0 1.7.2 2.3.6a4.4 4.4 0 0 1 1.9 3.8V49h-2v-7c0-.6 0-1.2-.3-1.6-.3-.5-.6-.8-1-1a3 3 0 0 0-3 .3c-.5.3-.9.8-1.2 1.3a4 4 0 0 0-.4 1.8V49h-1.9Zm17.6.4a5.6 5.6 0 0 1-5-3 6 6 0 0 1-.7-3 6 6 0 0 1 2.7-5.2c.9-.5 1.9-.8 3-.8a5.5 5.5 0 0 1 5 3 6.2 6.2 0 0 1 0 6 5.6 5.6 0 0 1-5 3Zm0-1.7a5 5 0 0 0 2-.5c.5-.4 1-.9 1.4-1.5.3-.6.5-1.4.5-2.3 0-.9-.2-1.7-.5-2.3a3.8 3.8 0 0 0-3.4-2 3.9 3.9 0 0 0-3.3 2c-.4.6-.6 1.4-.6 2.3 0 .9.2 1.7.6 2.3a3.8 3.8 0 0 0 3.3 2Zm12 1.7c-1.5 0-2.5-.5-3.2-1.3a5 5 0 0 1-1-3.3v-7h1.8v6.8c0 1 .3 1.9.8 2.4.5.4 1.2.7 2 .7a3 3 0 0 0 1.6-.5 4 4 0 0 0 1.2-1.4c.2-.5.3-1.1.3-1.7v-6.3h2V49h-1.9v-1.6c-.2.3-.5.7-1 1-.3.3-.7.5-1.2.7a4 4 0 0 1-1.5.3Zm12 0c-.8 0-1.6-.2-2.2-.4a5 5 0 0 1-1.6-1.1 5 5 0 0 1-1-1.6l1.7-.7a3.4 3.4 0 0 0 3.2 2.1c.7 0 1.3-.1 1.7-.4.5-.3.7-.7.7-1.2 0-.4 0-.7-.2-.9l-.9-.6-1.3-.4-1.4-.4-1.5-.6c-.5-.3-.8-.6-1.1-1-.3-.4-.4-1-.4-1.5 0-.7.2-1.3.5-1.8.4-.5 1-.8 1.6-1a5 5 0 0 1 3.9-.2c.6.2 1 .5 1.5.8l1 1.3-1.7.8c-.3-.6-.6-1-1.1-1.2-.5-.2-1-.3-1.6-.3a3 3 0 0 0-1.6.4c-.4.3-.7.6-.7 1.1 0 .5.2.8.6 1 .4.3.8.5 1.4.6l1.6.5c1.1.2 2 .7 2.5 1.2.6.6.8 1.2.8 2 0 .7-.2 1.3-.6 1.8-.4.6-.9 1-1.6 1.2a5 5 0 0 1-2.2.5Zm11.6 0c-1.1 0-2-.3-3-.8a5.5 5.5 0 0 1-2-2.1 8 8 0 0 1 0-6c.5-1 1.1-1.7 2-2.2a5 5 0 0 1 2.8-.9c1.1 0 2 .3 2.9.8.8.5 1.4 1.1 1.8 2a6.5 6.5 0 0 1 .6 3.5h-8.8c0 .8.2 1.5.5 2a3.6 3.6 0 0 0 3.2 2 3 3 0 0 0 2-.6 5 5 0 0 0 1.4-1.5l1.5.8c-.4.9-1 1.6-1.8 2.1-.9.6-1.9.9-3.1.9Zm-3.6-7.2h6.8c0-.3 0-.6-.2-1a2 2 0 0 0-.6-1l-1-.8c-.5-.2-1-.3-1.6-.3a3 3 0 0 0-1.9.6c-.5.4-1 .9-1.2 1.5-.2.3-.3.6-.3 1Zm21 11.9c-1 0-1.8-.2-2.4-.5-.7-.3-1.3-.7-1.7-1.2l-.9-1.4 1.7-.8a3.4 3.4 0 0 0 3.3 2.2c1.2 0 2-.3 2.7-1a4 4 0 0 0 1-2.9v-1.2h-.1a4.4 4.4 0 0 1-3.8 2 5 5 0 0 1-2.7-.8 5.4 5.4 0 0 1-1.9-2.1c-.5-.9-.7-2-.7-3a6 6 0 0 1 .7-3.1c.5-1 1.1-1.6 1.9-2.1a5 5 0 0 1 2.7-.8 4.5 4.5 0 0 1 3.8 2v-1.6h1.9v10.8a6 6 0 0 1-.8 3c-.4.9-1 1.5-2 1.9a6 6 0 0 1-2.7.6Zm0-6.6c.7 0 1.3-.1 1.8-.5.6-.3 1-.8 1.4-1.4a5.6 5.6 0 0 0 0-4.6c-.4-.6-.8-1-1.4-1.4a3.6 3.6 0 0 0-5 1.5c-.3.6-.5 1.3-.5 2.2 0 1 .2 1.7.5 2.3.4.6.8 1.1 1.4 1.4.5.4 1.2.5 1.8.5Zm11.7 1.9a5 5 0 0 1-2.2-.5 5 5 0 0 1-1.5-1.4c-.4-.5-.5-1.2-.5-1.9 0-.8.2-1.5.6-2 .4-.6 1-1 1.7-1.3a6 6 0 0 1 2.4-.5 6.8 6.8 0 0 1 2.5.4l.7.4v-.7c0-.9-.3-1.6-.9-2-.6-.6-1.3-.8-2.2-.8-.6 0-1.2.1-1.7.4-.6.3-1 .7-1.3 1.1l-1.4-1c.3-.5.7-.8 1.1-1.2.4-.3 1-.5 1.5-.7l1.8-.3a5 5 0 0 1 3.6 1.2c.9.8 1.3 2 1.3 3.3V49H555v-1.6a4 4 0 0 1-2 1.6c-.5.2-1 .3-1.6.3Zm.2-1.7a3.7 3.7 0 0 0 3-1.8c.4-.5.5-1.1.5-1.8l-1.3-.5c-.5-.2-1-.3-1.6-.3a4 4 0 0 0-2.4.7 2 2 0 0 0-.7 1.6c0 .6.2 1.1.7 1.5.5.4 1 .6 1.8.6Zm11.7 1.7c-.8 0-1.6-.2-2.2-.4-.6-.3-1.2-.7-1.6-1.1a5 5 0 0 1-1-1.6l1.7-.7c.3.7.8 1.2 1.3 1.6.6.3 1.2.5 2 .5.6 0 1.2-.1 1.7-.4.4-.3.7-.7.7-1.2 0-.4-.1-.7-.3-.9l-.9-.6-1.3-.4-1.4-.4-1.5-.6-1.1-1c-.3-.4-.4-1-.4-1.5 0-.7.2-1.3.6-1.8a3 3 0 0 1 1.5-1c.7-.3 1.4-.5 2-.5.7 0 1.3.1 1.9.3.6.2 1 .5 1.5.8l1 1.3-1.7.8a2 2 0 0 0-1-1.2 3.6 3.6 0 0 0-3.3.1c-.4.3-.6.6-.6 1.1 0 .5.1.8.5 1 .4.3.9.5 1.4.6l1.6.5c1.1.2 2 .7 2.5 1.2.6.6.8 1.2.8 2 0 .7-.2 1.3-.5 1.8-.4.6-1 1-1.7 1.2a5 5 0 0 1-2.2.5Zm16.6 0c-1 0-2-.3-3-.8a5.5 5.5 0 0 1-1.9-2.1 6.7 6.7 0 0 1 0-6c.4-1 1-1.7 1.9-2.2a5 5 0 0 1 2.8-.9c1.2 0 2.1.3 2.9.8.8.5 1.4 1.1 1.8 2a6.5 6.5 0 0 1 .7 3.5h-9c.1.8.3 1.5.6 2a3.6 3.6 0 0 0 3.3 2c.8 0 1.5-.2 2-.6.5-.4 1-.9 1.3-1.5l1.6.8a5 5 0 0 1-2 2.1c-.7.6-1.8.9-3 .9Zm-3.6-7.2h6.8c0-.3 0-.6-.2-1a2 2 0 0 0-.6-1l-1-.8c-.4-.2-1-.3-1.6-.3-.7 0-1.3.2-1.9.6-.5.4-1 .9-1.2 1.5l-.3 1Zm11 6.8V37.8h1.8v1.6l.9-1a4.3 4.3 0 0 1 2.7-1c.8 0 1.5.2 2.1.6.6.4 1 1 1.3 1.6a8 8 0 0 1 1.6-1.6c.6-.4 1.4-.6 2.3-.6 1.3 0 2.3.4 3 1.2a5 5 0 0 1 .9 3.2V49H602v-7c0-1-.2-1.8-.6-2.2-.5-.5-1.1-.7-2-.7a3 3 0 0 0-1.5.5l-1 1.3a4 4 0 0 0-.4 1.8V49h-1.9v-6.9c0-1-.2-1.8-.6-2.3-.5-.5-1-.7-1.9-.7a3 3 0 0 0-1.5.5c-.4.4-.8.8-1 1.3a4 4 0 0 0-.4 1.8V49h-1.9Zm19.4 0V37.8h1.9V49h-1.9Zm1-13.3c-.4 0-.7-.1-1-.4-.3-.2-.4-.6-.4-1 0-.3.1-.6.4-.9.3-.2.6-.4 1-.4.3 0 .6.2.9.4.3.3.4.6.4 1 0 .3-.1.7-.4 1-.3.2-.6.3-1 .3Zm7.7 13.7c-.8 0-1.6-.2-2.2-.4-.6-.3-1.2-.7-1.6-1.1a5 5 0 0 1-.9-1.6l1.7-.7a4 4 0 0 0 1.2 1.6c.6.3 1.2.5 2 .5.6 0 1.2-.1 1.7-.4.4-.3.7-.7.7-1.2 0-.4-.1-.7-.3-.9l-.8-.6-1.4-.4-1.4-.4c-.5-.1-1-.3-1.4-.6a4 4 0 0 1-1.2-1c-.3-.4-.4-1-.4-1.5 0-.7.2-1.3.6-1.8a3 3 0 0 1 1.5-1c.7-.3 1.4-.5 2.1-.5.7 0 1.3.1 1.8.3.6.2 1 .5 1.5.8.4.4.8.8 1 1.3l-1.6.8c-.3-.6-.7-1-1.2-1.2a3.6 3.6 0 0 0-3.1.1c-.5.3-.7.6-.7 1.1 0 .5.2.8.5 1 .4.3.9.5 1.4.6l1.6.5c1.1.2 2 .7 2.5 1.2.6.6.9 1.2.9 2 0 .7-.2 1.3-.6 1.8-.4.6-1 1-1.6 1.2a6 6 0 0 1-2.3.5Zm10.4 0c-.8 0-1.6-.2-2.2-.4-.6-.3-1.2-.7-1.6-1.1a5 5 0 0 1-1-1.6l1.8-.7a4 4 0 0 0 1.2 1.6c.6.3 1.2.5 2 .5.6 0 1.2-.1 1.7-.4.4-.3.7-.7.7-1.2 0-.4-.1-.7-.3-.9l-.8-.6-1.4-.4-1.4-.4c-.5-.1-1-.3-1.4-.6a4 4 0 0 1-1.2-1c-.3-.4-.4-1-.4-1.5 0-.7.2-1.3.6-1.8a3 3 0 0 1 1.5-1c.7-.3 1.4-.5 2.1-.5.7 0 1.3.1 1.8.3.6.2 1 .5 1.5.8.4.4.8.8 1 1.3l-1.6.8c-.3-.6-.7-1-1.2-1.2a3.6 3.6 0 0 0-3.1.1c-.5.3-.7.6-.7 1.1 0 .5.2.8.5 1 .4.3.9.5 1.4.6l1.6.5c1.1.2 2 .7 2.5 1.2.6.6.9 1.2.9 2 0 .7-.2 1.3-.6 1.8-.4.6-1 1-1.6 1.2a6 6 0 0 1-2.3.5Zm6.6-.4V37.8h1.8V49h-1.8Zm.9-13.3c-.4 0-.7-.1-1-.4-.2-.2-.3-.6-.3-1 0-.3 0-.6.4-.9.2-.2.5-.4.9-.4s.7.2 1 .4c.2.3.3.6.3 1 0 .3 0 .7-.4 1-.2.2-.5.3-.9.3Zm9 13.7a5.6 5.6 0 0 1-5.1-3 6 6 0 0 1-.7-3 6 6 0 0 1 2.7-5.2c.9-.5 1.9-.8 3-.8a5.5 5.5 0 0 1 5 3 6.2 6.2 0 0 1 0 6 5.6 5.6 0 0 1-5 3Zm0-1.7a3.8 3.8 0 0 0 3.3-2c.3-.6.5-1.4.5-2.3 0-.9-.2-1.7-.5-2.3a3.8 3.8 0 0 0-3.4-2 3.9 3.9 0 0 0-3.3 2c-.4.6-.6 1.4-.6 2.3 0 .9.2 1.7.6 2.3a3.8 3.8 0 0 0 3.3 2Zm7.6 1.3V37.8h1.8v1.6h.1c.3-.5.8-1 1.4-1.4.7-.4 1.5-.6 2.2-.6 1.4 0 2.5.4 3.1 1.2.8.8 1.1 1.9 1.1 3.2V49h-1.9v-7c0-1-.2-1.8-.8-2.2a3 3 0 0 0-2-.7 3 3 0 0 0-1.6.5c-.5.4-.8.8-1 1.4-.4.5-.5 1-.5 1.7V49H650Zm16.2.4c-.9 0-1.6-.2-2.2-.4a5 5 0 0 1-1.6-1.1 5 5 0 0 1-1-1.6l1.7-.7a3.4 3.4 0 0 0 3.2 2.1c.7 0 1.3-.1 1.7-.4.5-.3.7-.7.7-1.2 0-.4 0-.7-.2-.9l-.9-.6-1.3-.4-1.4-.4-1.5-.6c-.5-.3-.8-.6-1.1-1-.3-.4-.4-1-.4-1.5 0-.7.1-1.3.5-1.8s1-.8 1.6-1a5 5 0 0 1 3.9-.2c.6.2 1 .5 1.5.8l1 1.3-1.7.8c-.3-.6-.6-1-1.1-1.2a3.6 3.6 0 0 0-3.2.1c-.4.3-.7.6-.7 1.1 0 .5.2.8.6 1 .4.3.8.5 1.4.6l1.6.5c1.1.2 2 .7 2.5 1.2.6.6.8 1.2.8 2 0 .7-.2 1.3-.6 1.8-.4.6-.9 1-1.6 1.2a5 5 0 0 1-2.2.5Zm11.8-.4V37.8h1.8V49H678Zm.9-13.3c-.4 0-.7-.1-1-.4-.2-.2-.4-.6-.4-1 0-.3.2-.6.4-.9.3-.2.6-.4 1-.4s.7.2 1 .4c.2.3.3.6.3 1 0 .3-.1.7-.4 1-.2.2-.5.3-1 .3Zm3.8 13.3V37.8h1.8v1.6h.1c.3-.5.8-1 1.4-1.4.7-.4 1.5-.6 2.2-.6 1.4 0 2.5.4 3.1 1.2.8.8 1.1 1.9 1.1 3.2V49h-1.9v-7c0-1-.2-1.8-.8-2.2a3 3 0 0 0-2-.7 3 3 0 0 0-1.6.5c-.5.4-.8.8-1 1.4-.4.5-.5 1-.5 1.7V49h-1.9Zm22.8.4c-1.1 0-2.1-.3-3-.8a5.6 5.6 0 0 1-2-2.2 7 7 0 0 1-.7-3.2v-10h1.8v10c0 .9.2 1.6.5 2.3.3.6.7 1.1 1.3 1.5a4 4 0 0 0 2.1.6 4 4 0 0 0 2.2-.6c.6-.4 1-.9 1.3-1.5.3-.7.5-1.4.5-2.2v-10h1.9v9.9c0 1.2-.3 2.3-.8 3.2a4 4 0 0 1-2 2.2 6 6 0 0 1-3 .8Zm8.6-.4V37.8h1.8v1.6h.1c.3-.5.8-1 1.4-1.4.7-.4 1.4-.6 2.2-.6 1.4 0 2.4.4 3.1 1.2.7.8 1 1.9 1 3.2V49h-1.8v-7c0-1-.2-1.8-.8-2.2a3 3 0 0 0-2-.7 3 3 0 0 0-1.6.5c-.5.4-.8.8-1.1 1.4a3 3 0 0 0-.4 1.7V49H714Zm12.5 0V37.8h2V49h-2Zm1-13.3c-.4 0-.7-.1-1-.4-.2-.2-.4-.6-.4-1 0-.3.2-.6.4-.9.3-.2.6-.4 1-.4.3 0 .7.2 1 .4.2.3.3.6.3 1 0 .3-.1.7-.4 1-.2.2-.6.3-1 .3Zm3 2h2v-3h1.8v3h2.7v1.8h-2.7v6c0 .7.1 1.1.3 1.5.3.3.7.4 1.2.4h.7l.6-.3v1.8l-.7.2h-.9c-1 0-1.7-.2-2.2-.7a3 3 0 0 1-.9-2.3v-6.6h-2v-1.7Zm13.3 11.7c-1.1 0-2.1-.3-3-.8a5.5 5.5 0 0 1-2-2.1 8 8 0 0 1 0-6c.5-1 1.1-1.7 2-2.2a5 5 0 0 1 2.8-.9c1.1 0 2 .3 2.9.8.8.5 1.4 1.1 1.8 2a6.5 6.5 0 0 1 .6 3.5H740c0 .8.3 1.5.6 2a3.6 3.6 0 0 0 3.2 2c.8 0 1.5-.2 2-.6.6-.4 1-.9 1.3-1.5l1.6.8c-.4.9-1 1.6-1.9 2.1-.8.6-1.8.9-3 .9Zm-3.7-7.2h6.9l-.2-1a2 2 0 0 0-.6-1l-1-.8c-.5-.2-1-.3-1.6-.3-.7 0-1.4.2-2 .6-.4.4-.8.9-1.1 1.5l-.4 1Zm16 7.2a5 5 0 0 1-4.7-3c-.5-.8-.7-1.9-.7-3 0-1.2.2-2.2.7-3 .4-1 1-1.7 1.9-2.2a5 5 0 0 1 4.4-.5 4.5 4.5 0 0 1 2.2 1.8v-6.3h1.8V49H760v-1.6h-.1l-1 1a4.5 4.5 0 0 1-2.9 1Zm.1-1.7c.7 0 1.3-.2 1.8-.5a4 4 0 0 0 1.4-1.5c.4-.7.6-1.4.6-2.3 0-.9-.2-1.6-.6-2.3a3.7 3.7 0 0 0-3.2-2 4 4 0 0 0-1.8.5c-.5.4-1 .9-1.4 1.5a5.6 5.6 0 0 0 0 4.6 3.5 3.5 0 0 0 3.2 2Zm-344 29.7a5.7 5.7 0 0 1-4.3-2c-.6-.6-1-1.4-1.2-2.3l1.7-.7c.3.9.7 1.6 1.4 2.2.7.7 1.5 1 2.4 1a4 4 0 0 0 1.6-.3 4 4 0 0 0 1.2-1c.3-.4.5-.9.5-1.5 0-.5-.2-1-.4-1.3a4 4 0 0 0-1.2-1c-.5-.3-1.1-.6-1.9-.8l-1-.4-1.3-.5a7 7 0 0 1-1.2-.9 4 4 0 0 1-1-1.2l-.2-1.6c0-.8.2-1.5.6-2.1.4-.6 1-1.2 1.7-1.5.7-.4 1.5-.6 2.4-.6a5 5 0 0 1 4.9 3.2l-1.7.7-.6-1c-.2-.3-.5-.5-1-.8-.4-.2-.9-.3-1.5-.3-.5 0-1 0-1.5.3-.4.2-.8.5-1 .8a2 2 0 0 0-.5 1.3c0 .6.3 1.2.8 1.5.6.4 1.3.8 2.2 1l1 .4 1.4.6 1.4 1a4.2 4.2 0 0 1 1.5 3.2 4 4 0 0 1-.5 2 4 4 0 0 1-1.3 1.5 6.3 6.3 0 0 1-3.5 1Zm6.2-11.6h2v-3.2h1.8v3.2h2.8v1.7h-2.8v6c0 .7.2 1.1.4 1.5.2.3.6.4 1.2.4h.7l.5-.3v1.8l-.6.2h-1c-.8 0-1.6-.2-2.2-.7a3 3 0 0 1-.8-2.3v-6.6h-2v-1.7Zm12.2 11.6a5 5 0 0 1-2.2-.5 5 5 0 0 1-1.5-1.4c-.4-.5-.5-1.2-.5-1.9 0-.8.2-1.5.6-2 .4-.6 1-1 1.7-1.3a6 6 0 0 1 2.4-.5 6.8 6.8 0 0 1 2.5.4l.7.4v-.7c0-.9-.3-1.6-.9-2-.6-.6-1.3-.8-2.2-.8-.6 0-1.2.1-1.7.4-.6.3-1 .7-1.3 1.1l-1.4-1c.3-.5.7-.8 1.1-1.2.4-.3 1-.5 1.5-.7l1.8-.3a5 5 0 0 1 3.6 1.2c.9.8 1.3 2 1.3 3.3V77h-1.8v-1.6A4 4 0 0 1 432 77c-.4.2-1 .3-1.5.3Zm.2-1.7a3.7 3.7 0 0 0 3-1.8c.3-.5.5-1.1.5-1.8l-1.3-.5c-.5-.2-1-.3-1.6-.3a4 4 0 0 0-2.4.7 2 2 0 0 0-.7 1.6c0 .7.2 1.1.7 1.5.5.4 1 .6 1.8.6Zm6.9-10h2v-3h1.8v3h2.8v1.8h-2.8v6c0 .7.1 1.1.4 1.5.2.3.6.4 1.2.4h.7l.5-.3v1.8l-.6.2h-1c-.9 0-1.6-.2-2.2-.7a3 3 0 0 1-.8-2.3v-6.6h-2v-1.7ZM451 77.5a5.5 5.5 0 0 1-4.9-2.9 6.7 6.7 0 0 1 0-6c.4-1 1-1.7 1.9-2.2a5 5 0 0 1 2.9-.9 5.4 5.4 0 0 1 4.7 2.8 6.5 6.5 0 0 1 .6 3.5h-9c.1.8.3 1.5.6 2a3.6 3.6 0 0 0 3.3 2c.8 0 1.5-.2 2-.6.5-.4 1-.9 1.3-1.5l1.6.8c-.5.9-1 1.6-2 2.1-.7.6-1.8.9-3 .9Zm-3.6-7.2h6.8c0-.3 0-.6-.2-1 0-.4-.3-.7-.6-1-.2-.3-.6-.6-1-.8-.4-.2-1-.3-1.5-.3-.8 0-1.4.2-2 .6a4.3 4.3 0 0 0-1.5 2.5Zm15 7.2c-.8 0-1.5-.2-2.2-.4l-1.6-1.1a5 5 0 0 1-.9-1.6l1.7-.7a3.4 3.4 0 0 0 3.2 2.1 3 3 0 0 0 1.7-.4c.5-.3.7-.7.7-1.2 0-.4-.1-.7-.3-.9l-.8-.6-1.4-.4-1.3-.4c-.6-.1-1-.3-1.5-.6s-.9-.6-1.2-1c-.3-.4-.4-1-.4-1.5 0-.7.2-1.3.6-1.8.4-.5 1-.8 1.6-1a4.8 4.8 0 0 1 3.8-.2c.6.2 1.1.5 1.5.8.4.4.8.8 1 1.3l-1.6.8c-.3-.6-.7-1-1.2-1.2-.4-.2-1-.3-1.5-.3a3 3 0 0 0-1.6.4c-.5.3-.7.6-.7 1.1 0 .5.2.8.5 1 .4.3.9.5 1.4.6l1.7.5A5 5 0 0 1 466 72c.6.6.9 1.2.9 2 0 .7-.2 1.3-.6 1.8-.4.6-1 1-1.6 1.2-.7.3-1.4.5-2.3.5ZM478 80a19 19 0 0 1-2.6-4.2l-1-2.7a13.7 13.7 0 0 1 1-9 16.8 16.8 0 0 1 2.6-4.3l1.4 1a15.5 15.5 0 0 0-3 5.7 12.8 12.8 0 0 0 0 6.8 16.3 16.3 0 0 0 3 5.7l-1.4 1Zm2.8-3v-1.9l.6-.5 1.1-1.1a129.1 129.1 0 0 1 3.9-4l1-1.3.7-1 .2-1.3-.3-1.2-1-1a3 3 0 0 0-1.6-.3c-.6 0-1 .1-1.5.4a2 2 0 0 0-.9.9c-.2.3-.4.6-.4.9l-1.7-.7c0-.3.2-.6.4-1 .3-.4.6-.8 1-1a4.6 4.6 0 0 1 3.2-1.3c1 0 1.7.2 2.5.6.7.4 1.2 1 1.6 1.6.4.6.6 1.3.6 2.1 0 .7-.2 1.3-.4 1.9a11 11 0 0 1-2 2.9l-.8.8a81.7 81.7 0 0 0-2.2 2.2l-1 1a9 9 0 0 1-.6.5h7.1V77h-9.5Zm17.7.4A5.1 5.1 0 0 1 494 75a8 8 0 0 1-1.2-2.5 11 11 0 0 1 1.2-8.7c.6-.7 1.2-1.3 2-1.7a5 5 0 0 1 2.4-.6c1 0 1.8.2 2.5.6.8.4 1.4 1 2 1.7a8 8 0 0 1 1.1 2.5 11 11 0 0 1-1.2 8.7 5.1 5.1 0 0 1-4.4 2.3Zm0-1.8c.9 0 1.6-.3 2.2-.8.6-.6 1.1-1.3 1.4-2.2.4-1 .5-2 .5-3.1a9 9 0 0 0-.5-3.1 5 5 0 0 0-1.4-2.2c-.6-.5-1.3-.8-2.2-.8-.8 0-1.6.3-2.2.8a6 6 0 0 0-1.4 2.2 9.3 9.3 0 0 0 0 6.2c.3.9.8 1.6 1.4 2.2.6.5 1.4.8 2.2.8ZM510 77V64.6l-2.6 1.9-1-1.5 4.3-3h1.2v15H510Zm5 0v-1.9l.5-.5 1.1-1.1a129.1 129.1 0 0 1 3.9-4l1-1.3.7-1 .2-1.3-.3-1.2-1-1a3 3 0 0 0-1.6-.3c-.5 0-1 .1-1.5.4a2 2 0 0 0-.9.9l-.4.9-1.7-.7c0-.3.2-.6.4-1 .3-.4.6-.8 1-1a4.6 4.6 0 0 1 3.2-1.3c1 0 1.8.2 2.5.6.7.4 1.2 1 1.6 1.6.4.6.6 1.3.6 2.1a4 4 0 0 1-.4 1.9 4 4 0 0 1-1 1.6c-.3.5-.6 1-1 1.3l-.8.8a81.7 81.7 0 0 0-2.2 2.2l-1 1a9 9 0 0 1-.5.5h7V77H515Zm12-6v-1.6h6.9V71h-7Zm9.3 6v-1.9l.5-.5 1.1-1.1a129.1 129.1 0 0 1 3.9-4l1-1.3.7-1 .2-1.3-.3-1.2-1-1a3 3 0 0 0-1.6-.3c-.6 0-1 .1-1.5.4a2 2 0 0 0-.9.9c-.2.3-.4.6-.4.9l-1.7-.7c0-.3.2-.6.4-1 .3-.4.6-.8 1-1a4.6 4.6 0 0 1 3.2-1.3c1 0 1.8.2 2.5.6.7.4 1.2 1 1.6 1.6.4.6.6 1.3.6 2.1a4 4 0 0 1-.4 1.9 4 4 0 0 1-1 1.6l-1 1.3-.8.8a81.7 81.7 0 0 0-2.2 2.2l-1 1a9 9 0 0 1-.5.5h7V77h-9.4Zm17.6.4a5.1 5.1 0 0 1-4.3-2.3 8 8 0 0 1-1.3-2.5 11 11 0 0 1 1.3-8.7c.5-.7 1.1-1.3 1.8-1.7a5 5 0 0 1 2.5-.6c1 0 1.8.2 2.5.6.8.4 1.4 1 2 1.7a8 8 0 0 1 1.1 2.5 11 11 0 0 1-1.2 8.7c-.5.7-1.1 1.2-1.9 1.7-.7.4-1.5.6-2.5.6Zm0-1.8c.9 0 1.6-.3 2.2-.8.6-.6 1.1-1.3 1.4-2.2.4-1 .5-2 .5-3.1a9 9 0 0 0-.5-3.1 5 5 0 0 0-1.4-2.2c-.6-.5-1.3-.8-2.2-.8-.8 0-1.6.3-2.2.8a6 6 0 0 0-1.4 2.2 9.3 9.3 0 0 0 0 6.2 7 7 0 0 0 1.4 2.2c.6.5 1.4.8 2.2.8Zm7.9 1.4v-1.9l.5-.5 1.2-1.1a129.1 129.1 0 0 1 3.8-4l1.1-1.3.6-1c.2-.4.2-.8.2-1.3 0-.4 0-.8-.3-1.2-.2-.4-.5-.7-1-1a3 3 0 0 0-1.5-.3c-.6 0-1.1.1-1.5.4-.4.2-.7.5-1 .9l-.4.9-1.7-.7.5-1c.2-.4.5-.8.9-1a4.6 4.6 0 0 1 3.2-1.3c1 0 1.8.2 2.5.6a4 4 0 0 1 1.6 1.6c.4.6.6 1.3.6 2.1 0 .7-.1 1.3-.3 1.9l-1 1.6-1 1.3-.9.8a81.7 81.7 0 0 0-2.2 2.2l-1 1a9 9 0 0 1-.5.5h7.1V77h-9.5Zm17.7.4A5.1 5.1 0 0 1 575 75a8 8 0 0 1-1.2-2.5 11 11 0 0 1 1.2-8.7c.5-.7 1.2-1.3 1.9-1.7a5 5 0 0 1 2.5-.6c.9 0 1.7.2 2.5.6.7.4 1.3 1 1.9 1.7a8 8 0 0 1 1.2 2.5 11 11 0 0 1-1.2 8.7c-.6.7-1.2 1.2-2 1.7-.7.4-1.5.6-2.4.6Zm0-1.8c.8 0 1.6-.3 2.2-.8a7 7 0 0 0 1.4-2.2c.3-1 .5-2 .5-3.1a9 9 0 0 0-.5-3.1 5 5 0 0 0-1.4-2.2c-.6-.5-1.4-.8-2.2-.8-.9 0-1.6.3-2.2.8a5 5 0 0 0-1.4 2.2c-.4.9-.5 2-.5 3 0 1.2.1 2.2.5 3.2.3.9.8 1.6 1.4 2.2.6.5 1.3.8 2.2.8Zm8.9 4.4-1.4-1a14.6 14.6 0 0 0 3-5.7 12.3 12.3 0 0 0 0-6.8 14.6 14.6 0 0 0-3-5.7l1.4-1a17 17 0 0 1 3.9 10.1 16.2 16.2 0 0 1-4 10ZM409.5 336.2c-.6 0-1-.1-1.5-.3l-1-.8c-.3-.4-.5-.8-.5-1.3l1.2-.3c0 .5.2.8.5 1.1.3.3.7.4 1.3.4l.8-.1.6-.4.1-.6-.1-.7-.6-.4-1-.3-.5-.2-.8-.3-.6-.4a1.9 1.9 0 0 1-.7-1.5c0-.4.1-.8.4-1 .2-.4.5-.7.9-.9.4-.2.8-.3 1.4-.3.5 0 1 .1 1.4.3l.9.8.4 1-1.2.2-.2-.6-.6-.4-.7-.1a2 2 0 0 0-.8.1c-.2 0-.4.2-.5.3l-.2.6c0 .3.2.5.4.7l1.2.5.5.2.9.3.7.5a2 2 0 0 1 .6 1.5c0 .4 0 .8-.2 1a2 2 0 0 1-.6.8c-.2.2-.5.3-.9.4l-1 .2Zm6.7 0c-.6 0-1.1-.2-1.5-.4-.5-.3-.8-.6-1-1.1-.2-.5-.4-1-.4-1.6 0-.6.2-1.1.4-1.6a2 2 0 0 1 1-1 2.8 2.8 0 0 1 3 0c.4.2.7.6 1 1 .2.5.3 1 .3 1.6 0 .6-.1 1.1-.3 1.6a2.6 2.6 0 0 1-2.5 1.5Zm0-1.1c.3 0 .6 0 .8-.2.3-.2.5-.4.6-.7.2-.3.2-.7.2-1 0-.5 0-.9-.2-1.2a1.5 1.5 0 0 0-1.4-.9l-.9.3-.6.6-.2 1.1c0 .4 0 .8.2 1l.6.8.9.2Zm6.1 1c-.6 0-1.2-.1-1.5-.5-.3-.4-.5-1-.5-1.6v-3.8h1.2v3.6c0 .5 0 .8.3 1 .2.2.5.3.8.3.3 0 .6 0 .8-.2l.4-.6c.2-.2.2-.5.2-.8v-3.3h1.2v5.8h-1.1v-.7l-.5.4-.6.4a2 2 0 0 1-.7 0Zm4.6-.1v-5.8h1.1v.8a1.6 1.6 0 0 1 1.6-1 2.1 2.1 0 0 1 .5.1v1.2h-.3l-.4-.1c-.3 0-.5 0-.7.2l-.5.5-.1.8v3.3h-1.2Zm6.6.2a2.7 2.7 0 0 1-2.4-1.5c-.3-.4-.4-1-.4-1.6 0-.6.1-1.2.4-1.6a2.6 2.6 0 0 1 2.4-1.5c.7 0 1.3.2 1.7.6.5.3.8.8.9 1.4l-1.2.2c0-.4-.2-.6-.5-.8-.2-.2-.5-.3-.9-.3-.3 0-.6.1-.8.3l-.6.6-.2 1.1c0 .4 0 .8.2 1.1l.6.7.8.2c.4 0 .7-.1.9-.3.2-.2.4-.4.5-.8l1.1.3c-.1.5-.4 1-.8 1.3-.4.4-1 .6-1.7.6Zm6.2 0c-.5 0-1-.2-1.4-.4-.4-.3-.7-.6-1-1.1-.2-.5-.3-1-.3-1.6 0-.6.1-1.1.3-1.6.3-.5.6-.8 1-1 .4-.3 1-.5 1.4-.5.6 0 1.1.1 1.5.4.4.2.7.5.9 1a3.3 3.3 0 0 1 .3 1.7v.3h-4.2c0 .3 0 .6.2.8 0 .3.3.5.5.7l.9.2c.4 0 .7 0 1-.2l.4-.7 1 .2c0 .5-.4 1-.8 1.3-.4.3-1 .5-1.7.5Zm-1.5-3.7h3v-.6l-.4-.5-.4-.3a1.7 1.7 0 0 0-1.5.2c-.2.1-.4.4-.5.7l-.2.5Zm6.3-.7a.8.8 0 0 1-.8-.9c0-.2 0-.4.2-.6l.6-.2c.2 0 .4 0 .6.2l.2.6c0 .3 0 .5-.2.6l-.6.3Zm0 4.3a.8.8 0 0 1-.8-.9c0-.2 0-.4.2-.5l.6-.3.6.3.2.5c0 .3 0 .5-.2.6l-.6.3Z"/>
  <path fill="#0B57D0" d="M452.3 336.2a2.7 2.7 0 0 1-2.4-1.5c-.3-.4-.4-1-.4-1.6 0-.6.1-1.2.3-1.6a2.6 2.6 0 0 1 2.5-1.5c.7 0 1.3.2 1.7.6.4.3.7.8.8 1.4l-1.1.2c-.1-.4-.3-.6-.5-.8-.2-.2-.5-.3-1-.3a1 1 0 0 0-.7.3c-.3.1-.5.3-.6.6-.2.3-.2.7-.2 1.1 0 .4 0 .8.2 1.1l.5.7.9.2.9-.3c.2-.2.4-.4.5-.8l1 .3c0 .5-.3 1-.8 1.3-.4.4-1 .6-1.6.6Zm3.8-.2v-8.5h1.2v8.5h-1.2Zm3 0v-5.8h1.1v5.8H459Zm.5-7c-.2 0-.4 0-.5-.2a.8.8 0 0 1-.3-.6l.3-.6.5-.2c.3 0 .4 0 .6.2.2.2.2.4.2.6 0 .2 0 .4-.2.6l-.6.2Zm2.3 7v-5.8h1.1v.7h.1l.4-.4c.2-.2.3-.3.5-.3l.7-.2c.4 0 .7.1 1 .3.3.2.5.4.6.7.1-.3.4-.5.7-.7.3-.2.6-.3 1-.3.7 0 1.1.2 1.4.6.3.3.5.8.5 1.5v3.9h-1.2v-3.8c0-.3 0-.6-.3-.8-.1-.2-.4-.3-.7-.3-.2 0-.4 0-.6.2l-.4.5-.2.8v3.4h-1.2v-3.7c0-.4 0-.7-.3-.9-.1-.2-.4-.3-.7-.3a1 1 0 0 0-.6.2l-.4.5-.2.8v3.4h-1.2Zm11.3.2-1-.2-.7-.7c-.2-.3-.3-.6-.3-1 0-.3.1-.7.3-1l.8-.5 1.2-.3a4.9 4.9 0 0 1 1 .2h.6v-.5a1 1 0 0 0-.4-.8c-.2-.3-.5-.4-1-.4-.3 0-.6.1-.8.3-.2.1-.4.4-.5.7l-1-.3c0-.3.2-.7.4-.9l.9-.6a3 3 0 0 1 1-.2 3 3 0 0 1 2 .6c.3.4.6 1 .6 1.7v3.7H475v-.7l-.5.4a2.2 2.2 0 0 1-1.4.5Zm.3-1c.3 0 .6 0 .8-.2a1.5 1.5 0 0 0 .8-1.3l-.7-.2h-.8c-.3 0-.6 0-.9.2-.2.1-.3.3-.3.7l.3.6.8.2Zm3.8-5h1v-1.6h1.1v1.6h1.4v1h-1.4v3l.2.6.6.2h.3l.3-.2v1.1a2.6 2.6 0 0 1-.9.2c-.5 0-.9-.2-1.2-.5-.3-.3-.4-.7-.4-1.2v-3.2h-1v-1Zm7 6c-.5 0-1-.2-1.4-.4-.4-.3-.8-.6-1-1.1-.2-.5-.3-1-.3-1.6 0-.6.1-1.1.3-1.6.3-.5.6-.8 1-1 .4-.3.9-.5 1.4-.5.6 0 1.1.1 1.5.4.4.2.7.5.9 1a3.3 3.3 0 0 1 .3 1.7v.3h-4.3l.2.8a1.5 1.5 0 0 0 1.5 1c.4 0 .7-.2 1-.3l.4-.7 1 .2c-.1.5-.4 1-.8 1.3-.4.3-1 .5-1.7.5Zm-1.5-3.7h3v-.6l-.4-.5-.4-.3a1.8 1.8 0 0 0-1.5.2l-.6.7-.1.5Zm5-2.3h.9v-1.6h1.2v1.6h1.3v1h-1.3v3l.1.6.6.2h.3l.3-.2v1.1a2.6 2.6 0 0 1-.9.2c-.5 0-.9-.2-1.2-.5-.3-.3-.4-.7-.4-1.2v-3.2h-1v-1Zm4.8 5.8v-5.8h1v.8h.1a1.6 1.6 0 0 1 1.5-1 2.1 2.1 0 0 1 .6.1v1.2h-.4l-.4-.1c-.2 0-.4 0-.6.2l-.5.5-.2.8v3.3h-1.1Zm6 .2-1-.2c-.3-.2-.6-.4-.7-.7-.2-.3-.3-.6-.3-1 0-.3.1-.7.3-1l.8-.5c.4-.2.7-.3 1.1-.3a4.9 4.9 0 0 1 1.2.2h.5v-.5a1 1 0 0 0-.4-.8c-.2-.3-.6-.4-1-.4-.3 0-.6.1-.8.3-.3.1-.4.4-.5.7l-1-.3c0-.3.2-.7.4-.9.2-.3.5-.4.9-.6a3 3 0 0 1 1-.2c.8 0 1.5.2 1.9.6.4.4.6 1 .6 1.7v3.7h-1.1v-.7l-.5.4a2.2 2.2 0 0 1-1.4.5Zm.3-1c.3 0 .6 0 .8-.2a1.5 1.5 0 0 0 .8-1.3l-.7-.2h-.8c-.4 0-.7 0-.9.2-.2.1-.3.3-.3.7l.3.6.8.2Zm6.7 1c-.5 0-1-.1-1.4-.4l-1-1c-.2-.5-.3-1-.3-1.7 0-.6.1-1.2.3-1.6a2.6 2.6 0 0 1 2.5-1.5c.7 0 1.2.2 1.7.6.4.3.7.8.8 1.4l-1.1.2c-.1-.4-.3-.6-.5-.8-.2-.2-.6-.3-1-.3l-.8.3a1 1 0 0 0-.5.6c-.2.3-.2.7-.2 1.1 0 .4 0 .8.2 1.1l.5.7.9.2.9-.3c.2-.2.4-.4.5-.8l1 .3c0 .5-.3 1-.8 1.3-.4.4-1 .6-1.7.6Zm6.3 0c-.6 0-1-.2-1.5-.4-.4-.3-.7-.6-1-1.1-.1-.5-.3-1-.3-1.6 0-.6.2-1.1.4-1.6s.6-.8 1-1c.4-.3.9-.5 1.4-.5.6 0 1 .1 1.5.4.4.2.7.5.8 1a3.3 3.3 0 0 1 .3 1.7v.3h-4.2c0 .3 0 .6.2.8.1.3.3.5.6.7l.8.2c.4 0 .8 0 1-.2l.5-.7 1 .2c-.1.5-.4 1-.8 1.3-.4.3-1 .5-1.7.5Zm-1.6-3.7h3v-.6l-.3-.5-.5-.3a1.7 1.7 0 0 0-1.4.2c-.3.1-.5.4-.6.7l-.2.5Zm6.3 3.6a.5.5 0 0 1-.5-.3.8.8 0 0 1-.3-.6c0-.2.1-.4.3-.5.1-.2.3-.3.5-.3.3 0 .5.1.6.3.2.1.3.3.3.5 0 .3-.1.5-.3.6-.1.2-.3.3-.6.3Zm5 0c-.6 0-1.1 0-1.5-.3-.5-.3-.8-.6-1-1.1a3 3 0 0 1-.4-1.6c0-.6.1-1.1.4-1.6a2 2 0 0 1 1-1 2.8 2.8 0 0 1 3 0c.4.2.7.6 1 1 .2.5.3 1 .3 1.6a3 3 0 0 1-.4 1.6 2.6 2.6 0 0 1-2.4 1.5Zm0-1c.3 0 .6 0 .8-.2.3-.2.5-.4.6-.7.2-.3.2-.7.2-1 0-.5 0-.9-.2-1.2a.9.9 0 0 0-.6-.6c-.2-.2-.5-.3-.8-.3-.4 0-.6.1-.9.3l-.6.6-.2 1.1c0 .4 0 .8.2 1l.6.8.9.2Zm4 .9v-5.8h1.2v.8a1.6 1.6 0 0 1 1.5-1 2.1 2.1 0 0 1 .6.1v1.2h-.4l-.4-.1c-.2 0-.4 0-.6.2l-.5.5-.2.8v3.3h-1.1Zm6.6 2.6a3 3 0 0 1-1.2-.3c-.4-.1-.6-.4-.9-.6l-.4-1 1.1-.2.5.7c.3.2.6.3 1 .3.5 0 .9-.2 1.1-.5.3-.3.4-.7.4-1.3v-.6a2 2 0 0 1-.8.6c-.2.2-.6.3-1 .3-.5 0-.9-.2-1.3-.4l-.9-1c-.2-.4-.3-1-.3-1.6 0-.6.1-1.2.3-1.6.3-.4.6-.8 1-1 .3-.2.7-.4 1.2-.4.4 0 .7.1 1 .3.3.1.6.3.7.6h.1v-.7h1.1v5.5c0 .6 0 1.1-.3 1.6-.2.4-.5.7-1 1a3 3 0 0 1-1.4.3Zm0-3.7c.3 0 .6 0 .8-.2.3-.2.5-.4.6-.7l.2-1c0-.4 0-.8-.2-1a1.5 1.5 0 0 0-1.3-.9c-.3 0-.6 0-.8.2-.3.2-.5.4-.6.7l-.2 1c0 .4 0 .8.2 1 .1.3.3.5.6.7l.8.2Z"/>
  <path fill="#1C1C1C" fill-opacity=".4" d="M426.1 120.1c-.6 0-1 0-1.5-.3-.5-.2-.8-.5-1-.9-.3-.3-.4-.7-.4-1.2a2.3 2.3 0 0 1 .8-1.8c.2-.2.5-.4.8-.4-.4-.2-.7-.4-1-.8l-.3-1.2c0-.5 0-.9.3-1.2.2-.4.6-.6 1-.8a3 3 0 0 1 1.3-.3c.5 0 1 0 1.4.3.4.2.7.4 1 .8.1.3.3.7.3 1.2 0 .4-.2.8-.4 1.2-.3.4-.6.6-1 .7l.9.5.6.8.2 1c0 .5-.1.9-.4 1.2-.2.4-.6.7-1 1l-1.6.2Zm0-1 1-.1c.3-.1.6-.3.7-.6.2-.2.2-.5.3-.8 0-.3-.1-.6-.3-.8-.2-.3-.4-.5-.7-.6-.3-.2-.6-.3-1-.3a2 2 0 0 0-1 .3c-.3.1-.5.3-.7.6l-.2.8c0 .3 0 .6.2.8.2.3.4.5.7.6l1 .2Zm0-4 .9-.2a1.4 1.4 0 0 0 .7-1.4c0-.3 0-.5-.2-.7-.1-.3-.3-.4-.5-.5-.3-.2-.6-.2-.9-.2-.3 0-.6 0-.8.2a1.3 1.3 0 0 0-.8 1.2c0 .3 0 .6.2.8.1.3.3.4.6.6l.8.1Zm4.8 4.9v-8.7h3c.6 0 1.1 0 1.5.3l1 .8.2 1.2c0 .4 0 .7-.2 1l-.5.5-.7.3v.1c.3 0 .5.1.8.3l.7.7c.2.3.2.7.2 1.2 0 .4 0 .8-.3 1.2a2 2 0 0 1-.9.8 4 4 0 0 1-1.7.3h-3Zm1-1h2.1c.7 0 1.2 0 1.5-.3.3-.3.4-.6.4-1 0-.3 0-.6-.2-.8-.1-.3-.4-.5-.6-.6a2 2 0 0 0-1-.3h-2.2v3Zm0-3.9h2c.3 0 .6 0 .9-.2l.6-.5.2-.8c0-.4-.1-.7-.4-1-.3-.3-.7-.4-1.3-.4h-2v3Zm-22 16.4v.8h-3.4v-.8h3.4Zm-2.4-1.6h1v6.2c0 .3 0 .5.2.7 0 .1.1.2.3.2l.4.1h.4l.2.9a2.2 2.2 0 0 1-.7 0 2 2 0 0 1-.8-.1c-.3-.1-.5-.3-.7-.6-.2-.2-.3-.5-.3-.9v-6.5Zm11.1 2.1h-1a2.2 2.2 0 0 0-1-1.4c-.2-.1-.4-.3-.7-.3a3 3 0 0 0-.8-.2 2.7 2.7 0 0 0-2.5 1.6c-.2.5-.3 1.2-.3 2 0 .7 0 1.3.3 1.9a2.7 2.7 0 0 0 2.5 1.6l.8-.2c.3 0 .5-.2.8-.3a2.2 2.2 0 0 0 .8-1.4h1.1a3.5 3.5 0 0 1-1.2 2c-.3.3-.7.5-1 .6a4 4 0 0 1-3.3-.3c-.6-.4-1-1-1.4-1.6-.3-.6-.5-1.4-.5-2.4 0-.9.2-1.7.5-2.3.4-.7.8-1.2 1.4-1.6.6-.4 1.2-.5 2-.5l1.2.1a3.4 3.4 0 0 1 1.9 1.5l.4 1.2Zm4.4 6.1c-.6 0-1.2-.2-1.6-.5a3 3 0 0 1-1-1.5c-.3-.7-.4-1.5-.4-2.5s0-1.7.3-2.4c.3-.6.6-1.2 1-1.5.5-.4 1-.5 1.7-.5.6 0 1.2.1 1.6.5.5.3.8.9 1 1.5.3.7.4 1.5.4 2.4 0 1 0 1.8-.3 2.5-.3.6-.6 1.1-1 1.5-.5.3-1 .5-1.7.5Zm0-1c.6 0 1.1-.2 1.5-.8.3-.7.5-1.5.5-2.7 0-.7 0-1.4-.2-1.9s-.4-1-.7-1.2c-.3-.3-.7-.4-1.1-.4-.6 0-1.1.3-1.5 1-.3.5-.5 1.4-.5 2.5 0 .8 0 1.4.2 2 .2.5.4.9.7 1.2.3.2.7.4 1.1.4Zm4.7.9v-.8l2.8-3.1a19.8 19.8 0 0 0 1.4-1.8l.1-.7a1.4 1.4 0 0 0-.8-1.3 2 2 0 0 0-.9-.2c-.3 0-.6 0-.8.2-.3.1-.5.3-.6.6l-.2.8h-1c0-.5.1-1 .3-1.3l1-1 1.4-.2c.5 0 1 0 1.3.3.4.2.7.5 1 .9a2.6 2.6 0 0 1 .2 2.2l-.7 1-1.1 1.3-2 2v.2h4v.9h-5.4Zm10 .1a3 3 0 0 1-1.7-.4 3 3 0 0 1-1-1.2 4 4 0 0 1-.4-1.7c0-.7.2-1.3.4-1.8s.6-1 1-1.2a3 3 0 0 1 1.6-.4l1 .1a2.5 2.5 0 0 1 1.5 1.6c.2.4.3 1 .3 1.5v.5h-5v-.9h4c0-.4-.1-.7-.3-1a1.7 1.7 0 0 0-1.5-1c-.4 0-.8.2-1 .4a2 2 0 0 0-.7.7l-.3 1v.6c0 .5.1 1 .3 1.3l.7.8 1 .2h.8l.6-.4.3-.6 1 .3-.5.9-1 .5c-.3.2-.7.2-1.1.2Zm-14.9 52.1v-.9l3.5-6h1l-3.4 6h5.2v1h-6.3Zm4.1 1.8v-5.5h1v5.5h-1Zm4 0v-8.7h3c.6 0 1.1 0 1.5.3l1 .8.2 1.2c0 .4 0 .7-.2 1l-.5.5-.7.3v.1c.3 0 .5.1.8.3l.7.7c.2.3.2.7.2 1.2 0 .4 0 .8-.3 1.2a2 2 0 0 1-.9.8 4 4 0 0 1-1.7.3h-3Zm1-1h2.1c.7 0 1.2 0 1.5-.3.3-.3.4-.6.4-1 0-.3 0-.6-.2-.8-.1-.3-.4-.5-.6-.6a2 2 0 0 0-1-.3h-2.2v3Zm0-3.9h2c.3 0 .6 0 .9-.2l.6-.5.2-.8c0-.4-.1-.7-.4-1-.3-.3-.7-.4-1.3-.4h-2v3Zm-22 16.4v.8h-3.4v-.8h3.4Zm-2.4-1.6h1v6.2c0 .3 0 .5.2.7 0 .1.1.2.3.2l.4.1h.4l.2.9a2.2 2.2 0 0 1-.7 0 2 2 0 0 1-.8-.1c-.3-.1-.5-.3-.7-.6-.2-.2-.3-.5-.3-.9v-6.5Zm11.1 2.1h-1a2.2 2.2 0 0 0-1-1.4c-.2-.1-.4-.3-.7-.3a3 3 0 0 0-.8-.2 2.7 2.7 0 0 0-2.5 1.6c-.2.5-.3 1.2-.3 2 0 .7 0 1.3.3 1.9a2.7 2.7 0 0 0 2.5 1.6l.8-.2c.3 0 .5-.2.8-.3a2.2 2.2 0 0 0 .8-1.4h1.1a3.5 3.5 0 0 1-1.2 2c-.3.3-.7.5-1 .6a4 4 0 0 1-3.3-.3c-.6-.4-1-1-1.4-1.6-.3-.6-.5-1.4-.5-2.4 0-.9.2-1.7.5-2.3.4-.7.8-1.2 1.4-1.6.6-.4 1.2-.5 2-.5l1.2.1a3.4 3.4 0 0 1 1.9 1.5l.4 1.2Zm4.4 6.1c-.6 0-1.2-.2-1.6-.5a3 3 0 0 1-1-1.5c-.3-.7-.4-1.5-.4-2.5s0-1.7.3-2.4c.3-.6.6-1.2 1-1.5.5-.4 1-.5 1.7-.5.6 0 1.2.1 1.6.5.5.3.8.9 1 1.5.3.7.4 1.5.4 2.4 0 1 0 1.8-.3 2.5-.3.6-.6 1.1-1 1.5-.5.3-1 .5-1.7.5Zm0-1c.6 0 1.1-.2 1.5-.8.3-.7.5-1.5.5-2.7 0-.7 0-1.4-.2-1.9s-.4-1-.7-1.2c-.3-.3-.7-.4-1.1-.4-.6 0-1.1.3-1.5 1-.3.5-.5 1.4-.5 2.5 0 .8 0 1.4.2 2 .2.5.4.9.7 1.2.3.2.7.4 1.1.4Zm4.7.9v-.8l2.8-3.1a19.8 19.8 0 0 0 1.4-1.8l.1-.7a1.4 1.4 0 0 0-.8-1.3 2 2 0 0 0-.9-.2c-.3 0-.6 0-.8.2-.3.1-.5.3-.6.6l-.2.8h-1c0-.5.1-1 .3-1.3l1-1 1.4-.2c.5 0 1 0 1.3.3.4.2.7.5 1 .9a2.6 2.6 0 0 1 .2 2.2l-.7 1-1.1 1.3-2 2v.2h4v.9h-5.4Zm10 .1a3 3 0 0 1-1.7-.4 3 3 0 0 1-1-1.2 4 4 0 0 1-.4-1.7c0-.7.2-1.3.4-1.8s.6-1 1-1.2a3 3 0 0 1 1.6-.4l1 .1a2.5 2.5 0 0 1 1.5 1.6c.2.4.3 1 .3 1.5v.5h-5v-.9h4c0-.4-.1-.7-.3-1a1.7 1.7 0 0 0-1.5-1c-.4 0-.8.2-1 .4a2 2 0 0 0-.7.7l-.3 1v.6c0 .5.1 1 .3 1.3l.7.8 1 .2h.8l.6-.4.3-.6 1 .3-.5.9-1 .5c-.3.2-.7.2-1.1.2Zm-.4 54c-.7 0-1.2-.2-1.7-.5a4 4 0 0 1-1-1.5c-.3-.7-.4-1.5-.4-2.5s.1-1.7.4-2.4c.2-.6.6-1.2 1-1.5.5-.4 1-.5 1.6-.5.7 0 1.2.1 1.7.5.4.3.8.9 1 1.5.3.7.4 1.5.4 2.4 0 1-.1 1.8-.4 2.5a4 4 0 0 1-1 1.5 3 3 0 0 1-1.6.5Zm0-1c.6 0 1-.2 1.4-.8.4-.7.6-1.5.6-2.7 0-.7-.1-1.4-.3-1.9a2 2 0 0 0-.7-1.2c-.3-.3-.6-.4-1-.4-.7 0-1.2.3-1.5 1-.4.5-.6 1.4-.6 2.5 0 .8.1 1.4.3 2 .1.5.4.9.7 1.2.3.2.6.4 1 .4Z"/>
  <g stroke="#1C1C1C" stroke-linecap="round">
    <path stroke-opacity=".1" d="M457.5 122.5h336m-336 36.5h336m-336 36.5h336m-336 36.5h336"/>
    <path stroke-opacity=".2" d="M457.5 268.5h336"/>
  </g>
  <path fill="#1C1C1C" fill-opacity=".4" d="M478 294v-.8l2.8-3.1a19.9 19.9 0 0 0 1.3-1.8l.2-.7a1.4 1.4 0 0 0-.8-1.3 2 2 0 0 0-.9-.2c-.3 0-.6 0-.9.2a1 1 0 0 0-.5.6c-.2.2-.2.5-.2.8h-1c0-.5 0-1 .3-1.3.2-.4.6-.7 1-1l1.3-.2c.6 0 1 0 1.4.3.4.2.7.5 1 .9a2.6 2.6 0 0 1 .2 2.2l-.7 1-1.2 1.3-2 2v.2h4.1v.9H478Zm10 .1c-.6 0-1.2-.2-1.6-.5a3 3 0 0 1-1-1.5c-.3-.7-.4-1.5-.4-2.5s.1-1.7.4-2.4c.2-.6.5-1.2 1-1.5.5-.4 1-.5 1.6-.5.7 0 1.2.1 1.7.5.4.3.8.9 1 1.5.2.7.4 1.5.4 2.4 0 1-.2 1.8-.4 2.5a4 4 0 0 1-1 1.5c-.5.3-1 .5-1.7.5Zm0-1c.7 0 1.2-.2 1.5-.8.4-.7.5-1.5.5-2.7 0-.7 0-1.4-.2-1.9s-.4-1-.7-1.2c-.3-.3-.6-.4-1-.4-.7 0-1.2.3-1.5 1-.4.5-.6 1.4-.6 2.5 0 .8.1 1.4.3 2 .1.5.3.9.6 1.2.3.2.7.4 1.1.4Zm7.5-7.8v8.7h-1v-7.2h-.1l-.3.3-.7.2-.9.2v-1l.9-.1.6-.4a2.7 2.7 0 0 0 .5-.7h1Zm5.2 8.8a3 3 0 0 1-1.3-.3c-.4-.2-.8-.5-1-.8-.2-.3-.4-.7-.4-1.2h1c0 .4.2.7.6 1 .3.3.7.4 1.1.4a1.8 1.8 0 0 0 1.6-1c.2-.3.3-.6.3-1a2 2 0 0 0-.3-1 1.8 1.8 0 0 0-1.7-1 2.7 2.7 0 0 0-1.5.5l-1-.1.6-4.3h4.5v1h-3.6l-.4 2.5h.1l.7-.4.8-.1a2.7 2.7 0 0 1 2.4 1.4c.3.5.4 1 .4 1.5 0 .6-.1 1-.4 1.5-.2.4-.6.8-1 1a3 3 0 0 1-1.5.4Zm44.8-.1v-.8l3-3.1a20.3 20.3 0 0 0 1.2-1.8l.2-.7a1.4 1.4 0 0 0-.8-1.3 2 2 0 0 0-.9-.2c-.3 0-.6 0-.9.2a1 1 0 0 0-.5.6c-.2.2-.2.5-.2.8h-1c0-.5 0-1 .3-1.3l1-1 1.4-.2c.5 0 1 0 1.3.3.4.2.7.5 1 .9a2.6 2.6 0 0 1 .2 2.2l-.7 1-1.2 1.3-2 2v.2h4.1v.9h-5.5Zm10.1.1a3 3 0 0 1-1.6-.5 3 3 0 0 1-1-1.5c-.3-.7-.4-1.5-.4-2.5s.1-1.7.4-2.4c.2-.6.6-1.2 1-1.5.5-.4 1-.5 1.6-.5.7 0 1.2.1 1.7.5.4.3.8.9 1 1.5.3.7.4 1.5.4 2.4 0 1-.1 1.8-.4 2.5a4 4 0 0 1-1 1.5c-.5.3-1 .5-1.7.5Zm0-1c.7 0 1.2-.2 1.5-.8.4-.7.5-1.5.5-2.7 0-.7 0-1.4-.2-1.9s-.4-1-.7-1.2c-.3-.3-.6-.4-1-.4-.7 0-1.2.3-1.5 1-.4.5-.6 1.4-.6 2.5 0 .8.1 1.4.3 2 .1.5.4.9.7 1.2.3.2.6.4 1 .4Zm7.5-7.8v8.7h-1v-7.2h-.1l-.3.3-.7.2-.9.2v-1l.9-.1.6-.4a2.7 2.7 0 0 0 .5-.7h1Zm2.3 6 .1-1 .4-.9.7-1.2 2-3h1.2l-2.3 3.4h.6c.5 0 1 0 1.4.3.4.2.8.6 1 1 .3.4.4.9.4 1.4 0 .6-.1 1-.4 1.5a2.7 2.7 0 0 1-2.4 1.4c-.5 0-1-.2-1.4-.5-.4-.2-.7-.5-1-1a3 3 0 0 1-.3-1.5Zm1 0c0 .4 0 .7.2 1l.6.7 1 .2c.3 0 .6 0 .8-.2.3-.2.5-.4.6-.7.2-.3.3-.6.3-1a2 2 0 0 0-.3-1 1.7 1.7 0 0 0-1.5-.9l-.9.3-.6.6a2 2 0 0 0-.2 1ZM613 294v-.8l2.8-3.1a19.8 19.8 0 0 0 1.3-1.8c.2-.2.2-.5.2-.7a1.4 1.4 0 0 0-.8-1.3 2 2 0 0 0-.9-.2c-.3 0-.6 0-.8.2-.3.1-.5.3-.6.6l-.2.8h-1c0-.5.1-1 .3-1.3l1-1 1.4-.2c.5 0 1 0 1.3.3.4.2.7.5 1 .9a2.6 2.6 0 0 1 .2 2.2l-.7 1-1.1 1.3-2 2v.2h4v.9H613Zm10 .1a3 3 0 0 1-1.6-.5 4 4 0 0 1-1-1.5c-.3-.7-.4-1.5-.4-2.5s.1-1.7.4-2.4c.2-.6.6-1.2 1-1.5.5-.4 1-.5 1.7-.5.6 0 1.1.1 1.6.5.4.3.8.9 1 1.5.3.7.4 1.5.4 2.4 0 1-.1 1.8-.4 2.5a4 4 0 0 1-1 1.5 3 3 0 0 1-1.6.5Zm0-1c.7 0 1.2-.2 1.5-.8.4-.7.6-1.5.6-2.7 0-.7-.1-1.4-.3-1.9a2 2 0 0 0-.7-1.2c-.3-.3-.6-.4-1-.4-.7 0-1.2.3-1.5 1-.4.5-.6 1.4-.6 2.5 0 .8.1 1.4.3 2 .1.5.4.9.7 1.2.3.2.6.4 1 .4Zm7.5-7.8v8.7h-1v-7.2h-.1l-.3.3-.7.2-.9.2v-1l1-.1.5-.4a2.7 2.7 0 0 0 .6-.7h1Zm2.8 8.7 3.9-7.7h-4.5v-1h5.6v1l-4 7.7h-1Zm46.7 0v-.8l3-3.1a20.3 20.3 0 0 0 1.3-1.8l.1-.7a1.4 1.4 0 0 0-.8-1.3 2 2 0 0 0-.8-.2c-.4 0-.7 0-1 .2l-.5.6-.2.8h-1c0-.5.1-1 .4-1.3.2-.4.5-.7 1-1l1.3-.2c.5 0 1 0 1.4.3.4.2.7.5.9.9a2.6 2.6 0 0 1 .2 2.2l-.6 1-1.2 1.3-2 2v.2h4v.9h-5.4Zm10.2.1c-.7 0-1.2-.2-1.7-.5a4 4 0 0 1-1-1.5c-.2-.7-.3-1.5-.3-2.5s0-1.7.3-2.4c.3-.6.6-1.2 1-1.5.5-.4 1-.5 1.7-.5.6 0 1.2.1 1.6.5.5.3.8.9 1 1.5a9 9 0 0 1 .1 4.9c-.3.6-.6 1.1-1 1.5-.5.3-1 .5-1.7.5Zm0-1c.6 0 1.1-.2 1.5-.8.3-.7.5-1.5.5-2.7 0-.7 0-1.4-.2-1.9s-.4-1-.7-1.2c-.3-.3-.7-.4-1.1-.4-.6 0-1.1.3-1.5 1-.3.5-.5 1.4-.5 2.5 0 .8 0 1.4.2 2 .2.5.4.9.7 1.2.3.2.7.4 1 .4Zm7.4-7.8v8.7h-1v-7.2l-.4.3-.6.2-1 .2v-1l1-.1.6-.4a2.7 2.7 0 0 0 .5-.7h1Zm5.3 8.8c-.6 0-1 0-1.5-.3-.5-.2-.8-.5-1-.9-.3-.3-.4-.7-.4-1.2a2.3 2.3 0 0 1 .8-1.8c.2-.2.5-.4.9-.4-.5-.2-.8-.4-1-.8a2 2 0 0 1-.4-1.2c0-.5.1-.9.3-1.2a3 3 0 0 1 2.3-1.1c.5 0 1 0 1.4.3.4.2.7.4 1 .8.2.3.3.7.3 1.2 0 .4-.2.8-.4 1.2-.3.4-.6.6-1 .7l.9.5.6.8.2 1c0 .5-.1.9-.4 1.2-.2.4-.6.7-1 1l-1.6.2Zm0-1 1-.1c.3-.1.6-.3.7-.6.2-.2.3-.5.3-.8 0-.3-.1-.6-.3-.8-.2-.3-.4-.5-.7-.6-.3-.2-.6-.3-1-.3a2 2 0 0 0-1 .3c-.3.1-.5.3-.6.6-.2.2-.3.5-.3.8 0 .3 0 .6.2.8.2.3.4.5.7.6l1 .2Zm0-4 .9-.2a1.4 1.4 0 0 0 .8-1.4 1 1 0 0 0-.3-.7c0-.3-.3-.4-.5-.5-.3-.2-.5-.2-.9-.2-.3 0-.6 0-.8.2-.3 0-.5.2-.6.5l-.2.7c0 .3 0 .6.2.8l.6.6.8.1Zm44.8 4.9v-.8l3-3.1a20.3 20.3 0 0 0 1.2-1.8l.2-.7a1.4 1.4 0 0 0-.8-1.3 2 2 0 0 0-.9-.2c-.3 0-.6 0-.9.2a1 1 0 0 0-.5.6c-.2.2-.2.5-.2.8h-1c0-.5 0-1 .3-1.3l1-1 1.4-.2c.5 0 1 0 1.3.3.4.2.7.5 1 .9a2.6 2.6 0 0 1 .2 2.2l-.7 1-1.2 1.3-2 2v.2h4.1v.9h-5.5Zm10.1.1a3 3 0 0 1-1.6-.5 3 3 0 0 1-1-1.5c-.3-.7-.4-1.5-.4-2.5s.1-1.7.4-2.4c.2-.6.6-1.2 1-1.5.5-.4 1-.5 1.6-.5.7 0 1.2.1 1.7.5.4.3.8.9 1 1.5.3.7.4 1.5.4 2.4 0 1-.1 1.8-.4 2.5a4 4 0 0 1-1 1.5c-.5.3-1 .5-1.7.5Zm0-1c.7 0 1.2-.2 1.5-.8.4-.7.6-1.5.6-2.7 0-.7-.1-1.4-.3-1.9-.2-.5-.4-1-.7-1.2-.3-.3-.6-.4-1-.4-.7 0-1.2.3-1.5 1-.4.5-.6 1.4-.6 2.5 0 .8.1 1.4.3 2 .1.5.4.9.7 1.2.3.2.6.4 1 .4Zm7.5-7.8v8.7h-1v-7.2h-.1l-.3.3-.7.2-.9.2v-1l.9-.1.6-.4.4-.5.2-.2h.9Zm2.3 2.6c0-.5.1-1 .3-1.4a2.6 2.6 0 0 1 2.4-1.3c.6 0 1 0 1.5.3l1 1 .3 1.5-.1.9-.4 1-.8 1.2-2 2.9h-1.1l2.3-3.4a2.6 2.6 0 0 1-.7.2c-.5 0-1-.2-1.4-.4-.4-.2-.7-.6-1-1-.2-.4-.3-1-.3-1.5Zm1 0c0 .4 0 .7.2 1a1.7 1.7 0 0 0 1.5 1c.4 0 .7-.2 1-.3l.5-.7c.2-.2.3-.6.3-1l-.3-1-.6-.6-.9-.2a1.7 1.7 0 0 0-1.5.9 2 2 0 0 0-.2 1Z"/>
  <path fill="url(#a)" fill-opacity=".7" fill-rule="evenodd" d="M458.4 268V139l2.1-3 11.5 1h23l16 2h37.5l4-.5h17l5-.5H589l5 .5 7-1.5 6.5 1 3-1H624l9-2.5 8 1 19-1h17l13 1h18.5l8.5.5 4.5 1.5 7.5-1h20l6.5 1H790V267l-331.6 1Z" clip-rule="evenodd"/>
  <path stroke="#0B57D0" stroke-width="2.5" d="m791.5 137.6-66.4-1-66.3-3.2-66.4 4-66.5 2-66.3-3.5"/>
  <path fill="#0B57D0" stroke="#fff" d="M791.5 140.2a2.7 2.7 0 1 0 0-5.3 2.7 2.7 0 0 0 0 5.3Zm-66.4-.9a2.7 2.7 0 1 0 0-5.3 2.7 2.7 0 0 0 0 5.3Zm-66.3-3.3a2.7 2.7 0 1 0 0-5.2 2.7 2.7 0 0 0 0 5.3Zm-66.4 4a2.7 2.7 0 1 0 0-5.3 2.7 2.7 0 0 0 0 5.3Zm-66.4 2a2.7 2.7 0 1 0 0-5.3 2.7 2.7 0 0 0 0 5.3Zm-66.4-3.5a2.7 2.7 0 1 0 0-5.3 2.7 2.7 0 0 0 0 5.3Z"/>
  <defs>
    <linearGradient id="a" x1="-137.4" x2="-137.4" y1="-152.7" y2="276" gradientUnits="userSpaceOnUse">
      <stop offset=".4" stop-color="#0052FF"/>
      <stop offset="1" stop-color="#fff" stop-opacity="0"/>
    </linearGradient>
  </defs>
</svg>
