<svg width="610" height="345" viewBox="0 0 610 345" fill="none" xmlns="http://www.w3.org/2000/svg">
<g clip-path="url(#clip0_153_819)">
<path d="M583.536 250.489H13.2319" stroke="#999999" stroke-opacity="0.5" stroke-width="0.5" stroke-dasharray="2 2"/>
<path d="M30.8946 236.862V237.946C30.8946 238.528 30.8491 239.02 30.7579 239.42C30.67 239.821 30.5431 240.143 30.3771 240.387C30.211 240.631 30.0108 240.809 29.7765 240.919C29.5454 241.027 29.2849 241.08 28.9952 241.08C28.7674 241.08 28.5541 241.046 28.3556 240.978C28.1603 240.91 27.9845 240.8 27.8282 240.651C27.672 240.498 27.5385 240.299 27.4278 240.055C27.3172 239.811 27.2325 239.515 27.1739 239.166C27.1153 238.818 27.086 238.411 27.086 237.946V236.862C27.086 236.279 27.1316 235.791 27.2228 235.397C27.3139 235.003 27.4425 234.687 27.6085 234.45C27.7778 234.209 27.978 234.036 28.2091 233.932C28.4435 233.828 28.7039 233.776 28.9903 233.776C29.2215 233.776 29.4347 233.81 29.63 233.878C29.8286 233.943 30.0043 234.049 30.1573 234.196C30.3136 234.339 30.447 234.531 30.5577 234.772C30.6684 235.009 30.7514 235.301 30.8067 235.646C30.8653 235.991 30.8946 236.396 30.8946 236.862ZM30.0353 238.092V236.71C30.0353 236.391 30.0206 236.111 29.9913 235.87C29.962 235.626 29.9197 235.418 29.8644 235.245C29.809 235.073 29.7374 234.933 29.6495 234.826C29.5649 234.718 29.4672 234.64 29.3566 234.591C29.2459 234.539 29.1238 234.513 28.9903 234.513C28.8243 234.513 28.6762 234.554 28.546 234.635C28.4191 234.713 28.31 234.839 28.2189 235.011C28.131 235.184 28.0642 235.41 28.0187 235.69C27.9731 235.97 27.9503 236.31 27.9503 236.71V238.092C27.9503 238.411 27.9649 238.693 27.9942 238.937C28.0268 239.181 28.0707 239.393 28.1261 239.572C28.1847 239.747 28.2563 239.892 28.3409 240.006C28.4256 240.12 28.5232 240.205 28.6339 240.26C28.7446 240.312 28.865 240.338 28.9952 240.338C29.1677 240.338 29.3175 240.296 29.4444 240.211C29.5747 240.127 29.6837 239.995 29.7716 239.816C29.8595 239.634 29.9246 239.401 29.9669 239.118C30.0125 238.831 30.0353 238.489 30.0353 238.092ZM31.9884 235.617V235.241C31.9884 234.97 32.0372 234.725 32.1349 234.503C32.2358 234.282 32.379 234.105 32.5646 233.971C32.7501 233.838 32.9715 233.771 33.2286 233.771C33.4923 233.771 33.7169 233.838 33.9024 233.971C34.0913 234.105 34.2345 234.282 34.3321 234.503C34.4298 234.725 34.4786 234.97 34.4786 235.241V235.617C34.4786 235.88 34.4298 236.123 34.3321 236.344C34.2345 236.565 34.0929 236.743 33.9073 236.876C33.7218 237.01 33.4988 237.077 33.2384 237.077C32.978 237.077 32.7534 237.01 32.5646 236.876C32.379 236.743 32.2358 236.565 32.1349 236.344C32.0372 236.123 31.9884 235.88 31.9884 235.617ZM32.6232 235.241V235.617C32.6232 235.766 32.6443 235.908 32.6866 236.041C32.7322 236.175 32.8006 236.284 32.8917 236.369C32.9829 236.45 33.0984 236.491 33.2384 236.491C33.3751 236.491 33.4874 236.45 33.5753 236.369C33.6664 236.284 33.7332 236.175 33.7755 236.041C33.8211 235.908 33.8439 235.766 33.8439 235.617V235.241C33.8439 235.088 33.8211 234.944 33.7755 234.811C33.7299 234.674 33.6616 234.565 33.5704 234.484C33.4825 234.399 33.3686 234.357 33.2286 234.357C33.0919 234.357 32.978 234.399 32.8868 234.484C32.7989 234.565 32.7322 234.674 32.6866 234.811C32.6443 234.944 32.6232 235.088 32.6232 235.241ZM34.8595 239.62V239.24C34.8595 238.973 34.9083 238.729 35.006 238.507C35.1069 238.286 35.2501 238.108 35.4357 237.975C35.6245 237.842 35.8474 237.775 36.1046 237.775C36.365 237.775 36.588 237.842 36.7735 237.975C36.9591 238.108 37.1007 238.286 37.1983 238.507C37.2993 238.729 37.3497 238.973 37.3497 239.24V239.62C37.3497 239.887 37.2993 240.132 37.1983 240.353C37.1007 240.574 36.9591 240.752 36.7735 240.885C36.5913 241.019 36.3699 241.085 36.1095 241.085C35.8491 241.085 35.6245 241.019 35.4357 240.885C35.2501 240.752 35.1069 240.574 35.006 240.353C34.9083 240.132 34.8595 239.887 34.8595 239.62ZM35.4942 239.24V239.62C35.4942 239.77 35.517 239.913 35.5626 240.05C35.6082 240.184 35.6765 240.293 35.7677 240.377C35.8588 240.459 35.9728 240.499 36.1095 240.499C36.2462 240.499 36.3585 240.459 36.4464 240.377C36.5375 240.293 36.6043 240.184 36.6466 240.05C36.6922 239.917 36.7149 239.773 36.7149 239.62V239.24C36.7149 239.087 36.6922 238.943 36.6466 238.81C36.601 238.676 36.5327 238.569 36.4415 238.488C36.3536 238.403 36.2413 238.361 36.1046 238.361C35.9679 238.361 35.8539 238.403 35.7628 238.488C35.6749 238.569 35.6082 238.676 35.5626 238.81C35.517 238.943 35.4942 239.087 35.4942 239.24ZM36.3341 234.884L33.4191 240.441L32.9405 240.119L35.8605 234.562L36.3341 234.884Z" fill="#2B2929"/>
<path d="M583.536 202.902H13.2319" stroke="#999999" stroke-opacity="0.5" stroke-width="0.5" stroke-dasharray="2 2"/>
<path d="M26.1289 192.654V193.397H22.1542V192.747L24.1123 190.154C24.3531 189.835 24.5371 189.565 24.664 189.344C24.791 189.119 24.8789 188.919 24.9277 188.743C24.9765 188.564 25.0009 188.382 25.0009 188.196C25.0009 187.962 24.9635 187.75 24.8886 187.562C24.8137 187.37 24.7047 187.217 24.5615 187.103C24.4182 186.989 24.2457 186.932 24.0439 186.932C23.7802 186.932 23.5637 186.994 23.3945 187.117C23.2285 187.238 23.1064 187.407 23.0283 187.625C22.9501 187.843 22.9111 188.094 22.9111 188.377H22.0468C22.0468 187.977 22.1201 187.61 22.2665 187.278C22.4163 186.946 22.6393 186.683 22.9355 186.487C23.2317 186.289 23.6012 186.19 24.0439 186.19C24.4248 186.19 24.7503 186.269 25.0205 186.429C25.2939 186.585 25.5022 186.806 25.6455 187.093C25.7919 187.376 25.8652 187.708 25.8652 188.089C25.8652 188.297 25.8359 188.509 25.7773 188.724C25.722 188.935 25.6438 189.147 25.5429 189.358C25.4453 189.57 25.3297 189.778 25.1962 189.983C25.0628 190.189 24.9195 190.39 24.7665 190.589L23.1894 192.654H26.1289ZM30.8945 189.275V190.359C30.8945 190.942 30.8489 191.434 30.7578 191.834C30.6699 192.234 30.5429 192.557 30.3769 192.801C30.2109 193.045 30.0107 193.222 29.7763 193.333C29.5452 193.44 29.2848 193.494 28.9951 193.494C28.7672 193.494 28.554 193.46 28.3554 193.392C28.1601 193.323 27.9843 193.214 27.8281 193.065C27.6718 192.912 27.5384 192.713 27.4277 192.469C27.317 192.225 27.2324 191.928 27.1738 191.58C27.1152 191.232 27.0859 190.825 27.0859 190.359V189.275C27.0859 188.693 27.1315 188.204 27.2226 187.811C27.3137 187.417 27.4423 187.101 27.6083 186.863C27.7776 186.622 27.9778 186.45 28.2089 186.346C28.4433 186.242 28.7037 186.19 28.9902 186.19C29.2213 186.19 29.4345 186.224 29.6298 186.292C29.8284 186.357 30.0042 186.463 30.1572 186.609C30.3134 186.753 30.4469 186.945 30.5576 187.186C30.6682 187.423 30.7512 187.715 30.8066 188.06C30.8652 188.405 30.8945 188.81 30.8945 189.275ZM30.0351 190.506V189.124C30.0351 188.805 30.0205 188.525 29.9912 188.284C29.9619 188.04 29.9195 187.832 29.8642 187.659C29.8089 187.487 29.7373 187.347 29.6494 187.239C29.5647 187.132 29.4671 187.054 29.3564 187.005C29.2457 186.953 29.1236 186.927 28.9902 186.927C28.8242 186.927 28.6761 186.968 28.5458 187.049C28.4189 187.127 28.3098 187.252 28.2187 187.425C28.1308 187.597 28.0641 187.824 28.0185 188.104C27.9729 188.384 27.9501 188.724 27.9501 189.124V190.506C27.9501 190.825 27.9648 191.107 27.9941 191.351C28.0266 191.595 28.0706 191.806 28.1259 191.985C28.1845 192.161 28.2561 192.306 28.3408 192.42C28.4254 192.534 28.5231 192.619 28.6337 192.674C28.7444 192.726 28.8649 192.752 28.9951 192.752C29.1676 192.752 29.3173 192.71 29.4443 192.625C29.5745 192.54 29.6835 192.409 29.7714 192.23C29.8593 192.047 29.9244 191.815 29.9667 191.531C30.0123 191.245 30.0351 190.903 30.0351 190.506ZM31.9882 188.03V187.654C31.9882 187.384 32.0371 187.138 32.1347 186.917C32.2356 186.696 32.3789 186.518 32.5644 186.385C32.7499 186.251 32.9713 186.185 33.2285 186.185C33.4921 186.185 33.7167 186.251 33.9023 186.385C34.0911 186.518 34.2343 186.696 34.332 186.917C34.4296 187.138 34.4785 187.384 34.4785 187.654V188.03C34.4785 188.294 34.4296 188.537 34.332 188.758C34.2343 188.979 34.0927 189.157 33.9072 189.29C33.7216 189.424 33.4986 189.49 33.2382 189.49C32.9778 189.49 32.7532 189.424 32.5644 189.29C32.3789 189.157 32.2356 188.979 32.1347 188.758C32.0371 188.537 31.9882 188.294 31.9882 188.03ZM32.623 187.654V188.03C32.623 188.18 32.6442 188.322 32.6865 188.455C32.732 188.589 32.8004 188.698 32.8915 188.782C32.9827 188.864 33.0983 188.904 33.2382 188.904C33.3749 188.904 33.4873 188.864 33.5751 188.782C33.6663 188.698 33.733 188.589 33.7753 188.455C33.8209 188.322 33.8437 188.18 33.8437 188.03V187.654C33.8437 187.501 33.8209 187.358 33.7753 187.225C33.7298 187.088 33.6614 186.979 33.5703 186.898C33.4824 186.813 33.3684 186.771 33.2285 186.771C33.0917 186.771 32.9778 186.813 32.8867 186.898C32.7988 186.979 32.732 187.088 32.6865 187.225C32.6442 187.358 32.623 187.501 32.623 187.654ZM34.8593 192.034V191.653C34.8593 191.386 34.9081 191.142 35.0058 190.921C35.1067 190.7 35.2499 190.522 35.4355 190.389C35.6243 190.255 35.8473 190.189 36.1044 190.189C36.3649 190.189 36.5878 190.255 36.7734 190.389C36.9589 190.522 37.1005 190.7 37.1982 190.921C37.2991 191.142 37.3496 191.386 37.3496 191.653V192.034C37.3496 192.301 37.2991 192.545 37.1982 192.767C37.1005 192.988 36.9589 193.165 36.7734 193.299C36.5911 193.432 36.3697 193.499 36.1093 193.499C35.8489 193.499 35.6243 193.432 35.4355 193.299C35.2499 193.165 35.1067 192.988 35.0058 192.767C34.9081 192.545 34.8593 192.301 34.8593 192.034ZM35.4941 191.653V192.034C35.4941 192.184 35.5169 192.327 35.5624 192.464C35.608 192.597 35.6764 192.706 35.7675 192.791C35.8587 192.872 35.9726 192.913 36.1093 192.913C36.246 192.913 36.3583 192.872 36.4462 192.791C36.5374 192.706 36.6041 192.597 36.6464 192.464C36.692 192.33 36.7148 192.187 36.7148 192.034V191.653C36.7148 191.5 36.692 191.357 36.6464 191.224C36.6009 191.09 36.5325 190.983 36.4414 190.901C36.3535 190.817 36.2412 190.774 36.1044 190.774C35.9677 190.774 35.8538 190.817 35.7626 190.901C35.6748 190.983 35.608 191.09 35.5624 191.224C35.5169 191.357 35.4941 191.5 35.4941 191.653ZM36.3339 187.298L33.4189 192.855L32.9404 192.532L35.8603 186.976L36.3339 187.298Z" fill="#2B2929"/>
<path d="M583.536 155.316H13.2319" stroke="#999999" stroke-opacity="0.5" stroke-width="0.5" stroke-dasharray="2 2"/>
<path d="M26.2216 143.418V144.16H21.8759V143.628L24.5175 138.701H25.2109L24.5175 140.127L22.8378 143.418H26.2216ZM25.4306 138.701V145.81H24.5664V138.701H25.4306ZM30.8945 141.689V142.773C30.8945 143.356 30.8489 143.847 30.7578 144.248C30.6699 144.648 30.5429 144.971 30.3769 145.215C30.2109 145.459 30.0107 145.636 29.7763 145.747C29.5452 145.854 29.2848 145.908 28.9951 145.908C28.7672 145.908 28.554 145.874 28.3554 145.805C28.1601 145.737 27.9843 145.628 27.8281 145.478C27.6718 145.325 27.5384 145.127 27.4277 144.883C27.317 144.638 27.2324 144.342 27.1738 143.994C27.1152 143.646 27.0859 143.239 27.0859 142.773V141.689C27.0859 141.107 27.1315 140.618 27.2226 140.224C27.3137 139.831 27.4423 139.515 27.6083 139.277C27.7776 139.036 27.9778 138.864 28.2089 138.76C28.4433 138.655 28.7037 138.603 28.9902 138.603C29.2213 138.603 29.4345 138.638 29.6298 138.706C29.8284 138.771 30.0042 138.877 30.1572 139.023C30.3134 139.166 30.4469 139.359 30.5576 139.599C30.6682 139.837 30.7512 140.128 30.8066 140.473C30.8652 140.819 30.8945 141.224 30.8945 141.689ZM30.0351 142.92V141.538C30.0351 141.219 30.0205 140.939 29.9912 140.698C29.9619 140.454 29.9195 140.246 29.8642 140.073C29.8089 139.901 29.7373 139.761 29.6494 139.653C29.5647 139.546 29.4671 139.468 29.3564 139.419C29.2457 139.367 29.1236 139.341 28.9902 139.341C28.8242 139.341 28.6761 139.381 28.5458 139.463C28.4189 139.541 28.3098 139.666 28.2187 139.839C28.1308 140.011 28.0641 140.237 28.0185 140.517C27.9729 140.797 27.9501 141.138 27.9501 141.538V142.92C27.9501 143.239 27.9648 143.52 27.9941 143.764C28.0266 144.009 28.0706 144.22 28.1259 144.399C28.1845 144.575 28.2561 144.72 28.3408 144.834C28.4254 144.948 28.5231 145.032 28.6337 145.088C28.7444 145.14 28.8649 145.166 28.9951 145.166C29.1676 145.166 29.3173 145.124 29.4443 145.039C29.5745 144.954 29.6835 144.822 29.7714 144.643C29.8593 144.461 29.9244 144.228 29.9667 143.945C30.0123 143.659 30.0351 143.317 30.0351 142.92ZM31.9882 140.444V140.068C31.9882 139.798 32.0371 139.552 32.1347 139.331C32.2356 139.11 32.3789 138.932 32.5644 138.799C32.7499 138.665 32.9713 138.598 33.2285 138.598C33.4921 138.598 33.7167 138.665 33.9023 138.799C34.0911 138.932 34.2343 139.11 34.332 139.331C34.4296 139.552 34.4785 139.798 34.4785 140.068V140.444C34.4785 140.708 34.4296 140.95 34.332 141.172C34.2343 141.393 34.0927 141.57 33.9072 141.704C33.7216 141.837 33.4986 141.904 33.2382 141.904C32.9778 141.904 32.7532 141.837 32.5644 141.704C32.3789 141.57 32.2356 141.393 32.1347 141.172C32.0371 140.95 31.9882 140.708 31.9882 140.444ZM32.623 140.068V140.444C32.623 140.594 32.6442 140.735 32.6865 140.869C32.732 141.002 32.8004 141.111 32.8915 141.196C32.9827 141.277 33.0983 141.318 33.2382 141.318C33.3749 141.318 33.4873 141.277 33.5751 141.196C33.6663 141.111 33.733 141.002 33.7753 140.869C33.8209 140.735 33.8437 140.594 33.8437 140.444V140.068C33.8437 139.915 33.8209 139.772 33.7753 139.638C33.7298 139.502 33.6614 139.393 33.5703 139.311C33.4824 139.227 33.3684 139.184 33.2285 139.184C33.0917 139.184 32.9778 139.227 32.8867 139.311C32.7988 139.393 32.732 139.502 32.6865 139.638C32.6442 139.772 32.623 139.915 32.623 140.068ZM34.8593 144.448V144.067C34.8593 143.8 34.9081 143.556 35.0058 143.335C35.1067 143.113 35.2499 142.936 35.4355 142.803C35.6243 142.669 35.8473 142.602 36.1044 142.602C36.3649 142.602 36.5878 142.669 36.7734 142.803C36.9589 142.936 37.1005 143.113 37.1982 143.335C37.2991 143.556 37.3496 143.8 37.3496 144.067V144.448C37.3496 144.715 37.2991 144.959 37.1982 145.18C37.1005 145.402 36.9589 145.579 36.7734 145.713C36.5911 145.846 36.3697 145.913 36.1093 145.913C35.8489 145.913 35.6243 145.846 35.4355 145.713C35.2499 145.579 35.1067 145.402 35.0058 145.18C34.9081 144.959 34.8593 144.715 34.8593 144.448ZM35.4941 144.067V144.448C35.4941 144.598 35.5169 144.741 35.5624 144.878C35.608 145.011 35.6764 145.12 35.7675 145.205C35.8587 145.286 35.9726 145.327 36.1093 145.327C36.246 145.327 36.3583 145.286 36.4462 145.205C36.5374 145.12 36.6041 145.011 36.6464 144.878C36.692 144.744 36.7148 144.601 36.7148 144.448V144.067C36.7148 143.914 36.692 143.771 36.6464 143.638C36.6009 143.504 36.5325 143.397 36.4414 143.315C36.3535 143.231 36.2412 143.188 36.1044 143.188C35.9677 143.188 35.8538 143.231 35.7626 143.315C35.6748 143.397 35.608 143.504 35.5624 143.638C35.5169 143.771 35.4941 143.914 35.4941 144.067ZM36.3339 139.712L33.4189 145.268L32.9404 144.946L35.8603 139.389L36.3339 139.712Z" fill="#2B2929"/>
<path d="M583.536 107.73H13.2319" stroke="#999999" stroke-opacity="0.5" stroke-width="0.5" stroke-dasharray="2 2"/>
<path d="M25.0986 91.105H25.1621V91.8716H25.0986C24.6884 91.8716 24.3515 91.9497 24.0878 92.106C23.8274 92.259 23.624 92.4657 23.4775 92.7261C23.3343 92.9832 23.235 93.2729 23.1796 93.5952C23.1243 93.9175 23.0966 94.2446 23.0966 94.5767V95.6216C23.0966 95.9373 23.1259 96.2173 23.1845 96.4614C23.2464 96.7023 23.3261 96.9058 23.4238 97.0718C23.5247 97.2378 23.637 97.3631 23.7607 97.4478C23.8876 97.5324 24.0162 97.5747 24.1464 97.5747C24.3124 97.5747 24.4589 97.5356 24.5859 97.4575C24.7161 97.3761 24.8235 97.2638 24.9081 97.1206C24.996 96.9741 25.0628 96.8016 25.1083 96.603C25.1539 96.4045 25.1767 96.1864 25.1767 95.9487C25.1767 95.7371 25.1555 95.5337 25.1132 95.3384C25.0742 95.1398 25.0139 94.964 24.9326 94.811C24.8512 94.6548 24.747 94.5327 24.6201 94.4448C24.4964 94.3537 24.3483 94.3081 24.1757 94.3081C23.9804 94.3081 23.7981 94.37 23.6289 94.4937C23.4628 94.6141 23.3261 94.7736 23.2187 94.9722C23.1113 95.1675 23.0478 95.3807 23.0283 95.6118L22.5839 95.6069C22.6295 95.2424 22.706 94.9315 22.8134 94.6743C22.9208 94.4139 23.0511 94.2023 23.204 94.0396C23.3603 93.8735 23.5328 93.7531 23.7216 93.6782C23.9104 93.6001 24.109 93.561 24.3173 93.561C24.6201 93.561 24.8789 93.6278 25.0937 93.7612C25.3118 93.8947 25.4892 94.0737 25.6259 94.2983C25.7659 94.5197 25.8684 94.7703 25.9335 95.0503C25.9986 95.327 26.0312 95.6118 26.0312 95.9048C26.0312 96.2401 25.9905 96.5542 25.9091 96.8472C25.831 97.1401 25.7138 97.3973 25.5576 97.6187C25.4013 97.84 25.2044 98.0125 24.9667 98.1362C24.7324 98.2599 24.4589 98.3218 24.1464 98.3218C23.8144 98.3218 23.5279 98.2437 23.2871 98.0874C23.0462 97.9279 22.846 97.7163 22.6865 97.4526C22.5302 97.189 22.4147 96.896 22.3398 96.5737C22.2649 96.2515 22.2275 95.9243 22.2275 95.5923V95.1675C22.2275 94.6662 22.2633 94.1746 22.3349 93.6929C22.4065 93.2111 22.5416 92.7749 22.7402 92.3843C22.942 91.9937 23.2317 91.6828 23.6093 91.4517C23.9902 91.2205 24.4866 91.105 25.0986 91.105ZM30.8945 94.103V95.187C30.8945 95.7697 30.8489 96.2612 30.7578 96.6616C30.6699 97.062 30.5429 97.3843 30.3769 97.6284C30.2109 97.8726 30.0107 98.05 29.7763 98.1606C29.5452 98.2681 29.2848 98.3218 28.9951 98.3218C28.7672 98.3218 28.554 98.2876 28.3554 98.2192C28.1601 98.1509 27.9843 98.0418 27.8281 97.8921C27.6718 97.7391 27.5384 97.5405 27.4277 97.2964C27.317 97.0522 27.2324 96.756 27.1738 96.4077C27.1152 96.0594 27.0859 95.6525 27.0859 95.187V94.103C27.0859 93.5203 27.1315 93.0321 27.2226 92.6382C27.3137 92.2443 27.4423 91.9285 27.6083 91.6909C27.7776 91.45 27.9778 91.2775 28.2089 91.1733C28.4433 91.0692 28.7037 91.0171 28.9902 91.0171C29.2213 91.0171 29.4345 91.0513 29.6298 91.1196C29.8284 91.1847 30.0042 91.2905 30.1572 91.437C30.3134 91.5802 30.4469 91.7723 30.5576 92.0132C30.6682 92.2508 30.7512 92.5422 30.8066 92.8872C30.8652 93.2323 30.8945 93.6375 30.8945 94.103ZM30.0351 95.3335V93.9517C30.0351 93.6326 30.0205 93.3527 29.9912 93.1118C29.9619 92.8677 29.9195 92.6593 29.8642 92.4868C29.8089 92.3143 29.7373 92.1743 29.6494 92.0669C29.5647 91.9595 29.4671 91.8813 29.3564 91.8325C29.2457 91.7804 29.1236 91.7544 28.9902 91.7544C28.8242 91.7544 28.6761 91.7951 28.5458 91.8765C28.4189 91.9546 28.3098 92.0799 28.2187 92.2524C28.1308 92.425 28.0641 92.6512 28.0185 92.9312C27.9729 93.2111 27.9501 93.5513 27.9501 93.9517V95.3335C27.9501 95.6525 27.9648 95.9341 27.9941 96.1782C28.0266 96.4224 28.0706 96.634 28.1259 96.813C28.1845 96.9888 28.2561 97.1336 28.3408 97.2476C28.4254 97.3615 28.5231 97.4461 28.6337 97.5015C28.7444 97.5535 28.8649 97.5796 28.9951 97.5796C29.1676 97.5796 29.3173 97.5373 29.4443 97.4526C29.5745 97.368 29.6835 97.2362 29.7714 97.0571C29.8593 96.8748 29.9244 96.6421 29.9667 96.3589C30.0123 96.0724 30.0351 95.7306 30.0351 95.3335ZM31.9882 92.8579V92.4819C31.9882 92.2118 32.0371 91.966 32.1347 91.7446C32.2356 91.5233 32.3789 91.3459 32.5644 91.2124C32.7499 91.0789 32.9713 91.0122 33.2285 91.0122C33.4921 91.0122 33.7167 91.0789 33.9023 91.2124C34.0911 91.3459 34.2343 91.5233 34.332 91.7446C34.4296 91.966 34.4785 92.2118 34.4785 92.4819V92.8579C34.4785 93.1216 34.4296 93.3641 34.332 93.5854C34.2343 93.8068 34.0927 93.9842 33.9072 94.1177C33.7216 94.2511 33.4986 94.3179 33.2382 94.3179C32.9778 94.3179 32.7532 94.2511 32.5644 94.1177C32.3789 93.9842 32.2356 93.8068 32.1347 93.5854C32.0371 93.3641 31.9882 93.1216 31.9882 92.8579ZM32.623 92.4819V92.8579C32.623 93.0076 32.6442 93.1493 32.6865 93.2827C32.732 93.4162 32.8004 93.5252 32.8915 93.6099C32.9827 93.6912 33.0983 93.7319 33.2382 93.7319C33.3749 93.7319 33.4873 93.6912 33.5751 93.6099C33.6663 93.5252 33.733 93.4162 33.7753 93.2827C33.8209 93.1493 33.8437 93.0076 33.8437 92.8579V92.4819C33.8437 92.3289 33.8209 92.1857 33.7753 92.0522C33.7298 91.9155 33.6614 91.8065 33.5703 91.7251C33.4824 91.6405 33.3684 91.5981 33.2285 91.5981C33.0917 91.5981 32.9778 91.6405 32.8867 91.7251C32.7988 91.8065 32.732 91.9155 32.6865 92.0522C32.6442 92.1857 32.623 92.3289 32.623 92.4819ZM34.8593 96.8618V96.481C34.8593 96.214 34.9081 95.9699 35.0058 95.7485C35.1067 95.5272 35.2499 95.3498 35.4355 95.2163C35.6243 95.0828 35.8473 95.0161 36.1044 95.0161C36.3649 95.0161 36.5878 95.0828 36.7734 95.2163C36.9589 95.3498 37.1005 95.5272 37.1982 95.7485C37.2991 95.9699 37.3496 96.214 37.3496 96.481V96.8618C37.3496 97.1287 37.2991 97.3729 37.1982 97.5942C37.1005 97.8156 36.9589 97.993 36.7734 98.1265C36.5911 98.2599 36.3697 98.3267 36.1093 98.3267C35.8489 98.3267 35.6243 98.2599 35.4355 98.1265C35.2499 97.993 35.1067 97.8156 35.0058 97.5942C34.9081 97.3729 34.8593 97.1287 34.8593 96.8618ZM35.4941 96.481V96.8618C35.4941 97.0116 35.5169 97.1548 35.5624 97.2915C35.608 97.425 35.6764 97.534 35.7675 97.6187C35.8587 97.7 35.9726 97.7407 36.1093 97.7407C36.246 97.7407 36.3583 97.7 36.4462 97.6187C36.5374 97.534 36.6041 97.425 36.6464 97.2915C36.692 97.158 36.7148 97.0148 36.7148 96.8618V96.481C36.7148 96.328 36.692 96.1847 36.6464 96.0513C36.6009 95.9178 36.5325 95.8104 36.4414 95.729C36.3535 95.6444 36.2412 95.6021 36.1044 95.6021C35.9677 95.6021 35.8538 95.6444 35.7626 95.729C35.6748 95.8104 35.608 95.9178 35.5624 96.0513C35.5169 96.1847 35.4941 96.328 35.4941 96.481ZM36.3339 92.1255L33.4189 97.6821L32.9404 97.3599L35.8603 91.8032L36.3339 92.1255Z" fill="#2B2929"/>
<path d="M583.536 60.1437H13.2319" stroke="#999999" stroke-opacity="0.5" stroke-width="0.5" stroke-dasharray="2 2"/>
<path d="M25.9482 48.7141C25.9482 49.1471 25.8652 49.5149 25.6992 49.8176C25.5331 50.1171 25.3069 50.345 25.0205 50.5012C24.734 50.6575 24.4101 50.7356 24.0488 50.7356C23.6907 50.7356 23.3684 50.6575 23.082 50.5012C22.7955 50.345 22.5693 50.1171 22.4033 49.8176C22.2373 49.5149 22.1542 49.1471 22.1542 48.7141C22.1542 48.4309 22.1998 48.1721 22.291 47.9377C22.3821 47.7001 22.5107 47.4934 22.6767 47.3176C22.846 47.1418 23.0462 47.0068 23.2773 46.9124C23.5084 46.8147 23.7639 46.7659 24.0439 46.7659C24.4117 46.7659 24.7389 46.8505 25.0253 47.0198C25.3118 47.1858 25.5364 47.4153 25.6992 47.7083C25.8652 48.0012 25.9482 48.3365 25.9482 48.7141ZM25.0888 48.6946C25.0888 48.4309 25.0449 48.1982 24.957 47.9963C24.8723 47.7913 24.7519 47.6318 24.5956 47.5178C24.4394 47.4039 24.2555 47.3469 24.0439 47.3469C23.829 47.3469 23.6451 47.4039 23.4921 47.5178C23.3391 47.6318 23.2203 47.7913 23.1357 47.9963C23.0543 48.1982 23.0136 48.4309 23.0136 48.6946C23.0136 48.968 23.0543 49.2024 23.1357 49.3977C23.2171 49.5898 23.3343 49.7379 23.4873 49.842C23.6435 49.943 23.8323 49.9934 24.0537 49.9934C24.2718 49.9934 24.4573 49.943 24.6103 49.842C24.7665 49.7379 24.8854 49.5898 24.9667 49.3977C25.0481 49.2024 25.0888 48.968 25.0888 48.6946ZM25.8164 45.3792C25.8164 45.7242 25.7399 46.0351 25.5869 46.3118C25.4339 46.5885 25.2239 46.8066 24.957 46.9661C24.6933 47.1256 24.3922 47.2053 24.0537 47.2053C23.7086 47.2053 23.4026 47.1256 23.1357 46.9661C22.8688 46.8066 22.6604 46.5885 22.5107 46.3118C22.3609 46.0351 22.2861 45.7242 22.2861 45.3792C22.2861 44.9657 22.3609 44.6142 22.5107 44.3245C22.6637 44.0347 22.8736 43.8134 23.1406 43.6604C23.4075 43.5074 23.7119 43.4309 24.0537 43.4309C24.3987 43.4309 24.7031 43.5074 24.9667 43.6604C25.2304 43.8134 25.4371 44.0347 25.5869 44.3245C25.7399 44.6142 25.8164 44.9657 25.8164 45.3792ZM24.9521 45.3938C24.9521 45.1562 24.9147 44.9462 24.8398 44.7639C24.7682 44.5816 24.664 44.4384 24.5273 44.3342C24.3938 44.2268 24.2359 44.1731 24.0537 44.1731C23.8714 44.1731 23.7119 44.2236 23.5751 44.3245C23.4417 44.4221 23.3375 44.5621 23.2626 44.7444C23.1878 44.9267 23.1503 45.1431 23.1503 45.3938C23.1503 45.6379 23.1861 45.8512 23.2578 46.0334C23.3326 46.2157 23.4384 46.3573 23.5751 46.4583C23.7119 46.5592 23.8714 46.6096 24.0537 46.6096C24.2359 46.6096 24.3938 46.5592 24.5273 46.4583C24.664 46.3573 24.7682 46.2157 24.8398 46.0334C24.9147 45.8512 24.9521 45.6379 24.9521 45.3938ZM30.8945 46.5168V47.6008C30.8945 48.1835 30.8489 48.675 30.7578 49.0754C30.6699 49.4758 30.5429 49.7981 30.3769 50.0422C30.2109 50.2864 30.0107 50.4638 29.7763 50.5745C29.5452 50.6819 29.2848 50.7356 28.9951 50.7356C28.7672 50.7356 28.554 50.7014 28.3554 50.6331C28.1601 50.5647 27.9843 50.4556 27.8281 50.3059C27.6718 50.1529 27.5384 49.9543 27.4277 49.7102C27.317 49.4661 27.2324 49.1698 27.1738 48.8215C27.1152 48.4732 27.0859 48.0663 27.0859 47.6008V46.5168C27.0859 45.9342 27.1315 45.4459 27.2226 45.052C27.3137 44.6581 27.4423 44.3424 27.6083 44.1047C27.7776 43.8639 27.9778 43.6913 28.2089 43.5872C28.4433 43.483 28.7037 43.4309 28.9902 43.4309C29.2213 43.4309 29.4345 43.4651 29.6298 43.5334C29.8284 43.5986 30.0042 43.7043 30.1572 43.8508C30.3134 43.9941 30.4469 44.1861 30.5576 44.427C30.6682 44.6646 30.7512 44.956 30.8066 45.301C30.8652 45.6461 30.8945 46.0514 30.8945 46.5168ZM30.0351 47.7473V46.3655C30.0351 46.0465 30.0205 45.7665 29.9912 45.5256C29.9619 45.2815 29.9195 45.0732 29.8642 44.9006C29.8089 44.7281 29.7373 44.5881 29.6494 44.4807C29.5647 44.3733 29.4671 44.2952 29.3564 44.2463C29.2457 44.1943 29.1236 44.1682 28.9902 44.1682C28.8242 44.1682 28.6761 44.2089 28.5458 44.2903C28.4189 44.3684 28.3098 44.4937 28.2187 44.6663C28.1308 44.8388 28.0641 45.065 28.0185 45.345C27.9729 45.6249 27.9501 45.9651 27.9501 46.3655V47.7473C27.9501 48.0663 27.9648 48.3479 27.9941 48.592C28.0266 48.8362 28.0706 49.0478 28.1259 49.2268C28.1845 49.4026 28.2561 49.5474 28.3408 49.6614C28.4254 49.7753 28.5231 49.8599 28.6337 49.9153C28.7444 49.9674 28.8649 49.9934 28.9951 49.9934C29.1676 49.9934 29.3173 49.9511 29.4443 49.8665C29.5745 49.7818 29.6835 49.65 29.7714 49.4709C29.8593 49.2887 29.9244 49.0559 29.9667 48.7727C30.0123 48.4862 30.0351 48.1444 30.0351 47.7473ZM31.9882 45.2717V44.8958C31.9882 44.6256 32.0371 44.3798 32.1347 44.1584C32.2356 43.9371 32.3789 43.7597 32.5644 43.6262C32.7499 43.4928 32.9713 43.426 33.2285 43.426C33.4921 43.426 33.7167 43.4928 33.9023 43.6262C34.0911 43.7597 34.2343 43.9371 34.332 44.1584C34.4296 44.3798 34.4785 44.6256 34.4785 44.8958V45.2717C34.4785 45.5354 34.4296 45.7779 34.332 45.9993C34.2343 46.2206 34.0927 46.398 33.9072 46.5315C33.7216 46.665 33.4986 46.7317 33.2382 46.7317C32.9778 46.7317 32.7532 46.665 32.5644 46.5315C32.3789 46.398 32.2356 46.2206 32.1347 45.9993C32.0371 45.7779 31.9882 45.5354 31.9882 45.2717ZM32.623 44.8958V45.2717C32.623 45.4215 32.6442 45.5631 32.6865 45.6965C32.732 45.83 32.8004 45.939 32.8915 46.0237C32.9827 46.1051 33.0983 46.1458 33.2382 46.1458C33.3749 46.1458 33.4873 46.1051 33.5751 46.0237C33.6663 45.939 33.733 45.83 33.7753 45.6965C33.8209 45.5631 33.8437 45.4215 33.8437 45.2717V44.8958C33.8437 44.7428 33.8209 44.5995 33.7753 44.4661C33.7298 44.3293 33.6614 44.2203 33.5703 44.1389C33.4824 44.0543 33.3684 44.012 33.2285 44.012C33.0917 44.012 32.9778 44.0543 32.8867 44.1389C32.7988 44.2203 32.732 44.3293 32.6865 44.4661C32.6442 44.5995 32.623 44.7428 32.623 44.8958ZM34.8593 49.2756V48.8948C34.8593 48.6278 34.9081 48.3837 35.0058 48.1624C35.1067 47.941 35.2499 47.7636 35.4355 47.6301C35.6243 47.4967 35.8473 47.4299 36.1044 47.4299C36.3649 47.4299 36.5878 47.4967 36.7734 47.6301C36.9589 47.7636 37.1005 47.941 37.1982 48.1624C37.2991 48.3837 37.3496 48.6278 37.3496 48.8948V49.2756C37.3496 49.5426 37.2991 49.7867 37.1982 50.0081C37.1005 50.2294 36.9589 50.4068 36.7734 50.5403C36.5911 50.6737 36.3697 50.7405 36.1093 50.7405C35.8489 50.7405 35.6243 50.6737 35.4355 50.5403C35.2499 50.4068 35.1067 50.2294 35.0058 50.0081C34.9081 49.7867 34.8593 49.5426 34.8593 49.2756ZM35.4941 48.8948V49.2756C35.4941 49.4254 35.5169 49.5686 35.5624 49.7053C35.608 49.8388 35.6764 49.9478 35.7675 50.0325C35.8587 50.1139 35.9726 50.1545 36.1093 50.1545C36.246 50.1545 36.3583 50.1139 36.4462 50.0325C36.5374 49.9478 36.6041 49.8388 36.6464 49.7053C36.692 49.5719 36.7148 49.4286 36.7148 49.2756V48.8948C36.7148 48.7418 36.692 48.5986 36.6464 48.4651C36.6009 48.3316 36.5325 48.2242 36.4414 48.1428C36.3535 48.0582 36.2412 48.0159 36.1044 48.0159C35.9677 48.0159 35.8538 48.0582 35.7626 48.1428C35.6748 48.2242 35.608 48.3316 35.5624 48.4651C35.5169 48.5986 35.4941 48.7418 35.4941 48.8948ZM36.3339 44.5393L33.4189 50.0959L32.9404 49.7737L35.8603 44.217L36.3339 44.5393Z" fill="#2B2929"/>
<path d="M101.887 104.425H66.1602V249.828H101.887V104.425Z" fill="#930000"/>
<path d="M138.937 165.23H103.21V249.828H138.937V165.23Z" fill="#5E4FA2"/>
<path d="M187.896 113.678H152.169V249.828H187.896V113.678Z" fill="#930000"/>
<path d="M224.945 148.046H189.219V249.828H224.945V148.046Z" fill="#5E4FA2"/>
<path d="M273.904 76.6666H238.178V249.828H273.904V76.6666Z" fill="#930000"/>
<path d="M310.954 185.057H275.228V249.828H310.954V185.057Z" fill="#5E4FA2"/>
<path d="M359.913 129.54H324.186V249.828H359.913V129.54Z" fill="#930000"/>
<path d="M396.962 132.184H361.236V249.828H396.962V132.184Z" fill="#5E4FA2"/>
<path d="M445.922 89.885H410.195V249.828H445.922V89.885Z" fill="#930000"/>
<path d="M482.971 171.839H447.245V249.828H482.971V171.839Z" fill="#5E4FA2"/>
<path d="M531.93 107.069H496.204V249.828H531.93V107.069Z" fill="#930000"/>
<path d="M568.98 154.655H533.253V249.828H568.98V154.655Z" fill="#5E4FA2"/>
<path d="M13.2319 250.489H584.197" stroke="#999999"/>
<path d="M102.548 249.828V257.759" stroke="#999999" stroke-width="0.5"/>
<path d="M94.5553 250.396V257.506H93.6569V250.396H94.5553ZM96.8649 253.35V257.506H96.0007V252.223H96.8161L96.8649 253.35ZM96.655 254.664L96.3034 254.649C96.3001 254.288 96.3408 253.954 96.4255 253.648C96.5134 253.339 96.6371 253.071 96.7966 252.843C96.9593 252.615 97.153 252.439 97.3776 252.315C97.6022 252.188 97.8512 252.125 98.1247 252.125C98.3395 252.125 98.5348 252.161 98.7106 252.232C98.8864 252.301 99.0361 252.411 99.1598 252.564C99.2835 252.717 99.3779 252.916 99.443 253.16C99.5114 253.401 99.5456 253.696 99.5456 254.044V257.506H98.6813V254.034C98.6813 253.757 98.6504 253.536 98.5886 253.37C98.53 253.201 98.4388 253.079 98.3151 253.004C98.1947 252.926 98.0417 252.887 97.8561 252.887C97.6869 252.887 97.529 252.934 97.3825 253.028C97.236 253.123 97.1074 253.253 96.9968 253.419C96.8893 253.585 96.8047 253.775 96.7428 253.99C96.6843 254.202 96.655 254.426 96.655 254.664ZM103.613 256.48V250.006H104.472V257.506H103.686L103.613 256.48ZM100.659 255.118V254.625C100.659 254.189 100.701 253.814 100.786 253.502C100.87 253.186 100.991 252.927 101.147 252.725C101.303 252.52 101.491 252.369 101.709 252.271C101.927 252.174 102.168 252.125 102.431 252.125C102.705 252.125 102.939 252.18 103.134 252.291C103.333 252.402 103.499 252.563 103.632 252.774C103.766 252.983 103.87 253.237 103.945 253.536C104.023 253.832 104.075 254.168 104.101 254.542V255.201C104.072 255.572 104.018 255.906 103.94 256.202C103.865 256.498 103.761 256.751 103.628 256.959C103.494 257.167 103.328 257.327 103.13 257.437C102.931 257.548 102.695 257.603 102.422 257.603C102.161 257.603 101.924 257.553 101.709 257.452C101.494 257.348 101.307 257.193 101.147 256.988C100.991 256.78 100.87 256.521 100.786 256.212C100.701 255.899 100.659 255.535 100.659 255.118ZM101.523 254.625V255.118C101.523 255.411 101.544 255.667 101.587 255.885C101.629 256.099 101.696 256.279 101.787 256.422C101.878 256.562 101.993 256.666 102.133 256.734C102.277 256.803 102.448 256.837 102.646 256.837C102.887 256.837 103.084 256.778 103.237 256.661C103.39 256.544 103.512 256.389 103.603 256.197C103.698 256.002 103.772 255.792 103.828 255.567V254.181C103.795 254.015 103.748 253.855 103.686 253.702C103.624 253.546 103.546 253.407 103.452 253.287C103.361 253.163 103.248 253.066 103.115 252.994C102.985 252.922 102.832 252.887 102.656 252.887C102.457 252.887 102.285 252.922 102.138 252.994C101.995 253.066 101.878 253.173 101.787 253.316C101.699 253.46 101.632 253.64 101.587 253.858C101.544 254.076 101.523 254.332 101.523 254.625ZM106.733 252.223V257.506H105.874V252.223H106.733ZM105.825 250.821C105.825 250.675 105.866 250.551 105.947 250.45C106.028 250.349 106.15 250.299 106.313 250.299C106.476 250.299 106.598 250.349 106.679 250.45C106.764 250.551 106.806 250.675 106.806 250.821C106.806 250.961 106.764 251.082 106.679 251.182C106.598 251.28 106.476 251.329 106.313 251.329C106.15 251.329 106.028 251.28 105.947 251.182C105.866 251.082 105.825 250.961 105.825 250.821ZM110.688 256.602V253.736C110.688 253.528 110.656 253.36 110.591 253.233C110.529 253.106 110.434 253.014 110.307 252.955C110.184 252.896 110.027 252.867 109.839 252.867C109.656 252.867 109.498 252.905 109.365 252.979C109.235 253.054 109.134 253.154 109.062 253.277C108.994 253.401 108.96 253.538 108.96 253.687H108.095C108.095 253.499 108.136 253.311 108.217 253.126C108.302 252.94 108.423 252.773 108.579 252.623C108.735 252.47 108.922 252.349 109.14 252.262C109.362 252.17 109.609 252.125 109.882 252.125C110.208 252.125 110.496 252.179 110.747 252.286C110.997 252.39 111.194 252.561 111.338 252.799C111.481 253.036 111.552 253.352 111.552 253.746V256.353C111.552 256.529 111.565 256.716 111.591 256.915C111.621 257.113 111.661 257.284 111.714 257.428V257.506H110.82C110.778 257.402 110.745 257.263 110.722 257.091C110.7 256.915 110.688 256.752 110.688 256.602ZM110.825 254.303L110.835 254.937H110.234C110.029 254.937 109.842 254.96 109.673 255.006C109.507 255.051 109.363 255.118 109.243 255.206C109.122 255.291 109.03 255.396 108.965 255.523C108.903 255.65 108.872 255.795 108.872 255.958C108.872 256.169 108.901 256.339 108.96 256.466C109.018 256.589 109.106 256.679 109.223 256.734C109.341 256.79 109.489 256.817 109.668 256.817C109.886 256.817 110.078 256.767 110.244 256.666C110.41 256.565 110.538 256.443 110.63 256.3C110.724 256.156 110.768 256.023 110.761 255.899L110.952 256.305C110.939 256.432 110.896 256.57 110.825 256.72C110.757 256.866 110.66 257.008 110.537 257.144C110.413 257.278 110.267 257.389 110.097 257.476C109.931 257.561 109.744 257.603 109.536 257.603C109.23 257.603 108.961 257.545 108.73 257.428C108.502 257.31 108.325 257.138 108.198 256.91C108.071 256.682 108.007 256.401 108.007 256.065C108.007 255.811 108.051 255.577 108.139 255.362C108.227 255.147 108.357 254.962 108.53 254.806C108.702 254.646 108.919 254.522 109.179 254.434C109.443 254.347 109.747 254.303 110.092 254.303H110.825Z" fill="#2B2929"/>
<path d="M92.8512 258.482H112.241V258.971H92.8512V258.482Z" fill="#2B2929"/>
<path d="M188.557 249.828V257.759" stroke="#999999" stroke-width="0.5"/>
<path d="M166.863 250.396H167.761V255.401C167.761 255.935 167.659 256.363 167.454 256.685C167.249 257.008 166.979 257.242 166.643 257.389C166.311 257.532 165.953 257.603 165.569 257.603C165.159 257.603 164.789 257.532 164.461 257.389C164.132 257.242 163.87 257.008 163.674 256.685C163.482 256.363 163.386 255.935 163.386 255.401V250.396H164.28V255.401C164.28 255.772 164.332 256.062 164.436 256.27C164.544 256.479 164.693 256.625 164.885 256.71C165.081 256.794 165.309 256.837 165.569 256.837C165.833 256.837 166.061 256.794 166.253 256.71C166.448 256.625 166.598 256.479 166.702 256.27C166.809 256.062 166.863 255.772 166.863 255.401V250.396ZM170.945 252.223V252.916H168.479V252.223H170.945ZM169.285 250.938H170.149V256.197C170.149 256.376 170.17 256.511 170.213 256.602C170.258 256.694 170.315 256.754 170.383 256.783C170.452 256.812 170.525 256.827 170.603 256.827C170.662 256.827 170.727 256.821 170.798 256.807C170.87 256.791 170.919 256.778 170.945 256.768L170.94 257.506C170.882 257.529 170.803 257.55 170.706 257.569C170.608 257.592 170.484 257.603 170.335 257.603C170.149 257.603 169.977 257.559 169.817 257.472C169.658 257.384 169.529 257.237 169.431 257.032C169.334 256.824 169.285 256.544 169.285 256.192V250.938ZM173.904 252.223V252.916H171.438V252.223H173.904ZM172.244 250.938H173.108V256.197C173.108 256.376 173.129 256.511 173.172 256.602C173.217 256.694 173.274 256.754 173.342 256.783C173.411 256.812 173.484 256.827 173.562 256.827C173.621 256.827 173.686 256.821 173.757 256.807C173.829 256.791 173.878 256.778 173.904 256.768L173.899 257.506C173.84 257.529 173.762 257.55 173.665 257.569C173.567 257.592 173.443 257.603 173.294 257.603C173.108 257.603 172.936 257.559 172.776 257.472C172.617 257.384 172.488 257.237 172.39 257.032C172.293 256.824 172.244 256.544 172.244 256.192V250.938ZM177.522 256.602V253.736C177.522 253.528 177.49 253.36 177.424 253.233C177.363 253.106 177.268 253.014 177.141 252.955C177.018 252.896 176.861 252.867 176.673 252.867C176.49 252.867 176.332 252.905 176.199 252.979C176.069 253.054 175.968 253.154 175.896 253.277C175.828 253.401 175.794 253.538 175.794 253.687H174.929C174.929 253.499 174.97 253.311 175.051 253.126C175.136 252.94 175.257 252.773 175.413 252.623C175.569 252.47 175.756 252.349 175.974 252.262C176.196 252.17 176.443 252.125 176.716 252.125C177.042 252.125 177.33 252.179 177.581 252.286C177.831 252.39 178.028 252.561 178.172 252.799C178.315 253.036 178.386 253.352 178.386 253.746V256.353C178.386 256.529 178.399 256.716 178.425 256.915C178.455 257.113 178.495 257.284 178.548 257.428V257.506H177.654C177.612 257.402 177.579 257.263 177.556 257.091C177.534 256.915 177.522 256.752 177.522 256.602ZM177.659 254.303L177.669 254.937H177.068C176.863 254.937 176.676 254.96 176.507 255.006C176.34 255.051 176.197 255.118 176.077 255.206C175.956 255.291 175.864 255.396 175.798 255.523C175.737 255.65 175.706 255.795 175.706 255.958C175.706 256.169 175.735 256.339 175.794 256.466C175.852 256.589 175.94 256.679 176.057 256.734C176.174 256.79 176.323 256.817 176.502 256.817C176.72 256.817 176.912 256.767 177.078 256.666C177.244 256.565 177.372 256.443 177.464 256.3C177.558 256.156 177.602 256.023 177.595 255.899L177.786 256.305C177.773 256.432 177.73 256.57 177.659 256.72C177.59 256.866 177.494 257.008 177.371 257.144C177.247 257.278 177.101 257.389 176.931 257.476C176.765 257.561 176.578 257.603 176.37 257.603C176.064 257.603 175.795 257.545 175.564 257.428C175.336 257.31 175.159 257.138 175.032 256.91C174.905 256.682 174.841 256.401 174.841 256.065C174.841 255.811 174.885 255.577 174.973 255.362C175.061 255.147 175.191 254.962 175.364 254.806C175.536 254.646 175.753 254.522 176.013 254.434C176.277 254.347 176.581 254.303 176.926 254.303H177.659ZM180.593 253.053V257.506H179.729V252.223H180.564L180.593 253.053ZM181.907 252.193L181.912 253.033C181.84 253.017 181.775 253.007 181.716 253.004C181.661 252.997 181.596 252.994 181.521 252.994C181.358 252.994 181.215 253.027 181.091 253.092C180.971 253.157 180.867 253.248 180.779 253.365C180.691 253.482 180.621 253.622 180.569 253.785C180.517 253.945 180.481 254.12 180.462 254.312L180.237 254.459C180.237 254.14 180.261 253.84 180.31 253.56C180.362 253.28 180.442 253.033 180.549 252.818C180.657 252.6 180.794 252.431 180.96 252.31C181.129 252.187 181.331 252.125 181.565 252.125C181.617 252.125 181.681 252.133 181.756 252.149C181.834 252.162 181.884 252.177 181.907 252.193ZM185.159 254.718H183.606V253.951H185.159C185.452 253.951 185.688 253.892 185.867 253.775C186.049 253.658 186.181 253.495 186.262 253.287C186.347 253.079 186.389 252.841 186.389 252.574C186.389 252.33 186.347 252.1 186.262 251.886C186.181 251.671 186.049 251.498 185.867 251.368C185.688 251.235 185.452 251.168 185.159 251.168H183.792V257.506H182.893V250.396H185.159C185.618 250.396 186.005 250.489 186.321 250.675C186.637 250.86 186.876 251.117 187.039 251.446C187.205 251.772 187.288 252.144 187.288 252.564C187.288 253.02 187.205 253.409 187.039 253.731C186.876 254.054 186.637 254.299 186.321 254.469C186.005 254.635 185.618 254.718 185.159 254.718ZM189.187 253.053V257.506H188.323V252.223H189.158L189.187 253.053ZM190.501 252.193L190.506 253.033C190.434 253.017 190.369 253.007 190.31 253.004C190.255 252.997 190.19 252.994 190.115 252.994C189.952 252.994 189.809 253.027 189.685 253.092C189.565 253.157 189.461 253.248 189.373 253.365C189.285 253.482 189.215 253.622 189.163 253.785C189.111 253.945 189.075 254.12 189.055 254.312L188.831 254.459C188.831 254.14 188.855 253.84 188.904 253.56C188.956 253.28 189.036 253.033 189.143 252.818C189.251 252.6 189.387 252.431 189.553 252.31C189.723 252.187 189.924 252.125 190.159 252.125C190.211 252.125 190.274 252.133 190.349 252.149C190.427 252.162 190.478 252.177 190.501 252.193ZM193.762 256.602V253.736C193.762 253.528 193.73 253.36 193.665 253.233C193.603 253.106 193.508 253.014 193.382 252.955C193.258 252.896 193.102 252.867 192.913 252.867C192.73 252.867 192.573 252.905 192.439 252.979C192.309 253.054 192.208 253.154 192.136 253.277C192.068 253.401 192.034 253.538 192.034 253.687H191.17C191.17 253.499 191.21 253.311 191.292 253.126C191.376 252.94 191.497 252.773 191.653 252.623C191.809 252.47 191.996 252.349 192.215 252.262C192.436 252.17 192.683 252.125 192.957 252.125C193.282 252.125 193.57 252.179 193.821 252.286C194.072 252.39 194.269 252.561 194.412 252.799C194.555 253.036 194.627 253.352 194.627 253.746V256.353C194.627 256.529 194.64 256.716 194.666 256.915C194.695 257.113 194.736 257.284 194.788 257.428V257.506H193.894C193.852 257.402 193.819 257.263 193.797 257.091C193.774 256.915 193.762 256.752 193.762 256.602ZM193.899 254.303L193.909 254.937H193.308C193.103 254.937 192.916 254.96 192.747 255.006C192.581 255.051 192.437 255.118 192.317 255.206C192.197 255.291 192.104 255.396 192.039 255.523C191.977 255.65 191.946 255.795 191.946 255.958C191.946 256.169 191.975 256.339 192.034 256.466C192.092 256.589 192.18 256.679 192.298 256.734C192.415 256.79 192.563 256.817 192.742 256.817C192.96 256.817 193.152 256.767 193.318 256.666C193.484 256.565 193.613 256.443 193.704 256.3C193.798 256.156 193.842 256.023 193.836 255.899L194.026 256.305C194.013 256.432 193.971 256.57 193.899 256.72C193.831 256.866 193.735 257.008 193.611 257.144C193.487 257.278 193.341 257.389 193.172 257.476C193.006 257.561 192.818 257.603 192.61 257.603C192.304 257.603 192.035 257.545 191.804 257.428C191.576 257.31 191.399 257.138 191.272 256.91C191.145 256.682 191.082 256.401 191.082 256.065C191.082 255.811 191.126 255.577 191.214 255.362C191.301 255.147 191.432 254.962 191.604 254.806C191.777 254.646 191.993 254.522 192.254 254.434C192.517 254.347 192.822 254.303 193.167 254.303H193.899ZM198.738 256.48V250.006H199.597V257.506H198.811L198.738 256.48ZM195.784 255.118V254.625C195.784 254.189 195.826 253.814 195.911 253.502C195.995 253.186 196.116 252.927 196.272 252.725C196.428 252.52 196.616 252.369 196.834 252.271C197.052 252.174 197.293 252.125 197.556 252.125C197.83 252.125 198.064 252.18 198.259 252.291C198.458 252.402 198.624 252.563 198.757 252.774C198.891 252.983 198.995 253.237 199.07 253.536C199.148 253.832 199.2 254.168 199.226 254.542V255.201C199.197 255.572 199.143 255.906 199.065 256.202C198.99 256.498 198.886 256.751 198.753 256.959C198.619 257.167 198.453 257.327 198.255 257.437C198.056 257.548 197.82 257.603 197.547 257.603C197.286 257.603 197.048 257.553 196.834 257.452C196.619 257.348 196.432 257.193 196.272 256.988C196.116 256.78 195.995 256.521 195.911 256.212C195.826 255.899 195.784 255.535 195.784 255.118ZM196.648 254.625V255.118C196.648 255.411 196.669 255.667 196.712 255.885C196.754 256.099 196.821 256.279 196.912 256.422C197.003 256.562 197.118 256.666 197.258 256.734C197.402 256.803 197.573 256.837 197.771 256.837C198.012 256.837 198.209 256.778 198.362 256.661C198.515 256.544 198.637 256.389 198.728 256.197C198.823 256.002 198.897 255.792 198.953 255.567V254.181C198.92 254.015 198.873 253.855 198.811 253.702C198.749 253.546 198.671 253.407 198.577 253.287C198.486 253.163 198.373 253.066 198.24 252.994C198.11 252.922 197.957 252.887 197.781 252.887C197.582 252.887 197.41 252.922 197.263 252.994C197.12 253.066 197.003 253.173 196.912 253.316C196.824 253.46 196.757 253.64 196.712 253.858C196.669 254.076 196.648 254.332 196.648 254.625ZM202.82 257.603C202.504 257.603 202.219 257.556 201.965 257.462C201.712 257.367 201.495 257.224 201.316 257.032C201.137 256.837 201 256.591 200.906 256.295C200.812 255.999 200.764 255.649 200.764 255.245V254.649C200.764 254.184 200.818 253.79 200.925 253.468C201.036 253.145 201.184 252.887 201.37 252.691C201.555 252.493 201.765 252.349 202 252.262C202.234 252.17 202.475 252.125 202.722 252.125C203.054 252.125 203.338 252.179 203.572 252.286C203.806 252.393 203.997 252.553 204.143 252.765C204.29 252.976 204.397 253.237 204.465 253.546C204.537 253.855 204.573 254.211 204.573 254.615V255.118H201.272V254.381H203.709V254.259C203.696 253.985 203.658 253.744 203.596 253.536C203.538 253.328 203.44 253.165 203.303 253.048C203.167 252.927 202.973 252.867 202.722 252.867C202.563 252.867 202.415 252.895 202.278 252.95C202.145 253.002 202.029 253.095 201.931 253.228C201.837 253.359 201.762 253.539 201.707 253.77C201.655 254.002 201.629 254.294 201.629 254.649V255.245C201.629 255.528 201.655 255.772 201.707 255.977C201.762 256.179 201.842 256.347 201.946 256.48C202.053 256.611 202.184 256.708 202.337 256.773C202.493 256.835 202.67 256.866 202.869 256.866C203.159 256.866 203.398 256.811 203.587 256.7C203.775 256.586 203.94 256.441 204.08 256.266L204.534 256.807C204.439 256.941 204.316 257.07 204.163 257.193C204.013 257.314 203.827 257.413 203.606 257.491C203.388 257.566 203.126 257.603 202.82 257.603ZM208.181 256.153C208.181 256.02 208.149 255.903 208.084 255.802C208.019 255.701 207.911 255.603 207.761 255.509C207.615 255.414 207.416 255.313 207.166 255.206C206.922 255.105 206.702 255.006 206.507 254.908C206.314 254.807 206.152 254.698 206.018 254.581C205.885 254.464 205.782 254.329 205.711 254.176C205.642 254.019 205.608 253.835 205.608 253.624C205.608 253.412 205.647 253.217 205.725 253.038C205.807 252.856 205.921 252.696 206.067 252.559C206.214 252.423 206.389 252.317 206.594 252.242C206.799 252.164 207.029 252.125 207.283 252.125C207.644 252.125 207.952 252.195 208.206 252.335C208.46 252.475 208.653 252.667 208.787 252.911C208.923 253.152 208.992 253.424 208.992 253.726H208.132C208.132 253.58 208.1 253.442 208.035 253.311C207.97 253.181 207.874 253.075 207.747 252.994C207.62 252.909 207.465 252.867 207.283 252.867C207.091 252.867 206.935 252.901 206.814 252.97C206.694 253.038 206.606 253.127 206.55 253.238C206.498 253.346 206.472 253.464 206.472 253.595C206.472 253.692 206.485 253.777 206.511 253.849C206.541 253.917 206.59 253.982 206.658 254.044C206.726 254.102 206.819 254.164 206.936 254.229C207.057 254.291 207.21 254.363 207.395 254.444C207.753 254.584 208.054 254.726 208.298 254.869C208.543 255.012 208.728 255.18 208.855 255.372C208.982 255.564 209.046 255.802 209.046 256.085C209.046 256.316 209.003 256.526 208.919 256.715C208.837 256.9 208.72 257.06 208.567 257.193C208.414 257.327 208.23 257.429 208.015 257.501C207.804 257.569 207.566 257.603 207.302 257.603C206.905 257.603 206.568 257.525 206.292 257.369C206.018 257.21 205.81 257.003 205.667 256.749C205.527 256.492 205.457 256.217 205.457 255.924H206.321C206.331 256.171 206.386 256.363 206.487 256.5C206.591 256.637 206.716 256.731 206.863 256.783C207.009 256.835 207.156 256.861 207.302 256.861C207.494 256.861 207.656 256.834 207.786 256.778C207.916 256.72 208.014 256.637 208.079 256.529C208.147 256.422 208.181 256.296 208.181 256.153ZM211.043 250.006V257.506H210.178V250.006H211.043ZM210.833 254.664L210.481 254.649C210.478 254.288 210.519 253.954 210.603 253.648C210.691 253.339 210.815 253.071 210.974 252.843C211.137 252.615 211.331 252.439 211.555 252.315C211.78 252.188 212.029 252.125 212.302 252.125C212.517 252.125 212.713 252.161 212.888 252.232C213.064 252.301 213.214 252.411 213.338 252.564C213.461 252.717 213.556 252.916 213.621 253.16C213.689 253.401 213.723 253.696 213.723 254.044V257.506H212.859V254.034C212.859 253.757 212.828 253.536 212.766 253.37C212.708 253.201 212.617 253.079 212.493 253.004C212.372 252.926 212.219 252.887 212.034 252.887C211.865 252.887 211.707 252.934 211.56 253.028C211.414 253.123 211.285 253.253 211.174 253.419C211.067 253.585 210.982 253.775 210.921 253.99C210.862 254.202 210.833 254.426 210.833 254.664Z" fill="#2B2929"/>
<path d="M162.752 258.482H182.127V258.971H162.752V258.482Z" fill="#2B2929"/>
<path d="M274.566 249.828V257.759" stroke="#999999" stroke-width="0.5"/>
<path d="M250.801 250.396H251.671L253.531 256.192L255.386 250.396H256.256L253.868 257.506H253.184L250.801 250.396ZM250.518 250.396H251.28L251.412 254.732V257.506H250.518V250.396ZM255.772 250.396H256.534V257.506H255.64V254.732L255.772 250.396ZM260.548 256.602V253.736C260.548 253.528 260.515 253.36 260.45 253.233C260.388 253.106 260.294 253.014 260.167 252.955C260.043 252.896 259.887 252.867 259.698 252.867C259.516 252.867 259.358 252.905 259.224 252.979C259.094 253.054 258.993 253.154 258.922 253.277C258.853 253.401 258.819 253.538 258.819 253.687H257.955C257.955 253.499 257.995 253.311 258.077 253.126C258.161 252.94 258.282 252.773 258.438 252.623C258.594 252.47 258.782 252.349 259 252.262C259.221 252.17 259.468 252.125 259.742 252.125C260.067 252.125 260.355 252.179 260.606 252.286C260.857 252.39 261.054 252.561 261.197 252.799C261.34 253.036 261.412 253.352 261.412 253.746V256.353C261.412 256.529 261.425 256.716 261.451 256.915C261.48 257.113 261.521 257.284 261.573 257.428V257.506H260.679C260.637 257.402 260.605 257.263 260.582 257.091C260.559 256.915 260.548 256.752 260.548 256.602ZM260.684 254.303L260.694 254.937H260.093C259.888 254.937 259.701 254.96 259.532 255.006C259.366 255.051 259.223 255.118 259.102 255.206C258.982 255.291 258.889 255.396 258.824 255.523C258.762 255.65 258.731 255.795 258.731 255.958C258.731 256.169 258.76 256.339 258.819 256.466C258.878 256.589 258.966 256.679 259.083 256.734C259.2 256.79 259.348 256.817 259.527 256.817C259.745 256.817 259.937 256.767 260.103 256.666C260.269 256.565 260.398 256.443 260.489 256.3C260.583 256.156 260.627 256.023 260.621 255.899L260.811 256.305C260.798 256.432 260.756 256.57 260.684 256.72C260.616 256.866 260.52 257.008 260.396 257.144C260.272 257.278 260.126 257.389 259.957 257.476C259.791 257.561 259.604 257.603 259.395 257.603C259.089 257.603 258.821 257.545 258.59 257.428C258.362 257.31 258.184 257.138 258.057 256.91C257.93 256.682 257.867 256.401 257.867 256.065C257.867 255.811 257.911 255.577 257.999 255.362C258.087 255.147 258.217 254.962 258.389 254.806C258.562 254.646 258.778 254.522 259.039 254.434C259.302 254.347 259.607 254.303 259.952 254.303H260.684ZM263.619 250.006V257.506H262.755V250.006H263.619ZM263.409 254.664L263.057 254.649C263.054 254.288 263.095 253.954 263.179 253.648C263.267 253.339 263.391 253.071 263.55 252.843C263.713 252.615 263.907 252.439 264.132 252.315C264.356 252.188 264.605 252.125 264.879 252.125C265.093 252.125 265.289 252.161 265.465 252.232C265.64 252.301 265.79 252.411 265.914 252.564C266.037 252.717 266.132 252.916 266.197 253.16C266.265 253.401 266.299 253.696 266.299 254.044V257.506H265.435V254.034C265.435 253.757 265.404 253.536 265.342 253.37C265.284 253.201 265.193 253.079 265.069 253.004C264.949 252.926 264.796 252.887 264.61 252.887C264.441 252.887 264.283 252.934 264.136 253.028C263.99 253.123 263.861 253.253 263.751 253.419C263.643 253.585 263.559 253.775 263.497 253.99C263.438 254.202 263.409 254.426 263.409 254.664ZM270.176 256.602V253.736C270.176 253.528 270.144 253.36 270.079 253.233C270.017 253.106 269.923 253.014 269.796 252.955C269.672 252.896 269.516 252.867 269.327 252.867C269.145 252.867 268.987 252.905 268.853 252.979C268.723 253.054 268.622 253.154 268.55 253.277C268.482 253.401 268.448 253.538 268.448 253.687H267.584C267.584 253.499 267.624 253.311 267.706 253.126C267.79 252.94 267.911 252.773 268.067 252.623C268.223 252.47 268.411 252.349 268.629 252.262C268.85 252.17 269.097 252.125 269.371 252.125C269.696 252.125 269.984 252.179 270.235 252.286C270.486 252.39 270.683 252.561 270.826 252.799C270.969 253.036 271.041 253.352 271.041 253.746V256.353C271.041 256.529 271.054 256.716 271.08 256.915C271.109 257.113 271.15 257.284 271.202 257.428V257.506H270.308C270.266 257.402 270.233 257.263 270.211 257.091C270.188 256.915 270.176 256.752 270.176 256.602ZM270.313 254.303L270.323 254.937H269.722C269.517 254.937 269.33 254.96 269.161 255.006C268.995 255.051 268.852 255.118 268.731 255.206C268.611 255.291 268.518 255.396 268.453 255.523C268.391 255.65 268.36 255.795 268.36 255.958C268.36 256.169 268.389 256.339 268.448 256.466C268.507 256.589 268.594 256.679 268.712 256.734C268.829 256.79 268.977 256.817 269.156 256.817C269.374 256.817 269.566 256.767 269.732 256.666C269.898 256.565 270.027 256.443 270.118 256.3C270.212 256.156 270.256 256.023 270.25 255.899L270.44 256.305C270.427 256.432 270.385 256.57 270.313 256.72C270.245 256.866 270.149 257.008 270.025 257.144C269.901 257.278 269.755 257.389 269.586 257.476C269.42 257.561 269.232 257.603 269.024 257.603C268.718 257.603 268.45 257.545 268.218 257.428C267.991 257.31 267.813 257.138 267.686 256.91C267.559 256.682 267.496 256.401 267.496 256.065C267.496 255.811 267.54 255.577 267.628 255.362C267.716 255.147 267.846 254.962 268.018 254.806C268.191 254.646 268.407 254.522 268.668 254.434C268.931 254.347 269.236 254.303 269.581 254.303H270.313ZM273.248 253.053V257.506H272.383V252.223H273.218L273.248 253.053ZM274.561 252.193L274.566 253.033C274.494 253.017 274.429 253.007 274.371 253.004C274.315 252.997 274.25 252.994 274.175 252.994C274.013 252.994 273.869 253.027 273.746 253.092C273.625 253.157 273.521 253.248 273.433 253.365C273.345 253.482 273.275 253.622 273.223 253.785C273.171 253.945 273.135 254.12 273.116 254.312L272.891 254.459C272.891 254.14 272.916 253.84 272.965 253.56C273.017 253.28 273.096 253.033 273.204 252.818C273.311 252.6 273.448 252.431 273.614 252.31C273.783 252.187 273.985 252.125 274.219 252.125C274.272 252.125 274.335 252.133 274.41 252.149C274.488 252.162 274.538 252.177 274.561 252.193ZM277.823 256.602V253.736C277.823 253.528 277.79 253.36 277.725 253.233C277.663 253.106 277.569 253.014 277.442 252.955C277.318 252.896 277.162 252.867 276.973 252.867C276.791 252.867 276.633 252.905 276.5 252.979C276.369 253.054 276.269 253.154 276.197 253.277C276.129 253.401 276.094 253.538 276.094 253.687H275.23C275.23 253.499 275.271 253.311 275.352 253.126C275.437 252.94 275.557 252.773 275.714 252.623C275.87 252.47 276.057 252.349 276.275 252.262C276.496 252.17 276.744 252.125 277.017 252.125C277.343 252.125 277.631 252.179 277.882 252.286C278.132 252.39 278.329 252.561 278.472 252.799C278.616 253.036 278.687 253.352 278.687 253.746V256.353C278.687 256.529 278.7 256.716 278.726 256.915C278.756 257.113 278.796 257.284 278.848 257.428V257.506H277.955C277.912 257.402 277.88 257.263 277.857 257.091C277.834 256.915 277.823 256.752 277.823 256.602ZM277.96 254.303L277.969 254.937H277.369C277.164 254.937 276.977 254.96 276.807 255.006C276.641 255.051 276.498 255.118 276.378 255.206C276.257 255.291 276.164 255.396 276.099 255.523C276.037 255.65 276.007 255.795 276.007 255.958C276.007 256.169 276.036 256.339 276.094 256.466C276.153 256.589 276.241 256.679 276.358 256.734C276.475 256.79 276.623 256.817 276.802 256.817C277.021 256.817 277.213 256.767 277.379 256.666C277.545 256.565 277.673 256.443 277.764 256.3C277.859 256.156 277.903 256.023 277.896 255.899L278.087 256.305C278.074 256.432 278.031 256.57 277.96 256.72C277.891 256.866 277.795 257.008 277.672 257.144C277.548 257.278 277.401 257.389 277.232 257.476C277.066 257.561 276.879 257.603 276.671 257.603C276.365 257.603 276.096 257.545 275.865 257.428C275.637 257.31 275.46 257.138 275.333 256.91C275.206 256.682 275.142 256.401 275.142 256.065C275.142 255.811 275.186 255.577 275.274 255.362C275.362 255.147 275.492 254.962 275.665 254.806C275.837 254.646 276.054 254.522 276.314 254.434C276.578 254.347 276.882 254.303 277.227 254.303H277.96ZM282.593 256.153C282.593 256.02 282.561 255.903 282.496 255.802C282.431 255.701 282.323 255.603 282.174 255.509C282.027 255.414 281.828 255.313 281.578 255.206C281.334 255.105 281.114 255.006 280.919 254.908C280.727 254.807 280.564 254.698 280.43 254.581C280.297 254.464 280.194 254.329 280.123 254.176C280.054 254.019 280.02 253.835 280.02 253.624C280.02 253.412 280.059 253.217 280.137 253.038C280.219 252.856 280.333 252.696 280.479 252.559C280.626 252.423 280.801 252.317 281.007 252.242C281.212 252.164 281.441 252.125 281.695 252.125C282.056 252.125 282.364 252.195 282.618 252.335C282.872 252.475 283.065 252.667 283.199 252.911C283.336 253.152 283.404 253.424 283.404 253.726H282.545C282.545 253.58 282.512 253.442 282.447 253.311C282.382 253.181 282.286 253.075 282.159 252.994C282.032 252.909 281.877 252.867 281.695 252.867C281.503 252.867 281.347 252.901 281.226 252.97C281.106 253.038 281.018 253.127 280.963 253.238C280.911 253.346 280.884 253.464 280.884 253.595C280.884 253.692 280.897 253.777 280.924 253.849C280.953 253.917 281.002 253.982 281.07 254.044C281.138 254.102 281.231 254.164 281.348 254.229C281.469 254.291 281.622 254.363 281.807 254.444C282.165 254.584 282.466 254.726 282.711 254.869C282.955 255.012 283.14 255.18 283.267 255.372C283.394 255.564 283.458 255.802 283.458 256.085C283.458 256.316 283.415 256.526 283.331 256.715C283.249 256.9 283.132 257.06 282.979 257.193C282.826 257.327 282.642 257.429 282.427 257.501C282.216 257.569 281.978 257.603 281.715 257.603C281.317 257.603 280.98 257.525 280.704 257.369C280.43 257.21 280.222 257.003 280.079 256.749C279.939 256.492 279.869 256.217 279.869 255.924H280.733C280.743 256.171 280.798 256.363 280.899 256.5C281.003 256.637 281.129 256.731 281.275 256.783C281.422 256.835 281.568 256.861 281.715 256.861C281.907 256.861 282.068 256.834 282.198 256.778C282.328 256.72 282.426 256.637 282.491 256.529C282.559 256.422 282.593 256.296 282.593 256.153ZM285.455 250.006V257.506H284.591V250.006H285.455ZM285.245 254.664L284.893 254.649C284.89 254.288 284.931 253.954 285.015 253.648C285.103 253.339 285.227 253.071 285.386 252.843C285.549 252.615 285.743 252.439 285.967 252.315C286.192 252.188 286.441 252.125 286.715 252.125C286.929 252.125 287.125 252.161 287.3 252.232C287.476 252.301 287.626 252.411 287.75 252.564C287.873 252.717 287.968 252.916 288.033 253.16C288.101 253.401 288.135 253.696 288.135 254.044V257.506H287.271V254.034C287.271 253.757 287.24 253.536 287.178 253.37C287.12 253.201 287.029 253.079 286.905 253.004C286.785 252.926 286.632 252.887 286.446 252.887C286.277 252.887 286.119 252.934 285.972 253.028C285.826 253.123 285.697 253.253 285.587 253.419C285.479 253.585 285.395 253.775 285.333 253.99C285.274 254.202 285.245 254.426 285.245 254.664ZM291.353 252.223V252.916H288.887V252.223H291.353ZM289.693 250.938H290.557V256.197C290.557 256.376 290.578 256.511 290.621 256.602C290.666 256.694 290.723 256.754 290.792 256.783C290.86 256.812 290.933 256.827 291.011 256.827C291.07 256.827 291.135 256.821 291.207 256.807C291.278 256.791 291.327 256.778 291.353 256.768L291.348 257.506C291.29 257.529 291.212 257.55 291.114 257.569C291.016 257.592 290.893 257.603 290.743 257.603C290.557 257.603 290.385 257.559 290.225 257.472C290.066 257.384 289.937 257.237 289.84 257.032C289.742 256.824 289.693 256.544 289.693 256.192V250.938ZM293.248 253.053V257.506H292.383V252.223H293.218L293.248 253.053ZM294.561 252.193L294.566 253.033C294.494 253.017 294.429 253.007 294.371 253.004C294.315 252.997 294.25 252.994 294.175 252.994C294.013 252.994 293.869 253.027 293.746 253.092C293.625 253.157 293.521 253.248 293.433 253.365C293.345 253.482 293.275 253.622 293.223 253.785C293.171 253.945 293.135 254.12 293.116 254.312L292.891 254.459C292.891 254.14 292.916 253.84 292.965 253.56C293.017 253.28 293.096 253.033 293.204 252.818C293.311 252.6 293.448 252.431 293.614 252.31C293.783 252.187 293.985 252.125 294.219 252.125C294.272 252.125 294.335 252.133 294.41 252.149C294.488 252.162 294.538 252.177 294.561 252.193ZM297.823 256.602V253.736C297.823 253.528 297.79 253.36 297.725 253.233C297.663 253.106 297.569 253.014 297.442 252.955C297.318 252.896 297.162 252.867 296.973 252.867C296.791 252.867 296.633 252.905 296.5 252.979C296.369 253.054 296.269 253.154 296.197 253.277C296.129 253.401 296.094 253.538 296.094 253.687H295.23C295.23 253.499 295.271 253.311 295.352 253.126C295.437 252.94 295.557 252.773 295.714 252.623C295.87 252.47 296.057 252.349 296.275 252.262C296.496 252.17 296.744 252.125 297.017 252.125C297.343 252.125 297.631 252.179 297.882 252.286C298.132 252.39 298.329 252.561 298.472 252.799C298.616 253.036 298.687 253.352 298.687 253.746V256.353C298.687 256.529 298.7 256.716 298.726 256.915C298.756 257.113 298.796 257.284 298.848 257.428V257.506H297.955C297.912 257.402 297.88 257.263 297.857 257.091C297.834 256.915 297.823 256.752 297.823 256.602ZM297.96 254.303L297.969 254.937H297.369C297.164 254.937 296.977 254.96 296.807 255.006C296.641 255.051 296.498 255.118 296.378 255.206C296.257 255.291 296.164 255.396 296.099 255.523C296.037 255.65 296.007 255.795 296.007 255.958C296.007 256.169 296.036 256.339 296.094 256.466C296.153 256.589 296.241 256.679 296.358 256.734C296.475 256.79 296.623 256.817 296.802 256.817C297.021 256.817 297.213 256.767 297.379 256.666C297.545 256.565 297.673 256.443 297.764 256.3C297.859 256.156 297.903 256.023 297.896 255.899L298.087 256.305C298.074 256.432 298.031 256.57 297.96 256.72C297.891 256.866 297.795 257.008 297.672 257.144C297.548 257.278 297.401 257.389 297.232 257.476C297.066 257.561 296.879 257.603 296.671 257.603C296.365 257.603 296.096 257.545 295.865 257.428C295.637 257.31 295.46 257.138 295.333 256.91C295.206 256.682 295.142 256.401 295.142 256.065C295.142 255.811 295.186 255.577 295.274 255.362C295.362 255.147 295.492 254.962 295.665 254.806C295.837 254.646 296.054 254.522 296.314 254.434C296.578 254.347 296.882 254.303 297.227 254.303H297.96Z" fill="#2B2929"/>
<path d="M249.752 258.482H299.376V258.971H249.752V258.482Z" fill="#2B2929"/>
<path d="M360.575 249.828V257.759" stroke="#999999" stroke-width="0.5"/>
<path d="M353.942 254.181H352.496L352.486 253.424H353.829C354.031 253.424 354.21 253.378 354.366 253.287C354.523 253.196 354.645 253.066 354.733 252.896C354.824 252.724 354.869 252.519 354.869 252.281C354.869 252.021 354.83 251.809 354.752 251.646C354.677 251.48 354.562 251.36 354.405 251.285C354.252 251.207 354.057 251.168 353.819 251.168H352.687V257.506H351.788V250.396H353.819C354.125 250.396 354.399 250.434 354.64 250.509C354.881 250.58 355.084 250.694 355.25 250.85C355.419 251.003 355.548 251.199 355.636 251.436C355.724 251.674 355.768 251.959 355.768 252.291C355.768 252.584 355.701 252.849 355.568 253.087C355.437 253.321 355.255 253.513 355.021 253.663C354.786 253.813 354.516 253.909 354.21 253.951L353.942 254.181ZM353.907 257.506H352.125L352.648 256.739H353.907C354.142 256.739 354.34 256.687 354.503 256.583C354.666 256.479 354.79 256.332 354.874 256.143C354.962 255.951 355.006 255.725 355.006 255.465C355.006 255.201 354.97 254.973 354.899 254.781C354.827 254.589 354.713 254.441 354.557 254.337C354.401 254.233 354.195 254.181 353.942 254.181H352.784L352.794 253.424H354.357L354.557 253.697C354.85 253.726 355.096 253.824 355.294 253.99C355.496 254.153 355.647 254.361 355.748 254.615C355.852 254.869 355.904 255.149 355.904 255.455C355.904 255.898 355.821 256.272 355.655 256.578C355.493 256.881 355.262 257.112 354.962 257.271C354.663 257.428 354.311 257.506 353.907 257.506ZM358.058 252.223V257.506H357.198V252.223H358.058ZM357.15 250.821C357.15 250.675 357.19 250.551 357.272 250.45C357.353 250.349 357.475 250.299 357.638 250.299C357.801 250.299 357.923 250.349 358.004 250.45C358.089 250.551 358.131 250.675 358.131 250.821C358.131 250.961 358.089 251.082 358.004 251.182C357.923 251.28 357.801 251.329 357.638 251.329C357.475 251.329 357.353 251.28 357.272 251.182C357.19 251.082 357.15 250.961 357.15 250.821ZM360.289 250.006V257.506H359.425V250.006H360.289ZM360.079 254.664L359.728 254.649C359.724 254.288 359.765 253.954 359.85 253.648C359.938 253.339 360.061 253.071 360.221 252.843C360.384 252.615 360.577 252.439 360.802 252.315C361.027 252.188 361.276 252.125 361.549 252.125C361.764 252.125 361.959 252.161 362.135 252.232C362.311 252.301 362.46 252.411 362.584 252.564C362.708 252.717 362.802 252.916 362.867 253.16C362.936 253.401 362.97 253.696 362.97 254.044V257.506H362.106V254.034C362.106 253.757 362.075 253.536 362.013 253.37C361.954 253.201 361.863 253.079 361.739 253.004C361.619 252.926 361.466 252.887 361.28 252.887C361.111 252.887 360.953 252.934 360.807 253.028C360.66 253.123 360.532 253.253 360.421 253.419C360.314 253.585 360.229 253.775 360.167 253.99C360.109 254.202 360.079 254.426 360.079 254.664ZM366.847 256.602V253.736C366.847 253.528 366.814 253.36 366.749 253.233C366.687 253.106 366.593 253.014 366.466 252.955C366.342 252.896 366.186 252.867 365.997 252.867C365.815 252.867 365.657 252.905 365.524 252.979C365.393 253.054 365.292 253.154 365.221 253.277C365.152 253.401 365.118 253.538 365.118 253.687H364.254C364.254 253.499 364.295 253.311 364.376 253.126C364.461 252.94 364.581 252.773 364.737 252.623C364.894 252.47 365.081 252.349 365.299 252.262C365.52 252.17 365.768 252.125 366.041 252.125C366.367 252.125 366.655 252.179 366.905 252.286C367.156 252.39 367.353 252.561 367.496 252.799C367.639 253.036 367.711 253.352 367.711 253.746V256.353C367.711 256.529 367.724 256.716 367.75 256.915C367.779 257.113 367.82 257.284 367.872 257.428V257.506H366.979C366.936 257.402 366.904 257.263 366.881 257.091C366.858 256.915 366.847 256.752 366.847 256.602ZM366.984 254.303L366.993 254.937H366.393C366.188 254.937 366 254.96 365.831 255.006C365.665 255.051 365.522 255.118 365.402 255.206C365.281 255.291 365.188 255.396 365.123 255.523C365.061 255.65 365.03 255.795 365.03 255.958C365.03 256.169 365.06 256.339 365.118 256.466C365.177 256.589 365.265 256.679 365.382 256.734C365.499 256.79 365.647 256.817 365.826 256.817C366.044 256.817 366.236 256.767 366.402 256.666C366.569 256.565 366.697 256.443 366.788 256.3C366.883 256.156 366.927 256.023 366.92 255.899L367.111 256.305C367.097 256.432 367.055 256.57 366.984 256.72C366.915 256.866 366.819 257.008 366.695 257.144C366.572 257.278 366.425 257.389 366.256 257.476C366.09 257.561 365.903 257.603 365.694 257.603C365.388 257.603 365.12 257.545 364.889 257.428C364.661 257.31 364.484 257.138 364.357 256.91C364.23 256.682 364.166 256.401 364.166 256.065C364.166 255.811 364.21 255.577 364.298 255.362C364.386 255.147 364.516 254.962 364.689 254.806C364.861 254.646 365.078 254.522 365.338 254.434C365.602 254.347 365.906 254.303 366.251 254.303H366.984ZM369.918 253.053V257.506H369.054V252.223H369.889L369.918 253.053ZM371.232 252.193L371.236 253.033C371.165 253.017 371.1 253.007 371.041 253.004C370.986 252.997 370.921 252.994 370.846 252.994C370.683 252.994 370.54 253.027 370.416 253.092C370.296 253.157 370.192 253.248 370.104 253.365C370.016 253.482 369.946 253.622 369.894 253.785C369.842 253.945 369.806 254.12 369.786 254.312L369.562 254.459C369.562 254.14 369.586 253.84 369.635 253.56C369.687 253.28 369.767 253.033 369.874 252.818C369.982 252.6 370.118 252.431 370.284 252.31C370.454 252.187 370.655 252.125 370.89 252.125C370.942 252.125 371.005 252.133 371.08 252.149C371.158 252.162 371.209 252.177 371.232 252.193Z" fill="#2B2929"/>
<path d="M351.022 258.482H371.451V258.971H351.022V258.482Z" fill="#2B2929"/>
<path d="M446.583 249.828V257.759" stroke="#999999" stroke-width="0.5"/>
<path d="M425.121 255.357L426.258 250.396H426.898L426.561 252.325L425.326 257.506H424.686L425.121 255.357ZM423.998 250.396L424.886 255.26L425.15 257.506H424.52L423.104 250.396H423.998ZM428.348 255.255L429.217 250.396H430.111L428.7 257.506H428.07L428.348 255.255ZM427.001 250.396L428.104 255.357L428.529 257.506H427.889L426.708 252.325L426.371 250.396H427.001ZM432.758 257.603C432.442 257.603 432.157 257.556 431.903 257.462C431.649 257.367 431.433 257.224 431.254 257.032C431.075 256.837 430.938 256.591 430.843 256.295C430.749 255.999 430.702 255.649 430.702 255.245V254.649C430.702 254.184 430.756 253.79 430.863 253.468C430.974 253.145 431.122 252.887 431.307 252.691C431.493 252.493 431.703 252.349 431.937 252.262C432.172 252.17 432.412 252.125 432.66 252.125C432.992 252.125 433.275 252.179 433.509 252.286C433.744 252.393 433.934 252.553 434.081 252.765C434.227 252.976 434.335 253.237 434.403 253.546C434.475 253.855 434.51 254.211 434.51 254.615V255.118H431.21V254.381H433.646V254.259C433.633 253.985 433.596 253.744 433.534 253.536C433.475 253.328 433.378 253.165 433.241 253.048C433.104 252.927 432.911 252.867 432.66 252.867C432.5 252.867 432.352 252.895 432.216 252.95C432.082 253.002 431.967 253.095 431.869 253.228C431.774 253.359 431.7 253.539 431.644 253.77C431.592 254.002 431.566 254.294 431.566 254.649V255.245C431.566 255.528 431.592 255.772 431.644 255.977C431.7 256.179 431.779 256.347 431.883 256.48C431.991 256.611 432.121 256.708 432.274 256.773C432.43 256.835 432.608 256.866 432.806 256.866C433.096 256.866 433.335 256.811 433.524 256.7C433.713 256.586 433.877 256.441 434.017 256.266L434.471 256.807C434.377 256.941 434.253 257.07 434.1 257.193C433.951 257.314 433.765 257.413 433.544 257.491C433.326 257.566 433.064 257.603 432.758 257.603ZM438.119 256.153C438.119 256.02 438.086 255.903 438.021 255.802C437.956 255.701 437.849 255.603 437.699 255.509C437.552 255.414 437.354 255.313 437.103 255.206C436.859 255.105 436.639 255.006 436.444 254.908C436.252 254.807 436.089 254.698 435.956 254.581C435.822 254.464 435.72 254.329 435.648 254.176C435.58 254.019 435.546 253.835 435.546 253.624C435.546 253.412 435.585 253.217 435.663 253.038C435.744 252.856 435.858 252.696 436.005 252.559C436.151 252.423 436.327 252.317 436.532 252.242C436.737 252.164 436.967 252.125 437.22 252.125C437.582 252.125 437.889 252.195 438.143 252.335C438.397 252.475 438.591 252.667 438.724 252.911C438.861 253.152 438.929 253.424 438.929 253.726H438.07C438.07 253.58 438.037 253.442 437.972 253.311C437.907 253.181 437.811 253.075 437.684 252.994C437.557 252.909 437.403 252.867 437.22 252.867C437.028 252.867 436.872 252.901 436.752 252.97C436.631 253.038 436.543 253.127 436.488 253.238C436.436 253.346 436.41 253.464 436.41 253.595C436.41 253.692 436.423 253.777 436.449 253.849C436.478 253.917 436.527 253.982 436.595 254.044C436.664 254.102 436.757 254.164 436.874 254.229C436.994 254.291 437.147 254.363 437.333 254.444C437.691 254.584 437.992 254.726 438.236 254.869C438.48 255.012 438.666 255.18 438.793 255.372C438.92 255.564 438.983 255.802 438.983 256.085C438.983 256.316 438.941 256.526 438.856 256.715C438.775 256.9 438.658 257.06 438.505 257.193C438.352 257.327 438.168 257.429 437.953 257.501C437.741 257.569 437.504 257.603 437.24 257.603C436.843 257.603 436.506 257.525 436.229 257.369C435.956 257.21 435.747 257.003 435.604 256.749C435.464 256.492 435.394 256.217 435.394 255.924H436.258C436.268 256.171 436.324 256.363 436.425 256.5C436.529 256.637 436.654 256.731 436.8 256.783C436.947 256.835 437.093 256.861 437.24 256.861C437.432 256.861 437.593 256.834 437.723 256.778C437.854 256.72 437.951 256.637 438.016 256.529C438.085 256.422 438.119 256.296 438.119 256.153ZM442.045 252.223V252.916H439.579V252.223H442.045ZM440.384 250.938H441.249V256.197C441.249 256.376 441.27 256.511 441.312 256.602C441.358 256.694 441.415 256.754 441.483 256.783C441.551 256.812 441.625 256.827 441.703 256.827C441.761 256.827 441.827 256.821 441.898 256.807C441.97 256.791 442.019 256.778 442.045 256.768L442.04 257.506C441.981 257.529 441.903 257.55 441.805 257.569C441.708 257.592 441.584 257.603 441.434 257.603C441.249 257.603 441.076 257.559 440.917 257.472C440.757 257.384 440.629 257.237 440.531 257.032C440.433 256.824 440.384 256.544 440.384 256.192V250.938ZM447.64 254.181H446.195L446.185 253.424H447.528C447.73 253.424 447.909 253.378 448.065 253.287C448.221 253.196 448.343 253.066 448.431 252.896C448.522 252.724 448.568 252.519 448.568 252.281C448.568 252.021 448.529 251.809 448.451 251.646C448.376 251.48 448.26 251.36 448.104 251.285C447.951 251.207 447.756 251.168 447.518 251.168H446.385V257.506H445.487V250.396H447.518C447.824 250.396 448.098 250.434 448.339 250.509C448.579 250.58 448.783 250.694 448.949 250.85C449.118 251.003 449.247 251.199 449.335 251.436C449.423 251.674 449.467 251.959 449.467 252.291C449.467 252.584 449.4 252.849 449.266 253.087C449.136 253.321 448.954 253.513 448.719 253.663C448.485 253.813 448.215 253.909 447.909 253.951L447.64 254.181ZM447.606 257.506H445.824L446.346 256.739H447.606C447.841 256.739 448.039 256.687 448.202 256.583C448.365 256.479 448.488 256.332 448.573 256.143C448.661 255.951 448.705 255.725 448.705 255.465C448.705 255.201 448.669 254.973 448.597 254.781C448.526 254.589 448.412 254.441 448.256 254.337C448.099 254.233 447.894 254.181 447.64 254.181H446.483L446.493 253.424H448.055L448.256 253.697C448.549 253.726 448.794 253.824 448.993 253.99C449.195 254.153 449.346 254.361 449.447 254.615C449.551 254.869 449.603 255.149 449.603 255.455C449.603 255.898 449.52 256.272 449.354 256.578C449.191 256.881 448.96 257.112 448.661 257.271C448.361 257.428 448.01 257.506 447.606 257.506ZM452.718 257.603C452.403 257.603 452.118 257.556 451.864 257.462C451.61 257.367 451.394 257.224 451.215 257.032C451.036 256.837 450.899 256.591 450.804 256.295C450.71 255.999 450.663 255.649 450.663 255.245V254.649C450.663 254.184 450.717 253.79 450.824 253.468C450.935 253.145 451.083 252.887 451.268 252.691C451.454 252.493 451.664 252.349 451.898 252.262C452.133 252.17 452.373 252.125 452.621 252.125C452.953 252.125 453.236 252.179 453.47 252.286C453.705 252.393 453.895 252.553 454.042 252.765C454.188 252.976 454.296 253.237 454.364 253.546C454.436 253.855 454.471 254.211 454.471 254.615V255.118H451.171V254.381H453.607V254.259C453.594 253.985 453.557 253.744 453.495 253.536C453.436 253.328 453.339 253.165 453.202 253.048C453.065 252.927 452.871 252.867 452.621 252.867C452.461 252.867 452.313 252.895 452.176 252.95C452.043 253.002 451.927 253.095 451.83 253.228C451.735 253.359 451.661 253.539 451.605 253.77C451.553 254.002 451.527 254.294 451.527 254.649V255.245C451.527 255.528 451.553 255.772 451.605 255.977C451.661 256.179 451.74 256.347 451.844 256.48C451.952 256.611 452.082 256.708 452.235 256.773C452.391 256.835 452.569 256.866 452.767 256.866C453.057 256.866 453.296 256.811 453.485 256.7C453.674 256.586 453.838 256.441 453.978 256.266L454.432 256.807C454.338 256.941 454.214 257.07 454.061 257.193C453.911 257.314 453.726 257.413 453.505 257.491C453.286 257.566 453.024 257.603 452.718 257.603ZM456.381 253.35V257.506H455.516V252.223H456.332L456.381 253.35ZM456.171 254.664L455.819 254.649C455.816 254.288 455.856 253.954 455.941 253.648C456.029 253.339 456.153 253.071 456.312 252.843C456.475 252.615 456.669 252.439 456.893 252.315C457.118 252.188 457.367 252.125 457.64 252.125C457.855 252.125 458.05 252.161 458.226 252.232C458.402 252.301 458.552 252.411 458.675 252.564C458.799 252.717 458.894 252.916 458.959 253.16C459.027 253.401 459.061 253.696 459.061 254.044V257.506H458.197V254.034C458.197 253.757 458.166 253.536 458.104 253.37C458.046 253.201 457.954 253.079 457.831 253.004C457.71 252.926 457.557 252.887 457.372 252.887C457.203 252.887 457.045 252.934 456.898 253.028C456.752 253.123 456.623 253.253 456.512 253.419C456.405 253.585 456.32 253.775 456.258 253.99C456.2 254.202 456.171 254.426 456.171 254.664ZM463.221 252.223H463.998V257.55C463.998 258.015 463.916 258.399 463.754 258.702C463.594 259.005 463.371 259.228 463.085 259.371C462.798 259.517 462.468 259.591 462.093 259.591C461.96 259.591 461.792 259.566 461.591 259.517C461.389 259.469 461.187 259.394 460.985 259.293C460.783 259.195 460.617 259.071 460.487 258.922L460.843 258.321C461.029 258.51 461.226 258.645 461.434 258.726C461.643 258.808 461.841 258.849 462.03 258.849C462.255 258.849 462.45 258.808 462.616 258.726C462.782 258.645 462.911 258.512 463.002 258.326C463.093 258.144 463.138 257.9 463.138 257.594V253.385L463.221 252.223ZM460.184 255.118V254.625C460.184 254.189 460.225 253.814 460.306 253.502C460.388 253.186 460.505 252.927 460.658 252.725C460.814 252.52 461.001 252.369 461.219 252.271C461.438 252.174 461.682 252.125 461.952 252.125C462.225 252.125 462.461 252.18 462.66 252.291C462.858 252.402 463.023 252.563 463.153 252.774C463.286 252.983 463.391 253.237 463.466 253.536C463.544 253.832 463.597 254.168 463.627 254.542V255.201C463.597 255.572 463.544 255.906 463.466 256.202C463.391 256.498 463.285 256.751 463.148 256.959C463.015 257.167 462.849 257.327 462.65 257.437C462.452 257.548 462.216 257.603 461.942 257.603C461.675 257.603 461.434 257.553 461.219 257.452C461.005 257.348 460.819 257.193 460.663 256.988C460.51 256.78 460.391 256.521 460.306 256.212C460.225 255.899 460.184 255.535 460.184 255.118ZM461.049 254.625V255.118C461.049 255.411 461.07 255.667 461.112 255.885C461.154 256.099 461.219 256.279 461.307 256.422C461.398 256.562 461.514 256.666 461.654 256.734C461.797 256.803 461.968 256.837 462.167 256.837C462.408 256.837 462.605 256.778 462.758 256.661C462.911 256.544 463.033 256.389 463.124 256.197C463.218 256.002 463.293 255.792 463.348 255.567V254.181C463.316 254.015 463.269 253.855 463.207 253.702C463.148 253.546 463.072 253.407 462.977 253.287C462.883 253.163 462.769 253.066 462.635 252.994C462.505 252.922 462.352 252.887 462.176 252.887C461.978 252.887 461.807 252.922 461.664 252.994C461.521 253.066 461.403 253.173 461.312 253.316C461.221 253.46 461.154 253.64 461.112 253.858C461.07 254.076 461.049 254.332 461.049 254.625ZM467.88 256.602V253.736C467.88 253.528 467.847 253.36 467.782 253.233C467.72 253.106 467.626 253.014 467.499 252.955C467.375 252.896 467.219 252.867 467.03 252.867C466.848 252.867 466.69 252.905 466.556 252.979C466.426 253.054 466.325 253.154 466.254 253.277C466.185 253.401 466.151 253.538 466.151 253.687H465.287C465.287 253.499 465.328 253.311 465.409 253.126C465.494 252.94 465.614 252.773 465.77 252.623C465.926 252.47 466.114 252.349 466.332 252.262C466.553 252.17 466.8 252.125 467.074 252.125C467.399 252.125 467.688 252.179 467.938 252.286C468.189 252.39 468.386 252.561 468.529 252.799C468.672 253.036 468.744 253.352 468.744 253.746V256.353C468.744 256.529 468.757 256.716 468.783 256.915C468.812 257.113 468.853 257.284 468.905 257.428V257.506H468.011C467.969 257.402 467.937 257.263 467.914 257.091C467.891 256.915 467.88 256.752 467.88 256.602ZM468.016 254.303L468.026 254.937H467.425C467.22 254.937 467.033 254.96 466.864 255.006C466.698 255.051 466.555 255.118 466.434 255.206C466.314 255.291 466.221 255.396 466.156 255.523C466.094 255.65 466.063 255.795 466.063 255.958C466.063 256.169 466.092 256.339 466.151 256.466C466.21 256.589 466.298 256.679 466.415 256.734C466.532 256.79 466.68 256.817 466.859 256.817C467.077 256.817 467.269 256.767 467.435 256.666C467.601 256.565 467.73 256.443 467.821 256.3C467.915 256.156 467.959 256.023 467.953 255.899L468.143 256.305C468.13 256.432 468.088 256.57 468.016 256.72C467.948 256.866 467.852 257.008 467.728 257.144C467.605 257.278 467.458 257.389 467.289 257.476C467.123 257.561 466.936 257.603 466.727 257.603C466.421 257.603 466.153 257.545 465.922 257.428C465.694 257.31 465.516 257.138 465.389 256.91C465.262 256.682 465.199 256.401 465.199 256.065C465.199 255.811 465.243 255.577 465.331 255.362C465.419 255.147 465.549 254.962 465.721 254.806C465.894 254.646 466.11 254.522 466.371 254.434C466.634 254.347 466.939 254.303 467.284 254.303H468.016ZM471.014 250.006V257.506H470.155V250.006H471.014Z" fill="#2B2929"/>
<path d="M422.758 258.482H471.732V258.971H422.758V258.482Z" fill="#2B2929"/>
<path d="M532.592 249.828V257.759" stroke="#999999" stroke-width="0.5"/>
<path d="M506.178 251.026L504.235 257.506H503.317L505.607 250.396H506.183L506.178 251.026ZM507.751 257.506L505.807 251.026L505.797 250.396H506.378L508.668 257.506H507.751ZM507.751 254.874V255.645H504.323V254.874H507.751ZM510.392 253.35V257.506H509.528V252.223H510.343L510.392 253.35ZM510.182 254.664L509.831 254.649C509.827 254.288 509.868 253.954 509.953 253.648C510.041 253.339 510.164 253.071 510.324 252.843C510.487 252.615 510.68 252.439 510.905 252.315C511.129 252.188 511.378 252.125 511.652 252.125C511.867 252.125 512.062 252.161 512.238 252.232C512.414 252.301 512.563 252.411 512.687 252.564C512.811 252.717 512.905 252.916 512.97 253.16C513.039 253.401 513.073 253.696 513.073 254.044V257.506H512.209V254.034C512.209 253.757 512.178 253.536 512.116 253.37C512.057 253.201 511.966 253.079 511.842 253.004C511.722 252.926 511.569 252.887 511.383 252.887C511.214 252.887 511.056 252.934 510.91 253.028C510.763 253.123 510.635 253.253 510.524 253.419C510.417 253.585 510.332 253.775 510.27 253.99C510.211 254.202 510.182 254.426 510.182 254.664ZM517.14 256.48V250.006H518V257.506H517.213L517.14 256.48ZM514.186 255.118V254.625C514.186 254.189 514.228 253.814 514.313 253.502C514.398 253.186 514.518 252.927 514.674 252.725C514.831 252.52 515.018 252.369 515.236 252.271C515.454 252.174 515.695 252.125 515.959 252.125C516.232 252.125 516.466 252.18 516.662 252.291C516.86 252.402 517.026 252.563 517.16 252.774C517.293 252.983 517.397 253.237 517.472 253.536C517.55 253.832 517.602 254.168 517.628 254.542V255.201C517.599 255.572 517.545 255.906 517.467 256.202C517.392 256.498 517.288 256.751 517.155 256.959C517.021 257.167 516.855 257.327 516.657 257.437C516.458 257.548 516.222 257.603 515.949 257.603C515.688 257.603 515.451 257.553 515.236 257.452C515.021 257.348 514.834 257.193 514.674 256.988C514.518 256.78 514.398 256.521 514.313 256.212C514.228 255.899 514.186 255.535 514.186 255.118ZM515.05 254.625V255.118C515.05 255.411 515.071 255.667 515.114 255.885C515.156 256.099 515.223 256.279 515.314 256.422C515.405 256.562 515.521 256.666 515.661 256.734C515.804 256.803 515.975 256.837 516.173 256.837C516.414 256.837 516.611 256.778 516.764 256.661C516.917 256.544 517.039 256.389 517.13 256.197C517.225 256.002 517.3 255.792 517.355 255.567V254.181C517.322 254.015 517.275 253.855 517.213 253.702C517.152 253.546 517.073 253.407 516.979 253.287C516.888 253.163 516.776 253.066 516.642 252.994C516.512 252.922 516.359 252.887 516.183 252.887C515.985 252.887 515.812 252.922 515.666 252.994C515.522 253.066 515.405 253.173 515.314 253.316C515.226 253.46 515.159 253.64 515.114 253.858C515.071 254.076 515.05 254.332 515.05 254.625ZM520.197 250.006V257.506H519.333V250.006H520.197ZM519.987 254.664L519.635 254.649C519.632 254.288 519.673 253.954 519.757 253.648C519.845 253.339 519.969 253.071 520.128 252.843C520.291 252.615 520.485 252.439 520.709 252.315C520.934 252.188 521.183 252.125 521.457 252.125C521.671 252.125 521.867 252.161 522.042 252.232C522.218 252.301 522.368 252.411 522.492 252.564C522.615 252.717 522.71 252.916 522.775 253.16C522.843 253.401 522.877 253.696 522.877 254.044V257.506H522.013V254.034C522.013 253.757 521.982 253.536 521.92 253.37C521.862 253.201 521.771 253.079 521.647 253.004C521.527 252.926 521.374 252.887 521.188 252.887C521.019 252.887 520.861 252.934 520.714 253.028C520.568 253.123 520.439 253.253 520.329 253.419C520.221 253.585 520.137 253.775 520.075 253.99C520.016 254.202 519.987 254.426 519.987 254.664ZM525.031 253.053V257.506H524.167V252.223H525.001L525.031 253.053ZM526.344 252.193L526.349 253.033C526.278 253.017 526.212 253.007 526.154 253.004C526.098 252.997 526.033 252.994 525.959 252.994C525.796 252.994 525.653 253.027 525.529 253.092C525.408 253.157 525.304 253.248 525.216 253.365C525.128 253.482 525.058 253.622 525.006 253.785C524.954 253.945 524.918 254.12 524.899 254.312L524.674 254.459C524.674 254.14 524.699 253.84 524.748 253.56C524.8 253.28 524.879 253.033 524.987 252.818C525.094 252.6 525.231 252.431 525.397 252.31C525.566 252.187 525.768 252.125 526.002 252.125C526.055 252.125 526.118 252.133 526.193 252.149C526.271 252.162 526.321 252.177 526.344 252.193ZM529.606 256.602V253.736C529.606 253.528 529.573 253.36 529.508 253.233C529.446 253.106 529.352 253.014 529.225 252.955C529.101 252.896 528.945 252.867 528.756 252.867C528.574 252.867 528.416 252.905 528.283 252.979C528.153 253.054 528.052 253.154 527.98 253.277C527.912 253.401 527.877 253.538 527.877 253.687H527.013C527.013 253.499 527.054 253.311 527.135 253.126C527.22 252.94 527.34 252.773 527.497 252.623C527.653 252.47 527.84 252.349 528.058 252.262C528.279 252.17 528.527 252.125 528.8 252.125C529.126 252.125 529.414 252.179 529.665 252.286C529.915 252.39 530.112 252.561 530.255 252.799C530.399 253.036 530.47 253.352 530.47 253.746V256.353C530.47 256.529 530.483 256.716 530.509 256.915C530.539 257.113 530.579 257.284 530.631 257.428V257.506H529.738C529.695 257.402 529.663 257.263 529.64 257.091C529.617 256.915 529.606 256.752 529.606 256.602ZM529.743 254.303L529.752 254.937H529.152C528.947 254.937 528.76 254.96 528.59 255.006C528.424 255.051 528.281 255.118 528.161 255.206C528.04 255.291 527.947 255.396 527.882 255.523C527.82 255.65 527.79 255.795 527.79 255.958C527.79 256.169 527.819 256.339 527.877 256.466C527.936 256.589 528.024 256.679 528.141 256.734C528.258 256.79 528.406 256.817 528.585 256.817C528.804 256.817 528.996 256.767 529.162 256.666C529.328 256.565 529.456 256.443 529.547 256.3C529.642 256.156 529.686 256.023 529.679 255.899L529.87 256.305C529.857 256.432 529.814 256.57 529.743 256.72C529.674 256.866 529.578 257.008 529.455 257.144C529.331 257.278 529.184 257.389 529.015 257.476C528.849 257.561 528.662 257.603 528.454 257.603C528.148 257.603 527.879 257.545 527.648 257.428C527.42 257.31 527.243 257.138 527.116 256.91C526.989 256.682 526.925 256.401 526.925 256.065C526.925 255.811 526.969 255.577 527.057 255.362C527.145 255.147 527.275 254.962 527.448 254.806C527.62 254.646 527.837 254.522 528.097 254.434C528.361 254.347 528.665 254.303 529.01 254.303H529.743ZM534.196 254.718H532.643V253.951H534.196C534.489 253.951 534.725 253.892 534.904 253.775C535.086 253.658 535.218 253.495 535.299 253.287C535.384 253.079 535.426 252.841 535.426 252.574C535.426 252.33 535.384 252.1 535.299 251.886C535.218 251.671 535.086 251.498 534.904 251.368C534.725 251.235 534.489 251.168 534.196 251.168H532.829V257.506H531.93V250.396H534.196C534.655 250.396 535.042 250.489 535.358 250.675C535.674 250.86 535.913 251.117 536.076 251.446C536.242 251.772 536.325 252.144 536.325 252.564C536.325 253.02 536.242 253.409 536.076 253.731C535.913 254.054 535.674 254.299 535.358 254.469C535.042 254.635 534.655 254.718 534.196 254.718ZM538.224 253.053V257.506H537.36V252.223H538.195L538.224 253.053ZM539.538 252.193L539.542 253.033C539.471 253.017 539.406 253.007 539.347 253.004C539.292 252.997 539.227 252.994 539.152 252.994C538.989 252.994 538.846 253.027 538.722 253.092C538.602 253.157 538.498 253.248 538.41 253.365C538.322 253.482 538.252 253.622 538.2 253.785C538.148 253.945 538.112 254.12 538.092 254.312L537.868 254.459C537.868 254.14 537.892 253.84 537.941 253.56C537.993 253.28 538.073 253.033 538.18 252.818C538.288 252.6 538.424 252.431 538.59 252.31C538.76 252.187 538.961 252.125 539.196 252.125C539.248 252.125 539.311 252.133 539.386 252.149C539.464 252.162 539.515 252.177 539.538 252.193ZM542.799 256.602V253.736C542.799 253.528 542.767 253.36 542.702 253.233C542.64 253.106 542.545 253.014 542.418 252.955C542.295 252.896 542.139 252.867 541.95 252.867C541.767 252.867 541.61 252.905 541.476 252.979C541.346 253.054 541.245 253.154 541.173 253.277C541.105 253.401 541.071 253.538 541.071 253.687H540.207C540.207 253.499 540.247 253.311 540.329 253.126C540.413 252.94 540.534 252.773 540.69 252.623C540.846 252.47 541.033 252.349 541.251 252.262C541.473 252.17 541.72 252.125 541.994 252.125C542.319 252.125 542.607 252.179 542.858 252.286C543.109 252.39 543.306 252.561 543.449 252.799C543.592 253.036 543.664 253.352 543.664 253.746V256.353C543.664 256.529 543.677 256.716 543.703 256.915C543.732 257.113 543.773 257.284 543.825 257.428V257.506H542.931C542.889 257.402 542.856 257.263 542.834 257.091C542.811 256.915 542.799 256.752 542.799 256.602ZM542.936 254.303L542.946 254.937H542.345C542.14 254.937 541.953 254.96 541.784 255.006C541.618 255.051 541.474 255.118 541.354 255.206C541.234 255.291 541.141 255.396 541.076 255.523C541.014 255.65 540.983 255.795 540.983 255.958C540.983 256.169 541.012 256.339 541.071 256.466C541.129 256.589 541.217 256.679 541.334 256.734C541.452 256.79 541.6 256.817 541.779 256.817C541.997 256.817 542.189 256.767 542.355 256.666C542.521 256.565 542.65 256.443 542.741 256.3C542.835 256.156 542.879 256.023 542.873 255.899L543.063 256.305C543.05 256.432 543.008 256.57 542.936 256.72C542.868 256.866 542.772 257.008 542.648 257.144C542.524 257.278 542.378 257.389 542.209 257.476C542.042 257.561 541.855 257.603 541.647 257.603C541.341 257.603 541.072 257.545 540.841 257.428C540.613 257.31 540.436 257.138 540.309 256.91C540.182 256.682 540.119 256.401 540.119 256.065C540.119 255.811 540.163 255.577 540.251 255.362C540.338 255.147 540.469 254.962 540.641 254.806C540.814 254.646 541.03 254.522 541.291 254.434C541.554 254.347 541.859 254.303 542.204 254.303H542.936ZM547.775 256.48V250.006H548.634V257.506H547.848L547.775 256.48ZM544.821 255.118V254.625C544.821 254.189 544.863 253.814 544.948 253.502C545.032 253.186 545.153 252.927 545.309 252.725C545.465 252.52 545.653 252.369 545.871 252.271C546.089 252.174 546.33 252.125 546.593 252.125C546.867 252.125 547.101 252.18 547.296 252.291C547.495 252.402 547.661 252.563 547.794 252.774C547.928 252.983 548.032 253.237 548.107 253.536C548.185 253.832 548.237 254.168 548.263 254.542V255.201C548.234 255.572 548.18 255.906 548.102 256.202C548.027 256.498 547.923 256.751 547.79 256.959C547.656 257.167 547.49 257.327 547.292 257.437C547.093 257.548 546.857 257.603 546.584 257.603C546.323 257.603 546.085 257.553 545.871 257.452C545.656 257.348 545.469 257.193 545.309 256.988C545.153 256.78 545.032 256.521 544.948 256.212C544.863 255.899 544.821 255.535 544.821 255.118ZM545.685 254.625V255.118C545.685 255.411 545.706 255.667 545.749 255.885C545.791 256.099 545.858 256.279 545.949 256.422C546.04 256.562 546.155 256.666 546.295 256.734C546.439 256.803 546.61 256.837 546.808 256.837C547.049 256.837 547.246 256.778 547.399 256.661C547.552 256.544 547.674 256.389 547.765 256.197C547.86 256.002 547.934 255.792 547.99 255.567V254.181C547.957 254.015 547.91 253.855 547.848 253.702C547.786 253.546 547.708 253.407 547.614 253.287C547.523 253.163 547.41 253.066 547.277 252.994C547.147 252.922 546.994 252.887 546.818 252.887C546.619 252.887 546.447 252.922 546.3 252.994C546.157 253.066 546.04 253.173 545.949 253.316C545.861 253.46 545.794 253.64 545.749 253.858C545.706 254.076 545.685 254.332 545.685 254.625ZM551.857 257.603C551.541 257.603 551.256 257.556 551.002 257.462C550.749 257.367 550.532 257.224 550.353 257.032C550.174 256.837 550.037 256.591 549.943 256.295C549.848 255.999 549.801 255.649 549.801 255.245V254.649C549.801 254.184 549.855 253.79 549.962 253.468C550.073 253.145 550.221 252.887 550.407 252.691C550.592 252.493 550.802 252.349 551.037 252.262C551.271 252.17 551.512 252.125 551.759 252.125C552.091 252.125 552.375 252.179 552.609 252.286C552.843 252.393 553.034 252.553 553.18 252.765C553.327 252.976 553.434 253.237 553.502 253.546C553.574 253.855 553.61 254.211 553.61 254.615V255.118H550.309V254.381H552.746V254.259C552.733 253.985 552.695 253.744 552.633 253.536C552.575 253.328 552.477 253.165 552.34 253.048C552.204 252.927 552.01 252.867 551.759 252.867C551.6 252.867 551.452 252.895 551.315 252.95C551.181 253.002 551.066 253.095 550.968 253.228C550.874 253.359 550.799 253.539 550.744 253.77C550.692 254.002 550.666 254.294 550.666 254.649V255.245C550.666 255.528 550.692 255.772 550.744 255.977C550.799 256.179 550.879 256.347 550.983 256.48C551.09 256.611 551.221 256.708 551.374 256.773C551.53 256.835 551.707 256.866 551.906 256.866C552.195 256.866 552.435 256.811 552.624 256.7C552.812 256.586 552.977 256.441 553.117 256.266L553.571 256.807C553.476 256.941 553.353 257.07 553.2 257.193C553.05 257.314 552.864 257.413 552.643 257.491C552.425 257.566 552.163 257.603 551.857 257.603ZM557.218 256.153C557.218 256.02 557.186 255.903 557.121 255.802C557.056 255.701 556.948 255.603 556.798 255.509C556.652 255.414 556.453 255.313 556.203 255.206C555.959 255.105 555.739 255.006 555.543 254.908C555.351 254.807 555.189 254.698 555.055 254.581C554.922 254.464 554.819 254.329 554.748 254.176C554.679 254.019 554.645 253.835 554.645 253.624C554.645 253.412 554.684 253.217 554.762 253.038C554.844 252.856 554.958 252.696 555.104 252.559C555.251 252.423 555.426 252.317 555.631 252.242C555.836 252.164 556.066 252.125 556.32 252.125C556.681 252.125 556.989 252.195 557.243 252.335C557.497 252.475 557.69 252.667 557.824 252.911C557.96 253.152 558.029 253.424 558.029 253.726H557.169C557.169 253.58 557.137 253.442 557.072 253.311C557.007 253.181 556.911 253.075 556.784 252.994C556.657 252.909 556.502 252.867 556.32 252.867C556.128 252.867 555.972 252.901 555.851 252.97C555.731 253.038 555.643 253.127 555.587 253.238C555.535 253.346 555.509 253.464 555.509 253.595C555.509 253.692 555.522 253.777 555.548 253.849C555.578 253.917 555.626 253.982 555.695 254.044C555.763 254.102 555.856 254.164 555.973 254.229C556.094 254.291 556.247 254.363 556.432 254.444C556.79 254.584 557.091 254.726 557.335 254.869C557.58 255.012 557.765 255.18 557.892 255.372C558.019 255.564 558.083 255.802 558.083 256.085C558.083 256.316 558.04 256.526 557.956 256.715C557.874 256.9 557.757 257.06 557.604 257.193C557.451 257.327 557.267 257.429 557.052 257.501C556.841 257.569 556.603 257.603 556.339 257.603C555.942 257.603 555.605 257.525 555.329 257.369C555.055 257.21 554.847 257.003 554.704 256.749C554.564 256.492 554.494 256.217 554.494 255.924H555.358C555.368 256.171 555.423 256.363 555.524 256.5C555.628 256.637 555.753 256.731 555.9 256.783C556.046 256.835 556.193 256.861 556.339 256.861C556.531 256.861 556.693 256.834 556.823 256.778C556.953 256.72 557.051 256.637 557.116 256.529C557.184 256.422 557.218 256.296 557.218 256.153ZM560.08 250.006V257.506H559.215V250.006H560.08ZM559.87 254.664L559.518 254.649C559.515 254.288 559.556 253.954 559.64 253.648C559.728 253.339 559.852 253.071 560.011 252.843C560.174 252.615 560.368 252.439 560.592 252.315C560.817 252.188 561.066 252.125 561.339 252.125C561.554 252.125 561.75 252.161 561.925 252.232C562.101 252.301 562.251 252.411 562.375 252.564C562.498 252.717 562.593 252.916 562.658 253.16C562.726 253.401 562.76 253.696 562.76 254.044V257.506H561.896V254.034C561.896 253.757 561.865 253.536 561.803 253.37C561.745 253.201 561.653 253.079 561.53 253.004C561.409 252.926 561.256 252.887 561.071 252.887C560.902 252.887 560.744 252.934 560.597 253.028C560.451 253.123 560.322 253.253 560.211 253.419C560.104 253.585 560.019 253.775 559.958 253.99C559.899 254.202 559.87 254.426 559.87 254.664Z" fill="#2B2929"/>
<path d="M503.107 258.482H531.159V258.971H503.107V258.482Z" fill="#2B2929"/>
</g>
<defs>
<clipPath id="clip0_153_819">
<rect width="583.536" height="256.437" fill="white" transform="translate(13.2319 33.046)"/>
</clipPath>
</defs>
</svg>
