<svg width="638" height="361" viewBox="0 0 638 361" fill="none" xmlns="http://www.w3.org/2000/svg">
<g clip-path="url(#clip0_153_731)">
<path d="M13.8394 262.105H611.013" stroke="#999999"/>
<path d="M192.739 261.414V269.713" stroke="#999999" stroke-width="0.5"/>
<path d="M185.049 271.702V278.851H184.145V272.83L182.324 273.494V272.679L184.907 271.702H185.049ZM188.603 278.094H188.696C189.217 278.094 189.64 278.021 189.966 277.874C190.291 277.728 190.542 277.531 190.718 277.283C190.893 277.036 191.014 276.758 191.079 276.448C191.144 276.136 191.177 275.815 191.177 275.487V274.398C191.177 274.075 191.139 273.789 191.064 273.538C190.993 273.288 190.892 273.078 190.762 272.908C190.635 272.739 190.49 272.611 190.327 272.523C190.164 272.435 189.992 272.391 189.809 272.391C189.601 272.391 189.414 272.433 189.248 272.518C189.085 272.599 188.947 272.715 188.833 272.865C188.722 273.014 188.638 273.19 188.579 273.392C188.52 273.594 188.491 273.813 188.491 274.051C188.491 274.263 188.517 274.468 188.569 274.666C188.621 274.865 188.701 275.044 188.808 275.203C188.916 275.363 189.049 275.49 189.209 275.584C189.372 275.675 189.562 275.721 189.78 275.721C189.982 275.721 190.171 275.682 190.347 275.604C190.526 275.522 190.683 275.413 190.82 275.277C190.96 275.137 191.071 274.979 191.152 274.803C191.237 274.627 191.286 274.443 191.299 274.251H191.728C191.728 274.521 191.675 274.788 191.567 275.052C191.463 275.312 191.317 275.55 191.128 275.765C190.939 275.98 190.718 276.152 190.464 276.282C190.21 276.409 189.933 276.473 189.634 276.473C189.282 276.473 188.978 276.405 188.721 276.268C188.463 276.131 188.252 275.949 188.086 275.721C187.923 275.493 187.801 275.239 187.72 274.959C187.641 274.676 187.602 274.39 187.602 274.1C187.602 273.761 187.65 273.444 187.744 273.148C187.838 272.851 187.978 272.591 188.164 272.366C188.349 272.139 188.579 271.961 188.852 271.834C189.129 271.707 189.448 271.644 189.809 271.644C190.216 271.644 190.563 271.725 190.849 271.888C191.136 272.051 191.369 272.269 191.548 272.542C191.73 272.816 191.863 273.123 191.948 273.465C192.033 273.807 192.075 274.158 192.075 274.52V274.847C192.075 275.215 192.051 275.589 192.002 275.97C191.956 276.348 191.867 276.709 191.733 277.054C191.603 277.399 191.413 277.708 191.162 277.982C190.911 278.252 190.584 278.467 190.181 278.626C189.78 278.782 189.285 278.861 188.696 278.861H188.603V278.094ZM197.812 276.927C197.812 277.36 197.711 277.728 197.51 278.031C197.311 278.33 197.041 278.558 196.699 278.714C196.361 278.87 195.978 278.948 195.552 278.948C195.125 278.948 194.741 278.87 194.399 278.714C194.057 278.558 193.787 278.33 193.589 278.031C193.39 277.728 193.291 277.36 193.291 276.927C193.291 276.644 193.345 276.385 193.452 276.151C193.563 275.913 193.717 275.706 193.916 275.531C194.118 275.355 194.355 275.22 194.629 275.125C194.905 275.028 195.21 274.979 195.542 274.979C195.978 274.979 196.367 275.063 196.709 275.233C197.051 275.399 197.319 275.628 197.515 275.921C197.713 276.214 197.812 276.549 197.812 276.927ZM196.904 276.907C196.904 276.644 196.847 276.411 196.733 276.209C196.619 276.004 196.46 275.845 196.255 275.731C196.05 275.617 195.812 275.56 195.542 275.56C195.265 275.56 195.026 275.617 194.824 275.731C194.626 275.845 194.471 276.004 194.36 276.209C194.25 276.411 194.194 276.644 194.194 276.907C194.194 277.181 194.248 277.415 194.355 277.611C194.466 277.803 194.622 277.951 194.824 278.055C195.029 278.156 195.272 278.206 195.552 278.206C195.832 278.206 196.072 278.156 196.274 278.055C196.476 277.951 196.631 277.803 196.738 277.611C196.849 277.415 196.904 277.181 196.904 276.907ZM197.646 273.592C197.646 273.937 197.555 274.248 197.373 274.525C197.191 274.801 196.942 275.019 196.626 275.179C196.31 275.338 195.952 275.418 195.552 275.418C195.145 275.418 194.782 275.338 194.463 275.179C194.147 275.019 193.9 274.801 193.721 274.525C193.542 274.248 193.452 273.937 193.452 273.592C193.452 273.179 193.542 272.827 193.721 272.537C193.903 272.248 194.152 272.026 194.468 271.873C194.783 271.72 195.143 271.644 195.547 271.644C195.954 271.644 196.315 271.72 196.631 271.873C196.946 272.026 197.194 272.248 197.373 272.537C197.555 272.827 197.646 273.179 197.646 273.592ZM196.743 273.607C196.743 273.369 196.693 273.159 196.592 272.977C196.491 272.795 196.351 272.651 196.172 272.547C195.993 272.44 195.784 272.386 195.547 272.386C195.309 272.386 195.101 272.436 194.922 272.537C194.746 272.635 194.608 272.775 194.507 272.957C194.409 273.14 194.36 273.356 194.36 273.607C194.36 273.851 194.409 274.064 194.507 274.246C194.608 274.429 194.748 274.57 194.927 274.671C195.106 274.772 195.314 274.823 195.552 274.823C195.789 274.823 195.996 274.772 196.172 274.671C196.351 274.57 196.491 274.429 196.592 274.246C196.693 274.064 196.743 273.851 196.743 273.607ZM203.418 274.73V275.814C203.418 276.396 203.366 276.888 203.262 277.288C203.157 277.689 203.008 278.011 202.812 278.255C202.617 278.499 202.381 278.677 202.104 278.787C201.831 278.895 201.522 278.948 201.177 278.948C200.903 278.948 200.651 278.914 200.42 278.846C200.189 278.778 199.98 278.669 199.795 278.519C199.613 278.366 199.456 278.167 199.326 277.923C199.196 277.679 199.097 277.383 199.028 277.034C198.96 276.686 198.926 276.279 198.926 275.814V274.73C198.926 274.147 198.978 273.659 199.082 273.265C199.189 272.871 199.341 272.555 199.536 272.318C199.731 272.077 199.966 271.904 200.239 271.8C200.516 271.696 200.825 271.644 201.167 271.644C201.444 271.644 201.697 271.678 201.929 271.746C202.163 271.811 202.371 271.917 202.554 272.064C202.736 272.207 202.891 272.399 203.017 272.64C203.148 272.878 203.247 273.169 203.315 273.514C203.384 273.859 203.418 274.264 203.418 274.73ZM202.51 275.96V274.578C202.51 274.259 202.49 273.979 202.451 273.739C202.415 273.494 202.362 273.286 202.29 273.114C202.218 272.941 202.127 272.801 202.016 272.694C201.909 272.586 201.784 272.508 201.641 272.459C201.501 272.407 201.343 272.381 201.167 272.381C200.952 272.381 200.762 272.422 200.596 272.503C200.43 272.581 200.29 272.707 200.176 272.879C200.065 273.052 199.98 273.278 199.922 273.558C199.863 273.838 199.834 274.178 199.834 274.578V275.96C199.834 276.279 199.852 276.561 199.888 276.805C199.927 277.049 199.984 277.261 200.058 277.44C200.133 277.615 200.224 277.76 200.332 277.874C200.439 277.988 200.563 278.073 200.703 278.128C200.846 278.18 201.004 278.206 201.177 278.206C201.398 278.206 201.592 278.164 201.758 278.079C201.924 277.995 202.062 277.863 202.173 277.684C202.287 277.502 202.371 277.269 202.427 276.986C202.482 276.699 202.51 276.357 202.51 275.96Z" fill="black"/>
<path d="M315.771 261.414V269.713" stroke="#999999" stroke-width="0.5"/>
<path d="M308.08 271.702V278.851H307.177V272.83L305.355 273.494V272.679L307.938 271.702H308.08ZM311.635 278.094H311.727C312.248 278.094 312.671 278.021 312.997 277.874C313.322 277.728 313.573 277.531 313.749 277.283C313.925 277.036 314.045 276.758 314.11 276.448C314.175 276.136 314.208 275.815 314.208 275.487V274.398C314.208 274.075 314.17 273.789 314.096 273.538C314.024 273.288 313.923 273.078 313.793 272.908C313.666 272.739 313.521 272.611 313.358 272.523C313.196 272.435 313.023 272.391 312.841 272.391C312.632 272.391 312.445 272.433 312.279 272.518C312.116 272.599 311.978 272.715 311.864 272.865C311.753 273.014 311.669 273.19 311.61 273.392C311.552 273.594 311.522 273.813 311.522 274.051C311.522 274.263 311.548 274.468 311.6 274.666C311.653 274.865 311.732 275.044 311.84 275.203C311.947 275.363 312.081 275.49 312.24 275.584C312.403 275.675 312.593 275.721 312.811 275.721C313.013 275.721 313.202 275.682 313.378 275.604C313.557 275.522 313.715 275.413 313.851 275.277C313.991 275.137 314.102 274.979 314.183 274.803C314.268 274.627 314.317 274.443 314.33 274.251H314.76C314.76 274.521 314.706 274.788 314.598 275.052C314.494 275.312 314.348 275.55 314.159 275.765C313.97 275.98 313.749 276.152 313.495 276.282C313.241 276.409 312.964 276.473 312.665 276.473C312.313 276.473 312.009 276.405 311.752 276.268C311.495 276.131 311.283 275.949 311.117 275.721C310.954 275.493 310.832 275.239 310.751 274.959C310.673 274.676 310.634 274.39 310.634 274.1C310.634 273.761 310.681 273.444 310.775 273.148C310.87 272.851 311.01 272.591 311.195 272.366C311.381 272.139 311.61 271.961 311.884 271.834C312.16 271.707 312.479 271.644 312.841 271.644C313.248 271.644 313.594 271.725 313.881 271.888C314.167 272.051 314.4 272.269 314.579 272.542C314.761 272.816 314.895 273.123 314.979 273.465C315.064 273.807 315.106 274.158 315.106 274.52V274.847C315.106 275.215 315.082 275.589 315.033 275.97C314.987 276.348 314.898 276.709 314.765 277.054C314.634 277.399 314.444 277.708 314.193 277.982C313.943 278.252 313.615 278.467 313.212 278.626C312.811 278.782 312.317 278.861 311.727 278.861H311.635V278.094ZM317.26 278.094H317.352C317.873 278.094 318.296 278.021 318.622 277.874C318.947 277.728 319.198 277.531 319.374 277.283C319.55 277.036 319.67 276.758 319.735 276.448C319.8 276.136 319.833 275.815 319.833 275.487V274.398C319.833 274.075 319.795 273.789 319.721 273.538C319.649 273.288 319.548 273.078 319.418 272.908C319.291 272.739 319.146 272.611 318.983 272.523C318.821 272.435 318.648 272.391 318.466 272.391C318.257 272.391 318.07 272.433 317.904 272.518C317.741 272.599 317.603 272.715 317.489 272.865C317.378 273.014 317.294 273.19 317.235 273.392C317.177 273.594 317.147 273.813 317.147 274.051C317.147 274.263 317.173 274.468 317.225 274.666C317.278 274.865 317.357 275.044 317.465 275.203C317.572 275.363 317.706 275.49 317.865 275.584C318.028 275.675 318.218 275.721 318.436 275.721C318.638 275.721 318.827 275.682 319.003 275.604C319.182 275.522 319.34 275.413 319.476 275.277C319.616 275.137 319.727 274.979 319.808 274.803C319.893 274.627 319.942 274.443 319.955 274.251H320.385C320.385 274.521 320.331 274.788 320.223 275.052C320.119 275.312 319.973 275.55 319.784 275.765C319.595 275.98 319.374 276.152 319.12 276.282C318.866 276.409 318.589 276.473 318.29 276.473C317.938 276.473 317.634 276.405 317.377 276.268C317.12 276.131 316.908 275.949 316.742 275.721C316.579 275.493 316.457 275.239 316.376 274.959C316.298 274.676 316.259 274.39 316.259 274.1C316.259 273.761 316.306 273.444 316.4 273.148C316.495 272.851 316.635 272.591 316.82 272.366C317.006 272.139 317.235 271.961 317.509 271.834C317.785 271.707 318.104 271.644 318.466 271.644C318.873 271.644 319.219 271.725 319.506 271.888C319.792 272.051 320.025 272.269 320.204 272.542C320.386 272.816 320.52 273.123 320.604 273.465C320.689 273.807 320.731 274.158 320.731 274.52V274.847C320.731 275.215 320.707 275.589 320.658 275.97C320.612 276.348 320.523 276.709 320.39 277.054C320.259 277.399 320.069 277.708 319.818 277.982C319.568 278.252 319.24 278.467 318.837 278.626C318.436 278.782 317.942 278.861 317.352 278.861H317.26V278.094ZM326.449 274.73V275.814C326.449 276.396 326.397 276.888 326.293 277.288C326.189 277.689 326.039 278.011 325.844 278.255C325.648 278.499 325.412 278.677 325.136 278.787C324.862 278.895 324.553 278.948 324.208 278.948C323.934 278.948 323.682 278.914 323.451 278.846C323.22 278.778 323.012 278.669 322.826 278.519C322.644 278.366 322.487 278.167 322.357 277.923C322.227 277.679 322.128 277.383 322.059 277.034C321.991 276.686 321.957 276.279 321.957 275.814V274.73C321.957 274.147 322.009 273.659 322.113 273.265C322.221 272.871 322.372 272.555 322.567 272.318C322.763 272.077 322.997 271.904 323.27 271.8C323.547 271.696 323.856 271.644 324.198 271.644C324.475 271.644 324.729 271.678 324.96 271.746C325.194 271.811 325.403 271.917 325.585 272.064C325.767 272.207 325.922 272.399 326.049 272.64C326.179 272.878 326.278 273.169 326.347 273.514C326.415 273.859 326.449 274.264 326.449 274.73ZM325.541 275.96V274.578C325.541 274.259 325.521 273.979 325.482 273.739C325.446 273.494 325.393 273.286 325.321 273.114C325.25 272.941 325.158 272.801 325.048 272.694C324.94 272.586 324.815 272.508 324.672 272.459C324.532 272.407 324.374 272.381 324.198 272.381C323.983 272.381 323.793 272.422 323.627 272.503C323.461 272.581 323.321 272.707 323.207 272.879C323.096 273.052 323.012 273.278 322.953 273.558C322.894 273.838 322.865 274.178 322.865 274.578V275.96C322.865 276.279 322.883 276.561 322.919 276.805C322.958 277.049 323.015 277.261 323.09 277.44C323.165 277.615 323.256 277.76 323.363 277.874C323.471 277.988 323.594 278.073 323.734 278.128C323.877 278.18 324.035 278.206 324.208 278.206C324.429 278.206 324.623 278.164 324.789 278.079C324.955 277.995 325.093 277.863 325.204 277.684C325.318 277.502 325.403 277.269 325.458 276.986C325.513 276.699 325.541 276.357 325.541 275.96Z" fill="black"/>
<path d="M438.768 261.414V269.713" stroke="#999999" stroke-width="0.5"/>
<path d="M432.767 278.109V278.851H428.114V278.201L430.443 275.609C430.729 275.29 430.951 275.019 431.107 274.798C431.266 274.573 431.377 274.373 431.439 274.198C431.504 274.018 431.536 273.836 431.536 273.651C431.536 273.416 431.488 273.205 431.39 273.016C431.296 272.824 431.156 272.671 430.97 272.557C430.785 272.443 430.56 272.386 430.296 272.386C429.981 272.386 429.717 272.448 429.505 272.572C429.297 272.692 429.141 272.861 429.036 273.079C428.932 273.297 428.88 273.548 428.88 273.831H427.977C427.977 273.431 428.065 273.065 428.241 272.733C428.416 272.401 428.677 272.137 429.022 271.942C429.367 271.743 429.792 271.644 430.296 271.644C430.745 271.644 431.13 271.724 431.449 271.883C431.768 272.039 432.012 272.261 432.181 272.547C432.354 272.83 432.44 273.162 432.44 273.543C432.44 273.752 432.404 273.963 432.332 274.178C432.264 274.39 432.168 274.601 432.044 274.813C431.924 275.024 431.782 275.233 431.62 275.438C431.46 275.643 431.289 275.845 431.107 276.043L429.203 278.109H432.767ZM438.197 274.73V275.814C438.197 276.396 438.145 276.888 438.04 277.288C437.936 277.689 437.786 278.011 437.591 278.255C437.396 278.499 437.16 278.677 436.883 278.787C436.61 278.895 436.3 278.948 435.955 278.948C435.682 278.948 435.43 278.914 435.199 278.846C434.967 278.778 434.759 278.669 434.574 278.519C434.391 278.366 434.235 278.167 434.105 277.923C433.975 277.679 433.875 277.383 433.807 277.034C433.739 276.686 433.704 276.279 433.704 275.814V274.73C433.704 274.147 433.757 273.659 433.861 273.265C433.968 272.871 434.12 272.555 434.315 272.318C434.51 272.077 434.745 271.904 435.018 271.8C435.295 271.696 435.604 271.644 435.946 271.644C436.222 271.644 436.476 271.678 436.707 271.746C436.942 271.811 437.15 271.917 437.332 272.064C437.515 272.207 437.669 272.399 437.796 272.64C437.926 272.878 438.026 273.169 438.094 273.514C438.162 273.859 438.197 274.264 438.197 274.73ZM437.288 275.96V274.578C437.288 274.259 437.269 273.979 437.23 273.739C437.194 273.494 437.14 273.286 437.069 273.114C436.997 272.941 436.906 272.801 436.795 272.694C436.688 272.586 436.563 272.508 436.419 272.459C436.279 272.407 436.121 272.381 435.946 272.381C435.731 272.381 435.54 272.422 435.374 272.503C435.208 272.581 435.068 272.707 434.954 272.879C434.844 273.052 434.759 273.278 434.701 273.558C434.642 273.838 434.613 274.178 434.613 274.578V275.96C434.613 276.279 434.631 276.561 434.666 276.805C434.705 277.049 434.762 277.261 434.837 277.44C434.912 277.615 435.003 277.76 435.111 277.874C435.218 277.988 435.342 278.073 435.482 278.128C435.625 278.18 435.783 278.206 435.955 278.206C436.177 278.206 436.37 278.164 436.536 278.079C436.703 277.995 436.841 277.863 436.952 277.684C437.065 277.502 437.15 277.269 437.205 276.986C437.261 276.699 437.288 276.357 437.288 275.96ZM443.822 274.73V275.814C443.822 276.396 443.77 276.888 443.665 277.288C443.561 277.689 443.411 278.011 443.216 278.255C443.021 278.499 442.785 278.677 442.508 278.787C442.235 278.895 441.925 278.948 441.58 278.948C441.307 278.948 441.055 278.914 440.824 278.846C440.592 278.778 440.384 278.669 440.199 278.519C440.016 278.366 439.86 278.167 439.73 277.923C439.6 277.679 439.5 277.383 439.432 277.034C439.364 276.686 439.329 276.279 439.329 275.814V274.73C439.329 274.147 439.382 273.659 439.486 273.265C439.593 272.871 439.745 272.555 439.94 272.318C440.135 272.077 440.37 271.904 440.643 271.8C440.92 271.696 441.229 271.644 441.571 271.644C441.847 271.644 442.101 271.678 442.332 271.746C442.567 271.811 442.775 271.917 442.957 272.064C443.14 272.207 443.294 272.399 443.421 272.64C443.551 272.878 443.651 273.169 443.719 273.514C443.787 273.859 443.822 274.264 443.822 274.73ZM442.913 275.96V274.578C442.913 274.259 442.894 273.979 442.855 273.739C442.819 273.494 442.765 273.286 442.694 273.114C442.622 272.941 442.531 272.801 442.42 272.694C442.313 272.586 442.188 272.508 442.044 272.459C441.904 272.407 441.746 272.381 441.571 272.381C441.356 272.381 441.165 272.422 440.999 272.503C440.833 272.581 440.693 272.707 440.579 272.879C440.469 273.052 440.384 273.278 440.326 273.558C440.267 273.838 440.238 274.178 440.238 274.578V275.96C440.238 276.279 440.256 276.561 440.291 276.805C440.33 277.049 440.387 277.261 440.462 277.44C440.537 277.615 440.628 277.76 440.736 277.874C440.843 277.988 440.967 278.073 441.107 278.128C441.25 278.18 441.408 278.206 441.58 278.206C441.802 278.206 441.995 278.164 442.161 278.079C442.328 277.995 442.466 277.863 442.577 277.684C442.69 277.502 442.775 277.269 442.83 276.986C442.886 276.699 442.913 276.357 442.913 275.96ZM449.447 274.73V275.814C449.447 276.396 449.395 276.888 449.29 277.288C449.186 277.689 449.036 278.011 448.841 278.255C448.646 278.499 448.41 278.677 448.133 278.787C447.86 278.895 447.55 278.948 447.205 278.948C446.932 278.948 446.68 278.914 446.449 278.846C446.217 278.778 446.009 278.669 445.824 278.519C445.641 278.366 445.485 278.167 445.355 277.923C445.225 277.679 445.125 277.383 445.057 277.034C444.989 276.686 444.954 276.279 444.954 275.814V274.73C444.954 274.147 445.007 273.659 445.111 273.265C445.218 272.871 445.37 272.555 445.565 272.318C445.76 272.077 445.995 271.904 446.268 271.8C446.545 271.696 446.854 271.644 447.196 271.644C447.472 271.644 447.726 271.678 447.957 271.746C448.192 271.811 448.4 271.917 448.582 272.064C448.765 272.207 448.919 272.399 449.046 272.64C449.176 272.878 449.276 273.169 449.344 273.514C449.412 273.859 449.447 274.264 449.447 274.73ZM448.538 275.96V274.578C448.538 274.259 448.519 273.979 448.48 273.739C448.444 273.494 448.39 273.286 448.319 273.114C448.247 272.941 448.156 272.801 448.045 272.694C447.938 272.586 447.813 272.508 447.669 272.459C447.529 272.407 447.371 272.381 447.196 272.381C446.981 272.381 446.79 272.422 446.624 272.503C446.458 272.581 446.318 272.707 446.204 272.879C446.094 273.052 446.009 273.278 445.951 273.558C445.892 273.838 445.863 274.178 445.863 274.578V275.96C445.863 276.279 445.881 276.561 445.916 276.805C445.955 277.049 446.012 277.261 446.087 277.44C446.162 277.615 446.253 277.76 446.361 277.874C446.468 277.988 446.592 278.073 446.732 278.128C446.875 278.18 447.033 278.206 447.205 278.206C447.427 278.206 447.62 278.164 447.786 278.079C447.953 277.995 448.091 277.863 448.202 277.684C448.315 277.502 448.4 277.269 448.455 276.986C448.511 276.699 448.538 276.357 448.538 275.96Z" fill="black"/>
<path d="M561.799 261.414V269.713" stroke="#999999" stroke-width="0.5"/>
<path d="M555.798 278.109V278.851H551.145V278.201L553.474 275.609C553.76 275.29 553.982 275.019 554.138 274.798C554.298 274.573 554.408 274.373 554.47 274.198C554.535 274.018 554.568 273.836 554.568 273.651C554.568 273.416 554.519 273.205 554.421 273.016C554.327 272.824 554.187 272.671 554.001 272.557C553.816 272.443 553.591 272.386 553.328 272.386C553.012 272.386 552.748 272.448 552.536 272.572C552.328 272.692 552.172 272.861 552.068 273.079C551.964 273.297 551.911 273.548 551.911 273.831H551.008C551.008 273.431 551.096 273.065 551.272 272.733C551.448 272.401 551.708 272.137 552.053 271.942C552.398 271.743 552.823 271.644 553.328 271.644C553.777 271.644 554.161 271.724 554.48 271.883C554.799 272.039 555.043 272.261 555.212 272.547C555.385 272.83 555.471 273.162 555.471 273.543C555.471 273.752 555.435 273.963 555.364 274.178C555.295 274.39 555.199 274.601 555.076 274.813C554.955 275.024 554.814 275.233 554.651 275.438C554.491 275.643 554.32 275.845 554.138 276.043L552.234 278.109H555.798ZM561.228 274.73V275.814C561.228 276.396 561.176 276.888 561.072 277.288C560.967 277.689 560.818 278.011 560.622 278.255C560.427 278.499 560.191 278.677 559.914 278.787C559.641 278.895 559.332 278.948 558.987 278.948C558.713 278.948 558.461 278.914 558.23 278.846C557.999 278.778 557.79 278.669 557.605 278.519C557.423 278.366 557.266 278.167 557.136 277.923C557.006 277.679 556.907 277.383 556.838 277.034C556.77 276.686 556.736 276.279 556.736 275.814V274.73C556.736 274.147 556.788 273.659 556.892 273.265C556.999 272.871 557.151 272.555 557.346 272.318C557.541 272.077 557.776 271.904 558.049 271.8C558.326 271.696 558.635 271.644 558.977 271.644C559.254 271.644 559.508 271.678 559.739 271.746C559.973 271.811 560.181 271.917 560.364 272.064C560.546 272.207 560.701 272.399 560.828 272.64C560.958 272.878 561.057 273.169 561.125 273.514C561.194 273.859 561.228 274.264 561.228 274.73ZM560.32 275.96V274.578C560.32 274.259 560.3 273.979 560.261 273.739C560.225 273.494 560.172 273.286 560.1 273.114C560.028 272.941 559.937 272.801 559.827 272.694C559.719 272.586 559.594 272.508 559.451 272.459C559.311 272.407 559.153 272.381 558.977 272.381C558.762 272.381 558.572 272.422 558.406 272.503C558.24 272.581 558.1 272.707 557.986 272.879C557.875 273.052 557.79 273.278 557.732 273.558C557.673 273.838 557.644 274.178 557.644 274.578V275.96C557.644 276.279 557.662 276.561 557.698 276.805C557.737 277.049 557.794 277.261 557.869 277.44C557.943 277.615 558.035 277.76 558.142 277.874C558.249 277.988 558.373 278.073 558.513 278.128C558.656 278.18 558.814 278.206 558.987 278.206C559.208 278.206 559.402 278.164 559.568 278.079C559.734 277.995 559.872 277.863 559.983 277.684C560.097 277.502 560.181 277.269 560.237 276.986C560.292 276.699 560.32 276.357 560.32 275.96ZM565.359 271.702V278.851H564.455V272.83L562.634 273.494V272.679L565.217 271.702H565.359ZM572.478 274.73V275.814C572.478 276.396 572.426 276.888 572.322 277.288C572.217 277.689 572.068 278.011 571.872 278.255C571.677 278.499 571.441 278.677 571.164 278.787C570.891 278.895 570.582 278.948 570.237 278.948C569.963 278.948 569.711 278.914 569.48 278.846C569.249 278.778 569.04 278.669 568.855 278.519C568.673 278.366 568.516 278.167 568.386 277.923C568.256 277.679 568.157 277.383 568.088 277.034C568.02 276.686 567.986 276.279 567.986 275.814V274.73C567.986 274.147 568.038 273.659 568.142 273.265C568.249 272.871 568.401 272.555 568.596 272.318C568.791 272.077 569.026 271.904 569.299 271.8C569.576 271.696 569.885 271.644 570.227 271.644C570.504 271.644 570.758 271.678 570.989 271.746C571.223 271.811 571.431 271.917 571.614 272.064C571.796 272.207 571.951 272.399 572.078 272.64C572.208 272.878 572.307 273.169 572.375 273.514C572.444 273.859 572.478 274.264 572.478 274.73ZM571.57 275.96V274.578C571.57 274.259 571.55 273.979 571.511 273.739C571.475 273.494 571.422 273.286 571.35 273.114C571.278 272.941 571.187 272.801 571.077 272.694C570.969 272.586 570.844 272.508 570.701 272.459C570.561 272.407 570.403 272.381 570.227 272.381C570.012 272.381 569.822 272.422 569.656 272.503C569.49 272.581 569.35 272.707 569.236 272.879C569.125 273.052 569.04 273.278 568.982 273.558C568.923 273.838 568.894 274.178 568.894 274.578V275.96C568.894 276.279 568.912 276.561 568.948 276.805C568.987 277.049 569.044 277.261 569.119 277.44C569.193 277.615 569.285 277.76 569.392 277.874C569.499 277.988 569.623 278.073 569.763 278.128C569.906 278.18 570.064 278.206 570.237 278.206C570.458 278.206 570.652 278.164 570.818 278.079C570.984 277.995 571.122 277.863 571.233 277.684C571.347 277.502 571.431 277.269 571.487 276.986C571.542 276.699 571.57 276.357 571.57 275.96Z" fill="black"/>
<path d="M610.321 262.105H13.8394" stroke="#999999" stroke-opacity="0.5" stroke-width="0.5" stroke-dasharray="2 2"/>
<path d="M47.6817 247.62V248.704C47.6817 249.287 47.6361 249.778 47.545 250.179C47.4571 250.579 47.3301 250.901 47.1641 251.146C46.9981 251.39 46.7979 251.567 46.5635 251.678C46.3324 251.785 46.072 251.839 45.7823 251.839C45.5544 251.839 45.3412 251.805 45.1426 251.736C44.9473 251.668 44.7716 251.559 44.6153 251.409C44.4591 251.256 44.3256 251.058 44.2149 250.814C44.1042 250.569 44.0196 250.273 43.961 249.925C43.9024 249.577 43.8731 249.17 43.8731 248.704V247.62C43.8731 247.038 43.9187 246.549 44.0098 246.155C44.101 245.762 44.2296 245.446 44.3956 245.208C44.5648 244.967 44.765 244.795 44.9962 244.691C45.2305 244.586 45.491 244.534 45.7774 244.534C46.0085 244.534 46.2217 244.568 46.4171 244.637C46.6156 244.702 46.7914 244.808 46.9444 244.954C47.1007 245.097 47.2341 245.29 47.3448 245.53C47.4555 245.768 47.5385 246.059 47.5938 246.404C47.6524 246.749 47.6817 247.155 47.6817 247.62ZM46.8223 248.851V247.469C46.8223 247.15 46.8077 246.87 46.7784 246.629C46.7491 246.385 46.7068 246.177 46.6514 246.004C46.5961 245.832 46.5245 245.692 46.4366 245.584C46.352 245.477 46.2543 245.399 46.1436 245.35C46.0329 245.298 45.9109 245.272 45.7774 245.272C45.6114 245.272 45.4633 245.312 45.3331 245.394C45.2061 245.472 45.0971 245.597 45.0059 245.77C44.918 245.942 44.8513 246.168 44.8057 246.448C44.7602 246.728 44.7374 247.068 44.7374 247.469V248.851C44.7374 249.17 44.752 249.451 44.7813 249.695C44.8139 249.94 44.8578 250.151 44.9132 250.33C44.9717 250.506 45.0434 250.651 45.128 250.765C45.2126 250.879 45.3103 250.963 45.421 251.019C45.5316 251.071 45.6521 251.097 45.7823 251.097C45.9548 251.097 46.1046 251.054 46.2315 250.97C46.3617 250.885 46.4708 250.753 46.5587 250.574C46.6466 250.392 46.7117 250.159 46.754 249.876C46.7995 249.59 46.8223 249.248 46.8223 248.851ZM52.0665 244.241V251.741H51.2022V244.241H52.0665ZM54.7471 246.458L52.8673 248.924L51.7051 250.262L51.6466 249.3L52.4473 248.196L53.7071 246.458H54.7471ZM53.9561 251.741L52.4717 249.222L52.9161 248.416L54.962 251.741H53.9561ZM57.4229 249.593L58.5606 244.632H59.2003L58.8633 246.561L57.628 251.741H56.9883L57.4229 249.593ZM56.2999 244.632L57.1885 249.495L57.4522 251.741H56.8223L55.4063 244.632H56.2999ZM60.6505 249.49L61.5196 244.632H62.4132L61.002 251.741H60.3721L60.6505 249.49ZM59.3028 244.632L60.4063 249.593L60.8311 251.741H60.1915L59.0098 246.561L58.6729 244.632H59.3028ZM64.1905 244.241V251.741H63.3262V244.241H64.1905ZM63.9805 248.9L63.629 248.885C63.6257 248.524 63.6664 248.19 63.751 247.884C63.8389 247.575 63.9626 247.306 64.1221 247.078C64.2849 246.85 64.4786 246.675 64.7032 246.551C64.9278 246.424 65.1768 246.36 65.4503 246.36C65.6651 246.36 65.8604 246.396 66.0362 246.468C66.212 246.536 66.3617 246.647 66.4854 246.8C66.6091 246.953 66.7035 247.151 66.7686 247.396C66.837 247.637 66.8712 247.931 66.8712 248.279V251.741H66.0069V248.27C66.0069 247.993 65.976 247.772 65.9141 247.606C65.8555 247.436 65.7644 247.314 65.6407 247.239C65.5203 247.161 65.3673 247.122 65.1817 247.122C65.0124 247.122 64.8546 247.169 64.7081 247.264C64.5616 247.358 64.433 247.488 64.3223 247.654C64.2149 247.82 64.1303 248.011 64.0684 248.226C64.0098 248.437 63.9805 248.662 63.9805 248.9Z" fill="#2B2929"/>
<path d="M610.321 222.271H13.8394" stroke="#999999" stroke-opacity="0.5" stroke-width="0.5" stroke-dasharray="2 2"/>
<path d="M37.9743 211.165V211.907H33.9997V211.257L35.9577 208.665C36.1986 208.346 36.3825 208.075 36.5095 207.854C36.6364 207.63 36.7243 207.429 36.7731 207.254C36.822 207.075 36.8464 206.892 36.8464 206.707C36.8464 206.472 36.8089 206.261 36.7341 206.072C36.6592 205.88 36.5502 205.727 36.4069 205.613C36.2637 205.499 36.0912 205.442 35.8894 205.442C35.6257 205.442 35.4092 205.504 35.2399 205.628C35.0739 205.748 34.9519 205.917 34.8737 206.135C34.7956 206.353 34.7565 206.604 34.7565 206.887H33.8923C33.8923 206.487 33.9655 206.121 34.112 205.789C34.2617 205.457 34.4847 205.193 34.781 204.998C35.0772 204.799 35.4466 204.7 35.8894 204.7C36.2702 204.7 36.5957 204.78 36.8659 204.939C37.1394 205.095 37.3477 205.317 37.4909 205.603C37.6374 205.886 37.7106 206.218 37.7106 206.599C37.7106 206.808 37.6813 207.019 37.6227 207.234C37.5674 207.446 37.4893 207.657 37.3884 207.869C37.2907 208.08 37.1752 208.289 37.0417 208.494C36.9082 208.699 36.765 208.901 36.612 209.099L35.0349 211.165H37.9743ZM42.7399 207.786V208.87C42.7399 209.452 42.6944 209.944 42.6032 210.344C42.5153 210.745 42.3884 211.067 42.2224 211.311C42.0563 211.555 41.8561 211.733 41.6218 211.843C41.3907 211.951 41.1302 212.005 40.8405 212.005C40.6127 212.005 40.3994 211.97 40.2009 211.902C40.0056 211.834 39.8298 211.725 39.6735 211.575C39.5173 211.422 39.3838 211.223 39.2731 210.979C39.1625 210.735 39.0778 210.439 39.0192 210.09C38.9606 209.742 38.9313 209.335 38.9313 208.87V207.786C38.9313 207.203 38.9769 206.715 39.0681 206.321C39.1592 205.927 39.2878 205.611 39.4538 205.374C39.6231 205.133 39.8233 204.96 40.0544 204.856C40.2888 204.752 40.5492 204.7 40.8356 204.7C41.0668 204.7 41.28 204.734 41.4753 204.802C41.6739 204.867 41.8496 204.973 42.0026 205.12C42.1589 205.263 42.2923 205.455 42.403 205.696C42.5137 205.934 42.5967 206.225 42.652 206.57C42.7106 206.915 42.7399 207.32 42.7399 207.786ZM41.8806 209.016V207.634C41.8806 207.315 41.8659 207.035 41.8366 206.795C41.8073 206.55 41.765 206.342 41.7097 206.17C41.6543 205.997 41.5827 205.857 41.4948 205.75C41.4102 205.642 41.3125 205.564 41.2019 205.515C41.0912 205.463 40.9691 205.437 40.8356 205.437C40.6696 205.437 40.5215 205.478 40.3913 205.559C40.2644 205.637 40.1553 205.763 40.0642 205.935C39.9763 206.108 39.9095 206.334 39.864 206.614C39.8184 206.894 39.7956 207.234 39.7956 207.634V209.016C39.7956 209.335 39.8102 209.617 39.8395 209.861C39.8721 210.105 39.916 210.317 39.9714 210.496C40.03 210.672 40.1016 210.816 40.1862 210.93C40.2709 211.044 40.3685 211.129 40.4792 211.184C40.5899 211.236 40.7103 211.262 40.8405 211.262C41.013 211.262 41.1628 211.22 41.2897 211.135C41.4199 211.051 41.529 210.919 41.6169 210.74C41.7048 210.558 41.7699 210.325 41.8122 210.042C41.8578 209.755 41.8806 209.413 41.8806 209.016ZM47.6813 207.786V208.87C47.6813 209.452 47.6358 209.944 47.5446 210.344C47.4567 210.745 47.3298 211.067 47.1638 211.311C46.9977 211.555 46.7976 211.733 46.5632 211.843C46.3321 211.951 46.0716 212.005 45.7819 212.005C45.5541 212.005 45.3408 211.97 45.1423 211.902C44.947 211.834 44.7712 211.725 44.6149 211.575C44.4587 211.422 44.3252 211.223 44.2145 210.979C44.1039 210.735 44.0192 210.439 43.9606 210.09C43.902 209.742 43.8727 209.335 43.8727 208.87V207.786C43.8727 207.203 43.9183 206.715 44.0095 206.321C44.1006 205.927 44.2292 205.611 44.3952 205.374C44.5645 205.133 44.7647 204.96 44.9958 204.856C45.2302 204.752 45.4906 204.7 45.777 204.7C46.0082 204.7 46.2214 204.734 46.4167 204.802C46.6153 204.867 46.791 204.973 46.944 205.12C47.1003 205.263 47.2338 205.455 47.3444 205.696C47.4551 205.934 47.5381 206.225 47.5935 206.57C47.652 206.915 47.6813 207.32 47.6813 207.786ZM46.822 209.016V207.634C46.822 207.315 46.8073 207.035 46.778 206.795C46.7487 206.55 46.7064 206.342 46.6511 206.17C46.5957 205.997 46.5241 205.857 46.4362 205.75C46.3516 205.642 46.2539 205.564 46.1433 205.515C46.0326 205.463 45.9105 205.437 45.777 205.437C45.611 205.437 45.4629 205.478 45.3327 205.559C45.2058 205.637 45.0967 205.763 45.0056 205.935C44.9177 206.108 44.8509 206.334 44.8054 206.614C44.7598 206.894 44.737 207.234 44.737 207.634V209.016C44.737 209.335 44.7517 209.617 44.781 209.861C44.8135 210.105 44.8574 210.317 44.9128 210.496C44.9714 210.672 45.043 210.816 45.1276 210.93C45.2123 211.044 45.3099 211.129 45.4206 211.184C45.5313 211.236 45.6517 211.262 45.7819 211.262C45.9545 211.262 46.1042 211.22 46.2311 211.135C46.3614 211.051 46.4704 210.919 46.5583 210.74C46.6462 210.558 46.7113 210.325 46.7536 210.042C46.7992 209.755 46.822 209.413 46.822 209.016ZM52.0661 204.407V211.907H51.2019V204.407H52.0661ZM54.7468 206.624L52.8669 209.089L51.7048 210.427L51.6462 209.465L52.447 208.362L53.7067 206.624H54.7468ZM53.9558 211.907L52.4714 209.387L52.9157 208.582L54.9616 211.907H53.9558ZM57.4226 209.758L58.5602 204.797H59.1999L58.863 206.726L57.6276 211.907H56.988L57.4226 209.758ZM56.2995 204.797L57.1882 209.661L57.4519 211.907H56.822L55.406 204.797H56.2995ZM60.6501 209.656L61.5192 204.797H62.4128L61.0017 211.907H60.3718L60.6501 209.656ZM59.3024 204.797L60.406 209.758L60.8308 211.907H60.1911L59.0095 206.726L58.6726 204.797H59.3024ZM64.1901 204.407V211.907H63.3259V204.407H64.1901ZM63.9802 209.065L63.6286 209.05C63.6254 208.689 63.666 208.355 63.7507 208.049C63.8386 207.74 63.9623 207.472 64.1218 207.244C64.2845 207.016 64.4782 206.84 64.7028 206.716C64.9274 206.589 65.1765 206.526 65.4499 206.526C65.6647 206.526 65.8601 206.562 66.0358 206.633C66.2116 206.702 66.3614 206.812 66.4851 206.965C66.6088 207.118 66.7032 207.317 66.7683 207.561C66.8366 207.802 66.8708 208.097 66.8708 208.445V211.907H66.0065V208.435C66.0065 208.158 65.9756 207.937 65.9138 207.771C65.8552 207.602 65.764 207.48 65.6403 207.405C65.5199 207.327 65.3669 207.288 65.1813 207.288C65.0121 207.288 64.8542 207.335 64.7077 207.429C64.5612 207.524 64.4326 207.654 64.322 207.82C64.2145 207.986 64.1299 208.176 64.0681 208.391C64.0095 208.603 63.9802 208.827 63.9802 209.065Z" fill="#2B2929"/>
<path d="M610.321 182.436H13.8394" stroke="#999999" stroke-opacity="0.5" stroke-width="0.5" stroke-dasharray="2 2"/>
<path d="M38.0671 169.68V170.422H33.7214V169.89L36.363 164.963H37.0563L36.363 166.389L34.6833 169.68H38.0671ZM37.2761 164.963V172.072H36.4118V164.963H37.2761ZM42.7399 167.951V169.035C42.7399 169.618 42.6944 170.109 42.6032 170.51C42.5153 170.91 42.3884 171.233 42.2224 171.477C42.0563 171.721 41.8561 171.898 41.6218 172.009C41.3907 172.116 41.1302 172.17 40.8405 172.17C40.6127 172.17 40.3994 172.136 40.2009 172.068C40.0056 171.999 39.8298 171.89 39.6735 171.74C39.5173 171.587 39.3838 171.389 39.2731 171.145C39.1625 170.901 39.0778 170.604 39.0192 170.256C38.9606 169.908 38.9313 169.501 38.9313 169.035V167.951C38.9313 167.369 38.9769 166.88 39.0681 166.486C39.1592 166.093 39.2878 165.777 39.4538 165.539C39.6231 165.298 39.8233 165.126 40.0544 165.022C40.2888 164.917 40.5492 164.865 40.8356 164.865C41.0668 164.865 41.28 164.9 41.4753 164.968C41.6739 165.033 41.8496 165.139 42.0026 165.285C42.1589 165.429 42.2923 165.621 42.403 165.861C42.5137 166.099 42.5967 166.39 42.652 166.735C42.7106 167.081 42.7399 167.486 42.7399 167.951ZM41.8806 169.182V167.8C41.8806 167.481 41.8659 167.201 41.8366 166.96C41.8073 166.716 41.765 166.508 41.7097 166.335C41.6543 166.163 41.5827 166.023 41.4948 165.915C41.4102 165.808 41.3125 165.73 41.2019 165.681C41.0912 165.629 40.9691 165.603 40.8356 165.603C40.6696 165.603 40.5215 165.643 40.3913 165.725C40.2644 165.803 40.1553 165.928 40.0642 166.101C39.9763 166.273 39.9095 166.499 39.864 166.779C39.8184 167.059 39.7956 167.4 39.7956 167.8V169.182C39.7956 169.501 39.8102 169.782 39.8395 170.026C39.8721 170.271 39.916 170.482 39.9714 170.661C40.03 170.837 40.1016 170.982 40.1862 171.096C40.2709 171.21 40.3685 171.294 40.4792 171.35C40.5899 171.402 40.7103 171.428 40.8405 171.428C41.013 171.428 41.1628 171.386 41.2897 171.301C41.4199 171.216 41.529 171.084 41.6169 170.905C41.7048 170.723 41.7699 170.49 41.8122 170.207C41.8578 169.921 41.8806 169.579 41.8806 169.182ZM47.6813 167.951V169.035C47.6813 169.618 47.6358 170.109 47.5446 170.51C47.4567 170.91 47.3298 171.233 47.1638 171.477C46.9977 171.721 46.7976 171.898 46.5632 172.009C46.3321 172.116 46.0716 172.17 45.7819 172.17C45.5541 172.17 45.3408 172.136 45.1423 172.068C44.947 171.999 44.7712 171.89 44.6149 171.74C44.4587 171.587 44.3252 171.389 44.2145 171.145C44.1039 170.901 44.0192 170.604 43.9606 170.256C43.902 169.908 43.8727 169.501 43.8727 169.035V167.951C43.8727 167.369 43.9183 166.88 44.0095 166.486C44.1006 166.093 44.2292 165.777 44.3952 165.539C44.5645 165.298 44.7647 165.126 44.9958 165.022C45.2302 164.917 45.4906 164.865 45.777 164.865C46.0082 164.865 46.2214 164.9 46.4167 164.968C46.6153 165.033 46.791 165.139 46.944 165.285C47.1003 165.429 47.2338 165.621 47.3444 165.861C47.4551 166.099 47.5381 166.39 47.5935 166.735C47.652 167.081 47.6813 167.486 47.6813 167.951ZM46.822 169.182V167.8C46.822 167.481 46.8073 167.201 46.778 166.96C46.7487 166.716 46.7064 166.508 46.6511 166.335C46.5957 166.163 46.5241 166.023 46.4362 165.915C46.3516 165.808 46.2539 165.73 46.1433 165.681C46.0326 165.629 45.9105 165.603 45.777 165.603C45.611 165.603 45.4629 165.643 45.3327 165.725C45.2058 165.803 45.0967 165.928 45.0056 166.101C44.9177 166.273 44.8509 166.499 44.8054 166.779C44.7598 167.059 44.737 167.4 44.737 167.8V169.182C44.737 169.501 44.7517 169.782 44.781 170.026C44.8135 170.271 44.8574 170.482 44.9128 170.661C44.9714 170.837 45.043 170.982 45.1276 171.096C45.2123 171.21 45.3099 171.294 45.4206 171.35C45.5313 171.402 45.6517 171.428 45.7819 171.428C45.9545 171.428 46.1042 171.386 46.2311 171.301C46.3614 171.216 46.4704 171.084 46.5583 170.905C46.6462 170.723 46.7113 170.49 46.7536 170.207C46.7992 169.921 46.822 169.579 46.822 169.182ZM52.0661 164.572V172.072H51.2019V164.572H52.0661ZM54.7468 166.789L52.8669 169.255L51.7048 170.593L51.6462 169.631L52.447 168.527L53.7067 166.789H54.7468ZM53.9558 172.072L52.4714 169.553L52.9157 168.747L54.9616 172.072H53.9558ZM57.4226 169.924L58.5602 164.963H59.1999L58.863 166.892L57.6276 172.072H56.988L57.4226 169.924ZM56.2995 164.963L57.1882 169.826L57.4519 172.072H56.822L55.406 164.963H56.2995ZM60.6501 169.821L61.5192 164.963H62.4128L61.0017 172.072H60.3718L60.6501 169.821ZM59.3024 164.963L60.406 169.924L60.8308 172.072H60.1911L59.0095 166.892L58.6726 164.963H59.3024ZM64.1901 164.572V172.072H63.3259V164.572H64.1901ZM63.9802 169.231L63.6286 169.216C63.6254 168.855 63.666 168.521 63.7507 168.215C63.8386 167.906 63.9623 167.637 64.1218 167.409C64.2845 167.181 64.4782 167.006 64.7028 166.882C64.9274 166.755 65.1765 166.692 65.4499 166.692C65.6647 166.692 65.8601 166.727 66.0358 166.799C66.2116 166.867 66.3614 166.978 66.4851 167.131C66.6088 167.284 66.7032 167.483 66.7683 167.727C66.8366 167.968 66.8708 168.262 66.8708 168.61V172.072H66.0065V168.601C66.0065 168.324 65.9756 168.103 65.9138 167.937C65.8552 167.767 65.764 167.645 65.6403 167.57C65.5199 167.492 65.3669 167.453 65.1813 167.453C65.0121 167.453 64.8542 167.5 64.7077 167.595C64.5612 167.689 64.4326 167.819 64.322 167.985C64.2145 168.151 64.1299 168.342 64.0681 168.557C64.0095 168.768 63.9802 168.993 63.9802 169.231Z" fill="#2B2929"/>
<path d="M610.321 142.602H13.8394" stroke="#999999" stroke-opacity="0.5" stroke-width="0.5" stroke-dasharray="2 2"/>
<path d="M36.944 125.119H37.0075V125.885H36.944C36.5339 125.885 36.197 125.964 35.9333 126.12C35.6729 126.273 35.4694 126.479 35.3229 126.74C35.1797 126.997 35.0804 127.287 35.0251 127.609C34.9698 127.931 34.9421 128.258 34.9421 128.59V129.635C34.9421 129.951 34.9714 130.231 35.03 130.475C35.0918 130.716 35.1716 130.92 35.2692 131.086C35.3701 131.252 35.4824 131.377 35.6061 131.462C35.7331 131.546 35.8617 131.589 35.9919 131.589C36.1579 131.589 36.3044 131.549 36.4313 131.471C36.5616 131.39 36.669 131.278 36.7536 131.134C36.8415 130.988 36.9082 130.815 36.9538 130.617C36.9994 130.418 37.0222 130.2 37.0222 129.963C37.0222 129.751 37.001 129.547 36.9587 129.352C36.9196 129.154 36.8594 128.978 36.778 128.825C36.6966 128.669 36.5925 128.547 36.4655 128.459C36.3418 128.367 36.1937 128.322 36.0212 128.322C35.8259 128.322 35.6436 128.384 35.4743 128.507C35.3083 128.628 35.1716 128.787 35.0642 128.986C34.9567 129.181 34.8933 129.394 34.8737 129.626L34.4294 129.621C34.475 129.256 34.5515 128.945 34.6589 128.688C34.7663 128.428 34.8965 128.216 35.0495 128.053C35.2058 127.887 35.3783 127.767 35.5671 127.692C35.7559 127.614 35.9545 127.575 36.1628 127.575C36.4655 127.575 36.7243 127.642 36.9392 127.775C37.1573 127.908 37.3347 128.088 37.4714 128.312C37.6114 128.533 37.7139 128.784 37.779 129.064C37.8441 129.341 37.8767 129.626 37.8767 129.919C37.8767 130.254 37.836 130.568 37.7546 130.861C37.6765 131.154 37.5593 131.411 37.403 131.632C37.2468 131.854 37.0498 132.026 36.8122 132.15C36.5778 132.274 36.3044 132.336 35.9919 132.336C35.6599 132.336 35.3734 132.257 35.1325 132.101C34.8916 131.942 34.6914 131.73 34.5319 131.466C34.3757 131.203 34.2601 130.91 34.1852 130.588C34.1104 130.265 34.0729 129.938 34.0729 129.606V129.181C34.0729 128.68 34.1088 128.188 34.1804 127.707C34.252 127.225 34.3871 126.789 34.5856 126.398C34.7875 126.007 35.0772 125.697 35.4548 125.465C35.8356 125.234 36.3321 125.119 36.944 125.119ZM42.7399 128.117V129.201C42.7399 129.783 42.6944 130.275 42.6032 130.675C42.5153 131.076 42.3884 131.398 42.2224 131.642C42.0563 131.886 41.8561 132.064 41.6218 132.174C41.3907 132.282 41.1302 132.336 40.8405 132.336C40.6127 132.336 40.3994 132.301 40.2009 132.233C40.0056 132.165 39.8298 132.056 39.6735 131.906C39.5173 131.753 39.3838 131.554 39.2731 131.31C39.1625 131.066 39.0778 130.77 39.0192 130.422C38.9606 130.073 38.9313 129.666 38.9313 129.201V128.117C38.9313 127.534 38.9769 127.046 39.0681 126.652C39.1592 126.258 39.2878 125.942 39.4538 125.705C39.6231 125.464 39.8233 125.291 40.0544 125.187C40.2888 125.083 40.5492 125.031 40.8356 125.031C41.0668 125.031 41.28 125.065 41.4753 125.133C41.6739 125.199 41.8496 125.304 42.0026 125.451C42.1589 125.594 42.2923 125.786 42.403 126.027C42.5137 126.265 42.5967 126.556 42.652 126.901C42.7106 127.246 42.7399 127.651 42.7399 128.117ZM41.8806 129.347V127.965C41.8806 127.646 41.8659 127.366 41.8366 127.126C41.8073 126.881 41.765 126.673 41.7097 126.501C41.6543 126.328 41.5827 126.188 41.4948 126.081C41.4102 125.973 41.3125 125.895 41.2019 125.846C41.0912 125.794 40.9691 125.768 40.8356 125.768C40.6696 125.768 40.5215 125.809 40.3913 125.89C40.2644 125.968 40.1553 126.094 40.0642 126.266C39.9763 126.439 39.9095 126.665 39.864 126.945C39.8184 127.225 39.7956 127.565 39.7956 127.965V129.347C39.7956 129.666 39.8102 129.948 39.8395 130.192C39.8721 130.436 39.916 130.648 39.9714 130.827C40.03 131.003 40.1016 131.147 40.1862 131.261C40.2709 131.375 40.3685 131.46 40.4792 131.515C40.5899 131.567 40.7103 131.593 40.8405 131.593C41.013 131.593 41.1628 131.551 41.2897 131.466C41.4199 131.382 41.529 131.25 41.6169 131.071C41.7048 130.889 41.7699 130.656 41.8122 130.373C41.8578 130.086 41.8806 129.744 41.8806 129.347ZM47.6813 128.117V129.201C47.6813 129.783 47.6358 130.275 47.5446 130.675C47.4567 131.076 47.3298 131.398 47.1638 131.642C46.9977 131.886 46.7976 132.064 46.5632 132.174C46.3321 132.282 46.0716 132.336 45.7819 132.336C45.5541 132.336 45.3408 132.301 45.1423 132.233C44.947 132.165 44.7712 132.056 44.6149 131.906C44.4587 131.753 44.3252 131.554 44.2145 131.31C44.1039 131.066 44.0192 130.77 43.9606 130.422C43.902 130.073 43.8727 129.666 43.8727 129.201V128.117C43.8727 127.534 43.9183 127.046 44.0095 126.652C44.1006 126.258 44.2292 125.942 44.3952 125.705C44.5645 125.464 44.7647 125.291 44.9958 125.187C45.2302 125.083 45.4906 125.031 45.777 125.031C46.0082 125.031 46.2214 125.065 46.4167 125.133C46.6153 125.199 46.791 125.304 46.944 125.451C47.1003 125.594 47.2338 125.786 47.3444 126.027C47.4551 126.265 47.5381 126.556 47.5935 126.901C47.652 127.246 47.6813 127.651 47.6813 128.117ZM46.822 129.347V127.965C46.822 127.646 46.8073 127.366 46.778 127.126C46.7487 126.881 46.7064 126.673 46.6511 126.501C46.5957 126.328 46.5241 126.188 46.4362 126.081C46.3516 125.973 46.2539 125.895 46.1433 125.846C46.0326 125.794 45.9105 125.768 45.777 125.768C45.611 125.768 45.4629 125.809 45.3327 125.89C45.2058 125.968 45.0967 126.094 45.0056 126.266C44.9177 126.439 44.8509 126.665 44.8054 126.945C44.7598 127.225 44.737 127.565 44.737 127.965V129.347C44.737 129.666 44.7517 129.948 44.781 130.192C44.8135 130.436 44.8574 130.648 44.9128 130.827C44.9714 131.003 45.043 131.147 45.1276 131.261C45.2123 131.375 45.3099 131.46 45.4206 131.515C45.5313 131.567 45.6517 131.593 45.7819 131.593C45.9545 131.593 46.1042 131.551 46.2311 131.466C46.3614 131.382 46.4704 131.25 46.5583 131.071C46.6462 130.889 46.7113 130.656 46.7536 130.373C46.7992 130.086 46.822 129.744 46.822 129.347ZM52.0661 124.738V132.238H51.2019V124.738H52.0661ZM54.7468 126.955L52.8669 129.421L51.7048 130.758L51.6462 129.797L52.447 128.693L53.7067 126.955H54.7468ZM53.9558 132.238L52.4714 129.718L52.9157 128.913L54.9616 132.238H53.9558ZM57.4226 130.089L58.5602 125.129H59.1999L58.863 127.057L57.6276 132.238H56.988L57.4226 130.089ZM56.2995 125.129L57.1882 129.992L57.4519 132.238H56.822L55.406 125.129H56.2995ZM60.6501 129.987L61.5192 125.129H62.4128L61.0017 132.238H60.3718L60.6501 129.987ZM59.3024 125.129L60.406 130.089L60.8308 132.238H60.1911L59.0095 127.057L58.6726 125.129H59.3024ZM64.1901 124.738V132.238H63.3259V124.738H64.1901ZM63.9802 129.396L63.6286 129.381C63.6254 129.02 63.666 128.686 63.7507 128.38C63.8386 128.071 63.9623 127.803 64.1218 127.575C64.2845 127.347 64.4782 127.171 64.7028 127.047C64.9274 126.921 65.1765 126.857 65.4499 126.857C65.6647 126.857 65.8601 126.893 66.0358 126.964C66.2116 127.033 66.3614 127.144 66.4851 127.297C66.6088 127.45 66.7032 127.648 66.7683 127.892C66.8366 128.133 66.8708 128.428 66.8708 128.776V132.238H66.0065V128.766C66.0065 128.49 65.9756 128.268 65.9138 128.102C65.8552 127.933 65.764 127.811 65.6403 127.736C65.5199 127.658 65.3669 127.619 65.1813 127.619C65.0121 127.619 64.8542 127.666 64.7077 127.76C64.5612 127.855 64.4326 127.985 64.322 128.151C64.2145 128.317 64.1299 128.507 64.0681 128.722C64.0095 128.934 63.9802 129.158 63.9802 129.396Z" fill="#2B2929"/>
<path d="M610.321 102.767H13.8394" stroke="#999999" stroke-opacity="0.5" stroke-width="0.5" stroke-dasharray="2 2"/>
<path d="M37.7936 90.4796C37.7936 90.9126 37.7106 91.2804 37.5446 91.5831C37.3786 91.8826 37.1524 92.1105 36.8659 92.2667C36.5795 92.423 36.2556 92.5011 35.8942 92.5011C35.5362 92.5011 35.2139 92.423 34.9274 92.2667C34.641 92.1105 34.4147 91.8826 34.2487 91.5831C34.0827 91.2804 33.9997 90.9126 33.9997 90.4796C33.9997 90.1964 34.0453 89.9376 34.1364 89.7032C34.2276 89.4656 34.3561 89.2589 34.5222 89.0831C34.6914 88.9073 34.8916 88.7723 35.1227 88.6779C35.3539 88.5802 35.6094 88.5314 35.8894 88.5314C36.2572 88.5314 36.5843 88.616 36.8708 88.7853C37.1573 88.9513 37.3819 89.1808 37.5446 89.4738C37.7106 89.7667 37.7936 90.102 37.7936 90.4796ZM36.9343 90.4601C36.9343 90.1964 36.8903 89.9637 36.8024 89.7618C36.7178 89.5568 36.5974 89.3973 36.4411 89.2833C36.2849 89.1694 36.1009 89.1124 35.8894 89.1124C35.6745 89.1124 35.4906 89.1694 35.3376 89.2833C35.1846 89.3973 35.0658 89.5568 34.9811 89.7618C34.8998 89.9637 34.8591 90.1964 34.8591 90.4601C34.8591 90.7335 34.8998 90.9679 34.9811 91.1632C35.0625 91.3553 35.1797 91.5034 35.3327 91.6075C35.489 91.7085 35.6778 91.7589 35.8991 91.7589C36.1172 91.7589 36.3028 91.7085 36.4558 91.6075C36.612 91.5034 36.7308 91.3553 36.8122 91.1632C36.8936 90.9679 36.9343 90.7335 36.9343 90.4601ZM37.6618 87.1447C37.6618 87.4897 37.5853 87.8006 37.4323 88.0773C37.2793 88.354 37.0694 88.5721 36.8024 88.7316C36.5388 88.8911 36.2377 88.9708 35.8991 88.9708C35.5541 88.9708 35.2481 88.8911 34.9811 88.7316C34.7142 88.5721 34.5059 88.354 34.3561 88.0773C34.2064 87.8006 34.1315 87.4897 34.1315 87.1447C34.1315 86.7312 34.2064 86.3797 34.3561 86.09C34.5091 85.8003 34.7191 85.5789 34.986 85.4259C35.253 85.2729 35.5573 85.1964 35.8991 85.1964C36.2442 85.1964 36.5485 85.2729 36.8122 85.4259C37.0759 85.5789 37.2826 85.8003 37.4323 86.09C37.5853 86.3797 37.6618 86.7312 37.6618 87.1447ZM36.7976 87.1593C36.7976 86.9217 36.7601 86.7117 36.6852 86.5294C36.6136 86.3471 36.5095 86.2039 36.3727 86.0997C36.2393 85.9923 36.0814 85.9386 35.8991 85.9386C35.7168 85.9386 35.5573 85.9891 35.4206 86.09C35.2871 86.1876 35.183 86.3276 35.1081 86.5099C35.0332 86.6922 34.9958 86.9087 34.9958 87.1593C34.9958 87.4034 35.0316 87.6167 35.1032 87.799C35.1781 87.9812 35.2839 88.1228 35.4206 88.2238C35.5573 88.3247 35.7168 88.3751 35.8991 88.3751C36.0814 88.3751 36.2393 88.3247 36.3727 88.2238C36.5095 88.1228 36.6136 87.9812 36.6852 87.799C36.7601 87.6167 36.7976 87.4034 36.7976 87.1593ZM42.7399 88.2823V89.3663C42.7399 89.949 42.6944 90.4406 42.6032 90.8409C42.5153 91.2413 42.3884 91.5636 42.2224 91.8077C42.0563 92.0519 41.8561 92.2293 41.6218 92.34C41.3907 92.4474 41.1302 92.5011 40.8405 92.5011C40.6127 92.5011 40.3994 92.4669 40.2009 92.3986C40.0056 92.3302 39.8298 92.2212 39.6735 92.0714C39.5173 91.9184 39.3838 91.7198 39.2731 91.4757C39.1625 91.2316 39.0778 90.9353 39.0192 90.587C38.9606 90.2387 38.9313 89.8318 38.9313 89.3663V88.2823C38.9313 87.6997 38.9769 87.2114 39.0681 86.8175C39.1592 86.4236 39.2878 86.1079 39.4538 85.8702C39.6231 85.6294 39.8233 85.4568 40.0544 85.3527C40.2888 85.2485 40.5492 85.1964 40.8356 85.1964C41.0668 85.1964 41.28 85.2306 41.4753 85.299C41.6739 85.3641 41.8496 85.4698 42.0026 85.6163C42.1589 85.7596 42.2923 85.9516 42.403 86.1925C42.5137 86.4301 42.5967 86.7215 42.652 87.0665C42.7106 87.4116 42.7399 87.8169 42.7399 88.2823ZM41.8806 89.5128V88.131C41.8806 87.812 41.8659 87.532 41.8366 87.2911C41.8073 87.047 41.765 86.8387 41.7097 86.6661C41.6543 86.4936 41.5827 86.3536 41.4948 86.2462C41.4102 86.1388 41.3125 86.0607 41.2019 86.0118C41.0912 85.9598 40.9691 85.9337 40.8356 85.9337C40.6696 85.9337 40.5215 85.9744 40.3913 86.0558C40.2644 86.1339 40.1553 86.2592 40.0642 86.4318C39.9763 86.6043 39.9095 86.8305 39.864 87.1105C39.8184 87.3904 39.7956 87.7306 39.7956 88.131V89.5128C39.7956 89.8318 39.8102 90.1134 39.8395 90.3575C39.8721 90.6017 39.916 90.8133 39.9714 90.9923C40.03 91.1681 40.1016 91.3129 40.1862 91.4269C40.2709 91.5408 40.3685 91.6254 40.4792 91.6808C40.5899 91.7329 40.7103 91.7589 40.8405 91.7589C41.013 91.7589 41.1628 91.7166 41.2897 91.632C41.4199 91.5473 41.529 91.4155 41.6169 91.2365C41.7048 91.0542 41.7699 90.8214 41.8122 90.5382C41.8578 90.2517 41.8806 89.91 41.8806 89.5128ZM47.6813 88.2823V89.3663C47.6813 89.949 47.6358 90.4406 47.5446 90.8409C47.4567 91.2413 47.3298 91.5636 47.1638 91.8077C46.9977 92.0519 46.7976 92.2293 46.5632 92.34C46.3321 92.4474 46.0716 92.5011 45.7819 92.5011C45.5541 92.5011 45.3408 92.4669 45.1423 92.3986C44.947 92.3302 44.7712 92.2212 44.6149 92.0714C44.4587 91.9184 44.3252 91.7198 44.2145 91.4757C44.1039 91.2316 44.0192 90.9353 43.9606 90.587C43.902 90.2387 43.8727 89.8318 43.8727 89.3663V88.2823C43.8727 87.6997 43.9183 87.2114 44.0095 86.8175C44.1006 86.4236 44.2292 86.1079 44.3952 85.8702C44.5645 85.6294 44.7647 85.4568 44.9958 85.3527C45.2302 85.2485 45.4906 85.1964 45.777 85.1964C46.0082 85.1964 46.2214 85.2306 46.4167 85.299C46.6153 85.3641 46.791 85.4698 46.944 85.6163C47.1003 85.7596 47.2338 85.9516 47.3444 86.1925C47.4551 86.4301 47.5381 86.7215 47.5935 87.0665C47.652 87.4116 47.6813 87.8169 47.6813 88.2823ZM46.822 89.5128V88.131C46.822 87.812 46.8073 87.532 46.778 87.2911C46.7487 87.047 46.7064 86.8387 46.6511 86.6661C46.5957 86.4936 46.5241 86.3536 46.4362 86.2462C46.3516 86.1388 46.2539 86.0607 46.1433 86.0118C46.0326 85.9598 45.9105 85.9337 45.777 85.9337C45.611 85.9337 45.4629 85.9744 45.3327 86.0558C45.2058 86.1339 45.0967 86.2592 45.0056 86.4318C44.9177 86.6043 44.8509 86.8305 44.8054 87.1105C44.7598 87.3904 44.737 87.7306 44.737 88.131V89.5128C44.737 89.8318 44.7517 90.1134 44.781 90.3575C44.8135 90.6017 44.8574 90.8133 44.9128 90.9923C44.9714 91.1681 45.043 91.3129 45.1276 91.4269C45.2123 91.5408 45.3099 91.6254 45.4206 91.6808C45.5313 91.7329 45.6517 91.7589 45.7819 91.7589C45.9545 91.7589 46.1042 91.7166 46.2311 91.632C46.3614 91.5473 46.4704 91.4155 46.5583 91.2365C46.6462 91.0542 46.7113 90.8214 46.7536 90.5382C46.7992 90.2517 46.822 89.91 46.822 89.5128ZM52.0661 84.9034V92.4034H51.2019V84.9034H52.0661ZM54.7468 87.1202L52.8669 89.5861L51.7048 90.924L51.6462 89.962L52.447 88.8585L53.7067 87.1202H54.7468ZM53.9558 92.4034L52.4714 89.8839L52.9157 89.0782L54.9616 92.4034H53.9558ZM57.4226 90.255L58.5602 85.2941H59.1999L58.863 87.2228L57.6276 92.4034H56.988L57.4226 90.255ZM56.2995 85.2941L57.1882 90.1573L57.4519 92.4034H56.822L55.406 85.2941H56.2995ZM60.6501 90.1525L61.5192 85.2941H62.4128L61.0017 92.4034H60.3718L60.6501 90.1525ZM59.3024 85.2941L60.406 90.255L60.8308 92.4034H60.1911L59.0095 87.2228L58.6726 85.2941H59.3024ZM64.1901 84.9034V92.4034H63.3259V84.9034H64.1901ZM63.9802 89.5616L63.6286 89.547C63.6254 89.1857 63.666 88.852 63.7507 88.546C63.8386 88.2368 63.9623 87.9682 64.1218 87.7404C64.2845 87.5125 64.4782 87.3367 64.7028 87.213C64.9274 87.0861 65.1765 87.0226 65.4499 87.0226C65.6647 87.0226 65.8601 87.0584 66.0358 87.13C66.2116 87.1984 66.3614 87.309 66.4851 87.462C66.6088 87.615 66.7032 87.8136 66.7683 88.0577C66.8366 88.2986 66.8708 88.5932 66.8708 88.9415V92.4034H66.0065V88.9318C66.0065 88.6551 65.9756 88.4337 65.9138 88.2677C65.8552 88.0984 65.764 87.9764 65.6403 87.9015C65.5199 87.8234 65.3669 87.7843 65.1813 87.7843C65.0121 87.7843 64.8542 87.8315 64.7077 87.9259C64.5612 88.0203 64.4326 88.1505 64.322 88.3165C64.2145 88.4825 64.1299 88.673 64.0681 88.8878C64.0095 89.0994 63.9802 89.324 63.9802 89.5616Z" fill="#2B2929"/>
<path d="M610.321 62.933H13.8394" stroke="#999999" stroke-opacity="0.5" stroke-width="0.5" stroke-dasharray="2 2"/>
<path d="M40.997 45.4205V52.569H40.1327V46.5485L38.6386 47.2125V46.3971L40.8651 45.4205H40.997ZM44.4589 45.4596V52.569H43.5604V45.4596H44.4589ZM48.0331 45.4596L45.5868 48.775L44.1561 50.4987L43.995 49.4928L45.0448 48.1158L46.9589 45.4596H48.0331ZM47.1395 52.569L45.0448 49.1022L45.577 48.3551L48.2089 52.569H47.1395ZM52.0663 45.069V52.569H51.202V45.069H52.0663ZM54.747 47.2858L52.8671 49.7516L51.705 51.0895L51.6464 50.1276L52.4472 49.024L53.7069 47.2858H54.747ZM53.9559 52.569L52.4716 50.0494L52.9159 49.2438L54.9618 52.569H53.9559ZM57.4227 50.4205L58.5604 45.4596H59.2001L58.8632 47.3883L57.6278 52.569H56.9882L57.4227 50.4205ZM56.2997 45.4596L57.1884 50.3229L57.452 52.569H56.8222L55.4061 45.4596H56.2997ZM60.6503 50.318L61.5194 45.4596H62.413L61.0018 52.569H60.372L60.6503 50.318ZM59.3026 45.4596L60.4061 50.4205L60.8309 52.569H60.1913L59.0097 47.3883L58.6727 45.4596H59.3026ZM64.1903 45.069V52.569H63.3261V45.069H64.1903ZM63.9804 49.7272L63.6288 49.7125C63.6255 49.3512 63.6662 49.0175 63.7509 48.7115C63.8388 48.4023 63.9625 48.1337 64.122 47.9059C64.2847 47.678 64.4784 47.5022 64.703 47.3785C64.9276 47.2516 65.1766 47.1881 65.4501 47.1881C65.6649 47.1881 65.8602 47.2239 66.036 47.2955C66.2118 47.3639 66.3615 47.4746 66.4852 47.6276C66.6089 47.7806 66.7033 47.9791 66.7684 48.2233C66.8368 48.4642 66.871 48.7587 66.871 49.1071V52.569H66.0067V49.0973C66.0067 48.8206 65.9758 48.5992 65.9139 48.4332C65.8554 48.264 65.7642 48.1419 65.6405 48.067C65.5201 47.9889 65.3671 47.9498 65.1815 47.9498C65.0123 47.9498 64.8544 47.997 64.7079 48.0914C64.5614 48.1858 64.4328 48.316 64.3222 48.4821C64.2147 48.6481 64.1301 48.8385 64.0682 49.0533C64.0097 49.2649 63.9804 49.4895 63.9804 49.7272Z" fill="#2B2929"/>
<path d="M610.321 101.176L598.028 109.206L585.701 117.365L573.408 122.622L561.115 133.865L548.822 142.209L536.495 149.629L524.202 153.514L511.909 159.992L499.616 168.196L487.29 171.465L474.997 175.673L462.703 179.625L450.41 182.978L438.084 183.01L425.791 183.33L413.498 184.56L401.205 186.627L388.878 189.748L376.585 189.958L364.292 193.45L351.999 197.569L339.672 200.779L327.379 203.475L315.086 207.226L302.793 210.218L290.466 213.607L278.173 217.552L265.88 219.991L253.587 222.867L241.261 224.905L228.968 228.413L216.674 229.925L204.381 231.164L192.055 233.189L179.762 234.378L167.469 234.343L155.176 236.267L142.849 236.692L130.556 238.597L118.263 240.701L105.97 241.371L93.6431 241.436L81.3501 241.94" stroke="#B60302" stroke-width="2.5"/>
</g>
<defs>
<clipPath id="clip0_153_731">
<rect width="610.321" height="268.329" fill="white" transform="translate(13.8394 34.5785)"/>
</clipPath>
</defs>
</svg>
