<?xml version="1.0" encoding="UTF-8"?>
<svg id="Layer_2" data-name="Layer 2" xmlns="http://www.w3.org/2000/svg" xmlns:xlink="http://www.w3.org/1999/xlink" viewBox="0 0 327.74 213.56">
  <defs>
    <style>
      .cls-1 {
        fill: #fff;
      }

      .cls-2 {
        fill: #939598;
      }

      .cls-3 {
        stroke: #f9beab;
        stroke-width: .75px;
      }

      .cls-3, .cls-4, .cls-5, .cls-6, .cls-7, .cls-8 {
        fill: none;
      }

      .cls-3, .cls-4, .cls-5, .cls-6, .cls-8 {
        stroke-miterlimit: 10;
      }

      .cls-9 {
        clip-path: url(#clippath-2);
      }

      .cls-10 {
        clip-path: url(#clippath-1);
      }

      .cls-4 {
        stroke: #939598;
      }

      .cls-11 {
        fill: #fde7de;
      }

      .cls-5 {
        stroke: #bdbcbb;
        stroke-width: .43px;
      }

      .cls-12 {
        fill: #e2e3e4;
      }

      .cls-6 {
        stroke: #fde7de;
        stroke-width: 4px;
      }

      .cls-13 {
        clip-path: url(#clippath);
      }

      .cls-14 {
        fill: #ea1d2d;
      }

      .cls-8 {
        stroke: #777677;
        stroke-width: .5px;
      }
    </style>
    <clipPath id="clippath">
      <path class="cls-7" d="M46.47,128.18c4.19-15.32,19.07-25.17,34.8-23.06,15.74,2.11,27.49,15.54,27.49,31.42h-15.85c0-7.94-5.87-14.66-13.74-15.71-7.87-1.06-15.31,3.87-17.4,11.53l-15.29-4.18Z"/>
    </clipPath>
    <clipPath id="clippath-1">
      <path class="cls-7" d="M132.36,128.86c3.88-15.52,18.73-25.71,34.6-23.76,15.88,1.96,27.81,15.44,27.81,31.44h-15.84c0-8-5.96-14.74-13.9-15.72-7.94-.98-15.36,4.12-17.3,11.88l-15.37-3.84Z"/>
    </clipPath>
    <clipPath id="clippath-2">
      <path class="cls-7" d="M224.65,114.71c9.07-10.16,23.46-13.66,36.18-8.81,12.72,4.85,21.13,17.05,21.13,30.67h-16.41c0-6.81-4.2-12.91-10.56-15.33-6.36-2.43-13.56-.67-18.09,4.4l-12.24-10.93Z"/>
    </clipPath>
  </defs>
  <g id="Layer_2-2" data-name="Layer 2">
    <g>
      <path class="cls-2" d="M138.71,.12h1.88l.84,6.01h.02l.84-6.01h1.88V8.52h-1.25V2.16h-.02l-.96,6.36h-1.1l-.96-6.36h-.02v6.36h-1.15V.12Z"/>
      <path class="cls-2" d="M146.54,.12h1.79l1.37,8.4h-1.32l-.24-1.67v.02h-1.5l-.24,1.64h-1.22L146.54,.12Zm1.44,5.61l-.59-4.15h-.02l-.58,4.15h1.19Z"/>
      <path class="cls-2" d="M150.69,.12h1.66l1.28,5.03h.02V.12h1.18V8.52h-1.36l-1.58-6.13h-.02v6.13h-1.18V.12Z"/>
      <path class="cls-2" d="M157.39,4.94l-1.6-4.82h1.4l.9,3.08h.02l.9-3.08h1.28l-1.6,4.82v3.57h-1.32v-3.57Z"/>
      <path class="cls-2" d="M163.45,6.52V2.11c0-1.34,.71-2.11,2-2.11s2,.77,2,2.11V6.52c0,1.34-.71,2.11-2,2.11s-2-.77-2-2.11Zm2.69,.08V2.03c0-.6-.26-.83-.68-.83s-.68,.23-.68,.83V6.61c0,.6,.26,.83,.68,.83s.68-.23,.68-.83Z"/>
      <path class="cls-2" d="M168.71,.12h3.49V1.32h-2.17V3.66h1.7v1.2h-1.7v3.66h-1.32V.12Z"/>
      <path class="cls-2" d="M176.5,1.32h-1.38V.12h4.08V1.32h-1.38v7.2h-1.32V1.32Z"/>
      <path class="cls-2" d="M180.2,.12h1.32V3.54h1.42V.12h1.32V8.52h-1.32v-3.78h-1.42v3.78h-1.32V.12Z"/>
      <path class="cls-2" d="M185.6,.12h3.6V1.32h-2.28V3.54h1.81v1.2h-1.81v2.58h2.28v1.2h-3.6V.12Z"/>
    </g>
    <g>
      <line class="cls-8" x1="46.23" y1="2.54" x2="131.6" y2="2.54"/>
      <line class="cls-8" x1="46.23" y1="5.58" x2="131.6" y2="5.58"/>
    </g>
    <g>
      <line class="cls-8" x1="197.19" y1="2.54" x2="282.56" y2="2.54"/>
      <line class="cls-8" x1="197.19" y1="5.58" x2="282.56" y2="5.58"/>
    </g>
    <line class="cls-6" x1="46.55" y1="54.87" x2="155.18" y2="54.87"/>
    <g>
      <path class="cls-14" d="M68.8,16.17h1.8l.83,9.15h.03l.88-9.15h2.04l.88,9.15h.03l.83-9.15h1.61l-1.21,11.9h-2.33l-.85-8.02h-.03l-.85,8.02h-2.48l-1.21-11.9Z"/>
      <path class="cls-14" d="M79,25.25v-6.26c0-1.9,1-2.99,2.84-2.99s2.84,1.09,2.84,2.99v6.26c0,1.9-1,2.99-2.84,2.99s-2.84-1.09-2.84-2.99Zm3.81,.12v-6.49c0-.85-.37-1.17-.97-1.17s-.97,.32-.97,1.17v6.49c0,.85,.37,1.17,.97,1.17s.97-.32,.97-1.17Z"/>
      <path class="cls-14" d="M86.36,16.17h2.77c1.94,0,2.77,.9,2.77,2.74v.73c0,1.22-.39,2.01-1.22,2.35v.03c.94,.29,1.24,1.17,1.24,2.52v2.09c0,.58,.02,1,.2,1.44h-1.9c-.1-.31-.17-.49-.17-1.46v-2.18c0-1.1-.32-1.46-1.17-1.46h-.65v5.1h-1.87v-11.9Zm2.55,5.1c.7,0,1.12-.31,1.12-1.26v-.92c0-.85-.29-1.22-.95-1.22h-.85v3.4h.68Z"/>
      <path class="cls-14" d="M93.64,16.17h1.87v10.2h3.08v1.7h-4.95v-11.9Z"/>
      <path class="cls-14" d="M99.91,16.17h2.86c1.87,0,2.79,1.04,2.79,2.94v6.02c0,1.9-.92,2.94-2.79,2.94h-2.86v-11.9Zm2.82,10.2c.59,0,.95-.31,.95-1.16v-6.19c0-.85-.36-1.16-.95-1.16h-.95v8.5h.95Z"/>
      <path class="cls-14" d="M107.85,17.98h-.61v-1.8h1.8v1.61l-1.04,2.23h-.87l.71-2.04Z"/>
      <path class="cls-14" d="M110.53,25.25v-.68h1.77v.82c0,.85,.37,1.16,.97,1.16s.97-.31,.97-1.19c0-.99-.37-1.61-1.6-2.69-1.56-1.38-2.07-2.35-2.07-3.71,0-1.87,.97-2.96,2.79-2.96s2.72,1.09,2.72,2.99v.49h-1.77v-.61c0-.85-.34-1.17-.93-1.17s-.93,.32-.93,1.14c0,.87,.39,1.5,1.61,2.57,1.56,1.38,2.06,2.33,2.06,3.81,0,1.94-.99,3.03-2.82,3.03s-2.75-1.09-2.75-2.99Z"/>
      <path class="cls-14" d="M120.26,16.17h1.89l1.22,9.23h.03l1.22-9.23h1.72l-1.8,11.9h-2.48l-1.8-11.9Z"/>
      <path class="cls-14" d="M127.6,25.25v-9.08h1.87v9.21c0,.85,.36,1.16,.95,1.16s.95-.31,.95-1.16v-9.21h1.8v9.08c0,1.9-.95,2.99-2.79,2.99s-2.79-1.09-2.79-2.99Z"/>
      <path class="cls-14" d="M134.93,16.17h1.87v10.2h3.08v1.7h-4.95v-11.9Z"/>
      <path class="cls-14" d="M141.2,16.17h2.35l1.82,7.12h.03v-7.12h1.67v11.9h-1.92l-2.24-8.69h-.03v8.69h-1.67v-11.9Z"/>
      <path class="cls-14" d="M148.88,16.17h5.1v1.7h-3.23v3.14h2.57v1.7h-2.57v3.65h3.23v1.7h-5.1v-11.9Z"/>
      <path class="cls-14" d="M155.48,16.17h2.77c1.94,0,2.77,.9,2.77,2.74v.73c0,1.22-.39,2.01-1.22,2.35v.03c.94,.29,1.24,1.17,1.24,2.52v2.09c0,.58,.02,1,.2,1.44h-1.9c-.1-.31-.17-.49-.17-1.46v-2.18c0-1.1-.32-1.46-1.17-1.46h-.65v5.1h-1.87v-11.9Zm2.55,5.1c.7,0,1.12-.31,1.12-1.26v-.92c0-.85-.29-1.22-.95-1.22h-.85v3.4h.68Z"/>
      <path class="cls-14" d="M164.2,16.17h2.53l1.94,11.9h-1.87l-.34-2.36v.03h-2.12l-.34,2.33h-1.73l1.94-11.9Zm2.04,7.96l-.83-5.88h-.03l-.82,5.88h1.68Z"/>
      <path class="cls-14" d="M170,16.17h2.82c1.94,0,2.77,.9,2.77,2.74v.48c0,1.22-.37,1.99-1.21,2.33v.03c1,.34,1.39,1.22,1.39,2.48v1.02c0,1.84-.97,2.82-2.84,2.82h-2.94v-11.9Zm2.6,4.84c.7,0,1.12-.31,1.12-1.26v-.66c0-.85-.29-1.22-.95-1.22h-.9v3.14h.73Zm.34,5.35c.63,0,.97-.29,.97-1.17v-1.04c0-1.1-.36-1.44-1.21-1.44h-.83v3.65h1.07Z"/>
      <path class="cls-14" d="M177.29,16.17h1.87v10.2h3.08v1.7h-4.95v-11.9Z"/>
      <path class="cls-14" d="M183.56,16.17h5.1v1.7h-3.23v3.14h2.57v1.7h-2.57v3.65h3.23v1.7h-5.1v-11.9Z"/>
      <path class="cls-14" d="M193.31,16.17h2.75c1.87,0,2.79,1.04,2.79,2.94v1.17c0,1.9-.92,2.94-2.79,2.94h-.88v4.84h-1.87v-11.9Zm2.75,5.35c.59,0,.92-.27,.92-1.12v-1.41c0-.85-.32-1.12-.92-1.12h-.88v3.65h.88Z"/>
      <path class="cls-14" d="M200.16,25.25v-6.26c0-1.9,1-2.99,2.84-2.99s2.84,1.09,2.84,2.99v6.26c0,1.9-1,2.99-2.84,2.99s-2.84-1.09-2.84-2.99Zm3.81,.12v-6.49c0-.85-.37-1.17-.97-1.17s-.97,.32-.97,1.17v6.49c0,.85,.37,1.17,.97,1.17s.97-.32,.97-1.17Z"/>
      <path class="cls-14" d="M207.52,16.17h2.75c1.87,0,2.79,1.04,2.79,2.94v1.17c0,1.9-.92,2.94-2.79,2.94h-.88v4.84h-1.87v-11.9Zm2.75,5.35c.59,0,.92-.27,.92-1.12v-1.41c0-.85-.32-1.12-.92-1.12h-.88v3.65h.88Z"/>
      <path class="cls-14" d="M214.44,25.25v-9.08h1.87v9.21c0,.85,.36,1.16,.95,1.16s.95-.31,.95-1.16v-9.21h1.8v9.08c0,1.9-.95,2.99-2.79,2.99s-2.79-1.09-2.79-2.99Z"/>
      <path class="cls-14" d="M221.76,16.17h1.87v10.2h3.08v1.7h-4.95v-11.9Z"/>
      <path class="cls-14" d="M229.55,16.17h2.53l1.94,11.9h-1.87l-.34-2.36v.03h-2.12l-.34,2.33h-1.73l1.94-11.9Zm2.04,7.96l-.83-5.88h-.03l-.82,5.88h1.68Z"/>
      <path class="cls-14" d="M236.03,17.88h-1.95v-1.7h5.78v1.7h-1.95v10.2h-1.87v-10.2Z"/>
      <path class="cls-14" d="M241.18,16.17h1.87v11.9h-1.87v-11.9Z"/>
      <path class="cls-14" d="M244.73,25.25v-6.26c0-1.9,1-2.99,2.84-2.99s2.84,1.09,2.84,2.99v6.26c0,1.9-1,2.99-2.84,2.99s-2.84-1.09-2.84-2.99Zm3.81,.12v-6.49c0-.85-.37-1.17-.97-1.17s-.97,.32-.97,1.17v6.49c0,.85,.37,1.17,.97,1.17s.97-.32,.97-1.17Z"/>
      <path class="cls-14" d="M252.09,16.17h2.35l1.82,7.12h.03v-7.12h1.67v11.9h-1.92l-2.24-8.69h-.03v8.69h-1.67v-11.9Z"/>
      <path class="cls-2" d="M46.62,36.17h2.77c1.94,0,2.77,.9,2.77,2.74v.73c0,1.22-.39,2.01-1.22,2.35v.03c.94,.29,1.24,1.17,1.24,2.52v2.09c0,.58,.02,1,.2,1.44h-1.9c-.1-.31-.17-.49-.17-1.46v-2.18c0-1.1-.32-1.46-1.17-1.46h-.65v5.1h-1.87v-11.9Zm2.55,5.1c.7,0,1.12-.31,1.12-1.26v-.92c0-.85-.29-1.22-.95-1.22h-.85v3.4h.68Z"/>
      <path class="cls-2" d="M53.98,36.17h5.1v1.7h-3.23v3.14h2.57v1.7h-2.57v3.65h3.23v1.7h-5.1v-11.9Z"/>
      <path class="cls-2" d="M60.66,36.17h2.67l1.19,8.52h.03l1.19-8.52h2.67v11.9h-1.77v-9.01h-.03l-1.36,9.01h-1.56l-1.36-9.01h-.03v9.01h-1.63v-11.9Z"/>
      <path class="cls-2" d="M71.76,36.17h2.53l1.94,11.9h-1.87l-.34-2.36v.03h-2.12l-.34,2.33h-1.73l1.94-11.9Zm2.04,7.96l-.83-5.88h-.03l-.82,5.88h1.68Z"/>
      <path class="cls-2" d="M77.65,36.17h1.87v11.9h-1.87v-11.9Z"/>
      <path class="cls-2" d="M81.42,36.17h2.35l1.82,7.12h.03v-7.12h1.67v11.9h-1.92l-2.24-8.69h-.03v8.69h-1.67v-11.9Z"/>
      <path class="cls-2" d="M92.35,45.25v-9.08h1.87v9.21c0,.85,.36,1.16,.95,1.16s.95-.31,.95-1.16v-9.21h1.8v9.08c0,1.9-.95,2.99-2.79,2.99s-2.79-1.09-2.79-2.99Z"/>
      <path class="cls-2" d="M99.76,36.17h2.35l1.82,7.12h.03v-7.12h1.67v11.9h-1.92l-2.24-8.69h-.03v8.69h-1.67v-11.9Z"/>
      <path class="cls-2" d="M107.41,45.32v-6.39c0-1.84,.95-2.92,2.75-2.92s2.75,1.09,2.75,2.92v1.26h-1.77v-1.38c0-.78-.37-1.1-.93-1.1s-.93,.32-.93,1.1v6.65c0,.78,.37,1.09,.93,1.09s.93-.31,.93-1.09v-1.82h1.77v1.68c0,1.84-.95,2.92-2.75,2.92s-2.75-1.09-2.75-2.92Z"/>
      <path class="cls-2" d="M114.45,45.25v-6.26c0-1.9,1-2.99,2.84-2.99s2.84,1.09,2.84,2.99v6.26c0,1.9-1,2.99-2.84,2.99s-2.84-1.09-2.84-2.99Zm3.81,.12v-6.49c0-.85-.37-1.17-.97-1.17s-.97,.32-.97,1.17v6.49c0,.85,.37,1.17,.97,1.17s.97-.32,.97-1.17Z"/>
      <path class="cls-2" d="M121.37,36.17h1.89l1.22,9.23h.03l1.22-9.23h1.72l-1.8,11.9h-2.48l-1.8-11.9Z"/>
      <path class="cls-2" d="M128.87,36.17h5.1v1.7h-3.23v3.14h2.57v1.7h-2.57v3.65h3.23v1.7h-5.1v-11.9Z"/>
      <path class="cls-2" d="M135.55,36.17h2.77c1.94,0,2.77,.9,2.77,2.74v.73c0,1.22-.39,2.01-1.22,2.35v.03c.93,.29,1.24,1.17,1.24,2.52v2.09c0,.58,.02,1,.2,1.44h-1.9c-.1-.31-.17-.49-.17-1.46v-2.18c0-1.1-.32-1.46-1.17-1.46h-.65v5.1h-1.87v-11.9Zm2.55,5.1c.7,0,1.12-.31,1.12-1.26v-.92c0-.85-.29-1.22-.95-1.22h-.85v3.4h.68Z"/>
      <path class="cls-2" d="M142.91,36.17h5.1v1.7h-3.23v3.14h2.57v1.7h-2.57v3.65h3.23v1.7h-5.1v-11.9Z"/>
      <path class="cls-2" d="M149.59,36.17h2.86c1.87,0,2.79,1.04,2.79,2.94v6.02c0,1.9-.92,2.94-2.79,2.94h-2.86v-11.9Zm2.82,10.2c.59,0,.95-.31,.95-1.16v-6.19c0-.85-.36-1.16-.95-1.16h-.95v8.5h.95Z"/>
      <path class="cls-2" d="M159.99,38.37h1.83c1.25,0,1.79,.58,1.79,1.77v.31c0,.79-.24,1.29-.78,1.51v.02c.65,.22,.9,.79,.9,1.61v.66c0,1.19-.63,1.83-1.84,1.83h-1.9v-7.7Zm1.68,3.14c.45,0,.73-.2,.73-.81v-.43c0-.55-.19-.79-.62-.79h-.58v2.04h.47Zm.22,3.47c.41,0,.63-.19,.63-.76v-.67c0-.72-.23-.94-.78-.94h-.54v2.37h.69Z"/>
      <path class="cls-2" d="M165.88,42.8l-1.46-4.42h1.29l.82,2.83h.02l.83-2.83h1.18l-1.46,4.42v3.28h-1.21v-3.28Z"/>
      <path class="cls-2" d="M172.76,45.25v-.68h1.77v.82c0,.85,.37,1.16,.97,1.16s.97-.31,.97-1.19c0-.99-.37-1.61-1.6-2.69-1.56-1.38-2.07-2.35-2.07-3.71,0-1.87,.97-2.96,2.79-2.96s2.72,1.09,2.72,2.99v.49h-1.77v-.61c0-.85-.34-1.17-.93-1.17s-.93,.32-.93,1.14c0,.87,.39,1.5,1.61,2.57,1.56,1.38,2.06,2.33,2.06,3.81,0,1.94-.99,3.03-2.82,3.03s-2.75-1.09-2.75-2.99Z"/>
      <path class="cls-2" d="M179.78,45.25v-6.26c0-1.9,1-2.99,2.84-2.99s2.84,1.09,2.84,2.99v6.26c0,1.9-1,2.99-2.84,2.99s-2.84-1.09-2.84-2.99Zm3.81,.12v-6.49c0-.85-.37-1.17-.97-1.17s-.97,.32-.97,1.17v6.49c0,.85,.37,1.17,.97,1.17s.97-.32,.97-1.17Z"/>
      <path class="cls-2" d="M187.11,45.32v-6.39c0-1.84,.95-2.92,2.75-2.92s2.75,1.09,2.75,2.92v1.26h-1.77v-1.38c0-.78-.37-1.1-.93-1.1s-.94,.32-.94,1.1v6.65c0,.78,.37,1.09,.94,1.09s.93-.31,.93-1.09v-1.82h1.77v1.68c0,1.84-.95,2.92-2.75,2.92s-2.75-1.09-2.75-2.92Z"/>
      <path class="cls-2" d="M194.25,36.17h1.87v11.9h-1.87v-11.9Z"/>
      <path class="cls-2" d="M199.47,36.17h2.53l1.94,11.9h-1.87l-.34-2.36v.03h-2.12l-.34,2.33h-1.73l1.94-11.9Zm2.04,7.96l-.83-5.88h-.03l-.82,5.88h1.68Z"/>
      <path class="cls-2" d="M205.35,36.17h1.87v10.2h3.08v1.7h-4.95v-11.9Z"/>
      <path class="cls-2" d="M214.94,36.17h2.75c1.87,0,2.79,1.04,2.79,2.94v1.17c0,1.9-.92,2.94-2.79,2.94h-.88v4.84h-1.87v-11.9Zm2.75,5.35c.59,0,.92-.27,.92-1.12v-1.41c0-.85-.32-1.12-.92-1.12h-.88v3.65h.88Z"/>
      <path class="cls-2" d="M222.01,36.17h2.77c1.94,0,2.77,.9,2.77,2.74v.73c0,1.22-.39,2.01-1.22,2.35v.03c.94,.29,1.24,1.17,1.24,2.52v2.09c0,.58,.02,1,.2,1.44h-1.9c-.1-.31-.17-.49-.17-1.46v-2.18c0-1.1-.32-1.46-1.17-1.46h-.65v5.1h-1.87v-11.9Zm2.55,5.1c.7,0,1.12-.31,1.12-1.26v-.92c0-.85-.29-1.22-.95-1.22h-.85v3.4h.68Z"/>
      <path class="cls-2" d="M229.24,45.25v-6.26c0-1.9,1-2.99,2.84-2.99s2.84,1.09,2.84,2.99v6.26c0,1.9-1,2.99-2.84,2.99s-2.84-1.09-2.84-2.99Zm3.81,.12v-6.49c0-.85-.37-1.17-.97-1.17s-.97,.32-.97,1.17v6.49c0,.85,.37,1.17,.97,1.17s.97-.32,.97-1.17Z"/>
      <path class="cls-2" d="M238.07,37.88h-1.95v-1.7h5.78v1.7h-1.95v10.2h-1.87v-10.2Z"/>
      <path class="cls-2" d="M243.31,36.17h5.1v1.7h-3.23v3.14h2.57v1.7h-2.57v3.65h3.23v1.7h-5.1v-11.9Z"/>
      <path class="cls-2" d="M249.87,45.32v-6.39c0-1.84,.95-2.92,2.75-2.92s2.75,1.09,2.75,2.92v1.26h-1.77v-1.38c0-.78-.37-1.1-.94-1.1s-.93,.32-.93,1.1v6.65c0,.78,.37,1.09,.93,1.09s.94-.31,.94-1.09v-1.82h1.77v1.68c0,1.84-.95,2.92-2.75,2.92s-2.75-1.09-2.75-2.92Z"/>
      <path class="cls-2" d="M258.47,37.88h-1.95v-1.7h5.78v1.7h-1.95v10.2h-1.87v-10.2Z"/>
      <path class="cls-2" d="M263.71,36.17h1.87v11.9h-1.87v-11.9Z"/>
      <path class="cls-2" d="M267.35,45.25v-6.26c0-1.9,1-2.99,2.84-2.99s2.84,1.09,2.84,2.99v6.26c0,1.9-1,2.99-2.84,2.99s-2.84-1.09-2.84-2.99Zm3.81,.12v-6.49c0-.85-.37-1.17-.97-1.17s-.97,.32-.97,1.17v6.49c0,.85,.37,1.17,.97,1.17s.97-.32,.97-1.17Z"/>
      <path class="cls-2" d="M274.79,36.17h2.35l1.82,7.12h.03v-7.12h1.67v11.9h-1.92l-2.24-8.69h-.03v8.69h-1.67v-11.9Z"/>
    </g>
    <line id="line" class="cls-4" x1="160.17" y1="36.58" x2="168.56" y2="36.58"/>
    <line id="line-2" data-name="line" class="cls-4" x1="160.17" y1="47.79" x2="168.56" y2="47.79"/>
    <rect class="cls-2" x="103.33" y="76.95" width="120.88" height="13.08"/>
    <g>
      <path class="cls-1" d="M107.23,79.94h1.1v7h-1.1v-7Z"/>
      <path class="cls-1" d="M109.65,79.94h1.38l1.07,4.19h.02v-4.19h.98v7h-1.13l-1.32-5.11h-.02v5.11h-.98v-7Z"/>
      <path class="cls-1" d="M116.52,79.94h1.1v6h1.81v1h-2.91v-7Z"/>
      <path class="cls-1" d="M120.34,85.28v-3.68c0-1.12,.59-1.76,1.67-1.76s1.67,.64,1.67,1.76v3.68c0,1.12-.59,1.76-1.67,1.76s-1.67-.64-1.67-1.76Zm2.24,.07v-3.82c0-.5-.22-.69-.57-.69s-.57,.19-.57,.69v3.82c0,.5,.22,.69,.57,.69s.57-.19,.57-.69Z"/>
      <path class="cls-1" d="M124.66,79.94h1.06l.49,5.38h.02l.52-5.38h1.2l.52,5.38h.02l.49-5.38h.95l-.71,7h-1.37l-.5-4.72h-.02l-.5,4.72h-1.46l-.71-7Z"/>
      <path class="cls-1" d="M130.75,82.94h2.2v1h-2.2v-1Z"/>
      <path class="cls-1" d="M134.11,79.94h1.1v7h-1.1v-7Z"/>
      <path class="cls-1" d="M136.53,79.94h1.38l1.07,4.19h.02v-4.19h.98v7h-1.13l-1.32-5.11h-.02v5.11h-.98v-7Z"/>
      <path class="cls-1" d="M141.23,85.32v-3.76c0-1.08,.56-1.72,1.62-1.72s1.62,.64,1.62,1.72v.74h-1.04v-.81c0-.46-.22-.65-.55-.65s-.55,.19-.55,.65v3.91c0,.46,.22,.64,.55,.64s.55-.18,.55-.64v-1.07h1.04v.99c0,1.08-.56,1.72-1.62,1.72s-1.62-.64-1.62-1.72Z"/>
      <path class="cls-1" d="M145.57,85.28v-3.68c0-1.12,.59-1.76,1.67-1.76s1.67,.64,1.67,1.76v3.68c0,1.12-.59,1.76-1.67,1.76s-1.67-.64-1.67-1.76Zm2.24,.07v-3.82c0-.5-.22-.69-.57-.69s-.57,.19-.57,.69v3.82c0,.5,.22,.69,.57,.69s.57-.19,.57-.69Z"/>
      <path class="cls-1" d="M150.15,79.94h1.57l.7,5.01h.02l.7-5.01h1.57v7h-1.04v-5.3h-.02l-.8,5.3h-.92l-.8-5.3h-.02v5.3h-.96v-7Z"/>
      <path class="cls-1" d="M156.03,79.94h3v1h-1.9v1.85h1.51v1h-1.51v2.15h1.9v1h-3v-7Z"/>
      <path class="cls-1" d="M162.19,85.32v-3.76c0-1.08,.56-1.72,1.62-1.72s1.62,.64,1.62,1.72v.74h-1.04v-.81c0-.46-.22-.65-.55-.65s-.55,.19-.55,.65v3.91c0,.46,.22,.64,.55,.64s.55-.18,.55-.64v-1.07h1.04v.99c0,1.08-.56,1.72-1.62,1.72s-1.62-.64-1.62-1.72Z"/>
      <path class="cls-1" d="M166.53,85.28v-3.68c0-1.12,.59-1.76,1.67-1.76s1.67,.64,1.67,1.76v3.68c0,1.12-.59,1.76-1.67,1.76s-1.67-.64-1.67-1.76Zm2.24,.07v-3.82c0-.5-.22-.69-.57-.69s-.57,.19-.57,.69v3.82c0,.5,.22,.69,.57,.69s.57-.19,.57-.69Z"/>
      <path class="cls-1" d="M171.07,85.28v-5.34h1.1v5.42c0,.5,.21,.68,.56,.68s.56-.18,.56-.68v-5.42h1.06v5.34c0,1.12-.56,1.76-1.64,1.76s-1.64-.64-1.64-1.76Z"/>
      <path class="cls-1" d="M175.63,79.94h1.38l1.07,4.19h.02v-4.19h.98v7h-1.13l-1.32-5.11h-.02v5.11h-.98v-7Z"/>
      <path class="cls-1" d="M181.26,80.94h-1.15v-1h3.4v1h-1.15v6h-1.1v-6Z"/>
      <path class="cls-1" d="M184.54,79.94h1.63c1.14,0,1.63,.53,1.63,1.61v.43c0,.72-.23,1.18-.72,1.38v.02c.55,.17,.73,.69,.73,1.48v1.23c0,.34,0,.59,.12,.85h-1.12c-.06-.18-.1-.29-.1-.86v-1.28c0-.65-.19-.86-.69-.86h-.38v3h-1.1v-7Zm1.5,3c.41,0,.66-.18,.66-.74v-.54c0-.5-.17-.72-.56-.72h-.5v2h.4Z"/>
      <path class="cls-1" d="M189.07,79.94h1.1v7h-1.1v-7Z"/>
      <path class="cls-1" d="M191.49,79.94h3v1h-1.9v1.85h1.51v1h-1.51v2.15h1.9v1h-3v-7Z"/>
      <path class="cls-1" d="M195.45,85.28v-.4h1.04v.48c0,.5,.22,.68,.57,.68s.57-.18,.57-.7c0-.58-.22-.95-.94-1.58-.92-.81-1.22-1.38-1.22-2.18,0-1.1,.57-1.74,1.64-1.74s1.6,.64,1.6,1.76v.29h-1.04v-.36c0-.5-.2-.69-.55-.69s-.55,.19-.55,.67c0,.51,.23,.88,.95,1.51,.92,.81,1.21,1.37,1.21,2.24,0,1.14-.58,1.78-1.66,1.78s-1.62-.64-1.62-1.76Z"/>
      <path class="cls-1" d="M200.22,86.94h-.36v-1.06h1.06v.95l-.55,1.31h-.51l.36-1.2Z"/>
      <path class="cls-1" d="M204.26,85.28v-3.68c0-1.12,.59-1.76,1.67-1.76s1.67,.64,1.67,1.76v3.68c0,1.12-.59,1.76-1.67,1.76s-1.67-.64-1.67-1.76Zm2.24,.07v-3.82c0-.5-.22-.69-.57-.69s-.57,.19-.57,.69v3.82c0,.5,.22,.69,.57,.69s.57-.19,.57-.69Z"/>
      <path class="cls-1" d="M208.84,79.94h1.38l1.07,4.19h.02v-4.19h.98v7h-1.13l-1.32-5.11h-.02v5.11h-.98v-7Z"/>
      <path class="cls-1" d="M213.61,79.94h1.1v6h1.81v1h-2.91v-7Z"/>
      <path class="cls-1" d="M217.68,83.96l-1.33-4.02h1.17l.75,2.57h.02l.75-2.57h1.07l-1.33,4.02v2.98h-1.1v-2.98Z"/>
    </g>
    <g>
      <g>
        <path class="cls-12" d="M46.47,128.18c4.19-15.32,19.07-25.17,34.8-23.06,15.74,2.11,27.49,15.54,27.49,31.42h-15.85c0-7.94-5.87-14.66-13.74-15.71-7.87-1.06-15.31,3.87-17.4,11.53l-15.29-4.18Z"/>
        <g>
          <path class="cls-14" d="M70.08,136.57c-1.33,0-2.06-.77-2.06-2.11v-.66c0-.8,.24-1.43,.82-1.75-.55-.3-.82-.86-.82-1.69v-.26c0-1.34,.73-2.11,2.06-2.11s2.06,.77,2.06,2.11v.26c0,.83-.28,1.39-.82,1.69,.58,.32,.82,.95,.82,1.75v.66c0,1.34-.73,2.11-2.06,2.11Zm-.74-5.96c0,.67,.31,.89,.74,.89s.74-.22,.74-.89v-.47c0-.76-.32-.96-.74-.96s-.74,.2-.74,.96v.47Zm.74,4.76c.42,0,.73-.2,.74-.95v-.78c0-.66-.28-.95-.74-.95s-.74,.29-.74,.95v.78c0,.74,.32,.95,.74,.95Z"/>
          <path class="cls-14" d="M74.4,135.2v1.27h-1.27v-1.27h1.27Z"/>
          <path class="cls-14" d="M76.68,133.76v.78c0,.6,.26,.82,.68,.82s.68-.22,.68-.82v-1.85c0-.6-.26-.83-.68-.83s-.68,.23-.68,.83v.25h-1.25l.24-4.87h3.48v1.2h-2.29l-.11,2c.24-.4,.62-.61,1.15-.61,.97,0,1.46,.68,1.46,1.92v1.87c0,1.34-.67,2.11-1.97,2.11s-1.97-.77-1.97-2.11v-.7h1.25Z"/>
          <path class="cls-14" d="M80.38,129.36c0-.86,.44-1.34,1.27-1.34s1.27,.48,1.27,1.34v2.76c0,.86-.44,1.34-1.27,1.34s-1.27-.48-1.27-1.34v-2.76Zm.84,2.82c0,.37,.16,.53,.43,.53s.43-.16,.43-.53v-2.88c0-.37-.17-.53-.43-.53s-.43,.16-.43,.53v2.88Zm3.74-4.1h.78l-3.31,8.4h-.78l3.31-8.4Zm-.42,4.35c0-.86,.44-1.34,1.27-1.34s1.27,.48,1.27,1.34v2.76c0,.86-.44,1.34-1.27,1.34s-1.27-.48-1.27-1.34v-2.76Zm.84,2.82c0,.37,.16,.53,.43,.53s.43-.16,.43-.53v-2.88c0-.37-.17-.53-.43-.53s-.43,.16-.43,.53v2.88Z"/>
        </g>
        <g id="Element_1">
          <path class="cls-14" d="M45.35,136.55h0c0-2.83,.38-5.64,1.12-8.37l15.29,4.18c-.37,1.36-.56,2.77-.56,4.18h-15.85Z"/>
        </g>
        <g class="cls-13">
          <g>
            <line class="cls-5" x1="152.22" y1="125.13" x2="77.41" y2="51.43"/>
            <line class="cls-5" x1="150.95" y1="126.46" x2="76.14" y2="52.76"/>
            <line class="cls-5" x1="149.69" y1="127.78" x2="74.87" y2="54.08"/>
            <line class="cls-5" x1="148.42" y1="129.11" x2="73.61" y2="55.41"/>
            <line class="cls-5" x1="147.15" y1="130.44" x2="72.34" y2="56.74"/>
            <line class="cls-5" x1="145.89" y1="131.76" x2="71.08" y2="58.06"/>
            <line class="cls-5" x1="144.62" y1="133.09" x2="69.81" y2="59.39"/>
            <line class="cls-5" x1="143.35" y1="134.42" x2="68.54" y2="60.72"/>
            <line class="cls-5" x1="142.09" y1="135.74" x2="67.28" y2="62.04"/>
            <line class="cls-5" x1="140.82" y1="137.07" x2="66.01" y2="63.37"/>
            <line class="cls-5" x1="139.55" y1="138.4" x2="64.74" y2="64.7"/>
            <line class="cls-5" x1="138.29" y1="139.72" x2="63.48" y2="66.02"/>
            <line class="cls-5" x1="137.02" y1="141.05" x2="62.21" y2="67.35"/>
            <line class="cls-5" x1="135.76" y1="142.38" x2="60.94" y2="68.68"/>
            <line class="cls-5" x1="134.49" y1="143.7" x2="59.68" y2="70"/>
            <line class="cls-5" x1="133.22" y1="145.03" x2="58.41" y2="71.33"/>
            <line class="cls-5" x1="131.96" y1="146.36" x2="57.14" y2="72.66"/>
            <line class="cls-5" x1="130.69" y1="147.68" x2="55.88" y2="73.98"/>
            <line class="cls-5" x1="129.42" y1="149.01" x2="54.61" y2="75.31"/>
            <line class="cls-5" x1="128.16" y1="150.34" x2="53.34" y2="76.64"/>
            <line class="cls-5" x1="126.89" y1="151.66" x2="52.08" y2="77.96"/>
            <line class="cls-5" x1="125.62" y1="152.99" x2="50.81" y2="79.29"/>
            <line class="cls-5" x1="124.36" y1="154.32" x2="49.54" y2="80.62"/>
            <line class="cls-5" x1="123.09" y1="155.64" x2="48.28" y2="81.94"/>
            <line class="cls-5" x1="121.82" y1="156.97" x2="47.01" y2="83.27"/>
            <line class="cls-5" x1="120.56" y1="158.3" x2="45.74" y2="84.6"/>
            <line class="cls-5" x1="119.29" y1="159.62" x2="44.48" y2="85.92"/>
            <line class="cls-5" x1="118.02" y1="160.95" x2="43.21" y2="87.25"/>
            <line class="cls-5" x1="116.76" y1="162.28" x2="41.95" y2="88.58"/>
            <line class="cls-5" x1="115.49" y1="163.6" x2="40.68" y2="89.9"/>
            <line class="cls-5" x1="114.22" y1="164.93" x2="39.41" y2="91.23"/>
            <line class="cls-5" x1="112.96" y1="166.26" x2="38.15" y2="92.56"/>
            <line class="cls-5" x1="111.69" y1="167.58" x2="36.88" y2="93.88"/>
            <line class="cls-5" x1="110.43" y1="168.91" x2="35.61" y2="95.21"/>
            <line class="cls-5" x1="109.16" y1="170.24" x2="34.35" y2="96.54"/>
            <line class="cls-5" x1="107.89" y1="171.57" x2="33.08" y2="97.86"/>
            <line class="cls-5" x1="106.63" y1="172.89" x2="31.81" y2="99.19"/>
            <line class="cls-5" x1="105.36" y1="174.22" x2="30.55" y2="100.52"/>
            <line class="cls-5" x1="104.09" y1="175.55" x2="29.28" y2="101.84"/>
            <line class="cls-5" x1="102.83" y1="176.87" x2="28.01" y2="103.17"/>
            <line class="cls-5" x1="101.56" y1="178.2" x2="26.75" y2="104.5"/>
            <line class="cls-5" x1="100.29" y1="179.53" x2="25.48" y2="105.82"/>
            <line class="cls-5" x1="99.03" y1="180.85" x2="24.21" y2="107.15"/>
            <line class="cls-5" x1="97.76" y1="182.18" x2="22.95" y2="108.48"/>
            <line class="cls-5" x1="96.49" y1="183.51" x2="21.68" y2="109.8"/>
            <line class="cls-5" x1="95.23" y1="184.83" x2="20.41" y2="111.13"/>
            <line class="cls-5" x1="93.96" y1="186.16" x2="19.15" y2="112.46"/>
            <line class="cls-5" x1="92.69" y1="187.49" x2="17.88" y2="113.78"/>
            <line class="cls-5" x1="91.43" y1="188.81" x2="16.61" y2="115.11"/>
            <line class="cls-5" x1="90.16" y1="190.14" x2="15.35" y2="116.44"/>
            <line class="cls-5" x1="88.89" y1="191.47" x2="14.08" y2="117.76"/>
            <line class="cls-5" x1="87.63" y1="192.79" x2="12.82" y2="119.09"/>
            <line class="cls-5" x1="86.36" y1="194.12" x2="11.55" y2="120.42"/>
            <line class="cls-5" x1="85.1" y1="195.45" x2="10.28" y2="121.74"/>
            <line class="cls-5" x1="83.83" y1="196.77" x2="9.02" y2="123.07"/>
            <line class="cls-5" x1="82.56" y1="198.1" x2="7.75" y2="124.4"/>
            <line class="cls-5" x1="81.3" y1="199.43" x2="6.48" y2="125.72"/>
            <line class="cls-5" x1="80.03" y1="200.75" x2="5.22" y2="127.05"/>
            <line class="cls-5" x1="78.76" y1="202.08" x2="3.95" y2="128.38"/>
            <line class="cls-5" x1="77.5" y1="203.41" x2="2.68" y2="129.7"/>
            <line class="cls-5" x1="76.23" y1="204.73" x2="1.42" y2="131.03"/>
            <line class="cls-5" x1="74.96" y1="206.06" x2=".15" y2="132.36"/>
          </g>
        </g>
      </g>
      <line class="cls-3" x1="39.62" y1="140.28" x2="114.49" y2="140.28"/>
      <g>
        <path class="cls-2" d="M56.52,152.47v-3.68c0-1.12,.59-1.76,1.67-1.76s1.67,.64,1.67,1.76v3.68c0,1.12-.59,1.76-1.67,1.76s-1.67-.64-1.67-1.76Zm2.24,.07v-3.82c0-.5-.22-.69-.57-.69s-.57,.19-.57,.69v3.82c0,.5,.22,.69,.57,.69s.57-.19,.57-.69Z"/>
        <path class="cls-2" d="M60.9,147.13h2.91v1h-1.81v1.95h1.42v1h-1.42v3.05h-1.1v-7Z"/>
        <path class="cls-2" d="M66.47,152.51v-3.76c0-1.08,.56-1.72,1.62-1.72s1.62,.64,1.62,1.72v.74h-1.04v-.81c0-.46-.22-.65-.55-.65s-.55,.19-.55,.65v3.91c0,.46,.22,.64,.55,.64s.55-.18,.55-.64v-1.07h1.04v.99c0,1.08-.56,1.72-1.62,1.72s-1.62-.64-1.62-1.72Z"/>
        <path class="cls-2" d="M70.67,147.13h1.1v2.85h1.18v-2.85h1.1v7h-1.1v-3.15h-1.18v3.15h-1.1v-7Z"/>
        <path class="cls-2" d="M75.17,147.13h1.1v7h-1.1v-7Z"/>
        <path class="cls-2" d="M77.39,147.13h1.1v6h1.81v1h-2.91v-7Z"/>
        <path class="cls-2" d="M81.13,147.13h1.68c1.1,0,1.64,.61,1.64,1.73v3.54c0,1.12-.54,1.73-1.64,1.73h-1.68v-7Zm1.66,6c.35,0,.56-.18,.56-.68v-3.64c0-.5-.21-.68-.56-.68h-.56v5h.56Z"/>
        <path class="cls-2" d="M85.49,147.13h1.63c1.14,0,1.63,.53,1.63,1.61v.43c0,.72-.23,1.18-.72,1.38v.02c.55,.17,.73,.69,.73,1.48v1.23c0,.34,.01,.59,.12,.85h-1.12c-.06-.18-.1-.29-.1-.86v-1.28c0-.65-.19-.86-.69-.86h-.38v3h-1.1v-7Zm1.5,3c.41,0,.66-.18,.66-.74v-.54c0-.5-.17-.72-.56-.72h-.5v2h.4Z"/>
        <path class="cls-2" d="M89.82,147.13h3v1h-1.9v1.85h1.51v1h-1.51v2.15h1.9v1h-3v-7Z"/>
        <path class="cls-2" d="M93.75,147.13h1.38l1.07,4.19h.02v-4.19h.98v7h-1.13l-1.32-5.11h-.02v5.11h-.98v-7Z"/>
      </g>
    </g>
    <g>
      <g>
        <path class="cls-12" d="M132.36,128.86c3.88-15.52,18.73-25.71,34.6-23.76,15.88,1.96,27.81,15.44,27.81,31.44h-15.84c0-8-5.96-14.74-13.9-15.72-7.94-.98-15.36,4.12-17.3,11.88l-15.37-3.84Z"/>
        <g>
          <path class="cls-14" d="M158.42,128.08v1.15l-1.94,7.24h-1.32l1.93-7.2h-2.63v-1.2h3.96Z"/>
          <path class="cls-14" d="M159.98,135.2v1.27h-1.27v-1.27h1.27Z"/>
          <path class="cls-14" d="M163.02,136.57c-1.33,0-2.06-.77-2.06-2.11v-.66c0-.8,.24-1.43,.82-1.75-.55-.3-.82-.86-.82-1.69v-.26c0-1.34,.73-2.11,2.06-2.11s2.06,.77,2.06,2.11v.26c0,.83-.28,1.39-.82,1.69,.58,.32,.82,.95,.82,1.75v.66c0,1.34-.73,2.11-2.06,2.11Zm-.74-5.96c0,.67,.31,.89,.74,.89s.74-.22,.74-.89v-.47c0-.76-.32-.96-.74-.96s-.74,.2-.74,.96v.47Zm.74,4.76c.42,0,.73-.2,.74-.95v-.78c0-.66-.28-.95-.74-.95s-.74,.29-.74,.95v.78c0,.74,.32,.95,.74,.95Z"/>
          <path class="cls-14" d="M166.06,129.36c0-.86,.44-1.34,1.27-1.34s1.27,.48,1.27,1.34v2.76c0,.86-.44,1.34-1.27,1.34s-1.27-.48-1.27-1.34v-2.76Zm.84,2.82c0,.37,.16,.53,.43,.53s.43-.16,.43-.53v-2.88c0-.37-.17-.53-.43-.53s-.43,.16-.43,.53v2.88Zm3.74-4.1h.78l-3.31,8.4h-.78l3.31-8.4Zm-.42,4.35c0-.86,.44-1.34,1.27-1.34s1.27,.48,1.27,1.34v2.76c0,.86-.44,1.34-1.27,1.34s-1.27-.48-1.27-1.34v-2.76Zm.84,2.82c0,.37,.16,.53,.43,.53s.43-.16,.43-.53v-2.88c0-.37-.17-.53-.43-.53s-.43,.16-.43,.53v2.88Z"/>
        </g>
        <g id="Element_1_copy1">
          <path class="cls-14" d="M131.41,136.55h0c0-2.59,.32-5.17,.95-7.69l15.37,3.84c-.31,1.26-.47,2.55-.47,3.84h-15.84Z"/>
        </g>
        <g class="cls-10">
          <g>
            <line class="cls-5" x1="246.07" y1="132.48" x2="171.25" y2="58.78"/>
            <line class="cls-5" x1="244.8" y1="133.81" x2="169.99" y2="60.11"/>
            <line class="cls-5" x1="243.53" y1="135.13" x2="168.72" y2="61.43"/>
            <line class="cls-5" x1="242.27" y1="136.46" x2="167.45" y2="62.76"/>
            <line class="cls-5" x1="241" y1="137.79" x2="166.19" y2="64.09"/>
            <line class="cls-5" x1="239.73" y1="139.11" x2="164.92" y2="65.41"/>
            <line class="cls-5" x1="238.47" y1="140.44" x2="163.65" y2="66.74"/>
            <line class="cls-5" x1="237.2" y1="141.77" x2="162.39" y2="68.07"/>
            <line class="cls-5" x1="235.93" y1="143.09" x2="161.12" y2="69.39"/>
            <line class="cls-5" x1="234.67" y1="144.42" x2="159.86" y2="70.72"/>
            <line class="cls-5" x1="233.4" y1="145.75" x2="158.59" y2="72.05"/>
            <line class="cls-5" x1="232.13" y1="147.07" x2="157.32" y2="73.37"/>
            <line class="cls-5" x1="230.87" y1="148.4" x2="156.06" y2="74.7"/>
            <line class="cls-5" x1="229.6" y1="149.73" x2="154.79" y2="76.03"/>
            <line class="cls-5" x1="228.33" y1="151.05" x2="153.52" y2="77.35"/>
            <line class="cls-5" x1="227.07" y1="152.38" x2="152.26" y2="78.68"/>
            <line class="cls-5" x1="225.8" y1="153.71" x2="150.99" y2="80.01"/>
            <line class="cls-5" x1="224.54" y1="155.03" x2="149.72" y2="81.33"/>
            <line class="cls-5" x1="223.27" y1="156.36" x2="148.46" y2="82.66"/>
            <line class="cls-5" x1="222" y1="157.69" x2="147.19" y2="83.99"/>
            <line class="cls-5" x1="220.74" y1="159.01" x2="145.92" y2="85.31"/>
            <line class="cls-5" x1="219.47" y1="160.34" x2="144.66" y2="86.64"/>
            <line class="cls-5" x1="218.2" y1="161.67" x2="143.39" y2="87.97"/>
            <line class="cls-5" x1="216.94" y1="162.99" x2="142.12" y2="89.29"/>
            <line class="cls-5" x1="215.67" y1="164.32" x2="140.86" y2="90.62"/>
            <line class="cls-5" x1="214.4" y1="165.65" x2="139.59" y2="91.95"/>
            <line class="cls-5" x1="213.14" y1="166.97" x2="138.32" y2="93.27"/>
            <line class="cls-5" x1="211.87" y1="168.3" x2="137.06" y2="94.6"/>
            <line class="cls-5" x1="210.6" y1="169.63" x2="135.79" y2="95.93"/>
            <line class="cls-5" x1="209.34" y1="170.95" x2="134.52" y2="97.25"/>
            <line class="cls-5" x1="208.07" y1="172.28" x2="133.26" y2="98.58"/>
            <line class="cls-5" x1="206.8" y1="173.61" x2="131.99" y2="99.91"/>
            <line class="cls-5" x1="205.54" y1="174.93" x2="130.73" y2="101.23"/>
            <line class="cls-5" x1="204.27" y1="176.26" x2="129.46" y2="102.56"/>
            <line class="cls-5" x1="203" y1="177.59" x2="128.19" y2="103.89"/>
            <line class="cls-5" x1="201.74" y1="178.91" x2="126.93" y2="105.21"/>
            <line class="cls-5" x1="200.47" y1="180.24" x2="125.66" y2="106.54"/>
            <line class="cls-5" x1="199.21" y1="181.57" x2="124.39" y2="107.87"/>
            <line class="cls-5" x1="197.94" y1="182.89" x2="123.13" y2="109.19"/>
            <line class="cls-5" x1="196.67" y1="184.22" x2="121.86" y2="110.52"/>
            <line class="cls-5" x1="195.41" y1="185.55" x2="120.59" y2="111.85"/>
            <line class="cls-5" x1="194.14" y1="186.87" x2="119.33" y2="113.17"/>
            <line class="cls-5" x1="192.87" y1="188.2" x2="118.06" y2="114.5"/>
            <line class="cls-5" x1="191.61" y1="189.53" x2="116.79" y2="115.83"/>
            <line class="cls-5" x1="190.34" y1="190.85" x2="115.53" y2="117.15"/>
            <line class="cls-5" x1="189.07" y1="192.18" x2="114.26" y2="118.48"/>
            <line class="cls-5" x1="187.81" y1="193.51" x2="112.99" y2="119.81"/>
            <line class="cls-5" x1="186.54" y1="194.83" x2="111.73" y2="121.13"/>
            <line class="cls-5" x1="185.27" y1="196.16" x2="110.46" y2="122.46"/>
            <line class="cls-5" x1="184.01" y1="197.49" x2="109.19" y2="123.79"/>
            <line class="cls-5" x1="182.74" y1="198.81" x2="107.93" y2="125.11"/>
            <line class="cls-5" x1="181.47" y1="200.14" x2="106.66" y2="126.44"/>
            <line class="cls-5" x1="180.21" y1="201.47" x2="105.39" y2="127.77"/>
            <line class="cls-5" x1="178.94" y1="202.8" x2="104.13" y2="129.09"/>
            <line class="cls-5" x1="177.67" y1="204.12" x2="102.86" y2="130.42"/>
            <line class="cls-5" x1="176.41" y1="205.45" x2="101.6" y2="131.75"/>
            <line class="cls-5" x1="175.14" y1="206.78" x2="100.33" y2="133.07"/>
            <line class="cls-5" x1="173.88" y1="208.1" x2="99.06" y2="134.4"/>
            <line class="cls-5" x1="172.61" y1="209.43" x2="97.8" y2="135.73"/>
            <line class="cls-5" x1="171.34" y1="210.76" x2="96.53" y2="137.05"/>
            <line class="cls-5" x1="170.08" y1="212.08" x2="95.26" y2="138.38"/>
            <line class="cls-5" x1="168.81" y1="213.41" x2="94" y2="139.71"/>
          </g>
        </g>
      </g>
      <line class="cls-3" x1="125.66" y1="140.28" x2="200.52" y2="140.28"/>
      <g>
        <path class="cls-2" d="M137.79,152.47v-3.68c0-1.12,.59-1.76,1.67-1.76s1.67,.64,1.67,1.76v3.68c0,1.12-.59,1.76-1.67,1.76s-1.67-.64-1.67-1.76Zm2.24,.07v-3.82c0-.5-.22-.69-.57-.69s-.57,.19-.57,.69v3.82c0,.5,.22,.69,.57,.69s.57-.19,.57-.69Z"/>
        <path class="cls-2" d="M142.17,147.13h2.91v1h-1.81v1.95h1.42v1h-1.42v3.05h-1.1v-7Z"/>
        <path class="cls-2" d="M147.52,147.13h1.11l.72,5.43h.02l.72-5.43h1.01l-1.06,7h-1.46l-1.06-7Z"/>
        <path class="cls-2" d="M151.89,152.47v-5.34h1.1v5.42c0,.5,.21,.68,.56,.68s.56-.18,.56-.68v-5.42h1.06v5.34c0,1.12-.56,1.76-1.64,1.76s-1.64-.64-1.64-1.76Z"/>
        <path class="cls-2" d="M156.25,147.13h1.1v6h1.81v1h-2.91v-7Z"/>
        <path class="cls-2" d="M159.99,147.13h1.38l1.07,4.19h.02v-4.19h.98v7h-1.13l-1.32-5.11h-.02v5.11h-.98v-7Z"/>
        <path class="cls-2" d="M164.56,147.13h3v1h-1.9v1.85h1.51v1h-1.51v2.15h1.9v1h-3v-7Z"/>
        <path class="cls-2" d="M168.49,147.13h1.63c1.14,0,1.63,.53,1.63,1.61v.43c0,.72-.23,1.18-.72,1.38v.02c.55,.17,.73,.69,.73,1.48v1.23c0,.34,.01,.59,.12,.85h-1.12c-.06-.18-.1-.29-.1-.86v-1.28c0-.65-.19-.86-.69-.86h-.38v3h-1.1v-7Zm1.5,3c.41,0,.66-.18,.66-.74v-.54c0-.5-.17-.72-.56-.72h-.5v2h.4Z"/>
        <path class="cls-2" d="M173.67,147.13h1.49l1.14,7h-1.1l-.2-1.39v.02h-1.25l-.2,1.37h-1.02l1.14-7Zm1.2,4.68l-.49-3.46h-.02l-.48,3.46h.99Z"/>
        <path class="cls-2" d="M177.13,147.13h1.66c1.14,0,1.63,.53,1.63,1.61v.28c0,.72-.22,1.17-.71,1.37v.02c.59,.2,.82,.72,.82,1.46v.6c0,1.08-.57,1.66-1.67,1.66h-1.73v-7Zm1.53,2.85c.41,0,.66-.18,.66-.74v-.39c0-.5-.17-.72-.56-.72h-.53v1.85h.43Zm.2,3.15c.37,0,.57-.17,.57-.69v-.61c0-.65-.21-.85-.71-.85h-.49v2.15h.63Z"/>
        <path class="cls-2" d="M181.47,147.13h1.1v6h1.81v1h-2.91v-7Z"/>
        <path class="cls-2" d="M185.21,147.13h3v1h-1.9v1.85h1.51v1h-1.51v2.15h1.9v1h-3v-7Z"/>
        <path class="cls-2" d="M151.39,159.13h1.62c1.1,0,1.64,.61,1.64,1.73v.69c0,1.12-.54,1.73-1.64,1.73h-.52v2.85h-1.1v-7Zm1.62,3.15c.35,0,.54-.16,.54-.66v-.83c0-.5-.19-.66-.54-.66h-.52v2.15h.52Z"/>
        <path class="cls-2" d="M155.55,159.13h3v1h-1.9v1.85h1.51v1h-1.51v2.15h1.9v1h-3v-7Z"/>
        <path class="cls-2" d="M159.4,164.47v-3.68c0-1.12,.59-1.76,1.67-1.76s1.67,.64,1.67,1.76v3.68c0,1.12-.59,1.76-1.67,1.76s-1.67-.64-1.67-1.76Zm2.24,.07v-3.82c0-.5-.22-.69-.57-.69s-.57,.19-.57,.69v3.82c0,.5,.22,.69,.57,.69s.57-.19,.57-.69Z"/>
        <path class="cls-2" d="M163.78,159.13h1.62c1.1,0,1.64,.61,1.64,1.73v.69c0,1.12-.54,1.73-1.64,1.73h-.52v2.85h-1.1v-7Zm1.62,3.15c.35,0,.54-.16,.54-.66v-.83c0-.5-.19-.66-.54-.66h-.52v2.15h.52Z"/>
        <path class="cls-2" d="M167.94,159.13h1.1v6h1.81v1h-2.91v-7Z"/>
        <path class="cls-2" d="M171.68,159.13h3v1h-1.9v1.85h1.51v1h-1.51v2.15h1.9v1h-3v-7Z"/>
      </g>
    </g>
    <g>
      <g>
        <path class="cls-12" d="M224.65,114.71c9.07-10.16,23.46-13.66,36.18-8.81,12.72,4.85,21.13,17.05,21.13,30.67h-16.41c0-6.81-4.2-12.91-10.56-15.33-6.36-2.43-13.56-.67-18.09,4.4l-12.24-10.93Z"/>
        <g>
          <path class="cls-14" d="M239.66,129.18c-.42,0-.68,.23-.68,.83v.9h-1.25v-.82c0-1.34,.67-2.11,1.97-2.11s1.97,.77,1.97,2.11c0,2.64-2.63,3.62-2.63,5,0,.06,0,.12,.01,.18h2.49v1.2h-3.81v-1.03c0-2.47,2.61-2.88,2.61-5.3,0-.76-.26-.96-.68-.96Z"/>
          <path class="cls-14" d="M245.26,130.14c0-.76-.26-.96-.68-.96s-.68,.23-.68,.83v.54h-1.25v-.46c0-1.34,.67-2.11,1.97-2.11s1.97,.77,1.97,2.11v.22c0,.9-.29,1.46-.92,1.73,.66,.29,.92,.91,.92,1.76v.66c0,1.34-.67,2.11-1.97,2.11s-1.97-.77-1.97-2.11v-.7h1.25v.78c0,.6,.26,.83,.68,.83s.68-.2,.68-.95v-.66c0-.78-.26-1.07-.86-1.07h-.44v-1.2h.52c.49,0,.79-.22,.79-.89v-.47Z"/>
          <path class="cls-14" d="M248.89,135.2v1.27h-1.27v-1.27h1.27Z"/>
          <path class="cls-14" d="M251.93,129.18c-.42,0-.68,.23-.68,.83v.9h-1.25v-.82c0-1.34,.67-2.11,1.97-2.11s1.97,.77,1.97,2.11c0,2.64-2.63,3.62-2.63,5,0,.06,0,.12,.01,.18h2.49v1.2h-3.81v-1.03c0-2.47,2.61-2.88,2.61-5.3,0-.76-.26-.96-.68-.96Z"/>
          <path class="cls-14" d="M254.92,129.36c0-.86,.44-1.34,1.27-1.34s1.27,.48,1.27,1.34v2.76c0,.86-.44,1.34-1.27,1.34s-1.27-.48-1.27-1.34v-2.76Zm.84,2.82c0,.37,.16,.53,.43,.53s.43-.16,.43-.53v-2.88c0-.37-.17-.53-.43-.53s-.43,.16-.43,.53v2.88Zm3.74-4.1h.78l-3.31,8.4h-.78l3.31-8.4Zm-.42,4.35c0-.86,.44-1.34,1.27-1.34s1.27,.48,1.27,1.34v2.76c0,.86-.44,1.34-1.27,1.34s-1.27-.48-1.27-1.34v-2.76Zm.84,2.82c0,.37,.16,.53,.43,.53s.43-.16,.43-.53v-2.88c0-.37-.17-.53-.43-.53s-.43,.16-.43,.53v2.88Z"/>
        </g>
        <g id="Element_1_copy2">
          <path class="cls-14" d="M216.31,136.58h0c0-8.06,2.97-15.85,8.34-21.86l12.24,10.93c-2.69,3.01-4.17,6.9-4.17,10.93h-16.41Z"/>
        </g>
        <g class="cls-9">
          <g>
            <line class="cls-5" x1="327.59" y1="128.68" x2="252.78" y2="54.98"/>
            <line class="cls-5" x1="326.32" y1="130.01" x2="251.51" y2="56.31"/>
            <line class="cls-5" x1="325.06" y1="131.34" x2="250.24" y2="57.64"/>
            <line class="cls-5" x1="323.79" y1="132.66" x2="248.98" y2="58.96"/>
            <line class="cls-5" x1="322.52" y1="133.99" x2="247.71" y2="60.29"/>
            <line class="cls-5" x1="321.26" y1="135.32" x2="246.44" y2="61.62"/>
            <line class="cls-5" x1="319.99" y1="136.64" x2="245.18" y2="62.94"/>
            <line class="cls-5" x1="318.72" y1="137.97" x2="243.91" y2="64.27"/>
            <line class="cls-5" x1="317.46" y1="139.3" x2="242.64" y2="65.6"/>
            <line class="cls-5" x1="316.19" y1="140.62" x2="241.38" y2="66.92"/>
            <line class="cls-5" x1="314.92" y1="141.95" x2="240.11" y2="68.25"/>
            <line class="cls-5" x1="313.66" y1="143.28" x2="238.84" y2="69.58"/>
            <line class="cls-5" x1="312.39" y1="144.6" x2="237.58" y2="70.9"/>
            <line class="cls-5" x1="311.12" y1="145.93" x2="236.31" y2="72.23"/>
            <line class="cls-5" x1="309.86" y1="147.26" x2="235.05" y2="73.56"/>
            <line class="cls-5" x1="308.59" y1="148.58" x2="233.78" y2="74.88"/>
            <line class="cls-5" x1="307.32" y1="149.91" x2="232.51" y2="76.21"/>
            <line class="cls-5" x1="306.06" y1="151.24" x2="231.25" y2="77.54"/>
            <line class="cls-5" x1="304.79" y1="152.56" x2="229.98" y2="78.86"/>
            <line class="cls-5" x1="303.52" y1="153.89" x2="228.71" y2="80.19"/>
            <line class="cls-5" x1="302.26" y1="155.22" x2="227.45" y2="81.52"/>
            <line class="cls-5" x1="300.99" y1="156.54" x2="226.18" y2="82.84"/>
            <line class="cls-5" x1="299.73" y1="157.87" x2="224.91" y2="84.17"/>
            <line class="cls-5" x1="298.46" y1="159.2" x2="223.65" y2="85.5"/>
            <line class="cls-5" x1="297.19" y1="160.52" x2="222.38" y2="86.82"/>
            <line class="cls-5" x1="295.93" y1="161.85" x2="221.11" y2="88.15"/>
            <line class="cls-5" x1="294.66" y1="163.18" x2="219.85" y2="89.48"/>
            <line class="cls-5" x1="293.39" y1="164.5" x2="218.58" y2="90.8"/>
            <line class="cls-5" x1="292.13" y1="165.83" x2="217.31" y2="92.13"/>
            <line class="cls-5" x1="290.86" y1="167.16" x2="216.05" y2="93.46"/>
            <line class="cls-5" x1="289.59" y1="168.49" x2="214.78" y2="94.78"/>
            <line class="cls-5" x1="288.33" y1="169.81" x2="213.51" y2="96.11"/>
            <line class="cls-5" x1="287.06" y1="171.14" x2="212.25" y2="97.44"/>
            <line class="cls-5" x1="285.79" y1="172.47" x2="210.98" y2="98.76"/>
            <line class="cls-5" x1="284.53" y1="173.79" x2="209.71" y2="100.09"/>
            <line class="cls-5" x1="283.26" y1="175.12" x2="208.45" y2="101.42"/>
            <line class="cls-5" x1="281.99" y1="176.45" x2="207.18" y2="102.74"/>
            <line class="cls-5" x1="280.73" y1="177.77" x2="205.92" y2="104.07"/>
            <line class="cls-5" x1="279.46" y1="179.1" x2="204.65" y2="105.4"/>
            <line class="cls-5" x1="278.19" y1="180.43" x2="203.38" y2="106.72"/>
            <line class="cls-5" x1="276.93" y1="181.75" x2="202.12" y2="108.05"/>
            <line class="cls-5" x1="275.66" y1="183.08" x2="200.85" y2="109.38"/>
            <line class="cls-5" x1="274.4" y1="184.41" x2="199.58" y2="110.7"/>
            <line class="cls-5" x1="273.13" y1="185.73" x2="198.32" y2="112.03"/>
            <line class="cls-5" x1="271.86" y1="187.06" x2="197.05" y2="113.36"/>
            <line class="cls-5" x1="270.6" y1="188.39" x2="195.78" y2="114.68"/>
            <line class="cls-5" x1="269.33" y1="189.71" x2="194.52" y2="116.01"/>
            <line class="cls-5" x1="268.06" y1="191.04" x2="193.25" y2="117.34"/>
            <line class="cls-5" x1="266.8" y1="192.37" x2="191.98" y2="118.66"/>
            <line class="cls-5" x1="265.53" y1="193.69" x2="190.72" y2="119.99"/>
            <line class="cls-5" x1="264.26" y1="195.02" x2="189.45" y2="121.32"/>
            <line class="cls-5" x1="263" y1="196.35" x2="188.18" y2="122.64"/>
            <line class="cls-5" x1="261.73" y1="197.67" x2="186.92" y2="123.97"/>
            <line class="cls-5" x1="260.46" y1="199" x2="185.65" y2="125.3"/>
            <line class="cls-5" x1="259.2" y1="200.33" x2="184.38" y2="126.62"/>
            <line class="cls-5" x1="257.93" y1="201.65" x2="183.12" y2="127.95"/>
            <line class="cls-5" x1="256.66" y1="202.98" x2="181.85" y2="129.28"/>
            <line class="cls-5" x1="255.4" y1="204.31" x2="180.58" y2="130.6"/>
            <line class="cls-5" x1="254.13" y1="205.63" x2="179.32" y2="131.93"/>
            <line class="cls-5" x1="252.86" y1="206.96" x2="178.05" y2="133.26"/>
            <line class="cls-5" x1="251.6" y1="208.29" x2="176.78" y2="134.58"/>
            <line class="cls-5" x1="250.33" y1="209.61" x2="175.52" y2="135.91"/>
          </g>
        </g>
      </g>
      <line class="cls-3" x1="211.7" y1="140.28" x2="286.56" y2="140.28"/>
      <g>
        <path class="cls-2" d="M218.55,152.47v-3.68c0-1.12,.59-1.76,1.67-1.76s1.67,.64,1.67,1.76v3.68c0,1.12-.59,1.76-1.67,1.76s-1.67-.64-1.67-1.76Zm2.24,.07v-3.82c0-.5-.22-.69-.57-.69s-.57,.19-.57,.69v3.82c0,.5,.22,.69,.57,.69s.57-.19,.57-.69Z"/>
        <path class="cls-2" d="M222.93,147.13h2.91v1h-1.81v1.95h1.42v1h-1.42v3.05h-1.1v-7Z"/>
        <path class="cls-2" d="M228.49,152.47v-3.68c0-1.12,.59-1.76,1.67-1.76s1.67,.64,1.67,1.76v3.68c0,1.12-.59,1.76-1.67,1.76s-1.67-.64-1.67-1.76Zm2.24,.07v-3.82c0-.5-.22-.69-.57-.69s-.57,.19-.57,.69v3.82c0,.5,.22,.69,.57,.69s.57-.19,.57-.69Z"/>
        <path class="cls-2" d="M232.87,147.13h1.1v6h1.81v1h-2.91v-7Z"/>
        <path class="cls-2" d="M236.61,147.13h1.68c1.1,0,1.64,.61,1.64,1.73v3.54c0,1.12-.54,1.73-1.64,1.73h-1.68v-7Zm1.66,6c.35,0,.56-.18,.56-.68v-3.64c0-.5-.21-.68-.56-.68h-.56v5h.56Z"/>
        <path class="cls-2" d="M240.97,147.13h3v1h-1.9v1.85h1.51v1h-1.51v2.15h1.9v1h-3v-7Z"/>
        <path class="cls-2" d="M244.9,147.13h1.63c1.14,0,1.63,.53,1.63,1.61v.43c0,.72-.23,1.18-.72,1.38v.02c.55,.17,.73,.69,.73,1.48v1.23c0,.34,.01,.59,.12,.85h-1.12c-.06-.18-.1-.29-.1-.86v-1.28c0-.65-.19-.86-.69-.86h-.38v3h-1.1v-7Zm1.5,3c.41,0,.66-.18,.66-.74v-.54c0-.5-.17-.72-.56-.72h-.5v2h.4Z"/>
        <path class="cls-2" d="M251.13,147.13h1.62c1.1,0,1.64,.61,1.64,1.73v.69c0,1.12-.54,1.73-1.64,1.73h-.52v2.85h-1.1v-7Zm1.62,3.15c.35,0,.54-.16,.54-.66v-.83c0-.5-.19-.66-.54-.66h-.52v2.15h.52Z"/>
        <path class="cls-2" d="M255.29,147.13h3v1h-1.9v1.85h1.51v1h-1.51v2.15h1.9v1h-3v-7Z"/>
        <path class="cls-2" d="M259.22,147.13h1.63c1.14,0,1.63,.53,1.63,1.61v.43c0,.72-.23,1.18-.72,1.38v.02c.55,.17,.73,.69,.73,1.48v1.23c0,.34,.01,.59,.12,.85h-1.12c-.06-.18-.1-.29-.1-.86v-1.28c0-.65-.19-.86-.69-.86h-.38v3h-1.1v-7Zm1.5,3c.41,0,.66-.18,.66-.74v-.54c0-.5-.17-.72-.56-.72h-.5v2h.4Z"/>
        <path class="cls-2" d="M263.36,152.47v-.4h1.04v.48c0,.5,.22,.68,.57,.68s.57-.18,.57-.7c0-.58-.22-.95-.94-1.58-.92-.81-1.22-1.38-1.22-2.18,0-1.1,.57-1.74,1.64-1.74s1.6,.64,1.6,1.76v.29h-1.04v-.36c0-.5-.2-.69-.55-.69s-.55,.19-.55,.67c0,.51,.23,.88,.95,1.51,.92,.81,1.21,1.37,1.21,2.24,0,1.14-.58,1.78-1.66,1.78s-1.62-.64-1.62-1.76Z"/>
        <path class="cls-2" d="M267.49,152.47v-3.68c0-1.12,.59-1.76,1.67-1.76s1.67,.64,1.67,1.76v3.68c0,1.12-.59,1.76-1.67,1.76s-1.67-.64-1.67-1.76Zm2.24,.07v-3.82c0-.5-.22-.69-.57-.69s-.57,.19-.57,.69v3.82c0,.5,.22,.69,.57,.69s.57-.19,.57-.69Z"/>
        <path class="cls-2" d="M271.87,147.13h1.38l1.07,4.19h.02v-4.19h.98v7h-1.13l-1.32-5.11h-.02v5.11h-.98v-7Z"/>
        <path class="cls-2" d="M276.25,152.47v-.4h1.04v.48c0,.5,.22,.68,.57,.68s.57-.18,.57-.7c0-.58-.22-.95-.94-1.58-.92-.81-1.22-1.38-1.22-2.18,0-1.1,.57-1.74,1.64-1.74s1.6,.64,1.6,1.76v.29h-1.04v-.36c0-.5-.2-.69-.55-.69s-.55,.19-.55,.67c0,.51,.23,.88,.95,1.51,.92,.81,1.21,1.37,1.21,2.24,0,1.14-.58,1.78-1.66,1.78s-1.62-.64-1.62-1.76Z"/>
      </g>
    </g>
    <g>
      <rect class="cls-11" x="48.88" y="176.74" width="230.23" height="21.24"/>
      <g>
        <path class="cls-14" d="M56.19,182.81h2.12c1.48,0,2.12,.69,2.12,2.09v.56c0,.94-.3,1.53-.94,1.79v.03c.72,.22,.95,.9,.95,1.92v1.6c0,.44,.01,.77,.16,1.1h-1.46c-.08-.23-.13-.38-.13-1.12v-1.66c0-.84-.25-1.12-.9-1.12h-.49v3.9h-1.43v-9.1Zm1.95,3.9c.53,0,.86-.23,.86-.96v-.7c0-.65-.22-.94-.73-.94h-.65v2.6h.52Z"/>
        <path class="cls-14" d="M62.4,182.81h3.9v1.3h-2.47v2.41h1.96v1.3h-1.96v2.79h2.47v1.3h-3.9v-9.1Z"/>
        <path class="cls-14" d="M68.01,189.8v-4.89c0-1.4,.73-2.24,2.11-2.24s2.11,.83,2.11,2.24v.96h-1.35v-1.05c0-.6-.29-.84-.72-.84s-.71,.25-.71,.84v5.08c0,.6,.29,.83,.71,.83s.72-.23,.72-.83v-1.39h1.35v1.29c0,1.4-.73,2.24-2.11,2.24s-2.11-.83-2.11-2.24Z"/>
        <path class="cls-14" d="M74.05,182.81h3.9v1.3h-2.47v2.41h1.96v1.3h-1.96v2.79h2.47v1.3h-3.9v-9.1Z"/>
        <path class="cls-14" d="M79.75,182.81h1.43v9.1h-1.43v-9.1Z"/>
        <path class="cls-14" d="M82.84,182.81h1.44l.94,7.06h.03l.94-7.06h1.31l-1.38,9.1h-1.9l-1.38-9.1Z"/>
        <path class="cls-14" d="M89.16,182.81h3.9v1.3h-2.47v2.41h1.96v1.3h-1.96v2.79h2.47v1.3h-3.9v-9.1Z"/>
        <path class="cls-14" d="M94.85,182.81h2.18c1.43,0,2.13,.79,2.13,2.25v4.6c0,1.46-.7,2.25-2.13,2.25h-2.18v-9.1Zm2.16,7.8c.45,0,.73-.23,.73-.88v-4.73c0-.65-.27-.88-.73-.88h-.73v6.5h.73Z"/>
        <path class="cls-14" d="M103.91,189.75v-.52h1.35v.62c0,.65,.29,.88,.74,.88s.74-.23,.74-.91c0-.75-.29-1.23-1.22-2.05-1.2-1.05-1.59-1.79-1.59-2.83,0-1.43,.74-2.26,2.13-2.26s2.08,.83,2.08,2.29v.38h-1.35v-.47c0-.65-.26-.9-.72-.9s-.71,.25-.71,.87c0,.66,.3,1.14,1.23,1.96,1.2,1.05,1.57,1.78,1.57,2.91,0,1.48-.75,2.31-2.16,2.31s-2.11-.83-2.11-2.29Z"/>
        <path class="cls-14" d="M109.87,189.75v-4.78c0-1.46,.77-2.29,2.17-2.29s2.17,.83,2.17,2.29v4.78c0,1.46-.77,2.29-2.17,2.29s-2.17-.83-2.17-2.29Zm2.91,.09v-4.97c0-.65-.29-.9-.74-.9s-.74,.25-.74,.9v4.97c0,.65,.29,.9,.74,.9s.74-.25,.74-.9Z"/>
        <path class="cls-14" d="M116.05,189.8v-4.89c0-1.4,.73-2.24,2.11-2.24s2.11,.83,2.11,2.24v.96h-1.35v-1.05c0-.6-.29-.84-.72-.84s-.71,.25-.71,.84v5.08c0,.6,.29,.83,.71,.83s.72-.23,.72-.83v-1.39h1.35v1.29c0,1.4-.73,2.24-2.11,2.24s-2.11-.83-2.11-2.24Z"/>
        <path class="cls-14" d="M122.1,182.81h1.43v9.1h-1.43v-9.1Z"/>
        <path class="cls-14" d="M126.68,182.81h1.94l1.48,9.1h-1.43l-.26-1.81v.03h-1.62l-.26,1.78h-1.33l1.48-9.1Zm1.56,6.08l-.64-4.5h-.03l-.62,4.5h1.29Z"/>
        <path class="cls-14" d="M131.76,182.81h1.43v7.8h2.35v1.3h-3.78v-9.1Z"/>
        <path class="cls-14" d="M140.26,182.81h2.11c1.43,0,2.13,.79,2.13,2.25v.9c0,1.46-.7,2.25-2.13,2.25h-.68v3.71h-1.43v-9.1Zm2.11,4.09c.45,0,.7-.21,.7-.86v-1.08c0-.65-.25-.86-.7-.86h-.68v2.79h.68Z"/>
        <path class="cls-14" d="M146.25,182.81h2.12c1.48,0,2.12,.69,2.12,2.09v.56c0,.94-.3,1.53-.94,1.79v.03c.72,.22,.95,.9,.95,1.92v1.6c0,.44,.01,.77,.16,1.1h-1.46c-.08-.23-.13-.38-.13-1.12v-1.66c0-.84-.25-1.12-.9-1.12h-.49v3.9h-1.43v-9.1Zm1.95,3.9c.53,0,.86-.23,.86-.96v-.7c0-.65-.22-.94-.73-.94h-.65v2.6h.52Z"/>
        <path class="cls-14" d="M152.36,189.75v-4.78c0-1.46,.77-2.29,2.17-2.29s2.17,.83,2.17,2.29v4.78c0,1.46-.77,2.29-2.17,2.29s-2.17-.83-2.17-2.29Zm2.91,.09v-4.97c0-.65-.29-.9-.74-.9s-.74,.25-.74,.9v4.97c0,.65,.29,.9,.74,.9s.74-.25,.74-.9Z"/>
        <path class="cls-14" d="M159.71,184.11h-1.5v-1.3h4.42v1.3h-1.5v7.8h-1.43v-7.8Z"/>
        <path class="cls-14" d="M164.3,182.81h3.9v1.3h-2.47v2.41h1.96v1.3h-1.96v2.79h2.47v1.3h-3.9v-9.1Z"/>
        <path class="cls-14" d="M169.9,189.8v-4.89c0-1.4,.73-2.24,2.11-2.24s2.11,.83,2.11,2.24v.96h-1.35v-1.05c0-.6-.29-.84-.72-.84s-.71,.25-.71,.84v5.08c0,.6,.29,.83,.71,.83s.72-.23,.72-.83v-1.39h1.35v1.29c0,1.4-.73,2.24-2.11,2.24s-2.11-.83-2.11-2.24Z"/>
        <path class="cls-14" d="M177.06,184.11h-1.5v-1.3h4.42v1.3h-1.5v7.8h-1.43v-7.8Z"/>
        <path class="cls-14" d="M181.65,182.81h1.43v9.1h-1.43v-9.1Z"/>
        <path class="cls-14" d="M185.02,189.75v-4.78c0-1.46,.77-2.29,2.17-2.29s2.17,.83,2.17,2.29v4.78c0,1.46-.77,2.29-2.17,2.29s-2.17-.83-2.17-2.29Zm2.91,.09v-4.97c0-.65-.29-.9-.74-.9s-.74,.25-.74,.9v4.97c0,.65,.29,.9,.74,.9s.74-.25,.74-.9Z"/>
        <path class="cls-14" d="M191.3,182.81h1.79l1.39,5.45h.03v-5.45h1.27v9.1h-1.47l-1.72-6.64h-.03v6.64h-1.27v-9.1Z"/>
        <path class="cls-14" d="M200.79,189.8v-4.89c0-1.4,.73-2.24,2.11-2.24s2.11,.83,2.11,2.24v.96h-1.35v-1.05c0-.6-.29-.84-.71-.84s-.72,.25-.72,.84v5.08c0,.6,.29,.83,.72,.83s.71-.23,.71-.83v-1.39h1.35v1.29c0,1.4-.73,2.24-2.11,2.24s-2.11-.83-2.11-2.24Z"/>
        <path class="cls-14" d="M207.94,182.81h1.94l1.48,9.1h-1.43l-.26-1.81v.03h-1.62l-.26,1.78h-1.33l1.48-9.1Zm1.56,6.08l-.64-4.5h-.03l-.62,4.5h1.29Z"/>
        <path class="cls-14" d="M212.74,189.75v-.52h1.35v.62c0,.65,.29,.88,.74,.88s.74-.23,.74-.91c0-.75-.29-1.23-1.22-2.05-1.2-1.05-1.59-1.79-1.59-2.83,0-1.43,.74-2.26,2.13-2.26s2.08,.83,2.08,2.29v.38h-1.35v-.47c0-.65-.26-.9-.72-.9s-.71,.25-.71,.87c0,.66,.3,1.14,1.23,1.96,1.2,1.05,1.57,1.78,1.57,2.91,0,1.48-.75,2.31-2.16,2.31s-2.11-.83-2.11-2.29Z"/>
        <path class="cls-14" d="M218.79,182.81h1.43v3.71h1.53v-3.71h1.43v9.1h-1.43v-4.1h-1.53v4.1h-1.43v-9.1Z"/>
        <path class="cls-14" d="M228.28,182.81h2.16c1.48,0,2.12,.69,2.12,2.09v.36c0,.94-.29,1.52-.92,1.78v.03c.77,.26,1.07,.94,1.07,1.9v.78c0,1.4-.74,2.16-2.17,2.16h-2.25v-9.1Zm1.99,3.71c.53,0,.86-.23,.86-.96v-.51c0-.65-.22-.94-.73-.94h-.69v2.41h.56Zm.26,4.09c.48,0,.74-.22,.74-.9v-.79c0-.84-.27-1.1-.92-1.1h-.64v2.79h.82Z"/>
        <path class="cls-14" d="M234.51,182.81h3.9v1.3h-2.47v2.41h1.96v1.3h-1.96v2.79h2.47v1.3h-3.9v-9.1Z"/>
        <path class="cls-14" d="M240.2,182.81h1.79l1.39,5.45h.03v-5.45h1.27v9.1h-1.47l-1.72-6.64h-.03v6.64h-1.27v-9.1Z"/>
        <path class="cls-14" d="M246.73,182.81h3.9v1.3h-2.47v2.41h1.96v1.3h-1.96v2.79h2.47v1.3h-3.9v-9.1Z"/>
        <path class="cls-14" d="M252.42,182.81h3.78v1.3h-2.35v2.54h1.85v1.3h-1.85v3.97h-1.43v-9.1Z"/>
        <path class="cls-14" d="M257.87,182.81h1.43v9.1h-1.43v-9.1Z"/>
        <path class="cls-14" d="M262.46,184.11h-1.5v-1.3h4.42v1.3h-1.5v7.8h-1.43v-7.8Z"/>
        <path class="cls-14" d="M266.8,189.75v-.52h1.35v.62c0,.65,.29,.88,.74,.88s.74-.23,.74-.91c0-.75-.29-1.23-1.22-2.05-1.2-1.05-1.59-1.79-1.59-2.83,0-1.43,.74-2.26,2.13-2.26s2.08,.83,2.08,2.29v.38h-1.35v-.47c0-.65-.26-.9-.71-.9s-.72,.25-.72,.87c0,.66,.3,1.14,1.24,1.96,1.2,1.05,1.57,1.78,1.57,2.91,0,1.48-.75,2.31-2.16,2.31s-2.11-.83-2.11-2.29Z"/>
      </g>
    </g>
    <g>
      <path class="cls-2" d="M153.76,209.99v-4.94c0-1.12,.44-1.53,1.54-1.53h.34v.9h-.27c-.35,0-.51,.13-.51,.63v4.94c0,.5,.16,.63,.51,.63h.27v.9h-.34c-1.1,0-1.54-.41-1.54-1.53Z"/>
      <path class="cls-2" d="M156.38,210.26c0-1,.28-1.61,1.1-2.47,.84-.89,1.08-1.42,1.08-2.07s-.22-.8-.57-.8-.57,.19-.57,.69v.75h-1.04v-.68c0-1.12,.56-1.76,1.64-1.76s1.64,.64,1.64,1.76c0,.83-.34,1.57-1.36,2.65-.66,.7-.83,1.05-.83,1.54v.15h2.09v1h-3.18v-.76Z"/>
      <path class="cls-2" d="M160.32,209.36v-3.68c0-1.12,.59-1.76,1.67-1.76s1.67,.64,1.67,1.76v3.68c0,1.12-.59,1.76-1.67,1.76s-1.67-.64-1.67-1.76Zm2.24,.07v-3.82c0-.5-.22-.69-.57-.69s-.57,.19-.57,.69v3.82c0,.5,.22,.69,.57,.69s.57-.19,.57-.69Z"/>
      <path class="cls-2" d="M164.38,210.26c0-1,.28-1.61,1.1-2.47,.84-.89,1.08-1.42,1.08-2.07s-.22-.8-.57-.8-.57,.19-.57,.69v.75h-1.04v-.68c0-1.12,.56-1.76,1.64-1.76s1.64,.64,1.64,1.76c0,.83-.34,1.57-1.36,2.65-.66,.7-.83,1.05-.83,1.54v.15h2.09v1h-3.18v-.76Z"/>
      <path class="cls-2" d="M168.32,209.36v-3.68c0-1.12,.59-1.76,1.67-1.76s1.67,.64,1.67,1.76v3.68c0,1.12-.59,1.76-1.67,1.76s-1.67-.64-1.67-1.76Zm2.24,.07v-3.82c0-.5-.22-.69-.57-.69s-.57,.19-.57,.69v3.82c0,.5,.22,.69,.57,.69s.57-.19,.57-.69Z"/>
      <path class="cls-2" d="M172.34,210.62h.27c.35,0,.51-.13,.51-.63v-4.94c0-.5-.16-.63-.51-.63h-.27v-.9h.34c1.1,0,1.54,.41,1.54,1.53v4.94c0,1.12-.44,1.53-1.54,1.53h-.34v-.9Z"/>
    </g>
  </g>
</svg>