<?xml version="1.0" encoding="UTF-8"?>
<svg id="Layer_2" data-name="Layer 2" xmlns="http://www.w3.org/2000/svg" viewBox="0 0 106.35 216.96">
  <defs>
    <style>
      .cls-1 {
        fill: #939598;
      }

      .cls-2, .cls-3 {
        fill: none;
        stroke: #f5967f;
        stroke-linecap: round;
        stroke-linejoin: round;
        stroke-width: 1.75px;
      }

      .cls-4 {
        fill: #fde7de;
      }

      .cls-3 {
        stroke-dasharray: 0 0 0 2.92;
      }

      .cls-5 {
        fill: #ea1d2d;
      }

      .cls-6 {
        fill: #ef6652;
      }
    </style>
  </defs>
  <g id="Layer_2-2" data-name="Layer 2">
    <g>
      <path class="cls-1" d="M7.35,.14h1.54V9.95h-1.54V.14Z"/>
      <path class="cls-1" d="M10.39,.14h1.93l1.5,5.87h.03V.14h1.37V9.95h-1.58l-1.85-7.16h-.03v7.16h-1.37V.14Z"/>
      <path class="cls-1" d="M19.31,.14h2.28c1.6,0,2.28,.74,2.28,2.25v.6c0,1.01-.32,1.65-1.01,1.93v.03c.77,.24,1.02,.97,1.02,2.07v1.72c0,.48,.01,.83,.17,1.19h-1.57c-.08-.25-.14-.41-.14-1.2v-1.79c0-.91-.27-1.2-.97-1.2h-.53v4.2h-1.54V.14Zm2.1,4.2c.57,0,.92-.25,.92-1.04v-.76c0-.7-.24-1.01-.78-1.01h-.7v2.8h.56Z"/>
      <path class="cls-1" d="M25.3,.14h4.2V1.54h-2.66v2.59h2.11v1.4h-2.11v3.01h2.66v1.4h-4.2V.14Z"/>
      <path class="cls-1" d="M30.49,7.62v-.56h1.46v.67c0,.7,.31,.95,.8,.95s.8-.25,.8-.98c0-.81-.31-1.33-1.32-2.21-1.29-1.13-1.71-1.93-1.71-3.05,0-1.54,.8-2.44,2.3-2.44s2.24,.9,2.24,2.47v.41h-1.46v-.5c0-.7-.28-.97-.77-.97s-.77,.27-.77,.94c0,.71,.32,1.23,1.33,2.12,1.29,1.13,1.7,1.92,1.7,3.14,0,1.6-.81,2.49-2.33,2.49s-2.27-.9-2.27-2.47Z"/>
      <path class="cls-1" d="M36.32,.14h2.27c1.54,0,2.3,.85,2.3,2.42v.97c0,1.57-.76,2.42-2.3,2.42h-.73v3.99h-1.54V.14Zm2.27,4.41c.49,0,.76-.22,.76-.92v-1.16c0-.7-.27-.92-.76-.92h-.73v3.01h.73Z"/>
      <path class="cls-1" d="M41.96,7.62V2.47c0-1.57,.83-2.47,2.34-2.47s2.34,.9,2.34,2.47V7.62c0,1.57-.83,2.47-2.34,2.47s-2.34-.9-2.34-2.47Zm3.14,.1V2.37c0-.7-.31-.97-.8-.97s-.8,.27-.8,.97V7.72c0,.7,.31,.97,.8,.97s.8-.27,.8-.97Z"/>
      <path class="cls-1" d="M48.02,.14h1.93l1.5,5.87h.03V.14h1.37V9.95h-1.58l-1.85-7.16h-.03v7.16h-1.37V.14Z"/>
      <path class="cls-1" d="M54.08,7.62v-.56h1.46v.67c0,.7,.31,.95,.8,.95s.8-.25,.8-.98c0-.81-.31-1.33-1.32-2.21-1.29-1.13-1.71-1.93-1.71-3.05,0-1.54,.8-2.44,2.3-2.44s2.24,.9,2.24,2.47v.41h-1.46v-.5c0-.7-.28-.97-.77-.97s-.77,.27-.77,.94c0,.71,.32,1.23,1.33,2.12,1.29,1.13,1.69,1.92,1.69,3.14,0,1.6-.81,2.49-2.33,2.49s-2.27-.9-2.27-2.47Z"/>
      <path class="cls-1" d="M59.91,.14h4.2V1.54h-2.66v2.59h2.12v1.4h-2.12v3.01h2.66v1.4h-4.2V.14Z"/>
      <path class="cls-1" d="M69.13,1.54h-1.61V.14h4.76V1.54h-1.61V9.95h-1.54V1.54Z"/>
      <path class="cls-1" d="M73.21,7.62V2.47c0-1.57,.83-2.47,2.34-2.47s2.34,.9,2.34,2.47V7.62c0,1.57-.83,2.47-2.34,2.47s-2.34-.9-2.34-2.47Zm3.14,.1V2.37c0-.7-.31-.97-.8-.97s-.8,.27-.8,.97V7.72c0,.7,.31,.97,.8,.97s.8-.27,.8-.97Z"/>
      <path class="cls-1" d="M83.06,1.54h-1.61V.14h4.76V1.54h-1.61V9.95h-1.54V1.54Z"/>
      <path class="cls-1" d="M87.3,.14h1.54v3.99h1.65V.14h1.54V9.95h-1.54V5.53h-1.65v4.41h-1.54V.14Z"/>
      <path class="cls-1" d="M93.53,.14h4.2V1.54h-2.66v2.59h2.12v1.4h-2.12v3.01h2.66v1.4h-4.2V.14Z"/>
      <path class="cls-1" d="M.79,23.68v-5.27c0-1.51,.78-2.41,2.27-2.41s2.27,.9,2.27,2.41v1.04h-1.46v-1.13c0-.64-.31-.91-.77-.91s-.77,.27-.77,.91v5.48c0,.64,.31,.9,.77,.9s.77-.25,.77-.9v-1.5h1.46v1.39c0,1.51-.78,2.41-2.27,2.41s-2.27-.9-2.27-2.41Z"/>
      <path class="cls-1" d="M6.52,23.62v-5.15c0-1.57,.83-2.47,2.34-2.47s2.34,.9,2.34,2.47v5.15c0,1.57-.83,2.47-2.34,2.47s-2.34-.9-2.34-2.47Zm3.14,.1v-5.35c0-.7-.31-.97-.8-.97s-.8,.27-.8,.97v5.35c0,.7,.31,.97,.8,.97s.8-.27,.8-.97Z"/>
      <path class="cls-1" d="M12.31,23.62v-.56h1.46v.67c0,.7,.31,.95,.8,.95s.8-.25,.8-.98c0-.81-.31-1.33-1.32-2.21-1.29-1.13-1.71-1.93-1.71-3.05,0-1.54,.8-2.44,2.3-2.44s2.24,.9,2.24,2.47v.41h-1.46v-.5c0-.7-.28-.97-.77-.97s-.77,.27-.77,.94c0,.71,.32,1.23,1.33,2.12,1.29,1.13,1.7,1.92,1.7,3.14,0,1.6-.81,2.49-2.33,2.49s-2.27-.9-2.27-2.47Z"/>
      <path class="cls-1" d="M19.34,17.54h-1.61v-1.4h4.76v1.4h-1.61v8.4h-1.54v-8.4Z"/>
      <path class="cls-1" d="M22.34,20.34h3.08v1.4h-3.08v-1.4Z"/>
      <path class="cls-1" d="M26.58,23.62v-5.15c0-1.57,.83-2.47,2.34-2.47s2.34,.9,2.34,2.47v5.15c0,1.57-.83,2.47-2.34,2.47s-2.34-.9-2.34-2.47Zm3.14,.1v-5.35c0-.7-.31-.97-.8-.97s-.8,.27-.8,.97v5.35c0,.7,.31,.97,.8,.97s.8-.27,.8-.97Z"/>
      <path class="cls-1" d="M32.64,16.14h4.08v1.4h-2.54v2.73h1.99v1.4h-1.99v4.27h-1.54v-9.81Z"/>
      <path class="cls-1" d="M37.51,20.34h3.08v1.4h-3.08v-1.4Z"/>
      <path class="cls-1" d="M41.87,16.14h1.54v8.4h2.54v1.4h-4.08v-9.81Z"/>
      <path class="cls-1" d="M47.03,16.14h1.54v9.81h-1.54v-9.81Z"/>
      <path class="cls-1" d="M49.67,16.14h1.55l1.01,7.61h.03l1.01-7.61h1.41l-1.48,9.81h-2.04l-1.48-9.81Z"/>
      <path class="cls-1" d="M55.77,16.14h1.54v9.81h-1.54v-9.81Z"/>
      <path class="cls-1" d="M58.81,16.14h1.93l1.5,5.87h.03v-5.87h1.37v9.81h-1.58l-1.85-7.16h-.03v7.16h-1.37v-9.81Z"/>
      <path class="cls-1" d="M65.02,23.62v-5.15c0-1.57,.78-2.47,2.3-2.47s2.3,.9,2.3,2.47v.84h-1.46v-.94c0-.7-.31-.97-.8-.97s-.8,.27-.8,.97v5.36c0,.7,.31,.95,.8,.95s.8-.25,.8-.95v-1.92h-.77v-1.4h2.23v3.21c0,1.57-.78,2.47-2.3,2.47s-2.3-.9-2.3-2.47Z"/>
      <path class="cls-1" d="M73.45,23.68v-5.27c0-1.51,.78-2.41,2.27-2.41s2.27,.9,2.27,2.41v1.04h-1.46v-1.13c0-.64-.31-.91-.77-.91s-.77,.27-.77,.91v5.48c0,.64,.31,.9,.77,.9s.77-.25,.77-.9v-1.5h1.46v1.39c0,1.51-.78,2.41-2.27,2.41s-2.27-.9-2.27-2.41Z"/>
      <path class="cls-1" d="M79.26,16.14h2.28c1.6,0,2.28,.74,2.28,2.25v.6c0,1.01-.32,1.65-1.01,1.93v.03c.77,.24,1.02,.97,1.02,2.07v1.72c0,.48,.01,.83,.17,1.19h-1.57c-.08-.25-.14-.41-.14-1.2v-1.79c0-.91-.27-1.2-.97-1.2h-.53v4.2h-1.54v-9.81Zm2.1,4.2c.57,0,.92-.25,.92-1.04v-.76c0-.7-.24-1.01-.78-1.01h-.7v2.8h.56Z"/>
      <path class="cls-1" d="M85.25,16.14h1.54v9.81h-1.54v-9.81Z"/>
      <path class="cls-1" d="M88.02,23.62v-.56h1.46v.67c0,.7,.31,.95,.8,.95s.8-.25,.8-.98c0-.81-.31-1.33-1.32-2.21-1.29-1.13-1.71-1.93-1.71-3.05,0-1.54,.8-2.44,2.3-2.44s2.24,.9,2.24,2.47v.41h-1.46v-.5c0-.7-.28-.97-.77-.97s-.77,.27-.77,.94c0,.71,.32,1.23,1.33,2.12,1.29,1.13,1.69,1.92,1.69,3.14,0,1.6-.81,2.49-2.33,2.49s-2.27-.9-2.27-2.47Z"/>
      <path class="cls-1" d="M93.85,16.14h1.54v9.81h-1.54v-9.81Z"/>
      <path class="cls-1" d="M96.62,23.62v-.56h1.46v.67c0,.7,.31,.95,.8,.95s.8-.25,.8-.98c0-.81-.31-1.33-1.32-2.21-1.29-1.13-1.71-1.93-1.71-3.05,0-1.54,.8-2.44,2.3-2.44s2.24,.9,2.24,2.47v.41h-1.46v-.5c0-.7-.28-.97-.77-.97s-.77,.27-.77,.94c0,.71,.32,1.23,1.33,2.12,1.29,1.13,1.69,1.92,1.69,3.14,0,1.6-.81,2.49-2.33,2.49s-2.27-.9-2.27-2.47Z"/>
      <path class="cls-1" d="M102.95,25.95h-.5v-1.48h1.48v1.33l-.77,1.84h-.71l.5-1.68Z"/>
    </g>
    <g>
      <path class="cls-1" d="M15.8,215.43v-4.94c0-1.12,.44-1.53,1.54-1.53h.34v.9h-.27c-.35,0-.51,.13-.51,.63v4.94c0,.5,.16,.63,.51,.63h.27v.9h-.34c-1.1,0-1.54-.41-1.54-1.53Z"/>
      <path class="cls-1" d="M18.44,209.46h2.91v1h-1.81v1.95h1.42v1h-1.42v3.05h-1.1v-7Z"/>
      <path class="cls-1" d="M21.88,209.46h3v1h-1.9v1.85h1.51v1h-1.51v2.15h1.9v1h-3v-7Z"/>
      <path class="cls-1" d="M25.51,209.46h1.66c1.14,0,1.63,.53,1.63,1.61v.28c0,.72-.22,1.17-.71,1.37v.02c.59,.2,.82,.72,.82,1.46v.6c0,1.08-.57,1.66-1.67,1.66h-1.73v-7Zm1.53,2.85c.41,0,.66-.18,.66-.74v-.39c0-.5-.17-.72-.56-.72h-.53v1.85h.43Zm.2,3.15c.37,0,.57-.17,.57-.69v-.61c0-.65-.21-.85-.71-.85h-.49v2.15h.63Z"/>
      <path class="cls-1" d="M29.55,215.4h1.06v1.06h-1.06v-1.06Z"/>
      <path class="cls-1" d="M33.01,215.7c0-1,.28-1.61,1.1-2.47,.84-.89,1.08-1.42,1.08-2.07s-.22-.8-.57-.8-.57,.19-.57,.69v.75h-1.04v-.68c0-1.12,.56-1.76,1.64-1.76s1.64,.64,1.64,1.76c0,.83-.34,1.57-1.36,2.65-.66,.7-.83,1.05-.83,1.54v.15h2.09v1h-3.18v-.76Z"/>
      <path class="cls-1" d="M36.95,214.8v-3.68c0-1.12,.59-1.76,1.67-1.76s1.67,.64,1.67,1.76v3.68c0,1.12-.59,1.76-1.67,1.76s-1.67-.64-1.67-1.76Zm2.24,.07v-3.82c0-.5-.22-.69-.57-.69s-.57,.19-.57,.69v3.82c0,.5,.22,.69,.57,.69s.57-.19,.57-.69Z"/>
      <path class="cls-1" d="M41.01,215.7c0-1,.28-1.61,1.1-2.47,.84-.89,1.08-1.42,1.08-2.07s-.22-.8-.57-.8-.57,.19-.57,.69v.75h-1.04v-.68c0-1.12,.56-1.76,1.64-1.76s1.64,.64,1.64,1.76c0,.83-.34,1.57-1.36,2.65-.66,.7-.83,1.05-.83,1.54v.15h2.09v1h-3.18v-.76Z"/>
      <path class="cls-1" d="M45.01,215.7c0-1,.28-1.61,1.1-2.47,.84-.89,1.08-1.42,1.08-2.07s-.22-.8-.57-.8-.57,.19-.57,.69v.75h-1.04v-.68c0-1.12,.56-1.76,1.64-1.76s1.64,.64,1.64,1.76c0,.83-.34,1.57-1.36,2.65-.66,.7-.83,1.05-.83,1.54v.15h2.09v1h-3.18v-.76Z"/>
      <path class="cls-1" d="M50.22,212.51h3v.9h-3v-.9Z"/>
      <path class="cls-1" d="M55.23,209.46h2.91v1h-1.81v1.95h1.42v1h-1.42v3.05h-1.1v-7Z"/>
      <path class="cls-1" d="M58.67,209.46h3v1h-1.9v1.85h1.51v1h-1.51v2.15h1.9v1h-3v-7Z"/>
      <path class="cls-1" d="M62.3,209.46h1.66c1.14,0,1.63,.53,1.63,1.61v.28c0,.72-.22,1.17-.71,1.37v.02c.59,.2,.82,.72,.82,1.46v.6c0,1.08-.57,1.66-1.67,1.66h-1.73v-7Zm1.53,2.85c.41,0,.66-.18,.66-.74v-.39c0-.5-.17-.72-.56-.72h-.53v1.85h.43Zm.2,3.15c.37,0,.57-.17,.57-.69v-.61c0-.65-.21-.85-.71-.85h-.49v2.15h.63Z"/>
      <path class="cls-1" d="M66.34,215.4h1.06v1.06h-1.06v-1.06Z"/>
      <path class="cls-1" d="M69.8,215.7c0-1,.28-1.61,1.1-2.47,.84-.89,1.08-1.42,1.08-2.07s-.22-.8-.57-.8-.57,.19-.57,.69v.75h-1.04v-.68c0-1.12,.56-1.76,1.64-1.76s1.64,.64,1.64,1.76c0,.83-.34,1.57-1.36,2.65-.66,.7-.83,1.05-.83,1.54v.15h2.09v1h-3.18v-.76Z"/>
      <path class="cls-1" d="M73.74,214.8v-3.68c0-1.12,.59-1.76,1.67-1.76s1.67,.64,1.67,1.76v3.68c0,1.12-.59,1.76-1.67,1.76s-1.67-.64-1.67-1.76Zm2.24,.07v-3.82c0-.5-.22-.69-.57-.69s-.57,.19-.57,.69v3.82c0,.5,.22,.69,.57,.69s.57-.19,.57-.69Z"/>
      <path class="cls-1" d="M77.8,215.7c0-1,.28-1.61,1.1-2.47,.84-.89,1.08-1.42,1.08-2.07s-.22-.8-.57-.8-.57,.19-.57,.69v.75h-1.04v-.68c0-1.12,.56-1.76,1.64-1.76s1.64,.64,1.64,1.76c0,.83-.34,1.57-1.36,2.65-.66,.7-.83,1.05-.83,1.54v.15h2.09v1h-3.18v-.76Z"/>
      <path class="cls-1" d="M81.74,214.82v-.57h1.04v.62c0,.5,.22,.69,.57,.69s.57-.17,.57-.79v-.57c0-.65-.22-.89-.72-.89h-.37v-1h.4c.41,0,.66-.18,.66-.74v-.51c0-.5-.23-.7-.55-.7s-.53,.19-.53,.65v.46h-1.04v-.37c0-1.12,.56-1.74,1.61-1.74s1.61,.61,1.61,1.73v.25c0,.75-.24,1.21-.78,1.41v.02c.59,.22,.81,.73,.81,1.44v.62c0,1.12-.56,1.73-1.64,1.73s-1.64-.62-1.64-1.74Z"/>
      <path class="cls-1" d="M85.76,216.06h.27c.35,0,.51-.13,.51-.63v-4.94c0-.5-.16-.63-.51-.63h-.27v-.9h.34c1.1,0,1.54,.41,1.54,1.53v4.94c0,1.12-.44,1.53-1.54,1.53h-.34v-.9Z"/>
    </g>
    <path class="cls-6" d="M53.27,34.36C28.01,34.36,6.7,44.12,0,57.46c1.16-1.47,3.09-2.43,5.28-2.43,3.26,0,5.94,2.13,6.37,4.9h0c.03,.26,.23,.47,.49,.47s.45-.2,.49-.47h0c.43-2.77,3.11-4.9,6.37-4.9s5.94,2.13,6.37,4.9h0c.03,.26,.23,.47,.49,.47s.45-.2,.49-.47h.01c.43-2.77,3.11-4.9,6.37-4.9s5.94,2.13,6.37,4.9h.01c.03,.26,.23,.47,.49,.47s.45-.2,.49-.47h0c.43-2.77,3.11-4.9,6.37-4.9s5.94,2.13,6.37,4.9h0c.03,.26,.23,.47,.49,.47s.45-.2,.49-.47h.01c.43-2.77,3.11-4.9,6.37-4.9s5.94,2.13,6.37,4.9h0c.03,.26,.23,.47,.49,.47s.45-.2,.49-.47h0c.43-2.77,3.11-4.9,6.37-4.9s5.94,2.13,6.37,4.9h0c.03,.26,.23,.47,.49,.47s.45-.2,.49-.47h0c.43-2.77,3.11-4.9,6.37-4.9s5.94,2.13,6.37,4.9h0c.03,.26,.23,.47,.49,.47s.45-.2,.49-.47h0c.43-2.77,3.11-4.9,6.37-4.9,1.99,0,3.77,.8,4.95,2.05-6.91-13.15-28.06-22.72-53.08-22.72Z"/>
    <g>
      <g>
        <path class="cls-5" d="M4.15,101.33c0,1.01,.82,1.83,1.83,1.83s1.82-.82,1.82-1.83v-14.65h.82v14.65c0,1.01,.81,1.83,1.82,1.83s1.83-.82,1.83-1.83v-25.81h.81v9.79c0,1.97,2.55,1.97,2.55,0v-10c0-2.18-1.27-4.31-3.8-4.31H4.52c-2.3,0-3.75,1.89-3.75,4.25v10.06c0,1.96,2.56,1.96,2.56,0v-9.79h.82v25.81Z"/>
        <ellipse class="cls-5" cx="8.19" cy="66.89" rx="3.29" ry="3.3"/>
      </g>
      <g>
        <path class="cls-5" d="M49.86,84.35s-2.65-9.25-2.95-10.28c-.28-.79-.79-1.52-1.49-2.14-.72-.65-1.53-.95-2.36-.95h-5.37c-.8,0-1.57,.29-2.31,.95-.74,.62-1.22,1.35-1.44,2.14-.37,1.04-2.95,9.9-2.95,9.9,0,0-.09,.26-.09,.42,0,.58,.17,1.26,.83,1.44,.77,.22,1.63-.43,1.77-1.1,.04-.21,.24-.85,.57-1.83,.28-1.01,.61-2.04,.91-3.14,.33-1.1,.75-2.49,1.25-4.22h.79l-4.47,15.25h3.77v10.54c0,1.02,.82,1.83,1.83,1.83s1.83-.82,1.83-1.83v-10.54h.82v10.54c0,1.02,.81,1.83,1.83,1.83s1.83-.82,1.83-1.83v-10.54h3.78l-4.49-15.25h.79c.5,1.73,.91,3.12,1.26,4.22,.35,1.1,.66,2.14,.96,3.14,.26,.99,.53,1.88,.53,1.91,.16,.56,.63,1.01,1.27,1.02,0,0,.01,0,.02,0,.66,0,1.19-.46,1.29-1.06,.02-.13,.01-.34,0-.43Z"/>
        <path class="cls-5" d="M43.68,67.05h0s0-.07,0-.1c0-1.85-1.5-3.36-3.36-3.36,0,0,0,0,0,0s0,0,0,0c-1.85,0-3.36,1.5-3.36,3.36,0,.04,0,.1,0,.1,0,1.73-.8,2.56-.8,2.56h2.11c.57,.44,1.27,.7,2.04,.7h0c.77,0,1.48-.26,2.04-.7h2.11s-.8-.83-.8-2.56Z"/>
      </g>
      <g>
        <path class="cls-5" d="M89.03,101.33c0,1.01,.82,1.83,1.83,1.83s1.82-.82,1.82-1.83v-14.65h.82v14.65c0,1.01,.81,1.83,1.82,1.83s1.83-.82,1.83-1.83v-25.81h.81v9.79c0,1.97,2.55,1.97,2.55,0v-10c0-2.18-1.27-4.31-3.8-4.31h-7.29c-2.3,0-3.75,1.89-3.75,4.25v10.06c0,1.96,2.56,1.96,2.56,0v-9.79h.82v25.81Z"/>
        <ellipse class="cls-5" cx="93.07" cy="66.89" rx="3.29" ry="3.3"/>
      </g>
      <g>
        <path class="cls-5" d="M70.65,84.35s-2.65-9.25-2.95-10.28c-.28-.79-.79-1.52-1.49-2.14-.72-.65-1.53-.95-2.36-.95h-5.37c-.8,0-1.57,.29-2.31,.95-.74,.62-1.22,1.35-1.44,2.14-.37,1.04-2.95,9.9-2.95,9.9,0,0-.09,.26-.09,.42,0,.58,.17,1.26,.83,1.44,.77,.22,1.63-.43,1.77-1.1,.04-.21,.24-.85,.57-1.83,.28-1.01,.61-2.04,.91-3.14,.33-1.1,.75-2.49,1.25-4.22h.79l-4.47,15.25h3.77v10.54c0,1.02,.82,1.83,1.83,1.83s1.83-.82,1.83-1.83v-10.54h.82v10.54c0,1.02,.81,1.83,1.83,1.83s1.83-.82,1.83-1.83v-10.54h3.78l-4.49-15.25h.79c.5,1.73,.91,3.12,1.26,4.22,.35,1.1,.66,2.14,.96,3.14,.26,.99,.53,1.88,.53,1.91,.16,.56,.63,1.01,1.27,1.02,0,0,.01,0,.02,0,.66,0,1.19-.46,1.29-1.06,.02-.13,.01-.34,0-.43Z"/>
        <path class="cls-5" d="M64.47,67.05h0s0-.07,0-.1c0-1.85-1.5-3.36-3.36-3.36,0,0,0,0,0,0s0,0,0,0c-1.85,0-3.36,1.5-3.36,3.36,0,.04,0,.1,0,.1,0,1.73-.8,2.56-.8,2.56h2.11c.57,.44,1.27,.7,2.04,.7h0c.77,0,1.48-.26,2.04-.7h2.11s-.8-.83-.8-2.56Z"/>
      </g>
      <g>
        <circle class="cls-5" cx="23.54" cy="81.73" r="2.47"/>
        <g>
          <polygon class="cls-5" points="26.54 87.57 26.57 87.63 26.57 87.57 26.54 87.57"/>
          <path class="cls-5" d="M29.81,91.49l-1.74-4.77s-.01-.01-.01-.02c-.26-.92-1.02-1.68-2.28-1.68h-4.59c-1.17,0-1.97,.69-2.25,1.66,0,.02-.02,.03-.03,.04l-1.74,4.77c-.16,.43,.07,.91,.5,1.07l.05,.02c.43,.16,.91-.07,1.07-.5l.03-.08,1.61-4.43h.51v14.56c0,.57,.51,1.03,1.15,1.03s1.15-.46,1.15-1.03v-8.26h.51v8.26c0,.57,.51,1.03,1.14,1.03s1.15-.46,1.15-1.03v-14.56h.51v.06l1.6,4.4,.02,.05c.16,.43,.64,.66,1.07,.5l.05-.02c.43-.16,.66-.64,.5-1.07Z"/>
        </g>
      </g>
      <g>
        <path class="cls-5" d="M82.31,80.24h0c.07-.14,.11-.29,.11-.45,0-.75-.83-1.36-1.86-1.36-.83,0-1.52,.4-1.76,.95-.23-.07-.48-.12-.74-.12-1.37,0-2.47,1.11-2.47,2.47s1.11,2.47,2.47,2.47c1.29,0,2.34-.99,2.45-2.25,.01,0,.03,.01,.03,0,.5,1.27,1.95,1.54,1.88,1.37-1.13-.77-.11-3.09-.11-3.09Z"/>
        <polygon class="cls-5" points="81.06 87.57 81.08 87.63 81.08 87.57 81.06 87.57"/>
        <polygon class="cls-5" points="81.03 87.57 81.05 87.63 81.05 87.57 81.03 87.57"/>
        <path class="cls-5" d="M84.29,91.49l-1.74-4.77s-.01-.01-.01-.02c-.26-.92-1.02-1.68-2.28-1.68h-4.59c-1.17,0-1.97,.69-2.25,1.66,0,.02-.02,.03-.03,.04l-1.74,4.77c-.16,.43,.07,.91,.5,1.07l.05,.02c.43,.16,.91-.07,1.07-.5l.03-.08,1.61-4.43h.51l-2.53,8.98h2.53s0,5.57,0,5.57c0,.57,.51,1.03,1.15,1.03s1.15-.46,1.15-1.03v-5.56h.51s0,5.56,0,5.56c0,.57,.51,1.03,1.15,1.03s1.15-.46,1.15-1.03v-5.55s2.3,0,2.3,0l-2.27-9.02h.47v.06l1.6,4.4,.02,.05c.16,.43,.64,.66,1.07,.5l.05-.02c.43-.16,.66-.64,.5-1.07Z"/>
      </g>
    </g>
    <g>
      <path class="cls-1" d="M3.33,121.38H.91v-1.64c1.95,0,2.65-.42,3.17-1.85h1.55v14.7H3.33v-11.21Z"/>
      <path class="cls-1" d="M8.96,129.11v-7.73c0-2.35,1.24-3.7,3.51-3.7s3.51,1.34,3.51,3.7v7.73c0,2.35-1.24,3.7-3.51,3.7s-3.51-1.34-3.51-3.7Zm4.7,.15v-8.02c0-1.05-.46-1.45-1.2-1.45s-1.2,.4-1.2,1.45v8.02c0,1.05,.46,1.45,1.2,1.45s1.2-.4,1.2-1.45Z"/>
      <path class="cls-1" d="M18.09,129.11v-1.15h2.18v1.32c0,1.05,.46,1.43,1.2,1.43s1.2-.38,1.2-1.43v-3.3c0-1.05-.46-1.45-1.2-1.45s-1.2,.4-1.2,1.45v.13h-2.18l.42-8.21h6.09v2.1h-4.03l-.19,3.51h.04c.42-.69,1.07-1.07,1.99-1.07,1.7,0,2.56,1.2,2.56,3.36v3.32c0,2.35-1.18,3.7-3.44,3.7s-3.44-1.34-3.44-3.7Z"/>
      <path class="cls-1" d="M31.03,129.19v-7.89c0-2.27,1.18-3.61,3.4-3.61s3.4,1.34,3.4,3.61v1.55h-2.18v-1.7c0-.97-.46-1.36-1.15-1.36s-1.15,.4-1.15,1.36v8.21c0,.97,.46,1.34,1.15,1.34s1.15-.38,1.15-1.34v-2.25h2.18v2.08c0,2.27-1.18,3.61-3.4,3.61s-3.4-1.34-3.4-3.61Z"/>
      <path class="cls-1" d="M39.72,129.11v-7.73c0-2.35,1.24-3.7,3.51-3.7s3.51,1.34,3.51,3.7v7.73c0,2.35-1.24,3.7-3.51,3.7s-3.51-1.34-3.51-3.7Zm4.7,.15v-8.02c0-1.05-.46-1.45-1.2-1.45s-1.2,.4-1.2,1.45v8.02c0,1.05,.46,1.45,1.2,1.45s1.2-.4,1.2-1.45Z"/>
      <path class="cls-1" d="M48.83,129.11v-11.21h2.31v11.38c0,1.05,.44,1.43,1.18,1.43s1.18-.38,1.18-1.43v-11.38h2.23v11.21c0,2.35-1.18,3.7-3.44,3.7s-3.44-1.34-3.44-3.7Z"/>
      <path class="cls-1" d="M57.99,117.9h2.9l2.25,8.8h.04v-8.8h2.06v14.7h-2.37l-2.77-10.73h-.04v10.73h-2.06v-14.7Z"/>
      <path class="cls-1" d="M69.39,120h-2.41v-2.1h7.14v2.1h-2.41v12.6h-2.31v-12.6Z"/>
      <path class="cls-1" d="M75.86,117.9h3.42c2.39,0,3.42,1.11,3.42,3.38v.9c0,1.51-.48,2.48-1.51,2.9v.04c1.15,.36,1.53,1.45,1.53,3.11v2.58c0,.71,.02,1.24,.25,1.78h-2.35c-.13-.38-.21-.61-.21-1.81v-2.69c0-1.36-.4-1.81-1.45-1.81h-.8v6.3h-2.31v-14.7Zm3.15,6.3c.86,0,1.39-.38,1.39-1.55v-1.13c0-1.05-.36-1.51-1.18-1.51h-1.05v4.2h.84Z"/>
      <path class="cls-1" d="M84.95,117.9h2.31v14.7h-2.31v-14.7Z"/>
      <path class="cls-1" d="M89.62,117.9h6.3v2.1h-3.99v3.88h3.17v2.1h-3.17v4.51h3.99v2.1h-6.3v-14.7Z"/>
      <path class="cls-1" d="M97.51,129.11v-.84h2.18v1.01c0,1.05,.46,1.43,1.2,1.43s1.2-.38,1.2-1.47c0-1.22-.46-1.99-1.97-3.32-1.93-1.7-2.56-2.9-2.56-4.58,0-2.31,1.2-3.65,3.44-3.65s3.36,1.34,3.36,3.7v.61h-2.18v-.76c0-1.05-.42-1.45-1.15-1.45s-1.15,.4-1.15,1.41c0,1.07,.48,1.85,1.99,3.17,1.93,1.7,2.54,2.88,2.54,4.7,0,2.39-1.22,3.74-3.49,3.74s-3.4-1.34-3.4-3.7Z"/>
    </g>
    <g>
      <line class="cls-2" x1="103.42" y1="112.59" x2="103.42" y2="112.59"/>
      <line class="cls-3" x1="100.51" y1="112.59" x2="2.76" y2="112.59"/>
      <line class="cls-2" x1="1.3" y1="112.59" x2="1.3" y2="112.59"/>
    </g>
    <g>
      <line class="cls-2" x1="103.42" y1="137.92" x2="103.42" y2="137.92"/>
      <line class="cls-3" x1="100.51" y1="137.92" x2="2.76" y2="137.92"/>
      <line class="cls-2" x1="1.3" y1="137.92" x2="1.3" y2="137.92"/>
    </g>
    <g>
      <path class="cls-1" d="M2.71,144.39h1.79l1.37,8.4h-1.32l-.24-1.67v.02h-1.5l-.24,1.64H1.35l1.37-8.4Zm1.44,5.61l-.59-4.15h-.02l-.58,4.15h1.19Z"/>
      <path class="cls-1" d="M8.39,144.39h1.66l1.28,5.03h.02v-5.03h1.18v8.4h-1.36l-1.58-6.13h-.02v6.13h-1.18v-8.4Z"/>
      <path class="cls-1" d="M15.4,144.39h1.66l1.28,5.03h.02v-5.03h1.18v8.4h-1.36l-1.58-6.13h-.02v6.13h-1.18v-8.4Z"/>
      <path class="cls-1" d="M22.31,150.79v-4.41c0-1.34,.71-2.11,2-2.11s2,.77,2,2.11v4.41c0,1.34-.71,2.11-2,2.11s-2-.77-2-2.11Zm2.69,.08v-4.58c0-.6-.26-.83-.68-.83s-.68,.23-.68,.83v4.58c0,.6,.26,.83,.68,.83s.68-.23,.68-.83Z"/>
      <path class="cls-1" d="M29.04,150.79v-6.4h1.32v6.5c0,.6,.25,.82,.67,.82s.67-.22,.67-.82v-6.5h1.27v6.4c0,1.34-.67,2.11-1.97,2.11s-1.97-.77-1.97-2.11Z"/>
      <path class="cls-1" d="M35.8,144.39h1.66l1.28,5.03h.02v-5.03h1.18v8.4h-1.36l-1.58-6.13h-.02v6.13h-1.18v-8.4Z"/>
      <path class="cls-1" d="M42.72,150.84v-4.51c0-1.29,.67-2.06,1.94-2.06s1.94,.77,1.94,2.06v.89h-1.25v-.97c0-.55-.26-.78-.66-.78s-.66,.23-.66,.78v4.69c0,.55,.26,.77,.66,.77s.66-.22,.66-.77v-1.28h1.25v1.19c0,1.3-.67,2.06-1.94,2.06s-1.94-.77-1.94-2.06Z"/>
      <path class="cls-1" d="M49.29,144.39h3.6v1.2h-2.28v2.22h1.81v1.2h-1.81v2.58h2.28v1.2h-3.6v-8.4Z"/>
      <path class="cls-1" d="M55.53,144.39h2.01c1.32,0,1.97,.73,1.97,2.08v4.25c0,1.34-.65,2.07-1.97,2.07h-2.01v-8.4Zm1.99,7.2c.42,0,.67-.22,.67-.82v-4.37c0-.6-.25-.82-.67-.82h-.67v6h.67Z"/>
      <path class="cls-1" d="M67.11,144.39h1.79l1.37,8.4h-1.32l-.24-1.67v.02h-1.5l-.24,1.64h-1.22l1.37-8.4Zm1.44,5.61l-.59-4.15h-.02l-.58,4.15h1.19Z"/>
      <path class="cls-1" d="M72.78,144.39h1.32v7.2h2.17v1.2h-3.49v-8.4Z"/>
      <path class="cls-1" d="M78.8,144.39h1.88l.84,6.01h.02l.84-6.01h1.88v8.4h-1.25v-6.36h-.02l-.96,6.36h-1.1l-.96-6.36h-.02v6.36h-1.15v-8.4Z"/>
      <path class="cls-1" d="M87.04,150.79v-4.41c0-1.34,.71-2.11,2-2.11s2,.77,2,2.11v4.41c0,1.34-.71,2.11-2,2.11s-2-.77-2-2.11Zm2.69,.08v-4.58c0-.6-.26-.83-.68-.83s-.68,.23-.68,.83v4.58c0,.6,.26,.83,.68,.83s.68-.23,.68-.83Z"/>
      <path class="cls-1" d="M93.59,150.79v-.48h1.25v.58c0,.6,.26,.82,.68,.82s.68-.22,.68-.84c0-.7-.26-1.14-1.13-1.9-1.1-.97-1.46-1.65-1.46-2.61,0-1.32,.68-2.09,1.97-2.09s1.92,.77,1.92,2.11v.35h-1.25v-.43c0-.6-.24-.83-.66-.83s-.66,.23-.66,.8c0,.61,.28,1.06,1.14,1.81,1.1,.97,1.45,1.64,1.45,2.69,0,1.37-.7,2.13-1.99,2.13s-1.94-.77-1.94-2.11Z"/>
      <path class="cls-1" d="M101.2,145.59h-1.38v-1.2h4.08v1.2h-1.38v7.2h-1.32v-7.2Z"/>
    </g>
    <g>
      <path class="cls-1" d="M1.6,164.53v-.68h1.25v.74c0,.6,.26,.83,.68,.83s.68-.2,.68-.95v-.68c0-.78-.26-1.07-.86-1.07h-.44v-1.2h.48c.49,0,.79-.22,.79-.89v-.61c0-.6-.28-.84-.66-.84s-.64,.23-.64,.78v.55H1.64v-.44c0-1.34,.67-2.09,1.93-2.09s1.93,.73,1.93,2.07v.3c0,.9-.29,1.45-.94,1.69v.02c.71,.26,.97,.88,.97,1.73v.74c0,1.34-.67,2.08-1.97,2.08s-1.97-.74-1.97-2.09Z"/>
      <path class="cls-1" d="M7.18,164.51v-.66h1.25v.76c0,.6,.26,.82,.68,.82s.68-.22,.68-.82v-1.88c0-.6-.26-.83-.68-.83s-.68,.23-.68,.83v.07h-1.25l.24-4.69h3.48v1.2h-2.3l-.11,2h.02c.24-.4,.61-.61,1.14-.61,.97,0,1.46,.68,1.46,1.92v1.9c0,1.34-.67,2.11-1.97,2.11s-1.97-.77-1.97-2.11Z"/>
      <path class="cls-1" d="M12.64,164.51v-4.41c0-1.34,.71-2.11,2-2.11s2,.77,2,2.11v4.41c0,1.34-.71,2.11-2,2.11s-2-.77-2-2.11Zm2.69,.08v-4.58c0-.6-.26-.83-.68-.83s-.68,.23-.68,.83v4.58c0,.6,.26,.83,.68,.83s.68-.23,.68-.83Z"/>
      <path class="cls-1" d="M21.5,164.51v-.48h1.25v.58c0,.6,.26,.82,.68,.82s.68-.22,.68-.84c0-.7-.26-1.14-1.13-1.9-1.1-.97-1.46-1.66-1.46-2.61,0-1.32,.68-2.09,1.97-2.09s1.92,.77,1.92,2.11v.35h-1.25v-.43c0-.6-.24-.83-.66-.83s-.66,.23-.66,.8c0,.61,.28,1.06,1.14,1.81,1.1,.97,1.45,1.64,1.45,2.69,0,1.37-.7,2.14-1.99,2.14s-1.94-.77-1.94-2.11Z"/>
      <path class="cls-1" d="M26.82,164.51v-4.41c0-1.34,.71-2.11,2-2.11s2,.77,2,2.11v4.41c0,1.34-.71,2.11-2,2.11s-2-.77-2-2.11Zm2.69,.08v-4.58c0-.6-.26-.83-.68-.83s-.68,.23-.68,.83v4.58c0,.6,.26,.83,.68,.83s.68-.23,.68-.83Z"/>
      <path class="cls-1" d="M32.35,164.56v-4.51c0-1.29,.67-2.06,1.94-2.06s1.94,.77,1.94,2.06v.89h-1.25v-.97c0-.55-.26-.78-.66-.78s-.66,.23-.66,.78v4.69c0,.55,.26,.77,.66,.77s.66-.22,.66-.77v-1.28h1.25v1.19c0,1.3-.67,2.06-1.94,2.06s-1.94-.77-1.94-2.06Z"/>
      <path class="cls-1" d="M37.75,158.1h1.32v8.4h-1.32v-8.4Z"/>
      <path class="cls-1" d="M41.79,158.1h1.79l1.37,8.4h-1.32l-.24-1.67v.02h-1.5l-.24,1.64h-1.22l1.37-8.4Zm1.44,5.61l-.59-4.15h-.02l-.58,4.15h1.19Z"/>
      <path class="cls-1" d="M46.3,158.1h1.32v7.2h2.17v1.2h-3.49v-8.4Z"/>
      <path class="cls-1" d="M54.63,158.1h1.94c1.32,0,1.97,.73,1.97,2.08v.83c0,1.34-.65,2.08-1.97,2.08h-.62v3.42h-1.32v-8.4Zm1.94,3.78c.42,0,.65-.19,.65-.79v-1c0-.6-.23-.79-.65-.79h-.62v2.58h.62Z"/>
      <path class="cls-1" d="M59.98,158.1h1.96c1.37,0,1.95,.64,1.95,1.93v.52c0,.86-.28,1.42-.86,1.66v.02c.66,.2,.88,.83,.88,1.77v1.48c0,.41,.01,.71,.14,1.02h-1.34c-.07-.22-.12-.35-.12-1.03v-1.54c0-.78-.23-1.03-.83-1.03h-.46v3.6h-1.32v-8.4Zm1.8,3.6c.49,0,.79-.22,.79-.89v-.65c0-.6-.2-.86-.67-.86h-.6v2.4h.48Z"/>
      <path class="cls-1" d="M65.44,164.51v-4.41c0-1.34,.71-2.11,2-2.11s2,.77,2,2.11v4.41c0,1.34-.71,2.11-2,2.11s-2-.77-2-2.11Zm2.69,.08v-4.58c0-.6-.26-.83-.68-.83s-.68,.23-.68,.83v4.58c0,.6,.26,.83,.68,.83s.68-.23,.68-.83Z"/>
      <path class="cls-1" d="M72.04,159.3h-1.38v-1.2h4.08v1.2h-1.38v7.2h-1.32v-7.2Z"/>
      <path class="cls-1" d="M76.09,158.1h3.6v1.2h-2.28v2.22h1.81v1.2h-1.81v2.58h2.28v1.2h-3.6v-8.4Z"/>
      <path class="cls-1" d="M81.09,164.56v-4.51c0-1.29,.67-2.06,1.94-2.06s1.94,.77,1.94,2.06v.89h-1.25v-.97c0-.55-.26-.78-.66-.78s-.66,.23-.66,.78v4.69c0,.55,.26,.77,.66,.77s.66-.22,.66-.77v-1.28h1.25v1.19c0,1.3-.67,2.06-1.94,2.06s-1.94-.77-1.94-2.06Z"/>
      <path class="cls-1" d="M87.52,159.3h-1.38v-1.2h4.08v1.2h-1.38v7.2h-1.32v-7.2Z"/>
      <path class="cls-1" d="M91.57,158.1h1.32v8.4h-1.32v-8.4Z"/>
      <path class="cls-1" d="M94.5,164.51v-4.41c0-1.34,.71-2.11,2-2.11s2,.77,2,2.11v4.41c0,1.34-.71,2.11-2,2.11s-2-.77-2-2.11Zm2.69,.08v-4.58c0-.6-.26-.83-.68-.83s-.68,.23-.68,.83v4.58c0,.6,.26,.83,.68,.83s.68-.23,.68-.83Z"/>
      <path class="cls-1" d="M100.12,158.1h1.66l1.28,5.03h.02v-5.03h1.18v8.4h-1.36l-1.58-6.13h-.02v6.13h-1.18v-8.4Z"/>
      <path class="cls-1" d="M1.7,171.1h1.88l.84,6.01h.02l.84-6.01h1.88v8.4h-1.25v-6.36h-.02l-.96,6.36h-1.1l-.96-6.36h-.02v6.36H1.7v-8.4Z"/>
      <path class="cls-1" d="M8.87,171.1h3.6v1.2h-2.28v2.22h1.81v1.2h-1.81v2.58h2.28v1.2h-3.6v-8.4Z"/>
      <path class="cls-1" d="M14.97,171.1h1.79l1.37,8.4h-1.32l-.24-1.67v.02h-1.5l-.24,1.64h-1.22l1.37-8.4Zm1.44,5.61l-.59-4.15h-.02l-.58,4.15h1.19Z"/>
      <path class="cls-1" d="M19.22,177.51v-.48h1.25v.58c0,.6,.26,.82,.68,.82s.68-.22,.68-.84c0-.7-.26-1.14-1.13-1.9-1.1-.97-1.46-1.66-1.46-2.61,0-1.32,.68-2.09,1.97-2.09s1.92,.77,1.92,2.11v.35h-1.25v-.43c0-.6-.24-.83-.66-.83s-.66,.23-.66,.8c0,.61,.28,1.06,1.14,1.81,1.1,.97,1.45,1.64,1.45,2.69,0,1.37-.7,2.14-1.99,2.14s-1.94-.77-1.94-2.11Z"/>
      <path class="cls-1" d="M24.58,177.51v-6.4h1.32v6.5c0,.6,.25,.82,.67,.82s.67-.22,.67-.82v-6.5h1.27v6.4c0,1.34-.67,2.11-1.97,2.11s-1.97-.77-1.97-2.11Z"/>
      <path class="cls-1" d="M30.17,171.1h1.96c1.37,0,1.95,.64,1.95,1.93v.52c0,.86-.28,1.42-.86,1.66v.02c.66,.2,.88,.83,.88,1.77v1.48c0,.41,.01,.71,.14,1.02h-1.34c-.07-.22-.12-.35-.12-1.03v-1.54c0-.78-.23-1.03-.83-1.03h-.46v3.6h-1.32v-8.4Zm1.8,3.6c.49,0,.79-.22,.79-.89v-.65c0-.6-.2-.86-.67-.86h-.6v2.4h.48Z"/>
      <path class="cls-1" d="M35.73,171.1h3.6v1.2h-2.28v2.22h1.81v1.2h-1.81v2.58h2.28v1.2h-3.6v-8.4Z"/>
      <path class="cls-1" d="M40.6,177.51v-.48h1.25v.58c0,.6,.26,.82,.68,.82s.68-.22,.68-.84c0-.7-.26-1.14-1.13-1.9-1.1-.97-1.46-1.66-1.46-2.61,0-1.32,.68-2.09,1.97-2.09s1.92,.77,1.92,2.11v.35h-1.25v-.43c0-.6-.24-.83-.66-.83s-.66,.23-.66,.8c0,.61,.28,1.06,1.14,1.81,1.1,.97,1.45,1.64,1.45,2.69,0,1.37-.7,2.14-1.99,2.14s-1.94-.77-1.94-2.11Z"/>
      <path class="cls-1" d="M50.83,171.1h1.32v8.4h-1.32v-8.4Z"/>
      <path class="cls-1" d="M53.85,171.1h1.66l1.28,5.03h.02v-5.03h1.18v8.4h-1.36l-1.58-6.13h-.02v6.13h-1.18v-8.4Z"/>
      <path class="cls-1" d="M65.55,172.3h-1.38v-1.2h4.08v1.2h-1.38v7.2h-1.32v-7.2Z"/>
      <path class="cls-1" d="M69.61,171.1h1.32v3.42h1.42v-3.42h1.32v8.4h-1.32v-3.78h-1.42v3.78h-1.32v-8.4Z"/>
      <path class="cls-1" d="M75.37,171.1h3.6v1.2h-2.28v2.22h1.81v1.2h-1.81v2.58h2.28v1.2h-3.6v-8.4Z"/>
      <path class="cls-1" d="M85.26,171.1h1.94c1.32,0,1.97,.73,1.97,2.08v.83c0,1.34-.65,2.08-1.97,2.08h-.62v3.42h-1.32v-8.4Zm1.94,3.78c.42,0,.65-.19,.65-.79v-1c0-.6-.23-.79-.65-.79h-.62v2.58h.62Z"/>
      <path class="cls-1" d="M91.21,171.1h1.79l1.37,8.4h-1.32l-.24-1.67v.02h-1.5l-.24,1.64h-1.22l1.37-8.4Zm1.44,5.61l-.59-4.15h-.02l-.58,4.15h1.19Z"/>
      <path class="cls-1" d="M95.46,177.51v-.48h1.25v.58c0,.6,.26,.82,.68,.82s.68-.22,.68-.84c0-.7-.26-1.14-1.13-1.9-1.1-.97-1.46-1.66-1.46-2.61,0-1.32,.68-2.09,1.97-2.09s1.92,.77,1.92,2.11v.35h-1.25v-.43c0-.6-.24-.83-.66-.83s-.66,.23-.66,.8c0,.61,.28,1.06,1.14,1.81,1.1,.97,1.45,1.64,1.45,2.69,0,1.37-.7,2.14-1.99,2.14s-1.94-.77-1.94-2.11Z"/>
      <path class="cls-1" d="M101.9,172.3h-1.38v-1.2h4.08v1.2h-1.38v7.2h-1.32v-7.2Z"/>
    </g>
    <rect class="cls-4" x="1.2" y="185.98" width="103.14" height="17.39"/>
    <g>
      <path class="cls-5" d="M29.36,192.29h-1.38v-.94c1.12,0,1.51-.24,1.81-1.06h.89v8.4h-1.32v-6.4Z"/>
      <path class="cls-5" d="M33.49,197.78c0-1.2,.34-1.93,1.32-2.96,1.01-1.07,1.3-1.7,1.3-2.48s-.26-.96-.68-.96-.68,.23-.68,.83v.9h-1.25v-.82c0-1.34,.67-2.11,1.97-2.11s1.97,.77,1.97,2.11c0,1-.41,1.88-1.63,3.18-.79,.84-1,1.26-1,1.85v.18h2.51v1.2h-3.81v-.91Z"/>
      <path class="cls-5" d="M42.63,190.3h1.88l.84,6.01h.02l.84-6.01h1.88v8.4h-1.25v-6.36h-.02l-.96,6.36h-1.1l-.96-6.36h-.02v6.36h-1.15v-8.4Z"/>
      <path class="cls-5" d="M50.19,196.7v-4.41c0-1.34,.71-2.11,2-2.11s2,.77,2,2.11v4.41c0,1.34-.71,2.11-2,2.11s-2-.77-2-2.11Zm2.69,.08v-4.58c0-.6-.26-.83-.68-.83s-.68,.23-.68,.83v4.58c0,.6,.26,.83,.68,.83s.68-.23,.68-.83Z"/>
      <path class="cls-5" d="M56.29,190.3h1.66l1.28,5.03h.02v-5.03h1.18v8.4h-1.36l-1.58-6.13h-.02v6.13h-1.18v-8.4Z"/>
      <path class="cls-5" d="M63.64,191.49h-1.38v-1.2h4.08v1.2h-1.38v7.2h-1.32v-7.2Z"/>
      <path class="cls-5" d="M68.18,190.3h1.32v3.42h1.42v-3.42h1.32v8.4h-1.32v-3.78h-1.42v3.78h-1.32v-8.4Z"/>
      <path class="cls-5" d="M74.19,196.7v-.48h1.25v.58c0,.6,.26,.82,.68,.82s.68-.22,.68-.84c0-.7-.26-1.14-1.13-1.9-1.1-.97-1.46-1.65-1.46-2.61,0-1.32,.68-2.09,1.97-2.09s1.92,.77,1.92,2.11v.35h-1.25v-.43c0-.6-.24-.83-.66-.83s-.66,.23-.66,.8c0,.61,.28,1.06,1.14,1.81,1.1,.97,1.45,1.64,1.45,2.69,0,1.37-.7,2.13-1.99,2.13s-1.94-.77-1.94-2.11Z"/>
    </g>
  </g>
</svg>