<?xml version="1.0" encoding="UTF-8"?>
<svg id="Layer_2" data-name="Layer 2" xmlns="http://www.w3.org/2000/svg" viewBox="0 0 119.41 174.97">
  <defs>
    <style>
      .cls-1 {
        stroke: #f9beab;
        stroke-width: .75px;
      }

      .cls-1, .cls-2, .cls-3 {
        stroke-miterlimit: 10;
      }

      .cls-1, .cls-4 {
        fill: #fbd2c4;
      }

      .cls-5 {
        fill: #939598;
      }

      .cls-6 {
        fill: #f5967f;
      }

      .cls-2 {
        stroke: #939598;
      }

      .cls-2, .cls-3 {
        fill: none;
      }

      .cls-3 {
        stroke: #fde7de;
        stroke-width: 4px;
      }

      .cls-7 {
        fill: #777677;
      }

      .cls-8 {
        fill: #e9e8e8;
      }

      .cls-9 {
        fill: #ea1d2d;
      }

      .cls-10 {
        fill: #ef6652;
      }
    </style>
  </defs>
  <g id="Layer_2-2" data-name="Layer 2">
    <g>
      <path class="cls-5" d="M1.08,21.9h3.49v1.2H2.4v2.34h1.7v1.2h-1.7v3.66H1.08v-8.4Z"/>
      <path class="cls-5" d="M6.51,21.9h1.79l1.37,8.4h-1.32l-.24-1.67v.02h-1.5l-.24,1.64h-1.22l1.37-8.4Zm1.44,5.61l-.59-4.15h-.02l-.58,4.15h1.19Z"/>
      <path class="cls-5" d="M10.85,28.35v-4.51c0-1.29,.67-2.06,1.94-2.06s1.94,.77,1.94,2.06v.89h-1.25v-.97c0-.55-.26-.78-.66-.78s-.66,.23-.66,.78v4.69c0,.55,.26,.77,.66,.77s.66-.22,.66-.77v-1.28h1.25v1.19c0,1.3-.67,2.06-1.94,2.06s-1.94-.77-1.94-2.06Z"/>
      <path class="cls-5" d="M16.19,21.9h3.6v1.2h-2.28v2.22h1.81v1.2h-1.81v2.58h2.28v1.2h-3.6v-8.4Z"/>
      <path class="cls-9" d="M23.79,21.9h1.32v3.42h1.42v-3.42h1.32v8.4h-1.32v-3.78h-1.42v3.78h-1.32v-8.4Z"/>
      <path class="cls-9" d="M29.49,21.9h1.32v8.4h-1.32v-8.4Z"/>
      <path class="cls-9" d="M32.36,28.31v-4.41c0-1.34,.67-2.11,1.97-2.11s1.97,.77,1.97,2.11v.72h-1.25v-.8c0-.6-.26-.83-.68-.83s-.68,.23-.68,.83v4.59c0,.6,.26,.82,.68,.82s.68-.22,.68-.82v-1.64h-.66v-1.2h1.91v2.75c0,1.34-.67,2.11-1.97,2.11s-1.97-.77-1.97-2.11Z"/>
      <path class="cls-9" d="M37.8,21.9h1.32v3.42h1.42v-3.42h1.32v8.4h-1.32v-3.78h-1.42v3.78h-1.32v-8.4Z"/>
      <path class="cls-9" d="M43.5,21.9h3.6v1.2h-2.28v2.22h1.81v1.2h-1.81v2.58h2.28v1.2h-3.6v-8.4Z"/>
      <path class="cls-9" d="M48.52,21.9h1.95c1.37,0,1.96,.64,1.96,1.93v.52c0,.86-.28,1.42-.86,1.66v.02c.66,.2,.88,.83,.88,1.77v1.48c0,.41,.01,.71,.14,1.02h-1.34c-.07-.22-.12-.35-.12-1.03v-1.54c0-.78-.23-1.03-.83-1.03h-.46v3.6h-1.32v-8.4Zm1.8,3.6c.49,0,.79-.22,.79-.89v-.65c0-.6-.2-.86-.67-.86h-.6v2.4h.48Z"/>
      <path class="cls-9" d="M56.25,21.9h1.33l.86,6.51h.02l.86-6.51h1.21l-1.27,8.4h-1.75l-1.27-8.4Z"/>
      <path class="cls-9" d="M61.79,28.31v-6.4h1.32v6.5c0,.6,.25,.82,.67,.82s.67-.22,.67-.82v-6.5h1.27v6.4c0,1.34-.67,2.11-1.97,2.11s-1.97-.77-1.97-2.11Z"/>
      <path class="cls-9" d="M67.32,21.9h1.32v7.2h2.17v1.2h-3.49v-8.4Z"/>
      <path class="cls-9" d="M72.11,21.9h1.66l1.28,5.03h.02v-5.03h1.18v8.4h-1.36l-1.58-6.13h-.02v6.13h-1.18v-8.4Z"/>
      <path class="cls-9" d="M77.9,21.9h3.6v1.2h-2.28v2.22h1.81v1.2h-1.81v2.58h2.28v1.2h-3.6v-8.4Z"/>
      <path class="cls-9" d="M82.91,21.9h1.96c1.37,0,1.95,.64,1.95,1.93v.52c0,.86-.28,1.42-.86,1.66v.02c.66,.2,.88,.83,.88,1.77v1.48c0,.41,.01,.71,.14,1.02h-1.34c-.07-.22-.12-.35-.12-1.03v-1.54c0-.78-.23-1.03-.83-1.03h-.46v3.6h-1.32v-8.4Zm1.8,3.6c.49,0,.79-.22,.79-.89v-.65c0-.6-.2-.86-.67-.86h-.6v2.4h.48Z"/>
      <path class="cls-9" d="M89.43,21.9h1.79l1.37,8.4h-1.32l-.24-1.67v.02h-1.5l-.24,1.64h-1.22l1.37-8.4Zm1.44,5.61l-.59-4.15h-.02l-.58,4.15h1.19Z"/>
      <path class="cls-9" d="M93.88,21.9h1.99c1.37,0,1.95,.64,1.95,1.93v.34c0,.86-.26,1.4-.85,1.64v.02c.71,.24,.98,.86,.98,1.75v.72c0,1.29-.68,1.99-2,1.99h-2.07v-8.4Zm1.83,3.42c.49,0,.79-.22,.79-.89v-.47c0-.6-.2-.86-.67-.86h-.64v2.22h.52Zm.24,3.78c.44,0,.68-.2,.68-.83v-.73c0-.78-.25-1.02-.85-1.02h-.59v2.58h.76Z"/>
      <path class="cls-9" d="M99.39,21.9h1.32v8.4h-1.32v-8.4Z"/>
      <path class="cls-9" d="M102.35,21.9h1.32v7.2h2.17v1.2h-3.49v-8.4Z"/>
      <path class="cls-9" d="M107.14,21.9h1.32v8.4h-1.32v-8.4Z"/>
      <path class="cls-9" d="M111.14,23.1h-1.38v-1.2h4.08v1.2h-1.38v7.2h-1.32v-7.2Z"/>
      <path class="cls-9" d="M116.39,26.72l-1.6-4.82h1.4l.9,3.08h.02l.9-3.08h1.28l-1.59,4.82v3.57h-1.32v-3.57Z"/>
      <path class="cls-5" d="M32.94,38.1h-1.38v-1.2h4.08v1.2h-1.38v7.2h-1.32v-7.2Z"/>
      <path class="cls-5" d="M36.8,43.31v-4.41c0-1.34,.71-2.11,2-2.11s2,.77,2,2.11v4.41c0,1.34-.71,2.11-2,2.11s-2-.77-2-2.11Zm2.69,.08v-4.58c0-.6-.26-.83-.68-.83s-.68,.23-.68,.83v4.58c0,.6,.26,.83,.68,.83s.68-.23,.68-.83Z"/>
      <path class="cls-5" d="M44.93,36.9h2.01c1.32,0,1.97,.73,1.97,2.08v4.25c0,1.34-.65,2.07-1.97,2.07h-2.01v-8.4Zm1.99,7.2c.42,0,.67-.22,.67-.82v-4.37c0-.6-.25-.82-.67-.82h-.67v6h.67Z"/>
      <path class="cls-5" d="M50.46,36.9h1.32v8.4h-1.32v-8.4Z"/>
      <path class="cls-5" d="M53.2,43.31v-.48h1.25v.58c0,.6,.26,.82,.68,.82s.68-.22,.68-.84c0-.7-.26-1.14-1.13-1.9-1.1-.97-1.46-1.65-1.46-2.61,0-1.32,.68-2.09,1.97-2.09s1.92,.77,1.92,2.11v.35h-1.25v-.43c0-.6-.24-.83-.66-.83s-.66,.23-.66,.8c0,.61,.28,1.06,1.14,1.81,1.1,.97,1.45,1.64,1.45,2.69,0,1.37-.7,2.13-1.99,2.13s-1.94-.77-1.94-2.11Z"/>
      <path class="cls-5" d="M59.54,36.9h1.79l1.37,8.4h-1.32l-.24-1.67v.02h-1.5l-.24,1.64h-1.22l1.37-8.4Zm1.44,5.61l-.59-4.15h-.02l-.58,4.15h1.19Z"/>
      <path class="cls-5" d="M63.72,43.31v-.48h1.25v.58c0,.6,.26,.82,.68,.82s.68-.22,.68-.84c0-.7-.26-1.14-1.13-1.9-1.1-.97-1.46-1.65-1.46-2.61,0-1.32,.68-2.09,1.97-2.09s1.92,.77,1.92,2.11v.35h-1.25v-.43c0-.6-.24-.83-.66-.83s-.66,.23-.66,.8c0,.61,.28,1.06,1.14,1.81,1.1,.97,1.45,1.64,1.45,2.69,0,1.37-.7,2.13-1.99,2.13s-1.94-.77-1.94-2.11Z"/>
      <path class="cls-5" d="M70.11,38.1h-1.38v-1.2h4.08v1.2h-1.38v7.2h-1.32v-7.2Z"/>
      <path class="cls-5" d="M74.1,36.9h3.6v1.2h-2.28v2.22h1.81v1.2h-1.81v2.58h2.28v1.2h-3.6v-8.4Z"/>
      <path class="cls-5" d="M79.12,36.9h1.96c1.37,0,1.95,.64,1.95,1.93v.52c0,.86-.28,1.42-.86,1.66v.02c.66,.2,.88,.83,.88,1.77v1.48c0,.41,.01,.71,.14,1.02h-1.34c-.07-.22-.12-.35-.12-1.03v-1.54c0-.78-.23-1.03-.83-1.03h-.46v3.6h-1.32v-8.4Zm1.8,3.6c.49,0,.79-.22,.79-.89v-.65c0-.6-.2-.86-.67-.86h-.6v2.4h.48Z"/>
      <path class="cls-5" d="M84.39,43.31v-.48h1.25v.58c0,.6,.26,.82,.68,.82s.68-.22,.68-.84c0-.7-.26-1.14-1.13-1.9-1.1-.97-1.46-1.65-1.46-2.61,0-1.32,.68-2.09,1.97-2.09s1.92,.77,1.92,2.11v.35h-1.25v-.43c0-.6-.24-.83-.66-.83s-.66,.23-.66,.8c0,.61,.28,1.06,1.14,1.81,1.1,.97,1.45,1.64,1.45,2.69,0,1.37-.7,2.13-1.99,2.13s-1.94-.77-1.94-2.11Z"/>
    </g>
    <rect class="cls-8" x="10.64" y="57.81" width="101.4" height="33.82"/>
    <line class="cls-3" x1="92.66" y1="40.66" x2="117.82" y2="40.66"/>
    <line class="cls-3" x1="1.18" y1="40.66" x2="26.34" y2="40.66"/>
    <g>
      <path class="cls-5" d="M45.3,101.98v-4.45c0-1.01,.4-1.38,1.39-1.38h.31v.81h-.24c-.31,0-.46,.12-.46,.57v4.45c0,.45,.14,.57,.46,.57h.24v.81h-.31c-.99,0-1.39-.37-1.39-1.38Z"/>
      <path class="cls-5" d="M47.65,102.22c0-.9,.25-1.45,.99-2.22,.76-.8,.97-1.28,.97-1.86s-.2-.72-.51-.72-.51,.17-.51,.62v.68h-.94v-.61c0-1.01,.5-1.58,1.48-1.58s1.48,.58,1.48,1.58c0,.75-.31,1.41-1.22,2.39-.59,.63-.75,.95-.75,1.39v.13h1.88v.9h-2.86v-.68Z"/>
      <path class="cls-5" d="M51.2,101.41v-3.31c0-1.01,.53-1.58,1.5-1.58s1.5,.58,1.5,1.58v3.31c0,1.01-.53,1.58-1.5,1.58s-1.5-.58-1.5-1.58Zm2.02,.06v-3.44c0-.45-.2-.62-.51-.62s-.51,.17-.51,.62v3.44c0,.45,.2,.62,.51,.62s.51-.17,.51-.62Z"/>
      <path class="cls-5" d="M56.26,98.1h-1.04v-.7c.84,0,1.13-.18,1.36-.79h.67v6.3h-.99v-4.81Z"/>
      <path class="cls-5" d="M58.45,102.22c0-.9,.25-1.45,.99-2.22,.76-.8,.97-1.28,.97-1.86s-.2-.72-.51-.72-.51,.17-.51,.62v.68h-.94v-.61c0-1.01,.5-1.58,1.48-1.58s1.48,.58,1.48,1.58c0,.75-.31,1.41-1.22,2.39-.59,.63-.75,.95-.75,1.39v.13h1.88v.9h-2.86v-.68Z"/>
      <path class="cls-5" d="M61.93,99.31h1.98v.9h-1.98v-.9Z"/>
      <path class="cls-5" d="M64.48,102.22c0-.9,.25-1.45,.99-2.22,.76-.8,.97-1.28,.97-1.86s-.2-.72-.51-.72-.51,.17-.51,.62v.68h-.94v-.61c0-1.01,.5-1.58,1.48-1.58s1.48,.58,1.48,1.58c0,.75-.31,1.41-1.22,2.39-.59,.63-.75,.95-.75,1.39v.13h1.88v.9h-2.86v-.68Z"/>
      <path class="cls-5" d="M68.03,101.41v-3.31c0-1.01,.53-1.58,1.5-1.58s1.5,.58,1.5,1.58v3.31c0,1.01-.53,1.58-1.5,1.58s-1.5-.58-1.5-1.58Zm2.02,.06v-3.44c0-.45-.2-.62-.51-.62s-.51,.17-.51,.62v3.44c0,.45,.2,.62,.51,.62s.51-.17,.51-.62Z"/>
      <path class="cls-5" d="M71.68,102.22c0-.9,.25-1.45,.99-2.22,.76-.8,.97-1.28,.97-1.86s-.2-.72-.51-.72-.51,.17-.51,.62v.68h-.94v-.61c0-1.01,.5-1.58,1.48-1.58s1.48,.58,1.48,1.58c0,.75-.31,1.41-1.22,2.39-.59,.63-.75,.95-.75,1.39v.13h1.88v.9h-2.86v-.68Z"/>
      <path class="cls-5" d="M76.69,98.1h-1.04v-.7c.84,0,1.13-.18,1.36-.79h.67v6.3h-.99v-4.81Z"/>
      <path class="cls-5" d="M78.85,102.55h.24c.32,0,.46-.12,.46-.57v-4.45c0-.45-.14-.57-.46-.57h-.24v-.81h.31c.99,0,1.39,.37,1.39,1.38v4.45c0,1.01-.4,1.38-1.39,1.38h-.31v-.81Z"/>
    </g>
    <g>
      <path class="cls-7" d="M15.36,60.9h1.19l.91,5.6h-.88l-.16-1.11v.02h-1l-.16,1.1h-.82l.91-5.6Zm.96,3.74l-.39-2.77h-.02l-.38,2.77h.79Z"/>
      <path class="cls-7" d="M18.23,60.9h.89l.58,4.34h.02l.58-4.34h.81l-.85,5.6h-1.17l-.85-5.6Z"/>
      <path class="cls-7" d="M22.32,60.9h2.4v.8h-1.52v1.48h1.21v.8h-1.21v1.72h1.52v.8h-2.4v-5.6Z"/>
      <path class="cls-7" d="M26.03,60.9h1.3c.91,0,1.3,.42,1.3,1.29v.34c0,.58-.18,.94-.58,1.1v.02c.44,.14,.58,.55,.58,1.18v.98c0,.27,0,.47,.1,.68h-.9c-.05-.14-.08-.23-.08-.69v-1.02c0-.52-.15-.69-.55-.69h-.3v2.4h-.88v-5.6Zm1.2,2.4c.33,0,.53-.14,.53-.59v-.43c0-.4-.14-.58-.45-.58h-.4v1.6h.32Z"/>
      <path class="cls-7" d="M30.73,60.9h1.19l.91,5.6h-.88l-.16-1.11v.02h-1l-.16,1.1h-.82l.91-5.6Zm.96,3.74l-.39-2.77h-.02l-.38,2.77h.79Z"/>
      <path class="cls-7" d="M33.98,65.17v-2.94c0-.9,.45-1.41,1.31-1.41s1.31,.51,1.31,1.41v.48h-.83v-.54c0-.4-.18-.55-.46-.55s-.46,.15-.46,.55v3.06c0,.4,.18,.54,.46,.54s.46-.14,.46-.54v-1.1h-.44v-.8h1.27v1.83c0,.9-.45,1.41-1.31,1.41s-1.31-.51-1.31-1.41Z"/>
      <path class="cls-7" d="M37.97,60.9h2.4v.8h-1.52v1.48h1.21v.8h-1.21v1.72h1.52v.8h-2.4v-5.6Z"/>
      <path class="cls-7" d="M46.62,60.9h1.19l.91,5.6h-.88l-.16-1.11v.02h-1l-.16,1.1h-.82l.91-5.6Zm.96,3.74l-.39-2.77h-.02l-.38,2.77h.79Z"/>
      <path class="cls-7" d="M49.95,60.9h1.1l.86,3.35h.02v-3.35h.78v5.6h-.9l-1.06-4.09h-.02v4.09h-.78v-5.6Z"/>
      <path class="cls-7" d="M54.16,60.9h1.1l.86,3.35h.02v-3.35h.78v5.6h-.9l-1.06-4.09h-.02v4.09h-.78v-5.6Z"/>
      <path class="cls-7" d="M58.35,65.17v-4.27h.88v4.33c0,.4,.17,.54,.45,.54s.45-.14,.45-.54v-4.33h.85v4.27c0,.9-.45,1.41-1.31,1.41s-1.31-.51-1.31-1.41Z"/>
      <path class="cls-7" d="M63.06,60.9h1.19l.91,5.6h-.88l-.16-1.11v.02h-1l-.16,1.1h-.82l.91-5.6Zm.96,3.74l-.39-2.77h-.02l-.38,2.77h.79Z"/>
      <path class="cls-7" d="M66.39,60.9h.88v4.8h1.45v.8h-2.33v-5.6Z"/>
      <path class="cls-7" d="M74.21,60.9h1.1l.86,3.35h.02v-3.35h.78v5.6h-.9l-1.06-4.09h-.02v4.09h-.78v-5.6Z"/>
      <path class="cls-7" d="M78.39,65.17v-4.27h.88v4.33c0,.4,.17,.54,.45,.54s.45-.14,.45-.54v-4.33h.85v4.27c0,.9-.45,1.41-1.31,1.41s-1.31-.51-1.31-1.41Z"/>
      <path class="cls-7" d="M82.44,60.9h1.26l.56,4.01h.02l.56-4.01h1.26v5.6h-.83v-4.24h-.02l-.64,4.24h-.74l-.64-4.24h-.02v4.24h-.77v-5.6Z"/>
      <path class="cls-7" d="M87.54,60.9h1.33c.91,0,1.3,.42,1.3,1.29v.22c0,.58-.18,.94-.57,1.1v.02c.47,.16,.66,.58,.66,1.17v.48c0,.86-.46,1.33-1.34,1.33h-1.38v-5.6Zm1.22,2.28c.33,0,.53-.14,.53-.59v-.31c0-.4-.14-.58-.45-.58h-.42v1.48h.34Zm.16,2.52c.3,0,.46-.14,.46-.55v-.49c0-.52-.17-.68-.57-.68h-.39v1.72h.5Z"/>
      <path class="cls-7" d="M91.57,60.9h2.4v.8h-1.52v1.48h1.21v.8h-1.21v1.72h1.52v.8h-2.4v-5.6Z"/>
      <path class="cls-7" d="M95.28,60.9h1.3c.91,0,1.3,.42,1.3,1.29v.34c0,.58-.18,.94-.58,1.1v.02c.44,.14,.58,.55,.58,1.18v.98c0,.27,0,.47,.1,.68h-.9c-.05-.14-.08-.23-.08-.69v-1.02c0-.52-.15-.69-.55-.69h-.3v2.4h-.88v-5.6Zm1.2,2.4c.33,0,.53-.14,.53-.59v-.43c0-.4-.14-.58-.45-.58h-.4v1.6h.32Z"/>
      <path class="cls-7" d="M103.5,65.17v-2.94c0-.9,.47-1.41,1.34-1.41s1.34,.51,1.34,1.41v2.94c0,.9-.47,1.41-1.34,1.41s-1.34-.51-1.34-1.41Zm1.79,.06v-3.05c0-.4-.18-.55-.46-.55s-.46,.15-.46,.55v3.05c0,.4,.18,.55,.46,.55s.46-.15,.46-.55Z"/>
      <path class="cls-7" d="M107.57,60.9h2.33v.8h-1.45v1.56h1.14v.8h-1.14v2.44h-.88v-5.6Z"/>
      <path class="cls-7" d="M14.68,71.9h1.34c.88,0,1.31,.49,1.31,1.38v2.83c0,.9-.43,1.38-1.31,1.38h-1.34v-5.6Zm1.33,4.8c.28,0,.45-.14,.45-.54v-2.91c0-.4-.17-.54-.45-.54h-.45v4h.45Z"/>
      <path class="cls-7" d="M18.73,71.9h2.4v.8h-1.52v1.48h1.21v.8h-1.21v1.72h1.52v.8h-2.4v-5.6Z"/>
      <path class="cls-7" d="M23.11,71.9h1.19l.91,5.6h-.88l-.16-1.11v.02h-1l-.16,1.1h-.82l.91-5.6Zm.96,3.74l-.39-2.77h-.02l-.38,2.77h.79Z"/>
      <path class="cls-7" d="M26.76,72.7h-.92v-.8h2.72v.8h-.92v4.8h-.88v-4.8Z"/>
      <path class="cls-7" d="M29.79,71.9h.88v2.28h.94v-2.28h.88v5.6h-.88v-2.52h-.94v2.52h-.88v-5.6Z"/>
      <path class="cls-7" d="M33.79,76.17v-.32h.83v.38c0,.4,.18,.54,.46,.54s.46-.14,.46-.56c0-.46-.18-.76-.75-1.26-.74-.65-.98-1.1-.98-1.74,0-.88,.46-1.39,1.31-1.39s1.28,.51,1.28,1.41v.23h-.83v-.29c0-.4-.16-.55-.44-.55s-.44,.15-.44,.54c0,.41,.18,.7,.76,1.21,.74,.65,.97,1.1,.97,1.79,0,.91-.46,1.42-1.33,1.42s-1.3-.51-1.3-1.41Z"/>
      <path class="cls-7" d="M41.83,76.17v-2.94c0-.9,.47-1.41,1.34-1.41s1.34,.51,1.34,1.41v2.94c0,.9-.47,1.41-1.34,1.41s-1.34-.51-1.34-1.41Zm1.79,.06v-3.05c0-.4-.18-.55-.46-.55s-.46,.15-.46,.55v3.05c0,.4,.18,.55,.46,.55s.46-.15,.46-.55Z"/>
      <path class="cls-7" d="M45.89,71.9h1.3c.91,0,1.3,.42,1.3,1.29v.34c0,.58-.18,.94-.58,1.1v.02c.44,.14,.58,.55,.58,1.18v.98c0,.27,0,.47,.1,.68h-.9c-.05-.14-.08-.23-.08-.69v-1.02c0-.52-.15-.69-.55-.69h-.3v2.4h-.88v-5.6Zm1.2,2.4c.33,0,.53-.14,.53-.59v-.43c0-.4-.14-.58-.45-.58h-.4v1.6h.32Z"/>
      <path class="cls-7" d="M54.09,71.9h1.26l.56,4.01h.02l.56-4.01h1.26v5.6h-.83v-4.24h-.02l-.64,4.24h-.74l-.64-4.24h-.02v4.24h-.77v-5.6Z"/>
      <path class="cls-7" d="M59.19,71.9h.88v5.6h-.88v-5.6Z"/>
      <path class="cls-7" d="M61.38,76.17v-.32h.83v.38c0,.4,.18,.54,.46,.54s.46-.14,.46-.56c0-.46-.18-.76-.75-1.26-.74-.65-.98-1.1-.98-1.74,0-.88,.46-1.39,1.31-1.39s1.28,.51,1.28,1.41v.23h-.83v-.29c0-.4-.16-.55-.44-.55s-.44,.15-.44,.54c0,.41,.18,.7,.76,1.21,.74,.65,.97,1.1,.97,1.79,0,.91-.46,1.42-1.33,1.42s-1.3-.51-1.3-1.41Z"/>
      <path class="cls-7" d="M65.15,76.17v-.32h.83v.38c0,.4,.18,.54,.46,.54s.46-.14,.46-.56c0-.46-.18-.76-.75-1.26-.74-.65-.98-1.1-.98-1.74,0-.88,.46-1.39,1.31-1.39s1.28,.51,1.28,1.41v.23h-.83v-.29c0-.4-.16-.55-.44-.55s-.44,.15-.44,.54c0,.41,.18,.7,.76,1.21,.74,.65,.97,1.1,.97,1.79,0,.91-.46,1.42-1.33,1.42s-1.3-.51-1.3-1.41Z"/>
      <path class="cls-7" d="M69.08,71.9h.88v5.6h-.88v-5.6Z"/>
      <path class="cls-7" d="M71.42,71.9h1.1l.86,3.35h.02v-3.35h.78v5.6h-.9l-1.06-4.09h-.02v4.09h-.78v-5.6Z"/>
      <path class="cls-7" d="M75.57,76.17v-2.94c0-.9,.45-1.41,1.31-1.41s1.31,.51,1.31,1.41v.48h-.83v-.54c0-.4-.18-.55-.46-.55s-.46,.15-.46,.55v3.06c0,.4,.18,.54,.46,.54s.46-.14,.46-.54v-1.1h-.44v-.8h1.27v1.83c0,.9-.45,1.41-1.31,1.41s-1.31-.51-1.31-1.41Z"/>
      <path class="cls-7" d="M83.73,71.9h1.3c.88,0,1.31,.49,1.31,1.38v.55c0,.9-.43,1.38-1.31,1.38h-.42v2.28h-.88v-5.6Zm1.3,2.52c.28,0,.43-.13,.43-.53v-.66c0-.4-.15-.53-.43-.53h-.42v1.72h.42Z"/>
      <path class="cls-7" d="M87.62,71.9h2.4v.8h-1.52v1.48h1.21v.8h-1.21v1.72h1.52v.8h-2.4v-5.6Z"/>
      <path class="cls-7" d="M91.33,71.9h1.3c.91,0,1.3,.42,1.3,1.29v.34c0,.58-.18,.94-.58,1.1v.02c.44,.14,.58,.55,.58,1.18v.98c0,.27,0,.47,.1,.68h-.9c-.05-.14-.08-.23-.08-.69v-1.02c0-.52-.15-.69-.55-.69h-.3v2.4h-.88v-5.6Zm1.2,2.4c.33,0,.53-.14,.53-.59v-.43c0-.4-.14-.58-.45-.58h-.4v1.6h.32Z"/>
      <path class="cls-7" d="M95.2,76.17v-.32h.83v.38c0,.4,.18,.54,.46,.54s.46-.14,.46-.56c0-.46-.18-.76-.75-1.26-.74-.65-.98-1.1-.98-1.74,0-.88,.46-1.39,1.31-1.39s1.28,.51,1.28,1.41v.23h-.83v-.29c0-.4-.16-.55-.44-.55s-.44,.15-.44,.54c0,.41,.18,.7,.76,1.21,.74,.65,.97,1.1,.97,1.79,0,.91-.46,1.42-1.33,1.42s-1.3-.51-1.3-1.41Z"/>
      <path class="cls-7" d="M99.06,76.17v-2.94c0-.9,.47-1.41,1.34-1.41s1.34,.51,1.34,1.41v2.94c0,.9-.47,1.41-1.34,1.41s-1.34-.51-1.34-1.41Zm1.79,.06v-3.05c0-.4-.18-.55-.46-.55s-.46,.15-.46,.55v3.05c0,.4,.18,.55,.46,.55s.46-.15,.46-.55Z"/>
      <path class="cls-7" d="M103.13,71.9h1.1l.86,3.35h.02v-3.35h.78v5.6h-.9l-1.06-4.09h-.02v4.09h-.78v-5.6Z"/>
      <path class="cls-7" d="M107.19,76.17v-.32h.83v.38c0,.4,.18,.54,.46,.54s.46-.14,.46-.56c0-.46-.18-.76-.75-1.26-.74-.65-.98-1.1-.98-1.74,0-.88,.46-1.39,1.31-1.39s1.28,.51,1.28,1.41v.23h-.83v-.29c0-.4-.16-.55-.44-.55s-.44,.15-.44,.54c0,.41,.18,.7,.76,1.21,.74,.65,.97,1.1,.97,1.79,0,.91-.46,1.42-1.33,1.42s-1.3-.51-1.3-1.41Z"/>
      <path class="cls-7" d="M14.68,82.9h1.3c.88,0,1.31,.49,1.31,1.38v.55c0,.9-.43,1.38-1.31,1.38h-.42v2.28h-.88v-5.6Zm1.3,2.52c.28,0,.43-.13,.43-.53v-.66c0-.4-.15-.53-.43-.53h-.42v1.72h.42Z"/>
      <path class="cls-7" d="M18.57,82.9h2.4v.8h-1.52v1.48h1.21v.8h-1.21v1.72h1.52v.8h-2.4v-5.6Z"/>
      <path class="cls-7" d="M22.27,82.9h1.3c.91,0,1.3,.42,1.3,1.29v.34c0,.58-.18,.94-.58,1.1v.02c.44,.14,.58,.55,.58,1.18v.98c0,.27,0,.47,.1,.68h-.9c-.05-.14-.08-.23-.08-.69v-1.02c0-.52-.15-.69-.55-.69h-.3v2.4h-.88v-5.6Zm1.2,2.4c.33,0,.53-.14,.53-.59v-.43c0-.4-.14-.58-.45-.58h-.4v1.6h.32Z"/>
      <path class="cls-7" d="M38.15,84.22h-.92v-.62c.74,0,1.01-.16,1.21-.7h.59v5.6h-.88v-4.27Z"/>
      <path class="cls-7" d="M40.85,87.17v-2.94c0-.9,.47-1.41,1.34-1.41s1.34,.51,1.34,1.41v2.94c0,.9-.47,1.41-1.34,1.41s-1.34-.51-1.34-1.41Zm1.79,.06v-3.05c0-.4-.18-.55-.46-.55s-.46,.15-.46,.55v3.05c0,.4,.18,.55,.46,.55s.46-.15,.46-.55Z"/>
      <path class="cls-7" d="M44.85,87.17v-2.94c0-.9,.47-1.41,1.34-1.41s1.34,.51,1.34,1.41v2.94c0,.9-.47,1.41-1.34,1.41s-1.34-.51-1.34-1.41Zm1.79,.06v-3.05c0-.4-.18-.55-.46-.55s-.46,.15-.46,.55v3.05c0,.4,.18,.55,.46,.55s.46-.15,.46-.55Z"/>
      <path class="cls-7" d="M49.2,88.49h-.29v-.85h.85v.76l-.44,1.05h-.41l.29-.96Z"/>
      <path class="cls-7" d="M51.16,87.17v-2.94c0-.9,.47-1.41,1.34-1.41s1.34,.51,1.34,1.41v2.94c0,.9-.47,1.41-1.34,1.41s-1.34-.51-1.34-1.41Zm1.79,.06v-3.05c0-.4-.18-.55-.46-.55s-.46,.15-.46,.55v3.05c0,.4,.18,.55,.46,.55s.46-.15,.46-.55Z"/>
      <path class="cls-7" d="M55.16,87.17v-2.94c0-.9,.47-1.41,1.34-1.41s1.34,.51,1.34,1.41v2.94c0,.9-.47,1.41-1.34,1.41s-1.34-.51-1.34-1.41Zm1.79,.06v-3.05c0-.4-.18-.55-.46-.55s-.46,.15-.46,.55v3.05c0,.4,.18,.55,.46,.55s.46-.15,.46-.55Z"/>
      <path class="cls-7" d="M59.16,87.17v-2.94c0-.9,.47-1.41,1.34-1.41s1.34,.51,1.34,1.41v2.94c0,.9-.47,1.41-1.34,1.41s-1.34-.51-1.34-1.41Zm1.79,.06v-3.05c0-.4-.18-.55-.46-.55s-.46,.15-.46,.55v3.05c0,.4,.18,.55,.46,.55s.46-.15,.46-.55Z"/>
      <path class="cls-7" d="M73.84,82.9h1.3c.88,0,1.31,.49,1.31,1.38v.55c0,.9-.43,1.38-1.31,1.38h-.42v2.28h-.88v-5.6Zm1.3,2.52c.28,0,.43-.13,.43-.53v-.66c0-.4-.15-.53-.43-.53h-.42v1.72h.42Z"/>
      <path class="cls-7" d="M77.66,87.17v-2.94c0-.9,.47-1.41,1.34-1.41s1.34,.51,1.34,1.41v2.94c0,.9-.47,1.41-1.34,1.41s-1.34-.51-1.34-1.41Zm1.79,.06v-3.05c0-.4-.18-.55-.46-.55s-.46,.15-.46,.55v3.05c0,.4,.18,.55,.46,.55s.46-.15,.46-.55Z"/>
      <path class="cls-7" d="M81.73,82.9h1.3c.88,0,1.31,.49,1.31,1.38v.55c0,.9-.43,1.38-1.31,1.38h-.42v2.28h-.88v-5.6Zm1.3,2.52c.28,0,.43-.13,.43-.53v-.66c0-.4-.15-.53-.43-.53h-.42v1.72h.42Z"/>
      <path class="cls-7" d="M85.58,87.17v-4.27h.88v4.33c0,.4,.17,.54,.45,.54s.45-.14,.45-.54v-4.33h.85v4.27c0,.9-.45,1.41-1.31,1.41s-1.31-.51-1.31-1.41Z"/>
      <path class="cls-7" d="M89.63,82.9h.88v4.8h1.45v.8h-2.33v-5.6Z"/>
      <path class="cls-7" d="M93.89,82.9h1.19l.91,5.6h-.88l-.16-1.11v.02h-1l-.16,1.1h-.82l.91-5.6Zm.96,3.74l-.39-2.77h-.02l-.38,2.77h.79Z"/>
      <path class="cls-7" d="M97.54,83.7h-.92v-.8h2.72v.8h-.92v4.8h-.88v-4.8Z"/>
      <path class="cls-7" d="M100.57,82.9h.88v5.6h-.88v-5.6Z"/>
      <path class="cls-7" d="M102.84,87.17v-2.94c0-.9,.47-1.41,1.34-1.41s1.34,.51,1.34,1.41v2.94c0,.9-.47,1.41-1.34,1.41s-1.34-.51-1.34-1.41Zm1.79,.06v-3.05c0-.4-.18-.55-.46-.55s-.46,.15-.46,.55v3.05c0,.4,.18,.55,.46,.55s.46-.15,.46-.55Z"/>
      <path class="cls-7" d="M106.9,82.9h1.1l.86,3.35h.02v-3.35h.78v5.6h-.9l-1.06-4.09h-.02v4.09h-.78v-5.6Z"/>
    </g>
    <g>
      <polygon class="cls-4" points="11.92 145.18 17.24 155.83 22.56 166.47 11.92 166.47 1.28 166.47 6.6 155.83 11.92 145.18"/>
      <polygon class="cls-6" points="35.38 140.91 41.77 153.69 48.16 166.47 35.38 166.47 22.6 166.47 28.99 153.69 35.38 140.91"/>
      <polygon class="cls-9" points="67.46 128.06 77.07 147.27 86.67 166.47 67.46 166.47 48.26 166.47 57.86 147.27 67.46 128.06"/>
      <polygon class="cls-10" points="102.22 135.25 110.03 150.86 117.83 166.47 102.22 166.47 86.61 166.47 94.42 150.86 102.22 135.25"/>
      <g>
        <path class="cls-5" d="M7.79,139.02v-2.58c0-.78,.41-1.23,1.17-1.23s1.17,.45,1.17,1.23v2.58c0,.78-.41,1.23-1.17,1.23s-1.17-.45-1.17-1.23Zm1.57,.05v-2.68c0-.35-.15-.48-.4-.48s-.4,.13-.4,.48v2.68c0,.35,.15,.48,.4,.48s.4-.13,.4-.48Z"/>
        <path class="cls-5" d="M10.65,139.44h.74v.74h-.74v-.74Z"/>
        <path class="cls-5" d="M11.87,139.05v-.43c0-.47,.14-.81,.5-1h0c-.32-.19-.48-.5-.48-.98v-.2c0-.78,.43-1.21,1.18-1.21s1.18,.43,1.18,1.21v.2c0,.48-.16,.79-.48,.97h0c.36,.2,.5,.55,.5,1.02v.43c0,.78-.43,1.21-1.2,1.21s-1.2-.43-1.2-1.21Zm1.64-.04v-.47c0-.37-.15-.55-.43-.55s-.43,.18-.43,.55v.47c0,.37,.15,.55,.43,.55s.43-.18,.43-.55Zm-.03-2.21v-.39c0-.32-.14-.49-.41-.49s-.41,.17-.41,.49v.39c0,.32,.14,.49,.41,.49s.41-.17,.41-.49Z"/>
        <path class="cls-5" d="M14.73,139.02v-2.54c0-.83,.38-1.28,1.18-1.28,.76,0,1.15,.45,1.15,1.23v.09h-.73v-.14c0-.35-.15-.48-.4-.48-.27,0-.43,.13-.43,.6v.94h.01c.13-.28,.36-.43,.7-.43,.57,0,.85,.4,.85,1.12v.88c0,.78-.41,1.23-1.17,1.23s-1.17-.45-1.17-1.23Zm1.57,.06v-.87c0-.33-.13-.48-.4-.48s-.4,.15-.4,.48v.87c0,.32,.13,.48,.4,.48s.4-.15,.4-.48Z"/>
      </g>
      <g>
        <path class="cls-5" d="M32.35,132.17h-.81v-.55c.65,0,.88-.14,1.06-.62h.52v4.9h-.77v-3.74Z"/>
        <path class="cls-5" d="M34.07,135.17h.74v.74h-.74v-.74Z"/>
        <path class="cls-5" d="M35.37,135.38c0-.7,.2-1.13,.77-1.73,.59-.62,.76-.99,.76-1.45s-.15-.56-.4-.56-.4,.13-.4,.48v.53h-.73v-.48c0-.78,.39-1.23,1.15-1.23s1.15,.45,1.15,1.23c0,.58-.24,1.1-.95,1.86-.46,.49-.58,.74-.58,1.08v.11h1.46v.7h-2.23v-.53Z"/>
        <path class="cls-5" d="M39.48,135.02h-1.47v-.7l1.4-3.31h.84v3.31h.36v.7h-.36v.89h-.77v-.89Zm0-.7v-1.91h-.01l-.76,1.91h.77Z"/>
      </g>
      <g>
        <path class="cls-5" d="M63.24,122.53c0-.7,.2-1.13,.77-1.73,.59-.62,.76-1,.76-1.45s-.15-.56-.4-.56-.4,.13-.4,.48v.53h-.73v-.48c0-.78,.39-1.23,1.15-1.23s1.15,.45,1.15,1.23c0,.58-.24,1.1-.95,1.86-.46,.49-.58,.74-.58,1.08v.11h1.46v.7h-2.23v-.53Z"/>
        <path class="cls-5" d="M66.06,122.32h.74v.74h-.74v-.74Z"/>
        <path class="cls-5" d="M67.28,121.92v-.43c0-.47,.14-.81,.5-1h0c-.32-.19-.48-.5-.48-.98v-.2c0-.78,.43-1.21,1.18-1.21s1.18,.43,1.18,1.21v.2c0,.48-.16,.79-.48,.97h0c.36,.2,.5,.55,.5,1.02v.43c0,.78-.43,1.21-1.2,1.21s-1.2-.43-1.2-1.21Zm1.64-.04v-.47c0-.37-.15-.55-.43-.55s-.43,.18-.43,.55v.47c0,.37,.15,.55,.43,.55s.43-.18,.43-.55Zm-.03-2.21v-.39c0-.32-.14-.49-.41-.49s-.41,.17-.41,.49v.39c0,.32,.14,.49,.41,.49s.41-.17,.41-.49Z"/>
        <path class="cls-5" d="M70.12,121.9v-2.58c0-.78,.41-1.23,1.17-1.23s1.17,.45,1.17,1.23v2.58c0,.78-.41,1.23-1.17,1.23s-1.17-.45-1.17-1.23Zm1.57,.05v-2.68c0-.35-.15-.48-.4-.48s-.4,.13-.4,.48v2.68c0,.35,.15,.48,.4,.48s.4-.13,.4-.48Z"/>
      </g>
      <g>
        <path class="cls-5" d="M99.15,126.51h-.81v-.55c.65,0,.88-.14,1.06-.62h.52v4.9h-.77v-3.74Z"/>
        <path class="cls-5" d="M100.87,129.51h.74v.74h-.74v-.74Z"/>
        <path class="cls-5" d="M102.1,129.11v-.43c0-.47,.14-.81,.5-1h0c-.32-.19-.48-.5-.48-.98v-.2c0-.78,.43-1.21,1.18-1.21s1.18,.43,1.18,1.21v.2c0,.48-.16,.79-.48,.97h0c.36,.2,.5,.55,.5,1.02v.43c0,.78-.43,1.21-1.2,1.21s-1.2-.43-1.2-1.21Zm1.64-.04v-.47c0-.37-.15-.55-.43-.55s-.43,.18-.43,.55v.47c0,.37,.15,.55,.43,.55s.43-.18,.43-.55Zm-.03-2.21v-.39c0-.32-.14-.49-.41-.49s-.41,.17-.41,.49v.39c0,.32,.14,.49,.41,.49s.41-.17,.41-.49Z"/>
        <path class="cls-5" d="M104.97,129.09v-.39h.73v.44c0,.35,.15,.48,.4,.48s.4-.13,.4-.48v-1.1c0-.35-.15-.48-.4-.48s-.4,.13-.4,.48v.04h-.73l.14-2.74h2.03v.7h-1.34l-.06,1.17h.01c.14-.23,.36-.36,.67-.36,.57,0,.85,.4,.85,1.12v1.11c0,.78-.39,1.23-1.15,1.23s-1.15-.45-1.15-1.23Z"/>
      </g>
    </g>
    <g>
      <g>
        <path class="cls-5" d="M1.36,.19H3.4V11.35h3.37v1.86H1.36V.19Z"/>
        <path class="cls-5" d="M8.17,.19h3.12c2.05,0,3.05,1.13,3.05,3.22v6.58c0,2.08-1,3.22-3.05,3.22h-3.12V.19Zm3.09,11.16c.65,0,1.04-.33,1.04-1.27V3.31c0-.93-.39-1.26-1.04-1.26h-1.04V11.35h1.04Z"/>
        <path class="cls-5" d="M16.01,10.19V3.2c0-2.01,1.04-3.2,3.01-3.2s3.01,1.19,3.01,3.2v1.38h-1.93v-1.51c0-.86-.41-1.21-1.02-1.21s-1.02,.35-1.02,1.21v7.27c0,.86,.41,1.19,1.02,1.19s1.02-.33,1.02-1.19v-1.99h1.93v1.84c0,2.01-1.04,3.2-3.01,3.2s-3.01-1.19-3.01-3.2Z"/>
        <path class="cls-5" d="M23.25,10.66v-.61h1.59v.74c0,.77,.34,1.04,.87,1.04s.87-.28,.87-1.07c0-.89-.34-1.46-1.44-2.42-1.41-1.24-1.87-2.11-1.87-3.34,0-1.69,.87-2.67,2.51-2.67s2.45,.98,2.45,2.7v.44h-1.59v-.55c0-.77-.31-1.06-.84-1.06s-.84,.29-.84,1.03c0,.78,.35,1.35,1.46,2.31,1.41,1.24,1.85,2.1,1.85,3.43,0,1.75-.89,2.73-2.54,2.73s-2.48-.98-2.48-2.7Z"/>
        <path class="cls-5" d="M30.46,13.21h-.67v-1.97h1.97v1.77l-1.02,2.44h-.95l.67-2.23Z"/>
        <path class="cls-5" d="M36.74,10.12v-.74h1.93v.89c0,.93,.41,1.27,1.06,1.27s1.06-.33,1.06-1.3c0-1.08-.41-1.77-1.75-2.94-1.71-1.51-2.27-2.57-2.27-4.05,0-2.05,1.06-3.24,3.05-3.24s2.98,1.19,2.98,3.27v.54h-1.93v-.67c0-.93-.37-1.28-1.02-1.28s-1.02,.35-1.02,1.25c0,.95,.43,1.64,1.77,2.81,1.71,1.51,2.25,2.55,2.25,4.17,0,2.12-1.08,3.31-3.09,3.31s-3.01-1.19-3.01-3.27Z"/>
        <path class="cls-5" d="M44.43,.19h2.05V13.21h-2.05V.19Z"/>
        <path class="cls-5" d="M48.41,.19h3.12c2.05,0,3.05,1.13,3.05,3.22v6.58c0,2.08-1,3.22-3.05,3.22h-3.12V.19Zm3.09,11.16c.65,0,1.04-.33,1.04-1.27V3.31c0-.93-.39-1.26-1.04-1.26h-1.04V11.35h1.04Z"/>
        <path class="cls-5" d="M56.03,10.12v-.74h1.93v.89c0,.93,.41,1.27,1.06,1.27s1.06-.33,1.06-1.3c0-1.08-.41-1.77-1.75-2.94-1.71-1.51-2.27-2.57-2.27-4.05,0-2.05,1.06-3.24,3.05-3.24s2.98,1.19,2.98,3.27v.54h-1.93v-.67c0-.93-.37-1.28-1.02-1.28s-1.02,.35-1.02,1.25c0,.95,.43,1.64,1.77,2.81,1.71,1.51,2.25,2.55,2.25,4.17,0,2.12-1.08,3.31-3.09,3.31s-3.01-1.19-3.01-3.27Z"/>
        <path class="cls-5" d="M67.73,2.88h1.64l1.25,7.7h-1.21l-.22-1.53v.02h-1.38l-.22,1.51h-1.12l1.25-7.7Zm1.32,5.15l-.54-3.81h-.02l-.53,3.81h1.09Z"/>
        <path class="cls-5" d="M71.62,2.88h1.52l1.18,4.61h.02V2.88h1.08v7.7h-1.24l-1.45-5.62h-.02v5.62h-1.08V2.88Z"/>
        <path class="cls-5" d="M76.73,2.88h1.85c1.21,0,1.8,.67,1.8,1.9v3.89c0,1.23-.59,1.9-1.8,1.9h-1.85V2.88Zm1.83,6.6c.39,0,.62-.2,.62-.75V4.73c0-.55-.23-.75-.62-.75h-.62v5.5h.62Z"/>
        <path class="cls-5" d="M85.31,.19h2.05V11.35h3.37v1.86h-5.41V.19Z"/>
        <path class="cls-5" d="M92.12,.19h2.05V11.35h3.37v1.86h-5.41V.19Z"/>
        <path class="cls-5" d="M98.94,.19h3.12c2.05,0,3.05,1.13,3.05,3.22v6.58c0,2.08-1,3.22-3.05,3.22h-3.12V.19Zm3.09,11.16c.65,0,1.04-.33,1.04-1.27V3.31c0-.93-.39-1.26-1.04-1.26h-1.04V11.35h1.04Z"/>
        <path class="cls-5" d="M106.77,10.19V3.2c0-2.01,1.04-3.2,3.01-3.2s3.01,1.19,3.01,3.2v1.38h-1.93v-1.51c0-.86-.41-1.21-1.02-1.21s-1.02,.35-1.02,1.21v7.27c0,.86,.41,1.19,1.02,1.19s1.02-.33,1.02-1.19v-1.99h1.93v1.84c0,2.01-1.04,3.2-3.01,3.2s-3.01-1.19-3.01-3.2Z"/>
        <path class="cls-5" d="M114.02,10.66v-.61h1.59v.74c0,.77,.34,1.04,.87,1.04s.87-.28,.87-1.07c0-.89-.34-1.46-1.44-2.42-1.41-1.24-1.87-2.11-1.87-3.34,0-1.69,.87-2.67,2.51-2.67s2.45,.98,2.45,2.7v.44h-1.59v-.55c0-.77-.31-1.06-.84-1.06s-.84,.29-.84,1.03c0,.78,.35,1.35,1.46,2.31,1.41,1.24,1.85,2.1,1.85,3.43,0,1.75-.89,2.73-2.54,2.73s-2.48-.98-2.48-2.7Z"/>
      </g>
      <line id="line" class="cls-2" x1="67.25" y1=".71" x2="81.15" y2=".71"/>
      <line id="line-2" data-name="line" class="cls-2" x1="67.25" y1="12.79" x2="81.15" y2="12.79"/>
    </g>
    <line class="cls-1" y1="166.71" x2="119.41" y2="166.71"/>
    <g>
      <path class="cls-5" d="M3.85,170h.74l.34,3.77h.01l.36-3.77h.84l.36,3.77h.01l.34-3.77h.67l-.5,4.9h-.96l-.35-3.31h-.01l-.35,3.31h-1.02l-.5-4.9Z"/>
      <path class="cls-5" d="M8.05,173.74v-2.58c0-.78,.41-1.23,1.17-1.23s1.17,.45,1.17,1.23v2.58c0,.78-.41,1.23-1.17,1.23s-1.17-.45-1.17-1.23Zm1.57,.05v-2.68c0-.35-.15-.48-.4-.48s-.4,.13-.4,.48v2.68c0,.35,.15,.48,.4,.48s.4-.13,.4-.48Z"/>
      <path class="cls-5" d="M11.08,170h1.14c.8,0,1.14,.37,1.14,1.13v.3c0,.5-.16,.83-.5,.97h0c.39,.13,.51,.5,.51,1.05v.86c0,.24,0,.41,.08,.6h-.78c-.04-.13-.07-.2-.07-.6v-.9c0-.46-.13-.6-.48-.6h-.27v2.1h-.77v-4.9Zm1.05,2.1c.29,0,.46-.13,.46-.52v-.38c0-.35-.12-.5-.39-.5h-.35v1.4h.28Z"/>
      <path class="cls-5" d="M14.08,170h.77v4.2h1.27v.7h-2.04v-4.9Z"/>
      <path class="cls-5" d="M16.66,170h1.18c.77,0,1.15,.43,1.15,1.21v2.48c0,.78-.38,1.21-1.15,1.21h-1.18v-4.9Zm1.16,4.2c.25,0,.39-.13,.39-.48v-2.55c0-.35-.15-.48-.39-.48h-.39v3.5h.39Z"/>
    </g>
    <g>
      <path class="cls-5" d="M32.34,170h.77v4.2h1.27v.7h-2.04v-4.9Z"/>
      <path class="cls-5" d="M34.92,170h1.18c.77,0,1.15,.43,1.15,1.21v2.48c0,.78-.38,1.21-1.15,1.21h-1.18v-4.9Zm1.16,4.2c.25,0,.39-.13,.39-.48v-2.55c0-.35-.15-.48-.39-.48h-.39v3.5h.39Z"/>
      <path class="cls-5" d="M37.89,173.77v-2.63c0-.76,.39-1.2,1.13-1.2s1.13,.45,1.13,1.2v.52h-.73v-.57c0-.32-.15-.46-.39-.46s-.39,.13-.39,.46v2.74c0,.32,.15,.45,.39,.45s.39-.13,.39-.45v-.75h.73v.69c0,.76-.39,1.2-1.13,1.2s-1.13-.45-1.13-1.2Z"/>
    </g>
    <g>
      <path class="cls-5" d="M62.92,173.74v-.28h.73v.34c0,.35,.15,.48,.4,.48s.4-.13,.4-.49c0-.41-.15-.67-.66-1.11-.64-.57-.85-.97-.85-1.53,0-.77,.4-1.22,1.15-1.22s1.12,.45,1.12,1.23v.2h-.73v-.25c0-.35-.14-.48-.39-.48s-.39,.13-.39,.47c0,.36,.16,.62,.67,1.06,.64,.57,.85,.96,.85,1.57,0,.8-.41,1.25-1.16,1.25s-1.13-.45-1.13-1.23Z"/>
      <path class="cls-5" d="M65.83,170h.77v4.9h-.77v-4.9Z"/>
      <path class="cls-5" d="M67.35,170h1.18c.77,0,1.15,.43,1.15,1.21v2.48c0,.78-.38,1.21-1.15,1.21h-1.18v-4.9Zm1.16,4.2c.25,0,.39-.13,.39-.48v-2.55c0-.35-.15-.48-.39-.48h-.39v3.5h.39Z"/>
      <path class="cls-5" d="M70.24,173.74v-.28h.73v.34c0,.35,.15,.48,.4,.48s.4-.13,.4-.49c0-.41-.15-.67-.66-1.11-.64-.57-.85-.97-.85-1.53,0-.77,.4-1.22,1.15-1.22s1.12,.45,1.12,1.23v.2h-.73v-.25c0-.35-.14-.48-.39-.48s-.39,.13-.39,.47c0,.36,.16,.62,.67,1.06,.64,.57,.85,.96,.85,1.57,0,.8-.41,1.25-1.16,1.25s-1.13-.45-1.13-1.23Z"/>
    </g>
    <g>
      <path class="cls-5" d="M94.94,170h.77v4.2h1.27v.7h-2.04v-4.9Z"/>
      <path class="cls-5" d="M97.53,170h.77v4.2h1.27v.7h-2.04v-4.9Z"/>
      <path class="cls-5" d="M100.11,170h1.18c.77,0,1.15,.43,1.15,1.21v2.48c0,.78-.38,1.21-1.15,1.21h-1.18v-4.9Zm1.16,4.2c.25,0,.39-.13,.39-.48v-2.55c0-.35-.15-.48-.39-.48h-.39v3.5h.39Z"/>
      <path class="cls-5" d="M103.08,173.77v-2.63c0-.76,.39-1.2,1.13-1.2s1.13,.45,1.13,1.2v.52h-.73v-.57c0-.32-.15-.46-.39-.46s-.38,.13-.38,.46v2.74c0,.32,.15,.45,.38,.45s.39-.13,.39-.45v-.75h.73v.69c0,.76-.39,1.2-1.13,1.2s-1.13-.45-1.13-1.2Z"/>
      <path class="cls-5" d="M105.82,173.99v-.22h.57v.26c0,.27,.12,.37,.31,.37s.31-.1,.31-.38c0-.32-.12-.52-.52-.87-.5-.44-.67-.76-.67-1.2,0-.6,.31-.96,.9-.96s.88,.35,.88,.97v.16h-.57v-.2c0-.27-.11-.38-.3-.38s-.3,.1-.3,.37c0,.28,.13,.48,.52,.83,.51,.44,.67,.75,.67,1.23,0,.63-.32,.98-.91,.98s-.89-.35-.89-.97Z"/>
    </g>
  </g>
</svg>