<?xml version="1.0" encoding="UTF-8"?>
<svg id="Layer_2" data-name="Layer 2" xmlns="http://www.w3.org/2000/svg" viewBox="0 0 435.03 96.54">
  <defs>
    <style>
      .cls-1 {
        fill: #fff;
      }

      .cls-2 {
        fill: none;
        stroke: #ef6652;
        stroke-miterlimit: 10;
        stroke-width: .75px;
      }

      .cls-3 {
        fill: #777677;
      }

      .cls-4 {
        fill: #ea1d2d;
      }

      .cls-5 {
        fill: #ef6652;
      }
    </style>
  </defs>
  <g id="Layer_2-2" data-name="Layer 2">
    <g>
      <path class="cls-4" d="M0,27.83H5.1v1.7H1.87v3.15h2.57v1.7H1.87v3.65h3.23v1.7H0v-11.9Z"/>
      <path class="cls-4" d="M6.31,36.9v-.68h1.77v.82c0,.85,.37,1.16,.97,1.16s.97-.31,.97-1.19c0-.99-.37-1.61-1.6-2.69-1.56-1.38-2.07-2.35-2.07-3.71,0-1.87,.97-2.96,2.79-2.96s2.72,1.09,2.72,2.99v.49h-1.77v-.61c0-.85-.34-1.17-.93-1.17s-.93,.32-.93,1.14c0,.87,.39,1.5,1.61,2.57,1.56,1.38,2.06,2.33,2.06,3.81,0,1.94-.99,3.03-2.82,3.03s-2.75-1.09-2.75-2.99Z"/>
      <path class="cls-4" d="M13.06,36.9v-.68h1.77v.82c0,.85,.37,1.16,.97,1.16s.97-.31,.97-1.19c0-.99-.37-1.61-1.6-2.69-1.56-1.38-2.07-2.35-2.07-3.71,0-1.87,.97-2.96,2.79-2.96s2.72,1.09,2.72,2.99v.49h-1.77v-.61c0-.85-.34-1.17-.93-1.17s-.93,.32-.93,1.14c0,.87,.39,1.5,1.61,2.57,1.56,1.38,2.06,2.33,2.06,3.81,0,1.94-.99,3.03-2.82,3.03s-2.75-1.09-2.75-2.99Z"/>
      <path class="cls-4" d="M20.13,27.83h5.1v1.7h-3.23v3.15h2.57v1.7h-2.57v3.65h3.23v1.7h-5.1v-11.9Z"/>
      <path class="cls-4" d="M26.72,27.83h2.35l1.82,7.12h.03v-7.12h1.67v11.9h-1.92l-2.24-8.69h-.03v8.69h-1.67v-11.9Z"/>
      <path class="cls-4" d="M35.87,29.53h-1.95v-1.7h5.78v1.7h-1.95v10.2h-1.87v-10.2Z"/>
      <path class="cls-4" d="M41.02,27.83h1.87v11.9h-1.87v-11.9Z"/>
      <path class="cls-4" d="M46.15,27.83h2.53l1.94,11.9h-1.87l-.34-2.36v.03h-2.12l-.34,2.33h-1.73l1.94-11.9Zm2.04,7.96l-.83-5.88h-.03l-.82,5.88h1.68Z"/>
      <path class="cls-4" d="M51.95,27.83h1.87v10.2h3.08v1.7h-4.95v-11.9Z"/>
      <path class="cls-4" d="M61.05,36.9v-.68h1.77v.82c0,.85,.37,1.16,.97,1.16s.97-.31,.97-1.19c0-.99-.37-1.61-1.6-2.69-1.56-1.38-2.07-2.35-2.07-3.71,0-1.87,.97-2.96,2.79-2.96s2.72,1.09,2.72,2.99v.49h-1.77v-.61c0-.85-.34-1.17-.93-1.17s-.93,.32-.93,1.14c0,.87,.39,1.5,1.61,2.57,1.56,1.38,2.06,2.33,2.06,3.81,0,1.94-.99,3.03-2.82,3.03s-2.75-1.09-2.75-2.99Z"/>
      <path class="cls-4" d="M68.12,27.83h5.1v1.7h-3.23v3.15h2.57v1.7h-2.57v3.65h3.23v1.7h-5.1v-11.9Z"/>
      <path class="cls-4" d="M74.71,27.83h2.77c1.94,0,2.77,.9,2.77,2.74v.73c0,1.22-.39,2.01-1.22,2.35v.03c.93,.29,1.24,1.17,1.24,2.52v2.09c0,.58,.02,1,.2,1.44h-1.9c-.1-.31-.17-.49-.17-1.46v-2.18c0-1.1-.32-1.46-1.17-1.46h-.65v5.1h-1.87v-11.9Zm2.55,5.1c.7,0,1.12-.31,1.12-1.26v-.92c0-.85-.29-1.22-.95-1.22h-.85v3.4h.68Z"/>
      <path class="cls-4" d="M81.43,27.83h1.89l1.22,9.23h.03l1.22-9.23h1.72l-1.8,11.9h-2.48l-1.8-11.9Z"/>
      <path class="cls-4" d="M88.84,27.83h1.87v11.9h-1.87v-11.9Z"/>
      <path class="cls-4" d="M92.41,36.97v-6.39c0-1.84,.95-2.92,2.75-2.92s2.75,1.09,2.75,2.92v1.26h-1.77v-1.38c0-.78-.37-1.1-.93-1.1s-.93,.32-.93,1.1v6.65c0,.78,.37,1.09,.93,1.09s.93-.31,.93-1.09v-1.82h1.77v1.68c0,1.84-.95,2.92-2.75,2.92s-2.75-1.09-2.75-2.92Z"/>
      <path class="cls-4" d="M99.47,27.83h5.1v1.7h-3.23v3.15h2.57v1.7h-2.57v3.65h3.23v1.7h-5.1v-11.9Z"/>
      <path class="cls-4" d="M105.77,36.9v-.68h1.77v.82c0,.85,.37,1.16,.97,1.16s.97-.31,.97-1.19c0-.99-.37-1.61-1.6-2.69-1.56-1.38-2.07-2.35-2.07-3.71,0-1.87,.97-2.96,2.79-2.96s2.72,1.09,2.72,2.99v.49h-1.77v-.61c0-.85-.34-1.17-.93-1.17s-.93,.32-.93,1.14c0,.87,.39,1.5,1.61,2.57,1.56,1.38,2.06,2.33,2.06,3.81,0,1.94-.99,3.03-2.82,3.03s-2.75-1.09-2.75-2.99Z"/>
      <path class="cls-3" d="M116.19,37.97v-8.4c0-1.9,.75-2.6,2.62-2.6h.58v1.53h-.46c-.59,0-.87,.22-.87,1.07v8.4c0,.85,.27,1.07,.87,1.07h.46v1.53h-.58c-1.87,0-2.62-.7-2.62-2.6Z"/>
      <path class="cls-3" d="M121.11,27.83h5.1v1.7h-3.23v3.15h2.57v1.7h-2.57v3.65h3.23v1.7h-5.1v-11.9Z"/>
      <path class="cls-3" d="M127.7,27.83h2.86c1.87,0,2.79,1.04,2.79,2.94v6.02c0,1.9-.92,2.94-2.79,2.94h-2.86v-11.9Zm2.82,10.2c.59,0,.95-.31,.95-1.16v-6.19c0-.85-.36-1.16-.95-1.16h-.95v8.5h.95Z"/>
      <path class="cls-3" d="M134.96,36.9v-9.08h1.87v9.21c0,.85,.36,1.16,.95,1.16s.95-.31,.95-1.16v-9.21h1.8v9.08c0,1.9-.95,2.99-2.79,2.99s-2.79-1.09-2.79-2.99Z"/>
      <path class="cls-3" d="M142.17,36.97v-6.39c0-1.84,.95-2.92,2.75-2.92s2.75,1.09,2.75,2.92v1.26h-1.77v-1.38c0-.78-.37-1.1-.93-1.1s-.93,.32-.93,1.1v6.65c0,.78,.37,1.09,.93,1.09s.93-.31,.93-1.09v-1.82h1.77v1.68c0,1.84-.95,2.92-2.75,2.92s-2.75-1.09-2.75-2.92Z"/>
      <path class="cls-3" d="M150.67,27.83h2.53l1.94,11.9h-1.87l-.34-2.36v.03h-2.12l-.34,2.33h-1.73l1.94-11.9Zm2.04,7.96l-.83-5.88h-.03l-.82,5.88h1.68Z"/>
      <path class="cls-3" d="M157.15,29.53h-1.95v-1.7h5.78v1.7h-1.95v10.2h-1.87v-10.2Z"/>
      <path class="cls-3" d="M162.3,27.83h1.87v11.9h-1.87v-11.9Z"/>
      <path class="cls-3" d="M165.85,36.9v-6.26c0-1.9,1-2.99,2.84-2.99s2.84,1.09,2.84,2.99v6.26c0,1.9-1,2.99-2.84,2.99s-2.84-1.09-2.84-2.99Zm3.81,.12v-6.49c0-.85-.37-1.17-.97-1.17s-.97,.32-.97,1.17v6.49c0,.85,.37,1.17,.97,1.17s.97-.32,.97-1.17Z"/>
      <path class="cls-3" d="M173.21,27.83h2.35l1.82,7.12h.03v-7.12h1.67v11.9h-1.92l-2.24-8.69h-.03v8.69h-1.67v-11.9Z"/>
      <path class="cls-3" d="M181.51,39.73h-.61v-1.8h1.8v1.61l-.93,2.23h-.87l.61-2.04Z"/>
      <path class="cls-3" d="M187.66,27.83h1.87v4.84h2.01v-4.84h1.87v11.9h-1.87v-5.35h-2.01v5.35h-1.87v-11.9Z"/>
      <path class="cls-3" d="M195.23,27.83h5.1v1.7h-3.23v3.15h2.57v1.7h-2.57v3.65h3.23v1.7h-5.1v-11.9Z"/>
      <path class="cls-3" d="M203.27,27.83h2.53l1.94,11.9h-1.87l-.34-2.36v.03h-2.12l-.34,2.33h-1.73l1.94-11.9Zm2.04,7.96l-.83-5.88h-.03l-.82,5.88h1.68Z"/>
      <path class="cls-3" d="M209.07,27.83h1.87v10.2h3.08v1.7h-4.95v-11.9Z"/>
      <path class="cls-3" d="M215.47,29.53h-1.95v-1.7h5.78v1.7h-1.95v10.2h-1.87v-10.2Z"/>
      <path class="cls-3" d="M220.63,27.83h1.87v4.84h2.01v-4.84h1.87v11.9h-1.87v-5.35h-2.01v5.35h-1.87v-11.9Z"/>
      <path class="cls-3" d="M232.78,27.83h2.53l1.94,11.9h-1.87l-.34-2.36v.03h-2.12l-.34,2.33h-1.73l1.94-11.9Zm2.04,7.96l-.83-5.88h-.03l-.82,5.88h1.68Z"/>
      <path class="cls-3" d="M238.58,27.83h2.35l1.82,7.12h.03v-7.12h1.67v11.9h-1.92l-2.24-8.69h-.03v8.69h-1.67v-11.9Z"/>
      <path class="cls-3" d="M246.26,27.83h2.86c1.87,0,2.79,1.04,2.79,2.94v6.02c0,1.9-.92,2.94-2.79,2.94h-2.86v-11.9Zm2.82,10.2c.59,0,.95-.31,.95-1.16v-6.19c0-.85-.36-1.16-.95-1.16h-.95v8.5h.95Z"/>
      <path class="cls-3" d="M256.41,36.9v-.68h1.77v.82c0,.85,.37,1.16,.97,1.16s.97-.31,.97-1.19c0-.99-.37-1.61-1.6-2.69-1.56-1.38-2.07-2.35-2.07-3.71,0-1.87,.97-2.96,2.79-2.96s2.72,1.09,2.72,2.99v.49h-1.77v-.61c0-.85-.34-1.17-.94-1.17s-.93,.32-.93,1.14c0,.87,.39,1.5,1.61,2.57,1.56,1.38,2.06,2.33,2.06,3.81,0,1.94-.99,3.03-2.82,3.03s-2.75-1.09-2.75-2.99Z"/>
      <path class="cls-3" d="M263.35,36.9v-6.26c0-1.9,1-2.99,2.84-2.99s2.84,1.09,2.84,2.99v6.26c0,1.9-1,2.99-2.84,2.99s-2.84-1.09-2.84-2.99Zm3.81,.12v-6.49c0-.85-.37-1.17-.97-1.17s-.97,.32-.97,1.17v6.49c0,.85,.37,1.17,.97,1.17s.97-.32,.97-1.17Z"/>
      <path class="cls-3" d="M270.59,36.97v-6.39c0-1.84,.95-2.92,2.75-2.92s2.75,1.09,2.75,2.92v1.26h-1.77v-1.38c0-.78-.37-1.1-.94-1.1s-.93,.32-.93,1.1v6.65c0,.78,.37,1.09,.93,1.09s.94-.31,.94-1.09v-1.82h1.77v1.68c0,1.84-.95,2.92-2.75,2.92s-2.75-1.09-2.75-2.92Z"/>
      <path class="cls-3" d="M277.64,27.83h1.87v11.9h-1.87v-11.9Z"/>
      <path class="cls-3" d="M282.78,27.83h2.53l1.94,11.9h-1.87l-.34-2.36v.03h-2.12l-.34,2.33h-1.73l1.94-11.9Zm2.04,7.96l-.83-5.88h-.03l-.82,5.88h1.68Z"/>
      <path class="cls-3" d="M288.57,27.83h1.87v10.2h3.08v1.7h-4.95v-11.9Z"/>
      <path class="cls-3" d="M297.99,27.83h2.75c1.87,0,2.79,1.04,2.79,2.94v1.17c0,1.9-.92,2.94-2.79,2.94h-.88v4.84h-1.87v-11.9Zm2.75,5.35c.59,0,.92-.27,.92-1.12v-1.41c0-.85-.32-1.12-.92-1.12h-.88v3.65h.88Z"/>
      <path class="cls-3" d="M304.98,27.83h2.77c1.94,0,2.77,.9,2.77,2.74v.73c0,1.22-.39,2.01-1.22,2.35v.03c.94,.29,1.24,1.17,1.24,2.52v2.09c0,.58,.02,1,.2,1.44h-1.9c-.1-.31-.17-.49-.17-1.46v-2.18c0-1.1-.32-1.46-1.17-1.46h-.65v5.1h-1.87v-11.9Zm2.55,5.1c.7,0,1.12-.31,1.12-1.26v-.92c0-.85-.29-1.22-.95-1.22h-.85v3.4h.68Z"/>
      <path class="cls-3" d="M312.12,36.9v-6.26c0-1.9,1-2.99,2.84-2.99s2.84,1.09,2.84,2.99v6.26c0,1.9-1,2.99-2.84,2.99s-2.84-1.09-2.84-2.99Zm3.81,.12v-6.49c0-.85-.37-1.17-.97-1.17s-.97,.32-.97,1.17v6.49c0,.85,.37,1.17,.97,1.17s.97-.32,.97-1.17Z"/>
      <path class="cls-3" d="M320.87,29.53h-1.95v-1.7h5.78v1.7h-1.95v10.2h-1.87v-10.2Z"/>
      <path class="cls-3" d="M326.02,27.83h5.1v1.7h-3.23v3.15h2.57v1.7h-2.57v3.65h3.23v1.7h-5.1v-11.9Z"/>
      <path class="cls-3" d="M332.5,36.97v-6.39c0-1.84,.95-2.92,2.75-2.92s2.75,1.09,2.75,2.92v1.26h-1.77v-1.38c0-.78-.37-1.1-.94-1.1s-.93,.32-.93,1.1v6.65c0,.78,.37,1.09,.93,1.09s.94-.31,.94-1.09v-1.82h1.77v1.68c0,1.84-.95,2.92-2.75,2.92s-2.75-1.09-2.75-2.92Z"/>
      <path class="cls-3" d="M341.02,29.53h-1.95v-1.7h5.78v1.7h-1.95v10.2h-1.87v-10.2Z"/>
      <path class="cls-3" d="M346.17,27.83h1.87v11.9h-1.87v-11.9Z"/>
      <path class="cls-3" d="M349.72,36.9v-6.26c0-1.9,1-2.99,2.84-2.99s2.84,1.09,2.84,2.99v6.26c0,1.9-1,2.99-2.84,2.99s-2.84-1.09-2.84-2.99Zm3.81,.12v-6.49c0-.85-.37-1.17-.97-1.17s-.97,.32-.97,1.17v6.49c0,.85,.37,1.17,.97,1.17s.97-.32,.97-1.17Z"/>
      <path class="cls-3" d="M357.08,27.83h2.35l1.82,7.12h.03v-7.12h1.67v11.9h-1.92l-2.24-8.69h-.03v8.69h-1.67v-11.9Z"/>
      <path class="cls-3" d="M364.67,39.05h.46c.59,0,.87-.22,.87-1.07v-8.4c0-.85-.27-1.07-.87-1.07h-.46v-1.53h.58c1.87,0,2.62,.7,2.62,2.6v8.4c0,1.9-.75,2.6-2.62,2.6h-.58v-1.53Z"/>
      <path class="cls-3" d="M372.71,36.9v-.68h1.77v.82c0,.85,.37,1.16,.97,1.16s.97-.31,.97-1.19c0-.99-.37-1.61-1.6-2.69-1.56-1.38-2.07-2.35-2.07-3.71,0-1.87,.97-2.96,2.79-2.96s2.72,1.09,2.72,2.99v.49h-1.77v-.61c0-.85-.34-1.17-.94-1.17s-.93,.32-.93,1.14c0,.87,.39,1.5,1.61,2.57,1.56,1.38,2.06,2.33,2.06,3.81,0,1.94-.99,3.03-2.82,3.03s-2.75-1.09-2.75-2.99Z"/>
      <path class="cls-3" d="M379.78,27.83h1.87v11.9h-1.87v-11.9Z"/>
      <path class="cls-3" d="M383.47,27.83h2.35l1.82,7.12h.03v-7.12h1.67v11.9h-1.92l-2.24-8.69h-.03v8.69h-1.67v-11.9Z"/>
      <path class="cls-3" d="M391.03,36.97v-6.39c0-1.84,.95-2.92,2.75-2.92s2.75,1.09,2.75,2.92v1.26h-1.77v-1.38c0-.78-.37-1.1-.94-1.1s-.93,.32-.93,1.1v6.65c0,.78,.37,1.09,.93,1.09s.94-.31,.94-1.09v-1.82h1.77v1.68c0,1.84-.95,2.92-2.75,2.92s-2.75-1.09-2.75-2.92Z"/>
      <path class="cls-3" d="M398.09,27.83h5.1v1.7h-3.23v3.15h2.57v1.7h-2.57v3.65h3.23v1.7h-5.1v-11.9Z"/>
      <path class="cls-3" d="M407.79,38.43c0-1.7,.48-2.74,1.87-4.2,1.43-1.51,1.84-2.41,1.84-3.52s-.37-1.36-.97-1.36-.97,.32-.97,1.17v1.27h-1.77v-1.16c0-1.9,.95-2.99,2.79-2.99s2.79,1.09,2.79,2.99c0,1.41-.58,2.67-2.31,4.5-1.12,1.19-1.41,1.79-1.41,2.62v.25h3.55v1.7h-5.41v-1.29Z"/>
      <path class="cls-3" d="M414.92,36.9v-6.26c0-1.9,1-2.99,2.84-2.99s2.84,1.09,2.84,2.99v6.26c0,1.9-1,2.99-2.84,2.99s-2.84-1.09-2.84-2.99Zm3.81,.12v-6.49c0-.85-.37-1.17-.97-1.17s-.97,.32-.97,1.17v6.49c0,.85,.37,1.17,.97,1.17s.97-.32,.97-1.17Z"/>
      <path class="cls-3" d="M424.9,30.65h-1.95v-1.33c1.58,0,2.14-.34,2.57-1.5h1.26v11.9h-1.87v-9.08Z"/>
      <path class="cls-3" d="M429.45,36.9v-.94h1.77v1.07c0,.85,.37,1.16,.97,1.16s.97-.31,.97-1.16v-2.67c0-.85-.37-1.17-.97-1.17s-.97,.32-.97,1.17v.1h-1.77l.34-6.65h4.93v1.7h-3.26l-.15,2.84h.03c.34-.56,.87-.87,1.61-.87,1.38,0,2.07,.97,2.07,2.72v2.69c0,1.9-.95,2.99-2.79,2.99s-2.79-1.09-2.79-2.99Z"/>
    </g>
    <rect class="cls-4" x="191.23" width="202.02" height="20.88"/>
    <g>
      <path class="cls-3" d="M23.5,4.67h1.8l.83,9.15h.03l.88-9.15h2.04l.88,9.15h.03l.83-9.15h1.61l-1.21,11.9h-2.33l-.85-8.02h-.03l-.85,8.02h-2.48l-1.21-11.9Z"/>
      <path class="cls-3" d="M33.7,13.75V7.49c0-1.9,1-2.99,2.84-2.99s2.84,1.09,2.84,2.99v6.26c0,1.9-1,2.99-2.84,2.99s-2.84-1.09-2.84-2.99Zm3.81,.12V7.37c0-.85-.37-1.17-.97-1.17s-.97,.32-.97,1.17v6.49c0,.85,.37,1.17,.97,1.17s.97-.32,.97-1.17Z"/>
      <path class="cls-3" d="M41.06,4.67h2.77c1.94,0,2.77,.9,2.77,2.74v.73c0,1.22-.39,2.01-1.22,2.35v.03c.93,.29,1.24,1.17,1.24,2.52v2.09c0,.58,.02,1,.2,1.44h-1.9c-.1-.31-.17-.49-.17-1.46v-2.18c0-1.1-.32-1.46-1.17-1.46h-.65v5.1h-1.87V4.67Zm2.55,5.1c.7,0,1.12-.31,1.12-1.26v-.92c0-.85-.29-1.22-.95-1.22h-.85v3.4h.68Z"/>
      <path class="cls-3" d="M48.34,4.67h1.87V14.87h3.08v1.7h-4.95V4.67Z"/>
      <path class="cls-3" d="M54.61,4.67h2.86c1.87,0,2.79,1.04,2.79,2.94v6.02c0,1.9-.92,2.94-2.79,2.94h-2.86V4.67Zm2.82,10.2c.59,0,.95-.31,.95-1.16V7.53c0-.85-.36-1.16-.95-1.16h-.95V14.87h.95Z"/>
      <path class="cls-3" d="M61.5,4.67h1.8l.83,9.15h.03l.88-9.15h2.04l.88,9.15h.03l.83-9.15h1.61l-1.21,11.9h-2.33l-.85-8.02h-.03l-.85,8.02h-2.48l-1.21-11.9Z"/>
      <path class="cls-3" d="M71.83,4.67h1.87v11.9h-1.87V4.67Z"/>
      <path class="cls-3" d="M75.52,4.67h2.86c1.87,0,2.79,1.04,2.79,2.94v6.02c0,1.9-.92,2.94-2.79,2.94h-2.86V4.67Zm2.82,10.2c.59,0,.95-.31,.95-1.16V7.53c0-.85-.36-1.16-.95-1.16h-.95V14.87h.95Z"/>
      <path class="cls-3" d="M82.85,4.67h5.1v1.7h-3.23v3.14h2.57v1.7h-2.57v3.65h3.23v1.7h-5.1V4.67Z"/>
      <path class="cls-3" d="M90.14,16.57h-.61v-1.8h1.8v1.61l-.93,2.23h-.87l.61-2.04Z"/>
      <path class="cls-3" d="M96.18,13.82V7.42c0-1.84,.95-2.92,2.75-2.92s2.75,1.09,2.75,2.92v1.26h-1.77v-1.38c0-.78-.37-1.1-.93-1.1s-.93,.32-.93,1.1v6.65c0,.78,.37,1.09,.93,1.09s.93-.31,.93-1.09v-1.82h1.77v1.68c0,1.84-.95,2.92-2.75,2.92s-2.75-1.09-2.75-2.92Z"/>
      <path class="cls-3" d="M103.13,13.75V7.49c0-1.9,1-2.99,2.84-2.99s2.84,1.09,2.84,2.99v6.26c0,1.9-1,2.99-2.84,2.99s-2.84-1.09-2.84-2.99Zm3.81,.12V7.37c0-.85-.37-1.17-.97-1.17s-.97,.32-.97,1.17v6.49c0,.85,.37,1.17,.97,1.17s.97-.32,.97-1.17Z"/>
      <path class="cls-3" d="M110.42,13.75V4.67h1.87V13.88c0,.85,.36,1.16,.95,1.16s.95-.31,.95-1.16V4.67h1.8V13.75c0,1.9-.95,2.99-2.79,2.99s-2.79-1.09-2.79-2.99Z"/>
      <path class="cls-3" d="M117.75,4.67h2.35l1.82,7.12h.03V4.67h1.67v11.9h-1.92l-2.24-8.69h-.03v8.69h-1.67V4.67Z"/>
      <path class="cls-3" d="M126.9,6.37h-1.95v-1.7h5.78v1.7h-1.95v10.2h-1.87V6.37Z"/>
      <path class="cls-3" d="M132.05,4.67h2.77c1.94,0,2.77,.9,2.77,2.74v.73c0,1.22-.39,2.01-1.22,2.35v.03c.93,.29,1.24,1.17,1.24,2.52v2.09c0,.58,.02,1,.2,1.44h-1.9c-.1-.31-.17-.49-.17-1.46v-2.18c0-1.1-.32-1.46-1.17-1.46h-.65v5.1h-1.87V4.67Zm2.55,5.1c.7,0,1.12-.31,1.12-1.26v-.92c0-.85-.29-1.22-.95-1.22h-.85v3.4h.68Z"/>
      <path class="cls-3" d="M139.32,4.67h1.87v11.9h-1.87V4.67Z"/>
      <path class="cls-3" d="M143.01,4.67h5.1v1.7h-3.23v3.14h2.57v1.7h-2.57v3.65h3.23v1.7h-5.1V4.67Z"/>
      <path class="cls-3" d="M149.32,13.75v-.68h1.77v.82c0,.85,.37,1.16,.97,1.16s.97-.31,.97-1.19c0-.99-.37-1.61-1.6-2.69-1.56-1.38-2.07-2.35-2.07-3.71,0-1.87,.97-2.96,2.79-2.96s2.72,1.09,2.72,2.99v.49h-1.77v-.61c0-.85-.34-1.17-.93-1.17s-.93,.32-.93,1.14c0,.87,.39,1.5,1.61,2.57,1.56,1.38,2.06,2.33,2.06,3.81,0,1.94-.99,3.03-2.82,3.03s-2.75-1.09-2.75-2.99Z"/>
      <path class="cls-3" d="M159.54,4.67h1.87v4.84h2.01V4.67h1.87v11.9h-1.87v-5.35h-2.01v5.35h-1.87V4.67Z"/>
      <path class="cls-3" d="M168.55,4.67h2.53l1.94,11.9h-1.87l-.34-2.36v.03h-2.12l-.34,2.33h-1.73l1.94-11.9Zm2.04,7.96l-.83-5.88h-.03l-.82,5.88h1.68Z"/>
      <path class="cls-3" d="M173.37,4.67h1.89l1.22,9.23h.03l1.22-9.23h1.72l-1.8,11.9h-2.48l-1.8-11.9Z"/>
      <path class="cls-3" d="M180.79,4.67h5.1v1.7h-3.23v3.14h2.57v1.7h-2.57v3.65h3.23v1.7h-5.1V4.67Z"/>
      <path class="cls-1" d="M196.14,4.67h1.87v11.9h-1.87V4.67Z"/>
      <path class="cls-1" d="M199.83,4.67h2.35l1.82,7.12h.03V4.67h1.67v11.9h-1.92l-2.24-8.69h-.03v8.69h-1.67V4.67Z"/>
      <path class="cls-1" d="M207.39,13.82V7.42c0-1.84,.95-2.92,2.75-2.92s2.75,1.09,2.75,2.92v1.26h-1.77v-1.38c0-.78-.37-1.1-.93-1.1s-.93,.32-.93,1.1v6.65c0,.78,.37,1.09,.93,1.09s.93-.31,.93-1.09v-1.82h1.77v1.68c0,1.84-.95,2.92-2.75,2.92s-2.75-1.09-2.75-2.92Z"/>
      <path class="cls-1" d="M214.45,4.67h2.77c1.94,0,2.77,.9,2.77,2.74v.73c0,1.22-.39,2.01-1.22,2.35v.03c.93,.29,1.24,1.17,1.24,2.52v2.09c0,.58,.02,1,.2,1.44h-1.9c-.1-.31-.17-.49-.17-1.46v-2.18c0-1.1-.32-1.46-1.17-1.46h-.65v5.1h-1.87V4.67Zm2.55,5.1c.7,0,1.12-.31,1.12-1.26v-.92c0-.85-.29-1.22-.95-1.22h-.85v3.4h.68Z"/>
      <path class="cls-1" d="M221.72,4.67h5.1v1.7h-3.23v3.14h2.57v1.7h-2.57v3.65h3.23v1.7h-5.1V4.67Z"/>
      <path class="cls-1" d="M229.76,4.67h2.53l1.94,11.9h-1.87l-.34-2.36v.03h-2.12l-.34,2.33h-1.73l1.94-11.9Zm2.04,7.96l-.83-5.88h-.03l-.82,5.88h1.68Z"/>
      <path class="cls-1" d="M235.19,13.75v-.68h1.77v.82c0,.85,.37,1.16,.97,1.16s.97-.31,.97-1.19c0-.99-.37-1.61-1.6-2.69-1.56-1.38-2.07-2.35-2.07-3.71,0-1.87,.97-2.96,2.79-2.96s2.72,1.09,2.72,2.99v.49h-1.77v-.61c0-.85-.34-1.17-.93-1.17s-.93,.32-.93,1.14c0,.87,.39,1.5,1.61,2.57,1.56,1.38,2.06,2.33,2.06,3.81,0,1.94-.99,3.03-2.82,3.03s-2.75-1.09-2.75-2.99Z"/>
      <path class="cls-1" d="M242.26,4.67h5.1v1.7h-3.23v3.14h2.57v1.7h-2.57v3.65h3.23v1.7h-5.1V4.67Z"/>
      <path class="cls-1" d="M248.85,4.67h2.86c1.87,0,2.79,1.04,2.79,2.94v6.02c0,1.9-.92,2.94-2.79,2.94h-2.86V4.67Zm2.82,10.2c.59,0,.95-.31,.95-1.16V7.53c0-.85-.36-1.16-.95-1.16h-.95V14.87h.95Z"/>
      <path class="cls-1" d="M259.19,13.75V7.49c0-1.9,.95-2.99,2.79-2.99s2.79,1.09,2.79,2.99v1.02h-1.77v-1.14c0-.85-.37-1.17-.97-1.17s-.97,.32-.97,1.17v6.51c0,.85,.37,1.16,.97,1.16s.97-.31,.97-1.16v-2.33h-.93v-1.7h2.7v3.89c0,1.9-.95,2.99-2.79,2.99s-2.79-1.09-2.79-2.99Z"/>
      <path class="cls-1" d="M266.26,13.75V7.49c0-1.9,1-2.99,2.84-2.99s2.84,1.09,2.84,2.99v6.26c0,1.9-1,2.99-2.84,2.99s-2.84-1.09-2.84-2.99Zm3.81,.12V7.37c0-.85-.37-1.17-.97-1.17s-.97,.32-.97,1.17v6.49c0,.85,.37,1.17,.97,1.17s.97-.32,.97-1.17Z"/>
      <path class="cls-1" d="M273.1,4.67h1.89l1.22,9.23h.03l1.22-9.23h1.72l-1.8,11.9h-2.48l-1.8-11.9Z"/>
      <path class="cls-1" d="M280.51,4.67h5.1v1.7h-3.23v3.14h2.57v1.7h-2.57v3.65h3.23v1.7h-5.1V4.67Z"/>
      <path class="cls-1" d="M287.1,4.67h2.77c1.94,0,2.77,.9,2.77,2.74v.73c0,1.22-.39,2.01-1.22,2.35v.03c.93,.29,1.24,1.17,1.24,2.52v2.09c0,.58,.02,1,.2,1.44h-1.9c-.1-.31-.17-.49-.17-1.46v-2.18c0-1.1-.32-1.46-1.17-1.46h-.65v5.1h-1.87V4.67Zm2.55,5.1c.7,0,1.12-.31,1.12-1.26v-.92c0-.85-.29-1.22-.95-1.22h-.85v3.4h.68Z"/>
      <path class="cls-1" d="M294.38,4.67h2.35l1.82,7.12h.03V4.67h1.67v11.9h-1.92l-2.24-8.69h-.03v8.69h-1.67V4.67Z"/>
      <path class="cls-1" d="M302.06,4.67h2.67l1.19,8.52h.03l1.19-8.52h2.67v11.9h-1.77V7.56h-.03l-1.36,9.01h-1.56l-1.36-9.01h-.03v9.01h-1.63V4.67Z"/>
      <path class="cls-1" d="M311.63,4.67h5.1v1.7h-3.23v3.14h2.57v1.7h-2.57v3.65h3.23v1.7h-5.1V4.67Z"/>
      <path class="cls-1" d="M318.23,4.67h2.35l1.82,7.12h.03V4.67h1.67v11.9h-1.92l-2.24-8.69h-.03v8.69h-1.67V4.67Z"/>
      <path class="cls-1" d="M327.38,6.37h-1.95v-1.7h5.78v1.7h-1.95v10.2h-1.87V6.37Z"/>
      <path class="cls-1" d="M335.35,13.75v-.68h1.77v.82c0,.85,.37,1.16,.97,1.16s.97-.31,.97-1.19c0-.99-.37-1.61-1.6-2.69-1.56-1.38-2.07-2.35-2.07-3.71,0-1.87,.97-2.96,2.79-2.96s2.72,1.09,2.72,2.99v.49h-1.77v-.61c0-.85-.34-1.17-.94-1.17s-.93,.32-.93,1.14c0,.87,.39,1.5,1.61,2.57,1.56,1.38,2.06,2.33,2.06,3.81,0,1.94-.99,3.03-2.82,3.03s-2.75-1.09-2.75-2.99Z"/>
      <path class="cls-1" d="M342.42,4.67h2.75c1.87,0,2.79,1.04,2.79,2.94v1.17c0,1.9-.92,2.94-2.79,2.94h-.88v4.84h-1.87V4.67Zm2.75,5.35c.59,0,.92-.27,.92-1.12v-1.41c0-.85-.32-1.12-.92-1.12h-.88v3.65h.88Z"/>
      <path class="cls-1" d="M349.41,4.67h5.1v1.7h-3.23v3.14h2.57v1.7h-2.57v3.65h3.23v1.7h-5.1V4.67Z"/>
      <path class="cls-1" d="M356,4.67h2.35l1.82,7.12h.03V4.67h1.67v11.9h-1.92l-2.24-8.69h-.03v8.69h-1.67V4.67Z"/>
      <path class="cls-1" d="M363.69,4.67h2.86c1.87,0,2.79,1.04,2.79,2.94v6.02c0,1.9-.92,2.94-2.79,2.94h-2.86V4.67Zm2.82,10.2c.59,0,.95-.31,.95-1.16V7.53c0-.85-.36-1.16-.95-1.16h-.95V14.87h.95Z"/>
      <path class="cls-1" d="M371.02,4.67h1.87v11.9h-1.87V4.67Z"/>
      <path class="cls-1" d="M374.7,4.67h2.35l1.82,7.12h.03V4.67h1.67v11.9h-1.92l-2.24-8.69h-.03v8.69h-1.67V4.67Z"/>
      <path class="cls-1" d="M382.25,13.75V7.49c0-1.9,.95-2.99,2.79-2.99s2.79,1.09,2.79,2.99v1.02h-1.77v-1.14c0-.85-.37-1.17-.97-1.17s-.97,.32-.97,1.17v6.51c0,.85,.37,1.16,.97,1.16s.97-.31,.97-1.16v-2.33h-.93v-1.7h2.7v3.89c0,1.9-.95,2.99-2.79,2.99s-2.79-1.09-2.79-2.99Z"/>
      <path class="cls-3" d="M397.74,13.75V7.49c0-1.9,1-2.99,2.84-2.99s2.84,1.09,2.84,2.99v6.26c0,1.9-1,2.99-2.84,2.99s-2.84-1.09-2.84-2.99Zm3.81,.12V7.37c0-.85-.37-1.17-.97-1.17s-.97,.32-.97,1.17v6.49c0,.85,.37,1.17,.97,1.17s.97-.32,.97-1.17Z"/>
      <path class="cls-3" d="M405.1,4.67h2.35l1.82,7.12h.03V4.67h1.67v11.9h-1.92l-2.24-8.69h-.03v8.69h-1.67V4.67Z"/>
    </g>
    <g>
      <g>
        <path class="cls-5" d="M51.29,66.82c0-1.7,.48-2.74,1.87-4.2,1.43-1.51,1.84-2.41,1.84-3.52s-.37-1.36-.97-1.36-.97,.32-.97,1.17v1.27h-1.77v-1.16c0-1.9,.95-2.99,2.79-2.99s2.79,1.09,2.79,2.99c0,1.41-.58,2.67-2.31,4.5-1.12,1.19-1.41,1.79-1.41,2.62v.25h3.55v1.7h-5.41v-1.29Z"/>
        <path class="cls-5" d="M58.41,65.29v-6.26c0-1.9,1-2.99,2.84-2.99s2.84,1.09,2.84,2.99v6.26c0,1.9-1,2.99-2.84,2.99s-2.84-1.09-2.84-2.99Zm3.81,.12v-6.49c0-.85-.37-1.17-.97-1.17s-.97,.32-.97,1.17v6.49c0,.85,.37,1.17,.97,1.17s.97-.32,.97-1.17Z"/>
        <path class="cls-5" d="M68.39,59.03h-1.95v-1.33c1.58,0,2.14-.34,2.57-1.5h1.26v11.9h-1.87v-9.08Z"/>
        <path class="cls-5" d="M72.95,65.29v-.94h1.77v1.07c0,.85,.37,1.16,.97,1.16s.97-.31,.97-1.16v-2.67c0-.85-.37-1.17-.97-1.17s-.97,.32-.97,1.17v.1h-1.77l.34-6.65h4.93v1.7h-3.26l-.15,2.84h.03c.34-.56,.87-.87,1.61-.87,1.38,0,2.07,.97,2.07,2.72v2.69c0,1.9-.95,2.99-2.79,2.99s-2.79-1.09-2.79-2.99Z"/>
      </g>
      <g>
        <path class="cls-4" d="M51.29,90.69c0-1.7,.48-2.74,1.87-4.2,1.43-1.51,1.84-2.41,1.84-3.52s-.37-1.36-.97-1.36-.97,.32-.97,1.17v1.27h-1.77v-1.16c0-1.9,.95-2.99,2.79-2.99s2.79,1.09,2.79,2.99c0,1.41-.58,2.67-2.31,4.5-1.12,1.19-1.41,1.79-1.41,2.62v.25h3.55v1.7h-5.41v-1.29Z"/>
        <path class="cls-4" d="M58.41,89.16v-6.26c0-1.9,1-2.99,2.84-2.99s2.84,1.09,2.84,2.99v6.26c0,1.9-1,2.99-2.84,2.99s-2.84-1.09-2.84-2.99Zm3.81,.12v-6.49c0-.85-.37-1.17-.97-1.17s-.97,.32-.97,1.17v6.49c0,.85,.37,1.17,.97,1.17s.97-.32,.97-1.17Z"/>
        <path class="cls-4" d="M65.74,90.69c0-1.7,.48-2.74,1.87-4.2,1.43-1.51,1.84-2.41,1.84-3.52s-.37-1.36-.97-1.36-.97,.32-.97,1.17v1.27h-1.77v-1.16c0-1.9,.95-2.99,2.79-2.99s2.79,1.09,2.79,2.99c0,1.41-.58,2.67-2.31,4.5-1.12,1.19-1.41,1.79-1.41,2.62v.25h3.55v1.7h-5.41v-1.29Z"/>
        <path class="cls-4" d="M75.62,82.91h-1.95v-1.33c1.58,0,2.14-.34,2.57-1.5h1.26v11.9h-1.87v-9.08Z"/>
      </g>
      <rect class="cls-5" x="86.3" y="52.61" width="279.59" height="18.51"/>
      <g>
        <rect class="cls-4" x="85.89" y="75.86" width="297.85" height="18.51"/>
        <g>
          <path class="cls-1" d="M354.46,88.19v-.94h1.77v1.07c0,.85,.37,1.16,.97,1.16s.97-.31,.97-1.16v-2.67c0-.85-.37-1.17-.97-1.17s-.97,.32-.97,1.17v.1h-1.77l.34-6.65h4.93v1.7h-3.26l-.15,2.84h.03c.34-.56,.87-.87,1.61-.87,1.38,0,2.07,.97,2.07,2.72v2.69c0,1.9-.95,2.99-2.79,2.99s-2.79-1.09-2.79-2.99Z"/>
          <path class="cls-1" d="M361.6,88.22v-.97h1.77v1.05c0,.85,.37,1.17,.97,1.17s.97-.29,.97-1.34v-.97c0-1.1-.37-1.51-1.22-1.51h-.63v-1.7h.68c.7,0,1.12-.31,1.12-1.26v-.87c0-.85-.39-1.19-.94-1.19s-.9,.32-.9,1.1v.78h-1.77v-.63c0-1.9,.95-2.96,2.74-2.96s2.74,1.04,2.74,2.94v.42c0,1.27-.41,2.06-1.33,2.4v.03c1,.37,1.38,1.24,1.38,2.45v1.05c0,1.9-.95,2.94-2.79,2.94s-2.79-1.05-2.79-2.96Z"/>
          <path class="cls-1" d="M368.86,83.82v-2.97c0-1.22,.63-1.9,1.8-1.9s1.8,.68,1.8,1.9v2.97c0,1.22-.63,1.9-1.8,1.9s-1.8-.68-1.8-1.9Zm2.41,.08v-3.14c0-.53-.24-.75-.61-.75s-.61,.22-.61,.75v3.14c0,.53,.22,.75,.61,.75s.61-.22,.61-.75Zm3.71-4.79h1.19l-4.61,11.9h-1.19l4.61-11.9Zm-.9,10.17v-2.97c0-1.22,.63-1.9,1.8-1.9s1.8,.68,1.8,1.9v2.97c0,1.22-.63,1.9-1.8,1.9s-1.8-.68-1.8-1.9Zm2.41,.08v-3.14c0-.53-.24-.75-.61-.75s-.61,.22-.61,.75v3.14c0,.53,.22,.75,.61,.75s.61-.22,.61-.75Z"/>
        </g>
      </g>
      <g>
        <path class="cls-1" d="M339.75,65.65h-3.57v-1.7l3.4-8.04h2.04v8.04h.88v1.7h-.88v2.16h-1.87v-2.16Zm0-1.7v-4.64h-.03l-1.84,4.64h1.87Z"/>
        <path class="cls-1" d="M347.5,57.61h-3.77v-1.7h5.61v1.63l-2.92,10.27h-1.9l2.99-10.2Z"/>
        <path class="cls-1" d="M350.97,60.62v-2.97c0-1.22,.63-1.9,1.8-1.9s1.8,.68,1.8,1.9v2.97c0,1.22-.63,1.9-1.8,1.9s-1.8-.68-1.8-1.9Zm2.41,.08v-3.14c0-.53-.24-.75-.61-.75s-.61,.22-.61,.75v3.14c0,.53,.22,.75,.61,.75s.61-.22,.61-.75Zm3.71-4.79h1.19l-4.61,11.9h-1.19l4.61-11.9Zm-.9,10.17v-2.97c0-1.22,.63-1.9,1.8-1.9s1.8,.68,1.8,1.9v2.97c0,1.22-.63,1.9-1.8,1.9s-1.8-.68-1.8-1.9Zm2.41,.08v-3.14c0-.53-.24-.75-.61-.75s-.61,.22-.61,.75v3.14c0,.53,.22,.75,.61,.75s.61-.22,.61-.75Z"/>
      </g>
      <line class="cls-2" x1="85.92" y1="49.71" x2="85.92" y2="96.54"/>
    </g>
  </g>
</svg>