<?xml version="1.0" encoding="UTF-8"?><svg id="Layer_2" xmlns="http://www.w3.org/2000/svg" xmlns:xlink="http://www.w3.org/1999/xlink" viewBox="0 0 183.61 145.26"><defs><style>.cls-1,.cls-2{fill:none;}.cls-3{fill:#f4cada;}.cls-4{fill:#ec99ba;}.cls-5{fill:#e5699e;}.cls-6{fill:#fff;}.cls-7{fill:#fbecf1;}.cls-8{fill:#8b596f;}.cls-9{fill:#e01a83;}.cls-10{fill:#777677;}.cls-11{fill:#fdf2f6;stroke:#f4cada;stroke-miterlimit:10;stroke-width:.67px;}.cls-2{clip-path:url(#clippath);}</style><clipPath id="clippath"><rect class="cls-1" x=".03" y="125.54" width="183.55" height="19.71"/></clipPath></defs><g id="Layer_2-2"><rect class="cls-7" x="0" width="183.61" height="145.26"/><rect class="cls-3" x=".02" y="121.74" width="183.08" height="3.82"/><path class="cls-4" d="m138.01,103.47c0-2.88-2.34-5.22-5.22-5.22s-5.22,2.34-5.22,5.22,2.34,5.22,5.22,5.22,5.22-2.34,5.22-5.22Z"/><path class="cls-4" d="m121.11,121.75h23.36c-.65-5.87-5.64-10.45-11.68-10.45s-11.03,4.58-11.68,10.45Z"/><path class="cls-4" d="m164.95,103.47c0-2.88-2.34-5.22-5.22-5.22s-5.22,2.34-5.22,5.22,2.34,5.22,5.22,5.22,5.22-2.34,5.22-5.22Z"/><path class="cls-4" d="m148.05,121.75h23.36c-.65-5.87-5.64-10.45-11.68-10.45s-11.03,4.58-11.68,10.45Z"/><path class="cls-9" d="m51.99,111.3c-6.04,0-11.03,4.58-11.68,10.45h23.36c-.65-5.87-5.64-10.45-11.68-10.45Z"/><path class="cls-9" d="m46.41,109.16c.82-.41,1.32-.78,3.3-1.02.69.34,1.46.54,2.27.54.76,0,1.48-.17,2.14-.47,2.1.35,3.56.94,3.56.94.18.09.36.04.5-.09.99-1.08.81-2.17.63-3.38h0c-.09-.54-.18-1.08-.18-1.71,0-5.23-2.48-8.35-6.68-8.35-4.19,0-6.68,3.11-6.68,8.35,0,.59-.09,1.13-.14,1.62-.18,1.22-.32,2.39.68,3.52.09.09.32.18.59.04Z"/><path class="cls-9" d="m25.06,111.3c-6.04,0-11.03,4.58-11.68,10.45h23.36c-.65-5.87-5.64-10.45-11.68-10.45Z"/><path class="cls-9" d="m19.48,109.16c.82-.41,1.32-.78,3.3-1.02.69.34,1.46.54,2.27.54.76,0,1.48-.17,2.14-.47,2.1.35,3.56.94,3.56.94.18.09.36.04.5-.09.99-1.08.81-2.17.63-3.38h0c-.09-.54-.18-1.08-.18-1.71,0-5.23-2.48-8.35-6.68-8.35-4.19,0-6.68,3.11-6.68,8.35,0,.59-.09,1.13-.14,1.62-.18,1.22-.32,2.39.68,3.52.09.09.32.18.59.04Z"/><path class="cls-9" d="m105.81,111.3c-6.04,0-11.03,4.58-11.68,10.45h23.36c-.65-5.87-5.64-10.45-11.68-10.45Z"/><path class="cls-9" d="m100.23,109.16c.82-.41,1.32-.78,3.3-1.02.69.34,1.46.54,2.27.54.76,0,1.48-.17,2.14-.47,2.1.35,3.56.94,3.56.94.18.09.36.04.5-.09.99-1.08.81-2.17.63-3.38h0c-.09-.54-.18-1.08-.18-1.71,0-5.23-2.48-8.35-6.68-8.35-4.19,0-6.68,3.11-6.68,8.35,0,.59-.09,1.13-.14,1.62-.18,1.22-.32,2.39.68,3.52.09.09.32.18.59.04Z"/><path class="cls-9" d="m78.88,111.3c-6.04,0-11.03,4.58-11.68,10.45h23.36c-.65-5.87-5.64-10.45-11.68-10.45Z"/><path class="cls-9" d="m73.3,109.16c.82-.41,1.32-.78,3.3-1.02.69.34,1.46.54,2.27.54.76,0,1.48-.17,2.14-.47,2.1.35,3.56.94,3.56.94.18.09.36.04.5-.09.99-1.08.81-2.17.63-3.38h0c-.09-.54-.18-1.08-.18-1.71,0-5.23-2.48-8.35-6.68-8.35-4.19,0-6.68,3.11-6.68,8.35,0,.59-.09,1.13-.14,1.62-.18,1.22-.32,2.39.68,3.52.09.09.32.18.59.04Z"/><path class="cls-10" d="m13.9,18.96c-.3-.32-.45-.78-.45-1.39v-3.91c0-.6.15-1.06.45-1.39.3-.32.73-.48,1.3-.48s1,.16,1.3.48c.3.32.45.78.45,1.39v.64h-1.1v-.71c0-.49-.2-.73-.61-.73s-.61.24-.61.73v4.07c0,.48.2.72.61.72s.61-.24.61-.72v-1.46h-.58v-1.06h1.69v2.43c0,.6-.15,1.06-.45,1.39s-.73.48-1.3.48-1-.16-1.3-.48Z"/><path class="cls-10" d="m18.22,11.9h1.17v6.37h1.92v1.06h-3.09v-7.43Z"/><path class="cls-10" d="m22.73,18.95c-.3-.33-.46-.79-.46-1.38v-3.91c0-.59.15-1.05.46-1.38.3-.33.74-.49,1.32-.49s1.01.16,1.32.49c.3.33.46.79.46,1.38v3.91c0,.59-.15,1.05-.46,1.38-.3.33-.74.49-1.32.49s-1.01-.16-1.32-.49Zm1.92-1.31v-4.06c0-.49-.2-.73-.61-.73s-.61.24-.61.73v4.06c0,.49.2.73.61.73s.61-.24.61-.73Z"/><path class="cls-10" d="m27.14,11.9h1.76c.6,0,1.04.14,1.32.42.28.28.41.71.41,1.29v.3c0,.38-.06.69-.19.93-.12.24-.31.41-.57.52v.02c.58.2.87.71.87,1.55v.64c0,.57-.15,1.01-.45,1.31-.3.3-.74.45-1.32.45h-1.84v-7.43Zm1.62,3.03c.23,0,.41-.06.53-.18.12-.12.18-.32.18-.61v-.41c0-.27-.05-.46-.14-.58-.1-.12-.25-.18-.45-.18h-.56v1.96h.46Zm.21,3.35c.21,0,.36-.05.46-.16.1-.11.15-.3.15-.57v-.65c0-.34-.06-.58-.18-.71-.12-.13-.31-.2-.58-.2h-.52v2.28h.67Z"/><path class="cls-10" d="m32.87,11.9h1.58l1.21,7.43h-1.17l-.21-1.48v.02h-1.33l-.21,1.46h-1.08l1.21-7.43Zm1.27,4.97l-.52-3.67h-.02l-.51,3.67h1.05Z"/><path class="cls-10" d="m36.75,11.9h1.17v6.37h1.92v1.06h-3.09v-7.43Z"/><path class="cls-10" d="m40.94,11.9h1.17v6.37h1.92v1.06h-3.09v-7.43Z"/><path class="cls-10" d="m45.26,16.17l-1.41-4.27h1.24l.8,2.73h.02l.8-2.73h1.14l-1.41,4.27v3.16h-1.17v-3.16Z"/><path class="cls-10" d="m48.29,19.33h-.38v-1.13h1.13v1.01l-.58,1.39h-.54l.38-1.27Z"/><path class="cls-5" d="m13.57,27.02h1.31l.6,6.63h.02l.64-6.63h1.48l.64,6.63h.02l.6-6.63h1.17l-.88,8.63h-1.69l-.62-5.82h-.02l-.62,5.82h-1.8l-.88-8.63Z"/><path class="cls-5" d="m21.81,35.21c-.35-.38-.53-.91-.53-1.6v-4.54c0-.69.18-1.23.53-1.6.35-.38.86-.57,1.53-.57s1.18.19,1.53.57c.35.38.53.91.53,1.6v4.54c0,.69-.18,1.23-.53,1.6-.35.38-.86.57-1.53.57s-1.18-.19-1.53-.57Zm2.23-1.52v-4.71c0-.57-.23-.85-.7-.85s-.7.28-.7.85v4.71c0,.57.23.85.7.85s.7-.28.7-.85Z"/><path class="cls-5" d="m26.93,27.02h1.94l.86,6.18h.02l.86-6.18h1.94v8.63h-1.28v-6.54h-.02l-.99,6.54h-1.13l-.99-6.54h-.02v6.54h-1.18v-8.63Z"/><path class="cls-5" d="m34.18,27.02h3.7v1.23h-2.34v2.28h1.86v1.23h-1.86v2.65h2.34v1.23h-3.7v-8.63Z"/><path class="cls-5" d="m39.27,27.02h1.7l1.32,5.17h.02v-5.17h1.21v8.63h-1.39l-1.63-6.3h-.02v6.3h-1.21v-8.63Z"/><path class="cls-10" d="m48.79,27.02h1.84l1.41,8.63h-1.36l-.25-1.71v.02h-1.54l-.25,1.69h-1.26l1.41-8.63Zm1.48,5.77l-.6-4.27h-.02l-.59,4.27h1.22Z"/><path class="cls-10" d="m53.3,27.02h2.01c.7,0,1.21.16,1.53.49.32.32.48.82.48,1.5v.53c0,.9-.3,1.46-.89,1.7v.02c.33.1.56.3.7.6.14.3.2.71.2,1.22v1.52c0,.25,0,.45.02.6.02.15.06.3.12.45h-1.38c-.05-.14-.08-.27-.1-.39-.02-.12-.02-.35-.02-.67v-1.58c0-.39-.06-.67-.19-.83-.13-.16-.35-.23-.66-.23h-.47v3.7h-1.36v-8.63Zm1.85,3.7c.27,0,.47-.07.61-.21.14-.14.2-.37.2-.7v-.67c0-.31-.06-.54-.17-.68-.11-.14-.29-.21-.52-.21h-.62v2.47h.49Z"/><path class="cls-10" d="m58.89,27.02h3.7v1.23h-2.34v2.28h1.86v1.23h-1.86v2.65h2.34v1.23h-3.7v-8.63Z"/><path class="cls-10" d="m67.63,28.26h-1.42v-1.23h4.19v1.23h-1.42v7.4h-1.36v-7.4Z"/><path class="cls-10" d="m71.41,27.02h1.31l.6,6.63h.02l.64-6.63h1.48l.64,6.63h.02l.6-6.63h1.17l-.88,8.63h-1.69l-.62-5.82h-.02l-.62,5.82h-1.8l-.88-8.63Z"/><path class="cls-10" d="m79.21,27.02h1.36v8.63h-1.36v-8.63Z"/><path class="cls-10" d="m82.62,35.22c-.34-.37-.51-.89-.51-1.57v-4.64c0-.67.17-1.2.51-1.57.34-.37.84-.55,1.49-.55s1.14.18,1.49.55c.34.37.51.89.51,1.57v.91h-1.28v-1c0-.53-.23-.8-.68-.8s-.68.27-.68.8v4.82c0,.53.23.79.68.79s.68-.26.68-.79v-1.32h1.28v1.22c0,.67-.17,1.2-.51,1.57-.34.37-.84.56-1.49.56s-1.14-.19-1.49-.56Z"/><path class="cls-10" d="m87.54,27.02h3.7v1.23h-2.34v2.28h1.86v1.23h-1.86v2.65h2.34v1.23h-3.7v-8.63Z"/><path class="cls-10" d="m96.27,27.02h1.84l1.41,8.63h-1.36l-.25-1.71v.02h-1.54l-.25,1.69h-1.26l1.41-8.63Zm1.48,5.77l-.6-4.27h-.02l-.59,4.27h1.22Z"/><path class="cls-10" d="m101.01,35.22c-.34-.37-.51-.91-.51-1.61v-.49h1.28v.59c0,.56.23.84.7.84.23,0,.4-.07.52-.2s.18-.36.18-.66c0-.36-.08-.68-.25-.96s-.47-.61-.91-.99c-.56-.49-.95-.94-1.17-1.34-.22-.4-.33-.85-.33-1.35,0-.68.17-1.21.52-1.58.35-.37.85-.56,1.5-.56s1.14.19,1.47.56.5.91.5,1.61v.36h-1.28v-.44c0-.3-.06-.51-.17-.65-.12-.14-.28-.2-.51-.2-.45,0-.68.28-.68.83,0,.31.08.6.25.88.17.27.47.6.92.99.57.49.96.94,1.17,1.34.21.4.32.88.32,1.42,0,.71-.17,1.25-.52,1.63-.35.38-.86.57-1.52.57s-1.16-.19-1.49-.56Z"/><path class="cls-10" d="m108.54,27.02h1.36v7.4h2.23v1.23h-3.59v-8.63Z"/><path class="cls-10" d="m113.4,27.02h1.36v8.63h-1.36v-8.63Z"/><path class="cls-10" d="m116.38,27.02h1.36v3.64l1.73-3.64h1.36l-1.62,3.17,1.64,5.46h-1.42l-1.15-3.85-.54,1.1v2.75h-1.36v-8.63Z"/><path class="cls-10" d="m122.1,27.02h3.7v1.23h-2.34v2.28h1.86v1.23h-1.86v2.65h2.34v1.23h-3.7v-8.63Z"/><path class="cls-10" d="m127.19,27.02h1.36v7.4h2.23v1.23h-3.59v-8.63Z"/><path class="cls-10" d="m132.21,31.98l-1.64-4.96h1.44l.93,3.17h.02l.92-3.17h1.32l-1.64,4.96v3.67h-1.36v-3.67Z"/><path class="cls-10" d="m140.08,27.02h1.84l1.41,8.63h-1.36l-.25-1.71v.02h-1.54l-.25,1.69h-1.26l1.41-8.63Zm1.48,5.77l-.6-4.27h-.02l-.59,4.27h1.22Z"/><path class="cls-10" d="m144.83,35.22c-.34-.37-.51-.91-.51-1.61v-.49h1.28v.59c0,.56.23.84.7.84.23,0,.4-.07.52-.2s.18-.36.18-.66c0-.36-.08-.68-.25-.96s-.47-.61-.91-.99c-.56-.49-.95-.94-1.17-1.34-.22-.4-.33-.85-.33-1.35,0-.68.17-1.21.52-1.58.35-.37.85-.56,1.5-.56s1.14.19,1.47.56.5.91.5,1.61v.36h-1.28v-.44c0-.3-.06-.51-.17-.65-.12-.14-.28-.2-.51-.2-.45,0-.68.28-.68.83,0,.31.08.6.25.88.17.27.47.6.92.99.57.49.96.94,1.17,1.34.21.4.32.88.32,1.42,0,.71-.17,1.25-.52,1.63-.35.38-.86.57-1.52.57s-1.16-.19-1.49-.56Z"/><path class="cls-10" d="m152.35,27.02h1.94l.86,6.18h.02l.86-6.18h1.94v8.63h-1.28v-6.54h-.02l-.99,6.54h-1.13l-.99-6.54h-.02v6.54h-1.18v-8.63Z"/><path class="cls-10" d="m159.6,27.02h3.7v1.23h-2.34v2.28h1.86v1.23h-1.86v2.65h2.34v1.23h-3.7v-8.63Z"/><path class="cls-10" d="m164.69,27.02h1.7l1.32,5.17h.02v-5.17h1.21v8.63h-1.39l-1.63-6.3h-.02v6.3h-1.21v-8.63Z"/><rect class="cls-3" x="13.38" y="71.11" width="74.51" height="4.36"/><rect class="cls-8" x="108.99" y="40.99" width="62.62" height="12.23"/><path class="cls-10" d="m14.55,44.26h-1.22v-1.06h3.61v1.06h-1.22v6.37h-1.17v-6.37Z"/><path class="cls-10" d="m18.36,50.25c-.3-.33-.46-.79-.46-1.38v-3.91c0-.59.15-1.05.46-1.38.3-.33.74-.49,1.32-.49s1.01.16,1.32.49c.3.33.46.79.46,1.38v3.91c0,.59-.15,1.05-.46,1.38-.3.33-.74.49-1.32.49s-1.01-.16-1.32-.49Zm1.92-1.31v-4.06c0-.49-.2-.73-.61-.73s-.61.24-.61.73v4.06c0,.49.2.73.61.73s.61-.24.61-.73Z"/><path class="cls-10" d="m25,43.2h1.73c.6,0,1.04.14,1.32.42.28.28.41.71.41,1.29v.46c0,.77-.25,1.26-.76,1.47v.02c.28.08.48.26.6.52.12.26.18.61.18,1.05v1.31c0,.21,0,.38.02.52.01.13.05.26.11.39h-1.19c-.04-.12-.07-.23-.08-.34-.01-.11-.02-.3-.02-.57v-1.36c0-.34-.05-.58-.16-.71-.11-.13-.3-.2-.57-.2h-.4v3.19h-1.17v-7.43Zm1.59,3.19c.23,0,.41-.06.53-.18.12-.12.18-.32.18-.61v-.57c0-.27-.05-.46-.14-.58-.1-.12-.25-.18-.45-.18h-.53v2.12h.42Z"/><path class="cls-10" d="m29.81,43.2h3.19v1.06h-2.02v1.96h1.6v1.06h-1.6v2.28h2.02v1.06h-3.19v-7.43Z"/><path class="cls-10" d="m34.2,43.2h1.72c.58,0,1.02.16,1.31.47s.44.77.44,1.37v.73c0,.6-.15,1.06-.44,1.37s-.73.47-1.31.47h-.55v3.03h-1.17v-7.43Zm1.72,3.35c.19,0,.33-.05.43-.16.1-.11.14-.29.14-.54v-.88c0-.25-.05-.44-.14-.54-.1-.11-.24-.16-.43-.16h-.55v2.28h.55Z"/><path class="cls-10" d="m39.2,50.25c-.3-.33-.46-.79-.46-1.38v-3.91c0-.59.15-1.05.46-1.38.3-.33.74-.49,1.32-.49s1.01.16,1.32.49c.3.33.46.79.46,1.38v3.91c0,.59-.15,1.05-.46,1.38-.3.33-.74.49-1.32.49s-1.01-.16-1.32-.49Zm1.92-1.31v-4.06c0-.49-.2-.73-.61-.73s-.61.24-.61.73v4.06c0,.49.2.73.61.73s.61-.24.61-.73Z"/><path class="cls-10" d="m43.6,43.2h1.73c.6,0,1.04.14,1.32.42.28.28.41.71.41,1.29v.46c0,.77-.25,1.26-.76,1.47v.02c.28.08.48.26.6.52.12.26.18.61.18,1.05v1.31c0,.21,0,.38.02.52.01.13.05.26.11.39h-1.19c-.04-.12-.07-.23-.08-.34-.01-.11-.02-.3-.02-.57v-1.36c0-.34-.05-.58-.16-.71-.11-.13-.3-.2-.57-.2h-.4v3.19h-1.17v-7.43Zm1.59,3.19c.23,0,.41-.06.53-.18.12-.12.18-.32.18-.61v-.57c0-.27-.05-.46-.14-.58-.1-.12-.25-.18-.45-.18h-.53v2.12h.42Z"/><path class="cls-10" d="m49.31,44.26h-1.22v-1.06h3.61v1.06h-1.22v6.37h-1.17v-6.37Z"/><path class="cls-10" d="m55.02,43.2h3.19v1.06h-2.02v1.96h1.6v1.06h-1.6v2.28h2.02v1.06h-3.19v-7.43Z"/><path class="cls-10" d="m60.46,46.83l-1.29-3.63h1.23l.79,2.4h.02l.81-2.4h1.1l-1.28,3.63,1.35,3.8h-1.23l-.85-2.59h-.02l-.87,2.59h-1.1l1.35-3.8Z"/><path class="cls-10" d="m64.27,43.2h1.72c.58,0,1.02.16,1.31.47s.44.77.44,1.37v.73c0,.6-.15,1.06-.44,1.37s-.73.47-1.31.47h-.55v3.03h-1.17v-7.43Zm1.72,3.35c.19,0,.33-.05.43-.16.1-.11.14-.29.14-.54v-.88c0-.25-.05-.44-.14-.54-.1-.11-.24-.16-.43-.16h-.55v2.28h.55Z"/><path class="cls-10" d="m68.9,43.2h3.19v1.06h-2.02v1.96h1.6v1.06h-1.6v2.28h2.02v1.06h-3.19v-7.43Z"/><path class="cls-10" d="m73.28,43.2h1.73c.6,0,1.04.14,1.32.42.28.28.41.71.41,1.29v.46c0,.77-.25,1.26-.76,1.47v.02c.28.08.48.26.6.52.12.26.18.61.18,1.05v1.31c0,.21,0,.38.02.52.01.13.05.26.11.39h-1.19c-.04-.12-.07-.23-.08-.34-.01-.11-.02-.3-.02-.57v-1.36c0-.34-.05-.58-.16-.71-.11-.13-.3-.2-.57-.2h-.4v3.19h-1.17v-7.43Zm1.59,3.19c.23,0,.41-.06.53-.18.12-.12.18-.32.18-.61v-.57c0-.27-.05-.46-.14-.58-.1-.12-.25-.18-.45-.18h-.53v2.12h.42Z"/><path class="cls-10" d="m78.1,43.2h1.17v7.43h-1.17v-7.43Z"/><path class="cls-10" d="m80.67,43.2h3.19v1.06h-2.02v1.96h1.6v1.06h-1.6v2.28h2.02v1.06h-3.19v-7.43Z"/><path class="cls-10" d="m85.05,43.2h1.47l1.14,4.45h.02v-4.45h1.04v7.43h-1.2l-1.4-5.43h-.02v5.43h-1.04v-7.43Z"/><path class="cls-10" d="m90.48,50.26c-.29-.32-.44-.77-.44-1.35v-3.99c0-.58.15-1.03.44-1.35.29-.32.72-.48,1.28-.48s.99.16,1.28.48c.29.32.44.77.44,1.35v.79h-1.1v-.86c0-.46-.19-.69-.58-.69s-.58.23-.58.69v4.15c0,.45.19.68.58.68s.58-.23.58-.68v-1.14h1.1v1.05c0,.58-.15,1.03-.44,1.35-.29.32-.72.48-1.28.48s-.99-.16-1.28-.48Z"/><path class="cls-10" d="m94.71,43.2h1.17v7.43h-1.17v-7.43Z"/><path class="cls-10" d="m97.28,43.2h1.47l1.14,4.45h.02v-4.45h1.04v7.43h-1.2l-1.4-5.43h-.02v5.43h-1.04v-7.43Z"/><path class="cls-10" d="m102.71,50.25c-.3-.32-.45-.78-.45-1.39v-3.91c0-.6.15-1.06.45-1.39.3-.32.73-.48,1.3-.48s1,.16,1.3.48c.3.32.45.78.45,1.39v.64h-1.1v-.71c0-.49-.2-.73-.61-.73s-.61.24-.61.73v4.07c0,.48.2.72.61.72s.61-.24.61-.72v-1.46h-.58v-1.06h1.69v2.43c0,.6-.15,1.06-.45,1.39s-.73.48-1.3.48-1-.16-1.3-.48Z"/><path class="cls-6" d="m111.49,43.2h1.78c.58,0,1.02.16,1.31.47.29.31.44.77.44,1.37v3.76c0,.6-.15,1.06-.44,1.37-.29.31-.73.47-1.31.47h-1.78v-7.43Zm1.76,6.37c.19,0,.34-.06.44-.17.1-.11.15-.3.15-.55v-3.87c0-.25-.05-.44-.15-.55-.1-.11-.25-.17-.44-.17h-.59v5.31h.59Z"/><path class="cls-6" d="m116.33,43.2h1.17v7.43h-1.17v-7.43Z"/><path class="cls-6" d="m119.14,50.25c-.29-.32-.44-.78-.44-1.39v-.42h1.1v.51c0,.48.2.72.61.72.2,0,.35-.06.45-.18s.15-.31.15-.57c0-.31-.07-.59-.21-.82s-.4-.52-.79-.85c-.48-.42-.82-.81-1.01-1.15-.19-.34-.29-.73-.29-1.16,0-.59.15-1.04.45-1.36.3-.32.73-.48,1.3-.48s.98.16,1.27.48c.29.32.43.78.43,1.39v.31h-1.1v-.38c0-.25-.05-.44-.15-.56-.1-.12-.24-.17-.44-.17-.39,0-.58.24-.58.71,0,.27.07.52.22.75.15.23.41.52.79.85.49.42.82.81,1.01,1.16.18.35.28.75.28,1.22,0,.61-.15,1.08-.45,1.4-.3.33-.74.49-1.31.49s-.99-.16-1.28-.48Z"/><path class="cls-6" d="m123.75,50.26c-.29-.32-.44-.77-.44-1.35v-3.99c0-.58.15-1.03.44-1.35.29-.32.72-.48,1.28-.48s.99.16,1.28.48c.29.32.44.77.44,1.35v.79h-1.1v-.86c0-.46-.19-.69-.58-.69s-.58.23-.58.69v4.15c0,.45.19.68.58.68s.58-.23.58-.68v-1.14h1.1v1.05c0,.58-.15,1.03-.44,1.35-.29.32-.72.48-1.28.48s-.99-.16-1.28-.48Z"/><path class="cls-6" d="m127.98,43.2h1.73c.6,0,1.04.14,1.32.42.28.28.41.71.41,1.29v.46c0,.77-.25,1.26-.76,1.47v.02c.28.08.48.26.6.52.12.26.18.61.18,1.05v1.31c0,.21,0,.38.02.52.01.13.05.26.11.39h-1.19c-.04-.12-.07-.23-.08-.34-.01-.11-.02-.3-.02-.57v-1.36c0-.34-.05-.58-.16-.71-.11-.13-.3-.2-.57-.2h-.4v3.19h-1.17v-7.43Zm1.59,3.19c.23,0,.41-.06.53-.18.12-.12.18-.32.18-.61v-.57c0-.27-.05-.46-.14-.58-.1-.12-.25-.18-.45-.18h-.53v2.12h.42Z"/><path class="cls-6" d="m132.79,43.2h1.17v7.43h-1.17v-7.43Z"/><path class="cls-6" d="m135.36,43.2h1.67l.74,5.32h.02l.74-5.32h1.67v7.43h-1.1v-5.63h-.02l-.85,5.63h-.98l-.85-5.63h-.02v5.63h-1.02v-7.43Z"/><path class="cls-6" d="m141.61,43.2h1.17v7.43h-1.17v-7.43Z"/><path class="cls-6" d="m144.18,43.2h1.47l1.14,4.45h.02v-4.45h1.04v7.43h-1.2l-1.4-5.43h-.02v5.43h-1.04v-7.43Z"/><path class="cls-6" d="m150.15,43.2h1.58l1.21,7.43h-1.17l-.21-1.48v.02h-1.33l-.21,1.46h-1.08l1.21-7.43Zm1.27,4.97l-.52-3.67h-.02l-.51,3.67h1.05Z"/><path class="cls-6" d="m154.46,44.26h-1.22v-1.06h3.61v1.06h-1.22v6.37h-1.17v-6.37Z"/><path class="cls-6" d="m157.94,43.2h1.17v7.43h-1.17v-7.43Z"/><path class="cls-6" d="m160.88,50.25c-.3-.33-.46-.79-.46-1.38v-3.91c0-.59.15-1.05.46-1.38.3-.33.74-.49,1.32-.49s1.01.16,1.32.49c.3.33.46.79.46,1.38v3.91c0,.59-.15,1.05-.46,1.38-.3.33-.74.49-1.32.49s-1.01-.16-1.32-.49Zm1.92-1.31v-4.06c0-.49-.2-.73-.61-.73s-.61.24-.61.73v4.06c0,.49.2.73.61.73s.61-.24.61-.73Z"/><path class="cls-6" d="m165.29,43.2h1.47l1.14,4.45h.02v-4.45h1.04v7.43h-1.2l-1.4-5.43h-.02v5.43h-1.04v-7.43Z"/><path class="cls-10" d="m13.64,58.58h1.76c.6,0,1.04.14,1.32.42.28.28.41.71.41,1.29v.3c0,.38-.06.69-.19.93-.12.24-.31.41-.57.52v.02c.58.2.87.71.87,1.55v.64c0,.57-.15,1.01-.45,1.31-.3.3-.74.45-1.32.45h-1.84v-7.43Zm1.62,3.03c.23,0,.41-.06.53-.18.12-.12.18-.32.18-.61v-.41c0-.27-.05-.46-.14-.58-.1-.12-.25-.18-.45-.18h-.56v1.96h.46Zm.21,3.35c.21,0,.36-.05.46-.16.1-.11.15-.3.15-.57v-.65c0-.34-.06-.58-.18-.71-.12-.13-.31-.2-.58-.2h-.52v2.28h.67Z"/><path class="cls-10" d="m19.36,58.58h1.58l1.21,7.43h-1.17l-.21-1.48v.02h-1.33l-.21,1.46h-1.08l1.21-7.43Zm1.27,4.97l-.52-3.67h-.02l-.51,3.67h1.05Z"/><path class="cls-10" d="m23.45,65.63c-.29-.32-.44-.78-.44-1.39v-.42h1.1v.51c0,.48.2.72.61.72.2,0,.35-.06.45-.18s.15-.31.15-.57c0-.31-.07-.59-.21-.82s-.4-.52-.79-.85c-.48-.42-.82-.81-1.01-1.15-.19-.34-.29-.73-.29-1.16,0-.59.15-1.04.45-1.36.3-.32.73-.48,1.3-.48s.98.16,1.27.48c.29.32.43.78.43,1.39v.31h-1.1v-.38c0-.25-.05-.44-.15-.56-.1-.12-.24-.17-.44-.17-.39,0-.58.24-.58.71,0,.27.07.52.22.75.15.23.41.52.79.85.49.42.82.81,1.01,1.16.18.35.28.75.28,1.22,0,.61-.15,1.08-.45,1.4-.3.33-.74.49-1.31.49s-.99-.16-1.28-.48Z"/><path class="cls-10" d="m27.7,58.58h3.19v1.06h-2.02v1.96h1.6v1.06h-1.6v2.28h2.02v1.06h-3.19v-7.43Z"/><path class="cls-10" d="m32.08,58.58h1.78c.58,0,1.02.16,1.31.47.29.31.44.77.44,1.37v3.76c0,.6-.15,1.06-.44,1.37-.29.31-.73.47-1.31.47h-1.78v-7.43Zm1.76,6.37c.19,0,.34-.06.44-.17.1-.11.15-.3.15-.55v-3.87c0-.25-.05-.44-.15-.55-.1-.11-.25-.17-.44-.17h-.59v5.31h.59Z"/><path class="cls-10" d="m39.53,65.63c-.3-.33-.46-.79-.46-1.38v-3.91c0-.59.15-1.05.46-1.38.3-.33.74-.49,1.32-.49s1.01.16,1.32.49c.3.33.46.79.46,1.38v3.91c0,.59-.15,1.05-.46,1.38-.3.33-.74.49-1.32.49s-1.01-.16-1.32-.49Zm1.92-1.31v-4.06c0-.49-.2-.73-.61-.73s-.61.24-.61.73v4.06c0,.49.2.73.61.73s.61-.24.61-.73Z"/><path class="cls-10" d="m43.93,58.58h1.47l1.14,4.45h.02v-4.45h1.04v7.43h-1.2l-1.4-5.43h-.02v5.43h-1.04v-7.43Z"/><path class="cls-10" d="m52.14,59.64h-1.22v-1.06h3.61v1.06h-1.22v6.37h-1.17v-6.37Z"/><path class="cls-10" d="m55.63,58.58h1.17v3.03h1.25v-3.03h1.17v7.43h-1.17v-3.35h-1.25v3.35h-1.17v-7.43Z"/><path class="cls-10" d="m60.62,58.58h3.19v1.06h-2.02v1.96h1.6v1.06h-1.6v2.28h2.02v1.06h-3.19v-7.43Z"/><path class="cls-10" d="m65,58.58h1.17v7.43h-1.17v-7.43Z"/><path class="cls-10" d="m67.57,58.58h1.73c.6,0,1.04.14,1.32.42.28.28.41.71.41,1.29v.46c0,.77-.25,1.26-.76,1.47v.02c.28.08.48.26.6.52.12.26.18.61.18,1.05v1.31c0,.21,0,.38.02.52.01.13.05.26.11.39h-1.19c-.04-.12-.07-.23-.08-.34-.01-.11-.02-.3-.02-.57v-1.36c0-.34-.05-.58-.16-.71-.11-.13-.3-.2-.57-.2h-.4v3.19h-1.17v-7.43Zm1.59,3.19c.23,0,.41-.06.53-.18.12-.12.18-.32.18-.61v-.57c0-.27-.05-.46-.14-.58-.1-.12-.25-.18-.45-.18h-.53v2.12h.42Z"/><path class="cls-10" d="m74.85,65.63c-.29-.32-.44-.78-.44-1.39v-.42h1.1v.51c0,.48.2.72.61.72.2,0,.35-.06.45-.18s.15-.31.15-.57c0-.31-.07-.59-.21-.82s-.4-.52-.79-.85c-.48-.42-.82-.81-1.01-1.15-.19-.34-.29-.73-.29-1.16,0-.59.15-1.04.45-1.36.3-.32.73-.48,1.3-.48s.98.16,1.27.48c.29.32.43.78.43,1.39v.31h-1.1v-.38c0-.25-.05-.44-.15-.56-.1-.12-.24-.17-.44-.17-.39,0-.58.24-.58.71,0,.27.07.52.22.75.15.23.41.52.79.85.49.42.82.81,1.01,1.16.18.35.28.75.28,1.22,0,.61-.15,1.08-.45,1.4-.3.33-.74.49-1.31.49s-.99-.16-1.28-.48Z"/><path class="cls-10" d="m79.09,58.58h3.19v1.06h-2.02v1.96h1.6v1.06h-1.6v2.28h2.02v1.06h-3.19v-7.43Z"/><path class="cls-10" d="m84.53,62.21l-1.29-3.63h1.23l.79,2.4h.02l.81-2.4h1.1l-1.28,3.63,1.35,3.8h-1.23l-.85-2.59h-.02l-.87,2.59h-1.1l1.35-3.8Z"/><g id="line_bar"><g class="cls-2"><line class="cls-11" x1="219.88" y1="89.2" x2="-120.92" y2="312.37"/><line class="cls-11" x1="219.55" y1="81.48" x2="-121.26" y2="304.65"/><line class="cls-11" x1="219.22" y1="73.76" x2="-121.6" y2="296.93"/><line class="cls-11" x1="218.89" y1="66.03" x2="-121.93" y2="289.21"/><line class="cls-11" x1="218.56" y1="58.31" x2="-122.27" y2="281.48"/><line class="cls-11" x1="218.23" y1="50.59" x2="-122.6" y2="273.76"/><line class="cls-11" x1="217.91" y1="42.87" x2="-122.94" y2="266.04"/><line class="cls-11" x1="217.58" y1="35.15" x2="-123.27" y2="258.32"/><line class="cls-11" x1="217.25" y1="27.42" x2="-123.61" y2="250.6"/><line class="cls-11" x1="216.92" y1="19.7" x2="-123.94" y2="242.88"/><line class="cls-11" x1="216.59" y1="11.98" x2="-124.28" y2="235.16"/><line class="cls-11" x1="216.26" y1="4.26" x2="-124.62" y2="227.44"/><line class="cls-11" x1="215.93" y1="-3.46" x2="-124.95" y2="219.71"/><line class="cls-11" x1="215.6" y1="-11.19" x2="-125.29" y2="211.99"/><line class="cls-11" x1="215.28" y1="-18.91" x2="-125.62" y2="204.27"/><line class="cls-11" x1="214.95" y1="-26.63" x2="-125.96" y2="196.55"/><line class="cls-11" x1="214.62" y1="-34.35" x2="-126.29" y2="188.83"/><line class="cls-11" x1="214.29" y1="-42.07" x2="-126.63" y2="181.11"/><line class="cls-11" x1="213.96" y1="-49.8" x2="-126.96" y2="173.39"/><line class="cls-11" x1="213.63" y1="-57.52" x2="-127.3" y2="165.67"/><line class="cls-11" x1="213.3" y1="-65.24" x2="-127.64" y2="157.94"/><line class="cls-11" x1="212.97" y1="-72.96" x2="-127.97" y2="150.22"/><line class="cls-11" x1="212.65" y1="-80.68" x2="-128.31" y2="142.5"/><line class="cls-11" x1="212.32" y1="-88.41" x2="-128.64" y2="134.78"/><line class="cls-11" x1="211.99" y1="-96.13" x2="-128.98" y2="127.06"/><line class="cls-11" x1="211.66" y1="-103.85" x2="-129.31" y2="119.34"/><line class="cls-11" x1="211.33" y1="-111.57" x2="-129.65" y2="111.62"/><line class="cls-11" x1="211" y1="-119.29" x2="-129.98" y2="103.89"/><line class="cls-11" x1="210.67" y1="-127.01" x2="-130.32" y2="96.17"/><line class="cls-11" x1="210.34" y1="-134.74" x2="-130.66" y2="88.45"/><line class="cls-11" x1="210.02" y1="-142.46" x2="-130.99" y2="80.73"/><line class="cls-11" x1="209.69" y1="-150.18" x2="-131.33" y2="73.01"/><line class="cls-11" x1="209.36" y1="-157.9" x2="-131.66" y2="65.29"/><line class="cls-11" x1="209.03" y1="-165.62" x2="-132" y2="57.57"/><line class="cls-11" x1="208.7" y1="-173.35" x2="-132.33" y2="49.85"/><line class="cls-11" x1="208.37" y1="-181.07" x2="-132.67" y2="42.12"/><line class="cls-11" x1="208.04" y1="-188.79" x2="-133.01" y2="34.4"/><line class="cls-11" x1="207.71" y1="-196.51" x2="-133.34" y2="26.68"/><line class="cls-11" x1="207.38" y1="-204.23" x2="-133.68" y2="18.96"/><line class="cls-11" x1="207.06" y1="-211.96" x2="-134.01" y2="11.24"/><line class="cls-11" x1="206.73" y1="-219.68" x2="-134.35" y2="3.52"/><line class="cls-11" x1="483.16" y1="139.31" x2="142.33" y2="362.48"/><line class="cls-11" x1="482.83" y1="131.58" x2="142" y2="354.76"/><line class="cls-11" x1="482.5" y1="123.86" x2="141.66" y2="347.04"/><line class="cls-11" x1="482.17" y1="116.14" x2="141.32" y2="339.31"/><line class="cls-11" x1="481.85" y1="108.42" x2="140.99" y2="331.59"/><line class="cls-11" x1="481.52" y1="100.7" x2="140.65" y2="323.87"/><line class="cls-11" x1="481.19" y1="92.97" x2="140.32" y2="316.15"/><line class="cls-11" x1="480.86" y1="85.25" x2="139.98" y2="308.43"/><line class="cls-11" x1="480.53" y1="77.53" x2="139.65" y2="300.71"/><line class="cls-11" x1="480.2" y1="69.81" x2="139.31" y2="292.99"/><line class="cls-11" x1="479.87" y1="62.09" x2="138.98" y2="285.27"/><line class="cls-11" x1="479.54" y1="54.36" x2="138.64" y2="277.54"/><line class="cls-11" x1="479.22" y1="46.64" x2="138.3" y2="269.82"/><line class="cls-11" x1="478.89" y1="38.92" x2="137.97" y2="262.1"/><line class="cls-11" x1="478.56" y1="31.2" x2="137.63" y2="254.38"/><line class="cls-11" x1="478.23" y1="23.48" x2="137.3" y2="246.66"/><line class="cls-11" x1="477.9" y1="15.75" x2="136.96" y2="238.94"/><line class="cls-11" x1="477.57" y1="8.03" x2="136.63" y2="231.22"/><line class="cls-11" x1="477.24" y1=".31" x2="136.29" y2="223.5"/><line class="cls-11" x1="476.91" y1="-7.41" x2="135.96" y2="215.77"/><line class="cls-11" x1="476.59" y1="-15.13" x2="135.62" y2="208.05"/><line class="cls-11" x1="476.26" y1="-22.86" x2="135.28" y2="200.33"/><line class="cls-11" x1="475.93" y1="-30.58" x2="134.95" y2="192.61"/><line class="cls-11" x1="475.6" y1="-38.3" x2="134.61" y2="184.89"/><line class="cls-11" x1="475.27" y1="-46.02" x2="134.28" y2="177.17"/><line class="cls-11" x1="474.94" y1="-53.74" x2="133.94" y2="169.45"/><line class="cls-11" x1="474.61" y1="-61.47" x2="133.61" y2="161.72"/><line class="cls-11" x1="474.28" y1="-69.19" x2="133.27" y2="154"/><line class="cls-11" x1="473.96" y1="-76.91" x2="132.94" y2="146.28"/><line class="cls-11" x1="473.63" y1="-84.63" x2="132.6" y2="138.56"/><line class="cls-11" x1="473.3" y1="-92.35" x2="132.26" y2="130.84"/><line class="cls-11" x1="472.97" y1="-100.07" x2="131.93" y2="123.12"/><line class="cls-11" x1="472.64" y1="-107.8" x2="131.59" y2="115.4"/><line class="cls-11" x1="472.31" y1="-115.52" x2="131.26" y2="107.68"/><line class="cls-11" x1="471.98" y1="-123.24" x2="130.92" y2="99.95"/><line class="cls-11" x1="471.65" y1="-130.96" x2="130.59" y2="92.23"/><line class="cls-11" x1="471.33" y1="-138.68" x2="130.25" y2="84.51"/><line class="cls-11" x1="471" y1="-146.41" x2="129.91" y2="76.79"/><line class="cls-11" x1="470.67" y1="-154.13" x2="129.58" y2="69.07"/><line class="cls-11" x1="470.34" y1="-161.85" x2="129.24" y2="61.35"/><line class="cls-11" x1="470.01" y1="-169.57" x2="128.91" y2="53.63"/></g></g></g></svg>