<?xml version="1.0" encoding="UTF-8"?>
<svg id="Layer_2" data-name="Layer 2" xmlns="http://www.w3.org/2000/svg" viewBox="0 0 154.96 225.28">
  <defs>
    <style>
      .cls-1 {
        fill: #fff;
      }

      .cls-2 {
        stroke: #f6d4e0;
        stroke-miterlimit: 10;
        stroke-width: 3px;
      }

      .cls-2, .cls-3, .cls-4 {
        fill: none;
      }

      .cls-5 {
        fill: #8c5970;
      }

      .cls-6 {
        fill: #777677;
      }

      .cls-7 {
        fill: #e01a83;
      }

      .cls-3 {
        stroke: #e5699e;
        stroke-dasharray: 0 0 0 2.91;
        stroke-linecap: round;
        stroke-width: 1.75px;
      }

      .cls-3, .cls-4 {
        stroke-linejoin: round;
      }

      .cls-8 {
        fill: #ec99ba;
      }

      .cls-9 {
        fill: #fbecf1;
      }

      .cls-4 {
        stroke: #bdbcbb;
      }
    </style>
  </defs>
  <g id="Layer_2-2" data-name="Layer 2">
    <g>
      <g>
        <line class="cls-3" x1="96.26" y1="3.54" x2="154.09" y2="3.54"/>
        <line class="cls-3" x1=".88" y1="3.54" x2="52.47" y2="3.54"/>
        <line class="cls-2" x1="93.14" y1="27.43" x2="140.64" y2="27.43"/>
        <g>
          <path class="cls-6" d="M60.3,.11h1.19V7.66h-1.19V.11Z"/>
          <path class="cls-6" d="M62.91,.11h1.49l1.15,4.52h.02V.11h1.06V7.66h-1.22l-1.42-5.51h-.02V7.66h-1.06V.11Z"/>
          <path class="cls-6" d="M70.3,6.84c0-1.08,.3-1.74,1.19-2.66,.91-.96,1.17-1.53,1.17-2.23s-.24-.86-.61-.86-.61,.21-.61,.74v.81h-1.12v-.73c0-1.21,.6-1.9,1.77-1.9s1.77,.69,1.77,1.9c0,.9-.37,1.69-1.47,2.86-.71,.75-.9,1.13-.9,1.66v.16h2.25v1.08h-3.43v-.82Z"/>
          <path class="cls-6" d="M75.1,5.87V1.9c0-1.21,.64-1.9,1.8-1.9s1.8,.69,1.8,1.9v3.97c0,1.21-.64,1.9-1.8,1.9s-1.8-.69-1.8-1.9Zm2.42,.08V1.82c0-.54-.24-.74-.61-.74s-.61,.21-.61,.74V5.94c0,.54,.24,.74,.61,.74s.61-.21,.61-.74Z"/>
          <path class="cls-6" d="M80.02,6.84c0-1.08,.3-1.74,1.19-2.66,.91-.96,1.17-1.53,1.17-2.23s-.24-.86-.61-.86-.61,.21-.61,.74v.81h-1.12v-.73c0-1.21,.6-1.9,1.77-1.9s1.77,.69,1.77,1.9c0,.9-.37,1.69-1.47,2.86-.71,.75-.9,1.13-.9,1.66v.16h2.25v1.08h-3.43v-.82Z"/>
          <path class="cls-6" d="M84.87,6.84c0-1.08,.3-1.74,1.19-2.66,.91-.96,1.17-1.53,1.17-2.23s-.24-.86-.61-.86-.61,.21-.61,.74v.81h-1.12v-.73c0-1.21,.6-1.9,1.77-1.9s1.77,.69,1.77,1.9c0,.9-.37,1.69-1.47,2.86-.71,.75-.9,1.13-.9,1.66v.16h2.25v1.08h-3.43v-.82Z"/>
          <path class="cls-6" d="M90.14,7.66h-.39v-1.14h1.14v1.02l-.59,1.41h-.55l.39-1.29Z"/>
        </g>
        <g>
          <path class="cls-6" d="M.05,15.46H1.81c1.23,0,1.76,.57,1.76,1.74v.46c0,.78-.25,1.27-.78,1.49v.02c.59,.18,.79,.74,.79,1.6v1.33c0,.37,.01,.64,.13,.92h-1.21c-.06-.19-.11-.31-.11-.93v-1.38c0-.7-.2-.93-.74-.93h-.41v3.24H.05v-7.55Zm1.62,3.24c.44,0,.71-.19,.71-.8v-.58c0-.54-.18-.78-.6-.78h-.54v2.16h.43Z"/>
          <path class="cls-6" d="M4.94,15.46h3.24v1.08h-2.05v2h1.63v1.08h-1.63v2.32h2.05v1.08h-3.24v-7.55Z"/>
          <path class="cls-6" d="M9.39,15.46h3.14v1.08h-1.95v2.1h1.53v1.08h-1.53v3.29h-1.19v-7.55Z"/>
          <path class="cls-6" d="M13.6,21.22v-5.76h1.19v5.85c0,.54,.23,.73,.6,.73s.6-.19,.6-.73v-5.85h1.14v5.76c0,1.21-.6,1.9-1.77,1.9s-1.77-.69-1.77-1.9Z"/>
          <path class="cls-6" d="M18.44,21.22v-3.97c0-1.21,.6-1.9,1.77-1.9s1.77,.69,1.77,1.9v.65h-1.12v-.72c0-.54-.24-.74-.61-.74s-.61,.21-.61,.74v4.13c0,.54,.24,.73,.61,.73s.61-.19,.61-.73v-1.48h-.59v-1.08h1.72v2.47c0,1.21-.6,1.9-1.77,1.9s-1.77-.69-1.77-1.9Z"/>
          <path class="cls-6" d="M23.28,15.46h3.24v1.08h-2.05v2h1.63v1.08h-1.63v2.32h2.05v1.08h-3.24v-7.55Z"/>
          <path class="cls-6" d="M27.74,15.46h3.24v1.08h-2.05v2h1.63v1.08h-1.63v2.32h2.05v1.08h-3.24v-7.55Z"/>
          <path class="cls-6" d="M34.46,15.46h1.49l1.15,4.52h.02v-4.52h1.06v7.55h-1.22l-1.42-5.51h-.02v5.51h-1.06v-7.55Z"/>
          <path class="cls-6" d="M39.57,21.22v-5.76h1.19v5.85c0,.54,.23,.73,.6,.73s.6-.19,.6-.73v-5.85h1.14v5.76c0,1.21-.6,1.9-1.77,1.9s-1.77-.69-1.77-1.9Z"/>
          <path class="cls-6" d="M44.49,15.46h1.69l.76,5.4h.02l.76-5.4h1.69v7.55h-1.12v-5.72h-.02l-.86,5.72h-.99l-.86-5.72h-.02v5.72h-1.04v-7.55Z"/>
          <path class="cls-6" d="M50.83,15.46h1.79c1.23,0,1.76,.57,1.76,1.74v.3c0,.78-.24,1.26-.77,1.48v.02c.64,.22,.88,.78,.88,1.58v.65c0,1.17-.61,1.79-1.8,1.79h-1.87v-7.55Zm1.65,3.07c.44,0,.71-.19,.71-.8v-.42c0-.54-.18-.78-.6-.78h-.57v2h.46Zm.22,3.4c.4,0,.61-.18,.61-.74v-.66c0-.7-.23-.92-.77-.92h-.53v2.32h.68Z"/>
          <path class="cls-6" d="M55.73,15.46h3.24v1.08h-2.05v2h1.63v1.08h-1.63v2.32h2.05v1.08h-3.24v-7.55Z"/>
          <path class="cls-6" d="M60.19,15.46h1.76c1.23,0,1.76,.57,1.76,1.74v.46c0,.78-.25,1.27-.78,1.49v.02c.59,.18,.79,.74,.79,1.6v1.33c0,.37,.01,.64,.13,.92h-1.21c-.06-.19-.11-.31-.11-.93v-1.38c0-.7-.2-.93-.74-.93h-.41v3.24h-1.19v-7.55Zm1.62,3.24c.44,0,.71-.19,.71-.8v-.58c0-.54-.18-.78-.6-.78h-.54v2.16h.43Z"/>
          <path class="cls-6" d="M64.87,21.22v-.43h1.12v.52c0,.54,.24,.73,.61,.73s.61-.19,.61-.76c0-.63-.24-1.02-1.01-1.7-.99-.87-1.32-1.49-1.32-2.35,0-1.19,.61-1.88,1.77-1.88s1.73,.69,1.73,1.9v.31h-1.12v-.39c0-.54-.22-.74-.59-.74s-.59,.21-.59,.72c0,.55,.25,.95,1.02,1.63,.99,.87,1.31,1.48,1.31,2.42,0,1.23-.63,1.92-1.79,1.92s-1.75-.69-1.75-1.9Z"/>
          <path class="cls-6" d="M71.9,15.46h1.19v3.07h1.27v-3.07h1.19v7.55h-1.19v-3.4h-1.27v3.4h-1.19v-7.55Z"/>
          <path class="cls-6" d="M76.97,15.46h1.19v7.55h-1.19v-7.55Z"/>
          <path class="cls-6" d="M80.51,16.54h-1.24v-1.08h3.67v1.08h-1.24v6.47h-1.19v-6.47Z"/>
          <path class="cls-6" d="M87.23,15.46h1.61l1.23,7.55h-1.19l-.22-1.5v.02h-1.35l-.22,1.48h-1.1l1.23-7.55Zm1.29,5.05l-.53-3.73h-.02l-.52,3.73h1.07Z"/>
          <path class="cls-6" d="M93.45,15.46h1.76c1.23,0,1.76,.57,1.76,1.74v.46c0,.78-.25,1.27-.78,1.49v.02c.59,.18,.79,.74,.79,1.6v1.33c0,.37,.01,.64,.13,.92h-1.21c-.06-.19-.11-.31-.11-.93v-1.38c0-.7-.2-.93-.74-.93h-.41v3.24h-1.19v-7.55Zm1.62,3.24c.44,0,.71-.19,.71-.8v-.58c0-.54-.18-.78-.6-.78h-.54v2.16h.43Z"/>
          <path class="cls-6" d="M98.34,15.46h3.24v1.08h-2.05v2h1.63v1.08h-1.63v2.32h2.05v1.08h-3.24v-7.55Z"/>
          <path class="cls-6" d="M102.72,21.26v-4.06c0-1.17,.6-1.86,1.75-1.86s1.75,.69,1.75,1.86v.8h-1.12v-.87c0-.5-.24-.7-.59-.7s-.59,.21-.59,.7v4.22c0,.5,.24,.69,.59,.69s.59-.19,.59-.69v-1.15h1.12v1.07c0,1.17-.6,1.86-1.75,1.86s-1.75-.69-1.75-1.86Z"/>
          <path class="cls-6" d="M107.4,21.22v-3.97c0-1.21,.64-1.9,1.8-1.9s1.8,.69,1.8,1.9v3.97c0,1.21-.64,1.9-1.8,1.9s-1.8-.69-1.8-1.9Zm2.42,.08v-4.12c0-.54-.24-.74-.61-.74s-.61,.21-.61,.74v4.12c0,.54,.24,.74,.61,.74s.61-.21,.61-.74Z"/>
          <path class="cls-6" d="M112.35,15.46h1.76c1.23,0,1.76,.57,1.76,1.74v.46c0,.78-.25,1.27-.78,1.49v.02c.59,.18,.79,.74,.79,1.6v1.33c0,.37,.01,.64,.13,.92h-1.21c-.06-.19-.11-.31-.11-.93v-1.38c0-.7-.2-.93-.74-.93h-.41v3.24h-1.19v-7.55Zm1.62,3.24c.44,0,.71-.19,.71-.8v-.58c0-.54-.18-.78-.6-.78h-.54v2.16h.43Z"/>
          <path class="cls-6" d="M117.24,15.46h1.81c1.19,0,1.77,.66,1.77,1.87v3.82c0,1.21-.58,1.87-1.77,1.87h-1.81v-7.55Zm1.79,6.47c.38,0,.6-.19,.6-.73v-3.93c0-.54-.23-.73-.6-.73h-.6v5.39h.6Z"/>
          <path class="cls-6" d="M124.42,15.46h1.19v3.07h1.27v-3.07h1.19v7.55h-1.19v-3.4h-1.27v3.4h-1.19v-7.55Z"/>
          <path class="cls-6" d="M129.5,15.46h1.19v7.55h-1.19v-7.55Z"/>
          <path class="cls-6" d="M132.02,21.22v-3.97c0-1.21,.6-1.9,1.77-1.9s1.77,.69,1.77,1.9v.65h-1.12v-.72c0-.54-.24-.74-.61-.74s-.61,.21-.61,.74v4.13c0,.54,.24,.73,.61,.73s.61-.19,.61-.73v-1.48h-.59v-1.08h1.72v2.47c0,1.21-.6,1.9-1.77,1.9s-1.77-.69-1.77-1.9Z"/>
          <path class="cls-6" d="M136.87,15.46h1.19v3.07h1.27v-3.07h1.19v7.55h-1.19v-3.4h-1.27v3.4h-1.19v-7.55Z"/>
          <path class="cls-6" d="M144.12,21.22v-3.97c0-1.21,.64-1.9,1.8-1.9s1.8,.69,1.8,1.9v3.97c0,1.21-.64,1.9-1.8,1.9s-1.8-.69-1.8-1.9Zm2.42,.08v-4.12c0-.54-.24-.74-.61-.74s-.61,.21-.61,.74v4.12c0,.54,.24,.74,.61,.74s.61-.21,.61-.74Z"/>
          <path class="cls-6" d="M149.06,15.46h3.14v1.08h-1.95v2.1h1.53v1.08h-1.53v3.29h-1.19v-7.55Z"/>
        </g>
      </g>
      <g>
        <rect class="cls-7" x="35.7" y="33.4" width="82.29" height="18.31"/>
        <g>
          <path class="cls-1" d="M41.46,45.28v-.91h1.66v.99c0,.8,.35,1.1,.91,1.1s.91-.27,.91-1.26v-.91c0-1.04-.35-1.42-1.15-1.42h-.59v-1.6h.64c.66,0,1.06-.29,1.06-1.18v-.82c0-.8-.37-1.12-.88-1.12s-.85,.3-.85,1.04v.74h-1.66v-.59c0-1.79,.9-2.79,2.58-2.79s2.58,.98,2.58,2.77v.4c0,1.2-.38,1.94-1.25,2.26v.03c.94,.35,1.3,1.17,1.3,2.3v.99c0,1.79-.9,2.77-2.62,2.77s-2.62-.99-2.62-2.79Z"/>
          <path class="cls-1" d="M51.61,45.88h-3.36v-1.6l3.2-7.57h1.92v7.57h.83v1.6h-.83v2.03h-1.76v-2.03Zm0-1.6v-4.37h-.03l-1.73,4.37h1.76Z"/>
          <path class="cls-1" d="M55.73,46.21h1.7v1.7h-1.7v-1.7Z"/>
          <path class="cls-1" d="M59.33,45.25v-5.79c0-1.89,.86-2.91,2.69-2.91,1.73,0,2.62,1.02,2.62,2.82v.21h-1.66v-.32c0-.8-.35-1.1-.91-1.1-.62,0-.98,.3-.98,1.38v2.14h.03c.3-.64,.82-.98,1.6-.98,1.3,0,1.95,.91,1.95,2.56v2c0,1.79-.94,2.82-2.67,2.82s-2.67-1.02-2.67-2.82Zm3.59,.13v-1.98c0-.75-.3-1.1-.91-1.1s-.91,.35-.91,1.1v1.98c0,.74,.3,1.09,.91,1.09s.91-.35,.91-1.09Z"/>
          <path class="cls-1" d="M69.72,36.7h2.51l1.12,8.02h.03l1.12-8.02h2.51v11.2h-1.66v-8.48h-.03l-1.28,8.48h-1.47l-1.28-8.48h-.03v8.48h-1.54v-11.2Z"/>
          <path class="cls-1" d="M79,36.7h1.76v11.2h-1.76v-11.2Z"/>
          <path class="cls-1" d="M82.74,36.7h1.76v9.6h2.9v1.6h-4.66v-11.2Z"/>
          <path class="cls-1" d="M88.92,36.7h1.76v9.6h2.9v1.6h-4.66v-11.2Z"/>
          <path class="cls-1" d="M95.09,36.7h1.76v11.2h-1.76v-11.2Z"/>
          <path class="cls-1" d="M98.71,45.25v-5.89c0-1.79,.94-2.82,2.67-2.82s2.67,1.02,2.67,2.82v5.89c0,1.79-.94,2.82-2.67,2.82s-2.67-1.02-2.67-2.82Zm3.59,.11v-6.11c0-.8-.35-1.1-.91-1.1s-.91,.3-.91,1.1v6.11c0,.8,.35,1.1,.91,1.1s.91-.3,.91-1.1Z"/>
          <path class="cls-1" d="M105.91,36.7h2.21l1.71,6.71h.03v-6.71h1.57v11.2h-1.81l-2.11-8.18h-.03v8.18h-1.57v-11.2Z"/>
        </g>
      </g>
    </g>
    <g>
      <line class="cls-4" x1="13.16" y1="77.06" x2="138.95" y2="77.06"/>
      <g>
        <path class="cls-6" d="M25.06,86.77v-3.76c0-1.08,.56-1.72,1.62-1.72s1.62,.64,1.62,1.72v.74h-1.04v-.81c0-.46-.22-.65-.55-.65s-.55,.19-.55,.65v3.91c0,.46,.22,.64,.55,.64s.55-.18,.55-.64v-1.07h1.04v.99c0,1.08-.56,1.72-1.62,1.72s-1.62-.64-1.62-1.72Z"/>
        <path class="cls-6" d="M29.96,81.39h1.1v2.85h1.18v-2.85h1.1v7h-1.1v-3.15h-1.18v3.15h-1.1v-7Z"/>
        <path class="cls-6" d="M35.16,81.39h1.1v7h-1.1v-7Z"/>
        <path class="cls-6" d="M38.08,81.39h1.1v6h1.81v1h-2.91v-7Z"/>
        <path class="cls-6" d="M42.52,81.39h1.68c1.1,0,1.64,.61,1.64,1.73v3.54c0,1.12-.54,1.73-1.64,1.73h-1.68v-7Zm1.66,6c.35,0,.56-.18,.56-.68v-3.64c0-.5-.21-.68-.56-.68h-.56v5h.56Z"/>
        <path class="cls-6" d="M47.58,81.39h1.63c1.14,0,1.63,.53,1.63,1.61v.43c0,.72-.23,1.18-.72,1.38v.02c.55,.17,.73,.69,.73,1.48v1.23c0,.34,.01,.59,.12,.85h-1.12c-.06-.18-.1-.29-.1-.86v-1.28c0-.65-.19-.86-.69-.86h-.38v3h-1.1v-7Zm1.5,3c.41,0,.66-.18,.66-.74v-.54c0-.5-.17-.72-.56-.72h-.5v2h.4Z"/>
        <path class="cls-6" d="M52.61,81.39h3v1h-1.9v1.85h1.51v1h-1.51v2.15h1.9v1h-3v-7Z"/>
        <path class="cls-6" d="M57.24,81.39h1.38l1.07,4.19h.02v-4.19h.98v7h-1.13l-1.32-5.11h-.02v5.11h-.98v-7Z"/>
        <path class="cls-6" d="M62.51,83.52h1.06v1.06h-1.06v-1.06Zm0,3.81h1.06v1.06h-1.06v-1.06Z"/>
        <path class="cls-6" d="M69.83,87.12h-2.1v-1l2-4.73h1.2v4.73h.52v1h-.52v1.27h-1.1v-1.27Zm0-1v-2.73h-.02l-1.08,2.73h1.1Z"/>
        <path class="cls-6" d="M74.53,83.05h-1.15v-.78c.93,0,1.26-.2,1.51-.88h.74v7h-1.1v-5.34Z"/>
        <path class="cls-6" d="M77.93,84.16v-1.75c0-.72,.37-1.12,1.06-1.12s1.06,.4,1.06,1.12v1.75c0,.72-.37,1.12-1.06,1.12s-1.06-.4-1.06-1.12Zm1.42,.05v-1.85c0-.31-.14-.44-.36-.44s-.36,.13-.36,.44v1.85c0,.31,.13,.44,.36,.44s.36-.13,.36-.44Zm2.18-2.82h.7l-2.71,7h-.7l2.71-7Zm-.53,5.98v-1.75c0-.72,.37-1.12,1.06-1.12s1.06,.4,1.06,1.12v1.75c0,.72-.37,1.12-1.06,1.12s-1.06-.4-1.06-1.12Zm1.42,.05v-1.85c0-.31-.14-.44-.36-.44s-.36,.13-.36,.44v1.85c0,.31,.13,.44,.36,.44s.36-.13,.36-.44Z"/>
      </g>
      <g>
        <path class="cls-6" d="M14.51,66.5h1.49l1.14,7h-1.1l-.2-1.39v.02h-1.25l-.2,1.37h-1.02l1.14-7Zm1.2,4.68l-.49-3.46h-.02l-.48,3.46h.99Z"/>
        <path class="cls-6" d="M18.67,66.5h1.57l.7,5.01h.02l.7-5.01h1.57v7h-1.04v-5.3h-.02l-.8,5.3h-.92l-.8-5.3h-.02v5.3h-.96v-7Z"/>
        <path class="cls-6" d="M24.97,71.84v-3.68c0-1.12,.59-1.76,1.67-1.76s1.67,.64,1.67,1.76v3.68c0,1.12-.59,1.76-1.67,1.76s-1.67-.64-1.67-1.76Zm2.24,.07v-3.82c0-.5-.22-.69-.57-.69s-.57,.19-.57,.69v3.82c0,.5,.22,.69,.57,.69s.57-.19,.57-.69Z"/>
        <path class="cls-6" d="M30.05,66.5h1.38l1.07,4.19h.02v-4.19h.98v7h-1.13l-1.32-5.11h-.02v5.11h-.98v-7Z"/>
        <path class="cls-6" d="M35.24,71.84v-3.68c0-1.12,.56-1.76,1.64-1.76s1.64,.64,1.64,1.76v.6h-1.04v-.67c0-.5-.22-.69-.57-.69s-.57,.19-.57,.69v3.83c0,.5,.22,.68,.57,.68s.57-.18,.57-.68v-1.37h-.55v-1h1.59v2.29c0,1.12-.56,1.76-1.64,1.76s-1.64-.64-1.64-1.76Z"/>
        <path class="cls-6" d="M43.69,67.5h-1.15v-1h3.4v1h-1.15v6h-1.1v-6Z"/>
        <path class="cls-6" d="M47.47,66.5h1.1v2.85h1.18v-2.85h1.1v7h-1.1v-3.15h-1.18v3.15h-1.1v-7Z"/>
        <path class="cls-6" d="M52.67,66.5h3v1h-1.9v1.85h1.51v1h-1.51v2.15h1.9v1h-3v-7Z"/>
        <path class="cls-6" d="M57.3,66.5h1.57l.7,5.01h.02l.7-5.01h1.57v7h-1.04v-5.3h-.02l-.8,5.3h-.92l-.8-5.3h-.02v5.3h-.96v-7Z"/>
        <path class="cls-6" d="M66.02,66.5h1.06l.49,5.38h.02l.52-5.38h1.2l.52,5.38h.02l.49-5.38h.95l-.71,7h-1.37l-.5-4.72h-.02l-.5,4.72h-1.46l-.71-7Z"/>
        <path class="cls-6" d="M72.85,66.5h3v1h-1.9v1.85h1.51v1h-1.51v2.15h1.9v1h-3v-7Z"/>
        <path class="cls-6" d="M77.48,66.5h1.63c1.14,0,1.63,.53,1.63,1.61v.43c0,.72-.23,1.18-.72,1.38v.02c.55,.17,.73,.69,.73,1.48v1.23c0,.34,.01,.59,.12,.85h-1.12c-.06-.18-.1-.29-.1-.86v-1.28c0-.65-.19-.86-.69-.86h-.38v3h-1.1v-7Zm1.5,3c.41,0,.66-.18,.66-.74v-.54c0-.5-.17-.72-.56-.72h-.5v2h.4Z"/>
        <path class="cls-6" d="M82.51,66.5h3v1h-1.9v1.85h1.51v1h-1.51v2.15h1.9v1h-3v-7Z"/>
        <path class="cls-6" d="M87.14,68.63h1.06v1.06h-1.06v-1.06Zm0,3.81h1.06v1.06h-1.06v-1.06Z"/>
      </g>
      <circle class="cls-5" cx="18.02" cy="84.92" r="3.53"/>
    </g>
    <g>
      <rect class="cls-9" x="13.16" y="95.93" width="126.67" height="129.35"/>
      <g>
        <circle class="cls-5" cx="24.24" cy="105.69" r="4.13"/>
        <circle class="cls-5" cx="36.81" cy="105.69" r="4.13"/>
        <circle class="cls-5" cx="49.21" cy="105.69" r="4.13"/>
        <circle class="cls-5" cx="60.71" cy="105.69" r="4.13"/>
        <circle class="cls-5" cx="72.67" cy="105.69" r="4.13"/>
        <circle class="cls-5" cx="83.99" cy="105.69" r="4.13"/>
        <circle class="cls-5" cx="95.32" cy="105.69" r="4.13"/>
        <circle class="cls-5" cx="106.53" cy="105.69" r="4.13"/>
        <circle class="cls-5" cx="118.03" cy="105.69" r="4.13"/>
        <circle class="cls-5" cx="128.74" cy="105.69" r="4.13"/>
        <circle class="cls-5" cx="24.24" cy="117.89" r="4.13"/>
        <circle class="cls-5" cx="36.81" cy="117.89" r="4.13"/>
        <circle class="cls-5" cx="49.21" cy="117.89" r="4.13"/>
        <circle class="cls-5" cx="60.71" cy="117.89" r="4.13"/>
        <circle class="cls-5" cx="72.67" cy="117.89" r="4.13"/>
        <circle class="cls-5" cx="83.99" cy="117.89" r="4.13"/>
        <circle class="cls-5" cx="95.32" cy="117.89" r="4.13"/>
        <circle class="cls-5" cx="106.53" cy="117.89" r="4.13"/>
        <circle class="cls-5" cx="118.03" cy="117.89" r="4.13"/>
        <circle class="cls-5" cx="128.74" cy="117.89" r="4.13"/>
        <circle class="cls-5" cx="24.24" cy="130.09" r="4.13"/>
        <circle class="cls-5" cx="36.81" cy="130.09" r="4.13"/>
        <circle class="cls-5" cx="49.21" cy="130.09" r="4.13"/>
        <circle class="cls-5" cx="60.71" cy="130.09" r="4.13"/>
        <circle class="cls-5" cx="72.67" cy="130.09" r="4.13"/>
        <circle class="cls-5" cx="83.99" cy="130.09" r="4.13"/>
        <circle class="cls-5" cx="95.32" cy="130.09" r="4.13"/>
        <circle class="cls-5" cx="106.53" cy="130.09" r="4.13"/>
        <circle class="cls-5" cx="118.03" cy="130.09" r="4.13"/>
        <circle class="cls-5" cx="128.74" cy="130.09" r="4.13"/>
        <circle class="cls-5" cx="24.24" cy="142.3" r="4.13"/>
        <circle class="cls-5" cx="36.81" cy="142.3" r="4.13"/>
        <circle class="cls-5" cx="49.21" cy="142.3" r="4.13"/>
        <circle class="cls-5" cx="60.71" cy="142.3" r="4.13"/>
        <circle class="cls-5" cx="72.67" cy="142.3" r="4.13"/>
        <circle class="cls-5" cx="83.99" cy="142.3" r="4.13"/>
        <circle class="cls-5" cx="95.32" cy="142.3" r="4.13"/>
        <circle class="cls-5" cx="106.53" cy="142.3" r="4.13"/>
        <circle class="cls-5" cx="118.03" cy="142.3" r="4.13"/>
        <circle class="cls-5" cx="128.74" cy="142.3" r="4.13"/>
        <circle class="cls-5" cx="24.24" cy="154.5" r="4.13"/>
        <circle class="cls-8" cx="36.81" cy="154.5" r="4.13"/>
        <circle class="cls-8" cx="49.21" cy="154.5" r="4.13"/>
        <circle class="cls-8" cx="60.71" cy="154.5" r="4.13"/>
        <circle class="cls-8" cx="72.67" cy="154.5" r="4.13"/>
        <circle class="cls-8" cx="83.99" cy="154.5" r="4.13"/>
        <circle class="cls-8" cx="95.32" cy="154.5" r="4.13"/>
        <circle class="cls-8" cx="106.53" cy="154.5" r="4.13"/>
        <circle class="cls-8" cx="118.03" cy="154.5" r="4.13"/>
        <circle class="cls-8" cx="128.74" cy="154.5" r="4.13"/>
        <circle class="cls-8" cx="24.24" cy="166.7" r="4.13"/>
        <circle class="cls-8" cx="36.81" cy="166.7" r="4.13"/>
        <circle class="cls-8" cx="49.21" cy="166.7" r="4.13"/>
        <circle class="cls-8" cx="60.71" cy="166.7" r="4.13"/>
        <circle class="cls-8" cx="72.67" cy="166.7" r="4.13"/>
        <circle class="cls-8" cx="83.99" cy="166.7" r="4.13"/>
        <circle class="cls-8" cx="95.32" cy="166.7" r="4.13"/>
        <circle class="cls-8" cx="106.53" cy="166.7" r="4.13"/>
        <circle class="cls-8" cx="118.03" cy="166.7" r="4.13"/>
        <circle class="cls-8" cx="128.74" cy="166.7" r="4.13"/>
        <circle class="cls-8" cx="24.24" cy="178.91" r="4.13"/>
        <circle class="cls-8" cx="36.81" cy="178.91" r="4.13"/>
        <circle class="cls-8" cx="49.21" cy="178.91" r="4.13"/>
        <circle class="cls-8" cx="60.71" cy="178.91" r="4.13"/>
        <circle class="cls-8" cx="72.67" cy="178.91" r="4.13"/>
        <circle class="cls-8" cx="83.99" cy="178.91" r="4.13"/>
        <circle class="cls-8" cx="95.32" cy="178.91" r="4.13"/>
        <circle class="cls-8" cx="106.53" cy="178.91" r="4.13"/>
        <circle class="cls-8" cx="118.03" cy="178.91" r="4.13"/>
        <circle class="cls-8" cx="128.74" cy="178.91" r="4.13"/>
        <circle class="cls-8" cx="24.24" cy="191.11" r="4.13"/>
        <circle class="cls-8" cx="36.81" cy="191.11" r="4.13"/>
        <circle class="cls-8" cx="49.21" cy="191.11" r="4.13"/>
        <circle class="cls-8" cx="60.71" cy="191.11" r="4.13"/>
        <circle class="cls-8" cx="72.67" cy="191.11" r="4.13"/>
        <circle class="cls-8" cx="83.99" cy="191.11" r="4.13"/>
        <circle class="cls-8" cx="95.32" cy="191.11" r="4.13"/>
        <circle class="cls-8" cx="106.53" cy="191.11" r="4.13"/>
        <circle class="cls-8" cx="118.03" cy="191.11" r="4.13"/>
        <circle class="cls-8" cx="128.74" cy="191.11" r="4.13"/>
        <circle class="cls-8" cx="24.24" cy="203.31" r="4.13"/>
        <circle class="cls-8" cx="36.81" cy="203.31" r="4.13"/>
        <circle class="cls-8" cx="49.21" cy="203.31" r="4.13"/>
        <circle class="cls-8" cx="60.71" cy="203.31" r="4.13"/>
        <circle class="cls-8" cx="72.67" cy="203.31" r="4.13"/>
        <circle class="cls-8" cx="83.99" cy="203.31" r="4.13"/>
        <circle class="cls-8" cx="95.32" cy="203.31" r="4.13"/>
        <circle class="cls-8" cx="106.53" cy="203.31" r="4.13"/>
        <circle class="cls-8" cx="118.03" cy="203.31" r="4.13"/>
        <circle class="cls-8" cx="128.74" cy="203.31" r="4.13"/>
        <circle class="cls-8" cx="24.24" cy="215.52" r="4.13"/>
        <circle class="cls-8" cx="36.81" cy="215.52" r="4.13"/>
        <circle class="cls-8" cx="49.21" cy="215.52" r="4.13"/>
        <circle class="cls-8" cx="60.71" cy="215.52" r="4.13"/>
        <circle class="cls-8" cx="72.67" cy="215.52" r="4.13"/>
        <circle class="cls-8" cx="83.99" cy="215.52" r="4.13"/>
        <circle class="cls-8" cx="95.32" cy="215.52" r="4.13"/>
        <circle class="cls-8" cx="106.53" cy="215.52" r="4.13"/>
        <circle class="cls-8" cx="118.03" cy="215.52" r="4.13"/>
        <circle class="cls-8" cx="128.74" cy="215.52" r="4.13"/>
      </g>
    </g>
  </g>
</svg>