<?xml version="1.0" encoding="UTF-8"?>
<svg id="Layer_2" data-name="Layer 2" xmlns="http://www.w3.org/2000/svg" viewBox="0 0 517.32 156.55">
  <defs>
    <style>
      .cls-1 {
        fill: #bdbcbb;
      }

      .cls-2, .cls-3 {
        stroke: #e01a83;
        stroke-linecap: round;
        stroke-linejoin: round;
        stroke-width: 1.75px;
      }

      .cls-2, .cls-3, .cls-4, .cls-5, .cls-6 {
        fill: none;
      }

      .cls-7 {
        fill: #939598;
      }

      .cls-8 {
        fill: #e5699e;
      }

      .cls-3 {
        stroke-dasharray: 0 0 0 2.92;
      }

      .cls-9 {
        fill: #fff;
        stroke: #fff;
      }

      .cls-9, .cls-4, .cls-5, .cls-6 {
        stroke-miterlimit: 10;
      }

      .cls-9, .cls-6 {
        stroke-width: 3px;
      }

      .cls-10 {
        fill: #f4cada;
      }

      .cls-4 {
        stroke: #777677;
      }

      .cls-11 {
        fill: #777677;
      }

      .cls-12 {
        fill: #e01a83;
      }

      .cls-5 {
        stroke: #f6d4e0;
        stroke-width: 4px;
      }

      .cls-13 {
        fill: #ec99ba;
      }

      .cls-6 {
        stroke: #939598;
        stroke-dasharray: 0 0 5 5;
      }

      .cls-14 {
        fill: #e6e7e8;
      }

      .cls-15 {
        fill: #fbecf1;
      }
    </style>
  </defs>
  <g id="Layer_2-2" data-name="Layer 2">
    <g>
      <g>
        <line class="cls-2" x1="214.09" y1="97.23" x2="214.09" y2="97.23"/>
        <line class="cls-3" x1="217.01" y1="97.23" x2="464.06" y2="97.23"/>
        <line class="cls-2" x1="465.53" y1="97.23" x2="465.53" y2="97.23"/>
      </g>
      <g>
        <path class="cls-11" d="M214.69,116.9v-8.55h1.76v8.68c0,.8,.34,1.09,.9,1.09s.9-.29,.9-1.09v-8.68h1.7v8.55c0,1.79-.9,2.82-2.63,2.82s-2.62-1.02-2.62-2.82Z"/>
        <path class="cls-11" d="M221.86,108.36h2.21l1.71,6.71h.03v-6.71h1.57v11.2h-1.81l-2.11-8.18h-.03v8.18h-1.57v-11.2Z"/>
        <path class="cls-11" d="M229.36,108.36h2.69c1.76,0,2.63,.98,2.63,2.77v5.67c0,1.79-.86,2.77-2.63,2.77h-2.69v-11.2Zm2.66,9.6c.56,0,.9-.29,.9-1.09v-5.83c0-.8-.34-1.09-.9-1.09h-.9v8h.9Z"/>
        <path class="cls-11" d="M236.53,108.36h4.8v1.6h-3.04v2.96h2.42v1.6h-2.42v3.44h3.04v1.6h-4.8v-11.2Z"/>
        <path class="cls-11" d="M243.01,108.36h2.61c1.82,0,2.61,.85,2.61,2.58v.69c0,1.15-.37,1.89-1.15,2.21v.03c.88,.27,1.17,1.1,1.17,2.37v1.97c0,.54,.02,.94,.19,1.36h-1.79c-.1-.29-.16-.46-.16-1.38v-2.05c0-1.04-.3-1.38-1.1-1.38h-.61v4.8h-1.76v-11.2Zm2.4,4.8c.66,0,1.06-.29,1.06-1.18v-.86c0-.8-.27-1.15-.9-1.15h-.8v3.2h.64Z"/>
        <path class="cls-11" d="M249.83,116.9v-.64h1.66v.77c0,.8,.35,1.09,.91,1.09s.91-.29,.91-1.12c0-.93-.35-1.52-1.5-2.53-1.47-1.3-1.95-2.21-1.95-3.49,0-1.76,.91-2.79,2.63-2.79s2.56,1.02,2.56,2.82v.46h-1.66v-.58c0-.8-.32-1.1-.88-1.1s-.88,.3-.88,1.07c0,.82,.37,1.41,1.52,2.42,1.47,1.3,1.94,2.19,1.94,3.59,0,1.82-.93,2.85-2.66,2.85s-2.59-1.02-2.59-2.82Z"/>
        <path class="cls-11" d="M256.64,116.97v-6.02c0-1.73,.9-2.75,2.59-2.75s2.59,1.02,2.59,2.75v1.18h-1.66v-1.3c0-.74-.35-1.04-.88-1.04s-.88,.3-.88,1.04v6.26c0,.74,.35,1.02,.88,1.02s.88-.29,.88-1.02v-1.71h1.66v1.58c0,1.73-.9,2.75-2.59,2.75s-2.59-1.02-2.59-2.75Z"/>
        <path class="cls-11" d="M263.46,116.9v-5.89c0-1.79,.94-2.82,2.67-2.82s2.67,1.02,2.67,2.82v5.89c0,1.79-.94,2.82-2.67,2.82s-2.67-1.02-2.67-2.82Zm3.59,.11v-6.11c0-.8-.35-1.1-.91-1.1s-.91,.3-.91,1.1v6.11c0,.8,.35,1.1,.91,1.1s.91-.3,.91-1.1Z"/>
        <path class="cls-11" d="M270.66,108.36h2.61c1.82,0,2.61,.85,2.61,2.58v.69c0,1.15-.37,1.89-1.15,2.21v.03c.88,.27,1.17,1.1,1.17,2.37v1.97c0,.54,.02,.94,.19,1.36h-1.79c-.1-.29-.16-.46-.16-1.38v-2.05c0-1.04-.3-1.38-1.1-1.38h-.61v4.8h-1.76v-11.2Zm2.4,4.8c.66,0,1.06-.29,1.06-1.18v-.86c0-.8-.27-1.15-.9-1.15h-.8v3.2h.64Z"/>
        <path class="cls-11" d="M277.78,108.36h4.8v1.6h-3.04v2.96h2.42v1.6h-2.42v3.44h3.04v1.6h-4.8v-11.2Z"/>
        <path class="cls-11" d="M283.99,116.9v-.64h1.66v.77c0,.8,.35,1.09,.91,1.09s.91-.29,.91-1.12c0-.93-.35-1.52-1.5-2.53-1.47-1.3-1.95-2.21-1.95-3.49,0-1.76,.91-2.79,2.62-2.79s2.56,1.02,2.56,2.82v.46h-1.66v-.58c0-.8-.32-1.1-.88-1.1s-.88,.3-.88,1.07c0,.82,.37,1.41,1.52,2.42,1.47,1.3,1.94,2.19,1.94,3.59,0,1.82-.93,2.85-2.66,2.85s-2.59-1.02-2.59-2.82Z"/>
        <path class="cls-11" d="M295.53,109.96h-1.84v-1.6h5.44v1.6h-1.84v9.6h-1.76v-9.6Z"/>
        <path class="cls-11" d="M300.64,108.36h1.76v4.56h1.89v-4.56h1.76v11.2h-1.76v-5.04h-1.89v5.04h-1.76v-11.2Z"/>
        <path class="cls-11" d="M308.04,108.36h4.8v1.6h-3.04v2.96h2.42v1.6h-2.42v3.44h3.04v1.6h-4.8v-11.2Z"/>
        <path class="cls-11" d="M317.75,108.36h2.59c1.76,0,2.62,.98,2.62,2.77v1.1c0,1.79-.86,2.77-2.62,2.77h-.83v4.56h-1.76v-11.2Zm2.59,5.04c.56,0,.86-.26,.86-1.06v-1.33c0-.8-.3-1.06-.86-1.06h-.83v3.44h.83Z"/>
        <path class="cls-11" d="M324.6,108.36h2.61c1.82,0,2.61,.85,2.61,2.58v.69c0,1.15-.37,1.89-1.15,2.21v.03c.88,.27,1.17,1.1,1.17,2.37v1.97c0,.54,.02,.94,.19,1.36h-1.79c-.1-.29-.16-.46-.16-1.38v-2.05c0-1.04-.3-1.38-1.1-1.38h-.61v4.8h-1.76v-11.2Zm2.4,4.8c.66,0,1.06-.29,1.06-1.18v-.86c0-.8-.27-1.15-.9-1.15h-.8v3.2h.64Z"/>
        <path class="cls-11" d="M331.72,108.36h4.8v1.6h-3.04v2.96h2.42v1.6h-2.42v3.44h3.04v1.6h-4.8v-11.2Z"/>
        <path class="cls-11" d="M337.92,116.9v-.64h1.66v.77c0,.8,.35,1.09,.91,1.09s.91-.29,.91-1.12c0-.93-.35-1.52-1.5-2.53-1.47-1.3-1.95-2.21-1.95-3.49,0-1.76,.91-2.79,2.62-2.79s2.56,1.02,2.56,2.82v.46h-1.66v-.58c0-.8-.32-1.1-.88-1.1s-.88,.3-.88,1.07c0,.82,.37,1.41,1.52,2.42,1.47,1.3,1.94,2.19,1.94,3.59,0,1.82-.93,2.85-2.66,2.85s-2.59-1.02-2.59-2.82Z"/>
        <path class="cls-11" d="M344.55,116.9v-.64h1.66v.77c0,.8,.35,1.09,.91,1.09s.91-.29,.91-1.12c0-.93-.35-1.52-1.5-2.53-1.47-1.3-1.95-2.21-1.95-3.49,0-1.76,.91-2.79,2.62-2.79s2.56,1.02,2.56,2.82v.46h-1.66v-.58c0-.8-.32-1.1-.88-1.1s-.88,.3-.88,1.07c0,.82,.37,1.41,1.52,2.42,1.47,1.3,1.94,2.19,1.94,3.59,0,1.82-.93,2.85-2.66,2.85s-2.59-1.02-2.59-2.82Z"/>
        <path class="cls-11" d="M351.48,108.36h1.76v11.2h-1.76v-11.2Z"/>
        <path class="cls-11" d="M355.22,108.36h2.21l1.71,6.71h.03v-6.71h1.57v11.2h-1.81l-2.11-8.18h-.03v8.18h-1.57v-11.2Z"/>
        <path class="cls-11" d="M362.6,116.9v-5.89c0-1.79,.9-2.82,2.63-2.82s2.62,1.02,2.62,2.82v.96h-1.66v-1.07c0-.8-.35-1.1-.91-1.1s-.91,.3-.91,1.1v6.13c0,.8,.35,1.09,.91,1.09s.91-.29,.91-1.09v-2.19h-.88v-1.6h2.55v3.67c0,1.79-.9,2.82-2.62,2.82s-2.63-1.02-2.63-2.82Z"/>
        <path class="cls-11" d="M372.88,108.36h2.21l1.71,6.71h.03v-6.71h1.57v11.2h-1.81l-2.11-8.18h-.03v8.18h-1.57v-11.2Z"/>
        <path class="cls-11" d="M380.39,108.36h4.8v1.6h-3.04v2.96h2.42v1.6h-2.42v3.44h3.04v1.6h-4.8v-11.2Z"/>
        <path class="cls-11" d="M386.87,108.36h4.8v1.6h-3.04v2.96h2.42v1.6h-2.42v3.44h3.04v1.6h-4.8v-11.2Z"/>
        <path class="cls-11" d="M393.35,108.36h2.69c1.76,0,2.63,.98,2.63,2.77v5.67c0,1.79-.86,2.77-2.63,2.77h-2.69v-11.2Zm2.66,9.6c.56,0,.9-.29,.9-1.09v-5.83c0-.8-.34-1.09-.9-1.09h-.9v8h.9Z"/>
        <path class="cls-11" d="M403.75,108.36h4.66v1.6h-2.9v3.12h2.27v1.6h-2.27v4.88h-1.76v-11.2Z"/>
        <path class="cls-11" d="M409.8,116.9v-5.89c0-1.79,.94-2.82,2.67-2.82s2.67,1.02,2.67,2.82v5.89c0,1.79-.94,2.82-2.67,2.82s-2.67-1.02-2.67-2.82Zm3.59,.11v-6.11c0-.8-.35-1.1-.91-1.1s-.91,.3-.91,1.1v6.11c0,.8,.35,1.1,.91,1.1s.91-.3,.91-1.1Z"/>
        <path class="cls-11" d="M417,108.36h2.61c1.82,0,2.61,.85,2.61,2.58v.69c0,1.15-.37,1.89-1.15,2.21v.03c.88,.27,1.17,1.1,1.17,2.37v1.97c0,.54,.02,.94,.19,1.36h-1.79c-.1-.29-.16-.46-.16-1.38v-2.05c0-1.04-.3-1.38-1.1-1.38h-.61v4.8h-1.76v-11.2Zm2.4,4.8c.66,0,1.06-.29,1.06-1.18v-.86c0-.8-.27-1.15-.9-1.15h-.8v3.2h.64Z"/>
        <path class="cls-12" d="M214.76,130.36h1.76v11.2h-1.76v-11.2Z"/>
        <path class="cls-12" d="M218.5,130.36h2.51l1.12,8.02h.03l1.12-8.02h2.51v11.2h-1.66v-8.48h-.03l-1.28,8.48h-1.47l-1.28-8.48h-.03v8.48h-1.54v-11.2Z"/>
        <path class="cls-12" d="M227.78,130.36h2.51l1.12,8.02h.03l1.12-8.02h2.51v11.2h-1.66v-8.48h-.03l-1.28,8.48h-1.47l-1.28-8.48h-.03v8.48h-1.54v-11.2Z"/>
        <path class="cls-12" d="M237.06,130.36h4.8v1.6h-3.04v2.96h2.42v1.6h-2.42v3.44h3.04v1.6h-4.8v-11.2Z"/>
        <path class="cls-12" d="M243.54,130.36h2.69c1.76,0,2.63,.98,2.63,2.77v5.67c0,1.79-.86,2.77-2.63,2.77h-2.69v-11.2Zm2.66,9.6c.56,0,.9-.29,.9-1.09v-5.83c0-.8-.34-1.09-.9-1.09h-.9v8h.9Z"/>
        <path class="cls-12" d="M250.71,130.36h1.76v11.2h-1.76v-11.2Z"/>
        <path class="cls-12" d="M255.81,130.36h2.38l1.82,11.2h-1.76l-.32-2.23v.03h-2l-.32,2.19h-1.63l1.82-11.2Zm1.92,7.49l-.78-5.54h-.03l-.77,5.54h1.58Z"/>
        <path class="cls-12" d="M262.18,131.96h-1.84v-1.6h5.44v1.6h-1.84v9.6h-1.76v-9.6Z"/>
        <path class="cls-12" d="M267.3,130.36h4.8v1.6h-3.04v2.96h2.42v1.6h-2.42v3.44h3.04v1.6h-4.8v-11.2Z"/>
        <path class="cls-12" d="M278.37,130.36h2.38l1.82,11.2h-1.76l-.32-2.23v.03h-2l-.32,2.19h-1.63l1.82-11.2Zm1.92,7.49l-.78-5.54h-.03l-.77,5.54h1.58Z"/>
        <path class="cls-12" d="M283.96,138.97v-6.02c0-1.73,.9-2.75,2.59-2.75s2.59,1.02,2.59,2.75v1.18h-1.66v-1.3c0-.74-.35-1.04-.88-1.04s-.88,.3-.88,1.04v6.26c0,.74,.35,1.02,.88,1.02s.88-.29,.88-1.02v-1.71h1.66v1.58c0,1.73-.9,2.75-2.59,2.75s-2.59-1.02-2.59-2.75Z"/>
        <path class="cls-12" d="M292.25,131.96h-1.84v-1.6h5.44v1.6h-1.84v9.6h-1.76v-9.6Z"/>
        <path class="cls-12" d="M297.36,130.36h1.76v11.2h-1.76v-11.2Z"/>
        <path class="cls-12" d="M300.98,138.9v-5.89c0-1.79,.94-2.82,2.67-2.82s2.67,1.02,2.67,2.82v5.89c0,1.79-.94,2.82-2.67,2.82s-2.67-1.02-2.67-2.82Zm3.59,.11v-6.11c0-.8-.35-1.1-.91-1.1s-.91,.3-.91,1.1v6.11c0,.8,.35,1.1,.91,1.1s.91-.3,.91-1.1Z"/>
        <path class="cls-12" d="M308.18,130.36h2.21l1.71,6.71h.03v-6.71h1.57v11.2h-1.81l-2.11-8.18h-.03v8.18h-1.57v-11.2Z"/>
        <path class="cls-11" d="M320.29,131.96h-1.84v-1.6h5.44v1.6h-1.84v9.6h-1.76v-9.6Z"/>
        <path class="cls-11" d="M325.22,138.9v-5.89c0-1.79,.94-2.82,2.67-2.82s2.67,1.02,2.67,2.82v5.89c0,1.79-.94,2.82-2.67,2.82s-2.67-1.02-2.67-2.82Zm3.59,.11v-6.11c0-.8-.35-1.1-.91-1.1s-.91,.3-.91,1.1v6.11c0,.8,.35,1.1,.91,1.1s.91-.3,.91-1.1Z"/>
        <path class="cls-11" d="M335.65,130.36h4.8v1.6h-3.04v2.96h2.42v1.6h-2.42v3.44h3.04v1.6h-4.8v-11.2Z"/>
        <path class="cls-11" d="M342.13,130.36h2.21l1.71,6.71h.03v-6.71h1.57v11.2h-1.81l-2.11-8.18h-.03v8.18h-1.57v-11.2Z"/>
        <path class="cls-11" d="M349.33,138.9v-.64h1.66v.77c0,.8,.35,1.09,.91,1.09s.91-.29,.91-1.12c0-.93-.35-1.52-1.5-2.53-1.47-1.3-1.95-2.21-1.95-3.49,0-1.76,.91-2.79,2.62-2.79s2.56,1.02,2.56,2.82v.46h-1.66v-.58c0-.8-.32-1.1-.88-1.1s-.88,.3-.88,1.07c0,.82,.37,1.41,1.52,2.42,1.47,1.3,1.94,2.19,1.94,3.59,0,1.82-.93,2.85-2.66,2.85s-2.59-1.02-2.59-2.82Z"/>
        <path class="cls-11" d="M356.2,138.9v-8.55h1.76v8.68c0,.8,.34,1.09,.9,1.09s.9-.29,.9-1.09v-8.68h1.7v8.55c0,1.79-.9,2.82-2.63,2.82s-2.62-1.02-2.62-2.82Z"/>
        <path class="cls-11" d="M363.36,130.36h2.61c1.82,0,2.61,.85,2.61,2.58v.69c0,1.15-.37,1.89-1.15,2.21v.03c.88,.27,1.17,1.1,1.17,2.37v1.97c0,.54,.02,.94,.19,1.36h-1.79c-.1-.29-.16-.46-.16-1.38v-2.05c0-1.04-.3-1.38-1.1-1.38h-.61v4.8h-1.76v-11.2Zm2.4,4.8c.66,0,1.06-.29,1.06-1.18v-.86c0-.8-.27-1.15-.9-1.15h-.8v3.2h.64Z"/>
        <path class="cls-11" d="M370.48,130.36h4.8v1.6h-3.04v2.96h2.42v1.6h-2.42v3.44h3.04v1.6h-4.8v-11.2Z"/>
        <path class="cls-11" d="M379.89,138.9v-.64h1.66v.77c0,.8,.35,1.09,.91,1.09s.91-.29,.91-1.12c0-.93-.35-1.52-1.5-2.53-1.47-1.3-1.95-2.21-1.95-3.49,0-1.76,.91-2.79,2.62-2.79s2.56,1.02,2.56,2.82v.46h-1.66v-.58c0-.8-.32-1.1-.88-1.1s-.88,.3-.88,1.07c0,.82,.37,1.41,1.52,2.42,1.47,1.3,1.94,2.19,1.94,3.59,0,1.82-.93,2.85-2.66,2.85s-2.59-1.02-2.59-2.82Z"/>
        <path class="cls-11" d="M388.13,130.36h2.38l1.82,11.2h-1.76l-.32-2.23v.03h-2l-.32,2.19h-1.63l1.82-11.2Zm1.92,7.49l-.78-5.54h-.03l-.77,5.54h1.58Z"/>
        <path class="cls-11" d="M393.86,130.36h4.66v1.6h-2.9v3.12h2.27v1.6h-2.27v4.88h-1.76v-11.2Z"/>
        <path class="cls-11" d="M400.04,130.36h4.8v1.6h-3.04v2.96h2.42v1.6h-2.42v3.44h3.04v1.6h-4.8v-11.2Z"/>
        <path class="cls-11" d="M409.75,130.36h2.51l1.12,8.02h.03l1.12-8.02h2.51v11.2h-1.66v-8.48h-.03l-1.28,8.48h-1.47l-1.28-8.48h-.03v8.48h-1.54v-11.2Z"/>
        <path class="cls-11" d="M419.03,130.36h1.76v11.2h-1.76v-11.2Z"/>
        <path class="cls-11" d="M422.64,138.9v-5.89c0-1.79,.9-2.82,2.62-2.82s2.62,1.02,2.62,2.82v.96h-1.66v-1.07c0-.8-.35-1.1-.91-1.1s-.91,.3-.91,1.1v6.13c0,.8,.35,1.09,.91,1.09s.91-.29,.91-1.09v-2.19h-.88v-1.6h2.54v3.67c0,1.79-.9,2.82-2.62,2.82s-2.62-1.02-2.62-2.82Z"/>
        <path class="cls-11" d="M429.7,130.36h2.61c1.82,0,2.61,.85,2.61,2.58v.69c0,1.15-.37,1.89-1.15,2.21v.03c.88,.27,1.17,1.1,1.17,2.37v1.97c0,.54,.02,.94,.19,1.36h-1.79c-.1-.29-.16-.46-.16-1.38v-2.05c0-1.04-.3-1.38-1.1-1.38h-.61v4.8h-1.76v-11.2Zm2.4,4.8c.66,0,1.06-.29,1.06-1.18v-.86c0-.8-.27-1.15-.9-1.15h-.8v3.2h.64Z"/>
        <path class="cls-11" d="M438.18,130.36h2.38l1.82,11.2h-1.76l-.32-2.23v.03h-2l-.32,2.19h-1.63l1.82-11.2Zm1.92,7.49l-.78-5.54h-.03l-.77,5.54h1.58Z"/>
        <path class="cls-11" d="M444.55,131.96h-1.84v-1.6h5.44v1.6h-1.84v9.6h-1.76v-9.6Z"/>
        <path class="cls-11" d="M449.67,130.36h1.76v11.2h-1.76v-11.2Z"/>
        <path class="cls-11" d="M453.28,138.9v-5.89c0-1.79,.94-2.82,2.67-2.82s2.67,1.02,2.67,2.82v5.89c0,1.79-.94,2.82-2.67,2.82s-2.67-1.02-2.67-2.82Zm3.59,.11v-6.11c0-.8-.35-1.1-.91-1.1s-.91,.3-.91,1.1v6.11c0,.8,.35,1.1,.91,1.1s.91-.3,.91-1.1Z"/>
        <path class="cls-11" d="M460.48,130.36h2.21l1.71,6.71h.03v-6.71h1.57v11.2h-1.81l-2.11-8.18h-.03v8.18h-1.57v-11.2Z"/>
      </g>
      <g>
        <g>
          <path class="cls-11" d="M215.69,29.7h-1.44v-1.25h4.26v1.25h-1.44v7.52h-1.38v-7.52Z"/>
          <path class="cls-11" d="M219.68,28.45h1.38v3.57h1.48v-3.57h1.38v8.77h-1.38v-3.95h-1.48v3.95h-1.38v-8.77Z"/>
          <path class="cls-11" d="M225.44,28.45h3.76v1.25h-2.38v2.32h1.89v1.25h-1.89v2.69h2.38v1.25h-3.76v-8.77Z"/>
          <path class="cls-11" d="M237.88,27.49h-2.33v-2.02h6.88v2.02h-2.33v12.14h-2.23v-12.14Z"/>
          <path class="cls-11" d="M244.01,25.46h3.3c2.31,0,3.3,1.07,3.3,3.26v.87c0,1.46-.47,2.39-1.46,2.79v.04c1.11,.34,1.48,1.4,1.48,2.99v2.49c0,.69,.02,1.19,.24,1.72h-2.27c-.12-.36-.2-.59-.2-1.74v-2.59c0-1.31-.38-1.74-1.4-1.74h-.77v6.07h-2.23v-14.16Zm3.03,6.07c.83,0,1.34-.36,1.34-1.5v-1.09c0-1.01-.34-1.46-1.13-1.46h-1.01v4.05h.81Z"/>
          <path class="cls-11" d="M254.38,25.46h3.01l2.31,14.16h-2.23l-.4-2.81v.04h-2.53l-.4,2.77h-2.06l2.31-14.16Zm2.43,9.47l-.99-7h-.04l-.97,7h2Z"/>
          <path class="cls-11" d="M261.08,36.27v-7.45c0-2.27,1.13-3.56,3.32-3.56s3.32,1.29,3.32,3.56v1.21h-2.1v-1.36c0-1.01-.45-1.4-1.15-1.4s-1.15,.38-1.15,1.4v7.75c0,1.01,.45,1.38,1.15,1.38s1.15-.36,1.15-1.38v-2.77h-1.11v-2.02h3.22v4.63c0,2.27-1.13,3.56-3.32,3.56s-3.32-1.29-3.32-3.56Z"/>
          <path class="cls-11" d="M269.65,25.46h2.23v14.16h-2.23v-14.16Z"/>
          <path class="cls-11" d="M273.9,36.35v-7.61c0-2.19,1.13-3.48,3.28-3.48s3.28,1.29,3.28,3.48v1.5h-2.1v-1.64c0-.93-.45-1.32-1.11-1.32s-1.11,.38-1.11,1.32v7.91c0,.93,.45,1.29,1.11,1.29s1.11-.36,1.11-1.29v-2.17h2.1v2c0,2.19-1.13,3.48-3.28,3.48s-3.28-1.29-3.28-3.48Z"/>
          <path class="cls-11" d="M286.04,25.46h2.23v12.14h3.66v2.02h-5.89v-14.16Z"/>
          <path class="cls-11" d="M293.26,36.27v-7.45c0-2.27,1.19-3.56,3.38-3.56s3.38,1.29,3.38,3.56v7.45c0,2.27-1.19,3.56-3.38,3.56s-3.38-1.29-3.38-3.56Zm4.53,.14v-7.73c0-1.01-.45-1.4-1.15-1.4s-1.15,.38-1.15,1.4v7.73c0,1.01,.45,1.4,1.15,1.4s1.15-.38,1.15-1.4Z"/>
          <path class="cls-11" d="M301.63,36.27v-.81h2.1v.97c0,1.01,.45,1.38,1.15,1.38s1.15-.36,1.15-1.42c0-1.17-.45-1.92-1.9-3.2-1.86-1.64-2.47-2.79-2.47-4.41,0-2.23,1.15-3.52,3.32-3.52s3.24,1.29,3.24,3.56v.59h-2.1v-.73c0-1.01-.4-1.4-1.11-1.4s-1.11,.38-1.11,1.36c0,1.03,.47,1.78,1.92,3.06,1.86,1.64,2.45,2.77,2.45,4.53,0,2.31-1.17,3.6-3.36,3.6s-3.28-1.29-3.28-3.56Z"/>
          <path class="cls-11" d="M309.66,36.27v-.81h2.1v.97c0,1.01,.45,1.38,1.15,1.38s1.15-.36,1.15-1.42c0-1.17-.45-1.92-1.9-3.2-1.86-1.64-2.47-2.79-2.47-4.41,0-2.23,1.15-3.52,3.32-3.52s3.24,1.29,3.24,3.56v.59h-2.1v-.73c0-1.01-.4-1.4-1.11-1.4s-1.11,.38-1.11,1.36c0,1.03,.47,1.78,1.92,3.06,1.86,1.64,2.45,2.77,2.45,4.53,0,2.31-1.17,3.6-3.36,3.6s-3.28-1.29-3.28-3.56Z"/>
          <path class="cls-11" d="M321.41,35.14v-4.61c0-1.4,.74-2.21,2.09-2.21s2.09,.8,2.09,2.21v4.61c0,1.4-.74,2.21-2.09,2.21s-2.09-.8-2.09-2.21Zm2.81,.09v-4.79c0-.63-.28-.86-.71-.86s-.71,.24-.71,.86v4.79c0,.63,.28,.86,.71,.86s.71-.24,.71-.86Z"/>
          <path class="cls-11" d="M327.02,28.45h3.65v1.25h-2.27v2.44h1.78v1.25h-1.78v3.82h-1.38v-8.77Z"/>
          <path class="cls-11" d="M335.89,25.46h2.79l2.16,8.48h.04v-8.48h1.98v14.16h-2.29l-2.67-10.34h-.04v10.34h-1.98v-14.16Z"/>
          <path class="cls-11" d="M345.03,25.46h6.07v2.02h-3.84v3.74h3.06v2.02h-3.06v4.35h3.84v2.02h-6.07v-14.16Z"/>
          <path class="cls-11" d="M354.6,25.46h3.01l2.31,14.16h-2.23l-.4-2.81v.04h-2.53l-.4,2.77h-2.06l2.31-14.16Zm2.43,9.47l-.99-7h-.04l-.97,7h2Z"/>
          <path class="cls-11" d="M361.5,25.46h3.3c2.31,0,3.3,1.07,3.3,3.26v.87c0,1.46-.47,2.39-1.46,2.79v.04c1.11,.34,1.48,1.4,1.48,2.99v2.49c0,.69,.02,1.19,.24,1.72h-2.27c-.12-.36-.2-.59-.2-1.74v-2.59c0-1.31-.38-1.74-1.4-1.74h-.77v6.07h-2.23v-14.16Zm3.03,6.07c.83,0,1.34-.36,1.34-1.5v-1.09c0-1.01-.34-1.46-1.13-1.46h-1.01v4.05h.81Z"/>
          <path class="cls-11" d="M370.16,25.46h2.23v12.14h3.66v2.02h-5.89v-14.16Z"/>
          <path class="cls-11" d="M377.88,33.6l-2.69-8.13h2.37l1.52,5.2h.04l1.52-5.2h2.17l-2.69,8.13v6.03h-2.23v-6.03Z"/>
          <path class="cls-12" d="M219.28,50.6h-4.49v-2.02h6.68v1.94l-3.48,12.22h-2.27l3.56-12.14Z"/>
          <path class="cls-12" d="M224.26,62.74h-.73v-2.14h2.14v1.92l-1.11,2.65h-1.03l.73-2.43Z"/>
          <path class="cls-12" d="M227.67,59.38v-7.45c0-2.27,1.19-3.56,3.38-3.56s3.38,1.29,3.38,3.56v7.45c0,2.27-1.19,3.56-3.38,3.56s-3.38-1.29-3.38-3.56Zm4.53,.14v-7.73c0-1.01-.45-1.4-1.15-1.4s-1.15,.38-1.15,1.4v7.73c0,1.01,.45,1.4,1.15,1.4s1.15-.38,1.15-1.4Z"/>
          <path class="cls-12" d="M236.27,59.38v-7.45c0-2.27,1.19-3.56,3.38-3.56s3.38,1.29,3.38,3.56v7.45c0,2.27-1.19,3.56-3.38,3.56s-3.38-1.29-3.38-3.56Zm4.53,.14v-7.73c0-1.01-.45-1.4-1.15-1.4s-1.15,.38-1.15,1.4v7.73c0,1.01,.45,1.4,1.15,1.4s1.15-.38,1.15-1.4Z"/>
          <path class="cls-12" d="M244.87,59.38v-7.45c0-2.27,1.19-3.56,3.38-3.56s3.38,1.29,3.38,3.56v7.45c0,2.27-1.19,3.56-3.38,3.56s-3.38-1.29-3.38-3.56Zm4.53,.14v-7.73c0-1.01-.45-1.4-1.15-1.4s-1.15,.38-1.15,1.4v7.73c0,1.01,.45,1.4,1.15,1.4s1.15-.38,1.15-1.4Z"/>
          <path class="cls-12" d="M257.37,48.58h2.23v12.14h3.66v2.02h-5.89v-14.16Z"/>
          <path class="cls-12" d="M264.83,48.58h2.23v14.16h-2.23v-14.16Z"/>
          <path class="cls-12" d="M268.63,48.58h2.25l1.46,10.99h.04l1.46-10.99h2.04l-2.14,14.16h-2.95l-2.14-14.16Z"/>
          <path class="cls-12" d="M277.45,48.58h6.07v2.02h-3.84v3.74h3.06v2.02h-3.06v4.35h3.84v2.02h-6.07v-14.16Z"/>
          <path class="cls-12" d="M284.96,59.38v-.81h2.1v.97c0,1.01,.45,1.38,1.15,1.38s1.15-.36,1.15-1.42c0-1.17-.45-1.92-1.9-3.2-1.86-1.64-2.47-2.79-2.47-4.41,0-2.23,1.15-3.52,3.32-3.52s3.24,1.29,3.24,3.56v.59h-2.1v-.73c0-1.01-.4-1.4-1.11-1.4s-1.11,.38-1.11,1.36c0,1.03,.47,1.78,1.92,3.06,1.86,1.64,2.45,2.77,2.45,4.53,0,2.31-1.17,3.6-3.36,3.6s-3.28-1.29-3.28-3.56Z"/>
          <path class="cls-11" d="M298.84,48.58h3.01l2.31,14.16h-2.23l-.4-2.81v.04h-2.53l-.4,2.77h-2.06l2.31-14.16Zm2.43,9.47l-.99-7h-.04l-.97,7h2Z"/>
          <path class="cls-11" d="M305.73,48.58h2.23v12.14h3.66v2.02h-5.89v-14.16Z"/>
          <path class="cls-11" d="M312.95,59.38v-7.45c0-2.27,1.19-3.56,3.38-3.56s3.38,1.29,3.38,3.56v7.45c0,2.27-1.19,3.56-3.38,3.56s-3.38-1.29-3.38-3.56Zm4.53,.14v-7.73c0-1.01-.45-1.4-1.15-1.4s-1.15,.38-1.15,1.4v7.73c0,1.01,.45,1.4,1.15,1.4s1.15-.38,1.15-1.4Z"/>
          <path class="cls-11" d="M321.71,48.58h2.79l2.16,8.48h.04v-8.48h1.98v14.16h-2.29l-2.67-10.34h-.04v10.34h-1.98v-14.16Z"/>
          <path class="cls-11" d="M330.69,59.38v-7.45c0-2.27,1.13-3.56,3.32-3.56s3.32,1.29,3.32,3.56v1.21h-2.1v-1.36c0-1.01-.45-1.4-1.15-1.4s-1.15,.38-1.15,1.4v7.75c0,1.01,.45,1.38,1.15,1.38s1.15-.36,1.15-1.38v-2.77h-1.11v-2.02h3.22v4.63c0,2.27-1.13,3.56-3.32,3.56s-3.32-1.29-3.32-3.56Z"/>
          <path class="cls-11" d="M343.01,48.58h3.18l1.42,10.14h.04l1.42-10.14h3.18v14.16h-2.1v-10.72h-.04l-1.62,10.72h-1.86l-1.62-10.72h-.04v10.72h-1.94v-14.16Z"/>
          <path class="cls-11" d="M354.4,48.58h2.23v14.16h-2.23v-14.16Z"/>
          <path class="cls-11" d="M358.63,59.38v-7.45c0-2.27,1.13-3.56,3.32-3.56s3.32,1.29,3.32,3.56v1.21h-2.1v-1.36c0-1.01-.45-1.4-1.15-1.4s-1.15,.38-1.15,1.4v7.75c0,1.01,.45,1.38,1.15,1.38s1.15-.36,1.15-1.38v-2.77h-1.11v-2.02h3.22v4.63c0,2.27-1.13,3.56-3.32,3.56s-3.32-1.29-3.32-3.56Z"/>
          <path class="cls-11" d="M367.21,48.58h3.3c2.31,0,3.3,1.07,3.3,3.26v.87c0,1.46-.47,2.39-1.46,2.79v.04c1.11,.34,1.48,1.4,1.48,2.99v2.49c0,.69,.02,1.19,.24,1.72h-2.27c-.12-.36-.2-.59-.2-1.74v-2.59c0-1.31-.38-1.74-1.4-1.74h-.77v6.07h-2.23v-14.16Zm3.03,6.07c.83,0,1.34-.36,1.34-1.5v-1.09c0-1.01-.34-1.46-1.13-1.46h-1.01v4.05h.81Z"/>
          <path class="cls-11" d="M377.58,48.58h3.01l2.31,14.16h-2.23l-.4-2.81v.04h-2.53l-.4,2.77h-2.06l2.31-14.16Zm2.43,9.47l-.99-7h-.04l-.97,7h2Z"/>
          <path class="cls-11" d="M385.29,50.6h-2.33v-2.02h6.88v2.02h-2.33v12.14h-2.23v-12.14Z"/>
          <path class="cls-11" d="M391.18,59.38v-7.45c0-2.27,1.19-3.56,3.38-3.56s3.38,1.29,3.38,3.56v7.45c0,2.27-1.19,3.56-3.38,3.56s-3.38-1.29-3.38-3.56Zm4.53,.14v-7.73c0-1.01-.45-1.4-1.15-1.4s-1.15,.38-1.15,1.4v7.73c0,1.01,.45,1.4,1.15,1.4s1.15-.38,1.15-1.4Z"/>
          <path class="cls-11" d="M399.93,48.58h3.3c2.31,0,3.3,1.07,3.3,3.26v.87c0,1.46-.47,2.39-1.46,2.79v.04c1.11,.34,1.48,1.4,1.48,2.99v2.49c0,.69,.02,1.19,.24,1.72h-2.27c-.12-.36-.2-.59-.2-1.74v-2.59c0-1.31-.38-1.74-1.4-1.74h-.77v6.07h-2.23v-14.16Zm3.03,6.07c.83,0,1.34-.36,1.34-1.5v-1.09c0-1.01-.34-1.46-1.13-1.46h-1.01v4.05h.81Z"/>
          <path class="cls-11" d="M410.31,56.71l-2.69-8.13h2.37l1.52,5.2h.04l1.52-5.2h2.17l-2.69,8.13v6.03h-2.23v-6.03Z"/>
          <path class="cls-11" d="M214.93,71.7h3.3c2.31,0,3.3,1.07,3.3,3.26v.87c0,1.46-.47,2.39-1.46,2.79v.04c1.11,.34,1.48,1.4,1.48,2.99v2.49c0,.69,.02,1.19,.24,1.72h-2.27c-.12-.36-.2-.59-.2-1.74v-2.59c0-1.31-.38-1.74-1.4-1.74h-.77v6.07h-2.23v-14.16Zm3.03,6.07c.83,0,1.34-.36,1.34-1.5v-1.09c0-1.01-.34-1.46-1.13-1.46h-1.01v4.05h.81Z"/>
          <path class="cls-11" d="M223.43,82.5v-7.45c0-2.27,1.19-3.56,3.38-3.56s3.38,1.29,3.38,3.56v7.45c0,2.27-1.19,3.56-3.38,3.56s-3.38-1.29-3.38-3.56Zm4.53,.14v-7.73c0-1.01-.45-1.4-1.15-1.4s-1.15,.38-1.15,1.4v7.73c0,1.01,.45,1.4,1.15,1.4s1.15-.38,1.15-1.4Z"/>
          <path class="cls-11" d="M232.1,82.5v-10.8h2.23v10.97c0,1.01,.42,1.38,1.13,1.38s1.13-.36,1.13-1.38v-10.97h2.14v10.8c0,2.27-1.13,3.56-3.32,3.56s-3.32-1.29-3.32-3.56Z"/>
          <path class="cls-11" d="M242.56,73.72h-2.33v-2.02h6.88v2.02h-2.33v12.14h-2.23v-12.14Z"/>
          <path class="cls-11" d="M248.69,71.7h6.07v2.02h-3.84v3.74h3.06v2.02h-3.06v4.35h3.84v2.02h-6.07v-14.16Z"/>
          <path class="cls-11" d="M256.19,82.5v-.81h2.1v.97c0,1.01,.45,1.38,1.15,1.38s1.15-.36,1.15-1.42c0-1.17-.45-1.92-1.9-3.2-1.86-1.64-2.47-2.79-2.47-4.41,0-2.23,1.15-3.52,3.32-3.52s3.24,1.29,3.24,3.56v.59h-2.1v-.73c0-1.01-.4-1.4-1.11-1.4s-1.11,.38-1.11,1.36c0,1.03,.47,1.78,1.92,3.06,1.86,1.64,2.45,2.77,2.45,4.53,0,2.31-1.17,3.6-3.36,3.6s-3.28-1.29-3.28-3.56Z"/>
          <path class="cls-11" d="M268.35,71.7h2.23v14.16h-2.23v-14.16Z"/>
          <path class="cls-11" d="M272.74,71.7h2.79l2.16,8.48h.04v-8.48h1.98v14.16h-2.29l-2.67-10.34h-.04v10.34h-1.98v-14.16Z"/>
          <path class="cls-11" d="M285.59,84.32c0-2.02,.57-3.26,2.23-5,1.7-1.8,2.19-2.87,2.19-4.19s-.45-1.62-1.15-1.62-1.15,.38-1.15,1.4v1.52h-2.1v-1.38c0-2.27,1.13-3.56,3.32-3.56s3.32,1.29,3.32,3.56c0,1.68-.69,3.18-2.75,5.36-1.34,1.42-1.68,2.12-1.68,3.12v.3h4.23v2.02h-6.43v-1.54Z"/>
          <path class="cls-11" d="M294.06,82.5v-7.45c0-2.27,1.19-3.56,3.38-3.56s3.38,1.29,3.38,3.56v7.45c0,2.27-1.19,3.56-3.38,3.56s-3.38-1.29-3.38-3.56Zm4.53,.14v-7.73c0-1.01-.45-1.4-1.15-1.4s-1.15,.38-1.15,1.4v7.73c0,1.01,.45,1.4,1.15,1.4s1.15-.38,1.15-1.4Z"/>
          <path class="cls-11" d="M302.78,84.32c0-2.02,.57-3.26,2.23-5,1.7-1.8,2.19-2.87,2.19-4.19s-.45-1.62-1.15-1.62-1.15,.38-1.15,1.4v1.52h-2.1v-1.38c0-2.27,1.13-3.56,3.32-3.56s3.32,1.29,3.32,3.56c0,1.68-.69,3.18-2.75,5.36-1.34,1.42-1.68,2.12-1.68,3.12v.3h4.23v2.02h-6.43v-1.54Z"/>
          <path class="cls-11" d="M311.38,84.32c0-2.02,.57-3.26,2.23-5,1.7-1.8,2.19-2.87,2.19-4.19s-.45-1.62-1.15-1.62-1.15,.38-1.15,1.4v1.52h-2.1v-1.38c0-2.27,1.13-3.56,3.32-3.56s3.32,1.29,3.32,3.56c0,1.68-.69,3.18-2.75,5.36-1.34,1.42-1.68,2.12-1.68,3.12v.3h4.23v2.02h-6.43v-1.54Z"/>
        </g>
        <g>
          <line id="line" class="cls-4" x1="214.22" y1="25.89" x2="228.82" y2="25.89"/>
          <line id="line-2" data-name="line" class="cls-4" x1="214.22" y1="39.1" x2="228.82" y2="39.1"/>
        </g>
        <g>
          <line id="line-3" data-name="line" class="cls-4" x1="320.57" y1="25.89" x2="329.58" y2="25.89"/>
          <line id="line-4" data-name="line" class="cls-4" x1="320.57" y1="39.1" x2="329.58" y2="39.1"/>
        </g>
      </g>
    </g>
    <line class="cls-5" x1="335.16" y1="147.85" x2="465.93" y2="147.85"/>
    <path class="cls-12" d="M508.17,15.94c-4.88-.16-8.98,3.66-9.15,8.54,0,6.65,5.27,11.87,9.15,17.08,3.57-5,9.15-10.73,9.15-17.08-.17-4.89-4.27-8.71-9.15-8.54Zm-3.66,9.15c0-4.88,7.32-4.88,7.32,0s-7.32,4.88-7.32,0Z"/>
    <path class="cls-6" d="M58.21,152.3c20.7,5.21,47.43,2.34,69.21-3"/>
    <path class="cls-6" d="M14.1,88.61c0,5.7,.83,11.55,2.48,17.5"/>
    <path class="cls-6" d="M36.11,26.05c-16.19,4.52-10.61,9.96-16.94,16.39"/>
    <path class="cls-6" d="M137.91,23.03c-3.98-.7-7.75-1.31-11.28-1.77-6.34-.83-12.37-1.26-18.09-1.36"/>
    <path class="cls-6" d="M199.6,32.68c-3.99-.31-7.93-.71-11.8-1.18"/>
    <path class="cls-6" d="M426.2,35.19c-10.99-.63-22.35-1.26-33.38-1.84"/>
    <path class="cls-6" d="M498.65,39.63s-7.17-.47-18.65-1.19"/>
    <g>
      <path class="cls-13" d="M160.8,16.75c-.96-1.67-2.85-2.57-4.73-2.31-.71-1.76-2.44-2.95-4.36-2.95s-3.65,1.19-4.36,2.95c-1.88-.26-3.77,.64-4.73,2.31-.96,1.67-.8,3.76,.37,5.25-1.17,1.5-1.33,3.58-.37,5.25,.96,1.67,2.85,2.57,4.73,2.31,.49,1.2,1.44,2.13,2.62,2.6v-4.12c0-.96,.78-1.75,1.75-1.75s1.75,.78,1.75,1.75v4.12c1.17-.47,2.13-1.4,2.62-2.6,1.88,.26,3.77-.64,4.73-2.31,.96-1.67,.8-3.76-.37-5.25,1.17-1.5,1.33-3.58,.37-5.25h0Z"/>
      <path class="cls-13" d="M153.92,41.8h-1.63v-13.76c0-.32-.26-.58-.58-.58s-.58,.26-.58,.58v13.76h-1.63v1.16h4.43v-1.17Z"/>
    </g>
    <g>
      <path class="cls-1" d="M183.3,29.74c-.96-1.67-2.85-2.57-4.73-2.31-.71-1.76-2.44-2.95-4.36-2.95s-3.65,1.19-4.36,2.95c-1.88-.26-3.77,.64-4.73,2.31-.96,1.67-.8,3.76,.37,5.25-1.17,1.5-1.33,3.58-.37,5.25,.96,1.67,2.85,2.57,4.73,2.31,.49,1.2,1.44,2.13,2.62,2.6v-4.12c0-.96,.78-1.75,1.75-1.75s1.75,.78,1.75,1.75v4.12c1.17-.47,2.13-1.4,2.62-2.6,1.88,.26,3.77-.64,4.73-2.31,.96-1.67,.8-3.76-.37-5.25,1.17-1.5,1.33-3.58,.37-5.25h0Z"/>
      <path class="cls-1" d="M176.42,54.79h-1.63v-13.76c0-.32-.26-.58-.58-.58s-.58,.26-.58,.58v13.76h-1.63v1.16h4.43v-1.17Z"/>
    </g>
    <g>
      <path class="cls-13" d="M451.16,25.85c-.96-1.67-2.85-2.57-4.73-2.31-.71-1.76-2.44-2.95-4.36-2.95s-3.65,1.19-4.36,2.95c-1.88-.26-3.77,.64-4.73,2.31-.96,1.67-.8,3.76,.37,5.25-1.17,1.5-1.33,3.58-.37,5.25,.96,1.67,2.85,2.57,4.73,2.31,.49,1.2,1.44,2.13,2.62,2.6v-4.12c0-.96,.78-1.75,1.75-1.75s1.75,.78,1.75,1.75v4.12c1.17-.47,2.13-1.4,2.62-2.6,1.88,.26,3.77-.64,4.73-2.31,.96-1.67,.8-3.76-.37-5.25,1.17-1.5,1.33-3.58,.37-5.25h0Z"/>
      <path class="cls-13" d="M444.28,50.9h-1.63v-13.76c0-.32-.26-.58-.58-.58s-.58,.26-.58,.58v13.76h-1.63v1.16h4.43v-1.17Z"/>
    </g>
    <g>
      <path class="cls-7" d="M474.85,36.89c-.96-1.67-2.85-2.57-4.73-2.31-.71-1.76-2.44-2.95-4.36-2.95s-3.65,1.19-4.36,2.95c-1.88-.26-3.77,.64-4.73,2.31-.96,1.67-.8,3.76,.37,5.25-1.17,1.5-1.33,3.58-.37,5.25,.96,1.67,2.85,2.57,4.73,2.31,.49,1.2,1.44,2.13,2.62,2.6v-4.12c0-.96,.78-1.75,1.75-1.75s1.75,.78,1.75,1.75v4.12c1.17-.47,2.13-1.4,2.62-2.6,1.88,.26,3.77-.64,4.73-2.31,.96-1.67,.8-3.76-.37-5.25,1.17-1.5,1.33-3.58,.37-5.25h0Z"/>
      <path class="cls-7" d="M467.97,61.94h-1.63v-13.76c0-.32-.26-.58-.58-.58s-.58,.26-.58,.58v13.76h-1.63v1.16h4.43v-1.17Z"/>
    </g>
    <path class="cls-10" d="M46.49,81.3c0,.2,0,.44-.05,.64-.1,.44-.49,.79-.94,.79H1.38c-.44,0-.84-.35-.94-.79-.05-.2-.05-.44-.05-.64,0-1.97,1.58-3.55,3.55-3.55,.2,0,.35,.05,.49,.05,.35-1.63,1.78-2.81,3.5-2.81h.1c.05-2.62,.2-5.28,.44-7.6-.54,.2-1.14,.3-1.73,.3-2.91,0-5.28-2.37-5.28-5.28,0-.59,.1-1.18,.3-1.73-1.09-.99-1.78-2.37-1.78-3.95,0-2.86,2.37-5.23,5.28-5.23,.69-2.07,2.62-3.55,4.94-3.55,1.53,0,2.86,.64,3.85,1.68-1.83,1.38-3.01,3.6-3.01,6.07,0,1.78,.64,3.45,1.73,4.79-.05,.3-.05,.59-.05,.84,0,2.32,1.04,4.39,2.66,5.77-.69,.35-1.48,.54-2.32,.54-.59,0-1.14-.1-1.68-.3,0,2.37,.3,5.13,.69,7.85,.64-.69,1.53-1.09,2.57-1.09,.69,0,1.33,.2,1.88,.54,.64-.89,1.68-1.48,2.86-1.48,.74,0,1.48,.25,2.02,.64l.49-7.5c-.84,.25-1.78,.35-2.76,.1-1.43-.35-2.66-1.38-3.36-2.71-.84-1.53-.79-2.86-.4-4-1.18-.99-1.92-2.42-1.92-4.05,0-2.86,2.27-5.13,5.08-5.23,.69-2.07,2.66-3.55,4.94-3.55s4.25,1.48,4.94,3.55c2.81,.1,5.08,2.37,5.08,5.23,0,1.63-.74,3.11-1.92,4.05,.4,1.14,.44,2.47-.4,4-.74,1.28-1.92,2.32-3.36,2.71-.99,.25-1.92,.2-2.76-.1l.49,7.5c.59-.4,1.28-.64,2.02-.64,1.18,0,2.22,.59,2.86,1.48,.54-.35,1.18-.54,1.88-.54,.99,0,1.92,.44,2.57,1.09,.4-2.71,.69-5.48,.69-7.85-.54,.2-1.09,.3-1.68,.3-.84,0-1.63-.2-2.32-.54,1.63-1.38,2.66-3.45,2.66-5.77,0-.3,0-.59-.05-.84,1.09-1.33,1.73-3.01,1.73-4.79,0-2.47-1.18-4.69-3.01-6.07,.94-1.04,2.32-1.68,3.8-1.68,2.32,0,4.25,1.48,4.94,3.55,2.91,0,5.28,2.37,5.28,5.28,0,1.58-.69,2.96-1.83,3.95,.2,.54,.3,1.14,.3,1.73,0,2.91-2.37,5.28-5.28,5.28-.59,0-1.18-.15-1.73-.3,.25,2.32,.4,4.94,.44,7.6h.1c1.73,0,3.16,1.23,3.5,2.81,.15,0,.35-.05,.49-.05,1.93-.05,3.56,1.53,3.56,3.51h0Z"/>
    <g>
      <path class="cls-12" d="M115.38,67.97c-.11-.34-.2-.68-.27-1.02-1.13-.86-2.53-1.36-4.05-1.36-3.7,0-6.7,3-6.7,6.7,0,2.03,.9,3.84,2.32,5.07,1.17,1.01,2.7,1.63,4.37,1.63h0c1.67,0,3.19-.61,4.36-1.61,1.42-1.22,2.32-3.01,2.34-5.02-1.25-1.51-1.97-3.09-2.38-4.39Z"/>
      <path class="cls-12" d="M150.54,70.35c.9-.54,1.5-1.53,1.5-2.66h0c0-1.72-1.39-3.11-3.11-3.11-.91,0-1.73,.39-2.3,1.02,1.9,.94,3.35,2.67,3.91,4.76Z"/>
      <path class="cls-12" d="M138.95,77.36c1.17,1.01,2.7,1.63,4.37,1.63h0c1.67,0,3.19-.61,4.36-1.61,1.43-1.23,2.34-3.05,2.34-5.09,0-3.7-3-6.7-6.7-6.7s-6.7,3-6.7,6.7c0,2.03,.9,3.84,2.32,5.07Z"/>
      <path class="cls-12" d="M153.09,102.68v2.93c0,1.6-1.3,2.9-2.9,2.9s-2.9-1.3-2.9-2.9v-.88c-.53,.72-1.38,1.19-2.34,1.19-1.6,0-2.9-1.3-2.9-2.9v-.82c-.33-.04-.66-.12-.98-.23l-7.19-2.7-3.74,33.42c-.06,.54,.36,1.01,.9,1.01h24.53c.54,0,.96-.47,.9-1.01l-3.36-30Z"/>
      <path class="cls-12" d="M143.89,102.22s-.03,0-.05,0c-.05,0-.09,0-.14-.01-.02,0-.03,0-.05,0-.05,0-.11-.01-.16-.02,0,0-.01,0-.02,0-.06,0-.13-.02-.19-.03h0c-.16,.03-.32,.05-.48,.07v.8c0,1.18,.96,2.13,2.13,2.13s2.13-.96,2.13-2.13v-1.63l-1.55,.58c-.46,.17-.95,.26-1.44,.26-.06,0-.12,0-.19,0Z"/>
      <path class="cls-12" d="M150.18,107.75c1.18,0,2.13-.96,2.13-2.13v-6.2l-4.27,1.6v4.6c0,1.18,.96,2.13,2.13,2.13Z"/>
      <path class="cls-12" d="M141.32,101.24c.06,.02,.12,.04,.18,.06-.55-.45-.99-1.04-1.25-1.73-.38-1.02-.35-2.13,.11-3.13,.39-.86,1.04-1.54,1.87-1.95l-8.63-3.24,1.2-5.46-.63,4.85,7.88,2.96c.21-2.59,2.38-4.63,5.02-4.63h1.97l.06-4.46h-6.6c-1.35,0-2.44-1.04-2.48-2.36-.02-.67,.22-1.3,.68-1.79,.37-.38,.84-.63,1.35-.71-1.33-.23-2.58-.81-3.62-1.71-.21-.18-.41-.38-.6-.58h-.18c-.88,0-1.76,.1-2.61,.33-2.4,.64-4.25,2.1-5.05,4.24l-2.62,6.98h0c-1.29,3.44,.45,7.27,3.89,8.56l10.05,3.77Z"/>
      <path class="cls-12" d="M148.19,77.97c-.98,.84-2.16,1.41-3.42,1.66,1.14,0,2.59,0,4.09,0-.28-.56-.46-1.17-.51-1.8-.05,.05-.1,.1-.16,.14Z"/>
      <path class="cls-12" d="M157.46,84.32v5.42c0,2.78-2.26,5.04-5.04,5.04h-8.86l-.65,.24c-1.72,.64-2.59,2.56-1.94,4.28,.64,1.72,2.56,2.59,4.28,1.94l10.05-3.77c3.44-1.29,5.18-5.12,3.89-8.56h0s-1.72-4.59-1.72-4.59Z"/>
      <path class="cls-12" d="M149.09,77.39c0,.82,.24,1.58,.64,2.23,1.27,0,2.53,0,3.62,0,1.01,0,1.93,.37,2.64,.97,0,0,.01-.01,.02-.02,.9-.77,1.47-1.91,1.47-3.19,0-2.32-1.88-4.2-4.2-4.2s-4.2,1.88-4.2,4.2Z"/>
      <path class="cls-12" d="M147.07,89.74c-2.36,0-4.27,1.91-4.27,4.27h0s9.63,0,9.63,0c2.36,0,4.27-1.91,4.27-4.27h0s0-.05,0-.08v-5.92c0-1.84-1.49-3.34-3.34-3.34-4.21,0-10.89,0-10.89,0-.95,0-1.71,.78-1.67,1.74,.03,.91,.81,1.61,1.72,1.61h7.38l-.08,6h-2.73Z"/>
      <path class="cls-12" d="M170.61,140.45c0,1.34,1.09,2.43,2.42,2.41,1.31-.02,2.36-1.12,2.36-2.45v-7.53h-4.79v7.57Z"/>
      <path class="cls-12" d="M163.36,140.41c0,1.33,1.05,2.43,2.36,2.45,1.34,.02,2.42-1.07,2.42-2.41v-7.57h-4.79v7.53Z"/>
      <path class="cls-12" d="M166.76,99.82c.77,.67,1.78,1.07,2.89,1.07h0c1.1,0,2.1-.4,2.88-1.06,.95-.81,1.54-2.01,1.54-3.36s-.65-2.64-1.65-3.45c.05-.02,.09-.04,.14-.06,.17-.07,.33-.12,.47-.12,.14,0,.24,.03,.33,.08,.09,.05,.19,.13,.29,.24,.1,.11,.2,.23,.31,.38,.2,.28,.4,.61,.6,.95,.2,.34,.41,.69,.64,1.04,.23,.35,.48,.71,.79,1.04,.16,.17,.33,.33,.53,.48,.2,.15,.45,.28,.73,.33,.14,.02,.3,.02,.43-.01,.14-.04,.26-.09,.36-.17,.2-.15,.33-.35,.42-.55-.2,.09-.4,.17-.58,.18-.09,0-.17,0-.23-.02-.07-.03-.12-.05-.18-.1-.05-.05-.1-.09-.15-.15-.02-.03-.05-.06-.07-.09-.02-.03-.05-.07-.07-.1-.09-.14-.18-.3-.27-.47-.17-.33-.34-.69-.52-1.06-.18-.36-.37-.74-.59-1.11-.22-.37-.47-.74-.8-1.09-.16-.18-.35-.35-.57-.5-.22-.15-.49-.28-.8-.33-.31-.06-.64,0-.89,.11-.26,.12-.46,.29-.62,.46-.08,.09-.15,.18-.22,.28-.66-.39-1.43-.62-2.26-.62-2.44,0-4.42,1.98-4.42,4.42,0,1.34,.59,2.54,1.53,3.35Z"/>
      <path class="cls-12" d="M131.53,75.47h-8.4c-.93,0-1.7,.71-1.79,1.64l-.19,2.14c-.25-.24-.57-.56-.84-.8l-16.99,20.51v11.33c0,1.71-1.29,3.12-2.94,3.32v25.92c0,1.99,1.59,3.65,3.58,3.68,2.03,.03,3.68-1.61,3.68-3.63v-28.25c0-1.88,1.49-3.45,3.37-3.48,1.88,.04,3.36,1.62,3.35,3.49l-.11,28.25c0,2.02,1.64,3.66,3.66,3.64,1.99-.02,3.59-1.67,3.59-3.67v-42.57c-.24-.09-.47-.21-.68-.35-.35-.23-.67-.54-.94-.92-.18-.26-.25-.38-.29-.46v-.03s-.22-.51-.22-.51v-.03c-.05-.12-.08-.24-.1-.36-.08-.4-.09-.8-.03-1.21l1.59-10.26-.13,1.4-.8,8.92c-.03,.33,0,.65,.08,.95,.03,.1,.06,.19,.09,.28l.21,.44c.06,.09,.16,.23,.26,.35,.22,.27,.49,.51,.79,.68,.35,.2,.74,.32,1.16,.36,1.56,.13,2.93-1.04,3.06-2.6l1.21-14.93c.11-1.39,5.22-2,4.76-3.25Z"/>
      <path class="cls-13" d="M102.56,110.28v-11.37c0-.08,0-.15-.01-.22l17.23-20.8v-.02s-.7-.53-1.75-.51l-16.29,19.67c-.46-.43-1.08-.69-1.76-.69h-2.77c-1.42,0-2.58,1.15-2.58,2.58v11.37c0,1.42,1.15,2.58,2.58,2.58h2.77c1.42,0,2.58-1.15,2.58-2.58Z"/>
      <path class="cls-13" d="M182.84,120.42h-1.17v-1.59c-.13,.02-.26,.03-.4,.03-.29,0-.56-.04-.83-.12v1.69h-1.17c-.89,0-1.61,.72-1.61,1.61v14.35c0,.89,.72,1.61,1.61,1.61h3.57c.89,0,1.61-.72,1.61-1.61v-14.35c0-.89-.72-1.61-1.61-1.61Z"/>
      <path class="cls-12" d="M84.79,112.9c.41-1.1-.14-2.32-1.24-2.73l-6.42-2.41-.18-.07-3.28-2.8-.51,1.37h0c-.82,2.19,.29,4.64,2.48,5.46l6.42,2.41c1.1,.41,2.32-.14,2.73-1.24Z"/>
      <path class="cls-12" d="M91.36,113.53l1.59-2.11c.9-1.19,1.13-2.75,.61-4.15l-2.02-5.43c-.6-1.6-2.07-2.46-3.99-2.72-.27,.43-.61,.82-1,1.16-.94,.81-2.14,1.25-3.38,1.25h-.01c-.19,0-.38-.01-.56-.03l6.1,5.19v-.34s.92,2.46,.92,2.46h0s-3.54,4.7-3.54,4.7c-.71,.94-.52,2.27,.42,2.97,.94,.71,2.27,.52,2.97-.42l1.91-2.53Z"/>
      <path class="cls-12" d="M95.53,113.53l-1.95-1.66s0,.01-.01,.02l-1.48,1.96-2.03,2.69c-.21,.28-.46,.51-.74,.69l1.69,1.44c1.39,1.22,3.53,1.07,4.78-.35,1.25-1.42,1.14-3.56-.25-4.78Z"/>
      <path class="cls-13" d="M83.82,109.45c.72,.27,1.3,.81,1.62,1.51,.27,.59,.33,1.23,.18,1.85l3.11-4.12-.51-1.38-8.04-6.85h0l-5.08-4.33s-.07-.06-.11-.09c1.29,1.24,1.36,3.3,.15,4.68-1.22,1.38-3.28,1.56-4.67,.44,.03,.03,.07,.07,.11,.1l6.78,5.77,6.47,2.43Z"/>
      <path class="cls-12" d="M87.75,117.78c-.63,0-1.23-.21-1.74-.6-.85-.65-1.24-1.7-1.13-2.71l-.16-.14c-.52,.47-1.2,.75-1.92,.75h0c-.35,0-.69-.06-1.02-.19l-4.12-1.58v27.37c0,1.33,1.02,2.46,2.33,2.5,1.35,.04,2.46-1.07,2.46-2.45v-19.08s0-.07,0-.11c.04-.89,1.36-.89,1.4,0,0,.04,0,.08,0,.11l-.05,19.08c0,1.36,1.08,2.47,2.42,2.46,1.31-.01,2.36-1.13,2.37-2.48l.06-22.96-.11-.1c-.25,.07-.52,.11-.79,.11Z"/>
      <path class="cls-12" d="M80.27,99.68c.77,.67,1.78,1.07,2.89,1.07h0c1.1,0,2.1-.4,2.88-1.06,.95-.81,1.54-2.01,1.54-3.36,0-2.44-1.98-4.42-4.42-4.42s-4.42,1.98-4.42,4.42c0,1.34,.59,2.54,1.53,3.35Z"/>
      <path class="cls-12" d="M134.16,139.18c0,1.99,1.59,3.65,3.58,3.68,2.03,.03,3.68-1.61,3.68-3.63v-4.94h-7.25v4.88Z"/>
      <path class="cls-12" d="M145.15,139.24c0,2.02,1.65,3.65,3.68,3.63,1.99-.03,3.58-1.69,3.58-3.68v-4.88h-7.25v4.94Z"/>
      <path class="cls-12" d="M175.4,109.42v-3.1l3.51,9.35c.19-.48,.51-.9,.92-1.21-.39,.38-.64,.92-.64,1.51,0,1.16,.94,2.11,2.11,2.11,.03,0,.07,0,.1,0,1.09-.05,1.97-.93,2.01-2.03,0,0,0,0,0,0,0-.02,0-.05,0-.07,0,0,0,0,0-.01,0-.05,0-.09,0-.14-.01-.2-.05-.41-.13-.61l-.39-1.03-4.64-12.37c-.61-1.63-2.13-2.49-4.11-2.73-.29,.49-.66,.94-1.1,1.32-.94,.81-2.14,1.25-3.38,1.25h-.01c-1.24,0-2.44-.45-3.38-1.26-.41-.36-.76-.77-1.03-1.22-1.7,.32-2.99,1.17-3.54,2.64l-1.9,5.06-5.69-2.13,.53,4.73,4.77,1.79c1.45,.54,2.9-.02,3.62-1.35l.39-3.85-.05,3.37c0,3.89-.44,7.77-1.32,11.56l-2.32,10.02c-.13,.57,.3,1.11,.88,1.11h16.3v-10.09c0-.07,0-.14,.01-.21l-.19-.83c-.88-3.79-1.32-7.67-1.32-11.56Z"/>
      <path class="cls-13" d="M73.3,100.96s-.03,0-.04,0c-.34,.06-.69,.04-1.03-.04-.34-.08-.67-.24-.95-.45-.29-.21-.53-.49-.71-.8-.39-.63-.42-1.47-.09-2.15,.16-.34,.42-.64,.72-.86,.15-.11,.32-.2,.5-.27,.18-.07,.38-.11,.57-.12,.2-.01,.39,.01,.58,.06,.19,.05,.37,.13,.54,.23,.16,.11,.32,.23,.44,.38,.03,.04,.06,.08,.09,.12,.03,.04,.06,.08,.08,.12l.07,.13s.04,.09,.06,.14c.15,.38,.15,.81,0,1.17-.08,.18-.19,.35-.32,.5-.14,.14-.3,.25-.48,.33-.37,.16-.82,.13-1.15-.08-.17-.1-.31-.25-.41-.41-.1-.16-.16-.36-.15-.56,0-.39,.27-.75,.62-.87,0,0,0,0,0,0,.31-.1,.64,.09,.73,.4l.12,.4c.07,.24,.39,.3,.55,.1,.09-.25,.08-.53-.03-.76-.11-.24-.3-.46-.53-.6-.11-.07-.24-.13-.37-.16-.13-.03-.27-.05-.4-.04-.13,0-.27,.03-.4,.08-.03,0-.06,.03-.09,.04-.03,.01-.06,.03-.09,.05-.06,.04-.12,.07-.18,.11-.23,.16-.43,.38-.56,.63-.27,.5-.28,1.14-.01,1.67,.27,.54,.75,.98,1.34,1.2,.12,.04,.24,.08,.36,.11,.66,.14,1.35-.1,1.79-.61h0c.61-.7,.85-1.59,.74-2.43-.25-1.33-1.4-2.34-2.8-2.37-.02,0-.04,0-.07,0-.71,0-1.36,.26-1.87,.68-.29,.24-.53,.53-.7,.87-.22,.41-.34,.88-.34,1.37,0,.13,0,.25,.02,.37,.18,1.4,1.36,2.5,2.8,2.54,.35,0,.71-.08,1.04-.21Z"/>
      <path class="cls-12" d="M115.25,62.71l-.23,.08c.41-.1,.79-.28,1.12-.54-.26,.19-.54,.35-.86,.45,0,0-.02,0-.03,0Z"/>
      <path class="cls-12" d="M115.99,78.04c-1.37,1.18-3.12,1.82-4.93,1.82h-.02c-1.81,0-3.56-.66-4.93-1.84-1.67-1.44-2.62-3.53-2.62-5.73,0-.17,0-.34,.02-.51l-1.76-4.66,13.27-4.34,.23-.08s.02,0,.03,0c.31-.11,.6-.26,.86-.45,.65-.51,1.06-1.31,1.06-2.2,0-1.55-1.26-2.81-2.81-2.81-.19,0-.37,.02-.55,.05-.39,.08-16.51,5.31-16.51,5.31-1.49,.48-2.21,2.06-1.82,3.57l4.88,20.98v8.44c.43,.05,.84,.19,1.22,.39l15.4-18.6h-.34c-.21,.23-.43,.45-.67,.66Z"/>
      <path class="cls-13" d="M125.97,55.72c-2.45,.15-8.01-.64-9.18-2.24-.01-.02-.02-.04-.03-.06l.69-.3c.35-.15,.51-.56,.36-.9-.15-.35-.56-.51-.9-.36l-.73,.31c-.3-.81-.47-1.65-.39-2.5,.16-1.71-.03-3.33-1.16-3.5-2.71-.42-1.81,3.05-.74,4.66-.9-1.01-2.9-2.85-3.32-1.29-.32,1.22,.84,2.22,2.2,3.18,.25,.14,.44,.38,.6,.67l-.53,.23c-.35,.15-.51,.56-.36,.9,.15,.35,.56,.51,.9,.36l.37-.16c.07,.49,.1,1.03,.09,1.61,.18-.03,.36-.04,.54-.04,2.07,0,3.76,1.69,3.76,3.76,0,1.15-.52,2.22-1.42,2.94l-.02,.02c-.34,.26-.72,.45-1.12,.59h-.04s-1.23,.41-1.23,.41c.15,.17,.32,.32,.5,.46,1.16,.89,1.2,2.38,1.47,3.21,.64,2.01,2.19,5.07,5.93,7.07,.29-.1,.59-.16,.91-.16h9.01l.07,.19c2.05-.99,3.35-3.36,3.39-9,.04-5.36-4.28-10.4-9.63-10.07Z"/>
    </g>
    <g id="wxBjvP">
      <g>
        <path class="cls-1" d="M69.17,13.08h-4.49c-.01-.07-.04-.12-.04-.17,0-2.33-.01-4.66,0-6.99,0-.87,.46-1.51,1.24-1.91,.79-.39,1.58-.34,2.31,.13,.6,.39,.99,.95,.99,1.67,.02,2.37,.01,4.75,.01,7.12,0,.04-.02,.08-.04,.15Z"/>
        <path class="cls-7" d="M62.93,13.08h-4.57c-.01-.12-.03-.23-.03-.34,0-1.58-.02-3.16,0-4.74,.02-1.69,1.63-2.77,3.18-2.14,.84,.34,1.36,.98,1.4,1.85,.06,1.6,.02,3.21,.02,4.82,0,.17,0,.33,0,.55Z"/>
        <path class="cls-1" d="M80.38,13.07h-4.51c-.01-.11-.04-.22-.04-.32,0-1.56-.01-3.13,0-4.69,.01-1.41,1-2.38,2.38-2.36,1.13,.02,2.17,.9,2.2,2,.05,1.76,.01,3.52,0,5.28,0,.02-.02,.05-.05,.09Z"/>
        <path class="cls-7" d="M75.02,13.08h-4.51c-.01-.09-.03-.17-.03-.25,0-1.24-.01-2.49,0-3.73,.01-1.26,.97-2.21,2.23-2.24,1.28-.03,2.3,.89,2.33,2.17,.03,1.28,0,2.57,0,3.86,0,.05-.02,.11-.03,.19Z"/>
        <path class="cls-1" d="M86.71,13.07h-4.54c0-.9-.08-1.78,.02-2.65,.12-1.07,1.23-1.9,2.31-1.85,1.19,.06,2.14,.92,2.2,2.06,.04,.79,0,1.59,0,2.44Z"/>
        <path class="cls-7" d="M63.78,3.83c-.23,.99-.47,1.04-1.75,.43-.34,.51-.79,.86-1.46,.86-.67,0-1.25-.4-1.49-1.01-.24-.62-.06-1.32,.46-1.75,.48-.41,1.26-.51,1.8-.19,.31,.19,.58,.45,.84,.7,.23,.23,.42,.49,.64,.73,.26,.29,.54,.51,.96,.22Z"/>
        <path class="cls-1" d="M81.31,3.79c-.3,1.06-.53,1.11-1.76,.47-.07,.09-.15,.18-.22,.28-.55,.66-1.49,.78-2.19,.28-.67-.48-.85-1.39-.41-2.09,.45-.71,1.4-.98,2.13-.55,.32,.19,.59,.47,.86,.74,.25,.25,.46,.54,.7,.79,.23,.24,.5,.38,.89,.08Z"/>
        <path class="cls-1" d="M66.98,0c.89,.03,1.62,.77,1.6,1.64-.01,.88-.81,1.63-1.69,1.6-.91-.03-1.66-.8-1.63-1.67,.03-.89,.8-1.6,1.72-1.57Z"/>
        <path class="cls-7" d="M72.75,3.1c.92,0,1.67,.71,1.67,1.6,0,.88-.76,1.63-1.66,1.63-.9,0-1.67-.76-1.66-1.63,.01-.87,.75-1.59,1.64-1.59Z"/>
        <path class="cls-1" d="M56.81,13.08h-4.51c-.01-.09-.03-.17-.03-.25,0-1.24-.01-2.49,0-3.73,.01-1.26,.97-2.21,2.23-2.24,1.28-.03,2.3,.89,2.33,2.17,.03,1.28,0,2.57,0,3.86,0,.05-.02,.11-.03,.19Z"/>
        <path class="cls-1" d="M54.54,3.1c.92,0,1.67,.71,1.67,1.6,0,.88-.76,1.63-1.66,1.63-.9,0-1.67-.76-1.66-1.63,.01-.87,.75-1.59,1.64-1.59Z"/>
        <path class="cls-1" d="M84.42,4.84c.92,0,1.67,.71,1.68,1.6,0,.88-.72,1.6-1.61,1.61-.93,.01-1.68-.68-1.7-1.57-.02-.88,.73-1.63,1.64-1.64Z"/>
        <path class="cls-7" d="M92.53,13.07h-4.51c-.01-.11-.04-.22-.04-.32,0-1.56-.01-3.13,0-4.69,.01-1.41,1-2.38,2.38-2.36,1.13,.02,2.17,.9,2.2,2,.05,1.76,.01,3.52,0,5.28,0,.02-.02,.05-.05,.09Z"/>
        <path class="cls-1" d="M98.87,13.07h-4.54c0-.9-.08-1.78,.02-2.65,.12-1.07,1.23-1.9,2.31-1.85,1.19,.06,2.14,.92,2.2,2.06,.04,.79,0,1.59,0,2.44Z"/>
        <path class="cls-7" d="M93.47,3.79c-.3,1.06-.53,1.11-1.76,.47-.07,.09-.15,.18-.22,.28-.55,.66-1.49,.78-2.19,.28-.67-.48-.85-1.39-.41-2.09,.45-.71,1.4-.98,2.13-.55,.32,.19,.59,.47,.86,.74,.25,.25,.46,.54,.7,.79,.23,.24,.5,.38,.89,.08Z"/>
        <path class="cls-1" d="M96.57,4.84c.92,0,1.67,.71,1.68,1.6,0,.88-.72,1.6-1.61,1.61-.93,.01-1.68-.68-1.7-1.57-.02-.88,.73-1.63,1.64-1.64Z"/>
      </g>
    </g>
    <g id="wxBjvP-2" data-name="wxBjvP">
      <g>
        <path class="cls-1" d="M24.27,131.05h-6.47c-.02-.09-.05-.17-.05-.24,0-3.36-.01-10.71,0-14.07,0-1.26,.66-2.18,1.79-2.75,1.14-.57,2.28-.49,3.33,.19,.87,.56,1.42,1.37,1.43,2.41,.03,3.42,.02,10.83,.02,14.25,0,.06-.03,.11-.06,.21Z"/>
        <path class="cls-1" d="M40.42,131.05h-6.49c-.02-.16-.05-.32-.05-.47,0-2.25-.02-8.5,0-10.76,.02-2.04,1.44-3.43,3.43-3.4,1.63,.03,3.12,1.3,3.17,2.89,.07,2.53,.02,9.06,.01,11.6,0,.03-.03,.07-.07,.13Z"/>
        <path class="cls-7" d="M32.7,131.05h-6.5c-.02-.13-.05-.25-.05-.36,0-1.79-.02-7.58,0-9.37,.02-1.82,1.4-3.19,3.21-3.23,1.85-.04,3.32,1.29,3.36,3.13,.05,1.85,.01,7.7,.01,9.55,0,.08-.02,.15-.04,.28Z"/>
        <path class="cls-1" d="M41.76,113.67c-.43,1.53-.77,1.6-2.53,.68-.1,.13-.21,.26-.32,.4-.79,.95-2.15,1.12-3.15,.41-.97-.69-1.23-2.01-.6-3.02,.64-1.02,2.02-1.41,3.07-.79,.47,.27,.86,.68,1.24,1.06,.36,.36,.66,.77,1.01,1.14,.33,.35,.72,.55,1.28,.12Z"/>
        <path class="cls-1" d="M21.11,108.21c1.28,.04,2.33,1.11,2.31,2.36-.02,1.27-1.16,2.35-2.44,2.31-1.31-.04-2.39-1.15-2.34-2.41,.05-1.29,1.16-2.3,2.47-2.27Z"/>
        <path class="cls-7" d="M29.42,112.68c1.33,0,2.41,1.03,2.41,2.31,0,1.27-1.09,2.35-2.4,2.34-1.3,0-2.4-1.09-2.39-2.36,.02-1.26,1.08-2.29,2.37-2.3Z"/>
      </g>
    </g>
    <g>
      <path class="cls-14" d="M106.96,33.13c-1.28-.03-2.55,.25-3.7,.81-1.63,.77-3.51,.77-5.14,0-2.35-1.09-5.05-1.09-7.4,0-1.63,.77-3.51,.77-5.14,0-2.35-1.09-5.05-1.09-7.4,0-1.62,.77-3.51,.77-5.13,0-1.15-.56-2.41-.84-3.69-.81-1.28-.03-2.55,.25-3.7,.81-.79,.41-1.68,.6-2.57,.58-.89,.03-1.77-.17-2.57-.58-1.15-.56-2.42-.84-3.7-.81-1.28-.03-2.55,.25-3.7,.81-.79,.41-1.68,.6-2.57,.58-.89,.03-1.77-.17-2.57-.58-1.15-.56-2.42-.84-3.7-.81-.77,0-1.39,.62-1.39,1.39s.62,1.39,1.39,1.39c.89-.02,1.78,.19,2.57,.61,1.15,.55,2.42,.82,3.7,.79,1.28,.04,2.55-.23,3.7-.79,.79-.42,1.68-.62,2.57-.61,.89-.03,1.77,.17,2.57,.58,1.15,.56,2.42,.84,3.7,.82,1.28,.04,2.54-.23,3.69-.79,.79-.42,1.68-.63,2.58-.61,.89-.03,1.77,.17,2.57,.58,1.15,.56,2.42,.84,3.7,.82,1.28,.04,2.54-.23,3.69-.79,1.63-.77,3.51-.77,5.14,0,2.34,1.09,5.05,1.09,7.39,0,1.63-.77,3.51-.77,5.14,0,2.35,1.09,5.05,1.09,7.4,0,.79-.41,1.68-.62,2.57-.61,.77,0,1.39-.62,1.39-1.39s-.62-1.39-1.39-1.39h0Z"/>
      <path class="cls-15" d="M97.64,29.12l7.02-12.88c.18-.33,.18-.73-.01-1.05-.19-.32-.54-.52-.92-.52H47.07c-.39-.02-.75,.18-.95,.51-.2,.33-.2,.75,0,1.08l7.33,12.69"/>
      <path class="cls-1" d="M106.85,27.6c-1.28-.03-2.55,.25-3.7,.81-1.63,.77-3.51,.77-5.14,0-2.35-1.09-5.05-1.09-7.4,0-1.63,.77-3.51,.77-5.14,0-2.35-1.09-5.05-1.09-7.4,0-1.62,.77-3.51,.77-5.13,0-1.15-.56-2.41-.84-3.69-.81-1.28-.03-2.55,.25-3.7,.81-.79,.41-1.68,.6-2.57,.58-.89,.03-1.77-.17-2.57-.58-1.15-.56-2.42-.84-3.7-.81-1.28-.03-2.55,.25-3.7,.81-.79,.41-1.68,.6-2.57,.58-.89,.03-1.77-.17-2.57-.58-1.15-.56-2.42-.84-3.7-.81-.77,0-1.39,.62-1.39,1.39s.62,1.39,1.39,1.39c.89-.02,1.78,.19,2.57,.61,1.15,.55,2.42,.82,3.7,.79,1.28,.04,2.55-.23,3.7-.79,.79-.42,1.68-.62,2.57-.61,.89-.03,1.77,.17,2.57,.58,1.15,.56,2.42,.84,3.7,.82,1.28,.04,2.54-.23,3.69-.79,.79-.42,1.68-.63,2.58-.61,.89-.03,1.77,.17,2.57,.58,1.15,.56,2.42,.84,3.7,.82,1.28,.04,2.54-.23,3.69-.79,1.63-.77,3.51-.77,5.14,0,2.34,1.09,5.05,1.09,7.39,0,1.63-.77,3.51-.77,5.14,0,2.35,1.09,5.05,1.09,7.4,0,.79-.41,1.68-.62,2.57-.61,.77,0,1.39-.62,1.39-1.39s-.62-1.39-1.39-1.39h0Z"/>
    </g>
    <g>
      <path class="cls-9" d="M30.25,140.19c.6-.08,1.24-.25,2.07-.52h0c2.22-.72,2.88-.77,5.25,0,2.34,.77,3.26,.77,5.57,0,.44-.15,.82-.26,1.17-.35,1.06-2.1,2-4.27,1.97-5.26-.14-5.01-13.3-9.73-16.61-10.81h-.14c-3.12,1.01-16.76,5.74-16.9,10.81-.03,.98,.9,3.13,1.95,5.23,.4,.09,.85,.21,1.35,.38h0c2.34,.77,3.26,.77,5.57,0,2.25-.74,3-.74,5.25,0,.8,.27,1.44,.44,2.02,.52"/>
      <path class="cls-8" d="M32.33,139.67c2.22-.72,2.88-.77,5.25,0,2.34,.77,3.26,.77,5.57,0,.44-.15,.82-.26,1.17-.35,1.06-2.1,2-4.27,1.97-5.26-.14-5.01-12.72-9.43-16.03-10.5v16.63c.6-.08,1.24-.25,2.07-.52h0Z"/>
      <path class="cls-8" d="M15.94,139.67c2.34,.77,3.26,.77,5.57,0,2.25-.74,3-.74,5.25,0,.8,.27,1.44,.44,2.02,.52v-16.67c-3.12,1.01-16,5.47-16.15,10.54-.03,.98,.9,3.13,1.95,5.23,.4,.09,.85,.21,1.35,.38h0Z"/>
      <path class="cls-14" d="M48.43,147.8c-2.25-.74-3-.74-5.24,0-2.31,.77-3.23,.77-5.57,0-2.36-.77-3.03-.72-5.25,0-2.35,.77-3.26,.77-5.57,0-2.25-.74-3-.74-5.25,0-2.31,.77-3.23,.77-5.57,0-1.14-.37-2.03-.56-2.65-.56-.58,0-1.45,.19-2.6,.56-1.06,.35-1.77,.51-2.58,.63v3.51c.4-.21,1.29-.4,2.44-.77,2.41-.79,3.26-.74,5.54,0,2.22,.72,2.89,.77,5.25,0,2.34-.77,3.25-.77,5.6,0,2.35,.77,3.03,.72,5.25,0,2.27-.75,3.12-.79,5.54,0,2.21,.72,2.88,.77,5.25,0,2.34-.77,3.26-.77,5.57,0,.99,.33,1.8,.51,2.4,.55v-3.33c-.54,.04-1.4-.21-2.55-.59h0Z"/>
      <path class="cls-1" d="M48.43,141.96c-2.25-.74-3-.74-5.24,0-2.31,.77-3.23,.77-5.57,0-2.36-.77-3.03-.72-5.25,0-2.35,.77-3.26,.77-5.57,0-2.25-.74-3-.74-5.25,0-2.31,.77-3.23,.77-5.57,0-1.14-.37-2.03-.56-2.65-.56-.58,0-1.45,.19-2.6,.56-1.06,.35-1.93,.48-2.58,.63v3.51c.4-.21,1.29-.4,2.44-.77,2.41-.79,3.26-.74,5.54,0,2.22,.72,2.89,.77,5.25,0,2.34-.77,3.25-.77,5.6,0,2.35,.77,3.03,.72,5.25,0,2.27-.75,3.12-.79,5.54,0,2.21,.72,2.88,.77,5.25,0,2.34-.77,3.26-.77,5.57,0,.99,.33,1.8,.51,2.4,.55v-3.24c-.62-.12-1.4-.29-2.55-.67h0Z"/>
    </g>
  </g>
</svg>