<?xml version="1.0" encoding="UTF-8"?>
<svg id="Layer_2" data-name="Layer 2" xmlns="http://www.w3.org/2000/svg" viewBox="0 0 316.51 253.12">
  <defs>
    <style>
      .cls-1 {
        fill: #fff;
      }

      .cls-2 {
        fill: #e4e5e6;
      }

      .cls-3 {
        fill: #939598;
      }

      .cls-4 {
        stroke-dasharray: 0 0 0 2.93;
      }

      .cls-4, .cls-5 {
        stroke: #939598;
        stroke-linecap: round;
        stroke-linejoin: round;
        stroke-width: 1.75px;
      }

      .cls-4, .cls-5, .cls-6 {
        fill: none;
      }

      .cls-7 {
        fill: #8e8f90;
      }

      .cls-8 {
        fill: #bdbfbe;
      }

      .cls-9 {
        fill: #f99d25;
      }

      .cls-10 {
        fill: #e2e3e4;
      }

      .cls-11 {
        fill: #777677;
      }

      .cls-6 {
        stroke: #777677;
        stroke-miterlimit: 10;
        stroke-width: .75px;
      }
    </style>
  </defs>
  <g id="Layer_2-2" data-name="Layer 2">
    <g>
      <polygon class="cls-2" points="0 64.41 54.14 41.41 106.84 64.41 106.84 253.12 0 253.12 0 64.41"/>
      <polygon class="cls-7" points="106.84 61.18 106.84 50.7 54.14 27.76 0 50.7 0 61.18 54.14 38.25 106.84 61.18"/>
      <polygon class="cls-8" points="106.84 47.74 106.84 37.25 54.14 14.32 0 37.25 0 47.74 54.14 24.81 106.84 47.74"/>
      <polygon class="cls-10" points="106.84 33.42 106.84 22.93 54.14 0 0 22.93 0 33.42 54.14 10.49 106.84 33.42"/>
    </g>
    <g>
      <g>
        <path class="cls-11" d="M21.8,85.34v-1.28h3.33v1.54c0,1.6,.7,2.18,1.83,2.18s1.83-.58,1.83-2.24c0-1.86-.7-3.04-3.01-5.06-2.95-2.59-3.91-4.42-3.91-6.98,0-3.52,1.83-5.57,5.25-5.57s5.12,2.05,5.12,5.64v.93h-3.33v-1.15c0-1.6-.64-2.21-1.76-2.21s-1.76,.61-1.76,2.15c0,1.63,.74,2.82,3.04,4.84,2.95,2.59,3.88,4.39,3.88,7.17,0,3.65-1.86,5.7-5.32,5.7s-5.19-2.05-5.19-5.64Z"/>
        <path class="cls-11" d="M35.28,68.24h3.52v19.22h5.8v3.2h-9.32v-22.42Z"/>
        <path class="cls-11" d="M47.13,85.34v-17.1h3.52v17.36c0,1.6,.67,2.18,1.79,2.18s1.79-.58,1.79-2.18v-17.36h3.39v17.1c0,3.59-1.79,5.64-5.25,5.64s-5.25-2.05-5.25-5.64Z"/>
        <path class="cls-11" d="M61.09,68.24h5.03l2.24,16.05h.06l2.24-16.05h5.03v22.42h-3.33v-16.98h-.06l-2.56,16.98h-2.95l-2.56-16.98h-.06v16.98h-3.07v-22.42Z"/>
        <path class="cls-11" d="M78.67,85.34v-1.28h3.33v1.54c0,1.6,.7,2.18,1.83,2.18s1.83-.58,1.83-2.24c0-1.86-.7-3.04-3.01-5.06-2.95-2.59-3.91-4.42-3.91-6.98,0-3.52,1.83-5.57,5.25-5.57s5.12,2.05,5.12,5.64v.93h-3.33v-1.15c0-1.6-.64-2.21-1.76-2.21s-1.76,.61-1.76,2.15c0,1.63,.74,2.82,3.04,4.84,2.95,2.59,3.88,4.39,3.88,7.17,0,3.65-1.86,5.7-5.32,5.7s-5.19-2.05-5.19-5.64Z"/>
      </g>
      <g>
        <path class="cls-11" d="M22.62,113.72v-7.36c0-2.24,1.18-3.52,3.34-3.52s3.34,1.28,3.34,3.52v7.36c0,2.24-1.18,3.52-3.34,3.52s-3.34-1.28-3.34-3.52Zm4.48,.14v-7.64c0-1-.44-1.38-1.14-1.38s-1.14,.38-1.14,1.38v7.64c0,1,.44,1.38,1.14,1.38s1.14-.38,1.14-1.38Z"/>
        <path class="cls-11" d="M35.42,103.03h2.76l2.14,8.38h.04v-8.38h1.96v14h-2.26l-2.64-10.22h-.04v10.22h-1.96v-14Z"/>
        <path class="cls-11" d="M58.16,105.03h-2.3v-2h6.8v2h-2.3v12h-2.2v-12Z"/>
        <path class="cls-11" d="M68.36,103.03h2.2v5.7h2.36v-5.7h2.2v14h-2.2v-6.3h-2.36v6.3h-2.2v-14Z"/>
        <path class="cls-11" d="M81.4,103.03h6v2h-3.8v3.7h3.02v2h-3.02v4.3h3.8v2h-6v-14Z"/>
      </g>
      <g>
        <path class="cls-11" d="M21.6,127.49h8c5.6,0,8,2.6,8,7.9v2.11c0,3.53-1.13,5.79-3.53,6.77v.1c2.7,.83,3.58,3.39,3.58,7.26v6.04c0,1.67,.05,2.9,.59,4.17h-5.5c-.29-.88-.49-1.42-.49-4.22v-6.28c0-3.19-.93-4.22-3.39-4.22h-1.87v14.73h-5.4v-34.36Zm7.36,14.73c2.01,0,3.24-.88,3.24-3.63v-2.65c0-2.45-.83-3.53-2.75-3.53h-2.45v9.82h1.96Z"/>
        <path class="cls-11" d="M42.85,127.49h5.4v34.36h-5.4v-34.36Z"/>
        <path class="cls-11" d="M52.81,153.7v-1.96h5.11v2.36c0,2.45,1.08,3.34,2.8,3.34s2.8-.88,2.8-3.44c0-2.85-1.08-4.66-4.61-7.76-4.52-3.98-5.99-6.77-5.99-10.7,0-5.4,2.8-8.54,8.05-8.54s7.85,3.14,7.85,8.64v1.42h-5.11v-1.77c0-2.45-.98-3.39-2.7-3.39s-2.7,.93-2.7,3.29c0,2.5,1.13,4.32,4.66,7.41,4.52,3.98,5.94,6.73,5.94,11,0,5.6-2.85,8.74-8.15,8.74s-7.95-3.14-7.95-8.64Z"/>
        <path class="cls-11" d="M73.48,127.49h14.73v4.91h-9.33v9.08h7.41v4.91h-7.41v10.55h9.33v4.91h-14.73v-34.36Z"/>
      </g>
    </g>
    <line class="cls-6" x1="22.67" y1="99.41" x2="87.56" y2="99.41"/>
    <line class="cls-6" x1="22.67" y1="120.24" x2="87.56" y2="120.24"/>
    <polygon class="cls-2" points="232.19 225.43 224.17 225.43 224.17 229.03 220.31 229.03 220.31 219.67 198.74 219.67 198.74 204.97 119.45 204.97 119.45 219.67 109.65 219.67 109.65 236.82 113.86 236.82 113.86 240.24 117.79 240.24 117.79 244.02 226.95 244.02 226.95 240.24 230.87 240.24 230.87 236.82 235.96 236.82 235.96 229.03 232.19 229.03 232.19 225.43"/>
    <path class="cls-9" d="M301.22,247.19v-43.7h3.83v-2.57h-10.62v-9.5h-4.26v-4.54h-3.17v4.61h-4.88v9.5h-21.76v-4.75h-10.45v4.75l-15.71-.06v3.96h6.13v35.1h-5.1v3.42h-3.91v3.78H116.11v-3.78h-3.93v-3.42h-5.43v-53.92h6.33v-3.97h-4.67v-13.28h-4.2v11.08h-36.42v-3.59h-6.82v3.59h-4.45v-5.46h-9.4v5.46h-3.71v2.2h-3.17v2.55h5.42v62.55H0v4.91H316.51v-4.91h-15.29Zm-235.63-40.6h-11.83v-17.01h11.83v17.01Zm30.69,3.72h-11.88v-13.93h11.88v13.93Zm162.99,13.29h-9.96v-9.72h9.96v9.72Zm36.15,0h-11.81v-12.98h11.81v12.98Z"/>
    <g>
      <g>
        <circle class="cls-9" cx="138.17" cy="228.71" r="2.16"/>
        <polygon class="cls-9" points="139.71 233.83 139.74 233.9 139.74 233.83 139.71 233.83"/>
        <path class="cls-9" d="M143.67,237.27l-1.52-4.16h0c-.27-.91-1.13-1.52-2.08-1.48h-3.95c-.91-.04-1.73,.57-1.96,1.46h0l-1.54,4.16c-.13,.38,.06,.79,.44,.94h0c.38,.14,.8-.05,.93-.43,0,0,0,0,0,0h0l1.42-3.89h.44v12.76c0,.57,.47,1.04,1.04,1.04s1.04-.47,1.04-1.04v-7.26h.46v7.24c0,.57,.47,1.04,1.04,1.04s1.04-.47,1.04-1.04v-12.76h.44l1.42,3.85h0c.14,.38,.55,.57,.93,.44,0,0,0,0,0,0h0c.32-.15,.5-.51,.42-.85Z"/>
        <path class="cls-9" d="M153.89,227.42h0c.03-.13,.03-.27,0-.4,0-.67-.73-1.19-1.64-1.19-.63-.05-1.23,.28-1.54,.83-.2-.08-.42-.13-.65-.12-1.2,0-2.17,.97-2.17,2.17s.97,2.17,2.17,2.17,2.08-.93,2.08-2.08h0c.44,1.1,1.71,1.35,1.64,1.21-.79-.56,.1-2.6,.1-2.6Z"/>
        <polygon class="cls-9" points="150.79 233.83 150.81 233.9 150.81 233.83 150.79 233.83"/>
        <polygon class="cls-9" points="150.74 233.83 150.79 233.9 150.79 233.83 150.74 233.83"/>
        <path class="cls-9" d="M155.63,237.27l-1.52-4.16h0c-.27-.91-1.13-1.52-2.08-1.48h-3.95c-.86,0-1.62,.55-1.87,1.37h0l-1.52,4.16c-.14,.38,.05,.8,.43,.93,0,0,0,0,0,0h0c.38,.14,.8-.05,.93-.43,0,0,0,0,0,0h0l1.42-3.89h.46l-2.23,7.87h2.23v4.87c0,.57,.47,1.04,1.04,1.04s1.04-.47,1.04-1.04v-4.79h.35v4.87c0,.57,.47,1.04,1.04,1.04s1.04-.47,1.04-1.04v-4.85h2.08l-2.08-7.91h.42l1.39,3.85h0c.14,.38,.55,.57,.93,.44,0,0,0,0,0,0h0c.34-.13,.53-.5,.44-.85Z"/>
        <path class="cls-9" d="M122.07,245.88c0,.88,.72,1.6,1.6,1.6,.88,0,1.6-.72,1.6-1.6h0v-12.88h.71v12.82c0,.88,.72,1.6,1.6,1.6,.88,0,1.6-.72,1.6-1.6h0v-22.54h.69v8.57c-.12,.62,.29,1.22,.91,1.34,.62,.12,1.22-.29,1.34-.91,.03-.14,.03-.29,0-.43v-8.76c.18-1.89-1.2-3.57-3.08-3.75-.08,0-.16-.01-.25-.02h-6.39c-1.87,.07-3.33,1.65-3.26,3.52,0,.07,0,.14,.01,.21v8.8c-.12,.62,.29,1.22,.91,1.34,.62,.12,1.22-.29,1.34-.91,.03-.14,.03-.29,0-.43v-8.57h.71l-.04,22.6Z"/>
        <ellipse class="cls-9" cx="125.61" cy="215.73" rx="2.87" ry="2.89"/>
        <path class="cls-9" d="M173.26,231.02s-2.31-8.1-2.58-9.01c-.27-.73-.72-1.37-1.31-1.87-.56-.54-1.3-.84-2.08-.83h-4.66c-.78-.01-1.53,.29-2.08,.83-.61,.47-1.06,1.13-1.27,1.87-.33,.92-2.58,8.68-2.58,8.68-.02,.12-.02,.25,0,.37-.07,.53,.23,1.05,.73,1.25,.69,.12,1.36-.29,1.56-.96,.13-.54,.3-1.08,.5-1.6,.25-.89,.52-1.79,.79-2.77,.27-.98,.67-2.08,1.1-3.68h.69l-3.91,13.36h3.29v9.22c0,.88,.72,1.6,1.6,1.6s1.6-.72,1.6-1.6v-9.22h.73v9.22c0,.88,.72,1.6,1.6,1.6s1.6-.72,1.6-1.6v-9.22h3.31l-3.93-13.36h.69c.44,1.52,.79,2.73,1.1,3.68,.31,.96,.58,1.87,.85,2.77,.27,.89,.46,1.64,.46,1.66,.12,.51,.57,.88,1.1,.89h0c.61,.02,1.12-.46,1.14-1.07,0-.08,0-.15-.02-.22h-.02Z"/>
        <path class="cls-9" d="M167.87,215.87h0v-.1c0-1.62-1.31-2.93-2.93-2.93h0c-1.62,0-2.93,1.31-2.93,2.93h0v.1c.04,.8-.21,1.6-.71,2.23h1.85c.51,.4,1.14,.62,1.79,.62h0c.65,0,1.28-.22,1.79-.62h1.85c-.5-.63-.75-1.42-.71-2.23Z"/>
      </g>
      <g>
        <circle class="cls-9" cx="194.82" cy="228.71" r="2.16"/>
        <polygon class="cls-9" points="196.36 233.83 196.38 233.9 196.38 233.83 196.36 233.83"/>
        <path class="cls-9" d="M200.31,237.27l-1.52-4.16h0c-.27-.91-1.13-1.52-2.08-1.48h-3.95c-.91-.04-1.73,.57-1.96,1.46h0l-1.54,4.16c-.13,.38,.06,.79,.44,.94h0c.38,.14,.8-.05,.93-.43,0,0,0,0,0,0h0l1.42-3.89h.44v12.76c0,.57,.47,1.04,1.04,1.04s1.04-.47,1.04-1.04v-7.26h.46v7.24c0,.57,.47,1.04,1.04,1.04s1.04-.47,1.04-1.04v-12.76h.44l1.42,3.85h0c.14,.38,.55,.57,.93,.44,0,0,0,0,0,0h0c.32-.15,.5-.51,.42-.85Z"/>
        <path class="cls-9" d="M210.53,227.42h0c.03-.13,.03-.27,0-.4,0-.67-.73-1.19-1.64-1.19-.63-.05-1.23,.28-1.54,.83-.2-.08-.42-.13-.65-.12-1.2,0-2.17,.97-2.17,2.17s.97,2.17,2.17,2.17,2.08-.93,2.08-2.08h0c.44,1.1,1.71,1.35,1.64,1.21-.79-.56,.1-2.6,.1-2.6Z"/>
        <polygon class="cls-9" points="207.43 233.83 207.45 233.9 207.45 233.83 207.43 233.83"/>
        <polygon class="cls-9" points="207.39 233.83 207.43 233.9 207.43 233.83 207.39 233.83"/>
        <path class="cls-9" d="M212.28,237.27l-1.52-4.16h0c-.27-.91-1.13-1.52-2.08-1.48h-3.95c-.86,0-1.62,.55-1.87,1.37h0l-1.52,4.16c-.14,.38,.05,.8,.43,.93,0,0,0,0,0,0h0c.38,.14,.8-.05,.93-.43,0,0,0,0,0,0h0l1.42-3.89h.46l-2.23,7.87h2.23v4.87c0,.57,.47,1.04,1.04,1.04s1.04-.47,1.04-1.04v-4.79h.35v4.87c0,.57,.47,1.04,1.04,1.04s1.04-.47,1.04-1.04v-4.85h2.08l-2.08-7.91h.42l1.39,3.85h0c.14,.38,.55,.57,.93,.44,0,0,0,0,0,0h0c.34-.13,.53-.5,.44-.85Z"/>
        <path class="cls-9" d="M178.71,245.88c0,.88,.72,1.6,1.6,1.6,.88,0,1.6-.72,1.6-1.6h0v-12.88h.71v12.82c0,.88,.72,1.6,1.6,1.6,.88,0,1.6-.72,1.6-1.6h0v-22.54h.69v8.57c-.12,.62,.29,1.22,.91,1.34,.62,.12,1.22-.29,1.34-.91,.03-.14,.03-.29,0-.43v-8.76c.18-1.89-1.2-3.57-3.08-3.75-.08,0-.16-.01-.25-.02h-6.39c-1.87,.07-3.33,1.65-3.26,3.52,0,.07,0,.14,.01,.21v8.8c-.12,.62,.29,1.22,.91,1.34,.62,.12,1.22-.29,1.34-.91,.03-.14,.03-.29,0-.43v-8.57h.71l-.04,22.6Z"/>
        <ellipse class="cls-9" cx="182.25" cy="215.73" rx="2.87" ry="2.89"/>
        <path class="cls-9" d="M229.91,231.02s-2.31-8.1-2.58-9.01c-.27-.73-.72-1.37-1.31-1.87-.56-.54-1.3-.84-2.08-.83h-4.66c-.78-.01-1.53,.29-2.08,.83-.61,.47-1.06,1.13-1.27,1.87-.33,.92-2.58,8.68-2.58,8.68-.02,.12-.02,.25,0,.37-.07,.53,.23,1.05,.73,1.25,.69,.12,1.36-.29,1.56-.96,.13-.54,.3-1.08,.5-1.6,.25-.89,.52-1.79,.79-2.77,.27-.98,.67-2.08,1.1-3.68h.69l-3.91,13.36h3.29v9.22c0,.88,.72,1.6,1.6,1.6s1.6-.72,1.6-1.6v-9.22h.73v9.22c0,.88,.72,1.6,1.6,1.6s1.6-.72,1.6-1.6v-9.22h3.31l-3.93-13.36h.69c.44,1.52,.79,2.73,1.1,3.68,.31,.96,.58,1.87,.85,2.77,.27,.89,.46,1.64,.46,1.66,.12,.51,.57,.88,1.1,.89h0c.61,.02,1.12-.46,1.14-1.07,0-.08,0-.15-.02-.22h-.02Z"/>
        <path class="cls-9" d="M224.52,215.87h0v-.1c0-1.62-1.31-2.93-2.93-2.93h0c-1.62,0-2.93,1.31-2.93,2.93h0v.1c.04,.8-.21,1.6-.71,2.23h1.85c.51,.4,1.14,.62,1.79,.62h0c.65,0,1.28-.22,1.79-.62h1.85c-.5-.63-.75-1.42-.71-2.23Z"/>
      </g>
    </g>
    <rect class="cls-9" x="126.31" y="142.36" width="89.14" height="18.69"/>
    <g>
      <path class="cls-1" d="M129.81,156.34c0-1.62,.45-2.61,1.79-4.01,1.36-1.44,1.75-2.31,1.75-3.36s-.36-1.3-.93-1.3-.93,.31-.93,1.12v1.22h-1.69v-1.1c0-1.82,.91-2.86,2.66-2.86s2.66,1.04,2.66,2.86c0,1.35-.55,2.55-2.21,4.3-1.07,1.14-1.35,1.7-1.35,2.5v.24h3.39v1.62h-5.16v-1.23Z"/>
      <path class="cls-1" d="M139.91,146.21h2.69c1.85,0,2.65,.86,2.65,2.61v.45c0,1.17-.36,1.9-1.15,2.22v.03c.96,.32,1.33,1.17,1.33,2.37v.97c0,1.75-.93,2.7-2.71,2.7h-2.81v-11.36Zm2.48,4.63c.67,0,1.07-.29,1.07-1.2v-.63c0-.81-.28-1.17-.91-1.17h-.86v3h.7Zm.32,5.11c.6,0,.93-.28,.93-1.12v-.99c0-1.06-.34-1.38-1.15-1.38h-.8v3.49h1.02Z"/>
      <path class="cls-1" d="M146.96,146.21h1.79v11.36h-1.79v-11.36Z"/>
      <path class="cls-1" d="M150.56,146.21h1.79v9.74h2.94v1.62h-4.72v-11.36Z"/>
      <path class="cls-1" d="M156.63,146.21h1.79v9.74h2.94v1.62h-4.72v-11.36Z"/>
      <path class="cls-1" d="M162.7,146.21h1.79v11.36h-1.79v-11.36Z"/>
      <path class="cls-1" d="M166.18,154.88v-5.97c0-1.82,.96-2.86,2.71-2.86s2.71,1.04,2.71,2.86v5.97c0,1.82-.96,2.86-2.71,2.86s-2.71-1.04-2.71-2.86Zm3.64,.11v-6.2c0-.81-.36-1.12-.93-1.12s-.93,.31-.93,1.12v6.2c0,.81,.36,1.12,.93,1.12s.93-.31,.93-1.12Z"/>
      <path class="cls-1" d="M173.29,146.21h2.24l1.74,6.8h.03v-6.8h1.59v11.36h-1.83l-2.14-8.3h-.03v8.3h-1.59v-11.36Z"/>
      <path class="cls-1" d="M183.79,146.21h2.55l1.14,8.13h.03l1.14-8.13h2.55v11.36h-1.69v-8.6h-.03l-1.3,8.6h-1.49l-1.3-8.6h-.03v8.6h-1.56v-11.36Z"/>
      <path class="cls-1" d="M192.88,154.88v-5.97c0-1.82,.96-2.86,2.71-2.86s2.71,1.04,2.71,2.86v5.97c0,1.82-.96,2.86-2.71,2.86s-2.71-1.04-2.71-2.86Zm3.64,.11v-6.2c0-.81-.36-1.12-.93-1.12s-.93,.31-.93,1.12v6.2c0,.81,.36,1.12,.93,1.12s.93-.31,.93-1.12Z"/>
      <path class="cls-1" d="M199.99,146.21h2.65c1.85,0,2.65,.86,2.65,2.61v.7c0,1.17-.37,1.92-1.17,2.24v.03c.89,.28,1.19,1.12,1.19,2.4v2c0,.55,.02,.96,.19,1.38h-1.82c-.1-.29-.16-.47-.16-1.4v-2.08c0-1.06-.31-1.4-1.12-1.4h-.62v4.87h-1.79v-11.36Zm2.44,4.87c.67,0,1.07-.29,1.07-1.2v-.88c0-.81-.28-1.17-.91-1.17h-.81v3.25h.65Z"/>
      <path class="cls-1" d="M207.02,146.21h4.87v1.62h-3.08v3h2.45v1.62h-2.45v3.49h3.08v1.62h-4.87v-11.36Z"/>
      <path class="cls-3" d="M220.3,146.21h2.42l1.85,11.36h-1.79l-.32-2.26v.03h-2.03l-.32,2.22h-1.66l1.85-11.36Zm1.95,7.6l-.8-5.62h-.03l-.78,5.62h1.61Z"/>
      <path class="cls-3" d="M225.92,146.21h2.65c1.85,0,2.65,.86,2.65,2.61v.7c0,1.17-.37,1.92-1.17,2.24v.03c.89,.28,1.19,1.12,1.19,2.4v2c0,.55,.02,.96,.19,1.38h-1.82c-.1-.29-.16-.47-.16-1.4v-2.08c0-1.06-.31-1.4-1.12-1.4h-.62v4.87h-1.79v-11.36Zm2.44,4.87c.67,0,1.07-.29,1.07-1.2v-.88c0-.81-.28-1.17-.91-1.17h-.81v3.25h.65Z"/>
      <path class="cls-3" d="M232.95,146.21h4.87v1.62h-3.08v3h2.45v1.62h-2.45v3.49h3.08v1.62h-4.87v-11.36Z"/>
      <path class="cls-3" d="M242.41,146.21h4.87v1.62h-3.08v3h2.45v1.62h-2.45v3.49h3.08v1.62h-4.87v-11.36Z"/>
      <path class="cls-3" d="M250.4,151.76l-1.96-5.55h1.88l1.2,3.67h.03l1.23-3.67h1.69l-1.96,5.55,2.06,5.81h-1.88l-1.3-3.96h-.03l-1.33,3.96h-1.69l2.06-5.81Z"/>
      <path class="cls-3" d="M255.9,146.21h2.63c1.79,0,2.66,.99,2.66,2.81v1.12c0,1.82-.88,2.81-2.66,2.81h-.84v4.63h-1.79v-11.36Zm2.63,5.11c.57,0,.88-.26,.88-1.07v-1.35c0-.81-.31-1.07-.88-1.07h-.84v3.49h.84Z"/>
      <path class="cls-3" d="M262.66,146.21h4.87v1.62h-3.08v3h2.45v1.62h-2.45v3.49h3.08v1.62h-4.87v-11.36Z"/>
      <path class="cls-3" d="M268.92,154.94v-6.1c0-1.75,.91-2.79,2.63-2.79s2.63,1.04,2.63,2.79v1.2h-1.69v-1.31c0-.75-.36-1.06-.89-1.06s-.89,.31-.89,1.06v6.35c0,.75,.36,1.04,.89,1.04s.89-.29,.89-1.04v-1.74h1.69v1.61c0,1.75-.91,2.79-2.63,2.79s-2.63-1.04-2.63-2.79Z"/>
      <path class="cls-3" d="M277.14,147.83h-1.87v-1.62h5.52v1.62h-1.87v9.74h-1.79v-9.74Z"/>
      <path class="cls-3" d="M282.14,146.21h4.87v1.62h-3.08v3h2.45v1.62h-2.45v3.49h3.08v1.62h-4.87v-11.36Z"/>
      <path class="cls-3" d="M288.52,146.21h2.73c1.79,0,2.66,.99,2.66,2.81v5.75c0,1.82-.88,2.81-2.66,2.81h-2.73v-11.36Zm2.7,9.74c.57,0,.91-.29,.91-1.1v-5.91c0-.81-.34-1.1-.91-1.1h-.91v8.12h.91Z"/>
      <path class="cls-3" d="M126.6,165.15h1.79v11.36h-1.79v-11.36Z"/>
      <path class="cls-3" d="M130.2,165.15h2.24l1.74,6.8h.03v-6.8h1.59v11.36h-1.83l-2.14-8.3h-.03v8.3h-1.59v-11.36Z"/>
      <path class="cls-3" d="M142.1,166.77h-1.87v-1.62h5.52v1.62h-1.87v9.74h-1.79v-9.74Z"/>
      <path class="cls-3" d="M147.1,165.15h1.79v4.63h1.92v-4.63h1.79v11.36h-1.79v-5.11h-1.92v5.11h-1.79v-11.36Z"/>
      <path class="cls-3" d="M154.41,165.15h4.87v1.62h-3.08v3h2.45v1.62h-2.45v3.49h3.08v1.62h-4.87v-11.36Z"/>
      <path class="cls-3" d="M163.87,165.15h2.24l1.74,6.8h.03v-6.8h1.59v11.36h-1.83l-2.14-8.3h-.03v8.3h-1.59v-11.36Z"/>
      <path class="cls-3" d="M171.29,165.15h4.87v1.62h-3.08v3h2.45v1.62h-2.45v3.49h3.08v1.62h-4.87v-11.36Z"/>
      <path class="cls-3" d="M179.28,170.7l-1.96-5.55h1.88l1.2,3.67h.03l1.23-3.67h1.69l-1.96,5.55,2.06,5.81h-1.88l-1.3-3.96h-.03l-1.33,3.96h-1.69l2.06-5.81Z"/>
      <path class="cls-3" d="M186.18,166.77h-1.87v-1.62h5.52v1.62h-1.87v9.74h-1.79v-9.74Z"/>
      <path class="cls-3" d="M194.13,173.85v-.93h1.69v1.01c0,.81,.36,1.12,.93,1.12s.93-.28,.93-1.28v-.93c0-1.06-.36-1.45-1.17-1.45h-.6v-1.62h.65c.67,0,1.07-.29,1.07-1.2v-.83c0-.81-.37-1.14-.89-1.14s-.86,.31-.86,1.06v.75h-1.69v-.6c0-1.82,.91-2.83,2.61-2.83s2.61,.99,2.61,2.81v.41c0,1.22-.39,1.96-1.27,2.29v.03c.96,.36,1.32,1.19,1.32,2.34v1.01c0,1.82-.91,2.81-2.66,2.81s-2.66-1.01-2.66-2.82Z"/>
      <path class="cls-3" d="M201.11,173.82v-5.97c0-1.82,.96-2.86,2.71-2.86s2.71,1.04,2.71,2.86v5.97c0,1.82-.96,2.86-2.71,2.86s-2.71-1.04-2.71-2.86Zm3.64,.11v-6.2c0-.81-.36-1.12-.93-1.12s-.93,.31-.93,1.12v6.2c0,.81,.36,1.12,.93,1.12s.93-.31,.93-1.12Z"/>
      <path class="cls-3" d="M212.95,171.67l-2.16-6.53h1.9l1.22,4.17h.03l1.22-4.17h1.74l-2.16,6.53v4.84h-1.79v-4.84Z"/>
      <path class="cls-3" d="M218.19,165.15h4.87v1.62h-3.08v3h2.45v1.62h-2.45v3.49h3.08v1.62h-4.87v-11.36Z"/>
      <path class="cls-3" d="M225.95,165.15h2.42l1.85,11.36h-1.79l-.32-2.26v.03h-2.03l-.32,2.22h-1.66l1.85-11.36Zm1.95,7.6l-.8-5.62h-.03l-.78,5.62h1.61Z"/>
      <path class="cls-3" d="M231.57,165.15h2.65c1.85,0,2.65,.86,2.65,2.61v.7c0,1.17-.37,1.92-1.17,2.24v.03c.89,.28,1.19,1.12,1.19,2.4v2c0,.55,.02,.96,.19,1.38h-1.82c-.1-.29-.16-.47-.16-1.4v-2.08c0-1.06-.31-1.4-1.12-1.4h-.62v4.87h-1.79v-11.36Zm2.44,4.87c.67,0,1.07-.29,1.07-1.2v-.88c0-.81-.28-1.17-.91-1.17h-.81v3.25h.65Z"/>
      <path class="cls-3" d="M238.29,173.82v-.65h1.69v.78c0,.81,.36,1.1,.93,1.1s.93-.29,.93-1.14c0-.94-.36-1.54-1.53-2.57-1.49-1.31-1.98-2.24-1.98-3.54,0-1.79,.93-2.83,2.66-2.83s2.6,1.04,2.6,2.86v.47h-1.69v-.58c0-.81-.32-1.12-.89-1.12s-.89,.31-.89,1.09c0,.83,.37,1.43,1.54,2.45,1.49,1.31,1.96,2.22,1.96,3.64,0,1.85-.94,2.89-2.7,2.89s-2.63-1.04-2.63-2.86Z"/>
    </g>
    <g>
      <path class="cls-9" d="M129.23,71.5h-2.3v-1.56c1.86,0,2.52-.4,3.02-1.76h1.48v14h-2.2v-10.68Z"/>
      <path class="cls-9" d="M134.44,80.06h2.12v2.12h-2.12v-2.12Z"/>
      <path class="cls-9" d="M140.55,71.5h-2.3v-1.56c1.86,0,2.52-.4,3.02-1.76h1.48v14h-2.2v-10.68Z"/>
      <path class="cls-9" d="M150.67,68.18h3.32c2.28,0,3.26,1.06,3.26,3.22v.56c0,1.44-.44,2.34-1.42,2.74v.04c1.18,.4,1.64,1.44,1.64,2.92v1.2c0,2.16-1.14,3.32-3.34,3.32h-3.46v-14Zm3.06,5.7c.82,0,1.32-.36,1.32-1.48v-.78c0-1-.34-1.44-1.12-1.44h-1.06v3.7h.86Zm.4,6.3c.74,0,1.14-.34,1.14-1.38v-1.22c0-1.3-.42-1.7-1.42-1.7h-.98v4.3h1.26Z"/>
      <path class="cls-9" d="M159.72,68.18h2.2v14h-2.2v-14Z"/>
      <path class="cls-9" d="M164.4,68.18h2.2v12h3.62v2h-5.82v-14Z"/>
      <path class="cls-9" d="M172.36,68.18h2.2v12h3.62v2h-5.82v-14Z"/>
      <path class="cls-9" d="M180.33,68.18h2.2v14h-2.2v-14Z"/>
      <path class="cls-9" d="M184.91,78.86v-7.36c0-2.24,1.18-3.52,3.34-3.52s3.34,1.28,3.34,3.52v7.36c0,2.24-1.18,3.52-3.34,3.52s-3.34-1.28-3.34-3.52Zm4.48,.14v-7.64c0-1-.44-1.38-1.14-1.38s-1.14,.38-1.14,1.38v7.64c0,1,.44,1.38,1.14,1.38s1.14-.38,1.14-1.38Z"/>
      <path class="cls-9" d="M193.98,68.18h2.76l2.14,8.38h.04v-8.38h1.96v14h-2.26l-2.64-10.22h-.04v10.22h-1.96v-14Z"/>
      <path class="cls-3" d="M207.64,78.86v-10.68h2.2v10.84c0,1,.42,1.36,1.12,1.36s1.12-.36,1.12-1.36v-10.84h2.12v10.68c0,2.24-1.12,3.52-3.28,3.52s-3.28-1.28-3.28-3.52Z"/>
      <path class="cls-3" d="M216.65,68.18h3.26c2.28,0,3.26,1.06,3.26,3.22v.86c0,1.44-.46,2.36-1.44,2.76v.04c1.1,.34,1.46,1.38,1.46,2.96v2.46c0,.68,.02,1.18,.24,1.7h-2.24c-.12-.36-.2-.58-.2-1.72v-2.56c0-1.3-.38-1.72-1.38-1.72h-.76v6h-2.2v-14Zm3,6c.82,0,1.32-.36,1.32-1.48v-1.08c0-1-.34-1.44-1.12-1.44h-1v4h.8Z"/>
      <path class="cls-3" d="M225.68,68.18h3.32c2.28,0,3.26,1.06,3.26,3.22v.56c0,1.44-.44,2.34-1.42,2.74v.04c1.18,.4,1.64,1.44,1.64,2.92v1.2c0,2.16-1.14,3.32-3.34,3.32h-3.46v-14Zm3.06,5.7c.82,0,1.32-.36,1.32-1.48v-.78c0-1-.34-1.44-1.12-1.44h-1.06v3.7h.86Zm.4,6.3c.74,0,1.14-.34,1.14-1.38v-1.22c0-1.3-.42-1.7-1.42-1.7h-.98v4.3h1.26Z"/>
      <path class="cls-3" d="M236.54,68.18h2.98l2.28,14h-2.2l-.4-2.78v.04h-2.5l-.4,2.74h-2.04l2.28-14Zm2.4,9.36l-.98-6.92h-.04l-.96,6.92h1.98Z"/>
      <path class="cls-3" d="M243.94,68.18h2.76l2.14,8.38h.04v-8.38h1.96v14h-2.26l-2.64-10.22h-.04v10.22h-1.96v-14Z"/>
      <path class="cls-3" d="M126.95,89.18h3.26c2.28,0,3.26,1.06,3.26,3.22v.86c0,1.44-.46,2.36-1.44,2.76v.04c1.1,.34,1.46,1.38,1.46,2.96v2.46c0,.68,.02,1.18,.24,1.7h-2.24c-.12-.36-.2-.58-.2-1.72v-2.56c0-1.3-.38-1.72-1.38-1.72h-.76v6h-2.2v-14Zm3,6c.82,0,1.32-.36,1.32-1.48v-1.08c0-1-.34-1.44-1.12-1.44h-1v4h.8Z"/>
      <path class="cls-3" d="M135.98,89.18h6v2h-3.8v3.7h3.02v2h-3.02v4.3h3.8v2h-6v-14Z"/>
      <path class="cls-3" d="M144.01,99.86v-.8h2.08v.96c0,1,.44,1.36,1.14,1.36s1.14-.36,1.14-1.4c0-1.16-.44-1.9-1.88-3.16-1.84-1.62-2.44-2.76-2.44-4.36,0-2.2,1.14-3.48,3.28-3.48s3.2,1.28,3.2,3.52v.58h-2.08v-.72c0-1-.4-1.38-1.1-1.38s-1.1,.38-1.1,1.34c0,1.02,.46,1.76,1.9,3.02,1.84,1.62,2.42,2.74,2.42,4.48,0,2.28-1.16,3.56-3.32,3.56s-3.24-1.28-3.24-3.52Z"/>
      <path class="cls-3" d="M152.81,89.18h2.2v14h-2.2v-14Z"/>
      <path class="cls-3" d="M157.49,89.18h3.36c2.2,0,3.28,1.22,3.28,3.46v7.08c0,2.24-1.08,3.46-3.28,3.46h-3.36v-14Zm3.32,12c.7,0,1.12-.36,1.12-1.36v-7.28c0-1-.42-1.36-1.12-1.36h-1.12v10h1.12Z"/>
      <path class="cls-3" d="M166.51,89.18h6v2h-3.8v3.7h3.02v2h-3.02v4.3h3.8v2h-6v-14Z"/>
      <path class="cls-3" d="M174.75,89.18h2.76l2.14,8.38h.04v-8.38h1.96v14h-2.26l-2.64-10.22h-.04v10.22h-1.96v-14Z"/>
      <path class="cls-3" d="M186.1,91.18h-2.3v-2h6.8v2h-2.3v12h-2.2v-12Z"/>
      <path class="cls-3" d="M192.49,99.86v-.8h2.08v.96c0,1,.44,1.36,1.14,1.36s1.14-.36,1.14-1.4c0-1.16-.44-1.9-1.88-3.16-1.84-1.62-2.44-2.76-2.44-4.36,0-2.2,1.14-3.48,3.28-3.48s3.2,1.28,3.2,3.52v.58h-2.08v-.72c0-1-.4-1.38-1.1-1.38s-1.1,.38-1.1,1.34c0,1.02,.46,1.76,1.9,3.02,1.84,1.62,2.42,2.74,2.42,4.48,0,2.28-1.16,3.56-3.32,3.56s-3.24-1.28-3.24-3.52Z"/>
      <path class="cls-3" d="M207.21,89.18h2.98l2.28,14h-2.2l-.4-2.78v.04h-2.5l-.4,2.74h-2.04l2.28-14Zm2.4,9.36l-.98-6.92h-.04l-.96,6.92h1.98Z"/>
      <path class="cls-3" d="M214.62,89.18h3.26c2.28,0,3.26,1.06,3.26,3.22v.86c0,1.44-.46,2.36-1.44,2.76v.04c1.1,.34,1.46,1.38,1.46,2.96v2.46c0,.68,.02,1.18,.24,1.7h-2.24c-.12-.36-.2-.58-.2-1.72v-2.56c0-1.3-.38-1.72-1.38-1.72h-.76v6h-2.2v-14Zm3,6c.82,0,1.32-.36,1.32-1.48v-1.08c0-1-.34-1.44-1.12-1.44h-1v4h.8Z"/>
      <path class="cls-3" d="M223.65,89.18h6v2h-3.8v3.7h3.02v2h-3.02v4.3h3.8v2h-6v-14Z"/>
      <path class="cls-3" d="M126.95,110.18h2.2v12h3.62v2h-5.82v-14Z"/>
      <path class="cls-3" d="M134.91,110.18h2.2v14h-2.2v-14Z"/>
      <path class="cls-3" d="M139.25,110.18h2.22l1.44,10.86h.04l1.44-10.86h2.02l-2.12,14h-2.92l-2.12-14Z"/>
      <path class="cls-3" d="M148.55,110.18h2.2v14h-2.2v-14Z"/>
      <path class="cls-3" d="M153.23,110.18h2.76l2.14,8.38h.04v-8.38h1.96v14h-2.26l-2.64-10.22h-.04v10.22h-1.96v-14Z"/>
      <path class="cls-3" d="M162.52,120.86v-7.36c0-2.24,1.12-3.52,3.28-3.52s3.28,1.28,3.28,3.52v1.2h-2.08v-1.34c0-1-.44-1.38-1.14-1.38s-1.14,.38-1.14,1.38v7.66c0,1,.44,1.36,1.14,1.36s1.14-.36,1.14-1.36v-2.74h-1.1v-2h3.18v4.58c0,2.24-1.12,3.52-3.28,3.52s-3.28-1.28-3.28-3.52Z"/>
      <path class="cls-3" d="M175.7,110.18h2.2v14h-2.2v-14Z"/>
      <path class="cls-3" d="M180.38,110.18h2.76l2.14,8.38h.04v-8.38h1.96v14h-2.26l-2.64-10.22h-.04v10.22h-1.96v-14Z"/>
      <path class="cls-3" d="M193.74,120.86v-.8h2.08v.96c0,1,.44,1.36,1.14,1.36s1.14-.36,1.14-1.4c0-1.16-.44-1.9-1.88-3.16-1.84-1.62-2.44-2.76-2.44-4.36,0-2.2,1.14-3.48,3.28-3.48s3.2,1.28,3.2,3.52v.58h-2.08v-.72c0-1-.4-1.38-1.1-1.38s-1.1,.38-1.1,1.34c0,1.02,.46,1.76,1.9,3.02,1.84,1.62,2.42,2.74,2.42,4.48,0,2.28-1.16,3.56-3.32,3.56s-3.24-1.28-3.24-3.52Z"/>
      <path class="cls-3" d="M202.54,110.18h2.2v12h3.62v2h-5.82v-14Z"/>
      <path class="cls-3" d="M210.43,120.86v-10.68h2.2v10.84c0,1,.42,1.36,1.12,1.36s1.12-.36,1.12-1.36v-10.84h2.12v10.68c0,2.24-1.12,3.52-3.28,3.52s-3.28-1.28-3.28-3.52Z"/>
      <path class="cls-3" d="M219.43,110.18h3.14l1.4,10.02h.04l1.4-10.02h3.14v14h-2.08v-10.6h-.04l-1.6,10.6h-1.84l-1.6-10.6h-.04v10.6h-1.92v-14Z"/>
      <path class="cls-3" d="M230.81,120.86v-.8h2.08v.96c0,1,.44,1.36,1.14,1.36s1.14-.36,1.14-1.4c0-1.16-.44-1.9-1.88-3.16-1.84-1.62-2.44-2.76-2.44-4.36,0-2.2,1.14-3.48,3.28-3.48s3.2,1.28,3.2,3.52v.58h-2.08v-.72c0-1-.4-1.38-1.1-1.38s-1.1,.38-1.1,1.34c0,1.02,.46,1.76,1.9,3.02,1.84,1.62,2.42,2.74,2.42,4.48,0,2.28-1.16,3.56-3.32,3.56s-3.24-1.28-3.24-3.52Z"/>
    </g>
    <g>
      <line class="cls-5" x1="127.34" y1="133.95" x2="127.34" y2="133.95"/>
      <line class="cls-4" x1="130.27" y1="133.95" x2="292.71" y2="133.95"/>
      <line class="cls-5" x1="294.18" y1="133.95" x2="294.18" y2="133.95"/>
    </g>
    <rect class="cls-9" x="33.3" y="240" width="13.65" height="8.87"/>
    <rect class="cls-9" x="38.31" y="234.31" width="13.65" height="8.87"/>
    <g>
      <path class="cls-3" d="M241.47,123.27v-4.45c0-1.01,.4-1.38,1.39-1.38h.31v.81h-.24c-.31,0-.46,.12-.46,.57v4.45c0,.45,.14,.57,.46,.57h.24v.81h-.31c-.99,0-1.39-.37-1.39-1.38Z"/>
      <path class="cls-3" d="M243.82,123.51c0-.9,.25-1.45,.99-2.22,.76-.8,.97-1.28,.97-1.86s-.2-.72-.51-.72-.51,.17-.51,.62v.68h-.94v-.61c0-1.01,.5-1.58,1.48-1.58s1.48,.58,1.48,1.58c0,.75-.31,1.41-1.22,2.39-.59,.63-.75,.95-.75,1.39v.13h1.88v.9h-2.86v-.68Z"/>
      <path class="cls-3" d="M247.37,122.7v-3.31c0-1.01,.53-1.58,1.5-1.58s1.5,.58,1.5,1.58v3.31c0,1.01-.53,1.58-1.5,1.58s-1.5-.58-1.5-1.58Zm2.02,.06v-3.44c0-.45-.2-.62-.51-.62s-.51,.17-.51,.62v3.44c0,.45,.2,.62,.51,.62s.51-.17,.51-.62Z"/>
      <path class="cls-3" d="M251.02,123.51c0-.9,.25-1.45,.99-2.22,.76-.8,.97-1.28,.97-1.86s-.2-.72-.51-.72-.51,.17-.51,.62v.68h-.94v-.61c0-1.01,.5-1.58,1.48-1.58s1.48,.58,1.48,1.58c0,.75-.31,1.41-1.22,2.39-.59,.63-.75,.95-.75,1.39v.13h1.88v.9h-2.86v-.68Z"/>
      <path class="cls-3" d="M254.57,122.7v-3.31c0-1.01,.53-1.58,1.5-1.58s1.5,.58,1.5,1.58v3.31c0,1.01-.53,1.58-1.5,1.58s-1.5-.58-1.5-1.58Zm2.02,.06v-3.44c0-.45-.2-.62-.51-.62s-.51,.17-.51,.62v3.44c0,.45,.2,.62,.51,.62s.51-.17,.51-.62Z"/>
      <path class="cls-3" d="M258.19,123.84h.24c.32,0,.46-.12,.46-.57v-4.45c0-.45-.14-.57-.46-.57h-.24v-.81h.31c.99,0,1.39,.37,1.39,1.38v4.45c0,1.01-.4,1.38-1.39,1.38h-.31v-.81Z"/>
    </g>
  </g>
</svg>