<?xml version="1.0" encoding="UTF-8"?>
<svg id="Layer_2" data-name="Layer 2" xmlns="http://www.w3.org/2000/svg" viewBox="0 0 279.86 75.77">
  <defs>
    <style>
      .cls-1 {
        fill: #c58e4a;
      }

      .cls-2 {
        fill: #fff;
      }

      .cls-3 {
        fill: #939598;
      }

      .cls-4 {
        fill-rule: evenodd;
      }

      .cls-4, .cls-5 {
        fill: #f99d25;
      }

      .cls-6 {
        fill: none;
        stroke: #c58e4a;
        stroke-dasharray: 0 0 2 4;
        stroke-linejoin: round;
        stroke-width: 2px;
      }
    </style>
  </defs>
  <g id="Layer_2-2" data-name="Layer 2">
    <g>
      <path class="cls-3" d="M84.23,6.68h1.43V15.78h-1.43V6.68Z"/>
      <path class="cls-3" d="M87.12,6.68h1.79l1.39,5.45h.03V6.68h1.27V15.78h-1.47l-1.72-6.64h-.03v6.64h-1.27V6.68Z"/>
      <path class="cls-3" d="M96.65,7.98h-1.5v-1.3h4.42v1.3h-1.5v7.8h-1.43V7.98Z"/>
      <path class="cls-3" d="M100.65,6.68h1.43v3.71h1.53v-3.71h1.43V15.78h-1.43v-4.1h-1.53v4.1h-1.43V6.68Z"/>
      <path class="cls-3" d="M106.5,6.68h3.9v1.3h-2.47v2.41h1.96v1.3h-1.96v2.8h2.47v1.3h-3.9V6.68Z"/>
      <path class="cls-3" d="M114.08,6.68h2.18c1.43,0,2.13,.79,2.13,2.25v4.6c0,1.46-.7,2.25-2.13,2.25h-2.18V6.68Zm2.16,7.8c.46,0,.73-.23,.73-.88v-4.73c0-.65-.27-.88-.73-.88h-.73v6.5h.73Z"/>
      <path class="cls-3" d="M119.75,6.68h3.9v1.3h-2.47v2.41h1.96v1.3h-1.96v2.8h2.47v1.3h-3.9V6.68Z"/>
      <path class="cls-3" d="M124.48,6.68h1.44l.94,7.06h.03l.94-7.06h1.31l-1.38,9.1h-1.9l-1.38-9.1Z"/>
      <path class="cls-3" d="M130.21,6.68h3.9v1.3h-2.47v2.41h1.96v1.3h-1.96v2.8h2.47v1.3h-3.9V6.68Z"/>
      <path class="cls-3" d="M135.32,6.68h1.43v7.8h2.35v1.3h-3.78V6.68Z"/>
      <path class="cls-3" d="M140.03,13.62v-4.78c0-1.46,.77-2.29,2.17-2.29s2.17,.83,2.17,2.29v4.78c0,1.46-.77,2.29-2.17,2.29s-2.17-.83-2.17-2.29Zm2.91,.09v-4.97c0-.65-.29-.9-.74-.9s-.74,.25-.74,.9v4.97c0,.65,.29,.9,.74,.9s.74-.25,.74-.9Z"/>
      <path class="cls-3" d="M145.72,6.68h2.11c1.43,0,2.13,.79,2.13,2.25v.9c0,1.46-.7,2.25-2.13,2.25h-.68v3.71h-1.43V6.68Zm2.11,4.1c.46,0,.7-.21,.7-.86v-1.08c0-.65-.25-.86-.7-.86h-.68v2.79h.68Z"/>
      <path class="cls-3" d="M151.13,6.68h1.43V15.78h-1.43V6.68Z"/>
      <path class="cls-3" d="M154.02,6.68h1.79l1.39,5.45h.03V6.68h1.27V15.78h-1.47l-1.72-6.64h-.03v6.64h-1.27V6.68Z"/>
      <path class="cls-3" d="M159.85,13.62v-4.78c0-1.46,.73-2.29,2.13-2.29s2.13,.83,2.13,2.29v.78h-1.35v-.87c0-.65-.29-.9-.74-.9s-.74,.25-.74,.9v4.98c0,.65,.29,.88,.74,.88s.74-.23,.74-.88v-1.78h-.71v-1.3h2.07v2.98c0,1.46-.73,2.29-2.13,2.29s-2.13-.83-2.13-2.29Z"/>
      <path class="cls-3" d="M167.56,6.68h1.38l.64,6.99h.03l.68-6.99h1.56l.68,6.99h.03l.64-6.99h1.24l-.92,9.1h-1.78l-.65-6.14h-.03l-.65,6.14h-1.9l-.92-9.1Z"/>
      <path class="cls-3" d="M175.43,13.62v-4.78c0-1.46,.77-2.29,2.17-2.29s2.17,.83,2.17,2.29v4.78c0,1.46-.77,2.29-2.17,2.29s-2.17-.83-2.17-2.29Zm2.91,.09v-4.97c0-.65-.29-.9-.74-.9s-.74,.25-.74,.9v4.97c0,.65,.29,.9,.74,.9s.74-.25,.74-.9Z"/>
      <path class="cls-3" d="M181.12,6.68h2.12c1.48,0,2.12,.69,2.12,2.09v.56c0,.94-.3,1.53-.94,1.79v.03c.72,.22,.95,.9,.95,1.92v1.6c0,.44,.01,.77,.16,1.1h-1.46c-.08-.23-.13-.38-.13-1.12v-1.66c0-.84-.25-1.12-.9-1.12h-.49v3.9h-1.43V6.68Zm1.95,3.9c.53,0,.86-.23,.86-.96v-.7c0-.65-.22-.94-.73-.94h-.65v2.6h.52Z"/>
      <path class="cls-3" d="M186.75,6.68h1.43v7.8h2.35v1.3h-3.78V6.68Z"/>
      <path class="cls-3" d="M191.61,6.68h2.18c1.43,0,2.13,.79,2.13,2.25v4.6c0,1.46-.7,2.25-2.13,2.25h-2.18V6.68Zm2.16,7.8c.46,0,.73-.23,.73-.88v-4.73c0-.65-.27-.88-.73-.88h-.73v6.5h.73Z"/>
    </g>
    <g>
      <g>
        <path class="cls-1" d="M51.53,41.13h-2.07v-1.4c1.67,0,2.27-.36,2.72-1.58h1.33v12.6h-1.98v-9.61Z"/>
        <path class="cls-1" d="M59.92,38.14h2.99c2.05,0,2.93,.95,2.93,2.9v.5c0,1.3-.4,2.11-1.28,2.47v.04c1.06,.36,1.48,1.3,1.48,2.63v1.08c0,1.94-1.03,2.99-3.01,2.99h-3.11v-12.6Zm2.75,5.13c.74,0,1.19-.32,1.19-1.33v-.7c0-.9-.31-1.3-1.01-1.3h-.95v3.33h.77Zm.36,5.67c.67,0,1.03-.31,1.03-1.24v-1.1c0-1.17-.38-1.53-1.28-1.53h-.88v3.87h1.13Z"/>
        <path class="cls-1" d="M67.73,38.14h1.98v12.6h-1.98v-12.6Z"/>
        <path class="cls-1" d="M71.73,38.14h1.98v10.8h3.26v1.8h-5.24v-12.6Z"/>
        <path class="cls-1" d="M78.46,38.14h1.98v10.8h3.26v1.8h-5.24v-12.6Z"/>
        <path class="cls-1" d="M85.19,38.14h1.98v12.6h-1.98v-12.6Z"/>
        <path class="cls-1" d="M89.04,47.75v-6.63c0-2.02,1.06-3.17,3.01-3.17s3.01,1.15,3.01,3.17v6.63c0,2.02-1.06,3.17-3.01,3.17s-3.01-1.15-3.01-3.17Zm4.03,.13v-6.88c0-.9-.4-1.24-1.03-1.24s-1.03,.34-1.03,1.24v6.88c0,.9,.4,1.24,1.03,1.24s1.03-.34,1.03-1.24Z"/>
        <path class="cls-1" d="M96.93,38.14h2.48l1.93,7.54h.04v-7.54h1.76v12.6h-2.03l-2.38-9.2h-.04v9.2h-1.76v-12.6Z"/>
        <path class="cls-1" d="M108.57,38.14h2.92c1.98,0,2.95,1.1,2.95,3.11v1.24c0,2.02-.97,3.12-2.95,3.12h-.94v5.13h-1.98v-12.6Zm2.92,5.67c.63,0,.97-.29,.97-1.19v-1.49c0-.9-.34-1.19-.97-1.19h-.94v3.87h.94Z"/>
        <path class="cls-1" d="M116.06,38.14h5.4v1.8h-3.42v3.33h2.72v1.8h-2.72v3.87h3.42v1.8h-5.4v-12.6Z"/>
        <path class="cls-1" d="M122.99,47.75v-6.63c0-2.02,1.06-3.17,3.01-3.17s3.01,1.15,3.01,3.17v6.63c0,2.02-1.06,3.17-3.01,3.17s-3.01-1.15-3.01-3.17Zm4.03,.13v-6.88c0-.9-.4-1.24-1.03-1.24s-1.03,.34-1.03,1.24v6.88c0,.9,.4,1.24,1.03,1.24s1.03-.34,1.03-1.24Z"/>
        <path class="cls-1" d="M130.87,38.14h2.92c1.98,0,2.95,1.1,2.95,3.11v1.24c0,2.02-.97,3.12-2.95,3.12h-.94v5.13h-1.98v-12.6Zm2.92,5.67c.63,0,.97-.29,.97-1.19v-1.49c0-.9-.34-1.19-.97-1.19h-.94v3.87h.94Z"/>
        <path class="cls-1" d="M138.36,38.14h1.98v10.8h3.26v1.8h-5.24v-12.6Z"/>
        <path class="cls-1" d="M145.09,38.14h5.4v1.8h-3.42v3.33h2.72v1.8h-2.72v3.87h3.42v1.8h-5.4v-12.6Z"/>
        <path class="cls-3" d="M155.59,38.14h1.98v10.8h3.26v1.8h-5.24v-12.6Z"/>
        <path class="cls-3" d="M163.92,38.14h2.68l2.05,12.6h-1.98l-.36-2.5v.04h-2.25l-.36,2.47h-1.84l2.05-12.6Zm2.16,8.43l-.88-6.23h-.04l-.86,6.23h1.78Z"/>
        <path class="cls-3" d="M169.99,47.83v-6.77c0-1.94,1.01-3.1,2.92-3.1s2.92,1.15,2.92,3.1v1.33h-1.87v-1.46c0-.83-.4-1.17-.99-1.17s-.99,.34-.99,1.17v7.04c0,.83,.4,1.15,.99,1.15s.99-.32,.99-1.15v-1.93h1.87v1.78c0,1.94-1.01,3.1-2.92,3.1s-2.92-1.15-2.92-3.1Z"/>
        <path class="cls-3" d="M177.55,38.14h1.98v5.31l2.52-5.31h1.98l-2.36,4.63,2.39,7.98h-2.07l-1.67-5.62-.79,1.6v4.02h-1.98v-12.6Z"/>
        <path class="cls-3" d="M190.49,38.14h2.68l2.05,12.6h-1.98l-.36-2.5v.04h-2.25l-.36,2.47h-1.84l2.05-12.6Zm2.16,8.43l-.88-6.23h-.04l-.86,6.23h1.78Z"/>
        <path class="cls-3" d="M196.55,47.83v-6.77c0-1.94,1.01-3.1,2.92-3.1s2.92,1.15,2.92,3.1v1.33h-1.87v-1.46c0-.83-.4-1.17-.99-1.17s-.99,.34-.99,1.17v7.04c0,.83,.4,1.15,.99,1.15s.99-.32,.99-1.15v-1.93h1.87v1.78c0,1.94-1.01,3.1-2.92,3.1s-2.92-1.15-2.92-3.1Z"/>
        <path class="cls-3" d="M204.02,47.83v-6.77c0-1.94,1.01-3.1,2.92-3.1s2.92,1.15,2.92,3.1v1.33h-1.87v-1.46c0-.83-.4-1.17-.99-1.17s-.99,.34-.99,1.17v7.04c0,.83,.4,1.15,.99,1.15s.99-.32,.99-1.15v-1.93h1.87v1.78c0,1.94-1.01,3.1-2.92,3.1s-2.92-1.15-2.92-3.1Z"/>
        <path class="cls-3" d="M211.58,38.14h5.4v1.8h-3.42v3.33h2.72v1.8h-2.72v3.87h3.42v1.8h-5.4v-12.6Z"/>
        <path class="cls-3" d="M218.35,47.75v-.72h1.87v.86c0,.9,.4,1.22,1.03,1.22s1.03-.32,1.03-1.26c0-1.04-.4-1.71-1.69-2.84-1.66-1.46-2.2-2.48-2.2-3.93,0-1.98,1.03-3.13,2.95-3.13s2.88,1.15,2.88,3.17v.52h-1.87v-.65c0-.9-.36-1.24-.99-1.24s-.99,.34-.99,1.21c0,.92,.41,1.58,1.71,2.72,1.66,1.46,2.18,2.47,2.18,4.03,0,2.05-1.04,3.21-2.99,3.21s-2.92-1.15-2.92-3.17Z"/>
        <path class="cls-3" d="M225.59,47.75v-.72h1.87v.86c0,.9,.4,1.22,1.03,1.22s1.03-.32,1.03-1.26c0-1.04-.4-1.71-1.69-2.84-1.66-1.46-2.2-2.48-2.2-3.93,0-1.98,1.03-3.13,2.95-3.13s2.88,1.15,2.88,3.17v.52h-1.87v-.65c0-.9-.36-1.24-.99-1.24s-.99,.34-.99,1.21c0,.92,.41,1.58,1.71,2.72,1.66,1.46,2.18,2.47,2.18,4.03,0,2.05-1.04,3.21-2.99,3.21s-2.92-1.15-2.92-3.17Z"/>
      </g>
      <g>
        <rect class="cls-5" x="84.38" y="57.59" width="115.72" height="18.18"/>
        <g>
          <path class="cls-3" d="M70.49,62.44h-1.84v-1.6h5.44v1.6h-1.84v9.6h-1.76v-9.6Z"/>
          <path class="cls-3" d="M75.23,69.39v-5.89c0-1.79,.94-2.82,2.67-2.82s2.67,1.02,2.67,2.82v5.89c0,1.79-.94,2.82-2.67,2.82s-2.67-1.02-2.67-2.82Zm3.59,.11v-6.11c0-.8-.35-1.1-.91-1.1s-.91,.3-.91,1.1v6.11c0,.8,.35,1.1,.91,1.1s.91-.3,.91-1.1Z"/>
          <path class="cls-2" d="M90.15,60.84h2.39l1.82,11.2h-1.76l-.32-2.23v.03h-2l-.32,2.19h-1.63l1.82-11.2Zm1.92,7.49l-.78-5.54h-.03l-.77,5.54h1.58Z"/>
          <path class="cls-2" d="M95.69,60.84h1.76v9.6h2.9v1.6h-4.66v-11.2Z"/>
          <path class="cls-2" d="M101.67,60.84h1.76v9.6h2.9v1.6h-4.66v-11.2Z"/>
          <path class="cls-2" d="M106.23,65.64h3.52v1.6h-3.52v-1.6Z"/>
          <path class="cls-2" d="M110.75,60.84h1.7l.78,8.61h.03l.83-8.61h1.92l.83,8.61h.03l.78-8.61h1.52l-1.14,11.2h-2.19l-.8-7.56h-.03l-.8,7.56h-2.34l-1.14-11.2Z"/>
          <path class="cls-2" d="M120.55,60.84h4.8v1.6h-3.04v2.96h2.42v1.6h-2.42v3.44h3.04v1.6h-4.8v-11.2Z"/>
          <path class="cls-2" d="M128.2,60.84h2.39l1.82,11.2h-1.76l-.32-2.23v.03h-2l-.32,2.19h-1.63l1.82-11.2Zm1.92,7.49l-.78-5.54h-.03l-.77,5.54h1.58Z"/>
          <path class="cls-2" d="M134.38,62.44h-1.84v-1.6h5.44v1.6h-1.84v9.6h-1.76v-9.6Z"/>
          <path class="cls-2" d="M139.31,60.84h1.76v4.56h1.89v-4.56h1.76v11.2h-1.76v-5.04h-1.89v5.04h-1.76v-11.2Z"/>
          <path class="cls-2" d="M146.51,60.84h4.8v1.6h-3.04v2.96h2.42v1.6h-2.42v3.44h3.04v1.6h-4.8v-11.2Z"/>
          <path class="cls-2" d="M152.79,60.84h2.61c1.82,0,2.61,.85,2.61,2.58v.69c0,1.15-.37,1.89-1.15,2.21v.03c.88,.27,1.17,1.1,1.17,2.37v1.97c0,.54,.02,.94,.19,1.36h-1.79c-.1-.29-.16-.46-.16-1.38v-2.05c0-1.04-.3-1.38-1.1-1.38h-.61v4.8h-1.76v-11.2Zm2.4,4.8c.66,0,1.06-.29,1.06-1.18v-.86c0-.8-.27-1.15-.9-1.15h-.8v3.2h.64Z"/>
          <path class="cls-2" d="M162.76,60.84h2.61c1.82,0,2.61,.85,2.61,2.58v.69c0,1.15-.37,1.89-1.15,2.21v.03c.88,.27,1.17,1.1,1.17,2.37v1.97c0,.54,.02,.94,.19,1.36h-1.79c-.1-.29-.16-.46-.16-1.38v-2.05c0-1.04-.3-1.38-1.1-1.38h-.61v4.8h-1.76v-11.2Zm2.4,4.8c.66,0,1.06-.29,1.06-1.18v-.86c0-.8-.27-1.15-.9-1.15h-.8v3.2h.64Z"/>
          <path class="cls-2" d="M169.56,69.39v-5.89c0-1.79,.94-2.82,2.67-2.82s2.67,1.02,2.67,2.82v5.89c0,1.79-.94,2.82-2.67,2.82s-2.67-1.02-2.67-2.82Zm3.59,.11v-6.11c0-.8-.35-1.1-.91-1.1s-.91,.3-.91,1.1v6.11c0,.8,.35,1.1,.91,1.1s.91-.3,.91-1.1Z"/>
          <path class="cls-2" d="M177.9,60.84h2.39l1.82,11.2h-1.76l-.32-2.23v.03h-2l-.32,2.19h-1.63l1.82-11.2Zm1.92,7.49l-.78-5.54h-.03l-.77,5.54h1.58Z"/>
          <path class="cls-2" d="M183.43,60.84h2.69c1.76,0,2.62,.98,2.62,2.77v5.67c0,1.79-.86,2.77-2.62,2.77h-2.69v-11.2Zm2.66,9.6c.56,0,.9-.29,.9-1.09v-5.83c0-.8-.34-1.09-.9-1.09h-.9v8h.9Z"/>
          <path class="cls-2" d="M190.1,69.39v-.64h1.66v.77c0,.8,.35,1.09,.91,1.09s.91-.29,.91-1.12c0-.93-.35-1.52-1.5-2.53-1.47-1.3-1.95-2.21-1.95-3.49,0-1.76,.91-2.79,2.62-2.79s2.56,1.02,2.56,2.82v.46h-1.66v-.58c0-.8-.32-1.1-.88-1.1s-.88,.3-.88,1.07c0,.82,.37,1.41,1.52,2.42,1.47,1.3,1.94,2.19,1.94,3.59,0,1.82-.93,2.85-2.66,2.85s-2.59-1.02-2.59-2.82Z"/>
        </g>
        <g>
          <path class="cls-3" d="M205.27,70.96v-4.94c0-1.12,.44-1.53,1.54-1.53h.34v.9h-.27c-.35,0-.51,.13-.51,.63v4.94c0,.5,.16,.63,.51,.63h.27v.9h-.34c-1.1,0-1.54-.41-1.54-1.53Z"/>
          <path class="cls-3" d="M207.89,71.23c0-1,.28-1.61,1.1-2.47,.84-.89,1.08-1.42,1.08-2.07s-.22-.8-.57-.8-.57,.19-.57,.69v.75h-1.04v-.68c0-1.12,.56-1.76,1.64-1.76s1.64,.64,1.64,1.76c0,.83-.34,1.57-1.36,2.65-.66,.7-.83,1.05-.83,1.54v.15h2.09v1h-3.18v-.76Z"/>
          <path class="cls-3" d="M211.83,70.33v-3.68c0-1.12,.59-1.76,1.67-1.76s1.67,.64,1.67,1.76v3.68c0,1.12-.59,1.76-1.67,1.76s-1.67-.64-1.67-1.76Zm2.24,.07v-3.82c0-.5-.22-.69-.57-.69s-.57,.19-.57,.69v3.82c0,.5,.22,.69,.57,.69s.57-.19,.57-.69Z"/>
          <path class="cls-3" d="M215.89,71.23c0-1,.28-1.61,1.1-2.47,.84-.89,1.08-1.42,1.08-2.07s-.22-.8-.57-.8-.57,.19-.57,.69v.75h-1.04v-.68c0-1.12,.56-1.76,1.64-1.76s1.64,.64,1.64,1.76c0,.83-.34,1.57-1.36,2.65-.66,.7-.83,1.05-.83,1.54v.15h2.09v1h-3.18v-.76Z"/>
          <path class="cls-3" d="M219.89,71.23c0-1,.28-1.61,1.1-2.47,.84-.89,1.08-1.42,1.08-2.07s-.22-.8-.57-.8-.57,.19-.57,.69v.75h-1.04v-.68c0-1.12,.56-1.76,1.64-1.76s1.64,.64,1.64,1.76c0,.83-.34,1.57-1.36,2.65-.66,.7-.83,1.05-.83,1.54v.15h2.09v1h-3.18v-.76Z"/>
          <path class="cls-3" d="M223.85,71.59h.27c.35,0,.51-.13,.51-.63v-4.94c0-.5-.16-.63-.51-.63h-.27v-.9h.34c1.1,0,1.54,.41,1.54,1.53v4.94c0,1.12-.44,1.53-1.54,1.53h-.34v-.9Z"/>
        </g>
      </g>
    </g>
    <line class="cls-6" y1="25.91" x2="279.86" y2="25.91"/>
    <g>
      <path class="cls-5" d="M43.68,23.42c0,1.15-.93,2.08-2.07,2.08s-2.08-.93-2.08-2.08,.93-2.07,2.08-2.07,2.07,.93,2.07,2.07"/>
      <path class="cls-5" d="M53.5,23.42c0,1.15-.93,2.08-2.07,2.08s-2.08-.93-2.08-2.08,.93-2.07,2.08-2.07,2.07,.93,2.07,2.07"/>
      <path class="cls-5" d="M54.9,18.08h-2.58l-2.07-2.35c-.66-.74-1.6-1.16-2.59-1.16h-5.21c-1.18,0-2.27,.59-2.91,1.59l-1.24,1.92h-1.54c-.24,0-.43,.19-.43,.43v2.75c0,1.19,.97,2.16,2.16,2.16h.16c0-1.62,1.32-2.94,2.94-2.94s2.94,1.32,2.94,2.94h3.94c0-1.62,1.32-2.94,2.94-2.94s2.94,1.32,2.94,2.94h1.85c.47,0,.85-.38,.85-.85v-2.33c0-1.19-.97-2.16-2.16-2.16h0Zm-10.09,0h-5.47l.93-1.46c.48-.74,1.3-1.19,2.18-1.19h2.36v2.64Zm.86,0v-2.64h1.98c.74,0,1.45,.32,1.94,.87l1.57,1.77h-5.49Z"/>
    </g>
    <g>
      <path class="cls-5" d="M241.72,23.42c0,1.15-.93,2.08-2.07,2.08s-2.08-.93-2.08-2.08,.93-2.07,2.08-2.07,2.07,.93,2.07,2.07"/>
      <path class="cls-5" d="M251.54,23.42c0,1.15-.93,2.08-2.07,2.08s-2.08-.93-2.08-2.08,.93-2.07,2.08-2.07,2.07,.93,2.07,2.07"/>
      <path class="cls-5" d="M252.94,18.08h-2.58l-2.07-2.35c-.66-.74-1.6-1.16-2.59-1.16h-5.21c-1.18,0-2.27,.59-2.91,1.59l-1.24,1.92h-1.54c-.24,0-.43,.19-.43,.43v2.75c0,1.19,.97,2.16,2.16,2.16h.16c0-1.62,1.32-2.94,2.94-2.94s2.94,1.32,2.94,2.94h3.94c0-1.62,1.32-2.94,2.94-2.94s2.94,1.32,2.94,2.94h1.85c.47,0,.85-.38,.85-.85v-2.33c0-1.19-.97-2.16-2.16-2.16h0Zm-10.09,0h-5.47l.93-1.46c.48-.74,1.3-1.19,2.18-1.19h2.36v2.64Zm.86,0v-2.64h1.98c.74,0,1.45,.32,1.94,.87l1.57,1.77h-5.49Z"/>
    </g>
    <g>
      <path class="cls-4" d="M14.8,5.72h10.78c.16,0,.27-.05,.32-.16l1.07-1.65c.05-.11,.05-.21,0-.32l-1.07-1.65c-.05-.11-.16-.16-.32-.16H14.8c-.21,0-.32,.21-.21,.37l1.01,1.6-1.01,1.6c-.11,.16,0,.37,.21,.37h0Z"/>
      <path class="cls-4" d="M21.42,.76v.85h-1.55V.76c0-1.01,1.55-1.01,1.55,0Z"/>
      <path class="cls-4" d="M14.8,11.8h10.78c.16,0,.27-.05,.32-.16l1.07-1.65c.05-.11,.05-.21,0-.27l-1.07-1.71c-.05-.11-.16-.16-.32-.16H14.8c-.21,0-.32,.21-.21,.37l1.01,1.6-1.01,1.6c-.11,.16,0,.37,.21,.37h0Z"/>
      <path class="cls-4" d="M19.87,7.7v-1.81h1.55v1.81h-1.55Z"/>
      <path class="cls-4" d="M19.87,25.42V11.96h1.55v13.46h-1.55Z"/>
    </g>
    <g>
      <path class="cls-5" d="M222.81,12.52c0,.85-.69,1.54-1.54,1.54s-1.54-.69-1.54-1.54,.69-1.54,1.54-1.54,1.54,.69,1.54,1.54"/>
      <path class="cls-5" d="M225.7,16.93l-1.38-.54-.99-1.23c-.35-.43-.86-.67-1.42-.67h-1.28c-.5,0-.99,.21-1.33,.59l-1.06,1.12c-.09,.09-.14,.21-.17,.33l-.38,1.85c-.07,.36,.16,.73,.54,.81,.05,.02,.09,.02,.14,.02,.31,0,.61-.22,.67-.55l.35-1.66,.47-.5v2.92l-.38,2.2-.5,.92-.38,.67-.61,1.09c-.21,.38-.07,.86,.31,1.09,.12,.07,.26,.1,.4,.1,.28,0,.55-.16,.69-.41l1.04-1.87,.38-.69,.14-.24c.05-.09,.09-.17,.09-.28l.29-1.95,1.31,2.23,.05,.24,.14,.69,.31,1.64c.07,.38,.41,.64,.78,.64,.05,0,.1,0,.16-.02,.43-.09,.71-.5,.64-.93l-.26-1.33-.14-.69-.14-.69c-.02-.09-.05-.17-.09-.26l-1.35-2.32v-2.61l.62,.76c.07,.09,.17,.17,.29,.21l1.56,.61c.35,.14,.74-.03,.88-.4,.14-.35-.03-.74-.4-.88Z"/>
    </g>
  </g>
</svg>