<?xml version="1.0" encoding="UTF-8"?>
<svg id="Layer_2" data-name="Layer 2" xmlns="http://www.w3.org/2000/svg" xmlns:xlink="http://www.w3.org/1999/xlink" viewBox="0 0 201.97 197.91">
  <defs>
    <style>
      .cls-1 {
        fill: #c58e4a;
      }

      .cls-2 {
        fill: #fff;
      }

      .cls-3 {
        stroke: #c58e4a;
        stroke-miterlimit: 10;
        stroke-width: .75px;
      }

      .cls-3, .cls-4 {
        fill: none;
      }

      .cls-5 {
        fill: #939598;
      }

      .cls-6 {
        fill: #ffedd8;
      }

      .cls-7 {
        fill: #f99d25;
      }

      .cls-8 {
        clip-path: url(#clippath);
      }
    </style>
    <clipPath id="clippath">
      <rect class="cls-4" x="9.55" width="180.67" height="197.19" rx="5.69" ry="5.69"/>
    </clipPath>
  </defs>
  <g id="Layer_2-2" data-name="Layer 2">
    <rect class="cls-6" x="9.55" width="180.67" height="197.19" rx="5.69" ry="5.69"/>
    <g>
      <path class="cls-5" d="M28.15,121.47v-4.94c0-1.12,.44-1.53,1.54-1.53h.34v.9h-.27c-.35,0-.51,.13-.51,.63v4.94c0,.5,.16,.63,.51,.63h.27v.9h-.34c-1.1,0-1.54-.41-1.54-1.53Z"/>
      <path class="cls-5" d="M30.77,121.74c0-1,.28-1.61,1.1-2.47,.84-.89,1.08-1.42,1.08-2.07s-.22-.8-.57-.8-.57,.19-.57,.69v.75h-1.04v-.68c0-1.12,.56-1.76,1.64-1.76s1.64,.64,1.64,1.76c0,.83-.34,1.57-1.36,2.65-.66,.7-.83,1.05-.83,1.54v.15h2.09v1h-3.18v-.76Z"/>
      <path class="cls-5" d="M34.7,120.84v-3.68c0-1.12,.59-1.76,1.67-1.76s1.67,.64,1.67,1.76v3.68c0,1.12-.59,1.76-1.67,1.76s-1.67-.64-1.67-1.76Zm2.24,.07v-3.82c0-.5-.22-.69-.57-.69s-.57,.19-.57,.69v3.82c0,.5,.22,.69,.57,.69s.57-.19,.57-.69Z"/>
      <path class="cls-5" d="M38.77,121.74c0-1,.28-1.61,1.1-2.47,.84-.89,1.08-1.42,1.08-2.07s-.22-.8-.57-.8-.57,.19-.57,.69v.75h-1.04v-.68c0-1.12,.56-1.76,1.64-1.76s1.64,.64,1.64,1.76c0,.83-.34,1.57-1.36,2.65-.66,.7-.83,1.05-.83,1.54v.15h2.09v1h-3.18v-.76Z"/>
      <path class="cls-5" d="M42.77,121.74c0-1,.28-1.61,1.1-2.47,.84-.89,1.08-1.42,1.08-2.07s-.22-.8-.57-.8-.57,.19-.57,.69v.75h-1.04v-.68c0-1.12,.56-1.76,1.64-1.76s1.64,.64,1.64,1.76c0,.83-.34,1.57-1.36,2.65-.66,.7-.83,1.05-.83,1.54v.15h2.09v1h-3.18v-.76Z"/>
      <path class="cls-5" d="M46.72,122.1h.27c.35,0,.51-.13,.51-.63v-4.94c0-.5-.16-.63-.51-.63h-.27v-.9h.34c1.1,0,1.54,.41,1.54,1.53v4.94c0,1.12-.44,1.53-1.54,1.53h-.34v-.9Z"/>
    </g>
    <g class="cls-8">
      <g>
        <path class="cls-7" d="M154.15,127.37c-11.94,.69-22.3,8.56-26.11,20.01l-.19,.48,2.15,.54v30.82c2.07-1.19,4.43-1.87,6.9-1.87,5.02,0,9.53,2.68,11.96,6.9h.12c1.82,0,3.56,.4,5.18,1.05v-.1c-2.13-2.51-3.45-5.9-3.45-9.58h-3.45v-3.45h3.45v3.45c0-3.75,1.32-7.15,3.45-9.64v-38.62Zm-17.25,48.26h-3.45v-3.45s3.45,0,3.45,0v3.45Zm0-6.9h-3.45v-3.45h3.45v3.45Zm0-6.9h-3.45v-3.45h3.45v3.45Zm0-6.9h-3.45v-3.45h3.45v3.45Zm0-6.9h-3.45s0-3.45,0-3.45h3.45v3.45Zm6.9,27.6h-3.45v-3.45h3.45s0,3.45,0,3.45Zm0-6.9h-3.45v-3.45h3.45s0,3.45,0,3.45Zm0-6.9h-3.45v-3.45h3.45v3.45Zm0-6.9h-3.45s0-3.45,0-3.45h3.45v3.45Zm0-6.9h-3.45s0-3.45,0-3.45h3.45s0,3.45,0,3.45Zm0-6.9h-3.45v-3.45h3.45v3.45Zm6.9,27.6h-3.45v-3.45h3.45s0,3.45,0,3.45Zm0-6.9h-3.45s0-3.45,0-3.45h3.45v3.45Zm0-6.9h-3.45v-3.45h3.45v3.45Zm0-6.9h-3.45v-3.45h3.45v3.45Zm0-6.9h-3.45v-3.45s3.45,0,3.45,0v3.45Z"/>
        <path class="cls-1" d="M102.4,179.2c2.04-1.18,4.4-1.84,6.9-1.84,3.79,0,7.35,1.56,9.92,4.21,1.22-.5,2.54-.76,3.88-.76,1.19,0,2.35,.24,3.45,.63v-30.34l-24.15-6.04v34.14Zm17.25-27.72h3.45s0,3.45,0,3.45h-3.45v-3.45Zm0,6.9h3.45v3.45h-3.45s0-3.45,0-3.45Zm0,6.9h3.45v3.45h-3.45v-3.45Zm0,6.9h3.45v3.45h-3.45v-3.45Zm-6.9-20.7h3.45v3.45h-3.45v-3.45Zm0,6.9h3.45v3.45h-3.45v-3.45Zm0,6.9h3.45v3.45h-3.45v-3.45Zm0,6.9h3.45v3.45h-3.45v-3.45Zm-6.9-20.7h3.45s0,3.45,0,3.45h-3.45s0-3.45,0-3.45Zm0,6.9h3.45s0,3.45,0,3.45h-3.45v-3.45Zm0,6.9h3.45s0,3.45,0,3.45h-3.45v-3.45Zm0,6.9h3.45s0,3.45,0,3.45h-3.45s0-3.45,0-3.45Z"/>
        <path class="cls-1" d="M157.61,123.87v39.31c1.57-.86,3.32-1.35,5.18-1.35h-1.73s0-3.45,0-3.45h3.45v3.45h-1.73c2.57,0,4.94,.93,6.9,2.49,1.51-1.21,3.27-2.02,5.18-2.34v-48.46h-24.15v10.76c1.69-.27,3.42-.41,5.18-.41h1.73Zm10.35-6.9h3.45s0,3.45,0,3.45h-3.45v-3.45Zm0,6.9h3.45s0,3.45,0,3.45h-3.45v-3.45Zm0,6.9h3.45s0,3.45,0,3.45h-3.45v-3.45Zm0,6.9h3.45s0,3.45,0,3.45h-3.45v-3.45Zm0,6.9h3.45v3.45h-3.45s0-3.45,0-3.45Zm0,6.9h3.45v3.45h-3.45v-3.45Zm0,6.9h3.45v3.45s-3.45,0-3.45,0v-3.45Zm-6.9-41.41h3.45s0,3.45,0,3.45h-3.45s0-3.45,0-3.45Zm0,6.9h3.45v3.45h-3.45s0-3.45,0-3.45Zm0,6.9h3.45v3.45h-3.45v-3.45Zm0,6.9h3.45v3.45h-3.45s0-3.45,0-3.45Zm0,6.9h3.45v3.45h-3.45v-3.45Zm0,6.9h3.45v3.45h-3.45v-3.45Zm-6.9-34.51h3.45v3.45h-3.45v-3.45Z"/>
        <path class="cls-7" d="M178.31,185.77c-.56,.13-1.13,.21-1.73,.21s-1.17-.07-1.73-.21v7.11h-10.35v-7.11c-.56,.13-1.13,.21-1.73,.21s-1.17-.07-1.73-.21v7.11h-3.13c-1.79-3.09-5.12-5.18-8.95-5.18-.77,0-1.51,.09-2.23,.25-1.35-4.15-5.24-7.15-9.84-7.15-3.9,0-7.3,2.17-9.07,5.36-1.23-1.17-2.9-1.91-4.74-1.91s-3.5,.73-4.74,1.91c-1.76-3.19-5.16-5.36-9.07-5.36-4.65,0-8.58,3.07-9.89,7.29-.69-.23-1.42-.39-2.19-.39l-.89,.06c-1.18-2.1-3.43-3.51-6.01-3.51-3.81,0-6.9,3.09-6.9,6.9,0,.6,.08,1.17,.22,1.73H0s0,5.03,0,5.03H201.97s0-5.03,0-5.03h-23.66v-7.11Z"/>
        <path class="cls-7" d="M164.51,175.63v10.14c2.11-.52,3.93-1.98,5.18-3.99,1.25,2.01,3.06,3.47,5.18,3.99v-10.14h3.45v10.14c3.93-.96,6.9-5.14,6.9-10.14,0-5.71-3.87-10.35-8.63-10.35-2.82,0-5.33,1.64-6.9,4.17-1.57-2.52-4.08-4.17-6.9-4.17-4.76,0-8.63,4.64-8.63,10.35,0,5,2.97,9.18,6.9,10.14v-10.14h3.45Z"/>
      </g>
    </g>
    <g>
      <path class="cls-5" d="M28.04,23.89v-4.78c0-1.46,.73-2.29,2.13-2.29s2.13,.83,2.13,2.29v.78h-1.35v-.87c0-.65-.29-.9-.74-.9s-.74,.25-.74,.9v4.98c0,.65,.29,.88,.74,.88s.74-.23,.74-.88v-1.78h-.72v-1.3h2.07v2.98c0,1.46-.73,2.29-2.13,2.29s-2.13-.83-2.13-2.29Z"/>
      <path class="cls-5" d="M33.55,16.94h1.43v7.8h2.35v1.3h-3.78v-9.1Z"/>
      <path class="cls-5" d="M38.19,23.89v-4.78c0-1.46,.77-2.29,2.17-2.29s2.17,.83,2.17,2.29v4.78c0,1.46-.77,2.29-2.17,2.29s-2.17-.83-2.17-2.29Zm2.91,.09v-4.97c0-.65-.29-.9-.74-.9s-.74,.25-.74,.9v4.97c0,.65,.29,.9,.74,.9s.74-.25,.74-.9Z"/>
      <path class="cls-5" d="M43.82,16.94h2.16c1.48,0,2.12,.69,2.12,2.09v.36c0,.94-.29,1.52-.92,1.78v.03c.77,.26,1.07,.94,1.07,1.9v.78c0,1.4-.74,2.16-2.17,2.16h-2.25v-9.1Zm1.99,3.71c.53,0,.86-.23,.86-.96v-.51c0-.65-.22-.94-.73-.94h-.69v2.41h.56Zm.26,4.09c.48,0,.74-.22,.74-.9v-.79c0-.84-.27-1.1-.92-1.1h-.64v2.79h.82Z"/>
      <path class="cls-5" d="M50.5,16.94h1.94l1.48,9.1h-1.43l-.26-1.81v.03h-1.63l-.26,1.78h-1.33l1.48-9.1Zm1.56,6.08l-.64-4.5h-.03l-.62,4.5h1.29Z"/>
      <path class="cls-5" d="M54.93,16.94h1.43v7.8h2.35v1.3h-3.78v-9.1Z"/>
      <path class="cls-5" d="M59.73,16.94h1.43v7.8h2.35v1.3h-3.78v-9.1Z"/>
      <path class="cls-5" d="M64.7,22.17l-1.73-5.23h1.52l.98,3.34h.03l.97-3.34h1.39l-1.73,5.23v3.87h-1.43v-3.87Z"/>
      <path class="cls-5" d="M68.09,26.05h-.47v-1.38h1.38v1.23l-.72,1.7h-.66l.47-1.56Z"/>
      <path class="cls-5" d="M72.69,23.89v-4.78c0-1.46,.77-2.29,2.17-2.29s2.17,.83,2.17,2.29v4.78c0,1.46-.77,2.29-2.17,2.29s-2.17-.83-2.17-2.29Zm2.91,.09v-4.97c0-.65-.29-.9-.74-.9s-.74,.25-.74,.9v4.97c0,.65,.29,.9,.74,.9s.74-.25,.74-.9Z"/>
      <path class="cls-5" d="M78.32,16.94h1.79l1.39,5.45h.03v-5.45h1.27v9.1h-1.47l-1.72-6.64h-.03v6.64h-1.27v-9.1Z"/>
      <path class="cls-5" d="M84.2,16.94h1.43v7.8h2.35v1.3h-3.78v-9.1Z"/>
      <path class="cls-5" d="M89.16,22.17l-1.73-5.23h1.52l.98,3.34h.03l.97-3.34h1.39l-1.73,5.23v3.87h-1.43v-3.87Z"/>
    </g>
    <g>
      <path class="cls-5" d="M28.09,62.83v-7.48h1.54v7.59c0,.7,.29,.95,.78,.95s.78-.25,.78-.95v-7.59h1.48v7.48c0,1.57-.78,2.47-2.3,2.47s-2.3-.9-2.3-2.47Z"/>
      <path class="cls-5" d="M34.34,55.35h2.28c1.6,0,2.28,.74,2.28,2.25v.6c0,1.01-.32,1.65-1.01,1.93v.03c.77,.24,1.02,.97,1.02,2.07v1.72c0,.48,.01,.83,.17,1.19h-1.57c-.08-.25-.14-.41-.14-1.2v-1.79c0-.91-.27-1.2-.97-1.2h-.53v4.2h-1.54v-9.81Zm2.1,4.2c.57,0,.92-.25,.92-1.04v-.76c0-.7-.24-1.01-.78-1.01h-.7v2.8h.56Z"/>
      <path class="cls-5" d="M40.54,55.35h2.33c1.6,0,2.28,.74,2.28,2.25v.39c0,1.01-.31,1.64-.99,1.92v.03c.83,.28,1.15,1.01,1.15,2.05v.84c0,1.51-.8,2.33-2.34,2.33h-2.42v-9.81Zm2.14,3.99c.57,0,.92-.25,.92-1.04v-.55c0-.7-.24-1.01-.78-1.01h-.74v2.59h.6Zm.28,4.41c.52,0,.8-.24,.8-.97v-.85c0-.91-.29-1.19-.99-1.19h-.69v3.01h.88Z"/>
      <path class="cls-5" d="M47.95,55.35h2.09l1.6,9.81h-1.54l-.28-1.95v.03h-1.75l-.28,1.92h-1.43l1.6-9.81Zm1.68,6.56l-.69-4.85h-.03l-.67,4.85h1.39Z"/>
      <path class="cls-5" d="M52.93,55.35h1.93l1.5,5.87h.03v-5.87h1.37v9.81h-1.58l-1.85-7.16h-.03v7.16h-1.37v-9.81Z"/>
      <path class="cls-5" d="M62.27,55.35h2.28c1.6,0,2.28,.74,2.28,2.25v.6c0,1.01-.32,1.65-1.01,1.93v.03c.77,.24,1.02,.97,1.02,2.07v1.72c0,.48,.01,.83,.17,1.19h-1.57c-.08-.25-.14-.41-.14-1.2v-1.79c0-.91-.27-1.2-.97-1.2h-.53v4.2h-1.54v-9.81Zm2.1,4.2c.57,0,.92-.25,.92-1.04v-.76c0-.7-.24-1.01-.78-1.01h-.7v2.8h.56Z"/>
      <path class="cls-5" d="M68.47,55.35h4.2v1.4h-2.66v2.59h2.11v1.4h-2.11v3.01h2.66v1.4h-4.2v-9.81Z"/>
      <path class="cls-5" d="M73.87,62.83v-.56h1.46v.67c0,.7,.31,.95,.8,.95s.8-.25,.8-.98c0-.81-.31-1.33-1.32-2.21-1.29-1.13-1.71-1.93-1.71-3.05,0-1.54,.8-2.44,2.3-2.44s2.24,.9,2.24,2.47v.41h-1.46v-.5c0-.7-.28-.97-.77-.97s-.77,.27-.77,.94c0,.71,.32,1.23,1.33,2.11,1.29,1.13,1.69,1.92,1.69,3.14,0,1.6-.81,2.49-2.33,2.49s-2.27-.9-2.27-2.47Z"/>
      <path class="cls-5" d="M79.91,55.35h1.54v9.81h-1.54v-9.81Z"/>
      <path class="cls-5" d="M83.15,55.35h2.35c1.54,0,2.3,.85,2.3,2.42v4.96c0,1.57-.76,2.42-2.3,2.42h-2.35v-9.81Zm2.33,8.4c.49,0,.78-.25,.78-.95v-5.1c0-.7-.29-.95-.78-.95h-.78v7h.78Z"/>
      <path class="cls-5" d="M89.4,55.35h4.2v1.4h-2.66v2.59h2.11v1.4h-2.11v3.01h2.66v1.4h-4.2v-9.81Z"/>
      <path class="cls-5" d="M95.04,55.35h1.93l1.5,5.87h.03v-5.87h1.37v9.81h-1.58l-1.85-7.16h-.03v7.16h-1.37v-9.81Z"/>
      <path class="cls-5" d="M102.78,56.76h-1.61v-1.4h4.76v1.4h-1.61v8.4h-1.54v-8.4Z"/>
      <path class="cls-5" d="M106.97,62.83v-.56h1.46v.67c0,.7,.31,.95,.8,.95s.8-.25,.8-.98c0-.81-.31-1.33-1.32-2.21-1.29-1.13-1.71-1.93-1.71-3.05,0-1.54,.8-2.44,2.3-2.44s2.24,.9,2.24,2.47v.41h-1.46v-.5c0-.7-.28-.97-.77-.97s-.77,.27-.77,.94c0,.71,.32,1.23,1.33,2.11,1.29,1.13,1.69,1.92,1.69,3.14,0,1.6-.81,2.49-2.33,2.49s-2.27-.9-2.27-2.47Z"/>
      <path class="cls-5" d="M115.8,55.35h1.54v3.99h1.65v-3.99h1.54v9.81h-1.54v-4.41h-1.65v4.41h-1.54v-9.81Z"/>
      <path class="cls-5" d="M123.43,55.35h2.09l1.6,9.81h-1.54l-.28-1.95v.03h-1.75l-.28,1.92h-1.43l1.6-9.81Zm1.68,6.56l-.69-4.85h-.03l-.67,4.85h1.39Z"/>
      <path class="cls-5" d="M127.62,55.35h1.55l1.01,7.61h.03l1.01-7.61h1.41l-1.48,9.81h-2.05l-1.48-9.81Z"/>
      <path class="cls-5" d="M133.93,55.35h4.2v1.4h-2.66v2.59h2.11v1.4h-2.11v3.01h2.66v1.4h-4.2v-9.81Z"/>
      <path class="cls-5" d="M28.05,79.89v-5.27c0-1.51,.78-2.41,2.27-2.41s2.27,.9,2.27,2.41v1.04h-1.46v-1.13c0-.64-.31-.91-.77-.91s-.77,.27-.77,.91v5.48c0,.64,.31,.9,.77,.9s.77-.25,.77-.9v-1.5h1.46v1.39c0,1.51-.78,2.41-2.27,2.41s-2.27-.9-2.27-2.41Z"/>
      <path class="cls-5" d="M33.99,79.83v-5.15c0-1.57,.83-2.47,2.34-2.47s2.34,.9,2.34,2.47v5.15c0,1.57-.83,2.47-2.34,2.47s-2.34-.9-2.34-2.47Zm3.14,.1v-5.35c0-.7-.31-.97-.8-.97s-.8,.27-.8,.97v5.35c0,.7,.31,.97,.8,.97s.8-.27,.8-.97Z"/>
      <path class="cls-5" d="M40.26,72.35h1.93l1.5,5.87h.03v-5.87h1.37v9.81h-1.58l-1.85-7.16h-.03v7.16h-1.37v-9.81Z"/>
      <path class="cls-5" d="M46.39,72.35h1.55l1.01,7.61h.03l1.01-7.61h1.41l-1.48,9.81h-2.05l-1.48-9.81Z"/>
      <path class="cls-5" d="M52.7,72.35h4.2v1.4h-2.66v2.59h2.11v1.4h-2.11v3.01h2.66v1.4h-4.2v-9.81Z"/>
      <path class="cls-5" d="M58.35,72.35h1.93l1.5,5.87h.03v-5.87h1.37v9.81h-1.58l-1.85-7.16h-.03v7.16h-1.37v-9.81Z"/>
      <path class="cls-5" d="M64.88,72.35h1.54v9.81h-1.54v-9.81Z"/>
      <path class="cls-5" d="M68.13,72.35h4.2v1.4h-2.66v2.59h2.11v1.4h-2.11v3.01h2.66v1.4h-4.2v-9.81Z"/>
      <path class="cls-5" d="M73.77,72.35h1.93l1.5,5.87h.03v-5.87h1.37v9.81h-1.58l-1.85-7.16h-.03v7.16h-1.37v-9.81Z"/>
      <path class="cls-5" d="M81.52,73.76h-1.61v-1.4h4.76v1.4h-1.61v8.4h-1.54v-8.4Z"/>
      <path class="cls-5" d="M89.96,72.35h2.09l1.6,9.81h-1.54l-.28-1.95v.03h-1.75l-.28,1.92h-1.43l1.6-9.81Zm1.68,6.56l-.69-4.85h-.03l-.67,4.85h1.39Z"/>
      <path class="cls-5" d="M94.82,79.89v-5.27c0-1.51,.78-2.41,2.27-2.41s2.27,.9,2.27,2.41v1.04h-1.46v-1.13c0-.64-.31-.91-.77-.91s-.77,.27-.77,.91v5.48c0,.64,.31,.9,.77,.9s.77-.25,.77-.9v-1.5h1.46v1.39c0,1.51-.78,2.41-2.27,2.41s-2.27-.9-2.27-2.41Z"/>
      <path class="cls-5" d="M100.77,79.89v-5.27c0-1.51,.78-2.41,2.27-2.41s2.27,.9,2.27,2.41v1.04h-1.46v-1.13c0-.64-.31-.91-.77-.91s-.77,.27-.77,.91v5.48c0,.64,.31,.9,.77,.9s.77-.25,.77-.9v-1.5h1.46v1.39c0,1.51-.78,2.41-2.27,2.41s-2.27-.9-2.27-2.41Z"/>
      <path class="cls-5" d="M106.79,72.35h4.2v1.4h-2.66v2.59h2.11v1.4h-2.11v3.01h2.66v1.4h-4.2v-9.81Z"/>
      <path class="cls-5" d="M112.19,79.83v-.56h1.46v.67c0,.7,.31,.95,.8,.95s.8-.25,.8-.98c0-.81-.31-1.33-1.32-2.21-1.29-1.13-1.71-1.93-1.71-3.05,0-1.54,.8-2.44,2.3-2.44s2.24,.9,2.24,2.47v.41h-1.46v-.5c0-.7-.28-.97-.77-.97s-.77,.27-.77,.94c0,.71,.32,1.23,1.33,2.11,1.29,1.13,1.69,1.92,1.69,3.14,0,1.6-.81,2.49-2.33,2.49s-2.27-.9-2.27-2.47Z"/>
      <path class="cls-5" d="M117.96,79.83v-.56h1.46v.67c0,.7,.31,.95,.8,.95s.8-.25,.8-.98c0-.81-.31-1.33-1.32-2.21-1.29-1.13-1.71-1.93-1.71-3.05,0-1.54,.8-2.44,2.3-2.44s2.24,.9,2.24,2.47v.41h-1.46v-.5c0-.7-.28-.97-.77-.97s-.77,.27-.77,.94c0,.71,.32,1.23,1.33,2.11,1.29,1.13,1.69,1.92,1.69,3.14,0,1.6-.81,2.49-2.33,2.49s-2.27-.9-2.27-2.47Z"/>
      <path class="cls-5" d="M128,73.76h-1.61v-1.4h4.76v1.4h-1.61v8.4h-1.54v-8.4Z"/>
      <path class="cls-5" d="M132.28,79.83v-5.15c0-1.57,.83-2.47,2.34-2.47s2.34,.9,2.34,2.47v5.15c0,1.57-.83,2.47-2.34,2.47s-2.34-.9-2.34-2.47Zm3.14,.1v-5.35c0-.7-.31-.97-.8-.97s-.8,.27-.8,.97v5.35c0,.7,.31,.97,.8,.97s.8-.27,.8-.97Z"/>
    </g>
    <path class="cls-1" d="M31.42,173.36h33.05c.58,0,1.1,.24,1.48,.62,.38,.38,.62,.91,.62,1.48v13.49c0,1.15-.95,2.1-2.1,2.1h-3.61c-.11,.45-.33,.84-.65,1.15h0c-.44,.44-1.05,.71-1.72,.71s-1.28-.27-1.72-.71h0c-.31-.32-.54-.71-.65-1.16h-16.36c-.11,.45-.33,.84-.65,1.15h0s0,0,0,0h0c-.44,.44-1.05,.71-1.72,.71s-1.28-.27-1.72-.71h0c-.31-.32-.54-.71-.65-1.16h-3.61c-.58,0-1.1-.23-1.48-.62-.38-.38-.62-.91-.62-1.48v-13.49c0-.58,.24-1.1,.62-1.48h0c.38-.38,.9-.62,1.48-.62h0Zm33.05,1.13h-4.1v7.5l5.07-.32v-6.21c0-.27-.11-.51-.29-.69-.18-.18-.42-.28-.69-.28h0Zm-5.22,0h-6.16v7.96l6.16-.39v-7.58Zm-7.28,0h-6.15v8.42l6.15-.39v-8.03Zm-7.28,0h-6.15v8.88l6.15-.39v-8.49Zm-7.28,0h-5.98c-.27,0-.51,.11-.69,.28s-.29,.42-.29,.69v8.41l6.95-.44v-8.95Zm22.4,15.99c0-.72-.58-1.31-1.3-1.31-.36,0-.69,.15-.92,.38-.23,.24-.38,.56-.38,.92s.15,.69,.38,.92h0c.23,.24,.56,.38,.92,.38s.69-.15,.92-.38c.23-.23,.38-.56,.38-.92h0Zm-21.1,0c0-.36-.14-.69-.38-.92-.24-.23-.56-.38-.92-.38s-.69,.15-.92,.38c-.24,.24-.38,.56-.38,.92s.14,.69,.38,.92c.23,.24,.56,.38,.92,.38s.69-.14,.92-.38h0c.23-.24,.38-.56,.38-.92h0Zm-8.25-3.81v1.01h1.51v-1.01h-1.51Z"/>
    <g>
      <rect class="cls-7" x="28.1" y="89.3" width="97.87" height="18.95"/>
      <g>
        <path class="cls-2" d="M33.21,93.84h2.27c1.54,0,2.3,.85,2.3,2.42v.97c0,1.57-.76,2.42-2.3,2.42h-.73v3.99h-1.54v-9.81Zm2.27,4.41c.49,0,.76-.22,.76-.92v-1.16c0-.7-.27-.92-.76-.92h-.73v3.01h.73Z"/>
        <path class="cls-2" d="M39.12,101.32v-7.48h1.54v7.59c0,.7,.29,.95,.78,.95s.78-.25,.78-.95v-7.59h1.48v7.48c0,1.57-.78,2.47-2.3,2.47s-2.3-.9-2.3-2.47Z"/>
        <path class="cls-2" d="M45.36,93.84h2.33c1.6,0,2.28,.74,2.28,2.25v.39c0,1.01-.31,1.64-.99,1.92v.03c.83,.28,1.15,1.01,1.15,2.05v.84c0,1.51-.8,2.33-2.34,2.33h-2.42v-9.81Zm2.14,3.99c.57,0,.92-.25,.92-1.04v-.55c0-.7-.24-1.01-.78-1.01h-.74v2.59h.6Zm.28,4.41c.52,0,.8-.24,.8-.97v-.85c0-.91-.29-1.19-.99-1.19h-.69v3.01h.88Z"/>
        <path class="cls-2" d="M51.57,93.84h1.54v8.4h2.54v1.4h-4.08v-9.81Z"/>
        <path class="cls-2" d="M56.95,93.84h1.54v9.81h-1.54v-9.81Z"/>
        <path class="cls-2" d="M60.1,101.37v-5.27c0-1.51,.78-2.41,2.27-2.41s2.27,.9,2.27,2.41v1.04h-1.46v-1.13c0-.64-.31-.91-.77-.91s-.77,.27-.77,.91v5.48c0,.64,.31,.9,.77,.9s.77-.25,.77-.9v-1.5h1.46v1.39c0,1.51-.78,2.41-2.27,2.41s-2.27-.9-2.27-2.41Z"/>
        <path class="cls-2" d="M70.13,95.24h-1.61v-1.4h4.76v1.4h-1.61v8.4h-1.54v-8.4Z"/>
        <path class="cls-2" d="M74.58,93.84h2.28c1.6,0,2.28,.74,2.28,2.25v.6c0,1.01-.32,1.65-1.01,1.93v.03c.77,.24,1.02,.97,1.02,2.07v1.72c0,.48,.01,.83,.17,1.19h-1.57c-.08-.25-.14-.41-.14-1.2v-1.79c0-.91-.27-1.2-.97-1.2h-.53v4.2h-1.54v-9.81Zm2.1,4.2c.57,0,.92-.25,.92-1.04v-.76c0-.7-.24-1.01-.78-1.01h-.7v2.8h.56Z"/>
        <path class="cls-2" d="M81.97,93.84h2.09l1.6,9.81h-1.54l-.28-1.95v.03h-1.75l-.28,1.92h-1.43l1.6-9.81Zm1.68,6.56l-.69-4.85h-.03l-.67,4.85h1.39Z"/>
        <path class="cls-2" d="M86.95,93.84h1.93l1.5,5.87h.03v-5.87h1.37v9.81h-1.58l-1.85-7.16h-.03v7.16h-1.37v-9.81Z"/>
        <path class="cls-2" d="M93.22,101.32v-.56h1.46v.67c0,.7,.31,.95,.8,.95s.8-.25,.8-.98c0-.81-.31-1.33-1.32-2.21-1.29-1.13-1.71-1.93-1.71-3.05,0-1.54,.8-2.44,2.3-2.44s2.24,.9,2.24,2.47v.41h-1.46v-.5c0-.7-.28-.97-.77-.97s-.77,.27-.77,.94c0,.71,.32,1.23,1.33,2.12,1.29,1.13,1.69,1.92,1.69,3.14,0,1.6-.81,2.49-2.33,2.49s-2.27-.9-2.27-2.47Z"/>
        <path class="cls-2" d="M99.26,93.84h2.27c1.54,0,2.3,.85,2.3,2.42v.97c0,1.57-.76,2.42-2.3,2.42h-.73v3.99h-1.54v-9.81Zm2.27,4.41c.49,0,.76-.22,.76-.92v-1.16c0-.7-.27-.92-.76-.92h-.73v3.01h.73Z"/>
        <path class="cls-2" d="M105.11,101.32v-5.15c0-1.57,.83-2.47,2.34-2.47s2.34,.9,2.34,2.47v5.15c0,1.57-.83,2.47-2.34,2.47s-2.34-.9-2.34-2.47Zm3.14,.1v-5.35c0-.7-.31-.97-.8-.97s-.8,.27-.8,.97v5.35c0,.7,.31,.97,.8,.97s.8-.27,.8-.97Z"/>
        <path class="cls-2" d="M111.38,93.84h2.28c1.6,0,2.28,.74,2.28,2.25v.6c0,1.01-.32,1.65-1.01,1.93v.03c.77,.24,1.02,.97,1.02,2.07v1.72c0,.48,.01,.83,.17,1.19h-1.57c-.08-.25-.14-.41-.14-1.2v-1.79c0-.91-.27-1.2-.97-1.2h-.53v4.2h-1.54v-9.81Zm2.1,4.2c.57,0,.92-.25,.92-1.04v-.76c0-.7-.24-1.01-.78-1.01h-.7v2.8h.56Z"/>
        <path class="cls-2" d="M118.76,95.24h-1.61v-1.4h4.76v1.4h-1.61v8.4h-1.54v-8.4Z"/>
      </g>
    </g>
    <g>
      <path class="cls-1" d="M28.03,44.78v-8.27c0-2.52,1.33-3.95,3.75-3.95s3.75,1.44,3.75,3.95v8.27c0,2.52-1.33,3.95-3.75,3.95s-3.75-1.44-3.75-3.95Zm5.03,.16v-8.58c0-1.12-.49-1.55-1.28-1.55s-1.28,.43-1.28,1.55v8.58c0,1.12,.49,1.55,1.28,1.55s1.28-.43,1.28-1.55Z"/>
      <path class="cls-1" d="M38.19,32.79h3.1l2.4,9.41h.04v-9.41h2.2v15.72h-2.54l-2.96-11.48h-.04v11.48h-2.2v-15.72Z"/>
      <path class="cls-1" d="M48.73,32.79h6.74v2.25h-4.27v4.16h3.39v2.25h-3.39v4.83h4.27v2.25h-6.74v-15.72Z"/>
      <path class="cls-1" d="M62.39,35.7h1.61v10.22h-1.61v-10.22Z"/>
      <path class="cls-1" d="M65.83,35.7h2.02l1.56,6.12h.03v-6.12h1.43v10.22h-1.65l-1.93-7.46h-.03v7.46h-1.43v-10.22Z"/>
      <path class="cls-1" d="M79.76,35.03h-2.58v-2.25h7.64v2.25h-2.58v13.48h-2.47v-13.48Z"/>
      <path class="cls-1" d="M86.92,32.79h2.38l1.1,12.08h.04l1.17-12.08h2.7l1.17,12.08h.04l1.1-12.08h2.13l-1.59,15.72h-3.08l-1.12-10.6h-.04l-1.12,10.6h-3.28l-1.59-15.72Z"/>
      <path class="cls-1" d="M100.96,44.78v-8.27c0-2.52,1.33-3.95,3.75-3.95s3.75,1.44,3.75,3.95v8.27c0,2.52-1.33,3.95-3.75,3.95s-3.75-1.44-3.75-3.95Zm5.03,.16v-8.58c0-1.12-.49-1.55-1.28-1.55s-1.28,.43-1.28,1.55v8.58c0,1.12,.49,1.55,1.28,1.55s1.28-.43,1.28-1.55Z"/>
    </g>
    <line class="cls-3" x1="71.64" y1="33.22" x2="61.78" y2="33.22"/>
    <line class="cls-3" x1="71.64" y1="48.4" x2="61.78" y2="48.4"/>
  </g>
</svg>