<?xml version="1.0" encoding="UTF-8"?>
<svg id="Layer_2" data-name="Layer 2" xmlns="http://www.w3.org/2000/svg" xmlns:xlink="http://www.w3.org/1999/xlink" viewBox="0 0 153.33 307.06">
  <defs>
    <style>
      .cls-1 {
        fill: #bdbcbb;
      }

      .cls-2 {
        fill: #c58e4a;
      }

      .cls-3 {
        fill: #fff;
      }

      .cls-4 {
        stroke: #c58e4a;
      }

      .cls-4, .cls-5, .cls-6 {
        fill: none;
      }

      .cls-4, .cls-6 {
        stroke-miterlimit: 10;
        stroke-width: .75px;
      }

      .cls-7 {
        fill: #939598;
      }

      .cls-8 {
        fill: #ffe8cd;
      }

      .cls-9 {
        fill: #ffedd8;
      }

      .cls-10 {
        fill: #f99d25;
      }

      .cls-11 {
        fill: #777677;
      }

      .cls-12 {
        clip-path: url(#clippath);
      }

      .cls-6 {
        stroke: #939598;
      }
    </style>
    <clipPath id="clippath">
      <circle class="cls-5" cx="84.04" cy="110.35" r="31.84"/>
    </clipPath>
  </defs>
  <g id="Layer_2-2" data-name="Layer 2">
    <polyline id="connector_line" data-name="connector line" class="cls-6" points="128.63 142.12 152.95 142.12 152.95 197.14 138.97 197.14"/>
    <polyline id="connector_line-2" data-name="connector line" class="cls-6" points="11.22 215.58 .38 215.58 .38 270.6 20.18 270.6"/>
    <rect class="cls-10" x="56.27" y="189.05" width="79.77" height="18.18"/>
    <g>
      <path class="cls-7" d="M30.6,193.7h1.54v3.99h1.65v-3.99h1.54v9.81h-1.54v-4.41h-1.65v4.41h-1.54v-9.81Z"/>
      <path class="cls-7" d="M38.23,193.7h2.09l1.6,9.81h-1.54l-.28-1.95v.03h-1.75l-.28,1.92h-1.43l1.6-9.81Zm1.68,6.56l-.69-4.85h-.03l-.67,4.85h1.39Z"/>
      <path class="cls-7" d="M42.42,193.7h1.55l1.01,7.61h.03l1.01-7.61h1.41l-1.48,9.81h-2.05l-1.48-9.81Z"/>
      <path class="cls-7" d="M48.73,193.7h4.2v1.4h-2.66v2.59h2.11v1.4h-2.11v3.01h2.66v1.4h-4.2v-9.81Z"/>
      <path class="cls-3" d="M59.97,193.7h1.54v8.4h2.54v1.4h-4.08v-9.81Z"/>
      <path class="cls-3" d="M65.35,193.7h4.2v1.4h-2.66v2.59h2.11v1.4h-2.11v3.01h2.66v1.4h-4.2v-9.81Z"/>
      <path class="cls-3" d="M70.75,201.18v-.56h1.46v.67c0,.7,.31,.95,.8,.95s.8-.25,.8-.98c0-.81-.31-1.33-1.32-2.21-1.29-1.13-1.71-1.93-1.71-3.05,0-1.54,.8-2.44,2.3-2.44s2.24,.9,2.24,2.47v.41h-1.46v-.5c0-.7-.28-.97-.77-.97s-.77,.27-.77,.94c0,.71,.32,1.23,1.33,2.12,1.29,1.13,1.69,1.92,1.69,3.14,0,1.6-.81,2.49-2.33,2.49s-2.27-.9-2.27-2.47Z"/>
      <path class="cls-3" d="M76.52,201.18v-.56h1.46v.67c0,.7,.31,.95,.8,.95s.8-.25,.8-.98c0-.81-.31-1.33-1.32-2.21-1.29-1.13-1.71-1.93-1.71-3.05,0-1.54,.8-2.44,2.3-2.44s2.24,.9,2.24,2.47v.41h-1.46v-.5c0-.7-.28-.97-.77-.97s-.77,.27-.77,.94c0,.71,.32,1.23,1.33,2.12,1.29,1.13,1.69,1.92,1.69,3.14,0,1.6-.81,2.49-2.33,2.49s-2.27-.9-2.27-2.47Z"/>
      <path class="cls-3" d="M86.56,195.1h-1.61v-1.4h4.76v1.4h-1.61v8.4h-1.54v-8.4Z"/>
      <path class="cls-3" d="M91.01,193.7h1.54v3.99h1.65v-3.99h1.54v9.81h-1.54v-4.41h-1.65v4.41h-1.54v-9.81Z"/>
      <path class="cls-3" d="M98.64,193.7h2.09l1.6,9.81h-1.54l-.28-1.95v.03h-1.75l-.28,1.92h-1.43l1.6-9.81Zm1.68,6.56l-.69-4.85h-.03l-.67,4.85h1.39Z"/>
      <path class="cls-3" d="M103.62,193.7h1.93l1.5,5.87h.03v-5.87h1.37v9.81h-1.58l-1.85-7.16h-.03v7.16h-1.37v-9.81Z"/>
      <path class="cls-3" d="M112.93,202.44c0-1.4,.39-2.26,1.54-3.46,1.18-1.25,1.51-1.99,1.51-2.9s-.31-1.12-.8-1.12-.8,.27-.8,.97v1.05h-1.46v-.95c0-1.57,.78-2.47,2.3-2.47s2.3,.9,2.3,2.47c0,1.16-.48,2.2-1.91,3.71-.92,.98-1.16,1.47-1.16,2.16v.21h2.93v1.4h-4.45v-1.06Z"/>
      <path class="cls-3" d="M119.01,201.18v-5.15c0-1.57,.83-2.47,2.34-2.47s2.34,.9,2.34,2.47v5.15c0,1.57-.83,2.47-2.34,2.47s-2.34-.9-2.34-2.47Zm3.14,.1v-5.35c0-.7-.31-.97-.8-.97s-.8,.27-.8,.97v5.35c0,.7,.31,.97,.8,.97s.8-.27,.8-.97Z"/>
      <path class="cls-3" d="M125.2,197.58v-2.45c0-1.01,.52-1.57,1.48-1.57s1.48,.56,1.48,1.57v2.45c0,1.01-.52,1.57-1.48,1.57s-1.48-.56-1.48-1.57Zm1.99,.07v-2.59c0-.43-.2-.62-.5-.62s-.5,.18-.5,.62v2.59c0,.43,.18,.62,.5,.62s.5-.18,.5-.62Zm3.05-3.95h.98l-3.8,9.81h-.98l3.8-9.81Zm-.74,8.38v-2.45c0-1.01,.52-1.57,1.48-1.57s1.48,.56,1.48,1.57v2.45c0,1.01-.52,1.57-1.48,1.57s-1.48-.56-1.48-1.57Zm1.99,.07v-2.59c0-.43-.2-.62-.5-.62s-.5,.18-.5,.62v2.59c0,.43,.18,.62,.5,.62s.5-.18,.5-.62Z"/>
      <path class="cls-7" d="M14.11,218.18v-5.15c0-1.57,.83-2.47,2.34-2.47s2.34,.9,2.34,2.47v5.15c0,1.57-.83,2.47-2.34,2.47s-2.34-.9-2.34-2.47Zm3.14,.1v-5.35c0-.7-.31-.97-.8-.97s-.8,.27-.8,.97v5.35c0,.7,.31,.97,.8,.97s.8-.27,.8-.97Z"/>
      <path class="cls-7" d="M20.38,210.7h4.08v1.4h-2.54v2.73h1.99v1.4h-1.99v4.27h-1.54v-9.81Z"/>
      <path class="cls-7" d="M29.76,212.1h-1.61v-1.4h4.76v1.4h-1.61v8.4h-1.54v-8.4Z"/>
      <path class="cls-7" d="M34.21,210.7h1.54v3.99h1.65v-3.99h1.54v9.81h-1.54v-4.41h-1.65v4.41h-1.54v-9.81Z"/>
      <path class="cls-7" d="M40.65,210.7h4.2v1.4h-2.66v2.59h2.11v1.4h-2.11v3.01h2.66v1.4h-4.2v-9.81Z"/>
      <path class="cls-7" d="M46.3,210.7h1.54v9.81h-1.54v-9.81Z"/>
      <path class="cls-7" d="M49.54,210.7h2.28c1.6,0,2.28,.74,2.28,2.25v.6c0,1.01-.32,1.65-1.01,1.93v.03c.77,.24,1.02,.97,1.02,2.07v1.72c0,.48,.01,.83,.17,1.19h-1.57c-.08-.25-.14-.41-.14-1.2v-1.79c0-.91-.27-1.2-.97-1.2h-.53v4.2h-1.54v-9.81Zm2.1,4.2c.57,0,.92-.25,.92-1.04v-.76c0-.7-.24-1.01-.78-1.01h-.7v2.8h.56Z"/>
      <path class="cls-7" d="M59.74,210.7h2.09l1.6,9.81h-1.54l-.28-1.95v.03h-1.75l-.28,1.92h-1.43l1.6-9.81Zm1.68,6.56l-.69-4.85h-.03l-.67,4.85h1.39Z"/>
      <path class="cls-7" d="M64.72,210.7h2.28c1.6,0,2.28,.74,2.28,2.25v.6c0,1.01-.32,1.65-1.01,1.93v.03c.77,.24,1.02,.97,1.02,2.07v1.72c0,.48,.01,.83,.17,1.19h-1.57c-.08-.25-.14-.41-.14-1.2v-1.79c0-.91-.27-1.2-.97-1.2h-.53v4.2h-1.54v-9.81Zm2.1,4.2c.57,0,.92-.25,.92-1.04v-.76c0-.7-.24-1.01-.78-1.01h-.7v2.8h.56Z"/>
      <path class="cls-7" d="M70.92,210.7h4.2v1.4h-2.66v2.59h2.11v1.4h-2.11v3.01h2.66v1.4h-4.2v-9.81Z"/>
      <path class="cls-7" d="M77.75,210.7h2.09l1.6,9.81h-1.54l-.28-1.95v.03h-1.75l-.28,1.92h-1.43l1.6-9.81Zm1.68,6.56l-.69-4.85h-.03l-.67,4.85h1.39Z"/>
      <path class="cls-7" d="M85.54,210.7h2.35c1.54,0,2.3,.85,2.3,2.42v4.96c0,1.57-.76,2.42-2.3,2.42h-2.35v-9.81Zm2.33,8.4c.49,0,.78-.25,.78-.95v-5.1c0-.7-.29-.95-.78-.95h-.78v7h.78Z"/>
      <path class="cls-7" d="M91.78,210.7h4.2v1.4h-2.66v2.59h2.11v1.4h-2.11v3.01h2.66v1.4h-4.2v-9.81Z"/>
      <path class="cls-7" d="M97.42,210.7h2.35c1.54,0,2.3,.85,2.3,2.42v4.96c0,1.57-.76,2.42-2.3,2.42h-2.35v-9.81Zm2.33,8.4c.49,0,.78-.25,.78-.95v-5.1c0-.7-.29-.95-.78-.95h-.78v7h.78Z"/>
      <path class="cls-7" d="M103.67,210.7h1.54v9.81h-1.54v-9.81Z"/>
      <path class="cls-7" d="M106.82,218.23v-5.27c0-1.51,.78-2.41,2.27-2.41s2.27,.9,2.27,2.41v1.04h-1.46v-1.13c0-.64-.31-.91-.77-.91s-.77,.27-.77,.91v5.48c0,.64,.31,.9,.77,.9s.77-.25,.77-.9v-1.5h1.46v1.39c0,1.51-.78,2.41-2.27,2.41s-2.27-.9-2.27-2.41Z"/>
      <path class="cls-7" d="M114.03,210.7h2.09l1.6,9.81h-1.54l-.28-1.95v.03h-1.75l-.28,1.92h-1.43l1.6-9.81Zm1.68,6.56l-.69-4.85h-.03l-.67,4.85h1.39Z"/>
      <path class="cls-7" d="M119.57,212.1h-1.61v-1.4h4.76v1.4h-1.61v8.4h-1.54v-8.4Z"/>
      <path class="cls-7" d="M124.02,210.7h4.2v1.4h-2.66v2.59h2.11v1.4h-2.11v3.01h2.66v1.4h-4.2v-9.81Z"/>
      <path class="cls-7" d="M129.66,210.7h2.35c1.54,0,2.3,.85,2.3,2.42v4.96c0,1.57-.76,2.42-2.3,2.42h-2.35v-9.81Zm2.33,8.4c.49,0,.78-.25,.78-.95v-5.1c0-.7-.29-.95-.78-.95h-.78v7h.78Z"/>
      <path class="cls-7" d="M139.91,212.1h-1.61v-1.4h4.76v1.4h-1.61v8.4h-1.54v-8.4Z"/>
      <path class="cls-7" d="M144.2,218.18v-5.15c0-1.57,.83-2.47,2.34-2.47s2.34,.9,2.34,2.47v5.15c0,1.57-.83,2.47-2.34,2.47s-2.34-.9-2.34-2.47Zm3.14,.1v-5.35c0-.7-.31-.97-.8-.97s-.8,.27-.8,.97v5.35c0,.7,.31,.97,.8,.97s.8-.27,.8-.97Z"/>
      <path class="cls-10" d="M14.67,226.7h2.27c1.54,0,2.3,.85,2.3,2.42v.97c0,1.57-.76,2.42-2.3,2.42h-.73v3.99h-1.54v-9.81Zm2.27,4.41c.49,0,.76-.22,.76-.92v-1.16c0-.7-.27-.92-.76-.92h-.73v3.01h.73Z"/>
      <path class="cls-10" d="M20.58,234.18v-7.48h1.54v7.59c0,.7,.29,.95,.78,.95s.78-.25,.78-.95v-7.59h1.48v7.48c0,1.57-.78,2.47-2.3,2.47s-2.3-.9-2.3-2.47Z"/>
      <path class="cls-10" d="M26.82,226.7h2.33c1.6,0,2.28,.74,2.28,2.25v.39c0,1.01-.31,1.64-.99,1.92v.03c.83,.28,1.15,1.01,1.15,2.05v.84c0,1.51-.8,2.33-2.34,2.33h-2.42v-9.81Zm2.14,3.99c.57,0,.92-.25,.92-1.04v-.55c0-.7-.24-1.01-.78-1.01h-.74v2.59h.6Zm.28,4.41c.52,0,.8-.24,.8-.97v-.85c0-.91-.29-1.19-.99-1.19h-.69v3.01h.88Z"/>
      <path class="cls-10" d="M33.04,226.7h1.54v8.4h2.54v1.4h-4.08v-9.81Z"/>
      <path class="cls-10" d="M38.41,226.7h1.54v9.81h-1.54v-9.81Z"/>
      <path class="cls-10" d="M41.56,234.23v-5.27c0-1.51,.78-2.41,2.27-2.41s2.27,.9,2.27,2.41v1.04h-1.46v-1.13c0-.64-.31-.91-.77-.91s-.77,.27-.77,.91v5.48c0,.64,.31,.9,.77,.9s.77-.25,.77-.9v-1.5h1.46v1.39c0,1.51-.78,2.41-2.27,2.41s-2.27-.9-2.27-2.41Z"/>
      <path class="cls-10" d="M50.12,234.18v-.56h1.46v.67c0,.7,.31,.95,.8,.95s.8-.25,.8-.98c0-.81-.31-1.33-1.32-2.21-1.29-1.13-1.71-1.93-1.71-3.05,0-1.54,.8-2.44,2.3-2.44s2.24,.9,2.24,2.47v.41h-1.46v-.5c0-.7-.28-.97-.77-.97s-.77,.27-.77,.94c0,.71,.32,1.23,1.33,2.12,1.29,1.13,1.69,1.92,1.69,3.14,0,1.6-.81,2.49-2.33,2.49s-2.27-.9-2.27-2.47Z"/>
      <path class="cls-10" d="M56.15,226.7h2.27c1.54,0,2.3,.85,2.3,2.42v.97c0,1.57-.76,2.42-2.3,2.42h-.73v3.99h-1.54v-9.81Zm2.27,4.41c.49,0,.76-.22,.76-.92v-1.16c0-.7-.27-.92-.76-.92h-.73v3.01h.73Z"/>
      <path class="cls-10" d="M62.82,226.7h2.09l1.6,9.81h-1.54l-.28-1.95v.03h-1.75l-.28,1.92h-1.43l1.6-9.81Zm1.68,6.56l-.69-4.85h-.03l-.67,4.85h1.39Z"/>
      <path class="cls-10" d="M67.67,234.23v-5.27c0-1.51,.78-2.41,2.27-2.41s2.27,.9,2.27,2.41v1.04h-1.46v-1.13c0-.64-.31-.91-.77-.91s-.77,.27-.77,.91v5.48c0,.64,.31,.9,.77,.9s.77-.25,.77-.9v-1.5h1.46v1.39c0,1.51-.78,2.41-2.27,2.41s-2.27-.9-2.27-2.41Z"/>
      <path class="cls-10" d="M73.69,226.7h4.2v1.4h-2.66v2.59h2.11v1.4h-2.11v3.01h2.66v1.4h-4.2v-9.81Z"/>
      <path class="cls-10" d="M79.1,234.18v-.56h1.46v.67c0,.7,.31,.95,.8,.95s.8-.25,.8-.98c0-.81-.31-1.33-1.32-2.21-1.29-1.13-1.71-1.93-1.71-3.05,0-1.54,.8-2.44,2.3-2.44s2.24,.9,2.24,2.47v.41h-1.46v-.5c0-.7-.28-.97-.77-.97s-.77,.27-.77,.94c0,.71,.32,1.23,1.33,2.12,1.29,1.13,1.69,1.92,1.69,3.14,0,1.6-.81,2.49-2.33,2.49s-2.27-.9-2.27-2.47Z"/>
      <path class="cls-7" d="M89.12,226.7h2.09l1.6,9.81h-1.54l-.28-1.95v.03h-1.75l-.28,1.92h-1.43l1.6-9.81Zm1.68,6.56l-.69-4.85h-.03l-.67,4.85h1.39Z"/>
      <path class="cls-7" d="M94.1,226.7h1.93l1.5,5.87h.03v-5.87h1.37v9.81h-1.58l-1.85-7.16h-.03v7.16h-1.37v-9.81Z"/>
      <path class="cls-7" d="M100.64,226.7h2.35c1.54,0,2.3,.85,2.3,2.42v4.96c0,1.57-.76,2.42-2.3,2.42h-2.35v-9.81Zm2.33,8.4c.49,0,.78-.25,.78-.95v-5.1c0-.7-.29-.95-.78-.95h-.78v7h.78Z"/>
      <path class="cls-10" d="M109.42,234.18v-.56h1.46v.67c0,.7,.31,.95,.8,.95s.8-.25,.8-.98c0-.81-.31-1.33-1.32-2.21-1.29-1.13-1.71-1.93-1.71-3.05,0-1.54,.8-2.44,2.3-2.44s2.24,.9,2.24,2.47v.41h-1.46v-.5c0-.7-.28-.97-.77-.97s-.77,.27-.77,.94c0,.71,.32,1.23,1.33,2.12,1.29,1.13,1.69,1.92,1.69,3.14,0,1.6-.81,2.49-2.33,2.49s-2.27-.9-2.27-2.47Z"/>
      <path class="cls-10" d="M116.66,228.1h-1.61v-1.4h4.76v1.4h-1.61v8.4h-1.54v-8.4Z"/>
      <path class="cls-10" d="M121.11,226.7h2.28c1.6,0,2.28,.74,2.28,2.25v.6c0,1.01-.32,1.65-1.01,1.93v.03c.77,.24,1.02,.97,1.02,2.07v1.72c0,.48,.01,.83,.17,1.19h-1.57c-.08-.25-.14-.41-.14-1.2v-1.79c0-.91-.27-1.2-.97-1.2h-.53v4.2h-1.54v-9.81Zm2.1,4.2c.57,0,.92-.25,.92-1.04v-.76c0-.7-.24-1.01-.78-1.01h-.7v2.8h.56Z"/>
      <path class="cls-10" d="M127.31,226.7h4.2v1.4h-2.66v2.59h2.11v1.4h-2.11v3.01h2.66v1.4h-4.2v-9.81Z"/>
      <path class="cls-10" d="M132.95,226.7h4.2v1.4h-2.66v2.59h2.11v1.4h-2.11v3.01h2.66v1.4h-4.2v-9.81Z"/>
      <path class="cls-10" d="M139.8,228.1h-1.61v-1.4h4.76v1.4h-1.61v8.4h-1.54v-8.4Z"/>
      <path class="cls-10" d="M143.99,234.18v-.56h1.46v.67c0,.7,.31,.95,.8,.95s.8-.25,.8-.98c0-.81-.31-1.33-1.32-2.21-1.29-1.13-1.71-1.93-1.71-3.05,0-1.54,.8-2.44,2.3-2.44s2.24,.9,2.24,2.47v.41h-1.46v-.5c0-.7-.28-.97-.77-.97s-.77,.27-.77,.94c0,.71,.32,1.23,1.33,2.12,1.29,1.13,1.69,1.92,1.69,3.14,0,1.6-.81,2.49-2.33,2.49s-2.27-.9-2.27-2.47Z"/>
    </g>
    <g>
      <path class="cls-7" d="M62.68,7.07V2.29c0-1.46,.73-2.29,2.13-2.29s2.13,.83,2.13,2.29v.78h-1.35v-.87c0-.65-.29-.9-.74-.9s-.74,.25-.74,.9V7.18c0,.65,.29,.88,.74,.88s.74-.23,.74-.88v-1.78h-.72v-1.3h2.07v2.98c0,1.46-.73,2.29-2.13,2.29s-2.13-.83-2.13-2.29Z"/>
      <path class="cls-7" d="M68.19,.13h1.43V7.93h2.35v1.3h-3.78V.13Z"/>
      <path class="cls-7" d="M72.83,7.07V2.29c0-1.46,.77-2.29,2.17-2.29s2.17,.83,2.17,2.29V7.07c0,1.46-.77,2.29-2.17,2.29s-2.17-.83-2.17-2.29Zm2.91,.09V2.2c0-.65-.29-.9-.74-.9s-.74,.25-.74,.9V7.16c0,.65,.29,.9,.74,.9s.74-.25,.74-.9Z"/>
      <path class="cls-7" d="M78.46,.13h2.16c1.48,0,2.12,.69,2.12,2.09v.36c0,.94-.29,1.52-.92,1.78v.03c.77,.26,1.07,.94,1.07,1.9v.78c0,1.4-.74,2.16-2.17,2.16h-2.25V.13Zm1.99,3.71c.53,0,.86-.23,.86-.96v-.51c0-.65-.22-.94-.73-.94h-.69V3.84h.56Zm.26,4.09c.48,0,.74-.22,.74-.9v-.79c0-.84-.27-1.1-.92-1.1h-.64v2.79h.82Z"/>
      <path class="cls-7" d="M85.14,.13h1.94l1.48,9.1h-1.43l-.26-1.81v.03h-1.63l-.26,1.78h-1.33L85.14,.13Zm1.56,6.08l-.64-4.5h-.03l-.62,4.5h1.29Z"/>
      <path class="cls-7" d="M89.57,.13h1.43V7.93h2.35v1.3h-3.78V.13Z"/>
      <path class="cls-7" d="M94.37,.13h1.43V7.93h2.35v1.3h-3.78V.13Z"/>
      <path class="cls-7" d="M99.34,5.36l-1.73-5.23h1.52l.98,3.34h.03l.97-3.34h1.39l-1.73,5.23v3.87h-1.43v-3.87Z"/>
      <path class="cls-7" d="M102.73,9.23h-.47v-1.38h1.38v1.23l-.72,1.7h-.66l.47-1.56Z"/>
    </g>
    <rect class="cls-9" x="14.22" y="248.76" width="135.3" height="58.3"/>
    <g>
      <path class="cls-7" d="M27.81,259.79h2.2l.98,7.02h.03l.98-7.02h2.2v9.81h-1.46v-7.42h-.03l-1.12,7.42h-1.29l-1.12-7.42h-.03v7.42h-1.34v-9.81Z"/>
      <path class="cls-7" d="M35.85,267.27v-7.48h1.54v7.59c0,.7,.29,.95,.78,.95s.78-.25,.78-.95v-7.59h1.48v7.48c0,1.57-.78,2.47-2.3,2.47s-2.3-.9-2.3-2.47Z"/>
      <path class="cls-7" d="M41.99,267.32v-5.27c0-1.51,.78-2.41,2.27-2.41s2.27,.9,2.27,2.41v1.04h-1.46v-1.13c0-.64-.31-.91-.77-.91s-.77,.27-.77,.91v5.48c0,.64,.31,.9,.77,.9s.77-.25,.77-.9v-1.5h1.46v1.39c0,1.51-.78,2.41-2.27,2.41s-2.27-.9-2.27-2.41Z"/>
      <path class="cls-7" d="M48.01,259.79h1.54v3.99h1.65v-3.99h1.54v9.81h-1.54v-4.41h-1.65v4.41h-1.54v-9.81Z"/>
      <path class="cls-7" d="M57.25,259.79h1.54v8.4h2.54v1.4h-4.08v-9.81Z"/>
      <path class="cls-7" d="M62.46,267.27v-5.15c0-1.57,.83-2.47,2.34-2.47s2.34,.9,2.34,2.47v5.15c0,1.57-.83,2.47-2.34,2.47s-2.34-.9-2.34-2.47Zm3.14,.1v-5.35c0-.7-.31-.97-.8-.97s-.8,.27-.8,.97v5.35c0,.7,.31,.97,.8,.97s.8-.27,.8-.97Z"/>
      <path class="cls-7" d="M68.37,259.79h1.48l.69,7.54h.03l.73-7.54h1.68l.73,7.54h.03l.69-7.54h1.33l-.99,9.81h-1.92l-.7-6.61h-.03l-.7,6.61h-2.05l-.99-9.81Z"/>
      <path class="cls-7" d="M77.09,259.79h4.2v1.4h-2.66v2.59h2.11v1.4h-2.11v3.01h2.66v1.4h-4.2v-9.81Z"/>
      <path class="cls-7" d="M82.73,259.79h2.28c1.6,0,2.28,.74,2.28,2.25v.6c0,1.01-.32,1.65-1.01,1.93v.03c.77,.24,1.02,.97,1.02,2.07v1.72c0,.48,.01,.83,.17,1.19h-1.57c-.08-.25-.14-.41-.14-1.2v-1.79c0-.91-.27-1.2-.97-1.2h-.53v4.2h-1.54v-9.81Zm2.1,4.2c.57,0,.92-.25,.92-1.04v-.76c0-.7-.24-1.01-.78-1.01h-.7v2.8h.56Z"/>
      <path class="cls-7" d="M92.94,261.19h-1.61v-1.4h4.76v1.4h-1.61v8.4h-1.54v-8.4Z"/>
      <path class="cls-7" d="M97.39,259.79h1.54v3.99h1.65v-3.99h1.54v9.81h-1.54v-4.41h-1.65v4.41h-1.54v-9.81Z"/>
      <path class="cls-7" d="M105.02,259.79h2.09l1.6,9.81h-1.54l-.28-1.95v.03h-1.75l-.28,1.92h-1.43l1.6-9.81Zm1.68,6.56l-.69-4.85h-.03l-.67,4.85h1.39Z"/>
      <path class="cls-7" d="M110,259.79h1.93l1.5,5.87h.03v-5.87h1.37v9.81h-1.58l-1.85-7.16h-.03v7.16h-1.37v-9.81Z"/>
      <path class="cls-7" d="M120.55,261.19h-1.61v-1.4h4.76v1.4h-1.61v8.4h-1.54v-8.4Z"/>
      <path class="cls-7" d="M125,259.79h1.54v3.99h1.65v-3.99h1.54v9.81h-1.54v-4.41h-1.65v4.41h-1.54v-9.81Z"/>
      <path class="cls-7" d="M131.44,259.79h4.2v1.4h-2.66v2.59h2.11v1.4h-2.11v3.01h2.66v1.4h-4.2v-9.81Z"/>
      <path class="cls-2" d="M38.83,277.19h-1.61v-1.4h4.76v1.4h-1.61v8.4h-1.54v-8.4Z"/>
      <path class="cls-2" d="M43.83,275.79h2.09l1.6,9.81h-1.54l-.28-1.95v.03h-1.75l-.28,1.92h-1.43l1.6-9.81Zm1.68,6.56l-.69-4.85h-.03l-.67,4.85h1.39Z"/>
      <path class="cls-2" d="M48.81,275.79h2.28c1.6,0,2.28,.74,2.28,2.25v.6c0,1.01-.32,1.65-1.01,1.93v.03c.77,.24,1.02,.97,1.02,2.07v1.72c0,.48,.01,.83,.17,1.19h-1.57c-.08-.25-.14-.41-.14-1.2v-1.79c0-.91-.27-1.2-.97-1.2h-.53v4.2h-1.54v-9.81Zm2.1,4.2c.57,0,.92-.25,.92-1.04v-.76c0-.7-.24-1.01-.78-1.01h-.7v2.8h.56Z"/>
      <path class="cls-2" d="M54.9,283.27v-5.15c0-1.57,.78-2.47,2.3-2.47s2.3,.9,2.3,2.47v.84h-1.46v-.94c0-.7-.31-.97-.8-.97s-.8,.27-.8,.97v5.36c0,.7,.31,.95,.8,.95s.8-.25,.8-.95v-1.92h-.77v-1.4h2.23v3.21c0,1.57-.78,2.47-2.3,2.47s-2.3-.9-2.3-2.47Z"/>
      <path class="cls-2" d="M61.05,275.79h4.2v1.4h-2.66v2.59h2.11v1.4h-2.11v3.01h2.66v1.4h-4.2v-9.81Z"/>
      <path class="cls-2" d="M67.89,277.19h-1.61v-1.4h4.76v1.4h-1.61v8.4h-1.54v-8.4Z"/>
      <path class="cls-2" d="M75.03,283.27v-5.15c0-1.57,.83-2.47,2.34-2.47s2.34,.9,2.34,2.47v5.15c0,1.57-.83,2.47-2.34,2.47s-2.34-.9-2.34-2.47Zm3.14,.1v-5.35c0-.7-.31-.97-.8-.97s-.8,.27-.8,.97v5.35c0,.7,.31,.97,.8,.97s.8-.27,.8-.97Z"/>
      <path class="cls-2" d="M81.3,275.79h4.08v1.4h-2.54v2.73h1.99v1.4h-1.99v4.27h-1.54v-9.81Z"/>
      <path class="cls-2" d="M92.06,283.81h-2.94v-1.4l2.8-6.63h1.68v6.63h.73v1.4h-.73v1.78h-1.54v-1.78Zm0-1.4v-3.82h-.03l-1.51,3.82h1.54Z"/>
      <path class="cls-2" d="M95.6,283.27v-.77h1.46v.88c0,.7,.31,.95,.8,.95s.8-.25,.8-.95v-2.2c0-.7-.31-.97-.8-.97s-.8,.27-.8,.97v.08h-1.46l.28-5.48h4.06v1.4h-2.69l-.13,2.34h.03c.28-.46,.71-.71,1.33-.71,1.13,0,1.71,.8,1.71,2.24v2.21c0,1.57-.78,2.47-2.3,2.47s-2.3-.9-2.3-2.47Z"/>
      <path class="cls-2" d="M101.58,279.99h3.08v1.4h-3.08v-1.4Z"/>
      <path class="cls-2" d="M106.1,283.27v-.77h1.46v.88c0,.7,.31,.95,.8,.95s.8-.25,.8-.95v-2.2c0-.7-.31-.97-.8-.97s-.8,.27-.8,.97v.08h-1.46l.28-5.48h4.06v1.4h-2.69l-.13,2.34h.03c.28-.46,.71-.71,1.33-.71,1.13,0,1.71,.8,1.71,2.24v2.21c0,1.57-.78,2.47-2.3,2.47s-2.3-.9-2.3-2.47Z"/>
      <path class="cls-2" d="M112.19,283.27v-5.15c0-1.57,.83-2.47,2.34-2.47s2.34,.9,2.34,2.47v5.15c0,1.57-.83,2.47-2.34,2.47s-2.34-.9-2.34-2.47Zm3.14,.1v-5.35c0-.7-.31-.97-.8-.97s-.8,.27-.8,.97v5.35c0,.7,.31,.97,.8,.97s.8-.27,.8-.97Z"/>
      <path class="cls-2" d="M118.38,279.67v-2.45c0-1.01,.52-1.57,1.48-1.57s1.48,.56,1.48,1.57v2.45c0,1.01-.52,1.57-1.48,1.57s-1.48-.56-1.48-1.57Zm1.99,.07v-2.59c0-.43-.2-.62-.5-.62s-.5,.18-.5,.62v2.59c0,.43,.18,.62,.5,.62s.5-.18,.5-.62Zm3.05-3.95h.98l-3.8,9.81h-.98l3.8-9.81Zm-.74,8.38v-2.45c0-1.01,.52-1.57,1.48-1.57s1.48,.56,1.48,1.57v2.45c0,1.01-.52,1.57-1.48,1.57s-1.48-.56-1.48-1.57Zm1.99,.07v-2.59c0-.43-.2-.62-.5-.62s-.5,.18-.5,.62v2.59c0,.43,.18,.62,.5,.62s.5-.18,.5-.62Z"/>
    </g>
    <g>
      <path class="cls-7" d="M71.64,297.44v-4.94c0-1.12,.44-1.53,1.54-1.53h.34v.9h-.27c-.35,0-.51,.13-.51,.63v4.94c0,.5,.16,.63,.51,.63h.27v.9h-.34c-1.1,0-1.54-.41-1.54-1.53Z"/>
      <path class="cls-7" d="M74.26,297.71c0-1,.28-1.61,1.1-2.47,.84-.89,1.08-1.42,1.08-2.07s-.22-.8-.57-.8-.57,.19-.57,.69v.75h-1.04v-.68c0-1.12,.56-1.76,1.64-1.76s1.64,.64,1.64,1.76c0,.83-.34,1.57-1.36,2.65-.66,.7-.83,1.05-.83,1.54v.15h2.09v1h-3.18v-.76Z"/>
      <path class="cls-7" d="M78.2,296.81v-3.68c0-1.12,.59-1.76,1.67-1.76s1.67,.64,1.67,1.76v3.68c0,1.12-.59,1.76-1.67,1.76s-1.67-.64-1.67-1.76Zm2.24,.07v-3.82c0-.5-.22-.69-.57-.69s-.57,.19-.57,.69v3.82c0,.5,.22,.69,.57,.69s.57-.19,.57-.69Z"/>
      <path class="cls-7" d="M82.26,297.71c0-1,.28-1.61,1.1-2.47,.84-.89,1.08-1.42,1.08-2.07s-.22-.8-.57-.8-.57,.19-.57,.69v.75h-1.04v-.68c0-1.12,.56-1.76,1.64-1.76s1.64,.64,1.64,1.76c0,.83-.34,1.57-1.36,2.65-.66,.7-.83,1.05-.83,1.54v.15h2.09v1h-3.18v-.76Z"/>
      <path class="cls-7" d="M86.2,296.81v-3.68c0-1.12,.59-1.76,1.67-1.76s1.67,.64,1.67,1.76v3.68c0,1.12-.59,1.76-1.67,1.76s-1.67-.64-1.67-1.76Zm2.24,.07v-3.82c0-.5-.22-.69-.57-.69s-.57,.19-.57,.69v3.82c0,.5,.22,.69,.57,.69s.57-.19,.57-.69Z"/>
      <path class="cls-7" d="M90.22,298.07h.27c.35,0,.51-.13,.51-.63v-4.94c0-.5-.16-.63-.51-.63h-.27v-.9h.34c1.1,0,1.54,.41,1.54,1.53v4.94c0,1.12-.44,1.53-1.54,1.53h-.34v-.9Z"/>
    </g>
    <line class="cls-6" x1="108.82" y1="2.22" x2="127.12" y2="2.22"/>
    <line class="cls-6" x1="108.82" y1="5.85" x2="127.12" y2="5.85"/>
    <g>
      <line class="cls-6" x1="36.82" y1="2.22" x2="54.16" y2="2.22"/>
      <line class="cls-6" x1="36.82" y1="5.85" x2="54.16" y2="5.85"/>
    </g>
    <g>
      <g id="Element_1">
        <g>
          <path class="cls-10" d="M144.15,110.43h0c-.03,26.04-16.83,49.09-41.61,57.11l-9.25-28.59c12.39-4.01,20.79-15.53,20.8-28.55l30.05,.04Z"/>
          <path class="cls-8" d="M102.54,167.54c-24.78,8.01-51.89-.84-67.17-21.92-15.28-21.09-15.24-49.61,.09-70.66,15.33-21.05,42.47-29.82,67.23-21.75,24.75,8.08,41.49,31.18,41.46,57.22l-30.05-.04c.02-13.02-8.35-24.57-20.73-28.61-12.38-4.04-25.95,.35-33.61,10.87-7.67,10.52-7.69,24.79-.05,35.33,7.64,10.54,21.2,14.97,33.59,10.96l9.25,28.59Z"/>
        </g>
      </g>
      <circle class="cls-3" cx="84.04" cy="110.35" r="33.52"/>
      <g class="cls-12">
        <g>
          <g>
            <path class="cls-1" d="M86.86,118.47c0-3.66,.96-7.22,2.73-10.36-1.1-.04-2.16-.27-3.14-.68l-2.68,5.37-2.68-5.37c-.99,.41-2.05,.63-3.14,.68,1.76,3.14,2.73,6.7,2.73,10.36v2.35c0,2.81-1.12,5.5-3.1,7.49h12.41c-1.99-1.99-3.1-4.68-3.1-7.49v-2.35Z"/>
            <path class="cls-1" d="M92.69,91.61c-1.12-3.88-4.7-6.72-8.93-6.72s-7.81,2.85-8.93,6.72c-2.93,1.11-5.02,3.92-5.02,7.23,0,4.28,3.48,7.75,7.75,7.75,2.52,0,4.75-1.23,6.17-3.1,.01,0,.02,0,.04,0s.03,0,.04,0c1.42,1.87,3.64,3.1,6.17,3.1,4.28,0,7.75-3.48,7.75-7.75,0-3.31-2.1-6.12-5.02-7.23h0Z"/>
            <path class="cls-11" d="M76,122.1h-12.41c-.86,0-1.55,.69-1.55,1.55s.69,1.55,1.55,1.55v1.55c0,.86,.69,1.55,1.55,1.55s1.55-.69,1.55-1.55v-1.55h6.2v1.55c0,.86,.69,1.55,1.55,1.55s1.55-.69,1.55-1.55v-1.55c.86,0,1.55-.69,1.55-1.55s-.69-1.55-1.55-1.55Z"/>
            <path class="cls-11" d="M76,117.45c0-.86-.69-1.55-1.55-1.55h-9.3c-.86,0-1.55,.69-1.55,1.55v3.1h12.41v-3.1Z"/>
            <path class="cls-11" d="M103.92,122.1h-12.41c-.86,0-1.55,.69-1.55,1.55s.69,1.55,1.55,1.55v1.55c0,.86,.69,1.55,1.55,1.55s1.55-.69,1.55-1.55v-1.55h6.2v1.55c0,.86,.69,1.55,1.55,1.55s1.55-.69,1.55-1.55v-1.55c.86,0,1.55-.69,1.55-1.55s-.69-1.55-1.55-1.55Z"/>
            <path class="cls-11" d="M103.92,117.45c0-.86-.69-1.55-1.55-1.55h-9.3c-.86,0-1.55,.69-1.55,1.55v3.1h12.41v-3.1Z"/>
          </g>
          <rect class="cls-11" x="55.45" y="129.5" width="56.61" height="18.46"/>
        </g>
      </g>
    </g>
    <g>
      <path class="cls-2" d="M36.25,30.63v-1.28h2.34v1.39c0,1.12,.49,1.55,1.28,1.55s1.28-.38,1.28-1.77v-1.28c0-1.46-.49-2-1.62-2h-.83v-2.25h.9c.92,0,1.48-.4,1.48-1.66v-1.15c0-1.12-.52-1.57-1.24-1.57s-1.19,.43-1.19,1.46v1.03h-2.34v-.83c0-2.52,1.26-3.91,3.62-3.91s3.62,1.37,3.62,3.89v.56c0,1.68-.54,2.72-1.75,3.17v.04c1.33,.49,1.82,1.64,1.82,3.23v1.39c0,2.52-1.26,3.89-3.68,3.89s-3.68-1.39-3.68-3.91Z"/>
      <path class="cls-2" d="M50.93,21.51h1.61v10.22h-1.61v-10.22Z"/>
      <path class="cls-2" d="M54.36,21.51h2.02l1.56,6.12h.03v-6.12h1.43v10.22h-1.65l-1.93-7.46h-.03v7.46h-1.43v-10.22Z"/>
      <path class="cls-2" d="M70.5,31.46h-4.72v-2.25l4.49-10.62h2.7v10.62h1.17v2.25h-1.17v2.85h-2.47v-2.85Zm0-2.25v-6.13h-.04l-2.43,6.13h2.47Z"/>
      <path class="cls-2" d="M81.03,30.68v-8.45c0-2.43,1.26-3.86,3.64-3.86s3.64,1.44,3.64,3.86v1.66h-2.34v-1.82c0-1.03-.49-1.46-1.24-1.46s-1.24,.43-1.24,1.46v8.78c0,1.03,.49,1.44,1.24,1.44s1.24-.4,1.24-1.44v-2.4h2.34v2.22c0,2.43-1.26,3.86-3.64,3.86s-3.64-1.44-3.64-3.86Z"/>
      <path class="cls-2" d="M90.84,18.59h2.47v15.72h-2.47v-15.72Z"/>
      <path class="cls-2" d="M98.27,20.84h-2.58v-2.25h7.64v2.25h-2.58v13.48h-2.47v-13.48Z"/>
      <path class="cls-2" d="M105.71,18.59h2.47v15.72h-2.47v-15.72Z"/>
      <path class="cls-2" d="M110.95,18.59h6.74v2.25h-4.27v4.16h3.39v2.25h-3.39v4.83h4.27v2.25h-6.74v-15.72Z"/>
      <path class="cls-2" d="M119.95,30.59v-.9h2.34v1.08c0,1.12,.49,1.53,1.28,1.53s1.28-.4,1.28-1.57c0-1.3-.49-2.13-2.11-3.55-2.07-1.82-2.74-3.1-2.74-4.9,0-2.47,1.28-3.91,3.68-3.91s3.59,1.44,3.59,3.95v.65h-2.34v-.81c0-1.12-.45-1.55-1.24-1.55s-1.24,.43-1.24,1.5c0,1.15,.52,1.98,2.13,3.39,2.07,1.82,2.72,3.08,2.72,5.03,0,2.56-1.3,4-3.73,4s-3.64-1.44-3.64-3.95Z"/>
    </g>
    <line class="cls-4" x1="60.18" y1="19.22" x2="50.32" y2="19.22"/>
    <line class="cls-4" x1="60.18" y1="34.4" x2="50.32" y2="34.4"/>
  </g>
</svg>