<?xml version="1.0" encoding="UTF-8"?>
<svg id="Layer_2" data-name="Layer 2" xmlns="http://www.w3.org/2000/svg" viewBox="0 0 301.23 218.6">
  <defs>
    <style>
      .cls-1 {
        fill: #bdbcbb;
      }

      .cls-2, .cls-3 {
        fill: #fff;
      }

      .cls-4, .cls-5 {
        fill: #939598;
      }

      .cls-6 {
        fill: #eceef0;
      }

      .cls-3 {
        stroke: #fff;
        stroke-width: 2px;
      }

      .cls-3, .cls-5, .cls-7 {
        stroke-miterlimit: 10;
      }

      .cls-8 {
        fill: #e2e3e4;
      }

      .cls-5 {
        stroke: #eceef0;
        stroke-width: .76px;
      }

      .cls-9 {
        fill: #777677;
      }

      .cls-7 {
        fill: none;
        stroke: #d8a358;
        stroke-width: 5px;
      }

      .cls-10 {
        fill: #efdbbe;
      }

      .cls-11 {
        fill: #cd8b2a;
      }
    </style>
  </defs>
  <g id="Layer_2-2" data-name="Layer 2">
    <path class="cls-8" d="M109.73,56.26c-41.99,0-76.02,34.03-76.02,76.02s34.03,76.02,76.02,76.02,76.02-34.03,76.02-76.02S151.72,56.26,109.73,56.26Zm9.33,10.23l-.08,.14c.98,.57,16.85,10.13,27.11,29.8h-17.42c-3.16-13.11-7.27-23.55-10.19-30.03,.19,.03,.38,.06,.57,.09Zm14.12,61.03c-.36-7.64-1.26-14.87-2.49-21.59h19.52c2.28,6.37,3.84,13.56,4.3,21.59h-21.34Zm21.34,9.5c-.47,8.02-2.03,15.22-4.32,21.59h-18.82c1.24-7.4,1.83-14.62,1.94-21.59h21.21Zm-30.69,0c-.12,6.96-.78,14.18-2.12,21.59h-23.96c-1.34-7.41-2-14.63-2.12-21.59h28.21Zm-28.07-9.5c.38-7.68,1.35-14.92,2.64-21.59h22.67c1.29,6.67,2.26,13.91,2.64,21.59h-27.95Zm23.17-31.09h-18.4c2.97-11.59,6.64-20.73,9.2-26.36,2.57,5.63,6.23,14.77,9.2,26.36Zm-18.52-29.94c.19-.03,.38-.06,.57-.09-2.92,6.48-7.03,16.92-10.19,30.03h-17.42c10.27-19.66,26.13-29.22,27.11-29.8l-.08-.14Zm-14.12,61.03h-21.34c.46-8.02,2.02-15.21,4.3-21.59h19.52c-1.23,6.72-2.13,13.95-2.48,21.59Zm1.81,31.09h-18.82c-2.29-6.38-3.86-13.56-4.32-21.59h21.21c.11,6.97,.69,14.19,1.94,21.59Zm-10.91-84.28c-5.08,5.73-10.26,13.08-14.34,22.1h-9.05c5.88-9.14,13.91-16.75,23.39-22.1Zm-28.5,31.6h10.51c-2.03,6.48-3.34,13.7-3.75,21.59h-11.98c.54-7.62,2.32-14.89,5.22-21.59Zm-5.22,31.09h11.98c.41,7.89,1.72,15.11,3.76,21.59h-10.52c-2.9-6.7-4.68-13.97-5.22-21.59Zm10.33,31.09h9.08c4.12,9.07,9.35,16.46,14.48,22.21-9.56-5.36-17.65-13.01-23.56-22.21Zm46.74,29.96l.1-.16c-.99-.57-16.91-10.13-27.22-29.79h16.65c2.38,9.86,5.93,19.94,11.07,30.05-.2-.03-.39-.07-.59-.1Zm-.71-29.96h19.82c-2.23,8.55-5.45,17.27-9.91,26-4.46-8.74-7.68-17.45-9.91-26Zm19.12,29.96c-.2,.03-.4,.07-.6,.09,5.14-10.11,8.69-20.19,11.07-30.05h16.65c-10.31,19.66-26.23,29.22-27.21,29.79l.1,.17Zm23.17-7.75c5.13-5.75,10.36-13.13,14.48-22.21h9.08c-5.91,9.19-13.99,16.85-23.56,22.21Zm28.67-31.71h-10.52c2.04-6.48,3.35-13.69,3.76-21.59h11.98c-.54,7.62-2.32,14.89-5.22,21.59Zm5.22-31.09h-11.98c-.4-7.89-1.72-15.11-3.75-21.59h10.51c2.9,6.7,4.68,13.97,5.22,21.59Zm-19.38-31.09c-4.08-9.02-9.26-16.37-14.34-22.11,9.49,5.35,17.52,12.97,23.39,22.11h-9.05Z"/>
    <rect class="cls-1" x="64.9" y="178.13" width="6.22" height="55.4" rx="1.85" ry="1.85" transform="translate(273.84 137.83) rotate(90)"/>
    <g>
      <g>
        <path class="cls-10" d="M145.39,213.6c-7.59,0-16.04-4.05-20.55-9.85-3.18-4.09-4.3-8.84-3.15-13.38,.11-.43,.44-1.74,2.5-4.9,.92-1.42,2.5-2.27,4.19-2.27h109.77c2.76,0,5,2.24,5,5v3.4c0,5.1,1.69,9.9,4.88,13.87,1.2,1.5,1.44,3.56,.61,5.29-.83,1.73-2.58,2.84-4.51,2.84h-98.75Z"/>
        <path class="cls-2" d="M238.15,188.19v3.4c0,6.43,2.24,12.35,5.98,17h-98.75c-9.38,0-21.16-7.92-18.85-17,.24-.94,1.84-3.4,1.84-3.4h109.77m0-10h-109.77c-3.38,0-6.53,1.71-8.38,4.54-2.51,3.86-2.98,5.71-3.16,6.41-1.54,6.07-.1,12.35,4.05,17.68,5.48,7.05,15.33,11.78,24.5,11.78h98.75c3.85,0,7.35-2.21,9.02-5.68,1.66-3.47,1.19-7.59-1.22-10.59-2.47-3.08-3.78-6.79-3.78-10.74v-3.4c0-5.52-4.48-10-10-10h0Z"/>
      </g>
      <path class="cls-10" d="M243.25,177.99c2.82,0,5.1,2.29,5.1,5.1v8.5c0,9.37,7.63,17,17.01,17,9.38,0,17-7.63,17-17V14.14s0,.22,0,.22v2.65c0-6.44,2.26-12.34,6.01-17.01H159.29c-9.38,0-17,7.63-17,17.01V177.99s100.96,0,100.96,0Z"/>
    </g>
    <g>
      <rect class="cls-2" x="154.69" y="67.88" width="116.61" height="30.72"/>
      <path class="cls-11" d="M270.92,68.25v29.97h-115.86v-29.97h115.86m.75-.75h-117.36v31.47h117.36v-31.47h0Z"/>
    </g>
    <g>
      <path class="cls-9" d="M155.47,34.54v-6.67c0-2.18,1-3.35,3.1-3.35,1.99,0,3.02,1.18,3.02,3.24v.24h-1.92v-.37c0-.92-.41-1.27-1.05-1.27-.72,0-1.12,.35-1.12,1.58v2.47h.04c.35-.74,.94-1.12,1.84-1.12,1.49,0,2.25,1.05,2.25,2.95v2.3c0,2.06-1.09,3.24-3.08,3.24s-3.08-1.18-3.08-3.24Zm4.13,.15v-2.29c0-.87-.35-1.27-1.05-1.27s-1.05,.41-1.05,1.27v2.29c0,.85,.35,1.25,1.05,1.25s1.05-.41,1.05-1.25Z"/>
      <path class="cls-9" d="M163.55,36.2c0-1.84,.52-2.97,2.03-4.55,1.55-1.64,1.99-2.62,1.99-3.82s-.41-1.47-1.05-1.47-1.05,.35-1.05,1.27v1.38h-1.92v-1.25c0-2.06,1.03-3.24,3.02-3.24s3.02,1.18,3.02,3.24c0,1.53-.63,2.89-2.51,4.88-1.22,1.29-1.53,1.94-1.53,2.84v.28h3.85v1.84h-5.86v-1.4Z"/>
      <path class="cls-9" d="M175.25,34.62v-6.93c0-1.99,1.03-3.17,2.99-3.17s2.99,1.18,2.99,3.17v1.36h-1.92v-1.49c0-.85-.41-1.2-1.01-1.2s-1.01,.35-1.01,1.2v7.21c0,.85,.41,1.18,1.01,1.18s1.01-.33,1.01-1.18v-1.97h1.92v1.83c0,1.99-1.03,3.17-2.99,3.17s-2.99-1.18-2.99-3.17Z"/>
      <path class="cls-9" d="M183.07,34.54v-6.78c0-2.06,1.09-3.24,3.08-3.24s3.08,1.18,3.08,3.24v6.78c0,2.06-1.09,3.24-3.08,3.24s-3.08-1.18-3.08-3.24Zm4.13,.13v-7.04c0-.92-.41-1.27-1.05-1.27s-1.05,.35-1.05,1.27v7.04c0,.92,.41,1.27,1.05,1.27s1.05-.35,1.05-1.27Z"/>
      <path class="cls-9" d="M191.2,34.54v-9.84h2.03v9.99c0,.92,.39,1.25,1.03,1.25s1.03-.33,1.03-1.25v-9.99h1.95v9.84c0,2.06-1.03,3.24-3.02,3.24s-3.02-1.18-3.02-3.24Z"/>
      <path class="cls-9" d="M199.33,24.7h2.54l1.97,7.72h.04v-7.72h1.81v12.9h-2.08l-2.43-9.42h-.04v9.42h-1.81v-12.9Z"/>
      <path class="cls-9" d="M209.61,26.54h-2.12v-1.84h6.27v1.84h-2.12v11.06h-2.03v-11.06Z"/>
      <path class="cls-9" d="M215.55,24.7h3c2.1,0,3,.98,3,2.97v.79c0,1.33-.42,2.18-1.33,2.54v.04c1.01,.31,1.35,1.27,1.35,2.73v2.27c0,.63,.02,1.09,.22,1.57h-2.06c-.11-.33-.18-.53-.18-1.59v-2.36c0-1.2-.35-1.58-1.27-1.58h-.7v5.53h-2.03v-12.9Zm2.76,5.53c.76,0,1.22-.33,1.22-1.36v-1c0-.92-.31-1.33-1.03-1.33h-.92v3.69h.74Z"/>
      <path class="cls-9" d="M223.7,24.7h2.03v12.9h-2.03v-12.9Z"/>
      <path class="cls-9" d="M227.84,24.7h5.53v1.84h-3.5v3.41h2.78v1.84h-2.78v3.96h3.5v1.84h-5.53v-12.9Z"/>
      <path class="cls-9" d="M235.05,34.54v-.74h1.92v.88c0,.92,.41,1.25,1.05,1.25s1.05-.33,1.05-1.29c0-1.07-.41-1.75-1.73-2.91-1.7-1.49-2.25-2.54-2.25-4.02,0-2.03,1.05-3.21,3.02-3.21s2.95,1.18,2.95,3.24v.53h-1.92v-.66c0-.92-.37-1.27-1.01-1.27s-1.01,.35-1.01,1.23c0,.94,.42,1.62,1.75,2.78,1.7,1.49,2.23,2.53,2.23,4.13,0,2.1-1.07,3.28-3.06,3.28s-2.99-1.18-2.99-3.24Z"/>
      <path class="cls-9" d="M248.9,31.87h-2.47v-1.44h2.47v-2.49h1.44v2.49h2.47v1.44h-2.47v2.52h-1.44v-2.52Z"/>
      <path class="cls-9" d="M258.48,24.7h5.53v1.84h-3.5v3.41h2.78v1.84h-2.78v3.96h3.5v1.84h-5.53v-12.9Z"/>
      <path class="cls-9" d="M265.86,34.54v-9.84h2.03v9.99c0,.92,.39,1.25,1.03,1.25s1.03-.33,1.03-1.25v-9.99h1.95v9.84c0,2.06-1.03,3.24-3.02,3.24s-3.02-1.18-3.02-3.24Z"/>
    </g>
    <g>
      <path class="cls-9" d="M169.08,88.4h-4.64v-2.21l4.42-10.46h2.65v10.46h1.15v2.21h-1.15v2.81h-2.43v-2.81Zm0-2.21v-6.04h-.04l-2.39,6.04h2.43Z"/>
      <path class="cls-9" d="M174.68,87.6v-1.37c0-1.48,.44-2.56,1.59-3.16v-.04c-1.02-.55-1.5-1.53-1.5-3.05v-.64c0-2.48,1.35-3.83,3.71-3.83s3.71,1.35,3.71,3.83v.64c0,1.53-.51,2.5-1.5,3.05v.04c1.15,.6,1.59,1.68,1.59,3.16v1.37c0,2.48-1.35,3.83-3.8,3.83s-3.8-1.35-3.8-3.83Zm5.17-.13v-1.48c0-1.17-.46-1.75-1.37-1.75s-1.37,.58-1.37,1.75v1.48c0,1.17,.46,1.75,1.37,1.75s1.37-.58,1.37-1.75Zm-.09-6.99v-1.22c0-1.02-.44-1.55-1.28-1.55s-1.28,.53-1.28,1.55v1.22c0,1.02,.44,1.55,1.28,1.55s1.28-.53,1.28-1.55Z"/>
      <path class="cls-9" d="M184.56,87.53v-1.22h2.3v1.39c0,1.11,.49,1.5,1.26,1.5s1.26-.4,1.26-1.5v-3.47c0-1.11-.49-1.53-1.26-1.53s-1.26,.42-1.26,1.53v.13h-2.3l.44-8.65h6.41v2.21h-4.25l-.2,3.69h.04c.44-.73,1.13-1.13,2.1-1.13,1.79,0,2.7,1.26,2.7,3.54v3.49c0,2.48-1.24,3.89-3.63,3.89s-3.63-1.42-3.63-3.89Z"/>
      <path class="cls-9" d="M198.78,75.73h3.58c2.43,0,3.63,1.35,3.63,3.83v1.53c0,2.48-1.19,3.83-3.63,3.83h-1.15v6.3h-2.43v-15.48Zm3.58,6.96c.77,0,1.19-.35,1.19-1.46v-1.83c0-1.11-.42-1.46-1.19-1.46h-1.15v4.75h1.15Z"/>
      <path class="cls-9" d="M208.12,87.53v-8.14c0-2.48,1.3-3.89,3.69-3.89s3.69,1.42,3.69,3.89v8.14c0,2.48-1.3,3.89-3.69,3.89s-3.69-1.42-3.69-3.89Zm4.95,.15v-8.45c0-1.11-.49-1.53-1.26-1.53s-1.26,.42-1.26,1.53v8.45c0,1.11,.49,1.53,1.26,1.53s1.26-.42,1.26-1.53Z"/>
      <path class="cls-9" d="M217.92,75.73h2.43v13.27h4v2.21h-6.43v-15.48Z"/>
      <path class="cls-9" d="M226.49,75.73h2.43v15.48h-2.43v-15.48Z"/>
      <path class="cls-9" d="M231.34,87.62v-8.31c0-2.39,1.24-3.8,3.58-3.8s3.58,1.42,3.58,3.8v1.64h-2.3v-1.79c0-1.02-.49-1.44-1.22-1.44s-1.22,.42-1.22,1.44v8.65c0,1.02,.49,1.42,1.22,1.42s1.22-.4,1.22-1.42v-2.37h2.3v2.19c0,2.39-1.24,3.8-3.58,3.8s-3.58-1.42-3.58-3.8Z"/>
      <path class="cls-9" d="M240.79,75.73h2.43v15.48h-2.43v-15.48Z"/>
      <path class="cls-9" d="M245.73,75.73h6.63v2.21h-4.2v4.09h3.34v2.21h-3.34v4.75h4.2v2.21h-6.63v-15.48Z"/>
      <path class="cls-9" d="M254.37,87.53v-.88h2.3v1.06c0,1.11,.49,1.5,1.26,1.5s1.26-.4,1.26-1.55c0-1.28-.49-2.1-2.08-3.49-2.03-1.79-2.7-3.05-2.7-4.82,0-2.43,1.26-3.85,3.63-3.85s3.54,1.42,3.54,3.89v.64h-2.3v-.8c0-1.11-.44-1.53-1.22-1.53s-1.22,.42-1.22,1.48c0,1.13,.51,1.95,2.1,3.34,2.03,1.79,2.68,3.03,2.68,4.95,0,2.52-1.28,3.94-3.67,3.94s-3.58-1.42-3.58-3.89Z"/>
    </g>
    <g>
      <g>
        <path class="cls-9" d="M181.95,48.02h1.62v10.32h-1.62v-10.32Z"/>
        <path class="cls-9" d="M185.96,48.02h2.03l1.58,6.18h.03v-6.18h1.44v10.32h-1.67l-1.95-7.53h-.03v7.53h-1.44v-10.32Z"/>
        <path class="cls-9" d="M194.7,49.5h-1.7v-1.47h5.01v1.47h-1.7v8.84h-1.62v-8.84Z"/>
        <path class="cls-9" d="M199.98,48.02h2.4c1.68,0,2.4,.78,2.4,2.37v.63c0,1.06-.34,1.74-1.06,2.03v.03c.81,.25,1.08,1.02,1.08,2.18v1.81c0,.5,.01,.87,.18,1.25h-1.65c-.09-.27-.15-.43-.15-1.27v-1.89c0-.96-.28-1.27-1.02-1.27h-.56v4.42h-1.62v-10.32Zm2.21,4.42c.6,0,.97-.27,.97-1.09v-.8c0-.74-.25-1.06-.83-1.06h-.74v2.95h.59Z"/>
        <path class="cls-9" d="M206.98,55.89v-5.42c0-1.65,.87-2.59,2.46-2.59s2.46,.94,2.46,2.59v5.42c0,1.65-.87,2.59-2.46,2.59s-2.46-.94-2.46-2.59Zm3.3,.1v-5.63c0-.74-.32-1.02-.84-1.02s-.84,.28-.84,1.02v5.63c0,.74,.32,1.02,.84,1.02s.84-.28,.84-1.02Z"/>
        <path class="cls-9" d="M214.18,48.02h2.48c1.62,0,2.42,.9,2.42,2.55v5.22c0,1.65-.8,2.55-2.42,2.55h-2.48v-10.32Zm2.45,8.84c.52,0,.83-.27,.83-1v-5.37c0-.74-.31-1-.83-1h-.83v7.37h.83Z"/>
        <path class="cls-9" d="M221.28,55.89v-7.87h1.62v7.99c0,.74,.31,1,.83,1s.83-.27,.83-1v-7.99h1.56v7.87c0,1.65-.83,2.59-2.42,2.59s-2.42-.94-2.42-2.59Z"/>
        <path class="cls-9" d="M228.35,55.95v-5.54c0-1.59,.83-2.54,2.39-2.54s2.39,.94,2.39,2.54v1.09h-1.53v-1.19c0-.68-.32-.96-.81-.96s-.81,.28-.81,.96v5.76c0,.68,.32,.94,.81,.94s.81-.27,.81-.94v-1.58h1.53v1.46c0,1.59-.83,2.54-2.39,2.54s-2.39-.94-2.39-2.54Z"/>
        <path class="cls-9" d="M235.28,48.02h4.42v1.47h-2.8v2.73h2.23v1.47h-2.23v3.17h2.8v1.47h-4.42v-10.32Z"/>
        <path class="cls-9" d="M241.81,48.02h2.48c1.62,0,2.42,.9,2.42,2.55v5.22c0,1.65-.8,2.55-2.42,2.55h-2.48v-10.32Zm2.45,8.84c.52,0,.83-.27,.83-1v-5.37c0-.74-.31-1-.83-1h-.83v7.37h.83Z"/>
      </g>
      <line class="cls-7" x1="155.17" y1="53.32" x2="173.94" y2="53.32"/>
      <line class="cls-7" x1="253.54" y1="53.32" x2="270.34" y2="53.32"/>
    </g>
    <g>
      <path class="cls-11" d="M155.83,112.51h2.09v1.47h-2.09v4.26h-1.62v-10.32h4.29v1.47h-2.67v3.11Z"/>
      <path class="cls-11" d="M160.34,110.41c0-1.65,.87-2.59,2.46-2.59s2.46,.94,2.46,2.59v5.37c0,1.65-.87,2.59-2.46,2.59s-2.46-.94-2.46-2.59v-5.37Zm1.62,5.47c0,.74,.32,1.02,.84,1.02s.84-.28,.84-1.02v-5.57c0-.74-.32-1.02-.84-1.02s-.84,.28-.84,1.02v5.57Z"/>
      <path class="cls-11" d="M170.76,118.25c-.09-.27-.15-.43-.15-1.27v-1.62c0-.96-.32-1.31-1.06-1.31h-.56v4.2h-1.62v-10.32h2.45c1.68,0,2.4,.78,2.4,2.37v.81c0,1.06-.34,1.75-1.06,2.09,.81,.34,1.08,1.12,1.08,2.2v1.59c0,.5,.02,.87,.18,1.25h-1.65Zm-1.77-8.84v3.17h.63c.6,0,.97-.27,.97-1.09v-1.02c0-.74-.25-1.06-.83-1.06h-.78Z"/>
      <path class="cls-11" d="M179.97,107.81c1.58,0,2.39,.94,2.39,2.59v.32h-1.53v-.43c0-.74-.29-1.02-.81-1.02s-.81,.28-.81,1.02c0,2.12,3.17,2.52,3.17,5.47,0,1.65-.83,2.59-2.42,2.59s-2.42-.94-2.42-2.59v-.63h1.53v.74c0,.74,.32,1,.84,1s.84-.27,.84-1c0-2.12-3.17-2.52-3.17-5.47,0-1.65,.81-2.59,2.39-2.59Z"/>
      <path class="cls-11" d="M185.97,107.93v7.96c0,.74,.32,1,.84,1s.84-.27,.84-1v-7.96h1.53v7.86c0,1.65-.83,2.59-2.42,2.59s-2.42-.94-2.42-2.59v-7.86h1.62Z"/>
      <path class="cls-11" d="M193.6,107.81c1.58,0,2.39,.94,2.39,2.59v.32h-1.53v-.43c0-.74-.29-1.02-.81-1.02s-.81,.28-.81,1.02c0,2.12,3.17,2.52,3.17,5.47,0,1.65-.83,2.59-2.42,2.59s-2.42-.94-2.42-2.59v-.63h1.53v.74c0,.74,.32,1,.84,1s.84-.27,.84-1c0-2.12-3.17-2.52-3.17-5.47,0-1.65,.81-2.59,2.39-2.59Z"/>
      <path class="cls-11" d="M197.74,107.93h5.01v1.47h-1.69v8.84h-1.62v-8.84h-1.69v-1.47Z"/>
      <path class="cls-11" d="M209.42,118.25h-1.64l-.28-1.87h-1.99l-.28,1.87h-1.49l1.65-10.32h2.37l1.65,10.32Zm-3.7-3.27h1.56l-.78-5.22-.78,5.22Z"/>
      <path class="cls-11" d="M211.34,107.93h1.62v10.32h-1.62v-10.32Z"/>
      <path class="cls-11" d="M216.59,110.77v7.47h-1.46v-10.32h2.03l1.67,6.18v-6.18h1.44v10.32h-1.67l-2.02-7.47Z"/>
      <path class="cls-11" d="M227.87,118.25h-1.64l-.28-1.87h-1.99l-.28,1.87h-1.49l1.65-10.32h2.37l1.65,10.32Zm-3.7-3.27h1.56l-.78-5.22-.78,5.22Z"/>
      <path class="cls-11" d="M234.65,110.3v.37c0,1.06-.32,1.74-1.05,2.08,.87,.34,1.21,1.12,1.21,2.21v.84c0,1.59-.84,2.45-2.46,2.45h-2.55v-10.32h2.45c1.68,0,2.4,.78,2.4,2.37Zm-3.23-.9v2.73h.63c.6,0,.97-.27,.97-1.09v-.57c0-.74-.25-1.06-.83-1.06h-.78Zm0,4.2v3.17h.93c.55,0,.84-.25,.84-1.02v-.9c0-.96-.31-1.25-1.05-1.25h-.72Z"/>
      <path class="cls-11" d="M236.85,107.93h1.62v8.84h2.67v1.47h-4.29v-10.32Z"/>
      <path class="cls-11" d="M244.66,112.28h2.23v1.47h-2.23v3.02h2.8v1.47h-4.42v-10.32h4.42v1.47h-2.8v2.87Z"/>
      <path class="cls-11" d="M158.91,130.99v1.37c0,1.65-.83,2.59-2.42,2.59s-2.42-.94-2.42-2.59v-5.37c0-1.65,.83-2.59,2.42-2.59s2.42,.94,2.42,2.59v1h-1.53v-1.11c0-.74-.32-1.02-.84-1.02s-.84,.28-.84,1.02v5.57c0,.74,.32,1,.84,1s.84-.27,.84-1v-1.47h1.53Z"/>
      <path class="cls-11" d="M160.89,126.99c0-1.65,.87-2.59,2.46-2.59s2.46,.94,2.46,2.59v5.37c0,1.65-.87,2.59-2.46,2.59s-2.46-.94-2.46-2.59v-5.37Zm1.62,5.47c0,.74,.32,1.02,.84,1.02s.84-.28,.84-1.02v-5.57c0-.74-.32-1.02-.84-1.02s-.84,.28-.84,1.02v5.57Z"/>
      <path class="cls-11" d="M169.37,127.36v7.47h-1.46v-10.32h2.03l1.67,6.18v-6.18h1.44v10.32h-1.67l-2.02-7.47Z"/>
      <path class="cls-11" d="M177.49,124.4c1.58,0,2.39,.94,2.39,2.59v.32h-1.53v-.43c0-.74-.29-1.02-.81-1.02s-.81,.28-.81,1.02c0,2.12,3.17,2.52,3.17,5.47,0,1.65-.83,2.59-2.42,2.59s-2.42-.94-2.42-2.59v-.63h1.53v.74c0,.74,.32,1,.84,1s.84-.27,.84-1c0-2.12-3.17-2.52-3.17-5.47,0-1.65,.81-2.59,2.39-2.59Z"/>
      <path class="cls-11" d="M183.5,124.52v7.96c0,.74,.32,1,.84,1s.84-.27,.84-1v-7.96h1.53v7.86c0,1.65-.83,2.59-2.42,2.59s-2.42-.94-2.42-2.59v-7.86h1.62Z"/>
      <path class="cls-11" d="M192.3,131.84l1.11-7.33h2.26v10.32h-1.53v-7.4l-1.12,7.4h-1.53l-1.21-7.3v7.3h-1.42v-10.32h2.26l1.19,7.33Z"/>
      <path class="cls-11" d="M202.66,127.07v1.34c0,1.65-.8,2.55-2.42,2.55h-.77v3.88h-1.62v-10.32h2.39c1.62,0,2.42,.9,2.42,2.55Zm-3.18-1.08v3.49h.77c.52,0,.8-.24,.8-.97v-1.55c0-.74-.28-.97-.8-.97h-.77Z"/>
      <path class="cls-11" d="M204.3,124.52h5.01v1.47h-1.69v8.84h-1.62v-8.84h-1.7v-1.47Z"/>
      <path class="cls-11" d="M211.22,124.52h1.62v10.32h-1.62v-10.32Z"/>
      <path class="cls-11" d="M214.94,126.99c0-1.65,.87-2.59,2.46-2.59s2.46,.94,2.46,2.59v5.37c0,1.65-.87,2.59-2.46,2.59s-2.46-.94-2.46-2.59v-5.37Zm1.62,5.47c0,.74,.32,1.02,.84,1.02s.84-.28,.84-1.02v-5.57c0-.74-.32-1.02-.84-1.02s-.84,.28-.84,1.02v5.57Z"/>
      <path class="cls-11" d="M223.42,127.36v7.47h-1.46v-10.32h2.03l1.67,6.18v-6.18h1.44v10.32h-1.67l-2.02-7.47Z"/>
      <path class="cls-11" d="M238.01,134.83h-1.64l-.28-1.87h-1.99l-.28,1.87h-1.49l1.65-10.32h2.37l1.65,10.32Zm-3.7-3.27h1.56l-.78-5.22-.78,5.22Z"/>
      <path class="cls-11" d="M241.39,127.36v7.47h-1.46v-10.32h2.03l1.67,6.18v-6.18h1.44v10.32h-1.67l-2.02-7.47Z"/>
      <path class="cls-11" d="M247.26,124.52h2.56c1.62,0,2.42,.9,2.42,2.55v5.22c0,1.65-.8,2.55-2.42,2.55h-2.56v-10.32Zm1.62,1.47v7.37h.91c.52,0,.83-.27,.83-1v-5.37c0-.74-.31-1-.83-1h-.91Z"/>
      <path class="cls-11" d="M159.02,143.65v1.34c0,1.65-.8,2.55-2.42,2.55h-.77v3.88h-1.62v-10.32h2.39c1.62,0,2.42,.9,2.42,2.55Zm-3.18-1.08v3.49h.77c.52,0,.8-.24,.8-.97v-1.55c0-.74-.28-.97-.8-.97h-.77Z"/>
      <path class="cls-11" d="M164.33,151.42c-.09-.27-.15-.43-.15-1.27v-1.62c0-.96-.32-1.31-1.06-1.31h-.56v4.2h-1.62v-10.32h2.45c1.68,0,2.4,.78,2.4,2.37v.81c0,1.06-.34,1.75-1.06,2.09,.81,.34,1.08,1.12,1.08,2.2v1.59c0,.5,.02,.87,.18,1.25h-1.65Zm-1.77-8.84v3.17h.63c.6,0,.97-.27,.97-1.09v-1.02c0-.74-.25-1.06-.83-1.06h-.78Z"/>
      <path class="cls-11" d="M167.82,143.58c0-1.65,.87-2.59,2.46-2.59s2.46,.94,2.46,2.59v5.37c0,1.65-.87,2.59-2.46,2.59s-2.46-.94-2.46-2.59v-5.37Zm1.62,5.47c0,.74,.32,1.02,.84,1.02s.84-.28,.84-1.02v-5.57c0-.74-.32-1.02-.84-1.02s-.84,.28-.84,1.02v5.57Z"/>
      <path class="cls-11" d="M174.85,141.1h2.56c1.62,0,2.42,.9,2.42,2.55v5.22c0,1.65-.8,2.55-2.42,2.55h-2.56v-10.32Zm1.62,1.47v7.37h.91c.52,0,.83-.27,.83-1v-5.37c0-.74-.31-1-.83-1h-.91Z"/>
      <path class="cls-11" d="M183.49,141.1v7.96c0,.74,.32,1,.84,1s.84-.27,.84-1v-7.96h1.53v7.86c0,1.65-.83,2.59-2.42,2.59s-2.42-.94-2.42-2.59v-7.86h1.62Z"/>
      <path class="cls-11" d="M193.6,147.57v1.37c0,1.65-.83,2.59-2.42,2.59s-2.42-.94-2.42-2.59v-5.37c0-1.65,.83-2.59,2.42-2.59s2.42,.94,2.42,2.59v1h-1.53v-1.11c0-.74-.32-1.02-.84-1.02s-.84,.28-.84,1.02v5.57c0,.74,.32,1,.84,1s.84-.27,.84-1v-1.47h1.53Z"/>
      <path class="cls-11" d="M195.37,141.1h5.01v1.47h-1.69v8.84h-1.62v-8.84h-1.69v-1.47Z"/>
      <path class="cls-11" d="M202.29,141.1h1.62v10.32h-1.62v-10.32Z"/>
      <path class="cls-11" d="M206.01,143.58c0-1.65,.87-2.59,2.46-2.59s2.46,.94,2.46,2.59v5.37c0,1.65-.87,2.59-2.46,2.59s-2.46-.94-2.46-2.59v-5.37Zm1.62,5.47c0,.74,.32,1.02,.84,1.02s.84-.28,.84-1.02v-5.57c0-.74-.32-1.02-.84-1.02s-.84,.28-.84,1.02v5.57Z"/>
      <path class="cls-11" d="M214.49,143.95v7.47h-1.46v-10.32h2.03l1.67,6.18v-6.18h1.44v10.32h-1.67l-2.02-7.47Z"/>
      <path class="cls-11" d="M226.01,140.98c1.58,0,2.39,.94,2.39,2.59v.32h-1.53v-.43c0-.74-.29-1.02-.81-1.02s-.81,.28-.81,1.02c0,2.12,3.17,2.52,3.17,5.47,0,1.65-.83,2.59-2.42,2.59s-2.42-.94-2.42-2.59v-.63h1.53v.74c0,.74,.32,1,.84,1s.84-.27,.84-1c0-2.12-3.17-2.52-3.17-5.47,0-1.65,.81-2.59,2.39-2.59Z"/>
      <path class="cls-11" d="M232.05,151.42h-1.62v-10.32h1.62v4.42h1.84v-4.42h1.65v10.32h-1.65v-4.42h-1.84v4.42Z"/>
      <path class="cls-11" d="M237.73,141.1h1.62v10.32h-1.62v-10.32Z"/>
      <path class="cls-11" d="M243.15,145.69h2.09v1.47h-2.09v4.26h-1.62v-10.32h4.29v1.47h-2.67v3.11Z"/>
      <path class="cls-11" d="M247.52,141.1h5.01v1.47h-1.69v8.84h-1.62v-8.84h-1.7v-1.47Z"/>
      <path class="cls-11" d="M256.69,140.98c1.58,0,2.39,.94,2.39,2.59v.32h-1.53v-.43c0-.74-.29-1.02-.81-1.02s-.81,.28-.81,1.02c0,2.12,3.17,2.52,3.17,5.47,0,1.65-.83,2.59-2.42,2.59s-2.42-.94-2.42-2.59v-.63h1.53v.74c0,.74,.32,1,.84,1s.84-.27,.84-1c0-2.12-3.17-2.52-3.17-5.47,0-1.65,.81-2.59,2.39-2.59Z"/>
    </g>
    <g>
      <path class="cls-4" d="M156.07,159.77v.9h-.27c-.35,0-.51,.13-.51,.63v3.94c0,.5,.16,.63,.51,.63h.27v.9h-.34c-1.1,0-1.54-.41-1.54-1.53v-3.94c0-1.12,.44-1.53,1.54-1.53h.34Z"/>
      <path class="cls-4" d="M158.44,160.69c-.35,0-.57,.19-.57,.69v.75h-1.04v-.68c0-1.12,.56-1.76,1.64-1.76s1.64,.64,1.64,1.76c0,2.2-2.19,3.02-2.19,4.17,0,.05,0,.1,0,.15h2.08v1h-3.18v-.86c0-2.06,2.18-2.4,2.18-4.42,0-.63-.22-.8-.57-.8Z"/>
      <path class="cls-4" d="M160.89,161.45c0-1.12,.59-1.76,1.67-1.76s1.67,.64,1.67,1.76v3.64c0,1.12-.59,1.76-1.67,1.76s-1.67-.64-1.67-1.76v-3.64Zm1.1,3.71c0,.5,.22,.69,.57,.69s.57-.19,.57-.69v-3.78c0-.5-.22-.69-.57-.69s-.57,.19-.57,.69v3.78Z"/>
      <path class="cls-4" d="M165.43,160.65c.85,0,1.04-.41,1.21-.88h.74v7h-1.1v-5.34h-.85v-.78Z"/>
      <path class="cls-4" d="M171.82,165.02c0,1.18-.54,1.82-1.68,1.82-1.08,0-1.64-.64-1.64-1.76v-.18h1.04v.25c0,.5,.22,.69,.57,.69,.39,0,.61-.19,.61-.86v-1.28c-.19,.4-.53,.62-1.02,.62-.81,0-1.22-.57-1.22-1.6v-1.28c0-1.12,.59-1.76,1.67-1.76s1.67,.64,1.67,1.76v3.58Zm-1.1-2.39v-1.26c0-.5-.22-.68-.57-.68s-.57,.18-.57,.68v1.26c0,.5,.22,.69,.57,.69s.57-.19,.57-.69Z"/>
      <path class="cls-4" d="M172.66,162.77h2v1h-2v-1Z"/>
      <path class="cls-4" d="M177.08,160.69c-.35,0-.57,.19-.57,.69v.75h-1.04v-.68c0-1.12,.56-1.76,1.64-1.76s1.64,.64,1.64,1.76c0,2.2-2.19,3.02-2.19,4.17,0,.05,0,.1,0,.15h2.08v1h-3.18v-.86c0-2.06,2.18-2.4,2.18-4.42,0-.63-.22-.8-.57-.8Z"/>
      <path class="cls-4" d="M179.53,161.45c0-1.12,.59-1.76,1.67-1.76s1.67,.64,1.67,1.76v3.64c0,1.12-.59,1.76-1.67,1.76s-1.67-.64-1.67-1.76v-3.64Zm1.1,3.71c0,.5,.22,.69,.57,.69s.57-.19,.57-.69v-3.78c0-.5-.22-.69-.57-.69s-.57,.19-.57,.69v3.78Z"/>
      <path class="cls-4" d="M185.32,160.69c-.35,0-.57,.19-.57,.69v.75h-1.04v-.68c0-1.12,.56-1.76,1.64-1.76s1.64,.64,1.64,1.76c0,2.2-2.19,3.02-2.19,4.17,0,.05,0,.1,0,.15h2.08v1h-3.18v-.86c0-2.06,2.18-2.4,2.18-4.42,0-.63-.22-.8-.57-.8Z"/>
      <path class="cls-4" d="M189.43,160.69c-.35,0-.57,.19-.57,.69v.75h-1.04v-.68c0-1.12,.56-1.76,1.64-1.76s1.64,.64,1.64,1.76c0,2.2-2.19,3.02-2.19,4.17,0,.05,0,.1,0,.15h2.08v1h-3.18v-.86c0-2.06,2.18-2.4,2.18-4.42,0-.63-.22-.8-.57-.8Z"/>
      <path class="cls-4" d="M192.11,159.77c1.1,0,1.54,.41,1.54,1.53v3.94c0,1.12-.44,1.53-1.54,1.53h-.34v-.9h.27c.35,0,.51-.13,.51-.63v-3.94c0-.5-.16-.63-.51-.63h-.27v-.9h.34Z"/>
    </g>
    <g>
      <path class="cls-3" d="M297.28,138.68c.1-.2,.32-.48,.39-.56,.16-.19,.32-.38,.49-.56,.81-.91,1.82-2.04,2.03-3.64,.22-1.62-.47-2.98-1.02-4.07-.24-.48-.49-.98-.55-1.3-.06-.31,0-.86,.06-1.39,.13-1.22,.28-2.75-.5-4.2-.76-1.41-2.1-2.1-3.17-2.65-.5-.26-1.01-.52-1.27-.77-.26-.24-.55-.74-.83-1.23-.61-1.04-1.37-2.34-2.81-3.03-.44-.21-.92-.35-1.48-.42-.98-.13-1.92,0-2.75,.13-.31,.05-.62,.09-.92,.12-.22,.02-.38,.02-.45,0-.32-.04-.83-.27-1.33-.49-1.12-.49-2.51-1.11-4.11-.81-1.59,.29-2.67,1.35-3.54,2.2-.37,.36-.75,.74-1.06,.92l-.08,.05c-.28,.13-.79,.24-1.25,.34-1.21,.26-2.71,.58-3.86,1.79-.77,.81-1.09,1.73-1.26,2.35-.15,.55-.25,1.1-.33,1.59-.09,.52-.18,1.06-.29,1.3l-.1,.17c-.18,.29-.49,.64-.81,1-.62,.71-1.33,1.51-1.74,2.55-.14,.35-.24,.72-.29,1.09-.22,1.62,.47,2.98,1.01,4.07l.17,.34c.1,.2,.34,.68,.39,.96,.05,.27,0,.78-.02,1l-.04,.38c-.13,1.23-.28,2.76,.51,4.21,.17,.3,.35,.53,.51,.73,.77,.93,1.77,1.46,2.66,1.92,.31,.16,.62,.33,.91,.51,.17,.11,.29,.19,.35,.26,.01,.01,.04,.04,.05,.06l-3.16,22.04c-.16,1.12,.24,2.17,1.07,2.8,.83,.63,1.95,.73,2.99,.27l5.72-2.57,4.77,4.07c.59,.5,1.28,.77,1.98,.77,.33,0,.65-.06,.97-.18,.98-.37,1.66-1.26,1.82-2.38l1.17-8.13c.43,.12,.88,.25,1.21,.35l6.04,1.79c.31,.09,.63,.14,.94,.14,.73,0,1.43-.26,1.96-.75,.76-.7,1.07-1.76,.83-2.84l-3.37-15.65c.73-1.08,.93-2.3,1.1-3.32,.08-.49,.17-1.05,.3-1.33Zm-4.67,6.98h0s-.04-.16-.04-.16c0,0,0,0,0,0l.04,.16Z"/>
      <g>
        <g>
          <g>
            <path class="cls-4" d="M296.35,128.95c-.28-1.53,.55-3.51-.21-4.9-.73-1.35-2.82-1.73-4-2.85-1.17-1.12-1.66-3.19-3.05-3.85-.25-.12-.51-.18-.79-.21-1-.13-2.14,.18-3.19,.26-.32,.02-.63,.03-.93,0-1.56-.21-3.18-1.6-4.73-1.32-1.48,.27-2.48,2.02-3.8,2.82-.05,.03-.09,.07-.14,.09-1.35,.73-3.48,.54-4.6,1.72-.36,.38-.57,.86-.71,1.38-.31,1.09-.32,2.36-.77,3.3-.06,.12-.13,.23-.2,.35-.68,1.1-1.92,2.04-2.36,3.19-.07,.18-.12,.36-.15,.55-.14,1.03,.46,2.06,.97,3.09,.26,.52,.49,1.04,.59,1.57,.09,.5,.06,1.06,0,1.62-.11,1.15-.31,2.34,.2,3.28,.07,.13,.16,.25,.26,.36,.71,.85,2,1.3,3.04,1.96,.25,.16,.49,.33,.7,.53,.21,.2,.4,.45,.58,.7,.8,1.13,1.34,2.6,2.47,3.15,1.43,.69,3.36-.25,4.91-.04,1.54,.21,3.15,1.57,4.69,1.32,.01,0,.03,0,.04,0,1.22-.22,2.12-1.46,3.15-2.34,.26-.22,.52-.42,.8-.57,1.35-.73,3.48-.54,4.6-1.72,1.11-1.17,.82-3.29,1.48-4.68,.17-.36,.42-.71,.69-1.04,.81-.99,1.86-1.9,2.01-3.05,.21-1.56-1.27-3.11-1.55-4.65Z"/>
            <path class="cls-4" d="M285.43,150.03c-.22,.04-.46,.06-.69,.06-.44,0-.87-.09-1.28-.2-.59-.16-1.14-.39-1.65-.62-.58-.25-1.12-.5-1.56-.55-.09-.01-.19-.02-.3-.02-.39,0-.84,.07-1.33,.15-.58,.09-1.18,.18-1.8,.18-.18,0-.34,0-.51-.02-.52-.05-.98-.17-1.41-.37-.29-.14-.54-.31-.77-.5-.36-.3-.67-.64-.93-1.01-.13-.18-.25-.35-.36-.53l-.08,.53-.04,.25-.42,2.94-.08,.55c-.09,.59-.22,1.57-.31,2.16l-1.86,12.95c-.09,.59,.29,.88,.84,.63l6.06-2.72c.55-.25,1.37-.13,1.82,.26l5.05,4.31c.45,.39,.9,.22,.98-.37l1.86-12.95c.09-.59,.22-1.57,.31-2.16l.38-2.66,.17-1.18,.03-.19c-.12,.1-.25,.19-.37,.28-.51,.37-1.09,.68-1.76,.8Z"/>
            <path class="cls-4" d="M294.69,148.73c-.13-.59-.33-1.54-.46-2.13l-.22-1.04-.04-.2c-.48,.15-.96,.26-1.42,.36-.6,.13-1.17,.25-1.53,.45-.18,.1-.36,.23-.54,.39l-.21,1.48-1.44,10c.46,.13,.96,.28,1.31,.38l6.05,1.79c.57,.17,.94-.17,.82-.76l-2.31-10.73Z"/>
          </g>
          <path class="cls-5" d="M292.64,134.6c-.68,2.3-2.12,4.28-4.02,5.65-1,.73-2.13,1.28-3.35,1.63-.94,.27-1.93,.42-2.95,.42-.43,0-.86-.03-1.27-.08-2.13-.25-4.08-1.12-5.64-2.44-.97-.81-1.79-1.8-2.42-2.9-.17-.3-.33-.61-.47-.92-.47-1.04-.78-2.16-.9-3.35-.04-.35-.06-.71-.06-1.07,0-.95,.14-1.87,.37-2.75,.32-1.21,.84-2.34,1.53-3.35,1.16-1.68,2.79-3.02,4.7-3.83,.91-.38,1.88-.64,2.89-.76,.42-.05,.84-.08,1.27-.08,1.02,0,2.01,.15,2.95,.42,1.22,.35,2.35,.9,3.35,1.63,2.7,1.96,4.47,5.13,4.47,8.72,0,1.07-.16,2.09-.45,3.07Z"/>
        </g>
        <g>
          <rect class="cls-6" x="278.43" y="136.53" width="2.91" height=".48"/>
          <rect class="cls-6" x="278.43" y="134.59" width="2.91" height=".48"/>
          <path class="cls-6" d="M289.54,129.12l-2.26-3.16c.09-.05,.18-.11,.26-.19l.04-.04-.34-.34-.04,.04c-.19,.19-.49,.24-.73,.12-.94-.46-2.02-.53-3.01-.17-.13,.05-.27,.09-.41,.12v-.44c.35-.4,.32-1.01-.09-1.37-.4-.35-1.01-.32-1.37,.09-.32,.37-.32,.92,0,1.28v.44c-.14-.03-.28-.07-.41-.12-.98-.35-2.07-.29-3.01,.17-.24,.12-.54,.07-.73-.12l-.04-.04-.34,.34,.04,.04c.08,.07,.16,.14,.26,.19l-2.26,3.17h0s-.05,.09-.05,.14c0,.94,.76,1.69,1.7,1.7h1.94c.94,0,1.69-.76,1.7-1.7,0-.05-.02-.1-.05-.14h0s-2.18-3.06-2.18-3.06c.08-.02,.16-.05,.24-.09,.82-.41,1.77-.46,2.63-.15,.19,.07,.38,.12,.58,.15v6.19h-.73c-.84,0-1.56,.62-1.68,1.45h-2.46c-.09,0-.18,.05-.22,.13-.32,.64-.33,1.39-.05,2.05-.29,.66-.27,1.4,.05,2.05,.04,.08,.12,.13,.22,.13h11.39c.13,0,.24-.11,.24-.24,0-.04,0-.07-.03-.11-.27-.54-.27-1.18,0-1.72,0,0,0-.01,0-.02,0,0,0-.02,0-.03,0,0,0-.02,0-.03,0-.02,0-.04,0-.06,0-.01,0-.02,0-.03,0,0,0-.02,0-.03,0,0,0-.01,0-.02-.27-.54-.27-1.18,0-1.72,.06-.12,.01-.27-.11-.32-.03-.02-.07-.03-.11-.03h-2.67c-.12-.83-.83-1.45-1.68-1.45h-.73v-6.19c.2-.04,.39-.09,.58-.15,.86-.31,1.81-.25,2.63,.15,.07,.04,.15,.07,.23,.09l-2.18,3.06h0s-.05,.09-.05,.14c0,.94,.76,1.69,1.7,1.7h1.94c.94,0,1.69-.76,1.7-1.7,0-.05-.02-.1-.05-.14h0Zm-11.82-2.84l1.95,2.73h-3.9l1.95-2.73Zm.97,4.19h-1.94c-.58,0-1.07-.41-1.19-.97h4.31c-.12,.56-.61,.97-1.19,.97Zm8.98,4.6c.02,.16,.05,.33,.1,.48h-4.08s-.01-.03-.02-.04c0-.02-.02-.05-.03-.07-.01-.04-.03-.09-.04-.13,0-.02-.01-.05-.02-.07,0-.05-.02-.09-.02-.14,0,0,0-.02,0-.03h4.12Zm0,1.45h-4.11s0-.02,0-.03c0-.05,.01-.09,.02-.14,0-.02,.01-.05,.02-.07,.01-.04,.02-.09,.04-.13,0-.02,.02-.05,.03-.07,0-.01,.01-.03,.02-.04h4.08c-.05,.16-.08,.32-.1,.48Zm-4.55-2.25h0c-.02,.09-.03,.17-.04,.25,0,.02,0,.04,0,.06,0,.08-.01,.16-.01,.24h0c0,.09,0,.17,.01,.25,0,.02,0,.04,0,.06,0,.08,.02,.16,.04,.24h0c.01,.06,.03,.12,.05,.18h-.46c-.19-.47-.19-.99,0-1.45h.46c-.02,.06-.03,.12-.05,.17h0Zm-5.25,1.77h4.32c-.15,.47-.15,.98,0,1.45h-4.32c-.19-.47-.19-.99,0-1.45Zm4.32-.48h-4.32c-.19-.47-.19-.99,0-1.45h4.32c-.15,.47-.15,.98,0,1.45h0Zm-5.29-1.45h.46c-.15,.47-.15,.98,0,1.45h-.46c-.19-.47-.19-.99,0-1.45Zm0,1.94h.46c-.15,.47-.15,.98,0,1.45h-.46c-.19-.47-.19-.99,0-1.45Zm5.8,1.45c-.19-.47-.19-.99,0-1.45h.46c-.02,.06-.03,.11-.05,.17h0c-.02,.09-.03,.17-.04,.25,0,.02,0,.04,0,.06,0,.08-.01,.16-.01,.24h0c0,.09,0,.17,.01,.25,0,.02,0,.04,0,.06,0,.08,.02,.16,.04,.24h0c.01,.06,.03,.12,.05,.18h-.46Zm.98,0s-.01-.03-.02-.04c0-.02-.02-.05-.03-.07-.01-.04-.03-.09-.04-.13,0-.02-.01-.05-.02-.07,0-.05-.02-.09-.02-.14,0,0,0-.02,0-.03h4.12c.02,.16,.05,.33,.1,.48h-4.08Zm3.99-2.91h-4.11s0-.02,0-.03c0-.05,.01-.09,.02-.14,0-.02,.01-.05,.02-.07,.01-.04,.02-.09,.04-.13,0-.02,.02-.05,.03-.07,0-.01,.01-.03,.02-.04h4.08c-.05,.16-.08,.32-.1,.48h0Zm-2.7-.97h-5.28c.12-.56,.61-.97,1.19-.97h2.91c.58,0,1.07,.41,1.19,.97Zm-2.88-1.45v-7.21c0-.07-.03-.13-.08-.18-.1-.09-.16-.22-.16-.36,0-.27,.22-.48,.48-.48s.48,.22,.48,.48c0,.14-.06,.27-.16,.36-.05,.05-.08,.11-.08,.18v7.21h-.48Zm6.8-3.15h-3.9l1.95-2.73,1.95,2.73Zm-.98,1.45h-1.94c-.58,0-1.07-.41-1.19-.97h4.31c-.12,.56-.61,.97-1.19,.97Z"/>
        </g>
      </g>
    </g>
    <g>
      <path class="cls-4" d="M130.48,46.17V18.31c0-1.02-.83-1.84-1.84-1.84H13.29c-.55,0-1.07,.25-1.42,.67L.42,31.07c-.56,.68-.56,1.66,0,2.34l11.45,13.93c.35,.43,.87,.67,1.42,.67h115.35c1.02,0,1.84-.83,1.84-1.84Z"/>
      <path class="cls-4" d="M149.76,64.88l-10.1-13.93c-.35-.48-.9-.76-1.49-.76H68.53c-1.02,0-1.84,.83-1.84,1.84v27.85c0,1.02,.83,1.84,1.84,1.84h69.64c.59,0,1.15-.28,1.49-.76l10.1-13.93c.47-.65,.47-1.52,0-2.16Z"/>
    </g>
    <g>
      <path class="cls-2" d="M85.09,62.03v1.76c0,2.17-1.04,3.35-3.17,3.35h-1.01v5.09h-2.13v-13.54h3.13c2.13,0,3.17,1.18,3.17,3.35Zm-4.18-1.41v4.59h1.01c.68,0,1.04-.31,1.04-1.28v-2.03c0-.97-.37-1.28-1.04-1.28h-1.01Z"/>
      <path class="cls-2" d="M93.53,72.22h-2.15l-.37-2.46h-2.61l-.37,2.46h-1.95l2.17-13.54h3.11l2.17,13.54Zm-4.86-4.3h2.05l-1.03-6.85-1.03,6.85Z"/>
      <path class="cls-2" d="M94.13,58.68h6.58v1.94h-2.23v11.61h-2.13v-11.61h-2.23v-1.94Z"/>
      <path class="cls-2" d="M104.64,72.22h-2.13v-13.54h2.13v5.8h2.42v-5.8h2.17v13.54h-2.17v-5.8h-2.42v5.8Z"/>
      <path class="cls-2" d="M116.29,65.01l-.77,7.22h-2.92l-1.51-13.54h2.07l1.14,10.68,1.03-10.68h2.05l1.06,10.76,1.1-10.76h1.86l-1.51,13.54h-2.82l-.77-7.22Z"/>
      <path class="cls-2" d="M129.71,72.22h-2.15l-.37-2.46h-2.61l-.37,2.46h-1.95l2.17-13.54h3.11l2.17,13.54Zm-4.86-4.3h2.05l-1.03-6.85-1.03,6.85Z"/>
      <path class="cls-2" d="M132.81,67.73l-2.69-9.06h2.22l1.63,6.17,1.62-6.17h2.03l-2.69,9.06v4.49h-2.13v-4.49Z"/>
    </g>
    <rect class="cls-1" x="64.55" y="47.87" width="6.22" height="158.83"/>
    <g>
      <path class="cls-2" d="M21.9,24.94c2.07,0,3.13,1.24,3.13,3.41v.43h-2.01v-.56c0-.97-.39-1.33-1.06-1.33s-1.06,.37-1.06,1.33c0,2.79,4.16,3.31,4.16,7.18,0,2.17-1.08,3.41-3.17,3.41s-3.17-1.24-3.17-3.41v-.83h2.01v.97c0,.97,.43,1.32,1.1,1.32s1.1-.35,1.1-1.32c0-2.79-4.16-3.31-4.16-7.18,0-2.17,1.06-3.41,3.13-3.41Z"/>
      <path class="cls-2" d="M29.08,25.09v10.45c0,.97,.43,1.32,1.1,1.32s1.1-.35,1.1-1.32v-10.45h2.01v10.31c0,2.17-1.08,3.41-3.17,3.41s-3.17-1.24-3.17-3.41v-10.31h2.13Z"/>
      <path class="cls-2" d="M38.38,24.94c2.07,0,3.13,1.24,3.13,3.41v.43h-2.01v-.56c0-.97-.39-1.33-1.06-1.33s-1.06,.37-1.06,1.33c0,2.79,4.16,3.31,4.16,7.18,0,2.17-1.08,3.41-3.17,3.41s-3.17-1.24-3.17-3.41v-.83h2.01v.97c0,.97,.43,1.32,1.1,1.32s1.1-.35,1.1-1.32c0-2.79-4.16-3.31-4.16-7.18,0-2.17,1.06-3.41,3.13-3.41Z"/>
      <path class="cls-2" d="M43.12,25.09h6.58v1.93h-2.23v11.61h-2.13v-11.61h-2.23v-1.93Z"/>
      <path class="cls-2" d="M57.74,38.64h-2.15l-.37-2.46h-2.61l-.37,2.46h-1.95l2.17-13.54h3.11l2.17,13.54Zm-4.86-4.3h2.05l-1.03-6.85-1.03,6.85Z"/>
      <path class="cls-2" d="M59.57,25.09h2.13v13.54h-2.13v-13.54Z"/>
      <path class="cls-2" d="M65.76,28.83v9.81h-1.92v-13.54h2.67l2.19,8.11v-8.11h1.9v13.54h-2.19l-2.65-9.81Z"/>
      <path class="cls-2" d="M79.87,38.64h-2.15l-.37-2.46h-2.61l-.37,2.46h-1.95l2.17-13.54h3.12l2.17,13.54Zm-4.86-4.3h2.05l-1.03-6.85-1.03,6.85Z"/>
      <path class="cls-2" d="M88.06,28.21v.48c0,1.39-.43,2.28-1.37,2.73,1.14,.44,1.59,1.47,1.59,2.9v1.1c0,2.09-1.1,3.21-3.23,3.21h-3.35v-13.54h3.21c2.21,0,3.15,1.03,3.15,3.11Zm-4.24-1.18v3.58h.83c.79,0,1.28-.35,1.28-1.43v-.75c0-.97-.33-1.39-1.08-1.39h-1.03Zm0,5.51v4.16h1.22c.72,0,1.1-.33,1.1-1.33v-1.18c0-1.26-.41-1.64-1.37-1.64h-.95Z"/>
      <path class="cls-2" d="M90.25,25.09h2.13v13.54h-2.13v-13.54Z"/>
      <path class="cls-2" d="M94.53,25.09h2.13v11.61h3.5v1.94h-5.63v-13.54Z"/>
      <path class="cls-2" d="M101.96,25.09h2.13v13.54h-2.13v-13.54Z"/>
      <path class="cls-2" d="M105.87,25.09h6.58v1.93h-2.23v11.61h-2.13v-11.61h-2.23v-1.93Z"/>
      <path class="cls-2" d="M116.6,34.15l-2.69-9.05h2.23l1.63,6.17,1.62-6.17h2.03l-2.69,9.05v4.49h-2.13v-4.49Z"/>
    </g>
  </g>
</svg>