<?xml version="1.0" encoding="UTF-8"?><svg id="Layer_2" xmlns="http://www.w3.org/2000/svg" viewBox="0 0 324.04 333.14"><defs><style>.cls-1{fill:#efdbbe;}.cls-2{fill:#fff;}.cls-3{fill:#939598;}.cls-4{fill:#bdbcbb;}.cls-5{fill:#cd8b2a;}.cls-6{fill:#dcddde;}.cls-7{fill:#777677;}.cls-8{stroke-dasharray:0 0 0 3;}.cls-8,.cls-9,.cls-10,.cls-11{fill:none;stroke:#939598;}.cls-8,.cls-10{stroke-linecap:round;stroke-linejoin:round;stroke-width:1.75px;}.cls-9{stroke-width:.75px;}.cls-9,.cls-11{stroke-miterlimit:10;}.cls-11{stroke-width:.5px;}</style></defs><g id="Layer_2-2"><rect class="cls-5" x="54.16" y="33.2" width="194.01" height="18.15"/><path class="cls-3" d="m24.47,38.93h1.1v6h1.81v1h-2.91v-7Z"/><path class="cls-3" d="m28.16,38.93h3v1h-1.9v1.85h1.51v1h-1.51v2.15h1.9v1h-3v-7Z"/><path class="cls-3" d="m32.89,38.93h1.49l1.14,7h-1.1l-.2-1.39v.02h-1.25l-.2,1.37h-1.02l1.14-7Zm1.2,4.68l-.49-3.46h-.02l-.48,3.46h.99Z"/><path class="cls-3" d="m35.73,38.93h1.11l.72,5.43h.02l.72-5.43h1.01l-1.06,7h-1.46l-1.06-7Z"/><path class="cls-3" d="m40.09,38.93h3v1h-1.9v1.85h1.51v1h-1.51v2.15h1.9v1h-3v-7Z"/><path class="cls-3" d="m46.67,38.93h1.49l1.14,7h-1.1l-.2-1.39v.02h-1.25l-.2,1.37h-1.02l1.14-7Zm1.2,4.68l-.49-3.46h-.02l-.48,3.46h.99Z"/><path class="cls-2" d="m59.21,36.73h1.76v9.6h2.9v1.6h-4.66v-11.2Z"/><path class="cls-2" d="m66.53,36.73h2.38l1.82,11.2h-1.76l-.32-2.22v.03h-2l-.32,2.19h-1.63l1.82-11.2Zm1.92,7.49l-.78-5.54h-.03l-.77,5.54h1.58Z"/><path class="cls-2" d="m71.99,36.73h2.61c.91,0,1.57.21,1.98.63s.62,1.07.62,1.94v.69c0,1.16-.38,1.9-1.15,2.21v.03c.43.13.73.39.9.78.18.4.26.92.26,1.58v1.97c0,.32.01.58.03.78s.07.39.16.58h-1.79c-.06-.18-.11-.35-.13-.51-.02-.16-.03-.45-.03-.86v-2.05c0-.51-.08-.87-.25-1.07s-.45-.3-.86-.3h-.61v4.8h-1.76v-11.2Zm2.4,4.8c.35,0,.62-.09.79-.27.18-.18.26-.49.26-.91v-.86c0-.4-.07-.7-.22-.88-.14-.18-.37-.27-.68-.27h-.8v3.2h.64Z"/><path class="cls-2" d="m79.38,47.36c-.45-.49-.67-1.18-.67-2.09v-5.89c0-.91.22-1.6.67-2.09.45-.49,1.1-.73,1.95-.73s1.5.24,1.95.73c.45.49.67,1.18.67,2.09v.96h-1.66v-1.07c0-.74-.3-1.1-.91-1.1s-.91.37-.91,1.1v6.13c0,.73.3,1.09.91,1.09s.91-.36.91-1.09v-2.19h-.88v-1.6h2.54v3.66c0,.91-.22,1.6-.67,2.09-.45.49-1.1.73-1.95.73s-1.5-.24-1.95-.73Z"/><path class="cls-2" d="m85.49,36.73h4.8v1.6h-3.04v2.96h2.42v1.6h-2.42v3.44h3.04v1.6h-4.8v-11.2Z"/><path class="cls-2" d="m91.7,36.73h2.61c.91,0,1.57.21,1.98.63s.62,1.07.62,1.94v.69c0,1.16-.38,1.9-1.15,2.21v.03c.43.13.73.39.9.78.18.4.26.92.26,1.58v1.97c0,.32.01.58.03.78s.07.39.16.58h-1.79c-.06-.18-.11-.35-.13-.51-.02-.16-.03-.45-.03-.86v-2.05c0-.51-.08-.87-.25-1.07s-.45-.3-.86-.3h-.61v4.8h-1.76v-11.2Zm2.4,4.8c.35,0,.62-.09.79-.27.18-.18.26-.49.26-.91v-.86c0-.4-.07-.7-.22-.88-.14-.18-.37-.27-.68-.27h-.8v3.2h.64Z"/><path class="cls-2" d="m101.51,36.73h4.8v1.6h-3.04v2.96h2.42v1.6h-2.42v3.44h3.04v1.6h-4.8v-11.2Z"/><path class="cls-2" d="m107.72,36.73h2.21l1.71,6.7h.03v-6.7h1.57v11.2h-1.81l-2.11-8.18h-.03v8.18h-1.57v-11.2Z"/><path class="cls-2" d="m114.48,36.73h1.78l1.15,8.69h.03l1.15-8.69h1.62l-1.7,11.2h-2.34l-1.7-11.2Z"/><path class="cls-2" d="m121.46,36.73h1.76v11.2h-1.76v-11.2Z"/><path class="cls-2" d="m124.93,36.73h2.61c.91,0,1.57.21,1.98.63s.62,1.07.62,1.94v.69c0,1.16-.38,1.9-1.15,2.21v.03c.43.13.73.39.9.78.18.4.26.92.26,1.58v1.97c0,.32.01.58.03.78s.07.39.16.58h-1.79c-.06-.18-.11-.35-.13-.51-.02-.16-.03-.45-.03-.86v-2.05c0-.51-.08-.87-.25-1.07s-.45-.3-.86-.3h-.61v4.8h-1.76v-11.2Zm2.4,4.8c.35,0,.62-.09.79-.27.18-.18.26-.49.26-.91v-.86c0-.4-.07-.7-.22-.88-.14-.18-.37-.27-.68-.27h-.8v3.2h.64Z"/><path class="cls-2" d="m132.34,47.35c-.46-.49-.69-1.18-.69-2.08v-5.89c0-.9.23-1.59.69-2.08.46-.49,1.12-.74,1.98-.74s1.52.25,1.98.74c.46.49.69,1.18.69,2.08v5.89c0,.9-.23,1.59-.69,2.08-.46.49-1.12.74-1.98.74s-1.53-.25-1.98-.74Zm2.9-1.97v-6.11c0-.74-.3-1.1-.91-1.1s-.91.37-.91,1.1v6.11c0,.74.3,1.1.91,1.1s.91-.37.91-1.1Z"/><path class="cls-2" d="m138.58,36.73h2.21l1.71,6.7h.03v-6.7h1.57v11.2h-1.81l-2.11-8.18h-.03v8.18h-1.57v-11.2Z"/><path class="cls-2" d="m145.81,36.73h2.51l1.12,8.02h.03l1.12-8.02h2.51v11.2h-1.66v-8.48h-.03l-1.28,8.48h-1.47l-1.28-8.48h-.03v8.48h-1.54v-11.2Z"/><path class="cls-2" d="m154.82,36.73h4.8v1.6h-3.04v2.96h2.42v1.6h-2.42v3.44h3.04v1.6h-4.8v-11.2Z"/><path class="cls-2" d="m161.03,36.73h2.21l1.71,6.7h.03v-6.7h1.57v11.2h-1.81l-2.11-8.18h-.03v8.18h-1.57v-11.2Z"/><path class="cls-2" d="m169.64,38.33h-1.84v-1.6h5.44v1.6h-1.84v9.6h-1.76v-9.6Z"/><path class="cls-2" d="m175.11,36.73h2.38l1.82,11.2h-1.76l-.32-2.22v.03h-2l-.32,2.19h-1.63l1.82-11.2Zm1.92,7.49l-.78-5.54h-.03l-.77,5.54h1.58Z"/><path class="cls-2" d="m180.56,36.73h1.76v9.6h2.9v1.6h-4.66v-11.2Z"/><path class="cls-2" d="m189.43,36.73h4.66v1.6h-2.9v3.12h2.27v1.6h-2.27v4.88h-1.76v-11.2Z"/><path class="cls-2" d="m195.89,47.35c-.46-.49-.69-1.18-.69-2.08v-5.89c0-.9.23-1.59.69-2.08.46-.49,1.12-.74,1.98-.74s1.52.25,1.98.74c.46.49.69,1.18.69,2.08v5.89c0,.9-.23,1.59-.69,2.08-.46.49-1.12.74-1.98.74s-1.53-.25-1.98-.74Zm2.9-1.97v-6.11c0-.74-.3-1.1-.91-1.1s-.91.37-.91,1.1v6.11c0,.74.3,1.1.91,1.1s.91-.37.91-1.1Z"/><path class="cls-2" d="m202.69,47.35c-.46-.49-.69-1.18-.69-2.08v-5.89c0-.9.23-1.59.69-2.08.46-.49,1.12-.74,1.98-.74s1.52.25,1.98.74c.46.49.69,1.18.69,2.08v5.89c0,.9-.23,1.59-.69,2.08-.46.49-1.12.74-1.98.74s-1.53-.25-1.98-.74Zm2.9-1.97v-6.11c0-.74-.3-1.1-.91-1.1s-.91.37-.91,1.1v6.11c0,.74.3,1.1.91,1.1s.91-.37.91-1.1Z"/><path class="cls-2" d="m210.24,38.33h-1.84v-1.6h5.44v1.6h-1.84v9.6h-1.76v-9.6Z"/><path class="cls-2" d="m215.09,36.73h2.59c.87,0,1.53.23,1.97.7.44.47.66,1.16.66,2.06v1.1c0,.91-.22,1.59-.66,2.06-.44.47-1.09.7-1.97.7h-.83v4.56h-1.76v-11.2Zm2.59,5.04c.29,0,.5-.08.65-.24.14-.16.22-.43.22-.82v-1.33c0-.38-.07-.66-.22-.82-.14-.16-.36-.24-.65-.24h-.83v3.44h.83Z"/><path class="cls-2" d="m221.67,36.73h2.61c.91,0,1.57.21,1.98.63s.62,1.07.62,1.94v.69c0,1.16-.38,1.9-1.15,2.21v.03c.43.13.73.39.9.78.18.4.26.92.26,1.58v1.97c0,.32.01.58.03.78s.07.39.16.58h-1.79c-.06-.18-.11-.35-.13-.51-.02-.16-.03-.45-.03-.86v-2.05c0-.51-.08-.87-.25-1.07s-.45-.3-.86-.3h-.61v4.8h-1.76v-11.2Zm2.4,4.8c.35,0,.62-.09.79-.27.18-.18.26-.49.26-.91v-.86c0-.4-.07-.7-.22-.88-.14-.18-.37-.27-.68-.27h-.8v3.2h.64Z"/><path class="cls-2" d="m228.52,36.73h1.76v11.2h-1.76v-11.2Z"/><path class="cls-2" d="m231.99,36.73h2.21l1.71,6.7h.03v-6.7h1.57v11.2h-1.81l-2.11-8.18h-.03v8.18h-1.57v-11.2Z"/><path class="cls-2" d="m240.6,38.33h-1.84v-1.6h5.44v1.6h-1.84v9.6h-1.76v-9.6Z"/><path class="cls-3" d="m253.46,45.58c-.28-.3-.42-.72-.42-1.27v-3.76c0-.55.14-.97.42-1.27.28-.3.68-.45,1.21-.45s.93.15,1.21.45c.28.3.42.72.42,1.27v.74h-1.04v-.81c0-.43-.18-.65-.55-.65s-.55.22-.55.65v3.91c0,.43.18.64.55.64s.55-.21.55-.64v-1.07h1.04v.99c0,.55-.14.97-.42,1.27-.28.3-.68.45-1.21.45s-.93-.15-1.21-.45Z"/><path class="cls-3" d="m257.57,45.57c-.29-.31-.43-.74-.43-1.3v-3.68c0-.56.14-.99.43-1.3s.7-.46,1.24-.46.95.15,1.24.46c.29.31.43.74.43,1.3v3.68c0,.56-.14.99-.43,1.3-.29.31-.7.46-1.24.46s-.95-.15-1.24-.46Zm1.81-1.23v-3.82c0-.46-.19-.69-.57-.69s-.57.23-.57.69v3.82c0,.46.19.69.57.69s.57-.23.57-.69Z"/><path class="cls-3" d="m261.47,38.93h1.57l.7,5.01h.02l.7-5.01h1.57v7h-1.04v-5.3h-.02l-.8,5.3h-.92l-.8-5.3h-.02v5.3h-.96v-7Z"/><path class="cls-3" d="m267.1,38.93h1.62c.55,0,.96.15,1.23.44s.41.72.41,1.29v.69c0,.57-.14,1-.41,1.29s-.68.44-1.23.44h-.52v2.85h-1.1v-7Zm1.62,3.15c.18,0,.32-.05.41-.15s.13-.27.13-.51v-.83c0-.24-.04-.41-.13-.51s-.23-.15-.41-.15h-.52v2.15h.52Z"/><path class="cls-3" d="m271.71,38.93h1.49l1.14,7h-1.1l-.2-1.39v.02h-1.25l-.2,1.37h-1.02l1.14-7Zm1.2,4.68l-.49-3.46h-.02l-.48,3.46h.99Z"/><path class="cls-3" d="m275.12,38.93h1.63c.57,0,.98.13,1.24.4.26.26.39.67.39,1.21v.43c0,.73-.24,1.19-.72,1.38v.02c.27.08.45.24.56.49.11.25.17.58.17.99v1.23c0,.2,0,.36.02.48.01.12.05.25.1.37h-1.12c-.04-.11-.07-.22-.08-.32-.01-.1-.02-.28-.02-.54v-1.28c0-.32-.05-.54-.16-.67-.1-.13-.28-.19-.53-.19h-.38v3h-1.1v-7Zm1.5,3c.22,0,.38-.06.49-.17.11-.11.17-.3.17-.57v-.54c0-.25-.04-.44-.13-.55s-.23-.17-.43-.17h-.5v2h.4Z"/><path class="cls-3" d="m279.4,38.93h3v1h-1.9v1.85h1.51v1h-1.51v2.15h1.9v1h-3v-7Z"/><path class="cls-3" d="m283.28,38.93h1.68c.55,0,.96.15,1.23.44s.41.72.41,1.29v3.54c0,.57-.14,1-.41,1.29s-.68.44-1.23.44h-1.68v-7Zm1.66,6c.18,0,.32-.05.42-.16.1-.11.15-.28.15-.52v-3.64c0-.24-.05-.41-.15-.52-.1-.11-.23-.16-.42-.16h-.56v5h.56Z"/><path class="cls-3" d="m290.3,39.93h-1.15v-1h3.4v1h-1.15v6h-1.1v-6Z"/><path class="cls-3" d="m293.64,45.57c-.29-.31-.43-.74-.43-1.3v-3.68c0-.56.14-.99.43-1.3s.7-.46,1.24-.46.95.15,1.24.46c.29.31.43.74.43,1.3v3.68c0,.56-.14.99-.43,1.3-.29.31-.7.46-1.24.46s-.95-.15-1.24-.46Zm1.81-1.23v-3.82c0-.46-.19-.69-.57-.69s-.57.23-.57.69v3.82c0,.46.19.69.57.69s.57-.23.57-.69Z"/><path class="cls-5" d="m35.03,22.65h-3.52V.26h3.52v9.6h4V.26h3.58v22.4h-3.58v-9.6h-4v9.6Z"/><path class="cls-5" d="m46.07.26h3.52v22.4h-3.52V.26Z"/><path class="cls-5" d="m58.45,10.18h4.93v7.1c0,3.58-1.79,5.63-5.25,5.63s-5.25-2.05-5.25-5.63V5.63c0-3.58,1.79-5.63,5.25-5.63s5.25,2.05,5.25,5.63v2.18h-3.33v-2.4c0-1.6-.7-2.21-1.82-2.21s-1.82.61-1.82,2.21v12.09c0,1.6.7,2.18,1.82,2.18s1.82-.58,1.82-2.18v-4.13h-1.6v-3.2Z"/><path class="cls-5" d="m70.16,22.65h-3.52V.26h3.52v9.6h4V.26h3.58v22.4h-3.58v-9.6h-4v9.6Z"/><path class="cls-5" d="m81.07,9.85h6.4v3.2h-6.4v-3.2Z"/><path class="cls-5" d="m90.77.26h3.52v22.4h-3.52V.26Z"/><path class="cls-5" d="m100.89,6.43v16.22h-3.17V.26h4.42l3.62,13.41V.26h3.14v22.4h-3.62l-4.38-16.22Z"/><path class="cls-5" d="m122.66,14.3v2.98c0,3.58-1.79,5.63-5.25,5.63s-5.25-2.05-5.25-5.63V5.63c0-3.58,1.79-5.63,5.25-5.63s5.25,2.05,5.25,5.63v2.18h-3.33v-2.4c0-1.6-.7-2.21-1.82-2.21s-1.82.61-1.82,2.21v12.09c0,1.6.7,2.18,1.82,2.18s1.82-.58,1.82-2.18v-3.2h3.33Z"/><path class="cls-5" d="m125.69,5.63c0-3.58,1.89-5.63,5.34-5.63s5.34,2.05,5.34,5.63v11.65c0,3.58-1.89,5.63-5.34,5.63s-5.34-2.05-5.34-5.63V5.63Zm3.52,11.87c0,1.6.7,2.21,1.82,2.21s1.82-.61,1.82-2.21V5.41c0-1.6-.7-2.21-1.82-2.21s-1.82.61-1.82,2.21v12.09Z"/><path class="cls-5" d="m147.14,16.16l2.4-15.9h4.9v22.4h-3.33V6.59l-2.43,16.06h-3.33l-2.62-15.84v15.84h-3.07V.26h4.9l2.59,15.9Z"/><path class="cls-5" d="m161.44,9.7h4.83v3.2h-4.83v6.56h6.08v3.2h-9.6V.26h9.6v3.2h-6.08v6.24Z"/><path class="cls-5" d="m187.43,14.3v2.98c0,3.58-1.79,5.63-5.25,5.63s-5.25-2.05-5.25-5.63V5.63c0-3.58,1.79-5.63,5.25-5.63s5.25,2.05,5.25,5.63v2.18h-3.33v-2.4c0-1.6-.7-2.21-1.82-2.21s-1.82.61-1.82,2.21v12.09c0,1.6.7,2.18,1.82,2.18s1.82-.58,1.82-2.18v-3.2h3.33Z"/><path class="cls-5" d="m190.45,5.63c0-3.58,1.89-5.63,5.34-5.63s5.34,2.05,5.34,5.63v11.65c0,3.58-1.89,5.63-5.34,5.63s-5.34-2.05-5.34-5.63V5.63Zm3.52,11.87c0,1.6.7,2.21,1.82,2.21s1.82-.61,1.82-2.21V5.41c0-1.6-.7-2.21-1.82-2.21s-1.82.61-1.82,2.21v12.09Z"/><path class="cls-5" d="m207.83.26v17.28c0,1.6.7,2.18,1.82,2.18s1.82-.58,1.82-2.18V.26h3.33v17.05c0,3.58-1.79,5.63-5.25,5.63s-5.25-2.05-5.25-5.63V.26h3.52Z"/><path class="cls-5" d="m221.34,6.43v16.22h-3.17V.26h4.42l3.62,13.41V.26h3.14v22.4h-3.62l-4.38-16.22Z"/><path class="cls-5" d="m232.2.26h10.88v3.2h-3.68v19.2h-3.52V3.46h-3.68V.26Z"/><path class="cls-5" d="m253.3,22.65c-.19-.58-.32-.93-.32-2.75v-3.52c0-2.08-.7-2.85-2.3-2.85h-1.22v9.12h-3.52V.26h5.31c3.65,0,5.22,1.7,5.22,5.15v1.76c0,2.3-.74,3.81-2.3,4.54,1.76.74,2.34,2.43,2.34,4.77v3.46c0,1.09.03,1.89.38,2.72h-3.58Zm-3.84-19.2v6.88h1.38c1.31,0,2.11-.58,2.11-2.37v-2.21c0-1.6-.54-2.3-1.79-2.3h-1.7Z"/><path class="cls-5" d="m259.95.26h3.52v22.4h-3.52V.26Z"/><path class="cls-5" d="m270.43,9.7h4.83v3.2h-4.83v6.56h6.08v3.2h-9.6V.26h9.6v3.2h-6.08v6.24Z"/><path class="cls-5" d="m284.64,0c3.42,0,5.18,2.05,5.18,5.63v.7h-3.33v-.93c0-1.6-.64-2.21-1.76-2.21s-1.76.61-1.76,2.21c0,4.61,6.88,5.47,6.88,11.87,0,3.58-1.79,5.63-5.25,5.63s-5.25-2.05-5.25-5.63v-1.38h3.33v1.6c0,1.6.7,2.18,1.82,2.18s1.82-.58,1.82-2.18c0-4.61-6.88-5.47-6.88-11.87,0-3.58,1.76-5.63,5.18-5.63Z"/><path class="cls-5" d="m33.92,62.47h3.52v19.2h5.79v3.2h-9.31v-22.4Z"/><path class="cls-5" d="m45.9,67.84c0-3.58,1.89-5.63,5.34-5.63s5.34,2.05,5.34,5.63v11.65c0,3.58-1.89,5.63-5.34,5.63s-5.34-2.05-5.34-5.63v-11.65Zm3.52,11.87c0,1.6.7,2.21,1.82,2.21s1.82-.61,1.82-2.21v-12.09c0-1.6-.7-2.21-1.82-2.21s-1.82.61-1.82,2.21v12.09Z"/><path class="cls-5" d="m67.8,72.93l-1.28,11.94h-4.83l-2.5-22.4h3.42l1.89,17.66,1.7-17.66h3.39l1.76,17.79,1.82-17.79h3.07l-2.5,22.4h-4.67l-1.28-11.94Z"/><path class="cls-5" d="m78.66,72.06h6.4v3.2h-6.4v-3.2Z"/><path class="cls-5" d="m88.36,62.47h3.52v22.4h-3.52v-22.4Z"/><path class="cls-5" d="m98.48,68.64v16.22h-3.17v-22.4h4.42l3.62,13.41v-13.41h3.14v22.4h-3.62l-4.38-16.22Z"/><path class="cls-5" d="m120.25,76.51v2.98c0,3.58-1.79,5.63-5.25,5.63s-5.25-2.05-5.25-5.63v-11.65c0-3.58,1.79-5.63,5.25-5.63s5.25,2.05,5.25,5.63v2.18h-3.33v-2.4c0-1.6-.7-2.21-1.82-2.21s-1.82.61-1.82,2.21v12.09c0,1.6.7,2.18,1.82,2.18s1.82-.58,1.82-2.18v-3.2h3.33Z"/><path class="cls-5" d="m123.28,67.84c0-3.58,1.89-5.63,5.34-5.63s5.34,2.05,5.34,5.63v11.65c0,3.58-1.89,5.63-5.34,5.63s-5.34-2.05-5.34-5.63v-11.65Zm3.52,11.87c0,1.6.7,2.21,1.82,2.21s1.82-.61,1.82-2.21v-12.09c0-1.6-.7-2.21-1.82-2.21s-1.82.61-1.82,2.21v12.09Z"/><path class="cls-5" d="m144.73,78.37l2.4-15.9h4.9v22.4h-3.33v-16.06l-2.43,16.06h-3.33l-2.62-15.84v15.84h-3.07v-22.4h4.9l2.59,15.9Z"/><path class="cls-5" d="m159.03,71.91h4.83v3.2h-4.83v6.56h6.08v3.2h-9.6v-22.4h9.6v3.2h-6.08v6.24Z"/><path class="cls-5" d="m185.02,76.51v2.98c0,3.58-1.79,5.63-5.25,5.63s-5.25-2.05-5.25-5.63v-11.65c0-3.58,1.79-5.63,5.25-5.63s5.25,2.05,5.25,5.63v2.18h-3.33v-2.4c0-1.6-.7-2.21-1.82-2.21s-1.82.61-1.82,2.21v12.09c0,1.6.7,2.18,1.82,2.18s1.82-.58,1.82-2.18v-3.2h3.33Z"/><path class="cls-5" d="m188.04,67.84c0-3.58,1.89-5.63,5.34-5.63s5.34,2.05,5.34,5.63v11.65c0,3.58-1.89,5.63-5.34,5.63s-5.34-2.05-5.34-5.63v-11.65Zm3.52,11.87c0,1.6.7,2.21,1.82,2.21s1.82-.61,1.82-2.21v-12.09c0-1.6-.7-2.21-1.82-2.21s-1.82.61-1.82,2.21v12.09Z"/><path class="cls-5" d="m205.43,62.47v17.28c0,1.6.7,2.18,1.82,2.18s1.82-.58,1.82-2.18v-17.28h3.33v17.05c0,3.58-1.79,5.63-5.25,5.63s-5.25-2.05-5.25-5.63v-17.05h3.52Z"/><path class="cls-5" d="m218.93,68.64v16.22h-3.17v-22.4h4.42l3.62,13.41v-13.41h3.14v22.4h-3.62l-4.38-16.22Z"/><path class="cls-5" d="m229.79,62.47h10.88v3.2h-3.68v19.2h-3.52v-19.2h-3.68v-3.2Z"/><path class="cls-5" d="m250.9,84.86c-.19-.58-.32-.93-.32-2.75v-3.52c0-2.08-.7-2.85-2.3-2.85h-1.22v9.12h-3.52v-22.4h5.31c3.65,0,5.22,1.7,5.22,5.15v1.76c0,2.3-.74,3.81-2.3,4.54,1.76.74,2.34,2.43,2.34,4.77v3.46c0,1.09.03,1.89.38,2.72h-3.58Zm-3.84-19.2v6.88h1.38c1.31,0,2.11-.58,2.11-2.37v-2.21c0-1.6-.54-2.3-1.79-2.3h-1.7Z"/><path class="cls-5" d="m257.54,62.47h3.52v22.4h-3.52v-22.4Z"/><path class="cls-5" d="m268.02,71.91h4.83v3.2h-4.83v6.56h6.08v3.2h-9.6v-22.4h9.6v3.2h-6.08v6.24Z"/><path class="cls-5" d="m282.23,62.21c3.42,0,5.18,2.05,5.18,5.63v.7h-3.33v-.93c0-1.6-.64-2.21-1.76-2.21s-1.76.61-1.76,2.21c0,4.61,6.88,5.47,6.88,11.87,0,3.58-1.79,5.63-5.25,5.63s-5.25-2.05-5.25-5.63v-1.38h3.33v1.6c0,1.6.7,2.18,1.82,2.18s1.82-.58,1.82-2.18c0-4.61-6.88-5.47-6.88-11.87,0-3.58,1.76-5.63,5.18-5.63Z"/><line class="cls-11" x1="49.41" y1="37.13" x2="24.32" y2="37.13"/><line class="cls-11" x1="49.41" y1="47.93" x2="24.32" y2="47.93"/><line class="cls-11" x1="296.57" y1="37.14" x2="253.04" y2="37.14"/><line class="cls-11" x1="296.57" y1="47.94" x2="253.04" y2="47.94"/><rect class="cls-3" x=".01" y="113.11" width="323.64" height="23.54"/><path class="cls-2" d="m20.12,127.28l1.02-6.79h2.09v9.56h-1.42v-6.86l-1.04,6.86h-1.42l-1.12-6.76v6.76h-1.31v-9.56h2.09l1.11,6.79Z"/><path class="cls-2" d="m29.8,130.05h-1.52l-.26-1.73h-1.84l-.26,1.73h-1.38l1.53-9.56h2.2l1.53,9.56Zm-3.43-3.03h1.45l-.72-4.83-.72,4.83Z"/><path class="cls-2" d="m30.25,120.49h4.64v1.37h-1.57v8.19h-1.5v-8.19h-1.57v-1.37Z"/><path class="cls-2" d="m37.69,124.52h2.06v1.37h-2.06v2.8h2.59v1.37h-4.1v-9.56h4.1v1.37h-2.59v2.66Z"/><path class="cls-2" d="m44.85,130.05c-.08-.25-.14-.4-.14-1.17v-1.5c0-.89-.3-1.22-.98-1.22h-.52v3.89h-1.5v-9.56h2.27c1.56,0,2.23.72,2.23,2.2v.75c0,.98-.31,1.62-.98,1.94.75.31,1,1.04,1,2.04v1.47c0,.46.01.81.16,1.16h-1.53Zm-1.64-8.19v2.94h.59c.56,0,.9-.25.9-1.01v-.94c0-.68-.23-.98-.76-.98h-.72Z"/><path class="cls-2" d="m47.75,120.49h1.5v9.56h-1.5v-9.56Z"/><path class="cls-2" d="m55.81,130.05h-1.52l-.26-1.73h-1.84l-.26,1.73h-1.38l1.53-9.56h2.2l1.53,9.56Zm-3.43-3.03h1.45l-.72-4.83-.72,4.83Z"/><path class="cls-2" d="m57.12,120.49h1.5v8.19h2.47v1.37h-3.97v-9.56Z"/><path class="cls-2" d="m66.46,124.74h1.94v1.37h-1.94v3.95h-1.5v-9.56h3.97v1.37h-2.47v2.88Z"/><path class="cls-2" d="m70.16,122.79c0-1.53.81-2.4,2.28-2.4s2.28.87,2.28,2.4v4.97c0,1.53-.81,2.4-2.28,2.4s-2.28-.87-2.28-2.4v-4.97Zm1.5,5.07c0,.68.3.94.78.94s.78-.26.78-.94v-5.16c0-.68-.3-.94-.78-.94s-.78.26-.78.94v5.16Z"/><path class="cls-2" d="m76.1,122.79c0-1.53.81-2.4,2.28-2.4s2.28.87,2.28,2.4v4.97c0,1.53-.81,2.4-2.28,2.4s-2.28-.87-2.28-2.4v-4.97Zm1.5,5.07c0,.68.3.94.78.94s.78-.26.78-.94v-5.16c0-.68-.3-.94-.78-.94s-.78.26-.78.94v5.16Z"/><path class="cls-2" d="m81.86,120.49h4.64v1.37h-1.57v8.19h-1.5v-8.19h-1.57v-1.37Z"/><path class="cls-2" d="m92.24,122.85v1.24c0,1.53-.74,2.36-2.24,2.36h-.71v3.59h-1.5v-9.56h2.21c1.5,0,2.24.83,2.24,2.36Zm-2.95-1v3.24h.71c.48,0,.74-.22.74-.9v-1.43c0-.68-.26-.9-.74-.9h-.71Z"/><path class="cls-2" d="m96.69,130.05c-.08-.25-.14-.4-.14-1.17v-1.5c0-.89-.3-1.22-.98-1.22h-.52v3.89h-1.5v-9.56h2.27c1.56,0,2.23.72,2.23,2.2v.75c0,.98-.31,1.62-.98,1.94.75.31,1,1.04,1,2.04v1.47c0,.46.01.81.16,1.16h-1.53Zm-1.64-8.19v2.94h.59c.56,0,.9-.25.9-1.01v-.94c0-.68-.23-.98-.76-.98h-.72Z"/><path class="cls-2" d="m99.59,120.49h1.5v9.56h-1.5v-9.56Z"/><path class="cls-2" d="m103.98,123.13v6.92h-1.35v-9.56h1.88l1.54,5.72v-5.72h1.34v9.56h-1.54l-1.87-6.92Z"/><path class="cls-2" d="m108.68,120.49h4.64v1.37h-1.57v8.19h-1.5v-8.19h-1.57v-1.37Z"/><path class="cls-2" d="m121.63,122.85v1.24c0,1.53-.74,2.36-2.24,2.36h-.71v3.59h-1.5v-9.56h2.21c1.5,0,2.24.83,2.24,2.36Zm-2.95-1v3.24h.71c.48,0,.74-.22.74-.9v-1.43c0-.68-.26-.9-.74-.9h-.71Z"/><path class="cls-2" d="m124.44,124.52h2.06v1.37h-2.06v2.8h2.59v1.37h-4.1v-9.56h4.1v1.37h-2.59v2.66Z"/><path class="cls-2" d="m131.61,130.05c-.08-.25-.14-.4-.14-1.17v-1.5c0-.89-.3-1.22-.98-1.22h-.52v3.89h-1.5v-9.56h2.27c1.56,0,2.23.72,2.23,2.2v.75c0,.98-.31,1.62-.98,1.94.75.31,1,1.04,1,2.04v1.47c0,.46.01.81.16,1.16h-1.53Zm-1.64-8.19v2.94h.59c.56,0,.9-.25.9-1.01v-.94c0-.68-.23-.98-.76-.98h-.72Z"/><path class="cls-2" d="m141.52,126.49v1.27c0,1.53-.76,2.4-2.24,2.4s-2.24-.87-2.24-2.4v-4.97c0-1.53.76-2.4,2.24-2.4s2.24.87,2.24,2.4v.93h-1.42v-1.02c0-.68-.3-.94-.78-.94s-.78.26-.78.94v5.16c0,.68.3.93.78.93s.78-.25.78-.93v-1.37h1.42Z"/><path class="cls-2" d="m147.87,130.05h-1.52l-.26-1.73h-1.84l-.26,1.73h-1.38l1.53-9.56h2.2l1.53,9.56Zm-3.43-3.03h1.45l-.72-4.83-.72,4.83Z"/><path class="cls-2" d="m153.63,122.85v1.24c0,1.53-.74,2.36-2.24,2.36h-.71v3.59h-1.5v-9.56h2.21c1.5,0,2.24.83,2.24,2.36Zm-2.95-1v3.24h.71c.48,0,.74-.22.74-.9v-1.43c0-.68-.26-.9-.74-.9h-.71Z"/><path class="cls-2" d="m154.94,120.49h1.5v9.56h-1.5v-9.56Z"/><path class="cls-2" d="m157.72,120.49h4.64v1.37h-1.57v8.19h-1.5v-8.19h-1.57v-1.37Z"/><path class="cls-2" d="m168.07,130.05h-1.52l-.26-1.73h-1.84l-.26,1.73h-1.38l1.53-9.56h2.2l1.53,9.56Zm-3.43-3.03h1.45l-.72-4.83-.72,4.83Z"/><path class="cls-2" d="m171.97,120.49h1.5v9.56h-1.5v-9.56Z"/><path class="cls-2" d="m176.36,123.13v6.92h-1.35v-9.56h1.88l1.54,5.72v-5.72h1.34v9.56h-1.54l-1.87-6.92Z"/><path class="cls-2" d="m185.56,130.05h-1.5v-9.56h1.5v4.1h1.71v-4.1h1.53v9.56h-1.53v-4.1h-1.71v4.1Z"/><path class="cls-2" d="m190.34,120.49h1.5v9.56h-1.5v-9.56Z"/><path class="cls-2" d="m195.69,124.73h2.1v3.03c0,1.53-.76,2.4-2.24,2.4s-2.24-.87-2.24-2.4v-4.97c0-1.53.76-2.4,2.24-2.4s2.24.87,2.24,2.4v.93h-1.42v-1.02c0-.68-.3-.94-.78-.94s-.78.26-.78.94v5.16c0,.68.3.93.78.93s.78-.25.78-.93v-1.76h-.68v-1.37Z"/><path class="cls-2" d="m200.76,130.05h-1.5v-9.56h1.5v4.1h1.71v-4.1h1.53v9.56h-1.53v-4.1h-1.71v4.1Z"/><path class="cls-2" d="m205.48,124.59h2.73v1.37h-2.73v-1.37Z"/><path class="cls-2" d="m209.7,120.49h1.5v9.56h-1.5v-9.56Z"/><path class="cls-2" d="m214.08,123.13v6.92h-1.35v-9.56h1.88l1.54,5.72v-5.72h1.34v9.56h-1.54l-1.87-6.92Z"/><path class="cls-2" d="m223.44,126.49v1.27c0,1.53-.76,2.4-2.24,2.4s-2.24-.87-2.24-2.4v-4.97c0-1.53.76-2.4,2.24-2.4s2.24.87,2.24,2.4v.93h-1.42v-1.02c0-.68-.3-.94-.78-.94s-.78.26-.78.94v5.16c0,.68.3.93.78.93s.78-.25.78-.93v-1.37h1.42Z"/><path class="cls-2" d="m224.8,122.79c0-1.53.81-2.4,2.28-2.4s2.28.87,2.28,2.4v4.97c0,1.53-.81,2.4-2.28,2.4s-2.28-.87-2.28-2.4v-4.97Zm1.5,5.07c0,.68.3.94.78.94s.78-.26.78-.94v-5.16c0-.68-.3-.94-.78-.94s-.78.26-.78.94v5.16Z"/><path class="cls-2" d="m234.02,127.28l1.02-6.79h2.09v9.56h-1.42v-6.86l-1.04,6.86h-1.42l-1.12-6.76v6.76h-1.31v-9.56h2.09l1.11,6.79Z"/><path class="cls-2" d="m240.2,124.52h2.06v1.37h-2.06v2.8h2.59v1.37h-4.1v-9.56h4.1v1.37h-2.59v2.66Z"/><path class="cls-2" d="m251.28,126.49v1.27c0,1.53-.76,2.4-2.24,2.4s-2.24-.87-2.24-2.4v-4.97c0-1.53.76-2.4,2.24-2.4s2.24.87,2.24,2.4v.93h-1.42v-1.02c0-.68-.3-.94-.78-.94s-.78.26-.78.94v5.16c0,.68.3.93.78.93s.78-.25.78-.93v-1.37h1.42Z"/><path class="cls-2" d="m252.64,122.79c0-1.53.81-2.4,2.28-2.4s2.28.87,2.28,2.4v4.97c0,1.53-.81,2.4-2.28,2.4s-2.28-.87-2.28-2.4v-4.97Zm1.5,5.07c0,.68.3.94.78.94s.78-.26.78-.94v-5.16c0-.68-.3-.94-.78-.94s-.78.26-.78.94v5.16Z"/><path class="cls-2" d="m260.12,120.49v7.37c0,.68.3.93.78.93s.78-.25.78-.93v-7.37h1.42v7.28c0,1.53-.76,2.4-2.24,2.4s-2.24-.87-2.24-2.4v-7.28h1.5Z"/><path class="cls-2" d="m265.96,123.13v6.92h-1.35v-9.56h1.88l1.54,5.72v-5.72h1.34v9.56h-1.54l-1.87-6.92Z"/><path class="cls-2" d="m270.65,120.49h4.64v1.37h-1.57v8.19h-1.5v-8.19h-1.57v-1.37Z"/><path class="cls-2" d="m279.73,130.05c-.08-.25-.14-.4-.14-1.17v-1.5c0-.89-.3-1.22-.98-1.22h-.52v3.89h-1.5v-9.56h2.27c1.56,0,2.23.72,2.23,2.2v.75c0,.98-.31,1.62-.98,1.94.75.31,1,1.04,1,2.04v1.47c0,.46.01.81.16,1.16h-1.53Zm-1.64-8.19v2.94h.59c.56,0,.9-.25.9-1.01v-.94c0-.68-.23-.98-.76-.98h-.72Z"/><path class="cls-2" d="m282.63,120.49h1.5v9.56h-1.5v-9.56Z"/><path class="cls-2" d="m287.17,124.52h2.06v1.37h-2.06v2.8h2.59v1.37h-4.1v-9.56h4.1v1.37h-2.59v2.66Z"/><path class="cls-2" d="m293.3,120.38c1.46,0,2.21.87,2.21,2.4v.3h-1.42v-.4c0-.68-.27-.94-.75-.94s-.75.26-.75.94c0,1.97,2.94,2.34,2.94,5.07,0,1.53-.77,2.4-2.24,2.4s-2.24-.87-2.24-2.4v-.59h1.42v.68c0,.68.3.93.78.93s.78-.25.78-.93c0-1.97-2.94-2.34-2.94-5.07,0-1.53.75-2.4,2.21-2.4Z"/><path class="cls-2" d="m299.59,120.49h1.5v9.56h-1.5v-9.56Z"/><path class="cls-2" d="m304.74,120.38c1.46,0,2.21.87,2.21,2.4v.3h-1.42v-.4c0-.68-.27-.94-.75-.94s-.75.26-.75.94c0,1.97,2.94,2.34,2.94,5.07,0,1.53-.77,2.4-2.24,2.4s-2.24-.87-2.24-2.4v-.59h1.42v.68c0,.68.3.93.78.93s.78-.25.78-.93c0-1.97-2.94-2.34-2.94-5.07,0-1.53.75-2.4,2.21-2.4Z"/><rect class="cls-1" x="49.85" y="302.8" width="218.63" height="30.34"/><line class="cls-10" x1="247.75" y1="152.24" x2="247.75" y2="152.24"/><line class="cls-8" x1="244.74" y1="152.24" x2="144.08" y2="152.24"/><line class="cls-10" x1="142.58" y1="152.24" x2="142.58" y2="152.24"/><line class="cls-10" x1="247.75" y1="171.01" x2="247.75" y2="171.01"/><line class="cls-8" x1="244.74" y1="171.01" x2="144.08" y2="171.01"/><line class="cls-10" x1="142.58" y1="171.01" x2="142.58" y2="171.01"/><path class="cls-5" d="m64.11,154.23c2.21,0,2.7-1.07,3.15-2.29h1.92v18.2h-2.86v-13.88h-2.21v-2.03Z"/><path class="cls-5" d="m72.05,156.31c0-2.91,1.53-4.58,4.34-4.58s4.34,1.66,4.34,4.58v9.46c0,2.91-1.53,4.58-4.34,4.58s-4.34-1.66-4.34-4.58v-9.46Zm2.86,9.65c0,1.3.57,1.79,1.48,1.79s1.48-.49,1.48-1.79v-9.83c0-1.3-.57-1.79-1.48-1.79s-1.48.49-1.48,1.79v9.83Z"/><path class="cls-5" d="m86.82,151.94h8.84v2.6h-2.99v15.6h-2.86v-15.6h-2.99v-2.6Z"/><path class="cls-5" d="m97.51,151.94h2.86v18.2h-2.86v-18.2Z"/><path class="cls-5" d="m108.76,164.86l1.95-12.92h3.98v18.2h-2.7v-13.05l-1.98,13.05h-2.7l-2.13-12.87v12.87h-2.5v-18.2h3.98l2.11,12.92Z"/><path class="cls-5" d="m119.9,159.61h3.93v2.6h-3.93v5.33h4.94v2.6h-7.8v-18.2h7.8v2.6h-4.94v5.07Z"/><path class="cls-5" d="m130.97,151.73c2.78,0,4.21,1.66,4.21,4.58v.57h-2.7v-.75c0-1.3-.52-1.79-1.43-1.79s-1.43.49-1.43,1.79c0,3.74,5.59,4.45,5.59,9.65,0,2.91-1.46,4.58-4.26,4.58s-4.26-1.66-4.26-4.58v-1.12h2.7v1.3c0,1.3.57,1.77,1.48,1.77s1.48-.47,1.48-1.77c0-3.74-5.59-4.45-5.59-9.65,0-2.91,1.43-4.58,4.21-4.58Z"/><path class="cls-3" d="m143.71,159.14h-1.15v-1h3.4v1h-1.15v6h-1.1v-6Z"/><path class="cls-3" d="m146.74,158.14h1.1v2.85h1.18v-2.85h1.1v7h-1.1v-3.15h-1.18v3.15h-1.1v-7Z"/><path class="cls-3" d="m152.04,158.14h1.49l1.14,7h-1.1l-.2-1.39v.02h-1.25l-.2,1.37h-1.02l1.14-7Zm1.2,4.68l-.49-3.46h-.02l-.48,3.46h.99Z"/><path class="cls-3" d="m155.85,159.14h-1.15v-1h3.4v1h-1.15v6h-1.1v-6Z"/><path class="cls-3" d="m161.08,164.78c-.29-.31-.43-.74-.43-1.3v-3.68c0-.56.14-.99.43-1.3s.7-.46,1.24-.46.95.15,1.24.46c.29.31.43.74.43,1.3v3.68c0,.56-.14.99-.43,1.3-.29.31-.7.46-1.24.46s-.95-.15-1.24-.46Zm1.81-1.23v-3.82c0-.46-.19-.69-.57-.69s-.57.23-.57.69v3.82c0,.46.19.69.57.69s.57-.23.57-.69Z"/><path class="cls-3" d="m164.98,158.14h2.91v1h-1.81v1.95h1.42v1h-1.42v3.05h-1.1v-7Z"/><path class="cls-3" d="m170.52,158.14h1.1v6h1.81v1h-2.91v-7Z"/><path class="cls-3" d="m174.52,164.78c-.29-.31-.43-.74-.43-1.3v-3.68c0-.56.14-.99.43-1.3s.7-.46,1.24-.46.95.15,1.24.46c.29.31.43.74.43,1.3v3.68c0,.56-.14.99-.43,1.3-.29.31-.7.46-1.24.46s-.95-.15-1.24-.46Zm1.81-1.23v-3.82c0-.46-.19-.69-.57-.69s-.57.23-.57.69v3.82c0,.46.19.69.57.69s.57-.23.57-.69Z"/><path class="cls-3" d="m178.16,158.14h1.06l.49,5.38h.02l.52-5.38h1.2l.52,5.38h.02l.49-5.38h.95l-.71,7h-1.37l-.5-4.72h-.02l-.5,4.72h-1.46l-.71-7Z"/><path class="cls-3" d="m184,161.14h2.2v1h-2.2v-1Z"/><path class="cls-3" d="m187.11,158.14h1.1v7h-1.1v-7Z"/><path class="cls-3" d="m189.28,158.14h1.38l1.07,4.19h.02v-4.19h.98v7h-1.13l-1.32-5.11h-.02v5.11h-.98v-7Z"/><path class="cls-3" d="m194.15,164.79c-.28-.3-.42-.72-.42-1.27v-3.76c0-.55.14-.97.42-1.27.28-.3.68-.45,1.21-.45s.93.15,1.21.45c.28.3.42.72.42,1.27v.74h-1.04v-.81c0-.43-.18-.65-.55-.65s-.55.22-.55.65v3.91c0,.43.18.64.55.64s.55-.21.55-.64v-1.07h1.04v.99c0,.55-.14.97-.42,1.27-.28.3-.68.45-1.21.45s-.93-.15-1.21-.45Z"/><path class="cls-3" d="m198.25,164.78c-.29-.31-.43-.74-.43-1.3v-3.68c0-.56.14-.99.43-1.3s.7-.46,1.24-.46.95.15,1.24.46c.29.31.43.74.43,1.3v3.68c0,.56-.14.99-.43,1.3-.29.31-.7.46-1.24.46s-.95-.15-1.24-.46Zm1.81-1.23v-3.82c0-.46-.19-.69-.57-.69s-.57.23-.57.69v3.82c0,.46.19.69.57.69s.57-.23.57-.69Z"/><path class="cls-3" d="m202.15,158.14h1.57l.7,5.01h.02l.7-5.01h1.57v7h-1.04v-5.3h-.02l-.8,5.3h-.92l-.8-5.3h-.02v5.3h-.96v-7Z"/><path class="cls-3" d="m207.78,158.14h3v1h-1.9v1.85h1.51v1h-1.51v2.15h1.9v1h-3v-7Z"/><path class="cls-3" d="m213.86,164.79c-.28-.3-.42-.72-.42-1.27v-3.76c0-.55.14-.97.42-1.27.28-.3.68-.45,1.21-.45s.93.15,1.21.45c.28.3.42.72.42,1.27v.74h-1.04v-.81c0-.43-.18-.65-.55-.65s-.55.22-.55.65v3.91c0,.43.18.64.55.64s.55-.21.55-.64v-1.07h1.04v.99c0,.55-.14.97-.42,1.27-.28.3-.68.45-1.21.45s-.93-.15-1.21-.45Z"/><path class="cls-3" d="m217.96,164.78c-.29-.31-.43-.74-.43-1.3v-3.68c0-.56.14-.99.43-1.3s.7-.46,1.24-.46.95.15,1.24.46c.29.31.43.74.43,1.3v3.68c0,.56-.14.99-.43,1.3-.29.31-.7.46-1.24.46s-.95-.15-1.24-.46Zm1.81-1.23v-3.82c0-.46-.19-.69-.57-.69s-.57.23-.57.69v3.82c0,.46.19.69.57.69s.57-.23.57-.69Z"/><path class="cls-3" d="m222.24,164.79c-.28-.3-.42-.74-.42-1.3v-5.34h1.1v5.42c0,.24.05.41.15.52.1.11.23.16.41.16s.32-.05.42-.16c.1-.11.15-.28.15-.52v-5.42h1.06v5.34c0,.57-.14,1-.42,1.3-.28.3-.69.46-1.22.46s-.94-.15-1.22-.46Z"/><path class="cls-3" d="m226.13,158.14h1.38l1.07,4.19h.02v-4.19h.98v7h-1.13l-1.32-5.11h-.02v5.11h-.98v-7Z"/><path class="cls-3" d="m231.51,159.14h-1.15v-1h3.4v1h-1.15v6h-1.1v-6Z"/><path class="cls-3" d="m234.54,158.14h1.63c.57,0,.98.13,1.24.39.26.26.39.67.39,1.22v.43c0,.73-.24,1.19-.72,1.38v.02c.27.08.45.24.56.49.11.25.17.58.17.99v1.23c0,.2,0,.36.02.48.01.12.05.25.1.37h-1.12c-.04-.11-.07-.22-.08-.32-.01-.1-.02-.28-.02-.54v-1.28c0-.32-.05-.54-.16-.67-.1-.13-.28-.19-.53-.19h-.38v3h-1.1v-7Zm1.5,3c.22,0,.38-.06.49-.17.11-.11.17-.3.17-.57v-.54c0-.25-.04-.44-.13-.55s-.23-.17-.43-.17h-.5v2h.4Z"/><path class="cls-3" d="m238.82,158.14h1.1v7h-1.1v-7Z"/><path class="cls-3" d="m240.99,158.14h3v1h-1.9v1.85h1.51v1h-1.51v2.15h1.9v1h-3v-7Z"/><path class="cls-3" d="m245.11,164.79c-.27-.3-.41-.74-.41-1.3v-.4h1.04v.48c0,.45.19.68.57.68.19,0,.33-.05.42-.17.1-.11.15-.29.15-.53,0-.29-.07-.55-.2-.78-.13-.22-.38-.49-.74-.8-.45-.4-.77-.76-.95-1.08-.18-.32-.27-.69-.27-1.1,0-.55.14-.98.42-1.28.28-.3.69-.46,1.22-.46s.93.15,1.2.46c.27.3.4.74.4,1.3v.29h-1.04v-.36c0-.24-.05-.42-.14-.52-.09-.11-.23-.17-.41-.17-.37,0-.55.22-.55.67,0,.25.07.49.21.71.14.22.39.49.75.8.46.4.78.76.95,1.09.17.33.26.71.26,1.15,0,.57-.14,1.01-.42,1.32-.28.31-.7.46-1.24.46s-.94-.15-1.21-.46Z"/><path class="cls-3" d="m55.43,298.32c-.17-.16-.25-.44-.25-.83v-3.46c0-.39.08-.66.25-.83s.44-.25.83-.25h.24v.63h-.19c-.13,0-.22.03-.27.09-.06.06-.08.18-.08.35v3.46c0,.17.03.28.08.35.06.06.15.09.27.09h.19v.63h-.24c-.39,0-.66-.08-.83-.24Z"/><path class="cls-3" d="m57.2,297.68c0-.35.06-.65.17-.9.11-.25.31-.53.6-.83.29-.3.48-.56.59-.78s.16-.44.16-.67c0-.21-.03-.36-.1-.44-.07-.08-.17-.12-.3-.12-.27,0-.4.16-.4.48v.53h-.73v-.48c0-.4.1-.7.29-.91.2-.21.48-.32.85-.32s.66.11.85.32c.2.21.29.52.29.91,0,.3-.07.59-.21.88-.14.29-.39.61-.74.98-.23.24-.38.44-.46.59-.08.15-.12.31-.12.49v.1h1.46v.7h-2.23v-.53Z"/><path class="cls-3" d="m60.48,297.96c-.2-.21-.3-.52-.3-.91v-2.58c0-.39.1-.7.3-.91.2-.21.49-.32.87-.32s.67.11.87.32c.2.21.3.52.3.91v2.58c0,.39-.1.7-.3.91-.2.21-.49.32-.87.32s-.67-.11-.87-.32Zm1.27-.86v-2.67c0-.32-.13-.48-.4-.48s-.4.16-.4.48v2.67c0,.32.13.48.4.48s.4-.16.4-.48Z"/><path class="cls-3" d="m64.17,294.48h-.81v-.55c.22,0,.4-.02.53-.06.13-.04.24-.1.32-.19.08-.09.15-.21.21-.38h.52v4.9h-.77v-3.74Z"/><path class="cls-3" d="m66.15,297.97c-.2-.21-.29-.52-.29-.91v-.09h.73v.14c0,.32.13.48.4.48.14,0,.25-.04.32-.13.07-.09.11-.25.11-.47v-.94h-.01c-.14.28-.37.43-.7.43-.28,0-.49-.1-.64-.29-.14-.19-.22-.47-.22-.83v-.88c0-.39.1-.7.3-.91.2-.21.49-.32.87-.32s.67.11.87.32c.2.21.3.52.3.91v2.53c0,.85-.39,1.27-1.18,1.27-.37,0-.66-.11-.85-.32Zm1.26-2.68v-.87c0-.32-.13-.48-.4-.48s-.4.16-.4.48v.87c0,.32.13.48.4.48s.4-.16.4-.48Z"/><path class="cls-3" d="m68.8,297.94h.19c.13,0,.22-.03.27-.09.06-.06.08-.18.08-.35v-3.46c0-.17-.03-.28-.08-.35-.06-.06-.15-.09-.27-.09h-.19v-.63h.24c.39,0,.66.08.83.25.17.16.25.44.25.83v3.46c0,.39-.08.66-.25.83-.17.16-.44.24-.83.24h-.24v-.63Z"/><line class="cls-9" y1="109.12" x2="324.04" y2="109.12"/><line class="cls-9" x1="50.17" y1="222.8" x2="50.17" y2="333.14"/><path class="cls-6" d="m50.39,192.31c-10.27,0-18.64,8.36-18.64,18.64s8.36,18.64,18.64,18.64,18.64-8.36,18.64-18.64-8.36-18.64-18.64-18.64Z"/><path class="cls-7" d="m40.11,199.38h1.02l.46,3.26h.01l.46-3.26h1.02v4.55h-.68v-3.45h-.01l-.52,3.45h-.6l-.52-3.45h-.01v3.45h-.62v-4.55Z"/><path class="cls-7" d="m44.41,199.38h.97l.74,4.55h-.71l-.13-.9h0s-.81.01-.81.01l-.13.89h-.66l.74-4.55Zm.78,3.04l-.32-2.25h-.01l-.31,2.25h.64Z"/><path class="cls-7" d="m47.07,200.02h-.75v-.65h2.21v.65h-.75v3.9h-.71v-3.9Z"/><path class="cls-7" d="m49.13,199.38h1.95v.65h-1.23v1.2h.98v.65h-.98v1.4h1.23v.65h-1.95v-4.55Z"/><path class="cls-7" d="m51.72,199.38h1.06c.37,0,.64.08.81.26.17.17.25.43.25.79v.28c0,.47-.16.77-.47.9h0c.17.07.3.17.37.33.07.16.11.37.11.64v.8c0,.13,0,.24.01.32s.03.16.07.24h-.73c-.03-.07-.04-.14-.05-.21s-.01-.18-.01-.35v-.83c0-.21-.03-.35-.1-.44-.07-.08-.18-.12-.35-.12h-.25v1.95h-.71v-4.55Zm.98,1.95c.14,0,.25-.04.32-.11.07-.07.11-.2.11-.37v-.35c0-.17-.03-.28-.09-.36-.06-.07-.15-.11-.28-.11h-.33v1.3h.26Z"/><path class="cls-7" d="m54.56,199.38h.71v4.55h-.71v-4.55Z"/><path class="cls-7" d="m56.62,199.38h.97l.74,4.55h-.71l-.13-.9h0s-.81.01-.81.01l-.13.89h-.66l.74-4.55Zm.78,3.04l-.32-2.25h-.01l-.31,2.25h.64Z"/><path class="cls-7" d="m58.92,199.38h.71v3.9h1.18v.65h-1.89v-4.55Z"/><path class="cls-7" d="m39.03,205.88h1.89v.65h-1.18v1.27h.92v.65h-.92v1.98h-.71v-4.55Z"/><path class="cls-7" d="m41.76,210.19c-.19-.2-.28-.48-.28-.84v-2.39c0-.36.09-.65.28-.85.19-.2.46-.3.81-.3s.62.1.81.3c.19.2.28.48.28.85v2.39c0,.36-.09.65-.28.84-.19.2-.46.3-.81.3s-.62-.1-.81-.3Zm1.18-.8v-2.48c0-.3-.12-.45-.37-.45s-.37.15-.37.45v2.48c0,.3.12.45.37.45s.37-.15.37-.45Z"/><path class="cls-7" d="m44.57,210.19c-.19-.2-.28-.48-.28-.84v-2.39c0-.36.09-.65.28-.85.19-.2.46-.3.81-.3s.62.1.81.3c.19.2.28.48.28.85v2.39c0,.36-.09.65-.28.84-.19.2-.46.3-.81.3s-.62-.1-.81-.3Zm1.18-.8v-2.48c0-.3-.12-.45-.37-.45s-.37.15-.37.45v2.48c0,.3.12.45.37.45s.37-.15.37-.45Z"/><path class="cls-7" d="m47.76,206.52h-.75v-.65h2.21v.65h-.75v3.9h-.71v-3.9Z"/><path class="cls-7" d="m49.83,205.88h1.05c.36,0,.62.09.8.29.18.19.27.47.27.84v.45c0,.37-.09.65-.27.84s-.44.29-.8.29h-.34v1.85h-.71v-4.55Zm1.05,2.05c.12,0,.21-.03.26-.1.06-.07.09-.18.09-.33v-.54c0-.16-.03-.27-.09-.33-.06-.06-.15-.1-.26-.1h-.34v1.4h.34Z"/><path class="cls-7" d="m52.56,205.88h1.06c.37,0,.64.08.81.26.17.17.25.43.25.79v.28c0,.47-.16.77-.47.9h0c.17.07.3.17.37.33.07.16.11.37.11.64v.8c0,.13,0,.24.01.32s.03.16.07.24h-.73c-.03-.07-.04-.14-.05-.21s-.01-.18-.01-.35v-.83c0-.21-.03-.35-.1-.44-.07-.08-.18-.12-.35-.12h-.25v1.95h-.71v-4.55Zm.98,1.95c.14,0,.25-.04.32-.11.07-.07.11-.2.11-.37v-.35c0-.17-.03-.28-.09-.36-.06-.07-.15-.11-.28-.11h-.33v1.3h.26Z"/><path class="cls-7" d="m55.41,205.88h.71v4.55h-.71v-4.55Z"/><path class="cls-7" d="m56.84,205.88h.9l.7,2.72h.01v-2.72h.64v4.55h-.73l-.86-3.32h-.01v3.32h-.64v-4.55Z"/><path class="cls-7" d="m60.43,206.52h-.75v-.65h2.21v.65h-.75v3.9h-.71v-3.9Z"/><path class="cls-7" d="m46.66,212.38h1.05c.36,0,.62.09.8.29.18.19.27.47.27.84v.45c0,.37-.09.65-.27.84s-.44.29-.8.29h-.34v1.85h-.71v-4.55Zm1.05,2.05c.12,0,.21-.03.26-.1.06-.07.09-.18.09-.33v-.54c0-.16-.03-.27-.09-.33-.06-.06-.15-.1-.26-.1h-.34v1.4h.34Z"/><path class="cls-7" d="m49.4,212.38h1.95v.65h-1.24v1.2h.98v.65h-.98v1.4h1.24v.65h-1.95v-4.55Z"/><path class="cls-7" d="m51.98,212.38h1.06c.37,0,.64.08.81.26.17.17.25.43.25.79v.28c0,.47-.16.77-.47.9h0c.17.07.3.17.37.33.07.16.11.37.11.64v.8c0,.13,0,.24.01.32s.03.16.07.24h-.73c-.03-.07-.04-.14-.05-.21s-.01-.18-.01-.35v-.83c0-.21-.03-.35-.1-.44-.07-.08-.18-.12-.35-.12h-.25v1.95h-.71v-4.55Zm.98,1.95c.14,0,.25-.04.32-.11.07-.07.11-.2.11-.37v-.35c0-.17-.03-.28-.09-.36-.06-.07-.15-.11-.28-.11h-.33v1.3h.26Z"/><path class="cls-7" d="m43.42,223.2c-.18-.2-.27-.47-.27-.83v-2.44c0-.36.09-.63.27-.83.18-.2.44-.29.78-.29s.6.1.78.29c.18.19.27.47.27.83v.48h-.68v-.53c0-.28-.12-.42-.36-.42s-.36.14-.36.42v2.54c0,.28.12.42.36.42s.36-.14.36-.42v-.7h.68v.64c0,.36-.09.63-.27.83s-.44.29-.78.29-.6-.1-.78-.29Z"/><path class="cls-7" d="m46.49,218.88h.97l.74,4.55h-.71l-.13-.9h0s-.81.01-.81.01l-.13.89h-.66l.74-4.55Zm.78,3.04l-.32-2.25h-.01l-.31,2.25h.64Z"/><path class="cls-7" d="m48.79,218.88h1.05c.36,0,.62.09.8.29.18.19.27.47.27.84v.45c0,.37-.09.65-.27.84s-.44.29-.8.29h-.34v1.85h-.71v-4.55Zm1.05,2.05c.12,0,.21-.03.26-.1.06-.07.09-.18.09-.33v-.54c0-.16-.03-.27-.09-.33-.06-.06-.15-.1-.26-.1h-.34v1.4h.34Z"/><path class="cls-7" d="m51.53,218.88h.71v4.55h-.71v-4.55Z"/><path class="cls-7" d="m53.59,219.52h-.75v-.65h2.21v.65h-.75v3.9h-.71v-3.9Z"/><path class="cls-7" d="m56.01,218.88h.97l.74,4.55h-.71l-.13-.9h0s-.81.01-.81.01l-.13.89h-.66l.74-4.55Zm.78,3.04l-.32-2.25h-.01l-.31,2.25h.64Z"/><path class="cls-5" d="m109,307.96h.99v2.56h1.06v-2.56h.99v6.3h-.99v-2.83h-1.06v2.83h-.99v-6.3Z"/><path class="cls-5" d="m112.94,307.96h.99v6.3h-.99v-6.3Z"/><path class="cls-5" d="m115.16,313.94c-.25-.27-.38-.67-.38-1.17v-3.31c0-.51.13-.9.38-1.17s.62-.41,1.1-.41.85.14,1.1.41.38.67.38,1.17v.54h-.94v-.6c0-.41-.17-.62-.51-.62s-.51.21-.51.62v3.45c0,.41.17.61.51.61s.51-.2.51-.61v-1.23h-.5v-.9h1.43v2.06c0,.51-.13.9-.38,1.17-.25.27-.62.41-1.1.41s-.85-.14-1.1-.41Z"/><path class="cls-5" d="m118.56,307.96h.99v2.56h1.06v-2.56h.99v6.3h-.99v-2.83h-1.06v2.83h-.99v-6.3Z"/><path class="cls-5" d="m122.4,310.66h1.98v.9h-1.98v-.9Z"/><path class="cls-5" d="m125.18,307.96h.99v6.3h-.99v-6.3Z"/><path class="cls-5" d="m127.07,307.96h1.24l.96,3.77h.02v-3.77h.88v6.3h-1.02l-1.19-4.6h-.02v4.6h-.88v-6.3Z"/><path class="cls-5" d="m131.4,313.94c-.25-.27-.37-.65-.37-1.14v-3.38c0-.49.12-.87.37-1.14.25-.27.61-.4,1.08-.4s.84.13,1.08.4c.25.27.37.65.37,1.14v.67h-.94v-.73c0-.39-.17-.58-.5-.58s-.5.2-.5.58v3.52c0,.38.17.58.5.58s.5-.19.5-.58v-.96h.94v.89c0,.49-.12.87-.37,1.14-.25.27-.61.41-1.08.41s-.84-.13-1.08-.41Z"/><path class="cls-5" d="m135.08,313.93c-.26-.28-.39-.67-.39-1.17v-3.31c0-.5.13-.89.39-1.17.26-.28.63-.41,1.12-.41s.86.14,1.12.41c.26.28.39.67.39,1.17v3.31c0,.5-.13.89-.39,1.17-.26.28-.63.41-1.12.41s-.86-.14-1.12-.41Zm1.63-1.11v-3.44c0-.41-.17-.62-.51-.62s-.51.21-.51.62v3.44c0,.41.17.62.51.62s.51-.21.51-.62Z"/><path class="cls-5" d="m138.54,307.96h1.41l.63,4.51h.02l.63-4.51h1.41v6.3h-.94v-4.77h-.02l-.72,4.77h-.83l-.72-4.77h-.02v4.77h-.86v-6.3Z"/><path class="cls-5" d="m143.54,307.96h2.7v.9h-1.71v1.67h1.36v.9h-1.36v1.93h1.71v.9h-2.7v-6.3Z"/><path class="cls-5" d="m112.46,323.94c-.25-.27-.37-.65-.37-1.14v-3.38c0-.49.12-.87.37-1.14.25-.27.61-.4,1.08-.4s.84.13,1.08.4c.25.27.37.65.37,1.14v.67h-.94v-.73c0-.39-.17-.58-.5-.58s-.5.2-.5.58v3.52c0,.38.17.58.5.58s.5-.19.5-.58v-.96h.94v.89c0,.49-.12.87-.37,1.14-.25.27-.61.41-1.08.41s-.84-.13-1.08-.41Z"/><path class="cls-5" d="m116.15,323.93c-.26-.28-.39-.67-.39-1.17v-3.31c0-.5.13-.89.39-1.17.26-.28.63-.41,1.12-.41s.86.14,1.12.41c.26.28.39.67.39,1.17v3.31c0,.5-.13.89-.39,1.17-.26.28-.63.41-1.12.41s-.86-.14-1.12-.41Zm1.63-1.11v-3.44c0-.41-.17-.62-.51-.62s-.51.21-.51.62v3.44c0,.41.17.62.51.62s.51-.21.51-.62Z"/><path class="cls-5" d="m119.97,323.94c-.25-.27-.38-.67-.38-1.17v-4.81h.99v4.88c0,.22.04.37.13.47.09.1.21.14.37.14s.29-.05.37-.14c.09-.1.13-.25.13-.47v-4.88h.95v4.81c0,.51-.13.9-.38,1.17-.25.27-.62.41-1.1.41s-.85-.14-1.1-.41Z"/><path class="cls-5" d="m123.41,317.96h1.24l.96,3.77h.02v-3.77h.88v6.3h-1.02l-1.19-4.6h-.02v4.6h-.88v-6.3Z"/><path class="cls-5" d="m128.28,318.86h-1.04v-.9h3.06v.9h-1.04v5.4h-.99v-5.4Z"/><path class="cls-5" d="m131.04,317.96h1.47c.51,0,.88.12,1.12.36.23.24.35.6.35,1.09v.39c0,.65-.22,1.07-.65,1.24v.02c.24.07.41.22.51.44.1.22.15.52.15.89v1.11c0,.18,0,.33.02.44.01.11.04.22.09.33h-1.01c-.04-.1-.06-.2-.07-.29-.01-.09-.02-.25-.02-.49v-1.15c0-.29-.05-.49-.14-.6-.09-.11-.25-.17-.48-.17h-.34v2.7h-.99v-6.3Zm1.35,2.7c.2,0,.35-.05.45-.15s.15-.27.15-.51v-.49c0-.23-.04-.39-.12-.5-.08-.1-.21-.15-.38-.15h-.45v1.8h.36Z"/><path class="cls-5" d="m134.88,317.96h.99v6.3h-.99v-6.3Z"/><path class="cls-5" d="m136.76,317.96h2.7v.9h-1.71v1.67h1.36v.9h-1.36v1.93h1.71v.9h-2.7v-6.3Z"/><path class="cls-5" d="m140.51,323.94c-.25-.27-.37-.67-.37-1.17v-.36h.94v.43c0,.41.17.61.51.61.17,0,.3-.05.38-.15.09-.1.13-.26.13-.48,0-.26-.06-.5-.18-.7s-.34-.44-.67-.72c-.41-.36-.69-.69-.85-.98s-.24-.62-.24-.99c0-.5.13-.88.38-1.16.25-.27.62-.41,1.1-.41s.83.14,1.08.41.36.67.36,1.17v.26h-.94v-.32c0-.22-.04-.37-.13-.47-.08-.1-.21-.15-.37-.15-.33,0-.5.2-.5.6,0,.23.06.44.18.64.12.2.35.44.67.72.41.36.7.69.85.98.16.29.23.64.23,1.04,0,.52-.13.91-.38,1.19-.26.28-.63.41-1.11.41s-.84-.14-1.09-.41Z"/><path class="cls-3" d="m180.11,216.01h1.1l.49,3.51h.01l.49-3.51h1.1v4.9h-.73v-3.71h-.01l-.56,3.71h-.64l-.56-3.71h-.01v3.71h-.67v-4.9Z"/><path class="cls-3" d="m184.06,216.01h2.1v.7h-1.33v1.29h1.06v.7h-1.06v1.5h1.33v.7h-2.1v-4.9Z"/><path class="cls-3" d="m187.52,216.71h-.81v-.7h2.38v.7h-.8v4.2h-.77v-4.2Z"/><path class="cls-3" d="m189.72,216.01h1.14c.4,0,.69.09.87.28.18.18.27.47.27.85v.3c0,.51-.17.83-.5.97h0c.19.07.32.18.4.36.08.17.12.4.12.69v.86c0,.14,0,.25.01.34,0,.09.03.17.07.26h-.78c-.03-.08-.05-.15-.06-.22,0-.07-.01-.2-.01-.38v-.9c0-.22-.04-.38-.11-.47-.07-.09-.2-.13-.37-.13h-.27v2.1h-.77v-4.9Zm1.05,2.1c.15,0,.27-.04.35-.12s.12-.21.12-.4v-.38c0-.18-.03-.31-.09-.38s-.16-.12-.3-.12h-.35v1.4h.28Z"/><path class="cls-3" d="m192.77,216.01h.77v4.9h-.77v-4.9Z"/><path class="cls-3" d="m194.55,220.66c-.19-.21-.29-.51-.29-.89v-2.63c0-.38.1-.68.29-.89.19-.21.48-.31.84-.31s.65.1.84.31c.19.21.29.51.29.89v.52h-.73v-.57c0-.3-.13-.45-.38-.45s-.39.15-.39.45v2.74c0,.3.13.45.39.45s.38-.15.38-.45v-.75h.73v.69c0,.38-.1.68-.29.89-.19.21-.47.32-.84.32s-.65-.11-.84-.32Z"/><path class="cls-3" d="m180.71,224.71h-.81v-.7h2.38v.7h-.8v4.2h-.77v-4.2Z"/><path class="cls-3" d="m183.17,228.65c-.2-.21-.3-.52-.3-.91v-2.58c0-.39.1-.7.3-.91.2-.21.49-.32.87-.32s.67.11.87.32c.2.21.3.52.3.91v2.58c0,.39-.1.7-.3.91s-.49.32-.87.32-.67-.11-.87-.32Zm1.27-.86v-2.67c0-.32-.13-.48-.4-.48s-.4.16-.4.48v2.67c0,.32.13.48.4.48s.4-.16.4-.48Z"/><path class="cls-3" d="m185.92,224.01h.97l.75,2.93h.01v-2.93h.69v4.9h-.79l-.92-3.58h-.01v3.58h-.69v-4.9Z"/><path class="cls-3" d="m189.29,228.66c-.19-.21-.29-.52-.29-.91v-.28h.73v.34c0,.32.13.48.4.48.13,0,.23-.04.3-.12.07-.08.1-.2.1-.38,0-.21-.05-.39-.14-.54s-.27-.34-.52-.56c-.32-.28-.54-.53-.67-.76s-.19-.48-.19-.77c0-.39.1-.69.29-.9.2-.21.48-.32.85-.32s.65.11.84.32c.19.21.28.52.28.91v.2h-.73v-.25c0-.17-.03-.29-.1-.37s-.16-.12-.29-.12c-.26,0-.39.16-.39.47,0,.18.05.34.14.5.1.15.27.34.52.56.32.28.54.53.67.76.12.23.18.5.18.81,0,.4-.1.71-.3.92s-.49.32-.86.32-.66-.11-.85-.32Z"/><line class="cls-9" x1="196.4" y1="233.63" x2="154.24" y2="233.63"/><path class="cls-5" d="m164.54,217.64c-.65,0-1.06.35-1.06,1.28v1.39h-1.93v-1.26c0-2.08,1.04-3.27,3.05-3.27s3.05,1.19,3.05,3.27c0,4.09-4.07,5.61-4.07,7.74,0,.09,0,.19.02.28h3.86v1.86h-5.91v-1.6c0-3.83,4.05-4.46,4.05-8.21,0-1.17-.41-1.49-1.06-1.49Z"/><path class="cls-5" d="m169.14,224.71l3.71-8.78h2.23v8.78h.97v1.86h-.97v2.36h-2.01v-2.36h-3.94v-1.86Zm3.94,0v-4.88l-2.06,4.88h2.06Z"/><path class="cls-4" d="m139.52,244.9c-2.06-2.46-4.76-3.72-8-3.72-3.65,0-7.16,1.65-8.66,2.36-9.01,4.24-13.3,11.2-13.11,21.28.14,7.59,7.23,35.46,18.7,35.46.03,0,.37-.01.41-.01,4.3-.24,7.66-2.27,9.48-5.71,2.52-4.79,1.78-11.56-1.93-17.68-5.06-8.35-2.26-11.24.44-14.04,6.11-6.33,7.06-12.7,2.68-17.93h0Z"/><path class="cls-4" d="m104.47,246.23c-2.79,0-5.07,2.27-5.07,5.07s2.27,5.07,5.07,5.07,5.07-2.27,5.07-5.07-2.27-5.07-5.07-5.07Z"/><path class="cls-4" d="m110.58,246.23c2.79,0,5.07-2.27,5.07-5.07s-2.27-5.07-5.07-5.07-5.07,2.27-5.07,5.07,2.27,5.07,5.07,5.07Z"/><path class="cls-4" d="m120.33,239.47c2.79,0,5.07-2.27,5.07-5.07s-2.27-5.07-5.07-5.07-5.07,2.27-5.07,5.07,2.27,5.07,5.07,5.07Z"/><path class="cls-4" d="m131.88,236.09c2.8,0,5.07-2.27,5.07-5.07s-2.27-5.07-5.07-5.07-5.07,2.27-5.07,5.07,2.27,5.07,5.07,5.07Z"/><path class="cls-4" d="m147.32,225.95c-4.66,0-8.45,3.79-8.45,8.45s3.79,8.45,8.45,8.45,8.45-3.79,8.45-8.45-3.79-8.45-8.45-8.45Z"/><path class="cls-5" d="m177.98,307.96h.99v5.4h1.63v.9h-2.62v-6.3Z"/><path class="cls-5" d="m181.67,313.93c-.26-.28-.39-.67-.39-1.17v-3.31c0-.5.13-.89.39-1.17.26-.28.63-.41,1.12-.41s.86.14,1.12.41c.26.28.39.67.39,1.17v3.31c0,.5-.13.89-.39,1.17-.26.28-.63.41-1.12.41s-.86-.14-1.12-.41Zm1.63-1.11v-3.44c0-.41-.17-.62-.51-.62s-.51.21-.51.62v3.44c0,.41.17.62.51.62s.51-.21.51-.62Z"/><path class="cls-5" d="m184.94,307.96h.95l.44,4.84h.02l.47-4.84h1.08l.47,4.84h.02l.44-4.84h.85l-.64,6.3h-1.23l-.45-4.25h-.02l-.45,4.25h-1.31l-.64-6.3Z"/><path class="cls-5" d="m190.23,310.66h1.98v.9h-1.98v-.9Z"/><path class="cls-5" d="m193.01,307.96h.99v6.3h-.99v-6.3Z"/><path class="cls-5" d="m194.9,307.96h1.24l.96,3.77h.02v-3.77h.88v6.3h-1.02l-1.19-4.6h-.02v4.6h-.88v-6.3Z"/><path class="cls-5" d="m199.23,313.94c-.25-.27-.37-.65-.37-1.14v-3.38c0-.49.12-.87.37-1.14.25-.27.61-.4,1.08-.4s.83.13,1.08.4c.25.27.37.65.37,1.14v.67h-.94v-.73c0-.39-.17-.58-.5-.58s-.5.2-.5.58v3.52c0,.38.17.58.5.58s.5-.19.5-.58v-.96h.94v.89c0,.49-.12.87-.37,1.14-.25.27-.61.41-1.08.41s-.84-.13-1.08-.41Z"/><path class="cls-5" d="m202.91,313.93c-.26-.28-.39-.67-.39-1.17v-3.31c0-.5.13-.89.39-1.17.26-.28.63-.41,1.12-.41s.86.14,1.12.41c.26.28.39.67.39,1.17v3.31c0,.5-.13.89-.39,1.17-.26.28-.63.41-1.12.41s-.86-.14-1.12-.41Zm1.63-1.11v-3.44c0-.41-.17-.62-.51-.62s-.51.21-.51.62v3.44c0,.41.17.62.51.62s.51-.21.51-.62Z"/><path class="cls-5" d="m206.38,307.96h1.41l.63,4.51h.02l.63-4.51h1.41v6.3h-.94v-4.77h-.02l-.72,4.77h-.83l-.72-4.77h-.02v4.77h-.86v-6.3Z"/><path class="cls-5" d="m211.38,307.96h2.7v.9h-1.71v1.67h1.36v.9h-1.36v1.93h1.71v.9h-2.7v-6.3Z"/><path class="cls-5" d="m180.87,323.94c-.25-.27-.37-.65-.37-1.14v-3.38c0-.49.12-.87.37-1.14.25-.27.61-.4,1.08-.4s.83.13,1.08.4c.25.27.37.65.37,1.14v.67h-.94v-.73c0-.39-.17-.58-.5-.58s-.5.2-.5.58v3.52c0,.38.17.58.5.58s.5-.19.5-.58v-.96h.94v.89c0,.49-.12.87-.37,1.14-.25.27-.61.41-1.08.41s-.84-.13-1.08-.41Z"/><path class="cls-5" d="m184.55,323.93c-.26-.28-.39-.67-.39-1.17v-3.31c0-.5.13-.89.39-1.17.26-.28.63-.41,1.12-.41s.86.14,1.12.41c.26.28.39.67.39,1.17v3.31c0,.5-.13.89-.39,1.17-.26.28-.63.41-1.12.41s-.86-.14-1.12-.41Zm1.63-1.11v-3.44c0-.41-.17-.62-.51-.62s-.51.21-.51.62v3.44c0,.41.17.62.51.62s.51-.21.51-.62Z"/><path class="cls-5" d="m188.37,323.94c-.25-.27-.38-.67-.38-1.17v-4.81h.99v4.88c0,.22.04.37.13.47.09.1.21.14.37.14s.29-.05.37-.14c.09-.1.13-.25.13-.47v-4.88h.95v4.81c0,.51-.13.9-.38,1.17-.25.27-.62.41-1.1.41s-.85-.14-1.1-.41Z"/><path class="cls-5" d="m191.82,317.96h1.24l.96,3.77h.02v-3.77h.88v6.3h-1.02l-1.19-4.6h-.02v4.6h-.88v-6.3Z"/><path class="cls-5" d="m196.69,318.86h-1.04v-.9h3.06v.9h-1.04v5.4h-.99v-5.4Z"/><path class="cls-5" d="m199.45,317.96h1.47c.51,0,.88.12,1.12.36.23.24.35.6.35,1.09v.39c0,.65-.22,1.07-.65,1.24v.02c.24.07.41.22.51.44.1.22.15.52.15.89v1.11c0,.18,0,.33.02.44.01.11.04.22.09.33h-1.01c-.04-.1-.06-.2-.07-.29s-.02-.25-.02-.49v-1.15c0-.29-.05-.49-.14-.6-.09-.11-.25-.17-.48-.17h-.34v2.7h-.99v-6.3Zm1.35,2.7c.2,0,.35-.05.45-.15.1-.1.15-.27.15-.51v-.49c0-.23-.04-.39-.12-.5-.08-.1-.21-.15-.38-.15h-.45v1.8h.36Z"/><path class="cls-5" d="m203.28,317.96h.99v6.3h-.99v-6.3Z"/><path class="cls-5" d="m205.17,317.96h2.7v.9h-1.71v1.67h1.36v.9h-1.36v1.93h1.71v.9h-2.7v-6.3Z"/><path class="cls-5" d="m208.92,323.94c-.25-.27-.37-.67-.37-1.17v-.36h.94v.43c0,.41.17.61.51.61.17,0,.3-.05.38-.15.09-.1.13-.26.13-.48,0-.26-.06-.5-.18-.7s-.34-.44-.67-.72c-.41-.36-.69-.69-.85-.98s-.24-.62-.24-.99c0-.5.13-.88.38-1.16s.62-.41,1.1-.41.83.14,1.08.41.36.67.36,1.17v.26h-.94v-.32c0-.22-.04-.37-.13-.47-.08-.1-.21-.15-.37-.15-.33,0-.5.2-.5.6,0,.23.06.44.18.64.12.2.35.44.67.72.41.36.7.69.86.98.16.29.23.64.23,1.04,0,.52-.13.91-.38,1.19-.26.28-.63.41-1.11.41s-.84-.14-1.09-.41Z"/><path class="cls-3" d="m231.38,261.98h1.1l.49,3.51h.01l.49-3.51h1.1v4.9h-.73v-3.71h-.01l-.56,3.71h-.64l-.56-3.71h-.01v3.71h-.67v-4.9Z"/><path class="cls-3" d="m235.33,261.98h2.1v.7h-1.33v1.29h1.06v.7h-1.06v1.5h1.33v.7h-2.1v-4.9Z"/><path class="cls-3" d="m238.8,262.68h-.8v-.7h2.38v.7h-.8v4.2h-.77v-4.2Z"/><path class="cls-3" d="m241,261.98h1.14c.4,0,.69.09.87.28.18.18.27.47.27.85v.3c0,.51-.17.83-.5.97h0c.19.07.32.18.4.36.08.17.12.4.12.69v.86c0,.14,0,.25.01.34,0,.09.03.17.07.26h-.78c-.03-.08-.05-.15-.06-.22,0-.07-.01-.2-.01-.38v-.9c0-.22-.04-.38-.11-.47-.07-.09-.2-.13-.37-.13h-.27v2.1h-.77v-4.9Zm1.05,2.1c.15,0,.27-.04.35-.12s.12-.21.12-.4v-.38c0-.18-.03-.31-.09-.38-.06-.08-.16-.12-.3-.12h-.35v1.4h.28Z"/><path class="cls-3" d="m244.04,261.98h.77v4.9h-.77v-4.9Z"/><path class="cls-3" d="m245.83,266.63c-.19-.21-.29-.51-.29-.89v-2.63c0-.38.1-.68.29-.89.19-.21.48-.31.84-.31s.65.1.84.31.29.51.29.89v.52h-.73v-.57c0-.3-.13-.45-.38-.45s-.39.15-.39.45v2.74c0,.3.13.45.39.45s.38-.15.38-.45v-.75h.73v.69c0,.38-.1.68-.29.89s-.47.32-.84.32-.65-.11-.84-.32Z"/><path class="cls-3" d="m231.99,270.68h-.81v-.7h2.38v.7h-.8v4.2h-.77v-4.2Z"/><path class="cls-3" d="m234.45,274.63c-.2-.21-.3-.52-.3-.91v-2.58c0-.39.1-.7.3-.91.2-.21.49-.32.87-.32s.67.11.87.32c.2.21.3.52.3.91v2.58c0,.39-.1.7-.3.91-.2.21-.49.32-.87.32s-.67-.11-.87-.32Zm1.27-.86v-2.67c0-.32-.13-.48-.4-.48s-.4.16-.4.48v2.67c0,.32.13.48.4.48s.4-.16.4-.48Z"/><path class="cls-3" d="m237.2,269.98h.97l.75,2.93h.01v-2.93h.69v4.9h-.79l-.92-3.58h-.01v3.58h-.69v-4.9Z"/><path class="cls-3" d="m240.57,274.63c-.19-.21-.29-.52-.29-.91v-.28h.73v.34c0,.32.13.48.4.48.13,0,.23-.04.3-.12.07-.08.1-.2.1-.38,0-.21-.05-.39-.14-.54-.09-.16-.27-.34-.52-.56-.32-.28-.54-.53-.67-.76s-.19-.48-.19-.77c0-.39.1-.69.29-.9.2-.21.48-.32.85-.32s.65.11.84.32c.19.21.28.52.28.91v.2h-.73v-.25c0-.17-.03-.29-.1-.37s-.16-.12-.29-.12c-.26,0-.39.16-.39.47,0,.18.05.34.14.5.1.15.27.34.52.56.32.28.54.53.67.76.12.23.18.5.18.81,0,.4-.1.71-.3.92s-.49.32-.86.32-.66-.11-.85-.32Z"/><line class="cls-9" x1="247.56" y1="279.6" x2="204.14" y2="279.6"/><path class="cls-5" d="m212.52,263.61c-.65,0-1.06.35-1.06,1.28v1.39h-1.93v-1.26c0-2.08,1.04-3.27,3.05-3.27s3.05,1.19,3.05,3.27c0,4.09-4.07,5.61-4.07,7.74,0,.09,0,.19.02.28h3.86v1.86h-5.91v-1.6c0-3.83,4.05-4.46,4.05-8.21,0-1.17-.41-1.49-1.06-1.49Z"/><path class="cls-5" d="m219.41,272.93v1.97h-1.97v-1.97h1.97Z"/><path class="cls-5" d="m223.27,270.71v1.21c0,.93.41,1.26,1.06,1.26s1.06-.33,1.06-1.26v-2.86c0-.93-.41-1.28-1.06-1.28s-1.06.35-1.06,1.28v.39h-1.93l.37-7.54h5.39v1.86h-3.55l-.17,3.1c.37-.61.97-.95,1.78-.95,1.5,0,2.27,1.06,2.27,2.97v2.9c0,2.08-1.04,3.27-3.05,3.27s-3.05-1.19-3.05-3.27v-1.08h1.93Z"/><path class="cls-4" d="m199.78,282.7c-.65-.78-1.51-1.18-2.54-1.18-1.16,0-2.27.52-2.75.75-2.86,1.35-4.22,3.55-4.16,6.75.05,2.41,2.29,11.25,5.93,11.25,0,0,.12,0,.13,0,1.36-.08,2.43-.72,3.01-1.81.8-1.52.56-3.67-.61-5.61-1.6-2.65-.72-3.57.14-4.45,1.94-2.01,2.24-4.03.85-5.69h0Z"/><path class="cls-4" d="m188.65,283.12c-.89,0-1.61.72-1.61,1.61s.72,1.61,1.61,1.61,1.61-.72,1.61-1.61-.72-1.61-1.61-1.61Z"/><path class="cls-4" d="m190.59,283.12c.89,0,1.61-.72,1.61-1.61s-.72-1.61-1.61-1.61-1.61.72-1.61,1.61.72,1.61,1.61,1.61Z"/><path class="cls-4" d="m193.69,280.98c.89,0,1.61-.72,1.61-1.61s-.72-1.61-1.61-1.61-1.61.72-1.61,1.61.72,1.61,1.61,1.61Z"/><path class="cls-4" d="m197.35,279.91c.89,0,1.61-.72,1.61-1.61s-.72-1.61-1.61-1.61-1.61.72-1.61,1.61.72,1.61,1.61,1.61Z"/><path class="cls-4" d="m202.25,276.69c-1.48,0-2.68,1.2-2.68,2.68s1.2,2.68,2.68,2.68,2.68-1.2,2.68-2.68-1.2-2.68-2.68-2.68Z"/></g></svg>