<?xml version="1.0" encoding="UTF-8"?>
<svg id="Layer_2" data-name="Layer 2" xmlns="http://www.w3.org/2000/svg" xmlns:xlink="http://www.w3.org/1999/xlink" viewBox="0 0 207.31 149.5">
  <defs>
    <style>
      .cls-1 {
        fill: #e3be89;
      }

      .cls-2 {
        fill: #fff;
      }

      .cls-3 {
        fill: #939598;
      }

      .cls-4 {
        stroke: #bdbcbb;
        stroke-dasharray: 0 0 0 3;
        stroke-linecap: round;
        stroke-linejoin: round;
        stroke-width: 1.75px;
      }

      .cls-4, .cls-5 {
        fill: none;
      }

      .cls-6 {
        clip-path: url(#clippath);
      }

      .cls-7 {
        fill: #efdbbe;
      }

      .cls-8 {
        fill: #cd8b2a;
      }

      .cls-9 {
        fill: #e6e7e8;
      }
    </style>
    <clipPath id="clippath">
      <rect class="cls-5" x="13" y="11.96" width="80.62" height="110.72"/>
    </clipPath>
  </defs>
  <g id="Layer_2-2" data-name="Layer 2">
    <g class="cls-6">
      <g>
        <path class="cls-1" d="M48.61,30.76c-2.27-.57-4.65-.73-7.01-.48l.68-.77c1.76-.49,4.38-.83,7.32,.07,1.64,.5,3.14,1.32,4.46,2.42l-.11,.93c-1.33-.77-3.13-1.61-5.35-2.16h0Z"/>
        <path class="cls-1" d="M47.15,33.67c-3.07-.8-5.86-.78-8.11-.49l.7-.79c2.79-.61,5.7-.57,8.43,.11,2.44,.61,4.31,1.59,5.56,2.39l-.19,1.67c-1.96-1.31-4.11-2.28-6.4-2.88h0Z"/>
        <path class="cls-7" d="M46.7,35.39c-3.89-1.01-7.33-.61-9.6-.06l-3.5,3.45c-.36,.36-36.27,36.18-33.45,61.39,.77,6.92,4.45,12.47,10.94,16.52,3.24,2.02,7.01,3.45,11.23,4.26,8.83,1.7,17.83,2.34,26.76,1.91,1.14-.06,2.27-.14,3.41-.22,3.82-3.79,6.86-8.17,9.03-13.03,2.86-6.4,4.1-13.53,3.59-20.61-.03-.49,.34-.92,.82-.95,.5-.03,.92,.34,.95,.82,.53,7.37-.77,14.79-3.74,21.46-1.97,4.42-4.64,8.46-7.93,12.05,1.29-.13,2.58-.29,3.86-.47,3.87-2.86,7.18-6.31,9.86-10.26,3.21-4.74,5.38-10,6.47-15.63,.09-.48,.56-.8,1.04-.71,.48,.09,.8,.56,.7,1.04-1.13,5.87-3.39,11.35-6.74,16.29-2.2,3.25-4.82,6.16-7.79,8.71,.73-.13,1.47-.24,2.2-.38,4.27-.82,8.08-2.26,11.32-4.28,6.49-4.04,10.18-9.6,10.95-16.52,2.78-24.85-32.08-60.03-33.42-61.35-2.09-1.61-4.43-2.77-6.98-3.43h0ZM27.2,117.58c-.14,.34-.48,.54-.82,.54-.11,0-.24-.02-.35-.07-3.16-1.35-9.13-4.61-13.59-11.2-4.17-6.16-5.18-12.34-5.29-16.43-.01-.49,.37-.9,.87-.91,.5,0,.9,.38,.91,.87,.1,3.86,1.05,9.67,4.99,15.48,4.21,6.22,9.84,9.28,12.82,10.56,.45,.2,.66,.72,.47,1.17h0Z"/>
        <path class="cls-7" d="M86.62,22.79c1.34,1.51,4.44,5.69,4.18,11.71-.25,5.8-3.49,9.64-4.88,11.01-.21,.21-.3,.51-.25,.8,.76,3.86-.82,7.78-4.03,9.97-2.89,1.98-6.8,2.27-10.05,.78-7.41-10.04-14.74-17.56-16.4-19.23l.08-.7c4.32-.04,8.64,.83,12.57,2.56,5.53,2.44,9.18,6.04,11.26,8.63,.17,.22,.43,.33,.69,.33,.2,0,.39-.06,.56-.2,.38-.31,.45-.87,.14-1.25-2.21-2.75-6.08-6.56-11.93-9.15-4.09-1.81-8.6-2.73-13.09-2.72l.08-.73h0s.27-2.38,.27-2.38c3.2-1.35,6.7-2.02,10.15-1.91,3.14,.1,6.19,.81,9.06,2.1,.12,.05,.24,.08,.36,.08,.34,0,.67-.2,.81-.53,.2-.45,0-.97-.45-1.18-3.09-1.39-6.36-2.14-9.74-2.25-3.71-.13-7.46,.59-10.89,2.04-1.5-1.23-3.18-2.16-5.02-2.73-1.14-.35-2.23-.52-3.26-.59,5.77-5.6,12.68-9.56,20.1-11.48,6.2-1.6,12.84-1.86,19.23-.75,.48,.38,1.48,1.34,1.68,2.9,.26,1.98-.97,3.36-1.22,3.61-.33,.34-.34,.86-.03,1.21h0Z"/>
      </g>
    </g>
    <rect class="cls-9" x="12.02" y="122.29" width="195.29" height="27.21"/>
    <rect class="cls-8" x="104.36" y="16.13" width="76.71" height="18.15"/>
    <line class="cls-4" x1="177.51" y1="61.01" x2="119.18" y2="61.01"/>
    <line class="cls-4" x1="177.51" y1="114.8" x2="119.18" y2="114.8"/>
    <g>
      <path class="cls-3" d="M112.33,8.16V2.64c0-1.68,.88-2.64,2.5-2.64s2.5,.96,2.5,2.64v5.52c0,1.68-.89,2.64-2.5,2.64s-2.5-.96-2.5-2.64Zm3.36,.1V2.53c0-.75-.33-1.03-.85-1.03s-.85,.28-.85,1.03v5.73c0,.75,.33,1.03,.85,1.03s.85-.28,.85-1.03Z"/>
      <path class="cls-3" d="M119.16,.15h2.07l1.6,6.28h.03V.15h1.47V10.65h-1.69l-1.98-7.66h-.03v7.66h-1.47V.15Z"/>
      <path class="cls-3" d="M130.74,.15h2.23l1.71,10.5h-1.65l-.3-2.08v.03h-1.88l-.3,2.05h-1.53l1.71-10.5Zm1.8,7.02l-.73-5.19h-.03l-.72,5.19h1.48Z"/>
      <path class="cls-3" d="M135.37,.15h1.66l1.08,8.14h.03l1.08-8.14h1.52l-1.59,10.5h-2.19l-1.59-10.5Z"/>
      <path class="cls-3" d="M142.37,.15h4.5V1.65h-2.85v2.77h2.26v1.5h-2.26v3.22h2.85v1.5h-4.5V.15Z"/>
      <path class="cls-3" d="M148.57,.15h2.45c1.71,0,2.44,.79,2.44,2.42v.64c0,1.08-.35,1.77-1.08,2.07v.03c.83,.25,1.09,1.04,1.09,2.22v1.84c0,.51,.02,.88,.18,1.27h-1.68c-.09-.27-.15-.44-.15-1.29v-1.92c0-.98-.28-1.29-1.03-1.29h-.57v4.5h-1.65V.15Zm2.25,4.5c.62,0,.99-.27,.99-1.11v-.81c0-.75-.26-1.08-.84-1.08h-.75v3h.6Z"/>
      <path class="cls-3" d="M156.86,.15h2.23l1.71,10.5h-1.65l-.3-2.08v.03h-1.88l-.3,2.05h-1.53l1.71-10.5Zm1.8,7.02l-.73-5.19h-.03l-.72,5.19h1.48Z"/>
      <path class="cls-3" d="M162.23,8.16V2.64c0-1.68,.84-2.64,2.46-2.64s2.46,.96,2.46,2.64v.9h-1.56v-1c0-.75-.33-1.03-.85-1.03s-.85,.28-.85,1.03v5.74c0,.75,.33,1.02,.85,1.02s.85-.27,.85-1.02v-2.05h-.83v-1.5h2.38v3.44c0,1.68-.84,2.64-2.46,2.64s-2.46-.96-2.46-2.64Z"/>
      <path class="cls-3" d="M168.93,.15h4.5V1.65h-2.85v2.77h2.26v1.5h-2.26v3.22h2.85v1.5h-4.5V.15Z"/>
      <path class="cls-3" d="M175.67,10.65h-.54v-1.59h1.59v1.42l-.83,1.96h-.77l.54-1.8Z"/>
    </g>
    <g>
      <path class="cls-2" d="M108.97,20.26h4.5v1.5h-2.85v2.77h2.26v1.5h-2.26v3.22h2.85v1.5h-4.5v-10.5Z"/>
      <path class="cls-2" d="M116.67,20.26h2.23l1.71,10.5h-1.65l-.3-2.08v.03h-1.88l-.3,2.05h-1.53l1.71-10.5Zm1.8,7.02l-.73-5.19h-.03l-.72,5.19h1.48Z"/>
      <path class="cls-2" d="M122.05,28.33v-5.64c0-1.62,.84-2.58,2.43-2.58s2.43,.96,2.43,2.58v1.11h-1.56v-1.21c0-.69-.33-.97-.83-.97s-.83,.28-.83,.97v5.86c0,.69,.33,.96,.83,.96s.83-.27,.83-.96v-1.6h1.56v1.49c0,1.62-.84,2.58-2.43,2.58s-2.43-.96-2.43-2.58Z"/>
      <path class="cls-2" d="M128.63,20.26h1.65v4.27h1.77v-4.27h1.65v10.5h-1.65v-4.72h-1.77v4.72h-1.65v-10.5Z"/>
      <path class="cls-2" d="M138.83,20.26h2.43c1.65,0,2.46,.92,2.46,2.59v1.04c0,1.68-.81,2.59-2.46,2.59h-.78v4.27h-1.65v-10.5Zm2.43,4.72c.52,0,.81-.24,.81-.99v-1.25c0-.75-.29-.99-.81-.99h-.78v3.22h.78Z"/>
      <path class="cls-2" d="M145.4,20.26h4.5v1.5h-2.85v2.77h2.26v1.5h-2.26v3.22h2.85v1.5h-4.5v-10.5Z"/>
      <path class="cls-2" d="M151.61,20.26h2.45c1.71,0,2.44,.79,2.44,2.42v.65c0,1.08-.35,1.77-1.08,2.07v.03c.83,.25,1.09,1.04,1.09,2.22v1.85c0,.51,.02,.88,.18,1.27h-1.68c-.09-.27-.15-.44-.15-1.29v-1.92c0-.98-.28-1.29-1.03-1.29h-.57v4.5h-1.65v-10.5Zm2.25,4.5c.62,0,.99-.27,.99-1.11v-.81c0-.75-.26-1.08-.84-1.08h-.75v3h.6Z"/>
      <path class="cls-2" d="M158.17,28.27v-.6h1.56v.72c0,.75,.33,1.02,.85,1.02s.85-.27,.85-1.05c0-.87-.33-1.42-1.41-2.37-1.38-1.21-1.83-2.07-1.83-3.27,0-1.65,.85-2.61,2.46-2.61s2.4,.96,2.4,2.64v.44h-1.56v-.54c0-.75-.3-1.03-.82-1.03s-.83,.28-.83,1c0,.76,.35,1.32,1.43,2.26,1.38,1.21,1.81,2.06,1.81,3.36,0,1.71-.87,2.67-2.49,2.67s-2.43-.96-2.43-2.64Z"/>
      <path class="cls-2" d="M164.74,28.27v-5.52c0-1.68,.88-2.64,2.5-2.64s2.5,.96,2.5,2.64v5.52c0,1.68-.89,2.64-2.5,2.64s-2.5-.96-2.5-2.64Zm3.36,.1v-5.73c0-.75-.33-1.03-.85-1.03s-.85,.28-.85,1.03v5.73c0,.75,.33,1.03,.85,1.03s.85-.28,.85-1.03Z"/>
      <path class="cls-2" d="M171.56,20.26h2.07l1.6,6.28h.03v-6.28h1.47v10.5h-1.69l-1.98-7.66h-.03v7.66h-1.47v-10.5Z"/>
      <path class="cls-3" d="M137.14,40.26h1.59l.73,8.07h.03l.78-8.07h1.8l.78,8.07h.03l.73-8.07h1.43l-1.06,10.5h-2.06l-.75-7.08h-.03l-.75,7.08h-2.19l-1.06-10.5Z"/>
      <path class="cls-3" d="M147.68,40.26h2.23l1.71,10.5h-1.65l-.3-2.08v.03h-1.88l-.3,2.05h-1.53l1.71-10.5Zm1.8,7.02l-.73-5.19h-.03l-.72,5.19h1.48Z"/>
      <path class="cls-3" d="M152.97,48.27v-.6h1.56v.72c0,.75,.33,1.02,.85,1.02s.85-.27,.85-1.05c0-.87-.33-1.42-1.41-2.37-1.38-1.21-1.83-2.07-1.83-3.27,0-1.65,.85-2.61,2.46-2.61s2.4,.96,2.4,2.64v.44h-1.56v-.54c0-.75-.3-1.03-.82-1.03s-.83,.28-.83,1c0,.76,.35,1.32,1.43,2.26,1.38,1.21,1.81,2.06,1.81,3.36,0,1.71-.87,2.67-2.49,2.67s-2.43-.96-2.43-2.64Z"/>
      <path class="cls-3" d="M161.06,41.76h-1.72v-1.5h5.1v1.5h-1.73v9h-1.65v-9Z"/>
      <path class="cls-3" d="M166.06,40.26h4.5v1.5h-2.85v2.77h2.26v1.5h-2.26v3.22h2.85v1.5h-4.5v-10.5Z"/>
      <path class="cls-3" d="M172.1,48.27v-.6h1.56v.72c0,.75,.33,1.02,.85,1.02s.85-.27,.85-1.05c0-.87-.33-1.42-1.41-2.37-1.38-1.21-1.83-2.07-1.83-3.27,0-1.65,.85-2.61,2.46-2.61s2.4,.96,2.4,2.64v.44h-1.56v-.54c0-.75-.3-1.03-.82-1.03s-.83,.28-.83,1c0,.76,.35,1.32,1.43,2.26,1.38,1.21,1.81,2.06,1.81,3.36,0,1.71-.87,2.67-2.49,2.67s-2.43-.96-2.43-2.64Z"/>
    </g>
    <g>
      <rect class="cls-8" x="125.05" y="128.1" width="55.4" height="15.85"/>
      <g>
        <path class="cls-8" d="M80.68,139.17v-5.52c0-1.68,.88-2.64,2.5-2.64s2.5,.96,2.5,2.64v5.52c0,1.68-.89,2.64-2.5,2.64s-2.5-.96-2.5-2.64Zm3.36,.1v-5.73c0-.75-.33-1.03-.85-1.03s-.85,.28-.85,1.03v5.73c0,.75,.33,1.03,.85,1.03s.85-.28,.85-1.03Z"/>
        <path class="cls-8" d="M87.51,131.16h4.37v1.5h-2.71v2.92h2.13v1.5h-2.13v4.57h-1.65v-10.5Z"/>
        <path class="cls-8" d="M96.56,131.16h4.37v1.5h-2.71v2.92h2.13v1.5h-2.13v4.57h-1.65v-10.5Z"/>
        <path class="cls-8" d="M102.46,139.17v-5.52c0-1.68,.88-2.64,2.5-2.64s2.5,.96,2.5,2.64v5.52c0,1.68-.89,2.64-2.5,2.64s-2.5-.96-2.5-2.64Zm3.36,.1v-5.73c0-.75-.33-1.03-.85-1.03s-.85,.28-.85,1.03v5.73c0,.75,.33,1.03,.85,1.03s.85-.28,.85-1.03Z"/>
        <path class="cls-8" d="M109.2,139.17v-5.52c0-1.68,.88-2.64,2.5-2.64s2.5,.96,2.5,2.64v5.52c0,1.68-.89,2.64-2.5,2.64s-2.5-.96-2.5-2.64Zm3.36,.1v-5.73c0-.75-.33-1.03-.85-1.03s-.85,.28-.85,1.03v5.73c0,.75,.33,1.03,.85,1.03s.85-.28,.85-1.03Z"/>
        <path class="cls-8" d="M116.02,131.16h2.52c1.65,0,2.46,.92,2.46,2.59v5.31c0,1.68-.81,2.59-2.46,2.59h-2.52v-10.5Zm2.49,9c.52,0,.84-.27,.84-1.02v-5.46c0-.75-.31-1.02-.84-1.02h-.84v7.5h.84Z"/>
        <path class="cls-2" d="M129.16,131.16h2.43c1.65,0,2.46,.92,2.46,2.59v1.04c0,1.68-.81,2.59-2.46,2.59h-.78v4.27h-1.65v-10.5Zm2.43,4.72c.52,0,.81-.24,.81-.99v-1.25c0-.75-.29-.99-.81-.99h-.78v3.22h.78Z"/>
        <path class="cls-2" d="M135.73,131.16h4.5v1.5h-2.85v2.77h2.26v1.5h-2.26v3.22h2.85v1.5h-4.5v-10.5Z"/>
        <path class="cls-2" d="M141.94,131.16h2.45c1.71,0,2.44,.79,2.44,2.42v.65c0,1.08-.35,1.77-1.08,2.07v.03c.83,.25,1.09,1.04,1.09,2.22v1.85c0,.51,.02,.88,.18,1.27h-1.68c-.09-.27-.15-.44-.15-1.29v-1.92c0-.98-.28-1.29-1.03-1.29h-.57v4.5h-1.65v-10.5Zm2.25,4.5c.62,0,.99-.27,.99-1.11v-.81c0-.75-.26-1.08-.84-1.08h-.75v3h.6Z"/>
        <path class="cls-2" d="M153.4,137.19l-2-6.03h1.76l1.12,3.85h.03l1.12-3.85h1.6l-2,6.03v4.47h-1.65v-4.47Z"/>
        <path class="cls-2" d="M158.65,131.16h4.5v1.5h-2.85v2.77h2.26v1.5h-2.26v3.22h2.85v1.5h-4.5v-10.5Z"/>
        <path class="cls-2" d="M166.35,131.16h2.23l1.71,10.5h-1.65l-.3-2.08v.03h-1.88l-.3,2.05h-1.53l1.71-10.5Zm1.8,7.02l-.73-5.19h-.03l-.72,5.19h1.48Z"/>
        <path class="cls-2" d="M171.92,131.16h2.45c1.71,0,2.44,.79,2.44,2.42v.65c0,1.08-.35,1.77-1.08,2.07v.03c.83,.25,1.1,1.04,1.1,2.22v1.85c0,.51,.01,.88,.18,1.27h-1.68c-.09-.27-.15-.44-.15-1.29v-1.92c0-.98-.28-1.29-1.03-1.29h-.57v4.5h-1.65v-10.5Zm2.25,4.5c.62,0,.99-.27,.99-1.11v-.81c0-.75-.25-1.08-.84-1.08h-.75v3h.6Z"/>
      </g>
    </g>
    <g>
      <path class="cls-8" d="M142.26,70.83c2.72,0,3.33-1.31,3.87-2.82h2.37v22.4h-3.52v-17.09h-2.72v-2.5Z"/>
      <path class="cls-8" d="M157.83,70.96c-1.12,0-1.82,.61-1.82,2.21v2.4h-3.33v-2.18c0-3.58,1.79-5.63,5.25-5.63s5.25,2.05,5.25,5.63c0,7.04-7.01,9.66-7.01,13.34,0,.16,0,.32,.03,.48h6.66v3.2h-10.18v-2.75c0-6.59,6.98-7.68,6.98-14.14,0-2.02-.7-2.56-1.82-2.56Z"/>
      <path class="cls-8" d="M166.22,73.39c0-3.58,1.89-5.63,5.34-5.63s5.34,2.05,5.34,5.63v11.65c0,3.58-1.89,5.63-5.34,5.63s-5.34-2.05-5.34-5.63v-11.65Zm3.52,11.87c0,1.6,.7,2.21,1.82,2.21s1.82-.61,1.82-2.21v-12.09c0-1.6-.7-2.21-1.82-2.21s-1.82,.61-1.82,2.21v12.09Z"/>
    </g>
    <g>
      <path class="cls-8" d="M119.67,97.53h1.65v4.42l2.1-4.42h1.65l-1.96,3.85,2,6.64h-1.73l-1.4-4.68-.66,1.33v3.34h-1.65v-10.5Z"/>
      <path class="cls-8" d="M126.72,97.53h1.65v10.5h-1.65v-10.5Z"/>
      <path class="cls-8" d="M130.26,97.53h1.65v9h2.71v1.5h-4.37v-10.5Z"/>
      <path class="cls-8" d="M136.16,105.54v-5.52c0-1.68,.88-2.64,2.5-2.64s2.5,.96,2.5,2.64v5.52c0,1.68-.89,2.64-2.5,2.64s-2.5-.96-2.5-2.64Zm3.36,.1v-5.73c0-.75-.33-1.03-.85-1.03s-.85,.28-.85,1.03v5.73c0,.75,.33,1.03,.85,1.03s.85-.28,.85-1.03Z"/>
      <path class="cls-8" d="M142.91,105.54v-5.52c0-1.68,.84-2.64,2.46-2.64s2.46,.96,2.46,2.64v.9h-1.56v-1c0-.75-.33-1.03-.85-1.03s-.85,.28-.85,1.03v5.74c0,.75,.33,1.02,.85,1.02s.85-.27,.85-1.02v-2.05h-.83v-1.5h2.38v3.44c0,1.68-.84,2.64-2.46,2.64s-2.46-.96-2.46-2.64Z"/>
      <path class="cls-8" d="M149.61,97.53h2.45c1.71,0,2.44,.79,2.44,2.42v.65c0,1.08-.35,1.77-1.08,2.07v.03c.83,.25,1.1,1.04,1.1,2.22v1.85c0,.51,.01,.88,.18,1.27h-1.68c-.09-.27-.15-.44-.15-1.29v-1.92c0-.98-.28-1.29-1.03-1.29h-.57v4.5h-1.65v-10.5Zm2.25,4.5c.62,0,.99-.27,.99-1.11v-.81c0-.75-.25-1.08-.84-1.08h-.75v3h.6Z"/>
      <path class="cls-8" d="M157.9,97.53h2.23l1.71,10.5h-1.65l-.3-2.08v.03h-1.88l-.3,2.05h-1.53l1.71-10.5Zm1.8,7.02l-.73-5.19h-.03l-.72,5.19h1.48Z"/>
      <path class="cls-8" d="M163.47,97.53h2.35l1.05,7.51h.03l1.05-7.51h2.35v10.5h-1.56v-7.95h-.03l-1.2,7.95h-1.38l-1.2-7.95h-.03v7.95h-1.44v-10.5Z"/>
      <path class="cls-8" d="M172.02,105.54v-.6h1.56v.72c0,.75,.33,1.02,.85,1.02s.85-.27,.85-1.05c0-.87-.33-1.42-1.41-2.37-1.38-1.21-1.83-2.07-1.83-3.27,0-1.65,.85-2.61,2.46-2.61s2.4,.96,2.4,2.64v.44h-1.56v-.54c0-.75-.3-1.03-.82-1.03s-.83,.28-.83,1c0,.76,.35,1.32,1.43,2.26,1.38,1.21,1.81,2.06,1.81,3.36,0,1.71-.87,2.67-2.49,2.67s-2.43-.96-2.43-2.64Z"/>
    </g>
  </g>
</svg>