<?xml version="1.0" encoding="UTF-8"?>
<svg id="Layer_2" data-name="Layer 2" xmlns="http://www.w3.org/2000/svg" xmlns:xlink="http://www.w3.org/1999/xlink" viewBox="0 0 197.16 162.95">
  <defs>
    <style>
      .cls-1 {
        fill: #e3be89;
      }

      .cls-2 {
        fill: #fff;
      }

      .cls-3 {
        fill: #939598;
      }

      .cls-4 {
        clip-path: url(#clippath-1);
      }

      .cls-5 {
        clip-path: url(#clippath);
      }

      .cls-6 {
        stroke: #e8c99d;
        stroke-width: .67px;
      }

      .cls-6, .cls-7, .cls-8, .cls-9 {
        fill: none;
      }

      .cls-6, .cls-8, .cls-9 {
        stroke-miterlimit: 10;
      }

      .cls-8 {
        stroke: #edd5b3;
      }

      .cls-10 {
        fill: #e2e3e4;
        fill-rule: evenodd;
      }

      .cls-11 {
        fill: #efdbbe;
      }

      .cls-9 {
        stroke: #959485;
        stroke-width: .75px;
      }

      .cls-12 {
        fill: #cd8b2a;
      }
    </style>
    <clipPath id="clippath">
      <rect class="cls-7" y="11.55" width="73.39" height="135.29"/>
    </clipPath>
    <clipPath id="clippath-1">
      <rect class="cls-7" x="2.17" y="146.31" width="194.56" height="16.64"/>
    </clipPath>
  </defs>
  <g id="Layer_2-2" data-name="Layer 2">
    <g class="cls-5">
      <path class="cls-10" d="M-75.22,142.47v3.81s103.27,0,103.27,0h7.86s60.84,0,60.84,0v-3.81s-8.86,0-8.86,0v-5.26c2.94-.96,5.11-4.05,5.16-7.75,1.19-1.9,1.8-4.13,1.8-6.64,0-5.76-3.98-10.44-8.87-10.44s-8.64,4.68-8.64,10.44c0,2.52,.6,4.75,1.8,6.64,.05,3.6,2.16,6.71,4.94,7.71v5.3h-15.05v-40.08c0-1.05-.85-1.91-1.91-1.91h-23.35c-1.05,0-1.91,.85-1.91,1.91v40.08h-4.05V27.64c0-.51-.2-.99-.56-1.35-.36-.36-.84-.56-1.35-.56h-1.91v-5.05c0-1.05-.85-1.91-1.91-1.91H15.36c-1.05,0-1.91,.85-1.91,1.91v5.05H2.67c-1.05,0-1.91,.85-1.91,1.91v51.19c0,1.05,.85,1.91,1.91,1.91H26.14v61.75h-3.37v-56.02c0-1.05-.85-1.91-1.91-1.91H-6.3c-1.05,0-1.91,.85-1.91,1.91v56.02h-3.38v-61.75H-4.73c1.05,0,1.91-.85,1.91-1.91V43.35c0-.51-.2-.99-.56-1.35-.36-.36-.84-.56-1.35-.56H-14.05v-4.83c0-1.05-.85-1.91-1.91-1.91h-17.96c-1.05,0-1.91,.85-1.91,1.91v4.83h-9.55c-1.05,0-1.91,.85-1.91,1.91v99.12h-15.27v-5.26c2.94-.96,5.11-4.05,5.16-7.75,1.19-1.89,1.8-4.13,1.8-6.64,0-5.76-3.98-10.44-8.87-10.44s-8.64,4.59-8.64,10.44c0,2.52,.6,4.75,1.8,6.64,.05,3.59,2.16,6.71,4.94,7.71v5.3h-8.86ZM-.92,126.19v-6.28H5.36v6.28H-.92Zm6.28,6.07v6.28H-.92v-6.28H5.36ZM-.92,113.4v-6.28H5.36v6.28H-.92Zm0-12.35v-6.06H5.36v6.06H-.92Zm10.33,25.14v-6.28h6.28v6.28h-6.28Zm6.29,6.07v6.28h-6.28v-6.28h6.28Zm-6.29-18.87v-6.28h6.28v6.28h-6.28Zm0-12.35v-6.06h6.28v6.06h-6.28Zm38.4,22v-5.39h5.62v5.39h-5.62Zm5.62,5.17v5.39h-5.62v-5.39h5.62Zm-5.62-15.73v-5.39h5.62v5.39h-5.62Zm9.43,10.55v-5.39h5.84v5.39h-5.84Zm5.84,5.17v5.39h-5.84v-5.39h5.84Zm-5.84-15.72v-5.39h5.84v5.39h-5.84Z"/>
    </g>
    <g>
      <g>
        <path class="cls-11" d="M57.54,148.47c-.95,0-1.73-.79-1.73-1.75v-.17c.08-.6,.21-1.26,.32-1.83l.03-.16c.16-.66,.36-1.45,.62-2.26,.23-.69,.5-1.37,.8-2.03-1.54-1.99-2.14-4.54-1.61-7.01,.05-.25,.13-.53,.21-.8,1.55-5.6,6.71-9.53,12.53-9.53,.93,0,1.86,.1,2.77,.3,3.39,.71,6.41,2.83,8.29,5.81,.28,.45,.51,.87,.71,1.28,.22,.44,.43,.94,.61,1.45,.19,.5,.11,1.09-.21,1.55-.32,.46-.85,.74-1.41,.74-.27,0-.53-.06-.77-.18-.25-.11-.56-.22-.95-.32-.26-.06-.56-.09-.86-.09-1.99,0-3.73,1.42-4.14,3.38-.82,3.93-4.35,6.78-8.39,6.78-.47,0-.95-.04-1.42-.12-.36-.05-.68-.2-.94-.44-.04,.18-.08,.36-.11,.54-.1,.6-.17,1.19-.23,1.77-.02,.39-.04,.92-.04,1.35,0,.95-.78,1.73-1.73,1.73h-2.33Z"/>
        <path class="cls-2" d="M68.7,124.43c.81,0,1.63,.09,2.45,.26,3.16,.66,5.74,2.61,7.34,5.15,.23,.37,.43,.73,.62,1.12,.21,.41,.39,.85,.55,1.3,.06,.15-.06,.3-.2,.3-.03,0-.07,0-.1-.02-.39-.18-.8-.32-1.26-.43-.41-.09-.82-.14-1.23-.14-2.64,0-5.04,1.86-5.61,4.57-.7,3.31-3.64,5.59-6.93,5.59-.39,0-.78-.03-1.17-.1-.18-.02-.3-.18-.3-.37-.02-1.07,.27-4.69,4-9.01h0s.02-.03,.01-.03c-.03,0-.28,.21-.38,.3-.85,.73-1.78,1.65-2.63,2.74-.85,1.07-1.6,2.36-2.22,3.66-.62,1.3-1.01,2.7-1.26,4-.11,.66-.18,1.28-.25,1.9-.02,.5-.05,1.05-.05,1.51,0,.11-.09,.23-.23,.23h-2.33c-.14,0-.23-.11-.23-.25,.07-.59,.21-1.28,.32-1.88,.16-.66,.34-1.37,.57-2.08,.3-.87,.66-1.76,1.07-2.61,.05-.09,.02-.18-.05-.25-1.53-1.6-2.31-3.96-1.81-6.34,.05-.23,.11-.46,.18-.69,1.4-5.05,6.01-8.45,11.09-8.45m0-3c-6.48,0-12.22,4.36-13.97,10.62-.08,.26-.17,.58-.24,.94-.55,2.58-.03,5.27,1.38,7.47-.18,.44-.35,.89-.5,1.34v.03s-.02,.03-.02,.03c-.27,.85-.48,1.68-.63,2.3l-.02,.07v.07s-.05,.18-.05,.18c-.11,.6-.25,1.27-.32,1.92l-.02,.17v.17c0,1.79,1.45,3.25,3.23,3.25h2.33c1.78,0,3.23-1.45,3.23-3.23,0-.37,.02-.84,.04-1.28,.02-.14,.03-.27,.05-.41,.38,.04,.77,.07,1.15,.07,4.75,0,8.89-3.35,9.86-7.97,.27-1.27,1.39-2.19,2.67-2.19,.18,0,.36,.02,.54,.06,.27,.07,.48,.14,.65,.22,.43,.21,.91,.32,1.39,.32,1.05,0,2.04-.52,2.64-1.39,.59-.85,.73-1.94,.38-2.92-.19-.55-.42-1.1-.68-1.61-.22-.46-.47-.92-.77-1.4-2.1-3.33-5.48-5.7-9.27-6.49-1-.22-2.03-.33-3.07-.33h0Z"/>
      </g>
      <g>
        <path class="cls-1" d="M78.16,148.47c-1.1,0-1.96-.88-1.96-2v-.17c.14-1.13,.38-2.4,.6-3.52l.07-.34c.3-1.23,.68-2.77,1.19-4.34,.55-1.61,1.21-3.23,1.92-4.76-3.23-3.71-4.53-8.69-3.51-13.49,.1-.5,.25-1,.39-1.48,2.94-10.59,12.65-17.99,23.62-17.99,1.74,0,3.5,.19,5.22,.56,6.39,1.34,12.09,5.34,15.64,10.96,.53,.84,.96,1.63,1.32,2.4,.42,.85,.82,1.79,1.16,2.75,.21,.57,.13,1.24-.23,1.76-.36,.52-.95,.83-1.58,.83-.3,0-.6-.07-.87-.21-.61-.29-1.32-.53-2.21-.75-.66-.15-1.38-.23-2.09-.23-4.68,0-8.78,3.35-9.76,7.96-1.5,7.16-7.95,12.36-15.32,12.36-.86,0-1.73-.07-2.59-.21-1.05-.13-1.85-1.07-1.85-2.21-.02-.73,.03-2.12,.42-4.02-1.03,2.18-1.84,4.75-2.4,7.64-.21,1.25-.35,2.43-.48,3.67-.04,.87-.08,1.97-.08,2.86,0,1.08-.88,1.96-1.96,1.96h-4.66Z"/>
        <path class="cls-2" d="M100.48,101.88c1.62,0,3.26,.17,4.9,.53,6.31,1.33,11.48,5.21,14.69,10.29,.46,.73,.87,1.46,1.23,2.24,.41,.82,.78,1.69,1.1,2.61,.11,.3-.11,.6-.4,.6-.06,0-.13-.02-.2-.05-.78-.37-1.6-.64-2.52-.87-.82-.18-1.65-.27-2.46-.27-5.28,0-10.07,3.71-11.22,9.15-1.39,6.63-7.29,11.17-13.85,11.17-.77,0-1.56-.06-2.34-.19-.37-.05-.59-.37-.59-.73-.05-2.15,.55-9.38,8-18.02h0s.04-.05,.02-.05c-.06,0-.57,.41-.76,.6-1.69,1.46-3.57,3.29-5.26,5.49-1.69,2.15-3.2,4.71-4.44,7.32-1.23,2.61-2.01,5.4-2.52,8.01-.23,1.33-.37,2.56-.5,3.8-.05,1.01-.09,2.11-.09,3.02,0,.23-.18,.46-.46,.46h-4.66c-.28,0-.46-.23-.46-.5,.14-1.19,.41-2.56,.64-3.75,.32-1.33,.69-2.74,1.14-4.16,.6-1.74,1.33-3.52,2.15-5.21,.09-.18,.05-.37-.09-.5-3.06-3.2-4.62-7.91-3.61-12.67,.09-.46,.23-.91,.37-1.37,2.8-10.11,12.01-16.91,22.18-16.91m0-3c-11.63,0-21.93,7.84-25.06,19.07-.15,.48-.31,1.03-.43,1.62-1.04,4.92,.16,10.04,3.23,13.99-.58,1.32-1.12,2.68-1.57,4.01v.03s-.02,.03-.02,.03c-.52,1.62-.92,3.19-1.2,4.38l-.02,.07v.07s-.08,.35-.08,.35c-.22,1.14-.47,2.44-.61,3.63l-.02,.17v.17c0,1.93,1.55,3.5,3.46,3.5h4.66c1.91,0,3.46-1.55,3.46-3.46,0-.83,.04-1.87,.08-2.78,.13-1.19,.26-2.3,.46-3.49,.07-.36,.14-.72,.22-1.07,.52,.46,1.17,.78,1.91,.89,.92,.15,1.86,.23,2.79,.23,8.08,0,15.14-5.7,16.79-13.56,.83-3.92,4.31-6.76,8.29-6.76,.59,0,1.19,.06,1.77,.19,.76,.19,1.37,.4,1.91,.65,.47,.22,.98,.34,1.49,.34,1.12,0,2.17-.55,2.81-1.48,.63-.91,.79-2.08,.41-3.13-.35-1.01-.76-1.98-1.22-2.91-.39-.82-.84-1.64-1.39-2.52-3.77-5.98-9.82-10.21-16.61-11.64-1.8-.39-3.67-.59-5.52-.59h0Z"/>
      </g>
      <g>
        <path class="cls-12" d="M110.35,148.47c-1.23,0-2.19-.99-2.19-2.26v-.17c.2-1.67,.56-3.55,.88-5.21l.1-.53c.43-1.8,1.01-4.09,1.76-6.42,.87-2.54,1.91-5.11,3.05-7.49-4.92-5.41-6.93-12.81-5.42-19.95,.15-.73,.36-1.46,.57-2.16,4.32-15.57,18.6-26.45,34.72-26.45,2.56,0,5.14,.28,7.67,.83,9.39,1.97,17.77,7.84,22.98,16.11,.77,1.24,1.41,2.39,1.94,3.52,.63,1.26,1.21,2.64,1.71,4.06,.24,.63,.15,1.38-.26,1.97-.4,.58-1.06,.93-1.75,.93-.34,0-.66-.08-.97-.23-.98-.46-2.09-.84-3.46-1.19-1.07-.24-2.2-.36-3.32-.36-7.37,0-13.83,5.27-15.37,12.53-2.18,10.4-11.54,17.95-22.25,17.95-1.25,0-2.52-.1-3.76-.31-1.22-.15-2.15-1.24-2.15-2.58-.04-1.85,.19-6.6,2.86-13.02-1.3,2.05-2.53,4.3-3.65,6.67-1.58,3.33-2.81,7.25-3.66,11.65-.33,1.91-.54,3.77-.74,5.56-.06,1.36-.13,3.02-.13,4.38,0,1.21-.98,2.19-2.19,2.19h-7Z"/>
        <path class="cls-2" d="M143.83,79.34c2.43,0,4.89,.26,7.35,.79,9.47,1.99,17.23,7.82,22.03,15.44,.69,1.1,1.3,2.2,1.85,3.36,.62,1.24,1.17,2.54,1.65,3.91,.17,.45-.17,.9-.59,.9-.1,0-.2-.02-.3-.07-1.17-.55-2.4-.96-3.77-1.3-1.23-.27-2.47-.41-3.68-.41-7.92,0-15.11,5.57-16.83,13.72-2.09,9.94-10.93,16.76-20.78,16.76-1.16,0-2.33-.09-3.51-.29-.55-.07-.89-.55-.89-1.1-.07-3.22,.82-14.06,12.01-27.04h0c.05-.06,.05-.08,.04-.08-.09,0-.85,.62-1.14,.9-2.54,2.2-5.35,4.94-7.89,8.23-2.54,3.22-4.8,7.07-6.66,10.98-1.85,3.91-3.02,8.1-3.77,12.01-.34,1.99-.55,3.84-.76,5.7-.07,1.51-.14,3.16-.14,4.53,0,.34-.27,.69-.69,.69h-7c-.41,0-.69-.34-.69-.76,.2-1.78,.62-3.84,.96-5.63,.48-1.99,1.03-4.12,1.72-6.25,.89-2.61,1.99-5.28,3.22-7.82,.14-.27,.07-.55-.14-.76-4.6-4.8-6.93-11.87-5.42-19.01,.14-.69,.34-1.37,.55-2.06,4.2-15.16,18.01-25.36,33.27-25.36m0-3c-16.78,0-31.64,11.32-36.16,27.53-.22,.73-.45,1.49-.61,2.31-1.54,7.25,.37,14.8,5.12,20.47-1,2.19-1.92,4.48-2.69,6.73v.03s-.02,.03-.02,.03c-.77,2.38-1.35,4.7-1.78,6.46l-.02,.07v.07s-.12,.53-.12,.53c-.33,1.69-.69,3.6-.89,5.32l-.02,.17v.17c0,2.11,1.62,3.76,3.69,3.76h7c2.03,0,3.69-1.65,3.69-3.69,0-1.29,.06-2.89,.13-4.29,.2-1.83,.4-3.54,.72-5.39,.4-2.08,.89-4.04,1.46-5.88,0,.13,0,.26,0,.37,.02,2.06,1.46,3.74,3.44,4.03,1.31,.21,2.64,.32,3.96,.32,11.41,0,21.39-8.05,23.71-19.14,1.39-6.57,7.23-11.34,13.9-11.34,1,0,2.01,.11,3,.33,1.25,.31,2.25,.66,3.16,1.09,.5,.24,1.05,.37,1.6,.37,1.19,0,2.3-.59,2.99-1.57,.68-.98,.84-2.22,.43-3.34-.51-1.46-1.11-2.88-1.77-4.21-.56-1.18-1.22-2.37-2.01-3.64-5.43-8.62-14.16-14.73-23.96-16.79-2.61-.57-5.3-.86-7.97-.86h0Z"/>
      </g>
    </g>
    <g>
      <g id="line_bar" data-name="line bar">
        <g class="cls-4">
          <g>
            <line class="cls-6" x1="348.89" y1="157.86" x2="8.01" y2="381.03"/>
            <line class="cls-6" x1="348.56" y1="150.13" x2="7.67" y2="373.31"/>
            <line class="cls-6" x1="348.23" y1="142.41" x2="7.34" y2="365.59"/>
            <line class="cls-6" x1="347.9" y1="134.69" x2="7" y2="357.87"/>
            <line class="cls-6" x1="347.57" y1="126.97" x2="6.67" y2="350.15"/>
            <line class="cls-6" x1="347.24" y1="119.25" x2="6.33" y2="342.43"/>
            <line class="cls-6" x1="346.91" y1="111.52" x2="5.99" y2="334.71"/>
            <line class="cls-6" x1="346.58" y1="103.8" x2="5.66" y2="326.98"/>
            <line class="cls-6" x1="346.26" y1="96.08" x2="5.32" y2="319.26"/>
            <line class="cls-6" x1="345.93" y1="88.36" x2="4.99" y2="311.54"/>
            <line class="cls-6" x1="345.6" y1="80.64" x2="4.65" y2="303.82"/>
            <line class="cls-6" x1="345.27" y1="72.91" x2="4.32" y2="296.1"/>
            <line class="cls-6" x1="344.94" y1="65.19" x2="3.98" y2="288.38"/>
            <line class="cls-6" x1="344.61" y1="57.47" x2="3.65" y2="280.66"/>
            <line class="cls-6" x1="344.28" y1="49.75" x2="3.31" y2="272.94"/>
            <line class="cls-6" x1="343.95" y1="42.03" x2="2.97" y2="265.21"/>
            <line class="cls-6" x1="343.63" y1="34.31" x2="2.64" y2="257.49"/>
            <line class="cls-6" x1="343.3" y1="26.58" x2="2.3" y2="249.77"/>
            <line class="cls-6" x1="342.97" y1="18.86" x2="1.97" y2="242.05"/>
            <line class="cls-6" x1="342.64" y1="11.14" x2="1.63" y2="234.33"/>
            <line class="cls-6" x1="342.31" y1="3.42" x2="1.3" y2="226.61"/>
            <line class="cls-6" x1="341.98" y1="-4.3" x2=".96" y2="218.89"/>
            <line class="cls-6" x1="341.65" y1="-12.03" x2=".63" y2="211.17"/>
            <line class="cls-6" x1="341.32" y1="-19.75" x2=".29" y2="203.44"/>
            <line class="cls-6" x1="340.99" y1="-27.47" x2="-.05" y2="195.72"/>
            <line class="cls-6" x1="340.67" y1="-35.19" x2="-.38" y2="188"/>
            <line class="cls-6" x1="340.34" y1="-42.91" x2="-.72" y2="180.28"/>
            <line class="cls-6" x1="340.01" y1="-50.64" x2="-1.05" y2="172.56"/>
            <line class="cls-6" x1="339.68" y1="-58.36" x2="-1.39" y2="164.84"/>
            <line class="cls-6" x1="339.35" y1="-66.08" x2="-1.72" y2="157.12"/>
            <line class="cls-6" x1="339.02" y1="-73.8" x2="-2.06" y2="149.4"/>
            <line class="cls-6" x1="338.69" y1="-81.52" x2="-2.39" y2="141.67"/>
            <line class="cls-6" x1="338.36" y1="-89.25" x2="-2.73" y2="133.95"/>
            <line class="cls-6" x1="338.04" y1="-96.97" x2="-3.07" y2="126.23"/>
          </g>
        </g>
      </g>
      <line class="cls-8" x1=".61" y1="146.57" x2="197.16" y2="146.57"/>
    </g>
    <g>
      <rect class="cls-12" x="115.61" y="42.16" width="49.81" height="18.15"/>
      <line class="cls-9" x1="30.05" y1="63.96" x2="91.43" y2="63.96"/>
      <line class="cls-9" x1="30.05" y1="81.4" x2="91.43" y2="81.4"/>
      <g>
        <path class="cls-12" d="M29.33,10.96V3.44c0-2.16,1.12-3.44,3.24-3.44s3.24,1.28,3.24,3.44v1.48h-2.08v-1.62c0-.92-.44-1.3-1.1-1.3s-1.1,.38-1.1,1.3v7.82c0,.92,.44,1.28,1.1,1.28s1.1-.36,1.1-1.28v-2.14h2.08v1.98c0,2.16-1.12,3.44-3.24,3.44s-3.24-1.28-3.24-3.44Z"/>
        <path class="cls-12" d="M37.4,10.88V3.52c0-2.24,1.18-3.52,3.34-3.52s3.34,1.28,3.34,3.52v7.36c0,2.24-1.18,3.52-3.34,3.52s-3.34-1.28-3.34-3.52Zm4.48,.14V3.38c0-1-.44-1.38-1.14-1.38s-1.14,.38-1.14,1.38v7.64c0,1,.44,1.38,1.14,1.38s1.14-.38,1.14-1.38Z"/>
        <path class="cls-12" d="M45.87,.2h3.14l1.4,10.02h.04L51.85,.2h3.14V14.2h-2.08V3.6h-.04l-1.6,10.6h-1.84l-1.6-10.6h-.04V14.2h-1.92V.2Z"/>
        <path class="cls-12" d="M56.9,.2h3.24c2.2,0,3.28,1.22,3.28,3.46v1.38c0,2.24-1.08,3.46-3.28,3.46h-1.04v5.7h-2.2V.2Zm3.24,6.3c.7,0,1.08-.32,1.08-1.32v-1.66c0-1-.38-1.32-1.08-1.32h-1.04V6.5h1.04Z"/>
        <path class="cls-12" d="M66.35,.2h2.98l2.28,14h-2.2l-.4-2.78v.04h-2.5l-.4,2.74h-2.04L66.35,.2Zm2.4,9.36l-.98-6.92h-.04l-.96,6.92h1.98Z"/>
        <path class="cls-12" d="M73.15,.2h2.76l2.14,8.38h.04V.2h1.96V14.2h-2.26l-2.64-10.22h-.04V14.2h-1.96V.2Z"/>
        <path class="cls-12" d="M84.23,8.24L81.56,.2h2.34l1.5,5.14h.04l1.5-5.14h2.14l-2.66,8.04v5.96h-2.2v-5.96Z"/>
        <path class="cls-12" d="M29.09,32.88v-.8h2.08v.96c0,1,.44,1.36,1.14,1.36s1.14-.36,1.14-1.4c0-1.16-.44-1.9-1.88-3.16-1.84-1.62-2.44-2.76-2.44-4.36,0-2.2,1.14-3.48,3.28-3.48s3.2,1.28,3.2,3.52v.58h-2.08v-.72c0-1-.4-1.38-1.1-1.38s-1.1,.38-1.1,1.34c0,1.02,.46,1.76,1.9,3.02,1.84,1.62,2.42,2.74,2.42,4.48,0,2.28-1.16,3.56-3.32,3.56s-3.24-1.28-3.24-3.52Z"/>
        <path class="cls-12" d="M37.25,32.88v-10.68h2.2v10.84c0,1,.42,1.36,1.12,1.36s1.12-.36,1.12-1.36v-10.84h2.12v10.68c0,2.24-1.12,3.52-3.28,3.52s-3.28-1.28-3.28-3.52Z"/>
        <path class="cls-12" d="M45.41,32.88v-.8h2.08v.96c0,1,.44,1.36,1.14,1.36s1.14-.36,1.14-1.4c0-1.16-.44-1.9-1.88-3.16-1.84-1.62-2.44-2.76-2.44-4.36,0-2.2,1.14-3.48,3.28-3.48s3.2,1.28,3.2,3.52v.58h-2.08v-.72c0-1-.4-1.38-1.1-1.38s-1.1,.38-1.1,1.34c0,1.02,.46,1.76,1.9,3.02,1.84,1.62,2.42,2.74,2.42,4.48,0,2.28-1.16,3.56-3.32,3.56s-3.24-1.28-3.24-3.52Z"/>
        <path class="cls-12" d="M55.57,24.2h-2.3v-2h6.8v2h-2.3v12h-2.2v-12Z"/>
        <path class="cls-12" d="M62.64,22.2h2.98l2.28,14h-2.2l-.4-2.78v.04h-2.5l-.4,2.74h-2.04l2.28-14Zm2.4,9.36l-.98-6.92h-.04l-.96,6.92h1.98Z"/>
        <path class="cls-12" d="M69.44,22.2h2.2v14h-2.2v-14Z"/>
        <path class="cls-12" d="M73.52,22.2h2.76l2.14,8.38h.04v-8.38h1.96v14h-2.26l-2.64-10.22h-.04v10.22h-1.96v-14Z"/>
        <path class="cls-12" d="M84.25,22.2h2.98l2.28,14h-2.2l-.4-2.78v.04h-2.5l-.4,2.74h-2.04l2.28-14Zm2.4,9.36l-.98-6.92h-.04l-.96,6.92h1.98Z"/>
        <path class="cls-12" d="M91.05,22.2h3.32c2.28,0,3.26,1.06,3.26,3.22v.56c0,1.44-.44,2.34-1.42,2.74v.04c1.18,.4,1.64,1.44,1.64,2.92v1.2c0,2.16-1.14,3.32-3.34,3.32h-3.46v-14Zm3.06,5.7c.82,0,1.32-.36,1.32-1.48v-.78c0-1-.34-1.44-1.12-1.44h-1.06v3.7h.86Zm.4,6.3c.74,0,1.14-.34,1.14-1.38v-1.22c0-1.3-.42-1.7-1.42-1.7h-.98v4.3h1.26Z"/>
        <path class="cls-12" d="M99.5,22.2h2.2v14h-2.2v-14Z"/>
        <path class="cls-12" d="M103.58,22.2h2.2v12h3.62v2h-5.82v-14Z"/>
        <path class="cls-12" d="M110.94,22.2h2.2v14h-2.2v-14Z"/>
        <path class="cls-12" d="M116.98,24.2h-2.3v-2h6.8v2h-2.3v12h-2.2v-12Z"/>
        <path class="cls-12" d="M125.37,30.24l-2.66-8.04h2.34l1.5,5.14h.04l1.5-5.14h2.14l-2.66,8.04v5.96h-2.2v-5.96Z"/>
      </g>
      <g>
        <path class="cls-3" d="M29.76,45.97h2.61c1.82,0,2.61,.85,2.61,2.58v.69c0,1.15-.37,1.89-1.15,2.21v.03c.88,.27,1.17,1.1,1.17,2.37v1.97c0,.54,.02,.94,.19,1.36h-1.79c-.1-.29-.16-.46-.16-1.38v-2.05c0-1.04-.3-1.38-1.1-1.38h-.61v4.8h-1.76v-11.2Zm2.4,4.8c.66,0,1.06-.29,1.06-1.18v-.86c0-.8-.27-1.15-.9-1.15h-.8v3.2h.64Z"/>
        <path class="cls-3" d="M36.85,45.97h4.8v1.6h-3.04v2.96h2.42v1.6h-2.42v3.44h3.04v1.6h-4.8v-11.2Z"/>
        <path class="cls-3" d="M43.29,45.97h2.59c1.76,0,2.62,.98,2.62,2.77v1.1c0,1.79-.86,2.77-2.62,2.77h-.83v4.56h-1.76v-11.2Zm2.59,5.04c.56,0,.86-.26,.86-1.06v-1.33c0-.8-.3-1.06-.86-1.06h-.83v3.44h.83Z"/>
        <path class="cls-3" d="M49.98,54.52v-5.89c0-1.79,.94-2.82,2.67-2.82s2.67,1.02,2.67,2.82v5.89c0,1.79-.94,2.82-2.67,2.82s-2.67-1.02-2.67-2.82Zm3.59,.11v-6.11c0-.8-.35-1.1-.91-1.1s-.91,.3-.91,1.1v6.11c0,.8,.35,1.1,.91,1.1s.91-.3,.91-1.1Z"/>
        <path class="cls-3" d="M57.15,45.97h2.61c1.82,0,2.61,.85,2.61,2.58v.69c0,1.15-.37,1.89-1.15,2.21v.03c.88,.27,1.17,1.1,1.17,2.37v1.97c0,.54,.02,.94,.19,1.36h-1.79c-.1-.29-.16-.46-.16-1.38v-2.05c0-1.04-.3-1.38-1.1-1.38h-.61v4.8h-1.76v-11.2Zm2.4,4.8c.66,0,1.06-.29,1.06-1.18v-.86c0-.8-.27-1.15-.9-1.15h-.8v3.2h.64Z"/>
        <path class="cls-3" d="M65.58,47.57h-1.84v-1.6h5.44v1.6h-1.84v9.6h-1.76v-9.6Z"/>
        <path class="cls-3" d="M70.67,45.97h1.76v11.2h-1.76v-11.2Z"/>
        <path class="cls-3" d="M74.38,45.97h2.21l1.71,6.71h.03v-6.71h1.57v11.2h-1.81l-2.11-8.18h-.03v8.18h-1.57v-11.2Z"/>
        <path class="cls-3" d="M81.73,54.52v-5.89c0-1.79,.9-2.82,2.62-2.82s2.62,1.02,2.62,2.82v.96h-1.66v-1.07c0-.8-.35-1.1-.91-1.1s-.91,.3-.91,1.1v6.13c0,.8,.35,1.09,.91,1.09s.91-.29,.91-1.09v-2.19h-.88v-1.6h2.54v3.67c0,1.79-.9,2.82-2.62,2.82s-2.62-1.02-2.62-2.82Z"/>
        <path class="cls-3" d="M91.95,45.97h1.76v4.56h1.89v-4.56h1.76v11.2h-1.76v-5.04h-1.89v5.04h-1.76v-11.2Z"/>
        <path class="cls-3" d="M100.67,45.97h2.39l1.82,11.2h-1.76l-.32-2.23v.03h-2l-.32,2.19h-1.63l1.82-11.2Zm1.92,7.49l-.78-5.54h-.03l-.77,5.54h1.58Z"/>
        <path class="cls-3" d="M106.01,54.52v-.64h1.66v.77c0,.8,.35,1.09,.91,1.09s.91-.29,.91-1.12c0-.93-.35-1.52-1.5-2.53-1.47-1.3-1.95-2.21-1.95-3.49,0-1.76,.91-2.79,2.62-2.79s2.56,1.02,2.56,2.82v.46h-1.66v-.58c0-.8-.32-1.1-.88-1.1s-.88,.3-.88,1.07c0,.82,.37,1.41,1.52,2.42,1.47,1.3,1.94,2.19,1.94,3.59,0,1.82-.93,2.85-2.66,2.85s-2.59-1.02-2.59-2.82Z"/>
        <path class="cls-2" d="M120.69,47.57h-1.84v-1.6h5.44v1.6h-1.84v9.6h-1.76v-9.6Z"/>
        <path class="cls-2" d="M125.77,45.97h2.61c1.82,0,2.61,.85,2.61,2.58v.69c0,1.15-.37,1.89-1.15,2.21v.03c.88,.27,1.17,1.1,1.17,2.37v1.97c0,.54,.02,.94,.19,1.36h-1.79c-.1-.29-.16-.46-.16-1.38v-2.05c0-1.04-.3-1.38-1.1-1.38h-.61v4.8h-1.76v-11.2Zm2.4,4.8c.66,0,1.06-.29,1.06-1.18v-.86c0-.8-.27-1.15-.9-1.15h-.8v3.2h.64Z"/>
        <path class="cls-2" d="M132.86,45.97h1.76v11.2h-1.76v-11.2Z"/>
        <path class="cls-2" d="M136.57,45.97h2.59c1.76,0,2.62,.98,2.62,2.77v1.1c0,1.79-.86,2.77-2.62,2.77h-.83v4.56h-1.76v-11.2Zm2.59,5.04c.56,0,.86-.26,.86-1.06v-1.33c0-.8-.3-1.06-.86-1.06h-.83v3.44h.83Z"/>
        <path class="cls-2" d="M143.39,45.97h1.76v9.6h2.9v1.6h-4.66v-11.2Z"/>
        <path class="cls-2" d="M149.53,45.97h4.8v1.6h-3.04v2.96h2.42v1.6h-2.42v3.44h3.04v1.6h-4.8v-11.2Z"/>
        <path class="cls-2" d="M155.98,45.97h2.69c1.76,0,2.62,.98,2.62,2.77v5.67c0,1.79-.86,2.77-2.62,2.77h-2.69v-11.2Zm2.66,9.6c.56,0,.9-.29,.9-1.09v-5.83c0-.8-.34-1.09-.9-1.09h-.9v8h.9Z"/>
        <path class="cls-3" d="M29.45,75.52v-.64h1.66v.77c0,.8,.35,1.09,.91,1.09s.91-.29,.91-1.12c0-.93-.35-1.52-1.5-2.53-1.47-1.3-1.95-2.21-1.95-3.49,0-1.76,.91-2.79,2.62-2.79s2.56,1.02,2.56,2.82v.46h-1.66v-.58c0-.8-.32-1.1-.88-1.1s-.88,.3-.88,1.07c0,.82,.37,1.41,1.52,2.42,1.47,1.3,1.94,2.19,1.94,3.59,0,1.82-.93,2.85-2.66,2.85s-2.59-1.02-2.59-2.82Z"/>
        <path class="cls-3" d="M36.35,66.97h1.76v11.2h-1.76v-11.2Z"/>
        <path class="cls-3" d="M40.06,66.97h2.21l1.71,6.71h.03v-6.71h1.57v11.2h-1.81l-2.11-8.18h-.03v8.18h-1.57v-11.2Z"/>
        <path class="cls-3" d="M47.42,75.58v-6.02c0-1.73,.9-2.75,2.59-2.75s2.59,1.02,2.59,2.75v1.18h-1.67v-1.3c0-.74-.35-1.04-.88-1.04s-.88,.3-.88,1.04v6.26c0,.74,.35,1.02,.88,1.02s.88-.29,.88-1.02v-1.71h1.67v1.58c0,1.73-.9,2.75-2.59,2.75s-2.59-1.02-2.59-2.75Z"/>
        <path class="cls-3" d="M54.3,66.97h4.8v1.6h-3.04v2.96h2.42v1.6h-2.42v3.44h3.04v1.6h-4.8v-11.2Z"/>
        <path class="cls-3" d="M63.92,76.96c0-1.6,.45-2.58,1.76-3.95,1.34-1.42,1.73-2.27,1.73-3.31s-.35-1.28-.91-1.28-.91,.3-.91,1.1v1.2h-1.67v-1.09c0-1.79,.9-2.82,2.63-2.82s2.62,1.02,2.62,2.82c0,1.33-.54,2.51-2.18,4.24-1.06,1.12-1.33,1.68-1.33,2.46v.24h3.35v1.6h-5.09v-1.22Z"/>
        <path class="cls-3" d="M70.86,75.52v-5.89c0-1.79,.94-2.82,2.67-2.82s2.67,1.02,2.67,2.82v5.89c0,1.79-.94,2.82-2.67,2.82s-2.67-1.02-2.67-2.82Zm3.59,.11v-6.11c0-.8-.35-1.1-.91-1.1s-.91,.3-.91,1.1v6.11c0,.8,.35,1.1,.91,1.1s.91-.3,.91-1.1Z"/>
        <path class="cls-3" d="M80.49,69.63h-1.84v-1.25c1.49,0,2.02-.32,2.42-1.41h1.18v11.2h-1.76v-8.55Z"/>
        <path class="cls-3" d="M84.99,75.52v-5.79c0-1.89,.86-2.91,2.69-2.91,1.73,0,2.63,1.02,2.63,2.82v.21h-1.67v-.32c0-.8-.35-1.1-.91-1.1-.62,0-.98,.3-.98,1.38v2.14h.03c.3-.64,.82-.98,1.6-.98,1.3,0,1.95,.91,1.95,2.56v2c0,1.79-.94,2.82-2.67,2.82s-2.67-1.02-2.67-2.82Zm3.59,.13v-1.98c0-.75-.3-1.1-.91-1.1s-.91,.35-.91,1.1v1.98c0,.74,.3,1.09,.91,1.09s.91-.35,.91-1.09Z"/>
      </g>
    </g>
  </g>
</svg>