<?xml version="1.0" encoding="UTF-8"?><svg id="Layer_2" xmlns="http://www.w3.org/2000/svg" viewBox="0 0 161.91 254.38"><defs><style>.cls-1{fill:#fff;}.cls-2{fill:#e2e3e4;}.cls-3{fill:#939598;}.cls-4{fill:#d8a358;}.cls-5{fill:#aa8245;}.cls-6{fill:#cd8b2a;}.cls-7{stroke:#bdbcbb;stroke-dasharray:0 0 0 3;stroke-linecap:round;stroke-linejoin:round;stroke-width:1.75px;}.cls-7,.cls-8{fill:none;}.cls-8{stroke:#939598;stroke-miterlimit:10;}</style></defs><g id="Layer_2-2"><path class="cls-2" d="m37.47,133.26c-6.95-.64-8.88,4.68-8.88,4.68,1.78-4.03.81-11.13-4.85-13.08-5.49-1.94-3.87-7.75-3.87-7.75-5.49,3.87-2.59,8.71-2.59,11.3,0,1.13-.64,2.58-2.26,2.58-3.39,0-2.91-5.16-2.91-5.16-7.27,4.52-1.62,11.78-1.29,15.65.16,1.45-.97,2.26-2.26,2.26-2.91,0-3.07-3.39-3.07-3.39-2.26,2.74-1.94,9.2-1.94,9.2,0,7.58,5.49,13.88,12.6,15.33-2.42-1.13-4.2-3.71-4.2-6.62-.16-3.05.97-6.12,2.58-7.41,0,0-1.13,3.87,1.13,4.03,1.13,0,1.62-.97,1.45-2.26-1.13-5.97,2.59-7.1,2.59-7.1,0,0-1.62,2.58,1.45,5.48,2.1,1.94,2.1,5.01,2.1,5.01,1.78-2.58,4.2-2.74,4.2-2.74-2.26,2.42-1.13,3.23-1.13,5.33,0,2.91-1.78,5.48-4.36,6.62,7.27-1.29,12.92-7.75,12.92-15.33,0-1.94-.32-3.71-.97-5.33-2.26-7.28,3.55-11.31,3.55-11.31h0Z"/><path class="cls-2" d="m22.61,113.89s4.52,0,5.17,3.71c.64,3.71-3.23,3.55-3.23,3.55,0,0,1.46-2.9-1.94-7.26Z"/><path class="cls-2" d="m35.49,197.41l-4.64-29.45H8.4S0,240.47,0,240.47h134.74v-43.05H35.49Z"/><path class="cls-3" d="m31.93.18h3.02c.98,0,1.72.26,2.21.79.49.53.74,1.3.74,2.32v6.37c0,1.02-.25,1.79-.74,2.32-.49.53-1.23.79-2.21.79h-3.02V.18Zm2.99,10.8c.32,0,.57-.1.75-.29.17-.19.26-.5.26-.94V3.2c0-.43-.09-.74-.26-.94-.17-.19-.42-.29-.75-.29h-1.01v9h1.01Z"/><path class="cls-3" d="m40.07.18h5.4v1.8h-3.42v3.33h2.72v1.8h-2.72v3.87h3.42v1.8h-5.4V.18Z"/><path class="cls-3" d="m48.05,12.14c-.49-.55-.74-1.33-.74-2.35v-.72h1.87v.86c0,.82.34,1.22,1.03,1.22.34,0,.59-.1.77-.3.17-.2.26-.52.26-.96,0-.53-.12-.99-.36-1.4-.24-.4-.68-.88-1.33-1.45-.82-.72-1.39-1.37-1.71-1.95-.32-.58-.49-1.24-.49-1.97,0-1,.25-1.77.76-2.31s1.24-.82,2.2-.82,1.67.27,2.15.82c.49.55.73,1.33.73,2.35v.52h-1.87v-.65c0-.43-.08-.75-.25-.95-.17-.2-.41-.3-.74-.3-.66,0-.99.4-.99,1.21,0,.46.12.88.37,1.28s.69.88,1.34,1.44c.83.72,1.4,1.37,1.71,1.96.31.59.47,1.28.47,2.07,0,1.03-.25,1.82-.76,2.38-.51.55-1.25.83-2.22.83s-1.69-.27-2.18-.82Z"/><path class="cls-3" d="m55.25.18h2.92c.98,0,1.72.26,2.21.79.49.53.74,1.3.74,2.32v1.24c0,1.02-.25,1.79-.74,2.32-.49.53-1.23.79-2.21.79h-.94v5.13h-1.98V.18Zm2.92,5.67c.32,0,.57-.09.73-.27.16-.18.24-.49.24-.92v-1.49c0-.43-.08-.74-.24-.92-.16-.18-.4-.27-.73-.27h-.94v3.87h.94Z"/><path class="cls-3" d="m63.12.18h1.98v12.6h-1.98V.18Z"/><path class="cls-3" d="m69.12,1.98h-2.07V.18h6.12v1.8h-2.07v10.8h-1.98V1.98Z"/><path class="cls-3" d="m75.11.18h5.4v1.8h-3.42v3.33h2.72v1.8h-2.72v3.87h3.42v1.8h-5.4V.18Z"/><path class="cls-3" d="m86.95,12.15c-.5-.54-.75-1.3-.75-2.29V3.1c0-.98.25-1.75.75-2.29.5-.54,1.22-.81,2.17-.81s1.67.27,2.17.81c.5.54.75,1.3.75,2.29v1.33h-1.87v-1.46c0-.78-.33-1.17-.99-1.17s-.99.39-.99,1.17v7.04c0,.77.33,1.15.99,1.15s.99-.38.99-1.15v-1.93h1.87v1.78c0,.98-.25,1.75-.75,2.29s-1.22.81-2.17.81-1.67-.27-2.17-.81Z"/><path class="cls-3" d="m95.72.18h2.68l2.05,12.6h-1.98l-.36-2.5v.04h-2.25l-.36,2.47h-1.84L95.72.18Zm2.16,8.42l-.88-6.23h-.04l-.86,6.23h1.78Z"/><path class="cls-3" d="m102.4.18h1.98v10.8h3.26v1.8h-5.24V.18Z"/><path class="cls-3" d="m109.59.18h1.98v10.8h3.26v1.8h-5.24V.18Z"/><path class="cls-3" d="m117.32,12.14c-.49-.55-.74-1.33-.74-2.35v-.72h1.87v.86c0,.82.34,1.22,1.03,1.22.34,0,.59-.1.77-.3.17-.2.26-.52.26-.96,0-.53-.12-.99-.36-1.4-.24-.4-.68-.88-1.33-1.45-.82-.72-1.39-1.37-1.71-1.95-.32-.58-.49-1.24-.49-1.97,0-1,.25-1.77.76-2.31s1.24-.82,2.2-.82,1.67.27,2.15.82c.49.55.73,1.33.73,2.35v.52h-1.87v-.65c0-.43-.08-.75-.25-.95-.17-.2-.41-.3-.74-.3-.66,0-.99.4-.99,1.21,0,.46.12.88.37,1.28s.69.88,1.34,1.44c.83.72,1.4,1.37,1.71,1.96.31.59.47,1.28.47,2.07,0,1.03-.25,1.82-.76,2.38-.51.55-1.25.83-2.22.83s-1.69-.27-2.18-.82Z"/><path class="cls-3" d="m128.3.18h5.24v1.8h-3.26v3.51h2.56v1.8h-2.56v5.49h-1.98V.18Z"/><path class="cls-3" d="m136.14,12.13c-.52-.55-.77-1.33-.77-2.34V3.17c0-1.01.26-1.79.77-2.34.52-.55,1.26-.83,2.23-.83s1.72.28,2.23.83c.52.55.77,1.33.77,2.34v6.62c0,1.01-.26,1.79-.77,2.34-.52.55-1.26.83-2.23.83s-1.72-.28-2.23-.83Zm3.26-2.21V3.04c0-.83-.34-1.24-1.03-1.24s-1.03.41-1.03,1.24v6.88c0,.83.34,1.24,1.03,1.24s1.03-.41,1.03-1.24Z"/><path class="cls-3" d="m143.54.18h2.93c1.02,0,1.76.24,2.23.71.47.47.7,1.2.7,2.19v.77c0,1.31-.43,2.14-1.3,2.48v.04c.48.14.82.44,1.02.88.2.44.3,1.04.3,1.78v2.21c0,.36.01.65.04.87.02.22.08.44.18.66h-2.02c-.07-.2-.12-.4-.14-.58-.02-.18-.04-.5-.04-.97v-2.3c0-.58-.09-.98-.28-1.21-.19-.23-.51-.34-.96-.34h-.68v5.4h-1.98V.18Zm2.7,5.4c.4,0,.69-.1.89-.31.2-.2.3-.55.3-1.03v-.97c0-.46-.08-.79-.24-.99-.16-.2-.42-.31-.76-.31h-.9v3.6h.72Z"/><path class="cls-6" d="m52.19,29.09h2.96l2.27,13.93h-2.19l-.4-2.77v.04h-2.49l-.4,2.73h-2.03l2.27-13.93Zm2.39,9.31l-.98-6.89h-.04l-.96,6.89h1.97Z"/><path class="cls-6" d="m62.45,29.09h3.22c1.09,0,1.9.29,2.45.88.54.58.82,1.44.82,2.57v1.37c0,1.13-.27,1.98-.82,2.57-.54.58-1.36.88-2.45.88h-1.03v5.67h-2.19v-13.93Zm3.22,6.27c.36,0,.63-.1.81-.3.18-.2.27-.54.27-1.01v-1.65c0-.48-.09-.82-.27-1.01s-.45-.3-.81-.3h-1.03v4.28h1.03Z"/><path class="cls-6" d="m70.55,29.09h2.19v5.67h2.35v-5.67h2.19v13.93h-2.19v-6.27h-2.35v6.27h-2.19v-13.93Z"/><path class="cls-6" d="m81.07,29.09h2.96l2.27,13.93h-2.19l-.4-2.77v.04h-2.49l-.4,2.73h-2.03l2.27-13.93Zm2.39,9.31l-.98-6.89h-.04l-.96,6.89h1.97Z"/><path class="cls-6" d="m88.28,42.32c-.54-.6-.82-1.47-.82-2.6v-.8h2.07v.96c0,.9.38,1.35,1.13,1.35.37,0,.65-.11.85-.33.19-.22.29-.57.29-1.06,0-.58-.13-1.1-.4-1.54-.27-.44-.76-.98-1.47-1.6-.9-.8-1.53-1.52-1.89-2.16-.36-.64-.54-1.37-.54-2.18,0-1.1.28-1.95.84-2.56.56-.6,1.37-.91,2.43-.91s1.84.3,2.38.91c.54.6.81,1.47.81,2.6v.58h-2.07v-.72c0-.48-.09-.83-.28-1.04-.19-.22-.46-.33-.82-.33-.73,0-1.09.44-1.09,1.33,0,.5.14.97.41,1.41s.77.97,1.48,1.59c.92.8,1.55,1.52,1.89,2.17.34.65.52,1.41.52,2.29,0,1.14-.28,2.02-.85,2.63-.56.61-1.38.92-2.46.92s-1.86-.3-2.41-.91Z"/><path class="cls-6" d="m95.63,29.09h5.97v1.99h-3.78v3.68h3v1.99h-3v4.28h3.78v1.99h-5.97v-13.93Z"/><path class="cls-6" d="m102.69,35.06h4.38v1.99h-4.38v-1.99Z"/><path class="cls-6" d="m109.53,42.31c-.57-.61-.86-1.47-.86-2.59v-7.32c0-1.11.29-1.98.86-2.59s1.39-.92,2.47-.92,1.9.31,2.47.92c.57.61.86,1.47.86,2.59v7.32c0,1.11-.29,1.98-.86,2.59-.57.61-1.39.92-2.47.92s-1.9-.31-2.47-.92Zm3.6-2.45v-7.6c0-.92-.38-1.37-1.13-1.37s-1.13.46-1.13,1.37v7.6c0,.92.38,1.37,1.13,1.37s1.13-.46,1.13-1.37Z"/><path class="cls-6" d="m117.88,42.32c-.56-.6-.84-1.47-.84-2.6v-10.63h2.19v10.78c0,.48.1.82.29,1.03.19.21.47.32.83.32s.63-.11.83-.32c.19-.21.29-.56.29-1.03v-10.78h2.11v10.63c0,1.13-.28,1.99-.84,2.6-.56.6-1.37.91-2.43.91s-1.87-.3-2.43-.91Z"/><path class="cls-6" d="m127.36,31.08h-2.29v-1.99h6.77v1.99h-2.29v11.94h-2.19v-11.94Z"/><path class="cls-6" d="m36.09,59.48h4.36v1.5h-2.71v2.92h2.13v1.5h-2.13v4.58h-1.65v-10.5Z"/><path class="cls-6" d="m42.25,69.44c-.43-.46-.65-1.11-.65-1.95v-5.52c0-.84.21-1.49.65-1.95.43-.46,1.05-.69,1.86-.69s1.43.23,1.86.69.65,1.11.65,1.95v5.52c0,.84-.21,1.49-.65,1.95s-1.05.69-1.86.69-1.43-.23-1.86-.69Zm2.71-1.84v-5.73c0-.69-.29-1.03-.85-1.03s-.85.34-.85,1.03v5.73c0,.69.29,1.03.85,1.03s.85-.34.85-1.03Z"/><path class="cls-6" d="m48.48,69.44c-.41-.45-.61-1.11-.61-1.96v-.6h1.56v.72c0,.68.28,1.02.85,1.02.28,0,.49-.08.64-.25s.22-.43.22-.8c0-.44-.1-.83-.3-1.16s-.57-.74-1.11-1.21c-.68-.6-1.15-1.14-1.42-1.63-.27-.48-.41-1.03-.41-1.64,0-.83.21-1.47.63-1.93.42-.46,1.03-.68,1.83-.68s1.39.23,1.79.68c.41.46.61,1.11.61,1.96v.43h-1.56v-.54c0-.36-.07-.62-.21-.79-.14-.17-.35-.25-.62-.25-.55,0-.83.33-.83,1,0,.38.1.73.31,1.06s.58.73,1.12,1.2c.69.6,1.16,1.15,1.42,1.63.26.49.39,1.06.39,1.73,0,.86-.21,1.52-.64,1.98-.42.46-1.04.69-1.85.69s-1.4-.23-1.81-.68Z"/><path class="cls-6" d="m54.58,69.44c-.41-.45-.61-1.11-.61-1.96v-.6h1.56v.72c0,.68.28,1.02.85,1.02.28,0,.49-.08.64-.25s.22-.43.22-.8c0-.44-.1-.83-.3-1.16s-.57-.74-1.11-1.21c-.68-.6-1.15-1.14-1.42-1.63-.27-.48-.41-1.03-.41-1.64,0-.83.21-1.47.63-1.93.42-.46,1.03-.68,1.83-.68s1.39.23,1.79.68c.41.46.61,1.11.61,1.96v.43h-1.56v-.54c0-.36-.07-.62-.21-.79-.14-.17-.35-.25-.62-.25-.55,0-.83.33-.83,1,0,.38.1.73.31,1.06s.58.73,1.12,1.2c.69.6,1.16,1.15,1.42,1.63.26.49.39,1.06.39,1.73,0,.86-.21,1.52-.64,1.98-.42.46-1.04.69-1.85.69s-1.4-.23-1.81-.68Z"/><path class="cls-6" d="m60.2,59.48h1.65v10.5h-1.65v-10.5Z"/><path class="cls-6" d="m63.36,59.48h1.65v9h2.71v1.5h-4.36v-10.5Z"/><path class="cls-6" d="m71.64,59.48h4.36v1.5h-2.71v2.92h2.13v1.5h-2.13v4.58h-1.65v-10.5Z"/><path class="cls-6" d="m77.85,69.44c-.42-.45-.63-1.11-.63-1.96v-8.01h1.65v8.13c0,.36.07.62.22.78s.35.24.62.24.48-.08.62-.24.22-.42.22-.78v-8.13h1.59v8.01c0,.85-.21,1.5-.63,1.96-.42.46-1.03.68-1.83.68s-1.41-.23-1.83-.68Z"/><path class="cls-6" d="m83.61,59.48h4.5v1.5h-2.85v2.77h2.26v1.5h-2.26v3.23h2.85v1.5h-4.5v-10.5Z"/><path class="cls-6" d="m89.43,59.48h1.65v9h2.71v1.5h-4.36v-10.5Z"/><path class="cls-6" d="m98.04,69.44c-.41-.45-.61-1.11-.61-1.96v-.6h1.56v.72c0,.68.28,1.02.85,1.02.28,0,.49-.08.64-.25s.22-.43.22-.8c0-.44-.1-.83-.3-1.16s-.57-.74-1.11-1.21c-.68-.6-1.15-1.14-1.42-1.63-.27-.48-.41-1.03-.41-1.64,0-.83.21-1.47.63-1.93.42-.46,1.03-.68,1.83-.68s1.39.23,1.79.68c.41.46.61,1.11.61,1.96v.43h-1.56v-.54c0-.36-.07-.62-.21-.79-.14-.17-.35-.25-.62-.25-.55,0-.83.33-.83,1,0,.38.1.73.31,1.06s.58.73,1.12,1.2c.69.6,1.16,1.15,1.42,1.63.26.49.39,1.06.39,1.73,0,.86-.21,1.52-.64,1.98-.42.46-1.04.69-1.85.69s-1.4-.23-1.81-.68Z"/><path class="cls-6" d="m104.26,69.44c-.42-.45-.63-1.11-.63-1.96v-8.01h1.65v8.13c0,.36.07.62.22.78s.35.24.62.24.48-.08.62-.24.22-.42.22-.78v-8.13h1.59v8.01c0,.85-.21,1.5-.63,1.96-.42.46-1.03.68-1.83.68s-1.41-.23-1.83-.68Z"/><path class="cls-6" d="m110.02,59.48h2.49c.85,0,1.47.2,1.86.59.39.4.58,1,.58,1.82v.42c0,.54-.09.98-.26,1.32-.18.34-.44.59-.8.74v.03c.82.28,1.23,1.01,1.23,2.19v.9c0,.81-.21,1.43-.64,1.85s-1.05.64-1.87.64h-2.59v-10.5Zm2.29,4.27c.33,0,.58-.08.74-.25s.25-.46.25-.85v-.58c0-.38-.07-.65-.2-.83-.13-.17-.35-.25-.64-.25h-.79v2.77h.65Zm.3,4.73c.29,0,.5-.08.65-.23.14-.15.21-.42.21-.8v-.92c0-.48-.08-.81-.25-1s-.44-.28-.82-.28h-.73v3.23h.94Z"/><path class="cls-6" d="m116.91,69.44c-.41-.45-.61-1.11-.61-1.96v-.6h1.56v.72c0,.68.28,1.02.85,1.02.28,0,.49-.08.64-.25s.22-.43.22-.8c0-.44-.1-.83-.3-1.16s-.57-.74-1.11-1.21c-.68-.6-1.15-1.14-1.42-1.63-.27-.48-.41-1.03-.41-1.64,0-.83.21-1.47.63-1.93.42-.46,1.03-.68,1.83-.68s1.39.23,1.79.68c.41.46.61,1.11.61,1.96v.43h-1.56v-.54c0-.36-.07-.62-.21-.79-.14-.17-.35-.25-.62-.25-.55,0-.83.33-.83,1,0,.38.1.73.31,1.06s.58.73,1.12,1.2c.69.6,1.16,1.15,1.42,1.63.26.49.39,1.06.39,1.73,0,.86-.21,1.52-.64,1.98-.42.46-1.04.69-1.85.69s-1.4-.23-1.81-.68Z"/><path class="cls-6" d="m122.54,59.48h1.65v10.5h-1.65v-10.5Z"/><path class="cls-6" d="m125.69,59.48h2.52c.82,0,1.44.22,1.85.66s.62,1.08.62,1.94v5.31c0,.85-.21,1.5-.62,1.94-.41.44-1.02.66-1.85.66h-2.52v-10.5Zm2.49,9c.27,0,.48-.08.62-.24.15-.16.22-.42.22-.78v-5.46c0-.36-.07-.62-.22-.78-.15-.16-.35-.24-.62-.24h-.84v7.5h.84Z"/><path class="cls-6" d="m132.1,59.48h1.65v10.5h-1.65v-10.5Z"/><path class="cls-6" d="m135.26,59.48h4.5v1.5h-2.85v2.77h2.26v1.5h-2.26v3.23h2.85v1.5h-4.5v-10.5Z"/><path class="cls-6" d="m141.53,69.44c-.41-.45-.61-1.11-.61-1.96v-.6h1.56v.72c0,.68.28,1.02.85,1.02.28,0,.49-.08.64-.25s.22-.43.22-.8c0-.44-.1-.83-.3-1.16s-.57-.74-1.11-1.21c-.68-.6-1.15-1.14-1.42-1.63-.27-.48-.41-1.03-.41-1.64,0-.83.21-1.47.63-1.93.42-.46,1.03-.68,1.83-.68s1.39.23,1.79.68c.41.46.61,1.11.61,1.96v.43h-1.56v-.54c0-.36-.07-.62-.21-.79-.14-.17-.35-.25-.62-.25-.55,0-.83.33-.83,1,0,.38.1.73.31,1.06s.58.73,1.12,1.2c.69.6,1.16,1.15,1.42,1.63.26.49.39,1.06.39,1.73,0,.86-.21,1.52-.64,1.98-.42.46-1.04.69-1.85.69s-1.4-.23-1.81-.68Z"/><path class="cls-6" d="m36.09,80.48h2.44c.85,0,1.47.2,1.86.59.39.4.58,1,.58,1.82v.65c0,1.09-.36,1.78-1.08,2.07v.03c.4.12.68.37.85.73.17.37.25.87.25,1.48v1.85c0,.3,0,.54.03.73s.07.37.15.55h-1.68c-.06-.17-.1-.33-.12-.48s-.03-.42-.03-.81v-1.92c0-.48-.08-.81-.23-1-.16-.19-.42-.29-.8-.29h-.57v4.5h-1.65v-10.5Zm2.25,4.5c.33,0,.58-.08.74-.25s.25-.46.25-.85v-.81c0-.38-.07-.65-.2-.83-.13-.17-.35-.25-.64-.25h-.75v3h.6Z"/><path class="cls-6" d="m42.5,80.48h4.5v1.5h-2.85v2.77h2.26v1.5h-2.26v3.23h2.85v1.5h-4.5v-10.5Z"/><path class="cls-6" d="m49.83,81.98h-1.72v-1.5h5.1v1.5h-1.72v9h-1.65v-9Z"/><path class="cls-6" d="m55.05,90.44c-.42-.45-.63-1.11-.63-1.96v-8.01h1.65v8.13c0,.36.07.62.22.78s.35.24.62.24.48-.08.62-.24.22-.42.22-.78v-8.13h1.59v8.01c0,.85-.21,1.5-.63,1.96-.42.46-1.03.68-1.83.68s-1.41-.23-1.83-.68Z"/><path class="cls-6" d="m60.81,80.48h2.44c.85,0,1.47.2,1.86.59.39.4.58,1,.58,1.82v.65c0,1.09-.36,1.78-1.08,2.07v.03c.4.12.68.37.85.73.17.37.25.87.25,1.48v1.85c0,.3,0,.54.03.73s.07.37.15.55h-1.68c-.06-.17-.1-.33-.12-.48s-.03-.42-.03-.81v-1.92c0-.48-.08-.81-.23-1-.16-.19-.42-.29-.8-.29h-.57v4.5h-1.65v-10.5Zm2.25,4.5c.33,0,.58-.08.74-.25s.25-.46.25-.85v-.81c0-.38-.07-.65-.2-.83-.13-.17-.35-.25-.64-.25h-.75v3h.6Z"/><path class="cls-6" d="m67.22,80.48h2.07l1.6,6.29h.03v-6.29h1.47v10.5h-1.69l-1.98-7.67h-.03v7.67h-1.47v-10.5Z"/><path class="cls-6" d="m78.02,80.48h2.23l1.71,10.5h-1.65l-.3-2.08v.03h-1.88l-.3,2.06h-1.53l1.71-10.5Zm1.8,7.02l-.73-5.19h-.03l-.72,5.19h1.48Z"/><path class="cls-6" d="m83.21,80.48h2.07l1.6,6.29h.03v-6.29h1.47v10.5h-1.69l-1.98-7.67h-.03v7.67h-1.47v-10.5Z"/><path class="cls-6" d="m89.89,80.48h2.52c.82,0,1.44.22,1.85.66s.62,1.08.62,1.94v5.31c0,.85-.21,1.5-.62,1.94-.41.44-1.02.66-1.85.66h-2.52v-10.5Zm2.49,9c.27,0,.48-.08.62-.24.15-.16.22-.42.22-.78v-5.46c0-.36-.07-.62-.22-.78-.15-.16-.35-.24-.62-.24h-.84v7.5h.84Z"/><path class="cls-6" d="m99.1,80.48h2.07l1.6,6.29h.03v-6.29h1.47v10.5h-1.69l-1.98-7.67h-.03v7.67h-1.47v-10.5Z"/><path class="cls-6" d="m105.78,80.48h4.5v1.5h-2.85v2.77h2.26v1.5h-2.26v3.23h2.85v1.5h-4.5v-10.5Z"/><path class="cls-6" d="m113.09,80.48h2.23l1.71,10.5h-1.65l-.3-2.08v.03h-1.88l-.3,2.06h-1.53l1.71-10.5Zm1.8,7.02l-.73-5.19h-.03l-.72,5.19h1.48Z"/><path class="cls-6" d="m118.28,80.48h2.44c.85,0,1.47.2,1.86.59.39.4.58,1,.58,1.82v.65c0,1.09-.36,1.78-1.08,2.07v.03c.4.12.68.37.85.73.17.37.25.87.25,1.48v1.85c0,.3,0,.54.03.73s.07.37.15.55h-1.68c-.06-.17-.1-.33-.12-.48s-.03-.42-.03-.81v-1.92c0-.48-.08-.81-.23-1-.16-.19-.42-.29-.8-.29h-.57v4.5h-1.65v-10.5Zm2.25,4.5c.33,0,.58-.08.74-.25s.25-.46.25-.85v-.81c0-.38-.07-.65-.2-.83-.13-.17-.35-.25-.64-.25h-.75v3h.6Z"/><path class="cls-6" d="m124.69,80.48h1.65v9h2.71v1.5h-4.36v-10.5Z"/><path class="cls-6" d="m131.06,86.51l-2-6.03h1.76l1.12,3.85h.03l1.12-3.85h1.6l-2,6.03v4.47h-1.65v-4.47Z"/><path class="cls-6" d="m36.09,101.48h2.52c.82,0,1.44.22,1.85.66s.62,1.08.62,1.94v5.31c0,.85-.21,1.5-.62,1.94-.41.44-1.02.66-1.85.66h-2.52v-10.5Zm2.49,9c.27,0,.48-.08.62-.24.15-.16.22-.42.22-.78v-5.46c0-.36-.07-.62-.22-.78-.15-.16-.35-.24-.62-.24h-.84v7.5h.84Z"/><path class="cls-6" d="m43.06,111.44c-.43-.46-.65-1.11-.65-1.95v-5.52c0-.84.21-1.49.65-1.95.43-.46,1.05-.69,1.86-.69s1.43.23,1.86.69.65,1.11.65,1.95v5.52c0,.84-.21,1.49-.65,1.95s-1.05.69-1.86.69-1.43-.23-1.86-.69Zm2.71-1.84v-5.73c0-.69-.29-1.03-.85-1.03s-.85.34-.85,1.03v5.73c0,.69.29,1.03.85,1.03s.85-.34.85-1.03Z"/><path class="cls-6" d="m49.44,111.44c-.42-.45-.63-1.11-.63-1.96v-8.01h1.65v8.13c0,.36.07.62.22.78s.35.24.62.24.48-.08.62-.24.22-.42.22-.78v-8.13h1.59v8.01c0,.85-.21,1.5-.63,1.96-.42.46-1.03.68-1.83.68s-1.41-.23-1.83-.68Z"/><path class="cls-6" d="m55.2,101.48h2.49c.85,0,1.47.2,1.86.59.39.4.58,1,.58,1.82v.42c0,.54-.09.98-.26,1.32-.18.34-.44.59-.8.74v.03c.82.28,1.23,1.01,1.23,2.19v.9c0,.81-.21,1.43-.64,1.85s-1.05.64-1.87.64h-2.59v-10.5Zm2.29,4.27c.33,0,.58-.08.74-.25s.25-.46.25-.85v-.58c0-.38-.07-.65-.2-.83-.13-.17-.35-.25-.64-.25h-.79v2.77h.65Zm.3,4.73c.29,0,.5-.08.65-.23.14-.15.21-.42.21-.8v-.92c0-.48-.08-.81-.25-1s-.44-.28-.82-.28h-.73v3.23h.94Z"/><path class="cls-6" d="m61.62,101.48h1.65v9h2.71v1.5h-4.36v-10.5Z"/><path class="cls-6" d="m67.23,101.48h4.5v1.5h-2.85v2.77h2.26v1.5h-2.26v3.23h2.85v1.5h-4.5v-10.5Z"/><path class="cls-6" d="m73.05,101.48h2.52c.82,0,1.44.22,1.85.66s.62,1.08.62,1.94v5.31c0,.85-.21,1.5-.62,1.94-.41.44-1.02.66-1.85.66h-2.52v-10.5Zm2.49,9c.27,0,.48-.08.62-.24.15-.16.22-.42.22-.78v-5.46c0-.36-.07-.62-.22-.78-.15-.16-.35-.24-.62-.24h-.84v7.5h.84Z"/><path class="cls-6" d="m79.93,111.98h-.54v-1.59h1.59v1.42l-.83,1.96h-.76l.54-1.8Z"/><path class="cls-6" d="m86.62,102.98h-1.72v-1.5h5.1v1.5h-1.72v9h-1.65v-9Z"/><path class="cls-6" d="m91.24,101.48h2.44c.85,0,1.47.2,1.86.59.39.4.58,1,.58,1.82v.65c0,1.09-.36,1.78-1.08,2.07v.03c.4.12.68.37.85.73.17.37.25.87.25,1.48v1.85c0,.3,0,.54.03.73s.07.37.15.55h-1.68c-.06-.17-.1-.33-.12-.48s-.03-.42-.03-.81v-1.92c0-.48-.08-.81-.23-1-.16-.19-.42-.29-.8-.29h-.57v4.5h-1.65v-10.5Zm2.25,4.5c.33,0,.58-.08.74-.25s.25-.46.25-.85v-.81c0-.38-.07-.65-.2-.83-.13-.17-.35-.25-.64-.25h-.75v3h.6Z"/><path class="cls-6" d="m97.65,101.48h1.65v10.5h-1.65v-10.5Z"/><path class="cls-6" d="m101.37,111.44c-.42-.45-.63-1.11-.63-1.96v-5.52c0-.85.21-1.5.63-1.96s1.03-.68,1.83-.68,1.41.23,1.83.68.63,1.11.63,1.96v.9h-1.56v-1.01c0-.69-.29-1.03-.85-1.03s-.85.34-.85,1.03v5.75c0,.68.29,1.02.85,1.02s.85-.34.85-1.02v-2.05h-.83v-1.5h2.39v3.43c0,.85-.21,1.5-.63,1.96-.42.46-1.03.68-1.83.68s-1.41-.23-1.83-.68Z"/><path class="cls-6" d="m107.61,111.44c-.42-.45-.63-1.11-.63-1.96v-5.52c0-.85.21-1.5.63-1.96s1.03-.68,1.83-.68,1.41.23,1.83.68.63,1.11.63,1.96v.9h-1.56v-1.01c0-.69-.29-1.03-.85-1.03s-.85.34-.85,1.03v5.75c0,.68.29,1.02.85,1.02s.85-.34.85-1.02v-2.05h-.83v-1.5h2.39v3.43c0,.85-.21,1.5-.63,1.96-.42.46-1.03.68-1.83.68s-1.41-.23-1.83-.68Z"/><path class="cls-6" d="m113.29,101.48h4.5v1.5h-2.85v2.77h2.26v1.5h-2.26v3.23h2.85v1.5h-4.5v-10.5Z"/><path class="cls-6" d="m119.11,101.48h2.44c.85,0,1.47.2,1.86.59.39.4.58,1,.58,1.82v.65c0,1.09-.36,1.78-1.08,2.07v.03c.4.12.68.37.85.73.17.37.25.87.25,1.48v1.85c0,.3,0,.54.03.73s.07.37.15.55h-1.68c-.06-.17-.1-.33-.12-.48s-.03-.42-.03-.81v-1.92c0-.48-.08-.81-.23-1-.16-.19-.42-.29-.8-.29h-.57v4.5h-1.65v-10.5Zm2.25,4.5c.33,0,.58-.08.74-.25s.25-.46.25-.85v-.81c0-.38-.07-.65-.2-.83-.13-.17-.35-.25-.64-.25h-.75v3h.6Z"/><path class="cls-6" d="m125.53,101.48h4.5v1.5h-2.85v2.77h2.26v1.5h-2.26v3.23h2.85v1.5h-4.5v-10.5Z"/><path class="cls-6" d="m131.35,101.48h2.52c.82,0,1.44.22,1.85.66s.62,1.08.62,1.94v5.31c0,.85-.21,1.5-.62,1.94-.41.44-1.02.66-1.85.66h-2.52v-10.5Zm2.49,9c.27,0,.48-.08.62-.24.15-.16.22-.42.22-.78v-5.46c0-.36-.07-.62-.22-.78-.15-.16-.35-.24-.62-.24h-.84v7.5h.84Z"/><path class="cls-6" d="m36.09,122.48h2.49c.85,0,1.47.2,1.86.59.39.4.58,1,.58,1.82v.42c0,.54-.09.98-.26,1.32-.18.34-.44.59-.8.74v.03c.82.28,1.23,1.01,1.23,2.19v.9c0,.81-.21,1.43-.64,1.85s-1.05.64-1.87.64h-2.59v-10.5Zm2.29,4.27c.33,0,.58-.08.74-.25s.25-.46.25-.85v-.58c0-.38-.07-.65-.2-.83-.13-.17-.35-.25-.64-.25h-.79v2.77h.65Zm.3,4.73c.29,0,.5-.08.65-.23.14-.15.21-.42.21-.8v-.92c0-.48-.08-.81-.25-1s-.44-.28-.82-.28h-.73v3.23h.94Z"/><path class="cls-6" d="m43.94,128.51l-2-6.03h1.76l1.12,3.85h.03l1.12-3.85h1.6l-2,6.03v4.47h-1.65v-4.47Z"/><path class="cls-5" d="m52.74,132.34c-.5-.55-.76-1.33-.76-2.35v-6.62c0-1.02.25-1.8.76-2.35s1.24-.82,2.2-.82,1.69.27,2.2.82c.5.55.76,1.33.76,2.35v1.08h-1.87v-1.21c0-.83-.34-1.24-1.03-1.24s-1.03.41-1.03,1.24v6.89c0,.82.34,1.22,1.03,1.22s1.03-.41,1.03-1.22v-2.47h-.99v-1.8h2.86v4.12c0,1.02-.25,1.8-.76,2.35-.5.55-1.24.82-2.2.82s-1.69-.27-2.2-.82Z"/><path class="cls-5" d="m59.55,120.38h1.98v10.8h3.26v1.8h-5.24v-12.6Z"/><path class="cls-5" d="m66.94,132.33c-.52-.55-.77-1.33-.77-2.34v-6.62c0-1.01.26-1.79.77-2.34.52-.55,1.26-.83,2.23-.83s1.72.28,2.23.83c.52.55.77,1.33.77,2.34v6.62c0,1.01-.26,1.79-.77,2.34-.52.55-1.26.83-2.23.83s-1.72-.28-2.23-.83Zm3.26-2.21v-6.88c0-.83-.34-1.24-1.03-1.24s-1.03.41-1.03,1.24v6.88c0,.83.34,1.24,1.03,1.24s1.03-.41,1.03-1.24Z"/><path class="cls-5" d="m73.87,120.38h2.99c1.02,0,1.76.24,2.23.71.47.47.7,1.2.7,2.19v.5c0,.65-.11,1.18-.31,1.58-.21.41-.53.7-.96.88v.04c.98.34,1.48,1.21,1.48,2.63v1.08c0,.97-.25,1.71-.77,2.22-.51.51-1.26.77-2.24.77h-3.11v-12.6Zm2.75,5.13c.4,0,.69-.1.89-.31.2-.2.3-.55.3-1.03v-.7c0-.46-.08-.79-.24-.99-.16-.2-.42-.31-.77-.31h-.95v3.33h.77Zm.36,5.67c.35,0,.61-.09.77-.28.17-.19.25-.51.25-.96v-1.1c0-.58-.1-.97-.3-1.2-.2-.22-.53-.33-.98-.33h-.88v3.87h1.13Z"/><path class="cls-5" d="m83.19,120.38h2.68l2.05,12.6h-1.98l-.36-2.5v.04h-2.25l-.36,2.47h-1.84l2.05-12.6Zm2.16,8.42l-.88-6.23h-.04l-.86,6.23h1.78Z"/><path class="cls-5" d="m89.4,120.38h1.98v10.8h3.26v1.8h-5.24v-12.6Z"/><path class="cls-5" d="m99.96,132.35c-.5-.54-.75-1.3-.75-2.29v-6.77c0-.98.25-1.75.75-2.29.5-.54,1.22-.81,2.17-.81s1.67.27,2.17.81c.5.54.75,1.3.75,2.29v1.33h-1.87v-1.46c0-.78-.33-1.17-.99-1.17s-.99.39-.99,1.17v7.04c0,.77.33,1.15.99,1.15s.99-.38.99-1.15v-1.93h1.87v1.78c0,.98-.25,1.75-.75,2.29s-1.22.81-2.17.81-1.67-.27-2.17-.81Z"/><path class="cls-5" d="m106.63,120.38h2.93c1.02,0,1.76.24,2.23.71.47.47.7,1.2.7,2.19v.77c0,1.31-.43,2.14-1.3,2.48v.04c.48.14.82.44,1.02.88.2.44.3,1.04.3,1.78v2.21c0,.36.01.65.04.87.02.22.08.44.18.66h-2.02c-.07-.2-.12-.4-.14-.58-.02-.18-.04-.5-.04-.97v-2.3c0-.58-.09-.98-.28-1.21-.19-.23-.51-.34-.96-.34h-.68v5.4h-1.98v-12.6Zm2.7,5.4c.4,0,.69-.1.89-.31.2-.2.3-.55.3-1.03v-.97c0-.46-.08-.79-.24-.99-.16-.2-.42-.31-.76-.31h-.9v3.6h.72Z"/><path class="cls-5" d="m114.31,120.38h1.98v12.6h-1.98v-12.6Z"/><path class="cls-5" d="m118.6,132.34c-.49-.55-.74-1.33-.74-2.35v-.72h1.87v.86c0,.82.34,1.22,1.03,1.22.34,0,.59-.1.77-.3.17-.2.26-.52.26-.96,0-.53-.12-.99-.36-1.4-.24-.4-.68-.88-1.33-1.45-.82-.72-1.39-1.37-1.71-1.95-.32-.58-.49-1.24-.49-1.97,0-1,.25-1.77.76-2.31s1.24-.82,2.2-.82,1.67.27,2.15.82c.49.55.73,1.33.73,2.35v.52h-1.87v-.65c0-.43-.08-.75-.25-.95-.17-.2-.41-.3-.74-.3-.66,0-.99.4-.99,1.21,0,.46.12.88.37,1.28s.69.88,1.34,1.44c.83.72,1.4,1.37,1.71,1.96.31.59.47,1.28.47,2.07,0,1.03-.25,1.82-.76,2.38-.51.55-1.25.83-2.22.83s-1.69-.27-2.18-.82Z"/><path class="cls-5" d="m125.33,120.38h5.4v1.8h-3.42v3.33h2.72v1.8h-2.72v3.87h3.42v1.8h-5.4v-12.6Z"/><path class="cls-5" d="m132.85,132.34c-.49-.55-.74-1.33-.74-2.35v-.72h1.87v.86c0,.82.34,1.22,1.03,1.22.34,0,.59-.1.77-.3.17-.2.26-.52.26-.96,0-.53-.12-.99-.36-1.4-.24-.4-.68-.88-1.33-1.45-.82-.72-1.39-1.37-1.71-1.95-.32-.58-.49-1.24-.49-1.97,0-1,.25-1.77.76-2.31s1.24-.82,2.2-.82,1.67.27,2.15.82c.49.55.73,1.33.73,2.35v.52h-1.87v-.65c0-.43-.08-.75-.25-.95-.17-.2-.41-.3-.74-.3-.66,0-.99.4-.99,1.21,0,.46.12.88.37,1.28s.69.88,1.34,1.44c.83.72,1.4,1.37,1.71,1.96.31.59.47,1.28.47,2.07,0,1.03-.25,1.82-.76,2.38-.51.55-1.25.83-2.22.83s-1.69-.27-2.18-.82Z"/><line class="cls-7" x1="152.75" y1="20.78" x2="28.76" y2="20.78"/><polyline class="cls-8" points="151.66 65.21 161.41 65.21 161.41 36.89 152.77 36.89"/><path class="cls-3" d="m151.75,67.09c-1.04,0-1.88-.84-1.88-1.88s.84-1.88,1.88-1.88,1.88.84,1.88,1.88-.84,1.88-1.88,1.88Z"/><rect class="cls-1" x="56.94" y="240.51" width="46.45" height="13.86"/><path class="cls-4" d="m73.04,249.67c0-.45.07-.84.22-1.16.14-.32.4-.68.77-1.07.37-.39.62-.72.76-1,.14-.28.21-.56.21-.86,0-.27-.04-.46-.13-.56-.09-.11-.21-.16-.38-.16-.34,0-.51.21-.51.62v.67h-.94v-.61c0-.51.13-.9.38-1.17s.62-.41,1.1-.41.85.14,1.1.41.38.67.38,1.17c0,.38-.09.76-.27,1.12-.18.37-.5.79-.95,1.26-.29.31-.49.57-.59.76-.1.19-.15.4-.15.62v.13h1.88v.9h-2.86v-.68Z"/><path class="cls-4" d="m77.17,250.03c-.26-.28-.39-.67-.39-1.17v-3.31c0-.5.13-.89.39-1.17.26-.28.63-.41,1.12-.41s.86.14,1.12.41c.26.28.39.67.39,1.17v3.31c0,.5-.13.89-.39,1.17-.26.28-.63.41-1.12.41s-.86-.14-1.12-.41Zm1.63-1.11v-3.44c0-.41-.17-.62-.51-.62s-.51.21-.51.62v3.44c0,.41.17.62.51.62s.51-.21.51-.62Z"/><path class="cls-4" d="m80.61,249.67c0-.45.07-.84.22-1.16.14-.32.4-.68.77-1.07.37-.39.62-.72.76-1,.14-.28.21-.56.21-.86,0-.27-.04-.46-.13-.56-.09-.11-.21-.16-.38-.16-.34,0-.51.21-.51.62v.67h-.94v-.61c0-.51.13-.9.38-1.17s.62-.41,1.1-.41.85.14,1.1.41.38.67.38,1.17c0,.38-.09.76-.27,1.12-.18.37-.5.79-.95,1.26-.29.31-.49.57-.59.76-.1.19-.15.4-.15.62v.13h1.88v.9h-2.86v-.68Z"/><path class="cls-4" d="m84.74,250.03c-.26-.28-.39-.67-.39-1.17v-3.31c0-.5.13-.89.39-1.17.26-.28.63-.41,1.12-.41s.86.14,1.12.41c.26.28.39.67.39,1.17v3.31c0,.5-.13.89-.39,1.17-.26.28-.63.41-1.12.41s-.86-.14-1.12-.41Zm1.63-1.11v-3.44c0-.41-.17-.62-.51-.62s-.51.21-.51.62v3.44c0,.41.17.62.51.62s.51-.21.51-.62Z"/><rect class="cls-4" x="57.19" y="197.52" width="46.05" height="42.94"/><path class="cls-4" d="m71.19,197.39c-.54-.11-.95-.37-1.24-.77-.28-.4-.43-.91-.43-1.54v-.64h1.46v.74c0,.57.27.85.8.85s.8-.29.8-.88c0-.36-.09-.69-.28-.99-.19-.29-.53-.64-1.04-1.03-.63-.5-1.06-.96-1.32-1.39-.25-.43-.38-.91-.38-1.46,0-.61.14-1.11.41-1.5.28-.39.68-.65,1.21-.77v-.85h1.26v.85c.54.11.95.37,1.23.76.28.4.42.91.42,1.53v.28h-1.46v-.38c0-.58-.26-.87-.77-.87s-.77.28-.77.84c0,.34.09.65.28.93.19.29.53.63,1.04,1.03.62.5,1.06.97,1.32,1.41.25.43.38.93.38,1.49,0,.63-.14,1.15-.43,1.56-.29.41-.7.67-1.24.78v.98h-1.26v-.98Z"/><path class="cls-4" d="m75.66,197.11c-.39-.42-.58-1.02-.58-1.81v-.8h1.46v.87c0,.64.27.97.8.97.26,0,.46-.08.59-.25.14-.16.2-.45.2-.86v-.8c0-.45-.08-.77-.24-.96-.16-.19-.42-.29-.77-.29h-.52v-1.4h.56c.31,0,.54-.08.69-.24.15-.16.23-.42.23-.8v-.71c0-.34-.07-.58-.21-.74-.14-.16-.33-.24-.56-.24-.5,0-.74.3-.74.91v.64h-1.46v-.52c0-.78.19-1.39.58-1.81s.95-.63,1.67-.63,1.3.21,1.68.62c.38.42.57,1.02.57,1.8v.35c0,.53-.09.96-.27,1.28-.18.32-.45.55-.83.69v.03c.4.15.69.39.87.73.18.34.27.77.27,1.29v.87c0,.78-.19,1.38-.58,1.8-.39.42-.96.62-1.71.62s-1.33-.21-1.71-.63Z"/><path class="cls-4" d="m83.8,189.2h-3.11v-1.4h4.62v1.34l-2.41,8.46h-1.57l2.46-8.4Z"/><path class="cls-4" d="m86.94,197.1c-.39-.42-.59-1.03-.59-1.83v-.77h1.46v.88c0,.63.27.95.8.95s.8-.32.8-.95v-2.2c0-.64-.27-.97-.8-.97s-.8.32-.8.97v.08h-1.46l.28-5.47h4.06v1.4h-2.69l-.13,2.34h.03c.29-.48.73-.71,1.33-.71.56,0,.98.19,1.27.57.29.38.43.94.43,1.67v2.21c0,.79-.2,1.4-.59,1.83-.39.42-.96.64-1.71.64s-1.32-.21-1.71-.64Z"/><path class="cls-1" d="m66.89,204.58h1.99c.68,0,1.18.16,1.49.47.31.32.47.8.47,1.46v.34c0,.43-.07.78-.21,1.06-.14.27-.35.47-.64.59v.02c.66.22.98.81.98,1.75v.72c0,.65-.17,1.14-.51,1.48s-.84.51-1.49.51h-2.08v-8.4Zm1.84,3.42c.26,0,.46-.07.59-.2.13-.14.2-.36.2-.68v-.47c0-.3-.05-.52-.16-.66s-.28-.2-.51-.2h-.64v2.22h.52Zm.24,3.78c.23,0,.4-.06.52-.19.11-.12.17-.34.17-.64v-.73c0-.38-.07-.65-.2-.8-.13-.15-.35-.22-.65-.22h-.59v2.58h.76Z"/><path class="cls-1" d="m71.74,204.58h1.32v8.4h-1.32v-8.4Z"/><path class="cls-1" d="m74.04,204.58h1.32v7.2h2.17v1.2h-3.49v-8.4Z"/><path class="cls-1" d="m78.17,204.58h1.32v7.2h2.17v1.2h-3.49v-8.4Z"/><path class="cls-1" d="m82.3,204.58h1.32v8.4h-1.32v-8.4Z"/><path class="cls-1" d="m85.02,212.55c-.34-.37-.52-.89-.52-1.56v-4.42c0-.67.17-1.19.52-1.56.34-.37.84-.55,1.49-.55s1.14.18,1.49.55c.34.37.52.89.52,1.56v4.42c0,.67-.17,1.19-.52,1.56-.34.37-.84.55-1.49.55s-1.14-.18-1.49-.55Zm2.17-1.48v-4.58c0-.55-.23-.83-.68-.83s-.68.28-.68.83v4.58c0,.55.23.83.68.83s.68-.28.68-.83Z"/><path class="cls-1" d="m89.4,204.58h1.66l1.28,5.03h.02v-5.03h1.18v8.4h-1.36l-1.58-6.13h-.02v6.13h-1.18v-8.4Z"/><rect class="cls-1" x="115.14" y="240.51" width="46.27" height="13.86"/><path class="cls-6" d="m131.09,249.67c0-.45.07-.84.22-1.16.14-.32.4-.68.77-1.07.37-.39.62-.72.76-1,.14-.28.21-.56.21-.86,0-.27-.04-.46-.13-.56-.09-.11-.21-.16-.38-.16-.34,0-.51.21-.51.62v.67h-.94v-.61c0-.51.13-.9.38-1.17s.62-.41,1.1-.41.85.14,1.1.41.38.67.38,1.17c0,.38-.09.76-.27,1.12-.18.37-.5.79-.95,1.26-.29.31-.49.57-.59.76-.1.19-.15.4-.15.62v.13h1.88v.9h-2.86v-.68Z"/><path class="cls-6" d="m135.22,250.03c-.26-.28-.39-.67-.39-1.17v-3.31c0-.5.13-.89.39-1.17.26-.28.63-.41,1.12-.41s.86.14,1.12.41c.26.28.39.67.39,1.17v3.31c0,.5-.13.89-.39,1.17-.26.28-.63.41-1.12.41s-.86-.14-1.12-.41Zm1.63-1.11v-3.44c0-.41-.17-.62-.51-.62s-.51.21-.51.62v3.44c0,.41.17.62.51.62s.51-.21.51-.62Z"/><path class="cls-6" d="m138.66,249.67c0-.45.07-.84.22-1.16.14-.32.4-.68.77-1.07.37-.39.62-.72.76-1,.14-.28.21-.56.21-.86,0-.27-.04-.46-.13-.56-.09-.11-.21-.16-.38-.16-.34,0-.51.21-.51.62v.67h-.94v-.61c0-.51.13-.9.38-1.17s.62-.41,1.1-.41.85.14,1.1.41.38.67.38,1.17c0,.38-.09.76-.27,1.12-.18.37-.5.79-.95,1.26-.29.31-.49.57-.59.76-.1.19-.15.4-.15.62v.13h1.88v.9h-2.86v-.68Z"/><path class="cls-6" d="m143.66,245.55h-1.03v-.7c.28,0,.51-.02.68-.07s.31-.13.41-.24.19-.27.27-.48h.67v6.3h-.99v-4.81Z"/><rect class="cls-6" x="115.14" y="156.64" width="46.05" height="83.83"/><path class="cls-6" d="m129.13,156.37c-.54-.11-.95-.37-1.24-.77-.28-.4-.43-.92-.43-1.54v-.64h1.46v.74c0,.57.27.85.8.85s.8-.29.8-.88c0-.36-.09-.69-.28-.99-.19-.29-.53-.64-1.04-1.03-.63-.49-1.06-.96-1.32-1.39s-.38-.92-.38-1.46c0-.61.14-1.11.41-1.5.28-.39.68-.65,1.21-.77v-.85h1.26v.85c.54.11.95.37,1.23.76s.42.91.42,1.53v.28h-1.46v-.38c0-.58-.26-.87-.77-.87s-.77.28-.77.84c0,.34.09.65.28.93.19.28.53.63,1.04,1.03.62.5,1.06.97,1.32,1.41.25.43.38.93.38,1.49,0,.63-.14,1.16-.43,1.56-.29.41-.7.67-1.24.78v.98h-1.26v-.98Z"/><path class="cls-6" d="m136.15,148.18h-3.11v-1.4h4.62v1.34l-2.41,8.46h-1.57l2.46-8.4Z"/><path class="cls-6" d="m139.21,156.09c-.39-.42-.58-1.02-.58-1.81v-.8h1.46v.87c0,.64.27.97.8.97.26,0,.46-.08.59-.25.14-.16.2-.45.2-.86v-.8c0-.45-.08-.77-.24-.96-.16-.19-.42-.29-.77-.29h-.52v-1.4h.56c.31,0,.54-.08.69-.24.15-.16.23-.42.23-.8v-.71c0-.34-.07-.58-.21-.74-.14-.16-.33-.24-.56-.24-.5,0-.74.3-.74.91v.64h-1.46v-.52c0-.78.19-1.39.58-1.81s.95-.63,1.67-.63,1.3.21,1.68.62c.38.42.57,1.01.57,1.8v.35c0,.53-.09.96-.27,1.28-.18.32-.45.55-.83.69v.03c.4.15.69.39.87.73.18.34.27.77.27,1.29v.87c0,.78-.19,1.38-.58,1.8-.39.42-.96.62-1.71.62s-1.33-.21-1.71-.63Z"/><path class="cls-6" d="m144.31,155.52c0-.7.11-1.3.34-1.8.22-.5.62-1.05,1.2-1.66.57-.61.96-1.12,1.18-1.55.22-.43.33-.88.33-1.34,0-.42-.07-.71-.2-.88-.13-.16-.33-.25-.59-.25-.53,0-.8.32-.8.97v1.05h-1.46v-.95c0-.79.2-1.4.59-1.83.39-.42.96-.64,1.71-.64s1.32.21,1.71.64c.39.42.59,1.03.59,1.83,0,.6-.14,1.18-.43,1.75-.29.57-.78,1.22-1.48,1.96-.46.49-.77.88-.92,1.18-.16.3-.24.63-.24.97v.21h2.93v1.4h-4.45v-1.06Z"/><path class="cls-1" d="m124.84,163.57h1.99c.68,0,1.18.16,1.49.47.31.32.47.8.47,1.46v.34c0,.43-.07.78-.21,1.06-.14.27-.35.47-.64.59v.02c.66.22.98.81.98,1.75v.72c0,.65-.17,1.14-.51,1.48-.34.34-.84.51-1.49.51h-2.08v-8.4Zm1.84,3.42c.26,0,.46-.07.59-.2s.2-.36.2-.68v-.47c0-.3-.05-.52-.16-.66-.11-.14-.28-.2-.51-.2h-.64v2.22h.52Zm.24,3.78c.23,0,.4-.06.52-.19s.17-.34.17-.64v-.73c0-.38-.07-.65-.2-.8s-.35-.22-.65-.22h-.59v2.58h.76Z"/><path class="cls-1" d="m129.68,163.57h1.32v8.4h-1.32v-8.4Z"/><path class="cls-1" d="m131.99,163.57h1.32v7.2h2.17v1.2h-3.49v-8.4Z"/><path class="cls-1" d="m136.12,163.57h1.32v7.2h2.17v1.2h-3.49v-8.4Z"/><path class="cls-1" d="m140.25,163.57h1.32v8.4h-1.32v-8.4Z"/><path class="cls-1" d="m142.97,171.54c-.34-.37-.52-.89-.52-1.56v-4.42c0-.67.17-1.19.52-1.56s.84-.55,1.49-.55,1.14.18,1.49.55.52.89.52,1.56v4.42c0,.67-.17,1.19-.52,1.56s-.84.55-1.49.55-1.14-.18-1.49-.55Zm2.17-1.48v-4.58c0-.55-.23-.83-.68-.83s-.68.28-.68.83v4.58c0,.55.23.83.68.83s.68-.28.68-.83Z"/><path class="cls-1" d="m147.35,163.57h1.66l1.28,5.03h.02v-5.03h1.18v8.4h-1.36l-1.58-6.13h-.02v6.13h-1.18v-8.4Z"/><polyline class="cls-8" points="28.84 131.49 20.71 131.49 20.71 106.53 30.62 106.53"/><circle class="cls-3" cx="28.74" cy="131.49" r="1.88"/></g></svg>