<?xml version="1.0" encoding="UTF-8"?>
<svg id="Layer_2" data-name="Layer 2" xmlns="http://www.w3.org/2000/svg" viewBox="0 0 469.96 61.2">
  <defs>
    <style>
      .cls-1 {
        fill: #fff;
      }

      .cls-2 {
        fill: #bdd2e9;
      }

      .cls-3 {
        fill: #99aa89;
      }

      .cls-4 {
        fill: #939598;
      }

      .cls-5 {
        fill: #ef412a;
      }

      .cls-6 {
        stroke-dasharray: 0 0 0 2.91;
      }

      .cls-6, .cls-7 {
        fill: none;
        stroke: #939598;
        stroke-linecap: round;
        stroke-linejoin: round;
        stroke-width: 1.75px;
      }

      .cls-8 {
        fill: #777677;
      }

      .cls-9 {
        fill: #48773c;
      }

      .cls-10 {
        fill: #c7d1bd;
      }
    </style>
  </defs>
  <g id="Layer_2-2" data-name="Layer 2">
    <g>
      <g>
        <g>
          <path class="cls-3" d="M296.69,37.56c-.49-1.54-1.28-1.54-1.77,0l-3.03,9.57c-.49,1.53,.33,2.79,1.8,2.79h1.61v4.07h.98v-4.07h1.61c1.48,0,2.29-1.26,1.8-2.79l-3.02-9.57Z"/>
          <path class="cls-9" d="M302.17,47.13c-.48,1.53,.33,2.79,1.8,2.79h1.61v4.07h.98v-4.07h1.61c1.48,0,2.29-1.26,1.8-2.79l-.81-2.56c-1.71-.79-3.25-1.79-5.07-3.59l-1.95,6.15Z"/>
          <path class="cls-3" d="M312.86,45.82l-.42,1.31c-.49,1.53,.33,2.79,1.8,2.79h1.62v4.07h.98v-4.07h1.6c1.48,0,2.29-1.26,1.8-2.79l-.43-1.36c-.29,.06-.58,.11-.88,.15-2.19,.32-4.2,.28-6.09-.1h0Z"/>
          <path class="cls-9" d="M327.12,53.99v-4.07h1.61c1.48,0,2.29-1.26,1.81-2.79l-1.93-6.11c-1.47,1.5-3.18,2.7-5.08,3.56l-.81,2.55c-.49,1.53,.33,2.79,1.8,2.79h1.62v4.07"/>
          <path class="cls-3" d="M337.8,37.56c-.49-1.54-1.28-1.54-1.77,0l-3.03,9.57c-.49,1.53,.33,2.79,1.8,2.79h1.61v4.07h.98v-4.07h1.61c1.48,0,2.29-1.26,1.8-2.79l-3.02-9.57Z"/>
          <path class="cls-9" d="M298.28,33.93c-.39,1.22,.26,2.23,1.44,2.23h.94c-.69-1.53-1.22-3.33-1.41-5.28l-.97,3.05Z"/>
          <path class="cls-9" d="M300.91,39.8c0,.3,.22,.54,.49,.54s.49-.24,.49-.54v-1.41c-.34-.52-.68-1.09-.98-1.71v3.12Z"/>
          <path class="cls-9" d="M335.03,33.93l-1.41-4.45c-.05,2.41-.68,4.82-1.9,7.2-.1,.19-.2,.37-.3,.55v2.58c0,.3,.22,.54,.49,.54s.49-.24,.49-.54v-3.64h1.19c1.18,0,1.83-1.01,1.44-2.23h0Z"/>
          <path class="cls-9" d="M335.58,26.23h.85v2.91c0,.3,.22,.54,.49,.54s.49-.24,.49-.54v-2.91h.85c.94,0,1.46-.8,1.15-1.78l-1.93-6.1c-.31-.98-.82-.98-1.13,0l-1.93,6.1c-.31,.98,.21,1.78,1.15,1.78h0Z"/>
          <path class="cls-9" d="M295.24,18.35l-1.93,6.1c-.31,.98,.21,1.78,1.15,1.78h.85v2.91c0,.3,.22,.54,.49,.54s.49-.24,.49-.54v-2.91h.85c.94,0,1.46-.8,1.15-1.78l-1.93-6.1c-.31-.98-.82-.98-1.12,0h0Z"/>
          <path class="cls-9" d="M295.27,10.86h.5v2.15c0,.3,.22,.54,.49,.54s.49-.24,.49-.54v-2.15h.5c.7,0,1.08-.59,.85-1.31l-1.42-4.5c-.23-.72-.61-.72-.83,0l-1.43,4.5c-.23,.72,.15,1.31,.85,1.31h0Z"/>
          <path class="cls-3" d="M331.91,21.51c.33,0,.59-.29,.59-.65v-2.59h.6c.84,0,1.3-.72,1.02-1.59l-1.72-5.43c-.28-.87-.73-.87-1.01,0l-1.72,5.43c-.27,.87,.19,1.59,1.03,1.59h.6v2.59c.1,.19,.21,.37,.3,.56,.09,.05,.18,.09,.29,.09h0Z"/>
          <path class="cls-9" d="M312.07,11.19c-.28-.87-.73-.87-1.01,0l-.63,1.99,2.03-.73-.4-1.26Z"/>
          <path class="cls-3" d="M301.99,18.21h.6c.84,0,1.3-.72,1.02-1.59l-1.72-5.43c-.28-.87-.73-.87-1.01,0l-1.72,5.43c-.27,.87,.19,1.59,1.03,1.59h.6v2.59c0,.29,.17,.53,.41,.61,.25-.47,.51-.93,.78-1.35v-1.86Z"/>
          <path class="cls-9" d="M305.44,10.86h.5v2.15c0,.3,.22,.54,.49,.54s.49-.24,.49-.54v-2.15h.5c.7,0,1.08-.59,.85-1.31l-1.42-4.5c-.23-.72-.61-.72-.83,0l-1.43,4.5c-.23,.72,.15,1.31,.85,1.31h0Z"/>
          <path class="cls-9" d="M317.08,10.86h.19c.36-.15,.71-.26,1.05-.35,.18-.24,.23-.58,.11-.97l-1.42-4.5c-.23-.72-.61-.72-.83,0l-1.42,4.5c-.23,.72,.15,1.31,.85,1.31h.5v.59c.33-.2,.65-.36,.98-.51v-.08Z"/>
          <path class="cls-9" d="M325.77,10.86h.5v2.15c0,.3,.22,.54,.49,.54s.49-.24,.49-.54v-2.15h.5c.7,0,1.08-.59,.85-1.31l-1.42-4.5c-.23-.72-.61-.72-.83,0l-1.42,4.5c-.23,.72,.15,1.31,.85,1.31h0Z"/>
          <path class="cls-9" d="M335.93,10.86h.5v2.15c0,.3,.22,.54,.49,.54s.49-.24,.49-.54v-2.15h.5c.7,0,1.08-.59,.85-1.31l-1.42-4.5c-.23-.72-.61-.72-.83,0l-1.42,4.5c-.23,.72,.15,1.31,.85,1.31h0Z"/>
          <path class="cls-9" d="M292.24,39.8v-3.64h1.19c1.18,0,1.83-1.01,1.44-2.23l-2.41-7.61c-.19-.61-.45-.92-.71-.92v14.94c.27,0,.49-.24,.49-.54h0Z"/>
          <path class="cls-9" d="M292.35,20.8v-2.59h.6c.84,0,1.3-.72,1.02-1.59l-1.71-5.43c-.11-.35-.31-.56-.46-.63l-.05,10.89c.33,0,.59-.29,.59-.65h0Z"/>
          <path class="cls-9" d="M340.41,26.31l-2.41,7.61c-.39,1.22,.26,2.23,1.44,2.23h1.19v3.64c0,.3,.22,.54,.49,.54v-14.94c-.25,0-.51,.31-.71,.92h0Z"/>
          <path class="cls-9" d="M339.92,18.27h.6v2.59c0,.36,.27,.65,.59,.65l-.05-10.89c-.15,.07-.34,.28-.46,.63l-1.72,5.43c-.28,.87,.18,1.59,1.02,1.59h0Z"/>
          <path class="cls-5" d="M317.84,41.81c-5.63,.6-10.46-4.01-7.84-10.1,1.17-2.72,3.97-3.92,3.97-3.92-1.86,2.21-1.48,3.92-.5,3.99,1.61,.11,1.51-1.7,2.63-3.95,1.34-2.69,2.75-2.75,2.75-2.75-.73,2.14,.3,4.07,2.23,5.72,5.07,4.17,1.45,10.5-3.24,11.01h0Zm11.56-6.09c3.26-6.38,1.26-12.22-3.19-17.17-.15,1.28-1.02,4.19-2.94,4.46-4.82,.68-5.52-6.37-2.16-9.57,0,0-4.02-1.13-6.79,3.79-2.04,3.62-1.65,7.21-4.66,6.88-1.88-.2-3.25-3.46,.27-7.59,0,0-3.75,1.34-6.56,7.04-3.12,6.32-.38,12.36,1.71,14.67,2.56,2.82,4.33,3.75,6.31,4.56,1.34,.54,3.68,1.23,7.25,.7,4.57-.67,8.5-3.4,10.74-7.78h0Z"/>
        </g>
        <g>
          <path class="cls-9" d="M368.91,8.16s.07-.07,.11-.07l6.14,12.18c.19,.37,.63,.52,1,.33s.52-.63,.33-1l-1.74-3.44,.7-3.11c.07-.41-.15-.78-.56-.89-.41-.07-.78,.15-.89,.56l-.3,1.33-3.44-6.7s-.04-.04-.04-.07c-.48-.7-1.41-.85-2.11-.41-.04,0-.04,.04-.07,.04l-11.14,7.29c-.33,.22-.44,.67-.22,1.04,.22,.33,.7,.44,1.04,.22l11.18-7.29Z"/>
          <path class="cls-9" d="M383.65,20.59c.37,.19,.81,.04,1-.33l6.14-12.18s.07,.04,.11,.04l11.18,7.29c.33,.22,.81,.11,1.04-.22,.22-.33,.11-.81-.22-1.04l-11.18-7.25c-.67-.48-1.59-.33-2.11,.33l-.04,.04s-.04,.04-.04,.07l-3.41,6.74-.3-1.33c-.07-.41-.48-.67-.89-.56-.41,.11-.67,.48-.56,.89l.7,3.11-1.74,3.44c-.22,.33-.07,.78,.3,.96h0Z"/>
          <path class="cls-9" d="M363.92,21.07c-.81-.19-1.63,.3-1.85,1.07l-.59,2.22h.07c.41,0,.78-.11,1.07-.37,.15-.11,.37-.22,.56-.33l.3-1.07s.04-.04,.07-.04l1.67,.44c.3-.04,.59-.07,.89-.07,.52,0,1.04,.07,1.55,.19,0-.22-.07-.44-.19-.63-.19-.37-.52-.63-.89-.74l-2.66-.67Z"/>
          <path class="cls-9" d="M371.8,24c.48-.33,1.04-.59,1.59-.81l.56-2c.11-.41,.04-.89-.15-1.26l-4.55-8.51c-.41-.7-1.3-.96-2.04-.56-.04,0-.04,.04-.07,.04l-8.07,5.14c-.37,.26-.63,.59-.74,1.04l-1.59,5.81h.22c.44,0,.85,.04,1.3,.11l1.3-4.81,12.73,3.48-.63,2.41s.07-.04,.15-.07h0Z"/>
          <path class="cls-2" d="M356.96,39.17c.67,0,1.37,.22,1.89,.63,.78,.59,1.74,.89,2.7,.85,.81,.04,1.59-.19,2.29-.59-.26-.52-.3-1.15-.07-1.7-.11,.07-.22,.11-.3,.19-.56,.41-1.22,.63-1.89,.63s-1.37-.22-1.89-.63c-.81-.56-1.78-.89-2.74-.85-.41,0-.74,.33-.74,.74s.33,.74,.74,.74h0Z"/>
          <path class="cls-2" d="M402.86,37.69c-.96,0-1.92,.3-2.7,.85-1.11,.81-2.67,.81-3.78,0l-.33-.22c.22,.56,.22,1.18,0,1.74,.67,.41,1.48,.59,2.26,.59,.96,0,1.92-.3,2.7-.85,.56-.41,1.22-.63,1.89-.63,.41,0,.74-.33,.74-.74s-.37-.74-.78-.74h0Z"/>
          <path class="cls-2" d="M356.96,34.73c.67,0,1.37,.22,1.89,.63,.78,.59,1.74,.89,2.7,.85,.96,0,1.92-.3,2.7-.85,.56-.41,1.22-.63,1.89-.63,.22,0,.44,0,.67,.07l1.11-1.18c-.56-.22-1.15-.37-1.78-.33-.96,0-1.92,.3-2.7,.85-.56,.41-1.22,.63-1.89,.63s-1.37-.22-1.89-.63c-.78-.59-1.74-.89-2.7-.89-.41,0-.74,.33-.74,.74s.33,.74,.74,.74h0Z"/>
          <path class="cls-2" d="M402.86,33.25c-.96,0-1.92,.3-2.7,.85-1.11,.81-2.67,.81-3.78,0-1.22-.85-2.81-1.11-4.26-.59v.33l.85,.96c.22-.04,.44-.07,.67-.07,.67,0,1.37,.22,1.89,.63,1.63,1.15,3.78,1.15,5.4,0,.56-.41,1.22-.63,1.89-.63,.41,0,.74-.33,.74-.74s-.3-.74-.7-.74h0Z"/>
          <path class="cls-2" d="M402.86,28.81c-.96-.04-1.92,.3-2.7,.85-1.11,.81-2.67,.81-3.78,0-1.22-.85-2.81-1.11-4.26-.59v1.63c.48-.3,1-.44,1.55-.41,.67,0,1.37,.22,1.89,.63,1.63,1.15,3.78,1.15,5.4,0,.56-.41,1.22-.63,1.89-.63,.41,0,.74-.33,.74-.74s-.33-.74-.74-.74h0Z"/>
          <path class="cls-2" d="M356.96,30.29c.67,0,1.37,.22,1.89,.63,.78,.59,1.74,.89,2.7,.85,.96,0,1.92-.3,2.7-.85,.56-.41,1.22-.63,1.89-.63s1.37,.22,1.89,.63c.52,.37,1.07,.63,1.67,.74l1.3-1.37h-.26c-.67,0-1.37-.22-1.89-.63-.78-.56-1.74-.85-2.7-.85s-1.92,.3-2.7,.85c-.56,.41-1.22,.63-1.89,.63s-1.37-.22-1.89-.63c-.78-.56-1.74-.85-2.7-.85-.41,0-.74,.33-.74,.74s.33,.74,.74,.74h0Z"/>
          <path class="cls-2" d="M356.96,25.85c.67,0,1.37,.22,1.89,.63,.78,.59,1.74,.89,2.7,.85,.96,0,1.92-.3,2.7-.85,.56-.41,1.22-.63,1.89-.63s1.37,.22,1.89,.63c.78,.59,1.74,.89,2.7,.85,.96,0,1.92-.3,2.7-.85,.48-.37,1.04-.59,1.67-.63l1.3-1.37c-.33-.07-.7-.11-1.04-.11-.96,0-1.92,.3-2.7,.85-1.11,.81-2.67,.81-3.78,0-.81-.56-1.78-.85-2.74-.85s-1.92,.3-2.7,.85c-.56,.41-1.22,.63-1.89,.63s-1.37-.22-1.89-.63c-.78-.56-1.74-.85-2.7-.85-.41,0-.74,.33-.74,.74s.33,.74,.74,.74h0Z"/>
          <path class="cls-2" d="M400.15,25.22c-1.11,.81-2.67,.81-3.78,0-1.63-1.15-3.78-1.15-5.4,0-.56,.41-1.22,.63-1.89,.63h.81c.63,0,1.26,.26,1.67,.74,.07-.04,.15-.07,.22-.15,1.11-.81,2.67-.81,3.78,0,1.63,1.15,3.78,1.15,5.4,0,.56-.41,1.22-.63,1.89-.63,.41,0,.74-.33,.74-.74s-.33-.74-.74-.74c-.96,.04-1.92,.33-2.7,.89h0Z"/>
          <path class="cls-2" d="M384.5,24.37c-.33,0-.63,.04-.93,.07l1.3,1.41c.33,.04,.7,.11,1,.3,.33-.19,.7-.3,1.11-.3h2.15c-.67,0-1.37-.22-1.89-.63-.81-.56-1.78-.85-2.74-.85h0Z"/>
          <path class="cls-9" d="M387.68,31.14v-2.33h1.48v4l-1.48-1.63v-.04h0Zm-22.36,8.48c.3,.3,.78,.26,1.04-.04l13.18-14.25c.26-.26,.48-.3,.59-.19l9.14,9.96c.04,.07,.11,.15,.19,.19l3.96,4.37c.26,.3,.74,.33,1.04,.04,.3-.26,.33-.74,.04-1.04l-3.85-4.22v-6.37c0-.41-.33-.74-.74-.74h-2.96c-.41,0-.74,.33-.74,.74v1.48l-4.96-5.44s-.04-.04-.07-.07c-.67-.56-1.78-.67-2.67,.26l-13.21,14.29c-.26,.3-.26,.78,.04,1.04h0Z"/>
          <path class="cls-9" d="M380.28,44.36c.41,0,.74-.33,.74-.74s-.33-.74-.74-.74h-.74c-.41,0-.74,.33-.74,.74s.33,.74,.74,.74h.74Z"/>
          <path class="cls-9" d="M378.8,35.47h2.22v1.48h-2.22v-1.48Zm-.74,2.96h3.7c.41,0,.74-.33,.74-.74v-2.96c0-.41-.33-.74-.74-.74h-3.7c-.41,0-.74,.33-.74,.74v2.96c0,.41,.33,.74,.74,.74Z"/>
          <path class="cls-9" d="M383.61,49.61v-1.89c.04-1.04-.78-1.85-1.81-1.89h-3.78c-1,.04-1.81,.89-1.81,1.89v1.89c.52,.07,1,.19,1.48,.41v-2.29c0-.19,.11-.37,.33-.41h3.81c.19,.04,.33,.22,.33,.41v2.29c.44-.22,.93-.37,1.44-.41h0Z"/>
          <path class="cls-9" d="M379.61,29.66c.07-.07,.15-.11,.26-.11,.07,0,.19,.04,.22,.11l9.51,10.25h-19.43l9.44-10.25Zm10.55,20.95c.37-.26,.78-.48,1.22-.67v-9.48c-.04-.56-.22-1.07-.59-1.48l-9.62-10.36c-.33-.37-.85-.56-1.33-.56-.52,0-1,.22-1.33,.59l-9.48,10.33c-.37,.41-.56,.96-.59,1.52v9.48c.41,.19,.81,.41,1.18,.67,.11,.07,.19,.11,.3,.19v-9.44h19.99v9.4c.07-.04,.15-.11,.26-.19h0Z"/>
          <path class="cls-2" d="M402.86,51.02c-.96,0-1.92,.3-2.7,.85-1.11,.81-2.67,.81-3.78,0-1.63-1.15-3.78-1.15-5.4,0-1.11,.81-2.67,.81-3.78,0-1.63-1.15-3.78-1.15-5.4,0-1.11,.81-2.67,.81-3.78,0-1.63-1.15-3.78-1.15-5.4,0-1.11,.81-2.67,.81-3.78,0-.78-.59-1.74-.89-2.7-.85-.96,0-1.92,.3-2.7,.85-.56,.41-1.22,.63-1.89,.63s-1.37-.22-1.89-.63c-.78-.59-1.74-.89-2.7-.85-.41,0-.74,.33-.74,.74s.33,.74,.74,.74c.67,0,1.37,.22,1.89,.63,.78,.59,1.74,.89,2.7,.85,.96,0,1.92-.3,2.7-.85,.56-.41,1.22-.63,1.89-.63s1.37,.22,1.89,.63c.78,.59,1.74,.89,2.7,.85,.96,0,1.92-.3,2.7-.85,1.11-.81,2.67-.81,3.78,0,1.63,1.15,3.78,1.15,5.4,0,1.11-.81,2.67-.81,3.78,0,1.63,1.15,3.78,1.15,5.4,0,1.11-.81,2.67-.81,3.78,0,1.63,1.15,3.78,1.15,5.4,0,.56-.41,1.22-.63,1.89-.63,.41,0,.74-.33,.74-.74s-.33-.74-.74-.74Z"/>
          <path class="cls-9" d="M401.56,23.04c.41-.07,.85-.11,1.3-.11h.22l-1.55-5.85c-.11-.41-.41-.78-.74-1.04l-8.11-5.11c-.7-.44-1.59-.26-2.04,.44-.04,.04-.04,.07-.04,.07l-4.55,8.44c-.22,.41-.26,.85-.19,1.3l.56,2c.56,.19,1.07,.44,1.59,.78,.07,.04,.15,.07,.22,.15l-.63-2.41,12.73-3.48,1.22,4.81Z"/>
          <path class="cls-9" d="M393.23,21.74c-.37,.11-.7,.33-.93,.7-.11,.19-.19,.41-.19,.63,.52-.11,1.04-.19,1.55-.19,.3,0,.59,.04,.85,.07l1.7-.44s.04,.04,.07,.04l.3,1.07c.22,.11,.41,.22,.56,.33,.3,.26,.7,.41,1.11,.37h.07l-.63-2.18c-.19-.78-1-1.26-1.81-1.07l-2.67,.67Z"/>
          <path class="cls-2" d="M356.96,43.62c.67,0,1.37,.22,1.89,.63,.78,.59,1.74,.89,2.7,.85,.96,0,1.92-.3,2.7-.85,.56-.41,1.22-.63,1.89-.63,.26,0,.56,.04,.81,.11v-1.52c-.26-.04-.56-.07-.81-.07-.96,0-1.92,.3-2.7,.85-.56,.41-1.22,.63-1.89,.63s-1.37-.22-1.89-.63c-.78-.56-1.74-.89-2.7-.85-.41,0-.74,.33-.74,.74s.33,.74,.74,.74h0Z"/>
          <path class="cls-2" d="M402.86,42.13c-.96,0-1.92,.3-2.7,.85-1.11,.81-2.67,.81-3.78,0-.78-.59-1.74-.89-2.7-.85-.26,0-.56,.04-.81,.07v1.52c.26-.07,.52-.11,.81-.11,.67,0,1.37,.22,1.89,.63,1.63,1.15,3.78,1.15,5.4,0,.56-.41,1.22-.63,1.89-.63,.41,0,.74-.33,.74-.74s-.33-.74-.74-.74h0Z"/>
          <path class="cls-2" d="M356.96,48.06c.67,0,1.37,.22,1.89,.63,.78,.59,1.74,.89,2.7,.85,.96,0,1.92-.3,2.7-.85,.56-.41,1.22-.63,1.89-.63,.26,0,.56,.04,.81,.11v-1.52c-.26-.04-.56-.07-.81-.07-.96,0-1.92,.3-2.7,.85-.56,.41-1.22,.63-1.89,.63s-1.37-.22-1.89-.63c-.78-.59-1.74-.89-2.7-.85-.41,0-.74,.33-.74,.74s.33,.74,.74,.74h0Z"/>
          <path class="cls-2" d="M402.86,46.58c-.96,0-1.92,.3-2.7,.85-1.11,.81-2.67,.81-3.78,0-.78-.59-1.74-.89-2.7-.85-.26,0-.56,.04-.81,.07v1.52c.26-.07,.52-.11,.81-.11,.67,0,1.37,.22,1.89,.63,1.63,1.15,3.78,1.15,5.4,0,.56-.41,1.22-.63,1.89-.63,.41,0,.74-.33,.74-.74s-.33-.74-.74-.74h0Z"/>
        </g>
        <g>
          <path class="cls-4" d="M449.05,48.45c-.83-.61-1.97-.71-2.92-.17h0c-.95,.55-1.43,1.6-1.32,2.62-2.13,.86-4.37,1.31-6.7,1.31-8.99,0-16.42-6.56-17.63-15.37,.94-.42,1.6-1.35,1.6-2.44s-.66-2.03-1.6-2.44c1.2-8.81,8.64-15.37,17.63-15.37,3.27,0,6.43,.89,9.2,2.57,.04-.06,.06-.13,.1-.19-1.08-.45-1.87-1.06-2.11-1.86l-.15-.5,.13-.44c-2.27-.89-4.69-1.36-7.18-1.36-9.93,0-18.13,7.27-19.4,17.03-1.13,.31-1.97,1.34-1.97,2.57s.84,2.25,1.97,2.57c1.27,9.75,9.48,17.03,19.4,17.03,2.6,0,5.11-.5,7.48-1.49,.5,.49,1.18,.76,1.87,.76,.45,0,.91-.11,1.33-.36,1.06-.61,1.53-1.85,1.24-2.98,4.81-3.7,7.66-9.45,7.66-15.53h-1.78c0,5.49-2.56,10.68-6.87,14.05Z"/>
          <path class="cls-9" d="M440.78,37.07c0,.49,.4,.89,.89,.89h1.78c1.47,0,2.67,1.2,2.67,2.67,0,.49,.4,.89,.89,.89h1.31c1.09-1.56,1.83-3.38,2.11-5.34h-8.76c-.49,0-.89,.4-.89,.89Z"/>
          <path class="cls-9" d="M431.88,34.4h1.78c.49,0,.89-.4,.89-.89s-.4-.89-.89-.89h-7.87c-.08,.58-.14,1.17-.14,1.78,0,2.65,.84,5.1,2.25,7.12h8.44c.49,0,.89-.4,.89-.89s-.4-.89-.89-.89h-4.45c-1.47,0-2.67-1.2-2.67-2.67s1.2-2.67,2.67-2.67Z"/>
          <path class="cls-9" d="M436.33,25.49c-.49,0-.89,.4-.89,.89s.4,.89,.89,.89h5.34c1.47,0,2.67,1.2,2.67,2.67,0,.49,.4,.89,.89,.89h4.82c-.61-2.05-1.74-3.88-3.23-5.34h-10.49Z"/>
          <path class="cls-3" d="M450.43,32.62h-5.2c-1.47,0-2.67-1.2-2.67-2.67,0-.49-.4-.89-.89-.89h-5.34c-1.47,0-2.67-1.2-2.67-2.67s1.2-2.67,2.67-2.67h8.17c-1.87-1.12-4.05-1.78-6.39-1.78-5.64,0-10.41,3.76-11.94,8.91h7.49c1.47,0,2.67,1.2,2.67,2.67s-1.2,2.67-2.67,2.67h-1.78c-.49,0-.89,.4-.89,.89s.4,.89,.89,.89h4.45c1.47,0,2.67,1.2,2.67,2.67s-1.2,2.67-2.67,2.67h-6.93c2.25,2.2,5.32,3.56,8.71,3.56s6.48-1.37,8.73-3.58c-1.39-.09-2.49-1.24-2.49-2.65,0-.49-.4-.89-.89-.89h-1.78c-1.47,0-2.67-1.2-2.67-2.67s1.2-2.67,2.67-2.67h8.91c0-.61-.06-1.2-.14-1.78Z"/>
          <path class="cls-4" d="M469.96,2.34c-1.25-.7-6.29-1.78-14.93-1.78s-13.68,1.08-14.93,1.78c1.25,.7,6.29,1.78,14.93,1.78s13.68-1.08,14.93-1.78Z"/>
          <path class="cls-4" d="M455.03,9.46c-1.43,0-6.06-.05-9.83-.71-1.03,.3-1.48,.58-1.66,.72,.8,.69,4.93,1.77,11.49,1.77s10.69-1.08,11.49-1.77c-.18-.14-.63-.42-1.66-.72-3.77,.66-8.4,.71-9.83,.71Z"/>
          <path class="cls-8" d="M455.03,13.02c-.77,0-4.96-.03-8.44-.69-.82,.29-1.2,.56-1.32,.7,.52,.67,4.02,1.78,9.76,1.78s9.25-1.1,9.76-1.78c-.12-.13-.5-.4-1.32-.7-3.48,.66-7.67,.69-8.44,.69Z"/>
          <path class="cls-8" d="M455.03,5.9c-1.62,0-6.92-.06-11.16-.74-1.21,.3-1.79,.58-2.05,.75,1.02,.68,5.48,1.77,13.21,1.77s12.19-1.09,13.21-1.77c-.25-.17-.83-.45-2.05-.75-4.24,.68-9.54,.74-11.16,.74Z"/>
          <path class="cls-8" d="M460.69,19.55c-1.69,.4-3.7,.59-5.66,.59s-3.97-.19-5.66-.59c-.4,.26-.57,.49-.57,.59,0,.52,2.18,1.78,6.23,1.78s6.23-1.26,6.23-1.78c0-.1-.17-.33-.57-.59Z"/>
          <path class="cls-4" d="M462.09,15.93c-2.29,.48-5.01,.66-7.06,.66s-4.77-.17-7.06-.66c-.71,.32-.94,.59-.96,.67,.14,.46,2.81,1.76,8.02,1.76s7.88-1.3,8.02-1.79c-.02-.05-.25-.32-.96-.64Z"/>
          <path class="cls-4" d="M449.83,22.91c-.09,.26-.14,.52-.14,.8,0,1.48,.84,2.5,1.65,3.49,.94,1.15,1.92,2.33,1.92,4.52h1.78c0-2.83-1.29-4.4-2.32-5.66-.69-.84-1.24-1.51-1.24-2.36,0-.11,.03-.22,.08-.33-.61-.12-1.19-.28-1.72-.47Z"/>
          <path class="cls-4" d="M458.51,23.38c.05,.11,.08,.22,.08,.33,0,.84-1.52,1.78-3.56,1.78v1.78c3,0,5.34-1.56,5.34-3.56,0-.27-.06-.54-.14-.8-.53,.19-1.1,.35-1.72,.47Z"/>
        </g>
      </g>
      <g>
        <g>
          <path class="cls-9" d="M.26,.17h1.87V5.01h2.01V.17h1.87V12.07h-1.87V6.71H2.13v5.35H.26V.17Z"/>
          <path class="cls-9" d="M7.79,.17h1.87V12.07h-1.87V.17Z"/>
          <path class="cls-9" d="M11.37,9.25V2.99c0-1.9,.95-2.99,2.79-2.99s2.79,1.09,2.79,2.99v1.02h-1.77v-1.14c0-.85-.37-1.17-.97-1.17s-.97,.32-.97,1.17v6.51c0,.85,.37,1.16,.97,1.16s.97-.31,.97-1.16v-2.33h-.94v-1.7h2.7v3.89c0,1.9-.95,2.99-2.79,2.99s-2.79-1.09-2.79-2.99Z"/>
          <path class="cls-9" d="M18.61,.17h1.87V5.01h2.01V.17h1.87V12.07h-1.87V6.71h-2.01v5.35h-1.87V.17Z"/>
          <path class="cls-9" d="M26.15,.17h1.87V10.37h3.08v1.7h-4.95V.17Z"/>
          <path class="cls-9" d="M33.44,7L31.18,.17h1.99l1.27,4.37h.03L35.75,.17h1.82l-2.26,6.83v5.07h-1.87V7Z"/>
          <path class="cls-9" d="M41.67,.17h1.89l1.22,9.23h.03L46.04,.17h1.72l-1.8,11.9h-2.48L41.67,.17Z"/>
          <path class="cls-9" d="M49.22,9.25V.17h1.87V9.38c0,.85,.36,1.16,.95,1.16s.95-.31,.95-1.16V.17h1.8V9.25c0,1.9-.95,2.99-2.79,2.99s-2.79-1.09-2.79-2.99Z"/>
          <path class="cls-9" d="M56.55,.17h1.87V10.37h3.08v1.7h-4.95V.17Z"/>
          <path class="cls-9" d="M63,.17h2.35l1.82,7.12h.03V.17h1.67V12.07h-1.92l-2.24-8.69h-.03V12.07h-1.67V.17Z"/>
          <path class="cls-9" d="M70.66,.17h5.1V1.87h-3.23v3.15h2.57v1.7h-2.57v3.65h3.23v1.7h-5.1V.17Z"/>
          <path class="cls-9" d="M77.34,.17h2.77c1.94,0,2.77,.9,2.77,2.74v.73c0,1.22-.39,2.01-1.22,2.35v.03c.93,.29,1.24,1.17,1.24,2.52v2.09c0,.58,.02,1,.2,1.44h-1.9c-.1-.31-.17-.49-.17-1.46v-2.18c0-1.1-.32-1.46-1.17-1.46h-.65v5.1h-1.87V.17Zm2.55,5.1c.7,0,1.12-.31,1.12-1.26v-.92c0-.85-.29-1.22-.95-1.22h-.85v3.4h.68Z"/>
          <path class="cls-9" d="M86.39,.17h2.53l1.94,11.9h-1.87l-.34-2.36v.03h-2.12l-.34,2.33h-1.73L86.39,.17Zm2.04,7.96l-.83-5.88h-.03l-.82,5.88h1.68Z"/>
          <path class="cls-9" d="M92.36,.17h2.82c1.94,0,2.77,.9,2.77,2.74v.48c0,1.22-.37,1.99-1.21,2.33v.03c1,.34,1.39,1.22,1.39,2.48v1.02c0,1.84-.97,2.82-2.84,2.82h-2.94V.17Zm2.6,4.84c.7,0,1.12-.31,1.12-1.26v-.66c0-.85-.29-1.22-.95-1.22h-.9v3.15h.73Zm.34,5.35c.63,0,.97-.29,.97-1.17v-1.04c0-1.1-.36-1.44-1.21-1.44h-.83v3.65h1.07Z"/>
          <path class="cls-9" d="M99.73,.17h1.87V10.37h3.08v1.7h-4.95V.17Z"/>
          <path class="cls-9" d="M106.17,.17h5.1V1.87h-3.23v3.15h2.57v1.7h-2.57v3.65h3.23v1.7h-5.1V.17Z"/>
          <path class="cls-9" d="M116.08,.17h2.77c1.94,0,2.77,.9,2.77,2.74v.73c0,1.22-.39,2.01-1.22,2.35v.03c.93,.29,1.24,1.17,1.24,2.52v2.09c0,.58,.02,1,.2,1.44h-1.9c-.1-.31-.17-.49-.17-1.46v-2.18c0-1.1-.32-1.46-1.17-1.46h-.65v5.1h-1.87V.17Zm2.55,5.1c.7,0,1.12-.31,1.12-1.26v-.92c0-.85-.29-1.22-.95-1.22h-.85v3.4h.68Z"/>
          <path class="cls-9" d="M123.44,.17h5.1V1.87h-3.23v3.15h2.57v1.7h-2.57v3.65h3.23v1.7h-5.1V.17Z"/>
          <path class="cls-9" d="M130.03,9.25V2.99c0-1.9,.95-2.99,2.79-2.99s2.79,1.09,2.79,2.99v1.02h-1.77v-1.14c0-.85-.37-1.17-.97-1.17s-.97,.32-.97,1.17v6.51c0,.85,.37,1.16,.97,1.16s.97-.31,.97-1.16v-2.33h-.94v-1.7h2.7v3.89c0,1.9-.95,2.99-2.79,2.99s-2.79-1.09-2.79-2.99Z"/>
          <path class="cls-9" d="M137.28,.17h1.87V12.07h-1.87V.17Z"/>
          <path class="cls-9" d="M140.85,9.25V2.99c0-1.9,1-2.99,2.84-2.99s2.84,1.09,2.84,2.99v6.26c0,1.9-1,2.99-2.84,2.99s-2.84-1.09-2.84-2.99Zm3.81,.12V2.87c0-.85-.37-1.17-.97-1.17s-.97,.32-.97,1.17v6.49c0,.85,.37,1.17,.97,1.17s.97-.32,.97-1.17Z"/>
          <path class="cls-9" d="M148.24,.17h2.35l1.82,7.12h.03V.17h1.67V12.07h-1.92l-2.24-8.69h-.03V12.07h-1.67V.17Z"/>
          <path class="cls-9" d="M155.68,9.25v-.68h1.77v.82c0,.85,.37,1.16,.97,1.16s.97-.31,.97-1.19c0-.99-.37-1.61-1.6-2.69-1.56-1.38-2.07-2.35-2.07-3.71,0-1.87,.97-2.96,2.79-2.96s2.72,1.09,2.72,2.99v.49h-1.77v-.61c0-.85-.34-1.17-.93-1.17s-.94,.32-.94,1.14c0,.87,.39,1.5,1.61,2.57,1.56,1.38,2.06,2.33,2.06,3.81,0,1.94-.99,3.03-2.82,3.03s-2.75-1.09-2.75-2.99Z"/>
        </g>
        <g>
          <rect class="cls-10" x="59.53" y="57.39" width="142.97" height="3.8"/>
          <g>
            <path class="cls-4" d="M208.2,53.28v-4.45c0-1.01,.4-1.38,1.39-1.38h.31v.81h-.24c-.32,0-.46,.12-.46,.57v4.45c0,.45,.14,.57,.46,.57h.24v.81h-.31c-.99,0-1.39-.37-1.39-1.38Z"/>
            <path class="cls-4" d="M210.55,53.52c0-.9,.25-1.45,.99-2.22,.76-.8,.97-1.28,.97-1.86s-.2-.72-.51-.72-.51,.17-.51,.62v.68h-.94v-.61c0-1.01,.5-1.58,1.48-1.58s1.48,.58,1.48,1.58c0,.75-.31,1.41-1.22,2.39-.59,.63-.75,.95-.75,1.39v.13h1.88v.9h-2.86v-.68Z"/>
            <path class="cls-4" d="M214.1,52.71v-3.31c0-1.01,.53-1.58,1.5-1.58s1.5,.58,1.5,1.58v3.31c0,1.01-.53,1.58-1.5,1.58s-1.5-.58-1.5-1.58Zm2.02,.06v-3.44c0-.45-.2-.62-.51-.62s-.51,.17-.51,.62v3.44c0,.45,.2,.62,.51,.62s.51-.17,.51-.62Z"/>
            <path class="cls-4" d="M219.16,49.4h-1.04v-.7c.84,0,1.13-.18,1.36-.79h.67v6.3h-.99v-4.81Z"/>
            <path class="cls-4" d="M221.3,52.71v-3.31c0-1.01,.53-1.58,1.5-1.58s1.5,.58,1.5,1.58v3.31c0,1.01-.53,1.58-1.5,1.58s-1.5-.58-1.5-1.58Zm2.02,.06v-3.44c0-.45-.2-.62-.51-.62s-.51,.17-.51,.62v3.44c0,.45,.2,.62,.51,.62s.51-.17,.51-.62Z"/>
            <path class="cls-4" d="M224.6,50.65h2.7v.81h-2.7v-.81Z"/>
            <path class="cls-4" d="M227.65,53.52c0-.9,.25-1.45,.99-2.22,.76-.8,.97-1.28,.97-1.86s-.2-.72-.51-.72-.51,.17-.51,.62v.68h-.94v-.61c0-1.01,.5-1.58,1.48-1.58s1.48,.58,1.48,1.58c0,.75-.31,1.41-1.22,2.39-.59,.63-.75,.95-.75,1.39v.13h1.88v.9h-2.86v-.68Z"/>
            <path class="cls-4" d="M231.2,52.71v-3.31c0-1.01,.53-1.58,1.5-1.58s1.5,.58,1.5,1.58v3.31c0,1.01-.53,1.58-1.5,1.58s-1.5-.58-1.5-1.58Zm2.02,.06v-3.44c0-.45-.2-.62-.51-.62s-.51,.17-.51,.62v3.44c0,.45,.2,.62,.51,.62s.51-.17,.51-.62Z"/>
            <path class="cls-4" d="M234.85,53.52c0-.9,.25-1.45,.99-2.22,.76-.8,.97-1.28,.97-1.86s-.2-.72-.51-.72-.51,.17-.51,.62v.68h-.94v-.61c0-1.01,.5-1.58,1.48-1.58s1.48,.58,1.48,1.58c0,.75-.31,1.41-1.22,2.39-.59,.63-.75,.95-.75,1.39v.13h1.88v.9h-2.86v-.68Z"/>
            <path class="cls-4" d="M238.4,52.71v-3.31c0-1.01,.53-1.58,1.5-1.58s1.5,.58,1.5,1.58v3.31c0,1.01-.53,1.58-1.5,1.58s-1.5-.58-1.5-1.58Zm2.02,.06v-3.44c0-.45-.2-.62-.51-.62s-.51,.17-.51,.62v3.44c0,.45,.2,.62,.51,.62s.51-.17,.51-.62Z"/>
            <path class="cls-4" d="M242.02,53.85h.24c.31,0,.46-.12,.46-.57v-4.45c0-.45-.14-.57-.46-.57h-.24v-.81h.31c.99,0,1.39,.37,1.39,1.38v4.45c0,1.01-.4,1.38-1.39,1.38h-.31v-.81Z"/>
          </g>
          <g>
            <line class="cls-7" x1=".88" y1="38.22" x2=".88" y2="38.22"/>
            <line class="cls-6" x1="3.78" y1="38.22" x2="252.46" y2="38.22"/>
            <line class="cls-7" x1="253.91" y1="38.22" x2="253.91" y2="38.22"/>
          </g>
          <rect class="cls-9" x="52.25" y="17.76" width="130.42" height="15.42"/>
          <g>
            <path class="cls-8" d="M.09,21.06H3.99v1.3H1.52v2.41h1.96v1.3H1.52v2.8H3.99v1.3H.09v-9.1Z"/>
            <path class="cls-8" d="M6.33,25.5l-1.57-4.45h1.51l.96,2.94h.03l.99-2.94h1.35l-1.57,4.45,1.65,4.65h-1.51l-1.04-3.17h-.03l-1.07,3.17h-1.35l1.65-4.65Z"/>
            <path class="cls-8" d="M10.61,21.06h2.11c1.43,0,2.13,.79,2.13,2.25v.9c0,1.46-.7,2.25-2.13,2.25h-.68v3.71h-1.43v-9.1Zm2.11,4.1c.46,0,.7-.21,.7-.86v-1.08c0-.65-.25-.86-.7-.86h-.68v2.79h.68Z"/>
            <path class="cls-8" d="M15.89,21.06h3.9v1.3h-2.47v2.41h1.96v1.3h-1.96v2.8h2.47v1.3h-3.9v-9.1Z"/>
            <path class="cls-8" d="M20.87,21.06h2.12c1.48,0,2.12,.69,2.12,2.09v.56c0,.94-.3,1.53-.94,1.79v.03c.72,.22,.95,.9,.95,1.92v1.6c0,.44,.01,.77,.16,1.1h-1.46c-.08-.23-.13-.38-.13-1.12v-1.66c0-.84-.25-1.12-.9-1.12h-.49v3.9h-1.43v-9.1Zm1.95,3.9c.53,0,.86-.23,.86-.96v-.7c0-.65-.22-.94-.73-.94h-.65v2.6h.52Z"/>
            <path class="cls-8" d="M26.37,21.06h1.43v9.1h-1.43v-9.1Z"/>
            <path class="cls-8" d="M29.12,21.06h3.9v1.3h-2.47v2.41h1.96v1.3h-1.96v2.8h2.47v1.3h-3.9v-9.1Z"/>
            <path class="cls-8" d="M34.1,21.06h1.79l1.39,5.45h.03v-5.45h1.27v9.1h-1.47l-1.72-6.64h-.03v6.64h-1.27v-9.1Z"/>
            <path class="cls-8" d="M39.82,28.05v-4.89c0-1.4,.73-2.24,2.11-2.24s2.11,.83,2.11,2.24v.96h-1.35v-1.05c0-.6-.29-.84-.72-.84s-.71,.25-.71,.84v5.08c0,.6,.29,.83,.71,.83s.72-.23,.72-.83v-1.39h1.35v1.29c0,1.4-.73,2.24-2.11,2.24s-2.11-.83-2.11-2.24Z"/>
            <path class="cls-8" d="M45.15,21.06h3.9v1.3h-2.47v2.41h1.96v1.3h-1.96v2.8h2.47v1.3h-3.9v-9.1Z"/>
            <path class="cls-1" d="M56.81,23.22h-1.5v-1.01c1.21,0,1.64-.26,1.96-1.14h.96v9.1h-1.43v-6.94Z"/>
            <path class="cls-1" d="M60.23,28v-.71h1.35v.82c0,.65,.29,.88,.74,.88s.74-.23,.74-.88v-2.04c0-.65-.29-.9-.74-.9s-.74,.25-.74,.9v.08h-1.35l.26-5.08h3.77v1.3h-2.5l-.12,2.17h.03c.26-.43,.66-.66,1.24-.66,1.05,0,1.59,.74,1.59,2.08v2.05c0,1.46-.73,2.29-2.13,2.29s-2.13-.83-2.13-2.29Z"/>
            <path class="cls-1" d="M66.99,25.5l-1.57-4.45h1.51l.96,2.94h.03l.99-2.94h1.35l-1.57,4.45,1.65,4.65h-1.51l-1.04-3.17h-.03l-1.07,3.17h-1.35l1.65-4.65Z"/>
            <path class="cls-1" d="M73.61,21.06h1.43v3.71h1.53v-3.71h1.43v9.1h-1.43v-4.1h-1.53v4.1h-1.43v-9.1Z"/>
            <path class="cls-1" d="M79.33,21.06h1.43v9.1h-1.43v-9.1Z"/>
            <path class="cls-1" d="M81.98,28v-4.78c0-1.46,.73-2.29,2.13-2.29s2.13,.83,2.13,2.29v.78h-1.35v-.87c0-.65-.29-.9-.74-.9s-.74,.25-.74,.9v4.98c0,.65,.29,.88,.74,.88s.74-.23,.74-.88v-1.78h-.72v-1.3h2.07v2.98c0,1.46-.73,2.29-2.13,2.29s-2.13-.83-2.13-2.29Z"/>
            <path class="cls-1" d="M87.42,21.06h1.43v3.71h1.53v-3.71h1.43v9.1h-1.43v-4.1h-1.53v4.1h-1.43v-9.1Z"/>
            <path class="cls-1" d="M93.14,21.06h3.9v1.3h-2.47v2.41h1.96v1.3h-1.96v2.8h2.47v1.3h-3.9v-9.1Z"/>
            <path class="cls-1" d="M98.12,21.06h2.12c1.48,0,2.12,.69,2.12,2.09v.56c0,.94-.3,1.53-.94,1.79v.03c.72,.22,.95,.9,.95,1.92v1.6c0,.44,.01,.77,.16,1.1h-1.46c-.08-.23-.13-.38-.13-1.12v-1.66c0-.84-.25-1.12-.9-1.12h-.49v3.9h-1.43v-9.1Zm1.95,3.9c.53,0,.86-.23,.86-.96v-.7c0-.65-.22-.94-.73-.94h-.65v2.6h.52Z"/>
            <path class="cls-1" d="M105.96,21.06h2.04l.91,6.51h.03l.91-6.51h2.04v9.1h-1.35v-6.89h-.03l-1.04,6.89h-1.2l-1.04-6.89h-.03v6.89h-1.25v-9.1Z"/>
            <path class="cls-1" d="M113.11,28v-4.78c0-1.46,.77-2.29,2.17-2.29s2.17,.83,2.17,2.29v4.78c0,1.46-.77,2.29-2.17,2.29s-2.17-.83-2.17-2.29Zm2.91,.09v-4.97c0-.65-.29-.9-.74-.9s-.74,.25-.74,.9v4.97c0,.65,.29,.9,.74,.9s.74-.25,.74-.9Z"/>
            <path class="cls-1" d="M118.68,21.06h2.12c1.48,0,2.12,.69,2.12,2.09v.56c0,.94-.3,1.53-.94,1.79v.03c.72,.22,.95,.9,.95,1.92v1.6c0,.44,.01,.77,.16,1.1h-1.46c-.08-.23-.13-.38-.13-1.12v-1.66c0-.84-.25-1.12-.9-1.12h-.49v3.9h-1.43v-9.1Zm1.95,3.9c.53,0,.86-.23,.86-.96v-.7c0-.65-.22-.94-.73-.94h-.65v2.6h.52Z"/>
            <path class="cls-1" d="M125.29,22.36h-1.5v-1.3h4.42v1.3h-1.5v7.8h-1.43v-7.8Z"/>
            <path class="cls-1" d="M130.27,21.06h1.94l1.48,9.1h-1.43l-.26-1.81v.03h-1.62l-.26,1.78h-1.33l1.48-9.1Zm1.56,6.08l-.64-4.5h-.03l-.62,4.5h1.29Z"/>
            <path class="cls-1" d="M134.64,21.06h1.43v7.8h2.35v1.3h-3.78v-9.1Z"/>
            <path class="cls-1" d="M139.37,21.06h1.43v9.1h-1.43v-9.1Z"/>
            <path class="cls-1" d="M143.25,22.36h-1.5v-1.3h4.42v1.3h-1.5v7.8h-1.43v-7.8Z"/>
            <path class="cls-1" d="M148.43,26.29l-1.73-5.23h1.52l.98,3.34h.03l.98-3.34h1.39l-1.73,5.23v3.87h-1.43v-3.87Z"/>
            <path class="cls-1" d="M154.84,21.06h2.12c1.48,0,2.12,.69,2.12,2.09v.56c0,.94-.3,1.53-.94,1.79v.03c.72,.22,.95,.9,.95,1.92v1.6c0,.44,.01,.77,.16,1.1h-1.46c-.08-.23-.13-.38-.13-1.12v-1.66c0-.84-.25-1.12-.9-1.12h-.49v3.9h-1.43v-9.1Zm1.95,3.9c.53,0,.86-.23,.86-.96v-.7c0-.65-.22-.94-.73-.94h-.65v2.6h.52Z"/>
            <path class="cls-1" d="M161.45,21.06h1.94l1.48,9.1h-1.43l-.26-1.81v.03h-1.62l-.26,1.78h-1.33l1.48-9.1Zm1.56,6.08l-.64-4.5h-.03l-.62,4.5h1.29Z"/>
            <path class="cls-1" d="M166.93,22.36h-1.49v-1.3h4.42v1.3h-1.5v7.8h-1.43v-7.8Z"/>
            <path class="cls-1" d="M170.81,21.06h3.9v1.3h-2.47v2.41h1.96v1.3h-1.96v2.8h2.47v1.3h-3.9v-9.1Z"/>
            <path class="cls-1" d="M175.54,28v-.52h1.35v.62c0,.65,.29,.88,.74,.88s.74-.23,.74-.91c0-.75-.29-1.23-1.22-2.05-1.2-1.05-1.59-1.79-1.59-2.83,0-1.43,.74-2.26,2.13-2.26s2.08,.83,2.08,2.29v.38h-1.35v-.47c0-.65-.26-.9-.71-.9s-.71,.25-.71,.87c0,.66,.3,1.14,1.23,1.96,1.2,1.05,1.57,1.78,1.57,2.91,0,1.48-.75,2.31-2.16,2.31s-2.11-.83-2.11-2.29Z"/>
            <path class="cls-8" d="M185.56,21.06h3.78v1.3h-2.35v2.54h1.85v1.3h-1.85v3.97h-1.43v-9.1Z"/>
            <path class="cls-8" d="M190.29,21.06h2.12c1.48,0,2.12,.69,2.12,2.09v.56c0,.94-.3,1.53-.94,1.79v.03c.72,.22,.95,.9,.95,1.92v1.6c0,.44,.01,.77,.16,1.1h-1.46c-.08-.23-.13-.38-.13-1.12v-1.66c0-.84-.25-1.12-.9-1.12h-.49v3.9h-1.43v-9.1Zm1.95,3.9c.53,0,.86-.23,.86-.96v-.7c0-.65-.22-.94-.73-.94h-.65v2.6h.52Z"/>
            <path class="cls-8" d="M195.69,28v-4.78c0-1.46,.77-2.29,2.17-2.29s2.17,.83,2.17,2.29v4.78c0,1.46-.77,2.29-2.17,2.29s-2.17-.83-2.17-2.29Zm2.91,.09v-4.97c0-.65-.29-.9-.74-.9s-.74,.25-.74,.9v4.97c0,.65,.29,.9,.74,.9s.74-.25,.74-.9Z"/>
            <path class="cls-8" d="M201.25,21.06h2.04l.91,6.51h.03l.91-6.51h2.04v9.1h-1.35v-6.89h-.03l-1.04,6.89h-1.2l-1.04-6.89h-.03v6.89h-1.25v-9.1Z"/>
            <path class="cls-8" d="M210.84,21.06h2.18c1.43,0,2.13,.79,2.13,2.25v4.6c0,1.46-.7,2.25-2.13,2.25h-2.18v-9.1Zm2.16,7.8c.46,0,.73-.23,.73-.88v-4.73c0-.65-.27-.88-.73-.88h-.73v6.5h.73Z"/>
            <path class="cls-8" d="M216.38,21.06h1.43v9.1h-1.43v-9.1Z"/>
            <path class="cls-8" d="M218.89,28v-.52h1.35v.62c0,.65,.29,.88,.74,.88s.74-.23,.74-.91c0-.75-.29-1.23-1.22-2.05-1.2-1.05-1.59-1.79-1.59-2.83,0-1.43,.74-2.26,2.13-2.26s2.08,.83,2.08,2.29v.38h-1.35v-.47c0-.65-.26-.9-.72-.9s-.71,.25-.71,.87c0,.66,.3,1.14,1.23,1.96,1.2,1.05,1.57,1.78,1.57,2.91,0,1.48-.75,2.31-2.16,2.31s-2.11-.83-2.11-2.29Z"/>
            <path class="cls-8" d="M225.34,21.06h1.94l1.48,9.1h-1.43l-.26-1.81v.03h-1.62l-.26,1.78h-1.33l1.48-9.1Zm1.56,6.08l-.64-4.5h-.03l-.62,4.5h1.29Z"/>
            <path class="cls-8" d="M229.46,28v-.52h1.35v.62c0,.65,.29,.88,.74,.88s.74-.23,.74-.91c0-.75-.29-1.23-1.22-2.05-1.2-1.05-1.59-1.79-1.59-2.83,0-1.43,.74-2.26,2.13-2.26s2.08,.83,2.08,2.29v.38h-1.35v-.47c0-.65-.26-.9-.71-.9s-.71,.25-.71,.87c0,.66,.3,1.14,1.23,1.96,1.2,1.05,1.57,1.78,1.57,2.91,0,1.48-.75,2.31-2.16,2.31s-2.11-.83-2.11-2.29Z"/>
            <path class="cls-8" d="M235.92,22.36h-1.49v-1.3h4.42v1.3h-1.5v7.8h-1.43v-7.8Z"/>
            <path class="cls-8" d="M239.79,21.06h3.9v1.3h-2.47v2.41h1.96v1.3h-1.96v2.8h2.47v1.3h-3.9v-9.1Z"/>
            <path class="cls-8" d="M244.77,21.06h2.12c1.48,0,2.12,.69,2.12,2.09v.56c0,.94-.3,1.53-.94,1.79v.03c.72,.22,.95,.9,.95,1.92v1.6c0,.44,.01,.77,.16,1.1h-1.46c-.08-.23-.13-.38-.13-1.12v-1.66c0-.84-.25-1.12-.9-1.12h-.49v3.9h-1.43v-9.1Zm1.95,3.9c.53,0,.86-.23,.86-.96v-.7c0-.65-.22-.94-.73-.94h-.65v2.6h.52Z"/>
            <path class="cls-8" d="M250.03,28v-.52h1.35v.62c0,.65,.29,.88,.74,.88s.74-.23,.74-.91c0-.75-.29-1.23-1.22-2.05-1.2-1.05-1.59-1.79-1.59-2.83,0-1.43,.74-2.26,2.13-2.26s2.08,.83,2.08,2.29v.38h-1.35v-.47c0-.65-.26-.9-.71-.9s-.71,.25-.71,.87c0,.66,.3,1.14,1.23,1.96,1.2,1.05,1.57,1.78,1.57,2.91,0,1.48-.75,2.31-2.16,2.31s-2.11-.83-2.11-2.29Z"/>
            <path class="cls-8" d="M0,52.05v-4.89c0-1.4,.73-2.24,2.11-2.24s2.11,.83,2.11,2.24v.96h-1.35v-1.05c0-.6-.29-.84-.72-.84s-.71,.25-.71,.84v5.08c0,.6,.29,.83,.71,.83s.72-.23,.72-.83v-1.39h1.35v1.29c0,1.4-.73,2.24-2.11,2.24S0,53.46,0,52.05Z"/>
            <path class="cls-8" d="M5.23,52v-4.78c0-1.46,.77-2.29,2.17-2.29s2.17,.83,2.17,2.29v4.78c0,1.46-.77,2.29-2.17,2.29s-2.17-.83-2.17-2.29Zm2.91,.09v-4.97c0-.65-.29-.9-.74-.9s-.74,.25-.74,.9v4.97c0,.65,.29,.9,.74,.9s.74-.25,.74-.9Z"/>
            <path class="cls-8" d="M10.79,45.06h2.04l.91,6.51h.03l.91-6.51h2.04v9.1h-1.35v-6.89h-.03l-1.04,6.89h-1.2l-1.04-6.89h-.03v6.89h-1.25v-9.1Z"/>
            <path class="cls-8" d="M18.05,45.06h2.11c1.43,0,2.13,.79,2.13,2.25v.9c0,1.46-.7,2.25-2.13,2.25h-.68v3.71h-1.43v-9.1Zm2.11,4.1c.46,0,.7-.21,.7-.86v-1.08c0-.65-.25-.86-.7-.86h-.68v2.79h.68Z"/>
            <path class="cls-8" d="M24.43,45.06h1.94l1.48,9.1h-1.43l-.26-1.81v.03h-1.62l-.26,1.78h-1.33l1.48-9.1Zm1.56,6.08l-.64-4.5h-.03l-.62,4.5h1.29Z"/>
            <path class="cls-8" d="M28.8,45.06h2.12c1.48,0,2.12,.69,2.12,2.09v.56c0,.94-.3,1.53-.94,1.79v.03c.72,.22,.95,.9,.95,1.92v1.6c0,.44,.01,.77,.16,1.1h-1.46c-.08-.23-.13-.38-.13-1.12v-1.66c0-.84-.25-1.12-.9-1.12h-.49v3.9h-1.43v-9.1Zm1.95,3.9c.53,0,.86-.23,.86-.96v-.7c0-.65-.22-.94-.73-.94h-.65v2.6h.52Z"/>
            <path class="cls-8" d="M34.3,45.06h3.9v1.3h-2.47v2.41h1.96v1.3h-1.96v2.8h2.47v1.3h-3.9v-9.1Z"/>
            <path class="cls-8" d="M39.27,45.06h2.18c1.43,0,2.13,.79,2.13,2.25v4.6c0,1.46-.7,2.25-2.13,2.25h-2.18v-9.1Zm2.16,7.8c.46,0,.73-.23,.73-.88v-4.73c0-.65-.27-.88-.73-.88h-.73v6.5h.73Z"/>
            <path class="cls-8" d="M48.27,46.36h-1.5v-1.3h4.42v1.3h-1.5v7.8h-1.43v-7.8Z"/>
            <path class="cls-8" d="M52.04,52v-4.78c0-1.46,.77-2.29,2.17-2.29s2.17,.83,2.17,2.29v4.78c0,1.46-.77,2.29-2.17,2.29s-2.17-.83-2.17-2.29Zm2.91,.09v-4.97c0-.65-.29-.9-.74-.9s-.74,.25-.74,.9v4.97c0,.65,.29,.9,.74,.9s.74-.25,.74-.9Z"/>
            <path class="cls-8" d="M59.57,45.06h1.44l.94,7.06h.03l.94-7.06h1.31l-1.38,9.1h-1.9l-1.38-9.1Z"/>
            <path class="cls-8" d="M65.17,45.06h3.9v1.3h-2.47v2.41h1.96v1.3h-1.96v2.8h2.47v1.3h-3.9v-9.1Z"/>
            <path class="cls-8" d="M70.15,45.06h2.12c1.48,0,2.12,.69,2.12,2.09v.56c0,.94-.3,1.53-.94,1.79v.03c.72,.22,.95,.9,.95,1.92v1.6c0,.44,.01,.77,.16,1.1h-1.46c-.08-.23-.13-.38-.13-1.12v-1.66c0-.84-.25-1.12-.9-1.12h-.49v3.9h-1.43v-9.1Zm1.95,3.9c.53,0,.86-.23,.86-.96v-.7c0-.65-.22-.94-.73-.94h-.65v2.6h.52Z"/>
            <path class="cls-8" d="M76.96,50.29l-1.73-5.23h1.52l.98,3.34h.03l.98-3.34h1.39l-1.73,5.23v3.87h-1.43v-3.87Z"/>
            <path class="cls-8" d="M83.37,45.06h1.43v7.8h2.35v1.3h-3.78v-9.1Z"/>
            <path class="cls-8" d="M88,52v-4.78c0-1.46,.77-2.29,2.17-2.29s2.17,.83,2.17,2.29v4.78c0,1.46-.77,2.29-2.17,2.29s-2.17-.83-2.17-2.29Zm2.91,.09v-4.97c0-.65-.29-.9-.74-.9s-.74,.25-.74,.9v4.97c0,.65,.29,.9,.74,.9s.74-.25,.74-.9Z"/>
            <path class="cls-8" d="M93.22,45.06h1.38l.64,6.99h.03l.68-6.99h1.56l.68,6.99h.03l.64-6.99h1.24l-.92,9.1h-1.78l-.65-6.14h-.03l-.65,6.14h-1.9l-.92-9.1Z"/>
            <path class="cls-8" d="M103.02,45.06h1.44l.94,7.06h.03l.94-7.06h1.31l-1.38,9.1h-1.9l-1.38-9.1Z"/>
            <path class="cls-8" d="M108.58,52v-6.94h1.43v7.05c0,.65,.27,.88,.73,.88s.73-.23,.73-.88v-7.05h1.38v6.94c0,1.46-.73,2.29-2.13,2.29s-2.13-.83-2.13-2.29Z"/>
            <path class="cls-8" d="M114.11,45.06h1.43v7.8h2.35v1.3h-3.78v-9.1Z"/>
            <path class="cls-8" d="M118.85,45.06h1.79l1.39,5.45h.03v-5.45h1.27v9.1h-1.47l-1.72-6.64h-.03v6.64h-1.27v-9.1Z"/>
            <path class="cls-8" d="M124.66,45.06h3.9v1.3h-2.47v2.41h1.96v1.3h-1.96v2.8h2.47v1.3h-3.9v-9.1Z"/>
            <path class="cls-8" d="M129.64,45.06h2.12c1.48,0,2.12,.69,2.12,2.09v.56c0,.94-.3,1.53-.94,1.79v.03c.72,.22,.95,.9,.95,1.92v1.6c0,.44,.01,.77,.16,1.1h-1.46c-.08-.23-.13-.38-.13-1.12v-1.66c0-.84-.25-1.12-.9-1.12h-.49v3.9h-1.43v-9.1Zm1.95,3.9c.53,0,.86-.23,.86-.96v-.7c0-.65-.22-.94-.73-.94h-.65v2.6h.52Z"/>
            <path class="cls-8" d="M136.24,45.06h1.94l1.48,9.1h-1.43l-.26-1.81v.03h-1.62l-.26,1.78h-1.33l1.48-9.1Zm1.56,6.08l-.64-4.5h-.03l-.62,4.5h1.29Z"/>
            <path class="cls-8" d="M140.61,45.06h2.16c1.48,0,2.12,.69,2.12,2.09v.36c0,.94-.29,1.52-.92,1.78v.03c.77,.26,1.07,.94,1.07,1.9v.78c0,1.4-.74,2.16-2.17,2.16h-2.25v-9.1Zm1.99,3.71c.53,0,.86-.23,.86-.96v-.51c0-.65-.22-.94-.73-.94h-.69v2.41h.56Zm.26,4.1c.48,0,.74-.22,.74-.9v-.79c0-.84-.27-1.1-.92-1.1h-.64v2.8h.82Z"/>
            <path class="cls-8" d="M146.12,45.06h1.43v9.1h-1.43v-9.1Z"/>
            <path class="cls-8" d="M148.87,45.06h1.43v7.8h2.35v1.3h-3.78v-9.1Z"/>
            <path class="cls-8" d="M153.61,45.06h1.43v9.1h-1.43v-9.1Z"/>
            <path class="cls-8" d="M157.48,46.36h-1.49v-1.3h4.42v1.3h-1.5v7.8h-1.43v-7.8Z"/>
            <path class="cls-8" d="M162.67,50.29l-1.73-5.23h1.52l.98,3.34h.03l.98-3.34h1.39l-1.73,5.23v3.87h-1.43v-3.87Z"/>
            <path class="cls-8" d="M169.08,45.06h2.12c1.48,0,2.12,.69,2.12,2.09v.56c0,.94-.3,1.53-.94,1.79v.03c.72,.22,.95,.9,.95,1.92v1.6c0,.44,.01,.77,.16,1.1h-1.46c-.08-.23-.13-.38-.13-1.12v-1.66c0-.84-.25-1.12-.9-1.12h-.49v3.9h-1.43v-9.1Zm1.95,3.9c.53,0,.86-.23,.86-.96v-.7c0-.65-.22-.94-.73-.94h-.65v2.6h.52Z"/>
            <path class="cls-8" d="M174.58,45.06h3.9v1.3h-2.47v2.41h1.96v1.3h-1.96v2.8h2.47v1.3h-3.9v-9.1Z"/>
            <path class="cls-8" d="M179.45,52v-4.78c0-1.46,.73-2.29,2.13-2.29s2.13,.83,2.13,2.29v.78h-1.35v-.87c0-.65-.29-.9-.74-.9s-.74,.25-.74,.9v4.98c0,.65,.29,.88,.74,.88s.74-.23,.74-.88v-1.78h-.72v-1.3h2.07v2.98c0,1.46-.73,2.29-2.13,2.29s-2.13-.83-2.13-2.29Z"/>
            <path class="cls-8" d="M184.9,45.06h1.43v9.1h-1.43v-9.1Z"/>
            <path class="cls-8" d="M187.55,52v-4.78c0-1.46,.77-2.29,2.17-2.29s2.17,.83,2.17,2.29v4.78c0,1.46-.77,2.29-2.17,2.29s-2.17-.83-2.17-2.29Zm2.91,.09v-4.97c0-.65-.29-.9-.74-.9s-.74,.25-.74,.9v4.97c0,.65,.29,.9,.74,.9s.74-.25,.74-.9Z"/>
            <path class="cls-8" d="M193.11,45.06h1.79l1.39,5.45h.03v-5.45h1.27v9.1h-1.47l-1.72-6.64h-.03v6.64h-1.27v-9.1Z"/>
            <path class="cls-8" d="M198.68,52v-.52h1.35v.62c0,.65,.29,.88,.74,.88s.74-.23,.74-.91c0-.75-.29-1.23-1.22-2.05-1.2-1.05-1.59-1.79-1.59-2.83,0-1.43,.74-2.26,2.13-2.26s2.08,.83,2.08,2.29v.38h-1.35v-.47c0-.65-.26-.9-.72-.9s-.71,.25-.71,.87c0,.66,.3,1.14,1.23,1.96,1.2,1.05,1.57,1.78,1.57,2.91,0,1.48-.75,2.31-2.16,2.31s-2.11-.83-2.11-2.29Z"/>
          </g>
        </g>
      </g>
    </g>
  </g>
</svg>