<?xml version="1.0" encoding="UTF-8"?>
<svg id="Layer_2" data-name="Layer 2" xmlns="http://www.w3.org/2000/svg" xmlns:xlink="http://www.w3.org/1999/xlink" viewBox="0 0 523.09 306.29">
  <defs>
    <style>
      .cls-1 {
        fill: #e6eae0;
      }

      .cls-2 {
        fill: url(#linear-gradient-2);
      }

      .cls-3 {
        fill: #f26b4e;
      }

      .cls-4, .cls-5 {
        fill: #fff;
      }

      .cls-6 {
        fill: #bdd2e9;
      }

      .cls-7 {
        fill: #99aa89;
      }

      .cls-8 {
        fill: #939598;
      }

      .cls-9 {
        fill: #708f5f;
      }

      .cls-10 {
        fill: #fde0d2;
      }

      .cls-11 {
        fill: #2572b5;
      }

      .cls-12 {
        stroke: #708f5f;
        stroke-dasharray: 0 0 0 3;
        stroke-linecap: round;
        stroke-linejoin: round;
        stroke-width: 1.75px;
      }

      .cls-12, .cls-13, .cls-14 {
        fill: none;
      }

      .cls-15 {
        fill: #c7dbee;
      }

      .cls-5 {
        stroke: #fff;
        stroke-width: 5px;
      }

      .cls-5, .cls-14 {
        stroke-miterlimit: 10;
      }

      .cls-16 {
        clip-path: url(#clippath-1);
      }

      .cls-17 {
        fill: #f69274;
      }

      .cls-18 {
        fill: #dfeaf6;
      }

      .cls-19 {
        fill: #777677;
      }

      .cls-20 {
        fill: #48773c;
      }

      .cls-21 {
        clip-path: url(#clippath);
      }

      .cls-22 {
        fill: #fabba1;
      }

      .cls-23 {
        fill: #203569;
      }

      .cls-24 {
        fill: #e8e8e8;
      }

      .cls-25 {
        fill: #a41e22;
      }

      .cls-26 {
        fill: #9ecae1;
      }

      .cls-27 {
        fill: #6baed6;
      }

      .cls-14 {
        stroke: #bdbcbb;
        stroke-width: .75px;
      }

      .cls-28 {
        fill: url(#linear-gradient-3);
      }

      .cls-29 {
        fill: url(#linear-gradient);
      }

      .cls-30 {
        fill: #ef3e2d;
      }

      .cls-31 {
        fill: #ca2027;
      }

      .cls-32 {
        fill: #660914;
      }

      .cls-33 {
        fill: #4493c6;
      }

      .cls-34 {
        fill: #0b539d;
      }
    </style>
    <linearGradient id="linear-gradient" x1="449.81" y1="150.39" x2="449.81" y2="231.29" gradientUnits="userSpaceOnUse">
      <stop offset="0" stop-color="#e6eae0"/>
      <stop offset="1" stop-color="#708f5f"/>
    </linearGradient>
    <clipPath id="clippath">
      <rect class="cls-13" x="389.3" y="139.8" width="71.99" height="149.59"/>
    </clipPath>
    <linearGradient id="linear-gradient-2" x1="419.58" y1="179.31" x2="419.58" y2="284.59" xlink:href="#linear-gradient"/>
    <clipPath id="clippath-1">
      <path class="cls-13" d="M18.08,304.9c.33,.84,1.16,1.38,2.06,1.39H237.85c.9-.02,1.73-.55,2.06-1.39,.36-.84,.16-1.81-.47-2.44l-108.85-108.85c-.87-.87-2.3-.87-3.17,0L18.55,302.46c-.63,.63-.84,1.6-.48,2.44h0Z"/>
    </clipPath>
    <linearGradient id="linear-gradient-3" x1="447.16" y1="668.08" x2="447.16" y2="773.48" gradientTransform="translate(712.1 943.62) rotate(-180)" gradientUnits="userSpaceOnUse">
      <stop offset="0" stop-color="#fff"/>
      <stop offset="1" stop-color="#ef412a"/>
    </linearGradient>
  </defs>
  <g id="Layer_2-2" data-name="Layer 2">
    <g>
      <path class="cls-9" d="M242.17,16.85h-4.6v-4h13.6v4h-4.6v24h-4.4V16.85Z"/>
      <path class="cls-9" d="M254.8,12.85h4.4v28h-4.4V12.85Z"/>
      <path class="cls-9" d="M263.49,12.85h6.48c4.4,0,6.56,2.44,6.56,6.92v2.76c0,4.48-2.16,6.92-6.56,6.92h-2.08v11.4h-4.4V12.85Zm6.48,12.6c1.4,0,2.16-.64,2.16-2.64v-3.32c0-2-.76-2.64-2.16-2.64h-2.08v8.6h2.08Z"/>
      <path class="cls-9" d="M280.29,12.85h6.48c4.4,0,6.56,2.44,6.56,6.92v2.76c0,4.48-2.16,6.92-6.56,6.92h-2.08v11.4h-4.4V12.85Zm6.48,12.6c1.4,0,2.16-.64,2.16-2.64v-3.32c0-2-.76-2.64-2.16-2.64h-2.08v8.6h2.08Z"/>
      <path class="cls-9" d="M297.1,12.85h4.4v28h-4.4V12.85Z"/>
      <path class="cls-9" d="M305.79,12.85h5.52l4.28,16.76h.08V12.85h3.92v28h-4.52l-5.28-20.44h-.08v20.44h-3.92V12.85Z"/>
      <path class="cls-9" d="M323.7,34.2v-14.72c0-4.48,2.24-7.04,6.56-7.04s6.56,2.56,6.56,7.04v2.4h-4.16v-2.68c0-2-.88-2.76-2.28-2.76s-2.28,.76-2.28,2.76v15.32c0,2,.88,2.72,2.28,2.72s2.28-.72,2.28-2.72v-5.48h-2.2v-4h6.36v9.16c0,4.48-2.24,7.04-6.56,7.04s-6.56-2.56-6.56-7.04Z"/>
    </g>
    <path class="cls-29" d="M471.09,162.29c0-1.64-.91-3.16-2.37-3.96l-.95-.52,.48-.97c.56-1.15,.72-2.42,.46-3.67-.43-2.05-2.08-3.78-4.11-4.3-1.19-.3-2.37-.23-3.5,.21l-.81,.32-.52-.69c-.93-1.24-2.33-2.06-3.86-2.24l-.75-.09-.21-.72c-.84-2.89-3.52-4.9-6.53-4.9-2.82,0-5.31,1.7-6.33,4.34l-.41,1.05-1.05-.4c-1.57-.6-3.25-.6-4.82,0l-1.05,.4-.41-1.05c-.96-2.47-3.21-4.1-5.81-4.3v36.24h34.38c3.09,0,5.68-2.3,5.9-5.23,.1-1.31-.24-2.57-.98-3.64l-.79-1.14,1.28-.54c1.68-.71,2.77-2.35,2.77-4.18Z"/>
    <g class="cls-21">
      <g>
        <g>
          <path class="cls-2" d="M392.4,271.17h7.79v-97.44c0-1.19-.96-2.15-2.15-2.15h-.9c-3.1,0-5.74-2.31-6-5.26-.05-.52-.02-1.03,.07-1.54-3.18-.02-5.76-2.6-5.76-5.78s2.53-5.72,5.67-5.78c.06-4.39,3.65-7.94,8.05-7.94,.81,0,1.62,.13,2.41,.37,.92-3.56,4.1-6.04,7.79-6.04,3.3,0,6.22,1.97,7.46,5.03,.89-.32,1.81-.49,2.75-.49s1.86,.16,2.75,.49c1.24-3.06,4.15-5.03,7.46-5.03,3.53,0,6.69,2.35,7.71,5.73,1.81,.24,3.47,1.2,4.58,2.66,.79-.3,1.61-.45,2.44-.45,.58,0,1.17,.07,1.75,.22,2.48,.63,4.5,2.74,5.03,5.25,.31,1.5,.13,3.01-.51,4.38,1.81,1.03,2.93,2.94,2.93,5,0,2.28-1.33,4.34-3.4,5.27,.85,1.29,1.23,2.78,1.12,4.33-.27,3.58-3.41,6.39-7.15,6.39h-20.16c-2.3,0-4.44-1.15-5.74-3.08l-.98-1.46s-5.76,0-5.76,0c-1.19,0-2.15,.96-2.15,2.15v95.17h7.87l-12.48,17.92-12.48-17.92Zm-1.16-106.58l.22-1.06h-.17s-.05,1.06-.05,1.06Z"/>
          <path class="cls-4" d="M429.78,140.86c3.01,0,5.69,2.02,6.53,4.9l.21,.72,.75,.09c1.53,.18,2.93,1,3.86,2.24l.52,.69,.81-.32c.67-.27,1.36-.4,2.07-.4,.48,0,.96,.06,1.44,.18,2.03,.52,3.68,2.24,4.11,4.3,.26,1.26,.1,2.53-.46,3.67l-.48,.97,.95,.52c1.47,.8,2.37,2.32,2.37,3.96,0,1.83-1.09,3.47-2.77,4.18l-1.28,.54,.79,1.14c.74,1.07,1.08,2.33,.98,3.64-.22,2.93-2.81,5.23-5.9,5.23h-20.16c-1.92,0-3.66-.98-4.7-2.52,3.99-.95,6.97-4.54,6.97-8.81h-2.27c0,3.75-3.05,6.8-6.8,6.8h-5.67c-1.88,0-3.4,1.53-3.4,3.4v96.42h6.72l-10.08,14.49-10.08-14.49h6.64v-98.69c0-1.88-1.53-3.4-3.4-3.4h-.9c-2.46,0-4.55-1.81-4.75-4.12-.04-.45-.01-.89,.08-1.33l.28-1.38-1.41,.02c-.07,0-.14,0-.1,.01-2.5,0-4.54-2.03-4.54-4.53s2.03-4.53,4.54-4.53h1.13v-1.13c0-3.75,3.05-6.8,6.8-6.8,.72,0,1.44,.12,2.14,.35l1.17,.39,.29-1.2c.74-3.07,3.45-5.21,6.61-5.21,2.82,0,5.31,1.7,6.33,4.34l.41,1.05,1.05-.4c.78-.3,1.6-.45,2.41-.45s1.63,.15,2.41,.45l1.05,.4,.41-1.05c1.03-2.63,3.51-4.34,6.33-4.34m0-2.5c-3.43,0-6.5,1.84-8.12,4.78-.68-.16-1.38-.24-2.08-.24s-1.4,.08-2.08,.24c-1.62-2.94-4.69-4.78-8.12-4.78-3.84,0-7.22,2.33-8.62,5.81-.53-.09-1.06-.14-1.59-.14-4.71,0-8.61,3.51-9.22,8.05-3.27,.6-5.75,3.48-5.75,6.92s2.44,6.26,5.67,6.9c0,.18,.01,.35,.03,.53,.32,3.6,3.5,6.41,7.24,6.41h.9c.5,0,.9,.4,.9,.9v96.19h-8.93l2.73,3.93,10.08,14.49,2.05,2.95,2.05-2.95,10.08-14.49,2.73-3.93h-9.01v-93.92c0-.5,.4-.9,.9-.9h5.09l.61,.9c1.53,2.27,4.06,3.63,6.77,3.63h20.16c4.39,0,8.08-3.31,8.39-7.54,.1-1.38-.13-2.72-.68-3.95,1.84-1.3,2.97-3.43,2.97-5.75,0-2.14-.99-4.15-2.65-5.47,.43-1.34,.5-2.76,.21-4.16-.62-2.97-3.01-5.46-5.94-6.21-.68-.17-1.37-.26-2.06-.26s-1.37,.09-2.03,.26c-1.1-1.15-2.51-1.95-4.05-2.31-1.39-3.5-4.83-5.88-8.65-5.88h0Z"/>
        </g>
        <g>
          <path class="cls-4" d="M426.51,153.24c-.4-.95-1.13-1.71-2.03-2.19,.9,.48,1.63,1.24,2.03,2.19Z"/>
          <path class="cls-4" d="M426.86,154.97v4.46c0,.62-.13,1.2-.35,1.74,.23-.53,.35-1.12,.35-1.74v-4.46c0-.62-.13-1.2-.35-1.74,.23,.53,.35,1.12,.35,1.74Z"/>
          <path class="cls-4" d="M424.48,163.36c.9-.48,1.63-1.24,2.03-2.19-.4,.95-1.13,1.71-2.03,2.19Z"/>
          <path class="cls-4" d="M417.93,159.44v-4.46c0-1.71,.97-3.17,2.38-3.93-1.41,.75-2.38,2.22-2.38,3.93v4.46c0,1.71,.97,3.17,2.38,3.93-1.41-.75-2.38-2.22-2.38-3.93Z"/>
          <path class="cls-4" d="M413.47,159.44c0,.41-.12,.78-.31,1.11,.19-.33,.31-.71,.31-1.11h0Z"/>
          <path class="cls-4" d="M410.24,161.42c.08,.04,.15,.07,.23,.1-.08-.03-.16-.06-.23-.1Z"/>
          <path class="cls-4" d="M413.47,154.97h0c0-.46-.14-.89-.38-1.25,.24,.36,.38,.79,.38,1.25Z"/>
          <path class="cls-4" d="M410.79,152.79c-.29,.06-.56,.18-.8,.34,.24-.16,.51-.28,.8-.34Z"/>
          <path class="cls-4" d="M406.77,159.44v-4.46c0-1.54,.78-2.9,1.97-3.7-1.19,.8-1.97,2.16-1.97,3.7v4.46c0,1.54,.78,2.9,1.97,3.7-1.19-.8-1.97-2.16-1.97-3.7Z"/>
          <path class="cls-4" d="M415.7,154.97h0c0-1.54-.78-2.9-1.97-3.7,1.19,.8,1.97,2.16,1.97,3.7Z"/>
          <path class="cls-4" d="M413.73,163.14c1.19-.8,1.97-2.16,1.97-3.7h0c0,1.54-.78,2.9-1.97,3.7Z"/>
          <path class="cls-4" d="M409.99,153.12c-.59,.4-.99,1.08-.99,1.85v4.46c0,.62,.25,1.17,.65,1.58-.4-.4-.65-.96-.65-1.58v-4.46c0-.77,.39-1.45,.99-1.85Z"/>
          <path class="cls-4" d="M433.56,160.56c0-.46-.28-.86-.68-1.03,.4,.17,.68,.57,.68,1.03v.19c0,.3-.12,.58-.33,.79,.21-.21,.33-.49,.33-.79v-.19Z"/>
          <path class="cls-4" d="M431.14,157.47c-1,.42-1.75,1.32-1.98,2.41,.22-1.09,.98-1.99,1.98-2.41Z"/>
          <path class="cls-4" d="M433.55,157.41c-.35-.12-.72-.2-1.11-.2-.46,0-.9,.09-1.3,.26,.4-.17,.84-.26,1.3-.26,.39,0,.76,.08,1.11,.2Z"/>
          <path class="cls-4" d="M435.22,158.68c-.19-.28-.42-.51-.68-.72,.26,.21,.49,.44,.68,.72Z"/>
          <path class="cls-4" d="M431.79,166.14h0l3.02-3.02c.16-.16,.3-.33,.42-.51-.12,.18-.26,.35-.42,.51l-3.02,3.02Z"/>
          <path class="cls-4" d="M435.22,158.68c.36,.53,.57,1.18,.57,1.87v.19c0,.22-.02,.44-.06,.66,.04-.21,.06-.43,.06-.66v-.19c0-.69-.21-1.34-.57-1.87Z"/>
          <rect class="cls-4" x="429.1" y="161.67" width="2.23" height="0"/>
          <path class="cls-4" d="M412.11,161.5c-.27,.11-.56,.18-.87,.18-.27,0-.53-.06-.77-.14,.24,.09,.5,.14,.77,.14,.31,0,.6-.06,.87-.18Z"/>
          <path class="cls-4" d="M413.16,160.55c-.24,.42-.61,.75-1.06,.94,.45-.19,.81-.53,1.06-.94Z"/>
          <path class="cls-4" d="M431.33,160.56v1.12h0v-1.12c0-.46,.28-.86,.68-1.03-.4,.17-.68,.57-.68,1.03Z"/>
          <path class="cls-4" d="M408.74,163.14c.71,.48,1.57,.76,2.49,.76s1.78-.28,2.49-.76c-.71,.48-1.57,.76-2.49,.76s-1.78-.28-2.49-.76Z"/>
          <path class="cls-4" d="M410.24,161.42c-.21-.11-.41-.24-.58-.41,.17,.17,.36,.3,.58,.41Z"/>
          <path class="cls-4" d="M413.73,151.27c-.71-.48-1.57-.76-2.49-.76s-1.78,.28-2.49,.76c.71-.48,1.57-.76,2.49-.76s1.78,.28,2.49,.76Z"/>
          <rect class="cls-4" x="429.1" y="168.37" width="5.58" height="0"/>
          <path class="cls-4" d="M424.48,151.05c-.62-.33-1.33-.54-2.08-.54s-1.46,.21-2.08,.54c.62-.33,1.33-.54,2.08-.54s1.46,.21,2.08,.54Z"/>
          <path class="cls-4" d="M420.32,163.36c.62,.33,1.33,.54,2.08,.54s1.46-.21,2.08-.54c-.62,.33-1.33,.54-2.08,.54s-1.46-.21-2.08-.54Z"/>
          <path class="cls-4" d="M433.55,157.41c.36,.13,.69,.32,.99,.55-.29-.24-.62-.43-.99-.55Z"/>
          <path class="cls-4" d="M421.26,161.35c-.06-.04-.12-.08-.18-.12,.06,.04,.12,.08,.18,.12Z"/>
          <path class="cls-4" d="M423.27,161.5c.53-.23,.96-.65,1.19-1.19-.23,.53-.65,.96-1.19,1.19Z"/>
          <path class="cls-4" d="M421.73,161.56c.21,.07,.43,.11,.67,.11,.31,0,.6-.06,.87-.18-.27,.11-.56,.18-.87,.18-.23,0-.46-.05-.67-.11Z"/>
          <path class="cls-4" d="M422.4,152.74h0c.31,0,.6,.06,.87,.18-.27-.11-.56-.18-.87-.18Z"/>
          <path class="cls-4" d="M426.86,154.97c0-.62-.13-1.2-.35-1.74-.4-.95-1.13-1.71-2.03-2.19-.62-.33-1.33-.54-2.08-.54s-1.46,.21-2.08,.54c-1.41,.75-2.38,2.22-2.38,3.93v4.46c0,1.71,.97,3.17,2.38,3.93,.62,.33,1.33,.54,2.08,.54s1.46-.21,2.08-.54c.9-.48,1.63-1.24,2.03-2.19,.23-.53,.35-1.12,.35-1.74v-4.46Zm-2.23,4.46c0,.31-.06,.6-.18,.87-.23,.53-.65,.96-1.19,1.19-.27,.11-.56,.18-.87,.18-.23,0-.46-.05-.67-.11-.16-.05-.32-.12-.47-.21-.06-.04-.12-.08-.18-.12-.55-.41-.91-1.06-.91-1.79v-4.46c0-1.23,1-2.23,2.23-2.23h0c.31,0,.6,.06,.87,.18,.8,.34,1.36,1.13,1.36,2.06v4.46Z"/>
          <path class="cls-4" d="M409,159.44v-4.46c0-.77,.39-1.45,.99-1.85,.24-.16,.51-.28,.8-.34,.15-.03,.3-.05,.45-.05,.77,0,1.45,.39,1.85,.98,.24,.36,.38,.79,.38,1.25h2.23c0-1.54-.78-2.9-1.97-3.7-.71-.48-1.57-.76-2.49-.76s-1.78,.28-2.49,.76c-1.19,.8-1.97,2.16-1.97,3.7v4.46c0,1.54,.78,2.9,1.97,3.7,.71,.48,1.57,.76,2.49,.76s1.78-.28,2.49-.76c1.19-.8,1.97-2.16,1.97-3.7h-2.23c0,.41-.12,.78-.31,1.11-.24,.42-.61,.75-1.06,.94-.27,.11-.56,.18-.87,.18-.27,0-.53-.06-.77-.14-.08-.03-.16-.07-.23-.1-.21-.11-.41-.24-.58-.41-.4-.4-.65-.96-.65-1.58Z"/>
          <path class="cls-4" d="M435.79,160.56c0-.69-.21-1.34-.57-1.87-.19-.28-.42-.51-.68-.72-.29-.24-.62-.43-.99-.55-.35-.12-.72-.2-1.11-.2-.46,0-.9,.09-1.3,.26-1,.42-1.75,1.32-1.98,2.41-.04,.22-.07,.44-.07,.67v1.12h2.23v-1.12c0-.46,.28-.86,.68-1.03,.13-.06,.28-.09,.43-.09s.3,.03,.43,.09c.4,.17,.68,.57,.68,1.03v.19c0,.3-.12,.58-.33,.79l-4.14,4.14v2.69h5.58v-2.23h-2.89l3.02-3.02c.16-.16,.3-.33,.42-.51,.24-.36,.41-.77,.5-1.2,.04-.21,.06-.43,.06-.66v-.19Z"/>
          <path class="cls-4" d="M421.73,161.56c-.16-.05-.32-.12-.47-.21,.15,.09,.3,.15,.47,.21Z"/>
          <path class="cls-4" d="M420.17,159.44v-4.46c0-1.23,1-2.23,2.23-2.23h0c-1.23,0-2.23,1-2.23,2.23v4.46c0,.74,.36,1.39,.91,1.79-.55-.41-.91-1.06-.91-1.79Z"/>
        </g>
        <g>
          <path class="cls-4" d="M395.02,153.49h2.23c0-1.23,1-2.23,2.23-2.23v-2.23c-2.46,0-4.46,2-4.46,4.46Z"/>
          <g>
            <path class="cls-4" d="M395.02,153.49h2.23c0-1.23,1-2.23,2.23-2.23v-2.23c-2.46,0-4.46,2-4.46,4.46Z"/>
            <g>
              <path class="cls-4" d="M395.02,153.49h2.23c0-1.23,1-2.23,2.23-2.23v-2.23c-2.46,0-4.46,2-4.46,4.46Z"/>
              <path class="cls-4" d="M431.86,147.91h2.23c0-2.46-2-4.46-4.46-4.46v2.23c1.23,0,2.23,1,2.23,2.23Z"/>
              <g>
                <path class="cls-4" d="M395.02,153.49h2.23c0-1.23,1-2.23,2.23-2.23v-2.23c-2.46,0-4.46,2-4.46,4.46Z"/>
                <path class="cls-4" d="M431.86,147.91h2.23c0-2.46-2-4.46-4.46-4.46v2.23c1.23,0,2.23,1,2.23,2.23Z"/>
                <path class="cls-4" d="M399.49,151.25c-1.23,0-2.23,1-2.23,2.23h-2.23c0-2.46,2-4.46,4.46-4.46v2.23Zm30.14-7.81c2.46,0,4.46,2,4.46,4.46h-2.23c0-1.23-1-2.23-2.23-2.23v-2.23Z"/>
              </g>
            </g>
          </g>
        </g>
      </g>
    </g>
    <rect class="cls-24" x="389.34" y="106.89" width="132.75" height="28.93"/>
    <g>
      <path class="cls-19" d="M419.89,116.39h1.48l.69,7.54h.03l.73-7.54h1.68l.73,7.54h.03l.69-7.54h1.33l-.99,9.81h-1.92l-.7-6.61h-.03l-.7,6.61h-2.05l-.99-9.81Z"/>
      <path class="cls-19" d="M428.67,116.39h1.54v3.99h1.65v-3.99h1.54v9.81h-1.54v-4.41h-1.65v4.41h-1.54v-9.81Z"/>
      <path class="cls-19" d="M436.37,116.39h2.09l1.6,9.81h-1.54l-.28-1.95v.03h-1.75l-.28,1.92h-1.43l1.6-9.81Zm1.68,6.56l-.69-4.85h-.03l-.67,4.85h1.39Z"/>
      <path class="cls-19" d="M442.15,117.79h-1.61v-1.4h4.76v1.4h-1.61v8.4h-1.54v-8.4Z"/>
      <path class="cls-19" d="M449.01,116.39h1.48l.69,7.54h.03l.73-7.54h1.68l.73,7.54h.03l.69-7.54h1.33l-.99,9.81h-1.92l-.7-6.61h-.03l-.7,6.61h-2.04l-.99-9.81Z"/>
      <path class="cls-19" d="M457.79,116.39h4.2v1.4h-2.66v2.59h2.12v1.4h-2.12v3.01h2.66v1.4h-4.2v-9.81Z"/>
      <path class="cls-19" d="M466.2,116.39h1.93l1.5,5.87h.03v-5.87h1.37v9.81h-1.58l-1.85-7.16h-.03v7.16h-1.37v-9.81Z"/>
      <path class="cls-19" d="M472.65,116.39h4.2v1.4h-2.66v2.59h2.12v1.4h-2.12v3.01h2.66v1.4h-4.2v-9.81Z"/>
      <path class="cls-19" d="M478.29,116.39h4.2v1.4h-2.66v2.59h2.12v1.4h-2.12v3.01h2.66v1.4h-4.2v-9.81Z"/>
      <path class="cls-19" d="M483.93,116.39h2.35c1.54,0,2.3,.85,2.3,2.42v4.96c0,1.57-.76,2.42-2.3,2.42h-2.35v-9.81Zm2.33,8.4c.49,0,.78-.25,.78-.95v-5.1c0-.7-.29-.95-.78-.95h-.78v7h.78Z"/>
    </g>
    <line class="cls-14" x1="389.12" y1="136.04" x2="522.22" y2="136.04"/>
    <rect class="cls-1" y="60.54" width="522.89" height="27.67"/>
    <g>
      <path class="cls-20" d="M115.1,78.19v-.76h1.98v.91c0,.95,.42,1.29,1.08,1.29s1.08-.34,1.08-1.33c0-1.1-.42-1.8-1.79-3-1.75-1.54-2.32-2.62-2.32-4.14,0-2.09,1.08-3.31,3.12-3.31s3.04,1.22,3.04,3.34v.55h-1.98v-.68c0-.95-.38-1.31-1.04-1.31s-1.04,.36-1.04,1.27c0,.97,.44,1.67,1.81,2.87,1.75,1.54,2.3,2.6,2.3,4.26,0,2.17-1.1,3.38-3.15,3.38s-3.08-1.22-3.08-3.34Z"/>
      <path class="cls-20" d="M125.12,69.95h-2.18v-1.9h6.46v1.9h-2.18v11.4h-2.09v-11.4Z"/>
      <path class="cls-20" d="M132.19,68.05h2.83l2.17,13.3h-2.09l-.38-2.64v.04h-2.38l-.38,2.6h-1.94l2.17-13.3Zm2.28,8.89l-.93-6.57h-.04l-.91,6.57h1.88Z"/>
      <path class="cls-20" d="M139.02,68.05h2.62l2.03,7.96h.04v-7.96h1.86v13.3h-2.15l-2.51-9.71h-.04v9.71h-1.86v-13.3Z"/>
      <path class="cls-20" d="M147.74,68.05h3.19c2.09,0,3.12,1.16,3.12,3.29v6.73c0,2.13-1.03,3.29-3.12,3.29h-3.19v-13.3Zm3.15,11.4c.66,0,1.06-.34,1.06-1.29v-6.92c0-.95-.4-1.29-1.06-1.29h-1.06v9.5h1.06Z"/>
      <path class="cls-20" d="M156.12,68.05h2.09v13.3h-2.09v-13.3Z"/>
      <path class="cls-20" d="M160.36,68.05h2.62l2.03,7.96h.04v-7.96h1.86v13.3h-2.15l-2.51-9.71h-.04v9.71h-1.86v-13.3Z"/>
      <path class="cls-20" d="M168.98,78.19v-6.99c0-2.13,1.06-3.34,3.12-3.34s3.12,1.22,3.12,3.34v1.14h-1.98v-1.27c0-.95-.42-1.31-1.08-1.31s-1.08,.36-1.08,1.31v7.28c0,.95,.42,1.29,1.08,1.29s1.08-.34,1.08-1.29v-2.6h-1.04v-1.9h3.02v4.35c0,2.13-1.06,3.34-3.12,3.34s-3.12-1.22-3.12-3.34Z"/>
      <path class="cls-20" d="M182.7,68.05h2.83l2.17,13.3h-2.09l-.38-2.64v.04h-2.38l-.38,2.6h-1.94l2.17-13.3Zm2.28,8.89l-.93-6.57h-.04l-.91,6.57h1.88Z"/>
      <path class="cls-20" d="M190.52,69.95h-2.18v-1.9h6.46v1.9h-2.18v11.4h-2.09v-11.4Z"/>
      <path class="cls-20" d="M201.95,69.95h-2.18v-1.9h6.46v1.9h-2.18v11.4h-2.09v-11.4Z"/>
      <path class="cls-20" d="M208.06,68.05h2.09v5.41h2.24v-5.41h2.09v13.3h-2.09v-5.98h-2.24v5.98h-2.09v-13.3Z"/>
      <path class="cls-20" d="M216.65,68.05h5.7v1.9h-3.61v3.51h2.87v1.9h-2.87v4.08h3.61v1.9h-5.7v-13.3Z"/>
      <path class="cls-20" d="M228.07,68.05h3.15c2.17,0,3.1,1.01,3.1,3.06v.53c0,1.37-.42,2.22-1.35,2.6v.04c1.12,.38,1.56,1.37,1.56,2.77v1.14c0,2.05-1.08,3.15-3.17,3.15h-3.29v-13.3Zm2.91,5.41c.78,0,1.25-.34,1.25-1.41v-.74c0-.95-.32-1.37-1.06-1.37h-1.01v3.51h.82Zm.38,5.98c.7,0,1.08-.32,1.08-1.31v-1.16c0-1.23-.4-1.61-1.35-1.61h-.93v4.08h1.2Z"/>
      <path class="cls-20" d="M236.47,68.05h3.1c2.17,0,3.1,1.01,3.1,3.06v.82c0,1.37-.44,2.24-1.37,2.62v.04c1.04,.32,1.39,1.31,1.39,2.81v2.34c0,.65,.02,1.12,.23,1.61h-2.13c-.11-.34-.19-.55-.19-1.63v-2.43c0-1.23-.36-1.63-1.31-1.63h-.72v5.7h-2.09v-13.3Zm2.85,5.7c.78,0,1.25-.34,1.25-1.41v-1.03c0-.95-.32-1.37-1.06-1.37h-.95v3.8h.76Z"/>
      <path class="cls-20" d="M244.84,68.05h2.09v13.3h-2.09v-13.3Z"/>
      <path class="cls-20" d="M249.08,68.05h2.62l2.03,7.96h.04v-7.96h1.86v13.3h-2.15l-2.51-9.71h-.04v9.71h-1.86v-13.3Z"/>
      <path class="cls-20" d="M257.81,68.05h2.09v5.6l2.66-5.6h2.09l-2.49,4.88,2.53,8.42h-2.18l-1.77-5.93-.84,1.69v4.24h-2.09v-13.3Z"/>
      <path class="cls-20" d="M270.04,78.19v-6.99c0-2.13,1.12-3.34,3.17-3.34s3.17,1.22,3.17,3.34v6.99c0,2.13-1.12,3.34-3.17,3.34s-3.17-1.22-3.17-3.34Zm4.26,.13v-7.26c0-.95-.42-1.31-1.08-1.31s-1.08,.36-1.08,1.31v7.26c0,.95,.42,1.31,1.08,1.31s1.08-.36,1.08-1.31Z"/>
      <path class="cls-20" d="M278.45,68.05h5.53v1.9h-3.44v3.7h2.7v1.9h-2.7v5.79h-2.09v-13.3Z"/>
      <path class="cls-20" d="M289.38,78.27v-7.14c0-2.05,1.06-3.27,3.08-3.27s3.08,1.22,3.08,3.27v1.41h-1.98v-1.54c0-.87-.42-1.23-1.04-1.23s-1.04,.36-1.04,1.23v7.43c0,.87,.42,1.22,1.04,1.22s1.04-.34,1.04-1.22v-2.03h1.98v1.88c0,2.05-1.06,3.27-3.08,3.27s-3.08-1.22-3.08-3.27Z"/>
      <path class="cls-20" d="M297.49,68.05h2.09v11.4h3.44v1.9h-5.53v-13.3Z"/>
      <path class="cls-20" d="M304.85,68.05h2.09v13.3h-2.09v-13.3Z"/>
      <path class="cls-20" d="M309.09,68.05h2.98l1.33,9.52h.04l1.33-9.52h2.98v13.3h-1.98v-10.07h-.04l-1.52,10.07h-1.75l-1.52-10.07h-.04v10.07h-1.82v-13.3Z"/>
      <path class="cls-20" d="M321.77,68.05h2.83l2.17,13.3h-2.09l-.38-2.64v.04h-2.38l-.38,2.6h-1.94l2.17-13.3Zm2.28,8.89l-.93-6.57h-.04l-.91,6.57h1.88Z"/>
      <path class="cls-20" d="M329.58,69.95h-2.18v-1.9h6.46v1.9h-2.18v11.4h-2.09v-11.4Z"/>
      <path class="cls-20" d="M335.69,68.05h5.7v1.9h-3.61v3.51h2.87v1.9h-2.87v4.08h3.61v1.9h-5.7v-13.3Z"/>
      <path class="cls-20" d="M346.98,78.27v-7.14c0-2.05,1.06-3.27,3.08-3.27s3.08,1.22,3.08,3.27v1.41h-1.98v-1.54c0-.87-.42-1.23-1.04-1.23s-1.04,.36-1.04,1.23v7.43c0,.87,.42,1.22,1.04,1.22s1.04-.34,1.04-1.22v-2.03h1.98v1.88c0,2.05-1.06,3.27-3.08,3.27s-3.08-1.22-3.08-3.27Z"/>
      <path class="cls-20" d="M356.8,68.05h2.83l2.17,13.3h-2.09l-.38-2.64v.04h-2.38l-.38,2.6h-1.94l2.17-13.3Zm2.28,8.89l-.93-6.57h-.04l-.91,6.57h1.88Z"/>
      <path class="cls-20" d="M363.63,68.05h2.09v11.4h3.44v1.9h-5.53v-13.3Z"/>
      <path class="cls-20" d="M372.89,68.05h2.83l2.17,13.3h-2.09l-.38-2.64v.04h-2.38l-.38,2.6h-1.94l2.17-13.3Zm2.28,8.89l-.93-6.57h-.04l-.91,6.57h1.88Z"/>
      <path class="cls-20" d="M379.72,68.05h2.98l1.33,9.52h.04l1.33-9.52h2.98v13.3h-1.98v-10.07h-.04l-1.52,10.07h-1.75l-1.52-10.07h-.04v10.07h-1.82v-13.3Z"/>
      <path class="cls-20" d="M390.55,68.05h2.09v13.3h-2.09v-13.3Z"/>
      <path class="cls-20" d="M396.65,69.95h-2.18v-1.9h6.46v1.9h-2.18v11.4h-2.09v-11.4Z"/>
      <path class="cls-20" d="M404.99,75.68l-2.53-7.64h2.22l1.42,4.88h.04l1.42-4.88h2.03l-2.53,7.64v5.66h-2.09v-5.66Z"/>
    </g>
    <rect class="cls-14" x="389.41" y="106.61" width="133.31" height="188.51"/>
    <g>
      <path class="cls-20" d="M105.02,.45h13.5V4.95h-8.55V13.27h6.79v4.5h-6.79v9.67h8.55v4.5h-13.5V.45Z"/>
      <path class="cls-20" d="M127.28,.45h6.7l5.13,31.5h-4.95l-.9-6.25v.09h-5.62l-.9,6.16h-4.59L127.28,.45Zm5.4,21.06l-2.2-15.57h-.09l-2.16,15.57h4.45Z"/>
      <path class="cls-20" d="M143.14,.45h7.33c5.13,0,7.33,2.38,7.33,7.24v1.93c0,3.24-1.03,5.31-3.24,6.21v.09c2.48,.77,3.28,3.1,3.28,6.66v5.53c0,1.53,.05,2.65,.54,3.82h-5.04c-.27-.81-.45-1.31-.45-3.87v-5.76c0-2.93-.85-3.87-3.1-3.87h-1.71v13.5h-4.95V.45Zm6.75,13.5c1.84,0,2.97-.81,2.97-3.33v-2.43c0-2.25-.77-3.24-2.52-3.24h-2.25V13.95h1.8Z"/>
      <path class="cls-20" d="M166.82,4.95h-5.17V.45h15.3V4.95h-5.17V31.95h-4.95V4.95Z"/>
      <path class="cls-20" d="M180.97,.45h4.95V13.27h5.31V.45h4.95V31.95h-4.95v-14.17h-5.31v14.17h-4.95V.45Z"/>
      <path class="cls-20" d="M202.6,5.22h-1.62V.45h4.77V4.72l-2.75,5.9h-2.29l1.89-5.4Z"/>
      <path class="cls-20" d="M209.82,24.48v-1.8h4.68v2.16c0,2.25,.99,3.06,2.56,3.06s2.56-.81,2.56-3.15c0-2.61-.99-4.27-4.23-7.11-4.14-3.64-5.49-6.21-5.49-9.81,0-4.95,2.56-7.83,7.38-7.83s7.2,2.88,7.2,7.92v1.3h-4.68v-1.62c0-2.25-.9-3.1-2.47-3.1s-2.48,.85-2.48,3.01c0,2.29,1.04,3.96,4.27,6.79,4.14,3.64,5.44,6.16,5.44,10.08,0,5.13-2.61,8.01-7.47,8.01s-7.29-2.88-7.29-7.92Z"/>
    </g>
    <g>
      <path class="cls-7" d="M352.19,24h5.83c3.96,0,5.9,2.2,5.9,6.23v2.48c0,4.03-1.94,6.23-5.9,6.23h-1.87v10.26h-3.96V24Zm5.83,11.34c1.26,0,1.94-.58,1.94-2.38v-2.99c0-1.8-.68-2.38-1.94-2.38h-1.87v7.74h1.87Z"/>
      <path class="cls-7" d="M367.22,43.22v-13.25c0-4.03,2.12-6.33,6.01-6.33s6.01,2.3,6.01,6.33v13.25c0,4.03-2.12,6.33-6.01,6.33s-6.01-2.3-6.01-6.33Zm8.06,.25v-13.75c0-1.8-.79-2.48-2.05-2.48s-2.05,.68-2.05,2.48v13.75c0,1.8,.79,2.48,2.05,2.48s2.05-.68,2.05-2.48Z"/>
      <path class="cls-7" d="M383,24h3.96v25.2h-3.96V24Z"/>
      <path class="cls-7" d="M390.87,24h4.97l3.85,15.08h.07v-15.08h3.53v25.2h-4.07l-4.75-18.39h-.07v18.39h-3.53V24Z"/>
      <path class="cls-7" d="M410.74,27.6h-4.14v-3.6h12.24v3.6h-4.14v21.6h-3.96V27.6Z"/>
    </g>
    <g>
      <path class="cls-8" d="M425.45,208.14h2.02c1.32,0,1.97,.73,1.97,2.08v4.25c0,1.34-.65,2.07-1.97,2.07h-2.02v-8.4Zm1.99,7.2c.42,0,.67-.22,.67-.82v-4.37c0-.6-.25-.82-.67-.82h-.67v6h.67Z"/>
      <path class="cls-8" d="M430.76,208.14h3.6v1.2h-2.28v2.22h1.81v1.2h-1.81v2.58h2.28v1.2h-3.6v-8.4Z"/>
      <path class="cls-8" d="M435.6,208.14h3.6v1.2h-2.28v2.22h1.81v1.2h-1.81v2.58h2.28v1.2h-3.6v-8.4Z"/>
      <path class="cls-8" d="M440.44,208.14h1.94c1.32,0,1.97,.73,1.97,2.08v.83c0,1.34-.65,2.08-1.97,2.08h-.62v3.42h-1.32v-8.4Zm1.94,3.78c.42,0,.65-.19,.65-.79v-1c0-.6-.23-.79-.65-.79h-.62v2.58h.62Z"/>
      <path class="cls-8" d="M444.87,216.53h-.43v-1.27h1.27v1.14l-.66,1.57h-.61l.43-1.44Z"/>
      <path class="cls-8" d="M449.55,208.14h1.96c1.37,0,1.95,.64,1.95,1.93v.52c0,.86-.28,1.42-.86,1.66v.02c.66,.2,.88,.83,.88,1.77v1.48c0,.41,.01,.71,.14,1.02h-1.34c-.07-.22-.12-.35-.12-1.03v-1.54c0-.78-.23-1.03-.83-1.03h-.46v3.6h-1.32v-8.4Zm1.8,3.6c.49,0,.79-.22,.79-.89v-.65c0-.6-.2-.86-.67-.86h-.6v2.4h.48Z"/>
      <path class="cls-8" d="M456.06,208.14h1.79l1.37,8.4h-1.32l-.24-1.67v.02h-1.5l-.24,1.64h-1.22l1.37-8.4Zm1.44,5.61l-.59-4.15h-.02l-.58,4.15h1.19Z"/>
      <path class="cls-8" d="M460.4,208.14h1.94c1.32,0,1.97,.73,1.97,2.08v.83c0,1.34-.65,2.08-1.97,2.08h-.62v3.42h-1.32v-8.4Zm1.94,3.78c.42,0,.65-.19,.65-.79v-1c0-.6-.23-.79-.65-.79h-.62v2.58h.62Z"/>
      <path class="cls-8" d="M465.54,208.14h1.32v8.4h-1.32v-8.4Z"/>
      <path class="cls-8" d="M468.25,208.14h2.02c1.32,0,1.97,.73,1.97,2.08v4.25c0,1.34-.65,2.07-1.97,2.07h-2.02v-8.4Zm1.99,7.2c.42,0,.67-.22,.67-.82v-4.37c0-.6-.25-.82-.67-.82h-.67v6h.67Z"/>
      <path class="cls-8" d="M476.99,208.14h1.79l1.37,8.4h-1.32l-.24-1.67v.02h-1.5l-.24,1.64h-1.22l1.37-8.4Zm1.44,5.61l-.59-4.15h-.02l-.58,4.15h1.19Z"/>
      <path class="cls-8" d="M481.33,208.14h1.66l1.28,5.03h.02v-5.03h1.18v8.4h-1.35l-1.58-6.13h-.02v6.13h-1.18v-8.4Z"/>
      <path class="cls-8" d="M486.87,208.14h2.02c1.32,0,1.97,.73,1.97,2.08v4.25c0,1.34-.65,2.07-1.97,2.07h-2.02v-8.4Zm1.99,7.2c.42,0,.67-.22,.67-.82v-4.37c0-.6-.25-.82-.67-.82h-.67v6h.67Z"/>
      <path class="cls-8" d="M425.22,228.54v-.48h1.25v.58c0,.6,.26,.82,.68,.82s.68-.22,.68-.84c0-.7-.26-1.14-1.13-1.9-1.1-.97-1.46-1.66-1.46-2.61,0-1.32,.68-2.09,1.97-2.09s1.92,.77,1.92,2.11v.35h-1.25v-.43c0-.6-.24-.83-.66-.83s-.66,.23-.66,.8c0,.61,.28,1.06,1.14,1.81,1.1,.97,1.45,1.64,1.45,2.69,0,1.37-.7,2.14-1.99,2.14s-1.94-.77-1.94-2.11Z"/>
      <path class="cls-8" d="M430.37,228.54v-6.4h1.32v6.5c0,.6,.25,.82,.67,.82s.67-.22,.67-.82v-6.5h1.27v6.4c0,1.34-.67,2.11-1.97,2.11s-1.97-.77-1.97-2.11Z"/>
      <path class="cls-8" d="M435.53,228.54v-.48h1.25v.58c0,.6,.26,.82,.68,.82s.68-.22,.68-.84c0-.7-.26-1.14-1.13-1.9-1.1-.97-1.46-1.66-1.46-2.61,0-1.32,.68-2.09,1.97-2.09s1.92,.77,1.92,2.11v.35h-1.25v-.43c0-.6-.24-.83-.66-.83s-.66,.23-.66,.8c0,.61,.28,1.06,1.14,1.81,1.1,.97,1.45,1.64,1.45,2.69,0,1.37-.7,2.14-1.99,2.14s-1.94-.77-1.94-2.11Z"/>
      <path class="cls-8" d="M441.88,223.34h-1.38v-1.2h4.08v1.2h-1.38v7.2h-1.32v-7.2Z"/>
      <path class="cls-8" d="M446.38,222.14h1.79l1.37,8.4h-1.32l-.24-1.67v.02h-1.5l-.24,1.64h-1.22l1.37-8.4Zm1.44,5.61l-.59-4.15h-.02l-.58,4.15h1.19Z"/>
      <path class="cls-8" d="M450.72,222.14h1.32v8.4h-1.32v-8.4Z"/>
      <path class="cls-8" d="M453.43,222.14h1.66l1.28,5.03h.02v-5.03h1.18v8.4h-1.35l-1.58-6.13h-.02v6.13h-1.18v-8.4Z"/>
      <path class="cls-8" d="M458.96,222.14h3.6v1.2h-2.28v2.22h1.81v1.2h-1.81v2.58h2.28v1.2h-3.6v-8.4Z"/>
      <path class="cls-8" d="M463.8,222.14h2.02c1.32,0,1.97,.73,1.97,2.08v4.25c0,1.34-.65,2.07-1.97,2.07h-2.02v-8.4Zm1.99,7.2c.42,0,.67-.22,.67-.82v-4.37c0-.6-.25-.82-.67-.82h-.67v6h.67Z"/>
      <path class="cls-20" d="M471.44,228.54v-4.41c0-1.34,.67-2.11,1.97-2.11s1.97,.77,1.97,2.11v.72h-1.25v-.8c0-.6-.26-.83-.68-.83s-.68,.23-.68,.83v4.59c0,.6,.26,.82,.68,.82s.68-.22,.68-.82v-1.64h-.66v-1.2h1.91v2.75c0,1.34-.67,2.11-1.97,2.11s-1.97-.77-1.97-2.11Z"/>
      <path class="cls-20" d="M476.67,222.14h1.32v3.42h1.42v-3.42h1.32v8.4h-1.32v-3.78h-1.42v3.78h-1.32v-8.4Z"/>
      <path class="cls-20" d="M482.06,228.54v-4.41c0-1.34,.67-2.11,1.97-2.11s1.97,.77,1.97,2.11v.72h-1.25v-.8c0-.6-.26-.83-.68-.83s-.68,.23-.68,.83v4.59c0,.6,.26,.82,.68,.82s.68-.22,.68-.82v-1.64h-.66v-1.2h1.91v2.75c0,1.34-.67,2.11-1.97,2.11s-1.97-.77-1.97-2.11Z"/>
      <path class="cls-20" d="M425.45,236.14h3.6v1.2h-2.28v2.22h1.81v1.2h-1.81v2.58h2.28v1.2h-3.6v-8.4Z"/>
      <path class="cls-20" d="M430.29,236.14h1.88l.84,6.01h.02l.84-6.01h1.88v8.4h-1.25v-6.36h-.02l-.96,6.36h-1.1l-.96-6.36h-.02v6.36h-1.15v-8.4Z"/>
      <path class="cls-20" d="M437.16,236.14h1.32v8.4h-1.32v-8.4Z"/>
      <path class="cls-20" d="M439.72,242.54v-.48h1.25v.58c0,.6,.26,.82,.68,.82s.68-.22,.68-.84c0-.7-.26-1.14-1.13-1.9-1.1-.97-1.46-1.66-1.46-2.61,0-1.32,.68-2.09,1.97-2.09s1.92,.77,1.92,2.11v.35h-1.25v-.43c0-.6-.24-.83-.66-.83s-.66,.23-.66,.8c0,.61,.28,1.06,1.14,1.81,1.1,.97,1.45,1.64,1.45,2.69,0,1.37-.7,2.14-1.99,2.14s-1.94-.77-1.94-2.11Z"/>
      <path class="cls-20" d="M444.78,242.54v-.48h1.25v.58c0,.6,.26,.82,.68,.82s.68-.22,.68-.84c0-.7-.26-1.14-1.13-1.9-1.1-.97-1.46-1.66-1.46-2.61,0-1.32,.68-2.09,1.97-2.09s1.92,.77,1.92,2.11v.35h-1.25v-.43c0-.6-.24-.83-.66-.83s-.66,.23-.66,.8c0,.61,.28,1.06,1.14,1.81,1.1,.97,1.45,1.64,1.45,2.69,0,1.37-.7,2.14-1.99,2.14s-1.94-.77-1.94-2.11Z"/>
      <path class="cls-20" d="M449.96,236.14h1.32v8.4h-1.32v-8.4Z"/>
      <path class="cls-20" d="M452.61,242.54v-4.41c0-1.34,.71-2.11,2-2.11s2,.77,2,2.11v4.41c0,1.34-.71,2.11-2,2.11s-2-.77-2-2.11Zm2.69,.08v-4.58c0-.6-.26-.83-.68-.83s-.68,.23-.68,.83v4.58c0,.6,.26,.83,.68,.83s.68-.23,.68-.83Z"/>
      <path class="cls-20" d="M457.95,236.14h1.66l1.28,5.03h.02v-5.03h1.18v8.4h-1.35l-1.58-6.13h-.02v6.13h-1.18v-8.4Z"/>
      <path class="cls-20" d="M465.93,236.14h1.96c1.37,0,1.95,.64,1.95,1.93v.52c0,.86-.28,1.42-.86,1.66v.02c.66,.2,.88,.83,.88,1.77v1.48c0,.41,.01,.71,.14,1.02h-1.34c-.07-.22-.12-.35-.12-1.03v-1.54c0-.78-.23-1.03-.83-1.03h-.46v3.6h-1.32v-8.4Zm1.8,3.6c.49,0,.79-.22,.79-.89v-.65c0-.6-.2-.86-.67-.86h-.6v2.4h.48Z"/>
      <path class="cls-20" d="M471.25,236.14h3.6v1.2h-2.28v2.22h1.81v1.2h-1.81v2.58h2.28v1.2h-3.6v-8.4Z"/>
      <path class="cls-20" d="M476.09,236.14h2.02c1.32,0,1.97,.73,1.97,2.08v4.25c0,1.34-.65,2.07-1.97,2.07h-2.02v-8.4Zm1.99,7.2c.42,0,.67-.22,.67-.82v-4.37c0-.6-.25-.82-.67-.82h-.67v6h.67Z"/>
      <path class="cls-20" d="M481.37,242.54v-6.4h1.32v6.5c0,.6,.25,.82,.67,.82s.67-.22,.67-.82v-6.5h1.27v6.4c0,1.34-.67,2.11-1.97,2.11s-1.97-.77-1.97-2.11Z"/>
      <path class="cls-20" d="M486.62,242.59v-4.51c0-1.29,.67-2.06,1.94-2.06s1.94,.77,1.94,2.06v.89h-1.25v-.97c0-.55-.26-.78-.66-.78s-.66,.23-.66,.78v4.69c0,.55,.26,.77,.66,.77s.66-.22,.66-.77v-1.28h1.25v1.19c0,1.3-.67,2.06-1.94,2.06s-1.94-.77-1.94-2.06Z"/>
      <path class="cls-20" d="M492.95,237.34h-1.38v-1.2h4.08v1.2h-1.38v7.2h-1.32v-7.2Z"/>
      <path class="cls-20" d="M496.83,236.14h1.32v8.4h-1.32v-8.4Z"/>
      <path class="cls-20" d="M499.48,242.54v-4.41c0-1.34,.71-2.11,2-2.11s2,.77,2,2.11v4.41c0,1.34-.71,2.11-2,2.11s-2-.77-2-2.11Zm2.69,.08v-4.58c0-.6-.26-.83-.68-.83s-.68,.23-.68,.83v4.58c0,.6,.26,.83,.68,.83s.68-.23,.68-.83Z"/>
      <path class="cls-20" d="M504.82,236.14h1.66l1.28,5.03h.02v-5.03h1.18v8.4h-1.35l-1.58-6.13h-.02v6.13h-1.18v-8.4Z"/>
      <path class="cls-20" d="M510.21,242.54v-.48h1.25v.58c0,.6,.26,.82,.68,.82s.68-.22,.68-.84c0-.7-.26-1.14-1.13-1.9-1.1-.97-1.46-1.66-1.46-2.61,0-1.32,.68-2.09,1.97-2.09s1.92,.77,1.92,2.11v.35h-1.25v-.43c0-.6-.24-.83-.66-.83s-.66,.23-.66,.8c0,.61,.28,1.06,1.14,1.81,1.1,.97,1.45,1.64,1.45,2.69,0,1.37-.7,2.14-1.99,2.14s-1.94-.77-1.94-2.11Z"/>
      <path class="cls-20" d="M425.45,250.14h1.99c1.37,0,1.96,.64,1.96,1.93v.34c0,.86-.26,1.4-.85,1.64v.02c.71,.24,.98,.86,.98,1.75v.72c0,1.29-.68,1.99-2,1.99h-2.07v-8.4Zm1.83,3.42c.49,0,.79-.22,.79-.89v-.47c0-.6-.2-.86-.67-.86h-.64v2.22h.52Zm.24,3.78c.44,0,.68-.2,.68-.83v-.73c0-.78-.25-1.02-.85-1.02h-.59v2.58h.76Z"/>
      <path class="cls-20" d="M431.92,254.96l-1.6-4.82h1.4l.9,3.08h.02l.9-3.08h1.28l-1.6,4.82v3.57h-1.32v-3.57Z"/>
      <path class="cls-8" d="M440.5,257.01h-2.52v-1.2l2.4-5.67h1.44v5.67h.62v1.2h-.62v1.52h-1.32v-1.52Zm0-1.2v-3.27h-.02l-1.29,3.27h1.32Z"/>
      <path class="cls-8" d="M443.59,256.56v-.68h1.25v.74c0,.6,.26,.83,.68,.83s.68-.2,.68-.95v-.68c0-.78-.26-1.07-.86-1.07h-.44v-1.2h.48c.49,0,.79-.22,.79-.89v-.61c0-.6-.28-.84-.66-.84s-.64,.23-.64,.78v.55h-1.25v-.44c0-1.34,.67-2.09,1.93-2.09s1.93,.73,1.93,2.07v.3c0,.9-.29,1.45-.94,1.69v.02c.71,.26,.97,.88,.97,1.73v.74c0,1.34-.67,2.08-1.97,2.08s-1.97-.74-1.97-2.09Z"/>
      <path class="cls-8" d="M448.82,253.46v-2.1c0-.86,.44-1.34,1.27-1.34s1.27,.48,1.27,1.34v2.1c0,.86-.44,1.34-1.27,1.34s-1.27-.48-1.27-1.34Zm1.7,.06v-2.22c0-.37-.17-.53-.43-.53s-.43,.16-.43,.53v2.22c0,.37,.16,.53,.43,.53s.43-.16,.43-.53Zm2.61-3.38h.84l-3.25,8.4h-.84l3.25-8.4Zm-.64,7.17v-2.1c0-.86,.44-1.34,1.27-1.34s1.27,.48,1.27,1.34v2.1c0,.86-.44,1.34-1.27,1.34s-1.27-.48-1.27-1.34Zm1.7,.06v-2.22c0-.37-.17-.53-.43-.53s-.43,.16-.43,.53v2.22c0,.37,.16,.53,.43,.53s.43-.16,.43-.53Z"/>
      <path class="cls-8" d="M458.81,250.14h1.99c1.37,0,1.96,.64,1.96,1.93v.34c0,.86-.26,1.4-.85,1.64v.02c.71,.24,.98,.86,.98,1.75v.72c0,1.29-.68,1.99-2,1.99h-2.07v-8.4Zm1.83,3.42c.49,0,.79-.22,.79-.89v-.47c0-.6-.2-.86-.67-.86h-.64v2.22h.52Zm.24,3.78c.44,0,.68-.2,.68-.83v-.73c0-.78-.25-1.02-.85-1.02h-.59v2.58h.76Z"/>
      <path class="cls-8" d="M465.29,254.96l-1.6-4.82h1.4l.9,3.08h.02l.9-3.08h1.28l-1.6,4.82v3.57h-1.32v-3.57Z"/>
      <path class="cls-8" d="M471.63,257.62c0-1.2,.34-1.93,1.32-2.96,1.01-1.07,1.3-1.7,1.3-2.48s-.26-.96-.68-.96-.68,.23-.68,.83v.9h-1.25v-.82c0-1.34,.67-2.11,1.97-2.11s1.97,.77,1.97,2.11c0,1-.41,1.88-1.63,3.18-.79,.84-1,1.26-1,1.85v.18h2.51v1.2h-3.81v-.91Z"/>
      <path class="cls-8" d="M476.83,256.54v-4.41c0-1.34,.71-2.11,2-2.11s2,.77,2,2.11v4.41c0,1.34-.71,2.11-2,2.11s-2-.77-2-2.11Zm2.69,.08v-4.58c0-.6-.26-.83-.68-.83s-.68,.23-.68,.83v4.58c0,.6,.26,.83,.68,.83s.68-.23,.68-.83Z"/>
      <path class="cls-8" d="M482.1,256.56v-.68h1.25v.74c0,.6,.26,.83,.68,.83s.68-.2,.68-.95v-.68c0-.78-.26-1.07-.86-1.07h-.44v-1.2h.48c.49,0,.79-.22,.79-.89v-.61c0-.6-.28-.84-.66-.84s-.64,.23-.64,.78v.55h-1.25v-.44c0-1.34,.67-2.09,1.93-2.09s1.93,.73,1.93,2.07v.3c0,.9-.29,1.45-.94,1.69v.02c.71,.26,.97,.88,.97,1.73v.74c0,1.34-.67,2.08-1.97,2.08s-1.97-.74-1.97-2.09Z"/>
      <path class="cls-8" d="M487.33,256.54v-4.41c0-1.34,.71-2.11,2-2.11s2,.77,2,2.11v4.41c0,1.34-.71,2.11-2,2.11s-2-.77-2-2.11Zm2.69,.08v-4.58c0-.6-.26-.83-.68-.83s-.68,.23-.68,.83v4.58c0,.6,.26,.83,.68,.83s.68-.23,.68-.83Z"/>
      <path class="cls-20" d="M426.47,264.14h1.79l1.37,8.4h-1.32l-.24-1.67v.02h-1.5l-.24,1.64h-1.22l1.37-8.4Zm1.44,5.61l-.59-4.15h-.02l-.58,4.15h1.19Z"/>
      <path class="cls-20" d="M430.81,264.14h1.66l1.28,5.03h.02v-5.03h1.18v8.4h-1.35l-1.58-6.13h-.02v6.13h-1.18v-8.4Z"/>
      <path class="cls-20" d="M436.34,264.14h2.02c1.32,0,1.97,.73,1.97,2.08v4.25c0,1.34-.65,2.07-1.97,2.07h-2.02v-8.4Zm1.99,7.2c.42,0,.67-.22,.67-.82v-4.37c0-.6-.25-.82-.67-.82h-.67v6h.67Z"/>
      <path class="cls-20" d="M445.1,265.34h-1.38v-1.2h4.08v1.2h-1.38v7.2h-1.32v-7.2Z"/>
      <path class="cls-20" d="M448.91,270.54v-4.41c0-1.34,.71-2.11,2-2.11s2,.77,2,2.11v4.41c0,1.34-.71,2.11-2,2.11s-2-.77-2-2.11Zm2.69,.08v-4.58c0-.6-.26-.83-.68-.83s-.68,.23-.68,.83v4.58c0,.6,.26,.83,.68,.83s.68-.23,.68-.83Z"/>
      <path class="cls-8" d="M456.66,264.14h1.66l1.28,5.03h.02v-5.03h1.18v8.4h-1.35l-1.58-6.13h-.02v6.13h-1.18v-8.4Z"/>
      <path class="cls-8" d="M462.2,264.14h3.6v1.2h-2.28v2.22h1.81v1.2h-1.81v2.58h2.28v1.2h-3.6v-8.4Z"/>
      <path class="cls-8" d="M468.24,265.34h-1.38v-1.2h4.08v1.2h-1.38v7.2h-1.32v-7.2Z"/>
      <path class="cls-8" d="M474.17,271.36l2.45-6.02h-2.33v-1.2h3.74v1.18l-2.45,6.02h2.45v1.2h-3.86v-1.18Z"/>
      <path class="cls-8" d="M479.27,264.14h3.6v1.2h-2.28v2.22h1.81v1.2h-1.81v2.58h2.28v1.2h-3.6v-8.4Z"/>
      <path class="cls-8" d="M484.12,264.14h1.96c1.37,0,1.95,.64,1.95,1.93v.52c0,.86-.28,1.42-.86,1.66v.02c.66,.2,.88,.83,.88,1.77v1.48c0,.41,.01,.71,.14,1.02h-1.34c-.07-.22-.12-.35-.12-1.03v-1.54c0-.78-.23-1.03-.83-1.03h-.46v3.6h-1.32v-8.4Zm1.8,3.6c.49,0,.79-.22,.79-.89v-.65c0-.6-.2-.86-.67-.86h-.6v2.4h.48Z"/>
      <path class="cls-8" d="M489.31,270.54v-4.41c0-1.34,.71-2.11,2-2.11s2,.77,2,2.11v4.41c0,1.34-.71,2.11-2,2.11s-2-.77-2-2.11Zm2.69,.08v-4.58c0-.6-.26-.83-.68-.83s-.68,.23-.68,.83v4.58c0,.6,.26,.83,.68,.83s.68-.23,.68-.83Z"/>
      <path class="cls-20" d="M425.45,278.14h1.99c1.37,0,1.96,.64,1.96,1.93v.34c0,.86-.26,1.4-.85,1.64v.02c.71,.24,.98,.86,.98,1.75v.72c0,1.29-.68,1.99-2,1.99h-2.07v-8.4Zm1.83,3.42c.49,0,.79-.22,.79-.89v-.47c0-.6-.2-.86-.67-.86h-.64v2.22h.52Zm.24,3.78c.44,0,.68-.2,.68-.83v-.73c0-.78-.25-1.02-.85-1.02h-.59v2.58h.76Z"/>
      <path class="cls-20" d="M431.92,282.96l-1.6-4.82h1.4l.9,3.08h.02l.9-3.08h1.28l-1.6,4.82v3.57h-1.32v-3.57Z"/>
      <path class="cls-20" d="M438.27,285.62c0-1.2,.34-1.93,1.32-2.96,1.01-1.07,1.3-1.7,1.3-2.48s-.26-.96-.68-.96-.68,.23-.68,.83v.9h-1.25v-.82c0-1.34,.67-2.11,1.97-2.11s1.97,.77,1.97,2.11c0,1-.41,1.88-1.63,3.18-.79,.84-1,1.26-1,1.85v.18h2.51v1.2h-3.81v-.91Z"/>
      <path class="cls-20" d="M443.47,284.54v-4.41c0-1.34,.71-2.11,2-2.11s2,.77,2,2.11v4.41c0,1.34-.71,2.11-2,2.11s-2-.77-2-2.11Zm2.69,.08v-4.58c0-.6-.26-.83-.68-.83s-.68,.23-.68,.83v4.58c0,.6,.26,.83,.68,.83s.68-.23,.68-.83Z"/>
      <path class="cls-20" d="M448.77,284.54v-.66h1.25v.76c0,.6,.26,.82,.68,.82s.68-.22,.68-.82v-1.88c0-.6-.26-.83-.68-.83s-.68,.23-.68,.83v.07h-1.25l.24-4.69h3.48v1.2h-2.3l-.11,2h.02c.24-.4,.61-.61,1.14-.61,.97,0,1.46,.68,1.46,1.92v1.9c0,1.34-.67,2.11-1.97,2.11s-1.97-.77-1.97-2.11Z"/>
      <path class="cls-20" d="M453.97,284.54v-4.41c0-1.34,.71-2.11,2-2.11s2,.77,2,2.11v4.41c0,1.34-.71,2.11-2,2.11s-2-.77-2-2.11Zm2.69,.08v-4.58c0-.6-.26-.83-.68-.83s-.68,.23-.68,.83v4.58c0,.6,.26,.83,.68,.83s.68-.23,.68-.83Z"/>
    </g>
    <g>
      <g>
        <g>
          <polygon class="cls-4" points="179.63 141.4 179.77 140.57 177.14 138.14 179.63 141.4"/>
          <path class="cls-4" d="M174.46,135.13l-1.72-1.57-1.62,1.71-2.57,.41-1.93,.37-3.35-1.84-.11-1.86,1.61-1.14,2.53-.7,1.43-1.39-2.73-.96-3.07-2.79,.2-2.8-1.33-1.25-2.78-1.07-2.41-1.46,1.61-.29c-2.1-.76-4.3-1.36-6.58-1.75-.02,0-.05,0-.07-.01l-.15,1.27-3.19,.45-1.5,1.3-2.48-.42,.33-1.93,.96-1.2c-1.37-.01-2.74,.05-4.08,.19-.06,.05-.14,.1-.23,.15-1.42,.75-1.88,2.66-2.23,2.88-.36,.22,.05,1.79,.05,1.79l-.76,1.49-3.15,.17-1.79,.54-.42,2.48-2.22,2.6-2.01,2.21-.35,2.07,.67,3.52-1.81-1.02-1.08-1.6-.28-2.88-4.98-.71s-6.14,6.04-5.36,7.31c.78,1.27,1.78,3.71,1.78,3.71l2.76,.47,.54,1.24-1.42,.6-1.16,1.79,.06,1.29-.58,1.74,1.95,.19,2.07-1.35,9.12,2.21,3.16,3.08,3.18,5.44,1.54,.75,.15,1.81-1.32,2.15-1.38,.36s-2.83,.79-2.83,1.64c0,.85-2.38,3.99-2.38,3.99l.7,3.38-4.76,1.31-1.2,2.63-1.01,4.51,.79,2.83-1.06,1.24-2.82-1.76-2.93-4.05-.92-4.98-2.77-7.85-1.14-2.46-2.31-1.96-.11-3,1.25-6.45,5.18-1.24-2.03-1.41-.82-2.68-.44-1.57-1.97-1.76-3.07-1.64c-.71,2.02-1.27,4.11-1.65,6.29-2.71,15.82,4.81,31.06,17.73,38.95l1.32-.6,3.39,2.56,1.4-1.53,.04-1.62,1.4,.66,.96,1.87,1.84,1.24,1.87,.25,3.03,.52,1.84-.82,6.23-.35,3.21,1.12,2.34,1.19h0c5.48-1.35,10.57-3.9,14.9-7.4l-.63-.17-1.02,.65-2.33-.38-1.39-2.36,1.95-1.99,2.07-4.13,.47-2.76,3.81-3.6-.66-1.53,1.53-3.14,.19-1.95-.89-2.28-2.57,.13-2.71-1.03-4.26-1.3-2.49-2.84-3.53-2.59-.93-2.83,1.94-1.58-.41-2.43-.89-2.28,1.83-3.23,3.45-1.96,3.13-.88,3.15-1.02,4.43,.62,4.71,1.09-3.69-1.2,1.02-1.81Zm-48.49,5.75l-1.79-1.16-1.24-.21,.14-.83,2.2,.38,2.06,1.2-1.38,.61Zm3.72-.21l-1.65-1.13,1.38-.61,1.1,1.04-.83,.71Zm2.2,1.23l.14-.83,1.31,.65-1.45,.18Zm28.62-18.08l-2.44-1.5,1.15-.49s2.46-.47,2.45,.38c0,.85,.22,1.85,.22,1.85l-1.38-.24Z"/>
          <path class="cls-19" d="M152.22,113.44c-22.53-3.85-44,11.34-47.86,33.88-3.85,22.53,11.34,44,33.88,47.86s44-11.34,47.86-33.88c3.85-22.53-11.34-44-33.88-47.86Zm27.41,27.96l-2.49-3.26-4.71-1.09-4.43-.62-3.15,1.02-3.13,.88-3.45,1.96-1.83,3.23,.89,2.28,.41,2.43-1.94,1.58,.93,2.83,3.53,2.59,2.49,2.84,4.26,1.3,2.71,1.03,2.57-.13,.89,2.28-.19,1.95-1.53,3.14,.66,1.53-3.81,3.6-.47,2.76-2.07,4.13-1.95,1.99,1.39,2.36,2.33,.38,1.02-.65,.63,.17c-4.33,3.5-9.42,6.05-14.9,7.4h0s-2.34-1.19-2.34-1.19l-3.21-1.12-6.23,.35-1.84,.82-3.03-.52-1.87-.25-1.84-1.24-.96-1.87-1.4-.66-.04,1.62-1.4,1.53-3.39-2.56-1.32,.6c-12.93-7.9-20.44-23.14-17.73-38.95,.37-2.18,.93-4.28,1.65-6.29l3.07,1.64,1.97,1.76,.44,1.57,.82,2.68,2.03,1.41-5.18,1.24-1.25,6.45,.11,3,2.31,1.96,1.14,2.46,2.77,7.85,.92,4.98,2.93,4.05,2.82,1.76,1.06-1.24-.79-2.83,1.01-4.51,1.2-2.63,4.76-1.31-.7-3.38s2.38-3.14,2.38-3.99c0-.85,2.83-1.64,2.83-1.64l1.38-.36,1.32-2.15-.15-1.81-1.54-.75-3.18-5.44-3.16-3.08-9.12-2.21-2.07,1.35-1.95-.19,.58-1.74-.06-1.29,1.16-1.79,1.42-.6-.54-1.24-2.76-.47s-1-2.44-1.78-3.71c-.78-1.27,5.36-7.31,5.36-7.31l4.98,.71,.28,2.88,1.08,1.6,1.81,1.02-.67-3.52,.35-2.07,2.01-2.21,2.22-2.6,.42-2.48,1.79-.54,3.15-.17,.76-1.49s-.41-1.57-.05-1.79c.36-.22,.81-2.13,2.23-2.88,.09-.05,.17-.1,.23-.15,1.35-.13,2.71-.2,4.08-.19l-.96,1.2-.33,1.93,2.48,.42,1.5-1.3,3.19-.45,.15-1.27s.04,0,.07,.01c2.28,.39,4.48,.99,6.58,1.75l-1.61,.29,2.41,1.46,2.78,1.07,1.33,1.25-.2,2.8,3.07,2.79,2.73,.96-1.43,1.39-2.53,.7-1.61,1.14,.11,1.86,3.35,1.84,1.93-.37,2.57-.41,1.62-1.71,1.72,1.57-1.02,1.81,3.69,1.2,2.63,2.44-.14,.83Z"/>
          <polygon class="cls-19" points="123.09 138.68 122.95 139.51 124.19 139.72 125.98 140.88 127.36 140.26 125.3 139.06 123.09 138.68"/>
          <polygon class="cls-19" points="128.05 139.53 129.7 140.66 130.53 139.95 129.43 138.91 128.05 139.53"/>
          <polygon class="cls-19" points="131.9 141.89 133.35 141.71 132.04 141.06 131.9 141.89"/>
          <path class="cls-19" d="M159.23,121.82l-1.15,.49,2.44,1.5,1.38,.24s-.22-.99-.22-1.85c0-.85-2.45-.38-2.45-.38Z"/>
        </g>
        <path class="cls-19" d="M95.31,100.29c.28-.78,1.13-1.19,1.92-.92l20.17,7.11c.78,.28,1.19,1.13,.92,1.92s-1.13,1.19-1.92,.92l-20.17-7.11c-.78-.28-1.19-1.13-.92-1.92Z"/>
        <path class="cls-19" d="M87.3,106.21c.28-.78,1.13-1.19,1.92-.92l20.17,7.11c.78,.28,1.19,1.13,.92,1.92s-1.13,1.19-1.92,.92l-20.17-7.11c-.78-.28-1.19-1.13-.92-1.92Z"/>
      </g>
      <path class="cls-19" d="M79.61,112.25c.28-.78,1.13-1.19,1.92-.92l20.17,7.11c.78,.28,1.19,1.13,.92,1.92-.28,.78-1.13,1.19-1.92,.92l-20.17-7.11c-.78-.28-1.19-1.13-.92-1.92h0Z"/>
    </g>
    <line class="cls-12" x1="106.05" y1="74.2" x2="2.25" y2="74.2"/>
    <line class="cls-12" x1="519.11" y1="74.2" x2="415.31" y2="74.2"/>
    <g>
      <path class="cls-19" d="M.98,301.04H.06v-.62c.74,0,1.01-.16,1.21-.7h.59v5.6H.98v-4.27Z"/>
      <path class="cls-19" d="M3.07,304v-.5c0-.54,.16-.93,.58-1.14v-.02c-.37-.2-.54-.55-.54-1.1v-.23c0-.9,.49-1.38,1.34-1.38s1.34,.49,1.34,1.38v.23c0,.55-.18,.9-.54,1.1v.02c.42,.22,.58,.61,.58,1.14v.5c0,.9-.49,1.38-1.38,1.38s-1.38-.49-1.38-1.38Zm1.87-.05v-.54c0-.42-.17-.63-.5-.63s-.5,.21-.5,.63v.54c0,.42,.17,.63,.5,.63s.5-.21,.5-.63Zm-.03-2.53v-.44c0-.37-.16-.56-.46-.56s-.46,.19-.46,.56v.44c0,.37,.16,.56,.46,.56s.46-.19,.46-.56Z"/>
      <path class="cls-19" d="M6.79,303.98v-.44h.83v.5c0,.4,.18,.54,.46,.54s.46-.14,.46-.54v-1.26c0-.4-.18-.55-.46-.55s-.46,.15-.46,.55v.05h-.83l.16-3.13h2.32v.8h-1.54l-.07,1.34h.02c.16-.26,.41-.41,.76-.41,.65,0,.98,.46,.98,1.28v1.26c0,.9-.45,1.41-1.31,1.41s-1.31-.51-1.31-1.41Z"/>
      <path class="cls-19" d="M10.39,303.98v-2.94c0-.9,.47-1.41,1.34-1.41s1.34,.51,1.34,1.41v2.94c0,.9-.47,1.41-1.34,1.41s-1.34-.51-1.34-1.41Zm1.79,.06v-3.05c0-.4-.18-.55-.46-.55s-.46,.15-.46,.55v3.05c0,.4,.18,.55,.46,.55s.46-.15,.46-.55Z"/>
    </g>
    <g>
      <path class="cls-19" d="M105.11,197.52c0-.8,.22-1.29,.88-1.98,.67-.71,.86-1.14,.86-1.66s-.18-.64-.46-.64-.46,.15-.46,.55v.6h-.83v-.54c0-.9,.45-1.41,1.31-1.41s1.31,.51,1.31,1.41c0,.66-.27,1.26-1.09,2.12-.53,.56-.66,.84-.66,1.23v.12h1.67v.8h-2.54v-.61Z"/>
      <path class="cls-19" d="M108.71,196.8v-2.94c0-.9,.47-1.41,1.34-1.41s1.34,.51,1.34,1.41v2.94c0,.9-.47,1.41-1.34,1.41s-1.34-.51-1.34-1.41Zm1.79,.06v-3.05c0-.4-.18-.55-.46-.55s-.46,.15-.46,.55v3.05c0,.4,.18,.55,.46,.55s.46-.15,.46-.55Z"/>
      <path class="cls-19" d="M112.37,197.52c0-.8,.22-1.29,.88-1.98,.67-.71,.86-1.14,.86-1.66s-.18-.64-.46-.64-.46,.15-.46,.55v.6h-.83v-.54c0-.9,.45-1.41,1.31-1.41s1.31,.51,1.31,1.41c0,.66-.27,1.26-1.09,2.12-.53,.56-.66,.84-.66,1.23v.12h1.67v.8h-2.54v-.61Z"/>
      <path class="cls-19" d="M115.99,197.52c0-.8,.22-1.29,.88-1.98,.67-.71,.86-1.14,.86-1.66s-.18-.64-.46-.64-.46,.15-.46,.55v.6h-.83v-.54c0-.9,.45-1.41,1.31-1.41s1.31,.51,1.31,1.41c0,.66-.27,1.26-1.09,2.12-.53,.56-.66,.84-.66,1.23v.12h1.67v.8h-2.54v-.61Z"/>
    </g>
    <g class="cls-16">
      <g>
        <rect class="cls-4" x="13.16" y="193.27" width="233.41" height="112.56"/>
        <rect class="cls-34" x="13.16" y="305.17" width="233.41" height=".65"/>
        <rect class="cls-11" x="13.16" y="304.52" width="233.41" height=".65"/>
        <rect class="cls-11" x="13.16" y="303.86" width="233.41" height=".65"/>
        <rect class="cls-11" x="13.16" y="303.21" width="233.41" height=".65"/>
        <rect class="cls-11" x="13.16" y="302.55" width="233.41" height=".65"/>
        <rect class="cls-11" x="13.16" y="301.9" width="233.41" height=".65"/>
        <rect class="cls-34" x="13.16" y="301.25" width="233.41" height=".65"/>
        <rect class="cls-23" x="13.16" y="300.59" width="233.41" height=".65"/>
        <rect class="cls-34" x="13.16" y="299.94" width="233.41" height=".65"/>
        <rect class="cls-33" x="13.16" y="299.28" width="233.41" height=".65"/>
        <rect class="cls-34" x="13.16" y="298.63" width="233.41" height=".65"/>
        <rect class="cls-34" x="13.16" y="297.97" width="233.41" height=".65"/>
        <rect class="cls-23" x="13.16" y="297.32" width="233.41" height=".65"/>
        <rect class="cls-11" x="13.16" y="296.67" width="233.41" height=".65"/>
        <rect class="cls-34" x="13.16" y="296.01" width="233.41" height=".65"/>
        <rect class="cls-11" x="13.16" y="295.36" width="233.41" height=".65"/>
        <rect class="cls-11" x="13.16" y="294.7" width="233.41" height=".65"/>
        <rect class="cls-33" x="13.16" y="294.05" width="233.41" height=".65"/>
        <rect class="cls-11" x="13.16" y="293.39" width="233.41" height=".65"/>
        <rect class="cls-33" x="13.16" y="292.74" width="233.41" height=".65"/>
        <rect class="cls-11" x="13.16" y="292.08" width="233.41" height=".65"/>
        <rect class="cls-11" x="13.16" y="291.43" width="233.41" height=".65"/>
        <rect class="cls-11" x="13.16" y="290.78" width="233.41" height=".65"/>
        <rect class="cls-11" x="13.16" y="290.12" width="233.41" height=".65"/>
        <rect class="cls-11" x="13.16" y="289.47" width="233.41" height=".65"/>
        <rect class="cls-34" x="13.16" y="288.81" width="233.41" height=".65"/>
        <rect class="cls-34" x="13.16" y="288.16" width="233.41" height=".65"/>
        <rect class="cls-26" x="13.16" y="287.5" width="233.41" height=".65"/>
        <rect class="cls-15" x="13.16" y="286.85" width="233.41" height=".65"/>
        <rect class="cls-11" x="13.16" y="286.19" width="233.41" height=".65"/>
        <rect class="cls-33" x="13.16" y="285.54" width="233.41" height=".65"/>
        <rect class="cls-27" x="13.16" y="284.89" width="233.41" height=".65"/>
        <rect class="cls-33" x="13.16" y="284.23" width="233.41" height=".65"/>
        <rect class="cls-11" x="13.16" y="283.58" width="233.41" height=".65"/>
        <rect class="cls-34" x="13.16" y="282.92" width="233.41" height=".65"/>
        <rect class="cls-34" x="13.16" y="282.27" width="233.41" height=".65"/>
        <rect class="cls-34" x="13.16" y="281.61" width="233.41" height=".65"/>
        <rect class="cls-34" x="13.16" y="280.96" width="233.41" height=".65"/>
        <rect class="cls-33" x="13.16" y="280.3" width="233.41" height=".65"/>
        <rect class="cls-27" x="13.16" y="279.65" width="233.41" height=".65"/>
        <rect class="cls-34" x="13.16" y="279" width="233.41" height=".65"/>
        <rect class="cls-11" x="13.16" y="278.34" width="233.41" height=".65"/>
        <rect class="cls-34" x="13.16" y="277.69" width="233.41" height=".65"/>
        <rect class="cls-34" x="13.16" y="277.03" width="233.41" height=".65"/>
        <rect class="cls-34" x="13.16" y="276.38" width="233.41" height=".65"/>
        <rect class="cls-11" x="13.16" y="275.72" width="233.41" height=".65"/>
        <rect class="cls-33" x="13.16" y="275.07" width="233.41" height=".65"/>
        <rect class="cls-33" x="13.16" y="274.42" width="233.41" height=".65"/>
        <rect class="cls-34" x="13.16" y="273.76" width="233.41" height=".65"/>
        <rect class="cls-33" x="13.16" y="273.11" width="233.41" height=".65"/>
        <rect class="cls-27" x="13.16" y="272.45" width="233.41" height=".65"/>
        <rect class="cls-33" x="13.16" y="271.8" width="233.41" height=".65"/>
        <rect class="cls-11" x="13.16" y="271.14" width="233.41" height=".65"/>
        <rect class="cls-34" x="13.16" y="270.49" width="233.41" height=".65"/>
        <rect class="cls-23" x="13.16" y="269.83" width="233.41" height=".65"/>
        <rect class="cls-11" x="13.16" y="269.18" width="233.41" height=".65"/>
        <rect class="cls-11" x="13.16" y="268.53" width="233.41" height=".65"/>
        <rect class="cls-34" x="13.16" y="267.87" width="233.41" height=".65"/>
        <rect class="cls-23" x="13.16" y="267.22" width="233.41" height=".65"/>
        <rect class="cls-23" x="13.16" y="266.56" width="233.41" height=".65"/>
        <rect class="cls-23" x="13.16" y="265.91" width="233.41" height=".65"/>
        <rect class="cls-23" x="13.16" y="265.25" width="233.41" height=".65"/>
        <rect class="cls-34" x="13.16" y="264.6" width="233.41" height=".65"/>
        <rect class="cls-34" x="13.16" y="263.94" width="233.41" height=".65"/>
        <rect class="cls-33" x="13.16" y="263.29" width="233.41" height=".65"/>
        <rect class="cls-27" x="13.16" y="262.64" width="233.41" height=".65"/>
        <rect class="cls-34" x="13.16" y="261.98" width="233.41" height=".65"/>
        <rect class="cls-23" x="13.16" y="261.33" width="233.41" height=".65"/>
        <rect class="cls-11" x="13.16" y="260.67" width="233.41" height=".65"/>
        <rect class="cls-11" x="13.16" y="260.02" width="233.41" height=".65"/>
        <rect class="cls-11" x="13.16" y="259.36" width="233.41" height=".65"/>
        <rect class="cls-33" x="13.16" y="258.71" width="233.41" height=".65"/>
        <rect class="cls-11" x="13.16" y="258.05" width="233.41" height=".65"/>
        <rect class="cls-11" x="13.16" y="257.4" width="233.41" height=".65"/>
        <rect class="cls-11" x="13.16" y="256.75" width="233.41" height=".65"/>
        <rect class="cls-33" x="13.16" y="256.09" width="233.41" height=".65"/>
        <rect class="cls-27" x="13.16" y="255.44" width="233.41" height=".65"/>
        <rect class="cls-33" x="13.16" y="254.78" width="233.41" height=".65"/>
        <rect class="cls-33" x="13.16" y="254.13" width="233.41" height=".65"/>
        <rect class="cls-34" x="13.16" y="253.47" width="233.41" height=".65"/>
        <rect class="cls-27" x="13.16" y="252.82" width="233.41" height=".65"/>
        <rect class="cls-27" x="13.16" y="252.17" width="233.41" height=".65"/>
        <rect class="cls-27" x="13.16" y="251.51" width="233.41" height=".65"/>
        <rect class="cls-11" x="13.16" y="250.86" width="233.41" height=".65"/>
        <rect class="cls-27" x="13.16" y="250.2" width="233.41" height=".65"/>
        <rect class="cls-33" x="13.16" y="249.55" width="233.41" height=".65"/>
        <rect class="cls-27" x="13.16" y="248.89" width="233.41" height=".65"/>
        <rect class="cls-26" x="13.16" y="248.24" width="233.41" height=".65"/>
        <rect class="cls-26" x="13.16" y="247.58" width="233.41" height=".65"/>
        <rect class="cls-26" x="13.16" y="246.93" width="233.41" height=".65"/>
        <rect class="cls-15" x="13.16" y="246.28" width="233.41" height=".65"/>
        <rect class="cls-15" x="13.16" y="245.62" width="233.41" height=".65"/>
        <rect class="cls-15" x="13.16" y="244.97" width="233.41" height=".65"/>
        <rect class="cls-15" x="13.16" y="244.31" width="233.41" height=".65"/>
        <rect class="cls-18" x="13.16" y="243.66" width="233.41" height=".65"/>
        <rect class="cls-15" x="13.16" y="243" width="233.41" height=".65"/>
        <rect class="cls-27" x="13.16" y="242.35" width="233.41" height=".65"/>
        <rect class="cls-26" x="13.16" y="241.69" width="233.41" height=".65"/>
        <rect class="cls-27" x="13.16" y="241.04" width="233.41" height=".65"/>
        <rect class="cls-27" x="13.16" y="240.39" width="233.41" height=".65"/>
        <rect class="cls-33" x="13.16" y="239.73" width="233.41" height=".65"/>
        <rect class="cls-26" x="13.16" y="239.08" width="233.41" height=".65"/>
        <rect class="cls-26" x="13.16" y="238.42" width="233.41" height=".65"/>
        <rect class="cls-15" x="13.16" y="237.77" width="233.41" height=".65"/>
        <rect class="cls-27" x="13.16" y="237.11" width="233.41" height=".65"/>
        <rect class="cls-27" x="13.16" y="236.46" width="233.41" height=".65"/>
        <rect class="cls-33" x="13.16" y="235.8" width="233.41" height=".65"/>
        <rect class="cls-26" x="13.16" y="235.15" width="233.41" height=".65"/>
        <rect class="cls-15" x="13.16" y="234.5" width="233.41" height=".65"/>
        <rect class="cls-26" x="13.16" y="233.84" width="233.41" height=".65"/>
        <rect class="cls-26" x="13.16" y="233.19" width="233.41" height=".65"/>
        <rect class="cls-15" x="13.16" y="232.53" width="233.41" height=".65"/>
        <rect class="cls-26" x="13.16" y="231.88" width="233.41" height=".65"/>
        <rect class="cls-15" x="13.16" y="231.22" width="233.41" height=".65"/>
        <rect class="cls-33" x="13.16" y="230.57" width="233.41" height=".65"/>
        <rect class="cls-27" x="13.16" y="229.92" width="233.41" height=".65"/>
        <rect class="cls-26" x="13.16" y="229.26" width="233.41" height=".65"/>
        <rect class="cls-26" x="13.16" y="228.61" width="233.41" height=".65"/>
        <rect class="cls-27" x="13.16" y="227.95" width="233.41" height=".65"/>
        <rect class="cls-15" x="13.16" y="227.3" width="233.41" height=".65"/>
        <rect class="cls-26" x="13.16" y="226.64" width="233.41" height=".65"/>
        <rect class="cls-27" x="13.16" y="225.99" width="233.41" height=".65"/>
        <rect class="cls-26" x="13.16" y="225.33" width="233.41" height=".65"/>
        <rect class="cls-15" x="13.16" y="224.68" width="233.41" height=".65"/>
        <rect class="cls-27" x="13.16" y="224.03" width="233.41" height=".65"/>
        <rect class="cls-26" x="13.16" y="223.37" width="233.41" height=".65"/>
        <rect class="cls-27" x="13.16" y="222.72" width="233.41" height=".65"/>
        <rect class="cls-18" x="13.16" y="222.06" width="233.41" height=".65"/>
        <rect class="cls-15" x="13.16" y="221.41" width="233.41" height=".65"/>
        <rect class="cls-18" x="13.16" y="220.75" width="233.41" height=".65"/>
        <rect class="cls-10" x="13.16" y="220.1" width="233.41" height=".65"/>
        <rect class="cls-10" x="13.16" y="219.44" width="233.41" height=".65"/>
        <rect class="cls-15" x="13.16" y="218.79" width="233.41" height=".65"/>
        <rect class="cls-10" x="13.16" y="218.14" width="233.41" height=".65"/>
        <rect class="cls-15" x="13.16" y="217.48" width="233.41" height=".65"/>
        <rect class="cls-15" x="13.16" y="216.83" width="233.41" height=".65"/>
        <rect class="cls-18" x="13.16" y="216.17" width="233.41" height=".65"/>
        <rect class="cls-10" x="13.16" y="215.52" width="233.41" height=".65"/>
        <rect class="cls-22" x="13.16" y="214.86" width="233.41" height=".65"/>
        <rect class="cls-10" x="13.16" y="214.21" width="233.41" height=".65"/>
        <rect class="cls-17" x="13.16" y="213.55" width="233.41" height=".65"/>
        <rect class="cls-22" x="13.16" y="212.9" width="233.41" height=".65"/>
        <rect class="cls-18" x="13.16" y="212.25" width="233.41" height=".65"/>
        <rect class="cls-10" x="13.16" y="211.59" width="233.41" height=".65"/>
        <rect class="cls-10" x="13.16" y="210.94" width="233.41" height=".65"/>
        <rect class="cls-17" x="13.16" y="210.28" width="233.41" height=".65"/>
        <rect class="cls-10" x="13.16" y="209.63" width="233.41" height=".65"/>
        <rect class="cls-17" x="13.16" y="208.97" width="233.41" height=".65"/>
        <rect class="cls-30" x="13.16" y="208.32" width="233.41" height=".65"/>
        <rect class="cls-22" x="13.16" y="207.67" width="233.41" height=".65"/>
        <rect class="cls-22" x="13.16" y="207.01" width="233.41" height=".65"/>
        <rect class="cls-3" x="13.16" y="206.36" width="233.41" height=".65"/>
        <rect class="cls-3" x="13.16" y="205.7" width="233.41" height=".65"/>
        <rect class="cls-3" x="13.16" y="205.05" width="233.41" height=".65"/>
        <rect class="cls-3" x="13.16" y="204.39" width="233.41" height=".65"/>
        <rect class="cls-30" x="13.16" y="203.74" width="233.41" height=".65"/>
        <rect class="cls-30" x="13.16" y="203.08" width="233.41" height=".65"/>
        <rect class="cls-30" x="13.16" y="202.43" width="233.41" height=".65"/>
        <rect class="cls-17" x="13.16" y="201.78" width="233.41" height=".65"/>
        <rect class="cls-30" x="13.16" y="201.12" width="233.41" height=".65"/>
        <rect class="cls-31" x="13.16" y="200.47" width="233.41" height=".65"/>
        <rect class="cls-3" x="13.16" y="199.81" width="233.41" height=".65"/>
        <rect class="cls-30" x="13.16" y="199.16" width="233.41" height=".65"/>
        <rect class="cls-30" x="13.16" y="198.5" width="233.41" height=".65"/>
        <rect class="cls-31" x="13.16" y="197.85" width="233.41" height=".65"/>
        <rect class="cls-25" x="13.16" y="197.19" width="233.41" height=".65"/>
        <rect class="cls-32" x="13.16" y="196.54" width="233.41" height=".65"/>
        <rect class="cls-25" x="13.16" y="195.89" width="233.41" height=".65"/>
        <rect class="cls-25" x="13.16" y="195.23" width="233.41" height=".65"/>
        <rect class="cls-32" x="13.16" y="194.58" width="233.41" height=".65"/>
        <rect class="cls-32" x="13.16" y="193.92" width="233.41" height=".65"/>
        <g>
          <rect class="cls-25" x="13.16" y="193.27" width="233.41" height=".65"/>
          <rect class="cls-25" x="13.16" y="192.61" width="233.41" height=".65"/>
        </g>
      </g>
    </g>
    <g>
      <circle class="cls-4" cx="125.9" cy="272.43" r="23.68"/>
      <g>
        <path class="cls-20" d="M131.16,285.54c0,2.79-2.26,5.05-5.05,5.05s-5.05-2.26-5.05-5.05,2.26-5.05,5.05-5.05,5.05,2.26,5.05,5.05"/>
        <path class="cls-20" d="M126.11,291.35c-3.21,0-5.87-2.61-5.87-5.87s2.61-5.87,5.87-5.87c3.26,0,5.87,2.66,5.87,5.92s-2.66,5.81-5.87,5.81h0Zm0-10.05c-2.34,0-4.24,1.9-4.24,4.24s1.9,4.24,4.24,4.24,4.24-1.9,4.24-4.24-1.9-4.24-4.24-4.24Z"/>
        <path class="cls-20" d="M129.42,281.35h-1.63v-23.26c0-.92-.76-1.68-1.68-1.68s-1.68,.76-1.68,1.68v22.66h-1.63v-22.66c0-1.85,1.52-3.31,3.31-3.31s3.31,1.52,3.31,3.31v23.26Z"/>
        <path class="cls-20" d="M123.66,273.91h4.89v9.4h-4.89v-9.4Z"/>
        <path class="cls-20" d="M129.37,284.12h-6.52v-11.03h6.52v11.03Zm-4.89-1.63h3.26v-7.77h-3.26v7.77Z"/>
        <path class="cls-20" d="M123.5,267.44h2.61v1.63h-2.61v-1.63Z"/>
        <path class="cls-20" d="M123.5,261.9h2.61v1.63h-2.61v-1.63Z"/>
        <path class="cls-20" d="M125.84,296.51c-13.2,0-23.96-10.76-23.96-23.96s10.76-24.02,23.96-24.02,23.96,10.76,23.96,23.96-10.71,24.02-23.96,24.02Zm0-46.35c-12.28,0-22.33,10.05-22.33,22.39s10.05,22.33,22.33,22.33,22.33-10,22.33-22.33-10-22.39-22.33-22.39h0Z"/>
      </g>
    </g>
    <g>
      <rect class="cls-24" x="248.05" y="106.89" width="132.75" height="28.93"/>
      <g>
        <path class="cls-19" d="M278.6,116.39h1.48l.69,7.54h.03l.73-7.54h1.68l.73,7.54h.03l.69-7.54h1.33l-.99,9.81h-1.92l-.7-6.61h-.03l-.7,6.61h-2.05l-.99-9.81Z"/>
        <path class="cls-19" d="M287.38,116.39h1.54v3.99h1.65v-3.99h1.54v9.81h-1.54v-4.41h-1.65v4.41h-1.54v-9.81Z"/>
        <path class="cls-19" d="M293.73,116.39h4.2v1.4h-2.66v2.59h2.12v1.4h-2.12v3.01h2.66v1.4h-4.2v-9.81Z"/>
        <path class="cls-19" d="M299.37,116.39h2.28c1.6,0,2.28,.74,2.28,2.25v.6c0,1.01-.32,1.65-1.01,1.93v.03c.77,.24,1.02,.97,1.02,2.07v1.72c0,.48,.01,.83,.17,1.19h-1.57c-.08-.25-.14-.41-.14-1.2v-1.79c0-.91-.27-1.2-.97-1.2h-.53v4.2h-1.54v-9.81Zm2.1,4.2c.57,0,.92-.25,.92-1.04v-.76c0-.7-.24-1.01-.78-1.01h-.7v2.8h.56Z"/>
        <path class="cls-19" d="M305.56,116.39h4.2v1.4h-2.66v2.59h2.12v1.4h-2.12v3.01h2.66v1.4h-4.2v-9.81Z"/>
        <path class="cls-19" d="M313.61,116.39h1.48l.69,7.54h.03l.73-7.54h1.68l.73,7.54h.03l.69-7.54h1.33l-.99,9.81h-1.92l-.7-6.61h-.03l-.7,6.61h-2.05l-.99-9.81Z"/>
        <path class="cls-19" d="M322.39,116.39h4.2v1.4h-2.66v2.59h2.12v1.4h-2.12v3.01h2.66v1.4h-4.2v-9.81Z"/>
        <path class="cls-19" d="M331.99,116.39h2.09l1.6,9.81h-1.54l-.28-1.95v.03h-1.75l-.28,1.92h-1.43l1.6-9.81Zm1.68,6.56l-.69-4.85h-.03l-.67,4.85h1.39Z"/>
        <path class="cls-19" d="M337.04,116.39h2.28c1.6,0,2.28,.74,2.28,2.25v.6c0,1.01-.32,1.65-1.01,1.93v.03c.77,.24,1.02,.97,1.02,2.07v1.72c0,.48,.01,.83,.17,1.19h-1.57c-.08-.25-.14-.41-.14-1.2v-1.79c0-.91-.27-1.2-.97-1.2h-.53v4.2h-1.54v-9.81Zm2.1,4.2c.57,0,.92-.25,.92-1.04v-.76c0-.7-.24-1.01-.78-1.01h-.7v2.8h.56Z"/>
        <path class="cls-19" d="M343.24,116.39h4.2v1.4h-2.66v2.59h2.12v1.4h-2.12v3.01h2.66v1.4h-4.2v-9.81Z"/>
      </g>
      <rect class="cls-14" x="247.7" y="106.61" width="133.31" height="188.51"/>
      <line class="cls-14" x1="247.83" y1="136.04" x2="380.93" y2="136.04"/>
      <g>
        <path class="cls-20" d="M281.4,237.34h-1.38v-1.2h4.08v1.2h-1.38v7.2h-1.32v-7.2Z"/>
        <path class="cls-20" d="M285.29,236.14h1.32v3.42h1.42v-3.42h1.32v8.4h-1.32v-3.78h-1.42v3.78h-1.32v-8.4Z"/>
        <path class="cls-20" d="M290.74,236.14h3.6v1.2h-2.28v2.22h1.81v1.2h-1.81v2.58h2.28v1.2h-3.6v-8.4Z"/>
        <path class="cls-20" d="M297.64,236.14h1.27l.59,6.45h.02l.62-6.45h1.44l.62,6.45h.02l.59-6.45h1.14l-.85,8.4h-1.64l-.6-5.66h-.02l-.6,5.66h-1.75l-.85-8.4Z"/>
        <path class="cls-20" d="M305.05,242.54v-4.41c0-1.34,.71-2.11,2-2.11s2,.77,2,2.11v4.41c0,1.34-.71,2.11-2,2.11s-2-.77-2-2.11Zm2.69,.08v-4.58c0-.6-.26-.83-.68-.83s-.68,.23-.68,.83v4.58c0,.6,.26,.83,.68,.83s.68-.23,.68-.83Z"/>
        <path class="cls-20" d="M310.39,236.14h1.96c1.37,0,1.95,.64,1.95,1.93v.52c0,.86-.28,1.42-.86,1.66v.02c.66,.2,.88,.83,.88,1.77v1.48c0,.41,.01,.71,.14,1.02h-1.34c-.07-.22-.12-.35-.12-1.03v-1.54c0-.78-.23-1.03-.83-1.03h-.46v3.6h-1.32v-8.4Zm1.8,3.6c.49,0,.79-.22,.79-.89v-.65c0-.6-.2-.86-.67-.86h-.6v2.4h.48Z"/>
        <path class="cls-20" d="M315.71,236.14h1.32v7.2h2.17v1.2h-3.49v-8.4Z"/>
        <path class="cls-20" d="M320.38,236.14h2.02c1.32,0,1.97,.73,1.97,2.08v4.25c0,1.34-.65,2.07-1.97,2.07h-2.02v-8.4Zm1.99,7.2c.42,0,.67-.22,.67-.82v-4.37c0-.6-.25-.82-.67-.82h-.67v6h.67Z"/>
        <path class="cls-20" d="M327.8,236.14h1.27l.59,6.45h.02l.62-6.45h1.44l.62,6.45h.02l.59-6.45h1.14l-.85,8.4h-1.64l-.6-5.66h-.02l-.6,5.66h-1.75l-.85-8.4Z"/>
        <path class="cls-20" d="M335.33,236.14h1.32v8.4h-1.32v-8.4Z"/>
        <path class="cls-20" d="M338.04,236.14h1.32v7.2h2.17v1.2h-3.49v-8.4Z"/>
        <path class="cls-20" d="M342.71,236.14h1.32v7.2h2.17v1.2h-3.49v-8.4Z"/>
        <path class="cls-20" d="M280.37,250.14h3.6v1.2h-2.28v2.22h1.81v1.2h-1.81v2.58h2.28v1.2h-3.6v-8.4Z"/>
        <path class="cls-20" d="M286.56,254.24l-1.45-4.1h1.39l.89,2.71h.02l.91-2.71h1.25l-1.45,4.1,1.52,4.29h-1.39l-.96-2.93h-.02l-.98,2.93h-1.25l1.52-4.29Z"/>
        <path class="cls-20" d="M290.57,256.59v-4.51c0-1.29,.67-2.06,1.94-2.06s1.94,.77,1.94,2.06v.89h-1.25v-.97c0-.55-.26-.78-.66-.78s-.66,.23-.66,.78v4.69c0,.55,.26,.77,.66,.77s.66-.22,.66-.77v-1.28h1.25v1.19c0,1.3-.67,2.06-1.94,2.06s-1.94-.77-1.94-2.06Z"/>
        <path class="cls-20" d="M295.72,250.14h3.6v1.2h-2.28v2.22h1.81v1.2h-1.81v2.58h2.28v1.2h-3.6v-8.4Z"/>
        <path class="cls-20" d="M300.56,250.14h3.6v1.2h-2.28v2.22h1.81v1.2h-1.81v2.58h2.28v1.2h-3.6v-8.4Z"/>
        <path class="cls-20" d="M305.41,250.14h2.02c1.32,0,1.97,.73,1.97,2.08v4.25c0,1.34-.65,2.07-1.97,2.07h-2.02v-8.4Zm1.99,7.2c.42,0,.67-.22,.67-.82v-4.37c0-.6-.25-.82-.67-.82h-.67v6h.67Z"/>
        <path class="cls-19" d="M314.98,252.13h-1.38v-.94c1.12,0,1.51-.24,1.81-1.06h.89v8.4h-1.32v-6.4Z"/>
        <path class="cls-19" d="M318.01,257.26h1.27v1.27h-1.27v-1.27Z"/>
        <path class="cls-19" d="M320.59,256.54v-.66h1.25v.76c0,.6,.26,.82,.68,.82s.68-.22,.68-.82v-1.88c0-.6-.26-.83-.68-.83s-.68,.23-.68,.83v.07h-1.25l.24-4.69h3.48v1.2h-2.3l-.11,2h.02c.24-.4,.61-.61,1.14-.61,.97,0,1.46,.68,1.46,1.92v1.9c0,1.34-.67,2.11-1.97,2.11s-1.97-.77-1.97-2.11Z"/>
        <path class="cls-19" d="M325.93,251.54c0-.85,.67-1.52,1.52-1.52s1.52,.67,1.52,1.52-.67,1.52-1.52,1.52-1.52-.67-1.52-1.52Zm2.16,0c0-.35-.29-.64-.64-.64s-.62,.29-.62,.64,.28,.62,.62,.62,.64-.28,.64-.62Z"/>
        <path class="cls-19" d="M330.48,256.59v-4.51c0-1.29,.67-2.06,1.94-2.06s1.94,.77,1.94,2.06v.89h-1.25v-.97c0-.55-.26-.78-.66-.78s-.66,.23-.66,.78v4.69c0,.55,.26,.77,.66,.77s.66-.22,.66-.77v-1.28h1.25v1.19c0,1.3-.67,2.06-1.94,2.06s-1.94-.77-1.94-2.06Z"/>
        <path class="cls-19" d="M338.02,250.14h1.99c1.37,0,1.96,.64,1.96,1.93v.34c0,.86-.26,1.4-.85,1.64v.02c.71,.24,.98,.86,.98,1.75v.72c0,1.29-.68,1.99-2,1.99h-2.07v-8.4Zm1.83,3.42c.49,0,.79-.22,.79-.89v-.47c0-.6-.2-.86-.67-.86h-.64v2.22h.52Zm.24,3.78c.44,0,.68-.2,.68-.83v-.73c0-.78-.25-1.02-.85-1.02h-.59v2.58h.76Z"/>
        <path class="cls-19" d="M344.49,254.96l-1.6-4.82h1.4l.9,3.08h.02l.9-3.08h1.28l-1.6,4.82v3.57h-1.32v-3.57Z"/>
        <path class="cls-19" d="M350.84,257.62c0-1.2,.34-1.93,1.32-2.96,1.01-1.07,1.3-1.7,1.3-2.48s-.26-.96-.68-.96-.68,.23-.68,.83v.9h-1.25v-.82c0-1.34,.67-2.11,1.97-2.11s1.97,.77,1.97,2.11c0,1-.41,1.88-1.63,3.18-.79,.84-1,1.26-1,1.85v.18h2.51v1.2h-3.81v-.91Z"/>
        <path class="cls-19" d="M356.04,256.54v-4.41c0-1.34,.71-2.11,2-2.11s2,.77,2,2.11v4.41c0,1.34-.71,2.11-2,2.11s-2-.77-2-2.11Zm2.69,.08v-4.58c0-.6-.26-.83-.68-.83s-.68,.23-.68,.83v4.58c0,.6,.26,.83,.68,.83s.68-.23,.68-.83Z"/>
        <path class="cls-19" d="M361.31,256.56v-.68h1.25v.74c0,.6,.26,.83,.68,.83s.68-.2,.68-.95v-.68c0-.78-.26-1.07-.86-1.07h-.44v-1.2h.48c.49,0,.79-.22,.79-.89v-.61c0-.6-.28-.84-.66-.84s-.64,.23-.64,.78v.55h-1.25v-.44c0-1.34,.67-2.09,1.93-2.09s1.93,.73,1.93,2.07v.3c0,.9-.29,1.45-.94,1.69v.02c.71,.26,.97,.88,.97,1.73v.74c0,1.34-.67,2.08-1.97,2.08s-1.97-.74-1.97-2.09Z"/>
        <path class="cls-19" d="M366.57,256.54v-.66h1.25v.76c0,.6,.26,.82,.68,.82s.68-.22,.68-.82v-1.88c0-.6-.26-.83-.68-.83s-.68,.23-.68,.83v.07h-1.25l.24-4.69h3.48v1.2h-2.3l-.11,2h.02c.24-.4,.61-.61,1.14-.61,.97,0,1.46,.68,1.46,1.92v1.9c0,1.34-.67,2.11-1.97,2.11s-1.97-.77-1.97-2.11Z"/>
        <path class="cls-20" d="M281.39,264.14h1.79l1.37,8.4h-1.32l-.24-1.67v.02h-1.5l-.24,1.64h-1.22l1.37-8.4Zm1.44,5.61l-.59-4.15h-.02l-.58,4.15h1.19Z"/>
        <path class="cls-20" d="M285.73,264.14h1.66l1.28,5.03h.02v-5.03h1.18v8.4h-1.35l-1.58-6.13h-.02v6.13h-1.18v-8.4Z"/>
        <path class="cls-20" d="M291.27,264.14h2.02c1.32,0,1.97,.73,1.97,2.08v4.25c0,1.34-.65,2.07-1.97,2.07h-2.02v-8.4Zm1.99,7.2c.42,0,.67-.22,.67-.82v-4.37c0-.6-.25-.82-.67-.82h-.67v6h.67Z"/>
        <path class="cls-20" d="M299,264.14h3.49v1.2h-2.17v2.34h1.7v1.2h-1.7v3.66h-1.32v-8.4Z"/>
        <path class="cls-20" d="M304.35,264.14h1.79l1.37,8.4h-1.32l-.24-1.67v.02h-1.5l-.24,1.64h-1.22l1.37-8.4Zm1.44,5.61l-.59-4.15h-.02l-.58,4.15h1.19Z"/>
        <path class="cls-20" d="M308.53,270.59v-4.51c0-1.29,.67-2.06,1.94-2.06s1.94,.77,1.94,2.06v.89h-1.25v-.97c0-.55-.26-.78-.66-.78s-.66,.23-.66,.78v4.69c0,.55,.26,.77,.66,.77s.66-.22,.66-.77v-1.28h1.25v1.19c0,1.3-.67,2.06-1.94,2.06s-1.94-.77-1.94-2.06Z"/>
        <path class="cls-20" d="M313.68,264.14h3.6v1.2h-2.28v2.22h1.81v1.2h-1.81v2.58h2.28v1.2h-3.6v-8.4Z"/>
        <path class="cls-20" d="M318.39,270.54v-.48h1.25v.58c0,.6,.26,.82,.68,.82s.68-.22,.68-.84c0-.7-.26-1.14-1.13-1.9-1.1-.97-1.46-1.66-1.46-2.61,0-1.32,.68-2.09,1.97-2.09s1.92,.77,1.92,2.11v.35h-1.25v-.43c0-.6-.24-.83-.66-.83s-.66,.23-.66,.8c0,.61,.28,1.06,1.14,1.81,1.1,.97,1.45,1.64,1.45,2.69,0,1.37-.7,2.14-1.99,2.14s-1.94-.77-1.94-2.11Z"/>
        <path class="cls-20" d="M326.96,264.14h1.79l1.37,8.4h-1.32l-.24-1.67v.02h-1.5l-.24,1.64h-1.22l1.37-8.4Zm1.44,5.61l-.59-4.15h-.02l-.58,4.15h1.19Z"/>
        <path class="cls-19" d="M333.58,271.62c0-1.2,.34-1.93,1.32-2.96,1.01-1.07,1.3-1.7,1.3-2.48s-.26-.96-.68-.96-.68,.23-.68,.83v.9h-1.25v-.82c0-1.34,.67-2.11,1.97-2.11s1.97,.77,1.97,2.11c0,1-.41,1.88-1.63,3.18-.79,.84-1,1.26-1,1.85v.18h2.51v1.2h-3.81v-.91Z"/>
        <path class="cls-19" d="M338.77,271.26h1.27v1.27h-1.27v-1.27Z"/>
        <path class="cls-19" d="M341.35,270.54v-.66h1.25v.76c0,.6,.26,.82,.68,.82s.68-.22,.68-.82v-1.88c0-.6-.26-.83-.68-.83s-.68,.23-.68,.83v.07h-1.25l.24-4.69h3.48v1.2h-2.3l-.11,2h.02c.24-.4,.61-.61,1.14-.61,.97,0,1.46,.68,1.46,1.92v1.9c0,1.34-.67,2.11-1.97,2.11s-1.97-.77-1.97-2.11Z"/>
        <path class="cls-19" d="M346.69,265.54c0-.85,.67-1.52,1.52-1.52s1.52,.67,1.52,1.52-.67,1.52-1.52,1.52-1.52-.67-1.52-1.52Zm2.16,0c0-.35-.29-.64-.64-.64s-.62,.29-.62,.64,.28,.62,.62,.62,.64-.28,.64-.62Z"/>
        <path class="cls-19" d="M351.24,270.59v-4.51c0-1.29,.67-2.06,1.94-2.06s1.94,.77,1.94,2.06v.89h-1.25v-.97c0-.55-.26-.78-.66-.78s-.66,.23-.66,.78v4.69c0,.55,.26,.77,.66,.77s.66-.22,.66-.77v-1.28h1.25v1.19c0,1.3-.67,2.06-1.94,2.06s-1.94-.77-1.94-2.06Z"/>
        <path class="cls-19" d="M280.06,278.14h1.27l.59,6.45h.02l.62-6.45h1.44l.62,6.45h.02l.59-6.45h1.14l-.85,8.4h-1.64l-.6-5.66h-.02l-.6,5.66h-1.75l-.85-8.4Z"/>
        <path class="cls-19" d="M288.37,278.14h1.79l1.37,8.4h-1.32l-.24-1.67v.02h-1.5l-.24,1.64h-1.22l1.37-8.4Zm1.44,5.61l-.59-4.15h-.02l-.58,4.15h1.19Z"/>
        <path class="cls-19" d="M292.71,278.14h1.96c1.37,0,1.95,.64,1.95,1.93v.52c0,.86-.28,1.42-.86,1.66v.02c.66,.2,.88,.83,.88,1.77v1.48c0,.41,.01,.71,.14,1.02h-1.34c-.07-.22-.12-.35-.12-1.03v-1.54c0-.78-.23-1.03-.83-1.03h-.46v3.6h-1.32v-8.4Zm1.8,3.6c.49,0,.79-.22,.79-.89v-.65c0-.6-.2-.86-.67-.86h-.6v2.4h.48Z"/>
        <path class="cls-19" d="M298.03,278.14h1.88l.84,6.01h.02l.84-6.01h1.88v8.4h-1.25v-6.36h-.02l-.96,6.36h-1.1l-.96-6.36h-.02v6.36h-1.15v-8.4Z"/>
        <path class="cls-19" d="M304.9,278.14h1.32v8.4h-1.32v-8.4Z"/>
        <path class="cls-19" d="M307.6,278.14h1.66l1.28,5.03h.02v-5.03h1.18v8.4h-1.35l-1.58-6.13h-.02v6.13h-1.18v-8.4Z"/>
        <path class="cls-19" d="M313.08,284.54v-4.41c0-1.34,.67-2.11,1.97-2.11s1.97,.77,1.97,2.11v.72h-1.25v-.8c0-.6-.26-.83-.68-.83s-.68,.23-.68,.83v4.59c0,.6,.26,.82,.68,.82s.68-.22,.68-.82v-1.64h-.66v-1.2h1.91v2.75c0,1.34-.67,2.11-1.97,2.11s-1.97-.77-1.97-2.11Z"/>
        <path class="cls-20" d="M320.72,278.14h1.99c1.37,0,1.96,.64,1.96,1.93v.34c0,.86-.26,1.4-.85,1.64v.02c.71,.24,.98,.86,.98,1.75v.72c0,1.29-.68,1.99-2,1.99h-2.07v-8.4Zm1.83,3.42c.49,0,.79-.22,.79-.89v-.47c0-.6-.2-.86-.67-.86h-.64v2.22h.52Zm.24,3.78c.44,0,.68-.2,.68-.83v-.73c0-.78-.25-1.02-.85-1.02h-.59v2.58h.76Z"/>
        <path class="cls-20" d="M327.2,282.96l-1.6-4.82h1.4l.9,3.08h.02l.9-3.08h1.28l-1.6,4.82v3.57h-1.32v-3.57Z"/>
        <path class="cls-20" d="M333.54,285.62c0-1.2,.34-1.93,1.32-2.96,1.01-1.07,1.3-1.7,1.3-2.48s-.26-.96-.68-.96-.68,.23-.68,.83v.9h-1.25v-.82c0-1.34,.67-2.11,1.97-2.11s1.97,.77,1.97,2.11c0,1-.41,1.88-1.63,3.18-.79,.84-1,1.26-1,1.85v.18h2.51v1.2h-3.81v-.91Z"/>
        <path class="cls-20" d="M340.4,280.13h-1.38v-.94c1.12,0,1.51-.24,1.81-1.06h.89v8.4h-1.32v-6.4Z"/>
        <path class="cls-20" d="M343.38,284.54v-4.41c0-1.34,.71-2.11,2-2.11s2,.77,2,2.11v4.41c0,1.34-.71,2.11-2,2.11s-2-.77-2-2.11Zm2.69,.08v-4.58c0-.6-.26-.83-.68-.83s-.68,.23-.68,.83v4.58c0,.6,.26,.83,.68,.83s.68-.23,.68-.83Z"/>
        <path class="cls-20" d="M348.65,284.54v-4.41c0-1.34,.71-2.11,2-2.11s2,.77,2,2.11v4.41c0,1.34-.71,2.11-2,2.11s-2-.77-2-2.11Zm2.69,.08v-4.58c0-.6-.26-.83-.68-.83s-.68,.23-.68,.83v4.58c0,.6,.26,.83,.68,.83s.68-.23,.68-.83Z"/>
      </g>
      <g>
        <polygon class="cls-28" points="267.77 177.52 273.23 177.52 264.95 165.62 256.67 177.52 262.19 177.52 262.19 276.16 267.77 276.16 267.77 177.52"/>
        <g>
          <path class="cls-5" d="M269.14,272.78v-31.05c0-1.18-.48-2.26-1.26-3.04-.78-.78-1.85-1.26-3.04-1.26-2.37,0-4.3,1.92-4.3,4.3v31.07c-2.14,1.41-3.54,3.82-3.54,6.57,0,4.34,3.52,7.86,7.86,7.86s7.86-3.52,7.86-7.86c0-2.76-1.43-5.19-3.58-6.6Z"/>
          <g>
            <path class="cls-19" d="M269.14,272.78v-31.05c0-1.18-.48-2.26-1.26-3.04-.78-.78-1.85-1.26-3.04-1.26-2.37,0-4.3,1.92-4.3,4.3v31.07c-2.14,1.41-3.54,3.82-3.54,6.57,0,4.34,3.52,7.86,7.86,7.86s7.86-3.52,7.86-7.86c0-2.76-1.43-5.19-3.58-6.6Zm.19,11.07c-1.19,1.19-2.78,1.85-4.47,1.85s-3.28-.66-4.47-1.85-1.85-2.78-1.85-4.47c0-2.14,1.07-4.11,2.85-5.29l.69-.46v-31.9c0-1.52,1.24-2.75,2.75-2.75,.73,0,1.43,.29,1.95,.81,.52,.52,.81,1.21,.81,1.95v31.89l.71,.46c1.8,1.17,2.88,3.15,2.88,5.31,0,1.69-.65,3.27-1.85,4.47Z"/>
            <path class="cls-20" d="M265.86,275.62v-23.13c0-.28-.11-.53-.29-.71s-.43-.29-.71-.29c-.55,0-1,.45-1,1v23.13c-1.53,.44-2.66,1.85-2.66,3.52,0,2.02,1.64,3.66,3.66,3.66s3.66-1.64,3.66-3.66c0-1.68-1.12-3.09-2.66-3.52Z"/>
          </g>
        </g>
      </g>
      <g>
        <path class="cls-7" d="M313.31,170.16h-14.73c-1.78,3.62-2.86,7.65-3.03,11.91h16.67c.06-4.25,.44-8.27,1.09-11.91Z"/>
        <path class="cls-7" d="M334.44,167.78c-2.02-8.91-5.65-14.3-9.13-14.3s-7.1,5.38-9.13,14.3h18.25Z"/>
        <path class="cls-7" d="M319.79,154c-8.41,1.58-15.58,6.72-19.9,13.78h13.89c1.33-6.07,3.44-10.91,6.01-13.78Z"/>
        <path class="cls-7" d="M338.41,182.07h16.67c-.17-4.26-1.24-8.29-3.03-11.91h-14.73c.65,3.65,1.03,7.66,1.09,11.91Z"/>
        <path class="cls-7" d="M314.61,182.07h21.42c-.06-4.38-.46-8.38-1.1-11.91h-19.22c-.64,3.54-1.04,7.54-1.1,11.91Z"/>
        <path class="cls-7" d="M350.74,167.78c-4.32-7.06-11.49-12.19-19.9-13.78,2.57,2.87,4.68,7.7,6.01,13.78h13.89Z"/>
        <path class="cls-7" d="M296.72,199.95c1.32,0,2.38-1.07,2.38-2.38v-2.38c0-1.32,1.07-2.38,2.38-2.38s2.38,1.07,2.38,2.38v9.53c0,1.32,1.07,2.38,2.38,2.38s2.38-1.07,2.38-2.38v-14.3c0-1.32,1.07-2.38,2.38-2.38s2.38,1.07,2.38,2.38v7.15c0,1.32,1.07,2.38,2.38,2.38s2.38-1.07,2.38-2.38v-2.38c0-1.32,1.07-2.38,2.38-2.38s2.38,1.07,2.38,2.38v11.91c0,1.32,1.07,2.38,2.38,2.38s2.38-1.07,2.38-2.38v-14.3c0-1.32,1.07-2.38,2.38-2.38s2.38,1.07,2.38,2.38v7.15c0,1.32,1.07,2.38,2.38,2.38s2.38-1.07,2.38-2.38v-2.38c0-1.32,1.07-2.38,2.38-2.38s2.38,1.07,2.38,2.38v7.15c0,1.32,1.07,2.38,2.38,2.38s2.38-1.07,2.38-2.38v-11.91c0-1.32,1.07-2.38,2.38-2.38s2.38,1.07,2.38,2.38v4.77c0,1.32,1.07,2.38,2.38,2.38s2.38-1.07,2.38-2.38v-13.11h-61.96v13.11c0,1.32,1.07,2.38,2.38,2.38Z"/>
        <path class="cls-6" d="M368.13,219.01h-28.52c-1.32,0-2.38-1.07-2.38-2.38s-1.07-2.38-2.38-2.38h-10.72v-2.55c-2.05-.53-3.57-2.38-3.57-4.6v-3.57h-2.38v8.34c0,1.32-1.07,2.38-2.38,2.38h-32.62c-1.32,0-2.38,1.07-2.38,2.38s1.07,2.38,2.38,2.38h21.9c1.32,0,2.38,1.07,2.38,2.38s1.07,2.38,2.38,2.38h58.3c1.32,0,2.38-1.07,2.38-2.38s-1.07-2.38-2.38-2.38Z"/>
      </g>
    </g>
  </g>
</svg>