<?xml version="1.0" encoding="UTF-8"?>
<svg id="Layer_2" data-name="Layer 2" xmlns="http://www.w3.org/2000/svg" xmlns:xlink="http://www.w3.org/1999/xlink" viewBox="0 0 314.39 182.28">
  <defs>
    <style>
      .cls-1 {
        fill: url(#linear-gradient-2);
      }

      .cls-2, .cls-3, .cls-4 {
        fill: #fff;
      }

      .cls-5 {
        stroke-linejoin: round;
      }

      .cls-5, .cls-6, .cls-7 {
        fill: none;
      }

      .cls-5, .cls-6, .cls-3 {
        stroke: #48773c;
      }

      .cls-8 {
        fill: #777677;
      }

      .cls-6, .cls-7, .cls-3, .cls-4 {
        stroke-miterlimit: 10;
        stroke-width: .5px;
      }

      .cls-9 {
        fill: #48773c;
      }

      .cls-10 {
        fill: #c7d1bd;
      }

      .cls-7, .cls-4 {
        stroke: #99aa89;
      }

      .cls-11 {
        fill: url(#linear-gradient);
      }
    </style>
    <linearGradient id="linear-gradient" x1="157.2" y1="-2.26" x2="157.2" y2="377.93" gradientUnits="userSpaceOnUse">
      <stop offset="0" stop-color="#e6eae0" stop-opacity="0"/>
      <stop offset=".2" stop-color="#dfe4d8" stop-opacity=".21"/>
      <stop offset=".76" stop-color="#cdd6c4" stop-opacity=".77"/>
      <stop offset="1" stop-color="#c7d1bd"/>
    </linearGradient>
    <linearGradient id="linear-gradient-2" x1="163.13" y1="108.95" x2="163.13" y2="142.22" gradientUnits="userSpaceOnUse">
      <stop offset="0" stop-color="#c7d1bd"/>
      <stop offset=".35" stop-color="#abbb9e"/>
      <stop offset="1" stop-color="#708f5f"/>
    </linearGradient>
  </defs>
  <g id="Layer_2-2" data-name="Layer 2">
    <rect class="cls-11" width="314.39" height="182.19"/>
    <rect class="cls-10" y="142.58" width="314.37" height="39.7"/>
    <rect class="cls-9" x="12.67" y="8.45" width="115.37" height="17.14"/>
    <g>
      <path class="cls-2" d="M17.37,12.27h2.21c1.52,0,2.17,.71,2.17,2.14v.37c0,.96-.29,1.56-.94,1.82v.03c.79,.27,1.09,.96,1.09,1.94v.8c0,1.44-.76,2.21-2.22,2.21h-2.3V12.27Zm2.04,3.79c.55,0,.88-.24,.88-.98v-.52c0-.67-.23-.96-.75-.96h-.71v2.46h.57Zm.27,4.19c.49,0,.76-.23,.76-.92v-.81c0-.86-.28-1.13-.94-1.13h-.65v2.86h.84Z"/>
      <path class="cls-2" d="M23.42,12.27h1.46v9.31h-1.46V12.27Z"/>
      <path class="cls-2" d="M26.56,12.27h1.46v7.98h2.41v1.33h-3.87V12.27Z"/>
      <path class="cls-2" d="M31.88,12.27h1.46v7.98h2.41v1.33h-3.87V12.27Z"/>
      <path class="cls-2" d="M37.21,12.27h1.46v9.31h-1.46V12.27Z"/>
      <path class="cls-2" d="M40.29,19.38v-4.9c0-1.49,.79-2.34,2.22-2.34s2.22,.85,2.22,2.34v4.9c0,1.49-.79,2.34-2.22,2.34s-2.22-.85-2.22-2.34Zm2.98,.09v-5.08c0-.67-.29-.92-.76-.92s-.76,.25-.76,.92v5.08c0,.67,.29,.92,.76,.92s.76-.25,.76-.92Z"/>
      <path class="cls-2" d="M46.35,12.27h1.84l1.42,5.58h.03v-5.58h1.3v9.31h-1.5l-1.76-6.8h-.03v6.8h-1.3V12.27Z"/>
      <path class="cls-2" d="M52.46,19.38v-.53h1.38v.64c0,.67,.29,.91,.76,.91s.76-.24,.76-.93c0-.77-.29-1.26-1.25-2.1-1.22-1.08-1.62-1.84-1.62-2.9,0-1.46,.76-2.32,2.18-2.32s2.13,.85,2.13,2.34v.39h-1.38v-.48c0-.67-.27-.92-.73-.92s-.73,.25-.73,.89c0,.68,.31,1.17,1.26,2.01,1.22,1.08,1.61,1.82,1.61,2.98,0,1.52-.77,2.37-2.21,2.37s-2.16-.85-2.16-2.34Z"/>
      <path class="cls-2" d="M62.26,13.61h-1.53v-1.33h4.52v1.33h-1.53v7.98h-1.46v-7.98Z"/>
      <path class="cls-2" d="M66.62,19.38v-4.9c0-1.49,.79-2.34,2.22-2.34s2.22,.85,2.22,2.34v4.9c0,1.49-.79,2.34-2.22,2.34s-2.22-.85-2.22-2.34Zm2.98,.09v-5.08c0-.67-.29-.92-.76-.92s-.76,.25-.76,.92v5.08c0,.67,.29,.92,.76,.92s.76-.25,.76-.92Z"/>
      <path class="cls-2" d="M76.66,13.61h-1.53v-1.33h4.52v1.33h-1.53v7.98h-1.46v-7.98Z"/>
      <path class="cls-2" d="M81.1,12.27h2.17c1.52,0,2.17,.71,2.17,2.14v.57c0,.96-.31,1.57-.96,1.84v.03c.73,.23,.97,.92,.97,1.97v1.64c0,.45,.01,.79,.16,1.13h-1.49c-.08-.24-.13-.39-.13-1.14v-1.7c0-.86-.25-1.14-.92-1.14h-.51v3.99h-1.46V12.27Zm2,3.99c.55,0,.88-.24,.88-.98v-.72c0-.67-.23-.96-.75-.96h-.67v2.66h.53Z"/>
      <path class="cls-2" d="M87.14,12.27h1.46v9.31h-1.46V12.27Z"/>
      <path class="cls-2" d="M90.28,12.27h1.46v7.98h2.41v1.33h-3.87V12.27Z"/>
      <path class="cls-2" d="M95.61,12.27h1.46v7.98h2.41v1.33h-3.87V12.27Z"/>
      <path class="cls-2" d="M100.93,12.27h1.46v9.31h-1.46V12.27Z"/>
      <path class="cls-2" d="M104.01,19.38v-4.9c0-1.49,.79-2.34,2.22-2.34s2.22,.85,2.22,2.34v4.9c0,1.49-.79,2.34-2.22,2.34s-2.22-.85-2.22-2.34Zm2.98,.09v-5.08c0-.67-.29-.92-.76-.92s-.76,.25-.76,.92v5.08c0,.67,.29,.92,.76,.92s.76-.25,.76-.92Z"/>
      <path class="cls-2" d="M110.07,12.27h1.84l1.42,5.58h.03v-5.58h1.3v9.31h-1.5l-1.76-6.8h-.03v6.8h-1.3V12.27Z"/>
      <path class="cls-2" d="M116.18,19.38v-.53h1.38v.64c0,.67,.29,.91,.76,.91s.76-.24,.76-.93c0-.77-.29-1.26-1.25-2.1-1.22-1.08-1.62-1.84-1.62-2.9,0-1.46,.76-2.32,2.18-2.32s2.13,.85,2.13,2.34v.39h-1.38v-.48c0-.67-.27-.92-.73-.92s-.73,.25-.73,.89c0,.68,.31,1.17,1.26,2.01,1.22,1.08,1.61,1.82,1.61,2.98,0,1.52-.77,2.37-2.21,2.37s-2.16-.85-2.16-2.34Z"/>
      <path class="cls-2" d="M122.03,15.11h1.41v1.41h-1.41v-1.41Zm0,5.07h1.41v1.41h-1.41v-1.41Z"/>
    </g>
    <g>
      <path class="cls-9" d="M145.01,156.45c0-1.1,.31-1.77,1.21-2.72,.92-.98,1.19-1.56,1.19-2.28s-.24-.88-.63-.88-.63,.21-.63,.76v.82h-1.14v-.75c0-1.23,.62-1.94,1.8-1.94s1.8,.7,1.8,1.94c0,.91-.37,1.73-1.5,2.92-.73,.77-.91,1.16-.91,1.69v.17h2.3v1.1h-3.5v-.84Z"/>
      <path class="cls-9" d="M149.62,155.46v-4.05c0-1.23,.65-1.94,1.84-1.94s1.84,.7,1.84,1.94v4.05c0,1.23-.65,1.94-1.84,1.94s-1.84-.7-1.84-1.94Zm2.46,.08v-4.2c0-.55-.24-.76-.63-.76s-.63,.21-.63,.76v4.2c0,.55,.24,.76,.63,.76s.63-.21,.63-.76Z"/>
      <path class="cls-9" d="M156.08,151.41h-1.27v-.86c1.02,0,1.39-.22,1.66-.97h.81v7.7h-1.21v-5.88Z"/>
      <path class="cls-9" d="M158.96,155.46v-.14h1.14v.22c0,.55,.24,.76,.63,.76,.43,0,.67-.21,.67-.95v-1.47h-.02c-.21,.44-.56,.67-1.1,.67-.89,0-1.34-.63-1.34-1.76v-1.38c0-1.23,.65-1.94,1.84-1.94s1.84,.7,1.84,1.94v3.98c0,1.3-.59,2-1.85,2-1.19,0-1.8-.7-1.8-1.94Zm2.44-2.77v-1.36c0-.51-.21-.75-.63-.75s-.63,.24-.63,.75v1.36c0,.52,.21,.76,.63,.76s.63-.24,.63-.76Z"/>
      <path class="cls-9" d="M163.28,152.94h3.3v.99h-3.3v-.99Z"/>
      <path class="cls-9" d="M167.28,156.45c0-1.1,.31-1.77,1.21-2.72,.92-.98,1.19-1.56,1.19-2.28s-.24-.88-.63-.88-.63,.21-.63,.76v.82h-1.14v-.75c0-1.23,.62-1.94,1.8-1.94s1.8,.7,1.8,1.94c0,.91-.37,1.73-1.5,2.92-.73,.77-.91,1.16-.91,1.69v.17h2.3v1.1h-3.5v-.84Z"/>
      <path class="cls-9" d="M171.89,155.46v-4.05c0-1.23,.65-1.94,1.84-1.94s1.84,.7,1.84,1.94v4.05c0,1.23-.65,1.94-1.84,1.94s-1.84-.7-1.84-1.94Zm2.46,.08v-4.2c0-.55-.24-.76-.63-.76s-.63,.21-.63,.76v4.2c0,.55,.24,.76,.63,.76s.63-.21,.63-.76Z"/>
      <path class="cls-9" d="M176.63,156.45c0-1.1,.31-1.77,1.21-2.72,.92-.98,1.19-1.56,1.19-2.28s-.24-.88-.63-.88-.63,.21-.63,.76v.82h-1.14v-.75c0-1.23,.62-1.94,1.8-1.94s1.8,.7,1.8,1.94c0,.91-.37,1.73-1.5,2.92-.73,.77-.91,1.16-.91,1.69v.17h2.3v1.1h-3.5v-.84Z"/>
      <path class="cls-9" d="M181.24,155.46v-4.05c0-1.23,.65-1.94,1.84-1.94s1.84,.7,1.84,1.94v4.05c0,1.23-.65,1.94-1.84,1.94s-1.84-.7-1.84-1.94Zm2.46,.08v-4.2c0-.55-.24-.76-.63-.76s-.63,.21-.63,.76v4.2c0,.55,.24,.76,.63,.76s.63-.21,.63-.76Z"/>
    </g>
    <g>
      <path class="cls-9" d="M143.59,165.55v-3.46c0-.78,.31-1.07,1.08-1.07h.24v.63h-.19c-.25,0-.36,.09-.36,.44v3.46c0,.35,.11,.44,.36,.44h.19v.63h-.24c-.77,0-1.08-.29-1.08-1.07Z"/>
      <path class="cls-9" d="M146.27,161.37h1.04l.8,4.9h-.77l-.14-.97h0s-.88,.01-.88,.01l-.14,.96h-.71l.8-4.9Zm.84,3.28l-.34-2.42h-.01l-.34,2.42h.69Z"/>
      <path class="cls-9" d="M148.66,161.37h.97l.75,2.93h.01v-2.93h.69v4.9h-.79l-.92-3.58h-.01v3.58h-.69v-4.9Z"/>
      <path class="cls-9" d="M151.83,161.37h.97l.75,2.93h.01v-2.93h.69v4.9h-.79l-.92-3.58h-.01v3.58h-.69v-4.9Z"/>
      <path class="cls-9" d="M154.96,165.11v-3.74h.77v3.8c0,.35,.15,.48,.39,.48s.39-.13,.39-.48v-3.8h.74v3.74c0,.78-.39,1.23-1.15,1.23s-1.15-.45-1.15-1.23Z"/>
      <path class="cls-9" d="M158.56,161.37h1.04l.8,4.9h-.77l-.14-.97h0s-.88,.01-.88,.01l-.14,.96h-.71l.8-4.9Zm.84,3.28l-.34-2.42h-.01l-.34,2.42h.69Z"/>
      <path class="cls-9" d="M160.95,161.37h.77v4.2h1.27v.7h-2.04v-4.9Z"/>
      <path class="cls-9" d="M165.42,161.37h1.04l.8,4.9h-.77l-.14-.97h0s-.88,.01-.88,.01l-.14,.96h-.71l.8-4.9Zm.84,3.28l-.34-2.42h-.01l-.34,2.42h.69Z"/>
      <path class="cls-9" d="M167.41,161.37h.78l.5,3.8h.01l.5-3.8h.71l-.74,4.9h-1.02l-.74-4.9Z"/>
      <path class="cls-9" d="M170.46,161.37h2.1v.7h-1.33v1.3h1.06v.7h-1.06v1.51h1.33v.7h-2.1v-4.9Z"/>
      <path class="cls-9" d="M173.17,161.37h1.14c.8,0,1.14,.37,1.14,1.13v.3c0,.5-.16,.83-.5,.97h0c.39,.13,.51,.5,.51,1.05v.86c0,.24,0,.41,.08,.6h-.78c-.04-.13-.07-.2-.07-.6v-.9c0-.46-.13-.6-.48-.6h-.27v2.1h-.77v-4.9Zm1.05,2.1c.29,0,.46-.13,.46-.52v-.38c0-.35-.12-.5-.39-.5h-.35v1.4h.28Z"/>
      <path class="cls-9" d="M176.77,161.37h1.04l.8,4.9h-.77l-.14-.97h0s-.88,.01-.88,.01l-.14,.96h-.71l.8-4.9Zm.84,3.28l-.34-2.42h-.01l-.34,2.42h.69Z"/>
      <path class="cls-9" d="M179.08,165.11v-2.58c0-.78,.39-1.23,1.15-1.23s1.15,.45,1.15,1.23v.42h-.73v-.47c0-.35-.15-.48-.4-.48s-.4,.13-.4,.48v2.68c0,.35,.15,.48,.4,.48s.4-.13,.4-.48v-.96h-.39v-.7h1.11v1.6c0,.78-.39,1.23-1.15,1.23s-1.15-.45-1.15-1.23Z"/>
      <path class="cls-9" d="M182.05,161.37h2.1v.7h-1.33v1.3h1.06v.7h-1.06v1.51h1.33v.7h-2.1v-4.9Z"/>
      <path class="cls-9" d="M184.79,165.99h.19c.25,0,.36-.09,.36-.44v-3.46c0-.35-.11-.44-.36-.44h-.19v-.63h.24c.77,0,1.08,.29,1.08,1.07v3.46c0,.78-.31,1.07-1.08,1.07h-.24v-.63Z"/>
    </g>
    <g>
      <path class="cls-9" d="M237.98,156.4c0-1.1,.31-1.77,1.21-2.72,.92-.98,1.19-1.56,1.19-2.28s-.24-.88-.63-.88-.63,.21-.63,.76v.82h-1.14v-.75c0-1.23,.62-1.94,1.8-1.94s1.8,.7,1.8,1.94c0,.91-.37,1.73-1.5,2.92-.73,.77-.91,1.16-.91,1.69v.17h2.3v1.1h-3.5v-.84Z"/>
      <path class="cls-9" d="M242.59,155.41v-4.05c0-1.23,.65-1.94,1.84-1.94s1.84,.7,1.84,1.94v4.05c0,1.23-.65,1.94-1.84,1.94s-1.84-.7-1.84-1.94Zm2.46,.08v-4.2c0-.55-.24-.76-.63-.76s-.63,.21-.63,.76v4.2c0,.55,.24,.76,.63,.76s.63-.21,.63-.76Z"/>
      <path class="cls-9" d="M247.27,155.43v-.63h1.14v.68c0,.55,.24,.76,.63,.76s.63-.19,.63-.87v-.63c0-.72-.24-.98-.79-.98h-.41v-1.1h.44c.45,0,.73-.2,.73-.81v-.56c0-.55-.25-.77-.6-.77s-.58,.21-.58,.71v.51h-1.14v-.41c0-1.23,.62-1.91,1.77-1.91s1.77,.67,1.77,1.9v.27c0,.83-.26,1.33-.86,1.55v.02c.65,.24,.89,.8,.89,1.58v.68c0,1.23-.62,1.9-1.8,1.9s-1.8-.68-1.8-1.91Z"/>
      <path class="cls-9" d="M251.94,155.41v-4.05c0-1.23,.65-1.94,1.84-1.94s1.84,.7,1.84,1.94v4.05c0,1.23-.65,1.94-1.84,1.94s-1.84-.7-1.84-1.94Zm2.46,.08v-4.2c0-.55-.24-.76-.63-.76s-.63,.21-.63,.76v4.2c0,.55,.24,.76,.63,.76s.63-.21,.63-.76Z"/>
    </g>
    <g>
      <path class="cls-8" d="M13.8,39.8v-4.41c0-1.34,.67-2.11,1.97-2.11s1.97,.77,1.97,2.11v.72h-1.25v-.8c0-.6-.26-.83-.68-.83s-.68,.23-.68,.83v4.59c0,.6,.26,.82,.68,.82s.68-.22,.68-.82v-1.64h-.66v-1.2h1.91v2.75c0,1.34-.67,2.11-1.97,2.11s-1.97-.77-1.97-2.11Z"/>
      <path class="cls-8" d="M19.17,33.4h1.32v7.2h2.17v1.2h-3.49v-8.4Z"/>
      <path class="cls-8" d="M23.91,39.8v-4.41c0-1.34,.71-2.11,2-2.11s2,.77,2,2.11v4.41c0,1.34-.71,2.11-2,2.11s-2-.77-2-2.11Zm2.69,.08v-4.58c0-.6-.26-.83-.68-.83s-.68,.23-.68,.83v4.58c0,.6,.26,.83,.68,.83s.68-.23,.68-.83Z"/>
      <path class="cls-8" d="M29.38,33.4h1.99c1.37,0,1.96,.64,1.96,1.93v.34c0,.86-.26,1.4-.85,1.64v.02c.71,.24,.98,.86,.98,1.75v.72c0,1.29-.68,1.99-2,1.99h-2.07v-8.4Zm1.83,3.42c.49,0,.79-.22,.79-.89v-.47c0-.6-.2-.86-.67-.86h-.64v2.22h.52Zm.24,3.78c.44,0,.68-.2,.68-.83v-.73c0-.78-.25-1.02-.85-1.02h-.59v2.58h.76Z"/>
      <path class="cls-8" d="M35.92,33.4h1.79l1.37,8.4h-1.32l-.24-1.67v.02h-1.5l-.24,1.64h-1.22l1.37-8.4Zm1.44,5.61l-.59-4.15h-.02l-.58,4.15h1.19Z"/>
      <path class="cls-8" d="M40.39,33.4h1.32v7.2h2.17v1.2h-3.49v-8.4Z"/>
      <path class="cls-8" d="M47.55,39.85v-4.51c0-1.29,.67-2.06,1.94-2.06s1.94,.77,1.94,2.06v.89h-1.25v-.97c0-.55-.26-.78-.66-.78s-.66,.23-.66,.78v4.69c0,.55,.26,.77,.66,.77s.66-.22,.66-.77v-1.28h1.25v1.19c0,1.3-.67,2.06-1.94,2.06s-1.94-.77-1.94-2.06Z"/>
      <path class="cls-8" d="M52.84,33.4h1.32v7.2h2.17v1.2h-3.49v-8.4Z"/>
      <path class="cls-8" d="M57.64,33.4h1.32v8.4h-1.32v-8.4Z"/>
      <path class="cls-8" d="M60.48,33.4h1.88l.84,6.01h.02l.84-6.01h1.88v8.4h-1.25v-6.36h-.02l-.96,6.36h-1.1l-.96-6.36h-.02v6.36h-1.15v-8.4Z"/>
      <path class="cls-8" d="M68.64,33.4h1.79l1.37,8.4h-1.32l-.24-1.67v.02h-1.5l-.24,1.64h-1.22l1.37-8.4Zm1.44,5.61l-.59-4.15h-.02l-.58,4.15h1.19Z"/>
      <path class="cls-8" d="M73.74,34.6h-1.38v-1.2h4.08v1.2h-1.38v7.2h-1.32v-7.2Z"/>
      <path class="cls-8" d="M77.76,33.4h3.6v1.2h-2.28v2.22h1.81v1.2h-1.81v2.58h2.28v1.2h-3.6v-8.4Z"/>
      <path class="cls-8" d="M85.23,33.4h3.49v1.2h-2.17v2.34h1.7v1.2h-1.7v3.66h-1.32v-8.4Z"/>
      <path class="cls-8" d="M90.04,33.4h1.32v8.4h-1.32v-8.4Z"/>
      <path class="cls-8" d="M92.88,33.4h1.66l1.28,5.03h.02v-5.03h1.18v8.4h-1.35l-1.58-6.13h-.02v6.13h-1.18v-8.4Z"/>
      <path class="cls-8" d="M99.7,33.4h1.79l1.37,8.4h-1.32l-.24-1.67v.02h-1.5l-.24,1.64h-1.22l1.37-8.4Zm1.44,5.61l-.59-4.15h-.02l-.58,4.15h1.19Z"/>
      <path class="cls-8" d="M104.17,33.4h1.66l1.28,5.03h.02v-5.03h1.18v8.4h-1.35l-1.58-6.13h-.02v6.13h-1.18v-8.4Z"/>
      <path class="cls-8" d="M109.78,39.85v-4.51c0-1.29,.67-2.06,1.94-2.06s1.94,.77,1.94,2.06v.89h-1.25v-.97c0-.55-.26-.78-.66-.78s-.66,.23-.66,.78v4.69c0,.55,.26,.77,.66,.77s.66-.22,.66-.77v-1.28h1.25v1.19c0,1.3-.67,2.06-1.94,2.06s-1.94-.77-1.94-2.06Z"/>
      <path class="cls-8" d="M115.06,33.4h3.6v1.2h-2.28v2.22h1.81v1.2h-1.81v2.58h2.28v1.2h-3.6v-8.4Z"/>
      <path class="cls-8" d="M122.54,33.4h3.49v1.2h-2.17v2.34h1.7v1.2h-1.7v3.66h-1.32v-8.4Z"/>
      <path class="cls-8" d="M127.35,33.4h1.32v7.2h2.17v1.2h-3.49v-8.4Z"/>
      <path class="cls-8" d="M132.08,39.8v-4.41c0-1.34,.71-2.11,2-2.11s2,.77,2,2.11v4.41c0,1.34-.71,2.11-2,2.11s-2-.77-2-2.11Zm2.69,.08v-4.58c0-.6-.26-.83-.68-.83s-.68,.23-.68,.83v4.58c0,.6,.26,.83,.68,.83s.68-.23,.68-.83Z"/>
      <path class="cls-8" d="M137.3,33.4h1.27l.59,6.45h.02l.62-6.45h1.44l.62,6.45h.02l.59-6.45h1.14l-.85,8.4h-1.64l-.6-5.66h-.02l-.6,5.66h-1.75l-.85-8.4Z"/>
      <path class="cls-8" d="M144.76,39.8v-.48h1.25v.58c0,.6,.26,.82,.68,.82s.68-.22,.68-.84c0-.7-.26-1.14-1.13-1.9-1.1-.97-1.46-1.65-1.46-2.61,0-1.32,.68-2.09,1.97-2.09s1.92,.77,1.92,2.11v.35h-1.25v-.43c0-.6-.24-.83-.66-.83s-.66,.23-.66,.8c0,.61,.28,1.06,1.14,1.81,1.1,.97,1.45,1.64,1.45,2.69,0,1.37-.7,2.13-1.99,2.13s-1.94-.77-1.94-2.11Z"/>
      <path class="cls-8" d="M152.57,33.4h1.96c1.37,0,1.95,.64,1.95,1.93v.52c0,.86-.28,1.42-.86,1.66v.02c.66,.2,.88,.83,.88,1.77v1.48c0,.41,.01,.71,.14,1.02h-1.34c-.07-.22-.12-.35-.12-1.03v-1.54c0-.78-.23-1.03-.83-1.03h-.46v3.6h-1.32v-8.4Zm1.8,3.6c.49,0,.79-.22,.79-.89v-.65c0-.6-.2-.86-.67-.86h-.6v2.4h.48Z"/>
      <path class="cls-8" d="M158.02,33.4h3.6v1.2h-2.28v2.22h1.81v1.2h-1.81v2.58h2.28v1.2h-3.6v-8.4Z"/>
      <path class="cls-8" d="M164.19,33.4h1.79l1.37,8.4h-1.32l-.24-1.67v.02h-1.5l-.24,1.64h-1.22l1.37-8.4Zm1.44,5.61l-.59-4.15h-.02l-.58,4.15h1.19Z"/>
      <path class="cls-8" d="M168.51,39.85v-4.51c0-1.29,.67-2.06,1.94-2.06s1.94,.77,1.94,2.06v.89h-1.25v-.97c0-.55-.26-.78-.66-.78s-.66,.23-.66,.78v4.69c0,.55,.26,.77,.66,.77s.66-.22,.66-.77v-1.28h1.25v1.19c0,1.3-.67,2.06-1.94,2.06s-1.94-.77-1.94-2.06Z"/>
      <path class="cls-8" d="M173.79,33.4h1.32v3.42h1.42v-3.42h1.32v8.4h-1.32v-3.78h-1.42v3.78h-1.32v-8.4Z"/>
      <path class="cls-8" d="M179.37,33.4h3.6v1.2h-2.28v2.22h1.81v1.2h-1.81v2.58h2.28v1.2h-3.6v-8.4Z"/>
      <path class="cls-8" d="M184.34,33.4h2.02c1.32,0,1.97,.73,1.97,2.08v4.25c0,1.34-.65,2.07-1.97,2.07h-2.02v-8.4Zm1.99,7.2c.42,0,.67-.22,.67-.82v-4.37c0-.6-.25-.82-.67-.82h-.67v6h.67Z"/>
      <path class="cls-8" d="M193.36,33.4h1.79l1.37,8.4h-1.32l-.24-1.67v.02h-1.5l-.24,1.64h-1.22l1.37-8.4Zm1.44,5.61l-.59-4.15h-.02l-.58,4.15h1.19Z"/>
      <path class="cls-8" d="M197.83,33.4h1.66l1.28,5.03h.02v-5.03h1.18v8.4h-1.35l-1.58-6.13h-.02v6.13h-1.18v-8.4Z"/>
      <path class="cls-9" d="M14.92,49.4h1.79l1.37,8.4h-1.32l-.24-1.67v.02h-1.5l-.24,1.64h-1.22l1.37-8.4Zm1.44,5.61l-.59-4.15h-.02l-.58,4.15h1.19Z"/>
      <path class="cls-9" d="M19.39,49.4h1.66l1.28,5.03h.02v-5.03h1.18v8.4h-1.35l-1.58-6.13h-.02v6.13h-1.18v-8.4Z"/>
      <path class="cls-9" d="M25.06,49.4h1.66l1.28,5.03h.02v-5.03h1.18v8.4h-1.35l-1.58-6.13h-.02v6.13h-1.18v-8.4Z"/>
      <path class="cls-9" d="M30.7,55.8v-6.4h1.32v6.5c0,.6,.25,.82,.67,.82s.67-.22,.67-.82v-6.5h1.27v6.4c0,1.34-.67,2.11-1.97,2.11s-1.97-.77-1.97-2.11Z"/>
      <path class="cls-9" d="M37.18,49.4h1.79l1.37,8.4h-1.32l-.24-1.67v.02h-1.5l-.24,1.64h-1.22l1.37-8.4Zm1.44,5.61l-.59-4.15h-.02l-.58,4.15h1.19Z"/>
      <path class="cls-9" d="M41.65,49.4h1.32v7.2h2.17v1.2h-3.49v-8.4Z"/>
      <path class="cls-9" d="M49.91,49.4h1.79l1.37,8.4h-1.32l-.24-1.67v.02h-1.5l-.24,1.64h-1.22l1.37-8.4Zm1.44,5.61l-.59-4.15h-.02l-.58,4.15h1.19Z"/>
      <path class="cls-9" d="M53.64,49.4h1.33l.86,6.51h.02l.86-6.51h1.21l-1.27,8.4h-1.75l-1.27-8.4Z"/>
      <path class="cls-9" d="M59.25,49.4h3.6v1.2h-2.28v2.22h1.81v1.2h-1.81v2.58h2.28v1.2h-3.6v-8.4Z"/>
      <path class="cls-9" d="M64.22,49.4h1.96c1.37,0,1.95,.64,1.95,1.93v.52c0,.86-.28,1.42-.86,1.66v.02c.66,.2,.88,.83,.88,1.77v1.48c0,.41,.01,.71,.14,1.02h-1.34c-.07-.22-.12-.35-.12-1.03v-1.54c0-.78-.23-1.03-.83-1.03h-.46v3.6h-1.32v-8.4Zm1.8,3.6c.49,0,.79-.22,.79-.89v-.65c0-.6-.2-.86-.67-.86h-.6v2.4h.48Z"/>
      <path class="cls-9" d="M70.86,49.4h1.79l1.37,8.4h-1.32l-.24-1.67v.02h-1.5l-.24,1.64h-1.22l1.37-8.4Zm1.44,5.61l-.59-4.15h-.02l-.58,4.15h1.19Z"/>
      <path class="cls-9" d="M75.17,55.8v-4.41c0-1.34,.67-2.11,1.97-2.11s1.97,.77,1.97,2.11v.72h-1.25v-.8c0-.6-.26-.83-.68-.83s-.68,.23-.68,.83v4.59c0,.6,.26,.82,.68,.82s.68-.22,.68-.82v-1.64h-.66v-1.2h1.91v2.75c0,1.34-.67,2.11-1.97,2.11s-1.97-.77-1.97-2.11Z"/>
      <path class="cls-9" d="M80.54,49.4h3.6v1.2h-2.28v2.22h1.81v1.2h-1.81v2.58h2.28v1.2h-3.6v-8.4Z"/>
      <path class="cls-9" d="M87.92,55.8v-4.41c0-1.34,.71-2.11,2-2.11s2,.77,2,2.11v4.41c0,1.34-.71,2.11-2,2.11s-2-.77-2-2.11Zm2.69,.08v-4.58c0-.6-.26-.83-.68-.83s-.68,.23-.68,.83v4.58c0,.6,.26,.83,.68,.83s.68-.23,.68-.83Z"/>
      <path class="cls-9" d="M93.4,49.4h3.49v1.2h-2.17v2.34h1.7v1.2h-1.7v3.66h-1.32v-8.4Z"/>
      <path class="cls-9" d="M102.01,57.62c-.95-.19-1.43-.92-1.43-1.98v-.55h1.25v.64c0,.52,.26,.73,.68,.73s.68-.22,.68-.76c0-.6-.24-1.03-1.13-1.73-1.08-.85-1.45-1.52-1.45-2.44,0-1.02,.47-1.74,1.39-1.94v-.73h1.08v.73c.94,.19,1.42,.91,1.42,1.97v.24h-1.25v-.32c0-.52-.24-.74-.66-.74s-.66,.23-.66,.72c0,.55,.24,.97,1.13,1.68,1.08,.86,1.45,1.52,1.45,2.48,0,1.08-.49,1.81-1.43,2v.84h-1.08v-.84Z"/>
      <path class="cls-9" d="M105.9,55.84v-.74c0-.8,.24-1.39,.86-1.71v-.02c-.55-.3-.82-.83-.82-1.66v-.35c0-1.34,.73-2.07,2.02-2.07s2.01,.73,2.01,2.07v.35c0,.83-.28,1.36-.82,1.66v.02c.62,.32,.86,.91,.86,1.71v.74c0,1.34-.73,2.08-2.06,2.08s-2.06-.73-2.06-2.08Zm2.81-.07v-.8c0-.64-.25-.95-.74-.95s-.74,.31-.74,.95v.8c0,.64,.25,.95,.74,.95s.74-.31,.74-.95Zm-.05-3.79v-.66c0-.55-.24-.84-.7-.84s-.7,.29-.7,.84v.66c0,.55,.24,.84,.7,.84s.7-.29,.7-.84Z"/>
      <path class="cls-9" d="M111.39,55.8v-4.41c0-1.34,.71-2.11,2-2.11s2,.77,2,2.11v4.41c0,1.34-.71,2.11-2,2.11s-2-.77-2-2.11Zm2.69,.08v-4.58c0-.6-.26-.83-.68-.83s-.68,.23-.68,.83v4.58c0,.6,.26,.83,.68,.83s.68-.23,.68-.83Z"/>
      <path class="cls-9" d="M116.79,55.83v-.68h1.25v.74c0,.6,.26,.83,.68,.83s.68-.2,.68-.95v-.68c0-.78-.26-1.07-.86-1.07h-.44v-1.2h.48c.49,0,.79-.22,.79-.89v-.61c0-.6-.28-.84-.66-.84s-.64,.23-.64,.78v.55h-1.25v-.44c0-1.34,.67-2.09,1.93-2.09s1.93,.73,1.93,2.07v.3c0,.9-.29,1.45-.94,1.69v.02c.71,.26,.97,.88,.97,1.73v.74c0,1.34-.67,2.08-1.97,2.08s-1.97-.74-1.97-2.09Z"/>
      <path class="cls-9" d="M124.81,49.4h1.99c1.37,0,1.96,.64,1.96,1.93v.34c0,.86-.26,1.4-.85,1.64v.02c.71,.24,.98,.86,.98,1.75v.72c0,1.29-.68,1.99-2,1.99h-2.07v-8.4Zm1.83,3.42c.49,0,.79-.22,.79-.89v-.47c0-.6-.2-.86-.67-.86h-.64v2.22h.52Zm.24,3.78c.44,0,.68-.2,.68-.83v-.73c0-.78-.25-1.02-.85-1.02h-.59v2.58h.76Z"/>
      <path class="cls-9" d="M130.27,49.4h1.32v8.4h-1.32v-8.4Z"/>
      <path class="cls-9" d="M133.11,49.4h1.32v7.2h2.17v1.2h-3.49v-8.4Z"/>
      <path class="cls-9" d="M137.91,49.4h1.32v7.2h2.17v1.2h-3.49v-8.4Z"/>
      <path class="cls-9" d="M142.72,49.4h1.32v8.4h-1.32v-8.4Z"/>
      <path class="cls-9" d="M145.5,55.8v-4.41c0-1.34,.71-2.11,2-2.11s2,.77,2,2.11v4.41c0,1.34-.71,2.11-2,2.11s-2-.77-2-2.11Zm2.69,.08v-4.58c0-.6-.26-.83-.68-.83s-.68,.23-.68,.83v4.58c0,.6,.26,.83,.68,.83s.68-.23,.68-.83Z"/>
      <path class="cls-9" d="M150.97,49.4h1.66l1.28,5.03h.02v-5.03h1.18v8.4h-1.35l-1.58-6.13h-.02v6.13h-1.18v-8.4Z"/>
      <path class="cls-9" d="M159.22,49.4h1.32v8.4h-1.32v-8.4Z"/>
      <path class="cls-9" d="M162.05,49.4h1.66l1.28,5.03h.02v-5.03h1.18v8.4h-1.35l-1.58-6.13h-.02v6.13h-1.18v-8.4Z"/>
      <path class="cls-9" d="M170.27,56.88c0-1.2,.34-1.93,1.32-2.96,1.01-1.07,1.3-1.7,1.3-2.48s-.26-.96-.68-.96-.68,.23-.68,.83v.9h-1.25v-.82c0-1.34,.67-2.11,1.97-2.11s1.97,.77,1.97,2.11c0,1-.41,1.88-1.63,3.18-.79,.84-1,1.26-1,1.85v.18h2.51v1.2h-3.81v-.91Z"/>
      <path class="cls-9" d="M175.6,55.8v-4.41c0-1.34,.71-2.11,2-2.11s2,.77,2,2.11v4.41c0,1.34-.71,2.11-2,2.11s-2-.77-2-2.11Zm2.69,.08v-4.58c0-.6-.26-.83-.68-.83s-.68,.23-.68,.83v4.58c0,.6,.26,.83,.68,.83s.68-.23,.68-.83Z"/>
      <path class="cls-9" d="M182.66,51.39h-1.38v-.94c1.12,0,1.51-.24,1.81-1.06h.89v8.4h-1.32v-6.4Z"/>
      <path class="cls-9" d="M185.76,55.8v-.16h1.25v.24c0,.6,.26,.83,.68,.83,.47,0,.73-.23,.73-1.03v-1.61h-.02c-.23,.48-.61,.73-1.2,.73-.97,0-1.46-.68-1.46-1.92v-1.5c0-1.34,.71-2.11,2-2.11s2,.77,2,2.11v4.34c0,1.42-.65,2.18-2.02,2.18-1.29,0-1.97-.77-1.97-2.11Zm2.66-3.02v-1.49c0-.55-.23-.82-.68-.82s-.68,.26-.68,.82v1.49c0,.56,.23,.83,.68,.83s.68-.26,.68-.83Z"/>
      <path class="cls-9" d="M190.96,53.06h3.6v1.08h-3.6v-1.08Z"/>
      <path class="cls-9" d="M195.72,56.88c0-1.2,.34-1.93,1.32-2.96,1.01-1.07,1.3-1.7,1.3-2.48s-.26-.96-.68-.96-.68,.23-.68,.83v.9h-1.25v-.82c0-1.34,.67-2.11,1.97-2.11s1.97,.77,1.97,2.11c0,1-.41,1.88-1.63,3.18-.79,.84-1,1.26-1,1.85v.18h2.51v1.2h-3.81v-.91Z"/>
      <path class="cls-9" d="M201.04,55.8v-4.41c0-1.34,.71-2.11,2-2.11s2,.77,2,2.11v4.41c0,1.34-.71,2.11-2,2.11s-2-.77-2-2.11Zm2.69,.08v-4.58c0-.6-.26-.83-.68-.83s-.68,.23-.68,.83v4.58c0,.6,.26,.83,.68,.83s.68-.23,.68-.83Z"/>
      <path class="cls-9" d="M206.48,56.88c0-1.2,.34-1.93,1.32-2.96,1.01-1.07,1.3-1.7,1.3-2.48s-.26-.96-.68-.96-.68,.23-.68,.83v.9h-1.25v-.82c0-1.34,.67-2.11,1.97-2.11s1.97,.77,1.97,2.11c0,1-.41,1.88-1.63,3.18-.79,.84-1,1.26-1,1.85v.18h2.51v1.2h-3.81v-.91Z"/>
      <path class="cls-9" d="M211.81,55.8v-4.41c0-1.34,.71-2.11,2-2.11s2,.77,2,2.11v4.41c0,1.34-.71,2.11-2,2.11s-2-.77-2-2.11Zm2.69,.08v-4.58c0-.6-.26-.83-.68-.83s-.68,.23-.68,.83v4.58c0,.6,.26,.83,.68,.83s.68-.23,.68-.83Z"/>
    </g>
    <g>
      <path class="cls-8" d="M14.78,78.85h1.32v3.42h1.42v-3.42h1.32v8.4h-1.32v-3.78h-1.42v3.78h-1.32v-8.4Z"/>
      <path class="cls-8" d="M20.3,85.25v-4.41c0-1.34,.71-2.11,2-2.11s2,.77,2,2.11v4.41c0,1.34-.71,2.11-2,2.11s-2-.77-2-2.11Zm2.69,.08v-4.58c0-.6-.26-.83-.68-.83s-.68,.23-.68,.83v4.58c0,.6,.26,.83,.68,.83s.68-.23,.68-.83Z"/>
      <path class="cls-8" d="M25.52,78.85h1.27l.59,6.45h.02l.62-6.45h1.44l.62,6.45h.02l.59-6.45h1.14l-.85,8.4h-1.64l-.6-5.66h-.02l-.6,5.66h-1.75l-.85-8.4Z"/>
      <path class="cls-8" d="M33.18,78.85h3.6v1.2h-2.28v2.22h1.81v1.2h-1.81v2.58h2.28v1.2h-3.6v-8.4Z"/>
      <path class="cls-8" d="M37.98,78.85h1.33l.86,6.51h.02l.86-6.51h1.21l-1.27,8.4h-1.75l-1.27-8.4Z"/>
      <path class="cls-8" d="M43.59,78.85h3.6v1.2h-2.28v2.22h1.81v1.2h-1.81v2.58h2.28v1.2h-3.6v-8.4Z"/>
      <path class="cls-8" d="M48.57,78.85h1.96c1.37,0,1.95,.64,1.95,1.93v.52c0,.86-.28,1.42-.86,1.66v.02c.66,.2,.88,.83,.88,1.77v1.48c0,.41,.01,.71,.14,1.02h-1.34c-.07-.22-.12-.35-.12-1.03v-1.54c0-.78-.23-1.03-.83-1.03h-.46v3.6h-1.32v-8.4Zm1.8,3.6c.49,0,.79-.22,.79-.89v-.65c0-.6-.2-.86-.67-.86h-.6v2.4h.48Z"/>
      <path class="cls-8" d="M54.45,87.24h-.43v-1.27h1.27v1.14l-.66,1.57h-.61l.43-1.44Z"/>
      <path class="cls-8" d="M59.39,78.85h2.02c1.32,0,1.97,.73,1.97,2.08v4.25c0,1.34-.65,2.07-1.97,2.07h-2.02v-8.4Zm1.99,7.2c.42,0,.67-.22,.67-.82v-4.37c0-.6-.25-.82-.67-.82h-.67v6h.67Z"/>
      <path class="cls-8" d="M64.84,78.85h3.6v1.2h-2.28v2.22h1.81v1.2h-1.81v2.58h2.28v1.2h-3.6v-8.4Z"/>
      <path class="cls-8" d="M69.64,78.85h1.33l.86,6.51h.02l.86-6.51h1.21l-1.27,8.4h-1.75l-1.27-8.4Z"/>
      <path class="cls-8" d="M75.25,78.85h3.6v1.2h-2.28v2.22h1.81v1.2h-1.81v2.58h2.28v1.2h-3.6v-8.4Z"/>
      <path class="cls-8" d="M80.22,78.85h1.32v7.2h2.17v1.2h-3.49v-8.4Z"/>
      <path class="cls-8" d="M84.96,85.25v-4.41c0-1.34,.71-2.11,2-2.11s2,.77,2,2.11v4.41c0,1.34-.71,2.11-2,2.11s-2-.77-2-2.11Zm2.69,.08v-4.58c0-.6-.26-.83-.68-.83s-.68,.23-.68,.83v4.58c0,.6,.26,.83,.68,.83s.68-.23,.68-.83Z"/>
      <path class="cls-8" d="M90.43,78.85h1.94c1.32,0,1.97,.73,1.97,2.08v.83c0,1.34-.65,2.08-1.97,2.08h-.62v3.42h-1.32v-8.4Zm1.94,3.78c.42,0,.65-.19,.65-.79v-1c0-.6-.23-.79-.65-.79h-.62v2.58h.62Z"/>
      <path class="cls-8" d="M95.7,78.85h1.32v8.4h-1.32v-8.4Z"/>
      <path class="cls-8" d="M98.54,78.85h1.66l1.28,5.03h.02v-5.03h1.18v8.4h-1.35l-1.58-6.13h-.02v6.13h-1.18v-8.4Z"/>
      <path class="cls-8" d="M104.14,85.25v-4.41c0-1.34,.67-2.11,1.97-2.11s1.97,.77,1.97,2.11v.72h-1.25v-.8c0-.6-.26-.83-.68-.83s-.68,.23-.68,.83v4.59c0,.6,.26,.82,.68,.82s.68-.22,.68-.82v-1.64h-.66v-1.2h1.91v2.75c0,1.34-.67,2.11-1.97,2.11s-1.97-.77-1.97-2.11Z"/>
      <path class="cls-8" d="M111.97,85.3v-4.51c0-1.29,.67-2.06,1.94-2.06s1.94,.77,1.94,2.06v.89h-1.25v-.97c0-.55-.26-.78-.66-.78s-.66,.23-.66,.78v4.69c0,.55,.26,.77,.66,.77s.66-.22,.66-.77v-1.28h1.25v1.19c0,1.3-.67,2.06-1.94,2.06s-1.94-.77-1.94-2.06Z"/>
      <path class="cls-8" d="M117.2,85.25v-4.41c0-1.34,.71-2.11,2-2.11s2,.77,2,2.11v4.41c0,1.34-.71,2.11-2,2.11s-2-.77-2-2.11Zm2.69,.08v-4.58c0-.6-.26-.83-.68-.83s-.68,.23-.68,.83v4.58c0,.6,.26,.83,.68,.83s.68-.23,.68-.83Z"/>
      <path class="cls-8" d="M122.64,85.25v-6.4h1.32v6.5c0,.6,.25,.82,.67,.82s.67-.22,.67-.82v-6.5h1.27v6.4c0,1.34-.67,2.11-1.97,2.11s-1.97-.77-1.97-2.11Z"/>
      <path class="cls-8" d="M128.08,78.85h1.66l1.28,5.03h.02v-5.03h1.18v8.4h-1.35l-1.58-6.13h-.02v6.13h-1.18v-8.4Z"/>
      <path class="cls-8" d="M134.91,80.05h-1.38v-1.2h4.08v1.2h-1.38v7.2h-1.32v-7.2Z"/>
      <path class="cls-8" d="M138.93,78.85h1.96c1.37,0,1.95,.64,1.95,1.93v.52c0,.86-.28,1.42-.86,1.66v.02c.66,.2,.88,.83,.88,1.77v1.48c0,.41,.01,.71,.14,1.02h-1.34c-.07-.22-.12-.35-.12-1.03v-1.54c0-.78-.23-1.03-.83-1.03h-.46v3.6h-1.32v-8.4Zm1.8,3.6c.49,0,.79-.22,.79-.89v-.65c0-.6-.2-.86-.67-.86h-.6v2.4h.48Z"/>
      <path class="cls-8" d="M144.38,78.85h1.32v8.4h-1.32v-8.4Z"/>
      <path class="cls-8" d="M147.21,78.85h3.6v1.2h-2.28v2.22h1.81v1.2h-1.81v2.58h2.28v1.2h-3.6v-8.4Z"/>
      <path class="cls-8" d="M152.06,85.25v-.48h1.25v.58c0,.6,.26,.82,.68,.82s.68-.22,.68-.84c0-.7-.26-1.14-1.13-1.9-1.1-.97-1.46-1.66-1.46-2.61,0-1.32,.68-2.09,1.97-2.09s1.92,.77,1.92,2.11v.35h-1.25v-.43c0-.6-.24-.83-.66-.83s-.66,.23-.66,.8c0,.61,.28,1.06,1.14,1.81,1.1,.97,1.45,1.64,1.45,2.69,0,1.37-.7,2.14-1.99,2.14s-1.94-.77-1.94-2.11Z"/>
    </g>
    <g>
      <path class="cls-8" d="M14.9,93.37h1.96c1.37,0,1.95,.64,1.95,1.93v.52c0,.86-.28,1.42-.86,1.66v.02c.66,.2,.88,.83,.88,1.77v1.48c0,.41,.01,.71,.14,1.02h-1.34c-.07-.22-.12-.35-.12-1.03v-1.54c0-.78-.23-1.03-.83-1.03h-.46v3.6h-1.32v-8.4Zm1.8,3.6c.49,0,.79-.22,.79-.89v-.65c0-.6-.2-.86-.67-.86h-.6v2.4h.48Z"/>
      <path class="cls-8" d="M20.35,93.37h3.6v1.2h-2.28v2.22h1.81v1.2h-1.81v2.58h2.28v1.2h-3.6v-8.4Z"/>
      <path class="cls-8" d="M28.13,101.74c-.25,.1-.55,.14-.88,.14-1.3,0-2-.77-2-2.11v-4.41c0-1.34,.71-2.11,2-2.11s2,.77,2,2.11v4.41c0,.58-.13,1.03-.37,1.38,.1,.17,.25,.19,.49,.19h.2v1.2h-.35c-.49,0-.95-.18-1.1-.8Zm-.19-1.88v-4.58c0-.6-.26-.83-.68-.83s-.68,.23-.68,.83v4.58c0,.6,.26,.83,.68,.83s.68-.23,.68-.83Z"/>
      <path class="cls-8" d="M30.68,99.77v-6.4h1.32v6.5c0,.6,.25,.82,.67,.82s.67-.22,.67-.82v-6.5h1.27v6.4c0,1.34-.67,2.11-1.97,2.11s-1.97-.77-1.97-2.11Z"/>
      <path class="cls-8" d="M36.12,93.37h1.32v8.4h-1.32v-8.4Z"/>
      <path class="cls-8" d="M38.96,93.37h1.96c1.37,0,1.95,.64,1.95,1.93v.52c0,.86-.28,1.42-.86,1.66v.02c.66,.2,.88,.83,.88,1.77v1.48c0,.41,.01,.71,.14,1.02h-1.34c-.07-.22-.12-.35-.12-1.03v-1.54c0-.78-.23-1.03-.83-1.03h-.46v3.6h-1.32v-8.4Zm1.8,3.6c.49,0,.79-.22,.79-.89v-.65c0-.6-.2-.86-.67-.86h-.6v2.4h.48Z"/>
      <path class="cls-8" d="M44.4,93.37h3.6v1.2h-2.28v2.22h1.81v1.2h-1.81v2.58h2.28v1.2h-3.6v-8.4Z"/>
      <path class="cls-8" d="M51.88,93.37h1.66l1.28,5.03h.02v-5.03h1.18v8.4h-1.35l-1.58-6.13h-.02v6.13h-1.18v-8.4Z"/>
      <path class="cls-8" d="M57.55,93.37h3.6v1.2h-2.28v2.22h1.81v1.2h-1.81v2.58h2.28v1.2h-3.6v-8.4Z"/>
      <path class="cls-8" d="M63.72,93.37h1.79l1.37,8.4h-1.32l-.24-1.67v.02h-1.5l-.24,1.64h-1.22l1.37-8.4Zm1.44,5.61l-.59-4.15h-.02l-.58,4.15h1.19Z"/>
      <path class="cls-8" d="M68.19,93.37h1.96c1.37,0,1.95,.64,1.95,1.93v.52c0,.86-.28,1.42-.86,1.66v.02c.66,.2,.88,.83,.88,1.77v1.48c0,.41,.01,.71,.14,1.02h-1.34c-.07-.22-.12-.35-.12-1.03v-1.54c0-.78-.23-1.03-.83-1.03h-.46v3.6h-1.32v-8.4Zm1.8,3.6c.49,0,.79-.22,.79-.89v-.65c0-.6-.2-.86-.67-.86h-.6v2.4h.48Z"/>
      <path class="cls-8" d="M73.64,93.37h1.32v7.2h2.17v1.2h-3.49v-8.4Z"/>
      <path class="cls-8" d="M79.04,98.19l-1.6-4.82h1.4l.9,3.08h.02l.9-3.08h1.28l-1.6,4.82v3.57h-1.32v-3.57Z"/>
      <path class="cls-9" d="M87.05,101.58c-.95-.19-1.43-.92-1.43-1.98v-.55h1.25v.64c0,.52,.26,.73,.68,.73s.68-.22,.68-.76c0-.6-.24-1.03-1.13-1.73-1.08-.85-1.45-1.52-1.45-2.44,0-1.02,.47-1.74,1.39-1.94v-.73h1.08v.73c.94,.19,1.42,.91,1.42,1.97v.24h-1.25v-.32c0-.52-.24-.74-.66-.74s-.66,.23-.66,.72c0,.55,.24,.97,1.13,1.68,1.08,.86,1.45,1.52,1.45,2.48,0,1.08-.49,1.81-1.43,2v.84h-1.08v-.84Z"/>
      <path class="cls-9" d="M90.99,99.77v-4.34c0-1.42,.65-2.18,2.02-2.18,1.29,0,1.97,.77,1.97,2.11v.16h-1.25v-.24c0-.6-.26-.83-.68-.83-.47,0-.73,.23-.73,1.03v1.61h.02c.23-.48,.61-.73,1.2-.73,.97,0,1.46,.68,1.46,1.92v1.5c0,1.34-.71,2.11-2,2.11s-2-.77-2-2.11Zm2.69,.1v-1.49c0-.56-.23-.83-.68-.83s-.68,.26-.68,.83v1.49c0,.55,.23,.82,.68,.82s.68-.26,.68-.82Z"/>
      <path class="cls-9" d="M100,94.56h-1.38v-1.2h4.08v1.2h-1.38v7.2h-1.32v-7.2Z"/>
      <path class="cls-9" d="M104.01,93.37h1.96c1.37,0,1.95,.64,1.95,1.93v.52c0,.86-.28,1.42-.86,1.66v.02c.66,.2,.88,.83,.88,1.77v1.48c0,.41,.01,.71,.14,1.02h-1.34c-.07-.22-.12-.35-.12-1.03v-1.54c0-.78-.23-1.03-.83-1.03h-.46v3.6h-1.32v-8.4Zm1.8,3.6c.49,0,.79-.22,.79-.89v-.65c0-.6-.2-.86-.67-.86h-.6v2.4h.48Z"/>
      <path class="cls-9" d="M109.46,93.37h1.32v8.4h-1.32v-8.4Z"/>
      <path class="cls-9" d="M112.3,93.37h1.32v7.2h2.17v1.2h-3.49v-8.4Z"/>
      <path class="cls-9" d="M117.11,93.37h1.32v7.2h2.17v1.2h-3.49v-8.4Z"/>
      <path class="cls-9" d="M121.91,93.37h1.32v8.4h-1.32v-8.4Z"/>
      <path class="cls-9" d="M124.7,99.77v-4.41c0-1.34,.71-2.11,2-2.11s2,.77,2,2.11v4.41c0,1.34-.71,2.11-2,2.11s-2-.77-2-2.11Zm2.69,.08v-4.58c0-.6-.26-.83-.68-.83s-.68,.23-.68,.83v4.58c0,.6,.26,.83,.68,.83s.68-.23,.68-.83Z"/>
      <path class="cls-9" d="M130.17,93.37h1.66l1.28,5.03h.02v-5.03h1.18v8.4h-1.35l-1.58-6.13h-.02v6.13h-1.18v-8.4Z"/>
      <path class="cls-9" d="M138.41,93.37h1.99c1.37,0,1.96,.64,1.96,1.93v.34c0,.86-.26,1.4-.85,1.64v.02c.71,.24,.98,.86,.98,1.75v.72c0,1.29-.68,1.99-2,1.99h-2.07v-8.4Zm1.83,3.42c.49,0,.79-.22,.79-.89v-.47c0-.6-.2-.86-.67-.86h-.64v2.22h.52Zm.24,3.78c.44,0,.68-.2,.68-.83v-.73c0-.78-.25-1.02-.85-1.02h-.59v2.58h.76Z"/>
      <path class="cls-9" d="M145.02,98.19l-1.6-4.82h1.4l.9,3.08h.02l.9-3.08h1.28l-1.6,4.82v3.57h-1.32v-3.57Z"/>
      <path class="cls-9" d="M151.63,100.85c0-1.2,.34-1.93,1.32-2.96,1.01-1.07,1.3-1.7,1.3-2.48s-.26-.96-.68-.96-.68,.23-.68,.83v.9h-1.25v-.82c0-1.34,.67-2.11,1.97-2.11s1.97,.77,1.97,2.11c0,1-.41,1.88-1.63,3.18-.79,.84-1,1.26-1,1.85v.18h2.51v1.2h-3.81v-.91Z"/>
      <path class="cls-9" d="M156.96,99.77v-4.41c0-1.34,.71-2.11,2-2.11s2,.77,2,2.11v4.41c0,1.34-.71,2.11-2,2.11s-2-.77-2-2.11Zm2.69,.08v-4.58c0-.6-.26-.83-.68-.83s-.68,.23-.68,.83v4.58c0,.6,.26,.83,.68,.83s.68-.23,.68-.83Z"/>
      <path class="cls-9" d="M162.36,99.79v-.68h1.25v.74c0,.6,.26,.83,.68,.83s.68-.2,.68-.95v-.68c0-.78-.26-1.07-.86-1.07h-.44v-1.2h.48c.49,0,.79-.22,.79-.89v-.61c0-.6-.28-.84-.66-.84s-.64,.23-.64,.78v.55h-1.25v-.44c0-1.34,.67-2.09,1.93-2.09s1.93,.73,1.93,2.07v.3c0,.9-.29,1.45-.94,1.69v.02c.71,.26,.97,.88,.97,1.73v.74c0,1.34-.67,2.08-1.97,2.08s-1.97-.74-1.97-2.09Z"/>
      <path class="cls-9" d="M167.72,99.77v-4.41c0-1.34,.71-2.11,2-2.11s2,.77,2,2.11v4.41c0,1.34-.71,2.11-2,2.11s-2-.77-2-2.11Zm2.69,.08v-4.58c0-.6-.26-.83-.68-.83s-.68,.23-.68,.83v4.58c0,.6,.26,.83,.68,.83s.68-.23,.68-.83Z"/>
    </g>
    <rect class="cls-10" x="86.67" y="105.06" width="48.71" height="3.8"/>
    <rect class="cls-10" x="101.01" y="60.74" width="54.1" height="3.8"/>
    <g>
      <path class="cls-9" d="M245.89,50.43c-4.08,5.49-15.78,21.28-16.89,22.82-1.05,1.48-1.42,2.24-2.47,5.15l-1.25,3.42-3.03,2.16c-1.65,1.18-3.11,2.28-3.24,2.44-.11,.14-.73,1.16-1.34,2.26-1.11,1.93-1.15,2.03-1.71,5.13-.31,1.73-.63,3.36-.75,3.62-.1,.26-1.38,1.3-2.93,2.36-1.5,1.04-2.82,2.01-2.93,2.18-.44,.59-8.23,17.02-8.61,18.18-.42,1.2-.44,1.24-2.7,2.87-2.11,1.51-2.42,1.81-3.97,3.97-.92,1.28-3.76,5.19-6.33,8.69-2.55,3.5-4.66,6.45-4.7,6.57-.04,.1,24.05,.18,64.68,.18,51.73,0,65.68,.55,65.55,.35-.08-.12-2.23-2.43-3.61-4.32-1.38-1.91-4.01-5.57-5.85-8.14-1.82-2.58-3.53-4.92-3.78-5.21-.25-.3-1.28-1.08-2.28-1.73l-1.82-1.2-5-10.58-4.99-10.58-1.76-1.89c-1.65-1.79-1.9-2.18-4.62-7.32l-2.88-5.43-2.63-1.83c-1.46-1.02-2.88-1.97-3.18-2.16-.42-.26-.84-1.06-2.13-4.07l-1.57-3.74-3.47-4.68c-9.41-12.71-15.92-21.46-16.03-21.54-.08-.04-.86,.89-1.76,2.07h0Zm1.15,5.31v3.46l-.9,.89c-.52,.51-3.64,3.42-6.96,6.47-8.32,7.65-8.44,7.77-8.44,7.65,0-.18,16.09-21.91,16.22-21.91,.04,0,.08,1.55,.08,3.44h0Zm2.22-2.18c.38,.59,2.32,3.23,4.3,5.86,10.07,13.38,11.85,15.89,12.64,17.8,.42,1,1.19,2.83,1.71,4.03l.94,2.2,3.24,2.24,3.24,2.22,3.18,5.96,3.18,5.94-.36,.57-.38,.57,.88,1.4c.48,.79,.88,1.48,.88,1.55,0,.18-2.24-1.97-5.73-5.53l-3.16-3.19-.71,.87-.71,.85-1.05-1.99c-2.3-4.39-2.4-4.68-2.47-6.75-.04-1.02-.02-1.87,.02-1.87,.06,0,.31,.2,.56,.45l.48,.47-.13-1.02c-.1-.89-.25-1.16-1.25-2.2-1.82-1.89-2.49-3.07-2.63-4.62-.13-1.32-.4-1.87-1.11-2.28-.35-.2-.36-.14-.25,.83,.13,1.14,.08,1.18-.94,.73l-.67-.3,.84,1.69c.46,.92,1.4,2.77,2.09,4.11,.69,1.34,1.3,2.66,1.38,2.95,.11,.47,.08,.45-.46-.2-.73-.87-3.89-5.9-9.28-14.73-1.02-1.67-1.84-2.99-1.84-2.91,0,.06,.17,.53,.38,1.06,.21,.53,.38,1.02,.38,1.08,0,.2-2.59-4.45-3.57-6.41-.69-1.4-.82-1.57-.88-1.12-.06,.63,.17,.96-2.34-3.17l-1.27-2.1v-3.03c0-1.69,.04-3.05,.08-3.05s.4,.49,.81,1.06h0Zm-.02,16.84c1.34,2.75,2.95,6.02,3.59,7.3,1.05,2.1,1.11,2.34,.84,2.62-.27,.3-.19,.53,.86,2.64l1.15,2.3-.48,.59-.46,.61,2.61,4.07c1.44,2.24,2.82,4.47,3.07,4.94l.44,.85-.88-1.08c-.98-1.16-1.17-1.24-1.55-.71-.23,.35-.27,.35-.61-.04-.19-.22-1.69-2.34-3.3-4.68-5.14-7.47-6.16-8.87-6.33-8.81-.13,.06-9.43,11.31-14.17,17.15-8.05,9.95-10.55,12.51-18.75,19.38l-.81,.67,1.46-2.81c3.37-6.49,6.16-11.96,6.1-12.02-.04-.04-2.21,1.51-4.83,3.46-2.61,1.95-4.89,3.62-5.04,3.72-.33,.2,.21-.55,2.15-3.13,.71-.96,1.27-1.75,1.23-1.81-.1-.08-3.2,1.75-6.44,3.78-.9,.57-1.65,1-1.67,.98s.73-1.65,1.69-3.62c1.11-2.36,1.9-3.74,2.24-3.99,1.99-1.51,7.15-4.58,13.59-8.07l7.52-4.09,1.07-1.42c.58-.77,1.05-1.46,1.05-1.53s-.63,0-1.38,.16c-1.86,.37-13.86,2.5-14.11,2.5-.11,0,.13-.59,.58-1.32,.71-1.2,1.05-1.53,3.55-3.34,2.78-2.03,3.87-2.97,16.45-14.34,3.78-3.42,6.94-6.14,7.02-6.06s1.23,2.38,2.57,5.13h0Zm1.02,21.25c2.53,6.71,4.47,12.14,4.39,12.22-.04,.06-.31-.28-.59-.73-.4-.65-6.35-9.3-6.54-9.52-.02-.04-3.14,1.55-6.92,3.52-3.8,1.97-6.71,3.4-6.5,3.19,.21-.2,2.76-2.54,5.66-5.17,2.9-2.64,6.06-5.51,7-6.41,1.05-1,1.78-1.55,1.86-1.4,.06,.12,.81,2.05,1.65,4.29h0Zm-7.32,12.75c1.69,1.63,3.36,3.32,3.72,3.74l.67,.75-1.92-1.08c-1.05-.59-2.21-1.26-2.53-1.46-.35-.22-.63-.35-.63-.3,0,.06,.9,2.46,1.99,5.37,3.07,8.06,2.88,7.53,2.47,7.16-1.57-1.42-4.99-4.56-6.02-5.51-.69-.65-1.32-1.18-1.38-1.18-.08,0-.35,.45-.61,1.02l-.48,1-.67-.43c-.38-.22-.73-.39-.77-.33-.06,.04-.73,1.95-1.52,4.25-1.5,4.35-1.44,4.25-2.49,4.03-.35-.08-.63,.69-2.59,6.47-1.21,3.6-2.24,6.53-2.26,6.49-.04-.04,.46-2.2,1.09-4.82,.65-2.6,1.19-4.84,1.21-4.96,.02-.12-.4-.18-1.09-.14l-1.13,.04,.31-.45c1.44-2.18,5.39-9.5,5.23-9.66-.19-.2-1.32,.96-10.03,10.17-4.77,5.02-8.69,9.09-8.69,9.01,0-.28,11.35-15.05,19.44-25.32,2.34-2.95,4.51-5.72,4.81-6.14,.33-.43,.63-.75,.69-.73,.08,.02,1.5,1.38,3.16,3.03h0Zm35.59,5.29c6.17,6.88,10.7,12.04,10.62,12.12-.06,.04-2.19-1.73-4.75-3.93-2.57-2.22-4.77-4.13-4.93-4.23-.25-.22-.65,.14-.84,.73-.04,.12-.46-.08-.96-.47-.5-.37-.96-.61-1.02-.55-.08,.08-.71,1.93-1.44,4.13-.71,2.2-1.34,4.05-1.42,4.11-.06,.06-.36,.02-.69-.1-.73-.3-.61-.57-3.07,7-1.09,3.38-2.01,6.1-2.05,6.06-.02-.02,.46-2.26,1.11-4.94,.63-2.71,1.15-5.02,1.15-5.15,0-.16-.35-.2-1.19-.1l-1.17,.14,.29-.47c.63-1.02,3.87-7.06,4.49-8.36,.36-.75,.58-1.36,.5-1.36-.1,0-4.54,4.68-9.89,10.39-5.37,5.72-9.66,10.25-9.59,10.11,.27-.45,2.59-3.6,9.24-12.47,9.86-13.1,12.18-16.17,12.33-16.17,.08,0,1.55,1.59,3.28,3.5h0Zm-68.07,1.41c-.65,1.14-1.05,1.53-3.13,3.09q-3.2,2.42-2.59,1.32c.29-.47,.75-1.34,1.02-1.89,.46-.94,.67-1.12,2.91-2.48,1.32-.79,2.43-1.42,2.47-1.38,.02,.02-.29,.63-.69,1.34h0Z"/>
      <path class="cls-9" d="M250.99,58.89c.17,.45,.46,1.46,.67,2.24l.36,1.44-.06-1.18c-.02-.63-.02-1.16,.02-1.16s.27,.24,.54,.55l.5,.57-.33-.61c-.17-.35-.71-1.08-1.17-1.63l-.84-1.02,.31,.79h0Z"/>
      <path class="cls-9" d="M243.63,70.71c-.86,1.28-1.57,2.4-1.57,2.46,0,.08,.13,.08,.29,0,.44-.16,.36,.12-.59,2.16-.84,1.79-.96,1.93-2.17,2.73-4.31,2.85-8.19,5.45-8.36,5.61-.1,.1,1.84-.83,4.31-2.07,2.47-1.24,6.04-3.01,7.9-3.93l3.39-1.67-.1-.71c-.19-1.18-1.21-5.98-1.38-6.49-.13-.41-.31-.22-1.73,1.91h0Zm1.3,2.6v1.3l-1.15,.73c-.63,.39-1.15,.67-1.15,.61,0-.04,.25-.47,.56-.94,.29-.47,.77-1.34,1.05-1.93,.27-.57,.56-1.06,.59-1.06,.06,0,.1,.59,.1,1.28h0Z"/>
    </g>
    <g>
      <rect class="cls-3" x="262.25" y="43.49" width="39.13" height="10.34" rx="4.33" ry="4.33"/>
      <g>
        <path class="cls-8" d="M267.45,51.14c-.63-.13-.95-.62-.95-1.32v-.37h.83v.42c0,.34,.18,.49,.46,.49s.46-.14,.46-.5c0-.4-.16-.69-.75-1.15-.72-.57-.97-1.02-.97-1.62,0-.68,.31-1.16,.93-1.29v-.49h.72v.49c.62,.13,.94,.61,.94,1.31v.16h-.83v-.22c0-.34-.16-.5-.44-.5s-.44,.15-.44,.48c0,.37,.16,.65,.75,1.12,.72,.58,.97,1.02,.97,1.66,0,.72-.33,1.21-.95,1.33v.56h-.72v-.56Z"/>
        <path class="cls-8" d="M269.9,49.94v-2.89c0-.94,.43-1.46,1.34-1.46,.86,0,1.31,.51,1.31,1.41v.1h-.83v-.16c0-.4-.18-.55-.46-.55-.31,0-.49,.15-.49,.69v1.07h.02c.15-.32,.41-.49,.8-.49,.65,0,.98,.46,.98,1.28v1c0,.9-.47,1.41-1.34,1.41s-1.34-.51-1.34-1.41Zm1.79,.06v-.99c0-.38-.15-.55-.46-.55s-.46,.18-.46,.55v.99c0,.37,.15,.54,.46,.54s.46-.18,.46-.54Z"/>
        <path class="cls-8" d="M275.5,46.47h-.92v-.8h2.72v.8h-.92v4.8h-.88v-4.8Z"/>
        <path class="cls-8" d="M277.93,45.67h1.3c.91,0,1.3,.42,1.3,1.29v.34c0,.58-.18,.94-.58,1.1v.02c.44,.14,.58,.55,.58,1.18v.98c0,.27,0,.47,.1,.68h-.9c-.05-.14-.08-.23-.08-.69v-1.02c0-.52-.15-.69-.55-.69h-.3v2.4h-.88v-5.6Zm1.2,2.4c.33,0,.53-.14,.53-.59v-.43c0-.4-.14-.58-.45-.58h-.4v1.6h.32Z"/>
        <path class="cls-8" d="M281.35,45.67h.88v5.6h-.88v-5.6Z"/>
        <path class="cls-8" d="M283.09,45.67h.88v4.8h1.45v.8h-2.33v-5.6Z"/>
        <path class="cls-8" d="M286.04,45.67h.88v4.8h1.45v.8h-2.33v-5.6Z"/>
        <path class="cls-8" d="M288.99,45.67h.88v5.6h-.88v-5.6Z"/>
        <path class="cls-8" d="M290.66,49.94v-2.94c0-.9,.47-1.41,1.34-1.41s1.34,.51,1.34,1.41v2.94c0,.9-.47,1.41-1.34,1.41s-1.34-.51-1.34-1.41Zm1.79,.06v-3.05c0-.4-.18-.55-.46-.55s-.46,.15-.46,.55v3.05c0,.4,.18,.55,.46,.55s.46-.15,.46-.55Z"/>
        <path class="cls-8" d="M294.13,45.67h1.1l.86,3.35h.02v-3.35h.78v5.6h-.9l-1.06-4.09h-.02v4.09h-.78v-5.6Z"/>
      </g>
      <line class="cls-6" x1="247.62" y1="48.62" x2="262.17" y2="48.62"/>
    </g>
    <line class="cls-7" x1="163.98" y1="109.29" x2="177.25" y2="109.29"/>
    <g>
      <rect class="cls-4" x="177.35" y="104.07" width="39.13" height="10.34" rx="4.33" ry="4.33"/>
      <g>
        <path class="cls-8" d="M182.73,111.38c-.55-.11-.83-.54-.83-1.16v-.32h.73v.37c0,.3,.15,.43,.4,.43s.4-.13,.4-.44c0-.35-.14-.6-.66-1.01-.63-.5-.85-.89-.85-1.42,0-.6,.27-1.02,.81-1.13v-.43h.63v.43c.55,.11,.83,.53,.83,1.15v.14h-.73v-.19c0-.3-.14-.43-.39-.43s-.39,.13-.39,.42c0,.32,.14,.57,.66,.98,.63,.5,.85,.89,.85,1.45,0,.63-.29,1.06-.83,1.17v.49h-.63v-.49Z"/>
        <path class="cls-8" d="M184.81,110.34v-.43c0-.47,.14-.81,.5-1h0c-.32-.19-.48-.5-.48-.98v-.2c0-.78,.43-1.21,1.18-1.21s1.18,.43,1.18,1.21v.2c0,.48-.16,.79-.48,.97h0c.36,.2,.5,.55,.5,1.02v.43c0,.78-.43,1.21-1.2,1.21s-1.2-.43-1.2-1.21Zm1.64-.04v-.47c0-.37-.15-.55-.43-.55s-.43,.18-.43,.55v.47c0,.37,.15,.55,.43,.55s.43-.18,.43-.55Zm-.03-2.21v-.39c0-.32-.14-.49-.41-.49s-.41,.17-.41,.49v.39c0,.32,.14,.49,.41,.49s.41-.17,.41-.49Z"/>
        <path class="cls-8" d="M187.82,110.32v-2.58c0-.78,.41-1.23,1.17-1.23s1.17,.45,1.17,1.23v2.58c0,.78-.41,1.23-1.17,1.23s-1.17-.45-1.17-1.23Zm1.57,.05v-2.68c0-.35-.15-.48-.4-.48s-.4,.13-.4,.48v2.68c0,.35,.15,.48,.4,.48s.4-.13,.4-.48Z"/>
        <path class="cls-8" d="M190.8,110.34v-.4h.73v.43c0,.35,.15,.48,.4,.48s.4-.12,.4-.55v-.4c0-.46-.15-.62-.5-.62h-.26v-.7h.28c.29,0,.46-.13,.46-.52v-.36c0-.35-.16-.49-.39-.49s-.37,.13-.37,.46v.32h-.73v-.26c0-.78,.39-1.22,1.13-1.22s1.13,.43,1.13,1.21v.18c0,.53-.17,.85-.55,.99h0c.41,.17,.57,.53,.57,1.02v.43c0,.78-.39,1.21-1.15,1.21s-1.15-.43-1.15-1.22Z"/>
        <path class="cls-8" d="M195.12,106.58h1.16c.8,0,1.14,.37,1.14,1.13v.2c0,.5-.15,.82-.5,.96h0c.41,.15,.57,.52,.57,1.04v.42c0,.76-.4,1.16-1.17,1.16h-1.21v-4.9Zm1.07,2c.29,0,.46-.13,.46-.52v-.27c0-.35-.12-.5-.39-.5h-.37v1.3h.3Zm.14,2.21c.26,0,.4-.12,.4-.48v-.43c0-.46-.15-.6-.5-.6h-.34v1.51h.44Z"/>
        <path class="cls-8" d="M198.13,106.58h.77v4.9h-.77v-4.9Z"/>
        <path class="cls-8" d="M199.65,106.58h.77v4.2h1.27v.7h-2.04v-4.9Z"/>
        <path class="cls-8" d="M202.23,106.58h.77v4.2h1.27v.7h-2.04v-4.9Z"/>
        <path class="cls-8" d="M204.81,106.58h.77v4.9h-.77v-4.9Z"/>
        <path class="cls-8" d="M206.27,110.32v-2.58c0-.78,.41-1.23,1.17-1.23s1.17,.45,1.17,1.23v2.58c0,.78-.41,1.23-1.17,1.23s-1.17-.45-1.17-1.23Zm1.57,.05v-2.68c0-.35-.15-.48-.4-.48s-.4,.13-.4,.48v2.68c0,.35,.15,.48,.4,.48s.4-.13,.4-.48Z"/>
        <path class="cls-8" d="M209.31,106.58h.97l.75,2.93h.01v-2.93h.69v4.9h-.79l-.92-3.58h-.01v3.58h-.69v-4.9Z"/>
      </g>
    </g>
    <line class="cls-5" x1="314.32" y1="142.75" y2="142.75"/>
    <path class="cls-1" d="M168.86,112.32c-3.62-5.47-8.16-3.31-10.38-.27l-18.97,30.17h47.24l-17.89-29.9Z"/>
  </g>
</svg>