<?xml version="1.0" encoding="UTF-8"?><svg id="Layer_2" xmlns="http://www.w3.org/2000/svg" xmlns:xlink="http://www.w3.org/1999/xlink" viewBox="0 0 288.79 136.25"><defs><style>.cls-1,.cls-2,.cls-3,.cls-4,.cls-5,.cls-6{fill:none;}.cls-2{opacity:.75;}.cls-7{fill:url(#linear-gradient);}.cls-3{clip-path:url(#clippath-1);}.cls-8{fill:#007dbb;}.cls-9{fill:#fff;}.cls-10{fill:#e2eaf4;}.cls-11{fill:#939598;}.cls-12,.cls-13{fill:#bdd2e9;}.cls-14{fill:#d6e2f0;}.cls-15{fill:#4193c8;}.cls-13{stroke:#bdd2e9;}.cls-13,.cls-5,.cls-6{stroke-miterlimit:10;}.cls-13,.cls-6{stroke-width:.5px;}.cls-4{clip-path:url(#clippath);}.cls-5{stroke:#4193c8;stroke-width:.93px;}.cls-6{stroke:#007dbb;}</style><linearGradient id="linear-gradient" x1="230.17" y1="135.98" x2="230.17" y2="93.88" gradientUnits="userSpaceOnUse"><stop offset=".17" stop-color="#82afd7"/><stop offset=".36" stop-color="#78abd4"/><stop offset=".68" stop-color="#60a0cf"/><stop offset="1" stop-color="#4193c8"/></linearGradient><clipPath id="clippath"><rect class="cls-1" x="66.36" width="71.68" height="14.62"/></clipPath><clipPath id="clippath-1"><rect class="cls-1" x="-219.32" y="-8.55" width="407.65" height="42.94"/></clipPath></defs><g id="Layer_2-2"><path class="cls-7" d="m177.32,133.35c0,1.45,1.18,2.63,2.63,2.63h3.08s105.76,0,105.76,0v-42.1s-107.01,0-107.01,0c-1.45,0-2.63,1.18-2.63,2.63,0,1.45,1.18,2.63,2.63,2.63h8.02c3.62,0,6.58,2.95,6.58,6.58,0,3.62-2.95,6.58-6.58,6.58h-15.63c-1.45,0-2.63,1.18-2.63,2.63s1.18,2.63,2.63,2.63h9.21c3.62,0,6.58,2.95,6.58,6.58,0,3.62-2.95,6.58-6.58,6.58h-3.43c-1.45,0-2.63,1.18-2.63,2.63Z"/><path class="cls-10" d="m28.35,136.25l145.59-.27c-.35-.81-.56-1.69-.56-2.63,0-3.63,2.95-6.58,6.58-6.58h3.43c1.45,0,2.63-1.18,2.63-2.63,0-1.45-1.18-2.63-2.63-2.63h-9.21c-3.62,0-6.57-2.95-6.57-6.58s2.95-6.58,6.57-6.58h15.63c1.45,0,2.63-1.18,2.63-2.63,0-1.45-1.18-2.63-2.63-2.63h-8.02c-3.62,0-6.58-2.95-6.58-6.57,0-1.93.85-3.65,2.17-4.85-6.62-3.3-13.95-6.18-19.92-8.48-46.57-17.95-129.11.52-129.11.52L0,90.4v45.86h28.35Z"/><path class="cls-12" d="m105.96,116.46c.06,0,.12,0,.18,0,.06,0,.12.02.17.03.06.02.11.04.16.06.05.03.1.06.15.1.19.15.31.37.34.6,0,.06,0,.12,0,.18,0,.06-.02.12-.03.17-.02.06-.04.11-.06.17-.03.05-.06.1-.1.15s-.08.09-.12.13c-.04.04-.09.07-.14.1-.05.03-.1.05-.16.07-.11.04-.23.05-.35.04-.06,0-.12-.02-.17-.03-.06-.02-.11-.04-.16-.06-.05-.03-.1-.06-.15-.1-.05-.04-.09-.08-.13-.12-.04-.05-.07-.09-.1-.15-.03-.05-.05-.1-.07-.16-.02-.06-.03-.11-.04-.17-.03-.24.04-.48.19-.66.04-.05.08-.09.12-.13.05-.04.09-.07.14-.1.05-.03.11-.05.16-.07.06-.02.11-.03.17-.04Z"/><path class="cls-12" d="m110.83,111.72c.24-.03.48.04.66.19.19.15.31.37.34.6,0,.06,0,.12,0,.18,0,.06-.02.12-.03.17-.02.06-.04.11-.06.16-.03.05-.06.1-.09.15-.15.19-.37.31-.6.34s-.48-.04-.66-.19c-.05-.04-.09-.08-.13-.12-.04-.04-.07-.09-.1-.14-.03-.05-.05-.11-.07-.16-.02-.06-.03-.11-.04-.17-.03-.24.04-.48.19-.66.15-.19.37-.31.6-.34Z"/><path class="cls-12" d="m124.45,116.2c.06,0,.12,0,.18,0,.06,0,.12.02.17.03.06.02.11.04.16.06.05.03.1.06.15.09.19.15.31.37.34.6,0,.06,0,.12,0,.18,0,.06-.02.12-.03.17-.02.06-.04.11-.06.16-.03.05-.06.1-.1.15-.04.05-.08.09-.12.13-.05.04-.09.07-.14.1-.05.03-.11.05-.16.07-.11.04-.23.05-.35.04-.06,0-.12-.01-.17-.03-.06-.02-.11-.04-.17-.06-.05-.03-.1-.06-.15-.1-.05-.04-.09-.08-.13-.12-.04-.05-.07-.09-.1-.14-.03-.05-.05-.11-.07-.16-.02-.06-.03-.11-.04-.17-.03-.24.04-.48.19-.66.15-.19.37-.31.6-.34Z"/><path class="cls-12" d="m96.02,120.83c.24-.03.48.04.66.19.05.04.09.08.13.12.04.05.07.09.1.14.03.05.05.11.07.16.02.06.03.11.04.17s0,.12,0,.18c0,.06-.01.12-.03.17-.02.06-.04.11-.06.17-.03.05-.06.1-.09.15-.15.19-.37.31-.6.34s-.48-.04-.66-.19c-.05-.04-.09-.08-.13-.12-.04-.05-.07-.09-.1-.15-.03-.05-.05-.1-.07-.16-.02-.06-.03-.11-.04-.17s0-.12,0-.18c0-.06.01-.12.03-.17.02-.06.04-.11.06-.16.03-.05.06-.1.09-.15.04-.05.08-.09.12-.13.04-.04.09-.07.14-.1.05-.03.11-.05.16-.07.06-.02.11-.03.17-.04Z"/><path class="cls-12" d="m94.92,112.92c.23-.03.48.04.66.19.05.04.09.08.13.12.04.05.07.09.1.14.03.05.05.11.07.16.02.06.03.11.04.17s0,.12,0,.18c0,.06-.02.12-.03.17-.02.06-.04.11-.06.17-.03.05-.06.1-.09.15-.04.05-.08.09-.12.13-.04.04-.09.07-.14.1-.05.03-.11.05-.16.07-.28.09-.6.04-.84-.15-.05-.04-.09-.08-.13-.12-.04-.05-.07-.09-.1-.15-.03-.05-.05-.1-.07-.16-.02-.06-.03-.11-.04-.17s0-.12,0-.18c0-.06.02-.12.03-.17.02-.06.04-.11.06-.16.03-.05.06-.1.09-.15.04-.05.08-.09.12-.13.04-.04.09-.07.14-.1.05-.03.1-.05.16-.07.06-.02.12-.03.17-.04Z"/><path class="cls-12" d="m79.63,123.41c.06,0,.12,0,.18,0,.06,0,.12.02.17.03.06.02.11.04.16.06.05.03.1.06.15.09.05.04.09.08.13.12.04.04.07.09.1.14.03.05.05.1.07.16.02.06.03.12.04.17s0,.12,0,.18c0,.06-.02.12-.03.17-.02.06-.04.11-.06.16-.03.05-.06.1-.09.15-.18.23-.48.37-.78.34-.06,0-.12-.01-.17-.03-.06-.02-.11-.04-.16-.06-.05-.03-.1-.06-.15-.1-.05-.04-.09-.08-.13-.12-.04-.05-.07-.09-.1-.14-.03-.05-.05-.11-.07-.16-.02-.06-.03-.11-.04-.17s0-.12,0-.18c0-.06.01-.12.03-.17.02-.06.04-.11.06-.16.03-.05.06-.1.09-.15.15-.19.37-.31.6-.34Z"/><path class="cls-12" d="m77.73,115.21c.06,0,.12,0,.18,0,.06,0,.12.02.17.03.06.02.11.04.16.06.05.03.1.06.15.1.05.04.09.08.13.12.04.05.07.09.1.15.03.05.05.1.07.16.02.06.03.11.04.17s0,.12,0,.18c0,.06-.01.12-.03.17-.02.06-.04.11-.06.16-.03.05-.06.1-.1.15-.04.05-.08.09-.12.13-.05.04-.09.07-.14.1-.05.03-.11.05-.16.07-.11.04-.23.05-.35.04-.06,0-.12-.02-.17-.03-.06-.02-.11-.04-.16-.06-.05-.03-.1-.06-.15-.1-.05-.04-.09-.08-.13-.12-.04-.05-.07-.09-.1-.14-.03-.05-.05-.11-.07-.16-.02-.06-.03-.11-.04-.17s0-.12,0-.18c0-.06.02-.12.03-.17.02-.06.04-.11.06-.17.03-.05.06-.1.09-.15.15-.19.37-.31.6-.34Z"/><path class="cls-12" d="m40.69,119.79s.1,0,.14.02c.05.01.09.03.13.05.04.02.09.05.12.07.04.03.08.06.11.1.13.14.2.33.19.53,0,.05,0,.1-.02.14-.01.05-.03.09-.05.13-.02.04-.05.09-.07.12-.03.04-.06.07-.1.11s-.07.06-.12.09c-.04.02-.08.04-.13.06-.04.02-.09.03-.14.04-.1.01-.19.01-.29-.01-.05-.01-.09-.03-.14-.05-.04-.02-.08-.05-.12-.07-.04-.03-.07-.06-.11-.1-.03-.04-.06-.07-.09-.11-.02-.04-.04-.08-.06-.13-.02-.04-.03-.09-.04-.14,0-.05-.01-.1,0-.14,0-.19.1-.38.24-.51.04-.03.07-.06.11-.09.04-.02.08-.04.13-.06.05-.02.09-.03.14-.04.05,0,.1,0,.14,0Z"/><path class="cls-12" d="m45.24,116.63c.19,0,.38.09.51.24.13.14.2.33.19.53,0,.05,0,.1-.02.14-.01.05-.03.09-.05.14-.02.04-.05.09-.07.12-.03.04-.06.08-.1.11-.14.13-.33.2-.53.19s-.38-.09-.51-.24c-.03-.04-.06-.07-.09-.12-.02-.04-.04-.08-.06-.13-.02-.04-.03-.09-.04-.14,0-.05-.01-.1,0-.14,0-.19.1-.38.24-.51.14-.13.33-.2.53-.19Z"/><path class="cls-12" d="m55.58,122.04s.1,0,.14.02c.05.01.09.03.14.05.04.02.08.05.12.07.04.03.07.06.11.1.13.14.2.33.19.53,0,.05,0,.1-.02.14-.01.05-.03.09-.05.14-.02.04-.04.08-.07.12-.03.04-.06.08-.1.11-.04.03-.07.06-.11.09-.04.02-.08.04-.13.06-.05.02-.09.03-.14.04-.1.02-.19.01-.29-.01-.05-.01-.09-.03-.13-.05-.04-.02-.09-.04-.12-.07-.04-.03-.07-.06-.11-.1-.03-.03-.06-.07-.09-.11-.02-.04-.04-.08-.06-.13-.02-.04-.03-.09-.04-.14,0-.05,0-.1,0-.14,0-.19.09-.38.24-.51.14-.13.33-.2.53-.19Z"/><path class="cls-12" d="m32.12,121.98c.19,0,.38.1.51.24.03.04.06.07.09.11.02.04.05.08.06.13.02.05.03.09.04.14,0,.05.01.1,0,.14s0,.1-.02.14c-.01.05-.03.09-.05.13-.02.04-.05.09-.07.12-.03.04-.06.07-.1.11-.14.13-.33.2-.53.19s-.38-.1-.51-.24c-.03-.04-.06-.07-.09-.11-.02-.04-.05-.08-.06-.13-.02-.04-.03-.09-.04-.14,0-.05-.01-.1,0-.14s0-.1.02-.14c.01-.05.03-.09.05-.14.02-.04.05-.08.07-.12.03-.04.06-.07.1-.11.04-.03.07-.06.12-.09.04-.02.08-.04.13-.06.04-.02.09-.03.14-.04.05,0,.1-.01.14,0Z"/><path class="cls-12" d="m32.29,115.47c.19,0,.38.09.51.24.03.04.06.07.09.11.02.04.04.08.06.13.02.05.03.09.04.14,0,.05.01.1,0,.14s0,.1-.02.14c-.01.05-.03.09-.05.13-.02.04-.05.09-.07.12-.03.04-.06.07-.1.11-.04.03-.07.06-.12.09-.04.02-.08.04-.13.06-.04.02-.09.03-.14.04-.24.04-.49-.05-.65-.23-.03-.04-.06-.07-.09-.11-.02-.04-.05-.08-.06-.13-.02-.04-.03-.09-.04-.14,0-.05,0-.1,0-.14s0-.1.02-.14c.01-.05.03-.09.05-.14.02-.04.05-.08.07-.12.03-.04.06-.07.1-.11.04-.03.07-.06.12-.09.04-.02.08-.04.13-.06.04-.02.09-.03.14-.04.05,0,.1,0,.14,0Z"/><path class="cls-12" d="m18.61,121.86s.1,0,.14.02c.05.01.09.03.14.05.04.02.08.05.12.07.04.03.08.06.11.1.03.04.06.07.09.12.02.04.04.08.06.13.02.04.03.09.04.14,0,.05.01.1,0,.14s0,.09-.02.14c-.01.05-.03.09-.05.14-.02.04-.04.08-.07.12-.03.04-.06.08-.1.11-.18.16-.44.23-.67.17-.05-.01-.09-.03-.13-.05-.04-.02-.09-.04-.12-.07-.04-.03-.08-.06-.11-.1-.03-.03-.06-.07-.09-.11-.02-.04-.05-.08-.06-.13-.02-.04-.03-.09-.04-.14,0-.05-.01-.1,0-.14s0-.1.02-.14c.01-.05.03-.09.05-.13.02-.04.05-.09.07-.12.03-.04.06-.08.1-.11.14-.13.33-.2.53-.19Z"/><path class="cls-12" d="m18.18,115.02s.1,0,.14.02c.05.01.09.03.14.05.04.02.08.05.12.07.04.03.08.06.11.1.03.04.06.07.09.11.02.04.04.08.06.13.02.04.03.09.04.14,0,.05.01.1,0,.14s0,.1-.02.14c-.01.05-.03.09-.05.14-.02.04-.05.08-.07.12-.03.04-.06.07-.1.11-.03.03-.07.06-.11.09-.04.02-.08.04-.13.06-.05.02-.09.03-.14.04-.1.02-.19.01-.29-.01-.05-.01-.09-.03-.13-.05-.04-.02-.09-.05-.12-.07-.04-.03-.08-.06-.11-.1-.03-.04-.06-.07-.09-.11-.02-.04-.05-.08-.06-.13-.02-.05-.03-.09-.04-.14,0-.05,0-.1,0-.14s0-.1.02-.14c.01-.05.03-.09.05-.13.02-.04.05-.09.07-.12.03-.04.06-.07.1-.11.14-.13.33-.2.53-.19Z"/><path class="cls-12" d="m122.59,100.79c-.24-.35-.6-.6-1.01-.71-.41-.11-.85-.07-1.23.11-.48.22-.95.45-1.44.65h0c-.42.13-.79.39-1.06.73l-.56.67c-.84.18-1.19,1.06-1.93,1.42h0c-.61.19-1.27.21-1.89.04-.53-.08-1.04-.21-1.56-.32.2-.19.39-.39.6-.57.37-.3.83-.5,1.17-.83h0c.24-.3.45-.63.62-.99.18-.19.27-.44.25-.7-.22-.54-.6-1-1.09-1.32-.59-.43-1.37-.14-2.04-.06-1.25.14-2.55.16-3.8.18-.97-.1-1.94-.02-2.88.23-.69.33-1.24.88-1.59,1.56-.01.03.08.09.1.06l-.26.68c-.38.39-.65.87-.78,1.39-.3.76-.72,1.47-1.22,2.12-.79,1.27-.86,2.86-.2,4.2.38.77.56,1.62.53,2.47-.13,1.01-.34,2-.43,3.01h0c-.14.76-.13,1.53.02,2.29.23.73.99,1.25,1.49,1.8.08.08.21.08.3,0l2.29,1.58h0c2.21.43,4.47.62,6.72.56,1.13-.05,2.26.15,3.31.59.59.28,1.09.54,1.64.08l1.3-1.08c.02.06.07.1.14.1.79.02.91-.74.96-1.4.06-.68-.08-1.19.42-1.73.41-.44.81-.88,1.2-1.33h0c.62-.83,1.01-1.8,1.12-2.83.24-1.21.61-2.38,1.12-3.5.01-.04,0-.09-.04-.11l-.65-.66c.24-.22.42-.5.54-.8.16-.48-.05-.92-.07-1.4.06-1.28.23-2.56.5-3.81.14-.84-.08-1.71-.6-2.38Zm-12.97,1.33l-.18.07h0,0c-.51.01-1.02-.04-1.51-.16-.54-.23-1.15-.28-1.72-.13-.02.01-.03.03-.03.06l-.81-.35s.05,0,.06-.02c.42-.59,1.62-.59,2.26-.63.76-.04,1.52-.02,2.28,0,.21,0,1.11-.07,1.2.16.18.42-1.26.91-1.54,1.02Zm11.59.48c-.13.24-.31.46-.43.7-.19.57-.25,1.18-.17,1.77.09.55.04,1.11-.15,1.63-.25.42-.87.06-1.23-.06-.5-.12-.98-.33-1.4-.63-.04-.04-.09-.04-.14-.01l-.71-.74c1.12-.31,1.48-1.96,2.26-2.67h0c.41-.35.91-.59,1.45-.69.51-.11.8.17.52.7Z"/><path class="cls-15" d="m122.48,107.14c.06-1.28.23-2.56.5-3.81.14-.84-.08-1.71-.6-2.38-.24-.35-.6-.6-1.01-.71-.41-.11-.85-.07-1.23.11-.48.22-.95.45-1.44.65h0c-.42.13-.79.39-1.06.73-.05.09-.03.2.04.26.08.06.19.06.26,0,.52-.5,1.34-.64,1.96-.99.35-.28.81-.4,1.25-.33.39.14.75.35,1.05.63.97.79.5,1.89.18,2.89h0c-.28.91-.42,1.86-.42,2.82.02.37.07.73.15,1.09.08.62-.27.86-.76,1.16h0c-.73.47-1.63.6-2.47.36-.88-.29-1.79-.46-2.72-.5-.99.08-1.98.07-2.96-.02-1.04-.2-1.96-.77-2.6-1.62-.55-.65-1.38-.93-1.95-1.53h0c.05,0,.1-.03.14-.06.34-.4.72-.77,1.13-1.09.42-.31.9-.5,1.31-.83l.14-.13h0c1.16.59,2.48.78,3.75.55.83-.29,1.44-1.18,2.05-1.78h0s.05-.09.02-.14c-.02-.05-.08-.07-.13-.06-.84.18-1.19,1.06-1.93,1.42h0c-.61.19-1.27.21-1.89.04-.53-.08-1.04-.21-1.56-.32.2-.19.39-.39.6-.57.37-.3.83-.5,1.17-.83h0c.24-.3.45-.63.62-.99.18-.19.27-.44.25-.7-.22-.54-.6-1-1.09-1.32-.59-.43-1.37-.14-2.04-.06-1.25.14-2.55.16-3.8.18h0c-.97-.1-1.94-.02-2.88.23-.69.33-1.24.88-1.59,1.56-.01.03,0,.06.02.08.03.02.06.01.08-.01,1.08-1.52,3.12-1.63,4.83-1.7,1-.04,1.99-.05,2.99-.08.7-.02,1.53-.27,2.13.21.36.28,1,.85.87,1.35-.21.78-1.18,1.16-1.75,1.6h0c-.61.57-1.27,1.1-1.95,1.59-.66.39-1.24.91-1.7,1.52-.04.05-.05.12-.03.18-.05,0-.09.03-.11.07-.02.04-.02.09,0,.13.21.32.48.6.78.83.46.35.88.74,1.26,1.17.58.73,1.38,1.26,2.28,1.52,1.24.18,2.5.2,3.74.07,1.12.1,2.23.28,3.32.56.86.16,1.73-.14,2.32-.78.24-.22.42-.5.54-.8.16-.48-.05-.92-.07-1.4h0Z"/><path class="cls-15" d="m111.45,101.33c-.04-.41-.53-.51-.85-.58-1.06-.19-2.15-.24-3.22-.15-.63.04-2.29.14-2.25,1.1,0,.02.01.04.04.05.02,0,.05,0,.06-.02.42-.59,1.62-.59,2.26-.63.76-.04,1.52-.02,2.28,0,.21,0,1.11-.07,1.2.16.18.42-1.26.91-1.54,1.02l-.18.07h0c-.51.01-1.02-.04-1.52-.16-.54-.23-1.15-.28-1.72-.13-.02.01-.03.03-.03.06,0,.02.02.04.04.05.71.25,1.44.44,2.19.57h.09c-.22.1-.43.21-.64.33-.36.22-.68.77-1.1.85h0s-.08.03-.1.07c-.19.03-.33.08-.51-.04h0c-.18-.15-.33-.33-.43-.54-.17-.42-.38-.81-.64-1.18-.05-.05-.13-.06-.19-.03-.06.03-.1.1-.09.17.12.61.38,1.19.75,1.69.27.34.87.54,1.18.16.4.26.84-.48,1.09-.7.72-.6,1.78-.62,2.62-.98.42-.18,1.27-.62,1.22-1.2h0Z"/><path class="cls-15" d="m120.91,105.77c.06-.6-.05-1.21.01-1.82.06-.57.55-1.08.51-1.66-.04-.37-.34-.65-.71-.68-.5,0-.97.18-1.36.5-.52.28-.97.66-1.34,1.12-.42.67-.88,1.32-1.37,1.93-.09.09-.02.28.12.24,1.12-.31,1.48-1.96,2.26-2.67h0c.41-.35.91-.59,1.45-.69.51-.11.8.17.52.7-.13.24-.31.46-.43.7-.19.57-.25,1.18-.17,1.77.09.55.04,1.11-.15,1.63-.25.42-.87.06-1.23-.06-.5-.12-.98-.33-1.4-.63-.04-.04-.09-.04-.14-.01-.04.03-.06.09-.04.13.21.32.52.57.87.71.43.26.9.44,1.39.55.99.16,1.13-1.05,1.2-1.78h0Z"/><path class="cls-15" d="m115.18,105.59c-.5-.03-.88.41-1.18.75h0c-.45.55-.98,1.02-1.57,1.42-.24.15-.05.55.21.4.49-.26.92-.61,1.28-1.03.35-.55.78-1.05,1.27-1.48.01,0,.02-.02.02-.04,0-.01-.01-.02-.03-.03h0Z"/><path class="cls-15" d="m115.82,106.79c-.13.16-.23.35-.3.54-.09.18-.17.36-.23.54-.02.05,0,.11.03.15.04.04.09.06.14.05.48-.1.38-.81.56-1.14.04-.06.02-.13-.04-.17-.06-.04-.13-.02-.17.03h0Z"/><path class="cls-15" d="m102.5,118.76c-.57-.65-1.37-1.11-1.41-2.05h0c0-.79.05-1.58.17-2.36.1-.85.28-1.7.32-2.55h0c0-.67-.11-1.34-.35-1.98-.25-.7-.43-1.42-.54-2.16-.12-.81.13-1.63.67-2.25.4-.56.73-1.18.97-1.82.18-.49.18-1.32.58-1.68.09-.08-.03-.21-.12-.14-.38.39-.65.87-.78,1.39-.3.76-.72,1.47-1.22,2.12-.79,1.27-.86,2.86-.2,4.2.38.77.56,1.62.53,2.47-.13,1.01-.34,2-.43,3.01h0c-.14.76-.13,1.53.02,2.29.23.73.99,1.25,1.49,1.8.08.08.21.08.3,0,.09-.08.09-.21.02-.3h0Z"/><path class="cls-15" d="m105.36,115.13c-.06-.33-.36-.6-.5-.91-.15-.34-.27-.69-.42-1.02-.44-.95-1.17-1.73-1.67-2.63-.02-.04-.07-.06-.11-.04-.04.02-.06.07-.04.11.44,1.02,1,1.99,1.43,3.01.2.48.47,1.68,1.12,1.71h0c.06,0,.11-.02.15-.06.04-.04.05-.1.04-.16h0Z"/><path class="cls-15" d="m116.27,121.7c-.32.24-.94-.13-1.23-.28-.33-.17-.68-.3-1.04-.41-.96-.21-1.95-.3-2.94-.26-2.09,0-4.17-.4-6.25-.34-.12,0-.18.19-.04.22h0c2.21.43,4.47.62,6.72.56,1.13-.05,2.26.15,3.31.59.59.28,1.09.54,1.64.08.12-.1-.04-.26-.16-.17h0Z"/><path class="cls-15" d="m122.54,110.01c-.61.77-1.04,1.67-1.26,2.63-.15,1.14-.51,2.23-1.06,3.24-.34.44-.72.88-1.1,1.28h0c-.31.27-.56.6-.73.98-.07.44-.09.88-.08,1.33.03.45-.18.89-.54,1.16-.05.04-.06.11-.04.17.02.06.07.1.14.11.79.02.91-.74.96-1.4.06-.68-.08-1.19.42-1.73.41-.44.81-.88,1.2-1.33h0c.62-.83,1.01-1.8,1.12-2.83.24-1.21.61-2.38,1.12-3.5.01-.04,0-.09-.04-.11-.04-.02-.08-.02-.12,0h0Z"/><path class="cls-15" d="m115.12,117.55c-.52-.82-1.14-1.57-1.84-2.24-.63-.73-1.24-1.49-1.83-2.26-1.02-1.53-2.26-2.91-3.67-4.1-.06-.03-.13-.02-.17.03-.04.05-.04.12,0,.17,1.27,1.36,2.44,2.81,3.49,4.34.56.75,1.13,1.49,1.75,2.2h0c.57.78,1.23,1.5,1.96,2.13.18.13.39-.09.3-.27h0Z"/><path class="cls-15" d="m116.76,115.71c-.31-.88-.74-1.72-1.29-2.47-.06-.07-.16.01-.13.09.34.79.64,1.6.95,2.41.16.4.29.82.38,1.25.04.4.12.8.25,1.19.03.05.08.08.14.08s.11-.04.13-.1c.1-.84-.05-1.69-.43-2.44h0Z"/><path class="cls-15" d="m107.48,118.34c-.3-.21-.57-.46-.79-.74-.02-.03-.06-.05-.1-.04-.04.01-.06.05-.05.09.07.34.27.64.55.85.14.12.27.23.41.35.11.1.2.2.36.17.04,0,.08-.04.09-.08.08-.27-.28-.46-.46-.6h0Z"/><path class="cls-12" d="m94.56,81.57c-.24,0-.47.07-.65.22-.19.15-.31.35-.36.59-.06.29-.11.57-.19.86h0c-.08.23-.09.48-.02.72l.11.47c-.2.44.08.89,0,1.33h0c-.12.34-.33.64-.61.86-.21.21-.44.4-.66.59-.02-.15-.04-.3-.05-.46-.01-.26.05-.54.02-.8h0c-.05-.21-.13-.41-.23-.6-.02-.14-.11-.27-.23-.34-.31-.08-.65-.06-.95.05-.39.12-.52.57-.7.89-.35.6-.77,1.19-1.18,1.76-.36.4-.65.86-.85,1.36-.08.42-.02.85.17,1.23,0,.02.06,0,.06-.02l.22.34c.05.3.17.58.36.81.24.39.42.81.54,1.25.31.77.99,1.33,1.81,1.48.47.09.91.29,1.28.58.41.39.78.81,1.2,1.19h0c.29.31.64.57,1.03.75.4.14.89-.03,1.3-.07.06,0,.11-.07.1-.13l1.46-.5h0c.93-.84,1.76-1.79,2.48-2.81.35-.52.82-.96,1.36-1.28.32-.17.6-.31.58-.7l-.05-.94s.07,0,.09-.03c.27-.35-.03-.65-.31-.89-.28-.25-.56-.36-.63-.76-.06-.33-.12-.65-.2-.98h0c-.16-.55-.47-1.05-.89-1.44-.46-.51-.86-1.06-1.19-1.66-.01-.02-.04-.03-.06-.02l-.51.07c-.02-.18-.08-.35-.18-.51-.16-.23-.43-.28-.65-.43-.55-.45-1.07-.95-1.53-1.49-.33-.34-.79-.53-1.26-.52Zm-3.71,6.23l-.03.11h0s0,0,0,0h0c-.16.23-.36.44-.58.62-.28.16-.5.42-.63.72,0,.01,0,.02.01.03l-.42.25s.01-.02.01-.03c-.12-.38.27-.92.47-1.22.23-.35.5-.68.75-1.02.07-.09.33-.52.47-.48.25.06-.01.86-.06,1.03Zm4.06-5.02c.07.14.1.29.17.43.19.27.44.5.74.66.27.14.51.35.68.61.1.25-.26.41-.44.53-.22.19-.47.33-.74.42-.03,0-.05.03-.05.06l-.57.07c.23-.6-.39-1.31-.44-1.9h0c-.02-.3.04-.6.17-.87.12-.26.34-.3.49,0Z"/><path class="cls-15" d="m97.36,83.73c-.55-.45-1.07-.95-1.53-1.49-.33-.34-.79-.53-1.26-.52-.24,0-.47.07-.65.22-.19.15-.31.35-.36.59-.06.29-.11.57-.19.86h0c-.08.23-.09.48-.02.72.02.05.08.08.13.07.05-.01.09-.06.09-.12-.05-.4.16-.81.21-1.2-.01-.25.09-.49.27-.67.19-.13.41-.22.63-.26.67-.17,1.01.4,1.35.88h0c.32.43.69.8,1.12,1.12.17.11.35.21.54.29.31.17.29.41.26.72h0c-.03.48-.27.93-.66,1.22-.42.3-.8.65-1.12,1.05-.29.47-.62.91-.99,1.31-.43.4-1,.62-1.58.62-.47.03-.87.31-1.33.37h0s.02-.05.02-.08c-.07-.28-.1-.57-.11-.87,0-.29.07-.57.06-.86v-.11s0,0,0,0c.65-.32,1.17-.85,1.49-1.5.15-.47-.05-1.03-.11-1.5h0s-.03-.05-.06-.06c-.03,0-.06,0-.07.04-.2.44.08.89,0,1.33h0c-.12.34-.33.64-.61.86-.21.21-.44.4-.66.59-.02-.15-.04-.3-.05-.46-.01-.26.05-.54.02-.8h0c-.06-.21-.13-.41-.23-.6-.02-.14-.11-.27-.23-.34-.31-.08-.65-.06-.95.05-.39.12-.52.57-.7.89-.35.6-.77,1.19-1.18,1.76h0c-.36.4-.65.86-.85,1.36-.08.42-.02.85.17,1.23,0,.02.02.02.04.02.02,0,.02-.02.02-.04-.32-.99.31-1.93.84-2.72.31-.46.64-.91.96-1.36.22-.32.39-.77.8-.88.25-.07.71-.16.89.06.28.35.13.91.13,1.31h0c.05.46.07.93.06,1.4-.04.42,0,.85.11,1.26,0,.04.04.06.07.07-.01.02-.01.05,0,.07.01.02.03.04.06.04.21.01.43-.01.63-.07.31-.09.62-.15.94-.18.52-.02,1.02-.2,1.43-.51.49-.49.92-1.05,1.27-1.65.41-.47.87-.9,1.35-1.3.35-.33.51-.82.42-1.29-.02-.18-.08-.35-.18-.51-.16-.23-.43-.28-.65-.43h0Z"/><path class="cls-15" d="m91.11,86.73c-.19-.12-.4.07-.54.19-.44.41-.82.88-1.13,1.39-.19.3-.7,1.07-.25,1.37.01,0,.02,0,.03,0,.01,0,.01-.02.01-.03-.12-.38.27-.92.47-1.22.23-.35.5-.68.75-1.02.07-.09.33-.52.47-.48.25.06-.01.86-.06,1.03l-.03.11h0c-.16.23-.36.44-.58.62-.28.16-.5.42-.63.72,0,.01,0,.03.01.03.01,0,.02,0,.04,0,.35-.23.68-.5.98-.79l.03-.04c-.03.13-.05.26-.07.39-.02.23.12.56.02.77h0s-.01.05,0,.07c-.05.09-.07.17-.19.22h0c-.12.03-.26.04-.38.01-.24-.06-.49-.1-.74-.11-.04,0-.07.04-.08.07,0,.04.01.08.05.1.31.15.66.23,1,.23.24,0,.53-.21.46-.47.25-.09.06-.53.05-.72-.03-.52.31-1,.43-1.5.06-.25.14-.77-.13-.94h0Z"/><path class="cls-15" d="m96.23,83.98c-.25-.23-.56-.38-.81-.61-.24-.21-.3-.61-.57-.78-.18-.1-.4-.06-.54.09-.16.22-.24.5-.23.77-.05.32-.03.65.06.97.16.41.3.83.41,1.25.01.07.12.1.15.02.23-.6-.39-1.31-.44-1.9h0c-.02-.3.04-.6.17-.87.12-.26.34-.3.49,0,.07.14.1.29.17.43.19.27.44.5.74.66.27.14.51.35.68.61.1.25-.26.41-.44.53-.22.19-.47.33-.74.42-.03,0-.05.03-.05.06,0,.03.02.05.05.06.21.01.42-.04.61-.16.26-.11.5-.25.71-.43.4-.39-.1-.85-.4-1.12h0Z"/><path class="cls-15" d="m94.25,86.47c-.18.21-.11.53-.06.77h0c.1.38.13.78.11,1.17-.01.16.23.2.25.04.05-.3.03-.61-.04-.91-.13-.34-.21-.69-.24-1.06,0,0,0-.02-.01-.02,0,0-.02,0-.02,0h0Z"/><path class="cls-15" d="m95,86.58c.03.11.08.22.14.31.05.1.1.19.17.28.02.02.05.04.08.03.03,0,.06-.02.07-.05.11-.25-.23-.44-.32-.63-.01-.04-.05-.05-.09-.04-.04.01-.05.05-.04.09h0Z"/><path class="cls-15" d="m95.93,96.5c-.48.04-.95.24-1.38-.05h0c-.35-.26-.69-.55-1-.86-.34-.33-.67-.69-1.03-.99h0c-.3-.23-.64-.4-1-.5-.4-.12-.78-.28-1.14-.47-.4-.22-.69-.6-.78-1.04-.12-.37-.28-.71-.49-1.04-.16-.24-.53-.52-.56-.82,0-.07-.1-.06-.1.01.05.3.17.58.36.81.24.39.42.81.54,1.25.31.77.99,1.33,1.81,1.48.47.09.91.29,1.28.58.41.39.78.81,1.2,1.19h0c.29.31.64.57,1.03.75.4.14.89-.03,1.3-.07.06,0,.11-.07.1-.13,0-.06-.06-.11-.13-.11h0Z"/><path class="cls-15" d="m95.25,94.02c-.17-.08-.39-.04-.57-.08-.2-.04-.4-.11-.6-.15-.57-.12-1.16-.05-1.73-.13-.02,0-.05.01-.05.04,0,.02.01.05.04.05.6.14,1.22.21,1.82.36.28.07.91.35,1.13.07h0s.03-.06.02-.09c0-.03-.03-.06-.06-.07h0Z"/><path class="cls-15" d="m101.8,91.32c0,.22-.37.37-.53.46-.19.09-.36.2-.53.33-.41.36-.78.77-1.09,1.22-.7.93-1.56,1.73-2.22,2.68-.04.05.03.14.08.09h0c.93-.84,1.76-1.79,2.48-2.81.35-.52.82-.96,1.36-1.28.32-.17.6-.31.58-.7,0-.09-.13-.07-.13.01h0Z"/><path class="cls-15" d="m98.66,84.65c.14.53.4,1.02.76,1.43.46.45.83.97,1.09,1.55.08.3.15.61.21.92h0c.02.23.08.45.2.65.17.18.36.34.57.47.21.14.34.37.34.63,0,.03.03.06.06.07.03.01.07,0,.09-.03.27-.35-.03-.65-.31-.89-.28-.25-.56-.36-.63-.76-.06-.33-.12-.65-.2-.98h0c-.16-.55-.47-1.05-.89-1.44-.46-.51-.86-1.06-1.19-1.66-.01-.02-.04-.03-.06-.02-.02,0-.04.03-.04.05h0Z"/><path class="cls-15" d="m99.57,90.46c-.54-.04-1.08-.01-1.61.08-.54.04-1.08.06-1.61.07-1.02-.05-2.05.04-3.04.28-.03.01-.05.05-.04.09,0,.04.04.06.08.06,1.03-.11,2.06-.15,3.1-.12.52,0,1.04-.01,1.56-.05h0c.54,0,1.08-.05,1.6-.17.12-.04.09-.21-.02-.23h0Z"/><path class="cls-15" d="m99.29,89.12c-.5-.16-1.01-.24-1.53-.24-.05,0-.05.08,0,.09.47.11.93.24,1.39.38.23.06.46.14.68.24.19.12.4.21.61.29.03,0,.06-.01.08-.04s.02-.06,0-.09c-.34-.32-.77-.54-1.23-.62h0Z"/><path class="cls-15" d="m97.39,94.14c-.19.07-.39.1-.59.11-.02,0-.04.01-.05.03,0,.02,0,.04.02.05.18.08.38.09.56.04.1-.02.19-.05.29-.07.08-.02.16-.02.19-.1.01-.02,0-.05,0-.07-.09-.13-.3-.03-.42,0h0Z"/><path class="cls-12" d="m69.56,127.62h-.01c.51.59,1.06,1.14,1.63,1.66.37.33.84.5,1.34.48,1.28-.22,2.42-.92,3.2-1.96,1.13-1.15,2.57-2.05,3.6-3.29.64-.78.31-1.79,0-2.64h0s-.03-.03-.05-.03c-.02,0-.04.01-.04.03l-.15-.14c.54-.57.91-1.18.4-1.45h0c-.15-.08-.4.06-.29.24l-.33-.36s.02-.07,0-.1c-.3-.39-.95-.55-1.39-.74h0c-.65-.33-1.27-.69-1.88-1.09-.93-.55-1.69-.12-2.29.67h0s0,.04,0,.06l-.56.09h0c.69-.39,1.18-1.06,1.33-1.84-.08-.96-.53-1.85-1.26-2.48h0c-.71-.83-1.26-1.75-1.9-2.62-.27-.36-.65-1.18-1.19-.8l-.4.38s-.07-.06-.11-.05h0c-.66.27-1.26.66-1.79,1.14-.68.48-1.33.99-1.99,1.49-1.36.91-2.64,1.93-3.83,3.06l-.41.38s-.11-.03-.1.03c.3.95.77,1.83,1.41,2.59.46.78.98,1.51,1.56,2.2.47.48,1.08.8,1.75.91.42.07,1.7.3,1.86-.31l-.5.61h0c-.42.34-.72.81-.83,1.34-.06.69.63,1.02,1.18,1.21h0c.46.13.9.33,1.31.59l.72.76Z"/><path class="cls-15" d="m67.61,123.14c-.28-.05-.58.1-.87.1-.32,0-.65-.05-.97-.06h0c-.73-.08-1.38-.51-1.72-1.16-.43-.57-.78-1.19-1.2-1.76-.58-.76-1.12-1.55-1.61-2.37-.03-.05-.11-.03-.1.03.3.95.77,1.83,1.41,2.59.46.78.98,1.51,1.56,2.2.47.48,1.08.8,1.75.91.42.07,1.7.3,1.86-.31.01-.04,0-.08-.02-.11-.02-.03-.06-.05-.1-.06h0Z"/><path class="cls-15" d="m71.83,119.78c-.65.43-1.2,1.06-1.81,1.55h0c-.53.53-1.12.98-1.77,1.35-.03.01-.04.05-.03.08.01.03.04.05.07.05.69-.22,1.32-.59,1.86-1.07.75-.44,1.4-1.04,1.89-1.76.04-.06.03-.14-.02-.19-.05-.05-.13-.05-.19,0h0Z"/><path class="cls-15" d="m72.87,114.93c-.71-.83-1.26-1.75-1.9-2.62-.27-.36-.65-1.18-1.19-.8-.12.08-.01.27.12.25.59-.11.85.84,1.09,1.22h0c.41.71.88,1.38,1.4,2.02.62.54,1.08,1.25,1.33,2.04-.03.8-.39,1.55-1,2.07-.07.07,0,.21.1.16h0c.69-.39,1.18-1.06,1.33-1.84-.08-.96-.53-1.85-1.26-2.48h0Z"/><path class="cls-15" d="m69.26,111.83c-.66.27-1.26.66-1.79,1.14-.68.48-1.33.99-1.99,1.49-1.36.91-2.64,1.93-3.83,3.06-.14.15.05.41.22.26,1.19-1.09,2.49-2,3.77-2.98.63-.48,1.26-.97,1.91-1.43.32-.23.64-.46.95-.68h0c.32-.18.61-.41.86-.68.02-.04.02-.08,0-.12-.02-.04-.07-.06-.11-.05h0Z"/><path class="cls-15" d="m67.83,121.94c-.55.3-1.19.41-1.82.32-.74-.14-1.2-.95-1.65-1.48h0c-.49-.51-.91-1.08-1.26-1.69-.38-.76-.03-1.27.2-1.99,0-.03-.03-.07-.06-.04-.27.22-.47.52-.58.85-.11.33-.13.69-.05,1.03.39.8.94,1.51,1.61,2.08.42.71,1.05,1.27,1.8,1.6.68.15,1.4-.05,1.91-.53.03-.03.04-.08.02-.12-.02-.04-.07-.05-.12-.04h0Z"/><path class="cls-15" d="m69.97,112.81c-.67-.13-1.37.04-1.91.46-.62.44-1.21.93-1.75,1.46-.4.35-.83.65-1.26.96-.39.29-.74.62-1.14.9-.04.03,0,.08.04.06h0c.63-.32,1.23-.71,1.79-1.14.59-.42,1.16-.87,1.7-1.35.52-.49,1.16-.84,1.86-1,.36,0,.71.1,1.02.28.31.18.56.45.73.77.02.02.05.03.07.01.02-.01.04-.04.03-.06-.06-.31-.2-.59-.4-.83-.2-.24-.47-.41-.76-.52h0Z"/><path class="cls-15" d="m72.77,116.26c-.43-.58-.91-1.15-1.39-1.69-.01-.01-.03-.02-.05,0s-.02.03-.01.04c.23.42.49.81.78,1.19.34.4.56.89.66,1.4,0,.3-.13.59-.35.81-.31.41-.65.79-1,1.16,0,0,0,.02,0,.03s.02,0,.03,0c.45-.36.88-.74,1.28-1.15.23-.19.39-.46.44-.76,0-.38-.14-.75-.39-1.04h0Z"/><path class="cls-15" d="m71.47,127.74c-.47.22-1.09-.2-1.48-.43-.51-.36-1.05-.69-1.61-.98-.51-.21-1.37-.29-1.6-.88-.19-.5.24-1.07.51-1.46.03-.05-.03-.11-.07-.07h0c-.42.34-.72.81-.83,1.34-.06.69.63,1.02,1.18,1.21h0c.46.13.9.33,1.31.59.37.25.72.5,1.11.71.48.26,1.09.58,1.62.26.17-.11.06-.39-.14-.29h0Z"/><path class="cls-15" d="m79.53,120.49c-.15-.08-.4.06-.29.24.21.33-.49.97-.7,1.18-.62.59-1.36,1.05-2.03,1.58-.71.55-1.33,1.2-2.01,1.79-.73.63-1.5,1.22-2.17,1.92h0s-.03.07,0,.1c.03.03.07.04.1.01,1.89-1.24,3.49-2.83,5.31-4.17.29-.22,2.82-2.1,1.79-2.65h0Z"/><path class="cls-15" d="m77.52,119.53c-.65-.33-1.27-.69-1.88-1.09-.93-.55-1.69-.12-2.29.67h0s0,.04,0,.06c.02.01.04.02.06,0,.34-.36.8-.58,1.3-.63.55,0,1.05.49,1.48.79h0c.39.26.82.48,1.26.64.44.18.91.26,1.35.44.04.01.08,0,.1-.03.02-.03.02-.07,0-.1-.3-.39-.95-.55-1.39-.74h0Z"/><path class="cls-15" d="m79.28,122.08c-.05.37-.03.74.05,1.11.13.52-.02,1.07-.4,1.45-.99,1.02-2.15,1.85-3.16,2.84h0c-.41.47-.84.91-1.31,1.32-.48.38-1.05.64-1.66.75-.58.07-1.16-.13-1.56-.55-.51-.43-1.11-.75-1.63-1.17h-.01s0,.01,0,.01c.51.58,1.06,1.13,1.63,1.65.37.33.84.5,1.34.48,1.28-.22,2.42-.92,3.2-1.96,1.13-1.15,2.57-2.05,3.6-3.29.64-.78.31-1.79,0-2.64h0s-.03-.03-.05-.03c-.02,0-.04.01-.04.03h0Z"/><path class="cls-15" d="m69.1,123.07c-.53.29-1,.68-1.39,1.15-.24.32-.55,1.09.05,1.23.05.01.13-.04.09-.1-.28-.45.05-.86.32-1.24h0c.25-.38.57-.72.94-.99.02-.01,0-.05-.02-.04h0Z"/><path class="cls-15" d="m76.18,120.01c-.41-.44-.9-.79-1.46-1.04-.59-.05-1.16.21-1.51.69-.01.01-.02.03,0,.05s.03.02.05.01c.64-.22,1.1-.59,1.78-.21.33.27.71.46,1.12.58.02,0,.04-.01.04-.03,0-.02,0-.04-.02-.05h0Z"/><path class="cls-15" d="m72.37,126.36c-.52.38-1.19.49-1.8.29-.38-.15-.78-.31-1.15-.49-.29-.18-.59-.33-.91-.44-.02,0-.04,0-.05.03,0,.02,0,.04.02.05.22.13.42.29.61.48.2.15.41.28.63.38.34.2.71.36,1.09.46.68.14,1.13-.28,1.62-.66h0s.02-.05,0-.07c-.01-.02-.04-.03-.07-.02h0Z"/><path class="cls-15" d="m76.92,120.33s-.03,0-.04.02c0,.01,0,.03.02.04.28.12.53.27.76.47.29.26.28.45.03.74h0c-.34.36-.71.69-1.09,1-.55.5-1.08,1.01-1.62,1.51-.6.55-1.18,1.19-1.82,1.69-.03.02,0,.06.04.04.43-.29.79-.65,1.19-.97.42-.33.84-.66,1.24-1.02.62-.54,1.25-1.09,1.87-1.63.28-.24.81-.66.73-1.1-.1-.5-.92-.67-1.31-.79h0Z"/><path class="cls-15" d="m76.92,121.62c-.23-.16-.5-.26-.78-.29-.28-.02-.56.03-.82.15-.01-.14-.05-.28-.11-.41-.22-.35-.47-.69-.74-1.01-.03-.05-.1,0-.09.04h0c.08.3.2.59.37.84.13.21.2.45.21.7-.45.27-.88.58-1.29.92-.68.54-1.35,1.11-2.04,1.63-.73.43-1.38.99-1.92,1.64l.02.02h0c.65-.32,1.26-.7,1.82-1.15.61-.42,1.2-.88,1.77-1.35.57-.47,1.15-.93,1.77-1.35.29-.25.66-.4,1.04-.42.25.04.5.09.74.16.07.01.1-.09.04-.13h0Z"/><path class="cls-15" d="m73.9,128.57c-.35-.22-.69-.46-1.05-.68-.05-.03-.12.03-.07.08.26.36.59.66.99.86.07.02.15,0,.18-.07.03-.07.01-.15-.05-.19h0Z"/><path class="cls-12" d="m142.87,112.77s-.09-.04-.05-.07c.92-.64,1.91-1.19,2.95-1.63.81-.17,1.65.04,2.27.58h0c.48.31.96.61,1.42.97.46.37.88.79,1.26,1.25.4.5.61,1.14.58,1.78.19-.32.48-.57.82-.71.44-.05.89.06,1.27.29h0c.42.18.88.27.98.78h0c.09.46-.26.89-.53,1.23l.02.61c.11-.16.2-.33.29-.51.1-.17.23-.33.37-.46.19-.22.46-.34.75-.34.3.04.57.21.73.47.06.1.11.22.13.34h0c.02.08,0,.19.04.26.07.16.16.17.32.22h0c.15.06.18.28-.02.31l.22.28s.02-.06.05-.07c.42-.13.87-.15,1.3-.05.5.07.99.18,1.48.31.35.06.67.25.89.54.22.28.32.64.29,1l.02.04c.21.76.07,1.58-.37,2.23h0s-.61.54-.61.54c.59.51.91,1.26.88,2.03.03.32-.06.64-.25.9h0c-.06.09-.16.15-.26.17-.11.01-.22-.02-.3-.1l-.14.15h0c.08,0,.11.1.03.13-.59.2-1.2.3-1.82.29-.71.07-1.26.21-1.96.26-.4.08-.82.05-1.2-.1-.38-.15-.71-.4-.95-.73l.09.55s0,.1-.04.14h0c-.15.12-.37.13-.53.03-.17-.09-.32-.21-.45-.35l-.53.17s-.07.02-.1,0c-1.39-1.29-2.77-2.58-4.04-3.99-.32-.35-.64-.7-.95-1.06-.19-.15-.33-.37-.38-.6,0-.64.3-1.24.81-1.62,0,0-.1-.68-.16-.61-.59.67-1.34,1.19-2.17,1.52-.29.11-.53-.09-.79-.2-.42-.14-.79-.38-1.11-.69-.04-.04-.05-.1-.02-.15l-.26-.82h0c0,.06-.06.07-.08.03-.27-.44-.47-.91-.61-1.41-.13-.33-.32-.64-.56-.9-.06-.06-.11-.12-.16-.18-.05.02-.11.03-.16.03-.53-.1-1.03-.3-1.48-.6-.04-.01-.06-.05-.05-.09.01-.04.05-.06.09-.05h0"/><path class="cls-12" d="m142.49,112.95s.02-.05.02-.07c-.04-.15-.14-.28-.29-.35-.15-.09-.32-.16-.49-.2h-.07c-.35.01-.68.19-.86.49-.43.45-.7,1.03-.77,1.65-.03.13,0,.27.08.38l.13.14,2.49-1.98-.24-.07Z"/><path class="cls-15" d="m143.13,118.28c-.08-.65-.24-1.29-.48-1.9-.12-.3-.32-.56-.57-.76.14-.13.27-.27.38-.43.25-.29.4-.65.46-1.03.05-.38,0-.76-.16-1.11-.02-.04-.07,0-.06.04h0c.11.7-.1,1.41-.57,1.94-.22.3-.4.48-.77.43-.43-.05-.81-.31-1.25-.37h0s-.08.01-.09.05c-.01.04,0,.08.05.09.45.29.96.5,1.48.6.06,0,.11-.01.16-.03.05.06.11.13.16.18.24.27.43.57.56.9.14.49.34.97.61,1.41.03.04.09.03.08-.03h0Z"/><path class="cls-15" d="m154.37,116.01c-.1-.51-.56-.6-.98-.78h0c-.38-.24-.83-.34-1.27-.29-.34.14-.63.39-.82.71.03-.64-.17-1.28-.58-1.78-.37-.46-.8-.88-1.26-1.25-.45-.36-.94-.66-1.42-.97h0c-.62-.54-1.46-.75-2.27-.58-1.04.44-2.02.99-2.95,1.63-.05.03,0,.09.05.07.49-.21.99-.36,1.49-.56.36-.15.68-.32,1.04-.5h0c.39-.26.86-.37,1.32-.31.4.12.78.31,1.12.54.38.19.74.42,1.08.68.39.35.74.77,1.09,1.15h0c.31.29.57.63.76,1.01.14.48.18.98.12,1.48,0,.06.02.12.08.14s.12.01.16-.03c.22-.27.45-.52.7-.77.16-.13.35-.21.55-.24.2-.03.41,0,.59.09.31.09.73.13.92.43.29.44.03.83-.21,1.22-.08.13.07.26.16.13.27-.34.62-.77.53-1.23h0Z"/><path class="cls-15" d="m156.48,117.85c-.15-.06-.24-.07-.32-.22-.03-.08-.02-.18-.04-.26h0c-.02-.12-.07-.24-.13-.34-.16-.26-.43-.43-.73-.47-.29,0-.56.12-.75.34-.14.14-.27.29-.37.46-.08.18-.18.35-.29.51-.04.05,0,.11.05.07.12-.07.22-.1.34-.18h0c.12-.1.24-.21.34-.33.26-.29.56-.6.94-.32.26.18.17.55.32.79.12.22.38.33.62.27.2-.03.17-.25.02-.31h0Z"/><path class="cls-15" d="m160.34,122.43c.44-.65.58-1.47.37-2.23l-.02-.04c.03-.36-.07-.71-.29-1-.22-.28-.53-.48-.89-.54-.49-.14-.98-.24-1.48-.31-.43-.1-.88-.09-1.3.05-.03.01-.05.04-.05.07,0,.03.02.06.06.07.7.17,1.4.27,2.11.42h0c.6.02,1.14.34,1.44.86-.44-.23-.95-.33-1.44-.28-.07,0-.06.08,0,.11.55.18,1.16.24,1.47.8h0c.14.3.2.63.17.96-.03.33-.16.64-.36.9-.16.23.06.4.21.16h0Z"/><path class="cls-15" d="m160.37,125.9c.19-.26.28-.58.25-.9.03-.78-.3-1.52-.88-2.03-.06-.05-.12.03-.1.09.23.53.41,1.09.52,1.66.03.22.02.44-.03.66-.05.21-.22.3-.34.46h0s-.02.1.02.14c.08.07.19.11.3.1.11-.01.21-.08.26-.17h0Z"/><path class="cls-15" d="m159.67,126.12c-1.1-.05-2.21,0-3.3.15-.84.23-1.73.08-2.45-.42-.1-.08-.23.02-.16.12.24.33.57.59.95.73.38.15.8.18,1.2.1.69-.05,1.25-.19,1.96-.26.62.01,1.24-.09,1.82-.29.08-.04.05-.13-.03-.13h0Z"/><path class="cls-15" d="m153.38,125.16c-.42-.95-.79-1.93-1.11-2.92-.25-.7-.55-1.38-.88-2.04-.07-.15-.29-.17-.33,0-.15.76.41,1.4.73,1.99.57,1.04.98,2,1.55,3,.02.03.06,0,.05-.03h0Z"/><path class="cls-15" d="m152.33,126.41c-.33-.56-.74-1.08-1.21-1.53-.6-.6-1.19-1.18-1.77-1.81-.48-.52-.92-1.04-1.42-1.58-.25-.27-.6-.46-.61-.9h0c.04-.44.18-.87.42-1.25.05-.08-.02-.18-.1-.1-.51.38-.81.98-.81,1.62.05.24.19.45.38.6.31.36.63.71.95,1.06,1.27,1.41,2.65,2.7,4.04,3.99.03.02.07.03.1,0,.03-.02.04-.06.02-.1h0Z"/><path class="cls-15" d="m153.82,126.65s.05-.09.04-.14c-.01-.05-.05-.09-.1-.1-.07-.02-.15-.03-.22-.04-.07-.02-.14-.04-.21-.07-.14-.06-.29-.09-.44-.1-.03,0-.06.02-.07.05-.01.03,0,.06.02.08.13.14.28.26.45.35.17.1.38.09.53-.03h0Z"/><path class="cls-15" d="m147.48,118.61c.06-.06-.03-.14-.09-.09-.44.32-.9.6-1.39.84-.28.13-.57.21-.84.35-.51-.3-1.05-.53-1.62-.68-.05-.01-.11.01-.14.06-.03.05-.02.11.02.15.31.31.69.54,1.11.69.26.11.5.32.79.2.83-.33,1.58-.85,2.17-1.52h0Z"/><path class="cls-15" d="m144.18,118.21c-.15-.03.07-.35.1-.4h0c.15-.19.31-.36.49-.52.31-.28.64-.48.93-.79.44-.48.82-1.01,1.14-1.57.19-.31.45-.89.89-1.02.06-.02.09-.08.04-.11-.42-.29-.84.35-1.01.58-.5.74-1.07,1.44-1.7,2.07-.51.34-.94.8-1.25,1.33-.12.3.05.77.44.61.09-.04.02-.16-.07-.18h0Z"/><path class="cls-15" d="m147.84,115.45c.22-.33.43-.67.61-1.02.12-.29.34-.54.62-.7.02-.01.05-.03.04-.05,0-.08-.04-.16-.12-.2-.07-.04-.16-.04-.23,0-.29.18-.52.45-.66.77-.34.58-.72,1.14-1.14,1.67-.54.64-1.21,1.13-1.77,1.74h0c-.05.06-.05.15,0,.21.06.06.15.06.21.01.43-.39.84-.83,1.26-1.22.43-.37.82-.77,1.17-1.21h0Z"/><path class="cls-15" d="m147.57,117.29c.17-.18-.01-.44-.22-.3h0c-.19.15-.35.33-.48.53-.16.24-.33.48-.53.69-.02.02,0,.07.03.05.22-.11.43-.25.62-.4.19-.17.41-.38.58-.56h0Z"/><path class="cls-15" d="m148.89,117.67s-.02-.04-.04-.05c-.02,0-.05,0-.07,0-.12.08-.23.19-.32.31-.12.14-.25.27-.39.38-.07.06-.1.17-.07.26l.03.05c.11.08.18.12.31.03h0c.17-.1.32-.24.41-.41.1-.17.14-.37.13-.57h0Z"/><path class="cls-15" d="m153.32,123.59c-.09-.67-.23-1.31-.29-1.99h0c-.03-.46-.13-.92-.3-1.35-.14-.22-.22-.48-.23-.74.03-.26.08-.51.15-.76.13-.48.22-.96.26-1.46,0-.06-.07-.05-.09,0h0c-.48.85-.71,1.81-.67,2.78.06.33.29.53.35.85.05.23.07.47.14.7.2.66.45,1.3.63,1.97,0,.03.06.03.05,0h0Z"/><path class="cls-15" d="m158.71,121.08c-.17-.34-.44-.61-.78-.78-.25-.2-.57-.3-.89-.27-.07.01-.08.09-.04.14.23.21.48.4.75.55.23.22.5.4.79.53.05.01.1,0,.13-.03.03-.04.05-.09.03-.13h0Z"/><path class="cls-15" d="m158.94,122.97c-.18-.18-.43-.28-.69-.27-.28-.05-.57-.08-.85-.1-.05,0-.09.02-.12.06-.02.04-.03.09,0,.13.15.3.42.33.72.35.15,0,.31,0,.46-.02.15,0,.3-.02.44-.07.04-.01.07-.06.04-.09h0Z"/><path class="cls-15" d="m146.16,113.58c.08-.3.12-.6.11-.91,0-.17,0-.34.01-.51.03-.11.04-.22.04-.34,0-.02-.02-.04-.03-.05-.02-.01-.04-.02-.06-.01-.28.08-.29.49-.29.69-.01.37,0,.73.04,1.1,0,.1.15.14.18.04h0Z"/><path class="cls-15" d="m141.11,114.61c.44-.54.69-1.21.72-1.9l.16.11c.12.1.27.15.42.17.03,0,.05,0,.07-.03.02-.02.02-.05.02-.07-.04-.15-.14-.28-.29-.35-.15-.09-.32-.16-.49-.2h-.07c-.35.01-.68.19-.86.49-.43.45-.7,1.03-.77,1.65-.03.13,0,.27.08.38.08.11.2.19.33.2.31.03.5-.21.67-.46h0Zm-.43.03c-.47.15-.37-.34-.24-.67.2-.57.59-1.06,1.11-1.37.02.52-.13,1.02-.43,1.44-.12.2-.24.53-.44.6h0Z"/><path class="cls-12" d="m110.78,108.8c-.59.08-1.01.63-.93,1.22s.63,1.01,1.22.93,1.01-.63.93-1.22-.63-1.01-1.22-.93Z"/><path class="cls-12" d="m124.9,104.94s-.09,0-.13,0c-.04,0-.08-.01-.12-.02-.04-.01-.08-.03-.12-.04-.04-.02-.08-.04-.11-.07-.14-.1-.23-.26-.25-.43,0-.04,0-.08,0-.13,0-.04.01-.08.02-.12.01-.04.03-.08.04-.12.02-.04.04-.07.07-.11s.06-.07.09-.09c.03-.03.07-.05.1-.07.04-.02.07-.04.11-.05.08-.03.17-.04.25-.03.04,0,.08.01.13.02.04.01.08.03.12.04.04.02.07.04.11.07.03.03.07.06.09.09.03.03.05.07.07.1.02.04.04.08.05.11.01.04.02.08.03.12.02.17-.02.34-.13.48-.03.03-.05.06-.09.09-.03.03-.07.05-.1.07-.04.02-.08.04-.12.05-.04.01-.08.02-.12.03Z"/><path class="cls-12" d="m121.43,108.41c-.17.02-.34-.02-.48-.13-.14-.1-.23-.26-.25-.43,0-.04,0-.08,0-.13,0-.04,0-.08.02-.13.01-.04.03-.08.04-.12.02-.04.04-.08.07-.11.1-.14.26-.23.43-.25s.34.02.48.13c.03.03.07.06.09.09.03.03.05.07.07.1.02.04.04.08.05.12.01.04.02.08.03.12.02.17-.02.34-.13.48-.1.14-.26.23-.43.25Z"/><path class="cls-12" d="m111.57,105.31s-.08,0-.13,0c-.04,0-.08-.01-.13-.02-.04-.01-.08-.03-.12-.04-.04-.02-.07-.04-.11-.07-.14-.1-.23-.26-.25-.43,0-.04,0-.09,0-.13,0-.04,0-.08.02-.13.01-.04.03-.08.04-.12.02-.04.04-.08.07-.11.03-.03.05-.07.09-.09.03-.03.07-.05.1-.07.04-.02.08-.04.12-.05.08-.03.17-.04.25-.03.04,0,.08,0,.12.02.04.01.08.03.12.04.04.02.07.04.11.07.03.02.06.05.09.09.03.03.05.07.07.1.02.04.04.08.05.12.01.04.02.08.03.12.02.17-.02.34-.13.48-.1.14-.26.23-.43.25Z"/><path class="cls-12" d="m132.03,101.69c-.17.02-.34-.02-.48-.13-.03-.03-.06-.06-.09-.09-.03-.03-.05-.07-.07-.1-.02-.04-.04-.08-.05-.12-.01-.04-.02-.08-.03-.12s0-.08,0-.13c0-.04,0-.08.02-.12.01-.04.03-.08.04-.12.02-.04.04-.07.07-.11.1-.14.26-.23.43-.25s.34.02.48.13c.03.03.06.06.09.09.03.03.05.07.07.1.02.04.04.08.05.12.01.04.02.08.03.12s0,.09,0,.13c0,.04,0,.08-.02.13-.01.04-.03.08-.04.12-.02.04-.04.07-.07.11-.03.03-.06.07-.09.09-.03.03-.07.05-.1.07-.04.02-.08.04-.12.05-.04.01-.08.02-.12.03Z"/><path class="cls-12" d="m132.9,107.39c-.17.02-.34-.02-.48-.13-.03-.03-.06-.06-.09-.09-.03-.03-.05-.07-.07-.1-.02-.04-.04-.08-.05-.12-.01-.04-.02-.08-.03-.12s0-.09,0-.13c0-.04.01-.08.02-.12.01-.04.03-.08.04-.12.02-.04.04-.07.07-.11.03-.03.06-.07.09-.09.03-.03.07-.05.1-.07.04-.02.08-.04.12-.05.2-.07.43-.03.6.1.03.03.06.06.09.09.03.03.05.07.07.1.02.04.04.08.05.11.01.04.02.08.03.12s0,.08,0,.13c0,.04-.01.08-.02.13-.01.04-.03.08-.04.12-.02.04-.04.07-.07.11-.03.03-.06.07-.09.09-.03.03-.07.05-.1.07-.04.02-.08.04-.11.05-.04.01-.08.02-.12.03Z"/><path class="cls-12" d="m143.83,99.68s-.08,0-.13,0c-.04,0-.08-.01-.13-.02-.04-.01-.08-.03-.12-.04-.04-.02-.08-.04-.11-.07-.03-.03-.06-.06-.09-.09-.03-.03-.05-.07-.07-.1-.02-.04-.04-.08-.05-.11-.01-.04-.02-.08-.03-.12s0-.08,0-.13c0-.04.01-.08.02-.13.01-.04.03-.08.04-.12.02-.04.04-.08.07-.11.13-.17.34-.27.56-.25.04,0,.08,0,.12.02.04.01.08.03.12.04.04.02.08.04.11.07.03.02.06.05.09.09.03.03.05.07.07.1.02.04.04.08.05.12.01.04.02.08.03.12s0,.09,0,.13c0,.04,0,.08-.02.12-.01.04-.03.08-.04.12-.02.04-.04.08-.07.11-.1.14-.26.23-.43.25Z"/><path class="cls-12" d="m145.27,105.57s-.08,0-.13,0c-.04,0-.08-.01-.13-.02-.04-.01-.08-.03-.12-.04-.04-.02-.08-.04-.11-.07-.03-.03-.07-.06-.09-.09-.03-.03-.05-.07-.07-.1-.02-.04-.04-.08-.05-.12-.01-.04-.02-.08-.03-.12s0-.08,0-.13c0-.04,0-.08.02-.13.01-.04.03-.08.04-.12.02-.04.04-.07.07-.11.03-.03.05-.07.09-.09.03-.03.07-.05.1-.07.04-.02.08-.04.12-.05.08-.03.17-.04.25-.03.04,0,.08.01.12.02.04.01.08.03.12.04.04.02.08.04.11.07.03.03.06.06.09.09.03.03.05.07.07.1.02.04.04.08.05.12.01.04.02.08.03.12s0,.09,0,.13c0,.04-.01.08-.02.12-.01.04-.03.08-.04.12-.02.04-.04.07-.07.11-.1.14-.26.23-.43.25Z"/><path class="cls-12" d="m143.33,96.57s-.81-1.04-1.62-1.2-2.73.25-2.73.25c0,0-.28-.28-.44.61l-.16.88s-4.72,4.55-4.85,5.04.47,1.7.94,2.35,1.12,1.21,2.18.93,5.94-2.9,5.94-2.9l1.06.1.48-.31.28-.65s.81-.78.67-1.64-.72-2.06-.72-2.06l-1.04-1.41Z"/><path class="cls-15" d="m140.68,99.46c.95-.65,1.86-1.36,2.77-2.01.25-.18.41-.3.62-.46.3-.23.56-.47.75-.02.05.11.23.06.19-.04-.2-.55-.49-.53-1-.18-1.05.73-2.04,1.55-3.18,2.3l-.33.22c.05.07.11.13.17.19h0Z"/><path class="cls-15" d="m134.96,103.64s.08.02.12,0c.03-.03.04-.08.02-.11-.14-.43.74-.83,1.04-1.04.46-.33.92-.63,1.41-.94.83-.53,1.69-1.11,2.52-1.67h0c-.06-.06-.12-.13-.17-.2-1.11.73-2.28,1.5-3.35,2.23-.36.24-.66.49-.98.75h0c-.25.16-.48.35-.69.55-.16.2-.09.32.09.44h0Z"/><path class="cls-15" d="m145.11,96.42c.12.11.18.27.16.43,0,.02-.03.02-.05,0-.08-.09-.15-.2-.24-.29h0s-.09-.08-.15-.11c-.07-.03-.12-.08-.15-.14,0-.03-.02-.08,0-.1.15-.09.32.09.42.2h0Z"/><path class="cls-15" d="m145.38,96.25c.11.11.16.26.14.41v.05s-.07.03-.1,0v-.02s-.08-.06-.11-.1c-.04-.05-.08-.1-.13-.14-.04-.04-.09-.08-.14-.12-.06-.03-.11-.09-.14-.15-.02-.06-.02-.12.04-.15.17-.07.33.1.44.23h0Z"/><path class="cls-15" d="m145.69,96.01c.08.14.13.3.15.46.01.06-.07.08-.1.03h0c-.06-.11-.14-.21-.22-.31-.08-.09-.17-.16-.28-.22-.13-.08-.1-.28.07-.25h0c.16.04.3.15.38.3h0Z"/><path class="cls-15" d="m145.52,95.49c.15,0,.29.08.39.2.05.05.08.12.1.19.02.07,0,.14-.03.21-.02.04-.07.03-.08-.01-.02-.04-.04-.09-.07-.13-.02-.04-.05-.07-.08-.1-.07-.05-.14-.09-.22-.1-.12-.04-.16-.24,0-.25h0Z"/><path class="cls-15" d="m145.83,92.67c.17.51.29,1.03.38,1.56.13.44.13.92,0,1.36,0,.02-.02.03-.04.03-.02,0-.03-.01-.04-.03-.11-.41-.17-.84-.17-1.27-.09-.53-.2-1.05-.36-1.56-.04-.16.17-.24.23-.09h0Z"/><path class="cls-15" d="m145.45,92.74c-.35.38-.08.85.03,1.27.16.45.2.93.1,1.39-.01.05-.08.03-.09-.01-.12-.66-.26-1.28-.41-1.94-.07-.33-.07-.72.3-.88.1-.04.15.09.07.17h0Z"/><path class="cls-15" d="m141.09,99.83c.75-.54,1.51-1.1,2.27-1.57.56-.22,1.04-.62,1.36-1.13.02-.05-.03-.07-.07-.03-.53.49-1.13.89-1.77,1.21-.63.42-1.31.88-1.97,1.35.06.06.13.11.18.17h0Z"/><path class="cls-15" d="m135.35,103.88c.8-.41,1.56-.91,2.26-1.49.95-.69,1.92-1.45,2.88-2.13-.06-.06-.12-.12-.19-.18l-.05.04c-.92.65-1.88,1.4-2.79,2.06-.7.54-1.43,1.04-2.19,1.49-.17.1-.11.29.08.21h0Z"/><path class="cls-15" d="m135.89,105.51c-.78-.37-1.38-1.03-1.67-1.85-.24-.37-.42-.78-.55-1.2-.07-.35.25-.65.46-.88,1.37-1.51,2.8-3,4.24-4.43h0s0-.01,0-.02-.01,0-.02,0c-.94.84-1.9,1.64-2.8,2.53-.46.45-.91.9-1.34,1.37h0c-.29.26-.54.56-.75.89-.35.7.25,1.7.59,2.29h0c.31.8.97,1.41,1.79,1.64.19.02.22-.27.05-.32h0Z"/><path class="cls-15" d="m143.65,102.64c-.23-.12-.48-.19-.72-.31h0c-.25-.14-.49-.31-.71-.5-.64-.52-1.22-1.11-1.73-1.75-.53-.6-.97-1.26-1.33-1.97-.29-.58-.46-1.22-.5-1.87,0-.07-.1-.08-.12-.02h0c-.13.6-.05,1.23.23,1.78.33.8.8,1.54,1.37,2.19.55.71,1.19,1.36,1.89,1.93.18.15.37.29.56.42-.46.14-.9.37-1.33.56-.56.24-1.12.49-1.67.76-.55.27-1.08.55-1.64.81h0c-.55.21-1.08.47-1.59.76-.05.03-.07.09-.05.14.02.05.08.09.13.07.53-.14,1.03-.35,1.51-.61.58-.26,1.14-.56,1.7-.86.54-.29,1.08-.55,1.64-.81h0c.49-.2.97-.45,1.41-.74.27.17.6.24.92.18.03,0,.05-.03.06-.07,0-.03,0-.06-.04-.08h0Z"/><path class="cls-15" d="m144.02,102.6h0s0,0,0,0c.02-.03.03-.07.03-.1,0-.04.03-.08.05-.11l.03-.05c.07-.06.12-.15.13-.24,0-.04,0-.08-.04-.11s-.08-.03-.11-.01c-.09.07-.19.11-.31.12-.11,0-.22-.02-.32-.08-.24-.13-.46-.28-.66-.47-.49-.41-.94-.86-1.36-1.34-.63-.71-1.15-1.5-1.56-2.35-.27-.56-1.25-2.37.08-2.29.02,0,.04-.03.01-.04h0c-.19-.1-.4-.13-.61-.08h-.04s0,0,0,0h0s-.01,0-.01,0c-.12.05-.23.12-.36.16-.11.04-.29.04-.37.12h0s-.05.12,0,.17c.1.12.3.05.43-.02-.04.14-.04.3-.02.44-.07,0-.14.02-.2.07-.03.03-.04.07-.02.1.01.04.05.06.09.06.06,0,.12,0,.17-.03.03.1.06.19.09.29h-.06s-.05.03-.05.03c-.02,0-.05.02-.07.03-.04.02-.05.06-.04.1,0,.04.05.07.09.07.03,0,.05,0,.08,0h.05s.09-.03.09-.03c.06.15.12.29.19.44-.1.04-.19.14-.26.18-.03.02-.02.08.02.07h0c.08,0,.15-.02.23-.03.04,0,.07-.02.1-.03.09.18.18.36.27.53l-.08.03h0s-.06.02-.09.04c-.02.02-.04.04-.06.06-.02.02-.02.04-.02.06,0,.02.02.04.04.05l.08.02s.07,0,.1-.01c.05-.01.09-.03.13-.05.12.2.24.4.36.6h0c-.06.04-.12.08-.19.11-.05.02-.06.11.01.11h0c.1,0,.19-.02.29-.04.14.2.28.4.42.6l-.02.02s-.04.03-.05.05c-.02.03-.01.04-.03.06-.03.03,0,.07.03.06h.02c.06.02.12.01.18-.02l.03.04c.47.59.98,1.13,1.55,1.62-.05.03-.09.07-.11.13-.03.07.05.13.12.12.07-.01.12-.05.16-.11.08.07.17.14.25.21.27.22.59.38.93.46-.03.07-.02.16.04.22.02.03.05.04.08.04.03,0,.06-.03.06-.05h0Z"/><path class="cls-15" d="m144.42,101.68c.26-.17.47-.42.58-.72.12-.29.15-.61.08-.92-.07-.86-.35-1.69-.8-2.42l-.03-.05c-.07.07-.14.13-.22.19-.02.02-.04.03-.07.05.34.56.57,1.18.68,1.82.16.65.01,1.34-.4,1.87-.08.1.06.22.16.17h0Z"/><path class="cls-15" d="m140.42,95.39c.3.07.61.03.91.08.4.09.77.27,1.08.52.45.34.85.75,1.16,1.22l.06-.04c-.07.05.02-.02.03-.03l.07-.07.1-.1c-.82-1.07-2.07-2.08-3.41-1.65-.03.01-.04.06,0,.07h0Z"/><path class="cls-15" d="m143.82,98.69c.18-.03.15-.24.11-.38h0s-.03-.04-.05-.03c-.02,0-.04.02-.04.04-.04.27-.13.17-.27.03-.09-.1-.18-.2-.25-.31-.23-.25-.39-.55-.47-.88.16.04.29.14.38.28.04-.07.09-.12.16-.15h.03s0-.01,0-.01c-.17-.22-.41-.35-.68-.38-.06,0-.11.04-.12.09-.12.52.44,1.06.76,1.42.09.1.27.32.44.29h0Z"/><path class="cls-15" d="m142.4,97.99c-.5-.94-1.26-1.7-2.2-2.21v.02c.31.39.73.71,1.09,1.08h0c.37.37.71.76,1.03,1.16.03.04.1,0,.07-.05h0Z"/><path class="cls-15" d="m144.11,101.66c.12-.63-.37-1.29-.59-1.84h0c.1.32.18.65.25.97.04.3.12.6.23.88.03.05.11.05.12-.01h0Z"/><path class="cls-15" d="m138.88,96.95h0s0,0,0,0Z"/><path class="cls-15" d="m135.3,102.96s.06-.08.09-.11c.04-.04.09-.06.14-.08-.3-.42-.74-.99-1.28-.81-.04.01-.05.08,0,.09.46.15.84.48,1.05.91h0Z"/><path class="cls-15" d="m136.37,104.77c.12-.49-.03-1.01-.38-1.37-.05.07-.11.14-.17.2-.01.01-.03.02-.04.03.27.33.46.72.54,1.13,0,.04.05.03.06,0h0Z"/><path class="cls-12" d="m163.82,93.27s.06-.07.09-.1c.03-.03.07-.05.11-.08.04-.02.08-.04.12-.05.04-.01.08-.02.13-.03.17-.02.35.02.49.13.03.03.07.06.1.09.03.03.05.07.08.11.02.04.04.08.06.12.01.04.02.08.03.13s0,.09,0,.13c0,.04,0,.09-.02.13-.01.04-.03.08-.04.12-.04.08-.09.15-.16.21-.03.03-.07.05-.11.08-.04.02-.08.04-.12.05-.04.01-.08.02-.13.03-.04,0-.09,0-.13,0-.04,0-.09-.01-.13-.02-.04-.01-.08-.03-.12-.04-.04-.02-.08-.04-.11-.07-.14-.11-.23-.27-.26-.44,0-.04,0-.09,0-.13,0-.04.01-.09.02-.13.01-.04.03-.08.05-.12.02-.04.04-.08.07-.11Z"/><path class="cls-12" d="m163.81,88.25c.11-.14.27-.23.44-.26.17-.02.35.02.49.13.03.03.07.06.1.09.03.03.05.07.08.11.02.04.04.08.05.12.01.04.02.08.03.13.02.17-.02.35-.13.49s-.27.23-.44.26c-.04,0-.09,0-.13,0-.04,0-.09-.01-.13-.02-.04-.01-.08-.03-.12-.05-.04-.02-.08-.04-.11-.07-.14-.11-.23-.27-.26-.44-.02-.17.02-.35.13-.49Z"/><path class="cls-12" d="m161,100.79c.11-.14.27-.23.44-.26.04,0,.09,0,.13,0,.04,0,.09,0,.13.02.04.01.08.03.12.05.04.02.08.04.11.07s.07.06.1.09c.03.03.05.07.08.1.02.04.04.08.05.12.01.04.02.08.03.13.02.17-.02.35-.13.49s-.27.23-.44.26c-.04,0-.09,0-.13,0-.04,0-.09,0-.13-.02-.04-.01-.08-.03-.12-.05-.04-.02-.08-.04-.11-.07s-.07-.06-.1-.09c-.03-.03-.05-.07-.08-.11-.02-.04-.04-.08-.05-.12-.01-.04-.02-.08-.03-.13,0-.04,0-.09,0-.13,0-.04.01-.09.02-.13.01-.04.03-.08.05-.12.02-.04.04-.08.07-.11Z"/><path class="cls-12" d="m156.24,97.29c.11-.14.27-.23.44-.26.04,0,.09,0,.13,0,.04,0,.09.01.13.02.04.01.08.03.12.05.04.02.08.04.11.07s.07.06.1.09c.03.03.05.07.08.11.02.04.04.08.05.12.01.04.02.08.03.13,0,.04,0,.09,0,.13,0,.04-.01.09-.02.13-.01.04-.03.08-.05.12-.1.2-.29.34-.51.37-.04,0-.09,0-.13,0-.04,0-.09,0-.13-.02-.04-.01-.08-.03-.12-.04-.04-.02-.08-.04-.11-.07s-.07-.06-.1-.09c-.03-.03-.05-.07-.08-.11-.02-.04-.04-.08-.05-.12-.01-.04-.02-.08-.03-.13,0-.04,0-.09,0-.13,0-.04.01-.09.02-.13.01-.04.03-.08.04-.12.02-.04.04-.08.07-.11Z"/><path class="cls-12" d="m153.92,110.8s.06-.07.09-.1c.03-.03.07-.05.11-.08.04-.02.08-.04.12-.05.04-.01.08-.02.13-.03.04,0,.09,0,.13,0,.04,0,.09.01.13.02.04.01.08.03.12.04.04.02.08.04.11.07s.07.06.1.09c.03.03.05.07.08.11.02.04.04.08.05.12.01.04.02.08.03.13.03.22-.05.44-.22.59-.03.03-.07.05-.11.08-.04.02-.08.04-.12.05-.04.01-.08.02-.13.03-.04,0-.09,0-.13,0-.04,0-.09,0-.13-.02-.04-.01-.08-.03-.12-.05-.04-.02-.08-.04-.11-.07s-.07-.06-.1-.09c-.03-.03-.05-.07-.08-.11-.02-.04-.04-.08-.05-.12-.01-.04-.02-.08-.03-.13-.02-.17.02-.35.13-.49Z"/><path class="cls-12" d="m148.6,107.57s.06-.07.09-.1c.03-.03.07-.05.11-.08.04-.02.08-.04.12-.05.04-.01.08-.02.13-.03.04,0,.09,0,.13,0,.04,0,.09.01.13.02.04.01.08.03.12.05.04.02.08.04.11.07s.07.06.1.09c.03.03.05.07.08.11.02.04.04.08.05.12.01.04.02.08.03.13,0,.04,0,.09,0,.13,0,.04-.01.09-.02.13-.01.04-.03.08-.05.12-.04.08-.09.15-.16.21-.03.03-.07.05-.11.08-.04.02-.08.04-.12.05-.04.01-.08.02-.13.03-.04,0-.09,0-.13,0-.04,0-.09,0-.13-.02-.04-.01-.08-.03-.12-.05-.04-.02-.08-.04-.11-.07s-.07-.06-.1-.09c-.03-.03-.05-.07-.08-.11-.02-.04-.04-.08-.05-.12-.01-.04-.02-.08-.03-.13-.02-.17.02-.35.13-.49Z"/><path class="cls-12" d="m172.09,88.36s.06-.02.05.01c-.13.74-.34,1.46-.62,2.15-.3.46-.79.75-1.34.79h0c-.37.08-.74.17-1.12.21-.39.04-.79.04-1.18,0-.43-.05-.82-.25-1.11-.57.06.24.04.49-.05.72-.19.23-.45.39-.74.46h0c-.28.11-.54.29-.83.1h0c-.26-.17-.3-.54-.33-.82l-.3-.28c.03.13.06.25.1.37.03.13.05.26.04.39.01.19-.06.38-.19.51-.16.12-.37.17-.57.12-.08-.02-.15-.05-.22-.1h0s-.09-.09-.14-.1c-.11-.04-.16,0-.25.04h0c-.1.04-.22-.05-.14-.15l-.23-.03s.02.04.01.06c-.13.26-.34.48-.59.63-.27.2-.55.38-.84.55-.19.14-.43.2-.67.16-.24-.03-.45-.15-.6-.33h-.03c-.46-.27-.78-.71-.87-1.23h0s.03-.54.03-.54c-.51.04-1.02-.16-1.37-.54-.16-.14-.27-.33-.31-.54h0c-.02-.07,0-.15.04-.2.04-.06.11-.09.18-.1v-.13s0,0,0,0c-.04.04-.1,0-.08-.05.18-.37.42-.71.72-.99.3-.36.5-.69.8-1.04.15-.23.36-.41.61-.52.25-.11.53-.15.79-.1l-.3-.21s-.05-.05-.05-.08h0c.02-.13.11-.24.24-.26.12-.04.25-.05.38-.05l.17-.33s.02-.04.05-.05c1.26-.05,2.52-.09,3.78-.02.31.02.63.03.94.05.16-.02.33.02.46.11.3.3.44.72.38,1.14,0,0,.37.27.36.21-.04-.59.07-1.19.3-1.74.09-.19.29-.21.47-.28.26-.13.55-.2.84-.2.04,0,.07.03.08.06l.51.26h0s0-.06.03-.05c.33.08.65.21.95.37.22.09.45.15.69.16.05,0,.11,0,.16,0,.02-.03.04-.06.06-.09.3-.2.63-.34.98-.42.02-.01.05,0,.06.02.01.02,0,.05-.02.07h0"/><path class="cls-12" d="m172.19,88.1s.01.03.02.04c.09.05.2.07.3.03.11-.03.22-.08.32-.14l.03-.04c.17-.16.23-.4.18-.63-.01-.41-.16-.81-.41-1.14-.05-.08-.13-.13-.22-.14h-.13s-.24,2.1-.24,2.1l.15-.08Z"/><path class="cls-15" d="m169.38,85.9c.34.27.72.49,1.12.67.2.08.41.11.62.09,0,.13,0,.26.02.38.02.25.11.5.27.7.15.2.36.36.6.45.03,0,.03-.03.01-.05h0c-.38-.28-.62-.71-.64-1.18-.04-.24-.04-.41.16-.57.23-.18.53-.24.76-.41h0s.03-.04.02-.07c-.01-.02-.04-.03-.06-.02-.35.07-.68.22-.98.42-.03.03-.05.06-.06.09-.05,0-.11,0-.16,0-.24-.01-.47-.07-.69-.16-.3-.17-.62-.29-.95-.37-.03,0-.06.03-.03.05h0Z"/><path class="cls-15" d="m165.16,92.25c.29.19.55.02.83-.1h0c.29-.07.55-.23.74-.46.09-.23.11-.48.05-.72.29.32.68.52,1.11.57.39.04.79.04,1.18,0,.38-.05.75-.13,1.12-.21h0c.55-.04,1.04-.33,1.34-.79.28-.69.49-1.42.62-2.15,0-.03-.04-.04-.05-.01-.13.33-.3.64-.44.97-.1.24-.17.47-.26.72h0c-.06.3-.23.58-.48.77-.25.13-.51.22-.78.27-.27.09-.55.15-.83.18-.35.02-.71-.01-1.05-.03h0c-.28.01-.57-.03-.83-.12-.29-.16-.55-.38-.75-.64-.02-.03-.07-.04-.1-.03s-.06.05-.06.09c.02.23.03.46.03.69-.01.13-.07.26-.15.37-.08.11-.19.19-.32.24-.19.1-.4.28-.64.23-.34-.07-.4-.38-.47-.67-.02-.1-.15-.09-.14.01.04.29.07.65.33.82h0Z"/><path class="cls-15" d="m163.3,92.38c.1-.04.15-.08.25-.04.05.02.09.08.14.1h0c.07.05.14.08.22.1.2.05.41,0,.57-.12.14-.13.21-.32.19-.51,0-.13-.01-.26-.04-.39-.04-.12-.08-.25-.1-.37,0-.04-.05-.05-.06-.01-.02.09-.05.15-.07.25h0c-.01.1-.01.21,0,.31.01.26.02.55-.29.6-.21.03-.34-.18-.52-.22-.16-.05-.33.02-.42.16-.08.11.04.2.14.15h0Z"/><path class="cls-15" d="m159.33,92.04c.1.52.42.96.87,1.22h.03c.15.19.37.31.6.34.24.03.48-.03.67-.16.29-.16.57-.35.84-.55.25-.15.45-.37.59-.63,0-.02,0-.04-.01-.06-.02-.01-.04-.02-.06,0-.41.25-.79.53-1.19.8h0c-.29.27-.7.38-1.08.27.32-.1.6-.29.81-.55.03-.04-.01-.07-.05-.05-.34.17-.66.43-1.07.32h0c-.21-.07-.39-.2-.53-.37-.14-.17-.23-.38-.26-.59-.04-.18-.22-.16-.18.02h0Z"/><path class="cls-15" d="m157.68,90.42c.03.21.14.4.31.54.35.38.85.58,1.37.54.05,0,.04-.07,0-.09-.36-.14-.7-.32-1.02-.54-.12-.09-.22-.2-.3-.32-.07-.12-.04-.24-.06-.37h0s-.04-.06-.07-.06c-.07,0-.14.04-.18.1-.04.06-.06.13-.04.2h0Z"/><path class="cls-15" d="m157.91,89.99c.54-.49,1.04-1.04,1.48-1.62.29-.5.78-.85,1.35-.95.08,0,.1-.12.02-.13-.27-.04-.54,0-.79.1-.25.11-.46.29-.61.52-.3.35-.5.68-.8,1.04-.3.29-.54.62-.72.99-.02.05.04.09.08.05h0Z"/><path class="cls-15" d="m161.32,87.48c.65.25,1.28.53,1.9.85.45.21.91.39,1.38.55.1.04.22-.06.15-.16-.29-.43-.85-.47-1.28-.59-.75-.22-1.4-.48-2.14-.68-.02,0-.03.03,0,.04h0Z"/><path class="cls-15" d="m161.23,86.4c.42.11.86.16,1.29.15.57,0,1.12,0,1.68.02.47.02.92.06,1.41.08.24.01.49-.07.71.14h0c.19.23.32.5.39.78.02.06.09.07.09,0,.06-.42-.08-.84-.38-1.14-.14-.09-.3-.12-.46-.11-.32-.02-.63-.03-.94-.05-1.26-.06-2.52-.03-3.78.02-.02,0-.04.02-.05.05,0,.02.01.05.03.06h0Z"/><path class="cls-15" d="m160.41,86.98s.02.07.05.08c.03.02.07.02.1,0,.04-.03.08-.05.12-.09.04-.02.09-.04.13-.06.09-.04.18-.09.25-.16.02-.01.02-.04.01-.06,0-.02-.03-.03-.05-.03-.13,0-.25.01-.38.05-.13.03-.22.14-.24.26h0Z"/><path class="cls-15" d="m167.17,87.78c0,.06.08.05.09,0,.06-.36.14-.71.26-1.05.07-.19.17-.37.23-.56.38-.1.74-.25,1.08-.45.03-.02.05-.06.04-.09,0-.04-.04-.06-.08-.06-.29,0-.58.07-.84.2-.18.07-.38.09-.47.28-.24.55-.34,1.14-.3,1.74h0Z"/><path class="cls-15" d="m168.92,86.42c.08-.05.13.2.14.23h0c.02.16.03.32.01.48-.01.28-.08.53-.07.81.02.43.09.86.21,1.28.06.24.2.63.06.9-.02.04,0,.08.03.07.33-.06.23-.56.2-.75-.12-.58-.17-1.18-.18-1.77.08-.4.07-.82-.04-1.21-.08-.2-.39-.34-.49-.08-.03.06.06.09.12.05h0Z"/><path class="cls-15" d="m168.49,89.44c.05.26.11.52.19.77.08.2.09.41.04.62,0,.02,0,.03,0,.04.04.04.1.05.15.04.05-.02.09-.06.11-.11.05-.22.03-.46-.05-.67-.11-.43-.2-.88-.25-1.32-.05-.56.04-1.1.01-1.65h0c0-.05-.05-.1-.1-.1-.05,0-.1.04-.1.09-.02.38,0,.79-.02,1.17-.03.37-.02.75.02,1.12h0Z"/><path class="cls-15" d="m167.76,88.45c0,.17.21.2.24.04h0c.02-.16.01-.32-.02-.48-.04-.19-.07-.38-.08-.57,0-.02-.03-.03-.04-.01-.05.16-.08.32-.1.48,0,.17-.01.37,0,.54h0Z"/><path class="cls-15" d="m166.95,88.89s.03.01.04,0c.01,0,.03-.02.03-.03.02-.1.02-.2,0-.29,0-.12,0-.24,0-.36,0-.06-.03-.12-.09-.15h-.04c-.09,0-.14.02-.16.12h0c-.04.13-.04.26,0,.39.04.13.11.24.21.33h0Z"/><path class="cls-15" d="m162.09,88.19c.36.27.73.51,1.07.8h0c.23.21.49.37.77.49.17.04.33.12.46.24.11.13.2.28.29.42.16.29.35.56.56.81.03.03.06-.01.04-.05h0c-.17-.62-.52-1.19-.99-1.63-.18-.12-.39-.11-.56-.23-.13-.09-.25-.19-.39-.26-.4-.22-.82-.4-1.22-.63-.02-.01-.04.01-.02.03h0Z"/><path class="cls-15" d="m160.73,91.9c.24.08.5.08.73,0,.21-.02.41-.13.54-.29.03-.04,0-.08-.05-.08-.21,0-.41.04-.61.1-.21,0-.42.05-.62.13-.03.02-.05.05-.05.08,0,.03.02.06.05.08h0Z"/><path class="cls-15" d="m159.73,91.12c.17,0,.33-.07.45-.19.16-.11.3-.23.45-.35.02-.02.03-.05.02-.09,0-.03-.03-.06-.06-.07-.21-.07-.36.04-.5.18-.07.07-.14.15-.21.22-.07.07-.13.15-.18.24-.01.02,0,.06.02.06h0Z"/><path class="cls-15" d="m170.16,89.53c.1.18.23.34.38.48.08.08.16.16.23.25.04.07.08.13.14.18.01,0,.03.01.04,0,.01,0,.03-.01.03-.02.09-.17-.1-.36-.19-.46-.17-.18-.34-.35-.53-.5-.05-.04-.14,0-.11.07h0Z"/><path class="cls-15" d="m172.05,86.67c.05.46.24.89.56,1.24l-.13.03c-.1.01-.2.05-.28.12-.01.01-.02.03-.02.05,0,.02.01.03.02.04.09.05.2.07.3.03.11-.03.22-.08.32-.14l.03-.04c.17-.16.23-.4.18-.63-.01-.41-.16-.81-.41-1.14-.05-.08-.13-.13-.22-.14-.09-.02-.18,0-.25.06-.16.13-.13.34-.1.53h0Zm.19-.22c.15-.29.34-.02.43.2.18.36.22.77.12,1.16-.25-.23-.42-.54-.48-.88-.04-.15-.14-.36-.07-.49h0Z"/><path class="cls-15" d="m161.68,87.76s-.05-.02-.07-.01-.04.02-.05.05c-.04.07-.05.15-.09.21,0,0,0,.05-.02.06-.02.01-.15-.05-.16-.06-.04-.02-.08,0-.1.04-.03.06-.05.14-.05.21-.06-.02-.11-.04-.17-.05-.04,0-.08.02-.09.07,0,.07,0,.15,0,.22-.09-.02-.18-.03-.27-.03-.03,0-.05.02-.06.05-.02.09-.02.19,0,.28-.08-.05-.18-.06-.27-.04-.04,0-.06.03-.07.07,0,.08-.02.15-.02.23-.06-.02-.11-.04-.17-.06-.04-.01-.09,0-.1.04-.02.08-.02.16-.02.24-.04-.01-.07-.03-.11-.04h0s-.05,0-.07.01-.03.04-.03.07c.04.23.23.31.36.49h0s.02.01.03,0c0,0,.01-.02,0-.03-.06-.12-.15-.23-.21-.36.02,0,.04.02.06.02h0s.05,0,.06,0c.02-.01.03-.03.04-.05,0-.08.01-.16.01-.23.06.02.12.04.18.06.02,0,.05,0,.07,0,.02-.01.03-.03.04-.05,0-.09.01-.18.03-.27.08,0,.15.03.21.07.04.02.08,0,.1-.04.02-.06.03-.12.03-.19.02-.15.11-.1.25-.09.04,0,.08-.02.08-.06,0-.07,0-.14,0-.21.05.02.1.03.15.06.02,0,.05,0,.07,0,.02-.01.03-.03.04-.06,0-.06,0-.13.02-.19.07.04.16.05.24.01.06-.07.1-.15.12-.25.05.03.1.06.15.08.03.01.06,0,.08-.01.02-.02.03-.05.03-.08-.05-.19.09-.15.22-.11.02,0,.05,0,.07,0,.02-.01.04-.03.04-.06.02-.11.02-.21.05-.31.08.06.15.12.23.17.01,0,.03,0,.04,0,.01-.01.01-.03,0-.04-.07-.11-.16-.21-.27-.28-.02-.01-.04-.02-.06-.01-.02,0-.04.02-.04.04-.04.11-.07.22-.09.33"/><path class="cls-15" d="m85.39,121.28c-.06.06-.08.15-.07.24v.14c.02.09.06.17.13.22.07.05.15.08.24.07l3.08-.31.08.05s.07.03.11.03c.01.02.03.03.04.04l.08.05s.03.02.04.02c.01.04.03.07.06.1l.07.06s.03.02.05.03c0,.03.03.07.06.09l.07.06s.08.05.12.05l5.03,4.66c.13.12.34.11.46-.02l.09-.1c.12-.13.11-.34-.02-.46l-5.02-4.65s0,0,0,0c0-.04-.03-.08-.06-.11l-.07-.06s-.05-.04-.08-.05c0-.04-.03-.08-.07-.11l-.07-.06s-.05-.03-.08-.04c0-.05-.03-.09-.07-.12l-.08-.05s-.09-.04-.14-.03c-.01-.03-.04-.05-.07-.07l-.08-.05s-.1-.04-.15-.02c-.01,0-.02,0-.03.01-.06-.04-.12-.05-.19-.04l-3.24.32c-.08.01-.15.05-.21.1,0,0,0,0-.01.02h0Zm4.45.75l.09-.1,4.97,4.61-.09.1-4.97-4.61Zm-.33-.07l.21-.22.12-.13.07.06-.33.35-.06-.05h-.01Zm-.19-.19l.22-.26.09-.11.07.06-.12.15-.18.22h-.01s-.04-.05-.04-.05h-.01Zm-.19-.18l.08-.12.19-.27.08.05-.11.16-.16.23h-.02s-.05-.05-.05-.05h0Zm-.25-.13l.25-.41.08.05-.14.23-.11.18h-.01s-.07-.05-.07-.05Zm-3.23.02l3.19-.32-.08.14-3.09.31-.02-.14Z"/><path class="cls-15" d="m42.92,119.62c.01-.08,0-.17-.06-.24l-.08-.11c-.05-.07-.13-.12-.21-.13-.08-.01-.17,0-.24.06l-2.5,1.84h-.09s-.08,0-.11.03c-.02,0-.04-.01-.06-.02h-.09s-.03,0-.05,0c-.03-.03-.07-.05-.11-.05h-.09s-.04-.02-.06-.01c-.03-.03-.06-.04-.1-.05l-.09-.02s-.09,0-.13.02l-6.7-1.44c-.17-.04-.35.07-.39.25l-.03.13c-.04.18.07.35.25.39l6.69,1.44s0,0,.01,0c.03.03.06.06.11.06l.09.02s.06,0,.09,0c.03.03.07.06.12.06h.09s.06.02.09,0c.03.04.07.06.12.06h.09s.1,0,.14-.04c.03.02.06.03.09.03h.09c.05,0,.1-.02.14-.05,0,0,.02-.02.02-.03.07,0,.13-.02.19-.06l2.62-1.93c.06-.05.11-.12.13-.2,0,0,0-.01,0-.02h0Zm-4.21,1.62l-.03.13-6.63-1.43.03-.13,6.63,1.43Zm.32-.11l-.07.3-.04.17-.09-.02.1-.47.08.02h.02Zm.26.07l-.05.34-.02.14h-.09s.03-.2.03-.2l.04-.28h.02s.06.01.06.01h.02Zm.26.05v.15s-.03.33-.03.33h-.09s.01-.2.01-.2l.02-.29h.02s.06,0,.06,0h0Zm.28-.01v.48s-.1,0-.1,0v-.27s0-.21,0-.21h.01s.08,0,.08,0Zm2.77-1.67l-2.58,1.9v-.17s2.49-1.84,2.49-1.84l.08.11Z"/><path class="cls-13" d="m259.76,118.8c-1.06.42-2.02.76-3.02.75-1.09-.01-2.03-.52-2.41-1.3-.05-.11-.16-.18-.29-.19-.12,0-.24.05-.3.16-.49.77-1.38,1.28-2.29,1.3-.9.03-1.83-.43-2.36-1.17-.1-.15-.3-.18-.46-.09-.75.47-1.74,1.02-2.78,1.09-1.02.07-1.99-.41-2.37-1.16-.05-.1-.15-.17-.26-.18-.11-.01-.22.03-.3.12-.64.74-1.6,1.21-2.57,1.24-.98.03-1.97-.36-2.65-1.06-.13-.13-.33-.14-.46-.02-.66.57-1.55.91-2.37.91h0c-.88,0-1.75-.39-2.34-1.03-.07-.07-.16-.11-.26-.11-.1,0-.19.05-.25.12-.55.65-1.42,1.04-2.28,1-.85-.04-1.69-.49-2.19-1.19-.06-.09-.17-.15-.28-.14-.11,0-.21.06-.28.15-.49.73-1.33,1.19-2.21,1.21-.88.02-1.74-.41-2.25-1.12-.06-.09-.16-.14-.27-.14-.11,0-.21.05-.27.13-.6.77-1.58,1.25-2.56,1.24-.98-.01-1.95-.51-2.53-1.3-.06-.09-.16-.14-.27-.14-.11,0-.21.05-.27.13-.5.65-1.32,1.05-2.14,1.06-.82,0-1.64-.38-2.16-1.02-.06-.08-.16-.12-.26-.13-.1,0-.2.04-.26.12-.99,1.17-2.79,1.58-4.19.95-.17-.08-.37,0-.45.17-.08.17,0,.37.17.45,1.55.7,3.51.33,4.73-.85.63.62,1.51.98,2.4.98.01,0,.02,0,.03,0,.89,0,1.76-.38,2.39-1.01.71.77,1.75,1.24,2.8,1.25,1.04,0,2.1-.43,2.83-1.19.65.69,1.59,1.09,2.55,1.07.94-.02,1.86-.45,2.48-1.15.62.66,1.52,1.09,2.43,1.12.94.04,1.89-.33,2.57-.97.7.63,1.64,1,2.58,1h0c.88,0,1.83-.33,2.58-.88.8.7,1.88,1.09,2.94,1.05,1.01-.04,2.01-.46,2.75-1.15.66.86,1.82,1.2,2.77,1.13,1.07-.07,2.06-.56,2.84-1.04.68.78,1.7,1.23,2.73,1.2.97-.03,1.9-.48,2.53-1.2.59.75,1.6,1.22,2.73,1.24.02,0,.04,0,.06,0,1.09,0,2.1-.36,3.21-.8.17-.07.26-.26.19-.44-.07-.17-.26-.26-.44-.19Z"/><path class="cls-13" d="m278.29,111.29c-1.06.42-2.02.76-3.02.75-1.09-.01-2.03-.52-2.41-1.3-.05-.11-.16-.18-.29-.19-.12,0-.24.05-.3.16-.49.77-1.38,1.28-2.29,1.3-.9.03-1.83-.43-2.36-1.17-.1-.15-.3-.18-.46-.09-.75.47-1.74,1.02-2.78,1.09-1.02.07-1.99-.41-2.37-1.16-.05-.1-.15-.17-.26-.18-.11-.01-.22.03-.3.12-.64.74-1.6,1.21-2.57,1.24-.98.03-1.97-.36-2.65-1.06-.13-.13-.33-.14-.46-.02-.66.57-1.55.91-2.37.91h0c-.88,0-1.75-.39-2.34-1.03-.07-.07-.16-.11-.26-.11-.1,0-.19.05-.25.12-.55.65-1.42,1.04-2.28,1-.85-.04-1.69-.49-2.19-1.19-.06-.09-.17-.15-.28-.14-.11,0-.21.06-.28.15-.49.73-1.33,1.19-2.21,1.21-.88.02-1.74-.41-2.25-1.12-.06-.09-.16-.14-.27-.14-.11,0-.21.05-.27.13-.6.77-1.58,1.25-2.56,1.24-.98-.01-1.95-.51-2.53-1.3-.06-.09-.16-.14-.27-.14-.11,0-.21.05-.27.13-.5.65-1.32,1.05-2.14,1.06-.82,0-.92.68-.02.68.01,0,.02,0,.03,0,.89,0,1.76-.38,2.39-1.01.71.77,1.75,1.24,2.8,1.25,1.04,0,2.1-.43,2.83-1.19.65.69,1.59,1.09,2.55,1.07.94-.02,1.86-.45,2.48-1.15.62.66,1.52,1.09,2.43,1.12.94.04,1.89-.33,2.57-.97.7.63,1.64,1,2.58,1h0c.88,0,1.83-.33,2.58-.88.8.7,1.88,1.09,2.94,1.05,1.01-.04,2.01-.46,2.75-1.15.66.86,1.82,1.2,2.77,1.13,1.07-.07,2.06-.56,2.84-1.04.68.78,1.7,1.23,2.73,1.2.97-.03,1.9-.48,2.53-1.2.59.75,1.6,1.22,2.73,1.24.02,0,.04,0,.06,0,1.09,0,2.1-.36,3.21-.8.17-.07.26-.26.19-.44-.07-.17-.26-.26-.44-.19Z"/><path class="cls-12" d="m83.92,96.63c-.47.06-.81.5-.74.97s.5.81.97.74.81-.5.74-.97-.5-.81-.97-.74Z"/><path class="cls-12" d="m95.22,93.55s-.07,0-.1,0c-.03,0-.07,0-.1-.02-.03,0-.07-.02-.1-.04-.03-.02-.06-.03-.09-.05-.11-.08-.18-.21-.2-.34,0-.03,0-.07,0-.1,0-.03,0-.07.02-.1,0-.03.02-.07.04-.1.02-.03.03-.06.05-.09s.04-.05.07-.07c.03-.02.05-.04.08-.06.03-.02.06-.03.09-.04.07-.02.13-.03.2-.03.03,0,.07,0,.1.02.03,0,.06.02.1.04.03.01.06.03.09.05.03.02.05.04.07.07.02.03.04.05.06.08.02.03.03.06.04.09.01.03.02.07.02.1.02.14-.02.28-.1.38-.02.03-.04.05-.07.07-.03.02-.05.04-.08.06-.03.02-.06.03-.09.04-.03.01-.07.02-.1.02Z"/><path class="cls-12" d="m92.45,96.32c-.14.02-.28-.02-.38-.1-.11-.08-.18-.21-.2-.34,0-.03,0-.07,0-.1,0-.03,0-.07.02-.1,0-.03.02-.07.04-.1.01-.03.03-.06.05-.09.08-.11.21-.18.34-.2s.28.02.38.1c.03.02.05.04.07.07.02.03.04.05.06.08.02.03.03.06.04.09.01.03.02.07.02.1.02.14-.02.28-.1.38-.08.11-.21.18-.34.2Z"/><path class="cls-12" d="m84.55,93.84s-.07,0-.1,0c-.03,0-.07,0-.1-.02-.03,0-.06-.02-.1-.04-.03-.01-.06-.03-.09-.05-.11-.08-.18-.21-.2-.34,0-.03,0-.07,0-.1,0-.03,0-.07.02-.1,0-.03.02-.06.04-.1.01-.03.03-.06.05-.09.02-.03.04-.05.07-.07.03-.02.05-.04.08-.06.03-.02.06-.03.09-.04.06-.02.13-.03.2-.03.03,0,.07,0,.1.02.03,0,.06.02.1.04.03.01.06.03.09.05.03.02.05.04.07.07.02.03.04.05.06.08.02.03.03.06.04.09.01.03.02.07.02.1.02.14-.02.28-.1.38-.08.11-.21.18-.34.2Z"/><path class="cls-12" d="m100.93,90.95c-.14.02-.28-.02-.38-.1-.03-.02-.05-.04-.07-.07-.02-.03-.04-.05-.06-.08-.02-.03-.03-.06-.04-.09-.01-.03-.02-.07-.02-.1s0-.07,0-.1c0-.03,0-.07.02-.1,0-.03.02-.07.04-.1.01-.03.03-.06.05-.09.08-.11.21-.18.34-.2s.28.02.38.1c.03.02.05.04.07.07.02.03.04.05.06.08.02.03.03.06.04.09.01.03.02.07.02.1s0,.07,0,.1c0,.03,0,.07-.02.1,0,.03-.02.06-.04.1-.01.03-.03.06-.05.09-.02.03-.04.05-.07.07-.03.02-.05.04-.08.06-.03.02-.06.03-.09.04-.03.01-.07.02-.1.02Z"/><path class="cls-12" d="m101.63,95.51c-.14.02-.28-.02-.38-.1-.03-.02-.05-.04-.07-.07-.02-.03-.04-.05-.06-.08-.02-.03-.03-.06-.04-.09-.01-.03-.02-.07-.02-.1s0-.07,0-.1c0-.03,0-.07.02-.1,0-.03.02-.07.04-.1.01-.03.03-.06.05-.09.02-.03.04-.05.07-.07.03-.02.05-.04.08-.06.03-.02.06-.03.09-.04.16-.06.35-.02.48.08.03.02.05.04.07.07.02.03.04.05.06.08.02.03.03.06.04.09.01.03.02.07.02.1s0,.07,0,.1c0,.03,0,.07-.02.1,0,.03-.02.06-.04.1-.01.03-.03.06-.05.09-.02.03-.04.05-.07.07-.03.02-.05.04-.08.06-.03.02-.06.03-.09.04-.03.01-.07.02-.1.02Z"/><path class="cls-12" d="m110.37,89.33s-.07,0-.1,0c-.03,0-.07,0-.1-.02-.03,0-.06-.02-.1-.04-.03-.01-.06-.03-.09-.05-.03-.02-.05-.04-.07-.07-.02-.03-.04-.05-.06-.08-.02-.03-.03-.06-.04-.09-.01-.03-.02-.07-.02-.1s0-.07,0-.1c0-.03,0-.07.02-.1,0-.03.02-.06.04-.1.01-.03.03-.06.05-.09.1-.14.27-.22.45-.2.03,0,.07,0,.1.02.03,0,.06.02.1.04.03.01.06.03.09.05.03.02.05.04.07.07.02.03.04.05.06.08.02.03.03.06.04.09.01.03.02.07.02.1s0,.07,0,.1c0,.03,0,.07-.02.1,0,.03-.02.07-.04.1-.01.03-.03.06-.05.09-.08.11-.21.18-.34.2Z"/><path class="cls-12" d="m111.53,94.05s-.07,0-.1,0c-.03,0-.07,0-.1-.02-.03,0-.06-.02-.1-.04-.03-.01-.06-.03-.09-.05-.03-.02-.05-.04-.07-.07-.02-.03-.04-.05-.06-.08-.02-.03-.03-.06-.04-.09-.01-.03-.02-.07-.02-.1s0-.07,0-.1c0-.03,0-.07.02-.1,0-.03.02-.06.04-.1.01-.03.03-.06.05-.09.02-.03.04-.05.07-.07.03-.02.05-.04.08-.06.03-.02.06-.03.09-.04.06-.02.13-.03.2-.03.03,0,.07,0,.1.02.03,0,.07.02.1.04.03.01.06.03.09.05.03.02.05.04.07.07.02.03.04.05.06.08.02.03.03.06.04.09.01.03.02.07.02.1s0,.07,0,.1c0,.03,0,.07-.02.1,0,.03-.02.07-.04.1-.01.03-.03.06-.05.09-.08.11-.21.18-.34.2Z"/><path class="cls-15" d="m62.06,93.03c-.11-.42-.32-.85-.58-1.16l-5.4-7.25,6.72-5.13c0,1.22,0,2.7-.05,4.02-.05.95.42,1.91,1.22,2.49l5.66,4.08c.21.16.42.26.63.32,1.22.48,2.7.11,3.49-1,.95-1.32.63-3.18-.69-4.13l-4.39-3.18c.11-5.35-.16-6.3-.26-6.62-.16-.58-.85-2.65-2.12-4.39l-1.43-1.91c-.74-1-1.91-1.69-3.18-1.85-1.27-.11-2.54.26-3.49,1.11l-10.69,9.15c-.79.63-1.22,1.64-1.27,2.65l-.16,13.5-4.5,11.11c-.74,1.8.16,3.86,1.96,4.6s3.86-.16,4.6-1.96l4.76-11.75c.16-.42.26-.85.26-1.27v-2.01l2.22,3.02,3.12,11.38c.48,1.69,2.06,2.96,3.81,2.75,2.22-.21,3.6-2.38,3.07-4.45l-3.33-12.12Z"/><path class="cls-15" d="m73.95,59.59c3.42.79,5.54,4.21,4.75,7.62-.79,3.42-4.21,5.54-7.62,4.75-3.42-.79-5.54-4.21-4.75-7.62.79-3.42,4.21-5.54,7.62-4.75"/><path class="cls-12" d="m71.94,90.81s-.05-.02-.02-.04c.48-.33.99-.62,1.53-.85.42-.09.85.02,1.18.3h0c.25.16.5.32.74.5.24.19.46.41.65.65.21.26.32.59.3.93.1-.17.25-.3.43-.37.23-.03.46.03.66.15h0c.22.09.46.14.51.41h0c.05.24-.13.46-.27.64v.32c.07-.08.12-.17.16-.26.05-.09.12-.17.19-.24.1-.11.24-.18.39-.18.16.02.3.11.38.25.03.05.06.11.07.18h0s0,.1.02.14c.04.08.09.09.16.12h0c.08.03.09.15,0,.16l.11.14s0-.03.02-.04c.22-.07.45-.08.67-.02.26.04.52.09.77.16.18.03.35.13.46.28.11.15.17.33.15.52v.02c.12.4.05.82-.18,1.16h0s-.31.28-.31.28c.3.26.47.65.46,1.06.02.17-.03.33-.13.47h0s-.08.08-.14.09c-.06,0-.11-.01-.15-.05l-.07.08h0s.06.05.02.07c-.3.11-.63.16-.95.15-.37.04-.66.11-1.02.13-.21.04-.42.03-.62-.05-.2-.08-.37-.21-.5-.38l.05.28s0,.05-.02.07h0c-.08.06-.19.07-.28.01-.09-.05-.17-.11-.23-.18l-.27.09s-.04.01-.05,0c-.72-.67-1.44-1.34-2.1-2.07-.17-.18-.33-.36-.49-.55-.1-.08-.17-.19-.2-.31,0-.33.16-.64.42-.84,0,0-.05-.35-.08-.32-.31.35-.69.62-1.13.79-.15.06-.27-.05-.41-.11-.22-.07-.41-.2-.58-.36-.02-.02-.02-.05,0-.08l-.14-.43h0s-.03.03-.04.02c-.14-.23-.25-.47-.32-.73-.07-.17-.17-.33-.29-.47-.03-.03-.06-.06-.08-.1-.03,0-.06.01-.09.02-.27-.05-.54-.16-.77-.31-.02,0-.03-.03-.02-.05,0-.02.03-.03.05-.03h0"/><path class="cls-12" d="m71.74,90.91s.01-.02.01-.04c-.02-.08-.07-.15-.15-.18-.08-.05-.17-.08-.26-.1h-.03c-.18,0-.35.1-.45.26-.22.24-.36.54-.4.86-.02.07,0,.14.04.2l.07.07,1.29-1.03-.12-.04Z"/><path class="cls-15" d="m72.08,93.67c-.04-.34-.12-.67-.25-.99-.06-.15-.16-.29-.29-.39.07-.07.14-.14.2-.22.13-.15.21-.34.24-.53.03-.2,0-.4-.08-.58-.01-.02-.04,0-.03.02h0c.06.36-.05.73-.3,1.01-.11.16-.21.25-.4.23-.22-.03-.42-.16-.65-.19h0s-.04,0-.05.03c0,.02,0,.04.02.05.23.15.5.26.77.31.03,0,.06,0,.09-.02.03.03.05.07.08.1.12.14.22.3.29.47.07.26.18.5.32.73.01.02.05.01.04-.02h0Z"/><path class="cls-15" d="m77.92,92.5c-.05-.27-.29-.31-.51-.41h0c-.2-.12-.43-.18-.66-.15-.18.08-.33.21-.43.37.02-.33-.09-.66-.3-.93-.19-.24-.41-.46-.65-.65-.24-.19-.49-.34-.74-.5h0c-.32-.28-.76-.39-1.18-.3-.54.23-1.05.51-1.53.85-.02.01,0,.05.02.04.25-.11.52-.19.77-.29.19-.08.35-.17.54-.26h0c.2-.13.45-.19.69-.16.21.06.4.16.58.28.2.1.39.22.56.35.2.18.38.4.57.6h0c.16.15.3.33.4.52.07.25.09.51.06.77,0,.03.01.06.04.07s.06,0,.08-.02c.11-.14.24-.27.37-.4.08-.07.18-.11.29-.12.1-.01.21,0,.31.05.16.05.38.07.48.22.15.23.01.43-.11.63-.04.07.03.13.08.07.14-.18.32-.4.27-.64h0Z"/><path class="cls-15" d="m79.02,93.45c-.08-.03-.13-.04-.16-.12-.02-.04,0-.09-.02-.14h0c-.01-.06-.03-.12-.07-.18-.08-.14-.22-.23-.38-.25-.15,0-.29.06-.39.18-.07.07-.14.15-.19.24-.04.09-.09.18-.15.26-.02.03,0,.06.02.04.06-.04.11-.05.18-.1h0c.06-.05.12-.11.17-.17.14-.15.29-.31.49-.17.13.1.09.28.16.41.06.12.2.17.32.14.1-.02.09-.13,0-.16h0Z"/><path class="cls-15" d="m81.02,95.83c.23-.34.3-.76.19-1.16v-.02c0-.19-.05-.37-.16-.52-.11-.15-.28-.25-.46-.28-.25-.07-.51-.13-.77-.16-.22-.05-.46-.05-.67.02-.02,0-.02.02-.02.04,0,.02.01.03.03.03.36.09.73.14,1.1.22h0c.31,0,.59.18.75.45-.23-.12-.49-.17-.75-.15-.04,0-.03.04,0,.05.28.09.6.13.76.41h0c.07.15.1.33.09.5-.02.17-.08.33-.19.47-.08.12.03.21.11.08h0Z"/><path class="cls-15" d="m81.04,97.63c.1-.14.14-.3.13-.47.01-.4-.15-.79-.46-1.06-.03-.03-.06.01-.05.04.12.28.21.57.27.86.02.11.01.23-.01.34-.03.11-.11.16-.17.24h0s-.01.05,0,.07c.04.04.1.06.15.05.06,0,.11-.04.14-.09h0Z"/><path class="cls-15" d="m80.67,97.75c-.57-.03-1.15,0-1.71.08-.43.12-.9.04-1.27-.22-.05-.04-.12.01-.08.06.13.17.3.3.5.38.2.08.41.09.62.05.36-.03.65-.1,1.02-.13.32,0,.64-.04.95-.15.04-.02.03-.07-.02-.07h0Z"/><path class="cls-15" d="m77.4,97.25c-.22-.5-.41-1-.58-1.52-.13-.36-.29-.72-.46-1.06-.04-.08-.15-.09-.17,0-.08.39.21.73.38,1.03.29.54.51,1.04.81,1.56,0,.02.03,0,.02-.02h0Z"/><path class="cls-15" d="m76.86,97.9c-.17-.29-.38-.56-.63-.8-.31-.31-.62-.61-.92-.94-.25-.27-.48-.54-.74-.82-.13-.14-.31-.24-.32-.47h0c.02-.23.09-.45.22-.65.02-.04-.01-.09-.05-.05-.26.2-.42.51-.42.84.03.12.1.24.2.31.16.19.33.37.49.55.66.73,1.38,1.41,2.1,2.07.01.01.04.01.05,0,.02-.01.02-.03.01-.05h0Z"/><path class="cls-15" d="m77.63,98.03s.03-.05.02-.07c0-.03-.03-.05-.05-.05-.04,0-.08-.02-.12-.02-.04-.01-.07-.02-.11-.04-.07-.03-.15-.05-.23-.05-.02,0-.03,0-.04.02,0,.02,0,.03,0,.04.07.07.15.13.23.18.09.05.2.05.28-.01h0Z"/><path class="cls-15" d="m74.34,93.85s-.01-.07-.05-.05c-.23.17-.47.31-.72.44-.15.07-.3.11-.44.18-.26-.16-.55-.27-.84-.35-.03,0-.06,0-.07.03-.01.03-.01.06,0,.08.16.16.36.28.58.36.14.06.26.16.41.11.43-.17.82-.44,1.13-.79h0Z"/><path class="cls-15" d="m72.62,93.64c-.08-.02.04-.18.05-.21h0c.08-.1.16-.19.25-.27.16-.15.33-.25.48-.41.23-.25.43-.52.59-.82.1-.16.24-.46.46-.53.03,0,.05-.04.02-.06-.22-.15-.43.18-.52.3-.26.39-.55.75-.88,1.08-.27.18-.49.41-.65.69-.06.16.03.4.23.31.05-.02.01-.08-.04-.09h0Z"/><path class="cls-15" d="m74.53,92.2c.12-.17.22-.35.32-.53.06-.15.18-.28.32-.36.01,0,.02-.01.02-.03,0-.04-.02-.08-.06-.1-.04-.02-.08-.02-.12,0-.15.1-.27.23-.34.4-.18.3-.38.59-.59.87-.28.33-.63.59-.92.9h0s-.03.08,0,.11c.03.03.08.03.11,0,.22-.2.44-.43.66-.64.22-.19.43-.4.61-.63h0Z"/><path class="cls-15" d="m74.38,93.16c.09-.1,0-.23-.11-.16h0c-.1.08-.18.17-.25.27-.08.13-.17.25-.27.36-.01.01,0,.03.01.02.11-.06.22-.13.32-.21.1-.09.21-.2.3-.29h0Z"/><path class="cls-15" d="m75.07,93.36s-.01-.02-.02-.03c-.01,0-.02,0-.03,0-.06.04-.12.1-.16.16-.06.07-.13.14-.2.2-.04.03-.05.09-.04.13v.03c.07.04.11.06.18.02h0c.09-.05.17-.12.22-.22.05-.09.07-.19.07-.3h0Z"/><path class="cls-15" d="m77.37,96.43c-.05-.35-.12-.68-.15-1.03h0c-.01-.24-.07-.48-.15-.7-.07-.12-.11-.25-.12-.38.01-.13.04-.26.08-.39.07-.25.11-.5.14-.76,0-.03-.04-.03-.05,0h0c-.25.44-.37.94-.35,1.45.03.17.15.28.18.44.02.12.04.24.07.36.1.34.24.68.33,1.02,0,.02.03.02.03,0h0Z"/><path class="cls-15" d="m80.17,95.13c-.09-.18-.23-.32-.4-.41-.13-.11-.3-.16-.46-.14-.04,0-.04.05-.02.07.12.11.25.21.39.28.12.11.26.21.41.27.02,0,.05,0,.07-.02.02-.02.02-.04.02-.07h0Z"/><path class="cls-15" d="m80.29,96.11c-.09-.1-.22-.15-.36-.14-.15-.03-.29-.04-.44-.05-.02,0-.05.01-.06.03-.01.02-.01.05,0,.07.08.15.22.17.37.18.08,0,.16,0,.24,0,.08,0,.16-.01.23-.03.02,0,.03-.03.02-.05h0Z"/><path class="cls-15" d="m73.65,91.23c.04-.15.06-.31.06-.47,0-.09,0-.18,0-.27.01-.06.02-.12.02-.17,0-.01,0-.02-.02-.03,0,0-.02,0-.03,0-.15.04-.15.25-.15.36,0,.19,0,.38.02.57,0,.05.08.07.1.02h0Z"/><path class="cls-15" d="m71.03,91.77c.23-.28.36-.63.38-.99l.08.06c.06.05.14.08.22.09.01,0,.03,0,.04-.01,0-.01.01-.02.01-.04-.02-.08-.07-.15-.15-.18-.08-.05-.17-.08-.26-.1h-.03c-.18,0-.35.1-.45.26-.22.24-.36.54-.4.86-.02.07,0,.14.04.2.04.06.1.1.17.11.16.02.26-.11.35-.24h0Zm-.22.02c-.24.08-.19-.18-.12-.35.1-.3.31-.55.58-.71.01.27-.07.53-.22.75-.06.1-.13.28-.23.31h0Z"/><path class="cls-15" d="m77.36,96.9s.01.04.03.05.04.01.06,0c.06-.02.11-.06.17-.07,0,0,.03-.02.04-.02.02,0,.05.11.05.12.01.03.05.04.08.03.05-.02.1-.05.14-.09.02.04.04.08.07.12.02.03.06.03.08.01.04-.04.08-.08.12-.12.04.06.08.11.13.16.02.01.04.02.06,0,.06-.04.11-.09.16-.15.02.07.07.13.13.17.02.02.05.02.08,0,.05-.04.1-.08.14-.11.02.04.04.08.06.12.02.03.05.05.08.03.05-.03.1-.08.14-.12.01.03.02.06.04.08h0s.03.03.05.04.04,0,.05-.02c.1-.15.05-.3.07-.47h0s0-.02-.01-.02c0,0-.02,0-.02,0-.04.1-.04.21-.08.31,0-.02-.01-.03-.02-.05h0s-.02-.03-.04-.03c-.02,0-.04,0-.05,0-.05.04-.09.08-.14.12-.02-.04-.04-.09-.07-.13,0-.02-.02-.03-.04-.03-.02,0-.04,0-.05,0-.05.05-.11.09-.16.13-.04-.04-.07-.1-.08-.16-.01-.03-.05-.04-.08-.03-.04.02-.09.05-.12.09-.1.07-.12,0-.19-.08-.02-.02-.06-.03-.08-.01-.04.03-.08.07-.12.11-.02-.04-.04-.08-.05-.12,0-.02-.02-.03-.04-.03-.02,0-.04,0-.05.01-.03.04-.07.07-.11.1-.02-.06-.06-.11-.12-.14-.07,0-.14.03-.2.07,0-.04-.02-.09-.04-.13,0-.02-.03-.04-.05-.04-.02,0-.04,0-.06.02-.08.13-.13.03-.18-.06,0-.02-.02-.03-.04-.04-.02,0-.04,0-.05.01-.07.05-.13.1-.2.15-.01-.07-.01-.15-.03-.22,0-.01-.01-.02-.03-.02-.01,0-.02,0-.03.02-.03.1-.03.2,0,.31,0,.02.01.03.03.04.01,0,.03,0,.05,0,.08-.04.16-.08.23-.14"/><path class="cls-15" d="m117.53,82.63c-.39,1.53.63,3.15,2.28,3.31,1.3.16,2.48-.79,2.83-2.05l2.32-8.46,1.65-2.24v1.5c0,.31.08.63.2.94l3.54,8.74c.55,1.34,2.09,2.01,3.42,1.46s2.01-2.09,1.46-3.42l-3.35-8.27-.12-10.04c-.04-.75-.35-1.5-.94-1.97l-7.95-6.81c-.71-.63-1.65-.91-2.6-.83-.94.12-1.81.63-2.36,1.38l-1.06,1.42c-.94,1.3-1.46,2.83-1.57,3.27-.08.24-.28.94-.2,4.92l-3.27,2.36c-.98.71-1.22,2.09-.51,3.07.59.83,1.69,1.1,2.6.75.16-.04.32-.12.47-.24l4.21-3.03c.59-.43.95-1.14.91-1.85-.04-.98-.04-2.09-.04-2.99l5,3.82-4.01,5.39c-.2.24-.36.55-.43.87l-2.48,9.02Z"/><path class="cls-15" d="m111.16,48.74c2.54-.59,5.08.99,5.67,3.53.59,2.54-.99,5.08-3.53,5.67-2.54.59-5.08-.99-5.67-3.53-.59-2.54.99-5.08,3.53-5.67"/><path class="cls-12" d="m104.59,74.03h0c-.2.41-.37.83-.52,1.26-.09.27-.08.58.04.84.42.64,1.06,1.11,1.8,1.29.89.35,1.71.93,2.62,1.21.57.17,1.05-.24,1.44-.6h0s0-.02,0-.03c0-.01-.02-.02-.03-.02l.04-.12c.43.16.85.23.88-.12h0c0-.1-.12-.2-.2-.1l.12-.26s.04,0,.06-.03c.15-.25.08-.64.08-.92h0c.03-.43.08-.85.16-1.27.09-.64-.32-.95-.89-1.09h0s-.02,0-.03.02l-.18-.29h0c.37.29.85.4,1.31.3.5-.26.88-.72,1.06-1.26h0c.29-.58.66-1.09.99-1.64.14-.23.49-.62.16-.83l-.3-.13s.01-.05,0-.07h0c-.3-.3-.65-.54-1.03-.71-.42-.26-.84-.5-1.27-.74-.81-.53-1.66-.99-2.55-1.38l-.3-.14s0-.07-.04-.05c-.45.38-.82.84-1.08,1.36-.32.43-.6.88-.84,1.35-.15.37-.19.77-.09,1.16.06.24.23,1,.6.94l-.45-.13h0c-.28-.15-.61-.2-.92-.14-.39.13-.41.58-.39.92h0c.03.28.03.57-.02.85l-.25.57Z"/><path class="cls-15" d="m106.58,71.93c-.04-.16-.19-.29-.26-.45-.07-.18-.12-.36-.19-.54h0c-.13-.42-.04-.87.24-1.2.21-.36.47-.7.68-1.06.28-.49.59-.97.92-1.42.02-.03,0-.07-.04-.05-.45.38-.82.84-1.08,1.36-.32.43-.6.88-.84,1.35-.15.37-.19.77-.09,1.16.06.24.23,1,.6.94.02,0,.04-.01.06-.03.01-.02.02-.04,0-.07h0Z"/><path class="cls-15" d="m109.38,73.46c-.38-.25-.86-.41-1.26-.63h0c-.41-.17-.79-.38-1.14-.65-.01-.01-.04-.01-.05,0-.01.01-.02.03,0,.05.28.32.63.58,1.01.77.41.31.89.52,1.39.62.04,0,.08-.02.1-.06.01-.04,0-.08-.04-.1h0Z"/><path class="cls-15" d="m112.26,72.9c.29-.58.66-1.09.99-1.64.14-.23.49-.62.16-.83-.07-.05-.15.05-.11.12.19.29-.26.66-.41.87h0c-.29.39-.55.8-.78,1.23-.15.46-.43.88-.8,1.19-.44.17-.93.14-1.36-.07-.05-.02-.11.05-.06.09h0c.37.29.85.4,1.31.3.5-.26.88-.72,1.06-1.26h0Z"/><path class="cls-15" d="m113.12,70.23c-.3-.3-.65-.54-1.03-.71-.42-.26-.84-.5-1.27-.74-.81-.53-1.66-.99-2.55-1.38-.12-.04-.21.12-.09.18.87.4,1.66.89,2.49,1.37.41.24.82.46,1.22.71.2.12.39.24.59.36h0c.17.13.37.24.57.31.03,0,.05,0,.07-.03.01-.02.01-.05,0-.07h0Z"/><path class="cls-15" d="m107.28,71.78c-.29-.23-.5-.55-.59-.92-.1-.43.24-.87.43-1.24h0c.17-.38.38-.74.63-1.08.33-.38.68-.31,1.13-.35.02,0,.03-.03,0-.04-.18-.09-.39-.14-.6-.12s-.4.09-.57.21c-.34.4-.6.86-.76,1.36-.29.39-.45.86-.46,1.35.08.41.35.75.73.92.02.01.05,0,.07-.02.02-.02.01-.05,0-.07h0Z"/><path class="cls-15" d="m112.75,70.84c-.08-.4-.33-.74-.69-.93-.38-.24-.78-.44-1.2-.62-.28-.14-.55-.3-.82-.46-.25-.15-.51-.26-.76-.41-.02-.01-.04.02-.02.04h0c.32.27.67.51,1.04.71.36.23.74.43,1.13.61.39.17.72.44.97.78.08.2.11.41.08.62-.03.21-.12.41-.25.57,0,.01,0,.03,0,.04.01.01.03.01.04,0,.15-.1.28-.24.36-.41.08-.17.12-.35.11-.54h0Z"/><path class="cls-15" d="m111.51,73.16c.22-.37.41-.76.6-1.14,0,0,0-.02,0-.03s-.02,0-.03,0c-.17.22-.33.45-.47.7-.14.28-.35.51-.61.68-.17.06-.35.06-.52,0-.29-.08-.58-.17-.86-.28,0,0-.01,0-.02,0s0,.01,0,.02c.3.16.6.31.92.43.16.08.34.11.51.07.21-.09.38-.25.48-.45h0Z"/><path class="cls-15" d="m104.96,75.09c-.23-.21-.14-.64-.1-.91.08-.36.13-.73.16-1.1,0-.33-.16-.81.11-1.07.23-.22.64-.11.91-.06.03,0,.05-.04.02-.06h0c-.28-.15-.61-.2-.92-.14-.39.13-.41.58-.39.92h0c.03.28.03.57-.02.85-.05.26-.11.51-.13.77-.03.32-.06.73.23.94.1.07.22-.06.13-.14h0Z"/><path class="cls-15" d="m110.77,77.81c0-.1-.12-.2-.2-.1-.13.19-.64-.04-.8-.11-.47-.2-.89-.5-1.33-.74-.46-.26-.96-.45-1.44-.68-.51-.25-1.01-.53-1.54-.74h0s-.05,0-.06.02c-.01.02,0,.05.02.06,1.11.74,2.35,1.25,3.49,1.93.18.11,1.79,1.05,1.86.36h0Z"/><path class="cls-15" d="m110.83,76.5c.03-.43.08-.85.16-1.27.09-.64-.32-.95-.89-1.09h0s-.02,0-.03.02c0,.01,0,.03.01.03.27.1.5.3.64.56.12.3-.02.68-.09.99h0c-.05.28-.07.56-.06.83,0,.28.07.56.07.84,0,.02.02.04.04.05.02,0,.04,0,.06-.03.15-.25.08-.64.08-.92h0Z"/><path class="cls-15" d="m109.84,78.04c-.21.06-.41.16-.59.28-.25.19-.59.24-.88.12-.78-.3-1.5-.74-2.27-1.07h0c-.35-.11-.69-.25-1.02-.41-.32-.17-.59-.43-.79-.73-.17-.3-.19-.66-.06-.98.12-.38.16-.78.26-1.16h0s0,0,0,0c-.2.41-.37.84-.52,1.27-.09.27-.08.58.04.84.42.64,1.06,1.11,1.8,1.29.89.35,1.71.93,2.62,1.21.57.17,1.05-.24,1.44-.6h0s0-.02,0-.03c0-.01-.02-.02-.03-.02h0Z"/><path class="cls-15" d="m106.96,72.72c-.28-.22-.6-.39-.94-.49-.23-.06-.72-.05-.66.31,0,.03.05.06.08.03.18-.26.48-.17.75-.11h0c.27.05.52.15.76.28.01,0,.03-.01.02-.02h0Z"/><path class="cls-15" d="m110.25,75.88c.15-.32.22-.68.23-1.03-.11-.33-.38-.58-.72-.66,0,0-.02,0-.03,0s0,.02,0,.03c.27.3.57.47.52.92-.07.24-.09.5-.05.74,0,.01.01.02.03.02.01,0,.02,0,.02-.02h0Z"/><path class="cls-15" d="m105.92,75.26c-.33-.2-.54-.54-.57-.91,0-.24,0-.5,0-.74.03-.2.04-.4.03-.6,0-.01-.01-.02-.02-.02-.01,0-.02.01-.02.02-.02.15-.06.3-.12.44-.04.14-.06.29-.06.43-.03.23-.03.47,0,.7.08.4.41.55.73.73h0s.03,0,.04-.01c0-.01,0-.03,0-.04h0Z"/><path class="cls-15" d="m110.25,76.35s0-.02-.02-.02c0,0-.02,0-.02.02,0,.18-.03.35-.08.52-.08.22-.18.25-.4.19h0c-.27-.1-.54-.23-.79-.36-.4-.18-.8-.35-1.2-.54-.44-.2-.92-.37-1.34-.6-.02-.01-.03.02-.01.03.26.17.54.28.8.43.28.15.55.3.84.44.44.21.88.43,1.32.65.2.1.55.29.77.14.25-.17.15-.65.13-.9h0Z"/><path class="cls-15" d="m109.55,76.65c.04-.16.03-.33-.02-.49-.05-.16-.14-.3-.27-.41.08-.04.14-.09.2-.16.14-.2.27-.41.38-.63.02-.03-.02-.06-.05-.04h0c-.15.11-.27.24-.37.4-.09.12-.2.22-.33.28-.25-.18-.52-.35-.8-.49-.45-.25-.91-.48-1.36-.74-.4-.3-.86-.52-1.34-.67h0s0,.01,0,.01c.32.28.67.52,1.05.72.37.24.75.45,1.14.66.39.2.77.41,1.14.65.2.1.37.27.47.47.04.14.07.29.09.44,0,.04.07.03.08,0h0Z"/><path class="cls-15" d="m105.07,76.61c.04-.24.09-.48.13-.73,0-.03-.05-.06-.06-.02-.14.22-.22.47-.24.74,0,.04.04.08.08.08.04,0,.08-.03.09-.07h0Z"/><rect class="cls-8" x="66.36" width="71.68" height="14.62"/><g class="cls-4"><g class="cls-2"><g class="cls-3"><line class="cls-5" x1="209.88" y1="56.36" x2="292.99" y2="-9.73"/><line class="cls-5" x1="201.25" y1="56.36" x2="284.36" y2="-9.73"/><line class="cls-5" x1="192.61" y1="56.36" x2="275.72" y2="-9.73"/><line class="cls-5" x1="183.98" y1="56.36" x2="267.09" y2="-9.73"/><line class="cls-5" x1="175.35" y1="56.36" x2="258.46" y2="-9.73"/><line class="cls-5" x1="166.71" y1="56.36" x2="249.82" y2="-9.73"/><line class="cls-5" x1="158.08" y1="56.36" x2="241.19" y2="-9.73"/><line class="cls-5" x1="149.45" y1="56.36" x2="232.56" y2="-9.73"/><line class="cls-5" x1="140.81" y1="56.36" x2="223.92" y2="-9.73"/><line class="cls-5" x1="132.18" y1="56.36" x2="215.29" y2="-9.73"/><line class="cls-5" x1="123.55" y1="56.36" x2="206.66" y2="-9.73"/><line class="cls-5" x1="114.92" y1="56.36" x2="198.02" y2="-9.73"/><line class="cls-5" x1="106.28" y1="56.36" x2="189.39" y2="-9.73"/><line class="cls-5" x1="97.65" y1="56.36" x2="180.76" y2="-9.73"/><line class="cls-5" x1="89.02" y1="56.36" x2="172.12" y2="-9.73"/><line class="cls-5" x1="80.38" y1="56.36" x2="163.49" y2="-9.73"/><line class="cls-5" x1="71.75" y1="56.36" x2="154.86" y2="-9.73"/><line class="cls-5" x1="63.12" y1="56.36" x2="146.22" y2="-9.73"/><line class="cls-5" x1="54.48" y1="56.36" x2="137.59" y2="-9.73"/><line class="cls-5" x1="45.85" y1="56.36" x2="128.96" y2="-9.73"/><line class="cls-5" x1="37.22" y1="56.36" x2="120.32" y2="-9.73"/><line class="cls-5" x1="28.58" y1="56.36" x2="111.69" y2="-9.73"/><line class="cls-5" x1="19.95" y1="56.36" x2="103.06" y2="-9.73"/><line class="cls-5" x1="11.32" y1="56.36" x2="94.42" y2="-9.73"/><line class="cls-5" x1="2.68" y1="56.36" x2="85.79" y2="-9.73"/><line class="cls-5" x1="-5.95" y1="56.36" x2="77.16" y2="-9.73"/><line class="cls-5" x1="-14.58" y1="56.36" x2="68.52" y2="-9.73"/><line class="cls-5" x1="-23.22" y1="56.36" x2="59.89" y2="-9.73"/><line class="cls-5" x1="-31.85" y1="56.36" x2="51.26" y2="-9.73"/><line class="cls-5" x1="-40.48" y1="56.36" x2="42.62" y2="-9.73"/><line class="cls-5" x1="-49.12" y1="56.36" x2="33.99" y2="-9.73"/><line class="cls-5" x1="-57.75" y1="56.36" x2="25.36" y2="-9.73"/><line class="cls-5" x1="-66.38" y1="56.36" x2="16.72" y2="-9.73"/><line class="cls-5" x1="-75.02" y1="56.36" x2="8.09" y2="-9.73"/></g></g></g><rect class="cls-14" x="140.79" y="14.5" width="78.33" height="1.71"/><polyline class="cls-6" points="118.27 26.93 99.74 26.93 99.74 14.35"/><path class="cls-8" d="m118.27,25.05c1.04,0,1.88.84,1.88,1.88s-.84,1.88-1.88,1.88-1.88-.84-1.88-1.88.84-1.88,1.88-1.88Z"/><path class="cls-11" d="m123.9,30.97c-.32-.36-.48-.87-.48-1.53v-.47h1.22v.56c0,.53.22.8.67.8.22,0,.39-.06.5-.19s.17-.34.17-.63c0-.34-.08-.65-.23-.91-.16-.26-.45-.58-.87-.95-.53-.47-.91-.9-1.12-1.28-.21-.38-.32-.81-.32-1.29,0-.65.16-1.15.49-1.51.33-.36.81-.54,1.43-.54s1.09.18,1.41.54.48.87.48,1.53v.34h-1.22v-.42c0-.28-.06-.49-.17-.62s-.27-.19-.48-.19c-.43,0-.65.26-.65.79,0,.3.08.58.24.83s.45.57.88.94c.54.47.91.9,1.12,1.28.2.38.31.83.31,1.35,0,.67-.17,1.19-.5,1.55-.33.36-.82.54-1.45.54s-1.1-.18-1.42-.54Z"/><path class="cls-11" d="m128.07,23.16h1.29v3.35h1.39v-3.35h1.29v8.23h-1.29v-3.7h-1.39v3.7h-1.29v-8.23Z"/><path class="cls-11" d="m133.07,23.16h3.53v1.18h-2.23v2.18h1.78v1.18h-1.78v2.53h2.23v1.18h-3.53v-8.23Z"/><path class="cls-11" d="m137.4,23.16h1.98c.64,0,1.12.17,1.45.52.32.34.48.85.48,1.52v4.16c0,.67-.16,1.17-.48,1.52-.32.35-.8.52-1.45.52h-1.98v-8.23Zm1.95,7.06c.21,0,.37-.06.49-.19.11-.12.17-.33.17-.61v-4.28c0-.28-.06-.49-.17-.61s-.28-.19-.49-.19h-.66v5.88h.66Z"/><path class="cls-11" d="m144.17,23.16h1.29v7.06h2.13v1.18h-3.42v-8.23Z"/><path class="cls-11" d="m148.28,23.16h1.29v8.23h-1.29v-8.23Z"/><path class="cls-11" d="m151,30.97c-.33-.36-.49-.87-.49-1.53v-4.33c0-.67.16-1.18.49-1.53.33-.36.81-.54,1.44-.54s1.11.18,1.43.54.49.87.49,1.53v.71h-1.22v-.79c0-.54-.22-.81-.67-.81s-.67.27-.67.81v4.5c0,.53.22.8.67.8s.67-.27.67-.8v-1.61h-.65v-1.18h1.87v2.69c0,.67-.16,1.18-.49,1.53-.33.36-.81.54-1.43.54s-1.11-.18-1.44-.54Z"/><path class="cls-11" d="m155.25,23.16h1.29v3.35h1.39v-3.35h1.29v8.23h-1.29v-3.7h-1.39v3.7h-1.29v-8.23Z"/><path class="cls-11" d="m161.26,24.33h-1.35v-1.18h4v1.18h-1.35v7.06h-1.29v-7.06Z"/><path class="cls-11" d="m166.94,30.97c-.34-.36-.51-.87-.51-1.53v-4.33c0-.66.17-1.17.51-1.53.34-.36.82-.54,1.46-.54s1.12.18,1.46.54c.34.36.51.87.51,1.53v4.33c0,.66-.17,1.17-.51,1.53-.34.36-.82.54-1.46.54s-1.12-.18-1.46-.54Zm2.13-1.45v-4.49c0-.54-.22-.81-.67-.81s-.67.27-.67.81v4.49c0,.54.22.81.67.81s.67-.27.67-.81Z"/><path class="cls-11" d="m171.29,23.16h1.62l1.26,4.93h.02v-4.93h1.15v8.23h-1.33l-1.55-6.01h-.02v6.01h-1.15v-8.23Z"/><path class="cls-11" d="m179.33,24.33h-1.35v-1.18h4v1.18h-1.35v7.06h-1.29v-7.06Z"/><path class="cls-11" d="m182.65,23.16h1.29v3.35h1.39v-3.35h1.29v8.23h-1.29v-3.7h-1.39v3.7h-1.29v-8.23Z"/><path class="cls-11" d="m187.65,23.16h3.53v1.18h-2.23v2.18h1.78v1.18h-1.78v2.53h2.23v1.18h-3.53v-8.23Z"/><path class="cls-11" d="m193.92,23.16h1.85l.82,5.89h.02l.82-5.89h1.85v8.23h-1.22v-6.23h-.02l-.94,6.23h-1.08l-.94-6.23h-.02v6.23h-1.13v-8.23Z"/><path class="cls-11" d="m201.3,23.16h1.75l1.34,8.23h-1.29l-.24-1.63v.02h-1.47l-.23,1.61h-1.2l1.34-8.23Zm1.41,5.5l-.58-4.07h-.02l-.56,4.07h1.16Z"/><path class="cls-11" d="m205.46,30.97c-.33-.36-.49-.87-.49-1.53v-4.33c0-.67.16-1.18.49-1.53.33-.36.81-.54,1.44-.54s1.11.18,1.43.54.49.87.49,1.53v.71h-1.22v-.79c0-.54-.22-.81-.67-.81s-.67.27-.67.81v4.5c0,.53.22.8.67.8s.67-.27.67-.8v-1.61h-.65v-1.18h1.87v2.69c0,.67-.16,1.18-.49,1.53-.33.36-.81.54-1.43.54s-1.11-.18-1.44-.54Z"/><path class="cls-11" d="m209.71,23.16h1.62l1.26,4.93h.02v-4.93h1.15v8.23h-1.33l-1.55-6.01h-.02v6.01h-1.15v-8.23Z"/><path class="cls-11" d="m214.79,23.16h1.29v8.23h-1.29v-8.23Z"/><path class="cls-11" d="m218.12,24.33h-1.35v-1.18h4v1.18h-1.35v7.06h-1.29v-7.06Z"/><path class="cls-11" d="m221.9,30.97c-.33-.36-.49-.87-.49-1.53v-6.28h1.29v6.37c0,.28.06.49.17.61.11.13.28.19.49.19s.37-.06.49-.19c.11-.13.17-.33.17-.61v-6.37h1.25v6.28c0,.67-.16,1.18-.49,1.53-.33.36-.81.54-1.43.54s-1.11-.18-1.43-.54Z"/><path class="cls-11" d="m226.24,23.16h1.98c.64,0,1.12.17,1.45.52.32.34.48.85.48,1.52v4.16c0,.67-.16,1.17-.48,1.52-.32.35-.8.52-1.45.52h-1.98v-8.23Zm1.95,7.06c.21,0,.37-.06.49-.19.11-.12.17-.33.17-.61v-4.28c0-.28-.06-.49-.17-.61s-.28-.19-.49-.19h-.66v5.88h.66Z"/><path class="cls-11" d="m231.07,23.16h3.53v1.18h-2.23v2.18h1.78v1.18h-1.78v2.53h2.23v1.18h-3.53v-8.23Z"/><path class="cls-11" d="m237.75,30.97c-.34-.36-.51-.87-.51-1.53v-4.33c0-.66.17-1.17.51-1.53.34-.36.82-.54,1.46-.54s1.12.18,1.46.54c.34.36.51.87.51,1.53v4.33c0,.66-.17,1.17-.51,1.53-.34.36-.82.54-1.46.54s-1.12-.18-1.46-.54Zm2.13-1.45v-4.49c0-.54-.22-.81-.67-.81s-.67.27-.67.81v4.49c0,.54.22.81.67.81s.67-.27.67-.81Z"/><path class="cls-11" d="m242.1,23.16h3.42v1.18h-2.13v2.29h1.67v1.18h-1.67v3.59h-1.29v-8.23Z"/><rect class="cls-15" x="145.25" y="38.29" width="100.47" height="13.99"/><path class="cls-9" d="m148.73,49.02c-.34-.36-.51-.87-.51-1.53v-4.33c0-.66.17-1.17.51-1.53.34-.36.82-.54,1.46-.54s1.12.18,1.46.54c.34.36.51.87.51,1.53v4.33c0,.66-.17,1.17-.51,1.53-.34.36-.82.54-1.46.54s-1.12-.18-1.46-.54Zm2.13-1.45v-4.49c0-.54-.22-.81-.67-.81s-.67.27-.67.81v4.49c0,.54.22.81.67.81s.67-.27.67-.81Z"/><path class="cls-9" d="m153.48,49.03c-.33-.35-.49-.85-.49-1.49v-4.42c0-.64.16-1.14.49-1.49.33-.35.8-.53,1.42-.53s1.09.18,1.42.53c.33.35.49.85.49,1.49v.87h-1.22v-.95c0-.51-.22-.76-.65-.76s-.65.25-.65.76v4.6c0,.5.22.75.65.75s.65-.25.65-.75v-1.26h1.22v1.16c0,.64-.16,1.14-.49,1.49-.33.35-.8.53-1.42.53s-1.09-.18-1.42-.53Z"/><path class="cls-9" d="m157.64,41.21h3.53v1.18h-2.23v2.18h1.78v1.18h-1.78v2.53h2.23v1.18h-3.53v-8.23Z"/><path class="cls-9" d="m162.97,41.21h1.75l1.34,8.23h-1.29l-.24-1.63v.02h-1.47l-.23,1.61h-1.2l1.34-8.23Zm1.41,5.5l-.58-4.07h-.02l-.56,4.07h1.16Z"/><path class="cls-9" d="m166.74,41.21h1.62l1.26,4.93h.02v-4.93h1.15v8.23h-1.33l-1.55-6.01h-.02v6.01h-1.15v-8.23Z"/><path class="cls-9" d="m173.76,41.21h1.91c.64,0,1.12.17,1.45.52.32.34.48.85.48,1.52v.81c0,.67-.16,1.17-.48,1.52-.32.35-.8.52-1.45.52h-.61v3.35h-1.29v-8.23Zm1.91,3.7c.21,0,.37-.06.48-.18.11-.12.16-.32.16-.6v-.98c0-.28-.05-.48-.16-.6-.11-.12-.26-.18-.48-.18h-.61v2.53h.61Z"/><path class="cls-9" d="m178.36,41.21h1.29v7.06h2.13v1.18h-3.42v-8.23Z"/><path class="cls-9" d="m183.51,41.21h1.75l1.34,8.23h-1.29l-.24-1.63v.02h-1.47l-.23,1.61h-1.2l1.34-8.23Zm1.41,5.5l-.58-4.07h-.02l-.56,4.07h1.16Z"/><path class="cls-9" d="m187.51,49.03c-.32-.36-.48-.87-.48-1.53v-.47h1.22v.56c0,.53.22.8.67.8.22,0,.39-.06.5-.19s.17-.34.17-.63c0-.34-.08-.65-.23-.91-.16-.26-.45-.58-.87-.95-.53-.47-.91-.9-1.12-1.28-.21-.38-.32-.81-.32-1.29,0-.65.16-1.15.49-1.51.33-.36.81-.54,1.43-.54s1.09.18,1.41.54.48.87.48,1.53v.34h-1.22v-.42c0-.28-.06-.49-.17-.62s-.27-.19-.48-.19c-.43,0-.65.26-.65.79,0,.3.08.58.24.83s.45.57.88.94c.54.47.91.9,1.12,1.28.2.38.31.83.31,1.35,0,.67-.17,1.19-.5,1.55-.33.36-.82.54-1.45.54s-1.1-.18-1.42-.54Z"/><path class="cls-9" d="m192.7,42.39h-1.35v-1.18h4v1.18h-1.35v7.06h-1.29v-7.06Z"/><path class="cls-9" d="m196.03,41.21h1.29v8.23h-1.29v-8.23Z"/><path class="cls-9" d="m198.75,49.03c-.33-.35-.49-.85-.49-1.49v-4.42c0-.64.16-1.14.49-1.49.33-.35.8-.53,1.42-.53s1.09.18,1.42.53c.33.35.49.85.49,1.49v.87h-1.22v-.95c0-.51-.22-.76-.65-.76s-.65.25-.65.76v4.6c0,.5.22.75.65.75s.65-.25.65-.75v-1.26h1.22v1.16c0,.64-.16,1.14-.49,1.49-.33.35-.8.53-1.42.53s-1.09-.18-1.42-.53Z"/><path class="cls-9" d="m204.85,41.21h1.91c.64,0,1.12.17,1.45.52.32.34.48.85.48,1.52v.81c0,.67-.16,1.17-.48,1.52-.32.35-.8.52-1.45.52h-.61v3.35h-1.29v-8.23Zm1.91,3.7c.21,0,.37-.06.48-.18.11-.12.16-.32.16-.6v-.98c0-.28-.05-.48-.16-.6-.11-.12-.26-.18-.48-.18h-.61v2.53h.61Z"/><path class="cls-9" d="m209.85,49.02c-.34-.36-.51-.87-.51-1.53v-4.33c0-.66.17-1.17.51-1.53.34-.36.82-.54,1.46-.54s1.12.18,1.46.54c.34.36.51.87.51,1.53v4.33c0,.66-.17,1.17-.51,1.53-.34.36-.82.54-1.46.54s-1.12-.18-1.46-.54Zm2.13-1.45v-4.49c0-.54-.22-.81-.67-.81s-.67.27-.67.81v4.49c0,.54.22.81.67.81s.67-.27.67-.81Z"/><path class="cls-9" d="m214.21,41.21h1.29v7.06h2.13v1.18h-3.42v-8.23Z"/><path class="cls-9" d="m218.31,41.21h1.29v7.06h2.13v1.18h-3.42v-8.23Z"/><path class="cls-9" d="m222.86,49.03c-.33-.36-.49-.87-.49-1.53v-6.28h1.29v6.37c0,.28.06.49.17.61.11.13.28.19.49.19s.37-.06.49-.19c.11-.13.17-.33.17-.61v-6.37h1.25v6.28c0,.67-.16,1.18-.49,1.53-.33.36-.81.54-1.43.54s-1.11-.18-1.43-.54Z"/><path class="cls-9" d="m228.21,42.39h-1.35v-1.18h4v1.18h-1.35v7.06h-1.29v-7.06Z"/><path class="cls-9" d="m231.54,41.21h1.29v8.23h-1.29v-8.23Z"/><path class="cls-9" d="m234.27,49.02c-.34-.36-.51-.87-.51-1.53v-4.33c0-.66.17-1.17.51-1.53.34-.36.82-.54,1.46-.54s1.12.18,1.46.54c.34.36.51.87.51,1.53v4.33c0,.66-.17,1.17-.51,1.53-.34.36-.82.54-1.46.54s-1.12-.18-1.46-.54Zm2.13-1.45v-4.49c0-.54-.22-.81-.67-.81s-.67.27-.67.81v4.49c0,.54.22.81.67.81s.67-.27.67-.81Z"/><path class="cls-9" d="m238.62,41.21h1.62l1.26,4.93h.02v-4.93h1.15v8.23h-1.33l-1.55-6.01h-.02v6.01h-1.15v-8.23Z"/><path class="cls-9" d="m70.68,11.67c-.37-.4-.55-.96-.55-1.69v-4.99c0-.73.18-1.29.55-1.69.37-.4.9-.6,1.6-.6s1.23.2,1.6.6c.37.4.55.96.55,1.69v.98h-1.38v-1.08c0-.57-.24-.86-.73-.86s-.73.29-.73.86v5.19c0,.57.24.85.73.85s.73-.28.73-.85v-1.42h1.38v1.31c0,.73-.18,1.29-.55,1.69-.37.4-.9.6-1.6.6s-1.23-.2-1.6-.6Z"/><path class="cls-9" d="m75.37,2.84h1.46v9.29h-1.46V2.84Z"/><path class="cls-9" d="m79.13,4.17h-1.53v-1.33h4.51v1.33h-1.53v7.96h-1.46v-7.96Z"/><path class="cls-9" d="m82.88,2.84h1.46v9.29h-1.46V2.84Z"/><path class="cls-9" d="m85.21,10.83l2.71-6.66h-2.57v-1.33h4.14v1.3l-2.71,6.66h2.71v1.33h-4.27v-1.3Z"/><path class="cls-9" d="m90.37,2.84h3.98v1.33h-2.52v2.46h2v1.33h-2v2.85h2.52v1.33h-3.98V2.84Z"/><path class="cls-9" d="m95.25,2.84h1.83l1.42,5.56h.03V2.84h1.3v9.29h-1.5l-1.75-6.78h-.03v6.78h-1.3V2.84Z"/><path class="cls-9" d="m103.47,11.66c-.36-.4-.54-.98-.54-1.73v-.53h1.38v.64c0,.6.25.9.76.9.25,0,.44-.07.56-.22s.19-.38.19-.71c0-.39-.09-.73-.27-1.03-.18-.3-.5-.65-.98-1.07-.6-.53-1.02-1.01-1.26-1.44-.24-.43-.36-.91-.36-1.45,0-.73.19-1.3.56-1.71.37-.4.91-.6,1.62-.6s1.23.2,1.59.6c.36.4.54.98.54,1.73v.39h-1.38v-.48c0-.32-.06-.55-.19-.7-.12-.15-.31-.22-.54-.22-.49,0-.73.3-.73.89,0,.34.09.65.27.94.18.29.51.65.99,1.06.61.53,1.03,1.01,1.26,1.45.23.43.34.94.34,1.53,0,.76-.19,1.34-.56,1.75-.38.41-.92.61-1.64.61s-1.24-.2-1.61-.6Z"/><path class="cls-9" d="m108.64,11.67c-.37-.4-.55-.96-.55-1.69v-4.99c0-.73.18-1.29.55-1.69.37-.4.9-.6,1.6-.6s1.23.2,1.6.6c.37.4.55.96.55,1.69v.98h-1.38v-1.08c0-.57-.24-.86-.73-.86s-.73.29-.73.86v5.19c0,.57.24.85.73.85s.73-.28.73-.85v-1.42h1.38v1.31c0,.73-.18,1.29-.55,1.69-.37.4-.9.6-1.6.6s-1.23-.2-1.6-.6Z"/><path class="cls-9" d="m113.33,2.84h1.46v9.29h-1.46V2.84Z"/><path class="cls-9" d="m115.94,2.84h3.98v1.33h-2.52v2.46h2v1.33h-2v2.85h2.52v1.33h-3.98V2.84Z"/><path class="cls-9" d="m120.83,2.84h1.83l1.42,5.56h.03V2.84h1.3v9.29h-1.5l-1.75-6.78h-.03v6.78h-1.3V2.84Z"/><path class="cls-9" d="m127.02,11.67c-.37-.4-.55-.96-.55-1.69v-4.99c0-.73.18-1.29.55-1.69.37-.4.9-.6,1.6-.6s1.23.2,1.6.6c.37.4.55.96.55,1.69v.98h-1.38v-1.08c0-.57-.24-.86-.73-.86s-.73.29-.73.86v5.19c0,.57.24.85.73.85s.73-.28.73-.85v-1.42h1.38v1.31c0,.73-.18,1.29-.55,1.69-.37.4-.9.6-1.6.6s-1.23-.2-1.6-.6Z"/><path class="cls-9" d="m131.71,2.84h3.98v1.33h-2.52v2.46h2v1.33h-2v2.85h2.52v1.33h-3.98V2.84Z"/><path class="cls-8" d="m140.98,2.84h2.2c.75,0,1.3.17,1.65.52s.52.89.52,1.61v.37c0,.48-.08.87-.23,1.17-.15.3-.39.52-.71.65v.03c.73.25,1.09.89,1.09,1.94v.8c0,.72-.19,1.26-.56,1.64-.38.38-.93.56-1.65.56h-2.3V2.84Zm2.03,3.78c.29,0,.51-.08.66-.23s.22-.4.22-.76v-.52c0-.34-.06-.58-.18-.73-.12-.15-.31-.23-.56-.23h-.7v2.46h.57Zm.27,4.18c.26,0,.45-.07.57-.21.12-.14.19-.37.19-.71v-.81c0-.42-.07-.72-.22-.88s-.39-.25-.72-.25h-.65v2.85h.84Z"/><path class="cls-8" d="m146.4,2.84h3.98v1.33h-2.52v2.46h2v1.33h-2v2.85h2.52v1.33h-3.98V2.84Z"/><path class="cls-8" d="m152.42,2.84h1.98l1.51,9.29h-1.46l-.27-1.84v.03h-1.66l-.27,1.82h-1.35l1.51-9.29Zm1.59,6.21l-.65-4.59h-.03l-.64,4.59h1.31Z"/><path class="cls-8" d="m157.11,11.67c-.37-.4-.55-.96-.55-1.69v-4.99c0-.73.18-1.29.55-1.69.37-.4.9-.6,1.6-.6s1.23.2,1.6.6c.37.4.55.96.55,1.69v.98h-1.38v-1.08c0-.57-.24-.86-.73-.86s-.73.29-.73.86v5.19c0,.57.24.85.73.85s.73-.28.73-.85v-1.42h1.38v1.31c0,.73-.18,1.29-.55,1.69-.37.4-.9.6-1.6.6s-1.23-.2-1.6-.6Z"/><path class="cls-8" d="m161.8,2.84h1.46v3.78h1.57v-3.78h1.46v9.29h-1.46v-4.18h-1.57v4.18h-1.46V2.84Z"/><path class="cls-8" d="m170.09,11.67c-.37-.4-.55-.96-.55-1.69v-4.99c0-.73.18-1.29.55-1.69.37-.4.9-.6,1.6-.6s1.23.2,1.6.6c.37.4.55.96.55,1.69v.98h-1.38v-1.08c0-.57-.24-.86-.73-.86s-.73.29-.73.86v5.19c0,.57.24.85.73.85s.73-.28.73-.85v-1.42h1.38v1.31c0,.73-.18,1.29-.55,1.69-.37.4-.9.6-1.6.6s-1.23-.2-1.6-.6Z"/><path class="cls-8" d="m174.78,2.84h1.46v7.96h2.4v1.33h-3.86V2.84Z"/><path class="cls-8" d="m179.41,2.84h3.98v1.33h-2.52v2.46h2v1.33h-2v2.85h2.52v1.33h-3.98V2.84Z"/><path class="cls-8" d="m185.42,2.84h1.98l1.51,9.29h-1.46l-.27-1.84v.03h-1.66l-.27,1.82h-1.35l1.51-9.29Zm1.59,6.21l-.65-4.59h-.03l-.64,4.59h1.31Z"/><path class="cls-8" d="m189.68,2.84h1.83l1.42,5.56h.03V2.84h1.3v9.29h-1.5l-1.75-6.78h-.03v6.78h-1.3V2.84Z"/><path class="cls-8" d="m195.21,6.82h2.92v1.33h-2.92v-1.33Z"/><path class="cls-8" d="m199.57,11.66c-.37-.4-.56-.98-.56-1.73V2.84h1.46v7.19c0,.32.06.55.19.69.13.14.31.21.55.21s.42-.07.55-.21c.13-.14.19-.37.19-.69V2.84h1.41v7.09c0,.75-.19,1.33-.56,1.73-.37.4-.91.6-1.62.6s-1.25-.2-1.62-.6Z"/><path class="cls-8" d="m204.47,2.84h2.15c.73,0,1.27.19,1.63.58.36.39.54.96.54,1.71v.92c0,.75-.18,1.32-.54,1.71-.36.39-.91.58-1.63.58h-.69v3.78h-1.46V2.84Zm2.15,4.18c.24,0,.42-.07.54-.2.12-.13.18-.36.18-.68v-1.1c0-.32-.06-.54-.18-.68-.12-.13-.3-.2-.54-.2h-.69v2.85h.69Z"/><path class="cls-8" d="m210,11.66c-.36-.4-.54-.98-.54-1.73v-.53h1.38v.64c0,.6.25.9.76.9.25,0,.44-.07.56-.22s.19-.38.19-.71c0-.39-.09-.73-.27-1.03-.18-.3-.5-.65-.98-1.07-.6-.53-1.02-1.01-1.26-1.44-.24-.43-.36-.91-.36-1.45,0-.73.19-1.3.56-1.71.37-.4.91-.6,1.62-.6s1.23.2,1.59.6c.36.4.54.98.54,1.73v.39h-1.38v-.48c0-.32-.06-.55-.19-.7-.12-.15-.31-.22-.54-.22-.49,0-.73.3-.73.89,0,.34.09.65.27.94.18.29.51.65.99,1.06.61.53,1.03,1.01,1.26,1.45.23.43.34.94.34,1.53,0,.76-.19,1.34-.56,1.75-.38.41-.92.61-1.64.61s-1.24-.2-1.61-.6Z"/><polyline class="cls-6" points="248.14 27.84 258.84 27.84 258.84 42.47 250.3 42.47"/><circle class="cls-8" cx="250.4" cy="42.47" r="1.88"/><path class="cls-12" d="m135.98,124.1c.37-.49.28-1.18-.21-1.55s-1.18-.28-1.55.21-.28,1.18.21,1.55c.49.37,1.18.28,1.55-.21Z"/><path class="cls-12" d="m137.94,127.2s.06-.07.09-.1c.03-.03.07-.05.11-.08.04-.02.08-.04.12-.05.04-.01.08-.02.13-.03.17-.02.35.02.49.13.03.03.07.06.1.09.03.03.05.07.08.11.02.04.04.08.05.12.01.04.02.08.03.13,0,.04,0,.09,0,.13,0,.04-.01.09-.02.13-.01.04-.03.08-.05.12-.04.08-.09.15-.16.21-.03.03-.07.05-.11.08-.04.02-.08.04-.12.06-.04.01-.08.02-.13.03-.04,0-.09,0-.13,0-.04,0-.09-.01-.13-.02-.04-.01-.08-.03-.12-.05-.04-.02-.08-.04-.11-.07-.14-.11-.23-.27-.26-.44-.02-.17.02-.35.13-.49Z"/></g></svg>