<?xml version="1.0" encoding="UTF-8"?><svg id="Layer_2" xmlns="http://www.w3.org/2000/svg" viewBox="0 0 249.04 123.47"><defs><style>.cls-1{fill:#82afd7;}.cls-1,.cls-2,.cls-3,.cls-4,.cls-5,.cls-6,.cls-7,.cls-8{stroke:#007dbb;}.cls-1,.cls-2,.cls-3,.cls-4,.cls-9,.cls-10{stroke-linecap:round;stroke-linejoin:round;}.cls-2{fill:#4193c8;}.cls-3,.cls-11{fill:#939598;}.cls-4{fill:#bdbcbb;}.cls-12{fill:#007dbb;}.cls-13,.cls-6{fill:#fff;}.cls-14{fill:#d6e2f0;}.cls-5{stroke-width:1.25px;}.cls-5,.cls-6,.cls-7,.cls-8{stroke-miterlimit:10;}.cls-5,.cls-9,.cls-10,.cls-8{fill:none;}.cls-6,.cls-8{stroke-width:.5px;}.cls-9{stroke-dasharray:0 0 0 2.9;}.cls-9,.cls-10{stroke:#82afd7;stroke-width:1.75px;}.cls-7{fill:#bdd2e9;stroke-width:1.5px;}</style></defs><g id="Layer_2-2"><circle class="cls-7" cx="55.66" cy="67.52" r="49.44"/><path class="cls-12" d="m92.56,41.79c-.22-.09-.43-.2-.62-.35-.8-.61-1.79-.92-2.8-.88-.99.02-1.96.33-2.79.88-.59.37-1.26.6-1.95.65l-.52-.06-.31-.08c-.15-.03-.3-.08-.43-.14h-.08c-.21-.08-.41-.2-.59-.33-.72-.54-1.59-.86-2.5-.9-1.1-.02-2.17.29-3.1.88-.2.14-.41.25-.64.35-1.07.46-2.31.33-3.27-.35-1.67-1.18-3.9-1.18-5.57,0-.07.05-.15.09-.22.13h0c-.91.54-2.03.61-3.01.2-.22-.09-.43-.2-.62-.35-.8-.61-1.79-.92-2.8-.88-.1,0-.19.02-.29.03-.89.05-1.77.33-2.53.86-.04.03-.08.04-.12.06-.5.29-1.04.47-1.61.54-.22.01-.45.02-.67-.01h-.04s-.08-.02-.08-.02c-.14-.02-.27-.07-.4-.12-.09-.03-.18-.05-.26-.09h-.04s-.03,0-.04-.01c-.14-.06-.27-.14-.4-.22-.06-.04-.13-.06-.19-.11-.2-.15-.41-.28-.63-.39-.11-.06-.23-.1-.34-.15-.09-.04-.18-.08-.27-.11-.14-.05-.29-.09-.44-.12-.08-.02-.16-.04-.25-.05-.13-.02-.25-.04-.38-.05-.07,0-.13-.02-.2-.02-.05,0-.1,0-.15,0-.06,0-.12-.01-.19,0-.1,0-.21.03-.31.04-.1,0-.2.02-.29.04-.17.02-.34.02-.51.06-.6.14-1.17.39-1.68.75-.08.06-.17.11-.26.16-.1.05-.19.11-.29.16-.03.01-.06.03-.09.04-.75.31-1.58.33-2.34.08-.06-.02-.13-.04-.19-.06-.2-.08-.39-.18-.57-.3-.04-.03-.09-.04-.12-.07-.6-.45-1.31-.73-2.05-.82-.03,0-.07,0-.1,0-.12-.01-.24-.03-.36-.03h0c-1.07-.06-2.16.22-3.07.87-1.17.84-2.74.84-3.9,0-1.67-1.18-3.9-1.18-5.57,0-.95.68-2.19.81-3.27.35-.22-.09-.44-.21-.64-.35-.8-.61-1.78-.92-2.79-.88-.38,0-.75.05-1.11.13-.6.14-1.17.39-1.68.75-.55.41-1.22.63-1.91.65-.46,0-.92-.11-1.34-.3-.22-.09-.42-.2-.61-.35-.72-.55-1.6-.85-2.51-.87v1.54c.6.05,1.17.26,1.65.62.5.38,1.08.64,1.69.77.37.08.74.12,1.11.11,1,0,1.97-.3,2.79-.88.57-.41,1.25-.64,1.95-.65.7,0,1.39.22,1.95.65.44.33.94.57,1.47.71.43.12.87.18,1.32.17,1,0,1.97-.3,2.79-.88.27-.19.55-.34.86-.45,1.03-.35,2.16-.19,3.04.45,1.67,1.18,3.9,1.18,5.57,0,.66-.47,1.46-.68,2.25-.61.58.06,1.14.26,1.61.61.5.38,1.08.64,1.69.77.37.08.74.12,1.11.11.05,0,.1,0,.14-.01.11,0,.22-.01.32-.02.22-.02.43-.06.64-.11.08-.02.16-.02.23-.04.04-.01.07-.03.11-.04.04-.01.08-.03.12-.05.44-.15.86-.35,1.24-.62.89-.64,2.03-.8,3.07-.43l.31.13c.07.03.14.08.2.11.1.06.2.12.29.19.44.33.94.57,1.47.71.43.12.87.18,1.32.17,1,0,1.97-.3,2.79-.88.27-.19.55-.34.86-.45,1.03-.35,2.16-.19,3.04.45.22.16.46.29.7.41.08.04.16.06.23.09.16.07.31.13.47.18.03,0,.06.02.09.03.12.03.24.05.36.07.09.02.17.04.26.05.05,0,.1,0,.15.01,1.14.12,2.32-.15,3.3-.85.88-.63,2.02-.8,3.04-.45.3.11.59.26.86.45,1.19.84,2.7,1.1,4.1.7.53-.15,1.02-.39,1.47-.7.89-.64,2.03-.8,3.07-.43l.31.13c.12.06.24.12.36.2l.17.1c.22.16.46.3.71.41l.36.14.46.14.17.06.3.06h.1c.21.02.42.02.64,0,1.01-.03,2-.34,2.85-.88.25-.19.54-.33.84-.43.36-.14.73-.21,1.11-.21.71.02,1.39.27,1.94.7.44.34.94.58,1.47.72.43.12.87.17,1.32.16.57,0,1.14-.11,1.67-.31v-1.73c-.91.54-2.03.62-3.01.21Z"/><path class="cls-12" d="m89.86,42.46l.32.14c.13.06.25.13.37.21l.17.1c.23.17.48.31.74.43l.37.15.47.15.17.06.31.06h.1c.22.02.44.02.66,0,1.05-.03,2.07-.35,2.96-.91.26-.2.56-.35.87-.45.37-.14.76-.22,1.16-.22l-.03-1.53c-1.03.03-2.03.34-2.89.91-.61.39-1.3.62-2.02.67l-.54-.06-.32-.08c-.16-.03-.31-.08-.45-.15h-.08c-.22-.09-.42-.2-.61-.35-.75-.56-1.65-.89-2.59-.94l.87,1.8Z"/><path class="cls-13" d="m16.74,41.81c.42.19.88.29,1.34.3.69-.01,1.35-.24,1.91-.65.51-.35,1.08-.61,1.68-.75.37-.09.74-.13,1.11-.13.11,0,.23.01.34.02h0s.06,0,.09,0c.15,0,.3.02.45.04.2.03.39.07.59.13,0,0,0,0,0,0,.49.15.96.37,1.38.68.19.14.4.26.61.35.07.03.15.05.23.08.18.06.36.13.55.16,0,0,.02,0,.02,0,.84.12,1.71-.08,2.42-.58.52-.37,1.1-.6,1.69-.74,0,0,0,0,.01,0,0,0,0,0,0,0,.37-.08.74-.14,1.12-.13,1-.04,1.98.27,2.77.88.2.14.41.25.64.35.53.23,1.09.31,1.64.25.02,0,.04,0,.06,0,.24-.03.47-.09.7-.17.08-.03.17-.06.25-.1.13-.06.25-.13.37-.2.07-.04.15-.08.22-.13.37-.26.78-.45,1.19-.59.07-.03.14-.06.22-.08.09-.03.19-.04.28-.06.18-.04.37-.08.56-.1.02,0,.05,0,.07,0,.25-.03.5-.03.75-.02h0c.09,0,.17,0,.26.02.38.04.75.12,1.11.25.11.04.21.08.31.13.29.13.58.28.85.46.07.05.15.09.22.13.12.07.24.14.37.2.07.03.15.06.22.09.01,0,.03,0,.04.02.76.25,1.58.24,2.34-.08.03-.01.06-.02.09-.04.1-.04.19-.1.29-.16.09-.05.18-.1.26-.16.51-.35,1.08-.61,1.68-.75.12-.03.24-.03.36-.04.16-.03.32-.05.48-.06.09-.01.18-.03.27-.03.06,0,.12,0,.19,0,.05,0,.1,0,.15,0,.07,0,.13.02.2.02.07,0,.13.02.2.03.02,0,.04,0,.06,0,0,0,0,0,.01,0,.03,0,.07,0,.11.01.08.01.16.04.25.05.15.04.29.07.44.12.03,0,.05.02.08.03.16.06.32.13.47.21.02,0,.04.02.06.02.04.02.07.05.11.07.18.1.37.18.53.3.04.03.08.04.12.07.18.11.36.22.55.29.08.03.16.06.24.08h0c.27.09.54.13.82.15.12,0,.25.02.37,0,.57-.07,1.12-.25,1.61-.54.04-.02.08-.04.12-.06.26-.18.53-.32.81-.45.01,0,.02-.01.04-.02.25-.11.51-.2.78-.26.03,0,.05-.02.07-.02.01,0,.03,0,.04,0,.26-.06.53-.1.79-.11.1,0,.19-.03.29-.03.09,0,.19.01.28.01.02,0,.03,0,.05,0,.02,0,.04,0,.07,0,.87.05,1.7.34,2.4.86.19.14.4.26.62.35.6.25,1.24.3,1.86.19.17-.03.34-.06.5-.11.12-.04.24-.1.35-.16.12-.05.25-.1.37-.17.05-.03.1-.06.15-.09.8-.57,1.74-.85,2.68-.87.06,0,.12-.02.18-.02,1.01-.04,1.99.27,2.8.88.19.14.4.26.62.35.67.28,1.4.32,2.08.15.11-.03.22-.05.33-.1.13-.05.26-.11.39-.17.13-.07.27-.13.39-.21.11-.07.22-.12.34-.18.81-.48,1.71-.72,2.62-.69.05,0,.09,0,.14,0,.13,0,.25.03.38.05.03,0,.06,0,.1.01.21.03.41.08.61.14.04.01.07.02.11.03.15.05.29.11.43.17.3.13.6.28.88.48.21.15.45.27.68.36.08.04.16.06.24.08.21.07.42.13.64.15h.04c.19.02.37,0,.56,0,.61-.08,1.2-.27,1.72-.6.83-.55,1.79-.86,2.79-.88.09,0,.19.01.28.01.02,0,.03,0,.05,0,.02,0,.04,0,.07,0,.87.05,1.7.34,2.4.86.19.14.4.26.62.35.98.41,2.1.33,3.01-.21h0c.09-.05.2-.08.29-.13.43-.29.9-.5,1.39-.65-8.8-13.66-24.13-22.72-41.59-22.72S22.94,27.07,14.13,40.64c.72.1,1.41.37,2,.82.19.14.39.26.61.35Z"/><circle class="cls-5" cx="55.66" cy="67.52" r="49.44"/><path class="cls-12" d="m94.77,52.51c-.91.54-2.03.62-3.01.21-.22-.09-.43-.2-.62-.35-.8-.61-1.79-.92-2.8-.88-.99.02-1.96.33-2.79.88-.59.37-1.26.6-1.95.65h0l-.52-.06-.31-.08c-.15-.03-.3-.08-.43-.14h-.08c-.21-.08-.41-.2-.59-.33-.72-.54-1.59-.86-2.5-.9-1.1-.02-2.18.29-3.1.88-.2.14-.41.25-.64.35-1.07.46-2.31.33-3.27-.35-1.67-1.18-3.9-1.18-5.57,0-1.17.84-2.74.84-3.9,0-1.67-1.18-3.9-1.18-5.57,0-.95.68-2.19.81-3.27.35-.22-.09-.44-.21-.64-.35-.8-.61-1.78-.92-2.79-.88-.38,0-.75.05-1.11.13-.6.14-1.17.39-1.68.75-.55.41-1.22.63-1.91.65-.46,0-.92-.11-1.34-.3-.22-.09-.42-.2-.61-.35-.72-.55-1.6-.85-2.51-.87v1.54c.6.05,1.17.26,1.65.62.5.38,1.08.64,1.69.77.37.08.74.12,1.11.11,1,0,1.97-.3,2.79-.88.57-.41,1.25-.64,1.95-.65.7,0,1.39.22,1.95.65.44.33.94.57,1.47.71.43.12.87.18,1.32.17,1,0,1.97-.3,2.79-.88.27-.19.55-.34.86-.45,1.03-.35,2.16-.19,3.04.45,1.67,1.18,3.9,1.18,5.57,0,.88-.63,2.02-.8,3.04-.45.3.11.59.26.86.45,1.19.84,2.7,1.1,4.1.7.52-.15,1.02-.39,1.47-.7.89-.64,2.03-.8,3.07-.43l.31.13c.12.06.24.12.36.2l.17.1c.22.16.46.3.71.41l.36.14.46.14.17.06.3.06h.1c.21.02.42.02.64,0,1.01-.03,2-.34,2.85-.88.25-.19.54-.33.84-.43.36-.14.73-.21,1.11-.21.71.02,1.39.27,1.94.7.44.34.94.58,1.47.72.43.12.87.17,1.32.16.57,0,1.14-.11,1.67-.31v-1.73Z"/><path class="cls-12" d="m68.01,67.26c-.91.54-2.03.62-3.01.21-.22-.09-.43-.2-.62-.35-.8-.61-1.79-.92-2.8-.88-.99.02-1.96.33-2.79.88-.59.37-1.26.6-1.95.65h0l-.52-.06-.31-.08c-.15-.03-.3-.08-.43-.14h-.08c-.21-.08-.41-.2-.59-.33-.72-.54-1.59-.86-2.5-.9-1.1-.02-2.18.29-3.1.88-.2.14-.41.25-.64.35-1.07.46-2.31.33-3.27-.35-1.67-1.18-3.9-1.18-5.57,0-1.17.84-2.74.84-3.9,0-1.67-1.18-3.9-1.18-5.57,0-.95.68-2.19.81-3.27.35-.22-.09-.44-.21-.64-.35-.8-.61-1.78-.92-2.79-.88-.38,0-.75.05-1.11.13-.6.14-1.17.39-1.68.75-.55.41-1.22.63-1.91.65-.46,0-.92-.11-1.34-.3-.22-.09-.42-.2-.61-.35-.72-.55-1.6-.85-2.51-.87v1.54c.6.05,1.17.26,1.65.62.5.38,1.08.64,1.69.77.37.08.74.12,1.11.11,1,0,1.97-.3,2.79-.88.57-.41,1.25-.64,1.95-.65.7,0,1.39.22,1.95.65.44.33.94.57,1.47.71.43.12.87.18,1.32.17,1,0,1.97-.3,2.79-.88.27-.19.55-.34.86-.45,1.03-.35,2.16-.19,3.04.45,1.67,1.18,3.9,1.18,5.57,0,.88-.63,2.02-.8,3.04-.45.3.11.59.26.86.45,1.19.84,2.7,1.1,4.1.7.52-.15,1.02-.39,1.47-.7.89-.64,2.03-.8,3.07-.43l.31.13c.12.06.24.12.36.2l.17.1c.22.16.46.3.71.41l.36.14.46.14.17.06.3.06h.1c.21.02.42.02.64,0,1.01-.03,2-.34,2.85-.88.25-.19.54-.33.84-.43.36-.14.73-.21,1.11-.21.71.02,1.39.27,1.94.7.44.34.94.58,1.47.72.43.12.87.17,1.32.16.57,0,1.14-.11,1.67-.31v-1.73Z"/><path class="cls-12" d="m79.98,81.19c-.91.54-2.03.62-3.01.21-.22-.09-.43-.2-.62-.35-.8-.61-1.79-.92-2.8-.88-.99.02-1.96.33-2.79.88-.59.37-1.26.6-1.95.65h0l-.52-.06-.31-.08c-.15-.03-.3-.08-.43-.14h-.08c-.21-.08-.41-.2-.59-.33-.72-.54-1.59-.86-2.5-.9-1.1-.02-2.18.29-3.1.88-.2.14-.41.25-.64.35-1.07.46-2.31.33-3.27-.35-1.67-1.18-3.9-1.18-5.57,0-1.17.84-2.74.84-3.9,0-1.67-1.18-3.9-1.18-5.57,0-.95.68-2.19.81-3.27.35-.22-.09-.44-.21-.64-.35-.8-.61-1.78-.92-2.79-.88-.38,0-.75.05-1.11.13-.6.14-1.17.39-1.68.75-.55.41-1.22.63-1.91.65-.46,0-.92-.11-1.34-.3-.22-.09-.42-.2-.61-.35-.72-.55-1.6-.85-2.51-.87v1.54c.6.05,1.17.26,1.65.62.5.38,1.08.64,1.69.77.37.08.74.12,1.11.11,1,0,1.97-.3,2.79-.88.57-.41,1.25-.64,1.95-.65.7,0,1.39.22,1.95.65.44.33.94.57,1.47.71.43.12.87.18,1.32.17,1,0,1.97-.3,2.79-.88.27-.19.55-.34.86-.45,1.03-.35,2.16-.19,3.04.45,1.67,1.18,3.9,1.18,5.57,0,.88-.63,2.02-.8,3.04-.45.3.11.59.26.86.45,1.19.84,2.7,1.1,4.1.7.52-.15,1.02-.39,1.47-.7.89-.64,2.03-.8,3.07-.43l.31.13c.12.06.24.12.36.2l.17.1c.22.16.46.3.71.41l.36.14.46.14.17.06.3.06h.1c.21.02.42.02.64,0,1.01-.03,2-.34,2.85-.88.25-.19.54-.33.84-.43.36-.14.73-.21,1.11-.21.71.02,1.39.27,1.94.7.44.34.94.58,1.47.72.43.12.87.17,1.32.16.57,0,1.14-.11,1.67-.31v-1.73Z"/><path class="cls-12" d="m88.5,96.42c-.91.54-2.03.62-3.01.21-.22-.09-.43-.2-.62-.35-.8-.61-1.79-.92-2.8-.88-.99.02-1.96.33-2.79.88-.59.37-1.26.6-1.95.65h0l-.52-.06-.31-.08c-.15-.03-.3-.08-.43-.14h-.08c-.21-.08-.41-.2-.59-.33-.72-.54-1.59-.86-2.5-.9-1.1-.02-2.18.29-3.1.88-.2.14-.41.25-.64.35-1.07.46-2.31.33-3.27-.35-1.67-1.18-3.9-1.18-5.57,0-1.17.84-2.74.84-3.9,0-1.67-1.18-3.9-1.18-5.57,0-.95.68-2.19.81-3.27.35-.22-.09-.44-.21-.64-.35-.8-.61-1.78-.92-2.79-.88-.38,0-.75.05-1.11.13-.6.14-1.17.39-1.68.75-.55.41-1.22.63-1.91.65-.46,0-.92-.11-1.34-.3-.22-.09-.42-.2-.61-.35-.72-.55-1.6-.85-2.51-.87v1.54c.6.05,1.17.26,1.65.62.5.38,1.08.64,1.69.77.37.08.74.12,1.11.11,1,0,1.97-.3,2.79-.88.57-.41,1.25-.64,1.95-.65.7,0,1.39.22,1.95.65.44.33.94.57,1.47.71.43.12.87.18,1.32.17,1,0,1.97-.3,2.79-.88.27-.19.55-.34.86-.45,1.03-.35,2.16-.19,3.04.45,1.67,1.18,3.9,1.18,5.57,0,.88-.63,2.02-.8,3.04-.45.3.11.59.26.86.45,1.19.84,2.7,1.1,4.1.7.52-.15,1.02-.39,1.47-.7.89-.64,2.03-.8,3.07-.43l.31.13c.12.06.24.12.36.2l.17.1c.22.16.46.3.71.41l.36.14.46.14.17.06.3.06h.1c.21.02.42.02.64,0,1.01-.03,2-.34,2.85-.88.25-.19.54-.33.84-.43.36-.14.73-.21,1.11-.21.71.02,1.39.27,1.94.7.44.34.94.58,1.47.72.43.12.87.17,1.32.16.57,0,1.14-.11,1.67-.31v-1.73Z"/><polygon class="cls-1" points="80.7 32.12 85.14 32.22 96 50.31 84.65 53.8 67.33 53.8 55.66 50.31 66.52 32.22 71.28 32.12 80.7 32.12"/><rect class="cls-4" x="67.33" y="55.62" width="17.32" height="6.96"/><polygon class="cls-3" points="97.14 59.01 84.65 62.58 84.65 55.62 97.14 52.04 97.14 59.01"/><polygon class="cls-3" points="54.85 59.01 67.33 62.58 67.33 55.62 54.85 52.04 54.85 59.01"/><rect class="cls-2" x="67.33" y="53.8" width="17.32" height="1.82"/><polygon class="cls-2" points="84.65 53.8 96.04 50.54 97.14 52.04 84.65 55.62 84.65 53.8"/><polygon class="cls-2" points="67.33 53.8 55.59 50.44 54.85 52.04 67.33 55.62 67.33 53.8"/><polyline class="cls-1" points="67.33 53.47 71.28 32.12 80.7 32.12 84.65 53.47"/><polygon class="cls-1" points="26.35 55.7 30.79 55.8 41.65 73.9 30.3 77.38 12.98 77.38 1.31 73.9 12.17 55.8 16.93 55.7 26.35 55.7"/><rect class="cls-4" x="12.98" y="79.2" width="17.32" height="6.96"/><polygon class="cls-3" points="42.79 82.59 30.3 86.17 30.3 79.2 42.79 75.63 42.79 82.59"/><polygon class="cls-3" points=".5 82.59 12.98 86.17 12.98 79.2 .5 75.63 .5 82.59"/><rect class="cls-2" x="12.98" y="77.38" width="17.32" height="1.82"/><polygon class="cls-2" points="30.3 77.38 41.69 74.12 42.79 75.63 30.3 79.2 30.3 77.38"/><polygon class="cls-2" points="12.98 77.38 1.24 74.02 .5 75.63 12.98 79.2 12.98 77.38"/><polyline class="cls-1" points="12.98 77.06 16.93 55.7 26.35 55.7 30.3 77.06"/><polygon class="cls-1" points="92.54 70.94 96.97 71.04 107.83 89.13 96.49 92.62 79.17 92.62 67.5 89.13 78.36 71.04 83.12 70.94 92.54 70.94"/><rect class="cls-4" x="79.17" y="94.44" width="17.32" height="6.96"/><polygon class="cls-3" points="108.98 97.82 96.49 101.4 96.49 94.44 108.98 90.86 108.98 97.82"/><polygon class="cls-3" points="66.69 97.82 79.17 101.4 79.17 94.44 66.69 90.86 66.69 97.82"/><rect class="cls-2" x="79.17" y="92.62" width="17.32" height="1.82"/><polygon class="cls-2" points="96.49 92.62 107.88 89.36 108.98 90.86 96.49 94.44 96.49 92.62"/><polygon class="cls-2" points="79.17 92.62 67.43 89.26 66.69 90.86 79.17 94.44 79.17 92.62"/><polyline class="cls-1" points="79.17 92.29 83.12 70.94 92.54 70.94 96.49 92.29"/><line class="cls-10" x1="111.98" y1="20.77" x2="111.98" y2="20.77"/><line class="cls-9" x1="114.87" y1="20.77" x2="246.71" y2="20.77"/><line class="cls-10" x1="248.16" y1="20.77" x2="248.16" y2="20.77"/><path class="cls-12" d="m112.67,13.54c-.58-.62-.86-1.49-.86-2.61V3.53c0-1.12.29-1.99.86-2.61.58-.62,1.41-.92,2.49-.92s1.91.31,2.49.92c.58.62.86,1.49.86,2.61v7.39c0,1.12-.29,2-.86,2.61-.58.62-1.41.92-2.49.92s-1.92-.31-2.49-.92Zm3.63-2.47V3.39c0-.92-.38-1.39-1.14-1.39s-1.14.46-1.14,1.39v7.67c0,.92.38,1.39,1.14,1.39s1.14-.46,1.14-1.39Z"/><path class="cls-12" d="m121.26,13.56c-.56-.6-.83-1.45-.83-2.55V3.45c0-1.1.28-1.95.83-2.55s1.36-.9,2.42-.9,1.86.3,2.42.9c.55.6.83,1.45.83,2.55v1.49h-2.09v-1.63c0-.87-.37-1.31-1.1-1.31s-1.1.44-1.1,1.31v7.85c0,.86.37,1.29,1.1,1.29s1.1-.43,1.1-1.29v-2.15h2.09v1.99c0,1.1-.28,1.95-.83,2.55-.56.6-1.36.9-2.42.9s-1.87-.3-2.42-.9Z"/><path class="cls-12" d="m128.82.2h6.03v2.01h-3.82v3.72h3.03v2.01h-3.03v4.32h3.82v2.01h-6.03V.2Z"/><path class="cls-12" d="m138.38.2h2.99l2.29,14.06h-2.21l-.4-2.79v.04h-2.51l-.4,2.75h-2.05l2.29-14.06Zm2.41,9.4l-.98-6.95h-.04l-.96,6.95h1.99Z"/><path class="cls-12" d="m145.29.2h2.77l2.15,8.42h.04V.2h1.97v14.06h-2.27l-2.65-10.26h-.04v10.26h-1.97V.2Z"/><path class="cls-12" d="m159.91.2h2.99l2.29,14.06h-2.21l-.4-2.79v.04h-2.51l-.4,2.75h-2.05l2.29-14.06Zm2.41,9.4l-.98-6.95h-.04l-.96,6.95h1.99Z"/><path class="cls-12" d="m167.47,13.56c-.56-.6-.83-1.45-.83-2.55V3.45c0-1.1.28-1.95.83-2.55s1.36-.9,2.42-.9,1.86.3,2.42.9.83,1.45.83,2.55v1.49h-2.09v-1.63c0-.87-.37-1.31-1.1-1.31s-1.1.44-1.1,1.31v7.85c0,.86.37,1.29,1.1,1.29s1.1-.43,1.1-1.29v-2.15h2.09v1.99c0,1.1-.28,1.95-.83,2.55s-1.36.9-2.42.9-1.86-.3-2.42-.9Z"/><path class="cls-12" d="m175.03.2h2.21v14.06h-2.21V.2Z"/><path class="cls-12" d="m179.45.2h3.37c1.1,0,1.92.29,2.47.88.55.59.82,1.45.82,2.59v7.11c0,1.14-.28,2-.82,2.59-.55.59-1.37.88-2.47.88h-3.37V.2Zm3.33,12.05c.36,0,.64-.11.83-.32.19-.21.29-.56.29-1.04V3.57c0-.48-.1-.83-.29-1.04s-.47-.32-.83-.32h-1.12v10.04h1.12Z"/><path class="cls-12" d="m188.17.2h2.21v14.06h-2.21V.2Z"/><path class="cls-12" d="m192.58.2h5.84v2.01h-3.63v3.92h2.85v2.01h-2.85v6.13h-2.21V.2Z"/><path class="cls-12" d="m200.06.2h2.21v14.06h-2.21V.2Z"/><path class="cls-12" d="m205.17,13.56c-.56-.6-.83-1.45-.83-2.55V3.45c0-1.1.28-1.95.83-2.55s1.36-.9,2.42-.9,1.86.3,2.42.9c.55.6.83,1.45.83,2.55v1.49h-2.09v-1.63c0-.87-.37-1.31-1.1-1.31s-1.1.44-1.1,1.31v7.85c0,.86.37,1.29,1.1,1.29s1.1-.43,1.1-1.29v-2.15h2.09v1.99c0,1.1-.28,1.95-.83,2.55-.56.6-1.36.9-2.42.9s-1.87-.3-2.42-.9Z"/><path class="cls-12" d="m214.43.2h2.99l2.29,14.06h-2.21l-.4-2.79v.04h-2.51l-.4,2.75h-2.05l2.29-14.06Zm2.41,9.4l-.98-6.95h-.04l-.96,6.95h1.99Z"/><path class="cls-12" d="m222.15,2.21h-2.31V.2h6.83v2.01h-2.31v12.05h-2.21V2.21Z"/><path class="cls-12" d="m228.29.2h2.21v14.06h-2.21V.2Z"/><path class="cls-12" d="m233.41,13.54c-.58-.62-.86-1.49-.86-2.61V3.53c0-1.12.29-1.99.86-2.61.58-.62,1.41-.92,2.49-.92s1.91.31,2.49.92c.58.62.86,1.49.86,2.61v7.39c0,1.12-.29,2-.86,2.61-.58.62-1.41.92-2.49.92s-1.92-.31-2.49-.92Zm3.63-2.47V3.39c0-.92-.38-1.39-1.14-1.39s-1.14.46-1.14,1.39v7.67c0,.92.38,1.39,1.14,1.39s1.14-.46,1.14-1.39Z"/><path class="cls-12" d="m241.31.2h2.77l2.15,8.42h.04V.2h1.97v14.06h-2.27l-2.65-10.26h-.04v10.26h-1.97V.2Z"/><rect class="cls-6" x="144.62" y="82.64" width="71.78" height="40.58"/><line class="cls-8" x1="180.31" y1="58.79" x2="180.31" y2="78.44"/><circle class="cls-12" cx="180.31" cy="78.34" r="1.88"/><path class="cls-11" d="m148.23,93.07c0-.51.08-.94.24-1.3.16-.36.45-.76.87-1.2.41-.44.7-.81.86-1.13.16-.31.24-.64.24-.97,0-.3-.05-.52-.15-.63-.1-.12-.24-.18-.43-.18-.39,0-.58.23-.58.7v.76h-1.05v-.69c0-.57.14-1.02.43-1.32.28-.31.7-.46,1.24-.46s.95.15,1.24.46.43.75.43,1.32c0,.43-.1.86-.31,1.27-.21.41-.56.89-1.07,1.42-.33.35-.55.64-.67.86-.11.22-.17.46-.17.71v.15h2.12v1.01h-3.23v-.77Z"/><path class="cls-11" d="m152.9,93.48c-.29-.31-.44-.75-.44-1.32v-3.73c0-.57.15-1.01.44-1.32.29-.31.71-.47,1.26-.47s.97.16,1.26.47c.29.31.44.75.44,1.32v3.73c0,.57-.15,1.01-.44,1.32-.29.31-.71.47-1.26.47s-.97-.16-1.26-.47Zm1.84-1.25v-3.87c0-.47-.19-.7-.58-.7s-.58.23-.58.7v3.87c0,.47.19.7.58.7s.58-.23.58-.7Z"/><path class="cls-11" d="m156.81,93.07c0-.51.08-.94.24-1.3.16-.36.45-.76.87-1.2.41-.44.7-.81.86-1.13.16-.31.24-.64.24-.97,0-.3-.05-.52-.15-.63-.1-.12-.24-.18-.43-.18-.39,0-.58.23-.58.7v.76h-1.05v-.69c0-.57.14-1.02.43-1.32.28-.31.7-.46,1.24-.46s.95.15,1.24.46.43.75.43,1.32c0,.43-.1.86-.31,1.27-.21.41-.56.89-1.07,1.42-.33.35-.55.64-.67.86-.11.22-.17.46-.17.71v.15h2.12v1.01h-3.23v-.77Z"/><path class="cls-11" d="m162.68,88.43h-1.17v-.79c.32,0,.57-.03.77-.08s.35-.14.46-.27c.12-.12.22-.31.3-.54h.75v7.1h-1.12v-5.42Z"/><path class="cls-11" d="m165.41,88.9h1.08v1.08h-1.08v-1.08Zm0,3.86h1.08v1.08h-1.08v-1.08Z"/><path class="cls-11" d="m170.97,88.43h-1.17v-.79c.32,0,.57-.03.77-.08s.35-.14.46-.27c.12-.12.22-.31.3-.54h.75v7.1h-1.12v-5.42Z"/><path class="cls-11" d="m175.88,87.76h-2.25v-1.01h3.35v.97l-1.74,6.13h-1.14l1.79-6.09Z"/><path class="cls-11" d="m178.31,93.49c-.3-.3-.45-.74-.45-1.3v-.63c0-.35.06-.65.17-.89.11-.24.3-.43.56-.56v-.02c-.24-.13-.41-.31-.52-.53-.11-.23-.17-.52-.17-.87v-.29c0-.57.15-1,.44-1.3.29-.3.72-.45,1.26-.45s.97.15,1.26.45c.29.3.44.74.44,1.3v.29c0,.68-.23,1.14-.69,1.4v.02c.26.14.44.32.56.56.12.24.17.54.17.89v.63c0,.57-.15,1-.45,1.3-.3.3-.73.45-1.29.45s-.99-.15-1.29-.45Zm1.92-1.36v-.68c0-.53-.21-.8-.63-.8s-.63.27-.63.8v.68c0,.53.21.8.63.8s.63-.27.63-.8Zm-.04-3.21v-.56c0-.47-.2-.71-.59-.71s-.59.24-.59.71v.56c0,.47.2.71.59.71s.59-.24.59-.71Z"/><path class="cls-11" d="m184.36,93.48c-.28-.31-.42-.75-.42-1.32v-.41h1.05v.49c0,.46.19.69.58.69.19,0,.33-.06.43-.17.1-.11.15-.29.15-.54,0-.3-.07-.56-.2-.79s-.39-.5-.75-.82c-.46-.41-.78-.77-.96-1.1-.18-.33-.27-.7-.27-1.11,0-.56.14-1,.43-1.3s.7-.46,1.24-.46.94.15,1.21.46c.27.31.41.75.41,1.32v.29h-1.06v-.37c0-.24-.05-.42-.14-.53-.09-.11-.23-.17-.42-.17-.37,0-.56.23-.56.68,0,.26.07.5.21.72s.39.49.76.81c.47.41.79.77.96,1.11.18.33.26.72.26,1.17,0,.58-.14,1.03-.43,1.34-.29.31-.71.47-1.25.47s-.95-.15-1.23-.46Z"/><path class="cls-11" d="m189.01,87.76h-1.17v-1.01h3.45v1.01h-1.17v6.09h-1.12v-6.09Z"/><path class="cls-11" d="m192.46,86.74h1.51l1.16,7.1h-1.12l-.2-1.41v.02h-1.27l-.2,1.39h-1.03l1.16-7.1Zm1.22,4.75l-.5-3.51h-.02l-.49,3.51h1Z"/><path class="cls-11" d="m196.31,87.76h-1.17v-1.01h3.45v1.01h-1.17v6.09h-1.12v-6.09Z"/><path class="cls-11" d="m199.36,86.74h1.12v7.1h-1.12v-7.1Z"/><path class="cls-11" d="m201.9,93.48c-.29-.31-.44-.75-.44-1.32v-3.73c0-.57.15-1.01.44-1.32.29-.31.71-.47,1.26-.47s.97.16,1.26.47c.29.31.44.75.44,1.32v3.73c0,.57-.15,1.01-.44,1.32-.29.31-.71.47-1.26.47s-.97-.16-1.26-.47Zm1.84-1.25v-3.87c0-.47-.19-.7-.58-.7s-.58.23-.58.7v3.87c0,.47.19.7.58.7s.58-.23.58-.7Z"/><path class="cls-11" d="m205.83,86.74h1.4l1.09,4.25h.02v-4.25h.99v7.1h-1.15l-1.34-5.18h-.02v5.18h-.99v-7.1Z"/><path class="cls-11" d="m210.62,93.48c-.28-.31-.42-.75-.42-1.32v-.41h1.05v.49c0,.46.19.69.58.69.19,0,.33-.06.43-.17.1-.11.15-.29.15-.54,0-.3-.07-.56-.2-.79s-.39-.5-.75-.82c-.46-.41-.78-.77-.96-1.1-.18-.33-.27-.7-.27-1.11,0-.56.14-1,.43-1.3s.7-.46,1.24-.46.94.15,1.21.46c.27.31.41.75.41,1.32v.29h-1.06v-.37c0-.24-.05-.42-.14-.53-.09-.11-.23-.17-.42-.17-.37,0-.56.23-.56.68,0,.26.07.5.21.72s.39.49.76.81c.47.41.79.77.96,1.11.18.33.26.72.26,1.17,0,.58-.14,1.03-.43,1.34-.29.31-.71.47-1.25.47s-.95-.15-1.23-.46Z"/><path class="cls-11" d="m148.23,106.07c0-.51.08-.94.24-1.3.16-.36.45-.76.87-1.2.41-.44.7-.81.86-1.13.16-.31.24-.64.24-.97,0-.3-.05-.52-.15-.63-.1-.12-.24-.18-.43-.18-.39,0-.58.23-.58.7v.76h-1.05v-.69c0-.57.14-1.02.43-1.32.28-.31.7-.46,1.24-.46s.95.15,1.24.46.43.75.43,1.32c0,.43-.1.86-.31,1.27-.21.41-.56.89-1.07,1.42-.33.35-.55.64-.67.86-.11.22-.17.46-.17.71v.15h2.12v1.01h-3.23v-.77Z"/><path class="cls-11" d="m152.9,106.48c-.29-.31-.44-.75-.44-1.32v-3.73c0-.57.15-1.01.44-1.32.29-.31.71-.47,1.26-.47s.97.16,1.26.47c.29.31.44.75.44,1.32v3.73c0,.57-.15,1.01-.44,1.32-.29.31-.71.47-1.26.47s-.97-.16-1.26-.47Zm1.84-1.25v-3.87c0-.47-.19-.7-.58-.7s-.58.23-.58.7v3.87c0,.47.19.7.58.7s.58-.23.58-.7Z"/><path class="cls-11" d="m156.81,106.07c0-.51.08-.94.24-1.3.16-.36.45-.76.87-1.2.41-.44.7-.81.86-1.13.16-.31.24-.64.24-.97,0-.3-.05-.52-.15-.63-.1-.12-.24-.18-.43-.18-.39,0-.58.23-.58.7v.76h-1.05v-.69c0-.57.14-1.02.43-1.32.28-.31.7-.46,1.24-.46s.95.15,1.24.46.43.75.43,1.32c0,.43-.1.86-.31,1.27-.21.41-.56.89-1.07,1.42-.33.35-.55.64-.67.86-.11.22-.17.46-.17.71v.15h2.12v1.01h-3.23v-.77Z"/><path class="cls-11" d="m161.1,106.07c0-.51.08-.94.24-1.3.16-.36.45-.76.87-1.2.41-.44.7-.81.86-1.13.16-.31.24-.64.24-.97,0-.3-.05-.52-.15-.63-.1-.12-.24-.18-.43-.18-.39,0-.58.23-.58.7v.76h-1.05v-.69c0-.57.14-1.02.43-1.32.28-.31.7-.46,1.24-.46s.95.15,1.24.46.43.75.43,1.32c0,.43-.1.86-.31,1.27-.21.41-.56.89-1.07,1.42-.33.35-.55.64-.67.86-.11.22-.17.46-.17.71v.15h2.12v1.01h-3.23v-.77Z"/><path class="cls-11" d="m165.41,101.9h1.08v1.08h-1.08v-1.08Zm0,3.86h1.08v1.08h-1.08v-1.08Z"/><path class="cls-11" d="m169.75,106.49c-.28-.3-.42-.74-.42-1.31v-.58h1.06v.63c0,.47.19.7.58.7.19,0,.33-.06.43-.18.1-.12.15-.33.15-.62v-.58c0-.32-.06-.56-.17-.69-.12-.14-.3-.21-.56-.21h-.38v-1.01h.41c.22,0,.39-.06.5-.17.11-.11.17-.31.17-.58v-.52c0-.24-.05-.42-.15-.54-.1-.11-.24-.17-.41-.17-.36,0-.54.22-.54.66v.47h-1.05v-.38c0-.57.14-1,.42-1.31.28-.3.68-.46,1.21-.46s.94.15,1.22.45.42.74.42,1.3v.25c0,.39-.06.69-.19.93s-.33.4-.6.5v.02c.29.11.5.28.63.53.13.24.19.55.19.93v.63c0,.57-.14,1-.42,1.3-.28.3-.69.45-1.24.45s-.96-.15-1.24-.46Z"/><path class="cls-11" d="m174.05,106.48c-.29-.31-.44-.75-.44-1.32v-3.73c0-.57.15-1.01.44-1.32.29-.31.71-.47,1.26-.47s.97.16,1.26.47c.29.31.44.75.44,1.32v3.73c0,.57-.15,1.01-.44,1.32-.29.31-.71.47-1.26.47s-.97-.16-1.26-.47Zm1.84-1.25v-3.87c0-.47-.19-.7-.58-.7s-.58.23-.58.7v3.87c0,.47.19.7.58.7s.58-.23.58-.7Z"/><path class="cls-11" d="m178.31,106.49c-.3-.3-.45-.74-.45-1.3v-.63c0-.35.06-.65.17-.89.11-.24.3-.43.56-.56v-.02c-.24-.13-.41-.31-.52-.53-.11-.23-.17-.52-.17-.87v-.29c0-.57.15-1,.44-1.3.29-.3.72-.45,1.26-.45s.97.15,1.26.45c.29.3.44.74.44,1.3v.29c0,.68-.23,1.14-.69,1.4v.02c.26.14.44.32.56.56.12.24.17.54.17.89v.63c0,.57-.15,1-.45,1.3-.3.3-.73.45-1.29.45s-.99-.15-1.29-.45Zm1.92-1.36v-.68c0-.53-.21-.8-.63-.8s-.63.27-.63.8v.68c0,.53.21.8.63.8s.63-.27.63-.8Zm-.04-3.21v-.56c0-.47-.2-.71-.59-.71s-.59.24-.59.71v.56c0,.47.2.71.59.71s.59-.24.59-.71Z"/><path class="cls-11" d="m184.36,106.48c-.28-.31-.42-.75-.42-1.32v-.41h1.05v.49c0,.46.19.69.58.69.19,0,.33-.06.43-.17.1-.11.15-.29.15-.54,0-.3-.07-.56-.2-.79s-.39-.5-.75-.82c-.46-.41-.78-.77-.96-1.1-.18-.33-.27-.7-.27-1.11,0-.56.14-1,.43-1.3s.7-.46,1.24-.46.94.15,1.21.46c.27.31.41.75.41,1.32v.29h-1.06v-.37c0-.24-.05-.42-.14-.53-.09-.11-.23-.17-.42-.17-.37,0-.56.23-.56.68,0,.26.07.5.21.72s.39.49.76.81c.47.41.79.77.96,1.11.18.33.26.72.26,1.17,0,.58-.14,1.03-.43,1.34-.29.31-.71.47-1.25.47s-.95-.15-1.23-.46Z"/><path class="cls-11" d="m189.01,100.76h-1.17v-1.01h3.45v1.01h-1.17v6.09h-1.12v-6.09Z"/><path class="cls-11" d="m192.46,99.74h1.51l1.16,7.1h-1.12l-.2-1.41v.02h-1.27l-.2,1.39h-1.03l1.16-7.1Zm1.22,4.75l-.5-3.51h-.02l-.49,3.51h1Z"/><path class="cls-11" d="m196.31,100.76h-1.17v-1.01h3.45v1.01h-1.17v6.09h-1.12v-6.09Z"/><path class="cls-11" d="m199.36,99.74h1.12v7.1h-1.12v-7.1Z"/><path class="cls-11" d="m201.9,106.48c-.29-.31-.44-.75-.44-1.32v-3.73c0-.57.15-1.01.44-1.32.29-.31.71-.47,1.26-.47s.97.16,1.26.47c.29.31.44.75.44,1.32v3.73c0,.57-.15,1.01-.44,1.32-.29.31-.71.47-1.26.47s-.97-.16-1.26-.47Zm1.84-1.25v-3.87c0-.47-.19-.7-.58-.7s-.58.23-.58.7v3.87c0,.47.19.7.58.7s.58-.23.58-.7Z"/><path class="cls-11" d="m205.83,99.74h1.4l1.09,4.25h.02v-4.25h.99v7.1h-1.15l-1.34-5.18h-.02v5.18h-.99v-7.1Z"/><path class="cls-11" d="m210.62,106.48c-.28-.31-.42-.75-.42-1.32v-.41h1.05v.49c0,.46.19.69.58.69.19,0,.33-.06.43-.17.1-.11.15-.29.15-.54,0-.3-.07-.56-.2-.79s-.39-.5-.75-.82c-.46-.41-.78-.77-.96-1.1-.18-.33-.27-.7-.27-1.11,0-.56.14-1,.43-1.3s.7-.46,1.24-.46.94.15,1.21.46c.27.31.41.75.41,1.32v.29h-1.06v-.37c0-.24-.05-.42-.14-.53-.09-.11-.23-.17-.42-.17-.37,0-.56.23-.56.68,0,.26.07.5.21.72s.39.49.76.81c.47.41.79.77.96,1.11.18.33.26.72.26,1.17,0,.58-.14,1.03-.43,1.34-.29.31-.71.47-1.25.47s-.95-.15-1.23-.46Z"/><path class="cls-11" d="m148.23,119.07c0-.51.08-.94.24-1.3.16-.36.45-.76.87-1.2.41-.44.7-.81.86-1.13.16-.31.24-.64.24-.97,0-.3-.05-.52-.15-.63-.1-.12-.24-.18-.43-.18-.39,0-.58.23-.58.7v.76h-1.05v-.69c0-.57.14-1.02.43-1.32.28-.31.7-.46,1.24-.46s.95.15,1.24.46.43.75.43,1.32c0,.43-.1.86-.31,1.27-.21.41-.56.89-1.07,1.42-.33.35-.55.64-.67.86-.11.22-.17.46-.17.71v.15h2.12v1.01h-3.23v-.77Z"/><path class="cls-11" d="m152.9,119.48c-.29-.31-.44-.75-.44-1.32v-3.73c0-.57.15-1.01.44-1.32.29-.31.71-.47,1.26-.47s.97.16,1.26.47c.29.31.44.75.44,1.32v3.73c0,.57-.15,1.01-.44,1.32-.29.31-.71.47-1.26.47s-.97-.16-1.26-.47Zm1.84-1.25v-3.87c0-.47-.19-.7-.58-.7s-.58.23-.58.7v3.87c0,.47.19.7.58.7s.58-.23.58-.7Z"/><path class="cls-11" d="m156.81,119.07c0-.51.08-.94.24-1.3.16-.36.45-.76.87-1.2.41-.44.7-.81.86-1.13.16-.31.24-.64.24-.97,0-.3-.05-.52-.15-.63-.1-.12-.24-.18-.43-.18-.39,0-.58.23-.58.7v.76h-1.05v-.69c0-.57.14-1.02.43-1.32.28-.31.7-.46,1.24-.46s.95.15,1.24.46.43.75.43,1.32c0,.43-.1.86-.31,1.27-.21.41-.56.89-1.07,1.42-.33.35-.55.64-.67.86-.11.22-.17.46-.17.71v.15h2.12v1.01h-3.23v-.77Z"/><path class="cls-11" d="m161.46,119.49c-.28-.3-.42-.74-.42-1.31v-.58h1.06v.63c0,.47.19.7.58.7.19,0,.33-.06.43-.18.1-.12.15-.33.15-.62v-.58c0-.32-.06-.56-.17-.69-.12-.14-.3-.21-.56-.21h-.38v-1.01h.41c.22,0,.39-.06.5-.17.11-.11.17-.31.17-.58v-.52c0-.24-.05-.42-.15-.54-.1-.11-.24-.17-.41-.17-.36,0-.54.22-.54.66v.47h-1.05v-.38c0-.57.14-1,.42-1.31.28-.3.68-.46,1.21-.46s.94.15,1.22.45.42.74.42,1.3v.25c0,.39-.06.69-.19.93s-.33.4-.6.5v.02c.29.11.5.28.63.53.13.24.19.55.19.93v.63c0,.57-.14,1-.42,1.3-.28.3-.69.45-1.24.45s-.96-.15-1.24-.46Z"/><path class="cls-11" d="m165.41,114.9h1.08v1.08h-1.08v-1.08Zm0,3.86h1.08v1.08h-1.08v-1.08Z"/><path class="cls-12" d="m169.8,119.48c-.28-.31-.43-.75-.43-1.32v-.56h1.06v.64c0,.46.19.69.58.69s.58-.23.58-.69v-1.59c0-.47-.19-.7-.58-.7s-.58.23-.58.7v.06h-1.06l.2-3.97h2.94v1.01h-1.95l-.09,1.69h.02c.21-.35.53-.52.96-.52.41,0,.71.14.92.42.21.28.31.68.31,1.21v1.6c0,.57-.14,1.02-.43,1.32-.28.31-.7.46-1.24.46s-.95-.15-1.24-.46Z"/><path class="cls-12" d="m174.04,119.49c-.28-.3-.42-.74-.42-1.31v-.58h1.06v.63c0,.47.19.7.58.7.19,0,.33-.06.43-.18.1-.12.15-.33.15-.62v-.58c0-.32-.06-.56-.17-.69-.12-.14-.3-.21-.56-.21h-.38v-1.01h.41c.22,0,.39-.06.5-.17.11-.11.17-.31.17-.58v-.52c0-.24-.05-.42-.15-.54-.1-.11-.24-.17-.41-.17-.36,0-.54.22-.54.66v.47h-1.05v-.38c0-.57.14-1,.42-1.31.28-.3.68-.46,1.21-.46s.94.15,1.22.45.42.74.42,1.3v.25c0,.39-.06.69-.19.93s-.33.4-.6.5v.02c.29.11.5.28.63.53.13.24.19.55.19.93v.63c0,.57-.14,1-.42,1.3-.28.3-.69.45-1.24.45s-.96-.15-1.24-.46Z"/><path class="cls-12" d="m178.32,119.48c-.28-.31-.43-.75-.43-1.32v-.13h1.05v.2c0,.47.19.7.58.7.21,0,.37-.06.47-.19.1-.13.15-.35.15-.68v-1.36h-.02c-.2.41-.53.62-1.01.62-.41,0-.71-.14-.92-.42s-.31-.68-.31-1.21v-1.27c0-.57.15-1.01.44-1.32.29-.31.71-.47,1.26-.47s.97.16,1.26.47c.29.31.44.75.44,1.32v3.67c0,1.23-.57,1.85-1.7,1.85-.54,0-.95-.15-1.24-.46Zm1.83-3.88v-1.26c0-.46-.19-.69-.58-.69s-.58.23-.58.69v1.26c0,.47.19.7.58.7s.58-.23.58-.7Z"/><path class="cls-12" d="m184.36,119.48c-.28-.31-.42-.75-.42-1.32v-.41h1.05v.49c0,.46.19.69.58.69.19,0,.33-.06.43-.17.1-.11.15-.29.15-.54,0-.3-.07-.56-.2-.79s-.39-.5-.75-.82c-.46-.41-.78-.77-.96-1.1-.18-.33-.27-.7-.27-1.11,0-.56.14-1,.43-1.3s.7-.46,1.24-.46.94.15,1.21.46c.27.31.41.75.41,1.32v.29h-1.06v-.37c0-.24-.05-.42-.14-.53-.09-.11-.23-.17-.42-.17-.37,0-.56.23-.56.68,0,.26.07.5.21.72s.39.49.76.81c.47.41.79.77.96,1.11.18.33.26.72.26,1.17,0,.58-.14,1.03-.43,1.34-.29.31-.71.47-1.25.47s-.95-.15-1.23-.46Z"/><path class="cls-12" d="m189.01,113.76h-1.17v-1.01h3.45v1.01h-1.17v6.09h-1.12v-6.09Z"/><path class="cls-12" d="m192.46,112.74h1.51l1.16,7.1h-1.12l-.2-1.41v.02h-1.27l-.2,1.39h-1.03l1.16-7.1Zm1.22,4.75l-.5-3.51h-.02l-.49,3.51h1Z"/><path class="cls-12" d="m196.31,113.76h-1.17v-1.01h3.45v1.01h-1.17v6.09h-1.12v-6.09Z"/><path class="cls-12" d="m199.36,112.74h1.12v7.1h-1.12v-7.1Z"/><path class="cls-12" d="m201.9,119.48c-.29-.31-.44-.75-.44-1.32v-3.73c0-.57.15-1.01.44-1.32.29-.31.71-.47,1.26-.47s.97.16,1.26.47c.29.31.44.75.44,1.32v3.73c0,.57-.15,1.01-.44,1.32-.29.31-.71.47-1.26.47s-.97-.16-1.26-.47Zm1.84-1.25v-3.87c0-.47-.19-.7-.58-.7s-.58.23-.58.7v3.87c0,.47.19.7.58.7s.58-.23.58-.7Z"/><path class="cls-12" d="m205.83,112.74h1.4l1.09,4.25h.02v-4.25h.99v7.1h-1.15l-1.34-5.18h-.02v5.18h-.99v-7.1Z"/><path class="cls-12" d="m210.62,119.48c-.28-.31-.42-.75-.42-1.32v-.41h1.05v.49c0,.46.19.69.58.69.19,0,.33-.06.43-.17.1-.11.15-.29.15-.54,0-.3-.07-.56-.2-.79s-.39-.5-.75-.82c-.46-.41-.78-.77-.96-1.1-.18-.33-.27-.7-.27-1.11,0-.56.14-1,.43-1.3s.7-.46,1.24-.46.94.15,1.21.46c.27.31.41.75.41,1.32v.29h-1.06v-.37c0-.24-.05-.42-.14-.53-.09-.11-.23-.17-.42-.17-.37,0-.56.23-.56.68,0,.26.07.5.21.72s.39.49.76.81c.47.41.79.77.96,1.11.18.33.26.72.26,1.17,0,.58-.14,1.03-.43,1.34-.29.31-.71.47-1.25.47s-.95-.15-1.23-.46Z"/><rect class="cls-14" x="120.75" y="42.18" width="119.1" height="17.93"/><path class="cls-11" d="m111.72,27.21h2.62c.91,0,1.57.21,1.99.63.42.42.63,1.07.63,1.95v.69c0,1.17-.39,1.91-1.16,2.22v.03c.43.13.73.39.91.79.18.4.27.93.27,1.59v1.98c0,.32,0,.58.03.78.02.2.07.39.16.59h-1.8c-.06-.18-.11-.35-.13-.51s-.03-.45-.03-.87v-2.06c0-.51-.08-.87-.25-1.08s-.45-.31-.86-.31h-.61v4.82h-1.77v-11.25Zm2.41,4.82c.35,0,.62-.09.79-.27s.26-.49.26-.92v-.87c0-.41-.07-.7-.22-.88s-.37-.27-.68-.27h-.8v3.21h.64Z"/><path class="cls-11" d="m118.61,27.21h4.82v1.61h-3.05v2.97h2.43v1.61h-2.43v3.45h3.05v1.61h-4.82v-11.25Z"/><path class="cls-11" d="m124.86,27.21h2.6c.88,0,1.54.24,1.98.71.44.47.66,1.16.66,2.07v1.11c0,.91-.22,1.6-.66,2.07-.44.47-1.1.71-1.98.71h-.83v4.58h-1.77v-11.25Zm2.6,5.06c.29,0,.51-.08.65-.24s.22-.43.22-.82v-1.33c0-.39-.07-.66-.22-.82s-.36-.24-.65-.24h-.83v3.45h.83Z"/><path class="cls-11" d="m132.05,37.88c-.46-.49-.69-1.19-.69-2.09v-5.91c0-.9.23-1.6.69-2.09.46-.49,1.12-.74,1.99-.74s1.53.25,1.99.74c.46.49.69,1.19.69,2.09v5.91c0,.9-.23,1.6-.69,2.09-.46.49-1.12.74-1.99.74s-1.53-.25-1.99-.74Zm2.91-1.98v-6.14c0-.74-.31-1.11-.92-1.11s-.92.37-.92,1.11v6.14c0,.74.31,1.11.92,1.11s.92-.37.92-1.11Z"/><path class="cls-11" d="m138.33,27.21h2.62c.91,0,1.57.21,1.99.63.42.42.63,1.07.63,1.95v.69c0,1.17-.39,1.91-1.16,2.22v.03c.43.13.73.39.91.79.18.4.27.93.27,1.59v1.98c0,.32,0,.58.03.78.02.2.07.39.16.59h-1.8c-.06-.18-.11-.35-.13-.51s-.03-.45-.03-.87v-2.06c0-.51-.08-.87-.25-1.08s-.45-.31-.86-.31h-.61v4.82h-1.77v-11.25Zm2.41,4.82c.35,0,.62-.09.79-.27s.26-.49.26-.92v-.87c0-.41-.07-.7-.22-.88s-.37-.27-.68-.27h-.8v3.21h.64Z"/><path class="cls-11" d="m146.57,28.82h-1.85v-1.61h5.46v1.61h-1.85v9.64h-1.77v-9.64Z"/><path class="cls-11" d="m151.45,27.21h1.77v11.25h-1.77v-11.25Z"/><path class="cls-11" d="m154.96,27.21h2.22l1.72,6.73h.03v-6.73h1.57v11.25h-1.82l-2.12-8.21h-.03v8.21h-1.57v-11.25Z"/><path class="cls-11" d="m162.78,37.89c-.45-.49-.67-1.19-.67-2.1v-5.91c0-.91.22-1.61.67-2.1.45-.49,1.1-.73,1.96-.73s1.51.24,1.96.73.67,1.19.67,2.1v.96h-1.67v-1.08c0-.74-.31-1.11-.92-1.11s-.92.37-.92,1.11v6.15c0,.73.31,1.09.92,1.09s.92-.36.92-1.09v-2.2h-.88v-1.61h2.55v3.68c0,.91-.22,1.61-.67,2.1s-1.1.73-1.96.73-1.51-.24-1.96-.73Z"/><path class="cls-11" d="m172.28,37.89c-.44-.49-.66-1.19-.66-2.1v-.64h1.67v.77c0,.73.3,1.09.92,1.09.3,0,.53-.09.68-.27s.23-.46.23-.86c0-.47-.11-.89-.32-1.25-.21-.36-.61-.79-1.19-1.29-.73-.64-1.24-1.22-1.53-1.74s-.43-1.11-.43-1.76c0-.89.22-1.58.67-2.06.45-.49,1.1-.73,1.96-.73s1.49.24,1.92.73.65,1.19.65,2.1v.47h-1.67v-.58c0-.39-.08-.67-.22-.84-.15-.18-.37-.27-.66-.27-.59,0-.88.36-.88,1.08,0,.41.11.79.33,1.14.22.35.62.78,1.2,1.29.74.64,1.25,1.23,1.53,1.75s.42,1.14.42,1.85c0,.92-.23,1.63-.68,2.12-.46.49-1.12.74-1.98.74s-1.5-.24-1.94-.73Z"/><path class="cls-11" d="m179.7,28.82h-1.85v-1.61h5.46v1.61h-1.85v9.64h-1.77v-9.64Z"/><path class="cls-11" d="m185.21,27.21h2.39l1.83,11.25h-1.77l-.32-2.23v.03h-2.01l-.32,2.2h-1.64l1.83-11.25Zm1.93,7.52l-.79-5.56h-.03l-.77,5.56h1.59Z"/><path class="cls-11" d="m191.35,28.82h-1.85v-1.61h5.46v1.61h-1.85v9.64h-1.77v-9.64Z"/><path class="cls-11" d="m196.23,27.21h1.77v11.25h-1.77v-11.25Z"/><path class="cls-11" d="m200.3,37.88c-.46-.49-.69-1.19-.69-2.09v-5.91c0-.9.23-1.6.69-2.09.46-.49,1.12-.74,1.99-.74s1.53.25,1.99.74c.46.49.69,1.19.69,2.09v5.91c0,.9-.23,1.6-.69,2.09-.46.49-1.12.74-1.99.74s-1.53-.25-1.99-.74Zm2.91-1.98v-6.14c0-.74-.3-1.11-.92-1.11s-.92.37-.92,1.11v6.14c0,.74.31,1.11.92,1.11s.92-.37.92-1.11Z"/><path class="cls-11" d="m206.58,27.21h2.22l1.72,6.73h.03v-6.73h1.57v11.25h-1.82l-2.12-8.21h-.03v8.21h-1.58v-11.25Z"/><path class="cls-11" d="m214.21,37.89c-.44-.49-.66-1.19-.66-2.1v-.64h1.67v.77c0,.73.3,1.09.92,1.09.3,0,.53-.09.68-.27s.23-.46.23-.86c0-.47-.11-.89-.32-1.25-.21-.36-.61-.79-1.19-1.29-.73-.64-1.24-1.22-1.53-1.74s-.43-1.11-.43-1.76c0-.89.22-1.58.67-2.06.45-.49,1.1-.73,1.96-.73s1.49.24,1.92.73.65,1.19.65,2.1v.47h-1.67v-.58c0-.39-.08-.67-.22-.84-.15-.18-.37-.27-.66-.27-.59,0-.88.36-.88,1.08,0,.41.11.79.33,1.14.22.35.62.78,1.2,1.29.74.64,1.25,1.23,1.53,1.75s.42,1.14.42,1.85c0,.92-.23,1.63-.68,2.12-.46.49-1.12.74-1.98.74s-1.5-.24-1.94-.73Z"/><path class="cls-11" d="m223.24,27.21h1.77v4.58h1.9v-4.58h1.77v11.25h-1.77v-5.06h-1.9v5.06h-1.77v-11.25Z"/><path class="cls-11" d="m231.77,27.21h2.39l1.83,11.25h-1.77l-.32-2.23v.03h-2.01l-.32,2.2h-1.64l1.83-11.25Zm1.93,7.52l-.79-5.56h-.03l-.77,5.56h1.59Z"/><path class="cls-11" d="m236.35,27.21h1.78l1.16,8.72h.03l1.16-8.72h1.62l-1.7,11.25h-2.35l-1.7-11.25Z"/><path class="cls-11" d="m243.37,27.21h4.82v1.61h-3.05v2.97h2.43v1.61h-2.43v3.45h3.05v1.61h-4.82v-11.25Z"/><path class="cls-12" d="m125.11,46.82h-1.85v-1.61h5.46v1.61h-1.85v9.64h-1.77v-9.64Z"/><path class="cls-12" d="m130.4,45.21h2.62c.91,0,1.57.21,1.99.63.42.42.63,1.07.63,1.95v.69c0,1.17-.39,1.91-1.16,2.22v.03c.43.13.73.39.91.79.18.4.26.93.26,1.59v1.98c0,.32.01.58.03.78s.08.39.16.59h-1.8c-.06-.18-.11-.35-.13-.51s-.03-.45-.03-.87v-2.06c0-.51-.08-.87-.25-1.08s-.45-.31-.86-.31h-.61v4.82h-1.77v-11.25Zm2.41,4.82c.35,0,.62-.09.8-.27s.26-.49.26-.92v-.87c0-.41-.07-.7-.22-.88s-.37-.27-.68-.27h-.8v3.21h.64Z"/><path class="cls-12" d="m137.69,45.21h1.77v11.25h-1.77v-11.25Z"/><path class="cls-12" d="m141.6,45.21h2.6c.88,0,1.54.24,1.98.71s.66,1.16.66,2.07v1.11c0,.91-.22,1.6-.66,2.07-.44.47-1.1.71-1.98.71h-.84v4.58h-1.77v-11.25Zm2.6,5.06c.29,0,.51-.08.65-.24s.22-.43.22-.82v-1.33c0-.39-.07-.66-.22-.82s-.36-.24-.65-.24h-.84v3.45h.84Z"/><path class="cls-12" d="m148.62,45.21h1.77v9.64h2.91v1.61h-4.68v-11.25Z"/><path class="cls-12" d="m154.96,45.21h4.82v1.61h-3.05v2.97h2.43v1.61h-2.43v3.45h3.05v1.61h-4.82v-11.25Z"/><path class="cls-12" d="m161.62,45.21h2.7c.88,0,1.54.24,1.98.71.44.47.66,1.16.66,2.07v5.69c0,.91-.22,1.6-.66,2.07-.44.47-1.1.71-1.98.71h-2.7v-11.25Zm2.67,9.64c.29,0,.51-.09.67-.26s.23-.45.23-.84v-5.85c0-.39-.08-.66-.23-.84s-.38-.26-.67-.26h-.9v8.03h.9Z"/><path class="cls-12" d="m171.93,45.21h1.7l.79,8.64h.03l.83-8.64h1.93l.84,8.64h.03l.79-8.64h1.53l-1.14,11.25h-2.2l-.8-7.58h-.03l-.8,7.58h-2.35l-1.14-11.25Z"/><path class="cls-12" d="m182.68,55.88c-.46-.49-.69-1.19-.69-2.09v-5.91c0-.9.23-1.6.69-2.09.46-.49,1.12-.74,1.99-.74s1.53.25,1.99.74c.46.49.69,1.19.69,2.09v5.91c0,.9-.23,1.6-.69,2.09-.46.49-1.12.74-1.99.74s-1.53-.25-1.99-.74Zm2.91-1.98v-6.14c0-.74-.31-1.11-.92-1.11s-.92.37-.92,1.11v6.14c0,.74.31,1.11.92,1.11s.92-.37.92-1.11Z"/><path class="cls-12" d="m189.36,45.21h2.62c.91,0,1.57.21,1.99.63.42.42.63,1.07.63,1.95v.69c0,1.17-.39,1.91-1.16,2.22v.03c.43.13.73.39.91.79.18.4.26.93.26,1.59v1.98c0,.32.01.58.03.78s.08.39.16.59h-1.8c-.06-.18-.11-.35-.13-.51s-.03-.45-.03-.87v-2.06c0-.51-.08-.87-.25-1.08s-.45-.31-.86-.31h-.61v4.82h-1.77v-11.25Zm2.41,4.82c.35,0,.62-.09.8-.27s.26-.49.26-.92v-.87c0-.41-.07-.7-.22-.88s-.37-.27-.68-.27h-.8v3.21h.64Z"/><path class="cls-12" d="m196.66,45.21h1.77v9.64h2.91v1.61h-4.67v-11.25Z"/><path class="cls-12" d="m203,45.21h2.7c.88,0,1.54.24,1.98.71.44.47.66,1.16.66,2.07v5.69c0,.91-.22,1.6-.66,2.07-.44.47-1.1.71-1.98.71h-2.7v-11.25Zm2.67,9.64c.29,0,.51-.09.67-.26s.23-.45.23-.84v-5.85c0-.39-.08-.66-.23-.84s-.38-.26-.67-.26h-.9v8.03h.9Z"/><path class="cls-12" d="m209.93,45.21h1.7l.79,8.64h.03l.83-8.64h1.93l.84,8.64h.03l.79-8.64h1.53l-1.14,11.25h-2.2l-.8-7.58h-.03l-.8,7.58h-2.35l-1.14-11.25Z"/><path class="cls-12" d="m220.11,45.21h1.77v11.25h-1.77v-11.25Z"/><path class="cls-12" d="m224.02,45.21h2.7c.88,0,1.54.24,1.98.71.44.47.66,1.16.66,2.07v5.69c0,.91-.22,1.6-.66,2.07-.44.47-1.1.71-1.98.71h-2.7v-11.25Zm2.67,9.64c.29,0,.51-.09.67-.26s.23-.45.23-.84v-5.85c0-.39-.08-.66-.23-.84s-.38-.26-.67-.26h-.9v8.03h.9Z"/><path class="cls-12" d="m231.36,45.21h4.82v1.61h-3.05v2.97h2.43v1.61h-2.43v3.45h3.05v1.61h-4.82v-11.25Z"/></g></svg>