<?xml version="1.0" encoding="UTF-8"?>
<svg id="Layer_2" data-name="Layer 2" xmlns="http://www.w3.org/2000/svg" viewBox="0 0 217.37 283.14">
  <defs>
    <style>
      .cls-1 {
        fill: #fff;
      }

      .cls-2 {
        fill: #939598;
      }

      .cls-3 {
        fill: #4c764a;
      }

      .cls-4 {
        fill: #40ae49;
      }

      .cls-5 {
        fill: none;
        stroke: #40ae49;
        stroke-miterlimit: 10;
      }
    </style>
  </defs>
  <g id="Layer_2-2" data-name="Layer 2">
    <path class="cls-3" d="M196.55,278.51h-15.36c-.84-5.56-2-11.1-3.61-16.59-.69-2.37-1.5-4.74-2.39-7.09,.89-2.46,1.9-4.87,3.06-7.26,3.49-7.4,8.17-14.51,14.14-21.1-7.13,5.9-12.98,12.73-17.54,20.03-.64,1.02-1.27,2.07-1.84,3.11-1.59-3.55-3.43-7.05-5.54-10.44,.43-1,.87-2,1.36-3,3.52-7.37,8.16-14.49,14.16-21.08-7.13,5.89-12.98,12.73-17.57,20.01-.12,.17-.2,.33-.29,.5-4.18-6.05-9.29-11.68-15.32-16.66,5.63,6.2,10.1,12.86,13.5,19.77-3.07,5.49-5.48,11.19-7.34,16.98-.06-.09-.12-.17-.18-.26-4-5.56-8.82-10.76-14.43-15.4,5.26,5.79,9.5,11.99,12.84,18.41,.2,.39,.39,.79,.59,1.19-1.73,6.23-2.94,12.53-3.7,18.86h-3.64c-.64-6.46-1.72-12.92-3.32-19.31,1.19-1.49,2.41-2.97,3.72-4.4-1.37,1.14-2.68,2.32-3.95,3.52-.31-1.2-.6-2.39-.94-3.58-1.44-4.94-3.32-9.79-5.6-14.53,.89-2.48,1.93-4.94,3.09-7.38,3.49-7.37,8.16-14.49,14.14-21.08-7.1,5.89-12.98,12.73-17.54,20.03-.75,1.22-1.5,2.46-2.16,3.72-.66-1.26-1.42-2.5-2.17-3.72-4.56-7.31-10.41-14.14-17.54-20.03,5.97,6.59,10.64,13.7,14.13,21.08,1.15,2.44,2.19,4.9,3.09,7.38-2.28,4.74-4.13,9.59-5.6,14.53-2.28,7.84-3.72,15.8-4.5,23.77h-.16c-.14-3.68-.34-7.36-.73-11.04-.75-8.07-2.22-16.1-4.53-24.02-2.31-7.9-5.68-15.64-10.21-22.97-4.59-7.29-10.44-14.12-17.57-20.01,6,6.59,10.64,13.7,14.17,21.08,.23,.48,.43,.94,.63,1.41-3.49,3.09-6.66,6.42-9.46,9.92-3.41-4.22-7.3-8.2-11.68-11.83,3.95,4.37,7.36,8.96,10.18,13.73-1.59,2.05-3.06,4.16-4.39,6.31-.81,1.33-1.59,2.65-2.31,4-4.01-5.57-8.83-10.77-14.42-15.4,5.25,5.79,9.49,11.98,12.83,18.4-2.38,4.65-4.28,9.44-5.79,14.3-1.35-1.4-2.73-2.78-4.19-4.09,1.82-2.49,3.79-4.91,5.94-7.27-2.43,2.03-4.75,4.16-6.9,6.4-.61-.55-1.26-1.09-1.9-1.62,.56,.62,1.12,1.25,1.66,1.88-.52,.51-1.01,1.06-1.5,1.59-.92,1.01-1.81,2.04-2.67,3.08-.62-3.77-1.4-7.52-2.37-11.25,2.39-3.55,5.05-7,8.08-10.31-3.12,2.59-6,5.33-8.63,8.24-.14-.48-.26-.94-.4-1.41-1.7-5.81-3.98-11.55-6.86-17.08,2.19-3.26,4.7-6.44,7.47-9.51-3,2.5-5.8,5.16-8.34,7.96-.75-1.46-1.59-2.91-2.48-4.33-4.59-7.31-10.45-14.14-17.57-20.03,6,6.59,10.65,13.7,14.17,21.08,1.07,2.22,2.02,4.48,2.86,6.76-2.28,2.76-4.33,5.63-6.17,8.59-2.05,3.31-3.87,6.7-5.42,10.16-.66-1.2-1.35-2.37-2.08-3.52-4.56-7.31-10.42-14.15-17.54-20.04,5.97,6.59,10.64,13.7,14.14,21.1,1.24,2.57,2.31,5.16,3.26,7.77-1.01,2.48-1.85,4.98-2.6,7.51-1.4,4.78-2.47,9.6-3.27,14.46H0v4.63H217.37c0-1.32,0-3.19,0-4.63h-20.82Zm-24.68-12.79c.7,4.24,1.15,8.51,1.43,12.78h-3.7c.32-2.73,.7-5.47,1.24-8.2,.32-1.52,.63-3.07,1.04-4.59h0Zm-6.26-21.93c1.7,3.98,3.06,8.03,4.12,12.12-2.11,4.42-3.81,8.96-5.13,13.55-.08,.27-.13,.54-.21,.81-1.1-2.4-2.36-4.75-3.68-7.08,.21-1.42,.42-2.84,.69-4.26,1.04-5.09,2.39-10.16,4.21-15.14h0Zm-5.9,27.89c.74,2.26,1.38,4.54,1.96,6.82h-2.37c.09-2.28,.23-4.55,.42-6.82h0Zm-20.75,6.82h-6.44c.38-.88,.73-1.76,1.16-2.64,.16-.39,.38-.78,.56-1.18,1.24-2.47,2.63-4.89,4.11-7.3,.34,3.7,.52,7.4,.61,11.12h0Zm-5.95-22.9c.52-2.57,1.13-5.13,1.85-7.7,.72,2.56,1.33,5.13,1.84,7.7,.57,2.93,.97,5.87,1.31,8.82-1.51,1.72-2.96,3.47-4.29,5.29-.99,1.34-1.91,2.69-2.79,4.06,.31-6.09,.91-12.15,2.08-18.17h0Zm-28.93-32.26c3.09,6.81,5.13,13.88,6.58,20.97,1.5,7.74,2.08,15.57,2.25,23.4,.03,2,.03,3.98,0,5.96-.66-3.24-1.47-6.44-2.39-9.64-2.31-7.92-5.68-15.66-10.24-22.97-1.33-2.13-2.77-4.24-4.39-6.29,2.34-3.94,5.08-7.77,8.19-11.44h0Zm-12.15,18.79c.78-1.61,1.59-3.22,2.48-4.79,.87,1.57,1.7,3.18,2.45,4.79,3.55,7.37,5.86,15.03,7.41,22.78,.86,4.5,1.43,9.04,1.79,13.59h-4.96c-.47-1.96-.97-3.91-1.53-5.85-2.31-7.9-5.69-15.64-10.24-22.95-.12-.2-.23-.37-.38-.56,.87-2.37,1.88-4.7,2.97-7.01h0Zm-7.41,22.78c.75-3.7,1.67-7.4,2.83-11.03,2.77,6.42,4.67,13.01,6,19.64,.32,1.65,.6,3.31,.84,4.98h-3.29c-.51-.89-1-1.79-1.55-2.67-.12-.21-.23-.37-.37-.56-.87-1.38-1.76-2.75-2.74-4.07-.73-1.01-1.49-2-2.27-2.98,.18-1.1,.35-2.2,.56-3.3h0Zm2.15,13.59h-3.94c.17-2.18,.41-4.35,.69-6.51,.41,.73,.84,1.46,1.22,2.2,.42,.9,.87,1.78,1.29,2.68,.25,.54,.49,1.09,.74,1.63h0Zm-14.17-17.17c.58-.88,1.19-1.75,1.82-2.61,1.43,1.71,2.75,3.47,4.02,5.24,0,.03-.02,.05-.03,.08-1.4,4.78-2.48,9.6-3.29,14.46h-3.99c-.13-2.29-.29-4.58-.54-6.87-.18-1.97-.42-3.93-.69-5.9,.86-1.48,1.75-2.95,2.7-4.41h0Zm-10.48,10.58c0,.29,0,.58,0,.87-1.1,1.88-2.13,3.79-3.09,5.72h-4.05c1.43-5.64,3.34-11.23,5.95-16.64,.17-.39,.37-.78,.58-1.18,.35,3.72,.52,7.48,.61,11.23h0Zm-9.58-29.78c1.13-2.37,2.37-4.7,3.75-7,1.5,4.39,2.68,8.87,3.58,13.36,.46,2.39,.83,4.81,1.12,7.22-1.24,1.67-2.39,3.37-3.46,5.09-2.08,3.37-3.92,6.83-5.51,10.35-.06-.15-.09-.33-.14-.48-1.3-4.48-2.94-8.9-4.96-13.23,1.38-5.2,3.23-10.31,5.62-15.31h0Zm-7.84,25.19c.37,1.39,.66,2.81,.95,4.2,.45,2.32,.8,4.64,1.1,6.98h-3.4c.29-3.74,.71-7.46,1.35-11.18h0Z"/>
    <rect class="cls-4" x="125.63" y="160.56" width="17.05" height="15.24"/>
    <g>
      <path class="cls-2" d="M63.99,71.24v-6.99c0-2.13,1.12-3.34,3.17-3.34s3.17,1.22,3.17,3.34v6.99c0,2.13-1.12,3.34-3.17,3.34s-3.17-1.22-3.17-3.34Zm4.26,.13v-7.26c0-.95-.42-1.31-1.08-1.31s-1.08,.36-1.08,1.31v7.26c0,.95,.42,1.31,1.08,1.31s1.08-.36,1.08-1.31Z"/>
      <path class="cls-2" d="M71.74,61.09h5.53v1.9h-3.44v3.7h2.7v1.9h-2.7v5.79h-2.09v-13.3Z"/>
      <path class="cls-2" d="M81.32,61.09h2.09v5.41h2.24v-5.41h2.09v13.3h-2.09v-5.98h-2.24v5.98h-2.09v-13.3Z"/>
      <path class="cls-2" d="M89.3,61.09h5.7v1.9h-3.61v3.51h2.87v1.9h-2.87v4.08h3.61v1.9h-5.7v-13.3Z"/>
      <path class="cls-2" d="M97.81,61.09h2.83l2.17,13.3h-2.09l-.38-2.64v.04h-2.38l-.38,2.6h-1.94l2.17-13.3Zm2.28,8.89l-.93-6.57h-.04l-.91,6.57h1.88Z"/>
      <path class="cls-2" d="M103.81,61.09h2.09v11.4h3.44v1.9h-5.53v-13.3Z"/>
      <path class="cls-2" d="M110.5,62.99h-2.18v-1.9h6.46v1.9h-2.18v11.4h-2.09v-11.4Z"/>
      <path class="cls-2" d="M115.78,61.09h2.09v5.41h2.24v-5.41h2.09v13.3h-2.09v-5.98h-2.24v5.98h-2.09v-13.3Z"/>
      <path class="cls-2" d="M125.68,68.73l-2.53-7.64h2.22l1.42,4.88h.04l1.42-4.88h2.03l-2.53,7.64v5.66h-2.09v-5.66Z"/>
      <path class="cls-2" d="M135.9,61.09h2.83l2.17,13.3h-2.09l-.38-2.64v.04h-2.38l-.38,2.6h-1.94l2.17-13.3Zm2.28,8.89l-.93-6.57h-.04l-.91,6.57h1.88Z"/>
      <path class="cls-2" d="M141.91,61.09h2.62l2.03,7.96h.04v-7.96h1.86v13.3h-2.15l-2.51-9.71h-.04v9.71h-1.86v-13.3Z"/>
      <path class="cls-2" d="M150.02,61.09h3.19c2.09,0,3.12,1.16,3.12,3.29v6.73c0,2.13-1.03,3.29-3.12,3.29h-3.19v-13.3Zm3.15,11.4c.66,0,1.06-.34,1.06-1.29v-6.92c0-.95-.4-1.29-1.06-1.29h-1.06v9.5h1.06Z"/>
      <path class="cls-2" d="M45.43,82.09h3.08c2.09,0,3.12,1.16,3.12,3.29v1.31c0,2.13-1.03,3.29-3.12,3.29h-.99v5.41h-2.09v-13.3Zm3.08,5.98c.67,0,1.03-.3,1.03-1.25v-1.58c0-.95-.36-1.25-1.03-1.25h-.99v4.08h.99Z"/>
      <path class="cls-2" d="M52.76,82.09h3.1c2.17,0,3.1,1.01,3.1,3.06v.82c0,1.37-.44,2.24-1.37,2.62v.04c1.04,.32,1.39,1.31,1.39,2.81v2.34c0,.65,.02,1.12,.23,1.61h-2.13c-.11-.34-.19-.55-.19-1.63v-2.43c0-1.23-.36-1.63-1.31-1.63h-.72v5.7h-2.09v-13.3Zm2.85,5.7c.78,0,1.25-.34,1.25-1.41v-1.03c0-.95-.32-1.37-1.06-1.37h-.95v3.8h.76Z"/>
      <path class="cls-2" d="M60.26,92.24v-6.99c0-2.13,1.12-3.34,3.17-3.34s3.17,1.22,3.17,3.34v6.99c0,2.13-1.12,3.34-3.17,3.34s-3.17-1.22-3.17-3.34Zm4.26,.13v-7.26c0-.95-.42-1.31-1.08-1.31s-1.08,.36-1.08,1.31v7.26c0,.95,.42,1.31,1.08,1.31s1.08-.36,1.08-1.31Z"/>
      <path class="cls-2" d="M68.02,82.09h3.19c2.09,0,3.12,1.16,3.12,3.29v6.73c0,2.13-1.03,3.29-3.12,3.29h-3.19v-13.3Zm3.15,11.4c.66,0,1.06-.34,1.06-1.29v-6.92c0-.95-.4-1.29-1.06-1.29h-1.06v9.5h1.06Z"/>
      <path class="cls-2" d="M75.65,92.24v-10.14h2.09v10.3c0,.95,.4,1.29,1.06,1.29s1.06-.34,1.06-1.29v-10.3h2.01v10.14c0,2.13-1.06,3.34-3.12,3.34s-3.12-1.22-3.12-3.34Z"/>
      <path class="cls-2" d="M83.23,92.31v-7.14c0-2.05,1.06-3.27,3.08-3.27s3.08,1.22,3.08,3.27v1.41h-1.98v-1.54c0-.87-.42-1.23-1.04-1.23s-1.04,.36-1.04,1.23v7.43c0,.87,.42,1.22,1.04,1.22s1.04-.34,1.04-1.22v-2.03h1.98v1.88c0,2.05-1.06,3.27-3.08,3.27s-3.08-1.22-3.08-3.27Z"/>
      <path class="cls-2" d="M92.28,83.99h-2.18v-1.9h6.46v1.9h-2.18v11.4h-2.09v-11.4Z"/>
      <path class="cls-2" d="M97.56,82.09h2.09v13.3h-2.09v-13.3Z"/>
      <path class="cls-2" d="M100.66,82.09h2.11l1.37,10.32h.04l1.37-10.32h1.92l-2.01,13.3h-2.77l-2.01-13.3Z"/>
      <path class="cls-2" d="M108.47,82.09h5.7v1.9h-3.61v3.51h2.87v1.9h-2.87v4.08h3.61v1.9h-5.7v-13.3Z"/>
      <path class="cls-2" d="M118.4,82.09h2.09v11.4h3.44v1.9h-5.53v-13.3Z"/>
      <path class="cls-2" d="M126.63,82.09h2.83l2.17,13.3h-2.09l-.38-2.64v.04h-2.38l-.38,2.6h-1.94l2.17-13.3Zm2.28,8.89l-.93-6.57h-.04l-.91,6.57h1.88Z"/>
      <path class="cls-2" d="M132.63,82.09h2.62l2.03,7.96h.04v-7.96h1.86v13.3h-2.15l-2.51-9.71h-.04v9.71h-1.86v-13.3Z"/>
      <path class="cls-2" d="M140.75,82.09h3.19c2.09,0,3.12,1.16,3.12,3.29v6.73c0,2.13-1.03,3.29-3.12,3.29h-3.19v-13.3Zm3.15,11.4c.66,0,1.06-.34,1.06-1.29v-6.92c0-.95-.4-1.29-1.06-1.29h-1.06v9.5h1.06Z"/>
      <path class="cls-2" d="M151.01,82.09h2.01l.93,10.22h.04l.99-10.22h2.28l.99,10.22h.04l.93-10.22h1.8l-1.35,13.3h-2.6l-.95-8.97h-.04l-.95,8.97h-2.77l-1.35-13.3Z"/>
      <path class="cls-2" d="M163.43,82.09h2.83l2.17,13.3h-2.09l-.38-2.64v.04h-2.38l-.38,2.6h-1.94l2.17-13.3Zm2.28,8.89l-.93-6.57h-.04l-.91,6.57h1.88Z"/>
      <path class="cls-2" d="M169.02,92.24v-.76h1.98v.91c0,.95,.42,1.29,1.08,1.29s1.08-.34,1.08-1.33c0-1.1-.42-1.8-1.79-3-1.75-1.54-2.32-2.62-2.32-4.14,0-2.09,1.08-3.31,3.12-3.31s3.04,1.22,3.04,3.34v.55h-1.98v-.68c0-.95-.38-1.31-1.04-1.31s-1.04,.36-1.04,1.27c0,.97,.44,1.67,1.81,2.87,1.75,1.54,2.3,2.6,2.3,4.26,0,2.17-1.1,3.38-3.15,3.38s-3.08-1.22-3.08-3.34Z"/>
      <path class="cls-4" d="M45.3,103.09h3.19c2.09,0,3.12,1.16,3.12,3.29v6.73c0,2.13-1.03,3.29-3.12,3.29h-3.19v-13.3Zm3.15,11.4c.66,0,1.06-.34,1.06-1.29v-6.92c0-.95-.4-1.29-1.06-1.29h-1.06v9.5h1.06Z"/>
      <path class="cls-4" d="M53.02,103.09h5.7v1.9h-3.61v3.51h2.87v1.9h-2.87v4.08h3.61v1.9h-5.7v-13.3Z"/>
      <path class="cls-4" d="M59.76,113.24v-6.99c0-2.13,1.06-3.34,3.12-3.34s3.12,1.22,3.12,3.34v1.14h-1.98v-1.27c0-.95-.42-1.31-1.08-1.31s-1.08,.36-1.08,1.31v7.28c0,.95,.42,1.29,1.08,1.29s1.08-.34,1.08-1.29v-2.6h-1.04v-1.9h3.02v4.35c0,2.13-1.06,3.34-3.12,3.34s-3.12-1.22-3.12-3.34Z"/>
      <path class="cls-4" d="M67.34,103.09h3.1c2.17,0,3.1,1.01,3.1,3.06v.82c0,1.37-.44,2.24-1.37,2.62v.04c1.04,.32,1.39,1.31,1.39,2.81v2.34c0,.65,.02,1.12,.23,1.61h-2.13c-.11-.34-.19-.55-.19-1.63v-2.43c0-1.23-.36-1.63-1.31-1.63h-.72v5.7h-2.09v-13.3Zm2.85,5.7c.78,0,1.25-.34,1.25-1.41v-1.03c0-.95-.32-1.37-1.06-1.37h-.95v3.8h.76Z"/>
      <path class="cls-4" d="M76.61,103.09h2.83l2.17,13.3h-2.09l-.38-2.64v.04h-2.38l-.38,2.6h-1.94l2.17-13.3Zm2.28,8.89l-.93-6.57h-.04l-.91,6.57h1.88Z"/>
      <path class="cls-4" d="M82.62,103.09h3.19c2.09,0,3.12,1.16,3.12,3.29v6.73c0,2.13-1.03,3.29-3.12,3.29h-3.19v-13.3Zm3.15,11.4c.66,0,1.06-.34,1.06-1.29v-6.92c0-.95-.4-1.29-1.06-1.29h-1.06v9.5h1.06Z"/>
      <path class="cls-4" d="M90.33,103.09h5.7v1.9h-3.61v3.51h2.87v1.9h-2.87v4.08h3.61v1.9h-5.7v-13.3Z"/>
      <path class="cls-4" d="M97.23,103.09h3.19c2.09,0,3.12,1.16,3.12,3.29v6.73c0,2.13-1.03,3.29-3.12,3.29h-3.19v-13.3Zm3.15,11.4c.66,0,1.06-.34,1.06-1.29v-6.92c0-.95-.4-1.29-1.06-1.29h-1.06v9.5h1.06Z"/>
      <path class="cls-4" d="M107.98,103.09h5.7v1.9h-3.61v3.51h2.87v1.9h-2.87v4.08h3.61v1.9h-5.7v-13.3Z"/>
      <path class="cls-4" d="M114.33,103.09h2.11l1.37,10.32h.04l1.37-10.32h1.92l-2.01,13.3h-2.77l-2.01-13.3Z"/>
      <path class="cls-4" d="M122.14,103.09h5.7v1.9h-3.61v3.51h2.87v1.9h-2.87v4.08h3.61v1.9h-5.7v-13.3Z"/>
      <path class="cls-4" d="M129.03,103.09h3.1c2.17,0,3.1,1.01,3.1,3.06v.82c0,1.37-.44,2.24-1.37,2.62v.04c1.04,.32,1.39,1.31,1.39,2.81v2.34c0,.65,.02,1.12,.23,1.61h-2.13c-.11-.34-.19-.55-.19-1.63v-2.43c0-1.23-.36-1.63-1.31-1.63h-.72v5.7h-2.09v-13.3Zm2.85,5.7c.78,0,1.25-.34,1.25-1.41v-1.03c0-.95-.32-1.37-1.06-1.37h-.95v3.8h.76Z"/>
      <path class="cls-4" d="M138.31,110.73l-2.53-7.64h2.22l1.42,4.88h.04l1.42-4.88h2.03l-2.53,7.64v5.66h-2.09v-5.66Z"/>
      <path class="cls-4" d="M148.83,110.73l-2.53-7.64h2.22l1.42,4.88h.04l1.42-4.88h2.03l-2.53,7.64v5.66h-2.09v-5.66Z"/>
      <path class="cls-4" d="M154.4,103.09h5.7v1.9h-3.61v3.51h2.87v1.9h-2.87v4.08h3.61v1.9h-5.7v-13.3Z"/>
      <path class="cls-4" d="M162.91,103.09h2.83l2.17,13.3h-2.09l-.38-2.64v.04h-2.38l-.38,2.6h-1.94l2.17-13.3Zm2.28,8.89l-.93-6.57h-.04l-.91,6.57h1.88Z"/>
      <path class="cls-4" d="M168.91,103.09h3.1c2.17,0,3.1,1.01,3.1,3.06v.82c0,1.37-.44,2.24-1.37,2.62v.04c1.04,.32,1.39,1.31,1.39,2.81v2.34c0,.65,.02,1.12,.23,1.61h-2.13c-.11-.34-.19-.55-.19-1.63v-2.43c0-1.23-.36-1.63-1.31-1.63h-.72v5.7h-2.09v-13.3Zm2.85,5.7c.78,0,1.25-.34,1.25-1.41v-1.03c0-.95-.32-1.37-1.06-1.37h-.95v3.8h.76Z"/>
    </g>
    <g>
      <path class="cls-3" d="M56.67,163.66h4.2v1.4h-2.66v2.59h2.12v1.4h-2.12v3.01h2.66v1.4h-4.2v-9.81Z"/>
      <path class="cls-3" d="M65.28,173.44c-.29,.11-.64,.17-1.02,.17-1.51,0-2.34-.9-2.34-2.47v-5.15c0-1.57,.83-2.47,2.34-2.47s2.34,.9,2.34,2.47v5.15c0,.67-.15,1.2-.43,1.61,.11,.2,.29,.22,.57,.22h.24v1.4h-.41c-.57,0-1.11-.21-1.29-.94Zm-.22-2.2v-5.35c0-.7-.31-.97-.8-.97s-.8,.27-.8,.97v5.35c0,.7,.31,.97,.8,.97s.8-.27,.8-.97Z"/>
      <path class="cls-3" d="M67.86,171.14v-7.48h1.54v7.59c0,.7,.29,.95,.78,.95s.78-.25,.78-.95v-7.59h1.48v7.48c0,1.57-.78,2.47-2.3,2.47s-2.3-.9-2.3-2.47Z"/>
      <path class="cls-3" d="M73.82,163.66h1.54v9.81h-1.54v-9.81Z"/>
      <path class="cls-3" d="M76.38,163.66h1.56l1.01,7.61h.03l1.01-7.61h1.41l-1.48,9.81h-2.05l-1.48-9.81Z"/>
      <path class="cls-3" d="M83.22,163.66h2.09l1.6,9.81h-1.54l-.28-1.95v.03h-1.75l-.28,1.92h-1.43l1.6-9.81Zm1.68,6.56l-.69-4.85h-.03l-.67,4.85h1.39Z"/>
      <path class="cls-3" d="M87.92,163.66h1.54v8.4h2.54v1.4h-4.08v-9.81Z"/>
      <path class="cls-3" d="M93.02,163.66h4.2v1.4h-2.66v2.59h2.12v1.4h-2.12v3.01h2.66v1.4h-4.2v-9.81Z"/>
      <path class="cls-3" d="M98.38,163.66h1.93l1.5,5.87h.03v-5.87h1.37v9.81h-1.58l-1.85-7.16h-.03v7.16h-1.37v-9.81Z"/>
      <path class="cls-3" d="M105.84,165.06h-1.61v-1.4h4.76v1.4h-1.61v8.4h-1.54v-8.4Z"/>
      <path class="cls-3" d="M113.74,165.06h-1.61v-1.4h4.76v1.4h-1.61v8.4h-1.54v-8.4Z"/>
      <path class="cls-3" d="M117.74,171.14v-5.15c0-1.57,.83-2.47,2.34-2.47s2.34,.9,2.34,2.47v5.15c0,1.57-.83,2.47-2.34,2.47s-2.34-.9-2.34-2.47Zm3.14,.1v-5.35c0-.7-.31-.97-.8-.97s-.8,.27-.8,.97v5.35c0,.7,.31,.97,.8,.97s.8-.27,.8-.97Z"/>
      <path class="cls-1" d="M128.74,172.4c0-1.4,.39-2.26,1.54-3.46,1.18-1.25,1.51-1.99,1.51-2.9s-.31-1.12-.8-1.12-.8,.27-.8,.97v1.05h-1.46v-.95c0-1.57,.78-2.47,2.3-2.47s2.3,.9,2.3,2.47c0,1.16-.48,2.2-1.9,3.71-.92,.98-1.16,1.47-1.16,2.16v.21h2.93v1.4h-4.45v-1.06Z"/>
      <path class="cls-1" d="M136.01,168.45l-1.69-4.79h1.62l1.04,3.17h.03l1.06-3.17h1.46l-1.69,4.79,1.78,5.01h-1.62l-1.12-3.42h-.03l-1.15,3.42h-1.46l1.78-5.01Z"/>
      <path class="cls-3" d="M146.86,165.06h-1.61v-1.4h4.76v1.4h-1.61v8.4h-1.54v-8.4Z"/>
      <path class="cls-3" d="M151.03,163.66h1.54v3.99h1.65v-3.99h1.54v9.81h-1.54v-4.41h-1.65v4.41h-1.54v-9.81Z"/>
      <path class="cls-3" d="M157.19,163.66h4.2v1.4h-2.66v2.59h2.12v1.4h-2.12v3.01h2.66v1.4h-4.2v-9.81Z"/>
      <path class="cls-3" d="M65.79,187.14v-.56h1.46v.67c0,.7,.31,.95,.8,.95s.8-.25,.8-.98c0-.81-.31-1.33-1.32-2.21-1.29-1.13-1.71-1.93-1.71-3.05,0-1.54,.8-2.44,2.3-2.44s2.24,.9,2.24,2.47v.41h-1.46v-.5c0-.7-.28-.97-.77-.97s-.77,.27-.77,.94c0,.71,.32,1.23,1.33,2.12,1.29,1.13,1.7,1.92,1.7,3.14,0,1.6-.81,2.49-2.33,2.49s-2.27-.9-2.27-2.47Z"/>
      <path class="cls-3" d="M71.55,179.66h1.54v9.81h-1.54v-9.81Z"/>
      <path class="cls-3" d="M74.21,188.09l2.86-7.03h-2.72v-1.4h4.37v1.37l-2.86,7.03h2.86v1.4h-4.51v-1.37Z"/>
      <path class="cls-3" d="M79.86,179.66h4.2v1.4h-2.66v2.59h2.12v1.4h-2.12v3.01h2.66v1.4h-4.2v-9.81Z"/>
      <path class="cls-3" d="M87.63,187.14v-5.15c0-1.57,.83-2.47,2.34-2.47s2.34,.9,2.34,2.47v5.15c0,1.57-.83,2.47-2.34,2.47s-2.34-.9-2.34-2.47Zm3.14,.1v-5.35c0-.7-.31-.97-.8-.97s-.8,.27-.8,.97v5.35c0,.7,.31,.97,.8,.97s.8-.27,.8-.97Z"/>
      <path class="cls-3" d="M93.62,179.66h4.08v1.4h-2.54v2.73h1.99v1.4h-1.99v4.27h-1.54v-9.81Z"/>
      <path class="cls-3" d="M101.13,187.14v-5.15c0-1.57,.78-2.47,2.3-2.47s2.3,.9,2.3,2.47v.84h-1.46v-.94c0-.7-.31-.97-.8-.97s-.8,.27-.8,.97v5.36c0,.7,.31,.95,.8,.95s.8-.25,.8-.95v-1.92h-.77v-1.4h2.23v3.21c0,1.57-.78,2.47-2.3,2.47s-2.3-.9-2.3-2.47Z"/>
      <path class="cls-3" d="M106.99,179.66h2.28c1.6,0,2.28,.74,2.28,2.25v.6c0,1.01-.32,1.65-1.01,1.93v.03c.77,.24,1.02,.97,1.02,2.07v1.72c0,.48,.01,.83,.17,1.19h-1.57c-.08-.25-.14-.41-.14-1.2v-1.79c0-.91-.27-1.2-.97-1.2h-.53v4.2h-1.54v-9.81Zm2.1,4.2c.57,0,.92-.25,.92-1.04v-.76c0-.7-.24-1.01-.78-1.01h-.7v2.8h.56Z"/>
      <path class="cls-3" d="M112.92,179.66h4.2v1.4h-2.66v2.59h2.12v1.4h-2.12v3.01h2.66v1.4h-4.2v-9.81Z"/>
      <path class="cls-3" d="M118.28,179.66h4.2v1.4h-2.66v2.59h2.12v1.4h-2.12v3.01h2.66v1.4h-4.2v-9.81Z"/>
      <path class="cls-3" d="M123.64,179.66h1.93l1.5,5.87h.03v-5.87h1.37v9.81h-1.58l-1.85-7.16h-.03v7.16h-1.37v-9.81Z"/>
      <path class="cls-3" d="M129.9,179.66h1.54v8.4h2.54v1.4h-4.08v-9.81Z"/>
      <path class="cls-3" d="M136.24,179.66h2.09l1.6,9.81h-1.54l-.28-1.95v.03h-1.75l-.28,1.92h-1.43l1.6-9.81Zm1.68,6.56l-.69-4.85h-.03l-.67,4.85h1.39Z"/>
      <path class="cls-3" d="M140.94,179.66h1.93l1.5,5.87h.03v-5.87h1.37v9.81h-1.58l-1.85-7.16h-.03v7.16h-1.37v-9.81Z"/>
      <path class="cls-3" d="M147.2,179.66h2.35c1.54,0,2.3,.85,2.3,2.42v4.96c0,1.57-.76,2.42-2.3,2.42h-2.35v-9.81Zm2.33,8.4c.49,0,.78-.25,.78-.95v-5.1c0-.7-.29-.95-.78-.95h-.78v7h.78Z"/>
    </g>
    <g>
      <path class="cls-2" d="M70.52,124.6h4.08v1.4h-2.54v2.73h1.99v1.4h-1.99v4.27h-1.54v-9.81Z"/>
      <path class="cls-2" d="M75.61,124.6h2.28c1.6,0,2.28,.74,2.28,2.25v.6c0,1.01-.32,1.65-1.01,1.93v.03c.77,.24,1.02,.97,1.02,2.07v1.72c0,.48,.01,.83,.17,1.19h-1.57c-.08-.25-.14-.41-.14-1.2v-1.79c0-.91-.27-1.2-.97-1.2h-.53v4.2h-1.54v-9.81Zm2.1,4.2c.57,0,.92-.25,.92-1.04v-.76c0-.7-.24-1.01-.78-1.01h-.7v2.8h.56Z"/>
      <path class="cls-2" d="M81.42,132.08v-5.15c0-1.57,.83-2.47,2.34-2.47s2.34,.9,2.34,2.47v5.15c0,1.57-.83,2.47-2.34,2.47s-2.34-.9-2.34-2.47Zm3.14,.1v-5.35c0-.7-.31-.97-.8-.97s-.8,.27-.8,.97v5.35c0,.7,.31,.97,.8,.97s.8-.27,.8-.97Z"/>
      <path class="cls-2" d="M87.41,124.6h2.2l.98,7.02h.03l.98-7.02h2.2v9.81h-1.46v-7.42h-.03l-1.12,7.42h-1.29l-1.12-7.42h-.03v7.42h-1.34v-9.81Z"/>
      <path class="cls-2" d="M97.72,133.34c0-1.4,.39-2.26,1.54-3.46,1.18-1.25,1.51-1.99,1.51-2.9s-.31-1.12-.8-1.12-.8,.27-.8,.97v1.05h-1.46v-.95c0-1.57,.78-2.47,2.3-2.47s2.3,.9,2.3,2.47c0,1.16-.48,2.2-1.9,3.71-.92,.98-1.16,1.47-1.16,2.16v.21h2.93v1.4h-4.45v-1.06Z"/>
      <path class="cls-2" d="M103.51,132.08v-5.15c0-1.57,.83-2.47,2.34-2.47s2.34,.9,2.34,2.47v5.15c0,1.57-.83,2.47-2.34,2.47s-2.34-.9-2.34-2.47Zm3.14,.1v-5.35c0-.7-.31-.97-.8-.97s-.8,.27-.8,.97v5.35c0,.7,.31,.97,.8,.97s.8-.27,.8-.97Z"/>
      <path class="cls-2" d="M111.66,126.93h-1.61v-1.09c1.3,0,1.77-.28,2.12-1.23h1.04v9.81h-1.54v-7.48Z"/>
      <path class="cls-2" d="M115.34,132.08v-.77h1.46v.88c0,.7,.31,.95,.8,.95s.8-.25,.8-.95v-2.2c0-.7-.31-.97-.8-.97s-.8,.27-.8,.97v.08h-1.46l.28-5.48h4.06v1.4h-2.69l-.13,2.34h.03c.28-.46,.71-.71,1.33-.71,1.13,0,1.71,.8,1.71,2.24v2.21c0,1.57-.78,2.47-2.3,2.47s-2.3-.9-2.3-2.47Z"/>
      <path class="cls-2" d="M120.69,128.87h4.2v1.26h-4.2v-1.26Z"/>
      <path class="cls-2" d="M125.72,133.34c0-1.4,.39-2.26,1.54-3.46,1.18-1.25,1.51-1.99,1.51-2.9s-.31-1.12-.8-1.12-.8,.27-.8,.97v1.05h-1.46v-.95c0-1.57,.78-2.47,2.3-2.47s2.3,.9,2.3,2.47c0,1.16-.48,2.2-1.9,3.71-.92,.98-1.16,1.47-1.16,2.16v.21h2.93v1.4h-4.45v-1.06Z"/>
      <path class="cls-2" d="M131.51,132.08v-5.15c0-1.57,.83-2.47,2.34-2.47s2.34,.9,2.34,2.47v5.15c0,1.57-.83,2.47-2.34,2.47s-2.34-.9-2.34-2.47Zm3.14,.1v-5.35c0-.7-.31-.97-.8-.97s-.8,.27-.8,.97v5.35c0,.7,.31,.97,.8,.97s.8-.27,.8-.97Z"/>
      <path class="cls-2" d="M139.66,126.93h-1.61v-1.09c1.3,0,1.77-.28,2.12-1.23h1.04v9.81h-1.54v-7.48Z"/>
      <path class="cls-2" d="M143.26,132.08v-.18h1.46v.28c0,.7,.31,.97,.8,.97,.55,0,.85-.27,.85-1.2v-1.88h-.03c-.27,.56-.71,.85-1.4,.85-1.13,0-1.71-.8-1.71-2.24v-1.75c0-1.57,.83-2.47,2.34-2.47s2.34,.9,2.34,2.47v5.07c0,1.65-.76,2.55-2.35,2.55-1.51,0-2.3-.9-2.3-2.47Zm3.11-3.53v-1.74c0-.64-.27-.95-.8-.95s-.8,.31-.8,.95v1.74c0,.66,.27,.97,.8,.97s.8-.31,.8-.97Z"/>
    </g>
    <line class="cls-5" x1="70.25" y1="138.57" x2="147.55" y2="138.57"/>
    <line class="cls-5" x1="134.07" y1="138.64" x2="134.07" y2="153.35"/>
    <circle class="cls-5" cx="134.07" cy="155.1" r="1.93"/>
    <g>
      <g>
        <path class="cls-4" d="M46.56,6.38h-4.17V3.55c3.37,0,4.57-.72,5.47-3.19h2.68V25.73h-3.99V6.38Z"/>
        <path class="cls-4" d="M55.18,19.71V6.38c0-4.06,2.14-6.38,6.05-6.38s6.05,2.32,6.05,6.38v13.34c0,4.06-2.14,6.38-6.05,6.38s-6.05-2.32-6.05-6.38Zm8.12,.25V6.12c0-1.81-.8-2.5-2.07-2.5s-2.07,.69-2.07,2.5v13.84c0,1.81,.8,2.5,2.07,2.5s2.07-.69,2.07-2.5Z"/>
        <path class="cls-4" d="M69.68,19.71V6.38c0-4.06,2.14-6.38,6.05-6.38s6.05,2.32,6.05,6.38v13.34c0,4.06-2.14,6.38-6.05,6.38s-6.05-2.32-6.05-6.38Zm8.12,.25V6.12c0-1.81-.8-2.5-2.07-2.5s-2.07,.69-2.07,2.5v13.84c0,1.81,.8,2.5,2.07,2.5s2.07-.69,2.07-2.5Z"/>
        <path class="cls-4" d="M90.26,.36h5.69l2.54,18.16h.07L101.1,.36h5.69V25.73h-3.77V6.52h-.07l-2.9,19.21h-3.33l-2.9-19.21h-.07V25.73h-3.48V.36Z"/>
        <path class="cls-4" d="M109.75,.36h3.99V25.73h-3.99V.36Z"/>
        <path class="cls-4" d="M116.71,.36h3.99V22.11h6.56v3.62h-10.55V.36Z"/>
        <path class="cls-4" d="M129.18,.36h3.99V22.11h6.56v3.62h-10.55V.36Z"/>
        <path class="cls-4" d="M141.64,.36h3.99V25.73h-3.99V.36Z"/>
        <path class="cls-4" d="M148.31,19.71V6.38c0-4.06,2.14-6.38,6.05-6.38s6.05,2.32,6.05,6.38v13.34c0,4.06-2.14,6.38-6.05,6.38s-6.05-2.32-6.05-6.38Zm8.12,.25V6.12c0-1.81-.8-2.5-2.07-2.5s-2.07,.69-2.07,2.5v13.84c0,1.81,.8,2.5,2.07,2.5s2.07-.69,2.07-2.5Z"/>
        <path class="cls-4" d="M163.09,.36h5l3.88,15.18h.07V.36h3.55V25.73h-4.09l-4.78-18.52h-.07V25.73h-3.55V.36Z"/>
      </g>
      <g>
        <rect class="cls-3" x="41.11" y="31.4" width="134.65" height="23.91"/>
        <g>
          <path class="cls-1" d="M67.27,35.83h2.42v6.27h2.6v-6.27h2.42v15.4h-2.42v-6.93h-2.6v6.93h-2.42v-15.4Z"/>
          <path class="cls-1" d="M78.71,35.83h6.6v2.2h-4.18v4.07h3.32v2.2h-3.32v4.73h4.18v2.2h-6.6v-15.4Z"/>
          <path class="cls-1" d="M88.74,47.67v-8.27c0-2.38,1.23-3.78,3.56-3.78s3.56,1.41,3.56,3.78v1.63h-2.29v-1.78c0-1.01-.48-1.43-1.21-1.43s-1.21,.42-1.21,1.43v8.6c0,1.01,.48,1.41,1.21,1.41s1.21-.4,1.21-1.41v-2.35h2.29v2.18c0,2.38-1.23,3.78-3.56,3.78s-3.56-1.41-3.56-3.78Z"/>
          <path class="cls-1" d="M101.41,38.03h-2.53v-2.2h7.48v2.2h-2.53v13.2h-2.42v-13.2Z"/>
          <path class="cls-1" d="M110.58,35.83h3.28l2.51,15.4h-2.42l-.44-3.06v.04h-2.75l-.44,3.01h-2.24l2.51-15.4Zm2.64,10.3l-1.08-7.61h-.04l-1.06,7.61h2.18Z"/>
          <path class="cls-1" d="M119.74,35.83h3.59c2.51,0,3.59,1.17,3.59,3.54v.95c0,1.58-.51,2.6-1.58,3.04v.04c1.21,.37,1.61,1.52,1.61,3.26v2.71c0,.75,.02,1.3,.26,1.87h-2.46c-.13-.4-.22-.64-.22-1.89v-2.82c0-1.43-.42-1.89-1.52-1.89h-.84v6.6h-2.42v-15.4Zm3.3,6.6c.9,0,1.45-.4,1.45-1.63v-1.19c0-1.1-.37-1.58-1.23-1.58h-1.1v4.4h.88Z"/>
          <path class="cls-1" d="M130.8,35.83h6.6v2.2h-4.18v4.07h3.32v2.2h-3.32v4.73h4.18v2.2h-6.6v-15.4Z"/>
          <path class="cls-1" d="M140.61,47.58v-.88h2.29v1.06c0,1.1,.48,1.5,1.25,1.5s1.25-.4,1.25-1.54c0-1.28-.48-2.09-2.07-3.48-2.02-1.78-2.68-3.04-2.68-4.8,0-2.42,1.25-3.83,3.61-3.83s3.52,1.41,3.52,3.87v.64h-2.29v-.79c0-1.1-.44-1.52-1.21-1.52s-1.21,.42-1.21,1.47c0,1.12,.51,1.94,2.09,3.32,2.02,1.78,2.66,3.01,2.66,4.93,0,2.51-1.28,3.92-3.65,3.92s-3.56-1.41-3.56-3.87Z"/>
        </g>
      </g>
    </g>
  </g>
</svg>