<?xml version="1.0" encoding="UTF-8"?>
<svg id="Layer_2" data-name="Layer 2" xmlns="http://www.w3.org/2000/svg" viewBox="0 0 301.66 157.68">
  <defs>
    <style>
      .cls-1 {
        fill: #fff;
      }

      .cls-2 {
        fill: #939598;
      }

      .cls-3 {
        stroke-dasharray: 0 0 0 2.93;
      }

      .cls-3, .cls-4 {
        fill: none;
        stroke: #40ae49;
        stroke-linecap: round;
        stroke-linejoin: round;
        stroke-width: 1.75px;
      }

      .cls-5 {
        fill: #40ae49;
      }

      .cls-6 {
        fill: #d0e5c9;
      }
    </style>
  </defs>
  <g id="Layer_2-2" data-name="Layer 2">
    <path class="cls-6" d="M9.13,96.69c1.64-.9,4.03,2.01,6.27,2.46,2.24,.44,3.73-.74,3.73-.74,0,0,.15-3.27,1.64-3.42,1.49-.15,2.39,1.22,2.39,1.22h.9s.48-1.55,1.82-1.7c1.35-.15,1.99,2.17,1.99,2.17l1.64-.07s-.07-2.54,1.27-2.54,1.56,1.57,2.01,1.86l2.16-.37s-.02-2.16,1.55-2.39c.79-.12,1.36,1.34,2.11,1.94l2.46-.45s-1.04-2.2,1.04-2.76c1.64-.45,1.42,2.26,3.05,1.81,1.63-.45,.08-3.34-.07-5.28-.15-1.94,2.04-2,4.18-2.05,2.77-.07,1.64,4.4,1.64,6.34s4.48,3.14,5.08,5.64c.6,2.5-2.69,4.95-5.97,5.7-3.28,.75-7.16,2.83-15.07,3.58-7.91,.75-10.45,2.98-13.88,2.83-3.43-.15-4.77-1.2-5.52-2.4-.75-1.19-4.63-4.95-6.42-6.29-1.79-1.34-1.64-4.21,0-5.1h0Zm-8.35-1.65c-1.05-2.98-1.05-7.91,.03-9.69,1.04-1.79,4.11-4.03,4.18-4.92,.08-.9-1.04-3.28-1.79-4.7-.75-1.42-.45-6.42,1.49-6.72,1.94-.3,2.09,6.12,5.97,5.97,3.88-.15,4.92-1.64,6.87-1.64s8.65,.89,9.69,.6c1.04-.29,6.57-2.68,8.06-4.32,1.49-1.64,4.63-4.77,2.99-5.52-1.65-.75-11.49-1.64-16.42-3.43-4.92-1.79-11.34-5.37-13.13-6.86-1.79-1.49,1.05-.9,3.73,0,2.68,.9,12.09,2.24,16.26,1.94,4.18-.3-5.67-4.77-8.06-7.91-2.39-3.13-3.14-6.12-2.24-6.27,.9-.15,3.43,3.88,8.51,4.78,5.07,.89,12.83,.44,15.96,2.24,3.13,1.79,8.5,8.21,11.19,9.85,2.68,1.64,10.14-.3,14.17-4.62,4.03-4.33,10-16.26,14.17-17.31,4.18-1.04,3.44,1.79,3.14,3.14-.3,1.34,3.58,2.24,3.58,4.62s-1.79,5.52-1.79,5.52c0,0,2.09,2.39,1.79,4.63-.3,2.24-2.54,4.18-2.54,4.18,0,0,1.35,3.73,.75,5.22-.6,1.49-2.69,2.62-2.69,2.62,0,0,.89,3.95-.3,5.89-1.2,1.94-2.99,2.39-2.99,2.39,0,0,.15,4.03-.89,5.37-1.04,1.34-3.58,3.43-3.58,3.43,0,0,0,4.18-1.79,5.37-1.79,1.19-4.18,2.24-7.16,.15-2.99-2.09-3.59-2.99-5.08-2.61-1.49,.38-1.94,3.36-.75,4.7,1.19,1.34,0,4.77-2.84,2.53-2.83-2.24-4.17-3.88-5.07-5.52-.9-1.64,2.39-6.56-6.27-6.27-2.78,.1-4.03,3.88-5.08,4.55-1.05,.67-1.42,1.57-1.42,1.57,0,0,.59,2.16-.9,2.39-1.49,.22-1.79-1.64-1.79-1.64l-1.86,.6s.14,2.01-1.27,2.16c-1.42,.15-2.54-1.57-2.54-1.57l-2.08,.52s.22,2.39-1.05,2.39-1.71-2.24-1.71-2.24l-2.16,.3s-.15,2.39-1.56,2.31c-1.42-.07-1.49-2.09-1.49-2.09l-1.42-.15s-1.27,2.31-2.39,2.24c-1.12-.08-1.64-3.28-1.64-3.28,0,0-1.87-.6-3.51-.6s-4.32,.67-5.44,2.09c-1.12,1.42-2.91,2.91-3.14,3.66s-3.65,2.98-4.69,0h0Zm38.34-22.16c-1.65,1.02,1.05,4.63,3.44,4.77,2.38,.15,5.59-.6,5.52-4.47-.04-1.96-1.34-4.48-4.32-4.47-1.94,0-2.69,2.98-4.63,4.18h0Zm-30.44,11.79c-.15,3.13,3.13,1.94,4.04,1.05,.9-.9,1.79-1.64,4.63-1.49,2.83,.15,4.58-2.19,4.02-3.73-.75-2.09,0-3.43-3.13-3.43s-4.48,1.34-6.87,2.39c-2.39,1.04-2.54,2.08-2.69,5.22h0Zm83.41,23.76c-7.65-4.5-1.26-10.95,3.06-13.72-2.13-1.25-3.78-2.17-4.39-2.63-1.79-1.34-3.36-4.48-4.05-6.11-.69-1.63-.09-5.98,.04-7.66,.12-1.68,.32-6.49,0-8.84-.32-2.35,3-4.68,3-3.09,0,3.07,1.79,3.54,3.21,4.66,1.41,1.12,.6,4.81,0,5.43-.6,.62,.71,4.19,0,6.32-.71,2.13-2.65,3.47-1.64,5.37,.59,1.11,3.62,3.22,6.4,5.25,.97-.27,2.37-1.18,3.88-2.36-2.05-3.58-4.5-8.67-5.53-9.83-1.4-1.57-.06-5.71-.39-8.26-.33-2.54-1.34-5.51-1.34-8.08s1.25-4.64,3.47-4.37c2.69,.33,.67,5.15,.9,7.61,.23,2.46,1.12,3.69,2.57,5.71,1.46,2.01-.44,4.36-.84,5.93-.39,1.57,.61,3.8,3.3,7.05,.32,.38,.71,.87,1.16,1.42,1.01-.94,1.96-1.87,2.79-2.75-1.33-1.8-2.42-3.42-2.84-4.26-1.12-2.24-1.45-7.05-1.9-8.26-.44-1.21-1.9-3.94-2.16-5.73-.26-1.79,.82-3.47,1.6-4.7s-.11-3.13-1.12-4.7c-1.01-1.57-.26-3.68,1.68-4.92,2.79-1.79,2.23,2.02,2.44,3.02,.19,1.01,1.03,.9,2.48,1.79,1.46,.9,1.35,4.7,2.58,6.16,1.24,1.45,4.59,4.03,3.14,6.83-1.45,2.8-2.91,1.01-5.14,2.26-2.24,1.26-1.8,1.76-1.23,4.11,.4,1.67,1.48,4.08,2.64,5.91,2.12-2.77,3.39-4.64,2.95-6.81-.45-2.24,3.02-3.58,4.02-3.13,1.01,.45,3.99,4.17,4.7,5.15,1.06,1.44,1.63,4.6,.73,6.35,1.08,1.5,2.25,3.21,3.07,4.62,1.9,3.25,5.47,12.9,4.03,13.32-2.35,.67-2.8-5.15-4.7-8.17-1.41-2.24-3.12-5.23-5.7-7.9-1.44,.32-2.97,.54-3.92,1.18-.21,.14-.5,.37-.84,.65,2.11,2.52,4.66,5.65,5.99,7.22,1.47,1.73,2.7,4.98,2.91,6.96,1.38,.48,2.43,.84,2.91,.96,2.57,.67,7.6,1.91,8.17,3.25,.56,1.34-2.31,1.51-2.83,2.6-.53,1.09-1.42,2.66-3.44,2.21-2.02-.45-3.88-2.8-5.75-3.47-1.86-.67-7.98-3.36-10.91-4.47-1.34-.51-3.47-1.54-5.38-2.49-.2,.96-.45,1.84-.79,2.38-.39,.63-.94,2.1-1.87,3.52,1.79,3.87,3.77,8.38,6.68,10.02,2.7,1.53,5.18,3.85,4.06,6.33,1-.52,2.15-.4,3.22,.61,2.12,2.02-.67,4.71-1.57,5.49-.9,.79-3.92,9.17-4.36,10.74-.44,1.56,0,7.27-4.03,4.59-4.03-2.69-.45-4.37,0-5.15,.45-.78,3.58-6.94,4.14-11.41,.14-1.08,.41-2.02,.77-2.79-3.68,2.48-5.61-3.86-6.5-5.38-.91-1.56-4.23-5.59-5.91-7.05-.49-.42-1.23-1.43-1.99-2.66-1.53,.01-3.37-.49-5.63-1.81h0Zm28.01-7.06c-.06-.19-.11-.38-.15-.57-.33-1.58-3.13-5.02-5.68-7.37-.69-.64-1.62-1.67-2.63-2.87-.95,.9-1.93,1.85-2.77,2.69,1.53,1.94,3.07,3.94,4.32,5.59,2.33,.87,4.76,1.76,6.91,2.54h0Zm-12.68,25.41c-2.17-.88-3.35,2.24-2.73,4.81,.61,2.57-2.08,5.26-2.63,6.6-.56,1.35-3.36,2.58,0,4.37,3.36,1.79,2.25-2.01,2.63-3.58,.38-1.56,2.73-6.72,2.73-6.72,0,0,4.14-3.81,0-5.48h0Zm0,18.61c-2.22,.15-1.68,.75-2.58,2.61-.9,1.86-.33,2.61,.76,2.61s2.37-1.34,2.37-2.24-.56-2.98-.56-2.98h0Zm-3.7,0c-2.41-.24-2.68,2.54-3.81,3.44-1.12,.89,.78,1.57,2.24,1.79,1.46,.22,1.57-2.24,2.24-3.14,.67-.9-.67-2.09-.67-2.09h0Zm-7.16,2.61c2.79,.3,2.35-.18,3.01-1.19,.67-1.01,.84-2.8,.84-2.8-3.3-1.38-4.2,1.34-4.87,2.04-.67,.69-1.79,1.65,1.01,1.95h0Zm10.62,4.42c-.23,.45,.78,1.78,2.07,1.78s1.74-1.24,1.74-2.02-1.72-1.64-2.35-1.55c-1.68,.24-1.23,1.33-1.46,1.79Zm-2.35,0c-.69-.81-2.57,0-3.24,.78-.67,.78,1.23,1.79,2.24,1.9,1,.12,1.68-.55,1.77-1.34,.09-.78-.76-1.34-.76-1.34h0Zm-7.25-.79c-1.32,.23-1.69,1.68-.8,2.58,.9,.89,2.24-.23,3.64-.61,1.4-.38,.71-1.06,0-1.97-.81-1.02-1.51-.22-2.84,0h0Zm-5.72-2.12c-2.02,.67-2.68,2.24-2.12,2.91,.56,.68,2.69,0,3.92-.33,1.23-.33,2.01-.87,1.44-2.02-.34-.67-1.21-1.23-3.23-.56h0Zm-10.22-67.52c-1.34,1.64-2.24,3.58-2.53,4.4-.3,.83-2.24,2.32,0,3.06,2.24,.75,4.92,4.92,5.82,5.67,.89,.75,1.49,.15,1.79,0,.3-.15-3.36-5.82-3.25-8.06,.11-2.24,2.76-9.03,.71-10.45-1.38-.95-1.2,3.73-2.54,5.37h0Zm39.2-21.47c-1-1.99-2.57-3.33-2.11-5.23,.44-1.9,1.34-5.26-.34-6.38-1.68-1.12-2.18,.03-2.52-1.43-.34-1.45,.84-2.49-.84-3.5-1.44-.87-3.65,1.01-3.79,2.46-.13,1.45,1.42,3.36,.7,4.59-.72,1.23-2.74,2.24-2.4,3.69,.33,1.45,1.86,3.58,2.72,5.04,.86,1.45,1.3,6.83,3.32,7.72,2.02,.9,4.25,3.63,5.71,5.51,1.46,1.87,7.28,11.84,8.29,14.63,1.01,2.8,3.24,12.61,4.7,13.19,1.46,.58,.78-9.16-1.12-14.42-1.9-5.26-7.94-17.01-10.01-19.25-2.07-2.24-3.19-2.91-2.97-3.92,.22-1.01,1.68-.72,.67-2.71h0Zm7.38,0c-.33-2.44,1.94-1.99,2.2-3.56,.26-1.57-.4-4.03-1.3-5.48-.89-1.45,.45-4.7-.78-6.38-1.23-1.68-1.91-1.9-1.91-1.9,0,0,2.35-4.48-1.78-4.7-2.69-.14-4.26,2.24-3.81,3.36,.45,1.12,2.58,2.35,1.85,3.14-.73,.78-3,2.01-1.92,4.92,1.08,2.91,1.86,6.94,1.92,9.06,.06,2.13,.39,4.03,1.96,5.04,1.56,1.01,3.91,4.87,6.48,8.98,2.57,4.11,4.36,8.92,5.26,11.89,.89,2.96,1.23,11.31,2.35,11.67,1.12,.36,2.24-6.58,1.23-12.4-1.01-5.82-3.92-11.75-6.27-15.56-2.35-3.8-5.48-8.08-5.48-8.08h0Zm11.42-8.06c-.23-1.88-1.73-3.33-1.3-4.34,.42-1.01,2.55-3.01,2.05-4.36-.5-1.35-2.52-2.47-2.52-2.47,0,0,1.23-1.02,1.34-2.8,.11-1.78-.66-3.01-3.36-3.35-3.01-.38-3.36,1.34-3.14,2.57,.22,1.23,.89,2.8-.06,3.69-.96,.89-1.63,2.8-1.18,3.8,.45,1.01,.45,6.49,1.01,8.39s-.44,4.65,.56,6.91,4.7,9.09,5.6,11.1c.89,2.02,3.69,7.61,4.25,11.08,.56,3.47-.23,8.33,.78,9.09,1,.76,2.24-6.73,1.34-11.32-.9-4.59-4.59-11.81-6.15-14.58-1.57-2.77-2.24-6.91-1.46-8.92,.78-2.02,2.46-2.62,2.24-4.5h0Zm-7.94,60.51c-1.26-.32-2.85,1.48-2.73,2.6,.12,1.12,1.22,2.53,1.18,3.76-.04,1.23-.05,8.26-.05,8.26,0,0-1.75,2.67-.4,3.79,1.35,1.12,4.87,.67,4.91-1.68,.04-2.35-.93-3.77-.93-3.77v-7.09s2.3-4.82-1.98-5.88h0Zm4.02-3.72c-1.65-.73-2.32,3.44-1.54,4.68,.77,1.23,2.11,9.4,1.55,9.51-.56,.11-.9,4.14,1.22,4.81,2.13,.67,3.36-3.25,2.35-4.81-1.01-1.56-.98-2.24-.98-2.24l-1.15-8.27s1.19-2.51-1.46-3.69h0Zm1.03,24.92c-1.26-.11-3.38-.45-4.39,0-.87,.4,.07,2.58,1.49,3.14s4.77,.67,5.22,0c.45-.67-1.06-3.03-2.32-3.14h0Zm-1.16-2.2s4.16,4.56,5.17,3.88c1.01-.68,1.23-2.13-.39-2.8-1.63-.67-3.23-3.06-4.78-1.08h0Zm7.96-2.61c-.89-.79-3.36-1.01-4.98,.78-.77,.85,3.08,1.86,4.31,1.83,1.23-.03,1.57-1.83,.66-2.61h0Zm3.47,2.61c1.24,.41,2.69-.37,2.91-1.6,.22,0-2.68-2.01-4.03,0-.59,.87-.11,1.19,1.12,1.6h0Zm-2.96,2.87c-.58,.5-.17,1.24,.73,1.8,.89,.56,2.11,.55,3.01-.9,.9-1.45-1.55-2.81-3.74-.9h0Zm-1.4,2.93c-1.19-.41-2.58,.88-2.29,2,.28,1.12,2.1,1.9,3.42,1.8,1.33-.11,2.45-2.57-1.13-3.79h0Zm7.16-60.44c-.55-2.91-3.4-9.74-4.33-12.65-.93-2.91-1.65-8.17-.17-9.4,1.48-1.23,1.7,5.95,2.82,8.18,1.12,2.23,1.68,7.93,2.8,8.16,1.12,.22,.11-8.62-.9-11.86-1-3.25-1.22-5.6-.78-8.62,.44-3.02,2.32-4.69,2.16-7.38-.16-2.69-2.16-2.8-2.61-3.92-.45-1.12,2.02-2.02,1.57-3.14-.45-1.12-.07-2.07-2.12-1.62-2.19,.48-3.58,1.17-3.58,2.74s-.1,2.46-1.34,3.02c-1.24,.56-.9,3.25-.9,5.26s-.34,3.69-1.01,4.81c-.67,1.12-.45,7.34,0,9.6,.45,2.27,2.52,7.52,3.89,11.33,1.36,3.8,1.92,13.76,2.94,15.11,1.01,1.34,2.12-6.71,1.56-9.62h0Z"/>
    <rect class="cls-1" x="131.79" width="169.87" height="157.68"/>
    <g>
      <line class="cls-4" x1="130.8" y1="11.89" x2="130.8" y2="11.89"/>
      <line class="cls-3" x1="130.8" y1="14.82" x2="130.8" y2="148.23"/>
      <line class="cls-4" x1="130.8" y1="149.69" x2="130.8" y2="149.69"/>
    </g>
    <rect class="cls-5" x="141.29" y="127.03" width="119.41" height="23.38"/>
    <g>
      <path class="cls-2" d="M148.08,13.12h-2.25v-1.96h6.66v1.96h-2.25v11.76h-2.16V13.12Z"/>
      <path class="cls-2" d="M153.53,11.16h2.16v5.58h2.31v-5.58h2.15v13.71h-2.15v-6.17h-2.31v6.17h-2.16V11.16Z"/>
      <path class="cls-2" d="M161.75,11.16h5.88v1.96h-3.72v3.62h2.96v1.96h-2.96v4.21h3.72v1.96h-5.88V11.16Z"/>
      <path class="cls-2" d="M171.49,11.16h2.08l.96,10.54h.04l1.02-10.54h2.35l1.02,10.54h.04l.96-10.54h1.86l-1.39,13.71h-2.68l-.98-9.25h-.04l-.98,9.25h-2.86l-1.39-13.71Z"/>
      <path class="cls-2" d="M182.75,21.62v-7.21c0-2.19,1.16-3.45,3.27-3.45s3.27,1.25,3.27,3.45v7.21c0,2.19-1.16,3.45-3.27,3.45s-3.27-1.25-3.27-3.45Zm4.39,.14v-7.48c0-.98-.43-1.35-1.12-1.35s-1.12,.37-1.12,1.35v7.48c0,.98,.43,1.35,1.12,1.35s1.12-.37,1.12-1.35Z"/>
      <path class="cls-2" d="M190.75,11.16h3.19c2.23,0,3.19,1.04,3.19,3.15v.84c0,1.41-.45,2.31-1.41,2.7v.04c1.08,.33,1.43,1.35,1.43,2.9v2.41c0,.67,.02,1.16,.24,1.67h-2.19c-.12-.35-.2-.57-.2-1.69v-2.51c0-1.27-.37-1.69-1.35-1.69h-.74v5.88h-2.16V11.16Zm2.94,5.88c.8,0,1.29-.35,1.29-1.45v-1.06c0-.98-.33-1.41-1.1-1.41h-.98v3.92h.78Z"/>
      <path class="cls-2" d="M198.64,11.16h2.16v11.76h3.55v1.96h-5.7V11.16Z"/>
      <path class="cls-2" d="M205.38,11.16h3.29c2.16,0,3.21,1.2,3.21,3.39v6.94c0,2.19-1.06,3.39-3.21,3.39h-3.29V11.16Zm3.25,11.76c.69,0,1.1-.35,1.1-1.33v-7.13c0-.98-.41-1.33-1.1-1.33h-1.1v9.8h1.1Z"/>
      <path class="cls-2" d="M216.47,11.16h2.16v13.71h-2.16V11.16Z"/>
      <path class="cls-2" d="M219.86,21.62v-.78h2.04v.94c0,.98,.43,1.33,1.12,1.33s1.12-.35,1.12-1.37c0-1.14-.43-1.86-1.84-3.1-1.8-1.59-2.39-2.7-2.39-4.27,0-2.16,1.12-3.41,3.21-3.41s3.13,1.25,3.13,3.45v.57h-2.04v-.71c0-.98-.39-1.35-1.08-1.35s-1.08,.37-1.08,1.31c0,1,.45,1.72,1.86,2.96,1.8,1.59,2.37,2.68,2.37,4.39,0,2.23-1.14,3.49-3.25,3.49s-3.17-1.25-3.17-3.45Z"/>
      <path class="cls-2" d="M146.26,43.36v-7.37c0-2.12,1.1-3.37,3.17-3.37s3.17,1.25,3.17,3.37v1.45h-2.04v-1.59c0-.9-.43-1.27-1.08-1.27s-1.08,.37-1.08,1.27v7.66c0,.9,.43,1.25,1.08,1.25s1.08-.35,1.08-1.25v-2.1h2.04v1.94c0,2.12-1.1,3.37-3.17,3.37s-3.17-1.25-3.17-3.37Z"/>
      <path class="cls-2" d="M153.82,43.28v-10.46h2.15v10.62c0,.98,.41,1.33,1.1,1.33s1.1-.35,1.1-1.33v-10.62h2.08v10.46c0,2.19-1.1,3.45-3.21,3.45s-3.21-1.25-3.21-3.45Z"/>
      <path class="cls-2" d="M161.77,32.81h3.19c2.23,0,3.19,1.04,3.19,3.15v.84c0,1.41-.45,2.31-1.41,2.7v.04c1.08,.33,1.43,1.35,1.43,2.9v2.41c0,.67,.02,1.16,.23,1.67h-2.19c-.12-.35-.2-.57-.2-1.69v-2.51c0-1.27-.37-1.69-1.35-1.69h-.74v5.88h-2.16v-13.71Zm2.94,5.88c.8,0,1.29-.35,1.29-1.45v-1.06c0-.98-.33-1.41-1.1-1.41h-.98v3.92h.78Z"/>
      <path class="cls-2" d="M169.67,32.81h3.19c2.23,0,3.19,1.04,3.19,3.15v.84c0,1.41-.45,2.31-1.41,2.7v.04c1.08,.33,1.43,1.35,1.43,2.9v2.41c0,.67,.02,1.16,.24,1.67h-2.19c-.12-.35-.2-.57-.2-1.69v-2.51c0-1.27-.37-1.69-1.35-1.69h-.74v5.88h-2.16v-13.71Zm2.94,5.88c.8,0,1.29-.35,1.29-1.45v-1.06c0-.98-.33-1.41-1.1-1.41h-.98v3.92h.78Z"/>
      <path class="cls-2" d="M177.56,32.81h5.88v1.96h-3.72v3.62h2.96v1.96h-2.96v4.21h3.72v1.96h-5.88v-13.71Z"/>
      <path class="cls-2" d="M184.67,32.81h2.7l2.1,8.21h.04v-8.21h1.92v13.71h-2.21l-2.59-10.01h-.04v10.01h-1.92v-13.71Z"/>
      <path class="cls-2" d="M194.72,34.77h-2.25v-1.96h6.66v1.96h-2.25v11.76h-2.16v-11.76Z"/>
      <path class="cls-2" d="M200.17,32.81h2.16v11.76h3.55v1.96h-5.7v-13.71Z"/>
      <path class="cls-2" d="M207.16,40.69l-2.61-7.88h2.29l1.47,5.04h.04l1.47-5.04h2.1l-2.61,7.88v5.84h-2.16v-5.84Z"/>
      <path class="cls-2" d="M216.04,32.81h5.7v1.96h-3.55v3.82h2.78v1.96h-2.78v5.98h-2.16v-13.71Z"/>
      <path class="cls-2" d="M223.81,32.81h2.92l2.23,13.71h-2.16l-.39-2.72v.04h-2.45l-.39,2.68h-2l2.23-13.71Zm2.35,9.17l-.96-6.78h-.04l-.94,6.78h1.94Z"/>
      <path class="cls-2" d="M229.83,43.36v-7.37c0-2.12,1.1-3.37,3.17-3.37s3.17,1.25,3.17,3.37v1.45h-2.04v-1.59c0-.9-.43-1.27-1.08-1.27s-1.08,.37-1.08,1.27v7.66c0,.9,.43,1.25,1.08,1.25s1.08-.35,1.08-1.25v-2.1h2.04v1.94c0,2.12-1.1,3.37-3.17,3.37s-3.17-1.25-3.17-3.37Z"/>
      <path class="cls-2" d="M237.47,32.81h2.16v13.71h-2.16v-13.71Z"/>
      <path class="cls-2" d="M241.23,32.81h2.7l2.1,8.21h.04v-8.21h1.92v13.71h-2.21l-2.59-10.01h-.04v10.01h-1.92v-13.71Z"/>
      <path class="cls-2" d="M249.44,43.28v-7.21c0-2.19,1.1-3.45,3.21-3.45s3.21,1.25,3.21,3.45v1.18h-2.04v-1.31c0-.98-.43-1.35-1.12-1.35s-1.12,.37-1.12,1.35v7.5c0,.98,.43,1.33,1.12,1.33s1.12-.35,1.12-1.33v-2.68h-1.08v-1.96h3.12v4.49c0,2.19-1.1,3.45-3.21,3.45s-3.21-1.25-3.21-3.45Z"/>
      <path class="cls-2" d="M262.07,34.77h-2.25v-1.96h6.66v1.96h-2.25v11.76h-2.16v-11.76Z"/>
      <path class="cls-2" d="M267.52,32.81h2.16v5.58h2.31v-5.58h2.15v13.71h-2.15v-6.17h-2.31v6.17h-2.16v-13.71Z"/>
      <path class="cls-2" d="M275.75,32.81h5.88v1.96h-3.72v3.62h2.96v1.96h-2.96v4.21h3.72v1.96h-5.88v-13.71Z"/>
    </g>
    <g>
      <path class="cls-5" d="M146.69,54.63h2.95v16.09h4.85v2.68h-7.8v-18.77Z"/>
      <path class="cls-5" d="M158.3,54.63h3.99l3.06,18.77h-2.95l-.54-3.73v.05h-3.35l-.54,3.67h-2.73l3.06-18.77Zm3.22,12.55l-1.31-9.28h-.05l-1.29,9.28h2.65Z"/>
      <path class="cls-5" d="M166.77,54.63h4.37c3.06,0,4.37,1.42,4.37,4.32v1.15c0,1.93-.62,3.16-1.93,3.7v.05c1.47,.46,1.96,1.85,1.96,3.97v3.3c0,.91,.03,1.58,.32,2.28h-3c-.16-.48-.27-.78-.27-2.31v-3.43c0-1.74-.51-2.31-1.85-2.31h-1.02v8.04h-2.95v-18.77Zm4.02,8.04c1.1,0,1.77-.48,1.77-1.98v-1.45c0-1.34-.46-1.93-1.5-1.93h-1.34v5.36h1.07Z"/>
      <path class="cls-5" d="M177.36,68.95v-9.87c0-3,1.5-4.72,4.4-4.72s4.4,1.72,4.4,4.72v1.61h-2.79v-1.8c0-1.34-.59-1.85-1.53-1.85s-1.53,.51-1.53,1.85v10.27c0,1.34,.59,1.82,1.53,1.82s1.53-.48,1.53-1.82v-3.67h-1.47v-2.68h4.26v6.14c0,3-1.5,4.72-4.4,4.72s-4.4-1.72-4.4-4.72Z"/>
      <path class="cls-5" d="M188.05,54.63h8.04v2.68h-5.09v4.96h4.05v2.68h-4.05v5.76h5.09v2.68h-8.04v-18.77Z"/>
      <path class="cls-5" d="M197.33,68.95v-1.07h2.79v1.29c0,1.34,.59,1.82,1.53,1.82s1.53-.48,1.53-1.88c0-1.56-.59-2.55-2.52-4.24-2.47-2.17-3.27-3.7-3.27-5.84,0-2.95,1.53-4.66,4.4-4.66s4.29,1.72,4.29,4.72v.78h-2.79v-.96c0-1.34-.54-1.85-1.47-1.85s-1.47,.51-1.47,1.8c0,1.37,.62,2.36,2.55,4.05,2.47,2.17,3.24,3.67,3.24,6.01,0,3.06-1.55,4.77-4.45,4.77s-4.34-1.72-4.34-4.72Z"/>
      <path class="cls-5" d="M210.12,57.31h-3.08v-2.68h9.12v2.68h-3.08v16.09h-2.95v-16.09Z"/>
      <path class="cls-5" d="M221.35,68.95v-1.07h2.79v1.29c0,1.34,.59,1.82,1.53,1.82s1.53-.48,1.53-1.88c0-1.56-.59-2.55-2.52-4.24-2.47-2.17-3.27-3.7-3.27-5.84,0-2.95,1.53-4.66,4.4-4.66s4.29,1.72,4.29,4.72v.78h-2.79v-.96c0-1.34-.54-1.85-1.47-1.85s-1.47,.51-1.47,1.8c0,1.37,.62,2.36,2.55,4.05,2.47,2.17,3.24,3.67,3.24,6.01,0,3.06-1.55,4.77-4.45,4.77s-4.34-1.72-4.34-4.72Z"/>
      <path class="cls-5" d="M231.83,54.63h4.34c2.95,0,4.4,1.64,4.4,4.64v1.85c0,3-1.45,4.64-4.4,4.64h-1.39v7.64h-2.95v-18.77Zm4.34,8.44c.94,0,1.45-.43,1.45-1.77v-2.23c0-1.34-.51-1.77-1.45-1.77h-1.39v5.76h1.39Z"/>
      <path class="cls-5" d="M242.18,54.63h8.04v2.68h-5.09v4.96h4.05v2.68h-4.05v5.76h5.09v2.68h-8.04v-18.77Z"/>
      <path class="cls-5" d="M251.72,69.06v-10.08c0-2.9,1.5-4.61,4.34-4.61s4.34,1.72,4.34,4.61v1.98h-2.79v-2.17c0-1.23-.59-1.74-1.47-1.74s-1.47,.51-1.47,1.74v10.48c0,1.23,.59,1.72,1.47,1.72s1.47-.48,1.47-1.72v-2.87h2.79v2.65c0,2.9-1.5,4.61-4.34,4.61s-4.34-1.72-4.34-4.61Z"/>
      <path class="cls-5" d="M262.18,54.63h2.95v18.77h-2.95v-18.77Z"/>
      <path class="cls-5" d="M267.32,54.63h8.04v2.68h-5.09v4.96h4.05v2.68h-4.05v5.76h5.09v2.68h-8.04v-18.77Z"/>
      <path class="cls-5" d="M276.6,68.95v-1.07h2.79v1.29c0,1.34,.59,1.82,1.53,1.82s1.53-.48,1.53-1.88c0-1.56-.59-2.55-2.52-4.24-2.47-2.17-3.27-3.7-3.27-5.84,0-2.95,1.53-4.66,4.4-4.66s4.29,1.72,4.29,4.72v.78h-2.79v-.96c0-1.34-.54-1.85-1.47-1.85s-1.47,.51-1.47,1.8c0,1.37,.62,2.36,2.55,4.05,2.47,2.17,3.24,3.67,3.24,6.01,0,3.06-1.55,4.77-4.45,4.77s-4.34-1.72-4.34-4.72Z"/>
      <path class="cls-5" d="M146.69,82.47h8.04v2.68h-5.09v4.96h4.05v2.68h-4.05v5.76h5.09v2.68h-8.04v-18.77Z"/>
      <path class="cls-5" d="M159.07,91.64l-3.24-9.17h3.11l1.98,6.06h.05l2.04-6.06h2.79l-3.24,9.17,3.4,9.6h-3.11l-2.15-6.54h-.05l-2.2,6.54h-2.79l3.4-9.6Z"/>
      <path class="cls-5" d="M169.66,85.15h-3.08v-2.68h9.12v2.68h-3.08v16.09h-2.95v-16.09Z"/>
      <path class="cls-5" d="M177.12,82.47h2.95v18.77h-2.95v-18.77Z"/>
      <path class="cls-5" d="M182.26,82.47h3.7l2.87,11.23h.05v-11.23h2.63v18.77h-3.03l-3.54-13.7h-.05v13.7h-2.63v-18.77Z"/>
      <path class="cls-5" d="M193.52,96.9v-10.08c0-2.9,1.5-4.61,4.34-4.61s4.34,1.72,4.34,4.61v1.98h-2.79v-2.17c0-1.23-.59-1.74-1.47-1.74s-1.47,.51-1.47,1.74v10.48c0,1.23,.59,1.72,1.47,1.72s1.47-.48,1.47-1.72v-2.87h2.79v2.65c0,2.9-1.5,4.61-4.34,4.61s-4.34-1.72-4.34-4.61Z"/>
      <path class="cls-5" d="M206.28,85.15h-3.08v-2.68h9.12v2.68h-3.08v16.09h-2.95v-16.09Z"/>
      <path class="cls-5" d="M213.74,82.47h2.95v18.77h-2.95v-18.77Z"/>
      <path class="cls-5" d="M218.67,96.79v-9.87c0-3,1.58-4.72,4.48-4.72s4.48,1.72,4.48,4.72v9.87c0,3-1.58,4.72-4.48,4.72s-4.48-1.72-4.48-4.72Zm6.01,.19v-10.24c0-1.34-.59-1.85-1.53-1.85s-1.53,.51-1.53,1.85v10.24c0,1.34,.59,1.85,1.53,1.85s1.53-.51,1.53-1.85Z"/>
      <path class="cls-5" d="M229.6,82.47h3.7l2.87,11.23h.05v-11.23h2.63v18.77h-3.03l-3.54-13.7h-.05v13.7h-2.63v-18.77Z"/>
    </g>
    <g>
      <path class="cls-5" d="M146.39,108.73h5.88v1.96h-3.72v3.62h2.96v1.96h-2.96v4.21h3.72v1.96h-5.88v-13.71Z"/>
      <path class="cls-5" d="M152.94,108.73h2.17l1.41,10.64h.04l1.41-10.64h1.98l-2.08,13.71h-2.86l-2.08-13.71Z"/>
      <path class="cls-5" d="M160.99,108.73h5.88v1.96h-3.72v3.62h2.96v1.96h-2.96v4.21h3.72v1.96h-5.88v-13.71Z"/>
      <path class="cls-5" d="M168.1,108.73h2.7l2.1,8.21h.04v-8.21h1.92v13.71h-2.21l-2.59-10.01h-.04v10.01h-1.92v-13.71Z"/>
      <path class="cls-5" d="M178.15,110.69h-2.25v-1.96h6.66v1.96h-2.25v11.76h-2.16v-11.76Z"/>
      <path class="cls-5" d="M186.36,119.19v-.78h2.04v.94c0,.98,.43,1.33,1.12,1.33s1.12-.35,1.12-1.37c0-1.14-.43-1.86-1.84-3.1-1.8-1.59-2.39-2.7-2.39-4.27,0-2.16,1.12-3.41,3.21-3.41s3.13,1.25,3.13,3.45v.57h-2.04v-.71c0-.98-.39-1.35-1.08-1.35s-1.08,.37-1.08,1.31c0,1,.45,1.72,1.86,2.96,1.8,1.59,2.37,2.68,2.37,4.39,0,2.23-1.14,3.49-3.25,3.49s-3.17-1.25-3.17-3.45Z"/>
      <path class="cls-5" d="M194.02,108.73h2.16v13.71h-2.16v-13.71Z"/>
      <path class="cls-5" d="M197.78,108.73h2.7l2.1,8.21h.04v-8.21h1.92v13.71h-2.21l-2.59-10.01h-.04v10.01h-1.92v-13.71Z"/>
      <path class="cls-5" d="M206.01,119.27v-7.37c0-2.12,1.1-3.37,3.17-3.37s3.17,1.25,3.17,3.37v1.45h-2.04v-1.59c0-.9-.43-1.27-1.08-1.27s-1.08,.37-1.08,1.27v7.66c0,.9,.43,1.25,1.08,1.25s1.08-.35,1.08-1.25v-2.1h2.04v1.94c0,2.12-1.1,3.37-3.17,3.37s-3.17-1.25-3.17-3.37Z"/>
      <path class="cls-5" d="M213.65,108.73h5.88v1.96h-3.72v3.62h2.96v1.96h-2.96v4.21h3.72v1.96h-5.88v-13.71Z"/>
      <path class="cls-1" d="M148.08,133.37h-2.25v-1.96h6.66v1.96h-2.25v11.76h-2.16v-11.76Z"/>
      <path class="cls-1" d="M153.53,131.41h2.16v5.58h2.31v-5.58h2.15v13.71h-2.15v-6.17h-2.31v6.17h-2.16v-13.71Z"/>
      <path class="cls-1" d="M161.75,131.41h5.88v1.96h-3.72v3.62h2.96v1.96h-2.96v4.21h3.72v1.96h-5.88v-13.71Z"/>
      <path class="cls-1" d="M172,131.41h3.29c2.16,0,3.21,1.19,3.21,3.39v6.94c0,2.19-1.06,3.39-3.21,3.39h-3.29v-13.71Zm3.25,11.75c.69,0,1.1-.35,1.1-1.33v-7.13c0-.98-.41-1.33-1.1-1.33h-1.1v9.8h1.1Z"/>
      <path class="cls-1" d="M179.95,131.41h2.16v13.71h-2.16v-13.71Z"/>
      <path class="cls-1" d="M183.71,131.41h2.7l2.1,8.21h.04v-8.21h1.92v13.71h-2.21l-2.59-10.01h-.04v10.01h-1.92v-13.71Z"/>
      <path class="cls-1" d="M191.92,141.88v-7.21c0-2.19,1.16-3.45,3.27-3.45s3.27,1.25,3.27,3.45v7.21c0,2.19-1.16,3.45-3.27,3.45s-3.27-1.25-3.27-3.45Zm4.39,.14v-7.48c0-.98-.43-1.35-1.12-1.35s-1.12,.37-1.12,1.35v7.48c0,.98,.43,1.35,1.12,1.35s1.12-.37,1.12-1.35Z"/>
      <path class="cls-1" d="M199.54,141.88v-.78h2.04v.94c0,.98,.43,1.33,1.12,1.33s1.12-.35,1.12-1.37c0-1.14-.43-1.86-1.84-3.1-1.8-1.59-2.39-2.7-2.39-4.27,0-2.16,1.12-3.41,3.21-3.41s3.13,1.25,3.13,3.45v.57h-2.04v-.71c0-.98-.39-1.35-1.08-1.35s-1.08,.37-1.08,1.31c0,1,.45,1.72,1.86,2.96,1.8,1.59,2.37,2.68,2.37,4.39,0,2.23-1.14,3.49-3.25,3.49s-3.17-1.25-3.17-3.45Z"/>
      <path class="cls-1" d="M208.81,131.41h2.92l2.23,13.71h-2.16l-.39-2.72v.04h-2.45l-.39,2.68h-2l2.23-13.71Zm2.35,9.17l-.96-6.78h-.04l-.94,6.78h1.94Z"/>
      <path class="cls-1" d="M214.88,141.88v-10.46h2.15v10.62c0,.98,.41,1.33,1.1,1.33s1.1-.35,1.1-1.33v-10.62h2.08v10.46c0,2.19-1.1,3.45-3.21,3.45s-3.21-1.25-3.21-3.45Z"/>
      <path class="cls-1" d="M222.83,131.41h3.19c2.23,0,3.19,1.04,3.19,3.15v.84c0,1.41-.45,2.31-1.41,2.7v.04c1.08,.33,1.43,1.35,1.43,2.9v2.41c0,.67,.02,1.16,.23,1.67h-2.19c-.12-.35-.2-.57-.2-1.69v-2.51c0-1.27-.37-1.68-1.35-1.68h-.74v5.88h-2.16v-13.71Zm2.94,5.88c.8,0,1.29-.35,1.29-1.45v-1.06c0-.98-.33-1.41-1.1-1.41h-.98v3.92h.78Z"/>
      <path class="cls-1" d="M235.53,131.41h2.92l2.23,13.71h-2.16l-.39-2.72v.04h-2.45l-.39,2.68h-2l2.23-13.71Zm2.35,9.17l-.96-6.78h-.04l-.94,6.78h1.94Z"/>
      <path class="cls-1" d="M241.52,141.88v-7.21c0-2.19,1.1-3.45,3.21-3.45s3.21,1.25,3.21,3.45v1.18h-2.04v-1.31c0-.98-.43-1.35-1.12-1.35s-1.12,.37-1.12,1.35v7.5c0,.98,.43,1.33,1.12,1.33s1.12-.35,1.12-1.33v-2.68h-1.08v-1.96h3.12v4.49c0,2.19-1.1,3.45-3.21,3.45s-3.21-1.25-3.21-3.45Z"/>
      <path class="cls-1" d="M249.34,131.41h5.88v1.96h-3.72v3.62h2.96v1.96h-2.96v4.21h3.72v1.96h-5.88v-13.71Z"/>
    </g>
  </g>
</svg>