<?xml version="1.0" encoding="UTF-8"?>
<svg id="Layer_2" data-name="Layer 2" xmlns="http://www.w3.org/2000/svg" viewBox="0 0 222.4 236.95">
  <defs>
    <style>
      .cls-1 {
        fill: #00558a;
      }

      .cls-2 {
        fill: #fff;
      }

      .cls-3 {
        fill: #939598;
      }

      .cls-4 {
        fill: #777677;
      }

      .cls-5 {
        fill: none;
        stroke: #b1b3b6;
        stroke-miterlimit: 10;
        stroke-width: .75px;
      }

      .cls-6 {
        fill: #e8e8e8;
      }
    </style>
  </defs>
  <g id="Layer_2-2" data-name="Layer 2">
    <path class="cls-6" d="M156.9,182.24c1.96-.84,2.87-3.12,2.03-5.08-.02-.05-.05-.1-.07-.16l-15.87-33.04,35.93-7.25c1.64-.35,2.88-1.7,3.08-3.36,.19-1.67-.72-3.28-2.25-3.97l-33.16-15,63.1-71.5c1.42-1.6,1.27-4.05-.34-5.47-1.32-1.17-3.26-1.3-4.73-.31l-74.83,50.2-.85-34.57c-.06-2.14-1.84-3.83-3.98-3.78-1.24,.03-2.4,.66-3.1,1.69l-20.67,30.26-24.25-27.49c-1.11-1.26-2.91-1.65-4.45-.99h-.01c-1.54,.68-2.47,2.27-2.31,3.94l3.57,36.05-56.29-13.08c-2.09-.49-4.17,.81-4.66,2.9-.35,1.51,.23,3.08,1.47,4l45.54,33.75-30.62,18.7c-1.83,1.12-2.41,3.5-1.29,5.33,.65,1.07,1.77,1.75,3.02,1.85l34.52,2.62-41.63,56.32c-1.27,1.72-.91,4.15,.82,5.43,1.34,.99,3.17,1.01,4.54,.05l63.28-44.6,13.9,18.44c.84,1.11,2.21,1.69,3.6,1.51,1.39-.16,2.58-1.08,3.09-2.38l7.72-19,32.74,17.84c1.05,.57,2.3,.63,3.39,.16Z"/>
    <rect class="cls-1" y="58.37" width="208.54" height="35.22"/>
    <g>
      <path class="cls-1" d="M96.68,166.19c-.93,.19-1.59,1-1.59,1.94v5.16c0,.92-.75,1.68-1.68,1.68h-5.22c-1.09,0-1.98,.89-1.98,1.98v6.46h-13.45v-4.28c0-4.92-1.23-9.72-3.57-13.88-1.14-2.04-1.75-4.35-1.75-6.71,0-5,2.73-9.61,7.11-12.03,2.01-1.11,4.3-1.7,6.62-1.7,2.54,0,5.01,.7,7.16,2.01,4.11,2.52,6.57,6.9,6.57,11.71v.24c-.01,.36,.08,.71,.26,1.02l3.43,5.99-1.91,.38Z"/>
      <path class="cls-1" d="M142.43,165.26c-2.33,4.16-3.57,8.95-3.57,13.88v4.28h-13.45v-6.46c0-1.09-.89-1.98-1.98-1.98h-5.22c-.92,0-1.68-.75-1.68-1.68v-5.16c0-.94-.67-1.76-1.59-1.94l-1.91-.38,3.43-5.99c.18-.31,.27-.66,.26-1.02v-.24c0-4.82,2.45-9.19,6.56-11.71,2.15-1.32,4.63-2.01,7.16-2.01,2.32,0,4.6,.59,6.62,1.7,4.39,2.42,7.11,7.03,7.11,12.03,0,2.35-.6,4.67-1.75,6.71Z"/>
    </g>
    <path class="cls-1" d="M117.38,122.64c-.37-.56-.99-.9-1.66-.9h-6.67l2.24-15.51c.14-.98-.47-1.92-1.42-2.19-.96-.27-1.96,.21-2.36,1.12l-11.15,25.65c-.27,.61-.21,1.32,.16,1.88,.37,.56,.99,.9,1.66,.9h6.19l-2.12,15.83c-.13,.98,.48,1.9,1.42,2.17,.18,.05,.36,.08,.54,.08,.77,0,1.49-.45,1.81-1.18l11.51-25.94c.27-.61,.22-1.32-.15-1.88Z"/>
    <rect class="cls-1" x="101.29" y="218.48" width="89.89" height="18.46"/>
    <g>
      <path class="cls-4" d="M6.87,201.92h1.83l.85,9.28h.04l.9-9.28h2.07l.9,9.28h.03l.85-9.28h1.64l-1.23,12.08h-2.36l-.86-8.15h-.04l-.86,8.15h-2.52l-1.23-12.08Z"/>
      <path class="cls-4" d="M16.93,201.92h1.9v12.08h-1.9v-12.08Z"/>
      <path class="cls-4" d="M21.73,203.64h-1.98v-1.73h5.87v1.73h-1.99v10.35h-1.9v-10.35Z"/>
      <path class="cls-4" d="M26.53,201.92h1.9v4.92h2.04v-4.92h1.9v12.08h-1.9v-5.44h-2.04v5.44h-1.9v-12.08Z"/>
      <path class="cls-4" d="M38.01,201.92h2.57l1.97,12.08h-1.9l-.34-2.4v.03h-2.16l-.34,2.36h-1.76l1.97-12.08Zm2.07,8.08l-.85-5.97h-.03l-.83,5.97h1.71Z"/>
      <path class="cls-4" d="M43.46,201.92h2.38l1.85,7.23h.03v-7.23h1.69v12.08h-1.95l-2.28-8.82h-.04v8.82h-1.69v-12.08Z"/>
      <path class="cls-4" d="M53.46,211.13v-6.35c0-1.93,1.02-3.04,2.88-3.04s2.88,1.1,2.88,3.04v6.35c0,1.93-1.02,3.04-2.88,3.04s-2.88-1.1-2.88-3.04Zm3.87,.12v-6.59c0-.86-.38-1.19-.98-1.19s-.98,.33-.98,1.19v6.59c0,.86,.38,1.19,.98,1.19s.98-.33,.98-1.19Z"/>
      <path class="cls-4" d="M59.96,201.92h1.92l1.24,9.37h.03l1.24-9.37h1.74l-1.83,12.08h-2.52l-1.83-12.08Z"/>
      <path class="cls-4" d="M67.06,201.92h5.18v1.73h-3.28v3.19h2.61v1.73h-2.61v3.71h3.28v1.73h-5.18v-12.08Z"/>
      <path class="cls-4" d="M73.32,201.92h2.81c1.97,0,2.81,.92,2.81,2.78v.74c0,1.24-.4,2.04-1.24,2.38v.03c.95,.29,1.26,1.19,1.26,2.55v2.12c0,.59,.02,1.02,.21,1.47h-1.93c-.1-.31-.17-.5-.17-1.48v-2.21c0-1.12-.33-1.48-1.19-1.48h-.66v5.18h-1.9v-12.08Zm2.59,5.18c.71,0,1.14-.31,1.14-1.28v-.93c0-.86-.29-1.24-.97-1.24h-.86v3.45h.69Z"/>
      <path class="cls-1" d="M83.71,210.53v-1.15h2.17v1.32c0,1.04,.46,1.42,1.19,1.42s1.19-.38,1.19-1.42v-3.28c0-1.04-.46-1.44-1.19-1.44s-1.19,.4-1.19,1.44v.13h-2.17l.42-8.17h6.06v2.09h-4.01l-.19,3.49h.04c.42-.69,1.07-1.07,1.98-1.07,1.69,0,2.55,1.19,2.55,3.34v3.3c0,2.34-1.17,3.68-3.43,3.68s-3.43-1.34-3.43-3.68Z"/>
      <path class="cls-1" d="M91.96,210.53v-7.69c0-2.34,1.23-3.68,3.49-3.68s3.49,1.34,3.49,3.68v7.69c0,2.34-1.23,3.68-3.49,3.68s-3.49-1.34-3.49-3.68Zm4.68,.15v-7.98c0-1.04-.46-1.44-1.19-1.44s-1.19,.4-1.19,1.44v7.98c0,1.04,.46,1.44,1.19,1.44s1.19-.4,1.19-1.44Z"/>
      <path class="cls-1" d="M100.36,205.16v-3.66c0-1.5,.77-2.34,2.21-2.34s2.21,.84,2.21,2.34v3.66c0,1.5-.77,2.34-2.21,2.34s-2.21-.84-2.21-2.34Zm2.97,.1v-3.86c0-.65-.29-.92-.75-.92s-.75,.27-.75,.92v3.86c0,.65,.27,.92,.75,.92s.75-.27,.75-.92Zm4.55-5.89h1.46l-5.66,14.62h-1.46l5.66-14.62Zm-1.11,12.49v-3.66c0-1.5,.77-2.34,2.21-2.34s2.21,.84,2.21,2.34v3.66c0,1.5-.77,2.34-2.21,2.34s-2.21-.84-2.21-2.34Zm2.97,.1v-3.86c0-.65-.29-.92-.75-.92s-.75,.27-.75,.92v3.86c0,.65,.27,.92,.75,.92s.75-.27,.75-.92Z"/>
      <path class="cls-1" d="M115.74,210.53v-.84h2.17v1c0,1.04,.46,1.42,1.19,1.42s1.19-.38,1.19-1.46c0-1.21-.46-1.98-1.96-3.3-1.92-1.69-2.55-2.88-2.55-4.55,0-2.3,1.19-3.63,3.43-3.63s3.34,1.34,3.34,3.68v.61h-2.17v-.75c0-1.04-.42-1.44-1.15-1.44s-1.15,.4-1.15,1.4c0,1.07,.48,1.84,1.98,3.15,1.92,1.69,2.53,2.86,2.53,4.68,0,2.38-1.21,3.72-3.47,3.72s-3.38-1.34-3.38-3.68Z"/>
      <path class="cls-1" d="M123.83,210.53v-11.15h2.3v11.32c0,1.04,.44,1.42,1.17,1.42s1.17-.38,1.17-1.42v-11.32h2.21v11.15c0,2.34-1.17,3.68-3.43,3.68s-3.43-1.34-3.43-3.68Z"/>
      <path class="cls-1" d="M132.31,199.37h3.41c2.38,0,3.4,1.11,3.4,3.36v.9c0,1.5-.48,2.46-1.5,2.88v.04c1.15,.35,1.53,1.44,1.53,3.09v2.57c0,.71,.02,1.23,.25,1.78h-2.34c-.13-.38-.21-.61-.21-1.8v-2.67c0-1.36-.4-1.8-1.44-1.8h-.79v6.27h-2.3v-14.62Zm3.13,6.27c.86,0,1.38-.38,1.38-1.55v-1.13c0-1.04-.35-1.5-1.17-1.5h-1.04v4.18h.84Z"/>
      <path class="cls-1" d="M140.56,210.53v-7.69c0-2.34,1.17-3.68,3.43-3.68s3.43,1.34,3.43,3.68v1.25h-2.17v-1.4c0-1.04-.46-1.44-1.19-1.44s-1.19,.4-1.19,1.44v8c0,1.04,.46,1.42,1.19,1.42s1.19-.38,1.19-1.42v-2.86h-1.15v-2.09h3.32v4.78c0,2.34-1.17,3.68-3.43,3.68s-3.43-1.34-3.43-3.68Z"/>
      <path class="cls-1" d="M148.9,199.37h6.27v2.09h-3.97v3.86h3.15v2.09h-3.15v4.49h3.97v2.09h-6.27v-14.62Z"/>
      <path class="cls-4" d="M159.68,201.92h1.9v12.08h-1.9v-12.08Z"/>
      <path class="cls-4" d="M162.99,201.92h2.38l1.85,7.23h.04v-7.23h1.69v12.08h-1.95l-2.28-8.82h-.04v8.82h-1.69v-12.08Z"/>
      <path class="cls-4" d="M173.09,212.69c0-1.73,.48-2.78,1.9-4.26,1.45-1.54,1.86-2.45,1.86-3.57s-.38-1.38-.98-1.38-.98,.33-.98,1.19v1.29h-1.79v-1.17c0-1.93,.97-3.04,2.83-3.04s2.83,1.1,2.83,3.04c0,1.43-.59,2.71-2.35,4.57-1.14,1.21-1.43,1.81-1.43,2.66v.26h3.61v1.73h-5.49v-1.31Z"/>
      <path class="cls-4" d="M179.89,211.13v-6.35c0-1.93,1.02-3.04,2.88-3.04s2.88,1.1,2.88,3.04v6.35c0,1.93-1.02,3.04-2.88,3.04s-2.88-1.1-2.88-3.04Zm3.87,.12v-6.59c0-.86-.38-1.19-.98-1.19s-.98,.33-.98,1.19v6.59c0,.86,.38,1.19,.98,1.19s.98-.33,.98-1.19Z"/>
      <path class="cls-4" d="M186.9,212.69c0-1.73,.48-2.78,1.9-4.26,1.45-1.54,1.86-2.45,1.86-3.57s-.38-1.38-.98-1.38-.98,.33-.98,1.19v1.29h-1.79v-1.17c0-1.93,.97-3.04,2.83-3.04s2.83,1.1,2.83,3.04c0,1.43-.59,2.71-2.35,4.57-1.14,1.21-1.43,1.81-1.43,2.66v.26h3.61v1.73h-5.49v-1.31Z"/>
      <path class="cls-4" d="M193.8,212.69c0-1.73,.48-2.78,1.9-4.26,1.45-1.54,1.86-2.45,1.86-3.57s-.38-1.38-.98-1.38-.98,.33-.98,1.19v1.29h-1.79v-1.17c0-1.93,.97-3.04,2.83-3.04s2.83,1.1,2.83,3.04c0,1.43-.59,2.71-2.35,4.57-1.14,1.21-1.43,1.81-1.43,2.66v.26h3.61v1.73h-5.49v-1.31Z"/>
      <path class="cls-4" d="M201.36,214h-.62v-1.83h1.83v1.64l-.95,2.26h-.88l.62-2.07Z"/>
      <path class="cls-4" d="M22.12,221.72h5.02v1.73h-3.12v3.37h2.45v1.73h-2.45v5.26h-1.9v-12.08Z"/>
      <path class="cls-4" d="M27.99,230.94v-9.22h1.9v9.35c0,.86,.36,1.17,.97,1.17s.97-.31,.97-1.17v-9.35h1.83v9.22c0,1.93-.97,3.04-2.83,3.04s-2.83-1.1-2.83-3.04Z"/>
      <path class="cls-4" d="M34.99,221.72h5.18v1.73h-3.28v3.19h2.61v1.73h-2.61v3.71h3.28v1.73h-5.18v-12.08Z"/>
      <path class="cls-4" d="M41.26,221.72h1.9v10.35h3.12v1.73h-5.02v-12.08Z"/>
      <path class="cls-4" d="M47.2,221.72h5.18v1.73h-3.28v3.19h2.61v1.73h-2.61v3.71h3.28v1.73h-5.18v-12.08Z"/>
      <path class="cls-4" d="M53.46,221.72h2.9c1.9,0,2.83,1.05,2.83,2.99v6.11c0,1.93-.93,2.99-2.83,2.99h-2.9v-12.08Zm2.86,10.35c.6,0,.97-.31,.97-1.17v-6.28c0-.86-.36-1.17-.97-1.17h-.97v8.63h.97Z"/>
      <path class="cls-4" d="M63.23,221.72h2.86c1.97,0,2.81,.92,2.81,2.78v.48c0,1.24-.38,2.02-1.23,2.36v.03c1.02,.35,1.42,1.24,1.42,2.52v1.04c0,1.86-.98,2.86-2.88,2.86h-2.99v-12.08Zm2.64,4.92c.71,0,1.14-.31,1.14-1.28v-.67c0-.86-.29-1.24-.97-1.24h-.92v3.19h.74Zm.35,5.44c.64,0,.98-.29,.98-1.19v-1.05c0-1.12-.36-1.47-1.23-1.47h-.85v3.71h1.09Z"/>
      <path class="cls-4" d="M71.67,228.66l-2.29-6.94h2.02l1.29,4.44h.03l1.29-4.44h1.85l-2.3,6.94v5.14h-1.9v-5.14Z"/>
      <path class="cls-4" d="M80.98,223.45h-1.98v-1.73h5.87v1.73h-1.98v10.35h-1.9v-10.35Z"/>
      <path class="cls-4" d="M85.78,221.72h1.9v4.92h2.04v-4.92h1.9v12.08h-1.9v-5.44h-2.04v5.44h-1.9v-12.08Z"/>
      <path class="cls-4" d="M93.03,221.72h5.18v1.73h-3.28v3.19h2.61v1.73h-2.61v3.71h3.28v1.73h-5.18v-12.08Z"/>
      <path class="cls-2" d="M104.37,221.72h1.83l.85,9.28h.04l.9-9.28h2.07l.9,9.28h.03l.85-9.28h1.64l-1.23,12.08h-2.36l-.86-8.15h-.04l-.86,8.15h-2.52l-1.23-12.08Z"/>
      <path class="cls-2" d="M115.65,221.72h2.57l1.97,12.08h-1.9l-.34-2.4v.03h-2.16l-.34,2.36h-1.76l1.97-12.08Zm2.07,8.08l-.85-5.97h-.03l-.83,5.97h1.71Z"/>
      <path class="cls-2" d="M121.11,221.72h2.81c1.97,0,2.81,.92,2.81,2.78v.74c0,1.24-.4,2.04-1.24,2.38v.03c.95,.29,1.26,1.19,1.26,2.55v2.12c0,.59,.02,1.02,.21,1.47h-1.93c-.1-.31-.17-.5-.17-1.48v-2.21c0-1.12-.33-1.48-1.19-1.48h-.66v5.18h-1.9v-12.08Zm2.59,5.18c.71,0,1.14-.31,1.14-1.28v-.93c0-.86-.29-1.24-.97-1.24h-.86v3.45h.69Z"/>
      <path class="cls-2" d="M130.83,221.72h1.9v12.08h-1.9v-12.08Z"/>
      <path class="cls-2" d="M134.14,221.72h2.38l1.85,7.23h.04v-7.23h1.69v12.08h-1.95l-2.28-8.82h-.04v8.82h-1.69v-12.08Z"/>
      <path class="cls-2" d="M144.2,230.94v-9.22h1.9v9.35c0,.86,.36,1.17,.97,1.17s.97-.31,.97-1.17v-9.35h1.83v9.22c0,1.93-.97,3.04-2.83,3.04s-2.83-1.1-2.83-3.04Z"/>
      <path class="cls-2" d="M151.21,221.72h1.9v5.09l2.42-5.09h1.9l-2.26,4.44,2.3,7.65h-1.98l-1.61-5.38-.76,1.54v3.85h-1.9v-12.08Z"/>
      <path class="cls-2" d="M158.36,221.72h2.81c1.97,0,2.81,.92,2.81,2.78v.74c0,1.24-.4,2.04-1.24,2.38v.03c.95,.29,1.26,1.19,1.26,2.55v2.12c0,.59,.02,1.02,.21,1.47h-1.93c-.1-.31-.17-.5-.17-1.48v-2.21c0-1.12-.33-1.48-1.19-1.48h-.66v5.18h-1.9v-12.08Zm2.59,5.18c.71,0,1.14-.31,1.14-1.28v-.93c0-.86-.29-1.24-.97-1.24h-.86v3.45h.69Z"/>
      <path class="cls-2" d="M166.78,221.72h2.57l1.97,12.08h-1.9l-.34-2.4v.03h-2.16l-.34,2.36h-1.76l1.97-12.08Zm2.07,8.08l-.85-5.97h-.03l-.83,5.97h1.71Z"/>
      <path class="cls-2" d="M172.23,221.72h1.9v12.08h-1.9v-12.08Z"/>
      <path class="cls-2" d="M175.55,221.72h2.38l1.85,7.23h.03v-7.23h1.69v12.08h-1.95l-2.28-8.82h-.04v8.82h-1.69v-12.08Z"/>
      <path class="cls-2" d="M182.92,221.72h5.18v1.73h-3.28v3.19h2.61v1.73h-2.61v3.71h3.28v1.73h-5.18v-12.08Z"/>
    </g>
    <path class="cls-3" d="M80.98,146.26c2.24,0,4.43,.61,6.33,1.78,3.62,2.22,5.79,6.07,5.8,10.31v.25c-.02,.94,.21,1.86,.68,2.67l1.9,3.32c-1.44,.93-2.37,2.56-2.37,4.35v4.54h-4.6c-2.86,0-5.18,2.33-5.18,5.18v4.12h-8.82v-1.72c0-5.94-1.49-11.73-4.32-16.76-1.01-1.8-1.54-3.84-1.54-5.92,0-4.42,2.41-8.5,6.29-10.63,1.78-.98,3.8-1.5,5.84-1.5m0-3c-2.55,0-5.07,.65-7.29,1.87-4.84,2.66-7.84,7.75-7.84,13.26,0,2.59,.67,5.15,1.93,7.39,2.57,4.58,3.93,9.87,3.93,15.29v4.72h14.82v-7.12c0-1.21,.98-2.18,2.18-2.18h5.75c1.02,0,1.85-.83,1.85-1.85v-5.69c0-1.04,.73-1.94,1.76-2.14l2.1-.42-3.78-6.6c-.2-.34-.3-.73-.29-1.12v-.27c0-5.31-2.7-10.13-7.23-12.91-2.37-1.45-5.1-2.22-7.89-2.22h0Z"/>
    <path class="cls-3" d="M130.64,146.26c2.05,0,4.07,.52,5.84,1.5,3.88,2.14,6.29,6.21,6.29,10.63,0,2.08-.53,4.12-1.54,5.92-2.83,5.03-4.32,10.83-4.32,16.76v1.72h-8.82v-4.12c0-2.86-2.33-5.18-5.18-5.18h-4.6v-4.54c0-1.8-.93-3.42-2.38-4.35l1.9-3.32c.47-.81,.7-1.74,.68-2.71v-.22c0-4.24,2.18-8.09,5.8-10.31,1.9-1.16,4.09-1.78,6.33-1.78m0-3c-2.79,0-5.52,.77-7.89,2.22-4.53,2.78-7.24,7.6-7.24,12.91v.27c.02,.39-.08,.78-.28,1.12l-3.78,6.6,2.1,.42c1.02,.2,1.76,1.1,1.76,2.14v5.69c0,1.02,.83,1.85,1.85,1.85h5.75c1.21,0,2.18,.98,2.18,2.18v7.12h14.82v-4.72c0-5.42,1.36-10.71,3.93-15.29,1.26-2.24,1.93-4.8,1.93-7.39,0-5.52-3-10.6-7.84-13.26-2.22-1.22-4.74-1.87-7.29-1.87h0Z"/>
    <g>
      <path class="cls-3" d="M53.29,13.06v-.96h2.5v1.15c0,1.2,.53,1.63,1.37,1.63s1.37-.43,1.37-1.68c0-1.39-.53-2.28-2.26-3.79-2.21-1.94-2.93-3.31-2.93-5.23,0-2.64,1.37-4.18,3.94-4.18s3.84,1.54,3.84,4.22v.7h-2.5v-.86c0-1.2-.48-1.66-1.32-1.66s-1.32,.46-1.32,1.61c0,1.22,.55,2.11,2.28,3.62,2.21,1.94,2.9,3.29,2.9,5.38,0,2.74-1.39,4.27-3.98,4.27s-3.89-1.54-3.89-4.22Z"/>
      <path class="cls-3" d="M65.34,2.64h-2.76V.24h8.16V2.64h-2.76v14.4h-2.64V2.64Z"/>
      <path class="cls-3" d="M72.61,.24h7.2V2.64h-4.56V7.08h3.62v2.4h-3.62v5.16h4.56v2.4h-7.2V.24Z"/>
      <path class="cls-3" d="M81.93,.24h7.2V2.64h-4.56V7.08h3.62v2.4h-3.62v5.16h4.56v2.4h-7.2V.24Z"/>
      <path class="cls-3" d="M91.24,.24h3.89c2.64,0,3.94,1.46,3.94,4.15v1.66c0,2.69-1.3,4.15-3.94,4.15h-1.25v6.84h-2.64V.24Zm3.89,7.56c.84,0,1.3-.38,1.3-1.58v-1.99c0-1.2-.46-1.58-1.3-1.58h-1.25V7.8h1.25Z"/>
      <path class="cls-3" d="M105.54,.24h3.91c2.74,0,3.91,1.27,3.91,3.86v1.03c0,1.73-.55,2.83-1.73,3.31v.05c1.32,.41,1.75,1.66,1.75,3.55v2.95c0,.82,.02,1.42,.29,2.04h-2.69c-.14-.43-.24-.7-.24-2.06v-3.07c0-1.56-.46-2.06-1.66-2.06h-.91v7.2h-2.64V.24Zm3.6,7.2c.98,0,1.58-.43,1.58-1.78v-1.3c0-1.2-.41-1.73-1.34-1.73h-1.2V7.44h.96Z"/>
      <path class="cls-3" d="M115.81,.24h2.64V17.04h-2.64V.24Z"/>
      <path class="cls-3" d="M120.56,13.06v-.96h2.5v1.15c0,1.2,.53,1.63,1.37,1.63s1.37-.43,1.37-1.68c0-1.39-.53-2.28-2.26-3.79-2.21-1.94-2.93-3.31-2.93-5.23,0-2.64,1.37-4.18,3.94-4.18s3.84,1.54,3.84,4.22v.7h-2.5v-.86c0-1.2-.48-1.66-1.32-1.66s-1.32,.46-1.32,1.61c0,1.22,.55,2.11,2.28,3.62,2.21,1.94,2.9,3.29,2.9,5.38,0,2.74-1.39,4.27-3.98,4.27s-3.89-1.54-3.89-4.22Z"/>
      <path class="cls-3" d="M130.55,.24h7.2V2.64h-4.56V7.08h3.62v2.4h-3.62v5.16h4.56v2.4h-7.2V.24Z"/>
      <path class="cls-3" d="M144.3,.24h2.64V17.04h-2.64V.24Z"/>
      <path class="cls-3" d="M149.51,.24h3.31l2.57,10.06h.05V.24h2.35V17.04h-2.71l-3.17-12.27h-.05v12.27h-2.35V.24Z"/>
    </g>
    <g>
      <line class="cls-5" x1=".02" y1="6.32" x2="42.44" y2="6.32"/>
      <line class="cls-5" x1=".02" y1="10.46" x2="42.44" y2="10.46"/>
    </g>
    <g>
      <line class="cls-5" x1="169.35" y1="6.32" x2="222.4" y2="6.32"/>
      <line class="cls-5" x1="169.35" y1="10.46" x2="222.4" y2="10.46"/>
    </g>
    <g>
      <path class="cls-1" d="M.49,47.68v-13.16c0-3.78,1.96-6.02,5.67-6.02s5.67,2.24,5.67,6.02v2.59h-3.64v-2.84c0-1.61-.77-2.27-1.93-2.27s-1.92,.67-1.92,2.27v13.69c0,1.61,.77,2.24,1.92,2.24s1.93-.63,1.93-2.24v-3.75h3.64v3.47c0,3.78-1.96,6.02-5.67,6.02S.49,51.46,.49,47.68Z"/>
      <path class="cls-1" d="M14.81,47.54v-12.88c0-3.92,2.06-6.16,5.84-6.16s5.85,2.24,5.85,6.16v12.88c0,3.92-2.06,6.16-5.85,6.16s-5.84-2.24-5.84-6.16Zm7.84,.25v-13.37c0-1.75-.77-2.42-2-2.42s-2,.67-2,2.42v13.37c0,1.75,.77,2.42,2,2.42s2-.67,2-2.42Z"/>
      <path class="cls-1" d="M29.96,28.85h4.83l3.75,14.67h.07v-14.67h3.43v24.5h-3.96l-4.62-17.89h-.07v17.89h-3.43V28.85Z"/>
      <path class="cls-1" d="M45.78,28.85h10.19v3.5h-6.33v6.83h4.97v3.5h-4.97v10.68h-3.85V28.85Z"/>
      <path class="cls-1" d="M58.7,28.85h3.85v21h6.34v3.5h-10.19V28.85Z"/>
      <path class="cls-1" d="M71.61,28.85h3.85v24.5h-3.85V28.85Z"/>
      <path class="cls-1" d="M78.96,47.68v-13.16c0-3.78,1.96-6.02,5.67-6.02s5.67,2.24,5.67,6.02v2.59h-3.64v-2.84c0-1.61-.77-2.27-1.92-2.27s-1.92,.67-1.92,2.27v13.69c0,1.61,.77,2.24,1.92,2.24s1.92-.63,1.92-2.24v-3.75h3.64v3.47c0,3.78-1.96,6.02-5.67,6.02s-5.67-2.24-5.67-6.02Z"/>
      <path class="cls-1" d="M96.5,32.35h-4.03v-3.5h11.9v3.5h-4.03v21h-3.85v-21Z"/>
      <path class="cls-1" d="M103.99,39.35h7.7v3.5h-7.7v-3.5Z"/>
      <path class="cls-1" d="M114.87,28.85h5.71c3.99,0,5.71,1.85,5.71,5.63v1.51c0,2.52-.81,4.13-2.52,4.83v.07c1.92,.59,2.56,2.42,2.56,5.18v4.31c0,1.19,.03,2.06,.42,2.97h-3.92c-.21-.63-.35-1.01-.35-3.01v-4.48c0-2.28-.67-3.01-2.42-3.01h-1.33v10.5h-3.85V28.85Zm5.25,10.5c1.44,0,2.31-.63,2.31-2.59v-1.89c0-1.75-.59-2.52-1.96-2.52h-1.75v7h1.4Z"/>
      <path class="cls-1" d="M129.85,28.85h10.5v3.5h-6.65v6.48h5.29v3.5h-5.29v7.53h6.65v3.5h-10.5V28.85Z"/>
      <path class="cls-1" d="M143.43,28.85h3.85v21h6.34v3.5h-10.19V28.85Z"/>
      <path class="cls-1" d="M159.46,28.85h5.22l3.99,24.5h-3.85l-.7-4.87v.07h-4.38l-.7,4.79h-3.57l3.99-24.5Zm4.2,16.38l-1.72-12.11h-.07l-1.68,12.11h3.47Z"/>
      <path class="cls-1" d="M172.8,32.35h-4.03v-3.5h11.9v3.5h-4.03v21h-3.85v-21Z"/>
      <path class="cls-1" d="M183.4,28.85h10.5v3.5h-6.65v6.48h5.29v3.5h-5.29v7.53h6.65v3.5h-10.5V28.85Z"/>
      <path class="cls-1" d="M196.98,28.85h5.88c3.85,0,5.74,2.13,5.74,6.06v12.39c0,3.92-1.89,6.06-5.74,6.06h-5.88V28.85Zm5.81,21c1.22,0,1.96-.63,1.96-2.38v-12.74c0-1.75-.74-2.38-1.96-2.38h-1.96v17.5h1.96Z"/>
    </g>
    <g>
      <path class="cls-2" d="M13,81.96v-11.66c0-3.35,1.74-5.33,5.02-5.33s5.02,1.98,5.02,5.33v2.29h-3.22v-2.51c0-1.43-.68-2.02-1.71-2.02s-1.71,.59-1.71,2.02v12.12c0,1.43,.68,1.98,1.71,1.98s1.71-.56,1.71-1.98v-3.32h3.22v3.07c0,3.35-1.74,5.33-5.02,5.33s-5.02-1.98-5.02-5.33Z"/>
      <path class="cls-2" d="M27.51,65.28h3.41v21.7h-3.41v-21.7Z"/>
      <path class="cls-2" d="M34.98,65.28h3.44l2.23,16.84h.06l2.23-16.84h3.13l-3.29,21.7h-4.53l-3.29-21.7Z"/>
      <path class="cls-2" d="M50.14,65.28h3.41v21.7h-3.41v-21.7Z"/>
      <path class="cls-2" d="M58.51,65.28h3.41v18.6h5.61v3.1h-9.02v-21.7Z"/>
      <path class="cls-2" d="M71.59,65.28h3.41v21.7h-3.41v-21.7Z"/>
      <path class="cls-2" d="M82.6,65.28h4.62l3.54,21.7h-3.41l-.62-4.31v.06h-3.88l-.62,4.25h-3.16l3.54-21.7Zm3.72,14.51l-1.52-10.73h-.06l-1.49,10.73h3.07Z"/>
      <path class="cls-2" d="M94.81,65.28h4.28l3.32,12.99h.06v-12.99h3.04v21.7h-3.5l-4.09-15.84h-.06v15.84h-3.04v-21.7Z"/>
      <path class="cls-2" d="M117.85,65.28h5.21c3.41,0,5.08,1.89,5.08,5.36v10.98c0,3.47-1.67,5.36-5.08,5.36h-5.21v-21.7Zm5.15,18.6c1.09,0,1.74-.56,1.74-2.11v-11.29c0-1.55-.65-2.11-1.74-2.11h-1.74v15.5h1.74Z"/>
      <path class="cls-2" d="M132.85,65.28h9.3v3.1h-5.89v5.74h4.68v3.1h-4.68v6.67h5.89v3.1h-9.3v-21.7Z"/>
      <path class="cls-2" d="M149.16,65.28h4.62l3.54,21.7h-3.41l-.62-4.31v.06h-3.88l-.62,4.25h-3.16l3.54-21.7Zm3.72,14.51l-1.52-10.73h-.06l-1.49,10.73h3.07Z"/>
      <path class="cls-2" d="M162.61,68.38h-3.57v-3.1h10.54v3.1h-3.57v18.6h-3.41v-18.6Z"/>
      <path class="cls-2" d="M173.65,65.28h3.41v8.84h3.66v-8.84h3.41v21.7h-3.41v-9.77h-3.66v9.77h-3.41v-21.7Z"/>
      <path class="cls-2" d="M188.49,81.83v-1.24h3.22v1.49c0,1.55,.68,2.11,1.77,2.11s1.77-.56,1.77-2.17c0-1.8-.68-2.95-2.92-4.9-2.85-2.51-3.78-4.28-3.78-6.76,0-3.41,1.77-5.4,5.08-5.4s4.96,1.98,4.96,5.46v.9h-3.22v-1.12c0-1.55-.62-2.14-1.71-2.14s-1.71,.59-1.71,2.08c0,1.58,.71,2.73,2.95,4.68,2.85,2.51,3.75,4.25,3.75,6.95,0,3.53-1.8,5.52-5.15,5.52s-5.02-1.98-5.02-5.46Z"/>
    </g>
  </g>
</svg>