<?xml version="1.0" encoding="UTF-8"?>
<svg id="Layer_2" data-name="Layer 2" xmlns="http://www.w3.org/2000/svg" viewBox="0 0 182.89 231.2">
  <defs>
    <style>
      .cls-1, .cls-2, .cls-3 {
        fill: #00558a;
      }

      .cls-4 {
        fill: #fff;
      }

      .cls-5 {
        stroke: #00558a;
        stroke-dasharray: 0 0 0 2.91;
        stroke-linecap: round;
        stroke-linejoin: round;
        stroke-width: 1.75px;
      }

      .cls-5, .cls-6 {
        fill: none;
      }

      .cls-6 {
        stroke: #777677;
      }

      .cls-6, .cls-2, .cls-3 {
        stroke-miterlimit: 10;
      }

      .cls-7 {
        fill: #e7eaf0;
      }

      .cls-8 {
        fill: #50709f;
      }

      .cls-9 {
        fill: #777677;
      }

      .cls-2 {
        stroke: #fff;
        stroke-width: .86px;
      }

      .cls-3 {
        stroke: #e7eaf0;
        stroke-width: 3px;
      }
    </style>
  </defs>
  <g id="Layer_2-2" data-name="Layer 2">
    <rect class="cls-7" y="36.6" width="182.89" height="194.59"/>
    <g>
      <rect class="cls-1" x="83.22" y="198.41" width="74.21" height="18.71"/>
      <g>
        <path class="cls-9" d="M27.47,182.2h2.66c1.83,0,2.61,.85,2.61,2.58v.45c0,1.15-.35,1.87-1.14,2.19v.03c.95,.32,1.31,1.15,1.31,2.34v.96c0,1.73-.91,2.66-2.68,2.66h-2.77v-11.22Zm2.45,4.57c.66,0,1.06-.29,1.06-1.19v-.62c0-.8-.27-1.15-.9-1.15h-.85v2.96h.69Zm.32,5.05c.59,0,.91-.27,.91-1.11v-.98c0-1.04-.34-1.36-1.14-1.36h-.79v3.44h1.01Z"/>
        <path class="cls-9" d="M34.51,190.75v-8.56h1.76v8.68c0,.8,.34,1.09,.9,1.09s.9-.29,.9-1.09v-8.68h1.7v8.56c0,1.79-.9,2.82-2.63,2.82s-2.63-1.03-2.63-2.82Z"/>
        <path class="cls-9" d="M43.04,183.8h-1.84v-1.6h5.45v1.6h-1.84v9.61h-1.76v-9.61Z"/>
        <path class="cls-9" d="M51.33,182.2h2.51l1.12,8.03h.03l1.12-8.03h2.52v11.22h-1.67v-8.49h-.03l-1.28,8.49h-1.47l-1.28-8.49h-.03v8.49h-1.54v-11.22Z"/>
        <path class="cls-9" d="M61.95,182.2h2.39l1.83,11.22h-1.76l-.32-2.23v.03h-2l-.32,2.19h-1.63l1.83-11.22Zm1.92,7.5l-.79-5.54h-.03l-.77,5.54h1.59Z"/>
        <path class="cls-9" d="M67.65,182.2h2.21l1.71,6.71h.03v-6.71h1.57v11.22h-1.81l-2.12-8.19h-.03v8.19h-1.57v-11.22Z"/>
        <path class="cls-9" d="M76.75,188.64l-2.13-6.44h1.87l1.2,4.12h.03l1.2-4.12h1.71l-2.13,6.44v4.77h-1.76v-4.77Z"/>
        <path class="cls-9" d="M85.29,182.2h2.51l1.12,8.03h.03l1.12-8.03h2.52v11.22h-1.67v-8.49h-.03l-1.28,8.49h-1.47l-1.28-8.49h-.03v8.49h-1.54v-11.22Z"/>
        <path class="cls-9" d="M94.42,190.75v-5.9c0-1.79,.95-2.82,2.68-2.82s2.68,1.03,2.68,2.82v5.9c0,1.79-.95,2.82-2.68,2.82s-2.68-1.03-2.68-2.82Zm3.59,.11v-6.12c0-.8-.35-1.11-.91-1.11s-.91,.3-.91,1.11v6.12c0,.8,.35,1.11,.91,1.11s.91-.3,.91-1.11Z"/>
        <path class="cls-9" d="M101.6,182.2h2.61c1.83,0,2.61,.85,2.61,2.58v.69c0,1.15-.37,1.89-1.15,2.21v.03c.88,.27,1.17,1.11,1.17,2.37v1.97c0,.54,.02,.95,.19,1.36h-1.79c-.1-.29-.16-.46-.16-1.38v-2.05c0-1.04-.3-1.38-1.11-1.38h-.61v4.81h-1.76v-11.22Zm2.4,4.81c.66,0,1.06-.29,1.06-1.19v-.87c0-.8-.27-1.15-.9-1.15h-.8v3.2h.64Z"/>
        <path class="cls-9" d="M108.69,182.2h4.81v1.6h-3.04v2.96h2.42v1.6h-2.42v3.44h3.04v1.6h-4.81v-11.22Z"/>
        <path class="cls-9" d="M118.35,182.2h1.76v9.61h2.9v1.6h-4.66v-11.22Z"/>
        <path class="cls-9" d="M124.5,182.2h1.76v11.22h-1.76v-11.22Z"/>
        <path class="cls-9" d="M128.22,182.2h1.76v4.73l2.24-4.73h1.76l-2.1,4.12,2.13,7.1h-1.84l-1.49-5-.71,1.43v3.57h-1.76v-11.22Z"/>
        <path class="cls-9" d="M135.49,182.2h4.81v1.6h-3.04v2.96h2.42v1.6h-2.42v3.44h3.04v1.6h-4.81v-11.22Z"/>
        <path class="cls-9" d="M141.95,182.2h1.76v9.61h2.9v1.6h-4.66v-11.22Z"/>
        <path class="cls-9" d="M148.3,188.64l-2.13-6.44h1.87l1.2,4.12h.03l1.2-4.12h1.71l-2.13,6.44v4.77h-1.76v-4.77Z"/>
        <path class="cls-9" d="M26.05,202.12h2.61c1.83,0,2.61,.85,2.61,2.58v.69c0,1.15-.37,1.89-1.15,2.21v.03c.88,.27,1.17,1.11,1.17,2.37v1.97c0,.54,.02,.95,.19,1.36h-1.79c-.1-.29-.16-.46-.16-1.38v-2.05c0-1.04-.3-1.38-1.11-1.38h-.61v4.81h-1.76v-11.22Zm2.4,4.81c.66,0,1.06-.29,1.06-1.19v-.87c0-.8-.27-1.15-.9-1.15h-.8v3.2h.64Z"/>
        <path class="cls-9" d="M33.14,202.12h4.81v1.6h-3.04v2.96h2.42v1.6h-2.42v3.44h3.04v1.6h-4.81v-11.22Z"/>
        <path class="cls-9" d="M39.6,202.12h2.51l1.12,8.03h.03l1.12-8.03h2.52v11.22h-1.67v-8.49h-.03l-1.28,8.49h-1.47l-1.28-8.49h-.03v8.49h-1.54v-11.22Z"/>
        <path class="cls-9" d="M50.22,202.12h2.39l1.83,11.22h-1.76l-.32-2.23v.03h-2l-.32,2.19h-1.63l1.83-11.22Zm1.92,7.5l-.79-5.54h-.03l-.77,5.54h1.59Z"/>
        <path class="cls-9" d="M55.92,202.12h1.76v11.22h-1.76v-11.22Z"/>
        <path class="cls-9" d="M59.64,202.12h2.21l1.71,6.71h.03v-6.71h1.57v11.22h-1.81l-2.12-8.19h-.03v8.19h-1.57v-11.22Z"/>
        <path class="cls-9" d="M67.12,202.12h4.81v1.6h-3.04v2.96h2.42v1.6h-2.42v3.44h3.04v1.6h-4.81v-11.22Z"/>
        <path class="cls-9" d="M73.57,202.12h2.69c1.76,0,2.63,.98,2.63,2.77v5.67c0,1.79-.87,2.77-2.63,2.77h-2.69v-11.22Zm2.66,9.61c.56,0,.9-.29,.9-1.09v-5.83c0-.8-.34-1.09-.9-1.09h-.9v8.01h.9Z"/>
        <path class="cls-4" d="M87.06,210.67v-8.56h1.76v8.68c0,.8,.34,1.09,.9,1.09s.9-.29,.9-1.09v-8.68h1.7v8.56c0,1.79-.9,2.82-2.63,2.82s-2.63-1.03-2.63-2.82Z"/>
        <path class="cls-4" d="M94.2,202.12h2.21l1.71,6.71h.03v-6.71h1.57v11.22h-1.81l-2.12-8.19h-.03v8.19h-1.57v-11.22Z"/>
        <path class="cls-4" d="M101.68,202.12h2.69c1.76,0,2.63,.98,2.63,2.77v5.67c0,1.79-.87,2.77-2.63,2.77h-2.69v-11.22Zm2.66,9.61c.56,0,.9-.29,.9-1.09v-5.83c0-.8-.34-1.09-.9-1.09h-.9v8.01h.9Z"/>
        <path class="cls-4" d="M108.83,202.12h4.81v1.6h-3.04v2.96h2.42v1.6h-2.42v3.44h3.04v1.6h-4.81v-11.22Z"/>
        <path class="cls-4" d="M116.66,203.72h-1.84v-1.6h5.45v1.6h-1.84v9.61h-1.76v-9.61Z"/>
        <path class="cls-4" d="M121.76,202.12h4.81v1.6h-3.04v2.96h2.42v1.6h-2.42v3.44h3.04v1.6h-4.81v-11.22Z"/>
        <path class="cls-4" d="M128.1,210.74v-6.02c0-1.73,.9-2.76,2.6-2.76s2.59,1.03,2.59,2.76v1.19h-1.67v-1.3c0-.74-.35-1.04-.88-1.04s-.88,.3-.88,1.04v6.26c0,.74,.35,1.03,.88,1.03s.88-.29,.88-1.03v-1.71h1.67v1.59c0,1.73-.9,2.76-2.59,2.76s-2.6-1.03-2.6-2.76Z"/>
        <path class="cls-4" d="M136.36,203.72h-1.84v-1.6h5.45v1.6h-1.84v9.61h-1.76v-9.61Z"/>
        <path class="cls-4" d="M141.46,202.12h4.81v1.6h-3.04v2.96h2.42v1.6h-2.42v3.44h3.04v1.6h-4.81v-11.22Z"/>
        <path class="cls-4" d="M147.91,202.12h2.69c1.76,0,2.63,.98,2.63,2.77v5.67c0,1.79-.87,2.77-2.63,2.77h-2.69v-11.22Zm2.66,9.61c.56,0,.9-.29,.9-1.09v-5.83c0-.8-.34-1.09-.9-1.09h-.9v8.01h.9Z"/>
      </g>
    </g>
    <line class="cls-5" x1="16.97" y1="168.71" x2="167.22" y2="168.71"/>
    <g>
      <path class="cls-1" d="M14.7,23.43h2.67l2.07,8.09h.04v-8.09h1.89v13.52h-2.18l-2.55-9.87h-.04v9.87h-1.89v-13.52Z"/>
      <path class="cls-1" d="M23.62,23.43h5.79v1.93h-3.67v3.57h2.92v1.93h-2.92v4.15h3.67v1.93h-5.79v-13.52Z"/>
      <path class="cls-1" d="M32.93,23.43h2.88l2.2,13.52h-2.12l-.39-2.69v.04h-2.41l-.39,2.65h-1.97l2.2-13.52Zm2.32,9.04l-.95-6.68h-.04l-.93,6.68h1.91Z"/>
      <path class="cls-1" d="M39.7,23.43h3.15c2.2,0,3.15,1.02,3.15,3.11v.83c0,1.39-.44,2.28-1.39,2.67v.04c1.06,.33,1.41,1.33,1.41,2.86v2.38c0,.66,.02,1.14,.23,1.64h-2.16c-.12-.35-.19-.56-.19-1.66v-2.47c0-1.26-.37-1.66-1.33-1.66h-.73v5.8h-2.12v-13.52Zm2.9,5.8c.79,0,1.28-.35,1.28-1.43v-1.04c0-.97-.33-1.39-1.08-1.39h-.97v3.86h.77Z"/>
      <path class="cls-1" d="M48.15,23.43h2.12v11.59h3.5v1.93h-5.62v-13.52Z"/>
      <path class="cls-1" d="M55.71,31.2l-2.57-7.77h2.26l1.45,4.96h.04l1.45-4.96h2.07l-2.57,7.77v5.76h-2.12v-5.76Z"/>
      <path class="cls-1" d="M14.94,62.39c0-2.64,.74-4.26,2.91-6.53,2.22-2.35,2.86-3.76,2.86-5.47s-.58-2.12-1.51-2.12-1.51,.5-1.51,1.82v1.98h-2.75v-1.8c0-2.96,1.48-4.65,4.34-4.65s4.34,1.69,4.34,4.65c0,2.19-.9,4.15-3.6,7.01-1.75,1.85-2.19,2.78-2.19,4.07v.4h5.53v2.64H14.94v-2.01Z"/>
      <path class="cls-1" d="M26.02,60.01v-9.73c0-2.96,1.56-4.65,4.42-4.65s4.42,1.69,4.42,4.65v9.73c0,2.96-1.56,4.65-4.42,4.65s-4.42-1.69-4.42-4.65Zm5.92,.19v-10.1c0-1.32-.58-1.82-1.51-1.82s-1.51,.5-1.51,1.82v10.1c0,1.32,.58,1.82,1.51,1.82s1.51-.5,1.51-1.82Z"/>
      <path class="cls-1" d="M37.26,60.01v-9.73c0-2.96,1.56-4.65,4.42-4.65s4.42,1.69,4.42,4.65v9.73c0,2.96-1.56,4.65-4.42,4.65s-4.42-1.69-4.42-4.65Zm5.92,.19v-10.1c0-1.32-.58-1.82-1.51-1.82s-1.51,.5-1.51,1.82v10.1c0,1.32,.58,1.82,1.51,1.82s1.51-.5,1.51-1.82Z"/>
      <path class="cls-1" d="M49.66,64.39h-.95v-2.8h2.8v2.51l-1.45,3.46h-1.35l.95-3.17Z"/>
      <path class="cls-1" d="M54.13,60.01v-9.73c0-2.96,1.56-4.65,4.42-4.65s4.42,1.69,4.42,4.65v9.73c0,2.96-1.56,4.65-4.42,4.65s-4.42-1.69-4.42-4.65Zm5.92,.19v-10.1c0-1.32-.58-1.82-1.51-1.82s-1.51,.5-1.51,1.82v10.1c0,1.32,.58,1.82,1.51,1.82s1.51-.5,1.51-1.82Z"/>
      <path class="cls-1" d="M65.37,60.01v-9.73c0-2.96,1.56-4.65,4.42-4.65s4.42,1.69,4.42,4.65v9.73c0,2.96-1.56,4.65-4.42,4.65s-4.42-1.69-4.42-4.65Zm5.92,.19v-10.1c0-1.32-.58-1.82-1.51-1.82s-1.51,.5-1.51,1.82v10.1c0,1.32,.58,1.82,1.51,1.82s1.51-.5,1.51-1.82Z"/>
      <path class="cls-1" d="M76.61,60.01v-9.73c0-2.96,1.56-4.65,4.42-4.65s4.42,1.69,4.42,4.65v9.73c0,2.96-1.56,4.65-4.42,4.65s-4.42-1.69-4.42-4.65Zm5.92,.19v-10.1c0-1.32-.58-1.82-1.51-1.82s-1.51,.5-1.51,1.82v10.1c0,1.32,.58,1.82,1.51,1.82s1.51-.5,1.51-1.82Z"/>
    </g>
    <g>
      <g>
        <g>
          <g>
            <path class="cls-3" d="M157.57,29.37l4.44-1.49,1.36,2.72c.1,.2,.29,.34,.51,.37l9.17,1.36c.37,.05,.71-.2,.77-.57l1.16-7.87c.02-.11,0-.22-.03-.33-.02-.06-.05-.13-.09-.18-.11-.14-.27-.24-.45-.27l-9.24-1.36c-.22-.03-.45,.04-.6,.21l-3.25,3.56c-.19,.21-.23,.51-.11,.76l.46,.92-3.87,1.34"/>
            <g>
              <polygon class="cls-1" points="163.42 31.05 162.21 28.61 162.2 28.61 160.84 25.85 164.75 21.55 175.22 23.09 173.84 32.59 163.42 31.05"/>
              <path class="cls-7" d="M165.32,23.15l8.2,1.2-.95,6.53-8.16-1.21-1.12-2.25,1.01-.35c.21,.27,.53,.43,.86,.43,.12,0,.24-.02,.35-.06,.57-.2,.87-.81,.67-1.38-.16-.45-.58-.73-1.03-.73-.12,0-.24,.02-.36,.06-.43,.15-.71,.54-.73,.97l-1.12,.39-.33-.66,2.69-2.95m-1.14-3.2l-1.07,1.18-2.69,2.95-1.38,1.51,.06,.12h0s1.01,2.04,1.01,2.04l.17,.34,1.17,2.37h0s.28,.56,.28,.56l.7,1.4,1.55,.23,8.16,1.21,2.97,.44,.43-2.98,.95-6.53,.43-2.96-2.96-.44-8.2-1.2-1.58-.23h0Z"/>
            </g>
          </g>
          <g>
            <path class="cls-3" d="M109.45,33.49l-3.8,1.52-.26-1c-.07-.27-.3-.47-.58-.51l-4.79-.57c-.22-.03-.45,.06-.6,.24l-6.09,7.07c-.12,.14-.18,.32-.16,.5,0,.07,.02,.13,.05,.2,.04,.1,.11,.19,.19,.27l6.03,5.19c.29,.24,.71,.21,.96-.08l6.05-7.03c.15-.17,.2-.4,.14-.61l-.76-2.95,4.33-1.78"/>
            <g>
              <polygon class="cls-1" points="92.69 40.76 99.61 32.75 105.38 33.43 105.58 34.22 106.16 36.42 106.15 36.42 106.83 39.06 99.96 47.05 92.69 40.76"/>
              <path class="cls-7" d="M100.22,34.33l3.96,.47,.19,.71-1.1,.44c-.21-.21-.49-.34-.79-.34-.13,0-.27,.02-.4,.08-.56,.22-.83,.85-.61,1.41,.17,.42,.58,.68,1.01,.68,.13,0,.27-.03,.4-.08,.45-.18,.7-.62,.68-1.07l.99-.4,.63,2.43-5.38,6.25-5-4.32,5.41-6.28m-1.23-3.17l-1.04,1.21-5.41,6.28-1.96,2.27,2.27,1.96,5,4.32,2.27,1.97,1.96-2.28,5.38-6.25,1.02-1.19-.39-1.52-.16-.61h0s-.67-2.56-.67-2.56l-.1-.37-.56-2.2h0s-.03-.13-.03-.13l-2.03-.24-3.96-.47-1.58-.19h0Z"/>
            </g>
          </g>
          <g>
            <path class="cls-1" d="M129.89,18.57c-1.16,0-2.26-.42-3.1-1.16-1.3,.76-2.71,1.16-4.14,1.16s-2.84-.4-4.14-1.16c-.84,.74-1.94,1.16-3.1,1.16-2.61,0-4.72-2.05-4.72-4.58,0-2.09,1.45-3.85,3.43-4.4,.23-4.5,3.97-8.09,8.54-8.09s8.3,3.59,8.53,8.09c1.98,.54,3.44,2.31,3.44,4.4,0,2.52-2.12,4.58-4.72,4.58Z"/>
            <path class="cls-7" d="M122.65,3c3.89,0,7.04,3.15,7.04,7.04,0,.34-.14,.64-.19,.96,.13-.02,.25-.08,.39-.08,1.79,0,3.22,1.38,3.22,3.08s-1.44,3.08-3.22,3.08c-1.25,0-2.29-.69-2.83-1.68-1.22,1-2.71,1.68-4.41,1.68s-3.2-.68-4.42-1.68c-.54,.99-1.59,1.68-2.83,1.68-1.79,0-3.22-1.38-3.22-3.08s1.44-3.08,3.22-3.08c.14,0,.26,.06,.39,.08-.05-.33-.2-.62-.2-.96,0-3.89,3.15-7.04,7.05-7.04m0-3c-5.02,0-9.2,3.7-9.93,8.52-2.09,.98-3.53,3.07-3.53,5.48,0,3.35,2.79,6.08,6.22,6.08,1.16,0,2.27-.32,3.23-.9,1.28,.59,2.63,.9,4.02,.9s2.74-.31,4.01-.9c.96,.58,2.07,.9,3.23,.9,3.43,0,6.22-2.73,6.22-6.08,0-2.41-1.45-4.5-3.54-5.48-.74-4.81-4.91-8.51-9.92-8.51h0Z"/>
          </g>
        </g>
        <g>
          <path class="cls-1" d="M126.77,71.41c-1.68,0-3.05-1.34-3.08-3.01l-.64-8.57-.64,8.57c-.03,1.67-1.41,3.01-3.08,3.01s-3.03-1.34-3.07-3.01l-1.25-16.55h-4.82l2.25-10.9-.49,1.06c-.47,1.1-1.58,1.84-2.82,1.84-.41,0-.82-.08-1.2-.24-.76-.33-1.34-.92-1.65-1.68-.29-.73-.29-1.52-.01-2.25,.34-1.22,3.64-13.11,5.27-16.45,1.97-4.05,4.29-6.24,10.87-6.24h1.29c6.58,0,8.9,2.19,10.87,6.24,.94,1.92,2.43,6.67,3.75,11.15,1.3-1.87,2.21-3.32,2.64-4.2,1.85-3.79,4.88-5.4,10.14-5.4h1.07c5.25,0,8.29,1.61,10.14,5.39,1.41,2.87,2.12,12.73,2.24,14.64,.41,1.36-.26,2.85-1.6,3.43-.35,.15-.71,.22-1.09,.22,0,0-.11,0-.16,0l1.34,7.72h-3.55l.59,10.87c.12,2.01-1.4,3.76-3.39,3.93-.11,.01-.21,.02-.33,.02-1.94,0-3.55-1.49-3.69-3.41l-1.02-7.75-1.02,7.79c-.14,1.85-1.77,3.36-3.71,3.36-.1,0-.2,0-.32-.02-2-.17-3.52-1.93-3.39-3.95l.58-10.85h-3.06l2.54-17.28c-4.48,4.46-4.82,4.6-5.07,4.72-.4,.17-.8,.25-1.21,.25-1.23,0-2.35-.73-2.83-1.87l-.48-1.04,2.25,10.91h-4.82l-1.24,16.55c-.03,1.67-1.4,3.01-3.07,3.01Z"/>
          <path class="cls-7" d="M123.69,18.47c6.24,0,7.88,2.04,9.52,5.4,1.2,2.46,3.41,9.99,4.51,13.88,1.59-2.17,3.75-5.23,4.57-6.94,1.39-2.84,3.53-4.55,8.79-4.55h1.07c5.27,0,7.4,1.71,8.79,4.55,1.39,2.82,2.1,14.28,2.1,14.28,.29,.69-.03,1.46-.71,1.74-.17,.07-.34,.1-.51,.1-.52,0-1.01-.31-1.23-.81l-2.76-11.53v.45s3.39,19.61,3.39,19.61h-3.35l.67,12.45c.07,1.22-.84,2.27-2.06,2.36-.06,0-.11,0-.17,0-1.15,0-2.13-.89-2.2-2.06l-1.68-12.76h-1.67l-1.67,12.76c-.09,1.17-1.06,2.06-2.22,2.06-.05,0-.1,0-.16,0-1.21-.09-2.13-1.14-2.05-2.36l.66-12.45h-2.91l2.95-20.06s-7.36,7.41-7.82,7.61c-.2,.09-.41,.13-.61,.13-.61,0-1.2-.36-1.46-.96l-5.98-13.01,4.53,21.97h-4.37l-1.35,17.98c0,.86-.71,1.58-1.57,1.58s-1.59-.71-1.59-1.58l-1.35-17.98h-1.59l-1.35,17.98c0,.86-.7,1.58-1.59,1.58s-1.57-.71-1.57-1.58l-1.35-17.98h-4.37l4.53-21.97-5.97,13.01c-.25,.6-.84,.96-1.46,.96-.21,0-.41-.04-.61-.13-.79-.34-1.17-1.26-.82-2.07,0,0,3.55-12.91,5.19-16.28,1.64-3.36,3.28-5.4,9.52-5.4h1.28m0-3h-1.28c-7.33,0-10.03,2.6-12.22,7.09-1.66,3.41-4.82,14.73-5.35,16.64-.39,1.06-.38,2.22,.05,3.27,.45,1.13,1.32,2.02,2.44,2.5,.58,.25,1.18,.37,1.8,.37,.3,0,.6-.03,.89-.09l-.92,4.49-.74,3.61h5.27l1.14,15.12c.07,2.46,2.09,4.44,4.57,4.44,1.53,0,2.89-.76,3.73-1.91,.83,1.16,2.19,1.91,3.73,1.91,2.47,0,4.49-1.98,4.57-4.44l1.14-15.12h5.27l-.74-3.61-.92-4.48c.29,.06,.59,.09,.89,.09,.62,0,1.22-.12,1.79-.36,.37-.16,.66-.29,2.36-1.91l-1.64,11.15-.51,3.44h3.22l-.5,9.29c-.18,2.79,1.94,5.25,4.74,5.5,.22,.02,.39,.02,.47,.02,2.06,0,3.87-1.22,4.72-3,.83,1.78,2.64,3,4.72,3,.09,0,.27,0,.49-.03,2.78-.26,4.89-2.71,4.73-5.52l-.5-9.28h3.75l-.61-3.51-.78-4.5s.08-.03,.12-.05c1.98-.84,3.02-3.02,2.49-5.05-.21-3.2-.91-12.05-2.38-15.05-2.11-4.31-5.66-6.23-11.48-6.23h-1.07c-5.84,0-9.39,1.92-11.49,6.23-.17,.35-.43,.81-.77,1.36-1.26-4.14-2.24-6.93-2.92-8.31-2.19-4.48-4.89-7.08-12.22-7.08h0Z"/>
        </g>
        <g>
          <path class="cls-1" d="M151.63,26.45c-4.1,0-7.43-3.33-7.43-7.42s3.33-7.42,7.43-7.42c.53,0,1.04,.05,1.55,.16,.87-1.27,2.32-2.08,3.91-2.08,2.62,0,4.76,2.13,4.76,4.76,0,.41-.14,1.04-.28,1.54h.02s-.02,0-.02,0c0,0,0,0,0,0h.02c-.72,2.25-.98,5.12-.22,5.82l.31,.28,.33,1.12-.46,.66c-.31,.41-.79,.64-1.34,.64h0c-.65,0-1.63-.38-2.54-1.17-1.36,1.91-3.58,3.1-6.03,3.1Z"/>
          <path class="cls-7" d="M157.09,11.19c1.8,0,3.26,1.46,3.26,3.26,0,.31-.21,1.14-.36,1.63l-.09,.29c.02-.07,.06-.17,.09-.29l.17-.54c-.08,.24-1.75,5.58,.19,7.37,.02,.07-.04,.11-.15,.11-.48,0-1.99-.69-2.83-2.56-.64,2.58-2.96,4.5-5.74,4.5-3.28,0-5.93-2.65-5.93-5.92s2.65-5.92,5.93-5.92c.83,0,1.62,.17,2.34,.48,.38-1.38,1.63-2.39,3.12-2.39m3.07,4.34h0s0,0,0,0m-3.07-7.34c-1.75,0-3.38,.74-4.53,1.96-.31-.03-.62-.05-.93-.05-4.93,0-8.93,4-8.93,8.92s4.01,8.92,8.93,8.92c2.42,0,4.66-.97,6.28-2.59,.79,.44,1.59,.66,2.29,.66,1.02,0,1.95-.45,2.54-1.24,.58-.77,.76-1.77,.49-2.7l-.23-.8-.5-.46c-.23-.68,.01-2.77,.52-4.36h-.02c.23-.85,.35-1.52,.35-2,0-3.45-2.81-6.26-6.26-6.26h0Z"/>
        </g>
      </g>
      <g>
        <g>
          <g>
            <path class="cls-1" d="M157.57,29.37l4.44-1.49,1.36,2.72c.1,.2,.29,.34,.51,.37l9.17,1.36c.37,.05,.71-.2,.77-.57l1.16-7.87c.02-.11,0-.22-.03-.33-.02-.06-.05-.13-.09-.18-.11-.14-.27-.24-.45-.27l-9.24-1.36c-.22-.03-.45,.04-.6,.21l-3.25,3.56c-.19,.21-.23,.51-.11,.76l.46,.92-3.87,1.34"/>
            <path class="cls-2" d="M172.57,30.89l-8.16-1.21-1.12-2.25,1.01-.35c.28,.36,.76,.52,1.21,.37,.57-.2,.87-.81,.67-1.38-.2-.57-.81-.87-1.38-.67-.43,.15-.71,.54-.73,.97l-1.12,.39-.33-.66,2.69-2.95,8.2,1.2-.95,6.53Z"/>
          </g>
          <g>
            <path class="cls-1" d="M109.45,33.49l-3.8,1.52-.26-1c-.07-.27-.3-.47-.58-.51l-4.79-.57c-.22-.03-.45,.06-.6,.24l-6.09,7.07c-.12,.14-.18,.32-.16,.5,0,.07,.02,.13,.05,.2,.04,.1,.11,.19,.19,.27l6.03,5.19c.29,.24,.71,.21,.96-.08l6.05-7.03c.15-.17,.2-.4,.14-.61l-.76-2.95,4.33-1.78"/>
            <path class="cls-2" d="M94.81,40.61l5.41-6.28,3.96,.47,.19,.71-1.1,.44c-.3-.31-.76-.43-1.19-.26-.56,.22-.83,.85-.61,1.41,.22,.56,.86,.83,1.41,.61,.45-.18,.7-.62,.68-1.07l.99-.4,.63,2.43-5.38,6.25-5-4.32Z"/>
          </g>
          <path class="cls-1" d="M133.11,13.99c0,1.7-1.44,3.08-3.22,3.08-1.25,0-2.29-.69-2.83-1.68-1.22,1-2.71,1.68-4.41,1.68s-3.2-.68-4.42-1.68c-.54,.99-1.59,1.68-2.83,1.68-1.79,0-3.22-1.38-3.22-3.08s1.44-3.08,3.22-3.08c.14,0,.26,.06,.39,.08-.05-.33-.2-.62-.2-.96,0-3.89,3.15-7.04,7.05-7.04s7.04,3.15,7.04,7.04c0,.34-.14,.64-.19,.96,.13-.02,.25-.08,.39-.08,1.79,0,3.22,1.38,3.22,3.08Z"/>
        </g>
        <path class="cls-1" d="M163.05,45.1s-.72-11.46-2.1-14.28c-1.39-2.84-3.52-4.55-8.79-4.55h-1.07c-5.26,0-7.41,1.71-8.79,4.55-.82,1.71-2.98,4.77-4.57,6.94-1.11-3.89-3.31-11.42-4.51-13.88-1.64-3.36-3.28-5.4-9.52-5.4h-1.28c-6.25,0-7.88,2.04-9.52,5.4-1.64,3.36-5.19,16.28-5.19,16.28-.35,.81,.03,1.73,.82,2.07,.8,.34,1.73-.04,2.07-.84l5.97-13.01-4.53,21.97h4.37l1.35,17.98c0,.86,.71,1.58,1.57,1.58s1.59-.71,1.59-1.58l1.35-17.98h1.59l1.35,17.98c0,.86,.7,1.58,1.59,1.58s1.57-.71,1.57-1.58l1.35-17.98h4.37l-4.53-21.97,5.98,13.01c.34,.8,1.27,1.18,2.07,.84,.46-.2,7.82-7.61,7.82-7.61l-2.95,20.06h2.91l-.66,12.45c-.08,1.22,.84,2.27,2.05,2.36,.06,0,.11,0,.16,0,1.15,0,2.13-.89,2.22-2.06l1.67-12.76h1.67l1.68,12.76c.06,1.17,1.05,2.06,2.2,2.06,.06,0,.11,0,.17,0,1.22-.09,2.13-1.14,2.06-2.36l-.67-12.45h3.35l-3.4-19.61v-.45s2.77,11.53,2.77,11.53c.29,.66,1.07,.99,1.74,.71,.68-.29,1-1.05,.71-1.74Z"/>
        <path class="cls-1" d="M160.16,15.53h-.02c.12-.33,.2-.7,.2-1.08,0-1.8-1.46-3.26-3.26-3.26-1.5,0-2.75,1.02-3.13,2.39-.72-.31-1.51-.48-2.34-.48-3.28,0-5.93,2.65-5.93,5.92s2.65,5.92,5.93,5.92c2.77,0,5.1-1.91,5.74-4.5,1.04,2.31,3.09,2.82,2.98,2.46-1.98-1.83-.18-7.38-.18-7.38Z"/>
      </g>
    </g>
    <g>
      <rect class="cls-8" y="78.92" width="182.89" height="31.96"/>
      <g>
        <path class="cls-4" d="M16.99,89.19h-2.5v-2.17h7.39v2.17h-2.5v13.04h-2.39v-13.04Z"/>
        <path class="cls-4" d="M23.9,87.02h3.54c2.48,0,3.54,1.15,3.54,3.5v.93c0,1.56-.5,2.56-1.56,3v.04c1.19,.37,1.59,1.5,1.59,3.22v2.67c0,.74,.02,1.28,.26,1.85h-2.43c-.13-.39-.22-.63-.22-1.87v-2.78c0-1.41-.41-1.87-1.5-1.87h-.83v6.52h-2.39v-15.21Zm3.26,6.52c.89,0,1.43-.39,1.43-1.61v-1.17c0-1.09-.37-1.56-1.22-1.56h-1.09v4.35h.87Z"/>
        <path class="cls-4" d="M35.38,87.02h3.24l2.48,15.21h-2.39l-.43-3.02v.04h-2.72l-.43,2.98h-2.22l2.48-15.21Zm2.61,10.17l-1.06-7.52h-.04l-1.04,7.52h2.15Z"/>
        <path class="cls-4" d="M43.11,87.02h6.32v2.17h-3.93v4.24h3.08v2.17h-3.08v6.63h-2.39v-15.21Z"/>
        <path class="cls-4" d="M51.46,87.02h6.32v2.17h-3.93v4.24h3.08v2.17h-3.08v6.63h-2.39v-15.21Z"/>
        <path class="cls-4" d="M59.8,87.02h2.39v15.21h-2.39v-15.21Z"/>
        <path class="cls-4" d="M64.69,98.7v-8.17c0-2.35,1.22-3.74,3.52-3.74s3.52,1.39,3.52,3.74v1.61h-2.26v-1.76c0-1-.48-1.41-1.2-1.41s-1.2,.41-1.2,1.41v8.5c0,1,.48,1.39,1.2,1.39s1.2-.39,1.2-1.39v-2.33h2.26v2.15c0,2.35-1.22,3.74-3.52,3.74s-3.52-1.39-3.52-3.74Z"/>
        <path class="cls-4" d="M74.04,87.02h2.39v6.41l3.04-6.41h2.39l-2.85,5.58,2.89,9.63h-2.5l-2.02-6.78-.96,1.93v4.85h-2.39v-15.21Z"/>
        <path class="cls-4" d="M83.91,87.02h2.39v15.21h-2.39v-15.21Z"/>
        <path class="cls-4" d="M88.95,87.02h3l2.33,9.1h.04v-9.1h2.13v15.21h-2.46l-2.87-11.1h-.04v11.1h-2.13v-15.21Z"/>
        <path class="cls-4" d="M98.92,98.62v-8c0-2.43,1.22-3.82,3.56-3.82s3.56,1.39,3.56,3.82v1.3h-2.26v-1.46c0-1.09-.48-1.5-1.24-1.5s-1.24,.41-1.24,1.5v8.32c0,1.09,.48,1.48,1.24,1.48s1.24-.39,1.24-1.48v-2.98h-1.2v-2.17h3.46v4.98c0,2.43-1.22,3.82-3.56,3.82s-3.56-1.39-3.56-3.82Z"/>
        <path class="cls-4" d="M112.18,87.02h2.41l1.56,11.8h.04l1.56-11.8h2.2l-2.3,15.21h-3.17l-2.3-15.21Z"/>
        <path class="cls-4" d="M121.98,87.02h2.39v15.21h-2.39v-15.21Z"/>
        <path class="cls-4" d="M126.87,98.7v-8.17c0-2.35,1.22-3.74,3.52-3.74s3.52,1.39,3.52,3.74v1.61h-2.26v-1.76c0-1-.48-1.41-1.19-1.41s-1.2,.41-1.2,1.41v8.5c0,1,.48,1.39,1.2,1.39s1.19-.39,1.19-1.39v-2.33h2.26v2.15c0,2.35-1.22,3.74-3.52,3.74s-3.52-1.39-3.52-3.74Z"/>
        <path class="cls-4" d="M138.08,89.19h-2.5v-2.17h7.39v2.17h-2.5v13.04h-2.39v-13.04Z"/>
        <path class="cls-4" d="M145,87.02h2.39v15.21h-2.39v-15.21Z"/>
        <path class="cls-4" d="M150.04,87.02h3.41l1.52,10.89h.04l1.52-10.89h3.41v15.21h-2.26v-11.52h-.04l-1.74,11.52h-2l-1.74-11.52h-.04v11.52h-2.09v-15.21Z"/>
        <path class="cls-4" d="M162.19,98.62v-.87h2.26v1.04c0,1.09,.48,1.48,1.24,1.48s1.24-.39,1.24-1.52c0-1.26-.48-2.06-2.04-3.43-2-1.76-2.65-3-2.65-4.74,0-2.39,1.24-3.78,3.56-3.78s3.48,1.39,3.48,3.82v.63h-2.26v-.78c0-1.09-.43-1.5-1.2-1.5s-1.2,.41-1.2,1.46c0,1.11,.5,1.91,2.06,3.28,2,1.76,2.63,2.98,2.63,4.87,0,2.48-1.26,3.87-3.61,3.87s-3.52-1.39-3.52-3.82Z"/>
      </g>
    </g>
    <g>
      <g>
        <path class="cls-9" d="M14.47,126.5h1.7l.79,8.62h.03l.83-8.62h1.92l.83,8.62h.03l.79-8.62h1.52l-1.14,11.22h-2.19l-.8-7.56h-.03l-.8,7.56h-2.34l-1.14-11.22Z"/>
        <path class="cls-9" d="M24.45,126.5h4.81v1.6h-3.04v2.96h2.42v1.6h-2.42v3.44h3.04v1.6h-4.81v-11.22Z"/>
        <path class="cls-9" d="M30.91,126.5h2.61c1.83,0,2.61,.85,2.61,2.58v.69c0,1.15-.37,1.89-1.15,2.21v.03c.88,.27,1.17,1.11,1.17,2.37v1.97c0,.54,.02,.95,.19,1.36h-1.79c-.1-.29-.16-.46-.16-1.38v-2.05c0-1.04-.3-1.38-1.11-1.38h-.61v4.81h-1.76v-11.22Zm2.4,4.81c.66,0,1.06-.29,1.06-1.19v-.87c0-.8-.27-1.15-.9-1.15h-.8v3.2h.64Z"/>
        <path class="cls-9" d="M38,126.5h4.81v1.6h-3.04v2.96h2.42v1.6h-2.42v3.44h3.04v1.6h-4.81v-11.22Z"/>
        <path class="cls-1" d="M47.66,126.5h2.69c1.76,0,2.63,.98,2.63,2.77v5.67c0,1.79-.87,2.77-2.63,2.77h-2.69v-11.22Zm2.66,9.61c.56,0,.9-.29,.9-1.09v-5.83c0-.8-.34-1.09-.9-1.09h-.9v8.01h.9Z"/>
        <path class="cls-1" d="M54.8,126.5h4.81v1.6h-3.04v2.96h2.42v1.6h-2.42v3.44h3.04v1.6h-4.81v-11.22Z"/>
        <path class="cls-1" d="M62.64,128.1h-1.84v-1.6h5.45v1.6h-1.84v9.61h-1.76v-9.61Z"/>
        <path class="cls-1" d="M67.73,126.5h4.81v1.6h-3.04v2.96h2.42v1.6h-2.42v3.44h3.04v1.6h-4.81v-11.22Z"/>
        <path class="cls-1" d="M74.07,135.12v-6.02c0-1.73,.9-2.76,2.6-2.76s2.59,1.03,2.59,2.76v1.19h-1.67v-1.3c0-.74-.35-1.04-.88-1.04s-.88,.3-.88,1.04v6.26c0,.74,.35,1.03,.88,1.03s.88-.29,.88-1.03v-1.71h1.67v1.59c0,1.73-.9,2.76-2.59,2.76s-2.6-1.03-2.6-2.76Z"/>
        <path class="cls-1" d="M82.34,128.1h-1.84v-1.6h5.45v1.6h-1.84v9.61h-1.76v-9.61Z"/>
        <path class="cls-1" d="M87.43,126.5h4.81v1.6h-3.04v2.96h2.42v1.6h-2.42v3.44h3.04v1.6h-4.81v-11.22Z"/>
        <path class="cls-1" d="M93.89,126.5h2.69c1.76,0,2.63,.98,2.63,2.77v5.67c0,1.79-.87,2.77-2.63,2.77h-2.69v-11.22Zm2.66,9.61c.56,0,.9-.29,.9-1.09v-5.83c0-.8-.34-1.09-.9-1.09h-.9v8.01h.9Z"/>
        <path class="cls-1" d="M103.82,126.5h1.7l.79,8.62h.03l.83-8.62h1.92l.83,8.62h.03l.79-8.62h1.52l-1.14,11.22h-2.19l-.8-7.56h-.03l-.8,7.56h-2.34l-1.14-11.22Z"/>
        <path class="cls-1" d="M113.67,135.05v-5.9c0-1.79,.95-2.82,2.68-2.82s2.68,1.03,2.68,2.82v5.9c0,1.79-.95,2.82-2.68,2.82s-2.68-1.03-2.68-2.82Zm3.59,.11v-6.12c0-.8-.35-1.11-.91-1.11s-.91,.3-.91,1.11v6.12c0,.8,.35,1.11,.91,1.11s.91-.3,.91-1.11Z"/>
        <path class="cls-1" d="M120.85,126.5h2.61c1.83,0,2.61,.85,2.61,2.58v.69c0,1.15-.37,1.89-1.15,2.21v.03c.88,.27,1.17,1.11,1.17,2.37v1.97c0,.54,.02,.95,.19,1.36h-1.79c-.1-.29-.16-.46-.16-1.38v-2.05c0-1.04-.3-1.38-1.11-1.38h-.61v4.81h-1.76v-11.22Zm2.4,4.81c.66,0,1.06-.29,1.06-1.19v-.87c0-.8-.27-1.15-.9-1.15h-.8v3.2h.64Z"/>
        <path class="cls-1" d="M127.94,126.5h1.76v9.61h2.9v1.6h-4.66v-11.22Z"/>
        <path class="cls-1" d="M134.09,126.5h2.69c1.76,0,2.63,.98,2.63,2.77v5.67c0,1.79-.87,2.77-2.63,2.77h-2.69v-11.22Zm2.66,9.61c.56,0,.9-.29,.9-1.09v-5.83c0-.8-.34-1.09-.9-1.09h-.9v8.01h.9Z"/>
        <path class="cls-1" d="M140.82,126.5h1.7l.79,8.62h.03l.83-8.62h1.92l.83,8.62h.03l.79-8.62h1.52l-1.14,11.22h-2.19l-.8-7.56h-.03l-.8,7.56h-2.34l-1.14-11.22Z"/>
        <path class="cls-1" d="M150.8,126.5h1.76v11.22h-1.76v-11.22Z"/>
        <path class="cls-1" d="M154.52,126.5h2.69c1.76,0,2.63,.98,2.63,2.77v5.67c0,1.79-.87,2.77-2.63,2.77h-2.69v-11.22Zm2.66,9.61c.56,0,.9-.29,.9-1.09v-5.83c0-.8-.34-1.09-.9-1.09h-.9v8.01h.9Z"/>
        <path class="cls-1" d="M161.66,126.5h4.81v1.6h-3.04v2.96h2.42v1.6h-2.42v3.44h3.04v1.6h-4.81v-11.22Z"/>
        <path class="cls-9" d="M26.93,145.04h2.66c1.83,0,2.61,.85,2.61,2.58v.45c0,1.15-.35,1.87-1.14,2.19v.03c.95,.32,1.31,1.15,1.31,2.34v.96c0,1.73-.91,2.66-2.68,2.66h-2.77v-11.22Zm2.45,4.57c.66,0,1.06-.29,1.06-1.19v-.62c0-.8-.27-1.15-.9-1.15h-.85v2.96h.69Zm.32,5.05c.59,0,.91-.27,.91-1.11v-.98c0-1.04-.34-1.36-1.14-1.36h-.79v3.44h1.01Z"/>
        <path class="cls-9" d="M34.04,145.04h4.81v1.6h-3.04v2.96h2.42v1.6h-2.42v3.44h3.04v1.6h-4.81v-11.22Z"/>
        <path class="cls-9" d="M41.87,146.65h-1.84v-1.6h5.45v1.6h-1.84v9.61h-1.76v-9.61Z"/>
        <path class="cls-9" d="M46.61,145.04h1.7l.79,8.62h.03l.83-8.62h1.92l.83,8.62h.03l.79-8.62h1.52l-1.14,11.22h-2.19l-.8-7.56h-.03l-.8,7.56h-2.34l-1.14-11.22Z"/>
        <path class="cls-9" d="M56.59,145.04h4.81v1.6h-3.04v2.96h2.42v1.6h-2.42v3.44h3.04v1.6h-4.81v-11.22Z"/>
        <path class="cls-9" d="M63.05,145.04h4.81v1.6h-3.04v2.96h2.42v1.6h-2.42v3.44h3.04v1.6h-4.81v-11.22Z"/>
        <path class="cls-9" d="M69.5,145.04h2.21l1.71,6.71h.03v-6.71h1.57v11.22h-1.81l-2.12-8.19h-.03v8.19h-1.57v-11.22Z"/>
        <path class="cls-9" d="M80.16,155.04c0-1.6,.45-2.58,1.76-3.96,1.35-1.43,1.73-2.28,1.73-3.32s-.35-1.28-.91-1.28-.91,.3-.91,1.11v1.2h-1.67v-1.09c0-1.79,.9-2.82,2.63-2.82s2.63,1.03,2.63,2.82c0,1.33-.54,2.52-2.18,4.25-1.06,1.12-1.33,1.68-1.33,2.47v.24h3.35v1.6h-5.09v-1.22Z"/>
        <path class="cls-9" d="M87.11,153.6v-5.9c0-1.79,.95-2.82,2.68-2.82s2.68,1.03,2.68,2.82v5.9c0,1.79-.95,2.82-2.68,2.82s-2.68-1.03-2.68-2.82Zm3.59,.11v-6.12c0-.8-.35-1.11-.91-1.11s-.91,.3-.91,1.11v6.12c0,.8,.35,1.11,.91,1.11s.91-.3,.91-1.11Z"/>
        <path class="cls-9" d="M96.75,147.7h-1.84v-1.25c1.49,0,2.02-.32,2.42-1.41h1.19v11.22h-1.76v-8.56Z"/>
        <path class="cls-9" d="M104.78,146.65h-3.56v-1.6h5.29v1.54l-2.76,9.68h-1.79l2.82-9.61Z"/>
        <path class="cls-9" d="M112.06,147.57h1.35l1.03,6.33h-1l-.18-1.26v.02h-1.13l-.18,1.24h-.92l1.03-6.33Zm1.09,4.23l-.44-3.13h-.02l-.43,3.13h.9Z"/>
        <path class="cls-9" d="M115.57,147.57h1.25l.97,3.79h.02v-3.79h.89v6.33h-1.02l-1.2-4.62h-.02v4.62h-.89v-6.33Z"/>
        <path class="cls-9" d="M120.08,147.57h1.52c1,0,1.48,.55,1.48,1.57v3.2c0,1.01-.49,1.57-1.48,1.57h-1.52v-6.33Zm1.5,5.43c.32,0,.51-.16,.51-.62v-3.29c0-.45-.19-.62-.51-.62h-.51v4.52h.51Z"/>
        <path class="cls-9" d="M127.85,155.04c0-1.6,.45-2.58,1.76-3.96,1.35-1.43,1.73-2.28,1.73-3.32s-.35-1.28-.91-1.28-.91,.3-.91,1.11v1.2h-1.67v-1.09c0-1.79,.9-2.82,2.63-2.82s2.63,1.03,2.63,2.82c0,1.33-.54,2.52-2.18,4.25-1.06,1.12-1.33,1.68-1.33,2.47v.24h3.35v1.6h-5.09v-1.22Z"/>
        <path class="cls-9" d="M134.8,153.6v-5.9c0-1.79,.95-2.82,2.68-2.82s2.68,1.03,2.68,2.82v5.9c0,1.79-.95,2.82-2.68,2.82s-2.68-1.03-2.68-2.82Zm3.59,.11v-6.12c0-.8-.35-1.11-.91-1.11s-.91,.3-.91,1.11v6.12c0,.8,.35,1.11,.91,1.11s.91-.3,.91-1.11Z"/>
        <path class="cls-9" d="M141.95,155.04c0-1.6,.45-2.58,1.76-3.96,1.35-1.43,1.73-2.28,1.73-3.32s-.35-1.28-.91-1.28-.91,.3-.91,1.11v1.2h-1.67v-1.09c0-1.79,.9-2.82,2.63-2.82s2.63,1.03,2.63,2.82c0,1.33-.54,2.52-2.18,4.25-1.06,1.12-1.33,1.68-1.33,2.47v.24h3.35v1.6h-5.09v-1.22Z"/>
        <path class="cls-9" d="M148.9,153.6v-5.9c0-1.79,.95-2.82,2.68-2.82s2.68,1.03,2.68,2.82v5.9c0,1.79-.95,2.82-2.68,2.82s-2.68-1.03-2.68-2.82Zm3.59,.11v-6.12c0-.8-.35-1.11-.91-1.11s-.91,.3-.91,1.11v6.12c0,.8,.35,1.11,.91,1.11s.91-.3,.91-1.11Z"/>
      </g>
      <line class="cls-6" x1="123.43" y1="145.43" x2="111.31" y2="145.43"/>
      <line class="cls-6" x1="123.43" y1="155.96" x2="111.31" y2="155.96"/>
    </g>
  </g>
</svg>