<?xml version="1.0" encoding="UTF-8"?>
<svg id="Layer_2" data-name="Layer 2" xmlns="http://www.w3.org/2000/svg" viewBox="0 0 450.31 103.43">
  <defs>
    <style>
      .cls-1 {
        fill: #00558a;
      }

      .cls-2 {
        fill: #fff;
      }

      .cls-3 {
        fill: #939598;
      }

      .cls-4 {
        fill: none;
        stroke: #00558a;
        stroke-miterlimit: 10;
        stroke-width: .89px;
      }

      .cls-5 {
        fill: #50709f;
      }

      .cls-6 {
        fill: #777677;
      }
    </style>
  </defs>
  <g id="Layer_2-2" data-name="Layer 2">
    <g>
      <path class="cls-6" d="M65.62,25.33h1.54v3.99h1.65v-3.99h1.54v9.81h-1.54v-4.41h-1.65v4.41h-1.54v-9.81Z"/>
      <path class="cls-6" d="M71.92,25.33h1.54v9.81h-1.54v-9.81Z"/>
      <path class="cls-6" d="M75.03,25.33h1.93l1.5,5.87h.03v-5.87h1.37v9.81h-1.58l-1.85-7.16h-.03v7.16h-1.37v-9.81Z"/>
      <path class="cls-6" d="M81.42,25.33h2.35c1.54,0,2.3,.85,2.3,2.42v4.96c0,1.57-.76,2.42-2.3,2.42h-2.35v-9.81Zm2.33,8.4c.49,0,.78-.25,.78-.95v-5.1c0-.7-.29-.95-.78-.95h-.78v7h.78Z"/>
      <path class="cls-6" d="M87.53,25.33h4.2v1.4h-2.66v2.59h2.12v1.4h-2.12v3.01h2.66v1.4h-4.2v-9.81Z"/>
      <path class="cls-6" d="M93.03,25.33h2.28c1.6,0,2.28,.74,2.28,2.25v.6c0,1.01-.32,1.65-1.01,1.93v.03c.77,.24,1.02,.97,1.02,2.07v1.72c0,.48,.01,.83,.17,1.19h-1.57c-.08-.25-.14-.41-.14-1.2v-1.79c0-.91-.27-1.2-.97-1.2h-.53v4.2h-1.54v-9.81Zm2.1,4.2c.57,0,.92-.25,.92-1.04v-.76c0-.7-.24-1.01-.78-1.01h-.7v2.8h.56Z"/>
      <path class="cls-6" d="M99.09,25.33h1.54v9.81h-1.54v-9.81Z"/>
      <path class="cls-6" d="M102.2,25.33h1.93l1.5,5.87h.03v-5.87h1.37v9.81h-1.58l-1.85-7.16h-.03v7.16h-1.37v-9.81Z"/>
      <path class="cls-6" d="M108.49,32.81v-5.15c0-1.57,.79-2.47,2.3-2.47s2.3,.9,2.3,2.47v.84h-1.46v-.94c0-.7-.31-.97-.8-.97s-.8,.27-.8,.97v5.36c0,.7,.31,.95,.8,.95s.8-.25,.8-.95v-1.92h-.77v-1.4h2.23v3.21c0,1.57-.78,2.47-2.3,2.47s-2.3-.9-2.3-2.47Z"/>
      <path class="cls-6" d="M118.36,26.73h-1.61v-1.4h4.76v1.4h-1.61v8.4h-1.54v-8.4Z"/>
      <path class="cls-6" d="M122.67,25.33h1.54v3.99h1.65v-3.99h1.54v9.81h-1.54v-4.41h-1.65v4.41h-1.54v-9.81Z"/>
      <path class="cls-6" d="M128.97,25.33h4.2v1.4h-2.66v2.59h2.12v1.4h-2.12v3.01h2.66v1.4h-4.2v-9.81Z"/>
      <path class="cls-6" d="M134.47,25.33h1.54v9.81h-1.54v-9.81Z"/>
      <path class="cls-6" d="M137.58,25.33h2.28c1.6,0,2.28,.74,2.28,2.25v.6c0,1.01-.32,1.65-1.01,1.93v.03c.77,.24,1.02,.97,1.02,2.07v1.72c0,.48,.01,.83,.17,1.19h-1.57c-.08-.25-.14-.41-.14-1.2v-1.79c0-.91-.27-1.2-.97-1.2h-.53v4.2h-1.54v-9.81Zm2.1,4.2c.57,0,.92-.25,.92-1.04v-.76c0-.7-.24-1.01-.78-1.01h-.7v2.8h.56Z"/>
      <path class="cls-6" d="M146.3,25.33h2.27c1.54,0,2.3,.85,2.3,2.42v.97c0,1.57-.76,2.42-2.3,2.42h-.73v3.99h-1.54v-9.81Zm2.27,4.41c.49,0,.76-.22,.76-.92v-1.16c0-.7-.27-.92-.76-.92h-.73v3.01h.73Z"/>
      <path class="cls-6" d="M152.82,25.33h2.09l1.6,9.81h-1.54l-.28-1.95v.03h-1.75l-.28,1.92h-1.43l1.6-9.81Zm1.68,6.56l-.69-4.85h-.03l-.67,4.85h1.39Z"/>
      <path class="cls-6" d="M157.67,25.33h2.28c1.6,0,2.28,.74,2.28,2.25v.6c0,1.01-.32,1.65-1.01,1.93v.03c.77,.24,1.02,.97,1.02,2.07v1.72c0,.48,.01,.83,.17,1.19h-1.57c-.08-.25-.14-.41-.14-1.2v-1.79c0-.91-.27-1.2-.97-1.2h-.53v4.2h-1.54v-9.81Zm2.1,4.2c.57,0,.92-.25,.92-1.04v-.76c0-.7-.24-1.01-.78-1.01h-.7v2.8h.56Z"/>
      <path class="cls-6" d="M164.91,26.73h-1.61v-1.4h4.76v1.4h-1.61v8.4h-1.54v-8.4Z"/>
      <path class="cls-6" d="M169.22,25.33h1.54v9.81h-1.54v-9.81Z"/>
      <path class="cls-6" d="M172.23,32.87v-5.27c0-1.51,.78-2.41,2.27-2.41s2.27,.9,2.27,2.41v1.04h-1.46v-1.13c0-.64-.31-.91-.77-.91s-.77,.27-.77,.91v5.48c0,.64,.31,.9,.77,.9s.77-.25,.77-.9v-1.5h1.46v1.39c0,1.51-.78,2.41-2.27,2.41s-2.27-.9-2.27-2.41Z"/>
      <path class="cls-6" d="M178.11,25.33h1.54v9.81h-1.54v-9.81Z"/>
      <path class="cls-6" d="M181.21,25.33h2.27c1.54,0,2.3,.85,2.3,2.42v.97c0,1.57-.76,2.42-2.3,2.42h-.73v3.99h-1.54v-9.81Zm2.27,4.41c.49,0,.76-.22,.76-.92v-1.16c0-.7-.27-.92-.76-.92h-.73v3.01h.73Z"/>
      <path class="cls-6" d="M187.74,25.33h2.09l1.6,9.81h-1.54l-.28-1.95v.03h-1.75l-.28,1.92h-1.43l1.6-9.81Zm1.68,6.56l-.69-4.85h-.03l-.67,4.85h1.39Z"/>
      <path class="cls-6" d="M193.14,26.73h-1.61v-1.4h4.76v1.4h-1.61v8.4h-1.54v-8.4Z"/>
      <path class="cls-6" d="M197.45,25.33h1.54v9.81h-1.54v-9.81Z"/>
      <path class="cls-6" d="M200.45,32.81v-5.15c0-1.57,.83-2.47,2.34-2.47s2.34,.9,2.34,2.47v5.15c0,1.57-.83,2.47-2.34,2.47s-2.34-.9-2.34-2.47Zm3.14,.1v-5.35c0-.7-.31-.97-.8-.97s-.8,.27-.8,.97v5.35c0,.7,.31,.97,.8,.97s.8-.27,.8-.97Z"/>
      <path class="cls-6" d="M206.58,25.33h1.93l1.5,5.87h.03v-5.87h1.37v9.81h-1.58l-1.85-7.16h-.03v7.16h-1.37v-9.81Z"/>
      <path class="cls-6" d="M215.64,25.33h1.54v9.81h-1.54v-9.81Z"/>
      <path class="cls-6" d="M218.75,25.33h1.93l1.5,5.87h.03v-5.87h1.37v9.81h-1.58l-1.85-7.16h-.03v7.16h-1.37v-9.81Z"/>
      <path class="cls-6" d="M227.81,25.33h2.35c1.54,0,2.3,.85,2.3,2.42v4.96c0,1.57-.76,2.42-2.3,2.42h-2.35v-9.81Zm2.33,8.4c.49,0,.78-.25,.78-.95v-5.1c0-.7-.29-.95-.78-.95h-.78v7h.78Z"/>
      <path class="cls-6" d="M233.91,25.33h4.2v1.4h-2.66v2.59h2.12v1.4h-2.12v3.01h2.66v1.4h-4.2v-9.81Z"/>
      <path class="cls-6" d="M239.31,32.87v-5.27c0-1.51,.78-2.41,2.27-2.41s2.27,.9,2.27,2.41v1.04h-1.46v-1.13c0-.64-.31-.91-.77-.91s-.77,.27-.77,.91v5.48c0,.64,.31,.9,.77,.9s.77-.25,.77-.9v-1.5h1.46v1.39c0,1.51-.78,2.41-2.27,2.41s-2.27-.9-2.27-2.41Z"/>
      <path class="cls-6" d="M245.19,25.33h1.54v9.81h-1.54v-9.81Z"/>
      <path class="cls-6" d="M248.04,32.81v-.56h1.46v.67c0,.7,.31,.95,.8,.95s.8-.25,.8-.98c0-.81-.31-1.33-1.32-2.21-1.29-1.13-1.71-1.93-1.71-3.05,0-1.54,.8-2.44,2.3-2.44s2.24,.9,2.24,2.47v.41h-1.46v-.5c0-.7-.28-.97-.77-.97s-.77,.27-.77,.94c0,.71,.32,1.23,1.33,2.12,1.29,1.13,1.69,1.92,1.69,3.14,0,1.6-.81,2.49-2.33,2.49s-2.27-.9-2.27-2.47Z"/>
      <path class="cls-6" d="M253.93,25.33h1.54v9.81h-1.54v-9.81Z"/>
      <path class="cls-6" d="M256.93,32.81v-5.15c0-1.57,.83-2.47,2.34-2.47s2.34,.9,2.34,2.47v5.15c0,1.57-.83,2.47-2.34,2.47s-2.34-.9-2.34-2.47Zm3.14,.1v-5.35c0-.7-.31-.97-.8-.97s-.8,.27-.8,.97v5.35c0,.7,.31,.97,.8,.97s.8-.27,.8-.97Z"/>
      <path class="cls-6" d="M263.06,25.33h1.93l1.5,5.87h.03v-5.87h1.37v9.81h-1.58l-1.85-7.16h-.03v7.16h-1.37v-9.81Z"/>
      <path class="cls-6" d="M269.23,29.54h3.08v1.4h-3.08v-1.4Z"/>
      <path class="cls-6" d="M273.66,25.33h2.2l.98,7.02h.03l.98-7.02h2.2v9.81h-1.46v-7.42h-.03l-1.12,7.42h-1.29l-1.12-7.42h-.03v7.42h-1.34v-9.81Z"/>
      <path class="cls-6" d="M282.8,25.33h2.09l1.6,9.81h-1.54l-.28-1.95v.03h-1.75l-.28,1.92h-1.43l1.6-9.81Zm1.68,6.56l-.69-4.85h-.03l-.67,4.85h1.39Z"/>
      <path class="cls-6" d="M287.64,25.33h1.54v4.13l1.96-4.13h1.54l-1.83,3.6,1.86,6.21h-1.61l-1.3-4.37-.62,1.25v3.12h-1.54v-9.81Z"/>
      <path class="cls-6" d="M293.86,25.33h1.54v9.81h-1.54v-9.81Z"/>
      <path class="cls-6" d="M296.97,25.33h1.93l1.5,5.87h.03v-5.87h1.37v9.81h-1.58l-1.85-7.16h-.03v7.16h-1.37v-9.81Z"/>
      <path class="cls-6" d="M303.25,32.81v-5.15c0-1.57,.79-2.47,2.3-2.47s2.3,.9,2.3,2.47v.84h-1.46v-.94c0-.7-.31-.97-.8-.97s-.8,.27-.8,.97v5.36c0,.7,.31,.95,.8,.95s.8-.25,.8-.95v-1.92h-.77v-1.4h2.23v3.21c0,1.57-.78,2.47-2.3,2.47s-2.3-.9-2.3-2.47Z"/>
      <path class="cls-6" d="M311.92,25.33h2.27c1.54,0,2.3,.85,2.3,2.42v.97c0,1.57-.76,2.42-2.3,2.42h-.73v3.99h-1.54v-9.81Zm2.27,4.41c.49,0,.76-.22,.76-.92v-1.16c0-.7-.27-.92-.76-.92h-.73v3.01h.73Z"/>
      <path class="cls-6" d="M317.74,25.33h2.28c1.6,0,2.28,.74,2.28,2.25v.6c0,1.01-.32,1.65-1.01,1.93v.03c.77,.24,1.02,.97,1.02,2.07v1.72c0,.48,.01,.83,.17,1.19h-1.57c-.08-.25-.14-.41-.14-1.2v-1.79c0-.91-.27-1.2-.97-1.2h-.53v4.2h-1.54v-9.81Zm2.1,4.2c.57,0,.92-.25,.92-1.04v-.76c0-.7-.24-1.01-.78-1.01h-.7v2.8h.56Z"/>
      <path class="cls-6" d="M323.69,32.81v-5.15c0-1.57,.83-2.47,2.34-2.47s2.34,.9,2.34,2.47v5.15c0,1.57-.83,2.47-2.34,2.47s-2.34-.9-2.34-2.47Zm3.14,.1v-5.35c0-.7-.31-.97-.8-.97s-.8,.27-.8,.97v5.35c0,.7,.31,.97,.8,.97s.8-.27,.8-.97Z"/>
      <path class="cls-6" d="M329.73,32.87v-5.27c0-1.51,.78-2.41,2.27-2.41s2.27,.9,2.27,2.41v1.04h-1.46v-1.13c0-.64-.31-.91-.77-.91s-.77,.27-.77,.91v5.48c0,.64,.31,.9,.77,.9s.77-.25,.77-.9v-1.5h1.46v1.39c0,1.51-.78,2.41-2.27,2.41s-2.27-.9-2.27-2.41Z"/>
      <path class="cls-6" d="M335.61,25.33h4.2v1.4h-2.66v2.59h2.12v1.4h-2.12v3.01h2.66v1.4h-4.2v-9.81Z"/>
      <path class="cls-6" d="M340.87,32.81v-.56h1.46v.67c0,.7,.31,.95,.8,.95s.8-.25,.8-.98c0-.81-.31-1.33-1.32-2.21-1.29-1.13-1.71-1.93-1.71-3.05,0-1.54,.8-2.44,2.3-2.44s2.24,.9,2.24,2.47v.41h-1.46v-.5c0-.7-.28-.97-.77-.97s-.77,.27-.77,.94c0,.71,.32,1.23,1.33,2.12,1.29,1.13,1.69,1.92,1.69,3.14,0,1.6-.81,2.49-2.33,2.49s-2.27-.9-2.27-2.47Z"/>
      <path class="cls-6" d="M346.5,32.81v-.56h1.46v.67c0,.7,.31,.95,.8,.95s.8-.25,.8-.98c0-.81-.31-1.33-1.32-2.21-1.29-1.13-1.71-1.93-1.71-3.05,0-1.54,.8-2.44,2.3-2.44s2.24,.9,2.24,2.47v.41h-1.46v-.5c0-.7-.28-.97-.77-.97s-.77,.27-.77,.94c0,.71,.32,1.23,1.33,2.12,1.29,1.13,1.69,1.92,1.69,3.14,0,1.6-.81,2.49-2.33,2.49s-2.27-.9-2.27-2.47Z"/>
      <path class="cls-6" d="M352.39,25.33h4.2v1.4h-2.66v2.59h2.12v1.4h-2.12v3.01h2.66v1.4h-4.2v-9.81Z"/>
      <path class="cls-6" d="M357.66,32.81v-.56h1.46v.67c0,.7,.31,.95,.8,.95s.8-.25,.8-.98c0-.81-.31-1.33-1.32-2.21-1.29-1.13-1.71-1.93-1.71-3.05,0-1.54,.8-2.44,2.3-2.44s2.24,.9,2.24,2.47v.41h-1.46v-.5c0-.7-.28-.97-.77-.97s-.77,.27-.77,.94c0,.71,.32,1.23,1.33,2.12,1.29,1.13,1.69,1.92,1.69,3.14,0,1.6-.81,2.49-2.33,2.49s-2.27-.9-2.27-2.47Z"/>
    </g>
    <g>
      <path class="cls-1" d="M59.37,9.25L56.38,.22h2.63l1.68,5.77h.04L62.42,.22h2.4l-2.99,9.03v6.69h-2.47v-6.69Z"/>
      <path class="cls-1" d="M65.63,12.22V3.95c0-2.52,1.33-3.95,3.75-3.95s3.75,1.44,3.75,3.95V12.22c0,2.52-1.33,3.95-3.75,3.95s-3.75-1.44-3.75-3.95Zm5.03,.16V3.8c0-1.12-.49-1.55-1.28-1.55s-1.28,.43-1.28,1.55V12.38c0,1.12,.49,1.55,1.28,1.55s1.28-.43,1.28-1.55Z"/>
      <path class="cls-1" d="M74.98,12.22V.22h2.47V12.4c0,1.12,.47,1.53,1.26,1.53s1.26-.4,1.26-1.53V.22h2.38V12.22c0,2.52-1.26,3.95-3.68,3.95s-3.68-1.44-3.68-3.95Z"/>
      <path class="cls-1" d="M86.3,2.47h-2.58V.22h7.64V2.47h-2.58V15.95h-2.47V2.47Z"/>
      <path class="cls-1" d="M92.81,.22h2.47V6.63h2.65V.22h2.47V15.95h-2.47v-7.08h-2.65v7.08h-2.47V.22Z"/>
      <path class="cls-1" d="M105.44,3.48h5.18v1.78h-3.22v3.47h2.53v1.78h-2.53v5.43h-1.96V3.48Z"/>
      <path class="cls-1" d="M112.78,3.48h2.65l2.03,12.46h-1.96l-.36-2.48v.04h-2.23l-.36,2.44h-1.82l2.03-12.46Zm2.14,8.33l-.87-6.16h-.04l-.86,6.16h1.76Z"/>
      <path class="cls-1" d="M118.51,13.06V6.37c0-1.92,1-3.06,2.88-3.06s2.88,1.14,2.88,3.06v1.32h-1.85v-1.44c0-.82-.39-1.16-.98-1.16s-.98,.34-.98,1.16v6.96c0,.82,.39,1.14,.98,1.14s.98-.32,.98-1.14v-1.91h1.85v1.76c0,1.92-1,3.06-2.88,3.06s-2.88-1.14-2.88-3.06Z"/>
      <path class="cls-1" d="M125.73,3.48h5.34v1.78h-3.38v3.29h2.69v1.78h-2.69v3.83h3.38v1.78h-5.34V3.48Z"/>
      <path class="cls-1" d="M135.68,12.22V.22h2.47V12.4c0,1.12,.47,1.53,1.26,1.53s1.26-.4,1.26-1.53V.22h2.38V12.22c0,2.52-1.26,3.95-3.68,3.95s-3.68-1.44-3.68-3.95Z"/>
      <path class="cls-1" d="M145.07,.22h3.1l2.4,9.41h.04V.22h2.2V15.95h-2.54l-2.96-11.48h-.04V15.95h-2.2V.22Z"/>
      <path class="cls-1" d="M154.93,.22h3.77c2.47,0,3.68,1.37,3.68,3.89v7.95c0,2.52-1.21,3.89-3.68,3.89h-3.77V.22Zm3.73,13.48c.79,0,1.26-.4,1.26-1.53V4c0-1.12-.47-1.53-1.26-1.53h-1.26V13.7h1.26Z"/>
      <path class="cls-1" d="M164.31,.22h6.74V2.47h-4.27V6.63h3.39v2.25h-3.39v4.83h4.27v2.25h-6.74V.22Z"/>
      <path class="cls-1" d="M172.74,.22h3.66c2.56,0,3.66,1.19,3.66,3.62v.97c0,1.62-.52,2.65-1.62,3.1v.04c1.24,.38,1.64,1.55,1.64,3.32v2.76c0,.76,.02,1.33,.27,1.91h-2.52c-.13-.4-.22-.65-.22-1.93v-2.88c0-1.46-.43-1.93-1.55-1.93h-.85v6.74h-2.47V.22Zm3.37,6.74c.92,0,1.48-.4,1.48-1.66v-1.21c0-1.12-.38-1.62-1.26-1.62h-1.12V6.96h.9Z"/>
      <path class="cls-1" d="M182.06,.22h3.66c2.56,0,3.66,1.19,3.66,3.62v.97c0,1.62-.52,2.65-1.62,3.1v.04c1.24,.38,1.64,1.55,1.64,3.32v2.76c0,.76,.02,1.33,.27,1.91h-2.52c-.13-.4-.22-.65-.22-1.93v-2.88c0-1.46-.43-1.93-1.55-1.93h-.85v6.74h-2.47V.22Zm3.37,6.74c.92,0,1.48-.4,1.48-1.66v-1.21c0-1.12-.38-1.62-1.26-1.62h-1.12V6.96h.9Z"/>
      <path class="cls-1" d="M191.38,.22h6.74V2.47h-4.27V6.63h3.39v2.25h-3.39v4.83h4.27v2.25h-6.74V.22Z"/>
      <path class="cls-1" d="M199.8,.22h3.64c2.47,0,3.68,1.37,3.68,3.89v1.55c0,2.52-1.21,3.89-3.68,3.89h-1.17v6.4h-2.47V.22Zm3.64,7.08c.79,0,1.21-.36,1.21-1.48v-1.86c0-1.12-.43-1.48-1.21-1.48h-1.17V7.3h1.17Z"/>
      <path class="cls-1" d="M208.74,.22h3.66c2.56,0,3.66,1.19,3.66,3.62v.97c0,1.62-.52,2.65-1.62,3.1v.04c1.24,.38,1.64,1.55,1.64,3.32v2.76c0,.76,.02,1.33,.27,1.91h-2.52c-.13-.4-.22-.65-.22-1.93v-2.88c0-1.46-.43-1.93-1.55-1.93h-.85v6.74h-2.47V.22Zm3.37,6.74c.92,0,1.48-.4,1.48-1.66v-1.21c0-1.12-.38-1.62-1.26-1.62h-1.12V6.96h.9Z"/>
      <path class="cls-1" d="M218.06,.22h6.74V2.47h-4.27V6.63h3.39v2.25h-3.39v4.83h4.27v2.25h-6.74V.22Z"/>
      <path class="cls-1" d="M226.11,12.22v-.9h2.34v1.08c0,1.12,.49,1.53,1.28,1.53s1.28-.4,1.28-1.57c0-1.3-.49-2.13-2.11-3.55-2.07-1.82-2.74-3.1-2.74-4.9,0-2.47,1.28-3.91,3.68-3.91s3.59,1.44,3.59,3.95v.65h-2.34v-.81c0-1.12-.45-1.55-1.24-1.55s-1.24,.43-1.24,1.5c0,1.15,.52,1.98,2.13,3.39,2.07,1.82,2.72,3.08,2.72,5.03,0,2.56-1.3,4-3.73,4s-3.64-1.44-3.64-3.95Z"/>
      <path class="cls-1" d="M235.16,.22h6.74V2.47h-4.27V6.63h3.39v2.25h-3.39v4.83h4.27v2.25h-6.74V.22Z"/>
      <path class="cls-1" d="M243.58,.22h3.1l2.4,9.41h.04V.22h2.2V15.95h-2.54l-2.96-11.48h-.04V15.95h-2.2V.22Z"/>
      <path class="cls-1" d="M255.37,2.47h-2.58V.22h7.64V2.47h-2.58V15.95h-2.47V2.47Z"/>
      <path class="cls-1" d="M262.76,.22h3.35l2.56,15.72h-2.47l-.45-3.12v.04h-2.81l-.45,3.08h-2.29l2.56-15.72Zm2.7,10.51l-1.1-7.77h-.04l-1.08,7.77h2.22Z"/>
      <path class="cls-1" d="M271.03,2.47h-2.58V.22h7.64V2.47h-2.58V15.95h-2.47V2.47Z"/>
      <path class="cls-1" d="M277.54,.22h2.47V15.95h-2.47V.22Z"/>
      <path class="cls-1" d="M281.94,12.22V3.95c0-2.52,1.33-3.95,3.75-3.95s3.75,1.44,3.75,3.95V12.22c0,2.52-1.33,3.95-3.75,3.95s-3.75-1.44-3.75-3.95Zm5.03,.16V3.8c0-1.12-.49-1.55-1.28-1.55s-1.28,.43-1.28,1.55V12.38c0,1.12,.49,1.55,1.28,1.55s1.28-.43,1.28-1.55Z"/>
      <path class="cls-1" d="M291.38,.22h3.1l2.4,9.41h.04V.22h2.2V15.95h-2.54l-2.96-11.48h-.04V15.95h-2.2V.22Z"/>
      <path class="cls-1" d="M305.21,3.48h1.96V15.95h-1.96V3.48Z"/>
      <path class="cls-1" d="M308.9,3.48h2.46l1.91,7.46h.04V3.48h1.75V15.95h-2.01l-2.35-9.1h-.04V15.95h-1.75V3.48Z"/>
      <path class="cls-1" d="M319.89,3.48h2.88c1.96,0,2.92,1.09,2.92,3.08v1.23c0,1.99-.96,3.08-2.92,3.08h-.93v5.08h-1.96V3.48Zm2.88,5.61c.62,0,.96-.29,.96-1.18v-1.48c0-.89-.34-1.18-.96-1.18h-.93v3.83h.93Z"/>
      <path class="cls-1" d="M326.89,12.99V6.44c0-1.99,1.05-3.13,2.97-3.13s2.97,1.14,2.97,3.13v6.55c0,1.99-1.05,3.13-2.97,3.13s-2.97-1.14-2.97-3.13Zm3.99,.12V6.31c0-.89-.39-1.23-1.01-1.23s-1.01,.34-1.01,1.23v6.8c0,.89,.39,1.23,1.01,1.23s1.01-.34,1.01-1.23Z"/>
      <path class="cls-1" d="M334.42,3.48h1.96V14.17h3.22v1.78h-5.18V3.48Z"/>
      <path class="cls-1" d="M340.82,3.48h1.96V15.95h-1.96V3.48Z"/>
      <path class="cls-1" d="M346.03,5.26h-2.05v-1.78h6.05v1.78h-2.05V15.95h-1.96V5.26Z"/>
      <path class="cls-1" d="M351.25,3.48h1.96V15.95h-1.96V3.48Z"/>
      <path class="cls-1" d="M354.82,13.06V6.37c0-1.92,1-3.06,2.88-3.06s2.88,1.14,2.88,3.06v1.32h-1.85v-1.44c0-.82-.39-1.16-.98-1.16s-.98,.34-.98,1.16v6.96c0,.82,.39,1.14,.98,1.14s.98-.32,.98-1.14v-1.91h1.85v1.76c0,1.92-1,3.06-2.88,3.06s-2.88-1.14-2.88-3.06Z"/>
      <path class="cls-1" d="M361.73,12.99v-.71h1.85v.85c0,.89,.39,1.21,1.01,1.21s1.01-.32,1.01-1.25c0-1.03-.39-1.69-1.67-2.81-1.64-1.44-2.17-2.46-2.17-3.88,0-1.96,1.01-3.1,2.92-3.1s2.85,1.14,2.85,3.13v.52h-1.85v-.64c0-.89-.36-1.23-.98-1.23s-.98,.34-.98,1.19c0,.91,.41,1.57,1.69,2.69,1.64,1.44,2.15,2.44,2.15,3.99,0,2.03-1.03,3.17-2.96,3.17s-2.88-1.14-2.88-3.13Z"/>
      <path class="cls-1" d="M369.6,15.95h-.64v-1.89h1.89v1.69l-.98,2.33h-.91l.64-2.14Z"/>
    </g>
    <g>
      <g>
        <g>
          <path class="cls-1" d="M270.54,87v-.99h1.88v1.14c0,.9,.4,1.23,1.03,1.23s1.03-.33,1.03-1.23v-2.83c0-.9-.4-1.25-1.03-1.25s-1.03,.34-1.03,1.25v.11h-1.88l.36-7.06h5.24v1.81h-3.47l-.16,3.01h.04c.36-.6,.92-.92,1.71-.92,1.46,0,2.2,1.03,2.2,2.89v2.85c0,2.02-1.01,3.18-2.96,3.18s-2.96-1.16-2.96-3.18Z"/>
          <path class="cls-1" d="M280.59,80.36h-2.08v-1.41c1.68,0,2.27-.36,2.73-1.59h1.34v12.64h-1.99v-9.64Z"/>
          <path class="cls-5" d="M271.53,93.98h1.98l1.52,9.31h-1.46l-.27-1.85v.03h-1.66l-.27,1.82h-1.36l1.52-9.31Zm1.6,6.23l-.65-4.6h-.03l-.64,4.6h1.32Z"/>
          <path class="cls-5" d="M275.24,93.98h1.48l.96,7.23h.03l.96-7.23h1.34l-1.41,9.31h-1.94l-1.41-9.31Z"/>
          <path class="cls-5" d="M280.97,93.98h3.99v1.33h-2.53v2.46h2.01v1.33h-2.01v2.86h2.53v1.33h-3.99v-9.31Z"/>
          <path class="cls-5" d="M286.06,93.98h2.17c1.52,0,2.17,.71,2.17,2.14v.57c0,.96-.31,1.57-.96,1.84v.03c.73,.23,.97,.92,.97,1.97v1.64c0,.45,.01,.79,.16,1.13h-1.49c-.08-.24-.13-.39-.13-1.14v-1.7c0-.86-.25-1.14-.92-1.14h-.51v3.99h-1.46v-9.31Zm2,3.99c.55,0,.88-.24,.88-.98v-.72c0-.67-.23-.96-.75-.96h-.67v2.66h.53Z"/>
          <path class="cls-5" d="M292.82,93.98h1.98l1.52,9.31h-1.46l-.27-1.85v.03h-1.66l-.27,1.82h-1.36l1.52-9.31Zm1.6,6.23l-.65-4.6h-.03l-.64,4.6h1.32Z"/>
          <path class="cls-5" d="M297.16,101.09v-4.9c0-1.49,.75-2.34,2.18-2.34s2.18,.85,2.18,2.34v.8h-1.38v-.89c0-.67-.29-.92-.76-.92s-.76,.25-.76,.92v5.1c0,.67,.29,.91,.76,.91s.76-.24,.76-.91v-1.82h-.73v-1.33h2.12v3.05c0,1.49-.75,2.34-2.18,2.34s-2.18-.85-2.18-2.34Z"/>
          <path class="cls-5" d="M302.73,93.98h3.99v1.33h-2.53v2.46h2.01v1.33h-2.01v2.86h2.53v1.33h-3.99v-9.31Z"/>
          <path class="cls-5" d="M311.35,93.98h1.98l1.52,9.31h-1.46l-.27-1.85v.03h-1.66l-.27,1.82h-1.36l1.52-9.31Zm1.6,6.23l-.65-4.6h-.03l-.64,4.6h1.32Z"/>
          <path class="cls-5" d="M315.68,101.09v-4.9c0-1.49,.75-2.34,2.18-2.34s2.18,.85,2.18,2.34v.8h-1.38v-.89c0-.67-.29-.92-.76-.92s-.76,.25-.76,.92v5.1c0,.67,.29,.91,.76,.91s.76-.24,.76-.91v-1.82h-.73v-1.33h2.12v3.05c0,1.49-.75,2.34-2.18,2.34s-2.18-.85-2.18-2.34Z"/>
          <path class="cls-5" d="M321.26,93.98h3.99v1.33h-2.53v2.46h2.01v1.33h-2.01v2.86h2.53v1.33h-3.99v-9.31Z"/>
          <path class="cls-5" d="M328.64,101.09v-4.9c0-1.49,.79-2.34,2.22-2.34s2.22,.85,2.22,2.34v4.9c0,1.49-.79,2.34-2.22,2.34s-2.22-.85-2.22-2.34Zm2.98,.09v-5.08c0-.67-.29-.92-.76-.92s-.76,.25-.76,.92v5.08c0,.67,.29,.92,.76,.92s.76-.25,.76-.92Z"/>
          <path class="cls-5" d="M334.33,93.98h3.87v1.33h-2.41v2.59h1.89v1.33h-1.89v4.06h-1.46v-9.31Z"/>
          <path class="cls-5" d="M341.57,93.98h2.09l.93,6.67h.03l.93-6.67h2.09v9.31h-1.38v-7.05h-.03l-1.06,7.05h-1.22l-1.06-7.05h-.03v7.05h-1.28v-9.31Z"/>
          <path class="cls-5" d="M348.99,93.98h3.99v1.33h-2.53v2.46h2.01v1.33h-2.01v2.86h2.53v1.33h-3.99v-9.31Z"/>
          <path class="cls-5" d="M354.08,93.98h2.09l.93,6.67h.03l.93-6.67h2.09v9.31h-1.38v-7.05h-.03l-1.06,7.05h-1.22l-1.06-7.05h-.03v7.05h-1.28v-9.31Z"/>
          <path class="cls-5" d="M361.5,93.98h2.21c1.52,0,2.17,.71,2.17,2.14v.37c0,.96-.29,1.56-.94,1.82v.03c.79,.27,1.09,.96,1.09,1.94v.8c0,1.44-.76,2.21-2.22,2.21h-2.3v-9.31Zm2.04,3.79c.55,0,.88-.24,.88-.98v-.52c0-.67-.23-.96-.74-.96h-.71v2.46h.57Zm.27,4.19c.49,0,.76-.23,.76-.92v-.81c0-.86-.28-1.13-.94-1.13h-.65v2.86h.84Z"/>
          <path class="cls-5" d="M367.14,93.98h3.99v1.33h-2.53v2.46h2.01v1.33h-2.01v2.86h2.53v1.33h-3.99v-9.31Z"/>
          <path class="cls-5" d="M372.24,93.98h2.17c1.52,0,2.17,.71,2.17,2.14v.57c0,.96-.31,1.57-.96,1.84v.03c.73,.23,.97,.92,.97,1.97v1.64c0,.45,.01,.79,.16,1.13h-1.49c-.08-.24-.13-.39-.13-1.14v-1.7c0-.86-.25-1.14-.92-1.14h-.51v3.99h-1.46v-9.31Zm2,3.99c.55,0,.88-.24,.88-.98v-.72c0-.67-.23-.96-.75-.96h-.67v2.66h.53Z"/>
          <path class="cls-5" d="M377.61,101.09v-.53h1.38v.64c0,.67,.29,.91,.76,.91s.76-.24,.76-.93c0-.77-.29-1.26-1.25-2.1-1.22-1.08-1.62-1.84-1.62-2.9,0-1.46,.76-2.32,2.18-2.32s2.13,.85,2.13,2.34v.39h-1.38v-.48c0-.67-.27-.92-.73-.92s-.73,.25-.73,.89c0,.68,.31,1.17,1.26,2.01,1.22,1.08,1.61,1.82,1.61,2.98,0,1.52-.77,2.37-2.21,2.37s-2.16-.85-2.16-2.34Z"/>
          <path class="cls-5" d="M385.36,101.09v-4.9c0-1.49,.79-2.34,2.22-2.34s2.22,.85,2.22,2.34v4.9c0,1.49-.79,2.34-2.22,2.34s-2.22-.85-2.22-2.34Zm2.98,.09v-5.08c0-.67-.29-.92-.76-.92s-.76,.25-.76,.92v5.08c0,.67,.29,.92,.76,.92s.76-.25,.76-.92Z"/>
          <path class="cls-5" d="M391.05,93.98h3.87v1.33h-2.41v2.59h1.89v1.33h-1.89v4.06h-1.46v-9.31Z"/>
          <path class="cls-5" d="M398.29,93.98h2.16c1.46,0,2.18,.81,2.18,2.3v.92c0,1.49-.72,2.3-2.18,2.3h-.69v3.79h-1.46v-9.31Zm2.16,4.19c.47,0,.72-.21,.72-.88v-1.1c0-.67-.25-.88-.72-.88h-.69v2.86h.69Z"/>
          <path class="cls-5" d="M404.35,93.98h1.98l1.52,9.31h-1.46l-.27-1.85v.03h-1.66l-.27,1.82h-1.36l1.52-9.31Zm1.6,6.23l-.65-4.6h-.03l-.64,4.6h1.32Z"/>
          <path class="cls-5" d="M408.82,93.98h2.17c1.52,0,2.17,.71,2.17,2.14v.57c0,.96-.31,1.57-.96,1.84v.03c.73,.23,.97,.92,.97,1.97v1.64c0,.45,.01,.79,.16,1.13h-1.49c-.08-.24-.13-.39-.13-1.14v-1.7c0-.86-.25-1.14-.92-1.14h-.51v3.99h-1.46v-9.31Zm2,3.99c.55,0,.88-.24,.88-.98v-.72c0-.67-.23-.96-.75-.96h-.67v2.66h.53Z"/>
          <path class="cls-5" d="M414.45,93.98h1.46v7.98h2.41v1.33h-3.87v-9.31Z"/>
          <path class="cls-5" d="M419.29,93.98h1.46v9.31h-1.46v-9.31Z"/>
          <path class="cls-5" d="M423.24,93.98h1.98l1.52,9.31h-1.46l-.27-1.85v.03h-1.66l-.27,1.82h-1.36l1.52-9.31Zm1.6,6.23l-.65-4.6h-.03l-.64,4.6h1.32Z"/>
          <path class="cls-5" d="M427.71,93.98h2.09l.93,6.67h.03l.93-6.67h2.09v9.31h-1.38v-7.05h-.03l-1.06,7.05h-1.22l-1.06-7.05h-.03v7.05h-1.28v-9.31Z"/>
          <path class="cls-5" d="M435.13,93.98h3.99v1.33h-2.53v2.46h2.01v1.33h-2.01v2.86h2.53v1.33h-3.99v-9.31Z"/>
          <path class="cls-5" d="M440.22,93.98h1.84l1.42,5.58h.03v-5.58h1.3v9.31h-1.5l-1.76-6.8h-.03v6.8h-1.3v-9.31Z"/>
          <path class="cls-5" d="M447.31,95.31h-1.53v-1.33h4.52v1.33h-1.53v7.98h-1.46v-7.98Z"/>
        </g>
        <line class="cls-4" x1="287.5" y1="84.35" x2="449.77" y2="84.35"/>
      </g>
      <g>
        <g>
          <g>
            <path class="cls-3" d="M257.06,69.73c0,7.76-6.2,13.41-13.96,13.41s-14.71-4.47-14.15-15.08c.41-7.75,6.67-14.52,14.43-14.52s13.68,8.44,13.68,16.2Z"/>
            <path class="cls-1" d="M260.23,103.34c.2-3.97-2.92-13.59-4.9-14.8-5.26-3.21-18.8-2.88-24.03,.37-2.36,1.46-4.35,10.05-4.75,14.43h33.68Z"/>
            <path class="cls-1" d="M253,103.34c2.54-3.65,1.09-15.43,1.09-15.43-5.34-2.49-16.37-2.12-21.79,.43,0,0-1.6,9.35,1.62,15h19.08Z"/>
            <path class="cls-2" d="M244.78,79.2l-3.23,.05c-1.17,.02-2.1,.82-2.08,1.8l.45,5.16-2.38,.6c.94,.49,4.32,2.68,5.79,2.66,1.47-.02,5.18-2.25,6.11-2.77l-2.72-.67,.2-5.09c-.02-.97-.97-1.75-2.14-1.73Z"/>
            <path class="cls-2" d="M253.9,71.28c0,8.09-4.76,14.65-10.62,14.65s-10.62-6.56-10.62-14.65,4.76-14.65,10.62-14.65,10.62,6.56,10.62,14.65Z"/>
            <path class="cls-3" d="M247.57,57.07s.37,13.41-14.34,14.52c-2.51-5.49-1.89-8.58-.19-10.61,7.63-9.12,14.52-3.91,14.52-3.91Z"/>
            <path class="cls-3" d="M244.59,62.47s8.57,5.31,7.82,11.26c0,0,4.65-5.31,2.05-10.52-2.61-5.21-8.75-7.82-8.75-7.82l-1.12,7.08Z"/>
          </g>
          <g>
            <path class="cls-3" d="M221.34,72.26c.07-.11,.14-.23,.22-.34,.33-.5,.8-.73,1.27-.77,.08-.68,.13-1.38,.13-2.09,0-8.2-5.76-14.84-12.87-14.84s-12.86,6.65-12.86,14.84c0,1.21,.13,2.39,.36,3.51,.46-.07,.94,.06,1.28,.47-.03-.41-.04-.83-.04-1.25,0-8.2,5.04-14.84,11.26-14.84s11.26,6.64,11.26,14.84c0,.15,0,.3-.01,.46Z"/>
            <path class="cls-1" d="M230.04,103.34c0-4.14-5.06-13.89-7.01-15.09-5.27-3.25-20.51-3.39-25.75-.09-2.36,1.48-6.61,10.73-7.1,15.19h39.87Z"/>
            <path class="cls-2" d="M211.62,78.88l-3.27,.05c-1.18,.02-2.12,.92-2.11,2l.07,4.52,.07,4.01c.95,.55,2.3,.88,3.79,.86,1.49-.02,2.82-.4,3.76-.98l-.07-4.01-.07-4.52c-.02-1.09-.99-1.95-2.17-1.93Z"/>
            <g>
              <path class="cls-2" d="M200.89,70.58c0,1.37,.98,3.68-.38,3.81-2.66,.25-4.06-2.5-4.06-3.87s1.11-2.47,2.47-2.47,1.97,1.17,1.97,2.54Z"/>
              <path class="cls-2" d="M219.29,70.58c0,1.37-.98,3.68,.38,3.81,2.66,.25,4.06-2.5,4.06-3.87s-1.11-2.47-2.47-2.47-1.97,1.17-1.97,2.54Z"/>
            </g>
            <path class="cls-2" d="M221.66,70.86c0,8.2-5.18,14.84-11.57,14.84s-11.57-6.64-11.57-14.84,5.18-14.84,11.57-14.84,11.57,6.64,11.57,14.84Z"/>
            <path class="cls-3" d="M210.09,58.84c5.89,0,10.75,5.65,11.48,12.95,.06-.62,.1-1.25,.1-1.89,0-8.2-5.18-14.84-11.57-14.84s-11.57,6.64-11.57,14.84c0,.64,.03,1.27,.09,1.89,.72-7.31,5.58-12.95,11.48-12.95Z"/>
            <path class="cls-3" d="M210.09,83.24c-6.07,0-11.04-5.99-11.53-13.61-.03,.4-.04,.81-.04,1.23,0,8.2,5.18,14.84,11.57,14.84s11.57-6.64,11.57-14.84c0-.41-.02-.82-.04-1.23-.49,7.62-5.46,13.61-11.53,13.61Z"/>
            <polygon class="cls-2" points="212.05 103.34 214.44 89.63 205.76 89.63 208.17 103.34 212.05 103.34"/>
            <polygon class="cls-1" points="211.83 103.34 211.33 91.45 208.87 91.45 208.32 103.34 211.83 103.34"/>
            <g>
              <polygon class="cls-1" points="200.15 94.03 206.6 103.34 208.62 103.34 205.62 85.46 201.91 86.49 199.65 92.27 203.17 93.28 200.15 94.03"/>
              <polygon class="cls-1" points="213.58 103.34 220.02 94.03 217.01 93.28 220.53 92.27 218.26 86.49 214.56 85.46 211.56 103.34 213.58 103.34"/>
            </g>
            <polygon class="cls-1" points="210.1 93.76 207.17 90.82 210.1 88.06 213.03 90.82 210.1 93.76"/>
            <polygon class="cls-2" points="205.89 84.98 204.63 85.86 206.64 91.89 210.1 88.06 205.89 84.98"/>
            <polygon class="cls-2" points="214.25 84.98 215.51 85.86 213.5 91.89 210.04 88.06 214.25 84.98"/>
            <path class="cls-3" d="M216.38,82.49c.13-.09,.27-.17,.4-.25,0-.06,0-.11,0-.17,0-3.52-3-6.37-6.7-6.37s-6.7,2.85-6.7,6.37c0,.11,0,.22,.01,.33,.02,.03,.03,.06,.05,.09,.05,.11,.1,.21,.16,.32,.27,.16,.54,.31,.82,.44,.07-3.45,2.57-6.22,5.65-6.22s5.43,2.61,5.64,5.91c.21-.15,.43-.29,.65-.43Z"/>
            <path class="cls-3" d="M211.17,83.39c0,.6-.49,1.08-1.09,1.08h0c-.6,0-1.08-.49-1.08-1.08v-2.08c0-.6,.49-1.09,1.08-1.09h0c.6,0,1.09,.49,1.09,1.09v2.08Z"/>
            <path class="cls-3" d="M221.94,69c0-.19,.01-.38,0-.57,0-.12-.05-.17-.08-.28-.04-.16,0-.31-.02-.48-.02-.2-.1-.35-.1-.56,0-.2-.05-.38-.09-.57-.12-.5-.26-.99-.4-1.48-.14-.48-.46-.89-.66-1.34-.79-1.78-1.23-3.18-3.15-3.98-1.48-.62-3.09-.78-4.65-1.04-.62-.1-1.89-.31-2.7,.02-.81-.33-2.08-.13-2.7-.02-1.57,.26-3.18,.42-4.65,1.04-1.92,.81-2.36,2.2-3.15,3.98-.2,.45-.53,.86-.66,1.34-.14,.49-.28,.98-.4,1.48-.04,.19-.1,.37-.09,.57,0,.21-.07,.36-.1,.56-.02,.16,.02,.32-.02,.48-.03,.11-.07,.16-.08,.28-.01,.19,0,.38,0,.57s-.03,.38,0,.56c.03,.24,.1,.42,.1,.66,0,.22,0,.44,0,.66,0,.22,.07,.36,.1,.57,.02,.1-.01,.18,.02,.28,.03,.11,.07,.16,.08,.28,0,.09-.02,.19,0,.28,.02,.1,.09,.18,.1,.28,.08,.48,.01,1.13,.43,1.38-.19-.11,.36-2.29,.52-2.56,.51-.89,1.47-1.44,1.87-2.39,.45-1.1,.08-2.35,.37-3.49,.54-2.09,2.36-3.74,4.39-4.35,.58-.17,7.2-.17,7.78,0,2.03,.61,3.85,2.26,4.39,4.35,.29,1.13-.08,2.39,.37,3.49,.39,.96,1.36,1.51,1.87,2.39,.15,.27,.71,2.45,.52,2.56,.41-.24,.35-.9,.43-1.38,.02-.11,.09-.18,.1-.28,.02-.09-.01-.19,0-.28,0-.12,.05-.17,.08-.28,.03-.1,0-.18,.02-.28,.03-.21,.1-.34,.1-.57,0-.22,0-.44,0-.66,0-.24,.07-.43,.1-.66,.02-.18,0-.38,0-.56Z"/>
          </g>
        </g>
        <g>
          <path class="cls-6" d="M245.4,70.6c0,.49-.51,.88-1.15,.88h-2.74c-.64,0-1.15-.4-1.15-.88h0c0-.49,.52-.88,1.15-.88h2.74c.64,0,1.15,.4,1.15,.88h0Z"/>
          <g>
            <g>
              <path class="cls-2" d="M252.43,70.78c0,3.01-1.86,4.5-4.15,4.5s-4.15-1.49-4.15-4.5,1.86-2.92,4.15-2.92,4.15-.09,4.15,2.92Z"/>
              <path class="cls-6" d="M248.28,67.61c-2.45,0-4.43-.09-4.43,3.12s1.98,4.8,4.43,4.8,4.43-1.59,4.43-4.8-1.98-3.12-4.43-3.12Zm0,7.12c-1.95,0-3.53-1.27-3.53-3.83s1.58-2.48,3.53-2.48,3.53-.07,3.53,2.48-1.58,3.83-3.53,3.83Z"/>
            </g>
            <g>
              <path class="cls-2" d="M241.73,70.78c0,3.01-1.86,4.5-4.15,4.5s-4.15-1.49-4.15-4.5,1.86-2.92,4.15-2.92,4.15-.09,4.15,2.92Z"/>
              <path class="cls-6" d="M237.58,67.61c-2.45,0-4.43-.09-4.43,3.12s1.99,4.8,4.43,4.8,4.43-1.59,4.43-4.8-1.98-3.12-4.43-3.12Zm0,7.12c-1.95,0-3.53-1.27-3.53-3.83s1.58-2.48,3.53-2.48,3.53-.07,3.53,2.48-1.58,3.83-3.53,3.83Z"/>
            </g>
          </g>
        </g>
      </g>
    </g>
    <g>
      <g>
        <g>
          <path class="cls-1" d="M80.32,86.82v-1.03h1.88v1.12c0,.9,.4,1.25,1.03,1.25s1.03-.31,1.03-1.43v-1.03c0-1.17-.4-1.61-1.3-1.61h-.67v-1.81h.72c.74,0,1.19-.32,1.19-1.34v-.92c0-.9-.42-1.26-.99-1.26s-.96,.34-.96,1.17v.83h-1.88v-.67c0-2.02,1.01-3.14,2.91-3.14s2.91,1.1,2.91,3.12v.45c0,1.35-.43,2.18-1.41,2.55v.04c1.06,.4,1.46,1.32,1.46,2.6v1.12c0,2.02-1.01,3.12-2.96,3.12s-2.96-1.12-2.96-3.14Z"/>
          <path class="cls-1" d="M87.54,86.78v-6.64c0-2.02,1.07-3.18,3.01-3.18s3.01,1.16,3.01,3.18v6.64c0,2.02-1.07,3.18-3.01,3.18s-3.01-1.16-3.01-3.18Zm4.04,.13v-6.9c0-.9-.4-1.25-1.03-1.25s-1.03,.34-1.03,1.25v6.9c0,.9,.4,1.25,1.03,1.25s1.03-.34,1.03-1.25Z"/>
          <path class="cls-5" d="M80.17,100.87v-4.9c0-1.49,.75-2.34,2.18-2.34s2.18,.85,2.18,2.34v.8h-1.38v-.89c0-.67-.29-.92-.76-.92s-.76,.25-.76,.92v5.1c0,.67,.29,.91,.76,.91s.76-.24,.76-.91v-1.82h-.73v-1.33h2.12v3.05c0,1.49-.75,2.34-2.18,2.34s-2.18-.85-2.18-2.34Z"/>
          <path class="cls-5" d="M85.74,93.77h1.46v7.98h2.41v1.33h-3.87v-9.31Z"/>
          <path class="cls-5" d="M90.42,100.87v-4.9c0-1.49,.78-2.34,2.22-2.34s2.22,.85,2.22,2.34v4.9c0,1.49-.78,2.34-2.22,2.34s-2.22-.85-2.22-2.34Zm2.98,.09v-5.08c0-.67-.29-.92-.76-.92s-.76,.25-.76,.92v5.08c0,.67,.29,.92,.76,.92s.76-.25,.76-.92Z"/>
          <path class="cls-5" d="M96.11,93.77h2.21c1.52,0,2.17,.71,2.17,2.14v.37c0,.96-.29,1.56-.94,1.82v.03c.79,.27,1.09,.96,1.09,1.94v.8c0,1.44-.76,2.21-2.22,2.21h-2.3v-9.31Zm2.04,3.79c.55,0,.88-.24,.88-.98v-.52c0-.67-.23-.96-.75-.96h-.71v2.46h.57Zm.27,4.19c.49,0,.76-.23,.76-.92v-.81c0-.86-.28-1.13-.94-1.13h-.65v2.86h.84Z"/>
          <path class="cls-5" d="M102.88,93.77h1.98l1.52,9.31h-1.46l-.27-1.85v.03h-1.66l-.27,1.82h-1.36l1.52-9.31Zm1.6,6.23l-.65-4.6h-.03l-.64,4.6h1.32Z"/>
          <path class="cls-5" d="M107.35,93.77h1.46v7.98h2.41v1.33h-3.87v-9.31Z"/>
          <path class="cls-5" d="M114.59,93.77h2.09l.93,6.67h.03l.93-6.67h2.09v9.31h-1.38v-7.05h-.03l-1.06,7.05h-1.22l-1.06-7.05h-.03v7.05h-1.28v-9.31Z"/>
          <path class="cls-5" d="M122.01,93.77h3.99v1.33h-2.53v2.46h2.01v1.33h-2.01v2.86h2.53v1.33h-3.99v-9.31Z"/>
          <path class="cls-5" d="M127.1,93.77h2.24c1.46,0,2.18,.81,2.18,2.3v4.71c0,1.49-.72,2.3-2.18,2.3h-2.24v-9.31Zm2.21,7.98c.47,0,.75-.24,.75-.9v-4.84c0-.67-.28-.9-.75-.9h-.75v6.65h.75Z"/>
          <path class="cls-5" d="M132.77,93.77h1.46v9.31h-1.46v-9.31Z"/>
          <path class="cls-5" d="M136.72,93.77h1.98l1.52,9.31h-1.46l-.27-1.85v.03h-1.66l-.27,1.82h-1.36l1.52-9.31Zm1.6,6.23l-.65-4.6h-.03l-.64,4.6h1.32Z"/>
          <path class="cls-5" d="M141.19,93.77h1.84l1.42,5.58h.03v-5.58h1.3v9.31h-1.5l-1.76-6.8h-.03v6.8h-1.3v-9.31Z"/>
          <path class="cls-5" d="M150.66,93.77h1.98l1.52,9.31h-1.46l-.27-1.85v.03h-1.66l-.27,1.82h-1.36l1.52-9.31Zm1.6,6.23l-.65-4.6h-.03l-.64,4.6h1.32Z"/>
          <path class="cls-5" d="M154.99,100.87v-4.9c0-1.49,.75-2.34,2.18-2.34s2.18,.85,2.18,2.34v.8h-1.38v-.89c0-.67-.29-.92-.76-.92s-.76,.25-.76,.92v5.1c0,.67,.29,.91,.76,.91s.76-.24,.76-.91v-1.82h-.73v-1.33h2.12v3.05c0,1.49-.75,2.34-2.18,2.34s-2.18-.85-2.18-2.34Z"/>
          <path class="cls-5" d="M160.57,93.77h3.99v1.33h-2.53v2.46h2.01v1.33h-2.01v2.86h2.53v1.33h-3.99v-9.31Z"/>
        </g>
        <line class="cls-4" x1="97.18" y1="84.14" x2="164.15" y2="84.14"/>
      </g>
      <g>
        <g>
          <path class="cls-1" d="M51.35,62.35c-4.3,.35-10.04,3.4-11.03,7.97-.04,.18,.11,.37-.1,.47-.1,.05-.25-.07-.35,0-.32,.2,.15,1.54,.22,1.81,.73,2.87,1.28,6.09,3.05,8.55,1.06,1.47,2.76,2.51,4.29,3.46,3.04,1.88,7.04,3.09,9.03,6.28,1.27,2.05,.56,3.85,.51,5.93,1.03-1,2.22-1.83,3.21-2.87,1.09-1.14,2.1-2.36,2.95-3.68,1.7-2.64,2.64-5.64,3.02-8.74,.67-5.44,.36-13.02-4.66-16.44-2.53-1.73-7.07-2.99-10.14-2.74Z"/>
          <g>
            <path class="cls-1" d="M66.54,69.76c0,7.71-5.88,11.83-13.58,11.83s-13.77-5.79-13.77-13.49,6.06-14.42,13.77-14.42,13.58,8.37,13.58,16.08Z"/>
            <path class="cls-2" d="M69.69,103.12c.2-3.94-2.9-13.49-4.86-14.69-5.22-3.19-18.66-2.86-23.86,.37-2.34,1.45-4.31,9.98-4.71,14.32h33.43Z"/>
            <path class="cls-3" d="M62.51,103.12c2.53-3.63,1.08-15.36,1.08-15.36-5.31-2.48-16.25-2.05-21.62,.47,0,0-1.59,9.28,1.61,14.89h18.94Z"/>
            <path class="cls-2" d="M52.93,90.9c6.04-.18,6.28-2.4,6.28-4.37-5.02-1.2-7.91-.9-13,.37,.12,4.37,6.72,4,6.72,4Z"/>
            <path class="cls-2" d="M54.36,79.16l-3.2,.05c-1.16,.02-2.08,.82-2.07,1.79l.07,4.03,.06,3.57c.94,.49,2.25,.78,3.71,.76,1.46-.02,2.76-.36,3.68-.88l-.06-3.57-.07-4.03c-.02-.97-.97-1.74-2.12-1.72Z"/>
            <path class="cls-2" d="M63.4,71.3c0,8.03-4.72,14.54-10.55,14.54s-10.54-6.51-10.54-14.54,4.72-14.54,10.54-14.54,10.55,6.51,10.55,14.54Z"/>
            <path class="cls-1" d="M58.53,55.36s-4.37,17.99-18.97,19.1c-4.07-7.39-.58-14.37,1.11-16.39,7.58-9.06,17.87-2.71,17.87-2.71Z"/>
            <path class="cls-1" d="M54.16,62.56s7.45,7.34,6.71,13.25c0,0,5.67-7.34,3.08-12.51-2.59-5.17-8.69-7.76-8.69-7.76l-1.11,7.02Z"/>
          </g>
          <path class="cls-1" d="M56.56,86.01c.03,.13,.26,.31,.34,.41,.15,.18,.31,.35,.42,.56,.88,1.68,1.02,3.62,.83,5.48-.1,.99-.15,2.06-.68,2.94,1.09-2.08,1.52-4.32,1.79-6.63,.1-.83,.47-2.54-.14-3.26-.63-.74-2.5-.7-2.5,.35,0-.02-.07,.18-.07,.16"/>
          <path class="cls-1" d="M59.15,86.22c0,.28,0,.55,0,.83,0,.33,.09,.53,.16,.83,.03,.12,.02,.23,.04,.35,.02,.1,.1,.27,.14,.39,.75,2.42,2.11,4.56,2.15,7.15,.04,2.35-.72,4.69-2.6,6.2,2.7-.99,3.66-3.97,3.91-6.64,.33-3.48-1.69-6.52-.15-9.9-.02,.03-3.09-.87-3.68,.03-.12,.18-.07,.45-.07,.67,0,.25,.1,.41,.09,.65"/>
        </g>
        <g>
          <g>
            <path class="cls-3" d="M39.06,103.12c0-4.06-4.96-13.6-6.87-14.79-5.16-3.19-20.09-3.32-25.23-.09-2.31,1.45-6.47,10.51-6.96,14.88H39.06Z"/>
            <path class="cls-3" d="M32.18,88.34c-5.16-3.19-20.09-3.32-25.23-.09,0,0-.01,0-.02,.01,1.53,2.54,2.12,6.02,2.42,8.58,.25,2.07,.47,4.18,.59,6.29H28.93c.39-2.34,.77-4.68,1.25-7,.5-2.41,.97-5.36,2.03-7.77,0,0-.02-.02-.03-.02Z"/>
            <path class="cls-2" d="M21.02,79.16l-3.2,.05c-1.16,.02-2.08,.9-2.06,1.96l.07,4.43,.07,3.92c.94,.54,2.25,.87,3.71,.84,1.46-.02,2.76-.39,3.68-.96l-.07-3.92-.07-4.43c-.02-1.06-.97-1.91-2.13-1.89Z"/>
            <g>
              <path class="cls-2" d="M11.08,71.03c0,1.34,.9,3.6-.35,3.73-2.44,.25-3.72-2.45-3.72-3.79s1.01-2.42,2.27-2.42,1.8,1.15,1.8,2.49Z"/>
              <path class="cls-2" d="M27.94,71.03c0,1.34-.9,3.6,.35,3.73,2.44,.25,3.72-2.45,3.72-3.79s-1.01-2.42-2.27-2.42-1.8,1.15-1.8,2.49Z"/>
            </g>
            <path class="cls-2" d="M29.74,71.3c0,8.03-4.58,14.54-10.23,14.54s-10.23-6.51-10.23-14.54,4.58-14.54,10.23-14.54,10.23,6.51,10.23,14.54Z"/>
            <path class="cls-1" d="M19.51,59.54c5.2,0,9.5,5.53,10.14,12.69,.05-.61,.09-1.22,.09-1.85,0-8.03-4.58-14.54-10.22-14.54s-10.22,6.51-10.22,14.54c0,.63,.03,1.24,.08,1.85,.64-7.16,4.93-12.69,10.13-12.69Z"/>
            <path class="cls-1" d="M19.51,83.44c-5.36,0-9.75-5.87-10.18-13.34-.02,.4-.04,.8-.04,1.2,0,8.03,4.57,14.54,10.22,14.54s10.22-6.51,10.22-14.54c0-.41-.02-.8-.04-1.2-.43,7.47-4.82,13.34-10.18,13.34Z"/>
            <polygon class="cls-3" points="19.57 94.3 23.78 88.12 15.27 88.12 19.57 94.3"/>
            <polygon class="cls-2" points="15.4 85.14 14.16 86 16.14 91.91 19.53 88.15 15.4 85.14"/>
            <polygon class="cls-2" points="23.59 85.14 24.82 86 22.85 91.91 19.46 88.15 23.59 85.14"/>
            <path class="cls-1" d="M16.56,61.13c0,1.25-1.01,2.26-2.26,2.26s-2.27-1.01-2.27-2.26,1.01-2.26,2.27-2.26,2.26,1.01,2.26,2.26Z"/>
            <path class="cls-1" d="M20.91,59.92c0,1.25-1.01,2.26-2.26,2.26s-2.26-1.01-2.26-2.26,1.01-2.26,2.26-2.26,2.26,1.01,2.26,2.26Z"/>
            <path class="cls-1" d="M24.79,59.92c0,1.25-1.01,2.26-2.26,2.26s-2.27-1.01-2.27-2.26,1.01-2.26,2.27-2.26,2.26,1.01,2.26,2.26Z"/>
            <path class="cls-1" d="M27.93,60.57c0,1.25-1.01,2.26-2.27,2.26s-2.26-1.01-2.26-2.26,1.01-2.27,2.26-2.27,2.27,1.01,2.27,2.27Z"/>
            <path class="cls-1" d="M30.01,58.35c0,1.25-1.01,2.26-2.26,2.26s-2.27-1.01-2.27-2.26,1.01-2.26,2.27-2.26,2.26,1.01,2.26,2.26Z"/>
            <path class="cls-1" d="M30.52,61.77c0,1.25-1.01,2.26-2.27,2.26s-2.26-1.01-2.26-2.26,1.01-2.26,2.26-2.26,2.27,1.01,2.27,2.26Z"/>
            <path class="cls-1" d="M32.18,64.27c0,1.25-1.01,2.26-2.26,2.26s-2.26-1.01-2.26-2.26,1.01-2.26,2.26-2.26,2.26,1.01,2.26,2.26Z"/>
            <path class="cls-1" d="M13.61,61.5c0,1.25-1.01,2.26-2.26,2.26s-2.26-1.01-2.26-2.26,1.01-2.26,2.26-2.26,2.26,1.01,2.26,2.26Z"/>
            <path class="cls-1" d="M12.5,61.03c0,1.25-1.01,2.26-2.26,2.26s-2.26-1.01-2.26-2.26,1.01-2.26,2.26-2.26,2.26,1.01,2.26,2.26Z"/>
            <path class="cls-1" d="M26.92,57.25c0,1.25-1.01,2.26-2.26,2.26s-2.26-1.01-2.26-2.26,1.01-2.26,2.26-2.26,2.26,1.01,2.26,2.26Z"/>
            <path class="cls-1" d="M25.16,55.58c0,1.25-1.01,2.26-2.26,2.26s-2.26-1.01-2.26-2.26,1.01-2.26,2.26-2.26,2.26,1.01,2.26,2.26Z"/>
            <path class="cls-1" d="M22.9,55.58c0,1.25-1.01,2.26-2.26,2.26s-2.26-1.01-2.26-2.26,1.01-2.26,2.26-2.26,2.26,1.01,2.26,2.26Z"/>
            <path class="cls-1" d="M18.92,55.58c0,1.25-1.01,2.26-2.26,2.26s-2.26-1.01-2.26-2.26,1.01-2.26,2.26-2.26,2.26,1.01,2.26,2.26Z"/>
            <path class="cls-1" d="M15.96,57.15c0,1.25-1.01,2.27-2.26,2.27s-2.26-1.01-2.26-2.27,1.01-2.26,2.26-2.26,2.26,1.01,2.26,2.26Z"/>
            <path class="cls-1" d="M14.76,58.91c0,1.25-1.01,2.26-2.26,2.26s-2.26-1.01-2.26-2.26,1.01-2.26,2.26-2.26,2.26,1.01,2.26,2.26Z"/>
            <path class="cls-1" d="M11.57,64.27c0,1.25-1.01,2.26-2.26,2.26s-2.26-1.01-2.26-2.26,1.01-2.26,2.26-2.26,2.26,1.01,2.26,2.26Z"/>
          </g>
          <path class="cls-1" d="M22.05,77.7h-5.05c-1.16,0-2.1,.84-2.1,1.87v3.62c0,.64,.36,1.21,.92,1.54-.03-.13-.06-.27-.06-.42v-3.35c0-.95,.76-1.73,1.7-1.73h4.11c.94,0,1.7,.77,1.7,1.73v3.35c0,.14-.02,.28-.06,.42,.55-.34,.92-.9,.92-1.54v-3.62c0-1.03-.94-1.87-2.09-1.87Z"/>
        </g>
      </g>
    </g>
  </g>
</svg>