<?xml version="1.0" encoding="UTF-8"?>
<svg id="Layer_2" data-name="Layer 2" xmlns="http://www.w3.org/2000/svg" xmlns:xlink="http://www.w3.org/1999/xlink" viewBox="0 0 160.89 215.2">
  <defs>
    <style>
      .cls-1 {
        stroke: #bdbcbb;
        stroke-width: 3px;
      }

      .cls-1, .cls-2, .cls-3, .cls-4 {
        fill: none;
      }

      .cls-1, .cls-3, .cls-4 {
        stroke-miterlimit: 10;
      }

      .cls-5 {
        fill: #bdbcbb;
      }

      .cls-6 {
        fill: #fff;
      }

      .cls-7 {
        fill: #939598;
      }

      .cls-8 {
        fill: #1a3668;
      }

      .cls-9 {
        fill: #3b4160;
      }

      .cls-10 {
        clip-path: url(#clippath-1);
      }

      .cls-11 {
        fill: #d5d5df;
      }

      .cls-12 {
        fill: #d5d3d2;
      }

      .cls-13 {
        fill: #7c7e9f;
      }

      .cls-14 {
        fill: #777677;
      }

      .cls-3 {
        stroke: #1a3668;
      }

      .cls-4 {
        stroke: #777677;
        stroke-width: .89px;
      }
    </style>
    <clipPath id="clippath-1">
      <polygon class="cls-2" points="34.36 84.35 19.89 84.35 19.89 73.3 36.77 73.3 34.36 84.35"/>
    </clipPath>
  </defs>
  <g id="Layer_2-2" data-name="Layer 2">
    <rect class="cls-11" x="29.58" y="15.86" width="33.01" height="19.06"/>
    <g>
      <path class="cls-8" d="M33.41,18.82h2.09v11.4h3.44v1.9h-5.53v-13.3Z"/>
      <path class="cls-8" d="M39.95,18.82h3.19c2.09,0,3.12,1.16,3.12,3.29v6.73c0,2.13-1.03,3.29-3.12,3.29h-3.19v-13.3Zm3.15,11.4c.67,0,1.06-.34,1.06-1.29v-6.92c0-.95-.4-1.29-1.06-1.29h-1.06v9.5h1.06Z"/>
      <path class="cls-8" d="M47.53,29.04v-7.14c0-2.05,1.06-3.27,3.08-3.27s3.08,1.22,3.08,3.27v1.41h-1.98v-1.54c0-.87-.42-1.23-1.04-1.23s-1.04,.36-1.04,1.23v7.43c0,.87,.42,1.22,1.04,1.22s1.04-.34,1.04-1.22v-2.03h1.98v1.88c0,2.05-1.06,3.27-3.08,3.27s-3.08-1.22-3.08-3.27Z"/>
      <path class="cls-8" d="M54.49,29.63v-.6h1.56v.72c0,.75,.33,1.02,.86,1.02s.85-.27,.85-1.05c0-.87-.33-1.42-1.41-2.37-1.38-1.21-1.83-2.07-1.83-3.27,0-1.65,.85-2.61,2.46-2.61s2.4,.96,2.4,2.64v.44h-1.56v-.54c0-.75-.3-1.03-.83-1.03s-.83,.28-.83,1c0,.76,.34,1.32,1.42,2.26,1.38,1.21,1.82,2.06,1.82,3.36,0,1.71-.87,2.67-2.49,2.67s-2.43-.96-2.43-2.64Z"/>
      <path class="cls-8" d="M66.6,18.82h2.09v13.3h-2.09v-13.3Z"/>
      <path class="cls-8" d="M70.25,18.82h2.62l2.03,7.96h.04v-7.96h1.86v13.3h-2.15l-2.51-9.71h-.04v9.71h-1.86v-13.3Z"/>
      <path class="cls-8" d="M81.25,28.97v-6.99c0-2.13,1.06-3.34,3.12-3.34s3.12,1.22,3.12,3.34v1.14h-1.98v-1.27c0-.95-.42-1.31-1.08-1.31s-1.08,.36-1.08,1.31v7.28c0,.95,.42,1.29,1.08,1.29s1.08-.34,1.08-1.29v-2.6h-1.04v-1.9h3.02v4.35c0,2.13-1.06,3.34-3.12,3.34s-3.12-1.22-3.12-3.34Z"/>
      <path class="cls-8" d="M88.83,18.82h2.09v11.4h3.44v1.9h-5.53v-13.3Z"/>
      <path class="cls-8" d="M95.14,28.97v-6.99c0-2.13,1.12-3.34,3.17-3.34s3.17,1.22,3.17,3.34v6.99c0,2.13-1.12,3.34-3.17,3.34s-3.17-1.22-3.17-3.34Zm4.25,.13v-7.26c0-.95-.42-1.31-1.08-1.31s-1.08,.36-1.08,1.31v7.26c0,.95,.42,1.31,1.08,1.31s1.08-.36,1.08-1.31Z"/>
      <path class="cls-8" d="M102.89,18.82h3.15c2.17,0,3.1,1.01,3.1,3.06v.53c0,1.37-.42,2.22-1.35,2.6v.04c1.12,.38,1.56,1.37,1.56,2.77v1.14c0,2.05-1.08,3.15-3.17,3.15h-3.29v-13.3Zm2.91,5.41c.78,0,1.25-.34,1.25-1.41v-.74c0-.95-.32-1.37-1.06-1.37h-1.01v3.51h.82Zm.38,5.98c.7,0,1.08-.32,1.08-1.31v-1.16c0-1.23-.4-1.61-1.35-1.61h-.93v4.08h1.2Z"/>
      <path class="cls-8" d="M112.18,18.82h2.83l2.17,13.3h-2.09l-.38-2.64v.04h-2.37l-.38,2.6h-1.94l2.17-13.3Zm2.28,8.89l-.93-6.57h-.04l-.91,6.57h1.88Z"/>
      <path class="cls-8" d="M118.18,18.82h2.09v11.4h3.44v1.9h-5.53v-13.3Z"/>
      <path class="cls-8" d="M18.6,39.82h2.98l1.33,9.52h.04l1.33-9.52h2.98v13.3h-1.98v-10.07h-.04l-1.52,10.07h-1.75l-1.52-10.07h-.04v10.07h-1.82v-13.3Z"/>
      <path class="cls-8" d="M28.82,39.82h5.7v1.9h-3.61v3.51h2.87v1.9h-2.87v4.08h3.61v1.9h-5.7v-13.3Z"/>
      <path class="cls-8" d="M35.72,39.82h3.1c2.17,0,3.1,1.01,3.1,3.06v.82c0,1.37-.44,2.24-1.37,2.62v.04c1.04,.32,1.39,1.31,1.39,2.81v2.34c0,.65,.02,1.12,.23,1.61h-2.13c-.11-.34-.19-.55-.19-1.63v-2.43c0-1.23-.36-1.63-1.31-1.63h-.72v5.7h-2.09v-13.3Zm2.85,5.7c.78,0,1.25-.34,1.25-1.41v-1.03c0-.95-.32-1.37-1.06-1.37h-.95v3.8h.76Z"/>
      <path class="cls-8" d="M43.24,50.04v-7.14c0-2.05,1.06-3.27,3.08-3.27s3.08,1.22,3.08,3.27v1.41h-1.98v-1.54c0-.87-.42-1.23-1.04-1.23s-1.04,.36-1.04,1.23v7.43c0,.87,.42,1.22,1.04,1.22s1.04-.34,1.04-1.22v-2.03h1.98v1.88c0,2.05-1.06,3.27-3.08,3.27s-3.08-1.22-3.08-3.27Z"/>
      <path class="cls-8" d="M50.65,39.82h2.09v5.41h2.24v-5.41h2.09v13.3h-2.09v-5.98h-2.24v5.98h-2.09v-13.3Z"/>
      <path class="cls-8" d="M60.25,39.82h2.83l2.17,13.3h-2.09l-.38-2.64v.04h-2.37l-.38,2.6h-1.94l2.17-13.3Zm2.28,8.89l-.93-6.57h-.04l-.91,6.57h1.88Z"/>
      <path class="cls-8" d="M66.25,39.82h2.62l2.03,7.96h.04v-7.96h1.86v13.3h-2.15l-2.51-9.71h-.04v9.71h-1.86v-13.3Z"/>
      <path class="cls-8" d="M74.36,39.82h3.19c2.09,0,3.12,1.16,3.12,3.29v6.73c0,2.13-1.03,3.29-3.12,3.29h-3.19v-13.3Zm3.15,11.4c.67,0,1.06-.34,1.06-1.29v-6.92c0-.95-.4-1.29-1.06-1.29h-1.06v9.5h1.06Z"/>
      <path class="cls-8" d="M82.08,39.82h2.09v13.3h-2.09v-13.3Z"/>
      <path class="cls-8" d="M85.36,49.97v-.76h1.98v.91c0,.95,.42,1.29,1.08,1.29s1.08-.34,1.08-1.33c0-1.1-.42-1.8-1.79-3-1.75-1.54-2.32-2.62-2.32-4.14,0-2.09,1.08-3.31,3.12-3.31s3.04,1.22,3.04,3.34v.55h-1.98v-.68c0-.95-.38-1.31-1.04-1.31s-1.04,.36-1.04,1.27c0,.97,.44,1.67,1.8,2.87,1.75,1.54,2.3,2.6,2.3,4.26,0,2.17-1.1,3.38-3.15,3.38s-3.08-1.22-3.08-3.34Z"/>
      <path class="cls-8" d="M92.79,39.82h5.7v1.9h-3.61v3.51h2.87v1.9h-2.87v4.08h3.61v1.9h-5.7v-13.3Z"/>
      <path class="cls-8" d="M104.36,41.72h-2.19v-1.9h6.46v1.9h-2.19v11.4h-2.09v-11.4Z"/>
      <path class="cls-8" d="M109.65,39.82h3.1c2.17,0,3.1,1.01,3.1,3.06v.82c0,1.37-.44,2.24-1.37,2.62v.04c1.04,.32,1.39,1.31,1.39,2.81v2.34c0,.65,.02,1.12,.23,1.61h-2.13c-.11-.34-.19-.55-.19-1.63v-2.43c0-1.23-.36-1.63-1.31-1.63h-.72v5.7h-2.09v-13.3Zm2.85,5.7c.78,0,1.25-.34,1.25-1.41v-1.03c0-.95-.32-1.37-1.06-1.37h-.95v3.8h.76Z"/>
      <path class="cls-8" d="M118.92,39.82h2.83l2.17,13.3h-2.09l-.38-2.64v.04h-2.37l-.38,2.6h-1.94l2.17-13.3Zm2.28,8.89l-.93-6.57h-.04l-.91,6.57h1.88Z"/>
      <path class="cls-8" d="M124.92,39.82h3.19c2.09,0,3.12,1.16,3.12,3.29v6.73c0,2.13-1.03,3.29-3.12,3.29h-3.19v-13.3Zm3.15,11.4c.67,0,1.06-.34,1.06-1.29v-6.92c0-.95-.4-1.29-1.06-1.29h-1.06v9.5h1.06Z"/>
      <path class="cls-8" d="M132.64,39.82h5.7v1.9h-3.61v3.51h2.87v1.9h-2.87v4.08h3.61v1.9h-5.7v-13.3Z"/>
    </g>
    <g>
      <path class="cls-7" d="M54.09,212.74v-.56h1.46v.67c0,.7,.31,.95,.8,.95s.8-.25,.8-.98c0-.81-.31-1.33-1.32-2.21-1.29-1.13-1.71-1.93-1.71-3.05,0-1.54,.8-2.44,2.3-2.44s2.24,.9,2.24,2.46v.41h-1.46v-.5c0-.7-.28-.97-.77-.97s-.77,.27-.77,.94c0,.71,.32,1.23,1.33,2.12,1.29,1.13,1.69,1.92,1.69,3.14,0,1.6-.81,2.49-2.33,2.49s-2.27-.9-2.27-2.46Z"/>
      <path class="cls-7" d="M59.84,205.26h1.54v9.81h-1.54v-9.81Z"/>
      <path class="cls-7" d="M62.81,205.26h1.93l1.5,5.87h.03v-5.87h1.37v9.81h-1.58l-1.85-7.16h-.03v7.16h-1.37v-9.81Z"/>
      <path class="cls-7" d="M68.97,212.79v-5.27c0-1.51,.78-2.41,2.27-2.41s2.27,.9,2.27,2.41v1.04h-1.46v-1.13c0-.64-.31-.91-.77-.91s-.77,.27-.77,.91v5.48c0,.64,.31,.9,.77,.9s.77-.25,.77-.9v-1.5h1.46v1.39c0,1.51-.78,2.41-2.27,2.41s-2.27-.9-2.27-2.41Z"/>
      <path class="cls-7" d="M74.71,205.26h4.2v1.4h-2.66v2.59h2.12v1.4h-2.12v3.01h2.66v1.4h-4.2v-9.81Z"/>
      <path class="cls-7" d="M82.56,214c0-1.4,.39-2.26,1.54-3.46,1.18-1.25,1.51-1.99,1.51-2.9s-.31-1.12-.8-1.12-.8,.27-.8,.97v1.05h-1.46v-.95c0-1.57,.79-2.46,2.3-2.46s2.3,.9,2.3,2.46c0,1.16-.48,2.2-1.91,3.71-.92,.98-1.16,1.47-1.16,2.16v.21h2.93v1.4h-4.46v-1.06Z"/>
      <path class="cls-7" d="M88.36,212.74v-5.16c0-1.57,.83-2.46,2.34-2.46s2.34,.9,2.34,2.46v5.16c0,1.57-.83,2.46-2.34,2.46s-2.34-.9-2.34-2.46Zm3.14,.1v-5.35c0-.7-.31-.97-.8-.97s-.8,.27-.8,.97v5.35c0,.7,.31,.97,.8,.97s.8-.27,.8-.97Z"/>
      <path class="cls-7" d="M96.51,207.58h-1.61v-1.09c1.3,0,1.77-.28,2.12-1.23h1.04v9.81h-1.54v-7.48Z"/>
      <path class="cls-7" d="M102.39,207.58h-1.61v-1.09c1.3,0,1.76-.28,2.11-1.23h1.04v9.81h-1.54v-7.48Z"/>
    </g>
    <line class="cls-4" x1="16.43" y1="131.62" x2="150.43" y2="131.62"/>
    <g>
      <path class="cls-8" d="M5.01,149.8h2.2v5.7h2.36v-5.7h2.2v14h-2.2v-6.3h-2.36v6.3h-2.2v-14Z"/>
      <path class="cls-8" d="M15.11,149.8h2.98l2.28,14h-2.2l-.4-2.78v.04h-2.5l-.4,2.74h-2.04l2.28-14Zm2.4,9.36l-.98-6.92h-.04l-.96,6.92h1.98Z"/>
      <path class="cls-8" d="M20.99,160.48v-.8h2.08v.96c0,1,.44,1.36,1.14,1.36s1.14-.36,1.14-1.4c0-1.16-.44-1.9-1.88-3.16-1.84-1.62-2.44-2.76-2.44-4.36,0-2.2,1.14-3.48,3.28-3.48s3.2,1.28,3.2,3.52v.58h-2.08v-.72c0-1-.4-1.38-1.1-1.38s-1.1,.38-1.1,1.34c0,1.02,.46,1.76,1.9,3.02,1.84,1.62,2.42,2.74,2.42,4.48,0,2.28-1.16,3.56-3.32,3.56s-3.24-1.28-3.24-3.52Z"/>
      <path class="cls-8" d="M31.63,160.48v-.8h2.08v.96c0,1,.44,1.36,1.14,1.36s1.14-.36,1.14-1.4c0-1.16-.44-1.9-1.88-3.16-1.84-1.62-2.44-2.76-2.44-4.36,0-2.2,1.14-3.48,3.28-3.48s3.2,1.28,3.2,3.52v.58h-2.08v-.72c0-1-.4-1.38-1.1-1.38s-1.1,.38-1.1,1.34c0,1.02,.46,1.76,1.9,3.02,1.84,1.62,2.42,2.74,2.42,4.48,0,2.28-1.16,3.56-3.32,3.56s-3.24-1.28-3.24-3.52Z"/>
      <path class="cls-8" d="M41.17,151.8h-2.3v-2h6.8v2h-2.3v12h-2.2v-12Z"/>
      <path class="cls-8" d="M47.51,149.8h2.98l2.28,14h-2.2l-.4-2.78v.04h-2.5l-.4,2.74h-2.04l2.28-14Zm2.4,9.36l-.98-6.92h-.04l-.96,6.92h1.98Z"/>
      <path class="cls-8" d="M53.63,160.48v-7.36c0-2.24,1.12-3.52,3.28-3.52s3.28,1.28,3.28,3.52v1.2h-2.08v-1.34c0-1-.44-1.38-1.14-1.38s-1.14,.38-1.14,1.38v7.66c0,1,.44,1.36,1.14,1.36s1.14-.36,1.14-1.36v-2.74h-1.1v-2h3.18v4.58c0,2.24-1.12,3.52-3.28,3.52s-3.28-1.28-3.28-3.52Z"/>
      <path class="cls-8" d="M61.61,149.8h2.76l2.14,8.38h.04v-8.38h1.96v14h-2.26l-2.64-10.22h-.04v10.22h-1.96v-14Z"/>
      <path class="cls-8" d="M71.85,149.8h2.98l2.28,14h-2.2l-.4-2.78v.04h-2.5l-.4,2.74h-2.04l2.28-14Zm2.4,9.36l-.98-6.92h-.04l-.96,6.92h1.98Z"/>
      <path class="cls-8" d="M78.97,151.8h-2.3v-2h6.8v2h-2.3v12h-2.2v-12Z"/>
      <path class="cls-8" d="M84.53,149.8h6v2h-3.8v3.7h3.02v2h-3.02v4.3h3.8v2h-6v-14Z"/>
      <path class="cls-8" d="M91.79,149.8h3.36c2.2,0,3.28,1.22,3.28,3.46v7.08c0,2.24-1.08,3.46-3.28,3.46h-3.36v-14Zm3.32,12c.7,0,1.12-.36,1.12-1.36v-7.28c0-1-.42-1.36-1.12-1.36h-1.12v10h1.12Z"/>
      <path class="cls-8" d="M35.25,170.8h2.98l2.28,14h-2.2l-.4-2.78v.04h-2.5l-.4,2.74h-2.04l2.28-14Zm2.4,9.36l-.98-6.92h-.04l-.96,6.92h1.98Z"/>
      <path class="cls-8" d="M42.37,172.8h-2.3v-2h6.8v2h-2.3v12h-2.2v-12Z"/>
      <path class="cls-8" d="M52.83,170.8h2.98l2.28,14h-2.2l-.4-2.78v.04h-2.5l-.4,2.74h-2.04l2.28-14Zm2.4,9.36l-.98-6.92h-.04l-.96,6.92h1.98Z"/>
      <path class="cls-8" d="M59.15,170.8h3.26c2.28,0,3.26,1.06,3.26,3.22v.86c0,1.44-.46,2.36-1.44,2.76v.04c1.1,.34,1.46,1.38,1.46,2.96v2.46c0,.68,.02,1.18,.24,1.7h-2.24c-.12-.36-.2-.58-.2-1.72v-2.56c0-1.3-.38-1.72-1.38-1.72h-.76v6h-2.2v-14Zm3,6c.82,0,1.32-.36,1.32-1.48v-1.08c0-1-.34-1.44-1.12-1.44h-1v4h.8Z"/>
      <path class="cls-8" d="M67.05,181.48v-7.36c0-2.24,1.18-3.52,3.34-3.52s3.34,1.28,3.34,3.52v7.36c0,2.24-1.18,3.52-3.34,3.52s-3.34-1.28-3.34-3.52Zm4.48,.14v-7.64c0-1-.44-1.38-1.14-1.38s-1.14,.38-1.14,1.38v7.64c0,1,.44,1.38,1.14,1.38s1.14-.38,1.14-1.38Z"/>
      <path class="cls-8" d="M75.13,181.48v-10.68h2.2v10.84c0,1,.42,1.36,1.12,1.36s1.12-.36,1.12-1.36v-10.84h2.12v10.68c0,2.24-1.12,3.52-3.28,3.52s-3.28-1.28-3.28-3.52Z"/>
      <path class="cls-8" d="M83.25,170.8h2.76l2.14,8.38h.04v-8.38h1.96v14h-2.26l-2.64-10.22h-.04v10.22h-1.96v-14Z"/>
      <path class="cls-8" d="M91.79,170.8h3.36c2.2,0,3.28,1.22,3.28,3.46v7.08c0,2.24-1.08,3.46-3.28,3.46h-3.36v-14Zm3.32,12c.7,0,1.12-.36,1.12-1.36v-7.28c0-1-.42-1.36-1.12-1.36h-1.12v10h1.12Z"/>
    </g>
    <g>
      <rect class="cls-8" x="57.97" y="94.08" width="19.59" height="9.61"/>
      <path class="cls-6" d="M58.66,94.74v8.27h18.24v-8.27h-18.24Zm3.18,.36h1.03v7.54h-1.03v-7.54Zm-.35,7.54h-1.03v-7.54h1.03v7.54Zm1.73-7.54h1.03v7.54h-1.03v-7.54Zm1.38,0h1.03v7.54h-1.03v-7.54Zm1.38,0h1.03v7.54h-1.03v-7.54Zm1.38,0h1.03v7.54h-1.03v-7.54Zm1.38,0h1.03v7.54h-1.03v-7.54Zm1.38,0h1.03v7.54h-1.03v-7.54Zm1.38,0h1.03v7.54h-1.03v-7.54Zm1.38,0h1.03v7.54h-1.03v-7.54Zm1.38,0h1.03v7.54h-1.03v-7.54Zm-15.21,0h1.09v7.54h-1.09v-7.54Zm17.52,7.54h-.93v-7.54h.93v7.54Z"/>
    </g>
    <g>
      <rect class="cls-8" x="106.55" y="74.85" width="19.59" height="9.61"/>
      <path class="cls-6" d="M107.24,75.51v8.27h18.24v-8.27h-18.24Zm3.18,.36h1.03v7.54h-1.03v-7.54Zm-.35,7.54h-1.03v-7.54h1.03v7.54Zm1.73-7.54h1.03v7.54h-1.03v-7.54Zm1.38,0h1.03v7.54h-1.03v-7.54Zm1.38,0h1.03v7.54h-1.03v-7.54Zm1.38,0h1.03v7.54h-1.03v-7.54Zm1.38,0h1.03v7.54h-1.03v-7.54Zm1.38,0h1.03v7.54h-1.03v-7.54Zm1.38,0h1.03v7.54h-1.03v-7.54Zm1.38,0h1.03v7.54h-1.03v-7.54Zm1.38,0h1.03v7.54h-1.03v-7.54Zm-15.21,0h1.09v7.54h-1.09v-7.54Zm17.52,7.54h-.93v-7.54h.93v7.54Z"/>
    </g>
    <g>
      <rect class="cls-8" x="70.85" y="74.85" width="19.59" height="9.61"/>
      <path class="cls-6" d="M71.54,75.51v8.27h18.24v-8.27h-18.24Zm3.18,.36h1.03v7.54h-1.03v-7.54Zm-.35,7.54h-1.03v-7.54h1.03v7.54Zm1.73-7.54h1.03v7.54h-1.03v-7.54Zm1.38,0h1.03v7.54h-1.03v-7.54Zm1.38,0h1.03v7.54h-1.03v-7.54Zm1.38,0h1.03v7.54h-1.03v-7.54Zm1.38,0h1.03v7.54h-1.03v-7.54Zm1.38,0h1.03v7.54h-1.03v-7.54Zm1.38,0h1.03v7.54h-1.03v-7.54Zm1.38,0h1.03v7.54h-1.03v-7.54Zm1.38,0h1.03v7.54h-1.03v-7.54Zm-15.21,0h1.09v7.54h-1.09v-7.54Zm17.52,7.54h-.93v-7.54h.93v7.54Z"/>
    </g>
    <g>
      <rect class="cls-8" x="49.78" y="74.85" width="19.59" height="9.61"/>
      <path class="cls-6" d="M50.48,75.51v8.27h18.24v-8.27h-18.24Zm3.18,.36h1.03v7.54h-1.03v-7.54Zm-.35,7.54h-1.03v-7.54h1.03v7.54Zm1.73-7.54h1.03v7.54h-1.03v-7.54Zm1.38,0h1.03v7.54h-1.03v-7.54Zm1.38,0h1.03v7.54h-1.03v-7.54Zm1.38,0h1.03v7.54h-1.03v-7.54Zm1.38,0h1.03v7.54h-1.03v-7.54Zm1.38,0h1.03v7.54h-1.03v-7.54Zm1.38,0h1.03v7.54h-1.03v-7.54Zm1.38,0h1.03v7.54h-1.03v-7.54Zm1.38,0h1.03v7.54h-1.03v-7.54Zm-15.21,0h1.09v7.54h-1.09v-7.54Zm17.52,7.54h-.93v-7.54h.93v7.54Z"/>
    </g>
    <g>
      <rect class="cls-8" x="38.38" y="84.47" width="19.59" height="9.61"/>
      <path class="cls-6" d="M39.08,85.13v8.27h18.24v-8.27h-18.24Zm3.18,.36h1.03v7.54h-1.03v-7.54Zm-.35,7.54h-1.03v-7.54h1.03v7.54Zm1.73-7.54h1.03v7.54h-1.03v-7.54Zm1.38,0h1.03v7.54h-1.03v-7.54Zm1.38,0h1.03v7.54h-1.03v-7.54Zm1.38,0h1.03v7.54h-1.03v-7.54Zm1.38,0h1.03v7.54h-1.03v-7.54Zm1.38,0h1.03v7.54h-1.03v-7.54Zm1.38,0h1.03v7.54h-1.03v-7.54Zm1.38,0h1.03v7.54h-1.03v-7.54Zm1.38,0h1.03v7.54h-1.03v-7.54Zm-15.21,0h1.09v7.54h-1.09v-7.54Zm17.52,7.54h-.93v-7.54h.93v7.54Z"/>
    </g>
    <g>
      <rect class="cls-8" x="77.48" y="84.47" width="19.59" height="9.61"/>
      <path class="cls-6" d="M78.18,85.13v8.27h18.24v-8.27h-18.24Zm3.18,.36h1.03v7.54h-1.03v-7.54Zm-.35,7.54h-1.03v-7.54h1.03v7.54Zm1.73-7.54h1.03v7.54h-1.03v-7.54Zm1.38,0h1.03v7.54h-1.03v-7.54Zm1.38,0h1.03v7.54h-1.03v-7.54Zm1.38,0h1.03v7.54h-1.03v-7.54Zm1.38,0h1.03v7.54h-1.03v-7.54Zm1.38,0h1.03v7.54h-1.03v-7.54Zm1.38,0h1.03v7.54h-1.03v-7.54Zm1.38,0h1.03v7.54h-1.03v-7.54Zm1.38,0h1.03v7.54h-1.03v-7.54Zm-15.21,0h1.09v7.54h-1.09v-7.54Zm17.52,7.54h-.93v-7.54h.93v7.54Z"/>
    </g>
    <g>
      <rect class="cls-8" x="96.99" y="94.08" width="19.59" height="9.61"/>
      <path class="cls-6" d="M97.69,94.74v8.27h18.24v-8.27h-18.24Zm3.18,.36h1.03v7.54h-1.03v-7.54Zm-.35,7.54h-1.03v-7.54h1.03v7.54Zm1.73-7.54h1.03v7.54h-1.03v-7.54Zm1.38,0h1.03v7.54h-1.03v-7.54Zm1.38,0h1.03v7.54h-1.03v-7.54Zm1.38,0h1.03v7.54h-1.03v-7.54Zm1.38,0h1.03v7.54h-1.03v-7.54Zm1.38,0h1.03v7.54h-1.03v-7.54Zm1.38,0h1.03v7.54h-1.03v-7.54Zm1.38,0h1.03v7.54h-1.03v-7.54Zm1.38,0h1.03v7.54h-1.03v-7.54Zm-15.21,0h1.09v7.54h-1.09v-7.54Zm17.52,7.54h-.93v-7.54h.93v7.54Z"/>
    </g>
    <g>
      <rect class="cls-5" x="96.99" y="84.47" width="19.59" height="9.61"/>
      <path class="cls-6" d="M97.69,85.13v8.27h18.24v-8.27h-18.24Zm3.18,.36h1.03v7.54h-1.03v-7.54Zm-.35,7.54h-1.03v-7.54h1.03v7.54Zm1.73-7.54h1.03v7.54h-1.03v-7.54Zm1.38,0h1.03v7.54h-1.03v-7.54Zm1.38,0h1.03v7.54h-1.03v-7.54Zm1.38,0h1.03v7.54h-1.03v-7.54Zm1.38,0h1.03v7.54h-1.03v-7.54Zm1.38,0h1.03v7.54h-1.03v-7.54Zm1.38,0h1.03v7.54h-1.03v-7.54Zm1.38,0h1.03v7.54h-1.03v-7.54Zm1.38,0h1.03v7.54h-1.03v-7.54Zm-15.21,0h1.09v7.54h-1.09v-7.54Zm17.52,7.54h-.93v-7.54h.93v7.54Z"/>
    </g>
    <g>
      <rect class="cls-5" x="116.51" y="94.08" width="19.59" height="9.61"/>
      <path class="cls-6" d="M117.21,94.74v8.27h18.24v-8.27h-18.24Zm3.18,.36h1.03v7.54h-1.03v-7.54Zm-.35,7.54h-1.03v-7.54h1.03v7.54Zm1.73-7.54h1.03v7.54h-1.03v-7.54Zm1.38,0h1.03v7.54h-1.03v-7.54Zm1.38,0h1.03v7.54h-1.03v-7.54Zm1.38,0h1.03v7.54h-1.03v-7.54Zm1.38,0h1.03v7.54h-1.03v-7.54Zm1.38,0h1.03v7.54h-1.03v-7.54Zm1.38,0h1.03v7.54h-1.03v-7.54Zm1.38,0h1.03v7.54h-1.03v-7.54Zm1.38,0h1.03v7.54h-1.03v-7.54Zm-15.21,0h1.09v7.54h-1.09v-7.54Zm17.52,7.54h-.93v-7.54h.93v7.54Z"/>
    </g>
    <g>
      <rect class="cls-5" x="57.97" y="84.47" width="19.59" height="9.61"/>
      <path class="cls-6" d="M58.66,85.13v8.27h18.24v-8.27h-18.24Zm3.18,.36h1.03v7.54h-1.03v-7.54Zm-.35,7.54h-1.03v-7.54h1.03v7.54Zm1.73-7.54h1.03v7.54h-1.03v-7.54Zm1.38,0h1.03v7.54h-1.03v-7.54Zm1.38,0h1.03v7.54h-1.03v-7.54Zm1.38,0h1.03v7.54h-1.03v-7.54Zm1.38,0h1.03v7.54h-1.03v-7.54Zm1.38,0h1.03v7.54h-1.03v-7.54Zm1.38,0h1.03v7.54h-1.03v-7.54Zm1.38,0h1.03v7.54h-1.03v-7.54Zm1.38,0h1.03v7.54h-1.03v-7.54Zm-15.21,0h1.09v7.54h-1.09v-7.54Zm17.52,7.54h-.93v-7.54h.93v7.54Z"/>
    </g>
    <g>
      <rect class="cls-5" x="77.48" y="94.08" width="19.59" height="9.61"/>
      <path class="cls-6" d="M78.18,94.74v8.27h18.24v-8.27h-18.24Zm3.18,.36h1.03v7.54h-1.03v-7.54Zm-.35,7.54h-1.03v-7.54h1.03v7.54Zm1.73-7.54h1.03v7.54h-1.03v-7.54Zm1.38,0h1.03v7.54h-1.03v-7.54Zm1.38,0h1.03v7.54h-1.03v-7.54Zm1.38,0h1.03v7.54h-1.03v-7.54Zm1.38,0h1.03v7.54h-1.03v-7.54Zm1.38,0h1.03v7.54h-1.03v-7.54Zm1.38,0h1.03v7.54h-1.03v-7.54Zm1.38,0h1.03v7.54h-1.03v-7.54Zm1.38,0h1.03v7.54h-1.03v-7.54Zm-15.21,0h1.09v7.54h-1.09v-7.54Zm17.52,7.54h-.93v-7.54h.93v7.54Z"/>
    </g>
    <g>
      <rect class="cls-5" x="38.38" y="94.08" width="19.59" height="9.61"/>
      <path class="cls-6" d="M39.08,94.74v8.27h18.24v-8.27h-18.24Zm3.18,.36h1.03v7.54h-1.03v-7.54Zm-.35,7.54h-1.03v-7.54h1.03v7.54Zm1.73-7.54h1.03v7.54h-1.03v-7.54Zm1.38,0h1.03v7.54h-1.03v-7.54Zm1.38,0h1.03v7.54h-1.03v-7.54Zm1.38,0h1.03v7.54h-1.03v-7.54Zm1.38,0h1.03v7.54h-1.03v-7.54Zm1.38,0h1.03v7.54h-1.03v-7.54Zm1.38,0h1.03v7.54h-1.03v-7.54Zm1.38,0h1.03v7.54h-1.03v-7.54Zm1.38,0h1.03v7.54h-1.03v-7.54Zm-15.21,0h1.09v7.54h-1.09v-7.54Zm17.52,7.54h-.93v-7.54h.93v7.54Z"/>
    </g>
    <rect class="cls-14" x="148.55" y="63.67" width=".6" height="32.03" transform="translate(-19.95 83.04) rotate(-29.3)"/>
    <rect class="cls-7" x="19.29" y="72.6" width="14.27" height="25.4"/>
    <polygon class="cls-7" points="34.36 84.35 19.89 84.35 19.89 73.3 36.77 73.3 34.36 84.35"/>
    <path class="cls-14" d="M148.64,111.15l3.69,8.75c1.14,2.1-.37,4.66-2.75,4.66H18.12c-1.73,0-3.13-1.41-3.13-3.15v-2.87c0-1.74-1.4-3.15-3.13-3.15H5.54c-1.73,0-3.13-1.41-3.13-3.15h0c0-1.75,1.41-3.17,3.15-3.15,21.23,.15,123.62,.98,140.23,.43,1.18-.04,2.28,.6,2.85,1.64Z"/>
    <rect class="cls-12" x="1.01" y="92.79" width="34.76" height="8.84"/>
    <rect class="cls-14" x="140.56" y="61.85" width=".8" height="33.56"/>
    <path class="cls-13" d="M.6,98.4v13.64c0,.19,.15,.34,.34,.34H146.83c1.59,0,3.04-.87,3.8-2.26l10.15-18.79c.31-.57-.1-1.25-.75-1.25h-7.01c-.6,0-1.2,.13-1.75,.37l-7.07,3.17c-.55,.25-1.14,.37-1.75,.37h-12.82c-.49,0-.97,.08-1.43,.25l-25.74,9.15c-.46,.16-.94,.25-1.43,.25H49.04c-1.76,0-3.34-1.08-3.98-2.72l-.93-2.4c-.07-.18-.25-.31-.45-.31l-42.58-.3c-.27,0-.49,.22-.49,.48Z"/>
    <path class="cls-6" d="M144.21,109.51h0c-.87,0-1.59-.71-1.59-1.59v-2.7c0-.87,.71-1.59,1.59-1.59h0c.87,0,1.59,.71,1.59,1.59v2.7c0,.87-.71,1.59-1.59,1.59Z"/>
    <rect class="cls-6" x="132.56" y="100.46" width="14.44" height="1.07" rx=".28" ry=".28"/>
    <rect class="cls-6" x="2.74" y="100.46" width="14.44" height="1.07" rx=".28" ry=".28"/>
    <rect class="cls-6" x="24.18" y="76.09" width="3.8" height="2.41"/>
    <g class="cls-10">
      <rect class="cls-6" x="28.74" y="76.09" width="7.58" height="2.41"/>
    </g>
    <rect class="cls-6" x="24.11" y="85.41" width="7.84" height="1.36"/>
    <rect class="cls-6" x="24.11" y="87.74" width="7.84" height="1.36"/>
    <g>
      <rect class="cls-6" x="3.01" y="94.6" width="1.94" height="1.73"/>
      <rect class="cls-6" x="8.68" y="94.6" width="1.94" height="1.73"/>
      <rect class="cls-6" x="14.35" y="94.6" width="1.94" height="1.73"/>
      <rect class="cls-6" x="20.01" y="94.6" width="1.94" height="1.73"/>
      <rect class="cls-6" x="25.68" y="94.6" width="1.94" height="1.73"/>
      <rect class="cls-6" x="31.35" y="94.6" width="1.94" height="1.73"/>
    </g>
    <path class="cls-14" d="M18.16,73.3h19.98c.19,0,.35-.16,.35-.35h0c0-.19-.16-.35-.35-.35H18.16c-.19,0-.35,.16-.35,.35h0c0,.19,.16,.35,.35,.35Z"/>
    <path class="cls-14" d="M.35,92.99H37.22c.19,0,.35-.16,.35-.35h0c0-.19-.16-.35-.35-.35H.35c-.19,0-.35,.16-.35,.35H0c0,.19,.16,.35,.35,.35Z"/>
    <path class="cls-13" d="M.6,98.4v13.64c0,.19,.15,.34,.34,.34H146.83c1.59,0,3.04-.87,3.8-2.26l10.15-18.79c.31-.57-.1-1.25-.75-1.25h-7.01c-.6,0-1.2,.13-1.75,.37l-7.07,3.17c-.55,.25-1.14,.37-1.75,.37h-12.82c-.49,0-.97,.08-1.43,.25l-25.74,9.15c-.46,.16-.94,.25-1.43,.25H49.04c-1.76,0-3.34-1.08-3.98-2.72l-.93-2.4c-.07-.18-.25-.31-.45-.31l-42.58-.3c-.27,0-.49,.22-.49,.48Z"/>
    <path class="cls-14" d="M.35,98.4H44.46c.19,0,.35-.16,.35-.35h0c0-.19-.16-.35-.35-.35H.35c-.19,0-.35,.16-.35,.35H0c0,.19,.16,.35,.35,.35Z"/>
    <g>
      <rect class="cls-8" x="116.51" y="84.47" width="19.59" height="9.61"/>
      <path class="cls-6" d="M117.21,85.13v8.27h18.24v-8.27h-18.24Zm3.18,.36h1.03v7.54h-1.03v-7.54Zm-.35,7.54h-1.03v-7.54h1.03v7.54Zm1.73-7.54h1.03v7.54h-1.03v-7.54Zm1.38,0h1.03v7.54h-1.03v-7.54Zm1.38,0h1.03v7.54h-1.03v-7.54Zm1.38,0h1.03v7.54h-1.03v-7.54Zm1.38,0h1.03v7.54h-1.03v-7.54Zm1.38,0h1.03v7.54h-1.03v-7.54Zm1.38,0h1.03v7.54h-1.03v-7.54Zm1.38,0h1.03v7.54h-1.03v-7.54Zm1.38,0h1.03v7.54h-1.03v-7.54Zm-15.21,0h1.09v7.54h-1.09v-7.54Zm17.52,7.54h-.93v-7.54h.93v7.54Z"/>
    </g>
    <line class="cls-3" x1="126.44" y1=".5" x2="144.6" y2=".5"/>
    <g>
      <path class="cls-8" d="M126.45,2.6h3.2v1.1h-1.99v2.15h1.56v1.1h-1.56v3.36h-1.21V2.6Z"/>
      <path class="cls-8" d="M130.45,2.6h1.79c1.25,0,1.79,.58,1.79,1.77v.47c0,.79-.25,1.3-.79,1.52v.02c.61,.19,.8,.76,.8,1.63v1.35c0,.37,.01,.65,.13,.94h-1.23c-.07-.2-.11-.32-.11-.95v-1.41c0-.71-.21-.95-.76-.95h-.42v3.3h-1.21V2.6Zm1.65,3.3c.45,0,.73-.2,.73-.81v-.59c0-.55-.19-.79-.62-.79h-.55v2.2h.44Z"/>
      <path class="cls-8" d="M135.02,8.47V4.42c0-1.23,.65-1.94,1.84-1.94s1.84,.7,1.84,1.94v4.05c0,1.23-.65,1.94-1.84,1.94s-1.84-.7-1.84-1.94Zm2.46,.08V4.35c0-.55-.24-.76-.63-.76s-.63,.21-.63,.76v4.2c0,.55,.24,.76,.63,.76s.63-.21,.63-.76Z"/>
      <path class="cls-8" d="M139.73,2.6h1.73l.77,5.51h.02l.77-5.51h1.73v7.7h-1.14V4.47h-.02l-.88,5.83h-1.01l-.88-5.83h-.02v5.83h-1.06V2.6Z"/>
    </g>
    <g>
      <path class="cls-8" d="M19.52,2.92h-1.61V1.51h4.76v1.4h-1.61V11.32h-1.54V2.92Z"/>
      <path class="cls-8" d="M23.69,1.51h1.54v3.99h1.65V1.51h1.54V11.32h-1.54V6.91h-1.65v4.41h-1.54V1.51Z"/>
      <path class="cls-8" d="M29.85,1.51h4.2v1.4h-2.66v2.59h2.12v1.4h-2.12v3.01h2.66v1.4h-4.2V1.51Z"/>
      <path class="cls-8" d="M37.47,8.99v-.56h1.46v.67c0,.7,.31,.95,.8,.95s.8-.25,.8-.98c0-.81-.31-1.33-1.32-2.21-1.29-1.13-1.71-1.93-1.71-3.05,0-1.54,.8-2.44,2.3-2.44s2.24,.9,2.24,2.47v.41h-1.46v-.5c0-.7-.28-.97-.77-.97s-.77,.27-.77,.94c0,.71,.32,1.23,1.33,2.11,1.29,1.13,1.69,1.92,1.69,3.14,0,1.6-.81,2.49-2.33,2.49s-2.27-.9-2.27-2.47Z"/>
      <path class="cls-8" d="M43.22,1.51h1.54v3.99h1.65V1.51h1.54V11.32h-1.54V6.91h-1.65v4.41h-1.54V1.51Z"/>
      <path class="cls-8" d="M50.57,1.51h2.09l1.6,9.81h-1.54l-.28-1.95v.03h-1.75l-.28,1.92h-1.43l1.6-9.81Zm1.68,6.56l-.69-4.85h-.03l-.67,4.85h1.39Z"/>
      <path class="cls-8" d="M55.27,1.51h2.28c1.6,0,2.28,.74,2.28,2.25v.6c0,1.01-.32,1.65-1.01,1.93v.03c.77,.24,1.02,.97,1.02,2.07v1.72c0,.48,.01,.83,.17,1.19h-1.57c-.08-.25-.14-.41-.14-1.2v-1.79c0-.91-.27-1.2-.97-1.2h-.53v4.2h-1.54V1.51Zm2.1,4.2c.57,0,.92-.25,.92-1.04v-.76c0-.7-.24-1.01-.78-1.01h-.7v2.8h.56Z"/>
      <path class="cls-8" d="M61.2,1.51h4.2v1.4h-2.66v2.59h2.12v1.4h-2.12v3.01h2.66v1.4h-4.2V1.51Z"/>
      <path class="cls-8" d="M68.97,8.99V3.84c0-1.57,.83-2.47,2.34-2.47s2.34,.9,2.34,2.47v5.15c0,1.57-.83,2.47-2.34,2.47s-2.34-.9-2.34-2.47Zm3.14,.1V3.74c0-.7-.31-.97-.8-.97s-.8,.27-.8,.97v5.35c0,.7,.31,.97,.8,.97s.8-.27,.8-.97Z"/>
      <path class="cls-8" d="M74.96,1.51h4.08v1.4h-2.54v2.73h1.99v1.4h-1.99v4.27h-1.54V1.51Z"/>
      <path class="cls-8" d="M82.57,1.51h4.2v1.4h-2.66v2.59h2.12v1.4h-2.12v3.01h2.66v1.4h-4.2V1.51Z"/>
      <path class="cls-8" d="M89.32,6.31l-1.69-4.79h1.62l1.04,3.17h.03l1.06-3.17h1.46l-1.7,4.79,1.78,5.01h-1.62l-1.12-3.42h-.03l-1.15,3.42h-1.46l1.78-5.01Z"/>
      <path class="cls-8" d="M93.93,1.51h2.27c1.54,0,2.3,.85,2.3,2.42v.97c0,1.57-.76,2.42-2.3,2.42h-.73v3.99h-1.54V1.51Zm2.27,4.41c.49,0,.76-.22,.76-.92v-1.16c0-.7-.27-.92-.76-.92h-.73v3.01h.73Z"/>
      <path class="cls-8" d="M99.5,8.99V3.84c0-1.57,.83-2.47,2.34-2.47s2.34,.9,2.34,2.47v5.15c0,1.57-.83,2.47-2.34,2.47s-2.34-.9-2.34-2.47Zm3.14,.1V3.74c0-.7-.31-.97-.8-.97s-.8,.27-.8,.97v5.35c0,.7,.31,.97,.8,.97s.8-.27,.8-.97Z"/>
      <path class="cls-8" d="M105.49,1.51h2.28c1.6,0,2.28,.74,2.28,2.25v.6c0,1.01-.32,1.65-1.01,1.93v.03c.77,.24,1.02,.97,1.02,2.07v1.72c0,.48,.01,.83,.17,1.19h-1.57c-.08-.25-.14-.41-.14-1.2v-1.79c0-.91-.27-1.2-.97-1.2h-.53v4.2h-1.54V1.51Zm2.1,4.2c.57,0,.92-.25,.92-1.04v-.76c0-.7-.24-1.01-.78-1.01h-.7v2.8h.56Z"/>
      <path class="cls-8" d="M112.59,2.92h-1.61V1.51h4.76v1.4h-1.61V11.32h-1.54V2.92Z"/>
      <path class="cls-8" d="M116.5,8.99v-.56h1.46v.67c0,.7,.31,.95,.8,.95s.8-.25,.8-.98c0-.81-.31-1.33-1.32-2.21-1.29-1.13-1.71-1.93-1.71-3.05,0-1.54,.8-2.44,2.3-2.44s2.24,.9,2.24,2.47v.41h-1.46v-.5c0-.7-.28-.97-.77-.97s-.77,.27-.77,.94c0,.71,.32,1.23,1.33,2.11,1.29,1.13,1.69,1.92,1.69,3.14,0,1.6-.81,2.49-2.33,2.49s-2.27-.9-2.27-2.47Z"/>
    </g>
    <line class="cls-3" x1="126.57" y1="12.64" x2="144.73" y2="12.64"/>
    <g>
      <circle class="cls-9" cx="132.41" cy="165.7" r="24.23"/>
      <g>
        <path class="cls-6" d="M122.18,158.74h-3.97v-2.69c3.21,0,4.35-.69,5.21-3.04h2.55v24.16h-3.8v-18.43Z"/>
        <path class="cls-6" d="M130.46,162.57v-6.04c0-2.49,1.28-3.87,3.66-3.87s3.66,1.38,3.66,3.87v6.04c0,2.49-1.28,3.87-3.66,3.87s-3.66-1.38-3.66-3.87Zm4.9,.17v-6.39c0-1.07-.48-1.52-1.24-1.52s-1.24,.45-1.24,1.52v6.39c0,1.07,.45,1.52,1.24,1.52s1.24-.45,1.24-1.52Zm7.52-9.73h2.42l-9.35,24.16h-2.42l9.35-24.16Zm-1.83,20.64v-6.04c0-2.49,1.28-3.87,3.66-3.87s3.66,1.38,3.66,3.87v6.04c0,2.48-1.28,3.87-3.66,3.87s-3.66-1.38-3.66-3.87Zm4.9,.17v-6.39c0-1.07-.48-1.52-1.24-1.52s-1.24,.45-1.24,1.52v6.39c0,1.07,.45,1.52,1.24,1.52s1.24-.45,1.24-1.52Z"/>
      </g>
    </g>
    <g>
      <line class="cls-1" x1="28.65" y1="210.51" x2="47.47" y2="210.51"/>
      <line class="cls-1" x1="109.97" y1="210.51" x2="128.79" y2="210.51"/>
    </g>
  </g>
</svg>