<?xml version="1.0" encoding="UTF-8"?>
<svg id="Layer_2" data-name="Layer 2" xmlns="http://www.w3.org/2000/svg" viewBox="0 0 545.56 136.36">
  <defs>
    <style>
      .cls-1 {
        fill: #fff;
      }

      .cls-2 {
        fill: #939598;
      }

      .cls-3 {
        fill: #1a3668;
      }

      .cls-4 {
        fill: #3b4160;
      }

      .cls-5 {
        fill: #203764;
      }

      .cls-6 {
        fill: #dbdae3;
      }

      .cls-7 {
        fill: #d5d5df;
      }

      .cls-8 {
        fill: #7c7e9f;
      }

      .cls-9 {
        fill: #b3b3c7;
      }

      .cls-10 {
        fill: none;
        stroke: #1a3668;
        stroke-miterlimit: 10;
        stroke-width: .5px;
      }
    </style>
  </defs>
  <g id="Layer_2-2" data-name="Layer 2">
    <g>
      <path class="cls-3" d="M125.13,19.11h2.62l2.03,7.96h.04v-7.96h1.86v13.3h-2.15l-2.51-9.71h-.04v9.71h-1.86v-13.3Z"/>
      <path class="cls-3" d="M133.24,19.11h5.7v1.9h-3.61v3.51h2.87v1.9h-2.87v4.08h3.61v1.9h-5.7v-13.3Z"/>
      <path class="cls-3" d="M141.77,21.01h-2.19v-1.9h6.46v1.9h-2.19v11.4h-2.09v-11.4Z"/>
      <path class="cls-3" d="M149.94,29.26v-6.99c0-2.13,1.12-3.34,3.17-3.34s3.17,1.22,3.17,3.34v6.99c0,2.13-1.12,3.34-3.17,3.34s-3.17-1.22-3.17-3.34Zm4.25,.13v-7.26c0-.95-.42-1.31-1.08-1.31s-1.08,.36-1.08,1.31v7.26c0,.95,.42,1.31,1.08,1.31s1.08-.36,1.08-1.31Z"/>
      <path class="cls-3" d="M157.69,19.11h3.19c2.09,0,3.12,1.16,3.12,3.29v6.73c0,2.13-1.03,3.29-3.12,3.29h-3.19v-13.3Zm3.15,11.4c.67,0,1.06-.34,1.06-1.29v-6.92c0-.95-.4-1.29-1.06-1.29h-1.06v9.5h1.06Z"/>
      <path class="cls-3" d="M166.99,19.11h2.83l2.17,13.3h-2.09l-.38-2.64v.04h-2.37l-.38,2.6h-1.94l2.17-13.3Zm2.28,8.89l-.93-6.57h-.04l-.91,6.57h1.88Z"/>
      <path class="cls-3" d="M176.03,19.11h3.1c2.17,0,3.1,1.01,3.1,3.06v.82c0,1.37-.44,2.24-1.37,2.62v.04c1.04,.32,1.39,1.31,1.39,2.81v2.34c0,.65,.02,1.12,.23,1.61h-2.13c-.11-.34-.19-.55-.19-1.63v-2.43c0-1.23-.36-1.63-1.31-1.63h-.72v5.7h-2.09v-13.3Zm2.85,5.7c.78,0,1.25-.34,1.25-1.41v-1.03c0-.95-.32-1.37-1.06-1.37h-.95v3.8h.76Z"/>
      <path class="cls-3" d="M183.69,19.11h5.7v1.9h-3.61v3.51h2.87v1.9h-2.87v4.08h3.61v1.9h-5.7v-13.3Z"/>
      <path class="cls-3" d="M192.2,19.11h2.83l2.17,13.3h-2.09l-.38-2.64v.04h-2.37l-.38,2.6h-1.94l2.17-13.3Zm2.28,8.89l-.93-6.57h-.04l-.91,6.57h1.88Z"/>
      <path class="cls-3" d="M198.03,29.33v-7.14c0-2.05,1.06-3.27,3.08-3.27s3.08,1.22,3.08,3.27v1.41h-1.98v-1.54c0-.87-.42-1.23-1.04-1.23s-1.04,.36-1.04,1.23v7.43c0,.87,.42,1.22,1.04,1.22s1.04-.34,1.04-1.22v-2.03h1.98v1.88c0,2.05-1.06,3.27-3.08,3.27s-3.08-1.22-3.08-3.27Z"/>
      <path class="cls-3" d="M205.44,19.11h2.09v5.41h2.24v-5.41h2.09v13.3h-2.09v-5.98h-2.24v5.98h-2.09v-13.3Z"/>
      <path class="cls-3" d="M213.42,19.11h5.7v1.9h-3.61v3.51h2.87v1.9h-2.87v4.08h3.61v1.9h-5.7v-13.3Z"/>
      <path class="cls-3" d="M220.32,19.11h3.19c2.09,0,3.12,1.16,3.12,3.29v6.73c0,2.13-1.03,3.29-3.12,3.29h-3.19v-13.3Zm3.15,11.4c.67,0,1.06-.34,1.06-1.29v-6.92c0-.95-.4-1.29-1.06-1.29h-1.06v9.5h1.06Z"/>
      <path class="cls-3" d="M235.25,31.93c-2.53-.51-3.81-2.46-3.81-5.28v-1.47h3.33v1.7c0,1.38,.7,1.95,1.82,1.95s1.82-.58,1.82-2.02c0-1.6-.64-2.75-3.01-4.61-2.88-2.27-3.87-4.06-3.87-6.5,0-2.72,1.25-4.64,3.71-5.18v-1.95h2.88v1.95c2.5,.51,3.78,2.43,3.78,5.25v.64h-3.33v-.86c0-1.38-.64-1.98-1.76-1.98s-1.76,.61-1.76,1.92c0,1.47,.64,2.59,3.01,4.48,2.88,2.3,3.87,4.06,3.87,6.62,0,2.88-1.31,4.83-3.81,5.34v2.24h-2.88v-2.24Z"/>
      <path class="cls-3" d="M244.72,29.98c0-3.2,.9-5.15,3.52-7.9,2.69-2.85,3.46-4.54,3.46-6.62s-.7-2.56-1.82-2.56-1.82,.61-1.82,2.21v2.4h-3.33v-2.18c0-3.58,1.79-5.63,5.25-5.63s5.25,2.05,5.25,5.63c0,2.66-1.09,5.02-4.35,8.48-2.11,2.24-2.66,3.36-2.66,4.93v.48h6.69v3.2h-10.17v-2.43Z"/>
      <path class="cls-3" d="M257.71,27.1V15.33c0-3.58,1.89-5.63,5.34-5.63s5.34,2.05,5.34,5.63v11.78c0,3.58-1.89,5.63-5.34,5.63s-5.34-2.05-5.34-5.63Zm7.17,.22V15.1c0-1.6-.7-2.21-1.82-2.21s-1.82,.61-1.82,2.21v12.22c0,1.6,.7,2.21,1.82,2.21s1.82-.61,1.82-2.21Z"/>
      <path class="cls-3" d="M270.99,27.1V15.52c0-3.78,1.73-5.82,5.38-5.82,3.46,0,5.25,2.05,5.25,5.63v.42h-3.33v-.64c0-1.6-.7-2.21-1.82-2.21-1.25,0-1.95,.61-1.95,2.75v4.29h.06c.61-1.28,1.63-1.95,3.2-1.95,2.59,0,3.9,1.82,3.9,5.12v4c0,3.58-1.89,5.63-5.34,5.63s-5.34-2.05-5.34-5.63Zm7.17,.26v-3.97c0-1.5-.61-2.21-1.82-2.21s-1.82,.7-1.82,2.21v3.97c0,1.47,.61,2.18,1.82,2.18s1.82-.7,1.82-2.18Z"/>
      <path class="cls-3" d="M288.24,14.21h4.32c2.96,0,4.24,1.38,4.24,4.19v.73c0,1.87-.57,3.04-1.85,3.56v.05c1.53,.52,2.13,1.87,2.13,3.8v1.56c0,2.81-1.48,4.32-4.34,4.32h-4.5V14.21Zm3.98,7.41c1.07,0,1.72-.47,1.72-1.92v-1.01c0-1.3-.44-1.87-1.46-1.87h-1.38v4.81h1.12Zm.52,8.19c.96,0,1.48-.44,1.48-1.79v-1.59c0-1.69-.55-2.21-1.85-2.21h-1.27v5.59h1.64Z"/>
      <path class="cls-3" d="M298.74,14.21h2.86v18.2h-2.86V14.21Z"/>
      <path class="cls-3" d="M303.74,14.21h2.86v15.6h4.71v2.6h-7.57V14.21Z"/>
      <path class="cls-3" d="M312.68,14.21h2.86v15.6h4.71v2.6h-7.57V14.21Z"/>
      <path class="cls-3" d="M321.62,14.21h2.86v18.2h-2.86V14.21Z"/>
      <path class="cls-3" d="M326.41,28.1v-9.57c0-2.91,1.53-4.58,4.34-4.58s4.34,1.66,4.34,4.58v9.57c0,2.91-1.53,4.58-4.34,4.58s-4.34-1.66-4.34-4.58Zm5.82,.18v-9.93c0-1.3-.57-1.79-1.48-1.79s-1.48,.49-1.48,1.79v9.93c0,1.3,.57,1.79,1.48,1.79s1.48-.49,1.48-1.79Z"/>
      <path class="cls-3" d="M337.01,14.21h3.59l2.78,10.89h.05V14.21h2.55v18.2h-2.94l-3.43-13.29h-.05v13.29h-2.55V14.21Z"/>
      <path class="cls-3" d="M351.99,19.11h2.09v13.3h-2.09v-13.3Z"/>
      <path class="cls-3" d="M355.64,19.11h2.62l2.03,7.96h.04v-7.96h1.86v13.3h-2.15l-2.51-9.71h-.04v9.71h-1.86v-13.3Z"/>
      <path class="cls-3" d="M366.75,30.97c0-1.9,.53-3.06,2.09-4.69,1.6-1.69,2.05-2.7,2.05-3.93s-.42-1.52-1.08-1.52-1.08,.36-1.08,1.31v1.42h-1.98v-1.29c0-2.13,1.06-3.34,3.12-3.34s3.12,1.22,3.12,3.34c0,1.58-.65,2.98-2.58,5.03-1.25,1.33-1.58,1.99-1.58,2.93v.28h3.97v1.9h-6.04v-1.44Z"/>
      <path class="cls-3" d="M374.24,29.26v-6.99c0-2.13,1.12-3.34,3.17-3.34s3.17,1.22,3.17,3.34v6.99c0,2.13-1.12,3.34-3.17,3.34s-3.17-1.22-3.17-3.34Zm4.25,.13v-7.26c0-.95-.42-1.31-1.08-1.31s-1.08,.36-1.08,1.31v7.26c0,.95,.42,1.31,1.08,1.31s1.08-.36,1.08-1.31Z"/>
      <path class="cls-3" d="M381.95,30.97c0-1.9,.53-3.06,2.09-4.69,1.6-1.69,2.05-2.7,2.05-3.93s-.42-1.52-1.08-1.52-1.08,.36-1.08,1.31v1.42h-1.98v-1.29c0-2.13,1.06-3.34,3.12-3.34s3.12,1.22,3.12,3.34c0,1.58-.65,2.98-2.58,5.03-1.25,1.33-1.58,1.99-1.58,2.93v.28h3.97v1.9h-6.04v-1.44Z"/>
      <path class="cls-3" d="M389.55,30.97c0-1.9,.53-3.06,2.09-4.69,1.6-1.69,2.05-2.7,2.05-3.93s-.42-1.52-1.08-1.52-1.08,.36-1.08,1.31v1.42h-1.98v-1.29c0-2.13,1.06-3.34,3.12-3.34s3.12,1.22,3.12,3.34c0,1.58-.65,2.98-2.58,5.03-1.25,1.33-1.58,1.99-1.58,2.93v.28h3.97v1.9h-6.04v-1.44Z"/>
      <path class="cls-3" d="M397.87,32.41h-.68v-2.01h2.01v1.8l-1.04,2.49h-.97l.68-2.28Z"/>
      <path class="cls-3" d="M403.73,29.26v-10.14h2.09v10.3c0,.95,.4,1.29,1.06,1.29s1.06-.34,1.06-1.29v-10.3h2.01v10.14c0,2.13-1.06,3.34-3.12,3.34s-3.12-1.22-3.12-3.34Z"/>
      <path class="cls-3" d="M411.44,19.11h3.08c2.09,0,3.12,1.16,3.12,3.29v1.31c0,2.13-1.03,3.29-3.12,3.29h-.99v5.41h-2.09v-13.3Zm3.08,5.98c.67,0,1.03-.3,1.03-1.25v-1.58c0-.95-.36-1.25-1.03-1.25h-.99v4.08h.99Z"/>
      <path class="cls-3" d="M424.74,22.27h-2.18v-1.48c1.77,0,2.39-.38,2.87-1.67h1.41v13.3h-2.09v-10.14Z"/>
      <path class="cls-3" d="M429.36,29.26v-1.04h1.98v1.2c0,.95,.42,1.29,1.08,1.29s1.08-.34,1.08-1.29v-2.98c0-.95-.42-1.31-1.08-1.31s-1.08,.36-1.08,1.31v.11h-1.98l.38-7.43h5.51v1.9h-3.65l-.17,3.17h.04c.38-.63,.97-.97,1.8-.97,1.54,0,2.32,1.08,2.32,3.04v3c0,2.13-1.06,3.34-3.12,3.34s-3.12-1.22-3.12-3.34Z"/>
      <path class="cls-3" d="M437.01,30.4h2.01v2.01h-2.01v-2.01Z"/>
      <path class="cls-3" d="M440.43,29.3v-1.08h1.98v1.18c0,.95,.42,1.31,1.08,1.31s1.08-.32,1.08-1.5v-1.08c0-1.23-.42-1.69-1.37-1.69h-.7v-1.9h.76c.78,0,1.25-.34,1.25-1.41v-.97c0-.95-.44-1.33-1.04-1.33s-1.01,.36-1.01,1.23v.87h-1.98v-.7c0-2.13,1.06-3.31,3.06-3.31s3.06,1.16,3.06,3.29v.48c0,1.42-.46,2.3-1.48,2.68v.04c1.12,.42,1.54,1.39,1.54,2.74v1.18c0,2.13-1.06,3.29-3.12,3.29s-3.12-1.18-3.12-3.31Z"/>
      <path class="cls-3" d="M448.07,24.38v-3.32c0-1.37,.7-2.13,2.01-2.13s2.01,.76,2.01,2.13v3.32c0,1.37-.7,2.13-2.01,2.13s-2.01-.76-2.01-2.13Zm2.7,.09v-3.51c0-.59-.27-.84-.68-.84s-.68,.25-.68,.84v3.51c0,.59,.25,.84,.68,.84s.68-.25,.68-.84Zm4.14-5.36h1.33l-5.15,13.3h-1.33l5.15-13.3Zm-1.01,11.36v-3.32c0-1.37,.7-2.13,2.01-2.13s2.01,.76,2.01,2.13v3.32c0,1.37-.7,2.13-2.01,2.13s-2.01-.76-2.01-2.13Zm2.7,.09v-3.51c0-.59-.27-.84-.68-.84s-.68,.25-.68,.84v3.51c0,.59,.25,.84,.68,.84s.68-.25,.68-.84Z"/>
      <path class="cls-3" d="M462.42,19.11h5.53v1.9h-3.44v3.7h2.7v1.9h-2.7v5.79h-2.09v-13.3Z"/>
      <path class="cls-3" d="M468.95,19.11h3.1c2.17,0,3.1,1.01,3.1,3.06v.82c0,1.37-.44,2.24-1.37,2.62v.04c1.04,.32,1.39,1.31,1.39,2.81v2.34c0,.65,.02,1.12,.23,1.61h-2.13c-.11-.34-.19-.55-.19-1.63v-2.43c0-1.23-.36-1.63-1.31-1.63h-.72v5.7h-2.09v-13.3Zm2.85,5.7c.78,0,1.25-.34,1.25-1.41v-1.03c0-.95-.32-1.37-1.06-1.37h-.95v3.8h.76Z"/>
      <path class="cls-3" d="M476.46,29.26v-6.99c0-2.13,1.12-3.34,3.17-3.34s3.17,1.22,3.17,3.34v6.99c0,2.13-1.12,3.34-3.17,3.34s-3.17-1.22-3.17-3.34Zm4.25,.13v-7.26c0-.95-.42-1.31-1.08-1.31s-1.08,.36-1.08,1.31v7.26c0,.95,.42,1.31,1.08,1.31s1.08-.36,1.08-1.31Z"/>
      <path class="cls-3" d="M484.21,19.11h2.98l1.33,9.52h.04l1.33-9.52h2.98v13.3h-1.98v-10.07h-.04l-1.52,10.07h-1.75l-1.52-10.07h-.04v10.07h-1.82v-13.3Z"/>
      <path class="cls-3" d="M497.43,30.97c0-1.9,.53-3.06,2.09-4.69,1.6-1.69,2.05-2.7,2.05-3.93s-.42-1.52-1.08-1.52-1.08,.36-1.08,1.31v1.42h-1.98v-1.29c0-2.13,1.06-3.34,3.12-3.34s3.12,1.22,3.12,3.34c0,1.58-.65,2.98-2.58,5.03-1.25,1.33-1.58,1.99-1.58,2.93v.28h3.97v1.9h-6.04v-1.44Z"/>
      <path class="cls-3" d="M504.92,29.26v-6.99c0-2.13,1.12-3.34,3.17-3.34s3.17,1.22,3.17,3.34v6.99c0,2.13-1.12,3.34-3.17,3.34s-3.17-1.22-3.17-3.34Zm4.25,.13v-7.26c0-.95-.42-1.31-1.08-1.31s-1.08,.36-1.08,1.31v7.26c0,.95,.42,1.31,1.08,1.31s1.08-.36,1.08-1.31Z"/>
      <path class="cls-3" d="M512.63,30.97c0-1.9,.53-3.06,2.09-4.69,1.6-1.69,2.05-2.7,2.05-3.93s-.42-1.52-1.08-1.52-1.08,.36-1.08,1.31v1.42h-1.98v-1.29c0-2.13,1.06-3.34,3.12-3.34s3.12,1.22,3.12,3.34c0,1.58-.65,2.98-2.58,5.03-1.25,1.33-1.58,1.99-1.58,2.93v.28h3.97v1.9h-6.04v-1.44Z"/>
      <path class="cls-3" d="M523.2,22.27h-2.18v-1.48c1.77,0,2.39-.38,2.87-1.67h1.41v13.3h-2.09v-10.14Z"/>
    </g>
    <g>
      <g>
        <path class="cls-6" d="M53.78,105.05c-28.27,0-51.28-23-51.28-51.28S25.5,2.5,53.78,2.5s51.28,23,51.28,51.28-23,51.28-51.28,51.28Z"/>
        <path class="cls-1" d="M53.78,5c26.94,0,48.78,21.84,48.78,48.78s-21.84,48.78-48.78,48.78S5,80.72,5,53.78,26.84,5,53.78,5m0-5C24.12,0,0,24.12,0,53.78s24.12,53.78,53.78,53.78,53.78-24.12,53.78-53.78S83.43,0,53.78,0h0Z"/>
      </g>
      <g>
        <g>
          <path class="cls-3" d="M97.06,56.66c-.42-.49-1.1-.54-1.58-.12l-2.91,2.51C97.16,24.74,58.26,2.42,31.1,22.44c-.49,.42-.65,1.09-.23,1.57h0c.42,.49,1.1,.54,1.57,.23,25.72-18.99,62.74,2.62,57.83,35.08l-3.03-3.52c-.42-.49-1.1-.54-1.58-.12s-.54,1.1-.12,1.58l4.49,5.33c.21,.24,.43,.37,.77,.4h0c.34,.03,.57-.07,.82-.28l5.33-4.49c.49-.42,.54-1.1,.12-1.58Z"/>
          <path class="cls-3" d="M10.5,50.9c.42,.49,1.1,.54,1.58,.12l2.91-2.51c-4.6,34.31,34.3,56.62,61.46,36.6,.49-.42,.65-1.09,.23-1.57h0c-.42-.49-1.1-.54-1.57-.23-25.72,18.99-62.74-2.62-57.83-35.08l3.03,3.52c.42,.49,1.1,.54,1.58,.12s.54-1.1,.12-1.58l-4.49-5.33c-.21-.24-.43-.37-.77-.4h0c-.34-.03-.57,.07-.82,.28l-5.33,4.49c-.49,.42-.54,1.1-.12,1.58Z"/>
        </g>
        <g id="Layer_4" data-name="Layer 4">
          <path class="cls-5" d="M55.2,28.38v11h10.34c-.87-3.58-2.38-7.01-4.48-10.16-1.91-.47-3.88-.75-5.86-.85Z"/>
          <path class="cls-5" d="M41.27,64.1h11.08v-9.8h-12.02c.03,3.28,.35,6.56,.94,9.8Z"/>
          <path class="cls-5" d="M68.44,39.43h8.81c-3.04-3.94-7.26-7.04-12.18-8.93,1.51,2.85,2.64,5.85,3.38,8.93Z"/>
          <path class="cls-5" d="M69.01,41.97c.62,3.24,.97,6.51,1.05,9.8h12.08c-.3-3.43-1.38-6.76-3.18-9.8h-9.96Z"/>
          <path class="cls-5" d="M66.13,41.97h-10.93v9.8h12.01c-.08-3.29-.44-6.56-1.08-9.8Z"/>
          <path class="cls-5" d="M25.33,54.31c.07,3.38,.9,6.71,2.44,9.8h10.67c-.57-3.24-.87-6.52-.9-9.8h-12.21Z"/>
          <path class="cls-5" d="M38.91,66.65h-9.68c3.16,4.79,7.99,8.53,13.75,10.66-1.9-3.37-3.27-6.95-4.07-10.66Z"/>
          <path class="cls-5" d="M52.35,79.17v-12.52h-10.55c.88,4.22,2.68,8.24,5.3,11.84,1.72,.37,3.48,.6,5.25,.68Z"/>
          <path class="cls-5" d="M40.94,44.79c-.34,2.31-.54,4.64-.59,6.97h12.01v-9.8h-8.37c-.8,1.11-1.84,2.07-3.05,2.83Z"/>
          <path class="cls-5" d="M45.31,39.43h7.04v-11.05c-1.98,.1-3.94,.38-5.86,.85-.65,.93-1.24,1.91-1.74,2.91,.7,1.34,1.06,2.8,1.07,4.29,0,1.02-.17,2.03-.51,3.01Z"/>
          <path class="cls-5" d="M27.3,44.5c-1.03,2.33-1.66,4.78-1.88,7.27h12.09c0-1.93,.19-3.79,.4-5.61-3.62,1.08-7.61,.45-10.61-1.66Z"/>
          <path class="cls-4" d="M34.35,28.38c-4.97,0-9,3.59-9.01,8.02,0,4.44,4.02,8.04,8.98,8.04,4.97,0,9-3.59,9.01-8.02,.01-4.43-4-8.03-8.96-8.04,0,0-.02,0-.02,0Zm.73,11.86v.96c0,.11-.1,.19-.21,.19h-1.05c-.1,0-.18-.08-.19-.17v-.94c-1.09-.05-1.97-.8-2.09-1.77,0-.11,.08-.19,.2-.2,0,0,0,0,.01,0h1.07c.09,0,.17,.06,.19,.14,.07,.3,.37,.52,.72,.52h.94c.58,.04,1.11-.33,1.19-.85,.07-.52-.34-.99-.92-1.05-.05,0-.09,0-.14,0h-.75c-1.33,.02-2.46-.85-2.64-2.02-.11-1.21,.87-2.28,2.22-2.43v-.95c0-.11,.1-.19,.21-.19h1.05c.12,0,.21,.09,.21,.19h0v.95c1.07,.05,1.95,.77,2.07,1.72,0,.11-.08,.19-.2,.2,0,0,0,0-.01,0h-1.09c-.1,0-.18-.05-.2-.14-.07-.3-.37-.52-.72-.52h-.94c-.58-.04-1.11,.33-1.19,.85-.07,.52,.36,.99,.94,1.05,.04,0,.08,0,.11,0h.79c1.41,0,2.55,1.03,2.55,2.3,0,.07,0,.13-.01,.2-.15,1.01-1.01,1.81-2.13,1.98v-.02Z"/>
          <path class="cls-5" d="M80.24,63.05c1.24-2.79,1.91-5.75,1.98-8.74h-12.16c-.02,2.37-.19,4.74-.5,7.1,1.17-.35,2.4-.54,3.64-.54,2.55,0,5.03,.77,7.04,2.18Z"/>
          <path class="cls-5" d="M62.88,66.65h-7.68v12.52c1.77-.08,3.53-.31,5.25-.68,.83-1.07,1.56-2.2,2.18-3.39-.6-1.26-.91-2.62-.91-3.99,0-1.55,.4-3.08,1.16-4.47Z"/>
          <path class="cls-5" d="M66.49,62.81c.45-2.8,.69-5.63,.72-8.47h-12.02v9.8h9.65c.5-.49,1.05-.94,1.65-1.33Z"/>
          <path class="cls-4" d="M73.2,63.09c-4.97,.01-8.99,3.62-8.97,8.05,.01,4.44,4.05,8.02,9.02,8.01,4.96-.01,8.97-3.6,8.97-8.03,0-4.44-4.03-8.03-9-8.03,0,0-.02,0-.02,0Zm.72,11.85v.96c0,.11-.1,.19-.21,.19h-1.05c-.12,0-.21-.09-.21-.19h0v-.96c-1.07-.05-1.95-.78-2.07-1.74,0-.11,.08-.19,.2-.2,0,0,0,0,.01,0h1.05c.1,0,.18,.05,.2,.14,.07,.3,.37,.52,.72,.52h.94c.58,.04,1.11-.33,1.19-.85,.07-.52-.34-.99-.92-1.05-.05,0-.09,0-.14,0h-.69c-1.33,.02-2.47-.85-2.64-2.03-.13-1.22,.84-2.31,2.19-2.48v-.95c0-.11,.1-.19,.21-.19h1.05c.12,0,.21,.09,.21,.19h0v.94c1.08,.06,1.95,.81,2.06,1.77,0,.11-.08,.19-.2,.2,0,0,0,0-.01,0h-1.05c-.1,0-.18-.05-.2-.14-.09-.3-.41-.5-.76-.48h-.94c-.58-.04-1.11,.33-1.19,.85-.07,.52,.34,.99,.92,1.05,.05,0,.09,0,.14,0h.79c1.41,0,2.55,1.03,2.55,2.3,0,.07,0,.13-.01,.2-.17,1-1.03,1.78-2.15,1.95Z"/>
        </g>
      </g>
    </g>
    <rect class="cls-7" x="368.88" y="51.84" width="160.38" height="35.66"/>
    <g>
      <polyline class="cls-10" points="284.33 50.85 284.33 69.76 362.01 69.76"/>
      <circle class="cls-3" cx="361.91" cy="69.76" r="1.88"/>
    </g>
    <g>
      <path class="cls-3" d="M376.85,58.47h1.73l.77,5.51h.02l.77-5.51h1.73v7.7h-1.14v-5.83h-.02l-.88,5.83h-1.01l-.88-5.83h-.02v5.83h-1.06v-7.7Z"/>
      <path class="cls-3" d="M383.92,58.47h1.64l1.25,7.7h-1.21l-.22-1.53v.02h-1.38l-.22,1.51h-1.12l1.25-7.7Zm1.32,5.15l-.54-3.81h-.02l-.53,3.81h1.09Z"/>
      <path class="cls-3" d="M387.61,58.47h1.21v7.7h-1.21v-7.7Z"/>
      <path class="cls-3" d="M389.95,58.47h1.52l1.18,4.61h.02v-4.61h1.08v7.7h-1.24l-1.45-5.62h-.02v5.62h-1.08v-7.7Z"/>
      <path class="cls-3" d="M394.86,58.47h1.21v6.6h1.99v1.1h-3.2v-7.7Z"/>
      <path class="cls-3" d="M399.01,62.89l-1.46-4.42h1.29l.83,2.83h.02l.83-2.83h1.18l-1.46,4.42v3.28h-1.21v-3.28Z"/>
      <path class="cls-3" d="M404.35,64.34v-4.05c0-1.23,.65-1.94,1.84-1.94s1.84,.7,1.84,1.94v4.05c0,1.23-.65,1.94-1.84,1.94s-1.84-.7-1.84-1.94Zm2.46,.08v-4.2c0-.55-.24-.76-.63-.76s-.63,.21-.63,.76v4.2c0,.55,.24,.76,.63,.76s.63-.21,.63-.76Z"/>
      <path class="cls-3" d="M408.77,58.47h1.17l.54,5.92h.02l.57-5.92h1.32l.57,5.92h.02l.54-5.92h1.04l-.78,7.7h-1.51l-.55-5.19h-.02l-.55,5.19h-1.61l-.78-7.7Z"/>
      <path class="cls-3" d="M415.4,58.47h1.21v7.7h-1.21v-7.7Z"/>
      <path class="cls-3" d="M417.73,58.47h1.52l1.18,4.61h.02v-4.61h1.08v7.7h-1.24l-1.45-5.62h-.02v5.62h-1.08v-7.7Z"/>
      <path class="cls-3" d="M422.56,64.34v-4.05c0-1.23,.62-1.94,1.8-1.94s1.8,.7,1.8,1.94v.66h-1.14v-.74c0-.55-.24-.76-.63-.76s-.63,.21-.63,.76v4.21c0,.55,.24,.75,.63,.75s.63-.2,.63-.75v-1.51h-.6v-1.1h1.75v2.52c0,1.23-.62,1.94-1.8,1.94s-1.8-.7-1.8-1.94Z"/>
      <path class="cls-3" d="M430.1,59.57h-1.27v-1.1h3.74v1.1h-1.27v6.6h-1.21v-6.6Z"/>
      <path class="cls-3" d="M433.24,64.34v-4.05c0-1.23,.65-1.94,1.84-1.94s1.84,.7,1.84,1.94v4.05c0,1.23-.65,1.94-1.84,1.94s-1.84-.7-1.84-1.94Zm2.46,.08v-4.2c0-.55-.24-.76-.63-.76s-.63,.21-.63,.76v4.2c0,.55,.24,.76,.63,.76s.63-.21,.63-.76Z"/>
      <path class="cls-3" d="M439.72,64.34v-.44h1.14v.53c0,.55,.24,.75,.63,.75s.63-.2,.63-.77c0-.64-.24-1.04-1.03-1.74-1.01-.89-1.34-1.52-1.34-2.4,0-1.21,.63-1.91,1.8-1.91s1.76,.7,1.76,1.94v.32h-1.14v-.4c0-.55-.22-.76-.61-.76s-.6,.21-.6,.74c0,.56,.25,.97,1.04,1.66,1.01,.89,1.33,1.51,1.33,2.46,0,1.25-.64,1.96-1.83,1.96s-1.78-.7-1.78-1.94Z"/>
      <path class="cls-3" d="M444.24,58.47h1.78c1.21,0,1.8,.67,1.8,1.9v.76c0,1.23-.59,1.9-1.8,1.9h-.57v3.14h-1.21v-7.7Zm1.78,3.47c.38,0,.59-.18,.59-.73v-.91c0-.55-.21-.73-.59-.73h-.57v2.37h.57Z"/>
      <path class="cls-3" d="M448.71,58.47h3.3v1.1h-2.09v2.04h1.66v1.1h-1.66v2.37h2.09v1.1h-3.3v-7.7Z"/>
      <path class="cls-3" d="M452.92,58.47h1.52l1.18,4.61h.02v-4.61h1.08v7.7h-1.24l-1.45-5.62h-.02v5.62h-1.08v-7.7Z"/>
      <path class="cls-3" d="M457.84,58.47h1.85c1.21,0,1.8,.67,1.8,1.9v3.89c0,1.23-.59,1.9-1.8,1.9h-1.85v-7.7Zm1.83,6.6c.38,0,.62-.2,.62-.75v-4c0-.55-.23-.75-.62-.75h-.62v5.5h.62Z"/>
      <path class="cls-3" d="M462.52,58.47h1.21v7.7h-1.21v-7.7Z"/>
      <path class="cls-3" d="M464.86,58.47h1.52l1.18,4.61h.02v-4.61h1.08v7.7h-1.24l-1.45-5.62h-.02v5.62h-1.08v-7.7Z"/>
      <path class="cls-3" d="M469.69,64.34v-4.05c0-1.23,.62-1.94,1.8-1.94s1.8,.7,1.8,1.94v.66h-1.14v-.74c0-.55-.24-.76-.63-.76s-.63,.21-.63,.76v4.21c0,.55,.24,.75,.63,.75s.63-.2,.63-.75v-1.51h-.6v-1.1h1.75v2.52c0,1.23-.62,1.94-1.8,1.94s-1.8-.7-1.8-1.94Z"/>
      <path class="cls-3" d="M476.19,64.34v-4.05c0-1.23,.65-1.94,1.84-1.94s1.84,.7,1.84,1.94v4.05c0,1.23-.65,1.94-1.84,1.94s-1.84-.7-1.84-1.94Zm2.46,.08v-4.2c0-.55-.24-.76-.63-.76s-.63,.21-.63,.76v4.2c0,.55,.24,.76,.63,.76s.63-.21,.63-.76Z"/>
      <path class="cls-3" d="M480.89,58.47h1.52l1.18,4.61h.02v-4.61h1.08v7.7h-1.24l-1.45-5.62h-.02v5.62h-1.08v-7.7Z"/>
      <path class="cls-3" d="M487.79,58.47h1.79c1.25,0,1.79,.58,1.79,1.77v.47c0,.79-.25,1.3-.79,1.52v.02c.61,.19,.8,.76,.8,1.63v1.35c0,.37,.01,.65,.13,.94h-1.23c-.07-.2-.11-.32-.11-.95v-1.41c0-.71-.21-.95-.76-.95h-.42v3.3h-1.21v-7.7Zm1.65,3.3c.45,0,.73-.2,.73-.81v-.59c0-.55-.19-.79-.62-.79h-.55v2.2h.44Z"/>
      <path class="cls-3" d="M492.44,58.47h3.3v1.1h-2.09v2.04h1.66v1.1h-1.66v2.37h2.09v1.1h-3.3v-7.7Z"/>
      <path class="cls-3" d="M496.66,58.47h3.2v1.1h-1.99v2.15h1.56v1.1h-1.56v3.36h-1.21v-7.7Z"/>
      <path class="cls-3" d="M500.62,64.34v-5.88h1.21v5.96c0,.55,.23,.75,.62,.75s.62-.2,.62-.75v-5.96h1.17v5.88c0,1.23-.62,1.94-1.8,1.94s-1.8-.7-1.8-1.94Z"/>
      <path class="cls-3" d="M505.22,64.34v-4.05c0-1.23,.62-1.94,1.8-1.94s1.8,.7,1.8,1.94v.66h-1.14v-.74c0-.55-.24-.76-.63-.76s-.63,.21-.63,.76v4.21c0,.55,.24,.75,.63,.75s.63-.2,.63-.75v-1.51h-.6v-1.1h1.75v2.52c0,1.23-.62,1.94-1.8,1.94s-1.8-.7-1.8-1.94Z"/>
      <path class="cls-3" d="M509.82,58.47h3.3v1.1h-2.09v2.04h1.66v1.1h-1.66v2.37h2.09v1.1h-3.3v-7.7Z"/>
      <path class="cls-3" d="M514.04,58.47h3.3v1.1h-2.09v2.04h1.66v1.1h-1.66v2.37h2.09v1.1h-3.3v-7.7Z"/>
      <path class="cls-3" d="M518.06,64.34v-.44h1.14v.53c0,.55,.24,.75,.63,.75s.63-.2,.63-.77c0-.64-.24-1.04-1.03-1.74-1.01-.89-1.34-1.52-1.34-2.4,0-1.21,.63-1.91,1.8-1.91s1.76,.7,1.76,1.94v.32h-1.14v-.4c0-.55-.22-.76-.61-.76s-.6,.21-.6,.74c0,.56,.25,.97,1.04,1.66,1.01,.89,1.33,1.51,1.33,2.46,0,1.25-.64,1.96-1.83,1.96s-1.78-.7-1.78-1.94Z"/>
      <path class="cls-3" d="M376.85,72.47h1.21v7.7h-1.21v-7.7Z"/>
      <path class="cls-3" d="M379.18,72.47h1.52l1.18,4.61h.02v-4.61h1.08v7.7h-1.24l-1.45-5.62h-.02v5.62h-1.08v-7.7Z"/>
      <path class="cls-3" d="M386.07,72.47h1.85c1.21,0,1.8,.67,1.8,1.9v3.89c0,1.23-.59,1.9-1.8,1.9h-1.85v-7.7Zm1.83,6.6c.38,0,.62-.2,.62-.75v-4c0-.55-.23-.75-.62-.75h-.62v5.5h.62Z"/>
      <path class="cls-3" d="M390.67,78.34v-4.05c0-1.23,.65-1.94,1.84-1.94s1.84,.7,1.84,1.94v4.05c0,1.23-.65,1.94-1.84,1.94s-1.84-.7-1.84-1.94Zm2.46,.08v-4.2c0-.55-.24-.76-.63-.76s-.63,.21-.63,.76v4.2c0,.55,.24,.76,.63,.76s.63-.21,.63-.76Z"/>
      <path class="cls-3" d="M395.38,72.47h1.52l1.18,4.61h.02v-4.61h1.08v7.7h-1.24l-1.45-5.62h-.02v5.62h-1.08v-7.7Z"/>
      <path class="cls-3" d="M400.21,78.34v-4.05c0-1.23,.65-1.94,1.84-1.94s1.84,.7,1.84,1.94v4.05c0,1.23-.65,1.94-1.84,1.94s-1.84-.7-1.84-1.94Zm2.46,.08v-4.2c0-.55-.24-.76-.63-.76s-.63,.21-.63,.76v4.2c0,.55,.24,.76,.63,.76s.63-.21,.63-.76Z"/>
      <path class="cls-3" d="M404.92,72.47h1.79c1.25,0,1.79,.58,1.79,1.77v.47c0,.79-.25,1.3-.79,1.52v.02c.61,.19,.8,.76,.8,1.63v1.35c0,.37,.01,.65,.13,.94h-1.23c-.07-.2-.11-.32-.11-.95v-1.41c0-.71-.21-.95-.76-.95h-.42v3.3h-1.21v-7.7Zm1.65,3.3c.45,0,.73-.2,.73-.81v-.59c0-.55-.19-.79-.62-.79h-.55v2.2h.44Z"/>
      <path class="cls-3" d="M411.47,78.39v-4.14c0-1.19,.62-1.89,1.78-1.89s1.78,.7,1.78,1.89v.81h-1.14v-.89c0-.51-.24-.71-.6-.71s-.61,.21-.61,.71v4.3c0,.51,.24,.7,.61,.7s.6-.2,.6-.7v-1.18h1.14v1.09c0,1.19-.62,1.89-1.78,1.89s-1.78-.7-1.78-1.89Z"/>
      <path class="cls-3" d="M415.92,78.34v-4.05c0-1.23,.65-1.94,1.84-1.94s1.84,.7,1.84,1.94v4.05c0,1.23-.65,1.94-1.84,1.94s-1.84-.7-1.84-1.94Zm2.46,.08v-4.2c0-.55-.24-.76-.63-.76s-.63,.21-.63,.76v4.2c0,.55,.24,.76,.63,.76s.63-.21,.63-.76Z"/>
      <path class="cls-3" d="M420.58,78.34v-5.88h1.21v5.96c0,.55,.23,.75,.62,.75s.62-.2,.62-.75v-5.96h1.17v5.88c0,1.23-.62,1.94-1.8,1.94s-1.8-.7-1.8-1.94Z"/>
      <path class="cls-3" d="M425.27,72.47h1.52l1.18,4.61h.02v-4.61h1.08v7.7h-1.24l-1.45-5.62h-.02v5.62h-1.08v-7.7Z"/>
      <path class="cls-3" d="M431.13,73.57h-1.27v-1.1h3.74v1.1h-1.26v6.6h-1.21v-6.6Z"/>
      <path class="cls-3" d="M434.41,72.47h1.79c1.25,0,1.79,.58,1.79,1.77v.47c0,.79-.25,1.3-.79,1.52v.02c.61,.19,.8,.76,.8,1.63v1.35c0,.37,.01,.65,.13,.94h-1.23c-.07-.2-.11-.32-.11-.95v-1.41c0-.71-.21-.95-.76-.95h-.42v3.3h-1.21v-7.7Zm1.65,3.3c.45,0,.73-.2,.73-.81v-.59c0-.55-.19-.79-.62-.79h-.55v2.2h.44Z"/>
      <path class="cls-3" d="M439.06,72.47h1.21v7.7h-1.21v-7.7Z"/>
      <path class="cls-3" d="M441.39,72.47h3.3v1.1h-2.09v2.04h1.66v1.1h-1.66v2.37h2.09v1.1h-3.3v-7.7Z"/>
      <path class="cls-3" d="M445.42,78.34v-.44h1.14v.53c0,.55,.24,.75,.63,.75s.63-.2,.63-.77c0-.64-.24-1.04-1.03-1.74-1.01-.89-1.34-1.52-1.34-2.4,0-1.21,.63-1.91,1.8-1.91s1.76,.7,1.76,1.94v.32h-1.14v-.4c0-.55-.22-.76-.61-.76s-.6,.21-.6,.74c0,.56,.25,.97,1.04,1.66,1.01,.89,1.33,1.51,1.33,2.46,0,1.25-.64,1.96-1.83,1.96s-1.78-.7-1.78-1.94Z"/>
      <path class="cls-3" d="M452.85,72.47h1.64l1.25,7.7h-1.21l-.22-1.53v.02h-1.38l-.22,1.51h-1.12l1.25-7.7Zm1.32,5.15l-.54-3.81h-.02l-.53,3.81h1.09Z"/>
      <path class="cls-3" d="M456.55,72.47h1.52l1.18,4.61h.02v-4.61h1.08v7.7h-1.24l-1.45-5.62h-.02v5.62h-1.08v-7.7Z"/>
      <path class="cls-3" d="M461.47,72.47h1.85c1.21,0,1.8,.67,1.8,1.9v3.89c0,1.23-.59,1.9-1.8,1.9h-1.85v-7.7Zm1.83,6.6c.38,0,.62-.2,.62-.75v-4c0-.55-.23-.75-.62-.75h-.62v5.5h.62Z"/>
      <path class="cls-3" d="M469.07,72.47h1.64l1.25,7.7h-1.21l-.22-1.53v.02h-1.38l-.22,1.51h-1.12l1.25-7.7Zm1.32,5.15l-.54-3.81h-.02l-.53,3.81h1.09Z"/>
      <path class="cls-3" d="M472.77,72.47h1.21v7.7h-1.21v-7.7Z"/>
      <path class="cls-3" d="M475.1,72.47h1.85c1.21,0,1.8,.67,1.8,1.9v3.89c0,1.23-.59,1.9-1.8,1.9h-1.85v-7.7Zm1.83,6.6c.38,0,.62-.2,.62-.75v-4c0-.55-.23-.75-.62-.75h-.62v5.5h.62Z"/>
      <path class="cls-3" d="M482.71,73.57h-1.27v-1.1h3.74v1.1h-1.26v6.6h-1.21v-6.6Z"/>
      <path class="cls-3" d="M485.86,78.34v-4.05c0-1.23,.65-1.94,1.84-1.94s1.84,.7,1.84,1.94v4.05c0,1.23-.65,1.94-1.84,1.94s-1.84-.7-1.84-1.94Zm2.46,.08v-4.2c0-.55-.24-.76-.63-.76s-.63,.21-.63,.76v4.2c0,.55,.24,.76,.63,.76s.63-.21,.63-.76Z"/>
      <path class="cls-3" d="M492.5,78.34v-5.88h1.21v5.96c0,.55,.23,.75,.62,.75s.62-.2,.62-.75v-5.96h1.17v5.88c0,1.23-.62,1.94-1.8,1.94s-1.8-.7-1.8-1.94Z"/>
      <path class="cls-3" d="M497.18,72.47h1.21v3.25l1.54-3.25h1.21l-1.44,2.83,1.46,4.87h-1.26l-1.02-3.43-.48,.98v2.45h-1.21v-7.7Z"/>
      <path class="cls-3" d="M501.96,72.47h1.79c1.25,0,1.79,.58,1.79,1.77v.47c0,.79-.25,1.3-.79,1.52v.02c.61,.19,.8,.76,.8,1.63v1.35c0,.37,.01,.65,.13,.94h-1.23c-.07-.2-.11-.32-.11-.95v-1.41c0-.71-.21-.95-.76-.95h-.42v3.3h-1.21v-7.7Zm1.65,3.3c.45,0,.73-.2,.73-.81v-.59c0-.55-.19-.79-.62-.79h-.55v2.2h.44Z"/>
      <path class="cls-3" d="M507.55,72.47h1.64l1.25,7.7h-1.21l-.22-1.53v.02h-1.38l-.22,1.51h-1.12l1.25-7.7Zm1.32,5.15l-.54-3.81h-.02l-.53,3.81h1.09Z"/>
      <path class="cls-3" d="M511.24,72.47h1.21v7.7h-1.21v-7.7Z"/>
      <path class="cls-3" d="M513.58,72.47h1.52l1.18,4.61h.02v-4.61h1.08v7.7h-1.24l-1.45-5.62h-.02v5.62h-1.08v-7.7Z"/>
      <path class="cls-3" d="M518.49,72.47h3.3v1.1h-2.09v2.04h1.66v1.1h-1.66v2.37h2.09v1.1h-3.3v-7.7Z"/>
    </g>
    <rect class="cls-8" x="231.93" y="38.07" width="114.4" height="6.99"/>
    <g>
      <g>
        <g>
          <path class="cls-9" d="M119.32,135.33c-1.89,0-3.43-1.54-3.43-3.43v-13h-4c-.32,0-.61-.15-.8-.4s-.25-.58-.16-.88l1.65-5.61c-.42,.21-.88,.33-1.37,.33-.19,0-.38-.02-.57-.05-.06-.01-.13-.03-.19-.06-1.2-.48-1.9-1.71-1.71-2.99,.02-.22,.08-.49,.17-.74,.12-.43,3.41-11.75,3.91-13.15,.38-1.25,1.14-2.39,2.2-3.25,.96-.91,2.29-1.46,3.69-1.48h7.1c1.48,0,2.82,.53,3.85,1.48,.99,.85,1.77,1.98,2.24,3.23,.42,1.49,3.95,13.73,3.95,13.73,.02,.07,.03,.15,.04,.22,.01,.25,0,.51-.03,.77-.26,1.35-1.39,2.28-2.69,2.28h0c-.4-.02-.78-.12-1.11-.28l1.65,5.57c.09,.3,.03,.63-.16,.88-.19,.25-.49,.4-.8,.4h-4.02v13c-.12,1.78-1.49,3.16-3.21,3.27-.08,0-.16,0-.23,0-1.24,0-2.33-.66-2.94-1.66-.58,1.08-1.72,1.81-3.02,1.81Z"/>
          <path class="cls-3" d="M125.87,91.62c1.15,0,2.26,.43,3.11,1.22,.89,.77,1.57,1.75,1.98,2.85,.39,1.41,3.92,13.66,3.92,13.66,.01,.2,0,.4-.02,.59-.16,.81-.87,1.4-1.7,1.4,0,0-.01,0-.02,0-.79-.05-1.45-.61-1.63-1.38-.01-.03-.31-1.2-.71-2.54s-.82-2.71-1.28-4.17-1.01-3.31-1.68-5.62h-1.1l5.99,20.28h-5.02v14c-.08,1.22-1.05,2.19-2.27,2.27-.06,0-.11,0-.17,0-1.27,0-2.35-.99-2.43-2.28v-14h-1.1v14c0,1.34-1.09,2.43-2.43,2.43s-2.43-1.09-2.43-2.43v-14h-5l5.97-20.29h-1.04c-.67,2.33-1.26,4.16-1.66,5.62-.41,1.46-.78,2.84-1.22,4.17-.44,1.34-.76,2.16-.76,2.43-.25,.9-1.07,1.5-1.97,1.5-.13,0-.25-.01-.38-.04-.76-.31-1.22-1.1-1.1-1.92,.02-.19,.06-.38,.12-.56,0,0,3.42-11.76,3.91-13.14,.33-1.1,.99-2.08,1.88-2.8,.83-.79,1.93-1.24,3.08-1.26h7.09s.05,0,.07,0m0-2h-.1s-7.06,0-7.06,0c-1.66,.03-3.21,.65-4.4,1.75-1.17,.96-2.02,2.24-2.47,3.69-.54,1.56-3.51,11.78-3.92,13.16-.1,.3-.17,.61-.2,.93-.23,1.71,.72,3.35,2.33,4,.12,.05,.25,.09,.38,.11,.23,.04,.46,.07,.69,.07l-1.18,4c-.18,.6-.06,1.26,.32,1.76,.38,.5,.97,.8,1.6,.8h3v12c0,2.44,1.99,4.43,4.43,4.43,1.19,0,2.27-.47,3.06-1.23,.78,.67,1.8,1.08,2.9,1.08,.1,0,.2,0,.3-.01,2.21-.15,3.99-1.93,4.14-4.13,0-.04,0-.09,0-.13v-12h3.02c.63,0,1.22-.3,1.6-.8,.38-.51,.49-1.16,.32-1.76l-1.19-4.02c1.67-.15,3.04-1.37,3.36-3.01,0-.04,.01-.08,.02-.12,.04-.31,.05-.64,.04-.95,0-.15-.03-.3-.08-.45-.04-.12-3.53-12.25-3.92-13.64-.02-.06-.03-.11-.05-.16-.52-1.4-1.4-2.66-2.52-3.64-1.22-1.11-2.79-1.72-4.44-1.72h0Z"/>
        </g>
        <g>
          <path class="cls-9" d="M122.15,91.68c-1.07,0-2.13-.32-3.02-.92h-2.47c-.38,0-.73-.22-.9-.56s-.12-.76,.12-1.06c.61-.77,.93-1.74,.88-2.73v-.19c0-3.01,2.45-5.46,5.46-5.46s5.46,2.45,5.46,5.46v.14c-.06,1.04,.24,2.01,.84,2.78,.23,.3,.27,.71,.11,1.05s-.52,.56-.9,.56h-2.47c-.89,.6-1.94,.92-3.01,.92,0,0-.09,0-.09,0Z"/>
          <path class="cls-3" d="M122.21,81.76c2.46,0,4.46,2,4.46,4.46v.14c-.07,1.22,.3,2.43,1.05,3.4h-2.79c-.77,.6-1.71,.92-2.69,.92-.02,0-.05,0-.07,0h-.01c-.98,0-1.93-.32-2.7-.92h-2.79c.76-.96,1.15-2.17,1.1-3.4v-.14c0-2.46,2-4.46,4.46-4.46m0-2c-3.56,0-6.46,2.9-6.46,6.46v.14s0,.06,0,.09c.03,.74-.2,1.48-.67,2.06-.48,.6-.57,1.42-.23,2.11,.33,.69,1.03,1.13,1.8,1.13h2.18c1,.6,2.15,.92,3.31,.92h.08c1.16,0,2.31-.32,3.3-.92h2.18c.76,0,1.46-.43,1.79-1.12s.25-1.5-.21-2.1c-.45-.59-.68-1.32-.64-2.06,0-.04,0-.07,0-.11v-.14c0-3.56-2.9-6.46-6.46-6.46h0Z"/>
        </g>
        <g>
          <path class="cls-9" d="M148.71,114.66c-.38,0-.74-.2-.89-.57l-.03-.08c-.13-.31-.1-.67,.08-.95,.18-.28,.5-.45,.84-.45,.55,0,1.03,.45,1.03,1,0,.47-.33,.92-.8,1.02-.08,.02-.15,.02-.23,.02Z"/>
          <path class="cls-3" d="M148.74,113.62v.08l-.03-.08h.03m0-2h-.03c-.67,0-1.3,.34-1.67,.9-.37,.56-.43,1.27-.17,1.89l.03,.08c.32,.75,1.05,1.21,1.84,1.21,.13,0,.27-.01,.4-.04,.93-.19,1.6-1.01,1.6-1.96v-.08c0-1.1-.9-2-2-2h0Z"/>
        </g>
        <g>
          <path class="cls-9" d="M148.67,114.66c-.38,0-.74-.2-.89-.57l-.03-.08c-.13-.31-.1-.67,.08-.95,.18-.28,.5-.45,.84-.45,.55,0,1.03,.45,1.03,1,0,.47-.33,.92-.8,1.02-.08,.02-.15,.02-.23,.02Z"/>
          <path class="cls-3" d="M148.69,113.62v.08l-.03-.08h.03m0-2h-.03c-.67,0-1.3,.34-1.67,.9-.37,.56-.43,1.27-.17,1.89l.03,.08c.32,.75,1.05,1.21,1.84,1.21,.13,0,.27-.01,.4-.04,.93-.19,1.6-1.01,1.6-1.96v-.08c0-1.1-.9-2-2-2h0Z"/>
        </g>
      </g>
      <g>
        <path class="cls-9" d="M69.24,111.12c-.55,0-1-.44-1-1v-.12c0-.55,.45-1,1-1s1,.45,1,1v.11c0,.55-.45,1-1,1Z"/>
        <path class="cls-3" d="M69.24,110.01v.12h0v-.12m0-2c-1.1,0-2,.9-2,2v.11c0,1.1,.9,2.01,2,2.01s2-.89,2-1.99v-.12c0-1.1-.9-2-2-2h0Z"/>
      </g>
      <g>
        <path class="cls-9" d="M65.4,93.11c-.07,0-.13,0-.2-.02-.29-.06-.59-.09-.89-.09-.55,0-1-.45-1-1,0-.55,.45-1,1-1h0c.43,0,.86,.04,1.27,.13,.54,.11,.89,.64,.78,1.18-.1,.48-.51,.8-.98,.8Z"/>
        <path class="cls-3" d="M64.32,92c.36,0,.73,.04,1.08,.11-.36-.07-.72-.11-1.08-.11m0-2c-1.1,0-2,.89-2,1.99,0,1.1,.89,2,1.99,2.01,.23,0,.47,.02,.7,.07,.13,.03,.26,.04,.39,.04,.93,0,1.77-.66,1.96-1.61,.22-1.08-.49-2.14-1.57-2.35-.48-.1-.98-.15-1.47-.15h0Z"/>
      </g>
      <g>
        <path class="cls-9" d="M69.11,111.43c-.55,0-1-.42-1-.97v-.06c0-.55,.45-1,1-1s1,.45,1,1-.45,1.03-1,1.03Z"/>
        <path class="cls-3" d="M69.11,110.39v0m0-2c-1.1,0-2,.9-2,2v.06c0,1.1,.9,2,2,2s2-.9,2-2v-.06c0-1.1-.9-2-2-2h0Z"/>
      </g>
      <g>
        <path class="cls-9" d="M67.73,94.36c-.28,0-.56-.12-.76-.35-.05-.06-.11-.12-.17-.18-.41-.37-.43-1.01-.06-1.41,.2-.22,.47-.32,.74-.32,.24,0,.48,.09,.68,.26,.12,.11,.24,.23,.35,.36,.36,.42,.31,1.05-.11,1.41-.19,.16-.42,.24-.65,.24Z"/>
        <path class="cls-3" d="M67.47,93.09c.09,.08,.18,.18,.26,.27-.08-.1-.17-.19-.26-.27m0-2c-.54,0-1.08,.22-1.47,.65-.75,.81-.7,2.08,.12,2.83,.03,.03,.06,.06,.09,.09,.4,.47,.96,.71,1.53,.71,.46,0,.92-.16,1.29-.48,.84-.72,.94-1.98,.23-2.82-.13-.16-.28-.31-.43-.45-.38-.35-.87-.53-1.35-.53h0Z"/>
      </g>
      <g>
        <path class="cls-9" d="M67.1,93.85c-.19,0-.39-.06-.56-.18h-.01c-.11-.09-.23-.17-.35-.24-.48-.27-.65-.88-.37-1.36,.18-.32,.52-.5,.87-.5,.17,0,.34,.04,.5,.13,.17,.1,.33,.21,.49,.32,.45,.31,.57,.94,.26,1.4-.2,.28-.51,.43-.82,.43Z"/>
        <path class="cls-3" d="M66.68,92.57c.15,.09,.29,.18,.43,.28-.14-.1-.28-.19-.43-.28m0-2c-.69,0-1.37,.36-1.74,1.01-.55,.96-.22,2.18,.74,2.73,.1,.06,.19,.12,.29,.19,.35,.24,.74,.36,1.14,.36,.63,0,1.26-.3,1.65-.86,.63-.91,.4-2.15-.51-2.78-.19-.13-.38-.26-.58-.37-.31-.18-.65-.26-.99-.26h0Z"/>
      </g>
      <g>
        <path class="cls-9" d="M66.32,93.39c-.14,0-.28-.03-.42-.09-.14-.07-.29-.12-.44-.16-.53-.14-.86-.69-.72-1.22,.12-.45,.52-.75,.97-.75,.08,0,.17,.01,.25,.03,.26,.07,.52,.16,.77,.28,.5,.23,.72,.82,.49,1.33-.17,.37-.53,.58-.91,.58Z"/>
        <path class="cls-3" d="M65.71,92.18c.21,.05,.41,.13,.61,.22-.2-.09-.4-.16-.61-.22m0-2c-.89,0-1.7,.6-1.93,1.5-.28,1.07,.36,2.16,1.43,2.44,.09,.02,.19,.06,.27,.1,.27,.12,.55,.18,.83,.18,.76,0,1.48-.43,1.82-1.16,.46-1,.02-2.19-.98-2.65-.3-.14-.62-.25-.94-.33-.17-.04-.34-.06-.51-.06h0Z"/>
      </g>
      <g>
        <path class="cls-9" d="M51.54,104.87c-1.31,0-2.68-.78-2.68-2.08v-5.29c0-3.2,1.83-5.77,4.57-6.38,.07-.02,.15-.02,.22-.02,.28,0,.54,.11,.73,.32,0,0,1.77,1.91,1.78,1.93,.16-.03,.31-.06,.47-.06,1,0,1.85,.54,2.27,1.39,.41,1.01,.24,2.08-.41,2.85l-3.4,4.6-1.27,1.63c-.49,.7-1.34,1.13-2.24,1.13,0,0-.05,0-.05,0Z"/>
        <path class="cls-3" d="M53.65,92.09l1.74,1.88c-.26,.18-.49,.39-.69,.64l-2.67,3.44s-.01,.06,0,.09v.77c0,.05,.03,.1,.08,.13,.01,0,.02,0,.04,0,.04,0,.09-.02,.11-.06l3.03-3.93c.32-.46,.84-.75,1.41-.78,.56,0,1.08,.33,1.33,.83,.24,.59,.13,1.27-.28,1.76l-3.44,4.64-1.25,1.61c-.33,.47-.87,.75-1.45,.75-.01,0-.02,0-.04,0-.82,0-1.7-.42-1.7-1.08v-5.29c0-2.66,1.43-4.88,3.79-5.41m0-2c-.15,0-.29,.02-.44,.05-3.2,.72-5.35,3.68-5.35,7.36v5.29c0,1.73,1.62,3.08,3.7,3.08h0c1.24,0,2.37-.58,3.08-1.55l1.23-1.58,3.44-4.64c.85-1.05,1.06-2.48,.56-3.73-.02-.05-.04-.1-.07-.15-.59-1.18-1.78-1.93-3.1-1.94,0,0-.01,0-.02,0-.03,0-.06,0-.1,0-.01,0-.03,0-.04,0l-1.43-1.55c-.38-.41-.92-.64-1.47-.64h0Z"/>
      </g>
      <g>
        <path class="cls-9" d="M69,96.73c-.43,0-.83-.29-.96-.72-.05-.19-.12-.38-.19-.56-.21-.51,.04-1.09,.55-1.3,.12-.05,.25-.07,.37-.07,.4,0,.77,.24,.93,.63,.1,.25,.19,.5,.26,.76,.15,.53-.15,1.08-.68,1.24-.09,.03-.19,.04-.28,.04Z"/>
        <path class="cls-3" d="M68.78,95.07c.09,.22,.16,.44,.23,.66-.06-.22-.14-.44-.23-.66m0-2c-.25,0-.5,.05-.75,.15-1.02,.41-1.52,1.58-1.11,2.6,.06,.15,.12,.31,.16,.46,.25,.88,1.05,1.45,1.92,1.45,.18,0,.37-.03,.55-.08,1.06-.3,1.68-1.41,1.37-2.47-.08-.29-.18-.58-.29-.86-.31-.78-1.06-1.25-1.86-1.25h0Z"/>
      </g>
      <g>
        <path class="cls-9" d="M68.48,95.47c-.37,0-.72-.2-.89-.55-.02-.05-.15-.26-.15-.26-.27-.47-.11-1.07,.36-1.35,.16-.1,.34-.14,.51-.14,.33,0,.66,.17,.85,.47,.09,.14,.17,.27,.24,.42,.23,.5,.02,1.08-.47,1.32-.14,.07-.29,.1-.43,.1Z"/>
        <path class="cls-3" d="M68.31,94.17c.05,.09,.12,.18,.17,.3-.05-.11-.12-.21-.17-.3m0-1.98c-.34,0-.69,.09-1.01,.28-.93,.55-1.26,1.73-.74,2.67,.03,.05,.06,.11,.1,.17l.04,.07c.35,.7,1.05,1.1,1.79,1.1,.29,0,.58-.06,.86-.2,.98-.47,1.41-1.64,.96-2.64-.1-.23-.22-.4-.28-.51-.38-.61-1.04-.94-1.72-.94h0Z"/>
      </g>
      <g>
        <path class="cls-9" d="M49.14,119.26c-1.9,0-3.77-.84-5.02-2.25-1.08-1.23-1.57-2.75-1.38-4.28,.76-5.56,1.83-11.12,3.17-16.55,1.02-3.85,3.45-6.05,6.68-6.05h1.64c.54,0,.98,.42,1,.96,.02,.54-.38,.99-.92,1.04-2.62,.22-4.38,2.39-4.38,5.42v5.28c0,.19,.08,.38,.23,.52,.35,.32,.83,.51,1.33,.51h0c.51,0,.9-.16,1.21-.44,.19-.18,.43-.27,.68-.27,.14,0,.27,.03,.4,.08,.36,.16,.6,.52,.6,.92v14.12c0,.55-.45,1-1,1h-4.24Z"/>
        <path class="cls-3" d="M54.24,91.13c-3.14,.26-5.3,2.87-5.3,6.42v5.28c0,.47,.2,.91,.53,1.23,.55,.51,1.28,.79,2.03,.79,.02,0,.03,0,.05,0,.01,0,.03,0,.04,0,.67,0,1.31-.25,1.79-.7v14.12h-4.24c-2.97,0-5.78-2.44-5.41-5.41,.76-5.53,1.81-11.01,3.15-16.43,.81-3.07,2.73-5.29,5.71-5.29h1.64m0-2h-1.64c-3.67,0-6.52,2.53-7.65,6.78-1.36,5.5-2.43,11.1-3.2,16.67-.23,1.85,.35,3.65,1.62,5.09,1.43,1.62,3.59,2.59,5.77,2.59h4.24c1.1,0,2-.9,2-2v-14.12c0-.8-.47-1.51-1.2-1.83-.26-.11-.53-.17-.8-.17-.49,0-.98,.18-1.36,.53-.12,.11-.27,.17-.44,.17,0,0-.04,0-.06,0,0,0,0,0-.01,0h0c-.21,0-.41-.06-.58-.17v-5.13c0-2.51,1.36-4.25,3.47-4.42,1.07-.09,1.88-1,1.83-2.08-.04-1.07-.93-1.92-2-1.92h0Zm0,4h0Z"/>
      </g>
      <g>
        <path class="cls-9" d="M56.45,135.22c-1.87-.13-3.28-1.75-3.16-3.61v-28.81c0-.21,.07-.42,.19-.59l4-5.41c.42-.48,.5-1.08,.27-1.59-.15-.29-.44-.52-.79-.61-.3-.08-.54-.28-.67-.56l-.74-1.65c-.14-.31-.11-.67,.08-.95,.18-.28,.5-.46,.84-.46h7.82c.43,0,.86,.04,1.28,.13l.42,.12c.23,.06,.49,.15,.74,.27l.38,.18c.23,.13,.39,.24,.55,.35,.17,.12,.32,.24,.46,.36,.14,.13,.26,.25,.36,.38,.23,.25,.46,.55,.66,.86l.08,.14c.05,.08,.1,.17,.14,.25,.11,.2,.22,.43,.32,.67,.11,.26,.19,.51,.27,.77l.1,.37c.05,.19,.05,.39-.01,.57-.53,1.63-2.2,7.33-3.08,10.52-.12,.44-.52,.73-.96,.73-.03,0-.06,0-.08,0v24.04c0,1.87-1.52,3.39-3.39,3.39-1.22,0-2.28-.64-2.88-1.61-.58,1.06-1.7,1.77-2.97,1.77-.08,0-.15,0-.23,0Z"/>
        <path class="cls-3" d="M64.31,91.97c.36,0,.73,.04,1.08,.11l.32,.1c.21,.05,.41,.13,.61,.22l.36,.17c.15,.09,.29,.18,.43,.28,.12,.09,.24,.18,.36,.28,.09,.08,.18,.18,.26,.27,.21,.24,.41,.49,.58,.76,.05,.1,.12,.19,.17,.3,.11,.2,.21,.4,.29,.61,.09,.22,.16,.44,.23,.66l.1,.36c-.54,1.67-2.23,7.43-3.09,10.56v-8.76h-1.08v33.8c0,1.32-1.07,2.39-2.39,2.39s-2.39-1.07-2.39-2.39v-19.18h-1.08v19.18c0,.11,0,.21,0,.32-.09,1.26-1.14,2.23-2.38,2.23-.05,0-.11,0-.16,0-1.32-.09-2.31-1.23-2.22-2.55v-28.87l4-5.41c.62-.72,.77-1.73,.38-2.6-.29-.58-.82-1.01-1.45-1.17l-.74-1.66h7.82m0-2h-7.82c-.68,0-1.31,.34-1.68,.91s-.43,1.28-.15,1.9l.74,1.66c.25,.56,.74,.97,1.33,1.13,.06,.01,.11,.05,.14,.1,.05,.14,.02,.3-.08,.42-.03,.04-.07,.08-.1,.12l-4,5.41c-.25,.34-.39,.76-.39,1.19v28.82c-.06,1.14,.32,2.24,1.08,3.11,.77,.88,1.84,1.41,3.01,1.49,.1,0,.2,.01,.3,.01,1.16,0,2.22-.46,3.01-1.21,.77,.65,1.76,1.05,2.84,1.05,2.42,0,4.39-1.97,4.39-4.39v-23.26c.48-.25,.86-.69,1.01-1.24,.88-3.18,2.54-8.85,3.07-10.47,.12-.37,.13-.77,.03-1.14l-.1-.36c-.09-.31-.19-.6-.3-.88-.12-.29-.24-.55-.38-.79-.05-.1-.11-.19-.16-.28l-.03-.06s-.04-.08-.07-.11c-.23-.35-.48-.68-.76-.99-.13-.15-.26-.29-.41-.42-.01-.01-.03-.02-.04-.04-.16-.14-.34-.28-.51-.4-.21-.14-.4-.27-.6-.39-.04-.02-.08-.04-.12-.06l-.36-.17c-.32-.15-.63-.26-.93-.34l-.29-.09c-.06-.02-.12-.03-.18-.05-.48-.1-.98-.15-1.47-.15h0Z"/>
      </g>
      <g>
        <path class="cls-9" d="M68.31,95.16c-.33,0-.65-.16-.84-.46-.14-.22-.31-.43-.49-.63-.37-.41-.34-1.04,.06-1.41,.19-.18,.44-.27,.68-.27,.27,0,.53,.11,.73,.32,.26,.28,.5,.59,.7,.91,.29,.47,.15,1.08-.31,1.37-.17,.11-.35,.16-.54,.16Z"/>
        <path class="cls-3" d="M67.73,93.4c.22,.23,.41,.49,.58,.76-.17-.27-.37-.52-.58-.76m0-2c-.49,0-.97,.18-1.36,.53-.81,.75-.86,2-.12,2.82,.14,.16,.27,.32,.38,.5,.38,.59,1.02,.91,1.68,.91,.37,0,.74-.1,1.07-.31,.93-.59,1.2-1.82,.62-2.75-.24-.38-.51-.73-.82-1.06-.39-.42-.93-.63-1.46-.63h0Z"/>
      </g>
      <g>
        <path class="cls-9" d="M68.78,96.07c-.39,0-.76-.23-.92-.61-.07-.18-.16-.35-.25-.51-.26-.48-.09-1.09,.4-1.36,.15-.08,.32-.12,.48-.12,.35,0,.7,.19,.88,.52,.12,.23,.24,.46,.34,.7,.21,.51-.03,1.1-.54,1.31-.13,.05-.26,.08-.39,.08Z"/>
        <path class="cls-3" d="M68.48,94.46c.11,.2,.21,.4,.29,.61-.09-.21-.18-.41-.29-.61m0-2c-.33,0-.66,.08-.96,.25-.97,.53-1.32,1.75-.79,2.72,.07,.13,.14,.27,.2,.41,.32,.77,1.06,1.23,1.85,1.23,.26,0,.52-.05,.77-.15,1.02-.43,1.5-1.6,1.08-2.62-.11-.27-.24-.54-.39-.8-.36-.66-1.05-1.03-1.75-1.03h0Z"/>
      </g>
      <g>
        <path class="cls-9" d="M69.1,97.08c-.44,0-.84-.29-.96-.73l-.1-.36c-.15-.53,.17-1.08,.7-1.23,.09-.02,.18-.04,.27-.04,.44,0,.84,.29,.96,.73,.06,.15,.13,.35,.13,.61,0,.5-.37,.93-.87,1-.04,0-.09,0-.14,0Z"/>
        <path class="cls-3" d="M69,95.73c.03,.12,.1,.23,.1,.35h0s-.1-.35-.1-.35"/>
      </g>
      <g>
        <path class="cls-9" d="M66.68,93.57c-.15,0-.29-.03-.43-.1l-.36-.17c-.5-.24-.71-.84-.46-1.34,.17-.36,.53-.56,.9-.56,.15,0,.29,.03,.43,.1l.36,.17c.5,.24,.71,.84,.46,1.34-.17,.36-.53,.56-.9,.56Z"/>
        <path class="cls-3" d="M66.32,92.39l.36,.17-.36-.17m0-2c-.74,0-1.46,.42-1.8,1.13-.48,.99-.07,2.19,.93,2.67l.36,.17c.28,.14,.58,.2,.87,.2,.74,0,1.46-.42,1.8-1.13,.48-.99,.07-2.19-.93-2.67l-.36-.17c-.28-.14-.58-.2-.87-.2h0Z"/>
      </g>
      <g>
        <path class="cls-9" d="M65.71,93.18c-.09,0-.19-.01-.29-.04l-.33-.1c-.53-.16-.83-.72-.67-1.24,.13-.43,.53-.71,.96-.71,.09,0,.19,.01,.29,.04l.33,.1c.53,.16,.83,.72,.67,1.24-.13,.43-.53,.71-.96,.71Z"/>
        <path class="cls-3" d="M65.39,92.08l.32,.1-.32-.1m0-2c-.86,0-1.65,.56-1.91,1.43-.32,1.06,.28,2.17,1.34,2.49l.32,.1c.19,.06,.39,.09,.58,.09,.86,0,1.65-.56,1.91-1.43,.32-1.06-.28-2.17-1.34-2.49l-.32-.1c-.19-.06-.39-.09-.58-.09h0Z"/>
      </g>
      <g>
        <path class="cls-9" d="M68.9,111.8c-.2,0-.41-.06-.58-.19-.45-.32-.55-.95-.23-1.4,.03-.04,.06-.09,.08-.14,.17-.36,.53-.57,.9-.57,.14,0,.29,.03,.43,.1,.5,.24,.71,.83,.47,1.33-.08,.16-.16,.31-.26,.45-.2,.27-.5,.42-.81,.42Z"/>
        <path class="cls-3" d="M69.08,110.5c-.05,.1-.11,.2-.17,.29,.07-.09,.12-.19,.17-.29m0-2c-.74,0-1.46,.42-1.8,1.13-.64,.9-.44,2.14,.46,2.79,.35,.25,.76,.38,1.17,.38,.62,0,1.23-.29,1.63-.83,.13-.19,.25-.39,.35-.59,.48-1,.06-2.19-.94-2.67-.28-.13-.57-.2-.86-.2h0Z"/>
      </g>
      <g>
        <path class="cls-9" d="M69.1,111.39c-.12,0-.25-.02-.36-.07-.5-.21-.76-.74-.56-1.25,.03-.08,.06-.16,.08-.24,.13-.43,.52-.71,.96-.71,.05,0,.1,0,.15,.01,.49,.07,.86,.49,.86,.99,0,.29-.1,.52-.16,.65-.17,.38-.56,.63-.96,.63Z"/>
        <path class="cls-3" d="M69.22,110.11c0,.11-.06,.22-.11,.32,.04-.11,.08-.22,.11-.32m0-2c-.87,0-1.66,.57-1.91,1.43-.02,.05-.03,.1-.05,.15-.41,1.02,.09,2.19,1.11,2.6,.24,.1,.5,.14,.74,.14,.79,0,1.54-.47,1.86-1.25,.08-.17,.25-.56,.25-1.07,0-.99-.73-1.83-1.71-1.98-.1-.01-.2-.02-.29-.02h0Zm0,4h0Z"/>
      </g>
      <g>
        <path class="cls-9" d="M67.47,94.13c-.23,0-.47-.08-.66-.25-.09-.08-.18-.15-.28-.22-.45-.32-.55-.95-.23-1.4,.2-.27,.5-.42,.81-.42,.2,0,.4,.06,.58,.19,.15,.11,.29,.22,.43,.34,.42,.36,.46,.99,.1,1.41-.2,.23-.48,.34-.75,.34Z"/>
        <path class="cls-3" d="M67.11,92.85c.12,.09,.24,.18,.36,.28-.11-.1-.23-.19-.36-.28m0-2c-.63,0-1.24,.29-1.63,.84-.64,.9-.43,2.15,.47,2.79,.07,.05,.14,.1,.2,.16,.38,.33,.85,.49,1.31,.49,.56,0,1.11-.23,1.51-.69,.73-.83,.64-2.1-.19-2.82-.16-.14-.34-.28-.51-.4-.35-.25-.76-.37-1.16-.37h0Z"/>
      </g>
      <g>
        <path class="cls-9" d="M69.24,111c-.55-.06-.95-.55-.89-1.1,0-.05,0-.09,0-.14s0-.09,0-.14c-.06-.55,.34-1.04,.89-1.1,.03,0,.07,0,.1,0,.51,0,.94,.38,.99,.9,.01,.11,.02,.23,.02,.34h0c0,.12,0,.23-.02,.35-.05,.51-.49,.9-.99,.9-.03,0-.07,0-.1,0Z"/>
        <path class="cls-3" d="M69.34,109.52c0,.08,.01,.16,.01,.24,0-.08,0-.16-.01-.24m.01,.24c0,.08,0,.16-.01,.24,0-.08,.01-.16,.01-.24m-.01-2.24c-.07,0-.14,0-.21,.01-1.1,.12-1.9,1.1-1.78,2.2v.03s0,.03,0,.03c-.12,1.1,.68,2.08,1.78,2.2,.07,0,.14,.01,.21,.01,1.01,0,1.88-.76,1.99-1.79,.02-.15,.02-.3,.02-.45s0-.3-.02-.45c-.11-1.03-.98-1.79-1.99-1.79h0Zm.01,4.24h0Zm0,0h0Z"/>
      </g>
      <g>
        <path class="cls-9" d="M102.59,135.05c-.72,0-1.38-.31-1.84-.8-.39,.42-.93,.71-1.54,.78-.1,.01-.2,.02-.3,.02-1.27,0-2.34-.95-2.5-2.21,0-.04,0-.08,0-.12v-18.03s-.1-.04-.15-.06l-5.41-2.75c-.25-.12-.43-.35-.51-.61s-.04-.55,.1-.79c.08-.14,.14-.3,.17-.45,.01-.11,.02-.25,0-.4,0-.04-.15-.53-.15-.53-.08-.26-.04-.54,.09-.78,.14-.24,.36-.41,.63-.47,.16-.04,.33-.06,.49-.06,.31,0,.62,.07,.9,.21l3.45,1.75c.51-.22,1.07-.33,1.63-.33h6.19c1.77,0,3.34,1.19,3.81,2.9l2.25,6.15c.37,1.09-.2,2.27-1.26,2.65-.08,.03-.16,.05-.24,.05-.19,.05-.37,.08-.55,.08-.89,0-1.68-.56-1.97-1.41l-.8-2.2v15.1s0,.08,0,.12c-.14,1.15-1.04,2.06-2.2,2.2-.1,.01-.2,.02-.3,.02Z"/>
        <path class="cls-3" d="M91.68,108.77c.16,0,.32,.04,.47,.11l3.88,1.97c.49-.3,1.06-.45,1.63-.45,.01,0,.02,0,.03,0h6.01s.09,0,.14,0c1.32,0,2.49,.88,2.85,2.17l2.27,6.23c.19,.56-.11,1.16-.66,1.36h-.06s-.02,0-.03,.01c-.12,.04-.24,.06-.35,.06-.45,0-.87-.28-1.02-.73l-2.1-5.77v-.09h-.65v19.07c-.08,.69-.63,1.24-1.32,1.32-.06,0-.12,.01-.18,.01-.76,0-1.41-.56-1.5-1.33v-10.82h-.67v10.82c-.08,.69-.63,1.24-1.32,1.32-.06,0-.12,.01-.18,.01-.76,0-1.41-.56-1.5-1.33v-18.99h-.69l-5.41-2.75c.14-.24,.24-.51,.29-.79,.03-.26,.03-.52,0-.78-.01-.01-.06-.24-.17-.61,.08-.02,.17-.03,.26-.03m0-2h0c-.25,0-.49,.03-.73,.09-.53,.13-.99,.47-1.26,.94-.27,.47-.34,1.04-.19,1.56,.05,.17,.09,.3,.11,.4,0,0,0,0,0,.01,0,.03,0,.06,0,.1,0,.03-.02,.06-.04,.09-.28,.48-.35,1.05-.2,1.58,.15,.53,.52,.97,1.01,1.22l5.01,2.54v17.41c0,.08,0,.16,.01,.24,.21,1.76,1.71,3.1,3.49,3.1,.14,0,.28,0,.42-.03,.52-.06,1-.23,1.42-.49,.54,.33,1.17,.52,1.84,.52,.14,0,.28,0,.42-.03,1.61-.19,2.88-1.46,3.07-3.07,0-.08,.01-.16,.01-.24v-11.05c.51,.35,1.12,.56,1.77,.56,.26,0,.51-.03,.76-.09,.13-.02,.25-.05,.37-.09,1.57-.56,2.41-2.3,1.88-3.88,0-.02-.01-.03-.02-.05l-2.25-6.17c-.62-2.09-2.56-3.55-4.75-3.55-.06,0-.12,0-.18,0h-5.98c-.55,0-1.09,.08-1.6,.24l-3.04-1.54c-.45-.22-.91-.32-1.37-.32h0Z"/>
      </g>
      <g>
        <path class="cls-9" d="M81.23,135.35c-.91-.06-1.73-.47-2.33-1.16-.14-.16-.27-.34-.38-.52-.59,1.01-1.69,1.69-2.93,1.69-.08,0-.15,0-.23,0-1.87-.13-3.29-1.75-3.17-3.62v-12.76h-3.93c-.32,0-.61-.15-.8-.4-.19-.25-.25-.58-.16-.88l1.64-5.56c-.38,.2-.81,.32-1.26,.35-.1,.01-.2,.02-.3,.02-.12,0-.24,0-.36-.03-.09-.01-.18-.04-.26-.08-1.12-.51-1.76-1.67-1.59-2.88,.01-.21,.07-.48,.15-.73,.13-.44,3.38-11.63,3.87-13.01,.38-1.26,1.15-2.4,2.21-3.25,.93-.9,2.25-1.43,3.63-1.45h7.04c1.41,0,2.75,.54,3.78,1.51,.97,.83,1.74,1.94,2.2,3.18,.41,1.44,3.89,13.54,3.89,13.54,.02,.05,.03,.11,.03,.16,.03,.26,.03,.52,0,.79-.27,1.33-1.38,2.24-2.66,2.24,0,0-.13,0-.14,0-.36-.02-.7-.1-1.01-.24l1.61,5.45c.09,.3,.03,.63-.16,.88-.19,.25-.49,.4-.8,.4h-3.95v12.83c0,.09,0,.24,0,.39-.12,1.78-1.61,3.18-3.39,3.18-.08,0-.15,0-.23,0Z"/>
        <path class="cls-3" d="M82.07,92.07c1.15,0,2.26,.44,3.09,1.23,.88,.75,1.55,1.72,1.95,2.8,.39,1.36,3.86,13.47,3.86,13.47,.02,.18,.02,.37,0,.55-.16,.79-.86,1.35-1.66,1.35-.03,0-.06,0-.09,0-.77-.03-1.42-.57-1.61-1.31-.01-.03-2.96-9.88-3.61-12.15h-1.08l5.9,19.95h-4.95v13.83c0,.11,0,.21,0,.32-.09,1.27-1.14,2.24-2.39,2.24-.05,0-.11,0-.16,0-1.32-.09-2.32-1.23-2.24-2.56v-13.83h-1.08v13.83c0,.11,0,.21,0,.32-.09,1.27-1.14,2.24-2.39,2.24-.05,0-.11,0-.16,0-1.32-.09-2.32-1.23-2.24-2.56v-13.83h-4.93l5.91-20.03h-1.08c-.66,2.32-3.53,11.77-3.58,12.05-.25,.86-1.02,1.46-1.91,1.49-.07,.01-.14,.02-.21,.02s-.14,0-.21-.02c-.71-.32-1.12-1.07-1.02-1.84,.01-.19,.05-.37,.11-.55,0,0,3.38-11.62,3.86-12.98,.33-1.1,.99-2.08,1.89-2.8,.81-.78,1.89-1.22,3.02-1.23h7.03m0-2h-7.04c-1.63,.02-3.16,.63-4.33,1.73-1.18,.96-2.03,2.23-2.48,3.69-.54,1.55-3.5,11.73-3.87,13.02-.1,.3-.16,.62-.18,.93-.19,1.63,.68,3.18,2.18,3.86,.17,.08,.34,.13,.52,.16,.17,.03,.34,.04,.51,.04,.04,0,.07,0,.11,0l-1.15,3.91c-.18,.6-.06,1.26,.32,1.76,.38,.5,.97,.8,1.6,.8h2.93v11.77c-.12,2.39,1.71,4.45,4.1,4.61,.1,0,.2,.01,.3,.01,1.12,0,2.15-.43,2.93-1.13,.71,.64,1.62,1.05,2.64,1.12,.1,0,.2,.01,.3,.01,2.31,0,4.23-1.8,4.39-4.11,.01-.17,.01-.34,0-.51v-11.77h2.95c.63,0,1.22-.3,1.6-.8,.38-.51,.49-1.16,.32-1.76l-1.16-3.93c1.64-.11,3.03-1.32,3.37-2.94,.01-.06,.02-.11,.03-.17,.04-.34,.04-.68,0-1.02-.01-.11-.03-.21-.06-.32,0,0-3.47-12.1-3.86-13.47-.01-.05-.03-.1-.05-.15-.51-1.38-1.37-2.62-2.48-3.59-1.21-1.12-2.78-1.74-4.43-1.75h0Z"/>
      </g>
      <g>
        <path class="cls-9" d="M165.06,135.32c-.92,0-1.77-.36-2.42-1-.22-.22-.4-.46-.55-.72-.59,1.03-1.7,1.72-2.97,1.72h0c-1.89,0-3.42-1.54-3.42-3.42v-19.01c-.49,.43-1.12,.69-1.81,.69-.12,0-.25,0-.38-.03-.72-.1-1.36-.47-1.8-1.06-.42-.56-.61-1.24-.53-1.94v-13.31c0-3.85,2.51-6.64,5.97-6.64h9.75c3.97,0,6.05,3.38,6.05,6.73v13.22c.03,.23,.02,.45,0,.68-.18,1.33-1.34,2.33-2.68,2.33-.12,0-.25,0-.38-.03-.53-.07-1.02-.3-1.41-.65v19.01c0,1.89-1.54,3.42-3.42,3.42h0Z"/>
        <path class="cls-3" d="M166.91,91.61c3.36,0,5.05,2.84,5.05,5.73v13.28c.02,.16,.02,.32,0,.47-.12,.85-.85,1.47-1.69,1.47-.08,0-.16,0-.24-.02-.93-.13-1.59-.99-1.46-1.93v-13.01h-1.1v34.29h0c0,1.34-1.08,2.42-2.42,2.42h0c-1.34,0-2.42-1.09-2.42-2.42v-19.47h-1.1v19.47h0c0,1.34-1.08,2.42-2.42,2.42h0c-1.34,0-2.42-1.09-2.42-2.42v-34.29h-1.11v13.01c.02,.16,.02,.32,0,.47-.12,.86-.86,1.48-1.7,1.48-.08,0-.16,0-.24-.02-.94-.13-1.6-1-1.47-1.94v-13.37c0-3.13,1.92-5.64,4.97-5.64h9.75m0-2h-9.75c-4.04,0-6.97,3.21-6.97,7.64v13.26c-.19,1.97,1.21,3.76,3.19,4.03,.17,.02,.34,.04,.51,.04,.27,0,.54-.03,.8-.09v17.41c0,2.43,1.98,4.42,4.42,4.42,1.14,0,2.19-.43,2.97-1.15,.78,.71,1.82,1.15,2.96,1.15,2.44,0,4.42-1.98,4.42-4.42v-17.43c.09,.02,.18,.04,.27,.05,.17,.02,.34,.04,.52,.04,1.84,0,3.42-1.37,3.67-3.2,.04-.29,.05-.58,.02-.86v-13.17c0-3.84-2.42-7.73-7.05-7.73h0Z"/>
      </g>
      <g>
        <path class="cls-9" d="M162.07,91.52c-2.96,0-5.37-2.41-5.37-5.38s2.41-5.38,5.37-5.38,5.37,2.41,5.37,5.38-2.41,5.38-5.37,5.38Z"/>
        <path class="cls-3" d="M162.07,81.76c2.41,0,4.37,1.96,4.37,4.38s-1.96,4.38-4.37,4.38-4.37-1.96-4.37-4.38,1.96-4.38,4.37-4.38m0-2c-3.51,0-6.37,2.86-6.37,6.38s2.86,6.38,6.37,6.38,6.37-2.86,6.37-6.38-2.86-6.38-6.37-6.38h0Z"/>
      </g>
      <g>
        <path class="cls-9" d="M144.99,135.36c-.74,0-1.42-.33-1.88-.85-.4,.43-.94,.71-1.55,.79-.1,.01-.2,.02-.3,.02-1.28,0-2.36-.96-2.51-2.23,0-.04,0-.08,0-.12v-6.39h-2.36c-.31,0-.61-.15-.8-.4-.19-.25-.25-.58-.16-.88l1.19-4.07c-.2,.06-.42,.1-.64,.1-.2,0-.41-.03-.6-.09-.07-.01-.14-.02-.2-.04-.57-.21-.98-.6-1.21-1.11-.23-.51-.25-1.08-.05-1.6l2.26-6.21s.01-.07,.02-.09c.47-1.73,2.04-2.93,3.83-2.93h.15s6.06,0,6.06,0c1.9,0,3.49,1.23,3.95,3l2.28,6.25s.04,.1,.04,.13c.16,.5,.11,1.07-.15,1.57-.26,.5-.7,.86-1.23,1.03-.07,.02-.14,.04-.22,.04-.18,.05-.36,.07-.54,.07-.3,0-.6-.07-.86-.19l1.05,4.2c.08,.3,0,.62-.18,.86-.19,.24-.48,.39-.79,.39h-2.06v6.38c-.11,1.32-1.08,2.29-2.31,2.4-.07,0-.14,0-.22,0Z"/>
        <path class="cls-3" d="M140.01,110.23s.08,0,.11,0h6.1s.06,0,.08,0c1.36,0,2.56,.92,2.9,2.25l2.31,6.34s.01,.03,.02,.05c.18,.58-.14,1.19-.72,1.37h-.08s0,0-.01,0c-.12,.04-.25,.06-.37,.06-.45,0-.87-.28-1.03-.73v-.07l-2.14-5.85v-.09h-.62l3.01,11.98h-3.06v7.38c-.06,.74-.65,1.34-1.4,1.4-.04,0-.09,0-.13,0-.79,0-1.46-.6-1.53-1.4v-7.38h-.69v7.39c-.08,.7-.64,1.26-1.34,1.34-.06,0-.12,.01-.18,.01-.77,0-1.43-.57-1.52-1.35v-7.39h-3.36l3.49-11.97h-.68l-2.19,5.87v.12s0,.02,0,.03c-.17,.44-.58,.7-1.02,.7-.13,0-.26-.02-.39-.07h-.07s-.02,0-.03-.01c-.57-.21-.85-.85-.64-1.41l2.31-6.34v-.05c.35-1.3,1.53-2.19,2.86-2.19m0-2h0c-2.24,0-4.21,1.51-4.79,3.67,0,.03-.02,.07-.02,.1l-2.23,6.13c-.6,1.57,.21,3.36,1.81,3.97,.02,0,.07,.03,.1,.03,.11,.04,.22,.06,.33,.08,.02,0,.04,.01,.07,.02l-.81,2.77c-.18,.6-.06,1.26,.32,1.76,.38,.5,.97,.8,1.6,.8h1.36v5.39c0,.08,0,.16,.01,.24,.21,1.77,1.72,3.11,3.51,3.11,.14,0,.28,0,.42-.03,.52-.06,1-.23,1.42-.49,.55,.35,1.2,.56,1.89,.56,.1,0,.2,0,.3-.01,1.72-.15,3.08-1.5,3.22-3.22,0-.06,0-.11,0-.17v-5.38h1.06c.62,0,1.2-.28,1.58-.77,.38-.49,.51-1.12,.36-1.72l-.7-2.8c.09-.01,.18-.03,.27-.05,.11-.02,.22-.04,.32-.07,.79-.25,1.44-.79,1.82-1.52,.38-.73,.46-1.57,.21-2.36-.01-.05-.03-.1-.05-.15l-2.28-6.25c-.6-2.15-2.56-3.64-4.8-3.64h-.08s-6.07,0-6.07,0c-.05,0-.1,0-.15,0h0Z"/>
      </g>
      <g>
        <path class="cls-9" d="M100.77,110.25c-2.34,0-4.25-1.9-4.25-4.25s1.9-4.25,4.25-4.25,4.25,1.9,4.25,4.25-1.91,4.25-4.25,4.25Z"/>
        <path class="cls-3" d="M100.77,102.76c1.79,0,3.25,1.45,3.25,3.25s-1.45,3.25-3.25,3.25-3.25-1.45-3.25-3.25,1.45-3.25,3.25-3.25m0-2c-2.89,0-5.25,2.35-5.25,5.25s2.35,5.25,5.25,5.25,5.25-2.35,5.25-5.25-2.35-5.25-5.25-5.25h0Z"/>
      </g>
      <g>
        <ellipse class="cls-9" cx="59.58" cy="86.58" rx="5.31" ry="5.32"/>
        <path class="cls-3" d="M59.58,82.27c2.38,0,4.31,1.93,4.31,4.32s-1.93,4.32-4.31,4.32-4.31-1.93-4.31-4.32,1.93-4.32,4.31-4.32m0-2c-3.48,0-6.31,2.83-6.31,6.32s2.83,6.32,6.31,6.32,6.31-2.83,6.31-6.32-2.83-6.32-6.31-6.32h0Z"/>
      </g>
      <g>
        <path class="cls-9" d="M78.5,92.05c-1.07,0-2.11-.32-2.99-.91h-2.53c-.38,0-.73-.22-.9-.57-.17-.35-.12-.76,.12-1.06,.6-.76,.91-1.7,.86-2.67v-.19c0-2.97,2.42-5.39,5.39-5.39s5.4,2.42,5.4,5.39v.14c-.05,1.01,.26,1.96,.86,2.72,.24,.3,.29,.71,.12,1.06-.17,.35-.52,.57-.9,.57h-2.44c-.88,.59-1.92,.91-2.98,.91h-.02Z"/>
        <path class="cls-3" d="M78.46,82.27c2.43,0,4.39,1.97,4.39,4.39v.14c-.06,1.21,.33,2.4,1.08,3.34h-2.76c-.76,.59-1.69,.91-2.65,.91,0,0-.01,0-.02,0s-.01,0-.02,0c-.96,0-1.89-.32-2.65-.91h-2.86c.76-.95,1.14-2.13,1.08-3.34v-.14c0-2.43,1.97-4.39,4.39-4.39h.01m0-2h-.01c-3.52,0-6.39,2.87-6.39,6.39v.14s0,.06,0,.1c.03,.72-.2,1.43-.65,2-.48,.6-.57,1.42-.24,2.12s1.03,1.13,1.8,1.13h2.24c.98,.59,2.12,.91,3.27,.91s2.32-.32,3.3-.91h2.15c.77,0,1.47-.44,1.8-1.13s.24-1.51-.24-2.12c-.45-.57-.68-1.28-.65-2,0-.03,0-.06,0-.1v-.14c0-3.52-2.87-6.39-6.39-6.39h0Z"/>
      </g>
      <g>
        <path class="cls-9" d="M143.25,110.13c-2.35,0-4.28-1.91-4.29-4.27,0-1.14,.44-2.22,1.24-3.04,.81-.81,1.88-1.26,3.03-1.27,.19,0,.38,.02,.57,.04,.66-.72,1.6-1.14,2.6-1.14,.07,0,.21,0,.22,0,1.89,0,3.41,1.23,3.41,2.81,0,.38-.09,.75-.27,1.08-.39,.88-.7,2.44-.18,2.79,.17,.11,.29,.27,.37,.46,.12,.31,.08,.69-.1,.96-.12,.17-.4,.47-.94,.47h0c-.48,0-1.31-.26-2.06-.85-.76,1.18-2.08,1.94-3.58,1.95h-.02Z"/>
        <path class="cls-3" d="M146.4,101.46c.05,0,.1,0,.15,0,1.38,0,2.48,.81,2.48,1.81,0,.21-.05,.42-.15,.61,0,0-1.37,3.07,.14,4.09,.01,.04-.03,.06-.11,.06-.41,0-1.84-.49-2.39-1.89-.15,1.69-1.56,2.98-3.26,2.99h-.01c-1.81,0-3.28-1.46-3.29-3.27,0-1.81,1.46-3.29,3.27-3.3,.33,0,.66,.06,.97,.16,.45-.79,1.29-1.26,2.19-1.26m0-2c-1.1,0-2.15,.4-2.96,1.11-.06,0-.12,0-.18,0-2.94,.01-5.31,2.39-5.29,5.31,.01,2.9,2.38,5.26,5.29,5.26,1.5,0,2.85-.62,3.81-1.62,.67,.35,1.33,.51,1.84,.51,.73,0,1.38-.33,1.77-.91,.37-.55,.45-1.28,.2-1.89-.12-.31-.32-.58-.57-.79-.03-.35,.14-1.13,.38-1.71,.22-.45,.34-.95,.34-1.45,0-2.13-1.94-3.79-4.42-3.82-.07,0-.14,0-.21,0h0Z"/>
      </g>
      <g>
        <path class="cls-9" d="M51.54,104.87c-1.31,0-2.68-.78-2.68-2.08v-5.29c0-3.2,1.83-5.77,4.57-6.38,.07-.02,.15-.02,.22-.02,.28,0,.54,.11,.73,.32,0,0,1.77,1.91,1.78,1.93,.16-.03,.31-.06,.47-.06,1,0,1.85,.54,2.27,1.39,.44,1.03,.25,2.16-.45,2.95l-3.36,4.5-1.27,1.63c-.49,.7-1.34,1.13-2.24,1.13,0,0-.05,0-.05,0Z"/>
        <path class="cls-3" d="M53.65,92.09l1.74,1.88c-.26,.18-.49,.39-.69,.64l-2.67,3.44s-.01,.06,0,.09v.77c0,.05,.03,.1,.08,.13,.01,0,.02,0,.04,0,.04,0,.09-.02,.11-.06l3.03-3.93c.32-.46,.84-.75,1.41-.78,.56,0,1.08,.33,1.33,.83,.26,.62,.15,1.34-.3,1.84l-3.42,4.57-1.25,1.61c-.33,.47-.87,.75-1.45,.75-.01,0-.02,0-.04,0-.82,0-1.7-.42-1.7-1.08v-5.29c0-2.66,1.43-4.88,3.79-5.41m0-2c-.15,0-.29,.02-.44,.05-3.2,.72-5.35,3.68-5.35,7.36v5.29c0,1.73,1.62,3.08,3.7,3.08h0c1.24,0,2.37-.58,3.08-1.55l1.23-1.58,3.4-4.54c.9-1.07,1.13-2.58,.58-3.87-.02-.04-.03-.07-.05-.11-.59-1.18-1.78-1.93-3.1-1.94,0,0-.01,0-.02,0-.03,0-.06,0-.1,0-.01,0-.03,0-.04,0l-1.43-1.55c-.38-.41-.92-.64-1.47-.64h0Z"/>
      </g>
    </g>
    <g>
      <g>
        <g>
          <path class="cls-9" d="M191.5,135.33c-1.31,0-2.45-.74-3.03-1.82-.61,1.01-1.7,1.67-2.93,1.67-.08,0-.16,0-.23,0-1.71-.11-3.09-1.49-3.2-3.2v-13.06h-4.02c-.32,0-.61-.15-.8-.4-.19-.25-.25-.58-.16-.88l1.64-5.55c-.32,.15-.66,.24-1.03,.26h0c-1.38,0-2.51-.93-2.76-2.21-.04-.32-.05-.58-.04-.84,0-.08,.02-.15,.04-.22,0,0,3.52-12.24,3.92-13.65,.5-1.33,1.28-2.46,2.29-3.33,1.01-.93,2.35-1.46,3.76-1.46h7.15c1.42,.02,2.75,.57,3.77,1.54,1,.8,1.76,1.94,2.15,3.24,.48,1.34,3.77,12.67,3.91,13.15,.07,.21,.13,.48,.16,.75,.18,1.22-.52,2.45-1.72,2.93-.06,.02-.12,.04-.19,.06-.19,.04-.38,.05-.57,.05-.49,0-.96-.12-1.37-.33l1.65,5.61c.09,.3,.03,.63-.16,.88s-.49,.4-.8,.4h-4v13c0,1.89-1.54,3.43-3.43,3.43Z"/>
          <path class="cls-3" d="M184.94,91.62s.05,0,.07,0h7.09c1.15,.02,2.25,.47,3.08,1.26,.9,.72,1.55,1.7,1.88,2.8,.49,1.38,3.91,13.14,3.91,13.14,.06,.18,.1,.37,.12,.56,.12,.82-.33,1.61-1.1,1.92-.13,.02-.26,.04-.38,.04-.9,0-1.72-.6-1.97-1.5,0-.27-.32-1.1-.76-2.43-.44-1.34-.81-2.72-1.22-4.17-.41-1.46-1-3.29-1.66-5.62h-1.04l5.97,20.29h-5.01v14c0,1.34-1.09,2.43-2.43,2.43s-2.43-1.09-2.43-2.43v-14h-1.1v14c-.09,1.29-1.16,2.28-2.43,2.28-.05,0-.11,0-.17,0-1.22-.08-2.19-1.05-2.27-2.27v-14h-5.02l5.99-20.28h-1.1c-.67,2.31-1.22,4.15-1.68,5.62s-.88,2.84-1.28,4.17c-.41,1.34-.7,2.51-.71,2.54-.18,.77-.84,1.33-1.63,1.38,0,0-.01,0-.02,0-.83,0-1.54-.59-1.7-1.4-.03-.2-.03-.39-.02-.59,0,0,3.53-12.24,3.92-13.66,.41-1.1,1.09-2.08,1.98-2.85,.85-.78,1.96-1.22,3.11-1.22m0-2h0c-1.65,0-3.22,.61-4.44,1.72-1.13,.98-2,2.24-2.52,3.64-.02,.05-.04,.11-.05,.16-.39,1.39-3.88,13.52-3.92,13.64-.04,.15-.07,.3-.08,.45-.02,.32,0,.64,.04,.95,0,.04,.01,.08,.02,.12,.32,1.65,1.71,2.87,3.36,3.01l-1.19,4.02c-.18,.6-.06,1.26,.32,1.76,.38,.51,.97,.8,1.6,.8h3.02v12s0,.09,0,.13c.15,2.21,1.93,3.99,4.14,4.14,.1,0,.2,.01,.3,.01,1.1,0,2.12-.41,2.9-1.08,.8,.76,1.88,1.23,3.06,1.23,2.44,0,4.43-1.99,4.43-4.43v-12h3.01c.63,0,1.22-.3,1.6-.8,.38-.5,.5-1.16,.32-1.76l-1.18-4c.23,0,.46-.03,.69-.07,.13-.02,.26-.06,.38-.11,1.61-.65,2.56-2.29,2.33-4-.03-.32-.1-.63-.2-.93-.4-1.39-3.37-11.6-3.92-13.16-.45-1.45-1.3-2.72-2.47-3.69-1.19-1.11-2.74-1.73-4.36-1.75h-7.12s-.07,0-.07,0h0Z"/>
        </g>
        <g>
          <path class="cls-9" d="M188.58,91.68c-1.07,0-2.12-.32-3.01-.92h-2.47c-.38,0-.73-.22-.9-.56-.17-.34-.13-.75,.11-1.05,.6-.78,.9-1.75,.85-2.73v-.2c0-3.01,2.45-5.46,5.46-5.46s5.46,2.45,5.46,5.46v.14c-.05,1.03,.27,2,.88,2.77,.24,.3,.28,.71,.12,1.06s-.52,.56-.9,.56h-2.47c-.89,.6-1.95,.92-3.03,.92h-.08Z"/>
          <path class="cls-3" d="M188.61,81.76c2.46,0,4.46,2,4.46,4.46v.14c-.06,1.23,.33,2.43,1.1,3.4h-2.79c-.78,.6-1.73,.92-2.7,.92h-.01s-.05,0-.07,0c-.97,0-1.92-.32-2.69-.92h-2.79c.75-.97,1.12-2.17,1.05-3.4v-.14c0-2.46,2-4.46,4.46-4.46m0-2c-3.56,0-6.46,2.9-6.46,6.46v.14s0,.07,0,.11c.04,.74-.19,1.47-.64,2.06-.47,.6-.55,1.42-.21,2.1s1.03,1.12,1.79,1.12h2.18c.99,.6,2.14,.92,3.3,.92h.11s0,0,0,0c1.15,0,2.3-.32,3.29-.92h2.18c.77,0,1.47-.44,1.8-1.13,.33-.69,.24-1.51-.23-2.11-.46-.58-.7-1.32-.67-2.06,0-.03,0-.06,0-.09v-.14c0-3.56-2.9-6.46-6.46-6.46h0Z"/>
        </g>
      </g>
      <g>
        <path class="cls-9" d="M241.58,111.12c-.55,0-1-.44-1-1v-.12c0-.55,.45-1,1-1s1,.45,1,1v.11c0,.55-.45,1-1,1Z"/>
        <path class="cls-3" d="M241.58,110.01v.12h0v-.12m0-2c-1.1,0-2,.9-2,2v.11c0,1.1,.9,2.01,2,2.01s2-.89,2-1.99v-.12c0-1.1-.9-2-2-2h0Z"/>
      </g>
      <g>
        <path class="cls-9" d="M245.41,93.11c-.47,0-.88-.33-.98-.8-.11-.54,.24-1.07,.78-1.18,.42-.08,.85-.13,1.28-.13h0c.55,0,1,.45,1,1,0,.55-.45,1-1,1-.3,0-.6,.03-.89,.09-.07,.01-.13,.02-.2,.02Z"/>
        <path class="cls-3" d="M246.5,92c-.36,0-.73,.04-1.08,.11,.36-.07,.72-.11,1.08-.11m0-2h0c-.49,0-.99,.05-1.47,.15-1.08,.22-1.79,1.27-1.57,2.35,.19,.95,1.02,1.61,1.96,1.61,.13,0,.26-.01,.39-.04,.23-.05,.46-.07,.7-.07,1.1,0,2-.9,1.99-2.01,0-1.1-.9-1.99-2-1.99h0Z"/>
      </g>
      <g>
        <path class="cls-9" d="M241.71,111.43c-.55,0-1-.42-1-.97v-.06c0-.55,.45-1,1-1s1,.45,1,1-.45,1.03-1,1.03Z"/>
        <path class="cls-3" d="M241.7,110.39v0m0-2c-1.1,0-2,.9-2,2v.06c0,1.1,.9,2,2,2s2-.9,2-2v-.06c0-1.1-.9-2-2-2h0Z"/>
      </g>
      <g>
        <path class="cls-9" d="M243.09,94.36c-.23,0-.46-.08-.64-.23-.42-.36-.48-.99-.12-1.41,.11-.13,.22-.25,.34-.36,.19-.18,.44-.27,.68-.27,.27,0,.54,.11,.73,.32,.38,.41,.35,1.04-.05,1.41-.06,.06-.12,.12-.17,.18-.2,.24-.48,.36-.77,.36Z"/>
        <path class="cls-3" d="M243.35,93.09c-.09,.08-.18,.18-.26,.27,.08-.1,.17-.19,.26-.27m0-2c-.48,0-.97,.17-1.35,.53-.15,.14-.3,.29-.43,.45-.72,.84-.61,2.1,.23,2.82,.38,.32,.84,.48,1.29,.48,.57,0,1.13-.24,1.53-.71,.03-.03,.06-.06,.09-.09,.81-.75,.86-2.01,.12-2.83-.39-.43-.93-.65-1.47-.65h0Z"/>
      </g>
      <g>
        <path class="cls-9" d="M244.14,92.57c-.15,.09-.29,.18-.43,.28,.14-.1,.28-.19,.43-.28Z"/>
        <path class="cls-3" d="M244.14,92.57c-.15,.09-.29,.18-.43,.28,.14-.1,.28-.19,.43-.28m0-2c-.34,0-.68,.09-.99,.26-.2,.12-.39,.24-.58,.37-.91,.63-1.13,1.87-.51,2.78,.39,.56,1.01,.86,1.65,.86,.39,0,.79-.12,1.14-.36,.09-.06,.19-.13,.29-.19,.96-.55,1.29-1.77,.74-2.73-.37-.65-1.04-1.01-1.74-1.01h0Z"/>
      </g>
      <g>
        <path class="cls-9" d="M244.5,93.39c-.38,0-.74-.21-.91-.58-.23-.5-.01-1.1,.49-1.33,.25-.11,.51-.21,.77-.28,.08-.02,.17-.03,.25-.03,.44,0,.85,.3,.97,.75,.14,.53-.18,1.08-.72,1.22-.15,.04-.3,.09-.44,.16-.14,.06-.28,.09-.42,.09Z"/>
        <path class="cls-3" d="M245.1,92.18c-.21,.05-.41,.13-.61,.22,.2-.09,.4-.16,.61-.22m0-2c-.17,0-.34,.02-.51,.06-.32,.08-.64,.2-.94,.33-1,.46-1.44,1.65-.98,2.65,.34,.73,1.06,1.17,1.82,1.17,.28,0,.56-.06,.83-.18,.09-.04,.18-.07,.27-.1,1.07-.28,1.71-1.37,1.43-2.44-.23-.9-1.05-1.5-1.93-1.5h0Z"/>
      </g>
      <g>
        <path class="cls-9" d="M259.22,104.87c-.9,0-1.74-.44-2.26-1.17l-1.23-1.58-3.46-4.66c-.61-.73-.78-1.79-.41-2.73,.46-.92,1.3-1.45,2.25-1.46,.18,0,.36,.03,.53,.07,.01-.02,1.79-1.94,1.79-1.94,.19-.21,.46-.32,.73-.32,.07,0,.15,0,.22,.02,2.73,.61,4.57,3.18,4.57,6.38v5.29c0,1.3-1.37,2.08-2.7,2.08h-.04Z"/>
        <path class="cls-3" d="M257.16,92.09c2.36,.53,3.79,2.75,3.79,5.41v5.29c0,.66-.88,1.08-1.7,1.08-.01,0-.02,0-.04,0-.57,0-1.11-.28-1.45-.75l-1.25-1.61-3.44-4.64c-.41-.49-.52-1.17-.28-1.76,.25-.51,.77-.83,1.33-.83,.56,.03,1.08,.31,1.41,.78l3.03,3.93s.07,.06,.11,.06c.01,0,.02,0,.04,0,.05-.03,.08-.08,.08-.13v-.77s.01-.06,0-.09l-2.67-3.44c-.2-.25-.43-.46-.69-.64l1.74-1.88m0-2c-.55,0-1.08,.23-1.47,.64l-1.43,1.55s-.03,0-.04,0c-.03,0-.06,0-.1,0,0,0-.01,0-.02,0-1.32,.01-2.51,.76-3.1,1.94-.02,.05-.05,.1-.07,.15-.5,1.26-.29,2.68,.56,3.73l3.41,4.6,1.26,1.62c.71,.97,1.84,1.55,3.05,1.55,.01,0,.06,0,.08,0h0c2.03,0,3.66-1.35,3.66-3.08v-5.29c0-3.68-2.15-6.64-5.35-7.36-.15-.03-.29-.05-.44-.05h0Z"/>
      </g>
      <g>
        <path class="cls-9" d="M241.81,96.73c-.09,0-.18-.01-.28-.04-.53-.15-.84-.71-.68-1.24,.07-.26,.16-.51,.26-.76,.16-.39,.53-.63,.93-.63,.12,0,.25,.02,.37,.07,.51,.21,.76,.79,.55,1.3-.07,.18-.14,.37-.19,.56-.13,.44-.53,.72-.96,.72Z"/>
        <path class="cls-3" d="M242.04,95.07c-.09,.22-.16,.44-.23,.66,.06-.22,.14-.44,.23-.66m0-2c-.79,0-1.54,.47-1.86,1.25-.11,.28-.21,.57-.29,.85-.31,1.06,.31,2.17,1.37,2.48,.19,.05,.37,.08,.55,.08,.87,0,1.67-.57,1.92-1.45,.05-.16,.1-.31,.16-.47,.41-1.02-.08-2.19-1.11-2.6-.24-.1-.5-.15-.75-.15h0Z"/>
      </g>
      <g>
        <path class="cls-9" d="M242.33,95.47c-.14,0-.29-.03-.43-.1-.49-.23-.71-.82-.48-1.32,.07-.15,.14-.27,.21-.38,.19-.31,.53-.48,.88-.48,.17,0,.34,.04,.49,.13,.47,.28,.64,.85,.38,1.32,0,0-.08,.13-.08,.14-.02,.04-.05,.08-.07,.12-.17,.35-.53,.55-.9,.55Z"/>
        <path class="cls-3" d="M242.51,94.17c-.05,.1-.12,.19-.17,.3,.05-.12,.12-.22,.17-.3m0,2h0Z"/>
      </g>
      <g>
        <path class="cls-9" d="M257.43,119.26c-.55,0-1-.45-1-1v-14.12c0-.4,.24-.76,.6-.92,.13-.06,.26-.08,.4-.08,.25,0,.49,.09,.68,.27,.3,.28,.7,.44,1.11,.44,.59,0,1.08-.19,1.45-.53,.12-.12,.2-.31,.2-.51v-5.27c0-3.02-1.76-5.2-4.38-5.42-.54-.04-.94-.5-.92-1.04,.02-.54,.46-.96,1-.96h1.64c3.23,0,5.67,2.2,6.68,6.03,1.34,5.45,2.41,11.01,3.17,16.55,.19,1.55-.3,3.07-1.38,4.29-1.25,1.41-3.12,2.25-5.02,2.25h-4.24Z"/>
        <path class="cls-3" d="M258.22,91.13c2.99,0,4.9,2.22,5.71,5.29,1.34,5.42,2.39,10.9,3.15,16.43,.37,2.96-2.43,5.41-5.41,5.41h-4.24v-14.12c.49,.45,1.13,.7,1.79,.7,.01,0,.03,0,.04,0,.02,0,.03,0,.05,0,.75,0,1.48-.28,2.03-.79,.33-.32,.52-.77,.53-1.23v-5.28c0-3.55-2.16-6.16-5.3-6.42h1.64m0-2h-1.64c-1.07,0-1.95,.85-2,1.92-.04,1.07,.76,1.99,1.83,2.08,2.11,.17,3.47,1.91,3.47,4.42v5.13c-.17,.11-.36,.17-.56,.17,0,0-.04,0-.06,0,0,0-.01,0-.02,0h0c-.17,0-.33-.06-.45-.17-.38-.35-.87-.53-1.36-.53-.27,0-.54,.05-.8,.17-.73,.32-1.2,1.04-1.2,1.83v14.12c0,1.1,.9,2,2,2h4.24c2.18,0,4.33-.97,5.77-2.59,1.28-1.44,1.85-3.24,1.63-5.06-.77-5.6-1.84-11.2-3.19-16.67-1.13-4.28-3.99-6.81-7.65-6.81h0Z"/>
      </g>
      <g>
        <path class="cls-9" d="M254.14,135.23c-1.27,0-2.39-.71-2.97-1.77-.6,.96-1.67,1.61-2.88,1.61-1.87,0-3.39-1.52-3.39-3.39v-24.04s-.06,0-.08,0c-.44,0-.84-.3-.96-.73-.88-3.19-2.55-8.89-3.08-10.52-.06-.19-.06-.38-.01-.57l.1-.36c.08-.27,.17-.52,.26-.77,.1-.25,.22-.49,.34-.71,.03-.05,.08-.14,.12-.22,.01-.02,.07-.13,.09-.15,.2-.31,.43-.61,.69-.89,.08-.1,.2-.22,.32-.33,.16-.14,.31-.26,.46-.36,.18-.12,.34-.24,.51-.33l.42-.2c.26-.12,.52-.21,.79-.28l.29-.09c.51-.11,.94-.15,1.37-.15h7.82c.34,0,.65,.17,.84,.46,.18,.28,.21,.64,.08,.95l-.74,1.65c-.12,.28-.37,.49-.67,.56-.35,.09-.64,.33-.8,.65-.21,.47-.13,1.07,.24,1.49l4.05,5.47c.13,.17,.2,.38,.2,.59v28.87c.06,.84-.24,1.71-.83,2.39s-1.42,1.09-2.33,1.15c-.08,0-.15,0-.23,0Z"/>
        <path class="cls-3" d="M254.33,91.97l-.74,1.66c-.63,.16-1.16,.59-1.45,1.17-.39,.86-.25,1.88,.38,2.6l4,5.41v28.87c.09,1.32-.91,2.46-2.22,2.55-.05,0-.11,0-.16,0-1.25,0-2.3-.97-2.38-2.23,0-.11,0-.21,0-.32v-19.18h-1.08v19.18c0,1.32-1.07,2.39-2.39,2.39s-2.39-1.07-2.39-2.39v-33.8h-1.08v8.76c-.87-3.13-2.55-8.89-3.09-10.56l.1-.36c.06-.22,.14-.44,.23-.66,.09-.21,.18-.41,.29-.61,.05-.11,.12-.21,.17-.3,.17-.27,.37-.52,.58-.76,.08-.1,.17-.19,.26-.27,.11-.1,.23-.19,.36-.28,.14-.1,.28-.19,.43-.28l.36-.17c.2-.09,.4-.16,.61-.22l.32-.1c.36-.07,.72-.11,1.08-.11h7.82m0-2h-7.82c-.5,0-.99,.05-1.47,.15-.06,.01-.12,.03-.18,.05l-.29,.09c-.31,.08-.61,.19-.9,.32l-.39,.19s-.08,.04-.12,.06c-.2,.12-.39,.24-.58,.37-.2,.14-.37,.28-.53,.42-.01,.01-.03,.02-.04,.03-.14,.13-.28,.27-.41,.42-.28,.31-.53,.64-.76,.99-.03,.04-.05,.08-.07,.12l-.03,.06c-.05,.09-.11,.18-.16,.28-.14,.25-.26,.51-.37,.77-.12,.3-.22,.59-.3,.88l-.1,.39c-.1,.38-.09,.77,.03,1.14,.53,1.62,2.19,7.3,3.07,10.47,.15,.55,.53,1,1.01,1.24v23.26c0,2.42,1.97,4.39,4.39,4.39,1.08,0,2.07-.39,2.84-1.05,.79,.75,1.85,1.21,3.01,1.21,.1,0,.2,0,.3-.01,2.39-.16,4.21-2.22,4.09-4.6v-28.82c0-.43-.14-.85-.39-1.19l-4-5.41s-.06-.08-.1-.12c-.1-.11-.13-.27-.08-.42,.03-.05,.08-.08,.14-.1,.59-.15,1.08-.57,1.33-1.13l.74-1.66c.27-.62,.22-1.33-.15-1.9s-1-.91-1.68-.91h0Zm0,4h0Z"/>
      </g>
      <g>
        <path class="cls-9" d="M242.5,95.16c-.18,0-.37-.05-.54-.16-.46-.3-.6-.91-.31-1.38,.21-.32,.44-.63,.7-.91,.2-.21,.46-.32,.73-.32,.24,0,.49,.09,.68,.27,.4,.37,.43,1,.06,1.41-.18,.19-.34,.41-.48,.63-.19,.3-.51,.46-.84,.46Z"/>
        <path class="cls-3" d="M243.09,93.4c-.22,.24-.41,.49-.58,.76,.17-.27,.37-.52,.58-.76m0-2c-.53,0-1.07,.21-1.46,.63-.3,.32-.58,.68-.82,1.06-.59,.93-.31,2.16,.61,2.75,.33,.21,.71,.32,1.08,.32,.66,0,1.3-.32,1.68-.91,.11-.18,.24-.34,.39-.5,.74-.81,.69-2.07-.12-2.82-.38-.35-.87-.53-1.36-.53h0Zm0,4h0Z"/>
      </g>
      <g>
        <path class="cls-9" d="M242.04,96.07c-.13,0-.26-.02-.38-.08-.51-.21-.75-.8-.54-1.31,.1-.24,.21-.48,.34-.71,.18-.33,.52-.52,.88-.52,.16,0,.33,.04,.48,.12,.48,.27,.66,.87,.39,1.36-.09,.16-.17,.33-.24,.51-.16,.38-.53,.62-.92,.62Z"/>
        <path class="cls-3" d="M242.33,94.46c-.11,.2-.21,.4-.29,.61,.09-.21,.18-.41,.29-.61m0-2c-.71,0-1.39,.37-1.75,1.04-.14,.26-.27,.53-.39,.8-.43,1.02,.06,2.19,1.08,2.62,.25,.11,.51,.15,.77,.15,.78,0,1.53-.46,1.85-1.23,.06-.14,.13-.28,.2-.41,.53-.97,.18-2.18-.79-2.72-.31-.17-.64-.25-.96-.25h0Z"/>
      </g>
      <g>
        <path class="cls-9" d="M241.72,96.07c0-.12,.06-.23,.1-.35l-.1,.36h0Z"/>
        <path class="cls-3" d="M241.81,95.73h0m0,0s0,0,0,0h0m0,0l-.1,.36h0c0-.13,.06-.24,.1-.36m0-2h0c-.9,0-1.67,.6-1.92,1.42-.07,.18-.18,.5-.18,.92,0,1,.74,1.86,1.74,1.99,.09,.01,.18,.02,.27,.02,.89,0,1.69-.59,1.93-1.47l.07-.26c.06-.2,.1-.41,.1-.63,0-1.1-.89-2-2-2h0Zm0,4h0Zm0,0h0Z"/>
      </g>
      <g>
        <path class="cls-9" d="M244.14,93.57c-.37,0-.73-.21-.9-.56-.24-.5-.03-1.1,.46-1.34l.36-.17c.14-.07,.29-.1,.43-.1,.37,0,.73,.21,.9,.56,.24,.5,.03,1.1-.46,1.34l-.36,.17c-.14,.07-.29,.1-.43,.1Z"/>
        <path class="cls-3" d="M244.5,92.39l-.36,.17,.36-.17m0-2c-.29,0-.59,.06-.87,.2l-.36,.17c-.99,.48-1.41,1.68-.93,2.67,.35,.71,1.06,1.13,1.8,1.13,.29,0,.59-.06,.87-.2l.36-.17c.99-.48,1.41-1.68,.93-2.67-.35-.71-1.06-1.13-1.8-1.13h0Z"/>
      </g>
      <g>
        <path class="cls-9" d="M245.1,93.18c-.43,0-.83-.28-.96-.71-.16-.53,.14-1.09,.67-1.25l.32-.1c.1-.03,.19-.04,.29-.04,.43,0,.83,.28,.96,.71,.16,.53-.14,1.09-.67,1.25l-.32,.1c-.1,.03-.19,.04-.29,.04Z"/>
        <path class="cls-3" d="M245.43,92.08l-.32,.1,.32-.1m0-2c-.19,0-.38,.03-.58,.09l-.32,.1c-1.06,.32-1.66,1.43-1.34,2.49,.26,.87,1.05,1.43,1.91,1.43,.19,0,.38-.03,.58-.09l.32-.1c1.06-.32,1.66-1.43,1.34-2.49-.26-.87-1.05-1.43-1.91-1.43h0Z"/>
      </g>
      <g>
        <path class="cls-9" d="M241.91,111.8c-.31,0-.62-.14-.81-.42-.1-.14-.19-.29-.26-.45-.24-.5-.03-1.1,.47-1.33,.14-.07,.29-.1,.43-.1,.37,0,.73,.21,.9,.57,.02,.05,.05,.09,.08,.14,.32,.45,.22,1.07-.23,1.4-.18,.13-.38,.19-.58,.19Z"/>
        <path class="cls-3" d="M241.74,110.5c.05,.1,.11,.2,.17,.29-.07-.09-.12-.19-.17-.29m0-2.01c-.29,0-.59,.06-.86,.2-1,.48-1.42,1.68-.94,2.67,.1,.21,.22,.41,.35,.6,.39,.54,1,.83,1.63,.83,.4,0,.81-.12,1.17-.38,.9-.65,1.1-1.89,.46-2.79-.34-.72-1.05-1.13-1.8-1.13h0Z"/>
      </g>
      <g>
        <path class="cls-9" d="M241.6,110.11c0,.11,.06,.22,.11,.32-.04-.11-.08-.22-.11-.32Z"/>
        <path class="cls-3" d="M241.6,110.11c.03,.11,.06,.22,.11,.32-.04-.11-.11-.22-.11-.32m0-2c-.1,0-.19,0-.29,.02-.98,.14-1.71,.99-1.71,1.98,0,.51,.17,.9,.25,1.06,.31,.78,1.06,1.26,1.86,1.26,.25,0,.5-.05,.74-.14,1.03-.41,1.53-1.57,1.12-2.6-.02-.05-.03-.1-.05-.16-.26-.86-1.04-1.43-1.91-1.43h0Z"/>
      </g>
      <g>
        <path class="cls-9" d="M243.35,94.13c-.28,0-.56-.12-.75-.34-.36-.42-.32-1.05,.1-1.41,.14-.12,.29-.24,.44-.34,.18-.12,.38-.18,.58-.18,.31,0,.62,.15,.82,.42,.32,.45,.21,1.07-.24,1.39-.1,.07-.19,.14-.28,.22-.19,.17-.42,.25-.66,.25Z"/>
        <path class="cls-3" d="M243.71,92.85c-.12,.09-.24,.18-.36,.28,.11-.1,.23-.19,.36-.28m0-2c-.4,0-.8,.12-1.15,.37-.18,.13-.35,.26-.52,.41-.83,.73-.92,1.99-.19,2.82,.4,.45,.95,.68,1.51,.68,.47,0,.94-.16,1.32-.49,.06-.05,.13-.11,.2-.16,.9-.64,1.11-1.89,.48-2.79-.39-.55-1.01-.84-1.63-.84h0Z"/>
      </g>
      <g>
        <path class="cls-9" d="M241.48,111.01c-.51,0-.94-.38-.99-.9-.01-.11-.02-.23-.02-.34h0c0-.12,0-.23,.02-.35,.05-.51,.49-.9,.99-.9,.03,0,.07,0,.1,0,.55,.06,.95,.55,.89,1.1,0,.05,0,.09,0,.14s0,.09,0,.14c.06,.55-.34,1.04-.89,1.1-.04,0-.07,0-.1,0Z"/>
        <path class="cls-3" d="M241.48,109.52c0,.08-.01,.16-.01,.24,0-.08,0-.16,.01-.24m-.01,.24c0,.08,0,.16,.01,.24,0-.08-.01-.16-.01-.24m0-2.23c-1.01,0-1.87,.75-1.98,1.77-.02,.15-.02,.3-.02,.45s0,.3,.02,.45c.11,1.03,.98,1.79,1.99,1.79,.07,0,.14,0,.21-.01,1.1-.12,1.9-1.1,1.78-2.2,0-.02,0-.03,0-.05,.11-1.09-.69-2.09-1.78-2.2-.07,0-.14-.01-.22-.01h0Zm0,4.23h0Zm0,0h0Z"/>
      </g>
      <g>
        <path class="cls-9" d="M211.9,135.05c-.1,0-.2,0-.3-.02-.61-.07-1.15-.36-1.54-.78-.46,.49-1.12,.8-1.84,.8-.1,0-.2,0-.3-.02-1.16-.14-2.06-1.04-2.2-2.2,0-.04,0-.08,0-.12v-15.1l-.81,2.22c-.28,.82-1.07,1.39-1.96,1.39-.2,0-.4-.03-.59-.09-.07,0-.14-.02-.2-.04-1.06-.38-1.63-1.56-1.27-2.62l2.28-6.25c.45-1.63,2.01-2.82,3.78-2.82h.19s5.97,0,5.97,0c.59,0,1.15,.11,1.66,.33l3.43-1.74c.3-.14,.61-.21,.92-.21,.17,0,.33,.02,.49,.06,.26,.06,.49,.24,.63,.47s.17,.52,.09,.78c0,0-.14,.49-.15,.53-.01,.15,0,.3,0,.45,.02,.11,.08,.26,.16,.41,.14,.24,.18,.52,.1,.79s-.26,.49-.51,.61l-5.41,2.75s-.1,.04-.15,.06v18.03s0,.08,0,.12c-.15,1.26-1.23,2.21-2.5,2.21Z"/>
        <path class="cls-3" d="M219.13,108.77c.09,0,.17,.01,.26,.03-.11,.37-.16,.59-.17,.61-.03,.26-.03,.52,0,.78,.05,.28,.15,.55,.29,.79l-5.41,2.75h-.69v18.99c-.09,.77-.75,1.33-1.5,1.33-.06,0-.12,0-.18-.01-.69-.08-1.24-.63-1.32-1.32v-10.82h-.67v10.82c-.09,.77-.75,1.33-1.5,1.33-.06,0-.12,0-.18-.01-.69-.08-1.24-.63-1.32-1.32v-19.07h-.65v.09l-2.1,5.77c-.15,.45-.57,.73-1.02,.73-.12,0-.24-.02-.35-.06-.01,0-.02,0-.03-.01h-.06c-.55-.2-.85-.8-.66-1.36l2.27-6.23c.36-1.28,1.52-2.17,2.85-2.17,.05,0,.09,0,.14,0h6.01s.02,0,.03,0c.58,0,1.14,.16,1.63,.45l3.88-1.97c.15-.07,.31-.11,.47-.11m0-2c-.46,0-.92,.1-1.33,.3l-3.08,1.56c-.5-.16-1.03-.24-1.57-.24,0,0-.05,0-.05,0h-5.95c-.06,0-.12,0-.18,0-2.19,0-4.13,1.45-4.75,3.55l-2.25,6.17s-.01,.03-.02,.05c-.53,1.58,.31,3.32,1.88,3.88,.12,.04,.24,.07,.37,.09,.25,.06,.5,.09,.76,.09,.65,0,1.26-.2,1.77-.56v11.05c0,.08,0,.16,.01,.24,.19,1.61,1.46,2.88,3.07,3.07,.14,.02,.28,.03,.42,.03,.67,0,1.3-.19,1.84-.52,.42,.26,.9,.43,1.42,.49,.14,.02,.28,.03,.42,.03,1.78,0,3.28-1.33,3.49-3.1,0-.08,.01-.16,.01-.24v-17.41l5.01-2.54c.49-.25,.86-.69,1.01-1.22s.08-1.1-.2-1.58c-.02-.03-.03-.06-.04-.09,0-.03,0-.06,0-.1,0,0,0,0,0-.01,.03-.1,.06-.23,.11-.4,.15-.52,.09-1.09-.19-1.56-.27-.47-.73-.81-1.26-.94-.24-.06-.48-.09-.73-.09h0Z"/>
      </g>
      <g>
        <path class="cls-9" d="M235.23,135.36c-1.24,0-2.34-.68-2.93-1.69-.11,.18-.23,.36-.38,.52-.6,.68-1.43,1.09-2.33,1.16-.08,0-.15,0-.23,0-1.78,0-3.27-1.39-3.39-3.17-.01-.15-.01-.31,0-.46v-12.75h-3.96c-.32,0-.61-.15-.8-.4-.19-.25-.25-.58-.16-.88l1.61-5.45c-.31,.14-.66,.22-1.02,.24-.01,0-.12,0-.13,0-1.27,0-2.38-.91-2.64-2.15-.05-.34-.05-.61-.01-.88,0-.05,.02-.1,.03-.15,0,0,3.47-12.1,3.86-13.47,.48-1.31,1.26-2.42,2.26-3.28,.99-.94,2.33-1.47,3.75-1.48h7.03c1.4,.02,2.71,.55,3.71,1.51,1,.79,1.77,1.93,2.16,3.24,.48,1.33,3.73,12.52,3.86,12.99,.07,.22,.13,.49,.15,.76,.16,1.16-.48,2.31-1.6,2.82-.08,.04-.17,.06-.26,.08-.12,.02-.24,.03-.36,.03-.1,0-.2,0-.3-.02-.45-.02-.88-.15-1.26-.35l1.64,5.56c.09,.3,.03,.63-.16,.88-.19,.25-.49,.4-.8,.4h-3.93v12.83c.06,.84-.24,1.72-.83,2.4s-1.43,1.09-2.33,1.16c-.08,0-.15,0-.23,0Z"/>
        <path class="cls-3" d="M235.78,92.07c1.13,.01,2.2,.45,3.02,1.23,.9,.72,1.56,1.7,1.89,2.8,.49,1.36,3.86,12.98,3.86,12.98,.06,.18,.09,.36,.11,.55,.1,.77-.31,1.52-1.02,1.84-.07,.01-.14,.02-.21,.02s-.14,0-.21-.02c-.89-.03-1.66-.64-1.91-1.49-.05-.28-2.92-9.74-3.58-12.05h-1.08l5.91,20.03h-4.93v13.83c.09,1.32-.91,2.47-2.24,2.56-.05,0-.11,0-.16,0-1.25,0-2.31-.97-2.39-2.24,0-.11,0-.21,0-.32v-13.83h-1.08v13.83c.09,1.32-.91,2.47-2.24,2.56-.05,0-.11,0-.16,0-1.25,0-2.31-.97-2.39-2.24,0-.11,0-.21,0-.32v-13.83h-4.95l5.9-19.95h-1.08c-.65,2.27-3.6,12.12-3.61,12.15-.19,.74-.84,1.28-1.61,1.31-.03,0-.06,0-.09,0-.8,0-1.5-.56-1.66-1.35-.02-.18-.02-.37,0-.55,0,0,3.47-12.11,3.86-13.47,.4-1.08,1.07-2.05,1.95-2.8,.84-.79,1.94-1.23,3.09-1.23h7.03m0-2h-7.03c-1.66,0-3.23,.62-4.43,1.75-1.11,.97-1.97,2.21-2.48,3.59-.02,.05-.03,.1-.05,.15-.39,1.36-3.86,13.47-3.86,13.47-.03,.1-.05,.21-.06,.32-.04,.34-.04,.68,0,1.02,0,.06,.02,.11,.03,.17,.34,1.63,1.73,2.83,3.37,2.94l-1.16,3.93c-.18,.6-.06,1.26,.32,1.76,.38,.51,.97,.8,1.6,.8h2.95v11.77c0,.17,0,.34,0,.51,.16,2.31,2.08,4.11,4.39,4.11,.1,0,.2,0,.3-.01,1.02-.07,1.94-.48,2.64-1.12,.78,.7,1.81,1.13,2.93,1.13,.1,0,.2,0,.3-.01,1.17-.08,2.25-.61,3.02-1.5,.76-.87,1.14-1.97,1.08-3.12v-11.77h2.93c.63,0,1.22-.3,1.6-.8,.38-.51,.49-1.16,.32-1.76l-1.15-3.91s.07,0,.11,0c.17,0,.34-.01,.51-.04,.18-.03,.36-.08,.52-.16,1.5-.68,2.37-2.23,2.18-3.86-.03-.32-.09-.63-.18-.93-.38-1.3-3.33-11.47-3.87-13.02-.45-1.45-1.3-2.72-2.48-3.69-1.18-1.09-2.7-1.71-4.31-1.73,0,0-.02,0-.03,0h0Z"/>
      </g>
      <g>
        <path class="cls-9" d="M210.04,110.25c-2.34,0-4.25-1.9-4.25-4.25s1.9-4.25,4.25-4.25,4.25,1.9,4.25,4.25-1.91,4.25-4.25,4.25Z"/>
        <path class="cls-3" d="M210.04,102.76c1.79,0,3.25,1.45,3.25,3.25s-1.45,3.25-3.25,3.25-3.25-1.45-3.25-3.25,1.45-3.25,3.25-3.25m0-2c-2.89,0-5.25,2.35-5.25,5.25s2.35,5.25,5.25,5.25,5.25-2.35,5.25-5.25-2.35-5.25-5.25-5.25h0Z"/>
      </g>
      <g>
        <ellipse class="cls-9" cx="251.24" cy="86.58" rx="5.31" ry="5.32"/>
        <path class="cls-3" d="M251.24,82.27c2.38,0,4.31,1.93,4.31,4.32s-1.93,4.32-4.31,4.32-4.31-1.93-4.31-4.32,1.93-4.32,4.31-4.32m0-2c-3.48,0-6.31,2.83-6.31,6.32s2.83,6.32,6.31,6.32,6.31-2.83,6.31-6.32-2.83-6.32-6.31-6.32h0Z"/>
      </g>
      <g>
        <path class="cls-9" d="M232.31,92.05c-1.07,0-2.12-.32-2.99-.91h-2.44c-.38,0-.73-.22-.9-.57-.17-.35-.12-.76,.12-1.06,.6-.76,.91-1.7,.86-2.67v-.19c0-2.97,2.42-5.39,5.39-5.39s5.4,2.42,5.4,5.39v.14c-.05,1.01,.26,1.96,.86,2.72,.24,.3,.29,.71,.12,1.06-.17,.35-.52,.57-.9,.57h-2.53c-.87,.59-1.92,.91-2.97,.91h-.02Z"/>
        <path class="cls-3" d="M232.37,82.27c2.43,0,4.39,1.97,4.39,4.39v.14c-.06,1.21,.33,2.4,1.08,3.34h-2.86c-.76,.59-1.69,.91-2.65,.91,0,0-.01,0-.02,0s-.01,0-.02,0c-.96,0-1.89-.32-2.65-.91h-2.76c.76-.95,1.14-2.13,1.08-3.34v-.14c0-2.43,1.97-4.39,4.39-4.39h.01m0-2h-.01c-3.52,0-6.39,2.87-6.39,6.39v.14s0,.06,0,.1c.03,.72-.2,1.43-.65,2-.48,.6-.57,1.42-.24,2.12s1.03,1.13,1.8,1.13h2.15c.98,.59,2.12,.91,3.27,.91s2.32-.32,3.3-.91h2.24c.77,0,1.47-.44,1.8-1.13s.24-1.51-.24-2.12c-.45-.57-.68-1.28-.65-2,0-.03,0-.06,0-.1v-.14c0-3.52-2.87-6.39-6.39-6.39h0Z"/>
      </g>
      <g>
        <path class="cls-9" d="M259.22,104.87c-.9,0-1.74-.44-2.26-1.17l-1.23-1.58-3.43-4.58c-.65-.72-.83-1.86-.42-2.83,.45-.9,1.3-1.43,2.24-1.44,.18,0,.36,.03,.53,.07,.01-.02,1.79-1.94,1.79-1.94,.19-.21,.46-.32,.73-.32,.07,0,.15,0,.22,.02,2.73,.61,4.57,3.18,4.57,6.38v5.29c0,1.3-1.37,2.08-2.7,2.08h-.04Z"/>
        <path class="cls-3" d="M257.16,92.09c2.36,.53,3.79,2.75,3.79,5.41v5.29c0,.66-.88,1.08-1.7,1.08-.01,0-.02,0-.04,0-.57,0-1.11-.28-1.45-.75l-1.25-1.61-3.42-4.57c-.45-.5-.57-1.22-.3-1.84,.25-.51,.77-.83,1.33-.83,.56,.03,1.08,.31,1.41,.78l3.03,3.93s.07,.06,.11,.06c.01,0,.02,0,.04,0,.05-.03,.08-.08,.08-.13v-.77s.01-.06,0-.09l-2.67-3.44c-.2-.25-.43-.46-.69-.64l1.74-1.88m0-2c-.55,0-1.08,.23-1.47,.64l-1.43,1.55s-.03,0-.04,0c-.03,0-.06,0-.1,0,0,0-.01,0-.02,0-1.32,.01-2.51,.76-3.1,1.94-.02,.04-.03,.07-.05,.11-.55,1.29-.32,2.8,.58,3.87l3.38,4.51,1.26,1.61c.71,.97,1.84,1.55,3.05,1.55,.01,0,.06,0,.08,0h0c2.03,0,3.66-1.35,3.66-3.08v-5.29c0-3.68-2.15-6.64-5.35-7.36-.15-.03-.29-.05-.44-.05h0Z"/>
      </g>
    </g>
    <rect class="cls-2" x="369.12" y="95.32" width="132.62" height="35.58"/>
    <g>
      <path class="cls-1" d="M376.85,101.79h1.52l1.18,4.61h.02v-4.61h1.08v7.7h-1.24l-1.45-5.62h-.02v5.62h-1.08v-7.7Z"/>
      <path class="cls-1" d="M381.76,101.79h3.3v1.1h-2.09v2.04h1.66v1.1h-1.66v2.37h2.09v1.1h-3.3v-7.7Z"/>
      <path class="cls-1" d="M386.92,102.89h-1.27v-1.1h3.74v1.1h-1.27v6.6h-1.21v-6.6Z"/>
      <path class="cls-1" d="M392.09,107.67v-4.05c0-1.23,.65-1.94,1.84-1.94s1.84,.7,1.84,1.94v4.05c0,1.23-.65,1.94-1.84,1.94s-1.84-.7-1.84-1.94Zm2.46,.08v-4.2c0-.55-.24-.76-.63-.76s-.63,.21-.63,.76v4.2c0,.55,.24,.76,.63,.76s.63-.21,.63-.76Z"/>
      <path class="cls-1" d="M396.8,101.79h1.85c1.21,0,1.8,.67,1.8,1.9v3.89c0,1.23-.59,1.9-1.8,1.9h-1.85v-7.7Zm1.83,6.6c.38,0,.62-.2,.62-.75v-4c0-.55-.23-.75-.62-.75h-.62v5.5h.62Z"/>
      <path class="cls-1" d="M402.4,101.79h1.64l1.25,7.7h-1.21l-.22-1.53v.02h-1.38l-.22,1.51h-1.12l1.25-7.7Zm1.32,5.15l-.54-3.81h-.02l-.53,3.81h1.09Z"/>
      <path class="cls-1" d="M408.07,101.79h1.79c1.25,0,1.79,.58,1.79,1.77v.47c0,.79-.25,1.3-.79,1.52v.02c.61,.19,.8,.76,.8,1.63v1.35c0,.37,.01,.65,.13,.94h-1.23c-.07-.2-.11-.32-.11-.95v-1.41c0-.71-.21-.95-.76-.95h-.42v3.3h-1.21v-7.7Zm1.65,3.3c.45,0,.73-.2,.73-.81v-.59c0-.55-.19-.79-.62-.79h-.55v2.2h.44Z"/>
      <path class="cls-1" d="M412.73,101.79h3.3v1.1h-2.09v2.04h1.66v1.1h-1.66v2.37h2.09v1.1h-3.3v-7.7Z"/>
      <path class="cls-1" d="M417.88,101.79h1.64l1.25,7.7h-1.21l-.22-1.53v.02h-1.38l-.22,1.51h-1.12l1.25-7.7Zm1.32,5.15l-.54-3.81h-.02l-.53,3.81h1.09Z"/>
      <path class="cls-1" d="M421.47,107.71v-4.14c0-1.19,.62-1.89,1.78-1.89s1.78,.7,1.78,1.89v.81h-1.14v-.89c0-.51-.24-.71-.6-.71s-.61,.21-.61,.71v4.3c0,.51,.24,.7,.61,.7s.6-.2,.6-.7v-1.18h1.14v1.09c0,1.19-.62,1.89-1.78,1.89s-1.78-.7-1.78-1.89Z"/>
      <path class="cls-1" d="M425.98,101.79h1.21v3.14h1.3v-3.14h1.21v7.7h-1.21v-3.47h-1.3v3.47h-1.21v-7.7Z"/>
      <path class="cls-1" d="M430.82,101.79h3.3v1.1h-2.09v2.04h1.66v1.1h-1.66v2.37h2.09v1.1h-3.3v-7.7Z"/>
      <path class="cls-1" d="M435.04,101.79h1.85c1.21,0,1.8,.67,1.8,1.9v3.89c0,1.23-.59,1.9-1.8,1.9h-1.85v-7.7Zm1.83,6.6c.38,0,.62-.2,.62-.75v-4c0-.55-.23-.75-.62-.75h-.62v5.5h.62Z"/>
      <path class="cls-1" d="M441.61,107.67v-4.05c0-1.23,.65-1.94,1.84-1.94s1.84,.7,1.84,1.94v4.05c0,1.23-.65,1.94-1.84,1.94s-1.84-.7-1.84-1.94Zm2.46,.08v-4.2c0-.55-.24-.76-.63-.76s-.63,.21-.63,.76v4.2c0,.55,.24,.76,.63,.76s.63-.21,.63-.76Z"/>
      <path class="cls-1" d="M446.32,108.33h1.17v1.17h-1.17v-1.17Z"/>
      <path class="cls-1" d="M448.52,107.69v-.63h1.14v.68c0,.55,.24,.76,.63,.76s.63-.19,.63-.87v-.63c0-.72-.24-.98-.79-.98h-.41v-1.1h.44c.45,0,.73-.2,.73-.81v-.56c0-.55-.25-.77-.61-.77s-.58,.21-.58,.71v.51h-1.14v-.41c0-1.23,.62-1.91,1.77-1.91s1.77,.67,1.77,1.9v.27c0,.83-.26,1.33-.86,1.55v.02c.65,.24,.89,.8,.89,1.58v.68c0,1.23-.62,1.9-1.8,1.9s-1.8-.68-1.8-1.91Z"/>
      <path class="cls-1" d="M455.59,102.89h-2.44v-1.1h3.63v1.06l-1.89,6.65h-1.23l1.94-6.6Z"/>
      <path class="cls-1" d="M457.78,104.84v-1.93c0-.79,.41-1.23,1.17-1.23s1.17,.44,1.17,1.23v1.93c0,.79-.41,1.23-1.17,1.23s-1.17-.44-1.17-1.23Zm1.56,.06v-2.04c0-.34-.15-.48-.4-.48s-.4,.14-.4,.48v2.04c0,.34,.14,.48,.4,.48s.4-.14,.4-.48Zm2.4-3.1h.77l-2.98,7.7h-.77l2.98-7.7Zm-.58,6.58v-1.93c0-.79,.41-1.23,1.17-1.23s1.17,.44,1.17,1.23v1.93c0,.79-.41,1.23-1.17,1.23s-1.17-.44-1.17-1.23Zm1.56,.05v-2.04c0-.34-.15-.48-.4-.48s-.4,.14-.4,.48v2.04c0,.34,.14,.48,.4,.48s.4-.14,.4-.48Z"/>
      <path class="cls-1" d="M466.44,107.67v-4.05c0-1.23,.65-1.94,1.84-1.94s1.84,.7,1.84,1.94v4.05c0,1.23-.65,1.94-1.84,1.94s-1.84-.7-1.84-1.94Zm2.46,.08v-4.2c0-.55-.24-.76-.63-.76s-.63,.21-.63,.76v4.2c0,.55,.24,.76,.63,.76s.63-.21,.63-.76Z"/>
      <path class="cls-1" d="M471.15,101.79h3.2v1.1h-1.99v2.15h1.56v1.1h-1.56v3.36h-1.21v-7.7Z"/>
      <path class="cls-1" d="M477.04,107.67v-4.05c0-1.23,.62-1.94,1.8-1.94s1.8,.7,1.8,1.94v.66h-1.14v-.74c0-.55-.24-.76-.63-.76s-.63,.21-.63,.76v4.21c0,.55,.24,.75,.63,.75s.63-.2,.63-.75v-1.51h-.6v-1.1h1.75v2.52c0,1.23-.62,1.94-1.8,1.94s-1.8-.7-1.8-1.94Z"/>
      <path class="cls-1" d="M481.65,101.79h1.52l1.18,4.61h.02v-4.61h1.08v7.7h-1.24l-1.45-5.62h-.02v5.62h-1.08v-7.7Z"/>
      <path class="cls-1" d="M486.57,101.79h1.21v7.7h-1.21v-7.7Z"/>
      <path class="cls-1" d="M489.3,109.5h-.4v-1.17h1.17v1.04l-.61,1.44h-.56l.4-1.32Z"/>
      <path class="cls-1" d="M376.64,121.67v-.44h1.14v.53c0,.55,.24,.75,.63,.75s.63-.2,.63-.77c0-.64-.24-1.04-1.03-1.74-1.01-.89-1.34-1.52-1.34-2.4,0-1.21,.63-1.91,1.8-1.91s1.76,.7,1.76,1.94v.32h-1.14v-.4c0-.55-.22-.76-.61-.76s-.6,.21-.6,.74c0,.56,.25,.97,1.04,1.66,1.01,.89,1.33,1.51,1.33,2.46,0,1.25-.64,1.96-1.83,1.96s-1.78-.7-1.78-1.94Z"/>
      <path class="cls-1" d="M382.1,116.89h-1.27v-1.1h3.74v1.1h-1.27v6.6h-1.21v-6.6Z"/>
      <path class="cls-1" d="M385.38,115.79h1.21v7.7h-1.21v-7.7Z"/>
      <path class="cls-1" d="M387.71,115.79h1.21v6.6h1.99v1.1h-3.2v-7.7Z"/>
      <path class="cls-1" d="M391.72,115.79h1.21v6.6h1.99v1.1h-3.2v-7.7Z"/>
      <path class="cls-1" d="M397.7,115.79h1.83c1.25,0,1.79,.58,1.79,1.77v.31c0,.79-.24,1.29-.78,1.51v.02c.65,.22,.9,.79,.9,1.61v.66c0,1.19-.63,1.83-1.84,1.83h-1.9v-7.7Zm1.68,3.14c.45,0,.73-.2,.73-.81v-.43c0-.55-.19-.79-.62-.79h-.58v2.04h.47Zm.22,3.47c.41,0,.63-.19,.63-.76v-.67c0-.72-.23-.94-.78-.94h-.54v2.37h.69Z"/>
      <path class="cls-1" d="M402.37,115.79h3.3v1.1h-2.09v2.04h1.66v1.1h-1.66v2.37h2.09v1.1h-3.3v-7.7Z"/>
      <path class="cls-1" d="M406.58,115.79h1.21v6.6h1.99v1.1h-3.2v-7.7Z"/>
      <path class="cls-1" d="M410.45,121.67v-4.05c0-1.23,.65-1.94,1.84-1.94s1.84,.7,1.84,1.94v4.05c0,1.23-.65,1.94-1.84,1.94s-1.84-.7-1.84-1.94Zm2.46,.08v-4.2c0-.55-.24-.76-.63-.76s-.63,.21-.63,.76v4.2c0,.55,.24,.76,.63,.76s.63-.21,.63-.76Z"/>
      <path class="cls-1" d="M414.87,115.79h1.17l.54,5.92h.02l.57-5.92h1.32l.57,5.92h.02l.54-5.92h1.04l-.78,7.7h-1.51l-.55-5.19h-.02l-.55,5.19h-1.61l-.78-7.7Z"/>
      <path class="cls-1" d="M424.43,116.89h-1.27v-1.1h3.74v1.1h-1.27v6.6h-1.21v-6.6Z"/>
      <path class="cls-1" d="M427.71,115.79h1.21v3.14h1.3v-3.14h1.21v7.7h-1.21v-3.47h-1.3v3.47h-1.21v-7.7Z"/>
      <path class="cls-1" d="M432.55,115.79h3.3v1.1h-2.09v2.04h1.66v1.1h-1.66v2.37h2.09v1.1h-3.3v-7.7Z"/>
      <path class="cls-1" d="M439.69,116.89h-1.27v-1.1h3.74v1.1h-1.26v6.6h-1.21v-6.6Z"/>
      <path class="cls-1" d="M443.39,115.79h1.64l1.25,7.7h-1.21l-.22-1.53v.02h-1.38l-.22,1.51h-1.12l1.25-7.7Zm1.32,5.15l-.54-3.81h-.02l-.53,3.81h1.09Z"/>
      <path class="cls-1" d="M447.09,115.79h1.79c1.25,0,1.79,.58,1.79,1.77v.47c0,.79-.25,1.3-.79,1.52v.02c.61,.19,.8,.76,.8,1.63v1.35c0,.37,.01,.65,.13,.94h-1.23c-.07-.2-.11-.32-.11-.95v-1.41c0-.71-.21-.95-.76-.95h-.42v3.3h-1.21v-7.7Zm1.65,3.3c.45,0,.73-.2,.73-.81v-.59c0-.55-.19-.79-.62-.79h-.55v2.2h.44Z"/>
      <path class="cls-1" d="M451.66,121.67v-4.05c0-1.23,.62-1.94,1.8-1.94s1.8,.7,1.8,1.94v.66h-1.14v-.74c0-.55-.24-.76-.63-.76s-.63,.21-.63,.76v4.21c0,.55,.24,.75,.63,.75s.63-.2,.63-.75v-1.51h-.6v-1.1h1.75v2.52c0,1.23-.62,1.94-1.8,1.94s-1.8-.7-1.8-1.94Z"/>
      <path class="cls-1" d="M456.27,115.79h3.3v1.1h-2.09v2.04h1.66v1.1h-1.66v2.37h2.09v1.1h-3.3v-7.7Z"/>
      <path class="cls-1" d="M461.43,116.89h-1.27v-1.1h3.74v1.1h-1.26v6.6h-1.21v-6.6Z"/>
      <path class="cls-1" d="M466.59,121.67v-4.05c0-1.23,.65-1.94,1.84-1.94s1.84,.7,1.84,1.94v4.05c0,1.23-.65,1.94-1.84,1.94s-1.84-.7-1.84-1.94Zm2.46,.08v-4.2c0-.55-.24-.76-.63-.76s-.63,.21-.63,.76v4.2c0,.55,.24,.76,.63,.76s.63-.21,.63-.76Z"/>
      <path class="cls-1" d="M471.3,115.79h3.2v1.1h-1.99v2.15h1.56v1.1h-1.56v3.36h-1.21v-7.7Z"/>
      <path class="cls-1" d="M477.2,121.67v-4.05c0-1.23,.65-1.94,1.84-1.94s1.84,.7,1.84,1.94v4.05c0,1.23-.65,1.94-1.84,1.94s-1.84-.7-1.84-1.94Zm2.46,.08v-4.2c0-.55-.24-.76-.63-.76s-.63,.21-.63,.76v4.2c0,.55,.24,.76,.63,.76s.63-.21,.63-.76Z"/>
      <path class="cls-1" d="M481.91,122.33h1.17v1.17h-1.17v-1.17Z"/>
      <path class="cls-1" d="M486.56,116.89h-2.44v-1.1h3.63v1.06l-1.89,6.65h-1.23l1.94-6.6Z"/>
      <path class="cls-1" d="M488.75,118.84v-1.93c0-.79,.41-1.23,1.17-1.23s1.17,.44,1.17,1.23v1.93c0,.79-.41,1.23-1.17,1.23s-1.17-.44-1.17-1.23Zm1.56,.06v-2.04c0-.34-.15-.48-.4-.48s-.4,.14-.4,.48v2.04c0,.34,.14,.48,.4,.48s.4-.14,.4-.48Zm2.4-3.1h.77l-2.98,7.7h-.77l2.98-7.7Zm-.58,6.58v-1.93c0-.79,.41-1.23,1.17-1.23s1.17,.44,1.17,1.23v1.93c0,.79-.41,1.23-1.17,1.23s-1.17-.44-1.17-1.23Zm1.56,.05v-2.04c0-.34-.15-.48-.4-.48s-.4,.14-.4,.48v2.04c0,.34,.14,.48,.4,.48s.4-.14,.4-.48Z"/>
    </g>
    <g>
      <polyline class="cls-10" points="532.88 69.73 545.31 69.73 545.31 113.01 508.88 113.01"/>
      <circle class="cls-3" cx="508.98" cy="113.01" r="1.88"/>
    </g>
  </g>
</svg>