<?xml version="1.0" encoding="UTF-8"?>
<svg id="Layer_2" data-name="Layer 2" xmlns="http://www.w3.org/2000/svg" viewBox="0 0 261.08 151.42">
  <defs>
    <style>
      .cls-1 {
        fill: #eaeaef;
      }

      .cls-1, .cls-2 {
        stroke: #eaeaef;
        stroke-width: 18px;
      }

      .cls-1, .cls-2, .cls-3, .cls-4 {
        stroke-linecap: round;
        stroke-linejoin: round;
      }

      .cls-5 {
        fill: #939598;
      }

      .cls-6, .cls-2, .cls-3, .cls-4 {
        fill: none;
      }

      .cls-6, .cls-4, .cls-7 {
        stroke: #1a3668;
      }

      .cls-6, .cls-7 {
        stroke-miterlimit: 10;
        stroke-width: .89px;
      }

      .cls-8 {
        fill: #1a3668;
      }

      .cls-3 {
        stroke: #d4d3de;
      }

      .cls-3, .cls-4 {
        stroke-width: 1.25px;
      }

      .cls-7 {
        fill: #fff;
      }
    </style>
  </defs>
  <g id="Layer_2-2" data-name="Layer 2">
    <g>
      <path class="cls-1" d="M139.44,133.08c0,5.16-4.18,9.34-9.34,9.34s-9.34-4.18-9.34-9.34,4.18-9.34,9.34-9.34,9.34,4.18,9.34,9.34Z"/>
      <path class="cls-2" d="M43.06,45.09C91.18-3.03,169.05-3.03,217.16,45.09"/>
      <path class="cls-2" d="M63.86,65.23c36.62-36.62,95.88-36.62,132.5,0"/>
      <path class="cls-2" d="M81.75,86.91c26.73-26.73,69.99-26.73,96.72,0"/>
      <path class="cls-2" d="M101.09,108.29c16.04-16.03,42-16.03,58.03,0"/>
    </g>
    <g>
      <path class="cls-8" d="M.24,39.41c0-2.6,.73-4.19,2.86-6.42,2.18-2.31,2.81-3.69,2.81-5.38s-.57-2.08-1.48-2.08-1.48,.49-1.48,1.79v1.95H.24v-1.77c0-2.91,1.46-4.58,4.26-4.58s4.26,1.66,4.26,4.58c0,2.16-.88,4.08-3.54,6.89-1.72,1.82-2.16,2.73-2.16,4v.39h5.43v2.6H.24v-1.98Z"/>
      <path class="cls-8" d="M14.52,25.78h1.98v12.6h-1.98v-12.6Z"/>
      <path class="cls-8" d="M17.98,25.78h2.48l1.93,7.54h.04v-7.54h1.76v12.6h-2.04l-2.38-9.2h-.04v9.2h-1.76v-12.6Z"/>
      <path class="cls-8" d="M29.94,37.12v-1.48h2.7v1.61c0,1.3,.57,1.79,1.48,1.79s1.48-.44,1.48-2.05v-1.48c0-1.69-.57-2.31-1.87-2.31h-.96v-2.6h1.04c1.07,0,1.72-.47,1.72-1.92v-1.33c0-1.3-.6-1.82-1.43-1.82s-1.38,.49-1.38,1.69v1.2h-2.71v-.96c0-2.91,1.46-4.52,4.19-4.52s4.19,1.59,4.19,4.5v.65c0,1.95-.62,3.15-2.03,3.67v.05c1.53,.57,2.11,1.9,2.11,3.74v1.61c0,2.91-1.46,4.5-4.26,4.5s-4.26-1.61-4.26-4.52Z"/>
      <path class="cls-8" d="M43.3,28.08h3.08c2.09,0,3.12,1.16,3.12,3.29v1.31c0,2.13-1.03,3.29-3.12,3.29h-.99v5.41h-2.09v-13.3Zm3.08,5.98c.67,0,1.03-.3,1.03-1.25v-1.58c0-.95-.36-1.25-1.03-1.25h-.99v4.08h.99Z"/>
      <path class="cls-8" d="M50.64,28.08h5.7v1.9h-3.61v3.51h2.87v1.9h-2.87v4.08h3.61v1.9h-5.7v-13.3Z"/>
      <path class="cls-8" d="M57.38,38.23v-6.99c0-2.13,1.12-3.34,3.17-3.34s3.17,1.22,3.17,3.34v6.99c0,2.13-1.12,3.34-3.17,3.34s-3.17-1.22-3.17-3.34Zm4.25,.13v-7.26c0-.95-.42-1.31-1.08-1.31s-1.08,.36-1.08,1.31v7.26c0,.95,.42,1.31,1.08,1.31s1.08-.36,1.08-1.31Z"/>
      <path class="cls-8" d="M65.13,28.08h3.08c2.09,0,3.12,1.16,3.12,3.29v1.31c0,2.13-1.03,3.29-3.12,3.29h-.99v5.41h-2.09v-13.3Zm3.08,5.98c.67,0,1.03-.3,1.03-1.25v-1.58c0-.95-.36-1.25-1.03-1.25h-.99v4.08h.99Z"/>
      <path class="cls-8" d="M72.47,28.08h2.09v11.4h3.44v1.9h-5.53v-13.3Z"/>
      <path class="cls-8" d="M79,28.08h5.7v1.9h-3.61v3.51h2.87v1.9h-2.87v4.08h3.61v1.9h-5.7v-13.3Z"/>
      <path class="cls-8" d="M.18,63.07v-13.88H3.04v14.09c0,1.3,.55,1.77,1.46,1.77s1.46-.47,1.46-1.77v-14.09h2.76v13.88c0,2.91-1.46,4.58-4.26,4.58S.18,65.98,.18,63.07Z"/>
      <path class="cls-8" d="M10.25,63.07v-1.04h2.7v1.25c0,1.3,.57,1.77,1.48,1.77s1.48-.47,1.48-1.82c0-1.51-.57-2.47-2.44-4.11-2.39-2.11-3.17-3.59-3.17-5.67,0-2.86,1.48-4.52,4.26-4.52s4.16,1.66,4.16,4.58v.75h-2.7v-.94c0-1.3-.52-1.79-1.43-1.79s-1.43,.49-1.43,1.74c0,1.33,.6,2.29,2.47,3.93,2.39,2.11,3.15,3.56,3.15,5.82,0,2.96-1.51,4.63-4.32,4.63s-4.21-1.66-4.21-4.58Z"/>
      <path class="cls-8" d="M20.41,49.18h7.8v2.6h-4.94v4.81h3.93v2.6h-3.93v5.59h4.94v2.6h-7.8v-18.2Z"/>
      <path class="cls-8" d="M29.85,49.18h4.37c2.86,0,4.26,1.59,4.26,4.5v9.2c0,2.91-1.4,4.5-4.26,4.5h-4.37v-18.2Zm4.32,15.6c.91,0,1.46-.47,1.46-1.77v-9.46c0-1.3-.55-1.77-1.46-1.77h-1.46v13h1.46Z"/>
      <path class="cls-8" d="M46.8,51.78h-2.99v-2.6h8.84v2.6h-2.99v15.6h-2.86v-15.6Z"/>
      <path class="cls-8" d="M54.03,49.18h2.86v7.41h3.07v-7.41h2.86v18.2h-2.86v-8.19h-3.07v8.19h-2.86v-18.2Z"/>
      <path class="cls-8" d="M64.95,49.18h7.8v2.6h-4.94v4.81h3.93v2.6h-3.93v5.59h4.94v2.6h-7.8v-18.2Z"/>
      <path class="cls-8" d="M78.55,49.18h2.86v18.2h-2.86v-18.2Z"/>
      <path class="cls-8" d="M83.54,49.18h3.59l2.78,10.89h.05v-10.89h2.55v18.2h-2.94l-3.43-13.29h-.05v13.29h-2.55v-18.2Z"/>
      <path class="cls-8" d="M96.88,51.78h-2.99v-2.6h8.84v2.6h-2.99v15.6h-2.86v-15.6Z"/>
      <path class="cls-8" d="M104.11,49.18h7.8v2.6h-4.94v4.81h3.93v2.6h-3.93v5.59h4.94v2.6h-7.8v-18.2Z"/>
      <path class="cls-8" d="M113.54,49.18h4.24c2.96,0,4.24,1.38,4.24,4.19v1.12c0,1.87-.6,3.07-1.87,3.59v.05c1.43,.44,1.9,1.79,1.9,3.85v3.2c0,.88,.03,1.53,.31,2.21h-2.91c-.16-.47-.26-.75-.26-2.24v-3.33c0-1.69-.49-2.24-1.79-2.24h-.99v7.8h-2.86v-18.2Zm3.9,7.8c1.07,0,1.72-.47,1.72-1.92v-1.4c0-1.3-.44-1.87-1.46-1.87h-1.3v5.2h1.04Z"/>
      <path class="cls-8" d="M124.02,49.18h3.59l2.78,10.89h.05v-10.89h2.55v18.2h-2.94l-3.43-13.29h-.05v13.29h-2.55v-18.2Z"/>
      <path class="cls-8" d="M135.12,49.18h7.8v2.6h-4.94v4.81h3.93v2.6h-3.93v5.59h4.94v2.6h-7.8v-18.2Z"/>
      <path class="cls-8" d="M146.8,51.78h-2.99v-2.6h8.84v2.6h-2.99v15.6h-2.86v-15.6Z"/>
    </g>
    <g>
      <path class="cls-4" d="M181.83,33.62c0,.56-.46,1.02-1.02,1.02s-1.02-.46-1.02-1.02,.46-1.02,1.02-1.02,1.02,.46,1.02,1.02Z"/>
      <path class="cls-4" d="M171.28,23.98c5.27-5.27,13.79-5.27,19.06,0"/>
      <path class="cls-4" d="M173.56,26.19c4.01-4.01,10.5-4.01,14.5,0"/>
      <path class="cls-4" d="M175.52,28.56c2.93-2.93,7.66-2.93,10.59,0"/>
      <path class="cls-4" d="M177.64,30.9c1.76-1.76,4.6-1.76,6.35,0"/>
    </g>
    <path class="cls-8" d="M247.89,57.96s-3.83-7.9-4.68-8.85c-.87-.98-1.93-1.53-3.2-1.69,1.11-.91,1.82-2.3,1.82-3.85,0-2.74-2.23-4.97-4.97-4.97s-4.97,2.23-4.97,4.97c0,1.55,.71,2.93,1.82,3.85-1.27,.15-2.32,.71-3.2,1.68-.85,.96-4.68,8.86-4.68,8.86-.68,1.39-.1,3.08,1.3,3.76,1.62,.66,2.6,.02,3.11-.43l-1.15,5.71h2.8v5.02c0,1.62,1.32,2.95,2.95,2.95,.78,0,1.49-.31,2.02-.8,.53,.51,1.25,.82,2.03,.82,1.62,0,2.95-1.32,2.95-2.95v-5.03h2.87l-1.17-5.65c.5,.42,1.53,.99,3.05,.38,1.4-.68,1.96-2.4,1.3-3.76Zm-14.71-14.39c0-2.03,1.65-3.68,3.68-3.68s3.68,1.65,3.68,3.68-1.65,3.68-3.68,3.68-3.68-1.65-3.68-3.68Zm3.32,28.44c0,.91-.74,1.66-1.66,1.66s-1.66-.74-1.66-1.66v-5.35h3.31v5.35Zm4.05,.01c0,.91-.74,1.66-1.66,1.66s-1.66-.74-1.66-1.66v-5.36h3.31v5.36Zm5.48-11.47c-1,.49-1.78-.16-2.04-.7l-.27-.52c.12-.05,.2-.16,.2-.29,0-.17-.14-.32-.32-.32-.06,0-.12,.02-.17,.05l-1.24-2.41c.14-.03,.24-.16,.24-.31,0-.17-.14-.32-.32-.32-.08,0-.15,.03-.21,.08l-1.25-2.43c.16-.02,.29-.15,.29-.31,0-.17-.14-.32-.32-.32s-.32,.14-.32,.32c0,.16,.13,.3,.29,.31l.19,.9s-.1-.04-.16-.04c-.17,0-.32,.14-.32,.32s.14,.32,.32,.32c.1,0,.19-.05,.25-.13l.36,1.76c-.11,.05-.19,.16-.19,.29,0,0,0,0,0,0s0,0,0,0c0,.17,.14,.31,.31,.32l.19,.92c-.05-.04-.12-.06-.19-.06-.17,0-.32,.14-.32,.32s.14,.32,.32,.32c.12,0,.22-.06,.27-.16l.37,1.78c-.12,.04-.21,.16-.21,.3,0,.17,.14,.32,.32,.32,0,0,.01,0,.02,0l.19,.94c-.06-.05-.13-.08-.21-.08-.17,0-.32,.14-.32,.32s.14,.32,.32,.32c.13,0,.24-.08,.29-.19l.37,1.8c-.13,.04-.23,.16-.23,.3,0,.17,.14,.32,.32,.32,.01,0,.03,0,.04,0l.2,.97c-.06-.07-.14-.12-.24-.12-.16,0-.29,.12-.31,.28h-.87c-.02-.16-.15-.28-.31-.28s-.29,.12-.31,.28h-.86c-.02-.16-.15-.28-.31-.28s-.29,.12-.31,.28h-.86c-.02-.16-.15-.28-.31-.28s-.29,.12-.31,.28h-.86c-.02-.16-.15-.28-.31-.28s-.29,.12-.31,.28h-.87c-.02-.16-.15-.28-.31-.28s-.29,.12-.31,.28h-.86c-.02-.16-.15-.28-.31-.28s-.29,.12-.31,.28h-.87c-.02-.16-.15-.28-.31-.28s-.29,.12-.31,.28h-.87c-.02-.16-.15-.28-.31-.28-.09,0-.17,.04-.23,.1l.19-.96s.02,0,.04,0c.17,0,.32-.14,.32-.32,0-.14-.1-.26-.23-.3l.37-1.82c.05,.12,.16,.2,.29,.2,.17,0,.32-.14,.32-.32s-.14-.32-.32-.32c-.09,0-.17,.04-.23,.1l.19-.96s.02,0,.03,0c.17,0,.32-.14,.32-.32,0-.14-.1-.26-.23-.3l.36-1.81c.05,.11,.16,.19,.29,.19,.17,0,.32-.14,.32-.32s-.14-.32-.32-.32c-.09,0-.16,.03-.22,.09l.19-.95s.02,0,.03,0c.17,0,.32-.14,.32-.32h0c0-.14-.09-.26-.22-.3l.36-1.8c.05,.11,.16,.19,.29,.19,.17,0,.32-.14,.32-.32s-.14-.32-.32-.32c-.08,0-.16,.03-.21,.09l.19-.95s.02,0,.02,0c.17,0,.32-.14,.32-.32s-.14-.32-.32-.32-.32,.14-.32,.32c0,.15,.1,.27,.24,.3l-1.24,2.4s-.1-.05-.16-.05c-.17,0-.32,.14-.32,.32,0,.13,.08,.24,.19,.29l-1.24,2.4s-.08-.02-.12-.02c-.17,0-.32,.14-.32,.32,0,.11,.06,.21,.15,.27l-.28,.54c-.26,.54-1.08,1.07-2.04,.7-.79-.3-1.07-1.28-.7-2.04l.73-1.5c.06,.06,.14,.1,.23,.1,.17,0,.32-.14,.32-.32h0c0-.17-.13-.3-.29-.32l.78-1.61c.15-.03,.26-.16,.26-.31,0-.05-.01-.1-.04-.15l.2-.42c.06,.08,.15,.14,.26,.14,.17,0,.32-.14,.32-.32s-.14-.32-.32-.32c0,0-.02,0-.02,0l.06-.12c.26-.53,.5-1.03,.74-1.49,.16-.01,.29-.15,.29-.31,0-.05-.02-.11-.04-.15,.07-.13,.15-.26,.23-.39,.06,.07,.14,.11,.24,.11,.17,0,.32-.14,.32-.32,0-.14-.1-.26-.23-.3,.11-.16,.23-.31,.34-.45,0,0,0,0,0,.01,0,.17,.14,.32,.32,.32s.32-.14,.32-.32-.14-.32-.32-.32c-.02,0-.03,0-.05,0,.15-.15,.31-.29,.47-.42,0,.17,.15,.3,.31,.3s.32-.14,.32-.32c0-.12-.07-.22-.17-.28,.14-.07,.29-.14,.44-.19,.05,.02,.1,.04,.15,.04,.12,0,.22-.07,.28-.16,.28-.06,.58-.1,.9-.1,.02,.15,.15,.27,.31,.27s.29-.12,.31-.27h.87c.02,.15,.15,.27,.31,.27s.29-.12,.31-.27h.87c.02,.15,.15,.27,.31,.27s.29-.12,.31-.27h.87c.02,.15,.15,.27,.31,.27s.29-.12,.31-.27c.33,.01,.63,.05,.91,.12,.06,.09,.15,.15,.27,.15,.05,0,.09,0,.13-.03,.15,.06,.3,.12,.44,.2-.08,.06-.14,.15-.14,.26,0,.17,.14,.32,.32,.32,.15,0,.28-.11,.31-.26,.14,.11,.28,.24,.41,.37-.16,.01-.3,.15-.3,.31s.14,.32,.32,.32c.15,0,.28-.11,.31-.26,.1,.13,.2,.26,.3,.4-.11,.05-.18,.16-.18,.28,0,.17,.14,.32,.32,.32,.08,0,.15-.03,.2-.07,.4,.66,.77,1.44,1.19,2.3l.06,.13c-.16,.02-.28,.15-.28,.31,0,.17,.14,.32,.32,.32,.09,0,.17-.04,.22-.09l1.19,2.45c-.14,.04-.24,.16-.24,.31h0c0,.18,.14,.32,.32,.32,.07,0,.14-.02,.19-.07l.71,1.46c.37,.76,.05,1.67-.7,2.04Zm-10.31-11.2c0,.17-.14,.32-.32,.32s-.32-.14-.32-.32,.14-.32,.32-.32,.32,.14,.32,.32Zm-1.49,0c0,.17-.14,.32-.32,.32s-.32-.14-.32-.32,.14-.32,.32-.32,.32,.14,.32,.32Zm-.74,.75c0,.17-.14,.32-.32,.32s-.32-.14-.32-.32,.14-.32,.32-.32,.32,.14,.32,.32Zm1.49,0c0,.17-.14,.32-.32,.32s-.32-.14-.32-.32,.14-.32,.32-.32,.32,.14,.32,.32Zm1.49,0c0,.17-.14,.32-.32,.32s-.32-.14-.32-.32,.14-.32,.32-.32,.32,.14,.32,.32Zm-3.72,.74c0,.17-.14,.32-.32,.32s-.32-.14-.32-.32,.14-.32,.32-.32,.32,.14,.32,.32Zm-.74,.75c0,.17-.14,.32-.32,.32s-.32-.14-.32-.32,.14-.32,.32-.32c.17,0,.32,.14,.32,.32Zm3.72-.75c0,.17-.14,.32-.32,.32s-.32-.14-.32-.32,.14-.32,.32-.32,.32,.14,.32,.32Zm-1.49,0c0,.17-.14,.32-.32,.32s-.32-.14-.32-.32,.14-.32,.32-.32,.32,.14,.32,.32Zm-.74,.75c0,.17-.14,.32-.32,.32s-.32-.14-.32-.32,.14-.32,.32-.32,.32,.14,.32,.32Zm1.49,0c0,.17-.14,.32-.32,.32s-.32-.14-.32-.32,.14-.32,.32-.32,.32,.14,.32,.32Zm1.49,0c0,.17-.14,.32-.32,.32s-.32-.14-.32-.32,.14-.32,.32-.32c.17,0,.32,.14,.32,.32Zm-5.21,.75c0,.17-.14,.32-.32,.32s-.32-.14-.32-.32,.14-.32,.32-.32,.32,.14,.32,.32Zm1.49,0c0,.17-.14,.32-.32,.32s-.32-.14-.32-.32,.14-.32,.32-.32,.32,.14,.32,.32Zm1.49,0c0,.17-.14,.32-.32,.32s-.32-.14-.32-.32,.14-.32,.32-.32,.32,.14,.32,.32Zm1.49,0c0,.17-.14,.32-.32,.32s-.32-.14-.32-.32,.14-.32,.32-.32,.32,.14,.32,.32Zm-4.47,1.49c0,.17-.14,.32-.32,.32s-.32-.14-.32-.32,.14-.32,.32-.32c.17,0,.32,.14,.32,.32Zm1.49,0c0,.17-.14,.32-.32,.32s-.32-.14-.32-.32,.14-.32,.32-.32,.32,.14,.32,.32Zm-2.23-.75c0,.17-.14,.32-.32,.32s-.32-.14-.32-.32,.14-.32,.32-.32,.32,.14,.32,.32Zm0,1.49c0,.17-.14,.32-.32,.32s-.32-.14-.32-.32,.14-.32,.32-.32,.32,.14,.32,.32Zm1.49-1.49c0,.17-.14,.32-.32,.32s-.32-.14-.32-.32,.14-.32,.32-.32,.32,.14,.32,.32Zm0,1.49c0,.17-.14,.32-.32,.32s-.32-.14-.32-.32,.14-.32,.32-.32,.32,.14,.32,.32Zm3.72-.75c0,.17-.14,.32-.32,.32s-.32-.14-.32-.32,.14-.32,.32-.32c.17,0,.32,.14,.32,.32Zm-1.49,0c0,.17-.14,.32-.32,.32s-.32-.14-.32-.32,.14-.32,.32-.32,.32,.14,.32,.32Zm.75-.75c0,.17-.14,.32-.32,.32s-.32-.14-.32-.32,.14-.32,.32-.32,.32,.14,.32,.32Zm0,1.49c0,.17-.14,.32-.32,.32s-.32-.14-.32-.32,.14-.32,.32-.32,.32,.14,.32,.32Zm1.49-1.49c0,.17-.14,.32-.32,.32s-.32-.14-.32-.32,.14-.32,.32-.32,.32,.14,.32,.32Zm0,1.49c0,.17-.14,.32-.32,.32s-.32-.14-.32-.32,.14-.32,.32-.32,.32,.14,.32,.32Zm-5.21,.74c0,.17-.14,.32-.32,.32s-.32-.14-.32-.32,.14-.32,.32-.32,.32,.14,.32,.32Zm-1.49,0c0,.17-.14,.32-.32,.32s-.32-.14-.32-.32,.14-.32,.32-.32,.32,.14,.32,.32Zm-.75,.75c0,.17-.14,.32-.32,.32s-.32-.14-.32-.32,.14-.32,.32-.32c.17,0,.32,.14,.32,.32Zm1.49,0c0,.17-.14,.32-.32,.32s-.32-.14-.32-.32,.14-.32,.32-.32,.32,.14,.32,.32Zm5.21-.75c0,.17-.14,.32-.32,.32s-.32-.14-.32-.32,.14-.32,.32-.32,.32,.14,.32,.32Zm-1.49,0c0,.17-.14,.32-.32,.32s-.32-.14-.32-.32,.14-.32,.32-.32,.32,.14,.32,.32Zm-.74,.75c0,.17-.14,.32-.32,.32s-.32-.14-.32-.32,.14-.32,.32-.32,.32,.14,.32,.32Zm1.49,0c0,.17-.14,.32-.32,.32s-.32-.14-.32-.32,.14-.32,.32-.32,.32,.14,.32,.32Zm1.49,0c0,.17-.14,.32-.32,.32s-.32-.14-.32-.32,.14-.32,.32-.32c.17,0,.32,.14,.32,.32Zm-6.7,.75c0,.18-.14,.32-.32,.32s-.32-.14-.32-.32,.14-.32,.32-.32c.17,0,.32,.14,.32,.32Zm1.49,0c0,.18-.14,.32-.32,.32s-.32-.14-.32-.32,.14-.32,.32-.32c.17,0,.32,.14,.32,.32Zm2.98,0c0,.18-.14,.32-.32,.32s-.32-.14-.32-.32,.14-.32,.32-.32,.32,.14,.32,.32Zm1.49,0c0,.18-.14,.32-.32,.32s-.32-.14-.32-.32,.14-.32,.32-.32c.17,0,.32,.14,.32,.32Zm1.49-7.45c0,.17-.14,.32-.32,.32s-.32-.14-.32-.32,.14-.32,.32-.32,.32,.14,.32,.32Zm2.98,0c0,.17-.14,.32-.32,.32s-.32-.14-.32-.32,.14-.32,.32-.32,.32,.14,.32,.32Zm-2.23,.75c0,.17-.14,.32-.32,.32s-.32-.14-.32-.32,.14-.32,.32-.32,.32,.14,.32,.32Zm1.49,0c0,.17-.14,.32-.32,.32s-.32-.14-.32-.32,.14-.32,.32-.32,.32,.14,.32,.32Zm1.49,0c0,.17-.14,.32-.32,.32s-.32-.14-.32-.32,.14-.32,.32-.32,.32,.14,.32,.32Zm-3.72,.74c0,.17-.14,.32-.32,.32s-.32-.14-.32-.32,.14-.32,.32-.32,.32,.14,.32,.32Zm2.98,0c0,.17-.14,.32-.32,.32s-.32-.14-.32-.32,.14-.32,.32-.32,.32,.14,.32,.32Zm1.49,0c0,.17-.14,.32-.32,.32s-.32-.14-.32-.32,.14-.32,.32-.32,.32,.14,.32,.32Zm-3.72,.75c0,.17-.14,.32-.32,.32s-.32-.14-.32-.32,.14-.32,.32-.32c.17,0,.32,.14,.32,.32Zm1.49,0c0,.17-.14,.32-.32,.32s-.32-.14-.32-.32,.14-.32,.32-.32,.32,.14,.32,.32Zm1.49,0c0,.17-.14,.32-.32,.32s-.32-.14-.32-.32,.14-.32,.32-.32c.17,0,.32,.14,.32,.32Zm1.49,0c0,.17-.14,.32-.32,.32s-.32-.14-.32-.32,.14-.32,.32-.32c.17,0,.32,.14,.32,.32Zm-5.21,.75c0,.17-.14,.32-.32,.32s-.32-.14-.32-.32,.14-.32,.32-.32,.32,.14,.32,.32Zm2.98,0c0,.17-.14,.32-.32,.32s-.32-.14-.32-.32,.14-.32,.32-.32,.32,.14,.32,.32Zm1.49,0c0,.17-.14,.32-.32,.32s-.32-.14-.32-.32,.14-.32,.32-.32,.32,.14,.32,.32Zm-4.47,1.49c0,.17-.14,.32-.32,.32s-.32-.14-.32-.32,.14-.32,.32-.32,.32,.14,.32,.32Zm2.98,0c0,.17-.14,.32-.32,.32s-.32-.14-.32-.32,.14-.32,.32-.32c.17,0,.32,.14,.32,.32Zm1.49,0c0,.17-.14,.32-.32,.32s-.32-.14-.32-.32,.14-.32,.32-.32,.32,.14,.32,.32Zm-3.72-.75c0,.17-.14,.32-.32,.32s-.32-.14-.32-.32,.14-.32,.32-.32,.32,.14,.32,.32Zm1.49,0c0,.17-.14,.32-.32,.32s-.32-.14-.32-.32,.14-.32,.32-.32,.32,.14,.32,.32Zm-1.49,1.49c0,.17-.14,.32-.32,.32s-.32-.14-.32-.32,.14-.32,.32-.32,.32,.14,.32,.32Zm1.49,0c0,.17-.14,.32-.32,.32s-.32-.14-.32-.32,.14-.32,.32-.32,.32,.14,.32,.32Zm2.98-1.49c0,.17-.14,.32-.32,.32s-.32-.14-.32-.32,.14-.32,.32-.32,.32,.14,.32,.32Zm1.49,0c0,.17-.14,.32-.32,.32s-.32-.14-.32-.32,.14-.32,.32-.32,.32,.14,.32,.32Zm-1.49,1.49c0,.17-.14,.32-.32,.32s-.32-.14-.32-.32,.14-.32,.32-.32,.32,.14,.32,.32Zm1.49,0c0,.17-.14,.32-.32,.32s-.32-.14-.32-.32,.14-.32,.32-.32,.32,.14,.32,.32Zm-6.7,.74c0,.17-.14,.32-.32,.32s-.32-.14-.32-.32,.14-.32,.32-.32,.32,.14,.32,.32Zm2.98,0c0,.17-.14,.32-.32,.32s-.32-.14-.32-.32,.14-.32,.32-.32,.32,.14,.32,.32Zm-2.23,.75c0,.17-.14,.32-.32,.32s-.32-.14-.32-.32,.14-.32,.32-.32c.17,0,.32,.14,.32,.32Zm1.49,0c0,.17-.14,.32-.32,.32s-.32-.14-.32-.32,.14-.32,.32-.32,.32,.14,.32,.32Zm.86,0c0-.17,.14-.32,.32-.32s.32,.14,.32,.32-.14,.32-.32,.32-.32-.14-.32-.32Zm4.35-.75c0,.17-.14,.32-.32,.32s-.32-.14-.32-.32,.14-.32,.32-.32,.32,.14,.32,.32Zm-.74,.75c0,.17-.14,.32-.32,.32s-.32-.14-.32-.32,.14-.32,.32-.32c.17,0,.32,.14,.32,.32Zm1.49,0c0,.17-.14,.32-.32,.32s-.32-.14-.32-.32,.14-.32,.32-.32,.32,.14,.32,.32Zm-8.19,.75c0,.18-.14,.32-.32,.32s-.32-.14-.32-.32,.14-.32,.32-.32,.32,.14,.32,.32Zm2.98,0c0,.18-.14,.32-.32,.32s-.32-.14-.32-.32,.14-.32,.32-.32c.17,0,.32,.14,.32,.32Zm4.47,0c0,.18-.14,.32-.32,.32s-.32-.14-.32-.32,.14-.32,.32-.32,.32,.14,.32,.32Zm-5.96-7.45c0,.17-.14,.32-.32,.32s-.32-.14-.32-.32,.14-.32,.32-.32,.32,.14,.32,.32Zm0,1.49c0,.17-.14,.32-.32,.32s-.32-.14-.32-.32,.14-.32,.32-.32,.32,.14,.32,.32Zm0,1.49c0,.17-.14,.32-.32,.32s-.32-.14-.32-.32,.14-.32,.32-.32,.32,.14,.32,.32Zm0,1.49c0,.17-.14,.32-.32,.32s-.32-.14-.32-.32,.14-.32,.32-.32c.17,0,.32,.14,.32,.32Zm0,1.49c0,.17-.14,.32-.32,.32s-.32-.14-.32-.32,.14-.32,.32-.32,.32,.14,.32,.32Zm0,1.49c0,.18-.14,.32-.32,.32s-.32-.14-.32-.32,.14-.32,.32-.32c.17,0,.32,.14,.32,.32Zm4.47-4.47c0,.17-.14,.32-.32,.32s-.32-.14-.32-.32,.14-.32,.32-.32,.32,.14,.32,.32Zm0,1.49c0,.17-.14,.32-.32,.32s-.32-.14-.32-.32,.14-.32,.32-.32,.32,.14,.32,.32Zm0,1.49c0,.17-.14,.32-.32,.32s-.32-.14-.32-.32,.14-.32,.32-.32,.32,.14,.32,.32Zm0,1.49c0,.18-.14,.32-.32,.32s-.32-.14-.32-.32,.14-.32,.32-.32,.32,.14,.32,.32Zm-13.41,1.49c0,.17-.14,.32-.32,.32s-.32-.14-.32-.32,.14-.32,.32-.32,.32,.14,.32,.32Zm-.75-.75c0,.17-.14,.32-.32,.32s-.32-.14-.32-.32,.14-.32,.32-.32,.32,.14,.32,.32Zm1.49,0c0,.17-.14,.32-.32,.32s-.32-.14-.32-.32,.14-.32,.32-.32,.32,.14,.32,.32Zm5.21,.75c0,.17-.14,.32-.32,.32s-.32-.14-.32-.32,.14-.32,.32-.32,.32,.14,.32,.32Zm-1.49,0c0,.17-.14,.32-.32,.32s-.32-.14-.32-.32,.14-.32,.32-.32,.32,.14,.32,.32Zm-.74-.75c0,.17-.14,.32-.32,.32s-.32-.14-.32-.32,.14-.32,.32-.32,.32,.14,.32,.32Zm1.49,0c0,.17-.14,.32-.32,.32s-.32-.14-.32-.32,.14-.32,.32-.32,.32,.14,.32,.32Zm-1.49,1.49c0,.17-.14,.32-.32,.32s-.32-.14-.32-.32,.14-.32,.32-.32,.32,.14,.32,.32Zm1.49,0c0,.17-.14,.32-.32,.32s-.32-.14-.32-.32,.14-.32,.32-.32,.32,.14,.32,.32Zm1.49-1.49c0,.17-.14,.32-.32,.32s-.32-.14-.32-.32,.14-.32,.32-.32,.32,.14,.32,.32Zm0,1.49c0,.17-.14,.32-.32,.32s-.32-.14-.32-.32,.14-.32,.32-.32,.32,.14,.32,.32Zm-3.72,.74c0,.17-.14,.32-.32,.32s-.32-.14-.32-.32,.14-.32,.32-.32,.32,.14,.32,.32Zm2.98,0c0,.17-.14,.32-.32,.32s-.32-.14-.32-.32,.14-.32,.32-.32,.32,.14,.32,.32Zm-1.49,0c0,.17-.14,.32-.32,.32s-.32-.14-.32-.32,.14-.32,.32-.32,.32,.14,.32,.32Zm-.74,.75c0,.17-.14,.32-.32,.32s-.32-.14-.32-.32,.14-.32,.32-.32,.32,.14,.32,.32Zm1.49,0c0,.17-.14,.32-.32,.32s-.32-.14-.32-.32,.14-.32,.32-.32,.32,.14,.32,.32Zm1.49,0c0,.17-.14,.32-.32,.32s-.32-.14-.32-.32,.14-.32,.32-.32,.32,.14,.32,.32Zm-3.72,.75c0,.17-.14,.32-.32,.32s-.32-.14-.32-.32,.14-.32,.32-.32,.32,.14,.32,.32Zm1.49,0c0,.17-.14,.32-.32,.32s-.32-.14-.32-.32,.14-.32,.32-.32,.32,.14,.32,.32Zm1.49,0c0,.17-.14,.32-.32,.32s-.32-.14-.32-.32,.14-.32,.32-.32c.17,0,.32,.14,.32,.32Zm-2.98,1.49c0,.17-.14,.32-.32,.32s-.32-.14-.32-.32,.14-.32,.32-.32,.32,.14,.32,.32Zm-.74,.75c0,.17-.14,.32-.32,.32s-.32-.14-.32-.32,.14-.32,.32-.32,.32,.14,.32,.32Zm3.72-.75c0,.17-.14,.32-.32,.32s-.32-.14-.32-.32,.14-.32,.32-.32c.17,0,.32,.14,.32,.32Zm-1.49,0c0,.17-.14,.32-.32,.32s-.32-.14-.32-.32,.14-.32,.32-.32,.32,.14,.32,.32Zm-.74-.75c0,.17-.14,.32-.32,.32s-.32-.14-.32-.32,.14-.32,.32-.32,.32,.14,.32,.32Zm1.49,0c0,.17-.14,.32-.32,.32s-.32-.14-.32-.32,.14-.32,.32-.32,.32,.14,.32,.32Zm-1.49,1.49c0,.17-.14,.32-.32,.32s-.32-.14-.32-.32,.14-.32,.32-.32,.32,.14,.32,.32Zm1.49,0c0,.17-.14,.32-.32,.32s-.32-.14-.32-.32,.14-.32,.32-.32,.32,.14,.32,.32Zm1.49-1.49c0,.17-.14,.32-.32,.32s-.32-.14-.32-.32,.14-.32,.32-.32c.17,0,.32,.14,.32,.32Zm0,1.49c0,.17-.14,.32-.32,.32s-.32-.14-.32-.32,.14-.32,.32-.32,.32,.14,.32,.32Zm-3.72,.74c0,.17-.14,.32-.32,.32s-.32-.14-.32-.32,.14-.32,.32-.32,.32,.14,.32,.32Zm-.74,.75c0,.17-.14,.32-.32,.32s-.32-.14-.32-.32,.14-.32,.32-.32c.17,0,.32,.14,.32,.32Zm3.72-.75c0,.17-.14,.32-.32,.32s-.32-.14-.32-.32,.14-.32,.32-.32,.32,.14,.32,.32Zm-1.49,0c0,.17-.14,.32-.32,.32s-.32-.14-.32-.32,.14-.32,.32-.32,.32,.14,.32,.32Zm-.74,.75c0,.17-.14,.32-.32,.32s-.32-.14-.32-.32,.14-.32,.32-.32,.32,.14,.32,.32Zm1.49,0c0,.17-.14,.32-.32,.32s-.32-.14-.32-.32,.14-.32,.32-.32,.32,.14,.32,.32Zm1.49,0c0,.17-.14,.32-.32,.32s-.32-.14-.32-.32,.14-.32,.32-.32c.17,0,.32,.14,.32,.32Zm.75-6.7c0,.17-.14,.32-.32,.32s-.32-.14-.32-.32,.14-.32,.32-.32,.32,.14,.32,.32Zm2.98,0c0,.17-.14,.32-.32,.32s-.32-.14-.32-.32,.14-.32,.32-.32,.32,.14,.32,.32Zm-2.23-.75c0,.17-.14,.32-.32,.32s-.32-.14-.32-.32,.14-.32,.32-.32,.32,.14,.32,.32Zm1.49,0c0,.17-.14,.32-.32,.32s-.32-.14-.32-.32,.14-.32,.32-.32,.32,.14,.32,.32Zm-1.49,1.49c0,.17-.14,.32-.32,.32s-.32-.14-.32-.32,.14-.32,.32-.32,.32,.14,.32,.32Zm1.49,0c0,.17-.14,.32-.32,.32s-.32-.14-.32-.32,.14-.32,.32-.32,.32,.14,.32,.32Zm1.49-1.49c0,.17-.14,.32-.32,.32s-.32-.14-.32-.32,.14-.32,.32-.32,.32,.14,.32,.32Zm0,1.49c0,.17-.14,.32-.32,.32s-.32-.14-.32-.32,.14-.32,.32-.32,.32,.14,.32,.32Zm3.72-.75c0,.17-.14,.32-.32,.32s-.32-.14-.32-.32,.14-.32,.32-.32,.32,.14,.32,.32Zm-.74-.75c0,.17-.14,.32-.32,.32s-.32-.14-.32-.32,.14-.32,.32-.32,.32,.14,.32,.32Zm1.49,0c0,.17-.14,.32-.32,.32s-.32-.14-.32-.32,.14-.32,.32-.32,.32,.14,.32,.32Zm-8.19,2.23c0,.17-.14,.32-.32,.32s-.32-.14-.32-.32,.14-.32,.32-.32,.32,.14,.32,.32Zm2.98,0c0,.17-.14,.32-.32,.32s-.32-.14-.32-.32,.14-.32,.32-.32,.32,.14,.32,.32Zm.86,0c0-.17,.14-.32,.32-.32s.32,.14,.32,.32-.14,.32-.32,.32-.32-.14-.32-.32Zm-3.09,.75c0,.17-.14,.32-.32,.32s-.32-.14-.32-.32,.14-.32,.32-.32,.32,.14,.32,.32Zm1.49,0c0,.17-.14,.32-.32,.32s-.32-.14-.32-.32,.14-.32,.32-.32,.32,.14,.32,.32Zm1.49,0c0,.17-.14,.32-.32,.32s-.32-.14-.32-.32,.14-.32,.32-.32,.32,.14,.32,.32Zm-3.72,.75c0,.17-.14,.32-.32,.32s-.32-.14-.32-.32,.14-.32,.32-.32,.32,.14,.32,.32Zm2.98,0c0,.17-.14,.32-.32,.32s-.32-.14-.32-.32,.14-.32,.32-.32c.17,0,.32,.14,.32,.32Zm.86,0c0-.17,.14-.32,.32-.32s.32,.14,.32,.32-.14,.32-.32,.32-.32-.14-.32-.32Zm-3.83,1.49c0,.17-.14,.32-.32,.32s-.32-.14-.32-.32,.14-.32,.32-.32,.32,.14,.32,.32Zm2.98,0c0,.17-.14,.32-.32,.32s-.32-.14-.32-.32,.14-.32,.32-.32c.17,0,.32,.14,.32,.32Zm.86,0c0-.17,.14-.32,.32-.32s.32,.14,.32,.32-.14,.32-.32,.32-.32-.14-.32-.32Zm-3.09-.75c0,.17-.14,.32-.32,.32s-.32-.14-.32-.32,.14-.32,.32-.32c.17,0,.32,.14,.32,.32Zm1.49,0c0,.17-.14,.32-.32,.32s-.32-.14-.32-.32,.14-.32,.32-.32,.32,.14,.32,.32Zm-1.49,1.49c0,.17-.14,.32-.32,.32s-.32-.14-.32-.32,.14-.32,.32-.32,.32,.14,.32,.32Zm1.49,0c0,.17-.14,.32-.32,.32s-.32-.14-.32-.32,.14-.32,.32-.32,.32,.14,.32,.32Zm1.49-1.49c0,.17-.14,.32-.32,.32s-.32-.14-.32-.32,.14-.32,.32-.32c.17,0,.32,.14,.32,.32Zm0,1.49c0,.17-.14,.32-.32,.32s-.32-.14-.32-.32,.14-.32,.32-.32,.32,.14,.32,.32Zm.86,0c0-.17,.14-.32,.32-.32s.32,.14,.32,.32-.14,.32-.32,.32c-.17,0-.32-.14-.32-.32Zm-4.58,.74c0,.17-.14,.32-.32,.32s-.32-.14-.32-.32,.14-.32,.32-.32,.32,.14,.32,.32Zm2.98,0c0,.17-.14,.32-.32,.32s-.32-.14-.32-.32,.14-.32,.32-.32,.32,.14,.32,.32Zm-1.49-5.96c0,.17-.14,.32-.32,.32s-.32-.14-.32-.32,.14-.32,.32-.32,.32,.14,.32,.32Zm0,1.49c0,.17-.14,.32-.32,.32s-.32-.14-.32-.32,.14-.32,.32-.32,.32,.14,.32,.32Zm0,1.49c0,.17-.14,.32-.32,.32s-.32-.14-.32-.32,.14-.32,.32-.32c.17,0,.32,.14,.32,.32Zm0,1.49c0,.17-.14,.32-.32,.32s-.32-.14-.32-.32,.14-.32,.32-.32c.17,0,.32,.14,.32,.32Zm0,1.49c0,.17-.14,.32-.32,.32s-.32-.14-.32-.32,.14-.32,.32-.32,.32,.14,.32,.32Zm2.34,0c0-.17,.14-.32,.32-.32s.32,.14,.32,.32-.14,.32-.32,.32-.32-.14-.32-.32Zm-3.09,.75c0,.17-.14,.32-.32,.32s-.32-.14-.32-.32,.14-.32,.32-.32c.17,0,.32,.14,.32,.32Zm1.49,0c0,.17-.14,.32-.32,.32s-.32-.14-.32-.32,.14-.32,.32-.32,.32,.14,.32,.32Zm1.49,0c0,.17-.14,.32-.32,.32s-.32-.14-.32-.32,.14-.32,.32-.32c.17,0,.32,.14,.32,.32Zm.86,0c0-.17,.14-.32,.32-.32s.32,.14,.32,.32-.14,.32-.32,.32-.32-.14-.32-.32Z"/>
    <path class="cls-8" d="M191.84,57.94s-3.83-7.9-4.68-8.85c-.87-.98-1.92-1.53-3.2-1.69,1.11-.91,1.82-2.3,1.82-3.85,0-2.74-2.23-4.97-4.97-4.97s-4.97,2.23-4.97,4.97c0,1.55,.71,2.93,1.82,3.85-1.27,.15-2.32,.71-3.2,1.68-.85,.96-4.68,8.86-4.68,8.86-.68,1.39-.1,3.08,1.3,3.76,1.71,.82,3.16-.05,3.76-1.28l1-1.93v13.51c0,1.62,1.32,2.95,2.95,2.95,.78,0,1.49-.31,2.02-.8,.53,.51,1.25,.82,2.03,.82,1.62,0,2.95-1.32,2.95-2.95v-13.51l.99,1.92c.47,.95,1.96,2.1,3.76,1.28,1.43-.65,1.95-2.43,1.3-3.76Zm-14.71-14.39c0-2.03,1.65-3.68,3.68-3.68s3.68,1.65,3.68,3.68-1.65,3.68-3.68,3.68-3.68-1.65-3.68-3.68Zm7.37,28.46c0,.91-.74,1.66-1.66,1.66s-1.66-.74-1.66-1.66v-9.65h-.74v9.64c0,.91-.74,1.66-1.66,1.66s-1.66-.74-1.66-1.66v-12.03h7.36v12.04h0Zm5.48-11.47c-.9,.45-1.78-.16-2.04-.7l-.28-.53c.1-.05,.17-.16,.17-.28,0-.17-.14-.32-.32-.32-.05,0-.1,.01-.14,.03l-1.24-2.4c.12-.04,.21-.16,.21-.3,0-.17-.14-.32-.32-.32-.07,0-.13,.02-.18,.06l-1.24-2.41c.14-.03,.25-.16,.25-.31,0-.17-.14-.32-.32-.32s-.32,.14-.32,.32c0,.16,.13,.3,.29,.31v.86c-.16,.02-.29,.15-.29,.31s.13,.3,.29,.31v.86c-.16,.02-.29,.15-.29,.31s.13,.3,.29,.31v.87c-.16,.02-.29,.15-.29,.31s.13,.3,.29,.31v.86c-.15,.01-.27,.14-.28,.29h-.86c-.01-.16-.15-.29-.31-.29s-.3,.13-.31,.29h-.86c-.01-.16-.15-.29-.31-.29s-.3,.13-.31,.29h-.86c-.01-.16-.15-.29-.31-.29s-.3,.13-.31,.29h-.86c-.01-.16-.15-.29-.31-.29s-.3,.13-.31,.29h-.86c-.01-.14-.12-.26-.26-.29v-.87c.15-.03,.26-.15,.26-.31s-.11-.29-.26-.31v-.87c.15-.03,.26-.15,.26-.31s-.11-.29-.26-.31v-.87c.15-.03,.26-.15,.26-.31s-.11-.29-.26-.31v-.87c.15-.03,.26-.15,.26-.31,0-.17-.14-.32-.32-.32s-.32,.14-.32,.32c0,.16,.12,.29,.27,.31l-.85,1.65c-.1,.05-.16,.16-.16,.28,0,.01,0,.02,0,.03l-.24,.46c-.05-.04-.12-.07-.19-.07-.17,0-.32,.14-.32,.32,0,.14,.09,.26,.22,.3l-1.24,2.4s-.1-.04-.15-.04c-.17,0-.32,.14-.32,.32,0,.12,.07,.23,.18,.28l-.27,.53c-.26,.54-1.03,1.15-2.04,.7-.77-.34-1.07-1.28-.7-2.04l.72-1.47c.06,.05,.13,.08,.21,.08,.17,0,.32-.14,.32-.32h0c0-.16-.11-.28-.26-.31l.79-1.62c.12-.04,.22-.16,.22-.3,0-.04,0-.07-.02-.11l.21-.43c.06,.07,.14,.11,.24,.11,.17,0,.32-.14,.32-.32s-.13-.31-.3-.31l.06-.12c.26-.53,.5-1.03,.74-1.49,.14-.03,.25-.16,.25-.31,0-.04,0-.08-.02-.11,.08-.14,.15-.27,.23-.4,.06,.05,.13,.09,.22,.09,.17,0,.32-.14,.32-.32,0-.13-.08-.25-.2-.29,.1-.15,.21-.29,.31-.42,.02,.16,.15,.29,.31,.29,.17,0,.32-.14,.32-.32s-.14-.32-.32-.32c0,0,0,0,0,0,.14-.14,.28-.27,.43-.39,.02,.15,.15,.27,.31,.27,.17,0,.32-.14,.32-.32,0-.11-.06-.21-.15-.27,.14-.07,.29-.14,.44-.19,.04,.02,.09,.03,.14,.03,.11,0,.21-.06,.27-.15,.28-.07,.58-.1,.91-.11,.02,.15,.15,.27,.31,.27s.29-.12,.31-.27h.87c.02,.15,.15,.27,.31,.27s.29-.12,.31-.27h.87c.02,.15,.15,.27,.31,.27s.29-.12,.31-.27h.87c.02,.15,.15,.27,.31,.27s.29-.12,.31-.27c.33,0,.63,.05,.91,.11,.05,.09,.16,.16,.27,.16,.05,0,.1-.01,.14-.04,.15,.06,.3,.12,.44,.19-.09,.06-.15,.16-.15,.27,0,.17,.14,.32,.32,.32,.16,0,.3-.12,.31-.28,.16,.12,.31,.25,.45,.4,0,0-.01,0-.02,0-.17,0-.32,.14-.32,.32s.14,.32,.32,.32,.31-.13,.31-.3c.11,.13,.22,.28,.32,.43-.12,.04-.21,.16-.21,.3,0,.17,.14,.32,.32,.32,.09,0,.17-.04,.23-.1,.08,.13,.15,.26,.23,.4-.02,.04-.03,.08-.03,.13,0,.16,.11,.28,.26,.31,.24,.46,.48,.96,.74,1.49l.06,.12c-.17,0-.31,.14-.31,.32s.14,.32,.32,.32c.1,0,.19-.05,.25-.12l1.2,2.47c-.15,.02-.27,.15-.27,.31h0c0,.18,.14,.32,.32,.32,.08,0,.16-.03,.22-.09l.72,1.48c.37,.76,.05,1.66-.7,2.04Zm-10.35-11.2c0,.17-.14,.32-.32,.32s-.32-.14-.32-.32,.14-.32,.32-.32,.32,.14,.32,.32Zm-1.49,0c0,.17-.14,.32-.32,.32s-.32-.14-.32-.32,.14-.32,.32-.32,.32,.14,.32,.32Zm-.75,.75c0,.17-.14,.32-.32,.32s-.32-.14-.32-.32,.14-.32,.32-.32,.32,.14,.32,.32Zm1.49,0c0,.17-.14,.32-.32,.32s-.32-.14-.32-.32,.14-.32,.32-.32,.32,.14,.32,.32Zm1.49,0c0,.17-.14,.32-.32,.32s-.32-.14-.32-.32,.14-.32,.32-.32,.32,.14,.32,.32Zm-3.72,.74c0,.17-.14,.32-.32,.32s-.32-.14-.32-.32,.14-.32,.32-.32,.32,.14,.32,.32Zm-.74,.75c0,.17-.14,.32-.32,.32s-.32-.14-.32-.32,.14-.32,.32-.32c.17,0,.32,.14,.32,.32Zm3.72-.75c0,.17-.14,.32-.32,.32s-.32-.14-.32-.32,.14-.32,.32-.32,.32,.14,.32,.32Zm-1.49,0c0,.17-.14,.32-.32,.32s-.32-.14-.32-.32,.14-.32,.32-.32,.32,.14,.32,.32Zm-.75,.75c0,.17-.14,.32-.32,.32s-.32-.14-.32-.32,.14-.32,.32-.32c.17,0,.32,.14,.32,.32Zm1.49,0c0,.17-.14,.32-.32,.32s-.32-.14-.32-.32,.14-.32,.32-.32,.32,.14,.32,.32Zm1.49,0c0,.17-.14,.32-.32,.32s-.32-.14-.32-.32,.14-.32,.32-.32,.32,.14,.32,.32Zm-5.21,.75c0,.17-.14,.32-.32,.32s-.32-.14-.32-.32,.14-.32,.32-.32,.32,.14,.32,.32Zm1.49,0c0,.17-.14,.32-.32,.32s-.32-.14-.32-.32,.14-.32,.32-.32,.32,.14,.32,.32Zm1.49,0c0,.17-.14,.32-.32,.32s-.32-.14-.32-.32,.14-.32,.32-.32,.32,.14,.32,.32Zm1.49,0c0,.17-.14,.32-.32,.32s-.32-.14-.32-.32,.14-.32,.32-.32,.32,.14,.32,.32Zm-4.47,1.49c0,.17-.14,.32-.32,.32s-.32-.14-.32-.32,.14-.32,.32-.32c.17,0,.32,.14,.32,.32Zm1.49,0c0,.17-.14,.32-.32,.32s-.32-.14-.32-.32,.14-.32,.32-.32c.17,0,.32,.14,.32,.32Zm-2.23-.75c0,.17-.14,.32-.32,.32s-.32-.14-.32-.32,.14-.32,.32-.32,.32,.14,.32,.32Zm0,1.49c0,.17-.14,.32-.32,.32s-.32-.14-.32-.32,.14-.32,.32-.32,.32,.14,.32,.32Zm1.49-1.49c0,.17-.14,.32-.32,.32s-.32-.14-.32-.32,.14-.32,.32-.32,.32,.14,.32,.32Zm0,1.49c0,.17-.14,.32-.32,.32s-.32-.14-.32-.32,.14-.32,.32-.32,.32,.14,.32,.32Zm3.72-.74c0,.17-.14,.32-.32,.32s-.32-.14-.32-.32,.14-.32,.32-.32,.32,.14,.32,.32Zm-1.49,0c0,.17-.14,.32-.32,.32s-.32-.14-.32-.32,.14-.32,.32-.32c.17,0,.32,.14,.32,.32Zm.75-.75c0,.17-.14,.32-.32,.32s-.32-.14-.32-.32,.14-.32,.32-.32,.32,.14,.32,.32Zm0,1.49c0,.17-.14,.32-.32,.32s-.32-.14-.32-.32,.14-.32,.32-.32,.32,.14,.32,.32Zm1.49-1.49c0,.17-.14,.32-.32,.32s-.32-.14-.32-.32,.14-.32,.32-.32,.32,.14,.32,.32Zm0,1.49c0,.17-.14,.32-.32,.32s-.32-.14-.32-.32,.14-.32,.32-.32,.32,.14,.32,.32Zm-5.21,.74c0,.17-.14,.32-.32,.32s-.32-.14-.32-.32,.14-.32,.32-.32,.32,.14,.32,.32Zm-1.49,0c0,.17-.14,.32-.32,.32s-.32-.14-.32-.32,.14-.32,.32-.32,.32,.14,.32,.32Zm-.75,.75c0,.17-.14,.32-.32,.32s-.32-.14-.32-.32,.14-.32,.32-.32c.17,0,.32,.14,.32,.32Zm1.49,0c0,.17-.14,.32-.32,.32s-.32-.14-.32-.32,.14-.32,.32-.32c.17,0,.32,.14,.32,.32Zm5.21-.75c0,.17-.14,.32-.32,.32s-.32-.14-.32-.32,.14-.32,.32-.32,.32,.14,.32,.32Zm-1.49,0c0,.17-.14,.32-.32,.32s-.32-.14-.32-.32,.14-.32,.32-.32,.32,.14,.32,.32Zm.75,.75c0,.17-.14,.32-.32,.32s-.32-.14-.32-.32,.14-.32,.32-.32,.32,.14,.32,.32Zm1.49,0c0,.17-.14,.32-.32,.32s-.32-.14-.32-.32,.14-.32,.32-.32,.32,.14,.32,.32Zm-6.7,.75c0,.18-.14,.32-.32,.32s-.32-.14-.32-.32,.14-.32,.32-.32c.17,0,.32,.14,.32,.32Zm1.49,0c0,.18-.14,.32-.32,.32s-.32-.14-.32-.32,.14-.32,.32-.32c.17,0,.32,.14,.32,.32Zm2.98,0c0,.18-.14,.32-.32,.32s-.32-.14-.32-.32,.14-.32,.32-.32c.17,0,.32,.14,.32,.32Zm1.49,0c0,.18-.14,.32-.32,.32s-.32-.14-.32-.32,.14-.32,.32-.32,.32,.14,.32,.32Zm1.49-7.45c0,.17-.14,.32-.32,.32s-.32-.14-.32-.32,.14-.32,.32-.32,.32,.14,.32,.32Zm2.98,0c0,.17-.14,.32-.32,.32s-.32-.14-.32-.32,.14-.32,.32-.32,.32,.14,.32,.32Zm-2.23,.75c0,.17-.14,.32-.32,.32s-.32-.14-.32-.32,.14-.32,.32-.32,.32,.14,.32,.32Zm1.49,0c0,.17-.14,.32-.32,.32s-.32-.14-.32-.32,.14-.32,.32-.32,.32,.14,.32,.32Zm1.49,0c0,.17-.14,.32-.32,.32s-.32-.14-.32-.32,.14-.32,.32-.32,.32,.14,.32,.32Zm-3.72,.74c0,.17-.14,.32-.32,.32s-.32-.14-.32-.32,.14-.32,.32-.32,.32,.14,.32,.32Zm2.98,0c0,.17-.14,.32-.32,.32s-.32-.14-.32-.32,.14-.32,.32-.32,.32,.14,.32,.32Zm1.49,0c0,.17-.14,.32-.32,.32s-.32-.14-.32-.32,.14-.32,.32-.32,.32,.14,.32,.32Zm-3.72,.75c0,.17-.14,.32-.32,.32s-.32-.14-.32-.32,.14-.32,.32-.32c.17,0,.32,.14,.32,.32Zm1.49,0c0,.17-.14,.32-.32,.32s-.32-.14-.32-.32,.14-.32,.32-.32,.32,.14,.32,.32Zm1.49,0c0,.17-.14,.32-.32,.32s-.32-.14-.32-.32,.14-.32,.32-.32c.17,0,.32,.14,.32,.32Zm1.49,0c0,.17-.14,.32-.32,.32s-.32-.14-.32-.32,.14-.32,.32-.32,.32,.14,.32,.32Zm-5.21,.75c0,.17-.14,.32-.32,.32s-.32-.14-.32-.32,.14-.32,.32-.32,.32,.14,.32,.32Zm2.98,0c0,.17-.14,.32-.32,.32s-.32-.14-.32-.32,.14-.32,.32-.32,.32,.14,.32,.32Zm1.49,0c0,.17-.14,.32-.32,.32s-.32-.14-.32-.32,.14-.32,.32-.32,.32,.14,.32,.32Zm-4.47,1.49c0,.17-.14,.32-.32,.32s-.32-.14-.32-.32,.14-.32,.32-.32c.17,0,.32,.14,.32,.32Zm2.98,0c0,.17-.14,.32-.32,.32s-.32-.14-.32-.32,.14-.32,.32-.32,.32,.14,.32,.32Zm1.49,0c0,.17-.14,.32-.32,.32s-.32-.14-.32-.32,.14-.32,.32-.32c.17,0,.32,.14,.32,.32Zm-3.72-.75c0,.17-.14,.32-.32,.32s-.32-.14-.32-.32,.14-.32,.32-.32,.32,.14,.32,.32Zm1.49,0c0,.17-.14,.32-.32,.32s-.32-.14-.32-.32,.14-.32,.32-.32,.32,.14,.32,.32Zm-1.49,1.49c0,.17-.14,.32-.32,.32s-.32-.14-.32-.32,.14-.32,.32-.32,.32,.14,.32,.32Zm1.49,0c0,.17-.14,.32-.32,.32s-.32-.14-.32-.32,.14-.32,.32-.32,.32,.14,.32,.32Zm2.98-1.49c0,.17-.14,.32-.32,.32s-.32-.14-.32-.32,.14-.32,.32-.32,.32,.14,.32,.32Zm1.49,0c0,.17-.14,.32-.32,.32s-.32-.14-.32-.32,.14-.32,.32-.32,.32,.14,.32,.32Zm-1.49,1.49c0,.17-.14,.32-.32,.32s-.32-.14-.32-.32,.14-.32,.32-.32,.32,.14,.32,.32Zm1.49,0c0,.17-.14,.32-.32,.32s-.32-.14-.32-.32,.14-.32,.32-.32,.32,.14,.32,.32Zm-6.7,.74c0,.17-.14,.32-.32,.32s-.32-.14-.32-.32,.14-.32,.32-.32,.32,.14,.32,.32Zm2.98,0c0,.17-.14,.32-.32,.32s-.32-.14-.32-.32,.14-.32,.32-.32,.32,.14,.32,.32Zm-2.23,.75c0,.17-.14,.32-.32,.32s-.32-.14-.32-.32,.14-.32,.32-.32c.17,0,.32,.14,.32,.32Zm1.49,0c0,.17-.14,.32-.32,.32s-.32-.14-.32-.32,.14-.32,.32-.32,.32,.14,.32,.32Zm5.21-.75c0,.17-.14,.32-.32,.32s-.32-.14-.32-.32,.14-.32,.32-.32,.32,.14,.32,.32Zm-.74,.75c0,.17-.14,.32-.32,.32s-.32-.14-.32-.32,.14-.32,.32-.32,.32,.14,.32,.32Zm1.49,0c0,.17-.14,.32-.32,.32s-.32-.14-.32-.32,.14-.32,.32-.32,.32,.14,.32,.32Zm-8.19,.75c0,.18-.14,.32-.32,.32s-.32-.14-.32-.32,.14-.32,.32-.32c.17,0,.32,.14,.32,.32Zm2.98,0c0,.18-.14,.32-.32,.32s-.32-.14-.32-.32,.14-.32,.32-.32,.32,.14,.32,.32Zm4.47,0c0,.18-.14,.32-.32,.32s-.32-.14-.32-.32,.14-.32,.32-.32,.32,.14,.32,.32Zm-5.96-7.45c0,.17-.14,.32-.32,.32s-.32-.14-.32-.32,.14-.32,.32-.32,.32,.14,.32,.32Zm0,1.49c0,.17-.14,.32-.32,.32s-.32-.14-.32-.32,.14-.32,.32-.32,.32,.14,.32,.32Zm0,1.49c0,.17-.14,.32-.32,.32s-.32-.14-.32-.32,.14-.32,.32-.32,.32,.14,.32,.32Zm0,1.49c0,.17-.14,.32-.32,.32s-.32-.14-.32-.32,.14-.32,.32-.32c.17,0,.32,.14,.32,.32Zm0,1.49c0,.17-.14,.32-.32,.32s-.32-.14-.32-.32,.14-.32,.32-.32,.32,.14,.32,.32Zm0,1.49c0,.18-.14,.32-.32,.32s-.32-.14-.32-.32,.14-.32,.32-.32c.17,0,.32,.14,.32,.32Zm4.47-4.47c0,.17-.14,.32-.32,.32s-.32-.14-.32-.32,.14-.32,.32-.32,.32,.14,.32,.32Zm0,1.49c0,.17-.14,.32-.32,.32s-.32-.14-.32-.32,.14-.32,.32-.32,.32,.14,.32,.32Zm0,1.49c0,.17-.14,.32-.32,.32s-.32-.14-.32-.32,.14-.32,.32-.32,.32,.14,.32,.32Zm0,1.49c0,.18-.14,.32-.32,.32s-.32-.14-.32-.32,.14-.32,.32-.32,.32,.14,.32,.32Zm-13.4,1.49c0,.17-.14,.32-.32,.32s-.32-.14-.32-.32,.14-.32,.32-.32,.32,.14,.32,.32Zm-.75-.75c0,.17-.14,.32-.32,.32s-.32-.14-.32-.32,.14-.32,.32-.32,.32,.14,.32,.32Zm1.49,0c0,.17-.14,.32-.32,.32s-.32-.14-.32-.32,.14-.32,.32-.32,.32,.14,.32,.32Zm5.21,.75c0,.17-.14,.32-.32,.32s-.32-.14-.32-.32,.14-.32,.32-.32,.32,.14,.32,.32Zm-1.49,0c0,.17-.14,.32-.32,.32s-.32-.14-.32-.32,.14-.32,.32-.32,.32,.14,.32,.32Zm.75-.75c0,.17-.14,.32-.32,.32s-.32-.14-.32-.32,.14-.32,.32-.32,.32,.14,.32,.32Zm1.49,0c0,.17-.14,.32-.32,.32s-.32-.14-.32-.32,.14-.32,.32-.32,.32,.14,.32,.32Zm.75,.75c0,.17-.14,.32-.32,.32s-.32-.14-.32-.32,.14-.32,.32-.32,.32,.14,.32,.32Zm2.98,0c0,.17-.14,.32-.32,.32s-.32-.14-.32-.32,.14-.32,.32-.32,.32,.14,.32,.32Zm-2.23-.75c0,.17-.14,.32-.32,.32s-.32-.14-.32-.32,.14-.32,.32-.32,.32,.14,.32,.32Zm1.49,0c0,.17-.14,.32-.32,.32s-.32-.14-.32-.32,.14-.32,.32-.32,.32,.14,.32,.32Zm5.21,.75c0,.17-.14,.32-.32,.32s-.32-.14-.32-.32,.14-.32,.32-.32,.32,.14,.32,.32Zm-.74-.75c0,.17-.14,.32-.32,.32s-.32-.14-.32-.32,.14-.32,.32-.32,.32,.14,.32,.32Zm1.49,0c0,.17-.14,.32-.32,.32s-.32-.14-.32-.32,.14-.32,.32-.32,.32,.14,.32,.32Zm-6.7,.75c0,.17-.14,.32-.32,.32s-.32-.14-.32-.32,.14-.32,.32-.32,.32,.14,.32,.32Z"/>
    <g>
      <path class="cls-4" d="M210.4,33.62c0,.56-.46,1.02-1.02,1.02s-1.02-.46-1.02-1.02,.46-1.02,1.02-1.02,1.02,.46,1.02,1.02Z"/>
      <path class="cls-4" d="M199.85,23.98c5.27-5.27,13.79-5.27,19.06,0"/>
      <path class="cls-4" d="M202.13,26.19c4.01-4.01,10.5-4.01,14.5,0"/>
      <path class="cls-4" d="M204.09,28.56c2.93-2.93,7.66-2.93,10.59,0"/>
      <path class="cls-4" d="M206.2,30.9c1.76-1.76,4.6-1.76,6.35,0"/>
    </g>
    <g>
      <path class="cls-3" d="M237.92,33.62c0,.56-.46,1.02-1.02,1.02s-1.02-.46-1.02-1.02,.46-1.02,1.02-1.02,1.02,.46,1.02,1.02Z"/>
      <path class="cls-3" d="M227.37,23.98c5.27-5.27,13.79-5.27,19.06,0"/>
      <path class="cls-3" d="M229.64,26.19c4.01-4.01,10.5-4.01,14.5,0"/>
      <path class="cls-3" d="M231.6,28.56c2.93-2.93,7.66-2.93,10.59,0"/>
      <path class="cls-3" d="M233.72,30.9c1.76-1.76,4.6-1.76,6.35,0"/>
    </g>
    <path class="cls-8" d="M220.41,57.94s-3.83-7.9-4.68-8.85c-.87-.98-1.92-1.53-3.2-1.69,1.11-.91,1.82-2.3,1.82-3.85,0-2.74-2.23-4.97-4.97-4.97s-4.97,2.23-4.97,4.97c0,1.55,.71,2.93,1.82,3.85-1.27,.15-2.32,.71-3.2,1.68-.85,.96-4.68,8.86-4.68,8.86-.68,1.39-.1,3.08,1.3,3.76,1.71,.82,3.16-.05,3.76-1.28l1-1.93v13.51c0,1.62,1.32,2.95,2.95,2.95,.78,0,1.49-.31,2.02-.8,.53,.51,1.25,.82,2.03,.82,1.62,0,2.95-1.32,2.95-2.95v-13.51l.99,1.92c.47,.95,1.96,2.1,3.76,1.28,1.43-.65,1.95-2.43,1.3-3.76Zm-14.71-14.39c0-2.03,1.65-3.68,3.68-3.68s3.68,1.65,3.68,3.68-1.65,3.68-3.68,3.68-3.68-1.65-3.68-3.68Zm7.37,28.46c0,.91-.74,1.66-1.66,1.66s-1.66-.74-1.66-1.66v-9.65h-.74v9.64c0,.91-.74,1.66-1.66,1.66s-1.66-.74-1.66-1.66v-12.03h7.36v12.04h0Zm5.48-11.47c-.9,.45-1.78-.16-2.04-.7l-.28-.53c.1-.05,.17-.16,.17-.28,0-.17-.14-.32-.32-.32-.05,0-.1,.01-.14,.03l-1.24-2.4c.12-.04,.21-.16,.21-.3,0-.17-.14-.32-.32-.32-.07,0-.13,.02-.18,.06l-1.24-2.41c.14-.03,.25-.16,.25-.31,0-.17-.14-.32-.32-.32s-.32,.14-.32,.32c0,.16,.13,.3,.29,.31v.86c-.16,.02-.29,.15-.29,.31s.13,.3,.29,.31v.86c-.16,.02-.29,.15-.29,.31s.13,.3,.29,.31v.87c-.16,.02-.29,.15-.29,.31s.13,.3,.29,.31v.86c-.15,.01-.27,.14-.28,.29h-.86c-.01-.16-.15-.29-.31-.29s-.3,.13-.31,.29h-.86c-.01-.16-.15-.29-.31-.29s-.3,.13-.31,.29h-.86c-.01-.16-.15-.29-.31-.29s-.3,.13-.31,.29h-.86c-.01-.16-.15-.29-.31-.29s-.3,.13-.31,.29h-.86c-.01-.14-.12-.26-.26-.29v-.87c.15-.03,.26-.15,.26-.31s-.11-.29-.26-.31v-.87c.15-.03,.26-.15,.26-.31s-.11-.29-.26-.31v-.87c.15-.03,.26-.15,.26-.31s-.11-.29-.26-.31v-.87c.15-.03,.26-.15,.26-.31,0-.17-.14-.32-.32-.32s-.32,.14-.32,.32c0,.16,.12,.29,.27,.31l-.85,1.65c-.1,.05-.16,.16-.16,.28,0,.01,0,.02,0,.03l-.24,.46c-.05-.04-.12-.07-.19-.07-.17,0-.32,.14-.32,.32,0,.14,.09,.26,.22,.3l-1.24,2.4s-.1-.04-.15-.04c-.17,0-.32,.14-.32,.32,0,.12,.07,.23,.18,.28l-.27,.53c-.26,.54-1.03,1.15-2.04,.7-.77-.34-1.07-1.28-.7-2.04l.72-1.47c.06,.05,.13,.08,.21,.08,.17,0,.32-.14,.32-.32h0c0-.16-.11-.28-.26-.31l.79-1.62c.12-.04,.22-.16,.22-.3,0-.04,0-.07-.02-.11l.21-.43c.06,.07,.14,.11,.24,.11,.17,0,.32-.14,.32-.32s-.13-.31-.3-.31l.06-.12c.26-.53,.5-1.03,.74-1.49,.14-.03,.25-.16,.25-.31,0-.04,0-.08-.02-.11,.08-.14,.15-.27,.23-.4,.06,.05,.13,.09,.22,.09,.17,0,.32-.14,.32-.32,0-.13-.08-.25-.2-.29,.1-.15,.21-.29,.31-.42,.02,.16,.15,.29,.31,.29,.17,0,.32-.14,.32-.32s-.14-.32-.32-.32c0,0,0,0,0,0,.14-.14,.28-.27,.43-.39,.02,.15,.15,.27,.31,.27,.17,0,.32-.14,.32-.32,0-.11-.06-.21-.15-.27,.14-.07,.29-.14,.44-.19,.04,.02,.09,.03,.14,.03,.11,0,.21-.06,.27-.15,.28-.07,.58-.1,.91-.11,.02,.15,.15,.27,.31,.27s.29-.12,.31-.27h.87c.02,.15,.15,.27,.31,.27s.29-.12,.31-.27h.87c.02,.15,.15,.27,.31,.27s.29-.12,.31-.27h.87c.02,.15,.15,.27,.31,.27s.29-.12,.31-.27c.33,0,.63,.05,.91,.11,.05,.09,.16,.16,.27,.16,.05,0,.1-.01,.14-.04,.15,.06,.3,.12,.44,.19-.09,.06-.15,.16-.15,.27,0,.17,.14,.32,.32,.32,.16,0,.3-.12,.31-.28,.16,.12,.31,.25,.45,.4,0,0-.01,0-.02,0-.17,0-.32,.14-.32,.32s.14,.32,.32,.32,.31-.13,.31-.3c.11,.13,.22,.28,.32,.43-.12,.04-.21,.16-.21,.3,0,.17,.14,.32,.32,.32,.09,0,.17-.04,.23-.1,.08,.13,.15,.26,.23,.4-.02,.04-.03,.08-.03,.13,0,.16,.11,.28,.26,.31,.24,.46,.48,.96,.74,1.49l.06,.12c-.17,0-.31,.14-.31,.32s.14,.32,.32,.32c.1,0,.19-.05,.25-.12l1.2,2.47c-.15,.02-.27,.15-.27,.31h0c0,.18,.14,.32,.32,.32,.08,0,.16-.03,.22-.09l.72,1.48c.37,.76,.05,1.66-.7,2.04Zm-10.35-11.2c0,.17-.14,.32-.32,.32s-.32-.14-.32-.32,.14-.32,.32-.32,.32,.14,.32,.32Zm-1.49,0c0,.17-.14,.32-.32,.32s-.32-.14-.32-.32,.14-.32,.32-.32,.32,.14,.32,.32Zm-.75,.75c0,.17-.14,.32-.32,.32s-.32-.14-.32-.32,.14-.32,.32-.32,.32,.14,.32,.32Zm1.49,0c0,.17-.14,.32-.32,.32s-.32-.14-.32-.32,.14-.32,.32-.32,.32,.14,.32,.32Zm1.49,0c0,.17-.14,.32-.32,.32s-.32-.14-.32-.32,.14-.32,.32-.32,.32,.14,.32,.32Zm-3.72,.74c0,.17-.14,.32-.32,.32s-.32-.14-.32-.32,.14-.32,.32-.32,.32,.14,.32,.32Zm-.74,.75c0,.17-.14,.32-.32,.32s-.32-.14-.32-.32,.14-.32,.32-.32c.17,0,.32,.14,.32,.32Zm3.72-.75c0,.17-.14,.32-.32,.32s-.32-.14-.32-.32,.14-.32,.32-.32,.32,.14,.32,.32Zm-1.49,0c0,.17-.14,.32-.32,.32s-.32-.14-.32-.32,.14-.32,.32-.32,.32,.14,.32,.32Zm-.75,.75c0,.17-.14,.32-.32,.32s-.32-.14-.32-.32,.14-.32,.32-.32c.17,0,.32,.14,.32,.32Zm1.49,0c0,.17-.14,.32-.32,.32s-.32-.14-.32-.32,.14-.32,.32-.32,.32,.14,.32,.32Zm1.49,0c0,.17-.14,.32-.32,.32s-.32-.14-.32-.32,.14-.32,.32-.32,.32,.14,.32,.32Zm-5.21,.75c0,.17-.14,.32-.32,.32s-.32-.14-.32-.32,.14-.32,.32-.32,.32,.14,.32,.32Zm1.49,0c0,.17-.14,.32-.32,.32s-.32-.14-.32-.32,.14-.32,.32-.32,.32,.14,.32,.32Zm1.49,0c0,.17-.14,.32-.32,.32s-.32-.14-.32-.32,.14-.32,.32-.32,.32,.14,.32,.32Zm1.49,0c0,.17-.14,.32-.32,.32s-.32-.14-.32-.32,.14-.32,.32-.32,.32,.14,.32,.32Zm-4.47,1.49c0,.17-.14,.32-.32,.32s-.32-.14-.32-.32,.14-.32,.32-.32c.17,0,.32,.14,.32,.32Zm1.49,0c0,.17-.14,.32-.32,.32s-.32-.14-.32-.32,.14-.32,.32-.32c.17,0,.32,.14,.32,.32Zm-2.23-.75c0,.17-.14,.32-.32,.32s-.32-.14-.32-.32,.14-.32,.32-.32,.32,.14,.32,.32Zm0,1.49c0,.17-.14,.32-.32,.32s-.32-.14-.32-.32,.14-.32,.32-.32,.32,.14,.32,.32Zm1.49-1.49c0,.17-.14,.32-.32,.32s-.32-.14-.32-.32,.14-.32,.32-.32,.32,.14,.32,.32Zm0,1.49c0,.17-.14,.32-.32,.32s-.32-.14-.32-.32,.14-.32,.32-.32,.32,.14,.32,.32Zm3.72-.74c0,.17-.14,.32-.32,.32s-.32-.14-.32-.32,.14-.32,.32-.32,.32,.14,.32,.32Zm-1.49,0c0,.17-.14,.32-.32,.32s-.32-.14-.32-.32,.14-.32,.32-.32c.17,0,.32,.14,.32,.32Zm.75-.75c0,.17-.14,.32-.32,.32s-.32-.14-.32-.32,.14-.32,.32-.32,.32,.14,.32,.32Zm0,1.49c0,.17-.14,.32-.32,.32s-.32-.14-.32-.32,.14-.32,.32-.32,.32,.14,.32,.32Zm1.49-1.49c0,.17-.14,.32-.32,.32s-.32-.14-.32-.32,.14-.32,.32-.32,.32,.14,.32,.32Zm0,1.49c0,.17-.14,.32-.32,.32s-.32-.14-.32-.32,.14-.32,.32-.32,.32,.14,.32,.32Zm-5.21,.74c0,.17-.14,.32-.32,.32s-.32-.14-.32-.32,.14-.32,.32-.32,.32,.14,.32,.32Zm-1.49,0c0,.17-.14,.32-.32,.32s-.32-.14-.32-.32,.14-.32,.32-.32,.32,.14,.32,.32Zm-.75,.75c0,.17-.14,.32-.32,.32s-.32-.14-.32-.32,.14-.32,.32-.32c.17,0,.32,.14,.32,.32Zm1.49,0c0,.17-.14,.32-.32,.32s-.32-.14-.32-.32,.14-.32,.32-.32c.17,0,.32,.14,.32,.32Zm5.21-.75c0,.17-.14,.32-.32,.32s-.32-.14-.32-.32,.14-.32,.32-.32,.32,.14,.32,.32Zm-1.49,0c0,.17-.14,.32-.32,.32s-.32-.14-.32-.32,.14-.32,.32-.32,.32,.14,.32,.32Zm.75,.75c0,.17-.14,.32-.32,.32s-.32-.14-.32-.32,.14-.32,.32-.32,.32,.14,.32,.32Zm1.49,0c0,.17-.14,.32-.32,.32s-.32-.14-.32-.32,.14-.32,.32-.32,.32,.14,.32,.32Zm-6.7,.75c0,.18-.14,.32-.32,.32s-.32-.14-.32-.32,.14-.32,.32-.32c.17,0,.32,.14,.32,.32Zm1.49,0c0,.18-.14,.32-.32,.32s-.32-.14-.32-.32,.14-.32,.32-.32c.17,0,.32,.14,.32,.32Zm2.98,0c0,.18-.14,.32-.32,.32s-.32-.14-.32-.32,.14-.32,.32-.32c.17,0,.32,.14,.32,.32Zm1.49,0c0,.18-.14,.32-.32,.32s-.32-.14-.32-.32,.14-.32,.32-.32,.32,.14,.32,.32Zm1.49-7.45c0,.17-.14,.32-.32,.32s-.32-.14-.32-.32,.14-.32,.32-.32,.32,.14,.32,.32Zm2.98,0c0,.17-.14,.32-.32,.32s-.32-.14-.32-.32,.14-.32,.32-.32,.32,.14,.32,.32Zm-2.23,.75c0,.17-.14,.32-.32,.32s-.32-.14-.32-.32,.14-.32,.32-.32,.32,.14,.32,.32Zm1.49,0c0,.17-.14,.32-.32,.32s-.32-.14-.32-.32,.14-.32,.32-.32,.32,.14,.32,.32Zm1.49,0c0,.17-.14,.32-.32,.32s-.32-.14-.32-.32,.14-.32,.32-.32,.32,.14,.32,.32Zm-3.72,.74c0,.17-.14,.32-.32,.32s-.32-.14-.32-.32,.14-.32,.32-.32,.32,.14,.32,.32Zm2.98,0c0,.17-.14,.32-.32,.32s-.32-.14-.32-.32,.14-.32,.32-.32,.32,.14,.32,.32Zm1.49,0c0,.17-.14,.32-.32,.32s-.32-.14-.32-.32,.14-.32,.32-.32,.32,.14,.32,.32Zm-3.72,.75c0,.17-.14,.32-.32,.32s-.32-.14-.32-.32,.14-.32,.32-.32c.17,0,.32,.14,.32,.32Zm1.49,0c0,.17-.14,.32-.32,.32s-.32-.14-.32-.32,.14-.32,.32-.32,.32,.14,.32,.32Zm1.49,0c0,.17-.14,.32-.32,.32s-.32-.14-.32-.32,.14-.32,.32-.32c.17,0,.32,.14,.32,.32Zm1.49,0c0,.17-.14,.32-.32,.32s-.32-.14-.32-.32,.14-.32,.32-.32,.32,.14,.32,.32Zm-5.21,.75c0,.17-.14,.32-.32,.32s-.32-.14-.32-.32,.14-.32,.32-.32,.32,.14,.32,.32Zm2.98,0c0,.17-.14,.32-.32,.32s-.32-.14-.32-.32,.14-.32,.32-.32,.32,.14,.32,.32Zm1.49,0c0,.17-.14,.32-.32,.32s-.32-.14-.32-.32,.14-.32,.32-.32,.32,.14,.32,.32Zm-4.47,1.49c0,.17-.14,.32-.32,.32s-.32-.14-.32-.32,.14-.32,.32-.32c.17,0,.32,.14,.32,.32Zm2.98,0c0,.17-.14,.32-.32,.32s-.32-.14-.32-.32,.14-.32,.32-.32,.32,.14,.32,.32Zm1.49,0c0,.17-.14,.32-.32,.32s-.32-.14-.32-.32,.14-.32,.32-.32c.17,0,.32,.14,.32,.32Zm-3.72-.75c0,.17-.14,.32-.32,.32s-.32-.14-.32-.32,.14-.32,.32-.32,.32,.14,.32,.32Zm1.49,0c0,.17-.14,.32-.32,.32s-.32-.14-.32-.32,.14-.32,.32-.32,.32,.14,.32,.32Zm-1.49,1.49c0,.17-.14,.32-.32,.32s-.32-.14-.32-.32,.14-.32,.32-.32,.32,.14,.32,.32Zm1.49,0c0,.17-.14,.32-.32,.32s-.32-.14-.32-.32,.14-.32,.32-.32,.32,.14,.32,.32Zm2.98-1.49c0,.17-.14,.32-.32,.32s-.32-.14-.32-.32,.14-.32,.32-.32,.32,.14,.32,.32Zm1.49,0c0,.17-.14,.32-.32,.32s-.32-.14-.32-.32,.14-.32,.32-.32,.32,.14,.32,.32Zm-1.49,1.49c0,.17-.14,.32-.32,.32s-.32-.14-.32-.32,.14-.32,.32-.32,.32,.14,.32,.32Zm1.49,0c0,.17-.14,.32-.32,.32s-.32-.14-.32-.32,.14-.32,.32-.32,.32,.14,.32,.32Zm-6.7,.74c0,.17-.14,.32-.32,.32s-.32-.14-.32-.32,.14-.32,.32-.32,.32,.14,.32,.32Zm2.98,0c0,.17-.14,.32-.32,.32s-.32-.14-.32-.32,.14-.32,.32-.32,.32,.14,.32,.32Zm-2.23,.75c0,.17-.14,.32-.32,.32s-.32-.14-.32-.32,.14-.32,.32-.32c.17,0,.32,.14,.32,.32Zm1.49,0c0,.17-.14,.32-.32,.32s-.32-.14-.32-.32,.14-.32,.32-.32,.32,.14,.32,.32Zm5.21-.75c0,.17-.14,.32-.32,.32s-.32-.14-.32-.32,.14-.32,.32-.32,.32,.14,.32,.32Zm-.74,.75c0,.17-.14,.32-.32,.32s-.32-.14-.32-.32,.14-.32,.32-.32,.32,.14,.32,.32Zm1.49,0c0,.17-.14,.32-.32,.32s-.32-.14-.32-.32,.14-.32,.32-.32,.32,.14,.32,.32Zm-8.19,.75c0,.18-.14,.32-.32,.32s-.32-.14-.32-.32,.14-.32,.32-.32c.17,0,.32,.14,.32,.32Zm2.98,0c0,.18-.14,.32-.32,.32s-.32-.14-.32-.32,.14-.32,.32-.32,.32,.14,.32,.32Zm4.47,0c0,.18-.14,.32-.32,.32s-.32-.14-.32-.32,.14-.32,.32-.32,.32,.14,.32,.32Zm-5.96-7.45c0,.17-.14,.32-.32,.32s-.32-.14-.32-.32,.14-.32,.32-.32,.32,.14,.32,.32Zm0,1.49c0,.17-.14,.32-.32,.32s-.32-.14-.32-.32,.14-.32,.32-.32,.32,.14,.32,.32Zm0,1.49c0,.17-.14,.32-.32,.32s-.32-.14-.32-.32,.14-.32,.32-.32,.32,.14,.32,.32Zm0,1.49c0,.17-.14,.32-.32,.32s-.32-.14-.32-.32,.14-.32,.32-.32c.17,0,.32,.14,.32,.32Zm0,1.49c0,.17-.14,.32-.32,.32s-.32-.14-.32-.32,.14-.32,.32-.32,.32,.14,.32,.32Zm0,1.49c0,.18-.14,.32-.32,.32s-.32-.14-.32-.32,.14-.32,.32-.32c.17,0,.32,.14,.32,.32Zm4.47-4.47c0,.17-.14,.32-.32,.32s-.32-.14-.32-.32,.14-.32,.32-.32,.32,.14,.32,.32Zm0,1.49c0,.17-.14,.32-.32,.32s-.32-.14-.32-.32,.14-.32,.32-.32,.32,.14,.32,.32Zm0,1.49c0,.17-.14,.32-.32,.32s-.32-.14-.32-.32,.14-.32,.32-.32,.32,.14,.32,.32Zm0,1.49c0,.18-.14,.32-.32,.32s-.32-.14-.32-.32,.14-.32,.32-.32,.32,.14,.32,.32Zm-13.4,1.49c0,.17-.14,.32-.32,.32s-.32-.14-.32-.32,.14-.32,.32-.32,.32,.14,.32,.32Zm-.75-.75c0,.17-.14,.32-.32,.32s-.32-.14-.32-.32,.14-.32,.32-.32,.32,.14,.32,.32Zm1.49,0c0,.17-.14,.32-.32,.32s-.32-.14-.32-.32,.14-.32,.32-.32,.32,.14,.32,.32Zm5.21,.75c0,.17-.14,.32-.32,.32s-.32-.14-.32-.32,.14-.32,.32-.32,.32,.14,.32,.32Zm-1.49,0c0,.17-.14,.32-.32,.32s-.32-.14-.32-.32,.14-.32,.32-.32,.32,.14,.32,.32Zm.75-.75c0,.17-.14,.32-.32,.32s-.32-.14-.32-.32,.14-.32,.32-.32,.32,.14,.32,.32Zm1.49,0c0,.17-.14,.32-.32,.32s-.32-.14-.32-.32,.14-.32,.32-.32,.32,.14,.32,.32Zm.75,.75c0,.17-.14,.32-.32,.32s-.32-.14-.32-.32,.14-.32,.32-.32,.32,.14,.32,.32Zm2.98,0c0,.17-.14,.32-.32,.32s-.32-.14-.32-.32,.14-.32,.32-.32,.32,.14,.32,.32Zm-2.23-.75c0,.17-.14,.32-.32,.32s-.32-.14-.32-.32,.14-.32,.32-.32,.32,.14,.32,.32Zm1.49,0c0,.17-.14,.32-.32,.32s-.32-.14-.32-.32,.14-.32,.32-.32,.32,.14,.32,.32Zm5.21,.75c0,.17-.14,.32-.32,.32s-.32-.14-.32-.32,.14-.32,.32-.32,.32,.14,.32,.32Zm-.74-.75c0,.17-.14,.32-.32,.32s-.32-.14-.32-.32,.14-.32,.32-.32,.32,.14,.32,.32Zm1.49,0c0,.17-.14,.32-.32,.32s-.32-.14-.32-.32,.14-.32,.32-.32,.32,.14,.32,.32Zm-6.7,.75c0,.17-.14,.32-.32,.32s-.32-.14-.32-.32,.14-.32,.32-.32,.32,.14,.32,.32Z"/>
    <g>
      <path class="cls-8" d="M0,107.46c0-1.9,.53-3.06,2.09-4.69,1.6-1.69,2.05-2.7,2.05-3.93s-.42-1.52-1.08-1.52-1.08,.36-1.08,1.31v1.42H0v-1.29c0-2.13,1.06-3.34,3.12-3.34s3.12,1.22,3.12,3.34c0,1.58-.65,2.98-2.58,5.03-1.25,1.33-1.58,1.99-1.58,2.93v.28h3.97v1.9H0v-1.44Z"/>
      <path class="cls-8" d="M7.58,105.75v-1.04h1.98v1.2c0,.95,.42,1.29,1.08,1.29s1.08-.34,1.08-1.29v-2.98c0-.95-.42-1.31-1.08-1.31s-1.08,.36-1.08,1.31v.11h-1.98l.38-7.43h5.51v1.9h-3.65l-.17,3.17h.04c.38-.63,.97-.97,1.8-.97,1.54,0,2.32,1.08,2.32,3.04v3c0,2.13-1.06,3.34-3.12,3.34s-3.12-1.22-3.12-3.34Z"/>
      <path class="cls-8" d="M15.07,105.75v-.25h1.98v.38c0,.95,.42,1.31,1.08,1.31,.74,0,1.16-.36,1.16-1.63v-2.55h-.04c-.36,.76-.97,1.16-1.9,1.16-1.54,0-2.32-1.08-2.32-3.04v-2.37c0-2.13,1.12-3.34,3.17-3.34s3.17,1.22,3.17,3.34v6.88c0,2.24-1.03,3.46-3.19,3.46-2.05,0-3.12-1.22-3.12-3.34Zm4.22-4.79v-2.36c0-.87-.36-1.29-1.08-1.29s-1.08,.42-1.08,1.29v2.36c0,.89,.36,1.31,1.08,1.31s1.08-.42,1.08-1.31Z"/>
      <path class="cls-8" d="M25.88,95.61h2.98l1.33,9.52h.04l1.33-9.52h2.98v13.3h-1.98v-10.07h-.04l-1.52,10.07h-1.75l-1.52-10.07h-.04v10.07h-1.82v-13.3Z"/>
      <path class="cls-8" d="M36.1,95.61h2.09v13.3h-2.09v-13.3Z"/>
      <path class="cls-8" d="M39.75,95.61h2.09v11.4h3.44v1.9h-5.53v-13.3Z"/>
      <path class="cls-8" d="M46.28,95.61h2.09v11.4h3.44v1.9h-5.53v-13.3Z"/>
      <path class="cls-8" d="M52.82,95.61h2.09v13.3h-2.09v-13.3Z"/>
      <path class="cls-8" d="M56.32,105.75v-6.99c0-2.13,1.12-3.34,3.17-3.34s3.17,1.22,3.17,3.34v6.99c0,2.13-1.12,3.34-3.17,3.34s-3.17-1.22-3.17-3.34Zm4.25,.13v-7.26c0-.95-.42-1.31-1.08-1.31s-1.08,.36-1.08,1.31v7.26c0,.95,.42,1.31,1.08,1.31s1.08-.36,1.08-1.31Z"/>
      <path class="cls-8" d="M64.07,95.61h2.62l2.03,7.96h.04v-7.96h1.86v13.3h-2.15l-2.51-9.71h-.04v9.71h-1.86v-13.3Z"/>
      <path class="cls-8" d="M74.8,95.61h2.98l1.33,9.52h.04l1.33-9.52h2.98v13.3h-1.98v-10.07h-.04l-1.52,10.07h-1.75l-1.52-10.07h-.04v10.07h-1.82v-13.3Z"/>
      <path class="cls-8" d="M84.87,105.75v-6.99c0-2.13,1.12-3.34,3.17-3.34s3.17,1.22,3.17,3.34v6.99c0,2.13-1.12,3.34-3.17,3.34s-3.17-1.22-3.17-3.34Zm4.25,.13v-7.26c0-.95-.42-1.31-1.08-1.31s-1.08,.36-1.08,1.31v7.26c0,.95,.42,1.31,1.08,1.31s1.08-.36,1.08-1.31Z"/>
      <path class="cls-8" d="M92.62,95.61h3.1c2.17,0,3.1,1.01,3.1,3.06v.82c0,1.37-.44,2.24-1.37,2.62v.04c1.04,.32,1.39,1.31,1.39,2.81v2.34c0,.65,.02,1.12,.23,1.61h-2.13c-.11-.34-.19-.55-.19-1.63v-2.43c0-1.23-.36-1.63-1.31-1.63h-.72v5.7h-2.09v-13.3Zm2.85,5.7c.78,0,1.25-.34,1.25-1.41v-1.03c0-.95-.32-1.37-1.06-1.37h-.95v3.8h.76Z"/>
      <path class="cls-8" d="M100.28,95.61h5.7v1.9h-3.61v3.51h2.87v1.9h-2.87v4.08h3.61v1.9h-5.7v-13.3Z"/>
      <path class="cls-8" d="M110.22,95.61h2.98l1.33,9.52h.04l1.33-9.52h2.98v13.3h-1.98v-10.07h-.04l-1.52,10.07h-1.75l-1.52-10.07h-.04v10.07h-1.82v-13.3Z"/>
      <path class="cls-8" d="M122.05,95.61h2.83l2.17,13.3h-2.09l-.38-2.64v.04h-2.37l-.38,2.6h-1.94l2.17-13.3Zm2.28,8.89l-.93-6.57h-.04l-.91,6.57h1.88Z"/>
      <path class="cls-8" d="M128.06,95.61h2.09v11.4h3.44v1.9h-5.53v-13.3Z"/>
      <path class="cls-8" d="M134.59,95.61h5.7v1.9h-3.61v3.51h2.87v1.9h-2.87v4.08h3.61v1.9h-5.7v-13.3Z"/>
      <path class="cls-8" d="M146.16,97.5h-2.19v-1.9h6.46v1.9h-2.18v11.4h-2.09v-11.4Z"/>
      <path class="cls-8" d="M151.45,95.61h2.09v5.41h2.24v-5.41h2.09v13.3h-2.09v-5.98h-2.24v5.98h-2.09v-13.3Z"/>
      <path class="cls-8" d="M161.04,95.61h2.83l2.17,13.3h-2.09l-.38-2.64v.04h-2.37l-.38,2.6h-1.94l2.17-13.3Zm2.28,8.89l-.93-6.57h-.04l-.91,6.57h1.88Z"/>
      <path class="cls-8" d="M167.04,95.61h2.62l2.03,7.96h.04v-7.96h1.86v13.3h-2.15l-2.51-9.71h-.04v9.71h-1.86v-13.3Z"/>
      <path class="cls-8" d="M178.2,95.61h5.53v1.9h-3.44v3.7h2.7v1.9h-2.7v5.79h-2.09v-13.3Z"/>
      <path class="cls-8" d="M184.73,95.61h5.7v1.9h-3.61v3.51h2.87v1.9h-2.87v4.08h3.61v1.9h-5.7v-13.3Z"/>
      <path class="cls-8" d="M191.63,95.61h2.98l1.33,9.52h.04l1.33-9.52h2.98v13.3h-1.98v-10.07h-.04l-1.52,10.07h-1.75l-1.52-10.07h-.04v10.07h-1.82v-13.3Z"/>
      <path class="cls-8" d="M203.47,95.61h2.83l2.17,13.3h-2.09l-.38-2.64v.04h-2.37l-.38,2.6h-1.94l2.17-13.3Zm2.28,8.89l-.93-6.57h-.04l-.91,6.57h1.88Z"/>
      <path class="cls-8" d="M209.47,95.61h2.09v11.4h3.44v1.9h-5.53v-13.3Z"/>
      <path class="cls-8" d="M216.01,95.61h5.7v1.9h-3.61v3.51h2.87v1.9h-2.87v4.08h3.61v1.9h-5.7v-13.3Z"/>
      <path class="cls-8" d="M225.87,105.75v-10.14h2.09v10.3c0,.95,.4,1.29,1.06,1.29s1.06-.34,1.06-1.29v-10.3h2.01v10.14c0,2.13-1.06,3.34-3.12,3.34s-3.12-1.22-3.12-3.34Z"/>
      <path class="cls-8" d="M233.22,105.75v-.76h1.98v.91c0,.95,.42,1.29,1.08,1.29s1.08-.34,1.08-1.33c0-1.1-.42-1.8-1.79-3-1.75-1.54-2.32-2.62-2.32-4.14,0-2.09,1.08-3.31,3.12-3.31s3.04,1.22,3.04,3.34v.55h-1.98v-.68c0-.95-.38-1.31-1.04-1.31s-1.04,.36-1.04,1.27c0,.97,.44,1.67,1.8,2.87,1.75,1.54,2.3,2.6,2.3,4.26,0,2.17-1.1,3.38-3.15,3.38s-3.08-1.22-3.08-3.34Z"/>
      <path class="cls-8" d="M240.65,95.61h5.7v1.9h-3.61v3.51h2.87v1.9h-2.87v4.08h3.61v1.9h-5.7v-13.3Z"/>
      <path class="cls-8" d="M247.55,95.61h3.1c2.17,0,3.1,1.01,3.1,3.06v.82c0,1.37-.44,2.24-1.37,2.62v.04c1.04,.32,1.39,1.31,1.39,2.81v2.34c0,.65,.02,1.12,.23,1.61h-2.13c-.11-.34-.19-.55-.19-1.63v-2.43c0-1.23-.36-1.63-1.31-1.63h-.72v5.7h-2.09v-13.3Zm2.85,5.7c.78,0,1.25-.34,1.25-1.41v-1.03c0-.95-.32-1.37-1.06-1.37h-.95v3.8h.76Z"/>
      <path class="cls-8" d="M254.84,105.75v-.76h1.98v.91c0,.95,.42,1.29,1.08,1.29s1.08-.34,1.08-1.33c0-1.1-.42-1.8-1.79-3-1.75-1.54-2.32-2.62-2.32-4.14,0-2.09,1.08-3.31,3.12-3.31s3.04,1.22,3.04,3.34v.55h-1.98v-.68c0-.95-.38-1.31-1.04-1.31s-1.04,.36-1.04,1.27c0,.97,.44,1.67,1.8,2.87,1.75,1.54,2.3,2.6,2.3,4.26,0,2.17-1.1,3.38-3.15,3.38s-3.08-1.22-3.08-3.34Z"/>
    </g>
    <path class="cls-8" d="M236.03,28.18v-4.43h1.67v4.43l-.21,3.38h-1.24l-.21-3.38Zm.03,4.58h1.61v1.61h-1.61v-1.61Z"/>
    <line class="cls-6" x1="24.24" y1="23.4" x2="14.57" y2="23.4"/>
    <line class="cls-6" x1="24.24" y1="40.95" x2="14.57" y2="40.95"/>
    <g>
      <line class="cls-6" x1="39.54" y1="85.39" x2="236.9" y2="85.39"/>
      <g>
        <path class="cls-5" d="M.24,76.03H1.78v9.81H.24v-9.81Z"/>
        <path class="cls-5" d="M3.21,76.03h1.93l1.5,5.87h.03v-5.87h1.37v9.81h-1.58l-1.85-7.16h-.03v7.16h-1.37v-9.81Z"/>
        <path class="cls-5" d="M11.96,84.77c0-1.4,.39-2.26,1.54-3.46,1.18-1.25,1.51-1.99,1.51-2.9s-.31-1.12-.8-1.12-.8,.27-.8,.97v1.05h-1.46v-.95c0-1.57,.79-2.47,2.3-2.47s2.3,.9,2.3,2.47c0,1.16-.48,2.2-1.91,3.71-.92,.98-1.16,1.47-1.16,2.16v.21h2.93v1.4h-4.46v-1.06Z"/>
        <path class="cls-5" d="M17.75,83.51v-5.15c0-1.57,.83-2.47,2.34-2.47s2.34,.9,2.34,2.47v5.15c0,1.57-.83,2.47-2.34,2.47s-2.34-.9-2.34-2.47Zm3.14,.1v-5.35c0-.7-.31-.97-.8-.97s-.8,.27-.8,.97v5.35c0,.7,.31,.97,.8,.97s.8-.27,.8-.97Z"/>
        <path class="cls-5" d="M23.72,84.77c0-1.4,.39-2.26,1.54-3.46,1.18-1.25,1.51-1.99,1.51-2.9s-.31-1.12-.8-1.12-.8,.27-.8,.97v1.05h-1.46v-.95c0-1.57,.79-2.47,2.3-2.47s2.3,.9,2.3,2.47c0,1.16-.48,2.2-1.91,3.71-.92,.98-1.16,1.47-1.16,2.16v.21h2.93v1.4h-4.46v-1.06Z"/>
        <path class="cls-5" d="M29.6,84.77c0-1.4,.39-2.26,1.54-3.46,1.18-1.25,1.51-1.99,1.51-2.9s-.31-1.12-.8-1.12-.8,.27-.8,.97v1.05h-1.46v-.95c0-1.57,.79-2.47,2.3-2.47s2.3,.9,2.3,2.47c0,1.16-.48,2.2-1.91,3.71-.92,.98-1.16,1.47-1.16,2.16v.21h2.93v1.4h-4.46v-1.06Z"/>
      </g>
    </g>
    <circle class="cls-7" cx="236.86" cy="85.3" r="1.81"/>
  </g>
</svg>