<?xml version="1.0" encoding="UTF-8"?><svg id="Layer_2" xmlns="http://www.w3.org/2000/svg" xmlns:xlink="http://www.w3.org/1999/xlink" viewBox="0 0 327.04 257.07"><defs><style>.cls-1,.cls-2,.cls-3,.cls-4{fill:none;}.cls-5{fill:#efdcb6;}.cls-6{fill:#fff;}.cls-7{fill:#939598;}.cls-8{fill:#ad8e48;}.cls-9{fill:#d19f2a;}.cls-2{stroke-dasharray:0 0 0 2.91;}.cls-2,.cls-3{stroke:#e8ca8f;stroke-linecap:round;stroke-linejoin:round;stroke-width:1.75px;}.cls-4{clip-path:url(#clippath);}</style><clipPath id="clippath"><path class="cls-1" d="m216.91,104.27c-.44-1-1.01-1.91-1.74-2.68.75-1.4,1.14-2.99,1.14-4.66,0-5.23-3.85-9.49-8.58-9.49-.55,0-1.04.05-1.56.16-.99-4.23-4.47-7.38-8.6-7.38-3.23,0-6.09,1.95-7.62,4.91-.88-.26-1.77-.39-2.68-.34-.75-4.86-4.27-8.68-8.66-9.44-.6-5.15-4.58-9.15-9.38-9.15-3.3,0-6.21,1.93-7.88,4.86-1.27-.75-2.67-1.14-4.13-1.14-3.92,0-7.25,2.65-8.58,6.45-1.19-.11-2.37.16-3.43.68-1.46-1.82-3.56-2.96-5.93-2.96s-4.39,1.14-5.85,2.96c-1.07-.52-2.29-.78-3.43-.68-1.34-3.8-4.65-6.45-8.54-6.45-1.48,0-2.89.39-4.16,1.14-1.66-2.94-4.58-4.86-7.85-4.86-4.83,0-8.82,4-9.41,9.15-4.39.75-7.88,4.6-8.63,9.44-.91-.05-1.82.08-2.7.34-1.51-2.96-4.36-4.91-7.59-4.91-4.16,0-7.64,3.14-8.63,7.39-.52-.11-1.02-.16-1.54-.16-4.73,0-8.61,4.27-8.61,9.49,0,1.66.42,3.25,1.14,4.63-.73.78-1.31,1.71-1.76,2.7h155.19Z"/></clipPath></defs><g id="Layer_2-2"><line class="cls-3" x1="277.32" y1="199.27" x2="277.32" y2="199.27"/><line class="cls-2" x1="274.41" y1="199.27" x2="2.33" y2="199.27"/><line class="cls-3" x1=".88" y1="199.27" x2=".88" y2="199.27"/><path class="cls-7" d="m60.19.22v2.74l-5.85,14.06h5.85v2.8h-9.02v-2.74l5.85-14.06h-5.57V.22h8.74Z"/><path class="cls-7" d="m66.04,8.48h4.23v2.8h-4.23v5.74h5.32v2.8h-8.4V.22h8.4v2.8h-5.32v5.46Z"/><path class="cls-7" d="m80.61,19.82c-.17-.5-.28-.81-.28-2.41v-3.08c0-1.82-.62-2.49-2.02-2.49h-1.06v7.98h-3.08V.22h4.65c3.19,0,4.56,1.48,4.56,4.51v1.54c0,2.02-.64,3.33-2.02,3.98,1.54.64,2.04,2.13,2.04,4.17v3.02c0,.95.03,1.65.34,2.38h-3.14Zm-3.36-16.8v6.02h1.2c1.15,0,1.85-.5,1.85-2.07v-1.93c0-1.4-.48-2.02-1.57-2.02h-1.48Z"/><path class="cls-7" d="m86.15,4.93c0-3.14,1.65-4.93,4.68-4.93s4.68,1.79,4.68,4.93v10.19c0,3.14-1.65,4.93-4.68,4.93s-4.68-1.79-4.68-4.93V4.93Zm3.08,10.39c0,1.4.62,1.93,1.6,1.93s1.6-.53,1.6-1.93V4.73c0-1.4-.62-1.93-1.6-1.93s-1.6.53-1.6,1.93v10.58Z"/><path class="cls-7" d="m107.15,19.82h-3.08V.22h3.08v8.4h3.5V.22h3.14v19.6h-3.14v-8.4h-3.5v8.4Z"/><path class="cls-7" d="m119.85.22v15.12c0,1.4.62,1.9,1.6,1.9s1.6-.5,1.6-1.9V.22h2.91v14.92c0,3.14-1.57,4.93-4.59,4.93s-4.59-1.79-4.59-4.93V.22h3.08Z"/><path class="cls-7" d="m131.7,5.63v14.2h-2.77V.22h3.86l3.16,11.73V.22h2.74v19.6h-3.16l-3.84-14.2Z"/><path class="cls-7" d="m146.46,8.9h4.31v6.22c0,3.14-1.57,4.93-4.59,4.93s-4.59-1.79-4.59-4.93V4.93c0-3.14,1.57-4.93,4.59-4.93s4.59,1.79,4.59,4.93v1.9h-2.91v-2.1c0-1.4-.62-1.93-1.6-1.93s-1.6.53-1.6,1.93v10.58c0,1.4.62,1.9,1.6,1.9s1.6-.5,1.6-1.9v-3.61h-1.4v-2.8Z"/><path class="cls-7" d="m156.75,8.48h4.23v2.8h-4.23v5.74h5.32v2.8h-8.4V.22h8.4v2.8h-5.32v5.46Z"/><path class="cls-7" d="m171.32,19.82c-.17-.5-.28-.81-.28-2.41v-3.08c0-1.82-.62-2.49-2.02-2.49h-1.06v7.98h-3.08V.22h4.65c3.19,0,4.56,1.48,4.56,4.51v1.54c0,2.02-.64,3.33-2.02,3.98,1.54.64,2.04,2.13,2.04,4.17v3.02c0,.95.03,1.65.34,2.38h-3.14Zm-3.36-16.8v6.02h1.2c1.15,0,1.85-.5,1.85-2.07v-1.93c0-1.4-.48-2.02-1.57-2.02h-1.48Z"/><path class="cls-7" d="m187.33,8.9h4.31v6.22c0,3.14-1.57,4.93-4.59,4.93s-4.59-1.79-4.59-4.93V4.93c0-3.14,1.57-4.93,4.59-4.93s4.59,1.79,4.59,4.93v1.9h-2.91v-2.1c0-1.4-.62-1.93-1.6-1.93s-1.6.53-1.6,1.93v10.58c0,1.4.62,1.9,1.6,1.9s1.6-.5,1.6-1.9v-3.61h-1.4v-2.8Z"/><path class="cls-7" d="m194.37,4.93c0-3.14,1.65-4.93,4.68-4.93s4.68,1.79,4.68,4.93v10.19c0,3.14-1.65,4.93-4.68,4.93s-4.68-1.79-4.68-4.93V4.93Zm3.08,10.39c0,1.4.62,1.93,1.6,1.93s1.6-.53,1.6-1.93V4.73c0-1.4-.62-1.93-1.6-1.93s-1.6.53-1.6,1.93v10.58Z"/><path class="cls-7" d="m216.67,19.82h-3.11l-.53-3.56h-3.78l-.53,3.56h-2.83L209.03.22h4.51l3.14,19.6Zm-7.03-6.22h2.97l-1.48-9.91-1.48,9.91Z"/><path class="cls-7" d="m219.25.22h3.08v16.8h5.07v2.8h-8.15V.22Z"/><rect class="cls-9" x="50.74" y="29.55" width="176.21" height="23.43"/><rect class="cls-9" x="130.46" y="237.55" width="120.59" height="19.52"/><path class="cls-7" d="m37.6,252.86h-1.8l-.31-2.06h-2.19l-.31,2.06h-1.64l1.81-11.34h2.61l1.81,11.34Zm-4.07-3.6h1.72l-.86-5.74-.86,5.74Z"/><path class="cls-7" d="m42.63,252.86c-.1-.29-.16-.47-.16-1.39v-1.78c0-1.05-.36-1.44-1.17-1.44h-.62v4.62h-1.78v-11.34h2.69c1.85,0,2.64.86,2.64,2.61v.89c0,1.17-.37,1.93-1.17,2.3.89.37,1.18,1.23,1.18,2.41v1.75c0,.55.02.96.19,1.38h-1.81Zm-1.94-9.72v3.48h.7c.66,0,1.07-.29,1.07-1.2v-1.12c0-.81-.28-1.17-.91-1.17h-.86Z"/><path class="cls-7" d="m47.61,246.3h2.45v1.62h-2.45v3.32h3.08v1.62h-4.86v-11.34h4.86v1.62h-3.08v3.16Z"/><path class="cls-7" d="m60.39,244.32v1.47c0,1.81-.88,2.8-2.66,2.8h-.84v4.26h-1.78v-11.34h2.63c1.78,0,2.66.99,2.66,2.8Zm-3.5-1.18v3.84h.84c.57,0,.88-.26.88-1.07v-1.7c0-.81-.31-1.07-.88-1.07h-.84Z"/><path class="cls-7" d="m65.42,252.86c-.1-.29-.16-.47-.16-1.39v-1.78c0-1.05-.36-1.44-1.17-1.44h-.62v4.62h-1.78v-11.34h2.69c1.85,0,2.64.86,2.64,2.61v.89c0,1.17-.37,1.93-1.17,2.3.89.37,1.18,1.23,1.18,2.41v1.75c0,.55.02.96.19,1.38h-1.81Zm-1.94-9.72v3.48h.7c.66,0,1.07-.29,1.07-1.2v-1.12c0-.81-.28-1.17-.91-1.17h-.86Z"/><path class="cls-7" d="m68.44,244.24c0-1.81.96-2.85,2.71-2.85s2.71,1.04,2.71,2.85v5.9c0,1.81-.96,2.85-2.71,2.85s-2.71-1.04-2.71-2.85v-5.9Zm1.78,6.01c0,.81.36,1.12.92,1.12s.92-.31.92-1.12v-6.13c0-.81-.36-1.12-.92-1.12s-.92.31-.92,1.12v6.13Z"/><path class="cls-7" d="m75.04,251.24c.19.02.42.02.62.02.57,0,1.02-.21,1.02-1.09v-8.65h1.78v8.52c0,2.27-1.22,2.85-2.56,2.85-.32,0-.57,0-.86-.03v-1.62Z"/><path class="cls-7" d="m81.78,246.3h2.45v1.62h-2.45v3.32h3.08v1.62h-4.86v-11.34h4.86v1.62h-3.08v3.16Z"/><path class="cls-7" d="m91.51,248.63v1.51c0,1.81-.91,2.85-2.66,2.85s-2.66-1.04-2.66-2.85v-5.9c0-1.81.91-2.85,2.66-2.85s2.66,1.04,2.66,2.85v1.1h-1.69v-1.22c0-.81-.36-1.12-.92-1.12s-.92.31-.92,1.12v6.13c0,.81.36,1.1.92,1.1s.92-.29.92-1.1v-1.62h1.69Z"/><path class="cls-7" d="m92.64,241.52h5.51v1.62h-1.86v9.72h-1.78v-9.72h-1.86v-1.62Z"/><path class="cls-7" d="m101.21,246.3h2.45v1.62h-2.45v3.32h3.08v1.62h-4.86v-11.34h4.86v1.62h-3.08v3.16Z"/><path class="cls-7" d="m105.73,241.52h2.82c1.78,0,2.66.99,2.66,2.8v5.74c0,1.81-.88,2.8-2.66,2.8h-2.82v-11.34Zm1.78,1.62v8.1h1c.57,0,.91-.29.91-1.1v-5.9c0-.81-.34-1.1-.91-1.1h-1Z"/><path class="cls-7" d="m115.14,241.52h5.51v1.62h-1.86v9.72h-1.78v-9.72h-1.86v-1.62Z"/><path class="cls-7" d="m121.81,244.24c0-1.81.96-2.85,2.71-2.85s2.71,1.04,2.71,2.85v5.9c0,1.81-.96,2.85-2.71,2.85s-2.71-1.04-2.71-2.85v-5.9Zm1.78,6.01c0,.81.36,1.12.92,1.12s.92-.31.92-1.12v-6.13c0-.81-.36-1.12-.92-1.12s-.92.31-.92,1.12v6.13Z"/><path class="cls-6" d="m136.4,246.56h2.3v1.62h-2.3v4.68h-1.78v-11.34h4.72v1.62h-2.93v3.42Z"/><path class="cls-6" d="m145.98,252.86h-1.8l-.31-2.06h-2.19l-.31,2.06h-1.64l1.81-11.34h2.61l1.81,11.34Zm-4.07-3.6h1.72l-.86-5.74-.86,5.74Z"/><path class="cls-6" d="m152.36,248.63v1.51c0,1.81-.91,2.85-2.66,2.85s-2.66-1.04-2.66-2.85v-5.9c0-1.81.91-2.85,2.66-2.85s2.66,1.04,2.66,2.85v1.1h-1.69v-1.22c0-.81-.36-1.12-.92-1.12s-.92.31-.92,1.12v6.13c0,.81.36,1.1.92,1.1s.92-.29.92-1.1v-1.62h1.69Z"/><path class="cls-6" d="m155.58,246.3h2.45v1.62h-2.45v3.32h3.08v1.62h-4.86v-11.34h4.86v1.62h-3.08v3.16Z"/><path class="cls-6" d="m164.86,252.86h-1.78v-11.34h1.78v4.86h2.03v-4.86h1.81v11.34h-1.81v-4.86h-2.03v4.86Z"/><path class="cls-6" d="m172.03,241.52v8.75c0,.81.36,1.1.92,1.1s.92-.29.92-1.1v-8.75h1.69v8.64c0,1.81-.91,2.85-2.66,2.85s-2.66-1.04-2.66-2.85v-8.64h1.78Z"/><path class="cls-6" d="m178.7,244.64v8.22h-1.6v-11.34h2.24l1.83,6.79v-6.79h1.59v11.34h-1.83l-2.22-8.22Z"/><path class="cls-6" d="m187.05,246.54h2.5v3.6c0,1.81-.91,2.85-2.66,2.85s-2.66-1.04-2.66-2.85v-5.9c0-1.81.91-2.85,2.66-2.85s2.66,1.04,2.66,2.85v1.1h-1.69v-1.22c0-.81-.36-1.12-.92-1.12s-.92.31-.92,1.12v6.13c0,.81.36,1.1.92,1.1s.92-.29.92-1.1v-2.09h-.81v-1.62Z"/><path class="cls-6" d="m192.82,246.3h2.45v1.62h-2.45v3.32h3.08v1.62h-4.86v-11.34h4.86v1.62h-3.08v3.16Z"/><path class="cls-6" d="m201.06,252.86c-.1-.29-.16-.47-.16-1.39v-1.78c0-1.05-.36-1.44-1.17-1.44h-.62v4.62h-1.78v-11.34h2.69c1.85,0,2.64.86,2.64,2.61v.89c0,1.17-.37,1.93-1.17,2.3.89.37,1.18,1.23,1.18,2.41v1.75c0,.55.02.96.19,1.38h-1.81Zm-1.94-9.72v3.48h.7c.66,0,1.07-.29,1.07-1.2v-1.12c0-.81-.28-1.17-.91-1.17h-.86Z"/><path class="cls-6" d="m207.17,241.52h1.78v11.34h-1.78v-11.34Z"/><path class="cls-6" d="m212.12,244.64v8.22h-1.6v-11.34h2.24l1.83,6.79v-6.79h1.59v11.34h-1.83l-2.22-8.22Z"/><path class="cls-6" d="m223.38,243.01c-.57,0-.92.31-.92,1.12v1.22h-1.69v-1.1c0-1.81.91-2.85,2.66-2.85s2.66,1.04,2.66,2.85c0,3.56-3.55,4.89-3.55,6.76,0,.08,0,.16.02.24h3.37v1.62h-5.15v-1.39c0-3.34,3.53-3.89,3.53-7.16,0-1.02-.36-1.3-.92-1.3Z"/><path class="cls-6" d="m227.46,244.24c0-1.81.96-2.85,2.71-2.85s2.71,1.04,2.71,2.85v5.9c0,1.81-.96,2.85-2.71,2.85s-2.71-1.04-2.71-2.85v-5.9Zm1.78,6.01c0,.81.36,1.12.92,1.12s.92-.31.92-1.12v-6.13c0-.81-.36-1.12-.92-1.12s-.92.31-.92,1.12v6.13Z"/><path class="cls-6" d="m237.81,244.3c0-1.02-.36-1.3-.92-1.3s-.92.31-.92,1.12v.73h-1.69v-.62c0-1.81.91-2.85,2.66-2.85s2.66,1.04,2.66,2.85v.29c0,1.22-.39,1.98-1.25,2.33.89.39,1.25,1.23,1.25,2.38v.89c0,1.81-.91,2.85-2.66,2.85s-2.66-1.04-2.66-2.85v-.94h1.69v1.05c0,.81.36,1.12.92,1.12s.92-.28.92-1.28v-.89c0-1.05-.36-1.44-1.17-1.44h-.6v-1.62h.7c.66,0,1.07-.29,1.07-1.2v-.63Z"/><path class="cls-6" d="m241.01,244.24c0-1.81.96-2.85,2.71-2.85s2.71,1.04,2.71,2.85v5.9c0,1.81-.96,2.85-2.71,2.85s-2.71-1.04-2.71-2.85v-5.9Zm1.78,6.01c0,.81.36,1.12.92,1.12s.92-.31.92-1.12v-6.13c0-.81-.36-1.12-.92-1.12s-.92.31-.92,1.12v6.13Z"/><path class="cls-6" d="m124.13,47.17h-2l-.34-2.29h-2.43l-.34,2.29h-1.82l2.02-12.6h2.9l2.02,12.6Zm-4.52-4h1.91l-.95-6.37-.95,6.37Z"/><path class="cls-6" d="m124.7,34.56h6.12v1.8h-2.07v10.8h-1.98v-10.8h-2.07v-1.8Z"/><path class="cls-6" d="m140.06,47.17c-.11-.32-.18-.52-.18-1.55v-1.98c0-1.17-.4-1.6-1.3-1.6h-.68v5.13h-1.98v-12.6h2.99c2.05,0,2.93.95,2.93,2.9v.99c0,1.3-.41,2.14-1.3,2.56.99.41,1.31,1.37,1.31,2.68v1.94c0,.61.02,1.06.22,1.53h-2.02Zm-2.16-10.8v3.87h.77c.74,0,1.19-.32,1.19-1.33v-1.24c0-.9-.31-1.3-1.01-1.3h-.95Z"/><path class="cls-6" d="m143.86,34.56h1.98v12.6h-1.98v-12.6Z"/><path class="cls-6" d="m150.62,34.42c1.93,0,2.92,1.15,2.92,3.17v.4h-1.87v-.52c0-.9-.36-1.24-.99-1.24s-.99.34-.99,1.24c0,2.59,3.87,3.08,3.87,6.68,0,2.02-1.01,3.17-2.95,3.17s-2.95-1.15-2.95-3.17v-.77h1.87v.9c0,.9.4,1.22,1.03,1.22s1.03-.32,1.03-1.22c0-2.59-3.87-3.08-3.87-6.68,0-2.02.99-3.17,2.92-3.17Z"/><path class="cls-6" d="m157.96,42.14l-.61,1.15v3.87h-1.98v-12.6h1.98v5.49l2.59-5.49h1.98l-2.75,5.62,2.75,6.99h-2.03l-1.93-5.02Z"/><path class="cls-9" d="m65.98,216.03c0-3.07,1.4-4.73,4.37-4.73,2.81,0,4.26,1.66,4.26,4.58v.47h-2.7v-.65c0-1.3-.57-1.79-1.48-1.79-1.01,0-1.59.49-1.59,2.24v3.33c.49-1.04,1.38-1.61,2.65-1.61,2.11,0,3.17,1.48,3.17,4.16v3.33c0,2.91-1.53,4.58-4.34,4.58s-4.34-1.66-4.34-4.58v-9.31Zm2.86,6.21v3.28c0,1.3.57,1.77,1.48,1.77s1.48-.47,1.48-1.77v-3.28c0-1.3-.57-1.79-1.48-1.79s-1.48.49-1.48,1.79Z"/><path class="cls-9" d="m76.8,215.87c0-2.91,1.53-4.58,4.34-4.58s4.34,1.66,4.34,4.58v9.46c0,2.91-1.53,4.58-4.34,4.58s-4.34-1.66-4.34-4.58v-9.46Zm2.86,9.65c0,1.3.57,1.79,1.48,1.79s1.48-.49,1.48-1.79v-9.83c0-1.3-.57-1.79-1.48-1.79s-1.48.49-1.48,1.79v9.83Z"/><path class="cls-9" d="m87.64,215.87c0-2.91,1.53-4.58,4.34-4.58s4.34,1.66,4.34,4.58v9.46c0,2.91-1.53,4.58-4.34,4.58s-4.34-1.66-4.34-4.58v-9.46Zm2.86,9.65c0,1.3.57,1.79,1.48,1.79s1.48-.49,1.48-1.79v-9.83c0-1.3-.57-1.79-1.48-1.79s-1.48.49-1.48,1.79v9.83Z"/><path class="cls-9" d="m109.56,224.43l1.95-12.92h3.98v18.2h-2.7v-13.05l-1.98,13.05h-2.7l-2.13-12.87v12.87h-2.5v-18.2h3.98l2.11,12.92Z"/><path class="cls-9" d="m117.96,211.5h2.86v18.2h-2.86v-18.2Z"/><path class="cls-9" d="m123.27,211.5h2.86v15.6h4.71v2.6h-7.57v-18.2Z"/><path class="cls-9" d="m132.81,211.5h2.86v15.6h4.71v2.6h-7.57v-18.2Z"/><path class="cls-9" d="m142.36,211.5h2.86v18.2h-2.86v-18.2Z"/><path class="cls-9" d="m147.53,215.87c0-2.91,1.53-4.58,4.34-4.58s4.34,1.66,4.34,4.58v9.46c0,2.91-1.53,4.58-4.34,4.58s-4.34-1.66-4.34-4.58v-9.46Zm2.86,9.65c0,1.3.57,1.79,1.48,1.79s1.48-.49,1.48-1.79v-9.83c0-1.3-.57-1.79-1.48-1.79s-1.48.49-1.48,1.79v9.83Z"/><path class="cls-9" d="m161.1,216.52v13.18h-2.57v-18.2h3.59l2.94,10.89v-10.89h2.55v18.2h-2.94l-3.56-13.18Z"/><path class="cls-7" d="m180.92,217.91v1.47c0,1.81-.88,2.8-2.66,2.8h-.84v4.26h-1.78v-11.34h2.63c1.78,0,2.66.99,2.66,2.8Zm-3.5-1.18v3.84h.84c.57,0,.88-.26.88-1.07v-1.7c0-.81-.31-1.07-.88-1.07h-.84Z"/><path class="cls-7" d="m184.04,219.88h2.45v1.62h-2.45v3.32h3.08v1.62h-4.86v-11.34h4.86v1.62h-3.08v3.16Z"/><path class="cls-7" d="m188.46,217.83c0-1.81.96-2.85,2.71-2.85s2.71,1.04,2.71,2.85v5.9c0,1.81-.96,2.85-2.71,2.85s-2.71-1.04-2.71-2.85v-5.9Zm1.78,6.01c0,.81.36,1.12.92,1.12s.92-.31.92-1.12v-6.13c0-.81-.36-1.12-.92-1.12s-.92.31-.92,1.12v6.13Z"/><path class="cls-7" d="m200.65,217.91v1.47c0,1.81-.88,2.8-2.66,2.8h-.84v4.26h-1.78v-11.34h2.63c1.78,0,2.66.99,2.66,2.8Zm-3.5-1.18v3.84h.84c.57,0,.88-.26.88-1.07v-1.7c0-.81-.31-1.07-.88-1.07h-.84Z"/><path class="cls-7" d="m201.95,215.1h1.78v9.72h2.93v1.62h-4.72v-11.34Z"/><path class="cls-7" d="m209.73,219.88h2.45v1.62h-2.45v3.32h3.08v1.62h-4.86v-11.34h4.86v1.62h-3.08v3.16Z"/><path class="cls-7" d="m221.18,220.4l-.65,6.04h-2.45l-1.26-11.34h1.73l.96,8.94.86-8.94h1.72l.89,9.01.92-9.01h1.56l-1.26,11.34h-2.37l-.65-6.04Z"/><path class="cls-7" d="m226.62,217.83c0-1.81.96-2.85,2.71-2.85s2.71,1.04,2.71,2.85v5.9c0,1.81-.96,2.85-2.71,2.85s-2.71-1.04-2.71-2.85v-5.9Zm1.78,6.01c0,.81.36,1.12.92,1.12s.92-.31.92-1.12v-6.13c0-.81-.36-1.12-.92-1.12s-.92.31-.92,1.12v6.13Z"/><path class="cls-7" d="m237.25,226.45c-.1-.29-.16-.47-.16-1.39v-1.78c0-1.05-.36-1.44-1.17-1.44h-.62v4.62h-1.78v-11.34h2.69c1.85,0,2.64.86,2.64,2.61v.89c0,1.17-.37,1.93-1.17,2.3.89.37,1.18,1.23,1.18,2.41v1.75c0,.55.02.96.19,1.38h-1.81Zm-1.94-9.72v3.48h.7c.66,0,1.07-.29,1.07-1.2v-1.12c0-.81-.28-1.17-.91-1.17h-.86Z"/><path class="cls-7" d="m240.44,215.1h1.78v9.72h2.93v1.62h-4.72v-11.34Z"/><path class="cls-7" d="m246.44,215.1h2.82c1.78,0,2.66.99,2.66,2.8v5.74c0,1.81-.88,2.8-2.66,2.8h-2.82v-11.34Zm1.78,1.62v8.1h1c.57,0,.91-.29.91-1.1v-5.9c0-.81-.34-1.1-.91-1.1h-1Z"/><path class="cls-7" d="m257.41,220.4l-.65,6.04h-2.45l-1.26-11.34h1.73l.96,8.94.86-8.94h1.72l.89,9.01.92-9.01h1.56l-1.26,11.34h-2.37l-.65-6.04Z"/><path class="cls-7" d="m263.03,215.1h1.78v11.34h-1.78v-11.34Z"/><path class="cls-7" d="m266.39,215.1h2.82c1.78,0,2.66.99,2.66,2.8v5.74c0,1.81-.88,2.8-2.66,2.8h-2.82v-11.34Zm1.78,1.62v8.1h1c.57,0,.91-.29.91-1.1v-5.9c0-.81-.34-1.1-.91-1.1h-1Z"/><path class="cls-7" d="m275.13,219.88h2.45v1.62h-2.45v3.32h3.08v1.62h-4.86v-11.34h4.86v1.62h-3.08v3.16Z"/><path class="cls-7" d="m4.2,223.16l1.22-8.05h2.48v11.34h-1.69v-8.13l-1.23,8.13h-1.69l-1.33-8.02v8.02H.41v-11.34h2.48l1.31,8.05Z"/><path class="cls-7" d="m9.4,217.83c0-1.81.96-2.85,2.71-2.85s2.71,1.04,2.71,2.85v5.9c0,1.81-.96,2.85-2.71,2.85s-2.71-1.04-2.71-2.85v-5.9Zm1.78,6.01c0,.81.36,1.12.92,1.12s.92-.31.92-1.12v-6.13c0-.81-.36-1.12-.92-1.12s-.92.31-.92,1.12v6.13Z"/><path class="cls-7" d="m20.04,226.45c-.1-.29-.16-.47-.16-1.39v-1.78c0-1.05-.36-1.44-1.17-1.44h-.62v4.62h-1.78v-11.34h2.69c1.85,0,2.64.86,2.64,2.61v.89c0,1.17-.37,1.93-1.17,2.3.89.37,1.18,1.23,1.18,2.41v1.75c0,.55.02.96.19,1.38h-1.81Zm-1.94-9.72v3.48h.7c.66,0,1.07-.29,1.07-1.2v-1.12c0-.81-.28-1.17-.91-1.17h-.86Z"/><path class="cls-7" d="m25.01,219.88h2.45v1.62h-2.45v3.32h3.08v1.62h-4.86v-11.34h4.86v1.62h-3.08v3.16Z"/><path class="cls-7" d="m31.99,215.1h5.51v1.62h-1.86v9.72h-1.78v-9.72h-1.86v-1.62Z"/><path class="cls-7" d="m40.56,226.45h-1.78v-11.34h1.78v4.86h2.03v-4.86h1.81v11.34h-1.81v-4.86h-2.03v4.86Z"/><path class="cls-7" d="m51.95,226.45h-1.8l-.31-2.06h-2.19l-.31,2.06h-1.64l1.81-11.34h2.61l1.81,11.34Zm-4.07-3.6h1.72l-.86-5.74-.86,5.74Z"/><path class="cls-7" d="m54.84,218.23v8.22h-1.6v-11.34h2.24l1.83,6.79v-6.79h1.59v11.34h-1.83l-2.22-8.22Z"/><path class="cls-9" d="m207.6,136.3H54.76c.91,3.64,2.31,7.12,4.13,10.32,12.01,25.14,35.22,40.76,60.55,40.76h39.75c25.32,0,48.51-15.63,60.45-40.58,1.9-3.3,3.3-6.84,4.21-10.5h-16.25Z"/><path class="cls-8" d="m53.51,126.47c0,1.56.11,3.09.28,4.63h4.94l-5.22-4.63Z"/><path class="cls-8" d="m68.36,131.31l.21-.21,7.98-7.56h-16.95l8.53,7.56.23.21Z"/><path class="cls-8" d="m85.75,123.35l-.18.18-8.01,7.56h16.93l-8.52-7.56-.21-.18Z"/><path class="cls-8" d="m104.1,131.31l.21-.21,7.98-7.56h-16.95l8.52,7.56.23.21Z"/><path class="cls-8" d="m121.5,123.35l-.18.18-8,7.56h16.93l-8.53-7.56-.21-.18Z"/><path class="cls-8" d="m139.86,131.31l.21-.21,7.98-7.56h-16.95l8.53,7.56.23.21Z"/><path class="cls-8" d="m157.24,123.35l-.18.18-8.01,7.56h16.93l-8.52-7.56-.21-.18Z"/><path class="cls-8" d="m175.6,131.31l.21-.21,7.98-7.56h-16.95l8.52,7.56.23.21Z"/><path class="cls-8" d="m192.99,123.35l-.18.18-8,7.56h16.93l-8.53-7.56-.21-.18Z"/><path class="cls-8" d="m211.32,131.31l.21-.21,8-7.56h-16.98l8.52,7.56.23.21Z"/><path class="cls-8" d="m224.81,131.1c.16-1.41.26-2.86.26-4.29l-4.55,4.29h4.29Z"/><path class="cls-9" d="m222.5,109.47H56.11c-1.43,0-2.6,1.14-2.6,2.6v6.27h171.59v-6.28c0-1.46-1.14-2.59-2.6-2.59h0Z"/><g class="cls-4"><path class="cls-5" d="m147.2,88.71c-.8-.9-3.69.38-6.46,2.84-2.77,2.47-4.36,5.19-3.56,6.09.8.9,3.69-.38,6.46-2.84,2.76-2.47,4.36-5.19,3.56-6.09Z"/><path class="cls-5" d="m125.49,84.24c-1.2-.07-2.34,2.88-2.55,6.58-.21,3.7.59,6.75,1.79,6.82,1.2.07,2.34-2.88,2.55-6.58.21-3.7-.59-6.76-1.79-6.82Z"/><path class="cls-5" d="m93.57,84.24c-1.2-.07-2.34,2.88-2.55,6.58-.21,3.7.59,6.75,1.79,6.82,1.2.07,2.34-2.88,2.55-6.58.21-3.7-.59-6.76-1.79-6.82Z"/><path class="cls-5" d="m156.47,84.24c-1.2-.07-2.34,2.88-2.55,6.58-.21,3.7.59,6.75,1.79,6.82,1.2.07,2.34-2.88,2.55-6.58.21-3.7-.59-6.76-1.79-6.82Z"/><path class="cls-5" d="m125.49,103.5c-1.2-.07-2.34,2.88-2.55,6.57-.21,3.7.59,6.76,1.79,6.82,1.2.07,2.34-2.88,2.55-6.58.21-3.7-.59-6.75-1.79-6.82Z"/><path class="cls-5" d="m93.57,103.5c-1.2-.07-2.34,2.88-2.55,6.57-.21,3.7.59,6.76,1.79,6.82,1.2.07,2.34-2.88,2.55-6.58.21-3.7-.59-6.75-1.79-6.82Z"/><path class="cls-5" d="m156.47,103.5c-1.2-.07-2.34,2.88-2.55,6.57-.21,3.7.59,6.76,1.79,6.82,1.2.07,2.34-2.88,2.55-6.58.21-3.7-.59-6.75-1.79-6.82Z"/><path class="cls-5" d="m179.58,88.71c-.8-.9-3.69.38-6.46,2.84-2.77,2.47-4.36,5.19-3.56,6.09.8.9,3.69-.38,6.46-2.84,2.77-2.47,4.36-5.19,3.56-6.09Z"/><path class="cls-5" d="m185.93,88.17c-.9.8.38,3.69,2.84,6.46,2.47,2.77,5.19,4.36,6.09,3.56.9-.8-.38-3.69-2.84-6.46-2.47-2.77-5.19-4.36-6.09-3.56Z"/><path class="cls-5" d="m84.66,88.71c-.8-.9-3.69.38-6.46,2.84-2.77,2.47-4.36,5.19-3.56,6.09.8.9,3.69-.38,6.46-2.84,2.77-2.47,4.36-5.19,3.56-6.09Z"/><path class="cls-5" d="m115.55,88.71c-.8-.9-3.69.38-6.46,2.84-2.77,2.47-4.36,5.19-3.56,6.09.8.9,3.69-.38,6.46-2.84,2.77-2.47,4.36-5.19,3.56-6.09Z"/><path class="cls-5" d="m137.57,106.88c-.8.9-3.69-.38-6.46-2.84-2.77-2.47-4.36-5.19-3.56-6.09.8-.9,3.69.38,6.46,2.84,2.76,2.47,4.36,5.19,3.56,6.09Z"/><path class="cls-5" d="m143.91,107.42c-.9-.8.38-3.69,2.84-6.46,2.47-2.77,5.19-4.36,6.09-3.56.9.8-.38,3.69-2.84,6.46-2.47,2.77-5.19,4.36-6.09,3.56Z"/><path class="cls-5" d="m169.21,106.88c-.8.9-3.69-.38-6.46-2.84-2.77-2.47-4.36-5.19-3.56-6.09.8-.9,3.69.38,6.46,2.84,2.77,2.47,4.36,5.19,3.56,6.09Z"/><path class="cls-5" d="m175.56,107.42c-.9-.8.38-3.69,2.84-6.46,2.47-2.77,5.19-4.36,6.09-3.56.9.8-.38,3.69-2.84,6.46-2.47,2.77-5.19,4.36-6.09,3.56Z"/><path class="cls-5" d="m74.28,106.88c-.8.9-3.69-.38-6.46-2.84-2.77-2.47-4.36-5.19-3.56-6.09.8-.9,3.69.38,6.46,2.84,2.76,2.47,4.36,5.19,3.56,6.09Z"/><path class="cls-5" d="m80.63,107.42c-.9-.8.38-3.69,2.84-6.46,2.47-2.77,5.19-4.36,6.09-3.56.9.8-.38,3.69-2.84,6.46-2.47,2.77-5.19,4.36-6.09,3.56Z"/><path class="cls-5" d="m105.92,106.88c-.8.9-3.69-.38-6.46-2.84-2.77-2.47-4.36-5.19-3.56-6.09.8-.9,3.69.38,6.46,2.84,2.77,2.47,4.36,5.19,3.56,6.09Z"/><path class="cls-5" d="m112.27,107.42c-.9-.8.38-3.69,2.84-6.46,2.47-2.77,5.19-4.36,6.09-3.56.9.8-.38,3.69-2.84,6.46-2.47,2.77-5.19,4.36-6.09,3.56Z"/><path class="cls-5" d="m205.45,95.16c-.8-.9-3.69.38-6.46,2.84-2.77,2.47-4.36,5.19-3.56,6.09.8.9,3.69-.38,6.46-2.84,2.77-2.47,4.36-5.19,3.56-6.09Z"/><path class="cls-5" d="m212.98,93.88c-1.2-.07-2.34,2.88-2.55,6.57-.21,3.7.59,6.75,1.79,6.82,1.2.07,2.34-2.88,2.55-6.58.21-3.7-.59-6.75-1.79-6.82Z"/><path class="cls-5" d="m102.5,59.18c-1.2-.07-2.34,2.88-2.55,6.57-.21,3.7.59,6.75,1.79,6.82,1.2.07,2.34-2.88,2.55-6.58.21-3.7-.59-6.75-1.79-6.82Z"/><path class="cls-5" d="m165.39,59.18c-1.2-.07-2.34,2.88-2.55,6.57-.21,3.7.59,6.75,1.79,6.82,1.2.07,2.34-2.88,2.55-6.58s-.59-6.75-1.79-6.82Z"/><path class="cls-5" d="m134.42,78.44c-1.2-.07-2.34,2.88-2.55,6.57-.21,3.7.59,6.76,1.79,6.82,1.2.07,2.34-2.88,2.55-6.58.21-3.7-.59-6.75-1.79-6.82Z"/><path class="cls-5" d="m102.5,78.44c-1.2-.07-2.34,2.88-2.55,6.57-.21,3.7.59,6.76,1.79,6.82,1.2.07,2.34-2.88,2.55-6.58.21-3.7-.59-6.75-1.79-6.82Z"/><path class="cls-5" d="m165.39,78.44c-1.2-.07-2.34,2.88-2.55,6.57-.21,3.7.59,6.76,1.79,6.82,1.2.07,2.34-2.88,2.55-6.58.21-3.7-.59-6.75-1.79-6.82Z"/><path class="cls-5" d="m188.51,63.65c-.8-.9-3.69.38-6.46,2.84-2.77,2.47-4.36,5.19-3.56,6.09.8.9,3.69-.38,6.46-2.84,2.77-2.47,4.36-5.19,3.56-6.09Z"/><path class="cls-5" d="m194.86,63.11c-.9.8.38,3.69,2.84,6.46,2.47,2.77,5.19,4.36,6.09,3.56.9-.8-.38-3.69-2.84-6.46-2.47-2.77-5.19-4.36-6.09-3.56Z"/><path class="cls-5" d="m93.58,63.65c-.8-.9-3.69.38-6.46,2.84-2.77,2.47-4.36,5.19-3.56,6.09.8.9,3.69-.38,6.46-2.84,2.77-2.47,4.36-5.19,3.56-6.09Z"/><path class="cls-5" d="m124.48,63.65c-.8-.9-3.69.38-6.46,2.84-2.77,2.47-4.36,5.19-3.56,6.09.8.9,3.69-.38,6.46-2.84,2.77-2.47,4.36-5.19,3.56-6.09Z"/><path class="cls-5" d="m146.49,81.82c-.8.9-3.69-.38-6.46-2.84-2.77-2.47-4.36-5.19-3.56-6.09.8-.9,3.69.38,6.46,2.84,2.76,2.47,4.36,5.19,3.56,6.09Z"/><path class="cls-5" d="m152.84,82.36c-.9-.8.38-3.69,2.84-6.46,2.47-2.76,5.19-4.36,6.09-3.56.9.8-.38,3.69-2.84,6.46-2.47,2.77-5.19,4.36-6.09,3.56Z"/><path class="cls-5" d="m177.18,83.72c-.8.9-3.69-.38-6.46-2.84-2.77-2.47-4.36-5.19-3.56-6.09.8-.9,3.69.38,6.46,2.84,2.77,2.47,4.36,5.19,3.56,6.09Z"/><path class="cls-5" d="m180.68,86.17c-.9-.8.38-3.69,2.84-6.46,2.47-2.77,5.19-4.36,6.09-3.56.9.8-.38,3.69-2.84,6.46-2.47,2.77-5.19,4.36-6.09,3.56Z"/><path class="cls-5" d="m83.21,81.82c-.8.9-3.69-.38-6.46-2.84-2.77-2.47-4.36-5.19-3.56-6.09.8-.9,3.69.38,6.46,2.84,2.76,2.47,4.36,5.19,3.56,6.09Z"/><path class="cls-5" d="m89.55,82.36c-.9-.8.38-3.69,2.84-6.46,2.47-2.76,5.19-4.36,6.09-3.56.9.8-.38,3.69-2.84,6.46-2.47,2.77-5.19,4.36-6.09,3.56Z"/><path class="cls-5" d="m114.85,81.82c-.8.9-3.69-.38-6.45-2.84-2.77-2.47-4.36-5.19-3.56-6.09.8-.9,3.69.38,6.46,2.84,2.77,2.47,4.36,5.19,3.56,6.09Z"/><path class="cls-5" d="m121.2,82.36c-.9-.8.38-3.69,2.84-6.46,2.47-2.76,5.19-4.36,6.09-3.56.9.8-.38,3.69-2.84,6.46-2.47,2.77-5.19,4.36-6.09,3.56Z"/><path class="cls-5" d="m279.09,75.39c-.8-.9-3.69.38-6.45,2.84-2.77,2.47-4.36,5.19-3.56,6.09.8.9,3.69-.38,6.46-2.84,2.76-2.47,4.36-5.19,3.56-6.09Z"/><path class="cls-5" d="m257.38,70.93c-1.2-.07-2.34,2.88-2.55,6.58-.21,3.7.59,6.75,1.79,6.82,1.2.07,2.34-2.88,2.55-6.58.21-3.7-.59-6.75-1.79-6.82Z"/><path class="cls-5" d="m225.46,70.93c-1.2-.07-2.34,2.88-2.56,6.58-.21,3.7.59,6.75,1.79,6.82,1.2.07,2.34-2.88,2.56-6.58.21-3.7-.59-6.75-1.79-6.82Z"/><path class="cls-5" d="m288.36,70.93c-1.2-.07-2.34,2.88-2.55,6.58-.21,3.7.59,6.75,1.79,6.82,1.2.07,2.34-2.88,2.55-6.58.21-3.7-.59-6.75-1.79-6.82Z"/><path class="cls-5" d="m257.38,90.18c-1.2-.07-2.34,2.88-2.55,6.57-.21,3.7.59,6.76,1.79,6.82,1.2.07,2.34-2.88,2.55-6.58.21-3.7-.59-6.75-1.79-6.82Z"/><path class="cls-5" d="m225.46,90.18c-1.2-.07-2.34,2.88-2.56,6.57-.21,3.7.59,6.76,1.79,6.82,1.2.07,2.34-2.88,2.56-6.58.21-3.7-.59-6.75-1.79-6.82Z"/><path class="cls-5" d="m288.36,90.18c-1.2-.07-2.34,2.88-2.55,6.57-.21,3.7.59,6.76,1.79,6.82,1.2.07,2.34-2.88,2.55-6.58.21-3.7-.59-6.75-1.79-6.82Z"/><path class="cls-5" d="m311.47,75.39c-.8-.9-3.69.38-6.46,2.84-2.76,2.47-4.36,5.19-3.56,6.09.8.9,3.69-.38,6.46-2.84,2.77-2.47,4.36-5.19,3.56-6.09Z"/><path class="cls-5" d="m317.82,74.85c-.9.8.38,3.69,2.84,6.45,2.47,2.77,5.19,4.36,6.09,3.56.9-.8-.38-3.69-2.84-6.46-2.47-2.77-5.2-4.36-6.09-3.56Z"/><path class="cls-5" d="m216.55,75.39c-.8-.9-3.69.38-6.46,2.84-2.77,2.47-4.36,5.19-3.56,6.09.8.9,3.69-.38,6.46-2.84,2.76-2.47,4.36-5.19,3.56-6.09Z"/><path class="cls-5" d="m247.44,75.39c-.8-.9-3.69.38-6.46,2.84-2.77,2.47-4.36,5.19-3.56,6.09.8.9,3.69-.38,6.46-2.84,2.77-2.47,4.36-5.19,3.56-6.09Z"/><path class="cls-5" d="m269.46,93.57c-.8.9-3.69-.38-6.46-2.84-2.76-2.47-4.36-5.19-3.56-6.09.8-.9,3.69.38,6.46,2.84,2.76,2.47,4.36,5.19,3.56,6.09Z"/><path class="cls-5" d="m275.8,94.11c-.9-.8.38-3.69,2.84-6.46,2.47-2.77,5.19-4.36,6.09-3.56.9.8-.38,3.69-2.84,6.46-2.47,2.77-5.19,4.36-6.09,3.56Z"/><path class="cls-5" d="m301.1,93.57c-.8.9-3.69-.38-6.46-2.84-2.77-2.47-4.36-5.19-3.56-6.09.8-.9,3.69.38,6.46,2.84,2.77,2.47,4.36,5.19,3.56,6.09Z"/><path class="cls-5" d="m307.45,94.11c-.9-.8.38-3.69,2.84-6.46,2.47-2.77,5.2-4.36,6.09-3.56.9.8-.38,3.69-2.84,6.46-2.47,2.77-5.19,4.36-6.09,3.56Z"/><path class="cls-5" d="m206.17,93.57c-.8.9-3.69-.38-6.45-2.84-2.77-2.47-4.36-5.19-3.56-6.09.8-.9,3.69.38,6.46,2.84,2.76,2.47,4.36,5.19,3.56,6.09Z"/><path class="cls-5" d="m212.52,94.11c-.9-.8.38-3.69,2.84-6.46,2.47-2.77,5.19-4.36,6.09-3.56.9.8-.38,3.69-2.84,6.46-2.47,2.77-5.19,4.36-6.09,3.56Z"/><path class="cls-5" d="m237.81,93.57c-.8.9-3.69-.38-6.46-2.84-2.77-2.47-4.36-5.19-3.56-6.09.8-.9,3.69.38,6.46,2.84,2.76,2.47,4.36,5.19,3.56,6.09Z"/><path class="cls-5" d="m244.16,94.11c-.9-.8.38-3.69,2.84-6.46,2.47-2.77,5.19-4.36,6.09-3.56.9.8-.38,3.69-2.84,6.46-2.47,2.77-5.2,4.36-6.09,3.56Z"/><path class="cls-5" d="m48.64,90.18c-1.2-.07-2.34,2.88-2.55,6.57-.21,3.7.59,6.76,1.79,6.82,1.2.07,2.34-2.88,2.55-6.58.21-3.7-.59-6.75-1.79-6.82Z"/><path class="cls-5" d="m63.1,78.8c-1.2-.07-2.34,2.88-2.55,6.57-.21,3.7.59,6.76,1.79,6.82,1.2.07,2.34-2.88,2.55-6.58.21-3.7-.59-6.75-1.79-6.82Z"/><path class="cls-5" d="m69.85,75.39c-.8-.9-3.69.38-6.46,2.84-2.77,2.47-4.36,5.19-3.56,6.09.8.9,3.69-.38,6.46-2.84,2.77-2.47,4.36-5.19,3.56-6.09Z"/><path class="cls-5" d="m76.2,74.85c-.9.8.38,3.69,2.84,6.45,2.47,2.77,5.19,4.36,6.09,3.56.9-.8-.38-3.69-2.84-6.46-2.47-2.77-5.19-4.36-6.09-3.56Z"/><path class="cls-5" d="m59.48,97.37c-.8.9-3.69-.38-6.46-2.84-2.77-2.47-4.36-5.19-3.56-6.09.8-.9,3.69.38,6.46,2.84,2.77,2.47,4.36,5.19,3.56,6.09Z"/><path class="cls-5" d="m65.83,94.11c-.9-.8.38-3.69,2.84-6.46,2.47-2.77,5.19-4.36,6.09-3.56.9.8-.38,3.69-2.84,6.46-2.47,2.77-5.19,4.36-6.09,3.56Z"/></g></g></svg>