<?xml version="1.0" encoding="UTF-8"?>
<svg id="Layer_2" data-name="Layer 2" xmlns="http://www.w3.org/2000/svg" viewBox="0 0 180.34 170.92">
  <defs>
    <style>
      .cls-1 {
        fill: #fff;
      }

      .cls-2 {
        fill: #d19f2a;
      }

      .cls-3 {
        fill: #939598;
      }

      .cls-4 {
        fill: #ad8e48;
      }

      .cls-5 {
        fill: #fbf5ec;
      }

      .cls-6 {
        fill: #fdf9f4;
      }

      .cls-7 {
        fill: #f7eede;
      }

      .cls-8 {
        fill: none;
        stroke: #d19f2a;
        stroke-miterlimit: 10;
        stroke-width: .75px;
      }

      .cls-9 {
        fill: #deb35b;
      }
    </style>
  </defs>
  <g id="Layer_2-2" data-name="Layer 2">
    <rect class="cls-7" x=".65" width="179.68" height="170.92"/>
    <rect class="cls-5" x="0" y="37.92" width="180.28" height="63.94"/>
    <g id="cB1qAg">
      <g>
        <path class="cls-4" d="M23.11,86.79c-.23-.21-.46-.42-.69-.62-.56-.5-1.07-1.04-1.27-1.78-.27-1.05-.01-1.98,.75-2.74,1.05-1.04,2.12-2.07,3.18-3.1,2.06-1.99,4.1-4,6.18-5.97,1.23-1.16,2.6-2.16,4.22-2.72,.38-.13,.8-.21,1.21-.21,2.34-.02,4.69-.01,7.03,0,1.08,0,1.99,.49,2.88,1.02,1.77,1.08,3.21,2.54,4.67,3.98,2.32,2.28,4.66,4.54,7.01,6.78,1.18,1.13,1.58,3.05-.1,4.53-.32,.28-.63,.55-1.02,.89,.23,.02,.37,.05,.51,.05,.8,0,1.6,0,2.4-.02,.24,0,.32,.06,.32,.3-.01,.74-.02,1.48,0,2.22,0,.25-.1,.3-.33,.3-1.81-.01-3.62,0-5.43,0-.38,0-.7,.08-1,.38-.9,.89-2.81,.8-3.71-.1-.15-.15-.41-.27-.62-.27-1.44-.02-2.89-.01-4.33-.01-4.46,0-8.91,0-13.37,0-.53,0-.98,.06-1.43,.44-1,.82-2.46,.77-3.46-.05-.32-.27-.65-.38-1.06-.37-1.78,.03-3.57,.02-5.35,.05-.23,0-.31-.08-.31-.29,0-.78,0-1.55,0-2.33,0-.22,.11-.24,.31-.24,.92,.01,1.84,0,2.76,0,.02-.03,.04-.07,.06-.1Zm5.16-3.18c.25,.23,.49,.45,.72,.68,.64,.62,1.41,1.17,1.89,1.9,.41,.63,.83,.71,1.48,.71,5.48-.01,10.95,0,16.43,0,.11,0,.28-.07,.32-.15,.31-.68,.84-1.18,1.39-1.66,.54-.48,1.07-.98,1.63-1.5-.78-.75-1.52-1.47-2.33-2.25-.01,.18-.02,.24-.02,.29,.01,.92,.01,1.84,.04,2.76,.01,.38-.15,.47-.5,.47-.93-.02-1.87,0-2.8-.01-.11,0-.23-.02-.36-.03,.04-.08,.04-.12,.06-.15,.93-.91,1.41-2.05,1.65-3.3q.09-.46-.39-.46c-3.67,0-7.33,0-11,0-.12,0-.23,.01-.4,.02,.12,1.5,.67,2.76,1.78,3.86h-7.28v-3.46c-.81,.79-1.54,1.5-2.31,2.25Z"/>
        <path class="cls-4" d="M48.81,59.78c.03,4.33-3.58,8.58-8.62,8.61-4.72,.03-8.62-3.94-8.66-8.61-.04-4.06,3.43-8.65,8.67-8.65,4.92,0,8.69,4.25,8.61,8.64Z"/>
      </g>
    </g>
    <g>
      <g id="cB1qAg-2" data-name="cB1qAg">
        <g>
          <path class="cls-9" d="M72.25,86.79c-.23-.21-.46-.42-.69-.62-.56-.5-1.07-1.04-1.27-1.78-.27-1.05-.01-1.98,.75-2.74,1.05-1.04,2.12-2.07,3.18-3.1,2.06-1.99,4.1-4,6.18-5.97,1.23-1.16,2.6-2.16,4.22-2.72,.38-.13,.8-.21,1.21-.21,2.34-.02,4.69-.01,7.03,0,1.08,0,1.99,.49,2.88,1.02,1.77,1.08,3.21,2.54,4.67,3.98,2.32,2.28,4.66,4.54,7.01,6.78,1.18,1.13,1.58,3.05-.1,4.53-.32,.28-.63,.55-1.02,.89,.23,.02,.37,.05,.51,.05,.8,0,1.6,0,2.4-.02,.24,0,.32,.06,.32,.3-.01,.74-.02,1.48,0,2.22,0,.25-.1,.3-.33,.3-1.81-.01-3.62,0-5.43,0-.38,0-.7,.08-1,.38-.9,.89-2.81,.8-3.71-.1-.15-.15-.41-.27-.62-.27-1.44-.02-2.89-.01-4.33-.01-4.46,0-8.91,0-13.37,0-.53,0-.98,.06-1.43,.44-1,.82-2.46,.77-3.46-.05-.32-.27-.65-.38-1.06-.37-1.78,.03-3.57,.02-5.35,.05-.23,0-.31-.08-.31-.29,0-.78,0-1.55,0-2.33,0-.22,.11-.24,.31-.24,.92,.01,1.84,0,2.76,0,.02-.03,.04-.07,.06-.1Zm5.16-3.18c.25,.23,.49,.45,.72,.68,.64,.62,1.41,1.17,1.89,1.9,.41,.63,.83,.71,1.48,.71,5.48-.01,10.95,0,16.43,0,.11,0,.28-.07,.32-.15,.31-.68,.84-1.18,1.39-1.66,.54-.48,1.07-.98,1.63-1.5-.78-.75-1.52-1.47-2.33-2.25-.01,.18-.02,.24-.02,.29,.01,.92,.01,1.84,.04,2.76,.01,.38-.15,.47-.5,.47-.93-.02-1.87,0-2.8-.01-.11,0-.23-.02-.36-.03,.04-.08,.04-.12,.06-.15,.93-.91,1.41-2.05,1.65-3.3q.09-.46-.39-.46c-3.67,0-7.33,0-11,0-.12,0-.23,.01-.4,.02,.12,1.5,.67,2.76,1.78,3.86h-7.28v-3.46c-.81,.79-1.54,1.5-2.31,2.25Z"/>
          <path class="cls-9" d="M97.96,59.78c.03,4.33-3.58,8.58-8.62,8.61-4.72,.03-8.62-3.94-8.66-8.61-.04-4.06,3.43-8.65,8.67-8.65,4.92,0,8.69,4.25,8.61,8.64Z"/>
        </g>
      </g>
      <path class="cls-6" d="M96.91,80.23h-11.6c.9-1.06,2.22-1.63,3.58-1.53,.38,0,.75,.03,1.12,.09,.89-.52,1.9-.78,2.92-.75,2.06,0,3.78,.95,3.97,2.19Z"/>
    </g>
    <g>
      <g id="cB1qAg-3" data-name="cB1qAg">
        <g>
          <path class="cls-9" d="M120.82,86.79c-.23-.21-.46-.42-.69-.62-.56-.5-1.07-1.04-1.27-1.78-.27-1.05-.01-1.98,.75-2.74,1.05-1.04,2.12-2.07,3.18-3.1,2.06-1.99,4.1-4,6.18-5.97,1.23-1.16,2.6-2.16,4.22-2.72,.38-.13,.8-.21,1.21-.21,2.34-.02,4.69-.01,7.03,0,1.08,0,1.99,.49,2.88,1.02,1.77,1.08,3.21,2.54,4.67,3.98,2.32,2.28,4.66,4.54,7.01,6.78,1.18,1.13,1.58,3.05-.1,4.53-.32,.28-.63,.55-1.02,.89,.23,.02,.37,.05,.51,.05,.8,0,1.6,0,2.4-.02,.24,0,.32,.06,.32,.3-.01,.74-.02,1.48,0,2.22,0,.25-.1,.3-.33,.3-1.81-.01-3.62,0-5.43,0-.38,0-.7,.08-1,.38-.9,.89-2.81,.8-3.71-.1-.15-.15-.41-.27-.62-.27-1.44-.02-2.89-.01-4.33-.01-4.46,0-8.91,0-13.37,0-.53,0-.98,.06-1.43,.44-1,.82-2.46,.77-3.46-.05-.32-.27-.65-.38-1.06-.37-1.78,.03-3.57,.02-5.35,.05-.23,0-.31-.08-.31-.29,0-.78,0-1.55,0-2.33,0-.22,.11-.24,.31-.24,.92,.01,1.84,0,2.76,0,.02-.03,.04-.07,.06-.1Zm5.16-3.18c.25,.23,.49,.45,.72,.68,.64,.62,1.41,1.17,1.89,1.9,.41,.63,.83,.71,1.48,.71,5.48-.01,10.95,0,16.43,0,.11,0,.28-.07,.32-.15,.31-.68,.84-1.18,1.39-1.66,.54-.48,1.07-.98,1.63-1.5-.78-.75-1.52-1.47-2.33-2.25-.01,.18-.02,.24-.02,.29,.01,.92,.01,1.84,.04,2.76,.01,.38-.15,.47-.5,.47-.93-.02-1.87,0-2.8-.01-.11,0-.23-.02-.36-.03,.04-.08,.04-.12,.06-.15,.93-.91,1.41-2.05,1.65-3.3q.09-.46-.39-.46c-3.67,0-7.33,0-11,0-.12,0-.23,.01-.4,.02,.12,1.5,.67,2.76,1.78,3.86h-7.28v-3.46c-.81,.79-1.54,1.5-2.31,2.25Z"/>
          <path class="cls-9" d="M146.53,59.78c.03,4.33-3.58,8.58-8.62,8.61-4.72,.03-8.62-3.94-8.66-8.61-.04-4.06,3.43-8.65,8.67-8.65,4.92,0,8.69,4.25,8.61,8.64Z"/>
        </g>
      </g>
      <path class="cls-6" d="M145.39,80.23h-11.6c.9-1.06,2.22-1.63,3.58-1.53,.38,0,.75,.03,1.12,.09,.89-.52,1.9-.78,2.92-.75,2.06,0,3.78,.95,3.97,2.19Z"/>
    </g>
    <g>
      <rect class="cls-2" x="50.2" y="141.98" width="78.34" height="14.69"/>
      <g>
        <path class="cls-3" d="M43.52,114.87h1.27l.59,6.45h.02l.62-6.45h1.44l.62,6.45h.02l.59-6.45h1.14l-.85,8.4h-1.64l-.6-5.66h-.02l-.6,5.66h-1.75l-.85-8.4Z"/>
        <path class="cls-3" d="M51.14,121.27v-4.41c0-1.34,.71-2.11,2-2.11s2,.77,2,2.11v4.41c0,1.34-.71,2.11-2,2.11s-2-.77-2-2.11Zm2.69,.08v-4.58c0-.6-.26-.83-.68-.83s-.68,.23-.68,.83v4.58c0,.6,.26,.83,.68,.83s.68-.23,.68-.83Z"/>
        <path class="cls-3" d="M56.75,114.87h1.96c1.37,0,1.95,.64,1.95,1.93v.52c0,.86-.28,1.42-.86,1.66v.02c.66,.2,.88,.83,.88,1.77v1.48c0,.41,.01,.71,.14,1.02h-1.34c-.07-.22-.12-.35-.12-1.03v-1.54c0-.78-.23-1.03-.83-1.03h-.46v3.6h-1.32v-8.4Zm1.8,3.6c.49,0,.79-.22,.79-.89v-.65c0-.6-.2-.86-.67-.86h-.6v2.4h.48Z"/>
        <path class="cls-3" d="M62.31,114.87h1.32v7.2h2.17v1.2h-3.49v-8.4Z"/>
        <path class="cls-3" d="M67.16,114.87h2.01c1.32,0,1.97,.73,1.97,2.08v4.25c0,1.34-.65,2.07-1.97,2.07h-2.01v-8.4Zm1.99,7.2c.42,0,.67-.22,.67-.82v-4.37c0-.6-.25-.82-.67-.82h-.67v6h.67Z"/>
        <path class="cls-3" d="M72.44,114.87h1.27l.59,6.45h.02l.62-6.45h1.44l.62,6.45h.02l.59-6.45h1.14l-.85,8.4h-1.64l-.6-5.66h-.02l-.6,5.66h-1.75l-.85-8.4Z"/>
        <path class="cls-3" d="M80.15,114.87h1.32v8.4h-1.32v-8.4Z"/>
        <path class="cls-3" d="M83.18,114.87h2.01c1.32,0,1.97,.73,1.97,2.08v4.25c0,1.34-.65,2.07-1.97,2.07h-2.01v-8.4Zm1.99,7.2c.42,0,.67-.22,.67-.82v-4.37c0-.6-.25-.82-.67-.82h-.67v6h.67Z"/>
        <path class="cls-3" d="M88.77,114.87h3.6v1.2h-2.28v2.22h1.81v1.2h-1.81v2.58h2.28v1.2h-3.6v-8.4Z"/>
        <path class="cls-3" d="M96.26,121.27v-.48h1.25v.58c0,.6,.26,.82,.68,.82s.68-.22,.68-.84c0-.7-.26-1.14-1.13-1.9-1.1-.97-1.46-1.66-1.46-2.61,0-1.32,.68-2.09,1.97-2.09s1.92,.77,1.92,2.11v.35h-1.25v-.43c0-.6-.24-.83-.66-.83s-.66,.23-.66,.8c0,.61,.28,1.06,1.14,1.81,1.1,.97,1.45,1.64,1.45,2.69,0,1.37-.7,2.14-1.99,2.14s-1.94-.77-1.94-2.11Z"/>
        <path class="cls-3" d="M102.7,116.07h-1.38v-1.2h4.08v1.2h-1.38v7.2h-1.32v-7.2Z"/>
        <path class="cls-3" d="M106.76,114.87h1.96c1.37,0,1.95,.64,1.95,1.93v.52c0,.86-.28,1.42-.86,1.66v.02c.66,.2,.88,.83,.88,1.77v1.48c0,.41,.01,.71,.14,1.02h-1.34c-.07-.22-.12-.35-.12-1.03v-1.54c0-.78-.23-1.03-.83-1.03h-.46v3.6h-1.32v-8.4Zm1.8,3.6c.49,0,.79-.22,.79-.89v-.65c0-.6-.2-.86-.67-.86h-.6v2.4h.48Z"/>
        <path class="cls-3" d="M112.27,121.27v-6.4h1.32v6.5c0,.6,.25,.82,.67,.82s.67-.22,.67-.82v-6.5h1.27v6.4c0,1.34-.67,2.11-1.97,2.11s-1.97-.77-1.97-2.11Z"/>
        <path class="cls-3" d="M117.76,121.27v-4.41c0-1.34,.67-2.11,1.97-2.11s1.97,.77,1.97,2.11v.72h-1.25v-.8c0-.6-.26-.83-.68-.83s-.68,.23-.68,.83v4.59c0,.6,.26,.82,.68,.82s.68-.22,.68-.82v-1.64h-.66v-1.2h1.91v2.75c0,1.34-.67,2.11-1.97,2.11s-1.97-.77-1.97-2.11Z"/>
        <path class="cls-3" d="M123.17,121.27v-4.41c0-1.34,.67-2.11,1.97-2.11s1.97,.77,1.97,2.11v.72h-1.25v-.8c0-.6-.26-.83-.68-.83s-.68,.23-.68,.83v4.59c0,.6,.26,.82,.68,.82s.68-.22,.68-.82v-1.64h-.66v-1.2h1.91v2.75c0,1.34-.67,2.11-1.97,2.11s-1.97-.77-1.97-2.11Z"/>
        <path class="cls-3" d="M128.68,114.87h1.32v7.2h2.17v1.2h-3.49v-8.4Z"/>
        <path class="cls-3" d="M133.53,114.87h3.6v1.2h-2.28v2.22h1.81v1.2h-1.81v2.58h2.28v1.2h-3.6v-8.4Z"/>
      </g>
      <g>
        <path class="cls-3" d="M31.6,129.44h1.27l.59,6.45h.02l.62-6.45h1.44l.62,6.45h.02l.59-6.45h1.14l-.85,8.4h-1.64l-.6-5.66h-.02l-.6,5.66h-1.75l-.85-8.4Z"/>
        <path class="cls-3" d="M39.31,129.44h1.32v8.4h-1.32v-8.4Z"/>
        <path class="cls-3" d="M43.37,130.64h-1.38v-1.2h4.08v1.2h-1.38v7.2h-1.32v-7.2Z"/>
        <path class="cls-3" d="M47.42,129.44h1.32v3.42h1.42v-3.42h1.32v8.4h-1.32v-3.78h-1.42v3.78h-1.32v-8.4Z"/>
        <path class="cls-3" d="M55.82,129.44h1.88l.84,6.01h.02l.84-6.01h1.88v8.4h-1.25v-6.36h-.02l-.96,6.36h-1.1l-.96-6.36h-.02v6.36h-1.15v-8.4Z"/>
        <path class="cls-3" d="M62.9,135.85v-4.41c0-1.34,.71-2.11,2-2.11s2,.77,2,2.11v4.41c0,1.34-.71,2.11-2,2.11s-2-.77-2-2.11Zm2.69,.08v-4.58c0-.6-.26-.83-.68-.83s-.68,.23-.68,.83v4.58c0,.6,.26,.83,.68,.83s.68-.23,.68-.83Z"/>
        <path class="cls-3" d="M68.52,129.44h2.01c1.32,0,1.97,.73,1.97,2.08v4.25c0,1.34-.65,2.07-1.97,2.07h-2.01v-8.4Zm1.99,7.2c.42,0,.67-.22,.67-.82v-4.37c0-.6-.25-.82-.67-.82h-.67v6h.67Z"/>
        <path class="cls-3" d="M74.11,129.44h3.6v1.2h-2.28v2.22h1.81v1.2h-1.81v2.58h2.28v1.2h-3.6v-8.4Z"/>
        <path class="cls-3" d="M79.19,129.44h1.96c1.37,0,1.95,.64,1.95,1.93v.52c0,.86-.28,1.42-.86,1.66v.02c.66,.2,.88,.83,.88,1.77v1.48c0,.41,.01,.71,.14,1.02h-1.34c-.07-.22-.12-.35-.12-1.03v-1.54c0-.78-.23-1.03-.83-1.03h-.46v3.6h-1.32v-8.4Zm1.8,3.6c.49,0,.79-.22,.79-.89v-.65c0-.6-.2-.86-.67-.86h-.6v2.4h.48Z"/>
        <path class="cls-3" d="M85.76,129.44h1.79l1.37,8.4h-1.32l-.24-1.67v.02h-1.5l-.24,1.64h-1.22l1.37-8.4Zm1.44,5.61l-.59-4.15h-.02l-.58,4.15h1.19Z"/>
        <path class="cls-3" d="M90.76,130.64h-1.38v-1.2h4.08v1.2h-1.38v7.2h-1.32v-7.2Z"/>
        <path class="cls-3" d="M94.81,129.44h3.6v1.2h-2.28v2.22h1.81v1.2h-1.81v2.58h2.28v1.2h-3.6v-8.4Z"/>
        <path class="cls-3" d="M103.56,130.64h-1.38v-1.2h4.08v1.2h-1.38v7.2h-1.32v-7.2Z"/>
        <path class="cls-3" d="M107.47,135.85v-4.41c0-1.34,.71-2.11,2-2.11s2,.77,2,2.11v4.41c0,1.34-.71,2.11-2,2.11s-2-.77-2-2.11Zm2.69,.08v-4.58c0-.6-.26-.83-.68-.83s-.68,.23-.68,.83v4.58c0,.6,.26,.83,.68,.83s.68-.23,.68-.83Z"/>
        <path class="cls-3" d="M115.5,135.85v-.48h1.25v.58c0,.6,.26,.82,.68,.82s.68-.22,.68-.84c0-.7-.26-1.14-1.13-1.9-1.1-.97-1.46-1.66-1.46-2.61,0-1.32,.68-2.09,1.97-2.09s1.92,.77,1.92,2.11v.35h-1.25v-.43c0-.6-.24-.83-.66-.83s-.66,.23-.66,.8c0,.61,.28,1.06,1.14,1.81,1.1,.97,1.45,1.64,1.45,2.69,0,1.37-.7,2.14-1.99,2.14s-1.94-.77-1.94-2.11Z"/>
        <path class="cls-3" d="M120.91,129.44h3.6v1.2h-2.28v2.22h1.81v1.2h-1.81v2.58h2.28v1.2h-3.6v-8.4Z"/>
        <path class="cls-3" d="M125.64,129.44h1.33l.86,6.51h.02l.86-6.51h1.21l-1.27,8.4h-1.75l-1.27-8.4Z"/>
        <path class="cls-3" d="M131.29,129.44h3.6v1.2h-2.28v2.22h1.81v1.2h-1.81v2.58h2.28v1.2h-3.6v-8.4Z"/>
        <path class="cls-3" d="M136.37,129.44h1.96c1.37,0,1.95,.64,1.95,1.93v.52c0,.86-.28,1.42-.86,1.66v.02c.66,.2,.88,.83,.88,1.77v1.48c0,.41,.01,.71,.14,1.02h-1.34c-.07-.22-.12-.35-.12-1.03v-1.54c0-.78-.23-1.03-.83-1.03h-.46v3.6h-1.32v-8.4Zm1.8,3.6c.49,0,.79-.22,.79-.89v-.65c0-.6-.2-.86-.67-.86h-.6v2.4h.48Z"/>
        <path class="cls-3" d="M141.92,129.44h3.6v1.2h-2.28v2.22h1.81v1.2h-1.81v2.58h2.28v1.2h-3.6v-8.4Z"/>
        <path class="cls-1" d="M53.78,145.44h3.49v1.2h-2.17v2.34h1.7v1.2h-1.7v3.66h-1.32v-8.4Z"/>
        <path class="cls-1" d="M58.53,151.85v-4.41c0-1.34,.71-2.11,2-2.11s2,.77,2,2.11v4.41c0,1.34-.71,2.11-2,2.11s-2-.77-2-2.11Zm2.69,.08v-4.58c0-.6-.26-.83-.68-.83s-.68,.23-.68,.83v4.58c0,.6,.26,.83,.68,.83s.68-.23,.68-.83Z"/>
        <path class="cls-1" d="M64.05,151.85v-4.41c0-1.34,.71-2.11,2-2.11s2,.77,2,2.11v4.41c0,1.34-.71,2.11-2,2.11s-2-.77-2-2.11Zm2.69,.08v-4.58c0-.6-.26-.83-.68-.83s-.68,.23-.68,.83v4.58c0,.6,.26,.83,.68,.83s.68-.23,.68-.83Z"/>
        <path class="cls-1" d="M69.67,145.44h2.01c1.32,0,1.97,.73,1.97,2.08v4.25c0,1.34-.65,2.07-1.97,2.07h-2.01v-8.4Zm1.99,7.2c.42,0,.67-.22,.67-.82v-4.37c0-.6-.25-.82-.67-.82h-.67v6h.67Z"/>
        <path class="cls-1" d="M77.9,145.44h1.32v8.4h-1.32v-8.4Z"/>
        <path class="cls-1" d="M80.92,145.44h1.66l1.28,5.03h.02v-5.03h1.18v8.4h-1.36l-1.58-6.13h-.02v6.13h-1.18v-8.4Z"/>
        <path class="cls-1" d="M86.54,151.85v-.48h1.25v.58c0,.6,.26,.82,.68,.82s.68-.22,.68-.84c0-.7-.26-1.14-1.13-1.9-1.1-.97-1.46-1.66-1.46-2.61,0-1.32,.68-2.09,1.97-2.09s1.92,.77,1.92,2.11v.35h-1.25v-.43c0-.6-.24-.83-.66-.83s-.66,.23-.66,.8c0,.61,.28,1.06,1.14,1.81,1.1,.97,1.45,1.64,1.45,2.69,0,1.37-.7,2.14-1.99,2.14s-1.94-.77-1.94-2.11Z"/>
        <path class="cls-1" d="M91.95,145.44h3.6v1.2h-2.28v2.22h1.81v1.2h-1.81v2.58h2.28v1.2h-3.6v-8.4Z"/>
        <path class="cls-1" d="M96.94,151.9v-4.51c0-1.29,.67-2.06,1.94-2.06s1.94,.77,1.94,2.06v.89h-1.25v-.97c0-.55-.26-.78-.66-.78s-.66,.23-.66,.78v4.69c0,.55,.26,.77,.66,.77s.66-.22,.66-.77v-1.28h1.25v1.19c0,1.3-.67,2.06-1.94,2.06s-1.94-.77-1.94-2.06Z"/>
        <path class="cls-1" d="M102.29,151.85v-6.4h1.32v6.5c0,.6,.25,.82,.67,.82s.67-.22,.67-.82v-6.5h1.27v6.4c0,1.34-.67,2.11-1.97,2.11s-1.97-.77-1.97-2.11Z"/>
        <path class="cls-1" d="M107.89,145.44h1.96c1.37,0,1.95,.64,1.95,1.93v.52c0,.86-.28,1.42-.86,1.66v.02c.66,.2,.88,.83,.88,1.77v1.48c0,.41,.01,.71,.14,1.02h-1.34c-.07-.22-.12-.35-.12-1.03v-1.54c0-.78-.23-1.03-.83-1.03h-.46v3.6h-1.32v-8.4Zm1.8,3.6c.49,0,.79-.22,.79-.89v-.65c0-.6-.2-.86-.67-.86h-.6v2.4h.48Z"/>
        <path class="cls-1" d="M113.44,145.44h1.32v8.4h-1.32v-8.4Z"/>
        <path class="cls-1" d="M117.5,146.64h-1.38v-1.2h4.08v1.2h-1.38v7.2h-1.32v-7.2Z"/>
        <path class="cls-1" d="M122.81,150.26l-1.6-4.82h1.4l.9,3.08h.02l.9-3.08h1.28l-1.6,4.82v3.57h-1.32v-3.57Z"/>
      </g>
    </g>
    <g>
      <g>
        <path class="cls-2" d="M48.21,14.32h-2.38v-1.61c1.92,0,2.61-.41,3.12-1.82h1.53v14.47h-2.27V14.32Z"/>
        <path class="cls-2" d="M56.28,13.65h1.39v8.84h-1.39V13.65Z"/>
        <path class="cls-2" d="M59.53,13.65h1.74l1.35,5.29h.03v-5.29h1.24v8.84h-1.43l-1.67-6.46h-.03v6.46h-1.24V13.65Z"/>
        <path class="cls-2" d="M68.39,21.97v-1.18h2.15v1.28c0,1.03,.45,1.43,1.18,1.43s1.18-.35,1.18-1.63v-1.18c0-1.34-.46-1.84-1.49-1.84h-.76v-2.07h.83c.85,0,1.36-.37,1.36-1.53v-1.05c0-1.03-.48-1.45-1.14-1.45s-1.1,.39-1.1,1.34v.95h-2.15v-.76c0-2.32,1.16-3.6,3.33-3.6s3.33,1.26,3.33,3.58v.52c0,1.55-.5,2.5-1.61,2.92v.04c1.22,.46,1.67,1.51,1.67,2.98v1.28c0,2.32-1.16,3.58-3.39,3.58s-3.39-1.28-3.39-3.6Z"/>
        <path class="cls-3" d="M81.79,10.89h3.35c2.27,0,3.39,1.26,3.39,3.58v1.43c0,2.32-1.12,3.58-3.39,3.58h-1.08v5.89h-2.27V10.89Zm3.35,6.51c.72,0,1.12-.33,1.12-1.36v-1.72c0-1.03-.39-1.36-1.12-1.36h-1.08v4.45h1.08Z"/>
        <path class="cls-3" d="M90.6,10.89h6.2v2.07h-3.93v3.82h3.12v2.07h-3.12v4.45h3.93v2.07h-6.2V10.89Z"/>
        <path class="cls-3" d="M98.76,21.93v-7.61c0-2.32,1.22-3.64,3.45-3.64s3.45,1.32,3.45,3.64v7.61c0,2.32-1.22,3.64-3.45,3.64s-3.45-1.32-3.45-3.64Zm4.63,.14v-7.9c0-1.03-.45-1.43-1.18-1.43s-1.18,.39-1.18,1.43v7.9c0,1.03,.45,1.43,1.18,1.43s1.18-.39,1.18-1.43Z"/>
        <path class="cls-3" d="M108.02,10.89h3.35c2.27,0,3.39,1.26,3.39,3.58v1.43c0,2.32-1.12,3.58-3.39,3.58h-1.08v5.89h-2.27V10.89Zm3.35,6.51c.72,0,1.12-.33,1.12-1.36v-1.72c0-1.03-.39-1.36-1.12-1.36h-1.08v4.45h1.08Z"/>
        <path class="cls-3" d="M116.83,10.89h2.27v12.41h3.74v2.07h-6.02V10.89Z"/>
        <path class="cls-3" d="M124.77,10.89h6.2v2.07h-3.93v3.82h3.12v2.07h-3.12v4.45h3.93v2.07h-6.2V10.89Z"/>
      </g>
      <line class="cls-8" x1="64.01" y1="11.27" x2="56.32" y2="11.27"/>
      <line class="cls-8" x1="64.01" y1="24.81" x2="56.32" y2="24.81"/>
    </g>
  </g>
</svg>