<?xml version="1.0" encoding="UTF-8"?><svg id="Layer_2" xmlns="http://www.w3.org/2000/svg" xmlns:xlink="http://www.w3.org/1999/xlink" viewBox="0 0 296.61 182.59"><defs><style>.cls-1{stroke:#ad8e48;stroke-width:2.5px;}.cls-1,.cls-2{fill:#ad8e48;}.cls-1,.cls-3{stroke-miterlimit:10;}.cls-4{fill:url(#linear-gradient);}.cls-5{fill:#fff;}.cls-6{fill:#939598;}.cls-7,.cls-8{fill:#d19f2a;}.cls-3{stroke:#bdbcbb;}.cls-3,.cls-9{fill:none;}.cls-9{stroke:#d19f2a;stroke-width:3px;}.cls-8{opacity:.25;}</style><linearGradient id="linear-gradient" x1="148.26" y1="77.41" x2="148.26" y2="169.3" gradientUnits="userSpaceOnUse"><stop offset="0" stop-color="#fff"/><stop offset=".35" stop-color="#fefcfa"/><stop offset=".7" stop-color="#fbf6ee"/><stop offset="1" stop-color="#f7eede"/></linearGradient></defs><g id="Layer_2-2"><rect class="cls-5" y="17.32" width="296.61" height="36.3"/><rect class="cls-4" x="4.94" y="77.41" width="286.63" height="91.89"/><path class="cls-6" d="m60.98,70.49c-.3-.33-.45-.81-.45-1.44v-.44h1.14v.53c0,.5.21.75.63.75.21,0,.36-.06.47-.18.11-.12.16-.32.16-.59,0-.32-.07-.61-.22-.85s-.42-.54-.81-.89c-.5-.44-.85-.84-1.04-1.19s-.3-.76-.3-1.2c0-.61.15-1.08.46-1.41.31-.33.76-.5,1.34-.5s1.02.17,1.31.5c.3.33.45.81.45,1.44v.32h-1.14v-.4c0-.26-.05-.46-.15-.58-.1-.12-.25-.18-.45-.18-.4,0-.6.25-.6.74,0,.28.07.54.23.78.15.24.42.54.82.88.51.44.85.84,1.04,1.2s.29.78.29,1.26c0,.63-.16,1.11-.47,1.45-.31.34-.76.51-1.36.51s-1.03-.17-1.33-.5Z"/><path class="cls-6" d="m65.16,63.18h1.21v3.14h1.3v-3.14h1.21v7.7h-1.21v-3.46h-1.3v3.46h-1.21v-7.7Z"/><path class="cls-6" d="m71.04,63.18h1.64l1.25,7.7h-1.21l-.22-1.53v.02h-1.38l-.22,1.51h-1.12l1.25-7.7Zm1.32,5.15l-.54-3.81h-.02l-.53,3.81h1.09Z"/><path class="cls-6" d="m74.85,63.18h1.79c.62,0,1.08.15,1.36.43.29.29.43.74.43,1.34v.47c0,.8-.26,1.31-.79,1.52v.02c.29.09.5.27.62.54.12.27.18.63.18,1.09v1.35c0,.22,0,.4.02.53.01.14.05.27.11.4h-1.23c-.04-.12-.07-.24-.09-.35-.01-.11-.02-.31-.02-.59v-1.41c0-.35-.06-.6-.17-.74-.11-.14-.31-.21-.59-.21h-.42v3.3h-1.21v-7.7Zm1.65,3.3c.24,0,.42-.06.54-.19s.18-.33.18-.63v-.59c0-.28-.05-.48-.15-.6-.1-.12-.25-.19-.47-.19h-.55v2.2h.44Z"/><path class="cls-6" d="m79.61,63.18h3.3v1.1h-2.09v2.04h1.66v1.1h-1.66v2.36h2.09v1.1h-3.3v-7.7Z"/><path class="cls-6" d="m86.41,70.49c-.32-.34-.47-.81-.47-1.43v-4.05c0-.62.16-1.09.47-1.43.32-.34.77-.51,1.36-.51s1.05.17,1.36.51c.32.34.47.81.47,1.43v4.05c0,.62-.16,1.09-.47,1.43-.32.34-.77.51-1.36.51s-1.05-.17-1.36-.51Zm1.99-1.35v-4.2c0-.51-.21-.76-.63-.76s-.63.25-.63.76v4.2c0,.51.21.76.63.76s.63-.25.63-.76Z"/><path class="cls-6" d="m90.75,63.18h3.2v1.1h-1.99v2.15h1.56v1.1h-1.56v3.35h-1.21v-7.7Z"/><path class="cls-6" d="m97.34,70.5c-.3-.33-.46-.8-.46-1.4v-4.14c0-.6.15-1.07.46-1.4.3-.33.75-.5,1.33-.5s1.02.17,1.33.5c.3.33.46.8.46,1.4v.81h-1.14v-.89c0-.48-.2-.71-.6-.71s-.6.24-.6.71v4.3c0,.47.2.7.6.7s.6-.23.6-.7v-1.18h1.14v1.09c0,.6-.15,1.07-.46,1.4-.3.33-.75.49-1.33.49s-1.02-.17-1.33-.49Z"/><path class="cls-6" d="m101.91,70.49c-.32-.34-.47-.81-.47-1.43v-4.05c0-.62.16-1.09.47-1.43.32-.34.77-.51,1.36-.51s1.05.17,1.36.51c.32.34.47.81.47,1.43v4.05c0,.62-.16,1.09-.47,1.43-.32.34-.77.51-1.36.51s-1.05-.17-1.36-.51Zm1.99-1.35v-4.2c0-.51-.21-.76-.63-.76s-.63.25-.63.76v4.2c0,.51.21.76.63.76s.63-.25.63-.76Z"/><path class="cls-6" d="m106.67,70.49c-.31-.33-.46-.81-.46-1.44v-5.87h1.21v5.96c0,.26.05.45.16.57.11.12.26.18.46.18s.35-.06.46-.18c.11-.12.16-.31.16-.57v-5.96h1.17v5.87c0,.62-.15,1.1-.46,1.44-.31.33-.76.5-1.34.5s-1.03-.17-1.34-.5Z"/><path class="cls-6" d="m111.01,63.18h1.52l1.18,4.61h.02v-4.61h1.08v7.7h-1.24l-1.45-5.62h-.02v5.62h-1.08v-7.7Z"/><path class="cls-6" d="m116.98,64.28h-1.26v-1.1h3.74v1.1h-1.27v6.6h-1.21v-6.6Z"/><path class="cls-6" d="m120.37,63.18h1.79c.62,0,1.08.15,1.36.43.29.29.43.74.43,1.34v.47c0,.8-.26,1.31-.79,1.52v.02c.29.09.5.27.62.54.12.27.18.63.18,1.09v1.35c0,.22,0,.4.02.53.01.14.05.27.11.4h-1.23c-.04-.12-.07-.24-.09-.35-.01-.11-.02-.31-.02-.59v-1.41c0-.35-.06-.6-.17-.74-.11-.14-.31-.21-.59-.21h-.42v3.3h-1.21v-7.7Zm1.65,3.3c.24,0,.42-.06.54-.19s.18-.33.18-.63v-.59c0-.28-.05-.48-.15-.6-.1-.12-.25-.19-.47-.19h-.55v2.2h.44Z"/><path class="cls-6" d="m125.13,63.18h1.21v7.7h-1.21v-7.7Z"/><path class="cls-6" d="m127.57,63.18h3.3v1.1h-2.09v2.04h1.66v1.1h-1.66v2.36h2.09v1.1h-3.3v-7.7Z"/><path class="cls-6" d="m132.16,70.49c-.3-.33-.45-.81-.45-1.44v-.44h1.14v.53c0,.5.21.75.63.75.21,0,.36-.06.47-.18.11-.12.16-.32.16-.59,0-.32-.07-.61-.22-.85s-.42-.54-.81-.89c-.5-.44-.85-.84-1.04-1.19s-.3-.76-.3-1.2c0-.61.15-1.08.46-1.41.31-.33.76-.5,1.34-.5s1.02.17,1.31.5c.3.33.45.81.45,1.44v.32h-1.14v-.4c0-.26-.05-.46-.15-.58-.1-.12-.25-.18-.45-.18-.4,0-.6.25-.6.74,0,.28.07.54.23.78.15.24.42.54.82.88.51.44.85.84,1.04,1.2s.29.78.29,1.26c0,.63-.16,1.11-.47,1.45-.31.34-.76.51-1.36.51s-1.03-.17-1.33-.5Z"/><path class="cls-6" d="m138.43,63.18h3.3v1.1h-2.09v2.04h1.66v1.1h-1.66v2.36h2.09v1.1h-3.3v-7.7Z"/><path class="cls-6" d="m143.84,66.95l-1.33-3.76h1.28l.81,2.49h.02l.84-2.49h1.14l-1.33,3.76,1.4,3.94h-1.28l-.88-2.68h-.02l-.9,2.68h-1.14l1.4-3.94Z"/><path class="cls-6" d="m147.57,63.18h1.78c.6,0,1.05.16,1.35.48s.45.8.45,1.42v.76c0,.62-.15,1.1-.45,1.42-.3.32-.75.48-1.35.48h-.57v3.13h-1.21v-7.7Zm1.78,3.47c.2,0,.35-.06.45-.17.1-.11.15-.3.15-.56v-.91c0-.26-.05-.45-.15-.56-.1-.11-.25-.17-.45-.17h-.57v2.37h.57Z"/><path class="cls-6" d="m152.14,63.18h3.3v1.1h-2.09v2.04h1.66v1.1h-1.66v2.36h2.09v1.1h-3.3v-7.7Z"/><path class="cls-6" d="m156.47,63.18h1.79c.62,0,1.08.15,1.36.43.29.29.43.74.43,1.34v.47c0,.8-.26,1.31-.79,1.52v.02c.29.09.5.27.62.54.12.27.18.63.18,1.09v1.35c0,.22,0,.4.02.53.01.14.05.27.11.4h-1.23c-.04-.12-.07-.24-.09-.35-.01-.11-.02-.31-.02-.59v-1.41c0-.35-.06-.6-.17-.74-.11-.14-.31-.21-.59-.21h-.42v3.3h-1.21v-7.7Zm1.65,3.3c.24,0,.42-.06.54-.19s.18-.33.18-.63v-.59c0-.28-.05-.48-.15-.6-.1-.12-.25-.19-.47-.19h-.55v2.2h.44Z"/><path class="cls-6" d="m161.23,63.18h1.21v7.7h-1.21v-7.7Z"/><path class="cls-6" d="m163.67,63.18h3.3v1.1h-2.09v2.04h1.66v1.1h-1.66v2.36h2.09v1.1h-3.3v-7.7Z"/><path class="cls-6" d="m167.99,63.18h1.52l1.18,4.61h.02v-4.61h1.08v7.7h-1.24l-1.45-5.62h-.02v5.62h-1.08v-7.7Z"/><path class="cls-6" d="m173.4,70.5c-.3-.33-.46-.8-.46-1.4v-4.14c0-.6.15-1.07.46-1.4.3-.33.75-.5,1.33-.5s1.02.17,1.33.5c.3.33.46.8.46,1.4v.81h-1.14v-.89c0-.48-.2-.71-.6-.71s-.6.24-.6.71v4.3c0,.47.2.7.6.7s.6-.23.6-.7v-1.18h1.14v1.09c0,.6-.15,1.07-.46,1.4-.3.33-.75.49-1.33.49s-1.02-.17-1.33-.49Z"/><path class="cls-6" d="m177.56,63.18h1.21v7.7h-1.21v-7.7Z"/><path class="cls-6" d="m180.01,63.18h1.52l1.18,4.61h.02v-4.61h1.08v7.7h-1.24l-1.45-5.62h-.02v5.62h-1.08v-7.7Z"/><path class="cls-6" d="m185.41,70.49c-.31-.33-.46-.81-.46-1.44v-4.05c0-.62.15-1.1.46-1.44.31-.33.76-.5,1.34-.5s1.03.17,1.34.5c.31.33.46.81.46,1.44v.66h-1.14v-.74c0-.51-.21-.76-.63-.76s-.63.25-.63.76v4.21c0,.5.21.75.63.75s.63-.25.63-.75v-1.51h-.6v-1.1h1.75v2.52c0,.62-.15,1.1-.46,1.44-.31.33-.76.5-1.34.5s-1.03-.17-1.34-.5Z"/><path class="cls-6" d="m191.75,63.18h1.73l.77,5.51h.02l.77-5.51h1.73v7.7h-1.14v-5.83h-.02l-.88,5.83h-1.01l-.88-5.83h-.02v5.83h-1.06v-7.7Z"/><path class="cls-6" d="m198.39,70.49c-.32-.34-.47-.81-.47-1.43v-4.05c0-.62.16-1.09.47-1.43.32-.34.77-.51,1.36-.51s1.05.17,1.36.51c.32.34.47.81.47,1.43v4.05c0,.62-.16,1.09-.47,1.43-.32.34-.77.51-1.36.51s-1.05-.17-1.36-.51Zm1.99-1.35v-4.2c0-.51-.21-.76-.63-.76s-.63.25-.63.76v4.2c0,.51.21.76.63.76s.63-.25.63-.76Z"/><path class="cls-6" d="m202.73,63.18h1.85c.6,0,1.05.16,1.35.48.3.32.45.8.45,1.42v3.89c0,.62-.15,1.1-.45,1.42-.3.32-.75.48-1.35.48h-1.85v-7.7Zm1.83,6.6c.2,0,.35-.06.46-.18s.16-.31.16-.57v-4c0-.26-.05-.45-.16-.57s-.26-.18-.46-.18h-.62v5.5h.62Z"/><path class="cls-6" d="m207.53,63.18h3.3v1.1h-2.09v2.04h1.66v1.1h-1.66v2.36h2.09v1.1h-3.3v-7.7Z"/><path class="cls-6" d="m211.85,63.18h1.79c.62,0,1.08.15,1.36.43.29.29.43.74.43,1.34v.47c0,.8-.26,1.31-.79,1.52v.02c.29.09.5.27.62.54.12.27.18.63.18,1.09v1.35c0,.22,0,.4.02.53.01.14.05.27.11.4h-1.23c-.04-.12-.07-.24-.09-.35-.01-.11-.02-.31-.02-.59v-1.41c0-.35-.06-.6-.17-.74-.11-.14-.31-.21-.59-.21h-.42v3.3h-1.21v-7.7Zm1.65,3.3c.24,0,.42-.06.54-.19s.18-.33.18-.63v-.59c0-.28-.05-.48-.15-.6-.1-.12-.25-.19-.47-.19h-.55v2.2h.44Z"/><path class="cls-6" d="m217.55,63.18h1.64l1.25,7.7h-1.21l-.22-1.53v.02h-1.38l-.22,1.51h-1.12l1.25-7.7Zm1.32,5.15l-.54-3.81h-.02l-.53,3.81h1.09Z"/><path class="cls-6" d="m221.79,64.28h-1.26v-1.1h3.74v1.1h-1.27v6.6h-1.21v-6.6Z"/><path class="cls-6" d="m225.18,63.18h3.3v1.1h-2.09v2.04h1.66v1.1h-1.66v2.36h2.09v1.1h-3.3v-7.7Z"/><path class="cls-6" d="m229.51,63.18h1.21v6.6h1.99v1.1h-3.2v-7.7Z"/><path class="cls-6" d="m233.76,67.61l-1.46-4.42h1.29l.82,2.83h.02l.83-2.83h1.18l-1.46,4.42v3.28h-1.21v-3.28Z"/><path class="cls-6" d="m86.39,77.28h-1.26v-1.1h3.74v1.1h-1.27v6.6h-1.21v-6.6Z"/><path class="cls-6" d="m90.12,83.49c-.32-.34-.47-.81-.47-1.43v-4.05c0-.62.16-1.09.47-1.43.32-.34.77-.51,1.36-.51s1.05.17,1.36.51c.32.34.47.81.47,1.43v4.05c0,.62-.16,1.09-.47,1.43-.32.34-.77.51-1.36.51s-1.05-.17-1.36-.51Zm1.99-1.35v-4.2c0-.51-.21-.76-.63-.76s-.63.25-.63.76v4.2c0,.51.21.76.63.76s.63-.25.63-.76Z"/><path class="cls-6" d="m97.49,76.18h1.64l1.25,7.7h-1.21l-.22-1.53v.02h-1.38l-.22,1.51h-1.12l1.25-7.7Zm1.32,5.15l-.54-3.81h-.02l-.53,3.81h1.09Z"/><path class="cls-6" d="m101.3,76.18h1.83c.62,0,1.08.15,1.36.43.29.29.43.74.43,1.34v.31c0,.4-.06.72-.19.97-.13.25-.32.43-.59.54v.02c.6.21.9.74.9,1.61v.66c0,.59-.16,1.05-.47,1.36-.31.31-.77.47-1.37.47h-1.9v-7.7Zm1.68,3.14c.24,0,.42-.06.54-.19.12-.12.18-.33.18-.63v-.43c0-.28-.05-.48-.15-.6-.1-.12-.25-.19-.47-.19h-.58v2.04h.47Zm.22,3.46c.21,0,.37-.06.47-.17s.15-.31.15-.59v-.67c0-.35-.06-.6-.18-.73-.12-.14-.32-.2-.6-.2h-.54v2.36h.69Z"/><path class="cls-6" d="m106.07,76.18h1.52l1.18,4.61h.02v-4.61h1.08v7.7h-1.24l-1.45-5.62h-.02v5.62h-1.08v-7.7Z"/><path class="cls-6" d="m111.48,83.49c-.32-.34-.47-.81-.47-1.43v-4.05c0-.62.16-1.09.47-1.43.32-.34.77-.51,1.36-.51s1.05.17,1.36.51c.32.34.47.81.47,1.43v4.05c0,.62-.16,1.09-.47,1.43-.32.34-.77.51-1.36.51s-1.05-.17-1.36-.51Zm1.99-1.35v-4.2c0-.51-.21-.76-.63-.76s-.63.25-.63.76v4.2c0,.51.21.76.63.76s.63-.25.63-.76Z"/><path class="cls-6" d="m115.83,76.18h1.79c.62,0,1.08.15,1.36.43.29.29.43.74.43,1.34v.47c0,.8-.26,1.31-.79,1.52v.02c.29.09.5.27.62.54.12.27.18.63.18,1.09v1.35c0,.22,0,.4.02.53.01.14.05.27.11.4h-1.23c-.04-.12-.07-.24-.09-.35-.01-.11-.02-.31-.02-.59v-1.41c0-.35-.06-.6-.17-.74-.11-.14-.31-.21-.59-.21h-.42v3.3h-1.21v-7.7Zm1.65,3.3c.24,0,.42-.06.54-.19s.18-.33.18-.63v-.59c0-.28-.05-.48-.15-.6-.1-.12-.25-.19-.47-.19h-.55v2.2h.44Z"/><path class="cls-6" d="m120.59,76.18h1.73l.77,5.51h.02l.77-5.51h1.73v7.7h-1.14v-5.83h-.02l-.88,5.83h-1.01l-.88-5.83h-.02v5.83h-1.06v-7.7Z"/><path class="cls-6" d="m127.77,76.18h1.64l1.25,7.7h-1.21l-.22-1.53v.02h-1.38l-.22,1.51h-1.12l1.25-7.7Zm1.32,5.15l-.54-3.81h-.02l-.53,3.81h1.09Z"/><path class="cls-6" d="m131.58,76.18h1.21v6.6h1.99v1.1h-3.2v-7.7Z"/><path class="cls-6" d="m135.69,76.18h1.21v6.6h1.99v1.1h-3.2v-7.7Z"/><path class="cls-6" d="m139.95,80.61l-1.46-4.42h1.29l.82,2.83h.02l.83-2.83h1.18l-1.46,4.42v3.28h-1.21v-3.28Z"/><path class="cls-6" d="m145.59,76.18h1.21v3.14h1.3v-3.14h1.21v7.7h-1.21v-3.46h-1.3v3.46h-1.21v-7.7Z"/><path class="cls-6" d="m150.54,76.18h1.21v7.7h-1.21v-7.7Z"/><path class="cls-6" d="m153.36,83.49c-.31-.33-.46-.81-.46-1.44v-4.05c0-.62.15-1.1.46-1.44.31-.33.76-.5,1.34-.5s1.03.17,1.34.5c.31.33.46.81.46,1.44v.66h-1.14v-.74c0-.51-.21-.76-.63-.76s-.63.25-.63.76v4.21c0,.5.21.75.63.75s.63-.25.63-.75v-1.51h-.6v-1.1h1.75v2.52c0,.62-.15,1.1-.46,1.44-.31.33-.76.5-1.34.5s-1.03-.17-1.34-.5Z"/><path class="cls-6" d="m157.62,76.18h1.21v3.14h1.3v-3.14h1.21v7.7h-1.21v-3.46h-1.3v3.46h-1.21v-7.7Z"/><path class="cls-6" d="m164.66,76.18h3.2v1.1h-1.99v2.15h1.56v1.1h-1.56v3.35h-1.21v-7.7Z"/><path class="cls-6" d="m169.16,83.49c-.32-.34-.47-.81-.47-1.43v-4.05c0-.62.16-1.09.47-1.43.32-.34.77-.51,1.36-.51s1.05.17,1.36.51c.32.34.47.81.47,1.43v4.05c0,.62-.16,1.09-.47,1.43-.32.34-.77.51-1.36.51s-1.05-.17-1.36-.51Zm1.99-1.35v-4.2c0-.51-.21-.76-.63-.76s-.63.25-.63.76v4.2c0,.51.21.76.63.76s.63-.25.63-.76Z"/><path class="cls-6" d="m173.89,83.49c-.32-.34-.47-.81-.47-1.43v-4.05c0-.62.16-1.09.47-1.43.32-.34.77-.51,1.36-.51s1.05.17,1.36.51c.32.34.47.81.47,1.43v4.05c0,.62-.16,1.09-.47,1.43-.32.34-.77.51-1.36.51s-1.05-.17-1.36-.51Zm1.99-1.35v-4.2c0-.51-.21-.76-.63-.76s-.63.25-.63.76v4.2c0,.51.21.76.63.76s.63-.25.63-.76Z"/><path class="cls-6" d="m178.23,76.18h1.85c.6,0,1.05.16,1.35.48.3.32.45.8.45,1.42v3.89c0,.62-.15,1.1-.45,1.42-.3.32-.75.48-1.35.48h-1.85v-7.7Zm1.83,6.6c.2,0,.35-.06.46-.18s.16-.31.16-.57v-4c0-.26-.05-.45-.16-.57s-.26-.18-.46-.18h-.62v5.5h.62Z"/><path class="cls-6" d="m185.12,76.18h1.78c.6,0,1.05.16,1.35.48s.45.8.45,1.42v.76c0,.62-.15,1.1-.45,1.42-.3.32-.75.48-1.35.48h-.57v3.13h-1.21v-7.7Zm1.78,3.47c.2,0,.35-.06.45-.17.1-.11.15-.3.15-.56v-.91c0-.26-.05-.45-.15-.56-.1-.11-.25-.17-.45-.17h-.57v2.37h.57Z"/><path class="cls-6" d="m189.69,76.18h1.79c.62,0,1.08.15,1.36.43.29.29.43.74.43,1.34v.47c0,.8-.26,1.31-.79,1.52v.02c.29.09.5.27.62.54.12.27.18.63.18,1.09v1.35c0,.22,0,.4.02.53.01.14.05.27.11.4h-1.23c-.04-.12-.07-.24-.09-.35-.01-.11-.02-.31-.02-.59v-1.41c0-.35-.06-.6-.17-.74-.11-.14-.31-.21-.59-.21h-.42v3.3h-1.21v-7.7Zm1.65,3.3c.24,0,.42-.06.54-.19s.18-.33.18-.63v-.59c0-.28-.05-.48-.15-.6-.1-.12-.25-.19-.47-.19h-.55v2.2h.44Z"/><path class="cls-6" d="m194.45,76.18h1.21v7.7h-1.21v-7.7Z"/><path class="cls-6" d="m197.28,83.5c-.3-.33-.46-.8-.46-1.4v-4.14c0-.6.15-1.07.46-1.4.3-.33.75-.5,1.33-.5s1.02.17,1.33.5c.3.33.46.8.46,1.4v.81h-1.14v-.89c0-.48-.2-.71-.6-.71s-.6.24-.6.71v4.3c0,.47.2.7.6.7s.6-.23.6-.7v-1.18h1.14v1.09c0,.6-.15,1.07-.46,1.4-.3.33-.75.49-1.33.49s-1.02-.17-1.33-.49Z"/><path class="cls-6" d="m201.44,76.18h3.3v1.1h-2.09v2.04h1.66v1.1h-1.66v2.36h2.09v1.1h-3.3v-7.7Z"/><path class="cls-6" d="m206.03,83.49c-.3-.33-.45-.81-.45-1.44v-.44h1.14v.53c0,.5.21.75.63.75.21,0,.36-.06.47-.18.11-.12.16-.32.16-.59,0-.32-.07-.61-.22-.85s-.42-.54-.81-.89c-.5-.44-.85-.84-1.04-1.19s-.3-.76-.3-1.2c0-.61.15-1.08.46-1.41.31-.33.76-.5,1.34-.5s1.02.17,1.31.5c.3.33.45.81.45,1.44v.32h-1.14v-.4c0-.26-.05-.46-.15-.58-.1-.12-.25-.18-.45-.18-.4,0-.6.25-.6.74,0,.28.07.54.23.78.15.24.42.54.82.88.51.44.85.84,1.04,1.2s.29.78.29,1.26c0,.63-.16,1.11-.47,1.45-.31.34-.76.51-1.36.51s-1.03-.17-1.33-.5Z"/><path class="cls-6" d="m210.21,78.53h1.17v1.17h-1.17v-1.17Zm0,4.19h1.17v1.17h-1.17v-1.17Z"/><rect class="cls-6" x="77.73" width="136.09" height="17.31"/><path class="cls-5" d="m96.29,5.11h1.85c.6,0,1.05.16,1.35.48.3.32.45.8.45,1.42v3.89c0,.62-.15,1.1-.45,1.42-.3.32-.75.48-1.35.48h-1.85v-7.7Zm1.83,6.6c.2,0,.35-.06.46-.18s.16-.31.16-.57v-4c0-.26-.05-.45-.16-.57s-.26-.18-.46-.18h-.62v5.5h.62Z"/><path class="cls-5" d="m101.08,5.11h3.3v1.1h-2.09v2.04h1.66v1.1h-1.66v2.36h2.09v1.1h-3.3v-7.7Z"/><path class="cls-5" d="m105.67,12.42c-.3-.33-.45-.81-.45-1.44v-.44h1.14v.53c0,.5.21.75.63.75.21,0,.36-.06.47-.18.11-.12.16-.32.16-.59,0-.32-.07-.61-.22-.85s-.42-.54-.81-.89c-.5-.44-.85-.84-1.04-1.19s-.3-.76-.3-1.2c0-.61.15-1.08.46-1.41.31-.33.76-.5,1.34-.5s1.02.17,1.31.5c.3.33.45.81.45,1.44v.32h-1.14v-.4c0-.26-.05-.46-.15-.58-.1-.12-.25-.18-.45-.18-.4,0-.6.25-.6.74,0,.28.07.54.23.78.15.24.42.54.82.88.51.44.85.84,1.04,1.2s.29.78.29,1.26c0,.63-.16,1.11-.47,1.45-.31.34-.76.51-1.36.51s-1.03-.17-1.33-.5Z"/><path class="cls-5" d="m109.85,5.11h1.78c.6,0,1.05.16,1.35.48s.45.8.45,1.42v.76c0,.62-.15,1.1-.45,1.42-.3.32-.75.48-1.35.48h-.57v3.13h-1.21v-7.7Zm1.78,3.47c.2,0,.35-.06.45-.17.1-.11.15-.3.15-.56v-.91c0-.26-.05-.45-.15-.56-.1-.11-.25-.17-.45-.17h-.57v2.37h.57Z"/><path class="cls-5" d="m114.43,5.11h1.21v7.7h-1.21v-7.7Z"/><path class="cls-5" d="m117.82,6.21h-1.26v-1.1h3.74v1.1h-1.27v6.6h-1.21v-6.6Z"/><path class="cls-5" d="m121.2,5.11h3.3v1.1h-2.09v2.04h1.66v1.1h-1.66v2.36h2.09v1.1h-3.3v-7.7Z"/><path class="cls-5" d="m127.62,5.11h1.85c.6,0,1.05.16,1.35.48.3.32.45.8.45,1.42v3.89c0,.62-.15,1.1-.45,1.42-.3.32-.75.48-1.35.48h-1.85v-7.7Zm1.83,6.6c.2,0,.35-.06.46-.18s.16-.31.16-.57v-4c0-.26-.05-.45-.16-.57s-.26-.18-.46-.18h-.62v5.5h.62Z"/><path class="cls-5" d="m132.41,5.11h1.79c.62,0,1.08.15,1.36.43.29.29.43.74.43,1.34v.47c0,.8-.26,1.31-.79,1.52v.02c.29.09.5.27.62.54.12.27.18.63.18,1.09v1.35c0,.22,0,.4.02.53.01.14.05.27.11.4h-1.23c-.04-.12-.07-.24-.09-.35-.01-.11-.02-.31-.02-.59v-1.41c0-.35-.06-.6-.17-.74-.11-.14-.31-.21-.59-.21h-.42v3.3h-1.21v-7.7Zm1.65,3.3c.24,0,.42-.06.54-.19s.18-.33.18-.63v-.59c0-.28-.05-.48-.15-.6-.1-.12-.25-.19-.47-.19h-.55v2.2h.44Z"/><path class="cls-5" d="m137.56,12.41c-.32-.34-.47-.81-.47-1.43v-4.05c0-.62.16-1.09.47-1.43.32-.34.77-.51,1.36-.51s1.05.17,1.36.51c.32.34.47.81.47,1.43v4.05c0,.62-.16,1.09-.47,1.43-.32.34-.77.51-1.36.51s-1.05-.17-1.36-.51Zm1.99-1.35v-4.2c0-.51-.21-.76-.63-.76s-.63.25-.63.76v4.2c0,.51.21.76.63.76s.63-.25.63-.76Z"/><path class="cls-5" d="m141.91,5.11h1.78c.6,0,1.05.16,1.35.48s.45.8.45,1.42v.76c0,.62-.15,1.1-.45,1.42-.3.32-.75.48-1.35.48h-.57v3.13h-1.21v-7.7Zm1.78,3.47c.2,0,.35-.06.45-.17.1-.11.15-.3.15-.56v-.91c0-.26-.05-.45-.15-.56-.1-.11-.25-.17-.45-.17h-.57v2.37h.57Z"/><path class="cls-5" d="m146.48,5.11h1.78c.6,0,1.05.16,1.35.48s.45.8.45,1.42v.76c0,.62-.15,1.1-.45,1.42-.3.32-.75.48-1.35.48h-.57v3.13h-1.21v-7.7Zm1.78,3.47c.2,0,.35-.06.45-.17.1-.11.15-.3.15-.56v-.91c0-.26-.05-.45-.15-.56-.1-.11-.25-.17-.45-.17h-.57v2.37h.57Z"/><path class="cls-5" d="m151.06,5.11h1.21v7.7h-1.21v-7.7Z"/><path class="cls-5" d="m153.5,5.11h1.52l1.18,4.61h.02v-4.61h1.08v7.7h-1.24l-1.45-5.62h-.02v5.62h-1.08v-7.7Z"/><path class="cls-5" d="m158.9,12.42c-.31-.33-.46-.81-.46-1.44v-4.05c0-.62.15-1.1.46-1.44.31-.33.76-.5,1.34-.5s1.03.17,1.34.5c.31.33.46.81.46,1.44v.66h-1.14v-.74c0-.51-.21-.76-.63-.76s-.63.25-.63.76v4.21c0,.5.21.75.63.75s.63-.25.63-.75v-1.51h-.6v-1.1h1.75v2.52c0,.62-.15,1.1-.46,1.44-.31.33-.76.5-1.34.5s-1.03-.17-1.34-.5Z"/><path class="cls-5" d="m165.25,5.11h1.21v7.7h-1.21v-7.7Z"/><path class="cls-5" d="m167.69,5.11h1.52l1.18,4.61h.02v-4.61h1.08v7.7h-1.24l-1.45-5.62h-.02v5.62h-1.08v-7.7Z"/><path class="cls-5" d="m174.78,11.97c0-.55.09-1.02.26-1.41.18-.39.49-.83.95-1.3.45-.48.76-.88.93-1.22.17-.34.26-.69.26-1.06,0-.33-.05-.56-.16-.69-.11-.13-.26-.19-.47-.19-.42,0-.63.25-.63.76v.83h-1.14v-.75c0-.62.15-1.1.46-1.44.31-.33.76-.5,1.34-.5s1.03.17,1.34.5c.31.33.46.81.46,1.44,0,.47-.11.93-.34,1.38s-.61.96-1.16,1.54c-.36.38-.6.69-.73.93s-.19.49-.19.76v.17h2.3v1.1h-3.5v-.84Z"/><path class="cls-5" d="m179.92,12.41c-.32-.34-.47-.81-.47-1.43v-4.05c0-.62.16-1.09.47-1.43.32-.34.77-.51,1.36-.51s1.05.17,1.36.51c.32.34.47.81.47,1.43v4.05c0,.62-.16,1.09-.47,1.43-.32.34-.77.51-1.36.51s-1.05-.17-1.36-.51Zm1.99-1.35v-4.2c0-.51-.21-.76-.63-.76s-.63.25-.63.76v4.2c0,.51.21.76.63.76s.63-.25.63-.76Z"/><path class="cls-5" d="m184.24,11.97c0-.55.09-1.02.26-1.41.18-.39.49-.83.95-1.3.45-.48.76-.88.93-1.22.17-.34.26-.69.26-1.06,0-.33-.05-.56-.16-.69-.11-.13-.26-.19-.47-.19-.42,0-.63.25-.63.76v.83h-1.14v-.75c0-.62.15-1.1.46-1.44.31-.33.76-.5,1.34-.5s1.03.17,1.34.5c.31.33.46.81.46,1.44,0,.47-.11.93-.34,1.38s-.61.96-1.16,1.54c-.36.38-.6.69-.73.93s-.19.49-.19.76v.17h2.3v1.1h-3.5v-.84Z"/><path class="cls-5" d="m190.69,6.93h-1.27v-.86c.34,0,.62-.03.83-.09s.38-.16.5-.29.23-.33.33-.59h.81v7.7h-1.21v-5.87Z"/><path class="cls-5" d="m194.12,12.81h-.4v-1.17h1.17v1.04l-.6,1.44h-.56l.4-1.32Z"/><path class="cls-7" d="m7.41,39.54h-1.78v-11.34h1.78v4.86h2.03v-4.86h1.81v11.34h-1.81v-4.86h-2.03v4.86Z"/><path class="cls-7" d="m12.83,28.2h1.78v11.34h-1.78v-11.34Z"/><path class="cls-7" d="m18.92,33.22h2.5v3.6c0,1.82-.91,2.85-2.66,2.85s-2.66-1.04-2.66-2.85v-5.9c0-1.81.91-2.85,2.66-2.85s2.66,1.04,2.66,2.85v1.1h-1.69v-1.22c0-.81-.36-1.12-.92-1.12s-.92.31-.92,1.12v6.13c0,.81.36,1.1.92,1.1s.92-.29.92-1.1v-2.09h-.81v-1.62Z"/><path class="cls-7" d="m24.69,39.54h-1.78v-11.34h1.78v4.86h2.03v-4.86h1.81v11.34h-1.81v-4.86h-2.03v4.86Z"/><path class="cls-7" d="m34.93,33.24h2.3v1.62h-2.3v4.68h-1.78v-11.34h4.72v1.62h-2.93v3.42Z"/><path class="cls-7" d="m39.07,30.92c0-1.81.96-2.85,2.71-2.85s2.71,1.04,2.71,2.85v5.9c0,1.82-.96,2.85-2.71,2.85s-2.71-1.04-2.71-2.85v-5.9Zm1.78,6.01c0,.81.36,1.12.92,1.12s.92-.31.92-1.12v-6.13c0-.81-.36-1.12-.92-1.12s-.92.31-.92,1.12v6.13Z"/><path class="cls-7" d="m45.87,30.92c0-1.81.96-2.85,2.71-2.85s2.71,1.04,2.71,2.85v5.9c0,1.82-.96,2.85-2.71,2.85s-2.71-1.04-2.71-2.85v-5.9Zm1.78,6.01c0,.81.36,1.12.92,1.12s.92-.31.92-1.12v-6.13c0-.81-.36-1.12-.92-1.12s-.92.31-.92,1.12v6.13Z"/><path class="cls-7" d="m52.78,28.2h2.82c1.78,0,2.66.99,2.66,2.8v5.74c0,1.81-.88,2.8-2.66,2.8h-2.82v-11.34Zm1.78,1.62v8.1h1c.57,0,.91-.29.91-1.1v-5.9c0-.81-.34-1.1-.91-1.1h-1Z"/><path class="cls-7" d="m67.99,31v1.47c0,1.81-.88,2.8-2.66,2.8h-.84v4.26h-1.78v-11.34h2.63c1.78,0,2.66.99,2.66,2.8Zm-3.5-1.18v3.84h.84c.57,0,.88-.26.88-1.07v-1.7c0-.81-.31-1.07-.88-1.07h-.84Z"/><path class="cls-7" d="m73.02,39.54c-.1-.29-.16-.47-.16-1.39v-1.78c0-1.05-.36-1.44-1.17-1.44h-.62v4.62h-1.78v-11.34h2.69c1.85,0,2.64.86,2.64,2.61v.89c0,1.17-.37,1.93-1.17,2.3.89.37,1.18,1.23,1.18,2.41v1.75c0,.55.02.96.19,1.38h-1.81Zm-1.94-9.72v3.48h.7c.66,0,1.07-.29,1.07-1.2v-1.12c0-.81-.28-1.17-.91-1.17h-.86Z"/><path class="cls-7" d="m76.21,28.2h1.78v11.34h-1.78v-11.34Z"/><path class="cls-7" d="m84.8,35.31v1.51c0,1.82-.91,2.85-2.66,2.85s-2.66-1.04-2.66-2.85v-5.9c0-1.81.91-2.85,2.66-2.85s2.66,1.04,2.66,2.85v1.1h-1.69v-1.22c0-.81-.36-1.12-.92-1.12s-.92.31-.92,1.12v6.13c0,.81.36,1.1.92,1.1s.92-.29.92-1.1v-1.62h1.69Z"/><path class="cls-7" d="m88.01,32.98h2.45v1.62h-2.45v3.32h3.08v1.62h-4.86v-11.34h4.86v1.62h-3.08v3.16Z"/><path class="cls-7" d="m95.03,28.07c1.73,0,2.63,1.04,2.63,2.85v.36h-1.69v-.47c0-.81-.32-1.12-.89-1.12s-.89.31-.89,1.12c0,2.33,3.48,2.77,3.48,6.01,0,1.82-.91,2.85-2.66,2.85s-2.66-1.04-2.66-2.85v-.7h1.69v.81c0,.81.36,1.1.92,1.1s.92-.29.92-1.1c0-2.33-3.48-2.77-3.48-6.01,0-1.81.89-2.85,2.62-2.85Z"/><path class="cls-6" d="m107.19,35.31v1.51c0,1.82-.91,2.85-2.66,2.85s-2.66-1.04-2.66-2.85v-5.9c0-1.81.91-2.85,2.66-2.85s2.66,1.04,2.66,2.85v1.1h-1.69v-1.22c0-.81-.36-1.12-.92-1.12s-.92.31-.92,1.12v6.13c0,.81.36,1.1.92,1.1s.92-.29.92-1.1v-1.62h1.69Z"/><path class="cls-6" d="m108.54,30.92c0-1.81.96-2.85,2.71-2.85s2.71,1.04,2.71,2.85v5.9c0,1.82-.96,2.85-2.71,2.85s-2.71-1.04-2.71-2.85v-5.9Zm1.78,6.01c0,.81.36,1.12.92,1.12s.92-.31.92-1.12v-6.13c0-.81-.36-1.12-.92-1.12s-.92.31-.92,1.12v6.13Z"/><path class="cls-6" d="m117.05,31.33v8.22h-1.6v-11.34h2.24l1.83,6.79v-6.79h1.59v11.34h-1.83l-2.22-8.22Z"/><path class="cls-6" d="m122.37,28.2h5.51v1.62h-1.86v9.72h-1.78v-9.72h-1.86v-1.62Z"/><path class="cls-6" d="m129.16,28.2h1.78v11.34h-1.78v-11.34Z"/><path class="cls-6" d="m134.11,31.33v8.22h-1.6v-11.34h2.24l1.83,6.79v-6.79h1.59v11.34h-1.83l-2.22-8.22Z"/><path class="cls-6" d="m141.48,28.2v8.75c0,.81.36,1.1.92,1.1s.92-.29.92-1.1v-8.75h1.69v8.64c0,1.81-.91,2.85-2.66,2.85s-2.66-1.04-2.66-2.85v-8.64h1.78Z"/><path class="cls-6" d="m148.33,32.98h2.45v1.62h-2.45v3.32h3.08v1.62h-4.86v-11.34h4.86v1.62h-3.08v3.16Z"/><path class="cls-6" d="m155.32,28.2h5.51v1.62h-1.86v9.72h-1.78v-9.72h-1.86v-1.62Z"/><path class="cls-6" d="m161.99,30.92c0-1.81.96-2.85,2.71-2.85s2.71,1.04,2.71,2.85v5.9c0,1.82-.96,2.85-2.71,2.85s-2.71-1.04-2.71-2.85v-5.9Zm1.78,6.01c0,.81.36,1.12.92,1.12s.92-.31.92-1.12v-6.13c0-.81-.36-1.12-.92-1.12s-.92.31-.92,1.12v6.13Z"/><path class="cls-6" d="m177.16,31v1.47c0,1.81-.88,2.8-2.66,2.8h-.84v4.26h-1.78v-11.34h2.63c1.78,0,2.66.99,2.66,2.8Zm-3.5-1.18v3.84h.84c.57,0,.88-.26.88-1.07v-1.7c0-.81-.31-1.07-.88-1.07h-.84Z"/><path class="cls-6" d="m178.46,28.2h1.78v9.72h2.93v1.62h-4.72v-11.34Z"/><path class="cls-6" d="m190.46,39.54h-1.8l-.31-2.06h-2.19l-.31,2.06h-1.64l1.81-11.34h2.61l1.81,11.34Zm-4.07-3.6h1.72l-.86-5.74-.86,5.74Z"/><path class="cls-6" d="m194.35,33.22h2.5v3.6c0,1.82-.91,2.85-2.66,2.85s-2.66-1.04-2.66-2.85v-5.9c0-1.81.91-2.85,2.66-2.85s2.66,1.04,2.66,2.85v1.1h-1.69v-1.22c0-.81-.36-1.12-.92-1.12s-.92.31-.92,1.12v6.13c0,.81.36,1.1.92,1.1s.92-.29.92-1.1v-2.09h-.81v-1.62Z"/><path class="cls-6" d="m200.05,28.2v8.75c0,.81.36,1.1.92,1.1s.92-.29.92-1.1v-8.75h1.69v8.64c0,1.81-.91,2.85-2.66,2.85s-2.66-1.04-2.66-2.85v-8.64h1.78Z"/><path class="cls-6" d="m206.91,32.98h2.45v1.62h-2.45v3.32h3.08v1.62h-4.86v-11.34h4.86v1.62h-3.08v3.16Z"/><path class="cls-6" d="m218.18,36.25l1.22-8.05h2.48v11.34h-1.69v-8.13l-1.23,8.13h-1.69l-1.33-8.02v8.02h-1.56v-11.34h2.48l1.31,8.05Z"/><path class="cls-6" d="m229.43,39.54h-1.8l-.31-2.06h-2.19l-.31,2.06h-1.64l1.81-11.34h2.61l1.81,11.34Zm-4.07-3.6h1.72l-.86-5.74-.86,5.74Z"/><path class="cls-6" d="m232.33,31.33v8.22h-1.6v-11.34h2.24l1.83,6.79v-6.79h1.59v11.34h-1.83l-2.22-8.22Z"/><path class="cls-6" d="m239.87,35.78l-2.25-7.58h1.86l1.36,5.17,1.36-5.17h1.7l-2.25,7.58v3.76h-1.78v-3.76Z"/><path class="cls-6" d="m249.52,31.33v8.22h-1.6v-11.34h2.24l1.83,6.79v-6.79h1.59v11.34h-1.83l-2.22-8.22Z"/><path class="cls-6" d="m261.11,39.54h-1.8l-.31-2.06h-2.19l-.31,2.06h-1.64l1.81-11.34h2.61l1.81,11.34Zm-4.07-3.6h1.72l-.86-5.74-.86,5.74Z"/><path class="cls-6" d="m261.39,28.2h5.51v1.62h-1.86v9.72h-1.78v-9.72h-1.86v-1.62Z"/><path class="cls-6" d="m268.17,28.2h1.78v11.34h-1.78v-11.34Z"/><path class="cls-6" d="m271.45,30.92c0-1.81.96-2.85,2.71-2.85s2.71,1.04,2.71,2.85v5.9c0,1.82-.96,2.85-2.71,2.85s-2.71-1.04-2.71-2.85v-5.9Zm1.78,6.01c0,.81.36,1.12.92,1.12s.92-.31.92-1.12v-6.13c0-.81-.36-1.12-.92-1.12s-.92.31-.92,1.12v6.13Z"/><path class="cls-6" d="m279.95,31.33v8.22h-1.6v-11.34h2.24l1.83,6.79v-6.79h1.59v11.34h-1.83l-2.22-8.22Z"/><path class="cls-6" d="m288.07,28.07c1.73,0,2.62,1.04,2.62,2.85v.36h-1.69v-.47c0-.81-.32-1.12-.89-1.12s-.89.31-.89,1.12c0,2.33,3.48,2.77,3.48,6.01,0,1.82-.91,2.85-2.66,2.85s-2.66-1.04-2.66-2.85v-.7h1.69v.81c0,.81.36,1.1.92,1.1s.92-.29.92-1.1c0-2.33-3.48-2.77-3.48-6.01,0-1.81.89-2.85,2.63-2.85Z"/><rect class="cls-8" x="171.84" y="43.82" width="118.31" height="3.55"/><line class="cls-3" x1="4.94" y1="169.09" x2="291.66" y2="169.09"/><path class="cls-7" d="m.38,181.82c0-.45.07-.84.22-1.16.14-.32.4-.68.77-1.07.37-.39.62-.72.76-1,.14-.28.21-.56.21-.86,0-.27-.04-.46-.13-.56s-.21-.16-.38-.16c-.34,0-.51.21-.51.62v.68H.38v-.61c0-.51.13-.9.38-1.17.25-.27.62-.41,1.1-.41s.85.14,1.1.41.38.66.38,1.17c0,.38-.09.76-.27,1.12-.18.37-.5.79-.95,1.26-.29.31-.49.57-.59.76-.1.2-.15.4-.15.63v.14h1.88v.9H.38v-.68Z"/><path class="cls-7" d="m4.09,182.18c-.26-.28-.39-.67-.39-1.17v-3.31c0-.5.13-.89.39-1.17.26-.28.63-.41,1.12-.41s.86.14,1.12.41.39.67.39,1.17v3.31c0,.5-.13.89-.39,1.17-.26.28-.63.41-1.12.41s-.86-.14-1.12-.41Zm1.63-1.11v-3.44c0-.41-.17-.62-.51-.62s-.51.21-.51.62v3.44c0,.41.17.62.51.62s.51-.21.51-.62Z"/><path class="cls-7" d="m8.54,177.7h-1.04v-.7c.28,0,.51-.02.68-.07.17-.05.31-.13.41-.24.1-.11.19-.27.27-.48h.67v6.3h-.99v-4.81Z"/><path class="cls-7" d="m10.88,182.18c-.25-.27-.38-.66-.38-1.17v-.49h.94v.57c0,.41.17.61.51.61s.51-.2.51-.61v-1.41c0-.41-.17-.62-.51-.62s-.51.21-.51.62v.05h-.94l.18-3.52h2.61v.9h-1.73l-.08,1.5h.02c.19-.31.47-.46.86-.46.36,0,.63.12.82.37.19.25.28.6.28,1.07v1.42c0,.51-.13.9-.38,1.17s-.62.41-1.1.41-.85-.14-1.1-.41Z"/><path class="cls-7" d="m13.76,178.9h1.98v.9h-1.98v-.9Z"/><path class="cls-7" d="m16.09,181.82c0-.45.07-.84.22-1.16.14-.32.4-.68.77-1.07.37-.39.62-.72.76-1,.14-.28.21-.56.21-.86,0-.27-.04-.46-.13-.56s-.21-.16-.38-.16c-.34,0-.51.21-.51.62v.68h-.94v-.61c0-.51.13-.9.38-1.17.25-.27.62-.41,1.1-.41s.85.14,1.1.41.38.66.38,1.17c0,.38-.09.76-.27,1.12-.18.37-.5.79-.95,1.26-.29.31-.49.57-.59.76-.1.2-.15.4-.15.63v.14h1.88v.9h-2.86v-.68Z"/><path class="cls-7" d="m19.8,182.18c-.26-.28-.39-.67-.39-1.17v-3.31c0-.5.13-.89.39-1.17.26-.28.63-.41,1.12-.41s.86.14,1.12.41.39.67.39,1.17v3.31c0,.5-.13.89-.39,1.17-.26.28-.63.41-1.12.41s-.86-.14-1.12-.41Zm1.63-1.11v-3.44c0-.41-.17-.62-.51-.62s-.51.21-.51.62v3.44c0,.41.17.62.51.62s.51-.21.51-.62Z"/><path class="cls-7" d="m24.24,177.7h-1.04v-.7c.28,0,.51-.02.68-.07.17-.05.31-.13.41-.24.1-.11.19-.27.27-.48h.67v6.3h-.99v-4.81Z"/><path class="cls-7" d="m26.53,182.18c-.25-.27-.38-.66-.38-1.17v-.12h.94v.18c0,.41.17.62.51.62.19,0,.32-.06.41-.17.09-.11.13-.31.13-.6v-1.21h-.02c-.17.37-.47.55-.9.55-.36,0-.63-.12-.82-.37-.19-.25-.28-.6-.28-1.07v-1.12c0-.5.13-.89.39-1.17s.63-.41,1.12-.41.86.14,1.12.41.39.67.39,1.17v3.26c0,1.09-.5,1.64-1.51,1.64-.48,0-.85-.14-1.1-.41Zm1.62-3.44v-1.12c0-.41-.17-.61-.51-.61s-.51.2-.51.61v1.12c0,.41.17.62.51.62s.51-.21.51-.62Z"/><circle class="cls-2" cx="14.64" cy="169.23" r="2.25"/><path class="cls-7" d="m140.6,181.82c0-.45.07-.84.22-1.16.14-.32.4-.68.77-1.07.37-.39.62-.72.76-1,.14-.28.21-.56.21-.86,0-.27-.04-.46-.13-.56s-.21-.16-.38-.16c-.34,0-.51.21-.51.62v.68h-.94v-.61c0-.51.13-.9.38-1.17.25-.27.62-.41,1.1-.41s.85.14,1.1.41.38.66.38,1.17c0,.38-.09.76-.27,1.12-.18.37-.5.79-.95,1.26-.29.31-.49.57-.59.76-.1.2-.15.4-.15.63v.14h1.88v.9h-2.86v-.68Z"/><path class="cls-7" d="m144.3,182.18c-.26-.28-.39-.67-.39-1.17v-3.31c0-.5.13-.89.39-1.17.26-.28.63-.41,1.12-.41s.86.14,1.12.41.39.67.39,1.17v3.31c0,.5-.13.89-.39,1.17-.26.28-.63.41-1.12.41s-.86-.14-1.12-.41Zm1.63-1.11v-3.44c0-.41-.17-.62-.51-.62s-.51.21-.51.62v3.44c0,.41.17.62.51.62s.51-.21.51-.62Z"/><path class="cls-7" d="m147.34,181.82c0-.45.07-.84.22-1.16.14-.32.4-.68.77-1.07.37-.39.62-.72.76-1,.14-.28.21-.56.21-.86,0-.27-.04-.46-.13-.56s-.21-.16-.38-.16c-.34,0-.51.21-.51.62v.68h-.94v-.61c0-.51.13-.9.38-1.17.25-.27.62-.41,1.1-.41s.85.14,1.1.41.38.66.38,1.17c0,.38-.09.76-.27,1.12-.18.37-.5.79-.95,1.26-.29.31-.49.57-.59.76-.1.2-.15.4-.15.63v.14h1.88v.9h-2.86v-.68Z"/><path class="cls-7" d="m151.05,182.18c-.26-.28-.39-.67-.39-1.17v-3.31c0-.5.13-.89.39-1.17.26-.28.63-.41,1.12-.41s.86.14,1.12.41.39.67.39,1.17v3.31c0,.5-.13.89-.39,1.17-.26.28-.63.41-1.12.41s-.86-.14-1.12-.41Zm1.63-1.11v-3.44c0-.41-.17-.62-.51-.62s-.51.21-.51.62v3.44c0,.41.17.62.51.62s.51-.21.51-.62Z"/><circle class="cls-2" cx="147" cy="169.23" r="2.25"/><path class="cls-7" d="m275.28,181.82c0-.45.07-.84.22-1.16.14-.32.4-.68.77-1.07.37-.39.62-.72.76-1,.14-.28.21-.56.21-.86,0-.27-.04-.46-.13-.56s-.21-.16-.38-.16c-.34,0-.51.21-.51.62v.68h-.94v-.61c0-.51.13-.9.38-1.17.25-.27.62-.41,1.1-.41s.85.14,1.1.41.38.66.38,1.17c0,.38-.09.76-.27,1.12-.18.37-.5.79-.95,1.26-.29.31-.49.57-.59.76-.1.2-.15.4-.15.63v.14h1.88v.9h-2.86v-.68Z"/><path class="cls-7" d="m278.99,182.18c-.26-.28-.39-.67-.39-1.17v-3.31c0-.5.13-.89.39-1.17.26-.28.63-.41,1.12-.41s.86.14,1.12.41.39.67.39,1.17v3.31c0,.5-.13.89-.39,1.17-.26.28-.63.41-1.12.41s-.86-.14-1.12-.41Zm1.63-1.11v-3.44c0-.41-.17-.62-.51-.62s-.51.21-.51.62v3.44c0,.41.17.62.51.62s.51-.21.51-.62Z"/><path class="cls-7" d="m282.03,181.82c0-.45.07-.84.22-1.16.14-.32.4-.68.77-1.07.37-.39.62-.72.76-1,.14-.28.21-.56.21-.86,0-.27-.04-.46-.13-.56s-.21-.16-.38-.16c-.34,0-.51.21-.51.62v.68h-.94v-.61c0-.51.13-.9.38-1.17.25-.27.62-.41,1.1-.41s.85.14,1.1.41.38.66.38,1.17c0,.38-.09.76-.27,1.12-.18.37-.5.79-.95,1.26-.29.31-.49.57-.59.76-.1.2-.15.4-.15.63v.14h1.88v.9h-2.86v-.68Z"/><path class="cls-7" d="m286.81,177.7h-1.04v-.7c.28,0,.51-.02.68-.07.17-.05.31-.13.41-.24.1-.11.19-.27.27-.48h.67v6.3h-.99v-4.81Z"/><circle class="cls-2" cx="281.68" cy="169.23" r="2.25"/><g id="Element_1"><polyline class="cls-9" points="14.95 152.28 148.34 107.23 281.72 143.65"/></g><circle class="cls-1" cx="15.53" cy="152.31" r="9.12"/><path class="cls-5" d="m8.73,150.32h-1.04v-.7c.28,0,.51-.02.68-.07.17-.05.31-.13.41-.24.1-.11.19-.27.27-.48h.67v6.3h-.99v-4.81Z"/><path class="cls-5" d="m11.07,154.81c-.25-.27-.38-.66-.38-1.17v-.49h.94v.57c0,.41.17.61.51.61s.51-.2.51-.61v-1.41c0-.41-.17-.62-.51-.62s-.51.21-.51.62v.05h-.94l.18-3.52h2.61v.9h-1.73l-.08,1.5h.02c.19-.31.47-.46.86-.46.36,0,.63.12.82.37.19.25.28.6.28,1.07v1.42c0,.51-.13.9-.38,1.17s-.62.41-1.1.41-.85-.14-1.1-.41Z"/><path class="cls-5" d="m14.1,154.17h.95v.95h-.95v-.95Z"/><path class="cls-5" d="m15.55,154.44c0-.45.07-.84.22-1.16.14-.32.4-.68.77-1.07.37-.39.62-.72.76-1,.14-.28.21-.56.21-.86,0-.27-.04-.46-.13-.56s-.21-.16-.38-.16c-.34,0-.51.21-.51.62v.68h-.94v-.61c0-.51.13-.9.38-1.17.25-.27.62-.41,1.1-.41s.85.14,1.1.41.38.66.38,1.17c0,.38-.09.76-.27,1.12-.18.37-.5.79-.95,1.26-.29.31-.49.57-.59.76-.1.2-.15.4-.15.63v.14h1.88v.9h-2.86v-.68Z"/><path class="cls-5" d="m19.13,152.07c-.16-.17-.24-.42-.24-.75v-1.57c0-.32.08-.57.24-.75.16-.17.4-.26.71-.26s.55.09.71.26c.16.17.24.42.24.75v1.57c0,.32-.08.57-.24.75-.16.17-.4.26-.71.26s-.55-.09-.71-.26Zm1.04-.7v-1.66c0-.26-.11-.4-.32-.4s-.32.13-.32.4v1.66c0,.26.11.4.32.4s.32-.13.32-.4Zm1.96-2.54h.63l-2.44,6.3h-.63l2.44-6.3Zm-.23,6.13c-.16-.17-.24-.42-.24-.75v-1.58c0-.32.08-.57.24-.75.16-.17.4-.26.71-.26s.55.09.71.26c.16.17.24.42.24.75v1.58c0,.32-.08.57-.24.75s-.4.26-.71.26-.55-.09-.71-.26Zm1.04-.7v-1.67c0-.26-.11-.4-.32-.4s-.32.13-.32.4v1.67c0,.26.11.4.32.4s.32-.13.32-.4Z"/><circle class="cls-1" cx="148.6" cy="107.57" r="9.12"/><path class="cls-5" d="m142.07,109.25h-1.89v-.9l1.8-4.26h1.08v4.26h.47v.9h-.47v1.14h-.99v-1.14Zm0-.9v-2.46h-.02l-.97,2.46h.99Z"/><path class="cls-5" d="m144.08,110.08c-.27-.27-.4-.65-.4-1.16v-.56c0-.31.05-.57.15-.79.1-.21.27-.38.5-.5v-.02c-.21-.11-.37-.27-.46-.47-.1-.2-.15-.46-.15-.77v-.26c0-.5.13-.89.39-1.16.26-.27.63-.4,1.12-.4s.86.13,1.12.4c.26.27.39.65.39,1.16v.26c0,.6-.2,1.01-.61,1.24v.02c.23.12.39.29.5.5.1.21.15.48.15.79v.56c0,.5-.13.89-.4,1.16-.27.27-.65.4-1.15.4s-.88-.13-1.15-.4Zm1.71-1.21v-.6c0-.47-.19-.71-.56-.71s-.56.24-.56.71v.6c0,.47.19.71.56.71s.56-.24.56-.71Zm-.04-2.84v-.49c0-.42-.17-.63-.52-.63s-.52.21-.52.63v.49c0,.42.17.63.52.63s.52-.21.52-.63Z"/><path class="cls-5" d="m147.17,109.44h.95v.95h-.95v-.95Z"/><path class="cls-5" d="m150.02,105.58h-1.04v-.7c.28,0,.51-.02.68-.07.17-.05.31-.13.41-.24.1-.11.19-.27.27-.48h.67v6.3h-.99v-4.81Z"/><path class="cls-5" d="m152.2,107.33c-.16-.17-.24-.42-.24-.75v-1.57c0-.32.08-.57.24-.75.16-.17.4-.26.71-.26s.55.09.71.26c.16.17.24.42.24.75v1.57c0,.32-.08.57-.24.75-.16.17-.4.26-.71.26s-.55-.09-.71-.26Zm1.04-.7v-1.66c0-.26-.11-.4-.32-.4s-.32.13-.32.4v1.66c0,.26.11.4.32.4s.32-.13.32-.4Zm1.96-2.54h.63l-2.44,6.3h-.63l2.44-6.3Zm-.23,6.13c-.16-.17-.24-.42-.24-.75v-1.58c0-.32.08-.57.24-.75.16-.17.4-.26.71-.26s.55.09.71.26c.16.17.24.42.24.75v1.58c0,.32-.08.57-.24.75s-.4.26-.71.26-.55-.09-.71-.26Zm1.04-.7v-1.67c0-.26-.11-.4-.32-.4s-.32.13-.32.4v1.67c0,.26.11.4.32.4s.32-.13.32-.4Z"/><circle class="cls-1" cx="281.45" cy="143.15" r="9.12"/><path class="cls-5" d="m273.24,145.29c0-.45.07-.84.22-1.16.14-.32.4-.68.77-1.07.37-.39.62-.72.76-1,.14-.28.21-.56.21-.86,0-.27-.04-.46-.13-.56s-.21-.16-.38-.16c-.34,0-.51.21-.51.62v.68h-.94v-.61c0-.51.13-.9.38-1.17.25-.27.62-.41,1.1-.41s.85.14,1.1.41.38.66.38,1.17c0,.38-.09.76-.27,1.12-.18.37-.5.79-.95,1.26-.29.31-.49.57-.59.76-.1.2-.15.4-.15.63v.14h1.88v.9h-2.86v-.68Z"/><path class="cls-5" d="m278.02,141.17h-1.04v-.7c.28,0,.51-.02.68-.07.17-.05.31-.13.41-.24.1-.11.19-.27.27-.48h.67v6.3h-.99v-4.81Z"/><path class="cls-5" d="m280.01,145.02h.95v.95h-.95v-.95Z"/><path class="cls-5" d="m281.83,145.65c-.25-.27-.38-.66-.38-1.17v-.49h.94v.57c0,.41.17.61.51.61s.51-.2.51-.61v-1.41c0-.41-.17-.62-.51-.62s-.51.21-.51.62v.05h-.94l.18-3.52h2.61v.9h-1.73l-.08,1.5h.02c.19-.31.47-.46.86-.46.36,0,.63.12.82.37.19.25.28.6.28,1.07v1.42c0,.51-.13.9-.38,1.17s-.62.41-1.1.41-.85-.14-1.1-.41Z"/><path class="cls-5" d="m285.04,142.91c-.16-.17-.24-.42-.24-.75v-1.57c0-.32.08-.57.24-.75.16-.17.4-.26.71-.26s.55.09.71.26c.16.17.24.42.24.75v1.57c0,.32-.08.57-.24.75-.16.17-.4.26-.71.26s-.55-.09-.71-.26Zm1.04-.7v-1.66c0-.26-.11-.4-.32-.4s-.32.13-.32.4v1.66c0,.26.11.4.32.4s.32-.13.32-.4Zm1.96-2.54h.63l-2.44,6.3h-.63l2.44-6.3Zm-.23,6.13c-.16-.17-.24-.42-.24-.75v-1.58c0-.32.08-.57.24-.75.16-.17.4-.26.71-.26s.55.09.71.26c.16.17.24.42.24.75v1.58c0,.32-.08.57-.24.75s-.4.26-.71.26-.55-.09-.71-.26Zm1.04-.7v-1.67c0-.26-.11-.4-.32-.4s-.32.13-.32.4v1.67c0,.26.11.4.32.4s.32-.13.32-.4Z"/></g></svg>