<?xml version="1.0" encoding="UTF-8"?>
<svg id="Layer_2" data-name="Layer 2" xmlns="http://www.w3.org/2000/svg" xmlns:xlink="http://www.w3.org/1999/xlink" viewBox="0 0 189.88 168.58">
  <defs>
    <style>
      .cls-1 {
        fill: #939598;
      }

      .cls-2 {
        fill: #587358;
      }

      .cls-3 {
        stroke-dasharray: 0 0 0 2.93;
      }

      .cls-3, .cls-4, .cls-5 {
        stroke: #587358;
        stroke-linecap: round;
        stroke-linejoin: round;
        stroke-width: 1.75px;
      }

      .cls-3, .cls-4, .cls-5, .cls-6 {
        fill: none;
      }

      .cls-4 {
        stroke-dasharray: 0 0 0 2.88;
      }

      .cls-7 {
        fill: #777677;
      }

      .cls-8 {
        clip-path: url(#clippath);
      }

      .cls-9 {
        fill: #e3ece0;
      }

      .cls-10 {
        fill: #2d9a47;
      }
    </style>
    <clipPath id="clippath">
      <rect class="cls-6" width="188.5" height="168.58"/>
    </clipPath>
  </defs>
  <g id="Layer_2-2" data-name="Layer 2">
    <g>
      <rect class="cls-9" x="1.38" y="32.51" width="188.5" height="136.07"/>
      <g>
        <path class="cls-2" d="M17.06,75.97h-2.36v-2.05h6.97v2.05h-2.36v12.3h-2.26v-12.3Z"/>
        <path class="cls-2" d="M22.7,73.92h2.17l1,11.03h.04l1.07-11.03h2.46l1.07,11.03h.04l1-11.03h1.95l-1.46,14.36h-2.81l-1.03-9.68h-.04l-1.03,9.68h-2.99l-1.46-14.36Z"/>
        <path class="cls-2" d="M34.88,84.87v-7.55c0-2.3,1.21-3.61,3.42-3.61s3.42,1.31,3.42,3.61v7.55c0,2.3-1.21,3.61-3.42,3.61s-3.42-1.31-3.42-3.61Zm4.59,.14v-7.83c0-1.03-.45-1.42-1.17-1.42s-1.17,.39-1.17,1.42v7.83c0,1.03,.45,1.42,1.17,1.42s1.17-.39,1.17-1.42Z"/>
        <path class="cls-2" d="M47.31,73.92h3.22l1.44,10.27h.04l1.44-10.27h3.22v14.36h-2.13v-10.87h-.04l-1.64,10.87h-1.89l-1.64-10.87h-.04v10.87h-1.97v-14.36Z"/>
        <path class="cls-2" d="M58.73,73.92h2.26v14.36h-2.26v-14.36Z"/>
        <path class="cls-2" d="M63.06,73.92h2.83l2.19,8.59h.04v-8.59h2.01v14.36h-2.32l-2.71-10.48h-.04v10.48h-2.01v-14.36Z"/>
        <path class="cls-2" d="M72.12,84.87v-10.95h2.26v11.12c0,1.03,.43,1.39,1.15,1.39s1.15-.37,1.15-1.39v-11.12h2.17v10.95c0,2.3-1.15,3.61-3.36,3.61s-3.36-1.31-3.36-3.61Z"/>
        <path class="cls-2" d="M82.6,75.97h-2.36v-2.05h6.97v2.05h-2.36v12.3h-2.26v-12.3Z"/>
        <path class="cls-2" d="M88.69,73.92h6.15v2.05h-3.9v3.79h3.1v2.05h-3.1v4.41h3.9v2.05h-6.15v-14.36Z"/>
        <path class="cls-2" d="M96.18,84.87v-.82h2.13v.98c0,1.03,.45,1.39,1.17,1.39s1.17-.37,1.17-1.44c0-1.19-.45-1.95-1.93-3.24-1.89-1.66-2.5-2.83-2.5-4.47,0-2.26,1.17-3.57,3.36-3.57s3.28,1.31,3.28,3.61v.59h-2.13v-.74c0-1.03-.41-1.42-1.13-1.42s-1.13,.39-1.13,1.37c0,1.05,.47,1.8,1.95,3.1,1.89,1.66,2.48,2.81,2.48,4.59,0,2.34-1.19,3.65-3.4,3.65s-3.32-1.31-3.32-3.61Z"/>
      </g>
      <g>
        <path class="cls-7" d="M16.58,58.52h1.94l1.48,9.1h-1.43l-.26-1.81v.03h-1.62l-.26,1.78h-1.33l1.48-9.1Zm1.56,6.08l-.64-4.5h-.03l-.62,4.5h1.29Z"/>
        <path class="cls-7" d="M22.95,58.52h1.38l.64,6.99h.03l.68-6.99h1.56l.68,6.99h.03l.64-6.99h1.24l-.92,9.1h-1.78l-.65-6.14h-.03l-.65,6.14h-1.9l-.92-9.1Z"/>
        <path class="cls-7" d="M30.69,65.46v-4.78c0-1.46,.77-2.29,2.17-2.29s2.17,.83,2.17,2.29v4.78c0,1.46-.77,2.29-2.17,2.29s-2.17-.83-2.17-2.29Zm2.91,.09v-4.97c0-.65-.29-.9-.74-.9s-.74,.25-.74,.9v4.97c0,.65,.29,.9,.74,.9s.74-.25,.74-.9Z"/>
        <path class="cls-7" d="M36.25,58.52h2.04l.91,6.51h.03l.91-6.51h2.04v9.1h-1.35v-6.89h-.03l-1.04,6.89h-1.2l-1.04-6.89h-.03v6.89h-1.25v-9.1Z"/>
        <path class="cls-7" d="M44.61,58.52h1.94l1.48,9.1h-1.43l-.26-1.81v.03h-1.62l-.26,1.78h-1.33l1.48-9.1Zm1.56,6.08l-.64-4.5h-.03l-.62,4.5h1.29Z"/>
        <path class="cls-7" d="M48.98,58.52h1.79l1.39,5.45h.03v-5.45h1.27v9.1h-1.47l-1.72-6.64h-.03v6.64h-1.27v-9.1Z"/>
        <path class="cls-10" d="M57.13,58.52h2.18c1.43,0,2.13,.79,2.13,2.25v4.6c0,1.46-.7,2.25-2.13,2.25h-2.18v-9.1Zm2.16,7.8c.46,0,.73-.23,.73-.88v-4.73c0-.65-.27-.88-.73-.88h-.73v6.5h.73Z"/>
        <path class="cls-10" d="M62.67,58.52h1.43v9.1h-1.43v-9.1Z"/>
        <path class="cls-10" d="M65.43,58.52h3.9v1.3h-2.47v2.41h1.96v1.3h-1.96v2.8h2.47v1.3h-3.9v-9.1Z"/>
        <path class="cls-10" d="M70.18,65.46v-.52h1.35v.62c0,.65,.29,.88,.74,.88s.74-.23,.74-.91c0-.75-.29-1.23-1.22-2.05-1.2-1.05-1.59-1.79-1.59-2.83,0-1.43,.74-2.26,2.13-2.26s2.08,.83,2.08,2.29v.38h-1.35v-.47c0-.65-.26-.9-.71-.9s-.71,.25-.71,.87c0,.66,.3,1.14,1.23,1.96,1.2,1.05,1.57,1.78,1.57,2.91,0,1.48-.75,2.31-2.16,2.31s-2.11-.83-2.11-2.29Z"/>
        <path class="cls-7" d="M77.87,58.52h3.9v1.3h-2.47v2.41h1.96v1.3h-1.96v2.8h2.47v1.3h-3.9v-9.1Z"/>
        <path class="cls-7" d="M82.47,58.52h1.44l.94,7.06h.03l.94-7.06h1.31l-1.38,9.1h-1.9l-1.38-9.1Z"/>
        <path class="cls-7" d="M88.07,58.52h3.9v1.3h-2.47v2.41h1.96v1.3h-1.96v2.8h2.47v1.3h-3.9v-9.1Z"/>
        <path class="cls-7" d="M93.05,58.52h2.12c1.48,0,2.12,.69,2.12,2.09v.56c0,.94-.3,1.53-.94,1.79v.03c.72,.22,.95,.9,.95,1.92v1.6c0,.44,.01,.77,.16,1.1h-1.46c-.08-.23-.13-.38-.13-1.12v-1.66c0-.84-.25-1.12-.9-1.12h-.49v3.9h-1.43v-9.1Zm1.95,3.9c.53,0,.86-.23,.86-.96v-.7c0-.65-.22-.94-.73-.94h-.65v2.6h.52Z"/>
        <path class="cls-7" d="M99.65,63.74l-1.73-5.23h1.52l.98,3.34h.03l.98-3.34h1.39l-1.73,5.23v3.87h-1.43v-3.87Z"/>
      </g>
      <g>
        <path class="cls-1" d="M14.98,150.44v-4.94c0-1.12,.44-1.53,1.54-1.53h.34v.9h-.27c-.35,0-.51,.13-.51,.63v4.94c0,.5,.16,.63,.51,.63h.27v.9h-.34c-1.1,0-1.54-.41-1.54-1.53Z"/>
        <path class="cls-1" d="M17.6,150.71c0-1,.28-1.61,1.1-2.47,.84-.89,1.08-1.42,1.08-2.07s-.22-.8-.57-.8-.57,.19-.57,.69v.75h-1.04v-.68c0-1.12,.56-1.76,1.64-1.76s1.64,.64,1.64,1.76c0,.83-.34,1.57-1.36,2.65-.66,.7-.83,1.05-.83,1.54v.15h2.09v1h-3.18v-.76Z"/>
        <path class="cls-1" d="M21.54,149.81v-3.68c0-1.12,.59-1.76,1.67-1.76s1.67,.64,1.67,1.76v3.68c0,1.12-.59,1.76-1.67,1.76s-1.67-.64-1.67-1.76Zm2.24,.07v-3.82c0-.5-.22-.69-.57-.69s-.57,.19-.57,.69v3.82c0,.5,.22,.69,.57,.69s.57-.19,.57-.69Z"/>
        <path class="cls-1" d="M25.6,150.71c0-1,.28-1.61,1.1-2.47,.84-.89,1.08-1.42,1.08-2.07s-.22-.8-.57-.8-.57,.19-.57,.69v.75h-1.04v-.68c0-1.12,.56-1.76,1.64-1.76s1.64,.64,1.64,1.76c0,.83-.34,1.57-1.36,2.65-.66,.7-.83,1.05-.83,1.54v.15h2.09v1h-3.18v-.76Z"/>
        <path class="cls-1" d="M29.54,149.81v-3.68c0-1.12,.59-1.76,1.67-1.76s1.67,.64,1.67,1.76v3.68c0,1.12-.59,1.76-1.67,1.76s-1.67-.64-1.67-1.76Zm2.24,.07v-3.82c0-.5-.22-.69-.57-.69s-.57,.19-.57,.69v3.82c0,.5,.22,.69,.57,.69s.57-.19,.57-.69Z"/>
        <path class="cls-1" d="M33.56,151.07h.27c.35,0,.51-.13,.51-.63v-4.94c0-.5-.16-.63-.51-.63h-.27v-.9h.34c1.1,0,1.54,.41,1.54,1.53v4.94c0,1.12-.44,1.53-1.54,1.53h-.34v-.9Z"/>
      </g>
      <g>
        <path class="cls-10" d="M14.86,95.29h2.91v1h-1.81v1.95h1.42v1h-1.42v3.05h-1.1v-7Z"/>
        <path class="cls-10" d="M18.47,95.29h1.63c1.14,0,1.63,.53,1.63,1.61v.43c0,.72-.23,1.18-.72,1.38v.02c.55,.17,.73,.69,.73,1.48v1.23c0,.34,.01,.59,.12,.85h-1.12c-.06-.18-.1-.29-.1-.86v-1.28c0-.65-.19-.86-.69-.86h-.38v3h-1.1v-7Zm1.5,3c.41,0,.66-.18,.66-.74v-.54c0-.5-.17-.72-.56-.72h-.5v2h.4Z"/>
        <path class="cls-10" d="M22.59,100.62v-3.68c0-1.12,.59-1.76,1.67-1.76s1.67,.64,1.67,1.76v3.68c0,1.12-.59,1.76-1.67,1.76s-1.67-.64-1.67-1.76Zm2.24,.07v-3.82c0-.5-.22-.69-.57-.69s-.57,.19-.57,.69v3.82c0,.5,.22,.69,.57,.69s.57-.19,.57-.69Z"/>
        <path class="cls-10" d="M26.84,95.29h1.57l.7,5.01h.02l.7-5.01h1.57v7h-1.04v-5.3h-.02l-.8,5.3h-.92l-.8-5.3h-.02v5.3h-.96v-7Z"/>
        <path class="cls-10" d="M34.16,95.29h1.62c1.1,0,1.64,.61,1.64,1.73v.69c0,1.12-.54,1.73-1.64,1.73h-.52v2.85h-1.1v-7Zm1.62,3.15c.35,0,.54-.16,.54-.66v-.83c0-.5-.19-.66-.54-.66h-.52v2.15h.52Z"/>
        <path class="cls-10" d="M38.19,95.29h1.63c1.14,0,1.63,.53,1.63,1.61v.43c0,.72-.23,1.18-.72,1.38v.02c.55,.17,.73,.69,.73,1.48v1.23c0,.34,0,.59,.12,.85h-1.12c-.06-.18-.1-.29-.1-.86v-1.28c0-.65-.19-.86-.69-.86h-.38v3h-1.1v-7Zm1.5,3c.41,0,.66-.18,.66-.74v-.54c0-.5-.17-.72-.56-.72h-.5v2h.4Z"/>
        <path class="cls-10" d="M42.39,95.29h3v1h-1.9v1.85h1.51v1h-1.51v2.15h1.9v1h-3v-7Z"/>
        <path class="cls-10" d="M45.9,95.29h1.11l.72,5.43h.02l.72-5.43h1.01l-1.06,7h-1.46l-1.06-7Z"/>
        <path class="cls-10" d="M50.18,95.29h3v1h-1.9v1.85h1.51v1h-1.51v2.15h1.9v1h-3v-7Z"/>
        <path class="cls-10" d="M53.98,95.29h1.38l1.07,4.19h.02v-4.19h.98v7h-1.13l-1.32-5.11h-.02v5.11h-.98v-7Z"/>
        <path class="cls-10" d="M59.28,96.29h-1.15v-1h3.4v1h-1.15v6h-1.1v-6Z"/>
        <path class="cls-10" d="M62.62,95.29h1.49l1.14,7h-1.1l-.2-1.39v.02h-1.25l-.2,1.37h-1.02l1.14-7Zm1.2,4.68l-.49-3.46h-.02l-.48,3.46h.99Z"/>
        <path class="cls-10" d="M65.95,95.29h1.66c1.14,0,1.63,.53,1.63,1.61v.28c0,.72-.22,1.17-.71,1.37v.02c.59,.2,.82,.72,.82,1.46v.6c0,1.08-.57,1.66-1.67,1.66h-1.73v-7Zm1.53,2.85c.41,0,.66-.18,.66-.74v-.39c0-.5-.17-.72-.56-.72h-.53v1.85h.43Zm.2,3.15c.37,0,.57-.17,.57-.69v-.61c0-.65-.21-.85-.71-.85h-.49v2.15h.63Z"/>
        <path class="cls-10" d="M70.16,95.29h1.1v6h1.81v1h-2.91v-7Z"/>
        <path class="cls-10" d="M73.77,95.29h3v1h-1.9v1.85h1.51v1h-1.51v2.15h1.9v1h-3v-7Z"/>
        <path class="cls-10" d="M79.27,100.66v-3.76c0-1.08,.56-1.72,1.62-1.72s1.62,.64,1.62,1.72v.74h-1.04v-.81c0-.46-.22-.65-.55-.65s-.55,.19-.55,.65v3.91c0,.46,.22,.64,.55,.64s.55-.18,.55-.64v-1.07h1.04v.99c0,1.08-.56,1.72-1.62,1.72s-1.62-.64-1.62-1.72Z"/>
        <path class="cls-10" d="M84.19,95.29h1.49l1.14,7h-1.1l-.2-1.39v.02h-1.25l-.2,1.37h-1.02l1.14-7Zm1.2,4.68l-.49-3.46h-.02l-.48,3.46h.99Z"/>
        <path class="cls-10" d="M87.46,100.62v-5.34h1.1v5.42c0,.5,.21,.68,.56,.68s.56-.18,.56-.68v-5.42h1.06v5.34c0,1.12-.56,1.76-1.64,1.76s-1.64-.64-1.64-1.76Z"/>
        <path class="cls-10" d="M91.5,100.62v-.4h1.04v.48c0,.5,.22,.68,.57,.68s.57-.18,.57-.7c0-.58-.22-.95-.94-1.58-.92-.81-1.22-1.38-1.22-2.18,0-1.1,.57-1.74,1.64-1.74s1.6,.64,1.6,1.76v.29h-1.04v-.36c0-.5-.2-.69-.55-.69s-.55,.19-.55,.67c0,.51,.23,.88,.95,1.51,.92,.81,1.21,1.37,1.21,2.24,0,1.14-.58,1.78-1.66,1.78s-1.62-.64-1.62-1.76Z"/>
        <path class="cls-10" d="M95.58,95.29h3v1h-1.9v1.85h1.51v1h-1.51v2.15h1.9v1h-3v-7Z"/>
        <path class="cls-10" d="M99.21,100.62v-.4h1.04v.48c0,.5,.22,.68,.57,.68s.57-.18,.57-.7c0-.58-.22-.95-.94-1.58-.92-.81-1.22-1.38-1.22-2.18,0-1.1,.57-1.74,1.64-1.74s1.6,.64,1.6,1.76v.29h-1.04v-.36c0-.5-.2-.69-.55-.69s-.55,.19-.55,.67c0,.51,.23,.88,.95,1.51,.92,.81,1.21,1.37,1.21,2.24,0,1.14-.58,1.78-1.66,1.78s-1.62-.64-1.62-1.76Z"/>
        <path class="cls-10" d="M14.86,109.29h1.63c1.14,0,1.63,.53,1.63,1.61v.43c0,.72-.23,1.18-.72,1.38v.02c.55,.17,.73,.69,.73,1.48v1.23c0,.34,0,.59,.12,.85h-1.12c-.06-.18-.1-.29-.1-.86v-1.28c0-.65-.19-.86-.69-.86h-.38v3h-1.1v-7Zm1.5,3c.41,0,.66-.18,.66-.74v-.54c0-.5-.17-.72-.56-.72h-.5v2h.4Z"/>
        <path class="cls-10" d="M19.06,109.29h3v1h-1.9v1.85h1.51v1h-1.51v2.15h1.9v1h-3v-7Z"/>
        <path class="cls-10" d="M22.86,109.29h1.1v6h1.81v1h-2.91v-7Z"/>
        <path class="cls-10" d="M27.36,109.29h1.49l1.14,7h-1.1l-.2-1.39v.02h-1.25l-.2,1.37h-1.02l1.14-7Zm1.2,4.68l-.49-3.46h-.02l-.48,3.46h.99Z"/>
        <path class="cls-10" d="M31.09,110.29h-1.15v-1h3.4v1h-1.15v6h-1.1v-6Z"/>
        <path class="cls-10" d="M34.04,109.29h3v1h-1.9v1.85h1.51v1h-1.51v2.15h1.9v1h-3v-7Z"/>
        <path class="cls-10" d="M37.84,109.29h1.68c1.1,0,1.64,.61,1.64,1.73v3.54c0,1.12-.54,1.73-1.64,1.73h-1.68v-7Zm1.66,6c.35,0,.56-.18,.56-.68v-3.64c0-.5-.21-.68-.56-.68h-.56v5h.56Z"/>
        <path class="cls-10" d="M44.7,110.29h-1.15v-1h3.4v1h-1.15v6h-1.1v-6Z"/>
        <path class="cls-10" d="M47.53,114.62v-3.68c0-1.12,.59-1.76,1.67-1.76s1.67,.64,1.67,1.76v3.68c0,1.12-.59,1.76-1.67,1.76s-1.67-.64-1.67-1.76Zm2.24,.07v-3.82c0-.5-.22-.69-.57-.69s-.57,.19-.57,.69v3.82c0,.5,.22,.69,.57,.69s.57-.19,.57-.69Z"/>
        <path class="cls-7" d="M53.55,109.29h1.62c1.1,0,1.64,.61,1.64,1.73v.69c0,1.12-.54,1.73-1.64,1.73h-.52v2.85h-1.1v-7Zm1.62,3.15c.35,0,.54-.16,.54-.66v-.83c0-.5-.19-.66-.54-.66h-.52v2.15h.52Z"/>
        <path class="cls-7" d="M57.58,109.29h1.63c1.14,0,1.63,.53,1.63,1.61v.43c0,.72-.23,1.18-.72,1.38v.02c.55,.17,.73,.69,.73,1.48v1.23c0,.34,0,.59,.12,.85h-1.12c-.06-.18-.1-.29-.1-.86v-1.28c0-.65-.19-.86-.69-.86h-.38v3h-1.1v-7Zm1.5,3c.41,0,.66-.18,.66-.74v-.54c0-.5-.17-.72-.56-.72h-.5v2h.4Z"/>
        <path class="cls-7" d="M61.78,109.29h3v1h-1.9v1.85h1.51v1h-1.51v2.15h1.9v1h-3v-7Z"/>
        <path class="cls-7" d="M65.5,114.62v-3.68c0-1.12,.56-1.76,1.64-1.76s1.64,.64,1.64,1.76v.6h-1.04v-.67c0-.5-.22-.69-.57-.69s-.57,.19-.57,.69v3.83c0,.5,.22,.68,.57,.68s.57-.18,.57-.68v-1.37h-.55v-1h1.59v2.29c0,1.12-.56,1.76-1.64,1.76s-1.64-.64-1.64-1.76Z"/>
        <path class="cls-7" d="M69.66,109.29h1.38l1.07,4.19h.02v-4.19h.98v7h-1.13l-1.32-5.11h-.02v5.11h-.98v-7Z"/>
        <path class="cls-7" d="M74.95,109.29h1.49l1.14,7h-1.1l-.2-1.39v.02h-1.25l-.2,1.37h-1.02l1.14-7Zm1.2,4.68l-.49-3.46h-.02l-.48,3.46h.99Z"/>
        <path class="cls-7" d="M78.28,109.29h1.38l1.07,4.19h.02v-4.19h.98v7h-1.13l-1.32-5.11h-.02v5.11h-.98v-7Z"/>
        <path class="cls-7" d="M82.65,114.66v-3.76c0-1.08,.56-1.72,1.62-1.72s1.62,.64,1.62,1.72v.74h-1.04v-.81c0-.46-.22-.65-.55-.65s-.55,.19-.55,.65v3.91c0,.46,.22,.64,.55,.64s.55-.18,.55-.64v-1.07h1.04v.99c0,1.08-.56,1.72-1.62,1.72s-1.62-.64-1.62-1.72Z"/>
        <path class="cls-7" d="M87.64,113.3l-1.33-4.02h1.17l.75,2.57h.02l.75-2.57h1.07l-1.33,4.02v2.98h-1.1v-2.98Z"/>
        <path class="cls-7" d="M15.71,123.29h1.49l1.14,7h-1.1l-.2-1.39v.02h-1.25l-.2,1.37h-1.02l1.14-7Zm1.2,4.68l-.49-3.46h-.02l-.48,3.46h.99Z"/>
        <path class="cls-7" d="M19.04,123.29h1.38l1.07,4.19h.02v-4.19h.98v7h-1.13l-1.32-5.11h-.02v5.11h-.98v-7Z"/>
        <path class="cls-7" d="M23.48,123.29h1.68c1.1,0,1.64,.61,1.64,1.73v3.54c0,1.12-.54,1.73-1.64,1.73h-1.68v-7Zm1.66,6c.35,0,.56-.18,.56-.68v-3.64c0-.5-.21-.68-.56-.68h-.56v5h.56Z"/>
        <path class="cls-7" d="M29.41,128.66v-3.76c0-1.08,.56-1.72,1.62-1.72s1.62,.64,1.62,1.72v.74h-1.04v-.81c0-.46-.22-.65-.55-.65s-.55,.19-.55,.65v3.91c0,.46,.22,.64,.55,.64s.55-.18,.55-.64v-1.07h1.04v.99c0,1.08-.56,1.72-1.62,1.72s-1.62-.64-1.62-1.72Z"/>
        <path class="cls-7" d="M33.48,123.29h1.1v2.85h1.18v-2.85h1.1v7h-1.1v-3.15h-1.18v3.15h-1.1v-7Z"/>
        <path class="cls-7" d="M37.85,123.29h1.1v7h-1.1v-7Z"/>
        <path class="cls-7" d="M39.94,123.29h1.1v6h1.81v1h-2.91v-7Z"/>
        <path class="cls-7" d="M43.55,123.29h1.68c1.1,0,1.64,.61,1.64,1.73v3.54c0,1.12-.54,1.73-1.64,1.73h-1.68v-7Zm1.66,6c.35,0,.56-.18,.56-.68v-3.64c0-.5-.21-.68-.56-.68h-.56v5h.56Z"/>
        <path class="cls-7" d="M47.78,123.29h1.66c1.14,0,1.63,.53,1.63,1.61v.28c0,.72-.22,1.17-.71,1.37v.02c.59,.2,.82,.72,.82,1.46v.6c0,1.08-.57,1.66-1.67,1.66h-1.73v-7Zm1.53,2.85c.41,0,.66-.18,.66-.74v-.39c0-.5-.17-.72-.56-.72h-.53v1.85h.43Zm.2,3.15c.37,0,.57-.17,.57-.69v-.61c0-.65-.21-.85-.71-.85h-.49v2.15h.63Z"/>
        <path class="cls-7" d="M51.99,123.29h1.1v7h-1.1v-7Z"/>
        <path class="cls-7" d="M54.08,123.29h1.63c1.14,0,1.63,.53,1.63,1.61v.43c0,.72-.23,1.18-.72,1.38v.02c.55,.17,.73,.69,.73,1.48v1.23c0,.34,0,.59,.12,.85h-1.12c-.06-.18-.1-.29-.1-.86v-1.28c0-.65-.19-.86-.69-.86h-.38v3h-1.1v-7Zm1.5,3c.41,0,.66-.18,.66-.74v-.54c0-.5-.17-.72-.56-.72h-.5v2h.4Z"/>
        <path class="cls-7" d="M59.12,124.29h-1.15v-1h3.4v1h-1.15v6h-1.1v-6Z"/>
        <path class="cls-7" d="M62.07,123.29h1.1v2.85h1.18v-2.85h1.1v7h-1.1v-3.15h-1.18v3.15h-1.1v-7Z"/>
      </g>
      <g>
        <line class="cls-5" x1="16.29" y1="50.18" x2="16.29" y2="50.18"/>
        <line class="cls-3" x1="19.22" y1="50.18" x2="134.87" y2="50.18"/>
        <line class="cls-5" x1="136.33" y1="50.18" x2="136.33" y2="50.18"/>
      </g>
      <g>
        <line class="cls-5" x1="15.6" y1="137.93" x2="15.6" y2="137.93"/>
        <line class="cls-4" x1="18.49" y1="137.93" x2="100.64" y2="137.93"/>
        <line class="cls-5" x1="102.08" y1="137.93" x2="102.08" y2="137.93"/>
      </g>
      <g class="cls-8">
        <g>
          <path class="cls-10" d="M117.49,189.32c-1.64,0-3.18-.73-4.22-2-1.04-1.27-1.45-2.92-1.13-4.53l.02-.12c.58-2.89,1.04-5.15,1.51-6.85-2.06-.74-4.17-1.66-6.18-2.96-7.75-5-12.86-12.7-14.37-21.68-1.57-9.35,1.05-19.21,7.19-27.06,3.49-4.46,7.74-7.99,12-11.15-.6-.39-1.1-.88-1.37-1.62-2.58-7.05-1.82-9.68,4.05-14.1,1.66-1.25,3.5-2.5,5.44-3.82,4.31-2.94,8.77-5.97,11.64-9.24,2.75-3.14,5.68-7.01,6.47-11.96,.31-1.96,.1-3.5-.61-4.33-.55-.64-1.49-.97-2.79-.97-.49,0-1.02,.05-1.59,.14-.54,.09-1.06,.12-1.52,.14-.18,.01-.36,.02-.53,.03-.34,.03-.67,.04-.97,.04-5.34,0-5.85-4.53-6.07-6.46-.15-1.33-.06-2.61,.03-3.86,.19-2.65,.23-4.21-1.1-5.59-.92-.95-1.09-1.96-1.07-2.65,.04-1.76,1.35-2.99,2.14-3.72,.26-.24,.53-.48,.81-.72,.46-.4,1.43-1.24,1.46-1.55,.11-7.06,3.54-12.24,7.23-16.78,.23-.29,.44-.67,.68-1.12,.58-1.1,1.38-2.6,3.24-3.48,4.19-1.98,9.29-2.28,11.96-2.28,1.36,0,2.67,.07,3.91,.22,6.44,.75,11.72,4.39,15.01,10.32,5.34,.06,7.06,2.87,8.08,7.38,.75,3.33,.51,6.63-.71,9.83-1.31,3.41-3.7,5.36-6.73,5.5-.11,0-.19,.01-.26,.02-.07,.28-.14,.71-.17,.88-.3,1.95-1.22,7.87-6.92,9.9-1.24,.44-1.44,.51-.9,2.45l1.48,5.34c1.65,5.94,3.35,12.08,5.12,18.09,3.79,12.82,7.52,25.74,11.07,38.41,2.28,8.13,.07,14.52-6.98,20.1-3.75,2.97-7.75,5.97-12.26,9.18-.58,.41-.75,1.17-.42,1.78,.45,.81,.92,1.62,1.4,2.44,1.62,2.8,3.3,5.7,4.51,8.84,1.74,4.51,2.17,9.57,2.52,13.63,.13,1.52-.39,3.05-1.42,4.17-1.03,1.12-2.49,1.76-4.01,1.76h-44.68Zm41.06-69.88c-3.12,7.12-4.37,14.23-3.85,21.88,2.8-3.18,5.45-6.2,7.95-9.27,.04-.35-.19-1.22-.33-1.75l-.11-.43c-.89-3.5-2.17-6.82-3.66-10.43Z"/>
          <path class="cls-9" d="M149.84,21.59c1.27,0,2.5,.07,3.62,.2,6.35,.74,11.1,4.67,13.79,10.38,.47-.03,.92-.04,1.33-.04,3.66,0,4.87,1.24,5.82,5.43,.64,2.84,.44,5.66-.61,8.37-.8,2.08-2.2,3.79-4.51,3.9-2.22,.1-2.51,1.24-2.79,3.02-.53,3.41-1.81,6.69-5.29,7.93-3.09,1.1-3.15,3-2.46,5.47,2.18,7.83,4.31,15.67,6.62,23.46,3.77,12.77,7.46,25.56,11.06,38.37,2.16,7.69-.45,12.97-6.12,17.47-3.96,3.15-8.03,6.17-12.15,9.1-1.61,1.15-2.11,3.31-1.15,5.03,1.98,3.53,4.27,7.11,5.76,10.96,1.57,4.06,1.99,8.63,2.36,12.94,.15,1.73-1.2,3.22-2.94,3.22h-44.68c-1.86,0-3.26-1.71-2.9-3.53,.77-3.83,1.51-7.57,2.3-9.02-2.98-.94-5.62-1.94-8.03-3.49-15.27-9.85-18.19-30.25-6.56-45.1,4.08-5.22,9.27-9.12,14.56-12.88-.39-.97-3.3-1.6-3.55-2.29-2.19-5.97-1.79-7.48,3.2-11.24,5.35-4.02,13.04-8.38,17.45-13.41,3.37-3.84,6.23-8.01,7.06-13.22,.83-5.21-1.39-8.19-5.87-8.19-.62,0-1.29,.06-2,.18-.61,.1-1.23,.1-1.84,.15-.27,.02-.53,.03-.77,.03-2.47,0-3.24-1.2-3.58-4.24-.4-3.58,1.39-7.66-1.75-10.91-.96-1,.16-2.04,.98-2.81,1.26-1.19,3.03-2.34,3.06-4.05,.09-6.09,3.01-10.74,6.67-15.24,1.1-1.35,1.33-3.1,3.04-3.91,3.04-1.44,7.16-2.04,10.89-2.04m3.37,124.99c.13,0,.25-.05,.35-.16,4.05-4.63,7.68-8.66,11.1-12.86,.92-1.13,.35-2.84-.02-4.3-1.27-4.99-3.32-9.67-5.51-14.92-.08-.19-.26-.29-.44-.29-.16,0-.33,.08-.42,.25-5.38,10.05-7.33,20.19-5.54,31.88,.04,.25,.25,.4,.47,.4m-3.37-129.99s0,0,0,0c-2.88,0-8.4,.33-13.03,2.52-2.61,1.23-3.71,3.32-4.37,4.57-.14,.26-.32,.61-.41,.71-3.65,4.49-7.39,10.05-7.76,17.46-.2,.18-.44,.4-.63,.56-.3,.26-.6,.52-.87,.78-.93,.87-2.86,2.67-2.93,5.48-.04,1.64,.59,3.22,1.77,4.45,.52,.54,.59,1.16,.41,3.68-.09,1.29-.2,2.76-.03,4.32,.8,7.18,5.09,8.68,8.55,8.68,.37,0,.76-.02,1.17-.05,.16-.01,.32-.02,.48-.03,.49-.03,1.1-.06,1.78-.17,.43-.07,.83-.11,1.18-.11,.53,0,.8,.08,.9,.12,.1,.22,.25,.95,.03,2.28-.55,3.44-2.31,6.64-5.88,10.71-2.66,3.03-6.99,5.98-11.17,8.82-1.97,1.34-3.82,2.6-5.53,3.89-6.75,5.08-7.85,8.88-4.89,16.95,.04,.12,.09,.23,.14,.34-3.69,2.86-7.3,6.09-10.39,10.03-6.58,8.4-9.38,18.98-7.69,29.02,1.63,9.68,7.13,17.97,15.48,23.36,1.51,.97,3.05,1.74,4.58,2.39-.32,1.39-.64,3-1.01,4.85l-.02,.1c-.47,2.35,.13,4.75,1.65,6.6,1.52,1.85,3.76,2.91,6.15,2.91h44.68c2.22,0,4.35-.94,5.85-2.57,1.51-1.64,2.26-3.85,2.07-6.07-.36-4.22-.8-9.47-2.68-14.32-1.28-3.32-3.01-6.31-4.68-9.19-.29-.51-.59-1.01-.87-1.52,4.21-3.02,7.99-5.86,11.54-8.67,7.82-6.21,10.39-13.64,7.83-22.74-3.56-12.67-7.29-25.6-11.08-38.44-1.77-5.98-3.47-12.11-5.11-18.03-.47-1.69-.94-3.38-1.41-5.07,4.03-1.73,6.59-5.29,7.63-10.62,3.22-.76,5.78-3.18,7.19-6.85,1.41-3.67,1.69-7.46,.82-11.28-.97-4.26-2.82-8.6-9.05-9.24-3.71-5.87-9.47-9.6-16.18-10.38-1.34-.16-2.75-.23-4.2-.23h0Zm7.38,118.06c.21-2.72,.68-5.38,1.41-8.03,.44,1.29,.83,2.57,1.16,3.87l.12,.45c.03,.12,.07,.26,.1,.4-.91,1.1-1.84,2.2-2.79,3.31h0Z"/>
        </g>
      </g>
    </g>
  </g>
</svg>