<?xml version="1.0" encoding="UTF-8"?><svg id="Layer_2" xmlns="http://www.w3.org/2000/svg" xmlns:xlink="http://www.w3.org/1999/xlink" viewBox="0 0 281.89 353.05"><defs><style>.cls-1,.cls-2,.cls-3,.cls-4,.cls-5,.cls-6{fill:none;}.cls-2{clip-path:url(#clippath-1);}.cls-7{fill:#e3ece0;}.cls-8{fill:#fff;}.cls-9{fill:#d8e5d3;}.cls-10{fill:#2d9a47;}.cls-11{fill:#587358;}.cls-12{fill:#4f9750;}.cls-3{stroke-dasharray:0 0 0 2.89;}.cls-3,.cls-4{stroke-linecap:round;stroke-linejoin:round;stroke-width:1.75px;}.cls-3,.cls-4,.cls-5{stroke:#d8e5d3;}.cls-5{stroke-miterlimit:10;stroke-width:.67px;}.cls-6{clip-path:url(#clippath);}</style><clipPath id="clippath"><path class="cls-1" d="m272.11,77.92c2.24,0,4.07,1.83,4.07,4.07v261.01c0,2.24-1.83,4.07-4.07,4.07H7.07c-2.24,0-4.07-1.83-4.07-4.07V81.99c0-2.24,1.83-4.07,4.07-4.07h265.04"/></clipPath><clipPath id="clippath-1"><rect class="cls-1" x="-176.39" y="-35.87" width="575.45" height="126.7"/></clipPath></defs><g id="Layer_2-2"><rect class="cls-12" x="22.22" y="17.39" width="233.47" height="23.62"/><path class="cls-8" d="m27.37,22.41h1.98v12.6h-1.98v-12.6Z"/><path class="cls-8" d="m31.36,22.41h2.83l1.26,9.02h.04l1.26-9.02h2.83v12.6h-1.87v-9.54h-.04l-1.44,9.54h-1.66l-1.44-9.54h-.04v9.54h-1.73v-12.6Z"/><path class="cls-8" d="m41.59,22.41h2.92c.98,0,1.72.26,2.21.79.49.53.74,1.3.74,2.32v1.24c0,1.02-.25,1.79-.74,2.32-.49.53-1.23.79-2.21.79h-.94v5.13h-1.98v-12.6Zm2.92,5.67c.32,0,.57-.09.73-.27.16-.18.24-.49.24-.92v-1.49c0-.43-.08-.74-.24-.92-.16-.18-.4-.27-.73-.27h-.94v3.87h.94Z"/><path class="cls-8" d="m49.08,22.41h2.93c1.02,0,1.76.24,2.23.71.47.47.7,1.2.7,2.19v.77c0,1.31-.43,2.14-1.3,2.48v.04c.48.14.82.44,1.02.88.2.44.3,1.04.3,1.78v2.21c0,.36.01.65.04.87.02.22.08.44.18.66h-2.02c-.07-.2-.12-.4-.14-.58-.02-.18-.04-.5-.04-.97v-2.3c0-.58-.09-.98-.28-1.21-.19-.23-.51-.34-.96-.34h-.68v5.4h-1.98v-12.6Zm2.7,5.4c.4,0,.69-.1.89-.31.2-.2.3-.55.3-1.03v-.97c0-.46-.08-.79-.24-.99-.16-.2-.42-.31-.76-.31h-.9v3.6h.72Z"/><path class="cls-8" d="m57.5,34.37c-.52-.55-.77-1.33-.77-2.34v-6.62c0-1.01.26-1.79.77-2.34.52-.55,1.26-.83,2.23-.83s1.72.28,2.23.83c.52.55.77,1.33.77,2.34v6.62c0,1.01-.26,1.79-.77,2.34-.52.55-1.26.83-2.23.83s-1.72-.28-2.23-.83Zm3.26-2.21v-6.88c0-.83-.34-1.24-1.03-1.24s-1.03.41-1.03,1.24v6.88c0,.83.34,1.24,1.03,1.24s1.03-.41,1.03-1.24Z"/><path class="cls-8" d="m64.05,22.41h2l1.3,9.77h.04l1.3-9.77h1.82l-1.91,12.6h-2.63l-1.91-12.6Z"/><path class="cls-8" d="m71.99,22.41h1.98v12.6h-1.98v-12.6Z"/><path class="cls-8" d="m75.99,22.41h2.48l1.93,7.54h.04v-7.54h1.76v12.6h-2.03l-2.38-9.2h-.04v9.2h-1.76v-12.6Z"/><path class="cls-8" d="m84.82,34.38c-.5-.55-.76-1.33-.76-2.35v-6.62c0-1.02.25-1.8.76-2.35s1.24-.82,2.2-.82,1.69.27,2.2.82c.5.55.76,1.33.76,2.35v1.08h-1.87v-1.21c0-.83-.34-1.24-1.03-1.24s-1.03.41-1.03,1.24v6.89c0,.82.34,1.22,1.03,1.22s1.03-.41,1.03-1.22v-2.47h-.99v-1.8h2.86v4.12c0,1.02-.25,1.8-.76,2.35-.5.55-1.24.82-2.2.82s-1.69-.27-2.2-.82Z"/><path class="cls-8" d="m95.82,34.38c-.5-.55-.76-1.33-.76-2.35v-6.62c0-1.02.25-1.8.76-2.35s1.24-.82,2.2-.82,1.69.27,2.2.82c.5.55.76,1.33.76,2.35v1.08h-1.87v-1.21c0-.83-.34-1.24-1.03-1.24s-1.03.41-1.03,1.24v6.89c0,.82.34,1.22,1.03,1.22s1.03-.41,1.03-1.22v-2.47h-.99v-1.8h2.86v4.12c0,1.02-.25,1.8-.76,2.35-.5.55-1.24.82-2.2.82s-1.69-.27-2.2-.82Z"/><path class="cls-8" d="m102.79,22.41h1.98v10.8h3.26v1.8h-5.24v-12.6Z"/><path class="cls-8" d="m110.08,34.37c-.52-.55-.77-1.33-.77-2.34v-6.62c0-1.01.26-1.79.77-2.34.52-.55,1.26-.83,2.23-.83s1.72.28,2.23.83c.52.55.77,1.33.77,2.34v6.62c0,1.01-.26,1.79-.77,2.34-.52.55-1.26.83-2.23.83s-1.72-.28-2.23-.83Zm3.26-2.21v-6.88c0-.83-.34-1.24-1.03-1.24s-1.03.41-1.03,1.24v6.88c0,.83.34,1.24,1.03,1.24s1.03-.41,1.03-1.24Z"/><path class="cls-8" d="m117.19,22.41h2.99c1.02,0,1.76.24,2.23.71.47.47.7,1.2.7,2.19v.5c0,.65-.11,1.18-.31,1.58-.21.41-.53.7-.96.88v.04c.98.34,1.48,1.21,1.48,2.63v1.08c0,.97-.25,1.71-.77,2.22-.51.51-1.26.77-2.24.77h-3.11v-12.6Zm2.75,5.13c.4,0,.69-.1.89-.31.2-.2.3-.55.3-1.03v-.7c0-.46-.08-.79-.24-.99-.16-.2-.42-.31-.77-.31h-.95v3.33h.77Zm.36,5.67c.35,0,.61-.09.77-.28.17-.19.25-.51.25-.96v-1.1c0-.58-.1-.97-.3-1.2-.2-.22-.53-.33-.98-.33h-.88v3.87h1.13Z"/><path class="cls-8" d="m126.53,22.41h2.68l2.05,12.6h-1.98l-.36-2.5v.04h-2.25l-.36,2.47h-1.84l2.05-12.6Zm2.16,8.42l-.88-6.23h-.04l-.86,6.23h1.78Z"/><path class="cls-8" d="m132.76,22.41h1.98v10.8h3.26v1.8h-5.24v-12.6Z"/><path class="cls-8" d="m142.91,22.41h1.98v5.13h2.12v-5.13h1.98v12.6h-1.98v-5.67h-2.12v5.67h-1.98v-12.6Z"/><path class="cls-8" d="m151.01,22.41h5.4v1.8h-3.42v3.33h2.72v1.8h-2.72v3.87h3.42v1.8h-5.4v-12.6Z"/><path class="cls-8" d="m159.61,22.41h2.68l2.05,12.6h-1.98l-.36-2.5v.04h-2.25l-.36,2.47h-1.84l2.05-12.6Zm2.16,8.42l-.88-6.23h-.04l-.86,6.23h1.78Z"/><path class="cls-8" d="m165.84,22.41h1.98v10.8h3.26v1.8h-5.24v-12.6Z"/><path class="cls-8" d="m172.72,24.21h-2.07v-1.8h6.12v1.8h-2.07v10.8h-1.98v-10.8Z"/><path class="cls-8" d="m178.26,22.41h1.98v5.13h2.12v-5.13h1.98v12.6h-1.98v-5.67h-2.12v5.67h-1.98v-12.6Z"/><path class="cls-8" d="m190.41,34.37c-.52-.55-.77-1.33-.77-2.34v-6.62c0-1.01.26-1.79.77-2.34.52-.55,1.26-.83,2.23-.83s1.72.28,2.23.83c.52.55.77,1.33.77,2.34v6.62c0,1.01-.26,1.79-.77,2.34-.52.55-1.26.83-2.23.83s-1.72-.28-2.23-.83Zm3.26-2.21v-6.88c0-.83-.34-1.24-1.03-1.24s-1.03.41-1.03,1.24v6.88c0,.83.34,1.24,1.03,1.24s1.03-.41,1.03-1.24Z"/><path class="cls-8" d="m198.21,34.38c-.5-.55-.76-1.33-.76-2.35v-9.61h1.98v9.76c0,.43.09.74.26.94.17.19.42.29.75.29s.57-.1.75-.29c.17-.19.26-.5.26-.94v-9.76h1.91v9.61c0,1.02-.25,1.8-.76,2.35-.5.55-1.24.82-2.2.82s-1.69-.27-2.2-.82Z"/><path class="cls-8" d="m206.85,24.21h-2.07v-1.8h6.12v1.8h-2.07v10.8h-1.98v-10.8Z"/><path class="cls-8" d="m212.94,34.38c-.5-.54-.75-1.3-.75-2.29v-6.77c0-.98.25-1.75.75-2.29.5-.54,1.22-.81,2.17-.81s1.67.27,2.17.81c.5.54.75,1.3.75,2.29v1.33h-1.87v-1.46c0-.78-.33-1.17-.99-1.17s-.99.39-.99,1.17v7.04c0,.77.33,1.15.99,1.15s.99-.38.99-1.15v-1.93h1.87v1.78c0,.98-.25,1.75-.75,2.29s-1.22.81-2.17.81-1.67-.27-2.17-.81Z"/><path class="cls-8" d="m220.42,34.37c-.52-.55-.77-1.33-.77-2.34v-6.62c0-1.01.26-1.79.77-2.34.52-.55,1.26-.83,2.23-.83s1.72.28,2.23.83c.52.55.77,1.33.77,2.34v6.62c0,1.01-.26,1.79-.77,2.34-.52.55-1.26.83-2.23.83s-1.72-.28-2.23-.83Zm3.26-2.21v-6.88c0-.83-.34-1.24-1.03-1.24s-1.03.41-1.03,1.24v6.88c0,.83.34,1.24,1.03,1.24s1.03-.41,1.03-1.24Z"/><path class="cls-8" d="m227.53,22.41h2.83l1.26,9.02h.04l1.26-9.02h2.83v12.6h-1.87v-9.54h-.04l-1.44,9.54h-1.66l-1.44-9.54h-.04v9.54h-1.73v-12.6Z"/><path class="cls-8" d="m237.75,22.41h5.4v1.8h-3.42v3.33h2.72v1.8h-2.72v3.87h3.42v1.8h-5.4v-12.6Z"/><path class="cls-8" d="m245.26,34.38c-.49-.55-.74-1.33-.74-2.35v-.72h1.87v.86c0,.82.34,1.22,1.03,1.22.34,0,.59-.1.77-.3.17-.2.26-.52.26-.96,0-.53-.12-.99-.36-1.4-.24-.4-.68-.88-1.33-1.45-.82-.72-1.39-1.37-1.71-1.95-.32-.58-.49-1.24-.49-1.97,0-1,.25-1.77.76-2.31s1.24-.82,2.2-.82,1.67.27,2.15.82c.49.55.73,1.33.73,2.35v.52h-1.87v-.65c0-.43-.08-.75-.25-.95-.17-.2-.41-.3-.74-.3-.66,0-.99.4-.99,1.21,0,.46.12.88.37,1.28s.69.88,1.34,1.44c.83.72,1.4,1.37,1.71,1.96.31.59.47,1.28.47,2.07,0,1.03-.25,1.82-.76,2.38-.51.55-1.25.83-2.22.83s-1.69-.27-2.18-.82Z"/><path class="cls-12" d="m28.36.15h2.07l1.6,6.29h.03V.15h1.47v10.5h-1.7l-1.98-7.67h-.03v7.67h-1.47V.15Z"/><path class="cls-12" d="m35.74,10.11c-.43-.46-.64-1.11-.64-1.95V2.64c0-.84.21-1.49.64-1.95s1.05-.69,1.86-.69,1.43.23,1.86.69c.43.46.65,1.11.65,1.95v5.52c0,.84-.22,1.49-.65,1.95-.43.46-1.05.69-1.86.69s-1.43-.23-1.86-.69Zm2.72-1.84V2.53c0-.69-.29-1.03-.85-1.03s-.85.34-.85,1.03v5.73c0,.69.28,1.03.85,1.03s.85-.34.85-1.03Z"/><path class="cls-12" d="m42.9,1.65h-1.73V.15h5.1v1.5h-1.73v9h-1.65V1.65Z"/><path class="cls-12" d="m48.1.15h2.23l1.71,10.5h-1.65l-.3-2.08v.03h-1.88l-.3,2.06h-1.53L48.1.15Zm1.8,7.02l-.73-5.19h-.03l-.72,5.19h1.48Z"/><path class="cls-12" d="m53.29.15h2.49c.85,0,1.47.2,1.86.59.39.4.58,1,.58,1.82v.42c0,.54-.09.98-.26,1.32-.18.34-.44.59-.8.74v.03c.82.28,1.23,1.01,1.23,2.19v.9c0,.81-.21,1.43-.64,1.85s-1.05.64-1.87.64h-2.59V.15Zm2.29,4.27c.33,0,.58-.08.74-.25.16-.17.25-.46.25-.85v-.58c0-.38-.07-.65-.2-.83-.14-.17-.35-.25-.64-.25h-.79v2.77h.65Zm.3,4.73c.29,0,.5-.08.65-.23.14-.15.21-.42.21-.8v-.92c0-.48-.08-.81-.25-1-.16-.19-.44-.28-.82-.28h-.73v3.23h.94Z"/><path class="cls-12" d="m59.8.15h1.65v9h2.72v1.5h-4.37V.15Z"/><path class="cls-12" d="m65.41.15h4.5v1.5h-2.85v2.77h2.27v1.5h-2.27v3.23h2.85v1.5h-4.5V.15Z"/><path class="cls-12" d="m74.49,10.12c-.41-.45-.61-1.11-.61-1.96v-.6h1.56v.72c0,.68.29,1.02.86,1.02.28,0,.49-.08.64-.25s.22-.43.22-.8c0-.44-.1-.83-.3-1.16s-.57-.74-1.11-1.21c-.68-.6-1.16-1.14-1.43-1.63-.27-.48-.4-1.03-.4-1.64,0-.83.21-1.47.63-1.93s1.03-.68,1.83-.68,1.39.23,1.79.68c.41.46.61,1.11.61,1.96v.43h-1.56v-.54c0-.36-.07-.62-.21-.79s-.34-.25-.61-.25c-.55,0-.83.33-.83,1,0,.38.1.73.31,1.06s.58.73,1.12,1.2c.69.6,1.16,1.15,1.42,1.63.26.49.39,1.06.39,1.73,0,.86-.21,1.52-.64,1.98-.43.46-1.04.69-1.85.69s-1.4-.23-1.81-.68Z"/><path class="cls-12" d="m81.48,1.65h-1.73V.15h5.1v1.5h-1.73v9h-1.65V1.65Z"/><path class="cls-12" d="m86.1.15h2.44c.85,0,1.47.2,1.86.59.39.4.58,1,.58,1.82v.65c0,1.09-.36,1.78-1.08,2.07v.03c.4.12.68.37.85.73.17.37.25.87.25,1.48v1.85c0,.3,0,.54.03.73.02.19.07.37.15.55h-1.68c-.06-.17-.1-.33-.12-.48s-.03-.42-.03-.81v-1.92c0-.48-.08-.81-.23-1-.16-.19-.42-.29-.8-.29h-.57v4.5h-1.65V.15Zm2.25,4.5c.33,0,.58-.08.74-.25s.25-.46.25-.85v-.81c0-.38-.07-.65-.2-.83-.14-.17-.35-.25-.64-.25h-.75v3h.6Z"/><path class="cls-12" d="m92.59.15h1.65v10.5h-1.65V.15Z"/><path class="cls-12" d="m95.92.15h2.52c.82,0,1.44.22,1.85.66.41.44.61,1.08.61,1.94v5.31c0,.85-.21,1.5-.61,1.94-.41.44-1.03.66-1.85.66h-2.52V.15Zm2.49,9c.27,0,.48-.08.62-.24.14-.16.22-.42.22-.78V2.67c0-.36-.07-.62-.22-.78-.15-.16-.35-.24-.62-.24h-.84v7.5h.84Z"/><path class="cls-12" d="m102.46.15h4.5v1.5h-2.85v2.77h2.27v1.5h-2.27v3.23h2.85v1.5h-4.5V.15Z"/><path class="cls-12" d="m108.72,10.12c-.41-.45-.61-1.11-.61-1.96v-.6h1.56v.72c0,.68.29,1.02.86,1.02.28,0,.49-.08.64-.25s.22-.43.22-.8c0-.44-.1-.83-.3-1.16s-.57-.74-1.11-1.21c-.68-.6-1.16-1.14-1.43-1.63-.27-.48-.4-1.03-.4-1.64,0-.83.21-1.47.63-1.93s1.03-.68,1.83-.68,1.39.23,1.79.68c.41.46.61,1.11.61,1.96v.43h-1.56v-.54c0-.36-.07-.62-.21-.79s-.34-.25-.61-.25c-.55,0-.83.33-.83,1,0,.38.1.73.31,1.06s.58.73,1.12,1.2c.69.6,1.16,1.15,1.42,1.63.26.49.39,1.06.39,1.73,0,.86-.21,1.52-.64,1.98-.43.46-1.04.69-1.85.69s-1.4-.23-1.81-.68Z"/><path class="cls-12" d="m117.27.15h1.65v4.27h1.77V.15h1.65v10.5h-1.65v-4.73h-1.77v4.73h-1.65V.15Z"/><path class="cls-12" d="m125.29.15h2.23l1.71,10.5h-1.65l-.3-2.08v.03h-1.88l-.3,2.06h-1.53l1.71-10.5Zm1.8,7.02l-.73-5.19h-.03l-.72,5.19h1.48Z"/><path class="cls-12" d="m129.63.15h1.67l1.08,8.15h.03l1.08-8.15h1.52l-1.59,10.5h-2.19l-1.59-10.5Z"/><path class="cls-12" d="m136.24.15h4.5v1.5h-2.85v2.77h2.27v1.5h-2.27v3.23h2.85v1.5h-4.5V.15Z"/><path class="cls-12" d="m144.99.15h2.49c.85,0,1.47.2,1.86.59.39.4.58,1,.58,1.82v.42c0,.54-.09.98-.26,1.32-.18.34-.44.59-.8.74v.03c.82.28,1.23,1.01,1.23,2.19v.9c0,.81-.21,1.43-.64,1.85-.42.43-1.05.64-1.87.64h-2.6V.15Zm2.29,4.27c.33,0,.58-.08.74-.25s.25-.46.25-.85v-.58c0-.38-.07-.65-.2-.83-.13-.17-.35-.25-.64-.25h-.8v2.77h.65Zm.3,4.73c.29,0,.5-.08.65-.23.14-.15.21-.42.21-.8v-.92c0-.48-.08-.81-.25-1s-.44-.28-.82-.28h-.74v3.23h.95Z"/><path class="cls-12" d="m151.5.15h4.5v1.5h-2.85v2.77h2.27v1.5h-2.27v3.23h2.85v1.5h-4.5V.15Z"/><path class="cls-12" d="m157.39.15h4.5v1.5h-2.85v2.77h2.27v1.5h-2.27v3.23h2.85v1.5h-4.5V.15Z"/><path class="cls-12" d="m163.29.15h2.07l1.6,6.29h.03V.15h1.47v10.5h-1.69l-1.98-7.67h-.03v7.67h-1.47V.15Z"/><path class="cls-12" d="m172.99.15h2.35l1.05,7.52h.03l1.05-7.52h2.35v10.5h-1.56V2.7h-.03l-1.2,7.95h-1.38l-1.2-7.95h-.03v7.95h-1.44V.15Z"/><path class="cls-12" d="m182.79.15h2.23l1.71,10.5h-1.65l-.3-2.08v.03h-1.88l-.3,2.06h-1.53l1.71-10.5Zm1.8,7.02l-.73-5.19h-.03l-.72,5.19h1.48Z"/><path class="cls-12" d="m187.98.15h2.52c.82,0,1.44.22,1.85.66s.62,1.08.62,1.94v5.31c0,.85-.21,1.5-.62,1.94-.41.44-1.02.66-1.85.66h-2.52V.15Zm2.49,9c.27,0,.48-.08.62-.24.15-.16.22-.42.22-.78V2.67c0-.36-.07-.62-.22-.78-.15-.16-.35-.24-.62-.24h-.84v7.5h.84Z"/><path class="cls-12" d="m194.52.15h4.5v1.5h-2.85v2.77h2.26v1.5h-2.26v3.23h2.85v1.5h-4.5V.15Z"/><path class="cls-12" d="m204.55,1.65h-1.72V.15h5.1v1.5h-1.72v9h-1.65V1.65Z"/><path class="cls-12" d="m209.64,10.11c-.43-.46-.65-1.11-.65-1.95V2.64c0-.84.21-1.49.65-1.95.43-.46,1.05-.69,1.86-.69s1.43.23,1.86.69.65,1.11.65,1.95v5.52c0,.84-.21,1.49-.65,1.95s-1.05.69-1.86.69-1.43-.23-1.86-.69Zm2.71-1.84V2.53c0-.69-.29-1.03-.85-1.03s-.85.34-.85,1.03v5.73c0,.69.29,1.03.85,1.03s.85-.34.85-1.03Z"/><path class="cls-12" d="m215.17.15h1.59l.73,8.07h.03l.78-8.07h1.8l.78,8.07h.03l.73-8.07h1.42l-1.06,10.5h-2.06l-.75-7.08h-.03l-.75,7.08h-2.19l-1.06-10.5Z"/><path class="cls-12" d="m225.43.15h2.23l1.71,10.5h-1.65l-.3-2.08v.03h-1.88l-.3,2.06h-1.53l1.71-10.5Zm1.8,7.02l-.73-5.19h-.03l-.72,5.19h1.48Z"/><path class="cls-12" d="m230.62.15h2.44c.85,0,1.47.2,1.86.59.39.4.58,1,.58,1.82v.65c0,1.09-.36,1.78-1.08,2.07v.03c.4.12.68.37.85.73.17.37.25.87.25,1.48v1.85c0,.3,0,.54.03.73s.07.37.15.55h-1.68c-.06-.17-.1-.33-.12-.48s-.03-.42-.03-.81v-1.92c0-.48-.08-.81-.23-1-.16-.19-.42-.29-.8-.29h-.57v4.5h-1.65V.15Zm2.25,4.5c.33,0,.58-.08.74-.25s.25-.46.25-.85v-.81c0-.38-.07-.65-.2-.83-.13-.17-.35-.25-.64-.25h-.75v3h.6Z"/><path class="cls-12" d="m237.12.15h2.52c.82,0,1.44.22,1.85.66s.62,1.08.62,1.94v5.31c0,.85-.21,1.5-.62,1.94-.41.44-1.02.66-1.85.66h-2.52V.15Zm2.49,9c.27,0,.48-.08.62-.24.15-.16.22-.42.22-.78V2.67c0-.36-.07-.62-.22-.78-.15-.16-.35-.24-.62-.24h-.84v7.5h.84Z"/><path class="cls-12" d="m243.99,10.12c-.41-.45-.61-1.11-.61-1.96v-.6h1.56v.72c0,.68.28,1.02.85,1.02.28,0,.49-.08.64-.25s.22-.43.22-.8c0-.44-.1-.83-.3-1.16s-.57-.74-1.11-1.21c-.68-.6-1.15-1.14-1.42-1.63-.27-.48-.41-1.03-.41-1.64,0-.83.21-1.47.63-1.93.42-.46,1.03-.68,1.83-.68s1.39.23,1.79.68c.41.46.61,1.11.61,1.96v.43h-1.56v-.54c0-.36-.07-.62-.21-.79-.14-.17-.35-.25-.62-.25-.55,0-.83.33-.83,1,0,.38.1.73.31,1.06s.58.73,1.12,1.2c.69.6,1.16,1.15,1.42,1.63.26.49.39,1.06.39,1.73,0,.86-.21,1.52-.64,1.98-.42.46-1.04.69-1.85.69s-1.4-.23-1.81-.68Z"/><rect class="cls-11" x="2.71" y="77.91" width="279.18" height="275.15" rx="7.07" ry="7.07"/><rect class="cls-8" x="1.5" y="76.42" width="276.18" height="272.15" rx="5.57" ry="5.57"/><path class="cls-7" d="m272.11,77.92c2.24,0,4.07,1.83,4.07,4.07v261.01c0,2.24-1.83,4.07-4.07,4.07H7.07c-2.24,0-4.07-1.83-4.07-4.07V81.99c0-2.24,1.83-4.07,4.07-4.07h265.04m0-3H7.07c-3.9,0-7.07,3.17-7.07,7.07v261.01c0,3.9,3.17,7.07,7.07,7.07h265.04c3.9,0,7.07-3.17,7.07-7.07V81.99c0-3.9-3.17-7.07-7.07-7.07h0Z"/><line class="cls-4" x1="246.96" y1="193.13" x2="246.96" y2="193.13"/><line class="cls-3" x1="244.07" y1="193.13" x2="31.29" y2="193.13"/><line class="cls-4" x1="29.84" y1="193.13" x2="29.84" y2="193.13"/><line class="cls-4" x1="246.96" y1="271.45" x2="246.96" y2="271.45"/><line class="cls-3" x1="244.07" y1="271.45" x2="31.29" y2="271.45"/><line class="cls-4" x1="29.84" y1="271.45" x2="29.84" y2="271.45"/><polygon class="cls-10" points="40.16 240.56 40.76 250.86 42.57 250.86 41.83 240.56 40.16 240.56"/><polygon class="cls-11" points="34.05 239.7 34.05 252.57 39.14 252.57 38.39 239.7 34.05 239.7"/><path class="cls-11" d="m77.18,236.27h-.25c-.34,0-.67.12-.94.33l-7.94,6.35c-.16.12-.35.18-.54.18h0s-9.44,0-9.44,0v-1.72h8.46c-.38-1.48-1.72-2.58-3.31-2.58h-3.7c-1.64,0-3.25-.31-4.78-.92-1.32-.53-2.72-.8-4.14-.8-2.16,0-4.18.84-5.7,2.36l-1.34,1.34.61,8.6.51-.17c3.38-1.13,7.06-1.23,10.55-.53,1.37.27,2.77.41,4.17.41,4.47,0,8.79-1.61,12.17-4.54l6.58-5.7c.33-.28.52-.7.52-1.13,0-.83-.67-1.5-1.5-1.5Z"/><path class="cls-10" d="m67.01,229.25h-4.83v4.83l-13.61-13.6c-1.01-1-1.57-2.37-1.57-3.79s.57-2.78,1.57-3.79l.38-.37.08-.08c.19-.18.38-.36.58-.52l.65.64,2.81,2.81,13.93,13.87Zm-11.33-12.6l4.83,4.84,1.01-1.01c1.01-1.01,1.58-2.37,1.58-3.79s-.57-2.79-1.58-3.79l-.33-.31-.08-.09-.08-.08-.57-.52-3.47,3.46-1.3,1.29Zm-12.6,12.6h4.83v4.83l6.51-6.51-4.83-4.83-6.51,6.51Zm10.88-14.28c.7-.28,1.48-.28,2.19,0l.21-.21,3.36-3.36c-1.39-.9-3.01-1.37-4.66-1.37s-3.27.48-4.66,1.37l.54.54,3.03,3.03Z"/><g class="cls-6"><g id="line_bar"><g class="cls-2"><line class="cls-5" x1="213.16" y1="81.99" x2="-166.31" y2="305.16"/><line class="cls-5" x1="212.79" y1="74.27" x2="-166.69" y2="297.44"/><line class="cls-5" x1="212.43" y1="66.55" x2="-167.06" y2="289.72"/><line class="cls-5" x1="212.06" y1="58.83" x2="-167.44" y2="282"/><line class="cls-5" x1="211.7" y1="51.1" x2="-167.81" y2="274.28"/><line class="cls-5" x1="211.33" y1="43.38" x2="-168.18" y2="266.56"/><line class="cls-5" x1="210.96" y1="35.66" x2="-168.56" y2="258.83"/><line class="cls-5" x1="210.6" y1="27.94" x2="-168.93" y2="251.11"/><line class="cls-5" x1="210.23" y1="20.22" x2="-169.3" y2="243.39"/><line class="cls-5" x1="209.87" y1="12.49" x2="-169.68" y2="235.67"/><line class="cls-5" x1="209.5" y1="4.77" x2="-170.05" y2="227.95"/><line class="cls-5" x1="209.13" y1="-2.95" x2="-170.42" y2="220.23"/><line class="cls-5" x1="208.77" y1="-10.67" x2="-170.8" y2="212.51"/><line class="cls-5" x1="208.4" y1="-18.39" x2="-171.17" y2="204.79"/><line class="cls-5" x1="208.04" y1="-26.12" x2="-171.55" y2="197.06"/><line class="cls-5" x1="207.67" y1="-33.84" x2="-171.92" y2="189.34"/><line class="cls-5" x1="207.3" y1="-41.56" x2="-172.29" y2="181.62"/><line class="cls-5" x1="206.94" y1="-49.28" x2="-172.67" y2="173.9"/><line class="cls-5" x1="206.57" y1="-57" x2="-173.04" y2="166.18"/><line class="cls-5" x1="206.21" y1="-64.73" x2="-173.41" y2="158.46"/><line class="cls-5" x1="205.84" y1="-72.45" x2="-173.79" y2="150.74"/><line class="cls-5" x1="205.47" y1="-80.17" x2="-174.16" y2="143.01"/><line class="cls-5" x1="205.11" y1="-87.89" x2="-174.54" y2="135.29"/><line class="cls-5" x1="204.74" y1="-95.61" x2="-174.91" y2="127.57"/><line class="cls-5" x1="204.37" y1="-103.33" x2="-175.28" y2="119.85"/><line class="cls-5" x1="204.01" y1="-111.06" x2="-175.66" y2="112.13"/><line class="cls-5" x1="203.64" y1="-118.78" x2="-176.03" y2="104.41"/><line class="cls-5" x1="203.28" y1="-126.5" x2="-176.4" y2="96.69"/><line class="cls-5" x1="202.91" y1="-134.22" x2="-176.78" y2="88.97"/><line class="cls-5" x1="202.54" y1="-141.94" x2="-177.15" y2="81.24"/><line class="cls-5" x1="202.18" y1="-149.67" x2="-177.52" y2="73.52"/><line class="cls-5" x1="201.81" y1="-157.39" x2="-177.9" y2="65.8"/><line class="cls-5" x1="201.45" y1="-165.11" x2="-178.27" y2="58.08"/><line class="cls-5" x1="201.08" y1="-172.83" x2="-178.65" y2="50.36"/><line class="cls-5" x1="200.71" y1="-180.55" x2="-179.02" y2="42.64"/><line class="cls-5" x1="200.35" y1="-188.28" x2="-179.39" y2="34.92"/><line class="cls-5" x1="199.98" y1="-196" x2="-179.77" y2="27.2"/><line class="cls-5" x1="199.62" y1="-203.72" x2="-180.14" y2="19.47"/><line class="cls-5" x1="199.25" y1="-211.44" x2="-180.51" y2="11.75"/><line class="cls-5" x1="198.88" y1="-219.16" x2="-180.89" y2="4.03"/><line class="cls-5" x1="591.36" y1="81.99" x2="211.89" y2="305.16"/><line class="cls-5" x1="591" y1="74.27" x2="211.52" y2="297.44"/><line class="cls-5" x1="590.63" y1="66.55" x2="211.14" y2="289.72"/><line class="cls-5" x1="590.27" y1="58.83" x2="210.77" y2="282"/><line class="cls-5" x1="589.9" y1="51.1" x2="210.39" y2="274.28"/><line class="cls-5" x1="589.53" y1="43.38" x2="210.02" y2="266.56"/><line class="cls-5" x1="589.17" y1="35.66" x2="209.65" y2="258.83"/><line class="cls-5" x1="588.8" y1="27.94" x2="209.27" y2="251.11"/><line class="cls-5" x1="588.44" y1="20.22" x2="208.9" y2="243.39"/><line class="cls-5" x1="588.07" y1="12.49" x2="208.53" y2="235.67"/><line class="cls-5" x1="587.7" y1="4.77" x2="208.15" y2="227.95"/><line class="cls-5" x1="587.34" y1="-2.95" x2="207.78" y2="220.23"/><line class="cls-5" x1="586.97" y1="-10.67" x2="207.41" y2="212.51"/><line class="cls-5" x1="586.61" y1="-18.39" x2="207.03" y2="204.79"/><line class="cls-5" x1="586.24" y1="-26.12" x2="206.66" y2="197.06"/><line class="cls-5" x1="585.87" y1="-33.84" x2="206.28" y2="189.34"/><line class="cls-5" x1="585.51" y1="-41.56" x2="205.91" y2="181.62"/><line class="cls-5" x1="585.14" y1="-49.28" x2="205.54" y2="173.9"/><line class="cls-5" x1="584.78" y1="-57" x2="205.16" y2="166.18"/><line class="cls-5" x1="584.41" y1="-64.73" x2="204.79" y2="158.46"/><line class="cls-5" x1="584.04" y1="-72.45" x2="204.42" y2="150.74"/><line class="cls-5" x1="583.68" y1="-80.17" x2="204.04" y2="143.01"/><line class="cls-5" x1="583.31" y1="-87.89" x2="203.67" y2="135.29"/><line class="cls-5" x1="582.94" y1="-95.61" x2="203.3" y2="127.57"/><line class="cls-5" x1="582.58" y1="-103.33" x2="202.92" y2="119.85"/><line class="cls-5" x1="582.21" y1="-111.06" x2="202.55" y2="112.13"/><line class="cls-5" x1="581.85" y1="-118.78" x2="202.17" y2="104.41"/><line class="cls-5" x1="581.48" y1="-126.5" x2="201.8" y2="96.69"/><line class="cls-5" x1="581.11" y1="-134.22" x2="201.43" y2="88.97"/><line class="cls-5" x1="580.75" y1="-141.94" x2="201.05" y2="81.24"/><line class="cls-5" x1="580.38" y1="-149.67" x2="200.68" y2="73.52"/><line class="cls-5" x1="580.02" y1="-157.39" x2="200.31" y2="65.8"/><line class="cls-5" x1="579.65" y1="-165.11" x2="199.93" y2="58.08"/><line class="cls-5" x1="579.28" y1="-172.83" x2="199.56" y2="50.36"/><line class="cls-5" x1="578.92" y1="-180.55" x2="199.18" y2="42.64"/><line class="cls-5" x1="578.55" y1="-188.28" x2="198.81" y2="34.92"/><line class="cls-5" x1="578.19" y1="-196" x2="198.44" y2="27.2"/><line class="cls-5" x1="577.82" y1="-203.72" x2="198.06" y2="19.47"/><line class="cls-5" x1="577.45" y1="-211.44" x2="197.69" y2="11.75"/><line class="cls-5" x1="577.09" y1="-219.16" x2="197.32" y2="4.03"/></g></g></g><path class="cls-8" d="m148.31,62.58c-3.25-1.77-6.2-3.85-8.98-6.09-2.78,2.24-5.73,4.32-8.98,6.09-3.34,1.82-7,3.31-11.11,4.32-3.02,31.37,17.77,36.43,20.09,36.9h0c2.32-.47,23.11-5.54,20.09-36.9-4.11-1.01-7.77-2.5-11.11-4.32Zm1.99,20.81c0,.68-.55,1.23-1.23,1.23h-5.4v5.4c0,.68-.55,1.23-1.23,1.23h-6.21c-.68,0-1.23-.55-1.23-1.23v-5.4h-5.4c-.68,0-1.23-.55-1.23-1.23v-6.21c0-.68.55-1.23,1.23-1.23h5.4v-5.4c0-.68.55-1.23,1.23-1.23h6.21c.68,0,1.23.55,1.23,1.23v5.4h5.4c.68,0,1.23.55,1.23,1.23v6.21Z"/><path class="cls-12" d="m149.07,75.94h-5.4v-5.4c0-.68-.55-1.23-1.23-1.23h-6.21c-.68,0-1.23.55-1.23,1.23v5.4h-5.4c-.68,0-1.23.55-1.23,1.23v6.21c0,.68.55,1.23,1.23,1.23h5.4v5.4c0,.68.55,1.23,1.23,1.23h6.21c.68,0,1.23-.55,1.23-1.23v-5.4h5.4c.68,0,1.23-.55,1.23-1.23v-6.21c0-.68-.55-1.23-1.23-1.23Z"/><path class="cls-12" d="m161.78,65.77c-.06-.56-.48-.99-1-1.08-4.21-.95-7.92-2.44-11.29-4.27-3.4-1.85-6.47-4.07-9.38-6.46-.47-.38-1.13-.37-1.58.01-2.9,2.39-5.96,4.6-9.36,6.45-3.38,1.84-7.11,3.33-11.34,4.28-.53.12-.9.56-.95,1.07-3.95,36.28,22.17,40.48,22.24,40.49.15.03.3.02.44,0,.71-.12,26.12-4.67,22.22-40.49h0Zm-22.45,38.03h0c-2.32-.47-23.11-5.53-20.09-36.9,4.11-1.01,7.77-2.5,11.11-4.32,3.25-1.77,6.2-3.85,8.98-6.09,2.78,2.24,5.73,4.32,8.98,6.09,3.34,1.82,6.99,3.31,11.11,4.32,3.02,31.36-17.77,36.43-20.09,36.9Z"/><rect class="cls-9" x="169.34" y="140.71" width="63.86" height="11.25"/><rect class="cls-9" x="186.09" y="210.81" width="29.31" height="11.25"/><rect class="cls-9" x="100.59" y="153.85" width="84.62" height="11.25"/><path class="cls-10" d="m103.25,149.64c-.28-.3-.42-.72-.42-1.27v-3.76c0-.55.14-.97.42-1.27.28-.3.68-.45,1.21-.45s.93.15,1.21.45c.28.3.42.72.42,1.27v.74h-1.04v-.81c0-.43-.18-.65-.55-.65s-.55.22-.55.65v3.91c0,.43.18.64.55.64s.55-.21.55-.64v-1.07h1.04v.99c0,.55-.14.97-.42,1.27-.28.3-.68.45-1.21.45s-.93-.15-1.21-.45Z"/><path class="cls-10" d="m107.21,149.63c-.29-.31-.43-.74-.43-1.3v-3.68c0-.56.14-.99.43-1.3s.7-.46,1.24-.46.95.15,1.24.46.43.74.43,1.3v3.68c0,.56-.14.99-.43,1.3s-.7.46-1.24.46-.95-.15-1.24-.46Zm1.81-1.23v-3.82c0-.46-.19-.69-.57-.69s-.57.23-.57.69v3.82c0,.46.19.69.57.69s.57-.23.57-.69Z"/><path class="cls-10" d="m111.34,149.63c-.28-.3-.42-.74-.42-1.31v-5.34h1.1v5.42c0,.24.05.41.15.52.1.11.23.16.42.16s.32-.05.42-.16c.1-.11.15-.28.15-.52v-5.42h1.06v5.34c0,.57-.14,1-.42,1.31-.28.3-.69.46-1.22.46s-.94-.15-1.22-.46Z"/><path class="cls-10" d="m115.08,142.99h1.38l1.07,4.19h.02v-4.19h.98v7h-1.13l-1.32-5.11h-.02v5.11h-.98v-7Z"/><path class="cls-10" d="m120.31,143.99h-1.15v-1h3.4v1h-1.15v6h-1.1v-6Z"/><path class="cls-10" d="m123.19,142.99h1.63c.57,0,.98.13,1.24.4.26.26.39.67.39,1.21v.43c0,.73-.24,1.19-.72,1.38v.02c.27.08.46.24.56.49s.17.58.17.99v1.23c0,.2,0,.36.02.48.01.12.05.25.1.37h-1.12c-.04-.11-.07-.22-.08-.32-.01-.1-.02-.28-.02-.54v-1.28c0-.32-.05-.54-.15-.67-.1-.13-.28-.19-.54-.19h-.38v3h-1.1v-7Zm1.5,3c.22,0,.38-.06.5-.17.11-.11.17-.3.17-.57v-.54c0-.25-.05-.44-.14-.55s-.23-.17-.42-.17h-.5v2h.4Z"/><path class="cls-10" d="m127.32,142.99h1.1v7h-1.1v-7Z"/><path class="cls-10" d="m129.34,142.99h3v1h-1.9v1.85h1.51v1h-1.51v2.15h1.9v1h-3v-7Z"/><path class="cls-10" d="m133.31,149.63c-.27-.3-.41-.74-.41-1.31v-.4h1.04v.48c0,.45.19.68.57.68.19,0,.33-.06.42-.17s.15-.29.15-.54c0-.29-.07-.55-.2-.77-.13-.22-.38-.49-.74-.81-.45-.4-.77-.76-.95-1.08-.18-.32-.27-.69-.27-1.09,0-.55.14-.98.42-1.29.28-.3.69-.46,1.22-.46s.93.15,1.2.46.4.74.4,1.31v.29h-1.04v-.36c0-.24-.05-.42-.14-.52-.09-.11-.23-.17-.41-.17-.37,0-.55.22-.55.67,0,.25.07.49.2.71.14.22.39.49.75.8.46.4.78.76.95,1.09s.26.71.26,1.15c0,.57-.14,1.01-.42,1.32-.28.31-.7.46-1.23.46s-.94-.15-1.21-.46Z"/><path class="cls-10" d="m138.96,149.63c-.29-.31-.43-.74-.43-1.3v-3.68c0-.56.14-.99.43-1.3s.7-.46,1.24-.46.95.15,1.24.46.43.74.43,1.3v3.68c0,.56-.14.99-.43,1.3s-.7.46-1.24.46-.95-.15-1.24-.46Zm1.81-1.23v-3.82c0-.46-.19-.69-.57-.69s-.57.23-.57.69v3.82c0,.46.19.69.57.69s.57-.23.57-.69Z"/><path class="cls-10" d="m142.71,142.99h1.63c.57,0,.98.13,1.24.4.26.26.39.67.39,1.21v.43c0,.73-.24,1.19-.72,1.38v.02c.27.08.46.24.56.49s.17.58.17.99v1.23c0,.2,0,.36.02.48.01.12.05.25.1.37h-1.12c-.04-.11-.07-.22-.08-.32-.01-.1-.02-.28-.02-.54v-1.28c0-.32-.05-.54-.15-.67-.1-.13-.28-.19-.54-.19h-.38v3h-1.1v-7Zm1.5,3c.22,0,.38-.06.5-.17.11-.11.17-.3.17-.57v-.54c0-.25-.05-.44-.14-.55s-.23-.17-.42-.17h-.5v2h.4Z"/><path class="cls-10" d="m149.39,142.99h1.49l1.14,7h-1.1l-.2-1.39v.02h-1.25l-.2,1.37h-1.02l1.14-7Zm1.2,4.68l-.49-3.46h-.02l-.48,3.46h.99Z"/><path class="cls-10" d="m152.65,142.99h1.63c.57,0,.98.13,1.24.4.26.26.39.67.39,1.21v.43c0,.73-.24,1.19-.72,1.38v.02c.27.08.46.24.56.49s.17.58.17.99v1.23c0,.2,0,.36.02.48.01.12.05.25.1.37h-1.12c-.04-.11-.07-.22-.08-.32-.01-.1-.02-.28-.02-.54v-1.28c0-.32-.05-.54-.15-.67-.1-.13-.28-.19-.54-.19h-.38v3h-1.1v-7Zm1.5,3c.22,0,.38-.06.5-.17.11-.11.17-.3.17-.57v-.54c0-.25-.05-.44-.14-.55s-.23-.17-.42-.17h-.5v2h.4Z"/><path class="cls-10" d="m156.78,142.99h3v1h-1.9v1.85h1.51v1h-1.51v2.15h1.9v1h-3v-7Z"/><path class="cls-10" d="m161.36,142.99h1.49l1.14,7h-1.1l-.2-1.39v.02h-1.25l-.2,1.37h-1.02l1.14-7Zm1.2,4.68l-.49-3.46h-.02l-.48,3.46h.99Z"/><path class="cls-10" d="m164.81,149.63c-.27-.3-.41-.74-.41-1.31v-.4h1.04v.48c0,.45.19.68.57.68.19,0,.33-.06.42-.17s.15-.29.15-.54c0-.29-.07-.55-.2-.77-.13-.22-.38-.49-.74-.81-.45-.4-.77-.76-.95-1.08-.18-.32-.27-.69-.27-1.09,0-.55.14-.98.42-1.29.28-.3.69-.46,1.22-.46s.93.15,1.2.46.4.74.4,1.31v.29h-1.04v-.36c0-.24-.05-.42-.14-.52-.09-.11-.23-.17-.41-.17-.37,0-.55.22-.55.67,0,.25.07.49.2.71.14.22.39.49.75.8.46.4.78.76.95,1.09s.26.71.26,1.15c0,.57-.14,1.01-.42,1.32-.28.31-.7.46-1.23.46s-.94-.15-1.21-.46Z"/><path class="cls-11" d="m171.81,142.99h1.1v2.85h1.18v-2.85h1.1v7h-1.1v-3.15h-1.18v3.15h-1.1v-7Z"/><path class="cls-11" d="m176.96,142.99h1.49l1.14,7h-1.1l-.2-1.39v.02h-1.25l-.2,1.37h-1.02l1.14-7Zm1.2,4.68l-.49-3.46h-.02l-.48,3.46h.99Z"/><path class="cls-11" d="m179.65,142.99h1.11l.72,5.43h.02l.72-5.43h1.01l-1.06,7h-1.46l-1.06-7Z"/><path class="cls-11" d="m183.86,142.99h3v1h-1.9v1.85h1.51v1h-1.51v2.15h1.9v1h-3v-7Z"/><path class="cls-11" d="m190.14,142.99h1.49l1.14,7h-1.1l-.2-1.39v.02h-1.25l-.2,1.37h-1.02l1.14-7Zm1.2,4.68l-.49-3.46h-.02l-.48,3.46h.99Z"/><path class="cls-11" d="m193.4,142.99h1.1v6h1.81v1h-2.91v-7Z"/><path class="cls-11" d="m196.94,142.99h1.63c.57,0,.98.13,1.24.4.26.26.39.67.39,1.21v.43c0,.73-.24,1.19-.72,1.38v.02c.27.08.46.24.56.49s.17.58.17.99v1.23c0,.2,0,.36.02.48.01.12.05.25.1.37h-1.12c-.04-.11-.07-.22-.08-.32-.01-.1-.02-.28-.02-.54v-1.28c0-.32-.05-.54-.15-.67-.1-.13-.28-.19-.54-.19h-.38v3h-1.1v-7Zm1.5,3c.22,0,.38-.06.5-.17.11-.11.17-.3.17-.57v-.54c0-.25-.05-.44-.14-.55s-.23-.17-.42-.17h-.5v2h.4Z"/><path class="cls-11" d="m201.07,142.99h3v1h-1.9v1.85h1.51v1h-1.51v2.15h1.9v1h-3v-7Z"/><path class="cls-11" d="m205.65,142.99h1.49l1.14,7h-1.1l-.2-1.39v.02h-1.25l-.2,1.37h-1.02l1.14-7Zm1.2,4.68l-.49-3.46h-.02l-.48,3.46h.99Z"/><path class="cls-11" d="m208.91,142.99h1.68c.55,0,.96.15,1.23.44s.41.72.41,1.29v3.54c0,.57-.14,1-.41,1.29s-.68.44-1.23.44h-1.68v-7Zm1.66,6c.18,0,.32-.05.42-.16.1-.11.15-.28.15-.52v-3.64c0-.24-.05-.41-.15-.52-.1-.11-.23-.16-.42-.16h-.56v5h.56Z"/><path class="cls-11" d="m213.9,147.01l-1.33-4.02h1.17l.75,2.57h.02l.75-2.57h1.07l-1.33,4.02v2.98h-1.1v-2.98Z"/><path class="cls-11" d="m218.63,142.99h1.57l.7,5.01h.02l.7-5.01h1.57v7h-1.04v-5.3h-.02l-.8,5.3h-.92l-.8-5.3h-.02v5.3h-.96v-7Z"/><path class="cls-11" d="m224.11,142.99h3v1h-1.9v1.85h1.51v1h-1.51v2.15h1.9v1h-3v-7Z"/><path class="cls-11" d="m228.7,143.99h-1.15v-1h3.4v1h-1.15v6h-1.1v-6Z"/><path class="cls-11" d="m103.26,162.63c-.29-.31-.43-.74-.43-1.3v-3.68c0-.56.14-.99.43-1.3s.7-.46,1.24-.46.95.15,1.24.46.43.74.43,1.3v3.68c0,.56-.14.99-.43,1.3s-.7.46-1.24.46-.95-.15-1.24-.46Zm1.81-1.23v-3.82c0-.46-.19-.69-.57-.69s-.57.23-.57.69v3.82c0,.46.19.69.57.69s.57-.23.57-.69Z"/><path class="cls-11" d="m107.01,155.99h1.63c.57,0,.98.13,1.24.4.26.26.39.67.39,1.21v.43c0,.73-.24,1.19-.72,1.38v.02c.27.08.46.24.56.49.11.25.17.58.17.99v1.23c0,.2,0,.36.02.48.01.12.05.25.1.37h-1.12c-.04-.11-.07-.22-.08-.32-.01-.1-.02-.28-.02-.54v-1.28c0-.32-.05-.54-.16-.67-.1-.13-.28-.19-.54-.19h-.38v3h-1.1v-7Zm1.5,3c.22,0,.39-.06.5-.17s.17-.3.17-.57v-.54c0-.25-.04-.44-.13-.55-.09-.11-.23-.17-.43-.17h-.5v2h.4Z"/><path class="cls-11" d="m113.69,155.99h1.49l1.14,7h-1.1l-.2-1.39v.02h-1.25l-.2,1.37h-1.02l1.14-7Zm1.2,4.68l-.49-3.46h-.02l-.48,3.46h.99Z"/><path class="cls-11" d="m116.95,155.99h1.63c.57,0,.98.13,1.24.4.26.26.39.67.39,1.21v.43c0,.73-.24,1.19-.72,1.38v.02c.27.08.46.24.56.49.11.25.17.58.17.99v1.23c0,.2,0,.36.02.48.01.12.05.25.1.37h-1.12c-.04-.11-.07-.22-.08-.32-.01-.1-.02-.28-.02-.54v-1.28c0-.32-.05-.54-.16-.67-.1-.13-.28-.19-.54-.19h-.38v3h-1.1v-7Zm1.5,3c.22,0,.39-.06.5-.17s.17-.3.17-.57v-.54c0-.25-.04-.44-.13-.55-.09-.11-.23-.17-.43-.17h-.5v2h.4Z"/><path class="cls-11" d="m121.08,155.99h3v1h-1.9v1.85h1.51v1h-1.51v2.15h1.9v1h-3v-7Z"/><path class="cls-11" d="m126.86,162.63c-.29-.31-.43-.74-.43-1.3v-3.68c0-.56.14-.99.43-1.3s.7-.46,1.24-.46.95.15,1.24.46.43.74.43,1.3v3.68c0,.56-.14.99-.43,1.3s-.7.46-1.24.46-.95-.15-1.24-.46Zm1.81-1.23v-3.82c0-.46-.19-.69-.57-.69s-.57.23-.57.69v3.82c0,.46.19.69.57.69s.57-.23.57-.69Z"/><path class="cls-11" d="m130.61,155.99h1.38l1.07,4.19h.02v-4.19h.98v7h-1.13l-1.32-5.11h-.02v5.11h-.98v-7Z"/><path class="cls-11" d="m137.54,156.99h-1.15v-1h3.4v1h-1.15v6h-1.1v-6Z"/><path class="cls-11" d="m140.42,155.99h1.63c.57,0,.98.13,1.24.4.26.26.39.67.39,1.21v.43c0,.73-.24,1.19-.72,1.38v.02c.27.08.46.24.56.49s.17.58.17.99v1.23c0,.2,0,.36.02.48.01.12.05.25.1.37h-1.12c-.04-.11-.07-.22-.08-.32-.01-.1-.02-.28-.02-.54v-1.28c0-.32-.05-.54-.15-.67-.1-.13-.28-.19-.54-.19h-.38v3h-1.1v-7Zm1.5,3c.22,0,.38-.06.5-.17.11-.11.17-.3.17-.57v-.54c0-.25-.05-.44-.14-.55s-.23-.17-.42-.17h-.5v2h.4Z"/><path class="cls-11" d="m145.4,155.99h1.49l1.14,7h-1.1l-.2-1.39v.02h-1.25l-.2,1.37h-1.02l1.14-7Zm1.2,4.68l-.49-3.46h-.02l-.48,3.46h.99Z"/><path class="cls-11" d="m148.98,162.64c-.28-.3-.42-.72-.42-1.27v-3.76c0-.55.14-.97.42-1.27.28-.3.68-.45,1.21-.45s.93.15,1.21.45c.28.3.42.72.42,1.27v.74h-1.04v-.81c0-.43-.18-.65-.55-.65s-.55.22-.55.65v3.91c0,.43.18.64.55.64s.55-.21.55-.64v-1.07h1.04v.99c0,.55-.14.97-.42,1.27-.28.3-.68.45-1.21.45s-.93-.15-1.21-.45Z"/><path class="cls-11" d="m152.57,155.99h1.1v2.95l1.4-2.95h1.1l-1.31,2.57,1.33,4.43h-1.15l-.93-3.12-.44.89v2.23h-1.1v-7Z"/><path class="cls-11" d="m159.37,156.99h-1.15v-1h3.4v1h-1.15v6h-1.1v-6Z"/><path class="cls-11" d="m162.56,162.63c-.29-.31-.43-.74-.43-1.3v-3.68c0-.56.14-.99.43-1.3s.7-.46,1.24-.46.95.15,1.24.46.43.74.43,1.3v3.68c0,.56-.14.99-.43,1.3s-.7.46-1.24.46-.95-.15-1.24-.46Zm1.81-1.23v-3.82c0-.46-.19-.69-.57-.69s-.57.23-.57.69v3.82c0,.46.19.69.57.69s.57-.23.57-.69Z"/><path class="cls-11" d="m168.01,155.99h1.57l.7,5.01h.02l.7-5.01h1.57v7h-1.04v-5.3h-.02l-.8,5.3h-.92l-.8-5.3h-.02v5.3h-.96v-7Z"/><path class="cls-11" d="m173.49,155.99h3v1h-1.9v1.85h1.51v1h-1.51v2.15h1.9v1h-3v-7Z"/><path class="cls-11" d="m177.22,155.99h3v1h-1.9v1.85h1.51v1h-1.51v2.15h1.9v1h-3v-7Z"/><path class="cls-11" d="m181.81,156.99h-1.15v-1h3.4v1h-1.15v6h-1.1v-6Z"/><path class="cls-10" d="m188.95,156.99h-1.15v-1h3.4v1h-1.15v6h-1.1v-6Z"/><path class="cls-10" d="m191.83,155.99h1.1v2.85h1.18v-2.85h1.1v7h-1.1v-3.15h-1.18v3.15h-1.1v-7Z"/><path class="cls-10" d="m196.13,155.99h3v1h-1.9v1.85h1.51v1h-1.51v2.15h1.9v1h-3v-7Z"/><path class="cls-10" d="m201.94,162.63c-.28-.3-.42-.74-.42-1.31v-5.34h1.1v5.42c0,.24.05.41.15.52.1.11.24.16.42.16s.32-.05.42-.16c.1-.11.15-.28.15-.52v-5.42h1.06v5.34c0,.57-.14,1-.42,1.31-.28.3-.69.46-1.22.46s-.94-.15-1.22-.46Z"/><path class="cls-10" d="m205.68,155.99h1.38l1.07,4.19h.02v-4.19h.98v7h-1.13l-1.32-5.11h-.02v5.11h-.98v-7Z"/><path class="cls-10" d="m210.05,155.99h1.68c.55,0,.96.15,1.23.44.27.29.41.72.41,1.29v3.54c0,.57-.14,1-.41,1.29-.27.29-.68.44-1.23.44h-1.68v-7Zm1.66,6c.18,0,.32-.05.42-.16.1-.11.14-.28.14-.52v-3.64c0-.24-.05-.41-.14-.52-.1-.11-.24-.16-.42-.16h-.56v5h.56Z"/><path class="cls-10" d="m214.21,155.99h3v1h-1.9v1.85h1.51v1h-1.51v2.15h1.9v1h-3v-7Z"/><path class="cls-10" d="m217.94,155.99h1.63c.57,0,.98.13,1.24.4.26.26.39.67.39,1.21v.43c0,.73-.24,1.19-.72,1.38v.02c.27.08.46.24.56.49s.17.58.17.99v1.23c0,.2,0,.36.02.48.01.12.05.25.1.37h-1.12c-.04-.11-.07-.22-.08-.32-.01-.1-.02-.28-.02-.54v-1.28c0-.32-.05-.54-.15-.67-.1-.13-.28-.19-.54-.19h-.38v3h-1.1v-7Zm1.5,3c.22,0,.38-.06.5-.17.11-.11.17-.3.17-.57v-.54c0-.25-.05-.44-.14-.55s-.23-.17-.42-.17h-.5v2h.4Z"/><path class="cls-10" d="m221.91,158.99h2.2v1h-2.2v-1Z"/><path class="cls-10" d="m225.26,162.63c-.28-.3-.42-.74-.42-1.31v-.55h1.04v.63c0,.45.19.68.57.68s.57-.23.57-.68v-1.57c0-.46-.19-.69-.57-.69s-.57.23-.57.69v.06h-1.04l.2-3.91h2.9v1h-1.92l-.09,1.67h.02c.21-.34.52-.51.95-.51.4,0,.7.14.91.41.21.27.31.67.31,1.19v1.58c0,.57-.14,1-.42,1.31-.28.3-.69.46-1.22.46s-.94-.15-1.22-.46Z"/><path class="cls-10" d="m102.91,168.99h1.57l.7,5.01h.02l.7-5.01h1.57v7h-1.04v-5.3h-.02l-.8,5.3h-.92l-.8-5.3h-.02v5.3h-.96v-7Z"/><path class="cls-10" d="m108.74,175.63c-.29-.31-.43-.74-.43-1.3v-3.68c0-.56.14-.99.43-1.3s.7-.46,1.24-.46.95.15,1.24.46.43.74.43,1.3v3.68c0,.56-.14.99-.43,1.3s-.7.46-1.24.46-.95-.15-1.24-.46Zm1.81-1.23v-3.82c0-.46-.19-.69-.57-.69s-.57.23-.57.69v3.82c0,.46.19.69.57.69s.57-.23.57-.69Z"/><path class="cls-10" d="m112.49,168.99h1.63c.57,0,.98.13,1.24.4.26.26.39.67.39,1.21v.43c0,.73-.24,1.19-.72,1.38v.02c.27.08.46.24.56.49.11.25.17.58.17.99v1.23c0,.2,0,.36.02.48.01.12.05.25.1.37h-1.12c-.04-.11-.07-.22-.08-.32-.01-.1-.02-.28-.02-.54v-1.28c0-.32-.05-.54-.16-.67-.1-.13-.28-.19-.54-.19h-.38v3h-1.1v-7Zm1.5,3c.22,0,.39-.06.5-.17s.17-.3.17-.57v-.54c0-.25-.04-.44-.13-.55-.09-.11-.23-.17-.43-.17h-.5v2h.4Z"/><path class="cls-10" d="m117.46,169.99h-1.15v-1h3.4v1h-1.15v6h-1.1v-6Z"/><path class="cls-10" d="m120.73,168.99h1.49l1.14,7h-1.1l-.2-1.39v.02h-1.25l-.2,1.37h-1.02l1.14-7Zm1.2,4.68l-.49-3.46h-.02l-.48,3.46h.99Z"/><path class="cls-10" d="m123.99,168.99h1.1v6h1.81v1h-2.91v-7Z"/><path class="cls-10" d="m127.53,168.99h1.1v7h-1.1v-7Z"/><path class="cls-10" d="m130.41,169.99h-1.15v-1h3.4v1h-1.15v6h-1.1v-6Z"/><path class="cls-10" d="m134.34,173.01l-1.33-4.02h1.17l.75,2.57h.02l.75-2.57h1.07l-1.33,4.02v2.98h-1.1v-2.98Z"/><path class="cls-10" d="m139.93,169.99h-1.15v-1h3.4v1h-1.15v6h-1.1v-6Z"/><path class="cls-10" d="m143.2,168.99h1.49l1.14,7h-1.1l-.2-1.39v.02h-1.25l-.2,1.37h-1.02l1.14-7Zm1.2,4.68l-.49-3.46h-.02l-.48,3.46h.99Z"/><path class="cls-10" d="m146.46,168.99h1.63c.57,0,.98.13,1.24.4.26.26.39.67.39,1.21v.43c0,.73-.24,1.19-.72,1.38v.02c.27.08.46.24.56.49s.17.58.17.99v1.23c0,.2,0,.36.02.48.01.12.05.25.1.37h-1.12c-.04-.11-.07-.22-.08-.32-.01-.1-.02-.28-.02-.54v-1.28c0-.32-.05-.54-.15-.67-.1-.13-.28-.19-.54-.19h-.38v3h-1.1v-7Zm1.5,3c.22,0,.38-.06.5-.17.11-.11.17-.3.17-.57v-.54c0-.25-.05-.44-.14-.55s-.23-.17-.42-.17h-.5v2h.4Z"/><path class="cls-10" d="m150.93,175.63c-.28-.3-.42-.74-.42-1.31v-3.68c0-.57.14-1,.42-1.31.28-.3.69-.46,1.22-.46s.94.15,1.22.46c.28.3.42.74.42,1.31v.6h-1.04v-.67c0-.46-.19-.69-.57-.69s-.57.23-.57.69v3.83c0,.45.19.68.57.68s.57-.23.57-.68v-1.37h-.55v-1h1.59v2.29c0,.57-.14,1-.42,1.31-.28.3-.69.46-1.22.46s-.94-.15-1.22-.46Z"/><path class="cls-10" d="m154.6,168.99h3v1h-1.9v1.85h1.51v1h-1.51v2.15h1.9v1h-3v-7Z"/><path class="cls-10" d="m159.19,169.99h-1.15v-1h3.4v1h-1.15v6h-1.1v-6Z"/><path class="cls-11" d="m105.41,128.65h-1.72v-1.17c.47,0,.85-.04,1.13-.12s.51-.21.68-.4c.17-.19.32-.45.45-.8h1.11v10.5h-1.65v-8.01Z"/><path class="cls-11" d="m112.01,134.76h-3.15v-1.5l3-7.1h1.8v7.1h.78v1.5h-.78v1.9h-1.65v-1.9Zm0-1.5v-4.1h-.03l-1.62,4.1h1.65Z"/><path class="cls-11" d="m115.97,136.12c-.43-.46-.65-1.11-.65-1.95v-5.43c0-1.82.84-2.73,2.52-2.73.8,0,1.41.23,1.83.68s.63,1.11.63,1.96v.19h-1.56v-.3c0-.69-.29-1.03-.85-1.03-.31,0-.54.1-.69.28-.15.19-.23.53-.23,1.01v2.01h.03c.29-.61.79-.92,1.5-.92.6,0,1.05.21,1.36.62s.46,1,.46,1.78v1.88c0,.84-.21,1.49-.65,1.95-.43.46-1.05.69-1.86.69s-1.43-.23-1.86-.69Zm2.71-1.83v-1.86c0-.69-.28-1.04-.85-1.04s-.85.35-.85,1.04v1.86c0,.68.29,1.02.85,1.02s.85-.34.85-1.02Z"/><path class="cls-11" d="m124.62,136.12c-.43-.46-.65-1.11-.65-1.95v-5.52c0-.84.21-1.49.65-1.95.43-.46,1.05-.69,1.86-.69s1.43.23,1.86.69.65,1.11.65,1.95v5.52c0,.84-.21,1.49-.65,1.95s-1.05.69-1.86.69-1.43-.23-1.86-.69Zm2.71-1.84v-5.73c0-.69-.29-1.03-.85-1.03s-.85.34-.85,1.03v5.73c0,.69.29,1.03.85,1.03s.85-.34.85-1.03Z"/><path class="cls-11" d="m130.82,136.13c-.42-.45-.63-1.11-.63-1.96v-8.01h1.65v8.13c0,.36.07.62.22.78s.35.24.62.24.48-.08.62-.24.22-.42.22-.78v-8.13h1.59v8.01c0,.85-.21,1.5-.63,1.96-.42.46-1.03.68-1.83.68s-1.41-.23-1.83-.68Z"/><path class="cls-11" d="m137.72,127.66h-1.72v-1.5h5.1v1.5h-1.72v9h-1.65v-9Z"/><path class="cls-11" d="m145.11,136.12c-.43-.46-.65-1.11-.65-1.95v-5.52c0-.84.21-1.49.65-1.95.43-.46,1.05-.69,1.86-.69s1.43.23,1.86.69.65,1.11.65,1.95v5.52c0,.84-.21,1.49-.65,1.95s-1.05.69-1.86.69-1.43-.23-1.86-.69Zm2.71-1.84v-5.73c0-.69-.29-1.03-.85-1.03s-.85.34-.85,1.03v5.73c0,.69.29,1.03.85,1.03s.85-.34.85-1.03Z"/><path class="cls-11" d="m150.74,126.16h4.36v1.5h-2.71v2.92h2.13v1.5h-2.13v4.58h-1.65v-10.5Z"/><path class="cls-11" d="m158.57,135.52c0-.75.12-1.39.36-1.93.24-.54.67-1.13,1.29-1.78.61-.65,1.03-1.2,1.27-1.66s.35-.94.35-1.44c0-.45-.07-.76-.22-.94-.15-.17-.36-.26-.64-.26-.57,0-.85.34-.85,1.03v1.12h-1.56v-1.02c0-.85.21-1.5.63-1.96s1.03-.68,1.83-.68,1.41.23,1.83.68.63,1.11.63,1.96c0,.64-.15,1.27-.46,1.88s-.83,1.31-1.58,2.1c-.49.52-.82.94-.99,1.27-.17.33-.25.67-.25,1.04v.23h3.13v1.5h-4.77v-1.14Z"/><path class="cls-11" d="m165.27,136.12c-.43-.46-.65-1.11-.65-1.95v-5.52c0-.84.21-1.49.65-1.95.43-.46,1.05-.69,1.86-.69s1.43.23,1.86.69.65,1.11.65,1.95v5.52c0,.84-.21,1.49-.65,1.95s-1.05.69-1.86.69-1.43-.23-1.86-.69Zm2.71-1.84v-5.73c0-.69-.29-1.03-.85-1.03s-.85.34-.85,1.03v5.73c0,.69.29,1.03.85,1.03s.85-.34.85-1.03Z"/><path class="cls-11" d="m171.42,136.12c-.43-.46-.65-1.11-.65-1.95v-5.52c0-.84.21-1.49.65-1.95.43-.46,1.05-.69,1.86-.69s1.43.23,1.86.69.65,1.11.65,1.95v5.52c0,.84-.21,1.49-.65,1.95s-1.05.69-1.86.69-1.43-.23-1.86-.69Zm2.71-1.84v-5.73c0-.69-.29-1.03-.85-1.03s-.85.34-.85,1.03v5.73c0,.69.29,1.03.85,1.03s.85-.34.85-1.03Z"/><path class="cls-11" d="m102.89,213.14h3v1h-1.9v1.85h1.51v1h-1.51v2.15h1.9v1h-3v-7Z"/><path class="cls-11" d="m106.62,213.14h2.91v1h-1.81v1.95h1.42v1h-1.42v3.05h-1.1v-7Z"/><path class="cls-11" d="m110.16,213.14h2.91v1h-1.81v1.95h1.42v1h-1.42v3.05h-1.1v-7Z"/><path class="cls-11" d="m113.7,213.14h3v1h-1.9v1.85h1.51v1h-1.51v2.15h1.9v1h-3v-7Z"/><path class="cls-11" d="m117.78,219.79c-.28-.3-.41-.72-.41-1.27v-3.76c0-.55.14-.97.41-1.27.28-.3.68-.45,1.21-.45s.93.15,1.21.45c.28.3.42.72.42,1.27v.74h-1.04v-.81c0-.43-.18-.65-.55-.65s-.55.22-.55.65v3.91c0,.43.18.64.55.64s.55-.21.55-.64v-1.07h1.04v.99c0,.55-.14.97-.42,1.27-.28.3-.68.45-1.21.45s-.93-.15-1.21-.45Z"/><path class="cls-11" d="m122.22,214.14h-1.15v-1h3.4v1h-1.15v6h-1.1v-6Z"/><path class="cls-11" d="m125.1,213.14h1.1v7h-1.1v-7Z"/><path class="cls-11" d="m126.83,213.14h1.11l.72,5.43h.02l.72-5.43h1.01l-1.06,7h-1.46l-1.06-7Z"/><path class="cls-11" d="m131.04,213.14h3v1h-1.9v1.85h1.51v1h-1.51v2.15h1.9v1h-3v-7Z"/><path class="cls-11" d="m136.47,213.14h1.1v2.85h1.18v-2.85h1.1v7h-1.1v-3.15h-1.18v3.15h-1.1v-7Z"/><path class="cls-11" d="m140.77,213.14h1.1v7h-1.1v-7Z"/><path class="cls-11" d="m142.5,213.14h1.11l.72,5.43h.02l.72-5.43h1.01l-1.06,7h-1.46l-1.06-7Z"/><path class="cls-11" d="m149.27,214.14h-1.15v-1h3.4v1h-1.15v6h-1.1v-6Z"/><path class="cls-11" d="m152.15,213.14h1.63c.57,0,.98.13,1.24.4s.39.67.39,1.21v.43c0,.73-.24,1.19-.72,1.38v.02c.27.08.46.24.56.49.11.25.17.58.17.99v1.23c0,.2,0,.36.02.48.01.12.05.25.1.37h-1.12c-.04-.11-.07-.22-.08-.32-.01-.1-.02-.28-.02-.54v-1.28c0-.32-.05-.54-.16-.67-.1-.13-.28-.19-.54-.19h-.38v3h-1.1v-7Zm1.5,3c.22,0,.39-.06.5-.17s.17-.3.17-.57v-.54c0-.25-.05-.44-.14-.55s-.23-.17-.42-.17h-.5v2h.4Z"/><path class="cls-11" d="m156.28,213.14h3v1h-1.9v1.85h1.51v1h-1.51v2.15h1.9v1h-3v-7Z"/><path class="cls-11" d="m160.86,213.14h1.49l1.14,7h-1.1l-.2-1.39v.02h-1.25l-.2,1.37h-1.02l1.14-7Zm1.2,4.68l-.49-3.46h-.02l-.48,3.46h.99Z"/><path class="cls-11" d="m164.52,214.14h-1.15v-1h3.4v1h-1.15v6h-1.1v-6Z"/><path class="cls-11" d="m167.4,213.14h1.57l.7,5.01h.02l.7-5.01h1.57v7h-1.04v-5.3h-.02l-.8,5.3h-.92l-.8-5.3h-.02v5.3h-.96v-7Z"/><path class="cls-11" d="m172.88,213.14h3v1h-1.9v1.85h1.51v1h-1.51v2.15h1.9v1h-3v-7Z"/><path class="cls-11" d="m176.61,213.14h1.38l1.07,4.19h.02v-4.19h.98v7h-1.13l-1.32-5.11h-.02v5.11h-.98v-7Z"/><path class="cls-11" d="m181.84,214.14h-1.15v-1h3.4v1h-1.15v6h-1.1v-6Z"/><path class="cls-11" d="m188.12,213.14h1.1v2.85h1.18v-2.85h1.1v7h-1.1v-3.15h-1.18v3.15h-1.1v-7Z"/><path class="cls-11" d="m193.27,213.14h1.49l1.14,7h-1.1l-.2-1.39v.02h-1.25l-.2,1.37h-1.02l1.14-7Zm1.2,4.68l-.49-3.46h-.02l-.48,3.46h.99Z"/><path class="cls-11" d="m196.72,219.78c-.27-.3-.41-.74-.41-1.31v-.4h1.04v.48c0,.45.19.68.57.68.19,0,.33-.06.42-.17s.15-.29.15-.54c0-.29-.07-.55-.2-.77-.13-.22-.38-.49-.74-.81-.45-.4-.77-.76-.95-1.08-.18-.32-.27-.69-.27-1.09,0-.55.14-.98.42-1.29s.69-.46,1.22-.46.93.15,1.2.46.41.74.41,1.31v.29h-1.04v-.36c0-.24-.05-.42-.14-.52s-.23-.17-.41-.17c-.37,0-.55.22-.55.67,0,.25.07.49.2.71.14.22.39.49.75.8.46.4.78.76.95,1.09s.26.71.26,1.15c0,.57-.14,1.01-.42,1.32s-.7.46-1.23.46-.94-.15-1.21-.46Z"/><path class="cls-11" d="m202.37,219.79c-.28-.3-.41-.72-.41-1.27v-3.76c0-.55.14-.97.41-1.27.28-.3.68-.45,1.21-.45s.93.15,1.21.45c.28.3.42.72.42,1.27v.74h-1.04v-.81c0-.43-.18-.65-.55-.65s-.55.22-.55.65v3.91c0,.43.18.64.55.64s.55-.21.55-.64v-1.07h1.04v.99c0,.55-.14.97-.42,1.27-.28.3-.68.45-1.21.45s-.93-.15-1.21-.45Z"/><path class="cls-11" d="m206.33,219.78c-.28-.3-.42-.74-.42-1.31v-5.34h1.1v5.42c0,.24.05.41.15.52.1.11.23.16.42.16s.32-.05.42-.16c.1-.11.14-.28.14-.52v-5.42h1.06v5.34c0,.57-.14,1-.42,1.31s-.69.46-1.22.46-.94-.15-1.22-.46Z"/><path class="cls-11" d="m210.93,214.14h-1.15v-1h3.4v1h-1.15v6h-1.1v-6Z"/><path class="cls-10" d="m103.23,232.78c-.28-.3-.42-.74-.42-1.31v-3.68c0-.57.14-1,.42-1.31s.69-.46,1.22-.46.94.15,1.22.46.42.74.42,1.31v.6h-1.04v-.67c0-.46-.19-.69-.57-.69s-.57.23-.57.69v3.83c0,.45.19.68.57.68s.57-.23.57-.68v-1.37h-.55v-1h1.59v2.29c0,.57-.14,1-.42,1.31s-.69.46-1.22.46-.94-.15-1.22-.46Z"/><path class="cls-10" d="m106.9,226.14h1.1v6h1.81v1h-2.91v-7Z"/><path class="cls-10" d="m110.75,232.78c-.29-.31-.43-.74-.43-1.3v-3.68c0-.56.14-.99.43-1.3s.7-.46,1.24-.46.95.15,1.24.46.43.74.43,1.3v3.68c0,.56-.14.99-.43,1.3s-.7.46-1.24.46-.95-.15-1.24-.46Zm1.81-1.23v-3.82c0-.46-.19-.69-.57-.69s-.57.23-.57.69v3.82c0,.46.19.69.57.69s.57-.23.57-.69Z"/><path class="cls-10" d="m114.5,226.14h1.66c.57,0,.98.13,1.24.4.26.26.39.67.39,1.21v.28c0,.36-.06.65-.17.88-.12.23-.29.39-.54.49v.02c.55.19.82.67.82,1.46v.6c0,.54-.14.95-.43,1.24-.28.28-.7.42-1.25.42h-1.73v-7Zm1.53,2.85c.22,0,.38-.06.5-.17.11-.11.17-.3.17-.57v-.39c0-.25-.05-.44-.14-.55-.09-.11-.23-.17-.43-.17h-.53v1.85h.43Zm.2,3.15c.19,0,.34-.05.43-.15.09-.1.14-.28.14-.54v-.61c0-.32-.05-.54-.17-.67-.11-.12-.29-.19-.54-.19h-.49v2.15h.63Z"/><path class="cls-10" d="m119.49,226.14h1.49l1.14,7h-1.1l-.2-1.39v.02h-1.25l-.2,1.37h-1.02l1.14-7Zm1.2,4.68l-.49-3.46h-.02l-.48,3.46h.99Z"/><path class="cls-10" d="m122.75,226.14h1.1v6h1.81v1h-2.91v-7Z"/><path class="cls-10" d="m128.84,226.14h1.49l1.14,7h-1.1l-.2-1.39v.02h-1.25l-.2,1.37h-1.02l1.14-7Zm1.2,4.68l-.49-3.46h-.02l-.48,3.46h.99Z"/><path class="cls-10" d="m132.1,226.14h1.1v7h-1.1v-7Z"/><path class="cls-10" d="m134.12,226.14h1.68c.55,0,.96.15,1.23.44.27.29.41.72.41,1.29v3.54c0,.57-.14,1-.41,1.29-.27.29-.68.44-1.23.44h-1.68v-7Zm1.66,6c.18,0,.32-.05.42-.16.1-.11.14-.28.14-.52v-3.64c0-.24-.05-.41-.14-.52-.1-.11-.24-.16-.42-.16h-.56v5h.56Z"/><path class="cls-10" d="m138.5,232.78c-.27-.3-.41-.74-.41-1.31v-.4h1.04v.48c0,.45.19.68.57.68.19,0,.33-.06.42-.17s.14-.29.14-.54c0-.29-.07-.55-.2-.77-.13-.22-.38-.49-.74-.81-.45-.4-.77-.76-.95-1.08-.18-.32-.27-.69-.27-1.09,0-.55.14-.98.42-1.29s.69-.46,1.22-.46.92.15,1.19.46.4.74.4,1.31v.29h-1.04v-.36c0-.24-.05-.42-.14-.52-.09-.11-.23-.17-.41-.17-.37,0-.55.22-.55.67,0,.25.07.49.21.71.14.22.38.49.75.8.46.4.78.76.95,1.09s.26.71.26,1.15c0,.57-.14,1.01-.43,1.32s-.69.46-1.23.46-.94-.15-1.21-.46Z"/><path class="cls-10" d="m141.9,229.14h2.2v1h-2.2v-1Z"/><path class="cls-10" d="m144.86,226.14h1.63c.57,0,.98.13,1.24.4s.39.67.39,1.21v.43c0,.73-.24,1.19-.72,1.38v.02c.27.08.46.24.56.49.11.25.17.58.17.99v1.23c0,.2,0,.36.02.48.01.12.05.25.1.37h-1.12c-.04-.11-.07-.22-.08-.32-.01-.1-.02-.28-.02-.54v-1.28c0-.32-.05-.54-.16-.67-.1-.13-.28-.19-.54-.19h-.38v3h-1.1v-7Zm1.5,3c.22,0,.39-.06.5-.17s.17-.3.17-.57v-.54c0-.25-.05-.44-.14-.55s-.23-.17-.42-.17h-.5v2h.4Z"/><path class="cls-10" d="m148.99,226.14h3v1h-1.9v1.85h1.51v1h-1.51v2.15h1.9v1h-3v-7Z"/><path class="cls-10" d="m152.72,226.14h1.1v6h1.81v1h-2.91v-7Z"/><path class="cls-10" d="m157.15,226.14h1.49l1.14,7h-1.1l-.2-1.39v.02h-1.25l-.2,1.37h-1.02l1.14-7Zm1.2,4.68l-.49-3.46h-.02l-.48,3.46h.99Z"/><path class="cls-10" d="m160.81,227.14h-1.15v-1h3.4v1h-1.15v6h-1.1v-6Z"/><path class="cls-10" d="m163.69,226.14h3v1h-1.9v1.85h1.51v1h-1.51v2.15h1.9v1h-3v-7Z"/><path class="cls-10" d="m167.42,226.14h1.68c.55,0,.96.15,1.23.44s.41.72.41,1.29v3.54c0,.57-.14,1-.41,1.29s-.68.44-1.23.44h-1.68v-7Zm1.66,6c.18,0,.32-.05.42-.16.1-.11.14-.28.14-.52v-3.64c0-.24-.05-.41-.14-.52-.1-.11-.24-.16-.42-.16h-.56v5h.56Z"/><path class="cls-10" d="m173.28,226.14h1.68c.55,0,.96.15,1.23.44.27.29.41.72.41,1.29v3.54c0,.57-.14,1-.41,1.29-.27.29-.68.44-1.23.44h-1.68v-7Zm1.66,6c.18,0,.32-.05.42-.16.1-.11.15-.28.15-.52v-3.64c0-.24-.05-.41-.15-.52-.1-.11-.23-.16-.42-.16h-.56v5h.56Z"/><path class="cls-10" d="m177.44,226.14h3v1h-1.9v1.85h1.51v1h-1.51v2.15h1.9v1h-3v-7Z"/><path class="cls-10" d="m182.02,226.14h1.49l1.14,7h-1.1l-.2-1.39v.02h-1.25l-.2,1.37h-1.02l1.14-7Zm1.2,4.68l-.49-3.46h-.02l-.48,3.46h.99Z"/><path class="cls-10" d="m185.68,227.14h-1.15v-1h3.4v1h-1.15v6h-1.1v-6Z"/><path class="cls-10" d="m188.56,226.14h1.1v2.85h1.18v-2.85h1.1v7h-1.1v-3.15h-1.18v3.15h-1.1v-7Z"/><path class="cls-10" d="m193.08,232.78c-.27-.3-.41-.74-.41-1.31v-.4h1.04v.48c0,.45.19.68.57.68.19,0,.33-.06.42-.17s.14-.29.14-.54c0-.29-.07-.55-.2-.77-.13-.22-.38-.49-.74-.81-.45-.4-.77-.76-.95-1.08-.18-.32-.27-.69-.27-1.09,0-.55.14-.98.42-1.29s.69-.46,1.22-.46.92.15,1.19.46.4.74.4,1.31v.29h-1.04v-.36c0-.24-.05-.42-.14-.52-.09-.11-.23-.17-.41-.17-.37,0-.55.22-.55.67,0,.25.07.49.21.71.14.22.38.49.75.8.46.4.78.76.95,1.09s.26.71.26,1.15c0,.57-.14,1.01-.43,1.32s-.69.46-1.23.46-.94-.15-1.21-.46Z"/><path class="cls-10" d="m198.38,226.14h1.66c.57,0,.98.13,1.24.4.26.26.39.67.39,1.21v.28c0,.36-.06.65-.17.88-.12.23-.29.39-.54.49v.02c.55.19.82.67.82,1.46v.6c0,.54-.14.95-.43,1.24-.28.28-.7.42-1.25.42h-1.73v-7Zm1.53,2.85c.22,0,.38-.06.5-.17.11-.11.17-.3.17-.57v-.39c0-.25-.05-.44-.14-.55-.09-.11-.23-.17-.43-.17h-.53v1.85h.43Zm.2,3.15c.19,0,.34-.05.43-.15.09-.1.14-.28.14-.54v-.61c0-.32-.05-.54-.17-.67-.11-.12-.29-.19-.54-.19h-.49v2.15h.63Z"/><path class="cls-10" d="m203.37,230.16l-1.33-4.02h1.17l.75,2.57h.02l.75-2.57h1.07l-1.33,4.02v2.98h-1.1v-2.98Z"/><path class="cls-11" d="m103.68,249.71c-.42-.45-.63-1.11-.63-1.96v-.82h1.56v.94c0,.68.29,1.02.85,1.02s.85-.34.85-1.02v-2.35c0-.69-.29-1.03-.85-1.03s-.85.34-.85,1.03v.09h-1.56l.3-5.87h4.35v1.5h-2.88l-.13,2.5h.03c.31-.51.79-.76,1.42-.76.6,0,1.06.21,1.37.61.31.41.46,1,.46,1.79v2.37c0,.85-.21,1.5-.63,1.96-.42.46-1.03.68-1.83.68s-1.41-.23-1.83-.68Z"/><path class="cls-11" d="m109.22,249.11c0-.75.12-1.39.36-1.93.24-.54.67-1.13,1.29-1.78.61-.65,1.03-1.2,1.27-1.66s.35-.94.35-1.44c0-.45-.07-.76-.22-.94-.15-.17-.36-.26-.64-.26-.57,0-.85.34-.85,1.03v1.12h-1.56v-1.02c0-.85.21-1.5.63-1.96s1.03-.68,1.83-.68,1.41.23,1.83.68.63,1.11.63,1.96c0,.64-.15,1.27-.46,1.88s-.83,1.31-1.58,2.1c-.49.52-.82.94-.99,1.27-.17.33-.26.67-.26,1.04v.23h3.14v1.5h-4.77v-1.14Z"/><path class="cls-11" d="m115.71,245.15c-.27-.29-.41-.71-.41-1.25v-2.62c0-.54.14-.95.41-1.24s.66-.44,1.19-.44.91.15,1.18.44.41.71.41,1.24v2.62c0,.54-.14.96-.41,1.25s-.67.44-1.18.44-.92-.15-1.19-.44Zm1.72-1.17v-2.77c0-.44-.18-.66-.54-.66s-.54.22-.54.66v2.77c0,.44.18.66.54.66s.54-.22.54-.66Zm3.27-4.23h1.05l-4.06,10.5h-1.05l4.06-10.5Zm-.39,10.21c-.27-.29-.41-.71-.41-1.24v-2.62c0-.54.14-.96.41-1.25s.66-.44,1.19-.44.91.15,1.18.44.41.71.41,1.25v2.62c0,.54-.14.96-.41,1.24-.27.29-.67.44-1.18.44s-.92-.15-1.19-.44Zm1.72-1.17v-2.77c0-.44-.18-.66-.54-.66s-.54.22-.54.66v2.77c0,.44.18.66.54.66s.54-.22.54-.66Z"/><path class="cls-11" d="m127.26,249.71c-.41-.45-.61-1.11-.61-1.96v-.6h1.56v.72c0,.68.28,1.02.85,1.02.28,0,.49-.08.64-.25s.22-.43.22-.8c0-.44-.1-.83-.3-1.16s-.57-.74-1.11-1.21c-.68-.6-1.15-1.14-1.42-1.63-.27-.48-.41-1.03-.41-1.64,0-.83.21-1.47.63-1.93.42-.46,1.03-.68,1.83-.68s1.39.23,1.79.68c.41.46.61,1.11.61,1.96v.43h-1.56v-.54c0-.36-.07-.62-.21-.79-.14-.17-.35-.25-.62-.25-.55,0-.83.33-.83,1,0,.38.1.73.31,1.06s.58.73,1.12,1.2c.69.6,1.16,1.15,1.42,1.63.26.49.39,1.06.39,1.73,0,.86-.21,1.52-.64,1.98-.42.46-1.04.69-1.85.69s-1.4-.23-1.81-.68Z"/><path class="cls-11" d="m132.66,239.75h1.65v10.5h-1.65v-10.5Z"/><path class="cls-11" d="m135.69,239.75h2.07l1.6,6.29h.03v-6.29h1.47v10.5h-1.69l-1.98-7.67h-.03v7.67h-1.47v-10.5Z"/><path class="cls-11" d="m142.77,249.72c-.42-.45-.62-1.08-.62-1.91v-5.64c0-.82.21-1.46.62-1.91.42-.45,1.02-.67,1.81-.67s1.39.23,1.81.67c.41.45.62,1.09.62,1.91v1.11h-1.56v-1.21c0-.65-.28-.98-.83-.98s-.82.33-.82.98v5.86c0,.64.27.96.82.96s.83-.32.83-.96v-1.6h1.56v1.48c0,.82-.21,1.46-.62,1.91-.42.45-1.02.67-1.81.67s-1.39-.23-1.81-.67Z"/><path class="cls-11" d="m148.14,239.75h4.5v1.5h-2.85v2.77h2.26v1.5h-2.26v3.23h2.85v1.5h-4.5v-10.5Z"/><path class="cls-11" d="m156.26,249.11c0-.75.12-1.39.36-1.93.24-.54.67-1.13,1.29-1.78.61-.65,1.03-1.2,1.27-1.66s.35-.94.35-1.44c0-.45-.07-.76-.22-.94-.15-.17-.36-.26-.64-.26-.57,0-.85.34-.85,1.03v1.12h-1.56v-1.02c0-.85.21-1.5.63-1.96s1.03-.68,1.83-.68,1.41.23,1.83.68.63,1.11.63,1.96c0,.64-.15,1.27-.46,1.88s-.83,1.31-1.58,2.1c-.49.52-.82.94-.99,1.27-.17.33-.25.67-.25,1.04v.23h3.13v1.5h-4.77v-1.14Z"/><path class="cls-11" d="m162.96,249.71c-.43-.46-.65-1.11-.65-1.95v-5.52c0-.84.21-1.49.65-1.95.43-.46,1.05-.69,1.86-.69s1.43.23,1.86.69.65,1.11.65,1.95v5.52c0,.84-.21,1.49-.65,1.95s-1.05.69-1.86.69-1.43-.23-1.86-.69Zm2.71-1.84v-5.73c0-.69-.29-1.03-.85-1.03s-.85.34-.85,1.03v5.73c0,.69.29,1.03.85,1.03s.85-.34.85-1.03Z"/><path class="cls-11" d="m170.9,242.24h-1.72v-1.17c.47,0,.85-.04,1.13-.12s.51-.21.68-.4c.17-.19.32-.45.45-.8h1.11v10.5h-1.65v-8.01Z"/><path class="cls-11" d="m175.26,249.71c-.43-.46-.65-1.11-.65-1.95v-5.52c0-.84.21-1.49.65-1.95.43-.46,1.05-.69,1.86-.69s1.43.23,1.86.69.65,1.11.65,1.95v5.52c0,.84-.21,1.49-.65,1.95s-1.05.69-1.86.69-1.43-.23-1.86-.69Zm2.71-1.84v-5.73c0-.69-.29-1.03-.85-1.03s-.85.34-.85,1.03v5.73c0,.69.29,1.03.85,1.03s.85-.34.85-1.03Z"/><rect class="cls-9" x="129.87" y="299.44" width="70.81" height="11.25"/><path class="cls-10" d="m103.74,288.5h1.49l1.14,7h-1.1l-.2-1.39v.02h-1.25l-.2,1.37h-1.02l1.14-7Zm1.2,4.68l-.49-3.46h-.02l-.48,3.46h.99Z"/><path class="cls-10" d="m107.4,289.5h-1.15v-1h3.4v1h-1.15v6h-1.1v-6Z"/><path class="cls-10" d="m111.98,288.5h1.1v6h1.81v1h-2.91v-7Z"/><path class="cls-10" d="m115.52,288.5h3v1h-1.9v1.85h1.51v1h-1.51v2.15h1.9v1h-3v-7Z"/><path class="cls-10" d="m120.1,288.5h1.49l1.14,7h-1.1l-.2-1.39v.02h-1.25l-.2,1.37h-1.02l1.14-7Zm1.2,4.68l-.49-3.46h-.02l-.48,3.46h.99Z"/><path class="cls-10" d="m123.55,295.15c-.27-.3-.41-.74-.41-1.31v-.4h1.04v.48c0,.45.19.68.57.68.19,0,.33-.06.42-.17s.15-.29.15-.54c0-.29-.07-.55-.2-.77-.13-.22-.38-.49-.74-.81-.45-.4-.77-.76-.95-1.08-.18-.32-.27-.69-.27-1.09,0-.55.14-.98.42-1.29.28-.3.69-.46,1.22-.46s.92.15,1.19.46.41.74.41,1.31v.29h-1.04v-.36c0-.24-.05-.42-.14-.52s-.23-.17-.41-.17c-.37,0-.55.22-.55.67,0,.25.07.49.21.71.14.22.38.49.75.8.46.4.78.76.95,1.09s.26.71.26,1.15c0,.57-.14,1.01-.43,1.32-.28.31-.69.46-1.23.46s-.94-.15-1.21-.46Z"/><path class="cls-10" d="m128.01,289.5h-1.15v-1h3.4v1h-1.15v6h-1.1v-6Z"/><path class="cls-10" d="m132.94,295.14c-.29-.31-.43-.74-.43-1.3v-3.68c0-.56.14-.99.43-1.3s.7-.46,1.24-.46.95.15,1.24.46.43.74.43,1.3v3.68c0,.56-.14.99-.43,1.3s-.7.46-1.24.46-.95-.15-1.24-.46Zm1.81-1.23v-3.82c0-.46-.19-.69-.57-.69s-.57.23-.57.69v3.82c0,.46.19.69.57.69s.57-.23.57-.69Z"/><path class="cls-10" d="m136.69,288.5h1.38l1.07,4.19h.02v-4.19h.98v7h-1.13l-1.32-5.11h-.02v5.11h-.98v-7Z"/><path class="cls-10" d="m141.06,288.5h3v1h-1.9v1.85h1.51v1h-1.51v2.15h1.9v1h-3v-7Z"/><path class="cls-10" d="m146.49,288.5h1.38l1.07,4.19h.02v-4.19h.98v7h-1.13l-1.32-5.11h-.02v5.11h-.98v-7Z"/><path class="cls-10" d="m150.86,288.5h3v1h-1.9v1.85h1.51v1h-1.51v2.15h1.9v1h-3v-7Z"/><path class="cls-10" d="m154.93,295.15c-.28-.3-.42-.74-.42-1.31v-3.68c0-.57.14-1,.42-1.31.28-.3.69-.46,1.22-.46s.94.15,1.22.46c.28.3.42.74.42,1.31v.6h-1.04v-.67c0-.46-.19-.69-.57-.69s-.57.23-.57.69v3.83c0,.45.19.68.57.68s.57-.23.57-.68v-1.37h-.55v-1h1.59v2.29c0,.57-.14,1-.42,1.31-.28.3-.69.46-1.22.46s-.94-.15-1.22-.46Z"/><path class="cls-10" d="m158.6,288.5h1.1v6h1.81v1h-2.91v-7Z"/><path class="cls-10" d="m162.14,288.5h3v1h-1.9v1.85h1.51v1h-1.51v2.15h1.9v1h-3v-7Z"/><path class="cls-10" d="m166.22,295.15c-.28-.3-.42-.72-.42-1.27v-3.76c0-.55.14-.97.42-1.27.28-.3.68-.45,1.21-.45s.93.15,1.21.45c.28.3.42.72.42,1.27v.74h-1.04v-.81c0-.43-.18-.65-.55-.65s-.55.22-.55.65v3.91c0,.43.18.64.55.64s.55-.21.55-.64v-1.07h1.04v.99c0,.55-.14.97-.42,1.27-.28.3-.68.45-1.21.45s-.93-.15-1.21-.45Z"/><path class="cls-10" d="m170.66,289.5h-1.15v-1h3.4v1h-1.15v6h-1.1v-6Z"/><path class="cls-10" d="m173.54,288.5h3v1h-1.9v1.85h1.51v1h-1.51v2.15h1.9v1h-3v-7Z"/><path class="cls-10" d="m177.27,288.5h1.68c.55,0,.96.15,1.23.44s.41.72.41,1.29v3.54c0,.57-.14,1-.41,1.29s-.68.44-1.23.44h-1.68v-7Zm1.66,6c.18,0,.32-.05.42-.16.1-.11.15-.28.15-.52v-3.64c0-.24-.05-.41-.15-.52-.1-.11-.23-.16-.42-.16h-.56v5h.56Z"/><path class="cls-10" d="m183.99,289.5h-1.15v-1h3.4v1h-1.15v6h-1.1v-6Z"/><path class="cls-10" d="m186.87,288.5h1.63c.57,0,.98.13,1.24.4.26.26.39.67.39,1.21v.43c0,.73-.24,1.19-.72,1.38v.02c.27.08.46.24.56.49.11.25.17.58.17.99v1.23c0,.2,0,.36.02.48.01.12.05.25.1.37h-1.12c-.04-.11-.07-.22-.08-.32-.01-.1-.02-.28-.02-.54v-1.28c0-.32-.05-.54-.16-.67-.1-.13-.28-.19-.54-.19h-.38v3h-1.1v-7Zm1.5,3c.22,0,.39-.06.5-.17s.17-.3.17-.57v-.54c0-.25-.04-.44-.13-.55-.09-.11-.23-.17-.43-.17h-.5v2h.4Z"/><path class="cls-10" d="m191.35,295.14c-.29-.31-.43-.74-.43-1.3v-3.68c0-.56.14-.99.43-1.3s.7-.46,1.24-.46.95.15,1.24.46.43.74.43,1.3v3.68c0,.56-.14.99-.43,1.3s-.7.46-1.24.46-.95-.15-1.24-.46Zm1.81-1.23v-3.82c0-.46-.19-.69-.57-.69s-.57.23-.57.69v3.82c0,.46.19.69.57.69s.57-.23.57-.69Z"/><path class="cls-10" d="m195.1,288.5h1.62c.55,0,.96.15,1.23.44s.41.72.41,1.29v.69c0,.57-.14,1-.41,1.29s-.68.44-1.23.44h-.52v2.85h-1.1v-7Zm1.62,3.15c.18,0,.31-.05.41-.15.09-.1.13-.27.13-.51v-.83c0-.24-.04-.41-.13-.51-.09-.1-.23-.15-.41-.15h-.52v2.15h.52Z"/><path class="cls-10" d="m199.06,288.5h1.1v7h-1.1v-7Z"/><path class="cls-10" d="m201.43,295.15c-.28-.3-.42-.72-.42-1.27v-3.76c0-.55.14-.97.42-1.27.28-.3.68-.45,1.21-.45s.93.15,1.21.45c.28.3.42.72.42,1.27v.74h-1.04v-.81c0-.43-.18-.65-.55-.65s-.55.22-.55.65v3.91c0,.43.18.64.55.64s.55-.21.55-.64v-1.07h1.04v.99c0,.55-.14.97-.42,1.27-.28.3-.68.45-1.21.45s-.93-.15-1.21-.45Z"/><path class="cls-10" d="m205.86,288.5h1.49l1.14,7h-1.1l-.2-1.39v.02h-1.25l-.2,1.37h-1.02l1.14-7Zm1.2,4.68l-.49-3.46h-.02l-.48,3.46h.99Z"/><path class="cls-10" d="m209.12,288.5h1.1v6h1.81v1h-2.91v-7Z"/><path class="cls-10" d="m102.89,301.5h1.68c.55,0,.96.15,1.23.44s.41.72.41,1.29v3.54c0,.57-.14,1-.41,1.29s-.68.44-1.23.44h-1.68v-7Zm1.66,6c.18,0,.32-.05.42-.16.1-.11.15-.28.15-.52v-3.64c0-.24-.05-.41-.15-.52-.1-.11-.23-.16-.42-.16h-.56v5h.56Z"/><path class="cls-10" d="m107.05,301.5h1.1v7h-1.1v-7Z"/><path class="cls-10" d="m109.29,308.15c-.27-.3-.41-.74-.41-1.31v-.4h1.04v.48c0,.45.19.68.57.68.19,0,.33-.06.42-.17s.15-.29.15-.54c0-.29-.07-.55-.2-.77-.13-.22-.38-.49-.74-.81-.45-.4-.77-.76-.95-1.08-.18-.32-.27-.69-.27-1.09,0-.55.14-.98.42-1.29.28-.3.69-.46,1.22-.46s.93.15,1.2.46.4.74.4,1.31v.29h-1.04v-.36c0-.24-.05-.42-.14-.52-.09-.11-.23-.17-.41-.17-.37,0-.55.22-.55.67,0,.25.07.49.2.71.14.22.39.49.75.8.46.4.78.76.95,1.09s.26.71.26,1.15c0,.57-.14,1.01-.42,1.32-.28.31-.7.46-1.23.46s-.94-.15-1.21-.46Z"/><path class="cls-10" d="m112.89,301.5h3v1h-1.9v1.85h1.51v1h-1.51v2.15h1.9v1h-3v-7Z"/><path class="cls-10" d="m117.47,301.5h1.49l1.14,7h-1.1l-.2-1.39v.02h-1.25l-.2,1.37h-1.02l1.14-7Zm1.2,4.68l-.49-3.46h-.02l-.48,3.46h.99Z"/><path class="cls-10" d="m120.92,308.15c-.27-.3-.41-.74-.41-1.31v-.4h1.04v.48c0,.45.19.68.57.68.19,0,.33-.06.42-.17s.15-.29.15-.54c0-.29-.07-.55-.2-.77-.13-.22-.38-.49-.74-.81-.45-.4-.77-.76-.95-1.08-.18-.32-.27-.69-.27-1.09,0-.55.14-.98.42-1.29.28-.3.69-.46,1.22-.46s.92.15,1.19.46.41.74.41,1.31v.29h-1.04v-.36c0-.24-.05-.42-.14-.52s-.23-.17-.41-.17c-.37,0-.55.22-.55.67,0,.25.07.49.21.71.14.22.38.49.75.8.46.4.78.76.95,1.09s.26.71.26,1.15c0,.57-.14,1.01-.43,1.32-.28.31-.69.46-1.23.46s-.94-.15-1.21-.46Z"/><path class="cls-10" d="m124.52,301.5h3v1h-1.9v1.85h1.51v1h-1.51v2.15h1.9v1h-3v-7Z"/><path class="cls-11" d="m131.65,301.5h1.1v2.85h1.18v-2.85h1.1v7h-1.1v-3.15h-1.18v3.15h-1.1v-7Z"/><path class="cls-11" d="m136.8,301.5h1.49l1.14,7h-1.1l-.2-1.39v.02h-1.25l-.2,1.37h-1.02l1.14-7Zm1.2,4.68l-.49-3.46h-.02l-.48,3.46h.99Z"/><path class="cls-11" d="m140.25,308.15c-.27-.3-.41-.74-.41-1.31v-.4h1.04v.48c0,.45.19.68.57.68.19,0,.33-.06.42-.17s.15-.29.15-.54c0-.29-.07-.55-.2-.77-.13-.22-.38-.49-.74-.81-.45-.4-.77-.76-.95-1.08-.18-.32-.27-.69-.27-1.09,0-.55.14-.98.42-1.29.28-.3.69-.46,1.22-.46s.93.15,1.2.46.4.74.4,1.31v.29h-1.04v-.36c0-.24-.05-.42-.14-.52-.09-.11-.23-.17-.41-.17-.37,0-.55.22-.55.67,0,.25.07.49.2.71.14.22.39.49.75.8.46.4.78.76.95,1.09s.26.71.26,1.15c0,.57-.14,1.01-.42,1.32-.28.31-.7.46-1.23.46s-.94-.15-1.21-.46Z"/><path class="cls-11" d="m145.55,301.5h1.66c.57,0,.98.13,1.24.4.26.26.39.67.39,1.21v.28c0,.36-.06.65-.18.88s-.29.39-.53.49v.02c.55.19.82.67.82,1.46v.6c0,.54-.14.95-.42,1.24-.28.28-.7.42-1.25.42h-1.73v-7Zm1.53,2.85c.22,0,.39-.06.5-.17s.17-.3.17-.57v-.39c0-.25-.04-.44-.13-.55-.09-.11-.23-.17-.43-.17h-.53v1.85h.43Zm.2,3.15c.19,0,.34-.05.43-.15.09-.1.14-.28.14-.54v-.61c0-.32-.05-.54-.17-.67-.11-.12-.29-.19-.54-.19h-.49v2.15h.63Z"/><path class="cls-11" d="m149.69,301.5h3v1h-1.9v1.85h1.51v1h-1.51v2.15h1.9v1h-3v-7Z"/><path class="cls-11" d="m153.42,301.5h3v1h-1.9v1.85h1.51v1h-1.51v2.15h1.9v1h-3v-7Z"/><path class="cls-11" d="m157.15,301.5h1.38l1.07,4.19h.02v-4.19h.98v7h-1.13l-1.32-5.11h-.02v5.11h-.98v-7Z"/><path class="cls-11" d="m163.22,301.5h3v1h-1.9v1.85h1.51v1h-1.51v2.15h1.9v1h-3v-7Z"/><path class="cls-11" d="m166.95,301.5h1.1v6h1.81v1h-2.91v-7Z"/><path class="cls-11" d="m170.49,301.5h1.1v7h-1.1v-7Z"/><path class="cls-11" d="m172.51,301.5h1.57l.7,5.01h.02l.7-5.01h1.57v7h-1.04v-5.3h-.02l-.8,5.3h-.92l-.8-5.3h-.02v5.3h-.96v-7Z"/><path class="cls-11" d="m177.99,301.5h1.1v7h-1.1v-7Z"/><path class="cls-11" d="m180.01,301.5h1.38l1.07,4.19h.02v-4.19h.98v7h-1.13l-1.32-5.11h-.02v5.11h-.98v-7Z"/><path class="cls-11" d="m185.23,301.5h1.49l1.14,7h-1.1l-.2-1.39v.02h-1.25l-.2,1.37h-1.02l1.14-7Zm1.2,4.68l-.49-3.46h-.02l-.48,3.46h.99Z"/><path class="cls-11" d="m188.89,302.5h-1.15v-1h3.4v1h-1.15v6h-1.1v-6Z"/><path class="cls-11" d="m191.77,301.5h3v1h-1.9v1.85h1.51v1h-1.51v2.15h1.9v1h-3v-7Z"/><path class="cls-11" d="m195.5,301.5h1.68c.55,0,.96.15,1.23.44.27.29.41.72.41,1.29v3.54c0,.57-.14,1-.41,1.29-.27.29-.68.44-1.23.44h-1.68v-7Zm1.66,6c.18,0,.32-.05.42-.16.1-.11.14-.28.14-.52v-3.64c0-.24-.05-.41-.14-.52-.1-.11-.24-.16-.42-.16h-.56v5h.56Z"/><path class="cls-10" d="m203.06,301.5h1.1v7h-1.1v-7Z"/><path class="cls-10" d="m205.08,301.5h1.38l1.07,4.19h.02v-4.19h.98v7h-1.13l-1.32-5.11h-.02v5.11h-.98v-7Z"/><path class="cls-11" d="m105.86,323.48h-3.15v-1.5l3-7.1h1.8v7.1h.78v1.5h-.78v1.9h-1.65v-1.9Zm0-1.5v-4.1h-.03l-1.62,4.1h1.65Z"/><path class="cls-11" d="m112.47,316.38h-3.33v-1.5h4.95v1.44l-2.58,9.06h-1.68l2.64-9Z"/><path class="cls-11" d="m118.47,324.86c-.42-.45-.62-1.08-.62-1.91v-5.64c0-.82.21-1.46.62-1.91.42-.45,1.02-.67,1.81-.67s1.39.23,1.81.67c.41.45.62,1.09.62,1.91v1.11h-1.56v-1.21c0-.65-.28-.98-.83-.98s-.82.33-.82.98v5.86c0,.64.27.96.82.96s.83-.32.83-.96v-1.6h1.56v1.48c0,.82-.21,1.46-.62,1.91-.42.45-1.02.67-1.81.67s-1.39-.23-1.81-.67Z"/><path class="cls-11" d="m124.4,324.84c-.43-.46-.65-1.11-.65-1.95v-5.52c0-.84.21-1.49.65-1.95.43-.46,1.05-.69,1.86-.69s1.43.23,1.86.69.65,1.11.65,1.95v5.52c0,.84-.21,1.49-.65,1.95s-1.05.69-1.86.69-1.43-.23-1.86-.69Zm2.71-1.84v-5.73c0-.69-.29-1.03-.85-1.03s-.85.34-.85,1.03v5.73c0,.69.29,1.03.85,1.03s.85-.34.85-1.03Z"/><path class="cls-11" d="m130.59,324.85c-.42-.45-.63-1.11-.63-1.96v-8.01h1.65v8.13c0,.36.07.62.22.78s.35.24.62.24.48-.08.62-.24.22-.42.22-.78v-8.13h1.59v8.01c0,.85-.21,1.5-.63,1.96-.42.46-1.03.68-1.83.68s-1.41-.23-1.83-.68Z"/><path class="cls-11" d="m136.2,314.88h2.07l1.6,6.29h.03v-6.29h1.47v10.5h-1.69l-1.98-7.67h-.03v7.67h-1.47v-10.5Z"/><path class="cls-11" d="m144.05,316.38h-1.72v-1.5h5.1v1.5h-1.72v9h-1.65v-9Z"/><path class="cls-11" d="m148.37,314.88h2.44c.85,0,1.47.2,1.86.59.39.4.58,1,.58,1.82v.65c0,1.09-.36,1.78-1.08,2.07v.03c.4.12.68.37.85.73.17.37.25.87.25,1.48v1.85c0,.3,0,.54.03.73s.07.37.15.55h-1.68c-.06-.17-.1-.33-.12-.48s-.03-.42-.03-.81v-1.92c0-.48-.08-.81-.23-1-.16-.19-.42-.29-.8-.29h-.57v4.5h-1.65v-10.5Zm2.25,4.5c.33,0,.58-.08.74-.25s.25-.46.25-.85v-.81c0-.38-.07-.65-.2-.83-.13-.17-.35-.25-.64-.25h-.75v3h.6Z"/><path class="cls-11" d="m154.56,314.88h1.65v10.5h-1.65v-10.5Z"/><path class="cls-11" d="m157.59,314.88h4.5v1.5h-2.85v2.77h2.26v1.5h-2.26v3.23h2.85v1.5h-4.5v-10.5Z"/><path class="cls-11" d="m163.55,324.85c-.41-.45-.61-1.11-.61-1.96v-.6h1.56v.72c0,.68.28,1.02.85,1.02.28,0,.49-.08.64-.25s.22-.43.22-.8c0-.44-.1-.83-.3-1.16s-.57-.74-1.11-1.21c-.68-.6-1.15-1.14-1.42-1.63-.27-.48-.41-1.03-.41-1.64,0-.83.21-1.47.63-1.93.42-.46,1.03-.68,1.83-.68s1.39.23,1.79.68c.41.46.61,1.11.61,1.96v.43h-1.56v-.54c0-.36-.07-.62-.21-.79-.14-.17-.35-.25-.62-.25-.55,0-.83.33-.83,1,0,.38.1.73.31,1.06s.58.73,1.12,1.2c.69.6,1.16,1.15,1.42,1.63.26.49.39,1.06.39,1.73,0,.86-.21,1.52-.64,1.98-.42.46-1.04.69-1.85.69s-1.4-.23-1.81-.68Z"/><path class="cls-10" d="m54.36,289.5c-10.21,0-18.53,8.16-18.53,18.19s8.31,18.19,18.53,18.19,18.53-8.16,18.53-18.19-8.31-18.19-18.53-18.19Zm0,34.71c-9.29,0-16.85-7.41-16.85-16.51s7.56-16.51,16.85-16.51,16.85,7.41,16.85,16.51-7.56,16.51-16.85,16.51Z"/><path class="cls-10" d="m69.22,307.58c-.06-.14-.23-.21-.36-.14-.88.39-1.66.49-2.39.32.03-.2.02-.4,0-.61h0c-.09-.89-.24-1.73-.45-2.53,0,0,0,0,0,0,1.04-.01,1.9-.41,2.54-1.18.1-.12.08-.29-.03-.39-.12-.1-.29-.08-.39.03-.58.69-1.32,1.01-2.28.98,0,0,0,0,0,0-.41-1.35-1-2.57-1.75-3.64,0,0,0,0,0,0,.64-.45,1.41-.51,2.33-.18.14.05.3-.02.35-.17s-.02-.3-.17-.35c-1.1-.38-2.05-.3-2.84.26,0,0,0,0,0,0-.48-.64-1.03-1.21-1.65-1.73,0,0,0,0,0,0,.54-.85,1.19-1.22,2-1.13.15.01.28-.1.3-.25h0c.02-.15-.1-.29-.24-.3-1.01-.1-1.85.34-2.5,1.33,0,0,0,0,0,0,0,0,0,0,0,0-.7-.54-1.47-1.02-2.31-1.41.62-.96,1.44-1.59,2.44-1.9.14-.04.23-.2.19-.34s-.2-.23-.35-.19c-1.15.35-2.09,1.08-2.79,2.19-.49-.21-1-.39-1.53-.55,0,0,0,0,0,0,.37-1.56.1-2.78-.82-3.63-.11-.1-.28-.09-.39.02-.1.12-.09.29.02.39.77.71.98,1.71.66,3.08,0,0,0,0,0,0-.66-.17-1.35-.31-2.08-.41-.64-.06-1.2.01-1.69.18,0,0,0,0,0,0-.41-.73-.53-1.55-.38-2.52.02-.15-.08-.29-.23-.31-.15-.03-.29.08-.32.23-.17,1.07-.03,2.01.42,2.84-.98.52-1.57,1.44-1.76,2.37,0,0,0,0,0,0-.87-.26-1.35-.91-1.5-2.05-.02-.15-.15-.26-.31-.24-.15.02-.26.16-.24.31.17,1.39.84,2.25,1.99,2.53,0,0,0,0,0,0,0,.35.05.69.16,1.03,0,0,0,0,0,0-1.22.32-2.1,1.11-2.59,2.36-.06.14.01.3.16.36.03.01.06.02.1.02h0c.11,0,.21-.06.25-.17.44-1.12,1.19-1.79,2.29-2.05.1.21.24.41.39.6.36.44.81.78,1.31.98,0,0,0,0,.01,0-.31,1.08-1.03,1.74-2.22,2.02-.15.03-.24.18-.21.33.03.13.14.21.27.21h.07c1.37-.32,2.25-1.13,2.61-2.38.25.06.5.09.76.1.43,0,.85.05,1.24.14,0,0,0,0,.01,0-.43.55-1.13,1.68-.86,3.03.03.13.14.22.27.22.02,0,.03,0,.05,0,.14-.03.24-.17.21-.32-.26-1.28.59-2.4.9-2.75,1.15.4,2.1,1.18,2.79,2.26,0,0,0,0,0,0,0,0,0,0,0,0-.56.58-1.22.76-2.01.54-.14-.04-.3.05-.34.2-.04.14.05.3.2.34.27.07.52.11.77.11.62,0,1.18-.23,1.67-.69.29.54.53,1.16.69,1.83,0,0,0,0,0,0-1.04.31-1.81.87-2.36,1.71-.08.13-.05.3.08.38.05.03.1.05.15.05h0c.09,0,.18-.04.24-.13.47-.72,1.13-1.2,2.02-1.46.04.21.08.41.1.63.02.94.46,1.82,1.2,2.41,0,0,0,0,.01,0-.69.78-1.54,1.02-2.6.73-.14-.04-.3.05-.34.19-.04.15.05.3.19.34.34.1.67.14.98.14h0c.87,0,1.61-.37,2.23-1.1.11.06.22.11.33.16.35.15.71.24,1.07.27,0,0,0,0,.01,0,0,0,0,0,0,0-.05.7-.27,1.43-.69,2.23-.07.13-.02.3.12.37.04.02.08.03.13.03.1,0,.2-.06.25-.15.46-.89.71-1.7.76-2.5,0,0,0,0,0,0,.58-.07,1.13-.3,1.61-.69,0,0,0,0,0,0,.65.58.9,1.42.78,2.56-.02.15.09.29.24.31h.03c.14,0,.26-.11.28-.25h0c.14-1.3-.17-2.3-.93-3,0,0,0,0,0,0,0,0,0,0,0,0,.42-.46.69-1.05.82-1.7.24.05.49.08.74.08h0c.61,0,1.26-.15,1.94-.45.14-.06.2-.23.14-.36Z"/><path class="cls-10" d="m53.21,319.05s.05,0,.07,0h0c.13,0,.24-.08.27-.2.03-.15-.05-.3-.2-.34-.75-.19-1.3-.75-1.54-1.05,0,0,0,0,0,0,.52-.53.9-1.18,1.12-1.9,0,0,0,0,0,0,.51.13,1.6.5,1.59,1.26,0,.15.12.28.28.28s.27-.12.28-.27c.01-1.18-1.4-1.65-2.02-1.81.04-.25.06-.5.06-.76,0-.65-.14-1.27-.38-1.83h0s0,0,0,0c.65-.46,1.44-.76,2.39-.93.15-.02.25-.17.23-.32-.02-.15-.17-.25-.32-.23-.99.17-1.85.51-2.55.98-.32-.55-.76-1.02-1.27-1.39,0,0,0,0,0,0t0,0c.58-.5.9-1.13.94-1.9h0c.01-.15-.1-.28-.26-.28-.16-.01-.28.12-.29.27-.03.65-.32,1.19-.88,1.61,0,0,0,0,0,0-.59-.32-1.25-.51-1.96-.55-.2-.93.04-1.26.26-1.42.12-.09.14-.27.04-.39-.09-.12-.27-.13-.39-.04-.48.39-.64.99-.47,1.86-.59.05-1.16.21-1.67.46,0,0,0,0,0,0,0,0,0,0,0-.01-.26-.93-.8-1.51-1.63-1.76-.14-.04-.3.04-.34.19-.05.14.04.3.19.35.67.2,1.09.69,1.29,1.51,0,0,0,0,0,.01-.88.58-1.56,1.46-1.86,2.5,0,0,0,0,0,0-1.02-.47-1.57-1.41-1.57-1.42-.08-.13-.24-.18-.38-.1-.13.08-.18.24-.1.38.03.05.67,1.17,1.93,1.7,0,0,0,0,0,0-.05.25-.07.5-.07.77,0,.15,0,.29.02.44-.75.1-1.37.64-1.88,1.67-.06.14-.01.3.13.37.04.02.08.03.12.03h0c.1,0,.2-.05.25-.16.42-.84.91-1.3,1.47-1.37,0,0,0,0,0,.01.21.99.75,1.86,1.49,2.49-.35.45-.85.68-1.55.72-.15,0-.27.14-.26.29.01.14.13.26.28.26h0s.01,0,.01,0c.86-.05,1.52-.36,1.96-.94,0,0,0,0,0,0,.34.22.71.41,1.11.54-.38.97-.27,1.96.32,2.95.05.09.14.13.24.13h0s.1-.01.14-.05c.13-.08.17-.24.1-.38-.52-.87-.61-1.7-.26-2.53,0,0,0,0,0,0,.28.06.57.09.86.09.35,0,.7-.04,1.03-.12,0,0,0,0,0,0,.21.29.67,1.02.63,1.87-.01.16.11.28.26.29h.01c.14,0,.27-.12.28-.27.04-.88-.35-1.64-.62-2.06.46-.17.88-.42,1.26-.71,0,0,0,0,0,0,.3.36.93.99,1.82,1.22Z"/><path class="cls-10" d="m46.88,299.04s.05.01.08.01h0c.12,0,.23-.08.27-.2.04-.14-.05-.3-.19-.34-2.56-.74-2.53-2.37-2.53-2.44,0-.15-.11-.28-.26-.29-.15-.01-.28.11-.29.26,0,.09-.08,2.12,2.93,2.99Z"/><path class="cls-10" d="m43.18,306.74c1.84,0,3.32-1.49,3.32-3.32s-1.49-3.32-3.32-3.32c-1.84,0-3.33,1.49-3.33,3.32s1.49,3.32,3.33,3.32Z"/><path class="cls-10" d="m42.94,309.11c.15,0,.28-.12.28-.27s-.12-.28-.27-.28c-1.82-.06-3.04.73-3.64,2.35-.05.14.02.3.16.35.03.01.06.02.1.02h0c.11,0,.22-.07.26-.19.52-1.39,1.53-2.04,3.1-1.99Z"/><path class="cls-10" d="m60.1,314.55c-1.84,0-3.33,1.49-3.33,3.34s1.49,3.33,3.33,3.33,3.34-1.49,3.34-3.33-1.5-3.34-3.34-3.34Z"/><path class="cls-10" d="m55.4,320.12c-.16.01-.28.14-.27.3.09,1.6-.7,2.43-2.49,2.62-.16.02-.27.16-.25.31.02.14.14.25.28.25h0s.02,0,.03,0c2.07-.21,3.11-1.33,3-3.21-.01-.16-.15-.28-.3-.27Z"/><path class="cls-10" d="m54.61,307.77c-1.45-2.68-4.54-2.18-4.57-2.17-.15.02-.25.17-.23.32s.17.25.32.23c.02,0,2.73-.45,3.99,1.89.05.09.14.14.24.14h0s.09-.01.14-.03c.13-.08.19-.24.11-.38Z"/><path class="cls-11" d="m54.36,330.56c-12.61,0-22.87-10.26-22.87-22.87s10.26-22.87,22.87-22.87,22.87,10.26,22.87,22.87-10.26,22.87-22.87,22.87Zm-12.64-8.22c3.53,3.05,7.99,4.72,12.64,4.72,10.68,0,19.37-8.69,19.37-19.37,0-4.66-1.67-9.12-4.72-12.64l-27.29,27.29Zm12.64-34.01c-10.68,0-19.37,8.69-19.37,19.37,0,4.41,1.52,8.69,4.29,12.13l27.21-27.21c-3.44-2.77-7.72-4.29-12.13-4.29Z"/><path class="cls-8" d="m54.36,285.57c12.2,0,22.12,9.92,22.12,22.12s-9.92,22.12-22.12,22.12-22.12-9.92-22.12-22.12,9.92-22.12,22.12-22.12m-15.13,35.36l28.36-28.36c-3.54-3.1-8.16-4.99-13.24-4.99-11.11,0-20.12,9.01-20.12,20.12,0,5.07,1.89,9.7,4.99,13.24m15.13,6.88c11.11,0,20.12-9.01,20.12-20.12,0-5.32-2.08-10.14-5.45-13.73l-28.41,28.41c3.6,3.37,8.42,5.45,13.73,5.45m0-43.74c-13.02,0-23.62,10.6-23.62,23.62s10.6,23.62,23.62,23.62,23.62-10.6,23.62-23.62-10.6-23.62-23.62-23.62h0Zm-15,34.61c-2.34-3.19-3.61-7.03-3.61-10.99,0-10.27,8.35-18.62,18.62-18.62,3.96,0,7.81,1.27,10.99,3.61l-26,26h0Zm3.47,3.6l26.13-26.13c2.61,3.29,4.03,7.33,4.03,11.53,0,10.27-8.35,18.62-18.62,18.62-4.21,0-8.25-1.42-11.53-4.03h0Z"/><path class="cls-10" d="m45.82,131.18c.18,1.11-.57,2.15-1.68,2.33-1.11.18-2.15-.57-2.33-1.68-.18-1.11.57-2.15,1.68-2.33,1.11-.18,2.15.57,2.33,1.68"/><path class="cls-10" d="m42.8,140.25h2.03c.06,0,.11-.02.15-.06l1.01-1.01c.05-.05.07-.13.06-.19l-.15-.76h-4.18l-.15.76c-.02.07,0,.14.06.19l1.02,1.01s.1.06.15.06h0Z"/><path class="cls-10" d="m41.16,134l-1.45,2.21c-.12.18-.16.41-.11.62.05.21.19.4.38.5.36.2.82.08,1.05-.27l.73-1.15v1.89h4.08v-1.83l.74,1.26c.22.37.68.5,1.06.29.19-.1.33-.28.38-.49.06-.21.02-.43-.09-.61l-1.48-2.4c-.19-.31-.52-.49-.88-.49h-.39c-.39.27-.87.43-1.39.43s-.99-.16-1.39-.43h-.41c-.35,0-.67.17-.86.46h0Z"/><path class="cls-10" d="m41.22,139.34l-.82.94c-.42.48-.49,1.18-.16,1.72l.73,1.22c.13.21.36.33.59.33.1,0,.21-.02.3-.07.16-.08.29-.22.34-.4.06-.17.05-.36-.04-.52l-.53-1.07.88-.88c-.06-.03-.13-.07-.18-.13l-1.02-1.01s-.08-.09-.11-.14h0Z"/><path class="cls-10" d="m47.59,141.24c0-.35-.13-.69-.37-.97l-.82-.93c-.03.05-.06.1-.11.14l-1.01,1.01c-.05.05-.11.1-.18.13l.88.88-.53,1.07c-.17.34-.03.75.31.92.1.05.2.07.3.07.24,0,.46-.12.59-.33l.73-1.22c.14-.23.21-.5.21-.75h0Z"/><path class="cls-11" d="m56.5,131.18c.18,1.11-.57,2.15-1.68,2.33-1.11.18-2.15-.57-2.33-1.68-.18-1.11.57-2.15,1.68-2.33,1.11-.18,2.15.57,2.33,1.68"/><path class="cls-11" d="m53.48,140.25h2.03c.06,0,.11-.02.15-.06l1.01-1.01c.05-.05.07-.13.06-.19l-.15-.76h-4.18l-.15.76c-.02.07,0,.14.06.19l1.02,1.01s.1.06.15.06h0Z"/><path class="cls-11" d="m51.85,134l-1.45,2.21c-.12.18-.16.41-.11.62.05.21.19.4.38.5.36.2.82.08,1.05-.27l.73-1.15v1.89h4.08v-1.83l.74,1.26c.22.37.68.5,1.06.29.19-.1.33-.28.38-.49.06-.21.02-.43-.09-.61l-1.48-2.4c-.19-.31-.52-.49-.88-.49h-.39c-.39.27-.87.43-1.39.43s-.99-.16-1.39-.43h-.41c-.35,0-.67.17-.86.46h0Z"/><path class="cls-11" d="m51.91,139.34l-.82.94c-.42.48-.49,1.18-.16,1.72l.73,1.22c.13.21.36.33.59.33.1,0,.21-.02.3-.07.16-.08.29-.22.34-.4.06-.17.05-.36-.04-.52l-.53-1.07.88-.88c-.06-.03-.13-.07-.18-.13l-1.02-1.01s-.08-.09-.11-.14h0Z"/><path class="cls-11" d="m58.28,141.24c0-.35-.13-.69-.37-.97l-.82-.93c-.03.05-.06.1-.11.14l-1.01,1.01c-.05.05-.11.1-.18.13l.88.88-.53,1.07c-.17.34-.03.75.31.92.1.05.2.07.3.07.24,0,.46-.12.59-.33l.73-1.22c.14-.23.21-.5.21-.75h0Z"/><path class="cls-10" d="m67.18,131.18c.18,1.11-.57,2.15-1.68,2.33-1.11.18-2.15-.57-2.33-1.68-.18-1.11.57-2.15,1.68-2.33,1.11-.18,2.15.57,2.33,1.68"/><path class="cls-10" d="m64.17,140.25h2.03c.06,0,.11-.02.15-.06l1.01-1.01c.05-.05.07-.13.06-.19l-.15-.76h-4.18l-.15.76c-.02.07,0,.14.06.19l1.02,1.01s.1.06.15.06h0Z"/><path class="cls-10" d="m62.53,134l-1.45,2.21c-.12.18-.16.41-.11.62.05.21.19.4.38.5.36.2.82.08,1.05-.27l.73-1.15v1.89h4.08v-1.83l.74,1.26c.22.37.68.5,1.06.29.19-.1.33-.28.38-.49.06-.21.02-.43-.09-.61l-1.48-2.4c-.19-.31-.52-.49-.88-.49h-.39c-.39.27-.87.43-1.39.43s-.99-.16-1.39-.43h-.41c-.35,0-.67.17-.86.46h0Z"/><path class="cls-10" d="m62.59,139.34l-.82.94c-.42.48-.49,1.18-.16,1.72l.73,1.22c.13.21.36.33.59.33.1,0,.21-.02.3-.07.16-.08.29-.22.34-.4.06-.17.05-.36-.04-.52l-.53-1.07.88-.88c-.06-.03-.13-.07-.18-.13l-1.02-1.01s-.08-.09-.11-.14h0Z"/><path class="cls-10" d="m68.96,141.24c0-.35-.13-.69-.37-.97l-.82-.93c-.03.05-.06.1-.11.14l-1.01,1.01c-.05.05-.11.1-.18.13l.88.88-.53,1.07c-.17.34-.03.75.31.92.1.05.2.07.3.07.24,0,.46-.12.59-.33l.73-1.22c.14-.23.21-.5.21-.75h0Z"/><path class="cls-11" d="m77.48,131.18c.18,1.11-.57,2.15-1.68,2.33-1.11.18-2.15-.57-2.33-1.68-.18-1.11.57-2.15,1.68-2.33,1.11-.18,2.15.57,2.33,1.68"/><path class="cls-11" d="m74.47,140.25h2.03c.06,0,.11-.02.15-.06l1.01-1.01c.05-.05.07-.13.06-.19l-.15-.76h-4.18l-.15.76c-.02.07,0,.14.06.19l1.02,1.01s.1.06.15.06h0Z"/><path class="cls-11" d="m72.83,134l-1.45,2.21c-.12.18-.16.41-.11.62.05.21.19.4.38.5.36.2.82.08,1.05-.27l.73-1.15v1.89h4.08v-1.83l.74,1.26c.22.37.68.5,1.06.29.19-.1.33-.28.38-.49.06-.21.02-.43-.09-.61l-1.48-2.4c-.19-.31-.52-.49-.88-.49h-.39c-.39.27-.87.43-1.39.43s-.99-.16-1.39-.43h-.41c-.35,0-.67.17-.86.46h0Z"/><path class="cls-11" d="m72.89,139.34l-.82.94c-.42.48-.49,1.18-.16,1.72l.73,1.22c.13.21.36.33.59.33.1,0,.21-.02.3-.07.16-.08.29-.22.34-.4.06-.17.05-.36-.04-.52l-.53-1.07.88-.88c-.06-.03-.13-.07-.18-.13l-1.02-1.01s-.08-.09-.11-.14h0Z"/><path class="cls-11" d="m79.26,141.24c0-.35-.13-.69-.37-.97l-.82-.93c-.03.05-.06.1-.11.14l-1.01,1.01c-.05.05-.11.1-.18.13l.88.88-.53,1.07c-.17.34-.03.75.31.92.1.05.2.07.3.07.24,0,.46-.12.59-.33l.73-1.22c.14-.23.21-.5.21-.75h0Z"/><path class="cls-11" d="m35.27,131.18c.18,1.11-.57,2.15-1.68,2.33-1.11.18-2.15-.57-2.33-1.68-.18-1.11.57-2.15,1.68-2.33,1.11-.18,2.15.57,2.33,1.68"/><path class="cls-11" d="m32.26,140.25h2.03c.06,0,.11-.02.15-.06l1.01-1.01c.05-.05.07-.13.06-.19l-.15-.76h-4.18l-.15.76c-.02.07,0,.14.06.19l1.02,1.01s.1.06.15.06h0Z"/><path class="cls-11" d="m30.62,134l-1.45,2.21c-.12.18-.16.41-.11.62.05.21.19.4.38.5.36.2.82.08,1.05-.27l.73-1.15v1.89h4.08v-1.83l.74,1.26c.22.37.68.5,1.06.29.19-.1.33-.28.38-.49.06-.21.02-.43-.09-.61l-1.48-2.4c-.19-.31-.52-.49-.88-.49h-.39c-.39.27-.87.43-1.39.43s-.99-.16-1.39-.43h-.41c-.35,0-.67.17-.86.46h0Z"/><path class="cls-11" d="m30.68,139.34l-.82.94c-.42.48-.49,1.18-.16,1.72l.73,1.22c.13.21.36.33.59.33.1,0,.21-.02.3-.07.16-.08.29-.22.34-.4.06-.17.05-.36-.04-.52l-.53-1.07.88-.88c-.06-.03-.13-.07-.18-.13l-1.02-1.01s-.08-.09-.11-.14h0Z"/><path class="cls-11" d="m37.05,141.24c0-.35-.13-.69-.37-.97l-.82-.93c-.03.05-.06.1-.11.14l-1.01,1.01c-.05.05-.11.1-.18.13l.88.88-.53,1.07c-.17.34-.03.75.31.92.1.05.2.07.3.07.24,0,.46-.12.59-.33l.73-1.22c.14-.23.21-.5.21-.75h0Z"/><path class="cls-10" d="m40.94,147.18c.18,1.11-.57,2.15-1.68,2.33-1.11.18-2.15-.57-2.33-1.68-.18-1.11.57-2.15,1.68-2.33,1.11-.18,2.15.57,2.33,1.68"/><path class="cls-10" d="m37.93,156.26h2.03c.06,0,.11-.02.15-.06l1.01-1.01c.05-.05.07-.13.06-.19l-.15-.76h-4.18l-.15.76c-.02.07,0,.14.06.19l1.02,1.01s.1.06.15.06h0Z"/><path class="cls-10" d="m36.29,150l-1.45,2.21c-.12.18-.16.41-.11.62.05.21.19.4.38.5.36.2.82.08,1.05-.27l.73-1.15v1.89h4.08v-1.83l.74,1.26c.22.37.68.5,1.06.29.19-.1.33-.28.38-.49.06-.21.02-.43-.09-.61l-1.48-2.4c-.19-.31-.52-.49-.88-.49h-.39c-.39.27-.87.43-1.39.43s-.99-.16-1.39-.43h-.41c-.35,0-.67.17-.86.46h0Z"/><path class="cls-10" d="m36.35,155.34l-.82.94c-.42.48-.49,1.18-.16,1.72l.73,1.22c.13.21.36.33.59.33.1,0,.21-.02.3-.07.16-.08.29-.22.34-.4.06-.17.05-.36-.04-.52l-.53-1.07.88-.88c-.06-.03-.13-.07-.18-.13l-1.02-1.01s-.08-.09-.11-.14h0Z"/><path class="cls-10" d="m42.72,157.25c0-.35-.13-.69-.37-.97l-.82-.93c-.03.05-.06.1-.11.14l-1.01,1.01c-.05.05-.11.1-.18.13l.88.88-.53,1.07c-.17.34-.03.75.31.92.1.05.2.07.3.07.24,0,.46-.12.59-.33l.73-1.22c.14-.23.21-.5.21-.75h0Z"/><path class="cls-11" d="m51.63,147.18c.18,1.11-.57,2.15-1.68,2.33-1.11.18-2.15-.57-2.33-1.68-.18-1.11.57-2.15,1.68-2.33,1.11-.18,2.15.57,2.33,1.68"/><path class="cls-11" d="m48.61,156.26h2.03c.06,0,.11-.02.15-.06l1.01-1.01c.05-.05.07-.13.06-.19l-.15-.76h-4.18l-.15.76c-.02.07,0,.14.06.19l1.02,1.01s.1.06.15.06h0Z"/><path class="cls-11" d="m46.97,150l-1.45,2.21c-.12.18-.16.41-.11.62.05.21.19.4.38.5.36.2.82.08,1.05-.27l.73-1.15v1.89h4.08v-1.83l.74,1.26c.22.37.68.5,1.06.29.19-.1.33-.28.38-.49.06-.21.02-.43-.09-.61l-1.48-2.4c-.19-.31-.52-.49-.88-.49h-.39c-.39.27-.87.43-1.39.43s-.99-.16-1.39-.43h-.41c-.35,0-.67.17-.86.46h0Z"/><path class="cls-11" d="m47.03,155.34l-.82.94c-.42.48-.49,1.18-.16,1.72l.73,1.22c.13.21.36.33.59.33.1,0,.21-.02.3-.07.16-.08.29-.22.34-.4.06-.17.05-.36-.04-.52l-.53-1.07.88-.88c-.06-.03-.13-.07-.18-.13l-1.02-1.01s-.08-.09-.11-.14h0Z"/><path class="cls-11" d="m53.41,157.25c0-.35-.13-.69-.37-.97l-.82-.93c-.03.05-.06.1-.11.14l-1.01,1.01c-.05.05-.11.1-.18.13l.88.88-.53,1.07c-.17.34-.03.75.31.92.1.05.2.07.3.07.24,0,.46-.12.59-.33l.73-1.22c.14-.23.21-.5.21-.75h0Z"/><path class="cls-10" d="m62.31,147.18c.18,1.11-.57,2.15-1.68,2.33-1.11.18-2.15-.57-2.33-1.68-.18-1.11.57-2.15,1.68-2.33,1.11-.18,2.15.57,2.33,1.68"/><path class="cls-10" d="m59.3,156.26h2.03c.06,0,.11-.02.15-.06l1.01-1.01c.05-.05.07-.13.06-.19l-.15-.76h-4.18l-.15.76c-.02.07,0,.14.06.19l1.02,1.01s.1.06.15.06h0Z"/><path class="cls-10" d="m57.66,150l-1.45,2.21c-.12.18-.16.41-.11.62.05.21.19.4.38.5.36.2.82.08,1.05-.27l.73-1.15v1.89h4.08v-1.83l.74,1.26c.22.37.68.5,1.06.29.19-.1.33-.28.38-.49.06-.21.02-.43-.09-.61l-1.48-2.4c-.19-.31-.52-.49-.88-.49h-.39c-.39.27-.87.43-1.39.43s-.99-.16-1.39-.43h-.41c-.35,0-.67.17-.86.46h0Z"/><path class="cls-10" d="m57.72,155.34l-.82.94c-.42.48-.49,1.18-.16,1.72l.73,1.22c.13.21.36.33.59.33.1,0,.21-.02.3-.07.16-.08.29-.22.34-.4.06-.17.05-.36-.04-.52l-.53-1.07.88-.88c-.06-.03-.13-.07-.18-.13l-1.02-1.01s-.08-.09-.11-.14h0Z"/><path class="cls-10" d="m64.09,157.25c0-.35-.13-.69-.37-.97l-.82-.93c-.03.05-.06.1-.11.14l-1.01,1.01c-.05.05-.11.1-.18.13l.88.88-.53,1.07c-.17.34-.03.75.31.92.1.05.2.07.3.07.24,0,.46-.12.59-.33l.73-1.22c.14-.23.21-.5.21-.75h0Z"/><path class="cls-11" d="m72.61,147.18c.18,1.11-.57,2.15-1.68,2.33-1.11.18-2.15-.57-2.33-1.68-.18-1.11.57-2.15,1.68-2.33,1.11-.18,2.15.57,2.33,1.68"/><path class="cls-11" d="m69.6,156.26h2.03c.06,0,.11-.02.15-.06l1.01-1.01c.05-.05.07-.13.06-.19l-.15-.76h-4.18l-.15.76c-.02.07,0,.14.06.19l1.02,1.01s.1.06.15.06h0Z"/><path class="cls-11" d="m67.96,150l-1.45,2.21c-.12.18-.16.41-.11.62.05.21.19.4.38.5.36.2.82.08,1.05-.27l.73-1.15v1.89h4.08v-1.83l.74,1.26c.22.37.68.5,1.06.29.19-.1.33-.28.38-.49.06-.21.02-.43-.09-.61l-1.48-2.4c-.19-.31-.52-.49-.88-.49h-.39c-.39.27-.87.43-1.39.43s-.99-.16-1.39-.43h-.41c-.35,0-.67.17-.86.46h0Z"/><path class="cls-11" d="m68.02,155.34l-.82.94c-.42.48-.49,1.18-.16,1.72l.73,1.22c.13.21.36.33.59.33.1,0,.21-.02.3-.07.16-.08.29-.22.34-.4.06-.17.05-.36-.04-.52l-.53-1.07.88-.88c-.06-.03-.13-.07-.18-.13l-1.02-1.01s-.08-.09-.11-.14h0Z"/><path class="cls-11" d="m74.39,157.25c0-.35-.13-.69-.37-.97l-.82-.93c-.03.05-.06.1-.11.14l-1.01,1.01c-.05.05-.11.1-.18.13l.88.88-.53,1.07c-.17.34-.03.75.31.92.1.05.2.07.3.07.24,0,.46-.12.59-.33l.73-1.22c.14-.23.21-.5.21-.75h0Z"/><path class="cls-10" d="m45.72,162.74c.18,1.11-.57,2.15-1.68,2.33-1.11.18-2.15-.57-2.33-1.68-.18-1.11.57-2.15,1.68-2.33,1.11-.18,2.15.57,2.33,1.68"/><path class="cls-10" d="m42.7,171.81h2.03c.06,0,.11-.02.15-.06l1.01-1.01c.05-.05.07-.13.06-.19l-.15-.76h-4.18l-.15.76c-.02.07,0,.14.06.19l1.02,1.01s.1.06.15.06h0Z"/><path class="cls-10" d="m41.06,165.55l-1.45,2.21c-.12.18-.16.41-.11.62.05.21.19.4.38.5.36.2.82.08,1.05-.27l.73-1.15v1.89h4.08v-1.83l.74,1.26c.22.37.68.5,1.06.29.19-.1.33-.28.38-.49.06-.21.02-.43-.09-.61l-1.48-2.4c-.19-.31-.52-.49-.88-.49h-.39c-.39.27-.87.43-1.39.43s-.99-.16-1.39-.43h-.41c-.35,0-.67.17-.86.46h0Z"/><path class="cls-10" d="m41.12,170.9l-.82.94c-.42.48-.49,1.18-.16,1.72l.73,1.22c.13.21.36.33.59.33.1,0,.21-.02.3-.07.16-.08.29-.22.34-.4.06-.17.05-.36-.04-.52l-.53-1.07.88-.88c-.06-.03-.13-.07-.18-.13l-1.02-1.01s-.08-.09-.11-.14h0Z"/><path class="cls-10" d="m47.5,172.8c0-.35-.13-.69-.37-.97l-.82-.93c-.03.05-.06.1-.11.14l-1.01,1.01c-.05.05-.11.1-.18.13l.88.88-.53,1.07c-.17.34-.03.75.31.92.1.05.2.07.3.07.24,0,.46-.12.59-.33l.73-1.22c.14-.23.21-.5.21-.75h0Z"/><path class="cls-11" d="m56.4,162.74c.18,1.11-.57,2.15-1.68,2.33-1.11.18-2.15-.57-2.33-1.68-.18-1.11.57-2.15,1.68-2.33,1.11-.18,2.15.57,2.33,1.68"/><path class="cls-11" d="m53.39,171.81h2.03c.06,0,.11-.02.15-.06l1.01-1.01c.05-.05.07-.13.06-.19l-.15-.76h-4.18l-.15.76c-.02.07,0,.14.06.19l1.02,1.01s.1.06.15.06h0Z"/><path class="cls-11" d="m51.75,165.55l-1.45,2.21c-.12.18-.16.41-.11.62.05.21.19.4.38.5.36.2.82.08,1.05-.27l.73-1.15v1.89h4.08v-1.83l.74,1.26c.22.37.68.5,1.06.29.19-.1.33-.28.38-.49.06-.21.02-.43-.09-.61l-1.48-2.4c-.19-.31-.52-.49-.88-.49h-.39c-.39.27-.87.43-1.39.43s-.99-.16-1.39-.43h-.41c-.35,0-.67.17-.86.46h0Z"/><path class="cls-11" d="m51.81,170.9l-.82.94c-.42.48-.49,1.18-.16,1.72l.73,1.22c.13.21.36.33.59.33.1,0,.21-.02.3-.07.16-.08.29-.22.34-.4.06-.17.05-.36-.04-.52l-.53-1.07.88-.88c-.06-.03-.13-.07-.18-.13l-1.02-1.01s-.08-.09-.11-.14h0Z"/><path class="cls-11" d="m58.18,172.8c0-.35-.13-.69-.37-.97l-.82-.93c-.03.05-.06.1-.11.14l-1.01,1.01c-.05.05-.11.1-.18.13l.88.88-.53,1.07c-.17.34-.03.75.31.92.1.05.2.07.3.07.24,0,.46-.12.59-.33l.73-1.22c.14-.23.21-.5.21-.75h0Z"/><path class="cls-10" d="m67.09,162.74c.18,1.11-.57,2.15-1.68,2.33-1.11.18-2.15-.57-2.33-1.68-.18-1.11.57-2.15,1.68-2.33,1.11-.18,2.15.57,2.33,1.68"/><path class="cls-10" d="m64.07,171.81h2.03c.06,0,.11-.02.15-.06l1.01-1.01c.05-.05.07-.13.06-.19l-.15-.76h-4.18l-.15.76c-.02.07,0,.14.06.19l1.02,1.01s.1.06.15.06h0Z"/><path class="cls-10" d="m62.43,165.55l-1.45,2.21c-.12.18-.16.41-.11.62.05.21.19.4.38.5.36.2.82.08,1.05-.27l.73-1.15v1.89h4.08v-1.83l.74,1.26c.22.37.68.5,1.06.29.19-.1.33-.28.38-.49.06-.21.02-.43-.09-.61l-1.48-2.4c-.19-.31-.52-.49-.88-.49h-.39c-.39.27-.87.43-1.39.43s-.99-.16-1.39-.43h-.41c-.35,0-.67.17-.86.46h0Z"/><path class="cls-10" d="m62.49,170.9l-.82.94c-.42.48-.49,1.18-.16,1.72l.73,1.22c.13.21.36.33.59.33.1,0,.21-.02.3-.07.16-.08.29-.22.34-.4.06-.17.05-.36-.04-.52l-.53-1.07.88-.88c-.06-.03-.13-.07-.18-.13l-1.02-1.01s-.08-.09-.11-.14h0Z"/><path class="cls-10" d="m68.87,172.8c0-.35-.13-.69-.37-.97l-.82-.93c-.03.05-.06.1-.11.14l-1.01,1.01c-.05.05-.11.1-.18.13l.88.88-.53,1.07c-.17.34-.03.75.31.92.1.05.2.07.3.07.24,0,.46-.12.59-.33l.73-1.22c.14-.23.21-.5.21-.75h0Z"/><path class="cls-11" d="m77.39,162.74c.18,1.11-.57,2.15-1.68,2.33-1.11.18-2.15-.57-2.33-1.68-.18-1.11.57-2.15,1.68-2.33,1.11-.18,2.15.57,2.33,1.68"/><path class="cls-11" d="m74.37,171.81h2.03c.06,0,.11-.02.15-.06l1.01-1.01c.05-.05.07-.13.06-.19l-.15-.76h-4.18l-.15.76c-.02.07,0,.14.06.19l1.02,1.01s.1.06.15.06h0Z"/><path class="cls-11" d="m72.73,165.55l-1.45,2.21c-.12.18-.16.41-.11.62.05.21.19.4.38.5.36.2.82.08,1.05-.27l.73-1.15v1.89h4.08v-1.83l.74,1.26c.22.37.68.5,1.06.29.19-.1.33-.28.38-.49.06-.21.02-.43-.09-.61l-1.48-2.4c-.19-.31-.52-.49-.88-.49h-.39c-.39.27-.87.43-1.39.43s-.99-.16-1.39-.43h-.41c-.35,0-.67.17-.86.46h0Z"/><path class="cls-11" d="m72.79,170.9l-.82.94c-.42.48-.49,1.18-.16,1.72l.73,1.22c.13.21.36.33.59.33.1,0,.21-.02.3-.07.16-.08.29-.22.34-.4.06-.17.05-.36-.04-.52l-.53-1.07.88-.88c-.06-.03-.13-.07-.18-.13l-1.02-1.01s-.08-.09-.11-.14h0Z"/><path class="cls-11" d="m79.17,172.8c0-.35-.13-.69-.37-.97l-.82-.93c-.03.05-.06.1-.11.14l-1.01,1.01c-.05.05-.11.1-.18.13l.88.88-.53,1.07c-.17.34-.03.75.31.92.1.05.2.07.3.07.24,0,.46-.12.59-.33l.73-1.22c.14-.23.21-.5.21-.75h0Z"/><path class="cls-11" d="m35.36,162.74c.18,1.11-.57,2.15-1.68,2.33-1.11.18-2.15-.57-2.33-1.68-.18-1.11.57-2.15,1.68-2.33,1.11-.18,2.15.57,2.33,1.68"/><path class="cls-11" d="m32.35,171.81h2.03c.06,0,.11-.02.15-.06l1.01-1.01c.05-.05.07-.13.06-.19l-.15-.76h-4.18l-.15.76c-.02.07,0,.14.06.19l1.02,1.01s.1.06.15.06h0Z"/><path class="cls-11" d="m30.71,165.55l-1.45,2.21c-.12.18-.16.41-.11.62.05.21.19.4.38.5.36.2.82.08,1.05-.27l.73-1.15v1.89h4.08v-1.83l.74,1.26c.22.37.68.5,1.06.29.19-.1.33-.28.38-.49.06-.21.02-.43-.09-.61l-1.48-2.4c-.19-.31-.52-.49-.88-.49h-.39c-.39.27-.87.43-1.39.43s-.99-.16-1.39-.43h-.41c-.35,0-.67.17-.86.46h0Z"/><path class="cls-11" d="m30.77,170.9l-.82.94c-.42.48-.49,1.18-.16,1.72l.73,1.22c.13.21.36.33.59.33.1,0,.21-.02.3-.07.16-.08.29-.22.34-.4.06-.17.05-.36-.04-.52l-.53-1.07.88-.88c-.06-.03-.13-.07-.18-.13l-1.02-1.01s-.08-.09-.11-.14h0Z"/><path class="cls-11" d="m37.14,172.8c0-.35-.13-.69-.37-.97l-.82-.93c-.03.05-.06.1-.11.14l-1.01,1.01c-.05.05-.11.1-.18.13l.88.88-.53,1.07c-.17.34-.03.75.31.92.1.05.2.07.3.07.24,0,.46-.12.59-.33l.73-1.22c.14-.23.21-.5.21-.75h0Z"/></g></svg>