<?xml version="1.0" encoding="UTF-8"?>
<svg id="Layer_2" data-name="Layer 2" xmlns="http://www.w3.org/2000/svg" xmlns:xlink="http://www.w3.org/1999/xlink" viewBox="0 0 185.41 199.85">
  <defs>
    <style>
      .cls-1 {
        stroke: #bdbcbb;
        stroke-width: .7px;
      }

      .cls-1, .cls-2, .cls-3, .cls-4 {
        fill: none;
      }

      .cls-1, .cls-4 {
        stroke-miterlimit: 10;
      }

      .cls-5 {
        fill: #fff;
      }

      .cls-6 {
        fill: #939598;
      }

      .cls-7 {
        fill: #587358;
      }

      .cls-8 {
        clip-path: url(#clippath-1);
      }

      .cls-2 {
        stroke: #c1d7bb;
        stroke-linejoin: round;
        stroke-width: 3px;
      }

      .cls-9 {
        fill: #777677;
      }

      .cls-10 {
        clip-path: url(#clippath);
      }

      .cls-4 {
        stroke: #9bc194;
        stroke-width: .75px;
      }

      .cls-11 {
        fill: #2d9a47;
      }
    </style>
    <clipPath id="clippath">
      <path class="cls-3" d="M61.91,133.75c0-.06,0-.13,0-.19,0-17.32,14.04-31.37,31.37-31.37s31.37,14.04,31.37,31.37c0,.06,0,.13,0,.19l19.49-.14s-.64-51.63-51.26-51.63-51.56,51.56-51.56,51.56l20.59,.22Z"/>
    </clipPath>
    <clipPath id="clippath-1">
      <path class="cls-3" d="M43.68,125.81c4.02-25.91,27.31-44.37,53.46-42.35,26.15,2.02,46.33,23.82,46.33,50.05h-25.1c0-13.11-10.09-24.01-23.17-25.02-13.07-1.01-24.72,8.22-26.73,21.17l-24.8-3.85Z"/>
    </clipPath>
  </defs>
  <g id="Layer_2-2" data-name="Layer 2">
    <g>
      <line class="cls-2" x1="185.41" y1="41.92" x2=".04" y2="41.92"/>
      <line class="cls-2" x1="185.41" y1="70" x2=".04" y2="70"/>
      <g>
        <g>
          <path class="cls-7" d="M36.98,26.39v-6.63c0-2.02,1.06-3.17,3.01-3.17s3.01,1.15,3.01,3.17v6.63c0,2.02-1.06,3.17-3.01,3.17s-3.01-1.15-3.01-3.17Zm4.03,.13v-6.88c0-.9-.4-1.24-1.03-1.24s-1.03,.34-1.03,1.24v6.88c0,.9,.4,1.24,1.03,1.24s1.03-.34,1.03-1.24Z"/>
          <path class="cls-7" d="M44.43,26.39v-9.61h1.98v9.76c0,.9,.38,1.22,1.01,1.22s1.01-.32,1.01-1.22v-9.76h1.91v9.61c0,2.02-1.01,3.17-2.95,3.17s-2.95-1.15-2.95-3.17Z"/>
          <path class="cls-7" d="M53.47,18.58h-2.07v-1.8h6.12v1.8h-2.07v10.8h-1.98v-10.8Z"/>
          <path class="cls-7" d="M57.05,22.18h3.96v1.8h-3.96v-1.8Z"/>
          <path class="cls-7" d="M62.24,26.39v-6.63c0-2.02,1.06-3.17,3.01-3.17s3.01,1.15,3.01,3.17v6.63c0,2.02-1.06,3.17-3.01,3.17s-3.01-1.15-3.01-3.17Zm4.03,.13v-6.88c0-.9-.4-1.24-1.03-1.24s-1.03,.34-1.03,1.24v6.88c0,.9,.4,1.24,1.03,1.24s1.03-.34,1.03-1.24Z"/>
          <path class="cls-7" d="M69.76,16.78h5.24v1.8h-3.26v3.51h2.56v1.8h-2.56v5.49h-1.98v-12.6Z"/>
          <path class="cls-7" d="M75.75,22.18h3.96v1.8h-3.96v-1.8Z"/>
          <path class="cls-7" d="M81.08,16.78h2.92c1.98,0,2.95,1.1,2.95,3.11v1.24c0,2.02-.97,3.12-2.95,3.12h-.94v5.13h-1.98v-12.6Zm2.92,5.67c.63,0,.97-.29,.97-1.19v-1.49c0-.9-.34-1.19-.97-1.19h-.94v3.87h.94Z"/>
          <path class="cls-7" d="M88.07,26.39v-6.63c0-2.02,1.06-3.17,3.01-3.17s3.01,1.15,3.01,3.17v6.63c0,2.02-1.06,3.17-3.01,3.17s-3.01-1.15-3.01-3.17Zm4.03,.13v-6.88c0-.9-.4-1.24-1.03-1.24s-1.03,.34-1.03,1.24v6.88c0,.9,.4,1.24,1.03,1.24s1.03-.34,1.03-1.24Z"/>
          <path class="cls-7" d="M95.46,26.46v-6.77c0-1.94,1.01-3.1,2.92-3.1s2.92,1.15,2.92,3.1v1.33h-1.87v-1.46c0-.83-.4-1.17-.99-1.17s-.99,.34-.99,1.17v7.04c0,.83,.4,1.15,.99,1.15s.99-.32,.99-1.15v-1.93h1.87v1.78c0,1.94-1.01,3.1-2.92,3.1s-2.92-1.15-2.92-3.1Z"/>
          <path class="cls-7" d="M102.66,16.78h1.98v5.31l2.52-5.31h1.98l-2.36,4.63,2.4,7.98h-2.07l-1.67-5.62-.79,1.6v4.02h-1.98v-12.6Z"/>
          <path class="cls-7" d="M110.3,16.78h5.4v1.8h-3.42v3.33h2.72v1.8h-2.72v3.87h3.42v1.8h-5.4v-12.6Z"/>
          <path class="cls-7" d="M118.56,18.58h-2.07v-1.8h6.12v1.8h-2.07v10.8h-1.98v-10.8Z"/>
          <path class="cls-11" d="M126.8,16.78h2.92c1.98,0,2.95,1.1,2.95,3.11v1.24c0,2.02-.97,3.12-2.95,3.12h-.94v5.13h-1.98v-12.6Zm2.92,5.67c.63,0,.97-.29,.97-1.19v-1.49c0-.9-.34-1.19-.97-1.19h-.94v3.87h.94Z"/>
          <path class="cls-11" d="M134.83,16.78h2.68l2.05,12.6h-1.98l-.36-2.5v.04h-2.25l-.36,2.47h-1.84l2.05-12.6Zm2.16,8.43l-.88-6.23h-.04l-.86,6.23h1.78Z"/>
          <path class="cls-11" d="M141.69,24.01l-2.39-7.24h2.11l1.35,4.63h.04l1.35-4.63h1.93l-2.4,7.24v5.37h-1.98v-5.37Z"/>
          <path class="cls-11" d="M147.14,16.78h2.83l1.26,9.02h.04l1.26-9.02h2.83v12.6h-1.87v-9.54h-.04l-1.44,9.54h-1.66l-1.44-9.54h-.04v9.54h-1.73v-12.6Z"/>
          <path class="cls-11" d="M157.01,16.78h5.4v1.8h-3.42v3.33h2.72v1.8h-2.72v3.87h3.42v1.8h-5.4v-12.6Z"/>
          <path class="cls-11" d="M163.72,16.78h2.48l1.93,7.54h.04v-7.54h1.76v12.6h-2.03l-2.38-9.2h-.04v9.2h-1.76v-12.6Z"/>
          <path class="cls-11" d="M173.13,18.58h-2.07v-1.8h6.12v1.8h-2.07v10.8h-1.98v-10.8Z"/>
          <path class="cls-11" d="M177.98,26.39v-.72h1.87v.86c0,.9,.4,1.22,1.03,1.22s1.03-.32,1.03-1.26c0-1.04-.4-1.71-1.69-2.84-1.66-1.46-2.2-2.48-2.2-3.93,0-1.98,1.03-3.13,2.95-3.13s2.88,1.15,2.88,3.17v.52h-1.87v-.65c0-.9-.36-1.24-.99-1.24s-.99,.34-.99,1.21c0,.92,.41,1.58,1.71,2.72,1.66,1.46,2.18,2.47,2.18,4.03,0,2.05-1.04,3.21-2.99,3.21s-2.92-1.15-2.92-3.17Z"/>
        </g>
        <g>
          <g>
            <path class="cls-11" d="M30.92,11.26L7.19,22.33,1.93,11.07,25.66,0l5.25,11.26ZM7.49,21.5L30.08,10.95,25.36,.83,2.77,11.38l4.72,10.12Z"/>
            <path class="cls-11" d="M15.82,5.84c2.23-.25,4.47,.91,5.47,3.06s.46,4.61-1.17,6.15l9.31-4.35L25.13,1.5,15.82,5.84Z"/>
            <path class="cls-11" d="M11.57,13.43c-1-2.14-.46-4.61,1.17-6.15L3.43,11.63l4.3,9.21,9.31-4.35c-2.23,.25-4.46-.91-5.47-3.06h0Z"/>
            <path class="cls-11" d="M15.22,13.05c.38,.05,.7,.06,.98,.04,.27-.02,.52-.08,.74-.17l-.62-1.33-.61-.06c-.45-.04-.82-.14-1.1-.31-.28-.17-.49-.41-.64-.73-.18-.39-.2-.78-.05-1.18,.15-.4,.44-.72,.87-.97l-.33-.7,.49-.23,.33,.7c.14-.05,.3-.1,.49-.13,.19-.04,.43-.08,.72-.12l.56,1.2c-.32-.03-.59-.05-.8-.04-.22,0-.39,.03-.51,.07l.55,1.18h.24c.59,.03,1.05,.12,1.37,.29,.33,.16,.57,.42,.73,.77,.21,.45,.25,.89,.12,1.34-.13,.44-.41,.8-.84,1.08l.45,.96-.49,.23-.43-.93-.07,.03c-.16,.07-.34,.14-.55,.19s-.5,.1-.86,.15l-.75-1.32Zm.53-2.8l-.46-.99c-.16,.11-.27,.23-.32,.35-.06,.12-.06,.24,0,.35,.05,.11,.14,.18,.27,.23,.13,.05,.3,.07,.53,.07h0Zm1.12,1.33l.52,1.12c.14-.13,.23-.25,.27-.37,.04-.12,.03-.25-.03-.38-.05-.11-.14-.2-.27-.26-.13-.06-.29-.1-.49-.1h0Z"/>
          </g>
          <g>
            <path class="cls-11" d="M15.21,22.92c0-1.45,1.18-2.63,2.63-2.63h11.56v-5.63h-4.92s-.05,.02-.08,.03c-.04,0-.07,.01-.11,.01-.06,0-.13-.02-.18-.04H1.1V31.18H29.4v-5.63h-11.56c-1.45,0-2.63-1.18-2.63-2.63Z"/>
            <path class="cls-11" d="M20.01,21.45s.02,.03,.03,.04c.03,.05,.07,.1,.1,.16,.01,.03,.03,.05,.04,.08,.02,.05,.05,.09,.07,.14,.01,.03,.02,.06,.04,.09,.02,.05,.03,.09,.05,.14,0,.03,.02,.06,.03,.09,.01,.05,.03,.1,.04,.15,0,.03,.01,.06,.02,.09,.01,.05,.02,.11,.03,.16,0,.03,0,.05,.01,.08,0,.08,.01,.17,.01,.25s0,.17-.01,.25c0,.03,0,.05-.01,.08,0,.06-.01,.11-.03,.17,0,.03-.01,.06-.02,.09-.01,.05-.02,.1-.04,.15,0,.03-.02,.06-.03,.09-.02,.05-.03,.1-.05,.14-.01,.03-.02,.06-.03,.08-.02,.05-.05,.1-.07,.14-.01,.02-.02,.05-.04,.07-.03,.06-.07,.11-.1,.17,0,.01-.01,.02-.02,.03-.04,.06-.09,.12-.13,.18h9.52v-3.31s-9.52,0-9.52,0c.05,.06,.09,.12,.13,.18Z"/>
            <circle class="cls-11" cx="17.84" cy="22.92" r="1.65"/>
          </g>
          <path class="cls-5" d="M29.51,14.68V31.15H1V14.68H29.51m0-1H1c-.55,0-1,.45-1,1V31.15c0,.55,.45,1,1,1H29.51c.55,0,1-.45,1-1V14.68c0-.55-.45-1-1-1h0Z"/>
        </g>
      </g>
      <g>
        <path class="cls-11" d="M.52,52.09H4.6v1.4H2.07v2.73h1.99v1.4h-1.99v4.27H.52v-9.81Z"/>
        <path class="cls-11" d="M5.58,59.57v-5.15c0-1.57,.83-2.47,2.34-2.47s2.34,.9,2.34,2.47v5.15c0,1.57-.83,2.47-2.34,2.47s-2.34-.9-2.34-2.47Zm3.14,.1v-5.35c0-.7-.31-.97-.8-.97s-.8,.27-.8,.97v5.35c0,.7,.31,.97,.8,.97s.8-.27,.8-.97Z"/>
        <path class="cls-11" d="M11.64,52.09h2.28c1.6,0,2.28,.74,2.28,2.25v.6c0,1.01-.32,1.65-1.01,1.93v.03c.77,.24,1.02,.97,1.02,2.07v1.72c0,.48,.01,.83,.17,1.19h-1.57c-.08-.25-.14-.41-.14-1.2v-1.79c0-.91-.27-1.2-.97-1.2h-.53v4.2h-1.54v-9.81Zm2.1,4.2c.57,0,.92-.25,.92-1.04v-.76c0-.7-.24-1.01-.78-1.01h-.7v2.8h.56Z"/>
        <path class="cls-11" d="M20.22,52.09h1.54v3.99h1.65v-3.99h1.54v9.81h-1.54v-4.41h-1.65v4.41h-1.54v-9.81Z"/>
        <path class="cls-11" d="M26.45,52.09h4.2v1.4h-2.66v2.59h2.11v1.4h-2.11v3.01h2.66v1.4h-4.2v-9.81Z"/>
        <path class="cls-11" d="M33.08,52.09h2.09l1.6,9.81h-1.54l-.28-1.95v.03h-1.75l-.28,1.92h-1.43l1.6-9.81Zm1.68,6.56l-.69-4.85h-.03l-.67,4.85h1.39Z"/>
        <path class="cls-11" d="M37.85,52.09h1.54v8.4h2.54v1.4h-4.08v-9.81Z"/>
        <path class="cls-11" d="M43.13,53.49h-1.61v-1.4h4.76v1.4h-1.61v8.4h-1.54v-8.4Z"/>
        <path class="cls-11" d="M47.37,52.09h1.54v3.99h1.65v-3.99h1.54v9.81h-1.54v-4.41h-1.65v4.41h-1.54v-9.81Z"/>
        <path class="cls-11" d="M56.19,52.09h2.27c1.54,0,2.3,.85,2.3,2.42v.97c0,1.57-.76,2.42-2.3,2.42h-.73v3.99h-1.54v-9.81Zm2.27,4.41c.49,0,.76-.22,.76-.92v-1.16c0-.7-.27-.92-.76-.92h-.73v3.01h.73Z"/>
        <path class="cls-11" d="M61.89,59.57v-7.48h1.54v7.59c0,.7,.29,.95,.78,.95s.78-.25,.78-.95v-7.59h1.48v7.48c0,1.57-.78,2.47-2.3,2.47s-2.3-.9-2.3-2.47Z"/>
        <path class="cls-11" d="M67.65,59.57v-.56h1.46v.67c0,.7,.31,.95,.8,.95s.8-.25,.8-.98c0-.81-.31-1.33-1.32-2.21-1.29-1.13-1.71-1.93-1.71-3.05,0-1.54,.8-2.44,2.3-2.44s2.24,.9,2.24,2.47v.41h-1.46v-.5c0-.7-.28-.97-.77-.97s-.77,.27-.77,.94c0,.71,.32,1.23,1.33,2.11,1.29,1.13,1.69,1.92,1.69,3.14,0,1.6-.81,2.49-2.33,2.49s-2.27-.9-2.27-2.47Z"/>
        <path class="cls-11" d="M73.48,52.09h1.54v3.99h1.65v-3.99h1.54v9.81h-1.54v-4.41h-1.65v4.41h-1.54v-9.81Z"/>
        <path class="cls-11" d="M79.71,52.09h4.2v1.4h-2.66v2.59h2.11v1.4h-2.11v3.01h2.66v1.4h-4.2v-9.81Z"/>
        <path class="cls-11" d="M85.14,52.09h2.35c1.54,0,2.3,.85,2.3,2.42v4.96c0,1.57-.76,2.42-2.3,2.42h-2.35v-9.81Zm2.33,8.4c.49,0,.78-.25,.78-.95v-5.1c0-.7-.29-.95-.78-.95h-.78v7h.78Z"/>
        <path class="cls-11" d="M93.65,59.57v-5.15c0-1.57,.83-2.47,2.34-2.47s2.34,.9,2.34,2.47v5.15c0,1.57-.83,2.47-2.34,2.47s-2.34-.9-2.34-2.47Zm3.14,.1v-5.35c0-.7-.31-.97-.8-.97s-.8,.27-.8,.97v5.35c0,.7,.31,.97,.8,.97s.8-.27,.8-.97Z"/>
        <path class="cls-11" d="M99.71,52.09h2.28c1.6,0,2.28,.74,2.28,2.25v.6c0,1.01-.32,1.65-1.01,1.93v.03c.77,.24,1.02,.97,1.02,2.07v1.72c0,.48,.01,.83,.17,1.19h-1.57c-.08-.25-.14-.41-.14-1.2v-1.79c0-.91-.27-1.2-.97-1.2h-.53v4.2h-1.54v-9.81Zm2.1,4.2c.57,0,.92-.25,.92-1.04v-.76c0-.7-.24-1.01-.78-1.01h-.7v2.8h.56Z"/>
        <path class="cls-11" d="M108.3,52.09h4.08v1.4h-2.54v2.73h1.99v1.4h-1.99v4.27h-1.54v-9.81Z"/>
        <path class="cls-11" d="M113.41,59.57v-7.48h1.54v7.59c0,.7,.29,.95,.78,.95s.78-.25,.78-.95v-7.59h1.48v7.48c0,1.57-.78,2.47-2.3,2.47s-2.3-.9-2.3-2.47Z"/>
        <path class="cls-11" d="M119.44,52.09h2.28c1.6,0,2.28,.74,2.28,2.25v.6c0,1.01-.32,1.65-1.01,1.93v.03c.77,.24,1.02,.97,1.02,2.07v1.72c0,.48,.01,.83,.17,1.19h-1.57c-.08-.25-.14-.41-.14-1.2v-1.79c0-.91-.27-1.2-.97-1.2h-.53v4.2h-1.54v-9.81Zm2.1,4.2c.57,0,.92-.25,.92-1.04v-.76c0-.7-.24-1.01-.78-1.01h-.7v2.8h.56Z"/>
        <path class="cls-11" d="M126.61,53.49h-1.61v-1.4h4.76v1.4h-1.61v8.4h-1.54v-8.4Z"/>
        <path class="cls-11" d="M130.85,52.09h1.54v3.99h1.65v-3.99h1.54v9.81h-1.54v-4.41h-1.65v4.41h-1.54v-9.81Z"/>
        <path class="cls-11" d="M137.08,52.09h4.2v1.4h-2.66v2.59h2.12v1.4h-2.12v3.01h2.66v1.4h-4.2v-9.81Z"/>
        <path class="cls-11" d="M142.51,52.09h2.28c1.6,0,2.28,.74,2.28,2.25v.6c0,1.01-.32,1.65-1.01,1.93v.03c.77,.24,1.02,.97,1.02,2.07v1.72c0,.48,.01,.83,.17,1.19h-1.57c-.08-.25-.14-.41-.14-1.2v-1.79c0-.91-.27-1.2-.97-1.2h-.53v4.2h-1.54v-9.81Zm2.1,4.2c.57,0,.92-.25,.92-1.04v-.76c0-.7-.24-1.01-.78-1.01h-.7v2.8h.56Z"/>
        <path class="cls-11" d="M151.09,52.09h2.27c1.54,0,2.3,.85,2.3,2.42v.97c0,1.57-.76,2.42-2.3,2.42h-.73v3.99h-1.54v-9.81Zm2.27,4.41c.49,0,.76-.22,.76-.92v-1.16c0-.7-.27-.92-.76-.92h-.73v3.01h.73Z"/>
        <path class="cls-11" d="M156.79,59.57v-7.48h1.54v7.59c0,.7,.29,.95,.78,.95s.78-.25,.78-.95v-7.59h1.48v7.48c0,1.57-.78,2.47-2.3,2.47s-2.3-.9-2.3-2.47Z"/>
        <path class="cls-11" d="M162.56,59.57v-.56h1.46v.67c0,.7,.31,.95,.8,.95s.8-.25,.8-.98c0-.81-.31-1.33-1.32-2.21-1.29-1.13-1.71-1.93-1.71-3.05,0-1.54,.8-2.44,2.3-2.44s2.24,.9,2.24,2.47v.41h-1.46v-.5c0-.7-.28-.97-.77-.97s-.77,.27-.77,.94c0,.71,.32,1.23,1.33,2.11,1.29,1.13,1.7,1.92,1.7,3.14,0,1.6-.81,2.49-2.33,2.49s-2.27-.9-2.27-2.47Z"/>
        <path class="cls-11" d="M168.38,52.09h1.54v3.99h1.65v-3.99h1.54v9.81h-1.54v-4.41h-1.65v4.41h-1.54v-9.81Z"/>
        <path class="cls-11" d="M174.61,52.09h4.2v1.4h-2.66v2.59h2.12v1.4h-2.12v3.01h2.66v1.4h-4.2v-9.81Z"/>
        <path class="cls-11" d="M180.05,52.09h2.35c1.54,0,2.3,.85,2.3,2.42v4.96c0,1.57-.76,2.42-2.3,2.42h-2.35v-9.81Zm2.33,8.4c.49,0,.78-.25,.78-.95v-5.1c0-.7-.29-.95-.78-.95h-.78v7h.78Z"/>
      </g>
    </g>
    <g>
      <g class="cls-10">
        <g>
          <path class="cls-5" d="M43.68,125.81c4.02-25.91,27.31-44.37,53.46-42.35,26.15,2.02,46.33,23.82,46.33,50.05h-25.1c0-13.11-10.09-24.01-23.17-25.02-13.07-1.01-24.72,8.22-26.73,21.17l-24.8-3.85Z"/>
          <g id="Element_2">
            <path class="cls-11" d="M43.08,133.51h0c0-2.58,.2-5.15,.59-7.7l24.8,3.85c-.2,1.27-.3,2.56-.3,3.85h-25.1Z"/>
          </g>
          <g class="cls-8">
            <g>
              <line class="cls-1" x1="164.8" y1="123.39" x2="84.44" y2="44.42"/>
              <line class="cls-1" x1="163.37" y1="124.92" x2="83.01" y2="45.95"/>
              <line class="cls-1" x1="161.93" y1="126.46" x2="81.57" y2="47.48"/>
              <line class="cls-1" x1="160.49" y1="127.99" x2="80.13" y2="49.02"/>
              <line class="cls-1" x1="159.05" y1="129.53" x2="78.69" y2="50.55"/>
              <line class="cls-1" x1="157.61" y1="131.06" x2="77.25" y2="52.09"/>
              <line class="cls-1" x1="156.17" y1="132.59" x2="75.82" y2="53.62"/>
              <line class="cls-1" x1="154.74" y1="134.13" x2="74.38" y2="55.16"/>
              <line class="cls-1" x1="153.3" y1="135.66" x2="72.94" y2="56.69"/>
              <line class="cls-1" x1="151.86" y1="137.2" x2="71.5" y2="58.22"/>
              <line class="cls-1" x1="150.42" y1="138.73" x2="70.06" y2="59.76"/>
              <line class="cls-1" x1="148.98" y1="140.26" x2="68.62" y2="61.29"/>
              <line class="cls-1" x1="147.55" y1="141.8" x2="67.19" y2="62.83"/>
              <line class="cls-1" x1="146.11" y1="143.33" x2="65.75" y2="64.36"/>
              <line class="cls-1" x1="144.67" y1="144.87" x2="64.31" y2="65.89"/>
              <line class="cls-1" x1="143.23" y1="146.4" x2="62.87" y2="67.43"/>
              <line class="cls-1" x1="141.79" y1="147.94" x2="61.43" y2="68.96"/>
              <line class="cls-1" x1="140.35" y1="149.47" x2="60" y2="70.5"/>
              <line class="cls-1" x1="138.92" y1="151" x2="58.56" y2="72.03"/>
              <line class="cls-1" x1="137.48" y1="152.54" x2="57.12" y2="73.57"/>
              <line class="cls-1" x1="136.04" y1="154.07" x2="55.68" y2="75.1"/>
              <line class="cls-1" x1="134.6" y1="155.61" x2="54.24" y2="76.63"/>
              <line class="cls-1" x1="133.16" y1="157.14" x2="52.8" y2="78.17"/>
              <line class="cls-1" x1="131.73" y1="158.68" x2="51.37" y2="79.7"/>
              <line class="cls-1" x1="130.29" y1="160.21" x2="49.93" y2="81.24"/>
              <line class="cls-1" x1="128.85" y1="161.74" x2="48.49" y2="82.77"/>
              <line class="cls-1" x1="127.41" y1="163.28" x2="47.05" y2="84.31"/>
              <line class="cls-1" x1="125.97" y1="164.81" x2="45.61" y2="85.84"/>
              <line class="cls-1" x1="124.53" y1="166.35" x2="44.18" y2="87.37"/>
              <line class="cls-1" x1="123.1" y1="167.88" x2="42.74" y2="88.91"/>
              <line class="cls-1" x1="121.66" y1="169.41" x2="41.3" y2="90.44"/>
              <line class="cls-1" x1="120.22" y1="170.95" x2="39.86" y2="91.98"/>
              <line class="cls-1" x1="118.78" y1="172.48" x2="38.42" y2="93.51"/>
              <line class="cls-1" x1="117.34" y1="174.02" x2="36.98" y2="95.04"/>
              <line class="cls-1" x1="115.91" y1="175.55" x2="35.55" y2="96.58"/>
              <line class="cls-1" x1="114.47" y1="177.09" x2="34.11" y2="98.11"/>
              <line class="cls-1" x1="113.03" y1="178.62" x2="32.67" y2="99.65"/>
              <line class="cls-1" x1="111.59" y1="180.15" x2="31.23" y2="101.18"/>
              <line class="cls-1" x1="110.15" y1="181.69" x2="29.79" y2="102.72"/>
              <line class="cls-1" x1="108.71" y1="183.22" x2="28.36" y2="104.25"/>
              <line class="cls-1" x1="107.28" y1="184.76" x2="26.92" y2="105.78"/>
              <line class="cls-1" x1="105.84" y1="186.29" x2="25.48" y2="107.32"/>
            </g>
          </g>
        </g>
      </g>
      <g>
        <path class="cls-9" d="M52.08,143.6h2.2l.98,7.02h.03l.98-7.02h2.2v9.81h-1.46v-7.42h-.03l-1.12,7.42h-1.29l-1.12-7.42h-.03v7.42h-1.34v-9.81Z"/>
        <path class="cls-9" d="M60.66,143.6h1.54v9.81h-1.54v-9.81Z"/>
        <path class="cls-9" d="M64.4,143.6h1.54v8.4h2.54v1.4h-4.08v-9.81Z"/>
        <path class="cls-9" d="M70.27,143.6h1.54v8.4h2.54v1.4h-4.08v-9.81Z"/>
        <path class="cls-9" d="M76.13,143.6h1.54v9.81h-1.54v-9.81Z"/>
        <path class="cls-9" d="M79.76,151.08v-5.15c0-1.57,.83-2.47,2.34-2.47s2.34,.9,2.34,2.47v5.15c0,1.57-.83,2.47-2.34,2.47s-2.34-.9-2.34-2.47Zm3.14,.1v-5.35c0-.7-.31-.97-.8-.97s-.8,.27-.8,.97v5.35c0,.7,.31,.97,.8,.97s.8-.27,.8-.97Z"/>
        <path class="cls-9" d="M86.52,143.6h1.93l1.5,5.87h.03v-5.87h1.37v9.81h-1.58l-1.85-7.16h-.03v7.16h-1.37v-9.81Z"/>
        <path class="cls-9" d="M96.84,143.6h2.27c1.54,0,2.3,.85,2.3,2.42v.97c0,1.57-.76,2.42-2.3,2.42h-.73v3.99h-1.54v-9.81Zm2.27,4.41c.49,0,.76-.22,.76-.92v-1.16c0-.7-.27-.92-.76-.92h-.73v3.01h.73Z"/>
        <path class="cls-9" d="M103.29,143.6h4.2v1.4h-2.66v2.59h2.12v1.4h-2.12v3.01h2.66v1.4h-4.2v-9.81Z"/>
        <path class="cls-9" d="M109.31,151.08v-5.15c0-1.57,.83-2.47,2.34-2.47s2.34,.9,2.34,2.47v5.15c0,1.57-.83,2.47-2.34,2.47s-2.34-.9-2.34-2.47Zm3.14,.1v-5.35c0-.7-.31-.97-.8-.97s-.8,.27-.8,.97v5.35c0,.7,.31,.97,.8,.97s.8-.27,.8-.97Z"/>
        <path class="cls-9" d="M116.07,143.6h2.27c1.54,0,2.3,.85,2.3,2.42v.97c0,1.57-.76,2.42-2.3,2.42h-.73v3.99h-1.54v-9.81Zm2.27,4.41c.49,0,.76-.22,.76-.92v-1.16c0-.7-.27-.92-.76-.92h-.73v3.01h.73Z"/>
        <path class="cls-9" d="M122.53,143.6h1.54v8.4h2.54v1.4h-4.08v-9.81Z"/>
        <path class="cls-9" d="M128.39,143.6h4.2v1.4h-2.66v2.59h2.11v1.4h-2.11v3.01h2.66v1.4h-4.2v-9.81Z"/>
      </g>
      <g>
        <path class="cls-7" d="M80.51,129.48v-1.2h2.18v1.3c0,1.05,.46,1.45,1.2,1.45s1.2-.36,1.2-1.66v-1.2c0-1.36-.46-1.87-1.51-1.87h-.78v-2.1h.84c.86,0,1.39-.38,1.39-1.55v-1.07c0-1.05-.48-1.47-1.15-1.47s-1.11,.4-1.11,1.36v.97h-2.18v-.78c0-2.35,1.18-3.65,3.38-3.65s3.38,1.28,3.38,3.63v.52c0,1.57-.5,2.54-1.64,2.96v.04c1.24,.46,1.7,1.53,1.7,3.02v1.3c0,2.35-1.18,3.63-3.44,3.63s-3.44-1.3-3.44-3.65Z"/>
        <path class="cls-7" d="M89.01,129.5v-1.3c0-1.41,.42-2.44,1.51-3v-.04c-.97-.52-1.43-1.45-1.43-2.9v-.61c0-2.35,1.28-3.63,3.53-3.63s3.53,1.28,3.53,3.63v.61c0,1.45-.48,2.37-1.43,2.9v.04c1.09,.57,1.51,1.6,1.51,3v1.3c0,2.35-1.28,3.63-3.61,3.63s-3.61-1.28-3.61-3.63Zm4.91-.13v-1.41c0-1.11-.44-1.66-1.3-1.66s-1.3,.55-1.3,1.66v1.41c0,1.11,.44,1.66,1.3,1.66s1.3-.55,1.3-1.66Zm-.08-6.63v-1.15c0-.97-.42-1.47-1.22-1.47s-1.22,.5-1.22,1.47v1.15c0,.97,.42,1.47,1.22,1.47s1.22-.5,1.22-1.47Z"/>
        <path class="cls-7" d="M101.13,121.71h-2.41v-1.64c1.95,0,2.65-.42,3.17-1.85h1.55v14.7h-2.31v-11.21Z"/>
      </g>
      <line class="cls-4" x1="38.4" y1="138.56" x2="147.06" y2="138.56"/>
      <g>
        <path class="cls-6" d="M58.99,165.01v-4.94c0-1.12,.44-1.53,1.54-1.53h.34v.9h-.27c-.35,0-.51,.13-.51,.63v4.94c0,.5,.16,.63,.51,.63h.27v.9h-.34c-1.1,0-1.54-.41-1.54-1.53Z"/>
        <path class="cls-6" d="M63.47,164.77h-2.1v-1l2-4.73h1.2v4.73h.52v1h-.52v1.27h-1.1v-1.27Zm0-1v-2.73h-.02l-1.08,2.73h1.1Z"/>
        <path class="cls-6" d="M65.63,164.98h1.06v1.06h-1.06v-1.06Z"/>
        <path class="cls-6" d="M67.42,164.38v-.13h1.04v.2c0,.5,.22,.69,.57,.69,.39,0,.61-.19,.61-.86v-1.34h-.02c-.19,.4-.51,.61-1,.61-.81,0-1.22-.57-1.22-1.6v-1.25c0-1.12,.59-1.76,1.67-1.76s1.67,.64,1.67,1.76v3.62c0,1.18-.54,1.82-1.68,1.82-1.08,0-1.64-.64-1.64-1.76Zm2.22-2.52v-1.24c0-.46-.19-.68-.57-.68s-.57,.22-.57,.68v1.24c0,.47,.19,.69,.57,.69s.57-.22,.57-.69Z"/>
        <path class="cls-6" d="M71.45,161.82v-1.75c0-.72,.37-1.12,1.06-1.12s1.06,.4,1.06,1.12v1.75c0,.72-.37,1.12-1.06,1.12s-1.06-.4-1.06-1.12Zm1.42,.05v-1.85c0-.31-.14-.44-.36-.44s-.36,.13-.36,.44v1.85c0,.31,.13,.44,.36,.44s.36-.13,.36-.44Zm2.18-2.82h.7l-2.71,7h-.7l2.71-7Zm-.53,5.98v-1.75c0-.72,.37-1.12,1.06-1.12s1.06,.4,1.06,1.12v1.75c0,.72-.37,1.12-1.06,1.12s-1.06-.4-1.06-1.12Zm1.42,.05v-1.85c0-.31-.14-.44-.36-.44s-.36,.13-.36,.44v1.85c0,.31,.13,.44,.36,.44s.36-.13,.36-.44Z"/>
        <path class="cls-6" d="M78.92,164.38v-3.68c0-1.12,.59-1.76,1.67-1.76s1.67,.64,1.67,1.76v3.68c0,1.12-.59,1.76-1.67,1.76s-1.67-.64-1.67-1.76Zm2.24,.07v-3.82c0-.5-.22-.69-.57-.69s-.57,.19-.57,.69v3.82c0,.5,.22,.69,.57,.69s.57-.19,.57-.69Z"/>
        <path class="cls-6" d="M83,159.05h2.91v1h-1.81v1.95h1.42v1h-1.42v3.05h-1.1v-7Z"/>
        <path class="cls-6" d="M88.04,159.05h1.62c1.1,0,1.64,.61,1.64,1.73v.69c0,1.12-.54,1.73-1.64,1.73h-.52v2.85h-1.1v-7Zm1.62,3.15c.35,0,.54-.16,.54-.66v-.83c0-.5-.19-.66-.54-.66h-.52v2.15h.52Z"/>
        <path class="cls-6" d="M91.82,164.38v-3.68c0-1.12,.59-1.76,1.67-1.76s1.67,.64,1.67,1.76v3.68c0,1.12-.59,1.76-1.67,1.76s-1.67-.64-1.67-1.76Zm2.24,.07v-3.82c0-.5-.22-.69-.57-.69s-.57,.19-.57,.69v3.82c0,.5,.22,.69,.57,.69s.57-.19,.57-.69Z"/>
        <path class="cls-6" d="M95.9,159.05h1.62c1.1,0,1.64,.61,1.64,1.73v.69c0,1.12-.54,1.73-1.64,1.73h-.52v2.85h-1.1v-7Zm1.62,3.15c.35,0,.54-.16,.54-.66v-.83c0-.5-.19-.66-.54-.66h-.52v2.15h.52Z"/>
        <path class="cls-6" d="M99.72,164.38v-5.34h1.1v5.42c0,.5,.21,.68,.56,.68s.56-.18,.56-.68v-5.42h1.06v5.34c0,1.12-.56,1.76-1.64,1.76s-1.64-.64-1.64-1.76Z"/>
        <path class="cls-6" d="M103.78,159.05h1.1v6h1.81v1h-2.91v-7Z"/>
        <path class="cls-6" d="M108.11,159.05h1.49l1.14,7h-1.1l-.2-1.39v.02h-1.25l-.2,1.37h-1.02l1.14-7Zm1.2,4.68l-.49-3.46h-.02l-.48,3.46h.99Z"/>
        <path class="cls-6" d="M111.67,160.05h-1.15v-1h3.4v1h-1.15v6h-1.1v-6Z"/>
        <path class="cls-6" d="M114.45,159.05h1.1v7h-1.1v-7Z"/>
        <path class="cls-6" d="M116.29,164.38v-3.68c0-1.12,.59-1.76,1.67-1.76s1.67,.64,1.67,1.76v3.68c0,1.12-.59,1.76-1.67,1.76s-1.67-.64-1.67-1.76Zm2.24,.07v-3.82c0-.5-.22-.69-.57-.69s-.57,.19-.57,.69v3.82c0,.5,.22,.69,.57,.69s.57-.19,.57-.69Z"/>
        <path class="cls-6" d="M120.37,159.05h1.38l1.07,4.19h.02v-4.19h.98v7h-1.13l-1.32-5.11h-.02v5.11h-.98v-7Z"/>
        <path class="cls-6" d="M124.58,165.64h.27c.35,0,.51-.13,.51-.63v-4.94c0-.5-.16-.63-.51-.63h-.27v-.9h.34c1.1,0,1.54,.41,1.54,1.53v4.94c0,1.12-.44,1.53-1.54,1.53h-.34v-.9Z"/>
      </g>
    </g>
    <g>
      <rect class="cls-11" x=".78" y="177.12" width="183.89" height="22.72"/>
      <g>
        <path class="cls-5" d="M28.75,183.86h1.54v9.81h-1.54v-9.81Z"/>
        <path class="cls-5" d="M32.83,183.86h1.93l1.5,5.87h.03v-5.87h1.37v9.81h-1.58l-1.85-7.16h-.03v7.16h-1.37v-9.81Z"/>
        <path class="cls-5" d="M41.42,185.26h-1.61v-1.4h4.76v1.4h-1.61v8.4h-1.54v-8.4Z"/>
        <path class="cls-5" d="M46.54,191.34v-5.15c0-1.57,.83-2.47,2.34-2.47s2.34,.9,2.34,2.47v5.15c0,1.57-.83,2.47-2.34,2.47s-2.34-.9-2.34-2.47Zm3.14,.1v-5.35c0-.7-.31-.97-.8-.97s-.8,.27-.8,.97v5.35c0,.7,.31,.97,.8,.97s.8-.27,.8-.97Z"/>
        <path class="cls-5" d="M57.29,183.86h4.2v1.4h-2.66v2.59h2.11v1.4h-2.11v3.01h2.66v1.4h-4.2v-9.81Z"/>
        <path class="cls-5" d="M65.16,188.65l-1.69-4.79h1.62l1.04,3.17h.03l1.06-3.17h1.46l-1.7,4.79,1.78,5.01h-1.62l-1.12-3.42h-.03l-1.15,3.42h-1.46l1.78-5.01Z"/>
        <path class="cls-5" d="M72.09,185.26h-1.61v-1.4h4.76v1.4h-1.61v8.4h-1.54v-8.4Z"/>
        <path class="cls-5" d="M77.38,183.86h2.28c1.6,0,2.28,.74,2.28,2.25v.6c0,1.01-.32,1.65-1.01,1.93v.03c.77,.24,1.02,.97,1.02,2.07v1.72c0,.48,.01,.83,.17,1.19h-1.57c-.08-.25-.14-.41-.14-1.2v-1.79c0-.91-.27-1.2-.97-1.2h-.53v4.2h-1.54v-9.81Zm2.1,4.2c.57,0,.92-.25,.92-1.04v-.76c0-.7-.24-1.01-.78-1.01h-.7v2.8h.56Z"/>
        <path class="cls-5" d="M84.42,183.86h4.2v1.4h-2.66v2.59h2.11v1.4h-2.11v3.01h2.66v1.4h-4.2v-9.81Z"/>
        <path class="cls-5" d="M90.9,183.86h2.2l.98,7.02h.03l.98-7.02h2.2v9.81h-1.46v-7.42h-.03l-1.12,7.42h-1.29l-1.12-7.42h-.03v7.42h-1.34v-9.81Z"/>
        <path class="cls-5" d="M99.84,183.86h4.2v1.4h-2.66v2.59h2.11v1.4h-2.11v3.01h2.66v1.4h-4.2v-9.81Z"/>
        <path class="cls-5" d="M109.96,183.86h2.27c1.54,0,2.3,.85,2.3,2.42v.97c0,1.57-.76,2.42-2.3,2.42h-.73v3.99h-1.54v-9.81Zm2.27,4.41c.49,0,.76-.22,.76-.92v-1.16c0-.7-.27-.92-.76-.92h-.73v3.01h.73Z"/>
        <path class="cls-5" d="M116.65,191.34v-5.15c0-1.57,.83-2.47,2.34-2.47s2.34,.9,2.34,2.47v5.15c0,1.57-.83,2.47-2.34,2.47s-2.34-.9-2.34-2.47Zm3.14,.1v-5.35c0-.7-.31-.97-.8-.97s-.8,.27-.8,.97v5.35c0,.7,.31,.97,.8,.97s.8-.27,.8-.97Z"/>
        <path class="cls-5" d="M123.33,183.86h1.55l1.01,7.61h.03l1.01-7.61h1.41l-1.48,9.81h-2.04l-1.48-9.81Z"/>
        <path class="cls-5" d="M130.48,183.86h4.2v1.4h-2.66v2.59h2.12v1.4h-2.12v3.01h2.66v1.4h-4.2v-9.81Z"/>
        <path class="cls-5" d="M136.96,183.86h2.28c1.6,0,2.28,.74,2.28,2.25v.6c0,1.01-.32,1.65-1.01,1.93v.03c.77,.24,1.02,.97,1.02,2.07v1.72c0,.48,.01,.83,.17,1.19h-1.57c-.08-.25-.14-.41-.14-1.2v-1.79c0-.91-.27-1.2-.97-1.2h-.53v4.2h-1.54v-9.81Zm2.1,4.2c.57,0,.92-.25,.92-1.04v-.76c0-.7-.24-1.01-.78-1.01h-.7v2.8h.56Z"/>
        <path class="cls-5" d="M145.18,185.26h-1.61v-1.4h4.76v1.4h-1.61v8.4h-1.54v-8.4Z"/>
        <path class="cls-5" d="M151.95,189.49l-1.86-5.63h1.64l1.05,3.6h.03l1.05-3.6h1.5l-1.86,5.63v4.17h-1.54v-4.17Z"/>
      </g>
    </g>
  </g>
</svg>