<?xml version="1.0" encoding="UTF-8"?>
<svg id="Layer_2" data-name="Layer 2" xmlns="http://www.w3.org/2000/svg" viewBox="0 0 186.83 111.39">
  <defs>
    <style>
      .cls-1 {
        fill: #6dac6a;
      }

      .cls-2 {
        fill: #fff;
      }

      .cls-3 {
        fill: #939598;
      }

      .cls-4 {
        fill: #587358;
      }

      .cls-5 {
        stroke-dasharray: 0 0 0 2.89;
      }

      .cls-5, .cls-6 {
        fill: none;
        stroke: #587358;
        stroke-linecap: round;
        stroke-linejoin: round;
        stroke-width: 1.75px;
      }

      .cls-7 {
        fill: #2d9a47;
      }
    </style>
  </defs>
  <g id="Layer_2-2" data-name="Layer 2">
    <g>
      <g id="rHPomC">
        <g>
          <path class="cls-1" d="M22.36,40.22c-3.23,0-6.44-.01-9.63-.02-.01,.56-.02,1.09-.04,1.63,3.07,0,6.1,0,9.13-.02,.46,0,.57,.11,.55,.56-.04,.85-.04,1.71,0,2.56,.02,.4-.1,.5-.49,.49-2.89-.02-5.78,0-8.66-.02-.42,0-.57,.1-.53,.53,.03,.34,0,.69-.01,1.11,.59,0,1.15-.01,1.7-.01,2.5,0,5,0,7.5-.01,.39,0,.51,.09,.49,.49-.03,.85-.04,1.71,0,2.56,.02,.44-.08,.57-.55,.57-2.85-.03-5.69,0-8.54-.02-.48,0-.61,.12-.6,.6,.04,1.02,0,1.02,1.05,1.02,2.7,0,5.41,.01,8.11-.01,.44,0,.54,.12,.52,.54-.03,.85-.04,1.71,0,2.56,.02,.45-.13,.52-.54,.52-2.85-.02-5.69,0-8.54-.02-.45,0-.63,.08-.61,.58,.04,1.04,.01,1.04,1.05,1.04,2.7,0,5.41,0,8.11-.01,.43,0,.55,.11,.53,.54-.03,.81-.04,1.63,0,2.44,.03,.49-.08,.65-.61,.64-2.85-.03-5.69,0-8.54-.02-.42,0-.55,.09-.54,.52,.03,1.1,0,1.1,1.11,1.1,2.66,0,5.33,.02,7.99-.01,.5,0,.6,.14,.58,.6-.04,.77-.04,1.55,0,2.32,.03,.52-.08,.71-.67,.7-2.81-.04-5.61,0-8.42-.03-.43,0-.63,.05-.6,.56,.05,1.05,.01,1.05,1.05,1.05,2.7,0,5.41,.01,8.11-.01,.43,0,.55,.1,.53,.53-.04,.89-.02,1.79,0,2.68,0,.3-.06,.41-.38,.41-7.2,0-14.4,0-21.6,0-.28,0-.41-.07-.37-.36,.01-.08,0-.16,0-.24,0-11.75,0-23.51,0-35.26,0-.86,.32-1.19,1.21-1.19,6.69,0,13.38,0,20.07,0,.85,0,1.06,.22,1.06,1.1,0,1.57,0,3.13,0,4.73Z"/>
          <path class="cls-4" d="M22.37,72.94c0,1.42,0,2.84-.02,4.26,0,.7-.31,.99-1.01,.99-1.95,.02-3.9,.03-5.9,.05,0,1.5,0,3.06,0,4.62,0,1.71-.02,3.42,.01,5.12,0,.45-.18,.47-.53,.47-2.44-.01-4.88-.02-7.32,0-.43,0-.53-.12-.53-.54,.02-3.25,0-6.5,0-9.9-1.95,.03-3.88,.07-5.81,.09-1.1,.01-1.25-.15-1.25-1.28,0-1.18,0-2.36,0-3.54,0-.28,.03-.42,.37-.42,7.26,.01,14.52,0,21.78,.01,.06,0,.12,.02,.21,.04Z"/>
          <path class="cls-1" d="M1.16,96.25c-.83-.85-1.13-1.56-1.14-2.39,0-.85,0-1.71,0-2.56,0-.99,.23-1.23,1.21-1.23,5.63,0,11.26,0,16.89,0,1.1,0,2.2,.01,3.29,0,.57,0,.84,.3,.85,.81,.03,1.12,.05,2.24,0,3.35-.07,1.33-1.22,2.48-2.59,2.66-.26,.04-.53,.04-.79,.04-5.18,0-10.37,0-15.55,0-.94,0-1.76-.26-2.17-.69Z"/>
          <path class="cls-3" d="M6.51,26.98c.23-.2,.48-.25,.75-.25,.85,0,1.71-.02,2.56,.01,.42,.02,.54-.09,.54-.52-.02-2.4,0-23.18-.02-25.58,0-.48,.07-.66,.61-.63,1.06,.05,1.06,.01,1.06,1.08,0,2.26,0,22.89,0,25.15,0,.39,.08,.52,.49,.5,.85-.03,1.71-.02,2.56,0,.69,0,.97,.28,.97,.95-.01,1.53-.05,3.05-.06,4.58,0,.29-.08,.37-.37,.37-2.99,0-5.98,0-8.97,0-.28,0-.38-.06-.38-.37,.02-1.53,.01-3.05,0-4.58,0-.28,.08-.52,.25-.7Z"/>
        </g>
      </g>
      <g>
        <g>
          <path class="cls-7" d="M77.53,12.56c0-1.66,.46-2.67,1.82-4.09,1.39-1.47,1.79-2.35,1.79-3.43s-.36-1.33-.94-1.33-.94,.31-.94,1.14v1.24h-1.72v-1.13c0-1.86,.93-2.92,2.72-2.92s2.72,1.06,2.72,2.92c0,1.38-.56,2.6-2.25,4.39-1.09,1.16-1.38,1.74-1.38,2.55v.25h3.46v1.66h-5.27v-1.26Z"/>
          <path class="cls-7" d="M84.31,11.06v-.91h1.72v1.04c0,.83,.36,1.13,.94,1.13s.94-.3,.94-1.13v-2.6c0-.83-.36-1.14-.94-1.14s-.94,.31-.94,1.14v.1h-1.72l.33-6.48h4.81v1.66h-3.18l-.15,2.77h.03c.33-.55,.84-.85,1.57-.85,1.34,0,2.02,.94,2.02,2.65v2.62c0,1.86-.93,2.92-2.72,2.92s-2.72-1.06-2.72-2.92Z"/>
          <path class="cls-7" d="M93.97,2.22h2.6l1.16,8.3h.03l1.16-8.3h2.6V13.81h-1.72V5.03h-.03l-1.33,8.78h-1.52l-1.33-8.78h-.03V13.81h-1.59V2.22Z"/>
          <path class="cls-7" d="M103.05,2.22h1.82V13.81h-1.82V2.22Z"/>
          <path class="cls-7" d="M106.4,2.22h1.82V12.16h3v1.66h-4.82V2.22Z"/>
          <path class="cls-7" d="M112.27,2.22h1.82V12.16h3v1.66h-4.82V2.22Z"/>
          <path class="cls-7" d="M118.14,2.22h1.82V13.81h-1.82V2.22Z"/>
          <path class="cls-7" d="M121.35,11.06V4.97c0-1.86,.98-2.92,2.77-2.92s2.77,1.06,2.77,2.92v6.1c0,1.86-.98,2.92-2.77,2.92s-2.77-1.06-2.77-2.92Zm3.71,.12V4.85c0-.83-.36-1.14-.94-1.14s-.94,.31-.94,1.14v6.33c0,.83,.36,1.14,.94,1.14s.94-.31,.94-1.14Z"/>
          <path class="cls-7" d="M128.28,2.22h2.29l1.77,6.94h.03V2.22h1.62V13.81h-1.87l-2.19-8.47h-.03V13.81h-1.62V2.22Z"/>
          <path class="cls-7" d="M138.22,11.13V4.9c0-1.79,.93-2.85,2.68-2.85s2.68,1.06,2.68,2.85v1.23h-1.72v-1.34c0-.76-.36-1.08-.91-1.08s-.91,.31-.91,1.08v6.48c0,.76,.36,1.06,.91,1.06s.91-.3,.91-1.06v-1.77h1.72v1.64c0,1.79-.93,2.85-2.68,2.85s-2.68-1.06-2.68-2.85Z"/>
          <path class="cls-7" d="M144.85,2.22h1.82V6.94h1.96V2.22h1.82V13.81h-1.82v-5.22h-1.96v5.22h-1.82V2.22Z"/>
          <path class="cls-7" d="M151.98,2.22h1.82V13.81h-1.82V2.22Z"/>
          <path class="cls-7" d="M155.32,2.22h1.82V12.16h3v1.66h-4.82V2.22Z"/>
          <path class="cls-7" d="M161.19,2.22h2.78c1.82,0,2.72,1.01,2.72,2.87v5.87c0,1.86-.9,2.87-2.72,2.87h-2.78V2.22Zm2.75,9.94c.58,0,.93-.3,.93-1.13V5c0-.83-.35-1.13-.93-1.13h-.93V12.16h.93Z"/>
          <path class="cls-7" d="M168.08,2.22h2.7c1.89,0,2.7,.88,2.7,2.67v.71c0,1.19-.38,1.96-1.19,2.29v.03c.91,.28,1.21,1.14,1.21,2.45v2.04c0,.56,.02,.98,.2,1.41h-1.86c-.1-.3-.17-.48-.17-1.43v-2.12c0-1.08-.31-1.42-1.14-1.42h-.63v4.97h-1.82V2.22Zm2.49,4.97c.68,0,1.09-.3,1.09-1.23v-.9c0-.83-.28-1.19-.93-1.19h-.83v3.31h.66Z"/>
          <path class="cls-7" d="M174.93,2.22h4.97v1.66h-3.15v3.07h2.5v1.66h-2.5v3.56h3.15v1.66h-4.97V2.22Z"/>
          <path class="cls-7" d="M181.11,2.22h2.29l1.77,6.94h.03V2.22h1.62V13.81h-1.87l-2.19-8.47h-.03V13.81h-1.62V2.22Z"/>
        </g>
        <g>
          <path class="cls-3" d="M77.4,22.01h1.95l.87,6.23h.02l.87-6.23h1.95v8.71h-1.29v-6.59h-.02l-.99,6.59h-1.14l-1-6.59h-.02v6.59h-1.19v-8.71Z"/>
          <path class="cls-3" d="M84.39,22.01h1.37v8.71h-1.37v-8.71Z"/>
          <path class="cls-3" d="M86.86,28.65v-.5h1.29v.6c0,.62,.27,.85,.71,.85s.71-.22,.71-.87c0-.72-.27-1.18-1.17-1.96-1.14-1.01-1.52-1.72-1.52-2.71,0-1.37,.71-2.16,2.04-2.16s1.99,.8,1.99,2.19v.36h-1.29v-.45c0-.62-.25-.86-.68-.86s-.68,.24-.68,.83c0,.63,.29,1.09,1.18,1.88,1.14,1.01,1.5,1.7,1.5,2.79,0,1.42-.72,2.21-2.06,2.21s-2.01-.8-2.01-2.19Z"/>
          <path class="cls-3" d="M91.79,28.65v-.5h1.29v.6c0,.62,.27,.85,.71,.85s.71-.22,.71-.87c0-.72-.27-1.18-1.17-1.96-1.14-1.01-1.52-1.72-1.52-2.71,0-1.37,.71-2.16,2.04-2.16s1.99,.8,1.99,2.19v.36h-1.29v-.45c0-.62-.25-.86-.68-.86s-.68,.24-.68,.83c0,.63,.29,1.09,1.18,1.88,1.14,1.01,1.5,1.7,1.5,2.79,0,1.42-.72,2.21-2.06,2.21s-2.01-.8-2.01-2.19Z"/>
          <path class="cls-3" d="M96.96,22.01h3.73v1.24h-2.36v2.3h1.88v1.24h-1.88v2.67h2.36v1.24h-3.73v-8.71Z"/>
          <path class="cls-3" d="M101.78,22.01h2.09c1.37,0,2.04,.76,2.04,2.15v4.4c0,1.39-.67,2.15-2.04,2.15h-2.09v-8.71Zm2.06,7.46c.44,0,.7-.22,.7-.85v-4.53c0-.62-.26-.85-.7-.85h-.7v6.22h.7Z"/>
          <path class="cls-3" d="M109.34,28.65v-4.58c0-1.39,.73-2.19,2.08-2.19s2.08,.8,2.08,2.19v4.58c0,1.39-.73,2.19-2.08,2.19s-2.08-.8-2.08-2.19Zm2.79,.09v-4.75c0-.62-.27-.86-.71-.86s-.71,.24-.71,.86v4.75c0,.62,.27,.86,.71,.86s.71-.24,.71-.86Z"/>
          <path class="cls-3" d="M114.67,28.65v-6.64h1.37v6.74c0,.62,.26,.85,.7,.85s.7-.22,.7-.85v-6.74h1.32v6.64c0,1.39-.7,2.19-2.04,2.19s-2.04-.8-2.04-2.19Z"/>
          <path class="cls-3" d="M121.1,23.26h-1.43v-1.24h4.23v1.24h-1.43v7.46h-1.37v-7.46Z"/>
          <path class="cls-3" d="M127.06,28.65v-4.58c0-1.39,.73-2.19,2.08-2.19s2.08,.8,2.08,2.19v4.58c0,1.39-.73,2.19-2.08,2.19s-2.08-.8-2.08-2.19Zm2.79,.09v-4.75c0-.62-.27-.86-.71-.86s-.71,.24-.71,.86v4.75c0,.62,.27,.86,.71,.86s.71-.24,.71-.86Z"/>
          <path class="cls-3" d="M132.45,22.01h1.72l1.33,5.21h.02v-5.21h1.22v8.71h-1.41l-1.64-6.35h-.02v6.35h-1.22v-8.71Z"/>
          <path class="cls-3" d="M140.36,22.01h1.37v8.71h-1.37v-8.71Z"/>
          <path class="cls-3" d="M143.06,22.01h1.95l.87,6.23h.02l.87-6.23h1.95v8.71h-1.29v-6.59h-.02l-.99,6.59h-1.14l-1-6.59h-.02v6.59h-1.19v-8.71Z"/>
          <path class="cls-3" d="M150.06,22.01h2.01c1.37,0,2.04,.76,2.04,2.15v.86c0,1.39-.67,2.15-2.04,2.15h-.65v3.54h-1.37v-8.71Zm2.01,3.92c.44,0,.67-.2,.67-.82v-1.03c0-.62-.24-.82-.67-.82h-.65v2.67h.65Z"/>
          <path class="cls-3" d="M155.07,28.65v-4.58c0-1.39,.73-2.19,2.08-2.19s2.08,.8,2.08,2.19v4.58c0,1.39-.73,2.19-2.08,2.19s-2.08-.8-2.08-2.19Zm2.79,.09v-4.75c0-.62-.27-.86-.71-.86s-.71,.24-.71,.86v4.75c0,.62,.27,.86,.71,.86s.71-.24,.71-.86Z"/>
          <path class="cls-3" d="M160.45,22.01h2.03c1.42,0,2.03,.66,2.03,2v.53c0,.9-.29,1.47-.9,1.72v.02c.68,.21,.91,.86,.91,1.84v1.53c0,.42,.01,.73,.15,1.06h-1.39c-.07-.22-.12-.36-.12-1.07v-1.59c0-.81-.24-1.07-.86-1.07h-.47v3.73h-1.37v-8.71Zm1.87,3.73c.51,0,.82-.22,.82-.92v-.67c0-.62-.21-.9-.7-.9h-.62v2.49h.5Z"/>
          <path class="cls-3" d="M166.81,23.26h-1.43v-1.24h4.23v1.24h-1.43v7.46h-1.37v-7.46Z"/>
          <path class="cls-3" d="M171.06,22.01h1.85l1.42,8.71h-1.37l-.25-1.73v.02h-1.55l-.25,1.7h-1.27l1.42-8.71Zm1.49,5.82l-.61-4.3h-.02l-.6,4.3h1.23Z"/>
          <path class="cls-3" d="M175.3,22.01h1.72l1.33,5.21h.02v-5.21h1.22v8.71h-1.41l-1.64-6.35h-.02v6.35h-1.22v-8.71Z"/>
          <path class="cls-3" d="M181.99,23.26h-1.43v-1.24h4.23v1.24h-1.43v7.46h-1.37v-7.46Z"/>
          <path class="cls-3" d="M77.4,36.52h2.03c1.42,0,2.03,.66,2.03,2v.53c0,.9-.29,1.47-.9,1.72v.02c.68,.21,.91,.86,.91,1.84v1.53c0,.42,.01,.73,.15,1.06h-1.39c-.07-.22-.12-.36-.12-1.07v-1.59c0-.81-.24-1.07-.86-1.07h-.47v3.73h-1.37v-8.71Zm1.87,3.73c.51,0,.82-.22,.82-.92v-.67c0-.62-.21-.9-.7-.9h-.62v2.49h.5Z"/>
          <path class="cls-3" d="M82.62,43.16v-4.58c0-1.39,.73-2.19,2.08-2.19s2.08,.8,2.08,2.19v4.58c0,1.39-.73,2.19-2.08,2.19s-2.08-.8-2.08-2.19Zm2.79,.09v-4.75c0-.62-.27-.86-.71-.86s-.71,.24-.71,.86v4.75c0,.62,.27,.86,.71,.86s.71-.24,.71-.86Z"/>
          <path class="cls-3" d="M87.95,43.16v-6.64h1.37v6.74c0,.62,.26,.85,.7,.85s.7-.22,.7-.85v-6.74h1.32v6.64c0,1.39-.7,2.19-2.04,2.19s-2.04-.8-2.04-2.19Z"/>
          <path class="cls-3" d="M94.38,37.76h-1.43v-1.24h4.23v1.24h-1.43v7.46h-1.37v-7.46Z"/>
          <path class="cls-3" d="M98.14,36.52h1.37v8.71h-1.37v-8.71Z"/>
          <path class="cls-3" d="M100.84,36.52h1.72l1.33,5.21h.02v-5.21h1.22v8.71h-1.41l-1.64-6.35h-.02v6.35h-1.22v-8.71Z"/>
          <path class="cls-3" d="M106.46,36.52h3.73v1.24h-2.36v2.3h1.88v1.24h-1.88v2.67h2.36v1.24h-3.73v-8.71Z"/>
          <path class="cls-3" d="M113.58,36.52h1.37v8.71h-1.37v-8.71Z"/>
          <path class="cls-3" d="M116.28,36.52h1.95l.87,6.23h.02l.87-6.23h1.95v8.71h-1.29v-6.59h-.02l-.99,6.59h-1.14l-1-6.59h-.02v6.59h-1.19v-8.71Z"/>
          <path class="cls-3" d="M123.27,36.52h1.95l.87,6.23h.02l.87-6.23h1.95v8.71h-1.29v-6.59h-.02l-.99,6.59h-1.14l-1-6.59h-.02v6.59h-1.19v-8.71Z"/>
          <path class="cls-3" d="M130.22,43.16v-6.64h1.37v6.74c0,.62,.26,.85,.7,.85s.7-.22,.7-.85v-6.74h1.32v6.64c0,1.39-.7,2.19-2.04,2.19s-2.04-.8-2.04-2.19Z"/>
          <path class="cls-3" d="M135.58,36.52h1.72l1.33,5.21h.02v-5.21h1.22v8.71h-1.41l-1.64-6.35h-.02v6.35h-1.22v-8.71Z"/>
          <path class="cls-3" d="M141.2,36.52h1.37v8.71h-1.37v-8.71Z"/>
          <path class="cls-3" d="M143.62,44l2.54-6.24h-2.41v-1.24h3.88v1.22l-2.54,6.24h2.54v1.24h-4v-1.22Z"/>
          <path class="cls-3" d="M149.76,36.52h1.85l1.42,8.71h-1.37l-.25-1.73v.02h-1.55l-.25,1.7h-1.27l1.42-8.71Zm1.49,5.82l-.61-4.3h-.02l-.6,4.3h1.23Z"/>
          <path class="cls-3" d="M154.5,37.76h-1.43v-1.24h4.23v1.24h-1.43v7.46h-1.37v-7.46Z"/>
          <path class="cls-3" d="M158.26,36.52h1.37v8.71h-1.37v-8.71Z"/>
          <path class="cls-3" d="M160.86,43.16v-4.58c0-1.39,.73-2.19,2.08-2.19s2.08,.8,2.08,2.19v4.58c0,1.39-.73,2.19-2.08,2.19s-2.08-.8-2.08-2.19Zm2.79,.09v-4.75c0-.62-.27-.86-.71-.86s-.71,.24-.71,.86v4.75c0,.62,.27,.86,.71,.86s.71-.24,.71-.86Z"/>
          <path class="cls-3" d="M166.24,36.52h1.72l1.33,5.21h.02v-5.21h1.22v8.71h-1.41l-1.64-6.35h-.02v6.35h-1.22v-8.71Z"/>
          <path class="cls-3" d="M171.62,43.16v-.5h1.29v.6c0,.62,.27,.85,.71,.85s.71-.22,.71-.87c0-.72-.27-1.18-1.17-1.96-1.14-1.01-1.52-1.72-1.52-2.71,0-1.37,.71-2.16,2.04-2.16s1.99,.8,1.99,2.19v.36h-1.29v-.45c0-.62-.25-.86-.68-.86s-.68,.24-.68,.83c0,.63,.29,1.09,1.18,1.88,1.14,1.01,1.5,1.7,1.5,2.79,0,1.42-.72,2.21-2.06,2.21s-2.01-.8-2.01-2.19Z"/>
          <path class="cls-7" d="M77.4,51.02h1.37v8.71h-1.37v-8.71Z"/>
          <path class="cls-7" d="M80.09,51.02h1.72l1.33,5.21h.02v-5.21h1.22v8.71h-1.41l-1.64-6.35h-.02v6.35h-1.22v-8.71Z"/>
          <path class="cls-7" d="M87.99,58.78c0-1.24,.35-2,1.37-3.07,1.04-1.11,1.34-1.77,1.34-2.57s-.27-1-.71-1-.71,.24-.71,.86v.93h-1.29v-.85c0-1.39,.7-2.19,2.04-2.19s2.04,.8,2.04,2.19c0,1.03-.42,1.95-1.69,3.3-.82,.87-1.03,1.31-1.03,1.92v.19h2.6v1.24h-3.95v-.95Z"/>
          <path class="cls-7" d="M93.19,57.66v-4.58c0-1.39,.73-2.19,2.08-2.19s2.08,.8,2.08,2.19v4.58c0,1.39-.73,2.19-2.08,2.19s-2.08-.8-2.08-2.19Zm2.79,.09v-4.75c0-.62-.27-.86-.71-.86s-.71,.24-.71,.86v4.75c0,.62,.27,.86,.71,.86s.71-.24,.71-.86Z"/>
          <path class="cls-7" d="M98.55,58.78c0-1.24,.35-2,1.37-3.07,1.04-1.11,1.34-1.77,1.34-2.57s-.27-1-.71-1-.71,.24-.71,.86v.93h-1.29v-.85c0-1.39,.7-2.19,2.04-2.19s2.04,.8,2.04,2.19c0,1.03-.42,1.95-1.69,3.3-.82,.87-1.03,1.31-1.03,1.92v.19h2.6v1.24h-3.95v-.95Z"/>
          <path class="cls-7" d="M105.77,53.08h-1.43v-.97c1.16,0,1.57-.25,1.88-1.09h.92v8.71h-1.37v-6.64Z"/>
        </g>
        <g>
          <path class="cls-7" d="M77.48,90.28v-6c0-1.96,.89-3.02,2.78-3.02,1.79,0,2.72,1.06,2.72,2.92v.22h-1.72v-.33c0-.83-.36-1.14-.94-1.14-.65,0-1.01,.31-1.01,1.43v2.22h.03c.31-.66,.85-1.01,1.66-1.01,1.34,0,2.02,.94,2.02,2.65v2.07c0,1.86-.98,2.92-2.77,2.92s-2.77-1.06-2.77-2.92Zm3.71,.13v-2.05c0-.78-.31-1.14-.94-1.14s-.94,.36-.94,1.14v2.05c0,.76,.31,1.13,.94,1.13s.94-.36,.94-1.13Z"/>
          <path class="cls-7" d="M87.18,81.43h2.6l1.16,8.3h.03l1.16-8.3h2.6v11.6h-1.72v-8.78h-.03l-1.33,8.78h-1.52l-1.33-8.78h-.03v8.78h-1.59v-11.6Z"/>
          <path class="cls-7" d="M96.26,81.43h1.82v11.6h-1.82v-11.6Z"/>
          <path class="cls-7" d="M99.61,81.43h1.82v9.94h3v1.66h-4.82v-11.6Z"/>
          <path class="cls-7" d="M105.47,81.43h1.82v9.94h3v1.66h-4.82v-11.6Z"/>
          <path class="cls-7" d="M111.34,81.43h1.82v11.6h-1.82v-11.6Z"/>
          <path class="cls-7" d="M114.56,90.28v-6.1c0-1.86,.98-2.92,2.77-2.92s2.77,1.06,2.77,2.92v6.1c0,1.86-.98,2.92-2.77,2.92s-2.77-1.06-2.77-2.92Zm3.71,.12v-6.33c0-.83-.36-1.14-.94-1.14s-.94,.31-.94,1.14v6.33c0,.83,.36,1.14,.94,1.14s.94-.31,.94-1.14Z"/>
          <path class="cls-7" d="M121.48,81.43h2.29l1.77,6.94h.03v-6.94h1.62v11.6h-1.87l-2.19-8.47h-.03v8.47h-1.62v-11.6Z"/>
          <path class="cls-7" d="M131.54,81.43h2.6l1.16,8.3h.03l1.16-8.3h2.6v11.6h-1.72v-8.78h-.03l-1.33,8.78h-1.52l-1.33-8.78h-.03v8.78h-1.59v-11.6Z"/>
          <path class="cls-7" d="M140.49,90.28v-6.1c0-1.86,.98-2.92,2.77-2.92s2.77,1.06,2.77,2.92v6.1c0,1.86-.98,2.92-2.77,2.92s-2.77-1.06-2.77-2.92Zm3.71,.12v-6.33c0-.83-.36-1.14-.94-1.14s-.94,.31-.94,1.14v6.33c0,.83,.36,1.14,.94,1.14s.94-.31,.94-1.14Z"/>
          <path class="cls-7" d="M147.42,81.43h2.7c1.89,0,2.7,.88,2.7,2.67v.71c0,1.19-.38,1.96-1.19,2.29v.03c.91,.28,1.21,1.14,1.21,2.45v2.04c0,.56,.02,.98,.2,1.41h-1.86c-.1-.3-.17-.48-.17-1.43v-2.12c0-1.08-.31-1.42-1.14-1.42h-.63v4.97h-1.82v-11.6Zm2.49,4.97c.68,0,1.09-.3,1.09-1.23v-.9c0-.83-.28-1.19-.93-1.19h-.83v3.31h.66Z"/>
          <path class="cls-7" d="M154.26,81.43h4.97v1.66h-3.15v3.07h2.5v1.66h-2.5v3.56h3.15v1.66h-4.97v-11.6Z"/>
        </g>
        <g>
          <path class="cls-3" d="M78.6,101.58h-1.55v-1.35h4.58v1.35h-1.55v8.07h-1.48v-8.07Z"/>
          <path class="cls-3" d="M82.48,100.24h1.48v3.84h1.59v-3.84h1.48v9.42h-1.48v-4.24h-1.59v4.24h-1.48v-9.42Z"/>
          <path class="cls-3" d="M89.41,100.24h2.01l1.53,9.42h-1.48l-.27-1.87v.03h-1.68l-.27,1.84h-1.37l1.53-9.42Zm1.61,6.3l-.66-4.66h-.03l-.65,4.66h1.33Z"/>
          <path class="cls-3" d="M93.8,100.24h1.86l1.44,5.64h.03v-5.64h1.32v9.42h-1.52l-1.78-6.88h-.03v6.88h-1.32v-9.42Z"/>
          <path class="cls-3" d="M101.97,100.24h1.48v9.42h-1.48v-9.42Z"/>
          <path class="cls-3" d="M104.69,100.24h1.86l1.44,5.64h.03v-5.64h1.32v9.42h-1.52l-1.78-6.88h-.03v6.88h-1.32v-9.42Z"/>
          <path class="cls-3" d="M112.84,108.63c0-1.35,.38-2.17,1.48-3.32,1.13-1.2,1.45-1.91,1.45-2.79s-.3-1.08-.77-1.08-.77,.26-.77,.93v1.01h-1.4v-.92c0-1.51,.75-2.37,2.21-2.37s2.21,.86,2.21,2.37c0,1.12-.46,2.11-1.83,3.57-.89,.94-1.12,1.41-1.12,2.07v.2h2.81v1.35h-4.28v-1.02Z"/>
          <path class="cls-3" d="M118.28,107.42v-4.95c0-1.51,.79-2.37,2.25-2.37s2.25,.86,2.25,2.37v4.95c0,1.51-.79,2.37-2.25,2.37s-2.25-.86-2.25-2.37Zm3.01,.09v-5.14c0-.67-.3-.93-.77-.93s-.77,.26-.77,.93v5.14c0,.67,.3,.93,.77,.93s.77-.26,.77-.93Z"/>
          <path class="cls-3" d="M125.98,102.47h-1.55v-1.05c1.25,0,1.7-.27,2.03-1.18h1v9.42h-1.48v-7.19Z"/>
          <path class="cls-3" d="M129.31,107.42v-.18h1.4v.27c0,.67,.3,.93,.77,.93,.52,0,.82-.26,.82-1.16v-1.8h-.03c-.26,.54-.69,.82-1.35,.82-1.09,0-1.64-.77-1.64-2.15v-1.68c0-1.51,.79-2.37,2.25-2.37s2.25,.86,2.25,2.37v4.87c0,1.59-.73,2.45-2.26,2.45-1.45,0-2.21-.86-2.21-2.37Zm2.99-3.39v-1.67c0-.62-.26-.92-.77-.92s-.77,.3-.77,.92v1.67c0,.63,.26,.93,.77,.93s.77-.3,.77-.93Z"/>
        </g>
        <g>
          <line class="cls-6" x1="77.73" y1="69.68" x2="77.73" y2="69.68"/>
          <line class="cls-5" x1="80.62" y1="69.68" x2="157.28" y2="69.68"/>
          <line class="cls-6" x1="158.73" y1="69.68" x2="158.73" y2="69.68"/>
        </g>
      </g>
      <g>
        <path class="cls-3" d="M54.49,110.64c-1.79,0-3.24-1.3-3.24-2.91v-13.97s0-3.91,0-3.91h-1.51v16.34h-.03v1.56c0,1.59-1.44,2.89-3.21,2.89h-.45c-1.77,0-3.22-1.29-3.22-2.89v-1.56l-.08-.75v-19.39c-.02-.1-.03-.2-.03-.31v-8.65l-4.76,10.73c-.43,.96-1.45,1.59-2.6,1.59-.19,0-.39-.02-.6-.06-.17,.04-.34,.06-.52,.06-1.15,0-2.18-.62-2.6-1.59l-4.76-10.73v8.65c0,.08,0,.17-.02,.25v20.2h0v1.54c0,1.6-1.45,2.91-3.24,2.91h-.51c-1.79,0-3.24-1.3-3.24-2.91v-13.97s0-3.91,0-3.91h-1.51v16.34h-.03v1.56c0,1.59-1.44,2.89-3.21,2.89h-.45c-1.77,0-3.21-1.29-3.21-2.89l-.08-2.28v-19.41c-.02-.1-.04-.2-.04-.31v-8.65l-4.76,10.73c-.43,.96-1.45,1.59-2.6,1.59-.33,0-.66-.05-.97-.16-.74-.25-1.34-.77-1.63-1.43-.27-.61-.27-1.27,0-1.88l8.28-18.68c.31-.69,.92-1.21,1.68-1.44v-.13l.75-.04h3.5v-.57c-2.07-.86-3.68-2.45-4.38-4.37-.86-1.19-1.3-2.66-1.3-4.36,0-4.46,4.14-8.09,9.22-8.09,.4,0,.81,.03,1.3,.09l.38,.05s.59,.07,1.22,.07c.74,0,1.08-.1,1.21-.15l-.04-.9,1,.29c.81,.24,1.42,1.06,1.39,1.87-.01,.3-.11,.57-.27,.79,1.91,1.52,3.03,3.7,3.03,5.99,0,1.7-.44,3.17-1.3,4.36-.7,1.91-2.31,3.51-4.38,4.36v.57h4.21v.17c.76,.23,1.37,.75,1.68,1.44l6.24,14.08,6.24-14.08c.31-.69,.92-1.21,1.68-1.44v-.13l.75-.04h3.5v-.49c-1.51-.62-2.76-1.61-3.59-2.85-.24,0-.76-.12-.81-.99-.01-.29-.04-.51-.2-.66-.91-.85-1.03-2.08-.3-3.21,.32-.5,.17-.87,.17-.87l-.05-.08-.02-.06-.07-.21c-.05-.15-.07-.28-.07-.42,0-4.08,3.78-7.4,8.43-7.4,.96,0,1.91,.14,2.82,.43,.12,0,.25-.01,.37-.01,.74-1.72,2.59-2.87,4.71-2.87,2.73,0,4.96,1.92,5.06,4.32l.4-.22-.69,1.89c-.61,1.63-1.79,6.17,.01,7.61l.17,.14,.19,.57-.23,.38c-.12,.17-.36,.37-.8,.37-.73,0-2.08-.53-3.23-1.71-.09,.45-.33,.87-.71,1.23-.17,.16-.19,.37-.2,.66-.04,.74-.43,.93-.69,.98-.82,1.28-2.06,2.3-3.57,2.95v.53h4.21v.17c.76,.23,1.37,.75,1.68,1.44l8.28,18.68c.27,.61,.27,1.27,0,1.88-.29,.66-.89,1.19-1.63,1.43-.31,.1-.64,.16-.97,.16-1.15,0-2.18-.62-2.6-1.59l-4.76-10.73v8.65c0,.08,0,.17-.02,.25v21.74c0,1.6-1.46,2.91-3.25,2.91h-.51Z"/>
        <path class="cls-2" d="M58.36,46.7c2.38,0,4.31,1.67,4.31,3.73,0,.44-.1,.86-.27,1.25h.02s-2.38,6.34,.24,8.45c.03,.08-.05,.12-.2,.12-.73,0-3.2-1.01-4.15-3.89-.24,.26-.56,.76-.16,1.38,.49,.76,.57,1.57-.14,2.23-.62,.58-.34,1.45-.52,1.45-.02,0-.06-.02-.1-.05-.04-.05-.06-.1-.09-.15-.77,1.53-2.22,2.74-4,3.38v1.75s0,.03,0,.04h4.22v.04c.76,.06,1.45,.47,1.74,1.13l8.28,18.68c.41,.92-.12,1.95-1.18,2.3-.24,.08-.49,.12-.74,.12-.83,0-1.6-.43-1.92-1.14l-6.19-13.97v12.2c0,.08-.02,.15-.03,.22v19.47h0v2.29c0,1.19-1.12,2.16-2.49,2.16h-.51c-1.37,0-2.49-.97-2.49-2.16v-13.87s0-.03,0-.04v-4.72h-3.01v16.34h-.03v2.31c0,1.17-1.11,2.14-2.46,2.14h-.45c-1.36,0-2.47-.96-2.47-2.14v-2.31h-.08v-19.39c-.01-.1-.03-.2-.03-.31v-12.2l-6.19,13.97c-.31,.71-1.09,1.14-1.92,1.14-.2,0-.4-.03-.6-.08-.18,.04-.35,.09-.53,.09-.83,0-1.6-.43-1.92-1.14l-6.19-13.97v12.2c0,.08-.02,.15-.03,.22v19.47h0v2.29c0,1.19-1.12,2.16-2.49,2.16h-.51c-1.37,0-2.49-.97-2.49-2.16v-13.87s0-.03,0-.04v-4.72h-3.01v16.34h-.03v2.31c0,1.17-1.11,2.14-2.46,2.14h-.45c-1.36,0-2.46-.96-2.46-2.14l-.08-2.31v-19.39c-.01-.1-.03-.2-.03-.31v-12.2l-6.19,13.97c-.31,.71-1.09,1.14-1.92,1.14-.24,0-.49-.04-.74-.12-1.06-.35-1.59-1.38-1.18-2.3l8.28-18.68c.29-.66,.98-1.07,1.74-1.13v-.02h0s4.25-.01,4.25-.01c0-.01,0-.03,0-.04v-1.8c-2.14-.74-3.8-2.29-4.47-4.23h0c-.86-1.14-1.21-2.51-1.21-3.98,0-4.06,3.79-7.34,8.47-7.34,.41,0,.81,.03,1.2,.08l.39,.05s.62,.08,1.31,.08c.92,0,1.99-.14,1.97-.8,.86,.25,1.38,1.64-.03,1.91,2.19,1.33,3.63,3.53,3.63,6.02,0,1.47-.35,2.84-1.21,3.99h0c-.66,1.92-2.33,3.48-4.47,4.22v1.8s0,.03,0,.04h4.22v.04c.76,.06,1.45,.47,1.74,1.13l6.93,15.63,6.93-15.63c.29-.66,.99-1.07,1.74-1.13v-.02h0s4.25-.01,4.25-.01c0-.01,0-.03,0-.04v-1.72c-1.82-.62-3.29-1.83-4.08-3.37-.04,.08-.08,.17-.13,.24-.04,.03-.08,.05-.1,.05-.18,0,.1-.86-.52-1.45-.7-.66-.68-1.49-.19-2.25,.49-.76,.32-1.46,.17-1.68,0,0,0,0,0-.01-.06-.11-.09-.22-.09-.35,0-3.67,3.44-6.65,7.68-6.65,.98,0,1.91,.16,2.77,.45,0,0-.02,0-.03-.01,.15-.02,.3-.02,.45-.02,.17,0,.35,0,.52,.03,.44-1.66,2.14-2.9,4.19-2.9m-.41,7.73c0-.09-.02-.17-.02-.26l.06-.03s-.08,0-.12-.01c.03,.1,.06,.2,.08,.3m.41-9.23c-2.22,0-4.18,1.12-5.16,2.83-.89-.25-1.81-.37-2.75-.37-5.06,0-9.18,3.66-9.18,8.15,0,.15,.02,.31,.05,.46v.08s.17,.43,.17,.43l.03,.06s-.02,.11-.08,.2c-.91,1.41-.76,3.02,.37,4.12,0,.05,.01,.14,.02,.2,.06,1.1,.66,1.49,1.11,1.62,.54,.73,1.21,1.38,1.98,1.92h-2.95v.41c-.72,.35-1.3,.92-1.62,1.65l-5.55,12.53-5.55-12.53c-.32-.72-.9-1.3-1.62-1.65v-.37l-1.5-.04h-1.56c1.44-.97,2.55-2.3,3.14-3.83,.92-1.31,1.38-2.89,1.38-4.71,0-2.34-1.04-4.56-2.86-6.19,.05-.18,.09-.36,.1-.56,.05-1.16-.78-2.29-1.93-2.62l-2-.58,.05,1.3c-.12,0-.26,.01-.44,.01-.58,0-1.11-.07-1.12-.07l-.4-.05c-.51-.06-.95-.09-1.38-.09-5.5,0-9.97,3.97-9.97,8.84,0,1.82,.47,3.41,1.38,4.71,.59,1.53,1.7,2.87,3.14,3.83h-3.09v.41c-.72,.35-1.3,.92-1.62,1.65L.69,85.64c-.36,.8-.36,1.69,0,2.49,.38,.86,1.14,1.53,2.08,1.84,.39,.13,.8,.2,1.21,.2,1.45,0,2.74-.8,3.29-2.03l3.32-7.49v5.11c0,.14,.01,.28,.03,.41v19.34s.08,2.29,.08,2.29c.02,1.99,1.79,3.6,3.96,3.6h.45c2.19,0,3.96-1.63,3.96-3.64v-.81l.03-1.5v-14.84h0v3.09h0s0,.17,0,.17v13.87c0,2.02,1.79,3.66,3.99,3.66h.51c2.2,0,3.99-1.64,3.99-3.66v-2.29s0-19.38,0-19.38c.01-.09,.03-.2,.03-.31v-5.11l3.32,7.49c.55,1.24,1.84,2.03,3.29,2.03,.2,0,.37-.02,.53-.05,.2,.03,.4,.05,.59,.05,1.45,0,2.74-.8,3.29-2.03l3.32-7.49v5.11c0,.14,.01,.27,.03,.41v20.78h.08v.81c0,2,1.78,3.64,3.97,3.64h.45c2.19,0,3.96-1.63,3.96-3.64v-.81l.03-1.5v-14.84h0v3.09h0s0,.17,0,.17v13.87c0,2.02,1.79,3.66,3.99,3.66h.51c2.2,0,3.99-1.64,3.99-3.66v-2.29s0-19.38,0-19.38c.01-.09,.03-.2,.03-.31v-5.11l3.32,7.49c.55,1.24,1.84,2.03,3.29,2.03,.41,0,.82-.07,1.21-.2,.94-.31,1.7-.98,2.08-1.84,.35-.8,.35-1.69,0-2.49l-8.28-18.68c-.32-.72-.9-1.3-1.62-1.65v-.38l-1.5-.04h-1.52c.84-.58,1.56-1.29,2.11-2.1,.42-.18,.91-.59,.96-1.57,0-.06,0-.14,.02-.2,.16-.16,.3-.32,.42-.5,1.11,.84,2.25,1.22,2.96,1.22,.8,0,1.23-.42,1.41-.68,.29-.41,.37-.94,.21-1.42l-.14-.42-.35-.28c-1.21-.97-.58-4.61,.22-6.76l1.45-3.89-1.31,.75c-.67-2.22-2.93-3.86-5.61-3.86h0Z"/>
      </g>
    </g>
  </g>
</svg>