<?xml version="1.0" encoding="UTF-8"?>
<svg id="Layer_2" data-name="Layer 2" xmlns="http://www.w3.org/2000/svg" viewBox="0 0 150.97 273.99">
  <defs>
    <style>
      .cls-1 {
        fill: #fff;
      }

      .cls-2 {
        fill: #cb544d;
      }

      .cls-3 {
        fill: #c22033;
      }

      .cls-4 {
        fill: #f7e7e2;
      }

      .cls-5 {
        fill: #e1a193;
      }

      .cls-6 {
        fill: none;
        stroke: #cb544d;
        stroke-miterlimit: 10;
        stroke-width: .5px;
      }
    </style>
  </defs>
  <g id="Layer_2-2" data-name="Layer 2">
    <rect class="cls-4" x="10.38" width="140.6" height="264.67"/>
    <g>
      <path class="cls-2" d="M8.03,64.79c1.34-.56,2.43-1.41,3.19-2.63,.23-.38,.58-.38,.9-.41,.31-.03,.3,.31,.4,.52,1.07,2.41,2.53,4.55,4.42,6.39,.46,.45,.29,1.06-.35,1.24-.4,.11-.81,.21-1.2,.34-2.86,.95-4.63,4.02-4.01,6.94,.5,2.4,2.45,4.23,4.86,4.57,2.42,.35,4.85-.91,5.99-3.09,.75-1.44,.93-2.95,.64-4.53-.12-.62,.36-1.31,.79-1.14,2.56,1.01,5.22,1.44,7.97,1.4,.15,0,.36-.11,.41,.17,.09,.52,.25,.98-.11,1.55-1.21,1.9-1.39,3.95-.48,6.03,1.16,2.66,4.24,3.99,7.12,3.1,2.68-.83,4.42-3.78,3.89-6.54-.36-1.87-1.35-3.3-2.92-4.36-.59-.4-.71-1.53-.18-1.76,2.37-1.06,4.44-2.54,6.24-4.4,.1-.11,.19-.26,.36-.26,.28,0,1.23,.86,1.3,1.18,.22,.97,.6,1.88,1.2,2.68,1.85,2.5,5.13,3.23,7.74,1.72,2.57-1.49,3.59-4.66,2.38-7.44-1.04-2.41-3.64-3.82-6.63-3.42-.82,.11-1.33-.18-1.91-.55-.26-.16-.29-.31-.18-.58,.95-2.41,1.4-4.92,1.38-7.51,0-.15-.07-.34,.15-.37,.72-.09,1.42-.57,2.17,.07,.52,.43,1.2,.62,1.87,.78,2.45,.58,4.9-.28,6.32-2.22,1.36-1.85,1.49-4.41,.31-6.4-2.15-3.64-7.36-3.84-10-.3-.55,.74-1.18,.93-1.95,1.08-.27,.05-.36-.03-.47-.28-1-2.36-2.39-4.47-4.19-6.31-.1-.1-.26-.17-.24-.36,.04-.33,.92-1.3,1.27-1.39,1.31-.31,2.46-.9,3.41-1.86,2.03-2.07,2.33-5.16,.71-7.48-1.62-2.32-4.63-3.13-7.26-1.95-2.38,1.07-3.77,3.73-3.35,6.68,.11,.76-.17,1.24-.52,1.79-.15,.24-.3,.25-.54,.14-2.43-1.03-4.96-1.58-7.6-1.61-.15,0-.4,.08-.44-.17-.07-.56-.36-1.06,.04-1.68,1.23-1.92,1.42-3.99,.5-6.09-1.21-2.77-4.7-4.15-7.43-2.96-3.04,1.32-4.46,4.66-3.25,7.57,.56,1.34,1.39,2.44,2.62,3.2,.52,.32,.42,.84,.5,1.28,.06,.32-.37,.31-.58,.39-2.42,1-4.55,2.43-6.42,4.26-.11,.1-.19,.36-.41,.21-.35-.24-.76-.37-.85-.92-.14-.85-.48-1.64-.97-2.35-1.43-2.05-3.38-3.08-5.87-2.7-2.46,.38-4.1,1.86-4.74,4.28-.63,2.39,.09,4.44,1.99,6,1.55,1.27,3.39,1.6,5.34,1.22,.47-.09,.77,.08,1.07,.33,.31,.27-.02,.52-.11,.75-.97,2.45-1.49,4.99-1.45,7.63,0,.38-.11,.53-.49,.61-.35,.08-.57-.07-.84-.23-1.95-1.18-3.99-1.42-6.1-.51-2.78,1.2-4.18,4.67-3.01,7.41,1.31,3.07,4.66,4.49,7.62,3.27Z"/>
      <path class="cls-5" d="M34.34,67.95c-2.53,.55-4.96-1-5.54-3.53-.57-2.51,1.09-5.09,3.61-5.6,2.5-.51,4.97,1.11,5.51,3.62,.54,2.5-1.05,4.96-3.58,5.51Z"/>
      <path class="cls-5" d="M21.02,52.46c2.03-.42,4.05,.92,4.43,2.93,.38,2-.94,3.96-2.93,4.37-2.06,.42-3.98-.87-4.4-2.94-.4-2.02,.87-3.95,2.89-4.36Z"/>
      <path class="cls-5" d="M40.41,49.09c1.69-.37,3.36,.72,3.7,2.41,.34,1.66-.73,3.3-2.4,3.66-1.69,.37-3.34-.71-3.69-2.42-.35-1.68,.71-3.29,2.39-3.66Z"/>
      <path class="cls-5" d="M30.43,49.84c-2.53,.52-4.94-1.04-5.5-3.56-.56-2.5,1.11-5.07,3.62-5.58,2.52-.51,5.05,1.18,5.53,3.7,.48,2.53-1.12,4.92-3.65,5.44Z"/>
    </g>
    <rect class="cls-2" x="67.65" y="45.12" width="75.16" height="20.81"/>
    <g>
      <path class="cls-1" d="M74.58,52.08h-1.61v-1.4h4.76v1.4h-1.61v8.4h-1.54v-8.4Z"/>
      <path class="cls-1" d="M78.75,50.68h1.54v3.99h1.65v-3.99h1.54v9.81h-1.54v-4.41h-1.65v4.41h-1.54v-9.81Z"/>
      <path class="cls-1" d="M84.91,50.68h4.2v1.4h-2.66v2.59h2.12v1.4h-2.12v3.01h2.66v1.4h-4.2v-9.81Z"/>
      <path class="cls-1" d="M92.8,50.68h2.27c1.54,0,2.3,.85,2.3,2.42v.97c0,1.57-.76,2.42-2.3,2.42h-.73v3.99h-1.54v-9.81Zm2.27,4.41c.49,0,.76-.22,.76-.92v-1.16c0-.7-.27-.92-.76-.92h-.73v3.01h.73Z"/>
      <path class="cls-1" d="M99.18,50.68h2.09l1.6,9.81h-1.54l-.28-1.95v.03h-1.75l-.28,1.92h-1.43l1.6-9.81Zm1.68,6.56l-.69-4.85h-.03l-.67,4.85h1.39Z"/>
      <path class="cls-1" d="M103.88,50.68h1.93l1.5,5.87h.03v-5.87h1.37v9.81h-1.58l-1.85-7.16h-.03v7.16h-1.37v-9.81Z"/>
      <path class="cls-1" d="M110.14,50.68h2.35c1.54,0,2.3,.85,2.3,2.42v4.96c0,1.57-.76,2.42-2.3,2.42h-2.35v-9.81Zm2.33,8.4c.49,0,.78-.25,.78-.95v-5.1c0-.7-.29-.95-.78-.95h-.78v7h.78Z"/>
      <path class="cls-1" d="M116.11,50.68h4.2v1.4h-2.66v2.59h2.12v1.4h-2.12v3.01h2.66v1.4h-4.2v-9.81Z"/>
      <path class="cls-1" d="M121.47,50.68h2.2l.98,7.02h.03l.98-7.02h2.2v9.81h-1.46v-7.42h-.03l-1.12,7.42h-1.29l-1.12-7.42h-.03v7.42h-1.34v-9.81Z"/>
      <path class="cls-1" d="M129.28,50.68h1.54v9.81h-1.54v-9.81Z"/>
      <path class="cls-1" d="M132.15,58.22v-5.27c0-1.51,.78-2.41,2.27-2.41s2.27,.9,2.27,2.41v1.04h-1.46v-1.13c0-.64-.31-.91-.77-.91s-.77,.27-.77,.91v5.48c0,.64,.31,.9,.77,.9s.77-.25,.77-.9v-1.5h1.46v1.39c0,1.51-.78,2.41-2.27,2.41s-2.27-.9-2.27-2.41Z"/>
    </g>
    <g>
      <path class="cls-2" d="M22.63,89.23c.1,.33,.28,.6,.55,.8,.08,.06,.08,.14,.08,.22,0,.07-.08,.06-.13,.08-.59,.2-1.12,.49-1.59,.89-.11,.1-.25,.04-.28-.11-.02-.1-.03-.19-.05-.29-.16-.69-.84-1.17-1.53-1.09-.57,.07-1.04,.48-1.17,1.04-.13,.56,.11,1.15,.59,1.46,.32,.21,.67,.28,1.04,.25,.15-.01,.3,.11,.25,.21-.29,.58-.45,1.19-.5,1.83,0,.04,.02,.09-.05,.09-.12,0-.23,.04-.36-.06-.42-.32-.89-.41-1.4-.24-.65,.21-1.02,.9-.88,1.59,.14,.64,.79,1.11,1.44,1.05,.44-.04,.8-.24,1.08-.59,.11-.13,.37-.13,.42,0,.2,.58,.5,1.09,.89,1.55,.02,.03,.06,.05,.05,.09,0,.07-.23,.27-.3,.28-.23,.03-.45,.1-.65,.22-.62,.38-.87,1.13-.57,1.77,.29,.63,1.01,.94,1.69,.72,.59-.19,.97-.77,.94-1.48,0-.19,.07-.31,.17-.44,.04-.06,.08-.06,.14-.03,.54,.27,1.12,.43,1.72,.49,.04,0,.08,0,.08,.04,0,.17,.1,.34-.06,.51-.11,.11-.17,.27-.22,.42-.19,.56-.04,1.15,.38,1.52,.4,.36,1,.44,1.49,.21,.9-.42,1.05-1.64,.29-2.33-.16-.14-.19-.3-.21-.48,0-.07,.02-.08,.08-.1,.57-.18,1.1-.46,1.56-.84,.03-.02,.04-.06,.09-.05,.08,.02,.28,.24,.3,.33,.04,.31,.16,.59,.36,.84,.44,.52,1.16,.66,1.73,.33,.58-.33,.83-1.01,.61-1.65-.2-.58-.79-.96-1.49-.93-.18,0-.29-.07-.41-.16-.05-.04-.05-.07-.02-.13,.29-.54,.48-1.12,.54-1.74,0-.03-.01-.1,.05-.1,.13,0,.25-.06,.39,.05,.42,.33,.9,.42,1.41,.25,.67-.22,1.07-1.01,.85-1.67-.24-.74-.99-1.14-1.7-.92-.32,.1-.6,.27-.8,.54-.09,.11-.2,.08-.31,.09-.08,0-.06-.09-.08-.14-.18-.59-.47-1.11-.85-1.59-.02-.03-.08-.05-.04-.1,.06-.08,.1-.17,.23-.18,.2-.01,.39-.08,.57-.18,.51-.29,.79-.72,.76-1.31-.03-.58-.35-1-.9-1.2-.55-.2-1.04-.08-1.44,.33-.33,.33-.45,.76-.4,1.22,.01,.11-.04,.18-.1,.24-.07,.07-.12-.02-.17-.04-.55-.28-1.13-.46-1.75-.5-.09,0-.12-.04-.13-.13,0-.08,.03-.13,.07-.19,.32-.43,.42-.9,.25-1.41-.22-.68-1-1.08-1.66-.86-.74,.24-1.15,.99-.93,1.71Z"/>
      <path class="cls-5" d="M21.32,95.3c-.07-.6,.34-1.14,.94-1.22,.6-.08,1.16,.36,1.23,.96,.06,.6-.37,1.14-.97,1.21-.6,.07-1.14-.35-1.21-.96Z"/>
      <path class="cls-5" d="M25.23,92.53c.05,.48-.3,.93-.78,.97-.47,.05-.91-.3-.96-.78-.05-.49,.29-.91,.78-.96,.48-.05,.9,.29,.96,.77Z"/>
      <path class="cls-5" d="M25.6,97.13c.05,.4-.24,.77-.64,.81-.4,.04-.75-.24-.8-.64-.05-.4,.24-.77,.64-.81,.4-.04,.75,.24,.8,.64Z"/>
      <path class="cls-5" d="M25.64,94.78c-.07-.6,.35-1.13,.95-1.21,.6-.08,1.16,.37,1.22,.97,.07,.6-.38,1.15-.98,1.21-.6,.06-1.12-.37-1.19-.97Z"/>
    </g>
    <g>
      <path class="cls-2" d="M64.98,25.7c.1,.33,.28,.6,.55,.8,.08,.06,.08,.14,.08,.22,0,.07-.08,.06-.13,.08-.59,.2-1.12,.49-1.59,.89-.11,.1-.25,.04-.28-.11-.02-.1-.03-.19-.05-.29-.16-.69-.84-1.17-1.53-1.09-.57,.07-1.04,.48-1.17,1.04-.13,.56,.11,1.15,.59,1.46,.32,.21,.67,.28,1.04,.25,.15-.01,.3,.11,.25,.21-.29,.58-.45,1.19-.5,1.83,0,.04,.02,.09-.05,.09-.12,0-.23,.04-.36-.06-.42-.32-.89-.41-1.4-.24-.65,.21-1.02,.9-.88,1.59,.14,.64,.79,1.11,1.44,1.05,.44-.04,.8-.24,1.08-.59,.11-.13,.37-.13,.42,0,.2,.58,.5,1.09,.89,1.55,.02,.03,.06,.05,.05,.09,0,.07-.23,.27-.3,.28-.23,.03-.45,.1-.65,.22-.62,.38-.87,1.13-.57,1.77,.29,.63,1.01,.94,1.69,.72,.59-.19,.97-.77,.94-1.48,0-.19,.07-.31,.17-.44,.04-.06,.08-.06,.14-.03,.54,.27,1.12,.43,1.72,.49,.04,0,.08,0,.08,.04,0,.17,.1,.34-.06,.51-.11,.11-.17,.27-.22,.42-.19,.56-.04,1.15,.38,1.52,.4,.36,1,.44,1.49,.21,.9-.42,1.05-1.64,.29-2.33-.16-.14-.19-.3-.21-.48,0-.07,.02-.08,.08-.1,.57-.18,1.1-.46,1.56-.84,.03-.02,.04-.06,.09-.05,.08,.02,.28,.24,.3,.33,.04,.31,.16,.59,.36,.84,.44,.52,1.16,.66,1.73,.33,.58-.33,.83-1.01,.61-1.65-.2-.58-.79-.96-1.49-.93-.18,0-.29-.07-.41-.16-.05-.04-.05-.07-.02-.13,.29-.54,.48-1.12,.54-1.74,0-.03-.01-.1,.05-.1,.13,0,.25-.06,.39,.05,.42,.33,.9,.42,1.41,.25,.67-.22,1.07-1.01,.85-1.67-.24-.74-.99-1.14-1.7-.92-.32,.1-.6,.27-.8,.54-.09,.11-.2,.08-.31,.09-.08,0-.06-.09-.08-.14-.18-.59-.47-1.11-.85-1.59-.02-.03-.08-.05-.04-.1,.06-.08,.1-.17,.23-.18,.2-.01,.39-.08,.57-.18,.51-.29,.79-.72,.76-1.31-.03-.58-.35-1-.9-1.2-.55-.2-1.04-.08-1.44,.33-.33,.33-.45,.76-.4,1.22,.01,.11-.04,.18-.1,.24-.07,.07-.12-.02-.17-.04-.55-.28-1.13-.46-1.75-.5-.09,0-.12-.04-.13-.13,0-.08,.03-.13,.07-.19,.32-.43,.42-.9,.25-1.41-.22-.68-1-1.08-1.66-.86-.74,.24-1.15,.99-.93,1.71Z"/>
      <path class="cls-5" d="M63.68,31.77c-.07-.6,.34-1.14,.94-1.22,.6-.08,1.16,.36,1.23,.96,.06,.6-.37,1.14-.97,1.21-.6,.07-1.14-.35-1.21-.96Z"/>
      <path class="cls-5" d="M67.58,29c.05,.48-.3,.93-.78,.97-.47,.05-.91-.3-.96-.78-.05-.49,.29-.91,.78-.96,.48-.05,.9,.29,.96,.77Z"/>
      <path class="cls-5" d="M67.95,33.6c.05,.4-.24,.77-.64,.81-.4,.04-.75-.24-.8-.64-.05-.4,.24-.77,.64-.81,.4-.04,.75,.24,.8,.64Z"/>
      <path class="cls-5" d="M67.99,31.25c-.07-.6,.35-1.13,.95-1.21,.6-.08,1.16,.37,1.22,.97,.07,.6-.38,1.15-.98,1.21-.6,.06-1.12-.37-1.19-.97Z"/>
    </g>
    <g>
      <path class="cls-2" d="M40.1,227.62c.1,.33,.28,.6,.55,.8,.08,.06,.08,.14,.08,.22,0,.07-.08,.06-.13,.08-.59,.2-1.12,.49-1.59,.89-.11,.1-.25,.04-.28-.11-.02-.1-.03-.19-.05-.29-.16-.69-.84-1.17-1.53-1.09-.57,.07-1.04,.48-1.17,1.04-.13,.56,.11,1.15,.59,1.46,.32,.21,.67,.28,1.04,.25,.15-.01,.3,.11,.25,.21-.29,.58-.45,1.19-.5,1.83,0,.04,.02,.09-.05,.09-.12,0-.23,.04-.36-.06-.42-.32-.89-.41-1.4-.24-.65,.21-1.02,.9-.88,1.59,.14,.64,.79,1.11,1.44,1.05,.44-.04,.8-.24,1.08-.59,.11-.13,.37-.13,.42,0,.2,.58,.5,1.09,.89,1.55,.02,.03,.06,.05,.05,.09,0,.07-.23,.27-.3,.28-.23,.03-.45,.1-.65,.22-.62,.38-.87,1.13-.57,1.77,.29,.63,1.01,.94,1.69,.72,.59-.19,.97-.77,.94-1.48,0-.19,.07-.31,.17-.44,.04-.06,.08-.06,.14-.03,.54,.27,1.12,.43,1.72,.49,.04,0,.08,0,.08,.04,0,.17,.1,.34-.06,.51-.11,.11-.17,.27-.22,.42-.19,.56-.04,1.15,.38,1.52,.4,.36,1,.44,1.49,.21,.9-.42,1.05-1.64,.29-2.33-.16-.14-.19-.3-.21-.48,0-.07,.02-.08,.08-.1,.57-.18,1.1-.46,1.56-.84,.03-.02,.04-.06,.09-.05,.08,.02,.28,.24,.3,.33,.04,.31,.16,.59,.36,.84,.44,.52,1.16,.66,1.73,.33,.58-.33,.83-1.01,.61-1.65-.2-.58-.79-.96-1.49-.93-.18,0-.29-.07-.41-.16-.05-.04-.05-.07-.02-.13,.29-.54,.48-1.12,.54-1.74,0-.03-.01-.1,.05-.1,.13,0,.25-.06,.39,.05,.42,.33,.9,.42,1.41,.25,.67-.22,1.07-1.01,.85-1.67-.24-.74-.99-1.14-1.7-.92-.32,.1-.6,.27-.8,.54-.09,.11-.2,.08-.31,.09-.08,0-.06-.09-.08-.14-.18-.59-.47-1.11-.85-1.59-.02-.03-.08-.05-.04-.1,.06-.08,.1-.17,.23-.18,.2-.01,.39-.08,.57-.18,.51-.29,.79-.72,.76-1.31-.03-.58-.35-1-.9-1.2-.55-.2-1.04-.08-1.44,.33-.33,.33-.45,.76-.4,1.22,.01,.11-.04,.18-.1,.24-.07,.07-.12-.02-.17-.04-.55-.28-1.13-.46-1.75-.5-.09,0-.12-.04-.13-.13,0-.08,.03-.13,.07-.19,.32-.43,.42-.9,.25-1.41-.22-.68-1-1.08-1.66-.86-.74,.24-1.15,.99-.93,1.71Z"/>
      <path class="cls-5" d="M38.79,233.7c-.07-.6,.34-1.14,.94-1.22,.6-.08,1.16,.36,1.23,.96,.06,.6-.37,1.14-.97,1.21-.6,.07-1.14-.35-1.21-.96Z"/>
      <path class="cls-5" d="M42.7,230.93c.05,.48-.3,.93-.78,.97-.47,.05-.91-.3-.96-.78-.05-.49,.29-.91,.78-.96,.48-.05,.9,.29,.96,.77Z"/>
      <path class="cls-5" d="M43.07,235.52c.05,.4-.24,.77-.64,.81-.4,.04-.75-.24-.8-.64-.05-.4,.24-.77,.64-.81,.4-.04,.75,.24,.8,.64Z"/>
      <path class="cls-5" d="M43.11,233.18c-.07-.6,.35-1.13,.95-1.21,.6-.08,1.16,.37,1.22,.97,.07,.6-.38,1.15-.98,1.21-.6,.06-1.12-.37-1.19-.97Z"/>
    </g>
    <g>
      <g>
        <path class="cls-2" d="M85.52,78.49c-.48,0-.94-.2-1.26-.54-.49-.51-.62-1.28-.33-1.96,.07-.16,.15-.34,.3-.49-.49-.11-.92-.27-1.33-.49,0,0,0,0,0,0-.04,.86-.58,1.56-1.35,1.74-.14,.03-.28,.05-.42,.05-.73,0-1.39-.46-1.64-1.14-.31-.85,.07-1.77,.9-2.18,.2-.1,.42-.16,.66-.19-.26-.4-.46-.82-.59-1.25-.32,.31-.75,.48-1.24,.49h0c-.87,0-1.62-.66-1.73-1.49-.11-.9,.44-1.72,1.29-1.93,.16-.04,.31-.06,.47-.06,.4,0,.77,.13,1.1,.38,.1-.46,.25-.88,.45-1.26-.37-.04-.69-.18-.98-.39-.58-.45-.82-1.23-.6-1.92,.23-.69,.87-1.17,1.6-1.19h0c.93,0,1.68,.65,1.82,1.51,.37-.23,.76-.41,1.18-.54-.17-.22-.29-.49-.35-.78-.21-.94,.38-1.85,1.35-2.07,.12-.03,.24-.04,.36-.04,.78,0,1.5,.57,1.68,1.32,.13,.53,.03,1.05-.28,1.5,.42,.1,.82,.26,1.22,.47,.04-.45,.25-.86,.61-1.17,.34-.29,.72-.44,1.12-.44,.25,0,.5,.06,.75,.17,.67,.31,1.03,.88,1.01,1.62-.02,.71-.39,1.26-1.08,1.58-.15,.07-.31,.12-.46,.14,.24,.4,.41,.8,.53,1.21,.23-.19,.52-.33,.85-.4,.12-.03,.24-.04,.37-.04,.8,0,1.5,.57,1.7,1.38,.21,.88-.38,1.83-1.26,2.05-.16,.04-.32,.06-.47,.06-.42,0-.81-.14-1.15-.42-.12,.46-.29,.89-.51,1.28,.83,.05,1.51,.58,1.7,1.33,.21,.82-.19,1.68-.95,2.03-.23,.11-.47,.16-.73,.16-.56,0-1.1-.28-1.44-.75-.2-.27-.31-.59-.35-.95-.42,.26-.85,.45-1.29,.57,0,.01,.02,.02,.03,.03,.43,.45,.6,1.08,.46,1.67-.13,.57-.54,1.03-1.08,1.23-.19,.07-.4,.11-.6,.11Z"/>
        <path class="cls-4" d="M85.17,63.13c.6,0,1.17,.43,1.32,1.03,.12,.53-.02,.99-.37,1.39-.05,.05-.09,.1-.09,.18,0,.09,.03,.12,.12,.14,.61,.1,1.18,.32,1.7,.65,.04,.02,.07,.08,.12,.08,.02,0,.03,0,.05-.02,.07-.06,.12-.12,.12-.23,0-.46,.14-.88,.5-1.18,.27-.23,.57-.35,.88-.35,.19,0,.39,.05,.59,.14,.53,.25,.81,.69,.79,1.27-.01,.59-.33,1-.86,1.25-.18,.08-.37,.13-.57,.13h-.02c-.13,0-.17,.09-.24,.16-.04,.04,.01,.07,.03,.1,.34,.51,.59,1.06,.72,1.66,.01,.05-.01,.15,.07,.15h0s.09,0,.14,0c.06,0,.12-.01,.17-.07,.23-.25,.51-.4,.85-.48,.1-.02,.19-.03,.29-.03,.62,0,1.17,.44,1.33,1.09,.16,.68-.3,1.43-.99,1.6-.13,.03-.26,.05-.38,.05-.37,0-.71-.14-1-.41-.07-.07-.15-.08-.22-.08-.05,0-.09,0-.14,0,0,0-.02,0-.02,0h0c-.06,0-.05,.06-.05,.09-.12,.61-.35,1.17-.68,1.69-.03,.05-.04,.08,.01,.13,.11,.1,.21,.19,.39,.19,.7,.02,1.26,.45,1.41,1.05,.17,.65-.14,1.32-.75,1.6-.18,.09-.38,.13-.57,.13-.43,0-.86-.21-1.13-.6-.18-.26-.27-.55-.29-.86,0-.08-.19-.33-.27-.35,0,0-.01,0-.02,0-.03,0-.05,.03-.08,.04-.5,.34-1.04,.58-1.63,.71-.06,.01-.09,.03-.08,.1,0,.18,.02,.34,.17,.49,.71,.75,.45,1.95-.48,2.3-.15,.06-.31,.08-.47,.08-.37,0-.73-.15-.99-.42-.39-.41-.49-1.01-.25-1.55,.06-.15,.13-.3,.26-.4,.18-.15,.1-.33,.1-.5,0-.05-.04-.04-.08-.05-.6-.1-1.16-.31-1.68-.63-.03-.02-.05-.02-.07-.02-.03,0-.05,.01-.07,.04-.11,.12-.2,.23-.21,.42-.03,.71-.46,1.25-1.06,1.39-.11,.03-.22,.04-.33,.04-.57,0-1.09-.34-1.29-.89-.24-.66,.06-1.39,.71-1.72,.21-.1,.43-.15,.67-.17,.08,0,.32-.19,.33-.25,0-.04-.02-.07-.05-.09-.36-.49-.61-1.03-.76-1.62-.02-.07-.11-.11-.2-.11-.08,0-.16,.03-.21,.08-.31,.32-.68,.49-1.12,.5,0,0-.01,0-.02,0-.65,0-1.25-.52-1.33-1.17-.09-.7,.34-1.36,1.01-1.52,.13-.03,.26-.05,.38-.05,.37,0,.7,.14,.99,.4,.09,.08,.17,.09,.27,.09,.03,0,.05,0,.08,0h0c.07,0,.05-.05,.05-.09,.1-.64,.31-1.23,.65-1.78,.06-.09-.08-.23-.23-.23h-.02c-.37,0-.7-.1-1-.33-.46-.35-.65-.96-.47-1.51,.18-.54,.68-.92,1.25-.94,.01,0,.03,0,.04,0,.68,0,1.3,.53,1.4,1.21,.01,.1,.02,.19,.03,.29,.01,.11,.08,.17,.16,.17,.04,0,.07-.01,.11-.04,.5-.36,1.06-.61,1.66-.76,.05-.01,.13,0,.14-.07,0-.08,.02-.16-.06-.23-.25-.23-.4-.51-.48-.84-.16-.73,.31-1.45,1.07-1.62,.09-.02,.18-.03,.27-.03m0-.75c-.15,0-.3,.02-.44,.05-1.17,.27-1.88,1.38-1.63,2.52,.04,.18,.1,.35,.17,.5-.14,.05-.27,.12-.4,.18-.33-.79-1.11-1.33-1.99-1.33h-.07c-.89,.03-1.67,.61-1.94,1.45-.28,.85,.01,1.79,.72,2.34,.21,.16,.43,.28,.67,.36-.06,.14-.11,.27-.15,.42-.27-.12-.56-.18-.86-.18-.18,0-.37,.02-.55,.07-1.04,.25-1.71,1.25-1.58,2.34,.13,1.02,1.04,1.82,2.08,1.82,.4,0,.76-.1,1.09-.27,.06,.14,.12,.28,.19,.41-.08,.03-.16,.06-.24,.1-.99,.49-1.45,1.63-1.08,2.64,.3,.83,1.1,1.39,1.99,1.39,.17,0,.34-.02,.51-.06,.77-.18,1.35-.78,1.55-1.55,.14,.06,.29,.12,.44,.16-.02,.04-.04,.08-.05,.11-.35,.81-.19,1.74,.4,2.37,.39,.41,.95,.65,1.53,.65,.25,0,.5-.04,.74-.13,.66-.25,1.15-.81,1.31-1.5,.13-.55,.04-1.12-.24-1.6,.15-.06,.29-.12,.43-.19,.07,.21,.17,.41,.3,.59,.41,.57,1.06,.91,1.74,.91,.31,0,.6-.07,.88-.2,.92-.43,1.41-1.46,1.16-2.46-.19-.74-.76-1.3-1.5-1.52,.06-.14,.12-.28,.17-.42,.29,.14,.6,.21,.93,.21,.18,0,.37-.02,.56-.07,1.1-.26,1.8-1.41,1.54-2.5-.23-.98-1.08-1.67-2.06-1.67-.15,0-.3,.02-.45,.05-.2,.04-.39,.11-.56,.19-.05-.14-.11-.28-.18-.41,.02,0,.04-.02,.07-.03,.82-.38,1.28-1.06,1.3-1.91,.02-.88-.43-1.6-1.23-1.97-.3-.14-.6-.21-.9-.21-.49,0-.96,.18-1.37,.53-.29,.25-.5,.56-.63,.91-.13-.06-.27-.11-.41-.16,.18-.43,.21-.88,.1-1.36-.22-.93-1.08-1.61-2.05-1.61h0Z"/>
      </g>
      <path class="cls-5" d="M82.02,70.73c-.02-.61,.43-1.1,1.04-1.14,.6-.03,1.13,.46,1.15,1.06,.02,.6-.46,1.1-1.06,1.12-.6,.02-1.1-.45-1.13-1.05Z"/>
      <path class="cls-5" d="M86.15,68.29c.01,.49-.38,.9-.86,.9-.48,0-.88-.38-.89-.86-.01-.49,.36-.88,.86-.9,.48-.01,.88,.36,.89,.85Z"/>
      <path class="cls-5" d="M86.13,72.9c.02,.4-.3,.75-.71,.76-.4,.01-.73-.3-.75-.7-.02-.41,.3-.74,.71-.75,.4-.01,.73,.3,.75,.7Z"/>
      <path class="cls-5" d="M86.37,70.57c-.02-.61,.44-1.1,1.05-1.12,.6-.03,1.13,.46,1.14,1.06,.02,.6-.48,1.12-1.08,1.12-.6,0-1.09-.46-1.11-1.06Z"/>
    </g>
    <g>
      <g>
        <path class="cls-2" d="M66.42,273.49c-.8,0-1.57-.33-2.12-.9-.82-.86-1.04-2.15-.55-3.29,.14-.32,.29-.65,.59-.9,.02-.03,.02-.09,.02-.15-.98-.2-1.86-.53-2.67-.99-.05,.08-.07,.14-.08,.24-.06,1.45-.97,2.62-2.26,2.93-.23,.06-.47,.08-.71,.08-1.23,0-2.33-.77-2.75-1.91-.52-1.43,.12-2.96,1.51-3.66,.41-.21,.86-.32,1.38-.35-.58-.84-.98-1.7-1.24-2.6-.66,.61-1.43,.93-2.3,.95h0c-1.44,0-2.72-1.12-2.9-2.5-.19-1.5,.74-2.89,2.16-3.23,.27-.06,.53-.1,.79-.1,.76,0,1.45,.27,2.05,.8,.19-.95,.51-1.85,.95-2.66-.72-.04-1.35-.27-1.89-.69-.98-.76-1.38-2.05-1-3.22,.38-1.16,1.46-1.96,2.68-2h0c1.54,0,2.84,1.13,3.06,2.57,.01,.08,.02,.17,.03,.25,.72-.51,1.57-.91,2.5-1.18-.37-.41-.62-.92-.75-1.51-.35-1.57,.65-3.1,2.26-3.47,.19-.04,.39-.07,.59-.07,1.31,0,2.52,.95,2.82,2.21,.23,.99,.03,1.9-.61,2.72,.88,.19,1.73,.52,2.54,.98,.07-.9,.44-1.65,1.08-2.2,.58-.49,1.21-.75,1.88-.75,.41,0,.84,.1,1.25,.29,1.12,.52,1.72,1.48,1.69,2.71-.03,1.2-.66,2.11-1.82,2.65-.33,.15-.67,.24-1.01,.27,.5,.8,.87,1.66,1.09,2.55,.44-.39,.99-.68,1.64-.82,.2-.04,.41-.07,.61-.07,1.35,0,2.52,.95,2.84,2.32,.35,1.47-.64,3.07-2.12,3.43-.27,.06-.54,.1-.79,.1-.78,0-1.5-.29-2.12-.86h0c-.21,.94-.57,1.84-1.08,2.68,.05,.03,.1,.04,.16,.04,1.44,.05,2.63,.94,2.96,2.23,.35,1.4-.3,2.8-1.6,3.4-.39,.18-.8,.27-1.22,.27-.94,0-1.84-.47-2.41-1.26-.36-.51-.57-1.11-.61-1.79,0,0,0,0,0,0,0,0-.02-.02-.04-.04-.8,.52-1.68,.9-2.61,1.15,.02,.11,.06,.19,.15,.28,.72,.76,1.01,1.82,.77,2.81-.22,.95-.9,1.72-1.81,2.06-.32,.12-.66,.18-1.01,.18Z"/>
        <path class="cls-4" d="M65.79,246.45c1.05,0,2.08,.76,2.33,1.82,.22,.93-.03,1.75-.65,2.46-.08,.1-.16,.18-.16,.33,0,.16,.06,.22,.21,.24,1.08,.18,2.08,.57,3.01,1.15,.07,.04,.13,.14,.21,.14,.03,0,.06-.01,.09-.04,.12-.1,.22-.21,.21-.41-.01-.82,.25-1.55,.89-2.09,.48-.41,1-.62,1.55-.62,.34,0,.69,.08,1.04,.25,.94,.44,1.43,1.21,1.41,2.25-.02,1.05-.59,1.77-1.53,2.2-.32,.15-.66,.23-1.01,.23,0,0-.02,0-.03,0h0c-.23,0-.31,.16-.43,.28-.08,.08,.02,.13,.05,.18,.61,.9,1.04,1.87,1.28,2.93,.02,.09-.02,.27,.12,.27h0c.08,0,.17,.01,.25,.01,.11,0,.21-.02,.3-.13,.4-.45,.91-.71,1.5-.84,.17-.04,.34-.06,.5-.06,1.09,0,2.08,.77,2.36,1.93,.29,1.2-.53,2.53-1.75,2.82-.23,.06-.46,.08-.68,.08-.66,0-1.26-.25-1.78-.73-.13-.12-.26-.14-.4-.14-.08,0-.16,0-.24,0-.01,0-.03,0-.04,0,0,0,0,0,0,0-.1,0-.08,.11-.1,.17-.2,1.08-.61,2.07-1.21,2.99-.06,.09-.07,.15,.02,.23,.2,.18,.38,.33,.7,.34,1.24,.04,2.22,.8,2.49,1.85,.29,1.16-.26,2.33-1.32,2.83-.33,.15-.67,.22-1.01,.22-.77,0-1.52-.37-2-1.05-.33-.46-.48-.97-.52-1.53,0-.15-.34-.58-.48-.62-.01,0-.02,0-.03,0-.06,0-.09,.05-.13,.08-.88,.6-1.84,1.02-2.88,1.26-.11,.03-.15,.06-.15,.17,0,.33,.04,.6,.3,.88,1.25,1.34,.8,3.45-.85,4.07-.27,.1-.56,.15-.84,.15-.65,0-1.3-.26-1.76-.74-.69-.72-.86-1.79-.45-2.75,.11-.26,.24-.53,.45-.71,.31-.26,.17-.58,.18-.88,0-.09-.08-.08-.14-.09-1.06-.18-2.05-.54-2.97-1.11-.05-.03-.09-.04-.12-.04-.04,0-.08,.02-.13,.08-.19,.21-.35,.4-.37,.74-.05,1.25-.82,2.21-1.88,2.47-.2,.05-.4,.07-.59,.07-1.01,0-1.93-.61-2.28-1.58-.43-1.18,.11-2.46,1.26-3.04,.37-.19,.77-.27,1.18-.3,.14,0,.56-.33,.58-.45,.01-.07-.04-.12-.08-.17-.63-.87-1.09-1.82-1.35-2.87-.03-.13-.19-.2-.36-.2-.14,0-.28,.05-.38,.14-.54,.56-1.2,.87-1.99,.88-.01,0-.02,0-.03,0-1.16,0-2.22-.92-2.36-2.06-.16-1.24,.61-2.4,1.78-2.68,.23-.05,.45-.08,.67-.08,.65,0,1.24,.24,1.76,.72,.16,.14,.31,.16,.47,.16,.05,0,.1,0,.15,0h.01c.12,0,.09-.09,.1-.16,.18-1.13,.55-2.18,1.15-3.16,.1-.16-.14-.41-.4-.41h0s-.02,0-.04,0c-.65,0-1.25-.18-1.77-.59-.81-.62-1.15-1.71-.83-2.67,.32-.96,1.2-1.62,2.22-1.66,.03,0,.05,0,.08,0,1.21,0,2.29,.93,2.47,2.14,.02,.17,.04,.34,.05,.52,.02,.19,.14,.3,.28,.3,.06,0,.13-.02,.2-.07,.89-.64,1.87-1.08,2.93-1.35,.09-.02,.23,0,.24-.12,.01-.14,.04-.28-.1-.4-.45-.4-.72-.9-.85-1.49-.29-1.3,.54-2.56,1.89-2.88,.16-.04,.32-.05,.48-.05m0-1c-.24,0-.48,.03-.71,.08-1.89,.44-3.05,2.22-2.64,4.07,.09,.42,.24,.8,.44,1.14-.47,.17-.91,.37-1.34,.61-.44-1.45-1.8-2.49-3.35-2.49h-.11c-1.43,.05-2.69,.99-3.14,2.35-.45,1.37,.02,2.89,1.17,3.77,.43,.34,.92,.57,1.44,.69-.21,.45-.38,.93-.51,1.42-.53-.31-1.12-.46-1.73-.46-.3,0-.6,.04-.9,.11-1.67,.4-2.76,2.03-2.54,3.78,.21,1.65,1.68,2.94,3.35,2.94,.79-.01,1.48-.22,2.08-.63,.18,.48,.4,.95,.66,1.4-.27,.07-.52,.16-.76,.28-1.6,.8-2.35,2.64-1.76,4.28,.49,1.34,1.78,2.24,3.22,2.24,.27,0,.55-.03,.82-.1,1.36-.32,2.35-1.46,2.59-2.9,.48,.23,.97,.41,1.48,.56-.11,.18-.19,.35-.26,.52-.57,1.32-.32,2.83,.64,3.83,.64,.67,1.54,1.05,2.48,1.05,.41,0,.81-.07,1.19-.21,1.07-.4,1.86-1.3,2.12-2.42,.24-1.02,0-2.08-.61-2.92,.51-.17,.99-.39,1.46-.64,.11,.49,.31,.93,.6,1.33,.66,.92,1.71,1.47,2.82,1.47,.49,0,.97-.11,1.43-.32,1.49-.69,2.28-2.36,1.87-3.98-.33-1.32-1.43-2.28-2.82-2.54,.24-.47,.43-.95,.58-1.45,.56,.34,1.18,.52,1.83,.52,.3,0,.6-.04,.91-.11,1.74-.42,2.9-2.3,2.49-4.03-.38-1.59-1.75-2.7-3.33-2.7-.24,0-.48,.03-.72,.08-.46,.1-.88,.27-1.25,.5-.16-.47-.36-.93-.59-1.38,.15-.05,.29-.1,.44-.17,1.33-.61,2.08-1.71,2.11-3.09,.03-1.42-.69-2.58-1.98-3.18-.48-.22-.98-.34-1.46-.34-.78,0-1.55,.3-2.21,.87-.57,.49-.94,1.1-1.12,1.82-.45-.22-.91-.4-1.38-.54,.41-.78,.51-1.64,.3-2.52-.35-1.48-1.77-2.59-3.3-2.59h0Z"/>
      </g>
      <path class="cls-5" d="M60.23,259.91c-.04-1.08,.77-1.96,1.84-2.01,1.07-.05,2,.81,2.03,1.88,.03,1.06-.81,1.95-1.88,1.99-1.06,.04-1.95-.79-1.99-1.86Z"/>
      <path class="cls-5" d="M67.53,255.58c.02,.86-.67,1.59-1.52,1.6-.84,.01-1.55-.67-1.57-1.51-.02-.87,.64-1.57,1.52-1.58,.86-.02,1.55,.64,1.57,1.5Z"/>
      <path class="cls-5" d="M67.5,263.75c.03,.72-.54,1.32-1.26,1.34-.7,.02-1.29-.54-1.32-1.24-.03-.72,.53-1.32,1.26-1.34,.71-.02,1.29,.53,1.32,1.24Z"/>
      <path class="cls-5" d="M67.92,259.62c-.03-1.07,.78-1.94,1.85-1.99,1.06-.05,1.99,.82,2.02,1.88,.03,1.07-.85,1.98-1.91,1.99-1.07,.01-1.93-.81-1.96-1.88Z"/>
    </g>
    <g>
      <path class="cls-3" d="M84.96,105.7v-8.59c0-2.47,1.28-3.93,3.7-3.93s3.7,1.46,3.7,3.93v1.69h-2.38v-1.85c0-1.05-.5-1.49-1.26-1.49s-1.26,.43-1.26,1.49v8.94c0,1.05,.5,1.46,1.26,1.46s1.26-.41,1.26-1.46v-2.45h2.38v2.26c0,2.47-1.28,3.93-3.7,3.93s-3.7-1.46-3.7-3.93Z"/>
      <path class="cls-3" d="M95.82,93.4h3.41l2.61,16h-2.51l-.46-3.18v.05h-2.86l-.46,3.13h-2.33l2.61-16Zm2.74,10.7l-1.12-7.91h-.05l-1.1,7.91h2.26Z"/>
      <path class="cls-3" d="M102.9,105.61v-12.21h2.51v12.39c0,1.14,.48,1.55,1.28,1.55s1.28-.41,1.28-1.55v-12.39h2.42v12.21c0,2.56-1.28,4.02-3.75,4.02s-3.75-1.46-3.75-4.02Z"/>
      <path class="cls-3" d="M111.74,105.61v-.91h2.38v1.1c0,1.14,.5,1.55,1.3,1.55s1.3-.41,1.3-1.6c0-1.33-.5-2.17-2.15-3.61-2.1-1.85-2.79-3.15-2.79-4.98,0-2.51,1.3-3.98,3.75-3.98s3.66,1.46,3.66,4.02v.66h-2.38v-.82c0-1.14-.46-1.58-1.26-1.58s-1.26,.43-1.26,1.53c0,1.17,.53,2.01,2.17,3.45,2.1,1.85,2.77,3.13,2.77,5.12,0,2.61-1.33,4.07-3.79,4.07s-3.7-1.46-3.7-4.02Z"/>
      <path class="cls-3" d="M120.68,93.4h6.86v2.29h-4.34v4.23h3.45v2.29h-3.45v4.91h4.34v2.29h-6.86v-16Z"/>
      <path class="cls-3" d="M128.97,93.4h3.84c2.51,0,3.75,1.39,3.75,3.95v8.09c0,2.56-1.23,3.95-3.75,3.95h-3.84v-16Zm3.79,13.71c.8,0,1.28-.41,1.28-1.55v-8.32c0-1.14-.48-1.55-1.28-1.55h-1.28v11.43h1.28Z"/>
      <path class="cls-3" d="M70.89,116.25h2.51v13.71h4.14v2.29h-6.65v-16Z"/>
      <path class="cls-3" d="M78.75,116.25h6.86v2.29h-4.34v4.23h3.45v2.29h-3.45v4.91h4.34v2.29h-6.86v-16Z"/>
      <path class="cls-3" d="M88.98,116.25h3.41l2.61,16h-2.51l-.46-3.18v.05h-2.86l-.46,3.13h-2.33l2.61-16Zm2.74,10.7l-1.12-7.91h-.05l-1.1,7.91h2.26Z"/>
      <path class="cls-3" d="M96.21,116.25h3.73c2.61,0,3.73,1.21,3.73,3.68v.98c0,1.65-.53,2.7-1.65,3.15v.05c1.26,.39,1.67,1.58,1.67,3.38v2.81c0,.78,.02,1.35,.27,1.94h-2.56c-.14-.41-.23-.66-.23-1.97v-2.93c0-1.49-.43-1.97-1.58-1.97h-.87v6.86h-2.51v-16Zm3.43,6.86c.94,0,1.51-.41,1.51-1.69v-1.23c0-1.14-.39-1.65-1.28-1.65h-1.14v4.57h.91Z"/>
      <path class="cls-3" d="M105.41,116.25h3.15l2.45,9.58h.05v-9.58h2.24v16h-2.58l-3.02-11.68h-.05v11.68h-2.24v-16Z"/>
      <path class="cls-3" d="M115.17,116.25h2.51v16h-2.51v-16Z"/>
      <path class="cls-3" d="M119.56,116.25h3.15l2.45,9.58h.05v-9.58h2.24v16h-2.58l-3.02-11.68h-.05v11.68h-2.24v-16Z"/>
      <path class="cls-3" d="M129.13,128.46v-8.41c0-2.56,1.28-4.02,3.75-4.02s3.75,1.46,3.75,4.02v1.37h-2.38v-1.53c0-1.14-.5-1.58-1.3-1.58s-1.3,.43-1.3,1.58v8.75c0,1.14,.5,1.55,1.3,1.55s1.3-.41,1.3-1.55v-3.13h-1.26v-2.29h3.63v5.23c0,2.56-1.28,4.02-3.75,4.02s-3.75-1.46-3.75-4.02Z"/>
      <path class="cls-3" d="M87.5,139.11h2.51v13.71h4.14v2.29h-6.65v-16Z"/>
      <path class="cls-3" d="M95.09,151.31v-8.41c0-2.56,1.35-4.02,3.82-4.02s3.82,1.46,3.82,4.02v8.41c0,2.56-1.35,4.02-3.82,4.02s-3.82-1.46-3.82-4.02Zm5.12,.16v-8.73c0-1.14-.5-1.58-1.3-1.58s-1.3,.43-1.3,1.58v8.73c0,1.14,.5,1.58,1.3,1.58s1.3-.43,1.3-1.58Z"/>
      <path class="cls-3" d="M103.97,151.31v-.91h2.38v1.1c0,1.14,.5,1.55,1.3,1.55s1.3-.41,1.3-1.6c0-1.33-.5-2.17-2.15-3.61-2.1-1.85-2.79-3.15-2.79-4.98,0-2.51,1.3-3.98,3.75-3.98s3.66,1.46,3.66,4.02v.66h-2.38v-.82c0-1.14-.46-1.58-1.26-1.58s-1.26,.43-1.26,1.53c0,1.17,.53,2.01,2.17,3.45,2.1,1.85,2.77,3.13,2.77,5.12,0,2.61-1.33,4.07-3.79,4.07s-3.7-1.46-3.7-4.02Z"/>
      <path class="cls-3" d="M112.48,151.31v-.91h2.38v1.1c0,1.14,.5,1.55,1.3,1.55s1.3-.41,1.3-1.6c0-1.33-.5-2.17-2.15-3.61-2.1-1.85-2.79-3.15-2.79-4.98,0-2.51,1.3-3.98,3.75-3.98s3.66,1.46,3.66,4.02v.66h-2.38v-.82c0-1.14-.46-1.58-1.26-1.58s-1.26,.43-1.26,1.53c0,1.17,.53,2.01,2.17,3.45,2.1,1.85,2.77,3.13,2.77,5.12,0,2.61-1.33,4.07-3.79,4.07s-3.7-1.46-3.7-4.02Z"/>
      <path class="cls-3" d="M121.41,139.11h6.86v2.29h-4.34v4.23h3.45v2.29h-3.45v4.91h4.34v2.29h-6.86v-16Z"/>
      <path class="cls-3" d="M129.32,151.31v-.91h2.38v1.1c0,1.14,.5,1.55,1.3,1.55s1.3-.41,1.3-1.6c0-1.33-.5-2.17-2.15-3.61-2.1-1.85-2.79-3.15-2.79-4.98,0-2.51,1.3-3.98,3.75-3.98s3.66,1.46,3.66,4.02v.66h-2.38v-.82c0-1.14-.46-1.58-1.26-1.58s-1.26,.43-1.26,1.53c0,1.17,.53,2.01,2.17,3.45,2.1,1.85,2.77,3.13,2.77,5.12,0,2.61-1.33,4.07-3.79,4.07s-3.7-1.46-3.7-4.02Z"/>
    </g>
    <g>
      <rect class="cls-2" x="74.77" y="160.13" width="42.25" height="22.74"/>
      <g>
        <path class="cls-1" d="M83.89,176.59h-4.8v-2.29l4.57-10.81h2.74v10.81h1.19v2.29h-1.19v2.9h-2.51v-2.9Zm0-2.29v-6.24h-.05l-2.47,6.24h2.51Z"/>
        <path class="cls-1" d="M92.11,166.69h1.54v9.81h-1.54v-9.81Z"/>
        <path class="cls-1" d="M94.8,166.69h1.93l1.5,5.87h.03v-5.87h1.37v9.81h-1.58l-1.85-7.16h-.03v7.16h-1.37v-9.81Z"/>
        <path class="cls-1" d="M104.73,175.7v-1.26h2.38v1.44c0,1.14,.5,1.55,1.3,1.55s1.3-.41,1.3-1.55v-3.59c0-1.14-.5-1.58-1.3-1.58s-1.3,.43-1.3,1.58v.14h-2.38l.46-8.94h6.63v2.29h-4.39l-.21,3.82h.05c.46-.75,1.17-1.17,2.17-1.17,1.85,0,2.79,1.3,2.79,3.66v3.61c0,2.56-1.28,4.02-3.75,4.02s-3.75-1.46-3.75-4.02Z"/>
        <path class="cls-3" d="M121.07,175.7v-8.41c0-2.56,1.35-4.02,3.82-4.02s3.82,1.46,3.82,4.02v8.41c0,2.56-1.35,4.02-3.82,4.02s-3.82-1.46-3.82-4.02Zm5.12,.16v-8.73c0-1.14-.5-1.58-1.3-1.58s-1.3,.43-1.3,1.58v8.73c0,1.14,.5,1.58,1.3,1.58s1.3-.43,1.3-1.58Z"/>
        <path class="cls-3" d="M130.39,163.49h6.65v2.29h-4.14v4.46h3.25v2.29h-3.25v6.97h-2.51v-16Z"/>
        <path class="cls-3" d="M35.06,191.28h-2.63v-1.78c2.13,0,2.88-.46,3.45-2.01h1.69v16h-2.51v-12.21Z"/>
        <path class="cls-3" d="M40.49,199.7v-8.41c0-2.56,1.35-4.02,3.82-4.02s3.82,1.46,3.82,4.02v8.41c0,2.56-1.35,4.02-3.82,4.02s-3.82-1.46-3.82-4.02Zm5.12,.16v-8.73c0-1.14-.5-1.58-1.3-1.58s-1.3,.43-1.3,1.58v8.73c0,1.14,.5,1.58,1.3,1.58s1.3-.43,1.3-1.58Z"/>
        <path class="cls-3" d="M54.02,200.59h-4.8v-2.29l4.57-10.81h2.74v10.81h1.19v2.29h-1.19v2.9h-2.51v-2.9Zm0-2.29v-6.24h-.05l-2.47,6.24h2.51Z"/>
        <path class="cls-3" d="M62.45,199.79v-8.59c0-2.47,1.28-3.93,3.7-3.93s3.7,1.46,3.7,3.93v1.69h-2.38v-1.85c0-1.05-.5-1.49-1.26-1.49s-1.26,.43-1.26,1.49v8.94c0,1.05,.5,1.46,1.26,1.46s1.26-.41,1.26-1.46v-2.45h2.38v2.26c0,2.47-1.28,3.93-3.7,3.93s-3.7-1.46-3.7-3.93Z"/>
        <path class="cls-3" d="M71.23,199.7v-8.41c0-2.56,1.35-4.02,3.82-4.02s3.82,1.46,3.82,4.02v8.41c0,2.56-1.35,4.02-3.82,4.02s-3.82-1.46-3.82-4.02Zm5.12,.16v-8.73c0-1.14-.5-1.58-1.3-1.58s-1.3,.43-1.3,1.58v8.73c0,1.14,.5,1.58,1.3,1.58s1.3-.43,1.3-1.58Z"/>
        <path class="cls-3" d="M80.46,199.7v-12.21h2.51v12.39c0,1.14,.48,1.55,1.28,1.55s1.28-.41,1.28-1.55v-12.39h2.42v12.21c0,2.56-1.28,4.02-3.75,4.02s-3.75-1.46-3.75-4.02Z"/>
        <path class="cls-3" d="M89.74,187.49h3.15l2.45,9.58h.05v-9.58h2.24v16h-2.58l-3.02-11.68h-.05v11.68h-2.24v-16Z"/>
        <path class="cls-3" d="M101.46,189.78h-2.63v-2.29h7.77v2.29h-2.63v13.71h-2.51v-13.71Z"/>
        <path class="cls-3" d="M107.81,187.49h3.73c2.61,0,3.73,1.21,3.73,3.68v.98c0,1.65-.53,2.7-1.65,3.15v.05c1.26,.39,1.67,1.58,1.67,3.38v2.81c0,.78,.02,1.35,.27,1.94h-2.56c-.14-.41-.23-.66-.23-1.97v-2.93c0-1.49-.43-1.97-1.58-1.97h-.87v6.86h-2.51v-16Zm3.43,6.86c.94,0,1.51-.41,1.51-1.69v-1.23c0-1.14-.39-1.65-1.28-1.65h-1.14v4.57h.91Z"/>
        <path class="cls-3" d="M117.02,187.49h2.51v16h-2.51v-16Z"/>
        <path class="cls-3" d="M121.41,187.49h6.86v2.29h-4.34v4.23h3.45v2.29h-3.45v4.91h4.34v2.29h-6.86v-16Z"/>
        <path class="cls-3" d="M129.32,199.7v-.91h2.38v1.1c0,1.14,.5,1.55,1.3,1.55s1.3-.41,1.3-1.6c0-1.33-.5-2.17-2.15-3.61-2.1-1.85-2.79-3.15-2.79-4.98,0-2.51,1.3-3.98,3.75-3.98s3.66,1.46,3.66,4.02v.66h-2.38v-.82c0-1.14-.46-1.58-1.26-1.58s-1.26,.43-1.26,1.53c0,1.17,.53,2.01,2.17,3.45,2.1,1.85,2.77,3.13,2.77,5.12,0,2.61-1.33,4.07-3.79,4.07s-3.7-1.46-3.7-4.02Z"/>
        <path class="cls-3" d="M80.57,223.7v-.91h2.38v1.1c0,1.14,.5,1.55,1.3,1.55s1.3-.41,1.3-1.6c0-1.33-.5-2.17-2.15-3.61-2.1-1.85-2.79-3.15-2.79-4.98,0-2.51,1.3-3.98,3.75-3.98s3.66,1.46,3.66,4.02v.66h-2.38v-.82c0-1.14-.46-1.58-1.26-1.58s-1.26,.43-1.26,1.53c0,1.17,.53,2.01,2.17,3.45,2.1,1.85,2.77,3.13,2.77,5.12,0,2.61-1.33,4.07-3.79,4.07s-3.7-1.46-3.7-4.02Z"/>
        <path class="cls-3" d="M91.48,213.78h-2.63v-2.29h7.77v2.29h-2.63v13.71h-2.51v-13.71Z"/>
        <path class="cls-3" d="M97.74,223.7v-12.21h2.51v12.39c0,1.14,.48,1.55,1.28,1.55s1.28-.41,1.28-1.55v-12.39h2.42v12.21c0,2.56-1.28,4.02-3.75,4.02s-3.75-1.46-3.75-4.02Z"/>
        <path class="cls-3" d="M107.01,211.49h3.84c2.51,0,3.75,1.39,3.75,3.95v8.09c0,2.56-1.23,3.95-3.75,3.95h-3.84v-16Zm3.79,13.71c.8,0,1.28-.41,1.28-1.55v-8.32c0-1.14-.48-1.55-1.28-1.55h-1.28v11.43h1.28Z"/>
        <path class="cls-3" d="M116.29,211.49h2.51v16h-2.51v-16Z"/>
        <path class="cls-3" d="M120.68,211.49h6.86v2.29h-4.34v4.23h3.45v2.29h-3.45v4.91h4.34v2.29h-6.86v-16Z"/>
        <path class="cls-3" d="M128.97,211.49h3.84c2.51,0,3.75,1.39,3.75,3.95v8.09c0,2.56-1.23,3.95-3.75,3.95h-3.84v-16Zm3.79,13.71c.8,0,1.28-.41,1.28-1.55v-8.32c0-1.14-.48-1.55-1.28-1.55h-1.28v11.43h1.28Z"/>
      </g>
      <g>
        <path class="cls-3" d="M57.2,163.46h2.51v16h-2.51v-16Z"/>
        <path class="cls-3" d="M61.59,163.46h3.15l2.45,9.58h.05v-9.58h2.24v16h-2.58l-3.02-11.68h-.05v11.68h-2.24v-16Z"/>
      </g>
    </g>
    <g>
      <line class="cls-6" x1="105.83" y1="67.43" x2="105.83" y2="85.74"/>
      <g>
        <circle class="cls-1" cx="105.83" cy="85.63" r="1.88"/>
        <path class="cls-2" d="M103.7,85.63c0-1.17,.96-2.13,2.13-2.13s2.13,.96,2.13,2.13-.96,2.13-2.13,2.13-2.13-.96-2.13-2.13,0,1.17,0,0Zm3.76,0c0-.9-.73-1.63-1.63-1.63s-1.63,.73-1.63,1.63,.73,1.63,1.63,1.63,1.63-.73,1.63-1.63,0,.9,0,0Z"/>
      </g>
    </g>
  </g>
</svg>