<?xml version="1.0" encoding="UTF-8"?>
<svg id="Layer_2" data-name="Layer 2" xmlns="http://www.w3.org/2000/svg" viewBox="0 0 353.22 318.59">
  <defs>
    <style>
      .cls-1 {
        fill: #bdbcbb;
      }

      .cls-2 {
        fill: #fff;
      }

      .cls-3 {
        fill: #cb544d;
      }

      .cls-4, .cls-5, .cls-6, .cls-7, .cls-8 {
        stroke-miterlimit: 10;
      }

      .cls-4, .cls-5, .cls-6, .cls-7, .cls-8, .cls-9, .cls-10 {
        fill: none;
      }

      .cls-4, .cls-6 {
        stroke-width: 4px;
      }

      .cls-4, .cls-7 {
        stroke: #bdbcbb;
      }

      .cls-11, .cls-12 {
        fill: #939598;
      }

      .cls-13 {
        fill: #8c8a8a;
      }

      .cls-5 {
        stroke-width: 2px;
      }

      .cls-5, .cls-6 {
        stroke: #edcbc2;
      }

      .cls-14, .cls-15 {
        fill: #c22033;
      }

      .cls-14, .cls-12, .cls-16 {
        fill-rule: evenodd;
      }

      .cls-17 {
        fill: #777677;
      }

      .cls-8, .cls-9, .cls-10 {
        stroke: #c22033;
      }

      .cls-18 {
        fill: #f2f2ef;
      }

      .cls-19, .cls-16 {
        fill: #a14841;
      }

      .cls-9 {
        stroke-dasharray: 0 0 0 2.89;
      }

      .cls-9, .cls-10 {
        stroke-linecap: round;
        stroke-linejoin: round;
        stroke-width: 1.75px;
      }
    </style>
  </defs>
  <g id="Layer_2-2" data-name="Layer 2">
    <path class="cls-18" d="M5.96,132.67H348.13v176.95H5.96V132.67Z"/>
    <path class="cls-7" d="M.5,127.84H352.71v182.28H.5V127.84Z"/>
    <rect class="cls-2" x="79.64" y="116.26" width="206.05" height="16.2"/>
    <g>
      <path class="cls-17" d="M86.53,118.66h1.48l.69,7.54h.03l.73-7.54h1.68l.73,7.54h.03l.69-7.54h1.33l-.99,9.81h-1.92l-.7-6.61h-.03l-.7,6.61h-2.04l-.99-9.81Z"/>
      <path class="cls-17" d="M94.98,118.66h1.54v9.81h-1.54v-9.81Z"/>
      <path class="cls-17" d="M99.15,120.06h-1.61v-1.4h4.76v1.4h-1.61v8.4h-1.54v-8.4Z"/>
      <path class="cls-17" d="M103.32,118.66h1.54v3.99h1.65v-3.99h1.54v9.81h-1.54v-4.41h-1.65v4.41h-1.54v-9.81Z"/>
      <path class="cls-17" d="M109.37,126.14v-5.15c0-1.57,.83-2.47,2.34-2.47s2.34,.9,2.34,2.47v5.15c0,1.57-.83,2.47-2.34,2.47s-2.34-.9-2.34-2.47Zm3.14,.1v-5.35c0-.7-.31-.97-.8-.97s-.8,.27-.8,.97v5.35c0,.7,.31,.97,.8,.97s.8-.27,.8-.97Z"/>
      <path class="cls-17" d="M115.3,126.14v-7.48h1.54v7.59c0,.7,.29,.95,.78,.95s.78-.25,.78-.95v-7.59h1.48v7.48c0,1.57-.78,2.47-2.3,2.47s-2.3-.9-2.3-2.47Z"/>
      <path class="cls-17" d="M122.47,120.06h-1.61v-1.4h4.76v1.4h-1.61v8.4h-1.54v-8.4Z"/>
      <path class="cls-17" d="M130.36,118.66h2.09l1.6,9.81h-1.54l-.28-1.95v.03h-1.75l-.28,1.92h-1.43l1.6-9.81Zm1.68,6.56l-.69-4.85h-.03l-.67,4.85h1.39Z"/>
      <path class="cls-17" d="M135.06,118.66h2.35c1.54,0,2.3,.85,2.3,2.42v4.96c0,1.57-.76,2.42-2.3,2.42h-2.35v-9.81Zm2.33,8.4c.49,0,.78-.25,.78-.95v-5.1c0-.7-.29-.95-.78-.95h-.78v7h.78Z"/>
      <path class="cls-17" d="M141.02,118.66h2.35c1.54,0,2.3,.85,2.3,2.42v4.96c0,1.57-.76,2.42-2.3,2.42h-2.35v-9.81Zm2.33,8.4c.49,0,.78-.25,.78-.95v-5.1c0-.7-.29-.95-.78-.95h-.78v7h.78Z"/>
      <path class="cls-17" d="M146.99,118.66h1.54v9.81h-1.54v-9.81Z"/>
      <path class="cls-17" d="M151.16,120.06h-1.61v-1.4h4.76v1.4h-1.61v8.4h-1.54v-8.4Z"/>
      <path class="cls-17" d="M155.33,118.66h1.54v9.81h-1.54v-9.81Z"/>
      <path class="cls-17" d="M158.19,126.14v-5.15c0-1.57,.83-2.47,2.34-2.47s2.34,.9,2.34,2.47v5.15c0,1.57-.83,2.47-2.34,2.47s-2.34-.9-2.34-2.47Zm3.14,.1v-5.35c0-.7-.31-.97-.8-.97s-.8,.27-.8,.97v5.35c0,.7,.31,.97,.8,.97s.8-.27,.8-.97Z"/>
      <path class="cls-17" d="M164.18,118.66h1.93l1.5,5.87h.03v-5.87h1.37v9.81h-1.58l-1.85-7.16h-.03v7.16h-1.37v-9.81Z"/>
      <path class="cls-17" d="M171.63,118.66h2.09l1.6,9.81h-1.54l-.28-1.95v.03h-1.75l-.28,1.92h-1.43l1.6-9.81Zm1.68,6.56l-.69-4.85h-.03l-.67,4.85h1.39Z"/>
      <path class="cls-17" d="M176.33,118.66h1.54v8.4h2.54v1.4h-4.08v-9.81Z"/>
      <path class="cls-17" d="M183.95,118.66h2.2l.98,7.02h.03l.98-7.02h2.2v9.81h-1.46v-7.42h-.03l-1.12,7.42h-1.29l-1.12-7.42h-.03v7.42h-1.34v-9.81Z"/>
      <path class="cls-17" d="M191.76,118.66h4.2v1.4h-2.66v2.59h2.12v1.4h-2.12v3.01h2.66v1.4h-4.2v-9.81Z"/>
      <path class="cls-17" d="M198.31,118.66h2.09l1.6,9.81h-1.54l-.28-1.95v.03h-1.75l-.28,1.92h-1.43l1.6-9.81Zm1.68,6.56l-.69-4.85h-.03l-.67,4.85h1.39Z"/>
      <path class="cls-17" d="M202.71,126.14v-.56h1.46v.67c0,.7,.31,.95,.8,.95s.8-.25,.8-.98c0-.81-.31-1.33-1.32-2.21-1.29-1.13-1.71-1.93-1.71-3.05,0-1.54,.8-2.44,2.3-2.44s2.24,.9,2.24,2.47v.41h-1.46v-.5c0-.7-.28-.97-.77-.97s-.77,.27-.77,.94c0,.71,.32,1.23,1.33,2.12,1.29,1.13,1.7,1.92,1.7,3.14,0,1.6-.81,2.49-2.33,2.49s-2.27-.9-2.27-2.47Z"/>
      <path class="cls-17" d="M208.4,126.14v-7.48h1.54v7.59c0,.7,.29,.95,.78,.95s.78-.25,.78-.95v-7.59h1.48v7.48c0,1.57-.78,2.47-2.3,2.47s-2.3-.9-2.3-2.47Z"/>
      <path class="cls-17" d="M214.37,118.66h2.28c1.6,0,2.28,.74,2.28,2.25v.6c0,1.01-.32,1.65-1.01,1.93v.03c.77,.24,1.02,.97,1.02,2.07v1.72c0,.48,.01,.83,.17,1.19h-1.57c-.08-.25-.14-.41-.14-1.2v-1.79c0-.91-.27-1.2-.97-1.2h-.53v4.2h-1.54v-9.81Zm2.1,4.2c.57,0,.92-.25,.92-1.04v-.76c0-.7-.24-1.01-.78-1.01h-.7v2.8h.56Z"/>
      <path class="cls-17" d="M220.29,118.66h4.2v1.4h-2.66v2.59h2.12v1.4h-2.12v3.01h2.66v1.4h-4.2v-9.81Z"/>
      <path class="cls-17" d="M225.41,126.14v-.56h1.46v.67c0,.7,.31,.95,.8,.95s.8-.25,.8-.98c0-.81-.31-1.33-1.32-2.21-1.29-1.13-1.71-1.93-1.71-3.05,0-1.54,.8-2.44,2.3-2.44s2.24,.9,2.24,2.47v.41h-1.46v-.5c0-.7-.28-.97-.77-.97s-.77,.27-.77,.94c0,.71,.32,1.23,1.33,2.12,1.29,1.13,1.7,1.92,1.7,3.14,0,1.6-.81,2.49-2.33,2.49s-2.27-.9-2.27-2.47Z"/>
      <path class="cls-17" d="M231.67,128.47h-.5v-1.48h1.48v1.33l-.77,1.84h-.71l.5-1.68Z"/>
      <path class="cls-17" d="M236.6,118.66h2.33c1.6,0,2.28,.74,2.28,2.25v.39c0,1.01-.31,1.64-.99,1.92v.03c.83,.28,1.15,1.01,1.15,2.05v.84c0,1.51-.8,2.33-2.34,2.33h-2.42v-9.81Zm2.14,3.99c.57,0,.92-.25,.92-1.04v-.55c0-.7-.24-1.01-.78-1.01h-.74v2.59h.6Zm.28,4.41c.52,0,.8-.24,.8-.97v-.85c0-.91-.29-1.19-.99-1.19h-.69v3.01h.88Z"/>
      <path class="cls-17" d="M243.73,124.29l-1.86-5.63h1.64l1.05,3.6h.03l1.05-3.6h1.5l-1.86,5.63v4.17h-1.54v-4.17Z"/>
      <path class="cls-17" d="M250.6,127.4c0-1.4,.39-2.26,1.54-3.46,1.18-1.25,1.51-1.99,1.51-2.9s-.31-1.12-.8-1.12-.8,.27-.8,.97v1.05h-1.46v-.95c0-1.57,.78-2.47,2.3-2.47s2.3,.9,2.3,2.47c0,1.16-.48,2.2-1.9,3.71-.92,.98-1.16,1.47-1.16,2.16v.21h2.93v1.4h-4.45v-1.06Z"/>
      <path class="cls-17" d="M256.4,126.14v-5.15c0-1.57,.83-2.47,2.34-2.47s2.34,.9,2.34,2.47v5.15c0,1.57-.83,2.47-2.34,2.47s-2.34-.9-2.34-2.47Zm3.14,.1v-5.35c0-.7-.31-.97-.8-.97s-.8,.27-.8,.97v5.35c0,.7,.31,.97,.8,.97s.8-.27,.8-.97Z"/>
      <path class="cls-17" d="M262.28,126.17v-.8h1.46v.87c0,.7,.31,.97,.8,.97s.8-.24,.8-1.11v-.8c0-.91-.31-1.25-1.01-1.25h-.52v-1.4h.56c.57,0,.92-.25,.92-1.04v-.71c0-.7-.32-.98-.77-.98s-.74,.27-.74,.91v.64h-1.46v-.52c0-1.57,.78-2.44,2.25-2.44s2.26,.85,2.26,2.42v.35c0,1.05-.34,1.69-1.09,1.98v.03c.83,.31,1.13,1.02,1.13,2.02v.87c0,1.57-.78,2.42-2.3,2.42s-2.3-.87-2.3-2.44Z"/>
      <path class="cls-17" d="M268.16,126.14v-5.15c0-1.57,.83-2.47,2.34-2.47s2.34,.9,2.34,2.47v5.15c0,1.57-.83,2.47-2.34,2.47s-2.34-.9-2.34-2.47Zm3.14,.1v-5.35c0-.7-.31-.97-.8-.97s-.8,.27-.8,.97v5.35c0,.7,.31,.97,.8,.97s.8-.27,.8-.97Z"/>
      <path class="cls-17" d="M274.15,121.65h1.48v1.48h-1.48v-1.48Zm0,5.34h1.48v1.48h-1.48v-1.48Z"/>
    </g>
    <path class="cls-1" d="M236.78,305.04h.24s6.65,0,6.65,0h.23s19.71,0,19.71,0h6.65s1.9,0,1.9,0h6.65s1.42,0,1.42,0v5.18h-36.33s-7.12,0-7.12,0v-5.18Z"/>
    <path class="cls-1" d="M289.08,305.04h.24s6.65,0,6.65,0h.23s19.71,0,19.71,0h6.65s1.9,0,1.9,0h6.65s1.42,0,1.42,0v5.18h-36.33s-7.12,0-7.12,0v-5.18Z"/>
    <path class="cls-2" d="M23.31,305.66h42.31v2.28H23.31v-2.28Zm2.85-8.28c.62,.54,1.93,.54,2.55,0l1.59-1.42,1.59,1.41c.31,.28,.78,.44,1.28,.44s.97-.16,1.29-.44l1.57-1.41,1.57,1.41c.62,.55,1.95,.55,2.57,0l1.56-1.4,1.54,1.39c.61,.55,1.95,.55,2.57,0l1.53-1.39,1.54,1.39c.31,.28,.78,.44,1.29,.44s.97-.16,1.29-.44l1.56-1.4,1.55,1.4c.61,.56,1.96,.56,2.57,0l1.55-1.39,1.55,1.39c.31,.28,.78,.44,1.29,.44s.97-.16,1.29-.44l1.56-1.4,1.21,1.09v6.31H23.31v-6.31l1.25-1.11,1.6,1.42Z"/>
    <path class="cls-1" d="M68.87,307.94v-10.26s0-2.28,0-2.28c0-.63-.73-1.14-1.63-1.14-.18,0-.31,.1-.47,.14l-1.08-.97c-.31-.28-.78-.44-1.29-.44s-.97,.16-1.29,.44l-1.56,1.4-1.55-1.4c-.61-.56-1.96-.56-2.57,0l-1.55,1.39-1.55-1.39c-.31-.28-.78-.44-1.29-.44s-.97,.16-1.29,.44l-1.56,1.4-1.55-1.4c-.31-.28-.78-.44-1.29-.44s-.98,.17-1.29,.44l-1.52,1.39-1.54-1.39c-.31-.28-.77-.44-1.28-.44h0c-.5,0-.97,.16-1.29,.44l-1.56,1.41-1.57-1.41c-.62-.55-1.95-.55-2.57,0l-1.57,1.41-1.59-1.41c-.31-.28-.77-.44-1.28-.44s-.97,.16-1.28,.43l-1.59,1.42-1.6-1.42c-.62-.54-1.93-.54-2.55,0l-1.11,.99c-.17-.04-.3-.14-.49-.14-.9,0-1.63,.51-1.63,1.14v6.84s0,2.28,0,2.28v5.7h48.82v-2.28Zm-45.57-2.28h42.31v2.28H23.31v-2.28Zm2.85-8.28c.62,.54,1.93,.54,2.55,0l1.59-1.42,1.59,1.41c.31,.28,.78,.44,1.28,.44s.97-.16,1.29-.44l1.57-1.41,1.57,1.41c.62,.55,1.95,.55,2.57,0l1.56-1.4,1.54,1.39c.61,.55,1.95,.55,2.57,0l1.53-1.39,1.54,1.39c.31,.28,.78,.44,1.29,.44s.97-.16,1.29-.44l1.56-1.4,1.55,1.4c.61,.56,1.96,.56,2.57,0l1.55-1.39,1.55,1.39c.31,.28,.78,.44,1.29,.44s.97-.16,1.29-.44l1.56-1.4,1.21,1.09v6.31H23.31v-6.31l1.25-1.11,1.6,1.42Z"/>
    <line class="cls-4" x1="0" y1="316.59" x2="353.22" y2="316.59"/>
    <g>
      <rect class="cls-15" x="113.25" width="124.84" height="20.81"/>
      <g>
        <path class="cls-2" d="M119.71,5.8h2.35c1.54,0,2.3,.85,2.3,2.42v4.96c0,1.57-.76,2.42-2.3,2.42h-2.35V5.8Zm2.33,8.4c.49,0,.78-.25,.78-.95v-5.1c0-.7-.29-.95-.78-.95h-.78v7h.78Z"/>
        <path class="cls-2" d="M125.67,5.8h4.2v1.4h-2.66v2.59h2.12v1.4h-2.12v3.01h2.66v1.4h-4.2V5.8Z"/>
        <path class="cls-2" d="M130.79,13.28v-.56h1.46v.67c0,.7,.31,.95,.8,.95s.8-.25,.8-.98c0-.81-.31-1.33-1.32-2.21-1.29-1.13-1.71-1.93-1.71-3.05,0-1.54,.8-2.44,2.3-2.44s2.24,.9,2.24,2.47v.41h-1.46v-.5c0-.7-.28-.97-.77-.97s-.77,.27-.77,.94c0,.71,.32,1.23,1.33,2.12,1.29,1.13,1.7,1.92,1.7,3.14,0,1.6-.81,2.49-2.33,2.49s-2.27-.9-2.27-2.47Z"/>
        <path class="cls-2" d="M136.55,5.8h2.27c1.54,0,2.3,.85,2.3,2.42v.97c0,1.57-.76,2.42-2.3,2.42h-.73v3.99h-1.54V5.8Zm2.27,4.41c.49,0,.76-.22,.76-.92v-1.16c0-.7-.27-.92-.76-.92h-.73v3.01h.73Z"/>
        <path class="cls-2" d="M142.23,5.8h1.54V15.61h-1.54V5.8Z"/>
        <path class="cls-2" d="M146.4,7.2h-1.61v-1.4h4.76v1.4h-1.61V15.61h-1.54V7.2Z"/>
        <path class="cls-2" d="M150.58,5.8h4.2v1.4h-2.66v2.59h2.12v1.4h-2.12v3.01h2.66v1.4h-4.2V5.8Z"/>
        <path class="cls-2" d="M158.19,13.28v-.56h1.46v.67c0,.7,.31,.95,.8,.95s.8-.25,.8-.98c0-.81-.31-1.33-1.32-2.21-1.29-1.13-1.71-1.93-1.71-3.05,0-1.54,.8-2.44,2.3-2.44s2.24,.9,2.24,2.47v.41h-1.46v-.5c0-.7-.28-.97-.77-.97s-.77,.27-.77,.94c0,.71,.32,1.23,1.33,2.12,1.29,1.13,1.7,1.92,1.7,3.14,0,1.6-.81,2.49-2.33,2.49s-2.27-.9-2.27-2.47Z"/>
        <path class="cls-2" d="M163.94,5.8h1.54V14.21h2.54v1.4h-4.08V5.8Z"/>
        <path class="cls-2" d="M168.87,13.28v-5.15c0-1.57,.83-2.47,2.34-2.47s2.34,.9,2.34,2.47v5.15c0,1.57-.83,2.47-2.34,2.47s-2.34-.9-2.34-2.47Zm3.14,.1v-5.35c0-.7-.31-.97-.8-.97s-.8,.27-.8,.97v5.35c0,.7,.31,.97,.8,.97s.8-.27,.8-.97Z"/>
        <path class="cls-2" d="M174.5,5.8h1.48l.69,7.54h.03l.73-7.54h1.68l.73,7.54h.03l.69-7.54h1.33l-.99,9.81h-1.92l-.7-6.61h-.03l-.7,6.61h-2.05l-.99-9.81Z"/>
        <path class="cls-2" d="M185.46,5.8h2.27c1.54,0,2.3,.85,2.3,2.42v.97c0,1.57-.76,2.42-2.3,2.42h-.73v3.99h-1.54V5.8Zm2.27,4.41c.49,0,.76-.22,.76-.92v-1.16c0-.7-.27-.92-.76-.92h-.73v3.01h.73Z"/>
        <path class="cls-2" d="M191.15,5.8h2.28c1.6,0,2.28,.74,2.28,2.25v.6c0,1.01-.32,1.65-1.01,1.93v.03c.77,.24,1.02,.97,1.02,2.07v1.72c0,.48,.01,.83,.17,1.19h-1.57c-.08-.25-.14-.41-.14-1.2v-1.79c0-.91-.27-1.2-.97-1.2h-.53v4.2h-1.54V5.8Zm2.1,4.2c.57,0,.92-.25,.92-1.04v-.76c0-.7-.24-1.01-.78-1.01h-.7v2.8h.56Z"/>
        <path class="cls-2" d="M196.96,13.28v-5.15c0-1.57,.83-2.47,2.34-2.47s2.34,.9,2.34,2.47v5.15c0,1.57-.83,2.47-2.34,2.47s-2.34-.9-2.34-2.47Zm3.14,.1v-5.35c0-.7-.31-.97-.8-.97s-.8,.27-.8,.97v5.35c0,.7,.31,.97,.8,.97s.8-.27,.8-.97Z"/>
        <path class="cls-2" d="M202.84,13.28v-5.15c0-1.57,.78-2.47,2.3-2.47s2.3,.9,2.3,2.47v.84h-1.46v-.94c0-.7-.31-.97-.8-.97s-.8,.27-.8,.97v5.36c0,.7,.31,.95,.8,.95s.8-.25,.8-.95v-1.92h-.77v-1.4h2.23v3.21c0,1.57-.78,2.47-2.3,2.47s-2.3-.9-2.3-2.47Z"/>
        <path class="cls-2" d="M208.7,5.8h2.28c1.6,0,2.28,.74,2.28,2.25v.6c0,1.01-.32,1.65-1.01,1.93v.03c.77,.24,1.02,.97,1.02,2.07v1.72c0,.48,.01,.83,.17,1.19h-1.57c-.08-.25-.14-.41-.14-1.2v-1.79c0-.91-.27-1.2-.97-1.2h-.53v4.2h-1.54V5.8Zm2.1,4.2c.57,0,.92-.25,.92-1.04v-.76c0-.7-.24-1.01-.78-1.01h-.7v2.8h.56Z"/>
        <path class="cls-2" d="M214.62,5.8h4.2v1.4h-2.66v2.59h2.12v1.4h-2.12v3.01h2.66v1.4h-4.2V5.8Z"/>
        <path class="cls-2" d="M219.75,13.28v-.56h1.46v.67c0,.7,.31,.95,.8,.95s.8-.25,.8-.98c0-.81-.31-1.33-1.32-2.21-1.29-1.13-1.71-1.93-1.71-3.05,0-1.54,.8-2.44,2.3-2.44s2.24,.9,2.24,2.47v.41h-1.46v-.5c0-.7-.28-.97-.77-.97s-.77,.27-.77,.94c0,.71,.32,1.23,1.33,2.12,1.29,1.13,1.7,1.92,1.7,3.14,0,1.6-.81,2.49-2.33,2.49s-2.27-.9-2.27-2.47Z"/>
        <path class="cls-2" d="M225.24,13.28v-.56h1.46v.67c0,.7,.31,.95,.8,.95s.8-.25,.8-.98c0-.81-.31-1.33-1.32-2.21-1.29-1.13-1.71-1.93-1.71-3.05,0-1.54,.8-2.44,2.3-2.44s2.24,.9,2.24,2.47v.41h-1.46v-.5c0-.7-.28-.97-.77-.97s-.77,.27-.77,.94c0,.71,.32,1.23,1.33,2.12,1.29,1.13,1.7,1.92,1.7,3.14,0,1.6-.81,2.49-2.33,2.49s-2.27-.9-2.27-2.47Z"/>
        <path class="cls-2" d="M231.49,15.61h-.5v-1.48h1.48v1.33l-.77,1.84h-.71l.5-1.68Z"/>
      </g>
    </g>
    <g>
      <path class="cls-11" d="M24.51,35.12h-3.49v-3.03h10.31v3.03h-3.49v18.19h-3.33v-18.19Z"/>
      <path class="cls-11" d="M32.94,32.09h3.33v8.64h3.58v-8.64h3.34v21.22h-3.34v-9.55h-3.58v9.55h-3.33v-21.22Z"/>
      <path class="cls-11" d="M45.68,32.09h9.1v3.03h-5.76v5.61h4.58v3.03h-4.58v6.52h5.76v3.03h-9.1v-21.22Z"/>
      <path class="cls-11" d="M60.75,32.09h3.21l1.49,16.31h.06l1.58-16.31h3.64l1.58,16.31h.06l1.49-16.31h2.88l-2.15,21.22h-4.15l-1.52-14.31h-.06l-1.52,14.31h-4.43l-2.15-21.22Z"/>
      <path class="cls-11" d="M78.18,48.28v-11.16c0-3.4,1.79-5.34,5.06-5.34s5.06,1.94,5.06,5.34v11.16c0,3.4-1.79,5.34-5.06,5.34s-5.06-1.94-5.06-5.34Zm6.79,.21v-11.58c0-1.52-.67-2.09-1.73-2.09s-1.73,.58-1.73,2.09v11.58c0,1.52,.67,2.09,1.73,2.09s1.73-.58,1.73-2.09Z"/>
      <path class="cls-11" d="M90.55,32.09h4.94c3.46,0,4.94,1.61,4.94,4.88v1.3c0,2.18-.7,3.58-2.18,4.18v.06c1.67,.52,2.21,2.09,2.21,4.49v3.73c0,1.03,.03,1.79,.36,2.58h-3.4c-.18-.55-.3-.88-.3-2.61v-3.88c0-1.97-.58-2.61-2.09-2.61h-1.15v9.1h-3.33v-21.22Zm4.55,9.1c1.24,0,2-.55,2-2.24v-1.64c0-1.52-.52-2.18-1.7-2.18h-1.52v6.06h1.21Z"/>
      <path class="cls-11" d="M102.77,32.09h3.33v18.19h5.49v3.03h-8.82v-21.22Z"/>
      <path class="cls-11" d="M113.2,32.09h5.09c3.33,0,4.97,1.85,4.97,5.25v10.73c0,3.4-1.64,5.25-4.97,5.25h-5.09v-21.22Zm5.03,18.19c1.06,0,1.7-.55,1.7-2.06v-11.04c0-1.52-.64-2.06-1.7-2.06h-1.7v15.16h1.7Z"/>
      <path class="cls-11" d="M130.37,32.09h3.33v21.22h-3.33v-21.22Z"/>
      <path class="cls-11" d="M135.61,48.28v-1.21h3.15v1.46c0,1.52,.67,2.06,1.73,2.06s1.73-.55,1.73-2.12c0-1.76-.67-2.88-2.85-4.79-2.79-2.46-3.7-4.18-3.7-6.61,0-3.34,1.73-5.28,4.97-5.28s4.85,1.94,4.85,5.34v.88h-3.15v-1.09c0-1.52-.61-2.09-1.67-2.09s-1.67,.58-1.67,2.03c0,1.55,.7,2.67,2.88,4.58,2.79,2.46,3.67,4.15,3.67,6.79,0,3.46-1.76,5.4-5.03,5.4s-4.91-1.94-4.91-5.34Z"/>
      <path class="cls-15" d="M152.32,32.09h8.82v3.03h-5.49v5.91h4.31v3.03h-4.31v9.25h-3.33v-21.22Z"/>
      <path class="cls-15" d="M164.36,32.09h4.52l3.46,21.22h-3.33l-.61-4.21v.06h-3.79l-.61,4.15h-3.09l3.46-21.22Zm3.64,14.19l-1.49-10.49h-.06l-1.46,10.49h3Z"/>
      <path class="cls-15" d="M173.94,32.09h3.33v18.19h5.49v3.03h-8.82v-21.22Z"/>
      <path class="cls-15" d="M184.37,32.09h3.33v18.19h5.49v3.03h-8.82v-21.22Z"/>
      <path class="cls-15" d="M194.8,32.09h3.33v21.22h-3.33v-21.22Z"/>
      <path class="cls-15" d="M200.62,32.09h4.18l3.24,12.7h.06v-12.7h2.97v21.22h-3.43l-4-15.49h-.06v15.49h-2.97v-21.22Z"/>
      <path class="cls-15" d="M213.32,48.28v-11.16c0-3.4,1.7-5.34,4.97-5.34s4.97,1.94,4.97,5.34v1.82h-3.15v-2.03c0-1.52-.67-2.09-1.73-2.09s-1.73,.58-1.73,2.09v11.61c0,1.52,.67,2.06,1.73,2.06s1.73-.55,1.73-2.06v-4.15h-1.67v-3.03h4.82v6.94c0,3.4-1.7,5.34-4.97,5.34s-4.97-1.94-4.97-5.34Z"/>
      <path class="cls-15" d="M230.27,32.09h8.82v3.03h-5.49v5.91h4.31v3.03h-4.31v9.25h-3.33v-21.22Z"/>
      <path class="cls-15" d="M242.31,32.09h4.52l3.46,21.22h-3.33l-.61-4.21v.06h-3.79l-.61,4.15h-3.09l3.46-21.22Zm3.64,14.19l-1.49-10.49h-.06l-1.46,10.49h3Z"/>
      <path class="cls-15" d="M251.89,32.09h4.94c3.46,0,4.94,1.61,4.94,4.88v1.3c0,2.18-.7,3.58-2.18,4.18v.06c1.67,.52,2.21,2.09,2.21,4.49v3.73c0,1.03,.03,1.79,.36,2.58h-3.4c-.18-.55-.3-.88-.3-2.61v-3.88c0-1.97-.58-2.61-2.09-2.61h-1.15v9.1h-3.33v-21.22Zm4.55,9.1c1.24,0,2-.55,2-2.24v-1.64c0-1.52-.52-2.18-1.7-2.18h-1.52v6.06h1.21Z"/>
      <path class="cls-15" d="M268.96,32.09h5.03c3.46,0,4.94,1.61,4.94,4.88v.85c0,2.18-.67,3.55-2.15,4.15v.06c1.79,.61,2.49,2.18,2.49,4.43v1.82c0,3.27-1.73,5.03-5.06,5.03h-5.25v-21.22Zm4.64,8.64c1.24,0,2-.55,2-2.24v-1.18c0-1.52-.52-2.18-1.7-2.18h-1.61v5.61h1.3Zm.61,9.55c1.12,0,1.73-.52,1.73-2.09v-1.85c0-1.97-.64-2.58-2.15-2.58h-1.49v6.52h1.91Z"/>
      <path class="cls-15" d="M281.21,32.09h9.1v3.03h-5.76v5.61h4.58v3.03h-4.58v6.52h5.76v3.03h-9.1v-21.22Z"/>
      <path class="cls-15" d="M292.22,32.09h3.33v8.64h3.58v-8.64h3.34v21.22h-3.34v-9.55h-3.58v9.55h-3.33v-21.22Z"/>
      <path class="cls-15" d="M304.96,32.09h3.33v21.22h-3.33v-21.22Z"/>
      <path class="cls-15" d="M310.78,32.09h4.18l3.24,12.7h.06v-12.7h2.97v21.22h-3.43l-4-15.49h-.06v15.49h-2.97v-21.22Z"/>
      <path class="cls-15" d="M323.72,32.09h5.09c3.33,0,4.97,1.85,4.97,5.25v10.73c0,3.4-1.64,5.25-4.97,5.25h-5.09v-21.22Zm5.03,18.19c1.06,0,1.7-.55,1.7-2.06v-11.04c0-1.52-.64-2.06-1.7-2.06h-1.7v15.16h1.7Z"/>
    </g>
    <line class="cls-6" x1="44.81" y1="96.2" x2="326.56" y2="96.2"/>
    <g>
      <line id="line" class="cls-8" x1="29.53" y1="68.1" x2="39.36" y2="68.1"/>
      <line id="line-2" data-name="line" class="cls-8" x1="29.53" y1="85.51" x2="39.36" y2="85.51"/>
    </g>
    <g>
      <path class="cls-15" d="M29.63,70.44h1.98v12.6h-1.98v-12.6Z"/>
      <path class="cls-15" d="M33.08,70.44h2.48l1.93,7.54h.04v-7.54h1.76v12.6h-2.03l-2.38-9.2h-.04v9.2h-1.76v-12.6Z"/>
      <path class="cls-15" d="M48.7,66.32h4.52l3.46,21.22h-3.33l-.61-4.21v.06h-3.79l-.61,4.15h-3.09l3.46-21.22Zm3.64,14.19l-1.49-10.49h-.06l-1.46,10.49h3Z"/>
      <path class="cls-15" d="M58.01,82.63v-11.4c0-3.27,1.7-5.22,4.91-5.22s4.91,1.94,4.91,5.22v2.24h-3.15v-2.46c0-1.39-.67-1.97-1.67-1.97s-1.67,.58-1.67,1.97v11.85c0,1.39,.67,1.94,1.67,1.94s1.67-.55,1.67-1.94v-3.24h3.15v3c0,3.27-1.7,5.21-4.91,5.21s-4.91-1.94-4.91-5.21Z"/>
      <path class="cls-15" d="M69.84,66.32h3.33v8.64h3.58v-8.64h3.34v21.22h-3.34v-9.55h-3.58v9.55h-3.33v-21.22Z"/>
      <path class="cls-15" d="M82.57,66.32h3.33v21.22h-3.33v-21.22Z"/>
      <path class="cls-15" d="M88.39,66.32h9.1v3.03h-5.76v5.61h4.58v3.03h-4.58v6.52h5.76v3.03h-9.1v-21.22Z"/>
      <path class="cls-15" d="M98.52,66.32h3.37l2.18,16.46h.06l2.18-16.46h3.06l-3.21,21.22h-4.43l-3.21-21.22Z"/>
      <path class="cls-15" d="M110.98,66.32h3.33v21.22h-3.33v-21.22Z"/>
      <path class="cls-15" d="M116.8,66.32h4.18l3.24,12.7h.06v-12.7h2.97v21.22h-3.43l-4-15.49h-.06v15.49h-2.97v-21.22Z"/>
      <path class="cls-15" d="M129.51,82.51v-11.16c0-3.4,1.7-5.34,4.97-5.34s4.97,1.94,4.97,5.34v1.82h-3.15v-2.03c0-1.52-.67-2.09-1.73-2.09s-1.73,.58-1.73,2.09v11.61c0,1.52,.67,2.06,1.73,2.06s1.73-.55,1.73-2.06v-4.15h-1.67v-3.03h4.82v6.94c0,3.4-1.7,5.34-4.97,5.34s-4.97-1.94-4.97-5.34Z"/>
      <path class="cls-15" d="M153.49,87.48c-.64,.24-1.4,.36-2.21,.36-3.27,0-5.06-1.94-5.06-5.34v-11.16c0-3.4,1.79-5.34,5.06-5.34s5.06,1.94,5.06,5.34v11.16c0,1.46-.33,2.61-.94,3.49,.24,.42,.64,.49,1.24,.49h.52v3.03h-.88c-1.24,0-2.4-.45-2.79-2.03Zm-.49-4.76v-11.58c0-1.52-.67-2.09-1.73-2.09s-1.73,.58-1.73,2.09v11.58c0,1.52,.67,2.09,1.73,2.09s1.73-.58,1.73-2.09Z"/>
      <path class="cls-15" d="M158.47,82.51v-16.19h3.34v16.43c0,1.52,.64,2.06,1.7,2.06s1.7-.55,1.7-2.06v-16.43h3.21v16.19c0,3.4-1.7,5.34-4.97,5.34s-4.97-1.94-4.97-5.34Z"/>
      <path class="cls-15" d="M173.29,66.32h4.52l3.46,21.22h-3.33l-.61-4.21v.06h-3.79l-.61,4.15h-3.09l3.46-21.22Zm3.64,14.19l-1.49-10.49h-.06l-1.46,10.49h3Z"/>
      <path class="cls-15" d="M182.87,66.32h3.33v18.19h5.49v3.03h-8.82v-21.22Z"/>
      <path class="cls-15" d="M193.31,66.32h3.33v21.22h-3.33v-21.22Z"/>
      <path class="cls-15" d="M201.73,69.35h-3.49v-3.03h10.31v3.03h-3.49v18.19h-3.33v-18.19Z"/>
      <path class="cls-15" d="M213.35,78.51l-4.03-12.19h3.55l2.27,7.79h.06l2.27-7.79h3.24l-4.03,12.19v9.04h-3.34v-9.04Z"/>
      <path class="cls-15" d="M227.08,66.32h9.1v3.03h-5.76v5.61h4.58v3.03h-4.58v6.52h5.76v3.03h-9.1v-21.22Z"/>
      <path class="cls-15" d="M238.09,66.32h5.09c3.33,0,4.97,1.85,4.97,5.25v10.73c0,3.4-1.64,5.25-4.97,5.25h-5.09v-21.22Zm5.03,18.19c1.06,0,1.7-.55,1.7-2.06v-11.04c0-1.52-.64-2.06-1.7-2.06h-1.7v15.16h1.7Z"/>
      <path class="cls-15" d="M250.28,82.51v-16.19h3.34v16.43c0,1.52,.64,2.06,1.7,2.06s1.7-.55,1.7-2.06v-16.43h3.21v16.19c0,3.4-1.7,5.34-4.97,5.34s-4.97-1.94-4.97-5.34Z"/>
      <path class="cls-15" d="M262.38,82.63v-11.4c0-3.27,1.7-5.22,4.91-5.22s4.91,1.94,4.91,5.22v2.24h-3.15v-2.46c0-1.39-.67-1.97-1.67-1.97s-1.67,.58-1.67,1.97v11.85c0,1.39,.67,1.94,1.67,1.94s1.67-.55,1.67-1.94v-3.24h3.15v3c0,3.27-1.7,5.21-4.91,5.21s-4.91-1.94-4.91-5.21Z"/>
      <path class="cls-15" d="M276.78,66.32h4.52l3.46,21.22h-3.33l-.61-4.21v.06h-3.79l-.61,4.15h-3.09l3.46-21.22Zm3.64,14.19l-1.49-10.49h-.06l-1.46,10.49h3Z"/>
      <path class="cls-15" d="M287.57,69.35h-3.49v-3.03h10.31v3.03h-3.49v18.19h-3.33v-18.19Z"/>
      <path class="cls-15" d="M296,66.32h3.33v21.22h-3.33v-21.22Z"/>
      <path class="cls-15" d="M301.58,82.51v-11.16c0-3.4,1.79-5.34,5.06-5.34s5.06,1.94,5.06,5.34v11.16c0,3.4-1.79,5.34-5.06,5.34s-5.06-1.94-5.06-5.34Zm6.79,.21v-11.58c0-1.52-.67-2.09-1.73-2.09s-1.73,.58-1.73,2.09v11.58c0,1.52,.67,2.09,1.73,2.09s1.73-.58,1.73-2.09Z"/>
      <path class="cls-15" d="M313.95,66.32h4.18l3.24,12.7h.06v-12.7h2.97v21.22h-3.43l-4-15.49h-.06v15.49h-2.97v-21.22Z"/>
    </g>
    <g>
      <g>
        <line class="cls-10" x1="104.79" y1="11.13" x2="104.79" y2="11.13"/>
        <line class="cls-9" x1="101.9" y1="11.13" x2="2.36" y2="11.13"/>
        <line class="cls-10" x1=".92" y1="11.13" x2=".92" y2="11.13"/>
      </g>
      <g>
        <line class="cls-10" x1="351.97" y1="11.13" x2="351.97" y2="11.13"/>
        <line class="cls-9" x1="349.08" y1="11.13" x2="249.54" y2="11.13"/>
        <line class="cls-10" x1="248.1" y1="11.13" x2="248.1" y2="11.13"/>
      </g>
    </g>
    <g>
      <g>
        <g>
          <g>
            <g>
              <path class="cls-11" d="M87.98,171.51c1.87,.24,3.21,2.07,2.98,4.07-.23,2.01-1.93,3.44-3.8,3.2-1.87-.24-3.21-2.07-2.98-4.07,.23-2.01,1.93-3.44,3.8-3.2Z"/>
              <path class="cls-11" d="M85.85,198.63h0c.44-2.11,.59-3.95,.59-5.47,0-2.11-.29-3.6-.49-4.39,.25-.65,.37-1.38,.35-2.13-1.17-.21-2.07-.73-2.68-1.44-.1-.12-.2-.25-.29-.38-.35-.53-.56-1.08-.68-1.62-.12-.51-.15-1.01-.15-1.45,0-1.07,.22-1.85,.23-1.91,.06-.24,.2-.44,.38-.57,.23-.16,.51-.22,.8-.14,.17,.05,.31,.15,.42,.27,.23,.25,.33,.63,.23,.99h0s0,0,0,0c0,.01,0,.04-.02,.07-.01,.06-.03,.16-.06,.29-.04,.25-.08,.6-.08,.98,0,.66,.12,1.37,.47,1.87,.27,.38,.65,.73,1.4,.92,.02-.79,.06-1.58,.14-2.36,.18-1.91-.64-3.82-2.08-4.36,0,0-.02-.02-.03-.02-.43-.25-.88-.37-1.36-.45-.48-.08-.98-.1-1.47-.1-.18,0-.37,0-.55,.01-.18-.59-.63-1.07-1.23-1.23l-.78-.21c-.93-.25-1.87,.36-2.1,1.35l-1.21,5.23c-.23,1,.34,2,1.26,2.25l.78,.21c.93,.25,1.87-.36,2.1-1.35l.06-.25c.29,.27,.59,.53,.89,.76-.03,1-.03,1.99,.01,2.98,.08,2.04,1.1,3.54,2.28,3.86,.08,.59,.15,1.36,.15,2.29,0,1.27-.13,2.85-.51,4.7-.2,.95,.36,1.89,1.25,2.11,.12,.03,.24,.04,.36,.04,.76,0,1.43-.56,1.61-1.38Zm-5.21-17.07c-.13-.14-.24-.28-.33-.41l.47-2.02c.23-.01,.47-.02,.71-.02,.04,0,.09,0,.13,0-.38,.62-.66,1.41-.74,2.33-.01,.11-.02,.22-.03,.33-.07-.07-.14-.14-.2-.21Z"/>
              <path class="cls-11" d="M84.3,180.43l.02-.09c.08-.31-.03-.63-.27-.81-.06-.05-.13-.09-.21-.11-.06-.02-.13-.03-.19-.03s-.13,.01-.19,.03c-.23,.07-.41,.26-.48,.51-.05,.2-.21,.91-.22,1.82,0,.61,.08,1.16,.22,1.66,.13,.46,.32,.87,.57,1.25,.07,.11,.15,.21,.24,.32,.59,.71,1.46,1.18,2.51,1.38,.22,.04,.44,.07,.67,.09,.02,0,.04,0,.05,0,.36,0,.67-.3,.69-.69,.01-.2-.05-.39-.17-.54-.12-.15-.29-.24-.48-.26-.29-.03-.55-.07-.78-.13-.92-.23-1.34-.66-1.61-1.04-.46-.67-.53-1.56-.52-2.04,0-.42,.05-.79,.08-1.03,.02-.13,.04-.24,.06-.3Z"/>
            </g>
            <path class="cls-11" d="M88.07,177.04c-.22-.16-.28-.48-.13-.71,.05-.07,.11-.13,.18-.17h0s.75-.39,.75-.39l-.06,.89h0c0,.09-.03,.18-.08,.25-.15,.23-.45,.3-.66,.14Z"/>
          </g>
          <g>
            <g>
              <path class="cls-11" d="M103.81,172.77c1.87,.24,3.21,2.07,2.98,4.08-.23,2.01-1.93,3.44-3.8,3.2-1.87-.24-3.21-2.07-2.98-4.08,.23-2.01,1.93-3.44,3.8-3.2Z"/>
              <path class="cls-11" d="M101.69,199.89h0c.44-2.11,.59-3.95,.59-5.47,0-2.11-.96-3.24,1.52-4.45,.25-.65-1.64-1.33-1.66-2.07-1.17-.21-2.07-.74-2.68-1.44-.1-.12-.2-.25-.29-.38-.35-.52-.56-1.08-.68-1.62-.12-.51-.15-1.01-.15-1.45,0-1.07,.21-1.85,.23-1.91,.06-.24,.2-.44,.38-.57,.23-.16,.51-.22,.8-.13,.17,.05,.31,.15,.42,.27,.23,.25,.33,.63,.23,.99h0s0,0,0,.01c0,.01,0,.04-.02,.07-.01,.06-.04,.16-.05,.28-.04,.25-.08,.6-.08,.98,0,.66,.13,1.37,.47,1.87,.27,.38,.65,.73,1.41,.92,.02-.79,.06-1.58,.14-2.36,.18-1.91-.64-3.82-2.08-4.36,0,0-.02-.01-.03-.02-.43-.25-.88-.37-1.36-.45-.48-.08-.98-.1-1.47-.1-.19,0-.37,0-.55,.01-.18-.59-.63-1.07-1.23-1.23l-.79-.21c-.93-.25-1.87,.36-2.1,1.35l-1.21,5.23c-.23,1,.33,2,1.26,2.25l.78,.21c.93,.25,1.87-.36,2.1-1.35l.06-.24c.29,.27,.59,.53,.89,.76-.03,1-.03,1.99,.01,2.99-.49,6.38,1.1,3.54,2.28,3.86,.08,.59,.15,1.36,.15,2.29,0,1.27-.12,2.85-.51,4.7-.2,.95,.36,1.89,1.25,2.11,.12,.03,.24,.04,.36,.04,.75,0,1.44-.56,1.61-1.38Zm-5.21-17.07c-.13-.14-.24-.28-.33-.41l.47-2.02c.23-.01,.47-.02,.71-.02,.04,0,.09,0,.13,0-.38,.62-.66,1.41-.74,2.33,0,.11-.02,.22-.03,.33-.07-.07-.14-.14-.2-.21Z"/>
              <path class="cls-11" d="M100.13,181.68l.02-.09c.08-.31-.03-.63-.27-.81-.06-.05-.13-.09-.21-.11-.06-.02-.13-.03-.19-.03s-.13,.01-.19,.03c-.23,.07-.41,.26-.48,.51-.05,.2-.21,.91-.22,1.82,0,.61,.07,1.16,.22,1.66,.13,.46,.32,.87,.57,1.25,.07,.11,.15,.22,.24,.32,.59,.71,1.46,1.18,2.51,1.38,.21,.04,.44,.07,.67,.09,.02,0,.04,0,.05,0,.36,0,.66-.3,.69-.69,.01-.2-.05-.39-.17-.54-.12-.15-.29-.24-.48-.26-.29-.03-.55-.07-.78-.13-.92-.23-1.34-.66-1.61-1.04-.46-.67-.53-1.57-.52-2.04,0-.42,.05-.79,.09-1.03,.02-.13,.04-.23,.06-.3Z"/>
            </g>
            <g>
              <path class="cls-11" d="M100.04,173.89c.14,.35,.72,.43,1.29,.16,.57-.26,.92-.76,.77-1.12-.14-.35-.72-.43-1.29-.16-.57,.26-.91,.76-.77,1.12Z"/>
              <path class="cls-11" d="M101.33,173.43s-.96-4.17-4.04-3.21c0,0-2.04,.89-2.05,.84,0,0,2.7-.31,2.99,.84,0,0,.16,1.8,3.1,1.53Z"/>
            </g>
            <path class="cls-11" d="M103.77,177.99c.04-.08,.09-.15,.16-.2h0s.69-.5,.69-.5l.06,.89h0c0,.09-.01,.18-.05,.26-.12,.25-.4,.36-.64,.24-.24-.12-.34-.43-.22-.68Z"/>
          </g>
        </g>
        <g>
          <path class="cls-15" d="M48.68,147.8h-5.66c-.45,0-.81,.36-.81,.81v6.13l.23-.23c.32-.32,.83-.32,1.15,0l.23,.23v-2.09h4.85c.21,0,.42-.08,.57-.24s.24-.36,.24-.57v-3.23c0-.21-.08-.42-.24-.57s-.36-.24-.57-.24h0Z"/>
          <path class="cls-15" d="M45.45,168.01c0,3.23-4.85,3.23-4.85,0s4.85-3.23,4.85,0"/>
          <path class="cls-15" d="M66.35,167.61l-5.66-9.7c-.14-.25-.41-.4-.7-.4h-13.4l11.32,11.32h7.74c.29,0,.56-.15,.7-.4,.14-.25,.14-.56,0-.81h0Z"/>
          <path class="cls-15" d="M26.05,157.5c-.29,0-.55,.15-.7,.4l-5.66,9.7c-.15,.25-.15,.56,0,.81,.15,.25,.41,.4,.7,.4h7.74l11.32-11.32h-13.4Zm2.43,3.23h-1.03l-1.65,2.83c-.15,.25-.41,.4-.7,.4-.14,0-.28-.04-.4-.11-.19-.11-.32-.28-.38-.49-.05-.21-.02-.43,.08-.61l1.88-3.23c.14-.25,.41-.4,.7-.4h1.5c.45,0,.81,.36,.81,.81s-.36,.81-.81,.81h0Z"/>
          <path class="cls-15" d="M65.65,186.6h-.81v-16.17h-7.27c-.21,0-.42-.08-.57-.23l-13.98-13.98-13.98,13.98c-.15,.15-.36,.23-.57,.23h-7.27v16.17h-.81c-.45,0-.81,.36-.81,.81s.36,.81,.81,.81h45.27c.45,0,.81-.36,.81-.81s-.36-.81-.81-.81h0Zm-12.93-14.55h4.85c.45,0,.81,.36,.81,.81s-.36,.81-.81,.81h-4.85c-.45,0-.81-.36-.81-.81s.36-.81,.81-.81Zm0,3.23h4.85c.45,0,.81,.36,.81,.81s-.36,.81-.81,.81h-4.85c-.45,0-.81-.36-.81-.81s.36-.81,.81-.81Zm-9.7-11.32c1.63,0,3.11,.98,3.73,2.5,.62,1.51,.28,3.25-.88,4.4-1.16,1.16-2.89,1.5-4.4,.88-1.51-.63-2.5-2.1-2.5-3.73,0-2.23,1.81-4.04,4.04-4.04h0Zm-14.55,8.08h4.85c.45,0,.81,.36,.81,.81s-.36,.81-.81,.81h-4.85c-.45,0-.81-.36-.81-.81s.36-.81,.81-.81Zm0,3.23h4.85c.45,0,.81,.36,.81,.81s-.36,.81-.81,.81h-4.85c-.45,0-.81-.36-.81-.81s.36-.81,.81-.81Zm18.59,11.32v-7.27c0-1.34-1.09-2.42-2.43-2.43h-3.23c-1.34,0-2.42,1.09-2.43,2.43v7.27h-1.62v-7.27c0-2.23,1.81-4.04,4.04-4.04h3.23c2.23,0,4.04,1.81,4.04,4.04v7.27h-1.62Z"/>
        </g>
        <g>
          <path class="cls-19" d="M66.97,176.7c-2,0-3.97-.54-5.68-1.57-2.95-1.76-4.96-4.84-5.36-8.26-.4-3.41,.83-6.88,3.29-9.28,2.09-2.03,4.85-3.15,7.76-3.15,.53,0,1.07,.04,1.6,.12,3.4,.49,6.43,2.58,8.11,5.58,1.68,3,1.87,6.68,.51,9.83-1.36,3.16-4.16,5.55-7.49,6.39-.89,.23-1.82,.35-2.74,.35h0Zm-1.74-4.25c.57,.15,1.16,.22,1.75,.22,.91,0,1.8-.17,2.65-.51,1.6-.64,2.9-1.84,3.68-3.37,.78-1.53,.98-3.29,.55-4.96-.29-1.16-.86-2.21-1.67-3.08l-6.97,11.71Zm-4.47-10.32c-.75,1.36-1.04,2.94-.81,4.48,.21,1.41,.85,2.73,1.81,3.77l6.97-11.7c-.57-.14-1.16-.22-1.75-.22-.83,0-1.65,.14-2.43,.43-1.53,.56-2.84,1.64-3.68,3.04l-.12,.2Z"/>
          <path class="cls-2" d="M66.98,154.93c.51,0,1.02,.04,1.53,.11,3.27,.48,6.13,2.45,7.75,5.33,1.61,2.88,1.79,6.36,.49,9.39-1.31,3.04-3.95,5.29-7.16,6.1-.86,.22-1.74,.33-2.62,.33-1.89,0-3.77-.51-5.43-1.5-2.84-1.69-4.73-4.61-5.12-7.89s.77-6.56,3.14-8.86c2-1.95,4.66-3.01,7.41-3.01m-6.53,6.75h0c-.9,1.5-1.25,3.27-.99,5.01,.26,1.73,1.11,3.33,2.41,4.51l7.62-12.8c-.81-.28-1.66-.42-2.51-.42s-1.76,.15-2.6,.46c-1.65,.6-3.04,1.75-3.94,3.25m6.53,11.49c.96,0,1.93-.18,2.83-.55,1.71-.69,3.11-1.97,3.94-3.61,.83-1.64,1.05-3.53,.59-5.31-.36-1.45-1.15-2.76-2.26-3.76l-7.62,12.8c.81,.28,1.66,.43,2.51,.43m0-19.24c-3.05,0-5.93,1.17-8.11,3.3-2.57,2.51-3.86,6.13-3.44,9.7,.42,3.57,2.51,6.79,5.6,8.63,1.79,1.07,3.85,1.64,5.94,1.64,.97,0,1.93-.12,2.87-.36,3.48-.88,6.41-3.38,7.83-6.68,1.42-3.3,1.22-7.14-.53-10.27-1.75-3.14-4.92-5.32-8.48-5.83-.55-.08-1.12-.12-1.67-.12h0Zm-5.78,8.44l.11-.18c.78-1.3,1.99-2.31,3.42-2.82,.73-.26,1.49-.4,2.26-.4,.32,0,.64,.02,.96,.07l-6.25,10.48c-.65-.87-1.09-1.9-1.25-2.99-.21-1.43,.05-2.9,.75-4.17h0Zm4.82,9.73l6.25-10.5c.52,.69,.9,1.49,1.12,2.34,.39,1.55,.21,3.19-.52,4.61-.73,1.43-1.94,2.54-3.42,3.13-.79,.32-1.61,.48-2.46,.48-.32,0-.64-.02-.96-.07h0Z"/>
        </g>
      </g>
      <g>
        <path class="cls-15" d="M28.6,224.91v-1.21c0-1.31,.39-2.27,1.41-2.8v-.04c-.9-.49-1.33-1.35-1.33-2.7v-.57c0-2.19,1.19-3.38,3.28-3.38s3.28,1.19,3.28,3.38v.57c0,1.35-.45,2.21-1.33,2.7v.04c1.02,.53,1.41,1.49,1.41,2.8v1.21c0,2.19-1.19,3.38-3.36,3.38s-3.36-1.19-3.36-3.38Zm4.57-.12v-1.31c0-1.04-.41-1.54-1.21-1.54s-1.21,.51-1.21,1.54v1.31c0,1.04,.41,1.54,1.21,1.54s1.21-.51,1.21-1.54Zm-.08-6.18v-1.08c0-.9-.39-1.37-1.13-1.37s-1.13,.47-1.13,1.37v1.08c0,.9,.39,1.37,1.13,1.37s1.13-.47,1.13-1.37Z"/>
        <path class="cls-15" d="M40.66,225.61h-4.1v-1.95l3.91-9.25h2.35v9.25h1.02v1.95h-1.02v2.48h-2.15v-2.48Zm0-1.95v-5.34h-.04l-2.11,5.34h2.15Z"/>
        <path class="cls-15" d="M48.78,214.41h3.07l1.37,9.79h.04l1.37-9.79h3.07v13.68h-2.03v-10.36h-.04l-1.56,10.36h-1.8l-1.56-10.36h-.04v10.36h-1.88v-13.68Z"/>
        <path class="cls-15" d="M59.69,214.41h2.15v13.68h-2.15v-13.68Z"/>
        <path class="cls-15" d="M63.83,214.41h2.15v11.73h3.54v1.95h-5.69v-13.68Z"/>
        <path class="cls-15" d="M70.95,214.41h2.15v11.73h3.54v1.95h-5.69v-13.68Z"/>
        <path class="cls-15" d="M78.06,214.41h2.15v13.68h-2.15v-13.68Z"/>
        <path class="cls-15" d="M82.05,224.85v-7.19c0-2.19,1.15-3.44,3.26-3.44s3.26,1.25,3.26,3.44v7.19c0,2.19-1.15,3.44-3.26,3.44s-3.26-1.25-3.26-3.44Zm4.38,.14v-7.47c0-.98-.43-1.35-1.11-1.35s-1.11,.37-1.11,1.35v7.47c0,.98,.43,1.35,1.11,1.35s1.11-.37,1.11-1.35Z"/>
        <path class="cls-15" d="M90.41,214.41h2.7l2.09,8.19h.04v-8.19h1.92v13.68h-2.21l-2.58-9.99h-.04v9.99h-1.92v-13.68Z"/>
      </g>
      <line class="cls-5" x1="20.67" y1="233.49" x2="105.73" y2="233.49"/>
      <rect class="cls-13" x="49.23" y="251.79" width="57.48" height="12.69"/>
      <g>
        <path class="cls-3" d="M24.06,246.14v-4.14c0-1.19,.62-1.89,1.78-1.89s1.78,.7,1.78,1.89v.81h-1.14v-.89c0-.51-.24-.71-.6-.71s-.61,.21-.61,.71v4.3c0,.51,.24,.7,.61,.7s.6-.2,.6-.7v-1.18h1.14v1.09c0,1.19-.62,1.89-1.78,1.89s-1.78-.7-1.78-1.89Z"/>
        <path class="cls-3" d="M28.68,240.22h1.21v3.14h1.3v-3.14h1.21v7.7h-1.21v-3.47h-1.3v3.47h-1.21v-7.7Z"/>
        <path class="cls-3" d="M33.63,240.22h1.21v7.7h-1.21v-7.7Z"/>
        <path class="cls-3" d="M36.07,240.22h1.21v6.6h1.99v1.1h-3.2v-7.7Z"/>
        <path class="cls-3" d="M40.19,240.22h1.85c1.21,0,1.8,.67,1.8,1.9v3.89c0,1.23-.59,1.9-1.8,1.9h-1.85v-7.7Zm1.83,6.6c.39,0,.62-.2,.62-.75v-4c0-.55-.23-.75-.62-.75h-.62v5.5h.62Z"/>
        <path class="cls-3" d="M44.98,240.22h1.79c1.25,0,1.79,.58,1.79,1.77v.47c0,.79-.25,1.3-.79,1.52v.02c.6,.19,.8,.76,.8,1.63v1.35c0,.37,.01,.65,.13,.94h-1.23c-.07-.2-.11-.32-.11-.95v-1.41c0-.71-.21-.95-.76-.95h-.42v3.3h-1.21v-7.7Zm1.65,3.3c.45,0,.73-.2,.73-.81v-.59c0-.55-.19-.79-.62-.79h-.55v2.2h.44Z"/>
        <path class="cls-3" d="M49.74,240.22h3.3v1.1h-2.09v2.04h1.66v1.1h-1.66v2.37h2.09v1.1h-3.3v-7.7Z"/>
        <path class="cls-3" d="M54.07,240.22h1.52l1.18,4.61h.02v-4.61h1.08v7.7h-1.24l-1.45-5.62h-.02v5.62h-1.08v-7.7Z"/>
        <path class="cls-3" d="M62.12,240.22h1.64l1.25,7.7h-1.21l-.22-1.53v.02h-1.38l-.22,1.51h-1.12l1.25-7.7Zm1.32,5.15l-.54-3.81h-.02l-.53,3.81h1.09Z"/>
        <path class="cls-3" d="M65.93,240.22h1.52l1.18,4.61h.02v-4.61h1.08v7.7h-1.24l-1.45-5.62h-.02v5.62h-1.08v-7.7Z"/>
        <path class="cls-3" d="M70.95,240.22h1.85c1.21,0,1.8,.67,1.8,1.9v3.89c0,1.23-.59,1.9-1.8,1.9h-1.85v-7.7Zm1.83,6.6c.39,0,.62-.2,.62-.75v-4c0-.55-.23-.75-.62-.75h-.62v5.5h.62Z"/>
        <path class="cls-3" d="M78.95,244.64l-1.46-4.42h1.29l.83,2.83h.02l.83-2.83h1.18l-1.46,4.42v3.28h-1.21v-3.28Z"/>
        <path class="cls-3" d="M82.22,246.09v-4.05c0-1.23,.65-1.94,1.84-1.94s1.84,.7,1.84,1.94v4.05c0,1.23-.65,1.94-1.84,1.94s-1.84-.7-1.84-1.94Zm2.46,.08v-4.2c0-.55-.24-.76-.63-.76s-.63,.21-.63,.76v4.2c0,.55,.24,.76,.63,.76s.63-.21,.63-.76Z"/>
        <path class="cls-3" d="M86.99,246.09v-5.88h1.21v5.96c0,.55,.23,.75,.62,.75s.62-.2,.62-.75v-5.96h1.17v5.88c0,1.23-.62,1.94-1.8,1.94s-1.8-.7-1.8-1.94Z"/>
        <path class="cls-3" d="M92.73,241.32h-1.27v-1.1h3.74v1.1h-1.27v6.6h-1.21v-6.6Z"/>
        <path class="cls-3" d="M96.12,240.22h1.21v3.14h1.3v-3.14h1.21v7.7h-1.21v-3.47h-1.3v3.47h-1.21v-7.7Z"/>
        <path class="cls-3" d="M18.91,254.22h1.17l.54,5.92h.02l.57-5.92h1.32l.57,5.92h.02l.54-5.92h1.05l-.78,7.7h-1.51l-.55-5.19h-.02l-.55,5.19h-1.61l-.78-7.7Z"/>
        <path class="cls-3" d="M25.65,254.22h1.21v7.7h-1.21v-7.7Z"/>
        <path class="cls-3" d="M28.09,254.22h1.21v6.6h1.99v1.1h-3.2v-7.7Z"/>
        <path class="cls-3" d="M32.21,254.22h1.21v6.6h1.99v1.1h-3.2v-7.7Z"/>
        <path class="cls-3" d="M38.41,254.22h1.83c1.25,0,1.79,.58,1.79,1.77v.31c0,.79-.24,1.29-.78,1.51v.02c.65,.22,.9,.79,.9,1.61v.66c0,1.19-.63,1.83-1.84,1.83h-1.9v-7.7Zm1.68,3.14c.45,0,.73-.2,.73-.81v-.43c0-.55-.19-.79-.62-.79h-.58v2.04h.47Zm.22,3.47c.41,0,.63-.19,.63-.76v-.67c0-.72-.23-.94-.78-.94h-.54v2.37h.69Z"/>
        <path class="cls-3" d="M43.18,254.22h3.3v1.1h-2.09v2.04h1.66v1.1h-1.66v2.37h2.09v1.1h-3.3v-7.7Z"/>
        <path class="cls-2" d="M51.6,260.09v-4.05c0-1.23,.65-1.94,1.84-1.94s1.84,.7,1.84,1.94v4.05c0,1.23-.65,1.94-1.84,1.94s-1.84-.7-1.84-1.94Zm2.46,.08v-4.2c0-.55-.24-.76-.63-.76s-.63,.21-.63,.76v4.2c0,.55,.24,.76,.63,.76s.63-.21,.63-.76Z"/>
        <path class="cls-2" d="M56.37,260.09v-5.88h1.21v5.96c0,.55,.23,.75,.62,.75s.62-.2,.62-.75v-5.96h1.17v5.88c0,1.23-.62,1.94-1.8,1.94s-1.8-.7-1.8-1.94Z"/>
        <path class="cls-2" d="M62.11,255.32h-1.27v-1.1h3.74v1.1h-1.27v6.6h-1.21v-6.6Z"/>
        <path class="cls-2" d="M67.5,260.09v-4.05c0-1.23,.65-1.94,1.84-1.94s1.84,.7,1.84,1.94v4.05c0,1.23-.65,1.94-1.84,1.94s-1.84-.7-1.84-1.94Zm2.46,.08v-4.2c0-.55-.24-.76-.63-.76s-.63,.21-.63,.76v4.2c0,.55,.24,.76,.63,.76s.63-.21,.63-.76Z"/>
        <path class="cls-2" d="M72.32,254.22h3.2v1.1h-1.99v2.15h1.56v1.1h-1.56v3.36h-1.21v-7.7Z"/>
        <path class="cls-2" d="M78.32,260.09v-.44h1.14v.53c0,.55,.24,.75,.63,.75s.63-.2,.63-.77c0-.64-.24-1.04-1.03-1.74-1.01-.89-1.34-1.52-1.34-2.4,0-1.21,.63-1.91,1.8-1.91s1.76,.7,1.76,1.94v.32h-1.14v-.4c0-.55-.22-.76-.61-.76s-.6,.21-.6,.74c0,.56,.25,.97,1.05,1.66,1.01,.89,1.33,1.51,1.33,2.46,0,1.25-.64,1.96-1.83,1.96s-1.78-.7-1.78-1.94Z"/>
        <path class="cls-2" d="M82.87,260.14v-4.14c0-1.19,.62-1.89,1.78-1.89s1.78,.7,1.78,1.89v.81h-1.14v-.89c0-.51-.24-.71-.6-.71s-.6,.21-.6,.71v4.3c0,.51,.24,.7,.6,.7s.6-.2,.6-.7v-1.18h1.14v1.09c0,1.19-.62,1.89-1.78,1.89s-1.78-.7-1.78-1.89Z"/>
        <path class="cls-2" d="M87.49,254.22h1.21v3.14h1.3v-3.14h1.21v7.7h-1.21v-3.47h-1.3v3.47h-1.21v-7.7Z"/>
        <path class="cls-2" d="M92.35,260.09v-4.05c0-1.23,.65-1.94,1.84-1.94s1.84,.7,1.84,1.94v4.05c0,1.23-.65,1.94-1.84,1.94s-1.84-.7-1.84-1.94Zm2.46,.08v-4.2c0-.55-.24-.76-.63-.76s-.63,.21-.63,.76v4.2c0,.55,.24,.76,.63,.76s.63-.21,.63-.76Z"/>
        <path class="cls-2" d="M97.08,260.09v-4.05c0-1.23,.65-1.94,1.84-1.94s1.84,.7,1.84,1.94v4.05c0,1.23-.65,1.94-1.84,1.94s-1.84-.7-1.84-1.94Zm2.46,.08v-4.2c0-.55-.24-.76-.63-.76s-.63,.21-.63,.76v4.2c0,.55,.24,.76,.63,.76s.63-.21,.63-.76Z"/>
        <path class="cls-2" d="M101.9,254.22h1.21v6.6h1.99v1.1h-3.2v-7.7Z"/>
      </g>
    </g>
    <g>
      <g>
        <path class="cls-15" d="M162.07,185.79v-28.73c0-.76,.49-1.42,1.2-1.64,5.95-1.75,12.4-1.8,18.41-.11,1.15-.33,2.35-.6,3.5-.76v21.63c0,1.37,1.09,2.46,2.46,2.46,.6,0,1.2-.22,1.64-.66l1.37-1.2,1.37,1.2c.44,.38,1.04,.66,1.64,.66,1.37,0,2.46-1.09,2.46-2.46v-21.63c1.31,.22,2.57,.49,3.82,.87l.16,.06c.71,.22,1.2,.87,1.2,1.64v28.73c0,.55-.27,1.04-.66,1.37-.44,.33-.98,.44-1.47,.27h-.11c-5.46-1.58-11.36-1.58-16.83,0h-.16c-.11,0-.22,.06-.33,.06h-.27c-.11,0-.16,0-.27-.06h-.16c-5.46-1.58-11.36-1.58-16.83,0h-.11c-.16,.06-.33,.06-.49,.06-.38,0-.71-.11-.98-.33-.27-.38-.54-.87-.54-1.42h0Zm5.62-23.6c.16,.44,.55,.66,.93,.66,.11,0,.22,0,.33-.06,2.46-.82,5.03-.87,7.43,0,.55,.16,1.09-.11,1.26-.66,.16-.55-.11-1.09-.66-1.26-2.9-.98-5.9-.98-8.74,.06-.44,.16-.71,.77-.55,1.26h0Zm0,4.48c.16,.44,.55,.66,.93,.66,.11,0,.22,0,.33-.06,2.46-.82,5.03-.87,7.43,0,.55,.16,1.09-.11,1.26-.66,.16-.55-.11-1.09-.66-1.26-2.9-.98-5.9-.98-8.74,.06-.44,.16-.71,.71-.55,1.26h0Zm0,4.42c.16,.44,.55,.66,.93,.66,.11,0,.22,0,.33-.06,2.46-.82,5.03-.87,7.43,0,.55,.16,1.09-.11,1.26-.66,.16-.55-.11-1.09-.66-1.26-2.9-.98-5.9-.98-8.74,.06-.44,.16-.71,.71-.55,1.26h0Zm0,4.43c.16,.44,.55,.66,.93,.66,.11,0,.22,0,.33-.06,2.46-.82,5.03-.87,7.43,0,.55,.16,1.09-.11,1.26-.66,.16-.55-.11-1.09-.66-1.26-2.9-.98-5.9-.98-8.74,.06-.44,.16-.71,.76-.55,1.26h0Zm0,4.48c.16,.44,.55,.66,.93,.66,.11,0,.22,0,.33-.06,2.46-.82,5.03-.87,7.43,0,.55,.16,1.09-.11,1.26-.66,.16-.55-.11-1.09-.66-1.26-2.9-.98-5.9-.98-8.74,.06-.44,.11-.71,.71-.55,1.26h0Z"/>
        <path class="cls-11" d="M193.75,153.23c-2.08-.22-4.15-.22-6.23,0-.16,0-.27,.16-.27,.33v22.61c0,.38,.44,.55,.71,.33l2.4-2.18c.16-.16,.38-.16,.55,0l2.4,2.18c.27,.27,.71,.06,.71-.33v-22.61c.05-.22-.11-.33-.27-.33h0Z"/>
        <path class="cls-19" d="M207.14,158.8v32.5c0,1.26-1.04,2.29-2.29,2.29h-18.03c-.33,1.37-1.58,2.4-3.11,2.4h-4.1c-1.47,0-2.73-1.04-3.11-2.4h-18.03c-1.26,0-2.29-1.04-2.29-2.29v-32.5c0-1.26,1.04-2.29,2.29-2.29h1.47v32.94h43.43v-32.94h1.47c1.31,0,2.3,1.04,2.3,2.29h0Z"/>
      </g>
      <g>
        <path class="cls-15" d="M143.05,224.89v-1.11h2.03v1.21c0,.98,.43,1.35,1.11,1.35s1.11-.33,1.11-1.54v-1.11c0-1.27-.43-1.74-1.41-1.74h-.72v-1.95h.78c.8,0,1.29-.35,1.29-1.45v-1c0-.98-.45-1.37-1.08-1.37s-1.04,.37-1.04,1.27v.9h-2.03v-.72c0-2.19,1.09-3.4,3.15-3.4s3.15,1.19,3.15,3.38v.49c0,1.47-.47,2.37-1.52,2.76v.04c1.15,.43,1.58,1.43,1.58,2.81v1.21c0,2.19-1.09,3.38-3.21,3.38s-3.21-1.21-3.21-3.4Z"/>
        <path class="cls-15" d="M151.26,224.85v-7.19c0-2.19,1.15-3.44,3.26-3.44s3.26,1.25,3.26,3.44v7.19c0,2.19-1.15,3.44-3.26,3.44s-3.26-1.25-3.26-3.44Zm4.38,.14v-7.47c0-.98-.43-1.35-1.11-1.35s-1.11,.37-1.11,1.35v7.47c0,.98,.43,1.35,1.11,1.35s1.11-.37,1.11-1.35Z"/>
        <path class="cls-15" d="M159.46,224.85v-7.19c0-2.19,1.15-3.44,3.26-3.44s3.26,1.25,3.26,3.44v7.19c0,2.19-1.15,3.44-3.26,3.44s-3.26-1.25-3.26-3.44Zm4.38,.14v-7.47c0-.98-.43-1.35-1.11-1.35s-1.11,.37-1.11,1.35v7.47c0,.98,.43,1.35,1.11,1.35s1.11-.37,1.11-1.35Z"/>
        <path class="cls-15" d="M171.35,214.41h3.07l1.37,9.79h.04l1.37-9.79h3.07v13.68h-2.03v-10.36h-.04l-1.56,10.36h-1.8l-1.56-10.36h-.04v10.36h-1.88v-13.68Z"/>
        <path class="cls-15" d="M182.25,214.41h2.15v13.68h-2.15v-13.68Z"/>
        <path class="cls-15" d="M186.39,214.41h2.15v11.73h3.54v1.95h-5.69v-13.68Z"/>
        <path class="cls-15" d="M193.51,214.41h2.15v11.73h3.54v1.95h-5.69v-13.68Z"/>
        <path class="cls-15" d="M200.62,214.41h2.15v13.68h-2.15v-13.68Z"/>
        <path class="cls-15" d="M204.61,224.85v-7.19c0-2.19,1.15-3.44,3.26-3.44s3.26,1.25,3.26,3.44v7.19c0,2.19-1.15,3.44-3.26,3.44s-3.26-1.25-3.26-3.44Zm4.38,.14v-7.47c0-.98-.43-1.35-1.11-1.35s-1.11,.37-1.11,1.35v7.47c0,.98,.43,1.35,1.11,1.35s1.11-.37,1.11-1.35Z"/>
        <path class="cls-15" d="M212.97,214.41h2.7l2.09,8.19h.04v-8.19h1.92v13.68h-2.21l-2.58-9.99h-.04v9.99h-1.92v-13.68Z"/>
      </g>
      <line class="cls-5" x1="139.12" y1="233.49" x2="224.19" y2="233.49"/>
      <rect class="cls-13" x="129.41" y="251.76" width="104.01" height="12.69"/>
      <g>
        <path class="cls-3" d="M143.89,246.09v-.44h1.14v.53c0,.55,.24,.75,.63,.75s.63-.2,.63-.77c0-.64-.24-1.04-1.03-1.74-1.01-.89-1.34-1.52-1.34-2.4,0-1.21,.63-1.91,1.8-1.91s1.76,.7,1.76,1.94v.32h-1.14v-.4c0-.55-.22-.76-.61-.76s-.6,.21-.6,.74c0,.56,.25,.97,1.05,1.66,1.01,.89,1.33,1.51,1.33,2.46,0,1.25-.64,1.96-1.83,1.96s-1.78-.7-1.78-1.94Z"/>
        <path class="cls-3" d="M149.46,241.32h-1.27v-1.1h3.74v1.1h-1.27v6.6h-1.21v-6.6Z"/>
        <path class="cls-3" d="M152.81,246.09v-5.88h1.21v5.96c0,.55,.23,.75,.62,.75s.62-.2,.62-.75v-5.96h1.17v5.88c0,1.23-.62,1.94-1.8,1.94s-1.8-.7-1.8-1.94Z"/>
        <path class="cls-3" d="M157.6,240.22h1.85c1.21,0,1.8,.67,1.8,1.9v3.89c0,1.23-.59,1.9-1.8,1.9h-1.85v-7.7Zm1.83,6.6c.39,0,.62-.2,.62-.75v-4c0-.55-.23-.75-.62-.75h-.62v5.5h.62Z"/>
        <path class="cls-3" d="M162.4,240.22h3.3v1.1h-2.09v2.04h1.66v1.1h-1.66v2.37h2.09v1.1h-3.3v-7.7Z"/>
        <path class="cls-3" d="M166.72,240.22h1.52l1.18,4.61h.02v-4.61h1.08v7.7h-1.24l-1.45-5.62h-.02v5.62h-1.08v-7.7Z"/>
        <path class="cls-3" d="M172.7,241.32h-1.27v-1.1h3.74v1.1h-1.27v6.6h-1.21v-6.6Z"/>
        <path class="cls-3" d="M175.88,246.09v-.44h1.14v.53c0,.55,.24,.75,.63,.75s.63-.2,.63-.77c0-.64-.24-1.04-1.03-1.74-1.01-.89-1.34-1.52-1.34-2.4,0-1.21,.63-1.91,1.8-1.91s1.76,.7,1.76,1.94v.32h-1.14v-.4c0-.55-.22-.76-.61-.76s-.6,.21-.6,.74c0,.56,.25,.97,1.05,1.66,1.01,.89,1.33,1.51,1.33,2.46,0,1.25-.64,1.96-1.83,1.96s-1.78-.7-1.78-1.94Z"/>
        <path class="cls-3" d="M182.31,240.22h1.17l.54,5.92h.02l.57-5.92h1.32l.57,5.92h.02l.54-5.92h1.05l-.78,7.7h-1.51l-.55-5.19h-.02l-.55,5.19h-1.61l-.78-7.7Z"/>
        <path class="cls-3" d="M189.05,240.22h1.21v7.7h-1.21v-7.7Z"/>
        <path class="cls-3" d="M191.5,240.22h1.21v6.6h1.99v1.1h-3.2v-7.7Z"/>
        <path class="cls-3" d="M195.61,240.22h1.21v6.6h1.99v1.1h-3.2v-7.7Z"/>
        <path class="cls-3" d="M201.81,240.22h1.21v6.6h1.99v1.1h-3.2v-7.7Z"/>
        <path class="cls-3" d="M206.91,240.22h1.64l1.25,7.7h-1.21l-.22-1.53v.02h-1.38l-.22,1.51h-1.12l1.25-7.7Zm1.32,5.15l-.54-3.81h-.02l-.53,3.81h1.09Z"/>
        <path class="cls-3" d="M210.61,246.14v-4.14c0-1.19,.62-1.89,1.78-1.89s1.78,.7,1.78,1.89v.81h-1.14v-.89c0-.51-.24-.71-.6-.71s-.6,.21-.6,.71v4.3c0,.51,.24,.7,.6,.7s.6-.2,.6-.7v-1.18h1.14v1.09c0,1.19-.62,1.89-1.78,1.89s-1.78-.7-1.78-1.89Z"/>
        <path class="cls-3" d="M215.23,240.22h1.21v3.25l1.54-3.25h1.21l-1.44,2.83,1.46,4.87h-1.27l-1.02-3.43-.48,.98v2.45h-1.21v-7.7Z"/>
        <path class="cls-2" d="M132.24,254.22h1.83c1.25,0,1.79,.58,1.79,1.77v.31c0,.79-.24,1.29-.78,1.51v.02c.65,.22,.9,.79,.9,1.61v.66c0,1.19-.63,1.83-1.84,1.83h-1.9v-7.7Zm1.68,3.14c.45,0,.73-.2,.73-.81v-.43c0-.55-.19-.79-.62-.79h-.58v2.04h.47Zm.22,3.47c.41,0,.63-.19,.63-.76v-.67c0-.72-.23-.94-.78-.94h-.54v2.37h.69Z"/>
        <path class="cls-2" d="M137.95,254.22h1.64l1.25,7.7h-1.21l-.22-1.53v.02h-1.38l-.22,1.51h-1.12l1.25-7.7Zm1.32,5.15l-.54-3.81h-.02l-.53,3.81h1.09Z"/>
        <path class="cls-2" d="M141.52,260.09v-.44h1.14v.53c0,.55,.24,.75,.63,.75s.63-.2,.63-.77c0-.64-.24-1.04-1.03-1.74-1.01-.89-1.34-1.52-1.34-2.4,0-1.21,.63-1.91,1.8-1.91s1.76,.7,1.76,1.94v.32h-1.14v-.4c0-.55-.22-.76-.61-.76s-.6,.21-.6,.74c0,.56,.25,.97,1.05,1.66,1.01,.89,1.33,1.51,1.33,2.46,0,1.25-.64,1.96-1.83,1.96s-1.78-.7-1.78-1.94Z"/>
        <path class="cls-2" d="M146.15,254.22h1.21v7.7h-1.21v-7.7Z"/>
        <path class="cls-2" d="M148.51,260.14v-4.14c0-1.19,.62-1.89,1.78-1.89s1.78,.7,1.78,1.89v.81h-1.14v-.89c0-.51-.24-.71-.6-.71s-.61,.21-.61,.71v4.3c0,.51,.24,.7,.61,.7s.6-.2,.6-.7v-1.18h1.14v1.09c0,1.19-.62,1.89-1.78,1.89s-1.78-.7-1.78-1.89Z"/>
        <path class="cls-2" d="M155.22,254.22h1.52l1.18,4.61h.02v-4.61h1.08v7.7h-1.24l-1.45-5.62h-.02v5.62h-1.08v-7.7Z"/>
        <path class="cls-2" d="M160.21,260.09v-5.88h1.21v5.96c0,.55,.23,.75,.62,.75s.62-.2,.62-.75v-5.96h1.17v5.88c0,1.23-.62,1.94-1.8,1.94s-1.8-.7-1.8-1.94Z"/>
        <path class="cls-2" d="M165,254.22h1.73l.77,5.51h.02l.77-5.51h1.73v7.7h-1.14v-5.83h-.02l-.88,5.83h-1.01l-.88-5.83h-.02v5.83h-1.06v-7.7Z"/>
        <path class="cls-2" d="M171.25,254.22h3.3v1.1h-2.09v2.04h1.66v1.1h-1.66v2.37h2.09v1.1h-3.3v-7.7Z"/>
        <path class="cls-2" d="M175.57,254.22h1.79c1.25,0,1.79,.58,1.79,1.77v.47c0,.79-.25,1.3-.79,1.52v.02c.6,.19,.8,.76,.8,1.63v1.35c0,.37,.01,.65,.13,.94h-1.23c-.07-.2-.11-.32-.11-.95v-1.41c0-.71-.21-.95-.76-.95h-.42v3.3h-1.21v-7.7Zm1.65,3.3c.45,0,.73-.2,.73-.81v-.59c0-.55-.19-.79-.62-.79h-.55v2.2h.44Z"/>
        <path class="cls-2" d="M181.27,254.22h1.64l1.25,7.7h-1.21l-.22-1.53v.02h-1.38l-.22,1.51h-1.12l1.25-7.7Zm1.32,5.15l-.54-3.81h-.02l-.53,3.81h1.09Z"/>
        <path class="cls-2" d="M184.98,260.14v-4.14c0-1.19,.62-1.89,1.78-1.89s1.78,.7,1.78,1.89v.81h-1.14v-.89c0-.51-.24-.71-.6-.71s-.61,.21-.61,.71v4.3c0,.51,.24,.7,.61,.7s.6-.2,.6-.7v-1.18h1.14v1.09c0,1.19-.62,1.89-1.78,1.89s-1.78-.7-1.78-1.89Z"/>
        <path class="cls-2" d="M190.61,258.64l-1.46-4.42h1.29l.83,2.83h.02l.83-2.83h1.18l-1.46,4.42v3.28h-1.21v-3.28Z"/>
        <path class="cls-2" d="M196.24,254.22h1.05l-3.04,7.7h-1.04l3.04-7.7Z"/>
        <path class="cls-2" d="M198.17,254.22h1.21v6.6h1.99v1.1h-3.2v-7.7Z"/>
        <path class="cls-2" d="M202.28,254.22h1.21v7.7h-1.21v-7.7Z"/>
        <path class="cls-2" d="M205.67,255.32h-1.27v-1.1h3.74v1.1h-1.27v6.6h-1.21v-6.6Z"/>
        <path class="cls-2" d="M209.06,254.22h3.3v1.1h-2.09v2.04h1.66v1.1h-1.66v2.37h2.09v1.1h-3.3v-7.7Z"/>
        <path class="cls-2" d="M213.38,254.22h1.79c1.25,0,1.79,.58,1.79,1.77v.47c0,.79-.25,1.3-.79,1.52v.02c.6,.19,.8,.76,.8,1.63v1.35c0,.37,.01,.65,.13,.94h-1.23c-.07-.2-.11-.32-.11-.95v-1.41c0-.71-.21-.95-.76-.95h-.42v3.3h-1.21v-7.7Zm1.65,3.3c.45,0,.73-.2,.73-.81v-.59c0-.55-.19-.79-.62-.79h-.55v2.2h.44Z"/>
        <path class="cls-2" d="M219.08,254.22h1.64l1.25,7.7h-1.21l-.22-1.53v.02h-1.38l-.22,1.51h-1.12l1.25-7.7Zm1.32,5.15l-.54-3.81h-.02l-.53,3.81h1.09Z"/>
        <path class="cls-2" d="M222.78,260.14v-4.14c0-1.19,.62-1.89,1.78-1.89s1.78,.7,1.78,1.89v.81h-1.14v-.89c0-.51-.24-.71-.6-.71s-.61,.21-.61,.71v4.3c0,.51,.24,.7,.61,.7s.6-.2,.6-.7v-1.18h1.14v1.09c0,1.19-.62,1.89-1.78,1.89s-1.78-.7-1.78-1.89Z"/>
        <path class="cls-2" d="M228.42,258.64l-1.46-4.42h1.29l.83,2.83h.02l.83-2.83h1.18l-1.46,4.42v3.28h-1.21v-3.28Z"/>
        <path class="cls-3" d="M167.94,274.09v-.44h1.14v.53c0,.55,.24,.75,.63,.75s.63-.2,.63-.77c0-.64-.24-1.04-1.03-1.74-1.01-.89-1.34-1.52-1.34-2.4,0-1.21,.63-1.91,1.8-1.91s1.76,.7,1.76,1.94v.32h-1.14v-.4c0-.55-.22-.76-.61-.76s-.6,.21-.6,.74c0,.56,.25,.97,1.05,1.66,1.01,.89,1.33,1.51,1.33,2.46,0,1.25-.64,1.96-1.83,1.96s-1.78-.7-1.78-1.94Z"/>
        <path class="cls-3" d="M172.57,268.22h1.21v3.25l1.54-3.25h1.21l-1.44,2.83,1.46,4.87h-1.27l-1.02-3.43-.48,.98v2.45h-1.21v-7.7Z"/>
        <path class="cls-3" d="M177.45,268.22h1.21v7.7h-1.21v-7.7Z"/>
        <path class="cls-3" d="M179.9,268.22h1.21v6.6h1.99v1.1h-3.2v-7.7Z"/>
        <path class="cls-3" d="M184.01,268.22h1.21v6.6h1.99v1.1h-3.2v-7.7Z"/>
        <path class="cls-3" d="M187.91,274.09v-.44h1.14v.53c0,.55,.24,.75,.63,.75s.63-.2,.63-.77c0-.64-.24-1.04-1.03-1.74-1.01-.89-1.34-1.52-1.34-2.4,0-1.21,.63-1.91,1.8-1.91s1.76,.7,1.76,1.94v.32h-1.14v-.4c0-.55-.22-.76-.61-.76s-.6,.21-.6,.74c0,.56,.25,.97,1.05,1.66,1.01,.89,1.33,1.51,1.33,2.46,0,1.25-.64,1.96-1.83,1.96s-1.78-.7-1.78-1.94Z"/>
      </g>
    </g>
    <g>
      <g>
        <path class="cls-16" d="M280.03,188.69c-1.99,.07-3.1,.73-3.58,1.45-.45,.67-.42,1.43-.05,2.02,.35,.56,1.03,.97,1.92,.97,.24,0,.43-.2,.43-.43,0-.24-.19-.43-.43-.43-.54,0-.97-.22-1.18-.57-.2-.32-.21-.72,.04-1.09,.39-.58,1.3-1.01,2.87-1.07,.18,.48,.64,.82,1.18,.82,.69,0,1.26-.56,1.26-1.26s-.56-1.26-1.26-1.26c-.55,0-1.01,.35-1.18,.83Zm1.18,.02c.22,0,.4,.18,.4,.4s-.18,.4-.4,.4-.4-.18-.4-.4,.18-.4,.4-.4Zm-1.18-5.36c-1.99,.07-3.1,.73-3.58,1.45-.45,.67-.42,1.43-.05,2.02,.35,.56,1.03,.97,1.92,.97,.24,0,.43-.2,.43-.43,0-.24-.19-.43-.43-.43-.54,0-.97-.22-1.18-.57-.2-.32-.21-.72,.04-1.09,.39-.58,1.3-1.01,2.87-1.07,.18,.48,.64,.82,1.18,.82,.69,0,1.26-.56,1.26-1.26s-.56-1.26-1.26-1.26c-.55,0-1.01,.35-1.18,.83Zm1.18,.02c.22,0,.4,.18,.4,.4s-.18,.4-.4,.4-.4-.18-.4-.4,.18-.4,.4-.4Zm-1.18-5.36c-1.99,.07-3.1,.73-3.58,1.45-.45,.67-.42,1.43-.05,2.02,.35,.56,1.03,.97,1.92,.97,.24,0,.43-.2,.43-.43,0-.24-.19-.43-.43-.43-.54,0-.97-.22-1.18-.57-.2-.32-.21-.72,.04-1.08,.39-.58,1.3-1.01,2.87-1.07,.18,.48,.64,.82,1.18,.82,.69,0,1.26-.56,1.26-1.26s-.56-1.26-1.26-1.26c-.55,0-1.01,.35-1.18,.83Zm1.18,.02c.22,0,.4,.18,.4,.4s-.18,.4-.4,.4-.4-.18-.4-.4,.18-.4,.4-.4Zm-1.18-5.36c-1.99,.07-3.1,.73-3.58,1.45-.45,.67-.42,1.43-.05,2.02,.35,.56,1.03,.97,1.92,.97,.24,0,.43-.2,.43-.43,0-.24-.19-.43-.43-.43-.54,0-.97-.22-1.18-.57-.2-.32-.21-.72,.04-1.08,.39-.58,1.3-1.02,2.87-1.07,.18,.48,.64,.82,1.18,.82,.69,0,1.26-.56,1.26-1.26s-.56-1.26-1.26-1.26c-.55,0-1.01,.35-1.18,.83Zm1.18,.02c.22,0,.4,.18,.4,.4s-.18,.4-.4,.4-.4-.18-.4-.4,.18-.4,.4-.4Zm-2.9-.31h0s.02,0,.03,0h-.03Zm1.71-4.96c-1.99,.07-3.1,.73-3.58,1.45-.45,.67-.42,1.43-.05,2.02,.35,.56,1.03,.97,1.92,.97,.24,0,.43-.2,.43-.43,0-.24-.19-.43-.43-.43-.54,0-.97-.22-1.18-.57-.2-.32-.21-.72,.04-1.09,.39-.58,1.3-1.01,2.87-1.07,.18,.48,.64,.82,1.18,.82,.69,0,1.26-.56,1.26-1.26s-.56-1.26-1.26-1.26c-.55,0-1.01,.35-1.18,.83Zm1.18,.02c.22,0,.4,.18,.4,.4s-.18,.4-.4,.4-.4-.18-.4-.4,.18-.4,.4-.4Zm-1.18-5.36c-1.99,.07-3.1,.73-3.58,1.45-.45,.67-.42,1.43-.05,2.02,.35,.56,1.03,.97,1.92,.97,.24,0,.43-.2,.43-.43,0-.24-.19-.43-.43-.43-.54,0-.97-.22-1.18-.57-.2-.32-.21-.72,.04-1.09,.39-.58,1.3-1.01,2.87-1.07,.18,.48,.64,.82,1.18,.82,.69,0,1.26-.56,1.26-1.26s-.56-1.26-1.26-1.26c-.55,0-1.01,.35-1.18,.83Zm1.18,.02c.22,0,.4,.18,.4,.4s-.18,.4-.4,.4-.4-.18-.4-.4,.18-.4,.4-.4Zm-1.18-5.36c-1.99,.07-3.1,.73-3.58,1.45-.45,.67-.42,1.43-.05,2.02,.35,.56,1.03,.97,1.92,.97,.24,0,.43-.2,.43-.43,0-.24-.19-.43-.43-.43-.54,0-.97-.22-1.18-.57-.2-.32-.21-.72,.04-1.08,.39-.58,1.3-1.01,2.87-1.07,.18,.48,.64,.82,1.18,.82,.69,0,1.26-.56,1.26-1.26s-.56-1.26-1.26-1.26c-.55,0-1.01,.35-1.18,.83Zm1.18,.02c.22,0,.4,.18,.4,.4s-.18,.4-.4,.4-.4-.18-.4-.4,.18-.4,.4-.4Z"/>
        <g>
          <path class="cls-14" d="M307.48,171.15l-3.78,4.22c-.25,.28-.67,.3-.95,.05l-.06-.05-1.1,1.23c-.78,.88-2.13,.95-3.01,.17l-3.16-2.83c-.88-.78-.95-2.13-.17-3.01l1.1-1.23-.06-.05c-.28-.25-.3-.67-.05-.95l7.72-8.62c.25-.28,.67-.3,.95-.05l2.56,2.3v-7.93c0-.25-.21-.46-.46-.46h-28.24c-.25,0-.46,.21-.46,.46v2.1c.41-.11,.87-.18,1.38-.22,.31-.51,.87-.85,1.51-.85,.98,0,1.77,.79,1.77,1.77s-.79,1.77-1.77,1.77c-.62,0-1.17-.32-1.49-.81-.59,.04-1.06,.14-1.41,.29v1.39c.52,0,.94,.42,.94,.94,0,.52-.42,.95-.94,.95h0v.1c.41-.11,.87-.18,1.38-.22,.31-.51,.87-.85,1.51-.85,.98,0,1.77,.79,1.77,1.77s-.79,1.77-1.77,1.77c-.62,0-1.17-.32-1.49-.81-.59,.04-1.06,.14-1.41,.29v1.39c.52,0,.94,.42,.94,.94,0,.52-.42,.95-.94,.95h0v.1c.41-.11,.87-.18,1.38-.22,.31-.51,.87-.85,1.51-.85,.98,0,1.77,.79,1.77,1.77s-.79,1.77-1.77,1.77c-.62,0-1.17-.32-1.49-.81-.59,.04-1.06,.14-1.41,.29v1.39c.52,0,.94,.42,.94,.94,0,.39-.23,.72-.56,.87,.31-.06,.64-.11,1-.13,.31-.51,.87-.85,1.51-.85,.98,0,1.77,.79,1.77,1.77s-.79,1.77-1.77,1.77c-.62,0-1.17-.32-1.49-.81-.59,.04-1.06,.14-1.41,.29v1.39c.52,0,.94,.42,.94,.94,0,.52-.42,.95-.94,.95h0v.1c.41-.11,.87-.18,1.38-.22,.31-.51,.87-.85,1.51-.85,.98,0,1.77,.79,1.77,1.77s-.79,1.77-1.77,1.77c-.62,0-1.17-.32-1.49-.81-.59,.04-1.06,.14-1.41,.29v1.39c.52,0,.94,.42,.94,.94,0,.52-.42,.95-.94,.95h0v.1c.41-.11,.87-.18,1.38-.22,.31-.51,.87-.85,1.51-.85,.98,0,1.77,.79,1.77,1.77s-.79,1.77-1.77,1.77c-.62,0-1.17-.32-1.49-.81-.59,.04-1.06,.14-1.41,.29v1.39c.52,0,.94,.42,.94,.94,0,.52-.42,.95-.94,.95h0v.1c.41-.11,.87-.18,1.38-.22,.31-.51,.87-.85,1.51-.85,.98,0,1.77,.79,1.77,1.77s-.79,1.77-1.77,1.77c-.62,0-1.17-.32-1.49-.81-.59,.04-1.06,.14-1.41,.29v1.39c.52,0,.94,.42,.94,.94,0,.52-.42,.95-.94,.95h0v1.03c0,.25,.21,.46,.46,.46h28.24c.25,0,.46-.21,.46-.46v-23.53Zm-9.3,15.7l-9.91-27.05c-.2-.54-.79-.81-1.33-.62l-1.14,.42c-.54,.2-.81,.79-.62,1.33l9.91,27.05s.01,.03,.02,.05h0s.02,.04,.03,.05l2.99,4.63c.11,.17,.32,.24,.51,.17,.19-.07,.3-.26,.28-.46l-.71-5.47s0-.04-.01-.06h0s0-.04-.02-.05Zm-19.86-14.46h0s.02,0,.03,0h-.03Z"/>
          <path class="cls-12" d="M297.87,190.65l-1.67-2.59,1.28-.47,.4,3.06Zm-.94-4.85l.35,.95-1.48,.54-.35-.95,1.48-.54Zm-.29-.81l-1.48,.54-8.1-22.11,1.48-.54,8.1,22.11Zm.16-14.96l-1.1,1.23c-.59,.66-.54,1.69,.13,2.28l3.16,2.83c.66,.59,1.69,.54,2.28-.13l1.1-1.23-5.57-4.99Zm1.93-3.28l-2.04,2.28c-.06,.06-.05,.16,.01,.22l6.46,5.78c.06,.06,.16,.05,.22-.01l2.04-2.28-6.69-5.99Zm3.68-4.11l5.02,4.5c.18,.16,.19,.43,.03,.61-.16,.18-.43,.19-.61,.03l-5.02-4.5-2.54,2.83,6.69,5.99,2.54-2.83-.74-.66c-.18-.16-.19-.43-.03-.61,.16-.18,.43-.19,.61-.03l.74,.66,2-2.23c.06-.06,.05-.16-.01-.22l-6.45-5.78c-.06-.06-.16-.05-.22,.01l-2,2.23Zm-15.64-.02l-.73-1.99c-.03-.09,.01-.19,.11-.23l1.14-.42c.09-.03,.2,.01,.23,.11l.73,1.99-1.48,.54Z"/>
        </g>
      </g>
      <g>
        <path class="cls-15" d="M259.14,224.85v-7.19c0-2.19,1.15-3.44,3.26-3.44s3.26,1.25,3.26,3.44v7.19c0,2.19-1.15,3.44-3.26,3.44s-3.26-1.25-3.26-3.44Zm4.38,.14v-7.47c0-.98-.43-1.35-1.11-1.35s-1.11,.37-1.11,1.35v7.47c0,.98,.43,1.35,1.11,1.35s1.11-.37,1.11-1.35Z"/>
        <path class="cls-15" d="M267.5,214.41h2.7l2.09,8.19h.04v-8.19h1.92v13.68h-2.21l-2.58-9.99h-.04v9.99h-1.92v-13.68Z"/>
        <path class="cls-15" d="M276.24,214.41h2.15v11.73h3.54v1.95h-5.69v-13.68Z"/>
        <path class="cls-15" d="M283.6,222.27l-2.6-7.86h2.29l1.47,5.02h.04l1.47-5.02h2.09l-2.6,7.86v5.82h-2.15v-5.82Z"/>
        <path class="cls-15" d="M296.25,217.66h-2.25v-1.52c1.82,0,2.46-.39,2.95-1.72h1.45v13.68h-2.15v-10.44Z"/>
        <path class="cls-15" d="M304.96,214.41h2.15v13.68h-2.15v-13.68Z"/>
        <path class="cls-15" d="M309.11,214.41h2.7l2.09,8.19h.04v-8.19h1.92v13.68h-2.21l-2.58-9.99h-.04v9.99h-1.92v-13.68Z"/>
        <path class="cls-15" d="M321.26,224.85v-7.08c0-2.31,1.06-3.56,3.28-3.56,2.11,0,3.21,1.25,3.21,3.44v.25h-2.03v-.39c0-.98-.43-1.35-1.11-1.35-.76,0-1.19,.37-1.19,1.68v2.62h.04c.37-.78,1-1.19,1.95-1.19,1.58,0,2.38,1.11,2.38,3.13v2.44c0,2.19-1.15,3.44-3.26,3.44s-3.26-1.25-3.26-3.44Zm4.38,.16v-2.42c0-.92-.37-1.35-1.11-1.35s-1.11,.43-1.11,1.35v2.42c0,.9,.37,1.33,1.11,1.33s1.11-.43,1.11-1.33Z"/>
      </g>
      <line class="cls-5" x1="251.1" y1="233.49" x2="336.16" y2="233.49"/>
      <rect class="cls-13" x="287.81" y="251.7" width="43.21" height="12.69"/>
      <rect class="cls-13" x="255.73" y="265.67" width="75.42" height="12.69"/>
      <g>
        <path class="cls-3" d="M264.7,246.14v-4.14c0-1.19,.62-1.89,1.78-1.89s1.78,.7,1.78,1.89v.81h-1.14v-.89c0-.51-.24-.71-.6-.71s-.6,.21-.6,.71v4.3c0,.51,.24,.7,.6,.7s.6-.2,.6-.7v-1.18h1.14v1.09c0,1.19-.62,1.89-1.78,1.89s-1.78-.7-1.78-1.89Z"/>
        <path class="cls-3" d="M269.26,246.09v-4.05c0-1.23,.65-1.94,1.84-1.94s1.84,.7,1.84,1.94v4.05c0,1.23-.65,1.94-1.84,1.94s-1.84-.7-1.84-1.94Zm2.46,.08v-4.2c0-.55-.24-.76-.63-.76s-.63,.21-.63,.76v4.2c0,.55,.24,.76,.63,.76s.63-.21,.63-.76Z"/>
        <path class="cls-3" d="M274.03,246.09v-5.88h1.21v5.96c0,.55,.23,.75,.62,.75s.62-.2,.62-.75v-5.96h1.17v5.88c0,1.23-.62,1.94-1.8,1.94s-1.8-.7-1.8-1.94Z"/>
        <path class="cls-3" d="M278.83,240.22h1.52l1.18,4.61h.02v-4.61h1.08v7.7h-1.24l-1.45-5.62h-.02v5.62h-1.08v-7.7Z"/>
        <path class="cls-3" d="M284.8,241.32h-1.27v-1.1h3.74v1.1h-1.27v6.6h-1.21v-6.6Z"/>
        <path class="cls-3" d="M288.19,240.22h1.79c1.25,0,1.79,.58,1.79,1.77v.47c0,.79-.25,1.3-.79,1.52v.02c.6,.19,.8,.76,.8,1.63v1.35c0,.37,.01,.65,.13,.94h-1.23c-.07-.2-.11-.32-.11-.95v-1.41c0-.71-.21-.95-.76-.95h-.42v3.3h-1.21v-7.7Zm1.65,3.3c.45,0,.73-.2,.73-.81v-.59c0-.55-.19-.79-.62-.79h-.55v2.2h.44Z"/>
        <path class="cls-3" d="M292.95,240.22h1.21v7.7h-1.21v-7.7Z"/>
        <path class="cls-3" d="M295.39,240.22h3.3v1.1h-2.09v2.04h1.66v1.1h-1.66v2.37h2.09v1.1h-3.3v-7.7Z"/>
        <path class="cls-3" d="M299.53,246.09v-.44h1.14v.53c0,.55,.24,.75,.63,.75s.63-.2,.63-.77c0-.64-.24-1.04-1.03-1.74-1.01-.89-1.34-1.52-1.34-2.4,0-1.21,.63-1.91,1.8-1.91s1.76,.7,1.76,1.94v.32h-1.14v-.4c0-.55-.22-.76-.61-.76s-.6,.21-.6,.74c0,.56,.25,.97,1.05,1.66,1.01,.89,1.33,1.51,1.33,2.46,0,1.25-.64,1.96-1.83,1.96s-1.78-.7-1.78-1.94Z"/>
        <path class="cls-3" d="M305.97,240.22h1.17l.54,5.92h.02l.57-5.92h1.32l.57,5.92h.02l.54-5.92h1.05l-.78,7.7h-1.51l-.55-5.19h-.02l-.55,5.19h-1.61l-.78-7.7Z"/>
        <path class="cls-3" d="M312.71,240.22h1.21v7.7h-1.21v-7.7Z"/>
        <path class="cls-3" d="M315.15,240.22h1.21v6.6h1.99v1.1h-3.2v-7.7Z"/>
        <path class="cls-3" d="M319.26,240.22h1.21v6.6h1.99v1.1h-3.2v-7.7Z"/>
        <path class="cls-3" d="M257.59,254.22h1.64l1.25,7.7h-1.21l-.22-1.53v.02h-1.38l-.22,1.51h-1.12l1.25-7.7Zm1.32,5.15l-.54-3.81h-.02l-.53,3.81h1.09Z"/>
        <path class="cls-3" d="M261.29,260.14v-4.14c0-1.19,.62-1.89,1.78-1.89s1.78,.7,1.78,1.89v.81h-1.14v-.89c0-.51-.24-.71-.6-.71s-.61,.21-.61,.71v4.3c0,.51,.24,.7,.61,.7s.6-.2,.6-.7v-1.18h1.14v1.09c0,1.19-.62,1.89-1.78,1.89s-1.78-.7-1.78-1.89Z"/>
        <path class="cls-3" d="M265.92,254.22h1.21v3.14h1.3v-3.14h1.21v7.7h-1.21v-3.47h-1.3v3.47h-1.21v-7.7Z"/>
        <path class="cls-3" d="M270.86,254.22h1.21v7.7h-1.21v-7.7Z"/>
        <path class="cls-3" d="M273.31,254.22h3.3v1.1h-2.09v2.04h1.66v1.1h-1.66v2.37h2.09v1.1h-3.3v-7.7Z"/>
        <path class="cls-3" d="M277.31,254.22h1.22l.79,5.97h.02l.79-5.97h1.11l-1.17,7.7h-1.61l-1.17-7.7Z"/>
        <path class="cls-3" d="M282.16,254.22h3.3v1.1h-2.09v2.04h1.66v1.1h-1.66v2.37h2.09v1.1h-3.3v-7.7Z"/>
        <path class="cls-2" d="M290.62,260.09v-5.88h1.21v5.96c0,.55,.23,.75,.62,.75s.62-.2,.62-.75v-5.96h1.17v5.88c0,1.23-.62,1.94-1.8,1.94s-1.8-.7-1.8-1.94Z"/>
        <path class="cls-2" d="M295.42,254.22h1.52l1.18,4.61h.02v-4.61h1.08v7.7h-1.24l-1.45-5.62h-.02v5.62h-1.08v-7.7Z"/>
        <path class="cls-2" d="M300.44,254.22h1.21v7.7h-1.21v-7.7Z"/>
        <path class="cls-2" d="M302.57,254.22h1.22l.79,5.97h.02l.79-5.97h1.11l-1.17,7.7h-1.61l-1.17-7.7Z"/>
        <path class="cls-2" d="M307.42,254.22h3.3v1.1h-2.09v2.04h1.66v1.1h-1.66v2.37h2.09v1.1h-3.3v-7.7Z"/>
        <path class="cls-2" d="M311.74,254.22h1.79c1.25,0,1.79,.58,1.79,1.77v.47c0,.79-.25,1.3-.79,1.52v.02c.6,.19,.8,.76,.8,1.63v1.35c0,.37,.01,.65,.13,.94h-1.23c-.07-.2-.11-.32-.11-.95v-1.41c0-.71-.21-.95-.76-.95h-.42v3.3h-1.21v-7.7Zm1.65,3.3c.45,0,.73-.2,.73-.81v-.59c0-.55-.19-.79-.62-.79h-.55v2.2h.44Z"/>
        <path class="cls-2" d="M316.29,260.09v-.44h1.14v.53c0,.55,.24,.75,.63,.75s.63-.2,.63-.77c0-.64-.24-1.04-1.03-1.74-1.01-.89-1.34-1.52-1.34-2.4,0-1.21,.63-1.91,1.8-1.91s1.76,.7,1.76,1.94v.32h-1.14v-.4c0-.55-.22-.76-.61-.76s-.6,.21-.6,.74c0,.56,.25,.97,1.05,1.66,1.01,.89,1.33,1.51,1.33,2.46,0,1.25-.64,1.96-1.83,1.96s-1.78-.7-1.78-1.94Z"/>
        <path class="cls-2" d="M321.83,254.22h1.64l1.25,7.7h-1.21l-.22-1.53v.02h-1.38l-.22,1.51h-1.12l1.25-7.7Zm1.32,5.15l-.54-3.81h-.02l-.53,3.81h1.09Z"/>
        <path class="cls-2" d="M325.63,254.22h1.21v6.6h1.99v1.1h-3.2v-7.7Z"/>
        <path class="cls-2" d="M258.17,274.09v-.44h1.14v.53c0,.55,.24,.75,.63,.75s.63-.2,.63-.77c0-.64-.24-1.04-1.03-1.74-1.01-.89-1.34-1.52-1.34-2.4,0-1.21,.63-1.91,1.8-1.91s1.76,.7,1.76,1.94v.32h-1.14v-.4c0-.55-.22-.76-.61-.76s-.6,.21-.6,.74c0,.56,.25,.97,1.05,1.66,1.01,.89,1.33,1.51,1.33,2.46,0,1.25-.64,1.96-1.83,1.96s-1.78-.7-1.78-1.94Z"/>
        <path class="cls-2" d="M262.8,268.22h3.3v1.1h-2.09v2.04h1.66v1.1h-1.66v2.37h2.09v1.1h-3.3v-7.7Z"/>
        <path class="cls-2" d="M267.04,274.14v-4.14c0-1.19,.62-1.89,1.78-1.89s1.78,.7,1.78,1.89v.81h-1.14v-.89c0-.51-.24-.71-.6-.71s-.61,.21-.61,.71v4.3c0,.51,.24,.7,.61,.7s.6-.2,.6-.7v-1.18h1.14v1.09c0,1.19-.62,1.89-1.78,1.89s-1.78-.7-1.78-1.89Z"/>
        <path class="cls-2" d="M271.6,274.09v-4.05c0-1.23,.65-1.94,1.84-1.94s1.84,.7,1.84,1.94v4.05c0,1.23-.65,1.94-1.84,1.94s-1.84-.7-1.84-1.94Zm2.46,.08v-4.2c0-.55-.24-.76-.63-.76s-.63,.21-.63,.76v4.2c0,.55,.24,.76,.63,.76s.63-.21,.63-.76Z"/>
        <path class="cls-2" d="M276.41,268.22h1.52l1.18,4.61h.02v-4.61h1.08v7.7h-1.24l-1.45-5.62h-.02v5.62h-1.08v-7.7Z"/>
        <path class="cls-2" d="M281.44,268.22h1.85c1.21,0,1.8,.67,1.8,1.9v3.89c0,1.23-.59,1.9-1.8,1.9h-1.85v-7.7Zm1.83,6.6c.39,0,.62-.2,.62-.75v-4c0-.55-.23-.75-.62-.75h-.62v5.5h.62Z"/>
        <path class="cls-2" d="M287.15,268.22h1.64l1.25,7.7h-1.21l-.22-1.53v.02h-1.38l-.22,1.51h-1.12l1.25-7.7Zm1.32,5.15l-.54-3.81h-.02l-.53,3.81h1.09Z"/>
        <path class="cls-2" d="M290.96,268.22h1.79c1.25,0,1.79,.58,1.79,1.77v.47c0,.79-.25,1.3-.79,1.52v.02c.6,.19,.8,.76,.8,1.63v1.35c0,.37,.01,.65,.13,.94h-1.23c-.07-.2-.11-.32-.11-.95v-1.41c0-.71-.21-.95-.76-.95h-.42v3.3h-1.21v-7.7Zm1.65,3.3c.45,0,.73-.2,.73-.81v-.59c0-.55-.19-.79-.62-.79h-.55v2.2h.44Z"/>
        <path class="cls-2" d="M296.65,272.64l-1.46-4.42h1.29l.83,2.83h.02l.83-2.83h1.18l-1.46,4.42v3.28h-1.21v-3.28Z"/>
        <path class="cls-2" d="M302.09,274.09v-.44h1.14v.53c0,.55,.24,.75,.63,.75s.63-.2,.63-.77c0-.64-.24-1.04-1.03-1.74-1.01-.89-1.34-1.52-1.34-2.4,0-1.21,.63-1.91,1.8-1.91s1.76,.7,1.76,1.94v.32h-1.14v-.4c0-.55-.22-.76-.61-.76s-.6,.21-.6,.74c0,.56,.25,.97,1.05,1.66,1.01,.89,1.33,1.51,1.33,2.46,0,1.25-.64,1.96-1.83,1.96s-1.78-.7-1.78-1.94Z"/>
        <path class="cls-2" d="M306.64,274.14v-4.14c0-1.19,.62-1.89,1.78-1.89s1.78,.7,1.78,1.89v.81h-1.14v-.89c0-.51-.24-.71-.6-.71s-.61,.21-.61,.71v4.3c0,.51,.24,.7,.61,.7s.6-.2,.6-.7v-1.18h1.14v1.09c0,1.19-.62,1.89-1.78,1.89s-1.78-.7-1.78-1.89Z"/>
        <path class="cls-2" d="M311.26,268.22h1.21v3.14h1.3v-3.14h1.21v7.7h-1.21v-3.47h-1.3v3.47h-1.21v-7.7Z"/>
        <path class="cls-2" d="M316.12,274.09v-4.05c0-1.23,.65-1.94,1.84-1.94s1.84,.7,1.84,1.94v4.05c0,1.23-.65,1.94-1.84,1.94s-1.84-.7-1.84-1.94Zm2.46,.08v-4.2c0-.55-.24-.76-.63-.76s-.63,.21-.63,.76v4.2c0,.55,.24,.76,.63,.76s.63-.21,.63-.76Z"/>
        <path class="cls-2" d="M320.85,274.09v-4.05c0-1.23,.65-1.94,1.84-1.94s1.84,.7,1.84,1.94v4.05c0,1.23-.65,1.94-1.84,1.94s-1.84-.7-1.84-1.94Zm2.46,.08v-4.2c0-.55-.24-.76-.63-.76s-.63,.21-.63,.76v4.2c0,.55,.24,.76,.63,.76s.63-.21,.63-.76Z"/>
        <path class="cls-2" d="M325.67,268.22h1.21v6.6h1.99v1.1h-3.2v-7.7Z"/>
        <path class="cls-3" d="M257.1,288.14v-4.14c0-1.19,.62-1.89,1.78-1.89s1.78,.7,1.78,1.89v.81h-1.14v-.89c0-.51-.24-.71-.6-.71s-.61,.21-.61,.71v4.3c0,.51,.24,.7,.61,.7s.6-.2,.6-.7v-1.18h1.14v1.09c0,1.19-.62,1.89-1.78,1.89s-1.78-.7-1.78-1.89Z"/>
        <path class="cls-3" d="M261.66,288.09v-4.05c0-1.23,.65-1.94,1.84-1.94s1.84,.7,1.84,1.94v4.05c0,1.23-.65,1.94-1.84,1.94s-1.84-.7-1.84-1.94Zm2.46,.08v-4.2c0-.55-.24-.76-.63-.76s-.63,.21-.63,.76v4.2c0,.55,.24,.76,.63,.76s.63-.21,.63-.76Z"/>
        <path class="cls-3" d="M266.48,282.22h1.73l.77,5.51h.02l.77-5.51h1.73v7.7h-1.14v-5.83h-.02l-.88,5.83h-1.01l-.88-5.83h-.02v5.83h-1.06v-7.7Z"/>
        <path class="cls-3" d="M272.72,282.22h1.78c1.21,0,1.8,.67,1.8,1.9v.76c0,1.23-.59,1.9-1.8,1.9h-.57v3.14h-1.21v-7.7Zm1.78,3.47c.38,0,.59-.18,.59-.73v-.91c0-.55-.21-.73-.59-.73h-.57v2.37h.57Z"/>
        <path class="cls-3" d="M277.3,282.22h1.21v6.6h1.99v1.1h-3.2v-7.7Z"/>
        <path class="cls-3" d="M281.41,282.22h3.3v1.1h-2.09v2.04h1.66v1.1h-1.66v2.37h2.09v1.1h-3.3v-7.7Z"/>
        <path class="cls-3" d="M286.68,283.32h-1.27v-1.1h3.74v1.1h-1.27v6.6h-1.21v-6.6Z"/>
        <path class="cls-3" d="M290.07,282.22h1.21v7.7h-1.21v-7.7Z"/>
        <path class="cls-3" d="M292.42,288.09v-4.05c0-1.23,.65-1.94,1.84-1.94s1.84,.7,1.84,1.94v4.05c0,1.23-.65,1.94-1.84,1.94s-1.84-.7-1.84-1.94Zm2.46,.08v-4.2c0-.55-.24-.76-.63-.76s-.63,.21-.63,.76v4.2c0,.55,.24,.76,.63,.76s.63-.21,.63-.76Z"/>
        <path class="cls-3" d="M297.24,282.22h1.52l1.18,4.61h.02v-4.61h1.08v7.7h-1.24l-1.45-5.62h-.02v5.62h-1.08v-7.7Z"/>
        <path class="cls-3" d="M305.31,283.32h-1.27v-1.1h3.74v1.1h-1.27v6.6h-1.21v-6.6Z"/>
        <path class="cls-3" d="M309.12,282.22h1.64l1.25,7.7h-1.21l-.22-1.53v.02h-1.38l-.22,1.51h-1.12l1.25-7.7Zm1.32,5.15l-.54-3.81h-.02l-.53,3.81h1.09Z"/>
        <path class="cls-3" d="M312.93,282.22h1.79c1.25,0,1.79,.58,1.79,1.77v.47c0,.79-.25,1.3-.79,1.52v.02c.6,.19,.8,.76,.8,1.63v1.35c0,.37,.01,.65,.13,.94h-1.23c-.07-.2-.11-.32-.11-.95v-1.41c0-.71-.21-.95-.76-.95h-.42v3.3h-1.21v-7.7Zm1.65,3.3c.45,0,.73-.2,.73-.81v-.59c0-.55-.19-.79-.62-.79h-.55v2.2h.44Z"/>
        <path class="cls-3" d="M317.6,288.09v-4.05c0-1.23,.62-1.94,1.8-1.94s1.8,.7,1.8,1.94v.66h-1.14v-.74c0-.55-.24-.76-.63-.76s-.63,.21-.63,.76v4.21c0,.55,.24,.75,.63,.75s.63-.2,.63-.75v-1.51h-.61v-1.1h1.75v2.52c0,1.23-.62,1.94-1.8,1.94s-1.8-.7-1.8-1.94Z"/>
        <path class="cls-3" d="M322.32,282.22h3.3v1.1h-2.09v2.04h1.66v1.1h-1.66v2.37h2.09v1.1h-3.3v-7.7Z"/>
        <path class="cls-3" d="M327.59,283.32h-1.27v-1.1h3.74v1.1h-1.27v6.6h-1.21v-6.6Z"/>
      </g>
    </g>
  </g>
</svg>