<?xml version="1.0" encoding="UTF-8"?>
<svg id="Layer_2" data-name="Layer 2" xmlns="http://www.w3.org/2000/svg" viewBox="0 0 267.92 161.34">
  <defs>
    <style>
      .cls-1 {
        stroke: #f26c4a;
        stroke-miterlimit: 10;
        stroke-width: 5px;
      }

      .cls-1, .cls-2 {
        fill: none;
      }

      .cls-3 {
        fill: #fff;
      }

      .cls-4 {
        fill: #939598;
      }

      .cls-5 {
        fill: #ef412a;
      }

      .cls-6 {
        fill: #feebe0;
      }

      .cls-2 {
        stroke: #939598;
        stroke-dasharray: 0 0 0 2.91;
        stroke-linecap: round;
        stroke-linejoin: round;
        stroke-width: 1.75px;
      }

      .cls-7 {
        fill: #f26c4a;
      }
    </style>
  </defs>
  <g id="Layer_2-2" data-name="Layer 2">
    <rect class="cls-6" y="12.89" width="267.92" height="148.45"/>
    <rect class="cls-5" x="62.75" width="153.51" height="20.58"/>
    <g>
      <path class="cls-3" d="M82.52,7.17h-2.18v-1.48c1.77,0,2.39-.38,2.87-1.67h1.41v13.3h-2.09V7.17Z"/>
      <path class="cls-3" d="M90.24,4.02h2.09v13.3h-2.09V4.02Z"/>
      <path class="cls-3" d="M93.88,4.02h2.62l2.03,7.96h.04V4.02h1.86v13.3h-2.15l-2.51-9.71h-.04v9.71h-1.86V4.02Z"/>
      <path class="cls-3" d="M104.98,14.17v-1.04h1.98v1.2c0,.95,.42,1.29,1.08,1.29s1.08-.34,1.08-1.29v-2.98c0-.95-.42-1.31-1.08-1.31s-1.08,.36-1.08,1.31v.11h-1.98l.38-7.43h5.51v1.9h-3.65l-.17,3.17h.04c.38-.63,.97-.97,1.8-.97,1.54,0,2.32,1.08,2.32,3.04v3c0,2.13-1.06,3.34-3.12,3.34s-3.12-1.22-3.12-3.34Z"/>
      <path class="cls-3" d="M117.6,11.66l-2.53-7.64h2.22l1.42,4.88h.04l1.42-4.88h2.03l-2.53,7.64v5.66h-2.09v-5.66Z"/>
      <path class="cls-3" d="M122.67,14.17V7.17c0-2.13,1.12-3.34,3.17-3.34s3.17,1.22,3.17,3.34v6.99c0,2.13-1.12,3.34-3.17,3.34s-3.17-1.22-3.17-3.34Zm4.26,.13V7.04c0-.95-.42-1.31-1.08-1.31s-1.08,.36-1.08,1.31v7.26c0,.95,.42,1.31,1.08,1.31s1.08-.36,1.08-1.31Z"/>
      <path class="cls-3" d="M130.34,14.17V4.02h2.09V14.32c0,.95,.4,1.29,1.06,1.29s1.06-.34,1.06-1.29V4.02h2.01V14.17c0,2.13-1.06,3.34-3.12,3.34s-3.12-1.22-3.12-3.34Z"/>
      <path class="cls-3" d="M138.06,4.02h2.62l2.03,7.96h.04V4.02h1.86v13.3h-2.15l-2.51-9.71h-.04v9.71h-1.86V4.02Z"/>
      <path class="cls-3" d="M146.02,14.17V7.17c0-2.13,1.06-3.34,3.12-3.34s3.12,1.22,3.12,3.34v1.14h-1.98v-1.27c0-.95-.42-1.31-1.08-1.31s-1.08,.36-1.08,1.31v7.28c0,.95,.42,1.29,1.08,1.29s1.08-.34,1.08-1.29v-2.6h-1.04v-1.9h3.02v4.35c0,2.13-1.06,3.34-3.12,3.34s-3.12-1.22-3.12-3.34Z"/>
      <path class="cls-3" d="M156.15,4.02h2.01l.93,10.22h.04l.99-10.22h2.28l.99,10.22h.04l.93-10.22h1.8l-1.35,13.3h-2.6l-.95-8.97h-.04l-.95,8.97h-2.77l-1.35-13.3Z"/>
      <path class="cls-3" d="M167.07,14.17V7.17c0-2.13,1.12-3.34,3.17-3.34s3.17,1.22,3.17,3.34v6.99c0,2.13-1.12,3.34-3.17,3.34s-3.17-1.22-3.17-3.34Zm4.26,.13V7.04c0-.95-.42-1.31-1.08-1.31s-1.08,.36-1.08,1.31v7.26c0,.95,.42,1.31,1.08,1.31s1.08-.36,1.08-1.31Z"/>
      <path class="cls-3" d="M174.82,4.02h2.98l1.33,9.52h.04l1.33-9.52h2.98v13.3h-1.98V7.25h-.04l-1.52,10.07h-1.75l-1.52-10.07h-.04v10.07h-1.82V4.02Z"/>
      <path class="cls-3" d="M185.04,4.02h5.7v1.9h-3.61v3.51h2.87v1.9h-2.87v4.08h3.61v1.9h-5.7V4.02Z"/>
      <path class="cls-3" d="M191.94,4.02h2.62l2.03,7.96h.04V4.02h1.86v13.3h-2.15l-2.51-9.71h-.04v9.71h-1.86V4.02Z"/>
    </g>
    <g>
      <line class="cls-2" x1="80.88" y1="42.95" x2="40.11" y2="42.95"/>
      <line class="cls-2" x1="80.88" y1="40.13" x2="40.11" y2="40.13"/>
    </g>
    <g>
      <line class="cls-2" x1="234.18" y1="42.95" x2="193.4" y2="42.95"/>
      <line class="cls-2" x1="234.18" y1="40.13" x2="193.4" y2="40.13"/>
    </g>
    <g>
      <path class="cls-5" d="M90.29,33.4h3.72l2.85,17.5h-2.75l-.5-3.47v.05h-3.12l-.5,3.42h-2.55l2.85-17.5Zm3,11.7l-1.22-8.65h-.05l-1.2,8.65h2.47Z"/>
      <path class="cls-5" d="M98.19,33.4h4.07c2.85,0,4.07,1.32,4.07,4.02v1.07c0,1.8-.57,2.95-1.8,3.45v.05c1.38,.42,1.82,1.72,1.82,3.7v3.07c0,.85,.02,1.47,.3,2.12h-2.8c-.15-.45-.25-.72-.25-2.15v-3.2c0-1.62-.47-2.15-1.72-2.15h-.95v7.5h-2.75v-17.5Zm3.75,7.5c1.02,0,1.65-.45,1.65-1.85v-1.35c0-1.25-.42-1.8-1.4-1.8h-1.25v5h1Z"/>
      <path class="cls-5" d="M108.27,33.4h7.5v2.5h-4.75v4.62h3.77v2.5h-3.77v5.37h4.75v2.5h-7.5v-17.5Z"/>
      <path class="cls-5" d="M121.34,33.4h3.92l1.75,12.52h.05l1.75-12.52h3.92v17.5h-2.6v-13.25h-.05l-2,13.25h-2.3l-2-13.25h-.05v13.25h-2.4v-17.5Z"/>
      <path class="cls-5" d="M136.92,33.4h3.72l2.85,17.5h-2.75l-.5-3.47v.05h-3.12l-.5,3.42h-2.55l2.85-17.5Zm3,11.7l-1.22-8.65h-.05l-1.2,8.65h2.47Z"/>
      <path class="cls-5" d="M144.82,33.4h4.07c2.85,0,4.07,1.32,4.07,4.02v1.07c0,1.8-.57,2.95-1.8,3.45v.05c1.38,.42,1.82,1.72,1.82,3.7v3.07c0,.85,.02,1.47,.3,2.12h-2.8c-.15-.45-.25-.72-.25-2.15v-3.2c0-1.62-.47-2.15-1.72-2.15h-.95v7.5h-2.75v-17.5Zm3.75,7.5c1.02,0,1.65-.45,1.65-1.85v-1.35c0-1.25-.42-1.8-1.4-1.8h-1.25v5h1Z"/>
      <path class="cls-5" d="M154.89,33.4h4.07c2.85,0,4.07,1.32,4.07,4.02v1.07c0,1.8-.58,2.95-1.8,3.45v.05c1.38,.42,1.82,1.72,1.82,3.7v3.07c0,.85,.02,1.47,.3,2.12h-2.8c-.15-.45-.25-.72-.25-2.15v-3.2c0-1.62-.47-2.15-1.72-2.15h-.95v7.5h-2.75v-17.5Zm3.75,7.5c1.02,0,1.65-.45,1.65-1.85v-1.35c0-1.25-.42-1.8-1.4-1.8h-1.25v5h1Z"/>
      <path class="cls-5" d="M164.97,33.4h2.75v17.5h-2.75v-17.5Z"/>
      <path class="cls-5" d="M169.77,33.4h7.5v2.5h-4.75v4.62h3.77v2.5h-3.77v5.37h4.75v2.5h-7.5v-17.5Z"/>
      <path class="cls-5" d="M178.84,33.4h4.2c2.75,0,4.1,1.52,4.1,4.32v8.85c0,2.8-1.35,4.32-4.1,4.32h-4.2v-17.5Zm4.15,15c.87,0,1.4-.45,1.4-1.7v-9.1c0-1.25-.52-1.7-1.4-1.7h-1.4v12.5h1.4Z"/>
      <path class="cls-5" d="M52.67,59.6h3.15c2.17,0,3.1,1.01,3.1,3.06v.53c0,1.37-.42,2.22-1.35,2.6v.04c1.12,.38,1.56,1.37,1.56,2.77v1.14c0,2.05-1.08,3.15-3.17,3.15h-3.29v-13.3Zm2.91,5.41c.78,0,1.25-.34,1.25-1.41v-.74c0-.95-.32-1.37-1.06-1.37h-1.01v3.51h.82Zm.38,5.98c.7,0,1.08-.32,1.08-1.31v-1.16c0-1.23-.4-1.61-1.35-1.61h-.93v4.08h1.2Z"/>
      <path class="cls-5" d="M60.35,59.6h5.7v1.9h-3.61v3.51h2.87v1.9h-2.87v4.08h3.61v1.9h-5.7v-13.3Z"/>
      <path class="cls-5" d="M67.25,59.6h5.53v1.9h-3.44v3.7h2.7v1.9h-2.7v5.79h-2.09v-13.3Z"/>
      <path class="cls-5" d="M73.63,69.74v-6.99c0-2.13,1.12-3.34,3.17-3.34s3.17,1.22,3.17,3.34v6.99c0,2.13-1.12,3.34-3.17,3.34s-3.17-1.22-3.17-3.34Zm4.26,.13v-7.26c0-.95-.42-1.31-1.08-1.31s-1.08,.36-1.08,1.31v7.26c0,.95,.42,1.31,1.08,1.31s1.08-.36,1.08-1.31Z"/>
      <path class="cls-5" d="M81.38,59.6h3.1c2.17,0,3.1,1.01,3.1,3.06v.82c0,1.37-.44,2.24-1.37,2.62v.04c1.04,.32,1.39,1.31,1.39,2.81v2.34c0,.65,.02,1.12,.23,1.61h-2.13c-.11-.34-.19-.55-.19-1.63v-2.43c0-1.23-.36-1.63-1.31-1.63h-.72v5.7h-2.09v-13.3Zm2.85,5.7c.78,0,1.25-.34,1.25-1.41v-1.03c0-.95-.32-1.37-1.06-1.37h-.95v3.8h.76Z"/>
      <path class="cls-5" d="M89.04,59.6h5.7v1.9h-3.61v3.51h2.87v1.9h-2.87v4.08h3.61v1.9h-5.7v-13.3Z"/>
      <path class="cls-5" d="M100.61,61.5h-2.18v-1.9h6.46v1.9h-2.18v11.4h-2.09v-11.4Z"/>
      <path class="cls-5" d="M105.89,59.6h2.09v5.41h2.24v-5.41h2.09v13.3h-2.09v-5.98h-2.24v5.98h-2.09v-13.3Z"/>
      <path class="cls-5" d="M113.87,59.6h5.7v1.9h-3.61v3.51h2.87v1.9h-2.87v4.08h3.61v1.9h-5.7v-13.3Z"/>
      <path class="cls-5" d="M120.77,59.6h2.09v13.3h-2.09v-13.3Z"/>
      <path class="cls-5" d="M124.42,59.6h3.1c2.17,0,3.1,1.01,3.1,3.06v.82c0,1.37-.44,2.24-1.37,2.62v.04c1.04,.32,1.39,1.31,1.39,2.81v2.34c0,.65,.02,1.12,.23,1.61h-2.13c-.11-.34-.19-.55-.19-1.63v-2.43c0-1.23-.36-1.63-1.31-1.63h-.72v5.7h-2.09v-13.3Zm2.85,5.7c.78,0,1.25-.34,1.25-1.41v-1.03c0-.95-.32-1.37-1.06-1.37h-.95v3.8h.76Z"/>
      <path class="cls-5" d="M138.04,62.75h-2.19v-1.48c1.77,0,2.39-.38,2.87-1.67h1.41v13.3h-2.09v-10.14Z"/>
      <path class="cls-5" d="M142.47,69.8v-1.18c0-1.27,.38-2.2,1.37-2.72v-.04c-.87-.48-1.29-1.31-1.29-2.62v-.55c0-2.13,1.16-3.29,3.19-3.29s3.19,1.16,3.19,3.29v.55c0,1.31-.44,2.15-1.29,2.62v.04c.99,.51,1.37,1.44,1.37,2.72v1.18c0,2.13-1.16,3.29-3.27,3.29s-3.27-1.16-3.27-3.29Zm4.45-.11v-1.27c0-1.01-.4-1.5-1.18-1.5s-1.18,.49-1.18,1.5v1.27c0,1.01,.4,1.5,1.18,1.5s1.18-.49,1.18-1.5Zm-.08-6v-1.04c0-.87-.38-1.33-1.1-1.33s-1.1,.46-1.1,1.33v1.04c0,.87,.38,1.33,1.1,1.33s1.1-.46,1.1-1.33Z"/>
      <path class="cls-5" d="M151.95,61.5h-2.18v-1.9h6.46v1.9h-2.18v11.4h-2.09v-11.4Z"/>
      <path class="cls-5" d="M157.23,59.6h2.09v5.41h2.24v-5.41h2.09v13.3h-2.09v-5.98h-2.24v5.98h-2.09v-13.3Z"/>
      <path class="cls-5" d="M168.25,59.6h3.15c2.17,0,3.1,1.01,3.1,3.06v.53c0,1.37-.42,2.22-1.35,2.6v.04c1.12,.38,1.56,1.37,1.56,2.77v1.14c0,2.05-1.08,3.15-3.17,3.15h-3.29v-13.3Zm2.91,5.41c.78,0,1.25-.34,1.25-1.41v-.74c0-.95-.32-1.37-1.06-1.37h-1.01v3.51h.82Zm.38,5.98c.7,0,1.08-.32,1.08-1.31v-1.16c0-1.23-.4-1.61-1.35-1.61h-.93v4.08h1.2Z"/>
      <path class="cls-5" d="M175.93,59.6h2.09v13.3h-2.09v-13.3Z"/>
      <path class="cls-5" d="M179.57,59.6h3.1c2.17,0,3.1,1.01,3.1,3.06v.82c0,1.37-.44,2.24-1.37,2.62v.04c1.04,.32,1.39,1.31,1.39,2.81v2.34c0,.65,.02,1.12,.23,1.61h-2.13c-.11-.34-.19-.55-.19-1.63v-2.43c0-1.23-.36-1.63-1.31-1.63h-.72v5.7h-2.09v-13.3Zm2.85,5.7c.78,0,1.25-.34,1.25-1.41v-1.03c0-.95-.32-1.37-1.06-1.37h-.95v3.8h.76Z"/>
      <path class="cls-5" d="M188.83,61.5h-2.18v-1.9h6.46v1.9h-2.18v11.4h-2.09v-11.4Z"/>
      <path class="cls-5" d="M194.11,59.6h2.09v5.41h2.24v-5.41h2.09v13.3h-2.09v-5.98h-2.24v5.98h-2.09v-13.3Z"/>
      <path class="cls-5" d="M202.09,59.6h3.19c2.09,0,3.12,1.16,3.12,3.29v6.73c0,2.13-1.03,3.29-3.12,3.29h-3.19v-13.3Zm3.15,11.4c.66,0,1.06-.34,1.06-1.29v-6.92c0-.95-.4-1.29-1.06-1.29h-1.06v9.5h1.06Z"/>
      <path class="cls-5" d="M211.38,59.6h2.83l2.17,13.3h-2.09l-.38-2.64v.04h-2.38l-.38,2.6h-1.94l2.17-13.3Zm2.28,8.89l-.93-6.57h-.04l-.91,6.57h1.88Z"/>
      <path class="cls-5" d="M218.43,67.23l-2.53-7.64h2.22l1.42,4.88h.04l1.42-4.88h2.03l-2.53,7.64v5.66h-2.09v-5.66Z"/>
    </g>
    <g>
      <path class="cls-7" d="M74.98,87.3c-22.93,0-41.52,13.23-41.52,29.54s18.59,29.54,41.52,29.54,41.53-13.22,41.53-29.54-18.59-29.54-41.53-29.54h0Zm.07,46.64c-17.51,0-32.14-7.47-35.73-17.45-.55-1.53-.85-3.12-.85-4.75,0-12.26,16.37-22.2,36.58-22.2s36.58,9.94,36.58,22.2c0,1.63-.3,3.22-.85,4.75-3.58,9.98-18.22,17.45-35.73,17.45h0Z"/>
      <path class="cls-7" d="M75.05,99.18c16.9,0,31.02,7.21,34.48,16.84,.53-1.48,.82-3.01,.82-4.58,0-11.83-15.8-21.42-35.3-21.42s-35.3,9.59-35.3,21.42c0,1.57,.29,3.1,.82,4.58,3.46-9.63,17.58-16.84,34.48-16.84h0Z"/>
    </g>
    <g>
      <path class="cls-4" d="M140.21,123.09c.08,.02,.16,.06,.21,.12,.06,.06,.09,.14,.11,.22,.02,.14,.05,.28,.09,.41,.45,1.41,2.14,2.13,3.79,1.61,1.64-.52,2.61-2.09,2.17-3.5-.04-.13-.1-.27-.16-.39-.04-.07-.05-.16-.04-.24,.01-.08,.05-.16,.11-.22,.26-.28,.39-.66,.37-1.05-.02-.38-.2-.74-.49-.99-.29-.25-.67-.37-1.06-.34s-.74,.22-.98,.52c-.07,.08-.09,.19-.05,.29,.04,.1,.12,.17,.23,.19h0s0,0,0,0c.05,0,.1,0,.15-.01,.05-.02,.09-.05,.12-.09,.11-.14,.26-.24,.43-.28,.2-.05,.41-.03,.59,.06,.18,.09,.33,.25,.4,.44,.09,.22,.07,.46-.03,.67-.05,.1-.14,.17-.25,.2-.11,.03-.23,0-.32-.05-.75-.5-1.78-.65-2.8-.33s-1.77,1.04-2.1,1.88c-.04,.11-.13,.19-.23,.23-.11,.04-.22,.03-.33-.02-.21-.11-.36-.3-.41-.53-.05-.2-.02-.41,.08-.59,.1-.18,.26-.32,.45-.39,.17-.06,.35-.06,.51-.01,.05,.01,.1,.01,.15,0,.05-.01,.09-.04,.13-.08h0s0,0,0,0c.08-.08,.1-.18,.08-.29-.03-.1-.11-.18-.21-.21-.37-.1-.77-.06-1.1,.14s-.57,.51-.67,.88c-.09,.37-.03,.77,.17,1.1,.2,.33,.53,.56,.9,.64h0Zm3.61-1.79c-.03-.1,0-.21,.07-.29,.07-.08,.18-.11,.29-.09,.11,.02,.19,.1,.22,.2l.13,.4c.03,.1,0,.21-.07,.29-.07,.08-.18,.11-.29,.09-.11-.02-.19-.1-.22-.2l-.13-.4Zm.19,2.21c-.02-.05,0-.11,.05-.14,.21-.16,.31-.38,.24-.59-.01-.04-.03-.07-.05-.1-.03-.04-.03-.1,0-.15,.03-.05,.08-.07,.13-.06,.44,.08,.78,.33,.9,.7,.16,.52-.17,1.1-.77,1.42h0s-.07,.02-.11,0c-.04-.01-.06-.04-.07-.08l-.32-1Zm-2.09-1.61c-.02-.08-.02-.16,.02-.23,.04-.07,.1-.12,.18-.15s.16-.02,.23,.02c.07,.04,.12,.1,.15,.18l.13,.4c.02,.08,.02,.16-.02,.23-.04,.07-.1,.12-.18,.15s-.16,.02-.23-.02c-.07-.04-.12-.1-.15-.18l-.13-.4Zm.78,1.1s.09-.05,.14-.03c.05,.02,.08,.07,.08,.12,0,.04,0,.08,.02,.11,.07,.21,.28,.33,.54,.34,.06,0,.1,.04,.12,.09l.32,1s0,.08-.01,.11c-.02,.03-.05,.05-.09,.06-.67,.08-1.28-.2-1.45-.72-.12-.37,.02-.77,.33-1.09h0Z"/>
      <path class="cls-4" d="M149.87,125.01c-1.62-.78-3.55-.25-3.55-.25h0c-.21,.21-.42,.41-.66,.59,.18,.18,.34,.37,.49,.57,.31,.41,.41,.94,.25,1.43-.16,.49-.54,.87-1.03,1.02l-.07,.02c-.49,.16-1.02,.07-1.43-.24-.41-.31-.64-.8-.62-1.31,0-.25,.04-.5,.08-.75-.29,0-.59-.03-.88-.1,0,0-1.87,.67-2.75,2.25h0c-.06,.11-.07,.25-.02,.37,.15,.33,.56,1.01,1.35,1.17h0c.13,.02,.26-.02,.35-.11,.26-.26,.46-.56,.62-.89-.11-.31-.18-.63-.19-.96,0-.07,.02-.13,.07-.18,.05-.05,.11-.07,.17-.07,.13,0,.23,.1,.23,.23,.02,.53,.2,1.04,.51,1.48,.3-.04,.61-.04,.91,.01,.81,.13,1.46,.56,1.79,1.12,.14-.02,.27-.06,.4-.1,.02,0,.04-.02,.07-.02s.04-.01,.07-.02c.13-.04,.26-.09,.38-.15-.05-.64,.23-1.37,.82-1.94,.22-.21,.46-.39,.73-.53,0-.53-.15-1.05-.44-1.5-.07-.11-.04-.25,.06-.32,.05-.04,.12-.05,.18-.04,.06,.01,.12,.05,.16,.11,.18,.28,.31,.58,.4,.9,.31,.18,.66,.31,1.02,.37,.13,.02,.26-.02,.35-.12,.55-.58,.49-1.37,.43-1.73h0c-.02-.13-.11-.24-.23-.29h0Z"/>
      <path class="cls-4" d="M143.61,129.76c-1.01-.17-1.94,.29-2.06,1.04-.12,.74,.6,1.48,1.62,1.65,1.01,.17,1.94-.3,2.06-1.04,.12-.74-.6-1.48-1.62-1.65h0Zm-.17,.7c-.1,.19-.17,.4-.22,.61-.02,.21-.02,.43,.01,.64,0,.04-.01,.09-.05,.12-.03,.03-.08,.04-.12,.03-.28-.07-.54-.21-.74-.41-.1-.11-.27-.32-.23-.57,.04-.23,.26-.43,.6-.54,.21-.06,.43-.09,.64-.07,.04,0,.08,.03,.11,.07,.02,.04,.02,.09,0,.13h0Z"/>
      <path class="cls-4" d="M147.55,128.51c-.73,.72-.9,1.74-.37,2.28,.53,.53,1.55,.38,2.28-.34,.73-.72,.9-1.74,.37-2.28-.53-.53-1.55-.38-2.28,.34Zm2.03,.64c-.05,.28-.18,.55-.37,.76-.03,.03-.07,.05-.12,.05-.04,0-.08-.03-.11-.07-.1-.19-.22-.37-.36-.53-.16-.14-.34-.27-.53-.37-.04-.02-.06-.06-.07-.11,0-.04,.01-.09,.05-.12,.17-.14,.36-.24,.57-.31,.34-.11,.64-.07,.8,.1,.17,.18,.16,.45,.14,.6h0Z"/>
    </g>
    <path class="cls-5" d="M136.91,111.06c-.15-.33-.5-.54-.89-.57h0v-.02h-2.14s0-.01,0-.02v-.89c.91-.33,1.64-.94,2.03-1.72,.02,.03,.02,.05,.04,.08,.19,.15-.04-.37,.31-.71,.36-.34,.32-.75,.07-1.14-.2-.32-.04-.57,.08-.7,.59,1.76,2.29,2.15,2.21,1.91-1.33-1.07-.12-4.3-.12-4.3h-.01c.08-.19,.14-.41,.14-.63,0-1.05-.98-1.9-2.19-1.9-1.04,0-1.91,.63-2.13,1.47-.17-.02-.33-.02-.5,0,0,0,0,0,.01,0-.44-.15-.91-.23-1.41-.23-2.15,0-3.9,1.51-3.9,3.38,0,.06,.02,.12,.05,.18,0,0,0,0,0,0,.08,.11,.16,.47-.09,.85-.25,.39-.26,.81,.09,1.15,.36,.34,.13,.86,.31,.71,.03-.04,.05-.08,.07-.12,.4,.78,1.15,1.4,2.08,1.71v.87s0,.01,0,.02h-2.16v.02c-.39,.03-.74,.24-.89,.57l-4.21,9.5c-.21,.47,.06,.99,.6,1.17,.12,.04,.25,.06,.37,.06,.42,0,.82-.22,.97-.58l3.15-7.1v6.2c0,.05,.01,.1,.02,.16v9.85h.04v1.18c0,.6,.56,1.09,1.25,1.09h.23c.69,0,1.25-.49,1.25-1.09v-1.18h.01v-8.31h1.53v2.4s0,.01,0,.02v7.05c0,.6,.57,1.1,1.27,1.1h.26c.7,0,1.27-.49,1.27-1.1v-1.16h0v-9.9s.01-.07,.01-.11v-6.2l3.15,7.1c.16,.36,.56,.58,.97,.58,.12,0,.25-.02,.37-.06,.54-.18,.81-.7,.6-1.17l-4.21-9.5Zm-.65-6.82l-.03,.02s0,.09,.01,.13c-.01-.05-.03-.1-.04-.15,.02,0,.04,0,.06,0Z"/>
    <g>
      <path class="cls-4" d="M80.09,123.09c.08,.02,.16,.06,.21,.12,.06,.06,.09,.14,.11,.22,.02,.14,.05,.28,.09,.41,.45,1.41,2.14,2.13,3.79,1.61,1.64-.52,2.61-2.09,2.17-3.5-.04-.13-.1-.27-.16-.39-.04-.07-.05-.16-.04-.24,.01-.08,.05-.16,.11-.22,.26-.28,.39-.66,.37-1.05-.02-.38-.2-.74-.49-.99-.29-.25-.67-.37-1.06-.34s-.74,.22-.98,.52c-.07,.08-.09,.19-.05,.29,.04,.1,.12,.17,.23,.19h0s0,0,0,0c.05,0,.1,0,.15-.01,.05-.02,.09-.05,.12-.09,.11-.14,.26-.24,.43-.28,.2-.05,.41-.03,.59,.06,.18,.09,.33,.25,.4,.44,.09,.22,.07,.46-.03,.67-.05,.1-.14,.17-.25,.2-.11,.03-.23,0-.32-.05-.75-.5-1.78-.65-2.8-.33s-1.77,1.04-2.1,1.88c-.04,.11-.13,.19-.23,.23-.11,.04-.22,.03-.33-.02-.21-.11-.36-.3-.41-.53-.05-.2-.02-.41,.08-.59,.1-.18,.26-.32,.45-.39,.17-.06,.35-.06,.51-.01,.05,.01,.1,.01,.15,0,.05-.01,.09-.04,.13-.08h0s0,0,0,0c.08-.08,.1-.18,.08-.29-.03-.1-.11-.18-.21-.21-.37-.1-.77-.06-1.1,.14s-.57,.51-.67,.88c-.09,.37-.03,.77,.17,1.1,.2,.33,.53,.56,.9,.64h0Zm3.61-1.79c-.03-.1,0-.21,.07-.29,.07-.08,.18-.11,.29-.09,.11,.02,.19,.1,.22,.2l.13,.4c.03,.1,0,.21-.07,.29-.07,.08-.18,.11-.29,.09-.11-.02-.19-.1-.22-.2l-.13-.4Zm.19,2.21c-.02-.05,0-.11,.05-.14,.21-.16,.31-.38,.24-.59-.01-.04-.03-.07-.05-.1-.03-.04-.03-.1,0-.15,.03-.05,.08-.07,.13-.06,.44,.08,.78,.33,.9,.7,.16,.52-.17,1.1-.77,1.42h0s-.07,.02-.11,0c-.04-.01-.06-.04-.07-.08l-.32-1Zm-2.09-1.61c-.02-.08-.02-.16,.02-.23,.04-.07,.1-.12,.18-.15s.16-.02,.23,.02c.07,.04,.12,.1,.15,.18l.13,.4c.02,.08,.02,.16-.02,.23-.04,.07-.1,.12-.18,.15s-.16,.02-.23-.02c-.07-.04-.12-.1-.15-.18l-.13-.4Zm.78,1.1s.09-.05,.14-.03c.05,.02,.08,.07,.08,.12,0,.04,0,.08,.02,.11,.07,.21,.28,.33,.54,.34,.06,0,.1,.04,.12,.09l.32,1s0,.08-.01,.11c-.02,.03-.05,.05-.09,.06-.67,.08-1.28-.2-1.45-.72-.12-.37,.02-.77,.33-1.09h0Z"/>
      <path class="cls-4" d="M89.75,125.01c-1.62-.78-3.55-.25-3.55-.25h0c-.21,.21-.42,.41-.66,.59,.18,.18,.34,.37,.49,.57,.31,.41,.41,.94,.25,1.43-.16,.49-.54,.87-1.03,1.02l-.07,.02c-.49,.16-1.02,.07-1.43-.24-.41-.31-.64-.8-.62-1.31,0-.25,.04-.5,.08-.75-.29,0-.59-.03-.88-.1,0,0-1.87,.67-2.75,2.25h0c-.06,.11-.07,.25-.02,.37,.15,.33,.56,1.01,1.35,1.17h0c.13,.02,.26-.02,.35-.11,.26-.26,.46-.56,.62-.89-.11-.31-.18-.63-.19-.96,0-.07,.02-.13,.07-.18,.05-.05,.11-.07,.17-.07,.13,0,.23,.1,.23,.23,.02,.53,.2,1.04,.51,1.48,.3-.04,.61-.04,.91,.01,.81,.13,1.46,.56,1.79,1.12,.14-.02,.27-.06,.4-.1,.02,0,.04-.02,.07-.02s.04-.01,.07-.02c.13-.04,.26-.09,.38-.15-.05-.64,.23-1.37,.82-1.94,.22-.21,.46-.39,.73-.53,0-.53-.15-1.05-.44-1.5-.07-.11-.04-.25,.06-.32,.05-.04,.12-.05,.18-.04,.06,.01,.12,.05,.16,.11,.18,.28,.31,.58,.4,.9,.31,.18,.66,.31,1.02,.37,.13,.02,.26-.02,.35-.12,.55-.58,.49-1.37,.43-1.73h0c-.02-.13-.11-.24-.23-.29h0Z"/>
      <path class="cls-4" d="M83.49,129.76c-1.01-.17-1.94,.29-2.06,1.04-.12,.74,.6,1.48,1.62,1.65,1.01,.17,1.94-.3,2.06-1.04,.12-.74-.6-1.48-1.62-1.65h0Zm-.17,.7c-.1,.19-.17,.4-.22,.61-.02,.21-.02,.43,.01,.64,0,.04-.01,.09-.05,.12-.03,.03-.08,.04-.12,.03-.28-.07-.54-.21-.74-.41-.1-.11-.27-.32-.23-.57,.04-.23,.26-.43,.6-.54,.21-.06,.43-.09,.64-.07,.04,0,.08,.03,.11,.07,.02,.04,.02,.09,0,.13h0Z"/>
      <path class="cls-4" d="M87.42,128.51c-.73,.72-.9,1.74-.37,2.28,.53,.53,1.55,.38,2.28-.34,.73-.72,.9-1.74,.37-2.28-.53-.53-1.55-.38-2.28,.34Zm2.03,.64c-.05,.28-.18,.55-.37,.76-.03,.03-.07,.05-.12,.05-.04,0-.08-.03-.11-.07-.1-.19-.22-.37-.36-.53-.16-.14-.34-.27-.53-.37-.04-.02-.06-.06-.07-.11,0-.04,.01-.09,.05-.12,.17-.14,.36-.24,.57-.31,.34-.11,.64-.07,.8,.1,.17,.18,.16,.45,.14,.6h0Z"/>
    </g>
    <path class="cls-5" d="M76.79,111.06c-.15-.33-.5-.54-.89-.57h0v-.02h-2.14s0-.01,0-.02v-.89c.91-.33,1.64-.94,2.03-1.72,.02,.03,.02,.05,.04,.08,.19,.15-.04-.37,.31-.71,.36-.34,.32-.75,.07-1.14-.2-.32-.04-.57,.08-.7,.59,1.76,2.29,2.15,2.21,1.91-1.33-1.07-.12-4.3-.12-4.3h-.01c.08-.19,.14-.41,.14-.63,0-1.05-.98-1.9-2.19-1.9-1.04,0-1.91,.63-2.13,1.47-.17-.02-.33-.02-.5,0,0,0,0,0,.01,0-.44-.15-.91-.23-1.41-.23-2.15,0-3.9,1.51-3.9,3.38,0,.06,.02,.12,.05,.18,0,0,0,0,0,0,.08,.11,.16,.47-.09,.85-.25,.39-.26,.81,.09,1.15,.36,.34,.13,.86,.31,.71,.03-.04,.05-.08,.07-.12,.4,.78,1.15,1.4,2.08,1.71v.87s0,.01,0,.02h-2.16v.02c-.39,.03-.74,.24-.89,.57l-4.21,9.5c-.21,.47,.06,.99,.6,1.17,.12,.04,.25,.06,.37,.06,.42,0,.82-.22,.97-.58l3.15-7.1v6.2c0,.05,.01,.1,.02,.16v9.85h.04v1.18c0,.6,.56,1.09,1.25,1.09h.23c.69,0,1.25-.49,1.25-1.09v-1.18h.01v-8.31h1.53v2.4s0,.01,0,.02v7.05c0,.6,.57,1.1,1.27,1.1h.26c.7,0,1.27-.49,1.27-1.1v-1.16h0v-9.9s.01-.07,.01-.11v-6.2l3.15,7.1c.16,.36,.56,.58,.97,.58,.12,0,.25-.02,.37-.06,.54-.18,.81-.7,.6-1.17l-4.21-9.5Zm-.65-6.82l-.03,.02s0,.09,.01,.13c-.01-.05-.03-.1-.04-.15,.02,0,.04,0,.06,0Z"/>
    <g>
      <path class="cls-4" d="M165.65,123.09c.08,.02,.16,.06,.21,.12,.06,.06,.09,.14,.11,.22,.02,.14,.05,.28,.09,.41,.45,1.41,2.14,2.13,3.79,1.61,1.64-.52,2.61-2.09,2.17-3.5-.04-.13-.1-.27-.16-.39-.04-.07-.05-.16-.04-.24,.01-.08,.05-.16,.11-.22,.26-.28,.39-.66,.37-1.05-.02-.38-.2-.74-.49-.99-.29-.25-.67-.37-1.06-.34s-.74,.22-.98,.52c-.07,.08-.09,.19-.05,.29,.04,.1,.12,.17,.23,.19h0s0,0,0,0c.05,0,.1,0,.15-.01,.05-.02,.09-.05,.12-.09,.11-.14,.26-.24,.43-.28,.2-.05,.41-.03,.59,.06,.18,.09,.33,.25,.4,.44,.09,.22,.07,.46-.03,.67-.05,.1-.14,.17-.25,.2-.11,.03-.23,0-.32-.05-.75-.5-1.78-.65-2.8-.33s-1.77,1.04-2.1,1.88c-.04,.11-.13,.19-.23,.23-.11,.04-.22,.03-.33-.02-.21-.11-.36-.3-.41-.53-.05-.2-.02-.41,.08-.59,.1-.18,.26-.32,.45-.39,.17-.06,.35-.06,.51-.01,.05,.01,.1,.01,.15,0,.05-.01,.09-.04,.13-.08h0s0,0,0,0c.08-.08,.1-.18,.08-.29-.03-.1-.11-.18-.21-.21-.37-.1-.77-.06-1.1,.14s-.57,.51-.67,.88c-.09,.37-.03,.77,.17,1.1,.2,.33,.53,.56,.9,.64h0Zm3.61-1.79c-.03-.1,0-.21,.07-.29,.07-.08,.18-.11,.29-.09,.11,.02,.19,.1,.22,.2l.13,.4c.03,.1,0,.21-.07,.29-.07,.08-.18,.11-.29,.09-.11-.02-.19-.1-.22-.2l-.13-.4Zm.19,2.21c-.02-.05,0-.11,.05-.14,.21-.16,.31-.38,.24-.59-.01-.04-.03-.07-.05-.1-.03-.04-.03-.1,0-.15,.03-.05,.08-.07,.13-.06,.44,.08,.78,.33,.9,.7,.16,.52-.17,1.1-.77,1.42h0s-.07,.02-.11,0c-.04-.01-.06-.04-.07-.08l-.32-1Zm-2.09-1.61c-.02-.08-.02-.16,.02-.23,.04-.07,.1-.12,.18-.15s.16-.02,.23,.02c.07,.04,.12,.1,.15,.18l.13,.4c.02,.08,.02,.16-.02,.23-.04,.07-.1,.12-.18,.15s-.16,.02-.23-.02c-.07-.04-.12-.1-.15-.18l-.13-.4Zm.78,1.1s.09-.05,.14-.03c.05,.02,.08,.07,.08,.12,0,.04,0,.08,.02,.11,.07,.21,.28,.33,.54,.34,.06,0,.1,.04,.12,.09l.32,1s0,.08-.01,.11c-.02,.03-.05,.05-.09,.06-.67,.08-1.28-.2-1.45-.72-.12-.37,.02-.77,.33-1.09h0Z"/>
      <path class="cls-4" d="M175.31,125.01c-1.62-.78-3.55-.25-3.55-.25h0c-.21,.21-.42,.41-.66,.59,.18,.18,.34,.37,.49,.57,.31,.41,.41,.94,.25,1.43-.16,.49-.54,.87-1.03,1.02l-.07,.02c-.49,.16-1.02,.07-1.43-.24-.41-.31-.64-.8-.62-1.31,0-.25,.04-.5,.08-.75-.29,0-.59-.03-.88-.1,0,0-1.87,.67-2.75,2.25h0c-.06,.11-.07,.25-.02,.37,.15,.33,.56,1.01,1.35,1.17h0c.13,.02,.26-.02,.35-.11,.26-.26,.46-.56,.62-.89-.11-.31-.18-.63-.19-.96,0-.07,.02-.13,.07-.18,.05-.05,.11-.07,.17-.07,.13,0,.23,.1,.23,.23,.02,.53,.2,1.04,.51,1.48,.3-.04,.61-.04,.91,.01,.81,.13,1.46,.56,1.79,1.12,.14-.02,.27-.06,.4-.1,.02,0,.04-.02,.07-.02s.04-.01,.07-.02c.13-.04,.26-.09,.38-.15-.05-.64,.23-1.37,.82-1.94,.22-.21,.46-.39,.73-.53,0-.53-.15-1.05-.44-1.5-.07-.11-.04-.25,.06-.32,.05-.04,.12-.05,.18-.04,.06,.01,.12,.05,.16,.11,.18,.28,.31,.58,.4,.9,.31,.18,.66,.31,1.02,.37,.13,.02,.26-.02,.35-.12,.55-.58,.49-1.37,.43-1.73h0c-.02-.13-.11-.24-.23-.29h0Z"/>
      <path class="cls-4" d="M169.05,129.76c-1.01-.17-1.94,.29-2.06,1.04-.12,.74,.6,1.48,1.62,1.65,1.01,.17,1.94-.3,2.06-1.04,.12-.74-.6-1.48-1.62-1.65h0Zm-.17,.7c-.1,.19-.17,.4-.22,.61-.02,.21-.02,.43,.01,.64,0,.04-.01,.09-.05,.12-.03,.03-.08,.04-.12,.03-.28-.07-.54-.21-.74-.41-.1-.11-.27-.32-.23-.57,.04-.23,.26-.43,.6-.54,.21-.06,.43-.09,.64-.07,.04,0,.08,.03,.11,.07,.02,.04,.02,.09,0,.13h0Z"/>
      <path class="cls-4" d="M172.99,128.51c-.73,.72-.9,1.74-.37,2.28,.53,.53,1.55,.38,2.28-.34,.73-.72,.9-1.74,.37-2.28-.53-.53-1.55-.38-2.28,.34Zm2.03,.64c-.05,.28-.18,.55-.37,.76-.03,.03-.07,.05-.12,.05-.04,0-.08-.03-.11-.07-.1-.19-.22-.37-.36-.53-.16-.14-.34-.27-.53-.37-.04-.02-.06-.06-.07-.11,0-.04,.01-.09,.05-.12,.17-.14,.36-.24,.57-.31,.34-.11,.64-.07,.8,.1,.17,.18,.16,.45,.14,.6h0Z"/>
    </g>
    <path class="cls-5" d="M162.35,111.06c-.15-.33-.5-.54-.89-.57h0v-.02h-2.14s0-.01,0-.02v-.89c.91-.33,1.64-.94,2.03-1.72,.02,.03,.02,.05,.04,.08,.19,.15-.04-.37,.31-.71,.36-.34,.32-.75,.07-1.14-.2-.32-.04-.57,.08-.7,.59,1.76,2.29,2.15,2.21,1.91-1.33-1.07-.12-4.3-.12-4.3h-.01c.08-.19,.14-.41,.14-.63,0-1.05-.98-1.9-2.19-1.9-1.04,0-1.91,.63-2.13,1.47-.17-.02-.33-.02-.5,0,0,0,0,0,.01,0-.44-.15-.91-.23-1.41-.23-2.15,0-3.9,1.51-3.9,3.38,0,.06,.02,.12,.05,.18,0,0,0,0,0,0,.08,.11,.16,.47-.09,.85-.25,.39-.26,.81,.09,1.15,.36,.34,.13,.86,.31,.71,.03-.04,.05-.08,.07-.12,.4,.78,1.15,1.4,2.08,1.71v.87s0,.01,0,.02h-2.16v.02c-.39,.03-.74,.24-.89,.57l-4.21,9.5c-.21,.47,.06,.99,.6,1.17,.12,.04,.25,.06,.37,.06,.42,0,.82-.22,.97-.58l3.15-7.1v6.2c0,.05,.01,.1,.02,.16v9.85h.04v1.18c0,.6,.56,1.09,1.25,1.09h.23c.69,0,1.25-.49,1.25-1.09v-1.18h.01v-8.31h1.53v2.4s0,.01,0,.02v7.05c0,.6,.57,1.1,1.27,1.1h.26c.7,0,1.27-.49,1.27-1.1v-1.16h0v-9.9s.01-.07,.01-.11v-6.2l3.15,7.1c.16,.36,.56,.58,.97,.58,.12,0,.25-.02,.37-.06,.54-.18,.81-.7,.6-1.17l-4.21-9.5Zm-.65-6.82l-.03,.02s0,.09,.01,.13c-.01-.05-.03-.1-.04-.15,.02,0,.04,0,.06,0Z"/>
    <g>
      <path class="cls-4" d="M191.38,123.09c.08,.02,.16,.06,.21,.12,.06,.06,.09,.14,.11,.22,.02,.14,.05,.28,.09,.41,.45,1.41,2.14,2.13,3.79,1.61,1.64-.52,2.61-2.09,2.17-3.5-.04-.13-.1-.27-.16-.39-.04-.07-.05-.16-.04-.24,.01-.08,.05-.16,.11-.22,.26-.28,.39-.66,.37-1.05-.02-.38-.2-.74-.49-.99-.29-.25-.67-.37-1.06-.34s-.74,.22-.98,.52c-.07,.08-.09,.19-.05,.29,.04,.1,.12,.17,.23,.19h0s0,0,0,0c.05,0,.1,0,.15-.01,.05-.02,.09-.05,.12-.09,.11-.14,.26-.24,.43-.28,.2-.05,.41-.03,.59,.06,.18,.09,.33,.25,.4,.44,.09,.22,.07,.46-.03,.67-.05,.1-.14,.17-.25,.2-.11,.03-.23,0-.32-.05-.75-.5-1.78-.65-2.8-.33s-1.77,1.04-2.1,1.88c-.04,.11-.13,.19-.23,.23-.11,.04-.22,.03-.33-.02-.21-.11-.36-.3-.41-.53-.05-.2-.02-.41,.08-.59,.1-.18,.26-.32,.45-.39,.17-.06,.35-.06,.51-.01,.05,.01,.1,.01,.15,0,.05-.01,.09-.04,.13-.08h0s0,0,0,0c.08-.08,.1-.18,.08-.29-.03-.1-.11-.18-.21-.21-.37-.1-.77-.06-1.1,.14s-.57,.51-.67,.88c-.09,.37-.03,.77,.17,1.1,.2,.33,.53,.56,.9,.64h0Zm3.61-1.79c-.03-.1,0-.21,.07-.29,.07-.08,.18-.11,.29-.09,.11,.02,.19,.1,.22,.2l.13,.4c.03,.1,0,.21-.07,.29-.07,.08-.18,.11-.29,.09-.11-.02-.19-.1-.22-.2l-.13-.4Zm.19,2.21c-.02-.05,0-.11,.05-.14,.21-.16,.31-.38,.24-.59-.01-.04-.03-.07-.05-.1-.03-.04-.03-.1,0-.15,.03-.05,.08-.07,.13-.06,.44,.08,.78,.33,.9,.7,.16,.52-.17,1.1-.77,1.42h0s-.07,.02-.11,0c-.04-.01-.06-.04-.07-.08l-.32-1Zm-2.09-1.61c-.02-.08-.02-.16,.02-.23,.04-.07,.1-.12,.18-.15s.16-.02,.23,.02c.07,.04,.12,.1,.15,.18l.13,.4c.02,.08,.02,.16-.02,.23-.04,.07-.1,.12-.18,.15s-.16,.02-.23-.02c-.07-.04-.12-.1-.15-.18l-.13-.4Zm.78,1.1s.09-.05,.14-.03c.05,.02,.08,.07,.08,.12,0,.04,0,.08,.02,.11,.07,.21,.28,.33,.54,.34,.06,0,.1,.04,.12,.09l.32,1s0,.08-.01,.11c-.02,.03-.05,.05-.09,.06-.67,.08-1.28-.2-1.45-.72-.12-.37,.02-.77,.33-1.09h0Z"/>
      <path class="cls-4" d="M201.04,125.01c-1.62-.78-3.55-.25-3.55-.25h0c-.21,.21-.42,.41-.66,.59,.18,.18,.34,.37,.49,.57,.31,.41,.41,.94,.25,1.43-.16,.49-.54,.87-1.03,1.02l-.07,.02c-.49,.16-1.02,.07-1.43-.24-.41-.31-.64-.8-.62-1.31,0-.25,.04-.5,.08-.75-.29,0-.59-.03-.88-.1,0,0-1.87,.67-2.75,2.25h0c-.06,.11-.07,.25-.02,.37,.15,.33,.56,1.01,1.35,1.17h0c.13,.02,.26-.02,.35-.11,.26-.26,.46-.56,.62-.89-.11-.31-.18-.63-.19-.96,0-.07,.02-.13,.07-.18,.05-.05,.11-.07,.17-.07,.13,0,.23,.1,.23,.23,.02,.53,.2,1.04,.51,1.48,.3-.04,.61-.04,.91,.01,.81,.13,1.46,.56,1.79,1.12,.14-.02,.27-.06,.4-.1,.02,0,.04-.02,.07-.02s.04-.01,.07-.02c.13-.04,.26-.09,.38-.15-.05-.64,.23-1.37,.82-1.94,.22-.21,.46-.39,.73-.53,0-.53-.15-1.05-.44-1.5-.07-.11-.04-.25,.06-.32,.05-.04,.12-.05,.18-.04,.06,.01,.12,.05,.16,.11,.18,.28,.31,.58,.4,.9,.31,.18,.66,.31,1.02,.37,.13,.02,.26-.02,.35-.12,.55-.58,.49-1.37,.43-1.73h0c-.02-.13-.11-.24-.23-.29h0Z"/>
      <path class="cls-4" d="M194.77,129.76c-1.01-.17-1.94,.29-2.06,1.04-.12,.74,.6,1.48,1.62,1.65,1.01,.17,1.94-.3,2.06-1.04,.12-.74-.6-1.48-1.62-1.65h0Zm-.17,.7c-.1,.19-.17,.4-.22,.61-.02,.21-.02,.43,.01,.64,0,.04-.01,.09-.05,.12-.03,.03-.08,.04-.12,.03-.28-.07-.54-.21-.74-.41-.1-.11-.27-.32-.23-.57,.04-.23,.26-.43,.6-.54,.21-.06,.43-.09,.64-.07,.04,0,.08,.03,.11,.07,.02,.04,.02,.09,0,.13h0Z"/>
      <path class="cls-4" d="M198.71,128.51c-.73,.72-.9,1.74-.37,2.28,.53,.53,1.55,.38,2.28-.34,.73-.72,.9-1.74,.37-2.28-.53-.53-1.55-.38-2.28,.34Zm2.03,.64c-.05,.28-.18,.55-.37,.76-.03,.03-.07,.05-.12,.05-.04,0-.08-.03-.11-.07-.1-.19-.22-.37-.36-.53-.16-.14-.34-.27-.53-.37-.04-.02-.06-.06-.07-.11,0-.04,.01-.09,.05-.12,.17-.14,.36-.24,.57-.31,.34-.11,.64-.07,.8,.1,.17,.18,.16,.45,.14,.6h0Z"/>
    </g>
    <path class="cls-5" d="M188.08,111.06c-.15-.33-.5-.54-.89-.57h0v-.02h-2.14s0-.01,0-.02v-.89c.91-.33,1.64-.94,2.03-1.72,.02,.03,.02,.05,.04,.08,.19,.15-.04-.37,.31-.71,.36-.34,.32-.75,.07-1.14-.2-.32-.04-.57,.08-.7,.59,1.76,2.29,2.15,2.21,1.91-1.33-1.07-.12-4.3-.12-4.3h-.01c.08-.19,.14-.41,.14-.63,0-1.05-.98-1.9-2.19-1.9-1.04,0-1.91,.63-2.13,1.47-.17-.02-.33-.02-.5,0,0,0,0,0,.01,0-.44-.15-.91-.23-1.41-.23-2.15,0-3.9,1.51-3.9,3.38,0,.06,.02,.12,.05,.18,0,0,0,0,0,0,.08,.11,.16,.47-.09,.85-.25,.39-.26,.81,.09,1.15,.36,.34,.13,.86,.31,.71,.03-.04,.05-.08,.07-.12,.4,.78,1.15,1.4,2.08,1.71v.87s0,.01,0,.02h-2.16v.02c-.39,.03-.74,.24-.89,.57l-4.21,9.5c-.21,.47,.06,.99,.6,1.17,.12,.04,.25,.06,.37,.06,.42,0,.82-.22,.97-.58l3.15-7.1v6.2c0,.05,.01,.1,.02,.16v9.85h.04v1.18c0,.6,.56,1.09,1.25,1.09h.23c.69,0,1.25-.49,1.25-1.09v-1.18h.01v-8.31h1.53v2.4s0,.01,0,.02v7.05c0,.6,.57,1.1,1.27,1.1h.26c.7,0,1.27-.49,1.27-1.1v-1.16h0v-9.9s.01-.07,.01-.11v-6.2l3.15,7.1c.16,.36,.56,.58,.97,.58,.12,0,.25-.02,.37-.06,.54-.18,.81-.7,.6-1.17l-4.21-9.5Zm-.65-6.82l-.03,.02s0,.09,.01,.13c-.01-.05-.03-.1-.04-.15,.02,0,.04,0,.06,0Z"/>
    <g>
      <g>
        <path class="cls-4" d="M216.81,123.09c.08,.02,.16,.06,.21,.12,.06,.06,.09,.14,.11,.22,.02,.14,.05,.28,.09,.41,.45,1.41,2.14,2.13,3.79,1.61s2.61-2.09,2.17-3.5c-.04-.13-.1-.27-.16-.39-.04-.07-.05-.16-.04-.24,.01-.08,.05-.16,.11-.22,.26-.28,.39-.66,.37-1.05-.02-.38-.2-.74-.49-.99-.29-.25-.67-.37-1.06-.34s-.74,.22-.98,.52c-.07,.08-.09,.19-.05,.29,.04,.1,.12,.17,.23,.19h0s0,0,0,0c.05,0,.1,0,.15-.01,.05-.02,.09-.05,.12-.09,.11-.14,.26-.24,.43-.28,.2-.05,.41-.03,.59,.06,.18,.09,.33,.25,.4,.44,.09,.22,.07,.46-.03,.67-.05,.1-.14,.17-.25,.2-.11,.03-.23,0-.32-.05-.75-.5-1.78-.65-2.8-.33s-1.77,1.04-2.1,1.88c-.04,.11-.13,.19-.23,.23-.11,.04-.22,.03-.33-.02-.21-.11-.36-.3-.41-.53-.05-.2-.02-.41,.08-.59,.1-.18,.26-.32,.45-.39,.17-.06,.35-.06,.51-.01,.05,.01,.1,.01,.15,0,.05-.01,.09-.04,.13-.08h0s0,0,0,0c.08-.08,.1-.18,.08-.29-.03-.1-.11-.18-.21-.21-.37-.1-.77-.06-1.1,.14s-.57,.51-.67,.88c-.09,.37-.03,.77,.17,1.1,.2,.33,.53,.56,.9,.64h0Zm3.61-1.79c-.03-.1,0-.21,.07-.29,.07-.08,.18-.11,.29-.09,.11,.02,.19,.1,.22,.2l.13,.4c.03,.1,0,.21-.07,.29-.07,.08-.18,.11-.29,.09-.11-.02-.19-.1-.22-.2l-.13-.4Zm.19,2.21c-.02-.05,0-.11,.05-.14,.21-.16,.31-.38,.24-.59-.01-.04-.03-.07-.05-.1-.03-.04-.03-.1,0-.15,.03-.05,.08-.07,.13-.06,.44,.08,.78,.33,.9,.7,.16,.52-.17,1.1-.77,1.42h0s-.07,.02-.11,0c-.04-.01-.06-.04-.07-.08l-.32-1Zm-2.09-1.61c-.02-.08-.02-.16,.02-.23,.04-.07,.1-.12,.18-.15s.16-.02,.23,.02c.07,.04,.12,.1,.15,.18l.13,.4c.02,.08,.02,.16-.02,.23-.04,.07-.1,.12-.18,.15s-.16,.02-.23-.02c-.07-.04-.12-.1-.15-.18l-.13-.4Zm.78,1.1s.09-.05,.14-.03c.05,.02,.08,.07,.08,.12,0,.04,0,.08,.02,.11,.07,.21,.28,.33,.54,.34,.06,0,.1,.04,.12,.09l.32,1s0,.08-.01,.11c-.02,.03-.05,.05-.09,.06-.67,.08-1.28-.2-1.45-.72-.12-.37,.02-.77,.33-1.09h0Z"/>
        <path class="cls-4" d="M226.47,125.01c-1.62-.78-3.55-.25-3.55-.25h0c-.21,.21-.42,.41-.66,.59,.18,.18,.34,.37,.49,.57,.31,.41,.41,.94,.25,1.43-.16,.49-.54,.87-1.03,1.02l-.07,.02c-.49,.16-1.02,.07-1.43-.24-.41-.31-.64-.8-.62-1.31,0-.25,.04-.5,.08-.75-.29,0-.59-.03-.88-.1,0,0-1.87,.67-2.75,2.25h0c-.06,.11-.07,.25-.02,.37,.15,.33,.56,1.01,1.35,1.17h0c.13,.02,.26-.02,.35-.11,.26-.26,.46-.56,.62-.89-.11-.31-.18-.63-.19-.96,0-.07,.02-.13,.07-.18,.05-.05,.11-.07,.17-.07,.13,0,.23,.1,.23,.23,.02,.53,.2,1.04,.51,1.48,.3-.04,.61-.04,.91,.01,.81,.13,1.46,.56,1.79,1.12,.14-.02,.27-.06,.4-.1,.02,0,.04-.02,.07-.02s.04-.01,.07-.02c.13-.04,.26-.09,.38-.15-.05-.64,.23-1.37,.82-1.94,.22-.21,.46-.39,.73-.53,0-.53-.15-1.05-.44-1.5-.07-.11-.04-.25,.06-.32,.05-.04,.12-.05,.18-.04,.06,.01,.12,.05,.16,.11,.18,.28,.31,.58,.4,.9,.31,.18,.66,.31,1.02,.37,.13,.02,.26-.02,.35-.12,.55-.58,.49-1.37,.43-1.73h0c-.02-.13-.11-.24-.23-.29h0Z"/>
        <path class="cls-4" d="M220.21,129.76c-1.01-.17-1.94,.29-2.06,1.04-.12,.74,.6,1.48,1.62,1.65,1.01,.17,1.94-.3,2.06-1.04,.12-.74-.6-1.48-1.62-1.65h0Zm-.17,.7c-.1,.19-.17,.4-.22,.61-.02,.21-.02,.43,.01,.64,0,.04-.01,.09-.05,.12-.03,.03-.08,.04-.12,.03-.28-.07-.54-.21-.74-.41-.1-.11-.27-.32-.23-.57,.04-.23,.26-.43,.6-.54,.21-.06,.43-.09,.64-.07,.04,0,.08,.03,.11,.07,.02,.04,.02,.09,0,.13h0Z"/>
        <path class="cls-4" d="M224.15,128.51c-.73,.72-.9,1.74-.37,2.28,.53,.53,1.55,.38,2.28-.34,.73-.72,.9-1.74,.37-2.28-.53-.53-1.55-.38-2.28,.34Zm2.03,.64c-.05,.28-.18,.55-.37,.76-.03,.03-.07,.05-.12,.05-.04,0-.08-.03-.11-.07-.1-.19-.22-.37-.36-.53-.16-.14-.34-.27-.53-.37-.04-.02-.06-.06-.07-.11,0-.04,.01-.09,.05-.12,.17-.14,.36-.24,.57-.31,.34-.11,.64-.07,.8,.1,.17,.18,.16,.45,.14,.6h0Z"/>
      </g>
      <path class="cls-5" d="M213.51,111.06c-.15-.33-.5-.54-.89-.57h0v-.02h-2.14s0-.01,0-.02v-.89c.91-.33,1.64-.94,2.03-1.72,.02,.03,.02,.05,.04,.08,.19,.15-.04-.37,.31-.71,.36-.34,.32-.75,.07-1.14-.2-.32-.04-.57,.08-.7,.59,1.76,2.29,2.15,2.21,1.91-1.33-1.07-.12-4.3-.12-4.3h-.01c.08-.19,.14-.41,.14-.63,0-1.05-.98-1.9-2.19-1.9-1.04,0-1.91,.63-2.13,1.47-.17-.02-.33-.02-.5,0,0,0,0,0,.01,0-.44-.15-.91-.23-1.41-.23-2.15,0-3.9,1.51-3.9,3.38,0,.06,.02,.12,.05,.18,0,0,0,0,0,0,.08,.11,.16,.47-.09,.85-.25,.39-.26,.81,.09,1.15,.36,.34,.13,.86,.31,.71,.03-.04,.05-.08,.07-.12,.4,.78,1.15,1.4,2.08,1.71v.87s0,.01,0,.02h-2.16v.02c-.39,.03-.74,.24-.89,.57l-4.21,9.5c-.21,.47,.06,.99,.6,1.17,.12,.04,.25,.06,.37,.06,.42,0,.82-.22,.97-.58l3.15-7.1v6.2c0,.05,.01,.1,.02,.16v9.85h.04v1.18c0,.6,.56,1.09,1.25,1.09h.23c.69,0,1.25-.49,1.25-1.09v-1.18h.01v-8.31h1.53v2.4s0,.01,0,.02v7.05c0,.6,.57,1.1,1.27,1.1h.26c.7,0,1.27-.49,1.27-1.1v-1.16h0v-9.9s.01-.07,.01-.11v-6.2l3.15,7.1c.16,.36,.56,.58,.97,.58,.12,0,.25-.02,.37-.06,.54-.18,.81-.7,.6-1.17l-4.21-9.5Zm-.65-6.82l-.03,.02s0,.09,.01,.13c-.01-.05-.03-.1-.04-.15,.02,0,.04,0,.06,0Z"/>
    </g>
    <line class="cls-1" x1="100.52" y1="98.33" x2="52.83" y2="131.44"/>
  </g>
</svg>