<?xml version="1.0" encoding="UTF-8"?>
<svg id="Layer_2" data-name="Layer 2" xmlns="http://www.w3.org/2000/svg" xmlns:xlink="http://www.w3.org/1999/xlink" viewBox="0 0 528.59 91.9">
  <defs>
    <style>
      .cls-1 {
        fill: #fff;
      }

      .cls-2 {
        fill: #939598;
      }

      .cls-3 {
        fill: #fde0d1;
      }

      .cls-3, .cls-4 {
        stroke: #ef412a;
        stroke-width: 2px;
      }

      .cls-3, .cls-4, .cls-5 {
        stroke-miterlimit: 10;
      }

      .cls-6 {
        fill: #fdd7c5;
      }

      .cls-7 {
        fill: #ef412a;
      }

      .cls-4, .cls-8, .cls-9 {
        fill: none;
      }

      .cls-8 {
        stroke: #939598;
        stroke-dasharray: 0 0 0 2.91;
        stroke-linecap: round;
        stroke-linejoin: round;
        stroke-width: 1.75px;
      }

      .cls-10 {
        clip-path: url(#clippath);
      }

      .cls-5 {
        stroke: #f26c4a;
        stroke-width: .25px;
      }

      .cls-5, .cls-11 {
        fill: #f26c4a;
      }

      .cls-12 {
        fill: #8a402f;
      }
    </style>
    <clipPath id="clippath">
      <circle class="cls-9" cx="157.46" cy="64.55" r="27.35"/>
    </clipPath>
  </defs>
  <g id="Layer_2-2" data-name="Layer 2">
    <circle class="cls-3" cx="23.3" cy="61.74" r="22.3"/>
    <g>
      <path class="cls-1" d="M27.36,51.25h-.47c.51,.52,.91,1.13,1.18,1.83,.21-.19,.34-.47,.34-.78,0-.58-.47-1.05-1.05-1.05Z"/>
      <path class="cls-1" d="M17.89,52.3c0,.3,.13,.58,.34,.78,.26-.69,.67-1.31,1.18-1.83h-.47c-.58,0-1.05,.47-1.05,1.05Z"/>
      <path class="cls-1" d="M34.01,68.08c-.15,.44-.46,.81-.88,1.01-.2,.1-.38,.22-.54,.36l-.72,.92c-.17,.35-.27,1.76-.29,2.31H14.72c-.01-.55-.11-1.95-.29-2.31l-.72-.92c-.17-.14-.34-.26-.54-.36-.42-.21-.73-.57-.88-1.01l-.16-.49,3.6-8.24-.96-.42-1.38,3.16c-.33-.19-.6-.48-.74-.84l3.32-9.62c1.06-3.06,3.94-5.12,7.18-5.12s6.13,2.06,7.18,5.12l3.32,9.62c-.14,.36-.41,.65-.74,.84l-1.38-3.16-.96,.42,3.6,8.24-.16,.49Z"/>
    </g>
    <path class="cls-11" d="M17.19,56.56s.02,0,.04,0c.26,.04,.53,.06,.8,.07,.54,.04,1.07-.13,1.48-.47,.17-.16,.31-.35,.4-.56,.77,1.07,2,1.7,3.31,1.71,1.06,0,2.08-.42,2.83-1.18,.09-.1,.18-.2,.27-.3,.08,.12,.17,.24,.28,.33,.42,.34,.95,.5,1.48,.47,.27,0,.53-.02,.8-.07,.01,0,.03,0,.04,0,.24,0,.46-.15,.54-.37,.11-.29-.04-.62-.33-.73,0,0,0,0,0,0-.11-.13-.08-.78-.06-1.16,.05-.93,.1-2.08-.67-2.76-.45-.4-1.09-.56-1.93-.48-.76-1.12-2.02-1.8-3.38-1.8-1.06,0-2.08,.42-2.83,1.18-.19,.19-.36,.4-.5,.63-.91-.1-1.58,.05-2.05,.47-.77,.68-.71,1.84-.67,2.76,.02,.39,.05,1.03-.04,1.15-.3,.11-.45,.44-.34,.74,.08,.23,.3,.38,.54,.38h0Zm10.73-2.33c-.03,.41-.03,.83,.02,1.24-.21,0-.41-.05-.58-.17-.26-.23-.23-.87-.2-1.49,0-.04,0-.09,0-.13,0-.03,0-.06,0-.1,0-.1,0-.2,0-.3,0,0,0-.01,0-.02h0c.01-.37-.02-.73-.11-1.08,.2,0,.4,.08,.56,.2,.36,.32,.32,1.13,.28,1.85Zm-4.83-3.84c.99,0,1.92,.51,2.46,1.34h0s0,.02,0,.03c0,.01,0,.02,0,.03,0,.02,0,.04,.02,.06,0,.02,.01,.04,.02,.05,0,.02,.02,.03,.02,.05,.01,.02,.02,.04,.03,.05,0,.01,.02,.03,.03,.04,.02,.02,.03,.03,.05,.05,0,0,.01,.01,.02,.02,0,0,.01,.02,.02,.02,.16,.36,.25,.74,.26,1.14,0,.11,0,.21-.01,.32-.12,1.45-1.34,2.57-2.8,2.56-1.6,0-2.9-1.29-2.94-2.89-.04-1.55,1.18-2.83,2.73-2.87,.03,0,.05,0,.08,0Zm-4.62,1.99c.16-.12,.36-.19,.56-.2-.11,.53-.14,1.08-.09,1.62,.03,.62,.06,1.26-.2,1.49-.17,.12-.37,.18-.58,.17,.05-.41,.06-.82,.02-1.24-.04-.72-.08-1.53,.28-1.85Z"/>
    <path class="cls-11" d="M32.62,63.38c-.04-.23-.14-.43-.3-.6-.02-.02-.04-.03-.05-.05-.04-.03-.07-.07-.11-.09h-.02s0-.01,0-.01l-5.36-4.03c-.48-.45-1.11-.71-1.77-.72h-3.74c-.66,.01-1.29,.27-1.77,.72l-5.36,4.03s0,0,0,0h-.02s-.07,.07-.11,.11c-.02,.02-.04,.03-.05,.05-.16,.16-.26,.37-.3,.6-.05,.3,.02,.61,.19,.86,0,.01,.02,.03,.03,.04l.57,.69c.16,.21,.37,.34,.6,.41,.02,0,.05,.01,.07,.02,.04,0,.07,.01,.11,.02,.01,0,.03,0,.04,0,.07,0,.14,0,.21,0,.02,0,.04,0,.06,0,.04,0,.09-.02,.13-.03,.04-.01,.08-.02,.12-.04,.03-.01,.05-.02,.08-.04,.04-.02,.08-.04,.12-.07,.01,0,.02-.01,.04-.02l2.85-2.15-2.69,6.55s-.02,.06-.03,.09c-.02,.09-.03,.17-.03,.25,0,0,0,0,0,.01,0,.02,0,.04,0,.06,0,.05,0,.11,.02,.16,0,.03,.01,.05,.02,.08,.01,.04,.02,.09,.04,.13,.01,.03,.03,.06,.04,.08,.02,.04,.04,.08,.06,.11,.02,.03,.04,.05,.06,.07,.03,.03,.05,.07,.08,.1,.02,.02,.05,.04,.07,.06,.03,.03,.06,.06,.1,.08,.03,.02,.06,.03,.09,.05,.03,.02,.07,.04,.1,.06,.04,.02,.08,.03,.12,.04,.03,0,.05,.02,.08,.03,0,0,.01,0,.02,0,.08,.02,.16,.03,.24,.03,0,0,0,0,0,0h2.11v5.76c0,.64,.52,1.15,1.15,1.15h1.15c.64,0,1.15-.52,1.15-1.15v-5.76h.57v5.76c0,.64,.52,1.15,1.15,1.15h1.15c.64,0,1.15-.52,1.15-1.15v-5.76h2.11s0,0,0,0c.08,0,.17-.01,.24-.03,0,0,.01,0,.02,0,.03,0,.06-.02,.08-.03,.04-.01,.08-.02,.12-.04,.04-.02,.07-.04,.1-.06,.03-.02,.06-.03,.09-.05,.04-.02,.07-.05,.1-.08,.02-.02,.05-.04,.07-.06,.03-.03,.06-.06,.08-.1,.02-.02,.04-.05,.06-.07,.02-.04,.04-.07,.06-.11,.01-.03,.03-.05,.04-.08,.02-.04,.03-.09,.04-.13,0-.03,.02-.05,.02-.08,0-.05,.01-.1,.02-.16,0-.02,0-.04,0-.06,0,0,0,0,0-.01,0-.08,0-.17-.03-.25,0-.03-.02-.06-.03-.09l-2.69-6.55,2.85,2.15s.02,.01,.04,.02c.04,.02,.08,.05,.12,.07,.03,.01,.05,.03,.08,.04,.04,.02,.08,.03,.12,.04,.04,.01,.09,.02,.13,.03,.02,0,.04,0,.06,0,.07,0,.14,0,.21,0,.01,0,.03,0,.04,0,.04,0,.07-.01,.11-.02,.02,0,.05-.01,.07-.02,.23-.07,.45-.2,.6-.41l.57-.69s.02-.02,.03-.04c.18-.25,.24-.56,.19-.86Zm-7.62-4.35c.36,.03,.7,.17,.98,.4,0,0,0,0,0,0,.02,.02,.04,.04,.06,.06l5.43,4.09-.55,.67s0,0,0,0c0,0-.02,.02-.02,.03l-4.1-3.09-.4-.3s0,0-.01,0c-.03-.02-.07-.04-.11-.06-.01,0-.03,0-.04-.01-.03-.01-.06-.02-.09-.02-.01,0-.03,0-.04,0-.04,0-.08,0-.12,0,0,0-.01,0-.02,0-.05,0-.09,.02-.13,.03,0,0,0,0-.01,0,0,0-.02,0-.03,.01-.02,.01-.04,.02-.06,.03-.01,0-.03,.02-.04,.03-.02,.01-.03,.03-.05,.04-.01,.01-.02,.02-.03,.04,0,.01-.02,.02-.03,.03,0,0,0,0,0,.01-.02,.04-.05,.07-.06,.11,0,.01,0,.02-.01,.03-.01,.03-.02,.06-.02,.09,0,.02,0,.03,0,.05,0,.03,0,.06,0,.09,0,.02,0,.03,0,.05,0,.04,.02,.07,.03,.11,0,0,0,.01,0,.02l3.46,8.4h-2.67s0,0,0,0h-2.31s-.86,0-.86,0h-.86s0,0,0,0h-2.3s0,0,0,0h-2.67s3.46-8.4,3.46-8.4c0,0,0-.01,0-.02,.01-.04,.02-.07,.03-.11,0-.02,0-.03,0-.05,0-.03,0-.06,0-.09,0-.02,0-.03,0-.05,0-.03-.01-.06-.02-.09,0-.01,0-.02-.01-.03-.02-.04-.04-.08-.06-.11,0,0,0,0,0-.01,0-.01-.02-.02-.03-.03-.01-.01-.02-.03-.03-.04-.02-.02-.03-.03-.05-.04-.01,0-.02-.02-.04-.03-.02-.01-.04-.02-.06-.03,0,0-.02-.01-.03-.01,0,0,0,0-.01,0-.04-.02-.09-.03-.13-.03,0,0-.01,0-.02,0-.04,0-.08,0-.12,0-.01,0-.03,0-.04,0-.03,0-.06,.01-.09,.02-.01,0-.03,0-.04,.01-.04,.02-.07,.04-.11,.06,0,0,0,0-.01,0l-.4,.3-4.1,3.09s-.01-.02-.02-.03c0,0,0,0,0,0l-.55-.67,5.43-4.09s.04-.04,.06-.06c0,0,0,0,0,0,.28-.23,.62-.37,.98-.4h3.71Zm.16,17.85h-.57v-5.76h1.15v4.86s0,.9,0,.9h-.57Zm-4.03,0h-.57v-5.76h1.15v3.42s0,2.34,0,2.34h-.57Z"/>
    <g>
      <path class="cls-11" d="M27.36,51.25h-.47c.51,.52,.91,1.13,1.18,1.83,.21-.19,.34-.47,.34-.78,0-.58-.47-1.05-1.05-1.05Z"/>
      <path class="cls-11" d="M17.88,52.3c0,.3,.13,.58,.34,.78,.26-.69,.67-1.31,1.18-1.83h-.47c-.58,0-1.05,.47-1.05,1.05Z"/>
      <path class="cls-11" d="M33.33,63.06c.63-.32,1.12-.87,1.34-1.56l.08-.25-3.43-9.96c-1.2-3.49-4.49-5.83-8.18-5.83s-6.97,2.34-8.18,5.83l-3.44,9.96,.08,.25c.23,.69,.72,1.24,1.34,1.56l-1.96,4.48,.29,.87c.24,.71,.74,1.29,1.41,1.62,.6,.3,.97,2.09,.97,2.76v.14c0,.1,.03,.17,.07,.23,0,.01,0,.02,0,.03,0,.29,.23,.52,.52,.52h17.78c.29,0,.52-.23,.52-.52,0-.01,0-.02,0-.03,.04-.06,.07-.13,.07-.23v-.14c0-.67,.37-2.46,.97-2.76,.67-.34,1.17-.91,1.41-1.62l.29-.88-1.96-4.49Zm.67,5.03c-.15,.44-.46,.81-.88,1.01-.2,.1-.38,.22-.54,.36l-.72,.92c-.17,.35-.27,1.76-.29,2.31H14.72c-.01-.55-.11-1.95-.29-2.31l-.72-.92c-.17-.14-.34-.26-.54-.36-.42-.21-.73-.57-.88-1.01l-.16-.49,3.6-8.24-.96-.42-1.38,3.16c-.33-.19-.6-.48-.74-.84l3.32-9.62c1.06-3.06,3.94-5.12,7.18-5.12s6.13,2.06,7.18,5.12l3.32,9.62c-.14,.36-.41,.65-.74,.84l-1.38-3.16-.96,.42,3.6,8.24-.16,.49Z"/>
    </g>
    <path class="cls-7" d="M25.01,59.04c.36,.03,.7,.17,.98,.4,0,0,0,0,0,0,.02,.02,.04,.04,.06,.06l5.43,4.09-.55,.67s0,0,0,0c0,0-.02,.02-.02,.03l-4.1-3.09-.4-.3s0,0-.01,0c-.03-.02-.07-.04-.11-.06-.01,0-.03,0-.04-.01-.03-.01-.06-.02-.09-.02-.01,0-.03,0-.04,0-.04,0-.08,0-.12,0,0,0-.01,0-.02,0-.05,0-.09,.02-.13,.03,0,0,0,0-.01,0,0,0-.02,0-.03,.01-.02,.01-.04,.02-.06,.03-.01,0-.03,.02-.04,.03-.02,.01-.03,.03-.05,.04-.01,.01-.02,.02-.03,.04,0,.01-.02,.02-.03,.03,0,0,0,0,0,.01-.02,.04-.05,.07-.06,.11,0,.01,0,.02-.01,.03-.01,.03-.02,.06-.02,.09,0,.02,0,.03,0,.05,0,.03,0,.06,0,.09,0,.02,0,.03,0,.05,0,.04,.02,.07,.03,.11,0,0,0,.01,0,.02l3.46,8.4h-2.67s0,0,0,0h-2.31s-.86,0-.86,0h-.86s0,0,0,0h-2.3s0,0,0,0h-2.67s3.46-8.4,3.46-8.4c0,0,0-.01,0-.02,.01-.04,.02-.07,.03-.11,0-.02,0-.03,0-.05,0-.03,0-.06,0-.09,0-.02,0-.03,0-.05,0-.03-.01-.06-.02-.09,0-.01,0-.02-.01-.03-.02-.04-.04-.08-.06-.11,0,0,0,0,0-.01,0-.01-.02-.02-.03-.03-.01-.01-.02-.03-.03-.04-.02-.02-.03-.03-.05-.04-.01,0-.02-.02-.04-.03-.02-.01-.04-.02-.06-.03,0,0-.02-.01-.03-.01,0,0,0,0-.01,0-.04-.02-.09-.03-.13-.03,0,0-.01,0-.02,0-.04,0-.08,0-.12,0-.01,0-.03,0-.04,0-.03,0-.06,.01-.09,.02-.01,0-.03,0-.04,.01-.04,.02-.07,.04-.11,.06,0,0,0,0-.01,0l-.4,.3-4.1,3.09s-.01-.02-.02-.03c0,0,0,0,0,0l-.55-.67,5.43-4.09s.04-.04,.06-.06c0,0,0,0,0,0,.28-.23,.62-.37,.98-.4h3.71Z"/>
    <path class="cls-6" d="M27.92,54.23c-.03,.41-.03,.83,.02,1.24-.21,0-.41-.05-.58-.17-.26-.23-.23-.87-.2-1.49,0-.04,0-.09,0-.13,0-.03,0-.06,0-.1,0-.1,0-.2,0-.3,0,0,0-.01,0-.02h0c.01-.37-.02-.73-.11-1.08,.2,0,.4,.08,.56,.2,.36,.32,.32,1.13,.28,1.85Zm-4.83-3.84c.99,0,1.92,.51,2.46,1.34h0s0,.02,0,.03c0,.01,0,.02,0,.03,0,.02,0,.04,.02,.06,0,.02,.01,.04,.02,.05,0,.02,.02,.03,.02,.05,.01,.02,.02,.04,.03,.05,0,.01,.02,.03,.03,.04,.02,.02,.03,.03,.05,.05,0,0,.01,.01,.02,.02,0,0,.01,.02,.02,.02,.16,.36,.25,.74,.26,1.14,0,.11,0,.21-.01,.32-.12,1.45-1.34,2.57-2.8,2.56-1.6,0-2.9-1.29-2.94-2.89-.04-1.55,1.18-2.83,2.73-2.87,.03,0,.05,0,.08,0Zm-4.62,1.99c.16-.12,.36-.19,.56-.2-.11,.53-.14,1.08-.09,1.62,.03,.62,.06,1.26-.2,1.49-.17,.12-.37,.18-.58,.17,.05-.41,.06-.82,.02-1.24-.04-.72-.08-1.53,.28-1.85Z"/>
    <circle class="cls-3" cx="152.63" cy="61.74" r="22.3"/>
    <g>
      <path class="cls-5" d="M160.67,58.49l7.03-.61c.23-.02,.43,.15,.45,.38,.02,.23-.15,.43-.38,.45l3.19,5.94c.04,.07,.07,.15,.07,.23,0,1.01-.41,1.92-1.07,2.58-.66,.66-1.57,1.07-2.58,1.07s-1.92-.41-2.58-1.07-1.07-1.57-1.07-2.58c0-.09,.03-.17,.07-.23l3.15-5.87-6.53,.56v14.4h1.66c.23,0,.42,.19,.42,.42s-.19,.42-.42,.42h-4.17c-.23,0-.42-.19-.42-.42s.19-.42,.42-.42h1.66v-14.33l-6.4,.55,3.14,5.86c.04,.07,.07,.15,.07,.23,0,1.01-.41,1.92-1.07,2.58-.66,.66-1.57,1.07-2.58,1.07s-1.92-.41-2.58-1.07c-.66-.66-1.07-1.57-1.07-2.58,0-.09,.03-.17,.07-.23l3.1-5.78c-.22,0-.4-.17-.42-.39-.02-.23,.15-.43,.38-.45l7.28-.63c-.15-.06-.29-.16-.41-.27-.23-.23-.37-.54-.37-.88s.14-.66,.37-.88c.23-.23,.54-.37,.88-.37s.66,.14,.88,.37c.23,.23,.37,.54,.37,.88s-.14,.66-.37,.88c-.07,.07-.14,.13-.22,.18Zm4.19,5.99h5.04l-2.52-4.7-2.52,4.7Zm5.29,.84h-5.54c.09,.61,.38,1.15,.79,1.56,.51,.51,1.21,.82,1.98,.82s1.47-.31,1.98-.82c.41-.41,.7-.95,.79-1.56Zm-19.92,.33h5.04l-2.52-4.7-2.52,4.7Zm5.29,.84h-5.54c.09,.61,.38,1.15,.79,1.56,.51,.51,1.21,.82,1.98,.82s1.47-.31,1.98-.82c.41-.41,.7-.95,.79-1.56Zm4.77-9.35c-.07-.07-.18-.12-.29-.12s-.22,.05-.29,.12c-.07,.07-.12,.18-.12,.29s.05,.22,.12,.29c.07,.07,.18,.12,.29,.12s.22-.05,.29-.12c.07-.07,.12-.18,.12-.29s-.05-.22-.12-.29Zm-3.51,18.66c-.23,0-.42-.19-.42-.42s.19-.42,.42-.42h6.44c.23,0,.42,.19,.42,.42s-.19,.42-.42,.42h-6.44Z"/>
      <path class="cls-5" d="M163.23,75.91h-6.44c-.29,0-.53-.24-.53-.53s.24-.53,.53-.53h6.44c.29,0,.53,.24,.53,.53s-.24,.53-.53,.53Zm-6.44-.84c-.17,0-.31,.14-.31,.31s.14,.31,.31,.31h6.44c.17,0,.31-.14,.31-.31s-.14-.31-.31-.31h-6.44Zm5.31-.36h-4.17c-.29,0-.53-.24-.53-.53s.24-.53,.53-.53h1.56v-14.1l-6.12,.53,3.06,5.72c.05,.08,.08,.18,.08,.28,0,1-.39,1.94-1.1,2.65-.71,.71-1.65,1.1-2.65,1.1s-1.94-.39-2.65-1.1c-.71-.71-1.1-1.65-1.1-2.65,0-.1,.03-.2,.09-.29l3.03-5.64c-.2-.07-.34-.24-.36-.46-.02-.29,.19-.55,.48-.57l6.94-.6s-.09-.08-.13-.12c-.26-.26-.4-.6-.4-.96s.14-.7,.4-.96c.26-.26,.6-.4,.96-.4s.7,.14,.96,.4,.4,.6,.4,.96-.13,.67-.36,.92l6.68-.58c.29-.02,.55,.19,.57,.48,.02,.23-.12,.45-.33,.53l3.12,5.82c.05,.08,.08,.18,.08,.28,0,1-.39,1.94-1.1,2.65-.71,.71-1.65,1.1-2.65,1.1s-1.94-.39-2.65-1.1c-.71-.71-1.1-1.65-1.1-2.65,0-.1,.03-.2,.09-.29l3.05-5.69-6.24,.54v14.19h1.56c.29,0,.53,.24,.53,.53s-.24,.53-.53,.53Zm-4.17-.84c-.17,0-.31,.14-.31,.31s.14,.31,.31,.31h4.17c.17,0,.31-.14,.31-.31s-.14-.31-.31-.31h-1.77v-14.61h.1s6.73-.59,6.73-.59l-3.24,6.05c-.04,.06-.06,.12-.06,.18,0,.94,.37,1.83,1.04,2.5,.67,.67,1.56,1.04,2.5,1.04s1.83-.37,2.5-1.04c.67-.67,1.04-1.56,1.04-2.5,0-.06-.02-.12-.05-.17l-3.27-6.1,.16-.02c.17-.02,.29-.17,.28-.34-.01-.17-.16-.3-.34-.29l-7.47,.64,.38-.24c.07-.05,.14-.1,.2-.16,.22-.22,.34-.5,.34-.81s-.12-.59-.34-.81c-.22-.22-.5-.34-.81-.34s-.59,.12-.81,.34c-.22,.22-.33,.5-.33,.81s.12,.59,.34,.81c.11,.11,.23,.19,.37,.25l.41,.17-7.72,.67c-.17,.01-.3,.17-.29,.34,.01,.16,.15,.29,.31,.29h.18s-3.19,5.94-3.19,5.94c-.04,.06-.06,.12-.06,.18,0,.94,.37,1.83,1.04,2.5,.67,.67,1.56,1.04,2.5,1.04s1.83-.37,2.5-1.04c.67-.67,1.04-1.56,1.04-2.5,0-.06-.02-.12-.05-.17l-3.23-6.01,6.68-.58v14.56h-1.77Zm-5.17-4.88c-.78,0-1.51-.3-2.06-.85-.44-.44-.73-1-.82-1.62l-.02-.12h5.79l-.02,.12c-.09,.62-.38,1.18-.82,1.62-.55,.55-1.28,.85-2.06,.85Zm-2.64-2.38c.1,.52,.36,1,.74,1.38,.51,.51,1.18,.79,1.9,.79s1.4-.28,1.9-.79c.38-.38,.63-.85,.74-1.38h-5.28Zm17.27,1.21c-.78,0-1.51-.3-2.06-.85-.44-.44-.73-1-.82-1.62l-.02-.12h5.79l-.02,.12c-.09,.62-.38,1.18-.82,1.62-.55,.55-1.28,.85-2.06,.85Zm-2.64-2.38c.1,.52,.36,1,.74,1.38,.51,.51,1.18,.79,1.9,.79s1.4-.28,1.9-.79c.38-.38,.63-.85,.74-1.38h-5.28Zm-9.29,.33h-5.4l2.7-5.04,2.7,5.04Zm-5.04-.22h4.68l-2.34-4.37-2.34,4.37Zm19.67-.96h-5.4l2.7-5.04,2.7,5.04Zm-5.04-.22h4.68l-2.34-4.37-2.34,4.37Zm-5.04-6.42c-.14,0-.27-.05-.37-.15s-.15-.23-.15-.37,.05-.27,.15-.37c.19-.19,.54-.19,.73,0,.1,.1,.15,.23,.15,.37s-.05,.27-.15,.37c-.1,.1-.23,.15-.37,.15Zm0-.82c-.08,0-.16,.03-.21,.09-.06,.06-.09,.13-.09,.21s.03,.16,.09,.21c.11,.11,.31,.11,.43,0,.06-.06,.09-.13,.09-.21s-.03-.16-.09-.21c-.06-.06-.13-.09-.21-.09Z"/>
    </g>
    <path class="cls-1" d="M155.52,66.49h-5.54c.09,.61,.38,1.15,.79,1.56,.51,.51,1.21,.82,1.98,.82s1.47-.31,1.98-.82c.41-.41,.7-.95,.79-1.56Z"/>
    <path class="cls-1" d="M170.15,65.3h-5.54c.09,.61,.38,1.15,.79,1.56,.51,.51,1.21,.82,1.98,.82s1.47-.31,1.98-.82c.41-.41,.7-.95,.79-1.56Z"/>
    <g class="cls-10">
      <path class="cls-7" d="M148.79,58.4l-11.56-11.56-.88,.88,11.56,11.56s.03,.08,0,.11c-.01,.01-.03,.02-.05,.02l-2.53-2.5c-.08-.08-.17-.14-.27-.18l-4.62-1.98c-.27-.12-.59-.08-.83,.09l-1.15,.82c-.12,.08-.22,.2-.29,.33-.16,.33-.09,.72,.17,.98l2.15,2.14s.03,.06,.01,.1h-.01s-.08,.04-.11,0l-1.65-1.65s-.08-.07-.13-.11c-1.12-.75-1.97-1.86-2.4-3.14l-.24-.71c-.04-.13-.11-.24-.21-.33l-2.76-2.76-.88,.88,2.69,2.69,.21,.63c.51,1.54,1.53,2.87,2.82,3.73l1.65,1.65c.38,.38,.94,.48,1.41,.3l.61,.61c.28,.28,.65,.43,1.05,.43,.37,0,.72-.13,.99-.38l.25,.25c.28,.28,.65,.43,1.05,.43,.37,0,.72-.13,.99-.38l.27,.27c.28,.28,.65,.43,1.05,.43s.77-.15,1.05-.43c.28-.28,.43-.65,.43-1.05,0-.08-.01-.15-.03-.22,.06-.04,.12-.07,.18-.12,.51-.51,.51-1.35,0-1.87Zm-6.11-1.01c-.21,.21-.21,.56,0,.77l2.52,2.52c-.06,.04-.13,.07-.22,.06-.1,0-.2-.04-.27-.11l-2.52-2.52c-.2-.2-.56-.21-.77,0-.03,.03-.05,.07-.07,.11l-1.81-1.8,.61-.43,2.92,1.25c-.14,0-.28,.05-.39,.16Zm-.6,3.07l-.56-.56s.06-.06,.08-.1c.1-.19,.14-.4,.14-.61l1.29,1.29c-.13,.12-.29,.18-.46,.18-.18,0-.36-.07-.49-.21Zm5.25,.81l-3.87-3.87,1.05,.45,2.42,2.42c.25,.25,.58,.38,.93,.38-.01,.17-.08,.33-.2,.45-.09,.09-.21,.14-.33,.17Z"/>
    </g>
    <circle class="cls-3" cx="354.9" cy="61.74" r="22.3"/>
    <path class="cls-11" d="M360.68,67.34c.75-.48,1.25-1.33,1.25-2.29,0-1.5-1.22-2.72-2.72-2.72s-2.72,1.22-2.72,2.72c0,.95,.49,1.79,1.23,2.27-1.45,.47-2.51,1.83-2.51,3.44v4.86h1.18v-4.86c0-1.35,1.1-2.44,2.44-2.44h.69c1.35,0,2.44,1.1,2.44,2.44v4.86h1.18v-4.86c0-1.59-1.04-2.95-2.47-3.43Zm-1.47-3.83c.85,0,1.54,.69,1.54,1.54s-.69,1.54-1.54,1.54-1.54-.69-1.54-1.54,.69-1.54,1.54-1.54Z"/>
    <path class="cls-11" d="M352.04,67.34c.75-.48,1.25-1.33,1.25-2.29,0-1.5-1.22-2.72-2.72-2.72s-2.72,1.22-2.72,2.72c0,.95,.49,1.79,1.23,2.27-1.45,.47-2.51,1.83-2.51,3.44v4.86h1.18v-4.86c0-1.35,1.1-2.44,2.44-2.44h.69c1.35,0,2.44,1.1,2.44,2.44v4.86h1.18v-4.86c0-1.59-1.04-2.95-2.47-3.43Zm-1.47-3.83c.85,0,1.54,.69,1.54,1.54s-.69,1.54-1.54,1.54-1.54-.69-1.54-1.54,.69-1.54,1.54-1.54Z"/>
    <path class="cls-1" d="M347.76,82.59v-11.82c0-1.35,1.1-2.44,2.44-2.44h.69c1.35,0,2.44,1.1,2.44,2.44v13.19l-5.58-1.37Zm2.82-19.08c.85,0,1.54,.69,1.54,1.54s-.69,1.54-1.54,1.54-1.54-.69-1.54-1.54,.69-1.54,1.54-1.54Z"/>
    <path class="cls-11" d="M356.44,70.88c.75-.48,1.25-1.33,1.25-2.29,0-1.5-1.22-2.72-2.72-2.72s-2.72,1.22-2.72,2.72c0,.95,.49,1.79,1.23,2.27-1.45,.47-2.51,1.83-2.51,3.44v9.23h1.18v-9.23c0-1.35,1.1-2.44,2.44-2.44h.69c1.35,0,2.44,1.1,2.44,2.44v9.13h1.18v-9.13c0-1.59-1.04-2.95-2.47-3.43Zm-1.47-3.83c.85,0,1.54,.69,1.54,1.54s-.69,1.54-1.54,1.54-1.54-.69-1.54-1.54,.69-1.54,1.54-1.54Z"/>
    <path class="cls-7" d="M352.16,83.65v-9.34c0-1.35,1.1-2.44,2.44-2.44h.69c1.35,0,2.44,1.1,2.44,2.44v9.34h-5.58Zm2.82-16.59c.85,0,1.54,.69,1.54,1.54s-.69,1.54-1.54,1.54-1.54-.69-1.54-1.54,.69-1.54,1.54-1.54Z"/>
    <path class="cls-11" d="M346.67,70.88c.75-.48,1.25-1.33,1.25-2.29,0-1.5-1.22-2.72-2.72-2.72s-2.72,1.22-2.72,2.72c0,.95,.49,1.79,1.23,2.27-1.45,.47-2.51,1.83-2.51,3.44v4.03l1.18,.83v-4.86c0-1.35,1.1-2.44,2.44-2.44h.69c1.35,0,2.44,1.1,2.44,2.44v8.58h1.18v-8.58c0-1.59-1.04-2.95-2.47-3.43Zm-1.47-3.83c.85,0,1.54,.69,1.54,1.54s-.69,1.54-1.54,1.54-1.54-.69-1.54-1.54,.69-1.54,1.54-1.54Z"/>
    <path class="cls-6" d="M342.39,79.17v-4.86c0-1.35,1.1-2.44,2.44-2.44h.69c1.35,0,2.44,1.1,2.44,2.44v7.99l-5.58-3.13Zm2.82-12.12c.85,0,1.54,.69,1.54,1.54s-.69,1.54-1.54,1.54-1.54-.69-1.54-1.54,.69-1.54,1.54-1.54Z"/>
    <path class="cls-11" d="M366.21,70.88c.75-.48,1.25-1.33,1.25-2.29,0-1.5-1.22-2.72-2.72-2.72s-2.72,1.22-2.72,2.72c0,.95,.49,1.79,1.23,2.27-1.45,.47-2.51,1.83-2.51,3.44v8.39h1.18v-8.39c0-1.35,1.1-2.44,2.44-2.44h.69c1.35,0,2.44,1.1,2.44,2.44v4.86l1.18-.9v-3.96c0-1.59-1.04-2.95-2.47-3.43Zm-1.47-3.83c.85,0,1.54,.69,1.54,1.54s-.69,1.54-1.54,1.54-1.54-.69-1.54-1.54,.69-1.54,1.54-1.54Z"/>
    <path class="cls-12" d="M361.93,82.3v-7.99c0-1.35,1.1-2.44,2.44-2.44h.69c1.35,0,2.44,1.1,2.44,2.44v4.86l-5.58,3.13Zm2.82-15.25c.85,0,1.54,.69,1.54,1.54s-.69,1.54-1.54,1.54-1.54-.69-1.54-1.54,.69-1.54,1.54-1.54Z"/>
    <path class="cls-7" d="M349.56,48.89h11.13v2.66h-11.13v-2.66Zm0,5.53h11.13v2.66h-11.13v-2.66Z"/>
    <circle class="cls-4" cx="354.9" cy="61.74" r="22.3"/>
    <g>
      <path class="cls-7" d="M56.34,50.34v-1.08h1.98v1.18c0,.95,.42,1.31,1.08,1.31s1.08-.32,1.08-1.5v-1.08c0-1.23-.42-1.69-1.37-1.69h-.7v-1.9h.76c.78,0,1.25-.34,1.25-1.41v-.97c0-.95-.44-1.33-1.04-1.33s-1.01,.36-1.01,1.23v.87h-1.98v-.7c0-2.13,1.06-3.31,3.06-3.31s3.06,1.16,3.06,3.29v.48c0,1.42-.46,2.3-1.48,2.68v.04c1.12,.42,1.54,1.39,1.54,2.74v1.18c0,2.13-1.06,3.29-3.12,3.29s-3.12-1.18-3.12-3.31Z"/>
      <path class="cls-7" d="M63.94,50.3v-6.99c0-2.13,1.12-3.34,3.17-3.34s3.17,1.22,3.17,3.34v6.99c0,2.13-1.12,3.34-3.17,3.34s-3.17-1.22-3.17-3.34Zm4.26,.13v-7.26c0-.95-.42-1.31-1.08-1.31s-1.08,.36-1.08,1.31v7.26c0,.95,.42,1.31,1.08,1.31s1.08-.36,1.08-1.31Z"/>
      <path class="cls-7" d="M71.54,50.3v-6.99c0-2.13,1.12-3.34,3.17-3.34s3.17,1.22,3.17,3.34v6.99c0,2.13-1.12,3.34-3.17,3.34s-3.17-1.22-3.17-3.34Zm4.26,.13v-7.26c0-.95-.42-1.31-1.08-1.31s-1.08,.36-1.08,1.31v7.26c0,.95,.42,1.31,1.08,1.31s1.08-.36,1.08-1.31Z"/>
      <path class="cls-7" d="M84.25,47.79l-2.53-7.64h2.22l1.42,4.88h.04l1.42-4.88h2.03l-2.53,7.64v5.66h-2.09v-5.66Z"/>
      <path class="cls-7" d="M89.82,40.16h5.7v1.9h-3.61v3.51h2.87v1.9h-2.87v4.08h3.61v1.9h-5.7v-13.3Z"/>
      <path class="cls-7" d="M98.33,40.16h2.83l2.17,13.3h-2.09l-.38-2.64v.04h-2.38l-.38,2.6h-1.94l2.17-13.3Zm2.28,8.89l-.93-6.57h-.04l-.91,6.57h1.88Z"/>
      <path class="cls-7" d="M104.33,40.16h3.1c2.17,0,3.1,1.01,3.1,3.06v.82c0,1.37-.44,2.24-1.37,2.62v.04c1.04,.32,1.39,1.31,1.39,2.81v2.34c0,.65,.02,1.12,.23,1.61h-2.13c-.11-.34-.19-.55-.19-1.63v-2.43c0-1.23-.36-1.63-1.31-1.63h-.72v5.7h-2.09v-13.3Zm2.85,5.7c.78,0,1.25-.34,1.25-1.41v-1.03c0-.95-.32-1.37-1.06-1.37h-.95v3.8h.76Z"/>
      <path class="cls-7" d="M111.63,50.3v-.76h1.98v.91c0,.95,.42,1.29,1.08,1.29s1.08-.34,1.08-1.33c0-1.1-.42-1.8-1.79-3-1.75-1.54-2.32-2.62-2.32-4.14,0-2.09,1.08-3.31,3.12-3.31s3.04,1.22,3.04,3.34v.55h-1.98v-.68c0-.95-.38-1.31-1.04-1.31s-1.04,.36-1.04,1.27c0,.97,.44,1.67,1.81,2.87,1.75,1.54,2.3,2.6,2.3,4.26,0,2.17-1.1,3.38-3.15,3.38s-3.08-1.22-3.08-3.34Z"/>
      <path class="cls-2" d="M57.49,61.05h-1.61v-1.4h4.76v1.4h-1.61v8.4h-1.54v-8.4Z"/>
      <path class="cls-2" d="M61.5,67.13v-5.15c0-1.57,.83-2.47,2.34-2.47s2.34,.9,2.34,2.47v5.15c0,1.57-.83,2.47-2.34,2.47s-2.34-.9-2.34-2.47Zm3.14,.1v-5.35c0-.7-.31-.97-.8-.97s-.8,.27-.8,.97v5.35c0,.7,.31,.97,.8,.97s.8-.27,.8-.97Z"/>
      <path class="cls-2" d="M70.01,59.65h4.2v1.4h-2.66v2.59h2.12v1.4h-2.12v3.01h2.66v1.4h-4.2v-9.81Z"/>
      <path class="cls-2" d="M75.37,59.65h1.93l1.5,5.87h.03v-5.87h1.37v9.81h-1.58l-1.85-7.16h-.03v7.16h-1.37v-9.81Z"/>
      <path class="cls-2" d="M81.63,59.65h2.35c1.54,0,2.3,.85,2.3,2.42v4.96c0,1.57-.76,2.42-2.3,2.42h-2.35v-9.81Zm2.33,8.4c.49,0,.78-.25,.78-.95v-5.1c0-.7-.29-.95-.78-.95h-.78v7h.78Z"/>
      <path class="cls-2" d="M90.01,67.19v-5.27c0-1.51,.78-2.41,2.27-2.41s2.27,.9,2.27,2.41v1.04h-1.46v-1.13c0-.64-.31-.91-.77-.91s-.77,.27-.77,.91v5.48c0,.64,.31,.9,.77,.9s.77-.25,.77-.9v-1.5h1.46v1.39c0,1.51-.78,2.41-2.27,2.41s-2.27-.9-2.27-2.41Z"/>
      <path class="cls-2" d="M95.75,59.65h1.54v3.99h1.65v-3.99h1.54v9.81h-1.54v-4.41h-1.65v4.41h-1.54v-9.81Z"/>
      <path class="cls-2" d="M101.91,59.65h1.54v9.81h-1.54v-9.81Z"/>
      <path class="cls-2" d="M104.88,59.65h1.54v8.4h2.54v1.4h-4.08v-9.81Z"/>
      <path class="cls-2" d="M109.98,59.65h2.35c1.54,0,2.3,.85,2.3,2.42v4.96c0,1.57-.76,2.42-2.3,2.42h-2.35v-9.81Zm2.33,8.4c.49,0,.78-.25,.78-.95v-5.1c0-.7-.29-.95-.78-.95h-.78v7h.78Z"/>
      <path class="cls-2" d="M56.29,75.65h2.2l.98,7.02h.03l.98-7.02h2.2v9.81h-1.46v-7.42h-.03l-1.12,7.42h-1.29l-1.12-7.42h-.03v7.42h-1.34v-9.81Z"/>
      <path class="cls-2" d="M65.29,75.65h2.09l1.6,9.81h-1.54l-.28-1.95v.03h-1.75l-.28,1.92h-1.43l1.6-9.81Zm1.68,6.56l-.69-4.85h-.03l-.67,4.85h1.39Z"/>
      <path class="cls-2" d="M69.99,75.65h2.28c1.6,0,2.28,.74,2.28,2.25v.6c0,1.01-.32,1.65-1.01,1.93v.03c.77,.24,1.02,.97,1.02,2.07v1.72c0,.48,.01,.83,.17,1.19h-1.57c-.08-.25-.14-.41-.14-1.2v-1.79c0-.91-.27-1.2-.97-1.2h-.53v4.2h-1.54v-9.81Zm2.1,4.2c.57,0,.92-.25,.92-1.04v-.76c0-.7-.24-1.01-.78-1.01h-.7v2.8h.56Z"/>
      <path class="cls-2" d="M75.92,75.65h2.28c1.6,0,2.28,.74,2.28,2.25v.6c0,1.01-.32,1.65-1.01,1.93v.03c.77,.24,1.02,.97,1.02,2.07v1.72c0,.48,.01,.83,.17,1.19h-1.57c-.08-.25-.14-.41-.14-1.2v-1.79c0-.91-.27-1.2-.97-1.2h-.53v4.2h-1.54v-9.81Zm2.1,4.2c.57,0,.92-.25,.92-1.04v-.76c0-.7-.24-1.01-.78-1.01h-.7v2.8h.56Z"/>
      <path class="cls-2" d="M81.84,75.65h1.54v9.81h-1.54v-9.81Z"/>
      <path class="cls-2" d="M86,75.65h2.09l1.6,9.81h-1.54l-.28-1.95v.03h-1.75l-.28,1.92h-1.43l1.6-9.81Zm1.68,6.56l-.69-4.85h-.03l-.67,4.85h1.39Z"/>
      <path class="cls-2" d="M90.56,83.13v-5.15c0-1.57,.78-2.47,2.3-2.47s2.3,.9,2.3,2.47v.84h-1.46v-.94c0-.7-.31-.97-.8-.97s-.8,.27-.8,.97v5.36c0,.7,.31,.95,.8,.95s.8-.25,.8-.95v-1.92h-.77v-1.4h2.23v3.21c0,1.57-.78,2.47-2.3,2.47s-2.3-.9-2.3-2.47Z"/>
      <path class="cls-2" d="M96.43,75.65h4.2v1.4h-2.66v2.59h2.12v1.4h-2.12v3.01h2.66v1.4h-4.2v-9.81Z"/>
    </g>
    <g>
      <path class="cls-7" d="M186.77,52.01c0-1.9,.53-3.06,2.09-4.69,1.6-1.69,2.05-2.7,2.05-3.93s-.42-1.52-1.08-1.52-1.08,.36-1.08,1.31v1.42h-1.98v-1.29c0-2.13,1.06-3.34,3.12-3.34s3.12,1.22,3.12,3.34c0,1.58-.65,2.98-2.58,5.03-1.25,1.33-1.58,1.99-1.58,2.93v.28h3.97v1.9h-6.04v-1.44Z"/>
      <path class="cls-7" d="M194.16,50.36v-1.18c0-1.27,.38-2.2,1.37-2.72v-.04c-.87-.48-1.29-1.31-1.29-2.62v-.55c0-2.13,1.16-3.29,3.19-3.29s3.19,1.16,3.19,3.29v.55c0,1.31-.44,2.15-1.29,2.62v.04c.99,.51,1.37,1.44,1.37,2.72v1.18c0,2.13-1.16,3.29-3.27,3.29s-3.27-1.16-3.27-3.29Zm4.45-.11v-1.27c0-1.01-.4-1.5-1.18-1.5s-1.18,.49-1.18,1.5v1.27c0,1.01,.4,1.5,1.18,1.5s1.18-.49,1.18-1.5Zm-.08-6v-1.04c0-.87-.38-1.33-1.1-1.33s-1.1,.46-1.1,1.33v1.04c0,.87,.38,1.33,1.1,1.33s1.1-.46,1.1-1.33Z"/>
      <path class="cls-7" d="M201.92,50.3v-6.88c0-2.24,1.03-3.46,3.19-3.46,2.05,0,3.12,1.22,3.12,3.34v.25h-1.98v-.38c0-.95-.42-1.31-1.08-1.31-.74,0-1.16,.36-1.16,1.63v2.55h.04c.36-.76,.97-1.16,1.9-1.16,1.54,0,2.32,1.08,2.32,3.04v2.38c0,2.13-1.12,3.34-3.17,3.34s-3.17-1.22-3.17-3.34Zm4.26,.15v-2.36c0-.89-.36-1.31-1.08-1.31s-1.08,.42-1.08,1.31v2.36c0,.87,.36,1.29,1.08,1.29s1.08-.42,1.08-1.29Z"/>
      <path class="cls-7" d="M214.57,47.79l-2.53-7.64h2.22l1.42,4.88h.04l1.42-4.88h2.03l-2.53,7.64v5.66h-2.09v-5.66Z"/>
      <path class="cls-7" d="M220.14,40.16h5.7v1.9h-3.61v3.51h2.87v1.9h-2.87v4.08h3.61v1.9h-5.7v-13.3Z"/>
      <path class="cls-7" d="M228.65,40.16h2.83l2.17,13.3h-2.09l-.38-2.64v.04h-2.38l-.38,2.6h-1.94l2.17-13.3Zm2.28,8.89l-.93-6.57h-.04l-.91,6.57h1.88Z"/>
      <path class="cls-7" d="M234.65,40.16h3.1c2.17,0,3.1,1.01,3.1,3.06v.82c0,1.37-.44,2.24-1.37,2.62v.04c1.04,.32,1.39,1.31,1.39,2.81v2.34c0,.65,.02,1.12,.23,1.61h-2.13c-.11-.34-.19-.55-.19-1.63v-2.43c0-1.23-.36-1.63-1.31-1.63h-.72v5.7h-2.09v-13.3Zm2.85,5.7c.78,0,1.25-.34,1.25-1.41v-1.03c0-.95-.32-1.37-1.06-1.37h-.95v3.8h.76Z"/>
      <path class="cls-7" d="M241.95,50.3v-.76h1.98v.91c0,.95,.42,1.29,1.08,1.29s1.08-.34,1.08-1.33c0-1.1-.42-1.8-1.79-3-1.75-1.54-2.32-2.62-2.32-4.14,0-2.09,1.08-3.31,3.12-3.31s3.04,1.22,3.04,3.34v.55h-1.98v-.68c0-.95-.38-1.31-1.04-1.31s-1.04,.36-1.04,1.27c0,.97,.44,1.67,1.81,2.87,1.75,1.54,2.3,2.6,2.3,4.26,0,2.17-1.1,3.38-3.15,3.38s-3.08-1.22-3.08-3.34Z"/>
      <path class="cls-2" d="M252.9,45.05h-1.61v-1.4h4.76v1.4h-1.61v8.4h-1.54v-8.4Z"/>
      <path class="cls-2" d="M256.9,51.13v-5.15c0-1.57,.83-2.47,2.34-2.47s2.34,.9,2.34,2.47v5.15c0,1.57-.83,2.47-2.34,2.47s-2.34-.9-2.34-2.47Zm3.14,.1v-5.35c0-.7-.31-.97-.8-.97s-.8,.27-.8,.97v5.35c0,.7,.31,.97,.8,.97s.8-.27,.8-.97Z"/>
      <path class="cls-2" d="M265.32,51.19v-5.27c0-1.51,.78-2.41,2.27-2.41s2.27,.9,2.27,2.41v1.04h-1.46v-1.13c0-.64-.31-.91-.77-.91s-.77,.27-.77,.91v5.48c0,.64,.31,.9,.77,.9s.77-.25,.77-.9v-1.5h1.46v1.39c0,1.51-.78,2.41-2.27,2.41s-2.27-.9-2.27-2.41Z"/>
      <path class="cls-2" d="M271.05,43.65h1.54v8.4h2.54v1.4h-4.08v-9.81Z"/>
      <path class="cls-2" d="M275.98,51.13v-5.15c0-1.57,.83-2.47,2.34-2.47s2.34,.9,2.34,2.47v5.15c0,1.57-.83,2.47-2.34,2.47s-2.34-.9-2.34-2.47Zm3.14,.1v-5.35c0-.7-.31-.97-.8-.97s-.8,.27-.8,.97v5.35c0,.7,.31,.97,.8,.97s.8-.27,.8-.97Z"/>
      <path class="cls-2" d="M281.71,51.13v-.56h1.46v.67c0,.7,.31,.95,.8,.95s.8-.25,.8-.98c0-.81-.31-1.33-1.32-2.21-1.29-1.13-1.71-1.93-1.71-3.05,0-1.54,.8-2.44,2.3-2.44s2.24,.9,2.24,2.47v.41h-1.46v-.5c0-.7-.28-.97-.77-.97s-.77,.27-.77,.94c0,.71,.32,1.23,1.33,2.11,1.29,1.13,1.7,1.92,1.7,3.14,0,1.6-.81,2.49-2.33,2.49s-2.27-.9-2.27-2.47Z"/>
      <path class="cls-2" d="M287.46,43.65h4.2v1.4h-2.66v2.59h2.12v1.4h-2.12v3.01h2.66v1.4h-4.2v-9.81Z"/>
      <path class="cls-2" d="M295.23,51.13v-5.15c0-1.57,.78-2.47,2.3-2.47s2.3,.9,2.3,2.47v.84h-1.46v-.94c0-.7-.31-.97-.8-.97s-.8,.27-.8,.97v5.36c0,.7,.31,.95,.8,.95s.8-.25,.8-.95v-1.92h-.77v-1.4h2.23v3.21c0,1.57-.78,2.47-2.3,2.47s-2.3-.9-2.3-2.47Z"/>
      <path class="cls-2" d="M302.29,43.65h2.09l1.6,9.81h-1.54l-.28-1.95v.03h-1.75l-.28,1.92h-1.43l1.6-9.81Zm1.68,6.56l-.69-4.85h-.03l-.67,4.85h1.39Z"/>
      <path class="cls-2" d="M306.99,43.65h2.27c1.54,0,2.3,.85,2.3,2.42v.97c0,1.57-.76,2.42-2.3,2.42h-.73v3.99h-1.54v-9.81Zm2.27,4.41c.49,0,.76-.22,.76-.92v-1.16c0-.7-.27-.92-.76-.92h-.73v3.01h.73Z"/>
      <path class="cls-2" d="M312.47,51.13v-.56h1.46v.67c0,.7,.31,.95,.8,.95s.8-.25,.8-.98c0-.81-.31-1.33-1.32-2.21-1.29-1.13-1.71-1.93-1.71-3.05,0-1.54,.8-2.44,2.3-2.44s2.24,.9,2.24,2.47v.41h-1.46v-.5c0-.7-.28-.97-.77-.97s-.77,.27-.77,.94c0,.71,.32,1.23,1.33,2.11,1.29,1.13,1.7,1.92,1.7,3.14,0,1.6-.81,2.49-2.33,2.49s-2.27-.9-2.27-2.47Z"/>
      <path class="cls-2" d="M186.61,59.65h1.54v9.81h-1.54v-9.81Z"/>
      <path class="cls-2" d="M189.57,59.65h1.93l1.5,5.87h.03v-5.87h1.37v9.81h-1.58l-1.85-7.16h-.03v7.16h-1.37v-9.81Z"/>
      <path class="cls-2" d="M198.35,59.65h1.54v8.4h2.54v1.4h-4.08v-9.81Z"/>
      <path class="cls-2" d="M203.45,59.65h4.2v1.4h-2.66v2.59h2.12v1.4h-2.12v3.01h2.66v1.4h-4.2v-9.81Z"/>
      <path class="cls-2" d="M208.7,67.13v-5.15c0-1.57,.78-2.47,2.3-2.47s2.3,.9,2.3,2.47v.84h-1.46v-.94c0-.7-.31-.97-.8-.97s-.8,.27-.8,.97v5.36c0,.7,.31,.95,.8,.95s.8-.25,.8-.95v-1.92h-.77v-1.4h2.23v3.21c0,1.57-.78,2.47-2.3,2.47s-2.3-.9-2.3-2.47Z"/>
      <path class="cls-2" d="M215.76,59.65h2.09l1.6,9.81h-1.54l-.28-1.95v.03h-1.75l-.28,1.92h-1.43l1.6-9.81Zm1.68,6.56l-.69-4.85h-.03l-.67,4.85h1.39Z"/>
      <path class="cls-2" d="M220.46,59.65h1.54v8.4h2.54v1.4h-4.08v-9.81Z"/>
      <path class="cls-2" d="M228.07,59.65h2.27c1.54,0,2.3,.85,2.3,2.42v.97c0,1.57-.76,2.42-2.3,2.42h-.73v3.99h-1.54v-9.81Zm2.27,4.41c.49,0,.76-.22,.76-.92v-1.16c0-.7-.27-.92-.76-.92h-.73v3.01h.73Z"/>
      <path class="cls-2" d="M233.76,59.65h2.28c1.6,0,2.28,.74,2.28,2.25v.6c0,1.01-.32,1.65-1.01,1.93v.03c.77,.24,1.02,.97,1.02,2.07v1.72c0,.48,.01,.83,.17,1.19h-1.57c-.08-.25-.14-.41-.14-1.2v-1.79c0-.91-.27-1.2-.97-1.2h-.53v4.2h-1.54v-9.81Zm2.1,4.2c.57,0,.92-.25,.92-1.04v-.76c0-.7-.24-1.01-.78-1.01h-.7v2.8h.56Z"/>
      <path class="cls-2" d="M239.57,67.13v-5.15c0-1.57,.83-2.47,2.34-2.47s2.34,.9,2.34,2.47v5.15c0,1.57-.83,2.47-2.34,2.47s-2.34-.9-2.34-2.47Zm3.14,.1v-5.35c0-.7-.31-.97-.8-.97s-.8,.27-.8,.97v5.35c0,.7,.31,.97,.8,.97s.8-.27,.8-.97Z"/>
      <path class="cls-2" d="M246.71,61.05h-1.61v-1.4h4.76v1.4h-1.61v8.4h-1.54v-8.4Z"/>
      <path class="cls-2" d="M250.88,59.65h4.2v1.4h-2.66v2.59h2.12v1.4h-2.12v3.01h2.66v1.4h-4.2v-9.81Z"/>
      <path class="cls-2" d="M256.14,67.19v-5.27c0-1.51,.78-2.41,2.27-2.41s2.27,.9,2.27,2.41v1.04h-1.46v-1.13c0-.64-.31-.91-.77-.91s-.77,.27-.77,.91v5.48c0,.64,.31,.9,.77,.9s.77-.25,.77-.9v-1.5h1.46v1.39c0,1.51-.78,2.41-2.27,2.41s-2.27-.9-2.27-2.41Z"/>
      <path class="cls-2" d="M263.09,61.05h-1.61v-1.4h4.76v1.4h-1.61v8.4h-1.54v-8.4Z"/>
      <path class="cls-2" d="M267.26,59.65h1.54v9.81h-1.54v-9.81Z"/>
      <path class="cls-2" d="M270.12,67.13v-5.15c0-1.57,.83-2.47,2.34-2.47s2.34,.9,2.34,2.47v5.15c0,1.57-.83,2.47-2.34,2.47s-2.34-.9-2.34-2.47Zm3.14,.1v-5.35c0-.7-.31-.97-.8-.97s-.8,.27-.8,.97v5.35c0,.7,.31,.97,.8,.97s.8-.27,.8-.97Z"/>
      <path class="cls-2" d="M276.11,59.65h1.93l1.5,5.87h.03v-5.87h1.37v9.81h-1.58l-1.85-7.16h-.03v7.16h-1.37v-9.81Z"/>
      <path class="cls-2" d="M286.08,59.65h2.09l1.6,9.81h-1.54l-.28-1.95v.03h-1.75l-.28,1.92h-1.43l1.6-9.81Zm1.68,6.56l-.69-4.85h-.03l-.67,4.85h1.39Z"/>
      <path class="cls-2" d="M290.78,59.65h1.93l1.5,5.87h.03v-5.87h1.37v9.81h-1.58l-1.85-7.16h-.03v7.16h-1.37v-9.81Z"/>
      <path class="cls-2" d="M297.04,59.65h2.35c1.54,0,2.3,.85,2.3,2.42v4.96c0,1.57-.76,2.42-2.3,2.42h-2.35v-9.81Zm2.33,8.4c.49,0,.78-.25,.78-.95v-5.1c0-.7-.29-.95-.78-.95h-.78v7h.78Z"/>
      <path class="cls-2" d="M186.61,75.65h2.28c1.6,0,2.28,.74,2.28,2.25v.6c0,1.01-.32,1.65-1.01,1.93v.03c.77,.24,1.02,.97,1.02,2.07v1.72c0,.48,.01,.83,.17,1.19h-1.57c-.08-.25-.14-.41-.14-1.2v-1.79c0-.91-.27-1.2-.97-1.2h-.53v4.2h-1.54v-9.81Zm2.1,4.2c.57,0,.92-.25,.92-1.04v-.76c0-.7-.24-1.01-.78-1.01h-.7v2.8h.56Z"/>
      <path class="cls-2" d="M192.53,75.65h4.2v1.4h-2.66v2.59h2.12v1.4h-2.12v3.01h2.66v1.4h-4.2v-9.81Z"/>
      <path class="cls-2" d="M197.89,75.65h2.2l.98,7.02h.03l.98-7.02h2.2v9.81h-1.46v-7.42h-.03l-1.12,7.42h-1.29l-1.12-7.42h-.03v7.42h-1.34v-9.81Z"/>
      <path class="cls-2" d="M205.59,83.13v-5.15c0-1.57,.83-2.47,2.34-2.47s2.34,.9,2.34,2.47v5.15c0,1.57-.83,2.47-2.34,2.47s-2.34-.9-2.34-2.47Zm3.14,.1v-5.35c0-.7-.31-.97-.8-.97s-.8,.27-.8,.97v5.35c0,.7,.31,.97,.8,.97s.8-.27,.8-.97Z"/>
      <path class="cls-2" d="M211.15,75.65h1.56l1.01,7.61h.03l1.01-7.61h1.41l-1.48,9.81h-2.05l-1.48-9.81Z"/>
      <path class="cls-2" d="M217.18,75.65h4.2v1.4h-2.66v2.59h2.12v1.4h-2.12v3.01h2.66v1.4h-4.2v-9.81Z"/>
      <path class="cls-2" d="M225.06,75.65h2.35c1.54,0,2.3,.85,2.3,2.42v4.96c0,1.57-.76,2.42-2.3,2.42h-2.35v-9.81Zm2.33,8.4c.49,0,.78-.25,.78-.95v-5.1c0-.7-.29-.95-.78-.95h-.78v7h.78Z"/>
      <path class="cls-2" d="M231.03,75.65h1.54v9.81h-1.54v-9.81Z"/>
      <path class="cls-2" d="M233.73,83.13v-.56h1.46v.67c0,.7,.31,.95,.8,.95s.8-.25,.8-.98c0-.81-.31-1.33-1.32-2.21-1.29-1.13-1.71-1.93-1.71-3.05,0-1.54,.8-2.44,2.3-2.44s2.24,.9,2.24,2.47v.41h-1.46v-.5c0-.7-.28-.97-.77-.97s-.77,.27-.77,.94c0,.71,.32,1.23,1.33,2.11,1.29,1.13,1.7,1.92,1.7,3.14,0,1.6-.81,2.49-2.33,2.49s-2.27-.9-2.27-2.47Z"/>
      <path class="cls-2" d="M239.39,83.19v-5.27c0-1.51,.78-2.41,2.27-2.41s2.27,.9,2.27,2.41v1.04h-1.46v-1.13c0-.64-.31-.91-.77-.91s-.77,.27-.77,.91v5.48c0,.64,.31,.9,.77,.9s.77-.25,.77-.9v-1.5h1.46v1.39c0,1.51-.78,2.41-2.27,2.41s-2.27-.9-2.27-2.41Z"/>
      <path class="cls-2" d="M245.13,75.65h2.28c1.6,0,2.28,.74,2.28,2.25v.6c0,1.01-.32,1.65-1.01,1.93v.03c.77,.24,1.02,.97,1.02,2.07v1.72c0,.48,.01,.83,.17,1.19h-1.57c-.08-.25-.14-.41-.14-1.2v-1.79c0-.91-.27-1.2-.97-1.2h-.53v4.2h-1.54v-9.81Zm2.1,4.2c.57,0,.92-.25,.92-1.04v-.76c0-.7-.24-1.01-.78-1.01h-.7v2.8h.56Z"/>
      <path class="cls-2" d="M251.05,75.65h1.54v9.81h-1.54v-9.81Z"/>
      <path class="cls-2" d="M254.02,75.65h2.2l.98,7.02h.03l.98-7.02h2.2v9.81h-1.46v-7.42h-.03l-1.12,7.42h-1.29l-1.12-7.42h-.03v7.42h-1.34v-9.81Z"/>
      <path class="cls-2" d="M261.83,75.65h1.54v9.81h-1.54v-9.81Z"/>
      <path class="cls-2" d="M264.8,75.65h1.93l1.5,5.87h.03v-5.87h1.37v9.81h-1.58l-1.85-7.16h-.03v7.16h-1.37v-9.81Z"/>
      <path class="cls-2" d="M272.25,75.65h2.09l1.6,9.81h-1.54l-.28-1.95v.03h-1.75l-.28,1.92h-1.43l1.6-9.81Zm1.68,6.56l-.69-4.85h-.03l-.67,4.85h1.39Z"/>
      <path class="cls-2" d="M277.51,77.05h-1.61v-1.4h4.76v1.4h-1.61v8.4h-1.54v-8.4Z"/>
      <path class="cls-2" d="M281.51,83.13v-5.15c0-1.57,.83-2.47,2.34-2.47s2.34,.9,2.34,2.47v5.15c0,1.57-.83,2.47-2.34,2.47s-2.34-.9-2.34-2.47Zm3.14,.1v-5.35c0-.7-.31-.97-.8-.97s-.8,.27-.8,.97v5.35c0,.7,.31,.97,.8,.97s.8-.27,.8-.97Z"/>
      <path class="cls-2" d="M287.5,75.65h2.28c1.6,0,2.28,.74,2.28,2.25v.6c0,1.01-.32,1.65-1.01,1.93v.03c.77,.24,1.02,.97,1.02,2.07v1.72c0,.48,.01,.83,.17,1.19h-1.57c-.08-.25-.14-.41-.14-1.2v-1.79c0-.91-.27-1.2-.97-1.2h-.53v4.2h-1.54v-9.81Zm2.1,4.2c.57,0,.92-.25,.92-1.04v-.76c0-.7-.24-1.01-.78-1.01h-.7v2.8h.56Z"/>
      <path class="cls-2" d="M294.62,81.28l-1.86-5.63h1.64l1.05,3.6h.03l1.05-3.6h1.5l-1.86,5.63v4.17h-1.54v-4.17Z"/>
      <path class="cls-2" d="M301.52,75.65h1.54v8.4h2.54v1.4h-4.08v-9.81Z"/>
      <path class="cls-2" d="M307.86,75.65h2.09l1.6,9.81h-1.54l-.28-1.95v.03h-1.75l-.28,1.92h-1.43l1.6-9.81Zm1.68,6.56l-.69-4.85h-.03l-.67,4.85h1.39Z"/>
      <path class="cls-2" d="M312,75.65h1.48l.69,7.54h.03l.73-7.54h1.68l.73,7.54h.03l.69-7.54h1.33l-.99,9.81h-1.92l-.7-6.61h-.03l-.7,6.61h-2.05l-.99-9.81Z"/>
      <path class="cls-2" d="M320.18,83.13v-.56h1.46v.67c0,.7,.31,.95,.8,.95s.8-.25,.8-.98c0-.81-.31-1.33-1.32-2.21-1.29-1.13-1.71-1.93-1.71-3.05,0-1.54,.8-2.44,2.3-2.44s2.24,.9,2.24,2.47v.41h-1.46v-.5c0-.7-.28-.97-.77-.97s-.77,.27-.77,.94c0,.71,.32,1.23,1.33,2.11,1.29,1.13,1.7,1.92,1.7,3.14,0,1.6-.81,2.49-2.33,2.49s-2.27-.9-2.27-2.47Z"/>
    </g>
    <g>
      <path class="cls-7" d="M391.63,43.31h-2.19v-1.48c1.77,0,2.39-.38,2.87-1.67h1.41v13.3h-2.09v-10.14Z"/>
      <path class="cls-7" d="M399.8,51.04h-3.99v-1.9l3.8-8.99h2.28v8.99h.99v1.9h-.99v2.41h-2.09v-2.41Zm0-1.9v-5.19h-.04l-2.05,5.19h2.09Z"/>
      <path class="cls-7" d="M403.75,50.3v-6.99c0-2.13,1.12-3.34,3.17-3.34s3.17,1.22,3.17,3.34v6.99c0,2.13-1.12,3.34-3.17,3.34s-3.17-1.22-3.17-3.34Zm4.26,.13v-7.26c0-.95-.42-1.31-1.08-1.31s-1.08,.36-1.08,1.31v7.26c0,.95,.42,1.31,1.08,1.31s1.08-.36,1.08-1.31Z"/>
      <path class="cls-7" d="M416.46,47.79l-2.53-7.64h2.22l1.42,4.88h.04l1.42-4.88h2.03l-2.53,7.64v5.66h-2.09v-5.66Z"/>
      <path class="cls-7" d="M422.03,40.16h5.7v1.9h-3.61v3.51h2.87v1.9h-2.87v4.08h3.61v1.9h-5.7v-13.3Z"/>
      <path class="cls-7" d="M430.54,40.16h2.83l2.17,13.3h-2.09l-.38-2.64v.04h-2.38l-.38,2.6h-1.94l2.17-13.3Zm2.28,8.89l-.93-6.57h-.04l-.91,6.57h1.88Z"/>
      <path class="cls-7" d="M436.55,40.16h3.1c2.17,0,3.1,1.01,3.1,3.06v.82c0,1.37-.44,2.24-1.37,2.62v.04c1.04,.32,1.39,1.31,1.39,2.81v2.34c0,.65,.02,1.12,.23,1.61h-2.13c-.11-.34-.19-.55-.19-1.63v-2.43c0-1.23-.36-1.63-1.31-1.63h-.72v5.7h-2.09v-13.3Zm2.85,5.7c.78,0,1.25-.34,1.25-1.41v-1.03c0-.95-.32-1.37-1.06-1.37h-.95v3.8h.76Z"/>
      <path class="cls-7" d="M443.84,50.3v-.76h1.98v.91c0,.95,.42,1.29,1.08,1.29s1.08-.34,1.08-1.33c0-1.1-.42-1.8-1.79-3-1.75-1.54-2.32-2.62-2.32-4.14,0-2.09,1.08-3.31,3.12-3.31s3.04,1.22,3.04,3.34v.55h-1.98v-.68c0-.95-.38-1.31-1.04-1.31s-1.04,.36-1.04,1.27c0,.97,.44,1.67,1.81,2.87,1.75,1.54,2.3,2.6,2.3,4.26,0,2.17-1.1,3.38-3.15,3.38s-3.08-1.22-3.08-3.34Z"/>
      <path class="cls-2" d="M454.79,45.05h-1.61v-1.4h4.76v1.4h-1.61v8.4h-1.54v-8.4Z"/>
      <path class="cls-2" d="M458.79,51.13v-5.15c0-1.57,.83-2.47,2.34-2.47s2.34,.9,2.34,2.47v5.15c0,1.57-.83,2.47-2.34,2.47s-2.34-.9-2.34-2.47Zm3.14,.1v-5.35c0-.7-.31-.97-.8-.97s-.8,.27-.8,.97v5.35c0,.7,.31,.97,.8,.97s.8-.27,.8-.97Z"/>
      <path class="cls-2" d="M468.5,43.65h2.09l1.6,9.81h-1.54l-.28-1.95v.03h-1.75l-.28,1.92h-1.43l1.6-9.81Zm1.68,6.56l-.69-4.85h-.03l-.67,4.85h1.39Z"/>
      <path class="cls-2" d="M473.07,51.19v-5.27c0-1.51,.78-2.41,2.27-2.41s2.27,.9,2.27,2.41v1.04h-1.46v-1.13c0-.64-.31-.91-.77-.91s-.77,.27-.77,.91v5.48c0,.64,.31,.9,.77,.9s.77-.25,.77-.9v-1.5h1.46v1.39c0,1.51-.78,2.41-2.27,2.41s-2.27-.9-2.27-2.41Z"/>
      <path class="cls-2" d="M478.81,43.65h1.54v3.99h1.65v-3.99h1.54v9.81h-1.54v-4.41h-1.65v4.41h-1.54v-9.81Z"/>
      <path class="cls-2" d="M484.97,43.65h1.54v9.81h-1.54v-9.81Z"/>
      <path class="cls-2" d="M487.94,43.65h4.2v1.4h-2.66v2.59h2.12v1.4h-2.12v3.01h2.66v1.4h-4.2v-9.81Z"/>
      <path class="cls-2" d="M492.9,43.65h1.56l1.01,7.61h.03l1.01-7.61h1.41l-1.48,9.81h-2.05l-1.48-9.81Z"/>
      <path class="cls-2" d="M498.93,43.65h4.2v1.4h-2.66v2.59h2.12v1.4h-2.12v3.01h2.66v1.4h-4.2v-9.81Z"/>
      <path class="cls-2" d="M388.5,59.65h4.2v1.4h-2.66v2.59h2.12v1.4h-2.12v3.01h2.66v1.4h-4.2v-9.81Z"/>
      <path class="cls-2" d="M397.11,69.43c-.29,.11-.64,.17-1.02,.17-1.51,0-2.34-.9-2.34-2.47v-5.15c0-1.57,.83-2.47,2.34-2.47s2.34,.9,2.34,2.47v5.15c0,.67-.15,1.2-.43,1.61,.11,.2,.29,.22,.57,.22h.24v1.4h-.41c-.57,0-1.11-.21-1.29-.94Zm-.22-2.2v-5.35c0-.7-.31-.97-.8-.97s-.8,.27-.8,.97v5.35c0,.7,.31,.97,.8,.97s.8-.27,.8-.97Z"/>
      <path class="cls-2" d="M399.69,67.13v-7.48h1.54v7.59c0,.7,.29,.95,.78,.95s.78-.25,.78-.95v-7.59h1.48v7.48c0,1.57-.78,2.47-2.3,2.47s-2.3-.9-2.3-2.47Z"/>
      <path class="cls-2" d="M406.81,59.65h2.09l1.6,9.81h-1.54l-.28-1.95v.03h-1.75l-.28,1.92h-1.43l1.6-9.81Zm1.68,6.56l-.69-4.85h-.03l-.67,4.85h1.39Z"/>
      <path class="cls-2" d="M411.52,59.65h1.54v8.4h2.54v1.4h-4.08v-9.81Z"/>
      <path class="cls-2" d="M419.13,59.65h2.28c1.6,0,2.28,.74,2.28,2.25v.6c0,1.01-.32,1.65-1.01,1.93v.03c.77,.24,1.02,.97,1.02,2.07v1.72c0,.48,.01,.83,.17,1.19h-1.57c-.08-.25-.14-.41-.14-1.2v-1.79c0-.91-.27-1.2-.97-1.2h-.53v4.2h-1.54v-9.81Zm2.1,4.2c.57,0,.92-.25,.92-1.04v-.76c0-.7-.24-1.01-.78-1.01h-.7v2.8h.56Z"/>
      <path class="cls-2" d="M425.05,59.65h4.2v1.4h-2.66v2.59h2.12v1.4h-2.12v3.01h2.66v1.4h-4.2v-9.81Z"/>
      <path class="cls-2" d="M430.42,59.65h2.27c1.54,0,2.3,.85,2.3,2.42v.97c0,1.57-.76,2.42-2.3,2.42h-.73v3.99h-1.54v-9.81Zm2.27,4.41c.49,0,.76-.22,.76-.92v-1.16c0-.7-.27-.92-.76-.92h-.73v3.01h.73Z"/>
      <path class="cls-2" d="M436.1,59.65h2.28c1.6,0,2.28,.74,2.28,2.25v.6c0,1.01-.32,1.65-1.01,1.93v.03c.77,.24,1.02,.97,1.02,2.07v1.72c0,.48,.01,.83,.17,1.19h-1.57c-.08-.25-.14-.41-.14-1.2v-1.79c0-.91-.27-1.2-.97-1.2h-.53v4.2h-1.54v-9.81Zm2.1,4.2c.57,0,.92-.25,.92-1.04v-.76c0-.7-.24-1.01-.78-1.01h-.7v2.8h.56Z"/>
      <path class="cls-2" d="M442.02,59.65h4.2v1.4h-2.66v2.59h2.12v1.4h-2.12v3.01h2.66v1.4h-4.2v-9.81Z"/>
      <path class="cls-2" d="M447.15,67.13v-.56h1.46v.67c0,.7,.31,.95,.8,.95s.8-.25,.8-.98c0-.81-.31-1.33-1.32-2.21-1.29-1.13-1.71-1.93-1.71-3.05,0-1.54,.8-2.44,2.3-2.44s2.24,.9,2.24,2.47v.41h-1.46v-.5c0-.7-.28-.97-.77-.97s-.77,.27-.77,.94c0,.71,.32,1.23,1.33,2.11,1.29,1.13,1.7,1.92,1.7,3.14,0,1.6-.81,2.49-2.33,2.49s-2.27-.9-2.27-2.47Z"/>
      <path class="cls-2" d="M452.9,59.65h4.2v1.4h-2.66v2.59h2.12v1.4h-2.12v3.01h2.66v1.4h-4.2v-9.81Z"/>
      <path class="cls-2" d="M458.26,59.65h1.93l1.5,5.87h.03v-5.87h1.37v9.81h-1.58l-1.85-7.16h-.03v7.16h-1.37v-9.81Z"/>
      <path class="cls-2" d="M465.72,61.05h-1.61v-1.4h4.76v1.4h-1.61v8.4h-1.54v-8.4Z"/>
      <path class="cls-2" d="M470.44,59.65h2.09l1.6,9.81h-1.54l-.28-1.95v.03h-1.75l-.28,1.92h-1.43l1.6-9.81Zm1.68,6.56l-.69-4.85h-.03l-.67,4.85h1.39Z"/>
      <path class="cls-2" d="M475.71,61.05h-1.61v-1.4h4.76v1.4h-1.61v8.4h-1.54v-8.4Z"/>
      <path class="cls-2" d="M479.88,59.65h1.54v9.81h-1.54v-9.81Z"/>
      <path class="cls-2" d="M482.73,67.13v-5.15c0-1.57,.83-2.47,2.34-2.47s2.34,.9,2.34,2.47v5.15c0,1.57-.83,2.47-2.34,2.47s-2.34-.9-2.34-2.47Zm3.14,.1v-5.35c0-.7-.31-.97-.8-.97s-.8,.27-.8,.97v5.35c0,.7,.31,.97,.8,.97s.8-.27,.8-.97Z"/>
      <path class="cls-2" d="M488.73,59.65h1.93l1.5,5.87h.03v-5.87h1.37v9.81h-1.58l-1.85-7.16h-.03v7.16h-1.37v-9.81Z"/>
      <path class="cls-2" d="M497.5,59.65h1.54v9.81h-1.54v-9.81Z"/>
      <path class="cls-2" d="M500.47,59.65h1.93l1.5,5.87h.03v-5.87h1.37v9.81h-1.58l-1.85-7.16h-.03v7.16h-1.37v-9.81Z"/>
      <path class="cls-2" d="M388.5,75.65h1.54v8.4h2.54v1.4h-4.08v-9.81Z"/>
      <path class="cls-2" d="M393.6,75.65h4.2v1.4h-2.66v2.59h2.12v1.4h-2.12v3.01h2.66v1.4h-4.2v-9.81Z"/>
      <path class="cls-2" d="M400.15,75.65h2.09l1.6,9.81h-1.54l-.28-1.95v.03h-1.75l-.28,1.92h-1.43l1.6-9.81Zm1.68,6.56l-.69-4.85h-.03l-.67,4.85h1.39Z"/>
      <path class="cls-2" d="M404.85,75.65h2.35c1.54,0,2.3,.85,2.3,2.42v4.96c0,1.57-.76,2.42-2.3,2.42h-2.35v-9.81Zm2.33,8.4c.49,0,.78-.25,.78-.95v-5.1c0-.7-.29-.95-.78-.95h-.78v7h.78Z"/>
      <path class="cls-2" d="M410.82,75.65h4.2v1.4h-2.66v2.59h2.12v1.4h-2.12v3.01h2.66v1.4h-4.2v-9.81Z"/>
      <path class="cls-2" d="M416.18,75.65h2.28c1.6,0,2.28,.74,2.28,2.25v.6c0,1.01-.32,1.65-1.01,1.93v.03c.77,.24,1.02,.97,1.02,2.07v1.72c0,.48,.01,.83,.17,1.19h-1.57c-.08-.25-.14-.41-.14-1.2v-1.79c0-.91-.27-1.2-.97-1.2h-.53v4.2h-1.54v-9.81Zm2.1,4.2c.57,0,.92-.25,.92-1.04v-.76c0-.7-.24-1.01-.78-1.01h-.7v2.8h.56Z"/>
      <path class="cls-2" d="M421.83,83.13v-.56h1.46v.67c0,.7,.31,.95,.8,.95s.8-.25,.8-.98c0-.81-.31-1.33-1.32-2.21-1.29-1.13-1.71-1.93-1.71-3.05,0-1.54,.8-2.44,2.3-2.44s2.24,.9,2.24,2.47v.41h-1.46v-.5c0-.7-.28-.97-.77-.97s-.77,.27-.77,.94c0,.71,.32,1.23,1.33,2.11,1.29,1.13,1.7,1.92,1.7,3.14,0,1.6-.81,2.49-2.33,2.49s-2.27-.9-2.27-2.47Z"/>
      <path class="cls-2" d="M427.59,75.65h1.54v3.99h1.65v-3.99h1.54v9.81h-1.54v-4.41h-1.65v4.41h-1.54v-9.81Z"/>
      <path class="cls-2" d="M433.75,75.65h1.54v9.81h-1.54v-9.81Z"/>
      <path class="cls-2" d="M436.72,75.65h2.27c1.54,0,2.3,.85,2.3,2.42v.97c0,1.57-.76,2.42-2.3,2.42h-.73v3.99h-1.54v-9.81Zm2.27,4.41c.49,0,.76-.22,.76-.92v-1.16c0-.7-.27-.92-.76-.92h-.73v3.01h.73Z"/>
      <path class="cls-2" d="M444.92,75.65h1.54v9.81h-1.54v-9.81Z"/>
      <path class="cls-2" d="M447.89,75.65h1.93l1.5,5.87h.03v-5.87h1.37v9.81h-1.58l-1.85-7.16h-.03v7.16h-1.37v-9.81Z"/>
      <path class="cls-2" d="M457.87,77.05h-1.61v-1.4h4.76v1.4h-1.61v8.4h-1.54v-8.4Z"/>
      <path class="cls-2" d="M462.04,75.65h1.54v3.99h1.65v-3.99h1.54v9.81h-1.54v-4.41h-1.65v4.41h-1.54v-9.81Z"/>
      <path class="cls-2" d="M468.2,75.65h4.2v1.4h-2.66v2.59h2.12v1.4h-2.12v3.01h2.66v1.4h-4.2v-9.81Z"/>
      <path class="cls-2" d="M475.72,75.65h1.48l.69,7.54h.03l.73-7.54h1.68l.73,7.54h.03l.69-7.54h1.33l-.99,9.81h-1.92l-.7-6.61h-.03l-.7,6.61h-2.04l-.99-9.81Z"/>
      <path class="cls-2" d="M484.05,83.13v-5.15c0-1.57,.83-2.47,2.34-2.47s2.34,.9,2.34,2.47v5.15c0,1.57-.83,2.47-2.34,2.47s-2.34-.9-2.34-2.47Zm3.14,.1v-5.35c0-.7-.31-.97-.8-.97s-.8,.27-.8,.97v5.35c0,.7,.31,.97,.8,.97s.8-.27,.8-.97Z"/>
      <path class="cls-2" d="M490.04,75.65h2.28c1.6,0,2.28,.74,2.28,2.25v.6c0,1.01-.32,1.65-1.01,1.93v.03c.77,.24,1.02,.97,1.02,2.07v1.72c0,.48,.01,.83,.17,1.19h-1.57c-.08-.25-.14-.41-.14-1.2v-1.79c0-.91-.27-1.2-.97-1.2h-.53v4.2h-1.54v-9.81Zm2.1,4.2c.57,0,.92-.25,.92-1.04v-.76c0-.7-.24-1.01-.78-1.01h-.7v2.8h.56Z"/>
      <path class="cls-2" d="M495.96,75.65h1.54v4.13l1.96-4.13h1.54l-1.83,3.6,1.86,6.21h-1.61l-1.3-4.37-.62,1.25v3.12h-1.54v-9.81Z"/>
      <path class="cls-2" d="M502.04,75.65h2.27c1.54,0,2.3,.85,2.3,2.42v.97c0,1.57-.76,2.42-2.3,2.42h-.73v3.99h-1.54v-9.81Zm2.27,4.41c.49,0,.76-.22,.76-.92v-1.16c0-.7-.27-.92-.76-.92h-.73v3.01h.73Z"/>
      <path class="cls-2" d="M507.72,75.65h1.54v8.4h2.54v1.4h-4.08v-9.81Z"/>
      <path class="cls-2" d="M514.07,75.65h2.09l1.6,9.81h-1.54l-.28-1.95v.03h-1.75l-.28,1.92h-1.43l1.6-9.81Zm1.68,6.56l-.69-4.85h-.03l-.67,4.85h1.39Z"/>
      <path class="cls-2" d="M518.64,83.19v-5.27c0-1.51,.78-2.41,2.27-2.41s2.27,.9,2.27,2.41v1.04h-1.46v-1.13c0-.64-.31-.91-.77-.91s-.77,.27-.77,.91v5.48c0,.64,.31,.9,.77,.9s.77-.25,.77-.9v-1.5h1.46v1.39c0,1.51-.78,2.41-2.27,2.41s-2.27-.9-2.27-2.41Z"/>
      <path class="cls-2" d="M524.38,75.65h4.2v1.4h-2.66v2.59h2.12v1.4h-2.12v3.01h2.66v1.4h-4.2v-9.81Z"/>
    </g>
    <g>
      <g>
        <path class="cls-7" d="M169.13,.16h2.39l1.82,11.2h-1.76l-.32-2.22v.03h-2l-.32,2.19h-1.63l1.82-11.2Zm1.92,7.49l-.78-5.54h-.03l-.77,5.54h1.58Z"/>
        <path class="cls-7" d="M175.15,1.76h-1.84V.16h5.44V1.76h-1.84V11.36h-1.76V1.76Z"/>
        <path class="cls-7" d="M184.17,1.76h-1.84V.16h5.44V1.76h-1.84V11.36h-1.76V1.76Z"/>
        <path class="cls-7" d="M188.94,.16h1.76V4.72h1.89V.16h1.76V11.36h-1.76V6.32h-1.89v5.04h-1.76V.16Z"/>
        <path class="cls-7" d="M195.98,.16h4.8V1.76h-3.04v2.96h2.42v1.6h-2.42v3.44h3.04v1.6h-4.8V.16Z"/>
        <path class="cls-7" d="M204.87,8.77V2.75c0-1.73,.9-2.75,2.59-2.75s2.59,1.02,2.59,2.75v1.18h-1.67v-1.3c0-.74-.35-1.04-.88-1.04s-.88,.3-.88,1.04v6.26c0,.74,.35,1.02,.88,1.02s.88-.29,.88-1.02v-1.71h1.67v1.58c0,1.73-.9,2.75-2.59,2.75s-2.59-1.02-2.59-2.75Z"/>
        <path class="cls-7" d="M211.37,8.71V.16h1.76V8.84c0,.8,.34,1.09,.9,1.09s.9-.29,.9-1.09V.16h1.7V8.71c0,1.79-.9,2.82-2.62,2.82s-2.62-1.02-2.62-2.82Z"/>
        <path class="cls-7" d="M218.19,.16h2.61c1.82,0,2.61,.85,2.61,2.58v.69c0,1.15-.37,1.89-1.15,2.21v.03c.88,.27,1.17,1.1,1.17,2.37v1.97c0,.54,.02,.94,.19,1.36h-1.79c-.1-.29-.16-.46-.16-1.38v-2.05c0-1.04-.3-1.38-1.1-1.38h-.61v4.8h-1.76V.16Zm2.4,4.8c.66,0,1.06-.29,1.06-1.18v-.86c0-.8-.27-1.15-.9-1.15h-.8v3.2h.64Z"/>
        <path class="cls-7" d="M224.95,.16h2.61c1.82,0,2.61,.85,2.61,2.58v.69c0,1.15-.37,1.89-1.15,2.21v.03c.88,.27,1.17,1.1,1.17,2.37v1.97c0,.54,.02,.94,.19,1.36h-1.79c-.1-.29-.16-.46-.16-1.38v-2.05c0-1.04-.3-1.38-1.1-1.38h-.61v4.8h-1.76V.16Zm2.4,4.8c.66,0,1.06-.29,1.06-1.18v-.86c0-.8-.27-1.15-.9-1.15h-.8v3.2h.64Z"/>
        <path class="cls-7" d="M231.72,.16h4.8V1.76h-3.04v2.96h2.42v1.6h-2.42v3.44h3.04v1.6h-4.8V.16Z"/>
        <path class="cls-7" d="M237.85,.16h2.21l1.71,6.71h.03V.16h1.57V11.36h-1.81l-2.11-8.18h-.03V11.36h-1.57V.16Z"/>
        <path class="cls-7" d="M246.38,1.76h-1.84V.16h5.44V1.76h-1.84V11.36h-1.76V1.76Z"/>
        <path class="cls-7" d="M254.03,.16h2.61c1.82,0,2.61,.85,2.61,2.58v.69c0,1.15-.37,1.89-1.15,2.21v.03c.88,.27,1.17,1.1,1.17,2.37v1.97c0,.54,.02,.94,.19,1.36h-1.79c-.1-.29-.16-.46-.16-1.38v-2.05c0-1.04-.3-1.38-1.1-1.38h-.61v4.8h-1.76V.16Zm2.4,4.8c.66,0,1.06-.29,1.06-1.18v-.86c0-.8-.27-1.15-.9-1.15h-.8v3.2h.64Z"/>
        <path class="cls-7" d="M262.15,.16h2.39l1.82,11.2h-1.76l-.32-2.22v.03h-2l-.32,2.19h-1.63l1.82-11.2Zm1.92,7.49l-.78-5.54h-.03l-.77,5.54h1.58Z"/>
        <path class="cls-7" d="M268.17,1.76h-1.84V.16h5.44V1.76h-1.84V11.36h-1.76V1.76Z"/>
        <path class="cls-7" d="M272.94,.16h4.8V1.76h-3.04v2.96h2.42v1.6h-2.42v3.44h3.04v1.6h-4.8V.16Z"/>
        <path class="cls-7" d="M279.72,11.36h-.58v-1.7h1.7v1.52l-.88,2.1h-.82l.58-1.92Z"/>
        <path class="cls-7" d="M285.35,.16h1.76V11.36h-1.76V.16Z"/>
        <path class="cls-7" d="M290.12,1.76h-1.84V.16h5.44V1.76h-1.84V11.36h-1.76V1.76Z"/>
        <path class="cls-7" d="M297.35,.16h1.7l.78,8.61h.03l.83-8.61h1.92l.83,8.61h.03l.78-8.61h1.52l-1.14,11.2h-2.19l-.8-7.55h-.03l-.8,7.55h-2.34l-1.14-11.2Z"/>
        <path class="cls-7" d="M307,.16h1.76V11.36h-1.76V.16Z"/>
        <path class="cls-7" d="M310.39,.16h1.76V9.76h2.9v1.6h-4.66V.16Z"/>
        <path class="cls-7" d="M316.22,.16h1.76V9.76h2.9v1.6h-4.66V.16Z"/>
        <path class="cls-7" d="M326.3,1.76h-1.84V.16h5.44V1.76h-1.84V11.36h-1.76V1.76Z"/>
        <path class="cls-7" d="M331.69,.16h2.39l1.82,11.2h-1.76l-.32-2.22v.03h-2l-.32,2.19h-1.63l1.82-11.2Zm1.92,7.49l-.78-5.54h-.03l-.77,5.54h1.58Z"/>
        <path class="cls-7" d="M337.07,.16h1.76V4.88l2.24-4.72h1.76l-2.1,4.11,2.13,7.09h-1.84l-1.49-4.99-.7,1.42v3.57h-1.76V.16Z"/>
        <path class="cls-7" d="M344.01,.16h4.8V1.76h-3.04v2.96h2.42v1.6h-2.42v3.44h3.04v1.6h-4.8V.16Z"/>
      </g>
      <g>
        <line class="cls-8" x1="160.95" y1="6.72" x2="120.17" y2="6.72"/>
        <line class="cls-8" x1="160.95" y1="3.9" x2="120.17" y2="3.9"/>
      </g>
      <g>
        <line class="cls-8" x1="399.11" y1="6.72" x2="358.34" y2="6.72"/>
        <line class="cls-8" x1="399.11" y1="3.9" x2="358.34" y2="3.9"/>
      </g>
    </g>
  </g>
</svg>