<?xml version="1.0" encoding="UTF-8"?>
<svg id="Layer_2" data-name="Layer 2" xmlns="http://www.w3.org/2000/svg" viewBox="0 0 222.13 280.99">
  <defs>
    <style>
      .cls-1 {
        fill: #fff;
      }

      .cls-2 {
        fill: #fee9df;
      }

      .cls-3 {
        fill: #939598;
      }

      .cls-4 {
        fill: #ef412a;
      }

      .cls-5 {
        fill: #e2e3e4;
      }
    </style>
  </defs>
  <g id="Layer_2-2" data-name="Layer 2">
    <g>
      <rect class="cls-5" x="23.46" y="106.65" width="170.7" height="16.94"/>
      <g>
        <path class="cls-4" d="M27.34,110.95h1.27l.59,6.45h.02l.62-6.45h1.44l.62,6.45h.02l.59-6.45h1.14l-.85,8.4h-1.64l-.6-5.66h-.02l-.6,5.66h-1.75l-.85-8.4Z"/>
        <path class="cls-4" d="M34.48,117.35v-4.41c0-1.34,.71-2.11,2-2.11s2,.77,2,2.11v4.41c0,1.34-.71,2.11-2,2.11s-2-.77-2-2.11Zm2.69,.08v-4.58c0-.6-.26-.83-.68-.83s-.68,.23-.68,.83v4.58c0,.6,.26,.83,.68,.83s.68-.23,.68-.83Z"/>
        <path class="cls-4" d="M39.61,110.95h1.88l.84,6.01h.02l.84-6.01h1.88v8.4h-1.25v-6.36h-.02l-.96,6.36h-1.1l-.96-6.36h-.02v6.36h-1.15v-8.4Z"/>
        <path class="cls-4" d="M46.31,110.95h3.6v1.2h-2.28v2.22h1.81v1.2h-1.81v2.58h2.28v1.2h-3.6v-8.4Z"/>
        <path class="cls-4" d="M50.91,110.95h1.66l1.28,5.03h.02v-5.03h1.18v8.4h-1.35l-1.58-6.13h-.02v6.13h-1.18v-8.4Z"/>
        <path class="cls-4" d="M56.7,112.22h-.43v-1.27h1.27v1.14l-.73,1.57h-.61l.5-1.44Z"/>
        <path class="cls-4" d="M58.54,117.35v-.48h1.25v.58c0,.6,.26,.82,.68,.82s.68-.22,.68-.84c0-.7-.26-1.14-1.13-1.9-1.1-.97-1.46-1.66-1.46-2.61,0-1.32,.68-2.09,1.97-2.09s1.92,.77,1.92,2.11v.35h-1.25v-.43c0-.6-.24-.83-.66-.83s-.66,.23-.66,.8c0,.61,.28,1.06,1.14,1.81,1.1,.97,1.45,1.64,1.45,2.69,0,1.37-.7,2.14-1.99,2.14s-1.94-.77-1.94-2.11Z"/>
        <path class="cls-4" d="M65.63,110.95h1.96c1.37,0,1.95,.64,1.95,1.93v.52c0,.86-.28,1.42-.86,1.66v.02c.66,.2,.88,.83,.88,1.77v1.48c0,.41,.01,.71,.14,1.02h-1.34c-.07-.22-.12-.35-.12-1.03v-1.54c0-.78-.23-1.03-.83-1.03h-.46v3.6h-1.32v-8.4Zm1.8,3.6c.49,0,.79-.22,.79-.89v-.65c0-.6-.2-.86-.67-.86h-.6v2.4h.48Z"/>
        <path class="cls-4" d="M70.71,110.95h3.6v1.2h-2.28v2.22h1.81v1.2h-1.81v2.58h2.28v1.2h-3.6v-8.4Z"/>
        <path class="cls-4" d="M75.3,110.95h1.94c1.32,0,1.97,.73,1.97,2.08v.83c0,1.34-.65,2.08-1.97,2.08h-.62v3.42h-1.32v-8.4Zm1.94,3.78c.42,0,.65-.19,.65-.79v-1c0-.6-.23-.79-.65-.79h-.62v2.58h.62Z"/>
        <path class="cls-4" d="M80.17,110.95h1.96c1.37,0,1.95,.64,1.95,1.93v.52c0,.86-.28,1.42-.86,1.66v.02c.66,.2,.88,.83,.88,1.77v1.48c0,.41,.01,.71,.14,1.02h-1.34c-.07-.22-.12-.35-.12-1.03v-1.54c0-.78-.23-1.03-.83-1.03h-.46v3.6h-1.32v-8.4Zm1.8,3.6c.49,0,.79-.22,.79-.89v-.65c0-.6-.2-.86-.67-.86h-.6v2.4h.48Z"/>
        <path class="cls-4" d="M85.25,110.95h3.6v1.2h-2.28v2.22h1.81v1.2h-1.81v2.58h2.28v1.2h-3.6v-8.4Z"/>
        <path class="cls-4" d="M89.64,117.35v-.48h1.25v.58c0,.6,.26,.82,.68,.82s.68-.22,.68-.84c0-.7-.26-1.14-1.13-1.9-1.1-.97-1.46-1.66-1.46-2.61,0-1.32,.68-2.09,1.97-2.09s1.92,.77,1.92,2.11v.35h-1.25v-.43c0-.6-.24-.83-.66-.83s-.66,.23-.66,.8c0,.61,.28,1.06,1.14,1.81,1.1,.97,1.45,1.64,1.45,2.69,0,1.37-.7,2.14-1.99,2.14s-1.94-.77-1.94-2.11Z"/>
        <path class="cls-4" d="M94.57,110.95h3.6v1.2h-2.28v2.22h1.81v1.2h-1.81v2.58h2.28v1.2h-3.6v-8.4Z"/>
        <path class="cls-4" d="M99.17,110.95h1.66l1.28,5.03h.02v-5.03h1.18v8.4h-1.35l-1.58-6.13h-.02v6.13h-1.18v-8.4Z"/>
        <path class="cls-4" d="M105.57,112.15h-1.38v-1.2h4.08v1.2h-1.38v7.2h-1.32v-7.2Z"/>
        <path class="cls-4" d="M109.61,110.95h1.79l1.37,8.4h-1.32l-.24-1.67v.02h-1.5l-.24,1.64h-1.22l1.37-8.4Zm1.44,5.61l-.59-4.15h-.02l-.58,4.15h1.19Z"/>
        <path class="cls-4" d="M114.12,112.15h-1.38v-1.2h4.08v1.2h-1.38v7.2h-1.32v-7.2Z"/>
        <path class="cls-4" d="M117.7,110.95h1.32v8.4h-1.32v-8.4Z"/>
        <path class="cls-4" d="M120.15,117.35v-4.41c0-1.34,.71-2.11,2-2.11s2,.77,2,2.11v4.41c0,1.34-.71,2.11-2,2.11s-2-.77-2-2.11Zm2.69,.08v-4.58c0-.6-.26-.83-.68-.83s-.68,.23-.68,.83v4.58c0,.6,.26,.83,.68,.83s.68-.23,.68-.83Z"/>
        <path class="cls-4" d="M125.28,110.95h1.66l1.28,5.03h.02v-5.03h1.18v8.4h-1.35l-1.58-6.13h-.02v6.13h-1.18v-8.4Z"/>
        <path class="cls-4" d="M132.81,110.95h1.32v8.4h-1.32v-8.4Z"/>
        <path class="cls-4" d="M135.35,110.95h1.66l1.28,5.03h.02v-5.03h1.18v8.4h-1.35l-1.58-6.13h-.02v6.13h-1.18v-8.4Z"/>
        <path class="cls-4" d="M142.87,110.95h1.94c1.32,0,1.97,.73,1.97,2.08v.83c0,1.34-.65,2.08-1.97,2.08h-.62v3.42h-1.32v-8.4Zm1.94,3.78c.42,0,.65-.19,.65-.79v-1c0-.6-.23-.79-.65-.79h-.62v2.58h.62Z"/>
        <path class="cls-4" d="M148.35,110.95h1.79l1.37,8.4h-1.32l-.24-1.67v.02h-1.5l-.24,1.64h-1.22l1.37-8.4Zm1.44,5.61l-.59-4.15h-.02l-.58,4.15h1.19Z"/>
        <path class="cls-4" d="M152.38,110.95h1.96c1.37,0,1.95,.64,1.95,1.93v.52c0,.86-.28,1.42-.86,1.66v.02c.66,.2,.88,.83,.88,1.77v1.48c0,.41,.01,.71,.14,1.02h-1.34c-.07-.22-.12-.35-.12-1.03v-1.54c0-.78-.23-1.03-.83-1.03h-.46v3.6h-1.32v-8.4Zm1.8,3.6c.49,0,.79-.22,.79-.89v-.65c0-.6-.2-.86-.67-.86h-.6v2.4h.48Z"/>
        <path class="cls-4" d="M157.45,110.95h1.32v7.2h2.17v1.2h-3.49v-8.4Z"/>
        <path class="cls-4" d="M161.82,110.95h1.32v8.4h-1.32v-8.4Z"/>
        <path class="cls-4" d="M165.39,110.95h1.79l1.37,8.4h-1.32l-.24-1.67v.02h-1.5l-.24,1.64h-1.22l1.37-8.4Zm1.44,5.61l-.59-4.15h-.02l-.58,4.15h1.19Z"/>
        <path class="cls-4" d="M169.42,110.95h1.88l.84,6.01h.02l.84-6.01h1.88v8.4h-1.25v-6.36h-.02l-.96,6.36h-1.1l-.96-6.36h-.02v6.36h-1.15v-8.4Z"/>
        <path class="cls-4" d="M176.11,110.95h3.6v1.2h-2.28v2.22h1.81v1.2h-1.81v2.58h2.28v1.2h-3.6v-8.4Z"/>
        <path class="cls-4" d="M180.71,110.95h1.66l1.28,5.03h.02v-5.03h1.18v8.4h-1.35l-1.58-6.13h-.02v6.13h-1.18v-8.4Z"/>
        <path class="cls-4" d="M187.11,112.15h-1.38v-1.2h4.08v1.2h-1.38v7.2h-1.32v-7.2Z"/>
      </g>
    </g>
    <g>
      <rect class="cls-2" x="16.62" y="193.15" width="194.3" height="18.87" rx="2.12" ry="2.12"/>
      <path class="cls-2" d="M139.7,211.87c.43-1.95,.67-3.97,.67-6.05,0-15.33-12.43-27.77-27.77-27.77s-27.77,12.43-27.77,27.77c0,2.08,.24,4.1,.67,6.05h54.19Z"/>
      <path class="cls-2" d="M222.13,211.87v-2.36c0-.7-.57-1.27-1.27-1.27H6.16c-.7,0-1.27,.57-1.27,1.27v2.36H222.13Z"/>
    </g>
    <path class="cls-1" d="M81.27,211.98h63.48c.06-.25,.1-.51,.1-.79,0-.68,0-1.36,0-2.05,0-1.69-.98-2.66-2.67-2.66h-1.16c-.53,0-1.05,0-1.57,0-.42,0-.81,0-1.17,0,0-2.05,0-4.08,0-6.12,0-2.13,0-4.26,0-6.39,0-.22,0-.7-.24-1.19,1.36-.22,2.05-1.12,2.05-2.7,0-.62,0-1.25,0-1.87,0-1.25-.48-2.74-2.77-2.74h-2.19s-3.07,0-3.07,0c-2,0-4,0-6,0-1.54-4.69-5.4-8.15-10.18-9.16,0-.33,0-.66,0-1,.28,0,.57,0,.85,0h1.04s1.03,0,1.03,0h.46s.07,0,.07,0c1.29,0,1.9-.67,2.19-1.22,.31-.6,.5-1.54-.34-2.66-.15-.19-.29-.39-.44-.59-.12-.16-.24-.33-.37-.49,.12-.16,.24-.32,.36-.47,.13-.18,.26-.35,.39-.52l.04-.05c.68-.86,.8-1.74,.38-2.6-.24-.48-.84-1.29-2.19-1.29h-.12s-.06,0-.06,0h-3.36s-2.69,0-2.69,0c-2.01,0-2.99,.97-2.99,2.98v3.96s0,3.96,0,3.96c-4.82,1.01-8.68,4.46-10.2,9.16-.1,0-.19,0-.29,0h-.79s-.78,0-.78,0h-2.58s-2.58,0-2.58,0h-4.27c-1.75,0-2.72,.97-2.72,2.73,0,.62,0,1.25,0,1.87,0,1.6,.68,2.49,2.05,2.71-.25,.51-.25,1.01-.25,1.21,.01,2.58,.01,5.16,.02,7.74,0,1.59,0,3.18,0,4.77-.36,0-.73,0-1.15,0-.53,0-1.06,0-1.58,0h-1.18c-1.68,0-2.65,.98-2.66,2.67,0,.47,0,.93,0,1.39v.48c0,.36,.04,.67,.11,.96Z"/>
    <g>
      <path class="cls-4" d="M142.18,208.24c-1.7,0-3.39-.02-5.09,.01-.45,0-.59-.08-.59-.57,.02-4.58,0-9.16,.02-13.73,0-.45-.09-.61-.58-.6-2.71,.03-5.43,.03-8.14,0-.49,0-.57,.15-.57,.6,.02,4.18,.01,8.37,0,12.55,0,.56,.2,1.32-.09,1.63-.33,.36-1.1,.06-1.67,.12-.47,.05-.59-.1-.59-.58,.02-4.58,0-9.16,.02-13.73,0-.47-.13-.59-.59-.59-7.56,.01-15.11,.02-22.67,0-.48,0-.58,.14-.58,.6,.02,4.18,.01,8.37,0,12.55,0,.56,.24,1.31-.09,1.64-.36,.36-1.11,.05-1.68,.12-.48,.06-.58-.12-.57-.58,.02-4.6,0-9.19,.02-13.79,0-.42-.09-.54-.52-.53-2.71,.02-5.43,.02-8.14,0-.49,0-.63,.1-.63,.61,.02,4.58,0,9.16,.02,13.73,0,.42-.08,.57-.54,.56-1.71-.03-3.43-.01-5.14-.01-.71,0-.89,.19-.89,.91,0,.62,0,1.24,0,1.87,0,.94,.12,1.06,1.08,1.06,9.67,0,19.33,0,29,0h12.77c5.46,0,10.93,0,16.39,0,.71,0,.9-.19,.9-.9,0-.68,0-1.36,0-2.03,0-.71-.19-.9-.9-.9Zm-47.08-2.83c-.64-.01-1.28-.01-1.91,0-.42,0-.63-.18-.63-.6,0-.66,0-1.31,0-1.97,0-.42,.21-.61,.63-.6,.64,.01,1.28,0,1.91,0,.42,0,.63,.16,.62,.6-.01,.34,0,.68,0,1.01,0,.3-.01,.6,0,.9,.03,.45-.16,.66-.62,.66Zm-.98-5.86c-.34,0-.68,0-1.01,0-.39,.01-.55-.18-.55-.55,0-.68,0-1.35,0-2.03,0-.37,.19-.55,.56-.54,.36,0,.71,0,1.07,0,1.75,.01,1.52-.19,1.52,1.54,0,1.82,.24,1.55-1.59,1.57Zm18.9-3.11c1.74,0,1.57-.21,1.57,1.5,0,1.86,.21,1.59-1.62,1.61-1.71-.02-1.54,.23-1.54-1.52,0-1.81-.21-1.58,1.59-1.58Zm-5.16,7.35c0,.38,0,.75,0,1.13,0,.32-.18,.48-.5,.48-.7,0-1.39,0-2.09,0-.37,0-.55-.19-.53-.56,.01-.34,0-.68,0-1.02,.02-1.77-.24-1.58,1.6-1.58,1.68,0,1.52-.2,1.53,1.55Zm-1.53-4.24c-.38,0-.75,0-1.13,0-.33,0-.48-.16-.47-.48,0-.36,0-.71,0-1.07,.03-1.78-.27-1.55,1.54-1.55,1.79,0,1.58-.27,1.58,1.58,0,1.79,.18,1.5-1.52,1.52Zm7.91,8.69c-.83-.01-1.66-.02-2.48,0-.28,0-.34-.09-.34-.35,.01-.83,0-1.66,0-2.48,0-.83,.01-1.66,0-2.48,0-.47,.17-.7,.66-.68,.64,.02,1.28,0,1.92,0,.4,0,.59,.18,.59,.58,0,1.69,0,3.39,0,5.08,0,.28-.09,.34-.35,.34Zm5.43-2.84c-1.69,0-1.52,.2-1.52-1.55,0-.36,0-.71,0-1.07,0-.37,.19-.55,.56-.54,.66,0,1.32,0,1.98,0,.44,0,.61,.2,.59,.62-.02,.32,0,.64,0,.96-.02,1.77,.24,1.58-1.6,1.58Zm1-5.85c-.32-.02-.64,0-.96,0-1.75-.03-1.56,.28-1.56-1.54,0-1.83-.21-1.56,1.59-1.56,1.78,0,1.5-.22,1.52,1.51,0,.34-.02,.68,0,1.01,.03,.45-.18,.61-.6,.58Zm9.63-2.63c0-.29,.13-.47,.43-.47,.75,0,1.5,0,2.25,0,.37,0,.47,.25,.47,.57,0,.66,0,1.32,0,1.97,0,.4-.18,.58-.59,.57-.34-.02-.68,0-1.01,0-.36,0-.71,0-1.07,0-.32,0-.48-.16-.48-.49,0-.71,0-1.43,0-2.14Zm1.59,8.48c-1.81,0-1.58,.17-1.59-1.59,.01-1.73-.21-1.58,1.55-1.57,1.75,0,1.6-.2,1.6,1.59,0,1.76,.14,1.57-1.57,1.57Z"/>
      <path class="cls-4" d="M88.7,191.05c8.1,0,16.2,0,24.3,0h12.38c3.99,0,7.99,0,11.98,0,.83,0,.97-.15,.97-.99,0-.62,0-1.24,0-1.86,0-.81-.17-.98-1-.98-4.03,0-8.06,0-12.09,0-.38,0-.53-.08-.63-.49-1.26-4.82-5.25-8.3-10.17-8.9-.34-.04-.33-.2-.33-.43,0-1.13,.03-2.26-.01-3.39-.02-.45,.15-.51,.54-.51,1.54,.02,3.09,0,4.63,.01,.27,0,.54,.01,.69-.27,.16-.3,0-.54-.18-.77-.47-.61-.92-1.24-1.4-1.84-.19-.24-.17-.4,0-.63,.46-.57,.89-1.17,1.33-1.75,.18-.24,.41-.46,.24-.8-.17-.34-.49-.3-.79-.3-2.02,0-4.03,0-6.05,0-1.03,0-1.22,.19-1.22,1.21,0,2.99,0,5.99,0,8.98,0,.23,.06,.44-.33,.49-4.98,.59-8.99,4.14-10.19,8.99-.08,.31-.19,.39-.48,.39-.94-.02-1.88,0-2.83,0-3.15,0-6.29,0-9.44,0-.78,0-.95,.18-.95,.97,0,.62,0,1.24,0,1.86,0,.87,.13,1,1.02,1Z"/>
    </g>
    <g>
      <path class="cls-4" d="M52.91,191.39s-2.9-10.07-3.21-11.2c-.34-.9-.89-1.7-1.62-2.33-.7-.66-1.63-1.03-2.59-1.03h-5.8c-.94,.01-1.84,.38-2.52,1.03-.75,.6-1.3,1.41-1.57,2.33-.4,1.13-3.21,10.79-3.21,10.79-.05,.15-.08,.31-.1,.46-.1,.67,.27,1.31,.9,1.56,.86,.17,1.7-.35,1.93-1.2,.05-.23,.26-.92,.62-1.99,.36-1.07,.67-2.23,.97-3.43,.3-1.2,.82-2.71,1.36-4.61h.86l-4.88,16.59h4.11v11.52c-.08,1.1,.75,2.06,1.86,2.13,1.1,.08,2.06-.75,2.13-1.86,0-.09,0-.19,0-.28v-11.52h.89v11.52c0,1.1,.89,2.14,1.99,2.14s1.99-1.04,1.99-2.14v-11.52h4.11l-4.89-16.59h.86c.55,1.93,.97,3.41,1.37,4.61s.72,2.33,1.05,3.43,.58,2.05,.58,2.08c.16,.64,.72,1.09,1.38,1.11h0c.69,0,1.28-.48,1.41-1.15,.02-.15,.03-.31,0-.46Z"/>
      <path class="cls-4" d="M46.2,172.46h0v-.12c0-1.98-1.61-3.59-3.59-3.59,0,0,0,0,0,0h0c-1.98,0-3.59,1.61-3.59,3.59v.12c.06,.98-.24,1.95-.84,2.72h2.25c.63,.49,1.4,.75,2.19,.75h0c.79,0,1.56-.26,2.18-.75h2.26c-.6-.78-.9-1.74-.85-2.72Z"/>
    </g>
    <g>
      <path class="cls-4" d="M30.84,191.39s-2.9-10.07-3.21-11.2c-.34-.9-.89-1.7-1.62-2.33-.7-.66-1.63-1.03-2.59-1.03h-5.8c-.94,.01-1.84,.38-2.52,1.03-.75,.6-1.3,1.41-1.57,2.33-.4,1.13-3.21,10.79-3.21,10.79-.05,.15-.08,.31-.1,.46-.1,.67,.27,1.31,.9,1.56,.86,.17,1.7-.35,1.93-1.2,.05-.23,.26-.92,.62-1.99,.36-1.07,.67-2.23,.97-3.43,.3-1.2,.82-2.71,1.36-4.61h.86l-4.88,16.59h4.11v11.52c-.08,1.1,.75,2.06,1.86,2.13,1.1,.08,2.06-.75,2.13-1.86,0-.09,0-.19,0-.28v-11.52h.89v11.52c0,1.1,.89,2.14,1.99,2.14s1.99-1.04,1.99-2.14v-11.52h4.11l-4.89-16.59h.86c.55,1.93,.97,3.41,1.37,4.61s.72,2.33,1.05,3.43,.58,2.05,.58,2.08c.16,.64,.72,1.09,1.38,1.11h0c.69,0,1.28-.48,1.41-1.15,.02-.15,.03-.31,0-.46Z"/>
      <path class="cls-4" d="M24.13,172.46h0v-.12c0-1.98-1.61-3.59-3.59-3.59,0,0,0,0,0,0h0c-1.98,0-3.59,1.61-3.59,3.59v.12c.06,.98-.24,1.95-.84,2.72h2.25c.63,.49,1.4,.75,2.19,.75h0c.79,0,1.56-.26,2.18-.75h2.26c-.6-.78-.9-1.74-.85-2.72Z"/>
    </g>
    <g>
      <path class="cls-4" d="M74.99,191.39s-2.9-10.07-3.21-11.2c-.34-.9-.89-1.7-1.62-2.33-.7-.66-1.63-1.03-2.59-1.03h-5.8c-.94,.01-1.84,.38-2.52,1.03-.75,.6-1.3,1.41-1.57,2.33-.4,1.13-3.21,10.79-3.21,10.79-.05,.15-.08,.31-.1,.46-.1,.67,.27,1.31,.9,1.56,.86,.17,1.7-.35,1.93-1.2,.05-.23,.26-.92,.62-1.99,.36-1.07,.67-2.23,.97-3.43s.82-2.71,1.36-4.61h.86l-4.88,16.59h4.11v11.52c-.08,1.1,.75,2.06,1.86,2.13,1.1,.08,2.06-.75,2.13-1.86,0-.09,0-.19,0-.28v-11.52h.89v11.52c0,1.1,.89,2.14,1.99,2.14s1.99-1.04,1.99-2.14v-11.52h4.11l-4.89-16.59h.86c.55,1.93,.97,3.41,1.37,4.61s.72,2.33,1.05,3.43,.58,2.05,.58,2.08c.16,.64,.72,1.09,1.38,1.11h0c.69,0,1.28-.48,1.41-1.15,.02-.15,.03-.31,0-.46Z"/>
      <path class="cls-4" d="M68.27,172.46h0v-.12c0-1.98-1.61-3.59-3.59-3.59,0,0,0,0,0,0h0c-1.98,0-3.59,1.61-3.59,3.59v.12c.06,.98-.24,1.95-.84,2.72h2.25c.63,.49,1.4,.75,2.19,.75h0c.79,0,1.56-.26,2.18-.75h2.26c-.6-.78-.9-1.74-.85-2.72Z"/>
    </g>
    <g>
      <path class="cls-4" d="M181.62,191.39s-2.9-10.07-3.21-11.2c-.34-.9-.89-1.7-1.62-2.33-.7-.66-1.63-1.03-2.59-1.03h-5.8c-.94,.01-1.84,.38-2.52,1.03-.75,.6-1.3,1.41-1.57,2.33-.4,1.13-3.21,10.79-3.21,10.79-.05,.15-.08,.31-.1,.46-.1,.67,.27,1.31,.9,1.56,.86,.17,1.7-.35,1.93-1.2,.05-.23,.26-.92,.62-1.99,.36-1.07,.67-2.23,.97-3.43,.3-1.2,.82-2.71,1.36-4.61h.86l-4.88,16.59h4.11v11.52c-.08,1.1,.75,2.06,1.86,2.13,1.1,.08,2.06-.75,2.13-1.86,0-.09,0-.19,0-.28v-11.52h.89v11.52c0,1.1,.89,2.14,1.99,2.14s1.99-1.04,1.99-2.14v-11.52h4.11l-4.89-16.59h.86c.55,1.93,.97,3.41,1.37,4.61,.41,1.2,.72,2.33,1.05,3.43s.58,2.05,.58,2.08c.16,.64,.72,1.09,1.38,1.11h0c.69,0,1.28-.48,1.41-1.15,.02-.15,.03-.31,0-.46Z"/>
      <path class="cls-4" d="M174.91,172.46h0v-.12c0-1.98-1.61-3.59-3.59-3.59,0,0,0,0,0,0h0c-1.98,0-3.59,1.61-3.59,3.59v.12c.06,.98-.24,1.95-.84,2.72h2.25c.63,.49,1.4,.75,2.19,.75h0c.79,0,1.56-.26,2.18-.75h2.26c-.6-.78-.9-1.74-.85-2.72Z"/>
    </g>
    <g>
      <path class="cls-4" d="M203.7,191.39s-2.9-10.07-3.21-11.2c-.34-.9-.89-1.7-1.62-2.33-.7-.66-1.63-1.03-2.59-1.03h-5.8c-.94,.01-1.84,.38-2.52,1.03-.75,.6-1.3,1.41-1.57,2.33-.4,1.13-3.21,10.79-3.21,10.79-.05,.15-.08,.31-.1,.46-.1,.67,.27,1.31,.9,1.56,.86,.17,1.7-.35,1.93-1.2,.05-.23,.26-.92,.62-1.99,.36-1.07,.67-2.23,.97-3.43,.3-1.2,.82-2.71,1.36-4.61h.86l-4.88,16.59h4.11v11.52c-.08,1.1,.75,2.06,1.86,2.13,1.1,.08,2.06-.75,2.13-1.86,0-.09,0-.19,0-.28v-11.52h.89v11.52c0,1.1,.89,2.14,1.99,2.14s1.99-1.04,1.99-2.14v-11.52h4.11l-4.89-16.59h.86c.55,1.93,.97,3.41,1.37,4.61,.41,1.2,.72,2.33,1.05,3.43s.58,2.05,.58,2.08c.16,.64,.72,1.09,1.38,1.11h0c.69,0,1.28-.48,1.41-1.15,.02-.15,.03-.31,0-.46Z"/>
      <path class="cls-4" d="M196.98,172.46h0v-.12c0-1.98-1.61-3.59-3.59-3.59,0,0,0,0,0,0h0c-1.98,0-3.59,1.61-3.59,3.59v.12c.06,.98-.24,1.95-.84,2.72h2.25c.63,.49,1.4,.75,2.19,.75h0c.79,0,1.56-.26,2.18-.75h2.26c-.6-.78-.9-1.74-.85-2.72Z"/>
    </g>
    <rect class="cls-4" x="35.17" y="26.97" width="89.55" height="27.31"/>
    <g>
      <path class="cls-4" d="M0,.26H2.86V15.86H7.57v2.6H0V.26Z"/>
      <path class="cls-4" d="M8.94,.26h7.8V2.86h-4.94V7.67h3.93v2.6h-3.93v5.59h4.94v2.6h-7.8V.26Z"/>
      <path class="cls-4" d="M18.17,14.14V4.58c0-2.91,1.46-4.58,4.26-4.58s4.26,1.66,4.26,4.58v1.56h-2.7v-1.74c0-1.3-.57-1.79-1.48-1.79s-1.48,.49-1.48,1.79V14.35c0,1.3,.57,1.77,1.48,1.77s1.48-.47,1.48-1.77v-3.56h-1.43v-2.6h4.13v5.95c0,2.91-1.46,4.58-4.26,4.58s-4.26-1.66-4.26-4.58Z"/>
      <path class="cls-4" d="M28.55,.26h2.86V18.46h-2.86V.26Z"/>
      <path class="cls-4" d="M33.05,14.14v-1.04h2.7v1.25c0,1.3,.57,1.77,1.48,1.77s1.48-.47,1.48-1.82c0-1.51-.57-2.47-2.44-4.11-2.39-2.11-3.17-3.59-3.17-5.67,0-2.86,1.48-4.52,4.26-4.52s4.16,1.66,4.16,4.58v.75h-2.7v-.94c0-1.3-.52-1.79-1.43-1.79s-1.43,.49-1.43,1.74c0,1.33,.6,2.29,2.47,3.93,2.39,2.11,3.15,3.56,3.15,5.82,0,2.96-1.51,4.63-4.32,4.63s-4.21-1.66-4.21-4.58Z"/>
      <path class="cls-4" d="M43.21,.26h2.86V15.86h4.71v2.6h-7.57V.26Z"/>
      <path class="cls-4" d="M54.47,.26h3.87l2.96,18.2h-2.86l-.52-3.61v.05h-3.25l-.52,3.56h-2.65L54.47,.26Zm3.12,12.17l-1.27-9h-.05l-1.25,9h2.57Z"/>
      <path class="cls-4" d="M63.73,2.86h-2.99V.26h8.84V2.86h-2.99v15.6h-2.86V2.86Z"/>
      <path class="cls-4" d="M70.95,.26h7.8V2.86h-4.94V7.67h3.93v2.6h-3.93v5.59h4.94v2.6h-7.8V.26Z"/>
      <path class="cls-4" d="M80.39,.26h4.37c2.86,0,4.26,1.59,4.26,4.5V13.96c0,2.91-1.4,4.5-4.26,4.5h-4.37V.26Zm4.32,15.6c.91,0,1.46-.47,1.46-1.77V4.63c0-1.3-.55-1.77-1.46-1.77h-1.46V15.86h1.46Z"/>
      <path class="cls-4" d="M94.9,14.14V4.58c0-2.91,1.46-4.58,4.26-4.58s4.26,1.66,4.26,4.58v1.56h-2.7v-1.74c0-1.3-.57-1.79-1.48-1.79s-1.48,.49-1.48,1.79V14.35c0,1.3,.57,1.77,1.48,1.77s1.48-.47,1.48-1.77v-3.56h-1.43v-2.6h4.13v5.95c0,2.91-1.46,4.58-4.26,4.58s-4.26-1.66-4.26-4.58Z"/>
      <path class="cls-4" d="M105.27,.26h7.8V2.86h-4.94V7.67h3.93v2.6h-3.93v5.59h4.94v2.6h-7.8V.26Z"/>
      <path class="cls-4" d="M114.71,.26h3.59l2.78,10.89h.05V.26h2.55V18.46h-2.94l-3.43-13.29h-.05v13.29h-2.55V.26Z"/>
      <path class="cls-4" d="M125.81,.26h4.37c2.86,0,4.26,1.59,4.26,4.5V13.96c0,2.91-1.4,4.5-4.26,4.5h-4.37V.26Zm4.32,15.6c.91,0,1.46-.47,1.46-1.77V4.63c0-1.3-.55-1.77-1.46-1.77h-1.46V15.86h1.46Z"/>
      <path class="cls-4" d="M136.37,.26h7.8V2.86h-4.94V7.67h3.93v2.6h-3.93v5.59h4.94v2.6h-7.8V.26Z"/>
      <path class="cls-4" d="M145.81,.26h4.24c2.96,0,4.24,1.38,4.24,4.19v1.12c0,1.87-.6,3.07-1.87,3.59v.05c1.43,.44,1.9,1.79,1.9,3.85v3.2c0,.88,.03,1.53,.31,2.21h-2.91c-.16-.47-.26-.75-.26-2.24v-3.33c0-1.69-.49-2.24-1.79-2.24h-.99v7.8h-2.86V.26Zm3.9,7.8c1.07,0,1.72-.47,1.72-1.92v-1.4c0-1.3-.44-1.87-1.46-1.87h-1.3v5.2h1.04Z"/>
      <path class="cls-4" d="M166.48,18.41c-.55,.21-1.2,.31-1.9,.31-2.81,0-4.34-1.66-4.34-4.58V4.58c0-2.91,1.53-4.58,4.34-4.58s4.34,1.66,4.34,4.58V14.14c0,1.25-.29,2.24-.81,2.99,.21,.36,.55,.42,1.07,.42h.44v2.6h-.75c-1.07,0-2.05-.39-2.39-1.74Zm-.42-4.08V4.39c0-1.3-.57-1.79-1.48-1.79s-1.48,.49-1.48,1.79V14.33c0,1.3,.57,1.79,1.48,1.79s1.48-.49,1.48-1.79Z"/>
      <path class="cls-4" d="M170.74,14.14V.26h2.86V14.35c0,1.3,.55,1.77,1.46,1.77s1.46-.47,1.46-1.77V.26h2.76V14.14c0,2.91-1.46,4.58-4.26,4.58s-4.26-1.66-4.26-4.58Z"/>
      <path class="cls-4" d="M181.09,14.14V4.58c0-2.91,1.53-4.58,4.34-4.58s4.34,1.66,4.34,4.58V14.14c0,2.91-1.53,4.58-4.34,4.58s-4.34-1.66-4.34-4.58Zm5.82,.18V4.39c0-1.3-.57-1.79-1.48-1.79s-1.48,.49-1.48,1.79V14.33c0,1.3,.57,1.79,1.48,1.79s1.48-.49,1.48-1.79Z"/>
      <path class="cls-4" d="M193.83,2.86h-2.99V.26h8.84V2.86h-2.99v15.6h-2.86V2.86Z"/>
      <path class="cls-4" d="M202.07,.26h3.87l2.96,18.2h-2.86l-.52-3.61v.05h-3.25l-.52,3.56h-2.65L202.07,.26Zm3.12,12.17l-1.27-9h-.05l-1.25,9h2.57Z"/>
      <path class="cls-4" d="M209.72,14.14v-1.04h2.7v1.25c0,1.3,.57,1.77,1.48,1.77s1.48-.47,1.48-1.82c0-1.51-.57-2.47-2.44-4.11-2.39-2.11-3.17-3.59-3.17-5.67,0-2.86,1.48-4.52,4.26-4.52s4.16,1.66,4.16,4.58v.75h-2.7v-.94c0-1.3-.52-1.79-1.43-1.79s-1.43,.49-1.43,1.74c0,1.33,.6,2.29,2.47,3.93,2.39,2.11,3.15,3.56,3.15,5.82,0,2.96-1.51,4.63-4.32,4.63s-4.21-1.66-4.21-4.58Z"/>
      <path class="cls-3" d="M3.9,32.26h3.87l2.96,18.2h-2.86l-.52-3.61v.05h-3.25l-.52,3.56H.94l2.96-18.2Zm3.12,12.17l-1.27-9h-.05l-1.25,9h2.57Z"/>
      <path class="cls-3" d="M12.12,32.26h4.24c2.96,0,4.24,1.38,4.24,4.19v1.12c0,1.87-.6,3.07-1.87,3.59v.05c1.43,.44,1.9,1.79,1.9,3.85v3.2c0,.88,.03,1.53,.31,2.21h-2.91c-.16-.47-.26-.75-.26-2.24v-3.33c0-1.69-.49-2.24-1.79-2.24h-.99v7.8h-2.86v-18.2Zm3.9,7.8c1.07,0,1.72-.47,1.72-1.92v-1.4c0-1.3-.44-1.87-1.46-1.87h-1.3v5.2h1.04Z"/>
      <path class="cls-3" d="M22.59,32.26h7.8v2.6h-4.94v4.81h3.93v2.6h-3.93v5.59h4.94v2.6h-7.8v-18.2Z"/>
      <path class="cls-1" d="M40.35,32.26h7.8v2.6h-4.94v4.81h3.93v2.6h-3.93v5.59h4.94v2.6h-7.8v-18.2Z"/>
      <path class="cls-1" d="M49.79,32.26h7.57v2.6h-4.71v5.07h3.69v2.6h-3.69v7.93h-2.86v-18.2Z"/>
      <path class="cls-1" d="M58.73,32.26h7.57v2.6h-4.71v5.07h3.69v2.6h-3.69v7.93h-2.86v-18.2Z"/>
      <path class="cls-1" d="M67.68,32.26h7.8v2.6h-4.94v4.81h3.93v2.6h-3.93v5.59h4.94v2.6h-7.8v-18.2Z"/>
      <path class="cls-1" d="M76.93,46.25v-9.78c0-2.81,1.46-4.47,4.21-4.47s4.21,1.66,4.21,4.47v1.92h-2.7v-2.11c0-1.2-.57-1.69-1.43-1.69s-1.43,.49-1.43,1.69v10.17c0,1.2,.57,1.66,1.43,1.66s1.43-.47,1.43-1.66v-2.78h2.7v2.57c0,2.81-1.46,4.47-4.21,4.47s-4.21-1.66-4.21-4.47Z"/>
      <path class="cls-1" d="M89.31,34.86h-2.99v-2.6h8.84v2.6h-2.99v15.6h-2.86v-15.6Z"/>
      <path class="cls-1" d="M96.54,32.26h2.86v18.2h-2.86v-18.2Z"/>
      <path class="cls-1" d="M100.78,32.26h2.89l1.87,14.12h.05l1.87-14.12h2.63l-2.76,18.2h-3.8l-2.76-18.2Z"/>
      <path class="cls-1" d="M111.46,32.26h7.8v2.6h-4.94v4.81h3.93v2.6h-3.93v5.59h4.94v2.6h-7.8v-18.2Z"/>
      <path class="cls-3" d="M131.46,34.86h-2.99v-2.6h8.84v2.6h-2.99v15.6h-2.86v-15.6Z"/>
      <path class="cls-3" d="M138.37,46.14v-9.57c0-2.91,1.53-4.58,4.34-4.58s4.34,1.66,4.34,4.58v9.57c0,2.91-1.53,4.58-4.34,4.58s-4.34-1.66-4.34-4.58Zm5.82,.18v-9.93c0-1.3-.57-1.79-1.48-1.79s-1.48,.49-1.48,1.79v9.93c0,1.3,.57,1.79,1.48,1.79s1.48-.49,1.48-1.79Z"/>
      <path class="cls-3" d="M155.35,32.26h3.87l2.96,18.2h-2.86l-.52-3.61v.05h-3.25l-.52,3.56h-2.65l2.96-18.2Zm3.12,12.17l-1.27-9h-.05l-1.25,9h2.57Z"/>
      <path class="cls-3" d="M163.33,46.25v-9.78c0-2.81,1.46-4.47,4.21-4.47s4.21,1.66,4.21,4.47v1.92h-2.7v-2.11c0-1.2-.57-1.69-1.43-1.69s-1.43,.49-1.43,1.69v10.17c0,1.2,.57,1.66,1.43,1.66s1.43-.47,1.43-1.66v-2.78h2.7v2.57c0,2.81-1.46,4.47-4.21,4.47s-4.21-1.66-4.21-4.47Z"/>
      <path class="cls-3" d="M173.47,32.26h2.86v7.41h3.07v-7.41h2.86v18.2h-2.86v-8.19h-3.07v8.19h-2.86v-18.2Z"/>
      <path class="cls-3" d="M184.39,32.26h2.86v18.2h-2.86v-18.2Z"/>
      <path class="cls-3" d="M189.38,32.26h7.8v2.6h-4.94v4.81h3.93v2.6h-3.93v5.59h4.94v2.6h-7.8v-18.2Z"/>
      <path class="cls-3" d="M198.07,32.26h2.89l1.87,14.12h.05l1.87-14.12h2.63l-2.76,18.2h-3.8l-2.76-18.2Z"/>
      <path class="cls-3" d="M208.75,32.26h7.8v2.6h-4.94v4.81h3.93v2.6h-3.93v5.59h4.94v2.6h-7.8v-18.2Z"/>
      <path class="cls-4" d="M26.27,64.26h7.8v2.6h-4.94v4.81h3.93v2.6h-3.93v5.59h4.94v2.6h-7.8v-18.2Z"/>
      <path class="cls-4" d="M41.74,82.41c-.55,.21-1.2,.31-1.9,.31-2.81,0-4.34-1.66-4.34-4.58v-9.57c0-2.91,1.53-4.58,4.34-4.58s4.34,1.66,4.34,4.58v9.57c0,1.25-.29,2.24-.81,2.99,.21,.36,.55,.42,1.07,.42h.44v2.6h-.75c-1.07,0-2.05-.39-2.39-1.74Zm-.42-4.08v-9.93c0-1.3-.57-1.79-1.48-1.79s-1.48,.49-1.48,1.79v9.93c0,1.3,.57,1.79,1.48,1.79s1.48-.49,1.48-1.79Z"/>
      <path class="cls-4" d="M46.01,78.14v-13.88h2.86v14.09c0,1.3,.55,1.77,1.46,1.77s1.46-.47,1.46-1.77v-14.09h2.76v13.88c0,2.91-1.46,4.58-4.26,4.58s-4.26-1.66-4.26-4.58Z"/>
      <path class="cls-4" d="M58.72,64.26h3.87l2.96,18.2h-2.86l-.52-3.61v.05h-3.25l-.52,3.56h-2.65l2.96-18.2Zm3.12,12.17l-1.27-9h-.05l-1.25,9h2.57Z"/>
      <path class="cls-4" d="M66.94,64.26h2.86v15.6h4.71v2.6h-7.57v-18.2Z"/>
      <path class="cls-4" d="M75.88,64.26h2.86v18.2h-2.86v-18.2Z"/>
      <path class="cls-4" d="M83.11,66.86h-2.99v-2.6h8.84v2.6h-2.99v15.6h-2.86v-15.6Z"/>
      <path class="cls-4" d="M93.07,74.71l-3.46-10.45h3.04l1.95,6.68h.05l1.95-6.68h2.78l-3.46,10.45v7.75h-2.86v-7.75Z"/>
      <path class="cls-4" d="M104.85,64.26h2.86v18.2h-2.86v-18.2Z"/>
      <path class="cls-4" d="M109.84,64.26h3.59l2.78,10.89h.05v-10.89h2.55v18.2h-2.94l-3.43-13.29h-.05v13.29h-2.55v-18.2Z"/>
      <path class="cls-4" d="M125.1,64.26h4.21c2.86,0,4.26,1.59,4.26,4.5v1.79c0,2.91-1.4,4.5-4.26,4.5h-1.35v7.41h-2.86v-18.2Zm4.21,8.19c.91,0,1.4-.42,1.4-1.72v-2.16c0-1.3-.49-1.72-1.4-1.72h-1.35v5.59h1.35Z"/>
      <path class="cls-4" d="M134.93,78.14v-9.57c0-2.91,1.53-4.58,4.34-4.58s4.34,1.66,4.34,4.58v9.57c0,2.91-1.53,4.58-4.34,4.58s-4.34-1.66-4.34-4.58Zm5.82,.18v-9.93c0-1.3-.57-1.79-1.48-1.79s-1.48,.49-1.48,1.79v9.93c0,1.3,.57,1.79,1.48,1.79s1.48-.49,1.48-1.79Z"/>
      <path class="cls-4" d="M145.53,64.26h2.86v15.6h4.71v2.6h-7.57v-18.2Z"/>
      <path class="cls-4" d="M154.48,64.26h2.86v18.2h-2.86v-18.2Z"/>
      <path class="cls-4" d="M161.71,66.86h-2.99v-2.6h8.84v2.6h-2.99v15.6h-2.86v-15.6Z"/>
      <path class="cls-4" d="M168.94,64.26h2.86v18.2h-2.86v-18.2Z"/>
      <path class="cls-4" d="M173.75,78.25v-9.78c0-2.81,1.46-4.47,4.21-4.47s4.21,1.66,4.21,4.47v1.92h-2.7v-2.11c0-1.2-.57-1.69-1.43-1.69s-1.43,.49-1.43,1.69v10.17c0,1.2,.57,1.66,1.43,1.66s1.43-.47,1.43-1.66v-2.78h2.7v2.57c0,2.81-1.46,4.47-4.21,4.47s-4.21-1.66-4.21-4.47Z"/>
      <path class="cls-4" d="M183.44,78.14v-1.04h2.7v1.25c0,1.3,.57,1.77,1.48,1.77s1.48-.47,1.48-1.82c0-1.51-.57-2.47-2.44-4.11-2.39-2.11-3.17-3.59-3.17-5.67,0-2.86,1.48-4.52,4.26-4.52s4.16,1.66,4.16,4.58v.75h-2.7v-.94c0-1.3-.52-1.79-1.43-1.79s-1.43,.49-1.43,1.74c0,1.33,.6,2.29,2.47,3.93,2.39,2.11,3.15,3.56,3.15,5.82,0,2.96-1.51,4.63-4.32,4.63s-4.21-1.66-4.21-4.58Z"/>
    </g>
    <g>
      <path class="cls-3" d="M98.58,134.59v-4.94c0-1.12,.44-1.53,1.54-1.53h.34v.9h-.27c-.35,0-.51,.13-.51,.63v4.94c0,.5,.16,.63,.51,.63h.27v.9h-.34c-1.1,0-1.54-.41-1.54-1.53Z"/>
      <path class="cls-3" d="M101.2,134.86c0-1,.28-1.61,1.1-2.47,.84-.89,1.08-1.42,1.08-2.07s-.22-.8-.57-.8-.57,.19-.57,.69v.75h-1.04v-.68c0-1.12,.56-1.76,1.64-1.76s1.64,.64,1.64,1.76c0,.83-.34,1.57-1.36,2.65-.66,.7-.83,1.05-.83,1.54v.15h2.09v1h-3.18v-.76Z"/>
      <path class="cls-3" d="M105.14,133.96v-3.68c0-1.12,.59-1.76,1.67-1.76s1.67,.64,1.67,1.76v3.68c0,1.12-.59,1.76-1.67,1.76s-1.67-.64-1.67-1.76Zm2.24,.07v-3.82c0-.5-.22-.69-.57-.69s-.57,.19-.57,.69v3.82c0,.5,.22,.69,.57,.69s.57-.19,.57-.69Z"/>
      <path class="cls-3" d="M109.2,134.86c0-1,.28-1.61,1.1-2.47,.84-.89,1.08-1.42,1.08-2.07s-.22-.8-.57-.8-.57,.19-.57,.69v.75h-1.04v-.68c0-1.12,.56-1.76,1.64-1.76s1.64,.64,1.64,1.76c0,.83-.34,1.57-1.36,2.65-.66,.7-.83,1.05-.83,1.54v.15h2.09v1h-3.18v-.76Z"/>
      <path class="cls-3" d="M113.2,134.86c0-1,.28-1.61,1.1-2.47,.84-.89,1.08-1.42,1.08-2.07s-.22-.8-.57-.8-.57,.19-.57,.69v.75h-1.04v-.68c0-1.12,.56-1.76,1.64-1.76s1.64,.64,1.64,1.76c0,.83-.34,1.57-1.36,2.65-.66,.7-.83,1.05-.83,1.54v.15h2.09v1h-3.18v-.76Z"/>
      <path class="cls-3" d="M117.16,135.22h.27c.35,0,.51-.13,.51-.63v-4.94c0-.5-.16-.63-.51-.63h-.27v-.9h.34c1.1,0,1.54,.41,1.54,1.53v4.94c0,1.12-.44,1.53-1.54,1.53h-.34v-.9Z"/>
    </g>
    <g>
      <path class="cls-3" d="M160.36,265.27v-4.51c0-1.29,.67-2.06,1.94-2.06s1.94,.77,1.94,2.06v.89h-1.25v-.97c0-.55-.26-.78-.66-.78s-.66,.23-.66,.78v4.69c0,.55,.26,.77,.66,.77s.66-.22,.66-.77v-1.28h1.25v1.19c0,1.3-.67,2.06-1.94,2.06s-1.94-.77-1.94-2.06Z"/>
      <path class="cls-3" d="M165.21,265.22v-4.41c0-1.34,.71-2.11,2-2.11s2,.77,2,2.11v4.41c0,1.34-.71,2.11-2,2.11s-2-.77-2-2.11Zm2.69,.08v-4.58c0-.6-.26-.83-.68-.83s-.68,.23-.68,.83v4.58c0,.6,.26,.83,.68,.83s.68-.23,.68-.83Z"/>
      <path class="cls-3" d="M170.3,265.22v-6.4h1.32v6.5c0,.6,.25,.82,.67,.82s.67-.22,.67-.82v-6.5h1.27v6.4c0,1.34-.67,2.11-1.97,2.11s-1.97-.77-1.97-2.11Z"/>
      <path class="cls-3" d="M175.41,258.81h1.66l1.28,5.03h.02v-5.03h1.18v8.4h-1.35l-1.58-6.13h-.02v6.13h-1.18v-8.4Z"/>
      <path class="cls-3" d="M181.8,260.01h-1.38v-1.2h4.08v1.2h-1.38v7.2h-1.32v-7.2Z"/>
      <path class="cls-3" d="M185.38,258.81h1.96c1.37,0,1.95,.64,1.95,1.93v.52c0,.86-.28,1.42-.86,1.66v.02c.66,.2,.88,.83,.88,1.77v1.48c0,.41,.01,.71,.14,1.02h-1.34c-.07-.22-.12-.35-.12-1.03v-1.54c0-.78-.23-1.03-.83-1.03h-.46v3.6h-1.32v-8.4Zm1.8,3.6c.49,0,.79-.22,.79-.89v-.65c0-.6-.2-.86-.67-.86h-.6v2.4h.48Z"/>
      <path class="cls-3" d="M190.46,258.81h1.32v8.4h-1.32v-8.4Z"/>
      <path class="cls-3" d="M193,258.81h3.6v1.2h-2.28v2.22h1.81v1.2h-1.81v2.58h2.28v1.2h-3.6v-8.4Z"/>
      <path class="cls-3" d="M197.39,265.22v-.48h1.25v.58c0,.6,.26,.82,.68,.82s.68-.22,.68-.84c0-.7-.26-1.14-1.13-1.9-1.1-.97-1.46-1.66-1.46-2.61,0-1.32,.68-2.09,1.97-2.09s1.92,.77,1.92,2.11v.35h-1.25v-.43c0-.6-.24-.83-.66-.83s-.66,.23-.66,.8c0,.61,.28,1.06,1.14,1.81,1.1,.97,1.45,1.64,1.45,2.69,0,1.37-.7,2.14-1.99,2.14s-1.94-.77-1.94-2.11Z"/>
      <path class="cls-3" d="M149.48,271.81h1.27l.59,6.45h.02l.62-6.45h1.44l.62,6.45h.02l.59-6.45h1.14l-.85,8.4h-1.64l-.6-5.66h-.02l-.6,5.66h-1.75l-.85-8.4Z"/>
      <path class="cls-3" d="M156.72,271.81h1.32v8.4h-1.32v-8.4Z"/>
      <path class="cls-3" d="M160.29,273.01h-1.38v-1.2h4.08v1.2h-1.38v7.2h-1.32v-7.2Z"/>
      <path class="cls-3" d="M163.87,271.81h1.32v3.42h1.42v-3.42h1.32v8.4h-1.32v-3.78h-1.42v3.78h-1.32v-8.4Z"/>
      <path class="cls-3" d="M169.05,278.22v-4.41c0-1.34,.71-2.11,2-2.11s2,.77,2,2.11v4.41c0,1.34-.71,2.11-2,2.11s-2-.77-2-2.11Zm2.69,.08v-4.58c0-.6-.26-.83-.68-.83s-.68,.23-.68,.83v4.58c0,.6,.26,.83,.68,.83s.68-.23,.68-.83Z"/>
      <path class="cls-3" d="M174.14,278.22v-6.4h1.32v6.5c0,.6,.25,.82,.67,.82s.67-.22,.67-.82v-6.5h1.27v6.4c0,1.34-.67,2.11-1.97,2.11s-1.97-.77-1.97-2.11Z"/>
      <path class="cls-3" d="M180.29,273.01h-1.38v-1.2h4.08v1.2h-1.38v7.2h-1.32v-7.2Z"/>
      <path class="cls-3" d="M188.8,280.19c-.25,.1-.55,.14-.88,.14-1.3,0-2-.77-2-2.11v-4.41c0-1.34,.71-2.11,2-2.11s2,.77,2,2.11v4.41c0,.58-.13,1.03-.37,1.38,.1,.17,.25,.19,.49,.19h.2v1.2h-.35c-.49,0-.95-.18-1.1-.8Zm-.19-1.88v-4.58c0-.6-.26-.83-.68-.83s-.68,.23-.68,.83v4.58c0,.6,.26,.83,.68,.83s.68-.23,.68-.83Z"/>
      <path class="cls-3" d="M191.01,278.22v-6.4h1.32v6.5c0,.6,.25,.82,.67,.82s.67-.22,.67-.82v-6.5h1.27v6.4c0,1.34-.67,2.11-1.97,2.11s-1.97-.77-1.97-2.11Z"/>
      <path class="cls-3" d="M196.03,278.22v-4.41c0-1.34,.71-2.11,2-2.11s2,.77,2,2.11v4.41c0,1.34-.71,2.11-2,2.11s-2-.77-2-2.11Zm2.69,.08v-4.58c0-.6-.26-.83-.68-.83s-.68,.23-.68,.83v4.58c0,.6,.26,.83,.68,.83s.68-.23,.68-.83Z"/>
      <path class="cls-3" d="M202.15,273.01h-1.38v-1.2h4.08v1.2h-1.38v7.2h-1.32v-7.2Z"/>
      <path class="cls-3" d="M206.19,271.81h1.79l1.37,8.4h-1.32l-.24-1.67v.02h-1.5l-.24,1.64h-1.22l1.37-8.4Zm1.44,5.61l-.59-4.15h-.02l-.58,4.15h1.19Z"/>
      <path class="cls-3" d="M209.96,278.22v-.48h1.25v.58c0,.6,.26,.82,.68,.82s.68-.22,.68-.84c0-.7-.26-1.14-1.13-1.9-1.1-.97-1.46-1.66-1.46-2.61,0-1.32,.68-2.09,1.97-2.09s1.92,.77,1.92,2.11v.35h-1.25v-.43c0-.6-.24-.83-.66-.83s-.66,.23-.66,.8c0,.61,.28,1.06,1.14,1.81,1.1,.97,1.45,1.64,1.45,2.69,0,1.37-.7,2.14-1.99,2.14s-1.94-.77-1.94-2.11Z"/>
    </g>
    <g>
      <path class="cls-3" d="M21.07,265.27v-4.51c0-1.29,.67-2.06,1.94-2.06s1.94,.77,1.94,2.06v.89h-1.25v-.97c0-.55-.26-.78-.66-.78s-.66,.23-.66,.78v4.69c0,.55,.26,.77,.66,.77s.66-.22,.66-.77v-1.28h1.25v1.19c0,1.3-.67,2.06-1.94,2.06s-1.94-.77-1.94-2.06Z"/>
      <path class="cls-3" d="M25.91,265.22v-4.41c0-1.34,.71-2.11,2-2.11s2,.77,2,2.11v4.41c0,1.34-.71,2.11-2,2.11s-2-.77-2-2.11Zm2.69,.08v-4.58c0-.6-.26-.83-.68-.83s-.68,.23-.68,.83v4.58c0,.6,.26,.83,.68,.83s.68-.23,.68-.83Z"/>
      <path class="cls-3" d="M31,265.22v-6.4h1.32v6.5c0,.6,.25,.82,.67,.82s.67-.22,.67-.82v-6.5h1.27v6.4c0,1.34-.67,2.11-1.97,2.11s-1.97-.77-1.97-2.11Z"/>
      <path class="cls-3" d="M36.11,258.81h1.66l1.28,5.03h.02v-5.03h1.18v8.4h-1.35l-1.58-6.13h-.02v6.13h-1.18v-8.4Z"/>
      <path class="cls-3" d="M42.51,260.01h-1.38v-1.2h4.08v1.2h-1.38v7.2h-1.32v-7.2Z"/>
      <path class="cls-3" d="M46.09,258.81h1.96c1.37,0,1.95,.64,1.95,1.93v.52c0,.86-.28,1.42-.86,1.66v.02c.66,.2,.88,.83,.88,1.77v1.48c0,.41,.01,.71,.14,1.02h-1.34c-.07-.22-.12-.35-.12-1.03v-1.54c0-.78-.23-1.03-.83-1.03h-.46v3.6h-1.32v-8.4Zm1.8,3.6c.49,0,.79-.22,.79-.89v-.65c0-.6-.2-.86-.67-.86h-.6v2.4h.48Z"/>
      <path class="cls-3" d="M51.16,258.81h1.32v8.4h-1.32v-8.4Z"/>
      <path class="cls-3" d="M53.71,258.81h3.6v1.2h-2.28v2.22h1.81v1.2h-1.81v2.58h2.28v1.2h-3.6v-8.4Z"/>
      <path class="cls-3" d="M58.1,265.22v-.48h1.25v.58c0,.6,.26,.82,.68,.82s.68-.22,.68-.84c0-.7-.26-1.14-1.13-1.9-1.1-.97-1.46-1.66-1.46-2.61,0-1.32,.68-2.09,1.97-2.09s1.92,.77,1.92,2.11v.35h-1.25v-.43c0-.6-.24-.83-.66-.83s-.66,.23-.66,.8c0,.61,.28,1.06,1.14,1.81,1.1,.97,1.45,1.64,1.45,2.69,0,1.37-.7,2.14-1.99,2.14s-1.94-.77-1.94-2.11Z"/>
      <path class="cls-3" d="M10.6,271.81h1.79l1.37,8.4h-1.32l-.24-1.67v.02h-1.5l-.24,1.64h-1.22l1.37-8.4Zm1.44,5.61l-.59-4.15h-.02l-.58,4.15h1.19Z"/>
      <path class="cls-3" d="M14.63,271.81h1.94c1.32,0,1.97,.73,1.97,2.08v.83c0,1.34-.65,2.08-1.97,2.08h-.62v3.42h-1.32v-8.4Zm1.94,3.78c.42,0,.65-.19,.65-.79v-1c0-.6-.23-.79-.65-.79h-.62v2.58h.62Z"/>
      <path class="cls-3" d="M19.5,271.81h1.94c1.32,0,1.97,.73,1.97,2.08v.83c0,1.34-.65,2.08-1.97,2.08h-.62v3.42h-1.32v-8.4Zm1.94,3.78c.42,0,.65-.19,.65-.79v-1c0-.6-.23-.79-.65-.79h-.62v2.58h.62Z"/>
      <path class="cls-3" d="M24.37,271.81h1.32v7.2h2.17v1.2h-3.49v-8.4Z"/>
      <path class="cls-3" d="M28.9,276.64l-1.6-4.82h1.4l.9,3.08h.02l.9-3.08h1.28l-1.6,4.82v3.57h-1.32v-3.57Z"/>
      <path class="cls-3" d="M32.65,271.81h1.32v8.4h-1.32v-8.4Z"/>
      <path class="cls-3" d="M35.2,271.81h1.66l1.28,5.03h.02v-5.03h1.18v8.4h-1.35l-1.58-6.13h-.02v6.13h-1.18v-8.4Z"/>
      <path class="cls-3" d="M40.46,278.22v-4.41c0-1.34,.67-2.11,1.97-2.11s1.97,.77,1.97,2.11v.72h-1.25v-.8c0-.6-.26-.83-.68-.83s-.68,.23-.68,.83v4.59c0,.6,.26,.82,.68,.82s.68-.22,.68-.82v-1.64h-.66v-1.2h1.91v2.75c0,1.34-.67,2.11-1.97,2.11s-1.97-.77-1.97-2.11Z"/>
      <path class="cls-3" d="M50.43,280.19c-.25,.1-.55,.14-.88,.14-1.3,0-2-.77-2-2.11v-4.41c0-1.34,.71-2.11,2-2.11s2,.77,2,2.11v4.41c0,.58-.13,1.03-.37,1.38,.1,.17,.25,.19,.49,.19h.2v1.2h-.35c-.49,0-.95-.18-1.1-.8Zm-.19-1.88v-4.58c0-.6-.26-.83-.68-.83s-.68,.23-.68,.83v4.58c0,.6,.26,.83,.68,.83s.68-.23,.68-.83Z"/>
      <path class="cls-3" d="M52.64,278.22v-6.4h1.32v6.5c0,.6,.25,.82,.67,.82s.67-.22,.67-.82v-6.5h1.27v6.4c0,1.34-.67,2.11-1.97,2.11s-1.97-.77-1.97-2.11Z"/>
      <path class="cls-3" d="M57.66,278.22v-4.41c0-1.34,.71-2.11,2-2.11s2,.77,2,2.11v4.41c0,1.34-.71,2.11-2,2.11s-2-.77-2-2.11Zm2.69,.08v-4.58c0-.6-.26-.83-.68-.83s-.68,.23-.68,.83v4.58c0,.6,.26,.83,.68,.83s.68-.23,.68-.83Z"/>
      <path class="cls-3" d="M63.78,273.01h-1.38v-1.2h4.08v1.2h-1.38v7.2h-1.32v-7.2Z"/>
      <path class="cls-3" d="M67.82,271.81h1.79l1.37,8.4h-1.32l-.24-1.67v.02h-1.5l-.24,1.64h-1.22l1.37-8.4Zm1.44,5.61l-.59-4.15h-.02l-.58,4.15h1.19Z"/>
      <path class="cls-3" d="M71.59,278.22v-.48h1.25v.58c0,.6,.26,.82,.68,.82s.68-.22,.68-.84c0-.7-.26-1.14-1.13-1.9-1.1-.97-1.46-1.66-1.46-2.61,0-1.32,.68-2.09,1.97-2.09s1.92,.77,1.92,2.11v.35h-1.25v-.43c0-.6-.24-.83-.66-.83s-.66,.23-.66,.8c0,.61,.28,1.06,1.14,1.81,1.1,.97,1.45,1.64,1.45,2.69,0,1.37-.7,2.14-1.99,2.14s-1.94-.77-1.94-2.11Z"/>
    </g>
    <g>
      <path class="cls-4" d="M158.19,249.52c0-2.48,.7-4,2.73-6.14,2.09-2.21,2.68-3.53,2.68-5.14s-.55-1.99-1.42-1.99-1.42,.47-1.42,1.71v1.86h-2.58v-1.69c0-2.78,1.39-4.37,4.07-4.37s4.07,1.59,4.07,4.37c0,2.06-.84,3.9-3.38,6.58-1.64,1.74-2.06,2.61-2.06,3.83v.37h5.19v2.48h-7.9v-1.89Z"/>
      <path class="cls-4" d="M172,238.14h-2.86v-1.94c2.31,0,3.13-.5,3.75-2.19h1.84v17.39h-2.73v-13.27Z"/>
      <path class="cls-4" d="M178.12,248.77h2.63v2.63h-2.63v-2.63Z"/>
      <path class="cls-4" d="M182.74,249.52c0-2.48,.7-4,2.73-6.14,2.09-2.21,2.68-3.53,2.68-5.14s-.55-1.99-1.42-1.99-1.42,.47-1.42,1.71v1.86h-2.58v-1.69c0-2.78,1.39-4.37,4.07-4.37s4.07,1.59,4.07,4.37c0,2.06-.84,3.9-3.38,6.58-1.64,1.74-2.06,2.61-2.06,3.83v.37h5.19v2.48h-7.9v-1.89Z"/>
      <path class="cls-4" d="M192.58,240.9v-4.35c0-1.79,.92-2.78,2.63-2.78s2.63,.99,2.63,2.78v4.35c0,1.79-.92,2.78-2.63,2.78s-2.63-.99-2.63-2.78Zm3.53,.12v-4.6c0-.77-.35-1.09-.89-1.09s-.89,.32-.89,1.09v4.6c0,.77,.32,1.09,.89,1.09s.89-.32,.89-1.09Zm5.42-7h1.74l-6.73,17.39h-1.74l6.73-17.39Zm-1.32,14.85v-4.35c0-1.79,.92-2.78,2.63-2.78s2.63,.99,2.63,2.78v4.35c0,1.79-.92,2.78-2.63,2.78s-2.63-.99-2.63-2.78Zm3.53,.12v-4.6c0-.77-.35-1.09-.89-1.09s-.89,.32-.89,1.09v4.6c0,.77,.32,1.09,.89,1.09s.89-.32,.89-1.09Z"/>
    </g>
    <g>
      <path class="cls-4" d="M18.18,247.14v-1.42h2.58v1.54c0,1.24,.55,1.71,1.42,1.71s1.42-.42,1.42-1.96v-1.42c0-1.61-.55-2.21-1.79-2.21h-.92v-2.48h.99c1.02,0,1.64-.45,1.64-1.84v-1.27c0-1.24-.57-1.74-1.37-1.74s-1.32,.47-1.32,1.61v1.14h-2.58v-.92c0-2.78,1.39-4.32,4-4.32s4,1.52,4,4.3v.62c0,1.86-.6,3.01-1.94,3.5v.05c1.47,.55,2.01,1.81,2.01,3.58v1.54c0,2.78-1.39,4.3-4.07,4.3s-4.07-1.54-4.07-4.32Z"/>
      <path class="cls-4" d="M28.12,247.09v-9.14c0-2.78,1.47-4.37,4.15-4.37s4.15,1.59,4.15,4.37v9.14c0,2.78-1.47,4.37-4.15,4.37s-4.15-1.59-4.15-4.37Zm5.56,.17v-9.49c0-1.24-.55-1.71-1.42-1.71s-1.42,.47-1.42,1.71v9.49c0,1.24,.55,1.71,1.42,1.71s1.42-.47,1.42-1.71Z"/>
      <path class="cls-4" d="M38.26,248.58h2.63v2.63h-2.63v-2.63Z"/>
      <path class="cls-4" d="M42.7,247.09v-.32h2.58v.5c0,1.24,.55,1.71,1.42,1.71,.97,0,1.52-.47,1.52-2.14v-3.33h-.05c-.47,.99-1.27,1.52-2.48,1.52-2.01,0-3.03-1.42-3.03-3.97v-3.1c0-2.78,1.47-4.37,4.15-4.37s4.15,1.59,4.15,4.37v8.99c0,2.93-1.34,4.52-4.17,4.52-2.68,0-4.07-1.59-4.07-4.37Zm5.51-6.26v-3.08c0-1.14-.47-1.69-1.42-1.69s-1.42,.55-1.42,1.69v3.08c0,1.17,.47,1.71,1.42,1.71s1.42-.55,1.42-1.71Z"/>
      <path class="cls-4" d="M52.72,240.71v-4.35c0-1.79,.92-2.78,2.63-2.78s2.63,.99,2.63,2.78v4.35c0,1.79-.92,2.78-2.63,2.78s-2.63-.99-2.63-2.78Zm3.53,.12v-4.6c0-.77-.35-1.09-.89-1.09s-.89,.32-.89,1.09v4.6c0,.77,.32,1.09,.89,1.09s.89-.32,.89-1.09Zm5.42-7h1.74l-6.73,17.39h-1.74l6.73-17.39Zm-1.32,14.85v-4.35c0-1.79,.92-2.78,2.63-2.78s2.63,.99,2.63,2.78v4.35c0,1.79-.92,2.78-2.63,2.78s-2.63-.99-2.63-2.78Zm3.53,.12v-4.6c0-.77-.35-1.09-.89-1.09s-.89,.32-.89,1.09v4.6c0,.77,.32,1.09,.89,1.09s.89-.32,.89-1.09Z"/>
    </g>
  </g>
</svg>