<?xml version="1.0" encoding="UTF-8"?>
<svg id="Layer_2" data-name="Layer 2" xmlns="http://www.w3.org/2000/svg" viewBox="0 0 250.5 136.81">
  <defs>
    <style>
      .cls-1 {
        fill: #fff;
      }

      .cls-2 {
        stroke-width: 1.5px;
      }

      .cls-2, .cls-3 {
        fill: none;
        stroke: #ef412a;
        stroke-miterlimit: 10;
      }

      .cls-4 {
        fill: #fdd7c5;
      }

      .cls-5 {
        fill: #ef412a;
      }

      .cls-6 {
        fill: #f68f6e;
      }
    </style>
  </defs>
  <g id="Layer_2-2" data-name="Layer 2">
    <g>
      <path class="cls-6" d="M64.1,43.59h37.7c1.08,0,2.11-.49,2.83-1.35l15.08-17.83c1.38-1.63,1.25-4.13-.3-5.59L100.55,.99C99.85,.34,98.95,0,98.02,0H60.33C58.25,0,56.56,1.77,56.56,3.96V39.62H22.63c-.93,0-1.83,.37-2.53,1.03L1.26,58.48c-1.55,1.46-1.68,3.96-.3,5.59l15.08,17.83c.72,.84,1.75,1.32,2.83,1.31H56.56v45.68h-7.54c-2.08,0-3.77,1.77-3.77,3.96s1.69,3.96,3.77,3.96h22.62c2.08,0,3.77-1.77,3.77-3.96s-1.69-3.96-3.77-3.96h-7.54V43.59Zm47.46-21.48l-11.46,13.55h-36V7.92h32.5l14.97,14.19ZM20.56,75.28l-11.31-13.55,15.08-14.19H56.56v27.74H20.56Z"/>
      <path class="cls-1" d="M111.48,22.11l-11.46,13.55h-36V7.92h32.5l14.97,14.19ZM20.48,75.28l-11.31-13.55,15.08-14.19H56.48v27.74H20.48Z"/>
      <path class="cls-2" d="M37.32,68.69c-.21,0-.42-.09-.57-.25l-5.57-5.85c-.89-.94-1.38-2.18-1.38-3.5s.49-2.56,1.38-3.49c.89-.93,2.07-1.45,3.32-1.45,1.03,0,2,.34,2.82,.99,.82-.64,1.78-.99,2.81-.99h0c1.25,0,2.43,.52,3.32,1.45,1.83,1.93,1.83,5.06,0,6.99l-5.57,5.85c-.15,.16-.36,.25-.57,.25Zm-2.82-14.16c-1.16,0-2.25,.47-3.07,1.34-.82,.86-1.27,2.01-1.27,3.23s.45,2.36,1.27,3.23l5.57,5.85c.17,.17,.47,.17,.63,0l5.57-5.85c1.69-1.78,1.69-4.67,0-6.45-.82-.86-1.91-1.33-3.07-1.34-.99,0-1.93,.35-2.7,1l-.11,.09-.11-.09c-.78-.65-1.71-1-2.71-1Z"/>
      <g>
        <path class="cls-3" d="M90.48,18.88h-3.66v-3.85c0-.76-.6-1.39-1.32-1.39h-2.9c-.73,0-1.32,.63-1.32,1.39v3.85h-3.66c-.73,0-1.32,.63-1.32,1.39v3.04c0,.76,.6,1.39,1.32,1.39h3.66v3.85c0,.77,.6,1.4,1.32,1.4h2.9c.73,0,1.32-.63,1.32-1.4v-3.85h3.66c.73,0,1.32-.63,1.32-1.39v-3.04c0-.76-.6-1.39-1.32-1.39"/>
        <path class="cls-3" d="M85.49,30.67h-2.89c-1.11,0-2.01-.95-2.01-2.12v-3.13h-2.98c-1.11,0-2.01-.95-2.01-2.11v-3.04c0-1.17,.9-2.12,2.01-2.12h2.98v-3.13c0-1.17,.9-2.11,2.01-2.11h2.89c1.11,0,2.01,.95,2.01,2.11v3.13h2.98c1.11,0,2.01,.95,2.01,2.12v3.04c0,1.17-.9,2.11-2.01,2.11h-2.98v3.13c0,1.17-.9,2.12-2.01,2.12Zm-7.88-11.08c-.35,0-.64,.31-.64,.67v3.04c0,.36,.29,.67,.64,.67h4.35v4.57c0,.37,.28,.68,.64,.68h2.89c.35,0,.64-.3,.64-.68v-4.57h4.35c.35,0,.64-.31,.64-.67v-3.04c0-.37-.29-.67-.64-.67h-4.35v-4.57c0-.36-.29-.67-.64-.67h-2.89c-.35,0-.64,.31-.64,.67v4.57h-4.35Z"/>
      </g>
    </g>
    <g>
      <rect class="cls-4" x="77.93" y="51.08" width="70.04" height="20.87"/>
      <rect class="cls-5" x="85.51" y="118.92" width="163.8" height="17.89"/>
      <rect class="cls-5" x="110.01" y="97.84" width="114.48" height="17.89"/>
      <g>
        <path class="cls-1" d="M114.64,109.68v-5.15c0-1.57,.83-2.47,2.34-2.47s2.34,.9,2.34,2.47v5.15c0,1.57-.83,2.47-2.34,2.47s-2.34-.9-2.34-2.47Zm3.14,.1v-5.35c0-.7-.31-.97-.8-.97s-.8,.27-.8,.97v5.35c0,.7,.31,.97,.8,.97s.8-.27,.8-.97Z"/>
        <path class="cls-1" d="M120.2,102.2h1.56l1.01,7.61h.03l1.01-7.61h1.41l-1.48,9.81h-2.04l-1.48-9.81Z"/>
        <path class="cls-1" d="M126.23,102.2h4.2v1.4h-2.66v2.59h2.12v1.4h-2.12v3.01h2.66v1.4h-4.2v-9.81Z"/>
        <path class="cls-1" d="M131.59,102.2h2.28c1.6,0,2.28,.74,2.28,2.25v.6c0,1.01-.32,1.65-1.01,1.93v.03c.77,.24,1.02,.97,1.02,2.07v1.72c0,.48,.01,.83,.17,1.19h-1.57c-.08-.25-.14-.41-.14-1.2v-1.79c0-.91-.27-1.2-.97-1.2h-.53v4.2h-1.54v-9.81Zm2.1,4.2c.57,0,.92-.25,.92-1.04v-.76c0-.7-.24-1.01-.78-1.01h-.7v2.8h.56Z"/>
        <path class="cls-1" d="M141.24,103.6h-1.61v-1.4h4.76v1.4h-1.61v8.4h-1.54v-8.4Z"/>
        <path class="cls-1" d="M145.41,102.2h1.54v3.99h1.65v-3.99h1.54v9.81h-1.54v-4.41h-1.65v4.41h-1.54v-9.81Z"/>
        <path class="cls-1" d="M151.57,102.2h4.2v1.4h-2.66v2.59h2.12v1.4h-2.12v3.01h2.66v1.4h-4.2v-9.81Z"/>
        <path class="cls-1" d="M156.93,102.2h1.54v9.81h-1.54v-9.81Z"/>
        <path class="cls-1" d="M159.9,102.2h2.28c1.6,0,2.28,.74,2.28,2.25v.6c0,1.01-.32,1.65-1.01,1.93v.03c.77,.24,1.02,.97,1.02,2.07v1.72c0,.48,.01,.83,.17,1.19h-1.57c-.08-.25-.14-.41-.14-1.2v-1.79c0-.91-.27-1.2-.97-1.2h-.53v4.2h-1.54v-9.81Zm2.1,4.2c.57,0,.92-.25,.92-1.04v-.76c0-.7-.24-1.01-.78-1.01h-.7v2.8h.56Z"/>
        <path class="cls-1" d="M168.08,109.68v-.56h1.46v.67c0,.7,.31,.95,.8,.95s.8-.25,.8-.98c0-.81-.31-1.33-1.32-2.21-1.29-1.13-1.71-1.93-1.71-3.05,0-1.54,.8-2.44,2.3-2.44s2.24,.9,2.24,2.47v.41h-1.46v-.5c0-.7-.28-.97-.77-.97s-.77,.27-.77,.94c0,.71,.32,1.23,1.33,2.11,1.29,1.13,1.7,1.92,1.7,3.14,0,1.6-.81,2.49-2.33,2.49s-2.27-.9-2.27-2.47Z"/>
        <path class="cls-1" d="M173.83,102.2h4.2v1.4h-2.66v2.59h2.12v1.4h-2.12v3.01h2.66v1.4h-4.2v-9.81Z"/>
        <path class="cls-1" d="M180.58,106.99l-1.69-4.79h1.62l1.04,3.17h.03l1.06-3.17h1.46l-1.69,4.79,1.78,5.01h-1.62l-1.12-3.42h-.03l-1.15,3.42h-1.46l1.78-5.01Z"/>
        <path class="cls-1" d="M185.11,109.68v-7.48h1.54v7.59c0,.7,.29,.95,.78,.95s.78-.25,.78-.95v-7.59h1.48v7.48c0,1.57-.78,2.47-2.3,2.47s-2.3-.9-2.3-2.47Z"/>
        <path class="cls-1" d="M192.24,102.2h2.09l1.6,9.81h-1.54l-.28-1.95v.03h-1.75l-.28,1.92h-1.43l1.6-9.81Zm1.68,6.56l-.69-4.85h-.03l-.67,4.85h1.39Z"/>
        <path class="cls-1" d="M196.94,102.2h1.54v8.4h2.54v1.4h-4.08v-9.81Z"/>
        <path class="cls-1" d="M205.75,102.2h2.09l1.6,9.81h-1.54l-.28-1.95v.03h-1.75l-.28,1.92h-1.43l1.6-9.81Zm1.68,6.56l-.69-4.85h-.03l-.67,4.85h1.39Z"/>
        <path class="cls-1" d="M210.45,102.2h1.93l1.5,5.87h.03v-5.87h1.37v9.81h-1.58l-1.85-7.16h-.03v7.16h-1.37v-9.81Z"/>
        <path class="cls-1" d="M216.71,102.2h2.35c1.54,0,2.3,.85,2.3,2.42v4.96c0,1.57-.76,2.42-2.3,2.42h-2.35v-9.81Zm2.33,8.4c.49,0,.78-.25,.78-.95v-5.1c0-.7-.29-.95-.78-.95h-.78v7h.78Z"/>
        <path class="cls-1" d="M90.75,123.2h2.28c1.6,0,2.28,.74,2.28,2.25v.6c0,1.01-.32,1.65-1.01,1.93v.03c.77,.24,1.02,.97,1.02,2.07v1.72c0,.48,.01,.83,.17,1.19h-1.57c-.08-.25-.14-.41-.14-1.2v-1.79c0-.91-.27-1.2-.97-1.2h-.53v4.2h-1.54v-9.81Zm2.1,4.2c.57,0,.92-.25,.92-1.04v-.76c0-.7-.24-1.01-.78-1.01h-.7v2.8h.56Z"/>
        <path class="cls-1" d="M96.68,123.2h4.2v1.4h-2.66v2.59h2.12v1.4h-2.12v3.01h2.66v1.4h-4.2v-9.81Z"/>
        <path class="cls-1" d="M102.04,123.2h2.27c1.54,0,2.3,.85,2.3,2.42v.97c0,1.57-.76,2.42-2.3,2.42h-.73v3.99h-1.54v-9.81Zm2.27,4.41c.49,0,.76-.22,.76-.92v-1.16c0-.7-.27-.92-.76-.92h-.73v3.01h.73Z"/>
        <path class="cls-1" d="M107.72,123.2h2.28c1.6,0,2.28,.74,2.28,2.25v.6c0,1.01-.32,1.65-1.01,1.93v.03c.77,.24,1.02,.97,1.02,2.07v1.72c0,.48,.01,.83,.17,1.19h-1.57c-.08-.25-.14-.41-.14-1.2v-1.79c0-.91-.27-1.2-.97-1.2h-.53v4.2h-1.54v-9.81Zm2.1,4.2c.57,0,.92-.25,.92-1.04v-.76c0-.7-.24-1.01-.78-1.01h-.7v2.8h.56Z"/>
        <path class="cls-1" d="M113.53,130.68v-5.15c0-1.57,.83-2.47,2.34-2.47s2.34,.9,2.34,2.47v5.15c0,1.57-.83,2.47-2.34,2.47s-2.34-.9-2.34-2.47Zm3.14,.1v-5.35c0-.7-.31-.97-.8-.97s-.8,.27-.8,.97v5.35c0,.7,.31,.97,.8,.97s.8-.27,.8-.97Z"/>
        <path class="cls-1" d="M119.52,123.2h2.35c1.54,0,2.3,.85,2.3,2.42v4.96c0,1.57-.76,2.42-2.3,2.42h-2.35v-9.81Zm2.33,8.4c.49,0,.78-.25,.78-.95v-5.1c0-.7-.29-.95-.78-.95h-.78v7h.78Z"/>
        <path class="cls-1" d="M125.43,130.68v-7.48h1.54v7.59c0,.7,.29,.95,.78,.95s.78-.25,.78-.95v-7.59h1.48v7.48c0,1.57-.78,2.47-2.3,2.47s-2.3-.9-2.3-2.47Z"/>
        <path class="cls-1" d="M131.3,130.73v-5.27c0-1.51,.78-2.41,2.27-2.41s2.27,.9,2.27,2.41v1.04h-1.46v-1.13c0-.64-.31-.91-.77-.91s-.77,.27-.77,.91v5.48c0,.64,.31,.9,.77,.9s.77-.25,.77-.9v-1.5h1.46v1.39c0,1.51-.78,2.41-2.27,2.41s-2.27-.9-2.27-2.41Z"/>
        <path class="cls-1" d="M138.24,124.6h-1.61v-1.4h4.76v1.4h-1.61v8.4h-1.54v-8.4Z"/>
        <path class="cls-1" d="M142.41,123.2h1.54v9.81h-1.54v-9.81Z"/>
        <path class="cls-1" d="M144.98,123.2h1.56l1.01,7.61h.03l1.01-7.61h1.41l-1.48,9.81h-2.05l-1.48-9.81Z"/>
        <path class="cls-1" d="M151.01,123.2h4.2v1.4h-2.66v2.59h2.12v1.4h-2.12v3.01h2.66v1.4h-4.2v-9.81Z"/>
        <path class="cls-1" d="M158.89,123.2h1.54v3.99h1.65v-3.99h1.54v9.81h-1.54v-4.41h-1.65v4.41h-1.54v-9.81Z"/>
        <path class="cls-1" d="M165.05,123.2h4.2v1.4h-2.66v2.59h2.12v1.4h-2.12v3.01h2.66v1.4h-4.2v-9.81Z"/>
        <path class="cls-1" d="M171.6,123.2h2.09l1.6,9.81h-1.54l-.28-1.95v.03h-1.75l-.28,1.92h-1.43l1.6-9.81Zm1.68,6.56l-.69-4.85h-.03l-.67,4.85h1.39Z"/>
        <path class="cls-1" d="M176.31,123.2h1.54v8.4h2.54v1.4h-4.08v-9.81Z"/>
        <path class="cls-1" d="M181.52,124.6h-1.61v-1.4h4.76v1.4h-1.61v8.4h-1.54v-8.4Z"/>
        <path class="cls-1" d="M185.69,123.2h1.54v3.99h1.65v-3.99h1.54v9.81h-1.54v-4.41h-1.65v4.41h-1.54v-9.81Z"/>
        <path class="cls-1" d="M195.56,123.2h2.09l1.6,9.81h-1.54l-.28-1.95v.03h-1.75l-.28,1.92h-1.43l1.6-9.81Zm1.68,6.56l-.69-4.85h-.03l-.67,4.85h1.39Z"/>
        <path class="cls-1" d="M200.26,123.2h1.93l1.5,5.87h.03v-5.87h1.37v9.81h-1.58l-1.85-7.16h-.03v7.16h-1.37v-9.81Z"/>
        <path class="cls-1" d="M206.52,123.2h2.35c1.54,0,2.3,.85,2.3,2.42v4.96c0,1.57-.76,2.42-2.3,2.42h-2.35v-9.81Zm2.33,8.4c.49,0,.78-.25,.78-.95v-5.1c0-.7-.29-.95-.78-.95h-.78v7h.78Z"/>
        <path class="cls-1" d="M215,123.2h2.28c1.6,0,2.28,.74,2.28,2.25v.6c0,1.01-.32,1.65-1.01,1.93v.03c.77,.24,1.02,.97,1.02,2.07v1.72c0,.48,.01,.83,.17,1.19h-1.57c-.08-.25-.14-.41-.14-1.2v-1.79c0-.91-.27-1.2-.97-1.2h-.53v4.2h-1.54v-9.81Zm2.1,4.2c.57,0,.92-.25,.92-1.04v-.76c0-.7-.24-1.01-.78-1.01h-.7v2.8h.56Z"/>
        <path class="cls-1" d="M220.92,123.2h1.54v9.81h-1.54v-9.81Z"/>
        <path class="cls-1" d="M223.78,130.68v-5.15c0-1.57,.78-2.47,2.3-2.47s2.3,.9,2.3,2.47v.84h-1.46v-.94c0-.7-.31-.97-.8-.97s-.8,.27-.8,.97v5.36c0,.7,.31,.95,.8,.95s.8-.25,.8-.95v-1.92h-.77v-1.4h2.23v3.21c0,1.57-.78,2.47-2.3,2.47s-2.3-.9-2.3-2.47Z"/>
        <path class="cls-1" d="M229.65,123.2h1.54v3.99h1.65v-3.99h1.54v9.81h-1.54v-4.41h-1.65v4.41h-1.54v-9.81Z"/>
        <path class="cls-1" d="M237.01,124.6h-1.61v-1.4h4.76v1.4h-1.61v8.4h-1.54v-8.4Z"/>
        <path class="cls-1" d="M240.92,130.68v-.56h1.46v.67c0,.7,.31,.95,.8,.95s.8-.25,.8-.98c0-.81-.31-1.33-1.32-2.21-1.29-1.13-1.71-1.93-1.71-3.05,0-1.54,.8-2.44,2.3-2.44s2.24,.9,2.24,2.47v.41h-1.46v-.5c0-.7-.28-.97-.77-.97s-.77,.27-.77,.94c0,.71,.32,1.23,1.33,2.11,1.29,1.13,1.7,1.92,1.7,3.14,0,1.6-.81,2.49-2.33,2.49s-2.27-.9-2.27-2.47Z"/>
      </g>
      <g>
        <path class="cls-5" d="M80.63,55.43h2.35l1.82,7.12h.03v-7.12h1.67v11.9h-1.92l-2.24-8.69h-.03v8.69h-1.67v-11.9Z"/>
        <path class="cls-5" d="M87.89,55.43h5.1v1.7h-3.23v3.15h2.57v1.7h-2.57v3.65h3.23v1.7h-5.1v-11.9Z"/>
        <path class="cls-5" d="M95.51,55.43h2.53l1.94,11.9h-1.87l-.34-2.36v.03h-2.12l-.34,2.33h-1.73l1.94-11.9Zm2.04,7.96l-.83-5.88h-.03l-.82,5.88h1.68Z"/>
        <path class="cls-5" d="M100.88,55.43h2.77c1.94,0,2.77,.9,2.77,2.74v.73c0,1.22-.39,2.01-1.22,2.35v.03c.93,.29,1.24,1.17,1.24,2.52v2.09c0,.58,.02,1,.2,1.44h-1.9c-.1-.31-.17-.49-.17-1.46v-2.18c0-1.1-.32-1.46-1.17-1.46h-.65v5.1h-1.87v-11.9Zm2.55,5.1c.7,0,1.12-.31,1.12-1.26v-.92c0-.85-.29-1.22-.95-1.22h-.85v3.4h.68Z"/>
        <path class="cls-5" d="M107.73,55.43h1.87v10.2h3.08v1.7h-4.95v-11.9Z"/>
        <path class="cls-5" d="M113.8,62.26l-2.26-6.83h1.99l1.27,4.37h.03l1.28-4.37h1.82l-2.26,6.83v5.07h-1.87v-5.07Z"/>
        <path class="cls-5" d="M121.5,55.43h1.87v4.84h2.01v-4.84h1.87v11.9h-1.87v-5.35h-2.01v5.35h-1.87v-11.9Z"/>
        <path class="cls-5" d="M130.08,55.43h2.53l1.94,11.9h-1.87l-.34-2.36v.03h-2.12l-.34,2.33h-1.73l1.94-11.9Zm2.04,7.96l-.83-5.88h-.03l-.82,5.88h1.68Z"/>
        <path class="cls-5" d="M135.46,55.43h1.87v10.2h3.08v1.7h-4.95v-11.9Z"/>
        <path class="cls-5" d="M141.3,55.43h4.95v1.7h-3.08v3.31h2.41v1.7h-2.41v5.18h-1.87v-11.9Z"/>
        <path class="cls-5" d="M149.96,65v-5.15c0-1.57,.83-2.47,2.34-2.47s2.34,.9,2.34,2.47v5.15c0,1.57-.83,2.47-2.34,2.47s-2.34-.9-2.34-2.47Zm3.14,.1v-5.35c0-.7-.31-.97-.8-.97s-.8,.27-.8,.97v5.35c0,.7,.31,.97,.8,.97s.8-.27,.8-.97Z"/>
        <path class="cls-5" d="M156.01,57.52h4.08v1.4h-2.54v2.73h1.99v1.4h-1.99v4.27h-1.54v-9.81Z"/>
        <path class="cls-5" d="M164.33,55.43h2.67l1.19,8.52h.03l1.19-8.52h2.67v11.9h-1.77v-9.01h-.03l-1.36,9.01h-1.56l-1.36-9.01h-.03v9.01h-1.63v-11.9Z"/>
        <path class="cls-5" d="M174.92,55.43h2.53l1.94,11.9h-1.87l-.34-2.36v.03h-2.12l-.34,2.33h-1.73l1.94-11.9Zm2.04,7.96l-.83-5.88h-.03l-.82,5.88h1.68Z"/>
        <path class="cls-5" d="M180.29,55.43h2.77c1.94,0,2.77,.9,2.77,2.74v.73c0,1.22-.39,2.01-1.22,2.35v.03c.93,.29,1.24,1.17,1.24,2.52v2.09c0,.58,.02,1,.2,1.44h-1.9c-.1-.31-.17-.49-.17-1.46v-2.18c0-1.1-.32-1.46-1.17-1.46h-.65v5.1h-1.87v-11.9Zm2.55,5.1c.7,0,1.12-.31,1.12-1.26v-.92c0-.85-.29-1.22-.95-1.22h-.85v3.4h.68Z"/>
        <path class="cls-5" d="M187.14,55.43h2.77c1.94,0,2.77,.9,2.77,2.74v.73c0,1.22-.39,2.01-1.22,2.35v.03c.93,.29,1.24,1.17,1.24,2.52v2.09c0,.58,.02,1,.2,1.44h-1.9c-.1-.31-.17-.49-.17-1.46v-2.18c0-1.1-.32-1.46-1.17-1.46h-.65v5.1h-1.87v-11.9Zm2.55,5.1c.7,0,1.12-.31,1.12-1.26v-.92c0-.85-.29-1.22-.95-1.22h-.85v3.4h.68Z"/>
        <path class="cls-5" d="M193.99,55.43h1.87v11.9h-1.87v-11.9Z"/>
        <path class="cls-5" d="M197.26,55.43h5.1v1.7h-3.23v3.15h2.57v1.7h-2.57v3.65h3.23v1.7h-5.1v-11.9Z"/>
        <path class="cls-5" d="M203.43,55.43h2.86c1.87,0,2.79,1.04,2.79,2.94v6.02c0,1.9-.92,2.94-2.79,2.94h-2.86v-11.9Zm2.82,10.2c.6,0,.95-.31,.95-1.16v-6.19c0-.85-.36-1.16-.95-1.16h-.95v8.5h.95Z"/>
        <path class="cls-5" d="M212.61,55.43h1.8l.83,9.15h.03l.88-9.15h2.04l.88,9.15h.03l.83-9.15h1.62l-1.21,11.9h-2.33l-.85-8.02h-.03l-.85,8.02h-2.48l-1.21-11.9Z"/>
        <path class="cls-5" d="M222.38,64.5v-6.26c0-1.9,1-2.99,2.84-2.99s2.84,1.09,2.84,2.99v6.26c0,1.9-1,2.99-2.84,2.99s-2.84-1.09-2.84-2.99Zm3.81,.12v-6.49c0-.85-.37-1.17-.97-1.17s-.97,.32-.97,1.17v6.49c0,.85,.37,1.17,.97,1.17s.97-.32,.97-1.17Z"/>
        <path class="cls-5" d="M229.32,55.43h2.67l1.19,8.52h.03l1.19-8.52h2.67v11.9h-1.77v-9.01h-.03l-1.36,9.01h-1.56l-1.36-9.01h-.03v9.01h-1.63v-11.9Z"/>
        <path class="cls-5" d="M238.46,55.43h5.1v1.7h-3.23v3.15h2.57v1.7h-2.57v3.65h3.23v1.7h-5.1v-11.9Z"/>
        <path class="cls-5" d="M244.63,55.43h2.35l1.82,7.12h.03v-7.12h1.67v11.9h-1.92l-2.24-8.69h-.03v8.69h-1.67v-11.9Z"/>
        <path class="cls-5" d="M88.22,78.43h1.87v10.2h3.08v1.7h-4.95v-11.9Z"/>
        <path class="cls-5" d="M95.58,78.43h2.53l1.94,11.9h-1.87l-.34-2.36v.03h-2.12l-.34,2.33h-1.73l1.94-11.9Zm2.04,7.96l-.83-5.88h-.03l-.82,5.88h1.68Z"/>
        <path class="cls-5" d="M100.8,87.57v-6.39c0-1.84,.95-2.92,2.75-2.92s2.75,1.09,2.75,2.92v1.26h-1.77v-1.38c0-.78-.37-1.1-.93-1.1s-.93,.32-.93,1.1v6.65c0,.78,.37,1.09,.93,1.09s.93-.31,.93-1.09v-1.82h1.77v1.68c0,1.84-.95,2.92-2.75,2.92s-2.75-1.09-2.75-2.92Z"/>
        <path class="cls-5" d="M107.43,78.43h1.87v5.01l2.38-5.01h1.87l-2.23,4.37,2.26,7.53h-1.96l-1.58-5.3-.75,1.51v3.79h-1.87v-11.9Z"/>
        <path class="cls-5" d="M117.19,78.43h2.86c1.87,0,2.79,1.04,2.79,2.94v6.02c0,1.9-.92,2.94-2.79,2.94h-2.86v-11.9Zm2.82,10.2c.6,0,.95-.31,.95-1.16v-6.19c0-.85-.36-1.16-.95-1.16h-.95v8.5h.95Z"/>
        <path class="cls-5" d="M124.09,78.43h5.1v1.7h-3.23v3.15h2.57v1.7h-2.57v3.65h3.23v1.7h-5.1v-11.9Z"/>
        <path class="cls-5" d="M130.15,87.57v-6.39c0-1.84,.95-2.92,2.75-2.92s2.75,1.09,2.75,2.92v1.26h-1.77v-1.38c0-.78-.37-1.1-.93-1.1s-.93,.32-.93,1.1v6.65c0,.78,.37,1.09,.93,1.09s.93-.31,.93-1.09v-1.82h1.77v1.68c0,1.84-.95,2.92-2.75,2.92s-2.75-1.09-2.75-2.92Z"/>
        <path class="cls-5" d="M136.78,78.43h1.87v11.9h-1.87v-11.9Z"/>
        <path class="cls-5" d="M139.72,87.5v-.68h1.77v.82c0,.85,.37,1.16,.97,1.16s.97-.31,.97-1.19c0-.99-.37-1.61-1.6-2.69-1.56-1.38-2.07-2.35-2.07-3.71,0-1.87,.97-2.96,2.79-2.96s2.72,1.09,2.72,2.99v.49h-1.77v-.61c0-.85-.34-1.17-.93-1.17s-.94,.32-.94,1.14c0,.87,.39,1.5,1.62,2.57,1.56,1.38,2.06,2.33,2.06,3.81,0,1.94-.99,3.03-2.82,3.03s-2.75-1.09-2.75-2.99Z"/>
        <path class="cls-5" d="M146.36,78.43h1.87v11.9h-1.87v-11.9Z"/>
        <path class="cls-5" d="M149.49,87.5v-6.26c0-1.9,1-2.99,2.84-2.99s2.84,1.09,2.84,2.99v6.26c0,1.9-1,2.99-2.84,2.99s-2.84-1.09-2.84-2.99Zm3.81,.12v-6.49c0-.85-.37-1.17-.97-1.17s-.97,.32-.97,1.17v6.49c0,.85,.37,1.17,.97,1.17s.97-.32,.97-1.17Z"/>
        <path class="cls-5" d="M156.43,78.43h2.35l1.82,7.12h.03v-7.12h1.67v11.9h-1.92l-2.24-8.69h-.03v8.69h-1.67v-11.9Z"/>
        <path class="cls-5" d="M163.41,83.53h3.74v1.7h-3.74v-1.7Z"/>
        <path class="cls-5" d="M168.28,78.43h2.67l1.19,8.52h.03l1.19-8.52h2.67v11.9h-1.77v-9.01h-.03l-1.36,9.01h-1.56l-1.36-9.01h-.03v9.01h-1.63v-11.9Z"/>
        <path class="cls-5" d="M178.87,78.43h2.53l1.94,11.9h-1.87l-.34-2.36v.03h-2.12l-.34,2.33h-1.73l1.94-11.9Zm2.04,7.96l-.83-5.88h-.03l-.82,5.88h1.68Z"/>
        <path class="cls-5" d="M184.24,78.43h1.87v5.01l2.38-5.01h1.87l-2.23,4.37,2.26,7.53h-1.96l-1.58-5.3-.75,1.51v3.79h-1.87v-11.9Z"/>
        <path class="cls-5" d="M191.28,78.43h1.87v11.9h-1.87v-11.9Z"/>
        <path class="cls-5" d="M194.54,78.43h2.35l1.82,7.12h.03v-7.12h1.67v11.9h-1.92l-2.24-8.69h-.03v8.69h-1.67v-11.9Z"/>
        <path class="cls-5" d="M201.66,87.5v-6.26c0-1.9,.95-2.99,2.79-2.99s2.79,1.09,2.79,2.99v1.02h-1.77v-1.14c0-.85-.37-1.17-.97-1.17s-.97,.32-.97,1.17v6.51c0,.85,.37,1.16,.97,1.16s.97-.31,.97-1.16v-2.33h-.93v-1.7h2.7v3.89c0,1.9-.95,2.99-2.79,2.99s-2.79-1.09-2.79-2.99Z"/>
        <path class="cls-5" d="M211.17,78.43h2.75c1.87,0,2.79,1.04,2.79,2.94v1.17c0,1.9-.92,2.94-2.79,2.94h-.88v4.84h-1.87v-11.9Zm2.75,5.35c.59,0,.92-.27,.92-1.12v-1.41c0-.85-.32-1.12-.92-1.12h-.88v3.65h.88Z"/>
        <path class="cls-5" d="M217.59,87.5v-6.26c0-1.9,1-2.99,2.84-2.99s2.84,1.09,2.84,2.99v6.26c0,1.9-1,2.99-2.84,2.99s-2.84-1.09-2.84-2.99Zm3.81,.12v-6.49c0-.85-.37-1.17-.97-1.17s-.97,.32-.97,1.17v6.49c0,.85,.37,1.17,.97,1.17s.97-.32,.97-1.17Z"/>
        <path class="cls-5" d="M224.09,78.43h1.8l.83,9.15h.03l.88-9.15h2.04l.88,9.15h.03l.83-9.15h1.61l-1.21,11.9h-2.33l-.85-8.02h-.03l-.85,8.02h-2.48l-1.21-11.9Z"/>
        <path class="cls-5" d="M234,78.43h5.1v1.7h-3.23v3.15h2.57v1.7h-2.57v3.65h3.23v1.7h-5.1v-11.9Z"/>
        <path class="cls-5" d="M240.17,78.43h2.77c1.94,0,2.77,.9,2.77,2.74v.73c0,1.22-.39,2.01-1.22,2.35v.03c.93,.29,1.24,1.17,1.24,2.52v2.09c0,.58,.02,1,.2,1.44h-1.9c-.1-.31-.17-.49-.17-1.46v-2.18c0-1.1-.32-1.46-1.17-1.46h-.65v5.1h-1.87v-11.9Zm2.55,5.1c.7,0,1.12-.31,1.12-1.26v-.92c0-.85-.29-1.22-.95-1.22h-.85v3.4h.68Z"/>
      </g>
    </g>
  </g>
</svg>