<?xml version="1.0" encoding="UTF-8"?><svg id="Layer_2" xmlns="http://www.w3.org/2000/svg" xmlns:xlink="http://www.w3.org/1999/xlink" viewBox="0 0 384.99 603.9"><defs><style>.cls-1,.cls-2,.cls-3,.cls-4,.cls-5,.cls-6,.cls-7,.cls-8{fill:none;}.cls-9{fill:url(#linear-gradient);}.cls-2{stroke-dasharray:0 0 0 2.94;}.cls-2,.cls-6{stroke:#777677;stroke-linecap:round;stroke-linejoin:round;stroke-width:1.75px;}.cls-10,.cls-11{fill:#00add8;}.cls-12{fill:#fff;}.cls-13{fill:#939598;}.cls-14{fill:#c6e4f1;}.cls-15{fill:#dceef6;}.cls-16{fill:#3e97b3;}.cls-3{stroke:#d1e9f4;stroke-width:.75px;}.cls-3,.cls-4,.cls-5,.cls-7{stroke-miterlimit:10;}.cls-17{fill:url(#linear-gradient-2);}.cls-4{stroke:#00add8;}.cls-5{stroke:#939598;}.cls-11{fill-rule:evenodd;}.cls-7{stroke:#dceef6;stroke-width:.67px;}.cls-8{clip-path:url(#clippath);}</style><linearGradient id="linear-gradient" x1="192.93" y1="522.38" x2="192.93" y2="603.9" gradientUnits="userSpaceOnUse"><stop offset="0" stop-color="#fff"/><stop offset=".45" stop-color="#fcfdfe"/><stop offset=".77" stop-color="#f2f8fb"/><stop offset="1" stop-color="#e7f3f9"/></linearGradient><linearGradient id="linear-gradient-2" x1="103.47" y1="172.75" x2="103.47" y2="67.59" gradientUnits="userSpaceOnUse"><stop offset="0" stop-color="#fff"/><stop offset=".4" stop-color="#e0f0f7"/><stop offset=".76" stop-color="#cde7f2"/><stop offset="1" stop-color="#c6e4f1"/></linearGradient><clipPath id="clippath"><rect class="cls-1" x=".19" y="263.54" width="384.05" height="182.64"/></clipPath></defs><g id="Layer_2-2"><path class="cls-9" d="m370.67,525.92c-3.41,3.27-7.99,5.1-12.76,5.1h-.07s-.09,0-.13,0c-1.22,0-2.42-.12-3.6-.36v.04c-.36-.09-.72-.19-1.08-.29-2.98-.78-5.74-2.27-7.99-4.41-1.34-1.26-2.9-2.28-4.6-3.01h0c-1.19-.4-2.43-.6-3.67-.6-3.07,0-6.14,1.18-8.43,3.53-3.56,3.4-8.19,5.1-12.81,5.1s-9.25-1.7-12.81-5.1c-.13-.13-.26-.26-.39-.38-2.26-2.11-5.15-3.15-8.04-3.15-3.07,0-6.14,1.18-8.43,3.53-3.41,3.27-7.99,5.1-12.76,5.1h-.07s-.09,0-.13,0c-1.29,0-2.57-.15-3.82-.41v.09c-.98-.24-1.94-.55-2.87-.93-.16-.06-.32-.13-.47-.2-.17-.07-.34-.15-.51-.23-1.83-.83-3.53-1.94-5-3.34-1.22-1.14-2.63-2.08-4.15-2.8-1.39-.54-2.86-.82-4.33-.82-3.07,0-6.14,1.18-8.43,3.53-3.56,3.4-8.19,5.1-12.81,5.1s-9.25-1.7-12.81-5.1c-.13-.13-.26-.26-.39-.38-2.26-2.11-5.15-3.15-8.04-3.15-3.07,0-6.14,1.18-8.43,3.53-3.41,3.27-7.99,5.1-12.76,5.1h-.07s-.09,0-.13,0c-1.2,0-2.38-.12-3.54-.34v.02c-.21-.05-.42-.11-.63-.17-3.17-.73-6.12-2.27-8.5-4.53-1.34-1.26-2.9-2.28-4.6-3.01v-.03c-1.17-.37-2.39-.57-3.61-.57-3.07,0-6.14,1.18-8.43,3.53-3.56,3.4-8.19,5.1-12.81,5.1s-9.25-1.7-12.81-5.1c-.13-.13-.26-.26-.39-.38-2.26-2.11-5.15-3.15-8.04-3.15-3.07,0-6.14,1.18-8.43,3.53-3.41,3.27-7.99,5.1-12.76,5.1h-.07s-.09,0-.13,0c-1.29,0-2.57-.15-3.82-.41v.09c-.98-.24-1.94-.55-2.87-.93-.16-.06-.32-.13-.47-.2-.17-.07-.34-.15-.51-.23-1.83-.83-3.53-1.94-5-3.34-1.22-1.14-2.63-2.08-4.15-2.8-1.39-.54-2.86-.82-4.33-.82-3.07,0-6.14,1.18-8.43,3.53-3.56,3.4-8.19,5.1-12.81,5.1s-9.25-1.7-12.81-5.1c-.13-.13-.26-.26-.39-.38-2.26-2.11-5.15-3.15-8.04-3.15-3.07,0-6.14,1.18-8.43,3.53-3.41,3.27-7.99,5.1-12.76,5.1h-.07s-.09,0-.13,0c-4.73,0-9.27-1.8-12.67-5.02-1.34-1.26-2.9-2.28-4.6-3.01v80.92h384.12v-79.94c-1.82-1.05-3.85-1.58-5.89-1.58-3.07,0-6.14,1.18-8.43,3.53Z"/><path class="cls-10" d="m71.19,46.75h0c4.91,0,9.27-2.46,11.87-6.14h5.46c2.86,0,5.32,2.32,5.32,5.32v9.27h-.95c-2.73,0-4.77,2.46-4.09,5.32.41,1.91,2.32,3.14,4.23,3.14h18.28c1.91,0,3.82-1.23,4.23-3.14.68-2.73-1.36-5.32-4.09-5.32h-.95v-9.41c0-12.14-9.82-22.1-22.1-22.1h-5.32c-1.77-2.46-4.23-4.36-7.23-5.32-.68-.27-1.09-.82-1.09-1.5v-4.91c0-1.5,1.23-2.86,2.73-2.86h1.09c1.23,0,2.32.41,3.14,1.23,1.09,1.09,2.59,1.91,4.36,1.91,3.96,0,6.96-3.68,5.86-7.77-.55-2.05-2.32-3.82-4.36-4.23-2.32-.55-4.36.14-5.86,1.64-.82.82-1.77,1.23-3,1.23h-1.36c-.95,0-1.91-.41-2.59-1.09-.95-.82-2.18-1.36-3.68-1.36-1.36,0-2.73.55-3.68,1.36-.68.68-1.64,1.09-2.59,1.09h-1.23c-1.23,0-2.32-.55-3.14-1.36-1.36-1.36-3.55-2.18-5.86-1.5-2.05.55-3.82,2.18-4.36,4.23-1.09,4.09,2.05,7.77,5.86,7.77,1.77,0,3.27-.68,4.36-1.91.82-.82,2.05-1.23,3.14-1.23h1.09c1.5,0,2.73,1.36,2.73,2.86v4.91c0,.68-.41,1.23-1.09,1.5-2.86.95-5.46,2.86-7.23,5.32h-11.05c-2.18-4.77-6.41-8.59-11.59-10.23-.82-.27-1.64.41-1.64,1.23v33.96c0,.82.82,1.5,1.64,1.23,4.91-1.5,8.87-5.05,11.18-9.55h11.32c3,3.96,7.37,6.41,12.28,6.41Z"/><polygon class="cls-17" points="137.2 172.75 69.74 172.75 92.05 67.59 112.7 67.59 137.2 172.75"/><path class="cls-13" d="m103.97,209.52h12.43v4.27h-7.73v8.33h6.06v4.27h-6.06v13.03h-4.7v-29.9Z"/><path class="cls-13" d="m120.59,237.88c-1.22-1.31-1.84-3.16-1.84-5.55v-15.72c0-2.39.61-4.24,1.84-5.55,1.22-1.31,2.99-1.96,5.3-1.96s4.07.66,5.3,1.96c1.22,1.31,1.84,3.16,1.84,5.55v15.72c0,2.39-.61,4.24-1.84,5.55-1.22,1.31-2.99,1.96-5.3,1.96s-4.07-.65-5.3-1.96Zm7.73-5.25v-16.32c0-1.96-.81-2.95-2.43-2.95s-2.43.98-2.43,2.95v16.32c0,1.96.81,2.95,2.43,2.95s2.43-.98,2.43-2.95Z"/><path class="cls-13" d="m136.6,209.52h6.96c2.42,0,4.19.56,5.3,1.69,1.11,1.12,1.67,2.85,1.67,5.19v1.84c0,3.1-1.02,5.07-3.08,5.89v.09c1.14.34,1.94,1.04,2.41,2.09.47,1.05.71,2.46.71,4.23v5.25c0,.85.03,1.54.09,2.07.06.53.2,1.05.43,1.56h-4.78c-.17-.48-.28-.94-.34-1.37-.06-.43-.09-1.2-.09-2.31v-5.47c0-1.37-.22-2.32-.66-2.86-.44-.54-1.2-.81-2.29-.81h-1.62v12.81h-4.7v-29.9Zm6.41,12.81c.94,0,1.64-.24,2.11-.73.47-.48.7-1.3.7-2.43v-2.31c0-1.08-.19-1.86-.58-2.35-.38-.48-.99-.73-1.81-.73h-2.14v8.54h1.71Z"/><path class="cls-13" d="m161.5,209.52h7.09c2.42,0,4.19.56,5.3,1.69,1.11,1.12,1.67,2.85,1.67,5.19v1.2c0,1.54-.25,2.79-.75,3.76-.5.97-1.26,1.67-2.29,2.09v.09c2.33.8,3.5,2.88,3.5,6.24v2.56c0,2.31-.61,4.06-1.82,5.27-1.21,1.21-2.98,1.82-5.32,1.82h-7.39v-29.9Zm6.53,12.17c.94,0,1.64-.24,2.11-.73.47-.48.71-1.3.71-2.43v-1.67c0-1.08-.19-1.86-.58-2.35-.38-.48-.99-.73-1.82-.73h-2.26v7.9h1.84Zm.85,13.45c.83,0,1.44-.22,1.84-.66.4-.44.6-1.2.6-2.29v-2.6c0-1.37-.23-2.31-.7-2.84-.47-.53-1.25-.79-2.33-.79h-2.09v9.18h2.69Z"/><path class="cls-13" d="m179.19,209.52h4.7v29.9h-4.7v-29.9Z"/><path class="cls-13" d="m187.81,209.52h4.7v25.63h7.73v4.27h-12.43v-29.9Z"/><path class="cls-13" d="m202.93,209.52h4.7v25.63h7.73v4.27h-12.43v-29.9Z"/><path class="cls-13" d="m218.05,209.52h4.7v29.9h-4.7v-29.9Z"/><path class="cls-13" d="m228.17,237.88c-1.22-1.31-1.84-3.16-1.84-5.55v-15.72c0-2.39.61-4.24,1.84-5.55,1.22-1.31,2.99-1.96,5.3-1.96s4.07.66,5.3,1.96c1.22,1.31,1.84,3.16,1.84,5.55v15.72c0,2.39-.61,4.24-1.84,5.55-1.22,1.31-2.99,1.96-5.3,1.96s-4.07-.65-5.3-1.96Zm7.73-5.25v-16.32c0-1.96-.81-2.95-2.43-2.95s-2.43.98-2.43,2.95v16.32c0,1.96.81,2.95,2.43,2.95s2.43-.98,2.43-2.95Z"/><path class="cls-13" d="m244.19,209.52h5.89l4.57,17.9h.09v-17.9h4.19v29.9h-4.83l-5.64-21.83h-.09v21.83h-4.19v-29.9Z"/><path class="cls-13" d="m263.8,237.9c-1.17-1.3-1.75-3.15-1.75-5.57v-1.71h4.44v2.05c0,1.94.81,2.9,2.43,2.9.8,0,1.4-.24,1.82-.71.41-.47.62-1.23.62-2.28,0-1.25-.28-2.36-.85-3.31-.57-.95-1.62-2.1-3.16-3.44-1.94-1.71-3.29-3.25-4.06-4.63-.77-1.38-1.15-2.94-1.15-4.68,0-2.36.6-4.19,1.79-5.49,1.2-1.3,2.93-1.94,5.21-1.94s3.95.65,5.1,1.94c1.15,1.3,1.73,3.15,1.73,5.57v1.24h-4.44v-1.54c0-1.02-.2-1.77-.6-2.24-.4-.47-.98-.71-1.75-.71-1.57,0-2.35.95-2.35,2.86,0,1.08.29,2.09.88,3.03.58.94,1.64,2.08,3.18,3.42,1.96,1.71,3.32,3.26,4.06,4.66.74,1.4,1.11,3.03,1.11,4.91,0,2.45-.61,4.33-1.81,5.64-1.21,1.31-2.97,1.96-5.27,1.96s-4-.65-5.17-1.94Z"/><path class="cls-16" d="m198.56,179.78c-.69-.05-1.27-.31-1.78-.77-1.58-1.4-3.75-1.39-5.34,0-1.15,1.01-2.48,1.02-3.61.01-1.6-1.42-3.79-1.42-5.37,0-1.13,1.01-2.49,1.01-3.61,0-1.56-1.4-3.79-1.41-5.34-.02-1.17,1.05-2.5,1.04-3.68-.02-1.5-1.35-3.76-1.35-5.27,0-1.2,1.07-2.51,1.07-3.71-.01-1.48-1.33-3.75-1.34-5.24-.01-.69.61-1.39.87-2.09.8-.11-.01-.22-.03-.33-.05-.45-.11-.89-.36-1.33-.74-.67-.6-1.46-.93-2.18-.98-.05,0-.08,0-.12,0-1.07-.11-2.16.22-3.07,1.02-1.15,1.01-2.48,1.02-3.61.01-1.6-1.42-3.79-1.42-5.37,0-1.13,1.01-2.49,1.01-3.61,0-1.56-1.4-3.79-1.41-5.34-.02-1.17,1.05-2.5,1.04-3.68-.02-1.5-1.35-3.76-1.35-5.27,0-1.2,1.07-2.51,1.07-3.71-.01-1.48-1.33-3.75-1.34-5.24-.01-.62.55-1.25.82-1.88.82-.01,0-.02,0-.03,0-.52-.04-.97-.19-1.38-.46-.15-.1-.3-.22-.45-.35-.57-.51-1.23-.81-1.85-.92-.06-.01-.11-.02-.17-.03-.05,0-.11-.02-.16-.03-.03,0-.05,0-.07,0-1.06-.1-2.14.23-3.03,1.02-1.15,1.01-2.48,1.02-3.61.01-1.6-1.42-3.79-1.42-5.37,0-1.13,1.01-2.49,1.01-3.61,0-1.56-1.4-3.79-1.41-5.34-.02-1.17,1.05-2.5,1.04-3.68-.02-1.5-1.35-3.76-1.35-5.27,0-1.2,1.07-2.51,1.07-3.71-.01-1.48-1.33-3.75-1.34-5.24-.01-1.24,1.1-2.52,1.1-3.75,0-.67-.6-1.46-.93-2.18-.98-.73-.02-1.03.2-1.06.61-.03.42.25.67.82.73.6.06,1.13.29,1.59.69,1.67,1.47,3.77,1.46,5.43,0,1.08-.96,2.48-.95,3.55.02,1.58,1.43,3.78,1.44,5.37.03,1.16-1.03,2.5-1.02,3.65.01.78.7,1.71,1.06,2.76,1.03,1.02-.03,1.89-.43,2.64-1.11,1.02-.92,2.44-.92,3.45-.03,1.73,1.53,3.79,1.54,5.53.02,1.05-.92,2.45-.91,3.48.02,1.62,1.46,3.77,1.48,5.4.06.6-.52,1.24-.77,1.88-.76.04,0,.08.02.12.03.44.04.84.18,1.21.41.15.1.3.21.44.34.55.49,1.18.81,1.88.95.18.04.36.06.55.07.04,0,.08.01.12.01,0,0,.01,0,.02,0,.98.03,1.96-.33,2.82-1.1,1.08-.96,2.48-.95,3.55.02,1.58,1.43,3.78,1.44,5.37.03,1.16-1.03,2.5-1.02,3.65.01.78.7,1.71,1.06,2.76,1.03,1.02-.03,1.89-.43,2.64-1.11,1.02-.92,2.44-.92,3.45-.03,1.73,1.53,3.79,1.54,5.53.02,1.05-.92,2.45-.91,3.48.02,1.62,1.46,3.77,1.48,5.4.06.65-.57,1.35-.81,2.04-.74.02,0,.03,0,.04,0,.12.01.23.04.35.06.42.11.83.34,1.22.69.59.52,1.26.84,2.01.97.05,0,.1.01.14.02.13.02.25.04.38.05.02,0,.03,0,.05,0,.99.04,1.99-.32,2.86-1.09,1.08-.96,2.48-.95,3.55.02,1.58,1.43,3.78,1.44,5.37.03,1.16-1.03,2.5-1.02,3.65.01.78.7,1.71,1.06,2.76,1.03,1.02-.03,1.89-.43,2.64-1.11,1.02-.92,2.44-.92,3.45-.03,1.73,1.53,3.79,1.54,5.53.02,1.05-.92,2.45-.91,3.48.02,1.62,1.46,3.77,1.48,5.4.06,1.17-1.02,2.5-1.02,3.65.01.72.64,1.57.99,2.54,1.03.43.02.72-.22.75-.6.03-.39-.24-.69-.68-.73Z"/><path class="cls-16" d="m333.24,179.78c-.69-.05-1.27-.31-1.78-.77-1.58-1.4-3.75-1.39-5.34,0-1.15,1.01-2.48,1.02-3.61.01-1.6-1.42-3.79-1.42-5.37,0-1.13,1.01-2.49,1.01-3.61,0-1.56-1.4-3.79-1.41-5.34-.02-1.17,1.05-2.5,1.04-3.68-.02-1.5-1.35-3.76-1.35-5.27,0-1.2,1.07-2.51,1.07-3.71-.01-1.48-1.33-3.75-1.34-5.24-.01-.69.61-1.39.87-2.09.8-.11-.01-.22-.03-.33-.05-.45-.11-.89-.36-1.33-.74-.67-.6-1.46-.93-2.18-.98-.05,0-.08,0-.12,0-1.07-.11-2.16.22-3.07,1.02-1.15,1.01-2.48,1.02-3.61.01-1.6-1.42-3.79-1.42-5.37,0-1.13,1.01-2.49,1.01-3.61,0-1.56-1.4-3.79-1.41-5.34-.02-1.17,1.05-2.5,1.04-3.68-.02-1.5-1.35-3.76-1.35-5.27,0-1.2,1.07-2.51,1.07-3.71-.01-1.48-1.33-3.75-1.34-5.24-.01-.62.55-1.25.82-1.88.82-.01,0-.02,0-.03,0-.52-.04-.97-.19-1.38-.46-.15-.1-.3-.22-.45-.35-.57-.51-1.23-.81-1.85-.92-.06-.01-.11-.02-.17-.03-.05,0-.11-.02-.16-.03-.03,0-.05,0-.07,0-1.06-.1-2.14.23-3.03,1.02-1.15,1.01-2.48,1.02-3.61.01-1.6-1.42-3.79-1.42-5.37,0-1.13,1.01-2.49,1.01-3.61,0-1.56-1.4-3.79-1.41-5.34-.02-1.17,1.05-2.5,1.04-3.68-.02-1.5-1.35-3.76-1.35-5.27,0-1.2,1.07-2.51,1.07-3.71-.01-1.48-1.33-3.75-1.34-5.24-.01-1.24,1.1-2.52,1.1-3.75,0-.67-.6-1.46-.93-2.18-.98-.73-.02-1.03.2-1.06.61-.03.42.25.67.82.73.6.06,1.13.29,1.59.69,1.67,1.47,3.77,1.46,5.43,0,1.08-.96,2.48-.95,3.55.02,1.58,1.43,3.78,1.44,5.37.03,1.16-1.03,2.5-1.02,3.65.01.78.7,1.71,1.06,2.76,1.03,1.02-.03,1.89-.43,2.64-1.11,1.02-.92,2.44-.92,3.45-.03,1.73,1.53,3.79,1.54,5.53.02,1.05-.92,2.45-.91,3.48.02,1.62,1.46,3.77,1.48,5.4.06.6-.52,1.24-.77,1.88-.76.04,0,.08.02.12.03.44.04.84.18,1.21.41.15.1.3.21.44.34.55.49,1.18.81,1.88.95.18.04.36.06.55.07.04,0,.08.01.12.01,0,0,.01,0,.02,0,.98.03,1.96-.33,2.82-1.1,1.08-.96,2.48-.95,3.55.02,1.58,1.43,3.78,1.44,5.37.03,1.16-1.03,2.5-1.02,3.65.01.78.7,1.71,1.06,2.76,1.03,1.02-.03,1.89-.43,2.64-1.11,1.02-.92,2.44-.92,3.45-.03,1.73,1.53,3.79,1.54,5.53.02,1.05-.92,2.45-.91,3.48.02,1.62,1.46,3.77,1.48,5.4.06.65-.57,1.35-.81,2.04-.74.02,0,.03,0,.04,0,.12.01.23.04.35.06.42.11.83.34,1.22.69.59.52,1.26.84,2.01.97.05,0,.1.01.14.02.13.02.25.04.38.05.02,0,.03,0,.05,0,.99.04,1.99-.32,2.86-1.09,1.08-.96,2.48-.95,3.55.02,1.58,1.43,3.78,1.44,5.37.03,1.16-1.03,2.5-1.02,3.65.01.78.7,1.71,1.06,2.76,1.03,1.02-.03,1.89-.43,2.64-1.11,1.02-.92,2.44-.92,3.45-.03,1.73,1.53,3.79,1.54,5.53.02,1.05-.92,2.45-.91,3.48.02,1.62,1.46,3.77,1.48,5.4.06,1.17-1.02,2.5-1.02,3.65.01.72.64,1.57.99,2.54,1.03.43.02.72-.22.75-.6.03-.39-.24-.69-.68-.73Z"/><rect class="cls-13" x="108.03" y="162.18" width="161.86" height="34.72"/><path class="cls-12" d="m267.38,164.68v29.72H110.53v-29.72h156.86m5-5H105.53v39.72h166.86v-39.72h0Z"/><path class="cls-12" d="m118.44,186.51c-.63-.7-.94-1.7-.94-3v-.92h2.39v1.1c0,1.04.44,1.56,1.31,1.56.43,0,.75-.13.98-.38.22-.25.33-.66.33-1.23,0-.67-.15-1.27-.46-1.78-.31-.51-.87-1.13-1.7-1.85-1.04-.92-1.77-1.75-2.19-2.5-.41-.74-.62-1.58-.62-2.52,0-1.27.32-2.26.97-2.96.64-.7,1.58-1.05,2.81-1.05s2.13.35,2.75,1.05c.62.7.93,1.7.93,3v.67h-2.39v-.83c0-.55-.11-.95-.32-1.21-.21-.25-.53-.38-.94-.38-.84,0-1.27.51-1.27,1.54,0,.58.16,1.13.47,1.63.31.51.89,1.12,1.71,1.84,1.06.92,1.79,1.76,2.19,2.51.4.75.6,1.63.6,2.65,0,1.32-.33,2.33-.98,3.04-.65.71-1.6,1.06-2.84,1.06s-2.15-.35-2.78-1.05Z"/><path class="cls-12" d="m128.82,173.53h-2.65v-2.3h7.82v2.3h-2.65v13.8h-2.53v-13.8Z"/><path class="cls-12" d="m135.56,171.23h2.53v16.1h-2.53v-16.1Z"/><path class="cls-12" d="m140.32,171.23h2.53v13.8h4.16v2.3h-6.69v-16.1Z"/><path class="cls-12" d="m148.57,171.23h2.53v13.8h4.16v2.3h-6.69v-16.1Z"/><path class="cls-12" d="m161.66,186.5c-.66-.71-.99-1.7-.99-2.99v-8.46c0-1.29.33-2.28.99-2.99.66-.71,1.61-1.06,2.85-1.06s2.19.35,2.85,1.06c.66.71.99,1.7.99,2.99v8.46c0,1.29-.33,2.28-.99,2.99-.66.71-1.61,1.06-2.85,1.06s-2.19-.35-2.85-1.06Zm4.16-2.83v-8.79c0-1.06-.44-1.59-1.31-1.59s-1.31.53-1.31,1.59v8.79c0,1.06.44,1.59,1.31,1.59s1.31-.53,1.31-1.59Z"/><path class="cls-12" d="m171.27,186.51c-.64-.7-.97-1.7-.97-3v-12.28h2.53v12.47c0,.55.11.95.33,1.2.22.25.54.37.95.37s.73-.12.95-.37c.22-.25.33-.64.33-1.2v-12.47h2.44v12.28c0,1.3-.32,2.3-.97,3s-1.58,1.05-2.81,1.05-2.16-.35-2.81-1.05Z"/><path class="cls-12" d="m181.97,173.53h-2.65v-2.3h7.82v2.3h-2.65v13.8h-2.53v-13.8Z"/><path class="cls-12" d="m193.54,186.5c-.66-.71-.99-1.7-.99-2.99v-8.46c0-1.29.33-2.28.99-2.99.66-.71,1.61-1.06,2.85-1.06s2.19.35,2.85,1.06c.66.71.99,1.7.99,2.99v8.46c0,1.29-.33,2.28-.99,2.99-.66.71-1.61,1.06-2.85,1.06s-2.19-.35-2.85-1.06Zm4.16-2.83v-8.79c0-1.06-.44-1.59-1.31-1.59s-1.31.53-1.31,1.59v8.79c0,1.06.44,1.59,1.31,1.59s1.31-.53,1.31-1.59Z"/><path class="cls-12" d="m202.28,171.23h6.69v2.3h-4.16v4.48h3.27v2.3h-3.27v7.02h-2.53v-16.1Z"/><path class="cls-12" d="m214.56,171.23h3.75c1.3,0,2.25.3,2.85.91.6.61.9,1.54.9,2.79v.99c0,1.67-.55,2.73-1.66,3.17v.05c.61.18,1.05.56,1.3,1.13.25.57.38,1.33.38,2.28v2.83c0,.46.02.83.05,1.12s.11.56.23.84h-2.58c-.09-.26-.15-.51-.18-.74s-.05-.64-.05-1.24v-2.94c0-.74-.12-1.25-.36-1.54-.24-.29-.65-.44-1.23-.44h-.87v6.9h-2.53v-16.1Zm3.45,6.9c.51,0,.89-.13,1.14-.39.25-.26.38-.7.38-1.31v-1.24c0-.58-.1-1-.31-1.27-.21-.26-.53-.39-.98-.39h-1.15v4.6h.92Z"/><path class="cls-12" d="m224.17,171.23h6.9v2.3h-4.37v4.25h3.47v2.3h-3.47v4.95h4.37v2.3h-6.9v-16.1Z"/><path class="cls-12" d="m234.82,171.23h3.43l2.62,16.1h-2.53l-.46-3.2v.05h-2.88l-.46,3.15h-2.35l2.62-16.1Zm2.76,10.76l-1.13-7.96h-.05l-1.1,7.96h2.28Z"/><path class="cls-12" d="m243.18,186.52c-.64-.69-.95-1.66-.95-2.92v-8.65c0-1.26.32-2.23.95-2.92s1.56-1.04,2.77-1.04,2.14.35,2.77,1.04.95,1.66.95,2.92v1.7h-2.39v-1.86c0-1-.42-1.49-1.26-1.49s-1.27.5-1.27,1.49v8.99c0,.98.42,1.47,1.27,1.47s1.26-.49,1.26-1.47v-2.46h2.39v2.28c0,1.26-.32,2.23-.95,2.92s-1.56,1.04-2.77,1.04-2.14-.35-2.77-1.04Z"/><path class="cls-12" d="m251.54,171.23h2.53v6.56h2.71v-6.56h2.53v16.1h-2.53v-7.25h-2.71v7.25h-2.53v-16.1Z"/><path class="cls-10" d="m74.02,116.56c-.87-.96-1.3-2.34-1.3-4.14v-1.27h3.3v1.52c0,1.44.6,2.16,1.81,2.16.59,0,1.04-.17,1.35-.52.31-.35.46-.92.46-1.7,0-.93-.21-1.75-.64-2.46s-1.21-1.56-2.35-2.56c-1.44-1.27-2.44-2.42-3.02-3.44-.57-1.03-.86-2.19-.86-3.48,0-1.76.44-3.12,1.33-4.08.89-.96,2.18-1.44,3.87-1.44s2.94.48,3.79,1.44c.86.96,1.29,2.34,1.29,4.14v.92h-3.3v-1.14c0-.76-.15-1.32-.44-1.67-.3-.35-.73-.52-1.3-.52-1.16,0-1.75.71-1.75,2.13,0,.8.22,1.56.65,2.25.43.7,1.22,1.54,2.37,2.54,1.46,1.27,2.47,2.42,3.02,3.46s.83,2.25.83,3.65c0,1.82-.45,3.22-1.35,4.19-.9.97-2.21,1.46-3.92,1.46s-2.97-.48-3.84-1.44Z"/><path class="cls-10" d="m88.81,95.47h4.73l3.62,22.22h-3.49l-.63-4.41v.06h-3.97l-.63,4.35h-3.24l3.62-22.22Zm3.81,14.86l-1.56-10.98h-.06l-1.52,10.98h3.14Z"/><path class="cls-10" d="m99.84,95.47h9.24v3.17h-5.75v6.19h4.51v3.17h-4.51v9.68h-3.49v-22.22Z"/><path class="cls-10" d="m111.76,95.47h9.52v3.17h-6.03v5.87h4.79v3.17h-4.79v6.83h6.03v3.17h-9.52v-22.22Z"/><path class="cls-10" d="m130.27,95.47h5.33c1.74,0,3.04.47,3.9,1.4.87.93,1.3,2.3,1.3,4.1v11.24c0,1.8-.43,3.16-1.3,4.1-.87.93-2.17,1.4-3.9,1.4h-5.33v-22.22Zm5.27,19.05c.57,0,1.01-.17,1.32-.51.31-.34.46-.89.46-1.65v-11.56c0-.76-.15-1.31-.46-1.65-.31-.34-.75-.51-1.32-.51h-1.78v15.87h1.78Z"/><path class="cls-10" d="m143.86,95.47h5.17c1.8,0,3.11.42,3.94,1.25.83.84,1.24,2.12,1.24,3.86v1.37c0,2.31-.76,3.77-2.29,4.38v.06c.85.25,1.44.77,1.79,1.56.35.78.52,1.83.52,3.14v3.9c0,.63.02,1.15.06,1.54.04.39.15.78.32,1.16h-3.56c-.13-.36-.21-.7-.25-1.02-.04-.32-.06-.89-.06-1.71v-4.06c0-1.02-.16-1.73-.49-2.13s-.89-.6-1.7-.6h-1.21v9.52h-3.49v-22.22Zm4.76,9.52c.7,0,1.22-.18,1.57-.54.35-.36.52-.96.52-1.81v-1.71c0-.8-.14-1.39-.43-1.75-.29-.36-.74-.54-1.35-.54h-1.59v6.35h1.27Z"/><path class="cls-10" d="m157.47,95.47h3.49v22.22h-3.49v-22.22Z"/><path class="cls-10" d="m164.19,95.47h4.38l3.4,13.3h.06v-13.3h3.11v22.22h-3.59l-4.19-16.22h-.06v16.22h-3.11v-22.22Z"/><path class="cls-10" d="m178.36,95.47h3.49v9.37l4.44-9.37h3.49l-4.16,8.16,4.22,14.06h-3.65l-2.95-9.9-1.4,2.83v7.08h-3.49v-22.22Z"/><path class="cls-10" d="m192.51,95.47h3.49v22.22h-3.49v-22.22Z"/><path class="cls-10" d="m199.23,95.47h4.38l3.4,13.3h.06v-13.3h3.11v22.22h-3.59l-4.19-16.22h-.06v16.22h-3.11v-22.22Z"/><path class="cls-10" d="m214.57,116.56c-.89-.96-1.33-2.34-1.33-4.14v-11.68c0-1.8.44-3.18,1.33-4.14.89-.96,2.18-1.44,3.87-1.44s2.98.48,3.87,1.44c.89.96,1.33,2.34,1.33,4.14v1.9h-3.3v-2.13c0-1.46-.6-2.19-1.81-2.19s-1.81.73-1.81,2.19v12.16c0,1.44.6,2.16,1.81,2.16s1.81-.72,1.81-2.16v-4.35h-1.75v-3.17h5.05v7.27c0,1.8-.44,3.18-1.33,4.14-.89.96-2.18,1.44-3.87,1.44s-2.98-.48-3.87-1.44Z"/><path class="cls-10" d="m232.06,95.47h3.37l1.56,17.08h.06l1.65-17.08h3.81l1.65,17.08h.06l1.56-17.08h3.02l-2.25,22.22h-4.35l-1.59-14.98h-.06l-1.59,14.98h-4.64l-2.25-22.22Z"/><path class="cls-10" d="m253.56,95.47h4.73l3.62,22.22h-3.49l-.63-4.41v.06h-3.97l-.63,4.35h-3.24l3.62-22.22Zm3.81,14.86l-1.56-10.98h-.06l-1.52,10.98h3.14Z"/><path class="cls-10" d="m266.21,98.64h-3.65v-3.17h10.79v3.17h-3.65v19.05h-3.49v-19.05Z"/><path class="cls-10" d="m276.03,95.47h9.52v3.17h-6.03v5.87h4.79v3.17h-4.79v6.83h6.03v3.17h-9.52v-22.22Z"/><path class="cls-10" d="m288.39,95.47h5.17c1.8,0,3.11.42,3.94,1.25.83.84,1.24,2.12,1.24,3.86v1.37c0,2.31-.76,3.77-2.29,4.38v.06c.85.25,1.44.77,1.79,1.56.35.78.52,1.83.52,3.14v3.9c0,.63.02,1.15.06,1.54.04.39.15.78.32,1.16h-3.56c-.13-.36-.21-.7-.25-1.02-.04-.32-.06-.89-.06-1.71v-4.06c0-1.02-.16-1.73-.49-2.13s-.89-.6-1.7-.6h-1.21v9.52h-3.49v-22.22Zm4.76,9.52c.7,0,1.22-.18,1.57-.54.35-.36.52-.96.52-1.81v-1.71c0-.8-.14-1.39-.43-1.75-.29-.36-.74-.54-1.35-.54h-1.59v6.35h1.27Z"/><path class="cls-10" d="m303.15,117.69h-1.14v-3.37h3.36v3.02l-1.75,4.16h-1.62l1.14-3.81Z"/><path class="cls-10" d="m69.06,149.37c-.87-.96-1.3-2.34-1.3-4.14v-1.27h3.3v1.52c0,1.44.6,2.16,1.81,2.16.59,0,1.04-.17,1.35-.52.31-.35.46-.92.46-1.7,0-.93-.21-1.75-.64-2.46s-1.21-1.56-2.35-2.56c-1.44-1.27-2.44-2.42-3.02-3.44-.57-1.03-.86-2.19-.86-3.48,0-1.76.44-3.12,1.33-4.08.89-.96,2.18-1.44,3.87-1.44s2.94.48,3.79,1.44c.86.96,1.29,2.34,1.29,4.14v.92h-3.3v-1.14c0-.76-.15-1.32-.44-1.67-.3-.35-.73-.52-1.3-.52-1.16,0-1.75.71-1.75,2.13,0,.8.22,1.56.65,2.25.43.7,1.22,1.54,2.37,2.54,1.46,1.27,2.47,2.42,3.02,3.46s.83,2.25.83,3.65c0,1.82-.45,3.22-1.35,4.19-.9.97-2.21,1.46-3.92,1.46s-2.97-.48-3.84-1.44Z"/><path class="cls-10" d="m83.85,128.27h4.73l3.62,22.22h-3.49l-.63-4.41v.06h-3.97l-.63,4.35h-3.24l3.62-22.22Zm3.81,14.86l-1.56-10.98h-.06l-1.52,10.98h3.14Z"/><path class="cls-10" d="m94.88,128.27h4.38l3.4,13.3h.06v-13.3h3.11v22.22h-3.59l-4.19-16.22h-.06v16.22h-3.11v-22.22Z"/><path class="cls-10" d="m109.04,128.27h3.49v22.22h-3.49v-22.22Z"/><path class="cls-10" d="m118.86,131.44h-3.65v-3.17h10.79v3.17h-3.65v19.05h-3.49v-19.05Z"/><path class="cls-10" d="m130.29,128.27h4.73l3.62,22.22h-3.49l-.63-4.41v.06h-3.97l-.63,4.35h-3.24l3.62-22.22Zm3.81,14.86l-1.56-10.98h-.06l-1.52,10.98h3.14Z"/><path class="cls-10" d="m142.94,131.44h-3.65v-3.17h10.79v3.17h-3.65v19.05h-3.49v-19.05Z"/><path class="cls-10" d="m152.76,128.27h3.49v22.22h-3.49v-22.22Z"/><path class="cls-10" d="m160.7,149.35c-.91-.97-1.36-2.35-1.36-4.13v-11.68c0-1.78.45-3.15,1.36-4.13.91-.97,2.22-1.46,3.94-1.46s3.03.49,3.94,1.46c.91.97,1.37,2.35,1.37,4.13v11.68c0,1.78-.46,3.15-1.37,4.13-.91.97-2.22,1.46-3.94,1.46s-3.03-.49-3.94-1.46Zm5.75-3.9v-12.13c0-1.46-.6-2.19-1.81-2.19s-1.81.73-1.81,2.19v12.13c0,1.46.6,2.19,1.81,2.19s1.81-.73,1.81-2.19Z"/><path class="cls-10" d="m172.99,128.27h4.38l3.4,13.3h.06v-13.3h3.11v22.22h-3.59l-4.19-16.22h-.06v16.22h-3.11v-22.22Z"/><path class="cls-10" d="m194.89,131.44h3.15l2.41,14.81h-2.33l-.42-2.94v.04h-2.65l-.42,2.9h-2.16l2.41-14.81Zm2.54,9.9l-1.04-7.32h-.04l-1.02,7.32h2.1Z"/><path class="cls-10" d="m202.31,131.44h2.92l2.26,8.87h.04v-8.87h2.07v14.81h-2.39l-2.79-10.81h-.04v10.81h-2.07v-14.81Z"/><path class="cls-10" d="m211.82,131.44h3.56c1.16,0,2.02.31,2.6.93.58.62.87,1.53.87,2.73v7.49c0,1.2-.29,2.11-.87,2.73-.58.62-1.45.93-2.6.93h-3.56v-14.81Zm3.51,12.7c.38,0,.67-.11.88-.34.2-.23.31-.59.31-1.1v-7.7c0-.51-.1-.87-.31-1.1-.2-.23-.5-.34-.88-.34h-1.19v10.58h1.19Z"/><path class="cls-10" d="m227.51,128.27h3.49v9.05h3.75v-9.05h3.49v22.22h-3.49v-10h-3.75v10h-3.49v-22.22Z"/><path class="cls-10" d="m245.08,141.03l-4.22-12.76h3.71l2.38,8.16h.06l2.38-8.16h3.4l-4.22,12.76v9.46h-3.49v-9.46Z"/><path class="cls-10" d="m256.09,149.37c-.89-.96-1.33-2.34-1.33-4.14v-11.68c0-1.8.44-3.18,1.33-4.14.89-.96,2.18-1.44,3.87-1.44s2.98.48,3.87,1.44c.89.96,1.33,2.34,1.33,4.14v1.9h-3.3v-2.13c0-1.46-.6-2.19-1.81-2.19s-1.81.73-1.81,2.19v12.16c0,1.44.6,2.16,1.81,2.16s1.81-.72,1.81-2.16v-4.35h-1.75v-3.17h5.05v7.27c0,1.8-.44,3.18-1.33,4.14-.89.96-2.18,1.44-3.87,1.44s-2.98-.48-3.87-1.44Z"/><path class="cls-10" d="m268.17,128.27h3.49v22.22h-3.49v-22.22Z"/><path class="cls-10" d="m274.89,128.27h9.52v3.17h-6.03v5.87h4.79v3.17h-4.79v6.83h6.03v3.17h-9.52v-22.22Z"/><path class="cls-10" d="m287.24,128.27h4.38l3.4,13.3h.06v-13.3h3.11v22.22h-3.59l-4.19-16.22h-.06v16.22h-3.11v-22.22Z"/><path class="cls-10" d="m301.41,128.27h9.52v3.17h-6.03v5.87h4.79v3.17h-4.79v6.83h6.03v3.17h-9.52v-22.22Z"/><line id="line" class="cls-4" x1="192.8" y1="128.91" x2="218.91" y2="128.91"/><line id="line-2" class="cls-4" x1="192.8" y1="149.96" x2="218.91" y2="149.96"/><rect class="cls-16" x="26.7" y="13.1" width="5.94" height="36.96"/><rect class="cls-15" x="32.01" y="567.04" width="74.51" height="8.01"/><rect class="cls-15" x="160.55" y="567.04" width="69.51" height="8.01"/><rect class="cls-15" x="295.09" y="567.04" width="37.12" height="8.01"/><circle class="cls-14" cx="67.9" cy="533.24" r="13.65"/><g id="line_bar"><g class="cls-8"><line class="cls-7" x1="389.74" y1="375.39" x2="10.26" y2="598.56"/><line class="cls-7" x1="389.37" y1="367.67" x2="9.89" y2="590.84"/><line class="cls-7" x1="389" y1="359.95" x2="9.51" y2="583.12"/><line class="cls-7" x1="388.64" y1="352.23" x2="9.14" y2="575.4"/><line class="cls-7" x1="388.27" y1="344.5" x2="8.77" y2="567.68"/><line class="cls-7" x1="387.91" y1="336.78" x2="8.39" y2="559.95"/><line class="cls-7" x1="387.54" y1="329.06" x2="8.02" y2="552.23"/><line class="cls-7" x1="387.17" y1="321.34" x2="7.64" y2="544.51"/><line class="cls-7" x1="386.81" y1="313.62" x2="7.27" y2="536.79"/><line class="cls-7" x1="386.44" y1="305.89" x2="6.9" y2="529.07"/><line class="cls-7" x1="386.08" y1="298.17" x2="6.52" y2="521.35"/><line class="cls-7" x1="385.71" y1="290.45" x2="6.15" y2="513.63"/><line class="cls-7" x1="385.34" y1="282.73" x2="5.78" y2="505.91"/><line class="cls-7" x1="384.98" y1="275.01" x2="5.4" y2="498.18"/><line class="cls-7" x1="384.61" y1="267.28" x2="5.03" y2="490.46"/><line class="cls-7" x1="384.24" y1="259.56" x2="4.66" y2="482.74"/><line class="cls-7" x1="383.88" y1="251.84" x2="4.28" y2="475.02"/><line class="cls-7" x1="383.51" y1="244.12" x2="3.91" y2="467.3"/><line class="cls-7" x1="383.15" y1="236.4" x2="3.53" y2="459.58"/><line class="cls-7" x1="382.78" y1="228.67" x2="3.16" y2="451.86"/><line class="cls-7" x1="382.41" y1="220.95" x2="2.79" y2="444.14"/><line class="cls-7" x1="382.05" y1="213.23" x2="2.41" y2="436.41"/><line class="cls-7" x1="381.68" y1="205.51" x2="2.04" y2="428.69"/><line class="cls-7" x1="381.32" y1="197.79" x2="1.67" y2="420.97"/><line class="cls-7" x1="380.95" y1="190.06" x2="1.29" y2="413.25"/><line class="cls-7" x1="380.58" y1="182.34" x2=".92" y2="405.53"/><line class="cls-7" x1="380.22" y1="174.62" x2=".55" y2="397.81"/><line class="cls-7" x1="379.85" y1="166.9" x2=".17" y2="390.09"/><line class="cls-7" x1="379.49" y1="159.18" x2="-.2" y2="382.37"/><line class="cls-7" x1="379.12" y1="151.45" x2="-.58" y2="374.64"/><line class="cls-7" x1="378.75" y1="143.73" x2="-.95" y2="366.92"/><line class="cls-7" x1="378.39" y1="136.01" x2="-1.32" y2="359.2"/><line class="cls-7" x1="378.02" y1="128.29" x2="-1.7" y2="351.48"/><line class="cls-7" x1="377.66" y1="120.57" x2="-2.07" y2="343.76"/><line class="cls-7" x1="377.29" y1="112.84" x2="-2.44" y2="336.04"/><line class="cls-7" x1="376.92" y1="105.12" x2="-2.82" y2="328.32"/><line class="cls-7" x1="376.56" y1="97.4" x2="-3.19" y2="320.59"/><line class="cls-7" x1="376.19" y1="89.68" x2="-3.57" y2="312.87"/><line class="cls-7" x1="375.82" y1="81.96" x2="-3.94" y2="305.15"/><line class="cls-7" x1="375.46" y1="74.24" x2="-4.31" y2="297.43"/><line class="cls-7" x1="375.09" y1="66.51" x2="-4.69" y2="289.71"/><line class="cls-7" x1="374.73" y1="58.79" x2="-5.06" y2="281.99"/><line class="cls-7" x1="374.36" y1="51.07" x2="-5.43" y2="274.27"/><line class="cls-7" x1="373.99" y1="43.35" x2="-5.81" y2="266.55"/><line class="cls-7" x1="373.63" y1="35.63" x2="-6.18" y2="258.82"/><line class="cls-7" x1="633.43" y1="590.06" x2="253.96" y2="813.23"/><line class="cls-7" x1="633.07" y1="582.34" x2="253.58" y2="805.51"/><line class="cls-7" x1="632.7" y1="574.62" x2="253.21" y2="797.79"/><line class="cls-7" x1="632.34" y1="566.89" x2="252.84" y2="790.07"/><line class="cls-7" x1="631.97" y1="559.17" x2="252.46" y2="782.34"/><line class="cls-7" x1="631.6" y1="551.45" x2="252.09" y2="774.62"/><line class="cls-7" x1="631.24" y1="543.73" x2="251.72" y2="766.9"/><line class="cls-7" x1="630.87" y1="536.01" x2="251.34" y2="759.18"/><line class="cls-7" x1="630.5" y1="528.28" x2="250.97" y2="751.46"/><line class="cls-7" x1="630.14" y1="520.56" x2="250.6" y2="743.74"/><line class="cls-7" x1="629.77" y1="512.84" x2="250.22" y2="736.02"/><line class="cls-7" x1="629.41" y1="505.12" x2="249.85" y2="728.3"/><line class="cls-7" x1="629.04" y1="497.4" x2="249.47" y2="720.57"/><line class="cls-7" x1="628.67" y1="489.67" x2="249.1" y2="712.85"/><line class="cls-7" x1="628.31" y1="481.95" x2="248.73" y2="705.13"/><line class="cls-7" x1="627.94" y1="474.23" x2="248.35" y2="697.41"/><line class="cls-7" x1="627.58" y1="466.51" x2="247.98" y2="689.69"/><line class="cls-7" x1="627.21" y1="458.79" x2="247.61" y2="681.97"/><line class="cls-7" x1="626.84" y1="451.06" x2="247.23" y2="674.25"/><line class="cls-7" x1="626.48" y1="443.34" x2="246.86" y2="666.53"/><line class="cls-7" x1="626.11" y1="435.62" x2="246.48" y2="658.8"/><line class="cls-7" x1="625.75" y1="427.9" x2="246.11" y2="651.08"/><line class="cls-7" x1="625.38" y1="420.18" x2="245.74" y2="643.36"/><line class="cls-7" x1="625.01" y1="412.46" x2="245.36" y2="635.64"/><line class="cls-7" x1="624.65" y1="404.73" x2="244.99" y2="627.92"/><line class="cls-7" x1="624.28" y1="397.01" x2="244.62" y2="620.2"/><line class="cls-7" x1="623.92" y1="389.29" x2="244.24" y2="612.48"/><line class="cls-7" x1="623.55" y1="381.57" x2="243.87" y2="604.76"/><line class="cls-7" x1="623.18" y1="373.85" x2="243.5" y2="597.03"/><line class="cls-7" x1="622.82" y1="366.12" x2="243.12" y2="589.31"/><line class="cls-7" x1="622.45" y1="358.4" x2="242.75" y2="581.59"/><line class="cls-7" x1="622.09" y1="350.68" x2="242.37" y2="573.87"/><line class="cls-7" x1="621.72" y1="342.96" x2="242" y2="566.15"/><line class="cls-7" x1="621.35" y1="335.24" x2="241.63" y2="558.43"/><line class="cls-7" x1="620.99" y1="327.51" x2="241.25" y2="550.71"/><line class="cls-7" x1="620.62" y1="319.79" x2="240.88" y2="542.98"/><line class="cls-7" x1="620.25" y1="312.07" x2="240.51" y2="535.26"/><line class="cls-7" x1="619.89" y1="304.35" x2="240.13" y2="527.54"/><line class="cls-7" x1="619.52" y1="296.63" x2="239.76" y2="519.82"/><line class="cls-7" x1="619.16" y1="288.9" x2="239.39" y2="512.1"/><line class="cls-7" x1="618.79" y1="281.18" x2="239.01" y2="504.38"/><line class="cls-7" x1="618.42" y1="273.46" x2="238.64" y2="496.66"/><line class="cls-7" x1="618.06" y1="265.74" x2="238.26" y2="488.94"/><line class="cls-7" x1="617.69" y1="258.02" x2="237.89" y2="481.21"/><line class="cls-7" x1="617.33" y1="250.29" x2="237.52" y2="473.49"/></g></g><line class="cls-3" y1="263.51" x2="384.24" y2="263.51"/><line class="cls-6" x1="30.33" y1="373.88" x2="30.33" y2="373.88"/><line class="cls-2" x1="33.27" y1="373.88" x2="114.14" y2="373.88"/><line class="cls-6" x1="115.61" y1="373.88" x2="115.61" y2="373.88"/><path class="cls-13" d="m39.66,381.48h1.54v8.4h2.53v1.4h-4.07v-9.8Z"/><path class="cls-13" d="m46.01,381.48h2.09l1.6,9.8h-1.54l-.28-1.95v.03h-1.75l-.28,1.92h-1.43l1.6-9.8Zm1.68,6.55l-.69-4.84h-.03l-.67,4.84h1.39Z"/><path class="cls-13" d="m51.17,390.79c-.39-.42-.58-1.01-.58-1.78v-5.26c0-.77.19-1.36.58-1.78.39-.42.95-.63,1.69-.63s1.3.21,1.69.63c.39.42.58,1.01.58,1.78v1.04h-1.46v-1.13c0-.61-.26-.91-.77-.91s-.77.3-.77.91v5.47c0,.6.26.9.77.9s.77-.3.77-.9v-1.5h1.46v1.39c0,.77-.19,1.36-.58,1.78-.39.42-.95.63-1.69.63s-1.3-.21-1.69-.63Z"/><path class="cls-13" d="m56.32,381.48h1.54v4.13l1.96-4.13h1.54l-1.83,3.6,1.86,6.2h-1.61l-1.3-4.37-.62,1.25v3.12h-1.54v-9.8Z"/><path class="cls-13" d="m62.4,381.48h4.2v1.4h-2.66v2.59h2.11v1.4h-2.11v3.01h2.66v1.4h-4.2v-9.8Z"/><path class="cls-13" d="m67.76,381.48h2.35c.77,0,1.34.21,1.72.62.38.41.57,1.01.57,1.81v4.96c0,.79-.19,1.4-.57,1.81-.38.41-.96.62-1.72.62h-2.35v-9.8Zm2.32,8.4c.25,0,.45-.07.58-.22.14-.15.2-.39.2-.73v-5.1c0-.34-.07-.58-.2-.73s-.33-.22-.58-.22h-.78v7h.78Z"/><path class="cls-13" d="m76.55,390.79c-.38-.42-.57-1.03-.57-1.83v-.56h1.46v.67c0,.63.27.95.8.95.26,0,.46-.08.6-.23.13-.15.2-.4.2-.75,0-.41-.09-.77-.28-1.08-.19-.31-.53-.69-1.04-1.13-.63-.56-1.08-1.07-1.33-1.52-.25-.45-.38-.96-.38-1.53,0-.77.2-1.37.59-1.8.39-.42.96-.64,1.71-.64s1.29.21,1.67.64c.38.42.57,1.03.57,1.83v.41h-1.46v-.5c0-.34-.07-.58-.2-.73-.13-.15-.32-.23-.57-.23-.51,0-.77.31-.77.94,0,.35.1.69.29.99.19.31.54.68,1.04,1.12.64.56,1.09,1.07,1.33,1.53.24.46.36.99.36,1.61,0,.8-.2,1.42-.59,1.85-.4.43-.97.64-1.73.64s-1.31-.21-1.69-.64Z"/><path class="cls-13" d="m82.88,381.48h2.09l1.6,9.8h-1.54l-.28-1.95v.03h-1.75l-.28,1.92h-1.43l1.6-9.8Zm1.68,6.55l-.69-4.84h-.03l-.67,4.84h1.39Z"/><path class="cls-13" d="m87.59,381.48h4.07v1.4h-2.53v2.73h1.99v1.4h-1.99v4.27h-1.54v-9.8Z"/><path class="cls-13" d="m92.68,381.48h4.2v1.4h-2.66v2.59h2.11v1.4h-2.11v3.01h2.66v1.4h-4.2v-9.8Z"/><path class="cls-13" d="m98.04,381.48h1.54v8.4h2.53v1.4h-4.07v-9.8Z"/><path class="cls-13" d="m103.32,387.11l-1.86-5.63h1.64l1.05,3.6h.03l1.05-3.6h1.5l-1.86,5.63v4.17h-1.54v-4.17Z"/><path class="cls-13" d="m52.23,397.48h2.2l.98,7.01h.03l.98-7.01h2.2v9.8h-1.46v-7.42h-.03l-1.12,7.42h-1.29l-1.12-7.42h-.03v7.42h-1.34v-9.8Z"/><path class="cls-13" d="m61.23,397.48h2.09l1.6,9.8h-1.54l-.28-1.95v.03h-1.75l-.28,1.92h-1.43l1.6-9.8Zm1.68,6.55l-.69-4.84h-.03l-.67,4.84h1.39Z"/><path class="cls-13" d="m65.94,397.48h1.93l1.5,5.87h.03v-5.87h1.37v9.8h-1.58l-1.85-7.15h-.03v7.15h-1.37v-9.8Z"/><path class="cls-13" d="m73.38,397.48h2.09l1.6,9.8h-1.54l-.28-1.95v.03h-1.75l-.28,1.92h-1.43l1.6-9.8Zm1.68,6.55l-.69-4.84h-.03l-.67,4.84h1.39Z"/><path class="cls-13" d="m78.53,406.79c-.39-.42-.59-1.03-.59-1.83v-5.15c0-.79.2-1.4.59-1.83.39-.42.96-.64,1.71-.64s1.32.21,1.71.64c.39.42.59,1.03.59,1.83v.84h-1.46v-.94c0-.64-.27-.97-.8-.97s-.8.32-.8.97v5.36c0,.63.27.95.8.95s.8-.32.8-.95v-1.92h-.77v-1.4h2.23v3.21c0,.79-.2,1.4-.59,1.83-.39.42-.96.64-1.71.64s-1.32-.21-1.71-.64Z"/><path class="cls-13" d="m83.81,397.48h4.2v1.4h-2.66v2.59h2.11v1.4h-2.11v3.01h2.66v1.4h-4.2v-9.8Z"/><path class="cls-13" d="m89.17,397.48h2.35c.77,0,1.34.21,1.72.62.38.41.57,1.01.57,1.81v4.96c0,.79-.19,1.4-.57,1.81-.38.41-.96.62-1.72.62h-2.35v-9.8Zm2.32,8.4c.25,0,.45-.07.58-.22.14-.15.2-.39.2-.73v-5.1c0-.34-.07-.58-.2-.73s-.33-.22-.58-.22h-.78v7h.78Z"/><path class="cls-13" d="m36.44,413.48h2.35c.77,0,1.34.21,1.72.62.38.41.57,1.01.57,1.81v4.96c0,.79-.19,1.4-.57,1.81-.38.41-.96.62-1.72.62h-2.35v-9.8Zm2.32,8.4c.25,0,.45-.07.58-.22.14-.15.2-.39.2-.73v-5.1c0-.34-.07-.58-.2-.73s-.33-.22-.58-.22h-.78v7h.78Z"/><path class="cls-13" d="m42.41,413.48h2.28c.79,0,1.37.18,1.74.55.36.37.55.94.55,1.7v.6c0,1.02-.34,1.66-1.01,1.93v.03c.37.11.64.34.79.69.15.35.23.81.23,1.39v1.72c0,.28,0,.51.03.68.02.17.06.34.14.51h-1.57c-.06-.16-.09-.31-.11-.45-.02-.14-.03-.39-.03-.76v-1.79c0-.45-.07-.76-.22-.94-.15-.18-.39-.27-.75-.27h-.53v4.2h-1.54v-9.8Zm2.1,4.2c.31,0,.54-.08.69-.24.15-.16.23-.42.23-.8v-.76c0-.35-.06-.61-.19-.77s-.32-.24-.6-.24h-.7v2.8h.56Z"/><path class="cls-13" d="m48.33,413.48h1.54v9.8h-1.54v-9.8Z"/><path class="cls-13" d="m51.3,413.48h1.93l1.5,5.87h.03v-5.87h1.37v9.8h-1.58l-1.85-7.15h-.03v7.15h-1.37v-9.8Z"/><path class="cls-13" d="m57.56,413.48h1.54v4.13l1.96-4.13h1.54l-1.83,3.6,1.86,6.2h-1.61l-1.3-4.37-.62,1.25v3.12h-1.54v-9.8Z"/><path class="cls-13" d="m63.63,413.48h1.54v9.8h-1.54v-9.8Z"/><path class="cls-13" d="m66.6,413.48h1.93l1.5,5.87h.03v-5.87h1.37v9.8h-1.58l-1.85-7.15h-.03v7.15h-1.37v-9.8Z"/><path class="cls-13" d="m73.33,422.79c-.39-.42-.59-1.03-.59-1.83v-5.15c0-.79.2-1.4.59-1.83.39-.42.96-.64,1.71-.64s1.32.21,1.71.64c.39.42.59,1.03.59,1.83v.84h-1.46v-.94c0-.64-.27-.97-.8-.97s-.8.32-.8.97v5.36c0,.63.27.95.8.95s.8-.32.8-.95v-1.92h-.77v-1.4h2.23v3.21c0,.79-.2,1.4-.59,1.83-.39.42-.96.64-1.71.64s-1.32-.21-1.71-.64Z"/><path class="cls-13" d="m80.77,413.48h1.48l.69,7.53h.03l.73-7.53h1.68l.73,7.53h.03l.69-7.53h1.33l-.99,9.8h-1.92l-.7-6.61h-.03l-.7,6.61h-2.04l-.99-9.8Z"/><path class="cls-13" d="m90.2,413.48h2.09l1.6,9.8h-1.54l-.28-1.95v.03h-1.75l-.28,1.92h-1.43l1.6-9.8Zm1.68,6.55l-.69-4.84h-.03l-.67,4.84h1.39Z"/><path class="cls-13" d="m95.47,414.88h-1.61v-1.4h4.76v1.4h-1.61v8.4h-1.54v-8.4Z"/><path class="cls-13" d="m99.64,413.48h4.2v1.4h-2.66v2.59h2.11v1.4h-2.11v3.01h2.66v1.4h-4.2v-9.8Z"/><path class="cls-13" d="m105,413.48h2.28c.79,0,1.37.18,1.74.55.36.37.55.94.55,1.7v.6c0,1.02-.34,1.66-1.01,1.93v.03c.37.11.64.34.79.69.15.35.23.81.23,1.39v1.72c0,.28,0,.51.03.68.02.17.06.34.14.51h-1.57c-.06-.16-.09-.31-.11-.45-.02-.14-.03-.39-.03-.76v-1.79c0-.45-.07-.76-.22-.94-.15-.18-.39-.27-.75-.27h-.53v4.2h-1.54v-9.8Zm2.1,4.2c.31,0,.54-.08.69-.24.15-.16.23-.42.23-.8v-.76c0-.35-.06-.61-.19-.77s-.32-.24-.6-.24h-.7v2.8h.56Z"/><path class="cls-16" d="m27.04,364.55c0-.85.14-1.58.41-2.18.27-.61.76-1.28,1.46-2.01.69-.74,1.17-1.37,1.44-1.89.27-.52.4-1.07.4-1.63,0-.51-.08-.86-.25-1.06s-.41-.3-.72-.3c-.65,0-.97.39-.97,1.17v1.27h-1.77v-1.16c0-.96.24-1.7.71-2.22.48-.52,1.17-.77,2.07-.77s1.6.26,2.07.77c.48.52.71,1.26.71,2.22,0,.73-.17,1.43-.52,2.12-.35.69-.94,1.48-1.79,2.38-.56.59-.93,1.07-1.12,1.44-.19.37-.29.76-.29,1.18v.25h3.55v1.7h-5.41v-1.29Z"/><path class="cls-16" d="m34.21,364.04h1.8v1.8h-1.8v-1.8Z"/><path class="cls-16" d="m37.72,364.55c0-.85.14-1.58.41-2.18.27-.61.76-1.28,1.46-2.01.69-.74,1.17-1.37,1.44-1.89.27-.52.4-1.07.4-1.63,0-.51-.08-.86-.25-1.06s-.41-.3-.72-.3c-.65,0-.97.39-.97,1.17v1.27h-1.77v-1.16c0-.96.24-1.7.71-2.22.48-.52,1.17-.77,2.07-.77s1.6.26,2.07.77c.48.52.71,1.26.71,2.22,0,.73-.17,1.43-.52,2.12-.35.69-.94,1.48-1.79,2.38-.56.59-.93,1.07-1.12,1.44-.19.37-.29.76-.29,1.18v.25h3.55v1.7h-5.41v-1.29Z"/><path class="cls-10" d="m47.83,356.04h2.32c.79,0,1.37.18,1.74.55s.55.94.55,1.7v.39c0,.5-.08.91-.25,1.23s-.41.55-.75.69v.03c.77.26,1.15.94,1.15,2.04v.84c0,.76-.2,1.33-.6,1.73-.4.4-.98.6-1.74.6h-2.42v-9.8Zm2.14,3.99c.31,0,.54-.08.69-.24.15-.16.23-.42.23-.8v-.55c0-.35-.06-.61-.19-.77s-.33-.24-.6-.24h-.74v2.59h.6Zm.28,4.41c.27,0,.47-.07.6-.22.13-.14.2-.39.2-.75v-.85c0-.45-.08-.76-.23-.93-.15-.17-.41-.26-.76-.26h-.69v3.01h.88Z"/><path class="cls-10" d="m53.76,356.04h1.54v9.8h-1.54v-9.8Z"/><path class="cls-10" d="m56.73,356.04h1.54v8.4h2.53v1.4h-4.07v-9.8Z"/><path class="cls-10" d="m61.83,356.04h1.54v8.4h2.53v1.4h-4.07v-9.8Z"/><path class="cls-10" d="m66.92,356.04h1.54v9.8h-1.54v-9.8Z"/><path class="cls-10" d="m70.38,365.33c-.4-.43-.6-1.04-.6-1.82v-5.15c0-.78.2-1.39.6-1.82s.98-.64,1.74-.64,1.33.21,1.74.64.6,1.04.6,1.82v5.15c0,.78-.2,1.39-.6,1.82s-.98.64-1.74.64-1.33-.21-1.74-.64Zm2.53-1.72v-5.35c0-.64-.27-.97-.8-.97s-.8.32-.8.97v5.35c0,.64.27.97.8.97s.8-.32.8-.97Z"/><path class="cls-10" d="m75.77,356.04h1.93l1.5,5.87h.03v-5.87h1.37v9.8h-1.58l-1.85-7.15h-.03v7.15h-1.37v-9.8Z"/><path class="cls-10" d="m84.55,356.04h2.27c.77,0,1.34.21,1.72.62.38.41.57,1.01.57,1.81v.97c0,.79-.19,1.4-.57,1.81s-.96.62-1.72.62h-.73v3.99h-1.54v-9.8Zm2.27,4.41c.25,0,.44-.07.57-.21s.19-.38.19-.71v-1.16c0-.34-.06-.57-.19-.71s-.31-.21-.57-.21h-.73v3.01h.73Z"/><path class="cls-10" d="m90.23,356.04h4.2v1.4h-2.66v2.59h2.11v1.4h-2.11v3.01h2.66v1.4h-4.2v-9.8Z"/><path class="cls-10" d="m96.08,365.33c-.4-.43-.6-1.04-.6-1.82v-5.15c0-.78.2-1.39.6-1.82s.98-.64,1.74-.64,1.33.21,1.74.64.6,1.04.6,1.82v5.15c0,.78-.2,1.39-.6,1.82s-.98.64-1.74.64-1.33-.21-1.74-.64Zm2.53-1.72v-5.35c0-.64-.27-.97-.8-.97s-.8.32-.8.97v5.35c0,.64.27.97.8.97s.8-.32.8-.97Z"/><path class="cls-10" d="m101.47,356.04h2.27c.77,0,1.34.21,1.72.62.38.41.57,1.01.57,1.81v.97c0,.79-.19,1.4-.57,1.81s-.96.62-1.72.62h-.73v3.99h-1.54v-9.8Zm2.27,4.41c.25,0,.44-.07.57-.21s.19-.38.19-.71v-1.16c0-.34-.06-.57-.19-.71s-.31-.21-.57-.21h-.73v3.01h.73Z"/><path class="cls-10" d="m107.16,356.04h1.54v8.4h2.53v1.4h-4.07v-9.8Z"/><path class="cls-10" d="m112.25,356.04h4.2v1.4h-2.66v2.59h2.11v1.4h-2.11v3.01h2.66v1.4h-4.2v-9.8Z"/><line class="cls-6" x1="152.77" y1="373.88" x2="152.77" y2="373.88"/><line class="cls-2" x1="155.71" y1="373.88" x2="236.58" y2="373.88"/><line class="cls-6" x1="238.05" y1="373.88" x2="238.05" y2="373.88"/><path class="cls-13" d="m162.1,381.48h1.54v8.4h2.53v1.4h-4.07v-9.8Z"/><path class="cls-13" d="m168.44,381.48h2.09l1.6,9.8h-1.54l-.28-1.95v.03h-1.75l-.28,1.92h-1.43l1.6-9.8Zm1.68,6.55l-.69-4.84h-.03l-.67,4.84h1.39Z"/><path class="cls-13" d="m173.6,390.79c-.39-.42-.58-1.01-.58-1.78v-5.26c0-.77.19-1.36.58-1.78.39-.42.95-.63,1.69-.63s1.3.21,1.69.63c.39.42.58,1.01.58,1.78v1.04h-1.46v-1.13c0-.61-.26-.91-.77-.91s-.77.3-.77.91v5.47c0,.6.26.9.77.9s.77-.3.77-.9v-1.5h1.46v1.39c0,.77-.19,1.36-.58,1.78-.39.42-.95.63-1.69.63s-1.3-.21-1.69-.63Z"/><path class="cls-13" d="m178.76,381.48h1.54v4.13l1.96-4.13h1.54l-1.83,3.6,1.86,6.2h-1.61l-1.3-4.37-.62,1.25v3.12h-1.54v-9.8Z"/><path class="cls-13" d="m184.84,381.48h4.2v1.4h-2.66v2.59h2.11v1.4h-2.11v3.01h2.66v1.4h-4.2v-9.8Z"/><path class="cls-13" d="m190.2,381.48h2.35c.77,0,1.34.21,1.72.62.38.41.57,1.01.57,1.81v4.96c0,.79-.19,1.4-.57,1.81-.38.41-.96.62-1.72.62h-2.35v-9.8Zm2.32,8.4c.25,0,.45-.07.58-.22.14-.15.2-.39.2-.73v-5.1c0-.34-.07-.58-.2-.73s-.33-.22-.58-.22h-.78v7h.78Z"/><path class="cls-13" d="m198.99,390.79c-.38-.42-.57-1.03-.57-1.83v-.56h1.46v.67c0,.63.27.95.8.95.26,0,.46-.08.6-.23.13-.15.2-.4.2-.75,0-.41-.09-.77-.28-1.08-.19-.31-.53-.69-1.04-1.13-.63-.56-1.08-1.07-1.33-1.52-.25-.45-.38-.96-.38-1.53,0-.77.2-1.37.59-1.8.39-.42.96-.64,1.71-.64s1.29.21,1.67.64c.38.42.57,1.03.57,1.83v.41h-1.46v-.5c0-.34-.07-.58-.2-.73-.13-.15-.32-.23-.57-.23-.51,0-.77.31-.77.94,0,.35.1.69.29.99.19.31.54.68,1.04,1.12.64.56,1.09,1.07,1.33,1.53.24.46.36.99.36,1.61,0,.8-.2,1.42-.59,1.85-.4.43-.97.64-1.73.64s-1.31-.21-1.69-.64Z"/><path class="cls-13" d="m205.32,381.48h2.09l1.6,9.8h-1.54l-.28-1.95v.03h-1.75l-.28,1.92h-1.43l1.6-9.8Zm1.68,6.55l-.69-4.84h-.03l-.67,4.84h1.39Z"/><path class="cls-13" d="m210.02,381.48h4.07v1.4h-2.53v2.73h1.99v1.4h-1.99v4.27h-1.54v-9.8Z"/><path class="cls-13" d="m215.12,381.48h4.2v1.4h-2.66v2.59h2.11v1.4h-2.11v3.01h2.66v1.4h-4.2v-9.8Z"/><path class="cls-13" d="m220.48,381.48h1.54v8.4h2.53v1.4h-4.07v-9.8Z"/><path class="cls-13" d="m225.76,387.11l-1.86-5.63h1.64l1.05,3.6h.03l1.05-3.6h1.5l-1.86,5.63v4.17h-1.54v-4.17Z"/><path class="cls-13" d="m174.67,397.48h2.2l.98,7.01h.03l.98-7.01h2.2v9.8h-1.46v-7.42h-.03l-1.12,7.42h-1.29l-1.12-7.42h-.03v7.42h-1.34v-9.8Z"/><path class="cls-13" d="m183.67,397.48h2.09l1.6,9.8h-1.54l-.28-1.95v.03h-1.75l-.28,1.92h-1.43l1.6-9.8Zm1.68,6.55l-.69-4.84h-.03l-.67,4.84h1.39Z"/><path class="cls-13" d="m188.37,397.48h1.93l1.5,5.87h.03v-5.87h1.37v9.8h-1.58l-1.85-7.15h-.03v7.15h-1.37v-9.8Z"/><path class="cls-13" d="m195.82,397.48h2.09l1.6,9.8h-1.54l-.28-1.95v.03h-1.75l-.28,1.92h-1.43l1.6-9.8Zm1.68,6.55l-.69-4.84h-.03l-.67,4.84h1.39Z"/><path class="cls-13" d="m200.97,406.79c-.39-.42-.59-1.03-.59-1.83v-5.15c0-.79.2-1.4.59-1.83.39-.42.96-.64,1.71-.64s1.32.21,1.71.64c.39.42.59,1.03.59,1.83v.84h-1.46v-.94c0-.64-.27-.97-.8-.97s-.8.32-.8.97v5.36c0,.63.27.95.8.95s.8-.32.8-.95v-1.92h-.77v-1.4h2.23v3.21c0,.79-.2,1.4-.59,1.83-.39.42-.96.64-1.71.64s-1.32-.21-1.71-.64Z"/><path class="cls-13" d="m206.25,397.48h4.2v1.4h-2.66v2.59h2.11v1.4h-2.11v3.01h2.66v1.4h-4.2v-9.8Z"/><path class="cls-13" d="m211.61,397.48h2.35c.77,0,1.34.21,1.72.62.38.41.57,1.01.57,1.81v4.96c0,.79-.19,1.4-.57,1.81-.38.41-.96.62-1.72.62h-2.35v-9.8Zm2.32,8.4c.25,0,.45-.07.58-.22.14-.15.2-.39.2-.73v-5.1c0-.34-.07-.58-.2-.73s-.33-.22-.58-.22h-.78v7h.78Z"/><path class="cls-13" d="m170.92,422.79c-.38-.42-.57-1.03-.57-1.83v-.56h1.46v.67c0,.63.27.95.8.95.26,0,.46-.08.6-.23.13-.15.2-.4.2-.75,0-.41-.09-.77-.28-1.08-.19-.31-.53-.69-1.04-1.13-.63-.56-1.08-1.07-1.33-1.52-.25-.45-.38-.96-.38-1.53,0-.77.2-1.37.59-1.8.39-.42.96-.64,1.71-.64s1.29.21,1.67.64c.38.42.57,1.03.57,1.83v.41h-1.46v-.5c0-.34-.07-.58-.2-.73-.13-.15-.32-.23-.57-.23-.51,0-.77.31-.77.94,0,.35.1.69.29.99.19.31.54.68,1.04,1.12.64.56,1.09,1.07,1.33,1.53.24.46.36.99.36,1.61,0,.8-.2,1.42-.59,1.85-.4.43-.97.64-1.73.64s-1.31-.21-1.69-.64Z"/><path class="cls-13" d="m177.24,413.48h2.09l1.6,9.8h-1.54l-.28-1.95v.03h-1.75l-.28,1.92h-1.43l1.6-9.8Zm1.68,6.55l-.69-4.84h-.03l-.67,4.84h1.39Z"/><path class="cls-13" d="m181.95,413.48h1.93l1.5,5.87h.03v-5.87h1.37v9.8h-1.58l-1.85-7.15h-.03v7.15h-1.37v-9.8Z"/><path class="cls-13" d="m188.21,413.48h1.54v9.8h-1.54v-9.8Z"/><path class="cls-13" d="m192.38,414.88h-1.61v-1.4h4.76v1.4h-1.61v8.4h-1.54v-8.4Z"/><path class="cls-13" d="m197.1,413.48h2.09l1.6,9.8h-1.54l-.28-1.95v.03h-1.75l-.28,1.92h-1.43l1.6-9.8Zm1.68,6.55l-.69-4.84h-.03l-.67,4.84h1.39Z"/><path class="cls-13" d="m202.36,414.88h-1.61v-1.4h4.76v1.4h-1.61v8.4h-1.54v-8.4Z"/><path class="cls-13" d="m206.53,413.48h1.54v9.8h-1.54v-9.8Z"/><path class="cls-13" d="m209.99,422.78c-.4-.43-.6-1.04-.6-1.82v-5.15c0-.78.2-1.39.6-1.82s.98-.64,1.74-.64,1.33.21,1.74.64c.4.43.6,1.04.6,1.82v5.15c0,.78-.2,1.39-.6,1.82-.4.43-.98.64-1.74.64s-1.33-.21-1.74-.64Zm2.53-1.72v-5.35c0-.64-.27-.97-.8-.97s-.8.32-.8.97v5.35c0,.64.27.97.8.97s.8-.32.8-.97Z"/><path class="cls-13" d="m215.38,413.48h1.93l1.5,5.87h.03v-5.87h1.37v9.8h-1.58l-1.85-7.15h-.03v7.15h-1.37v-9.8Z"/><path class="cls-16" d="m150.08,365.24c-.47-.51-.71-1.24-.71-2.19v-.97h1.77v1.05c0,.78.32,1.17.97,1.17.32,0,.56-.1.72-.3.16-.2.25-.55.25-1.05v-.97c0-.54-.1-.93-.29-1.16-.19-.23-.5-.35-.94-.35h-.63v-1.7h.68c.37,0,.65-.1.84-.29.19-.19.28-.52.28-.97v-.87c0-.41-.08-.71-.25-.9-.17-.19-.4-.29-.68-.29-.6,0-.9.37-.9,1.1v.78h-1.77v-.63c0-.95.24-1.68.71-2.19.47-.51,1.15-.76,2.03-.76s1.58.25,2.04.76c.46.5.7,1.23.7,2.18v.42c0,.65-.11,1.16-.32,1.56-.22.39-.55.67-1,.84v.03c.49.18.84.48,1.05.88.22.41.32.93.32,1.56v1.05c0,.95-.24,1.68-.71,2.18-.47.5-1.16.76-2.08.76s-1.61-.25-2.08-.77Z"/><path class="cls-16" d="m156.65,364.04h1.8v1.8h-1.8v-1.8Z"/><path class="cls-16" d="m160.85,365.23c-.48-.52-.71-1.25-.71-2.22v-.94h1.77v1.07c0,.77.32,1.16.97,1.16s.97-.39.97-1.16v-2.67c0-.78-.32-1.17-.97-1.17s-.97.39-.97,1.17v.1h-1.77l.34-6.65h4.93v1.7h-3.26l-.15,2.84h.03c.35-.58.89-.87,1.61-.87.68,0,1.2.23,1.55.7.35.46.53,1.14.53,2.02v2.69c0,.96-.24,1.7-.71,2.22-.48.52-1.17.77-2.07.77s-1.6-.26-2.07-.77Z"/><path class="cls-10" d="m170.27,356.04h2.32c.79,0,1.37.18,1.74.55.36.37.55.94.55,1.7v.39c0,.5-.08.91-.25,1.23-.16.32-.41.55-.75.69v.03c.77.26,1.15.94,1.15,2.04v.84c0,.76-.2,1.33-.6,1.73-.4.4-.98.6-1.74.6h-2.42v-9.8Zm2.14,3.99c.31,0,.54-.08.69-.24.15-.16.23-.42.23-.8v-.55c0-.35-.06-.61-.19-.77s-.32-.24-.6-.24h-.74v2.59h.6Zm.28,4.41c.27,0,.47-.07.6-.22.13-.14.2-.39.2-.75v-.85c0-.45-.08-.76-.23-.93s-.41-.26-.76-.26h-.69v3.01h.88Z"/><path class="cls-10" d="m176.2,356.04h1.54v9.8h-1.54v-9.8Z"/><path class="cls-10" d="m179.17,356.04h1.54v8.4h2.53v1.4h-4.07v-9.8Z"/><path class="cls-10" d="m184.27,356.04h1.54v8.4h2.53v1.4h-4.07v-9.8Z"/><path class="cls-10" d="m189.36,356.04h1.54v9.8h-1.54v-9.8Z"/><path class="cls-10" d="m192.82,365.33c-.4-.43-.6-1.04-.6-1.82v-5.15c0-.78.2-1.39.6-1.82s.98-.64,1.74-.64,1.33.21,1.74.64c.4.43.6,1.04.6,1.82v5.15c0,.78-.2,1.39-.6,1.82-.4.43-.98.64-1.74.64s-1.33-.21-1.74-.64Zm2.53-1.72v-5.35c0-.64-.27-.97-.8-.97s-.8.32-.8.97v5.35c0,.64.27.97.8.97s.8-.32.8-.97Z"/><path class="cls-10" d="m198.21,356.04h1.93l1.5,5.87h.03v-5.87h1.37v9.8h-1.58l-1.85-7.15h-.03v7.15h-1.37v-9.8Z"/><path class="cls-10" d="m206.99,356.04h2.27c.77,0,1.34.21,1.72.62.38.41.57,1.01.57,1.81v.97c0,.79-.19,1.4-.57,1.81s-.96.62-1.72.62h-.73v3.99h-1.54v-9.8Zm2.27,4.41c.25,0,.44-.07.57-.21s.19-.38.19-.71v-1.16c0-.34-.06-.57-.19-.71s-.31-.21-.57-.21h-.73v3.01h.73Z"/><path class="cls-10" d="m212.67,356.04h4.2v1.4h-2.66v2.59h2.11v1.4h-2.11v3.01h2.66v1.4h-4.2v-9.8Z"/><path class="cls-10" d="m218.52,365.33c-.4-.43-.6-1.04-.6-1.82v-5.15c0-.78.2-1.39.6-1.82s.98-.64,1.74-.64,1.33.21,1.74.64c.4.43.6,1.04.6,1.82v5.15c0,.78-.2,1.39-.6,1.82-.4.43-.98.64-1.74.64s-1.33-.21-1.74-.64Zm2.53-1.72v-5.35c0-.64-.27-.97-.8-.97s-.8.32-.8.97v5.35c0,.64.27.97.8.97s.8-.32.8-.97Z"/><path class="cls-10" d="m223.91,356.04h2.27c.77,0,1.34.21,1.72.62.38.41.57,1.01.57,1.81v.97c0,.79-.19,1.4-.57,1.81s-.96.62-1.72.62h-.73v3.99h-1.54v-9.8Zm2.27,4.41c.25,0,.44-.07.57-.21s.19-.38.19-.71v-1.16c0-.34-.06-.57-.19-.71s-.31-.21-.57-.21h-.73v3.01h.73Z"/><path class="cls-10" d="m229.6,356.04h1.54v8.4h2.53v1.4h-4.07v-9.8Z"/><path class="cls-10" d="m234.69,356.04h4.2v1.4h-2.66v2.59h2.11v1.4h-2.11v3.01h2.66v1.4h-4.2v-9.8Z"/><line class="cls-6" x1="271.57" y1="373.88" x2="271.57" y2="373.88"/><line class="cls-2" x1="274.51" y1="373.88" x2="355.37" y2="373.88"/><line class="cls-6" x1="356.84" y1="373.88" x2="356.84" y2="373.88"/><path class="cls-13" d="m283.69,381.48h1.54v8.4h2.53v1.4h-4.07v-9.8Z"/><path class="cls-13" d="m290.03,381.48h2.09l1.6,9.8h-1.54l-.28-1.95v.03h-1.75l-.28,1.92h-1.43l1.6-9.8Zm1.68,6.55l-.69-4.84h-.03l-.67,4.84h1.39Z"/><path class="cls-13" d="m295.19,390.79c-.39-.42-.58-1.01-.58-1.78v-5.26c0-.77.19-1.36.58-1.78.39-.42.95-.63,1.69-.63s1.3.21,1.69.63c.39.42.58,1.01.58,1.78v1.04h-1.46v-1.13c0-.61-.26-.91-.77-.91s-.77.3-.77.91v5.47c0,.6.26.9.77.9s.77-.3.77-.9v-1.5h1.46v1.39c0,.77-.19,1.36-.58,1.78-.39.42-.95.63-1.69.63s-1.3-.21-1.69-.63Z"/><path class="cls-13" d="m300.35,381.48h1.54v4.13l1.96-4.13h1.54l-1.83,3.6,1.86,6.2h-1.61l-1.3-4.37-.62,1.25v3.12h-1.54v-9.8Z"/><path class="cls-13" d="m306.42,381.48h4.2v1.4h-2.66v2.59h2.11v1.4h-2.11v3.01h2.66v1.4h-4.2v-9.8Z"/><path class="cls-13" d="m311.79,381.48h2.35c.77,0,1.34.21,1.72.62.38.41.57,1.01.57,1.81v4.96c0,.79-.19,1.4-.57,1.81-.38.41-.96.62-1.72.62h-2.35v-9.8Zm2.32,8.4c.25,0,.45-.07.58-.22.14-.15.2-.39.2-.73v-5.1c0-.34-.07-.58-.2-.73s-.33-.22-.58-.22h-.78v7h.78Z"/><path class="cls-13" d="m320.27,381.48h2.32c.79,0,1.37.18,1.74.55.36.37.55.94.55,1.7v.39c0,.5-.08.91-.25,1.23-.16.32-.41.55-.75.69v.03c.77.26,1.15.94,1.15,2.04v.84c0,.76-.2,1.33-.6,1.73-.4.4-.98.6-1.74.6h-2.42v-9.8Zm2.14,3.99c.31,0,.54-.08.69-.24.15-.16.23-.42.23-.8v-.55c0-.35-.06-.61-.19-.77s-.32-.24-.6-.24h-.74v2.59h.6Zm.28,4.41c.27,0,.47-.07.6-.22.13-.14.2-.39.2-.75v-.85c0-.45-.08-.76-.23-.93s-.41-.26-.76-.26h-.69v3.01h.88Z"/><path class="cls-13" d="m327.4,381.48h2.09l1.6,9.8h-1.54l-.28-1.95v.03h-1.75l-.28,1.92h-1.43l1.6-9.8Zm1.68,6.55l-.69-4.84h-.03l-.67,4.84h1.39Z"/><path class="cls-13" d="m332.37,390.79c-.38-.42-.57-1.03-.57-1.83v-.56h1.46v.67c0,.63.27.95.8.95.26,0,.46-.08.6-.23.13-.15.2-.4.2-.75,0-.41-.09-.77-.28-1.08-.19-.31-.53-.69-1.04-1.13-.63-.56-1.08-1.07-1.33-1.52-.25-.45-.38-.96-.38-1.53,0-.77.2-1.37.59-1.8.39-.42.96-.64,1.71-.64s1.29.21,1.67.64c.38.42.57,1.03.57,1.83v.41h-1.46v-.5c0-.34-.07-.58-.2-.73-.13-.15-.32-.23-.57-.23-.51,0-.77.31-.77.94,0,.35.1.69.29.99.19.31.54.68,1.04,1.12.64.56,1.09,1.07,1.33,1.53.24.46.36.99.36,1.61,0,.8-.2,1.42-.59,1.85-.4.43-.97.64-1.73.64s-1.31-.21-1.69-.64Z"/><path class="cls-13" d="m337.55,381.48h1.54v9.8h-1.54v-9.8Z"/><path class="cls-13" d="m341,390.79c-.39-.42-.58-1.01-.58-1.78v-5.26c0-.77.19-1.36.58-1.78.39-.42.95-.63,1.69-.63s1.3.21,1.69.63c.39.42.58,1.01.58,1.78v1.04h-1.46v-1.13c0-.61-.26-.91-.77-.91s-.77.3-.77.91v5.47c0,.6.26.9.77.9s.77-.3.77-.9v-1.5h1.46v1.39c0,.77-.19,1.36-.58,1.78-.39.42-.95.63-1.69.63s-1.3-.21-1.69-.63Z"/><path class="cls-13" d="m281.34,397.48h1.54v3.99h1.65v-3.99h1.54v9.8h-1.54v-4.41h-1.65v4.41h-1.54v-9.8Z"/><path class="cls-13" d="m288.69,397.48h2.09l1.6,9.8h-1.54l-.28-1.95v.03h-1.75l-.28,1.92h-1.43l1.6-9.8Zm1.68,6.55l-.69-4.84h-.03l-.67,4.84h1.39Z"/><path class="cls-13" d="m293.4,397.48h1.93l1.5,5.87h.03v-5.87h1.37v9.8h-1.58l-1.85-7.15h-.03v7.15h-1.37v-9.8Z"/><path class="cls-13" d="m299.65,397.48h2.35c.77,0,1.34.21,1.72.62.38.41.57,1.01.57,1.81v4.96c0,.79-.19,1.4-.57,1.81-.38.41-.96.62-1.72.62h-2.35v-9.8Zm2.32,8.4c.25,0,.45-.07.58-.22.14-.15.2-.39.2-.73v-5.1c0-.34-.07-.58-.2-.73s-.33-.22-.58-.22h-.78v7h.78Z"/><path class="cls-13" d="m307.77,397.48h1.48l.69,7.53h.03l.73-7.53h1.68l.73,7.53h.03l.69-7.53h1.33l-.99,9.8h-1.92l-.7-6.61h-.03l-.7,6.61h-2.04l-.99-9.8Z"/><path class="cls-13" d="m317.21,397.48h2.09l1.6,9.8h-1.54l-.28-1.95v.03h-1.75l-.28,1.92h-1.43l1.6-9.8Zm1.68,6.55l-.69-4.84h-.03l-.67,4.84h1.39Z"/><path class="cls-13" d="m322.18,406.79c-.38-.42-.57-1.03-.57-1.83v-.56h1.46v.67c0,.63.27.95.8.95.26,0,.46-.08.6-.23.13-.15.2-.4.2-.75,0-.41-.09-.77-.28-1.08-.19-.31-.53-.69-1.04-1.13-.63-.56-1.08-1.07-1.33-1.52-.25-.45-.38-.96-.38-1.53,0-.77.2-1.37.59-1.8.39-.42.96-.64,1.71-.64s1.29.21,1.67.64c.38.42.57,1.03.57,1.83v.41h-1.46v-.5c0-.34-.07-.58-.2-.73-.13-.15-.32-.23-.57-.23-.51,0-.77.31-.77.94,0,.35.1.69.29.99.19.31.54.68,1.04,1.12.64.56,1.09,1.07,1.33,1.53.24.46.36.99.36,1.61,0,.8-.2,1.42-.59,1.85-.4.43-.97.64-1.73.64s-1.31-.21-1.69-.64Z"/><path class="cls-13" d="m327.36,397.48h1.54v3.99h1.65v-3.99h1.54v9.8h-1.54v-4.41h-1.65v4.41h-1.54v-9.8Z"/><path class="cls-13" d="m333.52,397.48h1.54v9.8h-1.54v-9.8Z"/><path class="cls-13" d="m336.49,397.48h1.93l1.5,5.87h.03v-5.87h1.37v9.8h-1.58l-1.85-7.15h-.03v7.15h-1.37v-9.8Z"/><path class="cls-13" d="m343.22,406.79c-.39-.42-.59-1.03-.59-1.83v-5.15c0-.79.2-1.4.59-1.83.39-.42.96-.64,1.71-.64s1.32.21,1.71.64c.39.42.59,1.03.59,1.83v.84h-1.46v-.94c0-.64-.27-.97-.8-.97s-.8.32-.8.97v5.36c0,.63.27.95.8.95s.8-.32.8-.95v-1.92h-.77v-1.4h2.23v3.21c0,.79-.2,1.4-.59,1.83-.39.42-.96.64-1.71.64s-1.32-.21-1.71-.64Z"/><path class="cls-13" d="m291.72,413.48h4.07v1.4h-2.53v2.73h1.99v1.4h-1.99v4.27h-1.54v-9.8Z"/><path class="cls-13" d="m297.55,413.48h2.09l1.6,9.8h-1.54l-.28-1.95v.03h-1.75l-.28,1.92h-1.43l1.6-9.8Zm1.68,6.55l-.69-4.84h-.03l-.67,4.84h1.39Z"/><path class="cls-13" d="m302.71,422.79c-.39-.42-.58-1.01-.58-1.78v-5.26c0-.77.19-1.36.58-1.78.39-.42.95-.63,1.69-.63s1.3.21,1.69.63c.39.42.58,1.01.58,1.78v1.04h-1.46v-1.13c0-.61-.26-.91-.77-.91s-.77.3-.77.91v5.47c0,.6.26.9.77.9s.77-.3.77-.9v-1.5h1.46v1.39c0,.77-.19,1.36-.58,1.78-.39.42-.95.63-1.69.63s-1.3-.21-1.69-.63Z"/><path class="cls-13" d="m307.87,413.48h1.54v9.8h-1.54v-9.8Z"/><path class="cls-13" d="m310.84,413.48h1.54v8.4h2.53v1.4h-4.07v-9.8Z"/><path class="cls-13" d="m315.94,413.48h1.54v9.8h-1.54v-9.8Z"/><path class="cls-13" d="m320.11,414.88h-1.61v-1.4h4.76v1.4h-1.61v8.4h-1.54v-8.4Z"/><path class="cls-13" d="m324.28,413.48h1.54v9.8h-1.54v-9.8Z"/><path class="cls-13" d="m327.25,413.48h4.2v1.4h-2.66v2.59h2.11v1.4h-2.11v3.01h2.66v1.4h-4.2v-9.8Z"/><path class="cls-13" d="m332.95,422.79c-.38-.42-.57-1.03-.57-1.83v-.56h1.46v.67c0,.63.27.95.8.95.26,0,.46-.08.6-.23.13-.15.2-.4.2-.75,0-.41-.09-.77-.28-1.08-.19-.31-.53-.69-1.04-1.13-.63-.56-1.08-1.07-1.33-1.52-.25-.45-.38-.96-.38-1.53,0-.77.2-1.37.59-1.8.39-.42.96-.64,1.71-.64s1.29.21,1.67.64c.38.42.57,1.03.57,1.83v.41h-1.46v-.5c0-.34-.07-.58-.2-.73-.13-.15-.32-.23-.57-.23-.51,0-.77.31-.77.94,0,.35.1.69.29.99.19.31.54.68,1.04,1.12.64.56,1.09,1.07,1.33,1.53.24.46.36.99.36,1.61,0,.8-.2,1.42-.59,1.85-.4.43-.97.64-1.73.64s-1.31-.21-1.69-.64Z"/><path class="cls-16" d="m268.28,364.55c0-.85.14-1.58.41-2.18.27-.61.76-1.28,1.46-2.01.69-.74,1.17-1.37,1.44-1.89.27-.52.4-1.07.4-1.63,0-.51-.08-.86-.25-1.06-.16-.2-.41-.3-.72-.3-.65,0-.97.39-.97,1.17v1.27h-1.77v-1.16c0-.96.24-1.7.71-2.22s1.17-.77,2.07-.77,1.6.26,2.07.77.71,1.26.71,2.22c0,.73-.17,1.43-.52,2.12-.35.69-.94,1.48-1.79,2.38-.56.59-.93,1.07-1.12,1.44-.19.37-.29.76-.29,1.18v.25h3.55v1.7h-5.41v-1.29Z"/><path class="cls-16" d="m275.45,364.04h1.8v1.8h-1.8v-1.8Z"/><path class="cls-16" d="m278.95,364.55c0-.85.14-1.58.41-2.18.27-.61.76-1.28,1.46-2.01.69-.74,1.17-1.37,1.44-1.89.27-.52.4-1.07.4-1.63,0-.51-.08-.86-.25-1.06-.16-.2-.41-.3-.72-.3-.65,0-.97.39-.97,1.17v1.27h-1.77v-1.16c0-.96.24-1.7.71-2.22s1.17-.77,2.07-.77,1.6.26,2.07.77.71,1.26.71,2.22c0,.73-.17,1.43-.52,2.12-.35.69-.94,1.48-1.79,2.38-.56.59-.93,1.07-1.12,1.44-.19.37-.29.76-.29,1.18v.25h3.55v1.7h-5.41v-1.29Z"/><path class="cls-10" d="m289.06,356.04h2.32c.79,0,1.37.18,1.74.55.36.37.55.94.55,1.7v.39c0,.5-.08.91-.25,1.23-.16.32-.41.55-.75.69v.03c.77.26,1.15.94,1.15,2.04v.84c0,.76-.2,1.33-.6,1.73-.4.4-.98.6-1.74.6h-2.42v-9.8Zm2.14,3.99c.31,0,.54-.08.69-.24.15-.16.23-.42.23-.8v-.55c0-.35-.06-.61-.19-.77s-.32-.24-.6-.24h-.74v2.59h.6Zm.28,4.41c.27,0,.47-.07.6-.22.13-.14.2-.39.2-.75v-.85c0-.45-.08-.76-.23-.93s-.41-.26-.76-.26h-.69v3.01h.88Z"/><path class="cls-10" d="m295,356.04h1.54v9.8h-1.54v-9.8Z"/><path class="cls-10" d="m297.97,356.04h1.54v8.4h2.53v1.4h-4.07v-9.8Z"/><path class="cls-10" d="m303.06,356.04h1.54v8.4h2.53v1.4h-4.07v-9.8Z"/><path class="cls-10" d="m308.16,356.04h1.54v9.8h-1.54v-9.8Z"/><path class="cls-10" d="m311.62,365.33c-.4-.43-.6-1.04-.6-1.82v-5.15c0-.78.2-1.39.6-1.82s.98-.64,1.74-.64,1.33.21,1.74.64c.4.43.6,1.04.6,1.82v5.15c0,.78-.2,1.39-.6,1.82-.4.43-.98.64-1.74.64s-1.33-.21-1.74-.64Zm2.53-1.72v-5.35c0-.64-.27-.97-.8-.97s-.8.32-.8.97v5.35c0,.64.27.97.8.97s.8-.32.8-.97Z"/><path class="cls-10" d="m317.01,356.04h1.93l1.5,5.87h.03v-5.87h1.37v9.8h-1.58l-1.85-7.15h-.03v7.15h-1.37v-9.8Z"/><path class="cls-10" d="m325.79,356.04h2.27c.77,0,1.34.21,1.72.62.38.41.57,1.01.57,1.81v.97c0,.79-.19,1.4-.57,1.81s-.96.62-1.72.62h-.73v3.99h-1.54v-9.8Zm2.27,4.41c.25,0,.44-.07.57-.21s.19-.38.19-.71v-1.16c0-.34-.06-.57-.19-.71s-.31-.21-.57-.21h-.73v3.01h.73Z"/><path class="cls-10" d="m331.47,356.04h4.2v1.4h-2.66v2.59h2.11v1.4h-2.11v3.01h2.66v1.4h-4.2v-9.8Z"/><path class="cls-10" d="m337.32,365.33c-.4-.43-.6-1.04-.6-1.82v-5.15c0-.78.2-1.39.6-1.82s.98-.64,1.74-.64,1.33.21,1.74.64c.4.43.6,1.04.6,1.82v5.15c0,.78-.2,1.39-.6,1.82-.4.43-.98.64-1.74.64s-1.33-.21-1.74-.64Zm2.53-1.72v-5.35c0-.64-.27-.97-.8-.97s-.8.32-.8.97v5.35c0,.64.27.97.8.97s.8-.32.8-.97Z"/><path class="cls-10" d="m342.71,356.04h2.27c.77,0,1.34.21,1.72.62.38.41.57,1.01.57,1.81v.97c0,.79-.19,1.4-.57,1.81s-.96.62-1.72.62h-.73v3.99h-1.54v-9.8Zm2.27,4.41c.25,0,.44-.07.57-.21s.19-.38.19-.71v-1.16c0-.34-.06-.57-.19-.71s-.31-.21-.57-.21h-.73v3.01h.73Z"/><path class="cls-10" d="m348.4,356.04h1.54v8.4h2.53v1.4h-4.07v-9.8Z"/><path class="cls-10" d="m353.49,356.04h4.2v1.4h-2.66v2.59h2.11v1.4h-2.11v3.01h2.66v1.4h-4.2v-9.8Z"/><path class="cls-13" d="m32.78,553.8h2.35c.77,0,1.34.21,1.72.62.38.41.57,1.01.57,1.81v4.96c0,.79-.19,1.4-.57,1.81-.38.41-.96.62-1.72.62h-2.35v-9.8Zm2.32,8.4c.25,0,.45-.07.58-.22.14-.15.2-.39.2-.73v-5.1c0-.34-.07-.58-.2-.73s-.33-.22-.58-.22h-.78v7h.78Z"/><path class="cls-13" d="m38.75,553.8h2.28c.79,0,1.37.18,1.74.55.36.37.55.94.55,1.7v.6c0,1.02-.34,1.66-1.01,1.93v.03c.37.11.64.34.79.69.15.35.23.81.23,1.39v1.72c0,.28,0,.51.03.68.02.17.06.34.14.51h-1.57c-.06-.16-.09-.31-.11-.45-.02-.14-.03-.39-.03-.76v-1.79c0-.45-.07-.76-.22-.94-.15-.18-.39-.27-.75-.27h-.53v4.2h-1.54v-9.8Zm2.1,4.2c.31,0,.54-.08.69-.24.15-.16.23-.42.23-.8v-.76c0-.35-.06-.61-.19-.77s-.32-.24-.6-.24h-.7v2.8h.56Z"/><path class="cls-13" d="m44.67,553.8h1.54v9.8h-1.54v-9.8Z"/><path class="cls-13" d="m47.64,553.8h1.93l1.5,5.87h.03v-5.87h1.37v9.8h-1.58l-1.85-7.15h-.03v7.15h-1.37v-9.8Z"/><path class="cls-13" d="m53.9,553.8h1.54v4.13l1.96-4.13h1.54l-1.83,3.6,1.86,6.2h-1.61l-1.3-4.37-.62,1.25v3.12h-1.54v-9.8Z"/><path class="cls-13" d="m59.97,553.8h1.54v9.8h-1.54v-9.8Z"/><path class="cls-13" d="m62.94,553.8h1.93l1.5,5.87h.03v-5.87h1.37v9.8h-1.58l-1.85-7.15h-.03v7.15h-1.37v-9.8Z"/><path class="cls-13" d="m69.67,563.1c-.39-.42-.59-1.03-.59-1.83v-5.15c0-.79.2-1.4.59-1.83.39-.42.96-.64,1.71-.64s1.32.21,1.71.64c.39.42.59,1.03.59,1.83v.84h-1.46v-.94c0-.64-.27-.97-.8-.97s-.8.32-.8.97v5.36c0,.63.27.95.8.95s.8-.32.8-.95v-1.92h-.77v-1.4h2.23v3.21c0,.79-.2,1.4-.59,1.83-.39.42-.96.64-1.71.64s-1.32-.21-1.71-.64Z"/><path class="cls-13" d="m77.11,553.8h1.48l.69,7.53h.03l.73-7.53h1.68l.73,7.53h.03l.69-7.53h1.33l-.99,9.8h-1.92l-.7-6.61h-.03l-.7,6.61h-2.04l-.99-9.8Z"/><path class="cls-13" d="m86.54,553.8h2.09l1.6,9.8h-1.54l-.28-1.95v.03h-1.75l-.28,1.92h-1.43l1.6-9.8Zm1.68,6.55l-.69-4.84h-.03l-.67,4.84h1.39Z"/><path class="cls-13" d="m91.81,555.2h-1.61v-1.4h4.76v1.4h-1.61v8.4h-1.54v-8.4Z"/><path class="cls-13" d="m95.98,553.8h4.2v1.4h-2.66v2.59h2.11v1.4h-2.11v3.01h2.66v1.4h-4.2v-9.8Z"/><path class="cls-13" d="m101.34,553.8h2.28c.79,0,1.37.18,1.74.55.36.37.55.94.55,1.7v.6c0,1.02-.34,1.66-1.01,1.93v.03c.37.11.64.34.79.69.15.35.23.81.23,1.39v1.72c0,.28,0,.51.03.68.02.17.06.34.14.51h-1.57c-.06-.16-.09-.31-.11-.45-.02-.14-.03-.39-.03-.76v-1.79c0-.45-.07-.76-.22-.94-.15-.18-.39-.27-.75-.27h-.53v4.2h-1.54v-9.8Zm2.1,4.2c.31,0,.54-.08.69-.24.15-.16.23-.42.23-.8v-.76c0-.35-.06-.61-.19-.77s-.32-.24-.6-.24h-.7v2.8h.56Z"/><path class="cls-13" d="m160.76,553.8h4.07v1.4h-2.53v2.73h1.99v1.4h-1.99v4.27h-1.54v-9.8Z"/><path class="cls-13" d="m166.34,563.09c-.4-.43-.6-1.04-.6-1.82v-5.15c0-.78.2-1.39.6-1.82s.98-.64,1.74-.64,1.33.21,1.74.64c.4.43.6,1.04.6,1.82v5.15c0,.78-.2,1.39-.6,1.82-.4.43-.98.64-1.74.64s-1.33-.21-1.74-.64Zm2.53-1.72v-5.35c0-.64-.27-.97-.8-.97s-.8.32-.8.97v5.35c0,.64.27.97.8.97s.8-.32.8-.97Z"/><path class="cls-13" d="m171.73,553.8h2.28c.79,0,1.37.18,1.74.55.36.37.55.94.55,1.7v.6c0,1.02-.34,1.66-1.01,1.93v.03c.37.11.64.34.79.69.15.35.23.81.23,1.39v1.72c0,.28,0,.51.03.68.02.17.06.34.14.51h-1.57c-.06-.16-.09-.31-.11-.45-.02-.14-.03-.39-.03-.76v-1.79c0-.45-.07-.76-.22-.94-.15-.18-.39-.27-.75-.27h-.53v4.2h-1.54v-9.8Zm2.1,4.2c.31,0,.54-.08.69-.24.15-.16.23-.42.23-.8v-.76c0-.35-.06-.61-.19-.77s-.32-.24-.6-.24h-.7v2.8h.56Z"/><path class="cls-13" d="m180.48,563.1c-.38-.42-.57-1.03-.57-1.83v-.56h1.46v.67c0,.63.27.95.8.95.26,0,.46-.08.6-.23.13-.15.2-.4.2-.75,0-.41-.09-.77-.28-1.08-.19-.31-.53-.69-1.04-1.13-.63-.56-1.08-1.07-1.33-1.52-.25-.45-.38-.96-.38-1.53,0-.77.2-1.37.59-1.8.39-.42.96-.64,1.71-.64s1.29.21,1.67.64c.38.42.57,1.03.57,1.83v.41h-1.46v-.5c0-.34-.07-.58-.2-.73-.13-.15-.32-.23-.57-.23-.51,0-.77.31-.77.94,0,.35.1.69.29.99.19.31.54.68,1.04,1.12.64.56,1.09,1.07,1.33,1.53.24.46.36.99.36,1.61,0,.8-.2,1.42-.59,1.85-.4.43-.97.64-1.73.64s-1.31-.21-1.69-.64Z"/><path class="cls-13" d="m186.81,553.8h2.09l1.6,9.8h-1.54l-.28-1.95v.03h-1.75l-.28,1.92h-1.43l1.6-9.8Zm1.68,6.55l-.69-4.84h-.03l-.67,4.84h1.39Z"/><path class="cls-13" d="m191.52,553.8h1.93l1.5,5.87h.03v-5.87h1.37v9.8h-1.58l-1.85-7.15h-.03v7.15h-1.37v-9.8Z"/><path class="cls-13" d="m197.77,553.8h1.54v9.8h-1.54v-9.8Z"/><path class="cls-13" d="m201.95,555.2h-1.61v-1.4h4.76v1.4h-1.61v8.4h-1.54v-8.4Z"/><path class="cls-13" d="m206.66,553.8h2.09l1.6,9.8h-1.54l-.28-1.95v.03h-1.75l-.28,1.92h-1.43l1.6-9.8Zm1.68,6.55l-.69-4.84h-.03l-.67,4.84h1.39Z"/><path class="cls-13" d="m211.93,555.2h-1.61v-1.4h4.76v1.4h-1.61v8.4h-1.54v-8.4Z"/><path class="cls-13" d="m216.1,553.8h1.54v9.8h-1.54v-9.8Z"/><path class="cls-13" d="m219.56,563.09c-.4-.43-.6-1.04-.6-1.82v-5.15c0-.78.2-1.39.6-1.82s.98-.64,1.74-.64,1.33.21,1.74.64c.4.43.6,1.04.6,1.82v5.15c0,.78-.2,1.39-.6,1.82-.4.43-.98.64-1.74.64s-1.33-.21-1.74-.64Zm2.53-1.72v-5.35c0-.64-.27-.97-.8-.97s-.8.32-.8.97v5.35c0,.64.27.97.8.97s.8-.32.8-.97Z"/><path class="cls-13" d="m224.95,553.8h1.93l1.5,5.87h.03v-5.87h1.37v9.8h-1.58l-1.85-7.15h-.03v7.15h-1.37v-9.8Z"/><path class="cls-13" d="m296.08,553.8h1.54v3.99h1.65v-3.99h1.54v9.8h-1.54v-4.41h-1.65v4.41h-1.54v-9.8Z"/><path class="cls-13" d="m303.65,559.43l-1.86-5.63h1.64l1.05,3.6h.03l1.05-3.6h1.5l-1.86,5.63v4.17h-1.54v-4.17Z"/><path class="cls-13" d="m308.26,563.1c-.39-.42-.59-1.03-.59-1.83v-5.15c0-.79.2-1.4.59-1.83.39-.42.96-.64,1.71-.64s1.32.21,1.71.64c.39.42.59,1.03.59,1.83v.84h-1.46v-.94c0-.64-.27-.97-.8-.97s-.8.32-.8.97v5.36c0,.63.27.95.8.95s.8-.32.8-.95v-1.92h-.77v-1.4h2.23v3.21c0,.79-.2,1.4-.59,1.83-.39.42-.96.64-1.71.64s-1.32-.21-1.71-.64Z"/><path class="cls-13" d="m313.54,553.8h1.54v9.8h-1.54v-9.8Z"/><path class="cls-13" d="m316.5,553.8h4.2v1.4h-2.66v2.59h2.11v1.4h-2.11v3.01h2.66v1.4h-4.2v-9.8Z"/><path class="cls-13" d="m321.87,553.8h1.93l1.5,5.87h.03v-5.87h1.37v9.8h-1.58l-1.85-7.15h-.03v7.15h-1.37v-9.8Z"/><path class="cls-13" d="m328.12,553.8h4.2v1.4h-2.66v2.59h2.11v1.4h-2.11v3.01h2.66v1.4h-4.2v-9.8Z"/><path class="cls-16" d="m183.14,303.16l1.28,11.05c.14,1.35,1.28,2.35,2.64,2.35h1.57c-2.14-2.49-3.42-6.13-3.42-10.19,0-1.14.07-2.21.29-3.28h-2.35v.07Z"/><path class="cls-16" d="m202.52,316.56c1.35,0,2.49-1,2.64-2.35l1.28-11.05h-2.42c.21,1.07.29,2.14.29,3.28,0,4.06-1.28,7.7-3.35,10.12h1.57Z"/><path class="cls-16" d="m186.13,300.67c.29-.78.57-1.5.93-2.14h-3.21c-1,0-1.78.78-1.78,1.78v1.71h3.63c.14-.5.29-.93.43-1.35Z"/><path class="cls-16" d="m205.66,298.46h-3.21c.36.64.64,1.43.93,2.14.14.43.29.86.36,1.28h3.71v-1.64c0-1-.86-1.78-1.78-1.78Z"/><path class="cls-10" d="m190.2,316.56h9.12c2.28-2.14,3.78-5.91,3.78-10.12,0-6.7-3.71-12.11-8.34-12.11s-8.34,5.42-8.34,12.11c0,4.2,1.5,7.91,3.78,10.12Z"/><path class="cls-10" d="m204.95,317.98h-20.38c-.5,0-.93.21-1.21.5-.29.29-.5.71-.5,1.21,0,.93.78,1.71,1.71,1.71h20.38c.5,0,.93-.21,1.21-.5s.5-.71.5-1.21c0-.93-.78-1.71-1.71-1.71Z"/><path class="cls-10" d="m184.57,322.76h-.36c.5,1.21,1.21,2.35,2.07,3.35,1.28,1.43,2,3.28,2.21,5.13.29,2.85.21,5.99-.29,8.69h13.25c-.43-2.64-.57-5.84-.29-8.69.21-1.85.93-3.71,2.14-5.13.86-1,1.57-2.07,2-3.28h-20.74v-.07Z"/><rect class="cls-16" x="165.82" y="305.15" width="1.64" height="1.28"/><rect class="cls-16" x="177.44" y="305.15" width="1.57" height="1.28"/><path class="cls-16" d="m175.02,302.45h-5.13c-.93,0-1.71.78-1.71,1.71v8.91c0,.5.21,1,.57,1.35l.5.5c.21.21.5.21.71,0l.71-.71c.21-.21.5-.21.71,0l.71.71c.21.21.5.21.71,0l.71-.71c.21-.21.5-.21.71,0l.71.71c.21.21.5.21.71,0l.5-.5c.36-.36.57-.86.57-1.35v-8.91c0-1-.78-1.71-1.71-1.71Z"/><path class="cls-11" d="m80.3,339.93l4.29-37.68h-23.24l4.29,37.68h14.67,0Zm-16.7-29.78c8.35-1.58,11.28,1.13,18.5,0l.9-6.54h-20.08l.68,6.54Z"/><path class="cls-10" d="m336.7,334.08l-4.81-4.51c-.56-.53-1.3-.82-2.08-.82h-3.65c-.59,0-1.17.17-1.66.5l-1.12.73c-.66.43-1.42.66-2.21.67l-4.94.07c-.97.01-1.76.82-1.76,1.78s.8,1.78,1.78,1.78h8.07c.31,0,.56.25.56.56s-.25.56-.56.56h-8.08c-1.6,0-2.9-1.3-2.9-2.9,0-.32.06-.64.15-.93l-3.8-1.95c-.1-.05-.18-.13-.24-.24,0-.02-.96-1.81-2.53-2.72-.59-.34-1.19-.51-1.81-.51-.51,0-1.03.12-1.55.36-.11.05-.15.18-.11.29.57,1.29,1.88,3.89,4.18,6.76,1.43,1.79,3.02,3.41,4.73,4.8,1.19.97,2.71,1.51,4.28,1.51l20.06.06-.02-5.85Z"/><path class="cls-16" d="m292.38,328.01h5.64v5.64h-5.64v-5.64Z"/><path class="cls-16" d="m292.34,310.31h5.84l2.12-7.04c.06-.18.02-.37-.09-.51-.11-.15-.28-.24-.47-.24h-1.34l-.97,4.62c-.06.26-.29.44-.54.44-.04,0-.08,0-.12-.01-.3-.07-.5-.36-.43-.66l.93-4.4h-6.03c-.18,0-.35.08-.46.22s-.15.32-.11.5l1.68,7.08Z"/><path class="cls-10" d="m314.16,310.43c.23-.13.51-.1.69.09l2.57,2.73,4.13-2.28-1.3-4.61c-9.64-.75-16.67,4.48-20.02,7.69,0,0,0,0-.01,0-.01.01-.03.02-.05.04-.01,0-.03.02-.04.03s-.03.01-.05.02c-.02,0-.04.02-.06.02,0,0,0,0-.01,0-.02,0-.03,0-.05,0,0,0-.02,0-.03,0-.03,0-.06,0-.09,0h-.03s-.05,0-.07,0c0,0-.02,0-.03,0-.02,0-.04-.01-.07-.02,0,0-.02,0-.03-.01-.02,0-.04-.02-.07-.04,0,0-.01,0-.02-.01-.03-.02-.06-.04-.08-.07,0,0,0,0,0,0,0,0,0,0,0,0-.02-.02-.04-.04-.05-.07,0,0-.01-.02-.02-.03,0-.02-.02-.04-.03-.06,0-.01,0-.02-.01-.04,0,0,0,0,0-.02-.28-.91-.64-1.71-1.04-2.4h-6.06c-1.15,1.92-1.8,4.71-1.8,7.72s.65,5.8,1.8,7.72h6.02c.24-.53.51-1.07.82-1.6,0,0,0-.01,0-.02,0,0,0-.01,0-.02,0,0,0-.01.01-.02,4.72-8.39,14.65-14.5,15.08-14.76h0Zm-17.27,3.06h-3.15c-.28.86-.94,3.28-.68,6.49.02.31-.2.57-.51.6h-.05c-.29,0-.53-.22-.56-.51-.34-4.3.83-7.23.88-7.35.09-.21.29-.34.51-.34h3.54c.31,0,.56.25.56.56,0,.31-.24.56-.55.56h0Z"/><path class="cls-16" d="m316.49,323.48l-.21,2.07c-.03.31.2.58.5.61.02,0,.04,0,.06,0,.28,0,.52-.21.55-.5l.21-2.07c.03-.31-.2-.58-.5-.61-.3-.03-.58.19-.61.49h0Z"/><path class="cls-16" d="m317.84,321.62l.15-1.52c.03-.31-.2-.58-.5-.61-.31-.03-.58.2-.61.5l-.15,1.52c-.03.31.2.58.5.61.02,0,.04,0,.06,0,.28,0,.52-.22.55-.5h0Z"/><path class="cls-16" d="m318.37,315.92c.03-.31-.2-.58-.5-.61-.31-.03-.58.2-.61.5l-.24,2.34c-.03.31.2.58.5.61.02,0,.04,0,.06,0,.28,0,.52-.21.55-.5l.24-2.35Z"/><path class="cls-16" d="m327.51,321.22l1.94,2.89c.11.16.28.25.46.25.11,0,.21-.03.31-.09.26-.17.32-.52.15-.77l-1.94-2.89c-.17-.26-.52-.32-.77-.15-.25.17-.32.52-.15.77h0Z"/><path class="cls-16" d="m324.75,317.1l1.72,2.57c.11.16.28.25.46.25.11,0,.21-.03.31-.09.26-.17.32-.52.15-.77l-1.72-2.57c-.17-.26-.52-.32-.77-.15-.25.17-.32.52-.15.77h0Z"/><path class="cls-16" d="m323.8,315.69c.11.16.28.25.46.25.11,0,.21-.03.31-.09.26-.17.32-.52.15-.77l-1.17-1.74c-.17-.26-.52-.32-.77-.15-.26.17-.32.52-.15.77l1.17,1.74Z"/><path class="cls-16" d="m322.12,320.21c-.3.08-.47.38-.39.68l1.25,4.72c.07.25.29.41.54.41.05,0,.1,0,.14-.02.3-.08.47-.38.39-.68l-1.25-4.72c-.08-.3-.38-.47-.68-.39h0Z"/><path class="cls-16" d="m320.87,315.47c-.3.08-.47.38-.39.68l.81,3.04c.07.25.29.41.54.41.05,0,.1,0,.14-.02.3-.08.47-.38.39-.68l-.81-3.04c-.08-.3-.38-.47-.68-.39h0Z"/><rect class="cls-12" x="168.51" y="258.97" width="42.64" height="10.75"/><path class="cls-16" d="m174.61,259.68h1.43v9.1h-1.43v-9.1Z"/><path class="cls-16" d="m177.34,259.68h1.79l1.39,5.45h.03v-5.45h1.27v9.1h-1.47l-1.72-6.64h-.03v6.64h-1.27v-9.1Z"/><path class="cls-16" d="m185.41,267.79c0-.65.1-1.21.31-1.67.21-.46.58-.98,1.12-1.54.53-.56.9-1.04,1.1-1.44.2-.4.31-.81.31-1.25,0-.39-.06-.66-.19-.81-.13-.15-.31-.23-.55-.23-.49,0-.74.3-.74.9v.98h-1.35v-.88c0-.74.18-1.3.55-1.7.36-.39.89-.59,1.59-.59s1.22.2,1.59.59c.36.39.55.96.55,1.7,0,.55-.13,1.1-.4,1.62-.26.53-.72,1.14-1.37,1.82-.42.45-.71.82-.86,1.1-.15.28-.22.58-.22.9v.2h2.72v1.3h-4.13v-.99Z"/><path class="cls-16" d="m191.32,268.31c-.37-.4-.56-.96-.56-1.69v-4.78c0-.73.19-1.29.56-1.69.37-.4.91-.6,1.61-.6s1.24.2,1.61.6c.37.4.56.96.56,1.69v4.78c0,.73-.19,1.29-.56,1.69-.37.4-.91.6-1.61.6s-1.24-.2-1.61-.6Zm2.35-1.6v-4.97c0-.6-.25-.9-.74-.9s-.74.3-.74.9v4.97c0,.6.25.9.74.9s.74-.3.74-.9Z"/><path class="cls-16" d="m196.28,267.79c0-.65.1-1.21.31-1.67.21-.46.58-.98,1.12-1.54.53-.56.9-1.04,1.1-1.44.2-.4.31-.81.31-1.25,0-.39-.06-.66-.19-.81-.13-.15-.31-.23-.55-.23-.49,0-.74.3-.74.9v.98h-1.35v-.88c0-.74.18-1.3.55-1.7.36-.39.89-.59,1.59-.59s1.22.2,1.59.59c.36.39.55.96.55,1.7,0,.55-.13,1.1-.4,1.62-.26.53-.72,1.14-1.37,1.82-.42.45-.71.82-.86,1.1s-.22.58-.22.9v.2h2.72v1.3h-4.13v-.99Z"/><path class="cls-16" d="m201.71,267.79c0-.65.1-1.21.31-1.67.21-.46.58-.98,1.12-1.54.53-.56.9-1.04,1.1-1.44.2-.4.31-.81.31-1.25,0-.39-.06-.66-.19-.81-.13-.15-.31-.23-.55-.23-.49,0-.74.3-.74.9v.98h-1.35v-.88c0-.74.18-1.3.55-1.7.36-.39.89-.59,1.59-.59s1.22.2,1.59.59c.36.39.55.96.55,1.7,0,.55-.13,1.1-.4,1.62s-.72,1.14-1.37,1.82c-.42.45-.71.82-.86,1.1s-.22.58-.22.9v.2h2.72v1.3h-4.13v-.99Z"/><line class="cls-3" x1="168.51" y1="258.97" x2="168.51" y2="268.78"/><line class="cls-3" x1="211.15" y1="258.97" x2="211.15" y2="268.78"/><line class="cls-5" x1="195.1" y1="499.54" x2="195.1" y2="515.89"/><polyline class="cls-5" points="68.76 515.96 68.76 497.27 314.45 497.27 314.45 515.9"/><rect class="cls-10" x="136.85" y="466.13" width="108.62" height="19.08"/><rect class="cls-10" x="88.63" y="487.07" width="203.2" height="19.08"/><path class="cls-12" d="m143.52,472.51h-1.49v-1.3h4.42v1.3h-1.5v7.8h-1.43v-7.8Z"/><path class="cls-12" d="m147.77,479.85c-.37-.4-.56-.96-.56-1.69v-4.78c0-.73.19-1.29.56-1.69.37-.4.91-.6,1.61-.6s1.24.2,1.61.6c.37.4.56.96.56,1.69v4.78c0,.73-.19,1.29-.56,1.69-.37.4-.91.6-1.61.6s-1.24-.2-1.61-.6Zm2.35-1.6v-4.97c0-.6-.25-.9-.74-.9s-.74.3-.74.9v4.97c0,.6.25.9.74.9s.74-.3.74-.9Z"/><path class="cls-12" d="m155.06,471.21h2.04l.91,6.51h.03l.91-6.51h2.04v9.1h-1.35v-6.89h-.03l-1.04,6.89h-1.2l-1.04-6.89h-.03v6.89h-1.25v-9.1Z"/><path class="cls-12" d="m162.29,471.21h3.9v1.3h-2.47v2.4h1.96v1.3h-1.96v2.8h2.47v1.3h-3.9v-9.1Z"/><path class="cls-12" d="m167.25,471.21h3.9v1.3h-2.47v2.4h1.96v1.3h-1.96v2.8h2.47v1.3h-3.9v-9.1Z"/><path class="cls-12" d="m173.32,472.51h-1.5v-1.3h4.42v1.3h-1.5v7.8h-1.43v-7.8Z"/><path class="cls-12" d="m179.45,479.33c0-.65.1-1.21.31-1.67.21-.46.58-.98,1.12-1.54.53-.56.89-1.04,1.1-1.44.2-.4.31-.81.31-1.25,0-.39-.06-.66-.19-.81-.13-.15-.31-.23-.55-.23-.49,0-.74.3-.74.9v.98h-1.35v-.88c0-.74.18-1.3.55-1.7.36-.39.89-.59,1.59-.59s1.22.2,1.59.59c.36.39.55.96.55,1.7,0,.55-.13,1.1-.4,1.62-.26.53-.72,1.14-1.37,1.82-.42.45-.71.82-.86,1.1-.15.28-.22.58-.22.9v.2h2.72v1.3h-4.13v-.99Z"/><path class="cls-12" d="m185.37,479.85c-.37-.4-.56-.96-.56-1.69v-4.78c0-.73.19-1.29.56-1.69.37-.4.91-.6,1.61-.6s1.24.2,1.61.6c.37.4.56.96.56,1.69v4.78c0,.73-.19,1.29-.56,1.69-.37.4-.91.6-1.61.6s-1.24-.2-1.61-.6Zm2.35-1.6v-4.97c0-.6-.25-.9-.74-.9s-.74.3-.74.9v4.97c0,.6.25.9.74.9s.74-.3.74-.9Z"/><path class="cls-12" d="m190.78,479.86c-.36-.39-.54-.95-.54-1.68v-.74h1.35v.81c0,.6.25.9.74.9.24,0,.43-.08.55-.23.13-.15.19-.42.19-.8v-.74c0-.42-.07-.71-.22-.89-.15-.18-.39-.27-.71-.27h-.48v-1.3h.52c.29,0,.5-.07.64-.22.14-.15.21-.39.21-.74v-.66c0-.31-.06-.54-.19-.69-.13-.15-.3-.22-.52-.22-.46,0-.69.28-.69.85v.6h-1.35v-.48c0-.73.18-1.29.54-1.68.36-.39.88-.58,1.55-.58s1.2.19,1.56.58.53.94.53,1.67v.33c0,.49-.08.89-.25,1.19-.16.3-.42.51-.77.64v.03c.37.14.64.36.81.68.16.31.25.71.25,1.2v.81c0,.73-.18,1.29-.54,1.67-.36.39-.89.58-1.59.58s-1.23-.19-1.59-.58Z"/><path class="cls-12" d="m196.24,479.85c-.37-.4-.56-.96-.56-1.69v-4.78c0-.73.19-1.29.56-1.69.37-.4.91-.6,1.61-.6s1.24.2,1.61.6c.37.4.56.96.56,1.69v4.78c0,.73-.19,1.29-.56,1.69-.37.4-.91.6-1.61.6s-1.24-.2-1.61-.6Zm2.35-1.6v-4.97c0-.6-.25-.9-.74-.9s-.74.3-.74.9v4.97c0,.6.25.9.74.9s.74-.3.74-.9Z"/><path class="cls-12" d="m204.65,472.51h-1.5v-1.3h4.42v1.3h-1.49v7.8h-1.43v-7.8Z"/><path class="cls-12" d="m209,471.21h1.94l1.48,9.1h-1.43l-.26-1.81v.03h-1.62l-.26,1.78h-1.33l1.48-9.1Zm1.56,6.08l-.64-4.5h-.03l-.62,4.5h1.29Z"/><path class="cls-12" d="m213.34,471.21h2.12c.74,0,1.27.17,1.61.51.34.34.51.87.51,1.58v.56c0,.94-.31,1.54-.94,1.79v.03c.35.1.59.32.73.64.14.32.21.75.21,1.29v1.6c0,.26,0,.47.03.63.02.16.06.32.13.47h-1.46c-.05-.15-.09-.29-.1-.42-.02-.13-.03-.36-.03-.7v-1.66c0-.42-.07-.71-.2-.87s-.37-.25-.7-.25h-.49v3.9h-1.43v-9.1Zm1.95,3.9c.29,0,.5-.07.64-.22.14-.15.21-.39.21-.74v-.7c0-.33-.06-.57-.18-.72-.12-.15-.3-.22-.55-.22h-.65v2.6h.52Z"/><path class="cls-12" d="m219.26,479.85c-.36-.39-.55-.96-.55-1.7v-4.78c0-.74.18-1.3.55-1.7.36-.39.89-.59,1.59-.59s1.22.2,1.59.59c.36.39.55.96.55,1.7v.78h-1.35v-.87c0-.6-.25-.9-.74-.9s-.74.3-.74.9v4.98c0,.59.25.88.74.88s.74-.29.74-.88v-1.78h-.72v-1.3h2.07v2.98c0,.74-.18,1.3-.55,1.7-.36.39-.89.59-1.59.59s-1.22-.2-1.59-.59Z"/><path class="cls-12" d="m224.13,471.21h3.9v1.3h-2.47v2.4h1.96v1.3h-1.96v2.8h2.47v1.3h-3.9v-9.1Z"/><path class="cls-12" d="m230.2,472.51h-1.5v-1.3h4.42v1.3h-1.5v7.8h-1.43v-7.8Z"/><path class="cls-12" d="m234.34,479.85c-.36-.39-.53-.96-.53-1.7v-.52h1.35v.62c0,.59.25.88.74.88.24,0,.43-.07.55-.21.13-.14.19-.38.19-.7,0-.38-.09-.72-.26-1.01s-.49-.64-.96-1.05c-.59-.52-1-.99-1.23-1.41-.23-.42-.35-.9-.35-1.42,0-.72.18-1.28.55-1.67.36-.39.89-.59,1.59-.59s1.2.2,1.55.59c.35.39.53.96.53,1.7v.38h-1.35v-.47c0-.31-.06-.54-.18-.68-.12-.14-.3-.21-.53-.21-.48,0-.71.29-.71.87,0,.33.09.64.27.92.18.29.5.63.97,1.04.6.52,1.01.99,1.23,1.42.23.42.34.92.34,1.5,0,.75-.18,1.32-.55,1.72-.37.4-.9.6-1.61.6s-1.22-.2-1.57-.59Z"/><path class="cls-12" d="m239.59,480.31h-.47v-1.38h1.38v1.23l-.71,1.7h-.66l.47-1.56Z"/><path class="cls-12" d="m94.58,492.21h2.11c.71,0,1.24.19,1.6.57.35.38.53.94.53,1.68v.9c0,.74-.18,1.3-.53,1.68-.36.38-.89.57-1.6.57h-.68v3.71h-1.43v-9.1Zm2.11,4.1c.23,0,.41-.06.53-.2.12-.13.18-.35.18-.66v-1.08c0-.31-.06-.53-.18-.66-.12-.13-.29-.19-.53-.19h-.68v2.79h.68Z"/><path class="cls-12" d="m100.49,492.21h1.94l1.48,9.1h-1.43l-.26-1.81v.03h-1.62l-.26,1.78h-1.33l1.48-9.1Zm1.56,6.08l-.64-4.5h-.03l-.62,4.5h1.29Z"/><path class="cls-12" d="m105.25,500.86c-.36-.39-.54-.94-.54-1.65v-4.89c0-.71.18-1.26.54-1.65.36-.39.88-.58,1.57-.58s1.21.19,1.57.58c.36.39.54.94.54,1.65v.96h-1.35v-1.05c0-.56-.24-.85-.72-.85s-.71.28-.71.85v5.08c0,.55.24.83.71.83s.72-.28.72-.83v-1.39h1.35v1.29c0,.71-.18,1.26-.54,1.65-.36.39-.88.58-1.57.58s-1.21-.19-1.57-.58Z"/><path class="cls-12" d="m110.01,492.21h3.9v1.3h-2.47v2.4h1.96v1.3h-1.96v2.8h2.47v1.3h-3.9v-9.1Z"/><path class="cls-12" d="m117.74,500.85c-.37-.4-.56-.96-.56-1.69v-4.78c0-.73.19-1.29.56-1.69.37-.4.91-.6,1.61-.6s1.24.2,1.61.6c.37.4.56.96.56,1.69v4.78c0,.73-.19,1.29-.56,1.69-.37.4-.91.6-1.61.6s-1.24-.2-1.61-.6Zm2.35-1.6v-4.97c0-.6-.25-.9-.74-.9s-.74.3-.74.9v4.97c0,.6.25.9.74.9s.74-.3.74-.9Z"/><path class="cls-12" d="m122.72,492.21h3.78v1.3h-2.35v2.53h1.85v1.3h-1.85v3.96h-1.43v-9.1Z"/><path class="cls-12" d="m129.73,492.21h2.11c.71,0,1.24.19,1.6.57s.53.94.53,1.68v.9c0,.74-.18,1.3-.53,1.68s-.89.57-1.6.57h-.68v3.71h-1.43v-9.1Zm2.11,4.1c.23,0,.41-.06.53-.2.12-.13.18-.35.18-.66v-1.08c0-.31-.06-.53-.18-.66-.12-.13-.29-.19-.53-.19h-.68v2.79h.68Z"/><path class="cls-12" d="m134.99,492.21h2.12c.74,0,1.27.17,1.61.51s.51.87.51,1.58v.56c0,.94-.31,1.54-.94,1.79v.03c.35.1.59.32.73.64.14.32.21.75.21,1.29v1.6c0,.26,0,.47.03.63.02.16.06.32.13.47h-1.46c-.05-.15-.09-.29-.1-.42-.02-.13-.03-.36-.03-.7v-1.66c0-.42-.07-.71-.2-.87-.13-.16-.37-.25-.7-.25h-.49v3.9h-1.43v-9.1Zm1.95,3.9c.29,0,.5-.07.64-.22.14-.15.21-.39.21-.74v-.7c0-.33-.06-.57-.18-.72-.12-.15-.3-.22-.55-.22h-.65v2.6h.52Z"/><path class="cls-12" d="m140.92,500.85c-.37-.4-.56-.96-.56-1.69v-4.78c0-.73.19-1.29.56-1.69.37-.4.91-.6,1.61-.6s1.24.2,1.61.6c.37.4.56.96.56,1.69v4.78c0,.73-.19,1.29-.56,1.69-.37.4-.91.6-1.61.6s-1.24-.2-1.61-.6Zm2.35-1.6v-4.97c0-.6-.25-.9-.74-.9s-.74.3-.74.9v4.97c0,.6.25.9.74.9s.74-.3.74-.9Z"/><path class="cls-12" d="m146.34,500.85c-.36-.39-.55-.96-.55-1.7v-4.78c0-.74.18-1.3.55-1.7.36-.39.89-.59,1.59-.59s1.22.2,1.59.59c.36.39.55.96.55,1.7v.78h-1.35v-.87c0-.6-.25-.9-.74-.9s-.74.3-.74.9v4.98c0,.59.25.88.74.88s.74-.29.74-.88v-1.78h-.71v-1.3h2.07v2.98c0,.74-.18,1.3-.55,1.7s-.89.59-1.59.59-1.22-.2-1.59-.59Z"/><path class="cls-12" d="m151.21,492.21h2.12c.74,0,1.27.17,1.61.51.34.34.51.87.51,1.58v.56c0,.94-.31,1.54-.94,1.79v.03c.35.1.59.32.73.64.14.32.21.75.21,1.29v1.6c0,.26,0,.47.03.63.02.16.06.32.13.47h-1.46c-.05-.15-.09-.29-.1-.42s-.03-.36-.03-.7v-1.66c0-.42-.07-.71-.2-.87s-.37-.25-.7-.25h-.49v3.9h-1.43v-9.1Zm1.95,3.9c.29,0,.5-.07.64-.22s.21-.39.21-.74v-.7c0-.33-.06-.57-.18-.72-.12-.15-.3-.22-.55-.22h-.65v2.6h.52Z"/><path class="cls-12" d="m156.68,492.21h3.9v1.3h-2.47v2.4h1.96v1.3h-1.96v2.8h2.47v1.3h-3.9v-9.1Z"/><path class="cls-12" d="m161.95,500.85c-.36-.39-.53-.96-.53-1.7v-.52h1.35v.62c0,.59.25.88.74.88.24,0,.43-.07.55-.21.13-.14.19-.38.19-.7,0-.38-.09-.72-.26-1.01s-.49-.64-.96-1.05c-.59-.52-1-.99-1.23-1.41s-.35-.9-.35-1.42c0-.72.18-1.28.55-1.67.36-.39.89-.59,1.59-.59s1.2.2,1.55.59c.35.39.53.96.53,1.7v.38h-1.35v-.47c0-.31-.06-.54-.18-.68-.12-.14-.3-.21-.53-.21-.48,0-.72.29-.72.87,0,.33.09.64.27.92.18.29.5.63.97,1.04.6.52,1.01.99,1.24,1.42.23.42.34.92.34,1.5,0,.75-.18,1.32-.55,1.72-.37.4-.9.6-1.61.6s-1.22-.2-1.57-.59Z"/><path class="cls-12" d="m167.02,500.85c-.36-.39-.53-.96-.53-1.7v-.52h1.35v.62c0,.59.25.88.74.88.24,0,.43-.07.55-.21.13-.14.19-.38.19-.7,0-.38-.09-.72-.26-1.01s-.49-.64-.96-1.05c-.59-.52-1-.99-1.24-1.41-.23-.42-.35-.9-.35-1.42,0-.72.18-1.28.55-1.67.36-.39.89-.59,1.59-.59s1.2.2,1.55.59c.35.39.53.96.53,1.7v.38h-1.35v-.47c0-.31-.06-.54-.18-.68s-.3-.21-.53-.21c-.48,0-.72.29-.72.87,0,.33.09.64.27.92.18.29.5.63.97,1.04.6.52,1.01.99,1.23,1.42.23.42.34.92.34,1.5,0,.75-.18,1.32-.55,1.72-.37.4-.9.6-1.61.6s-1.22-.2-1.57-.59Z"/><path class="cls-12" d="m176.09,492.21h1.38l.64,6.99h.03l.68-6.99h1.56l.68,6.99h.03l.64-6.99h1.24l-.92,9.1h-1.78l-.65-6.14h-.03l-.65,6.14h-1.9l-.92-9.1Z"/><path class="cls-12" d="m183.91,492.21h1.43v9.1h-1.43v-9.1Z"/><path class="cls-12" d="m186.63,492.21h1.43v7.8h2.35v1.3h-3.78v-9.1Z"/><path class="cls-12" d="m191.34,492.21h1.43v7.8h2.35v1.3h-3.78v-9.1Z"/><path class="cls-12" d="m198.36,492.21h1.43v3.71h1.53v-3.71h1.43v9.1h-1.43v-4.1h-1.53v4.1h-1.43v-9.1Z"/><path class="cls-12" d="m205.16,492.21h1.94l1.48,9.1h-1.43l-.26-1.81v.03h-1.62l-.26,1.78h-1.33l1.48-9.1Zm1.56,6.08l-.64-4.5h-.03l-.62,4.5h1.29Z"/><path class="cls-12" d="m208.76,492.21h1.44l.94,7.06h.03l.94-7.06h1.31l-1.38,9.1h-1.9l-1.38-9.1Z"/><path class="cls-12" d="m214.34,492.21h3.9v1.3h-2.47v2.4h1.96v1.3h-1.96v2.8h2.47v1.3h-3.9v-9.1Z"/><path class="cls-12" d="m222.72,493.51h-1.5v-1.3h4.42v1.3h-1.5v7.8h-1.43v-7.8Z"/><path class="cls-12" d="m226.97,500.85c-.37-.4-.56-.96-.56-1.69v-4.78c0-.73.19-1.29.56-1.69.37-.4.91-.6,1.61-.6s1.24.2,1.61.6c.37.4.56.96.56,1.69v4.78c0,.73-.19,1.29-.56,1.69-.37.4-.91.6-1.61.6s-1.24-.2-1.61-.6Zm2.35-1.6v-4.97c0-.6-.25-.9-.74-.9s-.74.3-.74.9v4.97c0,.6.25.9.74.9s.74-.3.74-.9Z"/><path class="cls-12" d="m237.68,492.21h1.94l1.48,9.1h-1.43l-.26-1.81v.03h-1.62l-.26,1.78h-1.33l1.48-9.1Zm1.56,6.08l-.64-4.5h-.03l-.62,4.5h1.29Z"/><path class="cls-12" d="m242.45,500.86c-.36-.39-.54-.94-.54-1.65v-4.89c0-.71.18-1.26.54-1.65.36-.39.88-.58,1.57-.58s1.21.19,1.57.58.54.94.54,1.65v.96h-1.35v-1.05c0-.56-.24-.85-.71-.85s-.72.28-.72.85v5.08c0,.55.24.83.72.83s.71-.28.71-.83v-1.39h1.35v1.29c0,.71-.18,1.26-.54,1.65s-.88.58-1.57.58-1.21-.19-1.57-.58Z"/><path class="cls-12" d="m247.69,500.86c-.36-.39-.54-.94-.54-1.65v-4.89c0-.71.18-1.26.54-1.65s.88-.58,1.57-.58,1.21.19,1.57.58c.36.39.54.94.54,1.65v.96h-1.35v-1.05c0-.56-.24-.85-.71-.85s-.71.28-.71.85v5.08c0,.55.24.83.71.83s.71-.28.71-.83v-1.39h1.35v1.29c0,.71-.18,1.26-.54,1.65-.36.39-.88.58-1.57.58s-1.21-.19-1.57-.58Z"/><path class="cls-12" d="m252.45,492.21h3.9v1.3h-2.47v2.4h1.96v1.3h-1.96v2.8h2.47v1.3h-3.9v-9.1Z"/><path class="cls-12" d="m257.4,492.21h1.43v7.8h2.35v1.3h-3.78v-9.1Z"/><path class="cls-12" d="m262.11,492.21h3.9v1.3h-2.47v2.4h1.96v1.3h-1.96v2.8h2.47v1.3h-3.9v-9.1Z"/><path class="cls-12" d="m267.06,492.21h2.12c.74,0,1.27.17,1.61.51.34.34.51.87.51,1.58v.56c0,.94-.31,1.54-.94,1.79v.03c.35.1.59.32.73.64.14.32.21.75.21,1.29v1.6c0,.26,0,.47.03.63.02.16.06.32.13.47h-1.46c-.05-.15-.09-.29-.1-.42-.02-.13-.03-.36-.03-.7v-1.66c0-.42-.07-.71-.2-.87s-.37-.25-.7-.25h-.49v3.9h-1.43v-9.1Zm1.95,3.9c.29,0,.5-.07.64-.22s.21-.39.21-.74v-.7c0-.33-.06-.57-.18-.72-.12-.15-.3-.22-.55-.22h-.65v2.6h.52Z"/><path class="cls-12" d="m273.64,492.21h1.94l1.48,9.1h-1.43l-.26-1.81v.03h-1.62l-.26,1.78h-1.33l1.48-9.1Zm1.56,6.08l-.64-4.5h-.03l-.62,4.5h1.29Z"/><path class="cls-12" d="m278.5,493.51h-1.5v-1.3h4.42v1.3h-1.5v7.8h-1.43v-7.8Z"/><path class="cls-12" d="m282.35,492.21h3.9v1.3h-2.47v2.4h1.96v1.3h-1.96v2.8h2.47v1.3h-3.9v-9.1Z"/><path class="cls-16" d="m63.25,538.05c-.49-.52-.73-1.26-.73-2.21v-6.15c0-2.06.95-3.09,2.86-3.09.91,0,1.6.26,2.07.77s.71,1.26.71,2.22v.22h-1.77v-.34c0-.78-.32-1.17-.97-1.17-.35,0-.61.11-.78.32-.17.22-.25.59-.25,1.14v2.28h.03c.33-.69.9-1.04,1.7-1.04.68,0,1.2.23,1.55.7.35.46.53,1.14.53,2.02v2.12c0,.95-.24,1.69-.73,2.21-.49.52-1.19.78-2.11.78s-1.62-.26-2.11-.78Zm3.08-2.07v-2.11c0-.78-.32-1.17-.97-1.17s-.97.39-.97,1.17v2.11c0,.77.32,1.16.97,1.16s.97-.39.97-1.16Z"/><path class="cls-16" d="m70.98,533.65l-1.69-4.79h1.62l1.04,3.16h.03l1.06-3.16h1.46l-1.69,4.79,1.78,5.01h-1.62l-1.12-3.42h-.03l-1.15,3.42h-1.46l1.78-5.01Z"/><circle class="cls-14" cx="195.08" cy="533.24" r="13.65"/><path class="cls-16" d="m190.44,538.06c-.48-.52-.71-1.25-.71-2.22v-.94h1.77v1.07c0,.77.32,1.16.97,1.16s.97-.39.97-1.16v-2.67c0-.78-.32-1.17-.97-1.17s-.97.39-.97,1.17v.1h-1.77l.34-6.65h4.93v1.7h-3.26l-.15,2.84h.03c.35-.58.89-.87,1.61-.87.68,0,1.2.23,1.55.7.35.46.53,1.14.53,2.02v2.69c0,.96-.24,1.7-.71,2.22-.48.52-1.17.77-2.07.77s-1.6-.26-2.07-.77Z"/><path class="cls-16" d="m198.16,533.65l-1.69-4.79h1.62l1.04,3.16h.03l1.06-3.16h1.46l-1.69,4.79,1.78,5.01h-1.62l-1.12-3.42h-.03l-1.15,3.42h-1.46l1.78-5.01Z"/><circle class="cls-14" cx="314.31" cy="533.24" r="13.65"/><path class="cls-16" d="m309.58,538.07c-.47-.51-.71-1.24-.71-2.19v-.97h1.77v1.05c0,.78.32,1.17.97,1.17.32,0,.56-.1.72-.3.16-.2.25-.55.25-1.05v-.97c0-.54-.1-.93-.29-1.16-.19-.23-.5-.35-.94-.35h-.63v-1.7h.68c.37,0,.65-.1.84-.29.19-.19.28-.52.28-.97v-.87c0-.41-.08-.71-.25-.9-.17-.19-.4-.29-.68-.29-.6,0-.9.37-.9,1.1v.78h-1.77v-.63c0-.95.24-1.68.71-2.19.47-.51,1.15-.76,2.03-.76s1.58.25,2.04.76c.46.5.7,1.23.7,2.18v.42c0,.65-.11,1.16-.32,1.56-.22.39-.55.67-1,.84v.03c.49.18.84.48,1.05.88.22.41.32.93.32,1.56v1.05c0,.95-.24,1.68-.71,2.18-.47.5-1.16.76-2.08.76s-1.61-.25-2.08-.77Z"/><path class="cls-16" d="m317.39,533.65l-1.69-4.79h1.62l1.04,3.16h.03l1.06-3.16h1.46l-1.69,4.79,1.78,5.01h-1.62l-1.12-3.42h-.03l-1.15,3.42h-1.46l1.78-5.01Z"/></g></svg>