<?xml version="1.0" encoding="UTF-8"?>
<svg id="Layer_2" data-name="Layer 2" xmlns="http://www.w3.org/2000/svg" xmlns:xlink="http://www.w3.org/1999/xlink" viewBox="0 0 177.65 154.1">
  <defs>
    <style>
      .cls-1 {
        fill: #fff;
      }

      .cls-2 {
        fill: #c6e4f1;
      }

      .cls-3 {
        fill: #939598;
      }

      .cls-4 {
        fill: #00add8;
      }

      .cls-5 {
        clip-path: url(#clippath);
      }

      .cls-6 {
        fill: #3e97b3;
      }

      .cls-7 {
        fill: #e7f3f9;
      }
    </style>
    <clipPath id="clippath">
      <path class="cls-7" d="M77.19,.01c1.39,.09,2.7,.71,3.64,1.73,25.43,28.05,49.78,61.4,49.78,93.68s-23.85,58.68-53.75,58.68-53.75-26.59-53.75-58.68S47.44,29.8,72.87,1.74c1.1-1.2,2.69-1.84,4.31-1.73Zm-.34,13.72c-23.09,26.34-43,56.55-43,81.69,0,26.81,19.5,47.93,43,47.93s43-21.12,43-47.93c0-25.13-19.91-55.35-43-81.69h0Zm32.25,73.85c2.78,.05,5.06,2.21,5.27,4.98,1.31,14.11-5.43,29.4-16.35,37.12-2.43,1.7-5.79,1.12-7.5-1.32-1.7-2.42-1.13-5.76,1.28-7.47,6.57-4.64,12.75-17.87,11.87-27.32-.34-2.95,1.78-5.62,4.73-5.96,.23-.03,.47-.04,.71-.03Z"/>
    </clipPath>
  </defs>
  <g id="Layer_2-2" data-name="Layer 2">
    <g>
      <path class="cls-2" d="M77.19,.01c1.39,.09,2.7,.71,3.64,1.73,25.43,28.05,49.78,61.4,49.78,93.68s-23.85,58.68-53.75,58.68-53.75-26.59-53.75-58.68S47.44,29.8,72.87,1.74c1.1-1.2,2.69-1.84,4.31-1.73Zm-.34,13.72c-23.09,26.34-43,56.55-43,81.69,0,26.81,19.5,47.93,43,47.93s43-21.12,43-47.93c0-25.13-19.91-55.35-43-81.69h0Zm32.25,73.85c2.78,.05,5.06,2.21,5.27,4.98,1.31,14.11-5.43,29.4-16.35,37.12-2.43,1.7-5.79,1.12-7.5-1.32-1.7-2.42-1.13-5.76,1.28-7.47,6.57-4.64,12.75-17.87,11.87-27.32-.34-2.95,1.78-5.62,4.73-5.96,.23-.03,.47-.04,.71-.03Z"/>
      <g>
        <path class="cls-7" d="M77.19,.01c1.39,.09,2.7,.71,3.64,1.73,25.43,28.05,49.78,61.4,49.78,93.68s-23.85,58.68-53.75,58.68-53.75-26.59-53.75-58.68S47.44,29.8,72.87,1.74c1.1-1.2,2.69-1.84,4.31-1.73Zm-.34,13.72c-23.09,26.34-43,56.55-43,81.69,0,26.81,19.5,47.93,43,47.93s43-21.12,43-47.93c0-25.13-19.91-55.35-43-81.69h0Zm32.25,73.85c2.78,.05,5.06,2.21,5.27,4.98,1.31,14.11-5.43,29.4-16.35,37.12-2.43,1.7-5.79,1.12-7.5-1.32-1.7-2.42-1.13-5.76,1.28-7.47,6.57-4.64,12.75-17.87,11.87-27.32-.34-2.95,1.78-5.62,4.73-5.96,.23-.03,.47-.04,.71-.03Z"/>
        <g class="cls-5">
          <rect class="cls-1" x="71.4" y="41.61" width="105.13" height="3.62"/>
          <rect class="cls-1" x="70.28" y="52.37" width="105.13" height="3.62"/>
          <rect class="cls-1" x="69.16" y="63.13" width="105.13" height="3.62"/>
          <rect class="cls-1" x="68.04" y="73.89" width="105.13" height="3.62"/>
          <rect class="cls-1" x="72.52" y="84.65" width="105.13" height="3.62"/>
          <rect class="cls-1" x="66.91" y="95.41" width="105.13" height="3.62"/>
          <rect class="cls-1" x="65.79" y="106.17" width="105.13" height="3.62"/>
          <rect class="cls-1" x="64.67" y="116.93" width="105.13" height="3.62"/>
        </g>
      </g>
      <path class="cls-7" d="M109.1,87.58c2.78,.05,5.06,2.21,5.27,4.98,1.31,14.11-5.43,29.4-16.35,37.12-2.43,1.7-5.79,1.12-7.5-1.32-1.7-2.42-1.13-5.76,1.28-7.47,6.57-4.64,12.75-17.87,11.87-27.32-.34-2.95,1.78-5.62,4.73-5.96,.23-.03,.47-.04,.71-.03Z"/>
    </g>
    <g>
      <path class="cls-4" d="M0,38.99c0-2.66,.75-4.28,2.93-6.57,2.24-2.37,2.87-3.78,2.87-5.51s-.58-2.13-1.52-2.13-1.52,.51-1.52,1.84v2H0v-1.81c0-2.98,1.49-4.68,4.36-4.68s4.36,1.7,4.36,4.68c0,2.21-.91,4.18-3.62,7.05-1.76,1.86-2.21,2.79-2.21,4.1v.4h5.56v2.66H0v-2.02Z"/>
      <path class="cls-4" d="M10.7,38.19h2.82v2.82h-2.82v-2.82Z"/>
      <path class="cls-4" d="M20.6,37.64h-5.59v-2.66l5.32-12.59h3.19v12.59h1.38v2.66h-1.38v3.38h-2.93v-3.38Zm0-2.66v-7.26h-.05l-2.87,7.26h2.93Z"/>
      <path class="cls-4" d="M30.61,22.39h4.42c3.03,0,4.34,1.41,4.34,4.28v.75c0,1.92-.59,3.11-1.89,3.65v.05c1.57,.53,2.18,1.92,2.18,3.89v1.6c0,2.87-1.52,4.42-4.44,4.42h-4.6V22.39Zm4.07,7.58c1.09,0,1.76-.48,1.76-1.97v-1.04c0-1.33-.45-1.92-1.49-1.92h-1.41v4.92h1.14Zm.53,8.38c.98,0,1.52-.45,1.52-1.84v-1.62c0-1.73-.56-2.26-1.89-2.26h-1.3v5.72h1.68Z"/>
      <path class="cls-4" d="M41.36,22.39h2.93v18.63h-2.93V22.39Z"/>
      <path class="cls-4" d="M46.47,22.39h2.93v15.97h4.82v2.66h-7.74V22.39Z"/>
      <path class="cls-4" d="M55.62,22.39h2.93v15.97h4.82v2.66h-7.74V22.39Z"/>
      <path class="cls-4" d="M64.78,22.39h2.93v18.63h-2.93V22.39Z"/>
      <path class="cls-4" d="M69.68,36.6v-9.79c0-2.98,1.57-4.68,4.44-4.68s4.44,1.7,4.44,4.68v9.79c0,2.98-1.57,4.68-4.44,4.68s-4.44-1.7-4.44-4.68Zm5.96,.19v-10.17c0-1.33-.58-1.84-1.52-1.84s-1.52,.51-1.52,1.84v10.17c0,1.33,.58,1.84,1.52,1.84s1.52-.51,1.52-1.84Z"/>
      <path class="cls-4" d="M80.54,22.39h3.67l2.85,11.15h.05v-11.15h2.61v18.63h-3.01l-3.51-13.6h-.05v13.6h-2.61V22.39Z"/>
      <path class="cls-3" d="M96.16,22.39h4.31c2.93,0,4.36,1.62,4.36,4.6v1.84c0,2.98-1.44,4.6-4.36,4.6h-1.38v7.58h-2.93V22.39Zm4.31,8.38c.93,0,1.44-.43,1.44-1.76v-2.21c0-1.33-.51-1.76-1.44-1.76h-1.38v5.72h1.38Z"/>
      <path class="cls-3" d="M106.43,22.39h7.98v2.66h-5.06v4.92h4.02v2.66h-4.02v5.72h5.06v2.66h-7.98V22.39Z"/>
      <path class="cls-3" d="M115.88,36.6v-9.79c0-2.98,1.57-4.68,4.44-4.68s4.44,1.7,4.44,4.68v9.79c0,2.98-1.57,4.68-4.44,4.68s-4.44-1.7-4.44-4.68Zm5.96,.19v-10.17c0-1.33-.58-1.84-1.52-1.84s-1.52,.51-1.52,1.84v10.17c0,1.33,.58,1.84,1.52,1.84s1.52-.51,1.52-1.84Z"/>
      <path class="cls-3" d="M126.74,22.39h4.31c2.93,0,4.36,1.62,4.36,4.6v1.84c0,2.98-1.44,4.6-4.36,4.6h-1.38v7.58h-2.93V22.39Zm4.31,8.38c.93,0,1.44-.43,1.44-1.76v-2.21c0-1.33-.51-1.76-1.44-1.76h-1.38v5.72h1.38Z"/>
      <path class="cls-3" d="M137.01,22.39h2.93v15.97h4.82v2.66h-7.74V22.39Z"/>
      <path class="cls-3" d="M146.17,22.39h7.98v2.66h-5.06v4.92h4.02v2.66h-4.02v5.72h5.06v2.66h-7.98V22.39Z"/>
    </g>
    <g>
      <g>
        <path class="cls-6" d="M48.04,55.93c-.93,0-1.82-.33-2.51-.95-.87-.83-2.23-.83-3.1,0-1.43,1.27-3.59,1.27-5.02,0-.87-.83-2.23-.83-3.1,0-1.43,1.27-3.59,1.27-5.02,0-.87-.83-2.23-.83-3.1,0-1.43,1.27-3.59,1.27-5.02,0-.87-.83-2.23-.83-3.1,0-1.43,1.27-3.59,1.27-5.02,0-.87-.83-2.23-.83-3.1,0-.69,.62-1.58,.96-2.51,.95-.93,0-1.82-.33-2.51-.95-.41-.4-.97-.63-1.55-.62v-1.57c.93,0,1.82,.33,2.51,.95,.87,.83,2.23,.83,3.1,0,1.43-1.27,3.59-1.27,5.02,0,.87,.83,2.23,.83,3.1,0,1.43-1.27,3.59-1.27,5.02,0,.87,.83,2.23,.83,3.1,0,1.43-1.27,3.59-1.27,5.02,0,.87,.83,2.23,.83,3.1,0,1.43-1.27,3.59-1.27,5.02,0,.87,.83,2.23,.83,3.1,0,1.43-1.27,3.59-1.27,5.02,0,.87,.83,2.23,.83,3.1,0,.69-.62,1.58-.96,2.51-.95v1.57c-.58,0-1.13,.22-1.55,.62-.69,.62-1.58,.96-2.51,.95Z"/>
        <path class="cls-6" d="M146.25,55.93c-.93,0-1.82-.33-2.51-.95-.87-.83-2.23-.83-3.1,0-1.43,1.27-3.59,1.27-5.02,0-.87-.83-2.23-.83-3.1,0-1.43,1.27-3.59,1.27-5.02,0-.87-.83-2.23-.83-3.1,0-1.43,1.27-3.59,1.27-5.02,0-.87-.83-2.23-.83-3.1,0-1.43,1.27-3.59,1.27-5.02,0-.87-.83-2.23-.83-3.1,0-.69,.62-1.58,.96-2.51,.95-.93,0-1.82-.33-2.51-.95-.41-.4-.97-.63-1.55-.62v-1.57c.93,0,1.82,.33,2.51,.95,.87,.83,2.23,.83,3.1,0,1.43-1.27,3.59-1.27,5.02,0,.87,.83,2.23,.83,3.1,0,1.43-1.27,3.59-1.27,5.02,0,.87,.83,2.23,.83,3.1,0,1.43-1.27,3.59-1.27,5.02,0,.87,.83,2.23,.83,3.1,0,1.43-1.27,3.59-1.27,5.02,0,.87,.83,2.23,.83,3.1,0,1.43-1.27,3.59-1.27,5.02,0,.87,.83,2.23,.83,3.1,0,.69-.62,1.58-.96,2.51-.95v1.57c-.58,0-1.13,.22-1.55,.62-.69,.62-1.58,.96-2.51,.95Z"/>
      </g>
      <g>
        <path class="cls-4" d="M61.67,49.43h1.58v8.6h2.59v1.43h-4.17v-10.03Z"/>
        <path class="cls-4" d="M66.89,49.43h1.58v10.03h-1.58v-10.03Z"/>
        <path class="cls-4" d="M69.51,49.43h1.59l1.03,7.78h.03l1.03-7.78h1.45l-1.52,10.03h-2.09l-1.52-10.03Z"/>
        <path class="cls-4" d="M75.69,49.43h4.3v1.43h-2.72v2.65h2.16v1.43h-2.16v3.08h2.72v1.43h-4.3v-10.03Z"/>
        <path class="cls-4" d="M83.76,49.43h1.58v10.03h-1.58v-10.03Z"/>
        <path class="cls-4" d="M86.8,49.43h1.98l1.53,6h.03v-6h1.4v10.03h-1.62l-1.89-7.32h-.03v7.32h-1.4v-10.03Z"/>
      </g>
    </g>
    <g>
      <g>
        <rect class="cls-4" x="18.48" y="67.02" width="116.73" height="22.66"/>
        <rect class="cls-4" x="38.14" y="91.35" width="76.3" height="22.81"/>
        <g>
          <path class="cls-1" d="M22.76,71.08h2.06l.95,10.47h.04l1.01-10.47h2.33l1.01,10.47h.04l.95-10.47h1.85l-1.38,13.62h-2.67l-.97-9.18h-.04l-.97,9.18h-2.84l-1.38-13.62Z"/>
          <path class="cls-1" d="M35.87,71.08h2.9l2.22,13.62h-2.14l-.39-2.7v.04h-2.43l-.39,2.67h-1.98l2.22-13.62Zm2.33,9.1l-.95-6.73h-.04l-.93,6.73h1.93Z"/>
          <path class="cls-1" d="M43.18,73.02h-2.24v-1.95h6.61v1.95h-2.24v11.67h-2.14v-11.67Z"/>
          <path class="cls-1" d="M48.98,71.08h5.84v1.95h-3.7v3.6h2.94v1.95h-2.94v4.18h3.7v1.95h-5.84v-13.62Z"/>
          <path class="cls-1" d="M56.42,71.08h3.17c2.22,0,3.17,1.03,3.17,3.13v.84c0,1.4-.45,2.3-1.4,2.68v.04c1.07,.33,1.42,1.34,1.42,2.88v2.39c0,.66,.02,1.15,.23,1.65h-2.18c-.12-.35-.19-.56-.19-1.67v-2.49c0-1.26-.37-1.67-1.34-1.67h-.74v5.84h-2.14v-13.62Zm2.92,5.84c.8,0,1.28-.35,1.28-1.44v-1.05c0-.97-.33-1.4-1.09-1.4h-.97v3.89h.78Z"/>
          <path class="cls-1" d="M64.34,76.92h4.28v1.95h-4.28v-1.95Z"/>
          <path class="cls-1" d="M69.92,81.47v-.78h2.02v.93c0,.97,.43,1.32,1.11,1.32s1.11-.35,1.11-1.36c0-1.13-.43-1.85-1.83-3.07-1.79-1.58-2.37-2.69-2.37-4.24,0-2.14,1.11-3.39,3.19-3.39s3.11,1.25,3.11,3.42v.56h-2.02v-.7c0-.97-.39-1.34-1.07-1.34s-1.07,.37-1.07,1.3c0,.99,.45,1.71,1.85,2.94,1.79,1.58,2.35,2.67,2.35,4.36,0,2.22-1.13,3.46-3.23,3.46s-3.15-1.25-3.15-3.42Z"/>
          <path class="cls-1" d="M79.59,73.02h-2.24v-1.95h6.61v1.95h-2.24v11.67h-2.14v-11.67Z"/>
          <path class="cls-1" d="M85.39,71.08h3.17c2.22,0,3.17,1.03,3.17,3.13v.84c0,1.4-.45,2.3-1.4,2.68v.04c1.07,.33,1.42,1.34,1.42,2.88v2.39c0,.66,.02,1.15,.23,1.65h-2.18c-.12-.35-.19-.56-.19-1.67v-2.49c0-1.26-.37-1.67-1.34-1.67h-.74v5.84h-2.14v-13.62Zm2.92,5.84c.8,0,1.28-.35,1.28-1.44v-1.05c0-.97-.33-1.4-1.09-1.4h-.97v3.89h.78Z"/>
          <path class="cls-1" d="M93.61,71.08h5.84v1.95h-3.7v3.6h2.94v1.95h-2.94v4.18h3.7v1.95h-5.84v-13.62Z"/>
          <path class="cls-1" d="M100.73,81.47v-.78h2.02v.93c0,.97,.43,1.32,1.11,1.32s1.11-.35,1.11-1.36c0-1.13-.43-1.85-1.83-3.07-1.79-1.58-2.37-2.69-2.37-4.24,0-2.14,1.11-3.39,3.19-3.39s3.11,1.25,3.11,3.42v.56h-2.02v-.7c0-.97-.39-1.34-1.07-1.34s-1.07,.37-1.07,1.3c0,.99,.45,1.71,1.85,2.94,1.79,1.58,2.35,2.67,2.35,4.36,0,2.22-1.13,3.46-3.23,3.46s-3.15-1.25-3.15-3.42Z"/>
          <path class="cls-1" d="M108.35,81.47v-.78h2.02v.93c0,.97,.43,1.32,1.11,1.32s1.11-.35,1.11-1.36c0-1.13-.43-1.85-1.83-3.07-1.79-1.58-2.37-2.69-2.37-4.24,0-2.14,1.11-3.39,3.19-3.39s3.11,1.25,3.11,3.42v.56h-2.02v-.7c0-.97-.39-1.34-1.07-1.34s-1.07,.37-1.07,1.3c0,.99,.45,1.71,1.85,2.94,1.79,1.58,2.35,2.67,2.35,4.36,0,2.22-1.13,3.46-3.23,3.46s-3.15-1.25-3.15-3.42Z"/>
          <path class="cls-1" d="M116.35,71.08h5.84v1.95h-3.7v3.6h2.94v1.95h-2.94v4.18h3.7v1.95h-5.84v-13.62Z"/>
          <path class="cls-1" d="M123.8,71.08h3.27c2.14,0,3.19,1.19,3.19,3.37v6.89c0,2.18-1.05,3.37-3.19,3.37h-3.27v-13.62Zm3.23,11.67c.68,0,1.09-.35,1.09-1.32v-7.08c0-.97-.41-1.32-1.09-1.32h-1.09v9.73h1.09Z"/>
          <path class="cls-1" d="M43.6,106.11v-7.31c0-2.1,1.09-3.35,3.15-3.35s3.15,1.25,3.15,3.35v1.44h-2.02v-1.58c0-.9-.43-1.26-1.07-1.26s-1.07,.37-1.07,1.26v7.61c0,.9,.43,1.25,1.07,1.25s1.07-.35,1.07-1.25v-2.08h2.02v1.93c0,2.1-1.09,3.35-3.15,3.35s-3.15-1.25-3.15-3.35Z"/>
          <path class="cls-1" d="M51.46,106.04v-7.16c0-2.18,1.15-3.42,3.25-3.42s3.25,1.25,3.25,3.42v7.16c0,2.18-1.15,3.42-3.25,3.42s-3.25-1.25-3.25-3.42Zm4.36,.14v-7.43c0-.97-.43-1.34-1.11-1.34s-1.11,.37-1.11,1.34v7.43c0,.97,.43,1.34,1.11,1.34s1.11-.37,1.11-1.34Z"/>
          <path class="cls-1" d="M59.7,106.04v-10.39h2.14v10.54c0,.97,.41,1.32,1.09,1.32s1.09-.35,1.09-1.32v-10.54h2.06v10.39c0,2.18-1.09,3.42-3.19,3.42s-3.19-1.25-3.19-3.42Z"/>
          <path class="cls-1" d="M67.99,95.65h2.68l2.08,8.15h.04v-8.15h1.91v13.62h-2.2l-2.57-9.94h-.04v9.94h-1.91v-13.62Z"/>
          <path class="cls-1" d="M78.35,97.59h-2.24v-1.95h6.61v1.95h-2.24v11.67h-2.14v-11.67Z"/>
          <path class="cls-1" d="M84.15,95.65h3.17c2.22,0,3.17,1.03,3.17,3.13v.84c0,1.4-.45,2.3-1.4,2.69v.04c1.07,.33,1.42,1.34,1.42,2.88v2.39c0,.66,.02,1.15,.23,1.65h-2.18c-.12-.35-.19-.56-.19-1.67v-2.49c0-1.26-.37-1.67-1.34-1.67h-.74v5.84h-2.14v-13.62Zm2.92,5.84c.8,0,1.28-.35,1.28-1.44v-1.05c0-.97-.33-1.4-1.09-1.4h-.97v3.89h.78Z"/>
          <path class="cls-1" d="M92.38,95.65h2.14v13.62h-2.14v-13.62Z"/>
          <path class="cls-1" d="M96.5,95.65h5.84v1.95h-3.7v3.6h2.94v1.95h-2.94v4.18h3.7v1.95h-5.84v-13.62Z"/>
          <path class="cls-1" d="M103.62,106.04v-.78h2.02v.93c0,.97,.43,1.32,1.11,1.32s1.11-.35,1.11-1.36c0-1.13-.43-1.85-1.83-3.07-1.79-1.58-2.37-2.69-2.37-4.24,0-2.14,1.11-3.39,3.19-3.39s3.11,1.25,3.11,3.42v.56h-2.02v-.7c0-.97-.39-1.34-1.07-1.34s-1.07,.37-1.07,1.3c0,.99,.45,1.71,1.85,2.94,1.79,1.58,2.35,2.67,2.35,4.36,0,2.22-1.13,3.46-3.23,3.46s-3.15-1.25-3.15-3.42Z"/>
        </g>
      </g>
      <g>
        <path class="cls-3" d="M66.62,124.98v-4.94c0-1.12,.44-1.53,1.54-1.53h.34v.9h-.27c-.35,0-.51,.13-.51,.63v4.94c0,.5,.16,.63,.51,.63h.27v.9h-.34c-1.1,0-1.54-.41-1.54-1.53Z"/>
        <path class="cls-3" d="M69.24,125.25c0-1,.28-1.61,1.1-2.47,.84-.89,1.08-1.42,1.08-2.07s-.22-.8-.57-.8-.57,.19-.57,.69v.75h-1.04v-.68c0-1.12,.56-1.76,1.64-1.76s1.64,.64,1.64,1.76c0,.83-.34,1.57-1.36,2.65-.66,.7-.83,1.05-.83,1.54v.15h2.09v1h-3.18v-.76Z"/>
        <path class="cls-3" d="M73.18,124.35v-3.68c0-1.12,.59-1.76,1.67-1.76s1.67,.64,1.67,1.76v3.68c0,1.12-.59,1.76-1.67,1.76s-1.67-.64-1.67-1.76Zm2.24,.07v-3.82c0-.5-.22-.69-.57-.69s-.57,.19-.57,.69v3.82c0,.5,.22,.69,.57,.69s.57-.19,.57-.69Z"/>
        <path class="cls-3" d="M77.24,125.25c0-1,.28-1.61,1.1-2.47,.84-.89,1.08-1.42,1.08-2.07s-.22-.8-.57-.8-.57,.19-.57,.69v.75h-1.04v-.68c0-1.12,.56-1.76,1.64-1.76s1.64,.64,1.64,1.76c0,.83-.34,1.57-1.36,2.65-.66,.7-.83,1.05-.83,1.54v.15h2.09v1h-3.18v-.76Z"/>
        <path class="cls-3" d="M81.18,124.35v-3.68c0-1.12,.59-1.76,1.67-1.76s1.67,.64,1.67,1.76v3.68c0,1.12-.59,1.76-1.67,1.76s-1.67-.64-1.67-1.76Zm2.24,.07v-3.82c0-.5-.22-.69-.57-.69s-.57,.19-.57,.69v3.82c0,.5,.22,.69,.57,.69s.57-.19,.57-.69Z"/>
        <path class="cls-3" d="M85.2,125.61h.27c.35,0,.51-.13,.51-.63v-4.94c0-.5-.16-.63-.51-.63h-.27v-.9h.34c1.1,0,1.54,.41,1.54,1.53v4.94c0,1.12-.44,1.53-1.54,1.53h-.34v-.9Z"/>
      </g>
    </g>
  </g>
</svg>