<?xml version="1.0" encoding="UTF-8"?>
<svg id="Layer_2" data-name="Layer 2" xmlns="http://www.w3.org/2000/svg" viewBox="0 0 191.49 238.03">
  <defs>
    <style>
      .cls-1 {
        fill: #fff;
      }

      .cls-2 {
        fill: #c6e4f1;
      }

      .cls-3 {
        fill: #939598;
      }

      .cls-4 {
        fill: #00add8;
      }

      .cls-5 {
        stroke: #3e97b3;
      }

      .cls-5, .cls-6, .cls-7, .cls-8, .cls-9, .cls-10, .cls-11 {
        fill: none;
      }

      .cls-5, .cls-6, .cls-9, .cls-10, .cls-11 {
        stroke-miterlimit: 10;
        stroke-width: .75px;
      }

      .cls-6 {
        stroke: #f2f2ef;
      }

      .cls-12 {
        fill: #87c5d8;
      }

      .cls-7, .cls-8 {
        stroke: #939598;
        stroke-linecap: round;
        stroke-linejoin: round;
        stroke-width: 1.75px;
      }

      .cls-13 {
        fill: #8fcfe8;
      }

      .cls-14 {
        fill: #f2f2ef;
      }

      .cls-8 {
        stroke-dasharray: 0 0 0 2.89;
      }

      .cls-9 {
        stroke: #87c5d8;
      }

      .cls-15 {
        fill: #4ebcdf;
      }

      .cls-10 {
        stroke: #4ebcdf;
      }

      .cls-11 {
        stroke: #00add8;
      }

      .cls-16 {
        fill: #3e97b3;
      }
    </style>
  </defs>
  <g id="Layer_2-2" data-name="Layer 2">
    <path class="cls-2" d="M191.49,220.43c-3.64-.03-7.15,1.3-9.86,3.73-3.4,3.26-8.77,3.26-12.17,0-5.64-4.98-14.1-4.98-19.74,0-3.4,3.26-8.77,3.26-12.17,0-5.64-4.98-14.1-4.98-19.74,0-3.4,3.26-8.77,3.26-12.17,0-5.64-4.98-14.1-4.98-19.74,0-3.4,3.26-8.77,3.26-12.17,0-5.64-4.98-14.1-4.98-19.74,0-3.4,3.26-8.77,3.26-12.17,0-5.64-4.98-14.1-4.98-19.74,0-3.4,3.26-8.77,3.26-12.17,0-2.71-2.44-6.24-3.77-9.88-3.73v17.6H191.49v-17.6Z"/>
    <g>
      <path class="cls-16" d="M138.29,135.23v-.35h.92v.42c0,.44,.19,.6,.5,.6s.5-.16,.5-.62c0-.51-.19-.84-.83-1.4-.81-.72-1.08-1.22-1.08-1.93,0-.97,.5-1.54,1.45-1.54s1.41,.57,1.41,1.56v.26h-.92v-.32c0-.44-.18-.61-.49-.61s-.49,.17-.49,.59c0,.45,.2,.78,.84,1.33,.81,.72,1.07,1.21,1.07,1.98,0,1.01-.51,1.57-1.47,1.57s-1.43-.57-1.43-1.56Z"/>
      <path class="cls-16" d="M141.8,135.23v-4.72h.97v4.79c0,.44,.19,.6,.49,.6s.49-.16,.49-.6v-4.79h.94v4.72c0,.99-.49,1.56-1.45,1.56s-1.45-.57-1.45-1.56Z"/>
      <path class="cls-16" d="M145.47,130.51h1.47c1.01,0,1.44,.47,1.44,1.42v.25c0,.64-.19,1.03-.63,1.21v.02c.52,.18,.72,.64,.72,1.29v.53c0,.95-.5,1.47-1.48,1.47h-1.53v-6.18Zm1.35,2.52c.36,0,.58-.16,.58-.65v-.34c0-.44-.15-.64-.49-.64h-.47v1.63h.38Zm.18,2.78c.33,0,.5-.15,.5-.61v-.54c0-.57-.19-.75-.63-.75h-.43v1.9h.56Z"/>
      <path class="cls-16" d="M148.96,135.23v-.35h.92v.42c0,.44,.19,.6,.5,.6s.5-.16,.5-.62c0-.51-.19-.84-.83-1.4-.81-.72-1.08-1.22-1.08-1.93,0-.97,.5-1.54,1.45-1.54s1.41,.57,1.41,1.56v.26h-.92v-.32c0-.44-.18-.61-.49-.61s-.49,.17-.49,.59c0,.45,.2,.78,.84,1.33,.81,.72,1.07,1.21,1.07,1.98,0,1.01-.51,1.57-1.47,1.57s-1.43-.57-1.43-1.56Z"/>
      <path class="cls-16" d="M153.26,131.39h-1.02v-.88h3v.88h-1.02v5.3h-.97v-5.3Z"/>
      <path class="cls-16" d="M156.15,130.51h1.32l1.01,6.18h-.97l-.18-1.23v.02h-1.1l-.18,1.21h-.9l1.01-6.18Zm1.06,4.13l-.43-3.06h-.02l-.42,3.06h.87Z"/>
      <path class="cls-16" d="M159.02,130.51h1.22l.95,3.7h.02v-3.7h.87v6.18h-1l-1.17-4.51h-.02v4.51h-.87v-6.18Z"/>
      <path class="cls-16" d="M163.64,131.39h-1.02v-.88h3v.88h-1.02v5.3h-.97v-5.3Z"/>
      <path class="cls-16" d="M166.18,130.51h.97v6.18h-.97v-6.18Z"/>
      <path class="cls-16" d="M168.72,130.51h1.32l1.01,6.18h-.97l-.18-1.23v.02h-1.1l-.18,1.21h-.9l1.01-6.18Zm1.06,4.13l-.43-3.06h-.02l-.42,3.06h.87Z"/>
      <path class="cls-16" d="M171.6,130.51h.97v5.3h1.6v.88h-2.57v-6.18Z"/>
    </g>
    <g>
      <g>
        <path class="cls-3" d="M29.37,86.98h1.38l1.07,4.19h.02v-4.19h.98v7h-1.13l-1.32-5.11h-.02v5.11h-.98v-7Z"/>
        <path class="cls-3" d="M33.6,92.32v-5.34h1.1v5.42c0,.5,.21,.68,.56,.68s.56-.18,.56-.68v-5.42h1.06v5.34c0,1.12-.56,1.76-1.64,1.76s-1.64-.64-1.64-1.76Z"/>
        <path class="cls-3" d="M37.66,86.98h1.57l.7,5.01h.02l.7-5.01h1.57v7h-1.04v-5.3h-.02l-.8,5.3h-.92l-.8-5.3h-.02v5.3h-.96v-7Z"/>
        <path class="cls-3" d="M43.04,86.98h1.66c1.14,0,1.63,.53,1.63,1.61v.28c0,.72-.22,1.17-.71,1.37v.02c.59,.2,.82,.72,.82,1.46v.6c0,1.08-.57,1.66-1.67,1.66h-1.73v-7Zm1.53,2.85c.41,0,.66-.18,.66-.74v-.39c0-.5-.17-.72-.56-.72h-.53v1.85h.43Zm.2,3.15c.37,0,.57-.17,.57-.69v-.61c0-.65-.21-.85-.71-.85h-.49v2.15h.63Z"/>
        <path class="cls-3" d="M47.08,86.98h3v1h-1.9v1.85h1.51v1h-1.51v2.15h1.9v1h-3v-7Z"/>
        <path class="cls-3" d="M50.71,86.98h1.63c1.14,0,1.63,.53,1.63,1.61v.43c0,.72-.23,1.18-.72,1.38v.02c.55,.17,.73,.69,.73,1.48v1.23c0,.34,.01,.59,.12,.85h-1.12c-.06-.18-.1-.29-.1-.86v-1.28c0-.65-.19-.86-.69-.86h-.38v3h-1.1v-7Zm1.5,3c.41,0,.66-.18,.66-.74v-.54c0-.5-.17-.72-.56-.72h-.5v2h.4Z"/>
        <path class="cls-3" d="M56.26,92.32v-3.68c0-1.12,.59-1.76,1.67-1.76s1.67,.64,1.67,1.76v3.68c0,1.12-.59,1.76-1.67,1.76s-1.67-.64-1.67-1.76Zm2.24,.07v-3.82c0-.5-.22-.69-.57-.69s-.57,.19-.57,.69v3.82c0,.5,.22,.69,.57,.69s.57-.19,.57-.69Z"/>
        <path class="cls-3" d="M60.34,86.98h2.91v1h-1.81v1.95h1.42v1h-1.42v3.05h-1.1v-7Z"/>
        <path class="cls-3" d="M65.31,92.36v-3.76c0-1.08,.56-1.72,1.62-1.72s1.62,.64,1.62,1.72v.74h-1.04v-.81c0-.46-.22-.65-.55-.65s-.55,.19-.55,.65v3.91c0,.46,.22,.64,.55,.64s.55-.18,.55-.64v-1.07h1.04v.99c0,1.08-.56,1.72-1.62,1.72s-1.62-.64-1.62-1.72Z"/>
        <path class="cls-3" d="M69.15,92.32v-3.68c0-1.12,.59-1.76,1.67-1.76s1.67,.64,1.67,1.76v3.68c0,1.12-.59,1.76-1.67,1.76s-1.67-.64-1.67-1.76Zm2.24,.07v-3.82c0-.5-.22-.69-.57-.69s-.57,.19-.57,.69v3.82c0,.5,.22,.69,.57,.69s.57-.19,.57-.69Z"/>
        <path class="cls-3" d="M73.19,92.32v-5.34h1.1v5.42c0,.5,.21,.68,.56,.68s.56-.18,.56-.68v-5.42h1.06v5.34c0,1.12-.56,1.76-1.64,1.76s-1.64-.64-1.64-1.76Z"/>
        <path class="cls-3" d="M77.25,86.98h1.38l1.07,4.19h.02v-4.19h.98v7h-1.13l-1.32-5.11h-.02v5.11h-.98v-7Z"/>
        <path class="cls-3" d="M82.38,87.98h-1.15v-1h3.4v1h-1.15v6h-1.1v-6Z"/>
        <path class="cls-3" d="M85.16,86.98h1.63c1.14,0,1.63,.53,1.63,1.61v.43c0,.72-.23,1.18-.72,1.38v.02c.55,.17,.73,.69,.73,1.48v1.23c0,.34,0,.59,.12,.85h-1.12c-.06-.18-.1-.29-.1-.86v-1.28c0-.65-.19-.86-.69-.86h-.38v3h-1.1v-7Zm1.5,3c.41,0,.66-.18,.66-.74v-.54c0-.5-.17-.72-.56-.72h-.5v2h.4Z"/>
        <path class="cls-3" d="M89.19,86.98h1.1v7h-1.1v-7Z"/>
        <path class="cls-3" d="M91.11,86.98h3v1h-1.9v1.85h1.51v1h-1.51v2.15h1.9v1h-3v-7Z"/>
        <path class="cls-3" d="M94.57,92.32v-.4h1.04v.48c0,.5,.22,.68,.57,.68s.57-.18,.57-.7c0-.58-.22-.95-.94-1.58-.92-.81-1.22-1.38-1.22-2.18,0-1.1,.57-1.74,1.64-1.74s1.6,.64,1.6,1.76v.29h-1.04v-.36c0-.5-.2-.69-.55-.69s-.55,.19-.55,.67c0,.51,.23,.88,.95,1.51,.92,.81,1.21,1.37,1.21,2.24,0,1.14-.58,1.78-1.66,1.78s-1.62-.64-1.62-1.76Z"/>
        <path class="cls-3" d="M100.08,86.98h1.62c1.1,0,1.64,.61,1.64,1.73v.69c0,1.12-.54,1.73-1.64,1.73h-.52v2.85h-1.1v-7Zm1.62,3.15c.35,0,.54-.16,.54-.66v-.83c0-.5-.19-.66-.54-.66h-.52v2.15h.52Z"/>
        <path class="cls-3" d="M103.94,86.98h3v1h-1.9v1.85h1.51v1h-1.51v2.15h1.9v1h-3v-7Z"/>
        <path class="cls-3" d="M107.57,86.98h1.63c1.14,0,1.63,.53,1.63,1.61v.43c0,.72-.23,1.18-.72,1.38v.02c.55,.17,.73,.69,.73,1.48v1.23c0,.34,0,.59,.12,.85h-1.12c-.06-.18-.1-.29-.1-.86v-1.28c0-.65-.19-.86-.69-.86h-.38v3h-1.1v-7Zm1.5,3c.41,0,.66-.18,.66-.74v-.54c0-.5-.17-.72-.56-.72h-.5v2h.4Z"/>
        <path class="cls-3" d="M113.2,86.98h1.62c1.1,0,1.64,.61,1.64,1.73v.69c0,1.12-.54,1.73-1.64,1.73h-.52v2.85h-1.1v-7Zm1.62,3.15c.35,0,.54-.16,.54-.66v-.83c0-.5-.19-.66-.54-.66h-.52v2.15h.52Z"/>
        <path class="cls-3" d="M117.06,86.98h1.63c1.14,0,1.63,.53,1.63,1.61v.43c0,.72-.23,1.18-.72,1.38v.02c.55,.17,.73,.69,.73,1.48v1.23c0,.34,.01,.59,.12,.85h-1.12c-.06-.18-.1-.29-.1-.86v-1.28c0-.65-.19-.86-.69-.86h-.38v3h-1.1v-7Zm1.5,3c.41,0,.66-.18,.66-.74v-.54c0-.5-.17-.72-.56-.72h-.5v2h.4Z"/>
        <path class="cls-3" d="M121.01,92.32v-3.68c0-1.12,.59-1.76,1.67-1.76s1.67,.64,1.67,1.76v3.68c0,1.12-.59,1.76-1.67,1.76s-1.67-.64-1.67-1.76Zm2.24,.07v-3.82c0-.5-.22-.69-.57-.69s-.57,.19-.57,.69v3.82c0,.5,.22,.69,.57,.69s.57-.19,.57-.69Z"/>
        <path class="cls-3" d="M125.01,92.32v-3.68c0-1.12,.56-1.76,1.64-1.76s1.64,.64,1.64,1.76v.6h-1.04v-.67c0-.5-.22-.69-.57-.69s-.57,.19-.57,.69v3.83c0,.5,.22,.68,.57,.68s.57-.18,.57-.68v-1.37h-.55v-1h1.59v2.29c0,1.12-.56,1.76-1.64,1.76s-1.64-.64-1.64-1.76Z"/>
        <path class="cls-3" d="M129,86.98h1.63c1.14,0,1.63,.53,1.63,1.61v.43c0,.72-.23,1.18-.72,1.38v.02c.55,.17,.73,.69,.73,1.48v1.23c0,.34,0,.59,.12,.85h-1.12c-.06-.18-.1-.29-.1-.86v-1.28c0-.65-.19-.86-.69-.86h-.38v3h-1.1v-7Zm1.5,3c.41,0,.66-.18,.66-.74v-.54c0-.5-.17-.72-.56-.72h-.5v2h.4Z"/>
        <path class="cls-3" d="M133.03,86.98h3v1h-1.9v1.85h1.51v1h-1.51v2.15h1.9v1h-3v-7Z"/>
        <path class="cls-3" d="M136.49,92.32v-.4h1.04v.48c0,.5,.22,.68,.57,.68s.57-.18,.57-.7c0-.58-.22-.95-.94-1.58-.92-.81-1.22-1.38-1.22-2.18,0-1.1,.57-1.74,1.64-1.74s1.6,.64,1.6,1.76v.29h-1.04v-.36c0-.5-.2-.69-.55-.69s-.55,.19-.55,.67c0,.51,.23,.88,.95,1.51,.92,.81,1.21,1.37,1.21,2.24,0,1.14-.58,1.78-1.66,1.78s-1.62-.64-1.62-1.76Z"/>
        <path class="cls-3" d="M140.21,92.32v-.4h1.04v.48c0,.5,.22,.68,.57,.68s.57-.18,.57-.7c0-.58-.22-.95-.94-1.58-.92-.81-1.22-1.38-1.22-2.18,0-1.1,.57-1.74,1.64-1.74s1.6,.64,1.6,1.76v.29h-1.04v-.36c0-.5-.2-.69-.55-.69s-.55,.19-.55,.67c0,.51,.23,.88,.95,1.51,.92,.81,1.21,1.37,1.21,2.24,0,1.14-.58,1.78-1.66,1.78s-1.62-.64-1.62-1.76Z"/>
        <path class="cls-3" d="M145.72,86.98h1.1v6h1.81v1h-2.91v-7Z"/>
        <path class="cls-3" d="M149.16,86.98h3v1h-1.9v1.85h1.51v1h-1.51v2.15h1.9v1h-3v-7Z"/>
        <path class="cls-3" d="M152.5,86.98h1.11l.72,5.43h.02l.72-5.43h1.01l-1.06,7h-1.46l-1.06-7Z"/>
        <path class="cls-3" d="M156.61,86.98h3v1h-1.9v1.85h1.51v1h-1.51v2.15h1.9v1h-3v-7Z"/>
        <path class="cls-3" d="M160.24,86.98h1.1v6h1.81v1h-2.91v-7Z"/>
      </g>
      <g>
        <line class="cls-7" x1="29.92" y1="99.95" x2="29.92" y2="99.95"/>
        <line class="cls-8" x1="32.81" y1="99.95" x2="161.31" y2="99.95"/>
        <line class="cls-7" x1="162.75" y1="99.95" x2="162.75" y2="99.95"/>
      </g>
    </g>
    <g id="Element_1">
      <g>
        <path class="cls-16" d="M115.86,117.69h0c10.31,5.34,18.02,14.62,21.39,25.74l-41.17,12.46,19.79-38.2Z"/>
        <path class="cls-4" d="M137.25,143.42c3.36,11.11,2.09,23.12-3.53,33.28-5.62,10.16-15.11,17.62-26.31,20.68l-11.33-41.5,41.17-12.46Z"/>
        <path class="cls-15" d="M107.41,197.38c-13.31,3.64-27.56,.67-38.3-7.99-10.75-8.65-16.7-21.93-15.99-35.71l42.96,2.2,11.33,41.5Z"/>
        <path class="cls-13" d="M53.12,153.68c.75-14.61,8.87-27.83,21.56-35.11,12.69-7.28,28.2-7.61,41.19-.88l-19.79,38.2-42.96-2.2Z"/>
      </g>
    </g>
    <g>
      <path class="cls-14" d="M116.89,130.38c-.34,0-.56,.19-.56,.68v.74h-1.02v-.67c0-1.1,.55-1.73,1.61-1.73s1.61,.63,1.61,1.73c0,2.16-2.15,2.96-2.15,4.09,0,.05,0,.1,0,.15h2.04v.98h-3.12v-.84c0-2.02,2.14-2.35,2.14-4.34,0-.62-.22-.79-.56-.79Z"/>
      <path class="cls-14" d="M120.88,130.38c-.34,0-.56,.19-.56,.68v.74h-1.02v-.67c0-1.1,.55-1.73,1.61-1.73s1.61,.63,1.61,1.73c0,2.16-2.15,2.96-2.15,4.09,0,.05,0,.1,0,.15h2.04v.98h-3.12v-.84c0-2.02,2.14-2.35,2.14-4.34,0-.62-.22-.79-.56-.79Z"/>
    </g>
    <g>
      <path class="cls-14" d="M75.21,141.3v.64c0,.49,.22,.67,.56,.67s.56-.18,.56-.67v-1.51c0-.49-.22-.68-.56-.68s-.56,.19-.56,.68v.21h-1.02l.2-3.98h2.85v.98h-1.87l-.09,1.64c.2-.32,.51-.5,.94-.5,.79,0,1.2,.56,1.2,1.57v1.53c0,1.1-.55,1.73-1.61,1.73s-1.61-.63-1.61-1.73v-.57h1.02Z"/>
      <path class="cls-14" d="M79.19,141.3v.64c0,.49,.22,.67,.56,.67s.56-.18,.56-.67v-1.51c0-.49-.22-.68-.56-.68s-.56,.19-.56,.68v.21h-1.02l.2-3.98h2.85v.98h-1.87l-.09,1.64c.2-.32,.51-.5,.94-.5,.79,0,1.2,.56,1.2,1.57v1.53c0,1.1-.55,1.73-1.61,1.73s-1.61-.63-1.61-1.73v-.57h1.02Z"/>
    </g>
    <line class="cls-5" x1="135.61" y1="139.49" x2="174.18" y2="139.49"/>
    <g>
      <path class="cls-12" d="M22.64,137.32h.97v5.3h1.6v.88h-2.57v-6.18Z"/>
      <path class="cls-12" d="M25.77,137.32h.97v6.18h-.97v-6.18Z"/>
      <path class="cls-12" d="M27.55,137.32h1.39l.62,4.43h.02l.62-4.43h1.39v6.18h-.92v-4.68h-.02l-.71,4.68h-.81l-.71-4.68h-.02v4.68h-.85v-6.18Z"/>
      <path class="cls-12" d="M32.39,137.32h.97v6.18h-.97v-6.18Z"/>
      <path class="cls-12" d="M34.93,138.21h-1.02v-.88h3v.88h-1.02v5.3h-.97v-5.3Z"/>
      <path class="cls-12" d="M37.48,137.32h2.65v.88h-1.68v1.63h1.33v.88h-1.33v1.9h1.68v.88h-2.65v-6.18Z"/>
      <path class="cls-12" d="M40.77,137.32h1.48c.97,0,1.45,.54,1.45,1.53v3.13c0,.99-.48,1.53-1.45,1.53h-1.48v-6.18Zm1.47,5.3c.31,0,.5-.16,.5-.6v-3.22c0-.44-.19-.6-.5-.6h-.49v4.42h.49Z"/>
    </g>
    <line class="cls-6" x1="53.82" y1="146.3" x2="81.1" y2="146.3"/>
    <line class="cls-9" x1="22.28" y1="146.3" x2="53.82" y2="146.3"/>
    <g>
      <path class="cls-14" d="M75.21,180.53v.64c0,.49,.22,.67,.56,.67s.56-.18,.56-.67v-1.51c0-.49-.22-.68-.56-.68s-.56,.19-.56,.68v.21h-1.02l.2-3.98h2.85v.98h-1.87l-.09,1.64c.2-.32,.51-.5,.94-.5,.79,0,1.2,.56,1.2,1.57v1.53c0,1.1-.55,1.73-1.61,1.73s-1.61-.63-1.61-1.73v-.57h1.02Z"/>
      <path class="cls-14" d="M79.8,176.78c-.34,0-.56,.19-.56,.68v.74h-1.02v-.67c0-1.1,.55-1.73,1.61-1.73s1.61,.63,1.61,1.73c0,2.16-2.15,2.96-2.15,4.09,0,.05,0,.1,0,.15h2.04v.98h-3.12v-.84c0-2.02,2.14-2.35,2.14-4.34,0-.62-.22-.79-.56-.79Z"/>
    </g>
    <g>
      <path class="cls-15" d="M22.64,176.55h1.39l.62,4.43h.02l.62-4.43h1.39v6.18h-.92v-4.68h-.02l-.71,4.68h-.81l-.71-4.68h-.02v4.68h-.85v-6.18Z"/>
      <path class="cls-15" d="M27.41,181.27v-3.25c0-.99,.52-1.56,1.48-1.56s1.48,.57,1.48,1.56v3.25c0,.99-.52,1.56-1.48,1.56s-1.48-.57-1.48-1.56Zm1.98,.06v-3.38c0-.44-.19-.61-.5-.61s-.5,.17-.5,.61v3.38c0,.44,.19,.61,.5,.61s.5-.17,.5-.61Z"/>
      <path class="cls-15" d="M31.1,176.55h1.48c.97,0,1.45,.54,1.45,1.53v3.13c0,.99-.48,1.53-1.45,1.53h-1.48v-6.18Zm1.47,5.3c.31,0,.5-.16,.5-.6v-3.22c0-.44-.19-.6-.5-.6h-.49v4.42h.49Z"/>
      <path class="cls-15" d="M34.77,176.55h2.65v.88h-1.68v1.63h1.33v.88h-1.33v1.9h1.68v.88h-2.65v-6.18Z"/>
      <path class="cls-15" d="M38.07,176.55h1.44c1.01,0,1.44,.47,1.44,1.42v.38c0,.64-.2,1.04-.64,1.22v.02c.49,.15,.64,.61,.64,1.31v1.09c0,.3,0,.52,.11,.75h-.99c-.05-.16-.09-.26-.09-.76v-1.13c0-.57-.17-.76-.61-.76h-.34v2.65h-.97v-6.18Zm1.33,2.65c.36,0,.58-.16,.58-.65v-.48c0-.44-.15-.64-.49-.64h-.44v1.77h.35Z"/>
      <path class="cls-15" d="M42.47,176.55h1.32l1.01,6.18h-.97l-.18-1.23v.02h-1.1l-.18,1.21h-.9l1.01-6.18Zm1.06,4.13l-.43-3.06h-.02l-.42,3.06h.87Z"/>
      <path class="cls-15" d="M45.7,177.44h-1.02v-.88h3v.88h-1.02v5.3h-.97v-5.3Z"/>
      <path class="cls-15" d="M48.24,176.55h2.65v.88h-1.68v1.63h1.33v.88h-1.33v1.9h1.68v.88h-2.65v-6.18Z"/>
    </g>
    <line class="cls-6" x1="64.75" y1="185.53" x2="81.1" y2="185.53"/>
    <line class="cls-10" x1="22.28" y1="185.53" x2="64.75" y2="185.53"/>
    <g>
      <path class="cls-4" d="M146.7,168.38v-3.32c0-.95,.49-1.52,1.43-1.52s1.43,.57,1.43,1.52v.65h-.92v-.72c0-.41-.19-.57-.49-.57s-.49,.17-.49,.57v3.45c0,.41,.19,.57,.49,.57s.49-.16,.49-.57v-.95h.92v.87c0,.95-.5,1.52-1.43,1.52s-1.43-.57-1.43-1.52Z"/>
      <path class="cls-4" d="M150.23,163.62h.97v5.3h1.6v.88h-2.57v-6.18Z"/>
      <path class="cls-4" d="M153.25,168.34v-3.25c0-.99,.52-1.56,1.48-1.56s1.48,.57,1.48,1.56v3.25c0,.99-.52,1.56-1.48,1.56s-1.48-.57-1.48-1.56Zm1.98,.06v-3.38c0-.44-.19-.61-.5-.61s-.5,.17-.5,.61v3.38c0,.44,.19,.61,.5,.61s.5-.17,.5-.61Z"/>
      <path class="cls-4" d="M156.77,168.34v-.35h.92v.42c0,.44,.19,.6,.5,.6s.5-.16,.5-.62c0-.51-.19-.84-.83-1.4-.81-.72-1.08-1.22-1.08-1.93,0-.97,.5-1.54,1.45-1.54s1.41,.57,1.41,1.56v.26h-.92v-.32c0-.44-.18-.61-.49-.61s-.49,.17-.49,.59c0,.45,.2,.78,.84,1.33,.81,.72,1.07,1.21,1.07,1.98,0,1.01-.51,1.57-1.47,1.57s-1.43-.57-1.43-1.56Z"/>
      <path class="cls-4" d="M160.31,163.62h2.65v.88h-1.68v1.63h1.33v.88h-1.33v1.9h1.68v.88h-2.65v-6.18Z"/>
      <path class="cls-4" d="M165.86,164.51h-1.02v-.88h3v.88h-1.02v5.3h-.97v-5.3Z"/>
      <path class="cls-4" d="M168.3,168.34v-3.25c0-.99,.52-1.56,1.48-1.56s1.48,.57,1.48,1.56v3.25c0,.99-.52,1.56-1.48,1.56s-1.48-.57-1.48-1.56Zm1.98,.06v-3.38c0-.44-.19-.61-.5-.61s-.5,.17-.5,.61v3.38c0,.44,.19,.61,.5,.61s.5-.17,.5-.61Z"/>
    </g>
    <line class="cls-11" x1="135.74" y1="172.6" x2="171.25" y2="172.6"/>
    <g>
      <path class="cls-4" d="M147.52,176.92h-1.02v-.88h3v.88h-1.02v5.3h-.97v-5.3Z"/>
      <path class="cls-4" d="M150.4,176.03h1.32l1.01,6.18h-.97l-.18-1.23v.02h-1.1l-.18,1.21h-.9l1.01-6.18Zm1.06,4.13l-.43-3.06h-.02l-.42,3.06h.87Z"/>
      <path class="cls-4" d="M153.28,176.03h1.44c1.01,0,1.44,.47,1.44,1.42v.38c0,.64-.2,1.04-.64,1.22v.02c.49,.15,.65,.61,.65,1.31v1.09c0,.3,0,.52,.11,.75h-.99c-.05-.16-.09-.26-.09-.76v-1.13c0-.57-.17-.76-.61-.76h-.34v2.65h-.97v-6.18Zm1.33,2.65c.36,0,.58-.16,.58-.65v-.48c0-.44-.15-.64-.49-.64h-.44v1.77h.35Z"/>
      <path class="cls-4" d="M156.86,180.75v-3.25c0-.99,.49-1.56,1.45-1.56s1.45,.57,1.45,1.56v.53h-.92v-.59c0-.44-.19-.61-.5-.61s-.5,.17-.5,.61v3.38c0,.44,.19,.6,.5,.6s.5-.16,.5-.6v-1.21h-.49v-.88h1.4v2.02c0,.99-.49,1.56-1.45,1.56s-1.45-.57-1.45-1.56Z"/>
      <path class="cls-4" d="M160.47,176.03h2.65v.88h-1.68v1.63h1.33v.88h-1.33v1.9h1.68v.88h-2.65v-6.18Z"/>
      <path class="cls-4" d="M164.52,176.92h-1.02v-.88h3v.88h-1.02v5.3h-.97v-5.3Z"/>
    </g>
    <line class="cls-6" x1="115.1" y1="139.49" x2="135.61" y2="139.49"/>
    <g>
      <path class="cls-14" d="M116.4,167.24l1.96-4.64h1.18v4.64h.51v.98h-.51v1.25h-1.06v-1.25h-2.08v-.98Zm2.08,0v-2.58l-1.09,2.58h1.09Z"/>
      <path class="cls-14" d="M120.39,167.24l1.96-4.64h1.18v4.64h.51v.98h-.51v1.25h-1.06v-1.25h-2.08v-.98Zm2.08,0v-2.58l-1.09,2.58h1.09Z"/>
    </g>
    <line class="cls-6" x1="116.45" y1="172.6" x2="135.85" y2="172.6"/>
    <g>
      <g>
        <path class="cls-3" d="M69.56,.14h1.54V9.95h-1.54V.14Z"/>
        <path class="cls-3" d="M72.6,.14h1.93l1.5,5.87h.03V.14h1.37V9.95h-1.58l-1.85-7.16h-.03v7.16h-1.37V.14Z"/>
        <path class="cls-3" d="M80.13,1.54h-1.61V.14h4.76V1.54h-1.61V9.95h-1.54V1.54Z"/>
        <path class="cls-3" d="M84.37,.14h4.2V1.54h-2.66v2.59h2.12v1.4h-2.12v3.01h2.66v1.4h-4.2V.14Z"/>
        <path class="cls-3" d="M89.69,7.62V2.47c0-1.57,.78-2.47,2.3-2.47s2.3,.9,2.3,2.47v.84h-1.46v-.94c0-.7-.31-.97-.8-.97s-.8,.27-.8,.97V7.73c0,.7,.31,.95,.8,.95s.8-.25,.8-.95v-1.92h-.77v-1.4h2.23v3.21c0,1.57-.78,2.47-2.3,2.47s-2.3-.9-2.3-2.47Z"/>
        <path class="cls-3" d="M95.63,.14h2.28c1.6,0,2.28,.74,2.28,2.25v.6c0,1.01-.32,1.65-1.01,1.93v.03c.77,.24,1.02,.97,1.02,2.07v1.72c0,.48,.01,.83,.17,1.19h-1.57c-.08-.25-.14-.41-.14-1.2v-1.79c0-.91-.27-1.2-.97-1.2h-.53v4.2h-1.54V.14Zm2.1,4.2c.57,0,.92-.25,.92-1.04v-.76c0-.7-.24-1.01-.78-1.01h-.7v2.8h.56Z"/>
        <path class="cls-3" d="M102.81,.14h2.09l1.6,9.81h-1.54l-.28-1.95v.03h-1.75l-.28,1.92h-1.43L102.81,.14Zm1.68,6.56l-.69-4.85h-.03l-.67,4.85h1.39Z"/>
        <path class="cls-3" d="M108.14,1.54h-1.61V.14h4.76V1.54h-1.61V9.95h-1.54V1.54Z"/>
        <path class="cls-3" d="M112.39,.14h4.2V1.54h-2.66v2.59h2.12v1.4h-2.12v3.01h2.66v1.4h-4.2V.14Z"/>
        <path class="cls-3" d="M117.82,.14h2.35c1.54,0,2.3,.85,2.3,2.42V7.52c0,1.57-.76,2.42-2.3,2.42h-2.35V.14Zm2.33,8.4c.49,0,.78-.25,.78-.95V2.49c0-.7-.29-.95-.78-.95h-.78v7h.78Z"/>
        <path class="cls-4" d="M20.11,17.14h1.48l.69,7.54h.03l.73-7.54h1.68l.73,7.54h.03l.69-7.54h1.33l-.99,9.81h-1.92l-.7-6.61h-.03l-.7,6.61h-2.05l-.99-9.81Z"/>
        <path class="cls-4" d="M29.62,17.14h2.09l1.6,9.81h-1.54l-.28-1.95v.03h-1.75l-.28,1.92h-1.43l1.6-9.81Zm1.68,6.56l-.69-4.85h-.03l-.67,4.85h1.39Z"/>
        <path class="cls-4" d="M34.95,18.54h-1.61v-1.4h4.76v1.4h-1.61v8.4h-1.54v-8.4Z"/>
        <path class="cls-4" d="M39.19,17.14h4.2v1.4h-2.66v2.59h2.12v1.4h-2.12v3.01h2.66v1.4h-4.2v-9.81Z"/>
        <path class="cls-4" d="M44.62,17.14h2.28c1.6,0,2.28,.74,2.28,2.25v.6c0,1.01-.32,1.65-1.01,1.93v.03c.77,.24,1.02,.97,1.02,2.07v1.72c0,.48,.01,.83,.17,1.19h-1.57c-.08-.25-.14-.41-.14-1.2v-1.79c0-.91-.27-1.2-.97-1.2h-.53v4.2h-1.54v-9.81Zm2.1,4.2c.57,0,.92-.25,.92-1.04v-.76c0-.7-.24-1.01-.78-1.01h-.7v2.8h.56Z"/>
        <path class="cls-4" d="M50.39,21.34h3.08v1.4h-3.08v-1.4Z"/>
        <path class="cls-4" d="M54.75,17.14h2.28c1.6,0,2.28,.74,2.28,2.25v.6c0,1.01-.32,1.65-1.01,1.93v.03c.77,.24,1.02,.97,1.02,2.07v1.72c0,.48,.01,.83,.17,1.19h-1.57c-.08-.25-.14-.41-.14-1.2v-1.79c0-.91-.27-1.2-.97-1.2h-.53v4.2h-1.54v-9.81Zm2.1,4.2c.57,0,.92-.25,.92-1.04v-.76c0-.7-.24-1.01-.78-1.01h-.7v2.8h.56Z"/>
        <path class="cls-4" d="M60.74,17.14h4.2v1.4h-2.66v2.59h2.12v1.4h-2.12v3.01h2.66v1.4h-4.2v-9.81Z"/>
        <path class="cls-4" d="M65.93,24.62v-.56h1.46v.67c0,.7,.31,.95,.8,.95s.8-.25,.8-.98c0-.81-.31-1.33-1.32-2.21-1.29-1.13-1.71-1.93-1.71-3.05,0-1.54,.8-2.44,2.3-2.44s2.24,.9,2.24,2.47v.41h-1.46v-.5c0-.7-.28-.97-.77-.97s-.77,.27-.77,.94c0,.71,.32,1.23,1.33,2.12,1.29,1.13,1.7,1.92,1.7,3.14,0,1.6-.81,2.49-2.33,2.49s-2.27-.9-2.27-2.47Z"/>
        <path class="cls-4" d="M71.65,24.62v-5.15c0-1.57,.83-2.47,2.34-2.47s2.34,.9,2.34,2.47v5.15c0,1.57-.83,2.47-2.34,2.47s-2.34-.9-2.34-2.47Zm3.14,.1v-5.35c0-.7-.31-.97-.8-.97s-.8,.27-.8,.97v5.35c0,.7,.31,.97,.8,.97s.8-.27,.8-.97Z"/>
        <path class="cls-4" d="M77.65,24.62v-7.48h1.54v7.59c0,.7,.29,.95,.78,.95s.78-.25,.78-.95v-7.59h1.48v7.48c0,1.57-.78,2.47-2.3,2.47s-2.3-.9-2.3-2.47Z"/>
        <path class="cls-4" d="M83.68,17.14h2.28c1.6,0,2.28,.74,2.28,2.25v.6c0,1.01-.32,1.65-1.01,1.93v.03c.77,.24,1.02,.97,1.02,2.07v1.72c0,.48,.01,.83,.17,1.19h-1.57c-.08-.25-.14-.41-.14-1.2v-1.79c0-.91-.27-1.2-.97-1.2h-.53v4.2h-1.54v-9.81Zm2.1,4.2c.57,0,.92-.25,.92-1.04v-.76c0-.7-.24-1.01-.78-1.01h-.7v2.8h.56Z"/>
        <path class="cls-4" d="M89.58,24.68v-5.27c0-1.51,.78-2.41,2.27-2.41s2.27,.9,2.27,2.41v1.04h-1.46v-1.13c0-.64-.31-.91-.77-.91s-.77,.27-.77,.91v5.48c0,.64,.31,.9,.77,.9s.77-.25,.77-.9v-1.5h1.46v1.39c0,1.51-.78,2.41-2.27,2.41s-2.27-.9-2.27-2.41Z"/>
        <path class="cls-4" d="M95.39,17.14h4.2v1.4h-2.66v2.59h2.12v1.4h-2.12v3.01h2.66v1.4h-4.2v-9.81Z"/>
        <path class="cls-4" d="M100.58,24.62v-.56h1.46v.67c0,.7,.31,.95,.8,.95s.8-.25,.8-.98c0-.81-.31-1.33-1.32-2.21-1.29-1.13-1.71-1.93-1.71-3.05,0-1.54,.8-2.44,2.3-2.44s2.24,.9,2.24,2.47v.41h-1.46v-.5c0-.7-.28-.97-.77-.97s-.77,.27-.77,.94c0,.71,.32,1.23,1.33,2.12,1.29,1.13,1.7,1.92,1.7,3.14,0,1.6-.81,2.49-2.33,2.49s-2.27-.9-2.27-2.47Z"/>
        <path class="cls-4" d="M106.13,21.34h3.08v1.4h-3.08v-1.4Z"/>
        <path class="cls-4" d="M110.48,17.14h2.2l.98,7.02h.03l.98-7.02h2.2v9.81h-1.46v-7.42h-.03l-1.12,7.42h-1.29l-1.12-7.42h-.03v7.42h-1.34v-9.81Z"/>
        <path class="cls-4" d="M119.55,17.14h2.09l1.6,9.81h-1.54l-.28-1.95v.03h-1.75l-.28,1.92h-1.43l1.6-9.81Zm1.68,6.56l-.69-4.85h-.03l-.67,4.85h1.39Z"/>
        <path class="cls-4" d="M124.33,17.14h1.93l1.5,5.87h.03v-5.87h1.37v9.81h-1.58l-1.85-7.16h-.03v7.16h-1.37v-9.81Z"/>
        <path class="cls-4" d="M131.85,17.14h2.09l1.6,9.81h-1.54l-.28-1.95v.03h-1.75l-.28,1.92h-1.43l1.6-9.81Zm1.68,6.56l-.69-4.85h-.03l-.67,4.85h1.39Z"/>
        <path class="cls-4" d="M136.48,24.62v-5.15c0-1.57,.78-2.47,2.3-2.47s2.3,.9,2.3,2.47v.84h-1.46v-.94c0-.7-.31-.97-.8-.97s-.8,.27-.8,.97v5.36c0,.7,.31,.95,.8,.95s.8-.25,.8-.95v-1.92h-.77v-1.4h2.23v3.21c0,1.57-.78,2.47-2.3,2.47s-2.3-.9-2.3-2.47Z"/>
        <path class="cls-4" d="M142.41,17.14h4.2v1.4h-2.66v2.59h2.12v1.4h-2.12v3.01h2.66v1.4h-4.2v-9.81Z"/>
        <path class="cls-4" d="M147.85,17.14h2.2l.98,7.02h.03l.98-7.02h2.2v9.81h-1.46v-7.42h-.03l-1.12,7.42h-1.29l-1.12-7.42h-.03v7.42h-1.34v-9.81Z"/>
        <path class="cls-4" d="M155.73,17.14h4.2v1.4h-2.66v2.59h2.12v1.4h-2.12v3.01h2.66v1.4h-4.2v-9.81Z"/>
        <path class="cls-4" d="M161.16,17.14h1.93l1.5,5.87h.03v-5.87h1.37v9.81h-1.58l-1.85-7.16h-.03v7.16h-1.37v-9.81Z"/>
        <path class="cls-4" d="M168.69,18.54h-1.61v-1.4h4.76v1.4h-1.61v8.4h-1.54v-8.4Z"/>
        <path class="cls-3" d="M57.81,34.14h1.54v9.81h-1.54v-9.81Z"/>
        <path class="cls-3" d="M60.84,34.14h2.2l.98,7.02h.03l.98-7.02h2.2v9.81h-1.46v-7.42h-.03l-1.12,7.42h-1.29l-1.12-7.42h-.03v7.42h-1.34v-9.81Z"/>
        <path class="cls-3" d="M68.73,34.14h2.27c1.54,0,2.3,.85,2.3,2.42v.97c0,1.57-.76,2.42-2.3,2.42h-.73v3.99h-1.54v-9.81Zm2.27,4.41c.49,0,.76-.22,.76-.92v-1.16c0-.7-.27-.92-.76-.92h-.73v3.01h.73Z"/>
        <path class="cls-3" d="M74.48,34.14h1.54v8.4h2.54v1.4h-4.08v-9.81Z"/>
        <path class="cls-3" d="M79.65,34.14h4.2v1.4h-2.66v2.59h2.12v1.4h-2.12v3.01h2.66v1.4h-4.2v-9.81Z"/>
        <path class="cls-3" d="M85.08,34.14h2.2l.98,7.02h.03l.98-7.02h2.2v9.81h-1.46v-7.42h-.03l-1.12,7.42h-1.29l-1.12-7.42h-.03v7.42h-1.34v-9.81Z"/>
        <path class="cls-3" d="M92.96,34.14h4.2v1.4h-2.66v2.59h2.12v1.4h-2.12v3.01h2.66v1.4h-4.2v-9.81Z"/>
        <path class="cls-3" d="M98.39,34.14h1.93l1.5,5.87h.03v-5.87h1.37v9.81h-1.58l-1.85-7.16h-.03v7.16h-1.37v-9.81Z"/>
        <path class="cls-3" d="M105.92,35.54h-1.61v-1.4h4.76v1.4h-1.61v8.4h-1.54v-8.4Z"/>
        <path class="cls-3" d="M110.71,34.14h2.09l1.6,9.81h-1.54l-.28-1.95v.03h-1.75l-.28,1.92h-1.43l1.6-9.81Zm1.68,6.56l-.69-4.85h-.03l-.67,4.85h1.39Z"/>
        <path class="cls-3" d="M116.05,35.54h-1.61v-1.4h4.76v1.4h-1.61v8.4h-1.54v-8.4Z"/>
        <path class="cls-3" d="M120.29,34.14h1.54v9.81h-1.54v-9.81Z"/>
        <path class="cls-3" d="M123.21,41.62v-5.15c0-1.57,.83-2.47,2.34-2.47s2.34,.9,2.34,2.47v5.15c0,1.57-.83,2.47-2.34,2.47s-2.34-.9-2.34-2.47Zm3.14,.1v-5.35c0-.7-.31-.97-.8-.97s-.8,.27-.8,.97v5.35c0,.7,.31,.97,.8,.97s.8-.27,.8-.97Z"/>
        <path class="cls-3" d="M129.28,34.14h1.93l1.5,5.87h.03v-5.87h1.37v9.81h-1.58l-1.85-7.16h-.03v7.16h-1.37v-9.81Z"/>
      </g>
      <g>
        <rect class="cls-4" x="43.7" y="49.15" width="104.86" height="18.12"/>
        <g>
          <path class="cls-1" d="M48.27,53.23h1.93l1.5,5.87h.03v-5.87h1.37v9.81h-1.58l-1.85-7.16h-.03v7.16h-1.37v-9.81Z"/>
          <path class="cls-1" d="M54.6,53.23h4.2v1.4h-2.66v2.59h2.12v1.4h-2.12v3.01h2.66v1.4h-4.2v-9.81Z"/>
          <path class="cls-1" d="M60.03,53.23h4.2v1.4h-2.66v2.59h2.12v1.4h-2.12v3.01h2.66v1.4h-4.2v-9.81Z"/>
          <path class="cls-1" d="M65.46,53.23h2.35c1.54,0,2.3,.85,2.3,2.42v4.96c0,1.57-.76,2.42-2.3,2.42h-2.35v-9.81Zm2.33,8.4c.49,0,.78-.25,.78-.95v-5.1c0-.7-.29-.95-.78-.95h-.78v7h.78Z"/>
          <path class="cls-1" d="M71.23,60.71v-.56h1.46v.67c0,.7,.31,.95,.8,.95s.8-.25,.8-.98c0-.81-.31-1.33-1.32-2.21-1.29-1.13-1.71-1.93-1.71-3.05,0-1.54,.8-2.44,2.3-2.44s2.24,.9,2.24,2.47v.41h-1.46v-.5c0-.7-.28-.97-.77-.97s-.77,.27-.77,.94c0,.71,.32,1.23,1.33,2.11,1.29,1.13,1.7,1.92,1.7,3.14,0,1.6-.81,2.49-2.33,2.49s-2.27-.9-2.27-2.47Z"/>
          <path class="cls-1" d="M80.84,53.23h2.09l1.6,9.81h-1.54l-.28-1.95v.03h-1.75l-.28,1.92h-1.43l1.6-9.81Zm1.68,6.56l-.69-4.85h-.03l-.67,4.85h1.39Z"/>
          <path class="cls-1" d="M85.48,60.77v-5.27c0-1.51,.78-2.41,2.27-2.41s2.27,.9,2.27,2.41v1.04h-1.46v-1.13c0-.64-.31-.91-.77-.91s-.77,.27-.77,.91v5.48c0,.64,.31,.9,.77,.9s.77-.25,.77-.9v-1.5h1.46v1.39c0,1.51-.78,2.41-2.27,2.41s-2.27-.9-2.27-2.41Z"/>
          <path class="cls-1" d="M91.22,60.77v-5.27c0-1.51,.78-2.41,2.27-2.41s2.27,.9,2.27,2.41v1.04h-1.46v-1.13c0-.64-.31-.91-.77-.91s-.77,.27-.77,.91v5.48c0,.64,.31,.9,.77,.9s.77-.25,.77-.9v-1.5h1.46v1.39c0,1.51-.78,2.41-2.27,2.41s-2.27-.9-2.27-2.41Z"/>
          <path class="cls-1" d="M97.03,53.23h4.2v1.4h-2.66v2.59h2.12v1.4h-2.12v3.01h2.66v1.4h-4.2v-9.81Z"/>
          <path class="cls-1" d="M102.47,53.23h1.54v8.4h2.54v1.4h-4.08v-9.81Z"/>
          <path class="cls-1" d="M107.63,53.23h4.2v1.4h-2.66v2.59h2.12v1.4h-2.12v3.01h2.66v1.4h-4.2v-9.81Z"/>
          <path class="cls-1" d="M113.06,53.23h2.28c1.6,0,2.28,.74,2.28,2.25v.6c0,1.01-.32,1.65-1.01,1.93v.03c.77,.24,1.02,.97,1.02,2.07v1.72c0,.48,.01,.83,.17,1.19h-1.57c-.08-.25-.14-.41-.14-1.2v-1.79c0-.91-.27-1.2-.97-1.2h-.53v4.2h-1.54v-9.81Zm2.1,4.2c.57,0,.92-.25,.92-1.04v-.76c0-.7-.24-1.01-.78-1.01h-.7v2.8h.56Z"/>
          <path class="cls-1" d="M120.25,53.23h2.09l1.6,9.81h-1.54l-.28-1.95v.03h-1.75l-.28,1.92h-1.43l1.6-9.81Zm1.68,6.56l-.69-4.85h-.03l-.67,4.85h1.39Z"/>
          <path class="cls-1" d="M125.58,54.63h-1.61v-1.4h4.76v1.4h-1.61v8.4h-1.54v-8.4Z"/>
          <path class="cls-1" d="M129.82,53.23h1.54v9.81h-1.54v-9.81Z"/>
          <path class="cls-1" d="M132.75,60.71v-5.15c0-1.57,.83-2.47,2.34-2.47s2.34,.9,2.34,2.47v5.15c0,1.57-.83,2.47-2.34,2.47s-2.34-.9-2.34-2.47Zm3.14,.1v-5.35c0-.7-.31-.97-.8-.97s-.8,.27-.8,.97v5.35c0,.7,.31,.97,.8,.97s.8-.27,.8-.97Z"/>
          <path class="cls-1" d="M138.81,53.23h1.93l1.5,5.87h.03v-5.87h1.37v9.81h-1.58l-1.85-7.16h-.03v7.16h-1.37v-9.81Z"/>
        </g>
      </g>
    </g>
  </g>
</svg>