<?xml version="1.0" encoding="UTF-8"?>
<svg id="Layer_2" data-name="Layer 2" xmlns="http://www.w3.org/2000/svg" xmlns:xlink="http://www.w3.org/1999/xlink" viewBox="0 0 191.91 159.85">
  <defs>
    <style>
      .cls-1 {
        stroke: #b1dbed;
        stroke-miterlimit: 10;
      }

      .cls-1, .cls-2, .cls-3 {
        fill: none;
      }

      .cls-1, .cls-4 {
        stroke-width: .75px;
      }

      .cls-5 {
        fill: #fff;
      }

      .cls-6 {
        fill: #939598;
      }

      .cls-7 {
        fill: #00add8;
      }

      .cls-8, .cls-9 {
        fill: #4ebcdf;
      }

      .cls-8, .cls-4 {
        fill-rule: evenodd;
      }

      .cls-10 {
        fill: #8fcfe8;
      }

      .cls-2, .cls-3 {
        stroke: #00add8;
        stroke-width: 1.75px;
      }

      .cls-2, .cls-3, .cls-4 {
        stroke-linecap: round;
        stroke-linejoin: round;
      }

      .cls-3 {
        stroke-dasharray: 0 0 0 2.92;
      }

      .cls-11 {
        fill: url(#linear-gradient);
      }

      .cls-12 {
        fill: #3e97b3;
      }

      .cls-4 {
        fill: #c6e4f1;
        stroke: #c6e4f1;
      }
    </style>
    <linearGradient id="linear-gradient" x1="95.95" y1="119.84" x2="95.95" y2="159.57" gradientUnits="userSpaceOnUse">
      <stop offset="0" stop-color="#fff"/>
      <stop offset="1" stop-color="#c6e4f1"/>
    </linearGradient>
  </defs>
  <g id="Layer_2-2" data-name="Layer 2">
    <rect class="cls-11" y="119.84" width="191.91" height="39.74"/>
    <line class="cls-1" x1="1.33" y1="159.48" x2="191.9" y2="159.48"/>
    <g>
      <path class="cls-10" d="M6.17,120.14h0c0,.41,.33,.74,.74,.74,.41,0,.74-.33,.74-.74v-8.6c1.14,1.27,2.73,3.88,2.73,8.6,0,.41,.33,.75,.75,.75s.74-.33,.74-.75m8.55,0h0c0,.41,.33,.75,.74,.75s.74-.33,.74-.75c0-4.25,1.39-6.93,2.45-8.35v8.35c0,.41,.33,.75,.74,.75s.75-.33,.75-.75m-10.65,0c0,.41,.33,.75,.75,.75s.74-.33,.74-.75v-11.41c1.42,1.77,3.58,5.45,3.58,11.41h0c0,.41,.33,.74,.74,.74s.75-.33,.75-.74"/>
      <path class="cls-9" d="M29.5,120.12c0,.25-.01,.49-.02,.74,0,.41,.33,.75,.74,.75s.75-.34,.75-.75c0-.25,0-.5,.01-.74h-1.49s0,0,0,0Zm-22.33,.75c0,.41,.33,.74,.74,.74,.41,0,.74-.33,.74-.74v-8.6c1.14,1.27,2.73,3.88,2.73,8.6,0,.41,.33,.75,.75,.75s.74-.33,.74-.75c0-8.1-4.4-10.77-4.59-10.88-.23-.13-.51-.14-.75,0-.23,.13-.37,.38-.37,.65v10.24s0,0,0,0Zm14.26,0c0,.41,.33,.75,.74,.75s.74-.33,.74-.75c0-4.25,1.39-6.93,2.45-8.35v8.35c0,.41,.33,.75,.74,.75s.75-.33,.75-.75v-10.23c0-.28-.16-.54-.41-.67-.25-.13-.56-.1-.78,.07-.17,.13-4.24,3.29-4.24,10.83h0Zm-.15,0c0,.41,.33,.74,.74,.74s.75-.33,.75-.74c0-9.59-5.14-13.69-5.36-13.86-.22-.17-.53-.2-.78-.08-.25,.13-.42,.39-.42,.67v13.27c0,.41,.33,.75,.75,.75s.74-.33,.74-.75v-11.41c1.42,1.77,3.58,5.45,3.58,11.41h0Zm-.69-5.63c0,.41,.33,.75,.75,.75,.41,0,.74-.33,.74-.75v-24.01c0-.41-.33-.74-.74-.74s-.75,.33-.75,.74v24.01s0,0,0,0Zm.75-30.58c.41,0,.74-.33,.74-.74v-2.82c0-.41-.33-.75-.74-.75s-.75,.33-.75,.75v2.82c0,.41,.33,.74,.75,.74Zm0,7.44c1.16,0,2.1-.94,2.1-2.1v-4.78c0-1.16-.94-2.1-2.1-2.1s-2.1,.94-2.1,2.1v4.78c0,1.16,.94,2.1,2.1,2.1Zm0-7.49c.34,0,.61,.28,.61,.61v4.78c0,.34-.28,.61-.61,.61s-.61-.28-.61-.61v-4.78c0-.34,.28-.61,.61-.61ZM.25,120.87c0,.41,.34,.75,.74,.75H45.16c.41,0,.74-.34,.74-.75s-.33-.74-.74-.74H1c-.41,0-.74,.33-.74,.74Z"/>
      <path class="cls-7" d="M61.11,123.24c0-.41-.33-.75-.75-.75h-23.35c-.41,0-.74,.33-.74,.75s.33,.74,.74,.74h23.35c.41,0,.75-.33,.75-.74h0Z"/>
      <path class="cls-12" d="M20.99,84.61c.34,0,.61,.28,.61,.61v4.78c0,.34-.28,.61-.61,.61s-.61-.28-.61-.61v-4.78c0-.34,.28-.61,.61-.61Z"/>
      <path class="cls-9" d="M83.8,141.29c0-.41-.33-.75-.75-.75H17.18c-.41,0-.74,.33-.74,.75s.33,.74,.74,.74H83.06c.41,0,.75-.33,.75-.74h0Z"/>
      <path class="cls-7" d="M97.91,145.74c0-.41-.26-.75-.57-.75H46.71c-.32,0-.57,.33-.57,.75s.26,.74,.57,.74h50.63c.32,0,.57-.33,.57-.74h0Z"/>
      <g>
        <path class="cls-9" d="M166.95,130.55c.41,0,.75-.33,.75-.75,0-4.72,1.59-7.33,2.73-8.6v8.6c0,.41,.33,.74,.74,.74m-18.2,0c.41,0,.74-.33,.74-.75v-8.35c1.07,1.43,2.45,4.1,2.45,8.35,0,.41,.33,.75,.74,.75m.15,0c.41,0,.74-.33,.74-.74h0c0-5.96,2.17-9.64,3.58-11.41v11.41c0,.41,.33,.75,.74,.75m2.85-.74h0c0-7.79,1.69-12.53,2.93-14.96v7.59"/>
        <path class="cls-9" d="M162.2,134.1c0-.41-.33-.75-.75-.75h-23.35c-.41,0-.74,.33-.74,.75s.33,.74,.74,.74h23.35c.41,0,.75-.33,.75-.74h0Z"/>
        <path class="cls-10" d="M148.77,129.99h-1.49c0,.25,.01,.49,.01,.74,0,.41,.34,.75,.75,.75s.74-.34,.74-.75c0-.25,0-.5-.02-.74h0Zm22.33,.75v-10.24c0-.27-.14-.51-.37-.65-.23-.13-.52-.13-.75,0-.19,.11-4.59,2.78-4.59,10.88,0,.41,.33,.75,.74,.75s.75-.33,.75-.75c0-4.72,1.59-7.33,2.73-8.6v8.6c0,.41,.33,.74,.74,.74,.41,0,.74-.33,.74-.74h0Zm-14.26,0c0-7.53-4.06-10.7-4.24-10.83-.23-.17-.53-.2-.78-.07-.25,.12-.41,.38-.41,.67v10.23c0,.41,.33,.75,.75,.75s.74-.33,.74-.75v-8.35c1.07,1.43,2.45,4.1,2.45,8.35,0,.41,.33,.75,.74,.75s.74-.33,.74-.75h0Zm.15,0c0-5.96,2.17-9.64,3.58-11.41v11.41c0,.41,.33,.75,.74,.75s.75-.33,.75-.75v-13.27c0-.28-.16-.54-.42-.67-.25-.12-.56-.09-.78,.08-.22,.17-5.36,4.27-5.36,13.86,0,.41,.33,.74,.75,.74s.74-.33,.74-.74h0Zm7.18,0c0-7.79,1.69-12.53,2.93-14.96v7.59c0,.41,.33,.75,.74,.75s.74-.33,.74-.75v-10.14c0-.31-.19-.58-.47-.69-.28-.11-.61-.04-.82,.18-.19,.2-4.62,5.1-4.62,18.02,0,.41,.33,.74,.74,.74s.74-.33,.74-.74h0Zm-6.49-5.63v-19.01c0-.41-.33-.74-.75-.74s-.74,.33-.74,.74v19.01c0,.41,.33,.75,.74,.75,.41,0,.75-.33,.75-.75h0Zm0-26.32v-2.82c0-.41-.33-.75-.75-.75s-.74,.33-.74,.75v2.82c0,.41,.33,.74,.74,.74,.41,0,.75-.33,.75-.74Zm1.36,6.08v-4.78c0-1.16-.94-2.1-2.1-2.1s-2.1,.94-2.1,2.1v4.78c0,1.16,.94,2.1,2.1,2.1s2.1-.94,2.1-2.1Zm-1.49-4.78v4.78c0,.34-.28,.61-.61,.61s-.61-.28-.61-.61v-4.78c0-.34,.28-.61,.61-.61,.34,0,.61,.28,.61,.61Zm7.98,18.98v-14.85c0-.41-.33-.74-.74-.74s-.75,.33-.75,.74v14.85c0,.41,.33,.74,.75,.74,.41,0,.74-.33,.74-.74h0Zm0-22.95v-2.82c0-.41-.33-.74-.74-.74s-.75,.33-.75,.74v2.82c0,.41,.33,.74,.75,.74,.41,0,.74-.33,.74-.74Zm1.36,6.08v-4.78c0-1.16-.94-2.1-2.1-2.1s-2.1,.94-2.1,2.1v4.78c0,1.16,.94,2.1,2.1,2.1,1.16,0,2.1-.94,2.1-2.1Zm-1.49-4.78v4.78c0,.34-.28,.61-.61,.61s-.61-.27-.61-.61v-4.78c0-.34,.28-.61,.61-.61s.61,.28,.61,.61Zm-.1,14.49c.3-.28,.32-.75,.04-1.05l-3.46-3.71c-.28-.3-.75-.32-1.05-.04-.3,.28-.32,.75-.04,1.05l3.46,3.71c.15,.16,.35,.24,.55,.24,.18,0,.36-.07,.51-.2h0Zm26.61,18.07H119.7c-.41,0-.74,.33-.74,.74s.33,.75,.74,.75h72.2v-1.49Zm-29.84,4.1c0-.41-.33-.75-.75-.75h-23.35c-.41,0-.74,.33-.74,.75s.33,.74,.74,.74h23.35c.41,0,.75-.33,.75-.74h0Zm11.87,12.84c0-.41-.33-.75-.75-.75h-23.35c-.41,0-.74,.33-.74,.75s.33,.74,.74,.74h23.35c.41,0,.75-.33,.75-.74h0Zm-9.63,3.46c0-.41-.33-.75-.75-.75h-23.35c-.41,0-.74,.33-.74,.75s.33,.74,.74,.74h23.35c.41,0,.75-.33,.75-.74h0Z"/>
        <path class="cls-12" d="M164.91,96.53c.34,0,.61,.28,.61,.61v4.78c0,.34-.28,.61-.61,.61s-.61-.28-.61-.61v-4.78c0-.34,.28-.61,.61-.61Z"/>
        <path class="cls-12" d="M156.8,99.06c.34,0,.61,.28,.61,.61v4.78c0,.34-.28,.61-.61,.61s-.61-.28-.61-.61v-4.78c0-.34,.28-.61,.61-.61Z"/>
        <path class="cls-9" d="M125.77,125.03s-.05,.09-.07,.13c-.59,1.15-1.1,2.77-1.18,4.98m1.26-5.13c.34-.64,.7-1.12,1.02-1.48v7.23c0,.34,.28,.63,.63,.63h-3.55c.34,0,.63-.28,.63-.63,0-.21,0-.42,.01-.63m-1.78,.63v-11.53c.6,1.1,1.33,2.86,1.8,5.47m2.37,2.29c.19,.29,.57,.38,.86,.19,.27-.17,.59-.27,.91-.27,.93,0,1.69,.76,1.69,1.69,0,.7-.42,1.32-1.08,1.58-.32,.13-.48,.49-.36,.81h0"/>
        <path class="cls-10" d="M123.01,130.23c.08-2.37,.62-4.14,1.26-5.43,.31-.62,.64-1.13,.96-1.54,.12,.48,.22,.99,.31,1.53,.02,.11,.01,.22-.02,.31,0,0,0,.01,0,.01-.03,.04-.05,.09-.07,.13-.59,1.15-1.1,2.77-1.18,4.98h-1.25Zm2.22-6.97c.12,.48,.22,.99,.31,1.53,.02,.11,.01,.22-.02,.31,.34-.64,.7-1.12,1.02-1.48v7.23c0,.34,.28,.63,.63,.63s.63-.28,.63-.63v-8.6c0-.23-.12-.43-.31-.54-.19-.11-.44-.11-.63,0-.07,.04-.81,.48-1.62,1.54h0Zm-2.22,6.97c0,.21-.01,.41-.01,.63,0,.34,.28,.63,.63,.63s.63-.28,.63-.63c0-.21,0-.42,.01-.63h-1.25s0,0,0,0Zm-1.41-13.45c-.23,.1-.38,.33-.38,.58v13.5c0,.34,.28,.63,.63,.63s.63-.28,.63-.63v-11.53c.6,1.1,1.33,2.86,1.8,5.47,.31-.62,.64-1.13,.96-1.54-1.06-4.59-2.87-6.28-2.95-6.37-.19-.17-.45-.21-.68-.11h0Zm-5.5,14.08h0c0,.35,.28,.63,.63,.63s.63-.28,.63-.63m-5.52,0c0,.35,.28,.63,.63,.63s.63-.28,.63-.63m15.59,.23c.1,.25,.33,.4,.58,.4,.08,0,.15-.01,.23-.04,1.14-.45,1.87-1.52,1.87-2.74,0-1.62-1.32-2.94-2.94-2.94-.56,0-1.11,.16-1.59,.46-.29,.19-.38,.57-.19,.86,.19,.29,.57,.38,.86,.19,.27-.17,.59-.27,.91-.27,.93,0,1.69,.76,1.69,1.69,0,.7-.42,1.32-1.08,1.58-.32,.13-.48,.49-.36,.81h0Zm-54.62-.23c0,.34,.28,.63,.63,.63h61.49c.34,0,.63-.28,.63-.63,0-.34-.28-.63-.63-.63h-61.49c-.34,0-.63,.28-.63,.63Z"/>
        <g>
          <path class="cls-7" d="M114.02,130.02c-.05-1.37-.37-2.38-.73-3.09-.02-.03-.03-.05-.05-.08m.78,3.17c0,.13,0,.26,0,.39,0,.21,.17,.39,.39,.39h-2.2c.21,0,.39-.18,.39-.39v-4.48c.2,.22,.42,.52,.63,.92m.78-.19c.29-1.62,.74-2.71,1.11-3.39v7.15m-3.85,.14h0c.08-.2-.02-.42-.22-.5-.41-.16-.67-.54-.67-.98,0-.58,.47-1.05,1.05-1.05,.2,0,.4,.06,.57,.17,.18,.12,.42,.06,.54-.12"/>
          <path class="cls-9" d="M114.95,130.07h-.78c-.05-1.37-.37-2.38-.73-3.09-.02-.03-.03-.05-.05-.08,0,0,0,0,0,0-.02-.06-.02-.12-.01-.19,.06-.34,.12-.65,.19-.95,.2,.26,.4,.57,.59,.96,.4,.8,.73,1.9,.78,3.37h0Zm-1.38-4.33c-.5-.66-.96-.93-1.01-.96-.12-.07-.27-.07-.39,0-.12,.07-.19,.2-.19,.34v5.33c0,.21,.17,.39,.39,.39s.39-.18,.39-.39v-4.48c.2,.22,.42,.52,.63,.92-.02-.06-.02-.12-.01-.19,.06-.34,.12-.65,.19-.95h0Zm1.38,4.32h-.78c0,.13,0,.26,0,.39,0,.21,.17,.39,.39,.39s.39-.18,.39-.39c0-.13,0-.26,0-.39h0Zm.87-8.34c-.14-.06-.3-.03-.42,.07-.05,.05-1.17,1.1-1.83,3.95,.2,.26,.4,.57,.59,.96,.29-1.62,.74-2.71,1.11-3.39v7.15c0,.21,.17,.39,.39,.39s.39-.18,.39-.39v-8.37c0-.16-.09-.3-.23-.36h0Zm2.64,8.73c0,.21,.17,.39,.39,.39s.39-.17,.39-.39h0m1.87,0c0,.22,.17,.39,.39,.39s.39-.17,.39-.39m-10.45,.14c.08-.2-.02-.42-.22-.5-.41-.16-.67-.54-.67-.98,0-.58,.47-1.05,1.05-1.05,.2,0,.4,.06,.57,.17,.18,.12,.42,.06,.54-.12,.12-.18,.06-.42-.12-.54-.29-.19-.63-.29-.98-.29-1.01,0-1.83,.82-1.83,1.83,0,.76,.46,1.43,1.16,1.7,.05,.02,.09,.03,.14,.03,.16,0,.3-.09,.36-.25h0Zm18.37-.53h-23.02c-.21,0-.39,.17-.39,.39s.17,.39,.39,.39h23.02c.21,0,.39-.18,.39-.39s-.17-.39-.39-.39Z"/>
        </g>
        <path class="cls-9" d="M158.56,130.74c0-.41-.33-.75-.75-.75H67.56c-.41,0-.74,.33-.74,.75s.33,.74,.74,.74h90.25c.41,0,.75-.33,.75-.74h0Z"/>
      </g>
    </g>
    <g>
      <rect class="cls-7" x="33.92" y="75.81" width="55.59" height="17.46"/>
      <g>
        <path class="cls-12" d="M36.97,42.63h2.69c1.76,0,2.62,.98,2.62,2.77v5.67c0,1.79-.86,2.77-2.62,2.77h-2.69v-11.21Zm2.66,9.6c.56,0,.9-.29,.9-1.09v-5.83c0-.8-.34-1.09-.9-1.09h-.9v8h.9Z"/>
        <path class="cls-12" d="M43.87,42.63h4.8v1.6h-3.04v2.96h2.42v1.6h-2.42v3.44h3.04v1.6h-4.8v-11.21Z"/>
        <path class="cls-12" d="M50.07,42.63h2.59c1.76,0,2.62,.98,2.62,2.77v1.1c0,1.79-.86,2.77-2.62,2.77h-.83v4.56h-1.76v-11.21Zm2.59,5.04c.56,0,.86-.26,.86-1.06v-1.33c0-.8-.3-1.06-.86-1.06h-.83v3.44h.83Z"/>
        <path class="cls-12" d="M56.65,42.63h4.8v1.6h-3.04v2.96h2.42v1.6h-2.42v3.44h3.04v1.6h-4.8v-11.21Z"/>
        <path class="cls-12" d="M62.86,42.63h2.21l1.71,6.71h.03v-6.71h1.57v11.21h-1.81l-2.11-8.18h-.03v8.18h-1.57v-11.21Z"/>
        <path class="cls-12" d="M70.09,42.63h2.69c1.76,0,2.62,.98,2.62,2.77v5.67c0,1.79-.86,2.77-2.62,2.77h-2.69v-11.21Zm2.66,9.6c.56,0,.9-.29,.9-1.09v-5.83c0-.8-.34-1.09-.9-1.09h-.9v8h.9Z"/>
        <path class="cls-12" d="M76.99,42.63h4.8v1.6h-3.04v2.96h2.42v1.6h-2.42v3.44h3.04v1.6h-4.8v-11.21Z"/>
        <path class="cls-12" d="M83.19,42.63h2.21l1.71,6.71h.03v-6.71h1.57v11.21h-1.81l-2.11-8.18h-.03v8.18h-1.57v-11.21Z"/>
        <path class="cls-12" d="M91.8,44.23h-1.84v-1.6h5.44v1.6h-1.84v9.6h-1.76v-9.6Z"/>
        <path class="cls-12" d="M99.48,51.18v-5.89c0-1.79,.94-2.82,2.67-2.82s2.67,1.02,2.67,2.82v5.89c0,1.79-.94,2.82-2.67,2.82s-2.67-1.02-2.67-2.82Zm3.59,.11v-6.12c0-.8-.35-1.1-.91-1.1s-.91,.3-.91,1.1v6.12c0,.8,.35,1.1,.91,1.1s.91-.3,.91-1.1Z"/>
        <path class="cls-12" d="M106.41,42.63h2.21l1.71,6.71h.03v-6.71h1.57v11.21h-1.81l-2.11-8.18h-.03v8.18h-1.57v-11.21Z"/>
        <path class="cls-12" d="M116.6,42.63h1.76v11.21h-1.76v-11.21Z"/>
        <path class="cls-12" d="M120.07,42.63h2.21l1.71,6.71h.03v-6.71h1.57v11.21h-1.81l-2.11-8.18h-.03v8.18h-1.57v-11.21Z"/>
        <path class="cls-12" d="M127.31,42.63h1.76v9.6h2.9v1.6h-4.66v-11.21Z"/>
        <path class="cls-12" d="M134.63,42.63h2.39l1.82,11.21h-1.76l-.32-2.23v.03h-2l-.32,2.19h-1.63l1.82-11.21Zm1.92,7.49l-.78-5.54h-.03l-.77,5.54h1.58Z"/>
        <path class="cls-12" d="M140.09,42.63h2.21l1.71,6.71h.03v-6.71h1.57v11.21h-1.81l-2.11-8.18h-.03v8.18h-1.57v-11.21Z"/>
        <path class="cls-12" d="M147.32,42.63h2.69c1.76,0,2.62,.98,2.62,2.77v5.67c0,1.79-.86,2.77-2.62,2.77h-2.69v-11.21Zm2.66,9.6c.56,0,.9-.29,.9-1.09v-5.83c0-.8-.34-1.09-.9-1.09h-.9v8h.9Z"/>
        <path class="cls-12" d="M51.81,60.63h1.7l.78,8.61h.03l.83-8.61h1.92l.83,8.61h.03l.78-8.61h1.52l-1.14,11.21h-2.19l-.8-7.56h-.03l-.8,7.56h-2.34l-1.14-11.21Z"/>
        <path class="cls-12" d="M61.54,60.63h4.8v1.6h-3.04v2.96h2.42v1.6h-2.42v3.44h3.04v1.6h-4.8v-11.21Z"/>
        <path class="cls-12" d="M69.12,62.23h-1.84v-1.6h5.44v1.6h-1.84v9.6h-1.76v-9.6Z"/>
        <path class="cls-12" d="M73.97,60.63h1.76v9.6h2.9v1.6h-4.66v-11.21Z"/>
        <path class="cls-12" d="M81.3,60.63h2.39l1.82,11.21h-1.76l-.32-2.23v.03h-2l-.32,2.19h-1.63l1.82-11.21Zm1.92,7.49l-.78-5.54h-.03l-.77,5.54h1.58Z"/>
        <path class="cls-12" d="M86.75,60.63h2.21l1.71,6.71h.03v-6.71h1.57v11.21h-1.81l-2.11-8.18h-.03v8.18h-1.57v-11.21Z"/>
        <path class="cls-12" d="M93.99,60.63h2.69c1.76,0,2.62,.98,2.62,2.77v5.67c0,1.79-.86,2.77-2.62,2.77h-2.69v-11.21Zm2.66,9.6c.56,0,.9-.29,.9-1.09v-5.83c0-.8-.34-1.09-.9-1.09h-.9v8h.9Z"/>
        <path class="cls-12" d="M100.58,69.18v-.64h1.66v.77c0,.8,.35,1.09,.91,1.09s.91-.29,.91-1.12c0-.93-.35-1.52-1.5-2.53-1.47-1.3-1.95-2.21-1.95-3.49,0-1.76,.91-2.79,2.62-2.79s2.56,1.02,2.56,2.82v.46h-1.66v-.58c0-.8-.32-1.1-.88-1.1s-.88,.3-.88,1.07c0,.82,.37,1.41,1.52,2.42,1.47,1.3,1.94,2.19,1.94,3.58,0,1.83-.93,2.85-2.66,2.85s-2.59-1.02-2.59-2.82Z"/>
        <path class="cls-12" d="M110.19,60.63h1.76v4.56h1.89v-4.56h1.76v11.21h-1.76v-5.04h-1.89v5.04h-1.76v-11.21Z"/>
        <path class="cls-12" d="M118.67,60.63h2.39l1.82,11.21h-1.76l-.32-2.23v.03h-2l-.32,2.19h-1.63l1.82-11.21Zm1.92,7.49l-.78-5.54h-.03l-.77,5.54h1.58Z"/>
        <path class="cls-12" d="M123.22,60.63h1.78l1.15,8.69h.03l1.15-8.69h1.62l-1.7,11.21h-2.34l-1.7-11.21Z"/>
        <path class="cls-12" d="M130.19,60.63h4.8v1.6h-3.04v2.96h2.42v1.6h-2.42v3.44h3.04v1.6h-4.8v-11.21Z"/>
        <path class="cls-5" d="M37.99,78.63h2.69c1.76,0,2.62,.98,2.62,2.77v5.67c0,1.79-.86,2.77-2.62,2.77h-2.69v-11.21Zm2.66,9.6c.56,0,.9-.29,.9-1.09v-5.83c0-.8-.34-1.09-.9-1.09h-.9v8h.9Z"/>
        <path class="cls-5" d="M44.88,78.63h4.8v1.6h-3.04v2.96h2.42v1.6h-2.42v3.44h3.04v1.6h-4.8v-11.21Z"/>
        <path class="cls-5" d="M50.98,87.24v-6.02c0-1.73,.9-2.75,2.59-2.75s2.59,1.02,2.59,2.75v1.18h-1.67v-1.3c0-.74-.35-1.04-.88-1.04s-.88,.3-.88,1.04v6.26c0,.74,.35,1.02,.88,1.02s.88-.29,.88-1.02v-1.71h1.67v1.58c0,1.73-.9,2.75-2.59,2.75s-2.59-1.02-2.59-2.75Z"/>
        <path class="cls-5" d="M57.62,78.63h1.76v9.6h2.9v1.6h-4.66v-11.21Z"/>
        <path class="cls-5" d="M63.52,78.63h1.76v11.21h-1.76v-11.21Z"/>
        <path class="cls-5" d="M66.99,78.63h2.21l1.71,6.71h.03v-6.71h1.57v11.21h-1.81l-2.11-8.18h-.03v8.18h-1.57v-11.21Z"/>
        <path class="cls-5" d="M74.23,78.63h4.8v1.6h-3.04v2.96h2.42v1.6h-2.42v3.44h3.04v1.6h-4.8v-11.21Z"/>
        <path class="cls-5" d="M80.43,78.63h2.69c1.76,0,2.62,.98,2.62,2.77v5.67c0,1.79-.86,2.77-2.62,2.77h-2.69v-11.21Zm2.66,9.6c.56,0,.9-.29,.9-1.09v-5.83c0-.8-.34-1.09-.9-1.09h-.9v8h.9Z"/>
        <path class="cls-6" d="M92.95,87.18v-.64h1.66v.77c0,.8,.35,1.09,.91,1.09s.91-.29,.91-1.12c0-.93-.35-1.52-1.5-2.53-1.47-1.3-1.95-2.21-1.95-3.49,0-1.76,.91-2.79,2.62-2.79s2.56,1.02,2.56,2.82v.46h-1.66v-.58c0-.8-.32-1.1-.88-1.1s-.88,.3-.88,1.07c0,.82,.37,1.41,1.52,2.42,1.47,1.3,1.94,2.19,1.94,3.58,0,1.83-.93,2.85-2.66,2.85s-2.59-1.02-2.59-2.82Z"/>
        <path class="cls-6" d="M99.6,78.63h1.76v11.21h-1.76v-11.21Z"/>
        <path class="cls-6" d="M103.07,78.63h2.21l1.71,6.71h.03v-6.71h1.57v11.21h-1.81l-2.11-8.18h-.03v8.18h-1.57v-11.21Z"/>
        <path class="cls-6" d="M110.19,87.24v-6.02c0-1.73,.9-2.75,2.59-2.75s2.59,1.02,2.59,2.75v1.18h-1.67v-1.3c0-.74-.35-1.04-.88-1.04s-.88,.3-.88,1.04v6.26c0,.74,.35,1.02,.88,1.02s.88-.29,.88-1.02v-1.71h1.67v1.58c0,1.73-.9,2.75-2.59,2.75s-2.59-1.02-2.59-2.75Z"/>
        <path class="cls-6" d="M116.83,78.63h4.8v1.6h-3.04v2.96h2.42v1.6h-2.42v3.44h3.04v1.6h-4.8v-11.21Z"/>
        <path class="cls-6" d="M128.47,81.29h-1.84v-1.25c1.49,0,2.02-.32,2.42-1.41h1.18v11.21h-1.76v-8.55Z"/>
        <path class="cls-6" d="M132.66,87.18v-.21h1.66v.32c0,.8,.35,1.1,.91,1.1,.62,0,.98-.3,.98-1.38v-2.14h-.03c-.3,.64-.82,.98-1.6,.98-1.3,0-1.95-.91-1.95-2.56v-2c0-1.79,.94-2.82,2.67-2.82s2.67,1.02,2.67,2.82v5.79c0,1.89-.86,2.91-2.69,2.91-1.73,0-2.62-1.02-2.62-2.82Zm3.55-4.03v-1.98c0-.74-.3-1.09-.91-1.09s-.91,.35-.91,1.09v1.98c0,.75,.3,1.1,.91,1.1s.91-.35,.91-1.1Z"/>
        <path class="cls-6" d="M143.04,80.23h-3.55v-1.6h5.28v1.54l-2.75,9.67h-1.79l2.82-9.6Z"/>
        <path class="cls-6" d="M146.27,87.18v-5.89c0-1.79,.94-2.82,2.67-2.82s2.67,1.02,2.67,2.82v5.89c0,1.79-.94,2.82-2.67,2.82s-2.67-1.02-2.67-2.82Zm3.59,.11v-6.12c0-.8-.35-1.1-.91-1.1s-.91,.3-.91,1.1v6.12c0,.8,.35,1.1,.91,1.1s.91-.3,.91-1.1Z"/>
      </g>
      <g>
        <g>
          <path class="cls-6" d="M84.22,18.89V10.46c0-2.57,1.35-4.03,3.83-4.03s3.83,1.47,3.83,4.03v8.43c0,2.57-1.35,4.03-3.83,4.03s-3.83-1.47-3.83-4.03Zm5.13,.16V10.3c0-1.15-.5-1.58-1.31-1.58s-1.31,.44-1.31,1.58v8.75c0,1.15,.5,1.58,1.31,1.58s1.31-.44,1.31-1.58Z"/>
          <path class="cls-6" d="M93.57,6.65h6.67v2.29h-4.15v4.47h3.25v2.29h-3.25v6.99h-2.52V6.65Z"/>
          <path class="cls-6" d="M104.69,18.89v-.92h2.38v1.1c0,1.15,.5,1.56,1.31,1.56s1.31-.41,1.31-1.6c0-1.33-.5-2.18-2.15-3.62-2.11-1.86-2.8-3.16-2.8-5,0-2.52,1.31-3.99,3.76-3.99s3.67,1.47,3.67,4.03v.67h-2.38v-.83c0-1.15-.46-1.58-1.26-1.58s-1.26,.44-1.26,1.54c0,1.17,.53,2.02,2.18,3.46,2.11,1.86,2.77,3.14,2.77,5.13,0,2.61-1.33,4.08-3.8,4.08s-3.71-1.47-3.71-4.03Z"/>
          <path class="cls-6" d="M113.65,6.65h3.71c2.52,0,3.76,1.4,3.76,3.96v1.58c0,2.57-1.24,3.96-3.76,3.96h-1.19v6.53h-2.52V6.65Zm3.71,7.22c.8,0,1.24-.37,1.24-1.51v-1.9c0-1.15-.44-1.51-1.24-1.51h-1.19v4.93h1.19Z"/>
          <path class="cls-6" d="M122.49,6.65h6.88v2.29h-4.35v4.24h3.46v2.29h-3.46v4.93h4.35v2.29h-6.88V6.65Z"/>
          <path class="cls-6" d="M130.65,18.98V10.37c0-2.48,1.28-3.94,3.71-3.94s3.71,1.47,3.71,3.94v1.7h-2.38v-1.86c0-1.05-.5-1.49-1.26-1.49s-1.26,.44-1.26,1.49v8.96c0,1.05,.5,1.47,1.26,1.47s1.26-.41,1.26-1.47v-2.45h2.38v2.27c0,2.48-1.28,3.94-3.71,3.94s-3.71-1.47-3.71-3.94Z"/>
          <path class="cls-6" d="M139.59,6.65h2.52V22.7h-2.52V6.65Z"/>
          <path class="cls-6" d="M143.99,6.65h6.88v2.29h-4.35v4.24h3.46v2.29h-3.46v4.93h4.35v2.29h-6.88V6.65Z"/>
          <path class="cls-6" d="M151.92,18.89v-.92h2.38v1.1c0,1.15,.5,1.56,1.31,1.56s1.31-.41,1.31-1.6c0-1.33-.5-2.18-2.15-3.62-2.11-1.86-2.8-3.16-2.8-5,0-2.52,1.31-3.99,3.76-3.99s3.67,1.47,3.67,4.03v.67h-2.38v-.83c0-1.15-.46-1.58-1.26-1.58s-1.26,.44-1.26,1.54c0,1.17,.53,2.02,2.18,3.46,2.11,1.86,2.77,3.14,2.77,5.13,0,2.61-1.33,4.08-3.8,4.08s-3.71-1.47-3.71-4.03Z"/>
        </g>
        <g>
          <path class="cls-7" d="M33.12,17.37v-1.97c0-2.13,.64-3.68,2.29-4.54v-.06c-1.46-.79-2.16-2.19-2.16-4.38v-.92c0-3.56,1.94-5.49,5.33-5.49s5.33,1.94,5.33,5.49v.92c0,2.19-.73,3.59-2.16,4.38v.06c1.65,.86,2.29,2.41,2.29,4.54v1.97c0,3.56-1.94,5.49-5.46,5.49s-5.46-1.94-5.46-5.49Zm7.43-.19v-2.13c0-1.68-.67-2.51-1.97-2.51s-1.97,.83-1.97,2.51v2.13c0,1.68,.67,2.51,1.97,2.51s1.97-.83,1.97-2.51Zm-.13-10.03v-1.75c0-1.46-.64-2.22-1.84-2.22s-1.84,.76-1.84,2.22v1.75c0,1.46,.64,2.22,1.84,2.22s1.84-.76,1.84-2.22Z"/>
          <path class="cls-7" d="M51.14,5.59h-3.65V3.11c2.95,0,4-.64,4.79-2.79h2.35V22.54h-3.49V5.59Z"/>
          <path class="cls-7" d="M58.48,9.11V3.56c0-2.29,1.17-3.56,3.37-3.56s3.37,1.27,3.37,3.56v5.56c0,2.29-1.17,3.56-3.37,3.56s-3.37-1.27-3.37-3.56Zm4.51,.16V3.4c0-.98-.44-1.4-1.14-1.4s-1.14,.41-1.14,1.4v5.87c0,.98,.41,1.4,1.14,1.4s1.14-.41,1.14-1.4ZM69.91,.32h2.22l-8.61,22.23h-2.22L69.91,.32Zm-1.68,18.99v-5.56c0-2.29,1.17-3.56,3.37-3.56s3.37,1.27,3.37,3.56v5.56c0,2.29-1.17,3.56-3.37,3.56s-3.37-1.27-3.37-3.56Zm4.51,.16v-5.87c0-.98-.44-1.4-1.14-1.4s-1.14,.41-1.14,1.4v5.87c0,.98,.41,1.4,1.14,1.4s1.14-.41,1.14-1.4Z"/>
        </g>
      </g>
      <g>
        <line class="cls-2" x1="26.07" y1="32.75" x2="26.07" y2="32.75"/>
        <line class="cls-3" x1="28.99" y1="32.75" x2="164.83" y2="32.75"/>
        <line class="cls-2" x1="166.29" y1="32.75" x2="166.29" y2="32.75"/>
      </g>
    </g>
    <g>
      <path class="cls-4" d="M172.11,56.16l1.44-.82c-.08-.05-.14-.12-.2-.19-.34-.43-1.19-.58-1.99-.47-2.3,.3-1.09,1.68-.11,3,1.22,1.65,.62,2.17-.99,3.09-.42,.24-.97,.55-1.56,.93-.48,.3-1.08,.12-1.35-.36l-3.67-6.44c-1.59,2.5-3.12,4.36-1.41,7.36,.25,.44,.11,.99-.3,1.27l-7.29,5.4,.45,1.07,8.54-3.84c.64-.29,1,.12,1.35,.54,3.65,4.33,6.68,4.59,11.29,1.5-3.45-.58-4.85-.92-7.57-4.6-.53-.72,.02-1.23,.57-1.58,.85-.54,1.83-.99,2.61-1.61,.72-.57,1-1.32-.15-2.79-.39-.5-.19-1.15,.33-1.44h0Z"/>
      <path class="cls-8" d="M171.65,56.96c-.31-.4-.15-.91,.26-1.14h0s1.14-.65,1.14-.65c-.06-.04-.11-.09-.16-.15-.27-.34-.94-.46-1.58-.38-1.83,.24-.87,1.33-.09,2.38"/>
    </g>
  </g>
</svg>