<?xml version="1.0" encoding="UTF-8"?>
<svg id="Layer_2" data-name="Layer 2" xmlns="http://www.w3.org/2000/svg" viewBox="0 0 268.59 154.36">
  <defs>
    <style>
      .cls-1 {
        fill: #ffd88f;
      }

      .cls-2 {
        stroke-dasharray: 0 0 0 2.85;
      }

      .cls-2, .cls-3, .cls-4 {
        fill: none;
      }

      .cls-2, .cls-4 {
        stroke: #fdb714;
        stroke-linecap: round;
        stroke-linejoin: round;
        stroke-width: 1.75px;
      }

      .cls-5 {
        fill: #939598;
      }

      .cls-3 {
        stroke: #939598;
        stroke-miterlimit: 10;
        stroke-width: 1.5px;
      }

      .cls-6 {
        fill: #fdb714;
      }

      .cls-7 {
        fill: #f3b844;
      }

      .cls-8 {
        fill: #fff3df;
      }
    </style>
  </defs>
  <g id="Layer_2-2" data-name="Layer 2">
    <rect class="cls-8" width="268.59" height="154.36"/>
    <g>
      <g>
        <path class="cls-5" d="M153.83,77.73l-12.46-5.21,12.46-5.21c1.34-.56,1.97-2.09,1.42-3.43-.56-1.34-2.09-1.97-3.43-1.42l-17.2,7.24-17.2-7.19c-1.34-.56-2.88,.08-3.43,1.42-.56,1.34,.08,2.88,1.42,3.43l12.46,5.21-12.39,5.16c-1.33,.56-1.95,2.09-1.39,3.42,.4,.94,1.31,1.57,2.33,1.59,.34,0,.68-.07,.99-.21l17.2-7.19,17.23,7.19c.32,.14,.66,.21,1.01,.21,1.44,0,2.6-1.18,2.6-2.62,0-1.04-.63-1.98-1.59-2.39h-.02Zm-19.66-6.06l16.6-6.9c.17-.06,.35,.02,.42,.18,.06,.16-.01,.35-.18,.41,0,0,0,0,0,0l-16.6,6.86s-.08,.01-.12,0c-.18-.01-.31-.17-.3-.35,0-.11,.08-.21,.18-.27v.06Zm-12.29-4.59c-.05,.12-.17,.2-.3,.19h-.12l-2.67-1.15c-.16-.09-.21-.29-.12-.45,.08-.13,.24-.2,.39-.15l2.66,1.15c.15,.07,.22,.24,.17,.4Zm-.72-1.21c-.16-.06-.24-.25-.18-.41,0,0,0,0,0-.01,.08-.16,.26-.23,.42-.16l10.35,4.59c.16,.08,.23,.26,.16,.42-.05,.12-.16,.19-.29,.19h-.13l-10.34-4.63Zm7.65,10.72l-3.46,1.52h-.13c-.18-.01-.31-.17-.3-.35,0-.11,.08-.21,.18-.27l3.44-1.52c.16-.07,.35,0,.42,.17,.09,.15,.03,.34-.12,.43-.01,0-.03,.01-.04,.02Zm9.47-4.09l-7.76,3.22s-.08,.01-.12,0c-.13,0-.25-.08-.3-.19-.07-.17,.01-.36,.18-.42l7.76-3.24c.16-.08,.36-.01,.44,.15s.01,.36-.15,.44c-.01,0-.03,.01-.05,.02v.02Zm12.73,6.61c-.05,.12-.17,.21-.3,.21h-.12l-5.64-2.28c-.17-.07-.25-.26-.18-.42,.07-.16,.26-.24,.42-.17l5.64,2.27c.15,.07,.23,.24,.18,.4Z"/>
        <path class="cls-1" d="M138.25,62.58c.07,.86-.29,1.71-.96,2.26,1.26-2.6,.18-5.74-2.42-7-.04-.02-.08-.04-.12-.06,0,0,.68,1.14-.9,2.51-1.32,1.21-4.44,4.92,.16,7.08,.72,.2,1.48,.2,2.19,0,1.73-.35,2.85-2.04,2.51-3.77-.07-.36-.21-.7-.4-1.02"/>
        <path class="cls-7" d="M163.13,43.1h-56.5c-.43,0-.79,.31-.85,.73,0,.1,0,.19,0,.29v1.84c.06,.56,.56,.96,1.12,.9,.47-.05,.85-.43,.9-.9v-.81h1.67c.35,9.8,8.38,17.58,18.19,17.63h.15c-1.21-4.03,2.55-8.41,4.47-10.09,3.27-2.86,1.88-5.24,1.88-5.24,9.98,5.4,5.32,14.67,5.32,14.67,1.44-1.11,2.23-2.87,2.11-4.69,.84,1.64,1.11,3.51,.75,5.32,9.72-.15,17.63-7.89,17.98-17.6h1.65v.87c.06,.56,.56,.96,1.12,.9,.47-.05,.85-.43,.9-.9v-2.09c0-.46-.37-.84-.84-.84-.01,0-.02,0-.04,0Z"/>
      </g>
      <g>
        <line class="cls-4" x1="26.07" y1="61.36" x2="26.07" y2="61.36"/>
        <line class="cls-2" x1="28.92" y1="61.36" x2="90.16" y2="61.36"/>
        <line class="cls-4" x1="91.59" y1="61.36" x2="91.59" y2="61.36"/>
      </g>
      <g>
        <line class="cls-4" x1="175.74" y1="61.36" x2="175.74" y2="61.36"/>
        <line class="cls-2" x1="178.59" y1="61.36" x2="239.83" y2="61.36"/>
        <line class="cls-4" x1="241.25" y1="61.36" x2="241.25" y2="61.36"/>
      </g>
      <g>
        <path class="cls-5" d="M56.1,18.45h1.76v11.2h-1.76v-11.2Z"/>
        <path class="cls-5" d="M59.46,18.45h4.66v1.6h-2.9v3.12h2.27v1.6h-2.27v4.88h-1.76v-11.2Z"/>
        <path class="cls-5" d="M67.99,27.06v-6.02c0-1.73,.9-2.75,2.59-2.75s2.59,1.02,2.59,2.75v1.18h-1.67v-1.3c0-.74-.35-1.04-.88-1.04s-.88,.3-.88,1.04v6.26c0,.74,.35,1.02,.88,1.02s.88-.29,.88-1.02v-1.71h1.67v1.58c0,1.73-.9,2.75-2.59,2.75s-2.59-1.02-2.59-2.75Z"/>
        <path class="cls-5" d="M74.45,26.99v-8.55h1.76v8.68c0,.8,.34,1.09,.9,1.09s.9-.29,.9-1.09v-8.68h1.7v8.55c0,1.79-.9,2.82-2.62,2.82s-2.63-1.02-2.63-2.82Z"/>
        <path class="cls-5" d="M81.24,18.45h2.61c1.82,0,2.61,.85,2.61,2.58v.69c0,1.15-.37,1.89-1.15,2.21v.03c.88,.27,1.17,1.1,1.17,2.37v1.97c0,.54,.02,.94,.19,1.36h-1.79c-.1-.29-.16-.46-.16-1.38v-2.05c0-1.04-.3-1.38-1.1-1.38h-.61v4.8h-1.76v-11.2Zm2.4,4.8c.66,0,1.06-.29,1.06-1.18v-.86c0-.8-.27-1.15-.9-1.15h-.8v3.2h.64Z"/>
        <path class="cls-5" d="M87.97,18.45h2.61c1.82,0,2.61,.85,2.61,2.58v.69c0,1.15-.37,1.89-1.15,2.21v.03c.88,.27,1.17,1.1,1.17,2.37v1.97c0,.54,.02,.94,.19,1.36h-1.79c-.1-.29-.16-.46-.16-1.38v-2.05c0-1.04-.3-1.38-1.1-1.38h-.61v4.8h-1.76v-11.2Zm2.4,4.8c.66,0,1.06-.29,1.06-1.18v-.86c0-.8-.27-1.15-.9-1.15h-.8v3.2h.64Z"/>
        <path class="cls-5" d="M94.71,18.45h4.8v1.6h-3.04v2.96h2.42v1.6h-2.42v3.44h3.04v1.6h-4.8v-11.2Z"/>
        <path class="cls-5" d="M100.8,18.45h2.21l1.71,6.71h.03v-6.71h1.57v11.2h-1.81l-2.11-8.18h-.03v8.18h-1.57v-11.2Z"/>
        <path class="cls-5" d="M109.3,20.05h-1.84v-1.6h5.44v1.6h-1.84v9.6h-1.76v-9.6Z"/>
        <path class="cls-5" d="M118.26,20.05h-1.84v-1.6h5.44v1.6h-1.84v9.6h-1.76v-9.6Z"/>
        <path class="cls-5" d="M122.99,18.45h2.61c1.82,0,2.61,.85,2.61,2.58v.69c0,1.15-.37,1.89-1.15,2.21v.03c.88,.27,1.17,1.1,1.17,2.37v1.97c0,.54,.02,.94,.19,1.36h-1.79c-.1-.29-.16-.46-.16-1.38v-2.05c0-1.04-.3-1.38-1.1-1.38h-.61v4.8h-1.76v-11.2Zm2.4,4.8c.66,0,1.06-.29,1.06-1.18v-.86c0-.8-.27-1.15-.9-1.15h-.8v3.2h.64Z"/>
        <path class="cls-5" d="M129.73,18.45h4.8v1.6h-3.04v2.96h2.42v1.6h-2.42v3.44h3.04v1.6h-4.8v-11.2Z"/>
        <path class="cls-5" d="M135.83,18.45h2.21l1.71,6.71h.03v-6.71h1.57v11.2h-1.81l-2.11-8.18h-.03v8.18h-1.57v-11.2Z"/>
        <path class="cls-5" d="M142.95,18.45h2.69c1.76,0,2.62,.98,2.62,2.77v5.67c0,1.79-.86,2.77-2.62,2.77h-2.69v-11.2Zm2.66,9.6c.56,0,.9-.29,.9-1.09v-5.83c0-.8-.34-1.09-.9-1.09h-.9v8h.9Z"/>
        <path class="cls-5" d="M149.43,26.99v-.64h1.66v.77c0,.8,.35,1.09,.91,1.09s.91-.29,.91-1.12c0-.93-.35-1.52-1.5-2.53-1.47-1.3-1.95-2.21-1.95-3.49,0-1.76,.91-2.79,2.62-2.79s2.56,1.02,2.56,2.82v.46h-1.67v-.58c0-.8-.32-1.1-.88-1.1s-.88,.3-.88,1.07c0,.82,.37,1.41,1.52,2.42,1.47,1.3,1.94,2.19,1.94,3.59,0,1.82-.93,2.85-2.66,2.85s-2.59-1.02-2.59-2.82Z"/>
        <path class="cls-5" d="M158.7,27.06v-6.02c0-1.73,.9-2.75,2.59-2.75s2.59,1.02,2.59,2.75v1.18h-1.67v-1.3c0-.74-.35-1.04-.88-1.04s-.88,.3-.88,1.04v6.26c0,.74,.35,1.02,.88,1.02s.88-.29,.88-1.02v-1.71h1.67v1.58c0,1.73-.9,2.75-2.59,2.75s-2.59-1.02-2.59-2.75Z"/>
        <path class="cls-5" d="M165.14,26.99v-5.89c0-1.79,.94-2.82,2.67-2.82s2.67,1.02,2.67,2.82v5.89c0,1.79-.94,2.82-2.67,2.82s-2.67-1.02-2.67-2.82Zm3.58,.11v-6.11c0-.8-.35-1.1-.91-1.1s-.91,.3-.91,1.1v6.11c0,.8,.35,1.1,.91,1.1s.91-.3,.91-1.1Z"/>
        <path class="cls-5" d="M171.95,18.45h2.21l1.71,6.71h.03v-6.71h1.57v11.2h-1.81l-2.11-8.18h-.03v8.18h-1.57v-11.2Z"/>
        <path class="cls-5" d="M180.45,20.05h-1.84v-1.6h5.44v1.6h-1.84v9.6h-1.76v-9.6Z"/>
        <path class="cls-5" d="M185.19,18.45h1.76v11.2h-1.76v-11.2Z"/>
        <path class="cls-5" d="M188.54,18.45h2.21l1.71,6.71h.03v-6.71h1.57v11.2h-1.81l-2.11-8.18h-.03v8.18h-1.57v-11.2Z"/>
        <path class="cls-5" d="M195.6,26.99v-8.55h1.76v8.68c0,.8,.34,1.09,.9,1.09s.9-.29,.9-1.09v-8.68h1.7v8.55c0,1.79-.9,2.82-2.62,2.82s-2.63-1.02-2.63-2.82Z"/>
        <path class="cls-5" d="M202.38,18.45h4.8v1.6h-3.04v2.96h2.42v1.6h-2.42v3.44h3.04v1.6h-4.8v-11.2Z"/>
        <path class="cls-5" d="M209.14,29.65h-.58v-1.7h1.7v1.52l-.88,2.1h-.82l.58-1.92Z"/>
      </g>
      <g>
        <path class="cls-5" d="M14.74,100.28h-2.3v-1.56c1.86,0,2.52-.4,3.02-1.76h1.48v14h-2.2v-10.68Z"/>
        <path class="cls-5" d="M23.33,98.66h1.54v9.81h-1.54v-9.81Z"/>
        <path class="cls-5" d="M26.27,98.66h1.93l1.5,5.87h.03v-5.87h1.37v9.81h-1.58l-1.85-7.16h-.03v7.16h-1.37v-9.81Z"/>
        <path class="cls-5" d="M39.99,108.42h-4.2v-2l4-9.46h2.4v9.46h1.04v2h-1.04v2.54h-2.2v-2.54Zm0-2v-5.46h-.04l-2.16,5.46h2.2Z"/>
        <path class="cls-6" d="M48.23,96.96h3.24c2.2,0,3.28,1.22,3.28,3.46v1.38c0,2.24-1.08,3.46-3.28,3.46h-1.04v5.7h-2.2v-14Zm3.24,6.3c.7,0,1.08-.32,1.08-1.32v-1.66c0-1-.38-1.32-1.08-1.32h-1.04v4.3h1.04Z"/>
        <path class="cls-6" d="M55.75,96.96h6v2h-3.8v3.7h3.02v2h-3.02v4.3h3.8v2h-6v-14Z"/>
        <path class="cls-6" d="M62.65,107.64v-7.36c0-2.24,1.18-3.52,3.34-3.52s3.34,1.28,3.34,3.52v7.36c0,2.24-1.18,3.52-3.34,3.52s-3.34-1.28-3.34-3.52Zm4.48,.14v-7.64c0-1-.44-1.38-1.14-1.38s-1.14,.38-1.14,1.38v7.64c0,1,.44,1.38,1.14,1.38s1.14-.38,1.14-1.38Z"/>
        <path class="cls-6" d="M70.61,96.96h3.24c2.2,0,3.28,1.22,3.28,3.46v1.38c0,2.24-1.08,3.46-3.28,3.46h-1.04v5.7h-2.2v-14Zm3.24,6.3c.7,0,1.08-.32,1.08-1.32v-1.66c0-1-.38-1.32-1.08-1.32h-1.04v4.3h1.04Z"/>
        <path class="cls-6" d="M78.13,96.96h2.2v12h3.62v2h-5.82v-14Z"/>
        <path class="cls-6" d="M84.81,96.96h6v2h-3.8v3.7h3.02v2h-3.02v4.3h3.8v2h-6v-14Z"/>
        <path class="cls-6" d="M94.35,96.96h2.12l.98,10.76h.04l1.04-10.76h2.4l1.04,10.76h.04l.98-10.76h1.9l-1.42,14h-2.74l-1-9.44h-.04l-1,9.44h-2.92l-1.42-14Z"/>
        <path class="cls-6" d="M105.81,96.96h2.2v14h-2.2v-14Z"/>
        <path class="cls-6" d="M109.45,96.96h2.2v12h3.62v2h-5.82v-14Z"/>
        <path class="cls-6" d="M116.13,96.96h2.2v12h3.62v2h-5.82v-14Z"/>
        <path class="cls-6" d="M125.43,107.64v-.8h2.08v.96c0,1,.44,1.36,1.14,1.36s1.14-.36,1.14-1.4c0-1.16-.44-1.9-1.88-3.16-1.84-1.62-2.44-2.76-2.44-4.36,0-2.2,1.14-3.48,3.28-3.48s3.2,1.28,3.2,3.52v.58h-2.08v-.72c0-1-.4-1.38-1.1-1.38s-1.1,.38-1.1,1.34c0,1.02,.46,1.76,1.9,3.02,1.84,1.62,2.42,2.74,2.42,4.48,0,2.28-1.16,3.56-3.32,3.56s-3.24-1.28-3.24-3.52Z"/>
        <path class="cls-6" d="M134.77,98.96h-2.3v-2h6.8v2h-2.3v12h-2.2v-12Z"/>
        <path class="cls-6" d="M140.13,96.96h2.2v14h-2.2v-14Z"/>
        <path class="cls-6" d="M143.77,96.96h2.2v12h3.62v2h-5.82v-14Z"/>
        <path class="cls-6" d="M150.44,96.96h2.2v12h3.62v2h-5.82v-14Z"/>
        <path class="cls-6" d="M160.04,107.64v-10.68h2.2v10.84c0,1,.42,1.36,1.12,1.36s1.12-.36,1.12-1.36v-10.84h2.12v10.68c0,2.24-1.12,3.52-3.28,3.52s-3.28-1.28-3.28-3.52Z"/>
        <path class="cls-6" d="M167.58,107.64v-.8h2.08v.96c0,1,.44,1.36,1.14,1.36s1.14-.36,1.14-1.4c0-1.16-.44-1.9-1.88-3.16-1.84-1.62-2.44-2.76-2.44-4.36,0-2.2,1.14-3.48,3.28-3.48s3.2,1.28,3.2,3.52v.58h-2.08v-.72c0-1-.4-1.38-1.1-1.38s-1.1,.38-1.1,1.34c0,1.02,.46,1.76,1.9,3.02,1.84,1.62,2.42,2.74,2.42,4.48,0,2.28-1.16,3.56-3.32,3.56s-3.24-1.28-3.24-3.52Z"/>
        <path class="cls-6" d="M175.2,96.96h6v2h-3.8v3.7h3.02v2h-3.02v4.3h3.8v2h-6v-14Z"/>
        <path class="cls-6" d="M185.19,107.64v-10.68h2.2v10.84c0,1,.42,1.36,1.12,1.36s1.12-.36,1.12-1.36v-10.84h2.12v10.68c0,2.24-1.12,3.52-3.28,3.52s-3.28-1.28-3.28-3.52Z"/>
        <path class="cls-6" d="M193.11,96.96h2.76l2.14,8.38h.04v-8.38h1.96v14h-2.26l-2.64-10.22h-.04v10.22h-1.96v-14Z"/>
        <path class="cls-6" d="M201.06,107.64v-.8h2.08v.96c0,1,.44,1.36,1.14,1.36s1.14-.36,1.14-1.4c0-1.16-.44-1.9-1.88-3.16-1.84-1.62-2.44-2.76-2.44-4.36,0-2.2,1.14-3.48,3.28-3.48s3.2,1.28,3.2,3.52v.58h-2.08v-.72c0-1-.4-1.38-1.1-1.38s-1.1,.38-1.1,1.34c0,1.02,.46,1.76,1.9,3.02,1.84,1.62,2.42,2.74,2.42,4.48,0,2.28-1.16,3.56-3.32,3.56s-3.24-1.28-3.24-3.52Z"/>
        <path class="cls-6" d="M210.32,96.96h2.98l2.28,14h-2.2l-.4-2.78v.04h-2.5l-.4,2.74h-2.04l2.28-14Zm2.4,9.36l-.98-6.92h-.04l-.96,6.92h1.98Z"/>
        <path class="cls-6" d="M216.44,96.96h5.82v2h-3.62v3.9h2.84v2h-2.84v6.1h-2.2v-14Z"/>
        <path class="cls-6" d="M223.12,96.96h6v2h-3.8v3.7h3.02v2h-3.02v4.3h3.8v2h-6v-14Z"/>
        <path class="cls-6" d="M234.88,96.96h2.98l2.28,14h-2.2l-.4-2.78v.04h-2.5l-.4,2.74h-2.04l2.28-14Zm2.4,9.36l-.98-6.92h-.04l-.96,6.92h1.98Z"/>
        <path class="cls-6" d="M241,96.96h2.76l2.14,8.38h.04v-8.38h1.96v14h-2.26l-2.64-10.22h-.04v10.22h-1.96v-14Z"/>
        <path class="cls-6" d="M249.34,96.96h3.36c2.2,0,3.28,1.22,3.28,3.46v7.08c0,2.24-1.08,3.46-3.28,3.46h-3.36v-14Zm3.32,12c.7,0,1.12-.36,1.12-1.36v-7.28c0-1-.42-1.36-1.12-1.36h-1.12v10h1.12Z"/>
        <path class="cls-6" d="M18.21,121.96h2.2v14h-2.2v-14Z"/>
        <path class="cls-6" d="M21.85,121.96h2.76l2.14,8.38h.04v-8.38h1.96v14h-2.26l-2.64-10.22h-.04v10.22h-1.96v-14Z"/>
        <path class="cls-6" d="M30.19,121.96h6v2h-3.8v3.7h3.02v2h-3.02v4.3h3.8v2h-6v-14Z"/>
        <path class="cls-6" d="M37.25,121.96h5.82v2h-3.62v3.9h2.84v2h-2.84v6.1h-2.2v-14Z"/>
        <path class="cls-6" d="M43.93,121.96h5.82v2h-3.62v3.9h2.84v2h-2.84v6.1h-2.2v-14Z"/>
        <path class="cls-6" d="M50.61,121.96h2.2v14h-2.2v-14Z"/>
        <path class="cls-6" d="M54.11,132.72v-7.52c0-2.16,1.12-3.44,3.24-3.44s3.24,1.28,3.24,3.44v1.48h-2.08v-1.62c0-.92-.44-1.3-1.1-1.3s-1.1,.38-1.1,1.3v7.82c0,.92,.44,1.28,1.1,1.28s1.1-.36,1.1-1.28v-2.14h2.08v1.98c0,2.16-1.12,3.44-3.24,3.44s-3.24-1.28-3.24-3.44Z"/>
        <path class="cls-6" d="M61.71,121.96h2.2v14h-2.2v-14Z"/>
        <path class="cls-6" d="M65.35,121.96h6v2h-3.8v3.7h3.02v2h-3.02v4.3h3.8v2h-6v-14Z"/>
        <path class="cls-6" d="M72.41,121.96h2.76l2.14,8.38h.04v-8.38h1.96v14h-2.26l-2.64-10.22h-.04v10.22h-1.96v-14Z"/>
        <path class="cls-6" d="M82.47,123.96h-2.3v-2h6.8v2h-2.3v12h-2.2v-12Z"/>
        <path class="cls-6" d="M90.69,132.72v-7.52c0-2.16,1.12-3.44,3.24-3.44s3.24,1.28,3.24,3.44v1.48h-2.08v-1.62c0-.92-.44-1.3-1.1-1.3s-1.1,.38-1.1,1.3v7.82c0,.92,.44,1.28,1.1,1.28s1.1-.36,1.1-1.28v-2.14h2.08v1.98c0,2.16-1.12,3.44-3.24,3.44s-3.24-1.28-3.24-3.44Z"/>
        <path class="cls-6" d="M98.17,132.64v-7.36c0-2.24,1.18-3.52,3.34-3.52s3.34,1.28,3.34,3.52v7.36c0,2.24-1.18,3.52-3.34,3.52s-3.34-1.28-3.34-3.52Zm4.48,.14v-7.64c0-1-.44-1.38-1.14-1.38s-1.14,.38-1.14,1.38v7.64c0,1,.44,1.38,1.14,1.38s1.14-.38,1.14-1.38Z"/>
        <path class="cls-6" d="M105.97,132.64v-7.36c0-2.24,1.18-3.52,3.34-3.52s3.34,1.28,3.34,3.52v7.36c0,2.24-1.18,3.52-3.34,3.52s-3.34-1.28-3.34-3.52Zm4.48,.14v-7.64c0-1-.44-1.38-1.14-1.38s-1.14,.38-1.14,1.38v7.64c0,1,.44,1.38,1.14,1.38s1.14-.38,1.14-1.38Z"/>
        <path class="cls-6" d="M113.93,121.96h2.2v5.9l2.8-5.9h2.2l-2.62,5.14,2.66,8.86h-2.3l-1.86-6.24-.88,1.78v4.46h-2.2v-14Z"/>
        <path class="cls-6" d="M122.01,121.96h2.2v14h-2.2v-14Z"/>
        <path class="cls-6" d="M125.65,121.96h2.76l2.14,8.38h.04v-8.38h1.96v14h-2.26l-2.64-10.22h-.04v10.22h-1.96v-14Z"/>
        <path class="cls-6" d="M133.83,132.64v-7.36c0-2.24,1.12-3.52,3.28-3.52s3.28,1.28,3.28,3.52v1.2h-2.08v-1.34c0-1-.44-1.38-1.14-1.38s-1.14,.38-1.14,1.38v7.66c0,1,.44,1.36,1.14,1.36s1.14-.36,1.14-1.36v-2.74h-1.1v-2h3.18v4.58c0,2.24-1.12,3.52-3.28,3.52s-3.28-1.28-3.28-3.52Z"/>
        <path class="cls-6" d="M144.23,132.64v-.8h2.08v.96c0,1,.44,1.36,1.14,1.36s1.14-.36,1.14-1.4c0-1.16-.44-1.9-1.88-3.16-1.84-1.62-2.44-2.76-2.44-4.36,0-2.2,1.14-3.48,3.28-3.48s3.2,1.28,3.2,3.52v.58h-2.08v-.72c0-1-.4-1.38-1.1-1.38s-1.1,.38-1.1,1.34c0,1.02,.46,1.76,1.9,3.02,1.84,1.62,2.42,2.74,2.42,4.48,0,2.28-1.16,3.56-3.32,3.56s-3.24-1.28-3.24-3.52Z"/>
        <path class="cls-6" d="M153.75,130l-2.66-8.04h2.34l1.5,5.14h.04l1.5-5.14h2.14l-2.66,8.04v5.96h-2.2v-5.96Z"/>
        <path class="cls-6" d="M158.71,132.64v-.8h2.08v.96c0,1,.44,1.36,1.14,1.36s1.14-.36,1.14-1.4c0-1.16-.44-1.9-1.88-3.16-1.84-1.62-2.44-2.76-2.44-4.36,0-2.2,1.14-3.48,3.28-3.48s3.2,1.28,3.2,3.52v.58h-2.08v-.72c0-1-.4-1.38-1.1-1.38s-1.1,.38-1.1,1.34c0,1.02,.46,1.76,1.9,3.02,1.84,1.62,2.42,2.74,2.42,4.48,0,2.28-1.16,3.56-3.32,3.56s-3.24-1.28-3.24-3.52Z"/>
        <path class="cls-6" d="M168.05,123.96h-2.3v-2h6.8v2h-2.3v12h-2.2v-12Z"/>
        <path class="cls-6" d="M173.41,121.96h6v2h-3.8v3.7h3.02v2h-3.02v4.3h3.8v2h-6v-14Z"/>
        <path class="cls-6" d="M180.47,121.96h3.14l1.4,10.02h.04l1.4-10.02h3.14v14h-2.08v-10.6h-.04l-1.6,10.6h-1.84l-1.6-10.6h-.04v10.6h-1.92v-14Z"/>
        <path class="cls-6" d="M190.65,132.64v-.8h2.08v.96c0,1,.44,1.36,1.14,1.36s1.14-.36,1.14-1.4c0-1.16-.44-1.9-1.88-3.16-1.84-1.62-2.44-2.76-2.44-4.36,0-2.2,1.14-3.48,3.28-3.48s3.2,1.28,3.2,3.52v.58h-2.08v-.72c0-1-.4-1.38-1.1-1.38s-1.1,.38-1.1,1.34c0,1.02,.46,1.76,1.9,3.02,1.84,1.62,2.42,2.74,2.42,4.48,0,2.28-1.16,3.56-3.32,3.56s-3.24-1.28-3.24-3.52Z"/>
        <path class="cls-6" d="M201.27,121.96h3.32c2.28,0,3.26,1.06,3.26,3.22v.56c0,1.44-.44,2.34-1.42,2.74v.04c1.18,.4,1.64,1.44,1.64,2.92v1.2c0,2.16-1.14,3.32-3.34,3.32h-3.46v-14Zm3.06,5.7c.82,0,1.32-.36,1.32-1.48v-.78c0-1-.34-1.44-1.12-1.44h-1.06v3.7h.86Zm.4,6.3c.74,0,1.14-.34,1.14-1.38v-1.22c0-1.3-.42-1.7-1.42-1.7h-.98v4.3h1.26Z"/>
        <path class="cls-6" d="M210.85,130l-2.66-8.04h2.34l1.5,5.14h.04l1.5-5.14h2.14l-2.66,8.04v5.96h-2.2v-5.96Z"/>
        <path class="cls-6" d="M219.47,134.44c0-2,.56-3.22,2.2-4.94,1.68-1.78,2.16-2.84,2.16-4.14s-.44-1.6-1.14-1.6-1.14,.38-1.14,1.38v1.5h-2.08v-1.36c0-2.24,1.12-3.52,3.28-3.52s3.28,1.28,3.28,3.52c0,1.66-.68,3.14-2.72,5.3-1.32,1.4-1.66,2.1-1.66,3.08v.3h4.18v2h-6.36v-1.52Z"/>
        <path class="cls-6" d="M227.15,132.64v-7.36c0-2.24,1.18-3.52,3.34-3.52s3.34,1.28,3.34,3.52v7.36c0,2.24-1.18,3.52-3.34,3.52s-3.34-1.28-3.34-3.52Zm4.48,.14v-7.64c0-1-.44-1.38-1.14-1.38s-1.14,.38-1.14,1.38v7.64c0,1,.44,1.38,1.14,1.38s1.14-.38,1.14-1.38Z"/>
        <path class="cls-6" d="M234.95,132.68v-1.14h2.08v1.24c0,1,.44,1.38,1.14,1.38s1.14-.34,1.14-1.58v-1.14c0-1.3-.44-1.78-1.44-1.78h-.74v-2h.8c.82,0,1.32-.36,1.32-1.48v-1.02c0-1-.46-1.4-1.1-1.4s-1.06,.38-1.06,1.3v.92h-2.08v-.74c0-2.24,1.12-3.48,3.22-3.48s3.22,1.22,3.22,3.46v.5c0,1.5-.48,2.42-1.56,2.82v.04c1.18,.44,1.62,1.46,1.62,2.88v1.24c0,2.24-1.12,3.46-3.28,3.46s-3.28-1.24-3.28-3.48Z"/>
        <path class="cls-6" d="M242.75,132.64v-7.36c0-2.24,1.18-3.52,3.34-3.52s3.34,1.28,3.34,3.52v7.36c0,2.24-1.18,3.52-3.34,3.52s-3.34-1.28-3.34-3.52Zm4.48,.14v-7.64c0-1-.44-1.38-1.14-1.38s-1.14,.38-1.14,1.38v7.64c0,1,.44,1.38,1.14,1.38s1.14-.38,1.14-1.38Z"/>
      </g>
      <line class="cls-3" x1="31.22" y1="96.1" x2="23.34" y2="96.1"/>
      <line class="cls-3" x1="31.29" y1="111.04" x2="23.41" y2="111.04"/>
    </g>
  </g>
</svg>