<?xml version="1.0" encoding="UTF-8"?>
<svg id="Layer_2" data-name="Layer 2" xmlns="http://www.w3.org/2000/svg" xmlns:xlink="http://www.w3.org/1999/xlink" viewBox="0 0 240.95 278.8">
  <defs>
    <style>
      .cls-1 {
        fill: #bdbcbb;
      }

      .cls-2 {
        fill: #fff;
      }

      .cls-3 {
        fill: #939598;
      }

      .cls-4 {
        fill: #fdb714;
      }

      .cls-5 {
        fill: #e2e3e4;
      }

      .cls-6 {
        stroke-dasharray: 0 0 0 2.95;
      }

      .cls-6, .cls-7 {
        stroke: #939598;
      }

      .cls-6, .cls-7, .cls-8, .cls-9, .cls-10 {
        fill: none;
      }

      .cls-6, .cls-7, .cls-9 {
        stroke-linecap: round;
        stroke-linejoin: round;
        stroke-width: 1.75px;
      }

      .cls-11 {
        clip-path: url(#clippath);
      }

      .cls-9 {
        stroke: #fdb714;
        stroke-dasharray: 0 0 0 2.91;
      }

      .cls-10 {
        stroke: #fff;
        stroke-width: 2px;
      }
    </style>
    <clipPath id="clippath">
      <rect class="cls-8" y="118.93" width="153.31" height="159.87"/>
    </clipPath>
  </defs>
  <g id="Layer_2-2" data-name="Layer 2">
    <g class="cls-11">
      <g>
        <polygon class="cls-5" points="30.34 146.63 23.16 146.64 23.13 152.03 21.06 152.02 20.8 156 12.24 156.19 13.76 158.17 13.44 166.74 15.66 165.16 17.22 164.84 19.43 165.63 21.94 169.12 24.31 167.54 35.81 167.38 32.96 148.17 36.01 148.15 30.33 143.81 30.34 146.63"/>
        <polygon class="cls-5" points="15.88 165.69 13.13 167.69 12.51 168.79 12.31 169.91 13.32 170.64 16.69 170.58 18.85 170 19.09 171.07 18.9 172.47 20.96 173.49 21.39 173.97 24.14 174.07 24.23 172.86 21.73 169.85 18.94 166.08 17.21 165.35 15.88 165.69"/>
        <polygon class="cls-5" points="17.1 171.1 13.63 171.27 13.53 172.04 18.35 171.98 18.59 171.26 18.49 170.53 17.1 171.1"/>
        <polygon class="cls-5" points="14.42 174.68 14.89 173.38 20.75 173.99 18.22 172.69 13.55 172.58 14.42 174.68"/>
        <polygon class="cls-5" points="14.81 175.58 15.79 177.51 18.52 175.15 18.55 174.43 15.33 173.96 14.81 175.58"/>
        <polygon class="cls-5" points="16.08 177.95 18.19 181.21 20.95 178.82 23.78 178.69 26.13 181.81 28.12 183.13 28.87 181.67 29.55 181.29 29.49 178.07 28.16 174.27 24.08 174.71 19.04 174.31 19.02 175.61 16.08 177.95"/>
        <polygon class="cls-5" points="18.52 181.56 22.45 185.37 25.25 181.96 23.5 179.21 21.09 179.45 18.52 181.56"/>
        <polygon class="cls-5" points="22.86 185.78 30.49 190.88 30.32 187.02 28.01 184.3 25.75 182.3 22.86 185.78"/>
        <polygon class="cls-5" points="31.14 191.04 34.11 188.93 37.81 188.29 41.59 189.1 39.66 186.18 39.1 184.41 39.66 179.13 36.29 179.29 34.77 177.83 31.55 177.92 30.02 178.16 30.18 181.72 29.37 182.05 28.41 183.83 30.9 186.75 31.14 191.04"/>
        <polygon class="cls-5" points="22.37 169.53 24.51 168.07 36.42 167.99 33.66 148.83 36.81 148.74 52.02 160.35 54.05 160.65 53.29 167.1 43.72 167.97 36.35 173.49 35 177.25 29.88 177.47 28.57 173.71 24.64 173.98 24.79 172.75 22.37 169.53"/>
        <polygon class="cls-5" points="44.02 168.45 46.55 168.25 50.7 174.12 46.85 177.03 44.06 176.31 40.32 176.36 39.7 178.56 36.56 178.71 35.7 177.53 36.81 173.96 44.02 168.45"/>
        <polygon class="cls-5" points="51.18 173.82 52.95 173.78 54.56 171.38 57.24 170.9 60.09 172.64 66.19 172.82 70.92 170.9 72.69 169.37 72.83 167.37 76.11 164.05 76.98 156.72 74.81 152.18 69.28 150.83 56.47 160.83 54.66 160.65 53.87 167.59 47.34 168.24 51.18 173.82"/>
        <polygon class="cls-5" points="39.67 184.29 40.45 186.12 42.48 189.3 43.61 189.26 46.68 187.52 46.46 177.57 44.09 176.88 40.76 176.97 39.67 184.29"/>
        <polygon class="cls-5" points="47.24 187.21 49.1 186.12 49.06 178.92 47.85 176.96 47.07 177.61 47.24 187.21"/>
        <polygon class="cls-5" points="49.66 185.99 51.13 185.99 51.22 181.81 53.08 179.1 53 174.38 51.31 174.34 48.41 176.6 49.62 178.92 49.66 185.99"/>
        <polygon class="cls-5" points="51.65 185.91 54.38 186.04 57.67 189.71 59.27 190.14 60.52 189.53 62.43 189.26 63.07 186.61 65.67 184.91 68.48 184.76 73.62 175.29 73.54 173.16 71.17 171.33 66.41 173.43 60.05 173.34 57.01 171.42 54.84 171.9 53.72 173.86 53.64 179.4 51.82 181.97 51.65 185.91"/>
        <polygon class="cls-5" points="73.36 169.65 73.46 167.59 76.76 164.38 77.64 156.51 75.44 152.31 76.98 151.52 91.86 159.28 91.77 166.89 89.15 169.12 89.15 173.05 90.86 176.37 87.83 176.37 82.81 181.34 82.67 182.85 78.97 182.8 78.92 183.48 76.81 183.2 75.36 180.46 74.27 179.93 74.42 179.1 75.78 178.05 75.78 173.16 73.89 172.87 71.62 171.18 73.36 169.65"/>
        <polygon class="cls-5" points="92.39 167.17 92.52 158.93 94.24 158.98 94.04 154.41 111.98 154.57 114.55 151.97 120.08 160.84 117.05 164.41 117.05 169.87 112.28 180.14 110.64 180.86 111.16 183.71 113.21 183.71 115.98 187.75 113.75 188.03 113.18 189.07 113.12 190.56 106.45 190.44 105.77 189.41 101.1 189.14 92.54 180.33 93.39 179.8 93.62 177.73 91.57 176.53 89.7 172.83 89.8 169.4 92.39 167.17"/>
        <polygon class="cls-5" points="62.96 189.32 65.19 191.38 65.03 194.57 77.32 194.29 78.31 193.16 74.8 189.36 74.27 187.99 76.52 183.8 75 181.02 73.71 180.32 73.71 178.92 75.19 177.95 75.28 173.54 74.1 173.42 74.08 175.73 68.92 185.37 65.76 185.53 63.6 187.01 62.96 189.32"/>
        <polygon class="cls-5" points="117.82 168.74 117.65 164.64 120.4 161.43 121.14 162 122.5 166.53 129.01 171.38 127.83 172.84 123.06 168.74 117.82 168.74"/>
        <polygon class="cls-5" points="128.09 173.5 127.7 175.84 130.45 175.8 130.5 172.36 129.48 171.74 128.09 173.5"/>
        <polygon class="cls-5" points="112.8 180.61 117.86 169.34 122.89 169.36 127.34 173.24 127.04 176.44 130.5 176.44 130.85 178.35 136.44 181.7 139.88 181.88 133.33 188.92 124.33 191.7 122.09 191.7 118.12 188.3 116.54 187.64 113.5 183.15 111.49 183.18 111.25 181.12 112.8 180.61"/>
        <polygon class="cls-5" points="131.05 175.93 133.89 177.87 134.73 177.82 141.77 175.4 142.57 177.99 142.02 180.16 140.49 181.38 136.69 181.12 131.24 177.79 131.05 175.93"/>
        <polygon class="cls-5" points="142.35 175.25 143.1 177.9 142.57 180.32 140.73 181.98 133.61 189.48 128.78 190.98 126.5 193.6 126.61 200.46 128.38 201.67 143.54 185.41 146.35 177.43 146.47 174.73 145.38 174.08 142.35 175.25"/>
        <polygon class="cls-5" points="75.36 189.16 78.6 192.67 79.88 191.01 81.92 191.09 82.37 189.48 84.36 188.23 88.53 191.09 90.92 188.72 100.24 189.12 91.6 180.21 92.76 179.48 92.92 177.91 90.96 176.98 88.07 176.98 83.44 181.58 83.27 183.48 79.6 183.36 79.48 184.17 77.07 183.92 74.92 188.04 75.36 189.16"/>
        <polygon class="cls-5" points="68.92 195.13 68.83 196.86 64.91 196.78 62.51 201.42 68.16 207.6 69.55 206.43 69.5 205.21 68.54 204.77 68.54 203.92 70.7 202.55 72.62 204.01 74.75 204.04 74.71 196.75 71.35 196.59 71.3 195.05 68.92 195.13"/>
        <polygon class="cls-5" points="65.12 196.14 68.28 196.3 68.24 195.21 65.16 195.17 65.12 196.14"/>
        <polygon class="cls-5" points="72.12 195.06 72.08 196.06 75.41 196.15 75.52 204.79 72.49 204.71 70.73 203.32 69.36 204.1 69.3 204.47 69.99 204.82 70.2 206.6 68.32 208.21 68.73 209.05 70.81 207.44 71.81 207.44 72.13 208.4 73.45 208.98 77.69 205.38 77.61 202.75 78.5 200.63 81.21 198.6 81.94 191.78 80.01 191.79 77.76 194.85 72.12 195.06"/>
        <polygon class="cls-5" points="69.03 209.46 70.24 211.03 71.8 209.56 71.35 208.02 70.96 207.99 69.03 209.46"/>
        <polygon class="cls-5" points="71 211.19 78.17 211.06 79.62 213.13 79.57 214.66 80.1 215.14 83.66 215.14 84.68 213.13 86.14 213.13 86.73 213.73 88.73 213.68 89.31 220.68 92.77 220.8 92.77 221.34 102.03 225.52 102.47 226.33 104.41 226.33 104.19 223.4 100.69 221.72 100.9 219.49 102.41 215.96 105.86 215.84 102.9 206.01 102.96 201.82 107.64 194.49 107.7 193.46 106.99 193.07 107.02 191.09 106.17 191.01 105.31 189.91 91.15 189.27 88.56 191.8 84.31 189.01 82.81 189.91 81.72 199.05 79.04 201.13 78.23 202.96 78.38 205.69 73.54 209.65 72.25 209.06 72.43 209.82 71 211.19"/>
        <polygon class="cls-5" points="104.68 200.19 106.64 202 106.55 203.92 103.52 203.99 103.52 201.85 104.68 200.19"/>
        <polygon class="cls-5" points="103.56 204.58 106.54 204.52 105.77 207.12 105.02 207.77 104.1 207.77 103.44 206.02 103.56 204.58"/>
        <polygon class="cls-5" points="105.02 199.62 107.13 201.6 108.44 200.76 112.01 200.18 112.63 200.24 112.87 198.88 114.88 194.64 113.18 191.11 107.68 191.14 107.64 192.59 108.39 193.31 108.28 194.75 105.02 199.62"/>
        <polygon class="cls-5" points="113.73 190.88 115.58 194.49 113.37 199.14 113.07 200.56 124.15 207.41 127.59 202.01 125.85 200.6 125.81 193.49 127.99 191.11 124.53 192.26 121.9 192.29 117.8 188.83 116.5 188.28 114.1 188.5 113.68 189.2 113.73 190.88"/>
        <polygon class="cls-5" points="113.56 222.12 125.7 220.64 122.96 215.35 122.82 210.28 123.7 207.86 112.15 200.6 108.53 201.19 107.26 202.13 107.15 204.25 106.34 207.19 105.48 208.2 104.28 208.32 106.61 216.38 110.41 218.18 113.03 218.26 113.56 222.12"/>
        <polygon class="cls-5" points="88.5 231.36 90.71 234.43 94.12 234.64 95.33 235.3 98.9 235.35 101.99 231.02 110.59 227.16 111.35 223.78 110.34 218.9 105.85 216.35 102.85 216.56 101.35 219.87 101.4 221.38 104.93 223.09 105.15 226.83 102.1 227.01 101.35 225.74 92.91 222.13 92.66 224.9 88.66 225.02 88.5 231.36"/>
        <polygon class="cls-5" points="70.47 211.89 72.84 220.74 72.78 223.54 69.32 227.27 68.79 233.34 82.14 233.45 86.49 235.02 90.07 234.56 87.99 231.94 87.99 224.46 92.09 224.29 92.09 221.38 88.77 221.24 88.1 214.34 86.69 214.36 85.93 213.68 85.11 213.72 84.01 215.84 79.77 215.84 78.79 214.86 79.08 213.46 77.93 211.77 70.47 211.89"/>
        <polygon class="cls-5" points="111.17 227.67 113.35 229.93 113.3 232.83 113.71 234.05 116.59 230.95 116.26 227.01 114.72 225.83 113.35 218.91 110.98 218.82 112.05 223.81 111.17 227.67"/>
        <polygon class="cls-5" points="107.01 251.25 108.88 252.8 113.29 250.11 114 246.13 114 239.55 121.07 233.76 122.28 233.79 126.57 229.68 125.91 221.22 114.55 222.65 114.88 225.2 116.84 226.71 117.29 231.32 113.47 235.07 112.55 232.98 112.72 230.2 110.51 227.81 105.1 230.33 110.14 232.89 110.3 240.35 106.97 245.3 107.01 251.25"/>
        <polygon class="cls-5" points="95.53 236.66 101.77 243.7 106.56 244.92 109.76 239.88 109.52 233.22 104.31 230.54 102.35 231.42 99.44 235.86 95.4 235.82 95.53 236.66"/>
        <polygon class="cls-5" points="75.98 257.29 78.32 257.46 79.68 258.84 82.93 258.88 83.73 249.66 83.73 243.62 85.8 243.19 86.6 236.87 91.88 236.7 93.75 235.14 90.59 235.02 86.31 235.61 81.69 233.93 68.7 233.93 69.03 237.62 73.36 243.99 72.62 247.26 72.65 248.98 75.98 257.29"/>
        <polygon class="cls-5" points="84.31 249.82 85.79 250.29 85.59 254.55 87.12 254.77 90.66 251.58 94.9 252.05 96.03 249.19 101.39 244.28 94.95 236.85 94.87 235.65 94.16 235.43 92.2 237.24 87.12 237.36 86.42 243.69 84.42 244.16 84.31 249.82"/>
        <polygon class="cls-5" points="106.8 251.75 105.06 252.05 104.31 254.1 105.64 255.32 107.27 255.32 108.64 253.35 106.8 251.75"/>
        <polygon class="cls-5" points="97.44 259.68 99.57 258.04 100.57 258.09 101.77 259.59 101.66 261.1 99.62 261.85 99.62 262.43 97.37 262.32 96.83 260.67 97.44 259.68"/>
        <path class="cls-5" d="M96.08,260.82l.88-1.68,2.54-1.74,1.05-.04,1.71,1.85-.05,2.15-2,1-.12,.72-3.04,.03-.96-2.3Zm.56-11.21l-1.3,3.13-4.35-.53-3.62,3.22-2.41-.23,.19-4.46-.85-.3-.6,9.11-4.27-.04-1.29-1.52h-1.88s1.72,4.91,1.72,4.91l3.07,2.91-2.19,2.55,1.41,3.21,3.29,1.24,2.61-2.23,7.49,.05,.53-.66,3.33-.59,11.24-11.2-.04-3.53-1.21,1.55h-1.8l-2.19-1.83,1.12-2.77,1.91-.4-.17-5.69-4.24-.98-5.49,5.07Z"/>
        <polygon class="cls-5" points="142.57 223.17 141.1 226.69 138.56 231.17 134.11 231.49 132.19 233.73 132.52 240.56 129.77 243.76 130.09 249.21 132.42 251.86 135.17 251.55 137.93 249.52 137.29 246.32 143.64 235.32 142.37 233.94 143.64 231.27 145.02 231.7 145.44 230.63 144.17 225.19 143.43 222.94 142.57 223.17"/>
        <polygon class="cls-1" points="60.78 121.98 57.94 121.03 46.14 123.24 43.57 125.19 45.14 133.31 40.44 133.51 37.62 138.05 30.9 139.67 30.91 142.97 53.07 159.91 56.85 160.24 69.44 150.38 68.18 148.8 65.81 148.49 64.4 146.1 64.4 136.25 63.45 135.3 63.61 132.76 61.09 130.22 60.78 127.52 61.88 126.73 61.4 123.87 60.78 121.98"/>
        <polygon class="cls-1" points="34.38 125.31 32.82 128.8 29.19 130.55 26.2 138.64 20.37 142.14 12.19 155.64 20.22 155.47 20.54 151.51 22.58 151.51 23.15 146.1 29.66 146.1 29.82 139.12 36.6 137.53 39.44 132.93 43.84 132.77 42.42 125.31 34.38 125.31"/>
        <polygon class="cls-1" points="65.35 120.32 61.5 121.86 62.59 126.88 61.36 127.84 61.67 129.99 64.21 132.45 64.03 135.09 64.8 135.78 65.71 135.64 65.84 133.04 66.66 133.08 68.74 129.85 66.16 128.93 66.07 128.2 66.75 127.06 66.75 124.6 66.16 124.28 66.07 122.91 66.66 122.14 66.61 121.14 65.35 120.32"/>
        <polygon class="cls-1" points="65.08 136.27 66.16 136.08 66.48 133.58 67.02 133.58 69.24 129.93 74.72 131.53 76.22 133.85 81.6 136.32 84.39 135.13 84.13 133.95 82.89 132.77 83.03 131.94 85.03 130.26 88.97 130.26 90.46 132.26 93.63 132.72 94.03 158.39 91.68 158.3 77.48 150.91 75.95 151.78 70.11 150.33 68.52 148.22 66.22 147.91 65.03 145.81 65.08 136.27"/>
        <polygon class="cls-1" points="94.2 132.81 96.06 132.86 99.68 133.86 101.39 133.91 103.52 132.12 104.52 132.12 106.33 133.13 108.61 133.13 109.01 133.09 110.47 137.27 110.87 138.6 111.27 140.61 110.58 141.11 109.4 140.52 108.05 136.09 106.83 136 106.73 137.51 107.54 140.11 114.06 148.18 114.2 151.65 112.3 153.84 94.47 153.64 94.2 132.81"/>
      </g>
    </g>
    <g>
      <rect class="cls-4" x="73.4" y="0" width="134.99" height="35.13"/>
      <g>
        <path class="cls-2" d="M85.21,6.58h3.52V25.78h5.79v3.2h-9.31V6.58Z"/>
        <path class="cls-2" d="M96.22,6.58h3.52V28.98h-3.52V6.58Z"/>
        <path class="cls-2" d="M102.11,23.66V11.89c0-3.58,1.79-5.63,5.25-5.63s5.25,2.05,5.25,5.63v1.92h-3.33v-2.14c0-1.6-.7-2.21-1.82-2.21s-1.82,.61-1.82,2.21v12.25c0,1.6,.7,2.18,1.82,2.18s1.82-.58,1.82-2.18v-4.38h-1.76v-3.2h5.09v7.33c0,3.58-1.79,5.63-5.25,5.63s-5.25-2.05-5.25-5.63Z"/>
        <path class="cls-2" d="M114.88,6.58h3.52V15.7h3.78V6.58h3.52V28.98h-3.52v-10.08h-3.78v10.08h-3.52V6.58Z"/>
        <path class="cls-2" d="M131.07,9.78h-3.68v-3.2h10.88v3.2h-3.68V28.98h-3.52V9.78Z"/>
        <path class="cls-2" d="M139.36,23.66v-1.28h3.33v1.54c0,1.6,.7,2.18,1.82,2.18s1.82-.58,1.82-2.24c0-1.86-.7-3.04-3.01-5.06-2.94-2.59-3.9-4.42-3.9-6.98,0-3.52,1.82-5.57,5.25-5.57s5.12,2.05,5.12,5.63v.93h-3.33v-1.15c0-1.6-.64-2.21-1.76-2.21s-1.76,.61-1.76,2.14c0,1.63,.74,2.82,3.04,4.83,2.94,2.59,3.87,4.38,3.87,7.17,0,3.65-1.86,5.7-5.31,5.7s-5.18-2.05-5.18-5.63Z"/>
        <path class="cls-2" d="M156.73,23.66V11.89c0-3.58,1.89-5.63,5.34-5.63s5.34,2.05,5.34,5.63v11.78c0,3.58-1.89,5.63-5.34,5.63s-5.34-2.05-5.34-5.63Zm7.17,.22V11.67c0-1.6-.7-2.21-1.82-2.21s-1.82,.61-1.82,2.21v12.22c0,1.6,.7,2.21,1.82,2.21s1.82-.61,1.82-2.21Z"/>
        <path class="cls-2" d="M169.66,23.66V6.58h3.52V23.92c0,1.6,.67,2.18,1.79,2.18s1.79-.58,1.79-2.18V6.58h3.39V23.66c0,3.58-1.79,5.63-5.25,5.63s-5.25-2.05-5.25-5.63Z"/>
        <path class="cls-2" d="M185.41,9.78h-3.68v-3.2h10.88v3.2h-3.68V28.98h-3.52V9.78Z"/>
        <path class="cls-2" d="M193.18,13.39h3.39v3.39h-3.39v-3.39Zm0,12.19h3.39v3.39h-3.39v-3.39Z"/>
      </g>
    </g>
    <g>
      <path class="cls-3" d="M42.86,62.28v-11.58c0-3.78,1.73-5.82,5.38-5.82,3.46,0,5.25,2.05,5.25,5.63v.42h-3.33v-.64c0-1.6-.7-2.21-1.82-2.21-1.25,0-1.95,.61-1.95,2.75v4.29h.06c.61-1.28,1.63-1.95,3.2-1.95,2.59,0,3.9,1.82,3.9,5.12v4c0,3.58-1.89,5.63-5.34,5.63s-5.34-2.05-5.34-5.63Zm7.17,.26v-3.97c0-1.5-.61-2.21-1.82-2.21s-1.82,.7-1.82,2.21v3.97c0,1.47,.61,2.18,1.82,2.18s1.82-.7,1.82-2.18Z"/>
      <path class="cls-3" d="M62.7,48.39h-7.1v-3.2h10.56v3.07l-5.5,19.33h-3.58l5.63-19.2Z"/>
      <path class="cls-3" d="M68.53,62.28v-1.76h3.33v2.02c0,1.6,.71,2.18,1.82,2.18s1.82-.58,1.82-2.18v-5.02c0-1.6-.7-2.21-1.82-2.21s-1.82,.61-1.82,2.21v.19h-3.33l.64-12.51h9.28v3.2h-6.14l-.29,5.34h.06c.64-1.06,1.63-1.63,3.04-1.63,2.59,0,3.9,1.82,3.9,5.12v5.06c0,3.58-1.79,5.63-5.25,5.63s-5.25-2.05-5.25-5.63Z"/>
      <path class="cls-3" d="M86.54,45.19h5.02l2.24,16.03h.06l2.24-16.03h5.02v22.4h-3.33v-16.96h-.06l-2.56,16.96h-2.94l-2.56-16.96h-.06v16.96h-3.07v-22.4Z"/>
      <path class="cls-3" d="M103.76,45.19h3.52v22.4h-3.52v-22.4Z"/>
      <path class="cls-3" d="M109.9,45.19h3.52v19.2h5.79v3.2h-9.31v-22.4Z"/>
      <path class="cls-3" d="M120.91,45.19h3.52v19.2h5.79v3.2h-9.31v-22.4Z"/>
      <path class="cls-3" d="M131.92,45.19h3.52v22.4h-3.52v-22.4Z"/>
      <path class="cls-3" d="M137.81,62.28v-11.78c0-3.58,1.89-5.63,5.34-5.63s5.34,2.05,5.34,5.63v11.78c0,3.58-1.89,5.63-5.34,5.63s-5.34-2.05-5.34-5.63Zm7.17,.22v-12.22c0-1.6-.7-2.21-1.82-2.21s-1.82,.61-1.82,2.21v12.22c0,1.6,.7,2.21,1.82,2.21s1.82-.61,1.82-2.21Z"/>
      <path class="cls-3" d="M150.86,45.19h4.42l3.42,13.41h.06v-13.41h3.14v22.4h-3.62l-4.22-16.35h-.06v16.35h-3.14v-22.4Z"/>
      <path class="cls-3" d="M169.65,45.19h5.18c3.52,0,5.25,1.95,5.25,5.54v2.21c0,3.58-1.73,5.54-5.25,5.54h-1.66v9.12h-3.52v-22.4Zm5.18,10.08c1.12,0,1.73-.51,1.73-2.11v-2.66c0-1.6-.61-2.11-1.73-2.11h-1.66v6.88h1.66Z"/>
      <path class="cls-3" d="M182,45.19h9.6v3.2h-6.08v5.92h4.83v3.2h-4.83v6.88h6.08v3.2h-9.6v-22.4Z"/>
      <path class="cls-3" d="M193.36,62.28v-11.78c0-3.58,1.89-5.63,5.34-5.63s5.34,2.05,5.34,5.63v11.78c0,3.58-1.89,5.63-5.34,5.63s-5.34-2.05-5.34-5.63Zm7.17,.22v-12.22c0-1.6-.7-2.21-1.82-2.21s-1.82,.61-1.82,2.21v12.22c0,1.6,.71,2.21,1.82,2.21s1.82-.61,1.82-2.21Z"/>
      <path class="cls-3" d="M206.41,45.19h5.18c3.52,0,5.25,1.95,5.25,5.54v2.21c0,3.58-1.73,5.54-5.25,5.54h-1.66v9.12h-3.52v-22.4Zm5.18,10.08c1.12,0,1.73-.51,1.73-2.11v-2.66c0-1.6-.61-2.11-1.73-2.11h-1.66v6.88h1.66Z"/>
      <path class="cls-3" d="M218.77,45.19h3.52v19.2h5.79v3.2h-9.31v-22.4Z"/>
      <path class="cls-3" d="M229.77,45.19h9.6v3.2h-6.08v5.92h4.83v3.2h-4.83v6.88h6.08v3.2h-9.6v-22.4Z"/>
      <path class="cls-1" d="M54.88,91.44v-1h2.6v1.2c0,1.25,.55,1.7,1.42,1.7s1.42-.45,1.42-1.75c0-1.45-.55-2.37-2.35-3.95-2.3-2.02-3.05-3.45-3.05-5.45,0-2.75,1.42-4.35,4.1-4.35s4,1.6,4,4.4v.72h-2.6v-.9c0-1.25-.5-1.72-1.38-1.72s-1.37,.47-1.37,1.67c0,1.27,.57,2.2,2.37,3.77,2.3,2.02,3.02,3.42,3.02,5.6,0,2.85-1.45,4.45-4.15,4.45s-4.05-1.6-4.05-4.4Z"/>
      <path class="cls-1" d="M66.81,80.59h-2.88v-2.5h8.5v2.5h-2.88v15h-2.75v-15Z"/>
      <path class="cls-1" d="M73.76,78.09h2.75v17.5h-2.75v-17.5Z"/>
      <path class="cls-1" d="M78.56,78.09h2.75v15h4.52v2.5h-7.27v-17.5Z"/>
      <path class="cls-1" d="M87.16,78.09h2.75v15h4.52v2.5h-7.27v-17.5Z"/>
      <path class="cls-1" d="M99.76,78.09h2.75v15h4.52v2.5h-7.27v-17.5Z"/>
      <path class="cls-1" d="M108.36,78.09h2.75v17.5h-2.75v-17.5Z"/>
      <path class="cls-1" d="M112.43,78.09h2.77l1.8,13.57h.05l1.8-13.57h2.52l-2.65,17.5h-3.65l-2.65-17.5Z"/>
      <path class="cls-1" d="M122.71,78.09h7.5v2.5h-4.75v4.62h3.78v2.5h-3.78v5.37h4.75v2.5h-7.5v-17.5Z"/>
      <path class="cls-1" d="M135.78,78.09h2.75v17.5h-2.75v-17.5Z"/>
      <path class="cls-1" d="M140.58,78.09h3.45l2.67,10.47h.05v-10.47h2.45v17.5h-2.82l-3.3-12.77h-.05v12.77h-2.45v-17.5Z"/>
      <path class="cls-1" d="M157.41,80.59h-2.87v-2.5h8.5v2.5h-2.88v15h-2.75v-15Z"/>
      <path class="cls-1" d="M164.36,78.09h2.75v7.12h2.95v-7.12h2.75v17.5h-2.75v-7.87h-2.95v7.87h-2.75v-17.5Z"/>
      <path class="cls-1" d="M174.86,78.09h7.5v2.5h-4.75v4.62h3.77v2.5h-3.77v5.37h4.75v2.5h-7.5v-17.5Z"/>
      <path class="cls-1" d="M187.93,78.09h4.2c2.75,0,4.1,1.52,4.1,4.32v8.85c0,2.8-1.35,4.32-4.1,4.32h-4.2v-17.5Zm4.15,15c.87,0,1.4-.45,1.4-1.7v-9.1c0-1.25-.52-1.7-1.4-1.7h-1.4v12.5h1.4Z"/>
      <path class="cls-1" d="M200.16,78.09h3.72l2.85,17.5h-2.75l-.5-3.47v.05h-3.12l-.5,3.42h-2.55l2.85-17.5Zm3,11.7l-1.22-8.65h-.05l-1.2,8.65h2.47Z"/>
      <path class="cls-1" d="M208.06,78.09h4.07c2.85,0,4.07,1.32,4.07,4.02v1.07c0,1.8-.57,2.95-1.8,3.45v.05c1.38,.42,1.82,1.72,1.82,3.7v3.07c0,.85,.03,1.47,.3,2.12h-2.8c-.15-.45-.25-.72-.25-2.15v-3.2c0-1.62-.47-2.15-1.72-2.15h-.95v7.5h-2.75v-17.5Zm3.75,7.5c1.02,0,1.65-.45,1.65-1.85v-1.35c0-1.25-.42-1.8-1.4-1.8h-1.25v5h1Z"/>
      <path class="cls-1" d="M218.13,78.09h2.75v7.37l3.5-7.37h2.75l-3.27,6.42,3.32,11.07h-2.87l-2.32-7.8-1.1,2.22v5.57h-2.75v-17.5Z"/>
    </g>
    <rect class="cls-4" x="55.65" y="125.81" width="53.62" height="29.5"/>
    <g>
      <g>
        <path class="cls-3" d="M115.16,145.74v-9.2c0-2.8,1.47-4.4,4.17-4.4s4.17,1.6,4.17,4.4v9.2c0,2.8-1.47,4.4-4.17,4.4s-4.17-1.6-4.17-4.4Zm5.6,.17v-9.55c0-1.25-.55-1.72-1.42-1.72s-1.42,.47-1.42,1.72v9.55c0,1.25,.55,1.72,1.42,1.72s1.42-.47,1.42-1.72Z"/>
        <path class="cls-3" d="M125.36,132.39h7.27v2.5h-4.52v4.87h3.55v2.5h-3.55v7.62h-2.75v-17.5Z"/>
        <path class="cls-3" d="M140.11,134.89h-2.88v-2.5h8.5v2.5h-2.87v15h-2.75v-15Z"/>
        <path class="cls-3" d="M147.06,132.39h2.75v7.12h2.95v-7.12h2.75v17.5h-2.75v-7.87h-2.95v7.87h-2.75v-17.5Z"/>
        <path class="cls-3" d="M157.56,132.39h7.5v2.5h-4.75v4.62h3.77v2.5h-3.77v5.37h4.75v2.5h-7.5v-17.5Z"/>
        <path class="cls-3" d="M166.63,132.39h3.92l1.75,12.52h.05l1.75-12.52h3.92v17.5h-2.6v-13.25h-.05l-2,13.25h-2.3l-2-13.25h-.05v13.25h-2.4v-17.5Z"/>
        <path class="cls-3" d="M186.21,132.39h3.72l2.85,17.5h-2.75l-.5-3.47v.05h-3.12l-.5,3.42h-2.55l2.85-17.5Zm3,11.7l-1.22-8.65h-.05l-1.2,8.65h2.47Z"/>
        <path class="cls-3" d="M194.11,132.39h4.07c2.85,0,4.07,1.32,4.07,4.02v1.07c0,1.8-.58,2.95-1.8,3.45v.05c1.38,.42,1.83,1.72,1.83,3.7v3.07c0,.85,.02,1.47,.3,2.12h-2.8c-.15-.45-.25-.72-.25-2.15v-3.2c0-1.62-.47-2.15-1.72-2.15h-.95v7.5h-2.75v-17.5Zm3.75,7.5c1.02,0,1.65-.45,1.65-1.85v-1.35c0-1.25-.42-1.8-1.4-1.8h-1.25v5h1Z"/>
        <path class="cls-3" d="M204.18,132.39h7.5v2.5h-4.75v4.62h3.77v2.5h-3.77v5.37h4.75v2.5h-7.5v-17.5Z"/>
        <path class="cls-3" d="M217.26,132.39h2.75v17.5h-2.75v-17.5Z"/>
        <path class="cls-3" d="M222.06,132.39h3.45l2.67,10.47h.05v-10.47h2.45v17.5h-2.82l-3.3-12.77h-.05v12.77h-2.45v-17.5Z"/>
        <path class="cls-3" d="M63.65,177.74v-1h2.6v1.2c0,1.25,.55,1.7,1.42,1.7s1.42-.45,1.42-1.75c0-1.45-.55-2.37-2.35-3.95-2.3-2.02-3.05-3.45-3.05-5.45,0-2.75,1.42-4.35,4.1-4.35s4,1.6,4,4.4v.72h-2.6v-.9c0-1.25-.5-1.72-1.38-1.72s-1.38,.47-1.38,1.67c0,1.27,.58,2.2,2.38,3.77,2.3,2.02,3.02,3.42,3.02,5.6,0,2.85-1.45,4.45-4.15,4.45s-4.05-1.6-4.05-4.4Z"/>
        <path class="cls-3" d="M73.32,177.74v-13.35h2.75v13.55c0,1.25,.52,1.7,1.4,1.7s1.4-.45,1.4-1.7v-13.55h2.65v13.35c0,2.8-1.4,4.4-4.1,4.4s-4.1-1.6-4.1-4.4Z"/>
        <path class="cls-3" d="M83.47,164.39h4.15c2.85,0,4.07,1.32,4.07,4.02v.7c0,1.8-.55,2.92-1.77,3.42v.05c1.47,.5,2.05,1.8,2.05,3.65v1.5c0,2.7-1.42,4.15-4.17,4.15h-4.32v-17.5Zm3.82,7.12c1.03,0,1.65-.45,1.65-1.85v-.97c0-1.25-.42-1.8-1.4-1.8h-1.32v4.62h1.07Zm.5,7.87c.92,0,1.42-.42,1.42-1.72v-1.52c0-1.62-.52-2.12-1.77-2.12h-1.22v5.37h1.57Z"/>
        <path class="cls-3" d="M93.17,171.89h5.5v2.5h-5.5v-2.5Z"/>
        <path class="cls-3" d="M99.85,177.74v-1h2.6v1.2c0,1.25,.55,1.7,1.42,1.7s1.42-.45,1.42-1.75c0-1.45-.55-2.37-2.35-3.95-2.3-2.02-3.05-3.45-3.05-5.45,0-2.75,1.42-4.35,4.1-4.35s4,1.6,4,4.4v.72h-2.6v-.9c0-1.25-.5-1.72-1.38-1.72s-1.38,.47-1.38,1.67c0,1.27,.58,2.2,2.38,3.77,2.3,2.02,3.02,3.42,3.02,5.6,0,2.85-1.45,4.45-4.15,4.45s-4.05-1.6-4.05-4.4Z"/>
        <path class="cls-3" d="M111.67,164.39h3.72l2.85,17.5h-2.75l-.5-3.47v.05h-3.12l-.5,3.42h-2.55l2.85-17.5Zm3,11.7l-1.22-8.65h-.05l-1.2,8.65h2.47Z"/>
        <path class="cls-3" d="M119.57,164.39h2.75v7.12h2.95v-7.12h2.75v17.5h-2.75v-7.87h-2.95v7.87h-2.75v-17.5Z"/>
        <path class="cls-3" d="M132.2,164.39h3.72l2.85,17.5h-2.75l-.5-3.47v.05h-3.12l-.5,3.42h-2.55l2.85-17.5Zm3,11.7l-1.22-8.65h-.05l-1.2,8.65h2.47Z"/>
        <path class="cls-3" d="M140.1,164.39h4.07c2.85,0,4.07,1.32,4.07,4.02v1.07c0,1.8-.58,2.95-1.8,3.45v.05c1.38,.42,1.83,1.72,1.83,3.7v3.07c0,.85,.02,1.47,.3,2.12h-2.8c-.15-.45-.25-.72-.25-2.15v-3.2c0-1.62-.47-2.15-1.72-2.15h-.95v7.5h-2.75v-17.5Zm3.75,7.5c1.02,0,1.65-.45,1.65-1.85v-1.35c0-1.25-.42-1.8-1.4-1.8h-1.25v5h1Z"/>
        <path class="cls-3" d="M152.3,164.39h3.72l2.85,17.5h-2.75l-.5-3.47v.05h-3.12l-.5,3.42h-2.55l2.85-17.5Zm3,11.7l-1.22-8.65h-.05l-1.2,8.65h2.47Z"/>
        <path class="cls-3" d="M160.2,164.39h3.45l2.67,10.47h.05v-10.47h2.45v17.5h-2.82l-3.3-12.77h-.05v12.77h-2.45v-17.5Z"/>
        <path class="cls-3" d="M177,164.39h3.72l2.85,17.5h-2.75l-.5-3.47v.05h-3.12l-.5,3.42h-2.55l2.85-17.5Zm3,11.7l-1.22-8.65h-.05l-1.2,8.65h2.47Z"/>
        <path class="cls-3" d="M184.9,164.39h7.27v2.5h-4.52v4.87h3.55v2.5h-3.55v7.62h-2.75v-17.5Z"/>
        <path class="cls-3" d="M193.5,164.39h4.07c2.85,0,4.07,1.32,4.07,4.02v1.07c0,1.8-.58,2.95-1.8,3.45v.05c1.38,.42,1.83,1.72,1.83,3.7v3.07c0,.85,.02,1.47,.3,2.12h-2.8c-.15-.45-.25-.72-.25-2.15v-3.2c0-1.62-.47-2.15-1.72-2.15h-.95v7.5h-2.75v-17.5Zm3.75,7.5c1.02,0,1.65-.45,1.65-1.85v-1.35c0-1.25-.42-1.8-1.4-1.8h-1.25v5h1Z"/>
        <path class="cls-3" d="M203.57,164.39h2.75v17.5h-2.75v-17.5Z"/>
        <path class="cls-3" d="M208.2,177.84v-9.4c0-2.7,1.4-4.3,4.05-4.3s4.05,1.6,4.05,4.3v1.85h-2.6v-2.02c0-1.15-.55-1.62-1.38-1.62s-1.37,.47-1.37,1.62v9.77c0,1.15,.55,1.6,1.37,1.6s1.38-.45,1.38-1.6v-2.67h2.6v2.47c0,2.7-1.4,4.3-4.05,4.3s-4.05-1.6-4.05-4.3Z"/>
        <path class="cls-3" d="M220.07,164.39h3.72l2.85,17.5h-2.75l-.5-3.47v.05h-3.12l-.5,3.42h-2.55l2.85-17.5Zm3,11.7l-1.22-8.65h-.05l-1.2,8.65h2.47Z"/>
      </g>
      <g>
        <path class="cls-10" d="M115.16,145.74v-9.2c0-2.8,1.47-4.4,4.17-4.4s4.17,1.6,4.17,4.4v9.2c0,2.8-1.47,4.4-4.17,4.4s-4.17-1.6-4.17-4.4Zm5.6,.17v-9.55c0-1.25-.55-1.72-1.42-1.72s-1.42,.47-1.42,1.72v9.55c0,1.25,.55,1.72,1.42,1.72s1.42-.47,1.42-1.72Z"/>
        <path class="cls-10" d="M125.36,132.39h7.27v2.5h-4.52v4.87h3.55v2.5h-3.55v7.62h-2.75v-17.5Z"/>
        <path class="cls-10" d="M140.11,134.89h-2.88v-2.5h8.5v2.5h-2.87v15h-2.75v-15Z"/>
        <path class="cls-10" d="M147.06,132.39h2.75v7.12h2.95v-7.12h2.75v17.5h-2.75v-7.87h-2.95v7.87h-2.75v-17.5Z"/>
        <path class="cls-10" d="M157.56,132.39h7.5v2.5h-4.75v4.62h3.77v2.5h-3.77v5.37h4.75v2.5h-7.5v-17.5Z"/>
        <path class="cls-10" d="M166.63,132.39h3.92l1.75,12.52h.05l1.75-12.52h3.92v17.5h-2.6v-13.25h-.05l-2,13.25h-2.3l-2-13.25h-.05v13.25h-2.4v-17.5Z"/>
        <path class="cls-10" d="M186.21,132.39h3.72l2.85,17.5h-2.75l-.5-3.47v.05h-3.12l-.5,3.42h-2.55l2.85-17.5Zm3,11.7l-1.22-8.65h-.05l-1.2,8.65h2.47Z"/>
        <path class="cls-10" d="M194.11,132.39h4.07c2.85,0,4.07,1.32,4.07,4.02v1.07c0,1.8-.58,2.95-1.8,3.45v.05c1.38,.42,1.83,1.72,1.83,3.7v3.07c0,.85,.02,1.47,.3,2.12h-2.8c-.15-.45-.25-.72-.25-2.15v-3.2c0-1.62-.47-2.15-1.72-2.15h-.95v7.5h-2.75v-17.5Zm3.75,7.5c1.02,0,1.65-.45,1.65-1.85v-1.35c0-1.25-.42-1.8-1.4-1.8h-1.25v5h1Z"/>
        <path class="cls-10" d="M204.18,132.39h7.5v2.5h-4.75v4.62h3.77v2.5h-3.77v5.37h4.75v2.5h-7.5v-17.5Z"/>
        <path class="cls-10" d="M217.26,132.39h2.75v17.5h-2.75v-17.5Z"/>
        <path class="cls-10" d="M222.06,132.39h3.45l2.67,10.47h.05v-10.47h2.45v17.5h-2.82l-3.3-12.77h-.05v12.77h-2.45v-17.5Z"/>
        <path class="cls-10" d="M63.65,177.74v-1h2.6v1.2c0,1.25,.55,1.7,1.42,1.7s1.42-.45,1.42-1.75c0-1.45-.55-2.37-2.35-3.95-2.3-2.02-3.05-3.45-3.05-5.45,0-2.75,1.42-4.35,4.1-4.35s4,1.6,4,4.4v.72h-2.6v-.9c0-1.25-.5-1.72-1.38-1.72s-1.38,.47-1.38,1.67c0,1.27,.58,2.2,2.38,3.77,2.3,2.02,3.02,3.42,3.02,5.6,0,2.85-1.45,4.45-4.15,4.45s-4.05-1.6-4.05-4.4Z"/>
        <path class="cls-10" d="M73.32,177.74v-13.35h2.75v13.55c0,1.25,.52,1.7,1.4,1.7s1.4-.45,1.4-1.7v-13.55h2.65v13.35c0,2.8-1.4,4.4-4.1,4.4s-4.1-1.6-4.1-4.4Z"/>
        <path class="cls-10" d="M83.47,164.39h4.15c2.85,0,4.07,1.32,4.07,4.02v.7c0,1.8-.55,2.92-1.77,3.42v.05c1.47,.5,2.05,1.8,2.05,3.65v1.5c0,2.7-1.42,4.15-4.17,4.15h-4.32v-17.5Zm3.82,7.12c1.03,0,1.65-.45,1.65-1.85v-.97c0-1.25-.42-1.8-1.4-1.8h-1.32v4.62h1.07Zm.5,7.87c.92,0,1.42-.42,1.42-1.72v-1.52c0-1.62-.52-2.12-1.77-2.12h-1.22v5.37h1.57Z"/>
        <path class="cls-10" d="M93.17,171.89h5.5v2.5h-5.5v-2.5Z"/>
        <path class="cls-10" d="M99.85,177.74v-1h2.6v1.2c0,1.25,.55,1.7,1.42,1.7s1.42-.45,1.42-1.75c0-1.45-.55-2.37-2.35-3.95-2.3-2.02-3.05-3.45-3.05-5.45,0-2.75,1.42-4.35,4.1-4.35s4,1.6,4,4.4v.72h-2.6v-.9c0-1.25-.5-1.72-1.38-1.72s-1.38,.47-1.38,1.67c0,1.27,.58,2.2,2.38,3.77,2.3,2.02,3.02,3.42,3.02,5.6,0,2.85-1.45,4.45-4.15,4.45s-4.05-1.6-4.05-4.4Z"/>
        <path class="cls-10" d="M111.67,164.39h3.72l2.85,17.5h-2.75l-.5-3.47v.05h-3.12l-.5,3.42h-2.55l2.85-17.5Zm3,11.7l-1.22-8.65h-.05l-1.2,8.65h2.47Z"/>
        <path class="cls-10" d="M119.57,164.39h2.75v7.12h2.95v-7.12h2.75v17.5h-2.75v-7.87h-2.95v7.87h-2.75v-17.5Z"/>
        <path class="cls-10" d="M132.2,164.39h3.72l2.85,17.5h-2.75l-.5-3.47v.05h-3.12l-.5,3.42h-2.55l2.85-17.5Zm3,11.7l-1.22-8.65h-.05l-1.2,8.65h2.47Z"/>
        <path class="cls-10" d="M140.1,164.39h4.07c2.85,0,4.07,1.32,4.07,4.02v1.07c0,1.8-.58,2.95-1.8,3.45v.05c1.38,.42,1.83,1.72,1.83,3.7v3.07c0,.85,.02,1.47,.3,2.12h-2.8c-.15-.45-.25-.72-.25-2.15v-3.2c0-1.62-.47-2.15-1.72-2.15h-.95v7.5h-2.75v-17.5Zm3.75,7.5c1.02,0,1.65-.45,1.65-1.85v-1.35c0-1.25-.42-1.8-1.4-1.8h-1.25v5h1Z"/>
        <path class="cls-10" d="M152.3,164.39h3.72l2.85,17.5h-2.75l-.5-3.47v.05h-3.12l-.5,3.42h-2.55l2.85-17.5Zm3,11.7l-1.22-8.65h-.05l-1.2,8.65h2.47Z"/>
        <path class="cls-10" d="M160.2,164.39h3.45l2.67,10.47h.05v-10.47h2.45v17.5h-2.82l-3.3-12.77h-.05v12.77h-2.45v-17.5Z"/>
        <path class="cls-10" d="M177,164.39h3.72l2.85,17.5h-2.75l-.5-3.47v.05h-3.12l-.5,3.42h-2.55l2.85-17.5Zm3,11.7l-1.22-8.65h-.05l-1.2,8.65h2.47Z"/>
        <path class="cls-10" d="M184.9,164.39h7.27v2.5h-4.52v4.87h3.55v2.5h-3.55v7.62h-2.75v-17.5Z"/>
        <path class="cls-10" d="M193.5,164.39h4.07c2.85,0,4.07,1.32,4.07,4.02v1.07c0,1.8-.58,2.95-1.8,3.45v.05c1.38,.42,1.83,1.72,1.83,3.7v3.07c0,.85,.02,1.47,.3,2.12h-2.8c-.15-.45-.25-.72-.25-2.15v-3.2c0-1.62-.47-2.15-1.72-2.15h-.95v7.5h-2.75v-17.5Zm3.75,7.5c1.02,0,1.65-.45,1.65-1.85v-1.35c0-1.25-.42-1.8-1.4-1.8h-1.25v5h1Z"/>
        <path class="cls-10" d="M203.57,164.39h2.75v17.5h-2.75v-17.5Z"/>
        <path class="cls-10" d="M208.2,177.84v-9.4c0-2.7,1.4-4.3,4.05-4.3s4.05,1.6,4.05,4.3v1.85h-2.6v-2.02c0-1.15-.55-1.62-1.38-1.62s-1.37,.47-1.37,1.62v9.77c0,1.15,.55,1.6,1.37,1.6s1.38-.45,1.38-1.6v-2.67h2.6v2.47c0,2.7-1.4,4.3-4.05,4.3s-4.05-1.6-4.05-4.3Z"/>
        <path class="cls-10" d="M220.07,164.39h3.72l2.85,17.5h-2.75l-.5-3.47v.05h-3.12l-.5,3.42h-2.55l2.85-17.5Zm3,11.7l-1.22-8.65h-.05l-1.2,8.65h2.47Z"/>
      </g>
      <g>
        <path class="cls-3" d="M115.16,145.74v-9.2c0-2.8,1.47-4.4,4.17-4.4s4.17,1.6,4.17,4.4v9.2c0,2.8-1.47,4.4-4.17,4.4s-4.17-1.6-4.17-4.4Zm5.6,.17v-9.55c0-1.25-.55-1.72-1.42-1.72s-1.42,.47-1.42,1.72v9.55c0,1.25,.55,1.72,1.42,1.72s1.42-.47,1.42-1.72Z"/>
        <path class="cls-3" d="M125.36,132.39h7.27v2.5h-4.52v4.87h3.55v2.5h-3.55v7.62h-2.75v-17.5Z"/>
        <path class="cls-3" d="M140.11,134.89h-2.88v-2.5h8.5v2.5h-2.87v15h-2.75v-15Z"/>
        <path class="cls-3" d="M147.06,132.39h2.75v7.12h2.95v-7.12h2.75v17.5h-2.75v-7.87h-2.95v7.87h-2.75v-17.5Z"/>
        <path class="cls-3" d="M157.56,132.39h7.5v2.5h-4.75v4.62h3.77v2.5h-3.77v5.37h4.75v2.5h-7.5v-17.5Z"/>
        <path class="cls-3" d="M166.63,132.39h3.92l1.75,12.52h.05l1.75-12.52h3.92v17.5h-2.6v-13.25h-.05l-2,13.25h-2.3l-2-13.25h-.05v13.25h-2.4v-17.5Z"/>
        <path class="cls-3" d="M186.21,132.39h3.72l2.85,17.5h-2.75l-.5-3.47v.05h-3.12l-.5,3.42h-2.55l2.85-17.5Zm3,11.7l-1.22-8.65h-.05l-1.2,8.65h2.47Z"/>
        <path class="cls-3" d="M194.11,132.39h4.07c2.85,0,4.07,1.32,4.07,4.02v1.07c0,1.8-.58,2.95-1.8,3.45v.05c1.38,.42,1.83,1.72,1.83,3.7v3.07c0,.85,.02,1.47,.3,2.12h-2.8c-.15-.45-.25-.72-.25-2.15v-3.2c0-1.62-.47-2.15-1.72-2.15h-.95v7.5h-2.75v-17.5Zm3.75,7.5c1.02,0,1.65-.45,1.65-1.85v-1.35c0-1.25-.42-1.8-1.4-1.8h-1.25v5h1Z"/>
        <path class="cls-3" d="M204.18,132.39h7.5v2.5h-4.75v4.62h3.77v2.5h-3.77v5.37h4.75v2.5h-7.5v-17.5Z"/>
        <path class="cls-3" d="M217.26,132.39h2.75v17.5h-2.75v-17.5Z"/>
        <path class="cls-3" d="M222.06,132.39h3.45l2.67,10.47h.05v-10.47h2.45v17.5h-2.82l-3.3-12.77h-.05v12.77h-2.45v-17.5Z"/>
        <path class="cls-3" d="M63.65,177.74v-1h2.6v1.2c0,1.25,.55,1.7,1.42,1.7s1.42-.45,1.42-1.75c0-1.45-.55-2.37-2.35-3.95-2.3-2.02-3.05-3.45-3.05-5.45,0-2.75,1.42-4.35,4.1-4.35s4,1.6,4,4.4v.72h-2.6v-.9c0-1.25-.5-1.72-1.38-1.72s-1.38,.47-1.38,1.67c0,1.27,.58,2.2,2.38,3.77,2.3,2.02,3.02,3.42,3.02,5.6,0,2.85-1.45,4.45-4.15,4.45s-4.05-1.6-4.05-4.4Z"/>
        <path class="cls-3" d="M73.32,177.74v-13.35h2.75v13.55c0,1.25,.52,1.7,1.4,1.7s1.4-.45,1.4-1.7v-13.55h2.65v13.35c0,2.8-1.4,4.4-4.1,4.4s-4.1-1.6-4.1-4.4Z"/>
        <path class="cls-3" d="M83.47,164.39h4.15c2.85,0,4.07,1.32,4.07,4.02v.7c0,1.8-.55,2.92-1.77,3.42v.05c1.47,.5,2.05,1.8,2.05,3.65v1.5c0,2.7-1.42,4.15-4.17,4.15h-4.32v-17.5Zm3.82,7.12c1.03,0,1.65-.45,1.65-1.85v-.97c0-1.25-.42-1.8-1.4-1.8h-1.32v4.62h1.07Zm.5,7.87c.92,0,1.42-.42,1.42-1.72v-1.52c0-1.62-.52-2.12-1.77-2.12h-1.22v5.37h1.57Z"/>
        <path class="cls-3" d="M93.17,171.89h5.5v2.5h-5.5v-2.5Z"/>
        <path class="cls-3" d="M99.85,177.74v-1h2.6v1.2c0,1.25,.55,1.7,1.42,1.7s1.42-.45,1.42-1.75c0-1.45-.55-2.37-2.35-3.95-2.3-2.02-3.05-3.45-3.05-5.45,0-2.75,1.42-4.35,4.1-4.35s4,1.6,4,4.4v.72h-2.6v-.9c0-1.25-.5-1.72-1.38-1.72s-1.38,.47-1.38,1.67c0,1.27,.58,2.2,2.38,3.77,2.3,2.02,3.02,3.42,3.02,5.6,0,2.85-1.45,4.45-4.15,4.45s-4.05-1.6-4.05-4.4Z"/>
        <path class="cls-3" d="M111.67,164.39h3.72l2.85,17.5h-2.75l-.5-3.47v.05h-3.12l-.5,3.42h-2.55l2.85-17.5Zm3,11.7l-1.22-8.65h-.05l-1.2,8.65h2.47Z"/>
        <path class="cls-3" d="M119.57,164.39h2.75v7.12h2.95v-7.12h2.75v17.5h-2.75v-7.87h-2.95v7.87h-2.75v-17.5Z"/>
        <path class="cls-3" d="M132.2,164.39h3.72l2.85,17.5h-2.75l-.5-3.47v.05h-3.12l-.5,3.42h-2.55l2.85-17.5Zm3,11.7l-1.22-8.65h-.05l-1.2,8.65h2.47Z"/>
        <path class="cls-3" d="M140.1,164.39h4.07c2.85,0,4.07,1.32,4.07,4.02v1.07c0,1.8-.58,2.95-1.8,3.45v.05c1.38,.42,1.83,1.72,1.83,3.7v3.07c0,.85,.02,1.47,.3,2.12h-2.8c-.15-.45-.25-.72-.25-2.15v-3.2c0-1.62-.47-2.15-1.72-2.15h-.95v7.5h-2.75v-17.5Zm3.75,7.5c1.02,0,1.65-.45,1.65-1.85v-1.35c0-1.25-.42-1.8-1.4-1.8h-1.25v5h1Z"/>
        <path class="cls-3" d="M152.3,164.39h3.72l2.85,17.5h-2.75l-.5-3.47v.05h-3.12l-.5,3.42h-2.55l2.85-17.5Zm3,11.7l-1.22-8.65h-.05l-1.2,8.65h2.47Z"/>
        <path class="cls-3" d="M160.2,164.39h3.45l2.67,10.47h.05v-10.47h2.45v17.5h-2.82l-3.3-12.77h-.05v12.77h-2.45v-17.5Z"/>
        <path class="cls-3" d="M177,164.39h3.72l2.85,17.5h-2.75l-.5-3.47v.05h-3.12l-.5,3.42h-2.55l2.85-17.5Zm3,11.7l-1.22-8.65h-.05l-1.2,8.65h2.47Z"/>
        <path class="cls-3" d="M184.9,164.39h7.27v2.5h-4.52v4.87h3.55v2.5h-3.55v7.62h-2.75v-17.5Z"/>
        <path class="cls-3" d="M193.5,164.39h4.07c2.85,0,4.07,1.32,4.07,4.02v1.07c0,1.8-.58,2.95-1.8,3.45v.05c1.38,.42,1.83,1.72,1.83,3.7v3.07c0,.85,.02,1.47,.3,2.12h-2.8c-.15-.45-.25-.72-.25-2.15v-3.2c0-1.62-.47-2.15-1.72-2.15h-.95v7.5h-2.75v-17.5Zm3.75,7.5c1.02,0,1.65-.45,1.65-1.85v-1.35c0-1.25-.42-1.8-1.4-1.8h-1.25v5h1Z"/>
        <path class="cls-3" d="M203.57,164.39h2.75v17.5h-2.75v-17.5Z"/>
        <path class="cls-3" d="M208.2,177.84v-9.4c0-2.7,1.4-4.3,4.05-4.3s4.05,1.6,4.05,4.3v1.85h-2.6v-2.02c0-1.15-.55-1.62-1.38-1.62s-1.37,.47-1.37,1.62v9.77c0,1.15,.55,1.6,1.37,1.6s1.38-.45,1.38-1.6v-2.67h2.6v2.47c0,2.7-1.4,4.3-4.05,4.3s-4.05-1.6-4.05-4.3Z"/>
        <path class="cls-3" d="M220.07,164.39h3.72l2.85,17.5h-2.75l-.5-3.47v.05h-3.12l-.5,3.42h-2.55l2.85-17.5Zm3,11.7l-1.22-8.65h-.05l-1.2,8.65h2.47Z"/>
      </g>
    </g>
    <g>
      <g>
        <line class="cls-7" x1="41.32" y1="110.98" x2="41.32" y2="110.98"/>
        <line class="cls-6" x1="44.27" y1="110.98" x2="128.47" y2="110.98"/>
        <line class="cls-7" x1="129.95" y1="110.98" x2="129.95" y2="110.98"/>
      </g>
      <g>
        <line class="cls-7" x1="151.45" y1="110.98" x2="151.45" y2="110.98"/>
        <line class="cls-6" x1="154.4" y1="110.98" x2="238.6" y2="110.98"/>
        <line class="cls-7" x1="240.08" y1="110.98" x2="240.08" y2="110.98"/>
      </g>
      <g>
        <path class="cls-3" d="M145.12,113.57c-.29-.09-.45-.41-.36-.7l1.43-4.42c.09-.29,.41-.45,.7-.36h0c.29,.09,.45,.41,.36,.7l-1.43,4.42c-.09,.29-.41,.45-.7,.36h0Z"/>
        <path class="cls-3" d="M142.23,113.57c-.29-.09-.45-.41-.36-.7l1.43-4.42c.09-.29,.41-.45,.7-.36h0c.29,.09,.45,.41,.36,.7l-1.43,4.42c-.09,.29-.41,.45-.7,.36h0Z"/>
        <path class="cls-3" d="M139.35,113.57c-.29-.09-.45-.41-.36-.7l1.43-4.42c.09-.29,.41-.45,.7-.36h0c.29,.09,.45,.41,.36,.7l-1.43,4.42c-.09,.29-.41,.45-.7,.36h0Z"/>
        <path class="cls-3" d="M136.46,113.57c-.29-.09-.45-.41-.36-.7l1.43-4.42c.09-.29,.41-.45,.7-.36h0c.29,.09,.45,.41,.36,.7l-1.43,4.42c-.09,.29-.41,.45-.7,.36h0Z"/>
        <path class="cls-3" d="M145.23,110.69l-.59-1.82s0,0,0,0l-.58,1.79,.59,1.82,.58-1.8Z"/>
        <path class="cls-3" d="M139.47,110.66l-.59-1.82s0,.03-.01,.04l-.57,1.76,.59,1.82,.58-1.8Z"/>
        <path class="cls-3" d="M142.35,110.66l-.59-1.82s0,.03-.01,.04l-.57,1.76,.59,1.82,.58-1.8Z"/>
      </g>
    </g>
    <g>
      <path class="cls-3" d="M142.36,196.48v-4.94c0-1.12,.44-1.53,1.54-1.53h.34v.9h-.27c-.35,0-.51,.13-.51,.63v4.94c0,.5,.16,.63,.51,.63h.27v.9h-.34c-1.1,0-1.54-.41-1.54-1.53Z"/>
      <path class="cls-3" d="M144.98,196.75c0-1,.28-1.61,1.1-2.47,.84-.89,1.08-1.42,1.08-2.07s-.22-.8-.57-.8-.57,.19-.57,.69v.75h-1.04v-.68c0-1.12,.56-1.76,1.64-1.76s1.64,.64,1.64,1.76c0,.83-.34,1.57-1.36,2.65-.66,.7-.83,1.05-.83,1.54v.15h2.09v1h-3.18v-.76Z"/>
      <path class="cls-3" d="M148.92,195.85v-3.68c0-1.12,.59-1.76,1.67-1.76s1.67,.64,1.67,1.76v3.68c0,1.12-.59,1.76-1.67,1.76s-1.67-.64-1.67-1.76Zm2.24,.07v-3.82c0-.5-.22-.69-.57-.69s-.57,.19-.57,.69v3.82c0,.5,.22,.69,.57,.69s.57-.19,.57-.69Z"/>
      <path class="cls-3" d="M152.98,196.75c0-1,.28-1.61,1.1-2.47,.84-.89,1.08-1.42,1.08-2.07s-.22-.8-.57-.8-.57,.19-.57,.69v.75h-1.04v-.68c0-1.12,.56-1.76,1.64-1.76s1.64,.64,1.64,1.76c0,.83-.34,1.57-1.36,2.65-.66,.7-.83,1.05-.83,1.54v.15h2.09v1h-3.18v-.76Z"/>
      <path class="cls-3" d="M158.54,192.17h-1.15v-.78c.93,0,1.26-.2,1.51-.88h.74v7h-1.1v-5.34Z"/>
      <path class="cls-3" d="M160.94,197.11h.27c.35,0,.51-.13,.51-.63v-4.94c0-.5-.16-.63-.51-.63h-.27v-.9h.34c1.1,0,1.54,.41,1.54,1.53v4.94c0,1.12-.44,1.53-1.54,1.53h-.34v-.9Z"/>
    </g>
    <g>
      <path class="cls-2" d="M66.44,146.92h-5.25v-2.5l5-11.82h3v11.82h1.3v2.5h-1.3v3.17h-2.75v-3.17Zm0-2.5v-6.82h-.05l-2.7,6.82h2.75Z"/>
      <path class="cls-2" d="M75.84,132.6h2.75v17.5h-2.75v-17.5Z"/>
      <path class="cls-2" d="M80.64,132.6h3.45l2.67,10.47h.05v-10.47h2.45v17.5h-2.82l-3.3-12.77h-.05v12.77h-2.45v-17.5Z"/>
      <path class="cls-2" d="M95.24,145.95v-1.37h2.6v1.57c0,1.25,.55,1.7,1.42,1.7s1.42-.45,1.42-1.7v-3.92c0-1.25-.55-1.72-1.42-1.72s-1.42,.48-1.42,1.72v.15h-2.6l.5-9.77h7.25v2.5h-4.8l-.22,4.17h.05c.5-.82,1.28-1.27,2.38-1.27,2.02,0,3.05,1.42,3.05,4v3.95c0,2.8-1.4,4.4-4.1,4.4s-4.1-1.6-4.1-4.4Z"/>
    </g>
    <g>
      <polyline class="cls-9" points="210.62 190.62 210.62 233.74 161.57 233.74"/>
      <polygon class="cls-4" points="167.37 226.58 168.56 227.86 162.24 233.74 168.56 239.61 167.37 240.89 159.67 233.74 167.37 226.58"/>
    </g>
  </g>
</svg>