<?xml version="1.0" encoding="UTF-8"?>
<svg id="Layer_2" data-name="Layer 2" xmlns="http://www.w3.org/2000/svg" viewBox="0 0 431.75 117.88">
  <defs>
    <style>
      .cls-1 {
        fill: #ffd88f;
      }

      .cls-2 {
        fill: #ffc75a;
      }

      .cls-3, .cls-4 {
        fill: #fff;
      }

      .cls-5 {
        fill: #939598;
      }

      .cls-4 {
        fill-rule: evenodd;
      }

      .cls-6 {
        fill: #fdb714;
      }

      .cls-7 {
        fill: #c79d47;
      }

      .cls-8 {
        fill: #777677;
      }

      .cls-9 {
        stroke: #777677;
      }

      .cls-9, .cls-10 {
        fill: none;
        stroke-dasharray: 0 0 0 2.91;
        stroke-linecap: round;
        stroke-linejoin: round;
        stroke-width: 1.75px;
      }

      .cls-10 {
        stroke: #fff;
      }
    </style>
  </defs>
  <g id="Layer_2-2" data-name="Layer 2">
    <g>
      <path class="cls-8" d="M139.76,101.49h1.41l.63,4.51h.02l.63-4.51h1.41v6.3h-.94v-4.77h-.02l-.72,4.77h-.83l-.72-4.77h-.02v4.77h-.86v-6.3Z"/>
      <path class="cls-8" d="M144.75,106.3v-3.31c0-1.01,.53-1.58,1.5-1.58s1.5,.58,1.5,1.58v3.31c0,1.01-.53,1.58-1.5,1.58s-1.5-.58-1.5-1.58Zm2.02,.06v-3.44c0-.45-.2-.62-.51-.62s-.51,.17-.51,.62v3.44c0,.45,.2,.62,.51,.62s.51-.17,.51-.62Z"/>
      <path class="cls-8" d="M148.65,101.49h1.51c.99,0,1.48,.55,1.48,1.56v3.19c0,1.01-.49,1.56-1.48,1.56h-1.51v-6.3Zm1.5,5.4c.31,0,.5-.16,.5-.61v-3.28c0-.45-.19-.61-.5-.61h-.5v4.5h.5Z"/>
      <path class="cls-8" d="M152.53,101.49h2.7v.9h-1.71v1.67h1.36v.9h-1.36v1.94h1.71v.9h-2.7v-6.3Z"/>
      <path class="cls-8" d="M156.02,101.49h1.47c1.03,0,1.47,.48,1.47,1.45v.39c0,.65-.21,1.06-.65,1.24v.02c.5,.15,.66,.62,.66,1.33v1.11c0,.31,0,.53,.11,.77h-1.01c-.05-.16-.09-.26-.09-.77v-1.15c0-.58-.17-.77-.62-.77h-.34v2.7h-.99v-6.3Zm1.35,2.7c.37,0,.59-.16,.59-.67v-.49c0-.45-.15-.65-.5-.65h-.45v1.8h.36Z"/>
      <path class="cls-8" d="M159.87,101.49h1.24l.96,3.77h.02v-3.77h.88v6.3h-1.02l-1.19-4.6h-.02v4.6h-.88v-6.3Z"/>
      <path class="cls-8" d="M125.57,111.49h1.47c1.03,0,1.47,.48,1.47,1.45v.39c0,.65-.21,1.06-.65,1.24v.02c.5,.15,.66,.62,.66,1.33v1.11c0,.31,0,.53,.11,.77h-1.01c-.05-.16-.09-.26-.09-.77v-1.15c0-.58-.17-.77-.62-.77h-.34v2.7h-.99v-6.3Zm1.35,2.7c.37,0,.59-.16,.59-.67v-.49c0-.45-.15-.65-.5-.65h-.45v1.8h.36Z"/>
      <path class="cls-8" d="M129.42,111.49h2.7v.9h-1.71v1.67h1.36v.9h-1.36v1.94h1.71v.9h-2.7v-6.3Z"/>
      <path class="cls-8" d="M132.92,111.49h1.24l.96,3.77h.02v-3.77h.88v6.3h-1.02l-1.19-4.6h-.02v4.6h-.88v-6.3Z"/>
      <path class="cls-8" d="M136.98,111.49h2.7v.9h-1.71v1.67h1.36v.9h-1.36v1.94h1.71v.9h-2.7v-6.3Z"/>
      <path class="cls-8" d="M140.24,111.49h.95l.44,4.84h.02l.47-4.84h1.08l.47,4.84h.02l.44-4.84h.86l-.64,6.3h-1.23l-.45-4.25h-.02l-.45,4.25h-1.31l-.64-6.3Z"/>
      <path class="cls-8" d="M146.35,111.49h1.34l1.03,6.3h-.99l-.18-1.25v.02h-1.12l-.18,1.23h-.92l1.03-6.3Zm1.08,4.21l-.44-3.11h-.02l-.43,3.11h.89Z"/>
      <path class="cls-8" d="M149.42,111.49h1.49c1.03,0,1.47,.48,1.47,1.45v.25c0,.65-.2,1.05-.64,1.23v.02c.53,.18,.74,.65,.74,1.31v.54c0,.97-.51,1.49-1.5,1.49h-1.56v-6.3Zm1.38,2.57c.37,0,.59-.16,.59-.67v-.35c0-.45-.15-.65-.5-.65h-.48v1.67h.39Zm.18,2.84c.33,0,.51-.15,.51-.62v-.55c0-.59-.19-.77-.64-.77h-.44v1.94h.57Z"/>
      <path class="cls-8" d="M153.28,111.49h.99v5.4h1.63v.9h-2.62v-6.3Z"/>
      <path class="cls-8" d="M156.6,111.49h2.7v.9h-1.71v1.67h1.36v.9h-1.36v1.94h1.71v.9h-2.7v-6.3Z"/>
      <path class="cls-8" d="M159.94,116.3v-.36h.94v.43c0,.45,.2,.61,.51,.61s.51-.16,.51-.63c0-.52-.2-.86-.85-1.42-.83-.73-1.1-1.24-1.1-1.96,0-.99,.51-1.57,1.48-1.57s1.44,.58,1.44,1.58v.26h-.94v-.32c0-.45-.18-.62-.5-.62s-.5,.17-.5,.6c0,.46,.21,.79,.85,1.36,.83,.73,1.09,1.23,1.09,2.02,0,1.03-.52,1.6-1.5,1.6s-1.46-.58-1.46-1.58Z"/>
      <path class="cls-8" d="M163.69,113.41h.95v.96h-.95v-.96Zm0,3.43h.95v.95h-.95v-.95Z"/>
    </g>
    <g>
      <path class="cls-8" d="M184.31,108.85h-1.84v-1.25c1.49,0,2.02-.32,2.42-1.41h1.18v11.2h-1.76v-8.55Z"/>
      <path class="cls-8" d="M188.12,114.74v-5.89c0-1.79,.94-2.82,2.67-2.82s2.67,1.02,2.67,2.82v5.89c0,1.79-.94,2.82-2.67,2.82s-2.67-1.02-2.67-2.82Zm3.59,.11v-6.11c0-.8-.35-1.1-.91-1.1s-.91,.3-.91,1.1v6.11c0,.8,.35,1.1,.91,1.1s.91-.3,.91-1.1Z"/>
      <path class="cls-8" d="M194.65,115.7h1.7v1.7h-1.7v-1.7Z"/>
      <path class="cls-8" d="M200.6,115.36h-3.36v-1.6l3.2-7.57h1.92v7.57h.83v1.6h-.83v2.03h-1.76v-2.03Zm0-1.6v-4.37h-.03l-1.73,4.37h1.76Z"/>
      <path class="cls-8" d="M203.96,110.62v-2.8c0-1.15,.59-1.79,1.7-1.79s1.7,.64,1.7,1.79v2.8c0,1.15-.59,1.79-1.7,1.79s-1.7-.64-1.7-1.79Zm2.27,.08v-2.96c0-.5-.22-.7-.58-.7s-.58,.21-.58,.7v2.96c0,.5,.21,.7,.58,.7s.58-.21,.58-.7Zm3.49-4.51h1.12l-4.34,11.2h-1.12l4.34-11.2Zm-.85,9.57v-2.8c0-1.15,.59-1.79,1.7-1.79s1.7,.64,1.7,1.79v2.8c0,1.15-.59,1.79-1.7,1.79s-1.7-.64-1.7-1.79Zm2.27,.08v-2.96c0-.5-.22-.7-.58-.7s-.58,.21-.58,.7v2.96c0,.5,.21,.7,.58,.7s.58-.21,.58-.7Z"/>
    </g>
    <g>
      <path class="cls-8" d="M340.49,115.36h-3.36v-1.6l3.2-7.57h1.92v7.57h.83v1.6h-.83v2.03h-1.76v-2.03Zm0-1.6v-4.37h-.03l-1.73,4.37h1.76Z"/>
      <path class="cls-8" d="M343.84,110.62v-2.8c0-1.15,.59-1.79,1.7-1.79s1.7,.64,1.7,1.79v2.8c0,1.15-.59,1.79-1.7,1.79s-1.7-.64-1.7-1.79Zm2.27,.08v-2.96c0-.5-.22-.7-.58-.7s-.58,.21-.58,.7v2.96c0,.5,.21,.7,.58,.7s.58-.21,.58-.7Zm3.49-4.51h1.12l-4.34,11.2h-1.12l4.34-11.2Zm-.85,9.57v-2.8c0-1.15,.59-1.79,1.7-1.79s1.7,.64,1.7,1.79v2.8c0,1.15-.59,1.79-1.7,1.79s-1.7-.64-1.7-1.79Zm2.27,.08v-2.96c0-.5-.22-.7-.58-.7s-.58,.21-.58,.7v2.96c0,.5,.21,.71,.58,.71s.58-.21,.58-.71Z"/>
    </g>
    <g>
      <path class="cls-8" d="M397.14,116.18c0-1.6,.45-2.58,1.76-3.95,1.34-1.42,1.73-2.27,1.73-3.31s-.35-1.28-.91-1.28-.91,.3-.91,1.1v1.2h-1.67v-1.09c0-1.79,.9-2.82,2.63-2.82s2.62,1.02,2.62,2.82c0,1.33-.54,2.51-2.18,4.24-1.06,1.12-1.33,1.68-1.33,2.46v.24h3.35v1.6h-5.09v-1.22Z"/>
      <path class="cls-8" d="M403.36,114.78v-.99c0-1.07,.32-1.86,1.15-2.29v-.03c-.74-.4-1.09-1.1-1.09-2.21v-.46c0-1.79,.98-2.77,2.69-2.77s2.69,.98,2.69,2.77v.46c0,1.1-.37,1.81-1.09,2.21v.03c.83,.43,1.15,1.22,1.15,2.29v.99c0,1.79-.98,2.77-2.75,2.77s-2.75-.98-2.75-2.77Zm3.75-.1v-1.07c0-.85-.34-1.26-.99-1.26s-.99,.42-.99,1.26v1.07c0,.85,.34,1.26,.99,1.26s.99-.42,.99-1.26Zm-.06-5.06v-.88c0-.74-.32-1.12-.93-1.12s-.93,.38-.93,1.12v.88c0,.74,.32,1.12,.93,1.12s.93-.38,.93-1.12Z"/>
      <path class="cls-8" d="M409.97,115.7h1.7v1.7h-1.7v-1.7Z"/>
      <path class="cls-8" d="M412.95,116.18c0-1.6,.45-2.58,1.76-3.95,1.34-1.42,1.73-2.27,1.73-3.31s-.35-1.28-.91-1.28-.91,.3-.91,1.1v1.2h-1.67v-1.09c0-1.79,.9-2.82,2.62-2.82s2.62,1.02,2.62,2.82c0,1.33-.54,2.51-2.18,4.24-1.06,1.12-1.33,1.68-1.33,2.46v.24h3.34v1.6h-5.09v-1.22Z"/>
      <path class="cls-8" d="M419.28,110.62v-2.8c0-1.15,.59-1.79,1.7-1.79s1.7,.64,1.7,1.79v2.8c0,1.15-.59,1.79-1.7,1.79s-1.7-.64-1.7-1.79Zm2.27,.08v-2.96c0-.5-.22-.7-.58-.7s-.58,.21-.58,.7v2.96c0,.5,.21,.7,.58,.7s.58-.21,.58-.7Zm3.49-4.51h1.12l-4.34,11.2h-1.12l4.34-11.2Zm-.85,9.57v-2.8c0-1.15,.59-1.79,1.7-1.79s1.7,.64,1.7,1.79v2.8c0,1.15-.59,1.79-1.7,1.79s-1.7-.64-1.7-1.79Zm2.27,.08v-2.96c0-.5-.22-.7-.58-.7s-.58,.21-.58,.7v2.96c0,.5,.21,.71,.58,.71s.58-.21,.58-.71Z"/>
    </g>
    <g>
      <path class="cls-8" d="M54.24,3.02h2.83l1.26,9.02h.04l1.26-9.02h2.83V15.62h-1.87V6.08h-.04l-1.44,9.54h-1.66l-1.44-9.54h-.04V15.62h-1.73V3.02Z"/>
      <path class="cls-8" d="M63.78,12.63V6.01c0-2.02,1.06-3.17,3.01-3.17s3.01,1.15,3.01,3.17v6.63c0,2.02-1.06,3.17-3.01,3.17s-3.01-1.15-3.01-3.17Zm4.03,.13V5.88c0-.9-.4-1.24-1.03-1.24s-1.03,.34-1.03,1.24v6.88c0,.9,.4,1.24,1.03,1.24s1.03-.34,1.03-1.24Z"/>
      <path class="cls-8" d="M71.12,3.02h3.03c1.98,0,2.95,1.1,2.95,3.11v6.37c0,2.02-.97,3.11-2.95,3.11h-3.03V3.02Zm2.99,10.8c.63,0,1.01-.32,1.01-1.22V6.04c0-.9-.38-1.22-1.01-1.22h-1.01V13.82h1.01Z"/>
      <path class="cls-8" d="M78.43,3.02h5.4v1.8h-3.42v3.33h2.72v1.8h-2.72v3.87h3.42v1.8h-5.4V3.02Z"/>
      <path class="cls-8" d="M84.96,3.02h2.94c2.05,0,2.93,.95,2.93,2.9v.77c0,1.3-.41,2.12-1.3,2.48v.04c.99,.31,1.31,1.24,1.31,2.67v2.21c0,.61,.02,1.06,.21,1.53h-2.02c-.11-.32-.18-.52-.18-1.55v-2.3c0-1.17-.34-1.55-1.24-1.55h-.68v5.4h-1.98V3.02Zm2.7,5.4c.74,0,1.19-.32,1.19-1.33v-.97c0-.9-.31-1.3-1.01-1.3h-.9v3.6h.72Z"/>
      <path class="cls-8" d="M92.22,3.02h2.49l1.93,7.54h.04V3.02h1.77V15.62h-2.04l-2.38-9.2h-.04V15.62h-1.77V3.02Z"/>
      <path class="cls-8" d="M102.78,3.02h2.94c2.05,0,2.93,.95,2.93,2.9v.77c0,1.3-.41,2.12-1.3,2.48v.04c.99,.31,1.31,1.24,1.31,2.67v2.21c0,.61,.02,1.06,.22,1.53h-2.02c-.11-.32-.18-.52-.18-1.55v-2.3c0-1.17-.34-1.55-1.24-1.55h-.68v5.4h-1.98V3.02Zm2.7,5.4c.74,0,1.19-.32,1.19-1.33v-.97c0-.9-.31-1.3-1.01-1.3h-.9v3.6h.72Z"/>
      <path class="cls-8" d="M110.04,3.02h5.4v1.8h-3.42v3.33h2.72v1.8h-2.72v3.87h3.42v1.8h-5.4V3.02Z"/>
      <path class="cls-8" d="M116.57,3.02h2.49l1.93,7.54h.04V3.02h1.76V15.62h-2.04l-2.38-9.2h-.04V15.62h-1.76V3.02Z"/>
      <path class="cls-8" d="M124.26,3.02h5.4v1.8h-3.42v3.33h2.72v1.8h-2.72v3.87h3.42v1.8h-5.4V3.02Z"/>
      <path class="cls-8" d="M130.32,3.02h1.91l.88,9.69h.04l.94-9.69h2.16l.94,9.69h.04l.88-9.69h1.71l-1.28,12.6h-2.47l-.9-8.5h-.04l-.9,8.5h-2.63l-1.28-12.6Z"/>
      <path class="cls-8" d="M142.1,3.02h2.68l2.05,12.6h-1.98l-.36-2.5v.04h-2.25l-.36,2.47h-1.84l2.05-12.6Zm2.16,8.43l-.88-6.23h-.04l-.86,6.23h1.78Z"/>
      <path class="cls-8" d="M147.78,3.02h2.99c2.05,0,2.94,.95,2.94,2.9v.5c0,1.3-.4,2.11-1.28,2.47v.04c1.06,.36,1.48,1.3,1.48,2.63v1.08c0,1.94-1.03,2.99-3.01,2.99h-3.12V3.02Zm2.75,5.13c.74,0,1.19-.32,1.19-1.33v-.7c0-.9-.31-1.3-1.01-1.3h-.96v3.33h.77Zm.36,5.67c.67,0,1.03-.31,1.03-1.24v-1.1c0-1.17-.38-1.53-1.28-1.53h-.88v3.87h1.13Z"/>
      <path class="cls-8" d="M155.06,3.02h1.98V13.82h3.26v1.8h-5.24V3.02Z"/>
      <path class="cls-8" d="M161.25,3.02h5.4v1.8h-3.42v3.33h2.72v1.8h-2.72v3.87h3.42v1.8h-5.4V3.02Z"/>
      <path class="cls-8" d="M167.48,12.63v-.72h1.87v.86c0,.9,.4,1.22,1.03,1.22s1.03-.32,1.03-1.26c0-1.04-.4-1.71-1.69-2.84-1.66-1.46-2.2-2.48-2.2-3.93,0-1.98,1.03-3.13,2.95-3.13s2.88,1.15,2.88,3.17v.52h-1.87v-.65c0-.9-.36-1.24-.99-1.24s-.99,.34-.99,1.21c0,.92,.41,1.58,1.71,2.72,1.66,1.46,2.18,2.47,2.18,4.03,0,2.05-1.04,3.21-2.99,3.21s-2.92-1.15-2.92-3.17Z"/>
      <path class="cls-8" d="M177.39,3.02h2.92c1.98,0,2.95,1.1,2.95,3.11v1.24c0,2.02-.97,3.12-2.95,3.12h-.94v5.13h-1.98V3.02Zm2.92,5.67c.63,0,.97-.29,.97-1.19v-1.49c0-.9-.34-1.19-.97-1.19h-.94v3.87h.94Z"/>
      <path class="cls-8" d="M184.2,12.63V6.01c0-2.02,1.06-3.17,3.01-3.17s3.01,1.15,3.01,3.17v6.63c0,2.02-1.06,3.17-3.01,3.17s-3.01-1.15-3.01-3.17Zm4.03,.13V5.88c0-.9-.4-1.24-1.03-1.24s-1.03,.34-1.03,1.24v6.88c0,.9,.4,1.24,1.03,1.24s1.03-.34,1.03-1.24Z"/>
      <path class="cls-8" d="M191.07,3.02h1.91l.88,9.69h.04l.94-9.69h2.16l.94,9.69h.04l.88-9.69h1.71l-1.28,12.6h-2.47l-.9-8.5h-.04l-.9,8.5h-2.63l-1.28-12.6Z"/>
      <path class="cls-8" d="M201.57,3.02h5.4v1.8h-3.42v3.33h2.72v1.8h-2.72v3.87h3.42v1.8h-5.4V3.02Z"/>
      <path class="cls-8" d="M208.1,3.02h2.93c2.05,0,2.94,.95,2.94,2.9v.77c0,1.3-.41,2.12-1.3,2.48v.04c.99,.31,1.31,1.24,1.31,2.67v2.21c0,.61,.02,1.06,.22,1.53h-2.02c-.11-.32-.18-.52-.18-1.55v-2.3c0-1.17-.34-1.55-1.24-1.55h-.68v5.4h-1.98V3.02Zm2.7,5.4c.74,0,1.19-.32,1.19-1.33v-.97c0-.9-.31-1.3-1.01-1.3h-.9v3.6h.72Z"/>
      <path class="cls-8" d="M218.24,3.02h2.49l1.93,7.54h.04V3.02h1.77V15.62h-2.04l-2.38-9.2h-.04V15.62h-1.77V3.02Z"/>
      <path class="cls-8" d="M225.92,3.02h5.4v1.8h-3.42v3.33h2.72v1.8h-2.72v3.87h3.42v1.8h-5.4V3.02Z"/>
      <path class="cls-8" d="M233.99,3.02h2.68l2.05,12.6h-1.98l-.36-2.5v.04h-2.25l-.36,2.47h-1.84l2.05-12.6Zm2.16,8.43l-.88-6.23h-.04l-.86,6.23h1.78Z"/>
      <path class="cls-8" d="M239.67,3.02h2.93c2.05,0,2.94,.95,2.94,2.9v.77c0,1.3-.41,2.12-1.3,2.48v.04c.99,.31,1.31,1.24,1.31,2.67v2.21c0,.61,.02,1.06,.22,1.53h-2.02c-.11-.32-.18-.52-.18-1.55v-2.3c0-1.17-.34-1.55-1.24-1.55h-.68v5.4h-1.98V3.02Zm2.7,5.4c.74,0,1.19-.32,1.19-1.33v-.97c0-.9-.31-1.3-1.01-1.3h-.9v3.6h.72Z"/>
      <path class="cls-8" d="M246.93,3.02h1.98V13.82h3.26v1.8h-5.24V3.02Z"/>
      <path class="cls-8" d="M253.35,10.26l-2.39-7.24h2.11l1.35,4.63h.04l1.35-4.63h1.93l-2.39,7.24v5.37h-1.98v-5.37Z"/>
      <path class="cls-7" d="M262.14,12.01v-1.25h2.29v1.36c0,1.1,.48,1.52,1.25,1.52s1.25-.37,1.25-1.74v-1.25c0-1.43-.48-1.96-1.58-1.96h-.81v-2.2h.88c.9,0,1.45-.4,1.45-1.63v-1.12c0-1.1-.51-1.54-1.21-1.54s-1.17,.42-1.17,1.43v1.01h-2.29v-.81c0-2.46,1.23-3.83,3.54-3.83s3.54,1.34,3.54,3.81v.55c0,1.65-.53,2.66-1.72,3.1v.04c1.3,.48,1.78,1.61,1.78,3.17v1.36c0,2.46-1.23,3.81-3.61,3.81s-3.61-1.36-3.61-3.83Z"/>
      <path class="cls-7" d="M270.93,11.97V3.87c0-2.46,1.3-3.87,3.68-3.87s3.67,1.41,3.67,3.87V11.97c0,2.46-1.3,3.87-3.67,3.87s-3.68-1.41-3.68-3.87Zm4.93,.15V3.72c0-1.1-.48-1.52-1.25-1.52s-1.25,.42-1.25,1.52V12.12c0,1.1,.48,1.52,1.25,1.52s1.25-.42,1.25-1.52Z"/>
      <path class="cls-7" d="M279.78,6.31V2.46c0-1.58,.81-2.46,2.33-2.46s2.33,.88,2.33,2.46v3.85c0,1.58-.81,2.46-2.33,2.46s-2.33-.88-2.33-2.46Zm3.12,.11V2.35c0-.68-.31-.97-.79-.97s-.79,.29-.79,.97V6.42c0,.68,.29,.97,.79,.97s.79-.29,.79-.97Zm4.8-6.21h1.54l-5.96,15.4h-1.54L287.7,.22Zm-1.17,13.16v-3.85c0-1.58,.81-2.46,2.33-2.46s2.33,.88,2.33,2.46v3.85c0,1.58-.81,2.46-2.33,2.46s-2.33-.88-2.33-2.46Zm3.12,.11v-4.07c0-.68-.31-.97-.79-.97s-.79,.29-.79,.97v4.07c0,.68,.29,.97,.79,.97s.79-.29,.79-.97Z"/>
      <path class="cls-8" d="M296.08,12.63V6.01c0-2.02,1.06-3.17,3.01-3.17s3.01,1.15,3.01,3.17v6.63c0,2.02-1.06,3.17-3.01,3.17s-3.01-1.15-3.01-3.17Zm4.03,.13V5.88c0-.9-.4-1.24-1.03-1.24s-1.03,.34-1.03,1.24v6.88c0,.9,.4,1.24,1.03,1.24s1.03-.34,1.03-1.24Z"/>
      <path class="cls-8" d="M303.42,3.02h5.24v1.8h-3.26v3.51h2.56v1.8h-2.56v5.49h-1.98V3.02Z"/>
      <path class="cls-8" d="M312.5,3.02h5.4v1.8h-3.42v3.33h2.72v1.8h-2.72v3.87h3.42v1.8h-5.4V3.02Z"/>
      <path class="cls-8" d="M319.03,3.02h1.98V13.82h3.26v1.8h-5.24V3.02Z"/>
      <path class="cls-8" d="M325.22,3.02h5.4v1.8h-3.42v3.33h2.72v1.8h-2.72v3.87h3.42v1.8h-5.4V3.02Z"/>
      <path class="cls-8" d="M331.63,12.71V5.94c0-1.94,1.01-3.1,2.92-3.1s2.92,1.15,2.92,3.1v1.33h-1.87v-1.46c0-.83-.4-1.17-.99-1.17s-.99,.34-.99,1.17v7.04c0,.83,.4,1.15,.99,1.15s.99-.32,.99-1.15v-1.93h1.87v1.78c0,1.94-1.01,3.1-2.92,3.1s-2.92-1.15-2.92-3.1Z"/>
      <path class="cls-8" d="M340.2,4.82h-2.07v-1.8h6.12v1.8h-2.07V15.62h-1.98V4.82Z"/>
      <path class="cls-8" d="M345.2,3.02h2.93c2.05,0,2.94,.95,2.94,2.9v.77c0,1.3-.41,2.12-1.3,2.48v.04c.99,.31,1.31,1.24,1.31,2.67v2.21c0,.61,.02,1.06,.22,1.53h-2.02c-.11-.32-.18-.52-.18-1.55v-2.3c0-1.17-.34-1.55-1.24-1.55h-.68v5.4h-1.98V3.02Zm2.7,5.4c.74,0,1.19-.32,1.19-1.33v-.97c0-.9-.31-1.3-1.01-1.3h-.9v3.6h.72Z"/>
      <path class="cls-8" d="M352.46,3.02h1.98V15.62h-1.98V3.02Z"/>
      <path class="cls-8" d="M355.79,12.71V5.94c0-1.94,1.01-3.1,2.92-3.1s2.92,1.15,2.92,3.1v1.33h-1.87v-1.46c0-.83-.4-1.17-.99-1.17s-.99,.34-.99,1.17v7.04c0,.83,.4,1.15,.99,1.15s.99-.32,.99-1.15v-1.93h1.87v1.78c0,1.94-1.01,3.1-2.92,3.1s-2.92-1.15-2.92-3.1Z"/>
      <path class="cls-8" d="M362.81,3.02h1.98V15.62h-1.98V3.02Z"/>
      <path class="cls-8" d="M367.81,4.82h-2.07v-1.8h6.12v1.8h-2.07V15.62h-1.98V4.82Z"/>
      <path class="cls-8" d="M374.71,10.26l-2.39-7.24h2.11l1.35,4.63h.04l1.35-4.63h1.93l-2.39,7.24v5.37h-1.98v-5.37Z"/>
      <path class="cls-8" d="M378.95,15.62h-.65v-1.91h1.91v1.71l-.99,2.36h-.92l.65-2.16Z"/>
    </g>
    <rect class="cls-6" y="46.86" width="217.18" height="47.75"/>
    <rect class="cls-2" x="220.38" y="46.86" width="135.31" height="47.75"/>
    <rect class="cls-1" x="358.88" y="46.86" width="70.87" height="47.03"/>
    <g>
      <rect class="cls-7" x="174.28" y="69.02" width="43.9" height="26.59"/>
      <path class="cls-3" d="M217.18,70.02v24.59h-41.9v-24.59h41.9m2-2h-45.9v28.59h45.9v-28.59h0Z"/>
    </g>
    <g>
      <rect class="cls-7" x="334.9" y="82.71" width="21.79" height="12.9"/>
      <path class="cls-3" d="M355.69,83.71v10.9h-19.79v-10.9h19.79m2-2h-23.79v14.9h23.79v-14.9h0Z"/>
    </g>
    <g>
      <rect class="cls-7" x="393.77" y="70.14" width="36.98" height="24.69"/>
      <path class="cls-3" d="M429.75,71.14v22.69h-34.98v-22.69h34.98m2-2h-38.98v26.69h38.98v-26.69h0Z"/>
    </g>
    <g>
      <g>
        <path class="cls-3" d="M29.09,55.12h1.43v3.71h1.53v-3.71h1.43v9.1h-1.43v-4.1h-1.53v4.1h-1.43v-9.1Z"/>
        <path class="cls-3" d="M34.55,55.12h3.9v1.3h-2.47v2.41h1.96v1.3h-1.96v2.8h2.47v1.3h-3.9v-9.1Z"/>
        <path class="cls-3" d="M40.37,55.12h1.94l1.48,9.1h-1.43l-.26-1.81v.03h-1.62l-.26,1.78h-1.33l1.48-9.1Zm1.56,6.08l-.64-4.5h-.03l-.62,4.5h1.29Z"/>
        <path class="cls-3" d="M45,56.42h-1.5v-1.3h4.42v1.3h-1.5v7.8h-1.43v-7.8Z"/>
      </g>
      <path class="cls-3" d="M18.47,57.2c-.25-2.38-2-5.38-3.97-6.13,.41,2-.18,4.72-3,7.61,.02-.25,.09-1.55-.63-2.72,.2,1.32-1.68,3.64-1.95,6.04-.25,2.13,.98,3.82,2.95,5.15-.18-1.75,1.32-3.13,.95-4.59,.84,.23,1.16,.59,1.39,1.36-.11-.8-.05-3,2.48-4.06-.45,1.46-.45,3.77,.32,4.47-.25-.91,.41-1.7,1.04-2.27-.3,2.02,1.55,2.61,1.45,4.64,1.43-1.16,2.41-2.68,2.82-4.23,.54-2-.32-5.41-3.2-8.27,.32,.45,.32,2.23-.66,3h0Z"/>
    </g>
    <g>
      <line class="cls-10" x1="195.51" y1="94.61" x2="195.51" y2="83.79"/>
      <circle class="cls-3" cx="195.51" cy="83.92" r="2.63"/>
    </g>
    <line class="cls-9" x1="195.51" y1="99.92" x2="195.51" y2="94.61"/>
    <g>
      <line class="cls-10" x1="346.47" y1="94.37" x2="346.47" y2="89.79"/>
      <path class="cls-3" d="M349.1,89.92c0-1.45-1.18-2.63-2.63-2.63s-2.63,1.18-2.63,2.63,1.18,2.63,2.63,2.63,2.63-1.18,2.63-2.63Z"/>
    </g>
    <line class="cls-9" x1="346.47" y1="99.92" x2="346.47" y2="94.37"/>
    <g>
      <line class="cls-10" x1="411.85" y1="93.94" x2="411.85" y2="83.79"/>
      <path class="cls-3" d="M414.48,83.92c0-1.45-1.18-2.63-2.63-2.63s-2.63,1.18-2.63,2.63,1.18,2.63,2.63,2.63,2.63-1.18,2.63-2.63Z"/>
    </g>
    <line class="cls-9" x1="411.85" y1="99.92" x2="411.85" y2="93.94"/>
    <g>
      <g>
        <path class="cls-5" d="M322.58,34.57v-4.94c0-1.12,.44-1.53,1.54-1.53h.34v.9h-.27c-.35,0-.51,.13-.51,.63v4.94c0,.5,.16,.63,.51,.63h.27v.9h-.34c-1.1,0-1.54-.41-1.54-1.53Z"/>
        <path class="cls-5" d="M325.2,34.84c0-1,.28-1.61,1.1-2.47,.84-.89,1.08-1.42,1.08-2.07s-.22-.8-.57-.8-.57,.19-.57,.69v.75h-1.04v-.68c0-1.12,.56-1.76,1.64-1.76s1.64,.64,1.64,1.76c0,.83-.34,1.57-1.36,2.65-.66,.7-.83,1.05-.83,1.54v.15h2.09v1h-3.18v-.76Z"/>
        <path class="cls-5" d="M329.14,33.94v-3.68c0-1.12,.59-1.76,1.67-1.76s1.67,.64,1.67,1.76v3.68c0,1.12-.59,1.76-1.67,1.76s-1.67-.64-1.67-1.76Zm2.24,.07v-3.82c0-.5-.22-.69-.57-.69s-.57,.19-.57,.69v3.82c0,.5,.22,.69,.57,.69s.57-.19,.57-.69Z"/>
        <path class="cls-5" d="M333.2,34.84c0-1,.28-1.61,1.1-2.47,.84-.89,1.08-1.42,1.08-2.07s-.22-.8-.57-.8-.57,.19-.57,.69v.75h-1.04v-.68c0-1.12,.56-1.76,1.64-1.76s1.64,.64,1.64,1.76c0,.83-.34,1.57-1.36,2.65-.66,.7-.83,1.05-.83,1.54v.15h2.09v1h-3.18v-.76Z"/>
        <path class="cls-5" d="M337.14,33.94v-3.68c0-1.12,.59-1.76,1.67-1.76s1.67,.64,1.67,1.76v3.68c0,1.12-.59,1.76-1.67,1.76s-1.67-.64-1.67-1.76Zm2.24,.07v-3.82c0-.5-.22-.69-.57-.69s-.57,.19-.57,.69v3.82c0,.5,.22,.69,.57,.69s.57-.19,.57-.69Z"/>
        <path class="cls-5" d="M341.16,35.2h.27c.35,0,.51-.13,.51-.63v-4.94c0-.5-.16-.63-.51-.63h-.27v-.9h.34c1.1,0,1.54,.41,1.54,1.53v4.94c0,1.12-.44,1.53-1.54,1.53h-.34v-.9Z"/>
      </g>
      <g>
        <path class="cls-5" d="M98.41,24.25h2.66c1.82,0,2.61,.85,2.61,2.58v.45c0,1.15-.35,1.87-1.14,2.19v.03c.94,.32,1.31,1.15,1.31,2.34v.96c0,1.73-.91,2.66-2.67,2.66h-2.77v-11.2Zm2.45,4.56c.66,0,1.06-.29,1.06-1.18v-.62c0-.8-.27-1.15-.9-1.15h-.85v2.96h.69Zm.32,5.04c.59,0,.91-.27,.91-1.1v-.98c0-1.04-.34-1.36-1.14-1.36h-.78v3.44h1.01Z"/>
        <path class="cls-5" d="M104.81,32.8v-8.55h1.76v8.68c0,.8,.34,1.09,.9,1.09s.9-.29,.9-1.09v-8.68h1.7v8.55c0,1.79-.9,2.82-2.62,2.82s-2.63-1.02-2.63-2.82Z"/>
        <path class="cls-5" d="M112.68,25.85h-1.84v-1.6h5.44v1.6h-1.84v9.6h-1.76v-9.6Z"/>
        <path class="cls-5" d="M119.69,24.25h2.61c1.82,0,2.61,.85,2.61,2.58v.69c0,1.15-.37,1.89-1.15,2.21v.03c.88,.27,1.17,1.1,1.17,2.37v1.97c0,.54,.02,.94,.19,1.36h-1.79c-.1-.29-.16-.46-.16-1.38v-2.05c0-1.04-.3-1.38-1.1-1.38h-.61v4.8h-1.76v-11.2Zm2.4,4.8c.66,0,1.06-.29,1.06-1.18v-.86c0-.8-.27-1.15-.9-1.15h-.8v3.2h.64Z"/>
        <path class="cls-5" d="M126.13,24.25h4.8v1.6h-3.04v2.96h2.42v1.6h-2.42v3.44h3.04v1.6h-4.8v-11.2Z"/>
        <path class="cls-5" d="M131.94,24.25h2.51l1.12,8.02h.03l1.12-8.02h2.51v11.2h-1.66v-8.48h-.03l-1.28,8.48h-1.47l-1.28-8.48h-.03v8.48h-1.54v-11.2Z"/>
        <path class="cls-5" d="M141.91,24.25h2.38l1.83,11.2h-1.76l-.32-2.23v.03h-2l-.32,2.19h-1.63l1.82-11.2Zm1.92,7.49l-.78-5.54h-.03l-.77,5.54h1.58Z"/>
        <path class="cls-5" d="M146.97,24.25h1.76v11.2h-1.76v-11.2Z"/>
        <path class="cls-5" d="M150.04,24.25h2.21l1.71,6.71h.03v-6.71h1.57v11.2h-1.81l-2.11-8.18h-.03v8.18h-1.57v-11.2Z"/>
        <path class="cls-5" d="M159.43,24.25h1.76v9.6h2.9v1.6h-4.66v-11.2Z"/>
        <path class="cls-5" d="M164.74,32.8v-5.89c0-1.79,.94-2.82,2.67-2.82s2.67,1.02,2.67,2.82v5.89c0,1.79-.94,2.82-2.67,2.82s-2.67-1.02-2.67-2.82Zm3.58,.11v-6.11c0-.8-.35-1.1-.91-1.1s-.91,.3-.91,1.1v6.11c0,.8,.35,1.1,.91,1.1s.91-.3,.91-1.1Z"/>
        <path class="cls-5" d="M170.85,24.25h1.7l.78,8.61h.03l.83-8.61h1.92l.83,8.61h.03l.79-8.61h1.52l-1.14,11.2h-2.19l-.8-7.56h-.03l-.8,7.56h-2.34l-1.14-11.2Z"/>
        <path class="cls-5" d="M182.74,24.25h1.76v11.2h-1.76v-11.2Z"/>
        <path class="cls-5" d="M185.81,24.25h2.21l1.71,6.71h.03v-6.71h1.57v11.2h-1.81l-2.11-8.18h-.03v8.18h-1.57v-11.2Z"/>
        <path class="cls-5" d="M195.21,24.25h1.76v4.56h1.89v-4.56h1.76v11.2h-1.76v-5.04h-1.89v5.04h-1.76v-11.2Z"/>
        <path class="cls-5" d="M201.93,24.25h4.8v1.6h-3.04v2.96h2.42v1.6h-2.42v3.44h3.04v1.6h-4.8v-11.2Z"/>
        <path class="cls-5" d="M209.09,24.25h2.38l1.83,11.2h-1.76l-.32-2.23v.03h-2l-.32,2.19h-1.63l1.82-11.2Zm1.92,7.49l-.78-5.54h-.03l-.77,5.54h1.58Z"/>
        <path class="cls-5" d="M214.79,25.85h-1.84v-1.6h5.44v1.6h-1.84v9.6h-1.76v-9.6Z"/>
        <path class="cls-5" d="M219.24,24.25h1.76v11.2h-1.76v-11.2Z"/>
        <path class="cls-5" d="M222.31,24.25h2.21l1.71,6.71h.03v-6.71h1.57v11.2h-1.81l-2.11-8.18h-.03v8.18h-1.57v-11.2Z"/>
        <path class="cls-5" d="M229.01,32.8v-5.89c0-1.79,.9-2.82,2.62-2.82s2.62,1.02,2.62,2.82v.96h-1.67v-1.07c0-.8-.35-1.1-.91-1.1s-.91,.3-.91,1.1v6.13c0,.8,.35,1.09,.91,1.09s.91-.29,.91-1.09v-2.19h-.88v-1.6h2.54v3.67c0,1.79-.9,2.82-2.62,2.82s-2.62-1.02-2.62-2.82Z"/>
        <path class="cls-5" d="M239.32,24.25h2.38l1.83,11.2h-1.76l-.32-2.23v.03h-2l-.32,2.19h-1.63l1.82-11.2Zm1.92,7.49l-.78-5.54h-.03l-.77,5.54h1.58Z"/>
        <path class="cls-5" d="M244.37,24.25h2.21l1.71,6.71h.03v-6.71h1.57v11.2h-1.81l-2.11-8.18h-.03v8.18h-1.57v-11.2Z"/>
        <path class="cls-5" d="M251.21,24.25h2.69c1.76,0,2.62,.98,2.62,2.77v5.67c0,1.79-.86,2.77-2.62,2.77h-2.69v-11.2Zm2.66,9.6c.56,0,.9-.29,.9-1.09v-5.83c0-.8-.34-1.09-.9-1.09h-.9v8h.9Z"/>
        <path class="cls-5" d="M261.64,25.85h-1.84v-1.6h5.44v1.6h-1.84v9.6h-1.76v-9.6Z"/>
        <path class="cls-5" d="M266.09,24.25h2.61c1.82,0,2.61,.85,2.61,2.58v.69c0,1.15-.37,1.89-1.15,2.21v.03c.88,.27,1.17,1.1,1.17,2.37v1.97c0,.54,.02,.94,.19,1.36h-1.79c-.1-.29-.16-.46-.16-1.38v-2.05c0-1.04-.3-1.38-1.1-1.38h-.61v4.8h-1.76v-11.2Zm2.4,4.8c.66,0,1.06-.29,1.06-1.18v-.86c0-.8-.27-1.15-.9-1.15h-.8v3.2h.64Z"/>
        <path class="cls-5" d="M273.89,24.25h2.38l1.83,11.2h-1.76l-.32-2.23v.03h-2l-.32,2.19h-1.63l1.82-11.2Zm1.92,7.49l-.78-5.54h-.03l-.77,5.54h1.58Z"/>
        <path class="cls-5" d="M278.95,24.25h2.21l1.71,6.71h.03v-6.71h1.57v11.2h-1.81l-2.11-8.18h-.03v8.18h-1.57v-11.2Z"/>
        <path class="cls-5" d="M285.48,32.8v-.64h1.66v.77c0,.8,.35,1.09,.91,1.09s.91-.29,.91-1.12c0-.93-.35-1.52-1.5-2.53-1.47-1.3-1.95-2.21-1.95-3.49,0-1.76,.91-2.79,2.62-2.79s2.56,1.02,2.56,2.82v.46h-1.67v-.58c0-.8-.32-1.1-.88-1.1s-.88,.3-.88,1.07c0,.82,.37,1.41,1.52,2.42,1.47,1.3,1.94,2.19,1.94,3.59,0,1.82-.93,2.85-2.66,2.85s-2.59-1.02-2.59-2.82Z"/>
        <path class="cls-5" d="M291.73,24.25h2.59c1.76,0,2.62,.98,2.62,2.77v1.1c0,1.79-.86,2.77-2.62,2.77h-.83v4.56h-1.76v-11.2Zm2.59,5.04c.56,0,.86-.26,.86-1.06v-1.33c0-.8-.3-1.06-.86-1.06h-.83v3.44h.83Z"/>
        <path class="cls-5" d="M297.78,32.8v-5.89c0-1.79,.94-2.82,2.67-2.82s2.67,1.02,2.67,2.82v5.89c0,1.79-.94,2.82-2.67,2.82s-2.67-1.02-2.67-2.82Zm3.58,.11v-6.11c0-.8-.35-1.1-.91-1.1s-.91,.3-.91,1.1v6.11c0,.8,.35,1.1,.91,1.1s.91-.3,.91-1.1Z"/>
        <path class="cls-5" d="M304.31,24.25h2.61c1.82,0,2.61,.85,2.61,2.58v.69c0,1.15-.37,1.89-1.15,2.21v.03c.88,.27,1.17,1.1,1.17,2.37v1.97c0,.54,.02,.94,.19,1.36h-1.79c-.1-.29-.16-.46-.16-1.38v-2.05c0-1.04-.3-1.38-1.1-1.38h-.61v4.8h-1.76v-11.2Zm2.4,4.8c.66,0,1.06-.29,1.06-1.18v-.86c0-.8-.27-1.15-.9-1.15h-.8v3.2h.64Z"/>
        <path class="cls-5" d="M312.1,25.85h-1.84v-1.6h5.44v1.6h-1.84v9.6h-1.76v-9.6Z"/>
      </g>
    </g>
    <g>
      <g>
        <path class="cls-3" d="M251.04,56.42h-1.5v-1.3h4.42v1.3h-1.5v7.8h-1.43v-7.8Z"/>
        <path class="cls-3" d="M254.66,55.12h2.12c1.48,0,2.12,.69,2.12,2.09v.56c0,.94-.3,1.53-.94,1.79v.03c.71,.22,.95,.9,.95,1.92v1.6c0,.44,.01,.77,.16,1.1h-1.46c-.08-.23-.13-.38-.13-1.12v-1.66c0-.84-.25-1.12-.9-1.12h-.49v3.9h-1.43v-9.1Zm1.95,3.9c.53,0,.86-.23,.86-.96v-.7c0-.65-.22-.94-.73-.94h-.65v2.6h.52Z"/>
        <path class="cls-3" d="M261,55.12h1.94l1.48,9.1h-1.43l-.26-1.81v.03h-1.62l-.26,1.78h-1.33l1.48-9.1Zm1.56,6.08l-.64-4.5h-.03l-.62,4.5h1.29Z"/>
        <path class="cls-3" d="M265.11,55.12h1.79l1.39,5.45h.03v-5.45h1.27v9.1h-1.47l-1.72-6.64h-.03v6.64h-1.27v-9.1Z"/>
        <path class="cls-3" d="M270.41,62.07v-.52h1.35v.62c0,.65,.29,.88,.74,.88s.74-.23,.74-.91c0-.75-.29-1.23-1.22-2.05-1.2-1.05-1.59-1.79-1.59-2.83,0-1.43,.74-2.26,2.13-2.26s2.08,.83,2.08,2.29v.38h-1.35v-.47c0-.65-.26-.9-.71-.9s-.71,.25-.71,.87c0,.66,.3,1.14,1.24,1.96,1.2,1.05,1.57,1.78,1.57,2.91,0,1.48-.75,2.31-2.16,2.31s-2.11-.83-2.11-2.29Z"/>
        <path class="cls-3" d="M275.5,55.12h2.11c1.43,0,2.13,.79,2.13,2.25v.9c0,1.46-.7,2.25-2.13,2.25h-.68v3.71h-1.43v-9.1Zm2.11,4.1c.46,0,.7-.21,.7-.86v-1.08c0-.65-.25-.86-.7-.86h-.68v2.79h.68Z"/>
        <path class="cls-3" d="M280.41,62.07v-4.78c0-1.46,.77-2.29,2.17-2.29s2.17,.83,2.17,2.29v4.78c0,1.46-.77,2.29-2.17,2.29s-2.17-.83-2.17-2.29Zm2.91,.09v-4.97c0-.65-.29-.9-.74-.9s-.74,.25-.74,.9v4.97c0,.65,.29,.9,.74,.9s.74-.25,.74-.9Z"/>
        <path class="cls-3" d="M285.71,55.12h2.12c1.48,0,2.12,.69,2.12,2.09v.56c0,.94-.3,1.53-.94,1.79v.03c.71,.22,.95,.9,.95,1.92v1.6c0,.44,.01,.77,.16,1.1h-1.46c-.08-.23-.13-.38-.13-1.12v-1.66c0-.84-.25-1.12-.9-1.12h-.49v3.9h-1.43v-9.1Zm1.95,3.9c.53,0,.86-.23,.86-.96v-.7c0-.65-.22-.94-.73-.94h-.65v2.6h.52Z"/>
        <path class="cls-3" d="M292.04,56.42h-1.5v-1.3h4.42v1.3h-1.5v7.8h-1.43v-7.8Z"/>
      </g>
      <path class="cls-4" d="M230.82,57.81h10.58l-1.37-3.33h-7.84l-1.37,3.33Zm3.62,4.19h3.33c.16,0,.32,.16,.32,.32v.77c0,.16-.16,.32-.32,.32h-3.33c-.18,0-.32-.16-.32-.32v-.77c0-.16,.14-.32,.32-.32h0Zm-2.87,2.46v1.71c0,.66-.55,1.19-1.21,1.19s-1.19-.52-1.19-1.19v-1.71h-1.19v-4.99c0-.89,.71-1.62,1.57-1.66l1.6-3.78c.21-.32,.52-.57,.96-.64h7.98c.43,.07,.73,.32,.96,.64l1.6,3.78c.87,.05,1.57,.77,1.57,1.66v4.99h-1.19v1.71c0,.66-.55,1.19-1.21,1.19s-1.19-.52-1.19-1.19v-1.71h-9.07Zm10.46-4.47h-1.66c-.21,0-.36,.14-.36,.34v1.46c0,.21,.16,.36,.36,.36h1.66c.21,0,.36-.16,.36-.36v-1.46c0-.21-.16-.34-.36-.34Zm-11.88,0h1.69c.18,0,.34,.14,.34,.34v1.46c0,.21-.16,.36-.34,.36h-1.69c-.18,0-.34-.16-.34-.36v-1.46c0-.21,.16-.34,.34-.34Z"/>
    </g>
    <g>
      <g>
        <path class="cls-3" d="M376.59,55.12h3.9v1.3h-2.47v2.41h1.96v1.3h-1.96v2.8h2.47v1.3h-3.9v-9.1Z"/>
        <path class="cls-3" d="M381.3,55.12h1.43v7.8h2.35v1.3h-3.78v-9.1Z"/>
        <path class="cls-3" d="M385.78,55.12h3.9v1.3h-2.47v2.41h1.96v1.3h-1.96v2.8h2.47v1.3h-3.9v-9.1Z"/>
        <path class="cls-3" d="M390.41,62.12v-4.89c0-1.4,.73-2.24,2.11-2.24s2.11,.83,2.11,2.24v.96h-1.35v-1.05c0-.6-.29-.84-.71-.84s-.71,.25-.71,.84v5.08c0,.6,.29,.83,.71,.83s.71-.23,.71-.83v-1.39h1.35v1.29c0,1.4-.73,2.24-2.11,2.24s-2.11-.83-2.11-2.24Z"/>
        <path class="cls-3" d="M396.59,56.42h-1.5v-1.3h4.42v1.3h-1.5v7.8h-1.43v-7.8Z"/>
        <path class="cls-3" d="M400.21,55.12h2.12c1.48,0,2.12,.69,2.12,2.09v.56c0,.94-.3,1.53-.94,1.79v.03c.71,.22,.95,.9,.95,1.92v1.6c0,.44,.01,.77,.16,1.1h-1.46c-.08-.23-.13-.38-.13-1.12v-1.66c0-.84-.25-1.12-.9-1.12h-.49v3.9h-1.43v-9.1Zm1.95,3.9c.53,0,.86-.23,.86-.96v-.7c0-.65-.22-.94-.73-.94h-.65v2.6h.52Z"/>
        <path class="cls-3" d="M405.45,55.12h1.43v9.1h-1.43v-9.1Z"/>
        <path class="cls-3" d="M407.85,62.12v-4.89c0-1.4,.73-2.24,2.11-2.24s2.11,.83,2.11,2.24v.96h-1.35v-1.05c0-.6-.29-.84-.71-.84s-.71,.25-.71,.84v5.08c0,.6,.29,.83,.71,.83s.71-.23,.71-.83v-1.39h1.35v1.29c0,1.4-.73,2.24-2.11,2.24s-2.11-.83-2.11-2.24Z"/>
        <path class="cls-3" d="M412.92,55.12h1.43v9.1h-1.43v-9.1Z"/>
        <path class="cls-3" d="M416.54,56.42h-1.5v-1.3h4.42v1.3h-1.5v7.8h-1.43v-7.8Z"/>
        <path class="cls-3" d="M421.51,60.35l-1.73-5.23h1.52l.98,3.34h.03l.98-3.34h1.39l-1.73,5.23v3.87h-1.43v-3.87Z"/>
      </g>
      <path class="cls-3" d="M365.91,53.49h4.59l-1.41,4.78h2.5l-6.82,10.29,1.62-7.46h-2.71l2.23-7.61Z"/>
    </g>
  </g>
</svg>