<?xml version="1.0" encoding="UTF-8"?>
<svg id="Layer_2" data-name="Layer 2" xmlns="http://www.w3.org/2000/svg" viewBox="0 0 205.23 190.55">
  <defs>
    <style>
      .cls-1 {
        fill: #fff;
      }

      .cls-2 {
        fill: #939598;
      }

      .cls-3 {
        fill: #fdb714;
      }
    </style>
  </defs>
  <g id="Layer_2-2" data-name="Layer 2">
    <g>
      <rect class="cls-3" x="34.59" y="18.51" width="118.49" height="21.95"/>
      <g>
        <path class="cls-2" d="M7.28,.18h5.4V1.98h-3.42v3.33h2.72v1.8h-2.72v3.87h3.42v1.8H7.28V.18Z"/>
        <path class="cls-2" d="M13.99,.18h2.48l1.93,7.54h.04V.18h1.76V12.78h-2.04L15.79,3.58h-.04V12.78h-1.76V.18Z"/>
        <path class="cls-2" d="M21.86,.18h5.4V1.98h-3.42v3.33h2.72v1.8h-2.72v3.87h3.42v1.8h-5.4V.18Z"/>
        <path class="cls-2" d="M28.57,.18h2.93c2.05,0,2.94,.95,2.94,2.9v.77c0,1.3-.42,2.12-1.3,2.48v.04c.99,.31,1.31,1.24,1.31,2.66v2.21c0,.61,.02,1.06,.22,1.53h-2.02c-.11-.32-.18-.52-.18-1.55v-2.3c0-1.17-.34-1.55-1.24-1.55h-.68v5.4h-1.98V.18Zm2.7,5.4c.74,0,1.19-.32,1.19-1.33v-.97c0-.9-.31-1.3-1.01-1.3h-.9v3.6h.72Z"/>
        <path class="cls-2" d="M35.86,9.79V3.17c0-2.02,1.01-3.17,2.95-3.17s2.95,1.15,2.95,3.17v1.08h-1.87v-1.21c0-.9-.4-1.24-1.03-1.24s-1.03,.34-1.03,1.24v6.9c0,.9,.4,1.22,1.03,1.22s1.03-.32,1.03-1.22v-2.47h-.99v-1.8h2.86v4.12c0,2.02-1.01,3.17-2.95,3.17s-2.95-1.15-2.95-3.17Z"/>
        <path class="cls-2" d="M44.77,7.42L42.38,.18h2.11l1.35,4.63h.04L47.22,.18h1.93l-2.39,7.24v5.37h-1.98V7.42Z"/>
        <path class="cls-2" d="M53.29,.18h5.4V1.98h-3.42v3.33h2.72v1.8h-2.72v3.87h3.42v1.8h-5.4V.18Z"/>
        <path class="cls-2" d="M60,.18h5.24V1.98h-3.26v3.51h2.56v1.8h-2.56v5.49h-1.98V.18Z"/>
        <path class="cls-2" d="M66.37,.18h5.24V1.98h-3.26v3.51h2.56v1.8h-2.56v5.49h-1.98V.18Z"/>
        <path class="cls-2" d="M72.75,.18h1.98V12.78h-1.98V.18Z"/>
        <path class="cls-2" d="M76.25,9.87V3.1c0-1.94,1.01-3.1,2.92-3.1s2.92,1.15,2.92,3.1v1.33h-1.87v-1.46c0-.83-.4-1.17-.99-1.17s-.99,.34-.99,1.17v7.04c0,.83,.4,1.15,.99,1.15s.99-.32,.99-1.15v-1.93h1.87v1.78c0,1.94-1.01,3.1-2.92,3.1s-2.92-1.15-2.92-3.1Z"/>
        <path class="cls-2" d="M83.46,.18h1.98V12.78h-1.98V.18Z"/>
        <path class="cls-2" d="M87.09,.18h5.4V1.98h-3.42v3.33h2.72v1.8h-2.72v3.87h3.42v1.8h-5.4V.18Z"/>
        <path class="cls-2" d="M93.8,.18h2.48l1.93,7.54h.04V.18h1.76V12.78h-2.04l-2.38-9.2h-.04V12.78h-1.76V.18Z"/>
        <path class="cls-2" d="M101.54,9.87V3.1c0-1.94,1.01-3.1,2.92-3.1s2.92,1.15,2.92,3.1v1.33h-1.87v-1.46c0-.83-.4-1.17-.99-1.17s-.99,.34-.99,1.17v7.04c0,.83,.4,1.15,.99,1.15s.99-.32,.99-1.15v-1.93h1.87v1.78c0,1.94-1.01,3.1-2.92,3.1s-2.92-1.15-2.92-3.1Z"/>
        <path class="cls-2" d="M110.4,7.42L108.01,.18h2.11l1.35,4.63h.04l1.35-4.63h1.93l-2.39,7.24v5.37h-1.98V7.42Z"/>
        <path class="cls-2" d="M118.91,.18h1.98V12.78h-1.98V.18Z"/>
        <path class="cls-2" d="M122.55,.18h2.83l1.26,9.02h.04L127.93,.18h2.83V12.78h-1.87V3.24h-.04l-1.44,9.54h-1.66l-1.44-9.54h-.04V12.78h-1.73V.18Z"/>
        <path class="cls-2" d="M132.41,.18h2.92c1.98,0,2.95,1.1,2.95,3.12v1.24c0,2.02-.97,3.12-2.95,3.12h-.94v5.13h-1.98V.18Zm2.92,5.67c.63,0,.97-.29,.97-1.19v-1.49c0-.9-.34-1.19-.97-1.19h-.94v3.87h.94Z"/>
        <path class="cls-2" d="M139.54,.18h2.93c2.05,0,2.94,.95,2.94,2.9v.77c0,1.3-.41,2.12-1.3,2.48v.04c.99,.31,1.31,1.24,1.31,2.66v2.21c0,.61,.02,1.06,.22,1.53h-2.02c-.11-.32-.18-.52-.18-1.55v-2.3c0-1.17-.34-1.55-1.24-1.55h-.68v5.4h-1.98V.18Zm2.7,5.4c.74,0,1.19-.32,1.19-1.33v-.97c0-.9-.31-1.3-1.01-1.3h-.9v3.6h.72Z"/>
        <path class="cls-2" d="M146.83,9.79V3.17c0-2.02,1.06-3.17,3.01-3.17s3.01,1.15,3.01,3.17v6.63c0,2.02-1.06,3.17-3.01,3.17s-3.01-1.15-3.01-3.17Zm4.03,.13V3.04c0-.9-.4-1.24-1.03-1.24s-1.03,.34-1.03,1.24v6.88c0,.9,.4,1.24,1.03,1.24s1.03-.34,1.03-1.24Z"/>
        <path class="cls-2" d="M153.8,.18h2l1.3,9.78h.04l1.3-9.78h1.82l-1.91,12.6h-2.63l-1.91-12.6Z"/>
        <path class="cls-2" d="M161.38,.18h5.4V1.98h-3.42v3.33h2.72v1.8h-2.72v3.87h3.42v1.8h-5.4V.18Z"/>
        <path class="cls-2" d="M168.09,.18h2.83l1.26,9.02h.04l1.26-9.02h2.83V12.78h-1.87V3.24h-.04l-1.44,9.54h-1.66l-1.44-9.54h-.04V12.78h-1.73V.18Z"/>
        <path class="cls-2" d="M177.95,.18h5.4V1.98h-3.42v3.33h2.72v1.8h-2.72v3.87h3.42v1.8h-5.4V.18Z"/>
        <path class="cls-2" d="M184.67,.18h2.48l1.93,7.54h.04V.18h1.76V12.78h-2.04l-2.38-9.2h-.04V12.78h-1.76V.18Z"/>
        <path class="cls-2" d="M194.08,1.98h-2.07V.18h6.12V1.98h-2.07V12.78h-1.98V1.98Z"/>
        <path class="cls-2" d="M0,23.18H2.83l1.26,9.02h.04l1.26-9.02h2.83v12.6h-1.87v-9.54h-.04l-1.44,9.54h-1.66l-1.44-9.54h-.04v9.54H0v-12.6Z"/>
        <path class="cls-2" d="M9.79,32.79v-9.62h1.98v9.76c0,.9,.38,1.22,1.01,1.22s1.01-.32,1.01-1.22v-9.76h1.91v9.62c0,2.02-1.01,3.17-2.95,3.17s-2.95-1.15-2.95-3.17Z"/>
        <path class="cls-2" d="M16.94,32.79v-.72h1.87v.86c0,.9,.4,1.22,1.03,1.22s1.03-.32,1.03-1.26c0-1.04-.4-1.71-1.69-2.84-1.66-1.46-2.2-2.48-2.2-3.93,0-1.98,1.03-3.13,2.95-3.13s2.88,1.15,2.88,3.17v.52h-1.87v-.65c0-.9-.36-1.24-.99-1.24s-.99,.34-.99,1.21c0,.92,.41,1.58,1.71,2.72,1.66,1.46,2.18,2.47,2.18,4.03,0,2.05-1.04,3.21-2.99,3.21s-2.92-1.15-2.92-3.17Z"/>
        <path class="cls-2" d="M25.7,24.98h-2.07v-1.8h6.12v1.8h-2.07v10.8h-1.98v-10.8Z"/>
        <path class="cls-1" d="M40.07,23.18h2.83l1.26,9.02h.04l1.26-9.02h2.83v12.6h-1.87v-9.54h-.04l-1.44,9.54h-1.66l-1.44-9.54h-.04v9.54h-1.73v-12.6Z"/>
        <path class="cls-1" d="M49.79,32.79v-6.63c0-2.02,1.06-3.17,3.01-3.17s3.01,1.15,3.01,3.17v6.63c0,2.02-1.06,3.17-3.01,3.17s-3.01-1.15-3.01-3.17Zm4.03,.13v-6.88c0-.9-.4-1.24-1.03-1.24s-1.03,.34-1.03,1.24v6.88c0,.9,.4,1.24,1.03,1.24s1.03-.34,1.03-1.24Z"/>
        <path class="cls-1" d="M57.31,23.18h2.93c2.05,0,2.94,.95,2.94,2.9v.77c0,1.3-.41,2.12-1.3,2.48v.04c.99,.31,1.31,1.24,1.31,2.66v2.21c0,.61,.02,1.06,.22,1.53h-2.02c-.11-.32-.18-.52-.18-1.55v-2.3c0-1.17-.34-1.55-1.24-1.55h-.68v5.4h-1.98v-12.6Zm2.7,5.4c.74,0,1.19-.32,1.19-1.33v-.97c0-.9-.31-1.3-1.01-1.3h-.9v3.6h.72Z"/>
        <path class="cls-1" d="M64.75,23.18h5.4v1.8h-3.42v3.33h2.72v1.8h-2.72v3.87h3.42v1.8h-5.4v-12.6Z"/>
        <path class="cls-1" d="M76.07,24.98h-2.07v-1.8h6.12v1.8h-2.07v10.8h-1.98v-10.8Z"/>
        <path class="cls-1" d="M81.25,23.18h1.98v5.13h2.12v-5.13h1.98v12.6h-1.98v-5.67h-2.12v5.67h-1.98v-12.6Z"/>
        <path class="cls-1" d="M90.52,23.18h2.68l2.05,12.6h-1.98l-.36-2.5v.04h-2.25l-.36,2.47h-1.84l2.05-12.6Zm2.16,8.43l-.88-6.23h-.04l-.86,6.23h1.78Z"/>
        <path class="cls-1" d="M96.39,23.18h2.48l1.93,7.54h.04v-7.54h1.76v12.6h-2.04l-2.38-9.2h-.04v9.2h-1.76v-12.6Z"/>
        <path class="cls-1" d="M107.31,23.18h3.02c1.98,0,2.95,1.1,2.95,3.12v6.37c0,2.02-.97,3.11-2.95,3.11h-3.02v-12.6Zm2.99,10.8c.63,0,1.01-.32,1.01-1.22v-6.55c0-.9-.38-1.22-1.01-1.22h-1.01v9h1.01Z"/>
        <path class="cls-1" d="M114.66,32.79v-6.63c0-2.02,1.06-3.17,3.01-3.17s3.01,1.15,3.01,3.17v6.63c0,2.02-1.06,3.17-3.01,3.17s-3.01-1.15-3.01-3.17Zm4.03,.13v-6.88c0-.9-.4-1.24-1.03-1.24s-1.03,.34-1.03,1.24v6.88c0,.9,.4,1.24,1.03,1.24s1.03-.34,1.03-1.24Z"/>
        <path class="cls-1" d="M122.11,32.79v-9.62h1.98v9.76c0,.9,.38,1.22,1.01,1.22s1.01-.32,1.01-1.22v-9.76h1.91v9.62c0,2.02-1.01,3.17-2.95,3.17s-2.95-1.15-2.95-3.17Z"/>
        <path class="cls-1" d="M129.6,23.18h2.99c2.05,0,2.93,.95,2.93,2.9v.5c0,1.3-.4,2.11-1.28,2.47v.04c1.06,.36,1.48,1.3,1.48,2.63v1.08c0,1.94-1.03,2.99-3.01,2.99h-3.12v-12.6Zm2.75,5.13c.74,0,1.19-.32,1.19-1.33v-.7c0-.9-.31-1.3-1.01-1.3h-.95v3.33h.77Zm.36,5.67c.67,0,1.03-.31,1.03-1.24v-1.1c0-1.17-.38-1.53-1.28-1.53h-.88v3.87h1.13Z"/>
        <path class="cls-1" d="M137.05,23.18h1.98v10.8h3.26v1.8h-5.24v-12.6Z"/>
        <path class="cls-1" d="M143.42,23.18h5.4v1.8h-3.42v3.33h2.72v1.8h-2.72v3.87h3.42v1.8h-5.4v-12.6Z"/>
        <path class="cls-2" d="M158.59,23.18h1.98v12.6h-1.98v-12.6Z"/>
        <path class="cls-2" d="M163.78,24.98h-2.07v-1.8h6.12v1.8h-2.07v10.8h-1.98v-10.8Z"/>
        <path class="cls-2" d="M168.62,32.79v-.72h1.87v.86c0,.9,.4,1.22,1.03,1.22s1.03-.32,1.03-1.26c0-1.04-.4-1.71-1.69-2.84-1.66-1.46-2.2-2.48-2.2-3.93,0-1.98,1.03-3.13,2.95-3.13s2.88,1.15,2.88,3.17v.52h-1.87v-.65c0-.9-.36-1.24-.99-1.24s-.99,.34-.99,1.21c0,.92,.41,1.58,1.71,2.72,1.66,1.46,2.18,2.47,2.18,4.03,0,2.05-1.04,3.21-2.99,3.21s-2.92-1.15-2.92-3.17Z"/>
        <path class="cls-2" d="M178.9,23.18h2.92c1.98,0,2.95,1.1,2.95,3.12v1.24c0,2.02-.97,3.12-2.95,3.12h-.94v5.13h-1.98v-12.6Zm2.92,5.67c.63,0,.97-.29,.97-1.19v-1.49c0-.9-.34-1.19-.97-1.19h-.94v3.87h.94Z"/>
        <path class="cls-2" d="M186.93,23.18h2.68l2.05,12.6h-1.98l-.36-2.5v.04h-2.25l-.36,2.47h-1.84l2.05-12.6Zm2.16,8.43l-.88-6.23h-.04l-.86,6.23h1.78Z"/>
        <path class="cls-2" d="M192.63,32.87v-6.77c0-1.94,1.01-3.1,2.92-3.1s2.92,1.15,2.92,3.1v1.33h-1.87v-1.46c0-.83-.4-1.17-.99-1.17s-.99,.34-.99,1.17v7.04c0,.83,.4,1.15,.99,1.15s.99-.32,.99-1.15v-1.93h1.87v1.78c0,1.94-1.01,3.1-2.92,3.1s-2.92-1.15-2.92-3.1Z"/>
        <path class="cls-2" d="M199.83,23.18h5.4v1.8h-3.42v3.33h2.72v1.8h-2.72v3.87h3.42v1.8h-5.4v-12.6Z"/>
      </g>
    </g>
    <rect class="cls-2" x="20.31" y="51.6" width="164.85" height="11.38"/>
    <g>
      <path class="cls-1" d="M24.18,53.72h1.49l1.14,7h-1.1l-.2-1.39v.02h-1.25l-.2,1.37h-1.02l1.14-7Zm1.2,4.68l-.49-3.46h-.02l-.48,3.46h.99Z"/>
      <path class="cls-1" d="M27.74,53.72h1.38l1.07,4.19h.02v-4.19h.98v7h-1.13l-1.32-5.11h-.02v5.11h-.98v-7Z"/>
      <path class="cls-1" d="M32.41,53.72h1.38l1.07,4.19h.02v-4.19h.98v7h-1.13l-1.32-5.11h-.02v5.11h-.98v-7Z"/>
      <path class="cls-1" d="M37.04,59.06v-5.34h1.1v5.42c0,.5,.21,.68,.56,.68s.56-.18,.56-.68v-5.42h1.06v5.34c0,1.12-.56,1.76-1.64,1.76s-1.64-.64-1.64-1.76Z"/>
      <path class="cls-1" d="M42.33,53.72h1.49l1.14,7h-1.1l-.2-1.39v.02h-1.25l-.2,1.37h-1.02l1.14-7Zm1.2,4.68l-.49-3.46h-.02l-.48,3.46h.99Z"/>
      <path class="cls-1" d="M45.89,53.72h1.1v6h1.81v1h-2.91v-7Z"/>
      <path class="cls-1" d="M51.73,53.72h3v1h-1.9v1.85h1.51v1h-1.51v2.15h1.9v1h-3v-7Z"/>
      <path class="cls-1" d="M55.76,53.72h1.38l1.07,4.19h.02v-4.19h.98v7h-1.13l-1.32-5.11h-.02v5.11h-.98v-7Z"/>
      <path class="cls-1" d="M60.43,53.72h3v1h-1.9v1.85h1.51v1h-1.51v2.15h1.9v1h-3v-7Z"/>
      <path class="cls-1" d="M64.46,53.72h1.63c1.14,0,1.63,.53,1.63,1.61v.43c0,.72-.23,1.18-.72,1.38v.02c.55,.17,.73,.69,.73,1.48v1.23c0,.34,0,.59,.12,.85h-1.12c-.06-.18-.1-.29-.1-.86v-1.28c0-.65-.19-.86-.69-.86h-.38v3h-1.1v-7Zm1.5,3c.41,0,.66-.18,.66-.74v-.54c0-.5-.17-.72-.56-.72h-.5v2h.4Z"/>
      <path class="cls-1" d="M68.81,59.06v-3.68c0-1.12,.56-1.76,1.64-1.76s1.64,.64,1.64,1.76v.6h-1.04v-.67c0-.5-.22-.69-.57-.69s-.57,.19-.57,.69v3.83c0,.5,.22,.68,.57,.68s.57-.18,.57-.68v-1.37h-.55v-1h1.59v2.29c0,1.12-.56,1.76-1.64,1.76s-1.64-.64-1.64-1.76Z"/>
      <path class="cls-1" d="M74.05,57.74l-1.33-4.02h1.17l.75,2.57h.02l.75-2.57h1.07l-1.33,4.02v2.98h-1.1v-2.98Z"/>
      <path class="cls-1" d="M76.73,56.72h2.2v1h-2.2v-1Z"/>
      <path class="cls-1" d="M79.99,53.72h1.1v7h-1.1v-7Z"/>
      <path class="cls-1" d="M82.31,53.72h1.38l1.07,4.19h.02v-4.19h.98v7h-1.13l-1.32-5.11h-.02v5.11h-.98v-7Z"/>
      <path class="cls-1" d="M87.83,54.72h-1.15v-1h3.4v1h-1.15v6h-1.1v-6Z"/>
      <path class="cls-1" d="M91.02,53.72h3v1h-1.9v1.85h1.51v1h-1.51v2.15h1.9v1h-3v-7Z"/>
      <path class="cls-1" d="M95.05,53.72h1.38l1.07,4.19h.02v-4.19h.98v7h-1.13l-1.32-5.11h-.02v5.11h-.98v-7Z"/>
      <path class="cls-1" d="M99.53,59.06v-.4h1.04v.48c0,.5,.22,.68,.57,.68s.57-.18,.57-.7c0-.58-.22-.95-.94-1.58-.92-.81-1.22-1.38-1.22-2.18,0-1.1,.57-1.74,1.64-1.74s1.6,.64,1.6,1.76v.29h-1.04v-.36c0-.5-.2-.69-.55-.69s-.55,.19-.55,.67c0,.51,.23,.88,.95,1.51,.92,.81,1.21,1.37,1.21,2.24,0,1.14-.58,1.78-1.66,1.78s-1.62-.64-1.62-1.76Z"/>
      <path class="cls-1" d="M103.83,53.72h1.1v7h-1.1v-7Z"/>
      <path class="cls-1" d="M107.01,54.72h-1.15v-1h3.4v1h-1.15v6h-1.1v-6Z"/>
      <path class="cls-1" d="M111.24,57.74l-1.33-4.02h1.17l.75,2.57h.02l.75-2.57h1.07l-1.33,4.02v2.98h-1.1v-2.98Z"/>
      <path class="cls-1" d="M116.58,53.72h1.1v7h-1.1v-7Z"/>
      <path class="cls-1" d="M118.89,53.72h1.57l.7,5.01h.02l.7-5.01h1.57v7h-1.04v-5.3h-.02l-.8,5.3h-.92l-.8-5.3h-.02v5.3h-.96v-7Z"/>
      <path class="cls-1" d="M124.67,53.72h1.62c1.1,0,1.64,.61,1.64,1.73v.69c0,1.12-.54,1.73-1.64,1.73h-.52v2.85h-1.1v-7Zm1.62,3.15c.35,0,.54-.16,.54-.66v-.83c0-.5-.19-.66-.54-.66h-.52v2.15h.52Z"/>
      <path class="cls-1" d="M128.93,53.72h1.63c1.14,0,1.63,.53,1.63,1.61v.43c0,.72-.23,1.18-.72,1.38v.02c.55,.17,.73,.69,.73,1.48v1.23c0,.34,0,.59,.12,.85h-1.12c-.06-.18-.1-.29-.1-.86v-1.28c0-.65-.19-.86-.69-.86h-.38v3h-1.1v-7Zm1.5,3c.41,0,.66-.18,.66-.74v-.54c0-.5-.17-.72-.56-.72h-.5v2h.4Z"/>
      <path class="cls-1" d="M133.28,59.06v-3.68c0-1.12,.59-1.76,1.67-1.76s1.67,.64,1.67,1.76v3.68c0,1.12-.59,1.76-1.67,1.76s-1.67-.64-1.67-1.76Zm2.24,.07v-3.82c0-.5-.22-.69-.57-.69s-.57,.19-.57,.69v3.82c0,.5,.22,.69,.57,.69s.57-.19,.57-.69Z"/>
      <path class="cls-1" d="M137.46,53.72h1.11l.72,5.43h.02l.72-5.43h1.01l-1.06,7h-1.46l-1.06-7Z"/>
      <path class="cls-1" d="M141.96,53.72h3v1h-1.9v1.85h1.51v1h-1.51v2.15h1.9v1h-3v-7Z"/>
      <path class="cls-1" d="M145.99,53.72h1.57l.7,5.01h.02l.7-5.01h1.57v7h-1.04v-5.3h-.02l-.8,5.3h-.92l-.8-5.3h-.02v5.3h-.96v-7Z"/>
      <path class="cls-1" d="M151.77,53.72h3v1h-1.9v1.85h1.51v1h-1.51v2.15h1.9v1h-3v-7Z"/>
      <path class="cls-1" d="M155.8,53.72h1.38l1.07,4.19h.02v-4.19h.98v7h-1.13l-1.32-5.11h-.02v5.11h-.98v-7Z"/>
      <path class="cls-1" d="M161.33,54.72h-1.15v-1h3.4v1h-1.15v6h-1.1v-6Z"/>
      <path class="cls-1" d="M166.51,53.72h1.63c1.14,0,1.63,.53,1.63,1.61v.43c0,.72-.23,1.18-.72,1.38v.02c.55,.17,.73,.69,.73,1.48v1.23c0,.34,0,.59,.12,.85h-1.12c-.06-.18-.1-.29-.1-.86v-1.28c0-.65-.19-.86-.69-.86h-.38v3h-1.1v-7Zm1.5,3c.41,0,.66-.18,.66-.74v-.54c0-.5-.17-.72-.56-.72h-.5v2h.4Z"/>
      <path class="cls-1" d="M171.79,53.72h1.49l1.14,7h-1.1l-.2-1.39v.02h-1.25l-.2,1.37h-1.02l1.14-7Zm1.2,4.68l-.49-3.46h-.02l-.48,3.46h.99Z"/>
      <path class="cls-1" d="M175.75,54.72h-1.15v-1h3.4v1h-1.15v6h-1.1v-6Z"/>
      <path class="cls-1" d="M178.93,53.72h3v1h-1.9v1.85h1.51v1h-1.51v2.15h1.9v1h-3v-7Z"/>
    </g>
    <rect class="cls-3" x="29.51" y="145.94" width="59.04" height="39.06"/>
    <g>
      <g>
        <path class="cls-1" d="M41.71,179.11v-3.95c0-.9,.35-1.22,1.23-1.22h.27v.72h-.22c-.28,0-.41,.1-.41,.5v3.95c0,.4,.13,.5,.41,.5h.22v.72h-.27c-.88,0-1.23-.33-1.23-1.22Z"/>
        <path class="cls-1" d="M43.81,179.33c0-.8,.22-1.29,.88-1.98,.67-.71,.86-1.14,.86-1.66s-.18-.64-.46-.64-.46,.15-.46,.55v.6h-.83v-.54c0-.9,.45-1.41,1.31-1.41s1.31,.51,1.31,1.41c0,.66-.27,1.26-1.09,2.12-.53,.56-.66,.84-.66,1.23v.12h1.67v.8h-2.54v-.61Z"/>
        <path class="cls-1" d="M46.96,178.61v-2.94c0-.9,.47-1.41,1.33-1.41s1.34,.51,1.34,1.41v2.94c0,.9-.47,1.41-1.34,1.41s-1.33-.51-1.33-1.41Zm1.79,.06v-3.05c0-.4-.18-.55-.46-.55s-.46,.15-.46,.55v3.05c0,.4,.18,.55,.46,.55s.46-.15,.46-.55Z"/>
        <path class="cls-1" d="M51.46,175.67h-.92v-.62c.74,0,1.01-.16,1.21-.7h.59v5.6h-.88v-4.27Z"/>
        <path class="cls-1" d="M53.4,178.61v-.44h.83v.5c0,.4,.18,.54,.46,.54s.46-.14,.46-.54v-1.26c0-.4-.18-.55-.46-.55s-.46,.15-.46,.55v.05h-.83l.16-3.13h2.32v.8h-1.54l-.07,1.34h.02c.16-.26,.41-.41,.76-.41,.65,0,.98,.46,.98,1.28v1.26c0,.9-.45,1.41-1.31,1.41s-1.31-.51-1.31-1.41Z"/>
        <path class="cls-1" d="M56.5,176.74h1.76v.8h-1.76v-.8Z"/>
        <path class="cls-1" d="M58.77,179.33c0-.8,.22-1.29,.88-1.98,.67-.71,.86-1.14,.86-1.66s-.18-.64-.46-.64-.46,.15-.46,.55v.6h-.83v-.54c0-.9,.45-1.41,1.31-1.41s1.31,.51,1.31,1.41c0,.66-.27,1.26-1.09,2.12-.53,.56-.66,.84-.66,1.23v.12h1.67v.8h-2.54v-.61Z"/>
        <path class="cls-1" d="M61.92,178.61v-2.94c0-.9,.47-1.41,1.33-1.41s1.34,.51,1.34,1.41v2.94c0,.9-.47,1.41-1.34,1.41s-1.33-.51-1.33-1.41Zm1.79,.06v-3.05c0-.4-.18-.55-.46-.55s-.46,.15-.46,.55v3.05c0,.4,.18,.55,.46,.55s.46-.15,.46-.55Z"/>
        <path class="cls-1" d="M65.17,179.33c0-.8,.22-1.29,.88-1.98,.67-.71,.86-1.14,.86-1.66s-.18-.64-.46-.64-.46,.15-.46,.55v.6h-.83v-.54c0-.9,.45-1.41,1.31-1.41s1.31,.51,1.31,1.41c0,.66-.27,1.26-1.09,2.12-.53,.56-.66,.84-.66,1.23v.12h1.67v.8h-2.54v-.61Z"/>
        <path class="cls-1" d="M68.32,178.61v-2.94c0-.9,.47-1.41,1.33-1.41s1.34,.51,1.34,1.41v2.94c0,.9-.47,1.41-1.34,1.41s-1.33-.51-1.33-1.41Zm1.79,.06v-3.05c0-.4-.18-.55-.46-.55s-.46,.15-.46,.55v3.05c0,.4,.18,.55,.46,.55s.46-.15,.46-.55Z"/>
        <path class="cls-1" d="M71.54,179.62h.22c.28,0,.41-.1,.41-.5v-3.95c0-.4-.13-.5-.41-.5h-.22v-.72h.27c.88,0,1.23,.33,1.23,1.22v3.95c0,.9-.35,1.22-1.23,1.22h-.27v-.72Z"/>
      </g>
      <g>
        <path class="cls-1" d="M49.22,165.41h1.19l.91,5.6h-.88l-.16-1.11v.02h-1l-.16,1.1h-.82l.91-5.6Zm.96,3.74l-.39-2.77h-.02l-.38,2.77h.79Z"/>
        <path class="cls-1" d="M51.68,169.71v-3.01c0-.86,.45-1.38,1.3-1.38s1.29,.51,1.29,1.38v.59h-.83v-.65c0-.37-.18-.52-.44-.52s-.44,.15-.44,.52v3.13c0,.37,.18,.51,.44,.51s.44-.14,.44-.51v-.86h.83v.79c0,.86-.45,1.38-1.29,1.38s-1.3-.51-1.3-1.38Z"/>
        <path class="cls-1" d="M55.49,166.21h-.92v-.8h2.72v.8h-.92v4.8h-.88v-4.8Z"/>
        <path class="cls-1" d="M57.68,169.68v-4.27h.88v4.33c0,.4,.17,.54,.45,.54s.45-.14,.45-.54v-4.33h.85v4.27c0,.9-.45,1.41-1.31,1.41s-1.31-.51-1.31-1.41Z"/>
        <path class="cls-1" d="M61.59,165.41h1.19l.91,5.6h-.88l-.16-1.11v.02h-1l-.16,1.1h-.82l.91-5.6Zm.96,3.74l-.39-2.77h-.02l-.38,2.77h.79Z"/>
        <path class="cls-1" d="M64.12,165.41h.88v4.8h1.45v.8h-2.33v-5.6Z"/>
      </g>
      <g>
        <path class="cls-1" d="M47.88,153.42h-1.84v-1.25c1.49,0,2.02-.32,2.42-1.41h1.18v11.2h-1.76v-8.55Z"/>
        <path class="cls-1" d="M51.82,160.27h1.7v1.7h-1.7v-1.7Z"/>
        <path class="cls-1" d="M57.77,159.93h-3.36v-1.6l3.2-7.57h1.92v7.57h.83v1.6h-.83v2.03h-1.76v-2.03Zm0-1.6v-4.37h-.03l-1.73,4.37h1.76Z"/>
        <path class="cls-1" d="M61.13,155.19v-2.8c0-1.15,.59-1.79,1.7-1.79s1.7,.64,1.7,1.79v2.8c0,1.15-.59,1.79-1.7,1.79s-1.7-.64-1.7-1.79Zm2.27,.08v-2.96c0-.5-.22-.7-.58-.7s-.58,.21-.58,.7v2.96c0,.5,.21,.7,.58,.7s.58-.21,.58-.7Zm3.49-4.51h1.12l-4.34,11.2h-1.12l4.34-11.2Zm-.85,9.57v-2.8c0-1.15,.59-1.79,1.7-1.79s1.7,.64,1.7,1.79v2.8c0,1.15-.59,1.79-1.7,1.79s-1.7-.64-1.7-1.79Zm2.27,.08v-2.96c0-.5-.22-.7-.58-.7s-.58,.21-.58,.7v2.96c0,.5,.21,.7,.58,.7s.58-.21,.58-.7Z"/>
      </g>
    </g>
    <rect class="cls-2" x="29.51" y="83.39" width="59.04" height="11.15"/>
    <rect class="cls-2" x="29.51" y="95.9" width="59.04" height="11.15"/>
    <rect class="cls-2" x="29.51" y="108.42" width="59.04" height="11.15"/>
    <rect class="cls-2" x="29.51" y="120.93" width="59.04" height="11.15"/>
    <rect class="cls-2" x="29.51" y="133.45" width="59.04" height="11.15"/>
    <g>
      <path class="cls-3" d="M92.68,79.53v109.02H25.38V79.53H92.68m2-2H23.38v113.02H94.68V77.53h0Z"/>
      <rect class="cls-3" x="46.1" y="73.47" width="25.86" height="5.65"/>
    </g>
    <g>
      <rect class="cls-3" x="114.17" y="90.14" width="59.04" height="94.87"/>
      <g>
        <path class="cls-1" d="M127.98,179.11v-3.95c0-.9,.35-1.22,1.23-1.22h.27v.72h-.22c-.28,0-.41,.1-.41,.5v3.95c0,.4,.13,.5,.41,.5h.22v.72h-.27c-.88,0-1.23-.33-1.23-1.22Z"/>
        <path class="cls-1" d="M130.07,179.33c0-.8,.22-1.29,.88-1.98,.67-.71,.86-1.14,.86-1.66s-.18-.64-.46-.64-.46,.15-.46,.55v.6h-.83v-.54c0-.9,.45-1.41,1.31-1.41s1.31,.51,1.31,1.41c0,.66-.27,1.26-1.09,2.12-.53,.56-.66,.84-.66,1.23v.12h1.67v.8h-2.54v-.61Z"/>
        <path class="cls-1" d="M133.22,178.61v-2.94c0-.9,.47-1.41,1.33-1.41s1.34,.51,1.34,1.41v2.94c0,.9-.47,1.41-1.34,1.41s-1.33-.51-1.33-1.41Zm1.79,.06v-3.05c0-.4-.18-.55-.46-.55s-.46,.15-.46,.55v3.05c0,.4,.18,.55,.46,.55s.46-.15,.46-.55Z"/>
        <path class="cls-1" d="M136.47,179.33c0-.8,.22-1.29,.88-1.98,.67-.71,.86-1.14,.86-1.66s-.18-.64-.46-.64-.46,.15-.46,.55v.6h-.83v-.54c0-.9,.45-1.41,1.31-1.41s1.31,.51,1.31,1.41c0,.66-.27,1.26-1.09,2.12-.53,.56-.66,.84-.66,1.23v.12h1.67v.8h-2.54v-.61Z"/>
        <path class="cls-1" d="M139.62,178.61v-2.94c0-.9,.47-1.41,1.34-1.41s1.33,.51,1.33,1.41v2.94c0,.9-.47,1.41-1.33,1.41s-1.34-.51-1.34-1.41Zm1.79,.06v-3.05c0-.4-.18-.55-.46-.55s-.46,.15-.46,.55v3.05c0,.4,.18,.55,.46,.55s.46-.15,.46-.55Z"/>
        <path class="cls-1" d="M142.76,176.74h1.76v.8h-1.76v-.8Z"/>
        <path class="cls-1" d="M145.03,179.33c0-.8,.22-1.29,.88-1.98,.67-.71,.86-1.14,.86-1.66s-.18-.64-.46-.64-.46,.15-.46,.55v.6h-.83v-.54c0-.9,.45-1.41,1.31-1.41s1.31,.51,1.31,1.41c0,.66-.27,1.26-1.09,2.12-.53,.56-.66,.84-.66,1.23v.12h1.67v.8h-2.54v-.61Z"/>
        <path class="cls-1" d="M148.18,178.61v-2.94c0-.9,.47-1.41,1.33-1.41s1.34,.51,1.34,1.41v2.94c0,.9-.47,1.41-1.34,1.41s-1.33-.51-1.33-1.41Zm1.79,.06v-3.05c0-.4-.18-.55-.46-.55s-.46,.15-.46,.55v3.05c0,.4,.18,.55,.46,.55s.46-.15,.46-.55Z"/>
        <path class="cls-1" d="M151.38,178.62v-.46h.83v.5c0,.4,.18,.55,.46,.55s.46-.14,.46-.63v-.46c0-.52-.18-.71-.58-.71h-.3v-.8h.32c.33,0,.53-.14,.53-.59v-.41c0-.4-.18-.56-.44-.56s-.42,.15-.42,.52v.37h-.83v-.3c0-.9,.45-1.39,1.29-1.39s1.29,.49,1.29,1.38v.2c0,.6-.19,.97-.62,1.13v.02c.47,.18,.65,.58,.65,1.15v.5c0,.9-.45,1.38-1.31,1.38s-1.31-.5-1.31-1.39Z"/>
        <path class="cls-1" d="M154.58,178.61v-2.94c0-.9,.47-1.41,1.33-1.41s1.34,.51,1.34,1.41v2.94c0,.9-.47,1.41-1.34,1.41s-1.33-.51-1.33-1.41Zm1.79,.06v-3.05c0-.4-.18-.55-.46-.55s-.46,.15-.46,.55v3.05c0,.4,.18,.55,.46,.55s.46-.15,.46-.55Z"/>
        <path class="cls-1" d="M157.8,179.62h.22c.28,0,.41-.1,.41-.5v-3.95c0-.4-.13-.5-.41-.5h-.22v-.72h.27c.88,0,1.23,.33,1.23,1.22v3.95c0,.9-.35,1.22-1.23,1.22h-.27v-.72Z"/>
      </g>
      <g>
        <path class="cls-1" d="M134.65,165.41h1.1l.86,3.35h.02v-3.35h.78v5.6h-.9l-1.06-4.09h-.02v4.09h-.78v-5.6Z"/>
        <path class="cls-1" d="M138.07,165.41h2.4v.8h-1.52v1.48h1.21v.8h-1.21v1.72h1.52v.8h-2.4v-5.6Z"/>
        <path class="cls-1" d="M140.97,165.41h2.4v.8h-1.52v1.48h1.21v.8h-1.21v1.72h1.52v.8h-2.4v-5.6Z"/>
        <path class="cls-1" d="M143.88,165.41h1.34c.88,0,1.31,.49,1.31,1.38v2.83c0,.9-.43,1.38-1.31,1.38h-1.34v-5.6Zm1.33,4.8c.28,0,.45-.14,.45-.54v-2.91c0-.4-.17-.54-.45-.54h-.45v4h.45Z"/>
        <path class="cls-1" d="M147.13,165.41h2.4v.8h-1.52v1.48h1.21v.8h-1.21v1.72h1.52v.8h-2.4v-5.6Z"/>
        <path class="cls-1" d="M150.03,165.41h1.34c.88,0,1.31,.49,1.31,1.38v2.83c0,.9-.43,1.38-1.31,1.38h-1.34v-5.6Zm1.33,4.8c.28,0,.45-.14,.45-.54v-2.91c0-.4-.17-.54-.45-.54h-.45v4h.45Z"/>
      </g>
      <g>
        <path class="cls-1" d="M131.55,159.34v-.91h1.67v.99c0,.8,.35,1.1,.91,1.1s.91-.27,.91-1.26v-.91c0-1.04-.35-1.42-1.15-1.42h-.59v-1.6h.64c.66,0,1.06-.29,1.06-1.18v-.82c0-.8-.37-1.12-.88-1.12s-.85,.3-.85,1.04v.74h-1.67v-.59c0-1.79,.9-2.79,2.58-2.79s2.58,.98,2.58,2.77v.4c0,1.2-.38,1.94-1.25,2.26v.03c.94,.35,1.3,1.17,1.3,2.3v.99c0,1.79-.9,2.77-2.62,2.77s-2.62-.99-2.62-2.79Z"/>
        <path class="cls-1" d="M138.08,160.27h1.7v1.7h-1.7v-1.7Z"/>
        <path class="cls-1" d="M144.03,159.93h-3.36v-1.6l3.2-7.57h1.92v7.57h.83v1.6h-.83v2.03h-1.76v-2.03Zm0-1.6v-4.37h-.03l-1.73,4.37h1.76Z"/>
        <path class="cls-1" d="M147.39,155.19v-2.8c0-1.15,.59-1.79,1.7-1.79s1.7,.64,1.7,1.79v2.8c0,1.15-.59,1.79-1.7,1.79s-1.7-.64-1.7-1.79Zm2.27,.08v-2.96c0-.5-.22-.7-.58-.7s-.58,.21-.58,.7v2.96c0,.5,.21,.7,.58,.7s.58-.21,.58-.7Zm3.49-4.51h1.12l-4.34,11.2h-1.12l4.34-11.2Zm-.85,9.57v-2.8c0-1.15,.59-1.79,1.7-1.79s1.7,.64,1.7,1.79v2.8c0,1.15-.59,1.79-1.7,1.79s-1.7-.64-1.7-1.79Zm2.27,.08v-2.96c0-.5-.22-.7-.58-.7s-.58,.21-.58,.7v2.96c0,.5,.21,.7,.58,.7s.58-.21,.58-.7Z"/>
      </g>
      <polygon class="cls-1" points="146.79 111.97 139.37 111.97 142.83 119.4 137.38 119.4 146.29 133.76 142.83 123.36 148.28 123.36 146.79 111.97"/>
      <rect class="cls-2" x="114.17" y="83.38" width="59.04" height="5.36"/>
      <g>
        <path class="cls-3" d="M177.34,79.53v109.02H110.04V79.53h67.3m2-2H108.04v113.02h71.3V77.53h0Z"/>
        <rect class="cls-3" x="130.76" y="73.47" width="25.86" height="5.65"/>
      </g>
    </g>
  </g>
</svg>