<?xml version="1.0" encoding="UTF-8"?>
<svg id="Layer_2" data-name="Layer 2" xmlns="http://www.w3.org/2000/svg" xmlns:xlink="http://www.w3.org/1999/xlink" viewBox="0 0 252.82 267.17">
  <defs>
    <style>
      .cls-1 {
        fill: #fff;
      }

      .cls-2 {
        fill: #939598;
      }

      .cls-3 {
        fill: #fdb714;
      }

      .cls-4 {
        fill: #7e6227;
      }

      .cls-5 {
        stroke: #c79d47;
        stroke-width: 2px;
      }

      .cls-5, .cls-6, .cls-7 {
        fill: none;
      }

      .cls-6 {
        stroke: #fac313;
        stroke-width: 4px;
      }

      .cls-8 {
        fill: #c79d47;
      }

      .cls-9 {
        clip-path: url(#clippath);
      }

      .cls-10 {
        fill: #dcddde;
      }

      .cls-11 {
        fill: #4a3c15;
      }

      .cls-12 {
        fill: #fff3df;
      }
    </style>
    <clipPath id="clippath">
      <rect class="cls-7" x="97.4" y="72.5" width="133.33" height="148.02"/>
    </clipPath>
  </defs>
  <g id="Layer_2-2" data-name="Layer 2">
    <rect class="cls-12" y="220.53" width="252.82" height="26.89"/>
    <g class="cls-9">
      <path class="cls-10" d="M222.81,130.69c-.25-.86-.96-1.49-1.84-1.66-.87-.16-1.77,.16-2.33,.87-.04,.06-4.39,5.36-15.78,8.31-.69,.14-16.98,3.52-23.67,18.65-.18,.47-4.3,11.64-3.15,19.99l.45,3.16c-1.93,1.51-4.05,3.03-6.26,4.56v-40.43c10.57-1.28,18.81-10.21,18.81-21.13v-16.6c3.24-2.26,5.16-5.78,5.16-10,0-.87-.08-1.71-.26-2.54-.23-1.11-1.2-1.9-2.33-1.9h-9.38v-12.52c0-1.32-1.07-2.39-2.39-2.39s-2.39,1.07-2.39,2.39v12.51h-19.58v-12.51c0-1.32-1.07-2.39-2.39-2.39s-2.39,1.07-2.39,2.39v12.51h-9.38c-1.13,0-2.11,.8-2.33,1.91-.17,.82-.25,1.67-.25,2.53,0,4.3,1.95,7.97,5.16,10.25v16.35c0,11.04,8.44,20.05,19.19,21.17v27.56c-1.16-1.04-2.31-2.01-3.46-2.94-.52-1.52-2.33-6.82-3.34-9.3-.27-.89-6.87-21.84-26.75-24.87-.56-.13-13.06-2.84-29.25,5.97-.79,.43-1.26,1.27-1.23,2.16,.02,.89,.55,1.7,1.36,2.09,.06,.03,5.88,2.89,10.84,12.71,.27,.61,6.69,15.02,22.34,18,.13,.02,3.23,.41,7.27,.41,4.97,0,9.08-.59,12.23-1.76l3.85-1.45c2.02,1.65,4.06,3.49,6.13,5.51v86.52c0,1.32,1.07,2.39,2.39,2.39s2.39-1.07,2.39-2.39v-74.47c3.01-1.99,8.22-5.88,8.47-5.88,.09,0,8.4-.69,11.7-1.27,.98-.08,24.05-2.26,31.79-21.63,.25-.5,6.03-12.36,.63-30.82h0Zm-63.22,41.58c-4.46-3.12-8.21-4.74-12.62-6.18l-9.39,3.31c-.26,.09-.53,.14-.79,.14-.98,0-1.9-.62-2.25-1.6-.44-1.24,.22-2.6,1.46-3.04l3.61-1.27c-5.04-2.48-11.82-7.25-12.76-7.93-1.07-.77-1.31-2.26-.55-3.33,.77-1.07,2.25-1.33,3.32-.55,3.61,2.58,9.8,6.61,13.16,8.06l-1.93-5.21c-.46-1.23,.17-2.61,1.41-3.06,1.23-.45,2.61,.18,3.06,1.41l3.16,8.55c9.78,4.83,8.6,4.76,12.65,7.35-.03,.3-1.53,3.36-1.53,3.36h0Zm3.3-63.6h9.15c1.32,0,2.39,1.07,2.39,2.39s-1.07,2.39-2.39,2.39h-9.15c-1.32,0-2.39-1.07-2.39-2.39s1.07-2.39,2.39-2.39Zm-2.39,14.9c0-1.31,1.07-2.39,2.39-2.39h9.15c1.32,0,2.39,1.07,2.39,2.39s-1.07,2.39-2.39,2.39h-9.15c-1.32,0-2.39-1.08-2.39-2.39Zm51.33,25.39c-4,3.63-10.51,10.08-12.61,13.37l6.98-.98c1.32-.15,2.51,.72,2.69,2.03,.18,1.31-.72,2.51-2.03,2.69l-10.56,1.48c-2.72,4.37-9.5,10.31-14.37,14.7-.18,0-1.69-3.58-2.27-4.12,0,0,9.98-8.85,12.63-13.14l-1.4-11.23c-.16-1.31,.77-2.5,2.07-2.66,1.28-.24,2.49,.77,2.66,2.07l.64,5.12c3.84-5.04,11.36-11.94,12.37-12.86,.97-.9,2.48-.82,3.37,.16,.89,.97,.82,2.49-.16,3.36h0Z"/>
    </g>
    <g>
      <path class="cls-8" d="M34.17,235.59c0-1.2,.34-1.93,1.32-2.96,1.01-1.07,1.29-1.7,1.29-2.48s-.26-.96-.68-.96-.68,.23-.68,.83v.9h-1.25v-.82c0-1.34,.67-2.11,1.97-2.11s1.97,.77,1.97,2.11c0,1-.41,1.88-1.63,3.18-.79,.84-1,1.26-1,1.85v.18h2.51v1.2h-3.81v-.91Z"/>
      <path class="cls-8" d="M38.9,234.51v-4.41c0-1.34,.71-2.11,2-2.11s2,.77,2,2.11v4.41c0,1.34-.71,2.11-2,2.11s-2-.77-2-2.11Zm2.69,.08v-4.58c0-.6-.26-.83-.68-.83s-.68,.23-.68,.83v4.58c0,.6,.26,.83,.68,.83s.68-.23,.68-.83Z"/>
      <path class="cls-8" d="M45.64,230.1h-1.38v-.94c1.12,0,1.51-.24,1.81-1.06h.89v8.4h-1.32v-6.4Z"/>
      <path class="cls-8" d="M51.17,229.31h-2.66v-1.2h3.96v1.15l-2.06,7.24h-1.34l2.11-7.2Z"/>
    </g>
    <g>
      <path class="cls-8" d="M75.3,235.59c0-1.2,.34-1.93,1.32-2.96,1.01-1.07,1.29-1.7,1.29-2.48s-.26-.96-.68-.96-.68,.23-.68,.83v.9h-1.25v-.82c0-1.34,.67-2.11,1.97-2.11s1.97,.77,1.97,2.11c0,1-.41,1.88-1.63,3.18-.79,.84-1,1.26-1,1.85v.18h2.51v1.2h-3.81v-.91Z"/>
      <path class="cls-8" d="M80.03,234.51v-4.41c0-1.34,.71-2.11,2-2.11s2,.77,2,2.11v4.41c0,1.34-.71,2.11-2,2.11s-2-.77-2-2.11Zm2.69,.08v-4.58c0-.6-.26-.83-.68-.83s-.68,.23-.68,.83v4.58c0,.6,.26,.83,.68,.83s.68-.23,.68-.83Z"/>
      <path class="cls-8" d="M86.77,230.1h-1.38v-.94c1.12,0,1.51-.24,1.81-1.06h.89v8.4h-1.32v-6.4Z"/>
      <path class="cls-8" d="M89.57,234.55v-.74c0-.8,.24-1.39,.86-1.71v-.02c-.55-.3-.82-.83-.82-1.66v-.35c0-1.34,.73-2.07,2.01-2.07s2.01,.73,2.01,2.07v.35c0,.83-.28,1.36-.82,1.66v.02c.62,.32,.86,.91,.86,1.71v.74c0,1.34-.73,2.08-2.06,2.08s-2.06-.73-2.06-2.08Zm2.81-.07v-.8c0-.64-.25-.95-.74-.95s-.74,.31-.74,.95v.8c0,.64,.25,.95,.74,.95s.74-.31,.74-.95Zm-.05-3.79v-.66c0-.55-.24-.84-.7-.84s-.7,.29-.7,.84v.66c0,.55,.24,.84,.7,.84s.7-.29,.7-.84Z"/>
    </g>
    <g>
      <path class="cls-8" d="M116.44,235.59c0-1.2,.34-1.93,1.32-2.96,1.01-1.07,1.29-1.7,1.29-2.48s-.26-.96-.68-.96-.68,.23-.68,.83v.9h-1.25v-.82c0-1.34,.67-2.11,1.97-2.11s1.97,.77,1.97,2.11c0,1-.41,1.88-1.63,3.18-.79,.84-1,1.26-1,1.85v.18h2.51v1.2h-3.81v-.91Z"/>
      <path class="cls-8" d="M121.16,234.51v-4.41c0-1.34,.71-2.11,2-2.11s2,.77,2,2.11v4.41c0,1.34-.71,2.11-2,2.11s-2-.77-2-2.11Zm2.69,.08v-4.58c0-.6-.26-.83-.68-.83s-.68,.23-.68,.83v4.58c0,.6,.26,.83,.68,.83s.68-.23,.68-.83Z"/>
      <path class="cls-8" d="M127.91,230.1h-1.38v-.94c1.12,0,1.51-.24,1.81-1.06h.89v8.4h-1.32v-6.4Z"/>
      <path class="cls-8" d="M130.75,234.51v-.16h1.25v.24c0,.6,.26,.83,.68,.83,.47,0,.73-.23,.73-1.03v-1.61h-.02c-.23,.48-.61,.73-1.2,.73-.97,0-1.46-.68-1.46-1.92v-1.5c0-1.34,.71-2.11,2-2.11s2,.77,2,2.11v4.34c0,1.42-.65,2.18-2.01,2.18-1.29,0-1.97-.77-1.97-2.11Zm2.66-3.02v-1.49c0-.55-.23-.82-.68-.82s-.68,.26-.68,.82v1.49c0,.56,.23,.83,.68,.83s.68-.26,.68-.83Z"/>
    </g>
    <g>
      <path class="cls-8" d="M157.57,235.59c0-1.2,.34-1.93,1.32-2.96,1.01-1.07,1.29-1.7,1.29-2.48s-.26-.96-.68-.96-.68,.23-.68,.83v.9h-1.25v-.82c0-1.34,.67-2.11,1.97-2.11s1.97,.77,1.97,2.11c0,1-.41,1.88-1.63,3.18-.79,.84-1,1.26-1,1.85v.18h2.51v1.2h-3.81v-.91Z"/>
      <path class="cls-8" d="M162.29,234.51v-4.41c0-1.34,.71-2.11,2-2.11s2,.77,2,2.11v4.41c0,1.34-.71,2.11-2,2.11s-2-.77-2-2.11Zm2.69,.08v-4.58c0-.6-.26-.83-.68-.83s-.68,.23-.68,.83v4.58c0,.6,.26,.83,.68,.83s.68-.23,.68-.83Z"/>
      <path class="cls-8" d="M167.17,235.59c0-1.2,.34-1.93,1.32-2.96,1.01-1.07,1.29-1.7,1.29-2.48s-.26-.96-.68-.96-.68,.23-.68,.83v.9h-1.25v-.82c0-1.34,.67-2.11,1.97-2.11s1.97,.77,1.97,2.11c0,1-.41,1.88-1.63,3.18-.79,.84-1,1.26-1,1.85v.18h2.51v1.2h-3.81v-.91Z"/>
      <path class="cls-8" d="M171.9,234.51v-4.41c0-1.34,.71-2.11,2-2.11s2,.77,2,2.11v4.41c0,1.34-.71,2.11-2,2.11s-2-.77-2-2.11Zm2.69,.08v-4.58c0-.6-.26-.83-.68-.83s-.68,.23-.68,.83v4.58c0,.6,.26,.83,.68,.83s.68-.23,.68-.83Z"/>
    </g>
    <g>
      <path class="cls-8" d="M198.82,235.59c0-1.2,.34-1.93,1.32-2.96,1.01-1.07,1.29-1.7,1.29-2.48s-.26-.96-.68-.96-.68,.23-.68,.83v.9h-1.25v-.82c0-1.34,.67-2.11,1.97-2.11s1.97,.77,1.97,2.11c0,1-.41,1.88-1.63,3.18-.79,.84-.99,1.26-.99,1.85v.18h2.51v1.2h-3.81v-.91Z"/>
      <path class="cls-8" d="M203.55,234.51v-4.41c0-1.34,.71-2.11,2-2.11s2,.77,2,2.11v4.41c0,1.34-.71,2.11-2,2.11s-2-.77-2-2.11Zm2.69,.08v-4.58c0-.6-.26-.83-.68-.83s-.68,.23-.68,.83v4.58c0,.6,.26,.83,.68,.83s.68-.23,.68-.83Z"/>
      <path class="cls-8" d="M208.42,235.59c0-1.2,.34-1.93,1.32-2.96,1.01-1.07,1.29-1.7,1.29-2.48s-.26-.96-.68-.96-.68,.23-.68,.83v.9h-1.25v-.82c0-1.34,.67-2.11,1.97-2.11s1.97,.77,1.97,2.11c0,1-.41,1.88-1.63,3.18-.79,.84-.99,1.26-.99,1.85v.18h2.51v1.2h-3.81v-.91Z"/>
      <path class="cls-8" d="M214.85,230.1h-1.38v-.94c1.12,0,1.51-.24,1.81-1.06h.89v8.4h-1.32v-6.4Z"/>
    </g>
    <g>
      <path class="cls-2" d="M35.05,19.65h4.63v1.59h-2.88v3.1h2.26v1.59h-2.26v4.85h-1.75v-11.14Z"/>
      <path class="cls-2" d="M40.71,28.15v-5.86c0-1.78,.94-2.8,2.66-2.8s2.66,1.02,2.66,2.8v5.86c0,1.78-.94,2.8-2.66,2.8s-2.66-1.02-2.66-2.8Zm3.56,.11v-6.08c0-.8-.35-1.1-.91-1.1s-.91,.3-.91,1.1v6.08c0,.8,.35,1.1,.91,1.1s.91-.3,.91-1.1Z"/>
      <path class="cls-2" d="M47.53,19.65h2.59c1.81,0,2.59,.84,2.59,2.56v.68c0,1.15-.37,1.88-1.15,2.2v.03c.88,.27,1.16,1.1,1.16,2.35v1.96c0,.54,.02,.94,.19,1.35h-1.78c-.1-.29-.16-.46-.16-1.37v-2.04c0-1.03-.3-1.37-1.1-1.37h-.6v4.77h-1.75v-11.14Zm2.39,4.77c.65,0,1.05-.29,1.05-1.18v-.86c0-.8-.27-1.15-.89-1.15h-.8v3.18h.64Z"/>
      <path class="cls-2" d="M57.01,28.22v-5.98c0-1.72,.89-2.74,2.58-2.74s2.58,1.02,2.58,2.74v1.18h-1.66v-1.29c0-.73-.35-1.03-.88-1.03s-.88,.3-.88,1.03v6.22c0,.73,.35,1.02,.88,1.02s.88-.29,.88-1.02v-1.7h1.66v1.58c0,1.72-.89,2.74-2.58,2.74s-2.58-1.02-2.58-2.74Z"/>
      <path class="cls-2" d="M63.53,19.65h1.75v9.55h2.88v1.59h-4.63v-11.14Z"/>
      <path class="cls-2" d="M69.32,19.65h4.77v1.59h-3.02v2.94h2.4v1.59h-2.4v3.42h3.02v1.59h-4.77v-11.14Z"/>
      <path class="cls-2" d="M76.77,19.65h2.37l1.81,11.14h-1.75l-.32-2.21v.03h-1.99l-.32,2.18h-1.62l1.81-11.14Zm1.91,7.45l-.78-5.51h-.03l-.76,5.51h1.58Z"/>
      <path class="cls-2" d="M82.12,19.65h2.2l1.7,6.67h.03v-6.67h1.56v11.14h-1.8l-2.1-8.13h-.03v8.13h-1.56v-11.14Z"/>
      <path class="cls-2" d="M92.1,19.65h4.77v1.59h-3.02v2.94h2.4v1.59h-2.4v3.42h3.02v1.59h-4.77v-11.14Z"/>
      <path class="cls-2" d="M98.19,19.65h2.2l1.7,6.67h.03v-6.67h1.56v11.14h-1.8l-2.1-8.13h-.03v8.13h-1.56v-11.14Z"/>
      <path class="cls-2" d="M105.3,19.65h4.77v1.59h-3.02v2.94h2.4v1.59h-2.4v3.42h3.02v1.59h-4.77v-11.14Z"/>
      <path class="cls-2" d="M111.4,19.65h2.59c1.81,0,2.59,.84,2.59,2.56v.68c0,1.15-.37,1.88-1.15,2.2v.03c.88,.27,1.16,1.1,1.16,2.35v1.96c0,.54,.02,.94,.19,1.35h-1.78c-.1-.29-.16-.46-.16-1.37v-2.04c0-1.03-.3-1.37-1.1-1.37h-.6v4.77h-1.75v-11.14Zm2.39,4.77c.65,0,1.05-.29,1.05-1.18v-.86c0-.8-.27-1.15-.89-1.15h-.8v3.18h.64Z"/>
      <path class="cls-2" d="M118,28.15v-5.86c0-1.78,.89-2.8,2.61-2.8s2.61,1.02,2.61,2.8v.96h-1.66v-1.07c0-.8-.35-1.1-.91-1.1s-.91,.3-.91,1.1v6.1c0,.8,.35,1.08,.91,1.08s.91-.29,.91-1.08v-2.18h-.88v-1.59h2.53v3.64c0,1.78-.89,2.8-2.61,2.8s-2.61-1.02-2.61-2.8Z"/>
      <path class="cls-2" d="M126.04,26.05l-2.12-6.4h1.86l1.19,4.09h.03l1.19-4.09h1.7l-2.12,6.4v4.74h-1.75v-4.74Z"/>
      <path class="cls-2" d="M133.88,19.65h4.63v1.59h-2.88v3.1h2.26v1.59h-2.26v4.85h-1.75v-11.14Z"/>
      <path class="cls-2" d="M139.55,28.15v-5.86c0-1.78,.94-2.8,2.66-2.8s2.66,1.02,2.66,2.8v5.86c0,1.78-.94,2.8-2.66,2.8s-2.66-1.02-2.66-2.8Zm3.56,.11v-6.08c0-.8-.35-1.1-.91-1.1s-.91,.3-.91,1.1v6.08c0,.8,.35,1.1,.91,1.1s.91-.3,.91-1.1Z"/>
      <path class="cls-2" d="M146.36,19.65h2.59c1.81,0,2.59,.84,2.59,2.56v.68c0,1.15-.37,1.88-1.15,2.2v.03c.88,.27,1.16,1.1,1.16,2.35v1.96c0,.54,.02,.94,.19,1.35h-1.78c-.1-.29-.16-.46-.16-1.37v-2.04c0-1.03-.3-1.37-1.1-1.37h-.6v4.77h-1.75v-11.14Zm2.39,4.77c.65,0,1.05-.29,1.05-1.18v-.86c0-.8-.27-1.15-.89-1.15h-.8v3.18h.64Z"/>
      <path class="cls-2" d="M155.95,19.65h2.67c1.75,0,2.61,.97,2.61,2.75v5.63c0,1.78-.86,2.75-2.61,2.75h-2.67v-11.14Zm2.64,9.55c.56,0,.89-.29,.89-1.08v-5.79c0-.8-.33-1.08-.89-1.08h-.89v7.96h.89Z"/>
      <path class="cls-2" d="M162.73,19.65h4.77v1.59h-3.02v2.94h2.4v1.59h-2.4v3.42h3.02v1.59h-4.77v-11.14Z"/>
      <path class="cls-2" d="M168.37,19.65h1.77l1.15,8.64h.03l1.15-8.64h1.61l-1.69,11.14h-2.32l-1.69-11.14Z"/>
      <path class="cls-2" d="M175.22,19.65h4.77v1.59h-3.02v2.94h2.4v1.59h-2.4v3.42h3.02v1.59h-4.77v-11.14Z"/>
      <path class="cls-2" d="M181.32,19.65h1.75v9.55h2.88v1.59h-4.63v-11.14Z"/>
      <path class="cls-2" d="M186.92,28.15v-5.86c0-1.78,.94-2.8,2.66-2.8s2.66,1.02,2.66,2.8v5.86c0,1.78-.94,2.8-2.66,2.8s-2.66-1.02-2.66-2.8Zm3.56,.11v-6.08c0-.8-.35-1.1-.91-1.1s-.91,.3-.91,1.1v6.08c0,.8,.35,1.1,.91,1.1s.91-.3,.91-1.1Z"/>
      <path class="cls-2" d="M193.73,19.65h2.58c1.75,0,2.61,.97,2.61,2.75v1.1c0,1.78-.86,2.75-2.61,2.75h-.83v4.54h-1.75v-11.14Zm2.58,5.01c.56,0,.86-.25,.86-1.05v-1.32c0-.8-.3-1.05-.86-1.05h-.83v3.42h.83Z"/>
      <path class="cls-2" d="M200.19,19.65h1.75v11.14h-1.75v-11.14Z"/>
      <path class="cls-2" d="M203.56,19.65h2.2l1.7,6.67h.03v-6.67h1.56v11.14h-1.8l-2.1-8.13h-.03v8.13h-1.56v-11.14Z"/>
      <path class="cls-2" d="M210.55,28.15v-5.86c0-1.78,.89-2.8,2.61-2.8s2.61,1.02,2.61,2.8v.96h-1.66v-1.07c0-.8-.35-1.1-.91-1.1s-.91,.3-.91,1.1v6.1c0,.8,.35,1.08,.91,1.08s.91-.29,.91-1.08v-2.18h-.88v-1.59h2.53v3.64c0,1.78-.89,2.8-2.61,2.8s-2.61-1.02-2.61-2.8Z"/>
    </g>
    <line class="cls-5" x1=".24" y1="220.08" x2="252.72" y2="220.08"/>
    <g>
      <rect class="cls-3" x="96.72" y="35.08" width="120.1" height="19.41"/>
      <g>
        <path class="cls-2" d="M38.8,48.01v-5.98c0-1.72,.89-2.74,2.58-2.74s2.58,1.02,2.58,2.74v1.18h-1.66v-1.29c0-.73-.35-1.03-.88-1.03s-.88,.3-.88,1.03v6.22c0,.73,.35,1.02,.88,1.02s.88-.29,.88-1.02v-1.7h1.66v1.58c0,1.72-.89,2.74-2.58,2.74s-2.58-1.02-2.58-2.74Z"/>
        <path class="cls-2" d="M45.23,47.95v-5.86c0-1.78,.94-2.8,2.66-2.8s2.66,1.02,2.66,2.8v5.86c0,1.78-.94,2.8-2.66,2.8s-2.66-1.02-2.66-2.8Zm3.56,.11v-6.08c0-.8-.35-1.1-.91-1.1s-.91,.3-.91,1.1v6.08c0,.8,.35,1.1,.91,1.1s.91-.3,.91-1.1Z"/>
        <path class="cls-2" d="M51.98,47.95v-8.5h1.75v8.63c0,.8,.33,1.08,.89,1.08s.89-.29,.89-1.08v-8.63h1.69v8.5c0,1.78-.89,2.8-2.61,2.8s-2.61-1.02-2.61-2.8Z"/>
        <path class="cls-2" d="M58.76,39.45h2.2l1.7,6.67h.03v-6.67h1.56v11.14h-1.8l-2.1-8.13h-.03v8.13h-1.56v-11.14Z"/>
        <path class="cls-2" d="M67.24,41.04h-1.83v-1.59h5.41v1.59h-1.83v9.55h-1.75v-9.55Z"/>
        <path class="cls-2" d="M71.98,39.45h2.59c1.81,0,2.59,.84,2.59,2.56v.68c0,1.15-.37,1.88-1.15,2.2v.03c.88,.27,1.16,1.1,1.16,2.36v1.96c0,.54,.02,.94,.19,1.35h-1.78c-.1-.29-.16-.46-.16-1.37v-2.04c0-1.03-.3-1.37-1.1-1.37h-.6v4.77h-1.75v-11.14Zm2.39,4.77c.65,0,1.05-.29,1.05-1.18v-.86c0-.8-.27-1.15-.89-1.15h-.8v3.18h.64Z"/>
        <path class="cls-2" d="M78.71,39.45h1.75v11.14h-1.75v-11.14Z"/>
        <path class="cls-2" d="M82.09,39.45h4.77v1.59h-3.02v2.94h2.4v1.59h-2.4v3.42h3.02v1.59h-4.77v-11.14Z"/>
        <path class="cls-2" d="M87.91,47.95v-.64h1.65v.76c0,.8,.35,1.08,.91,1.08s.91-.29,.91-1.11c0-.92-.35-1.51-1.5-2.51-1.46-1.29-1.94-2.2-1.94-3.47,0-1.75,.91-2.77,2.61-2.77s2.55,1.02,2.55,2.8v.46h-1.66v-.57c0-.8-.32-1.1-.88-1.1s-.88,.3-.88,1.07c0,.81,.37,1.4,1.51,2.4,1.46,1.29,1.93,2.18,1.93,3.56,0,1.81-.92,2.83-2.64,2.83s-2.58-1.02-2.58-2.8Z"/>
        <path class="cls-1" d="M99.75,48.01v-5.98c0-1.72,.89-2.74,2.58-2.74s2.58,1.02,2.58,2.74v1.18h-1.66v-1.29c0-.73-.35-1.03-.88-1.03s-.88,.3-.88,1.03v6.22c0,.73,.35,1.02,.88,1.02s.88-.29,.88-1.02v-1.7h1.66v1.58c0,1.72-.89,2.74-2.58,2.74s-2.58-1.02-2.58-2.74Z"/>
        <path class="cls-1" d="M106.18,47.95v-5.86c0-1.78,.94-2.8,2.66-2.8s2.66,1.02,2.66,2.8v5.86c0,1.78-.94,2.8-2.66,2.8s-2.66-1.02-2.66-2.8Zm3.56,.11v-6.08c0-.8-.35-1.1-.91-1.1s-.91,.3-.91,1.1v6.08c0,.8,.35,1.1,.91,1.1s.91-.3,.91-1.1Z"/>
        <path class="cls-1" d="M112.99,39.45h2.2l1.7,6.67h.03v-6.67h1.56v11.14h-1.8l-2.1-8.13h-.03v8.13h-1.56v-11.14Z"/>
        <path class="cls-1" d="M121.47,41.04h-1.83v-1.59h5.41v1.59h-1.83v9.55h-1.75v-9.55Z"/>
        <path class="cls-1" d="M126.21,39.45h1.75v11.14h-1.75v-11.14Z"/>
        <path class="cls-1" d="M129.58,39.45h2.2l1.7,6.67h.03v-6.67h1.56v11.14h-1.8l-2.1-8.13h-.03v8.13h-1.56v-11.14Z"/>
        <path class="cls-1" d="M136.63,47.95v-8.5h1.75v8.63c0,.8,.33,1.08,.89,1.08s.89-.29,.89-1.08v-8.63h1.69v8.5c0,1.78-.89,2.8-2.61,2.8s-2.61-1.02-2.61-2.8Z"/>
        <path class="cls-1" d="M143.41,39.45h4.77v1.59h-3.02v2.94h2.4v1.59h-2.4v3.42h3.02v1.59h-4.77v-11.14Z"/>
        <path class="cls-1" d="M149.24,47.95v-.64h1.65v.76c0,.8,.35,1.08,.91,1.08s.91-.29,.91-1.11c0-.92-.35-1.51-1.5-2.51-1.46-1.29-1.94-2.2-1.94-3.47,0-1.75,.91-2.77,2.61-2.77s2.55,1.02,2.55,2.8v.46h-1.66v-.57c0-.8-.32-1.1-.88-1.1s-.88,.3-.88,1.07c0,.81,.37,1.4,1.51,2.4,1.46,1.29,1.93,2.18,1.93,3.56,0,1.81-.92,2.83-2.64,2.83s-2.58-1.02-2.58-2.8Z"/>
        <path class="cls-1" d="M160.01,41.04h-1.83v-1.59h5.41v1.59h-1.83v9.55h-1.75v-9.55Z"/>
        <path class="cls-1" d="M164.56,47.95v-5.86c0-1.78,.94-2.8,2.66-2.8s2.66,1.02,2.66,2.8v5.86c0,1.78-.94,2.8-2.66,2.8s-2.66-1.02-2.66-2.8Zm3.56,.11v-6.08c0-.8-.35-1.1-.91-1.1s-.91,.3-.91,1.1v6.08c0,.8,.35,1.1,.91,1.1s.91-.3,.91-1.1Z"/>
        <path class="cls-1" d="M174.23,39.45h2.67c1.75,0,2.61,.97,2.61,2.75v5.63c0,1.78-.86,2.75-2.61,2.75h-2.67v-11.14Zm2.64,9.55c.56,0,.89-.29,.89-1.08v-5.79c0-.8-.33-1.08-.89-1.08h-.89v7.96h.89Z"/>
        <path class="cls-1" d="M181.01,39.45h4.77v1.59h-3.02v2.94h2.4v1.59h-2.4v3.42h3.02v1.59h-4.77v-11.14Z"/>
        <path class="cls-1" d="M187,48.01v-5.98c0-1.72,.89-2.74,2.58-2.74s2.58,1.02,2.58,2.74v1.18h-1.66v-1.29c0-.73-.35-1.03-.88-1.03s-.88,.3-.88,1.03v6.22c0,.73,.35,1.02,.88,1.02s.88-.29,.88-1.02v-1.7h1.66v1.58c0,1.72-.89,2.74-2.58,2.74s-2.58-1.02-2.58-2.74Z"/>
        <path class="cls-1" d="M193.52,39.45h1.75v9.55h2.88v1.59h-4.63v-11.14Z"/>
        <path class="cls-1" d="M199.31,39.45h1.75v11.14h-1.75v-11.14Z"/>
        <path class="cls-1" d="M202.69,39.45h2.2l1.7,6.67h.03v-6.67h1.56v11.14h-1.8l-2.1-8.13h-.03v8.13h-1.56v-11.14Z"/>
        <path class="cls-1" d="M209.8,39.45h4.77v1.59h-3.02v2.94h2.4v1.59h-2.4v3.42h3.02v1.59h-4.77v-11.14Z"/>
      </g>
    </g>
    <g id="Element_1">
      <polyline class="cls-6" points="43.2 76.23 84.61 159.64 126.03 173.81 167.44 187.97 208.85 198.99"/>
    </g>
    <g>
      <path class="cls-3" d="M35.07,.17h1.84V11.87h-1.84V.17Z"/>
      <path class="cls-3" d="M38.61,.17h2.31l1.79,7.01h.03V.17h1.64V11.87h-1.89l-2.21-8.55h-.03V11.87h-1.64V.17Z"/>
      <path class="cls-3" d="M47.52,1.84h-1.92V.17h5.69V1.84h-1.92V11.87h-1.84V1.84Z"/>
      <path class="cls-3" d="M52.5,.17h5.02V1.84h-3.18v3.09h2.53v1.67h-2.53v3.6h3.18v1.67h-5.02V.17Z"/>
      <path class="cls-3" d="M58.9,.17h2.73c1.91,0,2.73,.89,2.73,2.69v.72c0,1.2-.38,1.97-1.2,2.31v.03c.92,.28,1.22,1.15,1.22,2.48v2.06c0,.57,.02,.99,.2,1.42h-1.87c-.1-.3-.17-.48-.17-1.44v-2.14c0-1.09-.32-1.44-1.15-1.44h-.64v5.02h-1.84V.17Zm2.51,5.02c.69,0,1.1-.3,1.1-1.24v-.9c0-.84-.28-1.2-.94-1.2h-.84v3.34h.67Z"/>
      <path class="cls-3" d="M65.98,.17h2.31l1.79,7.01h.03V.17h1.64V11.87h-1.89l-2.21-8.55h-.03V11.87h-1.64V.17Z"/>
      <path class="cls-3" d="M74.87,.17h2.49l1.91,11.71h-1.84l-.33-2.32v.03h-2.09l-.33,2.29h-1.71L74.87,.17Zm2.01,7.83l-.82-5.79h-.03l-.8,5.79h1.66Z"/>
      <path class="cls-3" d="M81.16,1.84h-1.92V.17h5.69V1.84h-1.92V11.87h-1.84V1.84Z"/>
      <path class="cls-3" d="M86.14,.17h1.84V11.87h-1.84V.17Z"/>
      <path class="cls-3" d="M89.55,9.1V2.94c0-1.87,.99-2.94,2.79-2.94s2.79,1.07,2.79,2.94v6.15c0,1.87-.99,2.94-2.79,2.94s-2.79-1.07-2.79-2.94Zm3.75,.12V2.83c0-.84-.37-1.15-.95-1.15s-.95,.32-.95,1.15v6.39c0,.84,.37,1.15,.95,1.15s.95-.32,.95-1.15Z"/>
      <path class="cls-3" d="M96.7,.17h2.31l1.79,7.01h.03V.17h1.64V11.87h-1.89l-2.21-8.55h-.03V11.87h-1.64V.17Z"/>
      <path class="cls-3" d="M105.6,.17h2.49l1.91,11.71h-1.84l-.33-2.32v.03h-2.09l-.33,2.29h-1.71L105.6,.17Zm2.01,7.83l-.82-5.79h-.03l-.8,5.79h1.66Z"/>
      <path class="cls-3" d="M111.21,.17h1.84V10.2h3.03v1.67h-4.87V.17Z"/>
      <path class="cls-3" d="M120.31,.17h2.71c1.84,0,2.74,1.02,2.74,2.89v1.15c0,1.87-.9,2.89-2.74,2.89h-.87v4.77h-1.84V.17Zm2.71,5.27c.59,0,.9-.27,.9-1.1v-1.39c0-.84-.32-1.1-.9-1.1h-.87v3.6h.87Z"/>
      <path class="cls-3" d="M127.03,9.1V.17h1.84V9.23c0,.84,.35,1.14,.94,1.14s.94-.3,.94-1.14V.17h1.77V9.1c0,1.87-.94,2.94-2.74,2.94s-2.74-1.07-2.74-2.94Z"/>
      <path class="cls-3" d="M134.15,.17h2.78c1.91,0,2.73,.89,2.73,2.69v.47c0,1.2-.37,1.96-1.19,2.29v.03c.99,.33,1.37,1.2,1.37,2.44v1c0,1.81-.95,2.78-2.79,2.78h-2.89V.17Zm2.56,4.77c.69,0,1.1-.3,1.1-1.24v-.65c0-.84-.29-1.2-.94-1.2h-.89v3.09h.72Zm.33,5.27c.62,0,.95-.28,.95-1.15v-1.02c0-1.09-.35-1.42-1.19-1.42h-.82v3.6h1.05Z"/>
      <path class="cls-3" d="M141.24,.17h1.84V10.2h3.03v1.67h-4.87V.17Z"/>
      <path class="cls-3" d="M147.32,.17h1.84V11.87h-1.84V.17Z"/>
      <path class="cls-3" d="M150.75,9.17V2.88c0-1.81,.94-2.88,2.71-2.88s2.71,1.07,2.71,2.88v1.24h-1.74v-1.35c0-.77-.37-1.09-.92-1.09s-.92,.32-.92,1.09v6.54c0,.77,.37,1.07,.92,1.07s.92-.3,.92-1.07v-1.79h1.74v1.66c0,1.81-.94,2.88-2.71,2.88s-2.71-1.07-2.71-2.88Z"/>
      <path class="cls-3" d="M160.61,.17h4.87V1.84h-3.03v3.26h2.38v1.67h-2.38v5.1h-1.84V.17Z"/>
      <path class="cls-3" d="M166.7,.17h1.84V11.87h-1.84V.17Z"/>
      <path class="cls-3" d="M170.24,.17h2.31l1.79,7.01h.03V.17h1.64V11.87h-1.89l-2.21-8.55h-.03V11.87h-1.64V.17Z"/>
      <path class="cls-3" d="M179.13,.17h2.49l1.91,11.71h-1.84l-.33-2.32v.03h-2.09l-.33,2.29h-1.71l1.91-11.71Zm2.01,7.83l-.82-5.79h-.03l-.8,5.79h1.66Z"/>
      <path class="cls-3" d="M184.75,.17h2.31l1.79,7.01h.03V.17h1.64V11.87h-1.89l-2.21-8.55h-.03V11.87h-1.64V.17Z"/>
      <path class="cls-3" d="M192.1,9.17V2.88c0-1.81,.94-2.88,2.71-2.88s2.71,1.07,2.71,2.88v1.24h-1.74v-1.35c0-.77-.37-1.09-.92-1.09s-.92,.32-.92,1.09v6.54c0,.77,.37,1.07,.92,1.07s.92-.3,.92-1.07v-1.79h1.74v1.66c0,1.81-.94,2.88-2.71,2.88s-2.71-1.07-2.71-2.88Z"/>
      <path class="cls-3" d="M198.96,.17h1.84V11.87h-1.84V.17Z"/>
      <path class="cls-3" d="M202.5,.17h2.31l1.79,7.01h.03V.17h1.64V11.87h-1.89l-2.21-8.55h-.03V11.87h-1.64V.17Z"/>
      <path class="cls-3" d="M209.84,9.1V2.94c0-1.87,.94-2.94,2.74-2.94s2.74,1.07,2.74,2.94v1h-1.74v-1.12c0-.84-.37-1.15-.95-1.15s-.95,.32-.95,1.15v6.4c0,.84,.37,1.14,.95,1.14s.95-.3,.95-1.14v-2.29h-.92v-1.67h2.66v3.83c0,1.87-.94,2.94-2.74,2.94s-2.74-1.07-2.74-2.94Z"/>
    </g>
    <g>
      <circle class="cls-8" cx="43.33" cy="76.42" r="12.64"/>
      <g>
        <path class="cls-1" d="M35.9,75.55c-.77-.16-1.16-.75-1.16-1.6v-.45h1.01v.52c0,.42,.21,.59,.55,.59s.55-.17,.55-.61c0-.49-.19-.84-.91-1.4-.88-.69-1.18-1.23-1.18-1.97,0-.83,.38-1.41,1.13-1.57v-.59h.88v.59c.76,.16,1.15,.74,1.15,1.59v.19h-1.01v-.26c0-.42-.19-.6-.54-.6s-.53,.18-.53,.58c0,.45,.19,.79,.91,1.36,.87,.7,1.18,1.23,1.18,2.01,0,.88-.4,1.47-1.16,1.62v.68h-.88v-.68Z"/>
        <path class="cls-1" d="M38.66,74.96c0-.97,.27-1.56,1.07-2.4,.82-.86,1.05-1.38,1.05-2.01s-.21-.78-.55-.78-.55,.18-.55,.67v.73h-1.01v-.66c0-1.09,.54-1.71,1.59-1.71s1.59,.62,1.59,1.71c0,.81-.33,1.53-1.32,2.58-.64,.68-.81,1.02-.81,1.5v.15h2.03v.97h-3.09v-.74Z"/>
        <path class="cls-1" d="M42.52,74.09v-3.52c0-1.15,.53-1.77,1.63-1.77,1.05,0,1.59,.62,1.59,1.71v.13h-1.01v-.19c0-.49-.21-.67-.55-.67-.38,0-.59,.18-.59,.84v1.3h.02c.18-.39,.5-.59,.97-.59,.79,0,1.19,.55,1.19,1.56v1.22c0,1.09-.57,1.71-1.62,1.71s-1.62-.62-1.62-1.71Zm2.18,.08v-1.21c0-.46-.18-.67-.55-.67s-.55,.21-.55,.67v1.21c0,.45,.18,.66,.55,.66s.55-.21,.55-.66Z"/>
        <path class="cls-1" d="M46.46,74.67h1.03v1.03h-1.03v-1.03Z"/>
        <path class="cls-1" d="M50.08,74.47h-2.04v-.97l1.94-4.6h1.17v4.6h.51v.97h-.51v1.23h-1.07v-1.23Zm0-.97v-2.65h-.02l-1.05,2.65h1.07Z"/>
      </g>
      <g>
        <path class="cls-1" d="M34.82,77.74h1.16c.8,0,1.14,.37,1.14,1.13v.2c0,.5-.15,.82-.5,.96h0c.41,.15,.57,.52,.57,1.04v.42c0,.76-.4,1.16-1.17,1.16h-1.21v-4.9Zm1.07,2c.29,0,.46-.13,.46-.52v-.27c0-.35-.12-.5-.39-.5h-.37v1.3h.3Zm.14,2.21c.26,0,.4-.12,.4-.48v-.43c0-.46-.15-.59-.5-.59h-.34v1.51h.44Z"/>
        <path class="cls-1" d="M37.87,77.74h.77v4.9h-.77v-4.9Z"/>
        <path class="cls-1" d="M39.39,77.74h.77v4.2h1.27v.7h-2.04v-4.9Z"/>
        <path class="cls-1" d="M42.05,77.74h.77v4.2h1.27v.7h-2.04v-4.9Z"/>
        <path class="cls-1" d="M44.71,77.74h.77v4.9h-.77v-4.9Z"/>
        <path class="cls-1" d="M46.19,81.48v-2.58c0-.78,.41-1.23,1.17-1.23s1.17,.45,1.17,1.23v2.58c0,.79-.41,1.23-1.17,1.23s-1.17-.45-1.17-1.23Zm1.57,.05v-2.68c0-.35-.15-.48-.4-.48s-.4,.13-.4,.48v2.68c0,.35,.15,.48,.4,.48s.4-.13,.4-.48Z"/>
        <path class="cls-1" d="M49.24,77.74h.97l.75,2.93h.01v-2.93h.69v4.9h-.79l-.92-3.58h-.01v3.58h-.69v-4.9Z"/>
      </g>
    </g>
    <g>
      <circle class="cls-8" cx="84.55" cy="159.42" r="12.64"/>
      <g>
        <path class="cls-1" d="M77.32,158.56c-.77-.16-1.16-.75-1.16-1.6v-.45h1.01v.52c0,.42,.21,.59,.55,.59s.55-.17,.55-.61c0-.49-.19-.84-.91-1.4-.87-.69-1.18-1.23-1.18-1.97,0-.83,.38-1.41,1.13-1.57v-.59h.88v.59c.76,.16,1.15,.74,1.15,1.59v.19h-1.01v-.26c0-.42-.19-.6-.54-.6s-.53,.18-.53,.58c0,.45,.19,.79,.91,1.36,.87,.7,1.18,1.23,1.18,2.01,0,.88-.4,1.47-1.16,1.62v.68h-.88v-.68Z"/>
        <path class="cls-1" d="M81.21,153.52h-1.12v-.76c.9,0,1.22-.19,1.47-.85h.72v6.8h-1.07v-5.19Z"/>
        <path class="cls-1" d="M83.57,157.09v-.53h1.01v.61c0,.49,.21,.66,.55,.66s.55-.17,.55-.66v-1.53c0-.49-.21-.67-.55-.67s-.55,.18-.55,.67v.06h-1.01l.19-3.8h2.82v.97h-1.87l-.09,1.62h.02c.19-.32,.5-.5,.92-.5,.79,0,1.19,.55,1.19,1.56v1.54c0,1.09-.54,1.71-1.59,1.71s-1.59-.62-1.59-1.71Z"/>
        <path class="cls-1" d="M87.49,157.68h1.03v1.03h-1.03v-1.03Z"/>
        <path class="cls-1" d="M89.19,157.12v-.6c0-.65,.19-1.13,.7-1.39v-.02c-.45-.24-.66-.67-.66-1.34v-.28c0-1.09,.59-1.68,1.63-1.68s1.63,.59,1.63,1.68v.28c0,.67-.22,1.1-.66,1.34v.02c.51,.26,.7,.74,.7,1.39v.6c0,1.09-.59,1.68-1.67,1.68s-1.67-.59-1.67-1.68Zm2.27-.06v-.65c0-.52-.2-.77-.6-.77s-.6,.25-.6,.77v.65c0,.52,.2,.77,.6,.77s.6-.25,.6-.77Zm-.04-3.07v-.53c0-.45-.19-.68-.56-.68s-.56,.23-.56,.68v.53c0,.45,.19,.68,.56,.68s.56-.23,.56-.68Z"/>
      </g>
      <g>
        <path class="cls-1" d="M76.04,160.75h1.16c.8,0,1.14,.37,1.14,1.13v.2c0,.5-.15,.82-.5,.96h0c.41,.15,.57,.52,.57,1.04v.42c0,.76-.4,1.16-1.17,1.16h-1.21v-4.9Zm1.07,2c.29,0,.46-.13,.46-.52v-.27c0-.35-.12-.5-.39-.5h-.37v1.3h.3Zm.14,2.21c.26,0,.4-.12,.4-.48v-.43c0-.46-.15-.59-.5-.59h-.34v1.51h.44Z"/>
        <path class="cls-1" d="M79.09,160.75h.77v4.9h-.77v-4.9Z"/>
        <path class="cls-1" d="M80.61,160.75h.77v4.2h1.27v.7h-2.04v-4.9Z"/>
        <path class="cls-1" d="M83.27,160.75h.77v4.2h1.27v.7h-2.04v-4.9Z"/>
        <path class="cls-1" d="M85.93,160.75h.77v4.9h-.77v-4.9Z"/>
        <path class="cls-1" d="M87.42,164.49v-2.58c0-.78,.41-1.23,1.17-1.23s1.17,.45,1.17,1.23v2.58c0,.79-.41,1.23-1.17,1.23s-1.17-.45-1.17-1.23Zm1.57,.05v-2.68c0-.35-.15-.48-.4-.48s-.4,.13-.4,.48v2.68c0,.35,.15,.48,.4,.48s.4-.13,.4-.48Z"/>
        <path class="cls-1" d="M90.47,160.75h.97l.75,2.93h.01v-2.93h.69v4.9h-.79l-.92-3.58h-.01v3.58h-.69v-4.9Z"/>
      </g>
    </g>
    <g>
      <circle class="cls-8" cx="125.72" cy="174.12" r="12.64"/>
      <g>
        <path class="cls-1" d="M118.48,173.26c-.77-.16-1.16-.75-1.16-1.6v-.45h1.01v.52c0,.42,.21,.59,.55,.59s.55-.17,.55-.61c0-.49-.19-.84-.91-1.4-.87-.69-1.18-1.23-1.18-1.97,0-.83,.38-1.41,1.13-1.57v-.59h.88v.59c.76,.16,1.15,.74,1.15,1.59v.19h-1.01v-.26c0-.42-.19-.6-.54-.6s-.53,.18-.53,.58c0,.45,.19,.79,.91,1.36,.87,.7,1.18,1.23,1.18,2.01,0,.88-.4,1.47-1.16,1.62v.68h-.88v-.68Z"/>
        <path class="cls-1" d="M122.37,168.22h-1.12v-.76c.9,0,1.22-.19,1.47-.85h.72v6.8h-1.07v-5.19Z"/>
        <path class="cls-1" d="M126.56,172.17h-2.04v-.97l1.94-4.6h1.17v4.6h.51v.97h-.51v1.23h-1.07v-1.23Zm0-.97v-2.65h-.02l-1.05,2.65h1.07Z"/>
        <path class="cls-1" d="M128.66,172.38h1.03v1.03h-1.03v-1.03Z"/>
        <path class="cls-1" d="M130.41,171.79v-3.58c0-1.09,.57-1.71,1.62-1.71s1.62,.62,1.62,1.71v3.58c0,1.09-.57,1.71-1.62,1.71s-1.62-.62-1.62-1.71Zm2.18,.07v-3.71c0-.49-.21-.67-.55-.67s-.55,.18-.55,.67v3.71c0,.49,.21,.67,.55,.67s.55-.18,.55-.67Z"/>
      </g>
      <g>
        <path class="cls-1" d="M117.21,175.45h1.16c.8,0,1.14,.37,1.14,1.13v.2c0,.5-.15,.82-.5,.96h0c.41,.15,.57,.52,.57,1.04v.42c0,.76-.4,1.16-1.17,1.16h-1.21v-4.9Zm1.07,2c.29,0,.46-.13,.46-.52v-.27c0-.35-.12-.5-.39-.5h-.37v1.3h.3Zm.14,2.21c.26,0,.4-.12,.4-.48v-.43c0-.46-.15-.59-.5-.59h-.34v1.51h.44Z"/>
        <path class="cls-1" d="M120.25,175.45h.77v4.9h-.77v-4.9Z"/>
        <path class="cls-1" d="M121.77,175.45h.77v4.2h1.27v.7h-2.04v-4.9Z"/>
        <path class="cls-1" d="M124.44,175.45h.77v4.2h1.27v.7h-2.04v-4.9Z"/>
        <path class="cls-1" d="M127.1,175.45h.77v4.9h-.77v-4.9Z"/>
        <path class="cls-1" d="M128.58,179.19v-2.58c0-.78,.41-1.23,1.17-1.23s1.17,.45,1.17,1.23v2.58c0,.79-.41,1.23-1.17,1.23s-1.17-.45-1.17-1.23Zm1.57,.05v-2.68c0-.35-.15-.48-.4-.48s-.4,.13-.4,.48v2.68c0,.35,.15,.48,.4,.48s.4-.13,.4-.48Z"/>
        <path class="cls-1" d="M131.63,175.45h.97l.75,2.93h.01v-2.93h.69v4.9h-.79l-.92-3.58h-.01v3.58h-.69v-4.9Z"/>
      </g>
    </g>
    <g>
      <circle class="cls-4" cx="167.62" cy="188.64" r="12.64"/>
      <g>
        <path class="cls-1" d="M160.38,187.78c-.77-.16-1.16-.75-1.16-1.6v-.45h1.01v.52c0,.42,.21,.59,.55,.59s.55-.17,.55-.61c0-.49-.19-.84-.91-1.4-.87-.69-1.18-1.23-1.18-1.97,0-.83,.38-1.41,1.13-1.57v-.59h.88v.59c.76,.16,1.15,.74,1.15,1.59v.19h-1.01v-.26c0-.42-.19-.6-.54-.6s-.53,.18-.53,.58c0,.45,.19,.79,.91,1.36,.87,.7,1.18,1.23,1.18,2.01,0,.88-.4,1.47-1.16,1.62v.68h-.88v-.68Z"/>
        <path class="cls-1" d="M164.27,182.73h-1.12v-.76c.9,0,1.22-.19,1.47-.85h.72v6.8h-1.07v-5.19Z"/>
        <path class="cls-1" d="M166.65,187.19c0-.97,.27-1.56,1.07-2.4,.82-.86,1.05-1.38,1.05-2.01s-.21-.78-.55-.78-.55,.18-.55,.67v.73h-1.01v-.66c0-1.09,.54-1.71,1.59-1.71s1.59,.62,1.59,1.71c0,.81-.33,1.53-1.32,2.58-.64,.68-.81,1.02-.81,1.5v.15h2.03v.97h-3.09v-.74Z"/>
        <path class="cls-1" d="M170.56,186.9h1.03v1.03h-1.03v-1.03Z"/>
        <path class="cls-1" d="M172.36,187.19c0-.97,.27-1.56,1.07-2.4,.82-.86,1.05-1.38,1.05-2.01s-.21-.78-.55-.78-.55,.18-.55,.67v.73h-1.01v-.66c0-1.09,.54-1.71,1.59-1.71s1.59,.62,1.59,1.71c0,.81-.33,1.53-1.32,2.58-.64,.68-.81,1.02-.81,1.5v.15h2.03v.97h-3.09v-.74Z"/>
      </g>
      <g>
        <path class="cls-1" d="M159.11,189.97h1.16c.8,0,1.14,.37,1.14,1.13v.2c0,.5-.15,.82-.5,.96h0c.41,.15,.57,.52,.57,1.04v.42c0,.76-.4,1.16-1.17,1.16h-1.21v-4.9Zm1.07,2c.29,0,.46-.13,.46-.52v-.27c0-.35-.12-.5-.39-.5h-.37v1.3h.3Zm.14,2.21c.26,0,.4-.12,.4-.48v-.43c0-.46-.15-.59-.5-.59h-.34v1.51h.44Z"/>
        <path class="cls-1" d="M162.15,189.97h.77v4.9h-.77v-4.9Z"/>
        <path class="cls-1" d="M163.67,189.97h.77v4.2h1.27v.7h-2.04v-4.9Z"/>
        <path class="cls-1" d="M166.34,189.97h.77v4.2h1.27v.7h-2.04v-4.9Z"/>
        <path class="cls-1" d="M169,189.97h.77v4.9h-.77v-4.9Z"/>
        <path class="cls-1" d="M170.48,193.71v-2.58c0-.78,.41-1.23,1.17-1.23s1.17,.45,1.17,1.23v2.58c0,.79-.41,1.23-1.17,1.23s-1.17-.45-1.17-1.23Zm1.57,.05v-2.68c0-.35-.15-.48-.4-.48s-.4,.13-.4,.48v2.68c0,.35,.15,.48,.4,.48s.4-.13,.4-.48Z"/>
        <path class="cls-1" d="M173.53,189.97h.97l.75,2.93h.01v-2.93h.69v4.9h-.79l-.92-3.58h-.01v3.58h-.69v-4.9Z"/>
      </g>
    </g>
    <g>
      <circle class="cls-11" cx="208.41" cy="199.48" r="12.64"/>
      <g>
        <path class="cls-1" d="M201.18,198.62c-.77-.16-1.16-.75-1.16-1.6v-.45h1.01v.52c0,.42,.21,.59,.55,.59s.55-.17,.55-.61c0-.49-.19-.84-.91-1.4-.87-.69-1.18-1.23-1.18-1.97,0-.83,.38-1.41,1.13-1.57v-.59h.88v.59c.76,.16,1.15,.74,1.15,1.59v.19h-1.01v-.26c0-.42-.19-.6-.54-.6s-.53,.18-.53,.58c0,.45,.19,.79,.91,1.36,.87,.7,1.18,1.23,1.18,2.01,0,.88-.4,1.47-1.16,1.62v.68h-.88v-.68Z"/>
        <path class="cls-1" d="M205.07,193.58h-1.12v-.76c.9,0,1.22-.19,1.47-.85h.72v6.8h-1.07v-5.19Z"/>
        <path class="cls-1" d="M207.39,197.15v-3.58c0-1.09,.57-1.71,1.62-1.71s1.62,.62,1.62,1.71v3.58c0,1.09-.57,1.71-1.62,1.71s-1.62-.62-1.62-1.71Zm2.18,.07v-3.71c0-.49-.21-.67-.55-.67s-.55,.18-.55,.67v3.71c0,.49,.21,.67,.55,.67s.55-.18,.55-.67Z"/>
        <path class="cls-1" d="M211.35,197.74h1.03v1.03h-1.03v-1.03Z"/>
        <path class="cls-1" d="M213.06,197.18v-.6c0-.65,.19-1.13,.7-1.39v-.02c-.45-.24-.66-.67-.66-1.34v-.28c0-1.09,.59-1.68,1.63-1.68s1.63,.59,1.63,1.68v.28c0,.67-.22,1.1-.66,1.34v.02c.51,.26,.7,.74,.7,1.39v.6c0,1.09-.59,1.68-1.67,1.68s-1.67-.59-1.67-1.68Zm2.27-.06v-.65c0-.52-.2-.77-.6-.77s-.6,.25-.6,.77v.65c0,.52,.2,.77,.6,.77s.6-.25,.6-.77Zm-.04-3.07v-.53c0-.45-.19-.68-.56-.68s-.56,.23-.56,.68v.53c0,.45,.19,.68,.56,.68s.56-.23,.56-.68Z"/>
      </g>
      <g>
        <path class="cls-1" d="M199.9,200.81h1.16c.8,0,1.14,.37,1.14,1.13v.2c0,.5-.15,.82-.5,.96h0c.41,.15,.57,.52,.57,1.04v.42c0,.76-.4,1.16-1.17,1.16h-1.21v-4.9Zm1.07,2c.29,0,.46-.13,.46-.52v-.27c0-.35-.12-.5-.39-.5h-.37v1.3h.3Zm.14,2.21c.26,0,.4-.12,.4-.48v-.43c0-.46-.15-.59-.5-.59h-.34v1.51h.44Z"/>
        <path class="cls-1" d="M202.95,200.81h.77v4.9h-.77v-4.9Z"/>
        <path class="cls-1" d="M204.47,200.81h.77v4.2h1.27v.7h-2.04v-4.9Z"/>
        <path class="cls-1" d="M207.13,200.81h.77v4.2h1.27v.7h-2.04v-4.9Z"/>
        <path class="cls-1" d="M209.79,200.81h.77v4.9h-.77v-4.9Z"/>
        <path class="cls-1" d="M211.28,204.55v-2.58c0-.78,.41-1.23,1.17-1.23s1.17,.45,1.17,1.23v2.58c0,.79-.41,1.23-1.17,1.23s-1.17-.45-1.17-1.23Zm1.57,.05v-2.68c0-.35-.15-.48-.4-.48s-.4,.13-.4,.48v2.68c0,.35,.15,.48,.4,.48s.4-.13,.4-.48Z"/>
        <path class="cls-1" d="M214.33,200.81h.97l.75,2.93h.01v-2.93h.69v4.9h-.79l-.92-3.58h-.01v3.58h-.69v-4.9Z"/>
      </g>
    </g>
  </g>
</svg>