<?xml version="1.0" encoding="UTF-8"?>
<svg id="Layer_2" data-name="Layer 2" xmlns="http://www.w3.org/2000/svg" viewBox="0 0 527.98 134.88">
  <defs>
    <style>
      .cls-1, .cls-2 {
        fill: #d8b7b4;
      }

      .cls-3 {
        fill: #fff;
      }

      .cls-4 {
        fill: #939598;
      }

      .cls-5 {
        fill: #a55056;
      }

      .cls-6 {
        fill: #bd7f7f;
      }

      .cls-7 {
        fill: #8f1838;
      }

      .cls-8 {
        fill: #7c3a3f;
      }

      .cls-2 {
        opacity: .4;
      }

      .cls-9 {
        fill: none;
        stroke: #939598;
        stroke-miterlimit: 10;
        stroke-width: .25px;
      }

      .cls-10 {
        fill: #7c393f;
      }
    </style>
  </defs>
  <g id="Layer_2-2" data-name="Layer 2">
    <path class="cls-2" d="M527.58,44.43l-.22-.19-.33-.29-35.68-22.55-.58-.48c-.25-.17-.55-.26-.86-.27-.86,0-1.56,.7-1.57,1.57v.66s0,9.96,0,9.96l-118.87,1.79-118.87-6.94L131.24,.32c-3.81-.87-7.82,.06-10.85,2.54L0,101.35l16.03,19.6L131.62,26.38l114.35,26.22c.69,.16,1.39,.26,2.09,.3l120.39,7.03c.31,.02,.62,.03,.93,.02l118.95-1.79v11c0,.86,.7,1.56,1.56,1.55,.41,0,.76-.15,1.03-.4l.1-.09,36.12-23.33,.34-.3c.3-.27,.51-.69,.5-1.15,0-.39-.17-.74-.39-1.01Z"/>
    <rect class="cls-7" x="82.97" y="73.64" width="170.05" height="28.44"/>
    <g>
      <path class="cls-7" d="M.67,30.69v-12.42c0-3.78,1.89-5.94,5.54-5.94s5.54,2.16,5.54,5.94v2.03h-3.51v-2.26c0-1.69-.74-2.33-1.92-2.33s-1.92,.64-1.92,2.33v12.93c0,1.69,.74,2.3,1.92,2.3s1.92-.61,1.92-2.3v-4.62h-1.86v-3.38h5.37v7.73c0,3.78-1.89,5.94-5.54,5.94S.67,34.47,.67,30.69Z"/>
      <path class="cls-7" d="M14.69,12.66h3.71v20.25h6.11v3.38H14.69V12.66Z"/>
      <path class="cls-7" d="M26.45,30.69v-12.42c0-3.78,1.99-5.94,5.64-5.94s5.64,2.16,5.64,5.94v12.42c0,3.78-1.99,5.94-5.64,5.94s-5.64-2.16-5.64-5.94Zm7.56,.24v-12.89c0-1.69-.74-2.33-1.92-2.33s-1.92,.64-1.92,2.33v12.89c0,1.69,.74,2.33,1.92,2.33s1.92-.64,1.92-2.33Z"/>
      <path class="cls-7" d="M40.77,12.66h5.6c3.85,0,5.5,1.79,5.5,5.43v.94c0,2.43-.74,3.95-2.4,4.62v.07c1.99,.67,2.77,2.43,2.77,4.93v2.02c0,3.65-1.92,5.6-5.64,5.6h-5.84V12.66Zm5.16,9.62c1.38,0,2.23-.61,2.23-2.5v-1.32c0-1.69-.57-2.43-1.89-2.43h-1.79v6.24h1.45Zm.67,10.63c1.25,0,1.92-.57,1.92-2.33v-2.06c0-2.19-.71-2.87-2.4-2.87h-1.65v7.26h2.13Z"/>
      <path class="cls-7" d="M57.83,12.66h5.03l3.85,23.63h-3.71l-.67-4.69v.07h-4.22l-.67,4.62h-3.44l3.85-23.63Zm4.05,15.8l-1.65-11.68h-.07l-1.62,11.68h3.34Z"/>
      <path class="cls-7" d="M69.04,12.66h3.71v20.25h6.11v3.38h-9.82V12.66Z"/>
      <path class="cls-7" d="M87.15,12.66h10.13v3.38h-6.41v6.24h5.1v3.38h-5.1v7.26h6.41v3.38h-10.13V12.66Z"/>
      <path class="cls-7" d="M99.72,30.82v-12.69c0-3.65,1.89-5.81,5.47-5.81s5.47,2.16,5.47,5.81v2.5h-3.51v-2.73c0-1.55-.74-2.19-1.86-2.19s-1.86,.64-1.86,2.19v13.2c0,1.55,.74,2.16,1.86,2.16s1.86-.61,1.86-2.16v-3.61h3.51v3.34c0,3.65-1.89,5.81-5.47,5.81s-5.47-2.16-5.47-5.81Z"/>
      <path class="cls-7" d="M113.23,30.69v-12.42c0-3.78,1.99-5.94,5.64-5.94s5.64,2.16,5.64,5.94v12.42c0,3.78-1.99,5.94-5.64,5.94s-5.64-2.16-5.64-5.94Zm7.56,.24v-12.89c0-1.69-.74-2.33-1.92-2.33s-1.92,.64-1.92,2.33v12.89c0,1.69,.74,2.33,1.92,2.33s1.92-.64,1.92-2.33Z"/>
      <path class="cls-7" d="M127.55,12.66h4.66l3.61,14.14h.07V12.66h3.31v23.63h-3.81l-4.46-17.25h-.07v17.25h-3.31V12.66Z"/>
      <path class="cls-7" d="M142.25,30.69v-12.42c0-3.78,1.99-5.94,5.64-5.94s5.64,2.16,5.64,5.94v12.42c0,3.78-1.99,5.94-5.64,5.94s-5.64-2.16-5.64-5.94Zm7.56,.24v-12.89c0-1.69-.74-2.33-1.92-2.33s-1.92,.64-1.92,2.33v12.89c0,1.69,.74,2.33,1.92,2.33s1.92-.64,1.92-2.33Z"/>
      <path class="cls-7" d="M156.57,12.66h5.3l2.36,16.91h.07l2.36-16.91h5.3v23.63h-3.51V18.4h-.07l-2.7,17.89h-3.11l-2.7-17.89h-.07v17.89h-3.24V12.66Z"/>
      <path class="cls-7" d="M175.28,12.66h3.71v23.63h-3.71V12.66Z"/>
      <path class="cls-7" d="M182.07,30.82v-12.69c0-3.65,1.89-5.81,5.47-5.81s5.47,2.16,5.47,5.81v2.5h-3.51v-2.73c0-1.55-.74-2.19-1.86-2.19s-1.86,.64-1.86,2.19v13.2c0,1.55,.74,2.16,1.86,2.16s1.86-.61,1.86-2.16v-3.61h3.51v3.34c0,3.65-1.89,5.81-5.47,5.81s-5.47-2.16-5.47-5.81Z"/>
      <path class="cls-7" d="M.94,44.31H6.44c3.85,0,5.5,1.79,5.5,5.43v1.45c0,2.43-.78,3.98-2.43,4.66v.07c1.86,.57,2.46,2.33,2.46,5v4.15c0,1.15,.03,1.99,.41,2.87h-3.78c-.2-.61-.34-.98-.34-2.9v-4.32c0-2.19-.64-2.9-2.33-2.9h-1.28v10.13H.94v-23.63Zm5.06,10.13c1.38,0,2.23-.61,2.23-2.5v-1.82c0-1.69-.57-2.43-1.89-2.43h-1.69v6.75h1.35Z"/>
      <path class="cls-7" d="M15.22,44.31h10.13v3.38h-6.41v6.24h5.1v3.38h-5.1v7.26h6.41v3.38H15.22v-23.63Z"/>
      <path class="cls-7" d="M27.92,62.47v-12.69c0-3.65,1.89-5.81,5.47-5.81s5.47,2.16,5.47,5.81v2.5h-3.51v-2.73c0-1.55-.74-2.19-1.86-2.19s-1.86,.64-1.86,2.19v13.2c0,1.55,.74,2.16,1.86,2.16s1.86-.61,1.86-2.16v-3.61h3.51v3.34c0,3.65-1.89,5.81-5.47,5.81s-5.47-2.16-5.47-5.81Z"/>
      <path class="cls-7" d="M41.55,62.34v-12.42c0-3.78,1.99-5.94,5.64-5.94s5.64,2.16,5.64,5.94v12.42c0,3.78-1.99,5.94-5.64,5.94s-5.64-2.16-5.64-5.94Zm7.56,.24v-12.89c0-1.69-.74-2.33-1.92-2.33s-1.92,.64-1.92,2.33v12.89c0,1.69,.74,2.33,1.92,2.33s1.92-.64,1.92-2.33Z"/>
      <path class="cls-7" d="M54.96,44.31h3.75l2.43,18.33h.07l2.43-18.33h3.41l-3.58,23.63h-4.93l-3.58-23.63Z"/>
      <path class="cls-7" d="M69.51,44.31h10.13v3.38h-6.41v6.24h5.1v3.38h-5.1v7.26h6.41v3.38h-10.13v-23.63Z"/>
      <path class="cls-7" d="M82.44,44.31h5.5c3.85,0,5.5,1.79,5.5,5.43v1.45c0,2.43-.78,3.98-2.43,4.66v.07c1.86,.57,2.46,2.33,2.46,5v4.15c0,1.15,.03,1.99,.41,2.87h-3.78c-.2-.61-.34-.98-.34-2.9v-4.32c0-2.19-.64-2.9-2.33-2.9h-1.28v10.13h-3.71v-23.63Zm5.06,10.13c1.38,0,2.23-.61,2.23-2.5v-1.82c0-1.69-.57-2.43-1.89-2.43h-1.69v6.75h1.35Z"/>
      <path class="cls-7" d="M99.59,57.88l-4.49-13.57h3.95l2.53,8.67h.07l2.53-8.67h3.61l-4.49,13.57v10.06h-3.71v-10.06Z"/>
      <path class="cls-7" d="M115.99,62.47v-12.69c0-3.65,1.89-5.81,5.47-5.81s5.47,2.16,5.47,5.81v2.5h-3.51v-2.73c0-1.55-.74-2.19-1.86-2.19s-1.86,.64-1.86,2.19v13.2c0,1.55,.74,2.16,1.86,2.16s1.86-.61,1.86-2.16v-3.61h3.51v3.34c0,3.65-1.89,5.81-5.47,5.81s-5.47-2.16-5.47-5.81Z"/>
      <path class="cls-7" d="M129.63,62.34v-12.42c0-3.78,1.99-5.94,5.64-5.94s5.64,2.16,5.64,5.94v12.42c0,3.78-1.99,5.94-5.64,5.94s-5.64-2.16-5.64-5.94Zm7.56,.24v-12.89c0-1.69-.74-2.33-1.92-2.33s-1.92,.64-1.92,2.33v12.89c0,1.69,.74,2.33,1.92,2.33s1.92-.64,1.92-2.33Z"/>
      <path class="cls-7" d="M144.08,44.31h4.66l3.61,14.14h.07v-14.14h3.31v23.63h-3.81l-4.46-17.25h-.07v17.25h-3.31v-23.63Z"/>
      <path class="cls-7" d="M162.07,47.69h-3.88v-3.38h11.48v3.38h-3.88v20.25h-3.71v-20.25Z"/>
      <path class="cls-7" d="M172.13,44.31h3.71v23.63h-3.71v-23.63Z"/>
      <path class="cls-7" d="M179.29,44.31h4.66l3.61,14.14h.07v-14.14h3.31v23.63h-3.81l-4.46-17.25h-.07v17.25h-3.31v-23.63Z"/>
      <path class="cls-7" d="M194.25,62.34v-18.02h3.71v18.29c0,1.69,.71,2.3,1.89,2.3s1.89-.61,1.89-2.3v-18.29h3.58v18.02c0,3.78-1.89,5.94-5.54,5.94s-5.54-2.16-5.54-5.94Z"/>
      <path class="cls-7" d="M208.63,44.31h10.13v3.38h-6.41v6.24h5.1v3.38h-5.1v7.26h6.41v3.38h-10.13v-23.63Z"/>
      <path class="cls-7" d="M220.98,62.34v-1.35h3.51v1.62c0,1.69,.74,2.3,1.92,2.3s1.92-.61,1.92-2.36c0-1.96-.74-3.21-3.17-5.33-3.11-2.73-4.12-4.66-4.12-7.36,0-3.71,1.92-5.87,5.54-5.87s5.4,2.16,5.4,5.94v.98h-3.51v-1.22c0-1.69-.67-2.33-1.86-2.33s-1.86,.64-1.86,2.26c0,1.72,.78,2.97,3.21,5.1,3.11,2.73,4.08,4.62,4.08,7.56,0,3.85-1.96,6.01-5.6,6.01s-5.47-2.16-5.47-5.94Z"/>
      <path class="cls-7" d="M236.07,67.94h-1.21v-3.58h3.58v3.21l-1.86,4.42h-1.72l1.21-4.05Z"/>
      <path class="cls-4" d="M.68,78.27H5.24c3.13,0,4.47,1.45,4.47,4.42v.77c0,1.98-.6,3.21-1.95,3.76v.05c1.62,.55,2.25,1.98,2.25,4.01v1.65c0,2.96-1.56,4.55-4.58,4.55H.68v-19.2Zm4.2,7.82c1.12,0,1.81-.49,1.81-2.03v-1.07c0-1.37-.47-1.98-1.54-1.98h-1.45v5.08h1.18Zm.55,8.64c1.02,0,1.56-.47,1.56-1.89v-1.67c0-1.78-.58-2.33-1.95-2.33h-1.34v5.9h1.73Z"/>
      <path class="cls-4" d="M12.2,92.92v-14.65h3.02v14.87c0,1.37,.58,1.87,1.54,1.87s1.54-.49,1.54-1.87v-14.87h2.91v14.65c0,3.07-1.54,4.83-4.5,4.83s-4.5-1.76-4.5-4.83Z"/>
      <path class="cls-4" d="M26.25,81.02h-3.16v-2.74h9.33v2.74h-3.16v16.46h-3.02v-16.46Z"/>
      <path class="cls-4" d="M39.14,92.92v-10.1c0-3.07,1.62-4.83,4.58-4.83s4.58,1.76,4.58,4.83v10.1c0,3.07-1.62,4.83-4.58,4.83s-4.58-1.76-4.58-4.83Zm6.15,.19v-10.48c0-1.37-.6-1.89-1.56-1.89s-1.56,.52-1.56,1.89v10.48c0,1.37,.6,1.89,1.56,1.89s1.56-.52,1.56-1.89Z"/>
      <path class="cls-4" d="M50.88,78.27h3.79l2.94,11.5h.05v-11.5h2.69v19.2h-3.1l-3.62-14.02h-.05v14.02h-2.69v-19.2Z"/>
      <path class="cls-4" d="M70.41,78.27h4.09l3.13,19.2h-3.02l-.55-3.81v.05h-3.43l-.55,3.76h-2.8l3.13-19.2Zm3.29,12.84l-1.34-9.49h-.05l-1.32,9.49h2.72Z"/>
      <path class="cls-3" d="M88.97,92.92v-1.1h2.85v1.32c0,1.37,.6,1.87,1.56,1.87s1.56-.49,1.56-1.92c0-1.59-.6-2.61-2.58-4.33-2.52-2.22-3.35-3.79-3.35-5.98,0-3.02,1.56-4.77,4.5-4.77s4.39,1.76,4.39,4.83v.8h-2.85v-.99c0-1.37-.55-1.89-1.51-1.89s-1.51,.52-1.51,1.84c0,1.4,.63,2.41,2.61,4.14,2.52,2.22,3.32,3.76,3.32,6.15,0,3.13-1.59,4.88-4.55,4.88s-4.44-1.76-4.44-4.83Z"/>
      <path class="cls-3" d="M100.25,78.27h3.02v16.46h4.97v2.74h-7.98v-19.2Z"/>
      <path class="cls-3" d="M109.9,92.92v-10.1c0-3.07,1.62-4.83,4.58-4.83s4.58,1.76,4.58,4.83v10.1c0,3.07-1.62,4.83-4.58,4.83s-4.58-1.76-4.58-4.83Zm6.15,.19v-10.48c0-1.37-.6-1.89-1.56-1.89s-1.56,.52-1.56,1.89v10.48c0,1.37,.6,1.89,1.56,1.89s1.56-.52,1.56-1.89Z"/>
      <path class="cls-3" d="M120.93,78.27h2.91l1.34,14.76h.05l1.43-14.76h3.29l1.43,14.76h.05l1.34-14.76h2.61l-1.95,19.2h-3.76l-1.37-12.95h-.06l-1.37,12.95h-4.01l-1.95-19.2Z"/>
      <path class="cls-3" d="M144.76,81.02h-3.16v-2.74h9.33v2.74h-3.16v16.46h-3.02v-16.46Z"/>
      <path class="cls-3" d="M152.94,78.27h4.47c3.13,0,4.47,1.45,4.47,4.42v1.18c0,1.98-.63,3.24-1.97,3.79v.05c1.51,.47,2,1.89,2,4.06v3.37c0,.93,.03,1.62,.33,2.33h-3.07c-.16-.49-.27-.8-.27-2.36v-3.51c0-1.78-.52-2.36-1.89-2.36h-1.04v8.23h-3.02v-19.2Zm4.12,8.23c1.12,0,1.81-.49,1.81-2.03v-1.48c0-1.37-.47-1.98-1.54-1.98h-1.37v5.49h1.1Z"/>
      <path class="cls-3" d="M166.87,78.27h4.09l3.13,19.2h-3.02l-.55-3.81v.05h-3.43l-.55,3.76h-2.8l3.13-19.2Zm3.29,12.84l-1.34-9.49h-.05l-1.32,9.49h2.72Z"/>
      <path class="cls-3" d="M175.4,97.48v-2.74c.33,.08,.66,.11,.99,.11,1.21,0,1.78-.58,1.78-1.84v-14.73h3.02v14.65c0,3.15-1.43,4.66-4.39,4.66-.55,0-.96-.03-1.4-.11Z"/>
      <path class="cls-3" d="M183.91,78.27h8.23v2.74h-5.21v5.08h4.14v2.74h-4.14v5.9h5.21v2.74h-8.23v-19.2Z"/>
      <path class="cls-3" d="M194.22,93.03v-10.32c0-2.96,1.54-4.72,4.44-4.72s4.45,1.76,4.45,4.72v2.03h-2.85v-2.22c0-1.26-.6-1.78-1.51-1.78s-1.51,.52-1.51,1.78v10.73c0,1.26,.6,1.76,1.51,1.76s1.51-.49,1.51-1.76v-2.94h2.85v2.72c0,2.96-1.54,4.72-4.45,4.72s-4.44-1.76-4.44-4.72Z"/>
      <path class="cls-3" d="M207.82,81.02h-3.16v-2.74h9.33v2.74h-3.16v16.46h-3.02v-16.46Z"/>
      <path class="cls-3" d="M215.67,92.92v-10.1c0-3.07,1.62-4.83,4.58-4.83s4.58,1.76,4.58,4.83v10.1c0,3.07-1.62,4.83-4.58,4.83s-4.58-1.76-4.58-4.83Zm6.15,.19v-10.48c0-1.37-.6-1.89-1.56-1.89s-1.56,.52-1.56,1.89v10.48c0,1.37,.6,1.89,1.56,1.89s1.56-.52,1.56-1.89Z"/>
      <path class="cls-3" d="M227.41,78.27h4.47c3.13,0,4.47,1.45,4.47,4.42v1.18c0,1.98-.63,3.24-1.97,3.79v.05c1.51,.47,2,1.89,2,4.06v3.37c0,.93,.03,1.62,.33,2.33h-3.07c-.16-.49-.27-.8-.27-2.36v-3.51c0-1.78-.52-2.36-1.89-2.36h-1.04v8.23h-3.02v-19.2Zm4.12,8.23c1.12,0,1.81-.49,1.81-2.03v-1.48c0-1.37-.47-1.98-1.54-1.98h-1.37v5.49h1.1Z"/>
      <path class="cls-3" d="M241.34,89.3l-3.65-11.03h3.21l2.06,7.05h.05l2.06-7.05h2.94l-3.65,11.03v8.18h-3.02v-8.18Z"/>
    </g>
    <g>
      <line class="cls-9" x1="205.26" y1="74.71" x2="465.98" y2="74.71"/>
      <rect class="cls-3" x="437.1" y="70.51" width="15.45" height="8.23"/>
      <rect class="cls-3" x="302.39" y="70.51" width="15.45" height="8.23"/>
      <rect class="cls-3" x="403.42" y="70.51" width="15.45" height="8.23"/>
      <rect class="cls-3" x="336.07" y="70.51" width="15.45" height="8.23"/>
      <rect class="cls-3" x="369.74" y="70.51" width="15.45" height="8.23"/>
      <rect class="cls-1" x="298.33" y="82.1" width="23.57" height="40.16"/>
      <rect class="cls-6" x="332.01" y="16.39" width="23.57" height="50.94"/>
      <rect class="cls-5" x="365.68" y="45.78" width="23.57" height="21.55"/>
      <rect class="cls-10" x="399.36" y="53.61" width="23.57" height="13.71"/>
      <rect class="cls-7" x="433.04" y="51.66" width="23.57" height="15.67"/>
      <g>
        <path class="cls-1" d="M305.71,72.59c-.26,0-.42,.14-.42,.51v.55h-.77v-.5c0-.83,.41-1.3,1.21-1.3s1.21,.47,1.21,1.3c0,1.62-1.62,2.23-1.62,3.08,0,.04,0,.07,0,.11h1.54v.74h-2.35v-.64c0-1.52,1.61-1.77,1.61-3.26,0-.47-.16-.59-.42-.59Z"/>
        <path class="cls-1" d="M307.38,73.15c0-.83,.44-1.3,1.23-1.3s1.23,.47,1.23,1.3v2.69c0,.83-.44,1.3-1.23,1.3s-1.23-.47-1.23-1.3v-2.69Zm.81,2.74c0,.37,.16,.51,.42,.51s.42-.14,.42-.51v-2.79c0-.37-.16-.51-.42-.51s-.42,.14-.42,.51v2.79Z"/>
        <path class="cls-1" d="M311.56,72.59c-.26,0-.42,.14-.42,.51v.55h-.77v-.5c0-.83,.41-1.3,1.21-1.3s1.21,.47,1.21,1.3c0,1.62-1.62,2.23-1.62,3.08,0,.04,0,.07,0,.11h1.54v.74h-2.35v-.64c0-1.52,1.61-1.77,1.61-3.26,0-.47-.16-.59-.42-.59Z"/>
        <path class="cls-1" d="M313.22,73.15c0-.83,.44-1.3,1.23-1.3s1.23,.47,1.23,1.3v2.69c0,.83-.44,1.3-1.23,1.3s-1.23-.47-1.23-1.3v-2.69Zm.81,2.74c0,.37,.16,.51,.42,.51s.42-.14,.42-.51v-2.79c0-.37-.16-.51-.42-.51s-.42,.14-.42,.51v2.79Z"/>
      </g>
      <g>
        <path class="cls-6" d="M339.38,72.59c-.26,0-.42,.14-.42,.51v.55h-.77v-.5c0-.83,.41-1.3,1.21-1.3s1.21,.47,1.21,1.3c0,1.62-1.62,2.23-1.62,3.08,0,.04,0,.07,0,.11h1.54v.74h-2.35v-.64c0-1.52,1.61-1.77,1.61-3.26,0-.47-.16-.59-.42-.59Z"/>
        <path class="cls-6" d="M341.05,73.15c0-.83,.44-1.3,1.23-1.3s1.23,.47,1.23,1.3v2.69c0,.83-.44,1.3-1.23,1.3s-1.23-.47-1.23-1.3v-2.69Zm.81,2.74c0,.37,.16,.51,.42,.51s.42-.14,.42-.51v-2.79c0-.37-.16-.51-.42-.51s-.42,.14-.42,.51v2.79Z"/>
        <path class="cls-6" d="M345.23,72.59c-.26,0-.42,.14-.42,.51v.55h-.77v-.5c0-.83,.41-1.3,1.21-1.3s1.21,.47,1.21,1.3c0,1.62-1.62,2.23-1.62,3.08,0,.04,0,.07,0,.11h1.54v.74h-2.35v-.64c0-1.52,1.61-1.77,1.61-3.26,0-.47-.16-.59-.42-.59Z"/>
        <path class="cls-6" d="M347.47,72.56c.63,0,.77-.3,.89-.65h.55v5.17h-.81v-3.94h-.63v-.58Z"/>
      </g>
      <g>
        <path class="cls-5" d="M373.06,72.59c-.26,0-.42,.14-.42,.51v.55h-.77v-.5c0-.83,.41-1.3,1.21-1.3s1.21,.47,1.21,1.3c0,1.62-1.62,2.23-1.62,3.08,0,.04,0,.07,0,.11h1.54v.74h-2.35v-.64c0-1.52,1.61-1.77,1.61-3.26,0-.47-.16-.59-.42-.59Z"/>
        <path class="cls-5" d="M374.73,73.15c0-.83,.44-1.3,1.23-1.3s1.23,.47,1.23,1.3v2.69c0,.83-.44,1.3-1.23,1.3s-1.23-.47-1.23-1.3v-2.69Zm.81,2.74c0,.37,.16,.51,.42,.51s.42-.14,.42-.51v-2.79c0-.37-.16-.51-.42-.51s-.42,.14-.42,.51v2.79Z"/>
        <path class="cls-5" d="M378.91,72.59c-.26,0-.42,.14-.42,.51v.55h-.77v-.5c0-.83,.41-1.3,1.21-1.3s1.21,.47,1.21,1.3c0,1.62-1.62,2.23-1.62,3.08,0,.04,0,.07,0,.11h1.54v.74h-2.35v-.64c0-1.52,1.61-1.77,1.61-3.26,0-.47-.16-.59-.42-.59Z"/>
        <path class="cls-5" d="M381.83,72.59c-.26,0-.42,.14-.42,.51v.55h-.77v-.5c0-.83,.41-1.3,1.21-1.3s1.21,.47,1.21,1.3c0,1.62-1.62,2.23-1.62,3.08,0,.04,0,.07,0,.11h1.54v.74h-2.35v-.64c0-1.52,1.61-1.77,1.61-3.26,0-.47-.16-.59-.42-.59Z"/>
      </g>
      <g>
        <path class="cls-8" d="M406.74,72.59c-.26,0-.42,.14-.42,.51v.55h-.77v-.5c0-.83,.41-1.3,1.21-1.3s1.21,.47,1.21,1.3c0,1.62-1.62,2.23-1.62,3.08,0,.04,0,.07,0,.11h1.54v.74h-2.35v-.64c0-1.52,1.61-1.77,1.61-3.26,0-.47-.16-.59-.42-.59Z"/>
        <path class="cls-8" d="M408.4,73.15c0-.83,.44-1.3,1.23-1.3s1.23,.47,1.23,1.3v2.69c0,.83-.44,1.3-1.23,1.3s-1.23-.47-1.23-1.3v-2.69Zm.81,2.74c0,.37,.16,.51,.42,.51s.42-.14,.42-.51v-2.79c0-.37-.16-.51-.42-.51s-.42,.14-.42,.51v2.79Z"/>
        <path class="cls-8" d="M412.58,72.59c-.26,0-.42,.14-.42,.51v.55h-.77v-.5c0-.83,.41-1.3,1.21-1.3s1.21,.47,1.21,1.3c0,1.62-1.62,2.23-1.62,3.08,0,.04,0,.07,0,.11h1.54v.74h-2.35v-.64c0-1.52,1.61-1.77,1.61-3.26,0-.47-.16-.59-.42-.59Z"/>
        <path class="cls-8" d="M415.88,73.18c0-.47-.16-.59-.42-.59s-.42,.14-.42,.51v.33h-.77v-.28c0-.83,.41-1.3,1.21-1.3s1.21,.47,1.21,1.3v.13c0,.55-.18,.9-.57,1.06,.41,.18,.57,.56,.57,1.09v.41c0,.83-.41,1.3-1.21,1.3s-1.21-.47-1.21-1.3v-.43h.77v.48c0,.37,.16,.51,.42,.51s.42-.13,.42-.58v-.41c0-.48-.16-.66-.53-.66h-.27v-.74h.32c.3,0,.49-.13,.49-.55v-.29Z"/>
      </g>
      <g>
        <path class="cls-7" d="M440.41,72.59c-.26,0-.42,.14-.42,.51v.55h-.77v-.5c0-.83,.41-1.3,1.21-1.3s1.21,.47,1.21,1.3c0,1.62-1.62,2.23-1.62,3.08,0,.04,0,.07,0,.11h1.54v.74h-2.35v-.64c0-1.52,1.61-1.77,1.61-3.26,0-.47-.16-.59-.42-.59Z"/>
        <path class="cls-7" d="M442.08,73.15c0-.83,.44-1.3,1.23-1.3s1.23,.47,1.23,1.3v2.69c0,.83-.44,1.3-1.23,1.3s-1.23-.47-1.23-1.3v-2.69Zm.81,2.74c0,.37,.16,.51,.42,.51s.42-.14,.42-.51v-2.79c0-.37-.16-.51-.42-.51s-.42,.14-.42,.51v2.79Z"/>
        <path class="cls-7" d="M446.26,72.59c-.26,0-.42,.14-.42,.51v.55h-.77v-.5c0-.83,.41-1.3,1.21-1.3s1.21,.47,1.21,1.3c0,1.62-1.62,2.23-1.62,3.08,0,.04,0,.07,0,.11h1.54v.74h-2.35v-.64c0-1.52,1.61-1.77,1.61-3.26,0-.47-.16-.59-.42-.59Z"/>
        <path class="cls-7" d="M447.8,75.41l1.48-3.49h.89v3.49h.38v.74h-.38v.94h-.8v-.94h-1.57v-.74Zm1.57,0v-1.94l-.82,1.94h.82Z"/>
      </g>
      <g>
        <path class="cls-1" d="M307.07,131.19v.74h-3.28v-.74h3.28Z"/>
        <path class="cls-1" d="M307.44,132.73l1.9-4.49h1.14v4.49h.49v.95h-.49v1.21h-1.03v-1.21h-2.01v-.95Zm2.01,0v-2.5l-1.05,2.5h1.05Z"/>
        <path class="cls-1" d="M312.45,133.88v1.01h-1.01v-1.01h1.01Z"/>
        <path class="cls-1" d="M313.86,129.07c.81,0,.99-.39,1.15-.83h.7v6.64h-1.04v-5.07h-.81v-.74Z"/>
      </g>
      <g>
        <path class="cls-6" d="M340.42,6.3v.62c0,.47,.21,.65,.54,.65s.54-.17,.54-.65v-1.46c0-.47-.21-.65-.54-.65s-.54,.18-.54,.65v.2h-.99l.19-3.85h2.75v.95h-1.81l-.09,1.59c.19-.31,.49-.48,.91-.48,.77,0,1.16,.54,1.16,1.52v1.48c0,1.06-.53,1.67-1.56,1.67s-1.56-.61-1.56-1.67v-.55h.99Z"/>
        <path class="cls-6" d="M344.25,7.44v1.01h-1.01v-1.01h1.01Z"/>
        <path class="cls-6" d="M346.53,2.68c-.33,0-.54,.18-.54,.65v.71h-.99v-.65c0-1.06,.53-1.67,1.56-1.67s1.56,.61,1.56,1.67c0,2.09-2.08,2.87-2.08,3.96,0,.05,0,.09,0,.14h1.97v.95h-3.02v-.82c0-1.96,2.07-2.28,2.07-4.19,0-.6-.21-.76-.54-.76Z"/>
      </g>
      <g>
        <path class="cls-5" d="M374.68,32.06c-.33,0-.54,.18-.54,.65v.71h-.99v-.65c0-1.06,.53-1.67,1.56-1.67s1.56,.61,1.56,1.67c0,2.09-2.08,2.87-2.08,3.96,0,.05,0,.09,0,.14h1.97v.95h-3.02v-.82c0-1.96,2.07-2.28,2.07-4.19,0-.6-.21-.76-.54-.76Z"/>
        <path class="cls-5" d="M377.92,36.83v1.01h-1.01v-1.01h1.01Z"/>
        <path class="cls-5" d="M380.21,32.06c-.33,0-.54,.18-.54,.65v.71h-.99v-.65c0-1.06,.53-1.67,1.56-1.67s1.56,.61,1.56,1.67c0,2.09-2.08,2.87-2.08,3.96,0,.05,0,.09,0,.14h1.97v.95h-3.02v-.82c0-1.96,2.07-2.28,2.07-4.19,0-.6-.21-.76-.54-.76Z"/>
      </g>
      <g>
        <path class="cls-10" d="M407.48,39.86c.81,0,.99-.39,1.15-.83h.7v6.64h-1.04v-5.07h-.81v-.74Z"/>
        <path class="cls-10" d="M411.6,44.66v1.01h-1.01v-1.01h1.01Z"/>
        <path class="cls-10" d="M412.11,43.52l1.9-4.49h1.14v4.49h.49v.95h-.49v1.21h-1.03v-1.21h-2.01v-.95Zm2.01,0v-2.5l-1.05,2.5h1.05Z"/>
      </g>
      <g>
        <path class="cls-7" d="M441.15,37.9c.81,0,.99-.39,1.15-.83h.7v6.64h-1.04v-5.07h-.81v-.74Z"/>
        <path class="cls-7" d="M445.27,42.71v1.01h-1.01v-1.01h1.01Z"/>
        <path class="cls-7" d="M445.97,38.72c0-1.12,.51-1.73,1.59-1.73,1.03,0,1.56,.61,1.56,1.67v.17h-.99v-.24c0-.47-.21-.65-.54-.65-.37,0-.58,.18-.58,.82v1.21c.18-.38,.5-.59,.97-.59,.77,0,1.16,.54,1.16,1.52v1.21c0,1.06-.56,1.67-1.58,1.67s-1.58-.61-1.58-1.67v-3.4Zm1.04,2.27v1.2c0,.47,.21,.65,.54,.65s.54-.17,.54-.65v-1.2c0-.47-.21-.65-.54-.65s-.54,.18-.54,.65Z"/>
      </g>
    </g>
    <g>
      <path class="cls-8" d="M400.38,81.84v.67c0,.83-.4,1.28-1.21,1.28h-.38v1.94h-.81v-5.17h1.2c.81,0,1.21,.45,1.21,1.28Zm-1.6-.54v1.75h.38c.26,0,.4-.12,.4-.49v-.78c0-.37-.14-.49-.4-.49h-.38Z"/>
      <path class="cls-8" d="M402.46,85.73c-.04-.13-.07-.21-.07-.64v-.81c0-.48-.16-.66-.53-.66h-.28v2.1h-.81v-5.17h1.23c.84,0,1.2,.39,1.2,1.19v.41c0,.53-.17,.88-.53,1.05,.41,.17,.54,.56,.54,1.1v.8c0,.25,0,.44,.09,.63h-.83Zm-.89-4.43v1.59h.32c.3,0,.49-.13,.49-.55v-.51c0-.37-.13-.53-.41-.53h-.39Z"/>
      <path class="cls-8" d="M403.66,81.8c0-.83,.44-1.3,1.23-1.3s1.23,.47,1.23,1.3v2.69c0,.83-.44,1.3-1.23,1.3s-1.23-.47-1.23-1.3v-2.69Zm.81,2.74c0,.37,.16,.51,.42,.51s.42-.14,.42-.51v-2.79c0-.37-.16-.51-.42-.51s-.42,.14-.42,.51v2.79Z"/>
      <path class="cls-8" d="M406.43,84.99c.09,0,.19,0,.28,0,.26,0,.46-.1,.46-.5v-3.94h.81v3.88c0,1.03-.55,1.3-1.17,1.3-.15,0-.26,0-.39-.01v-.74Z"/>
      <path class="cls-8" d="M409.36,82.74h1.12v.74h-1.12v1.51h1.4v.74h-2.21v-5.17h2.21v.74h-1.4v1.44Z"/>
      <path class="cls-8" d="M413.62,83.8v.69c0,.83-.41,1.3-1.21,1.3s-1.21-.47-1.21-1.3v-2.69c0-.83,.41-1.3,1.21-1.3s1.21,.47,1.21,1.3v.5h-.77v-.55c0-.37-.16-.51-.42-.51s-.42,.14-.42,.51v2.79c0,.37,.16,.5,.42,.5s.42-.13,.42-.5v-.74h.77Z"/>
      <path class="cls-8" d="M413.88,80.56h2.51v.74h-.85v4.43h-.81v-4.43h-.85v-.74Z"/>
      <path class="cls-8" d="M416.74,80.56h.81v5.17h-.81v-5.17Z"/>
      <path class="cls-8" d="M418.08,81.8c0-.83,.44-1.3,1.23-1.3s1.23,.47,1.23,1.3v2.69c0,.83-.44,1.3-1.23,1.3s-1.23-.47-1.23-1.3v-2.69Zm.81,2.74c0,.37,.16,.51,.42,.51s.42-.14,.42-.51v-2.79c0-.37-.16-.51-.42-.51s-.42,.14-.42,.51v2.79Z"/>
      <path class="cls-8" d="M421.79,81.99v3.74h-.73v-5.17h1.02l.83,3.09v-3.09h.72v5.17h-.83l-1.01-3.74Z"/>
    </g>
    <g>
      <path class="cls-7" d="M434.64,81.84v.67c0,.83-.4,1.28-1.21,1.28h-.38v1.94h-.81v-5.17h1.2c.81,0,1.21,.45,1.21,1.28Zm-1.6-.54v1.75h.38c.26,0,.4-.12,.4-.49v-.78c0-.37-.14-.49-.4-.49h-.38Z"/>
      <path class="cls-7" d="M436.72,85.73c-.04-.13-.07-.21-.07-.64v-.81c0-.48-.16-.66-.53-.66h-.28v2.1h-.81v-5.17h1.23c.84,0,1.2,.39,1.2,1.19v.41c0,.53-.17,.88-.53,1.05,.41,.17,.54,.56,.54,1.1v.8c0,.25,0,.44,.09,.63h-.83Zm-.89-4.43v1.59h.32c.3,0,.49-.13,.49-.55v-.51c0-.37-.13-.53-.41-.53h-.39Z"/>
      <path class="cls-7" d="M437.92,81.8c0-.83,.44-1.3,1.23-1.3s1.23,.47,1.23,1.3v2.69c0,.83-.44,1.3-1.23,1.3s-1.23-.47-1.23-1.3v-2.69Zm.81,2.74c0,.37,.16,.51,.42,.51s.42-.14,.42-.51v-2.79c0-.37-.16-.51-.42-.51s-.42,.14-.42,.51v2.79Z"/>
      <path class="cls-7" d="M440.69,84.99c.09,0,.19,0,.28,0,.26,0,.46-.1,.46-.5v-3.94h.81v3.88c0,1.03-.55,1.3-1.17,1.3-.15,0-.26,0-.39-.01v-.74Z"/>
      <path class="cls-7" d="M443.61,82.74h1.12v.74h-1.12v1.51h1.4v.74h-2.21v-5.17h2.21v.74h-1.4v1.44Z"/>
      <path class="cls-7" d="M447.87,83.8v.69c0,.83-.41,1.3-1.21,1.3s-1.21-.47-1.21-1.3v-2.69c0-.83,.41-1.3,1.21-1.3s1.21,.47,1.21,1.3v.5h-.77v-.55c0-.37-.16-.51-.42-.51s-.42,.14-.42,.51v2.79c0,.37,.16,.5,.42,.5s.42-.13,.42-.5v-.74h.77Z"/>
      <path class="cls-7" d="M448.13,80.56h2.51v.74h-.85v4.43h-.81v-4.43h-.85v-.74Z"/>
      <path class="cls-7" d="M451,80.56h.81v5.17h-.81v-5.17Z"/>
      <path class="cls-7" d="M452.33,81.8c0-.83,.44-1.3,1.23-1.3s1.23,.47,1.23,1.3v2.69c0,.83-.44,1.3-1.23,1.3s-1.23-.47-1.23-1.3v-2.69Zm.81,2.74c0,.37,.16,.51,.42,.51s.42-.14,.42-.51v-2.79c0-.37-.16-.51-.42-.51s-.42,.14-.42,.51v2.79Z"/>
      <path class="cls-7" d="M456.05,81.99v3.74h-.73v-5.17h1.02l.83,3.09v-3.09h.72v5.17h-.83l-1.01-3.74Z"/>
    </g>
    <rect class="cls-2" x="336.48" y="109.81" width="148.46" height="12.05"/>
    <g>
      <path class="cls-5" d="M340.73,115.56h1.23v1.77c0,.9-.45,1.41-1.31,1.41s-1.31-.51-1.31-1.41v-2.91c0-.9,.45-1.41,1.31-1.41s1.31,.51,1.31,1.41v.54h-.83v-.6c0-.4-.18-.55-.46-.55s-.46,.15-.46,.55v3.02c0,.4,.18,.54,.46,.54s.46-.14,.46-.54v-1.03h-.4v-.8Z"/>
      <path class="cls-5" d="M342.53,113.08h.88v4.8h1.45v.8h-2.33v-5.6Z"/>
      <path class="cls-5" d="M345.17,114.42c0-.9,.47-1.41,1.33-1.41s1.33,.51,1.33,1.41v2.91c0,.9-.47,1.41-1.33,1.41s-1.33-.51-1.33-1.41v-2.91Zm.88,2.97c0,.4,.18,.55,.46,.55s.46-.15,.46-.55v-3.02c0-.4-.18-.55-.46-.55s-.46,.15-.46,.55v3.02Z"/>
      <path class="cls-5" d="M351.04,114.37v.2c0,.58-.18,.94-.57,1.13,.47,.18,.66,.61,.66,1.2v.46c0,.86-.46,1.33-1.33,1.33h-1.38v-5.6h1.33c.91,0,1.3,.42,1.3,1.29Zm-1.75-.49v1.48h.34c.33,0,.53-.14,.53-.59v-.31c0-.4-.14-.58-.45-.58h-.42Zm0,2.28v1.72h.5c.3,0,.46-.14,.46-.55v-.49c0-.52-.17-.68-.57-.68h-.39Z"/>
      <path class="cls-5" d="M354.51,118.68h-.89l-.15-1.02h-1.08l-.15,1.02h-.81l.9-5.6h1.29l.9,5.6Zm-2.01-1.77h.85l-.42-2.83-.42,2.83Z"/>
      <path class="cls-5" d="M354.92,113.08h.88v4.8h1.45v.8h-2.33v-5.6Z"/>
      <path class="cls-5" d="M361.72,118.68h-.89l-.15-1.02h-1.08l-.15,1.02h-.81l.9-5.6h1.29l.9,5.6Zm-2.01-1.77h.85l-.42-2.83-.42,2.83Z"/>
      <path class="cls-5" d="M362.91,114.62v4.05h-.79v-5.6h1.1l.9,3.35v-3.35h.78v5.6h-.9l-1.1-4.05Z"/>
      <path class="cls-5" d="M366.32,114.62v4.05h-.79v-5.6h1.1l.9,3.35v-3.35h.78v5.6h-.9l-1.1-4.05Z"/>
      <path class="cls-5" d="M369.8,113.08v4.32c0,.4,.18,.54,.46,.54s.46-.14,.46-.54v-4.32h.83v4.26c0,.9-.45,1.41-1.31,1.41s-1.31-.51-1.31-1.41v-4.26h.88Z"/>
      <path class="cls-5" d="M374.99,118.68h-.89l-.15-1.02h-1.08l-.15,1.02h-.81l.9-5.6h1.29l.9,5.6Zm-2.01-1.77h.85l-.42-2.83-.42,2.83Z"/>
      <path class="cls-5" d="M375.4,113.08h.88v4.8h1.45v.8h-2.33v-5.6Z"/>
      <path class="cls-5" d="M380.67,115.56h1.23v1.77c0,.9-.45,1.41-1.31,1.41s-1.31-.51-1.31-1.41v-2.91c0-.9,.45-1.41,1.31-1.41s1.31,.51,1.31,1.41v.54h-.83v-.6c0-.4-.18-.55-.46-.55s-.46,.15-.46,.55v3.02c0,.4,.18,.54,.46,.54s.46-.14,.46-.54v-1.03h-.4v-.8Z"/>
      <path class="cls-5" d="M384.31,118.68c-.05-.14-.08-.23-.08-.69v-.88c0-.52-.18-.71-.58-.71h-.3v2.28h-.88v-5.6h1.33c.91,0,1.3,.42,1.3,1.29v.44c0,.58-.18,.95-.58,1.14,.44,.18,.58,.61,.58,1.19v.86c0,.27,0,.47,.1,.68h-.9Zm-.96-4.8v1.72h.34c.33,0,.53-.14,.53-.59v-.55c0-.4-.14-.58-.45-.58h-.42Z"/>
      <path class="cls-5" d="M385.61,114.42c0-.9,.47-1.41,1.33-1.41s1.33,.51,1.33,1.41v2.91c0,.9-.47,1.41-1.33,1.41s-1.33-.51-1.33-1.41v-2.91Zm.88,2.97c0,.4,.18,.55,.46,.55s.46-.15,.46-.55v-3.02c0-.4-.18-.55-.46-.55s-.46,.15-.46,.55v3.02Z"/>
      <path class="cls-5" d="M390.8,115.7l-.32,2.98h-1.21l-.62-5.6h.86l.47,4.41,.42-4.41h.85l.44,4.45,.46-4.45h.77l-.62,5.6h-1.17l-.32-2.98Z"/>
      <path class="cls-5" d="M393.1,113.08h2.72v.8h-.92v4.8h-.88v-4.8h-.92v-.8Z"/>
      <path class="cls-5" d="M397.08,118.68h-.88v-5.6h.88v2.4h1v-2.4h.9v5.6h-.9v-2.4h-1v2.4Z"/>
      <path class="cls-5" d="M402.7,118.68c-.05-.14-.08-.23-.08-.69v-.88c0-.52-.18-.71-.58-.71h-.3v2.28h-.88v-5.6h1.33c.91,0,1.3,.42,1.3,1.29v.44c0,.58-.18,.95-.58,1.14,.44,.18,.58,.61,.58,1.19v.86c0,.27,0,.47,.1,.68h-.9Zm-.96-4.8v1.72h.34c.33,0,.53-.14,.53-.59v-.55c0-.4-.14-.58-.45-.58h-.42Z"/>
      <path class="cls-5" d="M406.92,118.68h-.89l-.15-1.02h-1.08l-.15,1.02h-.81l.9-5.6h1.29l.9,5.6Zm-2.01-1.77h.85l-.42-2.83-.42,2.83Z"/>
      <path class="cls-5" d="M407.08,113.08h2.72v.8h-.92v4.8h-.88v-4.8h-.92v-.8Z"/>
      <path class="cls-5" d="M411.06,115.44h1.21v.8h-1.21v1.64h1.52v.8h-2.4v-5.6h2.4v.8h-1.52v1.56Z"/>
      <path class="cls-5" d="M414.29,114.42c0-.9,.47-1.41,1.33-1.41s1.33,.51,1.33,1.41v2.91c0,.9-.47,1.41-1.33,1.41s-1.33-.51-1.33-1.41v-2.91Zm.88,2.97c0,.4,.18,.55,.46,.55s.46-.15,.46-.55v-3.02c0-.4-.18-.55-.46-.55s-.46,.15-.46,.55v3.02Z"/>
      <path class="cls-5" d="M418.41,115.57h1.14v.8h-1.14v2.31h-.88v-5.6h2.33v.8h-1.45v1.69Z"/>
      <path class="cls-5" d="M423.36,118.68c-.05-.14-.08-.23-.08-.69v-.88c0-.52-.18-.71-.58-.71h-.3v2.28h-.88v-5.6h1.33c.91,0,1.3,.42,1.3,1.29v.44c0,.58-.18,.95-.58,1.14,.44,.18,.58,.61,.58,1.19v.86c0,.27,0,.47,.1,.68h-.9Zm-.96-4.8v1.72h.34c.33,0,.53-.14,.53-.59v-.55c0-.4-.14-.58-.45-.58h-.42Z"/>
      <path class="cls-5" d="M425.62,115.44h1.21v.8h-1.21v1.64h1.52v.8h-2.4v-5.6h2.4v.8h-1.52v1.56Z"/>
      <path class="cls-5" d="M430.53,118.68h-.89l-.15-1.02h-1.08l-.15,1.02h-.81l.9-5.6h1.29l.9,5.6Zm-2.01-1.77h.85l-.42-2.83-.42,2.83Z"/>
      <path class="cls-5" d="M430.94,113.08h.88v4.8h1.45v.8h-2.33v-5.6Z"/>
      <path class="cls-5" d="M436.21,115.56h1.23v1.77c0,.9-.45,1.41-1.31,1.41s-1.31-.51-1.31-1.41v-2.91c0-.9,.45-1.41,1.31-1.41s1.31,.51,1.31,1.41v.54h-.83v-.6c0-.4-.18-.55-.46-.55s-.46,.15-.46,.55v3.02c0,.4,.18,.54,.46,.54s.46-.14,.46-.54v-1.03h-.4v-.8Z"/>
      <path class="cls-5" d="M438.01,113.08h1.39c.88,0,1.31,.49,1.31,1.38v2.83c0,.9-.43,1.38-1.31,1.38h-1.39v-5.6Zm.88,.8v4h.5c.28,0,.45-.14,.45-.54v-2.91c0-.4-.17-.54-.45-.54h-.5Z"/>
      <path class="cls-5" d="M443.88,114.46v.73c0,.9-.43,1.38-1.31,1.38h-.42v2.1h-.88v-5.6h1.3c.88,0,1.31,.49,1.31,1.38Zm-1.73-.58v1.9h.42c.28,0,.43-.13,.43-.53v-.84c0-.4-.15-.53-.43-.53h-.42Z"/>
      <path class="cls-5" d="M448.14,114.46v.73c0,.9-.43,1.38-1.31,1.38h-.42v2.1h-.88v-5.6h1.3c.88,0,1.31,.49,1.31,1.38Zm-1.73-.58v1.9h.42c.28,0,.43-.13,.43-.53v-.84c0-.4-.15-.53-.43-.53h-.42Z"/>
      <path class="cls-5" d="M449.43,115.44h1.21v.8h-1.21v1.64h1.52v.8h-2.4v-5.6h2.4v.8h-1.52v1.56Z"/>
      <path class="cls-5" d="M453.33,118.68c-.05-.14-.08-.23-.08-.69v-.88c0-.52-.18-.71-.58-.71h-.3v2.28h-.88v-5.6h1.33c.91,0,1.3,.42,1.3,1.29v.44c0,.58-.18,.95-.58,1.14,.44,.18,.58,.61,.58,1.19v.86c0,.27,0,.47,.1,.68h-.9Zm-.96-4.8v1.72h.34c.33,0,.53-.14,.53-.59v-.55c0-.4-.14-.58-.45-.58h-.42Z"/>
      <path class="cls-5" d="M458.5,116.59v.74c0,.9-.45,1.41-1.31,1.41s-1.31-.51-1.31-1.41v-2.91c0-.9,.45-1.41,1.31-1.41s1.31,.51,1.31,1.41v.54h-.83v-.6c0-.4-.18-.55-.46-.55s-.46,.15-.46,.55v3.02c0,.4,.18,.54,.46,.54s.46-.14,.46-.54v-.8h.83Z"/>
      <path class="cls-5" d="M461.88,118.68h-.89l-.15-1.02h-1.08l-.15,1.02h-.81l.9-5.6h1.29l.9,5.6Zm-2.01-1.77h.85l-.42-2.83-.42,2.83Z"/>
      <path class="cls-5" d="M464.9,114.46v.73c0,.9-.43,1.38-1.31,1.38h-.42v2.1h-.88v-5.6h1.3c.88,0,1.31,.49,1.31,1.38Zm-1.73-.58v1.9h.42c.28,0,.43-.13,.43-.53v-.84c0-.4-.15-.53-.43-.53h-.42Z"/>
      <path class="cls-5" d="M465.31,113.08h.88v5.6h-.88v-5.6Z"/>
      <path class="cls-5" d="M466.57,113.08h2.72v.8h-.92v4.8h-.88v-4.8h-.92v-.8Z"/>
      <path class="cls-5" d="M472.52,118.68h-.89l-.15-1.02h-1.08l-.15,1.02h-.81l.9-5.6h1.29l.9,5.6Zm-2.01-1.77h.85l-.42-2.83-.42,2.83Z"/>
      <path class="cls-5" d="M475.73,113.08v.72h-.22c-.28,0-.41,.1-.41,.5v3.15c0,.4,.13,.5,.41,.5h.22v.72h-.27c-.88,0-1.23-.33-1.23-1.22v-3.15c0-.9,.35-1.22,1.23-1.22h.27Z"/>
      <path class="cls-5" d="M476.13,113.94c0-.58,.3-.9,.85-.9s.85,.32,.85,.9v1.84c0,.58-.3,.9-.85,.9s-.85-.32-.85-.9v-1.84Zm.56,1.88c0,.25,.1,.35,.29,.35s.29-.1,.29-.35v-1.92c0-.25-.11-.35-.29-.35s-.29,.1-.29,.35v1.92Zm2.5-2.73h.52l-2.21,5.6h-.52l2.21-5.6Zm-.28,2.9c0-.58,.3-.9,.85-.9s.85,.32,.85,.9v1.84c0,.58-.3,.9-.85,.9s-.85-.32-.85-.9v-1.84Zm.56,1.88c0,.25,.1,.35,.29,.35s.29-.1,.29-.35v-1.92c0-.25-.11-.35-.29-.35s-.29,.1-.29,.35v1.92Z"/>
      <path class="cls-5" d="M481.27,113.08c.88,0,1.23,.33,1.23,1.22v3.15c0,.9-.35,1.22-1.23,1.22h-.27v-.72h.22c.28,0,.41-.1,.41-.5v-3.15c0-.4-.13-.5-.41-.5h-.22v-.72h.27Z"/>
    </g>
  </g>
</svg>