<?xml version="1.0" encoding="UTF-8"?>
<svg id="Layer_2" data-name="Layer 2" xmlns="http://www.w3.org/2000/svg" viewBox="0 0 291.94 212.45">
  <defs>
    <style>
      .cls-1 {
        fill: #bdbcbb;
      }

      .cls-2 {
        fill: #d8b7b4;
      }

      .cls-3 {
        fill: #fff;
      }

      .cls-4 {
        fill: none;
        stroke: #a21c43;
        stroke-miterlimit: 10;
      }

      .cls-5 {
        fill: #939598;
      }

      .cls-6 {
        fill: #a55056;
      }

      .cls-7 {
        fill: #8f1838;
      }

      .cls-8 {
        fill: #ebebec;
      }
    </style>
  </defs>
  <g id="Layer_2-2" data-name="Layer 2">
    <rect class="cls-8" width="291.94" height="212.45"/>
    <g>
      <path class="cls-1" d="M102.27,97.74c-1.79,0-3.24-1.45-3.24-3.24v-7.21c0-1.79,1.45-3.24,3.24-3.24h3.96V40.01h-3.96c-1.79,0-3.24-1.45-3.24-3.24v-6.54c0-1.43,.96-2.71,2.33-3.11l41.72-12.22c.3-.09,.6-.13,.91-.13s.61,.04,.91,.13l12.36,3.62c.59,.06,1.86,.41,5.81,1.59,1.16,.35,2.48,.74,2.79,.81,.1,.01,.2,.04,.29,.07l21.4,7.53c2.51,.55,2.59,4.85,2.41,7.4-.16,2.26-.56,4.56-2.34,4.56l-6.19,.24,.31,43.32h3.97c1.79,0,3.24,1.45,3.24,3.24v7.21c0,1.79-1.45,3.24-3.24,3.24H102.27Z"/>
      <path class="cls-1" d="M143.99,16.27c.16,0,.33,.02,.49,.07l12.55,3.67s.02,0,.04,0c.68,0,8.27,2.4,8.58,2.4l21.51,7.57c2.04,.29,1.41,9.01,.45,9.01l-7.7,.3,.34,46.26h5.46c.96,0,1.74,.78,1.74,1.74v7.21c0,.96-.78,1.74-1.74,1.74H102.27c-.96,0-1.74-.78-1.74-1.74v-7.21c0-.96,.78-1.74,1.74-1.74h5.46V38.51h-5.46c-.96,0-1.74-.78-1.74-1.74v-6.54c0-.77,.51-1.45,1.25-1.67l41.72-12.22c.16-.05,.33-.07,.49-.07m0-3c-.45,0-.9,.06-1.33,.19l-41.72,12.22c-2,.59-3.41,2.46-3.41,4.55v6.54c0,2.61,2.13,4.74,4.74,4.74h2.46v41.04h-2.46c-2.61,0-4.74,2.13-4.74,4.74v7.21c0,2.61,2.13,4.74,4.74,4.74h83.44c2.61,0,4.74-2.13,4.74-4.74v-7.21c0-2.61-2.13-4.74-4.74-4.74h-2.48l-.29-40.38,4.76-.19c3.34-.07,3.65-4.34,3.76-5.96,.46-6.51-1.56-8.49-3.49-8.95l-21.32-7.5c-.16-.06-.32-.1-.49-.13-.37-.1-1.64-.47-2.66-.78-4-1.19-5.26-1.54-5.95-1.63l-12.23-3.58c-.43-.13-.88-.19-1.33-.19h0Z"/>
    </g>
    <rect class="cls-1" x="26.19" y="107.01" width="238.05" height="4.53"/>
    <rect class="cls-7" x="39.05" y="167.58" width="212.62" height="24.35"/>
    <g>
      <path class="cls-5" d="M26.32,126.75h3.19c2.09,0,3.12,1.16,3.12,3.29v6.73c0,2.13-1.03,3.29-3.12,3.29h-3.19v-13.3Zm3.15,11.4c.67,0,1.06-.34,1.06-1.29v-6.92c0-.95-.4-1.29-1.06-1.29h-1.06v9.5h1.06Z"/>
      <path class="cls-5" d="M33.96,136.9v-10.14h2.09v10.3c0,.95,.4,1.29,1.06,1.29s1.06-.34,1.06-1.29v-10.3h2.01v10.14c0,2.13-1.06,3.34-3.12,3.34s-3.12-1.22-3.12-3.34Z"/>
      <path class="cls-5" d="M41.67,126.75h3.1c2.17,0,3.1,1.01,3.1,3.06v.82c0,1.37-.44,2.24-1.37,2.62v.04c1.04,.32,1.39,1.31,1.39,2.81v2.34c0,.65,.02,1.12,.23,1.61h-2.13c-.11-.34-.19-.55-.19-1.63v-2.43c0-1.23-.36-1.63-1.31-1.63h-.72v5.7h-2.09v-13.3Zm2.85,5.7c.78,0,1.25-.34,1.25-1.41v-1.03c0-.95-.32-1.37-1.06-1.37h-.95v3.8h.76Z"/>
      <path class="cls-5" d="M49.33,126.75h2.09v13.3h-2.09v-13.3Z"/>
      <path class="cls-5" d="M52.98,126.75h2.62l2.03,7.96h.04v-7.96h1.86v13.3h-2.15l-2.51-9.71h-.04v9.71h-1.86v-13.3Z"/>
      <path class="cls-5" d="M60.94,136.9v-6.99c0-2.13,1.06-3.34,3.12-3.34s3.12,1.22,3.12,3.34v1.14h-1.98v-1.27c0-.95-.42-1.31-1.08-1.31s-1.08,.36-1.08,1.31v7.28c0,.95,.42,1.29,1.08,1.29s1.08-.34,1.08-1.29v-2.6h-1.04v-1.9h3.02v4.35c0,2.13-1.06,3.34-3.12,3.34s-3.12-1.22-3.12-3.34Z"/>
      <path class="cls-5" d="M73.19,128.65h-2.19v-1.9h6.46v1.9h-2.19v11.4h-2.09v-11.4Z"/>
      <path class="cls-5" d="M78.47,126.75h2.09v5.41h2.24v-5.41h2.09v13.3h-2.09v-5.98h-2.24v5.98h-2.09v-13.3Z"/>
      <path class="cls-5" d="M86.45,126.75h5.7v1.9h-3.61v3.51h2.87v1.9h-2.87v4.08h3.61v1.9h-5.7v-13.3Z"/>
      <path class="cls-5" d="M96.39,126.75h3.08c2.09,0,3.12,1.16,3.12,3.29v1.31c0,2.13-1.03,3.29-3.12,3.29h-.99v5.41h-2.09v-13.3Zm3.08,5.98c.67,0,1.03-.3,1.03-1.25v-1.58c0-.95-.36-1.25-1.03-1.25h-.99v4.08h.99Z"/>
      <path class="cls-5" d="M104.67,126.75h2.83l2.17,13.3h-2.09l-.38-2.64v.04h-2.37l-.38,2.6h-1.94l2.17-13.3Zm2.28,8.89l-.93-6.57h-.04l-.91,6.57h1.88Z"/>
      <path class="cls-5" d="M110.68,126.75h2.62l2.03,7.96h.04v-7.96h1.86v13.3h-2.15l-2.51-9.71h-.04v9.71h-1.86v-13.3Z"/>
      <path class="cls-5" d="M118.79,126.75h3.19c2.09,0,3.12,1.16,3.12,3.29v6.73c0,2.13-1.03,3.29-3.12,3.29h-3.19v-13.3Zm3.15,11.4c.67,0,1.06-.34,1.06-1.29v-6.92c0-.95-.4-1.29-1.06-1.29h-1.06v9.5h1.06Z"/>
      <path class="cls-5" d="M126.51,126.75h5.7v1.9h-3.61v3.51h2.87v1.9h-2.87v4.08h3.61v1.9h-5.7v-13.3Z"/>
      <path class="cls-5" d="M133.4,126.75h2.98l1.33,9.52h.04l1.33-9.52h2.98v13.3h-1.98v-10.07h-.04l-1.52,10.07h-1.75l-1.52-10.07h-.04v10.07h-1.82v-13.3Z"/>
      <path class="cls-5" d="M143.62,126.75h2.09v13.3h-2.09v-13.3Z"/>
      <path class="cls-5" d="M147.14,136.98v-7.14c0-2.05,1.06-3.27,3.08-3.27s3.08,1.22,3.08,3.27v1.41h-1.98v-1.54c0-.87-.42-1.23-1.04-1.23s-1.04,.36-1.04,1.23v7.43c0,.87,.42,1.22,1.04,1.22s1.04-.34,1.04-1.22v-2.03h1.98v1.88c0,2.05-1.06,3.27-3.08,3.27s-3.08-1.22-3.08-3.27Z"/>
      <path class="cls-5" d="M155.23,140.05h-.68v-2.01h2.01v1.8l-1.04,2.49h-.97l.68-2.28Z"/>
      <path class="cls-7" d="M166.23,136.75h-5.46v-2.6l5.2-12.3h3.12v12.3h1.35v2.6h-1.35v3.3h-2.86v-3.3Zm0-2.6v-7.1h-.05l-2.81,7.1h2.86Z"/>
      <path class="cls-7" d="M187.81,126.17h-2.99v-2.03c2.42,0,3.28-.52,3.93-2.29h1.92v18.2h-2.86v-13.88Z"/>
      <path class="cls-7" d="M194,135.74v-9.57c0-2.91,1.53-4.58,4.34-4.58s4.34,1.66,4.34,4.58v9.57c0,2.91-1.53,4.58-4.34,4.58s-4.34-1.66-4.34-4.58Zm5.82,.18v-9.93c0-1.3-.57-1.79-1.48-1.79s-1.48,.49-1.48,1.79v9.93c0,1.3,.57,1.79,1.48,1.79s1.48-.49,1.48-1.79Z"/>
      <path class="cls-7" d="M210.98,121.85h3.87l2.96,18.2h-2.86l-.52-3.61v.05h-3.25l-.52,3.56h-2.65l2.96-18.2Zm3.12,12.17l-1.27-9h-.05l-1.25,9h2.57Z"/>
      <path class="cls-7" d="M219.19,121.85h4.37c2.86,0,4.26,1.59,4.26,4.5v9.2c0,2.91-1.4,4.5-4.26,4.5h-4.37v-18.2Zm4.32,15.6c.91,0,1.46-.47,1.46-1.77v-9.46c0-1.3-.55-1.77-1.46-1.77h-1.46v13h1.46Z"/>
      <path class="cls-7" d="M229.65,135.74v-13.88h2.86v14.09c0,1.3,.55,1.77,1.46,1.77s1.46-.47,1.46-1.77v-14.09h2.76v13.88c0,2.91-1.46,4.58-4.26,4.58s-4.26-1.66-4.26-4.58Z"/>
      <path class="cls-7" d="M240.2,121.85h2.86v15.6h4.71v2.6h-7.57v-18.2Z"/>
      <path class="cls-7" d="M249.35,124.45h-2.99v-2.6h8.84v2.6h-2.99v15.6h-2.86v-15.6Z"/>
      <path class="cls-7" d="M256.09,135.74v-1.04h2.7v1.25c0,1.3,.57,1.77,1.48,1.77s1.48-.47,1.48-1.82c0-1.51-.57-2.47-2.44-4.11-2.39-2.11-3.17-3.59-3.17-5.67,0-2.86,1.48-4.52,4.26-4.52s4.16,1.66,4.16,4.58v.75h-2.71v-.94c0-1.3-.52-1.79-1.43-1.79s-1.43,.49-1.43,1.74c0,1.33,.6,2.29,2.47,3.93,2.39,2.11,3.15,3.56,3.15,5.82,0,2.96-1.51,4.63-4.32,4.63s-4.21-1.66-4.21-4.58Z"/>
      <path class="cls-6" d="M28.86,147.75h2.09v13.3h-2.09v-13.3Z"/>
      <path class="cls-6" d="M32.5,147.75h2.62l2.03,7.96h.04v-7.96h1.86v13.3h-2.15l-2.51-9.71h-.04v9.71h-1.86v-13.3Z"/>
      <path class="cls-6" d="M43.66,147.75h2.09v11.4h3.44v1.9h-5.53v-13.3Z"/>
      <path class="cls-6" d="M49.96,157.9v-6.99c0-2.13,1.12-3.34,3.17-3.34s3.17,1.22,3.17,3.34v6.99c0,2.13-1.12,3.34-3.17,3.34s-3.17-1.22-3.17-3.34Zm4.25,.13v-7.26c0-.95-.42-1.31-1.08-1.31s-1.08,.36-1.08,1.31v7.26c0,.95,.42,1.31,1.08,1.31s1.08-.36,1.08-1.31Z"/>
      <path class="cls-6" d="M57.22,147.75h2.01l.93,10.22h.04l.99-10.22h2.28l.99,10.22h.04l.93-10.22h1.8l-1.35,13.3h-2.6l-.95-8.97h-.04l-.95,8.97h-2.77l-1.35-13.3Z"/>
      <path class="cls-6" d="M67.84,153.45h4.18v1.9h-4.18v-1.9Z"/>
      <path class="cls-6" d="M77.93,147.75h2.83l2.17,13.3h-2.09l-.38-2.64v.04h-2.37l-.38,2.6h-1.94l2.17-13.3Zm2.28,8.89l-.93-6.57h-.04l-.91,6.57h1.88Z"/>
      <path class="cls-6" d="M83.94,147.75h2.62l2.03,7.96h.04v-7.96h1.86v13.3h-2.15l-2.51-9.71h-.04v9.71h-1.86v-13.3Z"/>
      <path class="cls-6" d="M92.05,147.75h3.19c2.09,0,3.12,1.16,3.12,3.29v6.73c0,2.13-1.03,3.29-3.12,3.29h-3.19v-13.3Zm3.15,11.4c.67,0,1.06-.34,1.06-1.29v-6.92c0-.95-.4-1.29-1.06-1.29h-1.06v9.5h1.06Z"/>
      <path class="cls-6" d="M102.8,147.75h2.98l1.33,9.52h.04l1.33-9.52h2.98v13.3h-1.98v-10.07h-.04l-1.52,10.07h-1.75l-1.52-10.07h-.04v10.07h-1.82v-13.3Z"/>
      <path class="cls-6" d="M113.03,147.75h2.09v13.3h-2.09v-13.3Z"/>
      <path class="cls-6" d="M116.67,147.75h3.19c2.09,0,3.12,1.16,3.12,3.29v6.73c0,2.13-1.03,3.29-3.12,3.29h-3.19v-13.3Zm3.15,11.4c.67,0,1.06-.34,1.06-1.29v-6.92c0-.95-.4-1.29-1.06-1.29h-1.06v9.5h1.06Z"/>
      <path class="cls-6" d="M124.39,147.75h3.19c2.09,0,3.12,1.16,3.12,3.29v6.73c0,2.13-1.03,3.29-3.12,3.29h-3.19v-13.3Zm3.15,11.4c.67,0,1.06-.34,1.06-1.29v-6.92c0-.95-.4-1.29-1.06-1.29h-1.06v9.5h1.06Z"/>
      <path class="cls-6" d="M132.1,147.75h2.09v11.4h3.44v1.9h-5.53v-13.3Z"/>
      <path class="cls-6" d="M138.64,147.75h5.7v1.9h-3.61v3.51h2.87v1.9h-2.87v4.08h3.61v1.9h-5.7v-13.3Z"/>
      <path class="cls-6" d="M145.23,153.45h4.18v1.9h-4.18v-1.9Z"/>
      <path class="cls-6" d="M150.66,147.75h2.09v13.3h-2.09v-13.3Z"/>
      <path class="cls-6" d="M154.31,147.75h2.62l2.03,7.96h.04v-7.96h1.86v13.3h-2.15l-2.51-9.71h-.04v9.71h-1.86v-13.3Z"/>
      <path class="cls-6" d="M162.29,157.98v-7.14c0-2.05,1.06-3.27,3.08-3.27s3.08,1.22,3.08,3.27v1.41h-1.98v-1.54c0-.87-.42-1.23-1.04-1.23s-1.04,.36-1.04,1.23v7.43c0,.87,.42,1.22,1.04,1.22s1.04-.34,1.04-1.22v-2.03h1.98v1.88c0,2.05-1.06,3.27-3.08,3.27s-3.08-1.22-3.08-3.27Z"/>
      <path class="cls-6" d="M169.59,157.9v-6.99c0-2.13,1.12-3.34,3.17-3.34s3.17,1.22,3.17,3.34v6.99c0,2.13-1.12,3.34-3.17,3.34s-3.17-1.22-3.17-3.34Zm4.25,.13v-7.26c0-.95-.42-1.31-1.08-1.31s-1.08,.36-1.08,1.31v7.26c0,.95,.42,1.31,1.08,1.31s1.08-.36,1.08-1.31Z"/>
      <path class="cls-6" d="M177.34,147.75h2.98l1.33,9.52h.04l1.33-9.52h2.98v13.3h-1.98v-10.07h-.04l-1.52,10.07h-1.75l-1.52-10.07h-.04v10.07h-1.82v-13.3Z"/>
      <path class="cls-6" d="M187.56,147.75h5.7v1.9h-3.61v3.51h2.87v1.9h-2.87v4.08h3.61v1.9h-5.7v-13.3Z"/>
      <path class="cls-6" d="M197.37,157.98v-7.14c0-2.05,1.06-3.27,3.08-3.27s3.08,1.22,3.08,3.27v1.41h-1.98v-1.54c0-.87-.42-1.23-1.04-1.23s-1.04,.36-1.04,1.23v7.43c0,.87,.42,1.22,1.04,1.22s1.04-.34,1.04-1.22v-2.03h1.98v1.88c0,2.05-1.06,3.27-3.08,3.27s-3.08-1.22-3.08-3.27Z"/>
      <path class="cls-6" d="M204.66,157.9v-6.99c0-2.13,1.12-3.34,3.17-3.34s3.17,1.22,3.17,3.34v6.99c0,2.13-1.12,3.34-3.17,3.34s-3.17-1.22-3.17-3.34Zm4.25,.13v-7.26c0-.95-.42-1.31-1.08-1.31s-1.08,.36-1.08,1.31v7.26c0,.95,.42,1.31,1.08,1.31s1.08-.36,1.08-1.31Z"/>
      <path class="cls-6" d="M212.34,157.9v-10.14h2.09v10.3c0,.95,.4,1.29,1.06,1.29s1.06-.34,1.06-1.29v-10.3h2.01v10.14c0,2.13-1.06,3.34-3.12,3.34s-3.12-1.22-3.12-3.34Z"/>
      <path class="cls-6" d="M220.05,147.75h2.62l2.03,7.96h.04v-7.96h1.86v13.3h-2.15l-2.51-9.71h-.04v9.71h-1.86v-13.3Z"/>
      <path class="cls-6" d="M229.8,149.65h-2.19v-1.9h6.46v1.9h-2.19v11.4h-2.09v-11.4Z"/>
      <path class="cls-6" d="M235.08,147.75h3.1c2.17,0,3.1,1.01,3.1,3.06v.82c0,1.37-.44,2.24-1.37,2.62v.04c1.04,.32,1.39,1.31,1.39,2.81v2.34c0,.65,.02,1.12,.23,1.61h-2.13c-.11-.34-.19-.55-.19-1.63v-2.43c0-1.23-.36-1.63-1.31-1.63h-.72v5.7h-2.09v-13.3Zm2.85,5.7c.78,0,1.25-.34,1.25-1.41v-1.03c0-.95-.32-1.37-1.06-1.37h-.95v3.8h.76Z"/>
      <path class="cls-6" d="M242.74,147.75h2.09v13.3h-2.09v-13.3Z"/>
      <path class="cls-6" d="M246.39,147.75h5.7v1.9h-3.61v3.51h2.87v1.9h-2.87v4.08h3.61v1.9h-5.7v-13.3Z"/>
      <path class="cls-6" d="M252.96,157.9v-.76h1.98v.91c0,.95,.42,1.29,1.08,1.29s1.08-.34,1.08-1.33c0-1.1-.42-1.8-1.79-3-1.75-1.54-2.32-2.62-2.32-4.14,0-2.09,1.08-3.31,3.12-3.31s3.04,1.22,3.04,3.34v.55h-1.98v-.68c0-.95-.38-1.31-1.04-1.31s-1.04,.36-1.04,1.27c0,.97,.44,1.67,1.8,2.87,1.75,1.54,2.3,2.6,2.3,4.26,0,2.17-1.1,3.38-3.15,3.38s-3.08-1.22-3.08-3.34Z"/>
      <path class="cls-3" d="M43.3,182.9v-6.99c0-2.13,1.12-3.34,3.17-3.34s3.17,1.22,3.17,3.34v6.99c0,2.13-1.12,3.34-3.17,3.34s-3.17-1.22-3.17-3.34Zm4.25,.13v-7.26c0-.95-.42-1.31-1.08-1.31s-1.08,.36-1.08,1.31v7.26c0,.95,.42,1.31,1.08,1.31s1.08-.36,1.08-1.31Z"/>
      <path class="cls-3" d="M51.05,172.75h3.08c2.09,0,3.12,1.16,3.12,3.29v1.31c0,2.13-1.03,3.29-3.12,3.29h-.99v5.41h-2.09v-13.3Zm3.08,5.98c.67,0,1.03-.3,1.03-1.25v-1.58c0-.95-.36-1.25-1.03-1.25h-.99v4.08h.99Z"/>
      <path class="cls-3" d="M58.38,172.75h5.7v1.9h-3.61v3.51h2.87v1.9h-2.87v4.08h3.61v1.9h-5.7v-13.3Z"/>
      <path class="cls-3" d="M65.28,172.75h2.62l2.03,7.96h.04v-7.96h1.86v13.3h-2.15l-2.51-9.71h-.04v9.71h-1.86v-13.3Z"/>
      <path class="cls-3" d="M73.39,172.75h5.7v1.9h-3.61v3.51h2.87v1.9h-2.87v4.08h3.61v1.9h-5.7v-13.3Z"/>
      <path class="cls-3" d="M80.29,172.75h3.19c2.09,0,3.12,1.16,3.12,3.29v6.73c0,2.13-1.03,3.29-3.12,3.29h-3.19v-13.3Zm3.15,11.4c.67,0,1.06-.34,1.06-1.29v-6.92c0-.95-.4-1.29-1.06-1.29h-1.06v9.5h1.06Z"/>
      <path class="cls-3" d="M92.68,174.65h-2.19v-1.9h6.46v1.9h-2.19v11.4h-2.09v-11.4Z"/>
      <path class="cls-3" d="M97.96,172.75h2.09v5.41h2.24v-5.41h2.09v13.3h-2.09v-5.98h-2.24v5.98h-2.09v-13.3Z"/>
      <path class="cls-3" d="M105.94,172.75h5.7v1.9h-3.61v3.51h2.87v1.9h-2.87v4.08h3.61v1.9h-5.7v-13.3Z"/>
      <path class="cls-3" d="M112.84,172.75h2.09v13.3h-2.09v-13.3Z"/>
      <path class="cls-3" d="M116.48,172.75h3.1c2.17,0,3.1,1.01,3.1,3.06v.82c0,1.37-.44,2.24-1.37,2.62v.04c1.04,.32,1.39,1.31,1.39,2.81v2.34c0,.65,.02,1.12,.23,1.61h-2.13c-.11-.34-.19-.55-.19-1.63v-2.43c0-1.23-.36-1.63-1.31-1.63h-.72v5.7h-2.09v-13.3Zm2.85,5.7c.78,0,1.25-.34,1.25-1.41v-1.03c0-.95-.32-1.37-1.06-1.37h-.95v3.8h.76Z"/>
      <path class="cls-3" d="M127.18,172.75h5.53v1.9h-3.44v3.7h2.7v1.9h-2.7v5.79h-2.09v-13.3Z"/>
      <path class="cls-3" d="M133.72,172.75h2.09v13.3h-2.09v-13.3Z"/>
      <path class="cls-3" d="M137.37,172.75h3.1c2.17,0,3.1,1.01,3.1,3.06v.82c0,1.37-.44,2.24-1.37,2.62v.04c1.04,.32,1.39,1.31,1.39,2.81v2.34c0,.65,.02,1.12,.23,1.61h-2.13c-.11-.34-.19-.55-.19-1.63v-2.43c0-1.23-.36-1.63-1.31-1.63h-.72v5.7h-2.09v-13.3Zm2.85,5.7c.78,0,1.25-.34,1.25-1.41v-1.03c0-.95-.32-1.37-1.06-1.37h-.95v3.8h.76Z"/>
      <path class="cls-3" d="M144.66,182.9v-.76h1.98v.91c0,.95,.42,1.29,1.08,1.29s1.08-.34,1.08-1.33c0-1.1-.42-1.8-1.79-3-1.75-1.54-2.32-2.62-2.32-4.14,0-2.09,1.08-3.31,3.12-3.31s3.04,1.22,3.04,3.34v.55h-1.98v-.68c0-.95-.38-1.31-1.04-1.31s-1.04,.36-1.04,1.27c0,.97,.44,1.67,1.8,2.87,1.75,1.54,2.3,2.6,2.3,4.26,0,2.17-1.1,3.38-3.15,3.38s-3.08-1.22-3.08-3.34Z"/>
      <path class="cls-3" d="M153.72,174.65h-2.19v-1.9h6.46v1.9h-2.19v11.4h-2.09v-11.4Z"/>
      <path class="cls-3" d="M162.05,172.75h3.15c2.17,0,3.1,1.01,3.1,3.06v.53c0,1.37-.42,2.22-1.35,2.6v.04c1.12,.38,1.56,1.37,1.56,2.77v1.14c0,2.05-1.08,3.15-3.17,3.15h-3.29v-13.3Zm2.91,5.41c.78,0,1.25-.34,1.25-1.41v-.74c0-.95-.32-1.37-1.06-1.37h-1.01v3.51h.82Zm.38,5.98c.7,0,1.08-.32,1.08-1.31v-1.16c0-1.23-.4-1.61-1.35-1.61h-.93v4.08h1.2Z"/>
      <path class="cls-3" d="M171.34,172.75h2.83l2.17,13.3h-2.09l-.38-2.64v.04h-2.37l-.38,2.6h-1.94l2.17-13.3Zm2.28,8.89l-.93-6.57h-.04l-.91,6.57h1.88Z"/>
      <path class="cls-3" d="M177.34,172.75h2.62l2.03,7.96h.04v-7.96h1.86v13.3h-2.15l-2.51-9.71h-.04v9.71h-1.86v-13.3Z"/>
      <path class="cls-3" d="M185.45,172.75h2.09v5.6l2.66-5.6h2.09l-2.49,4.88,2.53,8.42h-2.19l-1.77-5.93-.84,1.69v4.24h-2.09v-13.3Z"/>
      <path class="cls-3" d="M197.97,172.75h2.83l2.17,13.3h-2.09l-.38-2.64v.04h-2.37l-.38,2.6h-1.94l2.17-13.3Zm2.28,8.89l-.93-6.57h-.04l-.91,6.57h1.88Z"/>
      <path class="cls-3" d="M203.81,182.98v-7.14c0-2.05,1.06-3.27,3.08-3.27s3.08,1.22,3.08,3.27v1.41h-1.98v-1.54c0-.87-.42-1.23-1.04-1.23s-1.04,.36-1.04,1.23v7.43c0,.87,.42,1.22,1.04,1.22s1.04-.34,1.04-1.22v-2.03h1.98v1.88c0,2.05-1.06,3.27-3.08,3.27s-3.08-1.22-3.08-3.27Z"/>
      <path class="cls-3" d="M211.12,182.98v-7.14c0-2.05,1.06-3.27,3.08-3.27s3.08,1.22,3.08,3.27v1.41h-1.98v-1.54c0-.87-.42-1.23-1.04-1.23s-1.04,.36-1.04,1.23v7.43c0,.87,.42,1.22,1.04,1.22s1.04-.34,1.04-1.22v-2.03h1.98v1.88c0,2.05-1.06,3.27-3.08,3.27s-3.08-1.22-3.08-3.27Z"/>
      <path class="cls-3" d="M218.42,182.9v-6.99c0-2.13,1.12-3.34,3.17-3.34s3.17,1.22,3.17,3.34v6.99c0,2.13-1.12,3.34-3.17,3.34s-3.17-1.22-3.17-3.34Zm4.25,.13v-7.26c0-.95-.42-1.31-1.08-1.31s-1.08,.36-1.08,1.31v7.26c0,.95,.42,1.31,1.08,1.31s1.08-.36,1.08-1.31Z"/>
      <path class="cls-3" d="M226.09,182.9v-10.14h2.09v10.3c0,.95,.4,1.29,1.06,1.29s1.06-.34,1.06-1.29v-10.3h2.01v10.14c0,2.13-1.06,3.34-3.12,3.34s-3.12-1.22-3.12-3.34Z"/>
      <path class="cls-3" d="M233.81,172.75h2.62l2.03,7.96h.04v-7.96h1.86v13.3h-2.15l-2.51-9.71h-.04v9.71h-1.86v-13.3Z"/>
      <path class="cls-3" d="M243.55,174.65h-2.19v-1.9h6.46v1.9h-2.18v11.4h-2.09v-11.4Z"/>
    </g>
    <path class="cls-7" d="M187.46,30.56c-.35-1.52-4.82-2.43-4.82-2.43l-22.51-7.18c-.32,0-3.04-1.12-3.3-.97l-12.35-3.64c-.32-.09-.66-.09-.98,0l-41.72,12.22c-.74,.22-1.25,.9-1.25,1.67v6.54c0,.96,.78,1.74,1.74,1.74h5.46v47.04h-5.46c-.96,0-1.74,.78-1.74,1.74v7.21c0,.96,.78,1.74,1.74,1.74h83.44c.96,0,1.74-.78,1.74-1.74v-7.21c0-.96-.78-1.74-1.74-1.74h-5.46V39.09l5.31-.11c.96,0,1.74-.78,1.74-1.74m-83.29-5.71l39.98-11.71,12.17,3.56v11.65h-52.15v-3.5Zm79.96,61.23H104.01v-3.74h79.96v3.74Zm-54.67-7.21h-5.15v-26.72c0-1.42,1.15-2.57,2.57-2.57,.69,0,1.33,.26,1.81,.76,.49,.49,.76,1.13,.76,1.81v26.72Zm17.26,0h-5.15v-26.72c0-1.42,1.15-2.57,2.57-2.57,.68,0,1.32,.27,1.81,.76s.76,1.13,.76,1.81v26.72Zm17.26,0h-5.15v-26.72c0-1.42,1.15-2.57,2.57-2.57,.69,0,1.33,.26,1.81,.76,.49,.49,.76,1.14,.76,1.81v26.72Zm12.95,0h-9.47v-26.72c0-1.61-.63-3.12-1.76-4.26-1.13-1.16-2.65-1.79-4.29-1.79-3.34,0-6.05,2.71-6.05,6.05v26.72h-5.16v-26.72c0-1.61-.63-3.12-1.78-4.27-1.15-1.15-2.66-1.78-4.27-1.78-3.34,0-6.05,2.71-6.05,6.05v26.72h-5.16v-26.72c0-1.61-.63-3.12-1.76-4.26-1.13-1.16-2.65-1.79-4.29-1.79-3.34,0-6.05,2.71-6.05,6.05v26.72h-9.47V38.51h44.95v9.06c0,.96,.78,1.74,1.74,1.74h18.88v36.25Z"/>
    <g>
      <line id="line" class="cls-4" x1="173.22" y1="124.85" x2="181.97" y2="124.85"/>
      <line id="line-2" data-name="line" class="cls-4" x1="173.22" y1="138.54" x2="181.97" y2="138.54"/>
      <g>
        <path class="cls-7" d="M173.61,126.37h1.65v10.5h-1.65v-10.5Z"/>
        <path class="cls-7" d="M176.49,126.37h2.07l1.61,6.28h.03v-6.28h1.47v10.5h-1.7l-1.98-7.66h-.03v7.66h-1.47v-10.5Z"/>
      </g>
    </g>
    <path class="cls-2" d="M103.95,31.54l39.98-11.71,40.47,11.82-.02,3.38H103.95v-3.5Zm79.96,61.23H103.95v-3.74h79.96v3.74Zm-7.2-7.21h-9.47v-26.72c0-1.61-.63-3.12-1.76-4.26-1.13-1.16-2.65-1.79-4.29-1.79-3.34,0-6.05,2.71-6.05,6.05v26.72h-5.16v-26.72c0-1.61-.63-3.12-1.78-4.27s-2.66-1.78-4.27-1.78c-3.34,0-6.05,2.71-6.05,6.05v26.72h-5.16v-26.72c0-1.61-.63-3.12-1.76-4.26-1.13-1.16-2.65-1.79-4.29-1.79-3.34,0-6.05,2.71-6.05,6.05v26.72h-9.47V38.51h44.95l20.62,.14v46.9Z"/>
    <g>
      <path class="cls-7" d="M144.53,28.7v1.92c.35-.09,.57-.22,.7-.34,.22-.19,.32-.42,.31-.68-.02-.3-.13-.61-1-.9h0Z"/>
      <path class="cls-7" d="M144.07,22.43c-3.25,0-5.89,2.64-5.89,5.89s2.64,5.89,5.89,5.89,5.89-2.64,5.89-5.89-2.64-5.89-5.89-5.89Zm1.82,8.64c-.35,.29-.81,.5-1.36,.6v.6c0,.28-.23,.51-.51,.51s-.51-.23-.51-.51v-.52c-.63-.01-1.27-.14-1.73-.34-.26-.12-.37-.42-.26-.68,.12-.26,.42-.37,.68-.26,.28,.12,.77,.24,1.31,.25v-2.31c-.9-.28-1.71-.74-1.78-1.76-.04-.54,.19-1.05,.63-1.43,.3-.26,.69-.44,1.15-.55v-.61c0-.28,.23-.51,.51-.51s.51,.23,.51,.51v.5c.7,0,1.21,.15,1.47,.25,.26,.1,.4,.4,.3,.66-.1,.26-.4,.4-.66,.3-.15-.06-.53-.18-1.1-.18v2.03c.99,.27,1.95,.73,2.03,1.9,.04,.59-.19,1.14-.67,1.54h0Z"/>
      <path class="cls-7" d="M143.03,26.01c-.14,.12-.29,.31-.28,.58,.02,.25,.14,.5,.76,.74v-1.59c-.19,.07-.35,.16-.48,.26h0Z"/>
    </g>
    <g>
      <path class="cls-7" d="M200.21,91.23c-2.09-.43-3.48-2.35-3.22-4.52l.78-6.09c.52-4.35,3.75-7.83,7.93-8.7-1.22-1.39-3.05-2.26-4.97-2.44-1.05,.35-2.09,.61-3.22,.61s-2.27-.17-3.31-.61h-.09c-3.48,.35-6.36,3.04-6.8,6.61l-.78,6.09c-.09,.78,.44,1.57,1.22,1.74,1.13,.26,2.27,.43,3.4,.52l.87,14.35c.09,1.13,.96,2,2.18,2h6.53c.61,0,1.22-.26,1.57-.7l-.52-8.61c-.61-.09-1.13-.17-1.57-.26h0Z"/>
      <path class="cls-7" d="M197.42,67.58c1.22,0,2.44-.35,3.4-.87-.09-.43-.09-.96-.09-1.48,0-2.87,1.31-5.48,3.31-7.22-.96-2.7-3.57-4.61-6.62-4.61-3.92,0-7.06,3.13-7.06,7.05,0,3.91,3.14,7.13,7.06,7.13h0Z"/>
      <path class="cls-7" d="M220.42,80.88c-.44-3.57-3.22-6.26-6.71-6.61-1.05,.43-2.18,.61-3.31,.61-1.22,0-2.27-.17-3.31-.61-3.48,.35-6.27,3.13-6.71,6.61l-.78,6.09c-.09,.78,.44,1.57,1.22,1.74,1.13,.26,2.27,.43,3.4,.61l.78,14.26c.09,1.13,1.05,2,2.18,2h6.53c1.13,0,2-.87,2.09-2l.78-14.26c1.22-.17,2.35-.35,3.4-.61,.78-.17,1.31-.96,1.22-1.74l-.78-6.09Z"/>
      <path class="cls-7" d="M217.37,65.31c0,3.89-3.16,7.05-7.06,7.05s-7.06-3.15-7.06-7.05,3.16-7.05,7.06-7.05,7.06,3.15,7.06,7.05"/>
    </g>
    <g>
      <path class="cls-7" d="M89.84,91.23c-.44,.09-.96,.17-1.57,.26l-.52,8.61c.35,.43,.96,.7,1.57,.7h6.53c1.22,0,2.09-.87,2.18-2l.87-14.35c1.13-.09,2.27-.26,3.4-.52,.78-.17,1.31-.96,1.22-1.74l-.78-6.09c-.44-3.57-3.31-6.26-6.8-6.61h-.09c-1.05,.43-2.18,.61-3.31,.61s-2.18-.26-3.22-.61c-1.92,.17-3.75,1.04-4.97,2.44,4.18,.87,7.41,4.35,7.93,8.7l.78,6.09c.26,2.17-1.13,4.09-3.22,4.52h0Z"/>
      <path class="cls-7" d="M92.63,67.58c3.92,0,7.06-3.22,7.06-7.13,0-3.91-3.14-7.05-7.06-7.05-3.05,0-5.66,1.91-6.62,4.61,2,1.74,3.31,4.35,3.31,7.22,0,.52,0,1.04-.09,1.48,.96,.52,2.18,.87,3.4,.87h0Z"/>
      <path class="cls-7" d="M68.84,86.97c-.09,.78,.44,1.57,1.22,1.74,1.05,.26,2.18,.43,3.4,.61l.78,14.26c.09,1.13,.96,2,2.09,2h6.53c1.13,0,2.09-.87,2.18-2l.78-14.26c1.13-.17,2.27-.35,3.4-.61,.78-.17,1.31-.96,1.22-1.74l-.78-6.09c-.44-3.48-3.22-6.26-6.71-6.61-1.05,.43-2.09,.61-3.31,.61-1.13,0-2.27-.17-3.31-.61-3.48,.35-6.27,3.04-6.71,6.61l-.78,6.09Z"/>
      <path class="cls-7" d="M72.68,65.31c0-3.89,3.16-7.05,7.06-7.05,3.9,0,7.06,3.15,7.06,7.05,0,3.89-3.16,7.05-7.06,7.05-3.9,0-7.06-3.15-7.06-7.05"/>
    </g>
  </g>
</svg>