<?xml version="1.0" encoding="UTF-8"?><svg id="Layer_2" xmlns="http://www.w3.org/2000/svg" viewBox="0 0 175.2 141.66"><defs><style>.cls-1{stroke-width:2.5px;}.cls-1,.cls-2,.cls-3,.cls-4{stroke-miterlimit:10;}.cls-1,.cls-3,.cls-4{stroke:#8f1838;}.cls-1,.cls-5{fill:#fff;}.cls-2{stroke:#d8b7b4;stroke-width:3px;}.cls-2,.cls-3{fill:none;}.cls-3,.cls-6{fill-rule:evenodd;}.cls-7{fill:#939598;}.cls-8,.cls-6{fill:#8f1838;}.cls-9{fill:#a55056;}.cls-4{fill:#d8b7b4;}</style></defs><g id="Layer_2-2"><rect class="cls-8" x="67.23" y="109.5" width="107.97" height="19.09"/><path class="cls-7" d="m110.17,141.31c-.24-.23-.35-.63-.35-1.18v-4.94c0-.55.12-.95.35-1.18s.63-.35,1.19-.35h.34v.9h-.27c-.18,0-.31.04-.39.14-.08.09-.12.25-.12.49v4.94c0,.24.04.4.12.49.08.09.21.14.39.14h.27v.9h-.34c-.55,0-.95-.12-1.19-.35Z"/><path class="cls-7" d="m112.44,140.4c0-.5.08-.93.24-1.29s.45-.75.86-1.19c.41-.43.69-.8.84-1.11s.24-.63.24-.96c0-.3-.05-.51-.15-.62s-.24-.18-.42-.18c-.38,0-.57.23-.57.69v.75h-1.04v-.68c0-.57.14-1,.42-1.31.28-.3.69-.46,1.22-.46s.94.15,1.22.46.42.74.42,1.31c0,.43-.1.84-.3,1.25-.2.41-.56.87-1.06,1.4-.33.35-.55.63-.66.84-.11.22-.17.45-.17.7v.15h2.09v1h-3.18v-.76Z"/><path class="cls-7" d="m116.81,140.8c-.29-.31-.43-.74-.43-1.3v-3.68c0-.56.14-.99.43-1.3.29-.31.7-.46,1.24-.46s.95.15,1.24.46c.29.31.43.74.43,1.3v3.68c0,.56-.14.99-.43,1.3-.29.31-.7.46-1.24.46s-.95-.15-1.24-.46Zm1.81-1.23v-3.82c0-.46-.19-.69-.57-.69s-.57.23-.57.69v3.82c0,.46.19.69.57.69s.57-.23.57-.69Z"/><path class="cls-7" d="m120.44,140.4c0-.5.08-.93.24-1.29s.45-.75.86-1.19c.41-.43.69-.8.84-1.11s.24-.63.24-.96c0-.3-.05-.51-.15-.62s-.24-.18-.42-.18c-.38,0-.57.23-.57.69v.75h-1.04v-.68c0-.57.14-1,.42-1.31.28-.3.69-.46,1.22-.46s.94.15,1.22.46.42.74.42,1.31c0,.43-.1.84-.3,1.25-.2.41-.56.87-1.06,1.4-.33.35-.55.63-.66.84-.11.22-.17.45-.17.7v.15h2.09v1h-3.18v-.76Z"/><path class="cls-7" d="m124.44,140.4c0-.5.08-.93.24-1.29s.45-.75.86-1.19c.41-.43.69-.8.84-1.11s.24-.63.24-.96c0-.3-.05-.51-.15-.62s-.24-.18-.42-.18c-.38,0-.57.23-.57.69v.75h-1.04v-.68c0-.57.14-1,.42-1.31.28-.3.69-.46,1.22-.46s.94.15,1.22.46.42.74.42,1.31c0,.43-.1.84-.3,1.25-.2.41-.56.87-1.06,1.4-.33.35-.55.63-.66.84-.11.22-.17.45-.17.7v.15h2.09v1h-3.18v-.76Z"/><path class="cls-7" d="m128.4,140.76h.27c.18,0,.31-.04.39-.14.08-.09.12-.25.12-.49v-4.94c0-.24-.04-.4-.12-.49-.08-.09-.21-.14-.39-.14h-.27v-.9h.34c.55,0,.95.12,1.18.35s.36.63.36,1.18v4.94c0,.55-.12.95-.36,1.18s-.63.35-1.18.35h-.34v-.9Z"/><line class="cls-2" x1="94.63" y1="37.9" x2="143.88" y2="37.9"/><polyline class="cls-3" points="94.62 8.51 41.37 8.51 41.37 15.85"/><polyline class="cls-3" points="41.37 98.29 41.37 121.45 68.18 121.45"/><rect class="cls-4" x="92.65" y=".5" width="53.08" height="16.47"/><path class="cls-8" d="m95.31,12.96c0-.8.13-1.49.38-2.06.26-.57.71-1.2,1.38-1.9.65-.69,1.1-1.29,1.35-1.78.25-.49.38-1,.38-1.54,0-.48-.08-.81-.23-1s-.38-.28-.68-.28c-.61,0-.91.37-.91,1.1v1.2h-1.66v-1.09c0-.91.22-1.6.67-2.09s1.1-.73,1.95-.73,1.5.24,1.95.73.67,1.18.67,2.09c0,.68-.16,1.35-.49,2-.33.65-.89,1.4-1.69,2.24-.52.56-.88,1.01-1.06,1.35-.18.35-.27.72-.27,1.11v.24h3.34v1.6h-5.09v-1.22Z"/><path class="cls-8" d="m105.1,2.98h2.66c.91,0,1.57.21,1.98.63s.62,1.07.62,1.94v.45c0,.58-.09,1.05-.28,1.41-.19.36-.47.62-.86.78v.03c.87.3,1.31,1.08,1.31,2.34v.96c0,.86-.23,1.52-.68,1.98-.45.45-1.12.68-1.99.68h-2.77V2.98Zm2.45,4.56c.35,0,.62-.09.79-.27.18-.18.26-.49.26-.91v-.62c0-.4-.07-.7-.22-.88-.14-.18-.37-.27-.68-.27h-.85v2.96h.69Zm.32,5.04c.31,0,.54-.08.69-.25.15-.17.22-.45.22-.86v-.98c0-.51-.09-.87-.26-1.06-.18-.2-.47-.3-.87-.3h-.78v3.44h1.01Z"/><path class="cls-8" d="m111.96,2.98h1.76v11.2h-1.76V2.98Z"/><path class="cls-8" d="m115.43,2.98h1.76v9.6h2.9v1.6h-4.66V2.98Z"/><path class="cls-8" d="m121.34,2.98h1.76v9.6h2.9v1.6h-4.66V2.98Z"/><path class="cls-8" d="m127.24,2.98h1.76v11.2h-1.76V2.98Z"/><path class="cls-8" d="m131.27,13.6c-.46-.49-.69-1.18-.69-2.08v-5.89c0-.9.23-1.59.69-2.08.46-.49,1.12-.74,1.98-.74s1.53.25,1.98.74c.46.49.69,1.18.69,2.08v5.89c0,.9-.23,1.59-.69,2.08-.46.49-1.12.74-1.98.74s-1.53-.25-1.98-.74Zm2.9-1.97v-6.11c0-.74-.3-1.1-.91-1.1s-.91.37-.91,1.1v6.11c0,.74.3,1.1.91,1.1s.91-.37.91-1.1Z"/><path class="cls-8" d="m137.51,2.98h2.21l1.71,6.7h.03V2.98h1.57v11.2h-1.81l-2.11-8.18h-.03v8.18h-1.57V2.98Z"/><path class="cls-8" d="m94.93,22.98h1.7l.78,8.61h.03l.83-8.61h1.92l.83,8.61h.03l.78-8.61h1.52l-1.14,11.2h-2.19l-.8-7.55h-.03l-.8,7.55h-2.34l-1.14-11.2Z"/><path class="cls-8" d="m105.22,33.6c-.46-.49-.69-1.18-.69-2.08v-5.89c0-.9.23-1.59.69-2.08.46-.49,1.12-.74,1.98-.74s1.53.25,1.98.74c.46.49.69,1.18.69,2.08v5.89c0,.9-.23,1.59-.69,2.08-.46.49-1.12.74-1.98.74s-1.53-.25-1.98-.74Zm2.9-1.97v-6.11c0-.74-.3-1.1-.91-1.1s-.91.37-.91,1.1v6.11c0,.74.3,1.1.91,1.1s.91-.37.91-1.1Z"/><path class="cls-8" d="m111.46,22.98h2.61c.91,0,1.57.21,1.98.63s.62,1.07.62,1.94v.69c0,1.16-.38,1.9-1.15,2.21v.03c.43.13.73.39.9.78.18.4.26.92.26,1.58v1.97c0,.32.01.58.03.78s.07.39.16.58h-1.79c-.06-.18-.11-.35-.13-.51-.02-.16-.03-.45-.03-.86v-2.05c0-.51-.08-.87-.25-1.07s-.45-.3-.86-.3h-.61v4.8h-1.76v-11.2Zm2.4,4.8c.35,0,.62-.09.79-.27.18-.18.26-.49.26-.91v-.86c0-.4-.07-.7-.22-.88-.14-.18-.37-.27-.68-.27h-.8v3.2h.64Z"/><path class="cls-8" d="m118.31,22.98h1.76v4.72l2.24-4.72h1.76l-2.1,4.11,2.13,7.09h-1.84l-1.49-4.99-.7,1.42v3.57h-1.76v-11.2Z"/><path class="cls-8" d="m125.33,22.98h4.8v1.6h-3.04v2.96h2.42v1.6h-2.42v3.44h3.04v1.6h-4.8v-11.2Z"/><path class="cls-8" d="m131.54,22.98h2.61c.91,0,1.57.21,1.98.63s.62,1.07.62,1.94v.69c0,1.16-.38,1.9-1.15,2.21v.03c.43.13.73.39.9.78.18.4.26.92.26,1.58v1.97c0,.32.01.58.03.78s.07.39.16.58h-1.79c-.06-.18-.11-.35-.13-.51-.02-.16-.03-.45-.03-.86v-2.05c0-.51-.08-.87-.25-1.07s-.45-.3-.86-.3h-.61v4.8h-1.76v-11.2Zm2.4,4.8c.35,0,.62-.09.79-.27.18-.18.26-.49.26-.91v-.86c0-.4-.07-.7-.22-.88-.14-.18-.37-.27-.68-.27h-.8v3.2h.64Z"/><path class="cls-8" d="m138.74,33.61c-.44-.49-.66-1.18-.66-2.09v-.64h1.66v.77c0,.73.3,1.09.91,1.09.3,0,.53-.09.68-.26.15-.18.23-.46.23-.86,0-.47-.11-.88-.32-1.24-.21-.36-.61-.79-1.18-1.29-.73-.64-1.23-1.22-1.52-1.74-.29-.52-.43-1.1-.43-1.75,0-.89.22-1.57.67-2.06.45-.49,1.1-.73,1.95-.73s1.48.24,1.91.73.65,1.18.65,2.09v.46h-1.66v-.58c0-.38-.08-.66-.22-.84-.15-.18-.37-.26-.66-.26-.59,0-.88.36-.88,1.07,0,.41.11.78.33,1.14.22.35.62.78,1.19,1.28.74.64,1.24,1.22,1.52,1.74s.42,1.14.42,1.84c0,.92-.23,1.62-.68,2.11-.45.49-1.11.74-1.98.74s-1.5-.24-1.94-.73Z"/><circle class="cls-1" cx="41.58" cy="57.31" r="40.33"/><path class="cls-6" d="m45.86,76.82v2.95c0,1.21.99,2.2,2.2,2.2h1.32c1.21,0,2.2-.99,2.2-2.2v-2.95h-5.73Z"/><path class="cls-6" d="m39.36,76.82v2.95c0,1.21.99,2.2,2.2,2.2h1.32c1.21,0,2.2-.99,2.2-2.2v-2.95h-5.73Z"/><path class="cls-6" d="m57.51,49.37l6.08-6.08c.84-.84.84-2.2,0-3.04s-2.2-.84-3.04,0l-4.91,4.91-5.71-3.3c-.71-.41-1.48-.68-2.31-.68h-4.3c-.42,0-.76.06-1.17.16l-6.22,1.67-1.67-6.22c-.15-.55-.49-.99-.94-1.27l2.02-7.52,3.11.83c.31-1.15-.37-2.32-1.52-2.63-1.15-.31-2.32.37-2.63,1.52l-2,7.48c-.22-.01-.44.01-.67.07-1.14.3-1.82,1.49-1.52,2.63l2.22,8.3c.16.58.52,1.04,1.05,1.33.5.26,1.04.33,1.58.19l4.39-1.09v2.7h3.84c.83,0,1.5.67,1.5,1.5,0,.75-.56,1.38-1.29,1.49v2.16c0,1.02-.45,1.94-1.17,2.58h9.34v-9.09l3.28,1.7h0c.83.51,1.92.4,2.63-.31h0Z"/><ellipse class="cls-8" cx="45.47" cy="35.29" rx="4.3" ry="4.83"/><path class="cls-6" d="m15.74,57.93h46.13v16.32l1.46,1.65c-.32.16-.62.37-.88.64-.26.26-.48.56-.64.88l-1.65-1.46h-22.68c.23-.82.36-1.68.36-2.58,0-5.21-4.23-9.44-9.44-9.44s-9.44,4.23-9.44,9.44c0,.89.12,1.76.36,2.58h-4.65v-16.68l-2.74-1.58c-.25.14-.55.23-.86.23-.95,0-1.72-.77-1.72-1.72s.77-1.72,1.72-1.72,1.72.77,1.72,1.72l2.97,1.72h0Z"/><circle class="cls-8" cx="28.39" cy="73.38" r="1.72"/><path class="cls-6" d="m23.85,69.45c.19-.22.39-.42.61-.61l2.75,2.75c-.24.16-.45.37-.61.61l-2.75-2.75Z"/><path class="cls-6" d="m22.39,73.81c-.01-.14-.02-.28-.02-.43s0-.29.02-.43h3.89c-.03.14-.04.28-.04.43s.02.29.04.43h-3.89Z"/><path class="cls-6" d="m24.45,77.93c-.22-.19-.42-.39-.61-.61l2.75-2.75c.16.24.37.45.61.61l-2.75,2.75Z"/><path class="cls-6" d="m28.82,79.38c-.14.01-.28.02-.43.02s-.29,0-.43-.02v-3.89c.14.03.28.04.43.04s.29-.02.43-.04v3.89Z"/><path class="cls-6" d="m32.93,77.32c-.19.22-.39.42-.61.61l-2.75-2.75c.24-.16.45-.37.61-.61l2.75,2.75Z"/><path class="cls-6" d="m34.39,72.95c.01.14.02.28.02.43s0,.29-.02.43h-3.89c.03-.14.04-.28.04-.43s-.02-.29-.04-.43h3.89Z"/><path class="cls-6" d="m32.33,68.84c.22.19.42.39.61.61l-2.75,2.75c-.16-.24-.37-.45-.61-.61l2.75-2.75Z"/><path class="cls-6" d="m28.39,67.37c.14,0,.29,0,.43.02v3.89c-.14-.03-.28-.04-.43-.04s-.29.02-.43.04v-3.89c.14-.01.28-.02.43-.02Z"/><path class="cls-6" d="m28.39,66.94c3.56,0,6.44,2.88,6.44,6.44s-2.88,6.44-6.44,6.44-6.44-2.88-6.44-6.44,2.88-6.44,6.44-6.44Zm0-2.15c4.74,0,8.59,3.85,8.59,8.58s-3.85,8.58-8.59,8.58-8.58-3.85-8.58-8.58,3.85-8.58,8.58-8.58Z"/><path class="cls-6" d="m29.46,50.2c.35,0,.64.29.64.64s-.29.64-.64.64h-.64v3c0,1.42-1.16,2.58-2.58,2.58h-5.15c-1.42,0-2.58-1.16-2.58-2.58v-3h-.64c-.35,0-.64-.29-.64-.64s.29-.64.64-.64h11.59Z"/><path class="cls-6" d="m43.2,50.2c.35,0,.64.29.64.64s-.29.64-.64.64h-.64v3c0,1.42-1.16,2.58-2.58,2.58h-5.15c-1.42,0-2.58-1.16-2.58-2.58v-3h-.64c-.35,0-.64-.29-.64-.64s.29-.64.64-.64h11.59Z"/><path class="cls-6" d="m24.5,48.71c2.45.08,4.32.53,4.32,1.06h-10.3c0-.53,1.87-.98,4.32-1.06.09-.38.43-.66.83-.66s.74.28.83.66h0Z"/><path class="cls-6" d="m63.66,77.75c.67-.67,1.76-.67,2.43,0,.67.67.67,1.76,0,2.43-.67.67-1.76.67-2.43,0-.67-.67-.67-1.76,0-2.43Zm-.91-.91c1.17-1.17,3.08-1.17,4.25,0,1.17,1.17,1.17,3.08,0,4.25-1.17,1.17-3.08,1.17-4.25,0-1.17-1.17-1.17-3.08,0-4.25Z"/><path class="cls-6" d="m62.37,38.56c-2.39.55-4.31.61-4.44.09,3.32-.89,6.64-1.78,9.95-2.67.14.52-1.55,1.43-3.9,2.14.01.39-.25.75-.64.85-.39.1-.79-.08-.98-.42h0Z"/><path class="cls-9" d="m107.05,43.7h2.09l1.6,9.8h-1.54l-.28-1.95v.03h-1.75l-.28,1.92h-1.43l1.6-9.8Zm1.68,6.55l-.69-4.84h-.03l-.67,4.84h1.39Z"/><path class="cls-9" d="m111.75,43.7h2.28c.79,0,1.37.18,1.74.55s.55.94.55,1.7v.6c0,1.02-.34,1.66-1.01,1.93v.03c.37.11.64.34.79.69s.23.81.23,1.39v1.72c0,.28,0,.51.03.68.02.17.07.34.14.51h-1.57c-.06-.16-.09-.31-.11-.45-.02-.14-.03-.39-.03-.76v-1.79c0-.45-.07-.76-.22-.94-.14-.18-.39-.27-.75-.27h-.53v4.2h-1.54v-9.8Zm2.1,4.2c.31,0,.54-.08.69-.24s.23-.42.23-.8v-.76c0-.35-.06-.61-.19-.77s-.32-.24-.59-.24h-.7v2.8h.56Z"/><path class="cls-9" d="m117.67,43.7h4.2v1.4h-2.66v2.59h2.11v1.4h-2.11v3.01h2.66v1.4h-4.2v-9.8Z"/><path class="cls-9" d="m125.56,43.7h1.54v9.8h-1.54v-9.8Z"/><path class="cls-9" d="m128.52,43.7h1.93l1.5,5.87h.03v-5.87h1.37v9.8h-1.58l-1.85-7.15h-.03v7.15h-1.37v-9.8Z"/><path class="cls-9" d="m94.1,57.7h2.27c.77,0,1.34.21,1.72.62.38.41.57,1.01.57,1.81v.97c0,.79-.19,1.4-.57,1.81-.38.41-.96.62-1.72.62h-.73v3.99h-1.54v-9.8Zm2.27,4.41c.25,0,.44-.07.57-.21s.19-.38.19-.71v-1.16c0-.34-.06-.57-.19-.71s-.32-.21-.57-.21h-.73v3.01h.73Z"/><path class="cls-9" d="m99.79,57.7h2.28c.79,0,1.37.18,1.74.55s.55.94.55,1.7v.6c0,1.02-.34,1.66-1.01,1.93v.03c.37.11.64.34.79.69s.23.81.23,1.39v1.72c0,.28,0,.51.03.68.02.17.07.34.14.51h-1.57c-.06-.16-.09-.31-.11-.45-.02-.14-.03-.39-.03-.76v-1.79c0-.45-.07-.76-.22-.94-.14-.18-.39-.27-.75-.27h-.53v4.2h-1.54v-9.8Zm2.1,4.2c.31,0,.54-.08.69-.24s.23-.42.23-.8v-.76c0-.35-.06-.61-.19-.77s-.32-.24-.59-.24h-.7v2.8h.56Z"/><path class="cls-9" d="m105.71,57.7h4.2v1.4h-2.66v2.59h2.11v1.4h-2.11v3.01h2.66v1.4h-4.2v-9.8Z"/><path class="cls-9" d="m111.56,67.01c-.39-.42-.58-1.01-.58-1.78v-5.26c0-.77.19-1.36.58-1.78.39-.42.95-.63,1.69-.63s1.3.21,1.69.63c.39.42.58,1.01.58,1.78v1.04h-1.46v-1.13c0-.61-.26-.91-.77-.91s-.77.3-.77.91v5.47c0,.6.26.9.77.9s.77-.3.77-.9v-1.5h1.46v1.39c0,.77-.19,1.36-.58,1.78-.39.42-.95.63-1.69.63s-1.3-.21-1.69-.63Z"/><path class="cls-9" d="m117.9,57.7h2.09l1.6,9.8h-1.54l-.28-1.95v.03h-1.75l-.28,1.92h-1.43l1.6-9.8Zm1.68,6.55l-.69-4.84h-.03l-.67,4.84h1.39Z"/><path class="cls-9" d="m122.61,57.7h2.28c.79,0,1.37.18,1.74.55s.55.94.55,1.7v.6c0,1.02-.34,1.66-1.01,1.93v.03c.37.11.64.34.79.69s.23.81.23,1.39v1.72c0,.28,0,.51.03.68.02.17.07.34.14.51h-1.57c-.06-.16-.09-.31-.11-.45-.02-.14-.03-.39-.03-.76v-1.79c0-.45-.07-.76-.22-.94-.14-.18-.39-.27-.75-.27h-.53v4.2h-1.54v-9.8Zm2.1,4.2c.31,0,.54-.08.69-.24s.23-.42.23-.8v-.76c0-.35-.06-.61-.19-.77s-.32-.24-.59-.24h-.7v2.8h.56Z"/><path class="cls-9" d="m128.53,57.7h1.54v9.8h-1.54v-9.8Z"/><path class="cls-9" d="m131.99,66.99c-.4-.43-.6-1.04-.6-1.82v-5.15c0-.78.2-1.39.6-1.82.4-.43.98-.64,1.74-.64s1.33.21,1.74.64.6,1.04.6,1.82v5.15c0,.78-.2,1.39-.6,1.82s-.98.64-1.74.64-1.33-.21-1.74-.64Zm2.53-1.72v-5.35c0-.64-.27-.97-.8-.97s-.8.32-.8.97v5.35c0,.64.27.97.8.97s.8-.32.8-.97Z"/><path class="cls-9" d="m137.91,67c-.39-.42-.59-1.03-.59-1.83v-7.48h1.54v7.59c0,.34.07.58.2.73.14.15.33.22.58.22s.45-.07.58-.22.2-.39.2-.73v-7.59h1.48v7.48c0,.79-.2,1.4-.59,1.83-.39.42-.96.64-1.71.64s-1.32-.21-1.71-.64Z"/><path class="cls-9" d="m143.59,67c-.38-.42-.57-1.03-.57-1.83v-.56h1.46v.67c0,.63.27.95.8.95.26,0,.46-.08.6-.23.13-.15.2-.4.2-.75,0-.41-.09-.77-.28-1.08-.19-.31-.53-.69-1.04-1.13-.63-.56-1.08-1.07-1.33-1.52-.25-.45-.38-.96-.38-1.53,0-.77.2-1.37.59-1.8.39-.42.96-.64,1.71-.64s1.29.21,1.67.64c.38.42.57,1.03.57,1.83v.41h-1.46v-.5c0-.34-.07-.58-.2-.73-.13-.15-.32-.23-.57-.23-.51,0-.77.31-.77.94,0,.35.1.69.29.99s.54.68,1.04,1.12c.64.56,1.09,1.07,1.33,1.53.24.46.36.99.36,1.61,0,.8-.2,1.42-.6,1.85s-.97.64-1.73.64-1.31-.21-1.69-.64Z"/><path class="cls-9" d="m94.05,72.5h1.76v11.2h-1.76v-11.2Z"/><path class="cls-9" d="m97.52,72.5h2.21l1.71,6.7h.03v-6.7h1.57v11.2h-1.81l-2.11-8.18h-.03v8.18h-1.57v-11.2Z"/><path class="cls-9" d="m104.75,72.5h4.66v1.6h-2.9v3.12h2.27v1.6h-2.27v4.88h-1.76v-11.2Z"/><path class="cls-9" d="m111.22,83.12c-.46-.49-.69-1.18-.69-2.08v-5.89c0-.9.23-1.59.69-2.08.46-.49,1.12-.74,1.98-.74s1.53.25,1.98.74c.46.49.69,1.18.69,2.08v5.89c0,.9-.23,1.59-.69,2.08-.46.49-1.12.74-1.98.74s-1.53-.25-1.98-.74Zm2.9-1.97v-6.11c0-.74-.3-1.1-.91-1.1s-.91.37-.91,1.1v6.11c0,.74.3,1.1.91,1.1s.91-.37.91-1.1Z"/><path class="cls-9" d="m117.46,72.5h2.61c.91,0,1.57.21,1.98.63s.62,1.07.62,1.94v.69c0,1.16-.38,1.9-1.15,2.21v.03c.43.13.73.39.9.78.18.4.26.92.26,1.58v1.97c0,.32.01.58.03.78s.07.39.16.58h-1.79c-.06-.18-.11-.35-.13-.51-.02-.16-.03-.45-.03-.86v-2.05c0-.51-.08-.87-.25-1.07s-.45-.3-.86-.3h-.61v4.8h-1.76v-11.2Zm2.4,4.8c.35,0,.62-.09.79-.27.18-.18.26-.49.26-.91v-.86c0-.4-.07-.7-.22-.88-.14-.18-.37-.27-.68-.27h-.8v3.2h.64Z"/><path class="cls-9" d="m124.31,72.5h2.51l1.12,8.02h.03l1.12-8.02h2.51v11.2h-1.66v-8.48h-.03l-1.28,8.48h-1.47l-1.28-8.48h-.03v8.48h-1.54v-11.2Z"/><path class="cls-9" d="m134.67,72.5h2.38l1.82,11.2h-1.76l-.32-2.22v.03h-2l-.32,2.19h-1.63l1.82-11.2Zm1.92,7.49l-.78-5.54h-.03l-.77,5.54h1.58Z"/><path class="cls-9" d="m140.13,72.5h1.76v9.6h2.9v1.6h-4.66v-11.2Z"/><path class="cls-9" d="m82.84,100.7v-1.6c.17.04.36.06.58.06.35,0,.61-.09.78-.26.17-.18.26-.45.26-.81v-8.59h1.76v8.54c0,.92-.21,1.6-.63,2.05-.42.45-1.06.67-1.93.67-.32,0-.59-.02-.82-.06Z"/><path class="cls-9" d="m88.44,100.12c-.46-.49-.69-1.18-.69-2.08v-5.89c0-.9.23-1.59.69-2.08.46-.49,1.12-.74,1.98-.74s1.53.25,1.98.74c.46.49.69,1.18.69,2.08v5.89c0,.9-.23,1.59-.69,2.08-.46.49-1.12.74-1.98.74s-1.53-.25-1.98-.74Zm2.9-1.97v-6.11c0-.74-.3-1.1-.91-1.1s-.91.37-.91,1.1v6.11c0,.74.3,1.1.91,1.1s.91-.37.91-1.1Z"/><path class="cls-9" d="m94.68,89.5h2.66c.91,0,1.57.21,1.98.63s.62,1.07.62,1.94v.45c0,.58-.09,1.05-.28,1.41-.19.36-.47.62-.86.78v.03c.87.3,1.31,1.08,1.31,2.34v.96c0,.86-.23,1.52-.68,1.98-.45.45-1.12.68-1.99.68h-2.77v-11.2Zm2.45,4.56c.35,0,.62-.09.79-.27.18-.18.26-.49.26-.91v-.62c0-.4-.07-.7-.22-.88-.14-.18-.37-.27-.68-.27h-.85v2.96h.69Zm.32,5.04c.31,0,.54-.08.69-.25.15-.17.22-.45.22-.86v-.98c0-.51-.09-.87-.26-1.06-.18-.2-.47-.3-.87-.3h-.78v3.44h1.01Z"/><path class="cls-9" d="m101.9,100.13c-.44-.49-.66-1.18-.66-2.09v-.64h1.66v.77c0,.73.3,1.09.91,1.09.3,0,.53-.09.68-.26.15-.18.23-.46.23-.86,0-.47-.11-.88-.32-1.24-.21-.36-.61-.79-1.18-1.29-.73-.64-1.23-1.22-1.52-1.74-.29-.52-.43-1.1-.43-1.75,0-.89.22-1.57.67-2.06.45-.49,1.1-.73,1.95-.73s1.48.24,1.91.73.65,1.18.65,2.09v.46h-1.66v-.58c0-.38-.08-.66-.22-.84-.15-.18-.37-.26-.66-.26-.59,0-.88.36-.88,1.07,0,.41.11.78.33,1.14.22.35.62.78,1.19,1.28.74.64,1.24,1.22,1.52,1.74s.42,1.14.42,1.84c0,.92-.23,1.62-.68,2.11-.45.49-1.11.74-1.98.74s-1.5-.24-1.94-.73Z"/><path class="cls-8" d="m110.44,89.5h1.7l.78,8.61h.03l.83-8.61h1.92l.83,8.61h.03l.78-8.61h1.52l-1.14,11.2h-2.19l-.8-7.55h-.03l-.8,7.55h-2.34l-1.14-11.2Z"/><path class="cls-8" d="m120.17,89.5h1.76v11.2h-1.76v-11.2Z"/><path class="cls-8" d="m125.02,91.1h-1.84v-1.6h5.44v1.6h-1.84v9.6h-1.76v-9.6Z"/><path class="cls-8" d="m129.87,89.5h1.76v4.56h1.89v-4.56h1.76v11.2h-1.76v-5.04h-1.89v5.04h-1.76v-11.2Z"/><path class="cls-8" d="m137.55,100.12c-.46-.49-.69-1.18-.69-2.08v-5.89c0-.9.23-1.59.69-2.08.46-.49,1.12-.74,1.98-.74s1.53.25,1.98.74c.46.49.69,1.18.69,2.08v5.89c0,.9-.23,1.59-.69,2.08-.46.49-1.12.74-1.98.74s-1.53-.25-1.98-.74Zm2.9-1.97v-6.11c0-.74-.3-1.1-.91-1.1s-.91.37-.91,1.1v6.11c0,.74.3,1.1.91,1.1s.91-.37.91-1.1Z"/><path class="cls-8" d="m144.39,100.13c-.45-.49-.67-1.18-.67-2.09v-8.54h1.76v8.67c0,.38.08.66.23.83.15.17.38.26.66.26s.51-.09.66-.26c.15-.17.23-.45.23-.83v-8.67h1.7v8.54c0,.91-.22,1.6-.67,2.09s-1.1.73-1.95.73-1.5-.24-1.95-.73Z"/><path class="cls-8" d="m151.99,91.1h-1.84v-1.6h5.44v1.6h-1.84v9.6h-1.76v-9.6Z"/><path class="cls-5" d="m71.69,124.01c-.44-.49-.66-1.18-.66-2.09v-.64h1.66v.77c0,.73.3,1.09.91,1.09.3,0,.53-.09.68-.26.15-.18.23-.46.23-.86,0-.47-.11-.88-.32-1.24-.21-.36-.61-.79-1.18-1.29-.73-.64-1.23-1.22-1.52-1.74-.29-.52-.43-1.1-.43-1.75,0-.89.22-1.57.67-2.06.45-.49,1.1-.73,1.95-.73s1.48.24,1.91.73.65,1.18.65,2.09v.46h-1.66v-.58c0-.38-.08-.66-.22-.84-.15-.18-.37-.26-.66-.26-.59,0-.88.36-.88,1.07,0,.41.11.78.33,1.14.22.35.62.78,1.19,1.28.74.64,1.24,1.22,1.52,1.74s.42,1.14.42,1.84c0,.92-.23,1.62-.68,2.11-.45.49-1.11.74-1.98.74s-1.5-.24-1.94-.73Z"/><path class="cls-5" d="m78.25,124c-.46-.49-.69-1.18-.69-2.08v-5.89c0-.9.23-1.59.69-2.08.46-.49,1.12-.74,1.98-.74s1.53.25,1.98.74c.46.49.69,1.18.69,2.08v5.89c0,.9-.23,1.59-.69,2.08-.46.49-1.12.74-1.98.74s-1.53-.25-1.98-.74Zm2.9-1.97v-6.11c0-.74-.3-1.1-.91-1.1s-.91.37-.91,1.1v6.11c0,.74.3,1.1.91,1.1s.91-.37.91-1.1Z"/><path class="cls-5" d="m85.05,124.02c-.44-.48-.66-1.16-.66-2.03v-6.02c0-.87.22-1.55.66-2.03s1.08-.72,1.93-.72,1.49.24,1.93.72c.44.48.66,1.16.66,2.03v1.18h-1.66v-1.3c0-.69-.29-1.04-.88-1.04s-.88.35-.88,1.04v6.26c0,.68.29,1.02.88,1.02s.88-.34.88-1.02v-1.71h1.66v1.58c0,.87-.22,1.55-.66,2.03-.44.48-1.09.72-1.93.72s-1.49-.24-1.93-.72Z"/><path class="cls-5" d="m91.02,113.38h1.76v11.2h-1.76v-11.2Z"/><path class="cls-5" d="m95.85,113.38h2.38l1.82,11.2h-1.76l-.32-2.22v.03h-2l-.32,2.19h-1.63l1.82-11.2Zm1.92,7.49l-.78-5.54h-.03l-.77,5.54h1.58Z"/><path class="cls-5" d="m101.31,113.38h1.76v9.6h2.9v1.6h-4.66v-11.2Z"/><path class="cls-5" d="m110.17,113.38h2.59c.87,0,1.53.23,1.97.7.44.47.66,1.16.66,2.06v1.1c0,.91-.22,1.59-.66,2.06-.44.47-1.09.7-1.97.7h-.83v4.56h-1.76v-11.2Zm2.59,5.04c.29,0,.5-.08.65-.24.14-.16.22-.43.22-.82v-1.33c0-.38-.07-.66-.22-.82-.14-.16-.36-.24-.65-.24h-.83v3.44h.83Z"/><path class="cls-5" d="m116.75,113.38h2.61c.91,0,1.57.21,1.98.63s.62,1.07.62,1.94v.69c0,1.16-.38,1.9-1.15,2.21v.03c.43.13.73.39.9.78.18.4.26.92.26,1.58v1.97c0,.32.01.58.03.78s.07.39.16.58h-1.79c-.06-.18-.11-.35-.13-.51-.02-.16-.03-.45-.03-.86v-2.05c0-.51-.08-.87-.25-1.07s-.45-.3-.86-.3h-.61v4.8h-1.76v-11.2Zm2.4,4.8c.35,0,.62-.09.79-.27.18-.18.26-.49.26-.91v-.86c0-.4-.07-.7-.22-.88-.14-.18-.37-.27-.68-.27h-.8v3.2h.64Z"/><path class="cls-5" d="m124.16,124c-.46-.49-.69-1.18-.69-2.08v-5.89c0-.9.23-1.59.69-2.08.46-.49,1.12-.74,1.98-.74s1.53.25,1.98.74c.46.49.69,1.18.69,2.08v5.89c0,.9-.23,1.59-.69,2.08-.46.49-1.12.74-1.98.74s-1.53-.25-1.98-.74Zm2.9-1.97v-6.11c0-.74-.3-1.1-.91-1.1s-.91.37-.91,1.1v6.11c0,.74.3,1.1.91,1.1s.91-.37.91-1.1Z"/><path class="cls-5" d="m131.71,114.98h-1.84v-1.6h5.44v1.6h-1.84v9.6h-1.76v-9.6Z"/><path class="cls-5" d="m136.56,113.38h4.8v1.6h-3.04v2.96h2.42v1.6h-2.42v3.44h3.04v1.6h-4.8v-11.2Z"/><path class="cls-5" d="m143.32,124.02c-.44-.48-.66-1.16-.66-2.03v-6.02c0-.87.22-1.55.66-2.03s1.08-.72,1.93-.72,1.49.24,1.93.72c.44.48.66,1.16.66,2.03v1.18h-1.66v-1.3c0-.69-.29-1.04-.88-1.04s-.88.35-.88,1.04v6.26c0,.68.29,1.02.88,1.02s.88-.34.88-1.02v-1.71h1.66v1.58c0,.87-.22,1.55-.66,2.03-.44.48-1.09.72-1.93.72s-1.49-.24-1.93-.72Z"/><path class="cls-5" d="m150.67,114.98h-1.84v-1.6h5.44v1.6h-1.84v9.6h-1.76v-9.6Z"/><path class="cls-5" d="m155.52,113.38h1.76v11.2h-1.76v-11.2Z"/><path class="cls-5" d="m159.55,124c-.46-.49-.69-1.18-.69-2.08v-5.89c0-.9.23-1.59.69-2.08.46-.49,1.12-.74,1.98-.74s1.53.25,1.98.74c.46.49.69,1.18.69,2.08v5.89c0,.9-.23,1.59-.69,2.08-.46.49-1.12.74-1.98.74s-1.53-.25-1.98-.74Zm2.9-1.97v-6.11c0-.74-.3-1.1-.91-1.1s-.91.37-.91,1.1v6.11c0,.74.3,1.1.91,1.1s.91-.37.91-1.1Z"/><path class="cls-5" d="m165.79,113.38h2.21l1.71,6.7h.03v-6.7h1.57v11.2h-1.81l-2.11-8.18h-.03v8.18h-1.57v-11.2Z"/><line class="cls-2" x1="111.47" y1="104.32" x2="153.84" y2="104.32"/></g></svg>