<?xml version="1.0" encoding="UTF-8"?>
<svg id="Layer_2" data-name="Layer 2" xmlns="http://www.w3.org/2000/svg" viewBox="0 0 158.68 201.12">
  <defs>
    <style>
      .cls-1 {
        fill: #bdbcbb;
      }

      .cls-2 {
        fill: #d8b7b4;
      }

      .cls-3 {
        fill: #fff;
      }

      .cls-4 {
        fill: #939598;
      }

      .cls-5 {
        fill: none;
        stroke: #791332;
        stroke-miterlimit: 10;
      }

      .cls-6 {
        fill: #e1e2e3;
      }

      .cls-7 {
        fill: #a55056;
      }

      .cls-8 {
        fill: #8f1838;
      }
    </style>
  </defs>
  <g id="Layer_2-2" data-name="Layer 2">
    <rect class="cls-7" x="3.35" y="159.06" width="78.19" height="15.7"/>
    <g>
      <path class="cls-8" d="M2.99,4.59H0V2.57c2.42,0,3.28-.52,3.93-2.29h1.92V18.48H2.99V4.59Z"/>
      <path class="cls-8" d="M13.26,2.68h2.09V15.98h-2.09V2.68Z"/>
      <path class="cls-8" d="M16.91,2.68h2.62l2.03,7.96h.04V2.68h1.86V15.98h-2.15l-2.51-9.71h-.04V15.98h-1.86V2.68Z"/>
      <path class="cls-8" d="M34.25,15.18h-5.46v-2.6L33.99,.28h3.12V12.58h1.35v2.6h-1.35v3.3h-2.86v-3.3Zm0-2.6V5.48h-.05l-2.81,7.1h2.86Z"/>
      <path class="cls-8" d="M46.65,10.73L43.19,.28h3.04l1.95,6.68h.05l1.95-6.68h2.78l-3.46,10.45v7.75h-2.86v-7.75Z"/>
      <path class="cls-8" d="M53.59,14.16V4.59C53.59,1.68,55.13,.02,57.94,.02s4.34,1.66,4.34,4.58V14.16c0,2.91-1.53,4.58-4.34,4.58s-4.34-1.66-4.34-4.58Zm5.82,.18V4.41c0-1.3-.57-1.79-1.48-1.79s-1.48,.49-1.48,1.79V14.35c0,1.3,.57,1.79,1.48,1.79s1.48-.49,1.48-1.79Z"/>
      <path class="cls-8" d="M64.1,14.16V.28h2.86V14.37c0,1.3,.55,1.77,1.46,1.77s1.46-.47,1.46-1.77V.28h2.76V14.16c0,2.91-1.46,4.58-4.26,4.58s-4.26-1.66-4.26-4.58Z"/>
      <path class="cls-8" d="M74.65,.28h3.59l2.78,10.89h.05V.28h2.55V18.48h-2.94l-3.43-13.29h-.05v13.29h-2.55V.28Z"/>
      <path class="cls-8" d="M85.55,14.16V4.59C85.55,1.68,87,.02,89.81,.02s4.26,1.66,4.26,4.58v1.56h-2.7v-1.74c0-1.3-.57-1.79-1.48-1.79s-1.48,.49-1.48,1.79V14.37c0,1.3,.57,1.77,1.48,1.77s1.48-.47,1.48-1.77v-3.56h-1.43v-2.6h4.13v5.95c0,2.91-1.46,4.58-4.26,4.58s-4.26-1.66-4.26-4.58Z"/>
      <path class="cls-8" d="M100.08,.28h4.21c2.86,0,4.26,1.59,4.26,4.5v1.79c0,2.91-1.4,4.5-4.26,4.5h-1.35v7.41h-2.86V.28Zm4.21,8.19c.91,0,1.4-.42,1.4-1.72v-2.16c0-1.3-.49-1.72-1.4-1.72h-1.35v5.59h1.35Z"/>
      <path class="cls-8" d="M110.12,.28h7.8V2.88h-4.94V7.69h3.93v2.6h-3.93v5.59h4.94v2.6h-7.8V.28Z"/>
      <path class="cls-8" d="M119.35,14.16V4.59C119.35,1.68,120.88,.02,123.69,.02s4.34,1.66,4.34,4.58V14.16c0,2.91-1.53,4.58-4.34,4.58s-4.34-1.66-4.34-4.58Zm5.82,.18V4.41c0-1.3-.57-1.79-1.48-1.79s-1.48,.49-1.48,1.79V14.35c0,1.3,.57,1.79,1.48,1.79s1.48-.49,1.48-1.79Z"/>
      <path class="cls-8" d="M129.95,.28h4.21c2.86,0,4.26,1.59,4.26,4.5v1.79c0,2.91-1.4,4.5-4.26,4.5h-1.35v7.41h-2.86V.28Zm4.21,8.19c.91,0,1.4-.42,1.4-1.72v-2.16c0-1.3-.49-1.72-1.4-1.72h-1.35v5.59h1.35Z"/>
      <path class="cls-8" d="M139.99,.28h2.86V15.88h4.71v2.6h-7.57V.28Z"/>
      <path class="cls-8" d="M148.93,.28h7.8V2.88h-4.94V7.69h3.93v2.6h-3.93v5.59h4.94v2.6h-7.8V.28Z"/>
      <path class="cls-8" d="M14.14,35.18h2.83l2.17,13.3h-2.09l-.38-2.64v.04h-2.37l-.38,2.6h-1.94l2.17-13.3Zm2.28,8.89l-.93-6.57h-.04l-.91,6.57h1.88Z"/>
      <path class="cls-8" d="M20.15,35.18h3.1c2.17,0,3.1,1.01,3.1,3.06v.82c0,1.37-.44,2.24-1.37,2.62v.04c1.04,.32,1.39,1.31,1.39,2.81v2.34c0,.65,.02,1.12,.23,1.61h-2.13c-.11-.34-.19-.55-.19-1.63v-2.43c0-1.23-.36-1.63-1.31-1.63h-.72v5.7h-2.09v-13.3Zm2.85,5.7c.78,0,1.25-.34,1.25-1.41v-1.03c0-.95-.32-1.37-1.06-1.37h-.95v3.8h.76Z"/>
      <path class="cls-8" d="M27.8,35.18h5.7v1.9h-3.61v3.51h2.87v1.9h-2.87v4.08h3.61v1.9h-5.7v-13.3Z"/>
      <path class="cls-8" d="M37.74,35.18h2.62l2.03,7.96h.04v-7.96h1.86v13.3h-2.15l-2.51-9.71h-.04v9.71h-1.86v-13.3Z"/>
      <path class="cls-8" d="M45.7,45.33v-6.99c0-2.13,1.12-3.34,3.17-3.34s3.17,1.22,3.17,3.34v6.99c0,2.13-1.12,3.34-3.17,3.34s-3.17-1.22-3.17-3.34Zm4.25,.13v-7.26c0-.95-.42-1.31-1.08-1.31s-1.08,.36-1.08,1.31v7.26c0,.95,.42,1.31,1.08,1.31s1.08-.36,1.08-1.31Z"/>
      <path class="cls-8" d="M55.01,37.08h-2.19v-1.9h6.46v1.9h-2.19v11.4h-2.09v-11.4Z"/>
      <path class="cls-8" d="M63.33,35.18h2.09v13.3h-2.09v-13.3Z"/>
      <path class="cls-8" d="M66.98,35.18h2.62l2.03,7.96h.04v-7.96h1.86v13.3h-2.15l-2.51-9.71h-.04v9.71h-1.86v-13.3Z"/>
      <path class="cls-8" d="M78.13,35.18h5.7v1.9h-3.61v3.51h2.87v1.9h-2.87v4.08h3.61v1.9h-5.7v-13.3Z"/>
      <path class="cls-8" d="M85.03,35.18h3.19c2.09,0,3.12,1.16,3.12,3.29v6.73c0,2.13-1.03,3.29-3.12,3.29h-3.19v-13.3Zm3.15,11.4c.67,0,1.06-.34,1.06-1.29v-6.92c0-.95-.4-1.29-1.06-1.29h-1.06v9.5h1.06Z"/>
      <path class="cls-8" d="M92.67,45.33v-10.14h2.09v10.3c0,.95,.4,1.29,1.06,1.29s1.06-.34,1.06-1.29v-10.3h2.01v10.14c0,2.13-1.06,3.34-3.12,3.34s-3.12-1.22-3.12-3.34Z"/>
      <path class="cls-8" d="M100.25,45.4v-7.14c0-2.05,1.06-3.27,3.08-3.27s3.08,1.22,3.08,3.27v1.41h-1.98v-1.54c0-.87-.42-1.23-1.04-1.23s-1.04,.36-1.04,1.23v7.43c0,.87,.42,1.22,1.04,1.22s1.04-.34,1.04-1.22v-2.03h1.98v1.88c0,2.05-1.06,3.27-3.08,3.27s-3.08-1.22-3.08-3.27Z"/>
      <path class="cls-8" d="M109.28,35.18h2.83l2.17,13.3h-2.09l-.38-2.64v.04h-2.37l-.38,2.6h-1.94l2.17-13.3Zm2.28,8.89l-.93-6.57h-.04l-.91,6.57h1.88Z"/>
      <path class="cls-8" d="M116.04,37.08h-2.19v-1.9h6.46v1.9h-2.19v11.4h-2.09v-11.4Z"/>
      <path class="cls-8" d="M121.32,35.18h2.09v13.3h-2.09v-13.3Z"/>
      <path class="cls-8" d="M124.82,45.33v-6.99c0-2.13,1.12-3.34,3.17-3.34s3.17,1.22,3.17,3.34v6.99c0,2.13-1.12,3.34-3.17,3.34s-3.17-1.22-3.17-3.34Zm4.25,.13v-7.26c0-.95-.42-1.31-1.08-1.31s-1.08,.36-1.08,1.31v7.26c0,.95,.42,1.31,1.08,1.31s1.08-.36,1.08-1.31Z"/>
      <path class="cls-8" d="M132.57,35.18h2.62l2.03,7.96h.04v-7.96h1.86v13.3h-2.15l-2.51-9.71h-.04v9.71h-1.86v-13.3Z"/>
      <path class="cls-8" d="M141.37,48.48h-.68v-2.01h2.01v1.8l-1.04,2.49h-.97l.68-2.28Z"/>
      <path class="cls-8" d="M.46,55.18H6.16v1.9H2.55v3.51h2.87v1.9H2.55v4.08h3.61v1.9H.46v-13.3Z"/>
      <path class="cls-8" d="M7.36,55.18h2.98l1.33,9.52h.04l1.33-9.52h2.98v13.3h-1.98v-10.07h-.04l-1.52,10.07h-1.75l-1.52-10.07h-.04v10.07h-1.82v-13.3Z"/>
      <path class="cls-8" d="M17.58,55.18h3.08c2.09,0,3.12,1.16,3.12,3.29v1.31c0,2.13-1.03,3.29-3.12,3.29h-.99v5.41h-2.09v-13.3Zm3.08,5.98c.67,0,1.03-.3,1.03-1.25v-1.58c0-.95-.36-1.25-1.03-1.25h-.99v4.08h.99Z"/>
      <path class="cls-8" d="M24.92,55.18h2.09v11.4h3.44v1.9h-5.53v-13.3Z"/>
      <path class="cls-8" d="M31.22,65.33v-6.99c0-2.13,1.12-3.34,3.17-3.34s3.17,1.22,3.17,3.34v6.99c0,2.13-1.12,3.34-3.17,3.34s-3.17-1.22-3.17-3.34Zm4.25,.13v-7.26c0-.95-.42-1.31-1.08-1.31s-1.08,.36-1.08,1.31v7.26c0,.95,.42,1.31,1.08,1.31s1.08-.36,1.08-1.31Z"/>
      <path class="cls-8" d="M40.55,62.82l-2.53-7.64h2.22l1.42,4.88h.04l1.42-4.88h2.03l-2.53,7.64v5.66h-2.09v-5.66Z"/>
      <path class="cls-8" d="M46.12,55.18h2.98l1.33,9.52h.04l1.33-9.52h2.98v13.3h-1.98v-10.07h-.04l-1.52,10.07h-1.75l-1.52-10.07h-.04v10.07h-1.82v-13.3Z"/>
      <path class="cls-8" d="M56.34,55.18h5.7v1.9h-3.61v3.51h2.87v1.9h-2.87v4.08h3.61v1.9h-5.7v-13.3Z"/>
      <path class="cls-8" d="M63.24,55.18h2.62l2.03,7.96h.04v-7.96h1.86v13.3h-2.15l-2.51-9.71h-.04v9.71h-1.86v-13.3Z"/>
      <path class="cls-8" d="M72.99,57.08h-2.19v-1.9h6.46v1.9h-2.18v11.4h-2.09v-11.4Z"/>
      <path class="cls-8" d="M81.16,65.33v-6.99c0-2.13,1.12-3.34,3.17-3.34s3.17,1.22,3.17,3.34v6.99c0,2.13-1.12,3.34-3.17,3.34s-3.17-1.22-3.17-3.34Zm4.25,.13v-7.26c0-.95-.42-1.31-1.08-1.31s-1.08,.36-1.08,1.31v7.26c0,.95,.42,1.31,1.08,1.31s1.08-.36,1.08-1.31Z"/>
      <path class="cls-8" d="M88.91,55.18h3.1c2.17,0,3.1,1.01,3.1,3.06v.82c0,1.37-.44,2.24-1.37,2.62v.04c1.04,.32,1.39,1.31,1.39,2.81v2.34c0,.65,.02,1.12,.23,1.61h-2.13c-.11-.34-.19-.55-.19-1.63v-2.43c0-1.23-.36-1.63-1.31-1.63h-.72v5.7h-2.09v-13.3Zm2.85,5.7c.78,0,1.25-.34,1.25-1.41v-1.03c0-.95-.32-1.37-1.06-1.37h-.95v3.8h.76Z"/>
      <path class="cls-8" d="M101.24,57.08h-2.19v-1.9h6.46v1.9h-2.19v11.4h-2.09v-11.4Z"/>
      <path class="cls-8" d="M106.52,55.18h3.1c2.17,0,3.1,1.01,3.1,3.06v.82c0,1.37-.44,2.24-1.37,2.62v.04c1.04,.32,1.39,1.31,1.39,2.81v2.34c0,.65,.02,1.12,.23,1.61h-2.13c-.11-.34-.19-.55-.19-1.63v-2.43c0-1.23-.36-1.63-1.31-1.63h-.72v5.7h-2.09v-13.3Zm2.85,5.7c.78,0,1.25-.34,1.25-1.41v-1.03c0-.95-.32-1.37-1.06-1.37h-.95v3.8h.76Z"/>
      <path class="cls-8" d="M115.79,55.18h2.83l2.17,13.3h-2.09l-.38-2.64v.04h-2.37l-.38,2.6h-1.94l2.17-13.3Zm2.28,8.89l-.93-6.57h-.04l-.91,6.57h1.88Z"/>
      <path class="cls-8" d="M121.8,55.18h2.09v13.3h-2.09v-13.3Z"/>
      <path class="cls-8" d="M125.44,55.18h2.62l2.03,7.96h.04v-7.96h1.86v13.3h-2.15l-2.51-9.71h-.04v9.71h-1.86v-13.3Z"/>
      <path class="cls-8" d="M133.56,55.18h2.09v13.3h-2.09v-13.3Z"/>
      <path class="cls-8" d="M137.21,55.18h2.62l2.03,7.96h.04v-7.96h1.86v13.3h-2.15l-2.51-9.71h-.04v9.71h-1.86v-13.3Z"/>
      <path class="cls-8" d="M145.17,65.33v-6.99c0-2.13,1.06-3.34,3.12-3.34s3.12,1.22,3.12,3.34v1.14h-1.98v-1.27c0-.95-.42-1.31-1.08-1.31s-1.08,.36-1.08,1.31v7.28c0,.95,.42,1.29,1.08,1.29s1.08-.34,1.08-1.29v-2.6h-1.04v-1.9h3.02v4.35c0,2.13-1.06,3.34-3.12,3.34s-3.12-1.22-3.12-3.34Z"/>
      <path class="cls-8" d="M153.43,68.48h-.68v-2.01h2.01v1.8l-1.04,2.49h-.97l.68-2.28Z"/>
    </g>
    <g>
      <path class="cls-7" d="M5.93,145.72h1.49l.69,7.54h.03l.73-7.54h1.68l.73,7.54h.03l.69-7.54h1.33l-.99,9.81h-1.92l-.7-6.61h-.03l-.7,6.61h-2.04l-1-9.81Z"/>
      <path class="cls-7" d="M14.38,145.72h1.54v9.81h-1.54v-9.81Z"/>
      <path class="cls-7" d="M18.55,147.12h-1.61v-1.4h4.76v1.4h-1.61v8.4h-1.54v-8.4Z"/>
      <path class="cls-7" d="M22.72,145.72h1.54v3.99h1.65v-3.99h1.54v9.81h-1.54v-4.41h-1.65v4.41h-1.54v-9.81Z"/>
      <path class="cls-7" d="M32.81,151.35l-1.86-5.63h1.64l1.05,3.6h.03l1.05-3.6h1.5l-1.86,5.63v4.17h-1.54v-4.17Z"/>
      <path class="cls-7" d="M36.83,153.2v-5.15c0-1.57,.83-2.47,2.34-2.47s2.34,.9,2.34,2.47v5.15c0,1.57-.83,2.47-2.34,2.47s-2.34-.9-2.34-2.47Zm3.14,.1v-5.35c0-.7-.31-.97-.8-.97s-.8,.27-.8,.97v5.35c0,.7,.31,.97,.8,.97s.8-.27,.8-.97Z"/>
      <path class="cls-7" d="M42.77,153.2v-7.48h1.54v7.59c0,.7,.29,.95,.78,.95s.78-.25,.78-.95v-7.59h1.48v7.48c0,1.57-.78,2.47-2.3,2.47s-2.3-.9-2.3-2.47Z"/>
      <path class="cls-7" d="M48.73,145.72h1.93l1.5,5.87h.03v-5.87h1.37v9.81h-1.58l-1.85-7.16h-.03v7.16h-1.37v-9.81Z"/>
      <path class="cls-7" d="M54.88,153.2v-5.15c0-1.57,.79-2.47,2.3-2.47s2.3,.9,2.3,2.47v.84h-1.46v-.94c0-.7-.31-.97-.8-.97s-.8,.27-.8,.97v5.36c0,.7,.31,.95,.8,.95s.8-.25,.8-.95v-1.92h-.77v-1.4h2.23v3.21c0,1.57-.78,2.47-2.3,2.47s-2.3-.9-2.3-2.47Z"/>
      <path class="cls-7" d="M62.9,145.72h1.49l.69,7.54h.03l.73-7.54h1.68l.73,7.54h.03l.69-7.54h1.33l-.99,9.81h-1.92l-.7-6.61h-.03l-.7,6.61h-2.04l-1-9.81Z"/>
      <path class="cls-7" d="M71.23,153.2v-5.15c0-1.57,.83-2.47,2.34-2.47s2.34,.9,2.34,2.47v5.15c0,1.57-.83,2.47-2.34,2.47s-2.34-.9-2.34-2.47Zm3.14,.1v-5.35c0-.7-.31-.97-.8-.97s-.8,.27-.8,.97v5.35c0,.7,.31,.97,.8,.97s.8-.27,.8-.97Z"/>
      <path class="cls-7" d="M77.22,145.72h2.2l.98,7.02h.03l.98-7.02h2.2v9.81h-1.46v-7.42h-.03l-1.12,7.42h-1.29l-1.12-7.42h-.03v7.42h-1.34v-9.81Z"/>
      <path class="cls-7" d="M85.03,145.72h4.2v1.4h-2.66v2.59h2.12v1.4h-2.12v3.01h2.66v1.4h-4.2v-9.81Z"/>
      <path class="cls-7" d="M90.4,145.72h1.93l1.5,5.87h.03v-5.87h1.37v9.81h-1.58l-1.85-7.16h-.03v7.16h-1.37v-9.81Z"/>
      <path class="cls-7" d="M99.17,145.72h2.2l.98,7.02h.03l.98-7.02h2.2v9.81h-1.46v-7.42h-.03l-1.12,7.42h-1.29l-1.12-7.42h-.03v7.42h-1.34v-9.81Z"/>
      <path class="cls-7" d="M106.87,153.2v-5.15c0-1.57,.83-2.47,2.34-2.47s2.34,.9,2.34,2.47v5.15c0,1.57-.83,2.47-2.34,2.47s-2.34-.9-2.34-2.47Zm3.14,.1v-5.35c0-.7-.31-.97-.8-.97s-.8,.27-.8,.97v5.35c0,.7,.31,.97,.8,.97s.8-.27,.8-.97Z"/>
      <path class="cls-7" d="M112.87,145.72h2.28c1.6,0,2.28,.74,2.28,2.25v.6c0,1.01-.32,1.65-1.01,1.93v.03c.77,.24,1.02,.97,1.02,2.07v1.72c0,.48,.01,.83,.17,1.19h-1.57c-.08-.25-.14-.41-.14-1.2v-1.79c0-.91-.27-1.2-.97-1.2h-.53v4.2h-1.54v-9.81Zm2.1,4.2c.57,0,.92-.25,.92-1.04v-.76c0-.7-.24-1.01-.78-1.01h-.7v2.8h.56Z"/>
      <path class="cls-7" d="M118.79,145.72h4.2v1.4h-2.66v2.59h2.12v1.4h-2.12v3.01h2.66v1.4h-4.2v-9.81Z"/>
      <path class="cls-7" d="M127.87,147.12h-1.61v-1.4h4.76v1.4h-1.61v8.4h-1.54v-8.4Z"/>
      <path class="cls-7" d="M132.04,145.72h1.54v3.99h1.65v-3.99h1.54v9.81h-1.54v-4.41h-1.65v4.41h-1.54v-9.81Z"/>
      <path class="cls-7" d="M139.4,145.72h2.09l1.6,9.81h-1.54l-.28-1.95v.03h-1.75l-.28,1.92h-1.43l1.6-9.81Zm1.68,6.56l-.69-4.85h-.03l-.67,4.85h1.39Z"/>
      <path class="cls-7" d="M144.1,145.72h1.93l1.5,5.87h.03v-5.87h1.37v9.81h-1.58l-1.85-7.16h-.03v7.16h-1.37v-9.81Z"/>
      <path class="cls-3" d="M7.92,163.12h-1.61v-1.4h4.76v1.4h-1.61v8.4h-1.54v-8.4Z"/>
      <path class="cls-3" d="M11.79,161.72h1.49l.69,7.54h.03l.73-7.54h1.68l.73,7.54h.03l.69-7.54h1.33l-.99,9.81h-1.92l-.7-6.61h-.03l-.7,6.61h-2.04l-1-9.81Z"/>
      <path class="cls-3" d="M20.23,161.72h1.54v9.81h-1.54v-9.81Z"/>
      <path class="cls-3" d="M23.1,169.25v-5.27c0-1.51,.78-2.41,2.27-2.41s2.27,.9,2.27,2.41v1.04h-1.46v-1.13c0-.64-.31-.91-.77-.91s-.77,.27-.77,.91v5.48c0,.64,.31,.9,.77,.9s.77-.25,.77-.9v-1.5h1.46v1.39c0,1.51-.78,2.41-2.27,2.41s-2.27-.9-2.27-2.41Z"/>
      <path class="cls-3" d="M28.84,161.72h4.2v1.4h-2.66v2.59h2.12v1.4h-2.12v3.01h2.66v1.4h-4.2v-9.81Z"/>
      <path class="cls-3" d="M37.91,161.72h2.09l1.6,9.81h-1.54l-.28-1.95v.03h-1.75l-.28,1.92h-1.43l1.6-9.81Zm1.68,6.56l-.69-4.85h-.03l-.67,4.85h1.39Z"/>
      <path class="cls-3" d="M42.31,169.2v-.56h1.46v.67c0,.7,.31,.95,.8,.95s.8-.25,.8-.98c0-.81-.31-1.33-1.32-2.21-1.29-1.13-1.71-1.93-1.71-3.05,0-1.54,.8-2.44,2.3-2.44s2.24,.9,2.24,2.47v.41h-1.46v-.5c0-.7-.28-.97-.77-.97s-.77,.27-.77,.94c0,.71,.32,1.23,1.33,2.12,1.29,1.13,1.69,1.92,1.69,3.14,0,1.6-.81,2.49-2.33,2.49s-2.27-.9-2.27-2.47Z"/>
      <path class="cls-3" d="M50.58,161.72h1.54v8.4h2.54v1.4h-4.08v-9.81Z"/>
      <path class="cls-3" d="M55.68,161.72h1.54v9.81h-1.54v-9.81Z"/>
      <path class="cls-3" d="M58.64,161.72h1.54v4.13l1.96-4.13h1.54l-1.83,3.6,1.86,6.21h-1.61l-1.3-4.37-.62,1.25v3.12h-1.54v-9.81Z"/>
      <path class="cls-3" d="M64.72,161.72h4.2v1.4h-2.66v2.59h2.12v1.4h-2.12v3.01h2.66v1.4h-4.2v-9.81Z"/>
      <path class="cls-3" d="M70.08,161.72h1.54v8.4h2.54v1.4h-4.08v-9.81Z"/>
      <path class="cls-3" d="M75.36,167.35l-1.86-5.63h1.64l1.05,3.6h.03l1.05-3.6h1.5l-1.86,5.63v4.17h-1.54v-4.17Z"/>
      <path class="cls-7" d="M85.97,161.72h2.09l1.6,9.81h-1.54l-.28-1.95v.03h-1.75l-.28,1.92h-1.43l1.6-9.81Zm1.68,6.56l-.69-4.85h-.03l-.67,4.85h1.39Z"/>
      <path class="cls-7" d="M90.37,169.2v-.56h1.46v.67c0,.7,.31,.95,.8,.95s.8-.25,.8-.98c0-.81-.31-1.33-1.32-2.21-1.29-1.13-1.71-1.93-1.71-3.05,0-1.54,.8-2.44,2.3-2.44s2.24,.9,2.24,2.47v.41h-1.46v-.5c0-.7-.28-.97-.77-.97s-.77,.27-.77,.94c0,.71,.32,1.23,1.33,2.12,1.29,1.13,1.69,1.92,1.69,3.14,0,1.6-.81,2.49-2.33,2.49s-2.27-.9-2.27-2.47Z"/>
      <path class="cls-7" d="M100.06,167.35l-1.86-5.63h1.64l1.05,3.6h.03l1.05-3.6h1.5l-1.86,5.63v4.17h-1.54v-4.17Z"/>
      <path class="cls-7" d="M104.07,169.2v-5.15c0-1.57,.83-2.47,2.34-2.47s2.34,.9,2.34,2.47v5.15c0,1.57-.83,2.47-2.34,2.47s-2.34-.9-2.34-2.47Zm3.14,.1v-5.35c0-.7-.31-.97-.8-.97s-.8,.27-.8,.97v5.35c0,.7,.31,.97,.8,.97s.8-.27,.8-.97Z"/>
      <path class="cls-7" d="M110.01,169.2v-7.48h1.54v7.59c0,.7,.29,.95,.78,.95s.78-.25,.78-.95v-7.59h1.48v7.48c0,1.57-.78,2.47-2.3,2.47s-2.3-.9-2.3-2.47Z"/>
      <path class="cls-7" d="M115.97,161.72h1.93l1.5,5.87h.03v-5.87h1.37v9.81h-1.58l-1.85-7.16h-.03v7.16h-1.37v-9.81Z"/>
      <path class="cls-7" d="M122.12,169.2v-5.15c0-1.57,.79-2.47,2.3-2.47s2.3,.9,2.3,2.47v.84h-1.46v-.94c0-.7-.31-.97-.8-.97s-.8,.27-.8,.97v5.36c0,.7,.31,.95,.8,.95s.8-.25,.8-.95v-1.92h-.77v-1.4h2.23v3.21c0,1.57-.78,2.47-2.3,2.47s-2.3-.9-2.3-2.47Z"/>
      <path class="cls-7" d="M130.5,161.72h2.2l.98,7.02h.03l.98-7.02h2.2v9.81h-1.46v-7.42h-.03l-1.12,7.42h-1.29l-1.12-7.42h-.03v7.42h-1.34v-9.81Z"/>
      <path class="cls-7" d="M138.32,161.72h4.2v1.4h-2.66v2.59h2.12v1.4h-2.12v3.01h2.66v1.4h-4.2v-9.81Z"/>
      <path class="cls-7" d="M143.68,161.72h1.93l1.5,5.87h.03v-5.87h1.37v9.81h-1.58l-1.85-7.16h-.03v7.16h-1.37v-9.81Z"/>
      <path class="cls-7" d="M25.91,179.12h-1.61v-1.4h4.76v1.4h-1.61v8.4h-1.54v-8.4Z"/>
      <path class="cls-7" d="M29.92,185.2v-5.15c0-1.57,.83-2.47,2.34-2.47s2.34,.9,2.34,2.47v5.15c0,1.57-.83,2.47-2.34,2.47s-2.34-.9-2.34-2.47Zm3.14,.1v-5.35c0-.7-.31-.97-.8-.97s-.8,.27-.8,.97v5.35c0,.7,.31,.97,.8,.97s.8-.27,.8-.97Z"/>
      <path class="cls-7" d="M38.43,177.72h2.33c1.6,0,2.28,.74,2.28,2.25v.39c0,1.01-.31,1.64-.99,1.92v.03c.83,.28,1.15,1.01,1.15,2.05v.84c0,1.51-.8,2.33-2.34,2.33h-2.42v-9.81Zm2.14,3.99c.57,0,.92-.25,.92-1.04v-.55c0-.7-.24-1.01-.78-1.01h-.74v2.59h.6Zm.28,4.41c.52,0,.8-.24,.8-.97v-.85c0-.91-.29-1.19-.99-1.19h-.69v3.01h.88Z"/>
      <path class="cls-7" d="M44.36,177.72h4.2v1.4h-2.66v2.59h2.12v1.4h-2.12v3.01h2.66v1.4h-4.2v-9.81Z"/>
      <path class="cls-7" d="M52.25,177.72h1.54v9.81h-1.54v-9.81Z"/>
      <path class="cls-7" d="M55.21,177.72h1.93l1.5,5.87h.03v-5.87h1.37v9.81h-1.58l-1.85-7.16h-.03v7.16h-1.37v-9.81Z"/>
      <path class="cls-7" d="M65.2,179.12h-1.61v-1.4h4.76v1.4h-1.61v8.4h-1.54v-8.4Z"/>
      <path class="cls-7" d="M69.37,177.72h1.54v3.99h1.65v-3.99h1.54v9.81h-1.54v-4.41h-1.65v4.41h-1.54v-9.81Z"/>
      <path class="cls-7" d="M75.53,177.72h1.54v9.81h-1.54v-9.81Z"/>
      <path class="cls-7" d="M78.23,185.2v-.56h1.46v.67c0,.7,.31,.95,.8,.95s.8-.25,.8-.98c0-.81-.31-1.33-1.32-2.21-1.29-1.13-1.71-1.93-1.71-3.05,0-1.54,.8-2.44,2.3-2.44s2.24,.9,2.24,2.47v.41h-1.46v-.5c0-.7-.28-.97-.77-.97s-.77,.27-.77,.94c0,.71,.32,1.23,1.33,2.12,1.29,1.13,1.69,1.92,1.69,3.14,0,1.6-.81,2.49-2.33,2.49s-2.27-.9-2.27-2.47Z"/>
      <path class="cls-7" d="M86.24,185.2v-.56h1.46v.67c0,.7,.31,.95,.8,.95s.8-.25,.8-.98c0-.81-.31-1.33-1.32-2.21-1.29-1.13-1.71-1.93-1.71-3.05,0-1.54,.8-2.44,2.3-2.44s2.24,.9,2.24,2.47v.41h-1.46v-.5c0-.7-.28-.97-.77-.97s-.77,.27-.77,.94c0,.71,.32,1.23,1.33,2.12,1.29,1.13,1.69,1.92,1.69,3.14,0,1.6-.81,2.49-2.33,2.49s-2.27-.9-2.27-2.47Z"/>
      <path class="cls-7" d="M91.99,177.72h1.54v9.81h-1.54v-9.81Z"/>
      <path class="cls-7" d="M96.16,179.12h-1.61v-1.4h4.76v1.4h-1.61v8.4h-1.54v-8.4Z"/>
      <path class="cls-7" d="M100.28,185.2v-7.48h1.54v7.59c0,.7,.29,.95,.78,.95s.78-.25,.78-.95v-7.59h1.48v7.48c0,1.57-.78,2.47-2.3,2.47s-2.3-.9-2.3-2.47Z"/>
      <path class="cls-7" d="M107.41,177.72h2.09l1.6,9.81h-1.54l-.28-1.95v.03h-1.75l-.28,1.92h-1.43l1.6-9.81Zm1.68,6.56l-.69-4.85h-.03l-.67,4.85h1.39Z"/>
      <path class="cls-7" d="M112.67,179.12h-1.61v-1.4h4.76v1.4h-1.61v8.4h-1.54v-8.4Z"/>
      <path class="cls-7" d="M116.84,177.72h1.54v9.81h-1.54v-9.81Z"/>
      <path class="cls-7" d="M119.7,185.2v-5.15c0-1.57,.83-2.47,2.34-2.47s2.34,.9,2.34,2.47v5.15c0,1.57-.83,2.47-2.34,2.47s-2.34-.9-2.34-2.47Zm3.14,.1v-5.35c0-.7-.31-.97-.8-.97s-.8,.27-.8,.97v5.35c0,.7,.31,.97,.8,.97s.8-.27,.8-.97Z"/>
      <path class="cls-7" d="M125.69,177.72h1.93l1.5,5.87h.03v-5.87h1.37v9.81h-1.58l-1.85-7.16h-.03v7.16h-1.37v-9.81Z"/>
    </g>
    <rect class="cls-1" x=".66" y="24.52" width="158.02" height="4.53"/>
    <path class="cls-2" d="M121.92,93.18c.07-.31,.12-.63,.12-.96v-.94c.42-.62,.68-1.35,.75-2.14,.15-1.61-.58-3.19-1.95-4.13-.31-.21-.64-.38-.98-.5l-5.32-1.91c-.5-.19-1.04-.29-1.58-.29-.5,0-1,.09-1.49,.25l-5.43,1.94c-.16,.06-.32,.13-.47,.2-1.55,.77-2.52,2.32-2.52,4.03,0,1.57,.82,2.99,2.11,3.8-2.04,1.29-3.44,3.51-3.75,6.19-.48-.81-1-1.56-1.56-2.21-.46-.54-.93-1-1.39-1.4,.66-.78,1.07-1.79,1.07-2.9v-.94c.43-.63,.69-1.37,.75-2.17,.14-1.61-.61-3.19-1.99-4.12-.3-.2-.62-.36-.96-.48l-5.33-1.91c-.5-.19-1.04-.29-1.58-.29-.5,0-1,.08-1.48,.25-.01,0-.03,.01-.04,.02l-5.4,1.93c-.16,.06-.32,.12-.47,.2-1.55,.77-2.52,2.32-2.52,4.03,0,1.59,.83,3.03,2.15,3.83,0,.7,.1,1.39,.28,2.07-.65,.49-1.33,1.1-1.99,1.88-.56,.66-1.08,1.41-1.56,2.21-.28-2.28-1.33-4.23-2.9-5.56,.07-.31,.12-.63,.12-.96v-.94c.42-.62,.69-1.36,.75-2.14,.15-1.61-.58-3.18-1.95-4.12-.31-.21-.64-.38-.99-.51l-5.33-1.91c-.5-.19-1.04-.29-1.58-.29-.5,0-1,.08-1.48,.25-.01,0-.03,0-.04,.01l-5.4,1.93c-.16,.06-.32,.12-.47,.2-1.55,.77-2.52,2.32-2.52,4.03,0,1.57,.82,2.99,2.11,3.8-2.04,1.29-3.44,3.51-3.75,6.19-.48-.81-1-1.56-1.56-2.21-.67-.78-1.34-1.39-1.99-1.87,.03-.1,.06-.2,.09-.31,.97-4.16-1.63-8.33-5.78-9.3-.58-.13-1.17-.2-1.76-.2-3.62,0-6.72,2.46-7.54,5.99-.3,1.31-.26,2.61,.08,3.82-.65,.49-1.33,1.1-2,1.88-2.58,3.01-4.3,7.61-5.1,13.67-.3,2.21,.79,4.3,2.59,5.4-.15,1.67,.7,3.3,2.19,4.14l.11,.06s.04,.02,.05,.03c.27,.14,.75,.38,1.44,.65v6.33c0,3.36,2.73,6.09,6.09,6.09,.73,0,1.42-.13,2.07-.37,.65,.23,1.34,.37,2.07,.37,3.36,0,6.09-2.73,6.09-6.09v-6.32c.69-.27,1.18-.51,1.45-.65,.02,0,.03-.02,.05-.03l.07-.04c1.52-.83,2.38-2.48,2.23-4.17,.45-.27,.86-.61,1.21-1,.36,.28,.74,.52,1.17,.7v11.43c0,3.4,2.76,6.16,6.16,6.16,.79,0,1.55-.15,2.24-.42,.7,.27,1.45,.42,2.24,.42,3.4,0,6.16-2.76,6.16-6.16v-11.43c.42-.18,.79-.43,1.15-.7,.35,.39,.76,.73,1.21,1-.11,1.52,.64,3.06,1.88,3.95,0,0,.15,.11,.43,.26,.28,.15,.77,.39,1.47,.66v6.33c0,3.36,2.73,6.09,6.09,6.09,.73,0,1.42-.13,2.07-.37,.65,.23,1.34,.37,2.07,.37,3.36,0,6.09-2.73,6.09-6.09v-6.32c.69-.27,1.18-.51,1.45-.65,.24-.13,.37-.22,.37-.22,1.32-.88,2.1-2.45,1.98-4.02,.45-.27,.84-.62,1.2-1.01,.36,.28,.75,.53,1.18,.71v11.43c0,3.4,2.76,6.16,6.16,6.16,.79,0,1.55-.15,2.24-.42,.7,.27,1.45,.42,2.24,.42,3.4,0,6.16-2.76,6.16-6.16v-11.43c.64-.27,1.21-.67,1.71-1.17,1.08-1.08,1.67-2.57,1.67-4.18v-9.98c0-2.81-1.14-5.21-2.98-6.77Z"/>
    <g>
      <g>
        <path class="cls-7" d="M88.3,130.09c-1.52,0-2.76-1.24-2.76-2.76v-9.07c0-.3,.13-.58,.36-.77,.18-.15,.41-.23,.64-.23,.06,0,.12,0,.18,.02,1.05,.2,2.18,.3,3.36,.32,.55,0,.99,.45,.99,1v8.74c0,1.52-1.24,2.76-2.76,2.76Z"/>
        <path class="cls-8" d="M86.54,118.26c.99,.19,2.17,.32,3.53,.34v8.74c0,.97-.79,1.76-1.76,1.76s-1.76-.79-1.76-1.76v-9.07m0-2c-.46,0-.92,.16-1.28,.46-.46,.38-.72,.94-.72,1.54v9.07c0,2.07,1.69,3.76,3.76,3.76s3.76-1.69,3.76-3.76v-8.74c0-1.09-.88-1.99-1.97-2-1.12-.01-2.19-.12-3.19-.3-.12-.02-.25-.03-.37-.03h0Z"/>
      </g>
      <g>
        <path class="cls-7" d="M92.44,130.09c-1.52,0-2.76-1.24-2.76-2.76v-8.74c0-.55,.44-.99,.99-1,1.18-.01,2.31-.12,3.36-.32,.06-.01,.12-.02,.18-.02,.23,0,.46,.08,.64,.23,.23,.19,.36,.47,.36,.77v9.07c0,1.52-1.24,2.76-2.76,2.76Z"/>
        <path class="cls-8" d="M94.2,118.26v9.07c0,.97-.79,1.76-1.76,1.76s-1.76-.79-1.76-1.76v-8.74c1.36-.02,2.54-.15,3.53-.34m0-2c-.12,0-.25,.01-.37,.03-.99,.19-2.06,.29-3.19,.3-1.09,.01-1.97,.91-1.97,2v8.74c0,2.07,1.69,3.76,3.76,3.76s3.76-1.69,3.76-3.76v-9.07c0-.59-.26-1.16-.72-1.54-.36-.3-.81-.46-1.28-.46h0Z"/>
      </g>
      <g>
        <path class="cls-7" d="M90.38,119.08c-4.59,0-7.3-1.26-8.03-1.65-.12-.07-.18-.11-.18-.11-.33-.23-.5-.64-.42-1.03l.61-3.02c-.33,.2-.71,.32-1.11,.32-.09,0-.19,0-.28-.02-1.18-.16-2-1.24-1.85-2.41,.71-5.4,2.17-9.42,4.33-11.94,1.31-1.53,2.62-2.14,3.35-2.38,.12-.41,.51-.72,.96-.72h2.45c.05,0,.11,0,.16,.01,.05,0,.11-.01,.16-.01h2.45c.45,0,.83,.3,.96,.71,.7,.22,2.02,.83,3.36,2.39,2.16,2.52,3.61,6.53,4.33,11.94,.16,1.17-.67,2.25-1.85,2.41-.1,.01-.19,.02-.28,.02-.4,0-.78-.11-1.11-.31l.61,3.02c.08,.4-.1,.82-.45,1.04,0,0-.05,.03-.15,.09-.73,.39-3.44,1.66-8.03,1.66h0Z"/>
        <path class="cls-8" d="M92.98,97.12v.51c.1,.02,.19,.04,.25,.06,.38,.06,1.82,.44,3.3,2.18,1.61,1.88,3.28,5.26,4.1,11.42,.08,.63-.36,1.2-.99,1.29-.05,0-.1,0-.15,0-.57,0-1.06-.42-1.13-1-.43-3.28-1.11-5.64-1.84-7.33,0,0,0,.01,0,.02-.51-1.19-1.04-2.04-1.53-2.67l3.03,14.89s-.03,.02-.1,.05c-.51,.27-3.09,1.53-7.55,1.53h0c-4.46,0-7.04-1.26-7.55-1.53-.06-.03-.09-.05-.09-.05l3.03-14.89c-.49,.62-1.02,1.48-1.53,2.67,0,0,0-.01,0-.02-.73,1.69-1.41,4.06-1.84,7.33-.08,.58-.57,1-1.14,1-.05,0-.1,0-.15,0-.63-.08-1.07-.66-.99-1.29,.81-6.16,2.49-9.54,4.1-11.42,1.49-1.74,2.92-2.12,3.3-2.18,.06-.01,.15-.03,.25-.06v-.51h2.45l-.22,.21c.12,0,.25-.01,.38-.01h0c.13,0,.25,0,.38,.01l-.22-.21h2.45m0-2h-2.45c-.05,0-.11,0-.16,0-.05,0-.11,0-.16,0h-2.45c-.7,0-1.32,.36-1.68,.91-.89,.35-2.15,1.08-3.4,2.54-2.29,2.66-3.82,6.86-4.56,12.46-.23,1.71,.98,3.3,2.7,3.53,.08,.01,.17,.02,.25,.02l-.31,1.51c-.16,.77,.2,1.59,.84,2.05,0,0,.09,.06,.26,.16,.78,.42,3.68,1.78,8.51,1.78s7.73-1.36,8.5-1.77c.14-.08,.22-.13,.22-.13,.68-.45,1.05-1.29,.89-2.09l-.31-1.51c.08,0,.15-.01,.23-.02,1.73-.23,2.94-1.82,2.71-3.54-.74-5.6-2.27-9.79-4.56-12.46-1.25-1.46-2.5-2.18-3.39-2.54-.36-.55-.97-.91-1.68-.91h0Z"/>
      </g>
      <g>
        <path class="cls-7" d="M90.38,97.52c-.34,0-.67-.04-1-.12-1.15-.27-2.12-.97-2.75-1.97-.62-1-.82-2.19-.55-3.33,.09-.37,.22-.73,.39-1.06l-1.89-.68c-.45-.16-.77-.61-.77-1.1,0-.45,.25-.84,.68-1.05,.04-.02,.07-.03,.11-.05l5.4-1.93c.11-.04,.29-.07,.4-.07,.15,0,.29,.03,.43,.09l5.36,1.92c.08,.03,.15,.07,.22,.11,.37,.25,.57,.67,.53,1.09-.04,.48-.35,.88-.8,1.02l-.35,.12v.31c.24,.24,.38,.57,.38,.93v.99c0,.65-.53,1.17-1.17,1.17h-.28c-.01,.06-.02,.12-.04,.18-.47,2.01-2.23,3.42-4.3,3.42h0Z"/>
        <path class="cls-8" d="M90.4,87.17s.04,0,.05,.01l5.4,1.93c.05,.04,.1,.09,.09,.18,0,.07-.04,.14-.11,.15l-1.04,.37v1.62h.05c.17,0,.33,.14,.33,.33v.99c0,.1-.09,.17-.18,.17h-.77c-.1,0-.17-.09-.17-.17v-.99c0-.17,.14-.33,.33-.33h.05v-1.5l-1.78,.63c.89,.81,1.33,2.06,1.04,3.31-.37,1.58-1.77,2.64-3.32,2.64-.26,0-.52-.03-.78-.09-1.84-.43-2.98-2.27-2.55-4.1,.16-.71,.54-1.31,1.04-1.76l-3.18-1.14c-.05-.02-.11-.09-.11-.16s.05-.12,.12-.16l5.4-1.93s.05-.01,.07-.01m0-2c-.24,0-.49,.04-.72,.12l-5.41,1.94c-.08,.03-.15,.06-.22,.09-.76,.38-1.23,1.12-1.23,1.95,0,.92,.58,1.75,1.45,2.05l.9,.32c-.02,.08-.04,.16-.06,.24-.33,1.41-.09,2.86,.68,4.09,.76,1.23,1.96,2.09,3.37,2.41,.4,.09,.82,.14,1.23,.14,2.34,0,4.37-1.48,5.12-3.65,.96-.23,1.68-1.09,1.68-2.12v-.99c0-.25-.04-.49-.11-.72,.49-.36,.82-.92,.87-1.56,.08-.8-.27-1.56-.96-2.02-.14-.09-.29-.17-.44-.22l-5.35-1.92c-.25-.1-.51-.15-.77-.15h0Z"/>
      </g>
    </g>
    <g>
      <g>
        <path class="cls-7" d="M115.35,130.09c-.91,0-1.72-.43-2.24-1.1-.52,.67-1.33,1.1-2.24,1.1-1.57,0-2.84-1.27-2.84-2.84v-14.6c-.34,.2-.73,.3-1.11,.3-1.11,0-2.29-.86-2.29-2.46v-10.06c0-3.04,2.01-5.25,4.77-5.25h.98s.07,0,.11,0h2.45s.2,0,.2,0c.04,0,.08,0,.12,0h2.45s.08,0,.13,0h.91c3.17,0,4.83,2.67,4.83,5.31v10c0,.92-.38,1.5-.7,1.82-.42,.42-.98,.65-1.58,.65-.37,0-.75-.1-1.1-.29v14.58c0,1.56-1.28,2.84-2.84,2.84Z"/>
        <path class="cls-8" d="M115.71,96.17h0s1.04,0,1.04,0c2.55,0,3.83,2.13,3.83,4.31v9.99c0,.98-.64,1.48-1.28,1.48s-1.28-.49-1.28-1.48v-9.79h-.81v26.56c-.01,1.02-.83,1.84-1.85,1.84s-1.83-.82-1.83-1.84v-15.4h-.81v15.4c0,1.02-.83,1.84-1.84,1.84s-1.84-.82-1.84-1.84v-26.56s-.81,0-.81,0v9.79c0,.98-.65,1.46-1.29,1.46s-1.29-.49-1.29-1.46v-10.06c0-2.36,1.45-4.25,3.77-4.25h1.09s0,0,0,0h2.45s.33,0,.33,0h0s2.45,0,2.45,0m0-2h-2.45c-.05,0-.11,0-.16,0-.05,0-.11,0-.16,0h-2.45c-.06,0-.11,0-.17,0h-.92c-3.35,0-5.77,2.63-5.77,6.25v10.06c0,1.97,1.41,3.46,3.29,3.46,.04,0,.07,0,.11,0v13.31c0,2.12,1.72,3.84,3.84,3.84,.84,0,1.61-.27,2.24-.73,.63,.46,1.41,.73,2.24,.73,2.11,0,3.83-1.72,3.83-3.84v-13.29s.07,0,.1,0c.87,0,1.68-.34,2.29-.95,.64-.64,.99-1.54,.99-2.54v-9.99c0-3.66-2.45-6.31-5.83-6.31h-.85c-.06,0-.12,0-.18,0h0Z"/>
      </g>
      <g>
        <path class="cls-7" d="M112.91,96.5c-2.36,0-4.27-1.92-4.27-4.28,0-.42,.06-.84,.18-1.23l-1.7-.61c-.45-.16-.77-.61-.77-1.1,0-.45,.25-.84,.68-1.05,.04-.02,.07-.03,.11-.05l5.4-1.93c.11-.04,.29-.07,.4-.07,.15,0,.29,.03,.43,.08l5.36,1.92c.08,.03,.16,.07,.23,.12,.37,.26,.57,.67,.52,1.1-.04,.47-.35,.87-.8,1.01l-.35,.12v.31c.24,.24,.38,.57,.38,.93v.99c0,.65-.53,1.17-1.17,1.17h-.71c-.66,1.51-2.17,2.57-3.91,2.57Z"/>
        <path class="cls-8" d="M112.93,87.17s.04,0,.05,.01l5.4,1.93c.05,.04,.11,.09,.09,.18,0,.07-.04,.14-.1,.15l-1.04,.37v1.62h.05c.17,0,.33,.14,.33,.33v.99c0,.1-.09,.17-.17,.17h-.77c-.11,0-.17-.09-.17-.17v-.99c0-.17,.14-.33,.33-.33h.05v-1.5l-1.34,.48c.34,.52,.55,1.14,.55,1.8,0,1.81-1.46,3.28-3.27,3.28s-3.27-1.47-3.27-3.28c0-.67,.2-1.29,.55-1.81l-2.73-.98c-.05-.02-.1-.09-.1-.16s.05-.12,.12-.16l5.4-1.93s.05-.01,.07-.01m0-2c-.24,0-.49,.04-.72,.12l-5.41,1.94c-.08,.03-.15,.06-.22,.09-.76,.38-1.23,1.12-1.23,1.95,0,.92,.58,1.74,1.43,2.04l.88,.32c-.02,.19-.03,.39-.03,.58,0,2.91,2.37,5.28,5.27,5.28,1.92,0,3.6-1.03,4.52-2.57h.1c1.2,0,2.17-.97,2.17-2.17v-.99c0-.25-.04-.49-.11-.72,.49-.36,.81-.92,.87-1.55,.09-.79-.26-1.56-.95-2.03-.14-.1-.3-.18-.46-.23l-5.35-1.91c-.25-.1-.51-.15-.78-.15h0Z"/>
      </g>
    </g>
    <g>
      <g>
        <path class="cls-7" d="M69.9,130.09c-.91,0-1.72-.43-2.24-1.1-.52,.67-1.33,1.1-2.24,1.1-1.57,0-2.84-1.27-2.84-2.84v-14.6c-.34,.2-.73,.3-1.11,.3-1.11,0-2.29-.86-2.29-2.46v-10.06c0-3.04,2.01-5.25,4.77-5.25h.98s.07,0,.11,0h2.45s.2,0,.2,0c.04,0,.08,0,.12,0h2.45s.08,0,.13,0h.91c3.17,0,4.83,2.67,4.83,5.31v10c0,.92-.38,1.5-.7,1.82-.42,.42-.98,.65-1.58,.65-.37,0-.75-.1-1.1-.29v14.58c0,1.56-1.28,2.84-2.84,2.84Z"/>
        <path class="cls-8" d="M70.26,96.17h0s1.04,0,1.04,0c2.55,0,3.83,2.13,3.83,4.31v9.99c0,.98-.64,1.48-1.28,1.48s-1.28-.49-1.28-1.48v-9.79h-.81v26.56c-.01,1.02-.83,1.84-1.85,1.84s-1.83-.82-1.83-1.84v-15.4h-.81v15.4c0,1.02-.83,1.84-1.84,1.84s-1.84-.82-1.84-1.84v-26.56s-.82,0-.82,0v9.79c0,.98-.65,1.46-1.29,1.46s-1.29-.49-1.29-1.46v-10.06c0-2.36,1.45-4.25,3.77-4.25h1.09s0,0,0,0h2.45s.33,0,.33,0h0s2.45,0,2.45,0m0-2h-2.45c-.05,0-.11,0-.16,0-.05,0-.11,0-.16,0h-2.45c-.06,0-.11,0-.17,0h-.92c-3.35,0-5.77,2.63-5.77,6.25v10.06c0,1.97,1.41,3.46,3.29,3.46,.04,0,.07,0,.11,0v13.31c0,2.12,1.72,3.84,3.84,3.84,.84,0,1.61-.27,2.24-.73,.63,.46,1.41,.73,2.24,.73,2.11,0,3.83-1.72,3.83-3.84v-13.29s.07,0,.1,0c.87,0,1.68-.34,2.29-.95,.64-.64,.99-1.54,.99-2.54v-9.99c0-3.66-2.45-6.31-5.83-6.31h-.85c-.06,0-.12,0-.18,0h0Z"/>
      </g>
      <g>
        <path class="cls-7" d="M67.46,96.5c-2.36,0-4.27-1.92-4.27-4.28,0-.42,.06-.84,.18-1.23l-1.7-.61c-.45-.16-.77-.61-.77-1.1,0-.44,.25-.84,.67-1.05,.04-.02,.08-.04,.12-.05l5.4-1.93c.11-.04,.29-.07,.4-.07,.15,0,.29,.03,.43,.08l5.36,1.92c.08,.03,.16,.07,.24,.12,.37,.26,.56,.67,.51,1.09-.04,.47-.35,.87-.8,1.01l-.35,.12v.31c.24,.24,.38,.57,.38,.93v.99c0,.65-.53,1.17-1.17,1.17h-.71c-.66,1.51-2.17,2.57-3.91,2.57Z"/>
        <path class="cls-8" d="M67.48,87.17s.04,0,.05,.01l5.4,1.93c.05,.04,.11,.09,.09,.18,0,.07-.04,.14-.1,.15l-1.04,.37v1.62h.05c.17,0,.33,.14,.33,.33v.99c0,.1-.09,.17-.17,.17h-.77c-.1,0-.17-.09-.17-.17v-.99c0-.17,.14-.33,.33-.33h.05v-1.5l-1.34,.48c.34,.52,.55,1.14,.55,1.8,0,1.81-1.46,3.28-3.27,3.28s-3.27-1.47-3.27-3.28c0-.67,.2-1.29,.55-1.81l-2.73-.98c-.05-.02-.1-.09-.1-.16s.05-.12,.12-.16l5.4-1.93s.05-.01,.07-.01m0-2c-.24,0-.49,.04-.72,.12l-5.41,1.94c-.07,.03-.15,.06-.22,.09-.76,.38-1.23,1.12-1.23,1.95,0,.92,.58,1.74,1.44,2.04l.88,.32c-.02,.19-.03,.39-.03,.58,0,2.91,2.37,5.28,5.27,5.28,1.92,0,3.6-1.03,4.52-2.57h.1c1.2,0,2.17-.97,2.17-2.17v-.99c0-.25-.04-.49-.11-.72,.49-.36,.81-.91,.87-1.55,.09-.79-.26-1.56-.94-2.03-.14-.1-.3-.18-.46-.23l-5.35-1.91c-.25-.1-.51-.15-.78-.15h0Z"/>
      </g>
    </g>
    <g>
      <path class="cls-6" d="M42.85,130.09c-1.52,0-2.76-1.24-2.76-2.76v-9.07c0-.3,.13-.58,.36-.77,.18-.15,.41-.23,.64-.23,.06,0,.12,0,.18,.02,1.06,.2,2.19,.3,3.36,.32,.55,0,.99,.45,.99,1v8.74c0,1.52-1.24,2.76-2.76,2.76Z"/>
      <path class="cls-7" d="M41.09,118.26c.99,.18,2.17,.32,3.53,.33v8.74c0,.97-.79,1.76-1.76,1.76s-1.76-.79-1.76-1.76v-9.07m0-2c-.46,0-.92,.16-1.28,.46-.46,.38-.72,.94-.72,1.54v9.07c0,2.07,1.69,3.76,3.76,3.76s3.76-1.69,3.76-3.76v-8.74c0-1.09-.88-1.99-1.97-2-1.11-.01-2.18-.12-3.19-.3-.12-.02-.24-.03-.36-.03h0Z"/>
    </g>
    <g>
      <path class="cls-6" d="M46.99,130.09c-1.52,0-2.76-1.24-2.76-2.76v-8.74c0-.55,.44-.99,.99-1,1.17-.01,2.3-.12,3.36-.32,.06-.01,.12-.02,.18-.02,.23,0,.46,.08,.64,.23,.23,.19,.36,.47,.36,.77v9.07c0,1.52-1.24,2.76-2.76,2.76Z"/>
      <path class="cls-7" d="M48.75,118.26v9.07c0,.97-.79,1.76-1.76,1.76s-1.76-.79-1.76-1.76v-8.74c1.36-.02,2.54-.15,3.53-.33m0-2c-.12,0-.24,.01-.36,.03-1.01,.19-2.08,.29-3.19,.3-1.09,.01-1.97,.91-1.97,2v8.74c0,2.07,1.69,3.76,3.76,3.76s3.76-1.69,3.76-3.76v-9.07c0-.59-.26-1.16-.72-1.54-.36-.3-.82-.46-1.28-.46h0Z"/>
    </g>
    <g>
      <path class="cls-6" d="M44.92,119.08c-4.72,0-7.51-1.38-8.03-1.66-.39-.21-.69-.7-.6-1.13l.62-3.02c-.33,.2-.71,.31-1.12,.31-.09,0-.19,0-.28-.02-1.18-.16-2-1.24-1.85-2.41,.71-5.4,2.17-9.42,4.33-11.94,1.31-1.53,2.62-2.14,3.35-2.38,.12-.41,.5-.72,.96-.72h2.45c.05,0,.11,0,.16,.01,.05,0,.11-.01,.16-.01h2.45c.45,0,.83,.3,.96,.71,.7,.22,2.02,.83,3.35,2.38,2.16,2.52,3.61,6.53,4.33,11.94,.16,1.17-.67,2.25-1.84,2.41-.1,.01-.19,.02-.28,.02-.4,0-.78-.11-1.11-.31l.61,3.02c.09,.43-.12,.88-.51,1.08,0,0-.08,.05-.09,.05-.72,.39-3.43,1.65-8.02,1.65h0Z"/>
      <path class="cls-7" d="M47.53,97.12v.51c.1,.02,.19,.04,.25,.06,.38,.06,1.81,.44,3.3,2.18,1.61,1.88,3.28,5.26,4.1,11.42,.08,.63-.36,1.2-.99,1.29-.05,0-.1,0-.15,0-.57,0-1.06-.42-1.14-1-.43-3.28-1.11-5.64-1.84-7.33,0,0,0,.01,0,.02-.51-1.18-1.04-2.04-1.53-2.67l3.03,14.89s-.03,.02-.09,.05c-.51,.27-3.09,1.54-7.55,1.54h0c-4.46,0-7.04-1.26-7.55-1.54-.06-.03-.09-.05-.09-.05l3.03-14.89c-.49,.62-1.02,1.48-1.53,2.67,0,0,0-.01,0-.02-.73,1.69-1.41,4.06-1.84,7.33-.08,.58-.57,1-1.14,1-.05,0-.1,0-.15,0-.62-.08-1.07-.66-.98-1.29,.81-6.16,2.48-9.54,4.1-11.42,1.49-1.74,2.92-2.12,3.3-2.18,.06-.01,.15-.04,.25-.06v-.51h2.45l-.22,.21c.12,0,.25-.01,.38-.01h0c.13,0,.25,0,.38,.01l-.22-.21h2.45m0-2h-2.45c-.05,0-.11,0-.16,0-.05,0-.11,0-.16,0h-2.45c-.7,0-1.32,.36-1.68,.91-.89,.35-2.15,1.08-3.4,2.54-2.29,2.67-3.82,6.86-4.56,12.46-.23,1.71,.98,3.3,2.7,3.53,.09,.01,.17,.02,.25,.02l-.31,1.52c-.17,.85,.22,1.71,.98,2.14l.1,.06c.79,.43,3.69,1.79,8.52,1.79s7.73-1.36,8.5-1.77l.11-.06c.77-.42,1.17-1.29,1-2.15l-.31-1.52c.08,0,.16-.01,.23-.02,1.73-.23,2.94-1.82,2.71-3.54-.74-5.6-2.27-9.79-4.56-12.46-1.24-1.46-2.5-2.18-3.39-2.53-.36-.55-.98-.91-1.68-.91h0Z"/>
    </g>
    <g>
      <path class="cls-6" d="M44.93,97.53c-.34,0-.67-.04-1-.12-2.37-.55-3.85-2.93-3.3-5.3,.47-2.01,2.24-3.42,4.3-3.42,.34,0,.67,.04,1,.12,2.37,.55,3.85,2.93,3.3,5.3-.47,2.01-2.24,3.42-4.3,3.42h0Z"/>
      <path class="cls-7" d="M44.93,89.69c.26,0,.52,.03,.78,.09,1.84,.43,2.98,2.27,2.55,4.1-.37,1.58-1.77,2.64-3.33,2.64-.26,0-.52-.03-.78-.09-1.84-.43-2.98-2.27-2.55-4.1,.37-1.58,1.77-2.64,3.32-2.64m0-2c-2.53,0-4.7,1.72-5.27,4.19-.68,2.91,1.14,5.83,4.05,6.51,.4,.09,.82,.14,1.23,.14,2.53,0,4.7-1.72,5.27-4.19,.68-2.91-1.14-5.83-4.05-6.5-.4-.09-.82-.14-1.23-.14h0Z"/>
    </g>
    <g>
      <path class="cls-4" d="M65.65,199.59v-4.94c0-1.12,.44-1.53,1.54-1.53h.34v.9h-.27c-.35,0-.51,.13-.51,.63v4.94c0,.5,.16,.63,.51,.63h.27v.9h-.34c-1.1,0-1.54-.41-1.54-1.53Z"/>
      <path class="cls-4" d="M68.47,199.86c0-1,.28-1.61,1.1-2.47,.84-.89,1.08-1.42,1.08-2.07s-.22-.8-.57-.8-.57,.19-.57,.69v.75h-1.04v-.68c0-1.12,.56-1.76,1.64-1.76s1.64,.64,1.64,1.76c0,.83-.34,1.57-1.36,2.65-.66,.7-.83,1.05-.83,1.54v.15h2.09v1h-3.18v-.76Z"/>
      <path class="cls-4" d="M72.61,198.96v-3.68c0-1.12,.59-1.76,1.67-1.76s1.67,.64,1.67,1.76v3.68c0,1.12-.59,1.76-1.67,1.76s-1.67-.64-1.67-1.76Zm2.24,.07v-3.82c0-.5-.22-.69-.57-.69s-.57,.19-.57,.69v3.82c0,.5,.22,.69,.57,.69s.57-.19,.57-.69Z"/>
      <path class="cls-4" d="M76.87,199.86c0-1,.28-1.61,1.1-2.47,.84-.89,1.08-1.42,1.08-2.07s-.22-.8-.57-.8-.57,.19-.57,.69v.75h-1.04v-.68c0-1.12,.56-1.76,1.64-1.76s1.64,.64,1.64,1.76c0,.83-.34,1.57-1.36,2.65-.66,.7-.83,1.05-.83,1.54v.15h2.09v1h-3.18v-.76Z"/>
      <path class="cls-4" d="M81.07,199.86c0-1,.28-1.61,1.1-2.47,.84-.89,1.08-1.42,1.08-2.07s-.22-.8-.57-.8-.57,.19-.57,.69v.75h-1.04v-.68c0-1.12,.56-1.76,1.64-1.76s1.64,.64,1.64,1.76c0,.83-.34,1.57-1.36,2.65-.66,.7-.83,1.05-.83,1.54v.15h2.09v1h-3.18v-.76Z"/>
      <path class="cls-4" d="M85.23,200.22h.27c.35,0,.51-.13,.51-.63v-4.94c0-.5-.16-.63-.51-.63h-.27v-.9h.34c1.1,0,1.54,.41,1.54,1.53v4.94c0,1.12-.44,1.53-1.54,1.53h-.34v-.9Z"/>
    </g>
    <line id="line" class="cls-5" x1="13.1" y1=".5" x2="23.53" y2=".5"/>
    <line id="line-2" data-name="line" class="cls-5" x1="13.1" y1="18.07" x2="23.53" y2="18.07"/>
  </g>
</svg>