<?xml version="1.0" encoding="UTF-8"?><svg id="Layer_2" xmlns="http://www.w3.org/2000/svg" xmlns:xlink="http://www.w3.org/1999/xlink" viewBox="0 0 269.91 193.16"><defs><style>.cls-1{stroke:#a64324;stroke-width:2.5px;}.cls-1,.cls-2,.cls-3,.cls-4{stroke-miterlimit:10;}.cls-1,.cls-5{fill:#a64324;}.cls-2{stroke:#f36e24;}.cls-2,.cls-3{stroke-width:3px;}.cls-2,.cls-3,.cls-4{fill:none;}.cls-6{fill:url(#linear-gradient);}.cls-7{fill:#fff;}.cls-8{fill:#f36e24;}.cls-9{fill:#939598;}.cls-10{fill:#bdbcbb;}.cls-11{fill:#e1e0df;}.cls-3{stroke:#fab284;stroke-dasharray:0 0 6 5;}.cls-4{stroke:#bdbcbb;}</style><linearGradient id="linear-gradient" x1="134.54" y1="75.02" x2="134.54" y2="167.71" gradientUnits="userSpaceOnUse"><stop offset="0" stop-color="#fff"/><stop offset=".46" stop-color="#fefcfa"/><stop offset=".92" stop-color="#fef3ee"/><stop offset="1" stop-color="#fef1ec"/></linearGradient></defs><g id="Layer_2-2"><rect class="cls-6" y="75.02" width="269.07" height="92.69"/><line class="cls-4" x1=".3" y1="167.85" x2="269.05" y2="167.85"/><path class="cls-8" d="m3.94,180.26c0-.6.1-1.11.29-1.54.19-.43.54-.9,1.03-1.42.49-.52.83-.96,1.01-1.33.19-.37.28-.75.28-1.15,0-.36-.06-.61-.17-.75-.12-.14-.29-.21-.51-.21-.46,0-.68.28-.68.83v.9h-1.25v-.82c0-.68.17-1.2.5-1.57.34-.36.82-.55,1.46-.55s1.13.18,1.46.55c.34.36.5.89.5,1.57,0,.51-.12,1.01-.37,1.5-.24.49-.67,1.05-1.27,1.68-.39.42-.66.75-.79,1.01-.14.26-.2.54-.2.83v.18h2.51v1.2h-3.82v-.91Z"/><path class="cls-8" d="m8.88,180.74c-.34-.37-.52-.89-.52-1.56v-4.42c0-.67.17-1.19.52-1.56.34-.37.84-.55,1.49-.55s1.14.18,1.49.55c.34.37.52.89.52,1.56v4.42c0,.67-.17,1.19-.52,1.56-.34.37-.84.55-1.49.55s-1.14-.18-1.49-.55Zm2.17-1.48v-4.58c0-.55-.23-.83-.68-.83s-.68.28-.68.83v4.58c0,.55.23.83.68.83s.68-.28.68-.83Z"/><path class="cls-8" d="m14.81,174.77h-1.38v-.94c.38,0,.68-.03.91-.1.23-.06.41-.17.55-.32.14-.15.26-.36.36-.64h.89v8.4h-1.32v-6.41Z"/><path class="cls-8" d="m17.93,180.75c-.34-.36-.5-.89-.5-1.57v-.66h1.25v.76c0,.54.23.82.68.82s.68-.27.68-.82v-1.88c0-.55-.23-.83-.68-.83s-.68.28-.68.83v.07h-1.25l.24-4.69h3.48v1.2h-2.3l-.11,2h.02c.25-.41.63-.61,1.14-.61.48,0,.84.16,1.09.49s.37.8.37,1.43v1.9c0,.68-.17,1.2-.5,1.57-.34.36-.82.55-1.46.55s-1.13-.18-1.46-.55Z"/><circle class="cls-5" cx="12.51" cy="167.9" r="2.25"/><path class="cls-8" d="m126.62,180.26c0-.6.1-1.11.29-1.54.19-.43.54-.9,1.03-1.42.49-.52.83-.96,1.01-1.33.19-.37.28-.75.28-1.15,0-.36-.06-.61-.17-.75-.12-.14-.29-.21-.51-.21-.46,0-.68.28-.68.83v.9h-1.25v-.82c0-.68.17-1.2.5-1.57.34-.36.82-.55,1.46-.55s1.13.18,1.46.55c.34.36.5.89.5,1.57,0,.51-.12,1.01-.37,1.5-.24.49-.67,1.05-1.27,1.68-.39.42-.66.75-.79,1.01-.14.26-.2.54-.2.83v.18h2.51v1.2h-3.82v-.91Z"/><path class="cls-8" d="m131.56,180.74c-.34-.37-.52-.89-.52-1.56v-4.42c0-.67.17-1.19.52-1.56.34-.37.84-.55,1.49-.55s1.14.18,1.49.55c.34.37.52.89.52,1.56v4.42c0,.67-.17,1.19-.52,1.56-.34.37-.84.55-1.49.55s-1.14-.18-1.49-.55Zm2.17-1.48v-4.58c0-.55-.23-.83-.68-.83s-.68.28-.68.83v4.58c0,.55.23.83.68.83s.68-.28.68-.83Z"/><path class="cls-8" d="m135.62,180.26c0-.6.1-1.11.29-1.54.19-.43.54-.9,1.03-1.42.49-.52.83-.96,1.01-1.33.19-.37.28-.75.28-1.15,0-.36-.06-.61-.17-.75-.12-.14-.29-.21-.51-.21-.46,0-.68.28-.68.83v.9h-1.25v-.82c0-.68.17-1.2.5-1.57.34-.36.82-.55,1.46-.55s1.13.18,1.46.55c.34.36.5.89.5,1.57,0,.51-.12,1.01-.37,1.5-.24.49-.67,1.05-1.27,1.68-.39.42-.66.75-.79,1.01-.14.26-.2.54-.2.83v.18h2.51v1.2h-3.82v-.91Z"/><path class="cls-8" d="m140.12,180.26c0-.6.1-1.11.29-1.54.19-.43.54-.9,1.03-1.42.49-.52.83-.96,1.01-1.33.19-.37.28-.75.28-1.15,0-.36-.06-.61-.17-.75-.12-.14-.29-.21-.51-.21-.46,0-.68.28-.68.83v.9h-1.25v-.82c0-.68.17-1.2.5-1.57.34-.36.82-.55,1.46-.55s1.13.18,1.46.55c.34.36.5.89.5,1.57,0,.51-.12,1.01-.37,1.5-.24.49-.67,1.05-1.27,1.68-.39.42-.66.75-.79,1.01-.14.26-.2.54-.2.83v.18h2.51v1.2h-3.82v-.91Z"/><circle class="cls-5" cx="135.15" cy="167.9" r="2.25"/><path class="cls-10" d="m244.42,192.84c-.21-.21-.32-.56-.32-1.06v-4.45c0-.5.11-.85.32-1.06s.57-.32,1.07-.32h.31v.81h-.24c-.16,0-.28.04-.35.12s-.11.23-.11.45v4.45c0,.22.04.36.11.45s.19.12.35.12h.24v.81h-.31c-.5,0-.85-.11-1.07-.32Z"/><path class="cls-10" d="m247.39,187.31h-1.04v-.9h3.06v.9h-1.04v5.4h-.99v-5.4Z"/><path class="cls-10" d="m250.24,186.41h1.34l1.03,6.3h-.99l-.18-1.25v.02h-1.12l-.18,1.23h-.92l1.03-6.3Zm1.08,4.21l-.44-3.11h-.02l-.43,3.11h.89Z"/><path class="cls-10" d="m253.08,186.41h1.47c.51,0,.88.12,1.12.36s.35.6.35,1.09v.39c0,.65-.22,1.07-.65,1.24v.02c.24.07.41.22.51.44.1.22.15.52.15.89v1.11c0,.18,0,.33.02.44.01.11.04.22.09.33h-1.01c-.04-.1-.06-.2-.07-.29s-.02-.25-.02-.49v-1.15c0-.29-.05-.49-.14-.6-.09-.11-.25-.17-.48-.17h-.34v2.7h-.99v-6.3Zm1.35,2.7c.2,0,.35-.05.45-.15s.15-.27.15-.51v-.49c0-.23-.04-.39-.12-.5-.08-.1-.21-.15-.38-.15h-.45v1.8h.36Z"/><path class="cls-10" d="m257.02,192.39c-.25-.27-.38-.67-.38-1.17v-3.31c0-.51.12-.9.38-1.17s.62-.41,1.1-.41.85.14,1.1.41.38.67.38,1.17v.54h-.94v-.6c0-.41-.17-.62-.51-.62s-.51.21-.51.62v3.45c0,.41.17.61.51.61s.51-.2.51-.61v-1.23h-.49v-.9h1.43v2.06c0,.51-.12.9-.38,1.17-.25.27-.62.41-1.1.41s-.85-.14-1.1-.41Z"/><path class="cls-10" d="m260.23,186.41h2.7v.9h-1.71v1.67h1.36v.9h-1.36v1.93h1.71v.9h-2.7v-6.3Z"/><path class="cls-10" d="m264.27,187.31h-1.04v-.9h3.06v.9h-1.04v5.4h-.99v-5.4Z"/><path class="cls-10" d="m266.85,192.35h.24c.16,0,.28-.04.35-.12s.11-.23.11-.45v-4.45c0-.22-.04-.36-.11-.45s-.19-.12-.35-.12h-.24v-.81h.31c.5,0,.85.11,1.07.32s.32.56.32,1.06v4.45c0,.5-.11.85-.32,1.06s-.57.32-1.07.32h-.31v-.81Z"/><path class="cls-10" d="m118.4,192.84c-.21-.21-.32-.56-.32-1.06v-4.45c0-.5.11-.85.32-1.06s.57-.32,1.07-.32h.31v.81h-.24c-.16,0-.28.04-.35.12s-.11.23-.11.45v4.45c0,.22.04.36.11.45s.19.12.35.12h.24v.81h-.31c-.5,0-.85-.11-1.07-.32Z"/><path class="cls-10" d="m120.46,186.41h2.7v.9h-1.71v1.67h1.36v.9h-1.36v1.93h1.71v.9h-2.7v-6.3Z"/><path class="cls-10" d="m123.94,192.39c-.25-.27-.37-.67-.37-1.17v-.36h.94v.43c0,.41.17.61.51.61.17,0,.29-.05.38-.15.09-.1.13-.26.13-.48,0-.26-.06-.5-.18-.7s-.34-.44-.67-.72c-.41-.36-.69-.69-.86-.98s-.24-.62-.24-.99c0-.5.12-.88.38-1.16s.62-.41,1.1-.41.83.14,1.07.41c.24.27.37.67.37,1.17v.26h-.94v-.32c0-.22-.04-.37-.13-.47-.08-.1-.21-.15-.37-.15-.33,0-.49.2-.49.6,0,.23.06.44.18.64s.35.44.67.72c.41.36.7.69.86.98s.23.64.23,1.04c0,.52-.13.91-.38,1.19-.25.28-.62.41-1.11.41s-.84-.14-1.09-.41Z"/><path class="cls-10" d="m127.86,187.31h-1.03v-.9h3.06v.9h-1.04v5.4h-.99v-5.4Z"/><path class="cls-10" d="m130.37,186.41h.99v6.3h-.99v-6.3Z"/><path class="cls-10" d="m132.09,186.41h1.41l.63,4.51h.02l.63-4.51h1.41v6.3h-.94v-4.77h-.02l-.72,4.77h-.83l-.72-4.77h-.02v4.77h-.87v-6.3Z"/><path class="cls-10" d="m137.7,186.41h1.34l1.03,6.3h-.99l-.18-1.25v.02h-1.12l-.18,1.23h-.92l1.03-6.3Zm1.08,4.21l-.44-3.11h-.02l-.43,3.11h.89Z"/><path class="cls-10" d="m140.9,187.31h-1.03v-.9h3.06v.9h-1.04v5.4h-.99v-5.4Z"/><path class="cls-10" d="m143.41,186.41h2.7v.9h-1.71v1.67h1.36v.9h-1.36v1.93h1.71v.9h-2.7v-6.3Z"/><path class="cls-10" d="m146.67,186.41h1.51c.49,0,.86.13,1.11.4.25.26.37.65.37,1.16v3.19c0,.51-.12.9-.37,1.16-.25.26-.62.4-1.11.4h-1.51v-6.3Zm1.49,5.4c.16,0,.29-.05.37-.14.09-.1.13-.25.13-.47v-3.28c0-.22-.04-.37-.13-.47-.09-.1-.21-.14-.37-.14h-.5v4.5h.5Z"/><path class="cls-10" d="m150.28,192.35h.24c.16,0,.28-.04.35-.12s.11-.23.11-.45v-4.45c0-.22-.04-.36-.11-.45s-.19-.12-.35-.12h-.24v-.81h.3c.5,0,.85.11,1.07.32s.32.56.32,1.06v4.45c0,.5-.11.85-.32,1.06s-.57.32-1.07.32h-.3v-.81Z"/><path class="cls-8" d="m248.1,180.26c0-.6.1-1.11.29-1.54.19-.43.54-.9,1.03-1.42.49-.52.83-.96,1.01-1.33.19-.37.28-.75.28-1.15,0-.36-.06-.61-.17-.75-.12-.14-.29-.21-.51-.21-.46,0-.68.28-.68.83v.9h-1.25v-.82c0-.68.17-1.2.5-1.57.34-.36.82-.55,1.46-.55s1.13.18,1.46.55c.34.36.5.89.5,1.57,0,.51-.12,1.01-.37,1.5-.24.49-.67,1.05-1.27,1.68-.39.42-.66.75-.79,1.01-.14.26-.2.54-.2.83v.18h2.51v1.2h-3.82v-.91Z"/><path class="cls-8" d="m253.05,180.74c-.34-.37-.52-.89-.52-1.56v-4.42c0-.67.17-1.19.52-1.56.34-.37.84-.55,1.49-.55s1.14.18,1.49.55c.34.37.52.89.52,1.56v4.42c0,.67-.17,1.19-.52,1.56-.34.37-.84.55-1.49.55s-1.14-.18-1.49-.55Zm2.17-1.48v-4.58c0-.55-.23-.83-.68-.83s-.68.28-.68.83v4.58c0,.55.23.83.68.83s.68-.28.68-.83Z"/><path class="cls-8" d="m257.53,180.76c-.33-.36-.5-.88-.5-1.55v-.68h1.25v.74c0,.55.23.83.68.83.22,0,.39-.07.51-.21.12-.14.17-.39.17-.74v-.68c0-.38-.07-.66-.2-.82-.14-.16-.36-.25-.66-.25h-.44v-1.2h.48c.26,0,.46-.07.59-.2.13-.14.2-.36.2-.68v-.61c0-.29-.06-.5-.18-.64-.12-.14-.28-.2-.48-.2-.42,0-.64.26-.64.78v.55h-1.25v-.44c0-.67.17-1.19.5-1.55s.81-.54,1.43-.54,1.11.18,1.44.53.49.87.49,1.54v.3c0,.46-.08.82-.23,1.1-.15.28-.39.47-.71.59v.02c.34.13.59.34.74.62.15.29.23.66.23,1.1v.74c0,.67-.17,1.19-.5,1.54s-.82.53-1.47.53-1.14-.18-1.47-.54Z"/><path class="cls-8" d="m262.05,180.74c-.34-.37-.52-.89-.52-1.56v-4.42c0-.67.17-1.19.52-1.56.34-.37.84-.55,1.49-.55s1.14.18,1.49.55c.34.37.52.89.52,1.56v4.42c0,.67-.17,1.19-.52,1.56-.34.37-.84.55-1.49.55s-1.14-.18-1.49-.55Zm2.17-1.48v-4.58c0-.55-.23-.83-.68-.83s-.68.28-.68.83v4.58c0,.55.23.83.68.83s.68-.28.68-.83Z"/><circle class="cls-5" cx="256.64" cy="167.9" r="2.25"/><path class="cls-9" d="m1.5.18h2.03v11.09h3.35v1.85H1.5V.18Z"/><path class="cls-9" d="m8.36.18h3.1c1.01,0,1.77.27,2.27.81.5.54.76,1.34.76,2.38v6.54c0,1.05-.25,1.84-.76,2.38-.51.54-1.26.81-2.27.81h-3.1V.18Zm3.07,11.09c.33,0,.59-.1.77-.3s.27-.52.27-.96V3.29c0-.44-.09-.76-.27-.96-.18-.2-.43-.3-.77-.3h-1.04v9.24h1.04Z"/><path class="cls-9" d="m17,12.47c-.51-.55-.77-1.34-.77-2.35V3.18c0-1.01.26-1.79.77-2.35.51-.55,1.25-.83,2.23-.83s1.72.28,2.23.83c.51.55.77,1.34.77,2.35v1.37h-1.92v-1.5c0-.8-.34-1.2-1.02-1.2s-1.02.4-1.02,1.2v7.23c0,.79.34,1.18,1.02,1.18s1.02-.39,1.02-1.18v-1.98h1.92v1.83c0,1.01-.26,1.79-.77,2.35-.51.55-1.25.83-2.23.83s-1.72-.28-2.23-.83Z"/><path class="cls-9" d="m24.12,12.59c-.41-.45-.61-1.1-.61-1.94v-.59h1.54v.71c0,.67.28,1.01.85,1.01.28,0,.49-.08.63-.25.14-.16.21-.43.21-.79,0-.44-.1-.82-.3-1.15-.2-.33-.56-.73-1.1-1.19-.67-.59-1.14-1.13-1.41-1.61-.27-.48-.4-1.02-.4-1.63,0-.82.21-1.46.62-1.91.42-.45,1.02-.68,1.81-.68s1.37.23,1.77.68c.4.45.6,1.1.6,1.94v.43h-1.54v-.53c0-.36-.07-.62-.21-.78-.14-.16-.34-.24-.61-.24-.54,0-.82.33-.82.99,0,.38.1.73.3,1.05.2.33.57.72,1.11,1.19.68.59,1.15,1.13,1.41,1.62.26.48.39,1.05.39,1.71,0,.85-.21,1.5-.63,1.96s-1.03.68-1.83.68-1.39-.23-1.8-.68Z"/><path class="cls-9" d="m34.9.18h2.75l2.11,12.94h-2.03l-.37-2.57v.04h-2.31l-.37,2.53h-1.88L34.9.18Zm2.22,8.65l-.91-6.39h-.04l-.89,6.39h1.83Z"/><path class="cls-9" d="m41.24.18h3.01c1.05,0,1.81.24,2.29.73.48.49.72,1.24.72,2.25v.79c0,1.34-.44,2.19-1.33,2.55v.04c.49.15.84.45,1.04.91.2.46.3,1.07.3,1.83v2.27c0,.37.01.67.04.9.02.23.09.45.18.67h-2.07c-.07-.21-.12-.41-.15-.59-.02-.19-.04-.52-.04-1v-2.37c0-.59-.1-1-.29-1.24-.19-.23-.52-.35-.99-.35h-.7v5.54h-2.03V.18Zm2.77,5.54c.41,0,.71-.1.92-.31s.3-.56.3-1.05v-1c0-.47-.08-.81-.25-1.02-.17-.21-.43-.31-.79-.31h-.92v3.7h.74Z"/><path class="cls-9" d="m49.19.18h5.54v1.85h-3.51v3.42h2.79v1.85h-2.79v3.97h3.51v1.85h-5.54V.18Z"/><path class="cls-9" d="m59.86.18h2.03v11.09h3.35v1.85h-5.38V.18Z"/><path class="cls-9" d="m66.72.18h2.03v12.94h-2.03V.18Z"/><path class="cls-9" d="m70.77.18h2.03v5.45l2.59-5.45h2.03l-2.42,4.75,2.46,8.19h-2.12l-1.72-5.77-.81,1.64v4.12h-2.03V.18Z"/><path class="cls-9" d="m78.92.18h5.54v1.85h-3.51v3.42h2.79v1.85h-2.79v3.97h3.51v1.85h-5.54V.18Z"/><path class="cls-9" d="m86.13.18h2.03v11.09h3.35v1.85h-5.38V.18Z"/><path class="cls-9" d="m93.22,7.61l-2.46-7.43h2.16l1.39,4.75h.04l1.39-4.75h1.98l-2.46,7.43v5.51h-2.03v-5.51Z"/><path class="cls-9" d="m104.19,2.03h-2.12V.18h6.28v1.85h-2.12v11.09h-2.03V2.03Z"/><path class="cls-9" d="m110.4,12.46c-.53-.57-.79-1.37-.79-2.4V3.25c0-1.04.27-1.84.79-2.4s1.29-.85,2.29-.85,1.76.28,2.29.85.79,1.37.79,2.4v6.8c0,1.04-.27,1.84-.79,2.4-.53.57-1.29.85-2.29.85s-1.76-.28-2.29-.85Zm3.34-2.27V3.12c0-.85-.35-1.28-1.05-1.28s-1.05.43-1.05,1.28v7.06c0,.85.35,1.28,1.05,1.28s1.05-.43,1.05-1.28Z"/><path class="cls-8" d="m121.1.18h2.9l1.29,9.26h.04l1.29-9.26h2.9v12.94h-1.92V3.33h-.04l-1.48,9.79h-1.7l-1.48-9.79h-.04v9.79h-1.77V.18Z"/><path class="cls-8" d="m131.55.18h2.03v12.94h-2.03V.18Z"/><path class="cls-8" d="m136,12.46c-.5-.56-.76-1.36-.76-2.41v-.74h1.92v.89c0,.84.35,1.26,1.05,1.26.34,0,.61-.1.79-.31.18-.2.27-.53.27-.99,0-.54-.12-1.02-.37-1.43-.25-.41-.7-.91-1.37-1.49-.84-.74-1.42-1.41-1.76-2.01-.33-.6-.5-1.27-.5-2.02,0-1.02.26-1.81.78-2.37s1.27-.84,2.25-.84,1.71.28,2.21.84.75,1.36.75,2.41v.54h-1.92v-.67c0-.44-.09-.77-.26-.97-.17-.2-.42-.31-.76-.31-.68,0-1.02.41-1.02,1.24,0,.47.13.91.38,1.31.25.41.71.9,1.38,1.48.85.74,1.44,1.41,1.76,2.01.32.6.48,1.31.48,2.13,0,1.06-.26,1.87-.79,2.44-.52.57-1.28.85-2.28.85s-1.73-.28-2.24-.84Z"/><path class="cls-8" d="m143.38,12.46c-.5-.56-.76-1.36-.76-2.41v-.74h1.92v.89c0,.84.35,1.26,1.05,1.26.34,0,.61-.1.79-.31.18-.2.27-.53.27-.99,0-.54-.12-1.02-.37-1.43-.25-.41-.7-.91-1.37-1.49-.84-.74-1.42-1.41-1.76-2.01-.33-.6-.5-1.27-.5-2.02,0-1.02.26-1.81.78-2.37s1.27-.84,2.25-.84,1.71.28,2.21.84.75,1.36.75,2.41v.54h-1.92v-.67c0-.44-.09-.77-.26-.97-.17-.2-.42-.31-.76-.31-.68,0-1.02.41-1.02,1.24,0,.47.13.91.38,1.31.25.41.71.9,1.38,1.48.85.74,1.44,1.41,1.76,2.01.32.6.48,1.31.48,2.13,0,1.06-.26,1.87-.79,2.44-.52.57-1.28.85-2.28.85s-1.73-.28-2.24-.84Z"/><path class="cls-8" d="m155.39,2.03h-2.12V.18h6.28v1.85h-2.12v11.09h-2.03V2.03Z"/><path class="cls-8" d="m161.03.18h2.03v5.27h2.18V.18h2.03v12.94h-2.03v-5.82h-2.18v5.82h-2.03V.18Z"/><path class="cls-8" d="m169.29.18h5.54v1.85h-3.51v3.42h2.79v1.85h-2.79v3.97h3.51v1.85h-5.54V.18Z"/><path class="cls-8" d="m176.5.18h2.03v12.94h-2.03V.18Z"/><path class="cls-8" d="m180.55.18h3.01c1.05,0,1.81.24,2.29.73.48.49.72,1.24.72,2.25v.79c0,1.34-.44,2.19-1.33,2.55v.04c.49.15.84.45,1.04.91.2.46.3,1.07.3,1.83v2.27c0,.37.01.67.04.9.02.23.09.45.18.67h-2.07c-.07-.21-.12-.41-.15-.59-.02-.19-.04-.52-.04-1v-2.37c0-.59-.1-1-.29-1.24-.19-.23-.52-.35-.99-.35h-.7v5.54h-2.03V.18Zm2.77,5.54c.41,0,.71-.1.92-.31s.3-.56.3-1.05v-1c0-.47-.08-.81-.25-1.02-.17-.21-.43-.31-.79-.31h-.92v3.7h.74Z"/><path class="cls-8" d="m191.92,11.72c0-.92.15-1.72.44-2.38.3-.66.83-1.39,1.59-2.19.75-.8,1.27-1.48,1.56-2.05.29-.57.43-1.16.43-1.77,0-.55-.09-.94-.27-1.15s-.44-.32-.79-.32c-.7,0-1.05.43-1.05,1.28v1.39h-1.92v-1.26c0-1.05.26-1.85.78-2.41s1.27-.84,2.25-.84,1.74.28,2.25.84.78,1.36.78,2.41c0,.79-.19,1.56-.56,2.31-.38.75-1.03,1.61-1.95,2.59-.6.64-1.01,1.16-1.22,1.56-.21.4-.31.83-.31,1.28v.28h3.86v1.85h-5.88v-1.4Z"/><path class="cls-8" d="m200.5,12.46c-.53-.57-.79-1.37-.79-2.4V3.25c0-1.04.27-1.84.79-2.4s1.29-.85,2.29-.85,1.76.28,2.29.85.79,1.37.79,2.4v6.8c0,1.04-.27,1.84-.79,2.4-.53.57-1.29.85-2.29.85s-1.76-.28-2.29-.85Zm3.34-2.27V3.12c0-.85-.35-1.28-1.05-1.28s-1.05.43-1.05,1.28v7.06c0,.85.35,1.28,1.05,1.28s1.05-.43,1.05-1.28Z"/><path class="cls-8" d="m208.36,12.47c-.51-.55-.77-1.35-.77-2.38v-1.05h1.92v1.15c0,.85.35,1.28,1.05,1.28.34,0,.61-.11.79-.32.18-.22.27-.59.27-1.14v-1.05c0-.59-.11-1.01-.31-1.27-.21-.25-.55-.38-1.02-.38h-.68v-1.85h.74c.41,0,.71-.1.92-.31s.3-.56.3-1.05v-.94c0-.44-.09-.77-.28-.98s-.43-.31-.74-.31c-.65,0-.98.4-.98,1.2v.85h-1.92v-.68c0-1.03.26-1.83.77-2.38.51-.55,1.25-.83,2.21-.83s1.71.27,2.22.82c.5.55.76,1.34.76,2.37v.46c0,.7-.12,1.27-.35,1.69-.23.43-.6.73-1.09.92v.04c.53.2.91.52,1.15.96.23.44.35,1.01.35,1.7v1.15c0,1.03-.26,1.83-.77,2.37-.51.55-1.27.82-2.26.82s-1.75-.28-2.26-.83Z"/><path class="cls-8" d="m216.28,12.46c-.53-.57-.79-1.37-.79-2.4V3.25c0-1.04.27-1.84.79-2.4s1.29-.85,2.29-.85,1.76.28,2.29.85.79,1.37.79,2.4v6.8c0,1.04-.27,1.84-.79,2.4-.53.57-1.29.85-2.29.85s-1.76-.28-2.29-.85Zm3.34-2.27V3.12c0-.85-.35-1.28-1.05-1.28s-1.05.43-1.05,1.28v7.06c0,.85.35,1.28,1.05,1.28s1.05-.43,1.05-1.28Z"/><path class="cls-8" d="m228.57,2.03h-2.12V.18h6.28v1.85h-2.12v11.09h-2.03V2.03Z"/><path class="cls-8" d="m234.93.18h2.75l2.11,12.94h-2.03l-.37-2.57v.04h-2.31l-.37,2.53h-1.88l2.11-12.94Zm2.22,8.65l-.91-6.39h-.04l-.89,6.39h1.83Z"/><path class="cls-8" d="m241.27.18h3.01c1.05,0,1.81.24,2.29.73.48.49.72,1.24.72,2.25v.79c0,1.34-.44,2.19-1.33,2.55v.04c.49.15.84.45,1.04.91.2.46.3,1.07.3,1.83v2.27c0,.37.01.67.04.9.02.23.09.45.18.67h-2.07c-.07-.21-.12-.41-.15-.59-.02-.19-.04-.52-.04-1v-2.37c0-.59-.1-1-.29-1.24-.19-.23-.52-.35-.99-.35h-.7v5.54h-2.03V.18Zm2.77,5.54c.41,0,.71-.1.92-.31s.3-.56.3-1.05v-1c0-.47-.08-.81-.25-1.02-.17-.21-.43-.31-.79-.31h-.92v3.7h.74Z"/><path class="cls-8" d="m249.85,12.46c-.52-.56-.78-1.36-.78-2.41V3.25c0-1.05.26-1.85.78-2.41s1.27-.84,2.25-.84,1.74.28,2.25.84c.52.56.78,1.36.78,2.41v1.11h-1.92v-1.24c0-.85-.35-1.28-1.05-1.28s-1.05.43-1.05,1.28v7.08c0,.84.35,1.26,1.05,1.26s1.05-.42,1.05-1.26v-2.53h-1.02v-1.85h2.94v4.23c0,1.05-.26,1.85-.78,2.41-.52.56-1.27.84-2.25.84s-1.74-.28-2.25-.84Z"/><path class="cls-8" d="m256.95.18h5.54v1.85h-3.51v3.42h2.79v1.85h-2.79v3.97h3.51v1.85h-5.54V.18Z"/><path class="cls-8" d="m265.75,2.03h-2.12V.18h6.28v1.85h-2.12v11.09h-2.03V2.03Z"/><path class="cls-9" d="m3.46,33.11c-.53-.57-.79-1.37-.79-2.4v-6.8c0-1.04.27-1.84.79-2.4s1.29-.85,2.29-.85,1.76.28,2.29.85.79,1.37.79,2.4v6.8c0,1.04-.27,1.84-.79,2.4-.53.57-1.29.85-2.29.85s-1.76-.28-2.29-.85Zm3.34-2.27v-7.06c0-.85-.35-1.28-1.05-1.28s-1.05.43-1.05,1.28v7.06c0,.85.35,1.28,1.05,1.28s1.05-.43,1.05-1.28Z"/><path class="cls-9" d="m10.7,20.84h5.38v1.85h-3.35v3.6h2.62v1.85h-2.62v5.64h-2.03v-12.94Z"/><path class="cls-9" d="m21.01,20.84h3.1c1.01,0,1.77.27,2.27.81.5.54.76,1.34.76,2.38v6.54c0,1.05-.25,1.84-.76,2.38-.51.54-1.26.81-2.27.81h-3.1v-12.94Zm3.07,11.09c.33,0,.59-.1.77-.3s.27-.52.27-.96v-6.73c0-.44-.09-.76-.27-.96-.18-.2-.43-.3-.77-.3h-1.04v9.24h1.04Z"/><path class="cls-9" d="m29.66,33.11c-.53-.57-.79-1.37-.79-2.4v-6.8c0-1.04.27-1.84.79-2.4s1.29-.85,2.29-.85,1.76.28,2.29.85.79,1.37.79,2.4v6.8c0,1.04-.27,1.84-.79,2.4-.53.57-1.29.85-2.29.85s-1.76-.28-2.29-.85Zm3.34-2.27v-7.06c0-.85-.35-1.28-1.05-1.28s-1.05.43-1.05,1.28v7.06c0,.85.35,1.28,1.05,1.28s1.05-.43,1.05-1.28Z"/><path class="cls-9" d="m37.61,33.12c-.52-.56-.78-1.36-.78-2.41v-9.87h2.03v10.02c0,.44.09.76.27.96.18.2.43.3.77.3s.59-.1.77-.3c.18-.2.27-.52.27-.96v-10.02h1.96v9.87c0,1.05-.26,1.85-.78,2.41-.52.56-1.27.84-2.25.84s-1.74-.28-2.25-.84Z"/><path class="cls-9" d="m44.83,20.84h3.07c1.05,0,1.81.24,2.29.73.48.49.72,1.24.72,2.25v.52c0,.67-.11,1.21-.32,1.63-.22.42-.55.72-.99.91v.04c1.01.35,1.52,1.24,1.52,2.7v1.11c0,1-.26,1.76-.79,2.28-.52.52-1.29.79-2.3.79h-3.2v-12.94Zm2.83,5.27c.41,0,.71-.1.92-.31s.3-.56.3-1.05v-.72c0-.47-.08-.81-.25-1.02-.17-.21-.43-.31-.79-.31h-.98v3.42h.79Zm.37,5.82c.36,0,.62-.1.79-.29.17-.19.26-.52.26-.99v-1.13c0-.59-.1-1-.3-1.23-.2-.23-.54-.34-1.01-.34h-.91v3.97h1.17Z"/><path class="cls-9" d="m52.8,20.84h2.03v11.09h3.35v1.85h-5.38v-12.94Z"/><path class="cls-9" d="m59.65,20.84h2.03v12.94h-2.03v-12.94Z"/><path class="cls-9" d="m63.7,20.84h2.55l1.98,7.74h.04v-7.74h1.81v12.94h-2.09l-2.44-9.44h-.04v9.44h-1.81v-12.94Z"/><path class="cls-9" d="m72.72,33.12c-.52-.56-.78-1.36-.78-2.41v-6.8c0-1.05.26-1.85.78-2.41s1.27-.84,2.25-.84,1.74.28,2.25.84c.52.56.78,1.36.78,2.41v1.11h-1.92v-1.24c0-.85-.35-1.28-1.05-1.28s-1.05.43-1.05,1.28v7.08c0,.84.35,1.26,1.05,1.26s1.05-.42,1.05-1.26v-2.53h-1.02v-1.85h2.94v4.23c0,1.05-.26,1.85-.78,2.41-.52.56-1.27.84-2.25.84s-1.74-.28-2.25-.84Z"/><path class="cls-9" d="m83.27,20.84h2.9l1.29,9.26h.04l1.29-9.26h2.9v12.94h-1.92v-9.79h-.04l-1.48,9.79h-1.7l-1.48-9.79h-.04v9.79h-1.77v-12.94Z"/><path class="cls-9" d="m95.28,20.84h2.75l2.11,12.94h-2.03l-.37-2.57v.04h-2.31l-.37,2.53h-1.88l2.11-12.94Zm2.22,8.65l-.91-6.39h-.04l-.89,6.39h1.83Z"/><path class="cls-9" d="m101.62,20.84h2.55l1.98,7.74h.04v-7.74h1.81v12.94h-2.09l-2.44-9.44h-.04v9.44h-1.81v-12.94Z"/><path class="cls-9" d="m110.71,33.12c-.52-.56-.78-1.36-.78-2.41v-9.87h2.03v10.02c0,.44.09.76.27.96.18.2.43.3.77.3s.59-.1.77-.3c.18-.2.27-.52.27-.96v-10.02h1.96v9.87c0,1.05-.26,1.85-.78,2.41-.52.56-1.27.84-2.25.84s-1.74-.28-2.25-.84Z"/><path class="cls-9" d="m117.94,20.84h5.38v1.85h-3.35v3.6h2.62v1.85h-2.62v5.64h-2.03v-12.94Z"/><path class="cls-9" d="m125.77,20.84h2.75l2.11,12.94h-2.03l-.37-2.57v.04h-2.31l-.37,2.53h-1.88l2.11-12.94Zm2.22,8.65l-.91-6.39h-.04l-.89,6.39h1.83Z"/><path class="cls-9" d="m132.71,33.13c-.51-.55-.77-1.34-.77-2.35v-6.95c0-1.01.26-1.79.77-2.35.51-.55,1.25-.83,2.23-.83s1.72.28,2.23.83c.51.55.77,1.34.77,2.35v1.37h-1.92v-1.5c0-.8-.34-1.2-1.02-1.2s-1.02.4-1.02,1.2v7.23c0,.79.34,1.18,1.02,1.18s1.02-.39,1.02-1.18v-1.98h1.92v1.83c0,1.01-.26,1.79-.77,2.35-.51.55-1.25.83-2.23.83s-1.72-.28-2.23-.83Z"/><path class="cls-9" d="m141.24,22.69h-2.12v-1.85h6.28v1.85h-2.12v11.09h-2.03v-11.09Z"/><path class="cls-9" d="m147.58,33.12c-.52-.56-.78-1.36-.78-2.41v-9.87h2.03v10.02c0,.44.09.76.27.96.18.2.43.3.77.3s.59-.1.77-.3c.18-.2.27-.52.27-.96v-10.02h1.96v9.87c0,1.05-.26,1.85-.78,2.41-.52.56-1.27.84-2.25.84s-1.74-.28-2.25-.84Z"/><path class="cls-9" d="m154.81,20.84h3.01c1.05,0,1.81.24,2.29.73.48.49.72,1.24.72,2.25v.79c0,1.34-.44,2.19-1.33,2.55v.04c.49.15.84.45,1.04.91.2.46.3,1.07.3,1.83v2.27c0,.37.01.67.04.9.02.23.09.45.18.67h-2.07c-.07-.21-.12-.41-.15-.59-.02-.19-.04-.52-.04-1v-2.37c0-.59-.1-1-.29-1.24-.19-.23-.52-.35-.99-.35h-.7v5.54h-2.03v-12.94Zm2.77,5.54c.41,0,.71-.1.92-.31s.3-.56.3-1.05v-1c0-.47-.08-.81-.25-1.02-.17-.21-.43-.31-.79-.31h-.92v3.7h.74Z"/><path class="cls-9" d="m162.75,20.84h2.03v12.94h-2.03v-12.94Z"/><path class="cls-9" d="m166.8,20.84h2.55l1.98,7.74h.04v-7.74h1.81v12.94h-2.09l-2.44-9.44h-.04v9.44h-1.81v-12.94Z"/><path class="cls-9" d="m175.82,33.12c-.52-.56-.78-1.36-.78-2.41v-6.8c0-1.05.26-1.85.78-2.41s1.27-.84,2.25-.84,1.74.28,2.25.84c.52.56.78,1.36.78,2.41v1.11h-1.92v-1.24c0-.85-.35-1.28-1.05-1.28s-1.05.43-1.05,1.28v7.08c0,.84.35,1.26,1.05,1.26s1.05-.42,1.05-1.26v-2.53h-1.02v-1.85h2.94v4.23c0,1.05-.26,1.85-.78,2.41-.52.56-1.27.84-2.25.84s-1.74-.28-2.25-.84Z"/><path class="cls-9" d="m186.78,33.12c-.5-.56-.76-1.36-.76-2.41v-.74h1.92v.89c0,.84.35,1.26,1.05,1.26.34,0,.61-.1.79-.31.18-.2.27-.53.27-.99,0-.54-.12-1.02-.37-1.43-.25-.41-.7-.91-1.37-1.49-.84-.74-1.42-1.41-1.76-2.01-.33-.6-.5-1.27-.5-2.02,0-1.02.26-1.81.78-2.37s1.27-.84,2.25-.84,1.71.28,2.21.84.75,1.36.75,2.41v.54h-1.92v-.67c0-.44-.09-.77-.26-.97-.17-.2-.42-.31-.76-.31-.68,0-1.02.41-1.02,1.24,0,.47.13.91.38,1.31.25.41.71.9,1.38,1.48.85.74,1.44,1.41,1.76,2.01.32.6.48,1.31.48,2.13,0,1.06-.26,1.87-.79,2.44-.52.57-1.28.85-2.28.85s-1.73-.28-2.24-.84Z"/><path class="cls-9" d="m193.74,20.84h2.03v5.27h2.18v-5.27h2.03v12.94h-2.03v-5.82h-2.18v5.82h-2.03v-12.94Z"/><path class="cls-9" d="m203.57,20.84h2.75l2.11,12.94h-2.03l-.37-2.57v.04h-2.31l-.37,2.53h-1.88l2.11-12.94Zm2.22,8.65l-.91-6.39h-.04l-.89,6.39h1.83Z"/><path class="cls-9" d="m209.91,20.84h3.01c1.05,0,1.81.24,2.29.73.48.49.72,1.24.72,2.25v.79c0,1.34-.44,2.19-1.33,2.55v.04c.49.15.84.45,1.04.91.2.46.3,1.07.3,1.83v2.27c0,.37.01.67.04.9.02.23.09.45.18.67h-2.07c-.07-.21-.12-.41-.15-.59-.02-.19-.04-.52-.04-1v-2.37c0-.59-.1-1-.29-1.24-.19-.23-.52-.35-.99-.35h-.7v5.54h-2.03v-12.94Zm2.77,5.54c.41,0,.71-.1.92-.31s.3-.56.3-1.05v-1c0-.47-.08-.81-.25-1.02-.17-.21-.43-.31-.79-.31h-.92v3.7h.74Z"/><path class="cls-9" d="m217.86,20.84h5.54v1.85h-3.51v3.42h2.79v1.85h-2.79v3.97h3.51v1.85h-5.54v-12.94Z"/><path class="cls-9" d="m229.17,33.11c-.53-.57-.79-1.37-.79-2.4v-6.8c0-1.04.27-1.84.79-2.4s1.29-.85,2.29-.85,1.76.28,2.29.85.79,1.37.79,2.4v6.8c0,1.04-.27,1.84-.79,2.4-.53.57-1.29.85-2.29.85s-1.76-.28-2.29-.85Zm3.34-2.27v-7.06c0-.85-.35-1.28-1.05-1.28s-1.05.43-1.05,1.28v7.06c0,.85.35,1.28,1.05,1.28s1.05-.43,1.05-1.28Z"/><path class="cls-9" d="m236.41,20.84h5.38v1.85h-3.35v3.6h2.62v1.85h-2.62v5.64h-2.03v-12.94Z"/><path class="cls-9" d="m247.35,33.12c-.52-.56-.78-1.36-.78-2.41v-6.8c0-1.05.26-1.85.78-2.41s1.27-.84,2.25-.84,1.74.28,2.25.84c.52.56.78,1.36.78,2.41v1.11h-1.92v-1.24c0-.85-.35-1.28-1.05-1.28s-1.05.43-1.05,1.28v7.08c0,.84.35,1.26,1.05,1.26s1.05-.42,1.05-1.26v-2.53h-1.02v-1.85h2.94v4.23c0,1.05-.26,1.85-.78,2.41-.52.56-1.27.84-2.25.84s-1.74-.28-2.25-.84Z"/><path class="cls-9" d="m254.45,20.84h3.1c1.01,0,1.77.27,2.27.81.5.54.76,1.34.76,2.38v6.54c0,1.05-.25,1.84-.76,2.38-.51.54-1.26.81-2.27.81h-3.1v-12.94Zm3.07,11.09c.33,0,.59-.1.77-.3s.27-.52.27-.96v-6.73c0-.44-.09-.76-.27-.96-.18-.2-.43-.3-.77-.3h-1.04v9.24h1.04Z"/><path class="cls-9" d="m262.45,20.84h2.99c1.01,0,1.77.27,2.27.81.5.54.76,1.34.76,2.38v1.27c0,1.05-.25,1.84-.76,2.38-.5.54-1.26.81-2.27.81h-.96v5.27h-2.03v-12.94Zm2.99,5.82c.33,0,.58-.09.75-.28.17-.18.25-.5.25-.94v-1.53c0-.44-.08-.76-.25-.94-.17-.19-.42-.28-.75-.28h-.96v3.97h.96Z"/><path class="cls-9" d="m44.94,54.04h1.88l.84,6.01h.02l.84-6.01h1.88v8.4h-1.25v-6.36h-.02l-.96,6.36h-1.1l-.96-6.36h-.02v6.36h-1.15v-8.4Z"/><path class="cls-9" d="m52.42,54.04h1.79l1.37,8.4h-1.32l-.24-1.67v.02h-1.5l-.24,1.64h-1.22l1.37-8.4Zm1.44,5.62l-.59-4.15h-.02l-.58,4.15h1.19Z"/><path class="cls-9" d="m56.21,54.04h1.66l1.28,5.03h.02v-5.03h1.18v8.4h-1.36l-1.58-6.13h-.02v6.13h-1.18v-8.4Z"/><path class="cls-9" d="m61.79,62.02c-.34-.36-.5-.89-.5-1.57v-6.41h1.32v6.5c0,.29.06.5.17.62.12.13.28.19.5.19s.38-.06.5-.19c.12-.13.17-.34.17-.62v-6.5h1.27v6.41c0,.68-.17,1.2-.5,1.57s-.82.55-1.46.55-1.13-.18-1.46-.55Z"/><path class="cls-9" d="m66.16,54.04h3.49v1.2h-2.17v2.34h1.7v1.2h-1.7v3.66h-1.32v-8.4Z"/><path class="cls-9" d="m70.92,54.04h1.79l1.37,8.4h-1.32l-.24-1.67v.02h-1.5l-.24,1.64h-1.22l1.37-8.4Zm1.44,5.62l-.59-4.15h-.02l-.58,4.15h1.19Z"/><path class="cls-9" d="m75.1,62.02c-.33-.36-.5-.87-.5-1.52v-4.51c0-.66.17-1.16.5-1.52.33-.36.81-.54,1.45-.54s1.11.18,1.45.54c.33.36.5.87.5,1.52v.89h-1.25v-.97c0-.52-.22-.78-.66-.78s-.66.26-.66.78v4.69c0,.51.22.77.66.77s.66-.26.66-.77v-1.28h1.25v1.19c0,.66-.17,1.16-.5,1.52-.33.36-.81.54-1.45.54s-1.11-.18-1.45-.54Z"/><path class="cls-9" d="m80.32,55.24h-1.38v-1.2h4.08v1.2h-1.38v7.2h-1.32v-7.2Z"/><path class="cls-9" d="m84.11,62.02c-.34-.36-.5-.89-.5-1.57v-6.41h1.32v6.5c0,.29.06.5.17.62.12.13.28.19.5.19s.38-.06.5-.19c.12-.13.17-.34.17-.62v-6.5h1.27v6.41c0,.68-.17,1.2-.5,1.57s-.82.55-1.46.55-1.13-.18-1.46-.55Z"/><path class="cls-9" d="m88.48,54.04h1.96c.68,0,1.18.16,1.49.47.31.32.47.8.47,1.46v.52c0,.87-.29,1.42-.86,1.66v.02c.32.1.55.29.68.59s.2.69.2,1.19v1.48c0,.24,0,.43.02.58.02.15.06.29.12.44h-1.34c-.05-.14-.08-.26-.1-.38-.02-.12-.02-.34-.02-.65v-1.54c0-.38-.06-.65-.19-.8-.12-.15-.34-.23-.64-.23h-.46v3.6h-1.32v-8.4Zm1.8,3.6c.26,0,.46-.07.59-.2.13-.14.2-.36.2-.68v-.65c0-.3-.05-.52-.16-.66-.11-.14-.28-.2-.51-.2h-.6v2.4h.48Z"/><path class="cls-9" d="m93.31,54.04h1.32v8.4h-1.32v-8.4Z"/><path class="cls-9" d="m95.62,54.04h1.66l1.28,5.03h.02v-5.03h1.18v8.4h-1.36l-1.58-6.13h-.02v6.13h-1.18v-8.4Z"/><path class="cls-9" d="m101.15,62.02c-.34-.36-.5-.89-.5-1.57v-4.42c0-.68.17-1.2.5-1.57s.82-.55,1.46-.55,1.13.18,1.46.55.5.89.5,1.57v.72h-1.25v-.8c0-.55-.23-.83-.68-.83s-.68.28-.68.83v4.6c0,.54.23.82.68.82s.68-.27.68-.82v-1.64h-.66v-1.2h1.91v2.75c0,.68-.17,1.2-.5,1.57s-.82.55-1.46.55-1.13-.18-1.46-.55Z"/><path class="cls-9" d="m107,54.04h1.33l.86,6.52h.02l.86-6.52h1.21l-1.27,8.4h-1.75l-1.27-8.4Z"/><path class="cls-9" d="m112.62,54.04h1.79l1.37,8.4h-1.32l-.24-1.67v.02h-1.5l-.24,1.64h-1.22l1.37-8.4Zm1.44,5.62l-.59-4.15h-.02l-.58,4.15h1.19Z"/><path class="cls-9" d="m116.41,54.04h1.32v7.2h2.17v1.2h-3.49v-8.4Z"/><path class="cls-9" d="m121,62.02c-.34-.36-.5-.89-.5-1.57v-6.41h1.32v6.5c0,.29.06.5.17.62.12.13.28.19.5.19s.38-.06.5-.19c.12-.13.17-.34.17-.62v-6.5h1.27v6.41c0,.68-.17,1.2-.5,1.57s-.82.55-1.46.55-1.13-.18-1.46-.55Z"/><path class="cls-9" d="m125.36,54.04h3.6v1.2h-2.28v2.22h1.81v1.2h-1.81v2.58h2.28v1.2h-3.6v-8.4Z"/><path class="cls-9" d="m132.66,54.04h1.79l1.37,8.4h-1.32l-.24-1.67v.02h-1.5l-.24,1.64h-1.22l1.37-8.4Zm1.44,5.62l-.59-4.15h-.02l-.58,4.15h1.19Z"/><path class="cls-9" d="m136.68,62.02c-.33-.36-.49-.89-.49-1.57v-.48h1.25v.58c0,.54.23.82.68.82.22,0,.39-.07.51-.2.12-.13.17-.35.17-.64,0-.35-.08-.66-.24-.93-.16-.27-.46-.59-.89-.97-.54-.48-.92-.91-1.14-1.3-.22-.39-.32-.83-.32-1.31,0-.66.17-1.18.5-1.54s.82-.55,1.46-.55,1.11.18,1.43.55c.32.36.49.89.49,1.57v.35h-1.25v-.43c0-.29-.06-.5-.17-.63s-.28-.2-.49-.2c-.44,0-.66.27-.66.8,0,.3.08.59.25.85.16.26.46.58.89.96.55.48.93.92,1.14,1.31.21.39.31.85.31,1.38,0,.69-.17,1.22-.51,1.58-.34.37-.83.55-1.48.55s-1.12-.18-1.45-.55Z"/><path class="cls-9" d="m143.82,54.04h1.79l1.37,8.4h-1.32l-.24-1.67v.02h-1.5l-.24,1.64h-1.22l1.37-8.4Zm1.44,5.62l-.59-4.15h-.02l-.58,4.15h1.19Z"/><path class="cls-9" d="m149.79,62.02c-.33-.36-.49-.89-.49-1.57v-.48h1.25v.58c0,.54.23.82.68.82.22,0,.39-.07.51-.2.12-.13.17-.35.17-.64,0-.35-.08-.66-.24-.93-.16-.27-.46-.59-.89-.97-.54-.48-.92-.91-1.14-1.3-.22-.39-.32-.83-.32-1.31,0-.66.17-1.18.5-1.54s.82-.55,1.46-.55,1.11.18,1.43.55c.32.36.49.89.49,1.57v.35h-1.25v-.43c0-.29-.06-.5-.17-.63s-.28-.2-.49-.2c-.44,0-.66.27-.66.8,0,.3.08.59.25.85.16.26.46.58.89.96.55.48.93.92,1.14,1.31.21.39.31.85.31,1.38,0,.69-.17,1.22-.51,1.58-.34.37-.83.55-1.48.55s-1.12-.18-1.45-.55Z"/><path class="cls-9" d="m153.99,54.04h1.32v3.42h1.42v-3.42h1.32v8.4h-1.32v-3.78h-1.42v3.78h-1.32v-8.4Z"/><path class="cls-9" d="m160.05,54.04h1.79l1.37,8.4h-1.32l-.24-1.67v.02h-1.5l-.24,1.64h-1.22l1.37-8.4Zm1.44,5.62l-.59-4.15h-.02l-.58,4.15h1.19Z"/><path class="cls-9" d="m163.85,54.04h1.96c.68,0,1.18.16,1.49.47.31.32.47.8.47,1.46v.52c0,.87-.29,1.42-.86,1.66v.02c.32.1.55.29.68.59s.2.69.2,1.19v1.48c0,.24,0,.43.02.58.02.15.06.29.12.44h-1.34c-.05-.14-.08-.26-.1-.38-.02-.12-.02-.34-.02-.65v-1.54c0-.38-.06-.65-.19-.8-.12-.15-.34-.23-.64-.23h-.46v3.6h-1.32v-8.4Zm1.8,3.6c.26,0,.46-.07.59-.2.13-.14.2-.36.2-.68v-.65c0-.3-.05-.52-.16-.66-.11-.14-.28-.2-.51-.2h-.6v2.4h.48Z"/><path class="cls-9" d="m168.68,54.04h3.6v1.2h-2.28v2.22h1.81v1.2h-1.81v2.58h2.28v1.2h-3.6v-8.4Z"/><path class="cls-9" d="m175.38,62.01c-.34-.37-.52-.89-.52-1.56v-4.42c0-.67.17-1.19.52-1.56s.84-.55,1.49-.55,1.14.18,1.49.55.52.89.52,1.56v4.42c0,.67-.17,1.19-.52,1.56s-.84.55-1.49.55-1.14-.18-1.49-.55Zm2.17-1.48v-4.58c0-.55-.23-.83-.68-.83s-.68.28-.68.83v4.58c0,.55.23.83.68.83s.68-.28.68-.83Z"/><path class="cls-9" d="m179.76,54.04h3.49v1.2h-2.17v2.34h1.7v1.2h-1.7v3.66h-1.32v-8.4Z"/><path class="cls-9" d="m186.21,62.02c-.34-.36-.5-.89-.5-1.57v-4.42c0-.68.17-1.2.5-1.57s.82-.55,1.46-.55,1.13.18,1.46.55.5.89.5,1.57v.72h-1.25v-.8c0-.55-.23-.83-.68-.83s-.68.28-.68.83v4.6c0,.54.23.82.68.82s.68-.27.68-.82v-1.64h-.66v-1.2h1.91v2.75c0,.68-.17,1.2-.5,1.57s-.82.55-1.46.55-1.13-.18-1.46-.55Z"/><path class="cls-9" d="m190.5,54.04h2.02c.66,0,1.15.18,1.48.53.33.35.49.87.49,1.55v4.25c0,.68-.16,1.2-.49,1.55-.33.35-.82.53-1.48.53h-2.02v-8.4Zm1.99,7.2c.22,0,.38-.06.5-.19.12-.13.17-.34.17-.62v-4.37c0-.29-.06-.5-.17-.62-.12-.13-.28-.19-.5-.19h-.67v6h.67Z"/><path class="cls-9" d="m195.37,54.04h1.94c.66,0,1.15.18,1.48.53.33.35.49.87.49,1.55v.83c0,.68-.16,1.2-.49,1.55-.33.35-.82.53-1.48.53h-.62v3.42h-1.32v-8.4Zm1.94,3.78c.22,0,.38-.06.49-.18.11-.12.16-.32.16-.61v-1c0-.29-.05-.49-.16-.61-.11-.12-.27-.18-.49-.18h-.62v2.58h.62Z"/><path class="cls-9" d="m201.92,54.04h1.32v8.4h-1.32v-8.4Z"/><path class="cls-9" d="m204.22,54.04h1.66l1.28,5.03h.02v-5.03h1.18v8.4h-1.36l-1.58-6.13h-.02v6.13h-1.18v-8.4Z"/><path class="cls-9" d="m211.27,54.04h1.32v7.2h2.17v1.2h-3.49v-8.4Z"/><path class="cls-9" d="m215.39,54.04h2.02c.66,0,1.15.18,1.48.53.33.35.49.87.49,1.55v4.25c0,.68-.16,1.2-.49,1.55-.33.35-.82.53-1.48.53h-2.02v-8.4Zm1.99,7.2c.22,0,.38-.06.5-.19.12-.13.17-.34.17-.62v-4.37c0-.29-.06-.5-.17-.62-.12-.13-.28-.19-.5-.19h-.67v6h.67Z"/><path class="cls-9" d="m220.68,62.02c-.33-.36-.5-.87-.5-1.52v-4.51c0-.66.17-1.16.5-1.52.33-.36.81-.54,1.45-.54s1.11.18,1.45.54c.33.36.5.87.5,1.52v.89h-1.25v-.97c0-.52-.22-.78-.66-.78s-.66.26-.66.78v4.69c0,.51.22.77.66.77s.66-.26.66-.77v-1.28h1.25v1.19c0,.66-.17,1.16-.5,1.52-.33.36-.81.54-1.45.54s-1.11-.18-1.45-.54Z"/><path class="cls-9" d="m224.94,62.12c-.25-.27-.37-.66-.37-1.17v-.36h.94v.43c0,.41.17.61.51.61.17,0,.29-.05.38-.15.09-.1.13-.26.13-.48,0-.26-.06-.5-.18-.7-.12-.2-.34-.44-.67-.72-.41-.36-.69-.69-.86-.98s-.24-.62-.24-.99c0-.5.13-.88.38-1.16.25-.27.62-.41,1.1-.41s.83.14,1.08.41c.24.27.36.67.36,1.17v.26h-.94v-.32c0-.22-.04-.37-.13-.47-.08-.1-.21-.15-.37-.15-.33,0-.5.2-.5.6,0,.23.06.44.18.64.12.2.35.44.67.72.41.36.7.69.86.98s.23.64.23,1.04c0,.52-.13.91-.38,1.19-.25.28-.63.41-1.11.41s-.84-.14-1.09-.41Z"/><rect class="cls-11" x="12.8" y="55.69" width="21.78" height="4.53"/><rect class="cls-11" x="236.8" y="55.69" width="21.78" height="4.53"/><g id="Element_1"><line class="cls-2" x1="12.29" y1="149.92" x2="134.79" y2="139.84"/></g><line class="cls-3" x1="134.79" y1="139.84" x2="257.29" y2="85.73"/><circle class="cls-1" cx="12.47" cy="149.89" r="9.12"/><path class="cls-7" d="m5.67,147.9h-1.04v-.7c.28,0,.51-.02.68-.07.17-.05.31-.13.41-.24.1-.11.19-.27.27-.48h.67v6.3h-.99v-4.81Z"/><path class="cls-7" d="m7.64,152.02c0-.45.07-.84.22-1.16.14-.32.4-.68.77-1.07.37-.39.62-.72.76-1,.14-.28.21-.56.21-.86,0-.27-.04-.46-.13-.56s-.21-.16-.38-.16c-.34,0-.51.21-.51.62v.68h-.94v-.61c0-.51.13-.9.38-1.17.25-.27.62-.41,1.1-.41s.85.14,1.1.41.38.66.38,1.17c0,.38-.09.76-.27,1.12-.18.37-.5.79-.95,1.26-.29.31-.49.57-.59.76-.1.2-.15.4-.15.63v.14h1.88v.9h-2.86v-.68Z"/><path class="cls-7" d="m11.03,151.75h.95v.95h-.95v-.95Z"/><path class="cls-7" d="m13.89,147.9h-1.04v-.7c.28,0,.51-.02.68-.07.17-.05.31-.13.41-.24.1-.11.19-.27.27-.48h.67v6.3h-.99v-4.81Z"/><path class="cls-7" d="m16.06,149.65c-.16-.17-.24-.42-.24-.75v-1.57c0-.32.08-.57.24-.75.16-.17.4-.26.71-.26s.55.09.71.26c.16.17.24.42.24.75v1.57c0,.32-.08.57-.24.75-.16.17-.4.26-.71.26s-.55-.09-.71-.26Zm1.04-.7v-1.66c0-.26-.11-.4-.32-.4s-.32.13-.32.4v1.66c0,.26.11.4.32.4s.32-.13.32-.4Zm1.96-2.54h.63l-2.44,6.3h-.63l2.44-6.3Zm-.23,6.13c-.16-.17-.24-.42-.24-.75v-1.58c0-.32.08-.57.24-.75.16-.17.4-.26.71-.26s.55.09.71.26c.16.17.24.42.24.75v1.58c0,.32-.08.57-.24.75s-.4.26-.71.26-.55-.09-.71-.26Zm1.04-.7v-1.67c0-.26-.11-.4-.32-.4s-.32.13-.32.4v1.67c0,.26.11.4.32.4s.32-.13.32-.4Z"/><circle class="cls-1" cx="133.15" cy="140" r="9.12"/><path class="cls-7" d="m126.35,138.01h-1.04v-.7c.28,0,.51-.02.68-.07.17-.05.31-.13.41-.24.1-.11.19-.27.27-.48h.67v6.3h-.99v-4.81Z"/><path class="cls-7" d="m130,141.67h-1.89v-.9l1.8-4.26h1.08v4.26h.47v.9h-.47v1.14h-.99v-1.14Zm0-.9v-2.46h-.02l-.97,2.46h.99Z"/><path class="cls-7" d="m131.72,141.86h.95v.95h-.95v-.95Z"/><path class="cls-7" d="m133.5,142.49c-.26-.28-.39-.67-.39-1.17v-3.31c0-.5.13-.89.39-1.17.26-.28.63-.41,1.12-.41s.86.14,1.12.41.39.67.39,1.17v3.31c0,.5-.13.89-.39,1.17-.26.28-.63.41-1.12.41s-.86-.14-1.12-.41Zm1.63-1.11v-3.44c0-.41-.17-.62-.51-.62s-.51.21-.51.62v3.44c0,.41.17.62.51.62s.51-.21.51-.62Z"/><path class="cls-7" d="m136.75,139.76c-.16-.17-.24-.42-.24-.75v-1.57c0-.32.08-.57.24-.75.16-.17.4-.26.71-.26s.55.09.71.26c.16.17.24.42.24.75v1.57c0,.32-.08.57-.24.75-.16.17-.4.26-.71.26s-.55-.09-.71-.26Zm1.04-.7v-1.66c0-.26-.11-.4-.32-.4s-.32.13-.32.4v1.66c0,.26.11.4.32.4s.32-.13.32-.4Zm1.96-2.54h.63l-2.44,6.3h-.63l2.44-6.3Zm-.23,6.13c-.16-.17-.24-.42-.24-.75v-1.58c0-.32.08-.57.24-.75.16-.17.4-.26.71-.26s.55.09.71.26c.16.17.24.42.24.75v1.58c0,.32-.08.57-.24.75s-.4.26-.71.26-.55-.09-.71-.26Zm1.04-.7v-1.67c0-.26-.11-.4-.32-.4s-.32.13-.32.4v1.67c0,.26.11.4.32.4s.32-.13.32-.4Z"/><circle class="cls-1" cx="257.07" cy="85.95" r="9.12"/><path class="cls-7" d="m248.86,88.08c0-.45.07-.84.22-1.16.14-.32.4-.68.77-1.07.37-.39.62-.72.76-1,.14-.28.21-.56.21-.86,0-.27-.04-.46-.13-.56s-.21-.16-.38-.16c-.34,0-.51.21-.51.62v.68h-.94v-.61c0-.51.13-.9.38-1.17.25-.27.62-.41,1.1-.41s.85.14,1.1.41.38.66.38,1.17c0,.38-.09.76-.27,1.12-.18.37-.5.79-.95,1.26-.29.31-.49.57-.59.76-.1.2-.15.4-.15.63v.14h1.88v.9h-2.86v-.68Z"/><path class="cls-7" d="m253.91,87.62h-1.89v-.9l1.8-4.26h1.08v4.26h.47v.9h-.47v1.14h-.99v-1.14Zm0-.9v-2.46h-.02l-.97,2.46h.99Z"/><path class="cls-7" d="m255.63,87.81h.95v.95h-.95v-.95Z"/><path class="cls-7" d="m257.08,88.08c0-.45.07-.84.22-1.16.14-.32.4-.68.77-1.07.37-.39.62-.72.76-1,.14-.28.21-.56.21-.86,0-.27-.04-.46-.13-.56s-.21-.16-.38-.16c-.34,0-.51.21-.51.62v.68h-.94v-.61c0-.51.13-.9.38-1.17.25-.27.62-.41,1.1-.41s.85.14,1.1.41.38.66.38,1.17c0,.38-.09.76-.27,1.12-.18.37-.5.79-.95,1.26-.29.31-.49.57-.59.76-.1.2-.15.4-.15.63v.14h1.88v.9h-2.86v-.68Z"/><path class="cls-7" d="m260.66,85.71c-.16-.17-.24-.42-.24-.75v-1.57c0-.32.08-.57.24-.75.16-.17.4-.26.71-.26s.55.09.71.26c.16.17.24.42.24.75v1.57c0,.32-.08.57-.24.75-.16.17-.4.26-.71.26s-.55-.09-.71-.26Zm1.04-.7v-1.66c0-.26-.11-.4-.32-.4s-.32.13-.32.4v1.66c0,.26.11.4.32.4s.32-.13.32-.4Zm1.96-2.54h.63l-2.44,6.3h-.63l2.44-6.3Zm-.23,6.13c-.16-.17-.24-.42-.24-.75v-1.58c0-.32.08-.57.24-.75.16-.17.4-.26.71-.26s.55.09.71.26c.16.17.24.42.24.75v1.58c0,.32-.08.57-.24.75s-.4.26-.71.26-.55-.09-.71-.26Zm1.04-.7v-1.67c0-.26-.11-.4-.32-.4s-.32.13-.32.4v1.67c0,.26.11.4.32.4s.32-.13.32-.4Z"/></g></svg>