<?xml version="1.0" encoding="UTF-8"?>
<svg id="Layer_2" data-name="Layer 2" xmlns="http://www.w3.org/2000/svg" xmlns:xlink="http://www.w3.org/1999/xlink" viewBox="0 0 223.13 227.2">
  <defs>
    <style>
      .cls-1 {
        fill: #fff;
      }

      .cls-2, .cls-3, .cls-4, .cls-5 {
        fill: none;
      }

      .cls-2, .cls-5 {
        stroke: #f36e24;
        stroke-linecap: round;
        stroke-linejoin: round;
        stroke-width: 1.75px;
      }

      .cls-6 {
        fill: #fedec7;
      }

      .cls-3 {
        stroke: #fff8f5;
        stroke-miterlimit: 10;
        stroke-width: .43px;
      }

      .cls-7 {
        fill: #fab284;
      }

      .cls-8 {
        fill: #f36e24;
      }

      .cls-9 {
        clip-path: url(#clippath);
      }

      .cls-10 {
        fill: #a64324;
      }

      .cls-5 {
        stroke-dasharray: 0 0 0 2.92;
      }
    </style>
    <clipPath id="clippath">
      <path class="cls-4" d="M202.53,78.31c-.02,8.9-6.88,16.1-15.3,16.07-3.41-.01-6.71-1.22-9.39-3.45-6.53,9.53-19.15,11.66-28.17,4.76-1.25-.96-2.4-2.07-3.42-3.31-4.07,2.32-8.91,2.62-13.21,.81-7.77,10.78-22.34,12.87-32.54,4.67-1.48-1.19-2.81-2.56-3.98-4.08-8.09,2.43-16.52-2.52-18.82-11.06-2.3-8.54,2.38-17.44,10.47-19.88,1.35-.41,2.75-.61,4.16-.62,1.42-.01,2.83,.19,4.19,.61,8.06-10.53,22.67-12.16,32.64-3.65,1.45,1.24,2.76,2.66,3.88,4.23,4.3-1.79,9.13-1.49,13.21,.81,7.31-8.89,20.07-9.83,28.48-2.11,1.16,1.07,2.2,2.27,3.1,3.58,6.61-5.51,16.2-4.32,21.41,2.66,2.12,2.83,3.27,6.34,3.28,9.95Z"/>
    </clipPath>
  </defs>
  <g id="Layer_2-2" data-name="Layer 2">
    <path class="cls-7" d="M202.53,78.31c-.02,8.9-6.88,16.1-15.3,16.07-3.41-.01-6.71-1.22-9.39-3.45-6.53,9.53-19.15,11.66-28.17,4.76-1.25-.96-2.4-2.07-3.42-3.31-4.07,2.32-8.91,2.62-13.21,.81-7.77,10.78-22.34,12.87-32.54,4.67-1.48-1.19-2.81-2.56-3.98-4.08-8.09,2.43-16.52-2.52-18.82-11.06-2.3-8.54,2.38-17.44,10.47-19.88,1.35-.41,2.75-.61,4.16-.62,1.42-.01,2.83,.19,4.19,.61,8.06-10.53,22.67-12.16,32.64-3.65,1.45,1.24,2.76,2.66,3.88,4.23,4.3-1.79,9.13-1.49,13.21,.81,7.31-8.89,20.07-9.83,28.48-2.11,1.16,1.07,2.2,2.27,3.1,3.58,6.61-5.51,16.2-4.32,21.41,2.66,2.12,2.83,3.27,6.34,3.28,9.95Z"/>
    <g class="cls-9">
      <g>
        <line class="cls-3" x1="222.98" y1="73.85" x2="148.17" y2=".15"/>
        <line class="cls-3" x1="221.72" y1="75.18" x2="146.9" y2="1.48"/>
        <line class="cls-3" x1="220.45" y1="76.51" x2="145.64" y2="2.81"/>
        <line class="cls-3" x1="219.18" y1="77.83" x2="144.37" y2="4.13"/>
        <line class="cls-3" x1="217.92" y1="79.16" x2="143.11" y2="5.46"/>
        <line class="cls-3" x1="216.65" y1="80.49" x2="141.84" y2="6.79"/>
        <line class="cls-3" x1="215.38" y1="81.81" x2="140.57" y2="8.11"/>
        <line class="cls-3" x1="214.12" y1="83.14" x2="139.31" y2="9.44"/>
        <line class="cls-3" x1="212.85" y1="84.47" x2="138.04" y2="10.77"/>
        <line class="cls-3" x1="211.58" y1="85.79" x2="136.77" y2="12.09"/>
        <line class="cls-3" x1="210.32" y1="87.12" x2="135.51" y2="13.42"/>
        <line class="cls-3" x1="209.05" y1="88.45" x2="134.24" y2="14.75"/>
        <line class="cls-3" x1="207.79" y1="89.77" x2="132.97" y2="16.07"/>
        <line class="cls-3" x1="206.52" y1="91.1" x2="131.71" y2="17.4"/>
        <line class="cls-3" x1="205.25" y1="92.43" x2="130.44" y2="18.73"/>
        <line class="cls-3" x1="203.99" y1="93.75" x2="129.17" y2="20.05"/>
        <line class="cls-3" x1="202.72" y1="95.08" x2="127.91" y2="21.38"/>
        <line class="cls-3" x1="201.45" y1="96.41" x2="126.64" y2="22.71"/>
        <line class="cls-3" x1="200.19" y1="97.73" x2="125.37" y2="24.03"/>
        <line class="cls-3" x1="198.92" y1="99.06" x2="124.11" y2="25.36"/>
        <line class="cls-3" x1="197.65" y1="100.39" x2="122.84" y2="26.69"/>
        <line class="cls-3" x1="196.39" y1="101.71" x2="121.57" y2="28.01"/>
        <line class="cls-3" x1="195.12" y1="103.04" x2="120.31" y2="29.34"/>
        <line class="cls-3" x1="193.85" y1="104.37" x2="119.04" y2="30.67"/>
        <line class="cls-3" x1="192.59" y1="105.69" x2="117.77" y2="31.99"/>
        <line class="cls-3" x1="191.32" y1="107.02" x2="116.51" y2="33.32"/>
        <line class="cls-3" x1="190.05" y1="108.35" x2="115.24" y2="34.65"/>
        <line class="cls-3" x1="188.79" y1="109.67" x2="113.98" y2="35.97"/>
        <line class="cls-3" x1="187.52" y1="111" x2="112.71" y2="37.3"/>
        <line class="cls-3" x1="186.25" y1="112.33" x2="111.44" y2="38.63"/>
        <line class="cls-3" x1="184.99" y1="113.65" x2="110.18" y2="39.95"/>
        <line class="cls-3" x1="183.72" y1="114.98" x2="108.91" y2="41.28"/>
        <line class="cls-3" x1="182.46" y1="116.31" x2="107.64" y2="42.61"/>
        <line class="cls-3" x1="181.19" y1="117.63" x2="106.38" y2="43.93"/>
        <line class="cls-3" x1="179.92" y1="118.96" x2="105.11" y2="45.26"/>
        <line class="cls-3" x1="178.66" y1="120.29" x2="103.84" y2="46.59"/>
        <line class="cls-3" x1="177.39" y1="121.61" x2="102.58" y2="47.91"/>
        <line class="cls-3" x1="176.12" y1="122.94" x2="101.31" y2="49.24"/>
        <line class="cls-3" x1="174.86" y1="124.27" x2="100.04" y2="50.57"/>
        <line class="cls-3" x1="173.59" y1="125.59" x2="98.78" y2="51.89"/>
        <line class="cls-3" x1="172.32" y1="126.92" x2="97.51" y2="53.22"/>
        <line class="cls-3" x1="171.06" y1="128.25" x2="96.24" y2="54.55"/>
        <line class="cls-3" x1="169.79" y1="129.57" x2="94.98" y2="55.87"/>
        <line class="cls-3" x1="168.52" y1="130.9" x2="93.71" y2="57.2"/>
        <line class="cls-3" x1="167.26" y1="132.23" x2="92.44" y2="58.53"/>
        <line class="cls-3" x1="165.99" y1="133.55" x2="91.18" y2="59.85"/>
        <line class="cls-3" x1="164.72" y1="134.88" x2="89.91" y2="61.18"/>
        <line class="cls-3" x1="163.46" y1="136.21" x2="88.64" y2="62.51"/>
        <line class="cls-3" x1="162.19" y1="137.53" x2="87.38" y2="63.83"/>
        <line class="cls-3" x1="160.92" y1="138.86" x2="86.11" y2="65.16"/>
        <line class="cls-3" x1="159.66" y1="140.19" x2="84.85" y2="66.49"/>
        <line class="cls-3" x1="158.39" y1="141.51" x2="83.58" y2="67.81"/>
        <line class="cls-3" x1="157.13" y1="142.84" x2="82.31" y2="69.14"/>
        <line class="cls-3" x1="155.86" y1="144.17" x2="81.05" y2="70.47"/>
        <line class="cls-3" x1="154.59" y1="145.49" x2="79.78" y2="71.79"/>
        <line class="cls-3" x1="153.33" y1="146.82" x2="78.51" y2="73.12"/>
        <line class="cls-3" x1="152.06" y1="148.15" x2="77.25" y2="74.45"/>
        <line class="cls-3" x1="150.79" y1="149.47" x2="75.98" y2="75.77"/>
        <line class="cls-3" x1="149.53" y1="150.8" x2="74.71" y2="77.1"/>
        <line class="cls-3" x1="148.26" y1="152.13" x2="73.45" y2="78.43"/>
        <line class="cls-3" x1="146.99" y1="153.45" x2="72.18" y2="79.75"/>
        <line class="cls-3" x1="145.73" y1="154.78" x2="70.91" y2="81.08"/>
      </g>
    </g>
    <rect class="cls-6" x="6.38" y="189.04" width="109.42" height="24.39"/>
    <g>
      <path class="cls-8" d="M39.43,103.88c-5.34,0-10.41-1.81-14.67-5.23-1.36-1.1-2.62-2.34-3.73-3.72-1.25,.32-2.53,.48-3.81,.48-7.21,0-13.63-5.11-15.61-12.42-2.44-9.05,2.56-18.51,11.15-21.09,1.45-.44,2.94-.66,4.45-.66h.12c1.25,0,2.49,.16,3.7,.47,4.61-5.7,11.29-8.96,18.44-8.96,5.52,0,10.93,2.02,15.23,5.69,1.32,1.12,2.52,2.39,3.58,3.78,1.75-.63,3.57-.95,5.43-.95,2.48,0,4.96,.59,7.2,1.71,4-4.51,9.6-7.08,15.49-7.08,5.11,0,10.05,1.95,13.91,5.49,.96,.88,1.84,1.85,2.63,2.89,2.72-1.99,5.89-3.04,9.24-3.04,5.02,0,9.68,2.38,12.78,6.52,2.24,2.99,3.47,6.74,3.48,10.55-.02,9.42-7.32,17.07-16.26,17.07-3.32,0-6.54-1.08-9.23-3.02-4,5.27-10.12,8.39-16.56,8.39-4.49,0-8.78-1.47-12.42-4.26-1.1-.84-2.12-1.79-3.04-2.84-2.24,1.13-4.71,1.72-7.19,1.72-1.86,0-3.69-.32-5.44-.96-4.62,6.03-11.45,9.47-18.85,9.47Z"/>
      <path class="cls-1" d="M39.47,53.74c5.12,0,10.28,1.78,14.58,5.45,1.45,1.24,2.76,2.66,3.88,4.23,1.86-.77,3.82-1.16,5.78-1.16,2.57,0,5.12,.66,7.44,1.97,3.99-4.85,9.61-7.34,15.25-7.34,4.7,0,9.41,1.72,13.24,5.23,1.16,1.07,2.2,2.27,3.1,3.58,2.8-2.33,6.13-3.47,9.44-3.47,4.51,0,8.97,2.1,11.98,6.12,2.12,2.83,3.27,6.34,3.28,9.95-.02,8.89-6.85,16.07-15.26,16.07h-.04c-3.41-.01-6.71-1.22-9.39-3.45-3.95,5.75-10.11,8.81-16.36,8.81-4.1,0-8.24-1.32-11.82-4.05-1.26-.96-2.4-2.07-3.42-3.31-2.31,1.32-4.86,1.98-7.43,1.98-1.96,0-3.92-.39-5.78-1.17-4.57,6.34-11.49,9.68-18.5,9.68-4.9,0-9.84-1.63-14.04-5.01-1.48-1.19-2.81-2.56-3.98-4.08-1.39,.42-2.8,.62-4.18,.62-6.63,0-12.73-4.61-14.64-11.68-2.3-8.54,2.38-17.44,10.47-19.88,1.35-.41,2.75-.61,4.16-.62,.04,0,.08,0,.12,0,1.38,0,2.75,.2,4.07,.61,4.59-5.99,11.3-9.1,18.07-9.1m0-2c-7.25,0-14.03,3.21-18.81,8.85-1.09-.23-2.2-.35-3.32-.35h-.14c-1.59,0-3.18,.24-4.72,.7C3.38,63.67-1.93,73.68,.65,83.25c2.09,7.75,8.9,13.16,16.57,13.16,1.15,0,2.3-.12,3.43-.36,1.06,1.24,2.22,2.37,3.48,3.38,4.44,3.56,9.73,5.45,15.3,5.45,7.48,0,14.4-3.37,19.19-9.29,1.65,.52,3.35,.79,5.09,.79,2.39,0,4.76-.52,6.95-1.5,.83,.88,1.73,1.68,2.68,2.41,3.82,2.92,8.32,4.46,13.03,4.46,6.45,0,12.58-2.97,16.77-8.04,2.69,1.73,5.81,2.66,8.97,2.67,9.54,0,17.28-8.1,17.31-18.07,0-4.03-1.31-7.99-3.68-11.15-3.29-4.4-8.24-6.93-13.58-6.93-3.24,0-6.32,.92-9.03,2.68-.67-.81-1.39-1.57-2.16-2.27-4.04-3.71-9.22-5.75-14.59-5.75-5.93,0-11.58,2.48-15.73,6.86-2.19-.98-4.57-1.49-6.96-1.49-1.73,0-3.43,.26-5.08,.78-.99-1.22-2.09-2.35-3.28-3.37-4.48-3.82-10.12-5.93-15.88-5.93h0Z"/>
    </g>
    <path class="cls-7" d="M166.74,212.53h5.17c.34,0,.62,.28,.62,.62h0v5.17c0,.34-.28,.62-.62,.62h-5.17c-.34,0-.62-.28-.62-.62h0v-5.17c0-.34,.28-.62,.62-.62Z"/>
    <path class="cls-7" d="M181.71,212.53h5.17c.34,0,.62,.28,.62,.62h0v5.17c0,.34-.28,.62-.62,.62h-5.17c-.34,0-.62-.28-.62-.62h0v-5.17c0-.34,.28-.62,.62-.62Z"/>
    <path class="cls-8" d="M196.52,193.18c-1.01-.81-2.32-1.13-3.59-.86l-59.71,12.89c-1.96,.43-3.36,2.17-3.37,4.18v16.95c0,.48,.39,.86,.86,.86h66.53c.48,0,.86-.39,.86-.86v-29.83c0-1.29-.58-2.52-1.59-3.33Zm-41.59,33.16c0,.48-.39,.86-.86,.86h-14.44c-.48,0-.86-.39-.86-.86v-10.29c0-1.38,1.12-2.5,2.5-2.5h11.18c1.38,0,2.49,1.12,2.49,2.5v10.29Zm19.33-8.02c0,1.3-1.05,2.35-2.35,2.35h-5.17c-1.3,0-2.35-1.05-2.35-2.35v-5.17c0-1.3,1.05-2.35,2.35-2.35h5.17c1.3,0,2.35,1.05,2.35,2.35v5.17Zm14.97,0c0,1.3-1.05,2.35-2.35,2.35h-5.17c-1.3,0-2.35-1.05-2.35-2.35v-5.17c0-1.3,1.05-2.35,2.35-2.35h5.17c1.3,0,2.35,1.05,2.35,2.35v5.17Z"/>
    <g>
      <path class="cls-10" d="M148.38,114.9v85.28l-9.62,2.08V114.9c0-.77,.62-1.39,1.39-1.39h6.84c.77,0,1.39,.62,1.39,1.39h0Z"/>
      <path class="cls-10" d="M168.79,114.9v80.88l-9.62,2.08V114.9c0-.77,.62-1.39,1.39-1.39h6.83c.77,0,1.4,.62,1.4,1.39Z"/>
      <path class="cls-10" d="M189.2,114.9v76.47l-9.62,2.08V114.9c0-.77,.62-1.39,1.39-1.39h6.84c.77,0,1.39,.62,1.39,1.39h0Z"/>
      <path class="cls-10" d="M150.18,120.16h-13.22c-.48,0-.86-.39-.86-.86s.39-.86,.86-.86h13.22c.48,0,.86,.39,.86,.86s-.39,.86-.86,.86Z"/>
      <path class="cls-10" d="M170.58,120.16h-13.22c-.48,0-.86-.39-.86-.86s.39-.86,.86-.86h13.22c.48,0,.86,.39,.86,.86s-.39,.86-.86,.86Z"/>
      <path class="cls-10" d="M191,120.16h-13.22c-.48,0-.86-.39-.86-.86s.39-.86,.86-.86h13.22c.48,0,.86,.39,.86,.86s-.39,.86-.86,.86Z"/>
    </g>
    <g>
      <path class="cls-8" d="M22.12,194.91h2.5l1.91,11.9h-1.85l-.33-2.36v.03h-2.1l-.34,2.33h-1.71l1.91-11.9Zm2.01,7.96l-.82-5.88h-.03l-.81,5.88h1.66Z"/>
      <path class="cls-8" d="M30.94,194.91h2.74c1.91,0,2.74,.9,2.74,2.74v.73c0,1.22-.39,2.01-1.21,2.35v.03c.92,.29,1.23,1.17,1.23,2.52v2.09c0,.58,.02,1,.2,1.44h-1.88c-.1-.31-.17-.49-.17-1.46v-2.18c0-1.1-.32-1.46-1.16-1.46h-.64v5.1h-1.85v-11.9Zm2.52,5.1c.69,0,1.11-.31,1.11-1.26v-.92c0-.85-.29-1.22-.94-1.22h-.84v3.4h.67Z"/>
      <path class="cls-8" d="M38.12,194.91h5.04v1.7h-3.19v3.15h2.54v1.7h-2.54v3.65h3.19v1.7h-5.04v-11.9Z"/>
      <path class="cls-8" d="M44.52,204.06v-6.39c0-1.84,.94-2.92,2.72-2.92s2.72,1.09,2.72,2.92v1.26h-1.75v-1.38c0-.78-.37-1.1-.92-1.1s-.92,.32-.92,1.1v6.65c0,.78,.37,1.09,.92,1.09s.92-.31,.92-1.09v-1.82h1.75v1.68c0,1.84-.94,2.92-2.72,2.92s-2.72-1.09-2.72-2.92Z"/>
      <path class="cls-8" d="M51.38,203.99v-6.26c0-1.9,.99-2.99,2.8-2.99s2.8,1.09,2.8,2.99v6.26c0,1.9-.99,2.99-2.8,2.99s-2.8-1.09-2.8-2.99Zm3.76,.12v-6.49c0-.85-.37-1.17-.96-1.17s-.96,.32-.96,1.17v6.49c0,.85,.37,1.17,.96,1.17s.96-.32,.96-1.17Z"/>
      <path class="cls-8" d="M58.65,194.91h2.74c1.91,0,2.74,.9,2.74,2.74v.73c0,1.22-.39,2.01-1.21,2.35v.03c.92,.29,1.23,1.17,1.23,2.52v2.09c0,.58,.02,1,.2,1.44h-1.88c-.1-.31-.17-.49-.17-1.46v-2.18c0-1.1-.32-1.46-1.16-1.46h-.64v5.1h-1.85v-11.9Zm2.52,5.1c.69,0,1.11-.31,1.11-1.26v-.92c0-.85-.29-1.22-.94-1.22h-.84v3.4h.67Z"/>
      <path class="cls-8" d="M65.83,194.91h2.82c1.85,0,2.75,1.04,2.75,2.94v6.02c0,1.9-.91,2.94-2.75,2.94h-2.82v-11.9Zm2.79,10.2c.59,0,.94-.31,.94-1.16v-6.19c0-.85-.35-1.16-.94-1.16h-.94v8.5h.94Z"/>
      <path class="cls-8" d="M76.16,194.91h1.85v4.84h1.98v-4.84h1.85v11.9h-1.85v-5.35h-1.98v5.35h-1.85v-11.9Z"/>
      <path class="cls-8" d="M83.63,194.91h1.85v11.9h-1.85v-11.9Z"/>
      <path class="cls-8" d="M87.14,203.99v-6.26c0-1.9,.94-2.99,2.75-2.99s2.75,1.09,2.75,2.99v1.02h-1.75v-1.14c0-.85-.37-1.17-.96-1.17s-.96,.32-.96,1.17v6.51c0,.85,.37,1.16,.96,1.16s.96-.31,.96-1.16v-2.33h-.92v-1.7h2.67v3.89c0,1.9-.94,2.99-2.75,2.99s-2.75-1.09-2.75-2.99Z"/>
      <path class="cls-8" d="M94.25,194.91h1.85v4.84h1.98v-4.84h1.85v11.9h-1.85v-5.35h-1.98v5.35h-1.85v-11.9Z"/>
    </g>
    <g>
      <path class="cls-8" d="M15.65,33.44h5.04v1.7h-3.19v3.15h2.54v1.7h-2.54v3.65h3.19v1.7h-5.04v-11.9Z"/>
      <path class="cls-8" d="M22.16,33.44h2.32l1.8,7.12h.03v-7.12h1.64v11.9h-1.9l-2.22-8.69h-.03v8.69h-1.64v-11.9Z"/>
      <path class="cls-8" d="M29.74,33.44h5.04v1.7h-3.19v3.15h2.54v1.7h-2.54v3.65h3.19v1.7h-5.04v-11.9Z"/>
      <path class="cls-8" d="M36.26,33.44h2.74c1.91,0,2.74,.9,2.74,2.74v.73c0,1.22-.39,2.01-1.21,2.35v.03c.92,.29,1.23,1.17,1.23,2.52v2.09c0,.58,.02,1,.2,1.44h-1.88c-.1-.31-.17-.49-.17-1.46v-2.18c0-1.1-.32-1.46-1.16-1.46h-.64v5.1h-1.85v-11.9Zm2.52,5.1c.69,0,1.11-.31,1.11-1.26v-.92c0-.85-.29-1.22-.94-1.22h-.84v3.4h.67Z"/>
      <path class="cls-8" d="M43.3,42.52v-6.26c0-1.9,.94-2.99,2.75-2.99s2.75,1.09,2.75,2.99v1.02h-1.75v-1.14c0-.85-.37-1.17-.96-1.17s-.96,.32-.96,1.17v6.51c0,.85,.37,1.16,.96,1.16s.96-.31,.96-1.16v-2.33h-.92v-1.7h2.67v3.89c0,1.9-.94,2.99-2.75,2.99s-2.75-1.09-2.75-2.99Z"/>
      <path class="cls-8" d="M51.86,40.27l-2.23-6.83h1.96l1.26,4.37h.03l1.26-4.37h1.8l-2.23,6.83v5.07h-1.85v-5.07Z"/>
      <path class="cls-8" d="M56.09,38.54h3.69v1.7h-3.69v-1.7Z"/>
      <path class="cls-8" d="M61.31,33.44h2.74c1.91,0,2.74,.9,2.74,2.74v.73c0,1.22-.39,2.01-1.21,2.35v.03c.92,.29,1.23,1.17,1.23,2.52v2.09c0,.58,.02,1,.2,1.44h-1.88c-.1-.31-.17-.49-.17-1.46v-2.18c0-1.1-.32-1.46-1.16-1.46h-.64v5.1h-1.85v-11.9Zm2.52,5.1c.69,0,1.11-.31,1.11-1.26v-.92c0-.85-.29-1.22-.94-1.22h-.84v3.4h.67Z"/>
      <path class="cls-8" d="M68.49,33.44h5.04v1.7h-3.19v3.15h2.54v1.7h-2.54v3.65h3.19v1.7h-5.04v-11.9Z"/>
      <path class="cls-8" d="M75,33.44h1.85v10.2h3.04v1.7h-4.88v-11.9Z"/>
      <path class="cls-8" d="M82.69,33.44h2.5l1.91,11.9h-1.85l-.33-2.36v.03h-2.1l-.34,2.33h-1.71l1.91-11.9Zm2.01,7.96l-.82-5.88h-.03l-.81,5.88h1.66Z"/>
      <path class="cls-8" d="M89.08,35.14h-1.93v-1.7h5.71v1.7h-1.93v10.2h-1.85v-10.2Z"/>
      <path class="cls-8" d="M94.16,33.44h5.04v1.7h-3.19v3.15h2.54v1.7h-2.54v3.65h3.19v1.7h-5.04v-11.9Z"/>
      <path class="cls-8" d="M100.67,33.44h2.82c1.85,0,2.75,1.04,2.75,2.94v6.02c0,1.9-.91,2.94-2.75,2.94h-2.82v-11.9Zm2.79,10.2c.59,0,.94-.31,.94-1.16v-6.19c0-.85-.35-1.16-.94-1.16h-.94v8.5h.94Z"/>
    </g>
    <g>
      <path class="cls-1" d="M14.05,82.76v-8.15c0-2.34,1.2-3.73,3.47-3.73s3.47,1.39,3.47,3.73v1.6h-2.23v-1.76c0-1-.47-1.41-1.18-1.41s-1.18,.41-1.18,1.41v8.48c0,1,.47,1.39,1.18,1.39s1.18-.39,1.18-1.39v-2.32h2.23v2.15c0,2.34-1.2,3.73-3.47,3.73s-3.47-1.39-3.47-3.73Z"/>
      <path class="cls-1" d="M22.8,82.68v-7.98c0-2.43,1.26-3.82,3.58-3.82s3.58,1.39,3.58,3.82v7.98c0,2.43-1.26,3.82-3.58,3.82s-3.58-1.39-3.58-3.82Zm4.8,.15v-8.28c0-1.08-.47-1.5-1.22-1.5s-1.22,.41-1.22,1.5v8.28c0,1.08,.47,1.5,1.22,1.5s1.22-.41,1.22-1.5Z"/>
      <path class="cls-1" d="M31.73,89.14c0-1.64,.41-2.64,1.75-4.08,1.32-1.38,1.75-2.28,1.75-3.46,0-.82-.28-1.21-.91-1.21s-.91,.38-.91,1.13v1.05h-1.67v-.95c0-1.85,.91-2.85,2.63-2.85s2.63,1,2.63,2.77c0,1.44-.53,2.62-2.18,4.39-1.09,1.18-1.34,1.74-1.34,2.56v.31h3.37v1.62h-5.11v-1.28Z"/>
      <path class="cls-1" d="M43.37,71.1h6.42v2.17h-4.07v4.01h3.23v2.17h-3.23v4.66h4.07v2.17h-6.42v-15.18Z"/>
      <path class="cls-1" d="M51.68,71.1h3.36l1.5,10.86h.04l1.5-10.86h3.36v15.18h-2.23v-11.49h-.04l-1.71,11.49h-1.97l-1.71-11.49h-.04v11.49h-2.05v-15.18Z"/>
      <path class="cls-1" d="M63.73,71.1h2.35v15.18h-2.35v-15.18Z"/>
      <path class="cls-1" d="M67.97,82.68v-.87h2.23v1.04c0,1.08,.47,1.47,1.22,1.47s1.22-.39,1.22-1.52c0-1.26-.47-2.06-2.01-3.43-1.97-1.76-2.61-2.99-2.61-4.73,0-2.38,1.22-3.77,3.51-3.77s3.43,1.39,3.43,3.82v.63h-2.23v-.78c0-1.08-.43-1.5-1.18-1.5s-1.18,.41-1.18,1.45c0,1.11,.49,1.91,2.03,3.27,1.97,1.76,2.59,2.97,2.59,4.86,0,2.47-1.24,3.86-3.55,3.86s-3.47-1.39-3.47-3.82Z"/>
      <path class="cls-1" d="M76.46,82.68v-.87h2.23v1.04c0,1.08,.47,1.47,1.22,1.47s1.22-.39,1.22-1.52c0-1.26-.47-2.06-2.01-3.43-1.97-1.76-2.61-2.99-2.61-4.73,0-2.38,1.22-3.77,3.51-3.77s3.43,1.39,3.43,3.82v.63h-2.23v-.78c0-1.08-.43-1.5-1.18-1.5s-1.18,.41-1.18,1.45c0,1.11,.49,1.91,2.03,3.27,1.97,1.76,2.59,2.97,2.59,4.86,0,2.47-1.24,3.86-3.55,3.86s-3.47-1.39-3.47-3.82Z"/>
      <path class="cls-1" d="M85.37,71.1h2.35v15.18h-2.35v-15.18Z"/>
      <path class="cls-1" d="M89.84,82.68v-7.98c0-2.43,1.26-3.82,3.58-3.82s3.58,1.39,3.58,3.82v7.98c0,2.43-1.26,3.82-3.58,3.82s-3.58-1.39-3.58-3.82Zm4.8,.15v-8.28c0-1.08-.47-1.5-1.22-1.5s-1.22,.41-1.22,1.5v8.28c0,1.08,.47,1.5,1.22,1.5s1.22-.41,1.22-1.5Z"/>
      <path class="cls-1" d="M99.11,71.1h2.95l2.29,9.08h.04v-9.08h2.1v15.18h-2.42l-2.83-11.08h-.04v11.08h-2.1v-15.18Z"/>
      <path class="cls-1" d="M108.38,82.68v-.87h2.23v1.04c0,1.08,.47,1.47,1.22,1.47s1.22-.39,1.22-1.52c0-1.26-.47-2.06-2.01-3.43-1.97-1.76-2.61-2.99-2.61-4.73,0-2.38,1.22-3.77,3.51-3.77s3.43,1.39,3.43,3.82v.63h-2.23v-.78c0-1.08-.43-1.5-1.18-1.5s-1.18,.41-1.18,1.45c0,1.11,.49,1.91,2.03,3.27,1.97,1.76,2.59,2.97,2.59,4.86,0,2.47-1.24,3.86-3.55,3.86s-3.47-1.39-3.47-3.82Z"/>
    </g>
    <g>
      <path class="cls-8" d="M38.74,110.63h2.57c1.8,0,2.57,.85,2.57,2.58v.69c0,1.15-.36,1.89-1.14,2.21v.03c.87,.27,1.15,1.1,1.15,2.37v1.97c0,.54,.02,.94,.19,1.36h-1.77c-.09-.29-.16-.46-.16-1.38v-2.05c0-1.04-.3-1.38-1.09-1.38h-.6v4.8h-1.74v-11.2Zm2.37,4.8c.65,0,1.04-.29,1.04-1.18v-.86c0-.8-.27-1.15-.88-1.15h-.79v3.2h.63Z"/>
      <path class="cls-8" d="M45.5,110.63h4.74v1.6h-3v2.96h2.38v1.6h-2.38v3.44h3v1.6h-4.74v-11.2Z"/>
      <path class="cls-8" d="M52.97,110.63h2.35l1.8,11.2h-1.74l-.32-2.23v.03h-1.97l-.32,2.19h-1.61l1.8-11.2Zm1.89,7.49l-.77-5.54h-.03l-.76,5.54h1.56Z"/>
      <path class="cls-8" d="M58.22,119.24v-6.02c0-1.73,.88-2.75,2.56-2.75s2.56,1.02,2.56,2.75v1.18h-1.64v-1.3c0-.74-.35-1.04-.87-1.04s-.87,.3-.87,1.04v6.26c0,.74,.35,1.02,.87,1.02s.87-.29,.87-1.02v-1.71h1.64v1.58c0,1.73-.88,2.75-2.56,2.75s-2.56-1.02-2.56-2.75Z"/>
      <path class="cls-8" d="M64.77,110.63h1.74v4.56h1.86v-4.56h1.74v11.2h-1.74v-5.04h-1.86v5.04h-1.74v-11.2Z"/>
      <path class="cls-8" d="M71.8,110.63h4.74v1.6h-3v2.96h2.38v1.6h-2.38v3.44h3v1.6h-4.74v-11.2Z"/>
      <path class="cls-8" d="M77.93,110.63h2.65c1.74,0,2.59,.98,2.59,2.77v5.67c0,1.79-.85,2.77-2.59,2.77h-2.65v-11.2Zm2.62,9.6c.55,0,.88-.29,.88-1.09v-5.83c0-.8-.33-1.09-.88-1.09h-.88v8h.88Z"/>
    </g>
    <rect class="cls-6" x="6.38" y="127.73" width="109.42" height="29.71"/>
    <g>
      <path class="cls-8" d="M14.85,146.32v-1.31h2.36v1.42c0,1.15,.5,1.58,1.29,1.58s1.29-.39,1.29-1.81v-1.31c0-1.49-.5-2.04-1.63-2.04h-.84v-2.29h.91c.93,0,1.49-.41,1.49-1.7v-1.17c0-1.15-.52-1.61-1.25-1.61s-1.2,.44-1.2,1.49v1.06h-2.35v-.85c0-2.57,1.27-3.99,3.65-3.99s3.65,1.4,3.65,3.97v.57c0,1.72-.54,2.77-1.77,3.23v.05c1.34,.5,1.83,1.67,1.83,3.3v1.42c0,2.57-1.27,3.97-3.71,3.97s-3.71-1.42-3.71-3.99Z"/>
      <path class="cls-8" d="M24.54,146.27v-8.3c0-2.71,1.22-4.17,3.8-4.17,2.45,0,3.71,1.47,3.71,4.04v.3h-2.35v-.46c0-1.15-.5-1.58-1.29-1.58-.88,0-1.38,.44-1.38,1.97v3.07h.05c.43-.92,1.15-1.4,2.26-1.4,1.83,0,2.76,1.31,2.76,3.67v2.87c0,2.57-1.34,4.04-3.78,4.04s-3.78-1.47-3.78-4.04Zm5.07,.18v-2.84c0-1.08-.43-1.58-1.29-1.58s-1.29,.5-1.29,1.58v2.84c0,1.06,.43,1.56,1.29,1.56s1.29-.5,1.29-1.56Z"/>
      <path class="cls-8" d="M34.28,147.65h2.4v2.43h-2.4v-2.43Z"/>
      <path class="cls-8" d="M38.8,146.34v-1.42c0-1.54,.45-2.66,1.63-3.28v-.05c-1.04-.57-1.54-1.58-1.54-3.17v-.67c0-2.57,1.38-3.97,3.8-3.97s3.8,1.4,3.8,3.97v.67c0,1.58-.52,2.59-1.54,3.17v.05c1.18,.62,1.63,1.74,1.63,3.28v1.42c0,2.57-1.38,3.97-3.89,3.97s-3.9-1.4-3.9-3.97Zm5.3-.14v-1.54c0-1.22-.48-1.81-1.4-1.81s-1.4,.6-1.4,1.81v1.54c0,1.22,.48,1.81,1.4,1.81s1.4-.6,1.4-1.81Zm-.09-7.25v-1.26c0-1.06-.45-1.61-1.31-1.61s-1.31,.55-1.31,1.61v1.26c0,1.06,.45,1.61,1.31,1.61s1.31-.55,1.31-1.61Z"/>
      <path class="cls-8" d="M52.91,134.02h3.76c2.58,0,3.69,1.22,3.69,3.69v.64c0,1.65-.5,2.68-1.61,3.14v.05c1.34,.46,1.86,1.65,1.86,3.35v1.38c0,2.48-1.29,3.81-3.78,3.81h-3.92v-16.05Zm3.46,6.54c.93,0,1.5-.41,1.5-1.7v-.89c0-1.15-.38-1.65-1.27-1.65h-1.2v4.24h.97Zm.45,7.22c.84,0,1.29-.39,1.29-1.58v-1.4c0-1.49-.48-1.95-1.61-1.95h-1.11v4.93h1.43Z"/>
      <path class="cls-8" d="M62.62,134.02h2.49v16.05h-2.49v-16.05Z"/>
      <path class="cls-8" d="M67.53,134.02h2.49v13.76h4.1v2.29h-6.59v-16.05Z"/>
      <path class="cls-8" d="M75.88,134.02h2.49v13.76h4.1v2.29h-6.59v-16.05Z"/>
      <path class="cls-8" d="M84.24,134.02h2.49v16.05h-2.49v-16.05Z"/>
      <path class="cls-8" d="M88.97,146.27v-8.44c0-2.57,1.34-4.04,3.78-4.04s3.78,1.47,3.78,4.04v8.44c0,2.57-1.34,4.04-3.78,4.04s-3.78-1.47-3.78-4.04Zm5.07,.16v-8.76c0-1.15-.5-1.58-1.29-1.58s-1.29,.44-1.29,1.58v8.76c0,1.15,.5,1.58,1.29,1.58s1.29-.44,1.29-1.58Z"/>
      <path class="cls-8" d="M98.77,134.02h3.12l2.42,9.61h.04v-9.61h2.22v16.05h-2.56l-2.99-11.72h-.04v11.72h-2.22v-16.05Z"/>
    </g>
    <g>
      <path class="cls-8" d="M6.65,165.53h2.48l1.11,8.02h.03l1.11-8.02h2.48v11.2h-1.64v-8.48h-.03l-1.26,8.48h-1.45l-1.26-8.48h-.03v8.48h-1.52v-11.2Z"/>
      <path class="cls-8" d="M15.54,165.53h4.74v1.6h-3v2.96h2.38v1.6h-2.38v3.44h3v1.6h-4.74v-11.2Z"/>
      <path class="cls-8" d="M23.03,167.14h-1.82v-1.6h5.37v1.6h-1.82v9.6h-1.74v-9.6Z"/>
      <path class="cls-8" d="M27.82,165.53h2.57c1.8,0,2.57,.85,2.57,2.58v.69c0,1.15-.36,1.89-1.14,2.21v.03c.87,.27,1.15,1.1,1.15,2.37v1.97c0,.54,.02,.94,.19,1.36h-1.77c-.09-.29-.16-.46-.16-1.38v-2.05c0-1.04-.3-1.38-1.09-1.38h-.6v4.8h-1.74v-11.2Zm2.37,4.8c.65,0,1.04-.29,1.04-1.18v-.86c0-.8-.27-1.15-.88-1.15h-.79v3.2h.63Z"/>
      <path class="cls-8" d="M34.57,165.53h1.74v11.2h-1.74v-11.2Z"/>
      <path class="cls-8" d="M37.89,174.15v-6.02c0-1.73,.88-2.75,2.56-2.75s2.56,1.02,2.56,2.75v1.18h-1.64v-1.3c0-.74-.35-1.04-.87-1.04s-.87,.3-.87,1.04v6.26c0,.74,.35,1.02,.87,1.02s.87-.29,.87-1.02v-1.71h1.64v1.58c0,1.73-.88,2.75-2.56,2.75s-2.56-1.02-2.56-2.75Z"/>
      <path class="cls-8" d="M48.72,167.14h-1.82v-1.6h5.37v1.6h-1.82v9.6h-1.74v-9.6Z"/>
      <path class="cls-8" d="M53.32,174.08v-5.89c0-1.79,.93-2.82,2.64-2.82s2.64,1.02,2.64,2.82v5.89c0,1.79-.93,2.82-2.64,2.82s-2.64-1.02-2.64-2.82Zm3.54,.11v-6.11c0-.8-.35-1.1-.9-1.1s-.9,.3-.9,1.1v6.11c0,.8,.35,1.1,.9,1.1s.9-.3,.9-1.1Z"/>
      <path class="cls-8" d="M60.16,165.53h2.18l1.69,6.71h.03v-6.71h1.55v11.2h-1.78l-2.08-8.18h-.03v8.18h-1.55v-11.2Z"/>
      <path class="cls-8" d="M67,174.08v-.64h1.64v.77c0,.8,.35,1.09,.9,1.09s.9-.29,.9-1.12c0-.93-.35-1.52-1.48-2.53-1.45-1.3-1.93-2.21-1.93-3.49,0-1.76,.9-2.79,2.59-2.79s2.53,1.02,2.53,2.82v.46h-1.64v-.58c0-.8-.32-1.1-.87-1.1s-.87,.3-.87,1.07c0,.82,.36,1.41,1.5,2.42,1.45,1.3,1.91,2.19,1.91,3.59,0,1.82-.92,2.85-2.62,2.85s-2.56-1.02-2.56-2.82Z"/>
      <path class="cls-8" d="M76.49,165.53h1.74v11.2h-1.74v-11.2Z"/>
      <path class="cls-8" d="M79.92,165.53h2.18l1.69,6.71h.03v-6.71h1.55v11.2h-1.78l-2.08-8.18h-.03v8.18h-1.55v-11.2Z"/>
      <path class="cls-8" d="M89.94,175.52c0-1.6,.44-2.58,1.74-3.95,1.33-1.42,1.71-2.27,1.71-3.31s-.35-1.28-.9-1.28-.9,.3-.9,1.1v1.2h-1.64v-1.09c0-1.79,.88-2.82,2.59-2.82s2.59,1.02,2.59,2.82c0,1.33-.54,2.51-2.15,4.24-1.04,1.12-1.31,1.68-1.31,2.46v.24h3.3v1.6h-5.02v-1.22Z"/>
      <path class="cls-8" d="M96.56,174.08v-5.89c0-1.79,.93-2.82,2.64-2.82s2.64,1.02,2.64,2.82v5.89c0,1.79-.93,2.82-2.64,2.82s-2.64-1.02-2.64-2.82Zm3.54,.11v-6.11c0-.8-.35-1.1-.9-1.1s-.9,.3-.9,1.1v6.11c0,.8,.35,1.1,.9,1.1s.9-.3,.9-1.1Z"/>
      <path class="cls-8" d="M103.37,175.52c0-1.6,.44-2.58,1.74-3.95,1.33-1.42,1.71-2.27,1.71-3.31s-.35-1.28-.9-1.28-.9,.3-.9,1.1v1.2h-1.64v-1.09c0-1.79,.88-2.82,2.59-2.82s2.59,1.02,2.59,2.82c0,1.33-.54,2.51-2.15,4.24-1.04,1.12-1.31,1.68-1.31,2.46v.24h3.3v1.6h-5.02v-1.22Z"/>
      <path class="cls-8" d="M110.08,175.52c0-1.6,.44-2.58,1.74-3.95,1.33-1.42,1.71-2.27,1.71-3.31s-.35-1.28-.9-1.28-.9,.3-.9,1.1v1.2h-1.64v-1.09c0-1.79,.88-2.82,2.59-2.82s2.59,1.02,2.59,2.82c0,1.33-.54,2.51-2.15,4.24-1.04,1.12-1.31,1.68-1.31,2.46v.24h3.3v1.6h-5.02v-1.22Z"/>
    </g>
    <g>
      <line class="cls-2" x1="6.77" y1="183.2" x2="6.77" y2="183.2"/>
      <line class="cls-5" x1="9.69" y1="183.2" x2="113.33" y2="183.2"/>
      <line class="cls-2" x1="114.79" y1="183.2" x2="114.79" y2="183.2"/>
    </g>
  </g>
</svg>