<?xml version="1.0" encoding="UTF-8"?>
<svg id="Layer_2" data-name="Layer 2" xmlns="http://www.w3.org/2000/svg" viewBox="0 0 210.68 262.45">
  <defs>
    <style>
      .cls-1 {
        fill: #fff;
      }

      .cls-2 {
        fill: #939598;
      }

      .cls-3 {
        fill: #fab284;
      }

      .cls-4, .cls-5, .cls-6, .cls-7, .cls-8 {
        fill: none;
      }

      .cls-4, .cls-7, .cls-8 {
        stroke: #a64324;
      }

      .cls-4, .cls-8 {
        stroke-linecap: round;
        stroke-linejoin: round;
        stroke-width: 1.75px;
      }

      .cls-9, .cls-10 {
        fill: #f36e24;
      }

      .cls-10 {
        opacity: .1;
      }

      .cls-5 {
        stroke-width: .89px;
      }

      .cls-5, .cls-6 {
        stroke: #939598;
      }

      .cls-5, .cls-6, .cls-7 {
        stroke-miterlimit: 10;
      }

      .cls-8 {
        stroke-dasharray: 0 0 0 2.83;
      }

      .cls-11 {
        fill: #a64324;
      }
    </style>
  </defs>
  <g id="Layer_2-2" data-name="Layer 2">
    <rect class="cls-10" width="210.68" height="262.45"/>
    <g>
      <path class="cls-2" d="M63.51,83.53h1.27l.59,6.45h.02l.62-6.45h1.44l.62,6.45h.02l.59-6.45h1.14l-.85,8.4h-1.64l-.6-5.66h-.02l-.6,5.66h-1.75l-.85-8.4Z"/>
      <path class="cls-2" d="M70.81,83.53h1.32v8.4h-1.32v-8.4Z"/>
      <path class="cls-2" d="M74.45,84.73h-1.38v-1.2h4.08v1.2h-1.38v7.2h-1.32v-7.2Z"/>
      <path class="cls-2" d="M78.08,83.53h1.32v3.42h1.42v-3.42h1.32v8.4h-1.32v-3.78h-1.42v3.78h-1.32v-8.4Z"/>
      <path class="cls-2" d="M85.64,83.53h1.95c1.37,0,1.96,.64,1.96,1.93v.52c0,.86-.28,1.42-.86,1.66v.02c.66,.2,.88,.83,.88,1.77v1.48c0,.41,.01,.71,.14,1.02h-1.34c-.07-.22-.12-.35-.12-1.03v-1.54c0-.78-.23-1.03-.83-1.03h-.46v3.6h-1.32v-8.4Zm1.8,3.6c.49,0,.79-.22,.79-.89v-.65c0-.6-.2-.86-.67-.86h-.6v2.4h.48Z"/>
      <path class="cls-2" d="M90.78,83.53h3.6v1.2h-2.28v2.22h1.81v1.2h-1.81v2.58h2.28v1.2h-3.6v-8.4Z"/>
      <path class="cls-2" d="M95.34,89.94v-4.41c0-1.34,.67-2.11,1.97-2.11s1.97,.77,1.97,2.11v.72h-1.25v-.8c0-.6-.26-.83-.68-.83s-.68,.23-.68,.83v4.59c0,.6,.26,.82,.68,.82s.68-.22,.68-.82v-1.64h-.66v-1.2h1.91v2.75c0,1.34-.67,2.11-1.97,2.11s-1.97-.77-1.97-2.11Z"/>
      <path class="cls-2" d="M100.43,83.53h1.32v8.4h-1.32v-8.4Z"/>
      <path class="cls-2" d="M102.93,89.94v-4.41c0-1.34,.71-2.11,2-2.11s2,.77,2,2.11v4.41c0,1.34-.71,2.11-2,2.11s-2-.77-2-2.11Zm2.69,.08v-4.58c0-.6-.26-.83-.68-.83s-.68,.23-.68,.83v4.58c0,.6,.26,.83,.68,.83s.68-.23,.68-.83Z"/>
      <path class="cls-2" d="M108.13,83.53h1.65l1.28,5.03h.02v-5.03h1.18v8.4h-1.36l-1.58-6.13h-.02v6.13h-1.17v-8.4Z"/>
      <path class="cls-2" d="M114.57,83.53h1.79l1.37,8.4h-1.32l-.24-1.67v.02h-1.5l-.24,1.64h-1.22l1.37-8.4Zm1.44,5.61l-.59-4.15h-.02l-.58,4.15h1.19Z"/>
      <path class="cls-2" d="M118.66,83.53h1.32v7.2h2.17v1.2h-3.49v-8.4Z"/>
      <path class="cls-2" d="M124.96,83.53h1.33l.86,6.51h.02l.86-6.51h1.21l-1.27,8.4h-1.75l-1.27-8.4Z"/>
      <path class="cls-2" d="M130.88,83.53h1.79l1.37,8.4h-1.32l-.24-1.67v.02h-1.5l-.24,1.64h-1.22l1.37-8.4Zm1.44,5.61l-.59-4.15h-.02l-.58,4.15h1.19Z"/>
      <path class="cls-2" d="M134.97,83.53h1.95c1.37,0,1.96,.64,1.96,1.93v.52c0,.86-.28,1.42-.86,1.66v.02c.66,.2,.88,.83,.88,1.77v1.48c0,.41,.01,.71,.14,1.02h-1.34c-.07-.22-.12-.35-.12-1.03v-1.54c0-.78-.23-1.03-.83-1.03h-.46v3.6h-1.32v-8.4Zm1.8,3.6c.49,0,.79-.22,.79-.89v-.65c0-.6-.2-.86-.67-.86h-.6v2.4h.48Z"/>
      <path class="cls-2" d="M140.11,83.53h1.32v8.4h-1.32v-8.4Z"/>
      <path class="cls-2" d="M143.73,83.53h1.79l1.37,8.4h-1.32l-.24-1.67v.02h-1.5l-.24,1.64h-1.22l1.37-8.4Zm1.44,5.61l-.59-4.15h-.02l-.58,4.15h1.19Z"/>
      <path class="cls-2" d="M148.3,84.73h-1.38v-1.2h4.08v1.2h-1.38v7.2h-1.32v-7.2Z"/>
      <path class="cls-2" d="M151.94,83.53h1.32v8.4h-1.32v-8.4Z"/>
      <path class="cls-2" d="M154.45,89.94v-4.41c0-1.34,.71-2.11,2-2.11s2,.77,2,2.11v4.41c0,1.34-.71,2.11-2,2.11s-2-.77-2-2.11Zm2.69,.08v-4.58c0-.6-.26-.83-.68-.83s-.68,.23-.68,.83v4.58c0,.6,.26,.83,.68,.83s.68-.23,.68-.83Z"/>
      <path class="cls-2" d="M159.64,83.53h1.65l1.28,5.03h.02v-5.03h1.18v8.4h-1.36l-1.58-6.13h-.02v6.13h-1.17v-8.4Z"/>
    </g>
    <rect class="cls-2" x="9.94" y="52.95" width="187.7" height="20.85"/>
    <g>
      <line class="cls-5" x1="195.89" y1="41.62" x2="171.71" y2="41.62"/>
      <line class="cls-5" x1="195.89" y1="38.14" x2="171.71" y2="38.14"/>
    </g>
    <g>
      <line class="cls-5" x1="34.13" y1="41.62" x2="9.94" y2="41.62"/>
      <line class="cls-5" x1="34.13" y1="38.14" x2="9.94" y2="38.14"/>
    </g>
    <g>
      <path class="cls-9" d="M14.01,13.27h2.51l1.12,8.12h.03l1.12-8.12h2.51v11.34h-1.66v-8.59h-.03l-1.28,8.59h-1.47l-1.28-8.59h-.03v8.59h-1.54V13.27Z"/>
      <path class="cls-9" d="M23.02,13.27h4.8v1.62h-3.04v3h2.42v1.62h-2.42v3.48h3.04v1.62h-4.8V13.27Z"/>
      <path class="cls-9" d="M29.23,13.27h2.69c1.76,0,2.62,.99,2.62,2.8v5.74c0,1.81-.86,2.8-2.62,2.8h-2.69V13.27Zm2.66,9.72c.56,0,.9-.29,.9-1.1v-5.9c0-.81-.34-1.1-.9-1.1h-.9v8.1h.9Z"/>
      <path class="cls-9" d="M36.12,13.27h1.76v11.34h-1.76V13.27Z"/>
      <path class="cls-9" d="M39.53,21.92V13.27h1.76v8.78c0,.81,.34,1.1,.9,1.1s.9-.29,.9-1.1V13.27h1.7v8.65c0,1.81-.9,2.85-2.62,2.85s-2.63-1.04-2.63-2.85Z"/>
      <path class="cls-9" d="M46.43,13.27h2.51l1.12,8.12h.03l1.12-8.12h2.51v11.34h-1.66v-8.59h-.03l-1.28,8.59h-1.47l-1.28-8.59h-.03v8.59h-1.54V13.27Z"/>
      <path class="cls-9" d="M55.18,18.13h3.52v1.62h-3.52v-1.62Z"/>
      <path class="cls-9" d="M60.15,13.27h1.76v4.62h1.89v-4.62h1.76v11.34h-1.76v-5.1h-1.89v5.1h-1.76V13.27Z"/>
      <path class="cls-9" d="M67.27,13.27h1.76v11.34h-1.76V13.27Z"/>
      <path class="cls-9" d="M70.62,21.92v-5.96c0-1.81,.9-2.85,2.62-2.85s2.62,1.04,2.62,2.85v.97h-1.67v-1.09c0-.81-.35-1.12-.91-1.12s-.91,.31-.91,1.12v6.21c0,.81,.35,1.1,.91,1.1s.91-.29,.91-1.1v-2.22h-.88v-1.62h2.54v3.71c0,1.81-.9,2.85-2.62,2.85s-2.62-1.04-2.62-2.85Z"/>
      <path class="cls-9" d="M77.4,13.27h1.76v4.62h1.89v-4.62h1.76v11.34h-1.76v-5.1h-1.89v5.1h-1.76V13.27Z"/>
      <path class="cls-2" d="M90.26,15.31h1.32l1.01,6.3h-.98l-.18-1.25v.02h-1.11l-.18,1.23h-.91l1.01-6.3Zm1.07,4.21l-.44-3.12h-.02l-.43,3.12h.88Z"/>
      <path class="cls-2" d="M93.29,15.31h1.23l.95,3.77h.02v-3.77h.87v6.3h-1l-1.17-4.6h-.02v4.6h-.87v-6.3Z"/>
      <path class="cls-2" d="M97.31,15.31h1.49c.98,0,1.46,.55,1.46,1.56v3.19c0,1.01-.48,1.56-1.46,1.56h-1.49v-6.3Zm1.47,5.4c.31,0,.5-.16,.5-.61v-3.28c0-.45-.19-.61-.5-.61h-.5v4.5h.5Z"/>
      <path class="cls-9" d="M105.6,13.27h1.76v4.62h1.89v-4.62h1.76v11.34h-1.76v-5.1h-1.89v5.1h-1.76V13.27Z"/>
      <path class="cls-9" d="M112.72,13.27h1.76v11.34h-1.76V13.27Z"/>
      <path class="cls-9" d="M116.06,21.92v-5.96c0-1.81,.9-2.85,2.62-2.85s2.62,1.04,2.62,2.85v.97h-1.67v-1.09c0-.81-.35-1.12-.91-1.12s-.91,.31-.91,1.12v6.21c0,.81,.35,1.1,.91,1.1s.91-.29,.91-1.1v-2.22h-.88v-1.62h2.54v3.71c0,1.81-.9,2.85-2.62,2.85s-2.62-1.04-2.62-2.85Z"/>
      <path class="cls-9" d="M122.84,13.27h1.76v4.62h1.89v-4.62h1.76v11.34h-1.76v-5.1h-1.89v5.1h-1.76V13.27Z"/>
      <path class="cls-9" d="M129.71,18.13h3.52v1.62h-3.52v-1.62Z"/>
      <path class="cls-9" d="M134.89,14.89h-1.84v-1.62h5.44v1.62h-1.84v9.72h-1.76V14.89Z"/>
      <path class="cls-9" d="M139.74,13.27h4.8v1.62h-3.04v3h2.42v1.62h-2.42v3.48h3.04v1.62h-4.8V13.27Z"/>
      <path class="cls-9" d="M145.83,21.99v-6.09c0-1.75,.9-2.79,2.59-2.79s2.59,1.04,2.59,2.79v1.2h-1.67v-1.31c0-.75-.35-1.05-.88-1.05s-.88,.31-.88,1.05v6.34c0,.75,.35,1.04,.88,1.04s.88-.29,.88-1.04v-1.73h1.67v1.6c0,1.75-.9,2.79-2.59,2.79s-2.59-1.04-2.59-2.79Z"/>
      <path class="cls-9" d="M152.47,13.27h1.76v4.62h1.89v-4.62h1.76v11.34h-1.76v-5.1h-1.89v5.1h-1.76V13.27Z"/>
      <path class="cls-9" d="M159.59,13.27h2.21l1.71,6.79h.03v-6.79h1.57v11.34h-1.81l-2.11-8.28h-.03v8.28h-1.57V13.27Z"/>
      <path class="cls-9" d="M166.7,21.92v-5.96c0-1.81,.94-2.85,2.67-2.85s2.67,1.04,2.67,2.85v5.96c0,1.81-.94,2.85-2.67,2.85s-2.67-1.04-2.67-2.85Zm3.58,.11v-6.19c0-.81-.35-1.12-.91-1.12s-.91,.31-.91,1.12v6.19c0,.81,.35,1.12,.91,1.12s.91-.31,.91-1.12Z"/>
      <path class="cls-9" d="M173.62,13.27h1.76v9.72h2.9v1.62h-4.66V13.27Z"/>
      <path class="cls-9" d="M179.34,21.92v-5.96c0-1.81,.94-2.85,2.67-2.85s2.67,1.04,2.67,2.85v5.96c0,1.81-.94,2.85-2.67,2.85s-2.67-1.04-2.67-2.85Zm3.58,.11v-6.19c0-.81-.35-1.12-.91-1.12s-.91,.31-.91,1.12v6.19c0,.81,.35,1.12,.91,1.12s.91-.31,.91-1.12Z"/>
      <path class="cls-9" d="M186.14,21.92v-5.96c0-1.81,.9-2.85,2.62-2.85s2.62,1.04,2.62,2.85v.97h-1.67v-1.09c0-.81-.35-1.12-.91-1.12s-.91,.31-.91,1.12v6.21c0,.81,.35,1.1,.91,1.1s.91-.29,.91-1.1v-2.22h-.88v-1.62h2.54v3.71c0,1.81-.9,2.85-2.62,2.85s-2.62-1.04-2.62-2.85Z"/>
      <path class="cls-9" d="M194.3,19.78l-2.13-6.51h1.87l1.2,4.16h.03l1.2-4.16h1.71l-2.13,6.51v4.83h-1.76v-4.83Z"/>
      <path class="cls-2" d="M43.67,33.97h1.65v10.64h-1.65v-10.64Z"/>
      <path class="cls-2" d="M46.93,33.97h2.07l1.61,6.37h.03v-6.37h1.47v10.64h-1.7l-1.98-7.77h-.03v7.77h-1.47v-10.64Z"/>
      <path class="cls-2" d="M53.7,33.97h2.52c1.65,0,2.46,.93,2.46,2.63v5.38c0,1.7-.81,2.63-2.46,2.63h-2.52v-10.64Zm2.49,9.12c.53,0,.84-.27,.84-1.03v-5.53c0-.76-.32-1.03-.84-1.03h-.84v7.6h.84Z"/>
      <path class="cls-2" d="M60.11,42.09v-8.12h1.65v8.24c0,.76,.31,1.03,.84,1.03s.84-.27,.84-1.03v-8.24h1.59v8.12c0,1.7-.84,2.67-2.46,2.67s-2.46-.97-2.46-2.67Z"/>
      <path class="cls-2" d="M66.29,42.09v-.61h1.56v.73c0,.76,.33,1.03,.86,1.03s.85-.27,.85-1.06c0-.88-.33-1.44-1.41-2.4-1.38-1.23-1.83-2.1-1.83-3.31,0-1.67,.85-2.64,2.46-2.64s2.4,.97,2.4,2.67v.44h-1.56v-.55c0-.76-.3-1.05-.83-1.05s-.83,.29-.83,1.02c0,.78,.34,1.34,1.42,2.29,1.38,1.23,1.82,2.08,1.82,3.4,0,1.73-.87,2.71-2.49,2.71s-2.43-.97-2.43-2.67Z"/>
      <path class="cls-2" d="M73.82,35.49h-1.73v-1.52h5.1v1.52h-1.72v9.12h-1.65v-9.12Z"/>
      <path class="cls-2" d="M78.37,33.97h2.44c1.71,0,2.45,.81,2.45,2.45v.65c0,1.09-.34,1.79-1.08,2.1v.03c.83,.26,1.09,1.05,1.09,2.25v1.87c0,.52,.02,.9,.18,1.29h-1.68c-.09-.27-.15-.44-.15-1.31v-1.95c0-.99-.29-1.31-1.04-1.31h-.57v4.56h-1.65v-10.64Zm2.25,4.56c.61,0,.99-.27,.99-1.12v-.82c0-.76-.25-1.09-.84-1.09h-.75v3.04h.6Z"/>
      <path class="cls-2" d="M84.79,33.97h1.65v10.64h-1.65v-10.64Z"/>
      <path class="cls-2" d="M88.04,33.97h4.5v1.52h-2.85v2.81h2.27v1.52h-2.27v3.27h2.85v1.52h-4.5v-10.64Z"/>
      <path class="cls-2" d="M93.61,42.09v-.61h1.56v.73c0,.76,.33,1.03,.86,1.03s.85-.27,.85-1.06c0-.88-.33-1.44-1.41-2.4-1.38-1.23-1.83-2.1-1.83-3.31,0-1.67,.85-2.64,2.46-2.64s2.4,.97,2.4,2.67v.44h-1.56v-.55c0-.76-.3-1.05-.83-1.05s-.83,.29-.83,1.02c0,.78,.34,1.34,1.42,2.29,1.38,1.23,1.82,2.08,1.82,3.4,0,1.73-.87,2.71-2.49,2.71s-2.43-.97-2.43-2.67Z"/>
      <path class="cls-2" d="M102.62,33.97h4.5v1.52h-2.85v2.81h2.27v1.52h-2.27v3.27h2.85v1.52h-4.5v-10.64Z"/>
      <path class="cls-2" d="M109.92,39.17l-1.82-5.2h1.74l1.11,3.43h.03l1.14-3.43h1.56l-1.82,5.2,1.91,5.44h-1.74l-1.2-3.71h-.03l-1.23,3.71h-1.56l1.91-5.44Z"/>
      <path class="cls-2" d="M114.93,33.97h2.43c1.65,0,2.46,.93,2.46,2.63v1.05c0,1.7-.81,2.63-2.46,2.63h-.78v4.33h-1.65v-10.64Zm2.43,4.79c.53,0,.81-.24,.81-1v-1.26c0-.76-.28-1-.81-1h-.78v3.27h.78Z"/>
      <path class="cls-2" d="M121.1,33.97h4.5v1.52h-2.85v2.81h2.27v1.52h-2.27v3.27h2.85v1.52h-4.5v-10.64Z"/>
      <path class="cls-2" d="M126.92,33.97h2.44c1.71,0,2.45,.81,2.45,2.45v.65c0,1.09-.34,1.79-1.08,2.1v.03c.83,.26,1.09,1.05,1.09,2.25v1.87c0,.52,.02,.9,.18,1.29h-1.68c-.09-.27-.15-.44-.15-1.31v-1.95c0-.99-.29-1.31-1.04-1.31h-.57v4.56h-1.65v-10.64Zm2.25,4.56c.61,0,.99-.27,.99-1.12v-.82c0-.76-.25-1.09-.84-1.09h-.75v3.04h.6Z"/>
      <path class="cls-2" d="M133.34,33.97h1.65v10.64h-1.65v-10.64Z"/>
      <path class="cls-2" d="M136.59,33.97h4.5v1.52h-2.85v2.81h2.27v1.52h-2.27v3.27h2.85v1.52h-4.5v-10.64Z"/>
      <path class="cls-2" d="M142.41,33.97h2.07l1.61,6.37h.03v-6.37h1.47v10.64h-1.7l-1.98-7.77h-.03v7.77h-1.47v-10.64Z"/>
      <path class="cls-2" d="M149.09,42.15v-5.71c0-1.64,.84-2.61,2.43-2.61s2.43,.97,2.43,2.61v1.12h-1.56v-1.23c0-.7-.33-.99-.82-.99s-.83,.29-.83,.99v5.94c0,.7,.33,.97,.83,.97s.82-.27,.82-.97v-1.63h1.56v1.5c0,1.64-.84,2.61-2.43,2.61s-2.43-.97-2.43-2.61Z"/>
      <path class="cls-2" d="M155.31,33.97h4.5v1.52h-2.85v2.81h2.27v1.52h-2.27v3.27h2.85v1.52h-4.5v-10.64Z"/>
      <path class="cls-2" d="M161.13,33.97h2.52c1.65,0,2.46,.93,2.46,2.63v5.38c0,1.7-.81,2.63-2.46,2.63h-2.52v-10.64Zm2.49,9.12c.53,0,.84-.27,.84-1.03v-5.53c0-.76-.32-1.03-.84-1.03h-.84v7.6h.84Z"/>
    </g>
    <g>
      <path class="cls-1" d="M41.31,66.45v-.64h1.66v.77c0,.8,.35,1.09,.91,1.09s.91-.29,.91-1.12c0-.93-.35-1.52-1.5-2.53-1.47-1.3-1.95-2.21-1.95-3.49,0-1.76,.91-2.79,2.62-2.79s2.56,1.02,2.56,2.82v.46h-1.67v-.58c0-.8-.32-1.1-.88-1.1s-.88,.3-.88,1.07c0,.82,.37,1.41,1.52,2.42,1.47,1.3,1.94,2.19,1.94,3.59,0,1.82-.93,2.85-2.66,2.85s-2.59-1.02-2.59-2.82Z"/>
      <path class="cls-1" d="M49.35,59.51h-1.84v-1.6h5.44v1.6h-1.84v9.6h-1.76v-9.6Z"/>
      <path class="cls-1" d="M54.19,57.91h2.61c1.82,0,2.61,.85,2.61,2.58v.69c0,1.15-.37,1.89-1.15,2.21v.03c.88,.27,1.17,1.1,1.17,2.37v1.97c0,.54,.02,.94,.19,1.36h-1.79c-.1-.29-.16-.46-.16-1.38v-2.05c0-1.04-.3-1.38-1.1-1.38h-.61v4.8h-1.76v-11.2Zm2.4,4.8c.66,0,1.06-.29,1.06-1.18v-.86c0-.8-.27-1.15-.9-1.15h-.8v3.2h.64Z"/>
      <path class="cls-1" d="M60.91,66.45v-5.89c0-1.79,.94-2.82,2.67-2.82s2.67,1.02,2.67,2.82v5.89c0,1.79-.94,2.82-2.67,2.82s-2.67-1.02-2.67-2.82Zm3.58,.11v-6.11c0-.8-.35-1.1-.91-1.1s-.91,.3-.91,1.1v6.11c0,.8,.35,1.1,.91,1.1s.91-.3,.91-1.1Z"/>
      <path class="cls-1" d="M67.84,57.91h2.21l1.71,6.71h.03v-6.71h1.57v11.2h-1.81l-2.11-8.18h-.03v8.18h-1.57v-11.2Z"/>
      <path class="cls-1" d="M74.95,66.45v-5.89c0-1.79,.9-2.82,2.62-2.82s2.62,1.02,2.62,2.82v.96h-1.67v-1.07c0-.8-.35-1.1-.91-1.1s-.91,.3-.91,1.1v6.13c0,.8,.35,1.09,.91,1.09s.91-.29,.91-1.09v-2.19h-.88v-1.6h2.54v3.67c0,1.79-.9,2.82-2.62,2.82s-2.62-1.02-2.62-2.82Z"/>
      <path class="cls-1" d="M84.56,66.45v-5.89c0-1.79,.9-2.82,2.62-2.82s2.62,1.02,2.62,2.82v.96h-1.67v-1.07c0-.8-.35-1.1-.91-1.1s-.91,.3-.91,1.1v6.13c0,.8,.35,1.09,.91,1.09s.91-.29,.91-1.09v-2.19h-.88v-1.6h2.54v3.67c0,1.79-.9,2.82-2.62,2.82s-2.62-1.02-2.62-2.82Z"/>
      <path class="cls-1" d="M91.35,57.91h2.61c1.82,0,2.61,.85,2.61,2.58v.69c0,1.15-.37,1.89-1.15,2.21v.03c.88,.27,1.17,1.1,1.17,2.37v1.97c0,.54,.02,.94,.19,1.36h-1.79c-.1-.29-.16-.46-.16-1.38v-2.05c0-1.04-.3-1.38-1.1-1.38h-.61v4.8h-1.76v-11.2Zm2.4,4.8c.66,0,1.06-.29,1.06-1.18v-.86c0-.8-.27-1.15-.9-1.15h-.8v3.2h.64Z"/>
      <path class="cls-1" d="M98.07,66.45v-5.89c0-1.79,.94-2.82,2.67-2.82s2.67,1.02,2.67,2.82v5.89c0,1.79-.94,2.82-2.67,2.82s-2.67-1.02-2.67-2.82Zm3.58,.11v-6.11c0-.8-.35-1.1-.91-1.1s-.91,.3-.91,1.1v6.11c0,.8,.35,1.1,.91,1.1s.91-.3,.91-1.1Z"/>
      <path class="cls-1" d="M104.58,57.91h1.7l.78,8.61h.03l.83-8.61h1.92l.83,8.61h.03l.79-8.61h1.52l-1.14,11.2h-2.19l-.8-7.56h-.03l-.8,7.56h-2.34l-1.14-11.2Z"/>
      <path class="cls-1" d="M115.75,59.51h-1.84v-1.6h5.44v1.6h-1.84v9.6h-1.76v-9.6Z"/>
      <path class="cls-1" d="M120.59,57.91h1.76v4.56h1.89v-4.56h1.76v11.2h-1.76v-5.04h-1.89v5.04h-1.76v-11.2Z"/>
      <path class="cls-1" d="M130.67,57.91h1.76v11.2h-1.76v-11.2Z"/>
      <path class="cls-1" d="M134.14,57.91h2.21l1.71,6.71h.03v-6.71h1.57v11.2h-1.81l-2.11-8.18h-.03v8.18h-1.57v-11.2Z"/>
      <path class="cls-1" d="M144.3,67.89c0-1.6,.45-2.58,1.76-3.95,1.34-1.42,1.73-2.27,1.73-3.31s-.35-1.28-.91-1.28-.91,.3-.91,1.1v1.2h-1.67v-1.09c0-1.79,.9-2.82,2.62-2.82s2.62,1.02,2.62,2.82c0,1.33-.54,2.51-2.18,4.24-1.06,1.12-1.33,1.68-1.33,2.46v.24h3.34v1.6h-5.09v-1.22Z"/>
      <path class="cls-1" d="M151.01,66.45v-5.89c0-1.79,.94-2.82,2.67-2.82s2.67,1.02,2.67,2.82v5.89c0,1.79-.94,2.82-2.67,2.82s-2.67-1.02-2.67-2.82Zm3.58,.11v-6.11c0-.8-.35-1.1-.91-1.1s-.91,.3-.91,1.1v6.11c0,.8,.35,1.1,.91,1.1s.91-.3,.91-1.1Z"/>
      <path class="cls-1" d="M157.9,67.89c0-1.6,.45-2.58,1.76-3.95,1.34-1.42,1.73-2.27,1.73-3.31s-.35-1.28-.91-1.28-.91,.3-.91,1.1v1.2h-1.67v-1.09c0-1.79,.9-2.82,2.62-2.82s2.62,1.02,2.62,2.82c0,1.33-.54,2.51-2.18,4.24-1.06,1.12-1.33,1.68-1.33,2.46v.24h3.34v1.6h-5.09v-1.22Z"/>
      <path class="cls-1" d="M164.7,67.89c0-1.6,.45-2.58,1.76-3.95,1.34-1.42,1.73-2.27,1.73-3.31s-.35-1.28-.91-1.28-.91,.3-.91,1.1v1.2h-1.67v-1.09c0-1.79,.9-2.82,2.62-2.82s2.62,1.02,2.62,2.82c0,1.33-.54,2.51-2.18,4.24-1.06,1.12-1.33,1.68-1.33,2.46v.24h3.34v1.6h-5.09v-1.22Z"/>
    </g>
    <line class="cls-6" x1="100.22" y1="13.59" x2="89.15" y2="13.59"/>
    <line class="cls-6" x1="100.22" y1="23.9" x2="89.15" y2="23.9"/>
    <g>
      <path class="cls-9" d="M46.39,111.6v-.48h1.25v.58c0,.6,.26,.82,.68,.82s.68-.22,.68-.84c0-.7-.26-1.14-1.13-1.9-1.1-.97-1.46-1.66-1.46-2.61,0-1.32,.68-2.09,1.97-2.09s1.92,.77,1.92,2.11v.35h-1.25v-.43c0-.6-.24-.83-.66-.83s-.66,.23-.66,.8c0,.61,.28,1.06,1.14,1.81,1.1,.97,1.45,1.64,1.45,2.69,0,1.37-.7,2.14-1.99,2.14s-1.94-.77-1.94-2.11Z"/>
      <path class="cls-9" d="M51.08,105.2h1.32v3.42h1.42v-3.42h1.32v8.4h-1.32v-3.78h-1.42v3.78h-1.32v-8.4Z"/>
      <path class="cls-9" d="M57.14,105.2h1.79l1.37,8.4h-1.32l-.24-1.67v.02h-1.5l-.24,1.64h-1.22l1.37-8.4Zm1.44,5.61l-.59-4.15h-.02l-.58,4.15h1.19Z"/>
      <path class="cls-9" d="M60.94,105.2h1.95c1.37,0,1.96,.64,1.96,1.93v.52c0,.86-.28,1.42-.86,1.66v.02c.66,.2,.88,.83,.88,1.77v1.48c0,.41,.01,.71,.14,1.02h-1.34c-.07-.22-.12-.35-.12-1.03v-1.54c0-.78-.23-1.03-.83-1.03h-.46v3.6h-1.32v-8.4Zm1.8,3.6c.49,0,.79-.22,.79-.89v-.65c0-.6-.2-.86-.67-.86h-.6v2.4h.48Z"/>
      <path class="cls-9" d="M65.77,105.2h3.6v1.2h-2.28v2.22h1.81v1.2h-1.81v2.58h2.28v1.2h-3.6v-8.4Z"/>
      <path class="cls-9" d="M72.05,105.2h1.32v8.4h-1.32v-8.4Z"/>
      <path class="cls-9" d="M74.35,105.2h1.65l1.28,5.03h.02v-5.03h1.18v8.4h-1.36l-1.58-6.13h-.02v6.13h-1.17v-8.4Z"/>
      <path class="cls-9" d="M82.43,106.4h-1.38v-1.2h4.08v1.2h-1.38v7.2h-1.32v-7.2Z"/>
      <path class="cls-9" d="M85.62,111.6v-4.41c0-1.34,.71-2.11,2-2.11s2,.77,2,2.11v4.41c0,1.34-.71,2.11-2,2.11s-2-.77-2-2.11Zm2.69,.08v-4.58c0-.6-.26-.83-.68-.83s-.68,.23-.68,.83v4.58c0,.6,.26,.83,.68,.83s.68-.23,.68-.83Z"/>
      <path class="cls-9" d="M91.5,106.4h-1.38v-1.2h4.08v1.2h-1.38v7.2h-1.32v-7.2Z"/>
      <path class="cls-9" d="M95.3,105.2h1.79l1.37,8.4h-1.32l-.24-1.67v.02h-1.5l-.24,1.64h-1.22l1.37-8.4Zm1.44,5.61l-.59-4.15h-.02l-.58,4.15h1.19Z"/>
      <path class="cls-9" d="M99.09,105.2h1.32v7.2h2.17v1.2h-3.49v-8.4Z"/>
      <path class="cls-9" d="M105.14,105.2h1.88l.84,6.01h.02l.84-6.01h1.88v8.4h-1.25v-6.36h-.02l-.96,6.36h-1.1l-.96-6.36h-.02v6.36h-1.15v-8.4Z"/>
      <path class="cls-9" d="M112.62,105.2h1.79l1.37,8.4h-1.32l-.24-1.67v.02h-1.5l-.24,1.64h-1.22l1.37-8.4Zm1.44,5.61l-.59-4.15h-.02l-.58,4.15h1.19Z"/>
      <path class="cls-9" d="M116.41,105.2h1.65l1.28,5.03h.02v-5.03h1.18v8.4h-1.36l-1.58-6.13h-.02v6.13h-1.17v-8.4Z"/>
      <path class="cls-9" d="M121.49,111.6v-6.4h1.32v6.5c0,.6,.25,.82,.67,.82s.67-.22,.67-.82v-6.5h1.27v6.4c0,1.34-.67,2.11-1.97,2.11s-1.97-.77-1.97-2.11Z"/>
      <path class="cls-9" d="M126.36,105.2h3.49v1.2h-2.17v2.34h1.7v1.2h-1.7v3.66h-1.32v-8.4Z"/>
      <path class="cls-9" d="M131.12,105.2h1.79l1.37,8.4h-1.32l-.24-1.67v.02h-1.5l-.24,1.64h-1.22l1.37-8.4Zm1.44,5.61l-.59-4.15h-.02l-.58,4.15h1.19Z"/>
      <path class="cls-9" d="M134.81,111.65v-4.51c0-1.29,.67-2.06,1.94-2.06s1.94,.77,1.94,2.06v.89h-1.25v-.97c0-.55-.26-.78-.66-.78s-.66,.23-.66,.78v4.69c0,.55,.26,.77,.66,.77s.66-.22,.66-.77v-1.28h1.25v1.19c0,1.3-.67,2.06-1.94,2.06s-1.94-.77-1.94-2.06Z"/>
      <path class="cls-9" d="M140.52,106.4h-1.38v-1.2h4.08v1.2h-1.38v7.2h-1.32v-7.2Z"/>
      <path class="cls-9" d="M143.81,111.6v-6.4h1.32v6.5c0,.6,.25,.82,.67,.82s.67-.22,.67-.82v-6.5h1.27v6.4c0,1.34-.67,2.11-1.97,2.11s-1.97-.77-1.97-2.11Z"/>
      <path class="cls-9" d="M148.68,105.2h1.95c1.37,0,1.96,.64,1.96,1.93v.52c0,.86-.28,1.42-.86,1.66v.02c.66,.2,.88,.83,.88,1.77v1.48c0,.41,.01,.71,.14,1.02h-1.34c-.07-.22-.12-.35-.12-1.03v-1.54c0-.78-.23-1.03-.83-1.03h-.46v3.6h-1.32v-8.4Zm1.8,3.6c.49,0,.79-.22,.79-.89v-.65c0-.6-.2-.86-.67-.86h-.6v2.4h.48Z"/>
      <path class="cls-9" d="M153.51,105.2h1.32v8.4h-1.32v-8.4Z"/>
      <path class="cls-9" d="M155.82,105.2h1.65l1.28,5.03h.02v-5.03h1.18v8.4h-1.36l-1.58-6.13h-.02v6.13h-1.17v-8.4Z"/>
      <path class="cls-9" d="M160.84,111.6v-4.41c0-1.34,.67-2.11,1.97-2.11s1.97,.77,1.97,2.11v.72h-1.25v-.8c0-.6-.26-.83-.68-.83s-.68,.23-.68,.83v4.59c0,.6,.26,.82,.68,.82s.68-.22,.68-.82v-1.64h-.66v-1.2h1.91v2.75c0,1.34-.67,2.11-1.97,2.11s-1.97-.77-1.97-2.11Z"/>
    </g>
    <g>
      <line class="cls-4" x1="41.68" y1="109.51" x2="41.68" y2="109.51"/>
      <line class="cls-8" x1="38.86" y1="109.51" x2="14.84" y2="109.51"/>
      <line class="cls-4" x1="13.43" y1="109.51" x2="13.43" y2="109.51"/>
    </g>
    <g>
      <line class="cls-4" x1="196.81" y1="109.51" x2="196.81" y2="109.51"/>
      <line class="cls-8" x1="193.99" y1="109.51" x2="169.97" y2="109.51"/>
      <line class="cls-4" x1="168.56" y1="109.51" x2="168.56" y2="109.51"/>
    </g>
    <g>
      <g>
        <path class="cls-11" d="M139.69,234.03h2.4v.8h-1.52v1.48h1.21v.8h-1.21v1.72h1.52v.8h-2.4v-5.6Z"/>
        <path class="cls-11" d="M143.48,234.03h1.19l.91,5.6h-.88l-.16-1.11v.02h-1l-.16,1.1h-.82l.91-5.6Zm.96,3.74l-.39-2.77h-.02l-.38,2.77h.79Z"/>
        <path class="cls-11" d="M146.03,238.3v-.32h.83v.38c0,.4,.18,.54,.46,.54s.46-.14,.46-.56c0-.46-.18-.76-.75-1.26-.74-.65-.98-1.1-.98-1.74,0-.88,.46-1.39,1.31-1.39s1.28,.51,1.28,1.41v.23h-.83v-.29c0-.4-.16-.55-.44-.55s-.44,.15-.44,.54c0,.41,.18,.7,.76,1.21,.74,.65,.97,1.1,.97,1.79,0,.91-.46,1.42-1.33,1.42s-1.29-.51-1.29-1.41Z"/>
        <path class="cls-11" d="M150.05,234.83h-.92v-.8h2.72v.8h-.92v4.8h-.88v-4.8Z"/>
        <path class="cls-11" d="M152.47,234.03h2.4v.8h-1.52v1.48h1.21v.8h-1.21v1.72h1.52v.8h-2.4v-5.6Z"/>
        <path class="cls-11" d="M155.57,234.03h1.3c.91,0,1.3,.42,1.3,1.29v.34c0,.58-.18,.94-.58,1.1v.02c.44,.14,.58,.55,.58,1.18v.98c0,.27,0,.47,.1,.68h-.9c-.05-.14-.08-.23-.08-.69v-1.02c0-.52-.15-.69-.55-.69h-.3v2.4h-.88v-5.6Zm1.2,2.4c.33,0,.53-.14,.53-.59v-.43c0-.4-.14-.58-.45-.58h-.4v1.6h.32Z"/>
        <path class="cls-11" d="M159,234.03h1.1l.86,3.35h.02v-3.35h.78v5.6h-.9l-1.06-4.09h-.02v4.09h-.78v-5.6Z"/>
        <path class="cls-11" d="M145.98,242.03h1.19l.91,5.6h-.88l-.16-1.11v.02h-1l-.16,1.1h-.82l.91-5.6Zm.96,3.74l-.39-2.77h-.02l-.38,2.77h.79Z"/>
        <path class="cls-11" d="M148.53,246.3v-.32h.83v.38c0,.4,.18,.54,.46,.54s.46-.14,.46-.56c0-.46-.18-.76-.75-1.26-.74-.65-.97-1.1-.97-1.74,0-.88,.46-1.39,1.31-1.39s1.28,.51,1.28,1.41v.23h-.83v-.29c0-.4-.16-.55-.44-.55s-.44,.15-.44,.54c0,.41,.18,.7,.76,1.21,.74,.65,.97,1.1,.97,1.79,0,.91-.46,1.42-1.33,1.42s-1.3-.51-1.3-1.41Z"/>
        <path class="cls-11" d="M151.86,242.03h.88v5.6h-.88v-5.6Z"/>
        <path class="cls-11" d="M154.28,242.03h1.19l.91,5.6h-.88l-.16-1.11v.02h-1l-.16,1.1h-.82l.91-5.6Zm.96,3.74l-.39-2.77h-.02l-.38,2.77h.79Z"/>
      </g>
      <rect class="cls-11" x="135.65" y="141.12" width="29.83" height="86.47"/>
    </g>
    <g>
      <g>
        <path class="cls-11" d="M52.97,238.3v-.32h.83v.38c0,.4,.18,.54,.46,.54s.46-.14,.46-.56c0-.46-.18-.76-.75-1.26-.74-.65-.98-1.1-.98-1.74,0-.88,.46-1.39,1.31-1.39s1.28,.51,1.28,1.41v.23h-.83v-.29c0-.4-.16-.55-.44-.55s-.44,.15-.44,.54c0,.41,.18,.7,.76,1.21,.74,.65,.97,1.1,.97,1.79,0,.91-.46,1.42-1.33,1.42s-1.29-.51-1.29-1.41Z"/>
        <path class="cls-11" d="M56.26,238.3v-4.27h.88v4.33c0,.4,.17,.54,.45,.54s.45-.14,.45-.54v-4.33h.85v4.27c0,.9-.45,1.41-1.31,1.41s-1.31-.51-1.31-1.41Z"/>
        <path class="cls-11" d="M59.71,234.03h1.33c.91,0,1.3,.42,1.3,1.29v.22c0,.58-.18,.94-.57,1.1v.02c.47,.16,.66,.58,.66,1.17v.48c0,.86-.46,1.33-1.33,1.33h-1.38v-5.6Zm1.22,2.28c.33,0,.53-.14,.53-.59v-.31c0-.4-.14-.58-.45-.58h-.42v1.48h.34Zm.16,2.52c.3,0,.46-.14,.46-.55v-.49c0-.52-.17-.68-.57-.68h-.39v1.72h.5Z"/>
        <path class="cls-11" d="M63.02,236.43h1.76v.8h-1.76v-.8Z"/>
        <path class="cls-11" d="M47.17,246.3v-.32h.83v.38c0,.4,.18,.54,.46,.54s.46-.14,.46-.56c0-.46-.18-.76-.75-1.26-.74-.65-.97-1.1-.97-1.74,0-.88,.46-1.39,1.31-1.39s1.28,.51,1.28,1.41v.23h-.83v-.29c0-.4-.16-.55-.44-.55s-.44,.15-.44,.54c0,.41,.18,.7,.76,1.21,.74,.65,.97,1.1,.97,1.79,0,.91-.46,1.42-1.33,1.42s-1.3-.51-1.3-1.41Z"/>
        <path class="cls-11" d="M51.16,242.03h1.19l.91,5.6h-.88l-.16-1.11v.02h-1l-.16,1.1h-.82l.91-5.6Zm.96,3.74l-.39-2.77h-.02l-.38,2.77h.79Z"/>
        <path class="cls-11" d="M53.88,242.03h.88v2.28h.94v-2.28h.88v5.6h-.88v-2.52h-.94v2.52h-.88v-5.6Z"/>
        <path class="cls-11" d="M58.12,242.03h1.19l.91,5.6h-.88l-.16-1.11v.02h-1l-.16,1.1h-.82l.91-5.6Zm.96,3.74l-.39-2.77h-.02l-.38,2.77h.79Z"/>
        <path class="cls-11" d="M60.85,242.03h1.3c.91,0,1.3,.42,1.3,1.29v.34c0,.58-.18,.94-.58,1.1v.02c.44,.14,.58,.55,.58,1.18v.98c0,.27,0,.47,.1,.68h-.9c-.05-.14-.08-.23-.08-.69v-1.02c0-.52-.15-.69-.55-.69h-.3v2.4h-.88v-5.6Zm1.2,2.4c.33,0,.53-.14,.53-.59v-.43c0-.4-.14-.58-.45-.58h-.4v1.6h.32Z"/>
        <path class="cls-11" d="M64.96,242.03h1.19l.91,5.6h-.88l-.16-1.11v.02h-1l-.16,1.1h-.82l.91-5.6Zm.96,3.74l-.39-2.77h-.02l-.38,2.77h.79Z"/>
        <path class="cls-11" d="M67.68,242.03h1.1l.86,3.35h.02v-3.35h.78v5.6h-.9l-1.06-4.09h-.02v4.09h-.78v-5.6Z"/>
        <path class="cls-11" d="M50.9,250.03h1.19l.91,5.6h-.88l-.16-1.11v.02h-1l-.16,1.1h-.82l.91-5.6Zm.96,3.74l-.39-2.77h-.02l-.38,2.77h.79Z"/>
        <path class="cls-11" d="M53.62,250.03h2.33v.8h-1.45v1.56h1.14v.8h-1.14v2.44h-.88v-5.6Z"/>
        <path class="cls-11" d="M56.58,250.03h1.3c.91,0,1.3,.42,1.3,1.29v.34c0,.58-.18,.94-.58,1.1v.02c.44,.14,.58,.55,.58,1.18v.98c0,.27,0,.47,.1,.68h-.9c-.05-.14-.08-.23-.08-.69v-1.02c0-.52-.15-.69-.55-.69h-.3v2.4h-.88v-5.6Zm1.2,2.4c.33,0,.53-.14,.53-.59v-.43c0-.4-.14-.58-.45-.58h-.4v1.6h.32Z"/>
        <path class="cls-11" d="M60,250.03h.88v5.6h-.88v-5.6Z"/>
        <path class="cls-11" d="M61.68,254.33v-3.01c0-.86,.45-1.38,1.3-1.38s1.29,.51,1.29,1.38v.59h-.83v-.65c0-.37-.18-.52-.44-.52s-.44,.15-.44,.52v3.13c0,.37,.18,.51,.44,.51s.44-.14,.44-.51v-.86h.83v.79c0,.86-.45,1.38-1.29,1.38s-1.3-.51-1.3-1.38Z"/>
        <path class="cls-11" d="M65.68,250.03h1.19l.91,5.6h-.88l-.16-1.11v.02h-1l-.16,1.1h-.82l.91-5.6Zm.96,3.74l-.39-2.77h-.02l-.38,2.77h.79Z"/>
      </g>
      <rect class="cls-3" x="43.78" y="180.68" width="29.83" height="46.91"/>
    </g>
    <g>
      <g>
        <path class="cls-11" d="M89.7,234.03h2.4v.8h-1.52v1.48h1.21v.8h-1.21v1.72h1.52v.8h-2.4v-5.6Z"/>
        <path class="cls-11" d="M92.77,238.3v-4.27h.88v4.33c0,.4,.17,.54,.45,.54s.45-.14,.45-.54v-4.33h.85v4.27c0,.9-.45,1.41-1.31,1.41s-1.31-.51-1.31-1.41Z"/>
        <path class="cls-11" d="M96.22,234.03h1.3c.91,0,1.3,.42,1.3,1.29v.34c0,.58-.18,.94-.58,1.1v.02c.44,.14,.58,.55,.58,1.18v.98c0,.27,0,.47,.1,.68h-.9c-.05-.14-.08-.23-.08-.69v-1.02c0-.52-.15-.69-.55-.69h-.3v2.4h-.88v-5.6Zm1.2,2.4c.33,0,.53-.14,.53-.59v-.43c0-.4-.14-.58-.45-.58h-.4v1.6h.32Z"/>
        <path class="cls-11" d="M99.58,238.3v-2.94c0-.9,.47-1.41,1.34-1.41s1.33,.51,1.33,1.41v2.94c0,.9-.47,1.41-1.33,1.41s-1.34-.51-1.34-1.41Zm1.79,.06v-3.05c0-.4-.18-.55-.46-.55s-.46,.15-.46,.55v3.05c0,.4,.18,.55,.46,.55s.46-.15,.46-.55Z"/>
        <path class="cls-11" d="M103.04,234.03h1.29c.88,0,1.31,.49,1.31,1.38v.55c0,.9-.43,1.38-1.31,1.38h-.42v2.28h-.88v-5.6Zm1.29,2.52c.28,0,.43-.13,.43-.53v-.66c0-.4-.15-.53-.43-.53h-.42v1.72h.42Z"/>
        <path class="cls-11" d="M106.33,234.03h2.4v.8h-1.52v1.48h1.21v.8h-1.21v1.72h1.52v.8h-2.4v-5.6Z"/>
        <path class="cls-11" d="M111.59,234.03h1.19l.91,5.6h-.88l-.16-1.11v.02h-1l-.16,1.1h-.82l.91-5.6Zm.96,3.74l-.39-2.77h-.02l-.38,2.77h.79Z"/>
        <path class="cls-11" d="M114.32,234.03h1.1l.86,3.35h.02v-3.35h.78v5.6h-.9l-1.06-4.09h-.02v4.09h-.78v-5.6Z"/>
        <path class="cls-11" d="M117.94,234.03h1.34c.88,0,1.31,.49,1.31,1.38v2.83c0,.9-.43,1.38-1.31,1.38h-1.34v-5.6Zm1.33,4.8c.28,0,.45-.14,.45-.54v-2.91c0-.4-.17-.54-.45-.54h-.45v4h.45Z"/>
        <path class="cls-11" d="M91.92,242.03h1.1l.86,3.35h.02v-3.35h.78v5.6h-.9l-1.06-4.09h-.02v4.09h-.78v-5.6Z"/>
        <path class="cls-11" d="M95.47,246.3v-2.94c0-.9,.47-1.41,1.33-1.41s1.34,.51,1.34,1.41v2.94c0,.9-.47,1.41-1.34,1.41s-1.33-.51-1.33-1.41Zm1.79,.06v-3.05c0-.4-.18-.55-.46-.55s-.46,.15-.46,.55v3.05c0,.4,.18,.55,.46,.55s.46-.15,.46-.55Z"/>
        <path class="cls-11" d="M98.94,242.03h1.3c.91,0,1.3,.42,1.3,1.29v.34c0,.58-.18,.94-.58,1.1v.02c.44,.14,.58,.55,.58,1.18v.98c0,.27,0,.47,.1,.68h-.9c-.05-.14-.08-.23-.08-.69v-1.02c0-.52-.15-.69-.55-.69h-.3v2.4h-.88v-5.6Zm1.2,2.4c.33,0,.53-.14,.53-.59v-.43c0-.4-.14-.58-.45-.58h-.4v1.6h.32Z"/>
        <path class="cls-11" d="M103.03,242.83h-.92v-.8h2.72v.8h-.92v4.8h-.88v-4.8Z"/>
        <path class="cls-11" d="M105.46,242.03h.88v2.28h.94v-2.28h.88v5.6h-.88v-2.52h-.94v2.52h-.88v-5.6Z"/>
        <path class="cls-11" d="M109.02,242.03h2.4v.8h-1.52v1.48h1.21v.8h-1.21v1.72h1.52v.8h-2.4v-5.6Z"/>
        <path class="cls-11" d="M112.12,242.03h1.3c.91,0,1.3,.42,1.3,1.29v.34c0,.58-.18,.94-.58,1.1v.02c.44,.14,.58,.55,.58,1.18v.98c0,.27,0,.47,.1,.68h-.9c-.05-.14-.08-.23-.08-.69v-1.02c0-.52-.15-.69-.55-.69h-.3v2.4h-.88v-5.6Zm1.2,2.4c.33,0,.53-.14,.53-.59v-.43c0-.4-.14-.58-.45-.58h-.4v1.6h.32Z"/>
        <path class="cls-11" d="M115.54,242.03h1.1l.86,3.35h.02v-3.35h.78v5.6h-.9l-1.06-4.09h-.02v4.09h-.78v-5.6Z"/>
        <path class="cls-11" d="M94.79,250.03h1.19l.91,5.6h-.88l-.16-1.11v.02h-1l-.16,1.1h-.82l.91-5.6Zm.96,3.74l-.39-2.77h-.02l-.38,2.77h.79Z"/>
        <path class="cls-11" d="M97.52,250.03h1.25l.56,4.01h.02l.56-4.01h1.25v5.6h-.83v-4.24h-.02l-.64,4.24h-.74l-.64-4.24h-.02v4.24h-.77v-5.6Z"/>
        <path class="cls-11" d="M102.03,250.03h2.4v.8h-1.52v1.48h1.21v.8h-1.21v1.72h1.52v.8h-2.4v-5.6Z"/>
        <path class="cls-11" d="M105.13,250.03h1.3c.91,0,1.3,.42,1.3,1.29v.34c0,.58-.18,.94-.58,1.1v.02c.44,.14,.58,.55,.58,1.18v.98c0,.27,0,.47,.1,.68h-.9c-.05-.14-.08-.23-.08-.69v-1.02c0-.52-.15-.69-.55-.69h-.3v2.4h-.88v-5.6Zm1.2,2.4c.33,0,.53-.14,.53-.59v-.43c0-.4-.14-.58-.45-.58h-.4v1.6h.32Z"/>
        <path class="cls-11" d="M108.55,250.03h.88v5.6h-.88v-5.6Z"/>
        <path class="cls-11" d="M110.23,254.33v-3.01c0-.86,.45-1.38,1.3-1.38s1.29,.51,1.29,1.38v.59h-.83v-.65c0-.37-.18-.52-.44-.52s-.44,.15-.44,.52v3.13c0,.37,.18,.51,.44,.51s.44-.14,.44-.51v-.86h.83v.79c0,.86-.45,1.38-1.29,1.38s-1.3-.51-1.3-1.38Z"/>
        <path class="cls-11" d="M114.23,250.03h1.19l.91,5.6h-.88l-.16-1.11v.02h-1l-.16,1.1h-.82l.91-5.6Zm.96,3.74l-.39-2.77h-.02l-.38,2.77h.79Z"/>
      </g>
      <polygon class="cls-9" points="90.11 124.47 119.94 124.47 119.94 227.59 90.11 227.59 90.11 124.47 90.11 124.47"/>
    </g>
    <line class="cls-7" x1=".07" y1="228" x2="210.38" y2="228"/>
    <g>
      <path class="cls-1" d="M141.25,153.02h-2.62v-1.25l2.49-5.9h1.5v5.9h.65v1.25h-.65v1.58h-1.37v-1.58Zm0-1.25v-3.4h-.02l-1.35,3.4h1.37Z"/>
      <path class="cls-1" d="M146.62,147.12h-2.77v-1.25h4.11v1.2l-2.14,7.53h-1.4l2.19-7.48Z"/>
      <path class="cls-1" d="M148.92,153.28h1.32v1.32h-1.32v-1.32Z"/>
      <path class="cls-1" d="M153.19,147.94h-1.43v-.97c1.16,0,1.57-.25,1.88-1.1h.92v8.73h-1.37v-6.66Z"/>
      <path class="cls-1" d="M156.18,149.33v-2.18c0-.9,.46-1.4,1.32-1.4s1.32,.5,1.32,1.4v2.18c0,.9-.46,1.4-1.32,1.4s-1.32-.5-1.32-1.4Zm1.77,.06v-2.31c0-.39-.17-.55-.45-.55s-.45,.16-.45,.55v2.31c0,.39,.16,.55,.45,.55s.45-.16,.45-.55Zm2.72-3.52h.87l-3.38,8.73h-.87l3.38-8.73Zm-.66,7.46v-2.18c0-.9,.46-1.4,1.32-1.4s1.32,.5,1.32,1.4v2.18c0,.9-.46,1.4-1.32,1.4s-1.32-.5-1.32-1.4Zm1.77,.06v-2.31c0-.39-.17-.55-.45-.55s-.45,.16-.45,.55v2.31c0,.39,.16,.55,.45,.55s.45-.16,.45-.55Z"/>
    </g>
    <g>
      <path class="cls-1" d="M96.24,136.22h-2.62v-1.25l2.49-5.9h1.5v5.9h.65v1.25h-.65v1.58h-1.37v-1.58Zm0-1.25v-3.4h-.02l-1.35,3.4h1.37Z"/>
      <path class="cls-1" d="M101.61,130.32h-2.77v-1.25h4.11v1.2l-2.14,7.53h-1.4l2.19-7.48Z"/>
      <path class="cls-1" d="M103.92,136.48h1.32v1.32h-1.32v-1.32Z"/>
      <path class="cls-1" d="M108.94,130.32h-2.77v-1.25h4.11v1.2l-2.14,7.53h-1.4l2.19-7.48Z"/>
      <path class="cls-1" d="M111.17,132.53v-2.18c0-.9,.46-1.4,1.32-1.4s1.32,.5,1.32,1.4v2.18c0,.9-.46,1.4-1.32,1.4s-1.32-.5-1.32-1.4Zm1.77,.06v-2.31c0-.39-.17-.55-.45-.55s-.45,.16-.45,.55v2.31c0,.39,.16,.55,.45,.55s.45-.16,.45-.55Zm2.72-3.52h.87l-3.38,8.73h-.87l3.38-8.73Zm-.66,7.46v-2.18c0-.9,.46-1.4,1.32-1.4s1.32,.5,1.32,1.4v2.18c0,.9-.46,1.4-1.32,1.4s-1.32-.5-1.32-1.4Zm1.77,.06v-2.31c0-.39-.17-.55-.45-.55s-.45,.16-.45,.55v2.31c0,.39,.16,.55,.45,.55s.45-.16,.45-.55Z"/>
    </g>
    <g>
      <path class="cls-11" d="M46.84,193.6c0-1.25,.35-2.01,1.37-3.08,1.05-1.11,1.35-1.77,1.35-2.58s-.27-1-.71-1-.71,.24-.71,.86v.93h-1.3v-.85c0-1.4,.7-2.19,2.04-2.19s2.04,.8,2.04,2.19c0,1.03-.42,1.96-1.7,3.3-.82,.87-1.04,1.31-1.04,1.92v.19h2.61v1.25h-3.96v-.95Z"/>
      <path class="cls-11" d="M53.77,187.89h-1.43v-.97c1.16,0,1.57-.25,1.88-1.1h.92v8.73h-1.37v-6.66Z"/>
      <path class="cls-11" d="M56.84,193.23h1.32v1.32h-1.32v-1.32Z"/>
      <path class="cls-11" d="M61.86,187.07h-2.77v-1.25h4.11v1.2l-2.14,7.53h-1.4l2.19-7.48Z"/>
      <path class="cls-11" d="M64.09,189.27v-2.18c0-.9,.46-1.4,1.32-1.4s1.32,.5,1.32,1.4v2.18c0,.9-.46,1.4-1.32,1.4s-1.32-.5-1.32-1.4Zm1.77,.06v-2.31c0-.39-.17-.55-.45-.55s-.45,.16-.45,.55v2.31c0,.39,.16,.55,.45,.55s.45-.16,.45-.55Zm2.72-3.52h.87l-3.38,8.73h-.87l3.38-8.73Zm-.66,7.46v-2.18c0-.9,.46-1.4,1.32-1.4s1.32,.5,1.32,1.4v2.18c0,.9-.46,1.4-1.32,1.4s-1.32-.5-1.32-1.4Zm1.77,.06v-2.31c0-.39-.17-.55-.45-.55s-.45,.16-.45,.55v2.31c0,.39,.16,.55,.45,.55s.45-.16,.45-.55Z"/>
    </g>
    <g>
      <g>
        <path class="cls-2" d="M49.96,84.65h1.47c1.01,0,1.45,.48,1.45,1.45v.25c0,.65-.2,1.05-.63,1.23v.02c.52,.18,.73,.65,.73,1.31v.54c0,.97-.51,1.49-1.48,1.49h-1.54v-6.3Zm1.36,2.57c.36,0,.59-.16,.59-.67v-.35c0-.45-.15-.65-.5-.65h-.47v1.67h.38Zm.18,2.84c.33,0,.51-.15,.51-.62v-.55c0-.58-.19-.77-.63-.77h-.44v1.94h.56Z"/>
        <path class="cls-2" d="M53.74,89.46v-4.81h.98v4.88c0,.45,.19,.61,.5,.61s.5-.16,.5-.61v-4.88h.94v4.81c0,1.01-.5,1.58-1.46,1.58s-1.46-.58-1.46-1.58Z"/>
        <path class="cls-2" d="M58.33,85.55h-1.02v-.9h3.02v.9h-1.02v5.4h-.98v-5.4Z"/>
      </g>
      <line class="cls-6" x1="60.33" y1="82.5" x2="49.95" y2="82.5"/>
      <line class="cls-6" x1="60.33" y1="92.81" x2="49.95" y2="92.81"/>
    </g>
  </g>
</svg>