<?xml version="1.0" encoding="UTF-8"?>
<svg id="Layer_2" data-name="Layer 2" xmlns="http://www.w3.org/2000/svg" xmlns:xlink="http://www.w3.org/1999/xlink" viewBox="0 0 517 79.19">
  <defs>
    <style>
      .cls-1 {
        fill: #bdbcbb;
      }

      .cls-2 {
        fill: #939598;
      }

      .cls-3 {
        fill: #fedec7;
      }

      .cls-4 {
        stroke: #939598;
        stroke-width: 1.5px;
      }

      .cls-4, .cls-5 {
        stroke-miterlimit: 10;
      }

      .cls-4, .cls-5, .cls-6, .cls-7, .cls-8, .cls-9 {
        fill: none;
      }

      .cls-5 {
        stroke: #fff8f5;
        stroke-width: .43px;
      }

      .cls-6, .cls-7, .cls-9 {
        stroke: #a64324;
      }

      .cls-10 {
        fill: #fab284;
      }

      .cls-7, .cls-9 {
        stroke-linecap: round;
        stroke-linejoin: round;
        stroke-width: 1.75px;
      }

      .cls-11 {
        fill: #f36e24;
      }

      .cls-12 {
        clip-path: url(#clippath-1);
      }

      .cls-13 {
        clip-path: url(#clippath);
      }

      .cls-14 {
        fill: #a64324;
      }

      .cls-9 {
        stroke-dasharray: 0 0 0 2.9;
      }
    </style>
    <clipPath id="clippath">
      <path class="cls-8" d="M87.52,27.88c4.37,6.88,6.69,14.86,6.69,23.02h-21.48c0-4.08-1.16-8.07-3.34-11.51l18.13-11.51Z"/>
    </clipPath>
    <clipPath id="clippath-1">
      <path class="cls-8" d="M185,14.59c12.41,7.87,19.92,21.55,19.92,36.24h-21.46c0-7.35-3.76-14.18-9.96-18.12l11.5-18.12Z"/>
    </clipPath>
  </defs>
  <g id="Layer_2-2" data-name="Layer 2">
    <g>
      <g>
        <line class="cls-7" x1="228.75" y1="55.22" x2="228.75" y2="55.22"/>
        <line class="cls-9" x1="231.66" y1="55.22" x2="514.68" y2="55.22"/>
        <line class="cls-7" x1="516.13" y1="55.22" x2="516.13" y2="55.22"/>
      </g>
      <line class="cls-4" x1="273.94" y1="12.69" x2="305.24" y2="12.69"/>
      <line class="cls-4" x1="273.94" y1="29.48" x2="305.24" y2="29.48"/>
      <g>
        <path class="cls-11" d="M228.18,26v-.34h2.7v.52c0,1.3,.57,1.79,1.48,1.79,1.01,0,1.59-.49,1.59-2.24v-3.48h-.05c-.49,1.04-1.33,1.59-2.6,1.59-2.11,0-3.17-1.48-3.17-4.16v-3.25c0-2.91,1.53-4.58,4.34-4.58s4.34,1.66,4.34,4.58v9.41c0,3.07-1.4,4.73-4.37,4.73-2.81,0-4.26-1.66-4.26-4.58Zm5.77-6.55v-3.22c0-1.2-.49-1.77-1.48-1.77s-1.48,.57-1.48,1.77v3.22c0,1.22,.49,1.79,1.48,1.79s1.48-.57,1.48-1.79Z"/>
        <path class="cls-11" d="M239.26,26v-1.43h2.7v1.64c0,1.3,.57,1.77,1.48,1.77s1.48-.47,1.48-1.77v-4.08c0-1.3-.57-1.79-1.48-1.79s-1.48,.49-1.48,1.79v.16h-2.7l.52-10.17h7.54v2.6h-4.99l-.23,4.34h.05c.52-.86,1.33-1.33,2.47-1.33,2.11,0,3.17,1.48,3.17,4.16v4.11c0,2.91-1.46,4.58-4.26,4.58s-4.26-1.66-4.26-4.58Z"/>
        <path class="cls-11" d="M250.1,19.32v-4.55c0-1.87,.96-2.91,2.76-2.91s2.76,1.04,2.76,2.91v4.55c0,1.87-.96,2.91-2.76,2.91s-2.76-1.04-2.76-2.91Zm3.69,.13v-4.81c0-.81-.36-1.14-.94-1.14s-.94,.34-.94,1.14v4.81c0,.81,.34,1.14,.94,1.14s.94-.34,.94-1.14Zm5.67-7.33h1.82l-7.05,18.2h-1.82l7.05-18.2Zm-1.38,15.55v-4.55c0-1.87,.96-2.91,2.76-2.91s2.76,1.04,2.76,2.91v4.55c0,1.87-.96,2.91-2.76,2.91s-2.76-1.04-2.76-2.91Zm3.69,.13v-4.81c0-.81-.36-1.14-.94-1.14s-.94,.34-.94,1.14v4.81c0,.81,.34,1.14,.94,1.14s.94-.34,.94-1.14Z"/>
        <path class="cls-2" d="M273.22,23.83v-5.52c0-1.68,.88-2.64,2.5-2.64s2.5,.96,2.5,2.64v5.52c0,1.68-.88,2.64-2.5,2.64s-2.5-.96-2.5-2.64Zm3.36,.1v-5.73c0-.75-.33-1.03-.85-1.03s-.86,.28-.86,1.03v5.73c0,.75,.33,1.03,.86,1.03s.85-.28,.85-1.03Z"/>
        <path class="cls-2" d="M279.64,15.82h4.36v1.5h-2.71v2.92h2.13v1.5h-2.13v4.57h-1.65V15.82Z"/>
        <path class="cls-2" d="M289.09,17.32h-1.73v-1.5h5.1v1.5h-1.73v9h-1.65v-9Z"/>
        <path class="cls-2" d="M293.56,15.82h1.65v4.27h1.77v-4.27h1.65v10.5h-1.65v-4.72h-1.77v4.72h-1.65V15.82Z"/>
        <path class="cls-2" d="M300.16,15.82h4.5v1.5h-2.85v2.77h2.27v1.5h-2.27v3.22h2.85v1.5h-4.5V15.82Z"/>
        <path class="cls-2" d="M314.47,12.12h2.76l1.27,13.99h.05l1.35-13.99h3.12l1.35,13.99h.05l1.27-13.99h2.47l-1.85,18.2h-3.56l-1.3-12.27h-.05l-1.3,12.27h-3.8l-1.85-18.2Z"/>
        <path class="cls-2" d="M329.95,26v-9.57c0-2.91,1.53-4.58,4.34-4.58s4.34,1.66,4.34,4.58v9.57c0,2.91-1.53,4.58-4.34,4.58s-4.34-1.66-4.34-4.58Zm5.82,.18v-9.93c0-1.3-.57-1.79-1.48-1.79s-1.48,.49-1.48,1.79v9.93c0,1.3,.57,1.79,1.48,1.79s1.48-.49,1.48-1.79Z"/>
        <path class="cls-2" d="M341.07,12.12h4.24c2.96,0,4.24,1.38,4.24,4.19v1.12c0,1.87-.6,3.07-1.87,3.59v.05c1.43,.44,1.9,1.79,1.9,3.85v3.2c0,.88,.03,1.53,.31,2.21h-2.91c-.16-.47-.26-.75-.26-2.24v-3.33c0-1.69-.49-2.24-1.79-2.24h-.99v7.8h-2.86V12.12Zm3.9,7.8c1.07,0,1.72-.47,1.72-1.92v-1.4c0-1.3-.44-1.87-1.46-1.87h-1.3v5.2h1.04Z"/>
        <path class="cls-2" d="M352.07,12.12h2.86v15.6h4.71v2.6h-7.57V12.12Z"/>
        <path class="cls-2" d="M361.53,12.12h4.37c2.86,0,4.26,1.59,4.26,4.5v9.2c0,2.91-1.4,4.5-4.26,4.5h-4.37V12.12Zm4.32,15.6c.91,0,1.46-.47,1.46-1.77v-9.46c0-1.3-.55-1.77-1.46-1.77h-1.46v13h1.46Z"/>
      </g>
      <g>
        <path class="cls-2" d="M228.04,63.3h1.99c1.37,0,1.96,.64,1.96,1.93v.34c0,.86-.26,1.4-.85,1.64v.02c.71,.24,.98,.86,.98,1.75v.72c0,1.29-.68,1.99-2,1.99h-2.07v-8.4Zm1.83,3.42c.49,0,.79-.22,.79-.89v-.47c0-.6-.2-.86-.67-.86h-.64v2.22h.52Zm.24,3.78c.44,0,.68-.2,.68-.83v-.73c0-.78-.25-1.02-.85-1.02h-.59v2.58h.76Z"/>
        <path class="cls-2" d="M233.08,69.71v-6.4h1.32v6.5c0,.6,.25,.82,.67,.82s.67-.22,.67-.82v-6.5h1.27v6.4c0,1.34-.67,2.11-1.97,2.11s-1.97-.77-1.97-2.11Z"/>
        <path class="cls-2" d="M239.23,64.5h-1.38v-1.2h4.08v1.2h-1.38v7.2h-1.32v-7.2Z"/>
        <path class="cls-2" d="M244.88,69.75v-4.51c0-1.29,.67-2.06,1.94-2.06s1.94,.77,1.94,2.06v.89h-1.25v-.97c0-.55-.26-.78-.66-.78s-.66,.23-.66,.78v4.69c0,.55,.26,.77,.66,.77s.66-.22,.66-.77v-1.28h1.25v1.19c0,1.3-.67,2.06-1.94,2.06s-1.94-.77-1.94-2.06Z"/>
        <path class="cls-2" d="M249.7,69.71v-4.41c0-1.34,.71-2.11,2-2.11s2,.77,2,2.11v4.41c0,1.34-.71,2.11-2,2.11s-2-.77-2-2.11Zm2.69,.08v-4.58c0-.6-.26-.83-.68-.83s-.68,.23-.68,.83v4.58c0,.6,.26,.83,.68,.83s.68-.23,.68-.83Z"/>
        <path class="cls-2" d="M254.49,63.3h1.33l.86,6.51h.02l.86-6.51h1.21l-1.27,8.4h-1.75l-1.27-8.4Z"/>
        <path class="cls-2" d="M259.66,63.3h3.6v1.2h-2.28v2.22h1.81v1.2h-1.81v2.58h2.28v1.2h-3.6v-8.4Z"/>
        <path class="cls-2" d="M264.26,63.3h1.95c1.37,0,1.96,.64,1.96,1.93v.52c0,.86-.28,1.42-.86,1.66v.02c.66,.2,.88,.83,.88,1.77v1.48c0,.41,.01,.71,.14,1.02h-1.34c-.07-.22-.12-.35-.12-1.03v-1.54c0-.78-.23-1.03-.83-1.03h-.46v3.6h-1.32v-8.4Zm1.8,3.6c.49,0,.79-.22,.79-.89v-.65c0-.6-.2-.86-.67-.86h-.6v2.4h.48Z"/>
        <path class="cls-2" d="M270.35,63.3h1.79l1.37,8.4h-1.32l-.24-1.67v.02h-1.5l-.24,1.64h-1.22l1.37-8.4Zm1.44,5.61l-.59-4.15h-.02l-.58,4.15h1.19Z"/>
        <path class="cls-2" d="M274.29,69.71v-4.41c0-1.34,.67-2.11,1.97-2.11s1.97,.77,1.97,2.11v.72h-1.25v-.8c0-.6-.26-.83-.68-.83s-.68,.23-.68,.83v4.59c0,.6,.26,.82,.68,.82s.68-.22,.68-.82v-1.64h-.66v-1.2h1.91v2.75c0,1.34-.67,2.11-1.97,2.11s-1.97-.77-1.97-2.11Z"/>
        <path class="cls-2" d="M279.32,63.3h3.6v1.2h-2.28v2.22h1.81v1.2h-1.81v2.58h2.28v1.2h-3.6v-8.4Z"/>
        <path class="cls-2" d="M286.08,63.3h1.32v8.4h-1.32v-8.4Z"/>
        <path class="cls-2" d="M288.39,69.71v-.48h1.25v.58c0,.6,.26,.82,.68,.82s.68-.22,.68-.84c0-.7-.26-1.14-1.13-1.9-1.1-.97-1.46-1.65-1.46-2.61,0-1.32,.68-2.09,1.97-2.09s1.92,.77,1.92,2.11v.35h-1.25v-.43c0-.6-.24-.83-.66-.83s-.66,.23-.66,.8c0,.61,.28,1.06,1.14,1.81,1.1,.97,1.45,1.64,1.45,2.69,0,1.37-.7,2.13-1.99,2.13s-1.94-.77-1.94-2.11Z"/>
        <path class="cls-2" d="M295.39,69.71v-4.41c0-1.34,.71-2.11,2-2.11s2,.77,2,2.11v4.41c0,1.34-.71,2.11-2,2.11s-2-.77-2-2.11Zm2.69,.08v-4.58c0-.6-.26-.83-.68-.83s-.68,.23-.68,.83v4.58c0,.6,.26,.83,.68,.83s.68-.23,.68-.83Z"/>
        <path class="cls-2" d="M300.52,63.3h1.65l1.28,5.03h.02v-5.03h1.18v8.4h-1.36l-1.58-6.13h-.02v6.13h-1.17v-8.4Z"/>
        <path class="cls-2" d="M305.89,63.3h1.32v7.2h2.17v1.2h-3.49v-8.4Z"/>
        <path class="cls-2" d="M311.47,68.12l-1.59-4.82h1.4l.9,3.08h.02l.9-3.08h1.28l-1.59,4.82v3.57h-1.32v-3.57Z"/>
        <path class="cls-2" d="M319.39,69.74v-.74c0-.8,.24-1.39,.86-1.71v-.02c-.55-.3-.82-.83-.82-1.66v-.35c0-1.34,.73-2.07,2.01-2.07s2.02,.73,2.02,2.07v.35c0,.83-.28,1.36-.82,1.66v.02c.62,.32,.86,.91,.86,1.71v.74c0,1.34-.73,2.08-2.06,2.08s-2.06-.73-2.06-2.08Zm2.81-.07v-.8c0-.64-.25-.95-.74-.95s-.74,.31-.74,.95v.8c0,.64,.25,.95,.74,.95s.74-.31,.74-.95Zm-.05-3.79v-.66c0-.55-.24-.84-.7-.84s-.7,.29-.7,.84v.66c0,.55,.24,.84,.7,.84s.7-.29,.7-.84Z"/>
        <path class="cls-2" d="M324.56,70.79c0-1.2,.34-1.93,1.32-2.96,1.01-1.07,1.29-1.7,1.29-2.48s-.26-.96-.68-.96-.68,.23-.68,.83v.9h-1.25v-.82c0-1.34,.67-2.11,1.97-2.11s1.97,.77,1.97,2.11c0,1-.41,1.88-1.63,3.18-.79,.84-1,1.26-1,1.85v.18h2.51v1.2h-3.81v-.91Z"/>
        <path class="cls-2" d="M329.55,66.62v-2.1c0-.86,.44-1.34,1.27-1.34s1.27,.48,1.27,1.34v2.1c0,.86-.44,1.34-1.27,1.34s-1.27-.48-1.27-1.34Zm1.7,.06v-2.22c0-.37-.17-.53-.43-.53s-.43,.16-.43,.53v2.22c0,.37,.16,.53,.43,.53s.43-.16,.43-.53Zm2.61-3.38h.84l-3.25,8.4h-.84l3.25-8.4Zm-.64,7.17v-2.1c0-.86,.44-1.34,1.27-1.34s1.27,.48,1.27,1.34v2.1c0,.86-.44,1.34-1.27,1.34s-1.27-.48-1.27-1.34Zm1.7,.06v-2.22c0-.37-.17-.53-.43-.53s-.43,.16-.43,.53v2.22c0,.37,.16,.53,.43,.53s.43-.16,.43-.53Z"/>
        <path class="cls-2" d="M339.09,63.3h1.32v8.4h-1.32v-8.4Z"/>
        <path class="cls-2" d="M341.63,63.3h1.65l1.28,5.03h.02v-5.03h1.18v8.4h-1.36l-1.58-6.13h-.02v6.13h-1.17v-8.4Z"/>
        <path class="cls-2" d="M348.93,69.71v-.48h1.25v.58c0,.6,.26,.82,.68,.82s.68-.22,.68-.84c0-.7-.26-1.14-1.13-1.9-1.1-.97-1.46-1.65-1.46-2.61,0-1.32,.68-2.09,1.97-2.09s1.92,.77,1.92,2.11v.35h-1.25v-.43c0-.6-.24-.83-.66-.83s-.66,.23-.66,.8c0,.61,.28,1.06,1.14,1.81,1.1,.97,1.45,1.64,1.45,2.69,0,1.37-.7,2.13-1.99,2.13s-1.94-.77-1.94-2.11Z"/>
        <path class="cls-2" d="M353.81,69.71v-6.4h1.32v6.5c0,.6,.25,.82,.67,.82s.67-.22,.67-.82v-6.5h1.27v6.4c0,1.34-.67,2.11-1.97,2.11s-1.97-.77-1.97-2.11Z"/>
        <path class="cls-2" d="M358.93,63.3h1.99c1.37,0,1.96,.64,1.96,1.93v.34c0,.86-.26,1.4-.85,1.64v.02c.71,.24,.98,.86,.98,1.75v.72c0,1.29-.68,1.99-2,1.99h-2.07v-8.4Zm1.83,3.42c.49,0,.79-.22,.79-.89v-.47c0-.6-.2-.86-.67-.86h-.64v2.22h.52Zm.24,3.78c.44,0,.68-.2,.68-.83v-.73c0-.78-.25-1.02-.85-1.02h-.59v2.58h.76Z"/>
        <path class="cls-2" d="M363.82,66.9h2.64v1.2h-2.64v-1.2Z"/>
        <path class="cls-2" d="M367.26,69.71v-.48h1.25v.58c0,.6,.26,.82,.68,.82s.68-.22,.68-.84c0-.7-.26-1.14-1.13-1.9-1.1-.97-1.46-1.65-1.46-2.61,0-1.32,.68-2.09,1.97-2.09s1.92,.77,1.92,2.11v.35h-1.25v-.43c0-.6-.24-.83-.66-.83s-.66,.23-.66,.8c0,.61,.28,1.06,1.14,1.81,1.1,.97,1.45,1.64,1.45,2.69,0,1.37-.7,2.13-1.99,2.13s-1.94-.77-1.94-2.11Z"/>
        <path class="cls-2" d="M373.22,63.3h1.79l1.37,8.4h-1.32l-.24-1.67v.02h-1.5l-.24,1.64h-1.22l1.37-8.4Zm1.44,5.61l-.59-4.15h-.02l-.58,4.15h1.19Z"/>
        <path class="cls-2" d="M377.25,63.3h1.32v3.42h1.42v-3.42h1.32v8.4h-1.32v-3.78h-1.42v3.78h-1.32v-8.4Z"/>
        <path class="cls-2" d="M383.55,63.3h1.79l1.37,8.4h-1.32l-.24-1.67v.02h-1.5l-.24,1.64h-1.22l1.37-8.4Zm1.44,5.61l-.59-4.15h-.02l-.58,4.15h1.19Z"/>
        <path class="cls-2" d="M387.58,63.3h1.95c1.37,0,1.96,.64,1.96,1.93v.52c0,.86-.28,1.42-.86,1.66v.02c.66,.2,.88,.83,.88,1.77v1.48c0,.41,.01,.71,.14,1.02h-1.34c-.07-.22-.12-.35-.12-1.03v-1.54c0-.78-.23-1.03-.83-1.03h-.46v3.6h-1.32v-8.4Zm1.8,3.6c.49,0,.79-.22,.79-.89v-.65c0-.6-.2-.86-.67-.86h-.6v2.4h.48Z"/>
        <path class="cls-2" d="M393.68,63.3h1.79l1.37,8.4h-1.32l-.24-1.67v.02h-1.5l-.24,1.64h-1.22l1.37-8.4Zm1.44,5.61l-.59-4.15h-.02l-.58,4.15h1.19Z"/>
        <path class="cls-2" d="M397.71,63.3h1.65l1.28,5.03h.02v-5.03h1.18v8.4h-1.36l-1.58-6.13h-.02v6.13h-1.17v-8.4Z"/>
        <path class="cls-2" d="M406.25,63.3h1.79l1.37,8.4h-1.32l-.24-1.67v.02h-1.5l-.24,1.64h-1.22l1.37-8.4Zm1.44,5.61l-.59-4.15h-.02l-.58,4.15h1.19Z"/>
        <path class="cls-2" d="M410.28,63.3h3.49v1.2h-2.17v2.34h1.7v1.2h-1.7v3.66h-1.32v-8.4Z"/>
        <path class="cls-2" d="M414.65,63.3h1.95c1.37,0,1.96,.64,1.96,1.93v.52c0,.86-.28,1.42-.86,1.66v.02c.66,.2,.88,.83,.88,1.77v1.48c0,.41,.01,.71,.14,1.02h-1.34c-.07-.22-.12-.35-.12-1.03v-1.54c0-.78-.23-1.03-.83-1.03h-.46v3.6h-1.32v-8.4Zm1.8,3.6c.49,0,.79-.22,.79-.89v-.65c0-.6-.2-.86-.67-.86h-.6v2.4h.48Z"/>
        <path class="cls-2" d="M419.73,63.3h1.32v8.4h-1.32v-8.4Z"/>
        <path class="cls-2" d="M422.19,69.75v-4.51c0-1.29,.67-2.06,1.94-2.06s1.94,.77,1.94,2.06v.89h-1.25v-.97c0-.55-.26-.78-.66-.78s-.66,.23-.66,.78v4.69c0,.55,.26,.77,.66,.77s.66-.22,.66-.77v-1.28h1.25v1.19c0,1.3-.67,2.06-1.94,2.06s-1.94-.77-1.94-2.06Z"/>
        <path class="cls-2" d="M428.13,63.3h1.79l1.37,8.4h-1.32l-.24-1.67v.02h-1.5l-.24,1.64h-1.22l1.37-8.4Zm1.44,5.61l-.59-4.15h-.02l-.58,4.15h1.19Z"/>
        <path class="cls-2" d="M435.34,63.3h1.79l1.37,8.4h-1.32l-.24-1.67v.02h-1.5l-.24,1.64h-1.22l1.37-8.4Zm1.44,5.61l-.59-4.15h-.02l-.58,4.15h1.19Z"/>
        <path class="cls-2" d="M439.37,63.3h1.65l1.28,5.03h.02v-5.03h1.18v8.4h-1.36l-1.58-6.13h-.02v6.13h-1.17v-8.4Z"/>
        <path class="cls-2" d="M444.74,63.3h2.01c1.32,0,1.97,.73,1.97,2.08v4.25c0,1.34-.65,2.07-1.97,2.07h-2.01v-8.4Zm1.99,7.2c.42,0,.67-.22,.67-.82v-4.37c0-.6-.25-.82-.67-.82h-.67v6h.67Z"/>
        <path class="cls-2" d="M451.95,69.71v-4.34c0-1.42,.65-2.18,2.01-2.18,1.3,0,1.97,.77,1.97,2.11v.16h-1.25v-.24c0-.6-.26-.83-.68-.83-.47,0-.73,.23-.73,1.03v1.61h.02c.23-.48,.61-.73,1.2-.73,.97,0,1.46,.68,1.46,1.92v1.5c0,1.34-.71,2.11-2,2.11s-2-.77-2-2.11Zm2.69,.1v-1.49c0-.56-.23-.83-.68-.83s-.68,.26-.68,.83v1.49c0,.55,.23,.82,.68,.82s.68-.26,.68-.82Z"/>
        <path class="cls-2" d="M456.89,69.74v-.74c0-.8,.24-1.39,.86-1.71v-.02c-.55-.3-.82-.83-.82-1.66v-.35c0-1.34,.73-2.07,2.01-2.07s2.02,.73,2.02,2.07v.35c0,.83-.28,1.36-.82,1.66v.02c.62,.32,.86,.91,.86,1.71v.74c0,1.34-.73,2.08-2.06,2.08s-2.06-.73-2.06-2.08Zm2.81-.07v-.8c0-.64-.25-.95-.74-.95s-.74,.31-.74,.95v.8c0,.64,.25,.95,.74,.95s.74-.31,.74-.95Zm-.05-3.79v-.66c0-.55-.24-.84-.7-.84s-.7,.29-.7,.84v.66c0,.55,.24,.84,.7,.84s.7-.29,.7-.84Z"/>
        <path class="cls-2" d="M462.01,66.62v-2.1c0-.86,.44-1.34,1.27-1.34s1.27,.48,1.27,1.34v2.1c0,.86-.44,1.34-1.27,1.34s-1.27-.48-1.27-1.34Zm1.7,.06v-2.22c0-.37-.17-.53-.43-.53s-.43,.16-.43,.53v2.22c0,.37,.16,.53,.43,.53s.43-.16,.43-.53Zm2.61-3.38h.84l-3.25,8.4h-.84l3.25-8.4Zm-.64,7.17v-2.1c0-.86,.44-1.34,1.27-1.34s1.27,.48,1.27,1.34v2.1c0,.86-.44,1.34-1.27,1.34s-1.27-.48-1.27-1.34Zm1.7,.06v-2.22c0-.37-.17-.53-.43-.53s-.43,.16-.43,.53v2.22c0,.37,.16,.53,.43,.53s.43-.16,.43-.53Z"/>
        <path class="cls-2" d="M471.55,63.3h1.32v8.4h-1.32v-8.4Z"/>
        <path class="cls-2" d="M474.1,63.3h1.65l1.28,5.03h.02v-5.03h1.18v8.4h-1.36l-1.58-6.13h-.02v6.13h-1.17v-8.4Z"/>
        <path class="cls-2" d="M481.53,69.71v-4.41c0-1.34,.71-2.11,2-2.11s2,.77,2,2.11v4.41c0,1.34-.71,2.11-2,2.11s-2-.77-2-2.11Zm2.69,.08v-4.58c0-.6-.26-.83-.68-.83s-.68,.23-.68,.83v4.58c0,.6,.26,.83,.68,.83s.68-.23,.68-.83Z"/>
        <path class="cls-2" d="M486.58,69.75v-4.51c0-1.29,.67-2.06,1.94-2.06s1.94,.77,1.94,2.06v.89h-1.25v-.97c0-.55-.26-.78-.66-.78s-.66,.23-.66,.78v4.69c0,.55,.26,.77,.66,.77s.66-.22,.66-.77v-1.28h1.25v1.19c0,1.3-.67,2.06-1.94,2.06s-1.94-.77-1.94-2.06Z"/>
        <path class="cls-2" d="M491.5,63.3h3.6v1.2h-2.28v2.22h1.81v1.2h-1.81v2.58h2.28v1.2h-3.6v-8.4Z"/>
        <path class="cls-2" d="M497.11,63.3h1.79l1.37,8.4h-1.32l-.24-1.67v.02h-1.5l-.24,1.64h-1.22l1.37-8.4Zm1.44,5.61l-.59-4.15h-.02l-.58,4.15h1.19Z"/>
        <path class="cls-2" d="M501.15,63.3h1.65l1.28,5.03h.02v-5.03h1.18v8.4h-1.36l-1.58-6.13h-.02v6.13h-1.17v-8.4Z"/>
        <path class="cls-2" d="M506.51,63.3h1.32v8.4h-1.32v-8.4Z"/>
        <path class="cls-2" d="M510.07,63.3h1.79l1.37,8.4h-1.32l-.24-1.67v.02h-1.5l-.24,1.64h-1.22l1.37-8.4Zm1.44,5.61l-.59-4.15h-.02l-.58,4.15h1.19Z"/>
        <path class="cls-2" d="M514.05,65.05l.74-.78-1.07-.23,.2-.59,1,.48-.14-1.1h.63l-.14,1.1,1-.48,.2,.59-1.07,.23,.74,.78-.5,.37-.54-.94-.54,.94-.5-.37Z"/>
      </g>
      <rect class="cls-3" x="245.95" y="35.25" width="121.57" height="15.1"/>
      <g>
        <path class="cls-2" d="M228.09,38.37h1.43v3.71h1.53v-3.71h1.43v9.1h-1.43v-4.1h-1.53v4.1h-1.43v-9.1Z"/>
        <path class="cls-2" d="M234.91,38.37h1.94l1.48,9.1h-1.43l-.26-1.81v.03h-1.62l-.26,1.78h-1.33l1.48-9.1Zm1.56,6.08l-.64-4.5h-.03l-.62,4.5h1.29Z"/>
        <path class="cls-2" d="M239.03,45.31v-.52h1.35v.62c0,.65,.29,.88,.74,.88s.74-.23,.74-.91c0-.75-.29-1.23-1.22-2.05-1.2-1.05-1.59-1.79-1.59-2.83,0-1.43,.74-2.26,2.13-2.26s2.08,.83,2.08,2.29v.38h-1.35v-.47c0-.65-.26-.9-.71-.9s-.71,.25-.71,.87c0,.66,.3,1.14,1.24,1.96,1.2,1.05,1.57,1.78,1.57,2.91,0,1.48-.75,2.31-2.16,2.31s-2.11-.83-2.11-2.29Z"/>
        <path class="cls-11" d="M249.05,38.37h2.04l.91,6.51h.03l.91-6.51h2.04v9.1h-1.35v-6.89h-.03l-1.04,6.89h-1.2l-1.04-6.89h-.03v6.89h-1.25v-9.1Z"/>
        <path class="cls-11" d="M256.2,45.31v-4.78c0-1.46,.77-2.29,2.17-2.29s2.17,.83,2.17,2.29v4.78c0,1.46-.77,2.29-2.17,2.29s-2.17-.83-2.17-2.29Zm2.91,.09v-4.97c0-.65-.29-.9-.74-.9s-.74,.25-.74,.9v4.97c0,.65,.29,.9,.74,.9s.74-.25,.74-.9Z"/>
        <path class="cls-11" d="M261.77,38.37h2.16c1.48,0,2.12,.69,2.12,2.09v.36c0,.94-.29,1.52-.92,1.78v.03c.77,.26,1.07,.94,1.07,1.9v.78c0,1.4-.74,2.16-2.17,2.16h-2.25v-9.1Zm1.99,3.71c.53,0,.86-.23,.86-.96v-.51c0-.65-.22-.94-.73-.94h-.69v2.41h.56Zm.26,4.09c.48,0,.74-.22,.74-.9v-.79c0-.84-.27-1.1-.92-1.1h-.64v2.79h.82Z"/>
        <path class="cls-11" d="M267.28,38.37h1.43v9.1h-1.43v-9.1Z"/>
        <path class="cls-11" d="M270.04,38.37h1.43v7.8h2.35v1.3h-3.78v-9.1Z"/>
        <path class="cls-11" d="M274.77,38.37h3.9v1.3h-2.47v2.41h1.96v1.3h-1.96v2.79h2.47v1.3h-3.9v-9.1Z"/>
        <path class="cls-11" d="M282.09,38.37h2.16c1.48,0,2.12,.69,2.12,2.09v.36c0,.94-.29,1.52-.92,1.78v.03c.77,.26,1.07,.94,1.07,1.9v.78c0,1.4-.74,2.16-2.17,2.16h-2.25v-9.1Zm1.99,3.71c.53,0,.86-.23,.86-.96v-.51c0-.65-.22-.94-.73-.94h-.69v2.41h.56Zm.26,4.09c.48,0,.74-.22,.74-.9v-.79c0-.84-.27-1.1-.92-1.1h-.64v2.79h.82Z"/>
        <path class="cls-11" d="M287.6,38.37h2.12c1.48,0,2.12,.69,2.12,2.09v.56c0,.94-.3,1.53-.94,1.79v.03c.71,.22,.95,.9,.95,1.92v1.6c0,.44,.01,.77,.16,1.1h-1.46c-.08-.23-.13-.38-.13-1.12v-1.66c0-.84-.25-1.12-.9-1.12h-.49v3.9h-1.43v-9.1Zm1.95,3.9c.53,0,.86-.23,.86-.96v-.7c0-.65-.22-.94-.73-.94h-.65v2.6h.52Z"/>
        <path class="cls-11" d="M292.99,45.31v-4.78c0-1.46,.77-2.29,2.17-2.29s2.17,.83,2.17,2.29v4.78c0,1.46-.77,2.29-2.17,2.29s-2.17-.83-2.17-2.29Zm2.91,.09v-4.97c0-.65-.29-.9-.74-.9s-.74,.25-.74,.9v4.97c0,.65,.29,.9,.74,.9s.74-.25,.74-.9Z"/>
        <path class="cls-11" d="M299.66,38.37h1.94l1.48,9.1h-1.43l-.26-1.81v.03h-1.62l-.26,1.78h-1.33l1.48-9.1Zm1.56,6.08l-.64-4.5h-.03l-.62,4.5h1.29Z"/>
        <path class="cls-11" d="M304.03,38.37h2.18c1.43,0,2.13,.79,2.13,2.25v4.6c0,1.46-.7,2.25-2.13,2.25h-2.18v-9.1Zm2.16,7.8c.46,0,.73-.23,.73-.88v-4.73c0-.65-.27-.88-.73-.88h-.73v6.5h.73Z"/>
        <path class="cls-11" d="M309.57,38.37h2.16c1.48,0,2.12,.69,2.12,2.09v.36c0,.94-.29,1.52-.92,1.78v.03c.77,.26,1.07,.94,1.07,1.9v.78c0,1.4-.74,2.16-2.17,2.16h-2.25v-9.1Zm1.99,3.71c.53,0,.86-.23,.86-.96v-.51c0-.65-.22-.94-.73-.94h-.69v2.41h.56Zm.26,4.09c.48,0,.74-.22,.74-.9v-.79c0-.84-.27-1.1-.92-1.1h-.64v2.79h.82Z"/>
        <path class="cls-11" d="M316.18,38.37h1.94l1.48,9.1h-1.43l-.26-1.81v.03h-1.62l-.26,1.78h-1.33l1.48-9.1Zm1.56,6.08l-.64-4.5h-.03l-.62,4.5h1.29Z"/>
        <path class="cls-11" d="M320.55,38.37h1.79l1.39,5.45h.03v-5.45h1.27v9.1h-1.47l-1.72-6.64h-.03v6.64h-1.27v-9.1Z"/>
        <path class="cls-11" d="M326.36,38.37h2.18c1.43,0,2.13,.79,2.13,2.25v4.6c0,1.46-.7,2.25-2.13,2.25h-2.18v-9.1Zm2.16,7.8c.46,0,.73-.23,.73-.88v-4.73c0-.65-.27-.88-.73-.88h-.73v6.5h.73Z"/>
        <path class="cls-11" d="M335.35,38.37h1.94l1.48,9.1h-1.43l-.26-1.81v.03h-1.62l-.26,1.78h-1.33l1.48-9.1Zm1.56,6.08l-.64-4.5h-.03l-.62,4.5h1.29Z"/>
        <path class="cls-11" d="M339.62,45.36v-4.89c0-1.4,.73-2.24,2.11-2.24s2.11,.83,2.11,2.24v.96h-1.35v-1.05c0-.6-.29-.84-.71-.84s-.71,.25-.71,.84v5.08c0,.6,.29,.83,.71,.83s.71-.23,.71-.83v-1.39h1.35v1.29c0,1.4-.73,2.24-2.11,2.24s-2.11-.83-2.11-2.24Z"/>
        <path class="cls-11" d="M344.86,45.36v-4.89c0-1.4,.73-2.24,2.11-2.24s2.11,.83,2.11,2.24v.96h-1.35v-1.05c0-.6-.29-.84-.71-.84s-.71,.25-.71,.84v5.08c0,.6,.29,.83,.71,.83s.71-.23,.71-.83v-1.39h1.35v1.29c0,1.4-.73,2.24-2.11,2.24s-2.11-.83-2.11-2.24Z"/>
        <path class="cls-11" d="M350.19,38.37h3.9v1.3h-2.47v2.41h1.96v1.3h-1.96v2.79h2.47v1.3h-3.9v-9.1Z"/>
        <path class="cls-11" d="M354.92,45.31v-.52h1.35v.62c0,.65,.29,.88,.74,.88s.74-.23,.74-.91c0-.75-.29-1.23-1.22-2.05-1.2-1.05-1.59-1.79-1.59-2.83,0-1.43,.74-2.26,2.13-2.26s2.08,.83,2.08,2.29v.38h-1.35v-.47c0-.65-.26-.9-.71-.9s-.71,.25-.71,.87c0,.66,.3,1.14,1.24,1.96,1.2,1.05,1.57,1.78,1.57,2.91,0,1.48-.75,2.31-2.16,2.31s-2.11-.83-2.11-2.29Z"/>
        <path class="cls-11" d="M360.02,45.31v-.52h1.35v.62c0,.65,.29,.88,.74,.88s.74-.23,.74-.91c0-.75-.29-1.23-1.22-2.05-1.2-1.05-1.59-1.79-1.59-2.83,0-1.43,.74-2.26,2.13-2.26s2.08,.83,2.08,2.29v.38h-1.35v-.47c0-.65-.26-.9-.71-.9s-.71,.25-.71,.87c0,.66,.3,1.14,1.24,1.96,1.2,1.05,1.57,1.78,1.57,2.91,0,1.48-.75,2.31-2.16,2.31s-2.11-.83-2.11-2.29Z"/>
        <path class="cls-2" d="M370.2,46.13v-6.42c0-1.46,.57-1.99,2-1.99h.44v1.17h-.35c-.46,0-.66,.17-.66,.82v6.42c0,.65,.21,.82,.66,.82h.35v1.17h-.44c-1.43,0-2-.53-2-1.99Z"/>
        <path class="cls-2" d="M373.79,45.33v-.74h1.35v.81c0,.65,.29,.9,.74,.9s.74-.22,.74-1.03v-.74c0-.85-.29-1.16-.94-1.16h-.48v-1.3h.52c.53,0,.86-.23,.86-.96v-.66c0-.65-.3-.91-.72-.91s-.69,.25-.69,.84v.6h-1.35v-.48c0-1.46,.73-2.26,2.09-2.26s2.09,.79,2.09,2.25v.33c0,.98-.31,1.57-1.01,1.83v.03c.77,.29,1.05,.95,1.05,1.87v.81c0,1.46-.73,2.25-2.13,2.25s-2.13-.81-2.13-2.26Z"/>
        <path class="cls-2" d="M379.25,45.31v-4.78c0-1.46,.73-2.29,2.13-2.29s2.13,.83,2.13,2.29v.78h-1.35v-.87c0-.65-.29-.9-.74-.9s-.74,.25-.74,.9v4.98c0,.65,.29,.88,.74,.88s.74-.23,.74-.88v-1.78h-.71v-1.3h2.07v2.98c0,1.46-.73,2.29-2.13,2.29s-2.13-.83-2.13-2.29Z"/>
        <path class="cls-2" d="M386.93,45.31v-4.78c0-1.46,.77-2.29,2.17-2.29s2.17,.83,2.17,2.29v4.78c0,1.46-.77,2.29-2.17,2.29s-2.17-.83-2.17-2.29Zm2.91,.09v-4.97c0-.65-.29-.9-.74-.9s-.74,.25-.74,.9v4.97c0,.65,.29,.9,.74,.9s.74-.25,.74-.9Z"/>
        <path class="cls-2" d="M392.49,38.37h2.12c1.48,0,2.12,.69,2.12,2.09v.56c0,.94-.3,1.53-.94,1.79v.03c.71,.22,.95,.9,.95,1.92v1.6c0,.44,.01,.77,.16,1.1h-1.46c-.08-.23-.13-.38-.13-1.12v-1.66c0-.84-.25-1.12-.9-1.12h-.49v3.9h-1.43v-9.1Zm1.95,3.9c.53,0,.86-.23,.86-.96v-.7c0-.65-.22-.94-.73-.94h-.65v2.6h.52Z"/>
        <path class="cls-2" d="M400.33,38.37h1.43v3.71h1.53v-3.71h1.43v9.1h-1.43v-4.1h-1.53v4.1h-1.43v-9.1Z"/>
        <path class="cls-2" d="M406.05,38.37h1.43v9.1h-1.43v-9.1Z"/>
        <path class="cls-2" d="M408.7,45.31v-4.78c0-1.46,.73-2.29,2.13-2.29s2.13,.83,2.13,2.29v.78h-1.35v-.87c0-.65-.29-.9-.74-.9s-.74,.25-.74,.9v4.98c0,.65,.29,.88,.74,.88s.74-.23,.74-.88v-1.78h-.71v-1.3h2.07v2.98c0,1.46-.73,2.29-2.13,2.29s-2.13-.83-2.13-2.29Z"/>
        <path class="cls-2" d="M414.15,38.37h1.43v3.71h1.53v-3.71h1.43v9.1h-1.43v-4.1h-1.53v4.1h-1.43v-9.1Z"/>
        <path class="cls-2" d="M419.87,38.37h3.9v1.3h-2.47v2.41h1.96v1.3h-1.96v2.79h2.47v1.3h-3.9v-9.1Z"/>
        <path class="cls-2" d="M424.85,38.37h2.12c1.48,0,2.12,.69,2.12,2.09v.56c0,.94-.3,1.53-.94,1.79v.03c.71,.22,.95,.9,.95,1.92v1.6c0,.44,.01,.77,.16,1.1h-1.46c-.08-.23-.13-.38-.13-1.12v-1.66c0-.84-.25-1.12-.9-1.12h-.49v3.9h-1.43v-9.1Zm1.95,3.9c.53,0,.86-.23,.86-.96v-.7c0-.65-.22-.94-.73-.94h-.65v2.6h.52Z"/>
        <path class="cls-2" d="M430.27,46.95h.35c.46,0,.66-.17,.66-.82v-6.42c0-.65-.21-.82-.66-.82h-.35v-1.17h.44c1.43,0,2,.53,2,1.99v6.42c0,1.46-.57,1.99-2,1.99h-.44v-1.17Z"/>
      </g>
    </g>
    <line class="cls-6" y1="55.27" x2="101.15" y2="55.27"/>
    <line class="cls-6" x1="110.55" y1="55.27" x2="211.7" y2="55.27"/>
    <g>
      <path class="cls-14" d="M41.27,48.14v-.99c0-1.07,.32-1.86,1.15-2.29v-.03c-.74-.4-1.09-1.1-1.09-2.21v-.46c0-1.79,.98-2.77,2.69-2.77s2.69,.98,2.69,2.77v.46c0,1.1-.37,1.81-1.09,2.21v.03c.83,.43,1.15,1.22,1.15,2.29v.99c0,1.79-.98,2.77-2.75,2.77s-2.75-.98-2.75-2.77Zm3.75-.1v-1.07c0-.85-.34-1.26-.99-1.26s-.99,.42-.99,1.26v1.07c0,.85,.34,1.26,.99,1.26s.99-.42,.99-1.26Zm-.06-5.06v-.88c0-.74-.32-1.12-.93-1.12s-.93,.38-.93,1.12v.88c0,.74,.32,1.12,.93,1.12s.93-.38,.93-1.12Z"/>
      <path class="cls-14" d="M47.85,49.53c0-1.6,.45-2.58,1.76-3.95,1.34-1.42,1.73-2.27,1.73-3.31s-.35-1.28-.91-1.28-.91,.3-.91,1.1v1.2h-1.67v-1.09c0-1.79,.9-2.82,2.62-2.82s2.62,1.02,2.62,2.82c0,1.33-.54,2.51-2.18,4.24-1.06,1.12-1.33,1.68-1.33,2.46v.24h3.34v1.6h-5.09v-1.22Z"/>
      <path class="cls-14" d="M54.18,43.98v-2.8c0-1.15,.59-1.79,1.7-1.79s1.7,.64,1.7,1.79v2.8c0,1.15-.59,1.79-1.7,1.79s-1.7-.64-1.7-1.79Zm2.27,.08v-2.96c0-.5-.22-.7-.58-.7s-.58,.21-.58,.7v2.96c0,.5,.21,.7,.58,.7s.58-.21,.58-.7Zm3.49-4.51h1.12l-4.34,11.2h-1.12l4.34-11.2Zm-.85,9.57v-2.8c0-1.15,.59-1.79,1.7-1.79s1.7,.64,1.7,1.79v2.8c0,1.15-.59,1.79-1.7,1.79s-1.7-.64-1.7-1.79Zm2.27,.08v-2.96c0-.5-.22-.7-.58-.7s-.58,.21-.58,.7v2.96c0,.5,.21,.7,.58,.7s.58-.21,.58-.7Z"/>
    </g>
    <g>
      <path class="cls-14" d="M151.58,48.09v-5.79c0-1.89,.86-2.91,2.69-2.91,1.73,0,2.62,1.02,2.62,2.82v.21h-1.67v-.32c0-.8-.35-1.1-.91-1.1-.62,0-.98,.3-.98,1.38v2.14h.03c.3-.64,.82-.98,1.6-.98,1.3,0,1.95,.91,1.95,2.56v2c0,1.79-.95,2.82-2.67,2.82s-2.67-1.02-2.67-2.82Zm3.59,.13v-1.98c0-.75-.3-1.1-.91-1.1s-.91,.35-.91,1.1v1.98c0,.74,.3,1.09,.91,1.09s.91-.35,.91-1.09Z"/>
      <path class="cls-14" d="M157.85,48.14v-.99c0-1.07,.32-1.86,1.15-2.29v-.03c-.74-.4-1.09-1.1-1.09-2.21v-.46c0-1.79,.98-2.77,2.69-2.77s2.69,.98,2.69,2.77v.46c0,1.1-.37,1.81-1.09,2.21v.03c.83,.43,1.15,1.22,1.15,2.29v.99c0,1.79-.98,2.77-2.75,2.77s-2.75-.98-2.75-2.77Zm3.75-.1v-1.07c0-.85-.34-1.26-.99-1.26s-.99,.42-.99,1.26v1.07c0,.85,.34,1.26,.99,1.26s.99-.42,.99-1.26Zm-.06-5.06v-.88c0-.74-.32-1.12-.93-1.12s-.93,.38-.93,1.12v.88c0,.74,.32,1.12,.93,1.12s.93-.38,.93-1.12Z"/>
      <path class="cls-14" d="M164.36,43.98v-2.8c0-1.15,.59-1.79,1.7-1.79s1.7,.64,1.7,1.79v2.8c0,1.15-.59,1.79-1.7,1.79s-1.7-.64-1.7-1.79Zm2.27,.08v-2.96c0-.5-.22-.7-.58-.7s-.58,.21-.58,.7v2.96c0,.5,.21,.7,.58,.7s.58-.21,.58-.7Zm3.49-4.51h1.12l-4.34,11.2h-1.12l4.34-11.2Zm-.85,9.57v-2.8c0-1.15,.59-1.79,1.7-1.79s1.7,.64,1.7,1.79v2.8c0,1.15-.59,1.79-1.7,1.79s-1.7-.64-1.7-1.79Zm2.27,.08v-2.96c0-.5-.22-.7-.58-.7s-.58,.21-.58,.7v2.96c0,.5,.21,.7,.58,.7s.58-.21,.58-.7Z"/>
    </g>
    <g>
      <path class="cls-14" d="M17.54,66.63v-.36h.94v.43c0,.45,.2,.61,.51,.61s.51-.16,.51-.63c0-.52-.2-.86-.85-1.42-.83-.73-1.1-1.24-1.1-1.96,0-.99,.51-1.57,1.48-1.57s1.44,.58,1.44,1.58v.26h-.94v-.32c0-.45-.18-.62-.5-.62s-.5,.17-.5,.6c0,.46,.21,.79,.86,1.36,.83,.73,1.09,1.23,1.09,2.02,0,1.03-.52,1.6-1.5,1.6s-1.46-.58-1.46-1.58Z"/>
      <path class="cls-14" d="M21.24,66.63v-4.81h.99v4.88c0,.45,.19,.61,.5,.61s.5-.16,.5-.61v-4.88h.95v4.81c0,1.01-.5,1.58-1.48,1.58s-1.48-.58-1.48-1.58Z"/>
      <path class="cls-14" d="M25.12,61.82h1.49c1.03,0,1.47,.48,1.47,1.45v.25c0,.65-.2,1.05-.64,1.23v.02c.53,.18,.74,.65,.74,1.31v.54c0,.97-.51,1.49-1.5,1.49h-1.56v-6.3Zm1.38,2.57c.37,0,.59-.16,.59-.67v-.35c0-.45-.15-.65-.5-.65h-.48v1.67h.39Zm.18,2.84c.33,0,.51-.15,.51-.62v-.55c0-.58-.19-.77-.64-.77h-.44v1.94h.57Z"/>
      <path class="cls-14" d="M28.84,64.52h1.98v.9h-1.98v-.9Z"/>
      <path class="cls-14" d="M31.47,66.63v-.36h.94v.43c0,.45,.2,.61,.51,.61s.51-.16,.51-.63c0-.52-.2-.86-.85-1.42-.83-.73-1.1-1.24-1.1-1.96,0-.99,.51-1.57,1.48-1.57s1.44,.58,1.44,1.58v.26h-.94v-.32c0-.45-.18-.62-.5-.62s-.5,.17-.5,.6c0,.46,.21,.79,.86,1.36,.83,.73,1.09,1.23,1.09,2.02,0,1.03-.52,1.6-1.5,1.6s-1.46-.58-1.46-1.58Z"/>
      <path class="cls-14" d="M35.95,61.82h1.34l1.03,6.3h-.99l-.18-1.25v.02h-1.13l-.18,1.23h-.92l1.03-6.3Zm1.08,4.21l-.44-3.11h-.02l-.43,3.11h.89Z"/>
      <path class="cls-14" d="M39.02,61.82h.99v2.57h1.06v-2.57h.99v6.3h-.99v-2.84h-1.06v2.84h-.99v-6.3Z"/>
      <path class="cls-14" d="M43.79,61.82h1.34l1.03,6.3h-.99l-.18-1.25v.02h-1.13l-.18,1.23h-.92l1.03-6.3Zm1.08,4.21l-.44-3.11h-.02l-.43,3.11h.89Z"/>
      <path class="cls-14" d="M46.86,61.82h1.47c1.03,0,1.47,.48,1.47,1.45v.39c0,.65-.21,1.06-.65,1.24v.02c.5,.15,.66,.62,.66,1.33v1.11c0,.31,0,.53,.11,.77h-1.01c-.05-.16-.09-.26-.09-.77v-1.15c0-.58-.17-.77-.62-.77h-.34v2.7h-.99v-6.3Zm1.35,2.7c.37,0,.59-.16,.59-.67v-.49c0-.45-.15-.65-.5-.65h-.45v1.8h.36Z"/>
      <path class="cls-14" d="M51.48,61.82h1.34l1.03,6.3h-.99l-.18-1.25v.02h-1.13l-.18,1.23h-.92l1.03-6.3Zm1.08,4.21l-.44-3.11h-.02l-.43,3.11h.89Z"/>
      <path class="cls-14" d="M54.54,61.82h1.24l.96,3.77h.02v-3.77h.88v6.3h-1.02l-1.19-4.6h-.02v4.6h-.88v-6.3Z"/>
      <path class="cls-14" d="M61.04,61.82h1.34l1.03,6.3h-.99l-.18-1.25v.02h-1.13l-.18,1.23h-.92l1.03-6.3Zm1.08,4.21l-.44-3.11h-.02l-.43,3.11h.89Z"/>
      <path class="cls-14" d="M64.11,61.82h2.62v.9h-1.63v1.76h1.28v.9h-1.28v2.75h-.99v-6.3Z"/>
      <path class="cls-14" d="M67.43,61.82h1.47c1.03,0,1.47,.48,1.47,1.45v.39c0,.65-.21,1.06-.65,1.24v.02c.5,.15,.66,.62,.66,1.33v1.11c0,.31,0,.53,.11,.77h-1.01c-.05-.16-.09-.26-.09-.77v-1.15c0-.58-.17-.77-.62-.77h-.34v2.7h-.99v-6.3Zm1.35,2.7c.37,0,.59-.16,.59-.67v-.49c0-.45-.15-.65-.5-.65h-.45v1.8h.36Z"/>
      <path class="cls-14" d="M71.28,61.82h.99v6.3h-.99v-6.3Z"/>
      <path class="cls-14" d="M73.17,66.66v-3.38c0-.97,.5-1.55,1.46-1.55s1.46,.58,1.46,1.55v.67h-.94v-.73c0-.41-.2-.59-.5-.59s-.5,.17-.5,.59v3.52c0,.41,.2,.58,.5,.58s.5-.16,.5-.58v-.96h.94v.89c0,.97-.5,1.55-1.46,1.55s-1.46-.58-1.46-1.55Z"/>
      <path class="cls-14" d="M77.67,61.82h1.34l1.03,6.3h-.99l-.18-1.25v.02h-1.13l-.18,1.23h-.92l1.03-6.3Zm1.08,4.21l-.44-3.11h-.02l-.43,3.11h.89Z"/>
    </g>
    <g>
      <path class="cls-14" d="M149.91,66.63v-3.31c0-1.01,.53-1.58,1.5-1.58s1.5,.58,1.5,1.58v3.31c0,1.01-.53,1.58-1.5,1.58s-1.5-.58-1.5-1.58Zm2.02,.06v-3.44c0-.45-.2-.62-.51-.62s-.51,.17-.51,.62v3.44c0,.45,.2,.62,.51,.62s.51-.17,.51-.62Z"/>
      <path class="cls-14" d="M153.75,66.66v-3.38c0-.97,.5-1.55,1.46-1.55s1.46,.58,1.46,1.55v.67h-.94v-.73c0-.41-.2-.59-.5-.59s-.5,.17-.5,.59v3.52c0,.41,.2,.58,.5,.58s.5-.16,.5-.58v-.96h.94v.89c0,.97-.5,1.55-1.46,1.55s-1.46-.58-1.46-1.55Z"/>
      <path class="cls-14" d="M157.48,61.82h2.7v.9h-1.71v1.67h1.36v.9h-1.36v1.94h1.71v.9h-2.7v-6.3Z"/>
      <path class="cls-14" d="M161.74,61.82h1.34l1.03,6.3h-.99l-.18-1.25v.02h-1.13l-.18,1.23h-.92l1.03-6.3Zm1.08,4.21l-.44-3.11h-.02l-.43,3.11h.89Z"/>
      <path class="cls-14" d="M164.81,61.82h1.24l.96,3.77h.02v-3.77h.88v6.3h-1.02l-1.19-4.6h-.02v4.6h-.88v-6.3Z"/>
      <path class="cls-14" d="M168.88,61.82h.99v6.3h-.99v-6.3Z"/>
      <path class="cls-14" d="M171.6,61.82h1.34l1.03,6.3h-.99l-.18-1.25v.02h-1.13l-.18,1.23h-.92l1.03-6.3Zm1.08,4.21l-.44-3.11h-.02l-.43,3.11h.89Z"/>
      <path class="cls-14" d="M174.62,63.13l.56-.59-.8-.17,.15-.45,.75,.36-.11-.83h.47l-.1,.83,.75-.36,.15,.45-.8,.17,.56,.59-.38,.28-.4-.71-.4,.71-.38-.28Z"/>
    </g>
    <g>
      <path class="cls-11" d="M8.3,50.89h0c0-19.11,12.62-35.92,30.97-41.25,18.35-5.33,38.01,2.1,48.25,18.23l-18.13,11.51c-5.12-8.07-14.95-11.78-24.12-9.12-9.17,2.67-15.48,11.07-15.48,20.62H8.3Z"/>
      <path class="cls-3" d="M87.52,27.88c4.37,6.88,6.69,14.86,6.69,23.02h-21.48c0-4.08-1.16-8.07-3.34-11.51l18.13-11.51Z"/>
    </g>
    <g>
      <path class="cls-3" d="M185,14.59c12.41,7.87,19.92,21.55,19.92,36.24h-21.46c0-7.35-3.76-14.18-9.96-18.12l11.5-18.12Z"/>
      <path class="cls-10" d="M119.08,50.83h0c0-15.66,8.52-30.07,22.24-37.61,13.72-7.54,30.46-7.02,43.68,1.37l-11.5,18.12c-6.61-4.19-14.98-4.46-21.84-.69-6.86,3.77-11.12,10.98-11.12,18.81h-21.46Z"/>
    </g>
    <rect class="cls-3" x="319.18" y="74.08" width="111.94" height="3.42"/>
    <rect class="cls-3" x="452.11" y="74.08" width="61.22" height="3.42"/>
    <g class="cls-13">
      <g>
        <line class="cls-5" x1="156.65" y1="66.46" x2="81.84" y2="-7.24"/>
        <line class="cls-5" x1="155.38" y1="67.79" x2="80.57" y2="-5.91"/>
        <line class="cls-5" x1="154.12" y1="69.11" x2="79.3" y2="-4.59"/>
        <line class="cls-5" x1="152.85" y1="70.44" x2="78.04" y2="-3.26"/>
        <line class="cls-5" x1="151.58" y1="71.77" x2="76.77" y2="-1.93"/>
        <line class="cls-5" x1="150.32" y1="73.09" x2="75.51" y2="-.61"/>
        <line class="cls-5" x1="149.05" y1="74.42" x2="74.24" y2=".72"/>
        <line class="cls-5" x1="147.78" y1="75.75" x2="72.97" y2="2.05"/>
        <line class="cls-5" x1="146.52" y1="77.07" x2="71.71" y2="3.37"/>
        <line class="cls-5" x1="145.25" y1="78.4" x2="70.44" y2="4.7"/>
        <line class="cls-5" x1="143.98" y1="79.73" x2="69.17" y2="6.03"/>
        <line class="cls-5" x1="142.72" y1="81.06" x2="67.91" y2="7.35"/>
        <line class="cls-5" x1="141.45" y1="82.38" x2="66.64" y2="8.68"/>
        <line class="cls-5" x1="140.19" y1="83.71" x2="65.37" y2="10.01"/>
        <line class="cls-5" x1="138.92" y1="85.04" x2="64.11" y2="11.34"/>
        <line class="cls-5" x1="137.65" y1="86.36" x2="62.84" y2="12.66"/>
        <line class="cls-5" x1="136.39" y1="87.69" x2="61.57" y2="13.99"/>
        <line class="cls-5" x1="135.12" y1="89.02" x2="60.31" y2="15.32"/>
        <line class="cls-5" x1="133.85" y1="90.34" x2="59.04" y2="16.64"/>
        <line class="cls-5" x1="132.59" y1="91.67" x2="57.77" y2="17.97"/>
        <line class="cls-5" x1="131.32" y1="93" x2="56.51" y2="19.3"/>
        <line class="cls-5" x1="130.05" y1="94.32" x2="55.24" y2="20.62"/>
        <line class="cls-5" x1="128.79" y1="95.65" x2="53.97" y2="21.95"/>
        <line class="cls-5" x1="127.52" y1="96.98" x2="52.71" y2="23.28"/>
        <line class="cls-5" x1="126.25" y1="98.3" x2="51.44" y2="24.6"/>
        <line class="cls-5" x1="124.99" y1="99.63" x2="50.17" y2="25.93"/>
        <line class="cls-5" x1="123.72" y1="100.96" x2="48.91" y2="27.26"/>
        <line class="cls-5" x1="122.45" y1="102.28" x2="47.64" y2="28.58"/>
        <line class="cls-5" x1="121.19" y1="103.61" x2="46.37" y2="29.91"/>
        <line class="cls-5" x1="119.92" y1="104.94" x2="45.11" y2="31.24"/>
        <line class="cls-5" x1="118.65" y1="106.26" x2="43.84" y2="32.56"/>
        <line class="cls-5" x1="117.39" y1="107.59" x2="42.58" y2="33.89"/>
        <line class="cls-5" x1="116.12" y1="108.92" x2="41.31" y2="35.22"/>
        <line class="cls-5" x1="114.85" y1="110.24" x2="40.04" y2="36.54"/>
        <line class="cls-5" x1="113.59" y1="111.57" x2="38.78" y2="37.87"/>
        <line class="cls-5" x1="112.32" y1="112.9" x2="37.51" y2="39.2"/>
        <line class="cls-5" x1="111.06" y1="114.22" x2="36.24" y2="40.52"/>
        <line class="cls-5" x1="109.79" y1="115.55" x2="34.98" y2="41.85"/>
        <line class="cls-5" x1="108.52" y1="116.88" x2="33.71" y2="43.18"/>
        <line class="cls-5" x1="107.26" y1="118.2" x2="32.44" y2="44.5"/>
        <line class="cls-5" x1="105.99" y1="119.53" x2="31.18" y2="45.83"/>
        <line class="cls-5" x1="104.72" y1="120.86" x2="29.91" y2="47.16"/>
        <line class="cls-5" x1="103.46" y1="122.18" x2="28.64" y2="48.48"/>
        <line class="cls-5" x1="102.19" y1="123.51" x2="27.38" y2="49.81"/>
        <line class="cls-5" x1="100.92" y1="124.84" x2="26.11" y2="51.14"/>
        <line class="cls-5" x1="99.66" y1="126.16" x2="24.84" y2="52.46"/>
        <line class="cls-5" x1="98.39" y1="127.49" x2="23.58" y2="53.79"/>
        <line class="cls-5" x1="97.12" y1="128.82" x2="22.31" y2="55.12"/>
        <line class="cls-5" x1="95.86" y1="130.14" x2="21.04" y2="56.44"/>
        <line class="cls-5" x1="94.59" y1="131.47" x2="19.78" y2="57.77"/>
        <line class="cls-5" x1="93.32" y1="132.8" x2="18.51" y2="59.1"/>
        <line class="cls-5" x1="92.06" y1="134.12" x2="17.24" y2="60.42"/>
        <line class="cls-5" x1="90.79" y1="135.45" x2="15.98" y2="61.75"/>
        <line class="cls-5" x1="89.52" y1="136.78" x2="14.71" y2="63.08"/>
        <line class="cls-5" x1="88.26" y1="138.1" x2="13.45" y2="64.4"/>
        <line class="cls-5" x1="86.99" y1="139.43" x2="12.18" y2="65.73"/>
        <line class="cls-5" x1="85.73" y1="140.76" x2="10.91" y2="67.06"/>
        <line class="cls-5" x1="84.46" y1="142.08" x2="9.65" y2="68.38"/>
        <line class="cls-5" x1="83.19" y1="143.41" x2="8.38" y2="69.71"/>
        <line class="cls-5" x1="81.93" y1="144.74" x2="7.11" y2="71.04"/>
        <line class="cls-5" x1="80.66" y1="146.06" x2="5.85" y2="72.36"/>
        <line class="cls-5" x1="79.39" y1="147.39" x2="4.58" y2="73.69"/>
      </g>
    </g>
    <g class="cls-12">
      <g>
        <line class="cls-5" x1="273.13" y1="34" x2="198.32" y2="-39.7"/>
        <line class="cls-5" x1="271.87" y1="35.33" x2="197.05" y2="-38.37"/>
        <line class="cls-5" x1="270.6" y1="36.65" x2="195.79" y2="-37.05"/>
        <line class="cls-5" x1="269.33" y1="37.98" x2="194.52" y2="-35.72"/>
        <line class="cls-5" x1="268.07" y1="39.31" x2="193.25" y2="-34.39"/>
        <line class="cls-5" x1="266.8" y1="40.63" x2="191.99" y2="-33.07"/>
        <line class="cls-5" x1="265.53" y1="41.96" x2="190.72" y2="-31.74"/>
        <line class="cls-5" x1="264.27" y1="43.29" x2="189.46" y2="-30.41"/>
        <line class="cls-5" x1="263" y1="44.61" x2="188.19" y2="-29.09"/>
        <line class="cls-5" x1="261.73" y1="45.94" x2="186.92" y2="-27.76"/>
        <line class="cls-5" x1="260.47" y1="47.27" x2="185.66" y2="-26.43"/>
        <line class="cls-5" x1="259.2" y1="48.59" x2="184.39" y2="-25.11"/>
        <line class="cls-5" x1="257.93" y1="49.92" x2="183.12" y2="-23.78"/>
        <line class="cls-5" x1="256.67" y1="51.25" x2="181.86" y2="-22.45"/>
        <line class="cls-5" x1="255.4" y1="52.57" x2="180.59" y2="-21.13"/>
        <line class="cls-5" x1="254.14" y1="53.9" x2="179.32" y2="-19.8"/>
        <line class="cls-5" x1="252.87" y1="55.23" x2="178.06" y2="-18.47"/>
        <line class="cls-5" x1="251.6" y1="56.55" x2="176.79" y2="-17.15"/>
        <line class="cls-5" x1="250.34" y1="57.88" x2="175.52" y2="-15.82"/>
        <line class="cls-5" x1="249.07" y1="59.21" x2="174.26" y2="-14.49"/>
        <line class="cls-5" x1="247.8" y1="60.53" x2="172.99" y2="-13.17"/>
        <line class="cls-5" x1="246.54" y1="61.86" x2="171.72" y2="-11.84"/>
        <line class="cls-5" x1="245.27" y1="63.19" x2="170.46" y2="-10.51"/>
        <line class="cls-5" x1="244" y1="64.51" x2="169.19" y2="-9.19"/>
        <line class="cls-5" x1="242.74" y1="65.84" x2="167.92" y2="-7.86"/>
        <line class="cls-5" x1="241.47" y1="67.17" x2="166.66" y2="-6.53"/>
        <line class="cls-5" x1="240.2" y1="68.49" x2="165.39" y2="-5.21"/>
        <line class="cls-5" x1="238.94" y1="69.82" x2="164.12" y2="-3.88"/>
        <line class="cls-5" x1="237.67" y1="71.15" x2="162.86" y2="-2.55"/>
        <line class="cls-5" x1="236.4" y1="72.47" x2="161.59" y2="-1.23"/>
        <line class="cls-5" x1="235.14" y1="73.8" x2="160.32" y2=".1"/>
        <line class="cls-5" x1="233.87" y1="75.13" x2="159.06" y2="1.43"/>
        <line class="cls-5" x1="232.6" y1="76.45" x2="157.79" y2="2.75"/>
        <line class="cls-5" x1="231.34" y1="77.78" x2="156.53" y2="4.08"/>
        <line class="cls-5" x1="230.07" y1="79.11" x2="155.26" y2="5.41"/>
        <line class="cls-5" x1="228.81" y1="80.43" x2="153.99" y2="6.73"/>
        <line class="cls-5" x1="227.54" y1="81.76" x2="152.73" y2="8.06"/>
        <line class="cls-5" x1="226.27" y1="83.09" x2="151.46" y2="9.39"/>
        <line class="cls-5" x1="225.01" y1="84.41" x2="150.19" y2="10.71"/>
        <line class="cls-5" x1="223.74" y1="85.74" x2="148.93" y2="12.04"/>
        <line class="cls-5" x1="222.47" y1="87.07" x2="147.66" y2="13.37"/>
        <line class="cls-5" x1="221.21" y1="88.39" x2="146.39" y2="14.69"/>
        <line class="cls-5" x1="219.94" y1="89.72" x2="145.13" y2="16.02"/>
        <line class="cls-5" x1="218.67" y1="91.05" x2="143.86" y2="17.35"/>
        <line class="cls-5" x1="217.41" y1="92.37" x2="142.59" y2="18.67"/>
        <line class="cls-5" x1="216.14" y1="93.7" x2="141.33" y2="20"/>
        <line class="cls-5" x1="214.87" y1="95.03" x2="140.06" y2="21.33"/>
        <line class="cls-5" x1="213.61" y1="96.35" x2="138.79" y2="22.65"/>
        <line class="cls-5" x1="212.34" y1="97.68" x2="137.53" y2="23.98"/>
        <line class="cls-5" x1="211.07" y1="99.01" x2="136.26" y2="25.31"/>
        <line class="cls-5" x1="209.81" y1="100.33" x2="134.99" y2="26.63"/>
        <line class="cls-5" x1="208.54" y1="101.66" x2="133.73" y2="27.96"/>
        <line class="cls-5" x1="207.27" y1="102.99" x2="132.46" y2="29.29"/>
        <line class="cls-5" x1="206.01" y1="104.31" x2="131.19" y2="30.61"/>
        <line class="cls-5" x1="204.74" y1="105.64" x2="129.93" y2="31.94"/>
        <line class="cls-5" x1="203.48" y1="106.97" x2="128.66" y2="33.27"/>
        <line class="cls-5" x1="202.21" y1="108.29" x2="127.4" y2="34.59"/>
        <line class="cls-5" x1="200.94" y1="109.62" x2="126.13" y2="35.92"/>
        <line class="cls-5" x1="199.68" y1="110.95" x2="124.86" y2="37.25"/>
        <line class="cls-5" x1="198.41" y1="112.28" x2="123.6" y2="38.57"/>
        <line class="cls-5" x1="197.14" y1="113.6" x2="122.33" y2="39.9"/>
        <line class="cls-5" x1="195.88" y1="114.93" x2="121.06" y2="41.23"/>
      </g>
    </g>
    <g>
      <path class="cls-2" d="M514.3,32.48h-44.88c-1.25,0-2.49,1-2.49,2.49v9.97c0,1.25,1.25,2.49,2.49,2.49h44.88c1.25,0,2.49-1.25,2.49-2.49v-9.97c0-1.25-1.25-2.49-2.49-2.49Zm-39.9,9.97c-1.5,0-2.49-1.25-2.49-2.49,0-1.5,1-2.49,2.49-2.49,1.25,0,2.49,1,2.49,2.49s-1,2.49-2.49,2.49Zm9.97,0c-1.25,0-2.49-1.25-2.49-2.49,0-1.5,1.25-2.49,2.49-2.49s2.49,1,2.49,2.49-1.25,2.49-2.49,2.49Zm9.97,0c-1.25,0-2.49-1.25-2.49-2.49,0-1.5,1.25-2.49,2.49-2.49s2.49,1,2.49,2.49-1.25,2.49-2.49,2.49Z"/>
      <path class="cls-1" d="M477.64,10.78c7.73-7.73,20.45-7.73,28.18,0,1,1,2.49,1,3.49,0s1-2.49,0-3.49c-9.48-9.73-25.43-9.73-35.16,0-1,1-1,2.49,0,3.49,1,1,2.74,1,3.49,0Z"/>
      <path class="cls-1" d="M502.33,18.02c1-1,1-2.49,0-3.49-5.74-5.74-15.21-5.74-21.2,0-1,1-1,2.49,0,3.49,1,1,2.49,1,3.49,0,3.99-3.99,10.22-3.99,14.21,0,1,1,2.49,1,3.49,0Z"/>
      <path class="cls-1" d="M496.84,25c0,2.75-2.23,4.99-4.99,4.99s-4.99-2.23-4.99-4.99,2.23-4.99,4.99-4.99,4.99,2.23,4.99,4.99"/>
    </g>
    <g>
      <path class="cls-2" d="M438.82,46.43v-4.94c0-1.12,.44-1.53,1.54-1.53h.34v.9h-.27c-.35,0-.51,.13-.51,.63v4.94c0,.5,.16,.63,.51,.63h.27v.9h-.34c-1.1,0-1.54-.41-1.54-1.53Z"/>
      <path class="cls-2" d="M441.45,46.7c0-1,.28-1.61,1.1-2.47,.84-.89,1.08-1.42,1.08-2.07s-.22-.8-.57-.8-.57,.19-.57,.69v.75h-1.04v-.68c0-1.12,.56-1.76,1.64-1.76s1.64,.64,1.64,1.76c0,.83-.34,1.57-1.36,2.65-.66,.7-.83,1.05-.83,1.54v.15h2.09v1h-3.18v-.76Z"/>
      <path class="cls-2" d="M445.39,45.8v-3.68c0-1.12,.59-1.76,1.67-1.76s1.67,.64,1.67,1.76v3.68c0,1.12-.59,1.76-1.67,1.76s-1.67-.64-1.67-1.76Zm2.24,.07v-3.82c0-.5-.22-.69-.57-.69s-.57,.19-.57,.69v3.82c0,.5,.22,.69,.57,.69s.57-.19,.57-.69Z"/>
      <path class="cls-2" d="M449.45,46.7c0-1,.28-1.61,1.1-2.47,.84-.89,1.08-1.42,1.08-2.07s-.22-.8-.57-.8-.57,.19-.57,.69v.75h-1.04v-.68c0-1.12,.56-1.76,1.64-1.76s1.64,.64,1.64,1.76c0,.83-.34,1.57-1.36,2.65-.66,.7-.83,1.05-.83,1.54v.15h2.09v1h-3.18v-.76Z"/>
      <path class="cls-2" d="M453.45,46.7c0-1,.28-1.61,1.1-2.47,.84-.89,1.08-1.42,1.08-2.07s-.22-.8-.57-.8-.57,.19-.57,.69v.75h-1.04v-.68c0-1.12,.56-1.76,1.64-1.76s1.64,.64,1.64,1.76c0,.83-.34,1.57-1.36,2.65-.66,.7-.83,1.05-.83,1.54v.15h2.09v1h-3.18v-.76Z"/>
      <path class="cls-2" d="M457.41,47.06h.27c.35,0,.51-.13,.51-.63v-4.94c0-.5-.16-.63-.51-.63h-.27v-.9h.34c1.1,0,1.54,.41,1.54,1.53v4.94c0,1.12-.44,1.53-1.54,1.53h-.34v-.9Z"/>
    </g>
    <g>
      <path class="cls-14" d="M145.94,73.56v-2.01c0-.46,.18-.62,.63-.62h.14v.37h-.11c-.14,0-.21,.05-.21,.26v2.01c0,.2,.07,.26,.21,.26h.11v.37h-.14c-.45,0-.63-.17-.63-.62Z"/>
      <path class="cls-14" d="M147.19,72.43l.43-.46-.62-.13,.11-.35,.58,.28-.08-.64h.37l-.08,.64,.58-.28,.11,.35-.62,.13,.43,.46-.29,.22-.31-.55-.31,.55-.29-.22Z"/>
      <path class="cls-14" d="M148.91,71.13h1.22v.41h-.77v.75h.62v.41h-.62v.88h.77v.41h-1.22v-2.85Z"/>
      <path class="cls-14" d="M150.86,72.52l-.49-1.39h.47l.3,.92h0l.31-.92h.42l-.49,1.39,.52,1.46h-.47l-.33-.99h0l-.33,.99h-.42l.52-1.46Z"/>
      <path class="cls-14" d="M152.18,73.32v-1.53c0-.44,.23-.7,.66-.7s.66,.26,.66,.7v.3h-.42v-.33c0-.19-.09-.27-.22-.27s-.22,.08-.22,.27v1.59c0,.19,.09,.26,.22,.26s.22-.07,.22-.26v-.44h.42v.4c0,.44-.23,.7-.66,.7s-.66-.26-.66-.7Z"/>
      <path class="cls-14" d="M153.85,71.13h.45v2.44h.74v.41h-1.19v-2.85Z"/>
      <path class="cls-14" d="M155.32,73.31v-2.18h.45v2.21c0,.2,.09,.28,.23,.28s.23-.07,.23-.28v-2.21h.43v2.18c0,.46-.23,.72-.67,.72s-.67-.26-.67-.72Z"/>
      <path class="cls-14" d="M157.06,71.13h.68c.45,0,.67,.25,.67,.71v1.44c0,.46-.22,.7-.67,.7h-.68v-2.85Zm.68,2.44c.14,0,.23-.07,.23-.28v-1.48c0-.2-.08-.28-.23-.28h-.23v2.04h.23Z"/>
      <path class="cls-14" d="M158.8,71.13h.45v2.85h-.45v-2.85Z"/>
      <path class="cls-14" d="M159.66,71.13h.56l.44,1.71h0v-1.71h.4v2.85h-.46l-.54-2.08h0v2.08h-.4v-2.85Z"/>
      <path class="cls-14" d="M161.45,73.31v-1.5c0-.46,.23-.72,.67-.72s.67,.26,.67,.72v.24h-.42v-.27c0-.2-.09-.28-.23-.28s-.23,.08-.23,.28v1.56c0,.2,.09,.28,.23,.28s.23-.07,.23-.28v-.56h-.22v-.41h.65v.93c0,.46-.23,.72-.67,.72s-.67-.26-.67-.72Z"/>
      <path class="cls-14" d="M164.25,71.13h.61l.46,2.85h-.45l-.08-.57h0s-.51,0-.51,0l-.08,.56h-.42l.46-2.85Zm.49,1.91l-.2-1.41h0l-.2,1.41h.4Z"/>
      <path class="cls-14" d="M165.6,73.31v-2.18h.45v2.21c0,.2,.09,.28,.23,.28s.23-.07,.23-.28v-2.21h.43v2.18c0,.46-.23,.72-.67,.72s-.67-.26-.67-.72Z"/>
      <path class="cls-14" d="M167.26,73.31v-.16h.42v.2c0,.2,.09,.28,.23,.28s.23-.07,.23-.29c0-.24-.09-.39-.38-.64-.38-.33-.5-.56-.5-.89,0-.45,.23-.71,.67-.71s.65,.26,.65,.72v.12h-.42v-.15c0-.2-.08-.28-.22-.28s-.22,.08-.22,.27c0,.21,.09,.36,.39,.62,.38,.33,.49,.56,.49,.91,0,.46-.24,.73-.68,.73s-.66-.26-.66-.72Z"/>
      <path class="cls-14" d="M169.29,71.54h-.47v-.41h1.38v.41h-.47v2.44h-.45v-2.44Z"/>
      <path class="cls-14" d="M170.51,71.13h.66c.46,0,.66,.22,.66,.66v.17c0,.29-.09,.48-.29,.56h0c.22,.08,.3,.29,.3,.61v.5c0,.14,0,.24,.05,.35h-.46c-.02-.07-.04-.12-.04-.35v-.52c0-.26-.08-.35-.28-.35h-.15v1.22h-.45v-2.85Zm.61,1.22c.17,0,.27-.07,.27-.3v-.22c0-.2-.07-.29-.23-.29h-.2v.81h.16Z"/>
      <path class="cls-14" d="M172.58,71.13h.61l.46,2.85h-.45l-.08-.57h0s-.51,0-.51,0l-.08,.56h-.42l.46-2.85Zm.49,1.91l-.2-1.41h0l-.2,1.41h.4Z"/>
      <path class="cls-14" d="M173.95,71.13h.45v2.44h.74v.41h-1.19v-2.85Z"/>
      <path class="cls-14" d="M175.44,71.13h.45v2.85h-.45v-2.85Z"/>
      <path class="cls-14" d="M176.65,71.13h.61l.46,2.85h-.45l-.08-.57h0s-.51,0-.51,0l-.08,.56h-.42l.46-2.85Zm.49,1.91l-.2-1.41h0l-.2,1.41h.4Z"/>
      <path class="cls-14" d="M149.65,76.13h.61l.46,2.85h-.45l-.08-.57h0s-.51,0-.51,0l-.08,.56h-.42l.46-2.85Zm.49,1.91l-.2-1.41h0l-.2,1.41h.4Z"/>
      <path class="cls-14" d="M151.02,76.13h.56l.44,1.71h0v-1.71h.4v2.85h-.46l-.54-2.08h0v2.08h-.4v-2.85Z"/>
      <path class="cls-14" d="M152.85,76.13h.68c.45,0,.67,.25,.67,.71v1.44c0,.46-.22,.7-.67,.7h-.68v-2.85Zm.68,2.44c.14,0,.23-.07,.23-.28v-1.48c0-.2-.08-.28-.23-.28h-.23v2.04h.23Z"/>
      <path class="cls-14" d="M155.32,76.13h.56l.44,1.71h0v-1.71h.4v2.85h-.46l-.54-2.08h0v2.08h-.4v-2.85Z"/>
      <path class="cls-14" d="M157.14,76.13h1.22v.41h-.77v.75h.62v.41h-.62v.88h.77v.41h-1.22v-2.85Z"/>
      <path class="cls-14" d="M158.6,76.13h.43l.2,2.19h0l.21-2.19h.49l.21,2.19h0l.2-2.19h.39l-.29,2.85h-.56l-.2-1.92h0l-.2,1.92h-.59l-.29-2.85Z"/>
      <path class="cls-14" d="M161.7,78.58l.83-2.04h-.79v-.41h1.27v.4l-.83,2.05h.83v.41h-1.31v-.4Z"/>
      <path class="cls-14" d="M163.35,76.13h1.22v.41h-.77v.75h.62v.41h-.62v.88h.77v.41h-1.22v-2.85Z"/>
      <path class="cls-14" d="M165.26,76.13h.61l.46,2.85h-.45l-.08-.57h0s-.51,0-.51,0l-.08,.56h-.42l.46-2.85Zm.49,1.91l-.2-1.41h0l-.2,1.41h.4Z"/>
      <path class="cls-14" d="M166.63,76.13h.45v2.44h.74v.41h-1.19v-2.85Z"/>
      <path class="cls-14" d="M168.47,76.13h.61l.46,2.85h-.45l-.08-.57h0s-.51,0-.51,0l-.08,.56h-.42l.46-2.85Zm.49,1.91l-.2-1.41h0l-.2,1.41h.4Z"/>
      <path class="cls-14" d="M169.84,76.13h.56l.44,1.71h0v-1.71h.4v2.85h-.46l-.54-2.08h0v2.08h-.4v-2.85Z"/>
      <path class="cls-14" d="M171.66,76.13h.68c.45,0,.67,.25,.67,.71v1.44c0,.46-.22,.7-.67,.7h-.68v-2.85Zm.68,2.44c.14,0,.23-.07,.23-.28v-1.48c0-.2-.08-.28-.23-.28h-.23v2.04h.23Z"/>
      <path class="cls-14" d="M173.38,78.82h.11c.14,0,.21-.05,.21-.26v-2.01c0-.2-.06-.26-.21-.26h-.11v-.37h.14c.45,0,.63,.17,.63,.62v2.01c0,.46-.18,.62-.63,.62h-.14v-.37Z"/>
    </g>
  </g>
</svg>