<?xml version="1.0" encoding="UTF-8"?>
<svg id="Layer_2" data-name="Layer 2" xmlns="http://www.w3.org/2000/svg" viewBox="0 0 521.75 112.82">
  <defs>
    <style>
      .cls-1 {
        fill: #fff;
      }

      .cls-2 {
        fill: #939598;
      }

      .cls-3 {
        fill: #ef412a;
      }

      .cls-4 {
        fill: #f9b296;
      }

      .cls-5 {
        fill: none;
        stroke: #e2e3e4;
        stroke-miterlimit: 10;
        stroke-width: 10px;
      }

      .cls-6 {
        fill: #f26c4a;
      }

      .cls-7 {
        fill: #8a402f;
      }
    </style>
  </defs>
  <g id="Layer_2-2" data-name="Layer 2">
    <rect class="cls-3" x=".35" y="34.55" width="168.22" height="37.56"/>
    <g>
      <path class="cls-3" d="M179,46.19h-3.73v-3.24h11.01v3.24h-3.73v19.44h-3.56v-19.44Z"/>
      <path class="cls-3" d="M188.27,60.25v-11.92c0-3.63,1.91-5.7,5.41-5.7s5.41,2.07,5.41,5.7v11.92c0,3.63-1.91,5.7-5.41,5.7s-5.41-2.07-5.41-5.7Zm7.26,.23v-12.37c0-1.62-.71-2.24-1.85-2.24s-1.85,.62-1.85,2.24v12.37c0,1.62,.71,2.24,1.85,2.24s1.85-.62,1.85-2.24Z"/>
      <path class="cls-3" d="M210.71,42.95h4.83l3.69,22.68h-3.56l-.65-4.5v.06h-4.05l-.65,4.44h-3.3l3.69-22.68Zm3.89,15.16l-1.59-11.21h-.06l-1.55,11.21h3.21Z"/>
      <path class="cls-3" d="M221.31,60.38v-12.18c0-3.5,1.81-5.57,5.25-5.57s5.25,2.07,5.25,5.57v2.4h-3.37v-2.62c0-1.49-.71-2.11-1.78-2.11s-1.78,.62-1.78,2.11v12.67c0,1.49,.71,2.07,1.78,2.07s1.78-.58,1.78-2.07v-3.47h3.37v3.21c0,3.5-1.81,5.57-5.25,5.57s-5.25-2.07-5.25-5.57Z"/>
      <path class="cls-3" d="M234.58,42.95h3.56v9.23h3.82v-9.23h3.56v22.68h-3.56v-10.2h-3.82v10.2h-3.56v-22.68Z"/>
      <path class="cls-3" d="M248.84,42.95h3.56v22.68h-3.56v-22.68Z"/>
      <path class="cls-3" d="M255.7,42.95h9.72v3.24h-6.15v5.99h4.89v3.24h-4.89v6.96h6.15v3.24h-9.72v-22.68Z"/>
      <path class="cls-3" d="M267.17,42.95h3.6l2.33,17.59h.06l2.33-17.59h3.27l-3.43,22.68h-4.73l-3.43-22.68Z"/>
      <path class="cls-3" d="M281.13,42.95h9.72v3.24h-6.15v5.99h4.89v3.24h-4.89v6.96h6.15v3.24h-9.72v-22.68Z"/>
    </g>
    <g>
      <path class="cls-1" d="M7.94,41.23h4.77l3.7,14.47h.07v-14.47h3.39v24.18h-3.9l-4.56-17.65h-.07v17.65h-3.39v-24.18Z"/>
      <path class="cls-1" d="M23.1,59.68v-12.71c0-3.87,2.04-6.08,5.77-6.08s5.77,2.21,5.77,6.08v12.71c0,3.87-2.04,6.08-5.77,6.08s-5.77-2.21-5.77-6.08Zm7.74,.24v-13.2c0-1.73-.76-2.38-1.97-2.38s-1.97,.66-1.97,2.38v13.2c0,1.73,.76,2.38,1.97,2.38s1.97-.66,1.97-2.38Z"/>
      <path class="cls-1" d="M40.72,44.69h-3.97v-3.45h11.75v3.45h-3.97v20.73h-3.8v-20.73Z"/>
      <path class="cls-1" d="M56.96,59.68v-12.71c0-3.87,2.04-6.08,5.77-6.08s5.77,2.21,5.77,6.08v12.71c0,3.87-2.04,6.08-5.77,6.08s-5.77-2.21-5.77-6.08Zm7.74,.24v-13.2c0-1.73-.76-2.38-1.97-2.38s-1.97,.66-1.97,2.38v13.2c0,1.73,.76,2.38,1.97,2.38s1.97-.66,1.97-2.38Z"/>
      <path class="cls-1" d="M71.75,41.23h4.77l3.7,14.47h.07v-14.47h3.39v24.18h-3.9l-4.56-17.65h-.07v17.65h-3.39v-24.18Z"/>
      <path class="cls-1" d="M96.38,44.69h-3.97v-3.45h11.75v3.45h-3.97v20.73h-3.8v-20.73Z"/>
      <path class="cls-1" d="M106.68,41.23h5.63c3.94,0,5.63,1.83,5.63,5.56v1.49c0,2.49-.79,4.08-2.49,4.77v.07c1.9,.59,2.52,2.38,2.52,5.11v4.25c0,1.17,.03,2.04,.41,2.94h-3.87c-.21-.62-.35-1-.35-2.97v-4.42c0-2.25-.66-2.97-2.38-2.97h-1.31v10.36h-3.8v-24.18Zm5.18,10.36c1.42,0,2.28-.62,2.28-2.56v-1.87c0-1.73-.59-2.49-1.93-2.49h-1.73v6.91h1.38Z"/>
      <path class="cls-1" d="M124.23,41.23h5.15l3.94,24.18h-3.8l-.69-4.8v.07h-4.32l-.69,4.73h-3.52l3.94-24.18Zm4.15,16.17l-1.69-11.95h-.07l-1.66,11.95h3.42Z"/>
      <path class="cls-1" d="M135.53,59.82v-12.99c0-3.73,1.93-5.94,5.6-5.94s5.6,2.21,5.6,5.94v2.56h-3.59v-2.8c0-1.59-.76-2.25-1.9-2.25s-1.9,.66-1.9,2.25v13.51c0,1.59,.76,2.21,1.9,2.21s1.9-.62,1.9-2.21v-3.7h3.59v3.42c0,3.73-1.93,5.94-5.6,5.94s-5.6-2.21-5.6-5.94Z"/>
      <path class="cls-1" d="M149.69,41.23h3.8v10.19l4.84-10.19h3.8l-4.53,8.88,4.59,15.3h-3.97l-3.21-10.78-1.52,3.07v7.7h-3.8v-24.18Z"/>
    </g>
    <g>
      <path class="cls-4" d="M464.16,40.72v1.24h-1.24v-1.11l.56-1.3h.53l-.34,1.17h.49Zm1.7,0v1.24h-1.24v-1.11l.56-1.3h.53l-.34,1.17h.49Z"/>
      <path class="cls-4" d="M466.69,41.51c0-1.31,.69-2.05,1.95-2.05s1.95,.75,1.95,2.05v4.25c0,1.31-.69,2.05-1.95,2.05s-1.95-.75-1.95-2.05v-4.25Zm1.28,4.33c0,.58,.26,.81,.67,.81s.67-.22,.67-.81v-4.41c0-.58-.26-.81-.67-.81s-.67,.22-.67,.81v4.41Z"/>
      <path class="cls-4" d="M472.56,41.8v5.92h-1.16v-8.17h1.61l1.32,4.89v-4.89h1.14v8.17h-1.32l-1.6-5.92Z"/>
      <path class="cls-4" d="M477.83,39.55h3.97v1.17h-1.34v7h-1.28v-7h-1.34v-1.17Z"/>
      <path class="cls-4" d="M485.04,47.72c-.07-.21-.12-.34-.12-1v-1.28c0-.76-.26-1.04-.84-1.04h-.44v3.33h-1.28v-8.17h1.94c1.33,0,1.9,.62,1.9,1.88v.64c0,.84-.27,1.39-.84,1.66,.64,.27,.85,.89,.85,1.74v1.26c0,.4,.01,.69,.14,.99h-1.31Zm-1.4-7v2.51h.5c.48,0,.77-.21,.77-.86v-.81c0-.58-.2-.84-.65-.84h-.62Z"/>
      <path class="cls-4" d="M491.2,47.72h-1.3l-.22-1.48h-1.58l-.22,1.48h-1.18l1.31-8.17h1.88l1.31,8.17Zm-2.93-2.59h1.24l-.62-4.13-.62,4.13Z"/>
      <path class="cls-4" d="M495.52,44.67v1.09c0,1.31-.65,2.05-1.91,2.05s-1.91-.75-1.91-2.05v-4.25c0-1.31,.65-2.05,1.91-2.05s1.91,.75,1.91,2.05v.79h-1.21v-.88c0-.58-.26-.81-.67-.81s-.67,.22-.67,.81v4.41c0,.58,.26,.79,.67,.79s.67-.21,.67-.79v-1.17h1.21Z"/>
      <path class="cls-4" d="M497.98,44.46l-.4,.75v2.51h-1.28v-8.17h1.28v3.56l1.68-3.56h1.28l-1.79,3.64,1.79,4.53h-1.32l-1.25-3.26Z"/>
      <path class="cls-4" d="M501.13,40.79v-1.24h1.24v1.11l-.56,1.3h-.53l.34-1.17h-.49Zm1.7,0v-1.24h1.24v1.11l-.56,1.3h-.53l.34-1.17h-.49Z"/>
    </g>
    <g>
      <path class="cls-7" d="M467.07,64.67h-1.3l-.22-1.48h-1.58l-.22,1.48h-1.18l1.31-8.17h1.88l1.31,8.17Zm-2.93-2.59h1.24l-.62-4.13-.62,4.13Z"/>
      <path class="cls-7" d="M466.85,56.5h3.97v1.17h-1.34v7h-1.28v-7h-1.34v-1.17Z"/>
      <path class="cls-7" d="M477.34,64.67h-1.3l-.22-1.48h-1.58l-.22,1.48h-1.18l1.31-8.17h1.88l1.31,8.17Zm-2.93-2.59h1.24l-.62-4.13-.62,4.13Z"/>
      <path class="cls-7" d="M482.46,62.3l.88-5.8h1.79v8.17h-1.21v-5.86l-.89,5.86h-1.21l-.96-5.78v5.78h-1.12v-8.17h1.79l.95,5.8Z"/>
      <path class="cls-7" d="M485.95,58.46c0-1.31,.69-2.05,1.95-2.05s1.95,.75,1.95,2.05v4.25c0,1.31-.69,2.05-1.95,2.05s-1.95-.75-1.95-2.05v-4.25Zm1.28,4.33c0,.58,.26,.81,.67,.81s.67-.22,.67-.81v-4.41c0-.58-.26-.81-.67-.81s-.67,.22-.67,.81v4.41Z"/>
      <path class="cls-7" d="M490.68,56.5h2.03c1.28,0,1.91,.71,1.91,2.02v4.13c0,1.31-.63,2.02-1.91,2.02h-2.03v-8.17Zm1.28,1.17v5.84h.72c.41,0,.65-.21,.65-.79v-4.25c0-.58-.25-.79-.65-.79h-.72Z"/>
      <path class="cls-7" d="M496.72,59.94h1.76v1.17h-1.76v2.39h2.22v1.17h-3.5v-8.17h3.5v1.17h-2.22v2.28Z"/>
      <path class="cls-7" d="M502.41,64.67c-.07-.21-.12-.34-.12-1v-1.28c0-.76-.26-1.04-.84-1.04h-.44v3.33h-1.28v-8.17h1.94c1.33,0,1.9,.62,1.9,1.88v.64c0,.84-.27,1.39-.84,1.66,.64,.27,.85,.89,.85,1.74v1.26c0,.4,.01,.69,.14,.99h-1.31Zm-1.4-7v2.51h.5c.48,0,.77-.21,.77-.86v-.81c0-.58-.2-.84-.65-.84h-.62Z"/>
      <path class="cls-7" d="M508.58,64.67h-1.3l-.22-1.48h-1.58l-.22,1.48h-1.18l1.31-8.17h1.88l1.31,8.17Zm-2.93-2.59h1.24l-.62-4.13-.62,4.13Z"/>
      <path class="cls-7" d="M508.36,56.5h3.97v1.17h-1.34v7h-1.28v-7h-1.34v-1.17Z"/>
      <path class="cls-7" d="M514.17,59.94h1.76v1.17h-1.76v2.39h2.22v1.17h-3.5v-8.17h3.5v1.17h-2.22v2.28Z"/>
      <path class="cls-7" d="M462.92,68.17h2.03c1.28,0,1.91,.71,1.91,2.02v4.13c0,1.31-.63,2.02-1.91,2.02h-2.03v-8.17Zm1.28,1.17v5.84h.72c.41,0,.65-.21,.65-.79v-4.25c0-.58-.25-.79-.65-.79h-.72Z"/>
      <path class="cls-7" d="M467.68,68.17h1.28v8.17h-1.28v-8.17Z"/>
      <path class="cls-7" d="M471.62,68.07c1.25,0,1.89,.75,1.89,2.05v.26h-1.21v-.34c0-.58-.23-.81-.64-.81s-.64,.22-.64,.81c0,1.68,2.51,2,2.51,4.33,0,1.31-.65,2.05-1.91,2.05s-1.91-.75-1.91-2.05v-.5h1.21v.58c0,.58,.26,.79,.67,.79s.67-.21,.67-.79c0-1.68-2.51-2-2.51-4.33,0-1.31,.64-2.05,1.89-2.05Z"/>
      <path class="cls-7" d="M473.89,68.17h3.97v1.17h-1.34v7h-1.28v-7h-1.34v-1.17Z"/>
      <path class="cls-7" d="M482.57,76.34h-1.3l-.22-1.48h-1.58l-.22,1.48h-1.18l1.31-8.17h1.88l1.31,8.17Zm-2.93-2.59h1.24l-.62-4.13-.62,4.13Z"/>
      <path class="cls-7" d="M484.31,70.42v5.92h-1.16v-8.17h1.61l1.32,4.89v-4.89h1.14v8.17h-1.32l-1.6-5.92Z"/>
      <path class="cls-7" d="M491.87,73.29v1.09c0,1.31-.65,2.05-1.91,2.05s-1.91-.75-1.91-2.05v-4.25c0-1.31,.65-2.05,1.91-2.05s1.91,.75,1.91,2.05v.79h-1.21v-.88c0-.58-.26-.81-.67-.81s-.67,.22-.67,.81v4.41c0,.58,.26,.79,.67,.79s.67-.21,.67-.79v-1.17h1.21Z"/>
      <path class="cls-7" d="M493.93,71.61h1.76v1.17h-1.76v2.39h2.22v1.17h-3.5v-8.17h3.5v1.17h-2.22v2.28Z"/>
    </g>
    <g>
      <path class="cls-7" d="M464.2,87.1h1.66v1.17h-1.66v3.37h-1.28v-8.17h3.4v1.17h-2.11v2.46Z"/>
      <path class="cls-7" d="M470.94,91.64h-1.3l-.22-1.48h-1.58l-.22,1.48h-1.18l1.31-8.17h1.88l1.31,8.17Zm-2.93-2.59h1.24l-.62-4.13-.62,4.13Z"/>
      <path class="cls-7" d="M474.21,91.64c-.07-.21-.12-.34-.12-1v-1.28c0-.76-.26-1.04-.84-1.04h-.44v3.33h-1.28v-8.17h1.94c1.33,0,1.9,.62,1.9,1.88v.64c0,.84-.27,1.39-.84,1.66,.64,.27,.85,.89,.85,1.74v1.26c0,.4,.01,.69,.14,.99h-1.31Zm-1.4-7v2.51h.5c.48,0,.77-.21,.77-.86v-.81c0-.58-.2-.84-.65-.84h-.62Z"/>
      <path class="cls-7" d="M477.92,85.43c0-1.31,.69-2.05,1.95-2.05s1.95,.75,1.95,2.05v4.25c0,1.31-.69,2.05-1.95,2.05s-1.95-.75-1.95-2.05v-4.25Zm1.28,4.33c0,.58,.26,.81,.67,.81s.67-.22,.67-.81v-4.41c0-.58-.26-.81-.67-.81s-.67,.22-.67,.81v4.41Z"/>
      <path class="cls-7" d="M485.33,91.64c-.07-.21-.12-.34-.12-1v-1.28c0-.76-.26-1.04-.84-1.04h-.44v3.33h-1.28v-8.17h1.94c1.33,0,1.9,.62,1.9,1.88v.64c0,.84-.27,1.39-.84,1.66,.64,.27,.85,.89,.85,1.74v1.26c0,.4,.01,.69,.14,.99h-1.31Zm-1.4-7v2.51h.5c.48,0,.77-.21,.77-.86v-.81c0-.58-.2-.84-.65-.84h-.62Z"/>
      <path class="cls-7" d="M491.09,90.14l.98-6.67h1.18l-1.26,8.17h-1.91l-1.26-8.17h1.3l.98,6.67Z"/>
      <path class="cls-7" d="M495.12,86.92h1.76v1.17h-1.76v2.39h2.22v1.17h-3.5v-8.17h3.5v1.17h-2.22v2.28Z"/>
      <path class="cls-7" d="M500.82,91.64c-.07-.21-.12-.34-.12-1v-1.28c0-.76-.26-1.04-.84-1.04h-.44v3.33h-1.28v-8.17h1.94c1.33,0,1.9,.62,1.9,1.88v.64c0,.84-.27,1.39-.84,1.66,.64,.27,.85,.89,.85,1.74v1.26c0,.4,.01,.69,.14,.99h-1.31Zm-1.4-7v2.51h.5c.48,0,.77-.21,.77-.86v-.81c0-.58-.2-.84-.65-.84h-.62Z"/>
      <path class="cls-7" d="M503.92,88.94l-1.62-5.46h1.34l.98,3.72,.98-3.72h1.23l-1.62,5.46v2.71h-1.28v-2.71Z"/>
      <path class="cls-7" d="M510.43,87.1h1.66v1.17h-1.66v3.37h-1.28v-8.17h3.4v1.17h-2.11v2.46Z"/>
      <path class="cls-7" d="M517.16,91.64h-1.3l-.22-1.48h-1.58l-.22,1.48h-1.18l1.31-8.17h1.88l1.31,8.17Zm-2.93-2.59h1.24l-.62-4.13-.62,4.13Z"/>
      <path class="cls-7" d="M520.44,91.64c-.07-.21-.12-.34-.12-1v-1.28c0-.76-.26-1.04-.84-1.04h-.44v3.33h-1.28v-8.17h1.94c1.33,0,1.9,.62,1.9,1.88v.64c0,.84-.27,1.39-.84,1.66,.64,.27,.85,.89,.85,1.74v1.26c0,.4,.01,.69,.14,.99h-1.31Zm-1.4-7v2.51h.5c.48,0,.77-.21,.77-.86v-.81c0-.58-.2-.84-.65-.84h-.62Z"/>
      <path class="cls-7" d="M462.81,97.1c0-1.31,.69-2.05,1.95-2.05s1.95,.75,1.95,2.05v4.25c0,1.31-.69,2.05-1.95,2.05s-1.95-.75-1.95-2.05v-4.25Zm1.28,4.33c0,.58,.26,.81,.67,.81s.67-.22,.67-.81v-4.41c0-.58-.26-.81-.67-.81s-.67,.22-.67,.81v4.41Z"/>
      <path class="cls-7" d="M468.82,98.77h1.66v1.17h-1.66v3.37h-1.28v-8.17h3.4v1.17h-2.11v2.46Z"/>
      <path class="cls-7" d="M472.84,98.77h1.66v1.17h-1.66v3.37h-1.28v-8.17h3.4v1.17h-2.11v2.46Z"/>
      <path class="cls-7" d="M477,95.14h3.97v1.17h-1.34v7h-1.28v-7h-1.34v-1.17Z"/>
      <path class="cls-7" d="M484.21,103.31c-.07-.21-.12-.34-.12-1v-1.28c0-.76-.26-1.04-.84-1.04h-.44v3.33h-1.28v-8.17h1.94c1.33,0,1.9,.62,1.9,1.88v.64c0,.84-.27,1.39-.84,1.66,.64,.27,.85,.89,.85,1.74v1.26c0,.4,.01,.69,.14,.99h-1.31Zm-1.4-7v2.51h.5c.48,0,.77-.21,.77-.86v-.81c0-.58-.2-.84-.65-.84h-.62Z"/>
      <path class="cls-7" d="M490.38,103.31h-1.3l-.22-1.48h-1.58l-.22,1.48h-1.18l1.31-8.17h1.88l1.31,8.17Zm-2.93-2.59h1.24l-.62-4.13-.62,4.13Z"/>
      <path class="cls-7" d="M494.69,100.26v1.09c0,1.31-.65,2.05-1.91,2.05s-1.91-.75-1.91-2.05v-4.25c0-1.31,.65-2.05,1.91-2.05s1.91,.75,1.91,2.05v.79h-1.21v-.88c0-.58-.26-.81-.67-.81s-.67,.22-.67,.81v4.41c0,.58,.26,.79,.67,.79s.67-.21,.67-.79v-1.17h1.21Z"/>
      <path class="cls-7" d="M497.15,100.05l-.4,.75v2.51h-1.28v-8.17h1.28v3.56l1.68-3.56h1.28l-1.79,3.64,1.79,4.53h-1.32l-1.25-3.26Z"/>
    </g>
    <rect class="cls-3" x="447.53" y="82.76" width="9.42" height="9.42"/>
    <rect class="cls-4" x="447.53" y="39.17" width="9.42" height="9.42"/>
    <rect class="cls-6" x="447.53" y="55.84" width="9.42" height="9.42"/>
    <g>
      <path class="cls-3" d="M335.44,62.27c2.72-22.7,21.98-39.79,44.84-39.79v22.58c-11.43,0-21.06,8.54-22.42,19.89l-22.42-2.69Z"/>
      <path class="cls-4" d="M380.28,22.48h0c14.86,0,28.77,7.31,37.2,19.54l-18.6,12.81c-4.21-6.12-11.17-9.77-18.6-9.77V22.48Z"/>
      <path class="cls-6" d="M417.48,42.03c11.4,16.55,10.49,38.63-2.21,54.19-12.71,15.56-34.17,20.86-52.66,12.99-18.49-7.86-29.56-26.99-27.17-46.94l22.42,2.69c-1.2,9.97,4.34,19.54,13.58,23.47,9.24,3.93,19.97,1.28,26.33-6.5,6.35-7.78,6.81-18.82,1.11-27.1l18.6-12.81Z"/>
      <g>
        <path class="cls-1" d="M388.57,34.47c.99,0,1.21-.48,1.41-1.03h.86v8.17h-1.28v-6.23h-.99v-.91Z"/>
        <path class="cls-1" d="M393.55,38.98v.76c0,.58,.26,.79,.67,.79s.67-.21,.67-.79v-1.8c0-.58-.26-.81-.67-.81s-.67,.22-.67,.81v.25h-1.21l.23-4.74h3.39v1.17h-2.23l-.11,1.95c.23-.39,.61-.6,1.12-.6,.95,0,1.42,.67,1.42,1.87v1.82c0,1.31-.65,2.05-1.91,2.05s-1.91-.75-1.91-2.05v-.68h1.21Z"/>
        <path class="cls-1" d="M398.26,40.38v1.24h-1.24v-1.24h1.24Z"/>
        <path class="cls-1" d="M398.89,38.96l2.33-5.52h1.4v5.52h.61v1.17h-.61v1.48h-1.26v-1.48h-2.47v-1.17Zm2.47,0v-3.07l-1.3,3.07h1.3Z"/>
      </g>
      <g>
        <path class="cls-1" d="M379.37,97.07c0-1.38,.63-2.12,1.96-2.12,1.26,0,1.91,.75,1.91,2.05v.21h-1.21v-.29c0-.58-.26-.81-.67-.81-.46,0-.71,.22-.71,1v1.49c.22-.47,.62-.72,1.19-.72,.95,0,1.42,.67,1.42,1.87v1.49c0,1.31-.69,2.05-1.95,2.05s-1.95-.75-1.95-2.05v-4.18Zm1.28,2.79v1.47c0,.58,.26,.79,.67,.79s.67-.21,.67-.79v-1.47c0-.58-.26-.81-.67-.81s-.67,.22-.67,.81Z"/>
        <path class="cls-1" d="M384.87,96.07c.99,0,1.21-.48,1.41-1.03h.86v8.17h-1.28v-6.23h-.99v-.91Z"/>
        <path class="cls-1" d="M389.93,101.98v1.24h-1.24v-1.24h1.24Z"/>
        <path class="cls-1" d="M392.02,100.58v.76c0,.58,.26,.79,.67,.79s.67-.21,.67-.79v-1.8c0-.58-.26-.81-.67-.81s-.67,.22-.67,.81v.25h-1.21l.23-4.74h3.39v1.17h-2.23l-.11,1.95c.23-.39,.61-.6,1.12-.6,.95,0,1.42,.67,1.42,1.87v1.82c0,1.31-.65,2.05-1.91,2.05s-1.91-.75-1.91-2.05v-.68h1.21Z"/>
      </g>
      <g>
        <path class="cls-1" d="M351.87,39.9c-.41,0-.67,.22-.67,.81v.88h-1.21v-.79c0-1.31,.65-2.05,1.91-2.05s1.91,.75,1.91,2.05c0,2.57-2.56,3.53-2.56,4.87,0,.06,0,.12,.01,.17h2.43v1.17h-3.71v-1c0-2.4,2.54-2.8,2.54-5.16,0-.74-.26-.93-.67-.93Z"/>
        <path class="cls-1" d="M357.09,40.84c0-.74-.26-.93-.67-.93s-.67,.22-.67,.81v.52h-1.21v-.44c0-1.31,.65-2.05,1.91-2.05s1.91,.75,1.91,2.05v.21c0,.88-.28,1.42-.9,1.68,.64,.28,.9,.89,.9,1.72v.64c0,1.31-.65,2.05-1.91,2.05s-1.91-.75-1.91-2.05v-.68h1.21v.76c0,.58,.26,.81,.67,.81s.67-.2,.67-.92v-.64c0-.76-.26-1.04-.84-1.04h-.43v-1.17h.5c.48,0,.77-.21,.77-.86v-.46Z"/>
        <path class="cls-1" d="M360.47,45.76v1.24h-1.24v-1.24h1.24Z"/>
        <path class="cls-1" d="M362.2,39.86c.99,0,1.21-.48,1.41-1.03h.86v8.17h-1.28v-6.23h-.99v-.91Z"/>
      </g>
      <g>
        <path class="cls-2" d="M335.48,13.26v-4.05c0-1.23,.65-1.94,1.84-1.94s1.84,.7,1.84,1.94v4.05c0,1.23-.65,1.94-1.84,1.94s-1.84-.7-1.84-1.94Zm2.46,.08v-4.2c0-.55-.24-.76-.63-.76s-.63,.21-.63,.76v4.2c0,.55,.24,.76,.63,.76s.63-.21,.63-.76Z"/>
        <path class="cls-2" d="M340.14,13.26V7.39h1.21v5.96c0,.55,.23,.75,.62,.75s.62-.2,.62-.75V7.39h1.17v5.88c0,1.23-.62,1.94-1.8,1.94s-1.8-.7-1.8-1.94Z"/>
        <path class="cls-2" d="M345.78,8.49h-1.27v-1.1h3.74v1.1h-1.27v6.6h-1.21v-6.6Z"/>
        <path class="cls-2" d="M350.95,13.26v-4.05c0-1.23,.65-1.94,1.84-1.94s1.84,.7,1.84,1.94v4.05c0,1.23-.65,1.94-1.84,1.94s-1.84-.7-1.84-1.94Zm2.46,.08v-4.2c0-.55-.24-.76-.63-.76s-.63,.21-.63,.76v4.2c0,.55,.24,.76,.63,.76s.63-.21,.63-.76Z"/>
        <path class="cls-2" d="M355.65,7.39h3.2v1.1h-1.99v2.15h1.56v1.1h-1.56v3.36h-1.21V7.39Z"/>
        <path class="cls-2" d="M361.55,13.26v-4.05c0-1.23,.62-1.94,1.8-1.94s1.8,.7,1.8,1.94v.66h-1.14v-.74c0-.55-.24-.76-.63-.76s-.63,.21-.63,.76v4.21c0,.55,.24,.75,.63,.75s.63-.2,.63-.75v-1.51h-.61v-1.1h1.75v2.52c0,1.23-.62,1.94-1.8,1.94s-1.8-.7-1.8-1.94Z"/>
        <path class="cls-2" d="M366.07,13.26v-4.05c0-1.23,.65-1.94,1.84-1.94s1.84,.7,1.84,1.94v4.05c0,1.23-.65,1.94-1.84,1.94s-1.84-.7-1.84-1.94Zm2.46,.08v-4.2c0-.55-.24-.76-.63-.76s-.63,.21-.63,.76v4.2c0,.55,.24,.76,.63,.76s.63-.21,.63-.76Z"/>
        <path class="cls-2" d="M371.69,7.39h1.64l1.25,7.7h-1.21l-.22-1.53v.02h-1.38l-.22,1.51h-1.12l1.25-7.7Zm1.32,5.15l-.54-3.81h-.02l-.53,3.81h1.09Z"/>
        <path class="cls-2" d="M375.39,7.39h1.21v6.6h1.99v1.1h-3.2V7.39Z"/>
        <path class="cls-2" d="M381.34,13.26v-.6h1.14v.69c0,.55,.24,.75,.63,.75s.63-.2,.63-.75v-1.73c0-.55-.24-.76-.63-.76s-.63,.21-.63,.76v.07h-1.14l.22-4.3h3.19v1.1h-2.11l-.1,1.84h.02c.22-.36,.56-.56,1.05-.56,.89,0,1.34,.63,1.34,1.76v1.74c0,1.23-.62,1.94-1.8,1.94s-1.8-.7-1.8-1.94Z"/>
        <path class="cls-2" d="M387.97,7.39h1.21v7.7h-1.21V7.39Z"/>
        <path class="cls-2" d="M390.3,7.39h1.52l1.18,4.61h.02V7.39h1.08v7.7h-1.24l-1.45-5.62h-.02v5.62h-1.08V7.39Z"/>
        <path class="cls-2" d="M395.22,7.39h1.85c1.21,0,1.8,.67,1.8,1.9v3.89c0,1.23-.59,1.9-1.8,1.9h-1.85V7.39Zm1.83,6.6c.39,0,.62-.2,.62-.75v-4c0-.55-.23-.75-.62-.75h-.62v5.5h.62Z"/>
        <path class="cls-2" d="M399.91,7.39h1.21v7.7h-1.21V7.39Z"/>
        <path class="cls-2" d="M402.16,13.31v-4.14c0-1.19,.62-1.89,1.78-1.89s1.78,.7,1.78,1.89v.81h-1.14v-.89c0-.51-.24-.71-.6-.71s-.61,.21-.61,.71v4.3c0,.51,.24,.7,.61,.7s.6-.2,.6-.7v-1.18h1.14v1.09c0,1.19-.62,1.89-1.78,1.89s-1.78-.7-1.78-1.89Z"/>
        <path class="cls-2" d="M407.61,7.39h1.64l1.25,7.7h-1.21l-.22-1.53v.02h-1.38l-.22,1.51h-1.12l1.25-7.7Zm1.32,5.15l-.54-3.81h-.02l-.53,3.81h1.09Z"/>
        <path class="cls-2" d="M411.74,8.49h-1.27v-1.1h3.74v1.1h-1.27v6.6h-1.21v-6.6Z"/>
        <path class="cls-2" d="M414.89,13.26v-4.05c0-1.23,.65-1.94,1.84-1.94s1.84,.7,1.84,1.94v4.05c0,1.23-.65,1.94-1.84,1.94s-1.84-.7-1.84-1.94Zm2.46,.08v-4.2c0-.55-.24-.76-.63-.76s-.63,.21-.63,.76v4.2c0,.55,.24,.76,.63,.76s.63-.21,.63-.76Z"/>
        <path class="cls-2" d="M419.6,7.39h1.79c1.25,0,1.79,.58,1.79,1.77v.47c0,.79-.25,1.3-.79,1.52v.02c.6,.19,.8,.76,.8,1.63v1.35c0,.37,.01,.65,.13,.94h-1.23c-.07-.2-.11-.32-.11-.95v-1.41c0-.71-.21-.95-.76-.95h-.42v3.3h-1.21V7.39Zm1.65,3.3c.45,0,.73-.2,.73-.81v-.59c0-.55-.19-.79-.62-.79h-.55v2.2h.44Z"/>
        <path class="cls-2" d="M424.04,13.26v-.44h1.14v.53c0,.55,.24,.75,.63,.75s.63-.2,.63-.77c0-.64-.24-1.04-1.03-1.74-1.01-.89-1.34-1.52-1.34-2.4,0-1.21,.63-1.91,1.8-1.91s1.76,.7,1.76,1.94v.32h-1.14v-.4c0-.55-.22-.76-.61-.76s-.6,.21-.6,.74c0,.56,.25,.97,1.05,1.66,1.01,.89,1.33,1.51,1.33,2.46,0,1.25-.64,1.96-1.83,1.96s-1.78-.7-1.78-1.94Z"/>
        <path class="cls-2" d="M428.56,9.73h1.17v1.17h-1.17v-1.17Zm0,4.19h1.17v1.17h-1.17v-1.17Z"/>
      </g>
    </g>
    <g>
      <g>
        <path class="cls-3" d="M.2,101.23v-12.71c0-3.87,1.93-6.08,5.67-6.08s5.67,2.21,5.67,6.08v2.07h-3.59v-2.31c0-1.73-.76-2.38-1.97-2.38s-1.97,.66-1.97,2.38v13.23c0,1.73,.76,2.35,1.97,2.35s1.97-.62,1.97-2.35v-4.73h-1.9v-3.45h5.49v7.91c0,3.87-1.93,6.08-5.67,6.08S.2,105.1,.2,101.23Z"/>
        <path class="cls-3" d="M14.67,82.78h10.36v3.45h-6.56v6.39h5.22v3.45h-5.22v7.43h6.56v3.45H14.67v-24.18Z"/>
        <path class="cls-3" d="M27.9,82.78h4.77l3.7,14.47h.07v-14.47h3.39v24.18h-3.9l-4.56-17.65h-.07v17.65h-3.39v-24.18Z"/>
        <path class="cls-3" d="M43.35,82.78h5.8c3.8,0,5.67,2.11,5.67,5.98v12.23c0,3.87-1.87,5.98-5.67,5.98h-5.8v-24.18Zm5.73,20.73c1.21,0,1.93-.62,1.93-2.35v-12.57c0-1.73-.73-2.35-1.93-2.35h-1.93v17.27h1.93Z"/>
        <path class="cls-3" d="M58.07,82.78h10.36v3.45h-6.56v6.39h5.22v3.45h-5.22v7.43h6.56v3.45h-10.36v-24.18Z"/>
        <path class="cls-3" d="M71.3,82.78h5.63c3.94,0,5.63,1.83,5.63,5.56v1.49c0,2.49-.79,4.08-2.49,4.77v.07c1.9,.59,2.52,2.38,2.52,5.11v4.25c0,1.17,.03,2.04,.41,2.94h-3.87c-.21-.62-.35-1-.35-2.97v-4.42c0-2.25-.66-2.97-2.38-2.97h-1.31v10.36h-3.8v-24.18Zm5.18,10.36c1.42,0,2.28-.62,2.28-2.56v-1.87c0-1.73-.59-2.49-1.93-2.49h-1.73v6.91h1.38Z"/>
        <path class="cls-3" d="M92.13,82.78h10.36v3.45h-6.56v6.39h5.22v3.45h-5.22v7.43h6.56v3.45h-10.36v-24.18Z"/>
        <path class="cls-3" d="M113.38,106.89c-.73,.28-1.59,.41-2.52,.41-3.73,0-5.77-2.21-5.77-6.08v-12.71c0-3.87,2.04-6.08,5.77-6.08s5.77,2.21,5.77,6.08v12.71c0,1.66-.38,2.97-1.07,3.97,.28,.48,.73,.55,1.42,.55h.59v3.45h-1c-1.42,0-2.73-.52-3.18-2.31Zm-.55-5.42v-13.2c0-1.73-.76-2.38-1.97-2.38s-1.97,.66-1.97,2.38v13.2c0,1.73,.76,2.38,1.97,2.38s1.97-.66,1.97-2.38Z"/>
        <path class="cls-3" d="M119.74,101.23v-18.45h3.8v18.72c0,1.73,.73,2.35,1.93,2.35s1.93-.62,1.93-2.35v-18.72h3.66v18.45c0,3.87-1.93,6.08-5.67,6.08s-5.67-2.21-5.67-6.08Z"/>
        <path class="cls-3" d="M137.32,82.78h5.15l3.94,24.18h-3.8l-.69-4.8v.07h-4.32l-.69,4.73h-3.52l3.94-24.18Zm4.15,16.17l-1.69-11.95h-.07l-1.66,11.95h3.42Z"/>
        <path class="cls-3" d="M148.93,82.78h3.8v20.73h6.25v3.45h-10.05v-24.18Z"/>
        <path class="cls-3" d="M161.51,82.78h3.8v24.18h-3.8v-24.18Z"/>
        <path class="cls-3" d="M171.8,86.23h-3.97v-3.45h11.75v3.45h-3.97v20.73h-3.8v-20.73Z"/>
        <path class="cls-3" d="M185.72,96.67l-4.59-13.89h4.04l2.59,8.88h.07l2.59-8.88h3.7l-4.59,13.89v10.29h-3.8v-10.29Z"/>
      </g>
      <g>
        <path class="cls-2" d="M203.45,86.58h4.66c3.2,0,4.58,1.49,4.58,4.52v.79c0,2.02-.62,3.29-1.99,3.85v.06c1.66,.56,2.3,2.02,2.3,4.1v1.68c0,3.03-1.6,4.66-4.69,4.66h-4.86v-19.65Zm4.3,8c1.15,0,1.85-.5,1.85-2.08v-1.1c0-1.4-.48-2.02-1.57-2.02h-1.49v5.19h1.21Zm.56,8.84c1.04,0,1.6-.48,1.6-1.94v-1.71c0-1.83-.59-2.39-1.99-2.39h-1.38v6.04h1.77Z"/>
        <path class="cls-2" d="M217.17,97.86l-3.73-11.29h3.28l2.11,7.22h.06l2.11-7.22h3l-3.73,11.29v8.37h-3.09v-8.37Z"/>
        <path class="cls-2" d="M229.83,104.1c0-2.81,.79-4.52,3.09-6.94,2.36-2.5,3.03-3.99,3.03-5.81s-.62-2.25-1.6-2.25-1.6,.53-1.6,1.94v2.11h-2.92v-1.91c0-3.14,1.57-4.94,4.6-4.94s4.6,1.8,4.6,4.94c0,2.33-.96,4.41-3.82,7.44-1.85,1.96-2.33,2.95-2.33,4.32v.42h5.87v2.81h-8.93v-2.13Z"/>
        <path class="cls-2" d="M240.89,101.57v-10.33c0-3.14,1.66-4.94,4.69-4.94s4.69,1.8,4.69,4.94v10.33c0,3.14-1.66,4.94-4.69,4.94s-4.69-1.8-4.69-4.94Zm6.29,.2v-10.72c0-1.4-.62-1.94-1.6-1.94s-1.6,.53-1.6,1.94v10.72c0,1.4,.62,1.94,1.6,1.94s1.6-.53,1.6-1.94Z"/>
        <path class="cls-2" d="M252.12,101.63v-1.6h2.92v1.74c0,1.4,.62,1.94,1.6,1.94s1.6-.48,1.6-2.22v-1.6c0-1.83-.62-2.5-2.02-2.5h-1.04v-2.81h1.12c1.15,0,1.85-.5,1.85-2.08v-1.43c0-1.4-.65-1.97-1.54-1.97s-1.49,.53-1.49,1.83v1.29h-2.92v-1.04c0-3.14,1.57-4.89,4.52-4.89s4.52,1.71,4.52,4.86v.7c0,2.11-.67,3.4-2.19,3.96v.06c1.66,.62,2.27,2.05,2.27,4.04v1.74c0,3.14-1.57,4.86-4.6,4.86s-4.6-1.74-4.6-4.89Z"/>
        <path class="cls-2" d="M263.35,101.57v-10.33c0-3.14,1.66-4.94,4.69-4.94s4.69,1.8,4.69,4.94v10.33c0,3.14-1.66,4.94-4.69,4.94s-4.69-1.8-4.69-4.94Zm6.29,.2v-10.72c0-1.4-.62-1.94-1.6-1.94s-1.6,.53-1.6,1.94v10.72c0,1.4,.62,1.94,1.6,1.94s1.6-.53,1.6-1.94Z"/>
      </g>
    </g>
    <g>
      <g>
        <path class="cls-3" d="M3.73,3.56H0V.32H11.01V3.56h-3.73V23H3.73V3.56Z"/>
        <path class="cls-3" d="M13.38,.32h3.56V9.56h3.82V.32h3.56V23h-3.56V12.8h-3.82v10.2h-3.56V.32Z"/>
        <path class="cls-3" d="M27.63,.32h9.72V3.56h-6.15v5.99h4.89v3.24h-4.89v6.96h6.15v3.24h-9.72V.32Z"/>
        <path class="cls-3" d="M45.02,.32h3.43l1.59,17.43h.06L51.79,.32h3.89l1.68,17.43h.06L59.02,.32h3.08l-2.3,22.68h-4.44l-1.62-15.29h-.06l-1.62,15.29h-4.73L45.02,.32Z"/>
        <path class="cls-3" d="M64.29,17.62V5.7c0-3.63,1.91-5.7,5.41-5.7s5.41,2.07,5.41,5.7v11.92c0,3.63-1.91,5.7-5.41,5.7s-5.41-2.07-5.41-5.7Zm7.26,.23V5.47c0-1.62-.71-2.24-1.85-2.24s-1.85,.62-1.85,2.24v12.37c0,1.62,.71,2.24,1.85,2.24s1.85-.62,1.85-2.24Z"/>
        <path class="cls-3" d="M78.16,.32h5.28c3.69,0,5.28,1.72,5.28,5.22v1.39c0,2.33-.75,3.82-2.33,4.47v.06c1.78,.55,2.36,2.23,2.36,4.79v3.98c0,1.1,.03,1.91,.39,2.75h-3.63c-.19-.58-.32-.94-.32-2.79v-4.15c0-2.11-.62-2.79-2.24-2.79h-1.23v9.72h-3.56V.32Zm4.86,9.72c1.33,0,2.14-.58,2.14-2.4v-1.75c0-1.62-.55-2.33-1.81-2.33h-1.62v6.48h1.3Z"/>
        <path class="cls-3" d="M91.86,.32h3.56V19.76h5.86v3.24h-9.43V.32Z"/>
        <path class="cls-3" d="M103.65,.32h5.44c3.56,0,5.31,1.98,5.31,5.6v11.47c0,3.63-1.75,5.6-5.31,5.6h-5.44V.32Zm5.38,19.44c1.13,0,1.81-.58,1.81-2.2V5.77c0-1.62-.68-2.2-1.81-2.2h-1.81V19.76h1.81Z"/>
        <path class="cls-3" d="M123.28,.32h3.56V23h-3.56V.32Z"/>
        <path class="cls-3" d="M129.53,17.62v-1.3h3.37v1.56c0,1.62,.71,2.2,1.85,2.2s1.85-.58,1.85-2.27c0-1.88-.71-3.08-3.04-5.12-2.98-2.62-3.95-4.47-3.95-7.06,0-3.56,1.85-5.64,5.31-5.64s5.18,2.07,5.18,5.7v.94h-3.37v-1.17c0-1.62-.65-2.24-1.78-2.24s-1.78,.62-1.78,2.17c0,1.65,.75,2.85,3.08,4.89,2.98,2.62,3.92,4.44,3.92,7.26,0,3.69-1.88,5.77-5.38,5.77s-5.25-2.07-5.25-5.7Z"/>
      </g>
      <line class="cls-5" x1="149.64" y1="12.18" x2="290.11" y2="12.18"/>
    </g>
  </g>
</svg>