<svg xmlns="http://www.w3.org/2000/svg" width="69" height="69" viewBox="0 0 69 69" fill="none">
    <path fill="#2BADE2" fill-rule="evenodd"
        d="M35.656 1.28a35.064 35.064 0 0 0-8.913 1.4c-5.887 1.702-11.594 5.267-15.66 9.783-5.13 5.696-8.029 12.153-8.87 19.756-.183 1.641-.287 5.93-.151 6.21.053.11.122.49.153.843.39 4.474 1.936 9.364 4.255 13.464 2.431 4.298 5.982 8.23 10.09 11.17 3.7 2.649 8.325 4.668 12.792 5.583 4.19.858 7.226.977 11.557.453 10.883-1.318 20.62-7.953 25.937-17.675 2.063-3.772 3.334-7.718 3.948-12.263.162-1.197.2-1.942.206-4.076.01-3.335-.204-5.275-.904-8.213-2.311-9.698-8.81-17.974-17.767-22.627-5-2.596-11.001-3.967-16.673-3.807Zm-7.182 5.957c-2.756 2.831-5.121 6.163-6.958 9.8-.413.817-.805 1.487-.87 1.488-.183.001-2.759-1.314-3.795-1.938-1.271-.766-2.619-1.712-2.619-1.84 0-.142 1.482-1.566 2.634-2.53A30.244 30.244 0 0 1 28.53 6.168c.553-.148 1.062-.272 1.131-.276.07-.003-.465.602-1.188 1.345ZM44.319 6.12c4.837 1.227 9.2 3.619 13.127 7.197.552.503 1.004.948 1.004.989 0 .096-1.37 1.068-2.627 1.862-.825.522-3.382 1.898-3.526 1.898-.024 0-.301-.484-.616-1.076-2.007-3.78-4.314-6.917-7.275-9.892-.664-.667-1.165-1.213-1.113-1.213.053 0 .514.106 1.026.235ZM39.26 8.488c2.593 2.179 5.104 5.078 7.013 8.096.676 1.07 1.762 3.015 1.762 3.159 0 .03-.384.18-.853.33-2.367.76-5.526 1.373-7.986 1.55l-.936.067v-6.992c0-5.567.023-6.978.114-6.925.063.036.462.358.886.715Zm-4.929 6.374v6.87l-.205-.002c-.462-.002-2.463-.195-3.403-.328-2.214-.314-5.71-1.137-5.71-1.344 0-.053.253-.573.563-1.157 1.78-3.353 3.522-5.794 6.032-8.45.694-.735 2.554-2.459 2.653-2.459.038 0 .07 3.092.07 6.87Zm27.715 3.893c2.985 4.47 4.716 9.503 5.066 14.723.044.652.035.986-.027.987-.065.002-9.825 0-10.562-.002-.03 0-.08-.464-.111-1.03-.121-2.223-.58-5.045-1.216-7.488-.26-.998-1.084-3.582-1.343-4.214-.043-.104.226-.275 1.105-.705 1.518-.742 3.38-1.867 4.836-2.922l1.168-.846.206.245c.113.134.509.697.879 1.252ZM14.69 19.759c.729.439 2.044 1.15 2.924 1.582.879.431 1.607.79 1.617.796.01.007-.147.526-.348 1.154-1.05 3.28-1.706 6.765-1.873 9.958-.035.668-.098 1.218-.141 1.224-.043.006-.16.01-.26.01l-5.461-.01-5.278-.01.07-1.03c.34-5.037 2.028-10.04 4.834-14.329.967-1.478.783-1.402 1.758-.724.458.32 1.43.94 2.158 1.379Zm35.297 4.468c1.087 3.123 1.852 6.872 1.911 9.357l.02.876-6.805.005-6.807.004-.023-4.473-.024-4.473 1.394-.113c3.018-.247 6.133-.883 9.205-1.88.377-.123.712-.228.744-.233.032-.005.206.414.385.93Zm-24.275.067c2.326.596 4.92 1.024 6.93 1.145.503.03 1.089.077 1.303.103l.389.048-.024 4.442-.023 4.442-6.259-.006-6.418-.006c-.203 0-.208-.45-.024-2.256.257-2.533.858-5.41 1.598-7.647l.292-.882.426.131c.235.073 1.049.291 1.81.486ZM17.014 39.11c.273 3.418 1.02 7.166 1.957 9.821.144.407.225.763.18.79-.045.028-.605.31-1.244.627a39.537 39.537 0 0 0-5.518 3.337l-.519.379-.498-.71a31.056 31.056 0 0 1-4.624-10.102c-.256-1.017-.672-3.37-.772-4.37l-.049-.482h11.03l.057.71Zm17.317 3.183v3.893h-.57c-.743 0-3.398.305-4.701.54-1.504.272-2.93.606-4.318 1.011-.676.198-1.258.342-1.294.32-.095-.06-.674-1.94-.985-3.2-.463-1.876-.729-3.496-.966-5.884l-.056-.573h12.89v3.893Zm17.632-3.412c0 1.274-.5 4.538-.996 6.51-.244.967-.817 2.906-.88 2.977-.014.017-.472-.114-1.016-.29-3.081-.998-6.76-1.702-9.731-1.862l-1.08-.058V38.4h13.704v.481Zm15.108 0c-.565 5.506-2.656 10.833-6.023 15.348-.012.016-.262-.154-.556-.377-1.411-1.075-5.347-3.423-6.039-3.602-.113-.03-.205-.08-.205-.113a9.5 9.5 0 0 1 .234-.745c.59-1.74 1.196-4.184 1.498-6.05.233-1.44.46-3.593.46-4.356V38.4h10.68l-.049.481Zm-32.74 18.113c0 3.879-.032 7.053-.071 7.053-.11 0-2.061-1.861-3.038-2.896-2.212-2.344-4.256-5.285-5.754-8.282-.308-.616-.526-1.152-.485-1.191.105-.1 2.24-.678 3.501-.948 1.597-.342 4.34-.724 5.596-.778l.251-.01v7.052Zm6.441-6.813c2.218.239 4.364.685 6.691 1.39.743.226 1.119.383 1.12.47 0 .07-.33.765-.735 1.544-2.151 4.138-4.893 7.657-8.238 10.575-.65.567-1.22 1.045-1.266 1.062-.051.019-.084-2.988-.084-7.628v-7.658l.616.054c.34.03 1.193.116 1.896.191ZM21.519 54.98c1.807 3.578 3.92 6.569 6.857 9.709.4.428.7.79.665.803-.138.053-2.672-.749-3.882-1.23-3.694-1.466-7.038-3.62-9.82-6.32l-.97-.943.229-.184c.38-.306 2.193-1.504 2.911-1.922 1.033-.601 2.968-1.565 3.09-1.54.06.014.474.745.92 1.627Zm34.647.553c1.176.732 2.284 1.531 2.284 1.647 0 .116-1.857 1.828-2.787 2.57-3.024 2.412-6.543 4.258-10.18 5.34-.554.166-.546.138.185-.63 2.422-2.547 4.59-5.69 6.362-9.228l.768-1.535 1.159.591c.637.325 1.631.885 2.209 1.245Z"
        clip-rule="evenodd" />
    <path fill="#000" fill-rule="evenodd"
        d="M33.656.012a35.064 35.064 0 0 0-8.913 1.4c-5.887 1.701-11.594 5.267-15.66 9.783C3.952 16.89 1.053 23.348.212 30.95c-.183 1.641-.287 5.93-.151 6.21.053.11.122.49.153.842.39 4.474 1.936 9.365 4.255 13.465 2.431 4.298 5.982 8.23 10.09 11.17 3.7 2.649 8.325 4.668 12.792 5.583 4.19.858 7.226.977 11.557.453 10.883-1.318 20.62-7.953 25.937-17.675 2.063-3.772 3.334-7.718 3.948-12.263.162-1.197.2-1.942.206-4.076.01-3.335-.204-5.275-.904-8.213C65.785 16.75 59.286 8.473 50.33 3.82c-5-2.596-11.001-3.967-16.673-3.808Zm-7.182 5.956c-2.756 2.832-5.121 6.164-6.958 9.8-.413.818-.805 1.488-.87 1.488-.183.002-2.759-1.313-3.795-1.937-1.272-.766-2.619-1.712-2.619-1.84 0-.142 1.482-1.566 2.634-2.53A30.244 30.244 0 0 1 26.53 4.9c.553-.148 1.062-.272 1.131-.276.07-.003-.465.601-1.188 1.344Zm15.845-1.115c4.837 1.227 9.2 3.619 13.127 7.197.552.503 1.004.948 1.004.989 0 .096-1.37 1.068-2.627 1.862-.825.522-3.382 1.898-3.526 1.898-.024 0-.301-.484-.616-1.076-2.007-3.78-4.314-6.917-7.275-9.892-.664-.667-1.165-1.214-1.113-1.214.053 0 .514.107 1.026.236ZM37.26 7.22c2.593 2.179 5.104 5.078 7.013 8.096.676 1.07 1.762 3.015 1.762 3.159 0 .03-.384.18-.853.33-2.367.76-5.526 1.373-7.986 1.55l-.936.067V13.43c0-5.567.023-6.978.114-6.925.063.036.462.358.886.715Zm-4.929 6.374v6.87l-.205-.002c-.462-.002-2.463-.195-3.403-.328-2.214-.314-5.71-1.137-5.71-1.344 0-.053.253-.574.563-1.158 1.78-3.352 3.522-5.793 6.032-8.45.694-.734 2.554-2.458 2.653-2.458.038 0 .07 3.091.07 6.87Zm27.715 3.892c2.985 4.471 4.716 9.504 5.066 14.724.044.651.035.986-.027.987-.065.001-9.825 0-10.562-.002-.03 0-.08-.464-.111-1.03-.121-2.223-.58-5.045-1.216-7.488-.26-.998-1.084-3.582-1.343-4.214-.043-.104.226-.275 1.105-.705 1.518-.742 3.38-1.867 4.836-2.922l1.168-.846.206.244c.113.135.509.698.879 1.252ZM12.69 18.491c.729.439 2.044 1.15 2.924 1.582.879.431 1.607.79 1.617.796.01.007-.147.526-.348 1.154-1.05 3.28-1.706 6.765-1.873 9.958-.035.668-.098 1.218-.141 1.224a2.8 2.8 0 0 1-.26.01l-5.461-.01-5.278-.01.07-1.03c.34-5.037 2.028-10.04 4.834-14.329.967-1.478.783-1.402 1.758-.724.458.32 1.43.94 2.158 1.379Zm35.297 4.468c1.087 3.123 1.852 6.872 1.911 9.357l.02.876-6.805.005-6.807.004-.023-4.473-.024-4.473 1.394-.114c3.018-.246 6.133-.882 9.205-1.88.377-.122.712-.227.744-.232.032-.005.206.414.385.93Zm-24.275.067c2.326.595 4.92 1.024 6.93 1.145.503.03 1.089.076 1.303.103l.389.048-.024 4.442-.023 4.442-6.259-.006-6.418-.006c-.203 0-.208-.45-.024-2.256.257-2.533.858-5.41 1.598-7.647l.292-.882.426.132c.235.072 1.049.29 1.81.485Zm-8.697 14.817c.273 3.418 1.02 7.165 1.957 9.82.144.408.225.764.18.791-.045.028-.605.31-1.244.627a39.527 39.527 0 0 0-5.518 3.337l-.519.379-.498-.71a31.054 31.054 0 0 1-4.624-10.102c-.256-1.017-.672-3.37-.772-4.37l-.049-.482h11.03l.057.71Zm17.317 3.183v3.893h-.57c-.743 0-3.398.305-4.701.54-1.504.272-2.93.606-4.318 1.011-.676.198-1.258.341-1.294.32-.095-.06-.674-1.94-.985-3.2-.463-1.876-.729-3.496-.966-5.884l-.056-.573h12.89v3.893Zm17.632-3.412c0 1.274-.5 4.538-.996 6.51-.244.967-.817 2.906-.88 2.977-.014.017-.472-.114-1.016-.29-3.081-.998-6.76-1.702-9.731-1.862l-1.08-.058v-7.758h13.704v.481Zm15.108 0c-.565 5.506-2.656 10.833-6.023 15.348-.012.016-.262-.154-.556-.378-1.411-1.074-5.347-3.422-6.039-3.602-.113-.029-.205-.08-.205-.112s.106-.368.234-.745c.59-1.74 1.196-4.184 1.498-6.05.233-1.44.46-3.593.46-4.356v-.586h10.68l-.049.481Zm-32.74 18.113c0 3.879-.032 7.053-.071 7.053-.11 0-2.061-1.861-3.038-2.896-2.212-2.344-4.256-5.285-5.754-8.282-.308-.616-.526-1.152-.485-1.191.105-.1 2.24-.678 3.501-.949 1.597-.341 4.34-.723 5.596-.777l.251-.01v7.052Zm6.441-6.813c2.218.239 4.364.685 6.691 1.39.743.226 1.119.383 1.12.47 0 .07-.33.765-.735 1.543-2.151 4.139-4.893 7.658-8.238 10.576-.65.567-1.22 1.045-1.266 1.062-.051.019-.084-2.988-.084-7.628V48.67l.616.054c.34.03 1.193.116 1.896.191Zm-19.253 4.798c1.807 3.578 3.92 6.569 6.857 9.709.4.428.7.79.665.803-.138.053-2.672-.75-3.882-1.23-3.694-1.466-7.038-3.62-9.82-6.32l-.97-.943.229-.184c.38-.306 2.193-1.504 2.911-1.922 1.033-.601 2.968-1.565 3.09-1.54.06.013.474.745.92 1.627Zm34.647.553c1.176.732 2.284 1.531 2.284 1.647 0 .116-1.857 1.828-2.787 2.57-3.024 2.412-6.543 4.258-10.18 5.34-.554.166-.546.139.185-.63 2.422-2.547 4.59-5.69 6.362-9.228l.768-1.535 1.159.591c.637.325 1.631.885 2.209 1.245Z"
        clip-rule="evenodd" />
</svg>