<svg xmlns="http://www.w3.org/2000/svg" fill="none" viewBox="0 0 32 32">
  <path fill="#fff" d="M3.6 9.2h24.8v12.9H3.6z"/>
  <path fill="#000" d="M16 0a16 16 0 1 0 0 32 16 16 0 0 0 0-32Zm-4.5 18.2c0 2-1.6 3.3-3.7 3.3-2.2 0-3.8-1.3-3.8-3.3V13c0-2 1.6-3.3 3.7-3.3s3.8 1.2 3.8 3.2v5.3Zm8.9 3h-2.5L16 17.5l-.8-1.6v5.3h-2.7V9.9h2.7l1.7 3.8.7 1.6V9.9h2.7v11.3Zm6.4-6.9v2.2h-2.2v2H28v2.7h-6.5V9.9H28v2.4h-3.5v2h2.3ZM7.7 12.1a.6.6 0 0 0-.7.6v5.7a.6.6 0 0 0 .7.5.6.6 0 0 0 .7-.5v-5.7a.7.7 0 0 0-.7-.6Z"/>
</svg>