<svg xmlns="http://www.w3.org/2000/svg" width="52" height="78" viewBox="0 0 52 78" fill="none">
    <path stroke="#2BADE2" stroke-width="6"
        d="M50.5 28c0 3.164-.875 7.886-2.466 13.343-1.574 5.4-3.786 11.311-6.319 16.781-2.542 5.492-5.353 10.42-8.088 13.924-1.37 1.755-2.646 3.056-3.78 3.895C28.69 76.8 27.921 77 27.5 77c-.42 0-1.19-.2-2.347-1.057-1.134-.839-2.41-2.14-3.78-3.895-2.736-3.504-5.546-8.432-8.088-13.924-2.533-5.47-4.745-11.38-6.319-16.78C5.376 35.885 4.5 31.163 4.5 28c0-12.703 10.297-23 23-23s23 10.297 23 23Z" />
    <circle cx="27" cy="28.5" r="9.5" stroke="#2BADE2" stroke-width="6" />
    <path stroke="#000" stroke-width="6"
        d="M49 26c0 3.164-.875 7.886-2.466 13.343-1.574 5.4-3.786 11.311-6.319 16.781-2.542 5.492-5.353 10.42-8.088 13.924-1.37 1.755-2.646 3.056-3.78 3.895C27.19 74.8 26.421 75 26 75c-.42 0-1.19-.2-2.347-1.057-1.134-.839-2.41-2.14-3.78-3.895-2.736-3.504-5.546-8.432-8.088-13.924-2.533-5.47-4.745-11.38-6.319-16.78C3.876 33.885 3 29.163 3 26 3 13.297 13.297 3 26 3s23 10.297 23 23Z" />
    <circle cx="25.5" cy="26.5" r="9.5" stroke="#000" stroke-width="6" />
</svg>