<svg xmlns="http://www.w3.org/2000/svg" fill="none" viewBox="0 0 54 80">
  <path stroke="#2BADE2" stroke-width="6" d="M50.5 28c0 3.2-.9 7.9-2.5 13.3a123 123 0 0 1-6.3 16.8 74 74 0 0 1-8 14c-1.4 1.7-2.7 3-3.9 3.8-1.1.9-1.9 1.1-2.3 1.1-.4 0-1.2-.2-2.3-1-1.2-.9-2.5-2.2-3.8-4a74 74 0 0 1-8.1-13.9A123 123 0 0 1 7 41.3 52.7 52.7 0 0 1 4.5 28a23 23 0 0 1 46 0Z"/>
  <circle cx="27" cy="28.5" r="9.5" stroke="#2BADE2" stroke-width="6"/>
  <path stroke="#000" stroke-width="6" d="M49 26c0 3.2-.9 7.9-2.5 13.3a123 123 0 0 1-6.3 16.8 74 74 0 0 1-8 14c-1.4 1.7-2.7 3-3.9 3.8-1.1.9-1.9 1.1-2.3 1.1-.4 0-1.2-.2-2.3-1-1.2-.9-2.5-2.2-3.8-4a74 74 0 0 1-8.1-13.9 123 123 0 0 1-6.3-16.8A52.7 52.7 0 0 1 3 26a23 23 0 0 1 46 0Z"/>
  <circle cx="25.5" cy="26.5" r="9.5" stroke="#000" stroke-width="6"/>
</svg>
