<?xml version="1.0" standalone="no"?>
<!DOCTYPE svg PUBLIC "-//W3C//DTD SVG 20010904//EN"
 "http://www.w3.org/TR/2001/REC-SVG-20010904/DTD/svg10.dtd">
<svg version="1.0" xmlns="http://www.w3.org/2000/svg"
 width="512.000000pt" height="512.000000pt" viewBox="0 0 512.000000 512.000000"
 preserveAspectRatio="xMidYMid meet">
<metadata>
Created by potrace 1.14, written by Peter Selinger 2001-2017
</metadata>
<g transform="translate(0.000000,512.000000) scale(0.100000,-0.100000)"
fill="#000000" stroke="none">
<path d="M2378 5115 c-1 -1 -39 -5 -82 -9 -44 -4 -82 -9 -85 -11 -4 -2 -34 -7
-66 -10 -87 -10 -321 -71 -445 -115 -192 -69 -422 -184 -553 -276 -26 -19 -51
-34 -56 -34 -5 0 -11 -3 -13 -8 -1 -4 -40 -35 -85 -70 -82 -61 -151 -123 -246
-216 -44 -43 -78 -81 -163 -178 -48 -55 -145 -191 -199 -278 -138 -224 -245
-478 -309 -736 -22 -88 -28 -116 -41 -199 -2 -11 -6 -36 -9 -55 -27 -161 -29
-525 -3 -700 53 -355 156 -655 327 -950 44 -76 159 -248 183 -272 7 -7 19 -22
27 -34 81 -117 286 -315 466 -452 261 -198 621 -368 924 -438 83 -18 172 -36
205 -40 22 -3 46 -7 54 -10 77 -25 557 -25 706 1 17 3 59 10 95 16 484 82 971
331 1331 681 66 64 101 101 195 211 14 15 51 64 84 110 33 45 63 87 67 92 21
25 125 209 167 293 98 196 187 462 222 662 4 25 8 47 9 50 1 3 5 34 9 70 5 36
10 74 13 85 3 11 6 112 7 225 4 271 -18 459 -80 690 -14 52 -27 102 -29 110
-4 18 -53 152 -85 230 -12 30 -53 116 -91 190 -219 423 -545 768 -964 1022
-62 38 -299 158 -310 158 -4 0 -21 6 -38 14 -34 16 -202 75 -227 81 -8 2 -60
15 -115 29 -55 13 -116 27 -135 30 -19 3 -46 8 -60 10 -111 21 -214 29 -392
31 -113 2 -208 2 -210 0z m-1048 -1549 c224 -21 419 -160 480 -341 15 -43 15
-43 25 -95 13 -66 9 -1001 -5 -1050 -18 -67 -63 -149 -110 -203 -67 -76 -196
-153 -286 -172 -16 -3 -42 -9 -59 -13 -59 -13 -258 -6 -325 12 -74 19 -176 66
-211 97 -13 12 -33 29 -44 38 -69 54 -137 179 -153 275 -9 57 -8 970 1 1031
10 62 67 180 110 226 116 123 233 178 417 196 30 3 56 7 58 8 2 2 15 1 30 -1
15 -2 47 -6 72 -8z m1928 -929 l2 -907 -201 0 -200 0 -101 208 c-55 114 -122
252 -148 307 -26 55 -73 152 -104 215 l-55 115 -1 -422 0 -423 -215 0 -215 0
2 902 3 902 204 1 c204 0 231 -4 231 -36 0 -5 16 -44 36 -86 62 -134 288 -633
319 -706 13 -28 14 20 15 400 l0 432 23 3 c12 2 108 3 212 3 l190 -1 3 -907z
m1208 891 c6 -4 10 -77 9 -195 l0 -188 -275 0 -275 0 -1 -158 -2 -157 52 -1
c28 0 111 0 184 0 l132 0 0 -170 0 -169 -47 -1 c-27 0 -106 -1 -178 -2 l-130
-2 -2 -167 -1 -168 277 0 277 0 0 -210 c0 -183 -2 -210 -15 -211 -20 -1 -1002
-1 -1017 0 -9 1 -12 232 -12 900 0 811 2 900 16 903 31 6 998 2 1008 -4z"/>
<path d="M1153 3155 c-18 -18 -33 -39 -34 -46 -1 -19 -1 -898 0 -932 1 -17 12
-40 30 -58 56 -55 165 -33 188 38 5 16 8 236 8 489 -1 416 -3 464 -18 488 -22
33 -49 47 -100 51 -35 3 -45 -1 -74 -30z"/>
</g>
</svg>
