<svg width="121" height="120" viewBox="0 0 121 120" fill="none" xmlns="http://www.w3.org/2000/svg">
<rect x="0.800781" width="120" height="120" rx="60" fill="#EF6C00"/>
<g clip-path="url(#clip0_30_1842)">
<path d="M75.3844 42.7777C75.3844 42.7777 74.1129 42.7471 73.2647 42.1227C71.6293 40.9199 71.314 38.8647 71.314 38.8647C71.314 38.8647 73.2434 38.4729 74.6794 39.8227C75.6935 40.773 75.3844 42.7777 75.3844 42.7777ZM75.9006 42.7777C75.9006 42.7777 77.1721 42.7471 78.0203 42.1227C79.6558 40.9199 79.971 38.8647 79.971 38.8647C79.971 38.8647 78.0416 38.4729 76.6057 39.8227C75.59 40.773 75.9006 42.7777 75.9006 42.7777ZM75.3844 46.8606C75.3844 46.8606 74.1129 46.83 73.2647 46.2056C71.6293 45.0028 71.314 42.9476 71.314 42.9476C71.314 42.9476 73.2434 42.5573 74.6794 43.9055C75.6935 44.8543 75.3844 46.8606 75.3844 46.8606ZM75.9006 46.8606C75.9006 46.8606 77.1721 46.83 78.0203 46.2056C79.6558 45.0028 79.971 42.9476 79.971 42.9476C79.971 42.9476 78.0416 42.5573 76.6057 43.9055C75.59 44.8543 75.9006 46.8606 75.9006 46.8606ZM75.9037 34.6502C75.9037 34.6502 77.4371 34.537 78.2122 33.6999C79.4852 32.318 79.1335 30.2949 79.1335 30.2949C79.1335 30.2949 77.5391 30.4219 76.458 31.8298C75.7103 32.8046 75.9037 34.6502 75.9037 34.6502ZM75.3768 34.6502C75.3768 34.6502 73.8434 34.537 73.0683 33.6999C71.7952 32.318 72.147 30.2949 72.147 30.2949C72.147 30.2949 73.7413 30.4219 74.824 31.8298C75.5717 32.8046 75.3768 34.6502 75.3768 34.6502ZM74.2423 56.1863V47.7818C74.2423 47.7818 74.9672 48.0282 75.6448 48.0282C76.3209 48.0282 77.0732 47.7834 77.0732 47.7834V64.3H74.2423V56.1863ZM74.2439 65.4968V78.8151H77.0701V65.4968H74.2439ZM13.7428 48.0802H24.7113V50.7537H16.6711V53.5986H23.857V56.2735H16.6711V61.4475H13.7428V48.0802ZM28.2943 48.0802H39.1669V50.6971H31.2013V53.4073H38.3141V56.0241H31.2013V58.8307H39.2644V61.4475H28.2943V48.0802ZM43.7154 48.0802H54.023V50.6971H46.6239V53.4073H53.2967V56.0241H46.6239V58.8307H54.1174V61.4475H43.7154V48.0802ZM63.7063 58.7924C66.0986 58.7924 67.7157 57.1688 67.7157 54.8014V54.7631C67.7157 52.3973 66.0986 50.7353 63.7063 50.7353H61.2242V58.794H63.7063V58.7924ZM58.2974 48.0802H63.7048C67.8833 48.0802 70.7719 50.9634 70.7719 54.7249V54.7631C70.7719 58.5262 67.8833 61.4475 63.7048 61.4475H58.2974V48.0802ZM81.2075 48.0802H83.95L89.805 56.3118V48.0802H92.7409V61.4475H90.2101L84.1434 52.9512V61.4475H81.2075V48.0802ZM96.0956 54.581V54.5428C96.0956 50.7445 99.0406 47.6319 103.068 47.6319C105.461 47.6319 106.906 48.2807 108.293 49.4636L106.45 51.701C105.424 50.8394 104.513 50.3451 102.971 50.3451C100.844 50.3451 99.1533 52.2366 99.1533 54.506V54.5443C99.1533 56.9882 100.824 58.7848 103.181 58.7848C104.244 58.7848 105.196 58.5155 105.936 57.9829V56.0731H102.992V53.5312H108.768V59.3372C107.401 60.5033 105.52 61.4567 103.088 61.4567C98.9431 61.4552 96.0956 58.5338 96.0956 54.581ZM17.8131 68.9048L19.5795 73.2386H16.0437L17.8131 68.9048ZM16.502 65.3697L10.8008 78.8319H13.7854L15.0006 75.8325H20.6242L21.8393 78.8319H24.9001L19.1988 65.3697H16.502ZM37.4629 65.4662L33.9986 71.0151L30.5359 65.4662H27.3654V78.8319H30.1186V70.1045L33.924 75.7147H33.9986L37.8421 70.0479V78.8319H40.6333V65.4662H37.4629ZM45.0143 65.4662V78.8319H55.3021V76.2166H47.9213V73.41H54.3519V70.7932H47.9213V68.0815H55.2077V65.4662H45.0143Z" fill="white"/>
<path d="M65.0114 71.9566C66.4383 71.9566 67.2529 71.193 67.2529 70.0652V70.0269C67.2529 68.769 66.3789 68.1171 64.9536 68.1171H62.2979V71.9566H65.0114ZM59.3711 65.465H65.2002C66.892 65.465 68.2047 65.941 69.0787 66.8209C69.8173 67.5646 70.2178 68.6175 70.2178 69.8754V69.9137C70.2178 72.0729 69.0589 73.4273 67.3671 74.0577L70.6152 78.8323H67.1966L64.346 74.5536H62.2963V78.8323H59.3711V65.465ZM80.9213 72.1892V72.1464C80.9213 68.3466 83.7704 65.2324 87.856 65.2324C90.5711 65.2324 92.0999 66.2623 93.4841 67.7039L91.5411 69.7683C90.4736 68.6634 89.263 67.9457 87.8362 67.9457C85.5947 67.9457 83.979 69.8172 83.979 72.1097V72.1464C83.979 74.4388 85.5551 76.3486 87.8362 76.3486C89.3559 76.3486 90.6015 75.5467 91.669 74.4755L93.5161 76.2997C92.0984 77.8361 90.5376 79.0603 87.7387 79.0603C83.8283 79.0603 80.9213 76.0227 80.9213 72.1892Z" fill="white"/>
<path d="M103.041 68.4293L105.09 73.0646H100.966L103.041 68.4293ZM101.644 65.1973L95.6758 78.6594H98.6574L99.9289 75.6631H106.183L107.456 78.6594H110.43L104.465 65.1973H101.644Z" fill="white"/>
<path d="M75.6541 26C75.5643 26.0964 74.3445 27.4155 74.3445 29.3147C74.3445 30.4792 75.5627 31.1878 75.6541 31.2582C75.744 31.1893 76.9637 30.4792 76.9637 29.3147C76.9637 27.4155 75.744 26.0964 75.6541 26ZM75.8993 38.6557C75.8993 38.6557 77.2408 38.7521 78.0159 38.0818C79.4351 36.8606 79.3773 34.5805 79.3773 34.5805C79.3773 34.5805 77.3764 34.5667 76.4566 36.0603C75.8384 37.0626 75.8993 38.6557 75.8993 38.6557ZM75.3846 38.6557C75.3846 38.6557 74.043 38.7521 73.2679 38.0818C71.8487 36.8606 71.9066 34.5805 71.9066 34.5805C71.9066 34.5805 73.9075 34.5667 74.8272 36.0603C75.4455 37.0626 75.3846 38.6557 75.3846 38.6557ZM112.123 48.9624H111.716V49.5179H112.132C112.342 49.5179 112.455 49.4046 112.455 49.2424C112.455 49.0557 112.328 48.9624 112.123 48.9624ZM112.47 49.8071L112.93 50.485H112.446L112.045 49.876H111.718V50.485H111.302V48.592H112.138C112.589 48.592 112.877 48.8231 112.877 49.2164C112.875 49.5271 112.709 49.7184 112.47 49.8071ZM112.035 48.009C111.139 48.009 110.465 48.7221 110.465 49.5975C110.465 50.4728 111.135 51.1752 112.025 51.1752C112.921 51.1752 113.595 50.4621 113.595 49.5867C113.595 48.7114 112.924 48.009 112.035 48.009ZM112.025 51.3711C111.033 51.3711 110.259 50.5692 110.259 49.5959C110.259 48.6226 111.042 47.8116 112.035 47.8116C113.027 47.8116 113.801 48.6135 113.801 49.5867C113.801 50.56 113.018 51.3711 112.025 51.3711Z" fill="white"/>
</g>
<defs>
<clipPath id="clip0_30_1842">
<rect width="103" height="53.0606" fill="white" transform="translate(10.8008 26)"/>
</clipPath>
</defs>
</svg>
