<svg preserveAspectRatio="xMidYMid meet" shape-rendering="geometricPrecision" xmlns="http://www.w3.org/2000/svg" width="675.68" height="346.36" overflow="visible"><style>.st0{fill:#4E5B31}.st1{fill:#DE7C00}</style><path class="st0" d="M416.18 257.62v87.13h18.54v-87.13zM45.99 280.05l11.59 28.3H34.4l11.59-28.3zm-8.6-23.07L0 344.86h19.57l7.98-19.57h36.89l7.98 19.57H92.5l-37.4-87.88H37.39zM174.9 257.61l-22.72 36.22-22.72-36.22h-20.8v87.25h18.06v-56.97l24.95 36.62h.51l25.21-36.99v57.34h18.31v-87.25zM224.44 257.61v87.25h67.49v-17.07h-48.42v-18.33h42.18v-17.07h-42.18v-17.71h47.79v-17.07zM355.61 299.99c9.36 0 14.71-4.99 14.71-12.35v-.25c0-8.21-5.74-12.47-15.09-12.47H337.8v25.07h17.81zm-37-42.39h38.24c11.1 0 19.7 3.12 25.45 8.85 4.84 4.86 7.46 11.72 7.46 19.95v.25c0 14.1-7.61 22.94-18.69 27.05l21.31 31.17h-22.43l-18.69-27.93H337.8v27.93h-19.19V257.6zM459.98 301.5v-.28c0-24.8 18.69-45.12 45.49-45.12 17.81 0 27.84 6.72 36.93 16.13l-12.75 13.48c-6.99-7.22-14.94-11.9-24.31-11.9-14.7 0-25.3 12.22-25.3 27.17v.24c0 14.97 10.34 27.43 25.3 27.43 9.97 0 18.15-5.23 25.15-12.23l12.12 11.91c-9.3 10.02-19.54 18.02-37.9 18.02-25.65.01-44.73-19.82-44.73-44.85M605.09 276.97l13.44 30.25h-27.05l13.61-30.25zm-9.17-21.1l-39.14 87.87h19.56l8.34-19.56h41.03l8.36 19.56h19.51l-39.12-87.87h-18.54z"/><g><path class="st1" d="M19.3 144.12h71.96v17.46H38.5v18.57h47.15v17.46H38.5v33.77H19.3zM114.76 144.12h71.33v17.09h-52.26v17.69h46.65v17.09h-46.65v18.3h52.88v17.09h-71.95zM215.91 144.12h67.62v17.09h-48.54v17.69h43.78v17.09h-43.78v18.3h49.17v17.09h-68.25zM347.05 214.05c15.7 0 26.3-10.59 26.3-26.05v-.25c0-15.45-10.6-26.3-26.3-26.3h-16.28v52.6h16.28zm-35.47-69.92h35.47c27.41 0 46.35 18.82 46.35 43.37v.25c0 24.56-18.94 43.63-46.35 43.63h-35.47v-87.25zM461.86 144.12h17.98l38.42 53.73v-53.73h19.26v87.26h-16.6l-39.8-55.47v55.47h-19.26zM559.53 186.56v-.25c0-24.8 19.32-45.12 45.74-45.12 15.7 0 25.18 4.23 34.28 11.95l-12.09 14.6c-6.73-5.61-12.7-8.85-22.82-8.85-13.96 0-25.05 12.35-25.05 27.16v.25c0 15.95 10.96 27.68 26.43 27.68 6.98 0 13.21-1.76 18.07-5.23V196.3h-19.31v-16.6h37.88v37.9c-8.97 7.61-21.32 13.84-37.26 13.84-27.2 0-45.87-19.07-45.87-44.88M423.66 109.52s-8.34-.2-13.9-4.28c-10.74-7.85-12.8-21.27-12.8-21.27s12.66-2.55 22.09 6.25c6.63 6.21 4.61 19.3 4.61 19.3M427.04 109.52s8.34-.2 13.9-4.28c10.74-7.85 12.8-21.27 12.8-21.27s-12.66-2.55-22.09 6.25c-6.64 6.21-4.61 19.3-4.61 19.3M423.66 136.16s-8.34-.2-13.9-4.27c-10.74-7.85-12.8-21.27-12.8-21.27s12.66-2.55 22.09 6.25c6.63 6.2 4.61 19.29 4.61 19.29M427.04 136.16s8.34-.2 13.9-4.27c10.74-7.85 12.8-21.27 12.8-21.27s-12.66-2.55-22.09 6.25c-6.64 6.2-4.61 19.29-4.61 19.29M427.07 56.47s10.06-.74 15.15-6.21c8.36-9.02 6.04-22.23 6.04-22.23s-10.46.83-17.55 10.02c-4.91 6.36-3.64 18.42-3.64 18.42M423.62 56.47s-10.06-.74-15.15-6.21c-8.36-9.02-6.05-22.23-6.05-22.23s10.47.83 17.56 10.02c4.91 6.36 3.64 18.42 3.64 18.42M416.17 197.04v-54.86s4.75 1.61 9.2 1.61c4.44 0 9.37-1.61 9.37-1.61V257.64h-18.57v-60.6zM425.44 0c-.59.62-8.59 9.24-8.59 21.64 0 7.6 8 12.23 8.59 12.68.59-.45 8.58-5.08 8.58-12.68 0-12.4-7.99-21.02-8.58-21.64M427.04 82.62s8.8.63 13.9-3.75c9.31-7.97 8.92-22.86 8.92-22.86s-13.13-.08-19.15 9.66c-4.06 6.55-3.67 16.95-3.67 16.95M423.68 82.62s-8.81.63-13.89-3.75c-9.31-7.97-8.93-22.86-8.93-22.86s13.14-.08 19.16 9.66c4.05 6.55 3.66 16.95 3.66 16.95M664.67 149.89H662v3.63h2.73c1.38 0 2.12-.74 2.12-1.8 0-1.22-.83-1.83-2.18-1.83m2.28 5.52l3.01 4.42h-3.18l-2.63-3.98H662v3.98h-2.73v-12.35h5.49c2.95 0 4.83 1.51 4.83 4.08.01 2.01-1.07 3.27-2.64 3.85m-2.86-11.75c-5.86 0-10.3 4.65-10.3 10.36 0 5.71 4.4 10.3 10.25 10.3 5.87 0 10.3-4.65 10.3-10.37-.01-5.7-4.42-10.29-10.25-10.29m-.06 21.95c-6.52 0-11.59-5.23-11.59-11.58s5.13-11.65 11.64-11.65c6.52 0 11.59 5.23 11.59 11.58.01 6.36-5.13 11.65-11.64 11.65"/></g></svg>
