<svg width="0" height="0" class="hidden" style="display: none;">
    <symbol xmlns="http://www.w3.org/2000/svg" id="data-download" viewBox="0 0 52 78">
        <path stroke="#2BADE2" stroke-linecap="round" stroke-width="6" d="M4.055 61.32h43.281" />
        <path stroke="#2BADE2" stroke-linecap="round" stroke-linejoin="round" stroke-width="6"
            d="m11.75 28.546 14.142 14.142 14.142-14.142" />
        <path stroke="#2BADE2" stroke-linecap="round" stroke-linejoin="round" stroke-width="8" d="M26 7.499v27" />
        <path stroke="#000" stroke-linecap="round" stroke-linejoin="round" stroke-width="6"
            d="m10.75 25.546 14.142 14.142 14.142-14.142" />
        <path stroke="#000" stroke-linecap="round" stroke-linejoin="round" stroke-width="8" d="M25 4.499v27" />
        <path stroke="#000" stroke-linecap="round" stroke-width="6" d="M3.305 59.32h43.281" />
    </symbol>
    <symbol xmlns="http://www.w3.org/2000/svg" id="map-explorer" viewBox="0 0 71 71">
        <path fill="#2BADE2" fill-rule="evenodd" d="M35.7 1.3A35 35 0 0 0 11 12.5a34.2 34.2 0 0 0-4.6 40.2 35.5 35.5 0 0 0 22.9 16.8 34.5 34.5 0 1 0 6.3-68.2Zm-7.2 6a39.9 39.9 0 0 0-7.9 11.2 34.6 34.6 0 0 1-6.4-3.8l2.7-2.5A30.2 30.2 0 0 1 29.7 6l-1.2 1.3ZM44.3 6a30.4 30.4 0 0 1 14.1 8.2l-2.6 1.9-3.5 1.9-.6-1.1a40.6 40.6 0 0 0-8.4-11.1l1 .2Zm-5 2.4A36 36 0 0 1 48 19.7l-.8.4c-2.4.7-5.5 1.3-8 1.5h-1v-6.9c0-5.6 0-7 .2-7l.9.8Zm-5 6.4v6.8h-.2a45.6 45.6 0 0 1-9-1.6l.5-1.2a36.2 36.2 0 0 1 8.7-11v7Zm27.7 4a30 30 0 0 1 5 15.7H56.6v-1A40.6 40.6 0 0 0 54 21.7l1-.7c1.6-.7 3.4-1.8 4.9-2.9l1.2-.8.2.2.8 1.3Zm-47.3 1a46.8 46.8 0 0 0 4.5 2.3l-.3 1.2a40.3 40.3 0 0 0-2 11.2h-11v-1c.4-5.1 2-10.1 4.9-14.4 1-1.5.8-1.4 1.7-.7l2.2 1.4ZM50 24.2c1 3.1 1.8 6.9 1.9 9.4v.9H38.3v-9h1.4a40.7 40.7 0 0 0 9.9-2.2l.4 1Zm-24.3 0a39.5 39.5 0 0 0 8.2 1.3h.4v9H21.6a38.2 38.2 0 0 1 1.6-9.9l.3-1 .4.2 1.8.5Zm-8.7 15a41.8 41.8 0 0 0 2.2 10.5l-1.3.6c-1.9 1-3.9 2.2-5.5 3.4l-.5.4-.5-.7A31 31 0 0 1 6 38.9v-.5h11v.7Zm17.3 3v4h-.5A43.6 43.6 0 0 0 23.4 48l-1-3.2a45 45 0 0 1-.9-6v-.5h12.8v3.9ZM52 39a37.3 37.3 0 0 1-2 9.5l-1-.3a41 41 0 0 0-9.7-1.9h-1v-7.8H52v.5Zm15 0a31 31 0 0 1-6 15.3l-.5-.3a40.7 40.7 0 0 0-6.3-3.8l.3-.7a41.7 41.7 0 0 0 2-10.4v-.6H67v.5ZM34.3 57v7A36.9 36.9 0 0 1 25 51.7a44.7 44.7 0 0 1 9-1.7h.2v7Zm6.5-6.7a35.8 35.8 0 0 1 7.8 1.8l-.8 1.6a35.7 35.7 0 0 1-9.5 11.6V50h.6l1.9.3ZM21.5 55A40.3 40.3 0 0 0 29 65.5l-3.8-1.2a30 30 0 0 1-9.9-6.4l-1-.9.3-.2a43.3 43.3 0 0 1 6-3.4l1 1.6Zm34.7.5 2.2 1.7-2.7 2.5c-3 2.5-6.6 4.3-10.2 5.4-.6.2-.6.1.2-.6a37 37 0 0 0 6.3-9.3l.8-1.5 1.2.6 2.2 1.2Z" clip-rule="evenodd"/>
        <path fill="#000" fill-rule="evenodd" d="M33.7 0A35 35 0 0 0 9 11.2a34.2 34.2 0 0 0-4.6 40.3 35.5 35.5 0 0 0 22.9 16.7A34.5 34.5 0 1 0 33.7 0Zm-7.2 6a39.9 39.9 0 0 0-7.9 11.3 34.6 34.6 0 0 1-6.4-3.8 30.2 30.2 0 0 1 15.4-8.9l-1 1.4Zm15.8-1.1A30.4 30.4 0 0 1 56.4 13a38.2 38.2 0 0 1-6.2 3.8l-.5-1a40.6 40.6 0 0 0-8.4-11.2l1 .3Zm-5 2.3A36 36 0 0 1 46 18.5l-.8.3c-2.4.8-5.5 1.4-8 1.6h-1v-7c0-5.5 0-7 .2-6.9l.9.7Zm-5 6.4v6.9h-.2a45.6 45.6 0 0 1-9-1.7l.5-1.2a36.2 36.2 0 0 1 8.7-10.9v6.9ZM60 17.5a30 30 0 0 1 5 15.7H54.6v-1A40.6 40.6 0 0 0 52 20.5c0-.1.2-.3 1-.7 1.6-.8 3.4-2 4.9-3L59 16l.2.2c0 .2.5.7.8 1.3Zm-47.3 1a46.8 46.8 0 0 0 4.5 2.4L17 22a40.3 40.3 0 0 0-2 11.2H4v-1c.4-5 2-10 4.9-14.4 1-1.4.8-1.4 1.7-.7l2.2 1.4ZM48 23c1 3 1.8 6.8 1.9 9.3v.9H36.3v-8.9l1.4-.2a40.7 40.7 0 0 0 9.9-2l.4.9Zm-24.3 0a39.5 39.5 0 0 0 8.2 1.3h.4v8.9H19.6a38.2 38.2 0 0 1 1.6-9.9l.3-.9.4.1 1.8.5ZM15 37.8a41.8 41.8 0 0 0 2.2 10.7l-1.3.6c-1.9 1-3.9 2.1-5.5 3.3l-.5.4-.5-.7A31 31 0 0 1 4 37.6v-.5h11v.7ZM32.3 41v4h-.5a43.6 43.6 0 0 0-10.4 1.8l-1-3.2c-.4-1.9-.7-3.5-.9-5.9v-.6h12.8v4ZM50 37.6a37.3 37.3 0 0 1-2 9.5l-1-.3a41 41 0 0 0-9.7-1.9h-1V37H50v.5Zm15 0A31 31 0 0 1 59 53l-.5-.4a40.7 40.7 0 0 0-6.3-3.7l.3-.8a41.7 41.7 0 0 0 2-10.4v-.6H65v.5ZM32.4 55.7v7A36.9 36.9 0 0 1 23 50.5a44.7 44.7 0 0 1 9.1-1.7h.2v7Zm6.5-6.8a35.8 35.8 0 0 1 7.8 1.9l-.8 1.5A35.7 35.7 0 0 1 36.3 64V48.7h.6l1.9.2Zm-19.3 4.8A40.3 40.3 0 0 0 27 64.2a30 30 0 0 1-13.7-7.5l-1-1 .3-.2a43.3 43.3 0 0 1 6-3.4l1 1.6Zm34.7.6 2.2 1.6-2.7 2.6a31 31 0 0 1-10.2 5.3c-.6.2-.6.2.2-.6 2.4-2.6 4.6-5.7 6.3-9.2l.8-1.6 1.2.6 2.2 1.3Z" clip-rule="evenodd"/>
    </symbol>
    <symbol xmlns="http://www.w3.org/2000/svg" id="place-explorer" viewBox="0 0 54 80">
        <path stroke="#2BADE2" stroke-width="6" d="M50.5 28c0 3.2-.9 7.9-2.5 13.3a123 123 0 0 1-6.3 16.8 74 74 0 0 1-8 14c-1.4 1.7-2.7 3-3.9 3.8-1.1.9-1.9 1.1-2.3 1.1-.4 0-1.2-.2-2.3-1-1.2-.9-2.5-2.2-3.8-4a74 74 0 0 1-8.1-13.9A123 123 0 0 1 7 41.3 52.7 52.7 0 0 1 4.5 28a23 23 0 0 1 46 0Z"/>
        <circle cx="27" cy="28.5" r="9.5" stroke="#2BADE2" stroke-width="6"/>
        <path stroke="#000" stroke-width="6" d="M49 26c0 3.2-.9 7.9-2.5 13.3a123 123 0 0 1-6.3 16.8 74 74 0 0 1-8 14c-1.4 1.7-2.7 3-3.9 3.8-1.1.9-1.9 1.1-2.3 1.1-.4 0-1.2-.2-2.3-1-1.2-.9-2.5-2.2-3.8-4a74 74 0 0 1-8.1-13.9 123 123 0 0 1-6.3-16.8A52.7 52.7 0 0 1 3 26a23 23 0 0 1 46 0Z"/>
        <circle cx="25.5" cy="26.5" r="9.5" stroke="#000" stroke-width="6"/>
    </symbol>
    <symbol xmlns="http://www.w3.org/2000/svg" id="scatter-plots" viewBox="0 0 66 66">
        <path d="M3.80859 3.85986V62.402H62.3507" stroke="black" stroke-width="6" stroke-linecap="round" />
        <circle cx="16.1034" cy="14.3973" r="2.34169" fill="black" />
        <circle cx="11.4198" cy="36.6434" r="2.34169" fill="black" />
        <circle cx="20.785" cy="30.7889" r="2.34169" fill="black" />
        <circle cx="24.8847" cy="38.9852" r="2.34169" fill="black" />
        <circle cx="24.8847" cy="50.1078" r="2.34169" fill="black" />
        <circle cx="35.4198" cy="28.4472" r="2.34169" fill="#2BADE2" />
        <circle cx="52.3983" cy="9.71424" r="2.34169" fill="#2BADE2" />
        <circle cx="40.1054" cy="41.327" r="2.34169" fill="black" />
        <circle cx="50.0565" cy="19.0809" r="2.34169" fill="#2BADE2" />
        <circle cx="29.5682" cy="19.0809" r="2.34169" fill="black" />
        <circle cx="35.4198" cy="14.3973" r="2.34169" fill="#2BADE2" />
    </symbol>
    <symbol xmlns="http://www.w3.org/2000/svg" id="timelines" viewBox="0 0 66 66">
        <path d="M3.97656 3.50684V62.4103H62.8801" stroke="black" stroke-width="6" stroke-linecap="round" />
        <path
            d="M12.7949 49.3896C12.7949 49.3896 18.0786 38.5731 24.5756 36.7254C31.2621 34.8238 34.7917 42.8202 41.6576 41.7322C50.7377 40.2932 58.7397 25.5337 58.7397 25.5337"
            stroke="#2BADE2" stroke-width="6" stroke-linecap="round" />
        <path
            d="M11.0449 47.3896C11.0449 47.3896 16.3286 36.5731 22.8256 34.7254C29.5121 32.8238 33.0417 40.8202 39.9076 39.7322C48.9877 38.2932 56.9897 23.5337 56.9897 23.5337"
            stroke="black" stroke-width="6" stroke-linecap="round" />
    </symbol>
</svg>