<?xml version="1.0" encoding="UTF-8"?> <svg xmlns="http://www.w3.org/2000/svg" width="98" height="98"><path d="M48.5 0a48.5 48.5 0 1 0 0 97 48.5 48.5 0 0 0 0-97ZM35 55.3c0 5.8-5.1 9.9-11.5 9.9-6.6 0-11.5-4-11.5-9.9V39.2c0-5.8 5-9.9 11.5-9.9 6.4 0 11.4 3.9 11.4 9.9v16.1Zm26.7 9h-7.5L48.7 53l-2.3-4.9v16.1h-8.1V30.1h8l5.2 11.4 2.1 4.9V29.9h8.2v34.3Zm19.6-20.8v6.4h-6.8v6.4H85v8H65.2V30h19.6v7.3H74.3v6h7Zm-58-6.8a1.9 1.9 0 0 0-2.1 1.7v17.3a1.9 1.9 0 0 0 2.1 1.7 1.9 1.9 0 0 0 2.2-1.7V38.4a2 2 0 0 0-2.2-1.7Z"></path></svg> 