<svg xmlns="http://www.w3.org/2000/svg" width="676.4" height="346.73" overflow="visible"><style>.st0{fill:#fff}</style><path class="st0" d="M424.12 109.63s-8.35-.2-13.92-4.28c-10.74-7.86-12.81-21.29-12.81-21.29s12.67-2.56 22.1 6.26c6.66 6.21 4.63 19.31 4.63 19.31M427.51 109.63s8.35-.2 13.92-4.28c10.74-7.86 12.81-21.29 12.81-21.29s-12.67-2.56-22.1 6.26c-6.67 6.21-4.63 19.31-4.63 19.31M424.12 136.31s-8.35-.2-13.92-4.28c-10.74-7.86-12.81-21.29-12.81-21.29s12.67-2.55 22.1 6.26c6.66 6.2 4.63 19.31 4.63 19.31M427.51 136.31s8.35-.2 13.92-4.28c10.74-7.86 12.81-21.29 12.81-21.29s-12.67-2.55-22.1 6.26c-6.67 6.2-4.63 19.31-4.63 19.31M427.53 56.52s10.07-.74 15.16-6.21c8.36-9.03 6.05-22.25 6.05-22.25s-10.47.83-17.57 10.03c-4.91 6.37-3.64 18.43-3.64 18.43M424.07 56.52s-10.07-.74-15.16-6.21c-8.36-9.03-6.05-22.25-6.05-22.25s10.47.83 17.58 10.03c4.91 6.37 3.63 18.43 3.63 18.43M416.62 197.25v-54.92s4.76 1.61 9.21 1.61c4.44 0 9.38-1.6 9.38-1.6v107.93h-18.59v-53.02zM416.63 258.09v87.03h18.56v-87.03zM19.32 144.28h72.03v17.47h-52.8v18.59h47.19v17.48H38.55v33.81H19.32zM114.88 144.28h71.4v17.1h-52.31v17.71h46.71v17.1h-46.71v18.34h52.95v17.1h-72.04zM216.15 144.28h67.69v17.1h-48.59v17.71h43.82v17.1h-43.82v18.34h49.21v17.1h-68.31zM347.43 214.28c15.71 0 26.33-10.61 26.33-26.08v-.25c0-15.46-10.62-26.32-26.33-26.32h-16.3v52.66h16.3zm-35.52-70h35.51c27.44 0 46.41 18.84 46.41 43.42v.25c0 24.59-18.97 43.68-46.41 43.68h-35.51v-87.35zM462.36 144.28h18.01l38.45 53.79v-53.79h19.28v87.35h-16.62l-39.84-55.52v55.52h-19.28zM560.13 186.76v-.25c0-24.82 19.34-45.16 45.79-45.16 15.71 0 25.2 4.24 34.31 11.97l-12.1 14.62c-6.74-5.63-12.72-8.86-22.85-8.86-13.97 0-25.07 12.36-25.07 27.19v.25c0 15.97 10.97 27.71 26.45 27.71 6.98 0 13.23-1.76 18.09-5.24v-12.48h-19.33V179.9h37.93v37.94c-8.98 7.62-21.33 13.85-37.3 13.85-27.22-.01-45.92-19.1-45.92-44.93M46.05 280.36l11.6 28.32H34.43l11.62-28.32zm-8.61-23.1L0 345.23h19.6l7.98-19.6h36.93l7.98 19.6h20.1l-37.44-87.97H37.44zM175.09 257.89l-22.75 36.26-22.74-36.26h-20.82v87.34h18.08V288.2l24.99 36.66h.49l25.24-37.03v57.4h18.33v-87.34zM224.68 257.89v87.34h67.56v-17.09h-48.47V309.8H286v-17.1h-42.23v-17.72h47.85v-17.09z"/><g><path class="st0" d="M356 300.31c9.37 0 14.72-4.99 14.72-12.36v-.25c0-8.22-5.74-12.48-15.1-12.48h-17.44v25.09H356zm-37.04-42.42h38.28c11.11 0 19.73 3.11 25.47 8.86 4.85 4.86 7.48 11.74 7.48 19.96v.25c0 14.11-7.61 22.96-18.72 27.08l21.33 31.2h-22.45l-18.72-27.96h-13.46v27.96h-19.21v-87.35zM460.48 301.83v-.28c0-24.83 18.71-45.18 45.54-45.18 17.83 0 27.87 6.73 36.96 16.15l-12.76 13.49c-7.01-7.22-14.96-11.91-24.33-11.91-14.72 0-25.33 12.23-25.33 27.21v.24c0 14.98 10.35 27.46 25.33 27.46 9.98 0 18.16-5.24 25.17-12.24l12.13 11.92c-9.31 10.04-19.56 18.04-37.94 18.04-25.68 0-44.77-19.85-44.77-44.9"/></g><path class="st0" d="M605.74 277.26l13.45 30.29h-27.08l13.63-30.29zm-9.18-21.12l-39.19 87.97h19.58l8.35-19.58h41.07l8.36 19.58h19.53l-39.17-87.97h-18.53z"/><g><path class="st0" d="M425.9 0c-.59.63-8.6 9.25-8.6 21.66 0 7.61 8 12.24 8.6 12.7.59-.45 8.6-5.09 8.6-12.7 0-12.41-8.01-21.03-8.6-21.66M427.51 82.7s8.81.63 13.9-3.75c9.32-7.98 8.94-22.88 8.94-22.88s-13.14-.09-19.18 9.67c-4.06 6.55-3.66 16.96-3.66 16.96M424.13 82.7s-8.81.63-13.9-3.75c-9.32-7.98-8.94-22.88-8.94-22.88s13.14-.09 19.18 9.67c4.06 6.55 3.66 16.96 3.66 16.96M665.39 150.05h-2.67v3.63h2.73c1.38 0 2.12-.74 2.12-1.8 0-1.22-.83-1.83-2.18-1.83m2.28 5.52l3.02 4.43h-3.18l-2.63-3.98h-2.15V160H660v-12.37h5.49c2.96 0 4.85 1.51 4.85 4.08-.01 2.03-1.1 3.28-2.67 3.86m-2.86-11.75c-5.88 0-10.31 4.66-10.31 10.38 0 5.72 4.4 10.31 10.25 10.31 5.88 0 10.31-4.66 10.31-10.38 0-5.72-4.41-10.31-10.25-10.31m-.06 21.97c-6.52 0-11.6-5.24-11.6-11.6s5.14-11.66 11.66-11.66c6.52 0 11.6 5.24 11.6 11.6s-5.14 11.66-11.66 11.66"/></g></svg>